G75*
%MOIN*%
%OFA0B0*%
%FSLAX25Y25*%
%IPPOS*%
%LPD*%
%AMOC8*
5,1,8,0,0,1.08239X$1,22.5*
%
%ADD10C,0.02369*%
%ADD11R,0.01000X0.02450*%
%ADD12R,0.02445X0.01000*%
%ADD13R,0.02400X0.01000*%
%ADD14R,0.01000X0.02400*%
D10*
X0047300Y0222300D03*
X0257300Y0082300D03*
D11*
X0061300Y0089800D03*
X0069800Y0097300D03*
X0069800Y0107300D03*
X0061300Y0112300D03*
X0059300Y0107300D03*
X0061300Y0124800D03*
X0066800Y0172800D03*
X0066800Y0175800D03*
X0066800Y0178800D03*
X0066800Y0181800D03*
X0066800Y0190300D03*
X0066800Y0193300D03*
X0066800Y0196300D03*
X0066800Y0199300D03*
X0066800Y0207800D03*
X0066800Y0210800D03*
X0066800Y0213800D03*
X0066800Y0216800D03*
X0100150Y0190300D03*
X0237800Y0131800D03*
X0237800Y0128800D03*
X0237800Y0125800D03*
X0237800Y0122800D03*
X0237800Y0114300D03*
X0237800Y0111300D03*
X0237800Y0108300D03*
X0237800Y0105300D03*
X0237800Y0096800D03*
X0237800Y0093800D03*
X0237800Y0090800D03*
X0237800Y0087800D03*
X0251300Y0217300D03*
X0251050Y0232300D03*
X0251050Y0235300D03*
D12*
X0245550Y0233800D03*
X0252800Y0202300D03*
X0235800Y0188800D03*
X0232800Y0188800D03*
X0214650Y0188800D03*
X0205650Y0188800D03*
X0202650Y0188800D03*
X0199650Y0188800D03*
X0201650Y0215800D03*
X0204650Y0215800D03*
X0208650Y0215800D03*
X0211650Y0215800D03*
X0181650Y0215800D03*
X0150650Y0215800D03*
X0147650Y0215800D03*
X0121650Y0215800D03*
X0096650Y0215800D03*
X0093650Y0215800D03*
X0089650Y0215800D03*
X0086650Y0215800D03*
X0083650Y0215800D03*
X0077150Y0215800D03*
X0074150Y0215800D03*
X0061300Y0214300D03*
X0061300Y0228800D03*
X0061300Y0196800D03*
X0074150Y0188800D03*
X0077150Y0188800D03*
X0080150Y0188800D03*
X0083150Y0188800D03*
X0086150Y0188800D03*
X0089150Y0188800D03*
X0092150Y0188800D03*
X0095150Y0188800D03*
X0061300Y0179300D03*
X0076650Y0115800D03*
X0079650Y0115800D03*
X0084650Y0115800D03*
X0087650Y0115800D03*
X0090650Y0115800D03*
X0093650Y0115800D03*
X0096650Y0115800D03*
X0099650Y0115800D03*
X0102650Y0115800D03*
X0092150Y0088800D03*
X0089150Y0088800D03*
X0086150Y0088800D03*
X0083150Y0088800D03*
X0076650Y0088800D03*
X0071300Y0102300D03*
X0068300Y0102300D03*
X0053800Y0105300D03*
X0053800Y0095300D03*
X0121650Y0088800D03*
X0146650Y0088800D03*
X0151650Y0088800D03*
X0181650Y0088800D03*
X0201650Y0088800D03*
X0206650Y0088800D03*
X0209650Y0088800D03*
X0214150Y0088800D03*
X0218650Y0088800D03*
X0221650Y0088800D03*
X0243300Y0090300D03*
X0243300Y0075800D03*
X0243300Y0107800D03*
X0243300Y0125300D03*
X0221650Y0115800D03*
X0218650Y0115800D03*
X0214650Y0115800D03*
X0211650Y0115800D03*
X0208650Y0115800D03*
X0204650Y0115800D03*
X0201650Y0115800D03*
X0198650Y0115800D03*
D13*
X0249800Y0212300D03*
X0252800Y0212300D03*
D14*
X0219150Y0190400D03*
X0219150Y0187200D03*
M02*
