M48
INCH,TZ
T10C0.008
T11C0.080
%
T10
T11
X259000Y649000
X259000Y654000
X259000Y659000
X259000Y664000
X259000Y669000
X259000Y674000
X259000Y679000
X259000Y684000
X259000Y689000
X259000Y694000
X254000Y694000
X254000Y689000
X254000Y684000
X254000Y679000
X254000Y674000
X254000Y669000
X254000Y664000
X249000Y664000
X249000Y669000
X249000Y674000
X249000Y679000
X249000Y684000
X249000Y689000
X249000Y694000
X244000Y694000
X244000Y689000
X244000Y684000
X244000Y679000
X244000Y674000
X244000Y669000
X244000Y664000
X239000Y664000
X239000Y669000
X239000Y674000
X239000Y679000
X239000Y684000
X239000Y689000
X239000Y694000
X234000Y694000
X234000Y689000
X229000Y689000
X229000Y694000
X224000Y694000
X224000Y689000
X219000Y689000
X219000Y694000
X214000Y694000
X209000Y694000
X209000Y689000
X214000Y689000
X204000Y689000
X204000Y694000
X199000Y694000
X199000Y689000
X194000Y689000
X194000Y694000
X189000Y694000
X189000Y689000
X184000Y689000
X184000Y694000
X179000Y694000
X179000Y689000
X174000Y689000
X174000Y694000
X169000Y694000
X169000Y689000
X164000Y689000
X164000Y694000
X159000Y694000
X159000Y689000
X154000Y689000
X154000Y694000
X149000Y694000
X149000Y689000
X144000Y689000
X144000Y694000
X139000Y694000
X134000Y694000
X134000Y689000
X139000Y689000
X129000Y689000
X129000Y694000
X124000Y694000
X124000Y689000
X119000Y689000
X119000Y694000
X114000Y694000
X114000Y689000
X109000Y689000
X109000Y694000
X104000Y694000
X104000Y689000
X099000Y689000
X099000Y694000
X094000Y694000
X094000Y689000
X089000Y689000
X089000Y694000
X084000Y694000
X084000Y689000
X079000Y689000
X079000Y694000
X074000Y694000
X074000Y689000
X069000Y689000
X069000Y694000
X064000Y694000
X059000Y694000
X059000Y689000
X064000Y689000
X054000Y689000
X054000Y694000
X049000Y694000
X049000Y689000
X044000Y689000
X044000Y694000
X039000Y694000
X039000Y689000
X034000Y689000
X034000Y694000
X029000Y694000
X029000Y689000
X024000Y689000
X024000Y694000
X019000Y694000
X019000Y689000
X014000Y689000
X011500Y690300
X011500Y692700
X009000Y691500
X009000Y694000
X009000Y689000
X014000Y694000
X264000Y694000
X264000Y689000
X264000Y684000
X264000Y679000
X264000Y674000
X264000Y669000
X264000Y664000
X264000Y659000
X264000Y654000
X264000Y649000
X279000Y649000
X279000Y654000
X279000Y659000
X279000Y664000
X279000Y669000
X279000Y674000
X279000Y679000
X279000Y684000
X279000Y689000
X279000Y694000
X274000Y694000
X274000Y689000
X274000Y684000
X274000Y679000
X274000Y674000
X269000Y674000
X269000Y679000
X269000Y684000
X269000Y689000
X269000Y694000
X284000Y694000
X289000Y694000
X289000Y689000
X289000Y684000
X284000Y684000
X284000Y689000
X284000Y679000
X289000Y679000
X289000Y674000
X289000Y669000
X284000Y669000
X284000Y674000
X284000Y664000
X289000Y664000
X294000Y664000
X294000Y669000
X294000Y674000
X294000Y679000
X294000Y684000
X299000Y684000
X299000Y689000
X299000Y694000
X294000Y694000
X304000Y694000
X304000Y689000
X304000Y684000
X304000Y679000
X304000Y674000
X304000Y669000
X304000Y664000
X299000Y664000
X299000Y669000
X299000Y674000
X299000Y679000
X309000Y679000
X309000Y674000
X309000Y669000
X309000Y664000
X309000Y659000
X309000Y654000
X309000Y649000
X314000Y649000
X314000Y654000
X314000Y659000
X314000Y664000
X314000Y669000
X314000Y674000
X314000Y679000
X314000Y684000
X314000Y689000
X314000Y694000
X309000Y694000
X309000Y689000
X309000Y684000
X319000Y684000
X319000Y689000
X319000Y694000
X324000Y694000
X324000Y689000
X324000Y684000
X324000Y679000
X324000Y674000
X319000Y674000
X319000Y679000
X329000Y679000
X329000Y674000
X329000Y669000
X329000Y664000
X329000Y659000
X329000Y654000
X329000Y649000
X334000Y649000
X334000Y654000
X334000Y659000
X334000Y664000
X334000Y669000
X334000Y674000
X334000Y679000
X334000Y684000
X334000Y689000
X334000Y694000
X329000Y694000
X329000Y689000
X329000Y684000
X339000Y684000
X339000Y689000
X339000Y694000
X344000Y694000
X344000Y689000
X344000Y684000
X344000Y679000
X344000Y674000
X344000Y669000
X344000Y664000
X339000Y664000
X339000Y669000
X339000Y674000
X339000Y679000
X349000Y679000
X349000Y674000
X349000Y669000
X349000Y664000
X354000Y664000
X354000Y669000
X354000Y674000
X354000Y679000
X354000Y684000
X354000Y689000
X354000Y694000
X349000Y694000
X349000Y689000
X349000Y684000
X359000Y684000
X364000Y684000
X364000Y689000
X359000Y689000
X359000Y694000
X364000Y694000
X369000Y694000
X369000Y689000
X369000Y684000
X369000Y679000
X369000Y674000
X369000Y669000
X369000Y664000
X369000Y659000
X369000Y654000
X369000Y649000
X374000Y649000
X374000Y654000
X374000Y659000
X374000Y664000
X374000Y669000
X374000Y674000
X374000Y679000
X374000Y684000
X374000Y689000
X374000Y694000
X379000Y694000
X379000Y689000
X379000Y684000
X379000Y679000
X379000Y674000
X384000Y674000
X384000Y679000
X384000Y684000
X384000Y689000
X384000Y694000
X389000Y694000
X389000Y689000
X389000Y684000
X389000Y679000
X389000Y674000
X389000Y669000
X389000Y664000
X389000Y659000
X389000Y654000
X389000Y649000
X394000Y649000
X394000Y654000
X394000Y659000
X394000Y664000
X394000Y669000
X394000Y674000
X394000Y679000
X394000Y684000
X394000Y689000
X394000Y694000
X399000Y694000
X399000Y689000
X399000Y684000
X399000Y679000
X399000Y674000
X399000Y669000
X399000Y664000
X404000Y664000
X404000Y669000
X404000Y674000
X404000Y679000
X404000Y684000
X404000Y689000
X404000Y694000
X409000Y694000
X414000Y694000
X414000Y689000
X414000Y684000
X414000Y679000
X414000Y674000
X414000Y669000
X414000Y664000
X409000Y664000
X409000Y669000
X409000Y674000
X409000Y679000
X409000Y684000
X419000Y684000
X419000Y689000
X419000Y694000
X424000Y694000
X424000Y689000
X424000Y684000
X424000Y679000
X424000Y674000
X424000Y669000
X424000Y664000
X424000Y659000
X424000Y654000
X424000Y649000
X419000Y649000
X419000Y654000
X419000Y659000
X419000Y664000
X419000Y669000
X419000Y674000
X419000Y679000
X429000Y679000
X429000Y674000
X434000Y674000
X439000Y674000
X439000Y669000
X439000Y664000
X439000Y659000
X439000Y654000
X439000Y649000
X444000Y649000
X444000Y654000
X444000Y659000
X444000Y664000
X444000Y669000
X444000Y674000
X444000Y679000
X444000Y684000
X444000Y689000
X444000Y694000
X439000Y694000
X434000Y694000
X434000Y689000
X434000Y684000
X439000Y684000
X439000Y689000
X439000Y679000
X434000Y679000
X429000Y684000
X429000Y689000
X429000Y694000
X449000Y694000
X449000Y689000
X449000Y684000
X449000Y679000
X449000Y674000
X449000Y669000
X449000Y664000
X454000Y664000
X454000Y669000
X454000Y674000
X454000Y679000
X454000Y684000
X459000Y684000
X459000Y689000
X459000Y694000
X454000Y694000
X459000Y679000
X464000Y674000
X464000Y669000
X464000Y664000
X459000Y664000
X459000Y669000
X469000Y669000
X469000Y674000
X474000Y674000
X479000Y674000
X479000Y669000
X479000Y664000
X479000Y659000
X479000Y654000
X479000Y649000
X479000Y644000
X479000Y639000
X479000Y634000
X479000Y629000
X479000Y624000
X479000Y619000
X479000Y614000
X479000Y609000
X479000Y604000
X479000Y599000
X479000Y594000
X479000Y589000
X479000Y584000
X479000Y579000
X479000Y574000
X479000Y569000
X479000Y564000
X479000Y559000
X479000Y554000
X479000Y549000
X479000Y544000
X479000Y539000
X479000Y534000
X479000Y529000
X479000Y524000
X479000Y519000
X479000Y514000
X479000Y509000
X479000Y504000
X479000Y499000
X479000Y494000
X479000Y489000
X479000Y484000
X479000Y479000
X479000Y474000
X479000Y469000
X479000Y464000
X479000Y459000
X479000Y454000
X479000Y449000
X479000Y444000
X479000Y439000
X479000Y434000
X479000Y429000
X479000Y424000
X479000Y419000
X479000Y414000
X479000Y409000
X479000Y404000
X479000Y399000
X479000Y394000
X479000Y389000
X479000Y384000
X479000Y379000
X479000Y374000
X479000Y369000
X479000Y364000
X479000Y359000
X479000Y354000
X479000Y349000
X479000Y344000
X479000Y339000
X479000Y334000
X479000Y329000
X479000Y324000
X479000Y319000
X479000Y314000
X479000Y309000
X479000Y304000
X479000Y299000
X479000Y294000
X479000Y289000
X479000Y284000
X479000Y279000
X479000Y274000
X479000Y269000
X479000Y264000
X479000Y259000
X479000Y254000
X479000Y249000
X479000Y244000
X479000Y239000
X479000Y234000
X479000Y229000
X479000Y224000
X479000Y219000
X479000Y214000
X479000Y209000
X479000Y204000
X479000Y199000
X479000Y194000
X479000Y189000
X479000Y184000
X479000Y179000
X479000Y174000
X479000Y169000
X479000Y164000
X479000Y159000
X479000Y154000
X479000Y149000
X479000Y144000
X479000Y139000
X479000Y134000
X479000Y129000
X479000Y124000
X479000Y119000
X479000Y114000
X479000Y109000
X479000Y104000
X479000Y099000
X479000Y094000
X479000Y089000
X479000Y084000
X479000Y079000
X479000Y074000
X479000Y069000
X479000Y064000
X479000Y059000
X479000Y054000
X479000Y049000
X479000Y044000
X479000Y039000
X479000Y034000
X479000Y029000
X479000Y024000
X479000Y019000
X479000Y014000
X477700Y011500
X475300Y011500
X476500Y009000
X474000Y009000
X474000Y014000
X474000Y019000
X474000Y024000
X474000Y029000
X474000Y034000
X474000Y039000
X474000Y044000
X474000Y049000
X474000Y054000
X474000Y059000
X474000Y064000
X474000Y069000
X474000Y074000
X474000Y079000
X474000Y084000
X474000Y089000
X474000Y094000
X474000Y099000
X474000Y104000
X474000Y109000
X474000Y114000
X474000Y119000
X474000Y124000
X474000Y129000
X474000Y134000
X474000Y139000
X474000Y144000
X474000Y149000
X474000Y154000
X474000Y159000
X474000Y164000
X474000Y169000
X474000Y174000
X474000Y179000
X474000Y184000
X474000Y189000
X474000Y194000
X474000Y199000
X474000Y204000
X474000Y209000
X474000Y214000
X474000Y219000
X474000Y224000
X474000Y229000
X474000Y234000
X474000Y239000
X474000Y244000
X474000Y249000
X474000Y254000
X474000Y259000
X474000Y264000
X474000Y269000
X474000Y274000
X474000Y279000
X474000Y284000
X474000Y289000
X474000Y294000
X474000Y299000
X474000Y304000
X474000Y309000
X474000Y314000
X474000Y319000
X474000Y324000
X474000Y329000
X474000Y334000
X474000Y339000
X474000Y344000
X474000Y349000
X474000Y354000
X474000Y359000
X474000Y364000
X474000Y369000
X474000Y374000
X474000Y379000
X474000Y384000
X474000Y389000
X474000Y394000
X474000Y399000
X474000Y404000
X474000Y409000
X474000Y414000
X474000Y419000
X474000Y424000
X474000Y429000
X474000Y434000
X474000Y439000
X474000Y444000
X474000Y449000
X474000Y454000
X474000Y459000
X474000Y464000
X474000Y469000
X474000Y474000
X474000Y479000
X474000Y484000
X474000Y489000
X474000Y494000
X474000Y499000
X474000Y504000
X474000Y509000
X474000Y514000
X474000Y519000
X474000Y524000
X474000Y529000
X474000Y534000
X474000Y539000
X474000Y544000
X474000Y549000
X474000Y554000
X474000Y559000
X474000Y564000
X474000Y569000
X474000Y574000
X474000Y579000
X474000Y584000
X474000Y589000
X474000Y594000
X474000Y599000
X474000Y604000
X474000Y609000
X474000Y614000
X474000Y619000
X474000Y624000
X474000Y629000
X474000Y634000
X474000Y639000
X474000Y644000
X474000Y649000
X474000Y654000
X474000Y659000
X474000Y664000
X469000Y664000
X364000Y664000
X359000Y664000
X359000Y669000
X364000Y669000
X364000Y674000
X359000Y674000
X359000Y679000
X364000Y679000
X284000Y659000
X284000Y654000
X284000Y649000
X479000Y009000
M30

