G75*
%MOIN*%
%OFA0B0*%
%FSLAX25Y25*%
%IPPOS*%
%LPD*%
%AMOC8*
5,1,8,0,0,1.08239X$1,22.5*
%
%ADD10C,0.01200*%
%ADD11C,0.01100*%
%ADD12C,0.01000*%
%ADD13C,0.00900*%
%ADD14C,0.00800*%
%ADD15C,0.00700*%
%ADD16C,0.00600*%
%ADD17C,0.00500*%
%ADD18C,0.00400*%
%ADD19C,0.00300*%
%ADD20C,0.00200*%
%ADD21C,0.00100*%
%ADD22C,0.00394*%
%ADD23C,0.02362*%
D10*
X0266833Y0206329D02*
X0269333Y0203829D01*
D11*
X0266833Y0203829D02*
X0264333Y0206329D01*
D12*
X0261833Y0206329D02*
X0264333Y0203829D01*
D13*
X0261833Y0203829D02*
X0259333Y0206329D01*
D14*
X0256833Y0206329D02*
X0259333Y0203829D01*
D15*
X0256833Y0203829D02*
X0254333Y0206329D01*
D16*
X0251833Y0206329D02*
X0254333Y0203829D01*
X0129865Y0198583D02*
X0129865Y0197205D01*
X0128487Y0197205D01*
X0115495Y0197205D02*
X0114117Y0197205D01*
X0114117Y0198583D01*
X0114117Y0211575D02*
X0114117Y0212953D01*
X0115495Y0212953D01*
X0128487Y0212953D02*
X0129865Y0212953D01*
X0129865Y0211575D01*
X0433802Y0211575D02*
X0433802Y0212953D01*
X0435180Y0212953D01*
X0448172Y0212953D02*
X0449550Y0212953D01*
X0449550Y0211575D01*
X0449550Y0198583D02*
X0449550Y0197205D01*
X0448172Y0197205D01*
X0435180Y0197205D02*
X0433802Y0197205D01*
X0433802Y0198583D01*
D17*
X0076007Y0099617D02*
X0047660Y0099617D01*
X0047660Y0111822D01*
X0076007Y0112018D02*
X0076007Y0099617D01*
X0081330Y0133090D02*
X0084833Y0133090D01*
X0083082Y0133090D02*
X0083082Y0135425D01*
X0084833Y0135425D02*
X0081330Y0135425D01*
X0081330Y0136773D02*
X0081330Y0139108D01*
X0081330Y0137941D02*
X0084833Y0137941D01*
X0084250Y0140456D02*
X0081330Y0140456D01*
X0081330Y0142792D02*
X0084250Y0142792D01*
X0084833Y0142208D01*
X0084833Y0141040D01*
X0084250Y0140456D01*
X0084250Y0144139D02*
X0081914Y0144139D01*
X0081330Y0144723D01*
X0081330Y0145891D01*
X0081914Y0146475D01*
X0084250Y0146475D01*
X0084833Y0145891D01*
X0084833Y0144723D01*
X0084250Y0144139D01*
X0084250Y0147823D02*
X0084833Y0148406D01*
X0084833Y0149574D01*
X0084250Y0150158D01*
X0083082Y0149574D02*
X0083082Y0148406D01*
X0083666Y0147823D01*
X0084250Y0147823D01*
X0083082Y0149574D02*
X0082498Y0150158D01*
X0081914Y0150158D01*
X0081330Y0149574D01*
X0081330Y0148406D01*
X0081914Y0147823D01*
X0083082Y0151506D02*
X0083082Y0153841D01*
X0084833Y0155189D02*
X0084833Y0157524D01*
X0081330Y0157524D01*
X0081330Y0155189D01*
X0083082Y0156356D02*
X0083082Y0157524D01*
X0084833Y0158812D02*
X0084833Y0159980D01*
X0084833Y0159396D02*
X0081330Y0159396D01*
X0081330Y0159980D02*
X0081330Y0158812D01*
X0081914Y0161327D02*
X0081330Y0161911D01*
X0081330Y0163079D01*
X0081914Y0163663D01*
X0084250Y0163663D01*
X0084833Y0163079D01*
X0084833Y0161911D01*
X0084250Y0161327D01*
X0083082Y0165011D02*
X0083666Y0165594D01*
X0083666Y0167346D01*
X0084833Y0167346D02*
X0081330Y0167346D01*
X0081330Y0165594D01*
X0081914Y0165011D01*
X0083082Y0165011D01*
X0076007Y0159262D02*
X0076007Y0150207D01*
X0047660Y0150010D02*
X0047660Y0159262D01*
X0047660Y0189577D02*
X0047660Y0198042D01*
X0076007Y0198042D01*
X0076007Y0189577D01*
X0076007Y0212117D02*
X0047660Y0212117D01*
X0047660Y0224322D01*
X0076007Y0224518D02*
X0076007Y0212117D01*
X0107140Y0215137D02*
X0107140Y0218057D01*
X0107724Y0218640D01*
X0108892Y0218640D01*
X0109476Y0218057D01*
X0109476Y0215137D01*
X0110823Y0215721D02*
X0111407Y0215137D01*
X0112575Y0215137D01*
X0113159Y0215721D01*
X0113159Y0216305D01*
X0110823Y0218640D01*
X0113159Y0218640D01*
X0084833Y0245590D02*
X0081330Y0245590D01*
X0083082Y0245590D02*
X0083082Y0247925D01*
X0084833Y0247925D02*
X0081330Y0247925D01*
X0081330Y0249273D02*
X0081330Y0251608D01*
X0081330Y0250441D02*
X0084833Y0250441D01*
X0084833Y0252956D02*
X0083666Y0254124D01*
X0083666Y0253540D02*
X0083666Y0255292D01*
X0084833Y0255292D02*
X0081330Y0255292D01*
X0081330Y0253540D01*
X0081914Y0252956D01*
X0083082Y0252956D01*
X0083666Y0253540D01*
X0084250Y0256639D02*
X0081914Y0256639D01*
X0081330Y0257223D01*
X0081330Y0258391D01*
X0081914Y0258975D01*
X0084250Y0258975D01*
X0084833Y0258391D01*
X0084833Y0257223D01*
X0084250Y0256639D01*
X0084833Y0260323D02*
X0081330Y0260323D01*
X0081330Y0262658D02*
X0084833Y0260323D01*
X0084833Y0262658D02*
X0081330Y0262658D01*
X0083082Y0264006D02*
X0083082Y0266341D01*
X0084833Y0267689D02*
X0084833Y0270024D01*
X0081330Y0270024D01*
X0081330Y0267689D01*
X0083082Y0268856D02*
X0083082Y0270024D01*
X0084833Y0271312D02*
X0084833Y0272480D01*
X0084833Y0271896D02*
X0081330Y0271896D01*
X0081330Y0272480D02*
X0081330Y0271312D01*
X0081914Y0273827D02*
X0081330Y0274411D01*
X0081330Y0275579D01*
X0081914Y0276163D01*
X0084250Y0276163D01*
X0084833Y0275579D01*
X0084833Y0274411D01*
X0084250Y0273827D01*
X0083082Y0277511D02*
X0083666Y0278094D01*
X0083666Y0279846D01*
X0084833Y0279846D02*
X0081330Y0279846D01*
X0081330Y0278094D01*
X0081914Y0277511D01*
X0083082Y0277511D01*
X0076007Y0271762D02*
X0076007Y0262707D01*
X0047660Y0262510D02*
X0047660Y0271762D01*
X0047660Y0302077D02*
X0047660Y0310542D01*
X0076007Y0310542D01*
X0076007Y0302077D01*
X0169609Y0271103D02*
X0169609Y0249056D01*
X0179058Y0249056D01*
X0179058Y0271103D01*
X0169609Y0271103D01*
X0191676Y0280772D02*
X0191676Y0304394D01*
X0202699Y0304394D01*
X0202699Y0302425D01*
X0202699Y0302422D02*
X0203290Y0302422D01*
X0203290Y0300453D02*
X0193644Y0300453D01*
X0193644Y0300450D02*
X0193644Y0290608D01*
X0196007Y0290608D01*
X0196007Y0284705D01*
X0203290Y0284705D01*
X0203290Y0282737D02*
X0202699Y0282737D01*
X0202699Y0280772D01*
X0191676Y0280772D01*
X0193644Y0282442D02*
X0195219Y0282442D01*
X0194432Y0284016D01*
X0193644Y0282442D01*
X0202699Y0290608D02*
X0360967Y0290608D01*
X0360967Y0294545D01*
X0202699Y0294545D01*
X0202699Y0290608D01*
X0249333Y0206329D02*
X0251833Y0203829D01*
X0202699Y0129387D02*
X0191676Y0129387D01*
X0191676Y0105765D01*
X0202699Y0105765D01*
X0202699Y0107734D01*
X0202699Y0107737D02*
X0203290Y0107737D01*
X0203290Y0109705D02*
X0196007Y0109705D01*
X0196007Y0115614D01*
X0193644Y0115614D01*
X0193644Y0125453D01*
X0203290Y0125453D01*
X0203290Y0127422D02*
X0202699Y0127419D01*
X0202699Y0129387D01*
X0202699Y0119551D02*
X0202699Y0115614D01*
X0360967Y0115614D01*
X0360967Y0119551D01*
X0202699Y0119551D01*
X0193644Y0125453D02*
X0193644Y0125457D01*
X0194432Y0108820D02*
X0193644Y0107245D01*
X0195219Y0107245D01*
X0194432Y0108820D01*
X0360377Y0109705D02*
X0367660Y0109705D01*
X0367660Y0115614D01*
X0370022Y0115614D01*
X0370022Y0125453D01*
X0360377Y0125453D01*
X0360377Y0127422D02*
X0360967Y0127419D01*
X0360967Y0129387D01*
X0371991Y0129387D01*
X0371991Y0105765D01*
X0360967Y0105765D01*
X0360967Y0107734D01*
X0360967Y0107737D02*
X0360377Y0107737D01*
X0370022Y0125453D02*
X0370022Y0125457D01*
X0384609Y0139056D02*
X0384609Y0161103D01*
X0394058Y0161103D01*
X0394058Y0139056D01*
X0384609Y0139056D01*
X0449660Y0191515D02*
X0449660Y0194435D01*
X0450244Y0195018D01*
X0451412Y0195018D01*
X0451995Y0194435D01*
X0451995Y0191515D01*
X0453343Y0192099D02*
X0453927Y0191515D01*
X0455095Y0191515D01*
X0455678Y0192099D01*
X0455678Y0192683D01*
X0455095Y0193267D01*
X0455678Y0193851D01*
X0455678Y0194435D01*
X0455095Y0195018D01*
X0453927Y0195018D01*
X0453343Y0194435D01*
X0454511Y0193267D02*
X0455095Y0193267D01*
X0464009Y0126979D02*
X0466174Y0126979D01*
X0464009Y0126979D02*
X0464009Y0125601D01*
X0467158Y0124144D02*
X0467158Y0123514D01*
X0466174Y0120680D02*
X0464009Y0120680D01*
X0464009Y0122058D01*
X0462424Y0283180D02*
X0460259Y0283180D01*
X0460259Y0284558D01*
X0463408Y0286014D02*
X0463408Y0286644D01*
X0462424Y0289479D02*
X0460259Y0289479D01*
X0460259Y0288101D01*
X0371991Y0280772D02*
X0371991Y0304394D01*
X0360967Y0304394D01*
X0360967Y0302425D01*
X0360967Y0302422D02*
X0360377Y0302422D01*
X0360377Y0300453D02*
X0370022Y0300453D01*
X0370022Y0300450D02*
X0370022Y0290608D01*
X0367660Y0290608D01*
X0367660Y0284705D01*
X0360377Y0284705D01*
X0360377Y0282737D02*
X0360967Y0282737D01*
X0360967Y0280772D01*
X0371991Y0280772D01*
D18*
X0249333Y0203829D02*
X0246833Y0206329D01*
X0189483Y0253591D02*
X0186681Y0253591D01*
X0186681Y0255460D02*
X0189483Y0255460D01*
X0188549Y0254525D01*
X0189483Y0253591D01*
X0189483Y0256538D02*
X0186681Y0256538D01*
X0186681Y0258406D02*
X0189483Y0256538D01*
X0189483Y0258406D02*
X0186681Y0258406D01*
X0188082Y0259484D02*
X0188082Y0261353D01*
X0187615Y0262431D02*
X0188082Y0262898D01*
X0188082Y0264299D01*
X0188082Y0265377D02*
X0188549Y0265844D01*
X0188549Y0267246D01*
X0189483Y0267246D02*
X0186681Y0267246D01*
X0186681Y0265844D01*
X0187148Y0265377D01*
X0188082Y0265377D01*
X0186681Y0264299D02*
X0186681Y0262898D01*
X0187148Y0262431D01*
X0187615Y0262431D01*
X0188082Y0262898D02*
X0188549Y0262431D01*
X0189016Y0262431D01*
X0189483Y0262898D01*
X0189483Y0264299D01*
X0186681Y0264299D01*
X0374181Y0157246D02*
X0374181Y0155844D01*
X0374648Y0155377D01*
X0375582Y0155377D01*
X0376049Y0155844D01*
X0376049Y0157246D01*
X0376983Y0157246D02*
X0374181Y0157246D01*
X0374181Y0154299D02*
X0374181Y0152898D01*
X0374648Y0152431D01*
X0375115Y0152431D01*
X0375582Y0152898D01*
X0375582Y0154299D01*
X0375582Y0152898D02*
X0376049Y0152431D01*
X0376516Y0152431D01*
X0376983Y0152898D01*
X0376983Y0154299D01*
X0374181Y0154299D01*
X0375582Y0151353D02*
X0375582Y0149484D01*
X0375115Y0148406D02*
X0375582Y0147939D01*
X0375582Y0147005D01*
X0376049Y0146538D01*
X0376516Y0146538D01*
X0376983Y0147005D01*
X0376983Y0147939D01*
X0376516Y0148406D01*
X0375115Y0148406D02*
X0374648Y0148406D01*
X0374181Y0147939D01*
X0374181Y0147005D01*
X0374648Y0146538D01*
X0374181Y0145460D02*
X0376983Y0145460D01*
X0376983Y0143591D01*
X0375582Y0144525D02*
X0375582Y0145460D01*
X0374181Y0145460D02*
X0374181Y0143591D01*
D19*
X0421726Y0172671D02*
X0422077Y0172321D01*
X0422427Y0172321D01*
X0422777Y0172671D01*
X0423128Y0172321D01*
X0423478Y0172321D01*
X0423828Y0172671D01*
X0423828Y0173372D01*
X0423478Y0173722D01*
X0423478Y0174531D02*
X0423828Y0174881D01*
X0423828Y0175582D01*
X0423478Y0175932D01*
X0423478Y0176741D02*
X0423828Y0177091D01*
X0423828Y0177792D01*
X0423478Y0178142D01*
X0422077Y0178142D01*
X0421726Y0177792D01*
X0421726Y0177091D01*
X0422077Y0176741D01*
X0422077Y0175932D02*
X0421726Y0175582D01*
X0421726Y0174881D01*
X0422077Y0174531D01*
X0422427Y0174531D01*
X0422777Y0174881D01*
X0423128Y0174531D01*
X0423478Y0174531D01*
X0422777Y0174881D02*
X0422777Y0175231D01*
X0422077Y0173722D02*
X0421726Y0173372D01*
X0421726Y0172671D01*
X0422777Y0172671D02*
X0422777Y0173022D01*
X0413907Y0177256D02*
X0413907Y0179358D01*
X0413206Y0179358D02*
X0414608Y0179358D01*
X0413206Y0177957D02*
X0413907Y0177256D01*
X0412398Y0177606D02*
X0412398Y0177957D01*
X0412047Y0178307D01*
X0412398Y0178657D01*
X0412398Y0179007D01*
X0412047Y0179358D01*
X0411347Y0179358D01*
X0410996Y0179007D01*
X0410188Y0179007D02*
X0409838Y0179358D01*
X0409137Y0179358D01*
X0408787Y0179007D01*
X0408787Y0177606D01*
X0409137Y0177256D01*
X0409838Y0177256D01*
X0410188Y0177606D01*
X0410996Y0177606D02*
X0411347Y0177256D01*
X0412047Y0177256D01*
X0412398Y0177606D01*
X0412047Y0178307D02*
X0411697Y0178307D01*
X0416287Y0185480D02*
X0417338Y0185480D01*
X0417688Y0185831D01*
X0417688Y0186531D01*
X0417338Y0186882D01*
X0416287Y0186882D01*
X0416287Y0187582D02*
X0416287Y0185480D01*
X0416987Y0186882D02*
X0417688Y0187582D01*
X0418496Y0187582D02*
X0419898Y0187582D01*
X0419197Y0187582D02*
X0419197Y0185480D01*
X0418496Y0186181D01*
X0420706Y0186181D02*
X0421057Y0186531D01*
X0422108Y0186531D01*
X0422108Y0185831D02*
X0421757Y0185480D01*
X0421057Y0185480D01*
X0420706Y0185831D01*
X0420706Y0186181D01*
X0420706Y0187232D02*
X0421057Y0187582D01*
X0421757Y0187582D01*
X0422108Y0187232D01*
X0422108Y0185831D01*
X0425663Y0185464D02*
X0426714Y0185464D01*
X0426364Y0184764D01*
X0426364Y0184413D01*
X0426714Y0184063D01*
X0427415Y0184063D01*
X0427765Y0184413D01*
X0427765Y0185114D01*
X0427415Y0185464D01*
X0427765Y0186273D02*
X0427765Y0187674D01*
X0427765Y0186974D02*
X0425663Y0186974D01*
X0426364Y0187674D01*
X0426014Y0188483D02*
X0425663Y0188833D01*
X0425663Y0189534D01*
X0426014Y0189884D01*
X0427415Y0189884D01*
X0427765Y0189534D01*
X0427765Y0188833D01*
X0427415Y0188483D01*
X0425663Y0185464D02*
X0425663Y0184063D01*
X0434522Y0177855D02*
X0434872Y0178205D01*
X0436273Y0178205D01*
X0436623Y0177855D01*
X0436623Y0177154D01*
X0436273Y0176804D01*
X0436623Y0175995D02*
X0436623Y0174594D01*
X0436623Y0175294D02*
X0434522Y0175294D01*
X0435222Y0175995D01*
X0434872Y0176804D02*
X0434522Y0177154D01*
X0434522Y0177855D01*
X0434872Y0173785D02*
X0435222Y0173785D01*
X0435573Y0173435D01*
X0435573Y0172734D01*
X0435923Y0172384D01*
X0436273Y0172384D01*
X0436623Y0172734D01*
X0436623Y0173435D01*
X0436273Y0173785D01*
X0435923Y0173785D01*
X0435573Y0173435D01*
X0435573Y0172734D02*
X0435222Y0172384D01*
X0434872Y0172384D01*
X0434522Y0172734D01*
X0434522Y0173435D01*
X0434872Y0173785D01*
X0445348Y0184433D02*
X0445348Y0185134D01*
X0445699Y0185484D01*
X0446399Y0186293D02*
X0446399Y0187694D01*
X0445348Y0186643D01*
X0447450Y0186643D01*
X0447450Y0185484D02*
X0446049Y0184083D01*
X0445699Y0184083D01*
X0445348Y0184433D01*
X0447450Y0184083D02*
X0447450Y0185484D01*
X0447100Y0188502D02*
X0447450Y0188853D01*
X0447450Y0189553D01*
X0447100Y0189904D01*
X0445699Y0189904D01*
X0445348Y0189553D01*
X0445348Y0188853D01*
X0445699Y0188502D01*
X0457159Y0177855D02*
X0457510Y0178205D01*
X0458911Y0178205D01*
X0459261Y0177855D01*
X0459261Y0177154D01*
X0458911Y0176804D01*
X0458911Y0175995D02*
X0459261Y0175645D01*
X0459261Y0174944D01*
X0458911Y0174594D01*
X0458561Y0174594D01*
X0458210Y0174944D01*
X0458210Y0175294D01*
X0458210Y0174944D02*
X0457860Y0174594D01*
X0457510Y0174594D01*
X0457159Y0174944D01*
X0457159Y0175645D01*
X0457510Y0175995D01*
X0457510Y0176804D02*
X0457159Y0177154D01*
X0457159Y0177855D01*
X0457510Y0173785D02*
X0457860Y0173785D01*
X0458210Y0173435D01*
X0458210Y0172734D01*
X0458561Y0172384D01*
X0458911Y0172384D01*
X0459261Y0172734D01*
X0459261Y0173435D01*
X0458911Y0173785D01*
X0458561Y0173785D01*
X0458210Y0173435D01*
X0458210Y0172734D02*
X0457860Y0172384D01*
X0457510Y0172384D01*
X0457159Y0172734D01*
X0457159Y0173435D01*
X0457510Y0173785D01*
X0468979Y0185130D02*
X0468629Y0185480D01*
X0468629Y0186881D01*
X0468979Y0187232D01*
X0469680Y0187232D01*
X0470030Y0186881D01*
X0470839Y0186881D02*
X0471189Y0187232D01*
X0471890Y0187232D01*
X0472240Y0186881D01*
X0472240Y0186531D01*
X0471890Y0186181D01*
X0471540Y0186181D01*
X0471890Y0186181D02*
X0472240Y0185831D01*
X0472240Y0185480D01*
X0471890Y0185130D01*
X0471189Y0185130D01*
X0470839Y0185480D01*
X0470030Y0185480D02*
X0469680Y0185130D01*
X0468979Y0185130D01*
X0473049Y0186181D02*
X0474450Y0186181D01*
X0474100Y0187232D02*
X0474100Y0185130D01*
X0473049Y0186181D01*
X0474450Y0198909D02*
X0473749Y0199260D01*
X0473049Y0199960D01*
X0474100Y0199960D01*
X0474450Y0200311D01*
X0474450Y0200661D01*
X0474100Y0201011D01*
X0473399Y0201011D01*
X0473049Y0200661D01*
X0473049Y0199960D01*
X0472240Y0201011D02*
X0470839Y0201011D01*
X0471540Y0201011D02*
X0471540Y0198909D01*
X0470839Y0199610D01*
X0470030Y0199260D02*
X0469680Y0198909D01*
X0468979Y0198909D01*
X0468629Y0199260D01*
X0468629Y0200661D01*
X0468979Y0201011D01*
X0469680Y0201011D01*
X0470030Y0200661D01*
X0469680Y0210721D02*
X0468979Y0210721D01*
X0468629Y0211071D01*
X0468629Y0212472D01*
X0468979Y0212822D01*
X0469680Y0212822D01*
X0470030Y0212472D01*
X0470839Y0212472D02*
X0471189Y0212822D01*
X0471890Y0212822D01*
X0472240Y0212472D01*
X0472240Y0212122D01*
X0471890Y0211771D01*
X0471540Y0211771D01*
X0471890Y0211771D02*
X0472240Y0211421D01*
X0472240Y0211071D01*
X0471890Y0210721D01*
X0471189Y0210721D01*
X0470839Y0211071D01*
X0470030Y0211071D02*
X0469680Y0210721D01*
X0473049Y0210721D02*
X0473049Y0211771D01*
X0473749Y0211421D01*
X0474100Y0211421D01*
X0474450Y0211771D01*
X0474450Y0212472D01*
X0474100Y0212822D01*
X0473399Y0212822D01*
X0473049Y0212472D01*
X0473049Y0210721D02*
X0474450Y0210721D01*
X0463592Y0220240D02*
X0461490Y0220240D01*
X0462541Y0221291D01*
X0462541Y0219890D01*
X0463592Y0222100D02*
X0463592Y0223501D01*
X0463592Y0222800D02*
X0461490Y0222800D01*
X0462191Y0223501D01*
X0461841Y0224310D02*
X0461490Y0224660D01*
X0461490Y0225360D01*
X0461841Y0225711D01*
X0463242Y0225711D01*
X0463592Y0225360D01*
X0463592Y0224660D01*
X0463242Y0224310D01*
X0468629Y0224850D02*
X0468629Y0226252D01*
X0468979Y0226602D01*
X0469680Y0226602D01*
X0470030Y0226252D01*
X0470839Y0226252D02*
X0471189Y0226602D01*
X0471890Y0226602D01*
X0472240Y0226252D01*
X0472240Y0225901D01*
X0471890Y0225551D01*
X0471540Y0225551D01*
X0471890Y0225551D02*
X0472240Y0225201D01*
X0472240Y0224850D01*
X0471890Y0224500D01*
X0471189Y0224500D01*
X0470839Y0224850D01*
X0470030Y0224850D02*
X0469680Y0224500D01*
X0468979Y0224500D01*
X0468629Y0224850D01*
X0473049Y0224850D02*
X0473049Y0226252D01*
X0474450Y0224850D01*
X0474450Y0226252D01*
X0474100Y0226602D01*
X0473399Y0226602D01*
X0473049Y0226252D01*
X0473049Y0224850D02*
X0473399Y0224500D01*
X0474100Y0224500D01*
X0474450Y0224850D01*
X0455324Y0232498D02*
X0454974Y0232148D01*
X0454624Y0232148D01*
X0454273Y0232498D01*
X0454273Y0233549D01*
X0454974Y0233549D01*
X0455324Y0233199D01*
X0455324Y0232498D01*
X0454273Y0233549D02*
X0453573Y0232848D01*
X0453222Y0232148D01*
X0453573Y0234358D02*
X0453923Y0234358D01*
X0454273Y0234708D01*
X0454624Y0234358D01*
X0454974Y0234358D01*
X0455324Y0234708D01*
X0455324Y0235408D01*
X0454974Y0235759D01*
X0454974Y0236567D02*
X0455324Y0236918D01*
X0455324Y0237618D01*
X0454974Y0237969D01*
X0453573Y0237969D01*
X0453222Y0237618D01*
X0453222Y0236918D01*
X0453573Y0236567D01*
X0453573Y0235759D02*
X0453222Y0235408D01*
X0453222Y0234708D01*
X0453573Y0234358D01*
X0454273Y0234708D02*
X0454273Y0235058D01*
X0443513Y0234708D02*
X0443513Y0235408D01*
X0443163Y0235759D01*
X0443163Y0236567D02*
X0443513Y0236918D01*
X0443513Y0237618D01*
X0443163Y0237969D01*
X0441762Y0237969D01*
X0441411Y0237618D01*
X0441411Y0236918D01*
X0441762Y0236567D01*
X0441762Y0235759D02*
X0441411Y0235408D01*
X0441411Y0234708D01*
X0441762Y0234358D01*
X0442112Y0234358D01*
X0442462Y0234708D01*
X0442813Y0234358D01*
X0443163Y0234358D01*
X0443513Y0234708D01*
X0442462Y0234708D02*
X0442462Y0235058D01*
X0441762Y0233549D02*
X0441411Y0233199D01*
X0441411Y0232498D01*
X0441762Y0232148D01*
X0442112Y0232148D01*
X0443513Y0233549D01*
X0443513Y0232148D01*
X0451254Y0225360D02*
X0451604Y0225711D01*
X0453005Y0225711D01*
X0453356Y0225360D01*
X0453356Y0224660D01*
X0453005Y0224310D01*
X0453356Y0223501D02*
X0453356Y0222100D01*
X0453356Y0222800D02*
X0451254Y0222800D01*
X0451955Y0223501D01*
X0451604Y0224310D02*
X0451254Y0224660D01*
X0451254Y0225360D01*
X0451254Y0221291D02*
X0451254Y0219890D01*
X0451604Y0219890D01*
X0453005Y0221291D01*
X0453356Y0221291D01*
X0419891Y0233549D02*
X0419541Y0233549D01*
X0418140Y0232148D01*
X0417789Y0232148D01*
X0417789Y0233549D01*
X0418140Y0234358D02*
X0418490Y0234358D01*
X0418840Y0234708D01*
X0419191Y0234358D01*
X0419541Y0234358D01*
X0419891Y0234708D01*
X0419891Y0235408D01*
X0419541Y0235759D01*
X0419541Y0236567D02*
X0419891Y0236918D01*
X0419891Y0237618D01*
X0419541Y0237969D01*
X0418140Y0237969D01*
X0417789Y0237618D01*
X0417789Y0236918D01*
X0418140Y0236567D01*
X0418140Y0235759D02*
X0417789Y0235408D01*
X0417789Y0234708D01*
X0418140Y0234358D01*
X0418840Y0234708D02*
X0418840Y0235058D01*
X0414257Y0226602D02*
X0414608Y0226252D01*
X0414608Y0224850D01*
X0414257Y0224500D01*
X0413557Y0224500D01*
X0413206Y0224850D01*
X0413206Y0225201D01*
X0413557Y0225551D01*
X0414608Y0225551D01*
X0414257Y0226602D02*
X0413557Y0226602D01*
X0413206Y0226252D01*
X0412398Y0226252D02*
X0412047Y0226602D01*
X0411347Y0226602D01*
X0410996Y0226252D01*
X0410188Y0226252D02*
X0409838Y0226602D01*
X0409137Y0226602D01*
X0408787Y0226252D01*
X0408787Y0224850D01*
X0409137Y0224500D01*
X0409838Y0224500D01*
X0410188Y0224850D01*
X0410996Y0224850D02*
X0411347Y0224500D01*
X0412047Y0224500D01*
X0412398Y0224850D01*
X0412398Y0225201D01*
X0412047Y0225551D01*
X0412398Y0225901D01*
X0412398Y0226252D01*
X0412047Y0225551D02*
X0411697Y0225551D01*
X0412047Y0195700D02*
X0412047Y0193598D01*
X0410996Y0194649D01*
X0412398Y0194649D01*
X0413206Y0193949D02*
X0413557Y0193598D01*
X0414257Y0193598D01*
X0414608Y0193949D01*
X0413206Y0195350D01*
X0413557Y0195700D01*
X0414257Y0195700D01*
X0414608Y0195350D01*
X0414608Y0193949D01*
X0413206Y0193949D02*
X0413206Y0195350D01*
X0410188Y0195350D02*
X0409838Y0195700D01*
X0409137Y0195700D01*
X0408787Y0195350D01*
X0408787Y0193949D01*
X0409137Y0193598D01*
X0409838Y0193598D01*
X0410188Y0193949D01*
X0449282Y0134244D02*
X0449282Y0133193D01*
X0449632Y0132843D01*
X0450332Y0132843D01*
X0450683Y0133193D01*
X0450683Y0134244D01*
X0451383Y0134244D02*
X0449282Y0134244D01*
X0450683Y0133544D02*
X0451383Y0132843D01*
X0451383Y0132034D02*
X0451383Y0130633D01*
X0451383Y0131334D02*
X0449282Y0131334D01*
X0449982Y0132034D01*
X0449632Y0129824D02*
X0449282Y0129474D01*
X0449282Y0128774D01*
X0449632Y0128423D01*
X0449982Y0128423D01*
X0451383Y0129824D01*
X0451383Y0128423D01*
X0459283Y0126135D02*
X0461385Y0126135D01*
X0460334Y0125084D01*
X0460334Y0126486D01*
X0460334Y0124276D02*
X0460334Y0122874D01*
X0461385Y0123925D01*
X0459283Y0123925D01*
X0459634Y0122066D02*
X0459283Y0121715D01*
X0459283Y0121015D01*
X0459634Y0120665D01*
X0461035Y0120665D01*
X0461385Y0121015D01*
X0461385Y0121715D01*
X0461035Y0122066D01*
X0456385Y0117885D02*
X0456035Y0118236D01*
X0455685Y0118236D01*
X0455334Y0117885D01*
X0454984Y0118236D01*
X0454634Y0118236D01*
X0454283Y0117885D01*
X0454283Y0117185D01*
X0454634Y0116834D01*
X0454283Y0116026D02*
X0454283Y0114624D01*
X0454283Y0115325D02*
X0456385Y0115325D01*
X0455685Y0114624D01*
X0456035Y0113816D02*
X0455334Y0113816D01*
X0454984Y0113465D01*
X0454984Y0112415D01*
X0454984Y0113115D02*
X0454283Y0113816D01*
X0454283Y0112415D02*
X0456385Y0112415D01*
X0456385Y0113465D01*
X0456035Y0113816D01*
X0456035Y0116834D02*
X0456385Y0117185D01*
X0456385Y0117885D01*
X0455334Y0117885D02*
X0455334Y0117535D01*
X0464023Y0128528D02*
X0465425Y0128528D01*
X0464724Y0128528D02*
X0464724Y0130629D01*
X0466233Y0130629D02*
X0467635Y0129228D01*
X0467635Y0128878D01*
X0467284Y0128528D01*
X0466584Y0128528D01*
X0466233Y0128878D01*
X0466233Y0130629D02*
X0467635Y0130629D01*
X0475282Y0126744D02*
X0475282Y0125693D01*
X0475632Y0125343D01*
X0476332Y0125343D01*
X0476683Y0125693D01*
X0476683Y0126744D01*
X0477383Y0126744D02*
X0475282Y0126744D01*
X0476683Y0126044D02*
X0477383Y0125343D01*
X0477383Y0124534D02*
X0477383Y0123133D01*
X0477383Y0123834D02*
X0475282Y0123834D01*
X0475982Y0124534D01*
X0475982Y0122324D02*
X0475282Y0121624D01*
X0477383Y0121624D01*
X0477383Y0122324D02*
X0477383Y0120923D01*
X0468533Y0275923D02*
X0468883Y0276274D01*
X0468883Y0276974D01*
X0468533Y0277324D01*
X0467132Y0275923D01*
X0468533Y0275923D01*
X0467132Y0275923D02*
X0466782Y0276274D01*
X0466782Y0276974D01*
X0467132Y0277324D01*
X0468533Y0277324D01*
X0468883Y0278133D02*
X0468883Y0279534D01*
X0468883Y0278834D02*
X0466782Y0278834D01*
X0467482Y0279534D01*
X0467132Y0280343D02*
X0467832Y0280343D01*
X0468183Y0280693D01*
X0468183Y0281744D01*
X0468883Y0281744D02*
X0466782Y0281744D01*
X0466782Y0280693D01*
X0467132Y0280343D01*
X0468183Y0281044D02*
X0468883Y0280343D01*
X0463885Y0281129D02*
X0462483Y0281129D01*
X0463184Y0281129D02*
X0463184Y0279028D01*
X0462483Y0279728D01*
X0461675Y0279028D02*
X0460273Y0279028D01*
X0460974Y0279028D02*
X0460974Y0281129D01*
X0456385Y0283765D02*
X0456035Y0283415D01*
X0454634Y0283415D01*
X0454283Y0283765D01*
X0454283Y0284465D01*
X0454634Y0284816D01*
X0455334Y0285624D02*
X0455334Y0287026D01*
X0454634Y0287834D02*
X0454283Y0288185D01*
X0454283Y0288885D01*
X0454634Y0289236D01*
X0454984Y0289236D01*
X0455334Y0288885D01*
X0455334Y0288535D01*
X0455334Y0288885D02*
X0455685Y0289236D01*
X0456035Y0289236D01*
X0456385Y0288885D01*
X0456385Y0288185D01*
X0456035Y0287834D01*
X0456385Y0286675D02*
X0455334Y0285624D01*
X0456035Y0284816D02*
X0456385Y0284465D01*
X0456385Y0283765D01*
X0456385Y0286675D02*
X0454283Y0286675D01*
X0475282Y0287088D02*
X0475632Y0286738D01*
X0476332Y0286738D01*
X0476683Y0287088D01*
X0476683Y0288139D01*
X0476683Y0287439D02*
X0477383Y0286738D01*
X0477033Y0285929D02*
X0477383Y0285579D01*
X0477383Y0284878D01*
X0477033Y0284528D01*
X0475632Y0284528D01*
X0475282Y0284878D01*
X0475282Y0285579D01*
X0475632Y0285929D01*
X0475982Y0285929D01*
X0476332Y0285579D01*
X0476332Y0284528D01*
X0475282Y0287088D02*
X0475282Y0288139D01*
X0477383Y0288139D01*
X0246833Y0203829D02*
X0244333Y0206329D01*
X0154765Y0215008D02*
X0154415Y0214658D01*
X0153714Y0214658D01*
X0153364Y0215008D01*
X0153364Y0215358D01*
X0153714Y0215708D01*
X0154765Y0215708D01*
X0154765Y0215008D02*
X0154765Y0216409D01*
X0154415Y0216759D01*
X0153714Y0216759D01*
X0153364Y0216409D01*
X0152555Y0216759D02*
X0151154Y0216759D01*
X0152555Y0215358D01*
X0152555Y0215008D01*
X0152205Y0214658D01*
X0151504Y0214658D01*
X0151154Y0215008D01*
X0150345Y0215008D02*
X0149995Y0214658D01*
X0149294Y0214658D01*
X0148944Y0215008D01*
X0148944Y0216409D01*
X0149294Y0216759D01*
X0149995Y0216759D01*
X0150345Y0216409D01*
X0147328Y0222728D02*
X0147678Y0223079D01*
X0147678Y0223429D01*
X0147328Y0223779D01*
X0146628Y0223779D01*
X0146277Y0223429D01*
X0146277Y0223079D01*
X0146628Y0222728D01*
X0147328Y0222728D01*
X0147328Y0223779D02*
X0147678Y0224130D01*
X0147678Y0224480D01*
X0147328Y0224830D01*
X0146628Y0224830D01*
X0146277Y0224480D01*
X0146277Y0224130D01*
X0146628Y0223779D01*
X0145469Y0224830D02*
X0144067Y0224830D01*
X0144768Y0224830D02*
X0144768Y0222728D01*
X0144067Y0223429D01*
X0143259Y0223779D02*
X0142908Y0224130D01*
X0141857Y0224130D01*
X0141857Y0224830D02*
X0141857Y0222728D01*
X0142908Y0222728D01*
X0143259Y0223079D01*
X0143259Y0223779D01*
X0142558Y0224130D02*
X0143259Y0224830D01*
X0138001Y0225107D02*
X0137651Y0224756D01*
X0138001Y0225107D02*
X0138001Y0225807D01*
X0137651Y0226158D01*
X0136250Y0226158D01*
X0135900Y0225807D01*
X0135900Y0225107D01*
X0136250Y0224756D01*
X0136600Y0223948D02*
X0135900Y0223247D01*
X0138001Y0223247D01*
X0138001Y0222547D02*
X0138001Y0223948D01*
X0137651Y0221738D02*
X0136250Y0220337D01*
X0137651Y0220337D01*
X0138001Y0220687D01*
X0138001Y0221388D01*
X0137651Y0221738D01*
X0136250Y0221738D01*
X0135900Y0221388D01*
X0135900Y0220687D01*
X0136250Y0220337D01*
X0140187Y0232132D02*
X0139837Y0232482D01*
X0139837Y0233183D01*
X0140187Y0233533D01*
X0140187Y0234342D02*
X0139837Y0234692D01*
X0139837Y0235393D01*
X0140187Y0235743D01*
X0140187Y0236552D02*
X0139837Y0236902D01*
X0139837Y0237603D01*
X0140187Y0237953D01*
X0141588Y0237953D01*
X0141938Y0237603D01*
X0141938Y0236902D01*
X0141588Y0236552D01*
X0141938Y0235743D02*
X0140537Y0234342D01*
X0140187Y0234342D01*
X0141938Y0234342D02*
X0141938Y0235743D01*
X0141938Y0233533D02*
X0140537Y0232132D01*
X0140187Y0232132D01*
X0141938Y0232132D02*
X0141938Y0233533D01*
X0148944Y0232551D02*
X0149294Y0232901D01*
X0149995Y0232901D01*
X0150345Y0232551D01*
X0151154Y0232901D02*
X0152555Y0231500D01*
X0152555Y0231150D01*
X0152205Y0230799D01*
X0151504Y0230799D01*
X0151154Y0231150D01*
X0150345Y0231150D02*
X0149995Y0230799D01*
X0149294Y0230799D01*
X0148944Y0231150D01*
X0148944Y0232551D01*
X0151154Y0232901D02*
X0152555Y0232901D01*
X0153364Y0232551D02*
X0154765Y0231150D01*
X0154765Y0232551D01*
X0154415Y0232901D01*
X0153714Y0232901D01*
X0153364Y0232551D01*
X0153364Y0231150D01*
X0153714Y0230799D01*
X0154415Y0230799D01*
X0154765Y0231150D01*
X0129143Y0232419D02*
X0129143Y0233120D01*
X0128793Y0233470D01*
X0129143Y0234279D02*
X0129143Y0235680D01*
X0129143Y0234979D02*
X0127041Y0234979D01*
X0127742Y0235680D01*
X0127392Y0236489D02*
X0127041Y0236839D01*
X0127041Y0237540D01*
X0127392Y0237890D01*
X0128793Y0237890D01*
X0129143Y0237540D01*
X0129143Y0236839D01*
X0128793Y0236489D01*
X0127392Y0233470D02*
X0127041Y0233120D01*
X0127041Y0232419D01*
X0127392Y0232069D01*
X0127742Y0232069D01*
X0128092Y0232419D01*
X0128443Y0232069D01*
X0128793Y0232069D01*
X0129143Y0232419D01*
X0128092Y0232419D02*
X0128092Y0232770D01*
X0118316Y0225878D02*
X0118316Y0225178D01*
X0117966Y0224827D01*
X0117266Y0224019D02*
X0117266Y0222617D01*
X0116915Y0221809D02*
X0116215Y0221108D01*
X0118316Y0221108D01*
X0118316Y0220408D02*
X0118316Y0221809D01*
X0118316Y0222968D02*
X0116215Y0222968D01*
X0117266Y0224019D01*
X0116565Y0224827D02*
X0116215Y0225178D01*
X0116215Y0225878D01*
X0116565Y0226228D01*
X0117966Y0226228D01*
X0118316Y0225878D01*
X0106505Y0233470D02*
X0106155Y0233470D01*
X0104754Y0232069D01*
X0104404Y0232069D01*
X0104404Y0233470D01*
X0104754Y0234279D02*
X0104404Y0234629D01*
X0104404Y0235330D01*
X0104754Y0235680D01*
X0104754Y0236489D02*
X0104404Y0236839D01*
X0104404Y0237540D01*
X0104754Y0237890D01*
X0106155Y0237890D01*
X0106505Y0237540D01*
X0106505Y0236839D01*
X0106155Y0236489D01*
X0106505Y0235680D02*
X0105104Y0234279D01*
X0104754Y0234279D01*
X0106505Y0234279D02*
X0106505Y0235680D01*
X0094923Y0224677D02*
X0094572Y0225027D01*
X0093872Y0225027D01*
X0093521Y0224677D01*
X0092713Y0225027D02*
X0091311Y0225027D01*
X0092713Y0223626D01*
X0092713Y0223276D01*
X0092362Y0222925D01*
X0091662Y0222925D01*
X0091311Y0223276D01*
X0090503Y0223276D02*
X0090152Y0222925D01*
X0089452Y0222925D01*
X0089102Y0223276D01*
X0089102Y0224677D01*
X0089452Y0225027D01*
X0090152Y0225027D01*
X0090503Y0224677D01*
X0093521Y0223276D02*
X0093872Y0222925D01*
X0094572Y0222925D01*
X0094923Y0223276D01*
X0094923Y0223626D01*
X0094572Y0223976D01*
X0094923Y0224326D01*
X0094923Y0224677D01*
X0094572Y0223976D02*
X0094222Y0223976D01*
X0094222Y0211248D02*
X0094222Y0209146D01*
X0093521Y0209846D01*
X0093521Y0211248D02*
X0094923Y0211248D01*
X0092713Y0211248D02*
X0091311Y0211248D01*
X0092012Y0211248D02*
X0092012Y0209146D01*
X0091311Y0209846D01*
X0090503Y0209496D02*
X0090152Y0209146D01*
X0089452Y0209146D01*
X0089102Y0209496D01*
X0089102Y0210897D01*
X0089452Y0211248D01*
X0090152Y0211248D01*
X0090503Y0210897D01*
X0076081Y0211129D02*
X0074680Y0211129D01*
X0075381Y0211129D02*
X0075381Y0209028D01*
X0074680Y0209728D01*
X0073871Y0209378D02*
X0073871Y0210078D01*
X0073521Y0210429D01*
X0072470Y0210429D01*
X0072470Y0211129D02*
X0072470Y0209028D01*
X0073521Y0209028D01*
X0073871Y0209378D01*
X0073171Y0210429D02*
X0073871Y0211129D01*
X0071081Y0211129D02*
X0069680Y0211129D01*
X0071081Y0209728D01*
X0071081Y0209378D01*
X0070731Y0209028D01*
X0070030Y0209028D01*
X0069680Y0209378D01*
X0068871Y0209378D02*
X0068871Y0210078D01*
X0068521Y0210429D01*
X0067470Y0210429D01*
X0067470Y0211129D02*
X0067470Y0209028D01*
X0068521Y0209028D01*
X0068871Y0209378D01*
X0068171Y0210429D02*
X0068871Y0211129D01*
X0056081Y0210779D02*
X0056081Y0210429D01*
X0055731Y0210078D01*
X0054680Y0210078D01*
X0054680Y0210779D01*
X0055030Y0211129D01*
X0055731Y0211129D01*
X0056081Y0210779D01*
X0055381Y0209378D02*
X0054680Y0210078D01*
X0053871Y0210078D02*
X0053521Y0210429D01*
X0052470Y0210429D01*
X0052470Y0211129D02*
X0052470Y0209028D01*
X0053521Y0209028D01*
X0053871Y0209378D01*
X0053871Y0210078D01*
X0053171Y0210429D02*
X0053871Y0211129D01*
X0055381Y0209378D02*
X0056081Y0209028D01*
X0051278Y0209028D02*
X0049877Y0209028D01*
X0049877Y0210078D01*
X0050578Y0209728D01*
X0050928Y0209728D01*
X0051278Y0210078D01*
X0051278Y0210779D01*
X0050928Y0211129D01*
X0050227Y0211129D01*
X0049877Y0210779D01*
X0049068Y0211129D02*
X0048368Y0210429D01*
X0048718Y0210429D02*
X0047667Y0210429D01*
X0047667Y0211129D02*
X0047667Y0209028D01*
X0048718Y0209028D01*
X0049068Y0209378D01*
X0049068Y0210078D01*
X0048718Y0210429D01*
X0057470Y0201129D02*
X0057470Y0199028D01*
X0058521Y0199028D01*
X0058871Y0199378D01*
X0058871Y0200078D01*
X0058521Y0200429D01*
X0057470Y0200429D01*
X0058171Y0200429D02*
X0058871Y0201129D01*
X0059680Y0200078D02*
X0060731Y0199028D01*
X0060731Y0201129D01*
X0061081Y0200078D02*
X0059680Y0200078D01*
X0062470Y0200429D02*
X0063521Y0200429D01*
X0063871Y0200078D01*
X0063871Y0199378D01*
X0063521Y0199028D01*
X0062470Y0199028D01*
X0062470Y0201129D01*
X0063171Y0200429D02*
X0063871Y0201129D01*
X0064680Y0200779D02*
X0065030Y0201129D01*
X0065731Y0201129D01*
X0066081Y0200779D01*
X0066081Y0200429D01*
X0065731Y0200078D01*
X0065381Y0200078D01*
X0065731Y0200078D02*
X0066081Y0199728D01*
X0066081Y0199378D01*
X0065731Y0199028D01*
X0065030Y0199028D01*
X0064680Y0199378D01*
X0089102Y0199086D02*
X0089452Y0199436D01*
X0090152Y0199436D01*
X0090503Y0199086D01*
X0091311Y0199436D02*
X0092713Y0198035D01*
X0092713Y0197685D01*
X0092362Y0197335D01*
X0091662Y0197335D01*
X0091311Y0197685D01*
X0090503Y0197685D02*
X0090152Y0197335D01*
X0089452Y0197335D01*
X0089102Y0197685D01*
X0089102Y0199086D01*
X0091311Y0199436D02*
X0092713Y0199436D01*
X0093521Y0198386D02*
X0094923Y0198386D01*
X0094572Y0199436D02*
X0094572Y0197335D01*
X0093521Y0198386D01*
X0100423Y0189173D02*
X0101824Y0189173D01*
X0102175Y0188822D01*
X0102175Y0188122D01*
X0101824Y0187772D01*
X0101824Y0186963D02*
X0102175Y0186613D01*
X0102175Y0185912D01*
X0101824Y0185562D01*
X0100423Y0185562D01*
X0100073Y0185912D01*
X0100073Y0186613D01*
X0100423Y0186963D01*
X0100773Y0186963D01*
X0101124Y0186613D01*
X0101124Y0185562D01*
X0100423Y0187772D02*
X0100073Y0188122D01*
X0100073Y0188822D01*
X0100423Y0189173D01*
X0094923Y0185307D02*
X0094923Y0183905D01*
X0094572Y0183555D01*
X0093872Y0183555D01*
X0093521Y0183905D01*
X0093521Y0184256D01*
X0093872Y0184606D01*
X0094923Y0184606D01*
X0094923Y0185307D02*
X0094572Y0185657D01*
X0093872Y0185657D01*
X0093521Y0185307D01*
X0092713Y0185657D02*
X0091311Y0185657D01*
X0092012Y0185657D02*
X0092012Y0183555D01*
X0091311Y0184256D01*
X0090503Y0183905D02*
X0090152Y0183555D01*
X0089452Y0183555D01*
X0089102Y0183905D01*
X0089102Y0185307D01*
X0089452Y0185657D01*
X0090152Y0185657D01*
X0090503Y0185307D01*
X0108341Y0177776D02*
X0108691Y0178126D01*
X0110092Y0178126D01*
X0110442Y0177776D01*
X0110442Y0177075D01*
X0110092Y0176725D01*
X0110442Y0175916D02*
X0109041Y0174515D01*
X0108691Y0174515D01*
X0108341Y0174865D01*
X0108341Y0175566D01*
X0108691Y0175916D01*
X0108691Y0176725D02*
X0108341Y0177075D01*
X0108341Y0177776D01*
X0110442Y0175916D02*
X0110442Y0174515D01*
X0110092Y0173706D02*
X0110442Y0173356D01*
X0110442Y0172655D01*
X0110092Y0172305D01*
X0109391Y0172305D01*
X0109041Y0172655D01*
X0109041Y0173006D01*
X0109391Y0173706D01*
X0108341Y0173706D01*
X0108341Y0172305D01*
X0120152Y0173006D02*
X0122253Y0173006D01*
X0122253Y0173706D02*
X0122253Y0172305D01*
X0120852Y0173706D02*
X0120152Y0173006D01*
X0120502Y0174515D02*
X0120152Y0174865D01*
X0120152Y0175566D01*
X0120502Y0175916D01*
X0120502Y0176725D02*
X0120152Y0177075D01*
X0120152Y0177776D01*
X0120502Y0178126D01*
X0121903Y0178126D01*
X0122253Y0177776D01*
X0122253Y0177075D01*
X0121903Y0176725D01*
X0122253Y0175916D02*
X0120852Y0174515D01*
X0120502Y0174515D01*
X0122253Y0174515D02*
X0122253Y0175916D01*
X0112411Y0184457D02*
X0112411Y0185858D01*
X0111010Y0184457D01*
X0110659Y0184457D01*
X0110309Y0184807D01*
X0110309Y0185508D01*
X0110659Y0185858D01*
X0110309Y0187367D02*
X0112411Y0187367D01*
X0112411Y0186667D02*
X0112411Y0188068D01*
X0112061Y0188876D02*
X0112411Y0189227D01*
X0112411Y0189927D01*
X0112061Y0190278D01*
X0110659Y0190278D01*
X0110309Y0189927D01*
X0110309Y0189227D01*
X0110659Y0188876D01*
X0111010Y0188068D02*
X0110309Y0187367D01*
X0143774Y0177776D02*
X0144124Y0178126D01*
X0145525Y0178126D01*
X0145875Y0177776D01*
X0145875Y0177075D01*
X0145525Y0176725D01*
X0145875Y0175916D02*
X0144474Y0174515D01*
X0144124Y0174515D01*
X0143774Y0174865D01*
X0143774Y0175566D01*
X0144124Y0175916D01*
X0144124Y0176725D02*
X0143774Y0177075D01*
X0143774Y0177776D01*
X0145875Y0175916D02*
X0145875Y0174515D01*
X0145525Y0173706D02*
X0145875Y0173356D01*
X0145875Y0172655D01*
X0145525Y0172305D01*
X0145175Y0172305D01*
X0144825Y0172655D01*
X0144825Y0173706D01*
X0145525Y0173706D01*
X0144825Y0173706D02*
X0144124Y0173006D01*
X0143774Y0172305D01*
X0149294Y0183555D02*
X0148944Y0183905D01*
X0148944Y0185307D01*
X0149294Y0185657D01*
X0149995Y0185657D01*
X0150345Y0185307D01*
X0151154Y0185657D02*
X0152555Y0184256D01*
X0152555Y0183905D01*
X0152205Y0183555D01*
X0151504Y0183555D01*
X0151154Y0183905D01*
X0150345Y0183905D02*
X0149995Y0183555D01*
X0149294Y0183555D01*
X0151154Y0185657D02*
X0152555Y0185657D01*
X0153364Y0185307D02*
X0153364Y0184956D01*
X0153714Y0184606D01*
X0154415Y0184606D01*
X0154765Y0184956D01*
X0154765Y0185307D01*
X0154415Y0185657D01*
X0153714Y0185657D01*
X0153364Y0185307D01*
X0153714Y0184606D02*
X0153364Y0184256D01*
X0153364Y0183905D01*
X0153714Y0183555D01*
X0154415Y0183555D01*
X0154765Y0183905D01*
X0154765Y0184256D01*
X0154415Y0184606D01*
D20*
X0241833Y0206329D02*
X0244333Y0203829D01*
D21*
X0241833Y0203829D02*
X0239333Y0206329D01*
D22*
X0181814Y0245906D02*
X0181814Y0274253D01*
X0166853Y0274253D01*
X0166853Y0245906D01*
X0181814Y0245906D01*
X0381853Y0164253D02*
X0381853Y0135906D01*
X0396814Y0135906D01*
X0396814Y0164253D01*
X0381853Y0164253D01*
D23*
X0434589Y0214922D03*
X0129077Y0195237D03*
M02*
