G75*
%MOIN*%
%OFA0B0*%
%FSLAX25Y25*%
%IPPOS*%
%LPD*%
%AMOC8*
5,1,8,0,0,1.08239X$1,22.5*
%
%ADD10C,0.01200*%
%ADD11C,0.01100*%
%ADD12C,0.01000*%
%ADD13C,0.00900*%
%ADD14C,0.00800*%
%ADD15C,0.00700*%
%ADD16C,0.00600*%
%ADD17C,0.00500*%
%ADD18C,0.00400*%
%ADD19C,0.00300*%
%ADD20C,0.00200*%
%ADD21C,0.00100*%
%ADD22C,0.01200*%
%ADD23R,0.03000X0.03000*%
D10*
X0266833Y0146750D02*
X0269333Y0144250D01*
D11*
X0266833Y0144250D02*
X0264333Y0146750D01*
D12*
X0261833Y0146750D02*
X0264333Y0144250D01*
D13*
X0261833Y0144250D02*
X0259333Y0146750D01*
D14*
X0256833Y0146750D02*
X0259333Y0144250D01*
X0267266Y0073059D02*
X0268054Y0073059D01*
X0298762Y0073059D02*
X0299550Y0073059D01*
X0330259Y0073059D02*
X0331046Y0073059D01*
X0331046Y0043138D02*
X0330259Y0043138D01*
X0299550Y0043138D02*
X0298762Y0043138D01*
X0268062Y0043138D02*
X0267274Y0043138D01*
X0236544Y0043138D02*
X0235756Y0043138D01*
X0235770Y0073059D02*
X0236558Y0073059D01*
X0100731Y0133689D02*
X0100731Y0157311D01*
X0235770Y0217941D02*
X0236558Y0217941D01*
X0267266Y0217941D02*
X0268054Y0217941D01*
X0298762Y0217941D02*
X0299550Y0217941D01*
X0330259Y0217941D02*
X0331046Y0217941D01*
X0331046Y0247862D02*
X0330259Y0247862D01*
X0299550Y0247862D02*
X0298762Y0247862D01*
X0268054Y0247862D02*
X0267266Y0247862D01*
X0236558Y0247862D02*
X0235770Y0247862D01*
X0462936Y0157311D02*
X0462936Y0133689D01*
D15*
X0372354Y0043900D02*
X0369485Y0043900D01*
X0372354Y0041031D01*
X0372354Y0040314D01*
X0371637Y0039596D01*
X0370203Y0039596D01*
X0369485Y0040314D01*
X0367750Y0039596D02*
X0364881Y0043900D01*
X0362429Y0043183D02*
X0361712Y0043900D01*
X0360995Y0043900D01*
X0360277Y0043183D01*
X0362429Y0043183D02*
X0362429Y0039596D01*
X0361712Y0039596D02*
X0363147Y0039596D01*
X0364881Y0039596D02*
X0367750Y0043900D01*
X0256833Y0144250D02*
X0254333Y0146750D01*
X0361712Y0247096D02*
X0363147Y0247096D01*
X0362429Y0247096D02*
X0362429Y0250683D01*
X0361712Y0251400D01*
X0360995Y0251400D01*
X0360277Y0250683D01*
X0364881Y0251400D02*
X0367750Y0247096D01*
X0369485Y0248531D02*
X0370920Y0247096D01*
X0370920Y0251400D01*
X0372354Y0251400D02*
X0369485Y0251400D01*
X0367750Y0251400D02*
X0364881Y0247096D01*
D16*
X0425797Y0243000D02*
X0425799Y0243119D01*
X0425805Y0243237D01*
X0425815Y0243356D01*
X0425829Y0243474D01*
X0425847Y0243591D01*
X0425869Y0243708D01*
X0425894Y0243824D01*
X0425924Y0243939D01*
X0425957Y0244053D01*
X0425995Y0244166D01*
X0426036Y0244277D01*
X0426081Y0244387D01*
X0426129Y0244496D01*
X0426181Y0244603D01*
X0426237Y0244708D01*
X0426296Y0244811D01*
X0426358Y0244912D01*
X0426424Y0245011D01*
X0426493Y0245107D01*
X0426566Y0245201D01*
X0426641Y0245293D01*
X0426720Y0245382D01*
X0426801Y0245469D01*
X0426886Y0245552D01*
X0426973Y0245633D01*
X0427063Y0245711D01*
X0427155Y0245786D01*
X0427250Y0245857D01*
X0427347Y0245926D01*
X0427446Y0245991D01*
X0427548Y0246052D01*
X0427651Y0246111D01*
X0427757Y0246165D01*
X0427864Y0246216D01*
X0427973Y0246264D01*
X0428083Y0246308D01*
X0428195Y0246348D01*
X0428308Y0246384D01*
X0428423Y0246417D01*
X0428538Y0246445D01*
X0428654Y0246470D01*
X0428771Y0246491D01*
X0428889Y0246508D01*
X0429007Y0246521D01*
X0429125Y0246530D01*
X0429244Y0246535D01*
X0429363Y0246536D01*
X0429481Y0246533D01*
X0429600Y0246526D01*
X0429718Y0246515D01*
X0429836Y0246500D01*
X0429954Y0246481D01*
X0430070Y0246458D01*
X0430186Y0246432D01*
X0430301Y0246401D01*
X0430414Y0246367D01*
X0430527Y0246328D01*
X0430638Y0246286D01*
X0430748Y0246241D01*
X0430856Y0246191D01*
X0430962Y0246138D01*
X0431067Y0246082D01*
X0431169Y0246022D01*
X0431270Y0245959D01*
X0431368Y0245892D01*
X0431464Y0245822D01*
X0431558Y0245749D01*
X0431649Y0245672D01*
X0431737Y0245593D01*
X0431823Y0245511D01*
X0431906Y0245426D01*
X0431986Y0245338D01*
X0432063Y0245248D01*
X0432137Y0245155D01*
X0432208Y0245059D01*
X0432275Y0244961D01*
X0432339Y0244861D01*
X0432400Y0244759D01*
X0432458Y0244655D01*
X0432511Y0244549D01*
X0432562Y0244442D01*
X0432608Y0244333D01*
X0432651Y0244222D01*
X0432690Y0244110D01*
X0432726Y0243996D01*
X0432757Y0243882D01*
X0432785Y0243766D01*
X0432809Y0243650D01*
X0432829Y0243533D01*
X0432845Y0243415D01*
X0432857Y0243297D01*
X0432865Y0243178D01*
X0432869Y0243059D01*
X0432869Y0242941D01*
X0432865Y0242822D01*
X0432857Y0242703D01*
X0432845Y0242585D01*
X0432829Y0242467D01*
X0432809Y0242350D01*
X0432785Y0242234D01*
X0432757Y0242118D01*
X0432726Y0242004D01*
X0432690Y0241890D01*
X0432651Y0241778D01*
X0432608Y0241667D01*
X0432562Y0241558D01*
X0432511Y0241451D01*
X0432458Y0241345D01*
X0432400Y0241241D01*
X0432339Y0241139D01*
X0432275Y0241039D01*
X0432208Y0240941D01*
X0432137Y0240845D01*
X0432063Y0240752D01*
X0431986Y0240662D01*
X0431906Y0240574D01*
X0431823Y0240489D01*
X0431737Y0240407D01*
X0431649Y0240328D01*
X0431558Y0240251D01*
X0431464Y0240178D01*
X0431368Y0240108D01*
X0431270Y0240041D01*
X0431169Y0239978D01*
X0431067Y0239918D01*
X0430962Y0239862D01*
X0430856Y0239809D01*
X0430748Y0239759D01*
X0430638Y0239714D01*
X0430527Y0239672D01*
X0430414Y0239633D01*
X0430301Y0239599D01*
X0430186Y0239568D01*
X0430070Y0239542D01*
X0429954Y0239519D01*
X0429836Y0239500D01*
X0429718Y0239485D01*
X0429600Y0239474D01*
X0429481Y0239467D01*
X0429363Y0239464D01*
X0429244Y0239465D01*
X0429125Y0239470D01*
X0429007Y0239479D01*
X0428889Y0239492D01*
X0428771Y0239509D01*
X0428654Y0239530D01*
X0428538Y0239555D01*
X0428423Y0239583D01*
X0428308Y0239616D01*
X0428195Y0239652D01*
X0428083Y0239692D01*
X0427973Y0239736D01*
X0427864Y0239784D01*
X0427757Y0239835D01*
X0427651Y0239889D01*
X0427548Y0239948D01*
X0427446Y0240009D01*
X0427347Y0240074D01*
X0427250Y0240143D01*
X0427155Y0240214D01*
X0427063Y0240289D01*
X0426973Y0240367D01*
X0426886Y0240448D01*
X0426801Y0240531D01*
X0426720Y0240618D01*
X0426641Y0240707D01*
X0426566Y0240799D01*
X0426493Y0240893D01*
X0426424Y0240989D01*
X0426358Y0241088D01*
X0426296Y0241189D01*
X0426237Y0241292D01*
X0426181Y0241397D01*
X0426129Y0241504D01*
X0426081Y0241613D01*
X0426036Y0241723D01*
X0425995Y0241834D01*
X0425957Y0241947D01*
X0425924Y0242061D01*
X0425894Y0242176D01*
X0425869Y0242292D01*
X0425847Y0242409D01*
X0425829Y0242526D01*
X0425815Y0242644D01*
X0425805Y0242763D01*
X0425799Y0242881D01*
X0425797Y0243000D01*
X0435797Y0243000D02*
X0435799Y0243119D01*
X0435805Y0243237D01*
X0435815Y0243356D01*
X0435829Y0243474D01*
X0435847Y0243591D01*
X0435869Y0243708D01*
X0435894Y0243824D01*
X0435924Y0243939D01*
X0435957Y0244053D01*
X0435995Y0244166D01*
X0436036Y0244277D01*
X0436081Y0244387D01*
X0436129Y0244496D01*
X0436181Y0244603D01*
X0436237Y0244708D01*
X0436296Y0244811D01*
X0436358Y0244912D01*
X0436424Y0245011D01*
X0436493Y0245107D01*
X0436566Y0245201D01*
X0436641Y0245293D01*
X0436720Y0245382D01*
X0436801Y0245469D01*
X0436886Y0245552D01*
X0436973Y0245633D01*
X0437063Y0245711D01*
X0437155Y0245786D01*
X0437250Y0245857D01*
X0437347Y0245926D01*
X0437446Y0245991D01*
X0437548Y0246052D01*
X0437651Y0246111D01*
X0437757Y0246165D01*
X0437864Y0246216D01*
X0437973Y0246264D01*
X0438083Y0246308D01*
X0438195Y0246348D01*
X0438308Y0246384D01*
X0438423Y0246417D01*
X0438538Y0246445D01*
X0438654Y0246470D01*
X0438771Y0246491D01*
X0438889Y0246508D01*
X0439007Y0246521D01*
X0439125Y0246530D01*
X0439244Y0246535D01*
X0439363Y0246536D01*
X0439481Y0246533D01*
X0439600Y0246526D01*
X0439718Y0246515D01*
X0439836Y0246500D01*
X0439954Y0246481D01*
X0440070Y0246458D01*
X0440186Y0246432D01*
X0440301Y0246401D01*
X0440414Y0246367D01*
X0440527Y0246328D01*
X0440638Y0246286D01*
X0440748Y0246241D01*
X0440856Y0246191D01*
X0440962Y0246138D01*
X0441067Y0246082D01*
X0441169Y0246022D01*
X0441270Y0245959D01*
X0441368Y0245892D01*
X0441464Y0245822D01*
X0441558Y0245749D01*
X0441649Y0245672D01*
X0441737Y0245593D01*
X0441823Y0245511D01*
X0441906Y0245426D01*
X0441986Y0245338D01*
X0442063Y0245248D01*
X0442137Y0245155D01*
X0442208Y0245059D01*
X0442275Y0244961D01*
X0442339Y0244861D01*
X0442400Y0244759D01*
X0442458Y0244655D01*
X0442511Y0244549D01*
X0442562Y0244442D01*
X0442608Y0244333D01*
X0442651Y0244222D01*
X0442690Y0244110D01*
X0442726Y0243996D01*
X0442757Y0243882D01*
X0442785Y0243766D01*
X0442809Y0243650D01*
X0442829Y0243533D01*
X0442845Y0243415D01*
X0442857Y0243297D01*
X0442865Y0243178D01*
X0442869Y0243059D01*
X0442869Y0242941D01*
X0442865Y0242822D01*
X0442857Y0242703D01*
X0442845Y0242585D01*
X0442829Y0242467D01*
X0442809Y0242350D01*
X0442785Y0242234D01*
X0442757Y0242118D01*
X0442726Y0242004D01*
X0442690Y0241890D01*
X0442651Y0241778D01*
X0442608Y0241667D01*
X0442562Y0241558D01*
X0442511Y0241451D01*
X0442458Y0241345D01*
X0442400Y0241241D01*
X0442339Y0241139D01*
X0442275Y0241039D01*
X0442208Y0240941D01*
X0442137Y0240845D01*
X0442063Y0240752D01*
X0441986Y0240662D01*
X0441906Y0240574D01*
X0441823Y0240489D01*
X0441737Y0240407D01*
X0441649Y0240328D01*
X0441558Y0240251D01*
X0441464Y0240178D01*
X0441368Y0240108D01*
X0441270Y0240041D01*
X0441169Y0239978D01*
X0441067Y0239918D01*
X0440962Y0239862D01*
X0440856Y0239809D01*
X0440748Y0239759D01*
X0440638Y0239714D01*
X0440527Y0239672D01*
X0440414Y0239633D01*
X0440301Y0239599D01*
X0440186Y0239568D01*
X0440070Y0239542D01*
X0439954Y0239519D01*
X0439836Y0239500D01*
X0439718Y0239485D01*
X0439600Y0239474D01*
X0439481Y0239467D01*
X0439363Y0239464D01*
X0439244Y0239465D01*
X0439125Y0239470D01*
X0439007Y0239479D01*
X0438889Y0239492D01*
X0438771Y0239509D01*
X0438654Y0239530D01*
X0438538Y0239555D01*
X0438423Y0239583D01*
X0438308Y0239616D01*
X0438195Y0239652D01*
X0438083Y0239692D01*
X0437973Y0239736D01*
X0437864Y0239784D01*
X0437757Y0239835D01*
X0437651Y0239889D01*
X0437548Y0239948D01*
X0437446Y0240009D01*
X0437347Y0240074D01*
X0437250Y0240143D01*
X0437155Y0240214D01*
X0437063Y0240289D01*
X0436973Y0240367D01*
X0436886Y0240448D01*
X0436801Y0240531D01*
X0436720Y0240618D01*
X0436641Y0240707D01*
X0436566Y0240799D01*
X0436493Y0240893D01*
X0436424Y0240989D01*
X0436358Y0241088D01*
X0436296Y0241189D01*
X0436237Y0241292D01*
X0436181Y0241397D01*
X0436129Y0241504D01*
X0436081Y0241613D01*
X0436036Y0241723D01*
X0435995Y0241834D01*
X0435957Y0241947D01*
X0435924Y0242061D01*
X0435894Y0242176D01*
X0435869Y0242292D01*
X0435847Y0242409D01*
X0435829Y0242526D01*
X0435815Y0242644D01*
X0435805Y0242763D01*
X0435799Y0242881D01*
X0435797Y0243000D01*
X0445797Y0243000D02*
X0445799Y0243119D01*
X0445805Y0243237D01*
X0445815Y0243356D01*
X0445829Y0243474D01*
X0445847Y0243591D01*
X0445869Y0243708D01*
X0445894Y0243824D01*
X0445924Y0243939D01*
X0445957Y0244053D01*
X0445995Y0244166D01*
X0446036Y0244277D01*
X0446081Y0244387D01*
X0446129Y0244496D01*
X0446181Y0244603D01*
X0446237Y0244708D01*
X0446296Y0244811D01*
X0446358Y0244912D01*
X0446424Y0245011D01*
X0446493Y0245107D01*
X0446566Y0245201D01*
X0446641Y0245293D01*
X0446720Y0245382D01*
X0446801Y0245469D01*
X0446886Y0245552D01*
X0446973Y0245633D01*
X0447063Y0245711D01*
X0447155Y0245786D01*
X0447250Y0245857D01*
X0447347Y0245926D01*
X0447446Y0245991D01*
X0447548Y0246052D01*
X0447651Y0246111D01*
X0447757Y0246165D01*
X0447864Y0246216D01*
X0447973Y0246264D01*
X0448083Y0246308D01*
X0448195Y0246348D01*
X0448308Y0246384D01*
X0448423Y0246417D01*
X0448538Y0246445D01*
X0448654Y0246470D01*
X0448771Y0246491D01*
X0448889Y0246508D01*
X0449007Y0246521D01*
X0449125Y0246530D01*
X0449244Y0246535D01*
X0449363Y0246536D01*
X0449481Y0246533D01*
X0449600Y0246526D01*
X0449718Y0246515D01*
X0449836Y0246500D01*
X0449954Y0246481D01*
X0450070Y0246458D01*
X0450186Y0246432D01*
X0450301Y0246401D01*
X0450414Y0246367D01*
X0450527Y0246328D01*
X0450638Y0246286D01*
X0450748Y0246241D01*
X0450856Y0246191D01*
X0450962Y0246138D01*
X0451067Y0246082D01*
X0451169Y0246022D01*
X0451270Y0245959D01*
X0451368Y0245892D01*
X0451464Y0245822D01*
X0451558Y0245749D01*
X0451649Y0245672D01*
X0451737Y0245593D01*
X0451823Y0245511D01*
X0451906Y0245426D01*
X0451986Y0245338D01*
X0452063Y0245248D01*
X0452137Y0245155D01*
X0452208Y0245059D01*
X0452275Y0244961D01*
X0452339Y0244861D01*
X0452400Y0244759D01*
X0452458Y0244655D01*
X0452511Y0244549D01*
X0452562Y0244442D01*
X0452608Y0244333D01*
X0452651Y0244222D01*
X0452690Y0244110D01*
X0452726Y0243996D01*
X0452757Y0243882D01*
X0452785Y0243766D01*
X0452809Y0243650D01*
X0452829Y0243533D01*
X0452845Y0243415D01*
X0452857Y0243297D01*
X0452865Y0243178D01*
X0452869Y0243059D01*
X0452869Y0242941D01*
X0452865Y0242822D01*
X0452857Y0242703D01*
X0452845Y0242585D01*
X0452829Y0242467D01*
X0452809Y0242350D01*
X0452785Y0242234D01*
X0452757Y0242118D01*
X0452726Y0242004D01*
X0452690Y0241890D01*
X0452651Y0241778D01*
X0452608Y0241667D01*
X0452562Y0241558D01*
X0452511Y0241451D01*
X0452458Y0241345D01*
X0452400Y0241241D01*
X0452339Y0241139D01*
X0452275Y0241039D01*
X0452208Y0240941D01*
X0452137Y0240845D01*
X0452063Y0240752D01*
X0451986Y0240662D01*
X0451906Y0240574D01*
X0451823Y0240489D01*
X0451737Y0240407D01*
X0451649Y0240328D01*
X0451558Y0240251D01*
X0451464Y0240178D01*
X0451368Y0240108D01*
X0451270Y0240041D01*
X0451169Y0239978D01*
X0451067Y0239918D01*
X0450962Y0239862D01*
X0450856Y0239809D01*
X0450748Y0239759D01*
X0450638Y0239714D01*
X0450527Y0239672D01*
X0450414Y0239633D01*
X0450301Y0239599D01*
X0450186Y0239568D01*
X0450070Y0239542D01*
X0449954Y0239519D01*
X0449836Y0239500D01*
X0449718Y0239485D01*
X0449600Y0239474D01*
X0449481Y0239467D01*
X0449363Y0239464D01*
X0449244Y0239465D01*
X0449125Y0239470D01*
X0449007Y0239479D01*
X0448889Y0239492D01*
X0448771Y0239509D01*
X0448654Y0239530D01*
X0448538Y0239555D01*
X0448423Y0239583D01*
X0448308Y0239616D01*
X0448195Y0239652D01*
X0448083Y0239692D01*
X0447973Y0239736D01*
X0447864Y0239784D01*
X0447757Y0239835D01*
X0447651Y0239889D01*
X0447548Y0239948D01*
X0447446Y0240009D01*
X0447347Y0240074D01*
X0447250Y0240143D01*
X0447155Y0240214D01*
X0447063Y0240289D01*
X0446973Y0240367D01*
X0446886Y0240448D01*
X0446801Y0240531D01*
X0446720Y0240618D01*
X0446641Y0240707D01*
X0446566Y0240799D01*
X0446493Y0240893D01*
X0446424Y0240989D01*
X0446358Y0241088D01*
X0446296Y0241189D01*
X0446237Y0241292D01*
X0446181Y0241397D01*
X0446129Y0241504D01*
X0446081Y0241613D01*
X0446036Y0241723D01*
X0445995Y0241834D01*
X0445957Y0241947D01*
X0445924Y0242061D01*
X0445894Y0242176D01*
X0445869Y0242292D01*
X0445847Y0242409D01*
X0445829Y0242526D01*
X0445815Y0242644D01*
X0445805Y0242763D01*
X0445799Y0242881D01*
X0445797Y0243000D01*
X0321510Y0170824D02*
X0318581Y0173752D01*
X0315797Y0176536D02*
X0312869Y0179464D01*
X0310085Y0182248D02*
X0307157Y0185176D01*
X0304373Y0187960D02*
X0301445Y0190889D01*
X0298661Y0193672D02*
X0295733Y0196601D01*
X0292949Y0199385D02*
X0290020Y0202313D01*
X0287237Y0205097D02*
X0284308Y0208025D01*
X0279358Y0208025D01*
X0276430Y0205097D01*
X0273646Y0202313D02*
X0270718Y0199385D01*
X0267934Y0196601D02*
X0265006Y0193672D01*
X0262222Y0190889D02*
X0259294Y0187960D01*
X0256510Y0185176D02*
X0253581Y0182248D01*
X0250797Y0179464D02*
X0247869Y0176536D01*
X0245085Y0173752D02*
X0242157Y0170824D01*
X0239373Y0168040D02*
X0236445Y0165111D01*
X0233661Y0162328D02*
X0230733Y0159399D01*
X0227949Y0156615D02*
X0225020Y0153687D01*
X0222237Y0150903D02*
X0219308Y0147975D01*
X0219308Y0143025D01*
X0222237Y0140097D01*
X0225020Y0137313D02*
X0227949Y0134385D01*
X0230733Y0131601D02*
X0233661Y0128672D01*
X0236445Y0125889D02*
X0239373Y0122960D01*
X0242157Y0120176D02*
X0245085Y0117248D01*
X0247869Y0114464D02*
X0250797Y0111536D01*
X0253581Y0108752D02*
X0256510Y0105824D01*
X0259294Y0103040D02*
X0262222Y0100111D01*
X0265006Y0097328D02*
X0267934Y0094399D01*
X0270718Y0091615D02*
X0273646Y0088687D01*
X0276430Y0085903D02*
X0279358Y0082975D01*
X0284308Y0082975D01*
X0287237Y0085903D01*
X0290020Y0088687D02*
X0292949Y0091615D01*
X0295733Y0094399D02*
X0298661Y0097328D01*
X0301445Y0100111D02*
X0304373Y0103040D01*
X0307157Y0105824D02*
X0310085Y0108752D01*
X0312869Y0111536D02*
X0315797Y0114464D01*
X0318581Y0117248D02*
X0321510Y0120176D01*
X0324294Y0122960D02*
X0327222Y0125889D01*
X0330006Y0128672D02*
X0332934Y0131601D01*
X0335718Y0134385D02*
X0338646Y0137313D01*
X0341430Y0140097D02*
X0344358Y0143025D01*
X0344358Y0147975D01*
X0341430Y0150903D01*
X0338646Y0153687D02*
X0335718Y0156615D01*
X0332934Y0159399D02*
X0330006Y0162328D01*
X0327222Y0165111D02*
X0324294Y0168040D01*
X0321258Y0163575D02*
X0318009Y0166825D01*
X0315225Y0169609D02*
X0311975Y0172858D01*
X0309191Y0175642D02*
X0305942Y0178891D01*
X0303158Y0181675D02*
X0299908Y0184925D01*
X0297125Y0187709D02*
X0293875Y0190958D01*
X0291091Y0193742D02*
X0287842Y0196992D01*
X0285058Y0199776D02*
X0281808Y0203025D01*
X0281858Y0203025D02*
X0278609Y0199776D01*
X0275825Y0196992D02*
X0272576Y0193742D01*
X0269792Y0190958D02*
X0266542Y0187709D01*
X0263758Y0184925D02*
X0260509Y0181675D01*
X0257725Y0178891D02*
X0254475Y0175642D01*
X0251691Y0172858D02*
X0248442Y0169609D01*
X0245658Y0166825D02*
X0242408Y0163575D01*
X0239625Y0160791D02*
X0236375Y0157542D01*
X0233591Y0154758D02*
X0230342Y0151508D01*
X0227558Y0148724D02*
X0224308Y0145475D01*
X0224308Y0145525D02*
X0227558Y0142276D01*
X0230342Y0139492D02*
X0233591Y0136242D01*
X0236375Y0133458D02*
X0239625Y0130209D01*
X0242408Y0127425D02*
X0245658Y0124175D01*
X0248442Y0121391D02*
X0251691Y0118142D01*
X0254475Y0115358D02*
X0257725Y0112109D01*
X0260509Y0109325D02*
X0263758Y0106075D01*
X0266542Y0103291D02*
X0269792Y0100042D01*
X0272576Y0097258D02*
X0275825Y0094008D01*
X0278609Y0091224D02*
X0281858Y0087975D01*
X0281808Y0087975D02*
X0285058Y0091224D01*
X0287842Y0094008D02*
X0291091Y0097258D01*
X0293875Y0100042D02*
X0297125Y0103291D01*
X0299908Y0106075D02*
X0303158Y0109325D01*
X0305942Y0112109D02*
X0309191Y0115358D01*
X0311975Y0118142D02*
X0315225Y0121391D01*
X0318009Y0124175D02*
X0321258Y0127425D01*
X0324042Y0130209D02*
X0327292Y0133458D01*
X0330076Y0136242D02*
X0333325Y0139492D01*
X0336109Y0142276D02*
X0339358Y0145525D01*
X0339358Y0145475D02*
X0336109Y0148724D01*
X0333325Y0151508D02*
X0330076Y0154758D01*
X0327292Y0157542D02*
X0324042Y0160791D01*
X0323778Y0150200D02*
X0322076Y0150200D01*
X0321509Y0149633D01*
X0322076Y0149066D01*
X0323778Y0149066D01*
X0323778Y0148499D02*
X0323778Y0150200D01*
X0323778Y0148499D02*
X0323211Y0147931D01*
X0322076Y0147931D01*
X0320095Y0148499D02*
X0319528Y0147931D01*
X0318393Y0147931D01*
X0317826Y0148499D01*
X0317826Y0149633D01*
X0318393Y0150200D01*
X0319528Y0150200D01*
X0320095Y0149066D02*
X0317826Y0149066D01*
X0316458Y0147931D02*
X0315891Y0147931D01*
X0314757Y0149066D01*
X0314757Y0150200D02*
X0314757Y0147931D01*
X0313342Y0147931D02*
X0313342Y0150200D01*
X0313342Y0148499D02*
X0311074Y0148499D01*
X0311074Y0147931D02*
X0311074Y0150200D01*
X0311074Y0147931D02*
X0312208Y0146797D01*
X0313342Y0147931D01*
X0312775Y0144200D02*
X0313342Y0143633D01*
X0313342Y0141364D01*
X0312775Y0140797D01*
X0311641Y0140797D01*
X0311074Y0141364D01*
X0311074Y0143633D01*
X0311641Y0144200D01*
X0312775Y0144200D01*
X0314757Y0144200D02*
X0314757Y0141931D01*
X0316458Y0141931D01*
X0317026Y0142499D01*
X0317026Y0144200D01*
X0320095Y0148499D02*
X0320095Y0149066D01*
X0306023Y0147931D02*
X0305456Y0147931D01*
X0304321Y0149066D01*
X0304321Y0150200D02*
X0304321Y0147931D01*
X0302907Y0148499D02*
X0302907Y0149066D01*
X0300638Y0149066D01*
X0300638Y0149633D02*
X0300638Y0148499D01*
X0301205Y0147931D01*
X0302340Y0147931D01*
X0302907Y0148499D01*
X0302340Y0150200D02*
X0301205Y0150200D01*
X0300638Y0149633D01*
X0299317Y0150200D02*
X0298750Y0149633D01*
X0298750Y0147364D01*
X0298183Y0147931D02*
X0299317Y0147931D01*
X0296768Y0148499D02*
X0296768Y0150200D01*
X0296768Y0148499D02*
X0296201Y0147931D01*
X0294500Y0147931D01*
X0294500Y0150200D01*
X0293085Y0149066D02*
X0290816Y0149066D01*
X0290816Y0149633D02*
X0290816Y0148499D01*
X0291384Y0147931D01*
X0292518Y0147931D01*
X0293085Y0148499D01*
X0293085Y0149066D01*
X0292518Y0150200D02*
X0291384Y0150200D01*
X0290816Y0149633D01*
X0289402Y0149633D02*
X0288835Y0150200D01*
X0287700Y0150200D01*
X0287133Y0149633D01*
X0287133Y0147364D01*
X0287700Y0146797D01*
X0288835Y0146797D01*
X0289402Y0147364D01*
X0288835Y0144200D02*
X0287700Y0144200D01*
X0287133Y0143633D01*
X0287700Y0142499D02*
X0288835Y0142499D01*
X0289402Y0143066D01*
X0289402Y0143633D01*
X0288835Y0144200D01*
X0287700Y0142499D02*
X0287133Y0141931D01*
X0287133Y0141364D01*
X0287700Y0140797D01*
X0288835Y0140797D01*
X0289402Y0141364D01*
X0290816Y0142499D02*
X0291384Y0141931D01*
X0292518Y0141931D01*
X0293085Y0142499D01*
X0293085Y0143633D01*
X0292518Y0144200D01*
X0291384Y0144200D01*
X0290816Y0143633D01*
X0290816Y0142499D01*
X0294500Y0144200D02*
X0295634Y0144200D01*
X0295067Y0144200D02*
X0295067Y0140797D01*
X0294500Y0140797D01*
X0296955Y0142499D02*
X0297522Y0141931D01*
X0299224Y0141931D01*
X0299224Y0140797D02*
X0299224Y0144200D01*
X0297522Y0144200D01*
X0296955Y0143633D01*
X0296955Y0142499D01*
X0300638Y0142499D02*
X0301205Y0141931D01*
X0302340Y0141931D01*
X0302907Y0142499D01*
X0302907Y0143066D01*
X0300638Y0143066D01*
X0300638Y0143633D02*
X0300638Y0142499D01*
X0300638Y0143633D02*
X0301205Y0144200D01*
X0302340Y0144200D01*
X0304321Y0144200D02*
X0304321Y0141931D01*
X0305456Y0141931D02*
X0306023Y0141931D01*
X0305456Y0141931D02*
X0304321Y0143066D01*
X0254333Y0144250D02*
X0251833Y0146750D01*
D17*
X0249333Y0146750D02*
X0251833Y0144250D01*
X0426248Y0249334D02*
X0426832Y0248750D01*
X0428000Y0248750D01*
X0428583Y0249334D01*
X0428583Y0251669D01*
X0428000Y0252253D01*
X0426832Y0252253D01*
X0426248Y0251669D01*
X0429931Y0252253D02*
X0432266Y0252253D01*
X0432266Y0248750D01*
X0432266Y0250501D02*
X0431099Y0250501D01*
X0436248Y0249334D02*
X0436832Y0248750D01*
X0438000Y0248750D01*
X0438583Y0249334D01*
X0438583Y0251669D01*
X0438000Y0252253D01*
X0436832Y0252253D01*
X0436248Y0251669D01*
X0439931Y0252253D02*
X0439931Y0249918D01*
X0441099Y0248750D01*
X0442266Y0249918D01*
X0442266Y0252253D01*
X0446248Y0251669D02*
X0446832Y0252253D01*
X0448000Y0252253D01*
X0448583Y0251669D01*
X0448583Y0249334D01*
X0448000Y0248750D01*
X0446832Y0248750D01*
X0446248Y0249334D01*
X0449931Y0248750D02*
X0452266Y0248750D01*
X0452266Y0252253D01*
X0449931Y0252253D01*
X0451099Y0250501D02*
X0452266Y0250501D01*
D18*
X0193234Y0040499D02*
X0192033Y0040499D01*
X0192033Y0041300D01*
X0192434Y0041700D01*
X0193234Y0041700D01*
X0193635Y0041300D01*
X0193635Y0040899D01*
X0193234Y0040499D01*
X0192834Y0039698D02*
X0192033Y0040499D01*
X0192834Y0039698D02*
X0193635Y0039298D01*
X0194612Y0040099D02*
X0195412Y0039298D01*
X0195412Y0041700D01*
X0194612Y0041700D02*
X0196213Y0041700D01*
X0197190Y0041300D02*
X0198791Y0039698D01*
X0198791Y0041300D01*
X0198391Y0041700D01*
X0197590Y0041700D01*
X0197190Y0041300D01*
X0197190Y0039698D01*
X0197590Y0039298D01*
X0198391Y0039298D01*
X0198791Y0039698D01*
X0199768Y0039698D02*
X0199768Y0040099D01*
X0200168Y0040499D01*
X0200969Y0040499D01*
X0201369Y0040899D01*
X0201369Y0041300D01*
X0200969Y0041700D01*
X0200168Y0041700D01*
X0199768Y0041300D01*
X0199768Y0040899D01*
X0200168Y0040499D01*
X0200969Y0040499D02*
X0201369Y0040099D01*
X0201369Y0039698D01*
X0200969Y0039298D01*
X0200168Y0039298D01*
X0199768Y0039698D01*
X0202346Y0039698D02*
X0202746Y0039298D01*
X0203547Y0039298D01*
X0203947Y0039698D01*
X0203947Y0040099D01*
X0203547Y0040499D01*
X0203947Y0040899D01*
X0203947Y0041300D01*
X0203547Y0041700D01*
X0202746Y0041700D01*
X0202346Y0041300D01*
X0203147Y0040499D02*
X0203547Y0040499D01*
X0204924Y0040499D02*
X0206526Y0040499D01*
X0207503Y0040099D02*
X0208303Y0039298D01*
X0208303Y0041700D01*
X0207503Y0041700D02*
X0209104Y0041700D01*
X0210081Y0041300D02*
X0211682Y0039698D01*
X0211682Y0041300D01*
X0211282Y0041700D01*
X0210481Y0041700D01*
X0210081Y0041300D01*
X0210081Y0039698D01*
X0210481Y0039298D01*
X0211282Y0039298D01*
X0211682Y0039698D01*
X0212659Y0039698D02*
X0214260Y0041300D01*
X0213460Y0041300D02*
X0213460Y0039698D01*
X0214260Y0039698D02*
X0212659Y0041300D01*
X0212659Y0040499D02*
X0214260Y0040499D01*
X0215237Y0040499D02*
X0216838Y0040499D01*
X0217815Y0041300D02*
X0219417Y0039698D01*
X0219417Y0041300D01*
X0219016Y0041700D01*
X0218216Y0041700D01*
X0217815Y0041300D01*
X0217815Y0039698D01*
X0218216Y0039298D01*
X0219016Y0039298D01*
X0219417Y0039698D01*
X0220394Y0039698D02*
X0220794Y0039298D01*
X0221595Y0039298D01*
X0221995Y0039698D01*
X0220394Y0041300D01*
X0220794Y0041700D01*
X0221595Y0041700D01*
X0221995Y0041300D01*
X0221995Y0039698D01*
X0222972Y0039298D02*
X0222972Y0041700D01*
X0224573Y0041700D01*
X0225550Y0041700D02*
X0225550Y0039298D01*
X0227151Y0039298D01*
X0226351Y0040499D02*
X0225550Y0040499D01*
X0220394Y0041300D02*
X0220394Y0039698D01*
X0216438Y0039298D02*
X0215237Y0040499D01*
X0216438Y0041700D02*
X0216438Y0039298D01*
X0249333Y0144250D02*
X0246833Y0146750D01*
X0227151Y0249298D02*
X0225550Y0249298D01*
X0225550Y0251700D01*
X0224573Y0251700D02*
X0222972Y0251700D01*
X0222972Y0249298D01*
X0221995Y0249698D02*
X0221595Y0249298D01*
X0220794Y0249298D01*
X0220394Y0249698D01*
X0220394Y0251300D01*
X0221995Y0249698D01*
X0221995Y0251300D01*
X0221595Y0251700D01*
X0220794Y0251700D01*
X0220394Y0251300D01*
X0219417Y0251300D02*
X0219016Y0251700D01*
X0218216Y0251700D01*
X0217815Y0251300D01*
X0219417Y0249698D01*
X0219417Y0251300D01*
X0217815Y0251300D02*
X0217815Y0249698D01*
X0218216Y0249298D01*
X0219016Y0249298D01*
X0219417Y0249698D01*
X0216838Y0250499D02*
X0215237Y0250499D01*
X0216438Y0249298D01*
X0216438Y0251700D01*
X0214260Y0251300D02*
X0212659Y0249698D01*
X0213460Y0249698D02*
X0213460Y0251300D01*
X0212659Y0251300D02*
X0214260Y0249698D01*
X0214260Y0250499D02*
X0212659Y0250499D01*
X0211682Y0251300D02*
X0211282Y0251700D01*
X0210481Y0251700D01*
X0210081Y0251300D01*
X0211682Y0249698D01*
X0211682Y0251300D01*
X0210081Y0251300D02*
X0210081Y0249698D01*
X0210481Y0249298D01*
X0211282Y0249298D01*
X0211682Y0249698D01*
X0209104Y0251700D02*
X0207503Y0251700D01*
X0208303Y0251700D02*
X0208303Y0249298D01*
X0207503Y0250099D01*
X0206526Y0250499D02*
X0204924Y0250499D01*
X0203947Y0250899D02*
X0203947Y0251300D01*
X0203547Y0251700D01*
X0202746Y0251700D01*
X0202346Y0251300D01*
X0201369Y0251300D02*
X0200969Y0251700D01*
X0200168Y0251700D01*
X0199768Y0251300D01*
X0199768Y0250899D01*
X0200168Y0250499D01*
X0200969Y0250499D01*
X0201369Y0250899D01*
X0201369Y0251300D01*
X0200969Y0250499D02*
X0201369Y0250099D01*
X0201369Y0249698D01*
X0200969Y0249298D01*
X0200168Y0249298D01*
X0199768Y0249698D01*
X0199768Y0250099D01*
X0200168Y0250499D01*
X0198791Y0251300D02*
X0198391Y0251700D01*
X0197590Y0251700D01*
X0197190Y0251300D01*
X0198791Y0249698D01*
X0198791Y0251300D01*
X0197190Y0251300D02*
X0197190Y0249698D01*
X0197590Y0249298D01*
X0198391Y0249298D01*
X0198791Y0249698D01*
X0196213Y0251700D02*
X0194612Y0251700D01*
X0195412Y0251700D02*
X0195412Y0249298D01*
X0194612Y0250099D01*
X0193635Y0250899D02*
X0193234Y0250499D01*
X0192033Y0250499D01*
X0192033Y0251300D01*
X0192434Y0251700D01*
X0193234Y0251700D01*
X0193635Y0251300D01*
X0193635Y0250899D01*
X0192834Y0249698D02*
X0192033Y0250499D01*
X0192834Y0249698D02*
X0193635Y0249298D01*
X0202346Y0249698D02*
X0202746Y0249298D01*
X0203547Y0249298D01*
X0203947Y0249698D01*
X0203947Y0250099D01*
X0203547Y0250499D01*
X0203947Y0250899D01*
X0203547Y0250499D02*
X0203147Y0250499D01*
X0225550Y0250499D02*
X0226351Y0250499D01*
D19*
X0175383Y0210294D02*
X0173282Y0210294D01*
X0173282Y0209244D01*
X0173632Y0208893D01*
X0175033Y0208893D01*
X0175383Y0209244D01*
X0175383Y0210294D01*
X0175383Y0208085D02*
X0173282Y0208085D01*
X0173282Y0206683D01*
X0173982Y0205875D02*
X0173282Y0205174D01*
X0175383Y0205174D01*
X0175383Y0204474D02*
X0175383Y0205875D01*
X0174332Y0207384D02*
X0174332Y0208085D01*
X0173632Y0203665D02*
X0173282Y0203315D01*
X0173282Y0202614D01*
X0173632Y0202264D01*
X0173982Y0202264D01*
X0175383Y0203665D01*
X0175383Y0202264D01*
X0174332Y0201455D02*
X0174332Y0200054D01*
X0173632Y0199245D02*
X0173282Y0198895D01*
X0173282Y0198194D01*
X0173632Y0197844D01*
X0173982Y0197844D01*
X0175383Y0199245D01*
X0175383Y0197844D01*
X0175033Y0197035D02*
X0173632Y0195634D01*
X0175033Y0195634D01*
X0175383Y0195984D01*
X0175383Y0196685D01*
X0175033Y0197035D01*
X0173632Y0197035D01*
X0173282Y0196685D01*
X0173282Y0195984D01*
X0173632Y0195634D01*
X0173282Y0194825D02*
X0173282Y0193774D01*
X0173632Y0193424D01*
X0175033Y0193424D01*
X0175383Y0193774D01*
X0175383Y0194825D01*
X0173282Y0194825D01*
X0173282Y0192615D02*
X0173282Y0191565D01*
X0173632Y0191214D01*
X0174332Y0191214D01*
X0174683Y0191565D01*
X0174683Y0192615D01*
X0175383Y0192615D02*
X0173282Y0192615D01*
X0244333Y0146750D02*
X0246833Y0144250D01*
X0388282Y0100294D02*
X0388282Y0099244D01*
X0388632Y0098893D01*
X0390033Y0098893D01*
X0390383Y0099244D01*
X0390383Y0100294D01*
X0388282Y0100294D01*
X0388282Y0098085D02*
X0388282Y0096683D01*
X0388982Y0095875D02*
X0388282Y0095174D01*
X0390383Y0095174D01*
X0390383Y0094474D02*
X0390383Y0095875D01*
X0389332Y0097384D02*
X0389332Y0098085D01*
X0388282Y0098085D02*
X0390383Y0098085D01*
X0390383Y0093665D02*
X0388982Y0092264D01*
X0388632Y0092264D01*
X0388282Y0092614D01*
X0388282Y0093315D01*
X0388632Y0093665D01*
X0390383Y0093665D02*
X0390383Y0092264D01*
X0389332Y0091455D02*
X0389332Y0090054D01*
X0388632Y0089245D02*
X0388282Y0088895D01*
X0388282Y0088194D01*
X0388632Y0087844D01*
X0388982Y0087844D01*
X0390383Y0089245D01*
X0390383Y0087844D01*
X0390033Y0087035D02*
X0388632Y0085634D01*
X0390033Y0085634D01*
X0390383Y0085984D01*
X0390383Y0086685D01*
X0390033Y0087035D01*
X0388632Y0087035D01*
X0388282Y0086685D01*
X0388282Y0085984D01*
X0388632Y0085634D01*
X0388282Y0084825D02*
X0388282Y0083774D01*
X0388632Y0083424D01*
X0390033Y0083424D01*
X0390383Y0083774D01*
X0390383Y0084825D01*
X0388282Y0084825D01*
X0388282Y0082615D02*
X0388282Y0081565D01*
X0388632Y0081214D01*
X0389332Y0081214D01*
X0389683Y0081565D01*
X0389683Y0082615D01*
X0390383Y0082615D02*
X0388282Y0082615D01*
D20*
X0244333Y0144250D02*
X0241833Y0146750D01*
D21*
X0239333Y0146750D02*
X0241833Y0144250D01*
D22*
X0156440Y0159248D03*
X0156440Y0169122D03*
X0138526Y0179949D03*
X0100731Y0179949D03*
X0087542Y0161248D03*
X0087542Y0135657D03*
X0087542Y0121878D03*
X0104668Y0111051D03*
X0116479Y0111051D03*
X0140101Y0111051D03*
X0156440Y0121878D03*
X0407227Y0121878D03*
X0407227Y0129752D03*
X0425534Y0111051D03*
X0461361Y0111051D03*
X0476125Y0129752D03*
X0476125Y0156819D03*
X0476125Y0169122D03*
X0458999Y0179949D03*
X0447188Y0179949D03*
X0421991Y0179949D03*
X0407227Y0169122D03*
D23*
G36*
X0283954Y0098000D02*
X0281833Y0095879D01*
X0279712Y0098000D01*
X0281833Y0100121D01*
X0283954Y0098000D01*
G37*
M02*
