M48
INCH,TZ
T10C0.008
T11C0.010
T12C0.012
T13C0.013
T14C0.014
T15C0.015
T16C0.016
T17C0.024
T18C0.025
T19C0.029
T20C0.040
T21C0.043
T22C0.044
T23C0.125
%
T10
X-07523Y006873
X-07295Y007423
X-07523Y007973
X-08073Y008201
X-08623Y007973
X-08851Y007423
X-08623Y006873
X-08073Y006645
X-08573Y009923
X-08573Y010423
X-08073Y010173
X-07573Y010173
X-07073Y010423
X-07073Y009923
X-06948Y011173
X-08698Y011298
X-08823Y011548
X-10073Y012173
X-10573Y012173
X-10323Y011673
X-10323Y011173
X-10073Y010673
X-10573Y010673
X-10823Y010173
X-11573Y010673
X-11323Y011226
X-11823Y011423
X-10823Y009173
X-13823Y009173
X-13823Y010173
X-16823Y010173
X-16823Y009173
X-17948Y012423
X-18073Y012623
X-18323Y012873
X-18823Y013673
X-19123Y013923
X-19323Y014173
X-19198Y014798
X-19198Y015173
X-19197Y015548
X-20146Y015850
X-21073Y015548
X-21073Y015173
X-21073Y014798
X-20698Y013548
X-20323Y013673
X-19948Y013673
X-21898Y011923
X-22573Y012423
X-22698Y013541
X-22323Y013548
X-22573Y015048
X-22323Y015298
X-21823Y017173
X-21823Y017673
X-21198Y017673
X-20698Y017673
X-21573Y019673
X-21573Y020673
X-21073Y021923
X-20073Y021923
X-19448Y021623
X-19248Y022123
X-19373Y023423
X-19073Y023423
X-20073Y025673
X-21073Y025673
X-21073Y024029
X-23323Y024173
X-23323Y024673
X-23073Y025923
X-23573Y025923
X-25073Y025765
X-25073Y026710
X-26323Y026395
X-26323Y026080
X-26573Y025765
X-26323Y025450
X-26323Y025136
X-26823Y025136
X-26823Y025450
X-26823Y026080
X-26823Y026395
X-26573Y026710
X-26323Y027025
X-26323Y027340
X-26573Y027655
X-26323Y027970
X-26323Y028285
X-26573Y028600
X-26323Y028915
X-26323Y029230
X-26573Y029545
X-26323Y029860
X-26323Y030175
X-26573Y030490
X-26323Y030805
X-26323Y031120
X-26573Y031435
X-26323Y031750
X-26323Y032065
X-26823Y032065
X-26823Y031750
X-26823Y031120
X-26823Y030805
X-26823Y030175
X-26823Y029860
X-26823Y029230
X-26823Y028915
X-26823Y028285
X-26823Y027970
X-26823Y027340
X-26823Y027025
X-28073Y026710
X-28073Y025765
X-28298Y027655
X-28073Y028600
X-28073Y029545
X-28073Y030490
X-28073Y031435
X-28023Y032380
X-25123Y032380
X-25073Y031435
X-25073Y030490
X-25073Y029545
X-25073Y028600
X-23573Y029673
X-23073Y029673
X-23323Y031673
X-23323Y032173
X-23073Y033423
X-23573Y033423
X-21073Y033173
X-20073Y033173
X-19648Y032173
X-19448Y031923
X-19121Y033298
X-19121Y033673
X-19121Y034173
X-19121Y034548
X-17526Y034548
X-17523Y034173
X-17523Y033673
X-17526Y033298
X-17123Y033298
X-16823Y034173
X-16823Y034673
X-17448Y036048
X-17448Y036423
X-16449Y036298
X-16448Y036673
X-16448Y037048
X-15500Y035996
X-14573Y036298
X-14573Y036673
X-14573Y037048
X-13448Y036548
X-13073Y036798
X-13823Y034673
X-13823Y034173
X-14448Y034173
X-14948Y034173
X-14073Y032173
X-14073Y031173
X-14573Y029923
X-16448Y029923
X-16448Y029600
X-16448Y029246
X-16673Y030223
X-17023Y030223
X-17823Y030223
X-18323Y029973
X-18423Y030548
X-17323Y028850
X-17922Y028171
X-18138Y027923
X-17723Y027423
X-17923Y027173
X-18573Y027298
X-18698Y027048
X-20073Y029423
X-21073Y029423
X-21073Y031529
X-17073Y031173
X-17073Y032173
X-16823Y027673
X-16523Y027423
X-16448Y027048
X-15573Y026173
X-14573Y026173
X-14573Y027817
X-12323Y027673
X-12323Y027173
X-12073Y025923
X-12573Y025923
X-10573Y025765
X-10573Y026710
X-09323Y026395
X-09323Y026080
X-09073Y025765
X-08823Y025450
X-08823Y025136
X-09323Y025136
X-09323Y025450
X-08823Y026080
X-08823Y026395
X-09073Y026710
X-08823Y027025
X-08823Y027340
X-09073Y027655
X-08823Y027970
X-08823Y028285
X-09073Y028600
X-08823Y028915
X-08823Y029230
X-09073Y029545
X-08823Y029860
X-08823Y030175
X-09073Y030490
X-08823Y030805
X-08823Y031120
X-09073Y031435
X-09323Y031120
X-09323Y030805
X-09323Y030175
X-09323Y029860
X-09323Y029230
X-09323Y028915
X-09323Y028285
X-09323Y027970
X-09323Y027340
X-09323Y027025
X-10573Y028600
X-10573Y029545
X-10573Y030490
X-11848Y030523
X-12073Y029673
X-12573Y029673
X-10573Y033010
X-09323Y033325
X-09323Y033639
X-08823Y033010
X-09323Y032695
X-07573Y032695
X-07573Y033325
X-07573Y033639
X-07573Y030490
X-07573Y029545
X-07573Y028600
X-07348Y027655
X-07573Y026710
X-07573Y025765
X-08823Y024191
X-08823Y023876
X-09073Y023561
X-09323Y023876
X-09323Y024191
X-09323Y023246
X-09323Y022931
X-09073Y022616
X-08823Y022931
X-08823Y023246
X-08823Y022301
X-08823Y021986
X-09073Y021671
X-09323Y021986
X-09323Y022301
X-09323Y021041
X-09323Y020726
X-09073Y020411
X-08823Y020096
X-08823Y019781
X-09073Y019466
X-08823Y019151
X-08823Y018836
X-09323Y018836
X-09323Y018521
X-09323Y018206
X-08823Y018206
X-09323Y019151
X-09323Y019781
X-09323Y020096
X-08823Y020726
X-08823Y021041
X-07573Y020411
X-07573Y019466
X-07198Y021923
X-07573Y022616
X-07573Y023561
X-10573Y023561
X-10573Y022616
X-10573Y021671
X-10573Y020411
X-10573Y019466
X-12073Y018423
X-12573Y018423
X-12323Y019673
X-12323Y020173
X-12073Y022173
X-12573Y022173
X-14573Y022423
X-15573Y022423
X-14573Y020317
X-15923Y020120
X-16123Y019923
X-15573Y018673
X-14573Y018673
X-12073Y015173
X-15278Y014923
X-15475Y014798
X-15672Y014923
X-15869Y014798
X-16065Y014923
X-18198Y018548
X-18823Y017673
X-18823Y017173
X-18573Y019673
X-18573Y020673
X-23073Y022173
X-23573Y022173
X-25073Y022616
X-25073Y023561
X-26323Y023876
X-26323Y024191
X-26823Y024191
X-26823Y023876
X-26573Y023561
X-26323Y023246
X-26323Y022931
X-26573Y022616
X-26323Y022301
X-26323Y021986
X-26573Y021671
X-26823Y021986
X-26823Y022301
X-26823Y022931
X-26823Y023246
X-28073Y023561
X-28073Y022616
X-28073Y021671
X-28073Y020411
X-28073Y018836
X-26823Y019151
X-26823Y019466
X-26823Y019781
X-26823Y020096
X-26573Y020411
X-26323Y020096
X-26323Y019781
X-26323Y019466
X-26323Y019151
X-26573Y018836
X-26323Y020726
X-26323Y021041
X-26823Y021041
X-26823Y020726
X-25073Y020411
X-25073Y018836
X-25073Y012173
X-25573Y012173
X-25323Y011673
X-25323Y011173
X-25073Y010673
X-25573Y010673
X-25323Y010173
X-25273Y009923
X-24323Y011423
X-23973Y011423
X-24323Y011923
X-22823Y010173
X-22823Y009173
X-19823Y009173
X-19823Y010173
X-26795Y007423
X-27023Y007973
X-27573Y008201
X-28123Y007973
X-28351Y007423
X-28123Y006873
X-27573Y006645
X-27023Y006873
X-28573Y008923
X-28573Y009923
X-28573Y010423
X-28073Y010173
X-27573Y010173
X-27073Y010423
X-27073Y009923
X-07573Y013673
X-18823Y036923
X-19581Y036923
X-19778Y037048
X-19975Y036923
X-20172Y037048
X-20369Y036923
X-20823Y039423
X-20948Y039798
X-20820Y040298
X-20564Y040298
X-21076Y040298
X-21332Y040298
X-22073Y040298
X-22823Y040298
X-22823Y042548
X-22073Y042548
X-21823Y042548
X-21332Y042548
X-21076Y042548
X-20820Y042548
X-20564Y042548
X-21073Y043048
X-21073Y043298
X-20823Y043298
X-20448Y043298
X-20448Y043548
X-21448Y044173
X-21698Y044173
X-21948Y044173
X-22448Y044173
X-22948Y043548
X-23448Y043548
X-23448Y043298
X-23823Y043298
X-24073Y043298
X-24073Y043048
X-24448Y044173
X-24698Y044173
X-24948Y044173
X-25448Y044173
X-25948Y043548
X-26795Y044423
X-27023Y044973
X-27573Y045201
X-28123Y044973
X-28351Y044423
X-28123Y043873
X-27573Y043645
X-27023Y043873
X-25573Y041423
X-24823Y044798
X-21823Y044798
X-19573Y042098
X-19323Y041423
X-19823Y041423
X-19123Y040376
X-19323Y040173
X-18448Y039798
X-18073Y040673
X-18573Y041173
X-18573Y041673
X-17823Y042423
X-17073Y041673
X-17073Y041173
X-17573Y040673
X-15963Y042298
X-14573Y043923
X-13117Y042923
X-12900Y042655
X-12684Y042923
X-12467Y042655
X-12250Y042923
X-12034Y042655
X-11817Y042923
X-11601Y042655
X-11384Y042923
X-11168Y042655
X-10951Y042923
X-10735Y042655
X-10518Y042923
X-10302Y042655
X-10085Y042923
X-10361Y041373
X-09198Y040923
X-08323Y041423
X-08073Y042003
X-08073Y042673
X-08323Y042923
X-08073Y043645
X-08623Y043873
X-08851Y044423
X-08623Y044973
X-08073Y045201
X-07523Y044973
X-07295Y044423
X-07523Y043873
X-07323Y042423
X-07073Y041673
X-12723Y041373
X-13073Y039418
X-14573Y040673
X-15448Y039418
X-15323Y039173
T11
X-19123Y035723
X-21198Y036923
X-22323Y043048
X-22323Y043298
X-22573Y043298
X-23198Y044423
X-23198Y044798
X-23448Y044798
X-23948Y044423
X-25323Y043298
X-25323Y043048
X-25573Y043298
X-20948Y044423
X-20448Y044798
X-20198Y044798
X-20198Y044423
T12
X-20323Y038423
X-20323Y037923
X-19823Y037923
X-19823Y038423
X-20198Y034673
X-20198Y034423
X-20573Y033423
X-20573Y033173
X-22073Y032798
X-22573Y032798
X-23823Y034048
X-23823Y034298
X-23823Y030548
X-23823Y030298
X-22573Y029048
X-22073Y029048
X-20573Y029423
X-20573Y029673
X-20198Y030673
X-20198Y030923
X-20198Y027173
X-20198Y026923
X-20573Y025923
X-20573Y025673
X-22073Y025298
X-22573Y025298
X-23823Y026548
X-23823Y026798
X-23823Y023048
X-23823Y022798
X-23073Y020548
X-22823Y020548
X-21823Y020173
X-21573Y020173
X-20073Y020548
X-19823Y020548
X-18823Y020173
X-18573Y020173
X-20573Y021923
X-20573Y022173
X-20198Y023173
X-20198Y023423
X-18073Y025673
X-18073Y026173
X-17573Y026173
X-17573Y025673
X-15448Y024923
X-15448Y024673
X-15073Y025923
X-15073Y026173
X-13573Y026548
X-13073Y026548
X-11823Y025298
X-11823Y025048
X-13073Y022798
X-13573Y022798
X-15073Y022423
X-15073Y022173
X-15448Y021173
X-15448Y020923
X-15073Y018673
X-15073Y018423
X-15448Y017423
X-15448Y017173
X-13573Y019048
X-13073Y019048
X-11823Y017798
X-11823Y017548
X-11823Y021298
X-11823Y021548
X-15448Y028423
X-15448Y028673
X-15073Y029673
X-15073Y029923
X-15573Y031298
X-15823Y031298
X-16823Y031673
X-17073Y031673
X-16198Y034798
X-15948Y034798
X-14323Y035673
X-13198Y034798
X-12948Y034798
X-11948Y035173
X-13823Y031673
X-14073Y031673
X-12823Y031298
X-12573Y031298
X-11823Y029048
X-11823Y028798
X-19448Y017048
X-19698Y017048
X-21323Y016173
X-22448Y017048
X-22698Y017048
X-23698Y016673
X-19823Y012673
X-19323Y012673
X-19323Y012173
X-19823Y012173
X-21073Y010048
X-21323Y010048
X-20073Y009673
X-19823Y009673
X-19448Y008173
X-20073Y007798
X-20073Y007548
X-18323Y010048
X-18073Y010048
X-17073Y009673
X-16823Y009673
X-16448Y008173
X-17073Y007798
X-17073Y007548
X-15323Y010048
X-15073Y010048
X-14073Y009673
X-13823Y009673
X-13448Y008173
X-14073Y007798
X-14073Y007548
X-12323Y010048
X-12073Y010048
X-11073Y009673
X-10823Y009673
X-11073Y007798
X-11073Y007548
X-15323Y013423
X-15323Y013923
X-15823Y013923
X-15823Y013423
X-22448Y008173
X-23073Y007798
X-23073Y007548
X-23073Y009673
X-22823Y009673
X-24073Y010048
X-24323Y010048
X-11817Y044600
T13
X-14823Y038673
X-15573Y029923
X-18823Y024923
X-25073Y021923
X-20948Y013173
X-20573Y011423
X-25073Y012673
X-07573Y031750
T14
X-10948Y035173
X-11448Y035173
X-10948Y037673
X-22073Y039073
X-22948Y038673
X-22948Y037673
X-23823Y039073
X-24698Y038673
X-24698Y037673
X-24698Y016673
X-24198Y016673
X-24698Y014173
X-13573Y012773
X-12698Y013173
X-12698Y014173
X-11823Y012773
X-10948Y013173
X-10948Y014173
T15
X-13723Y017498
X-13723Y017848
X-14073Y017848
X-14073Y017498
X-14423Y017498
X-14423Y017848
X-14423Y021248
X-14073Y021248
X-13723Y021248
X-13723Y021598
X-14073Y021598
X-14423Y021598
X-14423Y024998
X-14073Y024998
X-13723Y024998
X-13723Y025348
X-14073Y025348
X-14423Y025348
X-14423Y028748
X-14073Y028748
X-13723Y028748
X-13723Y029098
X-14073Y029098
X-14423Y029098
X-13248Y032323
X-12898Y032323
X-12898Y032673
X-12898Y033023
X-13248Y033023
X-13248Y032673
X-15898Y032673
X-15898Y033023
X-16248Y033023
X-16248Y032673
X-16248Y032323
X-15898Y032323
X-21223Y033998
X-21223Y034348
X-21573Y034348
X-21573Y033998
X-21923Y033998
X-21923Y034348
X-21923Y030598
X-21573Y030598
X-21223Y030598
X-21223Y030248
X-21573Y030248
X-21923Y030248
X-21923Y026848
X-21573Y026848
X-21223Y026848
X-21223Y026498
X-21573Y026498
X-21923Y026498
X-21923Y023098
X-21573Y023098
X-21223Y023098
X-21223Y022748
X-21573Y022748
X-21923Y022748
X-22398Y019523
X-22398Y019173
X-22398Y018823
X-22748Y018823
X-22748Y019173
X-22748Y019523
X-19748Y019523
X-19398Y019523
X-19398Y019173
X-19398Y018823
X-19748Y018823
X-19748Y019173
X-20648Y009023
X-20648Y008673
X-20648Y008323
X-20998Y008323
X-20998Y008673
X-20998Y009023
X-23648Y009023
X-23648Y008673
X-23648Y008323
X-23998Y008323
X-23998Y008673
X-23998Y009023
X-17998Y009023
X-17648Y009023
X-17648Y008673
X-17648Y008323
X-17998Y008323
X-17998Y008673
X-14998Y008673
X-14648Y008673
X-14648Y009023
X-14998Y009023
X-14998Y008323
X-14648Y008323
X-11998Y008323
X-11648Y008323
X-11648Y008673
X-11648Y009023
X-11998Y009023
X-11998Y008673
T16
X-15323Y006173
X-16930Y006183
X-17430Y006183
X-17930Y006183
X-20430Y006183
X-22573Y011423
X-24198Y013173
X-26573Y012673
X-25823Y017173
X-27323Y017173
X-21573Y014423
X-18573Y015923
X-16573Y015923
X-18323Y013423
X-17823Y011923
X-16823Y011923
X-15948Y011923
X-15573Y011923
X-15198Y011923
X-10948Y015173
X-10948Y016173
X-09823Y017173
X-08323Y017173
X-11073Y023673
X-16448Y028048
X-16448Y028798
X-18698Y027798
X-17823Y023923
X-17073Y023923
X-17073Y022923
X-18573Y022923
X-18573Y021673
X-24573Y028173
X-25823Y034673
X-24698Y035673
X-24698Y036673
X-27323Y034673
X-25573Y039923
X-22823Y039923
X-21198Y039423
X-18823Y039798
X-17573Y038173
X-17073Y039673
X-16573Y040173
X-16198Y040173
X-15823Y040173
X-15823Y039673
X-15823Y040832
X-16198Y040832
X-16573Y040832
X-16198Y042048
X-14573Y042048
X-13823Y042048
X-13823Y042423
X-13823Y041673
X-13073Y041048
X-11573Y041048
X-11448Y038673
X-09073Y039173
X-08323Y034673
X-09823Y034673
X-14073Y037423
X-14573Y039673
X-15823Y038173
X-15823Y044298
X-19823Y044298
X-28198Y042298
X-26073Y006183
T17
X-26573Y015673
X-26573Y036173
X-26573Y037173
X-18573Y042423
X-17073Y042423
X-09073Y036173
X-09073Y015673
X-09073Y014673
T18
X-22024Y015763
X-24623Y015763
X-13623Y036082
X-11024Y036082
T19
X-09073Y034624
X-09073Y034624
X-26573Y034624
X-26573Y034624
T20
X-24698Y040923
X-24698Y041923
X-23698Y041923
X-23698Y040923
T21
X-26073Y038673
X-26073Y037673
X-26073Y036673
X-26073Y035673
X-27073Y035673
X-27073Y036673
X-27073Y037673
X-27073Y038673
X-27073Y016173
X-26073Y016173
X-26073Y015173
X-26073Y014173
X-26073Y013173
X-27073Y013173
X-27073Y014173
X-27073Y015173
X-09573Y015173
X-08573Y015173
X-08573Y016173
X-09573Y016173
X-09573Y014173
X-08573Y014173
X-08573Y013173
X-09573Y013173
X-09573Y035673
X-08573Y035673
X-08573Y036673
X-08573Y037673
X-08573Y038673
X-09573Y038673
X-09573Y037673
X-09573Y036673
T22
X-09073Y017222
X-09073Y017222
X-26573Y017222
X-26573Y017222
T23
X-27573Y007423
X-08073Y007423
X-08073Y044423
X-27573Y044423
M30

