%MOMM*%
%FSLAX33Y33*%
%IPPOS*%
%ADD10C,0*%
G75*
%LPD*%
D10*
G01*
X30365Y122400D02*
G75*
G01*
X30153Y122612D01*
G01*
X28455Y124300D02*
G75*
G01*
X28243Y124512D01*
G01*
X30365Y133820D02*
G75*
G01*
X30577Y134032D01*
G01*
X28455Y131920D02*
G75*
G01*
X28667Y132132D01*
G01*
X41785Y122400D02*
G75*
G01*
X41573Y122188D01*
G01*
X43695Y124300D02*
G75*
G01*
X43483Y124088D01*
G01*
X41785Y133820D02*
G75*
G01*
X41997Y133608D01*
G01*
X43695Y131920D02*
G75*
G01*
X43907Y131708D01*
G01*
X60205Y163670D02*
G75*
G01*
X60205Y163370D01*
G01*
X19695Y169380D02*
G75*
G01*
X19995Y169380D01*
G01*
X19695Y86840D02*
G75*
G01*
X19395Y86840D01*
G01*
X52455Y169380D02*
G75*
G01*
X52755Y169380D01*
G01*
X52455Y86840D02*
G75*
G01*
X52155Y86840D01*
G01*
X62745Y163670D02*
G75*
G01*
X62745Y163970D01*
G01*
X35285Y98110D02*
G75*
G01*
X35073Y98322D01*
G01*
X32905Y158080D02*
G75*
G01*
X33117Y158292D01*
G01*
X37975Y158080D02*
G75*
G01*
X37763Y158292D01*
G01*
X36075Y168710D02*
G75*
G01*
X36075Y169010D01*
G01*
X36075Y87510D02*
G75*
G01*
X36075Y87210D01*
G01*
X60205Y168120D02*
G75*
G01*
X60505Y168120D01*
G01*
X35435Y72230D02*
G75*
G01*
X35735Y72230D01*
G01*
X36075Y150340D02*
G75*
G01*
X36075Y150640D01*
G01*
X36075Y105880D02*
G75*
G01*
X36075Y105580D01*
G01*
X78265Y161770D02*
G75*
G01*
X78265Y162070D01*
G01*
X75725Y164940D02*
G75*
G01*
X76025Y164940D01*
G01*
X81115Y164310D02*
G75*
G01*
X81415Y164310D01*
G01*
X85885Y161770D02*
G75*
G01*
X85885Y162070D01*
G01*
X83345Y164940D02*
G75*
G01*
X83645Y164940D01*
G01*
X88735Y164310D02*
G75*
G01*
X89035Y164310D01*
G01*
X81435Y111280D02*
G75*
G01*
X81735Y111280D01*
G01*
X88735Y110330D02*
G75*
G01*
X88435Y110330D01*
G01*
X81435Y120810D02*
G75*
G01*
X81735Y120810D01*
G01*
X88735Y119860D02*
G75*
G01*
X88435Y119860D01*
G01*
X81435Y130330D02*
G75*
G01*
X81735Y130330D01*
G01*
X88735Y129380D02*
G75*
G01*
X88435Y129380D01*
G01*
X81435Y139860D02*
G75*
G01*
X81735Y139860D01*
G01*
X88735Y138910D02*
G75*
G01*
X88435Y138910D01*
G01*
X106515Y83660D02*
G75*
G01*
X106515Y83960D01*
G01*
X110965Y83660D02*
G75*
G01*
X110965Y83960D01*
G01*
X84935Y152240D02*
G75*
G01*
X84935Y151940D01*
G01*
X80485Y152240D02*
G75*
G01*
X80485Y151940D01*
G01*
X110015Y124620D02*
G75*
G01*
X109715Y124620D01*
G01*
X102715Y125570D02*
G75*
G01*
X103015Y125570D01*
G01*
X110015Y115090D02*
G75*
G01*
X109715Y115090D01*
G01*
X102715Y116040D02*
G75*
G01*
X103015Y116040D01*
G01*
X110015Y105570D02*
G75*
G01*
X109715Y105570D01*
G01*
X102715Y106520D02*
G75*
G01*
X103015Y106520D01*
G01*
X110015Y96040D02*
G75*
G01*
X109715Y96040D01*
G01*
X102715Y96990D02*
G75*
G01*
X103015Y96990D01*
G01*
X110965Y71590D02*
G75*
G01*
X110965Y71890D01*
G01*
X110965Y76680D02*
G75*
G01*
X110965Y76380D01*
G01*
X103345Y71590D02*
G75*
G01*
X103345Y71890D01*
G01*
X103345Y76680D02*
G75*
G01*
X103345Y76380D01*
G01*
X95725Y71590D02*
G75*
G01*
X95725Y71890D01*
G01*
X95725Y76680D02*
G75*
G01*
X95725Y76380D01*
G01*
X88105Y71590D02*
G75*
G01*
X88105Y71890D01*
G01*
X88105Y76680D02*
G75*
G01*
X88105Y76380D01*
G01*
X80485Y71590D02*
G75*
G01*
X80485Y71890D01*
G01*
X80485Y76680D02*
G75*
G01*
X80485Y76380D01*
G01*
X101125Y139540D02*
G75*
G01*
X101125Y139240D01*
G01*
X100175Y132560D02*
G75*
G01*
X100175Y132860D01*
G01*
X108745Y139540D02*
G75*
G01*
X108745Y139240D01*
G01*
X107795Y132560D02*
G75*
G01*
X107795Y132860D01*
G01*
X90325Y96360D02*
G75*
G01*
X90325Y96660D01*
G01*
X91275Y103340D02*
G75*
G01*
X91275Y103040D01*
G01*
X82705Y96360D02*
G75*
G01*
X82705Y96660D01*
G01*
X83655Y103340D02*
G75*
G01*
X83655Y103040D01*
G01*
X95725Y125570D02*
G75*
G01*
X95725Y125870D01*
G01*
X96745Y121760D02*
G75*
G01*
X96445Y121760D01*
G01*
X93185Y88100D02*
G75*
G01*
X92885Y88100D01*
G01*
X85375Y83660D02*
G75*
G01*
X85075Y83660D01*
G01*
X73495Y158590D02*
G75*
G01*
X73495Y158290D01*
G01*
X105255Y125570D02*
G75*
G01*
X105555Y125570D01*
G01*
X107795Y135090D02*
G75*
G01*
X107795Y135390D01*
G01*
X83655Y100810D02*
G75*
G01*
X83655Y100510D01*
G01*
X73505Y117950D02*
G75*
G01*
X73805Y117950D01*
G01*
X117955Y117950D02*
G75*
G01*
X118255Y117950D01*
G01*
X83025Y111280D02*
G75*
G01*
X83325Y111280D01*
G01*
X83025Y120810D02*
G75*
G01*
X83325Y120810D01*
G01*
X83025Y130330D02*
G75*
G01*
X83325Y130330D01*
G01*
X83025Y139860D02*
G75*
G01*
X83325Y139860D01*
G01*
X108425Y124620D02*
G75*
G01*
X108125Y124620D01*
G01*
X108425Y115090D02*
G75*
G01*
X108125Y115090D01*
G01*
X108425Y105570D02*
G75*
G01*
X108125Y105570D01*
G01*
X108425Y96040D02*
G75*
G01*
X108125Y96040D01*
G01*
X110965Y69690D02*
G75*
G01*
X110965Y69990D01*
G01*
X103345Y69690D02*
G75*
G01*
X103345Y69990D01*
G01*
X95725Y69690D02*
G75*
G01*
X95725Y69990D01*
G01*
X88105Y69690D02*
G75*
G01*
X88105Y69990D01*
G01*
X80485Y69690D02*
G75*
G01*
X80485Y69990D01*
G01*
X101125Y137950D02*
G75*
G01*
X101125Y137650D01*
G01*
X108745Y137950D02*
G75*
G01*
X108745Y137650D01*
G01*
X90325Y97950D02*
G75*
G01*
X90325Y98250D01*
G01*
X82705Y97950D02*
G75*
G01*
X82705Y98250D01*
G01*
X88105Y74130D02*
G75*
G01*
X88105Y73830D01*
G01*
X103345Y74130D02*
G75*
G01*
X103345Y73830D01*
G01*
X80485Y74130D02*
G75*
G01*
X80485Y73830D01*
G01*
X110965Y74130D02*
G75*
G01*
X110965Y73830D01*
G01*
X86195Y138910D02*
G75*
G01*
X85895Y138910D01*
G01*
X86195Y129380D02*
G75*
G01*
X85895Y129380D01*
G01*
X86195Y119860D02*
G75*
G01*
X85895Y119860D01*
G01*
X81755Y90650D02*
G75*
G01*
X81455Y90650D01*
G01*
X109695Y145250D02*
G75*
G01*
X109995Y145250D01*
G01*
X73495Y154460D02*
G75*
G01*
X73795Y154460D01*
G01*
X83025Y114460D02*
G75*
G01*
X83025Y114760D01*
G01*
X88735Y115410D02*
G75*
G01*
X88735Y115710D01*
G01*
X83025Y123980D02*
G75*
G01*
X83025Y124280D01*
G01*
X88735Y124940D02*
G75*
G01*
X88735Y125240D01*
G01*
X83025Y133510D02*
G75*
G01*
X83025Y133810D01*
G01*
X88735Y134460D02*
G75*
G01*
X88735Y134760D01*
G01*
X83025Y143030D02*
G75*
G01*
X83025Y143330D01*
G01*
X88735Y143990D02*
G75*
G01*
X88735Y144290D01*
G01*
X108425Y121440D02*
G75*
G01*
X108425Y121140D01*
G01*
X102715Y120490D02*
G75*
G01*
X102715Y120190D01*
G01*
X108425Y111920D02*
G75*
G01*
X108425Y111620D01*
G01*
X102715Y110960D02*
G75*
G01*
X102715Y110660D01*
G01*
X108425Y102390D02*
G75*
G01*
X108425Y102090D01*
G01*
X102715Y101440D02*
G75*
G01*
X102715Y101140D01*
G01*
X108425Y92870D02*
G75*
G01*
X108425Y92570D01*
G01*
X102715Y91910D02*
G75*
G01*
X102715Y91610D01*
G01*
X77315Y72230D02*
G75*
G01*
X77015Y72230D01*
G01*
X77315Y74130D02*
G75*
G01*
X77015Y74130D01*
G01*
X84935Y72230D02*
G75*
G01*
X84635Y72230D01*
G01*
X84935Y74130D02*
G75*
G01*
X84635Y74130D01*
G01*
X92545Y72230D02*
G75*
G01*
X92245Y72230D01*
G01*
X92545Y74130D02*
G75*
G01*
X92245Y74130D01*
G01*
X100175Y72230D02*
G75*
G01*
X99875Y72230D01*
G01*
X100175Y74130D02*
G75*
G01*
X99875Y74130D01*
G01*
X107795Y72230D02*
G75*
G01*
X107495Y72230D01*
G01*
X107795Y74130D02*
G75*
G01*
X107495Y74130D01*
G01*
X88105Y98900D02*
G75*
G01*
X87805Y98900D01*
G01*
X88105Y100810D02*
G75*
G01*
X87805Y100810D01*
G01*
X80485Y98900D02*
G75*
G01*
X80185Y98900D01*
G01*
X80485Y100810D02*
G75*
G01*
X80185Y100810D01*
G01*
X103345Y137000D02*
G75*
G01*
X103645Y137000D01*
G01*
X103345Y135090D02*
G75*
G01*
X103645Y135090D01*
G01*
X110965Y137000D02*
G75*
G01*
X111265Y137000D01*
G01*
X110965Y135090D02*
G75*
G01*
X111265Y135090D01*
G01*
X81755Y108420D02*
G75*
G01*
X81755Y108120D01*
G01*
X81755Y117950D02*
G75*
G01*
X81755Y117650D01*
G01*
X81755Y127480D02*
G75*
G01*
X81755Y127180D01*
G01*
X81755Y137000D02*
G75*
G01*
X81755Y136700D01*
G01*
X109695Y127480D02*
G75*
G01*
X109695Y127780D01*
G01*
X109695Y117950D02*
G75*
G01*
X109695Y118250D01*
G01*
X109695Y108420D02*
G75*
G01*
X109695Y108720D01*
G01*
X109695Y98900D02*
G75*
G01*
X109695Y99200D01*
G01*
X93185Y96360D02*
G75*
G01*
X93485Y96360D01*
G01*
X85565Y96360D02*
G75*
G01*
X85865Y96360D01*
G01*
X98265Y139540D02*
G75*
G01*
X97965Y139540D01*
G01*
X105885Y139540D02*
G75*
G01*
X105585Y139540D01*
G01*
X69055Y77940D02*
G75*
G01*
X68755Y77940D01*
G01*
X71595Y77940D02*
G75*
G01*
X71295Y77940D01*
G01*
X93815Y157320D02*
G75*
G01*
X94115Y157320D01*
G01*
X97635Y157320D02*
G75*
G01*
X97935Y157320D01*
G01*
X122395Y77940D02*
G75*
G01*
X122095Y77940D01*
G01*
X119855Y77940D02*
G75*
G01*
X119555Y77940D01*
G01*
X111915Y82070D02*
G75*
G01*
X111915Y81770D01*
G01*
X79535Y80170D02*
G75*
G01*
X79535Y80470D01*
G01*
X95725Y124620D02*
G75*
G01*
X95725Y124320D01*
G01*
X79215Y166850D02*
G75*
G01*
X79215Y166550D01*
G01*
X77315Y166850D02*
G75*
G01*
X77315Y166550D01*
G01*
X86835Y166850D02*
G75*
G01*
X86835Y166550D01*
G01*
X84935Y166850D02*
G75*
G01*
X84935Y166550D01*
G01*
X73495Y157320D02*
G75*
G01*
X73495Y157620D01*
G01*
X83595Y157830D02*
G75*
G01*
X83595Y158130D01*
G01*
X83975Y159350D02*
G75*
G01*
X83675Y159350D01*
G01*
X83595Y156810D02*
G75*
G01*
X83595Y157110D01*
G01*
X83975Y155290D02*
G75*
G01*
X84275Y155290D01*
G01*
X100175Y135090D02*
G75*
G01*
X100175Y135390D01*
G01*
X91275Y100810D02*
G75*
G01*
X91275Y100510D01*
G01*
X69375Y157320D02*
G75*
G01*
X69075Y157320D01*
G01*
X109685Y160320D02*
G75*
G01*
X109685Y160020D01*
G01*
X105255Y116040D02*
G75*
G01*
X105555Y116040D01*
G01*
X105255Y106520D02*
G75*
G01*
X105555Y106520D01*
G01*
X105255Y96990D02*
G75*
G01*
X105555Y96990D01*
G01*
X87785Y157320D02*
G75*
G01*
X88085Y157320D01*
G01*
X85885Y164310D02*
G75*
G01*
X85585Y164310D01*
G01*
X78265Y164310D02*
G75*
G01*
X77965Y164310D01*
G01*
X89695Y90650D02*
G75*
G01*
X89483Y90438D01*
G01*
X101755Y145250D02*
G75*
G01*
X101967Y145462D01*
G01*
X95725Y117950D02*
G75*
G01*
X95725Y117650D01*
G01*
X91275Y83660D02*
G75*
G01*
X91275Y83360D01*
G01*
X101435Y86830D02*
G75*
G01*
X101435Y86530D01*
G01*
X90015Y149070D02*
G75*
G01*
X90015Y149370D01*
G01*
X106515Y86830D02*
G75*
G01*
X106515Y86530D01*
G01*
X110965Y86830D02*
G75*
G01*
X110965Y86530D01*
G01*
X84935Y149070D02*
G75*
G01*
X84935Y149370D01*
G01*
X80485Y149070D02*
G75*
G01*
X80485Y149370D01*
G01*
X76675Y81120D02*
G75*
G01*
X76675Y81420D01*
G01*
X114775Y81120D02*
G75*
G01*
X114775Y80820D01*
G01*
X96995Y127470D02*
G75*
G01*
X96783Y127258D01*
G01*
X83655Y83660D02*
G75*
G01*
X83655Y83360D01*
G01*
X95725Y74130D02*
G75*
G01*
X95725Y73830D01*
G01*
X86195Y110330D02*
G75*
G01*
X85895Y110330D01*
G01*
X95725Y164250D02*
G75*
G01*
X95725Y164550D01*
G01*
X118835Y48185D02*
G75*
G01*
X118835Y47885D01*
G01*
X120745Y48185D02*
G75*
G01*
X120745Y48485D01*
G01*
X120745Y49075D02*
G75*
G01*
X120745Y48775D01*
G01*
X119225Y46575D02*
G75*
G01*
X119225Y46875D01*
G01*
X95725Y58305D02*
G75*
G01*
X95725Y58605D01*
G01*
X95725Y13845D02*
G75*
G01*
X95725Y13545D01*
G01*
X30565Y122400D02*
G75*
G03*
X30565Y122400I-200J0D01*
G01*
X28655Y124300D02*
G75*
G03*
X28655Y124300I-200J0D01*
G01*
X30565Y133820D02*
G75*
G03*
X30565Y133820I-200J0D01*
G01*
X28655Y131920D02*
G75*
G03*
X28655Y131920I-200J0D01*
G01*
X41985Y122400D02*
G75*
G03*
X41985Y122400I-200J0D01*
G01*
X43895Y124300D02*
G75*
G03*
X43895Y124300I-200J0D01*
G01*
X41985Y133820D02*
G75*
G03*
X41985Y133820I-200J0D01*
G01*
X43895Y131920D02*
G75*
G03*
X43895Y131920I-200J0D01*
G01*
X60405Y163670D02*
G75*
G03*
X60405Y163670I-200J0D01*
G01*
X19895Y169380D02*
G75*
G03*
X19895Y169380I-200J0D01*
G01*
X19895Y86840D02*
G75*
G03*
X19895Y86840I-200J0D01*
G01*
X52655Y169380D02*
G75*
G03*
X52655Y169380I-200J0D01*
G01*
X52655Y86840D02*
G75*
G03*
X52655Y86840I-200J0D01*
G01*
X62945Y163670D02*
G75*
G03*
X62945Y163670I-200J0D01*
G01*
X35485Y98110D02*
G75*
G03*
X35485Y98110I-200J0D01*
G01*
X33105Y158080D02*
G75*
G03*
X33105Y158080I-200J0D01*
G01*
X38175Y158080D02*
G75*
G03*
X38175Y158080I-200J0D01*
G01*
X36275Y168710D02*
G75*
G03*
X36275Y168710I-200J0D01*
G01*
X36275Y87510D02*
G75*
G03*
X36275Y87510I-200J0D01*
G01*
X60405Y168120D02*
G75*
G03*
X60405Y168120I-200J0D01*
G01*
X35635Y72230D02*
G75*
G03*
X35635Y72230I-200J0D01*
G01*
X36275Y150340D02*
G75*
G03*
X36275Y150340I-200J0D01*
G01*
X36275Y105880D02*
G75*
G03*
X36275Y105880I-200J0D01*
G01*
X78465Y161770D02*
G75*
G03*
X78465Y161770I-200J0D01*
G01*
X75925Y164940D02*
G75*
G03*
X75925Y164940I-200J0D01*
G01*
X81315Y164310D02*
G75*
G03*
X81315Y164310I-200J0D01*
G01*
X86085Y161770D02*
G75*
G03*
X86085Y161770I-200J0D01*
G01*
X83545Y164940D02*
G75*
G03*
X83545Y164940I-200J0D01*
G01*
X88935Y164310D02*
G75*
G03*
X88935Y164310I-200J0D01*
G01*
X81635Y111280D02*
G75*
G03*
X81635Y111280I-200J0D01*
G01*
X88935Y110330D02*
G75*
G03*
X88935Y110330I-200J0D01*
G01*
X81635Y120810D02*
G75*
G03*
X81635Y120810I-200J0D01*
G01*
X88935Y119860D02*
G75*
G03*
X88935Y119860I-200J0D01*
G01*
X81635Y130330D02*
G75*
G03*
X81635Y130330I-200J0D01*
G01*
X88935Y129380D02*
G75*
G03*
X88935Y129380I-200J0D01*
G01*
X81635Y139860D02*
G75*
G03*
X81635Y139860I-200J0D01*
G01*
X88935Y138910D02*
G75*
G03*
X88935Y138910I-200J0D01*
G01*
X106715Y83660D02*
G75*
G03*
X106715Y83660I-200J0D01*
G01*
X111165Y83660D02*
G75*
G03*
X111165Y83660I-200J0D01*
G01*
X85135Y152240D02*
G75*
G03*
X85135Y152240I-200J0D01*
G01*
X80685Y152240D02*
G75*
G03*
X80685Y152240I-200J0D01*
G01*
X110215Y124620D02*
G75*
G03*
X110215Y124620I-200J0D01*
G01*
X102915Y125570D02*
G75*
G03*
X102915Y125570I-200J0D01*
G01*
X110215Y115090D02*
G75*
G03*
X110215Y115090I-200J0D01*
G01*
X102915Y116040D02*
G75*
G03*
X102915Y116040I-200J0D01*
G01*
X110215Y105570D02*
G75*
G03*
X110215Y105570I-200J0D01*
G01*
X102915Y106520D02*
G75*
G03*
X102915Y106520I-200J0D01*
G01*
X110215Y96040D02*
G75*
G03*
X110215Y96040I-200J0D01*
G01*
X102915Y96990D02*
G75*
G03*
X102915Y96990I-200J0D01*
G01*
X111165Y71590D02*
G75*
G03*
X111165Y71590I-200J0D01*
G01*
X111165Y76680D02*
G75*
G03*
X111165Y76680I-200J0D01*
G01*
X103545Y71590D02*
G75*
G03*
X103545Y71590I-200J0D01*
G01*
X103545Y76680D02*
G75*
G03*
X103545Y76680I-200J0D01*
G01*
X95925Y71590D02*
G75*
G03*
X95925Y71590I-200J0D01*
G01*
X95925Y76680D02*
G75*
G03*
X95925Y76680I-200J0D01*
G01*
X88305Y71590D02*
G75*
G03*
X88305Y71590I-200J0D01*
G01*
X88305Y76680D02*
G75*
G03*
X88305Y76680I-200J0D01*
G01*
X80685Y71590D02*
G75*
G03*
X80685Y71590I-200J0D01*
G01*
X80685Y76680D02*
G75*
G03*
X80685Y76680I-200J0D01*
G01*
X101325Y139540D02*
G75*
G03*
X101325Y139540I-200J0D01*
G01*
X100375Y132560D02*
G75*
G03*
X100375Y132560I-200J0D01*
G01*
X108945Y139540D02*
G75*
G03*
X108945Y139540I-200J0D01*
G01*
X107995Y132560D02*
G75*
G03*
X107995Y132560I-200J0D01*
G01*
X90525Y96360D02*
G75*
G03*
X90525Y96360I-200J0D01*
G01*
X91475Y103340D02*
G75*
G03*
X91475Y103340I-200J0D01*
G01*
X82905Y96360D02*
G75*
G03*
X82905Y96360I-200J0D01*
G01*
X83855Y103340D02*
G75*
G03*
X83855Y103340I-200J0D01*
G01*
X95925Y125570D02*
G75*
G03*
X95925Y125570I-200J0D01*
G01*
X96945Y121760D02*
G75*
G03*
X96945Y121760I-200J0D01*
G01*
X93385Y88100D02*
G75*
G03*
X93385Y88100I-200J0D01*
G01*
X85575Y83660D02*
G75*
G03*
X85575Y83660I-200J0D01*
G01*
X73695Y158590D02*
G75*
G03*
X73695Y158590I-200J0D01*
G01*
X105455Y125570D02*
G75*
G03*
X105455Y125570I-200J0D01*
G01*
X107995Y135090D02*
G75*
G03*
X107995Y135090I-200J0D01*
G01*
X83855Y100810D02*
G75*
G03*
X83855Y100810I-200J0D01*
G01*
X73705Y117950D02*
G75*
G03*
X73705Y117950I-200J0D01*
G01*
X118155Y117950D02*
G75*
G03*
X118155Y117950I-200J0D01*
G01*
X83225Y111280D02*
G75*
G03*
X83225Y111280I-200J0D01*
G01*
X83225Y120810D02*
G75*
G03*
X83225Y120810I-200J0D01*
G01*
X83225Y130330D02*
G75*
G03*
X83225Y130330I-200J0D01*
G01*
X83225Y139860D02*
G75*
G03*
X83225Y139860I-200J0D01*
G01*
X108625Y124620D02*
G75*
G03*
X108625Y124620I-200J0D01*
G01*
X108625Y115090D02*
G75*
G03*
X108625Y115090I-200J0D01*
G01*
X108625Y105570D02*
G75*
G03*
X108625Y105570I-200J0D01*
G01*
X108625Y96040D02*
G75*
G03*
X108625Y96040I-200J0D01*
G01*
X111165Y69690D02*
G75*
G03*
X111165Y69690I-200J0D01*
G01*
X103545Y69690D02*
G75*
G03*
X103545Y69690I-200J0D01*
G01*
X95925Y69690D02*
G75*
G03*
X95925Y69690I-200J0D01*
G01*
X88305Y69690D02*
G75*
G03*
X88305Y69690I-200J0D01*
G01*
X80685Y69690D02*
G75*
G03*
X80685Y69690I-200J0D01*
G01*
X101325Y137950D02*
G75*
G03*
X101325Y137950I-200J0D01*
G01*
X108945Y137950D02*
G75*
G03*
X108945Y137950I-200J0D01*
G01*
X90525Y97950D02*
G75*
G03*
X90525Y97950I-200J0D01*
G01*
X82905Y97950D02*
G75*
G03*
X82905Y97950I-200J0D01*
G01*
X88305Y74130D02*
G75*
G03*
X88305Y74130I-200J0D01*
G01*
X103545Y74130D02*
G75*
G03*
X103545Y74130I-200J0D01*
G01*
X80685Y74130D02*
G75*
G03*
X80685Y74130I-200J0D01*
G01*
X111165Y74130D02*
G75*
G03*
X111165Y74130I-200J0D01*
G01*
X86395Y138910D02*
G75*
G03*
X86395Y138910I-200J0D01*
G01*
X86395Y129380D02*
G75*
G03*
X86395Y129380I-200J0D01*
G01*
X86395Y119860D02*
G75*
G03*
X86395Y119860I-200J0D01*
G01*
X81955Y90650D02*
G75*
G03*
X81955Y90650I-200J0D01*
G01*
X109895Y145250D02*
G75*
G03*
X109895Y145250I-200J0D01*
G01*
X73695Y154460D02*
G75*
G03*
X73695Y154460I-200J0D01*
G01*
X83225Y114460D02*
G75*
G03*
X83225Y114460I-200J0D01*
G01*
X88935Y115410D02*
G75*
G03*
X88935Y115410I-200J0D01*
G01*
X83225Y123980D02*
G75*
G03*
X83225Y123980I-200J0D01*
G01*
X88935Y124940D02*
G75*
G03*
X88935Y124940I-200J0D01*
G01*
X83225Y133510D02*
G75*
G03*
X83225Y133510I-200J0D01*
G01*
X88935Y134460D02*
G75*
G03*
X88935Y134460I-200J0D01*
G01*
X83225Y143030D02*
G75*
G03*
X83225Y143030I-200J0D01*
G01*
X88935Y143990D02*
G75*
G03*
X88935Y143990I-200J0D01*
G01*
X108625Y121440D02*
G75*
G03*
X108625Y121440I-200J0D01*
G01*
X102915Y120490D02*
G75*
G03*
X102915Y120490I-200J0D01*
G01*
X108625Y111920D02*
G75*
G03*
X108625Y111920I-200J0D01*
G01*
X102915Y110960D02*
G75*
G03*
X102915Y110960I-200J0D01*
G01*
X108625Y102390D02*
G75*
G03*
X108625Y102390I-200J0D01*
G01*
X102915Y101440D02*
G75*
G03*
X102915Y101440I-200J0D01*
G01*
X108625Y92870D02*
G75*
G03*
X108625Y92870I-200J0D01*
G01*
X102915Y91910D02*
G75*
G03*
X102915Y91910I-200J0D01*
G01*
X77515Y72230D02*
G75*
G03*
X77515Y72230I-200J0D01*
G01*
X77515Y74130D02*
G75*
G03*
X77515Y74130I-200J0D01*
G01*
X85135Y72230D02*
G75*
G03*
X85135Y72230I-200J0D01*
G01*
X85135Y74130D02*
G75*
G03*
X85135Y74130I-200J0D01*
G01*
X92745Y72230D02*
G75*
G03*
X92745Y72230I-200J0D01*
G01*
X92745Y74130D02*
G75*
G03*
X92745Y74130I-200J0D01*
G01*
X100375Y72230D02*
G75*
G03*
X100375Y72230I-200J0D01*
G01*
X100375Y74130D02*
G75*
G03*
X100375Y74130I-200J0D01*
G01*
X107995Y72230D02*
G75*
G03*
X107995Y72230I-200J0D01*
G01*
X107995Y74130D02*
G75*
G03*
X107995Y74130I-200J0D01*
G01*
X88305Y98900D02*
G75*
G03*
X88305Y98900I-200J0D01*
G01*
X88305Y100810D02*
G75*
G03*
X88305Y100810I-200J0D01*
G01*
X80685Y98900D02*
G75*
G03*
X80685Y98900I-200J0D01*
G01*
X80685Y100810D02*
G75*
G03*
X80685Y100810I-200J0D01*
G01*
X103545Y137000D02*
G75*
G03*
X103545Y137000I-200J0D01*
G01*
X103545Y135090D02*
G75*
G03*
X103545Y135090I-200J0D01*
G01*
X111165Y137000D02*
G75*
G03*
X111165Y137000I-200J0D01*
G01*
X111165Y135090D02*
G75*
G03*
X111165Y135090I-200J0D01*
G01*
X81955Y108420D02*
G75*
G03*
X81955Y108420I-200J0D01*
G01*
X81955Y117950D02*
G75*
G03*
X81955Y117950I-200J0D01*
G01*
X81955Y127480D02*
G75*
G03*
X81955Y127480I-200J0D01*
G01*
X81955Y137000D02*
G75*
G03*
X81955Y137000I-200J0D01*
G01*
X109895Y127480D02*
G75*
G03*
X109895Y127480I-200J0D01*
G01*
X109895Y117950D02*
G75*
G03*
X109895Y117950I-200J0D01*
G01*
X109895Y108420D02*
G75*
G03*
X109895Y108420I-200J0D01*
G01*
X109895Y98900D02*
G75*
G03*
X109895Y98900I-200J0D01*
G01*
X93385Y96360D02*
G75*
G03*
X93385Y96360I-200J0D01*
G01*
X85765Y96360D02*
G75*
G03*
X85765Y96360I-200J0D01*
G01*
X98465Y139540D02*
G75*
G03*
X98465Y139540I-200J0D01*
G01*
X106085Y139540D02*
G75*
G03*
X106085Y139540I-200J0D01*
G01*
X69255Y77940D02*
G75*
G03*
X69255Y77940I-200J0D01*
G01*
X71795Y77940D02*
G75*
G03*
X71795Y77940I-200J0D01*
G01*
X94015Y157320D02*
G75*
G03*
X94015Y157320I-200J0D01*
G01*
X97835Y157320D02*
G75*
G03*
X97835Y157320I-200J0D01*
G01*
X122595Y77940D02*
G75*
G03*
X122595Y77940I-200J0D01*
G01*
X120055Y77940D02*
G75*
G03*
X120055Y77940I-200J0D01*
G01*
X112115Y82070D02*
G75*
G03*
X112115Y82070I-200J0D01*
G01*
X79735Y80170D02*
G75*
G03*
X79735Y80170I-200J0D01*
G01*
X95925Y124620D02*
G75*
G03*
X95925Y124620I-200J0D01*
G01*
X79415Y166850D02*
G75*
G03*
X79415Y166850I-200J0D01*
G01*
X77515Y166850D02*
G75*
G03*
X77515Y166850I-200J0D01*
G01*
X87035Y166850D02*
G75*
G03*
X87035Y166850I-200J0D01*
G01*
X85135Y166850D02*
G75*
G03*
X85135Y166850I-200J0D01*
G01*
X73695Y157320D02*
G75*
G03*
X73695Y157320I-200J0D01*
G01*
X83795Y157830D02*
G75*
G03*
X83795Y157830I-200J0D01*
G01*
X84175Y159350D02*
G75*
G03*
X84175Y159350I-200J0D01*
G01*
X83795Y156810D02*
G75*
G03*
X83795Y156810I-200J0D01*
G01*
X84175Y155290D02*
G75*
G03*
X84175Y155290I-200J0D01*
G01*
X100375Y135090D02*
G75*
G03*
X100375Y135090I-200J0D01*
G01*
X91475Y100810D02*
G75*
G03*
X91475Y100810I-200J0D01*
G01*
X69575Y157320D02*
G75*
G03*
X69575Y157320I-200J0D01*
G01*
X109885Y160320D02*
G75*
G03*
X109885Y160320I-200J0D01*
G01*
X105455Y116040D02*
G75*
G03*
X105455Y116040I-200J0D01*
G01*
X105455Y106520D02*
G75*
G03*
X105455Y106520I-200J0D01*
G01*
X105455Y96990D02*
G75*
G03*
X105455Y96990I-200J0D01*
G01*
X87985Y157320D02*
G75*
G03*
X87985Y157320I-200J0D01*
G01*
X86085Y164310D02*
G75*
G03*
X86085Y164310I-200J0D01*
G01*
X78465Y164310D02*
G75*
G03*
X78465Y164310I-200J0D01*
G01*
X89895Y90650D02*
G75*
G03*
X89895Y90650I-200J0D01*
G01*
X101955Y145250D02*
G75*
G03*
X101955Y145250I-200J0D01*
G01*
X95925Y117950D02*
G75*
G03*
X95925Y117950I-200J0D01*
G01*
X91475Y83660D02*
G75*
G03*
X91475Y83660I-200J0D01*
G01*
X101635Y86830D02*
G75*
G03*
X101635Y86830I-200J0D01*
G01*
X90215Y149070D02*
G75*
G03*
X90215Y149070I-200J0D01*
G01*
X106715Y86830D02*
G75*
G03*
X106715Y86830I-200J0D01*
G01*
X111165Y86830D02*
G75*
G03*
X111165Y86830I-200J0D01*
G01*
X85135Y149070D02*
G75*
G03*
X85135Y149070I-200J0D01*
G01*
X80685Y149070D02*
G75*
G03*
X80685Y149070I-200J0D01*
G01*
X76875Y81120D02*
G75*
G03*
X76875Y81120I-200J0D01*
G01*
X114975Y81120D02*
G75*
G03*
X114975Y81120I-200J0D01*
G01*
X97195Y127470D02*
G75*
G03*
X97195Y127470I-200J0D01*
G01*
X83855Y83660D02*
G75*
G03*
X83855Y83660I-200J0D01*
G01*
X95925Y74130D02*
G75*
G03*
X95925Y74130I-200J0D01*
G01*
X86395Y110330D02*
G75*
G03*
X86395Y110330I-200J0D01*
G01*
X95925Y164250D02*
G75*
G03*
X95925Y164250I-200J0D01*
G01*
X119035Y48185D02*
G75*
G03*
X119035Y48185I-200J0D01*
G01*
X120945Y48185D02*
G75*
G03*
X120945Y48185I-200J0D01*
G01*
X120945Y49075D02*
G75*
G03*
X120945Y49075I-200J0D01*
G01*
X119425Y46575D02*
G75*
G03*
X119425Y46575I-200J0D01*
G01*
X95925Y58305D02*
G75*
G03*
X95925Y58305I-200J0D01*
G01*
X95925Y13845D02*
G75*
G03*
X95925Y13845I-200J0D01*
M02*
