%MOMM*%
%FSLAX33Y33*%
%IPPOS*%
%ADD10C,0*%
G75*
%LPD*%
D10*
G01*
X40575Y83010D02*
G75*
G01*
X40875Y83010D01*
G01*
X31475Y90510D02*
G75*
G01*
X31175Y90510D01*
G01*
X35575Y79910D02*
G75*
G01*
X35575Y79610D01*
G01*
X40575Y84010D02*
G75*
G01*
X40875Y84010D01*
G01*
X28475Y88260D02*
G75*
G01*
X28775Y88260D01*
G01*
X31575Y173210D02*
G75*
G01*
X31275Y173210D01*
G01*
X40675Y165710D02*
G75*
G01*
X40975Y165710D01*
G01*
X36575Y176310D02*
G75*
G01*
X36575Y176610D01*
G01*
X31575Y172210D02*
G75*
G01*
X31275Y172210D01*
G01*
X43675Y167960D02*
G75*
G01*
X43375Y167960D01*
G01*
X42075Y79910D02*
G75*
G01*
X42075Y79610D01*
G01*
X30075Y95110D02*
G75*
G01*
X30075Y95410D01*
G01*
X43675Y86510D02*
G75*
G01*
X43375Y86510D01*
G01*
X28475Y91510D02*
G75*
G01*
X28775Y91510D01*
G01*
X32075Y79910D02*
G75*
G01*
X32075Y79610D01*
G01*
X38575Y79910D02*
G75*
G01*
X38575Y79610D01*
G01*
X43675Y83510D02*
G75*
G01*
X43375Y83510D01*
G01*
X43675Y92510D02*
G75*
G01*
X43375Y92510D01*
G01*
X28475Y82510D02*
G75*
G01*
X28775Y82510D01*
G01*
X42075Y95110D02*
G75*
G01*
X42075Y95410D01*
G01*
X32575Y95110D02*
G75*
G01*
X32575Y95410D01*
G01*
X30075Y176310D02*
G75*
G01*
X30075Y176610D01*
G01*
X42075Y161110D02*
G75*
G01*
X42075Y160810D01*
G01*
X28475Y169710D02*
G75*
G01*
X28775Y169710D01*
G01*
X43675Y164710D02*
G75*
G01*
X43375Y164710D01*
G01*
X40075Y176310D02*
G75*
G01*
X40075Y176610D01*
G01*
X33575Y176310D02*
G75*
G01*
X33575Y176610D01*
G01*
X28475Y172710D02*
G75*
G01*
X28775Y172710D01*
G01*
X28475Y163710D02*
G75*
G01*
X28775Y163710D01*
G01*
X43675Y173710D02*
G75*
G01*
X43375Y173710D01*
G01*
X30075Y161110D02*
G75*
G01*
X30075Y160810D01*
G01*
X39575Y161110D02*
G75*
G01*
X39575Y160810D01*
G01*
X31475Y87110D02*
G75*
G01*
X31775Y87110D01*
G01*
X40675Y169110D02*
G75*
G01*
X40375Y169110D01*
G01*
X15435Y171290D02*
G75*
G01*
X15135Y171290D01*
G01*
X13845Y128110D02*
G75*
G01*
X13845Y127810D01*
G01*
X58295Y128110D02*
G75*
G01*
X58295Y127810D01*
G01*
X22105Y100810D02*
G75*
G01*
X22105Y100510D01*
G01*
X50045Y155410D02*
G75*
G01*
X50045Y155710D01*
G01*
X36075Y75400D02*
G75*
G01*
X35775Y75400D01*
G01*
X36075Y74130D02*
G75*
G01*
X35775Y74130D01*
G01*
X36075Y72860D02*
G75*
G01*
X36375Y72860D01*
G01*
X36075Y71590D02*
G75*
G01*
X36375Y71590D01*
G01*
X36075Y69060D02*
G75*
G01*
X35775Y69060D01*
G01*
X36075Y70320D02*
G75*
G01*
X35775Y70320D01*
G01*
X15435Y176690D02*
G75*
G01*
X15735Y176690D01*
G01*
X15435Y175730D02*
G75*
G01*
X15735Y175730D01*
G01*
X31325Y95110D02*
G75*
G01*
X31325Y95410D01*
G01*
X40825Y161110D02*
G75*
G01*
X40825Y160810D01*
G01*
X15435Y173830D02*
G75*
G01*
X15135Y173830D01*
G01*
X36075Y87510D02*
G75*
G01*
X36375Y87510D01*
G01*
X36075Y168710D02*
G75*
G01*
X35775Y168710D01*
G01*
X76355Y164310D02*
G75*
G01*
X76355Y164610D01*
G01*
X80165Y164310D02*
G75*
G01*
X80165Y164010D01*
G01*
X83975Y164310D02*
G75*
G01*
X83975Y164610D01*
G01*
X87785Y164310D02*
G75*
G01*
X87785Y164010D01*
G01*
X88735Y88740D02*
G75*
G01*
X88435Y88740D01*
G01*
X102715Y147160D02*
G75*
G01*
X103015Y147160D01*
G01*
X107475Y88100D02*
G75*
G01*
X107775Y88100D01*
G01*
X107475Y85570D02*
G75*
G01*
X107775Y85570D01*
G01*
X111915Y88100D02*
G75*
G01*
X112215Y88100D01*
G01*
X111915Y85570D02*
G75*
G01*
X112215Y85570D01*
G01*
X83975Y147800D02*
G75*
G01*
X83675Y147800D01*
G01*
X83975Y150330D02*
G75*
G01*
X83675Y150330D01*
G01*
X79535Y147800D02*
G75*
G01*
X79235Y147800D01*
G01*
X79535Y150330D02*
G75*
G01*
X79235Y150330D01*
G01*
X80675Y83660D02*
G75*
G01*
X80975Y83660D01*
G01*
X80675Y84610D02*
G75*
G01*
X80975Y84610D01*
G01*
X86195Y85080D02*
G75*
G01*
X86195Y84780D01*
G01*
X110775Y152240D02*
G75*
G01*
X110475Y152240D01*
G01*
X110775Y151290D02*
G75*
G01*
X110475Y151290D01*
G01*
X105255Y150840D02*
G75*
G01*
X105255Y151140D01*
G01*
X99535Y164620D02*
G75*
G01*
X99235Y164620D01*
G01*
X102075Y164620D02*
G75*
G01*
X102375Y164620D01*
G01*
X103985Y88740D02*
G75*
G01*
X103985Y88440D01*
G01*
X87465Y148430D02*
G75*
G01*
X87465Y148730D01*
G01*
X91275Y153190D02*
G75*
G01*
X90975Y153190D01*
G01*
X113185Y162400D02*
G75*
G01*
X113185Y162100D01*
G01*
X110985Y162400D02*
G75*
G01*
X110985Y162100D01*
G01*
X86195Y157320D02*
G75*
G01*
X86195Y157620D01*
G01*
X83655Y84610D02*
G75*
G01*
X83955Y84610D01*
G01*
X107795Y151290D02*
G75*
G01*
X107495Y151290D01*
G01*
X105885Y164940D02*
G75*
G01*
X105885Y165240D01*
G01*
X73505Y117950D02*
G75*
G01*
X73505Y118250D01*
G01*
X117955Y117950D02*
G75*
G01*
X117955Y118250D01*
G01*
X103985Y161770D02*
G75*
G01*
X103985Y161470D01*
G01*
X73495Y146530D02*
G75*
G01*
X73495Y146830D01*
G01*
X73495Y89370D02*
G75*
G01*
X73495Y89070D01*
G01*
X117955Y146530D02*
G75*
G01*
X117955Y146830D01*
G01*
X117955Y89370D02*
G75*
G01*
X117955Y89070D01*
G01*
X114775Y79850D02*
G75*
G01*
X114475Y79850D01*
G01*
X114775Y82390D02*
G75*
G01*
X114475Y82390D01*
G01*
X76675Y82390D02*
G75*
G01*
X76975Y82390D01*
G01*
X76675Y79850D02*
G75*
G01*
X76975Y79850D01*
G01*
X84935Y115090D02*
G75*
G01*
X84635Y115090D01*
G01*
X84935Y134140D02*
G75*
G01*
X84635Y134140D01*
G01*
X106515Y120810D02*
G75*
G01*
X106815Y120810D01*
G01*
X106515Y101760D02*
G75*
G01*
X106815Y101760D01*
G01*
X86835Y100170D02*
G75*
G01*
X86835Y100470D01*
G01*
X104615Y135730D02*
G75*
G01*
X104615Y135430D01*
G01*
X72995Y76480D02*
G75*
G01*
X72695Y76480D01*
G01*
X96675Y152240D02*
G75*
G01*
X96675Y151940D01*
G01*
X118395Y77940D02*
G75*
G01*
X118395Y77640D01*
G01*
X91595Y147160D02*
G75*
G01*
X91595Y147460D01*
G01*
X92545Y147160D02*
G75*
G01*
X92545Y146860D01*
G01*
X99855Y88740D02*
G75*
G01*
X99855Y88440D01*
G01*
X98905Y88740D02*
G75*
G01*
X98905Y89040D01*
G01*
X94775Y119860D02*
G75*
G01*
X94475Y119860D01*
G01*
X96675Y119860D02*
G75*
G01*
X96375Y119860D01*
G01*
X92235Y85570D02*
G75*
G01*
X92535Y85570D01*
G01*
X90325Y85570D02*
G75*
G01*
X90625Y85570D01*
G01*
X98265Y126840D02*
G75*
G01*
X98265Y127140D01*
G01*
X97315Y126840D02*
G75*
G01*
X97315Y127140D01*
G01*
X94775Y126840D02*
G75*
G01*
X94775Y127140D01*
G01*
X95725Y126840D02*
G75*
G01*
X95725Y127140D01*
G01*
X90965Y90650D02*
G75*
G01*
X90665Y90650D01*
G01*
X90965Y91600D02*
G75*
G01*
X90665Y91600D01*
G01*
X88735Y89690D02*
G75*
G01*
X89035Y89690D01*
G01*
X88735Y90650D02*
G75*
G01*
X89035Y90650D01*
G01*
X88735Y91600D02*
G75*
G01*
X89035Y91600D01*
G01*
X100485Y145250D02*
G75*
G01*
X100785Y145250D01*
G01*
X100485Y144300D02*
G75*
G01*
X100785Y144300D01*
G01*
X102715Y146210D02*
G75*
G01*
X102415Y146210D01*
G01*
X102715Y145250D02*
G75*
G01*
X102415Y145250D01*
G01*
X102715Y144300D02*
G75*
G01*
X102415Y144300D01*
G01*
X95725Y124940D02*
G75*
G01*
X95725Y124640D01*
G01*
X94775Y124940D02*
G75*
G01*
X94775Y124640D01*
G01*
X118905Y156050D02*
G75*
G01*
X118605Y156050D01*
G01*
X83975Y155420D02*
G75*
G01*
X83675Y155420D01*
G01*
X86835Y155420D02*
G75*
G01*
X86535Y155420D01*
G01*
X83975Y154460D02*
G75*
G01*
X83675Y154460D01*
G01*
X83975Y160180D02*
G75*
G01*
X83675Y160180D01*
G01*
X89055Y153190D02*
G75*
G01*
X88755Y153190D01*
G01*
X91915Y158590D02*
G75*
G01*
X91915Y158290D01*
G01*
X90645Y158590D02*
G75*
G01*
X90645Y158290D01*
G01*
X109885Y162400D02*
G75*
G01*
X109885Y162100D01*
G01*
X114275Y162400D02*
G75*
G01*
X114275Y162100D01*
G01*
X115385Y162400D02*
G75*
G01*
X115385Y162100D01*
G01*
X107685Y162400D02*
G75*
G01*
X107685Y162100D01*
G01*
X87465Y157320D02*
G75*
G01*
X87465Y157620D01*
G01*
X70325Y77940D02*
G75*
G01*
X70325Y77640D01*
G01*
X121125Y77940D02*
G75*
G01*
X121125Y78240D01*
G01*
X87785Y96990D02*
G75*
G01*
X87785Y97290D01*
G01*
X109695Y102710D02*
G75*
G01*
X109995Y102710D01*
G01*
X81755Y114140D02*
G75*
G01*
X81455Y114140D01*
G01*
X109695Y121760D02*
G75*
G01*
X109995Y121760D01*
G01*
X81755Y133190D02*
G75*
G01*
X81455Y133190D01*
G01*
X103665Y138910D02*
G75*
G01*
X103665Y138610D01*
G01*
X95725Y155420D02*
G75*
G01*
X95725Y155120D01*
G01*
X100635Y161770D02*
G75*
G01*
X100635Y162070D01*
G01*
X94455Y138270D02*
G75*
G01*
X94155Y138270D01*
G01*
X117955Y158590D02*
G75*
G01*
X117655Y158590D01*
G01*
X91285Y155730D02*
G75*
G01*
X91073Y155518D01*
G01*
X83975Y157320D02*
G75*
G01*
X83675Y157320D01*
G01*
X76675Y10675D02*
G75*
G01*
X76375Y10675D01*
G01*
X116685Y61475D02*
G75*
G01*
X116985Y61475D01*
G01*
X76675Y61475D02*
G75*
G01*
X76975Y61475D01*
G01*
X114775Y61475D02*
G75*
G01*
X115075Y61475D01*
G01*
X74765Y10675D02*
G75*
G01*
X74465Y10675D01*
G01*
X114775Y10675D02*
G75*
G01*
X114475Y10675D01*
G01*
X74765Y61475D02*
G75*
G01*
X75065Y61475D01*
G01*
X116685Y10675D02*
G75*
G01*
X116385Y10675D01*
G01*
X117955Y36075D02*
G75*
G01*
X118255Y36075D01*
G01*
X73495Y36075D02*
G75*
G01*
X73195Y36075D01*
G01*
X61155Y56395D02*
G75*
G01*
X61155Y56095D01*
G01*
X20795Y19945D02*
G75*
G01*
X21095Y19945D01*
G01*
X21935Y26805D02*
G75*
G01*
X21635Y26805D01*
G01*
X53055Y44955D02*
G75*
G01*
X53055Y45255D01*
G01*
X51915Y45345D02*
G75*
G01*
X52215Y45345D01*
G01*
X21175Y26805D02*
G75*
G01*
X20875Y26805D01*
G01*
X23465Y26805D02*
G75*
G01*
X23165Y26805D01*
G01*
X52925Y19945D02*
G75*
G01*
X53225Y19945D01*
G01*
X52925Y26805D02*
G75*
G01*
X52625Y26805D01*
G01*
X17745Y45345D02*
G75*
G01*
X17445Y45345D01*
G01*
X16865Y19945D02*
G75*
G01*
X16565Y19945D01*
G01*
X51785Y19945D02*
G75*
G01*
X51485Y19945D01*
G01*
X22705Y26805D02*
G75*
G01*
X23005Y26805D01*
G01*
X16865Y26805D02*
G75*
G01*
X17165Y26805D01*
G01*
X19275Y45345D02*
G75*
G01*
X18975Y45345D01*
G01*
X19395Y52205D02*
G75*
G01*
X19695Y52205D01*
G01*
X19275Y19945D02*
G75*
G01*
X19575Y19945D01*
G01*
X18515Y19945D02*
G75*
G01*
X18815Y19945D01*
G01*
X21935Y52205D02*
G75*
G01*
X21635Y52205D01*
G01*
X28285Y52205D02*
G75*
G01*
X27985Y52205D01*
G01*
X34895Y52205D02*
G75*
G01*
X34595Y52205D01*
G01*
X43535Y52205D02*
G75*
G01*
X43235Y52205D01*
G01*
X48615Y52205D02*
G75*
G01*
X48315Y52205D01*
G01*
X20035Y19945D02*
G75*
G01*
X20335Y19945D01*
G01*
X28285Y19945D02*
G75*
G01*
X28585Y19945D01*
G01*
X34635Y19945D02*
G75*
G01*
X34935Y19945D01*
G01*
X35905Y19945D02*
G75*
G01*
X36205Y19945D01*
G01*
X43535Y19945D02*
G75*
G01*
X43835Y19945D01*
G01*
X48615Y19945D02*
G75*
G01*
X48915Y19945D01*
G01*
X49885Y19945D02*
G75*
G01*
X50185Y19945D01*
G01*
X35655Y52205D02*
G75*
G01*
X35355Y52205D01*
G01*
X16985Y45345D02*
G75*
G01*
X17285Y45345D01*
G01*
X16985Y52205D02*
G75*
G01*
X16685Y52205D01*
G01*
X51155Y52205D02*
G75*
G01*
X50855Y52205D01*
G01*
X51155Y26805D02*
G75*
G01*
X50855Y26805D01*
G01*
X53695Y26805D02*
G75*
G01*
X53395Y26805D01*
G01*
X53695Y19945D02*
G75*
G01*
X53995Y19945D01*
G01*
X21555Y45345D02*
G75*
G01*
X21855Y45345D01*
G01*
X48105Y45345D02*
G75*
G01*
X48405Y45345D01*
G01*
X48865Y45345D02*
G75*
G01*
X49165Y45345D01*
G01*
X18895Y26805D02*
G75*
G01*
X18595Y26805D01*
G01*
X48615Y26805D02*
G75*
G01*
X48315Y26805D01*
G01*
X49375Y26805D02*
G75*
G01*
X49075Y26805D01*
G01*
X50385Y26805D02*
G75*
G01*
X50085Y26805D01*
G01*
X18515Y45345D02*
G75*
G01*
X18815Y45345D01*
G01*
X20165Y52205D02*
G75*
G01*
X19865Y52205D01*
G01*
X60845Y51315D02*
G75*
G01*
X60545Y51315D01*
G01*
X18635Y52205D02*
G75*
G01*
X18335Y52205D01*
G01*
X16225Y45345D02*
G75*
G01*
X16525Y45345D01*
G01*
X17625Y26805D02*
G75*
G01*
X17325Y26805D01*
G01*
X20415Y26805D02*
G75*
G01*
X20115Y26805D01*
G01*
X51915Y26805D02*
G75*
G01*
X51615Y26805D01*
G01*
X15115Y22105D02*
G75*
G01*
X15115Y22405D01*
G01*
X15115Y24645D02*
G75*
G01*
X15115Y24945D01*
G01*
X56525Y45345D02*
G75*
G01*
X56225Y45345D01*
G01*
X61605Y48775D02*
G75*
G01*
X61305Y48775D01*
G01*
X61605Y51315D02*
G75*
G01*
X61305Y51315D01*
G01*
X57285Y45345D02*
G75*
G01*
X56985Y45345D01*
G01*
X19655Y26805D02*
G75*
G01*
X19355Y26805D01*
G01*
X12965Y29085D02*
G75*
G01*
X12965Y28785D01*
G01*
X16225Y52205D02*
G75*
G01*
X15925Y52205D01*
G01*
X50385Y52205D02*
G75*
G01*
X50085Y52205D01*
G01*
X47845Y26805D02*
G75*
G01*
X47545Y26805D01*
G01*
X49625Y45345D02*
G75*
G01*
X49925Y45345D01*
G01*
X12965Y25915D02*
G75*
G01*
X12965Y26215D01*
G01*
X12965Y20195D02*
G75*
G01*
X12965Y20495D01*
G01*
X21175Y52205D02*
G75*
G01*
X20875Y52205D01*
G01*
X49375Y52205D02*
G75*
G01*
X49075Y52205D01*
G01*
X12965Y30615D02*
G75*
G01*
X12965Y30315D01*
G01*
X52425Y52455D02*
G75*
G01*
X52125Y52455D01*
G01*
X54965Y23375D02*
G75*
G01*
X54665Y23375D01*
G01*
X20795Y45345D02*
G75*
G01*
X21095Y45345D01*
G01*
X53725Y42045D02*
G75*
G01*
X54025Y42045D01*
G01*
X12965Y27435D02*
G75*
G01*
X12965Y27735D01*
G01*
X12965Y18675D02*
G75*
G01*
X12965Y18975D01*
G01*
X60455Y42045D02*
G75*
G01*
X60755Y42045D01*
G01*
X50645Y19945D02*
G75*
G01*
X50945Y19945D01*
G01*
X20035Y45345D02*
G75*
G01*
X20335Y45345D01*
G01*
X61225Y52585D02*
G75*
G01*
X61225Y52285D01*
G01*
X59765Y56775D02*
G75*
G01*
X59465Y56775D01*
G01*
X61155Y57155D02*
G75*
G01*
X61155Y56855D01*
G01*
X53055Y45735D02*
G75*
G01*
X53055Y46035D01*
G01*
X15505Y23375D02*
G75*
G01*
X15205Y23375D01*
G01*
X22825Y45725D02*
G75*
G01*
X22825Y45425D01*
G01*
X57535Y49665D02*
G75*
G01*
X57535Y49965D01*
G01*
X59955Y45855D02*
G75*
G01*
X59955Y46155D01*
G01*
X57535Y42045D02*
G75*
G01*
X57535Y42345D01*
G01*
X11625Y15755D02*
G75*
G01*
X11925Y15755D01*
G01*
X60265Y54745D02*
G75*
G01*
X60265Y55045D01*
G01*
X36075Y58305D02*
G75*
G01*
X36075Y58005D01*
G01*
X36075Y13845D02*
G75*
G01*
X36075Y14145D01*
G01*
X40775Y83010D02*
G75*
G03*
X40775Y83010I-200J0D01*
G01*
X31675Y90510D02*
G75*
G03*
X31675Y90510I-200J0D01*
G01*
X35775Y79910D02*
G75*
G03*
X35775Y79910I-200J0D01*
G01*
X40775Y84010D02*
G75*
G03*
X40775Y84010I-200J0D01*
G01*
X28675Y88260D02*
G75*
G03*
X28675Y88260I-200J0D01*
G01*
X31775Y173210D02*
G75*
G03*
X31775Y173210I-200J0D01*
G01*
X40875Y165710D02*
G75*
G03*
X40875Y165710I-200J0D01*
G01*
X36775Y176310D02*
G75*
G03*
X36775Y176310I-200J0D01*
G01*
X31775Y172210D02*
G75*
G03*
X31775Y172210I-200J0D01*
G01*
X43875Y167960D02*
G75*
G03*
X43875Y167960I-200J0D01*
G01*
X42275Y79910D02*
G75*
G03*
X42275Y79910I-200J0D01*
G01*
X30275Y95110D02*
G75*
G03*
X30275Y95110I-200J0D01*
G01*
X43875Y86510D02*
G75*
G03*
X43875Y86510I-200J0D01*
G01*
X28675Y91510D02*
G75*
G03*
X28675Y91510I-200J0D01*
G01*
X32275Y79910D02*
G75*
G03*
X32275Y79910I-200J0D01*
G01*
X38775Y79910D02*
G75*
G03*
X38775Y79910I-200J0D01*
G01*
X43875Y83510D02*
G75*
G03*
X43875Y83510I-200J0D01*
G01*
X43875Y92510D02*
G75*
G03*
X43875Y92510I-200J0D01*
G01*
X28675Y82510D02*
G75*
G03*
X28675Y82510I-200J0D01*
G01*
X42275Y95110D02*
G75*
G03*
X42275Y95110I-200J0D01*
G01*
X32775Y95110D02*
G75*
G03*
X32775Y95110I-200J0D01*
G01*
X30275Y176310D02*
G75*
G03*
X30275Y176310I-200J0D01*
G01*
X42275Y161110D02*
G75*
G03*
X42275Y161110I-200J0D01*
G01*
X28675Y169710D02*
G75*
G03*
X28675Y169710I-200J0D01*
G01*
X43875Y164710D02*
G75*
G03*
X43875Y164710I-200J0D01*
G01*
X40275Y176310D02*
G75*
G03*
X40275Y176310I-200J0D01*
G01*
X33775Y176310D02*
G75*
G03*
X33775Y176310I-200J0D01*
G01*
X28675Y172710D02*
G75*
G03*
X28675Y172710I-200J0D01*
G01*
X28675Y163710D02*
G75*
G03*
X28675Y163710I-200J0D01*
G01*
X43875Y173710D02*
G75*
G03*
X43875Y173710I-200J0D01*
G01*
X30275Y161110D02*
G75*
G03*
X30275Y161110I-200J0D01*
G01*
X39775Y161110D02*
G75*
G03*
X39775Y161110I-200J0D01*
G01*
X31675Y87110D02*
G75*
G03*
X31675Y87110I-200J0D01*
G01*
X40875Y169110D02*
G75*
G03*
X40875Y169110I-200J0D01*
G01*
X15635Y171290D02*
G75*
G03*
X15635Y171290I-200J0D01*
G01*
X14045Y128110D02*
G75*
G03*
X14045Y128110I-200J0D01*
G01*
X58495Y128110D02*
G75*
G03*
X58495Y128110I-200J0D01*
G01*
X22305Y100810D02*
G75*
G03*
X22305Y100810I-200J0D01*
G01*
X50245Y155410D02*
G75*
G03*
X50245Y155410I-200J0D01*
G01*
X36275Y75400D02*
G75*
G03*
X36275Y75400I-200J0D01*
G01*
X36275Y74130D02*
G75*
G03*
X36275Y74130I-200J0D01*
G01*
X36275Y72860D02*
G75*
G03*
X36275Y72860I-200J0D01*
G01*
X36275Y71590D02*
G75*
G03*
X36275Y71590I-200J0D01*
G01*
X36275Y69060D02*
G75*
G03*
X36275Y69060I-200J0D01*
G01*
X36275Y70320D02*
G75*
G03*
X36275Y70320I-200J0D01*
G01*
X15635Y176690D02*
G75*
G03*
X15635Y176690I-200J0D01*
G01*
X15635Y175730D02*
G75*
G03*
X15635Y175730I-200J0D01*
G01*
X31525Y95110D02*
G75*
G03*
X31525Y95110I-200J0D01*
G01*
X41025Y161110D02*
G75*
G03*
X41025Y161110I-200J0D01*
G01*
X15635Y173830D02*
G75*
G03*
X15635Y173830I-200J0D01*
G01*
X36275Y87510D02*
G75*
G03*
X36275Y87510I-200J0D01*
G01*
X36275Y168710D02*
G75*
G03*
X36275Y168710I-200J0D01*
G01*
X76555Y164310D02*
G75*
G03*
X76555Y164310I-200J0D01*
G01*
X80365Y164310D02*
G75*
G03*
X80365Y164310I-200J0D01*
G01*
X84175Y164310D02*
G75*
G03*
X84175Y164310I-200J0D01*
G01*
X87985Y164310D02*
G75*
G03*
X87985Y164310I-200J0D01*
G01*
X88935Y88740D02*
G75*
G03*
X88935Y88740I-200J0D01*
G01*
X102915Y147160D02*
G75*
G03*
X102915Y147160I-200J0D01*
G01*
X107675Y88100D02*
G75*
G03*
X107675Y88100I-200J0D01*
G01*
X107675Y85570D02*
G75*
G03*
X107675Y85570I-200J0D01*
G01*
X112115Y88100D02*
G75*
G03*
X112115Y88100I-200J0D01*
G01*
X112115Y85570D02*
G75*
G03*
X112115Y85570I-200J0D01*
G01*
X84175Y147800D02*
G75*
G03*
X84175Y147800I-200J0D01*
G01*
X84175Y150330D02*
G75*
G03*
X84175Y150330I-200J0D01*
G01*
X79735Y147800D02*
G75*
G03*
X79735Y147800I-200J0D01*
G01*
X79735Y150330D02*
G75*
G03*
X79735Y150330I-200J0D01*
G01*
X80875Y83660D02*
G75*
G03*
X80875Y83660I-200J0D01*
G01*
X80875Y84610D02*
G75*
G03*
X80875Y84610I-200J0D01*
G01*
X86395Y85080D02*
G75*
G03*
X86395Y85080I-200J0D01*
G01*
X110975Y152240D02*
G75*
G03*
X110975Y152240I-200J0D01*
G01*
X110975Y151290D02*
G75*
G03*
X110975Y151290I-200J0D01*
G01*
X105455Y150840D02*
G75*
G03*
X105455Y150840I-200J0D01*
G01*
X99735Y164620D02*
G75*
G03*
X99735Y164620I-200J0D01*
G01*
X102275Y164620D02*
G75*
G03*
X102275Y164620I-200J0D01*
G01*
X104185Y88740D02*
G75*
G03*
X104185Y88740I-200J0D01*
G01*
X87665Y148430D02*
G75*
G03*
X87665Y148430I-200J0D01*
G01*
X91475Y153190D02*
G75*
G03*
X91475Y153190I-200J0D01*
G01*
X113385Y162400D02*
G75*
G03*
X113385Y162400I-200J0D01*
G01*
X111185Y162400D02*
G75*
G03*
X111185Y162400I-200J0D01*
G01*
X86395Y157320D02*
G75*
G03*
X86395Y157320I-200J0D01*
G01*
X83855Y84610D02*
G75*
G03*
X83855Y84610I-200J0D01*
G01*
X107995Y151290D02*
G75*
G03*
X107995Y151290I-200J0D01*
G01*
X106085Y164940D02*
G75*
G03*
X106085Y164940I-200J0D01*
G01*
X73705Y117950D02*
G75*
G03*
X73705Y117950I-200J0D01*
G01*
X118155Y117950D02*
G75*
G03*
X118155Y117950I-200J0D01*
G01*
X104185Y161770D02*
G75*
G03*
X104185Y161770I-200J0D01*
G01*
X73695Y146530D02*
G75*
G03*
X73695Y146530I-200J0D01*
G01*
X73695Y89370D02*
G75*
G03*
X73695Y89370I-200J0D01*
G01*
X118155Y146530D02*
G75*
G03*
X118155Y146530I-200J0D01*
G01*
X118155Y89370D02*
G75*
G03*
X118155Y89370I-200J0D01*
G01*
X114975Y79850D02*
G75*
G03*
X114975Y79850I-200J0D01*
G01*
X114975Y82390D02*
G75*
G03*
X114975Y82390I-200J0D01*
G01*
X76875Y82390D02*
G75*
G03*
X76875Y82390I-200J0D01*
G01*
X76875Y79850D02*
G75*
G03*
X76875Y79850I-200J0D01*
G01*
X85135Y115090D02*
G75*
G03*
X85135Y115090I-200J0D01*
G01*
X85135Y134140D02*
G75*
G03*
X85135Y134140I-200J0D01*
G01*
X106715Y120810D02*
G75*
G03*
X106715Y120810I-200J0D01*
G01*
X106715Y101760D02*
G75*
G03*
X106715Y101760I-200J0D01*
G01*
X87035Y100170D02*
G75*
G03*
X87035Y100170I-200J0D01*
G01*
X104815Y135730D02*
G75*
G03*
X104815Y135730I-200J0D01*
G01*
X73195Y76480D02*
G75*
G03*
X73195Y76480I-200J0D01*
G01*
X96875Y152240D02*
G75*
G03*
X96875Y152240I-200J0D01*
G01*
X118595Y77940D02*
G75*
G03*
X118595Y77940I-200J0D01*
G01*
X91795Y147160D02*
G75*
G03*
X91795Y147160I-200J0D01*
G01*
X92745Y147160D02*
G75*
G03*
X92745Y147160I-200J0D01*
G01*
X100055Y88740D02*
G75*
G03*
X100055Y88740I-200J0D01*
G01*
X99105Y88740D02*
G75*
G03*
X99105Y88740I-200J0D01*
G01*
X94975Y119860D02*
G75*
G03*
X94975Y119860I-200J0D01*
G01*
X96875Y119860D02*
G75*
G03*
X96875Y119860I-200J0D01*
G01*
X92435Y85570D02*
G75*
G03*
X92435Y85570I-200J0D01*
G01*
X90525Y85570D02*
G75*
G03*
X90525Y85570I-200J0D01*
G01*
X98465Y126840D02*
G75*
G03*
X98465Y126840I-200J0D01*
G01*
X97515Y126840D02*
G75*
G03*
X97515Y126840I-200J0D01*
G01*
X94975Y126840D02*
G75*
G03*
X94975Y126840I-200J0D01*
G01*
X95925Y126840D02*
G75*
G03*
X95925Y126840I-200J0D01*
G01*
X91165Y90650D02*
G75*
G03*
X91165Y90650I-200J0D01*
G01*
X91165Y91600D02*
G75*
G03*
X91165Y91600I-200J0D01*
G01*
X88935Y89690D02*
G75*
G03*
X88935Y89690I-200J0D01*
G01*
X88935Y90650D02*
G75*
G03*
X88935Y90650I-200J0D01*
G01*
X88935Y91600D02*
G75*
G03*
X88935Y91600I-200J0D01*
G01*
X100685Y145250D02*
G75*
G03*
X100685Y145250I-200J0D01*
G01*
X100685Y144300D02*
G75*
G03*
X100685Y144300I-200J0D01*
G01*
X102915Y146210D02*
G75*
G03*
X102915Y146210I-200J0D01*
G01*
X102915Y145250D02*
G75*
G03*
X102915Y145250I-200J0D01*
G01*
X102915Y144300D02*
G75*
G03*
X102915Y144300I-200J0D01*
G01*
X95925Y124940D02*
G75*
G03*
X95925Y124940I-200J0D01*
G01*
X94975Y124940D02*
G75*
G03*
X94975Y124940I-200J0D01*
G01*
X119105Y156050D02*
G75*
G03*
X119105Y156050I-200J0D01*
G01*
X84175Y155420D02*
G75*
G03*
X84175Y155420I-200J0D01*
G01*
X87035Y155420D02*
G75*
G03*
X87035Y155420I-200J0D01*
G01*
X84175Y154460D02*
G75*
G03*
X84175Y154460I-200J0D01*
G01*
X84175Y160180D02*
G75*
G03*
X84175Y160180I-200J0D01*
G01*
X89255Y153190D02*
G75*
G03*
X89255Y153190I-200J0D01*
G01*
X92115Y158590D02*
G75*
G03*
X92115Y158590I-200J0D01*
G01*
X90845Y158590D02*
G75*
G03*
X90845Y158590I-200J0D01*
G01*
X110085Y162400D02*
G75*
G03*
X110085Y162400I-200J0D01*
G01*
X114475Y162400D02*
G75*
G03*
X114475Y162400I-200J0D01*
G01*
X115585Y162400D02*
G75*
G03*
X115585Y162400I-200J0D01*
G01*
X107885Y162400D02*
G75*
G03*
X107885Y162400I-200J0D01*
G01*
X87665Y157320D02*
G75*
G03*
X87665Y157320I-200J0D01*
G01*
X70525Y77940D02*
G75*
G03*
X70525Y77940I-200J0D01*
G01*
X121325Y77940D02*
G75*
G03*
X121325Y77940I-200J0D01*
G01*
X87985Y96990D02*
G75*
G03*
X87985Y96990I-200J0D01*
G01*
X109895Y102710D02*
G75*
G03*
X109895Y102710I-200J0D01*
G01*
X81955Y114140D02*
G75*
G03*
X81955Y114140I-200J0D01*
G01*
X109895Y121760D02*
G75*
G03*
X109895Y121760I-200J0D01*
G01*
X81955Y133190D02*
G75*
G03*
X81955Y133190I-200J0D01*
G01*
X103865Y138910D02*
G75*
G03*
X103865Y138910I-200J0D01*
G01*
X95925Y155420D02*
G75*
G03*
X95925Y155420I-200J0D01*
G01*
X100835Y161770D02*
G75*
G03*
X100835Y161770I-200J0D01*
G01*
X94655Y138270D02*
G75*
G03*
X94655Y138270I-200J0D01*
G01*
X118155Y158590D02*
G75*
G03*
X118155Y158590I-200J0D01*
G01*
X91485Y155730D02*
G75*
G03*
X91485Y155730I-200J0D01*
G01*
X84175Y157320D02*
G75*
G03*
X84175Y157320I-200J0D01*
G01*
X76875Y10675D02*
G75*
G03*
X76875Y10675I-200J0D01*
G01*
X116885Y61475D02*
G75*
G03*
X116885Y61475I-200J0D01*
G01*
X76875Y61475D02*
G75*
G03*
X76875Y61475I-200J0D01*
G01*
X114975Y61475D02*
G75*
G03*
X114975Y61475I-200J0D01*
G01*
X74965Y10675D02*
G75*
G03*
X74965Y10675I-200J0D01*
G01*
X114975Y10675D02*
G75*
G03*
X114975Y10675I-200J0D01*
G01*
X74965Y61475D02*
G75*
G03*
X74965Y61475I-200J0D01*
G01*
X116885Y10675D02*
G75*
G03*
X116885Y10675I-200J0D01*
G01*
X118155Y36075D02*
G75*
G03*
X118155Y36075I-200J0D01*
G01*
X73695Y36075D02*
G75*
G03*
X73695Y36075I-200J0D01*
G01*
X61355Y56395D02*
G75*
G03*
X61355Y56395I-200J0D01*
G01*
X20995Y19945D02*
G75*
G03*
X20995Y19945I-200J0D01*
G01*
X22135Y26805D02*
G75*
G03*
X22135Y26805I-200J0D01*
G01*
X53255Y44955D02*
G75*
G03*
X53255Y44955I-200J0D01*
G01*
X52115Y45345D02*
G75*
G03*
X52115Y45345I-200J0D01*
G01*
X21375Y26805D02*
G75*
G03*
X21375Y26805I-200J0D01*
G01*
X23665Y26805D02*
G75*
G03*
X23665Y26805I-200J0D01*
G01*
X53125Y19945D02*
G75*
G03*
X53125Y19945I-200J0D01*
G01*
X53125Y26805D02*
G75*
G03*
X53125Y26805I-200J0D01*
G01*
X17945Y45345D02*
G75*
G03*
X17945Y45345I-200J0D01*
G01*
X17065Y19945D02*
G75*
G03*
X17065Y19945I-200J0D01*
G01*
X51985Y19945D02*
G75*
G03*
X51985Y19945I-200J0D01*
G01*
X22905Y26805D02*
G75*
G03*
X22905Y26805I-200J0D01*
G01*
X17065Y26805D02*
G75*
G03*
X17065Y26805I-200J0D01*
G01*
X19475Y45345D02*
G75*
G03*
X19475Y45345I-200J0D01*
G01*
X19595Y52205D02*
G75*
G03*
X19595Y52205I-200J0D01*
G01*
X19475Y19945D02*
G75*
G03*
X19475Y19945I-200J0D01*
G01*
X18715Y19945D02*
G75*
G03*
X18715Y19945I-200J0D01*
G01*
X22135Y52205D02*
G75*
G03*
X22135Y52205I-200J0D01*
G01*
X28485Y52205D02*
G75*
G03*
X28485Y52205I-200J0D01*
G01*
X35095Y52205D02*
G75*
G03*
X35095Y52205I-200J0D01*
G01*
X43735Y52205D02*
G75*
G03*
X43735Y52205I-200J0D01*
G01*
X48815Y52205D02*
G75*
G03*
X48815Y52205I-200J0D01*
G01*
X20235Y19945D02*
G75*
G03*
X20235Y19945I-200J0D01*
G01*
X28485Y19945D02*
G75*
G03*
X28485Y19945I-200J0D01*
G01*
X34835Y19945D02*
G75*
G03*
X34835Y19945I-200J0D01*
G01*
X36105Y19945D02*
G75*
G03*
X36105Y19945I-200J0D01*
G01*
X43735Y19945D02*
G75*
G03*
X43735Y19945I-200J0D01*
G01*
X48815Y19945D02*
G75*
G03*
X48815Y19945I-200J0D01*
G01*
X50085Y19945D02*
G75*
G03*
X50085Y19945I-200J0D01*
G01*
X35855Y52205D02*
G75*
G03*
X35855Y52205I-200J0D01*
G01*
X17185Y45345D02*
G75*
G03*
X17185Y45345I-200J0D01*
G01*
X17185Y52205D02*
G75*
G03*
X17185Y52205I-200J0D01*
G01*
X51355Y52205D02*
G75*
G03*
X51355Y52205I-200J0D01*
G01*
X51355Y26805D02*
G75*
G03*
X51355Y26805I-200J0D01*
G01*
X53895Y26805D02*
G75*
G03*
X53895Y26805I-200J0D01*
G01*
X53895Y19945D02*
G75*
G03*
X53895Y19945I-200J0D01*
G01*
X21755Y45345D02*
G75*
G03*
X21755Y45345I-200J0D01*
G01*
X48305Y45345D02*
G75*
G03*
X48305Y45345I-200J0D01*
G01*
X49065Y45345D02*
G75*
G03*
X49065Y45345I-200J0D01*
G01*
X19095Y26805D02*
G75*
G03*
X19095Y26805I-200J0D01*
G01*
X48815Y26805D02*
G75*
G03*
X48815Y26805I-200J0D01*
G01*
X49575Y26805D02*
G75*
G03*
X49575Y26805I-200J0D01*
G01*
X50585Y26805D02*
G75*
G03*
X50585Y26805I-200J0D01*
G01*
X18715Y45345D02*
G75*
G03*
X18715Y45345I-200J0D01*
G01*
X20365Y52205D02*
G75*
G03*
X20365Y52205I-200J0D01*
G01*
X61045Y51315D02*
G75*
G03*
X61045Y51315I-200J0D01*
G01*
X18835Y52205D02*
G75*
G03*
X18835Y52205I-200J0D01*
G01*
X16425Y45345D02*
G75*
G03*
X16425Y45345I-200J0D01*
G01*
X17825Y26805D02*
G75*
G03*
X17825Y26805I-200J0D01*
G01*
X20615Y26805D02*
G75*
G03*
X20615Y26805I-200J0D01*
G01*
X52115Y26805D02*
G75*
G03*
X52115Y26805I-200J0D01*
G01*
X15315Y22105D02*
G75*
G03*
X15315Y22105I-200J0D01*
G01*
X15315Y24645D02*
G75*
G03*
X15315Y24645I-200J0D01*
G01*
X56725Y45345D02*
G75*
G03*
X56725Y45345I-200J0D01*
G01*
X61805Y48775D02*
G75*
G03*
X61805Y48775I-200J0D01*
G01*
X61805Y51315D02*
G75*
G03*
X61805Y51315I-200J0D01*
G01*
X57485Y45345D02*
G75*
G03*
X57485Y45345I-200J0D01*
G01*
X19855Y26805D02*
G75*
G03*
X19855Y26805I-200J0D01*
G01*
X13165Y29085D02*
G75*
G03*
X13165Y29085I-200J0D01*
G01*
X16425Y52205D02*
G75*
G03*
X16425Y52205I-200J0D01*
G01*
X50585Y52205D02*
G75*
G03*
X50585Y52205I-200J0D01*
G01*
X48045Y26805D02*
G75*
G03*
X48045Y26805I-200J0D01*
G01*
X49825Y45345D02*
G75*
G03*
X49825Y45345I-200J0D01*
G01*
X13165Y25915D02*
G75*
G03*
X13165Y25915I-200J0D01*
G01*
X13165Y20195D02*
G75*
G03*
X13165Y20195I-200J0D01*
G01*
X21375Y52205D02*
G75*
G03*
X21375Y52205I-200J0D01*
G01*
X49575Y52205D02*
G75*
G03*
X49575Y52205I-200J0D01*
G01*
X13165Y30615D02*
G75*
G03*
X13165Y30615I-200J0D01*
G01*
X52625Y52455D02*
G75*
G03*
X52625Y52455I-200J0D01*
G01*
X55165Y23375D02*
G75*
G03*
X55165Y23375I-200J0D01*
G01*
X20995Y45345D02*
G75*
G03*
X20995Y45345I-200J0D01*
G01*
X53925Y42045D02*
G75*
G03*
X53925Y42045I-200J0D01*
G01*
X13165Y27435D02*
G75*
G03*
X13165Y27435I-200J0D01*
G01*
X13165Y18675D02*
G75*
G03*
X13165Y18675I-200J0D01*
G01*
X60655Y42045D02*
G75*
G03*
X60655Y42045I-200J0D01*
G01*
X50845Y19945D02*
G75*
G03*
X50845Y19945I-200J0D01*
G01*
X20235Y45345D02*
G75*
G03*
X20235Y45345I-200J0D01*
G01*
X61425Y52585D02*
G75*
G03*
X61425Y52585I-200J0D01*
G01*
X59965Y56775D02*
G75*
G03*
X59965Y56775I-200J0D01*
G01*
X61355Y57155D02*
G75*
G03*
X61355Y57155I-200J0D01*
G01*
X53255Y45735D02*
G75*
G03*
X53255Y45735I-200J0D01*
G01*
X15705Y23375D02*
G75*
G03*
X15705Y23375I-200J0D01*
G01*
X23025Y45725D02*
G75*
G03*
X23025Y45725I-200J0D01*
G01*
X57735Y49665D02*
G75*
G03*
X57735Y49665I-200J0D01*
G01*
X60155Y45855D02*
G75*
G03*
X60155Y45855I-200J0D01*
G01*
X57735Y42045D02*
G75*
G03*
X57735Y42045I-200J0D01*
G01*
X11825Y15755D02*
G75*
G03*
X11825Y15755I-200J0D01*
G01*
X60465Y54745D02*
G75*
G03*
X60465Y54745I-200J0D01*
G01*
X36275Y58305D02*
G75*
G03*
X36275Y58305I-200J0D01*
G01*
X36275Y13845D02*
G75*
G03*
X36275Y13845I-200J0D01*
M02*
