%MOMM*%
%FSLAX33Y33*%
%IPPOS*%
%ADD10C,0.05*%
G75*
%LPD*%
D10*
G01*
X40615Y83090D02*
G75*
G01*
X41115Y83090D01*
G01*
X31515Y90590D02*
G75*
G01*
X31015Y90590D01*
G01*
X35615Y79990D02*
G75*
G01*
X35615Y79490D01*
G01*
X40615Y84090D02*
G75*
G01*
X41115Y84090D01*
G01*
X28515Y88340D02*
G75*
G01*
X29015Y88340D01*
G01*
X31615Y173290D02*
G75*
G01*
X31115Y173290D01*
G01*
X40715Y165790D02*
G75*
G01*
X41215Y165790D01*
G01*
X36615Y176390D02*
G75*
G01*
X36615Y176890D01*
G01*
X31615Y172290D02*
G75*
G01*
X31115Y172290D01*
G01*
X43715Y168040D02*
G75*
G01*
X43215Y168040D01*
G01*
X42115Y79990D02*
G75*
G01*
X42115Y79490D01*
G01*
X30115Y95190D02*
G75*
G01*
X30115Y95690D01*
G01*
X43715Y86590D02*
G75*
G01*
X43215Y86590D01*
G01*
X28515Y91590D02*
G75*
G01*
X29015Y91590D01*
G01*
X32115Y79990D02*
G75*
G01*
X32115Y79490D01*
G01*
X38615Y79990D02*
G75*
G01*
X38615Y79490D01*
G01*
X43715Y83590D02*
G75*
G01*
X43215Y83590D01*
G01*
X43715Y92590D02*
G75*
G01*
X43215Y92590D01*
G01*
X28515Y82590D02*
G75*
G01*
X29015Y82590D01*
G01*
X42115Y95190D02*
G75*
G01*
X42115Y95690D01*
G01*
X32615Y95190D02*
G75*
G01*
X32615Y95690D01*
G01*
X30115Y176390D02*
G75*
G01*
X30115Y176890D01*
G01*
X42115Y161190D02*
G75*
G01*
X42115Y160690D01*
G01*
X28515Y169790D02*
G75*
G01*
X29015Y169790D01*
G01*
X43715Y164790D02*
G75*
G01*
X43215Y164790D01*
G01*
X40115Y176390D02*
G75*
G01*
X40115Y176890D01*
G01*
X33615Y176390D02*
G75*
G01*
X33615Y176890D01*
G01*
X28515Y172790D02*
G75*
G01*
X29015Y172790D01*
G01*
X28515Y163790D02*
G75*
G01*
X29015Y163790D01*
G01*
X43715Y173790D02*
G75*
G01*
X43215Y173790D01*
G01*
X30115Y161190D02*
G75*
G01*
X30115Y160690D01*
G01*
X39615Y161190D02*
G75*
G01*
X39615Y160690D01*
G01*
X31515Y87190D02*
G75*
G01*
X32015Y87190D01*
G01*
X40715Y169190D02*
G75*
G01*
X40215Y169190D01*
G01*
X15475Y171370D02*
G75*
G01*
X14975Y171370D01*
G01*
X22145Y100890D02*
G75*
G01*
X22145Y100390D01*
G01*
X50085Y155490D02*
G75*
G01*
X50085Y155990D01*
G01*
X36115Y75480D02*
G75*
G01*
X35615Y75480D01*
G01*
X36115Y74210D02*
G75*
G01*
X35615Y74210D01*
G01*
X36115Y72940D02*
G75*
G01*
X36615Y72940D01*
G01*
X36115Y71670D02*
G75*
G01*
X36615Y71670D01*
G01*
X36115Y69140D02*
G75*
G01*
X35615Y69140D01*
G01*
X36115Y70400D02*
G75*
G01*
X35615Y70400D01*
G01*
X15475Y176770D02*
G75*
G01*
X15975Y176770D01*
G01*
X15475Y175810D02*
G75*
G01*
X15975Y175810D01*
G01*
X31365Y95190D02*
G75*
G01*
X31365Y95690D01*
G01*
X40865Y161190D02*
G75*
G01*
X40865Y160690D01*
G01*
X15475Y173910D02*
G75*
G01*
X14975Y173910D01*
G01*
X36115Y87590D02*
G75*
G01*
X36615Y87590D01*
G01*
X36115Y168790D02*
G75*
G01*
X35615Y168790D01*
G01*
X76435Y164390D02*
G75*
G01*
X76435Y164890D01*
G01*
X80245Y164390D02*
G75*
G01*
X80245Y163890D01*
G01*
X84055Y164390D02*
G75*
G01*
X84055Y164890D01*
G01*
X87865Y164390D02*
G75*
G01*
X87865Y163890D01*
G01*
X88815Y88820D02*
G75*
G01*
X88315Y88820D01*
G01*
X102795Y147240D02*
G75*
G01*
X103295Y147240D01*
G01*
X107555Y88180D02*
G75*
G01*
X108055Y88180D01*
G01*
X107555Y85650D02*
G75*
G01*
X108055Y85650D01*
G01*
X111995Y88180D02*
G75*
G01*
X112495Y88180D01*
G01*
X111995Y85650D02*
G75*
G01*
X112495Y85650D01*
G01*
X84055Y147880D02*
G75*
G01*
X83555Y147880D01*
G01*
X84055Y150410D02*
G75*
G01*
X83555Y150410D01*
G01*
X79615Y147880D02*
G75*
G01*
X79115Y147880D01*
G01*
X79615Y150410D02*
G75*
G01*
X79115Y150410D01*
G01*
X80755Y83740D02*
G75*
G01*
X81255Y83740D01*
G01*
X80755Y84690D02*
G75*
G01*
X81255Y84690D01*
G01*
X86275Y85160D02*
G75*
G01*
X86275Y84660D01*
G01*
X110855Y152320D02*
G75*
G01*
X110355Y152320D01*
G01*
X110855Y151370D02*
G75*
G01*
X110355Y151370D01*
G01*
X105335Y150920D02*
G75*
G01*
X105335Y151420D01*
G01*
X99615Y164700D02*
G75*
G01*
X99115Y164700D01*
G01*
X102155Y164700D02*
G75*
G01*
X102655Y164700D01*
G01*
X104065Y88820D02*
G75*
G01*
X104065Y88320D01*
G01*
X87545Y148510D02*
G75*
G01*
X87545Y149010D01*
G01*
X91355Y153270D02*
G75*
G01*
X90855Y153270D01*
G01*
X113265Y162480D02*
G75*
G01*
X113265Y161980D01*
G01*
X111065Y162480D02*
G75*
G01*
X111065Y161980D01*
G01*
X86275Y157400D02*
G75*
G01*
X86275Y157900D01*
G01*
X83735Y84690D02*
G75*
G01*
X84235Y84690D01*
G01*
X107875Y151370D02*
G75*
G01*
X107375Y151370D01*
G01*
X105965Y165020D02*
G75*
G01*
X105965Y165520D01*
G01*
X104065Y161850D02*
G75*
G01*
X104065Y161350D01*
G01*
X73575Y146610D02*
G75*
G01*
X73575Y147110D01*
G01*
X73575Y89450D02*
G75*
G01*
X73575Y88950D01*
G01*
X118035Y146610D02*
G75*
G01*
X118035Y147110D01*
G01*
X118035Y89450D02*
G75*
G01*
X118035Y88950D01*
G01*
X114855Y79930D02*
G75*
G01*
X114355Y79930D01*
G01*
X114855Y82470D02*
G75*
G01*
X114355Y82470D01*
G01*
X76755Y82470D02*
G75*
G01*
X77255Y82470D01*
G01*
X76755Y79930D02*
G75*
G01*
X77255Y79930D01*
G01*
X85015Y115170D02*
G75*
G01*
X84515Y115170D01*
G01*
X85015Y134220D02*
G75*
G01*
X84515Y134220D01*
G01*
X106595Y120890D02*
G75*
G01*
X107095Y120890D01*
G01*
X106595Y101840D02*
G75*
G01*
X107095Y101840D01*
G01*
X86915Y100250D02*
G75*
G01*
X86915Y100750D01*
G01*
X104695Y135810D02*
G75*
G01*
X104695Y135310D01*
G01*
X73075Y76560D02*
G75*
G01*
X72575Y76560D01*
G01*
X96755Y152320D02*
G75*
G01*
X96755Y151820D01*
G01*
X118475Y78020D02*
G75*
G01*
X118475Y77520D01*
G01*
X91675Y147240D02*
G75*
G01*
X91675Y147740D01*
G01*
X92625Y147240D02*
G75*
G01*
X92625Y146740D01*
G01*
X99935Y88820D02*
G75*
G01*
X99935Y88320D01*
G01*
X98985Y88820D02*
G75*
G01*
X98985Y89320D01*
G01*
X94855Y119940D02*
G75*
G01*
X94355Y119940D01*
G01*
X96755Y119940D02*
G75*
G01*
X96255Y119940D01*
G01*
X92315Y85650D02*
G75*
G01*
X92815Y85650D01*
G01*
X90405Y85650D02*
G75*
G01*
X90905Y85650D01*
G01*
X98345Y126920D02*
G75*
G01*
X98345Y127420D01*
G01*
X97395Y126920D02*
G75*
G01*
X97395Y127420D01*
G01*
X94855Y126920D02*
G75*
G01*
X94855Y127420D01*
G01*
X95805Y126920D02*
G75*
G01*
X95805Y127420D01*
G01*
X91045Y90730D02*
G75*
G01*
X90545Y90730D01*
G01*
X91045Y91680D02*
G75*
G01*
X90545Y91680D01*
G01*
X88815Y89770D02*
G75*
G01*
X89315Y89770D01*
G01*
X88815Y90730D02*
G75*
G01*
X89315Y90730D01*
G01*
X88815Y91680D02*
G75*
G01*
X89315Y91680D01*
G01*
X100565Y145330D02*
G75*
G01*
X101065Y145330D01*
G01*
X100565Y144380D02*
G75*
G01*
X101065Y144380D01*
G01*
X102795Y146290D02*
G75*
G01*
X102295Y146290D01*
G01*
X102795Y145330D02*
G75*
G01*
X102295Y145330D01*
G01*
X102795Y144380D02*
G75*
G01*
X102295Y144380D01*
G01*
X95805Y125020D02*
G75*
G01*
X95805Y124520D01*
G01*
X94855Y125020D02*
G75*
G01*
X94855Y124520D01*
G01*
X118985Y156130D02*
G75*
G01*
X118485Y156130D01*
G01*
X84055Y155500D02*
G75*
G01*
X83555Y155500D01*
G01*
X86915Y155500D02*
G75*
G01*
X86415Y155500D01*
G01*
X84055Y154540D02*
G75*
G01*
X83555Y154540D01*
G01*
X84055Y160260D02*
G75*
G01*
X83555Y160260D01*
G01*
X89135Y153270D02*
G75*
G01*
X88635Y153270D01*
G01*
X91995Y158670D02*
G75*
G01*
X91995Y158170D01*
G01*
X90725Y158670D02*
G75*
G01*
X90725Y158170D01*
G01*
X109965Y162480D02*
G75*
G01*
X109965Y161980D01*
G01*
X114355Y162480D02*
G75*
G01*
X114355Y161980D01*
G01*
X115465Y162480D02*
G75*
G01*
X115465Y161980D01*
G01*
X107765Y162480D02*
G75*
G01*
X107765Y161980D01*
G01*
X87545Y157400D02*
G75*
G01*
X87545Y157900D01*
G01*
X70405Y78020D02*
G75*
G01*
X70405Y77520D01*
G01*
X121205Y78020D02*
G75*
G01*
X121205Y78520D01*
G01*
X87865Y97070D02*
G75*
G01*
X87865Y97570D01*
G01*
X109775Y102790D02*
G75*
G01*
X110275Y102790D01*
G01*
X81835Y114220D02*
G75*
G01*
X81335Y114220D01*
G01*
X109775Y121840D02*
G75*
G01*
X110275Y121840D01*
G01*
X81835Y133270D02*
G75*
G01*
X81335Y133270D01*
G01*
X103745Y138990D02*
G75*
G01*
X103745Y138490D01*
G01*
X95805Y155500D02*
G75*
G01*
X95805Y155000D01*
G01*
X100715Y161850D02*
G75*
G01*
X100715Y162350D01*
G01*
X94535Y138350D02*
G75*
G01*
X94035Y138350D01*
G01*
X118035Y158670D02*
G75*
G01*
X117535Y158670D01*
G01*
X91365Y155810D02*
G75*
G01*
X91011Y155456D01*
G01*
X84055Y157400D02*
G75*
G01*
X83555Y157400D01*
G01*
X95805Y118030D02*
G75*
G01*
X95805Y118530D01*
G01*
X76755Y10715D02*
G75*
G01*
X76255Y10715D01*
G01*
X116765Y61515D02*
G75*
G01*
X117265Y61515D01*
G01*
X76755Y61515D02*
G75*
G01*
X77255Y61515D01*
G01*
X114855Y61515D02*
G75*
G01*
X115355Y61515D01*
G01*
X74845Y10715D02*
G75*
G01*
X74345Y10715D01*
G01*
X114855Y10715D02*
G75*
G01*
X114355Y10715D01*
G01*
X74845Y61515D02*
G75*
G01*
X75345Y61515D01*
G01*
X116765Y10715D02*
G75*
G01*
X116265Y10715D01*
G01*
X118035Y36115D02*
G75*
G01*
X118535Y36115D01*
G01*
X73575Y36115D02*
G75*
G01*
X73075Y36115D01*
G01*
X61195Y56435D02*
G75*
G01*
X61195Y55935D01*
G01*
X20835Y19985D02*
G75*
G01*
X21335Y19985D01*
G01*
X21975Y26845D02*
G75*
G01*
X21475Y26845D01*
G01*
X53095Y44995D02*
G75*
G01*
X53095Y45495D01*
G01*
X51955Y45385D02*
G75*
G01*
X52455Y45385D01*
G01*
X21215Y26845D02*
G75*
G01*
X20715Y26845D01*
G01*
X23505Y26845D02*
G75*
G01*
X23005Y26845D01*
G01*
X52965Y19985D02*
G75*
G01*
X53465Y19985D01*
G01*
X52965Y26845D02*
G75*
G01*
X52465Y26845D01*
G01*
X17785Y45385D02*
G75*
G01*
X17285Y45385D01*
G01*
X16905Y19985D02*
G75*
G01*
X16405Y19985D01*
G01*
X51825Y19985D02*
G75*
G01*
X51325Y19985D01*
G01*
X22745Y26845D02*
G75*
G01*
X23245Y26845D01*
G01*
X16905Y26845D02*
G75*
G01*
X17405Y26845D01*
G01*
X19315Y45385D02*
G75*
G01*
X18815Y45385D01*
G01*
X19435Y52245D02*
G75*
G01*
X19935Y52245D01*
G01*
X19315Y19985D02*
G75*
G01*
X19815Y19985D01*
G01*
X18555Y19985D02*
G75*
G01*
X19055Y19985D01*
G01*
X21975Y52245D02*
G75*
G01*
X21475Y52245D01*
G01*
X28325Y52245D02*
G75*
G01*
X27825Y52245D01*
G01*
X34935Y52245D02*
G75*
G01*
X34435Y52245D01*
G01*
X43575Y52245D02*
G75*
G01*
X43075Y52245D01*
G01*
X48655Y52245D02*
G75*
G01*
X48155Y52245D01*
G01*
X20075Y19985D02*
G75*
G01*
X20575Y19985D01*
G01*
X28325Y19985D02*
G75*
G01*
X28825Y19985D01*
G01*
X34675Y19985D02*
G75*
G01*
X35175Y19985D01*
G01*
X35945Y19985D02*
G75*
G01*
X36445Y19985D01*
G01*
X43575Y19985D02*
G75*
G01*
X44075Y19985D01*
G01*
X48655Y19985D02*
G75*
G01*
X49155Y19985D01*
G01*
X49925Y19985D02*
G75*
G01*
X50425Y19985D01*
G01*
X35695Y52245D02*
G75*
G01*
X35195Y52245D01*
G01*
X17025Y45385D02*
G75*
G01*
X17525Y45385D01*
G01*
X17025Y52245D02*
G75*
G01*
X16525Y52245D01*
G01*
X51195Y52245D02*
G75*
G01*
X50695Y52245D01*
G01*
X51195Y26845D02*
G75*
G01*
X50695Y26845D01*
G01*
X53735Y26845D02*
G75*
G01*
X53235Y26845D01*
G01*
X53735Y19985D02*
G75*
G01*
X54235Y19985D01*
G01*
X21595Y45385D02*
G75*
G01*
X22095Y45385D01*
G01*
X48145Y45385D02*
G75*
G01*
X48645Y45385D01*
G01*
X48905Y45385D02*
G75*
G01*
X49405Y45385D01*
G01*
X18935Y26845D02*
G75*
G01*
X18435Y26845D01*
G01*
X48655Y26845D02*
G75*
G01*
X48155Y26845D01*
G01*
X49415Y26845D02*
G75*
G01*
X48915Y26845D01*
G01*
X50425Y26845D02*
G75*
G01*
X49925Y26845D01*
G01*
X18555Y45385D02*
G75*
G01*
X19055Y45385D01*
G01*
X20205Y52245D02*
G75*
G01*
X19705Y52245D01*
G01*
X60885Y51355D02*
G75*
G01*
X60385Y51355D01*
G01*
X18675Y52245D02*
G75*
G01*
X18175Y52245D01*
G01*
X16265Y45385D02*
G75*
G01*
X16765Y45385D01*
G01*
X17665Y26845D02*
G75*
G01*
X17165Y26845D01*
G01*
X20455Y26845D02*
G75*
G01*
X19955Y26845D01*
G01*
X51955Y26845D02*
G75*
G01*
X51455Y26845D01*
G01*
X15155Y22145D02*
G75*
G01*
X15155Y22645D01*
G01*
X15155Y24685D02*
G75*
G01*
X15155Y25185D01*
G01*
X56565Y45385D02*
G75*
G01*
X56065Y45385D01*
G01*
X61645Y48815D02*
G75*
G01*
X61145Y48815D01*
G01*
X61645Y51355D02*
G75*
G01*
X61145Y51355D01*
G01*
X57325Y45385D02*
G75*
G01*
X56825Y45385D01*
G01*
X19695Y26845D02*
G75*
G01*
X19195Y26845D01*
G01*
X13005Y29125D02*
G75*
G01*
X13005Y28625D01*
G01*
X16265Y52245D02*
G75*
G01*
X15765Y52245D01*
G01*
X50425Y52245D02*
G75*
G01*
X49925Y52245D01*
G01*
X47885Y26845D02*
G75*
G01*
X47385Y26845D01*
G01*
X49665Y45385D02*
G75*
G01*
X50165Y45385D01*
G01*
X13005Y25955D02*
G75*
G01*
X13005Y26455D01*
G01*
X13005Y20235D02*
G75*
G01*
X13005Y20735D01*
G01*
X21215Y52245D02*
G75*
G01*
X20715Y52245D01*
G01*
X49415Y52245D02*
G75*
G01*
X48915Y52245D01*
G01*
X13005Y30655D02*
G75*
G01*
X13005Y30155D01*
G01*
X52465Y52495D02*
G75*
G01*
X51965Y52495D01*
G01*
X55005Y23415D02*
G75*
G01*
X54505Y23415D01*
G01*
X20835Y45385D02*
G75*
G01*
X21335Y45385D01*
G01*
X53765Y42085D02*
G75*
G01*
X54265Y42085D01*
G01*
X13005Y27475D02*
G75*
G01*
X13005Y27975D01*
G01*
X13005Y18715D02*
G75*
G01*
X13005Y19215D01*
G01*
X60495Y42085D02*
G75*
G01*
X60995Y42085D01*
G01*
X50685Y19985D02*
G75*
G01*
X51185Y19985D01*
G01*
X20075Y45385D02*
G75*
G01*
X20575Y45385D01*
G01*
X61265Y52625D02*
G75*
G01*
X61265Y52125D01*
G01*
X59805Y56815D02*
G75*
G01*
X59305Y56815D01*
G01*
X61195Y57195D02*
G75*
G01*
X61195Y56695D01*
G01*
X53095Y45775D02*
G75*
G01*
X53095Y46275D01*
G01*
X15545Y23415D02*
G75*
G01*
X15045Y23415D01*
G01*
X22865Y45765D02*
G75*
G01*
X22865Y45265D01*
G01*
X57575Y49705D02*
G75*
G01*
X57575Y50205D01*
G01*
X59995Y45895D02*
G75*
G01*
X59995Y46395D01*
G01*
X57575Y42085D02*
G75*
G01*
X57575Y42585D01*
G01*
X11665Y15795D02*
G75*
G01*
X12165Y15795D01*
G01*
X60305Y54785D02*
G75*
G01*
X60305Y55285D01*
G01*
X36115Y58345D02*
G75*
G01*
X36115Y57845D01*
G01*
X36115Y13885D02*
G75*
G01*
X36115Y14385D01*
G01*
X5200Y2500D02*
G75*
G03*
X5200Y2500I-200J0D01*
G01*
X5000Y2500D02*
G75*
G03*
X5000Y2500I0J0D01*
G01*
X40815Y83090D02*
G75*
G03*
X40815Y83090I-200J0D01*
G01*
X40715Y83540D02*
G75*
G03*
X40715Y83540I-100J0D01*
G01*
X31715Y90590D02*
G75*
G03*
X31715Y90590I-200J0D01*
G01*
X31615Y90140D02*
G75*
G03*
X31615Y90140I-100J0D01*
G01*
X35815Y79990D02*
G75*
G03*
X35815Y79990I-200J0D01*
G01*
X36165Y79990D02*
G75*
G03*
X36165Y79990I-100J0D01*
G01*
X40815Y84090D02*
G75*
G03*
X40815Y84090I-200J0D01*
G01*
X40715Y84540D02*
G75*
G03*
X40715Y84540I-100J0D01*
G01*
X28715Y88340D02*
G75*
G03*
X28715Y88340I-200J0D01*
G01*
X28615Y88790D02*
G75*
G03*
X28615Y88790I-100J0D01*
G01*
X31815Y173290D02*
G75*
G03*
X31815Y173290I-200J0D01*
G01*
X31715Y172840D02*
G75*
G03*
X31715Y172840I-100J0D01*
G01*
X40915Y165790D02*
G75*
G03*
X40915Y165790I-200J0D01*
G01*
X40815Y166240D02*
G75*
G03*
X40815Y166240I-100J0D01*
G01*
X36815Y176390D02*
G75*
G03*
X36815Y176390I-200J0D01*
G01*
X36265Y176390D02*
G75*
G03*
X36265Y176390I-100J0D01*
G01*
X31815Y172290D02*
G75*
G03*
X31815Y172290I-200J0D01*
G01*
X31715Y171840D02*
G75*
G03*
X31715Y171840I-100J0D01*
G01*
X43915Y168040D02*
G75*
G03*
X43915Y168040I-200J0D01*
G01*
X43815Y167590D02*
G75*
G03*
X43815Y167590I-100J0D01*
G01*
X42315Y79990D02*
G75*
G03*
X42315Y79990I-200J0D01*
G01*
X42665Y79990D02*
G75*
G03*
X42665Y79990I-100J0D01*
G01*
X30315Y95190D02*
G75*
G03*
X30315Y95190I-200J0D01*
G01*
X29765Y95190D02*
G75*
G03*
X29765Y95190I-100J0D01*
G01*
X43915Y86590D02*
G75*
G03*
X43915Y86590I-200J0D01*
G01*
X43815Y86140D02*
G75*
G03*
X43815Y86140I-100J0D01*
G01*
X28715Y91590D02*
G75*
G03*
X28715Y91590I-200J0D01*
G01*
X28615Y92040D02*
G75*
G03*
X28615Y92040I-100J0D01*
G01*
X32315Y79990D02*
G75*
G03*
X32315Y79990I-200J0D01*
G01*
X32665Y79990D02*
G75*
G03*
X32665Y79990I-100J0D01*
G01*
X38815Y79990D02*
G75*
G03*
X38815Y79990I-200J0D01*
G01*
X39165Y79990D02*
G75*
G03*
X39165Y79990I-100J0D01*
G01*
X43915Y83590D02*
G75*
G03*
X43915Y83590I-200J0D01*
G01*
X43815Y83140D02*
G75*
G03*
X43815Y83140I-100J0D01*
G01*
X43915Y92590D02*
G75*
G03*
X43915Y92590I-200J0D01*
G01*
X43815Y92140D02*
G75*
G03*
X43815Y92140I-100J0D01*
G01*
X28715Y82590D02*
G75*
G03*
X28715Y82590I-200J0D01*
G01*
X28615Y83040D02*
G75*
G03*
X28615Y83040I-100J0D01*
G01*
X42315Y95190D02*
G75*
G03*
X42315Y95190I-200J0D01*
G01*
X41765Y95190D02*
G75*
G03*
X41765Y95190I-100J0D01*
G01*
X32815Y95190D02*
G75*
G03*
X32815Y95190I-200J0D01*
G01*
X32265Y95190D02*
G75*
G03*
X32265Y95190I-100J0D01*
G01*
X30315Y176390D02*
G75*
G03*
X30315Y176390I-200J0D01*
G01*
X29765Y176390D02*
G75*
G03*
X29765Y176390I-100J0D01*
G01*
X42315Y161190D02*
G75*
G03*
X42315Y161190I-200J0D01*
G01*
X42665Y161190D02*
G75*
G03*
X42665Y161190I-100J0D01*
G01*
X28715Y169790D02*
G75*
G03*
X28715Y169790I-200J0D01*
G01*
X28615Y170240D02*
G75*
G03*
X28615Y170240I-100J0D01*
G01*
X43915Y164790D02*
G75*
G03*
X43915Y164790I-200J0D01*
G01*
X43815Y164340D02*
G75*
G03*
X43815Y164340I-100J0D01*
G01*
X40315Y176390D02*
G75*
G03*
X40315Y176390I-200J0D01*
G01*
X39765Y176390D02*
G75*
G03*
X39765Y176390I-100J0D01*
G01*
X33815Y176390D02*
G75*
G03*
X33815Y176390I-200J0D01*
G01*
X33265Y176390D02*
G75*
G03*
X33265Y176390I-100J0D01*
G01*
X28715Y172790D02*
G75*
G03*
X28715Y172790I-200J0D01*
G01*
X28615Y173240D02*
G75*
G03*
X28615Y173240I-100J0D01*
G01*
X28715Y163790D02*
G75*
G03*
X28715Y163790I-200J0D01*
G01*
X28615Y164240D02*
G75*
G03*
X28615Y164240I-100J0D01*
G01*
X43915Y173790D02*
G75*
G03*
X43915Y173790I-200J0D01*
G01*
X43815Y173340D02*
G75*
G03*
X43815Y173340I-100J0D01*
G01*
X30315Y161190D02*
G75*
G03*
X30315Y161190I-200J0D01*
G01*
X30665Y161190D02*
G75*
G03*
X30665Y161190I-100J0D01*
G01*
X39815Y161190D02*
G75*
G03*
X39815Y161190I-200J0D01*
G01*
X40165Y161190D02*
G75*
G03*
X40165Y161190I-100J0D01*
G01*
X31715Y87190D02*
G75*
G03*
X31715Y87190I-200J0D01*
G01*
X31615Y87640D02*
G75*
G03*
X31615Y87640I-100J0D01*
G01*
X40915Y169190D02*
G75*
G03*
X40915Y169190I-200J0D01*
G01*
X40815Y168740D02*
G75*
G03*
X40815Y168740I-100J0D01*
G01*
X15675Y171370D02*
G75*
G03*
X15675Y171370I-200J0D01*
G01*
X15575Y170920D02*
G75*
G03*
X15575Y170920I-100J0D01*
G01*
X22345Y100890D02*
G75*
G03*
X22345Y100890I-200J0D01*
G01*
X23995Y98640D02*
G75*
G03*
X23995Y98640I-100J0D01*
G01*
X50285Y155490D02*
G75*
G03*
X50285Y155490I-200J0D01*
G01*
X48435Y157740D02*
G75*
G03*
X48435Y157740I-100J0D01*
G01*
X36315Y75480D02*
G75*
G03*
X36315Y75480I-200J0D01*
G01*
X36215Y75030D02*
G75*
G03*
X36215Y75030I-100J0D01*
G01*
X36315Y74210D02*
G75*
G03*
X36315Y74210I-200J0D01*
G01*
X36215Y73760D02*
G75*
G03*
X36215Y73760I-100J0D01*
G01*
X36315Y72940D02*
G75*
G03*
X36315Y72940I-200J0D01*
G01*
X36215Y73390D02*
G75*
G03*
X36215Y73390I-100J0D01*
G01*
X36315Y71670D02*
G75*
G03*
X36315Y71670I-200J0D01*
G01*
X36215Y72120D02*
G75*
G03*
X36215Y72120I-100J0D01*
G01*
X36315Y69140D02*
G75*
G03*
X36315Y69140I-200J0D01*
G01*
X36215Y68690D02*
G75*
G03*
X36215Y68690I-100J0D01*
G01*
X36315Y70400D02*
G75*
G03*
X36315Y70400I-200J0D01*
G01*
X36215Y69950D02*
G75*
G03*
X36215Y69950I-100J0D01*
G01*
X15675Y176770D02*
G75*
G03*
X15675Y176770I-200J0D01*
G01*
X15575Y177220D02*
G75*
G03*
X15575Y177220I-100J0D01*
G01*
X15675Y175810D02*
G75*
G03*
X15675Y175810I-200J0D01*
G01*
X15575Y176260D02*
G75*
G03*
X15575Y176260I-100J0D01*
G01*
X31565Y95190D02*
G75*
G03*
X31565Y95190I-200J0D01*
G01*
X31015Y95190D02*
G75*
G03*
X31015Y95190I-100J0D01*
G01*
X41065Y161190D02*
G75*
G03*
X41065Y161190I-200J0D01*
G01*
X41415Y161190D02*
G75*
G03*
X41415Y161190I-100J0D01*
G01*
X15675Y173910D02*
G75*
G03*
X15675Y173910I-200J0D01*
G01*
X16225Y173410D02*
G75*
G03*
X16225Y173410I-100J0D01*
G01*
X36315Y87590D02*
G75*
G03*
X36315Y87590I-200J0D01*
G01*
X37415Y89490D02*
G75*
G03*
X37415Y89490I-100J0D01*
G01*
X36315Y168790D02*
G75*
G03*
X36315Y168790I-200J0D01*
G01*
X35015Y166890D02*
G75*
G03*
X35015Y166890I-100J0D01*
G01*
X76635Y164390D02*
G75*
G03*
X76635Y164390I-200J0D01*
G01*
X75135Y164390D02*
G75*
G03*
X75135Y164390I-100J0D01*
G01*
X80445Y164390D02*
G75*
G03*
X80445Y164390I-200J0D01*
G01*
X81745Y164390D02*
G75*
G03*
X81745Y164390I-100J0D01*
G01*
X84255Y164390D02*
G75*
G03*
X84255Y164390I-200J0D01*
G01*
X82755Y164390D02*
G75*
G03*
X82755Y164390I-100J0D01*
G01*
X88065Y164390D02*
G75*
G03*
X88065Y164390I-200J0D01*
G01*
X89365Y164390D02*
G75*
G03*
X89365Y164390I-100J0D01*
G01*
X89015Y88820D02*
G75*
G03*
X89015Y88820I-200J0D01*
G01*
X88915Y88370D02*
G75*
G03*
X88915Y88370I-100J0D01*
G01*
X102995Y147240D02*
G75*
G03*
X102995Y147240I-200J0D01*
G01*
X102895Y147690D02*
G75*
G03*
X102895Y147690I-100J0D01*
G01*
X107755Y88180D02*
G75*
G03*
X107755Y88180I-200J0D01*
G01*
X107655Y88630D02*
G75*
G03*
X107655Y88630I-100J0D01*
G01*
X107755Y85650D02*
G75*
G03*
X107755Y85650I-200J0D01*
G01*
X107655Y86100D02*
G75*
G03*
X107655Y86100I-100J0D01*
G01*
X112195Y88180D02*
G75*
G03*
X112195Y88180I-200J0D01*
G01*
X112095Y88630D02*
G75*
G03*
X112095Y88630I-100J0D01*
G01*
X112195Y85650D02*
G75*
G03*
X112195Y85650I-200J0D01*
G01*
X112095Y86100D02*
G75*
G03*
X112095Y86100I-100J0D01*
G01*
X84255Y147880D02*
G75*
G03*
X84255Y147880I-200J0D01*
G01*
X84155Y147430D02*
G75*
G03*
X84155Y147430I-100J0D01*
G01*
X84255Y150410D02*
G75*
G03*
X84255Y150410I-200J0D01*
G01*
X84155Y149960D02*
G75*
G03*
X84155Y149960I-100J0D01*
G01*
X79815Y147880D02*
G75*
G03*
X79815Y147880I-200J0D01*
G01*
X79715Y147430D02*
G75*
G03*
X79715Y147430I-100J0D01*
G01*
X79815Y150410D02*
G75*
G03*
X79815Y150410I-200J0D01*
G01*
X79715Y149960D02*
G75*
G03*
X79715Y149960I-100J0D01*
G01*
X80955Y83740D02*
G75*
G03*
X80955Y83740I-200J0D01*
G01*
X80855Y84190D02*
G75*
G03*
X80855Y84190I-100J0D01*
G01*
X80955Y84690D02*
G75*
G03*
X80955Y84690I-200J0D01*
G01*
X80855Y85140D02*
G75*
G03*
X80855Y85140I-100J0D01*
G01*
X86475Y85160D02*
G75*
G03*
X86475Y85160I-200J0D01*
G01*
X86825Y85160D02*
G75*
G03*
X86825Y85160I-100J0D01*
G01*
X111055Y152320D02*
G75*
G03*
X111055Y152320I-200J0D01*
G01*
X110955Y151870D02*
G75*
G03*
X110955Y151870I-100J0D01*
G01*
X111055Y151370D02*
G75*
G03*
X111055Y151370I-200J0D01*
G01*
X110955Y150920D02*
G75*
G03*
X110955Y150920I-100J0D01*
G01*
X105535Y150920D02*
G75*
G03*
X105535Y150920I-200J0D01*
G01*
X104985Y150920D02*
G75*
G03*
X104985Y150920I-100J0D01*
G01*
X99815Y164700D02*
G75*
G03*
X99815Y164700I-200J0D01*
G01*
X99715Y164100D02*
G75*
G03*
X99715Y164100I-100J0D01*
G01*
X102355Y164700D02*
G75*
G03*
X102355Y164700I-200J0D01*
G01*
X102255Y165300D02*
G75*
G03*
X102255Y165300I-100J0D01*
G01*
X104265Y88820D02*
G75*
G03*
X104265Y88820I-200J0D01*
G01*
X104615Y88820D02*
G75*
G03*
X104615Y88820I-100J0D01*
G01*
X87745Y148510D02*
G75*
G03*
X87745Y148510I-200J0D01*
G01*
X87195Y148510D02*
G75*
G03*
X87195Y148510I-100J0D01*
G01*
X91555Y153270D02*
G75*
G03*
X91555Y153270I-200J0D01*
G01*
X91455Y152820D02*
G75*
G03*
X91455Y152820I-100J0D01*
G01*
X113465Y162480D02*
G75*
G03*
X113465Y162480I-200J0D01*
G01*
X113815Y162480D02*
G75*
G03*
X113815Y162480I-100J0D01*
G01*
X111265Y162480D02*
G75*
G03*
X111265Y162480I-200J0D01*
G01*
X111615Y162480D02*
G75*
G03*
X111615Y162480I-100J0D01*
G01*
X86475Y157400D02*
G75*
G03*
X86475Y157400I-200J0D01*
G01*
X85925Y157400D02*
G75*
G03*
X85925Y157400I-100J0D01*
G01*
X83935Y84690D02*
G75*
G03*
X83935Y84690I-200J0D01*
G01*
X84775Y85858D02*
G75*
G03*
X84775Y85858I-100J0D01*
G01*
X108075Y151370D02*
G75*
G03*
X108075Y151370I-200J0D01*
G01*
X107035Y150202D02*
G75*
G03*
X107035Y150202I-100J0D01*
G01*
X106165Y165020D02*
G75*
G03*
X106165Y165020I-200J0D01*
G01*
X105615Y165020D02*
G75*
G03*
X105615Y165020I-100J0D01*
G01*
X104265Y161850D02*
G75*
G03*
X104265Y161850I-200J0D01*
G01*
X104765Y161850D02*
G75*
G03*
X104765Y161850I-100J0D01*
G01*
X73775Y146610D02*
G75*
G03*
X73775Y146610I-200J0D01*
G01*
X69865Y149785D02*
G75*
G03*
X69865Y149785I-100J0D01*
G01*
X73775Y89450D02*
G75*
G03*
X73775Y89450I-200J0D01*
G01*
X77485Y86275D02*
G75*
G03*
X77485Y86275I-100J0D01*
G01*
X118235Y146610D02*
G75*
G03*
X118235Y146610I-200J0D01*
G01*
X114325Y149785D02*
G75*
G03*
X114325Y149785I-100J0D01*
G01*
X118235Y89450D02*
G75*
G03*
X118235Y89450I-200J0D01*
G01*
X121945Y86275D02*
G75*
G03*
X121945Y86275I-100J0D01*
G01*
X115055Y79930D02*
G75*
G03*
X115055Y79930I-200J0D01*
G01*
X114955Y78430D02*
G75*
G03*
X114955Y78430I-100J0D01*
G01*
X115055Y82470D02*
G75*
G03*
X115055Y82470I-200J0D01*
G01*
X114955Y80970D02*
G75*
G03*
X114955Y80970I-100J0D01*
G01*
X76955Y82470D02*
G75*
G03*
X76955Y82470I-200J0D01*
G01*
X76855Y83970D02*
G75*
G03*
X76855Y83970I-100J0D01*
G01*
X76955Y79930D02*
G75*
G03*
X76955Y79930I-200J0D01*
G01*
X76855Y81430D02*
G75*
G03*
X76855Y81430I-100J0D01*
G01*
X85215Y115170D02*
G75*
G03*
X85215Y115170I-200J0D01*
G01*
X85115Y114720D02*
G75*
G03*
X85115Y114720I-100J0D01*
G01*
X85215Y134220D02*
G75*
G03*
X85215Y134220I-200J0D01*
G01*
X85115Y133770D02*
G75*
G03*
X85115Y133770I-100J0D01*
G01*
X106795Y120890D02*
G75*
G03*
X106795Y120890I-200J0D01*
G01*
X106695Y121340D02*
G75*
G03*
X106695Y121340I-100J0D01*
G01*
X106795Y101840D02*
G75*
G03*
X106795Y101840I-200J0D01*
G01*
X106695Y102290D02*
G75*
G03*
X106695Y102290I-100J0D01*
G01*
X87115Y100250D02*
G75*
G03*
X87115Y100250I-200J0D01*
G01*
X86565Y100250D02*
G75*
G03*
X86565Y100250I-100J0D01*
G01*
X104895Y135810D02*
G75*
G03*
X104895Y135810I-200J0D01*
G01*
X105245Y135810D02*
G75*
G03*
X105245Y135810I-100J0D01*
G01*
X73275Y76560D02*
G75*
G03*
X73275Y76560I-200J0D01*
G01*
X73175Y76110D02*
G75*
G03*
X73175Y76110I-100J0D01*
G01*
X96955Y152320D02*
G75*
G03*
X96955Y152320I-200J0D01*
G01*
X97305Y152320D02*
G75*
G03*
X97305Y152320I-100J0D01*
G01*
X118675Y78020D02*
G75*
G03*
X118675Y78020I-200J0D01*
G01*
X119025Y78020D02*
G75*
G03*
X119025Y78020I-100J0D01*
G01*
X91875Y147240D02*
G75*
G03*
X91875Y147240I-200J0D01*
G01*
X91325Y147240D02*
G75*
G03*
X91325Y147240I-100J0D01*
G01*
X92825Y147240D02*
G75*
G03*
X92825Y147240I-200J0D01*
G01*
X93175Y147240D02*
G75*
G03*
X93175Y147240I-100J0D01*
G01*
X100135Y88820D02*
G75*
G03*
X100135Y88820I-200J0D01*
G01*
X100485Y88820D02*
G75*
G03*
X100485Y88820I-100J0D01*
G01*
X99185Y88820D02*
G75*
G03*
X99185Y88820I-200J0D01*
G01*
X98635Y88820D02*
G75*
G03*
X98635Y88820I-100J0D01*
G01*
X95055Y119940D02*
G75*
G03*
X95055Y119940I-200J0D01*
G01*
X94955Y119490D02*
G75*
G03*
X94955Y119490I-100J0D01*
G01*
X96955Y119940D02*
G75*
G03*
X96955Y119940I-200J0D01*
G01*
X96855Y119490D02*
G75*
G03*
X96855Y119490I-100J0D01*
G01*
X92515Y85650D02*
G75*
G03*
X92515Y85650I-200J0D01*
G01*
X92415Y86100D02*
G75*
G03*
X92415Y86100I-100J0D01*
G01*
X90605Y85650D02*
G75*
G03*
X90605Y85650I-200J0D01*
G01*
X90505Y86100D02*
G75*
G03*
X90505Y86100I-100J0D01*
G01*
X98545Y126920D02*
G75*
G03*
X98545Y126920I-200J0D01*
G01*
X97995Y126920D02*
G75*
G03*
X97995Y126920I-100J0D01*
G01*
X97595Y126920D02*
G75*
G03*
X97595Y126920I-200J0D01*
G01*
X97045Y126920D02*
G75*
G03*
X97045Y126920I-100J0D01*
G01*
X95055Y126920D02*
G75*
G03*
X95055Y126920I-200J0D01*
G01*
X94505Y126920D02*
G75*
G03*
X94505Y126920I-100J0D01*
G01*
X96005Y126920D02*
G75*
G03*
X96005Y126920I-200J0D01*
G01*
X95455Y126920D02*
G75*
G03*
X95455Y126920I-100J0D01*
G01*
X91245Y90730D02*
G75*
G03*
X91245Y90730I-200J0D01*
G01*
X91145Y90280D02*
G75*
G03*
X91145Y90280I-100J0D01*
G01*
X91245Y91680D02*
G75*
G03*
X91245Y91680I-200J0D01*
G01*
X91145Y91230D02*
G75*
G03*
X91145Y91230I-100J0D01*
G01*
X89015Y89770D02*
G75*
G03*
X89015Y89770I-200J0D01*
G01*
X88915Y90220D02*
G75*
G03*
X88915Y90220I-100J0D01*
G01*
X89015Y90730D02*
G75*
G03*
X89015Y90730I-200J0D01*
G01*
X88915Y91180D02*
G75*
G03*
X88915Y91180I-100J0D01*
G01*
X89015Y91680D02*
G75*
G03*
X89015Y91680I-200J0D01*
G01*
X88915Y92130D02*
G75*
G03*
X88915Y92130I-100J0D01*
G01*
X100765Y145330D02*
G75*
G03*
X100765Y145330I-200J0D01*
G01*
X100665Y145780D02*
G75*
G03*
X100665Y145780I-100J0D01*
G01*
X100765Y144380D02*
G75*
G03*
X100765Y144380I-200J0D01*
G01*
X100665Y144830D02*
G75*
G03*
X100665Y144830I-100J0D01*
G01*
X102995Y146290D02*
G75*
G03*
X102995Y146290I-200J0D01*
G01*
X102895Y145840D02*
G75*
G03*
X102895Y145840I-100J0D01*
G01*
X102995Y145330D02*
G75*
G03*
X102995Y145330I-200J0D01*
G01*
X102895Y144880D02*
G75*
G03*
X102895Y144880I-100J0D01*
G01*
X102995Y144380D02*
G75*
G03*
X102995Y144380I-200J0D01*
G01*
X102895Y143930D02*
G75*
G03*
X102895Y143930I-100J0D01*
G01*
X96005Y125020D02*
G75*
G03*
X96005Y125020I-200J0D01*
G01*
X96355Y125020D02*
G75*
G03*
X96355Y125020I-100J0D01*
G01*
X95055Y125020D02*
G75*
G03*
X95055Y125020I-200J0D01*
G01*
X95405Y125020D02*
G75*
G03*
X95405Y125020I-100J0D01*
G01*
X119185Y156130D02*
G75*
G03*
X119185Y156130I-200J0D01*
G01*
X119085Y155680D02*
G75*
G03*
X119085Y155680I-100J0D01*
G01*
X84255Y155500D02*
G75*
G03*
X84255Y155500I-200J0D01*
G01*
X84155Y155050D02*
G75*
G03*
X84155Y155050I-100J0D01*
G01*
X87115Y155500D02*
G75*
G03*
X87115Y155500I-200J0D01*
G01*
X87015Y155050D02*
G75*
G03*
X87015Y155050I-100J0D01*
G01*
X84255Y154540D02*
G75*
G03*
X84255Y154540I-200J0D01*
G01*
X84155Y154090D02*
G75*
G03*
X84155Y154090I-100J0D01*
G01*
X84255Y160260D02*
G75*
G03*
X84255Y160260I-200J0D01*
G01*
X84155Y159810D02*
G75*
G03*
X84155Y159810I-100J0D01*
G01*
X89335Y153270D02*
G75*
G03*
X89335Y153270I-200J0D01*
G01*
X89235Y152820D02*
G75*
G03*
X89235Y152820I-100J0D01*
G01*
X92195Y158670D02*
G75*
G03*
X92195Y158670I-200J0D01*
G01*
X92545Y158670D02*
G75*
G03*
X92545Y158670I-100J0D01*
G01*
X90925Y158670D02*
G75*
G03*
X90925Y158670I-200J0D01*
G01*
X91275Y158670D02*
G75*
G03*
X91275Y158670I-100J0D01*
G01*
X110165Y162480D02*
G75*
G03*
X110165Y162480I-200J0D01*
G01*
X110515Y162480D02*
G75*
G03*
X110515Y162480I-100J0D01*
G01*
X114555Y162480D02*
G75*
G03*
X114555Y162480I-200J0D01*
G01*
X114905Y162480D02*
G75*
G03*
X114905Y162480I-100J0D01*
G01*
X115665Y162480D02*
G75*
G03*
X115665Y162480I-200J0D01*
G01*
X116015Y162480D02*
G75*
G03*
X116015Y162480I-100J0D01*
G01*
X107965Y162480D02*
G75*
G03*
X107965Y162480I-200J0D01*
G01*
X108315Y162480D02*
G75*
G03*
X108315Y162480I-100J0D01*
G01*
X87745Y157400D02*
G75*
G03*
X87745Y157400I-200J0D01*
G01*
X87195Y157400D02*
G75*
G03*
X87195Y157400I-100J0D01*
G01*
X70605Y78020D02*
G75*
G03*
X70605Y78020I-200J0D01*
G01*
X71955Y77020D02*
G75*
G03*
X71955Y77020I-100J0D01*
G01*
X121405Y78020D02*
G75*
G03*
X121405Y78020I-200J0D01*
G01*
X119855Y79020D02*
G75*
G03*
X119855Y79020I-100J0D01*
G01*
X88065Y97070D02*
G75*
G03*
X88065Y97070I-200J0D01*
G01*
X86515Y98070D02*
G75*
G03*
X86515Y98070I-100J0D01*
G01*
X109975Y102790D02*
G75*
G03*
X109975Y102790I-200J0D01*
G01*
X110875Y104240D02*
G75*
G03*
X110875Y104240I-100J0D01*
G01*
X82035Y114220D02*
G75*
G03*
X82035Y114220I-200J0D01*
G01*
X80935Y112770D02*
G75*
G03*
X80935Y112770I-100J0D01*
G01*
X109975Y121840D02*
G75*
G03*
X109975Y121840I-200J0D01*
G01*
X110875Y123290D02*
G75*
G03*
X110875Y123290I-100J0D01*
G01*
X82035Y133270D02*
G75*
G03*
X82035Y133270I-200J0D01*
G01*
X80935Y131820D02*
G75*
G03*
X80935Y131820I-100J0D01*
G01*
X103945Y138990D02*
G75*
G03*
X103945Y138990I-200J0D01*
G01*
X105295Y137990D02*
G75*
G03*
X105295Y137990I-100J0D01*
G01*
X96005Y155500D02*
G75*
G03*
X96005Y155500I-200J0D01*
G01*
X97355Y154500D02*
G75*
G03*
X97355Y154500I-100J0D01*
G01*
X100915Y161850D02*
G75*
G03*
X100915Y161850I-200J0D01*
G01*
X99665Y162915D02*
G75*
G03*
X99665Y162915I-100J0D01*
G01*
X94735Y138350D02*
G75*
G03*
X94735Y138350I-200J0D01*
G01*
X97535Y136325D02*
G75*
G03*
X97535Y136325I-100J0D01*
G01*
X118235Y158670D02*
G75*
G03*
X118235Y158670I-200J0D01*
G01*
X116738Y157933D02*
G75*
G03*
X116738Y157933I-100J0D01*
G01*
X91565Y155810D02*
G75*
G03*
X91565Y155810I-200J0D01*
G01*
X91536Y155032D02*
G75*
G03*
X91536Y155032I-100J0D01*
G01*
X84255Y157400D02*
G75*
G03*
X84255Y157400I-200J0D01*
G01*
X83655Y156910D02*
G75*
G03*
X83655Y156910I-100J0D01*
G01*
X96005Y118030D02*
G75*
G03*
X96005Y118030I-200J0D01*
G01*
X115505Y93804D02*
G75*
G03*
X115505Y93804I-100J0D01*
G01*
X76955Y10715D02*
G75*
G03*
X76955Y10715I-200J0D01*
G01*
X76855Y9815D02*
G75*
G03*
X76855Y9815I-100J0D01*
G01*
X116965Y61515D02*
G75*
G03*
X116965Y61515I-200J0D01*
G01*
X116865Y62415D02*
G75*
G03*
X116865Y62415I-100J0D01*
G01*
X76955Y61515D02*
G75*
G03*
X76955Y61515I-200J0D01*
G01*
X76855Y62415D02*
G75*
G03*
X76855Y62415I-100J0D01*
G01*
X115055Y61515D02*
G75*
G03*
X115055Y61515I-200J0D01*
G01*
X114955Y62415D02*
G75*
G03*
X114955Y62415I-100J0D01*
G01*
X75045Y10715D02*
G75*
G03*
X75045Y10715I-200J0D01*
G01*
X74945Y9815D02*
G75*
G03*
X74945Y9815I-100J0D01*
G01*
X115055Y10715D02*
G75*
G03*
X115055Y10715I-200J0D01*
G01*
X114955Y9815D02*
G75*
G03*
X114955Y9815I-100J0D01*
G01*
X75045Y61515D02*
G75*
G03*
X75045Y61515I-200J0D01*
G01*
X74945Y62415D02*
G75*
G03*
X74945Y62415I-100J0D01*
G01*
X116965Y10715D02*
G75*
G03*
X116965Y10715I-200J0D01*
G01*
X116865Y9815D02*
G75*
G03*
X116865Y9815I-100J0D01*
G01*
X118235Y36115D02*
G75*
G03*
X118235Y36115I-200J0D01*
G01*
X115535Y50865D02*
G75*
G03*
X115535Y50865I-100J0D01*
G01*
X73775Y36115D02*
G75*
G03*
X73775Y36115I-200J0D01*
G01*
X76275Y21365D02*
G75*
G03*
X76275Y21365I-100J0D01*
G01*
X61395Y56435D02*
G75*
G03*
X61395Y56435I-200J0D01*
G01*
X61695Y56435D02*
G75*
G03*
X61695Y56435I-100J0D01*
G01*
X21035Y19985D02*
G75*
G03*
X21035Y19985I-200J0D01*
G01*
X20935Y20385D02*
G75*
G03*
X20935Y20385I-100J0D01*
G01*
X22175Y26845D02*
G75*
G03*
X22175Y26845I-200J0D01*
G01*
X22075Y26445D02*
G75*
G03*
X22075Y26445I-100J0D01*
G01*
X53295Y44995D02*
G75*
G03*
X53295Y44995I-200J0D01*
G01*
X52795Y44995D02*
G75*
G03*
X52795Y44995I-100J0D01*
G01*
X52155Y45385D02*
G75*
G03*
X52155Y45385I-200J0D01*
G01*
X52055Y45785D02*
G75*
G03*
X52055Y45785I-100J0D01*
G01*
X21415Y26845D02*
G75*
G03*
X21415Y26845I-200J0D01*
G01*
X21315Y26445D02*
G75*
G03*
X21315Y26445I-100J0D01*
G01*
X23705Y26845D02*
G75*
G03*
X23705Y26845I-200J0D01*
G01*
X23605Y26445D02*
G75*
G03*
X23605Y26445I-100J0D01*
G01*
X53165Y19985D02*
G75*
G03*
X53165Y19985I-200J0D01*
G01*
X53065Y20385D02*
G75*
G03*
X53065Y20385I-100J0D01*
G01*
X53165Y26845D02*
G75*
G03*
X53165Y26845I-200J0D01*
G01*
X53065Y26445D02*
G75*
G03*
X53065Y26445I-100J0D01*
G01*
X17985Y45385D02*
G75*
G03*
X17985Y45385I-200J0D01*
G01*
X17885Y44985D02*
G75*
G03*
X17885Y44985I-100J0D01*
G01*
X17105Y19985D02*
G75*
G03*
X17105Y19985I-200J0D01*
G01*
X17005Y19585D02*
G75*
G03*
X17005Y19585I-100J0D01*
G01*
X52025Y19985D02*
G75*
G03*
X52025Y19985I-200J0D01*
G01*
X51925Y19585D02*
G75*
G03*
X51925Y19585I-100J0D01*
G01*
X22945Y26845D02*
G75*
G03*
X22945Y26845I-200J0D01*
G01*
X22845Y27245D02*
G75*
G03*
X22845Y27245I-100J0D01*
G01*
X17105Y26845D02*
G75*
G03*
X17105Y26845I-200J0D01*
G01*
X17005Y27245D02*
G75*
G03*
X17005Y27245I-100J0D01*
G01*
X19515Y45385D02*
G75*
G03*
X19515Y45385I-200J0D01*
G01*
X19415Y44985D02*
G75*
G03*
X19415Y44985I-100J0D01*
G01*
X19635Y52245D02*
G75*
G03*
X19635Y52245I-200J0D01*
G01*
X19535Y52645D02*
G75*
G03*
X19535Y52645I-100J0D01*
G01*
X19515Y19985D02*
G75*
G03*
X19515Y19985I-200J0D01*
G01*
X19415Y20385D02*
G75*
G03*
X19415Y20385I-100J0D01*
G01*
X18755Y19985D02*
G75*
G03*
X18755Y19985I-200J0D01*
G01*
X18655Y20385D02*
G75*
G03*
X18655Y20385I-100J0D01*
G01*
X22175Y52245D02*
G75*
G03*
X22175Y52245I-200J0D01*
G01*
X22075Y51845D02*
G75*
G03*
X22075Y51845I-100J0D01*
G01*
X28525Y52245D02*
G75*
G03*
X28525Y52245I-200J0D01*
G01*
X28425Y51845D02*
G75*
G03*
X28425Y51845I-100J0D01*
G01*
X35135Y52245D02*
G75*
G03*
X35135Y52245I-200J0D01*
G01*
X35035Y51845D02*
G75*
G03*
X35035Y51845I-100J0D01*
G01*
X43775Y52245D02*
G75*
G03*
X43775Y52245I-200J0D01*
G01*
X43675Y51845D02*
G75*
G03*
X43675Y51845I-100J0D01*
G01*
X48855Y52245D02*
G75*
G03*
X48855Y52245I-200J0D01*
G01*
X48755Y51845D02*
G75*
G03*
X48755Y51845I-100J0D01*
G01*
X20275Y19985D02*
G75*
G03*
X20275Y19985I-200J0D01*
G01*
X20175Y20385D02*
G75*
G03*
X20175Y20385I-100J0D01*
G01*
X28525Y19985D02*
G75*
G03*
X28525Y19985I-200J0D01*
G01*
X28425Y20385D02*
G75*
G03*
X28425Y20385I-100J0D01*
G01*
X34875Y19985D02*
G75*
G03*
X34875Y19985I-200J0D01*
G01*
X34775Y20385D02*
G75*
G03*
X34775Y20385I-100J0D01*
G01*
X36145Y19985D02*
G75*
G03*
X36145Y19985I-200J0D01*
G01*
X36045Y20385D02*
G75*
G03*
X36045Y20385I-100J0D01*
G01*
X43775Y19985D02*
G75*
G03*
X43775Y19985I-200J0D01*
G01*
X43675Y20385D02*
G75*
G03*
X43675Y20385I-100J0D01*
G01*
X48855Y19985D02*
G75*
G03*
X48855Y19985I-200J0D01*
G01*
X48755Y20385D02*
G75*
G03*
X48755Y20385I-100J0D01*
G01*
X50125Y19985D02*
G75*
G03*
X50125Y19985I-200J0D01*
G01*
X50025Y20385D02*
G75*
G03*
X50025Y20385I-100J0D01*
G01*
X35895Y52245D02*
G75*
G03*
X35895Y52245I-200J0D01*
G01*
X35795Y51845D02*
G75*
G03*
X35795Y51845I-100J0D01*
G01*
X17225Y45385D02*
G75*
G03*
X17225Y45385I-200J0D01*
G01*
X17125Y45785D02*
G75*
G03*
X17125Y45785I-100J0D01*
G01*
X17225Y52245D02*
G75*
G03*
X17225Y52245I-200J0D01*
G01*
X17125Y51845D02*
G75*
G03*
X17125Y51845I-100J0D01*
G01*
X51395Y52245D02*
G75*
G03*
X51395Y52245I-200J0D01*
G01*
X51295Y51845D02*
G75*
G03*
X51295Y51845I-100J0D01*
G01*
X51395Y26845D02*
G75*
G03*
X51395Y26845I-200J0D01*
G01*
X51295Y26445D02*
G75*
G03*
X51295Y26445I-100J0D01*
G01*
X53935Y26845D02*
G75*
G03*
X53935Y26845I-200J0D01*
G01*
X53835Y26445D02*
G75*
G03*
X53835Y26445I-100J0D01*
G01*
X53935Y19985D02*
G75*
G03*
X53935Y19985I-200J0D01*
G01*
X53835Y20385D02*
G75*
G03*
X53835Y20385I-100J0D01*
G01*
X21795Y45385D02*
G75*
G03*
X21795Y45385I-200J0D01*
G01*
X21695Y45785D02*
G75*
G03*
X21695Y45785I-100J0D01*
G01*
X48345Y45385D02*
G75*
G03*
X48345Y45385I-200J0D01*
G01*
X48245Y45785D02*
G75*
G03*
X48245Y45785I-100J0D01*
G01*
X49105Y45385D02*
G75*
G03*
X49105Y45385I-200J0D01*
G01*
X49005Y45785D02*
G75*
G03*
X49005Y45785I-100J0D01*
G01*
X19135Y26845D02*
G75*
G03*
X19135Y26845I-200J0D01*
G01*
X19035Y26445D02*
G75*
G03*
X19035Y26445I-100J0D01*
G01*
X48855Y26845D02*
G75*
G03*
X48855Y26845I-200J0D01*
G01*
X48755Y26445D02*
G75*
G03*
X48755Y26445I-100J0D01*
G01*
X49615Y26845D02*
G75*
G03*
X49615Y26845I-200J0D01*
G01*
X49515Y26445D02*
G75*
G03*
X49515Y26445I-100J0D01*
G01*
X50625Y26845D02*
G75*
G03*
X50625Y26845I-200J0D01*
G01*
X50525Y26445D02*
G75*
G03*
X50525Y26445I-100J0D01*
G01*
X18755Y45385D02*
G75*
G03*
X18755Y45385I-200J0D01*
G01*
X18655Y45785D02*
G75*
G03*
X18655Y45785I-100J0D01*
G01*
X20405Y52245D02*
G75*
G03*
X20405Y52245I-200J0D01*
G01*
X20305Y51845D02*
G75*
G03*
X20305Y51845I-100J0D01*
G01*
X61085Y51355D02*
G75*
G03*
X61085Y51355I-200J0D01*
G01*
X60985Y50955D02*
G75*
G03*
X60985Y50955I-100J0D01*
G01*
X18875Y52245D02*
G75*
G03*
X18875Y52245I-200J0D01*
G01*
X18775Y51845D02*
G75*
G03*
X18775Y51845I-100J0D01*
G01*
X16465Y45385D02*
G75*
G03*
X16465Y45385I-200J0D01*
G01*
X16365Y45785D02*
G75*
G03*
X16365Y45785I-100J0D01*
G01*
X17865Y26845D02*
G75*
G03*
X17865Y26845I-200J0D01*
G01*
X17765Y26445D02*
G75*
G03*
X17765Y26445I-100J0D01*
G01*
X20655Y26845D02*
G75*
G03*
X20655Y26845I-200J0D01*
G01*
X20555Y26445D02*
G75*
G03*
X20555Y26445I-100J0D01*
G01*
X52155Y26845D02*
G75*
G03*
X52155Y26845I-200J0D01*
G01*
X52055Y26445D02*
G75*
G03*
X52055Y26445I-100J0D01*
G01*
X15355Y22145D02*
G75*
G03*
X15355Y22145I-200J0D01*
G01*
X14855Y22145D02*
G75*
G03*
X14855Y22145I-100J0D01*
G01*
X15355Y24685D02*
G75*
G03*
X15355Y24685I-200J0D01*
G01*
X14855Y24685D02*
G75*
G03*
X14855Y24685I-100J0D01*
G01*
X56765Y45385D02*
G75*
G03*
X56765Y45385I-200J0D01*
G01*
X56665Y44985D02*
G75*
G03*
X56665Y44985I-100J0D01*
G01*
X61845Y48815D02*
G75*
G03*
X61845Y48815I-200J0D01*
G01*
X61745Y48415D02*
G75*
G03*
X61745Y48415I-100J0D01*
G01*
X61845Y51355D02*
G75*
G03*
X61845Y51355I-200J0D01*
G01*
X61745Y50955D02*
G75*
G03*
X61745Y50955I-100J0D01*
G01*
X57525Y45385D02*
G75*
G03*
X57525Y45385I-200J0D01*
G01*
X57425Y44985D02*
G75*
G03*
X57425Y44985I-100J0D01*
G01*
X19895Y26845D02*
G75*
G03*
X19895Y26845I-200J0D01*
G01*
X19795Y26445D02*
G75*
G03*
X19795Y26445I-100J0D01*
G01*
X13205Y29125D02*
G75*
G03*
X13205Y29125I-200J0D01*
G01*
X13555Y29125D02*
G75*
G03*
X13555Y29125I-100J0D01*
G01*
X16465Y52245D02*
G75*
G03*
X16465Y52245I-200J0D01*
G01*
X16365Y51845D02*
G75*
G03*
X16365Y51845I-100J0D01*
G01*
X50625Y52245D02*
G75*
G03*
X50625Y52245I-200J0D01*
G01*
X50525Y51845D02*
G75*
G03*
X50525Y51845I-100J0D01*
G01*
X48085Y26845D02*
G75*
G03*
X48085Y26845I-200J0D01*
G01*
X47985Y26445D02*
G75*
G03*
X47985Y26445I-100J0D01*
G01*
X49865Y45385D02*
G75*
G03*
X49865Y45385I-200J0D01*
G01*
X49765Y45785D02*
G75*
G03*
X49765Y45785I-100J0D01*
G01*
X13205Y25955D02*
G75*
G03*
X13205Y25955I-200J0D01*
G01*
X12655Y25955D02*
G75*
G03*
X12655Y25955I-100J0D01*
G01*
X13205Y20235D02*
G75*
G03*
X13205Y20235I-200J0D01*
G01*
X12655Y20235D02*
G75*
G03*
X12655Y20235I-100J0D01*
G01*
X21415Y52245D02*
G75*
G03*
X21415Y52245I-200J0D01*
G01*
X21315Y51845D02*
G75*
G03*
X21315Y51845I-100J0D01*
G01*
X49615Y52245D02*
G75*
G03*
X49615Y52245I-200J0D01*
G01*
X49515Y51845D02*
G75*
G03*
X49515Y51845I-100J0D01*
G01*
X13205Y30655D02*
G75*
G03*
X13205Y30655I-200J0D01*
G01*
X14605Y30655D02*
G75*
G03*
X14605Y30655I-100J0D01*
G01*
X52665Y52495D02*
G75*
G03*
X52665Y52495I-200J0D01*
G01*
X52565Y51895D02*
G75*
G03*
X52565Y51895I-100J0D01*
G01*
X55205Y23415D02*
G75*
G03*
X55205Y23415I-200J0D01*
G01*
X55105Y22815D02*
G75*
G03*
X55105Y22815I-100J0D01*
G01*
X21035Y45385D02*
G75*
G03*
X21035Y45385I-200J0D01*
G01*
X20935Y45785D02*
G75*
G03*
X20935Y45785I-100J0D01*
G01*
X53965Y42085D02*
G75*
G03*
X53965Y42085I-200J0D01*
G01*
X53865Y42685D02*
G75*
G03*
X53865Y42685I-100J0D01*
G01*
X13205Y27475D02*
G75*
G03*
X13205Y27475I-200J0D01*
G01*
X11605Y27475D02*
G75*
G03*
X11605Y27475I-100J0D01*
G01*
X13205Y18715D02*
G75*
G03*
X13205Y18715I-200J0D01*
G01*
X11605Y18715D02*
G75*
G03*
X11605Y18715I-100J0D01*
G01*
X60695Y42085D02*
G75*
G03*
X60695Y42085I-200J0D01*
G01*
X60595Y42685D02*
G75*
G03*
X60595Y42685I-100J0D01*
G01*
X50885Y19985D02*
G75*
G03*
X50885Y19985I-200J0D01*
G01*
X50785Y20385D02*
G75*
G03*
X50785Y20385I-100J0D01*
G01*
X20275Y45385D02*
G75*
G03*
X20275Y45385I-200J0D01*
G01*
X20175Y45785D02*
G75*
G03*
X20175Y45785I-100J0D01*
G01*
X61465Y52625D02*
G75*
G03*
X61465Y52625I-200J0D01*
G01*
X61765Y52625D02*
G75*
G03*
X61765Y52625I-100J0D01*
G01*
X60005Y56815D02*
G75*
G03*
X60005Y56815I-200J0D01*
G01*
X59905Y56415D02*
G75*
G03*
X59905Y56415I-100J0D01*
G01*
X61395Y57195D02*
G75*
G03*
X61395Y57195I-200J0D01*
G01*
X61695Y57195D02*
G75*
G03*
X61695Y57195I-100J0D01*
G01*
X53295Y45775D02*
G75*
G03*
X53295Y45775I-200J0D01*
G01*
X52795Y45775D02*
G75*
G03*
X52795Y45775I-100J0D01*
G01*
X15745Y23415D02*
G75*
G03*
X15745Y23415I-200J0D01*
G01*
X15645Y23015D02*
G75*
G03*
X15645Y23015I-100J0D01*
G01*
X23065Y45765D02*
G75*
G03*
X23065Y45765I-200J0D01*
G01*
X23365Y45765D02*
G75*
G03*
X23365Y45765I-100J0D01*
G01*
X57775Y49705D02*
G75*
G03*
X57775Y49705I-200J0D01*
G01*
X56811Y50315D02*
G75*
G03*
X56811Y50315I-100J0D01*
G01*
X60195Y45895D02*
G75*
G03*
X60195Y45895I-200J0D01*
G01*
X59231Y46505D02*
G75*
G03*
X59231Y46505I-100J0D01*
G01*
X57775Y42085D02*
G75*
G03*
X57775Y42085I-200J0D01*
G01*
X56811Y42695D02*
G75*
G03*
X56811Y42695I-100J0D01*
G01*
X11865Y15795D02*
G75*
G03*
X11865Y15795I-200J0D01*
G01*
X10315Y16545D02*
G75*
G03*
X10315Y16545I-100J0D01*
G01*
X60505Y54785D02*
G75*
G03*
X60505Y54785I-200J0D01*
G01*
X59008Y55547D02*
G75*
G03*
X59008Y55547I-100J0D01*
G01*
X36315Y58345D02*
G75*
G03*
X36315Y58345I-200J0D01*
G01*
X53965Y60945D02*
G75*
G03*
X53965Y60945I-100J0D01*
G01*
X36315Y13885D02*
G75*
G03*
X36315Y13885I-200J0D01*
G01*
X18465Y11285D02*
G75*
G03*
X18465Y11285I-100J0D01*
M02*
