G75*
%MOIN*%
%OFA0B0*%
%FSLAX25Y25*%
%IPPOS*%
%LPD*%
%AMOC8*
5,1,8,0,0,1.08239X$1,22.5*
%
%ADD10C,0.01200*%
%ADD11C,0.01100*%
%ADD12C,0.01000*%
%ADD13C,0.00900*%
%ADD14C,0.00800*%
%ADD15C,0.00700*%
%ADD16C,0.00600*%
%ADD17C,0.00500*%
%ADD18C,0.00400*%
%ADD19C,0.00300*%
%ADD20C,0.00200*%
%ADD21C,0.00100*%
%ADD22C,0.01181*%
%ADD23C,0.00394*%
%ADD24C,0.01969*%
%ADD25C,0.02000*%
%ADD26C,0.01575*%
D10*
X0451229Y0110733D02*
X0453729Y0108233D01*
D11*
X0044318Y0066799D02*
X0043334Y0065815D01*
X0044318Y0066799D02*
X0044318Y0068767D01*
X0045302Y0067783D01*
X0046286Y0067783D01*
X0047271Y0068767D01*
X0047271Y0070736D01*
X0044318Y0070736D02*
X0044318Y0068767D01*
X0049779Y0068767D02*
X0049779Y0067783D01*
X0053716Y0067783D01*
X0049779Y0068767D02*
X0053716Y0072704D01*
X0053716Y0073688D01*
X0049779Y0073688D01*
X0451229Y0113233D02*
X0453729Y0110733D01*
D12*
X0453729Y0113233D02*
X0451229Y0115733D01*
X0439229Y0163233D02*
X0439229Y0193233D01*
D13*
X0451229Y0118233D02*
X0453729Y0115733D01*
D14*
X0453729Y0118233D02*
X0451229Y0120733D01*
X0434729Y0214733D02*
X0432729Y0214733D01*
X0421229Y0214733D02*
X0419229Y0214733D01*
X0408729Y0214733D02*
X0406729Y0214733D01*
X0384879Y0215024D02*
X0378580Y0215024D01*
X0378580Y0226442D02*
X0384879Y0226442D01*
X0384879Y0232524D02*
X0378580Y0232524D01*
X0378580Y0243942D02*
X0384879Y0243942D01*
X0349932Y0244883D02*
X0347129Y0244883D01*
X0347129Y0249087D01*
X0349932Y0249087D01*
X0348531Y0246985D02*
X0347129Y0246985D01*
X0345328Y0244883D02*
X0345328Y0249087D01*
X0342525Y0249087D02*
X0345328Y0244883D01*
X0342525Y0244883D02*
X0342525Y0249087D01*
X0312432Y0249087D02*
X0312432Y0244883D01*
X0309629Y0249087D01*
X0309629Y0244883D01*
X0307828Y0244883D02*
X0307828Y0249087D01*
X0305025Y0249087D02*
X0305025Y0244883D01*
X0307828Y0244883D02*
X0305025Y0249087D01*
X0274932Y0249087D02*
X0274932Y0244883D01*
X0273531Y0246284D01*
X0272129Y0244883D01*
X0272129Y0249087D01*
X0270328Y0249087D02*
X0270328Y0244883D01*
X0267525Y0249087D01*
X0267525Y0244883D01*
X0237432Y0244883D02*
X0237432Y0249087D01*
X0234629Y0249087D02*
X0234629Y0244883D01*
X0236031Y0246284D01*
X0237432Y0244883D01*
X0232828Y0244883D02*
X0232828Y0249087D01*
X0230025Y0249087D02*
X0230025Y0244883D01*
X0231427Y0246284D01*
X0232828Y0244883D01*
X0139879Y0141442D02*
X0133580Y0141442D01*
X0133580Y0130024D02*
X0139879Y0130024D01*
X0139879Y0123942D02*
X0133580Y0123942D01*
X0133580Y0112524D02*
X0139879Y0112524D01*
X0167525Y0110886D02*
X0167525Y0110185D01*
X0168226Y0109485D01*
X0169627Y0109485D01*
X0170328Y0108784D01*
X0170328Y0108084D01*
X0169627Y0107383D01*
X0168226Y0107383D01*
X0167525Y0108084D01*
X0167525Y0110886D02*
X0168226Y0111587D01*
X0169627Y0111587D01*
X0170328Y0110886D01*
X0172129Y0111587D02*
X0172129Y0107383D01*
X0173531Y0108784D01*
X0174932Y0107383D01*
X0174932Y0111587D01*
X0205025Y0110886D02*
X0205025Y0110185D01*
X0205726Y0109485D01*
X0207127Y0109485D01*
X0207828Y0108784D01*
X0207828Y0108084D01*
X0207127Y0107383D01*
X0205726Y0107383D01*
X0205025Y0108084D01*
X0205025Y0110886D02*
X0205726Y0111587D01*
X0207127Y0111587D01*
X0207828Y0110886D01*
X0209629Y0110886D02*
X0209629Y0110185D01*
X0210330Y0109485D01*
X0211731Y0109485D01*
X0212432Y0108784D01*
X0212432Y0108084D01*
X0211731Y0107383D01*
X0210330Y0107383D01*
X0209629Y0108084D01*
X0209629Y0110886D02*
X0210330Y0111587D01*
X0211731Y0111587D01*
X0212432Y0110886D01*
X0242525Y0110886D02*
X0242525Y0110185D01*
X0243226Y0109485D01*
X0244627Y0109485D01*
X0245328Y0108784D01*
X0245328Y0108084D01*
X0244627Y0107383D01*
X0243226Y0107383D01*
X0242525Y0108084D01*
X0242525Y0110886D02*
X0243226Y0111587D01*
X0244627Y0111587D01*
X0245328Y0110886D01*
X0247129Y0111587D02*
X0247129Y0107383D01*
X0249932Y0107383D01*
X0248531Y0109485D02*
X0247129Y0109485D01*
X0247129Y0111587D02*
X0249932Y0111587D01*
X0280025Y0111587D02*
X0280025Y0107383D01*
X0282828Y0107383D01*
X0284629Y0107383D02*
X0287432Y0107383D01*
X0286031Y0109485D02*
X0284629Y0109485D01*
X0284629Y0111587D02*
X0284629Y0107383D01*
X0281427Y0109485D02*
X0280025Y0109485D01*
X0280025Y0111587D02*
X0282828Y0111587D01*
X0284629Y0111587D02*
X0287432Y0111587D01*
D15*
X0451229Y0123233D02*
X0453729Y0120733D01*
D16*
X0453729Y0123233D02*
X0451229Y0125733D01*
X0393929Y0137361D02*
X0393195Y0136627D01*
X0393929Y0137361D02*
X0393929Y0138829D01*
X0393195Y0139563D01*
X0392461Y0139563D01*
X0391728Y0138829D01*
X0391728Y0137361D01*
X0390994Y0136627D01*
X0390260Y0136627D01*
X0389526Y0137361D01*
X0389526Y0138829D01*
X0390260Y0139563D01*
X0389526Y0141231D02*
X0389526Y0143433D01*
X0390260Y0144167D01*
X0393195Y0144167D01*
X0393929Y0143433D01*
X0393929Y0141231D01*
X0389526Y0141231D01*
X0390994Y0145835D02*
X0389526Y0147303D01*
X0393929Y0147303D01*
X0393929Y0145835D02*
X0393929Y0148771D01*
X0382179Y0131326D02*
X0382179Y0129058D01*
X0378776Y0129058D01*
X0378776Y0131326D01*
X0380478Y0130192D02*
X0380478Y0129058D01*
X0381045Y0127643D02*
X0381612Y0127643D01*
X0382179Y0127076D01*
X0382179Y0125942D01*
X0381612Y0125375D01*
X0380478Y0125942D02*
X0380478Y0127076D01*
X0381045Y0127643D01*
X0379344Y0127643D02*
X0378776Y0127076D01*
X0378776Y0125942D01*
X0379344Y0125375D01*
X0379911Y0125375D01*
X0380478Y0125942D01*
X0380478Y0123960D02*
X0380478Y0121691D01*
X0381045Y0120277D02*
X0381612Y0120277D01*
X0382179Y0119710D01*
X0382179Y0118008D01*
X0378776Y0118008D01*
X0378776Y0119710D01*
X0379344Y0120277D01*
X0379911Y0120277D01*
X0380478Y0119710D01*
X0380478Y0118008D01*
X0380478Y0116594D02*
X0381045Y0116027D01*
X0381045Y0114325D01*
X0382179Y0114325D02*
X0378776Y0114325D01*
X0378776Y0116027D01*
X0379344Y0116594D01*
X0380478Y0116594D01*
X0380478Y0119710D02*
X0381045Y0120277D01*
X0332629Y0124833D02*
X0332629Y0127033D01*
X0332629Y0134433D02*
X0332629Y0136633D01*
X0320829Y0136633D02*
X0320829Y0134433D01*
X0320829Y0127033D02*
X0320829Y0124833D01*
X0308429Y0126122D02*
X0308429Y0127257D01*
X0308429Y0126689D02*
X0305026Y0126689D01*
X0305026Y0126122D02*
X0305026Y0127257D01*
X0305594Y0128578D02*
X0307862Y0128578D01*
X0308429Y0129145D01*
X0308429Y0130279D01*
X0307862Y0130846D01*
X0305594Y0130846D01*
X0305026Y0130279D01*
X0305026Y0129145D01*
X0305594Y0128578D01*
X0305026Y0132261D02*
X0308429Y0132261D01*
X0308429Y0134529D01*
X0306728Y0133395D02*
X0306728Y0132261D01*
X0305026Y0132261D02*
X0305026Y0134529D01*
X0295129Y0134833D02*
X0292929Y0134833D01*
X0285529Y0134833D02*
X0283329Y0134833D01*
X0283329Y0146633D02*
X0285529Y0146633D01*
X0292929Y0146633D02*
X0295129Y0146633D01*
X0305026Y0155508D02*
X0305026Y0157210D01*
X0305594Y0157777D01*
X0306728Y0157777D01*
X0307295Y0157210D01*
X0307295Y0155508D01*
X0308429Y0155508D02*
X0305026Y0155508D01*
X0307295Y0156643D02*
X0308429Y0157777D01*
X0308429Y0159191D02*
X0305026Y0159191D01*
X0305026Y0161460D01*
X0305026Y0162875D02*
X0308429Y0162875D01*
X0308429Y0165143D01*
X0306728Y0164009D02*
X0306728Y0162875D01*
X0305026Y0162875D02*
X0305026Y0165143D01*
X0306728Y0160326D02*
X0306728Y0159191D01*
X0320829Y0157033D02*
X0320829Y0154833D01*
X0320829Y0164433D02*
X0320829Y0166633D01*
X0332629Y0166633D02*
X0332629Y0164433D01*
X0332629Y0157033D02*
X0332629Y0154833D01*
X0373629Y0192633D02*
X0374929Y0192633D01*
X0373629Y0192633D02*
X0373629Y0193933D01*
X0388529Y0192633D02*
X0389829Y0192633D01*
X0389829Y0193933D01*
X0389829Y0207533D02*
X0389829Y0208833D01*
X0388529Y0208833D01*
X0374929Y0208833D02*
X0373629Y0208833D01*
X0373629Y0207533D01*
X0347629Y0209833D02*
X0345429Y0209833D01*
X0338029Y0209833D02*
X0335829Y0209833D01*
X0335829Y0221633D02*
X0338029Y0221633D01*
X0345429Y0221633D02*
X0347629Y0221633D01*
X0310129Y0221633D02*
X0307929Y0221633D01*
X0300529Y0221633D02*
X0298329Y0221633D01*
X0298329Y0209833D02*
X0300529Y0209833D01*
X0307929Y0209833D02*
X0310129Y0209833D01*
X0272629Y0209833D02*
X0270429Y0209833D01*
X0263029Y0209833D02*
X0260829Y0209833D01*
X0260829Y0221633D02*
X0263029Y0221633D01*
X0270429Y0221633D02*
X0272629Y0221633D01*
X0235129Y0221633D02*
X0232929Y0221633D01*
X0225529Y0221633D02*
X0223329Y0221633D01*
X0213429Y0221689D02*
X0210026Y0221689D01*
X0210026Y0221122D02*
X0210026Y0222257D01*
X0210594Y0223578D02*
X0212862Y0223578D01*
X0213429Y0224145D01*
X0213429Y0225279D01*
X0212862Y0225846D01*
X0210594Y0225846D01*
X0210026Y0225279D01*
X0210026Y0224145D01*
X0210594Y0223578D01*
X0213429Y0222257D02*
X0213429Y0221122D01*
X0213429Y0227261D02*
X0212295Y0228395D01*
X0213429Y0229529D01*
X0210026Y0229529D01*
X0210026Y0227261D02*
X0213429Y0227261D01*
X0197629Y0229433D02*
X0197629Y0231633D01*
X0197629Y0222033D02*
X0197629Y0219833D01*
X0185829Y0219833D02*
X0185829Y0222033D01*
X0185829Y0229433D02*
X0185829Y0231633D01*
X0185829Y0201633D02*
X0185829Y0199433D01*
X0185829Y0192033D02*
X0185829Y0189833D01*
X0197629Y0189833D02*
X0197629Y0192033D01*
X0197629Y0199433D02*
X0197629Y0201633D01*
X0210026Y0200143D02*
X0213429Y0200143D01*
X0212295Y0199009D01*
X0213429Y0197875D01*
X0210026Y0197875D01*
X0210026Y0196460D02*
X0210026Y0194191D01*
X0213429Y0194191D01*
X0213429Y0192777D02*
X0212295Y0191643D01*
X0212295Y0192210D02*
X0212295Y0190508D01*
X0213429Y0190508D02*
X0210026Y0190508D01*
X0210026Y0192210D01*
X0210594Y0192777D01*
X0211728Y0192777D01*
X0212295Y0192210D01*
X0211728Y0194191D02*
X0211728Y0195326D01*
X0223329Y0209833D02*
X0225529Y0209833D01*
X0232929Y0209833D02*
X0235129Y0209833D01*
X0251129Y0186333D02*
X0251129Y0185033D01*
X0251129Y0186333D02*
X0252429Y0186333D01*
X0266029Y0186333D02*
X0267329Y0186333D01*
X0267329Y0185033D01*
X0267329Y0171433D02*
X0267329Y0170133D01*
X0266029Y0170133D01*
X0252429Y0170133D02*
X0251129Y0170133D01*
X0251129Y0171433D01*
X0248029Y0146633D02*
X0245829Y0146633D01*
X0255429Y0146633D02*
X0257629Y0146633D01*
X0257629Y0134833D02*
X0255429Y0134833D01*
X0248029Y0134833D02*
X0245829Y0134833D01*
X0220129Y0134833D02*
X0217929Y0134833D01*
X0210529Y0134833D02*
X0208329Y0134833D01*
X0208329Y0146633D02*
X0210529Y0146633D01*
X0217929Y0146633D02*
X0220129Y0146633D01*
X0182629Y0146633D02*
X0180429Y0146633D01*
X0173029Y0146633D02*
X0170829Y0146633D01*
X0170829Y0134833D02*
X0173029Y0134833D01*
X0180429Y0134833D02*
X0182629Y0134833D01*
X0144829Y0147633D02*
X0143529Y0147633D01*
X0144829Y0147633D02*
X0144829Y0148933D01*
X0129929Y0147633D02*
X0128629Y0147633D01*
X0128629Y0148933D01*
X0128629Y0162533D02*
X0128629Y0163833D01*
X0129929Y0163833D01*
X0132329Y0168233D02*
X0131129Y0169033D01*
X0130529Y0168733D01*
X0129629Y0171033D01*
X0130229Y0170733D02*
X0131229Y0172733D01*
X0130229Y0174233D01*
X0128729Y0174733D01*
X0127229Y0174233D01*
X0126729Y0172733D01*
X0127229Y0171233D01*
X0127729Y0170733D01*
X0126729Y0169233D01*
X0125229Y0168733D01*
X0124729Y0169233D01*
X0125729Y0170733D01*
X0124729Y0172233D01*
X0123729Y0172233D01*
X0123729Y0173233D01*
X0125229Y0173233D01*
X0125729Y0174733D01*
X0124729Y0176233D01*
X0125229Y0176733D01*
X0126729Y0175733D01*
X0128229Y0176733D01*
X0128229Y0177733D01*
X0129229Y0177733D01*
X0129729Y0176233D01*
X0131229Y0175733D01*
X0132229Y0176733D01*
X0132729Y0176233D01*
X0132229Y0174733D01*
X0132729Y0173233D01*
X0134229Y0173233D01*
X0133729Y0172233D01*
X0132229Y0171733D01*
X0132229Y0170233D01*
X0132729Y0169233D01*
X0132229Y0168733D01*
X0131229Y0169233D01*
X0130729Y0169233D01*
X0130229Y0170733D01*
X0130323Y0170452D02*
X0132229Y0170452D01*
X0132329Y0170433D02*
X0133229Y0169133D01*
X0132329Y0168233D01*
X0132718Y0169255D02*
X0130722Y0169255D01*
X0130522Y0169854D02*
X0132419Y0169854D01*
X0132329Y0170433D02*
X0132929Y0171733D01*
X0134329Y0172033D01*
X0134329Y0173333D01*
X0132829Y0173633D01*
X0132329Y0174833D01*
X0133229Y0176133D01*
X0132329Y0177033D01*
X0130929Y0176133D01*
X0129729Y0176633D01*
X0129429Y0178233D01*
X0128129Y0178233D01*
X0127829Y0176633D01*
X0126629Y0176133D01*
X0125329Y0177033D01*
X0124429Y0176133D01*
X0125329Y0174833D01*
X0124729Y0173533D01*
X0123229Y0173333D01*
X0123229Y0172033D01*
X0124729Y0171733D01*
X0125229Y0170433D01*
X0124429Y0169133D01*
X0125329Y0168233D01*
X0126529Y0169033D01*
X0127029Y0168733D01*
X0128029Y0171033D01*
X0127412Y0171051D02*
X0125517Y0171051D01*
X0125542Y0170452D02*
X0127542Y0170452D01*
X0127143Y0169854D02*
X0125143Y0169854D01*
X0124744Y0169255D02*
X0126744Y0169255D01*
X0127091Y0171649D02*
X0125118Y0171649D01*
X0123729Y0172248D02*
X0126891Y0172248D01*
X0126767Y0172846D02*
X0123729Y0172846D01*
X0125300Y0173445D02*
X0126967Y0173445D01*
X0127166Y0174043D02*
X0125500Y0174043D01*
X0125699Y0174642D02*
X0128456Y0174642D01*
X0129003Y0174642D02*
X0132260Y0174642D01*
X0132399Y0175241D02*
X0125391Y0175241D01*
X0124992Y0175839D02*
X0126570Y0175839D01*
X0126888Y0175839D02*
X0130912Y0175839D01*
X0131335Y0175839D02*
X0132598Y0175839D01*
X0132525Y0176438D02*
X0131934Y0176438D01*
X0129661Y0176438D02*
X0127786Y0176438D01*
X0128229Y0177036D02*
X0129462Y0177036D01*
X0129262Y0177635D02*
X0128229Y0177635D01*
X0125673Y0176438D02*
X0124934Y0176438D01*
X0128029Y0171033D02*
X0127955Y0171072D01*
X0127882Y0171115D01*
X0127812Y0171161D01*
X0127744Y0171211D01*
X0127678Y0171263D01*
X0127615Y0171319D01*
X0127555Y0171377D01*
X0127497Y0171438D01*
X0127443Y0171502D01*
X0127391Y0171568D01*
X0127343Y0171637D01*
X0127298Y0171708D01*
X0127256Y0171781D01*
X0127218Y0171856D01*
X0127183Y0171932D01*
X0127152Y0172010D01*
X0127124Y0172090D01*
X0127101Y0172171D01*
X0127081Y0172252D01*
X0127065Y0172335D01*
X0127053Y0172418D01*
X0127045Y0172502D01*
X0127041Y0172585D01*
X0127040Y0172670D01*
X0127044Y0172753D01*
X0127052Y0172837D01*
X0127063Y0172920D01*
X0127079Y0173003D01*
X0127098Y0173085D01*
X0127121Y0173166D01*
X0127148Y0173245D01*
X0127179Y0173324D01*
X0127213Y0173400D01*
X0127251Y0173475D01*
X0127292Y0173548D01*
X0127337Y0173620D01*
X0127385Y0173689D01*
X0127436Y0173755D01*
X0127490Y0173820D01*
X0127547Y0173881D01*
X0127607Y0173940D01*
X0127670Y0173996D01*
X0127735Y0174049D01*
X0127803Y0174099D01*
X0127873Y0174145D01*
X0127945Y0174188D01*
X0128019Y0174228D01*
X0128095Y0174264D01*
X0128172Y0174297D01*
X0128251Y0174326D01*
X0128331Y0174351D01*
X0128413Y0174373D01*
X0128495Y0174391D01*
X0128578Y0174404D01*
X0128661Y0174414D01*
X0128745Y0174420D01*
X0128829Y0174422D01*
X0128913Y0174420D01*
X0128997Y0174414D01*
X0129080Y0174404D01*
X0129163Y0174391D01*
X0129245Y0174373D01*
X0129327Y0174351D01*
X0129407Y0174326D01*
X0129486Y0174297D01*
X0129563Y0174264D01*
X0129639Y0174228D01*
X0129713Y0174188D01*
X0129785Y0174145D01*
X0129855Y0174099D01*
X0129923Y0174049D01*
X0129988Y0173996D01*
X0130051Y0173940D01*
X0130111Y0173881D01*
X0130168Y0173820D01*
X0130222Y0173755D01*
X0130273Y0173689D01*
X0130321Y0173620D01*
X0130366Y0173548D01*
X0130407Y0173475D01*
X0130445Y0173400D01*
X0130479Y0173324D01*
X0130510Y0173245D01*
X0130537Y0173166D01*
X0130560Y0173085D01*
X0130579Y0173003D01*
X0130595Y0172920D01*
X0130606Y0172837D01*
X0130614Y0172753D01*
X0130618Y0172670D01*
X0130617Y0172585D01*
X0130613Y0172502D01*
X0130605Y0172418D01*
X0130593Y0172335D01*
X0130577Y0172252D01*
X0130557Y0172171D01*
X0130534Y0172090D01*
X0130506Y0172010D01*
X0130475Y0171932D01*
X0130440Y0171856D01*
X0130402Y0171781D01*
X0130360Y0171708D01*
X0130315Y0171637D01*
X0130267Y0171568D01*
X0130215Y0171502D01*
X0130161Y0171438D01*
X0130103Y0171377D01*
X0130043Y0171319D01*
X0129980Y0171263D01*
X0129914Y0171211D01*
X0129846Y0171161D01*
X0129776Y0171115D01*
X0129703Y0171072D01*
X0129629Y0171033D01*
X0130388Y0171051D02*
X0132229Y0171051D01*
X0132229Y0171649D02*
X0130688Y0171649D01*
X0130987Y0172248D02*
X0133737Y0172248D01*
X0134036Y0172846D02*
X0131154Y0172846D01*
X0130755Y0173445D02*
X0132659Y0173445D01*
X0132459Y0174043D02*
X0130356Y0174043D01*
X0131029Y0187633D02*
X0132329Y0187633D01*
X0132329Y0188933D01*
X0132329Y0202533D02*
X0132329Y0203833D01*
X0131029Y0203833D01*
X0117429Y0203833D02*
X0116129Y0203833D01*
X0116129Y0202533D01*
X0116129Y0188933D02*
X0116129Y0187633D01*
X0117429Y0187633D01*
X0092629Y0184133D02*
X0092629Y0181933D01*
X0092629Y0174533D02*
X0092629Y0172333D01*
X0080829Y0172333D02*
X0080829Y0174533D01*
X0080829Y0181933D02*
X0080829Y0184133D01*
X0080829Y0202333D02*
X0080829Y0204533D01*
X0080829Y0211933D02*
X0080829Y0214133D01*
X0092629Y0214133D02*
X0092629Y0211933D01*
X0092629Y0204533D02*
X0092629Y0202333D01*
X0092629Y0232333D02*
X0092629Y0234533D01*
X0092629Y0241933D02*
X0092629Y0244133D01*
X0080829Y0244133D02*
X0080829Y0241933D01*
X0080829Y0234533D02*
X0080829Y0232333D01*
X0108329Y0247333D02*
X0108329Y0249733D01*
X0108329Y0247333D02*
X0109329Y0247333D01*
X0119129Y0247333D02*
X0120129Y0247333D01*
X0120129Y0249733D01*
X0120129Y0256733D02*
X0120129Y0259133D01*
X0119129Y0259133D01*
X0109329Y0259133D02*
X0108329Y0259133D01*
X0108329Y0256733D01*
X0136276Y0241326D02*
X0139679Y0241326D01*
X0138545Y0240192D01*
X0139679Y0239058D01*
X0136276Y0239058D01*
X0136276Y0237643D02*
X0139679Y0237643D01*
X0136276Y0235375D01*
X0139679Y0235375D01*
X0137978Y0233960D02*
X0137978Y0231691D01*
X0138545Y0230277D02*
X0139112Y0230277D01*
X0139679Y0229710D01*
X0139679Y0228008D01*
X0136276Y0228008D01*
X0136276Y0229710D01*
X0136844Y0230277D01*
X0137411Y0230277D01*
X0137978Y0229710D01*
X0137978Y0228008D01*
X0137978Y0226594D02*
X0138545Y0226027D01*
X0138545Y0224325D01*
X0139679Y0224325D02*
X0136276Y0224325D01*
X0136276Y0226027D01*
X0136844Y0226594D01*
X0137978Y0226594D01*
X0137978Y0229710D02*
X0138545Y0230277D01*
X0143529Y0163833D02*
X0144829Y0163833D01*
X0144829Y0162533D01*
X0092629Y0154133D02*
X0092629Y0151933D01*
X0092629Y0144533D02*
X0092629Y0142333D01*
X0080829Y0142333D02*
X0080829Y0144533D01*
X0080829Y0151933D02*
X0080829Y0154133D01*
X0080829Y0124133D02*
X0080829Y0121933D01*
X0080829Y0114533D02*
X0080829Y0112333D01*
X0092629Y0112333D02*
X0092629Y0114533D01*
X0092629Y0121933D02*
X0092629Y0124133D01*
X0108329Y0109133D02*
X0108329Y0106733D01*
X0108329Y0109133D02*
X0109329Y0109133D01*
X0119129Y0109133D02*
X0120129Y0109133D01*
X0120129Y0106733D01*
X0120129Y0099733D02*
X0120129Y0097333D01*
X0119129Y0097333D01*
X0109329Y0097333D02*
X0108329Y0097333D01*
X0108329Y0099733D01*
X0449713Y0198240D02*
X0454116Y0201176D01*
X0454116Y0202844D02*
X0454116Y0205780D01*
X0454116Y0204312D02*
X0449713Y0204312D01*
X0451181Y0202844D01*
X0449713Y0201176D02*
X0454116Y0198240D01*
X0464526Y0234127D02*
X0468195Y0234127D01*
X0468929Y0234861D01*
X0468929Y0236329D01*
X0468195Y0237063D01*
X0464526Y0237063D01*
X0465260Y0238731D02*
X0465994Y0238731D01*
X0466728Y0239465D01*
X0466728Y0240933D01*
X0467461Y0241667D01*
X0468195Y0241667D01*
X0468929Y0240933D01*
X0468929Y0239465D01*
X0468195Y0238731D01*
X0465260Y0238731D02*
X0464526Y0239465D01*
X0464526Y0240933D01*
X0465260Y0241667D01*
X0464526Y0243335D02*
X0464526Y0245537D01*
X0465260Y0246271D01*
X0465994Y0246271D01*
X0466728Y0245537D01*
X0466728Y0243335D01*
X0468929Y0243335D02*
X0468929Y0245537D01*
X0468195Y0246271D01*
X0467461Y0246271D01*
X0466728Y0245537D01*
X0468929Y0243335D02*
X0464526Y0243335D01*
D17*
X0461848Y0258056D02*
X0456729Y0258056D01*
X0456729Y0223410D01*
X0461848Y0223410D01*
X0461848Y0258056D01*
X0456729Y0258056D02*
X0436946Y0258056D01*
X0436946Y0223410D01*
X0456729Y0223410D01*
X0438885Y0195950D02*
X0434948Y0195950D01*
X0434948Y0192603D01*
X0434948Y0163863D02*
X0434948Y0160517D01*
X0438885Y0160517D01*
X0456336Y0150851D02*
X0456336Y0146914D01*
X0456336Y0150851D02*
X0396887Y0150851D01*
X0396887Y0095733D01*
X0453580Y0095733D01*
X0453580Y0099670D01*
X0453580Y0099671D02*
X0453470Y0099659D01*
X0453359Y0099651D01*
X0453248Y0099647D01*
X0453138Y0099646D01*
X0453027Y0099650D01*
X0452916Y0099657D01*
X0452806Y0099669D01*
X0452696Y0099684D01*
X0452587Y0099703D01*
X0452479Y0099726D01*
X0452371Y0099752D01*
X0452265Y0099783D01*
X0452159Y0099817D01*
X0452055Y0099854D01*
X0451952Y0099896D01*
X0451851Y0099940D01*
X0451751Y0099989D01*
X0451653Y0100041D01*
X0451557Y0100096D01*
X0451463Y0100154D01*
X0451371Y0100216D01*
X0451281Y0100281D01*
X0451194Y0100349D01*
X0451109Y0100420D01*
X0451026Y0100494D01*
X0450947Y0100571D01*
X0450869Y0100650D01*
X0450795Y0100732D01*
X0450724Y0100817D01*
X0450655Y0100904D01*
X0450590Y0100994D01*
X0450528Y0101086D01*
X0450469Y0101179D01*
X0450413Y0101275D01*
X0450361Y0101373D01*
X0450312Y0101472D01*
X0450267Y0101573D01*
X0450225Y0101676D01*
X0450187Y0101780D01*
X0450153Y0101885D01*
X0450122Y0101992D01*
X0450095Y0102099D01*
X0450072Y0102208D01*
X0450052Y0102317D01*
X0450037Y0102426D01*
X0450036Y0102426D02*
X0450036Y0140615D01*
X0450037Y0140615D02*
X0450039Y0140772D01*
X0450045Y0140929D01*
X0450055Y0141086D01*
X0450068Y0141242D01*
X0450086Y0141398D01*
X0450107Y0141554D01*
X0450133Y0141709D01*
X0450162Y0141863D01*
X0450195Y0142017D01*
X0450232Y0142169D01*
X0450272Y0142321D01*
X0450317Y0142472D01*
X0450365Y0142621D01*
X0450417Y0142769D01*
X0450472Y0142916D01*
X0450532Y0143062D01*
X0450594Y0143206D01*
X0450661Y0143348D01*
X0450731Y0143489D01*
X0450804Y0143628D01*
X0450881Y0143764D01*
X0450961Y0143900D01*
X0451045Y0144032D01*
X0451132Y0144163D01*
X0451222Y0144292D01*
X0451315Y0144418D01*
X0451411Y0144542D01*
X0451511Y0144664D01*
X0451613Y0144783D01*
X0451719Y0144899D01*
X0451827Y0145013D01*
X0451938Y0145124D01*
X0452052Y0145232D01*
X0452168Y0145338D01*
X0452287Y0145440D01*
X0452409Y0145540D01*
X0452533Y0145636D01*
X0452659Y0145729D01*
X0452788Y0145819D01*
X0452919Y0145906D01*
X0453051Y0145990D01*
X0453187Y0146070D01*
X0453323Y0146147D01*
X0453462Y0146220D01*
X0453603Y0146290D01*
X0453745Y0146357D01*
X0453889Y0146419D01*
X0454035Y0146479D01*
X0454182Y0146534D01*
X0454330Y0146586D01*
X0454479Y0146634D01*
X0454630Y0146679D01*
X0454782Y0146719D01*
X0454934Y0146756D01*
X0455088Y0146789D01*
X0455242Y0146818D01*
X0455397Y0146844D01*
X0455553Y0146865D01*
X0455709Y0146883D01*
X0455865Y0146896D01*
X0456022Y0146906D01*
X0456179Y0146912D01*
X0456336Y0146914D01*
X0451229Y0128233D02*
X0453729Y0125733D01*
X0371454Y0134257D02*
X0371454Y0112209D01*
X0362005Y0112209D01*
X0362005Y0134257D01*
X0371454Y0134257D01*
X0370666Y0150477D02*
X0370666Y0155989D01*
X0362792Y0155989D02*
X0362792Y0150477D01*
X0379380Y0186483D02*
X0380548Y0186483D01*
X0381132Y0187067D01*
X0381132Y0189986D01*
X0382479Y0189402D02*
X0382479Y0188818D01*
X0383063Y0188235D01*
X0384815Y0188235D01*
X0384815Y0189402D02*
X0384231Y0189986D01*
X0383063Y0189986D01*
X0382479Y0189402D01*
X0382479Y0187067D02*
X0383063Y0186483D01*
X0384231Y0186483D01*
X0384815Y0187067D01*
X0384815Y0189402D01*
X0378796Y0189986D02*
X0378796Y0187067D01*
X0379380Y0186483D01*
X0362704Y0212259D02*
X0353255Y0212259D01*
X0353255Y0221707D01*
X0362704Y0221707D01*
X0362704Y0212259D01*
X0359554Y0216196D02*
X0356405Y0216196D01*
X0356405Y0217770D02*
X0359554Y0217770D01*
X0354829Y0216983D02*
X0354831Y0217095D01*
X0354837Y0217206D01*
X0354847Y0217318D01*
X0354861Y0217429D01*
X0354878Y0217539D01*
X0354900Y0217649D01*
X0354926Y0217758D01*
X0354955Y0217866D01*
X0354988Y0217972D01*
X0355025Y0218078D01*
X0355066Y0218182D01*
X0355111Y0218285D01*
X0355159Y0218386D01*
X0355210Y0218485D01*
X0355265Y0218582D01*
X0355324Y0218677D01*
X0355385Y0218771D01*
X0355450Y0218862D01*
X0355519Y0218950D01*
X0355590Y0219036D01*
X0355664Y0219120D01*
X0355742Y0219200D01*
X0355822Y0219278D01*
X0355905Y0219354D01*
X0355990Y0219426D01*
X0356078Y0219495D01*
X0356168Y0219561D01*
X0356261Y0219623D01*
X0356356Y0219683D01*
X0356453Y0219739D01*
X0356551Y0219791D01*
X0356652Y0219840D01*
X0356754Y0219885D01*
X0356858Y0219927D01*
X0356963Y0219965D01*
X0357070Y0219999D01*
X0357177Y0220029D01*
X0357286Y0220056D01*
X0357395Y0220078D01*
X0357506Y0220097D01*
X0357616Y0220112D01*
X0357728Y0220123D01*
X0357839Y0220130D01*
X0357951Y0220133D01*
X0358063Y0220132D01*
X0358175Y0220127D01*
X0358286Y0220118D01*
X0358397Y0220105D01*
X0358508Y0220088D01*
X0358618Y0220068D01*
X0358727Y0220043D01*
X0358835Y0220015D01*
X0358942Y0219982D01*
X0359048Y0219946D01*
X0359152Y0219906D01*
X0359255Y0219863D01*
X0359357Y0219816D01*
X0359456Y0219765D01*
X0359554Y0219711D01*
X0359650Y0219653D01*
X0359744Y0219592D01*
X0359835Y0219528D01*
X0359924Y0219461D01*
X0360011Y0219390D01*
X0360095Y0219316D01*
X0360177Y0219240D01*
X0360255Y0219160D01*
X0360331Y0219078D01*
X0360404Y0218993D01*
X0360474Y0218906D01*
X0360540Y0218816D01*
X0360604Y0218724D01*
X0360664Y0218630D01*
X0360721Y0218534D01*
X0360774Y0218435D01*
X0360824Y0218335D01*
X0360870Y0218234D01*
X0360913Y0218130D01*
X0360952Y0218025D01*
X0360987Y0217919D01*
X0361018Y0217812D01*
X0361046Y0217703D01*
X0361069Y0217594D01*
X0361089Y0217484D01*
X0361105Y0217373D01*
X0361117Y0217262D01*
X0361125Y0217151D01*
X0361129Y0217039D01*
X0361129Y0216927D01*
X0361125Y0216815D01*
X0361117Y0216704D01*
X0361105Y0216593D01*
X0361089Y0216482D01*
X0361069Y0216372D01*
X0361046Y0216263D01*
X0361018Y0216154D01*
X0360987Y0216047D01*
X0360952Y0215941D01*
X0360913Y0215836D01*
X0360870Y0215732D01*
X0360824Y0215631D01*
X0360774Y0215531D01*
X0360721Y0215432D01*
X0360664Y0215336D01*
X0360604Y0215242D01*
X0360540Y0215150D01*
X0360474Y0215060D01*
X0360404Y0214973D01*
X0360331Y0214888D01*
X0360255Y0214806D01*
X0360177Y0214726D01*
X0360095Y0214650D01*
X0360011Y0214576D01*
X0359924Y0214505D01*
X0359835Y0214438D01*
X0359744Y0214374D01*
X0359650Y0214313D01*
X0359554Y0214255D01*
X0359456Y0214201D01*
X0359357Y0214150D01*
X0359255Y0214103D01*
X0359152Y0214060D01*
X0359048Y0214020D01*
X0358942Y0213984D01*
X0358835Y0213951D01*
X0358727Y0213923D01*
X0358618Y0213898D01*
X0358508Y0213878D01*
X0358397Y0213861D01*
X0358286Y0213848D01*
X0358175Y0213839D01*
X0358063Y0213834D01*
X0357951Y0213833D01*
X0357839Y0213836D01*
X0357728Y0213843D01*
X0357616Y0213854D01*
X0357506Y0213869D01*
X0357395Y0213888D01*
X0357286Y0213910D01*
X0357177Y0213937D01*
X0357070Y0213967D01*
X0356963Y0214001D01*
X0356858Y0214039D01*
X0356754Y0214081D01*
X0356652Y0214126D01*
X0356551Y0214175D01*
X0356453Y0214227D01*
X0356356Y0214283D01*
X0356261Y0214343D01*
X0356168Y0214405D01*
X0356078Y0214471D01*
X0355990Y0214540D01*
X0355905Y0214612D01*
X0355822Y0214688D01*
X0355742Y0214766D01*
X0355664Y0214846D01*
X0355590Y0214930D01*
X0355519Y0215016D01*
X0355450Y0215104D01*
X0355385Y0215195D01*
X0355324Y0215289D01*
X0355265Y0215384D01*
X0355210Y0215481D01*
X0355159Y0215580D01*
X0355111Y0215681D01*
X0355066Y0215784D01*
X0355025Y0215888D01*
X0354988Y0215994D01*
X0354955Y0216100D01*
X0354926Y0216208D01*
X0354900Y0216317D01*
X0354878Y0216427D01*
X0354861Y0216537D01*
X0354847Y0216648D01*
X0354837Y0216760D01*
X0354831Y0216871D01*
X0354829Y0216983D01*
X0325204Y0212259D02*
X0315755Y0212259D01*
X0315755Y0221707D01*
X0325204Y0221707D01*
X0325204Y0212259D01*
X0322054Y0216196D02*
X0318905Y0216196D01*
X0318905Y0217770D02*
X0322054Y0217770D01*
X0317329Y0216983D02*
X0317331Y0217095D01*
X0317337Y0217206D01*
X0317347Y0217318D01*
X0317361Y0217429D01*
X0317378Y0217539D01*
X0317400Y0217649D01*
X0317426Y0217758D01*
X0317455Y0217866D01*
X0317488Y0217972D01*
X0317525Y0218078D01*
X0317566Y0218182D01*
X0317611Y0218285D01*
X0317659Y0218386D01*
X0317710Y0218485D01*
X0317765Y0218582D01*
X0317824Y0218677D01*
X0317885Y0218771D01*
X0317950Y0218862D01*
X0318019Y0218950D01*
X0318090Y0219036D01*
X0318164Y0219120D01*
X0318242Y0219200D01*
X0318322Y0219278D01*
X0318405Y0219354D01*
X0318490Y0219426D01*
X0318578Y0219495D01*
X0318668Y0219561D01*
X0318761Y0219623D01*
X0318856Y0219683D01*
X0318953Y0219739D01*
X0319051Y0219791D01*
X0319152Y0219840D01*
X0319254Y0219885D01*
X0319358Y0219927D01*
X0319463Y0219965D01*
X0319570Y0219999D01*
X0319677Y0220029D01*
X0319786Y0220056D01*
X0319895Y0220078D01*
X0320006Y0220097D01*
X0320116Y0220112D01*
X0320228Y0220123D01*
X0320339Y0220130D01*
X0320451Y0220133D01*
X0320563Y0220132D01*
X0320675Y0220127D01*
X0320786Y0220118D01*
X0320897Y0220105D01*
X0321008Y0220088D01*
X0321118Y0220068D01*
X0321227Y0220043D01*
X0321335Y0220015D01*
X0321442Y0219982D01*
X0321548Y0219946D01*
X0321652Y0219906D01*
X0321755Y0219863D01*
X0321857Y0219816D01*
X0321956Y0219765D01*
X0322054Y0219711D01*
X0322150Y0219653D01*
X0322244Y0219592D01*
X0322335Y0219528D01*
X0322424Y0219461D01*
X0322511Y0219390D01*
X0322595Y0219316D01*
X0322677Y0219240D01*
X0322755Y0219160D01*
X0322831Y0219078D01*
X0322904Y0218993D01*
X0322974Y0218906D01*
X0323040Y0218816D01*
X0323104Y0218724D01*
X0323164Y0218630D01*
X0323221Y0218534D01*
X0323274Y0218435D01*
X0323324Y0218335D01*
X0323370Y0218234D01*
X0323413Y0218130D01*
X0323452Y0218025D01*
X0323487Y0217919D01*
X0323518Y0217812D01*
X0323546Y0217703D01*
X0323569Y0217594D01*
X0323589Y0217484D01*
X0323605Y0217373D01*
X0323617Y0217262D01*
X0323625Y0217151D01*
X0323629Y0217039D01*
X0323629Y0216927D01*
X0323625Y0216815D01*
X0323617Y0216704D01*
X0323605Y0216593D01*
X0323589Y0216482D01*
X0323569Y0216372D01*
X0323546Y0216263D01*
X0323518Y0216154D01*
X0323487Y0216047D01*
X0323452Y0215941D01*
X0323413Y0215836D01*
X0323370Y0215732D01*
X0323324Y0215631D01*
X0323274Y0215531D01*
X0323221Y0215432D01*
X0323164Y0215336D01*
X0323104Y0215242D01*
X0323040Y0215150D01*
X0322974Y0215060D01*
X0322904Y0214973D01*
X0322831Y0214888D01*
X0322755Y0214806D01*
X0322677Y0214726D01*
X0322595Y0214650D01*
X0322511Y0214576D01*
X0322424Y0214505D01*
X0322335Y0214438D01*
X0322244Y0214374D01*
X0322150Y0214313D01*
X0322054Y0214255D01*
X0321956Y0214201D01*
X0321857Y0214150D01*
X0321755Y0214103D01*
X0321652Y0214060D01*
X0321548Y0214020D01*
X0321442Y0213984D01*
X0321335Y0213951D01*
X0321227Y0213923D01*
X0321118Y0213898D01*
X0321008Y0213878D01*
X0320897Y0213861D01*
X0320786Y0213848D01*
X0320675Y0213839D01*
X0320563Y0213834D01*
X0320451Y0213833D01*
X0320339Y0213836D01*
X0320228Y0213843D01*
X0320116Y0213854D01*
X0320006Y0213869D01*
X0319895Y0213888D01*
X0319786Y0213910D01*
X0319677Y0213937D01*
X0319570Y0213967D01*
X0319463Y0214001D01*
X0319358Y0214039D01*
X0319254Y0214081D01*
X0319152Y0214126D01*
X0319051Y0214175D01*
X0318953Y0214227D01*
X0318856Y0214283D01*
X0318761Y0214343D01*
X0318668Y0214405D01*
X0318578Y0214471D01*
X0318490Y0214540D01*
X0318405Y0214612D01*
X0318322Y0214688D01*
X0318242Y0214766D01*
X0318164Y0214846D01*
X0318090Y0214930D01*
X0318019Y0215016D01*
X0317950Y0215104D01*
X0317885Y0215195D01*
X0317824Y0215289D01*
X0317765Y0215384D01*
X0317710Y0215481D01*
X0317659Y0215580D01*
X0317611Y0215681D01*
X0317566Y0215784D01*
X0317525Y0215888D01*
X0317488Y0215994D01*
X0317455Y0216100D01*
X0317426Y0216208D01*
X0317400Y0216317D01*
X0317378Y0216427D01*
X0317361Y0216537D01*
X0317347Y0216648D01*
X0317337Y0216760D01*
X0317331Y0216871D01*
X0317329Y0216983D01*
X0287704Y0212259D02*
X0278255Y0212259D01*
X0278255Y0221707D01*
X0287704Y0221707D01*
X0287704Y0212259D01*
X0284554Y0216196D02*
X0281405Y0216196D01*
X0281405Y0217770D02*
X0284554Y0217770D01*
X0279829Y0216983D02*
X0279831Y0217095D01*
X0279837Y0217206D01*
X0279847Y0217318D01*
X0279861Y0217429D01*
X0279878Y0217539D01*
X0279900Y0217649D01*
X0279926Y0217758D01*
X0279955Y0217866D01*
X0279988Y0217972D01*
X0280025Y0218078D01*
X0280066Y0218182D01*
X0280111Y0218285D01*
X0280159Y0218386D01*
X0280210Y0218485D01*
X0280265Y0218582D01*
X0280324Y0218677D01*
X0280385Y0218771D01*
X0280450Y0218862D01*
X0280519Y0218950D01*
X0280590Y0219036D01*
X0280664Y0219120D01*
X0280742Y0219200D01*
X0280822Y0219278D01*
X0280905Y0219354D01*
X0280990Y0219426D01*
X0281078Y0219495D01*
X0281168Y0219561D01*
X0281261Y0219623D01*
X0281356Y0219683D01*
X0281453Y0219739D01*
X0281551Y0219791D01*
X0281652Y0219840D01*
X0281754Y0219885D01*
X0281858Y0219927D01*
X0281963Y0219965D01*
X0282070Y0219999D01*
X0282177Y0220029D01*
X0282286Y0220056D01*
X0282395Y0220078D01*
X0282506Y0220097D01*
X0282616Y0220112D01*
X0282728Y0220123D01*
X0282839Y0220130D01*
X0282951Y0220133D01*
X0283063Y0220132D01*
X0283175Y0220127D01*
X0283286Y0220118D01*
X0283397Y0220105D01*
X0283508Y0220088D01*
X0283618Y0220068D01*
X0283727Y0220043D01*
X0283835Y0220015D01*
X0283942Y0219982D01*
X0284048Y0219946D01*
X0284152Y0219906D01*
X0284255Y0219863D01*
X0284357Y0219816D01*
X0284456Y0219765D01*
X0284554Y0219711D01*
X0284650Y0219653D01*
X0284744Y0219592D01*
X0284835Y0219528D01*
X0284924Y0219461D01*
X0285011Y0219390D01*
X0285095Y0219316D01*
X0285177Y0219240D01*
X0285255Y0219160D01*
X0285331Y0219078D01*
X0285404Y0218993D01*
X0285474Y0218906D01*
X0285540Y0218816D01*
X0285604Y0218724D01*
X0285664Y0218630D01*
X0285721Y0218534D01*
X0285774Y0218435D01*
X0285824Y0218335D01*
X0285870Y0218234D01*
X0285913Y0218130D01*
X0285952Y0218025D01*
X0285987Y0217919D01*
X0286018Y0217812D01*
X0286046Y0217703D01*
X0286069Y0217594D01*
X0286089Y0217484D01*
X0286105Y0217373D01*
X0286117Y0217262D01*
X0286125Y0217151D01*
X0286129Y0217039D01*
X0286129Y0216927D01*
X0286125Y0216815D01*
X0286117Y0216704D01*
X0286105Y0216593D01*
X0286089Y0216482D01*
X0286069Y0216372D01*
X0286046Y0216263D01*
X0286018Y0216154D01*
X0285987Y0216047D01*
X0285952Y0215941D01*
X0285913Y0215836D01*
X0285870Y0215732D01*
X0285824Y0215631D01*
X0285774Y0215531D01*
X0285721Y0215432D01*
X0285664Y0215336D01*
X0285604Y0215242D01*
X0285540Y0215150D01*
X0285474Y0215060D01*
X0285404Y0214973D01*
X0285331Y0214888D01*
X0285255Y0214806D01*
X0285177Y0214726D01*
X0285095Y0214650D01*
X0285011Y0214576D01*
X0284924Y0214505D01*
X0284835Y0214438D01*
X0284744Y0214374D01*
X0284650Y0214313D01*
X0284554Y0214255D01*
X0284456Y0214201D01*
X0284357Y0214150D01*
X0284255Y0214103D01*
X0284152Y0214060D01*
X0284048Y0214020D01*
X0283942Y0213984D01*
X0283835Y0213951D01*
X0283727Y0213923D01*
X0283618Y0213898D01*
X0283508Y0213878D01*
X0283397Y0213861D01*
X0283286Y0213848D01*
X0283175Y0213839D01*
X0283063Y0213834D01*
X0282951Y0213833D01*
X0282839Y0213836D01*
X0282728Y0213843D01*
X0282616Y0213854D01*
X0282506Y0213869D01*
X0282395Y0213888D01*
X0282286Y0213910D01*
X0282177Y0213937D01*
X0282070Y0213967D01*
X0281963Y0214001D01*
X0281858Y0214039D01*
X0281754Y0214081D01*
X0281652Y0214126D01*
X0281551Y0214175D01*
X0281453Y0214227D01*
X0281356Y0214283D01*
X0281261Y0214343D01*
X0281168Y0214405D01*
X0281078Y0214471D01*
X0280990Y0214540D01*
X0280905Y0214612D01*
X0280822Y0214688D01*
X0280742Y0214766D01*
X0280664Y0214846D01*
X0280590Y0214930D01*
X0280519Y0215016D01*
X0280450Y0215104D01*
X0280385Y0215195D01*
X0280324Y0215289D01*
X0280265Y0215384D01*
X0280210Y0215481D01*
X0280159Y0215580D01*
X0280111Y0215681D01*
X0280066Y0215784D01*
X0280025Y0215888D01*
X0279988Y0215994D01*
X0279955Y0216100D01*
X0279926Y0216208D01*
X0279900Y0216317D01*
X0279878Y0216427D01*
X0279861Y0216537D01*
X0279847Y0216648D01*
X0279837Y0216760D01*
X0279831Y0216871D01*
X0279829Y0216983D01*
X0250204Y0212259D02*
X0240755Y0212259D01*
X0240755Y0221707D01*
X0250204Y0221707D01*
X0250204Y0212259D01*
X0247054Y0216196D02*
X0243905Y0216196D01*
X0243905Y0217770D02*
X0247054Y0217770D01*
X0242329Y0216983D02*
X0242331Y0217095D01*
X0242337Y0217206D01*
X0242347Y0217318D01*
X0242361Y0217429D01*
X0242378Y0217539D01*
X0242400Y0217649D01*
X0242426Y0217758D01*
X0242455Y0217866D01*
X0242488Y0217972D01*
X0242525Y0218078D01*
X0242566Y0218182D01*
X0242611Y0218285D01*
X0242659Y0218386D01*
X0242710Y0218485D01*
X0242765Y0218582D01*
X0242824Y0218677D01*
X0242885Y0218771D01*
X0242950Y0218862D01*
X0243019Y0218950D01*
X0243090Y0219036D01*
X0243164Y0219120D01*
X0243242Y0219200D01*
X0243322Y0219278D01*
X0243405Y0219354D01*
X0243490Y0219426D01*
X0243578Y0219495D01*
X0243668Y0219561D01*
X0243761Y0219623D01*
X0243856Y0219683D01*
X0243953Y0219739D01*
X0244051Y0219791D01*
X0244152Y0219840D01*
X0244254Y0219885D01*
X0244358Y0219927D01*
X0244463Y0219965D01*
X0244570Y0219999D01*
X0244677Y0220029D01*
X0244786Y0220056D01*
X0244895Y0220078D01*
X0245006Y0220097D01*
X0245116Y0220112D01*
X0245228Y0220123D01*
X0245339Y0220130D01*
X0245451Y0220133D01*
X0245563Y0220132D01*
X0245675Y0220127D01*
X0245786Y0220118D01*
X0245897Y0220105D01*
X0246008Y0220088D01*
X0246118Y0220068D01*
X0246227Y0220043D01*
X0246335Y0220015D01*
X0246442Y0219982D01*
X0246548Y0219946D01*
X0246652Y0219906D01*
X0246755Y0219863D01*
X0246857Y0219816D01*
X0246956Y0219765D01*
X0247054Y0219711D01*
X0247150Y0219653D01*
X0247244Y0219592D01*
X0247335Y0219528D01*
X0247424Y0219461D01*
X0247511Y0219390D01*
X0247595Y0219316D01*
X0247677Y0219240D01*
X0247755Y0219160D01*
X0247831Y0219078D01*
X0247904Y0218993D01*
X0247974Y0218906D01*
X0248040Y0218816D01*
X0248104Y0218724D01*
X0248164Y0218630D01*
X0248221Y0218534D01*
X0248274Y0218435D01*
X0248324Y0218335D01*
X0248370Y0218234D01*
X0248413Y0218130D01*
X0248452Y0218025D01*
X0248487Y0217919D01*
X0248518Y0217812D01*
X0248546Y0217703D01*
X0248569Y0217594D01*
X0248589Y0217484D01*
X0248605Y0217373D01*
X0248617Y0217262D01*
X0248625Y0217151D01*
X0248629Y0217039D01*
X0248629Y0216927D01*
X0248625Y0216815D01*
X0248617Y0216704D01*
X0248605Y0216593D01*
X0248589Y0216482D01*
X0248569Y0216372D01*
X0248546Y0216263D01*
X0248518Y0216154D01*
X0248487Y0216047D01*
X0248452Y0215941D01*
X0248413Y0215836D01*
X0248370Y0215732D01*
X0248324Y0215631D01*
X0248274Y0215531D01*
X0248221Y0215432D01*
X0248164Y0215336D01*
X0248104Y0215242D01*
X0248040Y0215150D01*
X0247974Y0215060D01*
X0247904Y0214973D01*
X0247831Y0214888D01*
X0247755Y0214806D01*
X0247677Y0214726D01*
X0247595Y0214650D01*
X0247511Y0214576D01*
X0247424Y0214505D01*
X0247335Y0214438D01*
X0247244Y0214374D01*
X0247150Y0214313D01*
X0247054Y0214255D01*
X0246956Y0214201D01*
X0246857Y0214150D01*
X0246755Y0214103D01*
X0246652Y0214060D01*
X0246548Y0214020D01*
X0246442Y0213984D01*
X0246335Y0213951D01*
X0246227Y0213923D01*
X0246118Y0213898D01*
X0246008Y0213878D01*
X0245897Y0213861D01*
X0245786Y0213848D01*
X0245675Y0213839D01*
X0245563Y0213834D01*
X0245451Y0213833D01*
X0245339Y0213836D01*
X0245228Y0213843D01*
X0245116Y0213854D01*
X0245006Y0213869D01*
X0244895Y0213888D01*
X0244786Y0213910D01*
X0244677Y0213937D01*
X0244570Y0213967D01*
X0244463Y0214001D01*
X0244358Y0214039D01*
X0244254Y0214081D01*
X0244152Y0214126D01*
X0244051Y0214175D01*
X0243953Y0214227D01*
X0243856Y0214283D01*
X0243761Y0214343D01*
X0243668Y0214405D01*
X0243578Y0214471D01*
X0243490Y0214540D01*
X0243405Y0214612D01*
X0243322Y0214688D01*
X0243242Y0214766D01*
X0243164Y0214846D01*
X0243090Y0214930D01*
X0243019Y0215016D01*
X0242950Y0215104D01*
X0242885Y0215195D01*
X0242824Y0215289D01*
X0242765Y0215384D01*
X0242710Y0215481D01*
X0242659Y0215580D01*
X0242611Y0215681D01*
X0242566Y0215784D01*
X0242525Y0215888D01*
X0242488Y0215994D01*
X0242455Y0216100D01*
X0242426Y0216208D01*
X0242400Y0216317D01*
X0242378Y0216427D01*
X0242361Y0216537D01*
X0242347Y0216648D01*
X0242337Y0216760D01*
X0242331Y0216871D01*
X0242329Y0216983D01*
X0255796Y0192486D02*
X0255796Y0189567D01*
X0256380Y0188983D01*
X0257548Y0188983D01*
X0258132Y0189567D01*
X0258132Y0192486D01*
X0259479Y0190735D02*
X0261231Y0190735D01*
X0261815Y0190151D01*
X0261815Y0189567D01*
X0261231Y0188983D01*
X0260063Y0188983D01*
X0259479Y0189567D01*
X0259479Y0190735D01*
X0260647Y0191902D01*
X0261815Y0192486D01*
X0292292Y0180989D02*
X0292292Y0175477D01*
X0300166Y0175477D02*
X0300166Y0180989D01*
X0277704Y0144207D02*
X0268255Y0144207D01*
X0268255Y0134759D01*
X0277704Y0134759D01*
X0277704Y0144207D01*
X0274554Y0140270D02*
X0271405Y0140270D01*
X0271405Y0138696D02*
X0274554Y0138696D01*
X0269829Y0139483D02*
X0269831Y0139595D01*
X0269837Y0139706D01*
X0269847Y0139818D01*
X0269861Y0139929D01*
X0269878Y0140039D01*
X0269900Y0140149D01*
X0269926Y0140258D01*
X0269955Y0140366D01*
X0269988Y0140472D01*
X0270025Y0140578D01*
X0270066Y0140682D01*
X0270111Y0140785D01*
X0270159Y0140886D01*
X0270210Y0140985D01*
X0270265Y0141082D01*
X0270324Y0141177D01*
X0270385Y0141271D01*
X0270450Y0141362D01*
X0270519Y0141450D01*
X0270590Y0141536D01*
X0270664Y0141620D01*
X0270742Y0141700D01*
X0270822Y0141778D01*
X0270905Y0141854D01*
X0270990Y0141926D01*
X0271078Y0141995D01*
X0271168Y0142061D01*
X0271261Y0142123D01*
X0271356Y0142183D01*
X0271453Y0142239D01*
X0271551Y0142291D01*
X0271652Y0142340D01*
X0271754Y0142385D01*
X0271858Y0142427D01*
X0271963Y0142465D01*
X0272070Y0142499D01*
X0272177Y0142529D01*
X0272286Y0142556D01*
X0272395Y0142578D01*
X0272506Y0142597D01*
X0272616Y0142612D01*
X0272728Y0142623D01*
X0272839Y0142630D01*
X0272951Y0142633D01*
X0273063Y0142632D01*
X0273175Y0142627D01*
X0273286Y0142618D01*
X0273397Y0142605D01*
X0273508Y0142588D01*
X0273618Y0142568D01*
X0273727Y0142543D01*
X0273835Y0142515D01*
X0273942Y0142482D01*
X0274048Y0142446D01*
X0274152Y0142406D01*
X0274255Y0142363D01*
X0274357Y0142316D01*
X0274456Y0142265D01*
X0274554Y0142211D01*
X0274650Y0142153D01*
X0274744Y0142092D01*
X0274835Y0142028D01*
X0274924Y0141961D01*
X0275011Y0141890D01*
X0275095Y0141816D01*
X0275177Y0141740D01*
X0275255Y0141660D01*
X0275331Y0141578D01*
X0275404Y0141493D01*
X0275474Y0141406D01*
X0275540Y0141316D01*
X0275604Y0141224D01*
X0275664Y0141130D01*
X0275721Y0141034D01*
X0275774Y0140935D01*
X0275824Y0140835D01*
X0275870Y0140734D01*
X0275913Y0140630D01*
X0275952Y0140525D01*
X0275987Y0140419D01*
X0276018Y0140312D01*
X0276046Y0140203D01*
X0276069Y0140094D01*
X0276089Y0139984D01*
X0276105Y0139873D01*
X0276117Y0139762D01*
X0276125Y0139651D01*
X0276129Y0139539D01*
X0276129Y0139427D01*
X0276125Y0139315D01*
X0276117Y0139204D01*
X0276105Y0139093D01*
X0276089Y0138982D01*
X0276069Y0138872D01*
X0276046Y0138763D01*
X0276018Y0138654D01*
X0275987Y0138547D01*
X0275952Y0138441D01*
X0275913Y0138336D01*
X0275870Y0138232D01*
X0275824Y0138131D01*
X0275774Y0138031D01*
X0275721Y0137932D01*
X0275664Y0137836D01*
X0275604Y0137742D01*
X0275540Y0137650D01*
X0275474Y0137560D01*
X0275404Y0137473D01*
X0275331Y0137388D01*
X0275255Y0137306D01*
X0275177Y0137226D01*
X0275095Y0137150D01*
X0275011Y0137076D01*
X0274924Y0137005D01*
X0274835Y0136938D01*
X0274744Y0136874D01*
X0274650Y0136813D01*
X0274554Y0136755D01*
X0274456Y0136701D01*
X0274357Y0136650D01*
X0274255Y0136603D01*
X0274152Y0136560D01*
X0274048Y0136520D01*
X0273942Y0136484D01*
X0273835Y0136451D01*
X0273727Y0136423D01*
X0273618Y0136398D01*
X0273508Y0136378D01*
X0273397Y0136361D01*
X0273286Y0136348D01*
X0273175Y0136339D01*
X0273063Y0136334D01*
X0272951Y0136333D01*
X0272839Y0136336D01*
X0272728Y0136343D01*
X0272616Y0136354D01*
X0272506Y0136369D01*
X0272395Y0136388D01*
X0272286Y0136410D01*
X0272177Y0136437D01*
X0272070Y0136467D01*
X0271963Y0136501D01*
X0271858Y0136539D01*
X0271754Y0136581D01*
X0271652Y0136626D01*
X0271551Y0136675D01*
X0271453Y0136727D01*
X0271356Y0136783D01*
X0271261Y0136843D01*
X0271168Y0136905D01*
X0271078Y0136971D01*
X0270990Y0137040D01*
X0270905Y0137112D01*
X0270822Y0137188D01*
X0270742Y0137266D01*
X0270664Y0137346D01*
X0270590Y0137430D01*
X0270519Y0137516D01*
X0270450Y0137604D01*
X0270385Y0137695D01*
X0270324Y0137789D01*
X0270265Y0137884D01*
X0270210Y0137981D01*
X0270159Y0138080D01*
X0270111Y0138181D01*
X0270066Y0138284D01*
X0270025Y0138388D01*
X0269988Y0138494D01*
X0269955Y0138600D01*
X0269926Y0138708D01*
X0269900Y0138817D01*
X0269878Y0138927D01*
X0269861Y0139037D01*
X0269847Y0139148D01*
X0269837Y0139260D01*
X0269831Y0139371D01*
X0269829Y0139483D01*
X0240204Y0134759D02*
X0230755Y0134759D01*
X0230755Y0144207D01*
X0240204Y0144207D01*
X0240204Y0134759D01*
X0237054Y0138696D02*
X0233905Y0138696D01*
X0233905Y0140270D02*
X0237054Y0140270D01*
X0232329Y0139483D02*
X0232331Y0139595D01*
X0232337Y0139706D01*
X0232347Y0139818D01*
X0232361Y0139929D01*
X0232378Y0140039D01*
X0232400Y0140149D01*
X0232426Y0140258D01*
X0232455Y0140366D01*
X0232488Y0140472D01*
X0232525Y0140578D01*
X0232566Y0140682D01*
X0232611Y0140785D01*
X0232659Y0140886D01*
X0232710Y0140985D01*
X0232765Y0141082D01*
X0232824Y0141177D01*
X0232885Y0141271D01*
X0232950Y0141362D01*
X0233019Y0141450D01*
X0233090Y0141536D01*
X0233164Y0141620D01*
X0233242Y0141700D01*
X0233322Y0141778D01*
X0233405Y0141854D01*
X0233490Y0141926D01*
X0233578Y0141995D01*
X0233668Y0142061D01*
X0233761Y0142123D01*
X0233856Y0142183D01*
X0233953Y0142239D01*
X0234051Y0142291D01*
X0234152Y0142340D01*
X0234254Y0142385D01*
X0234358Y0142427D01*
X0234463Y0142465D01*
X0234570Y0142499D01*
X0234677Y0142529D01*
X0234786Y0142556D01*
X0234895Y0142578D01*
X0235006Y0142597D01*
X0235116Y0142612D01*
X0235228Y0142623D01*
X0235339Y0142630D01*
X0235451Y0142633D01*
X0235563Y0142632D01*
X0235675Y0142627D01*
X0235786Y0142618D01*
X0235897Y0142605D01*
X0236008Y0142588D01*
X0236118Y0142568D01*
X0236227Y0142543D01*
X0236335Y0142515D01*
X0236442Y0142482D01*
X0236548Y0142446D01*
X0236652Y0142406D01*
X0236755Y0142363D01*
X0236857Y0142316D01*
X0236956Y0142265D01*
X0237054Y0142211D01*
X0237150Y0142153D01*
X0237244Y0142092D01*
X0237335Y0142028D01*
X0237424Y0141961D01*
X0237511Y0141890D01*
X0237595Y0141816D01*
X0237677Y0141740D01*
X0237755Y0141660D01*
X0237831Y0141578D01*
X0237904Y0141493D01*
X0237974Y0141406D01*
X0238040Y0141316D01*
X0238104Y0141224D01*
X0238164Y0141130D01*
X0238221Y0141034D01*
X0238274Y0140935D01*
X0238324Y0140835D01*
X0238370Y0140734D01*
X0238413Y0140630D01*
X0238452Y0140525D01*
X0238487Y0140419D01*
X0238518Y0140312D01*
X0238546Y0140203D01*
X0238569Y0140094D01*
X0238589Y0139984D01*
X0238605Y0139873D01*
X0238617Y0139762D01*
X0238625Y0139651D01*
X0238629Y0139539D01*
X0238629Y0139427D01*
X0238625Y0139315D01*
X0238617Y0139204D01*
X0238605Y0139093D01*
X0238589Y0138982D01*
X0238569Y0138872D01*
X0238546Y0138763D01*
X0238518Y0138654D01*
X0238487Y0138547D01*
X0238452Y0138441D01*
X0238413Y0138336D01*
X0238370Y0138232D01*
X0238324Y0138131D01*
X0238274Y0138031D01*
X0238221Y0137932D01*
X0238164Y0137836D01*
X0238104Y0137742D01*
X0238040Y0137650D01*
X0237974Y0137560D01*
X0237904Y0137473D01*
X0237831Y0137388D01*
X0237755Y0137306D01*
X0237677Y0137226D01*
X0237595Y0137150D01*
X0237511Y0137076D01*
X0237424Y0137005D01*
X0237335Y0136938D01*
X0237244Y0136874D01*
X0237150Y0136813D01*
X0237054Y0136755D01*
X0236956Y0136701D01*
X0236857Y0136650D01*
X0236755Y0136603D01*
X0236652Y0136560D01*
X0236548Y0136520D01*
X0236442Y0136484D01*
X0236335Y0136451D01*
X0236227Y0136423D01*
X0236118Y0136398D01*
X0236008Y0136378D01*
X0235897Y0136361D01*
X0235786Y0136348D01*
X0235675Y0136339D01*
X0235563Y0136334D01*
X0235451Y0136333D01*
X0235339Y0136336D01*
X0235228Y0136343D01*
X0235116Y0136354D01*
X0235006Y0136369D01*
X0234895Y0136388D01*
X0234786Y0136410D01*
X0234677Y0136437D01*
X0234570Y0136467D01*
X0234463Y0136501D01*
X0234358Y0136539D01*
X0234254Y0136581D01*
X0234152Y0136626D01*
X0234051Y0136675D01*
X0233953Y0136727D01*
X0233856Y0136783D01*
X0233761Y0136843D01*
X0233668Y0136905D01*
X0233578Y0136971D01*
X0233490Y0137040D01*
X0233405Y0137112D01*
X0233322Y0137188D01*
X0233242Y0137266D01*
X0233164Y0137346D01*
X0233090Y0137430D01*
X0233019Y0137516D01*
X0232950Y0137604D01*
X0232885Y0137695D01*
X0232824Y0137789D01*
X0232765Y0137884D01*
X0232710Y0137981D01*
X0232659Y0138080D01*
X0232611Y0138181D01*
X0232566Y0138284D01*
X0232525Y0138388D01*
X0232488Y0138494D01*
X0232455Y0138600D01*
X0232426Y0138708D01*
X0232400Y0138817D01*
X0232378Y0138927D01*
X0232361Y0139037D01*
X0232347Y0139148D01*
X0232337Y0139260D01*
X0232331Y0139371D01*
X0232329Y0139483D01*
X0202704Y0134759D02*
X0193255Y0134759D01*
X0193255Y0144207D01*
X0202704Y0144207D01*
X0202704Y0134759D01*
X0199554Y0138696D02*
X0196405Y0138696D01*
X0196405Y0140270D02*
X0199554Y0140270D01*
X0194829Y0139483D02*
X0194831Y0139595D01*
X0194837Y0139706D01*
X0194847Y0139818D01*
X0194861Y0139929D01*
X0194878Y0140039D01*
X0194900Y0140149D01*
X0194926Y0140258D01*
X0194955Y0140366D01*
X0194988Y0140472D01*
X0195025Y0140578D01*
X0195066Y0140682D01*
X0195111Y0140785D01*
X0195159Y0140886D01*
X0195210Y0140985D01*
X0195265Y0141082D01*
X0195324Y0141177D01*
X0195385Y0141271D01*
X0195450Y0141362D01*
X0195519Y0141450D01*
X0195590Y0141536D01*
X0195664Y0141620D01*
X0195742Y0141700D01*
X0195822Y0141778D01*
X0195905Y0141854D01*
X0195990Y0141926D01*
X0196078Y0141995D01*
X0196168Y0142061D01*
X0196261Y0142123D01*
X0196356Y0142183D01*
X0196453Y0142239D01*
X0196551Y0142291D01*
X0196652Y0142340D01*
X0196754Y0142385D01*
X0196858Y0142427D01*
X0196963Y0142465D01*
X0197070Y0142499D01*
X0197177Y0142529D01*
X0197286Y0142556D01*
X0197395Y0142578D01*
X0197506Y0142597D01*
X0197616Y0142612D01*
X0197728Y0142623D01*
X0197839Y0142630D01*
X0197951Y0142633D01*
X0198063Y0142632D01*
X0198175Y0142627D01*
X0198286Y0142618D01*
X0198397Y0142605D01*
X0198508Y0142588D01*
X0198618Y0142568D01*
X0198727Y0142543D01*
X0198835Y0142515D01*
X0198942Y0142482D01*
X0199048Y0142446D01*
X0199152Y0142406D01*
X0199255Y0142363D01*
X0199357Y0142316D01*
X0199456Y0142265D01*
X0199554Y0142211D01*
X0199650Y0142153D01*
X0199744Y0142092D01*
X0199835Y0142028D01*
X0199924Y0141961D01*
X0200011Y0141890D01*
X0200095Y0141816D01*
X0200177Y0141740D01*
X0200255Y0141660D01*
X0200331Y0141578D01*
X0200404Y0141493D01*
X0200474Y0141406D01*
X0200540Y0141316D01*
X0200604Y0141224D01*
X0200664Y0141130D01*
X0200721Y0141034D01*
X0200774Y0140935D01*
X0200824Y0140835D01*
X0200870Y0140734D01*
X0200913Y0140630D01*
X0200952Y0140525D01*
X0200987Y0140419D01*
X0201018Y0140312D01*
X0201046Y0140203D01*
X0201069Y0140094D01*
X0201089Y0139984D01*
X0201105Y0139873D01*
X0201117Y0139762D01*
X0201125Y0139651D01*
X0201129Y0139539D01*
X0201129Y0139427D01*
X0201125Y0139315D01*
X0201117Y0139204D01*
X0201105Y0139093D01*
X0201089Y0138982D01*
X0201069Y0138872D01*
X0201046Y0138763D01*
X0201018Y0138654D01*
X0200987Y0138547D01*
X0200952Y0138441D01*
X0200913Y0138336D01*
X0200870Y0138232D01*
X0200824Y0138131D01*
X0200774Y0138031D01*
X0200721Y0137932D01*
X0200664Y0137836D01*
X0200604Y0137742D01*
X0200540Y0137650D01*
X0200474Y0137560D01*
X0200404Y0137473D01*
X0200331Y0137388D01*
X0200255Y0137306D01*
X0200177Y0137226D01*
X0200095Y0137150D01*
X0200011Y0137076D01*
X0199924Y0137005D01*
X0199835Y0136938D01*
X0199744Y0136874D01*
X0199650Y0136813D01*
X0199554Y0136755D01*
X0199456Y0136701D01*
X0199357Y0136650D01*
X0199255Y0136603D01*
X0199152Y0136560D01*
X0199048Y0136520D01*
X0198942Y0136484D01*
X0198835Y0136451D01*
X0198727Y0136423D01*
X0198618Y0136398D01*
X0198508Y0136378D01*
X0198397Y0136361D01*
X0198286Y0136348D01*
X0198175Y0136339D01*
X0198063Y0136334D01*
X0197951Y0136333D01*
X0197839Y0136336D01*
X0197728Y0136343D01*
X0197616Y0136354D01*
X0197506Y0136369D01*
X0197395Y0136388D01*
X0197286Y0136410D01*
X0197177Y0136437D01*
X0197070Y0136467D01*
X0196963Y0136501D01*
X0196858Y0136539D01*
X0196754Y0136581D01*
X0196652Y0136626D01*
X0196551Y0136675D01*
X0196453Y0136727D01*
X0196356Y0136783D01*
X0196261Y0136843D01*
X0196168Y0136905D01*
X0196078Y0136971D01*
X0195990Y0137040D01*
X0195905Y0137112D01*
X0195822Y0137188D01*
X0195742Y0137266D01*
X0195664Y0137346D01*
X0195590Y0137430D01*
X0195519Y0137516D01*
X0195450Y0137604D01*
X0195385Y0137695D01*
X0195324Y0137789D01*
X0195265Y0137884D01*
X0195210Y0137981D01*
X0195159Y0138080D01*
X0195111Y0138181D01*
X0195066Y0138284D01*
X0195025Y0138388D01*
X0194988Y0138494D01*
X0194955Y0138600D01*
X0194926Y0138708D01*
X0194900Y0138817D01*
X0194878Y0138927D01*
X0194861Y0139037D01*
X0194847Y0139148D01*
X0194837Y0139260D01*
X0194831Y0139371D01*
X0194829Y0139483D01*
X0165204Y0134759D02*
X0155755Y0134759D01*
X0155755Y0144207D01*
X0165204Y0144207D01*
X0165204Y0134759D01*
X0162054Y0138696D02*
X0158905Y0138696D01*
X0158905Y0140270D02*
X0162054Y0140270D01*
X0157329Y0139483D02*
X0157331Y0139595D01*
X0157337Y0139706D01*
X0157347Y0139818D01*
X0157361Y0139929D01*
X0157378Y0140039D01*
X0157400Y0140149D01*
X0157426Y0140258D01*
X0157455Y0140366D01*
X0157488Y0140472D01*
X0157525Y0140578D01*
X0157566Y0140682D01*
X0157611Y0140785D01*
X0157659Y0140886D01*
X0157710Y0140985D01*
X0157765Y0141082D01*
X0157824Y0141177D01*
X0157885Y0141271D01*
X0157950Y0141362D01*
X0158019Y0141450D01*
X0158090Y0141536D01*
X0158164Y0141620D01*
X0158242Y0141700D01*
X0158322Y0141778D01*
X0158405Y0141854D01*
X0158490Y0141926D01*
X0158578Y0141995D01*
X0158668Y0142061D01*
X0158761Y0142123D01*
X0158856Y0142183D01*
X0158953Y0142239D01*
X0159051Y0142291D01*
X0159152Y0142340D01*
X0159254Y0142385D01*
X0159358Y0142427D01*
X0159463Y0142465D01*
X0159570Y0142499D01*
X0159677Y0142529D01*
X0159786Y0142556D01*
X0159895Y0142578D01*
X0160006Y0142597D01*
X0160116Y0142612D01*
X0160228Y0142623D01*
X0160339Y0142630D01*
X0160451Y0142633D01*
X0160563Y0142632D01*
X0160675Y0142627D01*
X0160786Y0142618D01*
X0160897Y0142605D01*
X0161008Y0142588D01*
X0161118Y0142568D01*
X0161227Y0142543D01*
X0161335Y0142515D01*
X0161442Y0142482D01*
X0161548Y0142446D01*
X0161652Y0142406D01*
X0161755Y0142363D01*
X0161857Y0142316D01*
X0161956Y0142265D01*
X0162054Y0142211D01*
X0162150Y0142153D01*
X0162244Y0142092D01*
X0162335Y0142028D01*
X0162424Y0141961D01*
X0162511Y0141890D01*
X0162595Y0141816D01*
X0162677Y0141740D01*
X0162755Y0141660D01*
X0162831Y0141578D01*
X0162904Y0141493D01*
X0162974Y0141406D01*
X0163040Y0141316D01*
X0163104Y0141224D01*
X0163164Y0141130D01*
X0163221Y0141034D01*
X0163274Y0140935D01*
X0163324Y0140835D01*
X0163370Y0140734D01*
X0163413Y0140630D01*
X0163452Y0140525D01*
X0163487Y0140419D01*
X0163518Y0140312D01*
X0163546Y0140203D01*
X0163569Y0140094D01*
X0163589Y0139984D01*
X0163605Y0139873D01*
X0163617Y0139762D01*
X0163625Y0139651D01*
X0163629Y0139539D01*
X0163629Y0139427D01*
X0163625Y0139315D01*
X0163617Y0139204D01*
X0163605Y0139093D01*
X0163589Y0138982D01*
X0163569Y0138872D01*
X0163546Y0138763D01*
X0163518Y0138654D01*
X0163487Y0138547D01*
X0163452Y0138441D01*
X0163413Y0138336D01*
X0163370Y0138232D01*
X0163324Y0138131D01*
X0163274Y0138031D01*
X0163221Y0137932D01*
X0163164Y0137836D01*
X0163104Y0137742D01*
X0163040Y0137650D01*
X0162974Y0137560D01*
X0162904Y0137473D01*
X0162831Y0137388D01*
X0162755Y0137306D01*
X0162677Y0137226D01*
X0162595Y0137150D01*
X0162511Y0137076D01*
X0162424Y0137005D01*
X0162335Y0136938D01*
X0162244Y0136874D01*
X0162150Y0136813D01*
X0162054Y0136755D01*
X0161956Y0136701D01*
X0161857Y0136650D01*
X0161755Y0136603D01*
X0161652Y0136560D01*
X0161548Y0136520D01*
X0161442Y0136484D01*
X0161335Y0136451D01*
X0161227Y0136423D01*
X0161118Y0136398D01*
X0161008Y0136378D01*
X0160897Y0136361D01*
X0160786Y0136348D01*
X0160675Y0136339D01*
X0160563Y0136334D01*
X0160451Y0136333D01*
X0160339Y0136336D01*
X0160228Y0136343D01*
X0160116Y0136354D01*
X0160006Y0136369D01*
X0159895Y0136388D01*
X0159786Y0136410D01*
X0159677Y0136437D01*
X0159570Y0136467D01*
X0159463Y0136501D01*
X0159358Y0136539D01*
X0159254Y0136581D01*
X0159152Y0136626D01*
X0159051Y0136675D01*
X0158953Y0136727D01*
X0158856Y0136783D01*
X0158761Y0136843D01*
X0158668Y0136905D01*
X0158578Y0136971D01*
X0158490Y0137040D01*
X0158405Y0137112D01*
X0158322Y0137188D01*
X0158242Y0137266D01*
X0158164Y0137346D01*
X0158090Y0137430D01*
X0158019Y0137516D01*
X0157950Y0137604D01*
X0157885Y0137695D01*
X0157824Y0137789D01*
X0157765Y0137884D01*
X0157710Y0137981D01*
X0157659Y0138080D01*
X0157611Y0138181D01*
X0157566Y0138284D01*
X0157525Y0138388D01*
X0157488Y0138494D01*
X0157455Y0138600D01*
X0157426Y0138708D01*
X0157400Y0138817D01*
X0157378Y0138927D01*
X0157361Y0139037D01*
X0157347Y0139148D01*
X0157337Y0139260D01*
X0157331Y0139371D01*
X0157329Y0139483D01*
X0125315Y0145567D02*
X0124731Y0144983D01*
X0123563Y0144983D01*
X0122979Y0145567D01*
X0122979Y0146151D01*
X0123563Y0146735D01*
X0124731Y0146735D01*
X0125315Y0146151D01*
X0125315Y0145567D01*
X0124731Y0146735D02*
X0125315Y0147318D01*
X0125315Y0147902D01*
X0124731Y0148486D01*
X0123563Y0148486D01*
X0122979Y0147902D01*
X0122979Y0147318D01*
X0123563Y0146735D01*
X0121632Y0145567D02*
X0121632Y0148486D01*
X0119296Y0148486D02*
X0119296Y0145567D01*
X0119880Y0144983D01*
X0121048Y0144983D01*
X0121632Y0145567D01*
X0074004Y0158583D02*
X0073554Y0158133D01*
X0072653Y0158133D01*
X0072203Y0158583D01*
X0072653Y0159484D02*
X0072203Y0159935D01*
X0072203Y0160385D01*
X0072653Y0160835D01*
X0073554Y0160835D01*
X0074004Y0160385D01*
X0073554Y0159484D02*
X0074004Y0159034D01*
X0074004Y0158583D01*
X0073554Y0159484D02*
X0072653Y0159484D01*
X0071058Y0158583D02*
X0070607Y0158133D01*
X0069707Y0158133D01*
X0069256Y0158583D01*
X0069256Y0160385D01*
X0069707Y0160835D01*
X0070607Y0160835D01*
X0071058Y0160385D01*
X0068111Y0160835D02*
X0068111Y0158133D01*
X0066310Y0158133D02*
X0066310Y0160835D01*
X0067210Y0159935D01*
X0068111Y0160835D01*
X0068111Y0130835D02*
X0068111Y0128133D01*
X0069256Y0128133D02*
X0071058Y0130835D01*
X0072203Y0130385D02*
X0072203Y0129935D01*
X0072653Y0129484D01*
X0073554Y0129484D01*
X0074004Y0129034D01*
X0074004Y0128583D01*
X0073554Y0128133D01*
X0072653Y0128133D01*
X0072203Y0128583D01*
X0071058Y0128133D02*
X0069256Y0130835D01*
X0068111Y0130835D02*
X0067210Y0129935D01*
X0066310Y0130835D01*
X0066310Y0128133D01*
X0072203Y0130385D02*
X0072653Y0130835D01*
X0073554Y0130835D01*
X0074004Y0130385D01*
X0073063Y0188133D02*
X0072162Y0188133D01*
X0071712Y0188583D01*
X0071712Y0190385D01*
X0072162Y0190835D01*
X0073063Y0190835D01*
X0073513Y0190385D01*
X0073513Y0188583D01*
X0073063Y0188133D01*
X0070648Y0188133D02*
X0069747Y0188133D01*
X0070198Y0188133D02*
X0070198Y0190835D01*
X0070648Y0190835D02*
X0069747Y0190835D01*
X0068602Y0190835D02*
X0068602Y0189034D01*
X0067701Y0188133D01*
X0066801Y0189034D01*
X0066801Y0190835D01*
X0066310Y0218133D02*
X0066310Y0220835D01*
X0067210Y0219935D01*
X0068111Y0220835D01*
X0068111Y0218133D01*
X0069256Y0218583D02*
X0069707Y0218133D01*
X0070607Y0218133D01*
X0071058Y0218583D01*
X0072203Y0218133D02*
X0072203Y0220835D01*
X0074004Y0218133D01*
X0074004Y0220835D01*
X0071058Y0220385D02*
X0070607Y0220835D01*
X0069707Y0220835D01*
X0069256Y0220385D01*
X0069256Y0218583D01*
X0069256Y0248133D02*
X0071058Y0250835D01*
X0072203Y0250835D02*
X0074004Y0248133D01*
X0074004Y0250835D01*
X0072203Y0250835D02*
X0072203Y0248133D01*
X0071058Y0248133D02*
X0069256Y0250835D01*
X0068111Y0250835D02*
X0068111Y0248133D01*
X0066310Y0248133D02*
X0066310Y0250835D01*
X0067210Y0249935D01*
X0068111Y0250835D01*
X0121277Y0229670D02*
X0127182Y0229670D01*
X0126690Y0221796D02*
X0121277Y0221796D01*
X0121296Y0209986D02*
X0121296Y0207067D01*
X0121880Y0206483D01*
X0123048Y0206483D01*
X0123632Y0207067D01*
X0123632Y0209986D01*
X0124979Y0209986D02*
X0127315Y0209986D01*
X0127315Y0209402D01*
X0124979Y0207067D01*
X0124979Y0206483D01*
X0147792Y0205989D02*
X0147792Y0200477D01*
X0155666Y0200477D02*
X0155666Y0205989D01*
X0156454Y0222209D02*
X0147005Y0222209D01*
X0147005Y0244257D01*
X0156454Y0244257D01*
X0156454Y0222209D01*
X0169072Y0253925D02*
X0169072Y0277547D01*
X0180096Y0277547D01*
X0180096Y0275579D01*
X0180096Y0275576D02*
X0180686Y0275576D01*
X0180686Y0273607D02*
X0171040Y0273607D01*
X0171040Y0263761D01*
X0173403Y0263761D01*
X0173403Y0257859D01*
X0180686Y0257859D01*
X0180686Y0255891D02*
X0180096Y0255894D01*
X0180096Y0253925D01*
X0169072Y0253925D01*
X0171040Y0255595D02*
X0171828Y0257170D01*
X0172615Y0255595D01*
X0171040Y0255595D01*
X0180096Y0263761D02*
X0180096Y0267698D01*
X0338363Y0267698D01*
X0338363Y0263761D01*
X0180096Y0263761D01*
X0337773Y0257859D02*
X0345056Y0257859D01*
X0345056Y0263761D01*
X0347418Y0263761D01*
X0347418Y0273607D01*
X0337773Y0273607D01*
X0337773Y0275576D02*
X0338363Y0275576D01*
X0338363Y0275579D02*
X0338363Y0277547D01*
X0349387Y0277547D01*
X0349387Y0253925D01*
X0338363Y0253925D01*
X0338363Y0255894D01*
X0337773Y0255891D01*
X0416405Y0257170D02*
X0419554Y0257170D01*
X0419554Y0249296D02*
X0416405Y0249296D01*
X0415617Y0243883D02*
X0420342Y0243883D01*
X0420342Y0237583D02*
X0415617Y0237583D01*
X0349387Y0102541D02*
X0338363Y0102541D01*
X0338363Y0100576D01*
X0337773Y0100576D01*
X0337773Y0098604D02*
X0347418Y0098604D01*
X0347418Y0088768D01*
X0345056Y0088768D01*
X0345056Y0082856D01*
X0337773Y0082856D01*
X0337773Y0080891D02*
X0338363Y0080891D01*
X0338363Y0080887D02*
X0338363Y0078919D01*
X0349387Y0078919D01*
X0349387Y0102541D01*
X0347418Y0098607D02*
X0347418Y0098604D01*
X0338363Y0092698D02*
X0338363Y0088761D01*
X0180096Y0088761D01*
X0180096Y0092698D01*
X0338363Y0092698D01*
X0180686Y0098604D02*
X0171040Y0098604D01*
X0171040Y0098607D01*
X0171040Y0098604D02*
X0171040Y0088768D01*
X0173403Y0088768D01*
X0173403Y0082859D01*
X0173403Y0082856D02*
X0180686Y0082856D01*
X0180686Y0080891D02*
X0180096Y0080891D01*
X0180096Y0080887D02*
X0180096Y0078919D01*
X0169072Y0078919D01*
X0169072Y0102541D01*
X0180096Y0102541D01*
X0180096Y0100576D01*
X0180686Y0100576D01*
X0171828Y0081973D02*
X0172615Y0080398D01*
X0171040Y0080398D01*
X0171828Y0081973D01*
D18*
X0180010Y0108083D02*
X0180010Y0110885D01*
X0181411Y0110885D01*
X0181878Y0110418D01*
X0181878Y0109484D01*
X0181411Y0109017D01*
X0180010Y0109017D01*
X0180944Y0109017D02*
X0181878Y0108083D01*
X0182956Y0108550D02*
X0183423Y0108083D01*
X0184357Y0108083D01*
X0184824Y0108550D01*
X0184824Y0109017D01*
X0184357Y0109484D01*
X0182956Y0109484D01*
X0182956Y0108550D01*
X0182956Y0109484D02*
X0183890Y0110418D01*
X0184824Y0110885D01*
X0185903Y0110418D02*
X0186370Y0110885D01*
X0187304Y0110885D01*
X0187771Y0110418D01*
X0185903Y0108550D01*
X0186370Y0108083D01*
X0187304Y0108083D01*
X0187771Y0108550D01*
X0187771Y0110418D01*
X0185903Y0110418D02*
X0185903Y0108550D01*
X0217510Y0109017D02*
X0218911Y0109017D01*
X0219378Y0109484D01*
X0219378Y0110418D01*
X0218911Y0110885D01*
X0217510Y0110885D01*
X0217510Y0108083D01*
X0218444Y0109017D02*
X0219378Y0108083D01*
X0220456Y0108550D02*
X0220923Y0108083D01*
X0221857Y0108083D01*
X0222324Y0108550D01*
X0222324Y0109484D01*
X0221857Y0109951D01*
X0221390Y0109951D01*
X0220456Y0109484D01*
X0220456Y0110885D01*
X0222324Y0110885D01*
X0223403Y0110418D02*
X0223403Y0109951D01*
X0223870Y0109484D01*
X0225271Y0109484D01*
X0225271Y0108550D02*
X0225271Y0110418D01*
X0224804Y0110885D01*
X0223870Y0110885D01*
X0223403Y0110418D01*
X0223403Y0108550D02*
X0223870Y0108083D01*
X0224804Y0108083D01*
X0225271Y0108550D01*
X0255010Y0108083D02*
X0255010Y0110885D01*
X0256411Y0110885D01*
X0256878Y0110418D01*
X0256878Y0109484D01*
X0256411Y0109017D01*
X0255010Y0109017D01*
X0255944Y0109017D02*
X0256878Y0108083D01*
X0257956Y0108550D02*
X0258423Y0108083D01*
X0259357Y0108083D01*
X0259824Y0108550D01*
X0259824Y0109484D01*
X0259357Y0109951D01*
X0258890Y0109951D01*
X0257956Y0109484D01*
X0257956Y0110885D01*
X0259824Y0110885D01*
X0260903Y0110418D02*
X0260903Y0109951D01*
X0261370Y0109484D01*
X0262304Y0109484D01*
X0262771Y0109017D01*
X0262771Y0108550D01*
X0262304Y0108083D01*
X0261370Y0108083D01*
X0260903Y0108550D01*
X0260903Y0109017D01*
X0261370Y0109484D01*
X0262304Y0109484D02*
X0262771Y0109951D01*
X0262771Y0110418D01*
X0262304Y0110885D01*
X0261370Y0110885D01*
X0260903Y0110418D01*
X0292510Y0110885D02*
X0293911Y0110885D01*
X0294378Y0110418D01*
X0294378Y0109484D01*
X0293911Y0109017D01*
X0292510Y0109017D01*
X0293444Y0109017D02*
X0294378Y0108083D01*
X0295456Y0108550D02*
X0295923Y0108083D01*
X0296857Y0108083D01*
X0297324Y0108550D01*
X0297324Y0109484D01*
X0296857Y0109951D01*
X0296390Y0109951D01*
X0295456Y0109484D01*
X0295456Y0110885D01*
X0297324Y0110885D01*
X0298403Y0110885D02*
X0300271Y0110885D01*
X0300271Y0110418D01*
X0298403Y0108550D01*
X0298403Y0108083D01*
X0292510Y0108083D02*
X0292510Y0110885D01*
X0323760Y0139333D02*
X0323760Y0142135D01*
X0325161Y0142135D01*
X0325628Y0141668D01*
X0325628Y0140734D01*
X0325161Y0140267D01*
X0323760Y0140267D01*
X0324694Y0140267D02*
X0325628Y0139333D01*
X0326706Y0139800D02*
X0327173Y0139333D01*
X0328107Y0139333D01*
X0328574Y0139800D01*
X0328574Y0140267D01*
X0328107Y0140734D01*
X0326706Y0140734D01*
X0326706Y0139800D01*
X0326706Y0140734D02*
X0327640Y0141668D01*
X0328574Y0142135D01*
X0329653Y0140734D02*
X0331054Y0140734D01*
X0331521Y0140267D01*
X0331521Y0139800D01*
X0331054Y0139333D01*
X0330120Y0139333D01*
X0329653Y0139800D01*
X0329653Y0140734D01*
X0330587Y0141668D01*
X0331521Y0142135D01*
X0358577Y0154487D02*
X0360912Y0154487D01*
X0361379Y0154954D01*
X0361379Y0155888D01*
X0360912Y0156355D01*
X0358577Y0156355D01*
X0358577Y0157433D02*
X0359978Y0157433D01*
X0359511Y0158367D01*
X0359511Y0158834D01*
X0359978Y0159301D01*
X0360912Y0159301D01*
X0361379Y0158834D01*
X0361379Y0157900D01*
X0360912Y0157433D01*
X0358577Y0157433D02*
X0358577Y0159301D01*
X0331521Y0169800D02*
X0331054Y0169333D01*
X0330120Y0169333D01*
X0329653Y0169800D01*
X0329653Y0170734D02*
X0330587Y0171201D01*
X0331054Y0171201D01*
X0331521Y0170734D01*
X0331521Y0169800D01*
X0329653Y0170734D02*
X0329653Y0172135D01*
X0331521Y0172135D01*
X0328574Y0172135D02*
X0327640Y0171668D01*
X0326706Y0170734D01*
X0328107Y0170734D01*
X0328574Y0170267D01*
X0328574Y0169800D01*
X0328107Y0169333D01*
X0327173Y0169333D01*
X0326706Y0169800D01*
X0326706Y0170734D01*
X0325628Y0170734D02*
X0325161Y0170267D01*
X0323760Y0170267D01*
X0324694Y0170267D02*
X0325628Y0169333D01*
X0325628Y0170734D02*
X0325628Y0171668D01*
X0325161Y0172135D01*
X0323760Y0172135D01*
X0323760Y0169333D01*
X0303879Y0174480D02*
X0303879Y0175414D01*
X0303412Y0175882D01*
X0301077Y0175882D01*
X0301544Y0176960D02*
X0301077Y0177427D01*
X0301077Y0178361D01*
X0301544Y0178828D01*
X0302011Y0178828D01*
X0303879Y0176960D01*
X0303879Y0178828D01*
X0303412Y0179906D02*
X0303879Y0180373D01*
X0303879Y0181308D01*
X0303412Y0181775D01*
X0302478Y0181775D01*
X0302011Y0181308D01*
X0302011Y0180840D01*
X0302478Y0179906D01*
X0301077Y0179906D01*
X0301077Y0181775D01*
X0301077Y0174013D02*
X0303412Y0174013D01*
X0303879Y0174480D01*
X0370077Y0216763D02*
X0372412Y0216763D01*
X0372879Y0217230D01*
X0372879Y0218164D01*
X0372412Y0218632D01*
X0370077Y0218632D01*
X0371011Y0219710D02*
X0370077Y0220644D01*
X0372879Y0220644D01*
X0372879Y0219710D02*
X0372879Y0221578D01*
X0372879Y0222656D02*
X0371011Y0224525D01*
X0370544Y0224525D01*
X0370077Y0224058D01*
X0370077Y0223123D01*
X0370544Y0222656D01*
X0372879Y0222656D02*
X0372879Y0224525D01*
X0372412Y0234263D02*
X0372879Y0234730D01*
X0372879Y0235664D01*
X0372412Y0236132D01*
X0370077Y0236132D01*
X0371011Y0237210D02*
X0370077Y0238144D01*
X0372879Y0238144D01*
X0372879Y0237210D02*
X0372879Y0239078D01*
X0372412Y0240156D02*
X0372879Y0240623D01*
X0372879Y0241558D01*
X0372412Y0242025D01*
X0371945Y0242025D01*
X0371478Y0241558D01*
X0371478Y0241090D01*
X0371478Y0241558D02*
X0371011Y0242025D01*
X0370544Y0242025D01*
X0370077Y0241558D01*
X0370077Y0240623D01*
X0370544Y0240156D01*
X0370077Y0234263D02*
X0372412Y0234263D01*
X0337304Y0245583D02*
X0337304Y0248385D01*
X0335903Y0246984D01*
X0337771Y0246984D01*
X0334824Y0246984D02*
X0334824Y0246050D01*
X0334357Y0245583D01*
X0333423Y0245583D01*
X0332956Y0246050D01*
X0332956Y0246984D02*
X0333890Y0247451D01*
X0334357Y0247451D01*
X0334824Y0246984D01*
X0334824Y0248385D02*
X0332956Y0248385D01*
X0332956Y0246984D01*
X0331878Y0246984D02*
X0331411Y0246517D01*
X0330010Y0246517D01*
X0330944Y0246517D02*
X0331878Y0245583D01*
X0331878Y0246984D02*
X0331878Y0247918D01*
X0331411Y0248385D01*
X0330010Y0248385D01*
X0330010Y0245583D01*
X0300271Y0246050D02*
X0299804Y0245583D01*
X0298870Y0245583D01*
X0298403Y0246050D01*
X0297324Y0246050D02*
X0296857Y0245583D01*
X0295923Y0245583D01*
X0295456Y0246050D01*
X0295456Y0246984D02*
X0296390Y0247451D01*
X0296857Y0247451D01*
X0297324Y0246984D01*
X0297324Y0246050D01*
X0295456Y0246984D02*
X0295456Y0248385D01*
X0297324Y0248385D01*
X0298403Y0247918D02*
X0298870Y0248385D01*
X0299804Y0248385D01*
X0300271Y0247918D01*
X0300271Y0247451D01*
X0299804Y0246984D01*
X0300271Y0246517D01*
X0300271Y0246050D01*
X0299804Y0246984D02*
X0299337Y0246984D01*
X0294378Y0246984D02*
X0293911Y0246517D01*
X0292510Y0246517D01*
X0293444Y0246517D02*
X0294378Y0245583D01*
X0294378Y0246984D02*
X0294378Y0247918D01*
X0293911Y0248385D01*
X0292510Y0248385D01*
X0292510Y0245583D01*
X0262771Y0245583D02*
X0260903Y0245583D01*
X0262771Y0247451D01*
X0262771Y0247918D01*
X0262304Y0248385D01*
X0261370Y0248385D01*
X0260903Y0247918D01*
X0259824Y0248385D02*
X0257956Y0248385D01*
X0257956Y0246984D01*
X0258890Y0247451D01*
X0259357Y0247451D01*
X0259824Y0246984D01*
X0259824Y0246050D01*
X0259357Y0245583D01*
X0258423Y0245583D01*
X0257956Y0246050D01*
X0256878Y0245583D02*
X0255944Y0246517D01*
X0256411Y0246517D02*
X0255010Y0246517D01*
X0255010Y0245583D02*
X0255010Y0248385D01*
X0256411Y0248385D01*
X0256878Y0247918D01*
X0256878Y0246984D01*
X0256411Y0246517D01*
X0225271Y0245583D02*
X0223403Y0245583D01*
X0224337Y0245583D02*
X0224337Y0248385D01*
X0223403Y0247451D01*
X0222324Y0246984D02*
X0222324Y0246050D01*
X0221857Y0245583D01*
X0220923Y0245583D01*
X0220456Y0246050D01*
X0220456Y0246984D02*
X0221390Y0247451D01*
X0221857Y0247451D01*
X0222324Y0246984D01*
X0222324Y0248385D02*
X0220456Y0248385D01*
X0220456Y0246984D01*
X0219378Y0246984D02*
X0218911Y0246517D01*
X0217510Y0246517D01*
X0218444Y0246517D02*
X0219378Y0245583D01*
X0219378Y0246984D02*
X0219378Y0247918D01*
X0218911Y0248385D01*
X0217510Y0248385D01*
X0217510Y0245583D01*
X0194804Y0217135D02*
X0193403Y0215734D01*
X0195271Y0215734D01*
X0194804Y0214333D02*
X0194804Y0217135D01*
X0192324Y0217135D02*
X0191390Y0216668D01*
X0190456Y0215734D01*
X0191857Y0215734D01*
X0192324Y0215267D01*
X0192324Y0214800D01*
X0191857Y0214333D01*
X0190923Y0214333D01*
X0190456Y0214800D01*
X0190456Y0215734D01*
X0189378Y0215734D02*
X0188911Y0215267D01*
X0187510Y0215267D01*
X0188444Y0215267D02*
X0189378Y0214333D01*
X0189378Y0215734D02*
X0189378Y0216668D01*
X0188911Y0217135D01*
X0187510Y0217135D01*
X0187510Y0214333D01*
X0159379Y0201084D02*
X0156577Y0201084D01*
X0157978Y0199683D01*
X0157978Y0201551D01*
X0158912Y0198605D02*
X0156577Y0198605D01*
X0156577Y0196737D02*
X0158912Y0196737D01*
X0159379Y0197204D01*
X0159379Y0198138D01*
X0158912Y0198605D01*
X0187510Y0187135D02*
X0188911Y0187135D01*
X0189378Y0186668D01*
X0189378Y0185734D01*
X0188911Y0185267D01*
X0187510Y0185267D01*
X0188444Y0185267D02*
X0189378Y0184333D01*
X0190456Y0184800D02*
X0190923Y0184333D01*
X0191857Y0184333D01*
X0192324Y0184800D01*
X0192324Y0185267D01*
X0191857Y0185734D01*
X0190456Y0185734D01*
X0190456Y0184800D01*
X0190456Y0185734D02*
X0191390Y0186668D01*
X0192324Y0187135D01*
X0193403Y0186668D02*
X0193870Y0187135D01*
X0194804Y0187135D01*
X0195271Y0186668D01*
X0195271Y0186201D01*
X0194804Y0185734D01*
X0195271Y0185267D01*
X0195271Y0184800D01*
X0194804Y0184333D01*
X0193870Y0184333D01*
X0193403Y0184800D01*
X0194337Y0185734D02*
X0194804Y0185734D01*
X0187510Y0184333D02*
X0187510Y0187135D01*
X0147912Y0139525D02*
X0148379Y0139058D01*
X0148379Y0138123D01*
X0147912Y0137656D01*
X0146044Y0139525D01*
X0147912Y0139525D01*
X0146044Y0139525D02*
X0145577Y0139058D01*
X0145577Y0138123D01*
X0146044Y0137656D01*
X0147912Y0137656D01*
X0148379Y0136578D02*
X0148379Y0134710D01*
X0148379Y0135644D02*
X0145577Y0135644D01*
X0146511Y0134710D01*
X0145577Y0133632D02*
X0147912Y0133632D01*
X0148379Y0133164D01*
X0148379Y0132230D01*
X0147912Y0131763D01*
X0145577Y0131763D01*
X0148379Y0122025D02*
X0148379Y0120156D01*
X0148379Y0121090D02*
X0145577Y0121090D01*
X0146511Y0120156D01*
X0148379Y0119078D02*
X0148379Y0117210D01*
X0148379Y0118144D02*
X0145577Y0118144D01*
X0146511Y0117210D01*
X0145577Y0116132D02*
X0147912Y0116132D01*
X0148379Y0115664D01*
X0148379Y0114730D01*
X0147912Y0114263D01*
X0145577Y0114263D01*
X0104829Y0101808D02*
X0102027Y0101808D01*
X0103428Y0100406D01*
X0103428Y0102275D01*
X0102961Y0099328D02*
X0102494Y0099328D01*
X0102027Y0098861D01*
X0102027Y0097927D01*
X0102494Y0097460D01*
X0102027Y0096382D02*
X0104362Y0096382D01*
X0104829Y0095914D01*
X0104829Y0094980D01*
X0104362Y0094513D01*
X0102027Y0094513D01*
X0104829Y0097460D02*
X0102961Y0099328D01*
X0104829Y0099328D02*
X0104829Y0097460D01*
X0092129Y0087025D02*
X0092129Y0085156D01*
X0090261Y0087025D01*
X0089794Y0087025D01*
X0089327Y0086558D01*
X0089327Y0085623D01*
X0089794Y0085156D01*
X0089794Y0084078D02*
X0091662Y0082210D01*
X0092129Y0082210D01*
X0092129Y0081132D02*
X0091195Y0080197D01*
X0091195Y0080664D02*
X0091195Y0079263D01*
X0092129Y0079263D02*
X0089327Y0079263D01*
X0089327Y0080664D01*
X0089794Y0081132D01*
X0090728Y0081132D01*
X0091195Y0080664D01*
X0089327Y0082210D02*
X0089327Y0084078D01*
X0089794Y0084078D01*
X0092129Y0077025D02*
X0092129Y0075156D01*
X0092129Y0076090D02*
X0089327Y0076090D01*
X0090261Y0075156D01*
X0089794Y0074078D02*
X0091662Y0072210D01*
X0092129Y0072210D01*
X0092129Y0071132D02*
X0091195Y0070197D01*
X0091195Y0070664D02*
X0091195Y0069263D01*
X0092129Y0069263D02*
X0089327Y0069263D01*
X0089327Y0070664D01*
X0089794Y0071132D01*
X0090728Y0071132D01*
X0091195Y0070664D01*
X0089327Y0072210D02*
X0089327Y0074078D01*
X0089794Y0074078D01*
X0120477Y0231583D02*
X0121411Y0231583D01*
X0121878Y0232050D01*
X0121878Y0234385D01*
X0122956Y0233918D02*
X0123423Y0234385D01*
X0124357Y0234385D01*
X0124824Y0233918D01*
X0124824Y0233451D01*
X0122956Y0231583D01*
X0124824Y0231583D01*
X0125903Y0232050D02*
X0126370Y0231583D01*
X0127304Y0231583D01*
X0127771Y0232050D01*
X0127771Y0233918D01*
X0127304Y0234385D01*
X0126370Y0234385D01*
X0125903Y0233918D01*
X0125903Y0233451D01*
X0126370Y0232984D01*
X0127771Y0232984D01*
X0120477Y0231583D02*
X0120010Y0232050D01*
X0120010Y0234385D01*
X0121577Y0240263D02*
X0123912Y0240263D01*
X0124379Y0240730D01*
X0124379Y0241664D01*
X0123912Y0242132D01*
X0121577Y0242132D01*
X0122044Y0243210D02*
X0121577Y0243677D01*
X0121577Y0244611D01*
X0122044Y0245078D01*
X0122511Y0245078D01*
X0124379Y0243210D01*
X0124379Y0245078D01*
X0123912Y0246156D02*
X0124379Y0246623D01*
X0124379Y0247558D01*
X0123912Y0248025D01*
X0123445Y0248025D01*
X0122978Y0247558D01*
X0122978Y0247090D01*
X0122978Y0247558D02*
X0122511Y0248025D01*
X0122044Y0248025D01*
X0121577Y0247558D01*
X0121577Y0246623D01*
X0122044Y0246156D01*
X0114629Y0269263D02*
X0111827Y0269263D01*
X0111827Y0270664D01*
X0112294Y0271132D01*
X0113228Y0271132D01*
X0113695Y0270664D01*
X0113695Y0269263D01*
X0113695Y0270197D02*
X0114629Y0271132D01*
X0114162Y0272210D02*
X0113228Y0272210D01*
X0113228Y0273611D01*
X0113695Y0274078D01*
X0114162Y0274078D01*
X0114629Y0273611D01*
X0114629Y0272677D01*
X0114162Y0272210D01*
X0113228Y0272210D02*
X0112294Y0273144D01*
X0111827Y0274078D01*
X0112294Y0275156D02*
X0112761Y0275156D01*
X0113228Y0275623D01*
X0113228Y0276558D01*
X0113695Y0277025D01*
X0114162Y0277025D01*
X0114629Y0276558D01*
X0114629Y0275623D01*
X0114162Y0275156D01*
X0113695Y0275156D01*
X0113228Y0275623D01*
X0113228Y0276558D02*
X0112761Y0277025D01*
X0112294Y0277025D01*
X0111827Y0276558D01*
X0111827Y0275623D01*
X0112294Y0275156D01*
X0111827Y0279263D02*
X0111827Y0280664D01*
X0112294Y0281132D01*
X0113228Y0281132D01*
X0113695Y0280664D01*
X0113695Y0279263D01*
X0114629Y0279263D02*
X0111827Y0279263D01*
X0113695Y0280197D02*
X0114629Y0281132D01*
X0114162Y0282210D02*
X0114629Y0282677D01*
X0114629Y0283611D01*
X0114162Y0284078D01*
X0113695Y0284078D01*
X0113228Y0283611D01*
X0113228Y0282210D01*
X0114162Y0282210D01*
X0113228Y0282210D02*
X0112294Y0283144D01*
X0111827Y0284078D01*
X0111827Y0285156D02*
X0111827Y0287025D01*
X0112294Y0287025D01*
X0114162Y0285156D01*
X0114629Y0285156D01*
X0406857Y0257854D02*
X0408725Y0257854D01*
X0407791Y0257854D02*
X0407791Y0255052D01*
X0409803Y0255052D02*
X0411672Y0256920D01*
X0411672Y0257387D01*
X0411205Y0257854D01*
X0410270Y0257854D01*
X0409803Y0257387D01*
X0409803Y0255052D02*
X0411672Y0255052D01*
X0411396Y0242135D02*
X0412331Y0242135D01*
X0412798Y0241668D01*
X0412798Y0241201D01*
X0412331Y0240734D01*
X0412798Y0240267D01*
X0412798Y0239800D01*
X0412331Y0239333D01*
X0411396Y0239333D01*
X0410929Y0239800D01*
X0409851Y0239800D02*
X0409851Y0242135D01*
X0410929Y0241668D02*
X0411396Y0242135D01*
X0411864Y0240734D02*
X0412331Y0240734D01*
X0409851Y0239800D02*
X0409384Y0239333D01*
X0408450Y0239333D01*
X0407983Y0239800D01*
X0407983Y0242135D01*
X0408195Y0208355D02*
X0408662Y0208355D01*
X0409129Y0207888D01*
X0409129Y0206954D01*
X0408662Y0206487D01*
X0408662Y0205408D02*
X0409129Y0204941D01*
X0409129Y0203540D01*
X0406327Y0203540D01*
X0406327Y0204941D01*
X0406794Y0205408D01*
X0407261Y0205408D01*
X0407728Y0204941D01*
X0407728Y0203540D01*
X0407728Y0204941D02*
X0408195Y0205408D01*
X0408662Y0205408D01*
X0406794Y0206487D02*
X0406327Y0206954D01*
X0406327Y0207888D01*
X0406794Y0208355D01*
X0407261Y0208355D01*
X0407728Y0207888D01*
X0408195Y0208355D01*
X0407728Y0207888D02*
X0407728Y0207421D01*
X0411327Y0207888D02*
X0411327Y0206954D01*
X0411794Y0206487D01*
X0412261Y0206487D01*
X0412728Y0206954D01*
X0412728Y0208355D01*
X0411794Y0208355D02*
X0411327Y0207888D01*
X0411794Y0208355D02*
X0413662Y0208355D01*
X0414129Y0207888D01*
X0414129Y0206954D01*
X0413662Y0206487D01*
X0413662Y0205408D02*
X0414129Y0204941D01*
X0414129Y0204007D01*
X0413662Y0203540D01*
X0411794Y0203540D01*
X0411327Y0204007D01*
X0411327Y0204941D01*
X0411794Y0205408D01*
X0409129Y0200594D02*
X0406327Y0200594D01*
X0406327Y0202462D01*
X0407728Y0201528D02*
X0407728Y0200594D01*
X0409510Y0193635D02*
X0410911Y0193635D01*
X0411378Y0193168D01*
X0411378Y0192234D01*
X0410911Y0191767D01*
X0409510Y0191767D01*
X0410444Y0191767D02*
X0411378Y0190833D01*
X0412456Y0191300D02*
X0412923Y0190833D01*
X0413857Y0190833D01*
X0414324Y0191300D01*
X0414324Y0191767D01*
X0413857Y0192234D01*
X0412456Y0192234D01*
X0412456Y0191300D01*
X0412456Y0192234D02*
X0413390Y0193168D01*
X0414324Y0193635D01*
X0415403Y0193168D02*
X0415403Y0192701D01*
X0415870Y0192234D01*
X0417271Y0192234D01*
X0417271Y0191300D02*
X0417271Y0193168D01*
X0416804Y0193635D01*
X0415870Y0193635D01*
X0415403Y0193168D01*
X0415403Y0191300D02*
X0415870Y0190833D01*
X0416804Y0190833D01*
X0417271Y0191300D01*
X0409510Y0190833D02*
X0409510Y0193635D01*
X0418827Y0200594D02*
X0418827Y0202462D01*
X0418827Y0203540D02*
X0418827Y0204941D01*
X0419294Y0205408D01*
X0419761Y0205408D01*
X0420228Y0204941D01*
X0420228Y0203540D01*
X0421629Y0203540D02*
X0418827Y0203540D01*
X0420228Y0204941D02*
X0420695Y0205408D01*
X0421162Y0205408D01*
X0421629Y0204941D01*
X0421629Y0203540D01*
X0423827Y0204007D02*
X0424294Y0203540D01*
X0426162Y0203540D01*
X0426629Y0204007D01*
X0426629Y0204941D01*
X0426162Y0205408D01*
X0426162Y0206487D02*
X0426629Y0206487D01*
X0426162Y0206487D02*
X0424294Y0208355D01*
X0423827Y0208355D01*
X0423827Y0206487D01*
X0424294Y0205408D02*
X0423827Y0204941D01*
X0423827Y0204007D01*
X0421629Y0206487D02*
X0419761Y0208355D01*
X0419294Y0208355D01*
X0418827Y0207888D01*
X0418827Y0206954D01*
X0419294Y0206487D01*
X0421629Y0206487D02*
X0421629Y0208355D01*
X0420228Y0201528D02*
X0420228Y0200594D01*
X0421629Y0200594D02*
X0418827Y0200594D01*
X0432327Y0200594D02*
X0432327Y0202462D01*
X0432327Y0203540D02*
X0432327Y0204941D01*
X0432794Y0205408D01*
X0433261Y0205408D01*
X0433728Y0204941D01*
X0433728Y0203540D01*
X0435129Y0203540D02*
X0432327Y0203540D01*
X0433728Y0204941D02*
X0434195Y0205408D01*
X0434662Y0205408D01*
X0435129Y0204941D01*
X0435129Y0203540D01*
X0437327Y0204007D02*
X0437794Y0203540D01*
X0439662Y0203540D01*
X0440129Y0204007D01*
X0440129Y0204941D01*
X0439662Y0205408D01*
X0438728Y0206487D02*
X0438728Y0208355D01*
X0437327Y0207888D02*
X0438728Y0206487D01*
X0437794Y0205408D02*
X0437327Y0204941D01*
X0437327Y0204007D01*
X0435129Y0206487D02*
X0435129Y0208355D01*
X0435129Y0207421D02*
X0432327Y0207421D01*
X0433261Y0206487D01*
X0437327Y0207888D02*
X0440129Y0207888D01*
X0435129Y0200594D02*
X0432327Y0200594D01*
X0433728Y0200594D02*
X0433728Y0201528D01*
X0416804Y0178635D02*
X0417271Y0178168D01*
X0415403Y0176300D01*
X0415870Y0175833D01*
X0416804Y0175833D01*
X0417271Y0176300D01*
X0417271Y0178168D01*
X0416804Y0178635D02*
X0415870Y0178635D01*
X0415403Y0178168D01*
X0415403Y0176300D01*
X0414324Y0178168D02*
X0412456Y0176300D01*
X0412456Y0175833D01*
X0411378Y0175833D02*
X0410444Y0176767D01*
X0410911Y0176767D02*
X0409510Y0176767D01*
X0409510Y0175833D02*
X0409510Y0178635D01*
X0410911Y0178635D01*
X0411378Y0178168D01*
X0411378Y0177234D01*
X0410911Y0176767D01*
X0412456Y0178635D02*
X0414324Y0178635D01*
X0414324Y0178168D01*
X0451229Y0130733D02*
X0453729Y0128233D01*
D19*
X0453729Y0130733D02*
X0451229Y0133233D01*
X0379029Y0150669D02*
X0379029Y0151369D01*
X0378679Y0151719D01*
X0379029Y0152528D02*
X0379029Y0153929D01*
X0379029Y0153229D02*
X0376928Y0153229D01*
X0377628Y0152528D01*
X0377278Y0151719D02*
X0376928Y0151369D01*
X0376928Y0150669D01*
X0377278Y0150318D01*
X0378679Y0150318D01*
X0379029Y0150669D01*
X0379029Y0154738D02*
X0377628Y0156139D01*
X0377278Y0156139D01*
X0376928Y0155789D01*
X0376928Y0155088D01*
X0377278Y0154738D01*
X0379029Y0154738D02*
X0379029Y0156139D01*
X0352779Y0156378D02*
X0352779Y0157079D01*
X0352429Y0157429D01*
X0352079Y0157429D01*
X0351728Y0157079D01*
X0351728Y0156028D01*
X0352429Y0156028D01*
X0352779Y0156378D01*
X0351728Y0156028D02*
X0351028Y0156729D01*
X0350678Y0157429D01*
X0349779Y0156789D02*
X0347678Y0156789D01*
X0348728Y0155738D01*
X0348728Y0157139D01*
X0349779Y0154929D02*
X0349779Y0153528D01*
X0349779Y0154229D02*
X0347678Y0154229D01*
X0348378Y0153528D01*
X0349779Y0152719D02*
X0349779Y0151318D01*
X0347678Y0151318D01*
X0345636Y0149285D02*
X0345636Y0148935D01*
X0344234Y0147533D01*
X0344234Y0147183D01*
X0343075Y0147183D02*
X0343075Y0149285D01*
X0342024Y0148234D01*
X0343426Y0148234D01*
X0344234Y0149285D02*
X0345636Y0149285D01*
X0341216Y0148935D02*
X0341216Y0148234D01*
X0340865Y0147884D01*
X0339815Y0147884D01*
X0340515Y0147884D02*
X0341216Y0147183D01*
X0339815Y0147183D02*
X0339815Y0149285D01*
X0340865Y0149285D01*
X0341216Y0148935D01*
X0350678Y0154169D02*
X0351028Y0153818D01*
X0352429Y0153818D01*
X0352779Y0154169D01*
X0352779Y0154869D01*
X0352429Y0155219D01*
X0351028Y0155219D02*
X0350678Y0154869D01*
X0350678Y0154169D01*
X0351728Y0158238D02*
X0351728Y0159639D01*
X0350678Y0159289D02*
X0351728Y0158238D01*
X0350678Y0159289D02*
X0352779Y0159289D01*
X0329636Y0152185D02*
X0329636Y0151834D01*
X0329285Y0151484D01*
X0328585Y0151484D01*
X0328234Y0151834D01*
X0328234Y0152185D01*
X0328585Y0152535D01*
X0329285Y0152535D01*
X0329636Y0152185D01*
X0329285Y0151484D02*
X0329636Y0151134D01*
X0329636Y0150783D01*
X0329285Y0150433D01*
X0328585Y0150433D01*
X0328234Y0150783D01*
X0328234Y0151134D01*
X0328585Y0151484D01*
X0327426Y0151484D02*
X0326024Y0151484D01*
X0327075Y0152535D01*
X0327075Y0150433D01*
X0325216Y0150433D02*
X0324515Y0151134D01*
X0324865Y0151134D02*
X0323815Y0151134D01*
X0323815Y0150433D02*
X0323815Y0152535D01*
X0324865Y0152535D01*
X0325216Y0152185D01*
X0325216Y0151484D01*
X0324865Y0151134D01*
X0322136Y0151484D02*
X0322136Y0150783D01*
X0321785Y0150433D01*
X0321085Y0150433D01*
X0320734Y0150783D01*
X0320734Y0151484D02*
X0321435Y0151834D01*
X0321785Y0151834D01*
X0322136Y0151484D01*
X0322136Y0152535D02*
X0320734Y0152535D01*
X0320734Y0151484D01*
X0319926Y0151134D02*
X0319575Y0151484D01*
X0318524Y0151484D01*
X0318524Y0150783D01*
X0318875Y0150433D01*
X0319575Y0150433D01*
X0319926Y0150783D01*
X0319926Y0151134D01*
X0319225Y0152185D02*
X0318524Y0151484D01*
X0319225Y0152185D02*
X0319926Y0152535D01*
X0317716Y0152185D02*
X0317365Y0152535D01*
X0316665Y0152535D01*
X0316315Y0152185D01*
X0316315Y0150783D01*
X0316665Y0150433D01*
X0317365Y0150433D01*
X0317716Y0150783D01*
X0313429Y0160068D02*
X0313779Y0160419D01*
X0313779Y0161119D01*
X0313429Y0161469D01*
X0313429Y0162278D02*
X0313779Y0162628D01*
X0313779Y0163329D01*
X0313429Y0163679D01*
X0313079Y0163679D01*
X0312728Y0163329D01*
X0312728Y0162278D01*
X0313429Y0162278D01*
X0312728Y0162278D02*
X0312028Y0162979D01*
X0311678Y0163679D01*
X0312728Y0164488D02*
X0312728Y0165539D01*
X0313079Y0165889D01*
X0313429Y0165889D01*
X0313779Y0165539D01*
X0313779Y0164838D01*
X0313429Y0164488D01*
X0312728Y0164488D01*
X0312028Y0165189D01*
X0311678Y0165889D01*
X0312028Y0161469D02*
X0311678Y0161119D01*
X0311678Y0160419D01*
X0312028Y0160068D01*
X0313429Y0160068D01*
X0294386Y0155435D02*
X0294035Y0155785D01*
X0293335Y0155785D01*
X0292984Y0155435D01*
X0292984Y0155084D01*
X0293335Y0154734D01*
X0294386Y0154734D01*
X0294386Y0154033D02*
X0294386Y0155435D01*
X0294386Y0154033D02*
X0294035Y0153683D01*
X0293335Y0153683D01*
X0292984Y0154033D01*
X0292176Y0154033D02*
X0291825Y0153683D01*
X0291125Y0153683D01*
X0290774Y0154033D01*
X0289966Y0154033D02*
X0289615Y0153683D01*
X0288915Y0153683D01*
X0288565Y0154033D01*
X0288565Y0155435D01*
X0288915Y0155785D01*
X0289615Y0155785D01*
X0289966Y0155435D01*
X0290774Y0155435D02*
X0291125Y0155785D01*
X0291825Y0155785D01*
X0292176Y0155435D01*
X0292176Y0155084D01*
X0291825Y0154734D01*
X0292176Y0154384D01*
X0292176Y0154033D01*
X0291825Y0154734D02*
X0291475Y0154734D01*
X0281279Y0153289D02*
X0281279Y0152588D01*
X0280929Y0152238D01*
X0280579Y0152238D01*
X0280228Y0152588D01*
X0280228Y0153289D01*
X0280579Y0153639D01*
X0280929Y0153639D01*
X0281279Y0153289D01*
X0280228Y0153289D02*
X0279878Y0153639D01*
X0279528Y0153639D01*
X0279178Y0153289D01*
X0279178Y0152588D01*
X0279528Y0152238D01*
X0279878Y0152238D01*
X0280228Y0152588D01*
X0279878Y0151429D02*
X0280228Y0151079D01*
X0280579Y0151429D01*
X0280929Y0151429D01*
X0281279Y0151079D01*
X0281279Y0150378D01*
X0280929Y0150028D01*
X0280929Y0149219D02*
X0281279Y0148869D01*
X0281279Y0148169D01*
X0280929Y0147818D01*
X0279528Y0147818D01*
X0279178Y0148169D01*
X0279178Y0148869D01*
X0279528Y0149219D01*
X0279528Y0150028D02*
X0279178Y0150378D01*
X0279178Y0151079D01*
X0279528Y0151429D01*
X0279878Y0151429D01*
X0280228Y0151079D02*
X0280228Y0150729D01*
X0273779Y0151429D02*
X0273779Y0150028D01*
X0272378Y0151429D01*
X0272028Y0151429D01*
X0271678Y0151079D01*
X0271678Y0150378D01*
X0272028Y0150028D01*
X0272028Y0149219D02*
X0272728Y0149219D01*
X0273079Y0148869D01*
X0273079Y0147818D01*
X0273779Y0147818D02*
X0271678Y0147818D01*
X0271678Y0148869D01*
X0272028Y0149219D01*
X0273079Y0148519D02*
X0273779Y0149219D01*
X0273429Y0152238D02*
X0272028Y0153639D01*
X0273429Y0153639D01*
X0273779Y0153289D01*
X0273779Y0152588D01*
X0273429Y0152238D01*
X0272028Y0152238D01*
X0271678Y0152588D01*
X0271678Y0153289D01*
X0272028Y0153639D01*
X0278678Y0143389D02*
X0278678Y0141988D01*
X0279728Y0141988D01*
X0279378Y0142689D01*
X0279378Y0143039D01*
X0279728Y0143389D01*
X0280429Y0143389D01*
X0280779Y0143039D01*
X0280779Y0142338D01*
X0280429Y0141988D01*
X0280779Y0141179D02*
X0280079Y0140479D01*
X0280079Y0140829D02*
X0280079Y0139778D01*
X0280779Y0139778D02*
X0278678Y0139778D01*
X0278678Y0140829D01*
X0279028Y0141179D01*
X0279728Y0141179D01*
X0280079Y0140829D01*
X0278678Y0138969D02*
X0278678Y0137568D01*
X0278678Y0138269D02*
X0280779Y0138269D01*
X0280629Y0134285D02*
X0280629Y0133234D01*
X0281330Y0133584D01*
X0281680Y0133584D01*
X0282031Y0133234D01*
X0282031Y0132533D01*
X0281680Y0132183D01*
X0280980Y0132183D01*
X0280629Y0132533D01*
X0279821Y0132183D02*
X0278420Y0132183D01*
X0278420Y0134285D01*
X0280629Y0134285D02*
X0282031Y0134285D01*
X0276028Y0121704D02*
X0277429Y0120303D01*
X0277779Y0120303D01*
X0277779Y0119494D02*
X0277779Y0118093D01*
X0277779Y0118794D02*
X0275678Y0118794D01*
X0276378Y0118093D01*
X0276028Y0117284D02*
X0276728Y0117284D01*
X0277079Y0116934D01*
X0277079Y0115883D01*
X0277779Y0115883D02*
X0275678Y0115883D01*
X0275678Y0116934D01*
X0276028Y0117284D01*
X0277079Y0116584D02*
X0277779Y0117284D01*
X0279815Y0117685D02*
X0279815Y0116283D01*
X0280165Y0115933D01*
X0280865Y0115933D01*
X0281216Y0116283D01*
X0282024Y0116283D02*
X0282375Y0115933D01*
X0283075Y0115933D01*
X0283426Y0116283D01*
X0283426Y0116634D01*
X0283075Y0116984D01*
X0282725Y0116984D01*
X0283075Y0116984D02*
X0283426Y0117334D01*
X0283426Y0117685D01*
X0283075Y0118035D01*
X0282375Y0118035D01*
X0282024Y0117685D01*
X0281216Y0117685D02*
X0280865Y0118035D01*
X0280165Y0118035D01*
X0279815Y0117685D01*
X0284234Y0118035D02*
X0285636Y0118035D01*
X0285636Y0117685D01*
X0284234Y0116283D01*
X0284234Y0115933D01*
X0275678Y0120303D02*
X0275678Y0121704D01*
X0276028Y0121704D01*
X0274029Y0121354D02*
X0274029Y0120653D01*
X0273679Y0120303D01*
X0273329Y0120303D01*
X0272978Y0120653D01*
X0272978Y0121354D01*
X0273329Y0121704D01*
X0273679Y0121704D01*
X0274029Y0121354D01*
X0272978Y0121354D02*
X0272628Y0121704D01*
X0272278Y0121704D01*
X0271928Y0121354D01*
X0271928Y0120653D01*
X0272278Y0120303D01*
X0272628Y0120303D01*
X0272978Y0120653D01*
X0274029Y0119494D02*
X0274029Y0118093D01*
X0274029Y0118794D02*
X0271928Y0118794D01*
X0272628Y0118093D01*
X0272278Y0117284D02*
X0272978Y0117284D01*
X0273329Y0116934D01*
X0273329Y0115883D01*
X0274029Y0115883D02*
X0271928Y0115883D01*
X0271928Y0116934D01*
X0272278Y0117284D01*
X0273329Y0116584D02*
X0274029Y0117284D01*
X0270279Y0117284D02*
X0269579Y0116584D01*
X0269579Y0116934D02*
X0269579Y0115883D01*
X0270279Y0115883D02*
X0268178Y0115883D01*
X0268178Y0116934D01*
X0268528Y0117284D01*
X0269228Y0117284D01*
X0269579Y0116934D01*
X0270279Y0118093D02*
X0270279Y0119494D01*
X0270279Y0118794D02*
X0268178Y0118794D01*
X0268878Y0118093D01*
X0268878Y0120303D02*
X0269228Y0120653D01*
X0269228Y0121704D01*
X0268528Y0121704D02*
X0268178Y0121354D01*
X0268178Y0120653D01*
X0268528Y0120303D01*
X0268878Y0120303D01*
X0269929Y0120303D02*
X0270279Y0120653D01*
X0270279Y0121354D01*
X0269929Y0121704D01*
X0268528Y0121704D01*
X0248136Y0117685D02*
X0246734Y0116283D01*
X0247085Y0115933D01*
X0247785Y0115933D01*
X0248136Y0116283D01*
X0248136Y0117685D01*
X0247785Y0118035D01*
X0247085Y0118035D01*
X0246734Y0117685D01*
X0246734Y0116283D01*
X0245926Y0116984D02*
X0244524Y0116984D01*
X0245575Y0118035D01*
X0245575Y0115933D01*
X0243716Y0116283D02*
X0243365Y0115933D01*
X0242665Y0115933D01*
X0242315Y0116283D01*
X0242315Y0117685D01*
X0242665Y0118035D01*
X0243365Y0118035D01*
X0243716Y0117685D01*
X0240279Y0117284D02*
X0239579Y0116584D01*
X0239579Y0116934D02*
X0239579Y0115883D01*
X0240279Y0115883D02*
X0238178Y0115883D01*
X0238178Y0116934D01*
X0238528Y0117284D01*
X0239228Y0117284D01*
X0239579Y0116934D01*
X0240279Y0118093D02*
X0238878Y0119494D01*
X0238528Y0119494D01*
X0238178Y0119144D01*
X0238178Y0118443D01*
X0238528Y0118093D01*
X0240279Y0118093D02*
X0240279Y0119494D01*
X0240279Y0120303D02*
X0240279Y0121704D01*
X0240279Y0121003D02*
X0238178Y0121003D01*
X0238878Y0120303D01*
X0236529Y0120303D02*
X0235128Y0121704D01*
X0234778Y0121704D01*
X0234428Y0121354D01*
X0234428Y0120653D01*
X0234778Y0120303D01*
X0234778Y0119494D02*
X0234428Y0119144D01*
X0234428Y0118443D01*
X0234778Y0118093D01*
X0234778Y0117284D02*
X0235478Y0117284D01*
X0235829Y0116934D01*
X0235829Y0115883D01*
X0236529Y0115883D02*
X0234428Y0115883D01*
X0234428Y0116934D01*
X0234778Y0117284D01*
X0235829Y0116584D02*
X0236529Y0117284D01*
X0236529Y0118093D02*
X0235128Y0119494D01*
X0234778Y0119494D01*
X0236529Y0119494D02*
X0236529Y0118093D01*
X0236529Y0120303D02*
X0236529Y0121704D01*
X0232779Y0121354D02*
X0232779Y0120653D01*
X0232429Y0120303D01*
X0232779Y0119494D02*
X0232779Y0118093D01*
X0231378Y0119494D01*
X0231028Y0119494D01*
X0230678Y0119144D01*
X0230678Y0118443D01*
X0231028Y0118093D01*
X0231028Y0117284D02*
X0231728Y0117284D01*
X0232079Y0116934D01*
X0232079Y0115883D01*
X0232779Y0115883D02*
X0230678Y0115883D01*
X0230678Y0116934D01*
X0231028Y0117284D01*
X0232079Y0116584D02*
X0232779Y0117284D01*
X0231028Y0120303D02*
X0230678Y0120653D01*
X0230678Y0121354D01*
X0231028Y0121704D01*
X0231378Y0121704D01*
X0231728Y0121354D01*
X0232079Y0121704D01*
X0232429Y0121704D01*
X0232779Y0121354D01*
X0231728Y0121354D02*
X0231728Y0121003D01*
X0240920Y0132183D02*
X0242321Y0132183D01*
X0243129Y0132533D02*
X0243480Y0132183D01*
X0244180Y0132183D01*
X0244531Y0132533D01*
X0244531Y0132884D01*
X0244180Y0133234D01*
X0243129Y0133234D01*
X0243129Y0132533D01*
X0243129Y0133234D02*
X0243830Y0133935D01*
X0244531Y0134285D01*
X0240920Y0134285D02*
X0240920Y0132183D01*
X0241178Y0137568D02*
X0241178Y0138969D01*
X0241178Y0138269D02*
X0243279Y0138269D01*
X0243279Y0139778D02*
X0241178Y0139778D01*
X0241178Y0140829D01*
X0241528Y0141179D01*
X0242228Y0141179D01*
X0242579Y0140829D01*
X0242579Y0139778D01*
X0242579Y0140479D02*
X0243279Y0141179D01*
X0242929Y0141988D02*
X0243279Y0142338D01*
X0243279Y0143039D01*
X0242929Y0143389D01*
X0242579Y0143389D01*
X0242228Y0143039D01*
X0242228Y0141988D01*
X0242929Y0141988D01*
X0242228Y0141988D02*
X0241528Y0142689D01*
X0241178Y0143389D01*
X0242028Y0147818D02*
X0243429Y0147818D01*
X0243779Y0148169D01*
X0243779Y0148869D01*
X0243429Y0149219D01*
X0242728Y0150028D02*
X0242728Y0151429D01*
X0242378Y0152238D02*
X0241678Y0152939D01*
X0243779Y0152939D01*
X0243779Y0153639D02*
X0243779Y0152238D01*
X0243779Y0151079D02*
X0241678Y0151079D01*
X0242728Y0150028D01*
X0242028Y0149219D02*
X0241678Y0148869D01*
X0241678Y0148169D01*
X0242028Y0147818D01*
X0236279Y0147818D02*
X0234178Y0147818D01*
X0234178Y0148869D01*
X0234528Y0149219D01*
X0235228Y0149219D01*
X0235579Y0148869D01*
X0235579Y0147818D01*
X0235579Y0148519D02*
X0236279Y0149219D01*
X0236279Y0150028D02*
X0234878Y0151429D01*
X0234528Y0151429D01*
X0234178Y0151079D01*
X0234178Y0150378D01*
X0234528Y0150028D01*
X0236279Y0150028D02*
X0236279Y0151429D01*
X0235228Y0152238D02*
X0235228Y0153639D01*
X0234178Y0153289D02*
X0235228Y0152238D01*
X0234178Y0153289D02*
X0236279Y0153289D01*
X0251065Y0154033D02*
X0251415Y0153683D01*
X0252115Y0153683D01*
X0252466Y0154033D01*
X0253274Y0154734D02*
X0254676Y0154734D01*
X0255484Y0155435D02*
X0255835Y0155785D01*
X0256535Y0155785D01*
X0256886Y0155435D01*
X0256886Y0155084D01*
X0255484Y0153683D01*
X0256886Y0153683D01*
X0254325Y0153683D02*
X0254325Y0155785D01*
X0253274Y0154734D01*
X0252466Y0155435D02*
X0252115Y0155785D01*
X0251415Y0155785D01*
X0251065Y0155435D01*
X0251065Y0154033D01*
X0271065Y0170533D02*
X0271415Y0170183D01*
X0272115Y0170183D01*
X0272466Y0170533D01*
X0273274Y0170533D02*
X0273274Y0170884D01*
X0273625Y0171234D01*
X0274325Y0171234D01*
X0274676Y0170884D01*
X0274676Y0170533D01*
X0274325Y0170183D01*
X0273625Y0170183D01*
X0273274Y0170533D01*
X0273625Y0171234D02*
X0273274Y0171584D01*
X0273274Y0171935D01*
X0273625Y0172285D01*
X0274325Y0172285D01*
X0274676Y0171935D01*
X0274676Y0171584D01*
X0274325Y0171234D01*
X0275484Y0171234D02*
X0276185Y0171584D01*
X0276535Y0171584D01*
X0276886Y0171234D01*
X0276886Y0170533D01*
X0276535Y0170183D01*
X0275835Y0170183D01*
X0275484Y0170533D01*
X0275484Y0171234D02*
X0275484Y0172285D01*
X0276886Y0172285D01*
X0272466Y0171935D02*
X0272115Y0172285D01*
X0271415Y0172285D01*
X0271065Y0171935D01*
X0271065Y0170533D01*
X0284428Y0182568D02*
X0284428Y0183619D01*
X0284778Y0183969D01*
X0285478Y0183969D01*
X0285829Y0183619D01*
X0285829Y0182568D01*
X0286529Y0182568D02*
X0284428Y0182568D01*
X0285829Y0183269D02*
X0286529Y0183969D01*
X0286179Y0184778D02*
X0286529Y0185128D01*
X0286529Y0185829D01*
X0286179Y0186179D01*
X0284778Y0186179D01*
X0284428Y0185829D01*
X0284428Y0185128D01*
X0284778Y0184778D01*
X0285128Y0184778D01*
X0285478Y0185128D01*
X0285478Y0186179D01*
X0285478Y0186988D02*
X0285478Y0188389D01*
X0284428Y0188039D02*
X0286529Y0188039D01*
X0285478Y0186988D02*
X0284428Y0188039D01*
X0288178Y0188039D02*
X0288178Y0187338D01*
X0288528Y0186988D01*
X0288528Y0186179D02*
X0288878Y0186179D01*
X0289228Y0185829D01*
X0289228Y0185128D01*
X0288878Y0184778D01*
X0288528Y0184778D01*
X0288178Y0185128D01*
X0288178Y0185829D01*
X0288528Y0186179D01*
X0289228Y0185829D02*
X0289579Y0186179D01*
X0289929Y0186179D01*
X0290279Y0185829D01*
X0290279Y0185128D01*
X0289929Y0184778D01*
X0289579Y0184778D01*
X0289228Y0185128D01*
X0288528Y0183969D02*
X0288178Y0183619D01*
X0288178Y0182919D01*
X0288528Y0182568D01*
X0289929Y0182568D01*
X0290279Y0182919D01*
X0290279Y0183619D01*
X0289929Y0183969D01*
X0290279Y0186988D02*
X0288878Y0188389D01*
X0288528Y0188389D01*
X0288178Y0188039D01*
X0290279Y0188389D02*
X0290279Y0186988D01*
X0298915Y0200683D02*
X0299615Y0200683D01*
X0299966Y0201033D01*
X0300774Y0200683D02*
X0302176Y0202084D01*
X0302176Y0202435D01*
X0301825Y0202785D01*
X0301125Y0202785D01*
X0300774Y0202435D01*
X0299966Y0202435D02*
X0299615Y0202785D01*
X0298915Y0202785D01*
X0298565Y0202435D01*
X0298565Y0201033D01*
X0298915Y0200683D01*
X0300774Y0200683D02*
X0302176Y0200683D01*
X0302984Y0200683D02*
X0304386Y0200683D01*
X0303685Y0200683D02*
X0303685Y0202785D01*
X0302984Y0202084D01*
X0312178Y0203169D02*
X0312528Y0202818D01*
X0313929Y0202818D01*
X0314279Y0203169D01*
X0314279Y0203869D01*
X0313929Y0204219D01*
X0314279Y0205028D02*
X0312878Y0206429D01*
X0312528Y0206429D01*
X0312178Y0206079D01*
X0312178Y0205378D01*
X0312528Y0205028D01*
X0312528Y0204219D02*
X0312178Y0203869D01*
X0312178Y0203169D01*
X0314279Y0205028D02*
X0314279Y0206429D01*
X0313929Y0207238D02*
X0312528Y0208639D01*
X0313929Y0208639D01*
X0314279Y0208289D01*
X0314279Y0207588D01*
X0313929Y0207238D01*
X0312528Y0207238D01*
X0312178Y0207588D01*
X0312178Y0208289D01*
X0312528Y0208639D01*
X0312678Y0212568D02*
X0312678Y0213969D01*
X0312678Y0213269D02*
X0314779Y0213269D01*
X0314779Y0214778D02*
X0312678Y0214778D01*
X0312678Y0215829D01*
X0313028Y0216179D01*
X0313728Y0216179D01*
X0314079Y0215829D01*
X0314079Y0214778D01*
X0314079Y0215479D02*
X0314779Y0216179D01*
X0314429Y0216988D02*
X0314779Y0217338D01*
X0314779Y0218039D01*
X0314429Y0218389D01*
X0314079Y0218389D01*
X0313728Y0218039D01*
X0313728Y0217689D01*
X0313728Y0218039D02*
X0313378Y0218389D01*
X0313028Y0218389D01*
X0312678Y0218039D01*
X0312678Y0217338D01*
X0313028Y0216988D01*
X0313480Y0222183D02*
X0313129Y0222533D01*
X0313480Y0222183D02*
X0314180Y0222183D01*
X0314531Y0222533D01*
X0314531Y0222884D01*
X0314180Y0223234D01*
X0313830Y0223234D01*
X0314180Y0223234D02*
X0314531Y0223584D01*
X0314531Y0223935D01*
X0314180Y0224285D01*
X0313480Y0224285D01*
X0313129Y0223935D01*
X0312321Y0222183D02*
X0310920Y0222183D01*
X0310920Y0224285D01*
X0319428Y0234753D02*
X0319428Y0235804D01*
X0319778Y0236155D01*
X0320478Y0236155D01*
X0320829Y0235804D01*
X0320829Y0234753D01*
X0321529Y0234753D02*
X0319428Y0234753D01*
X0320829Y0235454D02*
X0321529Y0236155D01*
X0321529Y0236963D02*
X0321529Y0238364D01*
X0321529Y0237664D02*
X0319428Y0237664D01*
X0320128Y0236963D01*
X0319778Y0239173D02*
X0319428Y0239523D01*
X0319428Y0240224D01*
X0319778Y0240574D01*
X0321179Y0239173D01*
X0321529Y0239523D01*
X0321529Y0240224D01*
X0321179Y0240574D01*
X0319778Y0240574D01*
X0319778Y0239173D02*
X0321179Y0239173D01*
X0323178Y0239874D02*
X0325279Y0239874D01*
X0325279Y0240574D02*
X0325279Y0239173D01*
X0325279Y0238364D02*
X0325279Y0236963D01*
X0325279Y0237664D02*
X0323178Y0237664D01*
X0323878Y0236963D01*
X0323528Y0236155D02*
X0324228Y0236155D01*
X0324579Y0235804D01*
X0324579Y0234753D01*
X0325279Y0234753D02*
X0323178Y0234753D01*
X0323178Y0235804D01*
X0323528Y0236155D01*
X0324579Y0235454D02*
X0325279Y0236155D01*
X0323878Y0239173D02*
X0323178Y0239874D01*
X0317779Y0240224D02*
X0317429Y0240574D01*
X0316028Y0240574D01*
X0315678Y0240224D01*
X0315678Y0239523D01*
X0316028Y0239173D01*
X0316378Y0239173D01*
X0316728Y0239523D01*
X0316728Y0240574D01*
X0317779Y0240224D02*
X0317779Y0239523D01*
X0317429Y0239173D01*
X0317779Y0238364D02*
X0317079Y0237664D01*
X0317079Y0238014D02*
X0317079Y0236963D01*
X0317779Y0236963D02*
X0315678Y0236963D01*
X0315678Y0238014D01*
X0316028Y0238364D01*
X0316728Y0238364D01*
X0317079Y0238014D01*
X0313136Y0238783D02*
X0313136Y0240185D01*
X0312785Y0240535D01*
X0312085Y0240535D01*
X0311734Y0240185D01*
X0311734Y0239834D01*
X0312085Y0239484D01*
X0313136Y0239484D01*
X0313136Y0238783D02*
X0312785Y0238433D01*
X0312085Y0238433D01*
X0311734Y0238783D01*
X0310926Y0238433D02*
X0309524Y0238433D01*
X0310225Y0238433D02*
X0310225Y0240535D01*
X0309524Y0239834D01*
X0308716Y0240185D02*
X0308365Y0240535D01*
X0307665Y0240535D01*
X0307315Y0240185D01*
X0307315Y0238783D01*
X0307665Y0238433D01*
X0308365Y0238433D01*
X0308716Y0238783D01*
X0287779Y0239173D02*
X0287429Y0239173D01*
X0286028Y0240574D01*
X0285678Y0240574D01*
X0285678Y0239173D01*
X0286028Y0238364D02*
X0286728Y0238364D01*
X0287079Y0238014D01*
X0287079Y0236963D01*
X0287779Y0236963D02*
X0285678Y0236963D01*
X0285678Y0238014D01*
X0286028Y0238364D01*
X0287079Y0237664D02*
X0287779Y0238364D01*
X0284029Y0238364D02*
X0283329Y0237664D01*
X0283329Y0238014D02*
X0283329Y0236963D01*
X0284029Y0236963D02*
X0281928Y0236963D01*
X0281928Y0238014D01*
X0282278Y0238364D01*
X0282978Y0238364D01*
X0283329Y0238014D01*
X0283679Y0239173D02*
X0284029Y0239523D01*
X0284029Y0240224D01*
X0283679Y0240574D01*
X0283329Y0240574D01*
X0282978Y0240224D01*
X0282978Y0239173D01*
X0283679Y0239173D01*
X0282978Y0239173D02*
X0282278Y0239874D01*
X0281928Y0240574D01*
X0280279Y0240224D02*
X0280279Y0239523D01*
X0279929Y0239173D01*
X0279228Y0239173D02*
X0278878Y0239874D01*
X0278878Y0240224D01*
X0279228Y0240574D01*
X0279929Y0240574D01*
X0280279Y0240224D01*
X0279228Y0239173D02*
X0278178Y0239173D01*
X0278178Y0240574D01*
X0278528Y0238364D02*
X0279228Y0238364D01*
X0279579Y0238014D01*
X0279579Y0236963D01*
X0280279Y0236963D02*
X0278178Y0236963D01*
X0278178Y0238014D01*
X0278528Y0238364D01*
X0279579Y0237664D02*
X0280279Y0238364D01*
X0275636Y0238783D02*
X0275636Y0239134D01*
X0275285Y0239484D01*
X0274234Y0239484D01*
X0274234Y0238783D01*
X0274585Y0238433D01*
X0275285Y0238433D01*
X0275636Y0238783D01*
X0274935Y0240185D02*
X0274234Y0239484D01*
X0274935Y0240185D02*
X0275636Y0240535D01*
X0272725Y0240535D02*
X0272725Y0238433D01*
X0272024Y0238433D02*
X0273426Y0238433D01*
X0272024Y0239834D02*
X0272725Y0240535D01*
X0271216Y0240185D02*
X0270865Y0240535D01*
X0270165Y0240535D01*
X0269815Y0240185D01*
X0269815Y0238783D01*
X0270165Y0238433D01*
X0270865Y0238433D01*
X0271216Y0238783D01*
X0273420Y0224285D02*
X0273420Y0222183D01*
X0274821Y0222183D01*
X0275629Y0222183D02*
X0277031Y0223584D01*
X0277031Y0223935D01*
X0276680Y0224285D01*
X0275980Y0224285D01*
X0275629Y0223935D01*
X0275629Y0222183D02*
X0277031Y0222183D01*
X0277279Y0218389D02*
X0277279Y0216988D01*
X0275878Y0218389D01*
X0275528Y0218389D01*
X0275178Y0218039D01*
X0275178Y0217338D01*
X0275528Y0216988D01*
X0275528Y0216179D02*
X0276228Y0216179D01*
X0276579Y0215829D01*
X0276579Y0214778D01*
X0277279Y0214778D02*
X0275178Y0214778D01*
X0275178Y0215829D01*
X0275528Y0216179D01*
X0276579Y0215479D02*
X0277279Y0216179D01*
X0277279Y0213269D02*
X0275178Y0213269D01*
X0275178Y0213969D02*
X0275178Y0212568D01*
X0275028Y0208639D02*
X0276429Y0207238D01*
X0276779Y0207238D01*
X0276779Y0206429D02*
X0276779Y0205028D01*
X0276779Y0205729D02*
X0274678Y0205729D01*
X0275378Y0205028D01*
X0275028Y0204219D02*
X0274678Y0203869D01*
X0274678Y0203169D01*
X0275028Y0202818D01*
X0276429Y0202818D01*
X0276779Y0203169D01*
X0276779Y0203869D01*
X0276429Y0204219D01*
X0274678Y0207238D02*
X0274678Y0208639D01*
X0275028Y0208639D01*
X0282178Y0207184D02*
X0282178Y0206483D01*
X0282528Y0206133D01*
X0282878Y0206133D01*
X0283228Y0206483D01*
X0283228Y0207184D01*
X0283579Y0207534D01*
X0283929Y0207534D01*
X0284279Y0207184D01*
X0284279Y0206483D01*
X0283929Y0206133D01*
X0283579Y0206133D01*
X0283228Y0206483D01*
X0283228Y0207184D02*
X0282878Y0207534D01*
X0282528Y0207534D01*
X0282178Y0207184D01*
X0282528Y0205324D02*
X0283228Y0205324D01*
X0283579Y0204974D01*
X0283579Y0203923D01*
X0284279Y0203923D02*
X0282178Y0203923D01*
X0282178Y0204974D01*
X0282528Y0205324D01*
X0283579Y0204624D02*
X0284279Y0205324D01*
X0266886Y0202435D02*
X0266886Y0202084D01*
X0266535Y0201734D01*
X0265835Y0201734D01*
X0265484Y0202084D01*
X0265484Y0202435D01*
X0265835Y0202785D01*
X0266535Y0202785D01*
X0266886Y0202435D01*
X0266535Y0201734D02*
X0266886Y0201384D01*
X0266886Y0201033D01*
X0266535Y0200683D01*
X0265835Y0200683D01*
X0265484Y0201033D01*
X0265484Y0201384D01*
X0265835Y0201734D01*
X0264676Y0200683D02*
X0263274Y0200683D01*
X0263975Y0200683D02*
X0263975Y0202785D01*
X0263274Y0202084D01*
X0262466Y0202435D02*
X0262115Y0202785D01*
X0261415Y0202785D01*
X0261065Y0202435D01*
X0261065Y0201033D01*
X0261415Y0200683D01*
X0262115Y0200683D01*
X0262466Y0201033D01*
X0246779Y0203923D02*
X0244678Y0203923D01*
X0244678Y0204974D01*
X0245028Y0205324D01*
X0245728Y0205324D01*
X0246079Y0204974D01*
X0246079Y0203923D01*
X0246079Y0204624D02*
X0246779Y0205324D01*
X0245728Y0206133D02*
X0245728Y0207534D01*
X0244678Y0207184D02*
X0245728Y0206133D01*
X0244678Y0207184D02*
X0246779Y0207184D01*
X0239279Y0206429D02*
X0239279Y0205028D01*
X0239279Y0205729D02*
X0237178Y0205729D01*
X0237878Y0205028D01*
X0237528Y0204219D02*
X0237178Y0203869D01*
X0237178Y0203169D01*
X0237528Y0202818D01*
X0238929Y0202818D01*
X0239279Y0203169D01*
X0239279Y0203869D01*
X0238929Y0204219D01*
X0238228Y0207238D02*
X0238228Y0208639D01*
X0237178Y0208289D02*
X0238228Y0207238D01*
X0237178Y0208289D02*
X0239279Y0208289D01*
X0237678Y0212568D02*
X0237678Y0213969D01*
X0237678Y0213269D02*
X0239779Y0213269D01*
X0239779Y0214778D02*
X0237678Y0214778D01*
X0237678Y0215829D01*
X0238028Y0216179D01*
X0238728Y0216179D01*
X0239079Y0215829D01*
X0239079Y0214778D01*
X0239079Y0215479D02*
X0239779Y0216179D01*
X0239779Y0216988D02*
X0239779Y0218389D01*
X0239779Y0217689D02*
X0237678Y0217689D01*
X0238378Y0216988D01*
X0238129Y0222183D02*
X0239531Y0222183D01*
X0238830Y0222183D02*
X0238830Y0224285D01*
X0238129Y0223584D01*
X0237321Y0222183D02*
X0235920Y0222183D01*
X0235920Y0224285D01*
X0240678Y0236963D02*
X0240678Y0238014D01*
X0241028Y0238364D01*
X0241728Y0238364D01*
X0242079Y0238014D01*
X0242079Y0236963D01*
X0242779Y0236963D02*
X0240678Y0236963D01*
X0242079Y0237664D02*
X0242779Y0238364D01*
X0242779Y0239173D02*
X0242779Y0240574D01*
X0242779Y0239874D02*
X0240678Y0239874D01*
X0241378Y0239173D01*
X0244428Y0239523D02*
X0244778Y0239173D01*
X0244428Y0239523D02*
X0244428Y0240224D01*
X0244778Y0240574D01*
X0245128Y0240574D01*
X0246529Y0239173D01*
X0246529Y0240574D01*
X0248178Y0240224D02*
X0248528Y0240574D01*
X0248878Y0240574D01*
X0249228Y0240224D01*
X0249579Y0240574D01*
X0249929Y0240574D01*
X0250279Y0240224D01*
X0250279Y0239523D01*
X0249929Y0239173D01*
X0250279Y0238364D02*
X0249579Y0237664D01*
X0249579Y0238014D02*
X0249579Y0236963D01*
X0250279Y0236963D02*
X0248178Y0236963D01*
X0248178Y0238014D01*
X0248528Y0238364D01*
X0249228Y0238364D01*
X0249579Y0238014D01*
X0248528Y0239173D02*
X0248178Y0239523D01*
X0248178Y0240224D01*
X0249228Y0240224D02*
X0249228Y0239874D01*
X0246529Y0238364D02*
X0245829Y0237664D01*
X0245829Y0238014D02*
X0245829Y0236963D01*
X0246529Y0236963D02*
X0244428Y0236963D01*
X0244428Y0238014D01*
X0244778Y0238364D01*
X0245478Y0238364D01*
X0245829Y0238014D01*
X0238136Y0238783D02*
X0237785Y0238433D01*
X0237085Y0238433D01*
X0236734Y0238783D01*
X0235926Y0238433D02*
X0234524Y0238433D01*
X0235225Y0238433D02*
X0235225Y0240535D01*
X0234524Y0239834D01*
X0233716Y0240185D02*
X0233365Y0240535D01*
X0232665Y0240535D01*
X0232315Y0240185D01*
X0232315Y0238783D01*
X0232665Y0238433D01*
X0233365Y0238433D01*
X0233716Y0238783D01*
X0236734Y0240185D02*
X0237085Y0240535D01*
X0237785Y0240535D01*
X0238136Y0240185D01*
X0238136Y0239834D01*
X0237785Y0239484D01*
X0238136Y0239134D01*
X0238136Y0238783D01*
X0237785Y0239484D02*
X0237435Y0239484D01*
X0206779Y0225539D02*
X0206779Y0224838D01*
X0206429Y0224488D01*
X0205728Y0224488D02*
X0205378Y0225189D01*
X0205378Y0225539D01*
X0205728Y0225889D01*
X0206429Y0225889D01*
X0206779Y0225539D01*
X0205728Y0224488D02*
X0204678Y0224488D01*
X0204678Y0225889D01*
X0204678Y0223679D02*
X0205028Y0223679D01*
X0206429Y0222278D01*
X0206779Y0222278D01*
X0206429Y0221469D02*
X0206779Y0221119D01*
X0206779Y0220419D01*
X0206429Y0220068D01*
X0205028Y0220068D01*
X0204678Y0220419D01*
X0204678Y0221119D01*
X0205028Y0221469D01*
X0204678Y0222278D02*
X0204678Y0223679D01*
X0201535Y0233933D02*
X0201535Y0236035D01*
X0200484Y0234984D01*
X0201886Y0234984D01*
X0199676Y0235685D02*
X0198274Y0234283D01*
X0198274Y0233933D01*
X0197466Y0234283D02*
X0197115Y0233933D01*
X0196415Y0233933D01*
X0196065Y0234283D01*
X0196065Y0235685D01*
X0196415Y0236035D01*
X0197115Y0236035D01*
X0197466Y0235685D01*
X0198274Y0236035D02*
X0199676Y0236035D01*
X0199676Y0235685D01*
X0194386Y0236035D02*
X0193685Y0235685D01*
X0192984Y0234984D01*
X0194035Y0234984D01*
X0194386Y0234634D01*
X0194386Y0234283D01*
X0194035Y0233933D01*
X0193335Y0233933D01*
X0192984Y0234283D01*
X0192984Y0234984D01*
X0192176Y0234984D02*
X0190774Y0234984D01*
X0191825Y0236035D01*
X0191825Y0233933D01*
X0189966Y0233933D02*
X0189265Y0234634D01*
X0189615Y0234634D02*
X0188565Y0234634D01*
X0188565Y0233933D02*
X0188565Y0236035D01*
X0189615Y0236035D01*
X0189966Y0235685D01*
X0189966Y0234984D01*
X0189615Y0234634D01*
X0178136Y0237533D02*
X0177785Y0237183D01*
X0177085Y0237183D01*
X0176734Y0237533D01*
X0176734Y0238234D02*
X0177435Y0238584D01*
X0177785Y0238584D01*
X0178136Y0238234D01*
X0178136Y0237533D01*
X0176734Y0238234D02*
X0176734Y0239285D01*
X0178136Y0239285D01*
X0175926Y0238234D02*
X0174524Y0238234D01*
X0175575Y0239285D01*
X0175575Y0237183D01*
X0173716Y0237183D02*
X0173015Y0237884D01*
X0173365Y0237884D02*
X0172315Y0237884D01*
X0172315Y0237183D02*
X0172315Y0239285D01*
X0173365Y0239285D01*
X0173716Y0238935D01*
X0173716Y0238234D01*
X0173365Y0237884D01*
X0169028Y0234639D02*
X0170429Y0233238D01*
X0170779Y0233238D01*
X0170779Y0232429D02*
X0170779Y0231028D01*
X0170779Y0231729D02*
X0168678Y0231729D01*
X0169378Y0231028D01*
X0167779Y0231088D02*
X0167429Y0230738D01*
X0167779Y0231088D02*
X0167779Y0231789D01*
X0167429Y0232139D01*
X0167079Y0232139D01*
X0166728Y0231789D01*
X0166728Y0231439D01*
X0166728Y0231789D02*
X0166378Y0232139D01*
X0166028Y0232139D01*
X0165678Y0231789D01*
X0165678Y0231088D01*
X0166028Y0230738D01*
X0166028Y0229929D02*
X0165678Y0229929D01*
X0165678Y0228528D01*
X0166028Y0227719D02*
X0165678Y0227369D01*
X0165678Y0226669D01*
X0166028Y0226318D01*
X0167429Y0226318D01*
X0167779Y0226669D01*
X0167779Y0227369D01*
X0167429Y0227719D01*
X0167429Y0228528D02*
X0167779Y0228528D01*
X0167429Y0228528D02*
X0166028Y0229929D01*
X0168678Y0228818D02*
X0170779Y0228818D01*
X0170779Y0230219D01*
X0168678Y0233238D02*
X0168678Y0234639D01*
X0169028Y0234639D01*
X0172315Y0209285D02*
X0173365Y0209285D01*
X0173716Y0208935D01*
X0173716Y0208234D01*
X0173365Y0207884D01*
X0172315Y0207884D01*
X0173015Y0207884D02*
X0173716Y0207183D01*
X0174524Y0208234D02*
X0175926Y0208234D01*
X0176734Y0208935D02*
X0177085Y0209285D01*
X0177785Y0209285D01*
X0178136Y0208935D01*
X0178136Y0208584D01*
X0177785Y0208234D01*
X0178136Y0207884D01*
X0178136Y0207533D01*
X0177785Y0207183D01*
X0177085Y0207183D01*
X0176734Y0207533D01*
X0177435Y0208234D02*
X0177785Y0208234D01*
X0175575Y0209285D02*
X0174524Y0208234D01*
X0175575Y0207183D02*
X0175575Y0209285D01*
X0172315Y0209285D02*
X0172315Y0207183D01*
X0170429Y0204639D02*
X0170079Y0204639D01*
X0169728Y0204289D01*
X0169728Y0203238D01*
X0170429Y0203238D01*
X0170779Y0203588D01*
X0170779Y0204289D01*
X0170429Y0204639D01*
X0169028Y0203939D02*
X0169728Y0203238D01*
X0169028Y0203939D02*
X0168678Y0204639D01*
X0167429Y0202139D02*
X0167779Y0201789D01*
X0167779Y0201088D01*
X0167429Y0200738D01*
X0166028Y0202139D01*
X0167429Y0202139D01*
X0168678Y0201729D02*
X0170779Y0201729D01*
X0170779Y0202429D02*
X0170779Y0201028D01*
X0170779Y0200219D02*
X0170779Y0198818D01*
X0168678Y0198818D01*
X0167779Y0198528D02*
X0167429Y0198528D01*
X0166028Y0199929D01*
X0165678Y0199929D01*
X0165678Y0198528D01*
X0166028Y0197719D02*
X0165678Y0197369D01*
X0165678Y0196669D01*
X0166028Y0196318D01*
X0167429Y0196318D01*
X0167779Y0196669D01*
X0167779Y0197369D01*
X0167429Y0197719D01*
X0167429Y0200738D02*
X0166028Y0200738D01*
X0165678Y0201088D01*
X0165678Y0201789D01*
X0166028Y0202139D01*
X0168678Y0201729D02*
X0169378Y0201028D01*
X0188565Y0203933D02*
X0188565Y0206035D01*
X0189615Y0206035D01*
X0189966Y0205685D01*
X0189966Y0204984D01*
X0189615Y0204634D01*
X0188565Y0204634D01*
X0189265Y0204634D02*
X0189966Y0203933D01*
X0190774Y0204984D02*
X0192176Y0204984D01*
X0192984Y0204984D02*
X0194386Y0204984D01*
X0194035Y0206035D02*
X0192984Y0204984D01*
X0194035Y0203933D02*
X0194035Y0206035D01*
X0196065Y0205685D02*
X0196065Y0204283D01*
X0196415Y0203933D01*
X0197115Y0203933D01*
X0197466Y0204283D01*
X0198274Y0204283D02*
X0198274Y0203933D01*
X0198274Y0204283D02*
X0199676Y0205685D01*
X0199676Y0206035D01*
X0198274Y0206035D01*
X0197466Y0205685D02*
X0197115Y0206035D01*
X0196415Y0206035D01*
X0196065Y0205685D01*
X0191825Y0206035D02*
X0190774Y0204984D01*
X0191825Y0203933D02*
X0191825Y0206035D01*
X0200484Y0205334D02*
X0201185Y0206035D01*
X0201185Y0203933D01*
X0200484Y0203933D02*
X0201886Y0203933D01*
X0205028Y0195889D02*
X0204678Y0195539D01*
X0204678Y0194838D01*
X0205028Y0194488D01*
X0205028Y0193679D02*
X0206429Y0192278D01*
X0206779Y0192278D01*
X0206429Y0191469D02*
X0206779Y0191119D01*
X0206779Y0190419D01*
X0206429Y0190068D01*
X0205028Y0190068D01*
X0204678Y0190419D01*
X0204678Y0191119D01*
X0205028Y0191469D01*
X0204678Y0192278D02*
X0204678Y0193679D01*
X0205028Y0193679D01*
X0206779Y0194488D02*
X0205378Y0195889D01*
X0205028Y0195889D01*
X0206779Y0195889D02*
X0206779Y0194488D01*
X0223565Y0201033D02*
X0223915Y0200683D01*
X0224615Y0200683D01*
X0224966Y0201033D01*
X0225774Y0200683D02*
X0227176Y0200683D01*
X0226475Y0200683D02*
X0226475Y0202785D01*
X0225774Y0202084D01*
X0224966Y0202435D02*
X0224615Y0202785D01*
X0223915Y0202785D01*
X0223565Y0202435D01*
X0223565Y0201033D01*
X0227984Y0201033D02*
X0228335Y0200683D01*
X0229035Y0200683D01*
X0229386Y0201033D01*
X0229386Y0201734D01*
X0229035Y0202084D01*
X0228685Y0202084D01*
X0227984Y0201734D01*
X0227984Y0202785D01*
X0229386Y0202785D01*
X0219386Y0155785D02*
X0217984Y0155785D01*
X0217984Y0154734D01*
X0218685Y0155084D01*
X0219035Y0155084D01*
X0219386Y0154734D01*
X0219386Y0154033D01*
X0219035Y0153683D01*
X0218335Y0153683D01*
X0217984Y0154033D01*
X0217176Y0154734D02*
X0215774Y0154734D01*
X0216825Y0155785D01*
X0216825Y0153683D01*
X0214966Y0154033D02*
X0214615Y0153683D01*
X0213915Y0153683D01*
X0213565Y0154033D01*
X0213565Y0155435D01*
X0213915Y0155785D01*
X0214615Y0155785D01*
X0214966Y0155435D01*
X0206279Y0153289D02*
X0204178Y0153289D01*
X0205228Y0152238D01*
X0205228Y0153639D01*
X0205228Y0151429D02*
X0205228Y0150028D01*
X0204178Y0151079D01*
X0206279Y0151079D01*
X0205929Y0149219D02*
X0206279Y0148869D01*
X0206279Y0148169D01*
X0205929Y0147818D01*
X0204528Y0147818D01*
X0204178Y0148169D01*
X0204178Y0148869D01*
X0204528Y0149219D01*
X0198779Y0149219D02*
X0198079Y0148519D01*
X0198079Y0148869D02*
X0198079Y0147818D01*
X0198779Y0147818D02*
X0196678Y0147818D01*
X0196678Y0148869D01*
X0197028Y0149219D01*
X0197728Y0149219D01*
X0198079Y0148869D01*
X0198779Y0150028D02*
X0197378Y0151429D01*
X0197028Y0151429D01*
X0196678Y0151079D01*
X0196678Y0150378D01*
X0197028Y0150028D01*
X0198779Y0150028D02*
X0198779Y0151429D01*
X0198429Y0152238D02*
X0198079Y0152238D01*
X0197728Y0152588D01*
X0197728Y0153289D01*
X0198079Y0153639D01*
X0198429Y0153639D01*
X0198779Y0153289D01*
X0198779Y0152588D01*
X0198429Y0152238D01*
X0197728Y0152588D02*
X0197378Y0152238D01*
X0197028Y0152238D01*
X0196678Y0152588D01*
X0196678Y0153289D01*
X0197028Y0153639D01*
X0197378Y0153639D01*
X0197728Y0153289D01*
X0203678Y0143389D02*
X0204028Y0143389D01*
X0205429Y0141988D01*
X0205779Y0141988D01*
X0205779Y0141179D02*
X0205079Y0140479D01*
X0205079Y0140829D02*
X0205079Y0139778D01*
X0205779Y0139778D02*
X0203678Y0139778D01*
X0203678Y0140829D01*
X0204028Y0141179D01*
X0204728Y0141179D01*
X0205079Y0140829D01*
X0203678Y0141988D02*
X0203678Y0143389D01*
X0203678Y0138969D02*
X0203678Y0137568D01*
X0203678Y0138269D02*
X0205779Y0138269D01*
X0205629Y0134285D02*
X0207031Y0134285D01*
X0207031Y0133935D01*
X0205629Y0132533D01*
X0205629Y0132183D01*
X0204821Y0132183D02*
X0203420Y0132183D01*
X0203420Y0134285D01*
X0202429Y0121704D02*
X0201728Y0121704D01*
X0201378Y0121354D01*
X0201378Y0121003D01*
X0201728Y0120303D01*
X0200678Y0120303D01*
X0200678Y0121704D01*
X0199029Y0121354D02*
X0198679Y0121704D01*
X0198329Y0121704D01*
X0197978Y0121354D01*
X0197978Y0120303D01*
X0198679Y0120303D01*
X0199029Y0120653D01*
X0199029Y0121354D01*
X0197978Y0120303D02*
X0197278Y0121003D01*
X0196928Y0121704D01*
X0195279Y0120303D02*
X0194929Y0120303D01*
X0193528Y0121704D01*
X0193178Y0121704D01*
X0193178Y0120303D01*
X0193528Y0119494D02*
X0193178Y0119144D01*
X0193178Y0118443D01*
X0193528Y0118093D01*
X0193528Y0117284D02*
X0194228Y0117284D01*
X0194579Y0116934D01*
X0194579Y0115883D01*
X0195279Y0115883D02*
X0193178Y0115883D01*
X0193178Y0116934D01*
X0193528Y0117284D01*
X0194579Y0116584D02*
X0195279Y0117284D01*
X0195279Y0118093D02*
X0193878Y0119494D01*
X0193528Y0119494D01*
X0195279Y0119494D02*
X0195279Y0118093D01*
X0196928Y0118443D02*
X0196928Y0119144D01*
X0197278Y0119494D01*
X0197628Y0119494D01*
X0199029Y0118093D01*
X0199029Y0119494D01*
X0200678Y0119144D02*
X0200678Y0118443D01*
X0201028Y0118093D01*
X0201028Y0117284D02*
X0201728Y0117284D01*
X0202079Y0116934D01*
X0202079Y0115883D01*
X0202779Y0115883D02*
X0200678Y0115883D01*
X0200678Y0116934D01*
X0201028Y0117284D01*
X0202079Y0116584D02*
X0202779Y0117284D01*
X0202779Y0118093D02*
X0201378Y0119494D01*
X0201028Y0119494D01*
X0200678Y0119144D01*
X0202429Y0120303D02*
X0202779Y0120653D01*
X0202779Y0121354D01*
X0202429Y0121704D01*
X0202779Y0119494D02*
X0202779Y0118093D01*
X0204815Y0117685D02*
X0204815Y0116283D01*
X0205165Y0115933D01*
X0205865Y0115933D01*
X0206216Y0116283D01*
X0207024Y0116984D02*
X0208426Y0116984D01*
X0209234Y0117685D02*
X0209585Y0118035D01*
X0210285Y0118035D01*
X0210636Y0117685D01*
X0210636Y0117334D01*
X0210285Y0116984D01*
X0210636Y0116634D01*
X0210636Y0116283D01*
X0210285Y0115933D01*
X0209585Y0115933D01*
X0209234Y0116283D01*
X0209935Y0116984D02*
X0210285Y0116984D01*
X0208075Y0118035D02*
X0207024Y0116984D01*
X0206216Y0117685D02*
X0205865Y0118035D01*
X0205165Y0118035D01*
X0204815Y0117685D01*
X0208075Y0118035D02*
X0208075Y0115933D01*
X0199029Y0115883D02*
X0196928Y0115883D01*
X0196928Y0116934D01*
X0197278Y0117284D01*
X0197978Y0117284D01*
X0198329Y0116934D01*
X0198329Y0115883D01*
X0198329Y0116584D02*
X0199029Y0117284D01*
X0197278Y0118093D02*
X0196928Y0118443D01*
X0173136Y0118035D02*
X0172435Y0117685D01*
X0171734Y0116984D01*
X0172785Y0116984D01*
X0173136Y0116634D01*
X0173136Y0116283D01*
X0172785Y0115933D01*
X0172085Y0115933D01*
X0171734Y0116283D01*
X0171734Y0116984D01*
X0170926Y0116984D02*
X0169524Y0116984D01*
X0170575Y0118035D01*
X0170575Y0115933D01*
X0168716Y0116283D02*
X0168365Y0115933D01*
X0167665Y0115933D01*
X0167315Y0116283D01*
X0167315Y0117685D01*
X0167665Y0118035D01*
X0168365Y0118035D01*
X0168716Y0117685D01*
X0165279Y0117284D02*
X0164579Y0116584D01*
X0164579Y0116934D02*
X0164579Y0115883D01*
X0165279Y0115883D02*
X0163178Y0115883D01*
X0163178Y0116934D01*
X0163528Y0117284D01*
X0164228Y0117284D01*
X0164579Y0116934D01*
X0165279Y0118093D02*
X0163878Y0119494D01*
X0163528Y0119494D01*
X0163178Y0119144D01*
X0163178Y0118443D01*
X0163528Y0118093D01*
X0165279Y0118093D02*
X0165279Y0119494D01*
X0164929Y0120303D02*
X0165279Y0120653D01*
X0165279Y0121354D01*
X0164929Y0121704D01*
X0163528Y0121704D01*
X0163178Y0121354D01*
X0163178Y0120653D01*
X0163528Y0120303D01*
X0163878Y0120303D01*
X0164228Y0120653D01*
X0164228Y0121704D01*
X0161529Y0121354D02*
X0161529Y0120653D01*
X0161179Y0120303D01*
X0159778Y0121704D01*
X0161179Y0121704D01*
X0161529Y0121354D01*
X0161179Y0120303D02*
X0159778Y0120303D01*
X0159428Y0120653D01*
X0159428Y0121354D01*
X0159778Y0121704D01*
X0157779Y0121704D02*
X0157779Y0120303D01*
X0157779Y0121003D02*
X0155678Y0121003D01*
X0156378Y0120303D01*
X0156378Y0119494D02*
X0156728Y0119144D01*
X0157079Y0119494D01*
X0157429Y0119494D01*
X0157779Y0119144D01*
X0157779Y0118443D01*
X0157429Y0118093D01*
X0157779Y0117284D02*
X0157079Y0116584D01*
X0157079Y0116934D02*
X0157079Y0115883D01*
X0157779Y0115883D02*
X0155678Y0115883D01*
X0155678Y0116934D01*
X0156028Y0117284D01*
X0156728Y0117284D01*
X0157079Y0116934D01*
X0156028Y0118093D02*
X0155678Y0118443D01*
X0155678Y0119144D01*
X0156028Y0119494D01*
X0156378Y0119494D01*
X0156728Y0119144D02*
X0156728Y0118794D01*
X0159428Y0118443D02*
X0159428Y0119144D01*
X0159778Y0119494D01*
X0160128Y0119494D01*
X0160478Y0119144D01*
X0160829Y0119494D01*
X0161179Y0119494D01*
X0161529Y0119144D01*
X0161529Y0118443D01*
X0161179Y0118093D01*
X0161529Y0117284D02*
X0160829Y0116584D01*
X0160829Y0116934D02*
X0160829Y0115883D01*
X0161529Y0115883D02*
X0159428Y0115883D01*
X0159428Y0116934D01*
X0159778Y0117284D01*
X0160478Y0117284D01*
X0160829Y0116934D01*
X0159778Y0118093D02*
X0159428Y0118443D01*
X0160478Y0118794D02*
X0160478Y0119144D01*
X0165920Y0132183D02*
X0167321Y0132183D01*
X0168129Y0132533D02*
X0168129Y0132884D01*
X0168480Y0133234D01*
X0169180Y0133234D01*
X0169531Y0132884D01*
X0169531Y0132533D01*
X0169180Y0132183D01*
X0168480Y0132183D01*
X0168129Y0132533D01*
X0168480Y0133234D02*
X0168129Y0133584D01*
X0168129Y0133935D01*
X0168480Y0134285D01*
X0169180Y0134285D01*
X0169531Y0133935D01*
X0169531Y0133584D01*
X0169180Y0133234D01*
X0165920Y0134285D02*
X0165920Y0132183D01*
X0166178Y0137568D02*
X0166178Y0138969D01*
X0166178Y0138269D02*
X0168279Y0138269D01*
X0168279Y0139778D02*
X0166178Y0139778D01*
X0166178Y0140829D01*
X0166528Y0141179D01*
X0167228Y0141179D01*
X0167579Y0140829D01*
X0167579Y0139778D01*
X0167579Y0140479D02*
X0168279Y0141179D01*
X0167929Y0141988D02*
X0167579Y0141988D01*
X0167228Y0142338D01*
X0167228Y0143039D01*
X0167579Y0143389D01*
X0167929Y0143389D01*
X0168279Y0143039D01*
X0168279Y0142338D01*
X0167929Y0141988D01*
X0167228Y0142338D02*
X0166878Y0141988D01*
X0166528Y0141988D01*
X0166178Y0142338D01*
X0166178Y0143039D01*
X0166528Y0143389D01*
X0166878Y0143389D01*
X0167228Y0143039D01*
X0167028Y0147818D02*
X0168429Y0147818D01*
X0168779Y0148169D01*
X0168779Y0148869D01*
X0168429Y0149219D01*
X0167728Y0150028D02*
X0167728Y0151429D01*
X0168429Y0152238D02*
X0168779Y0152238D01*
X0168429Y0152238D02*
X0167028Y0153639D01*
X0166678Y0153639D01*
X0166678Y0152238D01*
X0166678Y0151079D02*
X0167728Y0150028D01*
X0167028Y0149219D02*
X0166678Y0148869D01*
X0166678Y0148169D01*
X0167028Y0147818D01*
X0166678Y0151079D02*
X0168779Y0151079D01*
X0161279Y0151079D02*
X0161279Y0150378D01*
X0160929Y0150028D01*
X0161279Y0149219D02*
X0160579Y0148519D01*
X0160579Y0148869D02*
X0160579Y0147818D01*
X0161279Y0147818D02*
X0159178Y0147818D01*
X0159178Y0148869D01*
X0159528Y0149219D01*
X0160228Y0149219D01*
X0160579Y0148869D01*
X0159528Y0150028D02*
X0159178Y0150378D01*
X0159178Y0151079D01*
X0159528Y0151429D01*
X0159878Y0151429D01*
X0160228Y0151079D01*
X0160579Y0151429D01*
X0160929Y0151429D01*
X0161279Y0151079D01*
X0160228Y0151079D02*
X0160228Y0150729D01*
X0159528Y0152238D02*
X0159178Y0152588D01*
X0159178Y0153289D01*
X0159528Y0153639D01*
X0159878Y0153639D01*
X0161279Y0152238D01*
X0161279Y0153639D01*
X0178565Y0154033D02*
X0178915Y0153683D01*
X0179615Y0153683D01*
X0179966Y0154033D01*
X0180774Y0154734D02*
X0182176Y0154734D01*
X0182984Y0155084D02*
X0182984Y0155435D01*
X0183335Y0155785D01*
X0184035Y0155785D01*
X0184386Y0155435D01*
X0184386Y0155084D01*
X0184035Y0154734D01*
X0183335Y0154734D01*
X0182984Y0155084D01*
X0183335Y0154734D02*
X0182984Y0154384D01*
X0182984Y0154033D01*
X0183335Y0153683D01*
X0184035Y0153683D01*
X0184386Y0154033D01*
X0184386Y0154384D01*
X0184035Y0154734D01*
X0181825Y0155785D02*
X0180774Y0154734D01*
X0179966Y0155435D02*
X0179615Y0155785D01*
X0178915Y0155785D01*
X0178565Y0155435D01*
X0178565Y0154033D01*
X0181825Y0153683D02*
X0181825Y0155785D01*
X0144386Y0184283D02*
X0144386Y0184634D01*
X0144035Y0184984D01*
X0142984Y0184984D01*
X0142984Y0184283D01*
X0143335Y0183933D01*
X0144035Y0183933D01*
X0144386Y0184283D01*
X0143685Y0185685D02*
X0142984Y0184984D01*
X0142176Y0185334D02*
X0141825Y0184984D01*
X0141125Y0184984D01*
X0140774Y0185334D01*
X0140774Y0185685D01*
X0141125Y0186035D01*
X0141825Y0186035D01*
X0142176Y0185685D01*
X0142176Y0185334D01*
X0141825Y0184984D02*
X0142176Y0184634D01*
X0142176Y0184283D01*
X0141825Y0183933D01*
X0141125Y0183933D01*
X0140774Y0184283D01*
X0140774Y0184634D01*
X0141125Y0184984D01*
X0139966Y0185685D02*
X0139615Y0186035D01*
X0138915Y0186035D01*
X0138565Y0185685D01*
X0138565Y0184283D01*
X0138915Y0183933D01*
X0139615Y0183933D01*
X0139966Y0184283D01*
X0143685Y0185685D02*
X0144386Y0186035D01*
X0141179Y0200068D02*
X0139778Y0200068D01*
X0139428Y0200419D01*
X0139428Y0201119D01*
X0139778Y0201469D01*
X0140128Y0202278D02*
X0139428Y0202979D01*
X0141529Y0202979D01*
X0141529Y0203679D02*
X0141529Y0202278D01*
X0141179Y0201469D02*
X0141529Y0201119D01*
X0141529Y0200419D01*
X0141179Y0200068D01*
X0141529Y0204488D02*
X0141529Y0205889D01*
X0141529Y0205189D02*
X0139428Y0205189D01*
X0140128Y0204488D01*
X0126886Y0214783D02*
X0126886Y0216185D01*
X0126535Y0216535D01*
X0125835Y0216535D01*
X0125484Y0216185D01*
X0125484Y0215834D01*
X0125835Y0215484D01*
X0126886Y0215484D01*
X0126886Y0214783D02*
X0126535Y0214433D01*
X0125835Y0214433D01*
X0125484Y0214783D01*
X0124676Y0214783D02*
X0124325Y0214433D01*
X0123625Y0214433D01*
X0123274Y0214783D01*
X0123274Y0215134D01*
X0123625Y0215484D01*
X0124325Y0215484D01*
X0124676Y0215134D01*
X0124676Y0214783D01*
X0124325Y0215484D02*
X0124676Y0215834D01*
X0124676Y0216185D01*
X0124325Y0216535D01*
X0123625Y0216535D01*
X0123274Y0216185D01*
X0123274Y0215834D01*
X0123625Y0215484D01*
X0122466Y0216185D02*
X0122115Y0216535D01*
X0121415Y0216535D01*
X0121065Y0216185D01*
X0121065Y0214783D01*
X0121415Y0214433D01*
X0122115Y0214433D01*
X0122466Y0214783D01*
X0101779Y0208039D02*
X0101779Y0207338D01*
X0101429Y0206988D01*
X0100028Y0208389D01*
X0101429Y0208389D01*
X0101779Y0208039D01*
X0101429Y0206988D02*
X0100028Y0206988D01*
X0099678Y0207338D01*
X0099678Y0208039D01*
X0100028Y0208389D01*
X0099678Y0206179D02*
X0100028Y0205479D01*
X0100728Y0204778D01*
X0100728Y0205829D01*
X0101079Y0206179D01*
X0101429Y0206179D01*
X0101779Y0205829D01*
X0101779Y0205128D01*
X0101429Y0204778D01*
X0100728Y0204778D01*
X0100028Y0203969D02*
X0099678Y0203619D01*
X0099678Y0202919D01*
X0100028Y0202568D01*
X0101429Y0202568D01*
X0101779Y0202919D01*
X0101779Y0203619D01*
X0101429Y0203969D01*
X0096785Y0216433D02*
X0097136Y0216783D01*
X0097136Y0218185D01*
X0096785Y0218535D01*
X0096085Y0218535D01*
X0095734Y0218185D01*
X0095734Y0217834D01*
X0096085Y0217484D01*
X0097136Y0217484D01*
X0096785Y0216433D02*
X0096085Y0216433D01*
X0095734Y0216783D01*
X0094926Y0216783D02*
X0094575Y0216433D01*
X0093875Y0216433D01*
X0093524Y0216783D01*
X0093524Y0217484D02*
X0094225Y0217834D01*
X0094575Y0217834D01*
X0094926Y0217484D01*
X0094926Y0216783D01*
X0093524Y0217484D02*
X0093524Y0218535D01*
X0094926Y0218535D01*
X0092716Y0218185D02*
X0092365Y0218535D01*
X0091665Y0218535D01*
X0091315Y0218185D01*
X0091315Y0216783D01*
X0091665Y0216433D01*
X0092365Y0216433D01*
X0092716Y0216783D01*
X0089636Y0216783D02*
X0089636Y0217134D01*
X0089285Y0217484D01*
X0088234Y0217484D01*
X0088234Y0216783D01*
X0088585Y0216433D01*
X0089285Y0216433D01*
X0089636Y0216783D01*
X0088935Y0218185D02*
X0088234Y0217484D01*
X0087426Y0217834D02*
X0087075Y0217484D01*
X0087426Y0217134D01*
X0087426Y0216783D01*
X0087075Y0216433D01*
X0086375Y0216433D01*
X0086024Y0216783D01*
X0085216Y0216433D02*
X0084515Y0217134D01*
X0084865Y0217134D02*
X0083815Y0217134D01*
X0083815Y0216433D02*
X0083815Y0218535D01*
X0084865Y0218535D01*
X0085216Y0218185D01*
X0085216Y0217484D01*
X0084865Y0217134D01*
X0086024Y0218185D02*
X0086375Y0218535D01*
X0087075Y0218535D01*
X0087426Y0218185D01*
X0087426Y0217834D01*
X0087075Y0217484D02*
X0086725Y0217484D01*
X0088935Y0218185D02*
X0089636Y0218535D01*
X0082136Y0218535D02*
X0080734Y0218535D01*
X0080734Y0217484D01*
X0081435Y0217834D01*
X0081785Y0217834D01*
X0082136Y0217484D01*
X0082136Y0216783D01*
X0081785Y0216433D01*
X0081085Y0216433D01*
X0080734Y0216783D01*
X0079926Y0216783D02*
X0079575Y0216433D01*
X0078875Y0216433D01*
X0078524Y0216783D01*
X0077716Y0216433D02*
X0077015Y0217134D01*
X0077365Y0217134D02*
X0076315Y0217134D01*
X0076315Y0216433D02*
X0076315Y0218535D01*
X0077365Y0218535D01*
X0077716Y0218185D01*
X0077716Y0217484D01*
X0077365Y0217134D01*
X0078524Y0218185D02*
X0078875Y0218535D01*
X0079575Y0218535D01*
X0079926Y0218185D01*
X0079926Y0217834D01*
X0079575Y0217484D01*
X0079926Y0217134D01*
X0079926Y0216783D01*
X0079575Y0217484D02*
X0079225Y0217484D01*
X0078935Y0226933D02*
X0078935Y0229035D01*
X0078234Y0228334D01*
X0077426Y0227634D02*
X0077075Y0227984D01*
X0076024Y0227984D01*
X0076024Y0227283D01*
X0076375Y0226933D01*
X0077075Y0226933D01*
X0077426Y0227283D01*
X0077426Y0227634D01*
X0078234Y0226933D02*
X0079636Y0226933D01*
X0077426Y0229035D02*
X0076725Y0228685D01*
X0076024Y0227984D01*
X0075216Y0228685D02*
X0074865Y0229035D01*
X0074165Y0229035D01*
X0073815Y0228685D01*
X0073815Y0227283D01*
X0074165Y0226933D01*
X0074865Y0226933D01*
X0075216Y0227283D01*
X0072136Y0228783D02*
X0071785Y0228433D01*
X0071085Y0228433D01*
X0070734Y0228783D01*
X0069926Y0228433D02*
X0068524Y0228433D01*
X0069225Y0228433D02*
X0069225Y0230535D01*
X0068524Y0229834D01*
X0067716Y0228433D02*
X0066315Y0228433D01*
X0066315Y0230535D01*
X0070734Y0230185D02*
X0071085Y0230535D01*
X0071785Y0230535D01*
X0072136Y0230185D01*
X0072136Y0229834D01*
X0071785Y0229484D01*
X0072136Y0229134D01*
X0072136Y0228783D01*
X0071785Y0229484D02*
X0071435Y0229484D01*
X0076315Y0246433D02*
X0076315Y0248535D01*
X0077365Y0248535D01*
X0077716Y0248185D01*
X0077716Y0247484D01*
X0077365Y0247134D01*
X0076315Y0247134D01*
X0077015Y0247134D02*
X0077716Y0246433D01*
X0078524Y0246783D02*
X0078875Y0246433D01*
X0079575Y0246433D01*
X0079926Y0246783D01*
X0079926Y0247134D01*
X0079575Y0247484D01*
X0079225Y0247484D01*
X0079575Y0247484D02*
X0079926Y0247834D01*
X0079926Y0248185D01*
X0079575Y0248535D01*
X0078875Y0248535D01*
X0078524Y0248185D01*
X0080734Y0248185D02*
X0081085Y0248535D01*
X0081785Y0248535D01*
X0082136Y0248185D01*
X0082136Y0247834D01*
X0081785Y0247484D01*
X0082136Y0247134D01*
X0082136Y0246783D01*
X0081785Y0246433D01*
X0081085Y0246433D01*
X0080734Y0246783D01*
X0081435Y0247484D02*
X0081785Y0247484D01*
X0083815Y0247134D02*
X0084865Y0247134D01*
X0085216Y0247484D01*
X0085216Y0248185D01*
X0084865Y0248535D01*
X0083815Y0248535D01*
X0083815Y0246433D01*
X0084515Y0247134D02*
X0085216Y0246433D01*
X0086024Y0246783D02*
X0086375Y0246433D01*
X0087075Y0246433D01*
X0087426Y0246783D01*
X0087426Y0247134D01*
X0087075Y0247484D01*
X0086725Y0247484D01*
X0087075Y0247484D02*
X0087426Y0247834D01*
X0087426Y0248185D01*
X0087075Y0248535D01*
X0086375Y0248535D01*
X0086024Y0248185D01*
X0088234Y0247484D02*
X0089636Y0247484D01*
X0089285Y0248535D02*
X0088234Y0247484D01*
X0089285Y0246433D02*
X0089285Y0248535D01*
X0091315Y0248185D02*
X0091315Y0246783D01*
X0091665Y0246433D01*
X0092365Y0246433D01*
X0092716Y0246783D01*
X0093524Y0246783D02*
X0093875Y0246433D01*
X0094575Y0246433D01*
X0094926Y0246783D01*
X0094926Y0247134D01*
X0094575Y0247484D01*
X0093524Y0247484D01*
X0093524Y0246783D01*
X0093524Y0247484D02*
X0094225Y0248185D01*
X0094926Y0248535D01*
X0095734Y0248185D02*
X0096085Y0248535D01*
X0096785Y0248535D01*
X0097136Y0248185D01*
X0097136Y0247834D01*
X0095734Y0246433D01*
X0097136Y0246433D01*
X0092716Y0248185D02*
X0092365Y0248535D01*
X0091665Y0248535D01*
X0091315Y0248185D01*
X0100028Y0238389D02*
X0100378Y0238389D01*
X0100728Y0238039D01*
X0101079Y0238389D01*
X0101429Y0238389D01*
X0101779Y0238039D01*
X0101779Y0237338D01*
X0101429Y0236988D01*
X0101429Y0236179D02*
X0101079Y0236179D01*
X0100728Y0235829D01*
X0100728Y0234778D01*
X0101429Y0234778D01*
X0101779Y0235128D01*
X0101779Y0235829D01*
X0101429Y0236179D01*
X0100028Y0235479D02*
X0100728Y0234778D01*
X0100028Y0235479D02*
X0099678Y0236179D01*
X0100028Y0236988D02*
X0099678Y0237338D01*
X0099678Y0238039D01*
X0100028Y0238389D01*
X0100728Y0238039D02*
X0100728Y0237689D01*
X0100028Y0233969D02*
X0099678Y0233619D01*
X0099678Y0232919D01*
X0100028Y0232568D01*
X0101429Y0232568D01*
X0101779Y0232919D01*
X0101779Y0233619D01*
X0101429Y0233969D01*
X0105678Y0238818D02*
X0105678Y0239869D01*
X0106028Y0240219D01*
X0106728Y0240219D01*
X0107079Y0239869D01*
X0107079Y0238818D01*
X0107779Y0238818D02*
X0105678Y0238818D01*
X0107079Y0239519D02*
X0107779Y0240219D01*
X0107779Y0241028D02*
X0107429Y0241028D01*
X0106028Y0242429D01*
X0105678Y0242429D01*
X0105678Y0241028D01*
X0106028Y0243238D02*
X0106378Y0243238D01*
X0106728Y0243588D01*
X0106728Y0244289D01*
X0107079Y0244639D01*
X0107429Y0244639D01*
X0107779Y0244289D01*
X0107779Y0243588D01*
X0107429Y0243238D01*
X0107079Y0243238D01*
X0106728Y0243588D01*
X0106728Y0244289D02*
X0106378Y0244639D01*
X0106028Y0244639D01*
X0105678Y0244289D01*
X0105678Y0243588D01*
X0106028Y0243238D01*
X0071785Y0200535D02*
X0071085Y0200535D01*
X0070734Y0200185D01*
X0071785Y0200535D02*
X0072136Y0200185D01*
X0072136Y0199834D01*
X0070734Y0198433D01*
X0072136Y0198433D01*
X0073815Y0198685D02*
X0073815Y0197283D01*
X0074165Y0196933D01*
X0074865Y0196933D01*
X0075216Y0197283D01*
X0076024Y0197283D02*
X0076375Y0196933D01*
X0077075Y0196933D01*
X0077426Y0197283D01*
X0077426Y0197984D01*
X0077075Y0198334D01*
X0076725Y0198334D01*
X0076024Y0197984D01*
X0076024Y0199035D01*
X0077426Y0199035D01*
X0078234Y0198685D02*
X0078234Y0198334D01*
X0078585Y0197984D01*
X0079285Y0197984D01*
X0079636Y0197634D01*
X0079636Y0197283D01*
X0079285Y0196933D01*
X0078585Y0196933D01*
X0078234Y0197283D01*
X0078234Y0197634D01*
X0078585Y0197984D01*
X0079285Y0197984D02*
X0079636Y0198334D01*
X0079636Y0198685D01*
X0079285Y0199035D01*
X0078585Y0199035D01*
X0078234Y0198685D01*
X0075216Y0198685D02*
X0074865Y0199035D01*
X0074165Y0199035D01*
X0073815Y0198685D01*
X0069926Y0198433D02*
X0068524Y0198433D01*
X0069225Y0198433D02*
X0069225Y0200535D01*
X0068524Y0199834D01*
X0067716Y0198433D02*
X0066315Y0198433D01*
X0066315Y0200535D01*
X0076315Y0188535D02*
X0077365Y0188535D01*
X0077716Y0188185D01*
X0077716Y0187484D01*
X0077365Y0187134D01*
X0076315Y0187134D01*
X0077015Y0187134D02*
X0077716Y0186433D01*
X0078524Y0186783D02*
X0078875Y0186433D01*
X0079575Y0186433D01*
X0079926Y0186783D01*
X0079926Y0187134D01*
X0079575Y0187484D01*
X0079225Y0187484D01*
X0079575Y0187484D02*
X0079926Y0187834D01*
X0079926Y0188185D01*
X0079575Y0188535D01*
X0078875Y0188535D01*
X0078524Y0188185D01*
X0076315Y0188535D02*
X0076315Y0186433D01*
X0080734Y0186433D02*
X0080734Y0186783D01*
X0082136Y0188185D01*
X0082136Y0188535D01*
X0080734Y0188535D01*
X0083815Y0188535D02*
X0083815Y0186433D01*
X0083815Y0187134D02*
X0084865Y0187134D01*
X0085216Y0187484D01*
X0085216Y0188185D01*
X0084865Y0188535D01*
X0083815Y0188535D01*
X0084515Y0187134D02*
X0085216Y0186433D01*
X0086024Y0186783D02*
X0086375Y0186433D01*
X0087075Y0186433D01*
X0087426Y0186783D01*
X0087426Y0187134D01*
X0087075Y0187484D01*
X0086725Y0187484D01*
X0087075Y0187484D02*
X0087426Y0187834D01*
X0087426Y0188185D01*
X0087075Y0188535D01*
X0086375Y0188535D01*
X0086024Y0188185D01*
X0088234Y0188185D02*
X0088234Y0187834D01*
X0088585Y0187484D01*
X0089285Y0187484D01*
X0089636Y0187134D01*
X0089636Y0186783D01*
X0089285Y0186433D01*
X0088585Y0186433D01*
X0088234Y0186783D01*
X0088234Y0187134D01*
X0088585Y0187484D01*
X0089285Y0187484D02*
X0089636Y0187834D01*
X0089636Y0188185D01*
X0089285Y0188535D01*
X0088585Y0188535D01*
X0088234Y0188185D01*
X0091315Y0188185D02*
X0091315Y0186783D01*
X0091665Y0186433D01*
X0092365Y0186433D01*
X0092716Y0186783D01*
X0093524Y0186783D02*
X0093875Y0186433D01*
X0094575Y0186433D01*
X0094926Y0186783D01*
X0094926Y0187484D01*
X0094575Y0187834D01*
X0094225Y0187834D01*
X0093524Y0187484D01*
X0093524Y0188535D01*
X0094926Y0188535D01*
X0095734Y0187484D02*
X0096435Y0188185D01*
X0097136Y0188535D01*
X0096785Y0187484D02*
X0095734Y0187484D01*
X0095734Y0186783D01*
X0096085Y0186433D01*
X0096785Y0186433D01*
X0097136Y0186783D01*
X0097136Y0187134D01*
X0096785Y0187484D01*
X0092716Y0188185D02*
X0092365Y0188535D01*
X0091665Y0188535D01*
X0091315Y0188185D01*
X0099678Y0178389D02*
X0100028Y0178389D01*
X0101429Y0176988D01*
X0101779Y0176988D01*
X0101429Y0176179D02*
X0101779Y0175829D01*
X0101779Y0175128D01*
X0101429Y0174778D01*
X0100728Y0174778D02*
X0100378Y0175479D01*
X0100378Y0175829D01*
X0100728Y0176179D01*
X0101429Y0176179D01*
X0100728Y0174778D02*
X0099678Y0174778D01*
X0099678Y0176179D01*
X0099678Y0176988D02*
X0099678Y0178389D01*
X0100028Y0173969D02*
X0099678Y0173619D01*
X0099678Y0172919D01*
X0100028Y0172568D01*
X0101429Y0172568D01*
X0101779Y0172919D01*
X0101779Y0173619D01*
X0101429Y0173969D01*
X0096785Y0158535D02*
X0097136Y0158185D01*
X0097136Y0157834D01*
X0096785Y0157484D01*
X0097136Y0157134D01*
X0097136Y0156783D01*
X0096785Y0156433D01*
X0096085Y0156433D01*
X0095734Y0156783D01*
X0094926Y0156783D02*
X0094575Y0156433D01*
X0093875Y0156433D01*
X0093524Y0156783D01*
X0093524Y0157484D02*
X0094225Y0157834D01*
X0094575Y0157834D01*
X0094926Y0157484D01*
X0094926Y0156783D01*
X0093524Y0157484D02*
X0093524Y0158535D01*
X0094926Y0158535D01*
X0095734Y0158185D02*
X0096085Y0158535D01*
X0096785Y0158535D01*
X0096785Y0157484D02*
X0096435Y0157484D01*
X0092716Y0158185D02*
X0092365Y0158535D01*
X0091665Y0158535D01*
X0091315Y0158185D01*
X0091315Y0156783D01*
X0091665Y0156433D01*
X0092365Y0156433D01*
X0092716Y0156783D01*
X0089636Y0156783D02*
X0089285Y0156433D01*
X0088585Y0156433D01*
X0088234Y0156783D01*
X0089636Y0158185D01*
X0089636Y0156783D01*
X0089636Y0158185D02*
X0089285Y0158535D01*
X0088585Y0158535D01*
X0088234Y0158185D01*
X0088234Y0156783D01*
X0087426Y0157484D02*
X0086024Y0157484D01*
X0087075Y0158535D01*
X0087075Y0156433D01*
X0085216Y0156433D02*
X0084515Y0157134D01*
X0084865Y0157134D02*
X0083815Y0157134D01*
X0083815Y0156433D02*
X0083815Y0158535D01*
X0084865Y0158535D01*
X0085216Y0158185D01*
X0085216Y0157484D01*
X0084865Y0157134D01*
X0082136Y0157484D02*
X0081085Y0157484D01*
X0080734Y0157834D01*
X0080734Y0158185D01*
X0081085Y0158535D01*
X0081785Y0158535D01*
X0082136Y0158185D01*
X0082136Y0156783D01*
X0081785Y0156433D01*
X0081085Y0156433D01*
X0080734Y0156783D01*
X0079926Y0156783D02*
X0079575Y0156433D01*
X0078875Y0156433D01*
X0078524Y0156783D01*
X0077716Y0156433D02*
X0077015Y0157134D01*
X0077365Y0157134D02*
X0076315Y0157134D01*
X0076315Y0156433D02*
X0076315Y0158535D01*
X0077365Y0158535D01*
X0077716Y0158185D01*
X0077716Y0157484D01*
X0077365Y0157134D01*
X0078524Y0158185D02*
X0078875Y0158535D01*
X0079575Y0158535D01*
X0079926Y0158185D01*
X0079926Y0157834D01*
X0079575Y0157484D01*
X0079926Y0157134D01*
X0079926Y0156783D01*
X0079575Y0157484D02*
X0079225Y0157484D01*
X0079285Y0166933D02*
X0078585Y0166933D01*
X0078234Y0167283D01*
X0078234Y0167984D02*
X0078935Y0168334D01*
X0079285Y0168334D01*
X0079636Y0167984D01*
X0079636Y0167283D01*
X0079285Y0166933D01*
X0078234Y0167984D02*
X0078234Y0169035D01*
X0079636Y0169035D01*
X0077426Y0169035D02*
X0076024Y0169035D01*
X0076024Y0167984D01*
X0076725Y0168334D01*
X0077075Y0168334D01*
X0077426Y0167984D01*
X0077426Y0167283D01*
X0077075Y0166933D01*
X0076375Y0166933D01*
X0076024Y0167283D01*
X0075216Y0167283D02*
X0074865Y0166933D01*
X0074165Y0166933D01*
X0073815Y0167283D01*
X0073815Y0168685D01*
X0074165Y0169035D01*
X0074865Y0169035D01*
X0075216Y0168685D01*
X0072136Y0168433D02*
X0070734Y0168433D01*
X0071435Y0168433D02*
X0071435Y0170535D01*
X0070734Y0169834D01*
X0069926Y0168433D02*
X0068524Y0168433D01*
X0069225Y0168433D02*
X0069225Y0170535D01*
X0068524Y0169834D01*
X0067716Y0168433D02*
X0066315Y0168433D01*
X0066315Y0170535D01*
X0099678Y0148039D02*
X0100728Y0146988D01*
X0100728Y0148389D01*
X0099678Y0148039D02*
X0101779Y0148039D01*
X0101429Y0146179D02*
X0101779Y0145829D01*
X0101779Y0145128D01*
X0101429Y0144778D01*
X0100728Y0144778D02*
X0100378Y0145479D01*
X0100378Y0145829D01*
X0100728Y0146179D01*
X0101429Y0146179D01*
X0100728Y0144778D02*
X0099678Y0144778D01*
X0099678Y0146179D01*
X0100028Y0143969D02*
X0099678Y0143619D01*
X0099678Y0142919D01*
X0100028Y0142568D01*
X0101429Y0142568D01*
X0101779Y0142919D01*
X0101779Y0143619D01*
X0101429Y0143969D01*
X0118928Y0138639D02*
X0118928Y0137238D01*
X0119278Y0136429D02*
X0118928Y0136079D01*
X0118928Y0135378D01*
X0119278Y0135028D01*
X0119278Y0134219D02*
X0118928Y0133869D01*
X0118928Y0133169D01*
X0119278Y0132818D01*
X0120679Y0132818D01*
X0121029Y0133169D01*
X0121029Y0133869D01*
X0120679Y0134219D01*
X0121029Y0135028D02*
X0119628Y0136429D01*
X0119278Y0136429D01*
X0120679Y0137238D02*
X0121029Y0137238D01*
X0120679Y0137238D02*
X0119278Y0138639D01*
X0118928Y0138639D01*
X0121029Y0136429D02*
X0121029Y0135028D01*
X0121665Y0126785D02*
X0121315Y0126435D01*
X0121315Y0125033D01*
X0121665Y0124683D01*
X0122365Y0124683D01*
X0122716Y0125033D01*
X0123524Y0125033D02*
X0123875Y0124683D01*
X0124575Y0124683D01*
X0124926Y0125033D01*
X0124926Y0125384D01*
X0124575Y0125734D01*
X0124225Y0125734D01*
X0124575Y0125734D02*
X0124926Y0126084D01*
X0124926Y0126435D01*
X0124575Y0126785D01*
X0123875Y0126785D01*
X0123524Y0126435D01*
X0122716Y0126435D02*
X0122365Y0126785D01*
X0121665Y0126785D01*
X0119029Y0124289D02*
X0119029Y0123588D01*
X0118679Y0123238D01*
X0117978Y0123238D02*
X0117628Y0123939D01*
X0117628Y0124289D01*
X0117978Y0124639D01*
X0118679Y0124639D01*
X0119029Y0124289D01*
X0117978Y0123238D02*
X0116928Y0123238D01*
X0116928Y0124639D01*
X0116928Y0122429D02*
X0117278Y0122429D01*
X0118679Y0121028D01*
X0119029Y0121028D01*
X0119029Y0120219D02*
X0118329Y0119519D01*
X0118329Y0119869D02*
X0118329Y0118818D01*
X0119029Y0118818D02*
X0116928Y0118818D01*
X0116928Y0119869D01*
X0117278Y0120219D01*
X0117978Y0120219D01*
X0118329Y0119869D01*
X0116928Y0121028D02*
X0116928Y0122429D01*
X0125734Y0125033D02*
X0127136Y0126435D01*
X0127136Y0125033D01*
X0126785Y0124683D01*
X0126085Y0124683D01*
X0125734Y0125033D01*
X0125734Y0126435D01*
X0126085Y0126785D01*
X0126785Y0126785D01*
X0127136Y0126435D01*
X0101779Y0118389D02*
X0101779Y0116988D01*
X0101779Y0117689D02*
X0099678Y0117689D01*
X0100378Y0116988D01*
X0100728Y0116179D02*
X0101429Y0116179D01*
X0101779Y0115829D01*
X0101779Y0115128D01*
X0101429Y0114778D01*
X0100728Y0114778D02*
X0100378Y0115479D01*
X0100378Y0115829D01*
X0100728Y0116179D01*
X0099678Y0116179D02*
X0099678Y0114778D01*
X0100728Y0114778D01*
X0100028Y0113969D02*
X0099678Y0113619D01*
X0099678Y0112919D01*
X0100028Y0112568D01*
X0101429Y0112568D01*
X0101779Y0112919D01*
X0101779Y0113619D01*
X0101429Y0113969D01*
X0096785Y0126433D02*
X0096085Y0126433D01*
X0095734Y0126783D01*
X0097136Y0128185D01*
X0097136Y0126783D01*
X0096785Y0126433D01*
X0095734Y0126783D02*
X0095734Y0128185D01*
X0096085Y0128535D01*
X0096785Y0128535D01*
X0097136Y0128185D01*
X0094926Y0128535D02*
X0093524Y0128535D01*
X0093524Y0127484D01*
X0094225Y0127834D01*
X0094575Y0127834D01*
X0094926Y0127484D01*
X0094926Y0126783D01*
X0094575Y0126433D01*
X0093875Y0126433D01*
X0093524Y0126783D01*
X0092716Y0126783D02*
X0092365Y0126433D01*
X0091665Y0126433D01*
X0091315Y0126783D01*
X0091315Y0128185D01*
X0091665Y0128535D01*
X0092365Y0128535D01*
X0092716Y0128185D01*
X0089636Y0128185D02*
X0089285Y0128535D01*
X0088585Y0128535D01*
X0088234Y0128185D01*
X0087426Y0127484D02*
X0086024Y0127484D01*
X0087075Y0128535D01*
X0087075Y0126433D01*
X0088234Y0126433D02*
X0089636Y0127834D01*
X0089636Y0128185D01*
X0089636Y0126433D02*
X0088234Y0126433D01*
X0085216Y0126433D02*
X0084515Y0127134D01*
X0084865Y0127134D02*
X0083815Y0127134D01*
X0083815Y0126433D02*
X0083815Y0128535D01*
X0084865Y0128535D01*
X0085216Y0128185D01*
X0085216Y0127484D01*
X0084865Y0127134D01*
X0082136Y0126433D02*
X0080734Y0126433D01*
X0081435Y0126433D02*
X0081435Y0128535D01*
X0080734Y0127834D01*
X0079926Y0127484D02*
X0078524Y0127484D01*
X0079575Y0128535D01*
X0079575Y0126433D01*
X0077716Y0126433D02*
X0077015Y0127134D01*
X0077365Y0127134D02*
X0076315Y0127134D01*
X0076315Y0126433D02*
X0076315Y0128535D01*
X0077365Y0128535D01*
X0077716Y0128185D01*
X0077716Y0127484D01*
X0077365Y0127134D01*
X0077075Y0136933D02*
X0076375Y0136933D01*
X0076024Y0137283D01*
X0076024Y0137984D02*
X0076725Y0138334D01*
X0077075Y0138334D01*
X0077426Y0137984D01*
X0077426Y0137283D01*
X0077075Y0136933D01*
X0078234Y0136933D02*
X0079636Y0138334D01*
X0079636Y0138685D01*
X0079285Y0139035D01*
X0078585Y0139035D01*
X0078234Y0138685D01*
X0077426Y0139035D02*
X0076024Y0139035D01*
X0076024Y0137984D01*
X0075216Y0138685D02*
X0074865Y0139035D01*
X0074165Y0139035D01*
X0073815Y0138685D01*
X0073815Y0137283D01*
X0074165Y0136933D01*
X0074865Y0136933D01*
X0075216Y0137283D01*
X0078234Y0136933D02*
X0079636Y0136933D01*
X0072136Y0138783D02*
X0071785Y0138433D01*
X0071085Y0138433D01*
X0070734Y0138783D01*
X0072136Y0140185D01*
X0072136Y0138783D01*
X0072136Y0140185D02*
X0071785Y0140535D01*
X0071085Y0140535D01*
X0070734Y0140185D01*
X0070734Y0138783D01*
X0069926Y0138433D02*
X0068524Y0138433D01*
X0069225Y0138433D02*
X0069225Y0140535D01*
X0068524Y0139834D01*
X0067716Y0138433D02*
X0066315Y0138433D01*
X0066315Y0140535D01*
X0067420Y0110535D02*
X0067420Y0108433D01*
X0068821Y0108433D01*
X0069629Y0108783D02*
X0069980Y0108433D01*
X0070680Y0108433D01*
X0071031Y0108783D01*
X0071031Y0110185D01*
X0070680Y0110535D01*
X0069980Y0110535D01*
X0069629Y0110185D01*
X0069629Y0109834D01*
X0069980Y0109484D01*
X0071031Y0109484D01*
X0073815Y0108685D02*
X0073815Y0107283D01*
X0074165Y0106933D01*
X0074865Y0106933D01*
X0075216Y0107283D01*
X0076024Y0107984D02*
X0077426Y0107984D01*
X0078234Y0108334D02*
X0078585Y0107984D01*
X0079636Y0107984D01*
X0079636Y0108685D02*
X0079285Y0109035D01*
X0078585Y0109035D01*
X0078234Y0108685D01*
X0078234Y0108334D01*
X0078234Y0107283D02*
X0078585Y0106933D01*
X0079285Y0106933D01*
X0079636Y0107283D01*
X0079636Y0108685D01*
X0077075Y0109035D02*
X0077075Y0106933D01*
X0076024Y0107984D02*
X0077075Y0109035D01*
X0075216Y0108685D02*
X0074865Y0109035D01*
X0074165Y0109035D01*
X0073815Y0108685D01*
X0311678Y0130419D02*
X0312028Y0130068D01*
X0313429Y0130068D01*
X0313779Y0130419D01*
X0313779Y0131119D01*
X0313429Y0131469D01*
X0313429Y0132278D02*
X0313779Y0132628D01*
X0313779Y0133329D01*
X0313429Y0133679D01*
X0313079Y0133679D01*
X0312728Y0133329D01*
X0312728Y0132278D01*
X0313429Y0132278D01*
X0312728Y0132278D02*
X0312028Y0132979D01*
X0311678Y0133679D01*
X0312028Y0134488D02*
X0312378Y0134488D01*
X0312728Y0134838D01*
X0312728Y0135889D01*
X0312028Y0135889D02*
X0311678Y0135539D01*
X0311678Y0134838D01*
X0312028Y0134488D01*
X0313429Y0134488D02*
X0313779Y0134838D01*
X0313779Y0135539D01*
X0313429Y0135889D01*
X0312028Y0135889D01*
X0312028Y0131469D02*
X0311678Y0131119D01*
X0311678Y0130419D01*
X0316665Y0122535D02*
X0316315Y0122185D01*
X0316315Y0120783D01*
X0316665Y0120433D01*
X0317365Y0120433D01*
X0317716Y0120783D01*
X0318524Y0120783D02*
X0318875Y0120433D01*
X0319575Y0120433D01*
X0319926Y0120783D01*
X0319926Y0121134D01*
X0319575Y0121484D01*
X0318524Y0121484D01*
X0318524Y0120783D01*
X0318524Y0121484D02*
X0319225Y0122185D01*
X0319926Y0122535D01*
X0320734Y0122185D02*
X0320734Y0121834D01*
X0321085Y0121484D01*
X0321785Y0121484D01*
X0322136Y0121134D01*
X0322136Y0120783D01*
X0321785Y0120433D01*
X0321085Y0120433D01*
X0320734Y0120783D01*
X0320734Y0121134D01*
X0321085Y0121484D01*
X0321785Y0121484D02*
X0322136Y0121834D01*
X0322136Y0122185D01*
X0321785Y0122535D01*
X0321085Y0122535D01*
X0320734Y0122185D01*
X0317716Y0122185D02*
X0317365Y0122535D01*
X0316665Y0122535D01*
X0323815Y0122535D02*
X0324865Y0122535D01*
X0325216Y0122185D01*
X0325216Y0121484D01*
X0324865Y0121134D01*
X0323815Y0121134D01*
X0324515Y0121134D02*
X0325216Y0120433D01*
X0326024Y0120783D02*
X0326375Y0120433D01*
X0327075Y0120433D01*
X0327426Y0120783D01*
X0327426Y0121484D01*
X0327075Y0121834D01*
X0326725Y0121834D01*
X0326024Y0121484D01*
X0326024Y0122535D01*
X0327426Y0122535D01*
X0328234Y0122185D02*
X0328585Y0122535D01*
X0329285Y0122535D01*
X0329636Y0122185D01*
X0328234Y0120783D01*
X0328585Y0120433D01*
X0329285Y0120433D01*
X0329636Y0120783D01*
X0329636Y0122185D01*
X0328234Y0122185D02*
X0328234Y0120783D01*
X0323815Y0120433D02*
X0323815Y0122535D01*
X0339815Y0119285D02*
X0339815Y0117183D01*
X0339815Y0117884D02*
X0340865Y0117884D01*
X0341216Y0118234D01*
X0341216Y0118935D01*
X0340865Y0119285D01*
X0339815Y0119285D01*
X0340515Y0117884D02*
X0341216Y0117183D01*
X0342024Y0118234D02*
X0343075Y0119285D01*
X0343075Y0117183D01*
X0343426Y0118234D02*
X0342024Y0118234D01*
X0344234Y0118584D02*
X0344585Y0118234D01*
X0345636Y0118234D01*
X0345636Y0117533D02*
X0345636Y0118935D01*
X0345285Y0119285D01*
X0344585Y0119285D01*
X0344234Y0118935D01*
X0344234Y0118584D01*
X0344234Y0117533D02*
X0344585Y0117183D01*
X0345285Y0117183D01*
X0345636Y0117533D01*
X0347678Y0121318D02*
X0349779Y0121318D01*
X0349779Y0122719D01*
X0349779Y0123528D02*
X0349779Y0124929D01*
X0349779Y0124229D02*
X0347678Y0124229D01*
X0348378Y0123528D01*
X0348728Y0125738D02*
X0348378Y0126439D01*
X0348378Y0126789D01*
X0348728Y0127139D01*
X0349429Y0127139D01*
X0349779Y0126789D01*
X0349779Y0126088D01*
X0349429Y0125738D01*
X0348728Y0125738D02*
X0347678Y0125738D01*
X0347678Y0127139D01*
X0350678Y0127429D02*
X0351028Y0126729D01*
X0351728Y0126028D01*
X0351728Y0127079D01*
X0352079Y0127429D01*
X0352429Y0127429D01*
X0352779Y0127079D01*
X0352779Y0126378D01*
X0352429Y0126028D01*
X0351728Y0126028D01*
X0351028Y0125219D02*
X0350678Y0124869D01*
X0350678Y0124169D01*
X0351028Y0123818D01*
X0352429Y0123818D01*
X0352779Y0124169D01*
X0352779Y0124869D01*
X0352429Y0125219D01*
X0352429Y0128238D02*
X0351028Y0129639D01*
X0350678Y0129639D01*
X0350678Y0128238D01*
X0352429Y0128238D02*
X0352779Y0128238D01*
X0341535Y0200683D02*
X0341535Y0202785D01*
X0340484Y0201734D01*
X0341886Y0201734D01*
X0339676Y0202084D02*
X0339676Y0202435D01*
X0339325Y0202785D01*
X0338625Y0202785D01*
X0338274Y0202435D01*
X0337466Y0202435D02*
X0337115Y0202785D01*
X0336415Y0202785D01*
X0336065Y0202435D01*
X0336065Y0201033D01*
X0336415Y0200683D01*
X0337115Y0200683D01*
X0337466Y0201033D01*
X0338274Y0200683D02*
X0339676Y0202084D01*
X0339676Y0200683D02*
X0338274Y0200683D01*
X0349678Y0203169D02*
X0350028Y0202818D01*
X0351429Y0202818D01*
X0351779Y0203169D01*
X0351779Y0203869D01*
X0351429Y0204219D01*
X0351779Y0205028D02*
X0350378Y0206429D01*
X0350028Y0206429D01*
X0349678Y0206079D01*
X0349678Y0205378D01*
X0350028Y0205028D01*
X0350028Y0204219D02*
X0349678Y0203869D01*
X0349678Y0203169D01*
X0351779Y0205028D02*
X0351779Y0206429D01*
X0351429Y0207238D02*
X0351779Y0207588D01*
X0351779Y0208289D01*
X0351429Y0208639D01*
X0351079Y0208639D01*
X0350728Y0208289D01*
X0350728Y0207939D01*
X0350728Y0208289D02*
X0350378Y0208639D01*
X0350028Y0208639D01*
X0349678Y0208289D01*
X0349678Y0207588D01*
X0350028Y0207238D01*
X0350178Y0212568D02*
X0350178Y0213969D01*
X0350178Y0213269D02*
X0352279Y0213269D01*
X0352279Y0214778D02*
X0350178Y0214778D01*
X0350178Y0215829D01*
X0350528Y0216179D01*
X0351228Y0216179D01*
X0351579Y0215829D01*
X0351579Y0214778D01*
X0351579Y0215479D02*
X0352279Y0216179D01*
X0351228Y0216988D02*
X0351228Y0218389D01*
X0350178Y0218039D02*
X0351228Y0216988D01*
X0350178Y0218039D02*
X0352279Y0218039D01*
X0351680Y0222183D02*
X0351680Y0224285D01*
X0350629Y0223234D01*
X0352031Y0223234D01*
X0349821Y0222183D02*
X0348420Y0222183D01*
X0348420Y0224285D01*
X0353178Y0234753D02*
X0353178Y0235804D01*
X0353528Y0236155D01*
X0354228Y0236155D01*
X0354579Y0235804D01*
X0354579Y0234753D01*
X0355279Y0234753D02*
X0353178Y0234753D01*
X0354579Y0235454D02*
X0355279Y0236155D01*
X0355279Y0236963D02*
X0355279Y0238364D01*
X0355279Y0237664D02*
X0353178Y0237664D01*
X0353878Y0236963D01*
X0353528Y0239173D02*
X0353178Y0239523D01*
X0353178Y0240224D01*
X0353528Y0240574D01*
X0353878Y0240574D01*
X0354228Y0240224D01*
X0354579Y0240574D01*
X0354929Y0240574D01*
X0355279Y0240224D01*
X0355279Y0239523D01*
X0354929Y0239173D01*
X0354228Y0239874D02*
X0354228Y0240224D01*
X0356928Y0240224D02*
X0357978Y0239173D01*
X0357978Y0240574D01*
X0356928Y0240224D02*
X0359029Y0240224D01*
X0360678Y0240574D02*
X0360678Y0239173D01*
X0361728Y0239173D01*
X0361378Y0239874D01*
X0361378Y0240224D01*
X0361728Y0240574D01*
X0362429Y0240574D01*
X0362779Y0240224D01*
X0362779Y0239523D01*
X0362429Y0239173D01*
X0362779Y0238364D02*
X0362779Y0236963D01*
X0362779Y0237664D02*
X0360678Y0237664D01*
X0361378Y0236963D01*
X0361028Y0236155D02*
X0361728Y0236155D01*
X0362079Y0235804D01*
X0362079Y0234753D01*
X0362779Y0234753D02*
X0360678Y0234753D01*
X0360678Y0235804D01*
X0361028Y0236155D01*
X0362079Y0235454D02*
X0362779Y0236155D01*
X0359029Y0236155D02*
X0358329Y0235454D01*
X0358329Y0235804D02*
X0358329Y0234753D01*
X0359029Y0234753D02*
X0356928Y0234753D01*
X0356928Y0235804D01*
X0357278Y0236155D01*
X0357978Y0236155D01*
X0358329Y0235804D01*
X0359029Y0236963D02*
X0359029Y0238364D01*
X0359029Y0237664D02*
X0356928Y0237664D01*
X0357628Y0236963D01*
X0350636Y0238433D02*
X0349234Y0238433D01*
X0350636Y0239834D01*
X0350636Y0240185D01*
X0350285Y0240535D01*
X0349585Y0240535D01*
X0349234Y0240185D01*
X0348426Y0240185D02*
X0348075Y0240535D01*
X0347375Y0240535D01*
X0347024Y0240185D01*
X0346216Y0240185D02*
X0345865Y0240535D01*
X0345165Y0240535D01*
X0344815Y0240185D01*
X0344815Y0238783D01*
X0345165Y0238433D01*
X0345865Y0238433D01*
X0346216Y0238783D01*
X0347024Y0238433D02*
X0348426Y0239834D01*
X0348426Y0240185D01*
X0348426Y0238433D02*
X0347024Y0238433D01*
X0357178Y0208639D02*
X0357528Y0207939D01*
X0358228Y0207238D01*
X0358228Y0208289D01*
X0358579Y0208639D01*
X0358929Y0208639D01*
X0359279Y0208289D01*
X0359279Y0207588D01*
X0358929Y0207238D01*
X0358228Y0207238D01*
X0359279Y0206429D02*
X0359279Y0205028D01*
X0359279Y0205729D02*
X0357178Y0205729D01*
X0357878Y0205028D01*
X0357528Y0204219D02*
X0358228Y0204219D01*
X0358579Y0203869D01*
X0358579Y0202818D01*
X0359279Y0202818D02*
X0357178Y0202818D01*
X0357178Y0203869D01*
X0357528Y0204219D01*
X0358579Y0203519D02*
X0359279Y0204219D01*
X0321779Y0204219D02*
X0321079Y0203519D01*
X0321079Y0203869D02*
X0321079Y0202818D01*
X0321779Y0202818D02*
X0319678Y0202818D01*
X0319678Y0203869D01*
X0320028Y0204219D01*
X0320728Y0204219D01*
X0321079Y0203869D01*
X0321779Y0205028D02*
X0321779Y0206429D01*
X0321779Y0205729D02*
X0319678Y0205729D01*
X0320378Y0205028D01*
X0320028Y0207238D02*
X0319678Y0207588D01*
X0319678Y0208289D01*
X0320028Y0208639D01*
X0320378Y0208639D01*
X0321779Y0207238D01*
X0321779Y0208639D01*
X0397428Y0218169D02*
X0397778Y0217818D01*
X0399179Y0217818D01*
X0399529Y0218169D01*
X0399529Y0218869D01*
X0399179Y0219219D01*
X0399179Y0220028D02*
X0399529Y0220378D01*
X0399529Y0221079D01*
X0399179Y0221429D01*
X0398829Y0221429D01*
X0398478Y0221079D01*
X0398478Y0220729D01*
X0398478Y0221079D02*
X0398128Y0221429D01*
X0397778Y0221429D01*
X0397428Y0221079D01*
X0397428Y0220378D01*
X0397778Y0220028D01*
X0397778Y0219219D02*
X0397428Y0218869D01*
X0397428Y0218169D01*
X0397778Y0222238D02*
X0397428Y0222588D01*
X0397428Y0223289D01*
X0397778Y0223639D01*
X0398128Y0223639D01*
X0398478Y0223289D01*
X0398829Y0223639D01*
X0399179Y0223639D01*
X0399529Y0223289D01*
X0399529Y0222588D01*
X0399179Y0222238D01*
X0398478Y0222939D02*
X0398478Y0223289D01*
X0408178Y0225669D02*
X0408528Y0225318D01*
X0409929Y0225318D01*
X0410279Y0225669D01*
X0410279Y0226369D01*
X0409929Y0226719D01*
X0410279Y0227528D02*
X0410279Y0228929D01*
X0410279Y0228229D02*
X0408178Y0228229D01*
X0408878Y0227528D01*
X0408528Y0226719D02*
X0408178Y0226369D01*
X0408178Y0225669D01*
X0408528Y0229738D02*
X0408178Y0230088D01*
X0408178Y0230789D01*
X0408528Y0231139D01*
X0409929Y0229738D01*
X0410279Y0230088D01*
X0410279Y0230789D01*
X0409929Y0231139D01*
X0408528Y0231139D01*
X0408528Y0229738D02*
X0409929Y0229738D01*
X0416928Y0229334D02*
X0419029Y0229334D01*
X0419029Y0230034D02*
X0419029Y0228633D01*
X0419029Y0227824D02*
X0419029Y0226423D01*
X0419029Y0227124D02*
X0416928Y0227124D01*
X0417628Y0226423D01*
X0417278Y0225614D02*
X0417978Y0225614D01*
X0418329Y0225264D01*
X0418329Y0224213D01*
X0419029Y0224213D02*
X0416928Y0224213D01*
X0416928Y0225264D01*
X0417278Y0225614D01*
X0418329Y0224914D02*
X0419029Y0225614D01*
X0417628Y0228633D02*
X0416928Y0229334D01*
X0417278Y0230843D02*
X0416928Y0231193D01*
X0416928Y0231894D01*
X0417278Y0232244D01*
X0418679Y0230843D01*
X0419029Y0231193D01*
X0419029Y0231894D01*
X0418679Y0232244D01*
X0417278Y0232244D01*
X0417278Y0230843D02*
X0418679Y0230843D01*
X0427678Y0229684D02*
X0428028Y0230034D01*
X0428378Y0230034D01*
X0428728Y0229684D01*
X0428728Y0228983D01*
X0428378Y0228633D01*
X0428028Y0228633D01*
X0427678Y0228983D01*
X0427678Y0229684D01*
X0428728Y0229684D02*
X0429079Y0230034D01*
X0429429Y0230034D01*
X0429779Y0229684D01*
X0429779Y0228983D01*
X0429429Y0228633D01*
X0429079Y0228633D01*
X0428728Y0228983D01*
X0428028Y0227824D02*
X0427678Y0227474D01*
X0427678Y0226773D01*
X0428028Y0226423D01*
X0429429Y0226423D01*
X0429779Y0226773D01*
X0429779Y0227474D01*
X0429429Y0227824D01*
X0399529Y0235669D02*
X0399529Y0236369D01*
X0399179Y0236719D01*
X0399179Y0237528D02*
X0399529Y0237878D01*
X0399529Y0238579D01*
X0399179Y0238929D01*
X0398829Y0238929D01*
X0398478Y0238579D01*
X0398478Y0238229D01*
X0398478Y0238579D02*
X0398128Y0238929D01*
X0397778Y0238929D01*
X0397428Y0238579D01*
X0397428Y0237878D01*
X0397778Y0237528D01*
X0397778Y0236719D02*
X0397428Y0236369D01*
X0397428Y0235669D01*
X0397778Y0235318D01*
X0399179Y0235318D01*
X0399529Y0235669D01*
X0399179Y0239738D02*
X0398478Y0239738D01*
X0398478Y0240789D01*
X0398829Y0241139D01*
X0399179Y0241139D01*
X0399529Y0240789D01*
X0399529Y0240088D01*
X0399179Y0239738D01*
X0398478Y0239738D02*
X0397778Y0240439D01*
X0397428Y0241139D01*
X0407710Y0259683D02*
X0407710Y0261785D01*
X0408761Y0261785D01*
X0409111Y0261435D01*
X0409111Y0260734D01*
X0408761Y0260384D01*
X0407710Y0260384D01*
X0408410Y0260384D02*
X0409111Y0259683D01*
X0409919Y0259683D02*
X0411321Y0259683D01*
X0410620Y0259683D02*
X0410620Y0261785D01*
X0409919Y0261084D01*
X0412129Y0261435D02*
X0412480Y0261785D01*
X0413180Y0261785D01*
X0413531Y0261435D01*
X0413531Y0261084D01*
X0412129Y0259683D01*
X0413531Y0259683D01*
X0414339Y0259683D02*
X0415740Y0259683D01*
X0415040Y0259683D02*
X0415040Y0261785D01*
X0414339Y0261084D01*
X0425960Y0263183D02*
X0425960Y0265285D01*
X0427011Y0265285D01*
X0427361Y0264935D01*
X0427361Y0264234D01*
X0427011Y0263884D01*
X0425960Y0263884D01*
X0426660Y0263884D02*
X0427361Y0263183D01*
X0428169Y0263183D02*
X0429571Y0263183D01*
X0428870Y0263183D02*
X0428870Y0265285D01*
X0428169Y0264584D01*
X0430379Y0264584D02*
X0431080Y0265285D01*
X0431080Y0263183D01*
X0430379Y0263183D02*
X0431781Y0263183D01*
X0432589Y0263183D02*
X0433990Y0263183D01*
X0433290Y0263183D02*
X0433290Y0265285D01*
X0432589Y0264584D01*
X0429279Y0275463D02*
X0427178Y0275463D01*
X0427178Y0276514D01*
X0427528Y0276864D01*
X0428228Y0276864D01*
X0428579Y0276514D01*
X0428579Y0275463D01*
X0428579Y0276164D02*
X0429279Y0276864D01*
X0429279Y0277673D02*
X0429279Y0279074D01*
X0429279Y0278374D02*
X0427178Y0278374D01*
X0427878Y0277673D01*
X0427878Y0279883D02*
X0427178Y0280584D01*
X0429279Y0280584D01*
X0429279Y0281284D02*
X0429279Y0279883D01*
X0428929Y0282093D02*
X0428579Y0282093D01*
X0428228Y0282443D01*
X0428228Y0283144D01*
X0428579Y0283494D01*
X0428929Y0283494D01*
X0429279Y0283144D01*
X0429279Y0282443D01*
X0428929Y0282093D01*
X0428228Y0282443D02*
X0427878Y0282093D01*
X0427528Y0282093D01*
X0427178Y0282443D01*
X0427178Y0283144D01*
X0427528Y0283494D01*
X0427878Y0283494D01*
X0428228Y0283144D01*
X0422779Y0282093D02*
X0422429Y0282093D01*
X0421028Y0283494D01*
X0420678Y0283494D01*
X0420678Y0282093D01*
X0419279Y0282443D02*
X0419279Y0283144D01*
X0418929Y0283494D01*
X0418579Y0283494D01*
X0418228Y0283144D01*
X0418228Y0282093D01*
X0418929Y0282093D01*
X0419279Y0282443D01*
X0418228Y0282093D02*
X0417528Y0282794D01*
X0417178Y0283494D01*
X0417178Y0280584D02*
X0419279Y0280584D01*
X0419279Y0281284D02*
X0419279Y0279883D01*
X0419279Y0279074D02*
X0419279Y0277673D01*
X0419279Y0278374D02*
X0417178Y0278374D01*
X0417878Y0277673D01*
X0417528Y0276864D02*
X0418228Y0276864D01*
X0418579Y0276514D01*
X0418579Y0275463D01*
X0419279Y0275463D02*
X0417178Y0275463D01*
X0417178Y0276514D01*
X0417528Y0276864D01*
X0418579Y0276164D02*
X0419279Y0276864D01*
X0420678Y0276514D02*
X0420678Y0275463D01*
X0422779Y0275463D01*
X0422079Y0275463D02*
X0422079Y0276514D01*
X0421728Y0276864D01*
X0421028Y0276864D01*
X0420678Y0276514D01*
X0421378Y0277673D02*
X0420678Y0278374D01*
X0422779Y0278374D01*
X0422779Y0279074D02*
X0422779Y0277673D01*
X0422779Y0276864D02*
X0422079Y0276164D01*
X0422779Y0279883D02*
X0422779Y0281284D01*
X0422779Y0280584D02*
X0420678Y0280584D01*
X0421378Y0279883D01*
X0417878Y0279883D02*
X0417178Y0280584D01*
X0427770Y0254535D02*
X0427420Y0254185D01*
X0427420Y0252783D01*
X0427770Y0252433D01*
X0428470Y0252433D01*
X0428821Y0252783D01*
X0429629Y0252783D02*
X0429980Y0252433D01*
X0430680Y0252433D01*
X0431031Y0252783D01*
X0431031Y0253134D01*
X0430680Y0253484D01*
X0430330Y0253484D01*
X0430680Y0253484D02*
X0431031Y0253834D01*
X0431031Y0254185D01*
X0430680Y0254535D01*
X0429980Y0254535D01*
X0429629Y0254185D01*
X0428821Y0254185D02*
X0428470Y0254535D01*
X0427770Y0254535D01*
D20*
X0451229Y0135733D02*
X0453729Y0133233D01*
D21*
X0453729Y0135733D02*
X0451229Y0138233D01*
D22*
X0421523Y0236796D03*
D23*
X0374210Y0137406D02*
X0359249Y0137406D01*
X0359249Y0109060D01*
X0374210Y0109060D01*
X0374210Y0137406D01*
X0159210Y0219060D02*
X0159210Y0247406D01*
X0144249Y0247406D01*
X0144249Y0219060D01*
X0159210Y0219060D01*
D24*
X0141848Y0129237D03*
X0141848Y0111737D03*
X0376611Y0227229D03*
X0376611Y0244729D03*
D25*
X0333729Y0222233D03*
X0296229Y0222233D03*
X0258729Y0222233D03*
X0221229Y0222233D03*
X0185229Y0217733D03*
X0145824Y0197918D03*
X0116729Y0185733D03*
X0080229Y0200233D03*
X0080229Y0170233D03*
X0080229Y0140233D03*
X0080229Y0110233D03*
X0129229Y0145733D03*
X0184729Y0134233D03*
X0222229Y0134233D03*
X0259729Y0134233D03*
X0297229Y0134233D03*
X0333229Y0138733D03*
X0372635Y0158548D03*
X0333229Y0168733D03*
X0290324Y0172918D03*
X0251729Y0168233D03*
X0185229Y0187733D03*
X0080229Y0230233D03*
X0389229Y0210733D03*
D26*
X0414830Y0258745D03*
X0133678Y0222328D03*
X0120529Y0261501D03*
X0107930Y0094965D03*
M02*
