G04 This is an RS-274x file exported by *
G04 gerbv version 2.7.0 *
G04 More information is available about gerbv at *
G04 http://gerbv.geda-project.org/ *
G04 --End of header info--*
%MOIN*%
%FSLAX36Y36*%
%IPPOS*%
G04 --Define apertures--*
%ADD10C,0.0071*%
%ADD11C,0.0049*%
%ADD12C,0.0020*%
%ADD13C,0.0032*%
%ADD14C,0.0024*%
%ADD15R,0.0197X0.0197*%
%ADD16C,0.0044*%
%ADD17C,0.0091*%
%ADD18C,0.0059*%
%ADD19C,0.0047*%
%ADD20C,0.0032*%
%ADD21C,0.0020*%
%ADD22C,0.0075*%
%ADD23C,0.0065*%
%ADD24R,0.0197X0.0197*%
G04 --Start main section--*
G54D10*
G01X0750440Y-1300160D02*
G01X0814220Y-1300160D01*
G01X0814220Y-1300160D02*
G01X0814220Y-1328500D01*
G01X0814220Y-1328500D02*
G01X0750440Y-1328500D01*
G01X0750440Y-1328500D02*
G01X0750440Y-1300160D01*
G01X0757520Y-1300160D02*
G01X0757520Y-1328500D01*
G01X0764600Y-1328500D02*
G01X0764600Y-1300160D01*
G01X0771680Y-1300160D02*
G01X0771680Y-1328500D01*
G01X0778760Y-1328500D02*
G01X0778760Y-1300160D01*
G01X0785840Y-1300160D02*
G01X0785840Y-1328500D01*
G01X0792920Y-1328500D02*
G01X0792920Y-1300160D01*
G01X0800000Y-1300160D02*
G01X0800000Y-1328500D01*
G01X0807080Y-1328500D02*
G01X0807080Y-1300160D01*
G01X0814160Y-1300160D02*
G01X0814160Y-1328500D01*
G01X0814220Y-1400160D02*
G01X0750440Y-1400160D01*
G01X0814220Y-1400160D02*
G01X0814220Y-1428500D01*
G01X0814220Y-1428500D02*
G01X0750440Y-1428500D01*
G01X0750440Y-1428500D02*
G01X0750440Y-1400160D01*
G01X0757520Y-1400160D02*
G01X0757520Y-1428500D01*
G01X0764600Y-1428500D02*
G01X0764600Y-1400160D01*
G01X0771680Y-1400160D02*
G01X0771680Y-1428500D01*
G01X0778760Y-1428500D02*
G01X0778760Y-1400160D01*
G01X0785840Y-1400160D02*
G01X0785840Y-1428500D01*
G01X0792920Y-1428500D02*
G01X0792920Y-1400160D01*
G01X0800000Y-1400160D02*
G01X0800000Y-1428500D01*
G01X0807080Y-1428500D02*
G01X0807080Y-1400160D01*
G01X0814160Y-1400160D02*
G01X0814160Y-1428500D01*
G01X0814220Y-1500160D02*
G01X0750440Y-1500160D01*
G01X0814220Y-1500160D02*
G01X0814220Y-1528500D01*
G01X0814220Y-1528500D02*
G01X0750440Y-1528500D01*
G01X0750440Y-1528500D02*
G01X0750440Y-1500160D01*
G01X0757520Y-1500160D02*
G01X0757520Y-1528500D01*
G01X0764600Y-1528500D02*
G01X0764600Y-1500160D01*
G01X0771680Y-1500160D02*
G01X0771680Y-1528500D01*
G01X0778760Y-1528500D02*
G01X0778760Y-1500160D01*
G01X0785840Y-1500160D02*
G01X0785840Y-1528500D01*
G01X0792920Y-1528500D02*
G01X0792920Y-1500160D01*
G01X0800000Y-1500160D02*
G01X0800000Y-1528500D01*
G01X0807080Y-1528500D02*
G01X0807080Y-1500160D01*
G01X0814160Y-1500160D02*
G01X0814160Y-1528500D01*
G01X0814220Y-1600160D02*
G01X0750440Y-1600160D01*
G01X0814220Y-1600160D02*
G01X0814220Y-1628500D01*
G01X0814220Y-1628500D02*
G01X0750440Y-1628500D01*
G01X0750440Y-1628500D02*
G01X0750440Y-1600160D01*
G01X0757520Y-1600160D02*
G01X0757520Y-1628500D01*
G01X0764600Y-1628500D02*
G01X0764600Y-1600160D01*
G01X0771680Y-1600160D02*
G01X0771680Y-1628500D01*
G01X0778760Y-1628500D02*
G01X0778760Y-1600160D01*
G01X0785840Y-1600160D02*
G01X0785840Y-1628500D01*
G01X0792920Y-1628500D02*
G01X0792920Y-1600160D01*
G01X0800000Y-1600160D02*
G01X0800000Y-1628500D01*
G01X0807080Y-1628500D02*
G01X0807080Y-1600160D01*
G01X0814160Y-1600160D02*
G01X0814160Y-1628500D01*
G01X1000440Y-1600160D02*
G01X1064220Y-1600160D01*
G01X1064220Y-1600160D02*
G01X1064220Y-1628500D01*
G01X1064220Y-1628500D02*
G01X1000440Y-1628500D01*
G01X1000440Y-1628500D02*
G01X1000440Y-1600160D01*
G01X1007520Y-1600160D02*
G01X1007520Y-1628500D01*
G01X1014600Y-1628500D02*
G01X1014600Y-1600160D01*
G01X1021680Y-1600160D02*
G01X1021680Y-1628500D01*
G01X1028760Y-1628500D02*
G01X1028760Y-1600160D01*
G01X1035840Y-1600160D02*
G01X1035840Y-1628500D01*
G01X1042920Y-1628500D02*
G01X1042920Y-1600160D01*
G01X1050000Y-1600160D02*
G01X1050000Y-1628500D01*
G01X1057080Y-1628500D02*
G01X1057080Y-1600160D01*
G01X1064160Y-1600160D02*
G01X1064160Y-1628500D01*
G01X1064220Y-1500160D02*
G01X1000440Y-1500160D01*
G01X1064220Y-1500160D02*
G01X1064220Y-1528500D01*
G01X1064220Y-1528500D02*
G01X1000440Y-1528500D01*
G01X1000440Y-1528500D02*
G01X1000440Y-1500160D01*
G01X1007520Y-1500160D02*
G01X1007520Y-1528500D01*
G01X1014600Y-1528500D02*
G01X1014600Y-1500160D01*
G01X1021680Y-1500160D02*
G01X1021680Y-1528500D01*
G01X1028760Y-1528500D02*
G01X1028760Y-1500160D01*
G01X1035840Y-1500160D02*
G01X1035840Y-1528500D01*
G01X1042920Y-1528500D02*
G01X1042920Y-1500160D01*
G01X1050000Y-1500160D02*
G01X1050000Y-1528500D01*
G01X1057080Y-1528500D02*
G01X1057080Y-1500160D01*
G01X1064160Y-1500160D02*
G01X1064160Y-1528500D01*
G01X1064220Y-1400160D02*
G01X1000440Y-1400160D01*
G01X1064220Y-1400160D02*
G01X1064220Y-1428500D01*
G01X1064220Y-1428500D02*
G01X1000440Y-1428500D01*
G01X1000440Y-1428500D02*
G01X1000440Y-1400160D01*
G01X1007520Y-1400160D02*
G01X1007520Y-1428500D01*
G01X1014600Y-1428500D02*
G01X1014600Y-1400160D01*
G01X1021680Y-1400160D02*
G01X1021680Y-1428500D01*
G01X1028760Y-1428500D02*
G01X1028760Y-1400160D01*
G01X1035840Y-1400160D02*
G01X1035840Y-1428500D01*
G01X1042920Y-1428500D02*
G01X1042920Y-1400160D01*
G01X1050000Y-1400160D02*
G01X1050000Y-1428500D01*
G01X1057080Y-1428500D02*
G01X1057080Y-1400160D01*
G01X1064160Y-1400160D02*
G01X1064160Y-1428500D01*
G01X1064220Y-1300160D02*
G01X1000440Y-1300160D01*
G01X1064220Y-1300160D02*
G01X1064220Y-1328500D01*
G01X1064220Y-1328500D02*
G01X1000440Y-1328500D01*
G01X1000440Y-1328500D02*
G01X1000440Y-1300160D01*
G01X1007520Y-1300160D02*
G01X1007520Y-1328500D01*
G01X1014600Y-1328500D02*
G01X1014600Y-1300160D01*
G01X1021680Y-1300160D02*
G01X1021680Y-1328500D01*
G01X1028760Y-1328500D02*
G01X1028760Y-1300160D01*
G01X1035840Y-1300160D02*
G01X1035840Y-1328500D01*
G01X1042920Y-1328500D02*
G01X1042920Y-1300160D01*
G01X1050000Y-1300160D02*
G01X1050000Y-1328500D01*
G01X1057080Y-1328500D02*
G01X1057080Y-1300160D01*
G01X1064160Y-1300160D02*
G01X1064160Y-1328500D01*
G01X2500440Y-1300160D02*
G01X2564220Y-1300160D01*
G01X2564220Y-1300160D02*
G01X2564220Y-1328500D01*
G01X2564220Y-1328500D02*
G01X2500440Y-1328500D01*
G01X2500440Y-1328500D02*
G01X2500440Y-1300160D01*
G01X2507520Y-1300160D02*
G01X2507520Y-1328500D01*
G01X2514600Y-1328500D02*
G01X2514600Y-1300160D01*
G01X2521680Y-1300160D02*
G01X2521680Y-1328500D01*
G01X2528760Y-1328500D02*
G01X2528760Y-1300160D01*
G01X2535840Y-1300160D02*
G01X2535840Y-1328500D01*
G01X2542920Y-1328500D02*
G01X2542920Y-1300160D01*
G01X2550000Y-1300160D02*
G01X2550000Y-1328500D01*
G01X2557080Y-1328500D02*
G01X2557080Y-1300160D01*
G01X2564160Y-1300160D02*
G01X2564160Y-1328500D01*
G01X2564220Y-1400160D02*
G01X2500440Y-1400160D01*
G01X2564220Y-1400160D02*
G01X2564220Y-1428500D01*
G01X2564220Y-1428500D02*
G01X2500440Y-1428500D01*
G01X2500440Y-1428500D02*
G01X2500440Y-1400160D01*
G01X2507520Y-1400160D02*
G01X2507520Y-1428500D01*
G01X2514600Y-1428500D02*
G01X2514600Y-1400160D01*
G01X2521680Y-1400160D02*
G01X2521680Y-1428500D01*
G01X2528760Y-1428500D02*
G01X2528760Y-1400160D01*
G01X2535840Y-1400160D02*
G01X2535840Y-1428500D01*
G01X2542920Y-1428500D02*
G01X2542920Y-1400160D01*
G01X2550000Y-1400160D02*
G01X2550000Y-1428500D01*
G01X2557080Y-1428500D02*
G01X2557080Y-1400160D01*
G01X2564160Y-1400160D02*
G01X2564160Y-1428500D01*
G01X2564220Y-1500160D02*
G01X2500440Y-1500160D01*
G01X2564220Y-1500160D02*
G01X2564220Y-1528500D01*
G01X2564220Y-1528500D02*
G01X2500440Y-1528500D01*
G01X2500440Y-1528500D02*
G01X2500440Y-1500160D01*
G01X2507520Y-1500160D02*
G01X2507520Y-1528500D01*
G01X2514600Y-1528500D02*
G01X2514600Y-1500160D01*
G01X2521680Y-1500160D02*
G01X2521680Y-1528500D01*
G01X2528760Y-1528500D02*
G01X2528760Y-1500160D01*
G01X2535840Y-1500160D02*
G01X2535840Y-1528500D01*
G01X2542920Y-1528500D02*
G01X2542920Y-1500160D01*
G01X2550000Y-1500160D02*
G01X2550000Y-1528500D01*
G01X2557080Y-1528500D02*
G01X2557080Y-1500160D01*
G01X2564160Y-1500160D02*
G01X2564160Y-1528500D01*
G01X2564220Y-1600160D02*
G01X2500440Y-1600160D01*
G01X2564220Y-1600160D02*
G01X2564220Y-1628500D01*
G01X2564220Y-1628500D02*
G01X2500440Y-1628500D01*
G01X2500440Y-1628500D02*
G01X2500440Y-1600160D01*
G01X2507520Y-1600160D02*
G01X2507520Y-1628500D01*
G01X2514600Y-1628500D02*
G01X2514600Y-1600160D01*
G01X2521680Y-1600160D02*
G01X2521680Y-1628500D01*
G01X2528760Y-1628500D02*
G01X2528760Y-1600160D01*
G01X2535840Y-1600160D02*
G01X2535840Y-1628500D01*
G01X2542920Y-1628500D02*
G01X2542920Y-1600160D01*
G01X2550000Y-1600160D02*
G01X2550000Y-1628500D01*
G01X2557080Y-1628500D02*
G01X2557080Y-1600160D01*
G01X2564160Y-1600160D02*
G01X2564160Y-1628500D01*
G01X2750440Y-1600160D02*
G01X2814220Y-1600160D01*
G01X2814220Y-1600160D02*
G01X2814220Y-1628500D01*
G01X2814220Y-1628500D02*
G01X2750440Y-1628500D01*
G01X2750440Y-1628500D02*
G01X2750440Y-1600160D01*
G01X2757520Y-1600160D02*
G01X2757520Y-1628500D01*
G01X2764600Y-1628500D02*
G01X2764600Y-1600160D01*
G01X2771680Y-1600160D02*
G01X2771680Y-1628500D01*
G01X2778760Y-1628500D02*
G01X2778760Y-1600160D01*
G01X2785840Y-1600160D02*
G01X2785840Y-1628500D01*
G01X2792920Y-1628500D02*
G01X2792920Y-1600160D01*
G01X2800000Y-1600160D02*
G01X2800000Y-1628500D01*
G01X2807080Y-1628500D02*
G01X2807080Y-1600160D01*
G01X2814160Y-1600160D02*
G01X2814160Y-1628500D01*
G01X2814220Y-1500160D02*
G01X2750440Y-1500160D01*
G01X2814220Y-1500160D02*
G01X2814220Y-1528500D01*
G01X2814220Y-1528500D02*
G01X2750440Y-1528500D01*
G01X2750440Y-1528500D02*
G01X2750440Y-1500160D01*
G01X2757520Y-1500160D02*
G01X2757520Y-1528500D01*
G01X2764600Y-1528500D02*
G01X2764600Y-1500160D01*
G01X2771680Y-1500160D02*
G01X2771680Y-1528500D01*
G01X2778760Y-1528500D02*
G01X2778760Y-1500160D01*
G01X2785840Y-1500160D02*
G01X2785840Y-1528500D01*
G01X2792920Y-1528500D02*
G01X2792920Y-1500160D01*
G01X2800000Y-1500160D02*
G01X2800000Y-1528500D01*
G01X2807080Y-1528500D02*
G01X2807080Y-1500160D01*
G01X2814160Y-1500160D02*
G01X2814160Y-1528500D01*
G01X2814220Y-1400160D02*
G01X2750440Y-1400160D01*
G01X2814220Y-1400160D02*
G01X2814220Y-1428500D01*
G01X2814220Y-1428500D02*
G01X2750440Y-1428500D01*
G01X2750440Y-1428500D02*
G01X2750440Y-1400160D01*
G01X2757520Y-1400160D02*
G01X2757520Y-1428500D01*
G01X2764600Y-1428500D02*
G01X2764600Y-1400160D01*
G01X2771680Y-1400160D02*
G01X2771680Y-1428500D01*
G01X2778760Y-1428500D02*
G01X2778760Y-1400160D01*
G01X2785840Y-1400160D02*
G01X2785840Y-1428500D01*
G01X2792920Y-1428500D02*
G01X2792920Y-1400160D01*
G01X2800000Y-1400160D02*
G01X2800000Y-1428500D01*
G01X2807080Y-1428500D02*
G01X2807080Y-1400160D01*
G01X2814160Y-1400160D02*
G01X2814160Y-1428500D01*
G01X2814220Y-1300160D02*
G01X2750440Y-1300160D01*
G01X2814220Y-1300160D02*
G01X2814220Y-1328500D01*
G01X2814220Y-1328500D02*
G01X2750440Y-1328500D01*
G01X2750440Y-1328500D02*
G01X2750440Y-1300160D01*
G01X2757520Y-1300160D02*
G01X2757520Y-1328500D01*
G01X2764600Y-1328500D02*
G01X2764600Y-1300160D01*
G01X2771680Y-1300160D02*
G01X2771680Y-1328500D01*
G01X2778760Y-1328500D02*
G01X2778760Y-1300160D01*
G01X2785840Y-1300160D02*
G01X2785840Y-1328500D01*
G01X2792920Y-1328500D02*
G01X2792920Y-1300160D01*
G01X2800000Y-1300160D02*
G01X2800000Y-1328500D01*
G01X2807080Y-1328500D02*
G01X2807080Y-1300160D01*
G01X2814160Y-1300160D02*
G01X2814160Y-1328500D01*
G01X2814220Y-3578500D02*
G01X2750440Y-3578500D01*
G01X2750440Y-3578500D02*
G01X2750440Y-3550160D01*
G01X2750440Y-3550160D02*
G01X2814220Y-3550160D01*
G01X2814220Y-3550160D02*
G01X2814220Y-3578500D01*
G01X2757520Y-3578500D02*
G01X2757520Y-3550160D01*
G01X2764600Y-3550160D02*
G01X2764600Y-3578500D01*
G01X2771680Y-3578500D02*
G01X2771680Y-3550160D01*
G01X2778760Y-3550160D02*
G01X2778760Y-3578500D01*
G01X2785840Y-3578500D02*
G01X2785840Y-3550160D01*
G01X2792920Y-3550160D02*
G01X2792920Y-3578500D01*
G01X2800000Y-3578500D02*
G01X2800000Y-3550160D01*
G01X2807080Y-3550160D02*
G01X2807080Y-3578500D01*
G01X2814160Y-3578500D02*
G01X2814160Y-3550160D01*
G01X2814220Y-3678500D02*
G01X2750440Y-3678500D01*
G01X2750440Y-3678500D02*
G01X2750440Y-3650160D01*
G01X2750440Y-3650160D02*
G01X2814220Y-3650160D01*
G01X2814220Y-3650160D02*
G01X2814220Y-3678500D01*
G01X2757520Y-3678500D02*
G01X2757520Y-3650160D01*
G01X2764600Y-3650160D02*
G01X2764600Y-3678500D01*
G01X2771680Y-3678500D02*
G01X2771680Y-3650160D01*
G01X2778760Y-3650160D02*
G01X2778760Y-3678500D01*
G01X2785840Y-3678500D02*
G01X2785840Y-3650160D01*
G01X2792920Y-3650160D02*
G01X2792920Y-3678500D01*
G01X2800000Y-3678500D02*
G01X2800000Y-3650160D01*
G01X2807080Y-3650160D02*
G01X2807080Y-3678500D01*
G01X2814160Y-3678500D02*
G01X2814160Y-3650160D01*
G01X2814220Y-3778500D02*
G01X2750440Y-3778500D01*
G01X2750440Y-3778500D02*
G01X2750440Y-3750160D01*
G01X2750440Y-3750160D02*
G01X2814220Y-3750160D01*
G01X2814220Y-3750160D02*
G01X2814220Y-3778500D01*
G01X2757520Y-3778500D02*
G01X2757520Y-3750160D01*
G01X2764600Y-3750160D02*
G01X2764600Y-3778500D01*
G01X2771680Y-3778500D02*
G01X2771680Y-3750160D01*
G01X2778760Y-3750160D02*
G01X2778760Y-3778500D01*
G01X2785840Y-3778500D02*
G01X2785840Y-3750160D01*
G01X2792920Y-3750160D02*
G01X2792920Y-3778500D01*
G01X2800000Y-3778500D02*
G01X2800000Y-3750160D01*
G01X2807080Y-3750160D02*
G01X2807080Y-3778500D01*
G01X2814160Y-3778500D02*
G01X2814160Y-3750160D01*
G01X2814220Y-3878500D02*
G01X2750440Y-3878500D01*
G01X2750440Y-3878500D02*
G01X2750440Y-3850160D01*
G01X2750440Y-3850160D02*
G01X2814220Y-3850160D01*
G01X2814220Y-3850160D02*
G01X2814220Y-3878500D01*
G01X2757520Y-3878500D02*
G01X2757520Y-3850160D01*
G01X2764600Y-3850160D02*
G01X2764600Y-3878500D01*
G01X2771680Y-3878500D02*
G01X2771680Y-3850160D01*
G01X2778760Y-3850160D02*
G01X2778760Y-3878500D01*
G01X2785840Y-3878500D02*
G01X2785840Y-3850160D01*
G01X2792920Y-3850160D02*
G01X2792920Y-3878500D01*
G01X2800000Y-3878500D02*
G01X2800000Y-3850160D01*
G01X2807080Y-3850160D02*
G01X2807080Y-3878500D01*
G01X2814160Y-3878500D02*
G01X2814160Y-3850160D01*
G01X2564220Y-3878500D02*
G01X2500440Y-3878500D01*
G01X2500440Y-3878500D02*
G01X2500440Y-3850160D01*
G01X2500440Y-3850160D02*
G01X2564220Y-3850160D01*
G01X2564220Y-3850160D02*
G01X2564220Y-3878500D01*
G01X2507520Y-3878500D02*
G01X2507520Y-3850160D01*
G01X2514600Y-3850160D02*
G01X2514600Y-3878500D01*
G01X2521680Y-3878500D02*
G01X2521680Y-3850160D01*
G01X2528760Y-3850160D02*
G01X2528760Y-3878500D01*
G01X2535840Y-3878500D02*
G01X2535840Y-3850160D01*
G01X2542920Y-3850160D02*
G01X2542920Y-3878500D01*
G01X2550000Y-3878500D02*
G01X2550000Y-3850160D01*
G01X2557080Y-3850160D02*
G01X2557080Y-3878500D01*
G01X2564160Y-3878500D02*
G01X2564160Y-3850160D01*
G01X2564220Y-3778500D02*
G01X2500440Y-3778500D01*
G01X2500440Y-3778500D02*
G01X2500440Y-3750160D01*
G01X2500440Y-3750160D02*
G01X2564220Y-3750160D01*
G01X2564220Y-3750160D02*
G01X2564220Y-3778500D01*
G01X2507520Y-3778500D02*
G01X2507520Y-3750160D01*
G01X2514600Y-3750160D02*
G01X2514600Y-3778500D01*
G01X2521680Y-3778500D02*
G01X2521680Y-3750160D01*
G01X2528760Y-3750160D02*
G01X2528760Y-3778500D01*
G01X2535840Y-3778500D02*
G01X2535840Y-3750160D01*
G01X2542920Y-3750160D02*
G01X2542920Y-3778500D01*
G01X2550000Y-3778500D02*
G01X2550000Y-3750160D01*
G01X2557080Y-3750160D02*
G01X2557080Y-3778500D01*
G01X2564160Y-3778500D02*
G01X2564160Y-3750160D01*
G01X2564220Y-3678500D02*
G01X2500440Y-3678500D01*
G01X2500440Y-3678500D02*
G01X2500440Y-3650160D01*
G01X2500440Y-3650160D02*
G01X2564220Y-3650160D01*
G01X2564220Y-3650160D02*
G01X2564220Y-3678500D01*
G01X2507520Y-3678500D02*
G01X2507520Y-3650160D01*
G01X2514600Y-3650160D02*
G01X2514600Y-3678500D01*
G01X2521680Y-3678500D02*
G01X2521680Y-3650160D01*
G01X2528760Y-3650160D02*
G01X2528760Y-3678500D01*
G01X2535840Y-3678500D02*
G01X2535840Y-3650160D01*
G01X2542920Y-3650160D02*
G01X2542920Y-3678500D01*
G01X2550000Y-3678500D02*
G01X2550000Y-3650160D01*
G01X2557080Y-3650160D02*
G01X2557080Y-3678500D01*
G01X2564160Y-3678500D02*
G01X2564160Y-3650160D01*
G01X2564220Y-3578500D02*
G01X2500440Y-3578500D01*
G01X2500440Y-3578500D02*
G01X2500440Y-3550160D01*
G01X2500440Y-3550160D02*
G01X2564220Y-3550160D01*
G01X2564220Y-3550160D02*
G01X2564220Y-3578500D01*
G01X2507520Y-3578500D02*
G01X2507520Y-3550160D01*
G01X2514600Y-3550160D02*
G01X2514600Y-3578500D01*
G01X2521680Y-3578500D02*
G01X2521680Y-3550160D01*
G01X2528760Y-3550160D02*
G01X2528760Y-3578500D01*
G01X2535840Y-3578500D02*
G01X2535840Y-3550160D01*
G01X2542920Y-3550160D02*
G01X2542920Y-3578500D01*
G01X2550000Y-3578500D02*
G01X2550000Y-3550160D01*
G01X2557080Y-3550160D02*
G01X2557080Y-3578500D01*
G01X2564160Y-3578500D02*
G01X2564160Y-3550160D01*
G01X1064220Y-3578500D02*
G01X1000440Y-3578500D01*
G01X1000440Y-3578500D02*
G01X1000440Y-3550160D01*
G01X1000440Y-3550160D02*
G01X1064220Y-3550160D01*
G01X1064220Y-3550160D02*
G01X1064220Y-3578500D01*
G01X1007520Y-3578500D02*
G01X1007520Y-3550160D01*
G01X1014600Y-3550160D02*
G01X1014600Y-3578500D01*
G01X1021680Y-3578500D02*
G01X1021680Y-3550160D01*
G01X1028760Y-3550160D02*
G01X1028760Y-3578500D01*
G01X1035840Y-3578500D02*
G01X1035840Y-3550160D01*
G01X1042920Y-3550160D02*
G01X1042920Y-3578500D01*
G01X1050000Y-3578500D02*
G01X1050000Y-3550160D01*
G01X1057080Y-3550160D02*
G01X1057080Y-3578500D01*
G01X1064160Y-3578500D02*
G01X1064160Y-3550160D01*
G01X1064220Y-3678500D02*
G01X1000440Y-3678500D01*
G01X1000440Y-3678500D02*
G01X1000440Y-3650160D01*
G01X1000440Y-3650160D02*
G01X1064220Y-3650160D01*
G01X1064220Y-3650160D02*
G01X1064220Y-3678500D01*
G01X1007520Y-3678500D02*
G01X1007520Y-3650160D01*
G01X1014600Y-3650160D02*
G01X1014600Y-3678500D01*
G01X1021680Y-3678500D02*
G01X1021680Y-3650160D01*
G01X1028760Y-3650160D02*
G01X1028760Y-3678500D01*
G01X1035840Y-3678500D02*
G01X1035840Y-3650160D01*
G01X1042920Y-3650160D02*
G01X1042920Y-3678500D01*
G01X1050000Y-3678500D02*
G01X1050000Y-3650160D01*
G01X1057080Y-3650160D02*
G01X1057080Y-3678500D01*
G01X1064160Y-3678500D02*
G01X1064160Y-3650160D01*
G01X1064220Y-3778500D02*
G01X1000440Y-3778500D01*
G01X1000440Y-3778500D02*
G01X1000440Y-3750160D01*
G01X1000440Y-3750160D02*
G01X1064220Y-3750160D01*
G01X1064220Y-3750160D02*
G01X1064220Y-3778500D01*
G01X1007520Y-3778500D02*
G01X1007520Y-3750160D01*
G01X1014600Y-3750160D02*
G01X1014600Y-3778500D01*
G01X1021680Y-3778500D02*
G01X1021680Y-3750160D01*
G01X1028760Y-3750160D02*
G01X1028760Y-3778500D01*
G01X1035840Y-3778500D02*
G01X1035840Y-3750160D01*
G01X1042920Y-3750160D02*
G01X1042920Y-3778500D01*
G01X1050000Y-3778500D02*
G01X1050000Y-3750160D01*
G01X1057080Y-3750160D02*
G01X1057080Y-3778500D01*
G01X1064160Y-3778500D02*
G01X1064160Y-3750160D01*
G01X1064220Y-3878500D02*
G01X1000440Y-3878500D01*
G01X1000440Y-3878500D02*
G01X1000440Y-3850160D01*
G01X1000440Y-3850160D02*
G01X1064220Y-3850160D01*
G01X1064220Y-3850160D02*
G01X1064220Y-3878500D01*
G01X1007520Y-3878500D02*
G01X1007520Y-3850160D01*
G01X1014600Y-3850160D02*
G01X1014600Y-3878500D01*
G01X1021680Y-3878500D02*
G01X1021680Y-3850160D01*
G01X1028760Y-3850160D02*
G01X1028760Y-3878500D01*
G01X1035840Y-3878500D02*
G01X1035840Y-3850160D01*
G01X1042920Y-3850160D02*
G01X1042920Y-3878500D01*
G01X1050000Y-3878500D02*
G01X1050000Y-3850160D01*
G01X1057080Y-3850160D02*
G01X1057080Y-3878500D01*
G01X1064160Y-3878500D02*
G01X1064160Y-3850160D01*
G01X0814220Y-3878500D02*
G01X0750440Y-3878500D01*
G01X0750440Y-3878500D02*
G01X0750440Y-3850160D01*
G01X0750440Y-3850160D02*
G01X0814220Y-3850160D01*
G01X0814220Y-3850160D02*
G01X0814220Y-3878500D01*
G01X0757520Y-3878500D02*
G01X0757520Y-3850160D01*
G01X0764600Y-3850160D02*
G01X0764600Y-3878500D01*
G01X0771680Y-3878500D02*
G01X0771680Y-3850160D01*
G01X0778760Y-3850160D02*
G01X0778760Y-3878500D01*
G01X0785840Y-3878500D02*
G01X0785840Y-3850160D01*
G01X0792920Y-3850160D02*
G01X0792920Y-3878500D01*
G01X0800000Y-3878500D02*
G01X0800000Y-3850160D01*
G01X0807080Y-3850160D02*
G01X0807080Y-3878500D01*
G01X0814160Y-3878500D02*
G01X0814160Y-3850160D01*
G01X0814220Y-3778500D02*
G01X0750440Y-3778500D01*
G01X0750440Y-3778500D02*
G01X0750440Y-3750160D01*
G01X0750440Y-3750160D02*
G01X0814220Y-3750160D01*
G01X0814220Y-3750160D02*
G01X0814220Y-3778500D01*
G01X0757520Y-3778500D02*
G01X0757520Y-3750160D01*
G01X0764600Y-3750160D02*
G01X0764600Y-3778500D01*
G01X0771680Y-3778500D02*
G01X0771680Y-3750160D01*
G01X0778760Y-3750160D02*
G01X0778760Y-3778500D01*
G01X0785840Y-3778500D02*
G01X0785840Y-3750160D01*
G01X0792920Y-3750160D02*
G01X0792920Y-3778500D01*
G01X0800000Y-3778500D02*
G01X0800000Y-3750160D01*
G01X0807080Y-3750160D02*
G01X0807080Y-3778500D01*
G01X0814160Y-3778500D02*
G01X0814160Y-3750160D01*
G01X0814220Y-3678500D02*
G01X0750440Y-3678500D01*
G01X0750440Y-3678500D02*
G01X0750440Y-3650160D01*
G01X0750440Y-3650160D02*
G01X0814220Y-3650160D01*
G01X0814220Y-3650160D02*
G01X0814220Y-3678500D01*
G01X0757520Y-3678500D02*
G01X0757520Y-3650160D01*
G01X0764600Y-3650160D02*
G01X0764600Y-3678500D01*
G01X0771680Y-3678500D02*
G01X0771680Y-3650160D01*
G01X0778760Y-3650160D02*
G01X0778760Y-3678500D01*
G01X0785840Y-3678500D02*
G01X0785840Y-3650160D01*
G01X0792920Y-3650160D02*
G01X0792920Y-3678500D01*
G01X0800000Y-3678500D02*
G01X0800000Y-3650160D01*
G01X0807080Y-3650160D02*
G01X0807080Y-3678500D01*
G01X0814160Y-3678500D02*
G01X0814160Y-3650160D01*
G01X0814220Y-3578500D02*
G01X0750440Y-3578500D01*
G01X0750440Y-3578500D02*
G01X0750440Y-3550160D01*
G01X0750440Y-3550160D02*
G01X0814220Y-3550160D01*
G01X0814220Y-3550160D02*
G01X0814220Y-3578500D01*
G01X0757520Y-3578500D02*
G01X0757520Y-3550160D01*
G01X0764600Y-3550160D02*
G01X0764600Y-3578500D01*
G01X0771680Y-3578500D02*
G01X0771680Y-3550160D01*
G01X0778760Y-3550160D02*
G01X0778760Y-3578500D01*
G01X0785840Y-3578500D02*
G01X0785840Y-3550160D01*
G01X0792920Y-3550160D02*
G01X0792920Y-3578500D01*
G01X0800000Y-3578500D02*
G01X0800000Y-3550160D01*
G01X0807080Y-3550160D02*
G01X0807080Y-3578500D01*
G01X0814160Y-3578500D02*
G01X0814160Y-3550160D01*
G54D11*
G01X1117350Y-3774090D02*
G01X1136870Y-3774090D01*
G01X1117350Y-3774090D02*
G01X1117350Y-3754570D01*
G01X1117350Y-3754570D02*
G01X1136870Y-3754570D01*
G01X1136870Y-3754570D02*
G01X1136870Y-3774090D01*
G01X1122220Y-3774090D02*
G01X1122220Y-3754570D01*
G01X1127090Y-3754570D02*
G01X1127090Y-3774090D01*
G01X1131960Y-3774090D02*
G01X1131960Y-3754570D01*
G01X1136830Y-3754570D02*
G01X1136830Y-3774090D01*
G01X1152790Y-3774090D02*
G01X1172310Y-3774090D01*
G01X1152790Y-3774090D02*
G01X1152790Y-3754570D01*
G01X1152790Y-3754570D02*
G01X1172310Y-3754570D01*
G01X1172310Y-3754570D02*
G01X1172310Y-3774090D01*
G01X1157660Y-3774090D02*
G01X1157660Y-3754570D01*
G01X1162530Y-3754570D02*
G01X1162530Y-3774090D01*
G01X1167400Y-3774090D02*
G01X1167400Y-3754570D01*
G01X1172270Y-3754570D02*
G01X1172270Y-3774090D01*
G01X1172310Y-3874090D02*
G01X1152790Y-3874090D01*
G01X1152790Y-3874090D02*
G01X1152790Y-3854570D01*
G01X1152790Y-3854570D02*
G01X1172310Y-3854570D01*
G01X1172310Y-3854570D02*
G01X1172310Y-3874090D01*
G01X1157660Y-3874090D02*
G01X1157660Y-3854570D01*
G01X1162530Y-3854570D02*
G01X1162530Y-3874090D01*
G01X1167400Y-3874090D02*
G01X1167400Y-3854570D01*
G01X1172270Y-3854570D02*
G01X1172270Y-3874090D01*
G01X1136870Y-3874090D02*
G01X1117350Y-3874090D01*
G01X1117350Y-3874090D02*
G01X1117350Y-3854570D01*
G01X1117350Y-3854570D02*
G01X1136870Y-3854570D01*
G01X1136870Y-3854570D02*
G01X1136870Y-3874090D01*
G01X1122220Y-3874090D02*
G01X1122220Y-3854570D01*
G01X1127090Y-3854570D02*
G01X1127090Y-3874090D01*
G01X1131960Y-3874090D02*
G01X1131960Y-3854570D01*
G01X1136830Y-3854570D02*
G01X1136830Y-3874090D01*
G01X1292350Y-3874090D02*
G01X1311870Y-3874090D01*
G01X1292350Y-3874090D02*
G01X1292350Y-3854570D01*
G01X1292350Y-3854570D02*
G01X1311870Y-3854570D01*
G01X1311870Y-3854570D02*
G01X1311870Y-3874090D01*
G01X1297220Y-3874090D02*
G01X1297220Y-3854570D01*
G01X1302090Y-3854570D02*
G01X1302090Y-3874090D01*
G01X1306960Y-3874090D02*
G01X1306960Y-3854570D01*
G01X1311830Y-3854570D02*
G01X1311830Y-3874090D01*
G01X1327790Y-3874090D02*
G01X1347310Y-3874090D01*
G01X1327790Y-3874090D02*
G01X1327790Y-3854570D01*
G01X1327790Y-3854570D02*
G01X1347310Y-3854570D01*
G01X1347310Y-3854570D02*
G01X1347310Y-3874090D01*
G01X1332660Y-3874090D02*
G01X1332660Y-3854570D01*
G01X1337530Y-3854570D02*
G01X1337530Y-3874090D01*
G01X1342400Y-3874090D02*
G01X1342400Y-3854570D01*
G01X1347270Y-3854570D02*
G01X1347270Y-3874090D01*
G01X1347310Y-3774090D02*
G01X1327790Y-3774090D01*
G01X1327790Y-3774090D02*
G01X1327790Y-3754570D01*
G01X1327790Y-3754570D02*
G01X1347310Y-3754570D01*
G01X1347310Y-3754570D02*
G01X1347310Y-3774090D01*
G01X1332660Y-3774090D02*
G01X1332660Y-3754570D01*
G01X1337530Y-3754570D02*
G01X1337530Y-3774090D01*
G01X1342400Y-3774090D02*
G01X1342400Y-3754570D01*
G01X1347270Y-3754570D02*
G01X1347270Y-3774090D01*
G01X1311870Y-3774090D02*
G01X1292350Y-3774090D01*
G01X1292350Y-3774090D02*
G01X1292350Y-3754570D01*
G01X1292350Y-3754570D02*
G01X1311870Y-3754570D01*
G01X1311870Y-3754570D02*
G01X1311870Y-3774090D01*
G01X1297220Y-3774090D02*
G01X1297220Y-3754570D01*
G01X1302090Y-3754570D02*
G01X1302090Y-3774090D01*
G01X1306960Y-3774090D02*
G01X1306960Y-3754570D01*
G01X1311830Y-3754570D02*
G01X1311830Y-3774090D01*
G01X1447570Y-3766810D02*
G01X1447570Y-3747290D01*
G01X1447570Y-3747290D02*
G01X1467090Y-3747290D01*
G01X1467090Y-3747290D02*
G01X1467090Y-3766810D01*
G01X1467090Y-3766810D02*
G01X1447570Y-3766810D01*
G01X1452440Y-3766810D02*
G01X1452440Y-3747290D01*
G01X1457310Y-3747290D02*
G01X1457310Y-3766810D01*
G01X1462180Y-3766810D02*
G01X1462180Y-3747290D01*
G01X1467050Y-3747290D02*
G01X1467050Y-3766810D01*
G01X1447570Y-3731370D02*
G01X1447570Y-3711850D01*
G01X1447570Y-3711850D02*
G01X1467090Y-3711850D01*
G01X1467090Y-3711850D02*
G01X1467090Y-3731370D01*
G01X1467090Y-3731370D02*
G01X1447570Y-3731370D01*
G01X1452440Y-3731370D02*
G01X1452440Y-3711850D01*
G01X1457310Y-3711850D02*
G01X1457310Y-3731370D01*
G01X1462180Y-3731370D02*
G01X1462180Y-3711850D01*
G01X1467050Y-3711850D02*
G01X1467050Y-3731370D01*
G01X1610070Y-3731370D02*
G01X1610070Y-3711850D01*
G01X1610070Y-3711850D02*
G01X1629590Y-3711850D01*
G01X1629590Y-3711850D02*
G01X1629590Y-3731370D01*
G01X1629590Y-3731370D02*
G01X1610070Y-3731370D01*
G01X1614940Y-3731370D02*
G01X1614940Y-3711850D01*
G01X1619810Y-3711850D02*
G01X1619810Y-3731370D01*
G01X1624680Y-3731370D02*
G01X1624680Y-3711850D01*
G01X1629550Y-3711850D02*
G01X1629550Y-3731370D01*
G01X1610070Y-3747290D02*
G01X1610070Y-3766810D01*
G01X1610070Y-3747290D02*
G01X1629590Y-3747290D01*
G01X1629590Y-3747290D02*
G01X1629590Y-3766810D01*
G01X1629590Y-3766810D02*
G01X1610070Y-3766810D01*
G01X1614940Y-3766810D02*
G01X1614940Y-3747290D01*
G01X1619810Y-3747290D02*
G01X1619810Y-3766810D01*
G01X1624680Y-3766810D02*
G01X1624680Y-3747290D01*
G01X1629550Y-3747290D02*
G01X1629550Y-3766810D01*
G01X1667090Y-3766810D02*
G01X1667090Y-3747290D01*
G01X1667090Y-3766810D02*
G01X1647570Y-3766810D01*
G01X1647570Y-3766810D02*
G01X1647570Y-3747290D01*
G01X1647570Y-3747290D02*
G01X1667090Y-3747290D01*
G01X1652440Y-3747290D02*
G01X1652440Y-3766810D01*
G01X1657310Y-3766810D02*
G01X1657310Y-3747290D01*
G01X1662180Y-3747290D02*
G01X1662180Y-3766810D01*
G01X1667050Y-3766810D02*
G01X1667050Y-3747290D01*
G01X1667090Y-3731370D02*
G01X1667090Y-3711850D01*
G01X1667090Y-3731370D02*
G01X1647570Y-3731370D01*
G01X1647570Y-3731370D02*
G01X1647570Y-3711850D01*
G01X1647570Y-3711850D02*
G01X1667090Y-3711850D01*
G01X1652440Y-3711850D02*
G01X1652440Y-3731370D01*
G01X1657310Y-3731370D02*
G01X1657310Y-3711850D01*
G01X1662180Y-3711850D02*
G01X1662180Y-3731370D01*
G01X1667050Y-3731370D02*
G01X1667050Y-3711850D01*
G01X1892350Y-3874090D02*
G01X1911870Y-3874090D01*
G01X1892350Y-3874090D02*
G01X1892350Y-3854570D01*
G01X1892350Y-3854570D02*
G01X1911870Y-3854570D01*
G01X1911870Y-3854570D02*
G01X1911870Y-3874090D01*
G01X1897220Y-3874090D02*
G01X1897220Y-3854570D01*
G01X1902090Y-3854570D02*
G01X1902090Y-3874090D01*
G01X1906960Y-3874090D02*
G01X1906960Y-3854570D01*
G01X1911830Y-3854570D02*
G01X1911830Y-3874090D01*
G01X1927790Y-3874090D02*
G01X1947310Y-3874090D01*
G01X1927790Y-3874090D02*
G01X1927790Y-3854570D01*
G01X1927790Y-3854570D02*
G01X1947310Y-3854570D01*
G01X1947310Y-3854570D02*
G01X1947310Y-3874090D01*
G01X1932660Y-3874090D02*
G01X1932660Y-3854570D01*
G01X1937530Y-3854570D02*
G01X1937530Y-3874090D01*
G01X1942400Y-3874090D02*
G01X1942400Y-3854570D01*
G01X1947270Y-3854570D02*
G01X1947270Y-3874090D01*
G01X1967350Y-3874090D02*
G01X1986870Y-3874090D01*
G01X1967350Y-3874090D02*
G01X1967350Y-3854570D01*
G01X1967350Y-3854570D02*
G01X1986870Y-3854570D01*
G01X1986870Y-3854570D02*
G01X1986870Y-3874090D01*
G01X1972220Y-3874090D02*
G01X1972220Y-3854570D01*
G01X1977090Y-3854570D02*
G01X1977090Y-3874090D01*
G01X1981960Y-3874090D02*
G01X1981960Y-3854570D01*
G01X1986830Y-3854570D02*
G01X1986830Y-3874090D01*
G01X2002790Y-3874090D02*
G01X2022310Y-3874090D01*
G01X2002790Y-3874090D02*
G01X2002790Y-3854570D01*
G01X2002790Y-3854570D02*
G01X2022310Y-3854570D01*
G01X2022310Y-3854570D02*
G01X2022310Y-3874090D01*
G01X2007660Y-3874090D02*
G01X2007660Y-3854570D01*
G01X2012530Y-3854570D02*
G01X2012530Y-3874090D01*
G01X2017400Y-3874090D02*
G01X2017400Y-3854570D01*
G01X2022270Y-3854570D02*
G01X2022270Y-3874090D01*
G01X2029850Y-3729570D02*
G01X2049370Y-3729570D01*
G01X2049370Y-3729570D02*
G01X2049370Y-3749090D01*
G01X2049370Y-3749090D02*
G01X2029850Y-3749090D01*
G01X2029850Y-3749090D02*
G01X2029850Y-3729570D01*
G01X2034720Y-3729570D02*
G01X2034720Y-3749090D01*
G01X2039590Y-3749090D02*
G01X2039590Y-3729570D01*
G01X2044460Y-3729570D02*
G01X2044460Y-3749090D01*
G01X2049330Y-3749090D02*
G01X2049330Y-3729570D01*
G01X2065290Y-3729570D02*
G01X2084810Y-3729570D01*
G01X2084810Y-3729570D02*
G01X2084810Y-3749090D01*
G01X2084810Y-3749090D02*
G01X2065290Y-3749090D01*
G01X2065290Y-3749090D02*
G01X2065290Y-3729570D01*
G01X2070160Y-3729570D02*
G01X2070160Y-3749090D01*
G01X2075030Y-3749090D02*
G01X2075030Y-3729570D01*
G01X2079900Y-3729570D02*
G01X2079900Y-3749090D01*
G01X2084770Y-3749090D02*
G01X2084770Y-3729570D01*
G01X2084810Y-3711590D02*
G01X2065290Y-3711590D01*
G01X2065290Y-3711590D02*
G01X2065290Y-3692070D01*
G01X2065290Y-3692070D02*
G01X2084810Y-3692070D01*
G01X2084810Y-3692070D02*
G01X2084810Y-3711590D01*
G01X2070160Y-3711590D02*
G01X2070160Y-3692070D01*
G01X2075030Y-3692070D02*
G01X2075030Y-3711590D01*
G01X2079900Y-3711590D02*
G01X2079900Y-3692070D01*
G01X2084770Y-3692070D02*
G01X2084770Y-3711590D01*
G01X2049370Y-3711590D02*
G01X2029850Y-3711590D01*
G01X2029850Y-3711590D02*
G01X2029850Y-3692070D01*
G01X2029850Y-3692070D02*
G01X2049370Y-3692070D01*
G01X2049370Y-3692070D02*
G01X2049370Y-3711590D01*
G01X2034720Y-3711590D02*
G01X2034720Y-3692070D01*
G01X2039590Y-3692070D02*
G01X2039590Y-3711590D01*
G01X2044460Y-3711590D02*
G01X2044460Y-3692070D01*
G01X2049330Y-3692070D02*
G01X2049330Y-3711590D01*
G01X2049370Y-3674090D02*
G01X2029850Y-3674090D01*
G01X2029850Y-3674090D02*
G01X2029850Y-3654570D01*
G01X2029850Y-3654570D02*
G01X2049370Y-3654570D01*
G01X2049370Y-3654570D02*
G01X2049370Y-3674090D01*
G01X2034720Y-3674090D02*
G01X2034720Y-3654570D01*
G01X2039590Y-3654570D02*
G01X2039590Y-3674090D01*
G01X2044460Y-3674090D02*
G01X2044460Y-3654570D01*
G01X2049330Y-3654570D02*
G01X2049330Y-3674090D01*
G01X2065290Y-3674090D02*
G01X2084810Y-3674090D01*
G01X2065290Y-3674090D02*
G01X2065290Y-3654570D01*
G01X2065290Y-3654570D02*
G01X2084810Y-3654570D01*
G01X2084810Y-3654570D02*
G01X2084810Y-3674090D01*
G01X2070160Y-3674090D02*
G01X2070160Y-3654570D01*
G01X2075030Y-3654570D02*
G01X2075030Y-3674090D01*
G01X2079900Y-3674090D02*
G01X2079900Y-3654570D01*
G01X2084770Y-3654570D02*
G01X2084770Y-3674090D01*
G01X2084810Y-3636590D02*
G01X2065290Y-3636590D01*
G01X2065290Y-3636590D02*
G01X2065290Y-3617070D01*
G01X2065290Y-3617070D02*
G01X2084810Y-3617070D01*
G01X2084810Y-3617070D02*
G01X2084810Y-3636590D01*
G01X2070160Y-3636590D02*
G01X2070160Y-3617070D01*
G01X2075030Y-3617070D02*
G01X2075030Y-3636590D01*
G01X2079900Y-3636590D02*
G01X2079900Y-3617070D01*
G01X2084770Y-3617070D02*
G01X2084770Y-3636590D01*
G01X2049370Y-3636590D02*
G01X2029850Y-3636590D01*
G01X2029850Y-3636590D02*
G01X2029850Y-3617070D01*
G01X2029850Y-3617070D02*
G01X2049370Y-3617070D01*
G01X2049370Y-3617070D02*
G01X2049370Y-3636590D01*
G01X2034720Y-3636590D02*
G01X2034720Y-3617070D01*
G01X2039590Y-3617070D02*
G01X2039590Y-3636590D01*
G01X2044460Y-3636590D02*
G01X2044460Y-3617070D01*
G01X2049330Y-3617070D02*
G01X2049330Y-3636590D01*
G01X1997310Y-3617070D02*
G01X1977790Y-3617070D01*
G01X1997310Y-3617070D02*
G01X1997310Y-3636590D01*
G01X1997310Y-3636590D02*
G01X1977790Y-3636590D01*
G01X1977790Y-3636590D02*
G01X1977790Y-3617070D01*
G01X1982660Y-3617070D02*
G01X1982660Y-3636590D01*
G01X1987530Y-3636590D02*
G01X1987530Y-3617070D01*
G01X1992400Y-3617070D02*
G01X1992400Y-3636590D01*
G01X1997270Y-3636590D02*
G01X1997270Y-3617070D01*
G01X1997310Y-3654570D02*
G01X1977790Y-3654570D01*
G01X1997310Y-3654570D02*
G01X1997310Y-3674090D01*
G01X1997310Y-3674090D02*
G01X1977790Y-3674090D01*
G01X1977790Y-3674090D02*
G01X1977790Y-3654570D01*
G01X1982660Y-3654570D02*
G01X1982660Y-3674090D01*
G01X1987530Y-3674090D02*
G01X1987530Y-3654570D01*
G01X1992400Y-3654570D02*
G01X1992400Y-3674090D01*
G01X1997270Y-3674090D02*
G01X1997270Y-3654570D01*
G01X1961870Y-3654570D02*
G01X1942350Y-3654570D01*
G01X1961870Y-3654570D02*
G01X1961870Y-3674090D01*
G01X1961870Y-3674090D02*
G01X1942350Y-3674090D01*
G01X1942350Y-3674090D02*
G01X1942350Y-3654570D01*
G01X1947220Y-3654570D02*
G01X1947220Y-3674090D01*
G01X1952090Y-3674090D02*
G01X1952090Y-3654570D01*
G01X1956960Y-3654570D02*
G01X1956960Y-3674090D01*
G01X1961830Y-3674090D02*
G01X1961830Y-3654570D01*
G01X1961870Y-3617070D02*
G01X1942350Y-3617070D01*
G01X1961870Y-3617070D02*
G01X1961870Y-3636590D01*
G01X1961870Y-3636590D02*
G01X1942350Y-3636590D01*
G01X1942350Y-3636590D02*
G01X1942350Y-3617070D01*
G01X1947220Y-3617070D02*
G01X1947220Y-3636590D01*
G01X1952090Y-3636590D02*
G01X1952090Y-3617070D01*
G01X1956960Y-3617070D02*
G01X1956960Y-3636590D01*
G01X1961830Y-3636590D02*
G01X1961830Y-3617070D01*
G01X2147570Y-3855850D02*
G01X2147570Y-3875370D01*
G01X2147570Y-3855850D02*
G01X2167090Y-3855850D01*
G01X2167090Y-3855850D02*
G01X2167090Y-3875370D01*
G01X2167090Y-3875370D02*
G01X2147570Y-3875370D01*
G01X2152440Y-3875370D02*
G01X2152440Y-3855850D01*
G01X2157310Y-3855850D02*
G01X2157310Y-3875370D01*
G01X2162180Y-3875370D02*
G01X2162180Y-3855850D01*
G01X2167050Y-3855850D02*
G01X2167050Y-3875370D01*
G01X2147570Y-3891290D02*
G01X2147570Y-3910810D01*
G01X2147570Y-3891290D02*
G01X2167090Y-3891290D01*
G01X2167090Y-3891290D02*
G01X2167090Y-3910810D01*
G01X2167090Y-3910810D02*
G01X2147570Y-3910810D01*
G01X2152440Y-3910810D02*
G01X2152440Y-3891290D01*
G01X2157310Y-3891290D02*
G01X2157310Y-3910810D01*
G01X2162180Y-3910810D02*
G01X2162180Y-3891290D01*
G01X2167050Y-3891290D02*
G01X2167050Y-3910810D01*
G01X2347350Y-3911590D02*
G01X2366870Y-3911590D01*
G01X2347350Y-3911590D02*
G01X2347350Y-3892070D01*
G01X2347350Y-3892070D02*
G01X2366870Y-3892070D01*
G01X2366870Y-3892070D02*
G01X2366870Y-3911590D01*
G01X2352220Y-3911590D02*
G01X2352220Y-3892070D01*
G01X2357090Y-3892070D02*
G01X2357090Y-3911590D01*
G01X2361960Y-3911590D02*
G01X2361960Y-3892070D01*
G01X2366830Y-3892070D02*
G01X2366830Y-3911590D01*
G01X2382790Y-3911590D02*
G01X2402310Y-3911590D01*
G01X2382790Y-3911590D02*
G01X2382790Y-3892070D01*
G01X2382790Y-3892070D02*
G01X2402310Y-3892070D01*
G01X2402310Y-3892070D02*
G01X2402310Y-3911590D01*
G01X2387660Y-3911590D02*
G01X2387660Y-3892070D01*
G01X2392530Y-3892070D02*
G01X2392530Y-3911590D01*
G01X2397400Y-3911590D02*
G01X2397400Y-3892070D01*
G01X2402270Y-3892070D02*
G01X2402270Y-3911590D01*
G01X2402310Y-3949090D02*
G01X2382790Y-3949090D01*
G01X2382790Y-3949090D02*
G01X2382790Y-3929570D01*
G01X2382790Y-3929570D02*
G01X2402310Y-3929570D01*
G01X2402310Y-3929570D02*
G01X2402310Y-3949090D01*
G01X2387660Y-3949090D02*
G01X2387660Y-3929570D01*
G01X2392530Y-3929570D02*
G01X2392530Y-3949090D01*
G01X2397400Y-3949090D02*
G01X2397400Y-3929570D01*
G01X2402270Y-3929570D02*
G01X2402270Y-3949090D01*
G01X2366870Y-3949090D02*
G01X2347350Y-3949090D01*
G01X2347350Y-3949090D02*
G01X2347350Y-3929570D01*
G01X2347350Y-3929570D02*
G01X2366870Y-3929570D01*
G01X2366870Y-3929570D02*
G01X2366870Y-3949090D01*
G01X2352220Y-3949090D02*
G01X2352220Y-3929570D01*
G01X2357090Y-3929570D02*
G01X2357090Y-3949090D01*
G01X2361960Y-3949090D02*
G01X2361960Y-3929570D01*
G01X2366830Y-3929570D02*
G01X2366830Y-3949090D01*
G01X2649850Y-4212070D02*
G01X2669370Y-4212070D01*
G01X2669370Y-4212070D02*
G01X2669370Y-4231590D01*
G01X2669370Y-4231590D02*
G01X2649850Y-4231590D01*
G01X2649850Y-4231590D02*
G01X2649850Y-4212070D01*
G01X2654720Y-4212070D02*
G01X2654720Y-4231590D01*
G01X2659590Y-4231590D02*
G01X2659590Y-4212070D01*
G01X2664460Y-4212070D02*
G01X2664460Y-4231590D01*
G01X2669330Y-4231590D02*
G01X2669330Y-4212070D01*
G01X2685290Y-4212070D02*
G01X2704810Y-4212070D01*
G01X2704810Y-4212070D02*
G01X2704810Y-4231590D01*
G01X2704810Y-4231590D02*
G01X2685290Y-4231590D01*
G01X2685290Y-4231590D02*
G01X2685290Y-4212070D01*
G01X2690160Y-4212070D02*
G01X2690160Y-4231590D01*
G01X2695030Y-4231590D02*
G01X2695030Y-4212070D01*
G01X2699900Y-4212070D02*
G01X2699900Y-4231590D01*
G01X2704770Y-4231590D02*
G01X2704770Y-4212070D01*
G01X2142090Y-3316810D02*
G01X2142090Y-3297290D01*
G01X2142090Y-3316810D02*
G01X2122570Y-3316810D01*
G01X2122570Y-3316810D02*
G01X2122570Y-3297290D01*
G01X2122570Y-3297290D02*
G01X2142090Y-3297290D01*
G01X2127440Y-3297290D02*
G01X2127440Y-3316810D01*
G01X2132310Y-3316810D02*
G01X2132310Y-3297290D01*
G01X2137180Y-3297290D02*
G01X2137180Y-3316810D01*
G01X2142050Y-3316810D02*
G01X2142050Y-3297290D01*
G01X2142090Y-3281370D02*
G01X2142090Y-3261850D01*
G01X2142090Y-3281370D02*
G01X2122570Y-3281370D01*
G01X2122570Y-3281370D02*
G01X2122570Y-3261850D01*
G01X2122570Y-3261850D02*
G01X2142090Y-3261850D01*
G01X2127440Y-3261850D02*
G01X2127440Y-3281370D01*
G01X2132310Y-3281370D02*
G01X2132310Y-3261850D01*
G01X2137180Y-3261850D02*
G01X2137180Y-3281370D01*
G01X2142050Y-3281370D02*
G01X2142050Y-3261850D01*
G01X2179850Y-2692070D02*
G01X2199370Y-2692070D01*
G01X2199370Y-2692070D02*
G01X2199370Y-2711590D01*
G01X2199370Y-2711590D02*
G01X2179850Y-2711590D01*
G01X2179850Y-2711590D02*
G01X2179850Y-2692070D01*
G01X2184720Y-2692070D02*
G01X2184720Y-2711590D01*
G01X2189590Y-2711590D02*
G01X2189590Y-2692070D01*
G01X2194460Y-2692070D02*
G01X2194460Y-2711590D01*
G01X2199330Y-2711590D02*
G01X2199330Y-2692070D01*
G01X2215290Y-2692070D02*
G01X2234810Y-2692070D01*
G01X2234810Y-2692070D02*
G01X2234810Y-2711590D01*
G01X2234810Y-2711590D02*
G01X2215290Y-2711590D01*
G01X2215290Y-2711590D02*
G01X2215290Y-2692070D01*
G01X2220160Y-2692070D02*
G01X2220160Y-2711590D01*
G01X2225030Y-2711590D02*
G01X2225030Y-2692070D01*
G01X2229900Y-2692070D02*
G01X2229900Y-2711590D01*
G01X2234770Y-2711590D02*
G01X2234770Y-2692070D01*
G01X1847310Y-2504570D02*
G01X1827790Y-2504570D01*
G01X1847310Y-2504570D02*
G01X1847310Y-2524090D01*
G01X1847310Y-2524090D02*
G01X1827790Y-2524090D01*
G01X1827790Y-2524090D02*
G01X1827790Y-2504570D01*
G01X1832660Y-2504570D02*
G01X1832660Y-2524090D01*
G01X1837530Y-2524090D02*
G01X1837530Y-2504570D01*
G01X1842400Y-2504570D02*
G01X1842400Y-2524090D01*
G01X1847270Y-2524090D02*
G01X1847270Y-2504570D01*
G01X1811870Y-2504570D02*
G01X1792350Y-2504570D01*
G01X1811870Y-2504570D02*
G01X1811870Y-2524090D01*
G01X1811870Y-2524090D02*
G01X1792350Y-2524090D01*
G01X1792350Y-2524090D02*
G01X1792350Y-2504570D01*
G01X1797220Y-2504570D02*
G01X1797220Y-2524090D01*
G01X1802090Y-2524090D02*
G01X1802090Y-2504570D01*
G01X1806960Y-2504570D02*
G01X1806960Y-2524090D01*
G01X1811830Y-2524090D02*
G01X1811830Y-2504570D01*
G01X1772310Y-2504570D02*
G01X1752790Y-2504570D01*
G01X1772310Y-2504570D02*
G01X1772310Y-2524090D01*
G01X1772310Y-2524090D02*
G01X1752790Y-2524090D01*
G01X1752790Y-2524090D02*
G01X1752790Y-2504570D01*
G01X1757660Y-2504570D02*
G01X1757660Y-2524090D01*
G01X1762530Y-2524090D02*
G01X1762530Y-2504570D01*
G01X1767400Y-2504570D02*
G01X1767400Y-2524090D01*
G01X1772270Y-2524090D02*
G01X1772270Y-2504570D01*
G01X1736870Y-2504570D02*
G01X1717350Y-2504570D01*
G01X1736870Y-2504570D02*
G01X1736870Y-2524090D01*
G01X1736870Y-2524090D02*
G01X1717350Y-2524090D01*
G01X1717350Y-2524090D02*
G01X1717350Y-2504570D01*
G01X1722220Y-2504570D02*
G01X1722220Y-2524090D01*
G01X1727090Y-2524090D02*
G01X1727090Y-2504570D01*
G01X1731960Y-2504570D02*
G01X1731960Y-2524090D01*
G01X1736830Y-2524090D02*
G01X1736830Y-2504570D01*
G01X1772570Y-2341810D02*
G01X1772570Y-2322290D01*
G01X1772570Y-2322290D02*
G01X1792090Y-2322290D01*
G01X1792090Y-2322290D02*
G01X1792090Y-2341810D01*
G01X1792090Y-2341810D02*
G01X1772570Y-2341810D01*
G01X1777440Y-2341810D02*
G01X1777440Y-2322290D01*
G01X1782310Y-2322290D02*
G01X1782310Y-2341810D01*
G01X1787180Y-2341810D02*
G01X1787180Y-2322290D01*
G01X1792050Y-2322290D02*
G01X1792050Y-2341810D01*
G01X1810070Y-2341810D02*
G01X1810070Y-2322290D01*
G01X1810070Y-2322290D02*
G01X1829590Y-2322290D01*
G01X1829590Y-2322290D02*
G01X1829590Y-2341810D01*
G01X1829590Y-2341810D02*
G01X1810070Y-2341810D01*
G01X1814940Y-2341810D02*
G01X1814940Y-2322290D01*
G01X1819810Y-2322290D02*
G01X1819810Y-2341810D01*
G01X1824680Y-2341810D02*
G01X1824680Y-2322290D01*
G01X1829550Y-2322290D02*
G01X1829550Y-2341810D01*
G01X1810070Y-2306370D02*
G01X1810070Y-2286850D01*
G01X1810070Y-2286850D02*
G01X1829590Y-2286850D01*
G01X1829590Y-2286850D02*
G01X1829590Y-2306370D01*
G01X1829590Y-2306370D02*
G01X1810070Y-2306370D01*
G01X1814940Y-2306370D02*
G01X1814940Y-2286850D01*
G01X1819810Y-2286850D02*
G01X1819810Y-2306370D01*
G01X1824680Y-2306370D02*
G01X1824680Y-2286850D01*
G01X1829550Y-2286850D02*
G01X1829550Y-2306370D01*
G01X1772570Y-2306370D02*
G01X1772570Y-2286850D01*
G01X1772570Y-2286850D02*
G01X1792090Y-2286850D01*
G01X1792090Y-2286850D02*
G01X1792090Y-2306370D01*
G01X1792090Y-2306370D02*
G01X1772570Y-2306370D01*
G01X1777440Y-2306370D02*
G01X1777440Y-2286850D01*
G01X1782310Y-2286850D02*
G01X1782310Y-2306370D01*
G01X1787180Y-2306370D02*
G01X1787180Y-2286850D01*
G01X1792050Y-2286850D02*
G01X1792050Y-2306370D01*
G01X1792090Y-2266810D02*
G01X1792090Y-2247290D01*
G01X1792090Y-2266810D02*
G01X1772570Y-2266810D01*
G01X1772570Y-2266810D02*
G01X1772570Y-2247290D01*
G01X1772570Y-2247290D02*
G01X1792090Y-2247290D01*
G01X1777440Y-2247290D02*
G01X1777440Y-2266810D01*
G01X1782310Y-2266810D02*
G01X1782310Y-2247290D01*
G01X1787180Y-2247290D02*
G01X1787180Y-2266810D01*
G01X1792050Y-2266810D02*
G01X1792050Y-2247290D01*
G01X1792090Y-2231370D02*
G01X1792090Y-2211850D01*
G01X1792090Y-2231370D02*
G01X1772570Y-2231370D01*
G01X1772570Y-2231370D02*
G01X1772570Y-2211850D01*
G01X1772570Y-2211850D02*
G01X1792090Y-2211850D01*
G01X1777440Y-2211850D02*
G01X1777440Y-2231370D01*
G01X1782310Y-2231370D02*
G01X1782310Y-2211850D01*
G01X1787180Y-2211850D02*
G01X1787180Y-2231370D01*
G01X1792050Y-2231370D02*
G01X1792050Y-2211850D01*
G01X1829590Y-2211850D02*
G01X1829590Y-2231370D01*
G01X1829590Y-2231370D02*
G01X1810070Y-2231370D01*
G01X1810070Y-2231370D02*
G01X1810070Y-2211850D01*
G01X1810070Y-2211850D02*
G01X1829590Y-2211850D01*
G01X1814940Y-2211850D02*
G01X1814940Y-2231370D01*
G01X1819810Y-2231370D02*
G01X1819810Y-2211850D01*
G01X1824680Y-2211850D02*
G01X1824680Y-2231370D01*
G01X1829550Y-2231370D02*
G01X1829550Y-2211850D01*
G01X1829590Y-2247290D02*
G01X1829590Y-2266810D01*
G01X1829590Y-2266810D02*
G01X1810070Y-2266810D01*
G01X1810070Y-2266810D02*
G01X1810070Y-2247290D01*
G01X1810070Y-2247290D02*
G01X1829590Y-2247290D01*
G01X1814940Y-2247290D02*
G01X1814940Y-2266810D01*
G01X1819810Y-2266810D02*
G01X1819810Y-2247290D01*
G01X1824680Y-2247290D02*
G01X1824680Y-2266810D01*
G01X1829550Y-2266810D02*
G01X1829550Y-2247290D01*
G01X1729590Y-2247290D02*
G01X1729590Y-2266810D01*
G01X1729590Y-2266810D02*
G01X1710070Y-2266810D01*
G01X1710070Y-2266810D02*
G01X1710070Y-2247290D01*
G01X1710070Y-2247290D02*
G01X1729590Y-2247290D01*
G01X1714940Y-2247290D02*
G01X1714940Y-2266810D01*
G01X1719810Y-2266810D02*
G01X1719810Y-2247290D01*
G01X1724680Y-2247290D02*
G01X1724680Y-2266810D01*
G01X1729550Y-2266810D02*
G01X1729550Y-2247290D01*
G01X1729590Y-2231370D02*
G01X1729590Y-2211850D01*
G01X1729590Y-2231370D02*
G01X1710070Y-2231370D01*
G01X1710070Y-2231370D02*
G01X1710070Y-2211850D01*
G01X1710070Y-2211850D02*
G01X1729590Y-2211850D01*
G01X1714940Y-2211850D02*
G01X1714940Y-2231370D01*
G01X1719810Y-2231370D02*
G01X1719810Y-2211850D01*
G01X1724680Y-2211850D02*
G01X1724680Y-2231370D01*
G01X1729550Y-2231370D02*
G01X1729550Y-2211850D01*
G01X1692090Y-2211850D02*
G01X1692090Y-2231370D01*
G01X1692090Y-2231370D02*
G01X1672570Y-2231370D01*
G01X1672570Y-2231370D02*
G01X1672570Y-2211850D01*
G01X1672570Y-2211850D02*
G01X1692090Y-2211850D01*
G01X1677440Y-2211850D02*
G01X1677440Y-2231370D01*
G01X1682310Y-2231370D02*
G01X1682310Y-2211850D01*
G01X1687180Y-2211850D02*
G01X1687180Y-2231370D01*
G01X1692050Y-2231370D02*
G01X1692050Y-2211850D01*
G01X1692090Y-2247290D02*
G01X1692090Y-2266810D01*
G01X1692090Y-2266810D02*
G01X1672570Y-2266810D01*
G01X1672570Y-2266810D02*
G01X1672570Y-2247290D01*
G01X1672570Y-2247290D02*
G01X1692090Y-2247290D01*
G01X1677440Y-2247290D02*
G01X1677440Y-2266810D01*
G01X1682310Y-2266810D02*
G01X1682310Y-2247290D01*
G01X1687180Y-2247290D02*
G01X1687180Y-2266810D01*
G01X1692050Y-2266810D02*
G01X1692050Y-2247290D01*
G01X1422570Y-1916810D02*
G01X1422570Y-1897290D01*
G01X1422570Y-1897290D02*
G01X1442090Y-1897290D01*
G01X1442090Y-1897290D02*
G01X1442090Y-1916810D01*
G01X1442090Y-1916810D02*
G01X1422570Y-1916810D01*
G01X1427440Y-1916810D02*
G01X1427440Y-1897290D01*
G01X1432310Y-1897290D02*
G01X1432310Y-1916810D01*
G01X1437180Y-1916810D02*
G01X1437180Y-1897290D01*
G01X1442050Y-1897290D02*
G01X1442050Y-1916810D01*
G01X1422570Y-1881370D02*
G01X1422570Y-1861850D01*
G01X1422570Y-1861850D02*
G01X1442090Y-1861850D01*
G01X1442090Y-1861850D02*
G01X1442090Y-1881370D01*
G01X1442090Y-1881370D02*
G01X1422570Y-1881370D01*
G01X1427440Y-1881370D02*
G01X1427440Y-1861850D01*
G01X1432310Y-1861850D02*
G01X1432310Y-1881370D01*
G01X1437180Y-1881370D02*
G01X1437180Y-1861850D01*
G01X1442050Y-1861850D02*
G01X1442050Y-1881370D01*
G01X1479850Y-1542070D02*
G01X1499370Y-1542070D01*
G01X1499370Y-1542070D02*
G01X1499370Y-1561590D01*
G01X1499370Y-1561590D02*
G01X1479850Y-1561590D01*
G01X1479850Y-1561590D02*
G01X1479850Y-1542070D01*
G01X1484720Y-1542070D02*
G01X1484720Y-1561590D01*
G01X1489590Y-1561590D02*
G01X1489590Y-1542070D01*
G01X1494460Y-1542070D02*
G01X1494460Y-1561590D01*
G01X1499330Y-1561590D02*
G01X1499330Y-1542070D01*
G01X1515290Y-1542070D02*
G01X1534810Y-1542070D01*
G01X1534810Y-1542070D02*
G01X1534810Y-1561590D01*
G01X1534810Y-1561590D02*
G01X1515290Y-1561590D01*
G01X1515290Y-1561590D02*
G01X1515290Y-1542070D01*
G01X1520160Y-1542070D02*
G01X1520160Y-1561590D01*
G01X1525030Y-1561590D02*
G01X1525030Y-1542070D01*
G01X1529900Y-1542070D02*
G01X1529900Y-1561590D01*
G01X1534770Y-1561590D02*
G01X1534770Y-1542070D01*
G01X1534810Y-1504570D02*
G01X1515290Y-1504570D01*
G01X1534810Y-1504570D02*
G01X1534810Y-1524090D01*
G01X1534810Y-1524090D02*
G01X1515290Y-1524090D01*
G01X1515290Y-1524090D02*
G01X1515290Y-1504570D01*
G01X1520160Y-1504570D02*
G01X1520160Y-1524090D01*
G01X1525030Y-1524090D02*
G01X1525030Y-1504570D01*
G01X1529900Y-1504570D02*
G01X1529900Y-1524090D01*
G01X1534770Y-1524090D02*
G01X1534770Y-1504570D01*
G01X1534810Y-1467070D02*
G01X1515290Y-1467070D01*
G01X1534810Y-1467070D02*
G01X1534810Y-1486590D01*
G01X1534810Y-1486590D02*
G01X1515290Y-1486590D01*
G01X1515290Y-1486590D02*
G01X1515290Y-1467070D01*
G01X1520160Y-1467070D02*
G01X1520160Y-1486590D01*
G01X1525030Y-1486590D02*
G01X1525030Y-1467070D01*
G01X1529900Y-1467070D02*
G01X1529900Y-1486590D01*
G01X1534770Y-1486590D02*
G01X1534770Y-1467070D01*
G01X1534810Y-1449090D02*
G01X1515290Y-1449090D01*
G01X1515290Y-1449090D02*
G01X1515290Y-1429570D01*
G01X1515290Y-1429570D02*
G01X1534810Y-1429570D01*
G01X1534810Y-1429570D02*
G01X1534810Y-1449090D01*
G01X1520160Y-1449090D02*
G01X1520160Y-1429570D01*
G01X1525030Y-1429570D02*
G01X1525030Y-1449090D01*
G01X1529900Y-1449090D02*
G01X1529900Y-1429570D01*
G01X1534770Y-1429570D02*
G01X1534770Y-1449090D01*
G01X1499370Y-1449090D02*
G01X1479850Y-1449090D01*
G01X1479850Y-1449090D02*
G01X1479850Y-1429570D01*
G01X1479850Y-1429570D02*
G01X1499370Y-1429570D01*
G01X1499370Y-1429570D02*
G01X1499370Y-1449090D01*
G01X1484720Y-1449090D02*
G01X1484720Y-1429570D01*
G01X1489590Y-1429570D02*
G01X1489590Y-1449090D01*
G01X1494460Y-1449090D02*
G01X1494460Y-1429570D01*
G01X1499330Y-1429570D02*
G01X1499330Y-1449090D01*
G01X1499370Y-1467070D02*
G01X1479850Y-1467070D01*
G01X1499370Y-1467070D02*
G01X1499370Y-1486590D01*
G01X1499370Y-1486590D02*
G01X1479850Y-1486590D01*
G01X1479850Y-1486590D02*
G01X1479850Y-1467070D01*
G01X1484720Y-1467070D02*
G01X1484720Y-1486590D01*
G01X1489590Y-1486590D02*
G01X1489590Y-1467070D01*
G01X1494460Y-1467070D02*
G01X1494460Y-1486590D01*
G01X1499330Y-1486590D02*
G01X1499330Y-1467070D01*
G01X1499370Y-1504570D02*
G01X1479850Y-1504570D01*
G01X1499370Y-1504570D02*
G01X1499370Y-1524090D01*
G01X1499370Y-1524090D02*
G01X1479850Y-1524090D01*
G01X1479850Y-1524090D02*
G01X1479850Y-1504570D01*
G01X1484720Y-1504570D02*
G01X1484720Y-1524090D01*
G01X1489590Y-1524090D02*
G01X1489590Y-1504570D01*
G01X1494460Y-1504570D02*
G01X1494460Y-1524090D01*
G01X1499330Y-1524090D02*
G01X1499330Y-1504570D01*
G01X1567350Y-1524090D02*
G01X1586870Y-1524090D01*
G01X1567350Y-1524090D02*
G01X1567350Y-1504570D01*
G01X1567350Y-1504570D02*
G01X1586870Y-1504570D01*
G01X1586870Y-1504570D02*
G01X1586870Y-1524090D01*
G01X1572220Y-1524090D02*
G01X1572220Y-1504570D01*
G01X1577090Y-1504570D02*
G01X1577090Y-1524090D01*
G01X1581960Y-1524090D02*
G01X1581960Y-1504570D01*
G01X1586830Y-1504570D02*
G01X1586830Y-1524090D01*
G01X1602790Y-1524090D02*
G01X1622310Y-1524090D01*
G01X1602790Y-1524090D02*
G01X1602790Y-1504570D01*
G01X1602790Y-1504570D02*
G01X1622310Y-1504570D01*
G01X1622310Y-1504570D02*
G01X1622310Y-1524090D01*
G01X1607660Y-1524090D02*
G01X1607660Y-1504570D01*
G01X1612530Y-1504570D02*
G01X1612530Y-1524090D01*
G01X1617400Y-1524090D02*
G01X1617400Y-1504570D01*
G01X1622270Y-1504570D02*
G01X1622270Y-1524090D01*
G01X1622310Y-1561590D02*
G01X1602790Y-1561590D01*
G01X1602790Y-1561590D02*
G01X1602790Y-1542070D01*
G01X1602790Y-1542070D02*
G01X1622310Y-1542070D01*
G01X1622310Y-1542070D02*
G01X1622310Y-1561590D01*
G01X1607660Y-1561590D02*
G01X1607660Y-1542070D01*
G01X1612530Y-1542070D02*
G01X1612530Y-1561590D01*
G01X1617400Y-1561590D02*
G01X1617400Y-1542070D01*
G01X1622270Y-1542070D02*
G01X1622270Y-1561590D01*
G01X1586870Y-1561590D02*
G01X1567350Y-1561590D01*
G01X1567350Y-1561590D02*
G01X1567350Y-1542070D01*
G01X1567350Y-1542070D02*
G01X1586870Y-1542070D01*
G01X1586870Y-1542070D02*
G01X1586870Y-1561590D01*
G01X1572220Y-1561590D02*
G01X1572220Y-1542070D01*
G01X1577090Y-1542070D02*
G01X1577090Y-1561590D01*
G01X1581960Y-1561590D02*
G01X1581960Y-1542070D01*
G01X1586830Y-1542070D02*
G01X1586830Y-1561590D01*
G01X1417090Y-1321810D02*
G01X1417090Y-1302290D01*
G01X1417090Y-1321810D02*
G01X1397570Y-1321810D01*
G01X1397570Y-1321810D02*
G01X1397570Y-1302290D01*
G01X1397570Y-1302290D02*
G01X1417090Y-1302290D01*
G01X1402440Y-1302290D02*
G01X1402440Y-1321810D01*
G01X1407310Y-1321810D02*
G01X1407310Y-1302290D01*
G01X1412180Y-1302290D02*
G01X1412180Y-1321810D01*
G01X1417050Y-1321810D02*
G01X1417050Y-1302290D01*
G01X1417090Y-1286370D02*
G01X1417090Y-1266850D01*
G01X1417090Y-1286370D02*
G01X1397570Y-1286370D01*
G01X1397570Y-1286370D02*
G01X1397570Y-1266850D01*
G01X1397570Y-1266850D02*
G01X1417090Y-1266850D01*
G01X1402440Y-1266850D02*
G01X1402440Y-1286370D01*
G01X1407310Y-1286370D02*
G01X1407310Y-1266850D01*
G01X1412180Y-1266850D02*
G01X1412180Y-1286370D01*
G01X1417050Y-1286370D02*
G01X1417050Y-1266850D01*
G01X1217310Y-1267070D02*
G01X1197790Y-1267070D01*
G01X1217310Y-1267070D02*
G01X1217310Y-1286590D01*
G01X1217310Y-1286590D02*
G01X1197790Y-1286590D01*
G01X1197790Y-1286590D02*
G01X1197790Y-1267070D01*
G01X1202660Y-1267070D02*
G01X1202660Y-1286590D01*
G01X1207530Y-1286590D02*
G01X1207530Y-1267070D01*
G01X1212400Y-1267070D02*
G01X1212400Y-1286590D01*
G01X1217270Y-1286590D02*
G01X1217270Y-1267070D01*
G01X1217310Y-1229570D02*
G01X1197790Y-1229570D01*
G01X1217310Y-1229570D02*
G01X1217310Y-1249090D01*
G01X1217310Y-1249090D02*
G01X1197790Y-1249090D01*
G01X1197790Y-1249090D02*
G01X1197790Y-1229570D01*
G01X1202660Y-1229570D02*
G01X1202660Y-1249090D01*
G01X1207530Y-1249090D02*
G01X1207530Y-1229570D01*
G01X1212400Y-1229570D02*
G01X1212400Y-1249090D01*
G01X1217270Y-1249090D02*
G01X1217270Y-1229570D01*
G01X1181870Y-1229570D02*
G01X1162350Y-1229570D01*
G01X1181870Y-1229570D02*
G01X1181870Y-1249090D01*
G01X1181870Y-1249090D02*
G01X1162350Y-1249090D01*
G01X1162350Y-1249090D02*
G01X1162350Y-1229570D01*
G01X1167220Y-1229570D02*
G01X1167220Y-1249090D01*
G01X1172090Y-1249090D02*
G01X1172090Y-1229570D01*
G01X1176960Y-1229570D02*
G01X1176960Y-1249090D01*
G01X1181830Y-1249090D02*
G01X1181830Y-1229570D01*
G01X1181870Y-1267070D02*
G01X1162350Y-1267070D01*
G01X1181870Y-1267070D02*
G01X1181870Y-1286590D01*
G01X1181870Y-1286590D02*
G01X1162350Y-1286590D01*
G01X1162350Y-1286590D02*
G01X1162350Y-1267070D01*
G01X1167220Y-1267070D02*
G01X1167220Y-1286590D01*
G01X1172090Y-1286590D02*
G01X1172090Y-1267070D01*
G01X1176960Y-1267070D02*
G01X1176960Y-1286590D01*
G01X1181830Y-1286590D02*
G01X1181830Y-1267070D01*
G01X0897310Y-1079570D02*
G01X0877790Y-1079570D01*
G01X0897310Y-1079570D02*
G01X0897310Y-1099090D01*
G01X0897310Y-1099090D02*
G01X0877790Y-1099090D01*
G01X0877790Y-1099090D02*
G01X0877790Y-1079570D01*
G01X0882660Y-1079570D02*
G01X0882660Y-1099090D01*
G01X0887530Y-1099090D02*
G01X0887530Y-1079570D01*
G01X0892400Y-1079570D02*
G01X0892400Y-1099090D01*
G01X0897270Y-1099090D02*
G01X0897270Y-1079570D01*
G01X0861870Y-1079570D02*
G01X0842350Y-1079570D01*
G01X0861870Y-1079570D02*
G01X0861870Y-1099090D01*
G01X0861870Y-1099090D02*
G01X0842350Y-1099090D01*
G01X0842350Y-1099090D02*
G01X0842350Y-1079570D01*
G01X0847220Y-1079570D02*
G01X0847220Y-1099090D01*
G01X0852090Y-1099090D02*
G01X0852090Y-1079570D01*
G01X0856960Y-1079570D02*
G01X0856960Y-1099090D01*
G01X0861830Y-1099090D02*
G01X0861830Y-1079570D01*
G01X0998750Y-866810D02*
G01X0998750Y-847290D01*
G01X0998750Y-847290D02*
G01X1018270Y-847290D01*
G01X1018270Y-847290D02*
G01X1018270Y-866810D01*
G01X1018270Y-866810D02*
G01X0998750Y-866810D01*
G01X1003620Y-866810D02*
G01X1003620Y-847290D01*
G01X1008490Y-847290D02*
G01X1008490Y-866810D01*
G01X1013360Y-866810D02*
G01X1013360Y-847290D01*
G01X1018230Y-847290D02*
G01X1018230Y-866810D01*
G01X1042060Y-866810D02*
G01X1042060Y-847290D01*
G01X1042060Y-847290D02*
G01X1061580Y-847290D01*
G01X1061580Y-847290D02*
G01X1061580Y-866810D01*
G01X1061580Y-866810D02*
G01X1042060Y-866810D01*
G01X1046930Y-866810D02*
G01X1046930Y-847290D01*
G01X1051800Y-847290D02*
G01X1051800Y-866810D01*
G01X1056670Y-866810D02*
G01X1056670Y-847290D01*
G01X1061540Y-847290D02*
G01X1061540Y-866810D01*
G01X1085370Y-866810D02*
G01X1085370Y-847290D01*
G01X1085370Y-847290D02*
G01X1104890Y-847290D01*
G01X1104890Y-847290D02*
G01X1104890Y-866810D01*
G01X1104890Y-866810D02*
G01X1085370Y-866810D01*
G01X1090240Y-866810D02*
G01X1090240Y-847290D01*
G01X1095110Y-847290D02*
G01X1095110Y-866810D01*
G01X1099980Y-866810D02*
G01X1099980Y-847290D01*
G01X1104850Y-847290D02*
G01X1104850Y-866810D01*
G01X1085370Y-831370D02*
G01X1085370Y-811850D01*
G01X1085370Y-811850D02*
G01X1104890Y-811850D01*
G01X1104890Y-811850D02*
G01X1104890Y-831370D01*
G01X1104890Y-831370D02*
G01X1085370Y-831370D01*
G01X1090240Y-831370D02*
G01X1090240Y-811850D01*
G01X1095110Y-811850D02*
G01X1095110Y-831370D01*
G01X1099980Y-831370D02*
G01X1099980Y-811850D01*
G01X1104850Y-811850D02*
G01X1104850Y-831370D01*
G01X1042060Y-831370D02*
G01X1042060Y-811850D01*
G01X1042060Y-811850D02*
G01X1061580Y-811850D01*
G01X1061580Y-811850D02*
G01X1061580Y-831370D01*
G01X1061580Y-831370D02*
G01X1042060Y-831370D01*
G01X1046930Y-831370D02*
G01X1046930Y-811850D01*
G01X1051800Y-811850D02*
G01X1051800Y-831370D01*
G01X1056670Y-831370D02*
G01X1056670Y-811850D01*
G01X1061540Y-811850D02*
G01X1061540Y-831370D01*
G01X0998750Y-831370D02*
G01X0998750Y-811850D01*
G01X0998750Y-811850D02*
G01X1018270Y-811850D01*
G01X1018270Y-811850D02*
G01X1018270Y-831370D01*
G01X1018270Y-831370D02*
G01X0998750Y-831370D01*
G01X1003620Y-831370D02*
G01X1003620Y-811850D01*
G01X1008490Y-811850D02*
G01X1008490Y-831370D01*
G01X1013360Y-831370D02*
G01X1013360Y-811850D01*
G01X1018230Y-811850D02*
G01X1018230Y-831370D01*
G01X1171980Y-831370D02*
G01X1171980Y-811850D01*
G01X1171980Y-811850D02*
G01X1191500Y-811850D01*
G01X1191500Y-811850D02*
G01X1191500Y-831370D01*
G01X1191500Y-831370D02*
G01X1171980Y-831370D01*
G01X1176850Y-831370D02*
G01X1176850Y-811850D01*
G01X1181720Y-811850D02*
G01X1181720Y-831370D01*
G01X1186590Y-831370D02*
G01X1186590Y-811850D01*
G01X1191460Y-811850D02*
G01X1191460Y-831370D01*
G01X1171980Y-847290D02*
G01X1171980Y-866810D01*
G01X1171980Y-847290D02*
G01X1191500Y-847290D01*
G01X1191500Y-847290D02*
G01X1191500Y-866810D01*
G01X1191500Y-866810D02*
G01X1171980Y-866810D01*
G01X1176850Y-866810D02*
G01X1176850Y-847290D01*
G01X1181720Y-847290D02*
G01X1181720Y-866810D01*
G01X1186590Y-866810D02*
G01X1186590Y-847290D01*
G01X1191460Y-847290D02*
G01X1191460Y-866810D01*
G01X1215290Y-866810D02*
G01X1215290Y-847290D01*
G01X1215290Y-847290D02*
G01X1234810Y-847290D01*
G01X1234810Y-847290D02*
G01X1234810Y-866810D01*
G01X1234810Y-866810D02*
G01X1215290Y-866810D01*
G01X1220160Y-866810D02*
G01X1220160Y-847290D01*
G01X1225030Y-847290D02*
G01X1225030Y-866810D01*
G01X1229900Y-866810D02*
G01X1229900Y-847290D01*
G01X1234770Y-847290D02*
G01X1234770Y-866810D01*
G01X1215290Y-831370D02*
G01X1215290Y-811850D01*
G01X1215290Y-811850D02*
G01X1234810Y-811850D01*
G01X1234810Y-811850D02*
G01X1234810Y-831370D01*
G01X1234810Y-831370D02*
G01X1215290Y-831370D01*
G01X1220160Y-831370D02*
G01X1220160Y-811850D01*
G01X1225030Y-811850D02*
G01X1225030Y-831370D01*
G01X1229900Y-831370D02*
G01X1229900Y-811850D01*
G01X1234770Y-811850D02*
G01X1234770Y-831370D01*
G01X1301900Y-831370D02*
G01X1301900Y-811850D01*
G01X1301900Y-811850D02*
G01X1321420Y-811850D01*
G01X1321420Y-811850D02*
G01X1321420Y-831370D01*
G01X1321420Y-831370D02*
G01X1301900Y-831370D01*
G01X1306770Y-831370D02*
G01X1306770Y-811850D01*
G01X1311640Y-811850D02*
G01X1311640Y-831370D01*
G01X1316510Y-831370D02*
G01X1316510Y-811850D01*
G01X1321380Y-811850D02*
G01X1321380Y-831370D01*
G01X1301900Y-847290D02*
G01X1301900Y-866810D01*
G01X1301900Y-847290D02*
G01X1321420Y-847290D01*
G01X1321420Y-847290D02*
G01X1321420Y-866810D01*
G01X1321420Y-866810D02*
G01X1301900Y-866810D01*
G01X1306770Y-866810D02*
G01X1306770Y-847290D01*
G01X1311640Y-847290D02*
G01X1311640Y-866810D01*
G01X1316510Y-866810D02*
G01X1316510Y-847290D01*
G01X1321380Y-847290D02*
G01X1321380Y-866810D01*
G01X1392090Y-766810D02*
G01X1392090Y-747290D01*
G01X1392090Y-766810D02*
G01X1372570Y-766810D01*
G01X1372570Y-766810D02*
G01X1372570Y-747290D01*
G01X1372570Y-747290D02*
G01X1392090Y-747290D01*
G01X1377440Y-747290D02*
G01X1377440Y-766810D01*
G01X1382310Y-766810D02*
G01X1382310Y-747290D01*
G01X1387180Y-747290D02*
G01X1387180Y-766810D01*
G01X1392050Y-766810D02*
G01X1392050Y-747290D01*
G01X1392090Y-731370D02*
G01X1392090Y-711850D01*
G01X1392090Y-731370D02*
G01X1372570Y-731370D01*
G01X1372570Y-731370D02*
G01X1372570Y-711850D01*
G01X1372570Y-711850D02*
G01X1392090Y-711850D01*
G01X1377440Y-711850D02*
G01X1377440Y-731370D01*
G01X1382310Y-731370D02*
G01X1382310Y-711850D01*
G01X1387180Y-711850D02*
G01X1387180Y-731370D01*
G01X1392050Y-731370D02*
G01X1392050Y-711850D01*
G01X1735070Y-1211850D02*
G01X1735070Y-1231370D01*
G01X1735070Y-1211850D02*
G01X1754590Y-1211850D01*
G01X1754590Y-1211850D02*
G01X1754590Y-1231370D01*
G01X1754590Y-1231370D02*
G01X1735070Y-1231370D01*
G01X1739940Y-1231370D02*
G01X1739940Y-1211850D01*
G01X1744810Y-1211850D02*
G01X1744810Y-1231370D01*
G01X1749680Y-1231370D02*
G01X1749680Y-1211850D01*
G01X1754550Y-1211850D02*
G01X1754550Y-1231370D01*
G01X1735070Y-1247290D02*
G01X1735070Y-1266810D01*
G01X1735070Y-1247290D02*
G01X1754590Y-1247290D01*
G01X1754590Y-1247290D02*
G01X1754590Y-1266810D01*
G01X1754590Y-1266810D02*
G01X1735070Y-1266810D01*
G01X1739940Y-1266810D02*
G01X1739940Y-1247290D01*
G01X1744810Y-1247290D02*
G01X1744810Y-1266810D01*
G01X1749680Y-1266810D02*
G01X1749680Y-1247290D01*
G01X1754550Y-1247290D02*
G01X1754550Y-1266810D01*
G01X1897570Y-1411850D02*
G01X1897570Y-1431370D01*
G01X1897570Y-1411850D02*
G01X1917090Y-1411850D01*
G01X1917090Y-1411850D02*
G01X1917090Y-1431370D01*
G01X1917090Y-1431370D02*
G01X1897570Y-1431370D01*
G01X1902440Y-1431370D02*
G01X1902440Y-1411850D01*
G01X1907310Y-1411850D02*
G01X1907310Y-1431370D01*
G01X1912180Y-1431370D02*
G01X1912180Y-1411850D01*
G01X1917050Y-1411850D02*
G01X1917050Y-1431370D01*
G01X1897570Y-1447290D02*
G01X1897570Y-1466810D01*
G01X1897570Y-1447290D02*
G01X1917090Y-1447290D01*
G01X1917090Y-1447290D02*
G01X1917090Y-1466810D01*
G01X1917090Y-1466810D02*
G01X1897570Y-1466810D01*
G01X1902440Y-1466810D02*
G01X1902440Y-1447290D01*
G01X1907310Y-1447290D02*
G01X1907310Y-1466810D01*
G01X1912180Y-1466810D02*
G01X1912180Y-1447290D01*
G01X1917050Y-1447290D02*
G01X1917050Y-1466810D01*
G01X1954590Y-1466810D02*
G01X1954590Y-1447290D01*
G01X1954590Y-1466810D02*
G01X1935070Y-1466810D01*
G01X1935070Y-1466810D02*
G01X1935070Y-1447290D01*
G01X1935070Y-1447290D02*
G01X1954590Y-1447290D01*
G01X1939940Y-1447290D02*
G01X1939940Y-1466810D01*
G01X1944810Y-1466810D02*
G01X1944810Y-1447290D01*
G01X1949680Y-1447290D02*
G01X1949680Y-1466810D01*
G01X1954550Y-1466810D02*
G01X1954550Y-1447290D01*
G01X1954590Y-1431370D02*
G01X1954590Y-1411850D01*
G01X1954590Y-1431370D02*
G01X1935070Y-1431370D01*
G01X1935070Y-1431370D02*
G01X1935070Y-1411850D01*
G01X1935070Y-1411850D02*
G01X1954590Y-1411850D01*
G01X1939940Y-1411850D02*
G01X1939940Y-1431370D01*
G01X1944810Y-1431370D02*
G01X1944810Y-1411850D01*
G01X1949680Y-1411850D02*
G01X1949680Y-1431370D01*
G01X1954550Y-1431370D02*
G01X1954550Y-1411850D01*
G01X2117090Y-1416810D02*
G01X2117090Y-1397290D01*
G01X2117090Y-1416810D02*
G01X2097570Y-1416810D01*
G01X2097570Y-1416810D02*
G01X2097570Y-1397290D01*
G01X2097570Y-1397290D02*
G01X2117090Y-1397290D01*
G01X2102440Y-1397290D02*
G01X2102440Y-1416810D01*
G01X2107310Y-1416810D02*
G01X2107310Y-1397290D01*
G01X2112180Y-1397290D02*
G01X2112180Y-1416810D01*
G01X2117050Y-1416810D02*
G01X2117050Y-1397290D01*
G01X2117090Y-1381370D02*
G01X2117090Y-1361850D01*
G01X2117090Y-1381370D02*
G01X2097570Y-1381370D01*
G01X2097570Y-1381370D02*
G01X2097570Y-1361850D01*
G01X2097570Y-1361850D02*
G01X2117090Y-1361850D01*
G01X2102440Y-1361850D02*
G01X2102440Y-1381370D01*
G01X2107310Y-1381370D02*
G01X2107310Y-1361850D01*
G01X2112180Y-1361850D02*
G01X2112180Y-1381370D01*
G01X2117050Y-1381370D02*
G01X2117050Y-1361850D01*
G01X2217350Y-1304570D02*
G01X2236870Y-1304570D01*
G01X2236870Y-1304570D02*
G01X2236870Y-1324090D01*
G01X2236870Y-1324090D02*
G01X2217350Y-1324090D01*
G01X2217350Y-1324090D02*
G01X2217350Y-1304570D01*
G01X2222220Y-1304570D02*
G01X2222220Y-1324090D01*
G01X2227090Y-1324090D02*
G01X2227090Y-1304570D01*
G01X2231960Y-1304570D02*
G01X2231960Y-1324090D01*
G01X2236830Y-1324090D02*
G01X2236830Y-1304570D01*
G01X2252790Y-1304570D02*
G01X2272310Y-1304570D01*
G01X2272310Y-1304570D02*
G01X2272310Y-1324090D01*
G01X2272310Y-1324090D02*
G01X2252790Y-1324090D01*
G01X2252790Y-1324090D02*
G01X2252790Y-1304570D01*
G01X2257660Y-1304570D02*
G01X2257660Y-1324090D01*
G01X2262530Y-1324090D02*
G01X2262530Y-1304570D01*
G01X2267400Y-1304570D02*
G01X2267400Y-1324090D01*
G01X2272270Y-1324090D02*
G01X2272270Y-1304570D01*
G01X2272310Y-1404570D02*
G01X2252790Y-1404570D01*
G01X2272310Y-1404570D02*
G01X2272310Y-1424090D01*
G01X2272310Y-1424090D02*
G01X2252790Y-1424090D01*
G01X2252790Y-1424090D02*
G01X2252790Y-1404570D01*
G01X2257660Y-1404570D02*
G01X2257660Y-1424090D01*
G01X2262530Y-1424090D02*
G01X2262530Y-1404570D01*
G01X2267400Y-1404570D02*
G01X2267400Y-1424090D01*
G01X2272270Y-1424090D02*
G01X2272270Y-1404570D01*
G01X2236870Y-1404570D02*
G01X2217350Y-1404570D01*
G01X2236870Y-1404570D02*
G01X2236870Y-1424090D01*
G01X2236870Y-1424090D02*
G01X2217350Y-1424090D01*
G01X2217350Y-1424090D02*
G01X2217350Y-1404570D01*
G01X2222220Y-1404570D02*
G01X2222220Y-1424090D01*
G01X2227090Y-1424090D02*
G01X2227090Y-1404570D01*
G01X2231960Y-1404570D02*
G01X2231960Y-1424090D01*
G01X2236830Y-1424090D02*
G01X2236830Y-1404570D01*
G01X2392350Y-1404570D02*
G01X2411870Y-1404570D01*
G01X2411870Y-1404570D02*
G01X2411870Y-1424090D01*
G01X2411870Y-1424090D02*
G01X2392350Y-1424090D01*
G01X2392350Y-1424090D02*
G01X2392350Y-1404570D01*
G01X2397220Y-1404570D02*
G01X2397220Y-1424090D01*
G01X2402090Y-1424090D02*
G01X2402090Y-1404570D01*
G01X2406960Y-1404570D02*
G01X2406960Y-1424090D01*
G01X2411830Y-1424090D02*
G01X2411830Y-1404570D01*
G01X2427790Y-1404570D02*
G01X2447310Y-1404570D01*
G01X2447310Y-1404570D02*
G01X2447310Y-1424090D01*
G01X2447310Y-1424090D02*
G01X2427790Y-1424090D01*
G01X2427790Y-1424090D02*
G01X2427790Y-1404570D01*
G01X2432660Y-1404570D02*
G01X2432660Y-1424090D01*
G01X2437530Y-1424090D02*
G01X2437530Y-1404570D01*
G01X2442400Y-1404570D02*
G01X2442400Y-1424090D01*
G01X2447270Y-1424090D02*
G01X2447270Y-1404570D01*
G01X2447310Y-1304570D02*
G01X2427790Y-1304570D01*
G01X2447310Y-1304570D02*
G01X2447310Y-1324090D01*
G01X2447310Y-1324090D02*
G01X2427790Y-1324090D01*
G01X2427790Y-1324090D02*
G01X2427790Y-1304570D01*
G01X2432660Y-1304570D02*
G01X2432660Y-1324090D01*
G01X2437530Y-1324090D02*
G01X2437530Y-1304570D01*
G01X2442400Y-1304570D02*
G01X2442400Y-1324090D01*
G01X2447270Y-1324090D02*
G01X2447270Y-1304570D01*
G01X2411870Y-1304570D02*
G01X2392350Y-1304570D01*
G01X2411870Y-1304570D02*
G01X2411870Y-1324090D01*
G01X2411870Y-1324090D02*
G01X2392350Y-1324090D01*
G01X2392350Y-1324090D02*
G01X2392350Y-1304570D01*
G01X2397220Y-1304570D02*
G01X2397220Y-1324090D01*
G01X2402090Y-1324090D02*
G01X2402090Y-1304570D01*
G01X2406960Y-1304570D02*
G01X2406960Y-1324090D01*
G01X2411830Y-1324090D02*
G01X2411830Y-1304570D01*
G01X2272310Y-1142070D02*
G01X2252790Y-1142070D01*
G01X2272310Y-1142070D02*
G01X2272310Y-1161590D01*
G01X2272310Y-1161590D02*
G01X2252790Y-1161590D01*
G01X2252790Y-1161590D02*
G01X2252790Y-1142070D01*
G01X2257660Y-1142070D02*
G01X2257660Y-1161590D01*
G01X2262530Y-1161590D02*
G01X2262530Y-1142070D01*
G01X2267400Y-1142070D02*
G01X2267400Y-1161590D01*
G01X2272270Y-1161590D02*
G01X2272270Y-1142070D01*
G01X2272310Y-1104570D02*
G01X2252790Y-1104570D01*
G01X2272310Y-1104570D02*
G01X2272310Y-1124090D01*
G01X2272310Y-1124090D02*
G01X2252790Y-1124090D01*
G01X2252790Y-1124090D02*
G01X2252790Y-1104570D01*
G01X2257660Y-1104570D02*
G01X2257660Y-1124090D01*
G01X2262530Y-1124090D02*
G01X2262530Y-1104570D01*
G01X2267400Y-1104570D02*
G01X2267400Y-1124090D01*
G01X2272270Y-1124090D02*
G01X2272270Y-1104570D01*
G01X2236870Y-1104570D02*
G01X2217350Y-1104570D01*
G01X2236870Y-1104570D02*
G01X2236870Y-1124090D01*
G01X2236870Y-1124090D02*
G01X2217350Y-1124090D01*
G01X2217350Y-1124090D02*
G01X2217350Y-1104570D01*
G01X2222220Y-1104570D02*
G01X2222220Y-1124090D01*
G01X2227090Y-1124090D02*
G01X2227090Y-1104570D01*
G01X2231960Y-1104570D02*
G01X2231960Y-1124090D01*
G01X2236830Y-1124090D02*
G01X2236830Y-1104570D01*
G01X2236870Y-1142070D02*
G01X2217350Y-1142070D01*
G01X2236870Y-1142070D02*
G01X2236870Y-1161590D01*
G01X2236870Y-1161590D02*
G01X2217350Y-1161590D01*
G01X2217350Y-1161590D02*
G01X2217350Y-1142070D01*
G01X2222220Y-1142070D02*
G01X2222220Y-1161590D01*
G01X2227090Y-1161590D02*
G01X2227090Y-1142070D01*
G01X2231960Y-1142070D02*
G01X2231960Y-1161590D01*
G01X2236830Y-1161590D02*
G01X2236830Y-1142070D01*
G01X2159810Y-1104570D02*
G01X2140290Y-1104570D01*
G01X2159810Y-1104570D02*
G01X2159810Y-1124090D01*
G01X2159810Y-1124090D02*
G01X2140290Y-1124090D01*
G01X2140290Y-1124090D02*
G01X2140290Y-1104570D01*
G01X2145160Y-1104570D02*
G01X2145160Y-1124090D01*
G01X2150030Y-1124090D02*
G01X2150030Y-1104570D01*
G01X2154900Y-1104570D02*
G01X2154900Y-1124090D01*
G01X2159770Y-1124090D02*
G01X2159770Y-1104570D01*
G01X2124370Y-1104570D02*
G01X2104850Y-1104570D01*
G01X2124370Y-1104570D02*
G01X2124370Y-1124090D01*
G01X2124370Y-1124090D02*
G01X2104850Y-1124090D01*
G01X2104850Y-1124090D02*
G01X2104850Y-1104570D01*
G01X2109720Y-1104570D02*
G01X2109720Y-1124090D01*
G01X2114590Y-1124090D02*
G01X2114590Y-1104570D01*
G01X2119460Y-1104570D02*
G01X2119460Y-1124090D01*
G01X2124330Y-1124090D02*
G01X2124330Y-1104570D01*
G01X2117090Y-1066810D02*
G01X2117090Y-1047290D01*
G01X2117090Y-1066810D02*
G01X2097570Y-1066810D01*
G01X2097570Y-1066810D02*
G01X2097570Y-1047290D01*
G01X2097570Y-1047290D02*
G01X2117090Y-1047290D01*
G01X2102440Y-1047290D02*
G01X2102440Y-1066810D01*
G01X2107310Y-1066810D02*
G01X2107310Y-1047290D01*
G01X2112180Y-1047290D02*
G01X2112180Y-1066810D01*
G01X2117050Y-1066810D02*
G01X2117050Y-1047290D01*
G01X2117090Y-1031370D02*
G01X2117090Y-1011850D01*
G01X2117090Y-1031370D02*
G01X2097570Y-1031370D01*
G01X2097570Y-1031370D02*
G01X2097570Y-1011850D01*
G01X2097570Y-1011850D02*
G01X2117090Y-1011850D01*
G01X2102440Y-1011850D02*
G01X2102440Y-1031370D01*
G01X2107310Y-1031370D02*
G01X2107310Y-1011850D01*
G01X2112180Y-1011850D02*
G01X2112180Y-1031370D01*
G01X2117050Y-1031370D02*
G01X2117050Y-1011850D01*
G01X2167090Y-1011850D02*
G01X2167090Y-1031370D01*
G01X2167090Y-1031370D02*
G01X2147570Y-1031370D01*
G01X2147570Y-1031370D02*
G01X2147570Y-1011850D01*
G01X2147570Y-1011850D02*
G01X2167090Y-1011850D01*
G01X2152440Y-1011850D02*
G01X2152440Y-1031370D01*
G01X2157310Y-1031370D02*
G01X2157310Y-1011850D01*
G01X2162180Y-1011850D02*
G01X2162180Y-1031370D01*
G01X2167050Y-1031370D02*
G01X2167050Y-1011850D01*
G01X2167090Y-1047290D02*
G01X2167090Y-1066810D01*
G01X2167090Y-1066810D02*
G01X2147570Y-1066810D01*
G01X2147570Y-1066810D02*
G01X2147570Y-1047290D01*
G01X2147570Y-1047290D02*
G01X2167090Y-1047290D01*
G01X2152440Y-1047290D02*
G01X2152440Y-1066810D01*
G01X2157310Y-1066810D02*
G01X2157310Y-1047290D01*
G01X2162180Y-1047290D02*
G01X2162180Y-1066810D01*
G01X2167050Y-1066810D02*
G01X2167050Y-1047290D01*
G01X2217350Y-917070D02*
G01X2236870Y-917070D01*
G01X2236870Y-917070D02*
G01X2236870Y-936590D01*
G01X2236870Y-936590D02*
G01X2217350Y-936590D01*
G01X2217350Y-936590D02*
G01X2217350Y-917070D01*
G01X2222220Y-917070D02*
G01X2222220Y-936590D01*
G01X2227090Y-936590D02*
G01X2227090Y-917070D01*
G01X2231960Y-917070D02*
G01X2231960Y-936590D01*
G01X2236830Y-936590D02*
G01X2236830Y-917070D01*
G01X2252790Y-917070D02*
G01X2272310Y-917070D01*
G01X2272310Y-917070D02*
G01X2272310Y-936590D01*
G01X2272310Y-936590D02*
G01X2252790Y-936590D01*
G01X2252790Y-936590D02*
G01X2252790Y-917070D01*
G01X2257660Y-917070D02*
G01X2257660Y-936590D01*
G01X2262530Y-936590D02*
G01X2262530Y-917070D01*
G01X2267400Y-917070D02*
G01X2267400Y-936590D01*
G01X2272270Y-936590D02*
G01X2272270Y-917070D01*
G01X2072310Y-1192070D02*
G01X2052790Y-1192070D01*
G01X2072310Y-1192070D02*
G01X2072310Y-1211590D01*
G01X2072310Y-1211590D02*
G01X2052790Y-1211590D01*
G01X2052790Y-1211590D02*
G01X2052790Y-1192070D01*
G01X2057660Y-1192070D02*
G01X2057660Y-1211590D01*
G01X2062530Y-1211590D02*
G01X2062530Y-1192070D01*
G01X2067400Y-1192070D02*
G01X2067400Y-1211590D01*
G01X2072270Y-1211590D02*
G01X2072270Y-1192070D01*
G01X2036870Y-1192070D02*
G01X2017350Y-1192070D01*
G01X2036870Y-1192070D02*
G01X2036870Y-1211590D01*
G01X2036870Y-1211590D02*
G01X2017350Y-1211590D01*
G01X2017350Y-1211590D02*
G01X2017350Y-1192070D01*
G01X2022220Y-1192070D02*
G01X2022220Y-1211590D01*
G01X2027090Y-1211590D02*
G01X2027090Y-1192070D01*
G01X2031960Y-1192070D02*
G01X2031960Y-1211590D01*
G01X2036830Y-1211590D02*
G01X2036830Y-1192070D01*
G01X1984810Y-1192070D02*
G01X1965290Y-1192070D01*
G01X1984810Y-1192070D02*
G01X1984810Y-1211590D01*
G01X1984810Y-1211590D02*
G01X1965290Y-1211590D01*
G01X1965290Y-1211590D02*
G01X1965290Y-1192070D01*
G01X1970160Y-1192070D02*
G01X1970160Y-1211590D01*
G01X1975030Y-1211590D02*
G01X1975030Y-1192070D01*
G01X1979900Y-1192070D02*
G01X1979900Y-1211590D01*
G01X1984770Y-1211590D02*
G01X1984770Y-1192070D01*
G01X1949370Y-1192070D02*
G01X1929850Y-1192070D01*
G01X1949370Y-1192070D02*
G01X1949370Y-1211590D01*
G01X1949370Y-1211590D02*
G01X1929850Y-1211590D01*
G01X1929850Y-1211590D02*
G01X1929850Y-1192070D01*
G01X1934720Y-1192070D02*
G01X1934720Y-1211590D01*
G01X1939590Y-1211590D02*
G01X1939590Y-1192070D01*
G01X1944460Y-1192070D02*
G01X1944460Y-1211590D01*
G01X1949330Y-1211590D02*
G01X1949330Y-1192070D01*
G01X1922570Y-1016810D02*
G01X1922570Y-997290D01*
G01X1922570Y-997290D02*
G01X1942090Y-997290D01*
G01X1942090Y-997290D02*
G01X1942090Y-1016810D01*
G01X1942090Y-1016810D02*
G01X1922570Y-1016810D01*
G01X1927440Y-1016810D02*
G01X1927440Y-997290D01*
G01X1932310Y-997290D02*
G01X1932310Y-1016810D01*
G01X1937180Y-1016810D02*
G01X1937180Y-997290D01*
G01X1942050Y-997290D02*
G01X1942050Y-1016810D01*
G01X1972570Y-1016810D02*
G01X1972570Y-997290D01*
G01X1972570Y-997290D02*
G01X1992090Y-997290D01*
G01X1992090Y-997290D02*
G01X1992090Y-1016810D01*
G01X1992090Y-1016810D02*
G01X1972570Y-1016810D01*
G01X1977440Y-1016810D02*
G01X1977440Y-997290D01*
G01X1982310Y-997290D02*
G01X1982310Y-1016810D01*
G01X1987180Y-1016810D02*
G01X1987180Y-997290D01*
G01X1992050Y-997290D02*
G01X1992050Y-1016810D01*
G01X1972570Y-981370D02*
G01X1972570Y-961850D01*
G01X1972570Y-961850D02*
G01X1992090Y-961850D01*
G01X1992090Y-961850D02*
G01X1992090Y-981370D01*
G01X1992090Y-981370D02*
G01X1972570Y-981370D01*
G01X1977440Y-981370D02*
G01X1977440Y-961850D01*
G01X1982310Y-961850D02*
G01X1982310Y-981370D01*
G01X1987180Y-981370D02*
G01X1987180Y-961850D01*
G01X1992050Y-961850D02*
G01X1992050Y-981370D01*
G01X1922570Y-981370D02*
G01X1922570Y-961850D01*
G01X1922570Y-961850D02*
G01X1942090Y-961850D01*
G01X1942090Y-961850D02*
G01X1942090Y-981370D01*
G01X1942090Y-981370D02*
G01X1922570Y-981370D01*
G01X1927440Y-981370D02*
G01X1927440Y-961850D01*
G01X1932310Y-961850D02*
G01X1932310Y-981370D01*
G01X1937180Y-981370D02*
G01X1937180Y-961850D01*
G01X1942050Y-961850D02*
G01X1942050Y-981370D01*
G01X2179850Y-1942070D02*
G01X2199370Y-1942070D01*
G01X2199370Y-1942070D02*
G01X2199370Y-1961590D01*
G01X2199370Y-1961590D02*
G01X2179850Y-1961590D01*
G01X2179850Y-1961590D02*
G01X2179850Y-1942070D01*
G01X2184720Y-1942070D02*
G01X2184720Y-1961590D01*
G01X2189590Y-1961590D02*
G01X2189590Y-1942070D01*
G01X2194460Y-1942070D02*
G01X2194460Y-1961590D01*
G01X2199330Y-1961590D02*
G01X2199330Y-1942070D01*
G01X2215290Y-1942070D02*
G01X2234810Y-1942070D01*
G01X2234810Y-1942070D02*
G01X2234810Y-1961590D01*
G01X2234810Y-1961590D02*
G01X2215290Y-1961590D01*
G01X2215290Y-1961590D02*
G01X2215290Y-1942070D01*
G01X2220160Y-1942070D02*
G01X2220160Y-1961590D01*
G01X2225030Y-1961590D02*
G01X2225030Y-1942070D01*
G01X2229900Y-1942070D02*
G01X2229900Y-1961590D01*
G01X2234770Y-1961590D02*
G01X2234770Y-1942070D01*
G01X1384810Y-2486590D02*
G01X1365290Y-2486590D01*
G01X1365290Y-2486590D02*
G01X1365290Y-2467070D01*
G01X1365290Y-2467070D02*
G01X1384810Y-2467070D01*
G01X1384810Y-2467070D02*
G01X1384810Y-2486590D01*
G01X1370160Y-2486590D02*
G01X1370160Y-2467070D01*
G01X1375030Y-2467070D02*
G01X1375030Y-2486590D01*
G01X1379900Y-2486590D02*
G01X1379900Y-2467070D01*
G01X1384770Y-2467070D02*
G01X1384770Y-2486590D01*
G01X1349370Y-2486590D02*
G01X1329850Y-2486590D01*
G01X1329850Y-2486590D02*
G01X1329850Y-2467070D01*
G01X1329850Y-2467070D02*
G01X1349370Y-2467070D01*
G01X1349370Y-2467070D02*
G01X1349370Y-2486590D01*
G01X1334720Y-2486590D02*
G01X1334720Y-2467070D01*
G01X1339590Y-2467070D02*
G01X1339590Y-2486590D01*
G01X1344460Y-2486590D02*
G01X1344460Y-2467070D01*
G01X1349330Y-2467070D02*
G01X1349330Y-2486590D01*
G01X1349370Y-3236590D02*
G01X1329850Y-3236590D01*
G01X1329850Y-3236590D02*
G01X1329850Y-3217070D01*
G01X1329850Y-3217070D02*
G01X1349370Y-3217070D01*
G01X1349370Y-3217070D02*
G01X1349370Y-3236590D01*
G01X1334720Y-3236590D02*
G01X1334720Y-3217070D01*
G01X1339590Y-3217070D02*
G01X1339590Y-3236590D01*
G01X1344460Y-3236590D02*
G01X1344460Y-3217070D01*
G01X1349330Y-3217070D02*
G01X1349330Y-3236590D01*
G01X1365290Y-3236590D02*
G01X1384810Y-3236590D01*
G01X1365290Y-3236590D02*
G01X1365290Y-3217070D01*
G01X1365290Y-3217070D02*
G01X1384810Y-3217070D01*
G01X1384810Y-3217070D02*
G01X1384810Y-3236590D01*
G01X1370160Y-3236590D02*
G01X1370160Y-3217070D01*
G01X1375030Y-3217070D02*
G01X1375030Y-3236590D01*
G01X1379900Y-3236590D02*
G01X1379900Y-3217070D01*
G01X1384770Y-3217070D02*
G01X1384770Y-3236590D01*
G01X0880070Y-4136850D02*
G01X0880070Y-4156370D01*
G01X0880070Y-4136850D02*
G01X0899590Y-4136850D01*
G01X0899590Y-4136850D02*
G01X0899590Y-4156370D01*
G01X0899590Y-4156370D02*
G01X0880070Y-4156370D01*
G01X0884940Y-4156370D02*
G01X0884940Y-4136850D01*
G01X0889810Y-4136850D02*
G01X0889810Y-4156370D01*
G01X0894680Y-4156370D02*
G01X0894680Y-4136850D01*
G01X0899550Y-4136850D02*
G01X0899550Y-4156370D01*
G01X0880070Y-4172290D02*
G01X0880070Y-4191810D01*
G01X0880070Y-4172290D02*
G01X0899590Y-4172290D01*
G01X0899590Y-4172290D02*
G01X0899590Y-4191810D01*
G01X0899590Y-4191810D02*
G01X0880070Y-4191810D01*
G01X0884940Y-4191810D02*
G01X0884940Y-4172290D01*
G01X0889810Y-4172290D02*
G01X0889810Y-4191810D01*
G01X0894680Y-4191810D02*
G01X0894680Y-4172290D01*
G01X0899550Y-4172290D02*
G01X0899550Y-4191810D01*
G54D12*
G01X0889330Y-930330D02*
G01X0867330Y-930330D01*
G01X0889330Y-930330D02*
G01X0889330Y-938330D01*
G01X0889330Y-938330D02*
G01X0867330Y-938330D01*
G01X0867330Y-938330D02*
G01X0867330Y-930330D01*
G01X0869320Y-930330D02*
G01X0869320Y-938330D01*
G01X0871310Y-938330D02*
G01X0871310Y-930330D01*
G01X0873300Y-930330D02*
G01X0873300Y-938330D01*
G01X0875290Y-938330D02*
G01X0875290Y-930330D01*
G01X0877280Y-930330D02*
G01X0877280Y-938330D01*
G01X0879270Y-938330D02*
G01X0879270Y-930330D01*
G01X0881260Y-930330D02*
G01X0881260Y-938330D01*
G01X0883250Y-938330D02*
G01X0883250Y-930330D01*
G01X0885240Y-930330D02*
G01X0885240Y-938330D01*
G01X0887230Y-938330D02*
G01X0887230Y-930330D01*
G01X0889220Y-930330D02*
G01X0889220Y-938330D01*
G01X0889330Y-946330D02*
G01X0867330Y-946330D01*
G01X0889330Y-946330D02*
G01X0889330Y-954330D01*
G01X0889330Y-954330D02*
G01X0867330Y-954330D01*
G01X0867330Y-954330D02*
G01X0867330Y-946330D01*
G01X0869320Y-946330D02*
G01X0869320Y-954330D01*
G01X0871310Y-954330D02*
G01X0871310Y-946330D01*
G01X0873300Y-946330D02*
G01X0873300Y-954330D01*
G01X0875290Y-954330D02*
G01X0875290Y-946330D01*
G01X0877280Y-946330D02*
G01X0877280Y-954330D01*
G01X0879270Y-954330D02*
G01X0879270Y-946330D01*
G01X0881260Y-946330D02*
G01X0881260Y-954330D01*
G01X0883250Y-954330D02*
G01X0883250Y-946330D01*
G01X0885240Y-946330D02*
G01X0885240Y-954330D01*
G01X0887230Y-954330D02*
G01X0887230Y-946330D01*
G01X0889220Y-946330D02*
G01X0889220Y-954330D01*
G01X0889330Y-961330D02*
G01X0867330Y-961330D01*
G01X0889330Y-961330D02*
G01X0889330Y-969330D01*
G01X0889330Y-969330D02*
G01X0867330Y-969330D01*
G01X0867330Y-969330D02*
G01X0867330Y-961330D01*
G01X0869320Y-961330D02*
G01X0869320Y-969330D01*
G01X0871310Y-969330D02*
G01X0871310Y-961330D01*
G01X0873300Y-961330D02*
G01X0873300Y-969330D01*
G01X0875290Y-969330D02*
G01X0875290Y-961330D01*
G01X0877280Y-961330D02*
G01X0877280Y-969330D01*
G01X0879270Y-969330D02*
G01X0879270Y-961330D01*
G01X0881260Y-961330D02*
G01X0881260Y-969330D01*
G01X0883250Y-969330D02*
G01X0883250Y-961330D01*
G01X0885240Y-961330D02*
G01X0885240Y-969330D01*
G01X0887230Y-969330D02*
G01X0887230Y-961330D01*
G01X0889220Y-961330D02*
G01X0889220Y-969330D01*
G01X0889330Y-977330D02*
G01X0867330Y-977330D01*
G01X0889330Y-977330D02*
G01X0889330Y-985330D01*
G01X0889330Y-985330D02*
G01X0867330Y-985330D01*
G01X0867330Y-985330D02*
G01X0867330Y-977330D01*
G01X0869320Y-977330D02*
G01X0869320Y-985330D01*
G01X0871310Y-985330D02*
G01X0871310Y-977330D01*
G01X0873300Y-977330D02*
G01X0873300Y-985330D01*
G01X0875290Y-985330D02*
G01X0875290Y-977330D01*
G01X0877280Y-977330D02*
G01X0877280Y-985330D01*
G01X0879270Y-985330D02*
G01X0879270Y-977330D01*
G01X0881260Y-977330D02*
G01X0881260Y-985330D01*
G01X0883250Y-985330D02*
G01X0883250Y-977330D01*
G01X0885240Y-977330D02*
G01X0885240Y-985330D01*
G01X0887230Y-985330D02*
G01X0887230Y-977330D01*
G01X0889220Y-977330D02*
G01X0889220Y-985330D01*
G01X0889330Y-993330D02*
G01X0867330Y-993330D01*
G01X0889330Y-993330D02*
G01X0889330Y-1001330D01*
G01X0889330Y-1001330D02*
G01X0867330Y-1001330D01*
G01X0867330Y-1001330D02*
G01X0867330Y-993330D01*
G01X0869320Y-993330D02*
G01X0869320Y-1001330D01*
G01X0871310Y-1001330D02*
G01X0871310Y-993330D01*
G01X0873300Y-993330D02*
G01X0873300Y-1001330D01*
G01X0875290Y-1001330D02*
G01X0875290Y-993330D01*
G01X0877280Y-993330D02*
G01X0877280Y-1001330D01*
G01X0879270Y-1001330D02*
G01X0879270Y-993330D01*
G01X0881260Y-993330D02*
G01X0881260Y-1001330D01*
G01X0883250Y-1001330D02*
G01X0883250Y-993330D01*
G01X0885240Y-993330D02*
G01X0885240Y-1001330D01*
G01X0887230Y-1001330D02*
G01X0887230Y-993330D01*
G01X0889220Y-993330D02*
G01X0889220Y-1001330D01*
G01X0889330Y-1009330D02*
G01X0867330Y-1009330D01*
G01X0889330Y-1009330D02*
G01X0889330Y-1017330D01*
G01X0889330Y-1017330D02*
G01X0867330Y-1017330D01*
G01X0867330Y-1017330D02*
G01X0867330Y-1009330D01*
G01X0869320Y-1009330D02*
G01X0869320Y-1017330D01*
G01X0871310Y-1017330D02*
G01X0871310Y-1009330D01*
G01X0873300Y-1009330D02*
G01X0873300Y-1017330D01*
G01X0875290Y-1017330D02*
G01X0875290Y-1009330D01*
G01X0877280Y-1009330D02*
G01X0877280Y-1017330D01*
G01X0879270Y-1017330D02*
G01X0879270Y-1009330D01*
G01X0881260Y-1009330D02*
G01X0881260Y-1017330D01*
G01X0883250Y-1017330D02*
G01X0883250Y-1009330D01*
G01X0885240Y-1009330D02*
G01X0885240Y-1017330D01*
G01X0887230Y-1017330D02*
G01X0887230Y-1009330D01*
G01X0889220Y-1009330D02*
G01X0889220Y-1017330D01*
G01X0889330Y-1024330D02*
G01X0867330Y-1024330D01*
G01X0889330Y-1024330D02*
G01X0889330Y-1032330D01*
G01X0889330Y-1032330D02*
G01X0867330Y-1032330D01*
G01X0867330Y-1032330D02*
G01X0867330Y-1024330D01*
G01X0869320Y-1024330D02*
G01X0869320Y-1032330D01*
G01X0871310Y-1032330D02*
G01X0871310Y-1024330D01*
G01X0873300Y-1024330D02*
G01X0873300Y-1032330D01*
G01X0875290Y-1032330D02*
G01X0875290Y-1024330D01*
G01X0877280Y-1024330D02*
G01X0877280Y-1032330D01*
G01X0879270Y-1032330D02*
G01X0879270Y-1024330D01*
G01X0881260Y-1024330D02*
G01X0881260Y-1032330D01*
G01X0883250Y-1032330D02*
G01X0883250Y-1024330D01*
G01X0885240Y-1024330D02*
G01X0885240Y-1032330D01*
G01X0887230Y-1032330D02*
G01X0887230Y-1024330D01*
G01X0889220Y-1024330D02*
G01X0889220Y-1032330D01*
G01X0889330Y-1040330D02*
G01X0867330Y-1040330D01*
G01X0889330Y-1040330D02*
G01X0889330Y-1048330D01*
G01X0889330Y-1048330D02*
G01X0867330Y-1048330D01*
G01X0867330Y-1048330D02*
G01X0867330Y-1040330D01*
G01X0869320Y-1040330D02*
G01X0869320Y-1048330D01*
G01X0871310Y-1048330D02*
G01X0871310Y-1040330D01*
G01X0873300Y-1040330D02*
G01X0873300Y-1048330D01*
G01X0875290Y-1048330D02*
G01X0875290Y-1040330D01*
G01X0877280Y-1040330D02*
G01X0877280Y-1048330D01*
G01X0879270Y-1048330D02*
G01X0879270Y-1040330D01*
G01X0881260Y-1040330D02*
G01X0881260Y-1048330D01*
G01X0883250Y-1048330D02*
G01X0883250Y-1040330D01*
G01X0885240Y-1040330D02*
G01X0885240Y-1048330D01*
G01X0887230Y-1048330D02*
G01X0887230Y-1040330D01*
G01X0889220Y-1040330D02*
G01X0889220Y-1048330D01*
G01X0925330Y-1040330D02*
G01X0947330Y-1040330D01*
G01X0947330Y-1040330D02*
G01X0947330Y-1048330D01*
G01X0947330Y-1048330D02*
G01X0925330Y-1048330D01*
G01X0925330Y-1048330D02*
G01X0925330Y-1040330D01*
G01X0927320Y-1040330D02*
G01X0927320Y-1048330D01*
G01X0929310Y-1048330D02*
G01X0929310Y-1040330D01*
G01X0931300Y-1040330D02*
G01X0931300Y-1048330D01*
G01X0933290Y-1048330D02*
G01X0933290Y-1040330D01*
G01X0935280Y-1040330D02*
G01X0935280Y-1048330D01*
G01X0937270Y-1048330D02*
G01X0937270Y-1040330D01*
G01X0939260Y-1040330D02*
G01X0939260Y-1048330D01*
G01X0941250Y-1048330D02*
G01X0941250Y-1040330D01*
G01X0943240Y-1040330D02*
G01X0943240Y-1048330D01*
G01X0945230Y-1048330D02*
G01X0945230Y-1040330D01*
G01X0947220Y-1040330D02*
G01X0947220Y-1048330D01*
G01X0947330Y-1024330D02*
G01X0925330Y-1024330D01*
G01X0947330Y-1024330D02*
G01X0947330Y-1032330D01*
G01X0947330Y-1032330D02*
G01X0925330Y-1032330D01*
G01X0925330Y-1032330D02*
G01X0925330Y-1024330D01*
G01X0927320Y-1024330D02*
G01X0927320Y-1032330D01*
G01X0929310Y-1032330D02*
G01X0929310Y-1024330D01*
G01X0931300Y-1024330D02*
G01X0931300Y-1032330D01*
G01X0933290Y-1032330D02*
G01X0933290Y-1024330D01*
G01X0935280Y-1024330D02*
G01X0935280Y-1032330D01*
G01X0937270Y-1032330D02*
G01X0937270Y-1024330D01*
G01X0939260Y-1024330D02*
G01X0939260Y-1032330D01*
G01X0941250Y-1032330D02*
G01X0941250Y-1024330D01*
G01X0943240Y-1024330D02*
G01X0943240Y-1032330D01*
G01X0945230Y-1032330D02*
G01X0945230Y-1024330D01*
G01X0947220Y-1024330D02*
G01X0947220Y-1032330D01*
G01X0947330Y-1009330D02*
G01X0925330Y-1009330D01*
G01X0947330Y-1009330D02*
G01X0947330Y-1017330D01*
G01X0947330Y-1017330D02*
G01X0925330Y-1017330D01*
G01X0925330Y-1017330D02*
G01X0925330Y-1009330D01*
G01X0927320Y-1009330D02*
G01X0927320Y-1017330D01*
G01X0929310Y-1017330D02*
G01X0929310Y-1009330D01*
G01X0931300Y-1009330D02*
G01X0931300Y-1017330D01*
G01X0933290Y-1017330D02*
G01X0933290Y-1009330D01*
G01X0935280Y-1009330D02*
G01X0935280Y-1017330D01*
G01X0937270Y-1017330D02*
G01X0937270Y-1009330D01*
G01X0939260Y-1009330D02*
G01X0939260Y-1017330D01*
G01X0941250Y-1017330D02*
G01X0941250Y-1009330D01*
G01X0943240Y-1009330D02*
G01X0943240Y-1017330D01*
G01X0945230Y-1017330D02*
G01X0945230Y-1009330D01*
G01X0947220Y-1009330D02*
G01X0947220Y-1017330D01*
G01X0947330Y-993330D02*
G01X0925330Y-993330D01*
G01X0947330Y-993330D02*
G01X0947330Y-1001330D01*
G01X0947330Y-1001330D02*
G01X0925330Y-1001330D01*
G01X0925330Y-1001330D02*
G01X0925330Y-993330D01*
G01X0927320Y-993330D02*
G01X0927320Y-1001330D01*
G01X0929310Y-1001330D02*
G01X0929310Y-993330D01*
G01X0931300Y-993330D02*
G01X0931300Y-1001330D01*
G01X0933290Y-1001330D02*
G01X0933290Y-993330D01*
G01X0935280Y-993330D02*
G01X0935280Y-1001330D01*
G01X0937270Y-1001330D02*
G01X0937270Y-993330D01*
G01X0939260Y-993330D02*
G01X0939260Y-1001330D01*
G01X0941250Y-1001330D02*
G01X0941250Y-993330D01*
G01X0943240Y-993330D02*
G01X0943240Y-1001330D01*
G01X0945230Y-1001330D02*
G01X0945230Y-993330D01*
G01X0947220Y-993330D02*
G01X0947220Y-1001330D01*
G01X0947330Y-977330D02*
G01X0925330Y-977330D01*
G01X0947330Y-977330D02*
G01X0947330Y-985330D01*
G01X0947330Y-985330D02*
G01X0925330Y-985330D01*
G01X0925330Y-985330D02*
G01X0925330Y-977330D01*
G01X0927320Y-977330D02*
G01X0927320Y-985330D01*
G01X0929310Y-985330D02*
G01X0929310Y-977330D01*
G01X0931300Y-977330D02*
G01X0931300Y-985330D01*
G01X0933290Y-985330D02*
G01X0933290Y-977330D01*
G01X0935280Y-977330D02*
G01X0935280Y-985330D01*
G01X0937270Y-985330D02*
G01X0937270Y-977330D01*
G01X0939260Y-977330D02*
G01X0939260Y-985330D01*
G01X0941250Y-985330D02*
G01X0941250Y-977330D01*
G01X0943240Y-977330D02*
G01X0943240Y-985330D01*
G01X0945230Y-985330D02*
G01X0945230Y-977330D01*
G01X0947220Y-977330D02*
G01X0947220Y-985330D01*
G01X0947330Y-961330D02*
G01X0925330Y-961330D01*
G01X0947330Y-961330D02*
G01X0947330Y-969330D01*
G01X0947330Y-969330D02*
G01X0925330Y-969330D01*
G01X0925330Y-969330D02*
G01X0925330Y-961330D01*
G01X0927320Y-961330D02*
G01X0927320Y-969330D01*
G01X0929310Y-969330D02*
G01X0929310Y-961330D01*
G01X0931300Y-961330D02*
G01X0931300Y-969330D01*
G01X0933290Y-969330D02*
G01X0933290Y-961330D01*
G01X0935280Y-961330D02*
G01X0935280Y-969330D01*
G01X0937270Y-969330D02*
G01X0937270Y-961330D01*
G01X0939260Y-961330D02*
G01X0939260Y-969330D01*
G01X0941250Y-969330D02*
G01X0941250Y-961330D01*
G01X0943240Y-961330D02*
G01X0943240Y-969330D01*
G01X0945230Y-969330D02*
G01X0945230Y-961330D01*
G01X0947220Y-961330D02*
G01X0947220Y-969330D01*
G01X0947330Y-946330D02*
G01X0925330Y-946330D01*
G01X0947330Y-946330D02*
G01X0947330Y-954330D01*
G01X0947330Y-954330D02*
G01X0925330Y-954330D01*
G01X0925330Y-954330D02*
G01X0925330Y-946330D01*
G01X0927320Y-946330D02*
G01X0927320Y-954330D01*
G01X0929310Y-954330D02*
G01X0929310Y-946330D01*
G01X0931300Y-946330D02*
G01X0931300Y-954330D01*
G01X0933290Y-954330D02*
G01X0933290Y-946330D01*
G01X0935280Y-946330D02*
G01X0935280Y-954330D01*
G01X0937270Y-954330D02*
G01X0937270Y-946330D01*
G01X0939260Y-946330D02*
G01X0939260Y-954330D01*
G01X0941250Y-954330D02*
G01X0941250Y-946330D01*
G01X0943240Y-946330D02*
G01X0943240Y-954330D01*
G01X0945230Y-954330D02*
G01X0945230Y-946330D01*
G01X0947220Y-946330D02*
G01X0947220Y-954330D01*
G01X0947330Y-930330D02*
G01X0925330Y-930330D01*
G01X0947330Y-930330D02*
G01X0947330Y-938330D01*
G01X0947330Y-938330D02*
G01X0925330Y-938330D01*
G01X0925330Y-938330D02*
G01X0925330Y-930330D01*
G01X0927320Y-930330D02*
G01X0927320Y-938330D01*
G01X0929310Y-938330D02*
G01X0929310Y-930330D01*
G01X0931300Y-930330D02*
G01X0931300Y-938330D01*
G01X0933290Y-938330D02*
G01X0933290Y-930330D01*
G01X0935280Y-930330D02*
G01X0935280Y-938330D01*
G01X0937270Y-938330D02*
G01X0937270Y-930330D01*
G01X0939260Y-930330D02*
G01X0939260Y-938330D01*
G01X0941250Y-938330D02*
G01X0941250Y-930330D01*
G01X0943240Y-930330D02*
G01X0943240Y-938330D01*
G01X0945230Y-938330D02*
G01X0945230Y-930330D01*
G01X0947220Y-930330D02*
G01X0947220Y-938330D01*
G54D13*
G01X0913730Y-935930D02*
G01X0900930Y-935930D01*
G01X0913730Y-935930D02*
G01X0913730Y-1042730D01*
G01X0913730Y-1042730D02*
G01X0900930Y-1042730D01*
G01X0900930Y-1042730D02*
G01X0900930Y-935930D01*
G01X0904120Y-935930D02*
G01X0904120Y-1042730D01*
G01X0907310Y-1042730D02*
G01X0907310Y-935930D01*
G01X0910500Y-935930D02*
G01X0910500Y-1042730D01*
G01X0913690Y-1042730D02*
G01X0913690Y-935930D01*
G54D14*
G01X1425740Y-1694640D02*
G01X1425740Y-1719840D01*
G01X1425740Y-1694640D02*
G01X1435180Y-1694640D01*
G01X1435180Y-1694640D02*
G01X1435180Y-1719840D01*
G01X1435180Y-1719840D02*
G01X1425740Y-1719840D01*
G01X1428090Y-1719840D02*
G01X1428090Y-1694640D01*
G01X1430440Y-1694640D02*
G01X1430440Y-1719840D01*
G01X1432790Y-1719840D02*
G01X1432790Y-1694640D01*
G01X1435140Y-1694640D02*
G01X1435140Y-1719840D01*
G01X1445430Y-1719840D02*
G01X1445430Y-1694640D01*
G01X1445430Y-1694640D02*
G01X1454870Y-1694640D01*
G01X1454870Y-1694640D02*
G01X1454870Y-1719840D01*
G01X1454870Y-1719840D02*
G01X1445430Y-1719840D01*
G01X1447780Y-1719840D02*
G01X1447780Y-1694640D01*
G01X1450130Y-1694640D02*
G01X1450130Y-1719840D01*
G01X1452480Y-1719840D02*
G01X1452480Y-1694640D01*
G01X1454830Y-1694640D02*
G01X1454830Y-1719840D01*
G01X1465110Y-1719840D02*
G01X1465110Y-1694640D01*
G01X1465110Y-1694640D02*
G01X1474550Y-1694640D01*
G01X1474550Y-1694640D02*
G01X1474550Y-1719840D01*
G01X1474550Y-1719840D02*
G01X1465110Y-1719840D01*
G01X1467460Y-1719840D02*
G01X1467460Y-1694640D01*
G01X1469810Y-1694640D02*
G01X1469810Y-1719840D01*
G01X1472160Y-1719840D02*
G01X1472160Y-1694640D01*
G01X1474510Y-1694640D02*
G01X1474510Y-1719840D01*
G01X1484800Y-1719840D02*
G01X1484800Y-1694640D01*
G01X1484800Y-1694640D02*
G01X1494240Y-1694640D01*
G01X1494240Y-1694640D02*
G01X1494240Y-1719840D01*
G01X1494240Y-1719840D02*
G01X1484800Y-1719840D01*
G01X1487150Y-1719840D02*
G01X1487150Y-1694640D01*
G01X1489500Y-1694640D02*
G01X1489500Y-1719840D01*
G01X1491850Y-1719840D02*
G01X1491850Y-1694640D01*
G01X1494200Y-1694640D02*
G01X1494200Y-1719840D01*
G01X1504480Y-1719840D02*
G01X1504480Y-1694640D01*
G01X1504480Y-1694640D02*
G01X1513920Y-1694640D01*
G01X1513920Y-1694640D02*
G01X1513920Y-1719840D01*
G01X1513920Y-1719840D02*
G01X1504480Y-1719840D01*
G01X1506830Y-1719840D02*
G01X1506830Y-1694640D01*
G01X1509180Y-1694640D02*
G01X1509180Y-1719840D01*
G01X1511530Y-1719840D02*
G01X1511530Y-1694640D01*
G01X1513880Y-1694640D02*
G01X1513880Y-1719840D01*
G01X1504480Y-1808820D02*
G01X1504480Y-1834020D01*
G01X1504480Y-1808820D02*
G01X1513920Y-1808820D01*
G01X1513920Y-1808820D02*
G01X1513920Y-1834020D01*
G01X1513920Y-1834020D02*
G01X1504480Y-1834020D01*
G01X1506830Y-1834020D02*
G01X1506830Y-1808820D01*
G01X1509180Y-1808820D02*
G01X1509180Y-1834020D01*
G01X1511530Y-1834020D02*
G01X1511530Y-1808820D01*
G01X1513880Y-1808820D02*
G01X1513880Y-1834020D01*
G01X1484800Y-1834020D02*
G01X1484800Y-1808820D01*
G01X1484800Y-1808820D02*
G01X1494240Y-1808820D01*
G01X1494240Y-1808820D02*
G01X1494240Y-1834020D01*
G01X1494240Y-1834020D02*
G01X1484800Y-1834020D01*
G01X1487150Y-1834020D02*
G01X1487150Y-1808820D01*
G01X1489500Y-1808820D02*
G01X1489500Y-1834020D01*
G01X1491850Y-1834020D02*
G01X1491850Y-1808820D01*
G01X1494200Y-1808820D02*
G01X1494200Y-1834020D01*
G01X1465110Y-1834020D02*
G01X1465110Y-1808820D01*
G01X1465110Y-1808820D02*
G01X1474550Y-1808820D01*
G01X1474550Y-1808820D02*
G01X1474550Y-1834020D01*
G01X1474550Y-1834020D02*
G01X1465110Y-1834020D01*
G01X1467460Y-1834020D02*
G01X1467460Y-1808820D01*
G01X1469810Y-1808820D02*
G01X1469810Y-1834020D01*
G01X1472160Y-1834020D02*
G01X1472160Y-1808820D01*
G01X1474510Y-1808820D02*
G01X1474510Y-1834020D01*
G01X1445430Y-1834020D02*
G01X1445430Y-1808820D01*
G01X1445430Y-1808820D02*
G01X1454870Y-1808820D01*
G01X1454870Y-1808820D02*
G01X1454870Y-1834020D01*
G01X1454870Y-1834020D02*
G01X1445430Y-1834020D01*
G01X1447780Y-1834020D02*
G01X1447780Y-1808820D01*
G01X1450130Y-1808820D02*
G01X1450130Y-1834020D01*
G01X1452480Y-1834020D02*
G01X1452480Y-1808820D01*
G01X1454830Y-1808820D02*
G01X1454830Y-1834020D01*
G01X1425740Y-1834020D02*
G01X1425740Y-1808820D01*
G01X1425740Y-1808820D02*
G01X1435180Y-1808820D01*
G01X1435180Y-1808820D02*
G01X1435180Y-1834020D01*
G01X1435180Y-1834020D02*
G01X1425740Y-1834020D01*
G01X1428090Y-1834020D02*
G01X1428090Y-1808820D01*
G01X1430440Y-1808820D02*
G01X1430440Y-1834020D01*
G01X1432790Y-1834020D02*
G01X1432790Y-1808820D01*
G01X1435140Y-1808820D02*
G01X1435140Y-1834020D01*
G01X1302020Y-2404680D02*
G01X1276820Y-2404680D01*
G01X1276820Y-2404680D02*
G01X1276820Y-2395240D01*
G01X1276820Y-2395240D02*
G01X1302020Y-2395240D01*
G01X1302020Y-2395240D02*
G01X1302020Y-2404680D01*
G01X1279170Y-2404680D02*
G01X1279170Y-2395240D01*
G01X1281520Y-2395240D02*
G01X1281520Y-2404680D01*
G01X1283870Y-2404680D02*
G01X1283870Y-2395240D01*
G01X1286220Y-2395240D02*
G01X1286220Y-2404680D01*
G01X1288570Y-2404680D02*
G01X1288570Y-2395240D01*
G01X1290920Y-2395240D02*
G01X1290920Y-2404680D01*
G01X1293270Y-2404680D02*
G01X1293270Y-2395240D01*
G01X1295620Y-2395240D02*
G01X1295620Y-2404680D01*
G01X1297970Y-2404680D02*
G01X1297970Y-2395240D01*
G01X1300320Y-2395240D02*
G01X1300320Y-2404680D01*
G01X1302020Y-2424370D02*
G01X1276820Y-2424370D01*
G01X1276820Y-2424370D02*
G01X1276820Y-2414930D01*
G01X1276820Y-2414930D02*
G01X1302020Y-2414930D01*
G01X1302020Y-2414930D02*
G01X1302020Y-2424370D01*
G01X1279170Y-2424370D02*
G01X1279170Y-2414930D01*
G01X1281520Y-2414930D02*
G01X1281520Y-2424370D01*
G01X1283870Y-2424370D02*
G01X1283870Y-2414930D01*
G01X1286220Y-2414930D02*
G01X1286220Y-2424370D01*
G01X1288570Y-2424370D02*
G01X1288570Y-2414930D01*
G01X1290920Y-2414930D02*
G01X1290920Y-2424370D01*
G01X1293270Y-2424370D02*
G01X1293270Y-2414930D01*
G01X1295620Y-2414930D02*
G01X1295620Y-2424370D01*
G01X1297970Y-2424370D02*
G01X1297970Y-2414930D01*
G01X1300320Y-2414930D02*
G01X1300320Y-2424370D01*
G01X1302020Y-2444050D02*
G01X1276820Y-2444050D01*
G01X1276820Y-2444050D02*
G01X1276820Y-2434610D01*
G01X1276820Y-2434610D02*
G01X1302020Y-2434610D01*
G01X1302020Y-2434610D02*
G01X1302020Y-2444050D01*
G01X1279170Y-2444050D02*
G01X1279170Y-2434610D01*
G01X1281520Y-2434610D02*
G01X1281520Y-2444050D01*
G01X1283870Y-2444050D02*
G01X1283870Y-2434610D01*
G01X1286220Y-2434610D02*
G01X1286220Y-2444050D01*
G01X1288570Y-2444050D02*
G01X1288570Y-2434610D01*
G01X1290920Y-2434610D02*
G01X1290920Y-2444050D01*
G01X1293270Y-2444050D02*
G01X1293270Y-2434610D01*
G01X1295620Y-2434610D02*
G01X1295620Y-2444050D01*
G01X1297970Y-2444050D02*
G01X1297970Y-2434610D01*
G01X1300320Y-2434610D02*
G01X1300320Y-2444050D01*
G01X1302020Y-2463740D02*
G01X1276820Y-2463740D01*
G01X1276820Y-2463740D02*
G01X1276820Y-2454300D01*
G01X1276820Y-2454300D02*
G01X1302020Y-2454300D01*
G01X1302020Y-2454300D02*
G01X1302020Y-2463740D01*
G01X1279170Y-2463740D02*
G01X1279170Y-2454300D01*
G01X1281520Y-2454300D02*
G01X1281520Y-2463740D01*
G01X1283870Y-2463740D02*
G01X1283870Y-2454300D01*
G01X1286220Y-2454300D02*
G01X1286220Y-2463740D01*
G01X1288570Y-2463740D02*
G01X1288570Y-2454300D01*
G01X1290920Y-2454300D02*
G01X1290920Y-2463740D01*
G01X1293270Y-2463740D02*
G01X1293270Y-2454300D01*
G01X1295620Y-2454300D02*
G01X1295620Y-2463740D01*
G01X1297970Y-2463740D02*
G01X1297970Y-2454300D01*
G01X1300320Y-2454300D02*
G01X1300320Y-2463740D01*
G01X1302020Y-2483420D02*
G01X1276820Y-2483420D01*
G01X1276820Y-2483420D02*
G01X1276820Y-2473980D01*
G01X1276820Y-2473980D02*
G01X1302020Y-2473980D01*
G01X1302020Y-2473980D02*
G01X1302020Y-2483420D01*
G01X1279170Y-2483420D02*
G01X1279170Y-2473980D01*
G01X1281520Y-2473980D02*
G01X1281520Y-2483420D01*
G01X1283870Y-2483420D02*
G01X1283870Y-2473980D01*
G01X1286220Y-2473980D02*
G01X1286220Y-2483420D01*
G01X1288570Y-2483420D02*
G01X1288570Y-2473980D01*
G01X1290920Y-2473980D02*
G01X1290920Y-2483420D01*
G01X1293270Y-2483420D02*
G01X1293270Y-2473980D01*
G01X1295620Y-2473980D02*
G01X1295620Y-2483420D01*
G01X1297970Y-2483420D02*
G01X1297970Y-2473980D01*
G01X1300320Y-2473980D02*
G01X1300320Y-2483420D01*
G01X1187840Y-2483420D02*
G01X1162640Y-2483420D01*
G01X1162640Y-2483420D02*
G01X1162640Y-2473980D01*
G01X1162640Y-2473980D02*
G01X1187840Y-2473980D01*
G01X1187840Y-2473980D02*
G01X1187840Y-2483420D01*
G01X1164990Y-2483420D02*
G01X1164990Y-2473980D01*
G01X1167340Y-2473980D02*
G01X1167340Y-2483420D01*
G01X1169690Y-2483420D02*
G01X1169690Y-2473980D01*
G01X1172040Y-2473980D02*
G01X1172040Y-2483420D01*
G01X1174390Y-2483420D02*
G01X1174390Y-2473980D01*
G01X1176740Y-2473980D02*
G01X1176740Y-2483420D01*
G01X1179090Y-2483420D02*
G01X1179090Y-2473980D01*
G01X1181440Y-2473980D02*
G01X1181440Y-2483420D01*
G01X1183790Y-2483420D02*
G01X1183790Y-2473980D01*
G01X1186140Y-2473980D02*
G01X1186140Y-2483420D01*
G01X1187840Y-2463740D02*
G01X1162640Y-2463740D01*
G01X1162640Y-2463740D02*
G01X1162640Y-2454300D01*
G01X1162640Y-2454300D02*
G01X1187840Y-2454300D01*
G01X1187840Y-2454300D02*
G01X1187840Y-2463740D01*
G01X1164990Y-2463740D02*
G01X1164990Y-2454300D01*
G01X1167340Y-2454300D02*
G01X1167340Y-2463740D01*
G01X1169690Y-2463740D02*
G01X1169690Y-2454300D01*
G01X1172040Y-2454300D02*
G01X1172040Y-2463740D01*
G01X1174390Y-2463740D02*
G01X1174390Y-2454300D01*
G01X1176740Y-2454300D02*
G01X1176740Y-2463740D01*
G01X1179090Y-2463740D02*
G01X1179090Y-2454300D01*
G01X1181440Y-2454300D02*
G01X1181440Y-2463740D01*
G01X1183790Y-2463740D02*
G01X1183790Y-2454300D01*
G01X1186140Y-2454300D02*
G01X1186140Y-2463740D01*
G01X1187840Y-2444050D02*
G01X1162640Y-2444050D01*
G01X1162640Y-2444050D02*
G01X1162640Y-2434610D01*
G01X1162640Y-2434610D02*
G01X1187840Y-2434610D01*
G01X1187840Y-2434610D02*
G01X1187840Y-2444050D01*
G01X1164990Y-2444050D02*
G01X1164990Y-2434610D01*
G01X1167340Y-2434610D02*
G01X1167340Y-2444050D01*
G01X1169690Y-2444050D02*
G01X1169690Y-2434610D01*
G01X1172040Y-2434610D02*
G01X1172040Y-2444050D01*
G01X1174390Y-2444050D02*
G01X1174390Y-2434610D01*
G01X1176740Y-2434610D02*
G01X1176740Y-2444050D01*
G01X1179090Y-2444050D02*
G01X1179090Y-2434610D01*
G01X1181440Y-2434610D02*
G01X1181440Y-2444050D01*
G01X1183790Y-2444050D02*
G01X1183790Y-2434610D01*
G01X1186140Y-2434610D02*
G01X1186140Y-2444050D01*
G01X1187840Y-2424370D02*
G01X1162640Y-2424370D01*
G01X1162640Y-2424370D02*
G01X1162640Y-2414930D01*
G01X1162640Y-2414930D02*
G01X1187840Y-2414930D01*
G01X1187840Y-2414930D02*
G01X1187840Y-2424370D01*
G01X1164990Y-2424370D02*
G01X1164990Y-2414930D01*
G01X1167340Y-2414930D02*
G01X1167340Y-2424370D01*
G01X1169690Y-2424370D02*
G01X1169690Y-2414930D01*
G01X1172040Y-2414930D02*
G01X1172040Y-2424370D01*
G01X1174390Y-2424370D02*
G01X1174390Y-2414930D01*
G01X1176740Y-2414930D02*
G01X1176740Y-2424370D01*
G01X1179090Y-2424370D02*
G01X1179090Y-2414930D01*
G01X1181440Y-2414930D02*
G01X1181440Y-2424370D01*
G01X1183790Y-2424370D02*
G01X1183790Y-2414930D01*
G01X1186140Y-2414930D02*
G01X1186140Y-2424370D01*
G01X1187840Y-2404680D02*
G01X1162640Y-2404680D01*
G01X1162640Y-2404680D02*
G01X1162640Y-2395240D01*
G01X1162640Y-2395240D02*
G01X1187840Y-2395240D01*
G01X1187840Y-2395240D02*
G01X1187840Y-2404680D01*
G01X1164990Y-2404680D02*
G01X1164990Y-2395240D01*
G01X1167340Y-2395240D02*
G01X1167340Y-2404680D01*
G01X1169690Y-2404680D02*
G01X1169690Y-2395240D01*
G01X1172040Y-2395240D02*
G01X1172040Y-2404680D01*
G01X1174390Y-2404680D02*
G01X1174390Y-2395240D01*
G01X1176740Y-2395240D02*
G01X1176740Y-2404680D01*
G01X1179090Y-2404680D02*
G01X1179090Y-2395240D01*
G01X1181440Y-2395240D02*
G01X1181440Y-2404680D01*
G01X1183790Y-2404680D02*
G01X1183790Y-2395240D01*
G01X1186140Y-2395240D02*
G01X1186140Y-2404680D01*
G01X1187840Y-3154680D02*
G01X1162640Y-3154680D01*
G01X1162640Y-3154680D02*
G01X1162640Y-3145240D01*
G01X1162640Y-3145240D02*
G01X1187840Y-3145240D01*
G01X1187840Y-3145240D02*
G01X1187840Y-3154680D01*
G01X1164990Y-3154680D02*
G01X1164990Y-3145240D01*
G01X1167340Y-3145240D02*
G01X1167340Y-3154680D01*
G01X1169690Y-3154680D02*
G01X1169690Y-3145240D01*
G01X1172040Y-3145240D02*
G01X1172040Y-3154680D01*
G01X1174390Y-3154680D02*
G01X1174390Y-3145240D01*
G01X1176740Y-3145240D02*
G01X1176740Y-3154680D01*
G01X1179090Y-3154680D02*
G01X1179090Y-3145240D01*
G01X1181440Y-3145240D02*
G01X1181440Y-3154680D01*
G01X1183790Y-3154680D02*
G01X1183790Y-3145240D01*
G01X1186140Y-3145240D02*
G01X1186140Y-3154680D01*
G01X1187840Y-3174370D02*
G01X1162640Y-3174370D01*
G01X1162640Y-3174370D02*
G01X1162640Y-3164930D01*
G01X1162640Y-3164930D02*
G01X1187840Y-3164930D01*
G01X1187840Y-3164930D02*
G01X1187840Y-3174370D01*
G01X1164990Y-3174370D02*
G01X1164990Y-3164930D01*
G01X1167340Y-3164930D02*
G01X1167340Y-3174370D01*
G01X1169690Y-3174370D02*
G01X1169690Y-3164930D01*
G01X1172040Y-3164930D02*
G01X1172040Y-3174370D01*
G01X1174390Y-3174370D02*
G01X1174390Y-3164930D01*
G01X1176740Y-3164930D02*
G01X1176740Y-3174370D01*
G01X1179090Y-3174370D02*
G01X1179090Y-3164930D01*
G01X1181440Y-3164930D02*
G01X1181440Y-3174370D01*
G01X1183790Y-3174370D02*
G01X1183790Y-3164930D01*
G01X1186140Y-3164930D02*
G01X1186140Y-3174370D01*
G01X1187840Y-3194050D02*
G01X1162640Y-3194050D01*
G01X1162640Y-3194050D02*
G01X1162640Y-3184610D01*
G01X1162640Y-3184610D02*
G01X1187840Y-3184610D01*
G01X1187840Y-3184610D02*
G01X1187840Y-3194050D01*
G01X1164990Y-3194050D02*
G01X1164990Y-3184610D01*
G01X1167340Y-3184610D02*
G01X1167340Y-3194050D01*
G01X1169690Y-3194050D02*
G01X1169690Y-3184610D01*
G01X1172040Y-3184610D02*
G01X1172040Y-3194050D01*
G01X1174390Y-3194050D02*
G01X1174390Y-3184610D01*
G01X1176740Y-3184610D02*
G01X1176740Y-3194050D01*
G01X1179090Y-3194050D02*
G01X1179090Y-3184610D01*
G01X1181440Y-3184610D02*
G01X1181440Y-3194050D01*
G01X1183790Y-3194050D02*
G01X1183790Y-3184610D01*
G01X1186140Y-3184610D02*
G01X1186140Y-3194050D01*
G01X1187840Y-3213740D02*
G01X1162640Y-3213740D01*
G01X1162640Y-3213740D02*
G01X1162640Y-3204300D01*
G01X1162640Y-3204300D02*
G01X1187840Y-3204300D01*
G01X1187840Y-3204300D02*
G01X1187840Y-3213740D01*
G01X1164990Y-3213740D02*
G01X1164990Y-3204300D01*
G01X1167340Y-3204300D02*
G01X1167340Y-3213740D01*
G01X1169690Y-3213740D02*
G01X1169690Y-3204300D01*
G01X1172040Y-3204300D02*
G01X1172040Y-3213740D01*
G01X1174390Y-3213740D02*
G01X1174390Y-3204300D01*
G01X1176740Y-3204300D02*
G01X1176740Y-3213740D01*
G01X1179090Y-3213740D02*
G01X1179090Y-3204300D01*
G01X1181440Y-3204300D02*
G01X1181440Y-3213740D01*
G01X1183790Y-3213740D02*
G01X1183790Y-3204300D01*
G01X1186140Y-3204300D02*
G01X1186140Y-3213740D01*
G01X1187840Y-3233420D02*
G01X1162640Y-3233420D01*
G01X1162640Y-3233420D02*
G01X1162640Y-3223980D01*
G01X1162640Y-3223980D02*
G01X1187840Y-3223980D01*
G01X1187840Y-3223980D02*
G01X1187840Y-3233420D01*
G01X1164990Y-3233420D02*
G01X1164990Y-3223980D01*
G01X1167340Y-3223980D02*
G01X1167340Y-3233420D01*
G01X1169690Y-3233420D02*
G01X1169690Y-3223980D01*
G01X1172040Y-3223980D02*
G01X1172040Y-3233420D01*
G01X1174390Y-3233420D02*
G01X1174390Y-3223980D01*
G01X1176740Y-3223980D02*
G01X1176740Y-3233420D01*
G01X1179090Y-3233420D02*
G01X1179090Y-3223980D01*
G01X1181440Y-3223980D02*
G01X1181440Y-3233420D01*
G01X1183790Y-3233420D02*
G01X1183790Y-3223980D01*
G01X1186140Y-3223980D02*
G01X1186140Y-3233420D01*
G01X1276820Y-3233420D02*
G01X1302020Y-3233420D01*
G01X1276820Y-3233420D02*
G01X1276820Y-3223980D01*
G01X1276820Y-3223980D02*
G01X1302020Y-3223980D01*
G01X1302020Y-3223980D02*
G01X1302020Y-3233420D01*
G01X1279170Y-3233420D02*
G01X1279170Y-3223980D01*
G01X1281520Y-3223980D02*
G01X1281520Y-3233420D01*
G01X1283870Y-3233420D02*
G01X1283870Y-3223980D01*
G01X1286220Y-3223980D02*
G01X1286220Y-3233420D01*
G01X1288570Y-3233420D02*
G01X1288570Y-3223980D01*
G01X1290920Y-3223980D02*
G01X1290920Y-3233420D01*
G01X1293270Y-3233420D02*
G01X1293270Y-3223980D01*
G01X1295620Y-3223980D02*
G01X1295620Y-3233420D01*
G01X1297970Y-3233420D02*
G01X1297970Y-3223980D01*
G01X1300320Y-3223980D02*
G01X1300320Y-3233420D01*
G01X1302020Y-3213740D02*
G01X1276820Y-3213740D01*
G01X1276820Y-3213740D02*
G01X1276820Y-3204300D01*
G01X1276820Y-3204300D02*
G01X1302020Y-3204300D01*
G01X1302020Y-3204300D02*
G01X1302020Y-3213740D01*
G01X1279170Y-3213740D02*
G01X1279170Y-3204300D01*
G01X1281520Y-3204300D02*
G01X1281520Y-3213740D01*
G01X1283870Y-3213740D02*
G01X1283870Y-3204300D01*
G01X1286220Y-3204300D02*
G01X1286220Y-3213740D01*
G01X1288570Y-3213740D02*
G01X1288570Y-3204300D01*
G01X1290920Y-3204300D02*
G01X1290920Y-3213740D01*
G01X1293270Y-3213740D02*
G01X1293270Y-3204300D01*
G01X1295620Y-3204300D02*
G01X1295620Y-3213740D01*
G01X1297970Y-3213740D02*
G01X1297970Y-3204300D01*
G01X1300320Y-3204300D02*
G01X1300320Y-3213740D01*
G01X1302020Y-3194050D02*
G01X1276820Y-3194050D01*
G01X1276820Y-3194050D02*
G01X1276820Y-3184610D01*
G01X1276820Y-3184610D02*
G01X1302020Y-3184610D01*
G01X1302020Y-3184610D02*
G01X1302020Y-3194050D01*
G01X1279170Y-3194050D02*
G01X1279170Y-3184610D01*
G01X1281520Y-3184610D02*
G01X1281520Y-3194050D01*
G01X1283870Y-3194050D02*
G01X1283870Y-3184610D01*
G01X1286220Y-3184610D02*
G01X1286220Y-3194050D01*
G01X1288570Y-3194050D02*
G01X1288570Y-3184610D01*
G01X1290920Y-3184610D02*
G01X1290920Y-3194050D01*
G01X1293270Y-3194050D02*
G01X1293270Y-3184610D01*
G01X1295620Y-3184610D02*
G01X1295620Y-3194050D01*
G01X1297970Y-3194050D02*
G01X1297970Y-3184610D01*
G01X1300320Y-3184610D02*
G01X1300320Y-3194050D01*
G01X1302020Y-3174370D02*
G01X1276820Y-3174370D01*
G01X1276820Y-3174370D02*
G01X1276820Y-3164930D01*
G01X1276820Y-3164930D02*
G01X1302020Y-3164930D01*
G01X1302020Y-3164930D02*
G01X1302020Y-3174370D01*
G01X1279170Y-3174370D02*
G01X1279170Y-3164930D01*
G01X1281520Y-3164930D02*
G01X1281520Y-3174370D01*
G01X1283870Y-3174370D02*
G01X1283870Y-3164930D01*
G01X1286220Y-3164930D02*
G01X1286220Y-3174370D01*
G01X1288570Y-3174370D02*
G01X1288570Y-3164930D01*
G01X1290920Y-3164930D02*
G01X1290920Y-3174370D01*
G01X1293270Y-3174370D02*
G01X1293270Y-3164930D01*
G01X1295620Y-3164930D02*
G01X1295620Y-3174370D01*
G01X1297970Y-3174370D02*
G01X1297970Y-3164930D01*
G01X1300320Y-3164930D02*
G01X1300320Y-3174370D01*
G01X1302020Y-3154680D02*
G01X1276820Y-3154680D01*
G01X1276820Y-3154680D02*
G01X1276820Y-3145240D01*
G01X1276820Y-3145240D02*
G01X1302020Y-3145240D01*
G01X1302020Y-3145240D02*
G01X1302020Y-3154680D01*
G01X1279170Y-3154680D02*
G01X1279170Y-3145240D01*
G01X1281520Y-3145240D02*
G01X1281520Y-3154680D01*
G01X1283870Y-3154680D02*
G01X1283870Y-3145240D01*
G01X1286220Y-3145240D02*
G01X1286220Y-3154680D01*
G01X1288570Y-3154680D02*
G01X1288570Y-3145240D01*
G01X1290920Y-3145240D02*
G01X1290920Y-3154680D01*
G01X1293270Y-3154680D02*
G01X1293270Y-3145240D01*
G01X1295620Y-3145240D02*
G01X1295620Y-3154680D01*
G01X1297970Y-3154680D02*
G01X1297970Y-3145240D01*
G01X1300320Y-3145240D02*
G01X1300320Y-3154680D01*
G01X0826420Y-4094640D02*
G01X0826420Y-4119840D01*
G01X0826420Y-4119840D02*
G01X0816980Y-4119840D01*
G01X0816980Y-4119840D02*
G01X0816980Y-4094640D01*
G01X0816980Y-4094640D02*
G01X0826420Y-4094640D01*
G01X0819330Y-4094640D02*
G01X0819330Y-4119840D01*
G01X0821680Y-4119840D02*
G01X0821680Y-4094640D01*
G01X0824030Y-4094640D02*
G01X0824030Y-4119840D01*
G01X0826380Y-4119840D02*
G01X0826380Y-4094640D01*
G01X0806740Y-4094640D02*
G01X0806740Y-4119840D01*
G01X0806740Y-4119840D02*
G01X0797300Y-4119840D01*
G01X0797300Y-4119840D02*
G01X0797300Y-4094640D01*
G01X0797300Y-4094640D02*
G01X0806740Y-4094640D01*
G01X0799650Y-4094640D02*
G01X0799650Y-4119840D01*
G01X0802000Y-4119840D02*
G01X0802000Y-4094640D01*
G01X0804350Y-4094640D02*
G01X0804350Y-4119840D01*
G01X0806700Y-4119840D02*
G01X0806700Y-4094640D01*
G01X0787050Y-4094640D02*
G01X0787050Y-4119840D01*
G01X0787050Y-4119840D02*
G01X0777610Y-4119840D01*
G01X0777610Y-4119840D02*
G01X0777610Y-4094640D01*
G01X0777610Y-4094640D02*
G01X0787050Y-4094640D01*
G01X0779960Y-4094640D02*
G01X0779960Y-4119840D01*
G01X0782310Y-4119840D02*
G01X0782310Y-4094640D01*
G01X0784660Y-4094640D02*
G01X0784660Y-4119840D01*
G01X0787010Y-4119840D02*
G01X0787010Y-4094640D01*
G01X0767370Y-4094640D02*
G01X0767370Y-4119840D01*
G01X0767370Y-4119840D02*
G01X0757930Y-4119840D01*
G01X0757930Y-4119840D02*
G01X0757930Y-4094640D01*
G01X0757930Y-4094640D02*
G01X0767370Y-4094640D01*
G01X0760280Y-4094640D02*
G01X0760280Y-4119840D01*
G01X0762630Y-4119840D02*
G01X0762630Y-4094640D01*
G01X0764980Y-4094640D02*
G01X0764980Y-4119840D01*
G01X0767330Y-4119840D02*
G01X0767330Y-4094640D01*
G01X0747680Y-4094640D02*
G01X0747680Y-4119840D01*
G01X0747680Y-4119840D02*
G01X0738240Y-4119840D01*
G01X0738240Y-4119840D02*
G01X0738240Y-4094640D01*
G01X0738240Y-4094640D02*
G01X0747680Y-4094640D01*
G01X0740590Y-4094640D02*
G01X0740590Y-4119840D01*
G01X0742940Y-4119840D02*
G01X0742940Y-4094640D01*
G01X0745290Y-4094640D02*
G01X0745290Y-4119840D01*
G01X0747640Y-4119840D02*
G01X0747640Y-4094640D01*
G01X0747680Y-4208820D02*
G01X0747680Y-4234020D01*
G01X0747680Y-4234020D02*
G01X0738240Y-4234020D01*
G01X0738240Y-4234020D02*
G01X0738240Y-4208820D01*
G01X0738240Y-4208820D02*
G01X0747680Y-4208820D01*
G01X0740590Y-4208820D02*
G01X0740590Y-4234020D01*
G01X0742940Y-4234020D02*
G01X0742940Y-4208820D01*
G01X0745290Y-4208820D02*
G01X0745290Y-4234020D01*
G01X0747640Y-4234020D02*
G01X0747640Y-4208820D01*
G01X0767370Y-4208820D02*
G01X0767370Y-4234020D01*
G01X0767370Y-4234020D02*
G01X0757930Y-4234020D01*
G01X0757930Y-4234020D02*
G01X0757930Y-4208820D01*
G01X0757930Y-4208820D02*
G01X0767370Y-4208820D01*
G01X0760280Y-4208820D02*
G01X0760280Y-4234020D01*
G01X0762630Y-4234020D02*
G01X0762630Y-4208820D01*
G01X0764980Y-4208820D02*
G01X0764980Y-4234020D01*
G01X0767330Y-4234020D02*
G01X0767330Y-4208820D01*
G01X0787050Y-4208820D02*
G01X0787050Y-4234020D01*
G01X0787050Y-4234020D02*
G01X0777610Y-4234020D01*
G01X0777610Y-4234020D02*
G01X0777610Y-4208820D01*
G01X0777610Y-4208820D02*
G01X0787050Y-4208820D01*
G01X0779960Y-4208820D02*
G01X0779960Y-4234020D01*
G01X0782310Y-4234020D02*
G01X0782310Y-4208820D01*
G01X0784660Y-4208820D02*
G01X0784660Y-4234020D01*
G01X0787010Y-4234020D02*
G01X0787010Y-4208820D01*
G01X0806740Y-4208820D02*
G01X0806740Y-4234020D01*
G01X0806740Y-4234020D02*
G01X0797300Y-4234020D01*
G01X0797300Y-4234020D02*
G01X0797300Y-4208820D01*
G01X0797300Y-4208820D02*
G01X0806740Y-4208820D01*
G01X0799650Y-4208820D02*
G01X0799650Y-4234020D01*
G01X0802000Y-4234020D02*
G01X0802000Y-4208820D01*
G01X0804350Y-4208820D02*
G01X0804350Y-4234020D01*
G01X0806700Y-4234020D02*
G01X0806700Y-4208820D01*
G01X0826420Y-4208820D02*
G01X0826420Y-4234020D01*
G01X0826420Y-4234020D02*
G01X0816980Y-4234020D01*
G01X0816980Y-4234020D02*
G01X0816980Y-4208820D01*
G01X0816980Y-4208820D02*
G01X0826420Y-4208820D01*
G01X0819330Y-4208820D02*
G01X0819330Y-4234020D01*
G01X0821680Y-4234020D02*
G01X0821680Y-4208820D01*
G01X0824030Y-4208820D02*
G01X0824030Y-4234020D01*
G01X0826380Y-4234020D02*
G01X0826380Y-4208820D01*
G01X2060180Y-3484020D02*
G01X2060180Y-3458820D01*
G01X2060180Y-3484020D02*
G01X2050740Y-3484020D01*
G01X2050740Y-3484020D02*
G01X2050740Y-3458820D01*
G01X2050740Y-3458820D02*
G01X2060180Y-3458820D01*
G01X2053090Y-3458820D02*
G01X2053090Y-3484020D01*
G01X2055440Y-3484020D02*
G01X2055440Y-3458820D01*
G01X2057790Y-3458820D02*
G01X2057790Y-3484020D01*
G01X2060140Y-3484020D02*
G01X2060140Y-3458820D01*
G01X2079870Y-3458820D02*
G01X2079870Y-3484020D01*
G01X2079870Y-3484020D02*
G01X2070430Y-3484020D01*
G01X2070430Y-3484020D02*
G01X2070430Y-3458820D01*
G01X2070430Y-3458820D02*
G01X2079870Y-3458820D01*
G01X2072780Y-3458820D02*
G01X2072780Y-3484020D01*
G01X2075130Y-3484020D02*
G01X2075130Y-3458820D01*
G01X2077480Y-3458820D02*
G01X2077480Y-3484020D01*
G01X2079830Y-3484020D02*
G01X2079830Y-3458820D01*
G01X2099550Y-3458820D02*
G01X2099550Y-3484020D01*
G01X2099550Y-3484020D02*
G01X2090110Y-3484020D01*
G01X2090110Y-3484020D02*
G01X2090110Y-3458820D01*
G01X2090110Y-3458820D02*
G01X2099550Y-3458820D01*
G01X2092460Y-3458820D02*
G01X2092460Y-3484020D01*
G01X2094810Y-3484020D02*
G01X2094810Y-3458820D01*
G01X2097160Y-3458820D02*
G01X2097160Y-3484020D01*
G01X2099510Y-3484020D02*
G01X2099510Y-3458820D01*
G01X2119240Y-3458820D02*
G01X2119240Y-3484020D01*
G01X2119240Y-3484020D02*
G01X2109800Y-3484020D01*
G01X2109800Y-3484020D02*
G01X2109800Y-3458820D01*
G01X2109800Y-3458820D02*
G01X2119240Y-3458820D01*
G01X2112150Y-3458820D02*
G01X2112150Y-3484020D01*
G01X2114500Y-3484020D02*
G01X2114500Y-3458820D01*
G01X2116850Y-3458820D02*
G01X2116850Y-3484020D01*
G01X2119200Y-3484020D02*
G01X2119200Y-3458820D01*
G01X2138920Y-3458820D02*
G01X2138920Y-3484020D01*
G01X2138920Y-3484020D02*
G01X2129480Y-3484020D01*
G01X2129480Y-3484020D02*
G01X2129480Y-3458820D01*
G01X2129480Y-3458820D02*
G01X2138920Y-3458820D01*
G01X2131830Y-3458820D02*
G01X2131830Y-3484020D01*
G01X2134180Y-3484020D02*
G01X2134180Y-3458820D01*
G01X2136530Y-3458820D02*
G01X2136530Y-3484020D01*
G01X2138880Y-3484020D02*
G01X2138880Y-3458820D01*
G01X2138920Y-3369840D02*
G01X2138920Y-3344640D01*
G01X2138920Y-3369840D02*
G01X2129480Y-3369840D01*
G01X2129480Y-3369840D02*
G01X2129480Y-3344640D01*
G01X2129480Y-3344640D02*
G01X2138920Y-3344640D01*
G01X2131830Y-3344640D02*
G01X2131830Y-3369840D01*
G01X2134180Y-3369840D02*
G01X2134180Y-3344640D01*
G01X2136530Y-3344640D02*
G01X2136530Y-3369840D01*
G01X2138880Y-3369840D02*
G01X2138880Y-3344640D01*
G01X2119240Y-3344640D02*
G01X2119240Y-3369840D01*
G01X2119240Y-3369840D02*
G01X2109800Y-3369840D01*
G01X2109800Y-3369840D02*
G01X2109800Y-3344640D01*
G01X2109800Y-3344640D02*
G01X2119240Y-3344640D01*
G01X2112150Y-3344640D02*
G01X2112150Y-3369840D01*
G01X2114500Y-3369840D02*
G01X2114500Y-3344640D01*
G01X2116850Y-3344640D02*
G01X2116850Y-3369840D01*
G01X2119200Y-3369840D02*
G01X2119200Y-3344640D01*
G01X2099550Y-3344640D02*
G01X2099550Y-3369840D01*
G01X2099550Y-3369840D02*
G01X2090110Y-3369840D01*
G01X2090110Y-3369840D02*
G01X2090110Y-3344640D01*
G01X2090110Y-3344640D02*
G01X2099550Y-3344640D01*
G01X2092460Y-3344640D02*
G01X2092460Y-3369840D01*
G01X2094810Y-3369840D02*
G01X2094810Y-3344640D01*
G01X2097160Y-3344640D02*
G01X2097160Y-3369840D01*
G01X2099510Y-3369840D02*
G01X2099510Y-3344640D01*
G01X2079870Y-3344640D02*
G01X2079870Y-3369840D01*
G01X2079870Y-3369840D02*
G01X2070430Y-3369840D01*
G01X2070430Y-3369840D02*
G01X2070430Y-3344640D01*
G01X2070430Y-3344640D02*
G01X2079870Y-3344640D01*
G01X2072780Y-3344640D02*
G01X2072780Y-3369840D01*
G01X2075130Y-3369840D02*
G01X2075130Y-3344640D01*
G01X2077480Y-3344640D02*
G01X2077480Y-3369840D01*
G01X2079830Y-3369840D02*
G01X2079830Y-3344640D01*
G01X2060180Y-3344640D02*
G01X2060180Y-3369840D01*
G01X2060180Y-3369840D02*
G01X2050740Y-3369840D01*
G01X2050740Y-3369840D02*
G01X2050740Y-3344640D01*
G01X2050740Y-3344640D02*
G01X2060180Y-3344640D01*
G01X2053090Y-3344640D02*
G01X2053090Y-3369840D01*
G01X2055440Y-3369840D02*
G01X2055440Y-3344640D01*
G01X2057790Y-3344640D02*
G01X2057790Y-3369840D01*
G01X2060140Y-3369840D02*
G01X2060140Y-3344640D01*
G01X2262640Y-2773980D02*
G01X2287840Y-2773980D01*
G01X2287840Y-2773980D02*
G01X2287840Y-2783420D01*
G01X2287840Y-2783420D02*
G01X2262640Y-2783420D01*
G01X2262640Y-2783420D02*
G01X2262640Y-2773980D01*
G01X2264990Y-2773980D02*
G01X2264990Y-2783420D01*
G01X2267340Y-2783420D02*
G01X2267340Y-2773980D01*
G01X2269690Y-2773980D02*
G01X2269690Y-2783420D01*
G01X2272040Y-2783420D02*
G01X2272040Y-2773980D01*
G01X2274390Y-2773980D02*
G01X2274390Y-2783420D01*
G01X2276740Y-2783420D02*
G01X2276740Y-2773980D01*
G01X2279090Y-2773980D02*
G01X2279090Y-2783420D01*
G01X2281440Y-2783420D02*
G01X2281440Y-2773980D01*
G01X2283790Y-2773980D02*
G01X2283790Y-2783420D01*
G01X2286140Y-2783420D02*
G01X2286140Y-2773980D01*
G01X2287840Y-2754300D02*
G01X2262640Y-2754300D01*
G01X2287840Y-2754300D02*
G01X2287840Y-2763740D01*
G01X2287840Y-2763740D02*
G01X2262640Y-2763740D01*
G01X2262640Y-2763740D02*
G01X2262640Y-2754300D01*
G01X2264990Y-2754300D02*
G01X2264990Y-2763740D01*
G01X2267340Y-2763740D02*
G01X2267340Y-2754300D01*
G01X2269690Y-2754300D02*
G01X2269690Y-2763740D01*
G01X2272040Y-2763740D02*
G01X2272040Y-2754300D01*
G01X2274390Y-2754300D02*
G01X2274390Y-2763740D01*
G01X2276740Y-2763740D02*
G01X2276740Y-2754300D01*
G01X2279090Y-2754300D02*
G01X2279090Y-2763740D01*
G01X2281440Y-2763740D02*
G01X2281440Y-2754300D01*
G01X2283790Y-2754300D02*
G01X2283790Y-2763740D01*
G01X2286140Y-2763740D02*
G01X2286140Y-2754300D01*
G01X2287840Y-2734610D02*
G01X2262640Y-2734610D01*
G01X2287840Y-2734610D02*
G01X2287840Y-2744050D01*
G01X2287840Y-2744050D02*
G01X2262640Y-2744050D01*
G01X2262640Y-2744050D02*
G01X2262640Y-2734610D01*
G01X2264990Y-2734610D02*
G01X2264990Y-2744050D01*
G01X2267340Y-2744050D02*
G01X2267340Y-2734610D01*
G01X2269690Y-2734610D02*
G01X2269690Y-2744050D01*
G01X2272040Y-2744050D02*
G01X2272040Y-2734610D01*
G01X2274390Y-2734610D02*
G01X2274390Y-2744050D01*
G01X2276740Y-2744050D02*
G01X2276740Y-2734610D01*
G01X2279090Y-2734610D02*
G01X2279090Y-2744050D01*
G01X2281440Y-2744050D02*
G01X2281440Y-2734610D01*
G01X2283790Y-2734610D02*
G01X2283790Y-2744050D01*
G01X2286140Y-2744050D02*
G01X2286140Y-2734610D01*
G01X2287840Y-2714930D02*
G01X2262640Y-2714930D01*
G01X2287840Y-2714930D02*
G01X2287840Y-2724370D01*
G01X2287840Y-2724370D02*
G01X2262640Y-2724370D01*
G01X2262640Y-2724370D02*
G01X2262640Y-2714930D01*
G01X2264990Y-2714930D02*
G01X2264990Y-2724370D01*
G01X2267340Y-2724370D02*
G01X2267340Y-2714930D01*
G01X2269690Y-2714930D02*
G01X2269690Y-2724370D01*
G01X2272040Y-2724370D02*
G01X2272040Y-2714930D01*
G01X2274390Y-2714930D02*
G01X2274390Y-2724370D01*
G01X2276740Y-2724370D02*
G01X2276740Y-2714930D01*
G01X2279090Y-2714930D02*
G01X2279090Y-2724370D01*
G01X2281440Y-2724370D02*
G01X2281440Y-2714930D01*
G01X2283790Y-2714930D02*
G01X2283790Y-2724370D01*
G01X2286140Y-2724370D02*
G01X2286140Y-2714930D01*
G01X2287840Y-2695240D02*
G01X2262640Y-2695240D01*
G01X2287840Y-2695240D02*
G01X2287840Y-2704680D01*
G01X2287840Y-2704680D02*
G01X2262640Y-2704680D01*
G01X2262640Y-2704680D02*
G01X2262640Y-2695240D01*
G01X2264990Y-2695240D02*
G01X2264990Y-2704680D01*
G01X2267340Y-2704680D02*
G01X2267340Y-2695240D01*
G01X2269690Y-2695240D02*
G01X2269690Y-2704680D01*
G01X2272040Y-2704680D02*
G01X2272040Y-2695240D01*
G01X2274390Y-2695240D02*
G01X2274390Y-2704680D01*
G01X2276740Y-2704680D02*
G01X2276740Y-2695240D01*
G01X2279090Y-2695240D02*
G01X2279090Y-2704680D01*
G01X2281440Y-2704680D02*
G01X2281440Y-2695240D01*
G01X2283790Y-2695240D02*
G01X2283790Y-2704680D01*
G01X2286140Y-2704680D02*
G01X2286140Y-2695240D01*
G01X2376820Y-2695240D02*
G01X2402020Y-2695240D01*
G01X2402020Y-2695240D02*
G01X2402020Y-2704680D01*
G01X2402020Y-2704680D02*
G01X2376820Y-2704680D01*
G01X2376820Y-2704680D02*
G01X2376820Y-2695240D01*
G01X2379170Y-2695240D02*
G01X2379170Y-2704680D01*
G01X2381520Y-2704680D02*
G01X2381520Y-2695240D01*
G01X2383870Y-2695240D02*
G01X2383870Y-2704680D01*
G01X2386220Y-2704680D02*
G01X2386220Y-2695240D01*
G01X2388570Y-2695240D02*
G01X2388570Y-2704680D01*
G01X2390920Y-2704680D02*
G01X2390920Y-2695240D01*
G01X2393270Y-2695240D02*
G01X2393270Y-2704680D01*
G01X2395620Y-2704680D02*
G01X2395620Y-2695240D01*
G01X2397970Y-2695240D02*
G01X2397970Y-2704680D01*
G01X2400320Y-2704680D02*
G01X2400320Y-2695240D01*
G01X2402020Y-2714930D02*
G01X2376820Y-2714930D01*
G01X2402020Y-2714930D02*
G01X2402020Y-2724370D01*
G01X2402020Y-2724370D02*
G01X2376820Y-2724370D01*
G01X2376820Y-2724370D02*
G01X2376820Y-2714930D01*
G01X2379170Y-2714930D02*
G01X2379170Y-2724370D01*
G01X2381520Y-2724370D02*
G01X2381520Y-2714930D01*
G01X2383870Y-2714930D02*
G01X2383870Y-2724370D01*
G01X2386220Y-2724370D02*
G01X2386220Y-2714930D01*
G01X2388570Y-2714930D02*
G01X2388570Y-2724370D01*
G01X2390920Y-2724370D02*
G01X2390920Y-2714930D01*
G01X2393270Y-2714930D02*
G01X2393270Y-2724370D01*
G01X2395620Y-2724370D02*
G01X2395620Y-2714930D01*
G01X2397970Y-2714930D02*
G01X2397970Y-2724370D01*
G01X2400320Y-2724370D02*
G01X2400320Y-2714930D01*
G01X2402020Y-2734610D02*
G01X2376820Y-2734610D01*
G01X2402020Y-2734610D02*
G01X2402020Y-2744050D01*
G01X2402020Y-2744050D02*
G01X2376820Y-2744050D01*
G01X2376820Y-2744050D02*
G01X2376820Y-2734610D01*
G01X2379170Y-2734610D02*
G01X2379170Y-2744050D01*
G01X2381520Y-2744050D02*
G01X2381520Y-2734610D01*
G01X2383870Y-2734610D02*
G01X2383870Y-2744050D01*
G01X2386220Y-2744050D02*
G01X2386220Y-2734610D01*
G01X2388570Y-2734610D02*
G01X2388570Y-2744050D01*
G01X2390920Y-2744050D02*
G01X2390920Y-2734610D01*
G01X2393270Y-2734610D02*
G01X2393270Y-2744050D01*
G01X2395620Y-2744050D02*
G01X2395620Y-2734610D01*
G01X2397970Y-2734610D02*
G01X2397970Y-2744050D01*
G01X2400320Y-2744050D02*
G01X2400320Y-2734610D01*
G01X2402020Y-2754300D02*
G01X2376820Y-2754300D01*
G01X2402020Y-2754300D02*
G01X2402020Y-2763740D01*
G01X2402020Y-2763740D02*
G01X2376820Y-2763740D01*
G01X2376820Y-2763740D02*
G01X2376820Y-2754300D01*
G01X2379170Y-2754300D02*
G01X2379170Y-2763740D01*
G01X2381520Y-2763740D02*
G01X2381520Y-2754300D01*
G01X2383870Y-2754300D02*
G01X2383870Y-2763740D01*
G01X2386220Y-2763740D02*
G01X2386220Y-2754300D01*
G01X2388570Y-2754300D02*
G01X2388570Y-2763740D01*
G01X2390920Y-2763740D02*
G01X2390920Y-2754300D01*
G01X2393270Y-2754300D02*
G01X2393270Y-2763740D01*
G01X2395620Y-2763740D02*
G01X2395620Y-2754300D01*
G01X2397970Y-2754300D02*
G01X2397970Y-2763740D01*
G01X2400320Y-2763740D02*
G01X2400320Y-2754300D01*
G01X2402020Y-2773980D02*
G01X2376820Y-2773980D01*
G01X2402020Y-2773980D02*
G01X2402020Y-2783420D01*
G01X2402020Y-2783420D02*
G01X2376820Y-2783420D01*
G01X2376820Y-2783420D02*
G01X2376820Y-2773980D01*
G01X2379170Y-2773980D02*
G01X2379170Y-2783420D01*
G01X2381520Y-2783420D02*
G01X2381520Y-2773980D01*
G01X2383870Y-2773980D02*
G01X2383870Y-2783420D01*
G01X2386220Y-2783420D02*
G01X2386220Y-2773980D01*
G01X2388570Y-2773980D02*
G01X2388570Y-2783420D01*
G01X2390920Y-2783420D02*
G01X2390920Y-2773980D01*
G01X2393270Y-2773980D02*
G01X2393270Y-2783420D01*
G01X2395620Y-2783420D02*
G01X2395620Y-2773980D01*
G01X2397970Y-2773980D02*
G01X2397970Y-2783420D01*
G01X2400320Y-2783420D02*
G01X2400320Y-2773980D01*
G01X2402020Y-2023980D02*
G01X2376820Y-2023980D01*
G01X2402020Y-2023980D02*
G01X2402020Y-2033420D01*
G01X2402020Y-2033420D02*
G01X2376820Y-2033420D01*
G01X2376820Y-2033420D02*
G01X2376820Y-2023980D01*
G01X2379170Y-2023980D02*
G01X2379170Y-2033420D01*
G01X2381520Y-2033420D02*
G01X2381520Y-2023980D01*
G01X2383870Y-2023980D02*
G01X2383870Y-2033420D01*
G01X2386220Y-2033420D02*
G01X2386220Y-2023980D01*
G01X2388570Y-2023980D02*
G01X2388570Y-2033420D01*
G01X2390920Y-2033420D02*
G01X2390920Y-2023980D01*
G01X2393270Y-2023980D02*
G01X2393270Y-2033420D01*
G01X2395620Y-2033420D02*
G01X2395620Y-2023980D01*
G01X2397970Y-2023980D02*
G01X2397970Y-2033420D01*
G01X2400320Y-2033420D02*
G01X2400320Y-2023980D01*
G01X2402020Y-2004300D02*
G01X2376820Y-2004300D01*
G01X2402020Y-2004300D02*
G01X2402020Y-2013740D01*
G01X2402020Y-2013740D02*
G01X2376820Y-2013740D01*
G01X2376820Y-2013740D02*
G01X2376820Y-2004300D01*
G01X2379170Y-2004300D02*
G01X2379170Y-2013740D01*
G01X2381520Y-2013740D02*
G01X2381520Y-2004300D01*
G01X2383870Y-2004300D02*
G01X2383870Y-2013740D01*
G01X2386220Y-2013740D02*
G01X2386220Y-2004300D01*
G01X2388570Y-2004300D02*
G01X2388570Y-2013740D01*
G01X2390920Y-2013740D02*
G01X2390920Y-2004300D01*
G01X2393270Y-2004300D02*
G01X2393270Y-2013740D01*
G01X2395620Y-2013740D02*
G01X2395620Y-2004300D01*
G01X2397970Y-2004300D02*
G01X2397970Y-2013740D01*
G01X2400320Y-2013740D02*
G01X2400320Y-2004300D01*
G01X2402020Y-1984610D02*
G01X2376820Y-1984610D01*
G01X2402020Y-1984610D02*
G01X2402020Y-1994050D01*
G01X2402020Y-1994050D02*
G01X2376820Y-1994050D01*
G01X2376820Y-1994050D02*
G01X2376820Y-1984610D01*
G01X2379170Y-1984610D02*
G01X2379170Y-1994050D01*
G01X2381520Y-1994050D02*
G01X2381520Y-1984610D01*
G01X2383870Y-1984610D02*
G01X2383870Y-1994050D01*
G01X2386220Y-1994050D02*
G01X2386220Y-1984610D01*
G01X2388570Y-1984610D02*
G01X2388570Y-1994050D01*
G01X2390920Y-1994050D02*
G01X2390920Y-1984610D01*
G01X2393270Y-1984610D02*
G01X2393270Y-1994050D01*
G01X2395620Y-1994050D02*
G01X2395620Y-1984610D01*
G01X2397970Y-1984610D02*
G01X2397970Y-1994050D01*
G01X2400320Y-1994050D02*
G01X2400320Y-1984610D01*
G01X2402020Y-1964930D02*
G01X2376820Y-1964930D01*
G01X2402020Y-1964930D02*
G01X2402020Y-1974370D01*
G01X2402020Y-1974370D02*
G01X2376820Y-1974370D01*
G01X2376820Y-1974370D02*
G01X2376820Y-1964930D01*
G01X2379170Y-1964930D02*
G01X2379170Y-1974370D01*
G01X2381520Y-1974370D02*
G01X2381520Y-1964930D01*
G01X2383870Y-1964930D02*
G01X2383870Y-1974370D01*
G01X2386220Y-1974370D02*
G01X2386220Y-1964930D01*
G01X2388570Y-1964930D02*
G01X2388570Y-1974370D01*
G01X2390920Y-1974370D02*
G01X2390920Y-1964930D01*
G01X2393270Y-1964930D02*
G01X2393270Y-1974370D01*
G01X2395620Y-1974370D02*
G01X2395620Y-1964930D01*
G01X2397970Y-1964930D02*
G01X2397970Y-1974370D01*
G01X2400320Y-1974370D02*
G01X2400320Y-1964930D01*
G01X2402020Y-1945240D02*
G01X2376820Y-1945240D01*
G01X2402020Y-1945240D02*
G01X2402020Y-1954680D01*
G01X2402020Y-1954680D02*
G01X2376820Y-1954680D01*
G01X2376820Y-1954680D02*
G01X2376820Y-1945240D01*
G01X2379170Y-1945240D02*
G01X2379170Y-1954680D01*
G01X2381520Y-1954680D02*
G01X2381520Y-1945240D01*
G01X2383870Y-1945240D02*
G01X2383870Y-1954680D01*
G01X2386220Y-1954680D02*
G01X2386220Y-1945240D01*
G01X2388570Y-1945240D02*
G01X2388570Y-1954680D01*
G01X2390920Y-1954680D02*
G01X2390920Y-1945240D01*
G01X2393270Y-1945240D02*
G01X2393270Y-1954680D01*
G01X2395620Y-1954680D02*
G01X2395620Y-1945240D01*
G01X2397970Y-1945240D02*
G01X2397970Y-1954680D01*
G01X2400320Y-1954680D02*
G01X2400320Y-1945240D01*
G01X2287840Y-1945240D02*
G01X2262640Y-1945240D01*
G01X2287840Y-1945240D02*
G01X2287840Y-1954680D01*
G01X2287840Y-1954680D02*
G01X2262640Y-1954680D01*
G01X2262640Y-1954680D02*
G01X2262640Y-1945240D01*
G01X2264990Y-1945240D02*
G01X2264990Y-1954680D01*
G01X2267340Y-1954680D02*
G01X2267340Y-1945240D01*
G01X2269690Y-1945240D02*
G01X2269690Y-1954680D01*
G01X2272040Y-1954680D02*
G01X2272040Y-1945240D01*
G01X2274390Y-1945240D02*
G01X2274390Y-1954680D01*
G01X2276740Y-1954680D02*
G01X2276740Y-1945240D01*
G01X2279090Y-1945240D02*
G01X2279090Y-1954680D01*
G01X2281440Y-1954680D02*
G01X2281440Y-1945240D01*
G01X2283790Y-1945240D02*
G01X2283790Y-1954680D01*
G01X2286140Y-1954680D02*
G01X2286140Y-1945240D01*
G01X2287840Y-1964930D02*
G01X2262640Y-1964930D01*
G01X2287840Y-1964930D02*
G01X2287840Y-1974370D01*
G01X2287840Y-1974370D02*
G01X2262640Y-1974370D01*
G01X2262640Y-1974370D02*
G01X2262640Y-1964930D01*
G01X2264990Y-1964930D02*
G01X2264990Y-1974370D01*
G01X2267340Y-1974370D02*
G01X2267340Y-1964930D01*
G01X2269690Y-1964930D02*
G01X2269690Y-1974370D01*
G01X2272040Y-1974370D02*
G01X2272040Y-1964930D01*
G01X2274390Y-1964930D02*
G01X2274390Y-1974370D01*
G01X2276740Y-1974370D02*
G01X2276740Y-1964930D01*
G01X2279090Y-1964930D02*
G01X2279090Y-1974370D01*
G01X2281440Y-1974370D02*
G01X2281440Y-1964930D01*
G01X2283790Y-1964930D02*
G01X2283790Y-1974370D01*
G01X2286140Y-1974370D02*
G01X2286140Y-1964930D01*
G01X2287840Y-1984610D02*
G01X2262640Y-1984610D01*
G01X2287840Y-1984610D02*
G01X2287840Y-1994050D01*
G01X2287840Y-1994050D02*
G01X2262640Y-1994050D01*
G01X2262640Y-1994050D02*
G01X2262640Y-1984610D01*
G01X2264990Y-1984610D02*
G01X2264990Y-1994050D01*
G01X2267340Y-1994050D02*
G01X2267340Y-1984610D01*
G01X2269690Y-1984610D02*
G01X2269690Y-1994050D01*
G01X2272040Y-1994050D02*
G01X2272040Y-1984610D01*
G01X2274390Y-1984610D02*
G01X2274390Y-1994050D01*
G01X2276740Y-1994050D02*
G01X2276740Y-1984610D01*
G01X2279090Y-1984610D02*
G01X2279090Y-1994050D01*
G01X2281440Y-1994050D02*
G01X2281440Y-1984610D01*
G01X2283790Y-1984610D02*
G01X2283790Y-1994050D01*
G01X2286140Y-1994050D02*
G01X2286140Y-1984610D01*
G01X2287840Y-2004300D02*
G01X2262640Y-2004300D01*
G01X2287840Y-2004300D02*
G01X2287840Y-2013740D01*
G01X2287840Y-2013740D02*
G01X2262640Y-2013740D01*
G01X2262640Y-2013740D02*
G01X2262640Y-2004300D01*
G01X2264990Y-2004300D02*
G01X2264990Y-2013740D01*
G01X2267340Y-2013740D02*
G01X2267340Y-2004300D01*
G01X2269690Y-2004300D02*
G01X2269690Y-2013740D01*
G01X2272040Y-2013740D02*
G01X2272040Y-2004300D01*
G01X2274390Y-2004300D02*
G01X2274390Y-2013740D01*
G01X2276740Y-2013740D02*
G01X2276740Y-2004300D01*
G01X2279090Y-2004300D02*
G01X2279090Y-2013740D01*
G01X2281440Y-2013740D02*
G01X2281440Y-2004300D01*
G01X2283790Y-2004300D02*
G01X2283790Y-2013740D01*
G01X2286140Y-2013740D02*
G01X2286140Y-2004300D01*
G01X2287840Y-2023980D02*
G01X2262640Y-2023980D01*
G01X2287840Y-2023980D02*
G01X2287840Y-2033420D01*
G01X2287840Y-2033420D02*
G01X2262640Y-2033420D01*
G01X2262640Y-2033420D02*
G01X2262640Y-2023980D01*
G01X2264990Y-2023980D02*
G01X2264990Y-2033420D01*
G01X2267340Y-2033420D02*
G01X2267340Y-2023980D01*
G01X2269690Y-2023980D02*
G01X2269690Y-2033420D01*
G01X2272040Y-2033420D02*
G01X2272040Y-2023980D01*
G01X2274390Y-2023980D02*
G01X2274390Y-2033420D01*
G01X2276740Y-2033420D02*
G01X2276740Y-2023980D01*
G01X2279090Y-2023980D02*
G01X2279090Y-2033420D01*
G01X2281440Y-2033420D02*
G01X2281440Y-2023980D01*
G01X2283790Y-2023980D02*
G01X2283790Y-2033420D01*
G01X2286140Y-2033420D02*
G01X2286140Y-2023980D01*
G01X1816980Y-1184020D02*
G01X1816980Y-1158820D01*
G01X1816980Y-1158820D02*
G01X1826420Y-1158820D01*
G01X1826420Y-1158820D02*
G01X1826420Y-1184020D01*
G01X1826420Y-1184020D02*
G01X1816980Y-1184020D01*
G01X1819330Y-1184020D02*
G01X1819330Y-1158820D01*
G01X1821680Y-1158820D02*
G01X1821680Y-1184020D01*
G01X1824030Y-1184020D02*
G01X1824030Y-1158820D01*
G01X1826380Y-1158820D02*
G01X1826380Y-1184020D01*
G01X1797300Y-1184020D02*
G01X1797300Y-1158820D01*
G01X1797300Y-1158820D02*
G01X1806740Y-1158820D01*
G01X1806740Y-1158820D02*
G01X1806740Y-1184020D01*
G01X1806740Y-1184020D02*
G01X1797300Y-1184020D01*
G01X1799650Y-1184020D02*
G01X1799650Y-1158820D01*
G01X1802000Y-1158820D02*
G01X1802000Y-1184020D01*
G01X1804350Y-1184020D02*
G01X1804350Y-1158820D01*
G01X1806700Y-1158820D02*
G01X1806700Y-1184020D01*
G01X1777610Y-1184020D02*
G01X1777610Y-1158820D01*
G01X1777610Y-1158820D02*
G01X1787050Y-1158820D01*
G01X1787050Y-1158820D02*
G01X1787050Y-1184020D01*
G01X1787050Y-1184020D02*
G01X1777610Y-1184020D01*
G01X1779960Y-1184020D02*
G01X1779960Y-1158820D01*
G01X1782310Y-1158820D02*
G01X1782310Y-1184020D01*
G01X1784660Y-1184020D02*
G01X1784660Y-1158820D01*
G01X1787010Y-1158820D02*
G01X1787010Y-1184020D01*
G01X1757930Y-1184020D02*
G01X1757930Y-1158820D01*
G01X1757930Y-1158820D02*
G01X1767370Y-1158820D01*
G01X1767370Y-1158820D02*
G01X1767370Y-1184020D01*
G01X1767370Y-1184020D02*
G01X1757930Y-1184020D01*
G01X1760280Y-1184020D02*
G01X1760280Y-1158820D01*
G01X1762630Y-1158820D02*
G01X1762630Y-1184020D01*
G01X1764980Y-1184020D02*
G01X1764980Y-1158820D01*
G01X1767330Y-1158820D02*
G01X1767330Y-1184020D01*
G01X1738240Y-1184020D02*
G01X1738240Y-1158820D01*
G01X1738240Y-1158820D02*
G01X1747680Y-1158820D01*
G01X1747680Y-1158820D02*
G01X1747680Y-1184020D01*
G01X1747680Y-1184020D02*
G01X1738240Y-1184020D01*
G01X1740590Y-1184020D02*
G01X1740590Y-1158820D01*
G01X1742940Y-1158820D02*
G01X1742940Y-1184020D01*
G01X1745290Y-1184020D02*
G01X1745290Y-1158820D01*
G01X1747640Y-1158820D02*
G01X1747640Y-1184020D01*
G01X1738240Y-1069840D02*
G01X1738240Y-1044640D01*
G01X1738240Y-1044640D02*
G01X1747680Y-1044640D01*
G01X1747680Y-1044640D02*
G01X1747680Y-1069840D01*
G01X1747680Y-1069840D02*
G01X1738240Y-1069840D01*
G01X1740590Y-1069840D02*
G01X1740590Y-1044640D01*
G01X1742940Y-1044640D02*
G01X1742940Y-1069840D01*
G01X1745290Y-1069840D02*
G01X1745290Y-1044640D01*
G01X1747640Y-1044640D02*
G01X1747640Y-1069840D01*
G01X1757930Y-1069840D02*
G01X1757930Y-1044640D01*
G01X1757930Y-1044640D02*
G01X1767370Y-1044640D01*
G01X1767370Y-1044640D02*
G01X1767370Y-1069840D01*
G01X1767370Y-1069840D02*
G01X1757930Y-1069840D01*
G01X1760280Y-1069840D02*
G01X1760280Y-1044640D01*
G01X1762630Y-1044640D02*
G01X1762630Y-1069840D01*
G01X1764980Y-1069840D02*
G01X1764980Y-1044640D01*
G01X1767330Y-1044640D02*
G01X1767330Y-1069840D01*
G01X1777610Y-1069840D02*
G01X1777610Y-1044640D01*
G01X1777610Y-1044640D02*
G01X1787050Y-1044640D01*
G01X1787050Y-1044640D02*
G01X1787050Y-1069840D01*
G01X1787050Y-1069840D02*
G01X1777610Y-1069840D01*
G01X1779960Y-1069840D02*
G01X1779960Y-1044640D01*
G01X1782310Y-1044640D02*
G01X1782310Y-1069840D01*
G01X1784660Y-1069840D02*
G01X1784660Y-1044640D01*
G01X1787010Y-1044640D02*
G01X1787010Y-1069840D01*
G01X1797300Y-1069840D02*
G01X1797300Y-1044640D01*
G01X1797300Y-1044640D02*
G01X1806740Y-1044640D01*
G01X1806740Y-1044640D02*
G01X1806740Y-1069840D01*
G01X1806740Y-1069840D02*
G01X1797300Y-1069840D01*
G01X1799650Y-1069840D02*
G01X1799650Y-1044640D01*
G01X1802000Y-1044640D02*
G01X1802000Y-1069840D01*
G01X1804350Y-1069840D02*
G01X1804350Y-1044640D01*
G01X1806700Y-1044640D02*
G01X1806700Y-1069840D01*
G01X1816980Y-1069840D02*
G01X1816980Y-1044640D01*
G01X1816980Y-1044640D02*
G01X1826420Y-1044640D01*
G01X1826420Y-1044640D02*
G01X1826420Y-1069840D01*
G01X1826420Y-1069840D02*
G01X1816980Y-1069840D01*
G01X1819330Y-1069840D02*
G01X1819330Y-1044640D01*
G01X1821680Y-1044640D02*
G01X1821680Y-1069840D01*
G01X1824030Y-1069840D02*
G01X1824030Y-1044640D01*
G01X1826380Y-1044640D02*
G01X1826380Y-1069840D01*
G01X2738240Y-4094640D02*
G01X2738240Y-4119840D01*
G01X2738240Y-4094640D02*
G01X2747680Y-4094640D01*
G01X2747680Y-4094640D02*
G01X2747680Y-4119840D01*
G01X2747680Y-4119840D02*
G01X2738240Y-4119840D01*
G01X2740590Y-4119840D02*
G01X2740590Y-4094640D01*
G01X2742940Y-4094640D02*
G01X2742940Y-4119840D01*
G01X2745290Y-4119840D02*
G01X2745290Y-4094640D01*
G01X2747640Y-4094640D02*
G01X2747640Y-4119840D01*
G01X2757930Y-4119840D02*
G01X2757930Y-4094640D01*
G01X2757930Y-4094640D02*
G01X2767370Y-4094640D01*
G01X2767370Y-4094640D02*
G01X2767370Y-4119840D01*
G01X2767370Y-4119840D02*
G01X2757930Y-4119840D01*
G01X2760280Y-4119840D02*
G01X2760280Y-4094640D01*
G01X2762630Y-4094640D02*
G01X2762630Y-4119840D01*
G01X2764980Y-4119840D02*
G01X2764980Y-4094640D01*
G01X2767330Y-4094640D02*
G01X2767330Y-4119840D01*
G01X2777610Y-4119840D02*
G01X2777610Y-4094640D01*
G01X2777610Y-4094640D02*
G01X2787050Y-4094640D01*
G01X2787050Y-4094640D02*
G01X2787050Y-4119840D01*
G01X2787050Y-4119840D02*
G01X2777610Y-4119840D01*
G01X2779960Y-4119840D02*
G01X2779960Y-4094640D01*
G01X2782310Y-4094640D02*
G01X2782310Y-4119840D01*
G01X2784660Y-4119840D02*
G01X2784660Y-4094640D01*
G01X2787010Y-4094640D02*
G01X2787010Y-4119840D01*
G01X2797300Y-4119840D02*
G01X2797300Y-4094640D01*
G01X2797300Y-4094640D02*
G01X2806740Y-4094640D01*
G01X2806740Y-4094640D02*
G01X2806740Y-4119840D01*
G01X2806740Y-4119840D02*
G01X2797300Y-4119840D01*
G01X2799650Y-4119840D02*
G01X2799650Y-4094640D01*
G01X2802000Y-4094640D02*
G01X2802000Y-4119840D01*
G01X2804350Y-4119840D02*
G01X2804350Y-4094640D01*
G01X2806700Y-4094640D02*
G01X2806700Y-4119840D01*
G01X2816980Y-4119840D02*
G01X2816980Y-4094640D01*
G01X2816980Y-4094640D02*
G01X2826420Y-4094640D01*
G01X2826420Y-4094640D02*
G01X2826420Y-4119840D01*
G01X2826420Y-4119840D02*
G01X2816980Y-4119840D01*
G01X2819330Y-4119840D02*
G01X2819330Y-4094640D01*
G01X2821680Y-4094640D02*
G01X2821680Y-4119840D01*
G01X2824030Y-4119840D02*
G01X2824030Y-4094640D01*
G01X2826380Y-4094640D02*
G01X2826380Y-4119840D01*
G01X2816980Y-4208820D02*
G01X2816980Y-4234020D01*
G01X2816980Y-4208820D02*
G01X2826420Y-4208820D01*
G01X2826420Y-4208820D02*
G01X2826420Y-4234020D01*
G01X2826420Y-4234020D02*
G01X2816980Y-4234020D01*
G01X2819330Y-4234020D02*
G01X2819330Y-4208820D01*
G01X2821680Y-4208820D02*
G01X2821680Y-4234020D01*
G01X2824030Y-4234020D02*
G01X2824030Y-4208820D01*
G01X2826380Y-4208820D02*
G01X2826380Y-4234020D01*
G01X2797300Y-4234020D02*
G01X2797300Y-4208820D01*
G01X2797300Y-4208820D02*
G01X2806740Y-4208820D01*
G01X2806740Y-4208820D02*
G01X2806740Y-4234020D01*
G01X2806740Y-4234020D02*
G01X2797300Y-4234020D01*
G01X2799650Y-4234020D02*
G01X2799650Y-4208820D01*
G01X2802000Y-4208820D02*
G01X2802000Y-4234020D01*
G01X2804350Y-4234020D02*
G01X2804350Y-4208820D01*
G01X2806700Y-4208820D02*
G01X2806700Y-4234020D01*
G01X2777610Y-4234020D02*
G01X2777610Y-4208820D01*
G01X2777610Y-4208820D02*
G01X2787050Y-4208820D01*
G01X2787050Y-4208820D02*
G01X2787050Y-4234020D01*
G01X2787050Y-4234020D02*
G01X2777610Y-4234020D01*
G01X2779960Y-4234020D02*
G01X2779960Y-4208820D01*
G01X2782310Y-4208820D02*
G01X2782310Y-4234020D01*
G01X2784660Y-4234020D02*
G01X2784660Y-4208820D01*
G01X2787010Y-4208820D02*
G01X2787010Y-4234020D01*
G01X2757930Y-4234020D02*
G01X2757930Y-4208820D01*
G01X2757930Y-4208820D02*
G01X2767370Y-4208820D01*
G01X2767370Y-4208820D02*
G01X2767370Y-4234020D01*
G01X2767370Y-4234020D02*
G01X2757930Y-4234020D01*
G01X2760280Y-4234020D02*
G01X2760280Y-4208820D01*
G01X2762630Y-4208820D02*
G01X2762630Y-4234020D01*
G01X2764980Y-4234020D02*
G01X2764980Y-4208820D01*
G01X2767330Y-4208820D02*
G01X2767330Y-4234020D01*
G01X2738240Y-4234020D02*
G01X2738240Y-4208820D01*
G01X2738240Y-4208820D02*
G01X2747680Y-4208820D01*
G01X2747680Y-4208820D02*
G01X2747680Y-4234020D01*
G01X2747680Y-4234020D02*
G01X2738240Y-4234020D01*
G01X2740590Y-4234020D02*
G01X2740590Y-4208820D01*
G01X2742940Y-4208820D02*
G01X2742940Y-4234020D01*
G01X2745290Y-4234020D02*
G01X2745290Y-4208820D01*
G01X2747640Y-4208820D02*
G01X2747640Y-4234020D01*
G54D24*
G01X2748870Y-4184020D03*
G01X2782330Y-4184020D03*
G01X2815800Y-4184020D03*
G01X2815800Y-4144650D03*
G01X2782330Y-4144650D03*
G01X2748870Y-4144650D03*
G01X2128300Y-3434020D03*
G01X2094830Y-3434020D03*
G01X2061370Y-3434020D03*
G01X2061370Y-3394650D03*
G01X2094830Y-3394650D03*
G01X2128300Y-3394650D03*
G01X2312650Y-2772800D03*
G01X2312650Y-2739330D03*
G01X2312650Y-2705870D03*
G01X2352020Y-2705870D03*
G01X2352020Y-2739330D03*
G01X2352020Y-2772800D03*
G01X2352020Y-2022800D03*
G01X2352020Y-1989330D03*
G01X2352020Y-1955870D03*
G01X2312650Y-1955870D03*
G01X2312650Y-1989330D03*
G01X2312650Y-2022800D03*
G01X1815800Y-1134020D03*
G01X1782330Y-1134020D03*
G01X1748870Y-1134020D03*
G01X1748870Y-1094650D03*
G01X1782330Y-1094650D03*
G01X1815800Y-1094650D03*
G01X1503300Y-1744650D03*
G01X1469830Y-1744650D03*
G01X1436370Y-1744650D03*
G01X1436370Y-1784020D03*
G01X1469830Y-1784020D03*
G01X1503300Y-1784020D03*
G01X1252020Y-2405870D03*
G01X1252020Y-2439330D03*
G01X1252020Y-2472800D03*
G01X1212650Y-2472800D03*
G01X1212650Y-2439330D03*
G01X1212650Y-2405870D03*
G01X1212650Y-3155870D03*
G01X1212650Y-3189330D03*
G01X1212650Y-3222800D03*
G01X1252020Y-3222800D03*
G01X1252020Y-3189330D03*
G01X1252020Y-3155870D03*
G01X0815800Y-4144650D03*
G01X0782330Y-4144650D03*
G01X0748870Y-4144650D03*
G01X0748870Y-4184020D03*
G01X0782330Y-4184020D03*
G01X0815800Y-4184020D03*
G54D16*
G01X2187530Y-3947630D02*
G01X2235130Y-3947630D01*
G01X2187530Y-3947630D02*
G01X2187530Y-3930030D01*
G01X2187530Y-3930030D02*
G01X2235130Y-3930030D01*
G01X2235130Y-3930030D02*
G01X2235130Y-3947630D01*
G01X2191920Y-3947630D02*
G01X2191920Y-3930030D01*
G01X2196310Y-3930030D02*
G01X2196310Y-3947630D01*
G01X2200700Y-3947630D02*
G01X2200700Y-3930030D01*
G01X2205090Y-3930030D02*
G01X2205090Y-3947630D01*
G01X2209480Y-3947630D02*
G01X2209480Y-3930030D01*
G01X2213870Y-3930030D02*
G01X2213870Y-3947630D01*
G01X2218260Y-3947630D02*
G01X2218260Y-3930030D01*
G01X2222650Y-3930030D02*
G01X2222650Y-3947630D01*
G01X2227040Y-3947630D02*
G01X2227040Y-3930030D01*
G01X2231430Y-3930030D02*
G01X2231430Y-3947630D01*
G01X2235130Y-3910630D02*
G01X2187530Y-3910630D01*
G01X2187530Y-3910630D02*
G01X2187530Y-3893030D01*
G01X2187530Y-3893030D02*
G01X2235130Y-3893030D01*
G01X2235130Y-3893030D02*
G01X2235130Y-3910630D01*
G01X2191920Y-3910630D02*
G01X2191920Y-3893030D01*
G01X2196310Y-3893030D02*
G01X2196310Y-3910630D01*
G01X2200700Y-3910630D02*
G01X2200700Y-3893030D01*
G01X2205090Y-3893030D02*
G01X2205090Y-3910630D01*
G01X2209480Y-3910630D02*
G01X2209480Y-3893030D01*
G01X2213870Y-3893030D02*
G01X2213870Y-3910630D01*
G01X2218260Y-3910630D02*
G01X2218260Y-3893030D01*
G01X2222650Y-3893030D02*
G01X2222650Y-3910630D01*
G01X2227040Y-3910630D02*
G01X2227040Y-3893030D01*
G01X2231430Y-3893030D02*
G01X2231430Y-3910630D01*
G01X2235130Y-3873630D02*
G01X2187530Y-3873630D01*
G01X2187530Y-3873630D02*
G01X2187530Y-3856030D01*
G01X2187530Y-3856030D02*
G01X2235130Y-3856030D01*
G01X2235130Y-3856030D02*
G01X2235130Y-3873630D01*
G01X2191920Y-3873630D02*
G01X2191920Y-3856030D01*
G01X2196310Y-3856030D02*
G01X2196310Y-3873630D01*
G01X2200700Y-3873630D02*
G01X2200700Y-3856030D01*
G01X2205090Y-3856030D02*
G01X2205090Y-3873630D01*
G01X2209480Y-3873630D02*
G01X2209480Y-3856030D01*
G01X2213870Y-3856030D02*
G01X2213870Y-3873630D01*
G01X2218260Y-3873630D02*
G01X2218260Y-3856030D01*
G01X2222650Y-3856030D02*
G01X2222650Y-3873630D01*
G01X2227040Y-3873630D02*
G01X2227040Y-3856030D01*
G01X2231430Y-3856030D02*
G01X2231430Y-3873630D01*
G01X2279530Y-3873630D02*
G01X2327130Y-3873630D01*
G01X2279530Y-3873630D02*
G01X2279530Y-3856030D01*
G01X2279530Y-3856030D02*
G01X2327130Y-3856030D01*
G01X2327130Y-3856030D02*
G01X2327130Y-3873630D01*
G01X2283920Y-3873630D02*
G01X2283920Y-3856030D01*
G01X2288310Y-3856030D02*
G01X2288310Y-3873630D01*
G01X2292700Y-3873630D02*
G01X2292700Y-3856030D01*
G01X2297090Y-3856030D02*
G01X2297090Y-3873630D01*
G01X2301480Y-3873630D02*
G01X2301480Y-3856030D01*
G01X2305870Y-3856030D02*
G01X2305870Y-3873630D01*
G01X2310260Y-3873630D02*
G01X2310260Y-3856030D01*
G01X2314650Y-3856030D02*
G01X2314650Y-3873630D01*
G01X2319040Y-3873630D02*
G01X2319040Y-3856030D01*
G01X2323430Y-3856030D02*
G01X2323430Y-3873630D01*
G01X2327130Y-3947630D02*
G01X2279530Y-3947630D01*
G01X2279530Y-3947630D02*
G01X2279530Y-3930030D01*
G01X2279530Y-3930030D02*
G01X2327130Y-3930030D01*
G01X2327130Y-3930030D02*
G01X2327130Y-3947630D01*
G01X2283920Y-3947630D02*
G01X2283920Y-3930030D01*
G01X2288310Y-3930030D02*
G01X2288310Y-3947630D01*
G01X2292700Y-3947630D02*
G01X2292700Y-3930030D01*
G01X2297090Y-3930030D02*
G01X2297090Y-3947630D01*
G01X2301480Y-3947630D02*
G01X2301480Y-3930030D01*
G01X2305870Y-3930030D02*
G01X2305870Y-3947630D01*
G01X2310260Y-3947630D02*
G01X2310260Y-3930030D01*
G01X2314650Y-3930030D02*
G01X2314650Y-3947630D01*
G01X2319040Y-3947630D02*
G01X2319040Y-3930030D01*
G01X2323430Y-3930030D02*
G01X2323430Y-3947630D01*
G01X1377130Y-1305030D02*
G01X1329530Y-1305030D01*
G01X1377130Y-1305030D02*
G01X1377130Y-1322630D01*
G01X1377130Y-1322630D02*
G01X1329530Y-1322630D01*
G01X1329530Y-1322630D02*
G01X1329530Y-1305030D01*
G01X1333920Y-1305030D02*
G01X1333920Y-1322630D01*
G01X1338310Y-1322630D02*
G01X1338310Y-1305030D01*
G01X1342700Y-1305030D02*
G01X1342700Y-1322630D01*
G01X1347090Y-1322630D02*
G01X1347090Y-1305030D01*
G01X1351480Y-1305030D02*
G01X1351480Y-1322630D01*
G01X1355870Y-1322630D02*
G01X1355870Y-1305030D01*
G01X1360260Y-1305030D02*
G01X1360260Y-1322630D01*
G01X1364650Y-1322630D02*
G01X1364650Y-1305030D01*
G01X1369040Y-1305030D02*
G01X1369040Y-1322630D01*
G01X1373430Y-1322630D02*
G01X1373430Y-1305030D01*
G01X1377130Y-1268030D02*
G01X1329530Y-1268030D01*
G01X1377130Y-1268030D02*
G01X1377130Y-1285630D01*
G01X1377130Y-1285630D02*
G01X1329530Y-1285630D01*
G01X1329530Y-1285630D02*
G01X1329530Y-1268030D01*
G01X1333920Y-1268030D02*
G01X1333920Y-1285630D01*
G01X1338310Y-1285630D02*
G01X1338310Y-1268030D01*
G01X1342700Y-1268030D02*
G01X1342700Y-1285630D01*
G01X1347090Y-1285630D02*
G01X1347090Y-1268030D01*
G01X1351480Y-1268030D02*
G01X1351480Y-1285630D01*
G01X1355870Y-1285630D02*
G01X1355870Y-1268030D01*
G01X1360260Y-1268030D02*
G01X1360260Y-1285630D01*
G01X1364650Y-1285630D02*
G01X1364650Y-1268030D01*
G01X1369040Y-1268030D02*
G01X1369040Y-1285630D01*
G01X1373430Y-1285630D02*
G01X1373430Y-1268030D01*
G01X1377130Y-1231030D02*
G01X1329530Y-1231030D01*
G01X1377130Y-1231030D02*
G01X1377130Y-1248630D01*
G01X1377130Y-1248630D02*
G01X1329530Y-1248630D01*
G01X1329530Y-1248630D02*
G01X1329530Y-1231030D01*
G01X1333920Y-1231030D02*
G01X1333920Y-1248630D01*
G01X1338310Y-1248630D02*
G01X1338310Y-1231030D01*
G01X1342700Y-1231030D02*
G01X1342700Y-1248630D01*
G01X1347090Y-1248630D02*
G01X1347090Y-1231030D01*
G01X1351480Y-1231030D02*
G01X1351480Y-1248630D01*
G01X1355870Y-1248630D02*
G01X1355870Y-1231030D01*
G01X1360260Y-1231030D02*
G01X1360260Y-1248630D01*
G01X1364650Y-1248630D02*
G01X1364650Y-1231030D01*
G01X1369040Y-1231030D02*
G01X1369040Y-1248630D01*
G01X1373430Y-1248630D02*
G01X1373430Y-1231030D01*
G01X1285130Y-1231030D02*
G01X1237530Y-1231030D01*
G01X1285130Y-1231030D02*
G01X1285130Y-1248630D01*
G01X1285130Y-1248630D02*
G01X1237530Y-1248630D01*
G01X1237530Y-1248630D02*
G01X1237530Y-1231030D01*
G01X1241920Y-1231030D02*
G01X1241920Y-1248630D01*
G01X1246310Y-1248630D02*
G01X1246310Y-1231030D01*
G01X1250700Y-1231030D02*
G01X1250700Y-1248630D01*
G01X1255090Y-1248630D02*
G01X1255090Y-1231030D01*
G01X1259480Y-1231030D02*
G01X1259480Y-1248630D01*
G01X1263870Y-1248630D02*
G01X1263870Y-1231030D01*
G01X1268260Y-1231030D02*
G01X1268260Y-1248630D01*
G01X1272650Y-1248630D02*
G01X1272650Y-1231030D01*
G01X1277040Y-1231030D02*
G01X1277040Y-1248630D01*
G01X1281430Y-1248630D02*
G01X1281430Y-1231030D01*
G01X1285130Y-1305030D02*
G01X1237530Y-1305030D01*
G01X1285130Y-1305030D02*
G01X1285130Y-1322630D01*
G01X1285130Y-1322630D02*
G01X1237530Y-1322630D01*
G01X1237530Y-1322630D02*
G01X1237530Y-1305030D01*
G01X1241920Y-1305030D02*
G01X1241920Y-1322630D01*
G01X1246310Y-1322630D02*
G01X1246310Y-1305030D01*
G01X1250700Y-1305030D02*
G01X1250700Y-1322630D01*
G01X1255090Y-1322630D02*
G01X1255090Y-1305030D01*
G01X1259480Y-1305030D02*
G01X1259480Y-1322630D01*
G01X1263870Y-1322630D02*
G01X1263870Y-1305030D01*
G01X1268260Y-1305030D02*
G01X1268260Y-1322630D01*
G01X1272650Y-1322630D02*
G01X1272650Y-1305030D01*
G01X1277040Y-1305030D02*
G01X1277040Y-1322630D01*
G01X1281430Y-1322630D02*
G01X1281430Y-1305030D01*
G54D17*
G01X1109500Y-3958430D02*
G01X1073280Y-3958430D01*
G01X1109500Y-3958430D02*
G01X1109500Y-4020230D01*
G01X1109500Y-4020230D02*
G01X1073280Y-4020230D01*
G01X1073280Y-4020230D02*
G01X1073280Y-3958430D01*
G01X1082330Y-3958430D02*
G01X1082330Y-4020230D01*
G01X1091380Y-4020230D02*
G01X1091380Y-3958430D01*
G01X1100430Y-3958430D02*
G01X1100430Y-4020230D01*
G01X1109480Y-4020230D02*
G01X1109480Y-3958430D01*
G01X1109500Y-4058430D02*
G01X1073280Y-4058430D01*
G01X1109500Y-4058430D02*
G01X1109500Y-4120230D01*
G01X1109500Y-4120230D02*
G01X1073280Y-4120230D01*
G01X1073280Y-4120230D02*
G01X1073280Y-4058430D01*
G01X1082330Y-4058430D02*
G01X1082330Y-4120230D01*
G01X1091380Y-4120230D02*
G01X1091380Y-4058430D01*
G01X1100430Y-4058430D02*
G01X1100430Y-4120230D01*
G01X1109480Y-4120230D02*
G01X1109480Y-4058430D01*
G01X0991390Y-4058430D02*
G01X0955170Y-4058430D01*
G01X0991390Y-4058430D02*
G01X0991390Y-4120230D01*
G01X0991390Y-4120230D02*
G01X0955170Y-4120230D01*
G01X0955170Y-4120230D02*
G01X0955170Y-4058430D01*
G01X0964220Y-4058430D02*
G01X0964220Y-4120230D01*
G01X0973270Y-4120230D02*
G01X0973270Y-4058430D01*
G01X0982320Y-4058430D02*
G01X0982320Y-4120230D01*
G01X0991370Y-4120230D02*
G01X0991370Y-4058430D01*
G01X0991390Y-3958430D02*
G01X0955170Y-3958430D01*
G01X0991390Y-3958430D02*
G01X0991390Y-4020230D01*
G01X0991390Y-4020230D02*
G01X0955170Y-4020230D01*
G01X0955170Y-4020230D02*
G01X0955170Y-3958430D01*
G01X0964220Y-3958430D02*
G01X0964220Y-4020230D01*
G01X0973270Y-4020230D02*
G01X0973270Y-3958430D01*
G01X0982320Y-3958430D02*
G01X0982320Y-4020230D01*
G01X0991370Y-4020230D02*
G01X0991370Y-3958430D01*
G01X2455170Y-4020230D02*
G01X2491390Y-4020230D01*
G01X2455170Y-4020230D02*
G01X2455170Y-3958430D01*
G01X2455170Y-3958430D02*
G01X2491390Y-3958430D01*
G01X2491390Y-3958430D02*
G01X2491390Y-4020230D01*
G01X2464220Y-4020230D02*
G01X2464220Y-3958430D01*
G01X2473270Y-3958430D02*
G01X2473270Y-4020230D01*
G01X2482320Y-4020230D02*
G01X2482320Y-3958430D01*
G01X2491370Y-3958430D02*
G01X2491370Y-4020230D01*
G01X2491390Y-4120230D02*
G01X2455170Y-4120230D01*
G01X2455170Y-4120230D02*
G01X2455170Y-4058430D01*
G01X2455170Y-4058430D02*
G01X2491390Y-4058430D01*
G01X2491390Y-4058430D02*
G01X2491390Y-4120230D01*
G01X2464220Y-4120230D02*
G01X2464220Y-4058430D01*
G01X2473270Y-4058430D02*
G01X2473270Y-4120230D01*
G01X2482320Y-4120230D02*
G01X2482320Y-4058430D01*
G01X2491370Y-4058430D02*
G01X2491370Y-4120230D01*
G01X2573280Y-4120230D02*
G01X2609500Y-4120230D01*
G01X2573280Y-4120230D02*
G01X2573280Y-4058430D01*
G01X2573280Y-4058430D02*
G01X2609500Y-4058430D01*
G01X2609500Y-4058430D02*
G01X2609500Y-4120230D01*
G01X2582330Y-4120230D02*
G01X2582330Y-4058430D01*
G01X2591380Y-4058430D02*
G01X2591380Y-4120230D01*
G01X2600430Y-4120230D02*
G01X2600430Y-4058430D01*
G01X2609480Y-4058430D02*
G01X2609480Y-4120230D01*
G01X2609500Y-4020230D02*
G01X2573280Y-4020230D01*
G01X2573280Y-4020230D02*
G01X2573280Y-3958430D01*
G01X2573280Y-3958430D02*
G01X2609500Y-3958430D01*
G01X2609500Y-3958430D02*
G01X2609500Y-4020230D01*
G01X2582330Y-4020230D02*
G01X2582330Y-3958430D01*
G01X2591380Y-3958430D02*
G01X2591380Y-4020230D01*
G01X2600430Y-4020230D02*
G01X2600430Y-3958430D01*
G01X2609480Y-3958430D02*
G01X2609480Y-4020230D01*
G54D18*
G01X1442570Y-899760D02*
G01X1442570Y-876140D01*
G01X1442570Y-876140D02*
G01X1472090Y-876140D01*
G01X1472090Y-876140D02*
G01X1472090Y-899760D01*
G01X1472090Y-899760D02*
G01X1442570Y-899760D01*
G01X1448470Y-899760D02*
G01X1448470Y-876140D01*
G01X1454370Y-876140D02*
G01X1454370Y-899760D01*
G01X1460270Y-899760D02*
G01X1460270Y-876140D01*
G01X1466170Y-876140D02*
G01X1466170Y-899760D01*
G01X1472070Y-899760D02*
G01X1472070Y-876140D01*
G01X1442570Y-852520D02*
G01X1442570Y-828900D01*
G01X1442570Y-828900D02*
G01X1472090Y-828900D01*
G01X1472090Y-828900D02*
G01X1472090Y-852520D01*
G01X1472090Y-852520D02*
G01X1442570Y-852520D01*
G01X1448470Y-852520D02*
G01X1448470Y-828900D01*
G01X1454370Y-828900D02*
G01X1454370Y-852520D01*
G01X1460270Y-852520D02*
G01X1460270Y-828900D01*
G01X1466170Y-828900D02*
G01X1466170Y-852520D01*
G01X1472070Y-852520D02*
G01X1472070Y-828900D01*
G01X1496900Y-766590D02*
G01X1520520Y-766590D01*
G01X1496900Y-766590D02*
G01X1496900Y-737070D01*
G01X1496900Y-737070D02*
G01X1520520Y-737070D01*
G01X1520520Y-737070D02*
G01X1520520Y-766590D01*
G01X1502800Y-766590D02*
G01X1502800Y-737070D01*
G01X1508700Y-737070D02*
G01X1508700Y-766590D01*
G01X1514600Y-766590D02*
G01X1514600Y-737070D01*
G01X1520500Y-737070D02*
G01X1520500Y-766590D01*
G01X1544140Y-766590D02*
G01X1567760Y-766590D01*
G01X1544140Y-766590D02*
G01X1544140Y-737070D01*
G01X1544140Y-737070D02*
G01X1567760Y-737070D01*
G01X1567760Y-737070D02*
G01X1567760Y-766590D01*
G01X1550040Y-766590D02*
G01X1550040Y-737070D01*
G01X1555940Y-737070D02*
G01X1555940Y-766590D01*
G01X1561840Y-766590D02*
G01X1561840Y-737070D01*
G01X1567740Y-737070D02*
G01X1567740Y-766590D01*
G01X1596900Y-737070D02*
G01X1620520Y-737070D01*
G01X1620520Y-737070D02*
G01X1620520Y-766590D01*
G01X1620520Y-766590D02*
G01X1596900Y-766590D01*
G01X1596900Y-766590D02*
G01X1596900Y-737070D01*
G01X1602800Y-737070D02*
G01X1602800Y-766590D01*
G01X1608700Y-766590D02*
G01X1608700Y-737070D01*
G01X1614600Y-737070D02*
G01X1614600Y-766590D01*
G01X1620500Y-766590D02*
G01X1620500Y-737070D01*
G01X1644140Y-737070D02*
G01X1667760Y-737070D01*
G01X1667760Y-737070D02*
G01X1667760Y-766590D01*
G01X1667760Y-766590D02*
G01X1644140Y-766590D01*
G01X1644140Y-766590D02*
G01X1644140Y-737070D01*
G01X1650040Y-737070D02*
G01X1650040Y-766590D01*
G01X1655940Y-766590D02*
G01X1655940Y-737070D01*
G01X1661840Y-737070D02*
G01X1661840Y-766590D01*
G01X1667740Y-766590D02*
G01X1667740Y-737070D01*
G54D19*
G01X1743160Y-1654880D02*
G01X1743160Y-1695440D01*
G01X1743160Y-1654880D02*
G01X1762060Y-1654880D01*
G01X1762060Y-1654880D02*
G01X1762060Y-1695440D01*
G01X1762060Y-1695440D02*
G01X1743160Y-1695440D01*
G01X1747870Y-1695440D02*
G01X1747870Y-1654880D01*
G01X1752580Y-1654880D02*
G01X1752580Y-1695440D01*
G01X1757290Y-1695440D02*
G01X1757290Y-1654880D01*
G01X1762000Y-1654880D02*
G01X1762000Y-1695440D01*
G01X1902610Y-1695440D02*
G01X1902610Y-1654880D01*
G01X1902610Y-1654880D02*
G01X1921510Y-1654880D01*
G01X1921510Y-1654880D02*
G01X1921510Y-1695440D01*
G01X1921510Y-1695440D02*
G01X1902610Y-1695440D01*
G01X1907320Y-1695440D02*
G01X1907320Y-1654880D01*
G01X1912030Y-1654880D02*
G01X1912030Y-1695440D01*
G01X1916740Y-1695440D02*
G01X1916740Y-1654880D01*
G01X1921450Y-1654880D02*
G01X1921450Y-1695440D01*
G01X1902610Y-1883220D02*
G01X1902610Y-1923780D01*
G01X1902610Y-1883220D02*
G01X1921510Y-1883220D01*
G01X1921510Y-1883220D02*
G01X1921510Y-1923780D01*
G01X1921510Y-1923780D02*
G01X1902610Y-1923780D01*
G01X1907320Y-1923780D02*
G01X1907320Y-1883220D01*
G01X1912030Y-1883220D02*
G01X1912030Y-1923780D01*
G01X1916740Y-1923780D02*
G01X1916740Y-1883220D01*
G01X1921450Y-1883220D02*
G01X1921450Y-1923780D01*
G01X1743160Y-1923780D02*
G01X1743160Y-1883220D01*
G01X1743160Y-1883220D02*
G01X1762060Y-1883220D01*
G01X1762060Y-1883220D02*
G01X1762060Y-1923780D01*
G01X1762060Y-1923780D02*
G01X1743160Y-1923780D01*
G01X1747870Y-1923780D02*
G01X1747870Y-1883220D01*
G01X1752580Y-1883220D02*
G01X1752580Y-1923780D01*
G01X1757290Y-1923780D02*
G01X1757290Y-1883220D01*
G01X1762000Y-1883220D02*
G01X1762000Y-1923780D01*
G54D20*
G01X1774850Y-1924570D02*
G01X1774850Y-1882430D01*
G01X1774850Y-1882430D02*
G01X1787450Y-1882430D01*
G01X1787450Y-1882430D02*
G01X1787450Y-1924570D01*
G01X1787450Y-1924570D02*
G01X1774850Y-1924570D01*
G01X1777990Y-1924570D02*
G01X1777990Y-1882430D01*
G01X1781130Y-1882430D02*
G01X1781130Y-1924570D01*
G01X1784270Y-1924570D02*
G01X1784270Y-1882430D01*
G01X1787410Y-1882430D02*
G01X1787410Y-1924570D01*
G01X1800440Y-1924570D02*
G01X1800440Y-1882430D01*
G01X1800440Y-1882430D02*
G01X1813040Y-1882430D01*
G01X1813040Y-1882430D02*
G01X1813040Y-1924570D01*
G01X1813040Y-1924570D02*
G01X1800440Y-1924570D01*
G01X1803580Y-1924570D02*
G01X1803580Y-1882430D01*
G01X1806720Y-1882430D02*
G01X1806720Y-1924570D01*
G01X1809860Y-1924570D02*
G01X1809860Y-1882430D01*
G01X1813000Y-1882430D02*
G01X1813000Y-1924570D01*
G01X1826030Y-1924570D02*
G01X1826030Y-1882430D01*
G01X1826030Y-1882430D02*
G01X1838630Y-1882430D01*
G01X1838630Y-1882430D02*
G01X1838630Y-1924570D01*
G01X1838630Y-1924570D02*
G01X1826030Y-1924570D01*
G01X1829170Y-1924570D02*
G01X1829170Y-1882430D01*
G01X1832310Y-1882430D02*
G01X1832310Y-1924570D01*
G01X1835450Y-1924570D02*
G01X1835450Y-1882430D01*
G01X1838590Y-1882430D02*
G01X1838590Y-1924570D01*
G01X1851620Y-1924570D02*
G01X1851620Y-1882430D01*
G01X1851620Y-1882430D02*
G01X1864220Y-1882430D01*
G01X1864220Y-1882430D02*
G01X1864220Y-1924570D01*
G01X1864220Y-1924570D02*
G01X1851620Y-1924570D01*
G01X1854760Y-1924570D02*
G01X1854760Y-1882430D01*
G01X1857900Y-1882430D02*
G01X1857900Y-1924570D01*
G01X1861040Y-1924570D02*
G01X1861040Y-1882430D01*
G01X1864180Y-1882430D02*
G01X1864180Y-1924570D01*
G01X1877210Y-1924570D02*
G01X1877210Y-1882430D01*
G01X1877210Y-1882430D02*
G01X1889810Y-1882430D01*
G01X1889810Y-1882430D02*
G01X1889810Y-1924570D01*
G01X1889810Y-1924570D02*
G01X1877210Y-1924570D01*
G01X1880350Y-1924570D02*
G01X1880350Y-1882430D01*
G01X1883490Y-1882430D02*
G01X1883490Y-1924570D01*
G01X1886630Y-1924570D02*
G01X1886630Y-1882430D01*
G01X1889770Y-1882430D02*
G01X1889770Y-1924570D01*
G01X1877210Y-1696230D02*
G01X1877210Y-1654090D01*
G01X1877210Y-1654090D02*
G01X1889810Y-1654090D01*
G01X1889810Y-1654090D02*
G01X1889810Y-1696230D01*
G01X1889810Y-1696230D02*
G01X1877210Y-1696230D01*
G01X1880350Y-1696230D02*
G01X1880350Y-1654090D01*
G01X1883490Y-1654090D02*
G01X1883490Y-1696230D01*
G01X1886630Y-1696230D02*
G01X1886630Y-1654090D01*
G01X1889770Y-1654090D02*
G01X1889770Y-1696230D01*
G01X1851620Y-1696230D02*
G01X1851620Y-1654090D01*
G01X1851620Y-1654090D02*
G01X1864220Y-1654090D01*
G01X1864220Y-1654090D02*
G01X1864220Y-1696230D01*
G01X1864220Y-1696230D02*
G01X1851620Y-1696230D01*
G01X1854760Y-1696230D02*
G01X1854760Y-1654090D01*
G01X1857900Y-1654090D02*
G01X1857900Y-1696230D01*
G01X1861040Y-1696230D02*
G01X1861040Y-1654090D01*
G01X1864180Y-1654090D02*
G01X1864180Y-1696230D01*
G01X1826030Y-1696230D02*
G01X1826030Y-1654090D01*
G01X1826030Y-1654090D02*
G01X1838630Y-1654090D01*
G01X1838630Y-1654090D02*
G01X1838630Y-1696230D01*
G01X1838630Y-1696230D02*
G01X1826030Y-1696230D01*
G01X1829170Y-1696230D02*
G01X1829170Y-1654090D01*
G01X1832310Y-1654090D02*
G01X1832310Y-1696230D01*
G01X1835450Y-1696230D02*
G01X1835450Y-1654090D01*
G01X1838590Y-1654090D02*
G01X1838590Y-1696230D01*
G01X1800440Y-1696230D02*
G01X1800440Y-1654090D01*
G01X1800440Y-1654090D02*
G01X1813040Y-1654090D01*
G01X1813040Y-1654090D02*
G01X1813040Y-1696230D01*
G01X1813040Y-1696230D02*
G01X1800440Y-1696230D01*
G01X1803580Y-1696230D02*
G01X1803580Y-1654090D01*
G01X1806720Y-1654090D02*
G01X1806720Y-1696230D01*
G01X1809860Y-1696230D02*
G01X1809860Y-1654090D01*
G01X1813000Y-1654090D02*
G01X1813000Y-1696230D01*
G01X1774850Y-1696230D02*
G01X1774850Y-1654090D01*
G01X1774850Y-1654090D02*
G01X1787450Y-1654090D01*
G01X1787450Y-1654090D02*
G01X1787450Y-1696230D01*
G01X1787450Y-1696230D02*
G01X1774850Y-1696230D01*
G01X1777990Y-1696230D02*
G01X1777990Y-1654090D01*
G01X1781130Y-1654090D02*
G01X1781130Y-1696230D01*
G01X1784270Y-1696230D02*
G01X1784270Y-1654090D01*
G01X1787410Y-1654090D02*
G01X1787410Y-1696230D01*
G54D21*
G01X1946200Y-1135230D02*
G01X1957330Y-1124100D01*
G01X1957330Y-1124100D02*
G01X1962900Y-1129670D01*
G01X1962900Y-1129670D02*
G01X1951770Y-1140800D01*
G01X1951770Y-1140800D02*
G01X1946200Y-1135230D01*
G01X1948160Y-1137190D02*
G01X1948160Y-1133270D01*
G01X1950120Y-1131310D02*
G01X1950120Y-1139150D01*
G01X1952080Y-1140490D02*
G01X1952080Y-1129350D01*
G01X1954040Y-1127390D02*
G01X1954040Y-1138530D01*
G01X1956000Y-1136570D02*
G01X1956000Y-1125430D01*
G01X1957960Y-1124730D02*
G01X1957960Y-1134610D01*
G01X1959920Y-1132650D02*
G01X1959920Y-1126690D01*
G01X1961880Y-1128650D02*
G01X1961880Y-1130690D01*
G01X1976810Y-1126880D02*
G01X1965680Y-1115750D01*
G01X1965680Y-1115750D02*
G01X1971250Y-1110180D01*
G01X1971250Y-1110180D02*
G01X1982380Y-1121310D01*
G01X1982380Y-1121310D02*
G01X1976810Y-1126880D01*
G01X1967640Y-1117710D02*
G01X1967640Y-1113790D01*
G01X1969600Y-1111830D02*
G01X1969600Y-1119670D01*
G01X1971560Y-1121630D02*
G01X1971560Y-1110490D01*
G01X1973520Y-1112450D02*
G01X1973520Y-1123590D01*
G01X1975480Y-1125550D02*
G01X1975480Y-1114410D01*
G01X1977440Y-1116370D02*
G01X1977440Y-1126250D01*
G01X1979400Y-1124290D02*
G01X1979400Y-1118330D01*
G01X1981360Y-1120290D02*
G01X1981360Y-1122330D01*
G01X1979600Y-1101830D02*
G01X1990730Y-1090700D01*
G01X1990730Y-1090700D02*
G01X1996300Y-1096270D01*
G01X1996300Y-1096270D02*
G01X1985170Y-1107400D01*
G01X1985170Y-1107400D02*
G01X1979600Y-1101830D01*
G01X1981560Y-1103790D02*
G01X1981560Y-1099870D01*
G01X1983520Y-1097910D02*
G01X1983520Y-1105750D01*
G01X1985480Y-1107090D02*
G01X1985480Y-1095950D01*
G01X1987440Y-1093990D02*
G01X1987440Y-1105130D01*
G01X1989400Y-1103170D02*
G01X1989400Y-1092030D01*
G01X1991360Y-1091330D02*
G01X1991360Y-1101210D01*
G01X1993320Y-1099250D02*
G01X1993320Y-1093290D01*
G01X1995280Y-1095250D02*
G01X1995280Y-1097290D01*
G01X1976810Y-1076780D02*
G01X1965680Y-1087910D01*
G01X1976810Y-1076780D02*
G01X1982380Y-1082350D01*
G01X1982380Y-1082350D02*
G01X1971250Y-1093480D01*
G01X1971250Y-1093480D02*
G01X1965680Y-1087910D01*
G01X1967640Y-1089870D02*
G01X1967640Y-1085950D01*
G01X1969600Y-1083990D02*
G01X1969600Y-1091830D01*
G01X1971560Y-1093170D02*
G01X1971560Y-1082030D01*
G01X1973520Y-1080070D02*
G01X1973520Y-1091210D01*
G01X1975480Y-1089250D02*
G01X1975480Y-1078110D01*
G01X1977440Y-1077410D02*
G01X1977440Y-1087290D01*
G01X1979400Y-1085330D02*
G01X1979400Y-1079370D01*
G01X1981360Y-1081330D02*
G01X1981360Y-1083370D01*
G01X1962890Y-1062860D02*
G01X1951760Y-1073990D01*
G01X1962890Y-1062860D02*
G01X1968460Y-1068430D01*
G01X1968460Y-1068430D02*
G01X1957330Y-1079560D01*
G01X1957330Y-1079560D02*
G01X1951760Y-1073990D01*
G01X1953720Y-1075950D02*
G01X1953720Y-1072030D01*
G01X1955680Y-1070070D02*
G01X1955680Y-1077910D01*
G01X1957640Y-1079250D02*
G01X1957640Y-1068110D01*
G01X1959600Y-1066150D02*
G01X1959600Y-1077290D01*
G01X1961560Y-1075330D02*
G01X1961560Y-1064190D01*
G01X1963520Y-1063490D02*
G01X1963520Y-1073370D01*
G01X1965480Y-1071410D02*
G01X1965480Y-1065450D01*
G01X1967440Y-1067410D02*
G01X1967440Y-1069450D01*
G01X1943410Y-1093480D02*
G01X1932280Y-1082350D01*
G01X1932280Y-1082350D02*
G01X1937850Y-1076780D01*
G01X1937850Y-1076780D02*
G01X1948980Y-1087910D01*
G01X1948980Y-1087910D02*
G01X1943410Y-1093480D01*
G01X1934240Y-1084310D02*
G01X1934240Y-1080390D01*
G01X1936200Y-1078430D02*
G01X1936200Y-1086270D01*
G01X1938160Y-1088230D02*
G01X1938160Y-1077090D01*
G01X1940120Y-1079050D02*
G01X1940120Y-1090190D01*
G01X1942080Y-1092150D02*
G01X1942080Y-1081010D01*
G01X1944040Y-1082970D02*
G01X1944040Y-1092850D01*
G01X1946000Y-1090890D02*
G01X1946000Y-1084930D01*
G01X1947960Y-1086890D02*
G01X1947960Y-1088930D01*
G01X1929490Y-1096260D02*
G01X1918360Y-1107390D01*
G01X1929490Y-1096260D02*
G01X1935060Y-1101830D01*
G01X1935060Y-1101830D02*
G01X1923930Y-1112960D01*
G01X1923930Y-1112960D02*
G01X1918360Y-1107390D01*
G01X1920320Y-1109350D02*
G01X1920320Y-1105430D01*
G01X1922280Y-1103470D02*
G01X1922280Y-1111310D01*
G01X1924240Y-1112650D02*
G01X1924240Y-1101510D01*
G01X1926200Y-1099550D02*
G01X1926200Y-1110690D01*
G01X1928160Y-1108730D02*
G01X1928160Y-1097590D01*
G01X1930120Y-1096890D02*
G01X1930120Y-1106770D01*
G01X1932080Y-1104810D02*
G01X1932080Y-1098850D01*
G01X1934040Y-1100810D02*
G01X1934040Y-1102850D01*
G01X1943410Y-1110180D02*
G01X1932280Y-1121310D01*
G01X1943410Y-1110180D02*
G01X1948980Y-1115750D01*
G01X1948980Y-1115750D02*
G01X1937850Y-1126880D01*
G01X1937850Y-1126880D02*
G01X1932280Y-1121310D01*
G01X1934240Y-1123270D02*
G01X1934240Y-1119350D01*
G01X1936200Y-1117390D02*
G01X1936200Y-1125230D01*
G01X1938160Y-1126570D02*
G01X1938160Y-1115430D01*
G01X1940120Y-1113470D02*
G01X1940120Y-1124610D01*
G01X1942080Y-1122650D02*
G01X1942080Y-1111510D01*
G01X1944040Y-1110810D02*
G01X1944040Y-1120690D01*
G01X1946000Y-1118730D02*
G01X1946000Y-1112770D01*
G01X1947960Y-1114730D02*
G01X1947960Y-1116770D01*
G01X1630750Y-924380D02*
G01X1630750Y-894840D01*
G01X1630750Y-924380D02*
G01X1624850Y-924380D01*
G01X1624850Y-924380D02*
G01X1624850Y-894840D01*
G01X1624850Y-894840D02*
G01X1630750Y-894840D01*
G01X1626810Y-894840D02*
G01X1626810Y-924380D01*
G01X1628770Y-924380D02*
G01X1628770Y-894840D01*
G01X1630730Y-894840D02*
G01X1630730Y-924380D01*
G01X1615010Y-924380D02*
G01X1615010Y-894840D01*
G01X1615010Y-924380D02*
G01X1609110Y-924380D01*
G01X1609110Y-924380D02*
G01X1609110Y-894840D01*
G01X1609110Y-894840D02*
G01X1615010Y-894840D01*
G01X1611070Y-894840D02*
G01X1611070Y-924380D01*
G01X1613030Y-924380D02*
G01X1613030Y-894840D01*
G01X1614990Y-894840D02*
G01X1614990Y-924380D01*
G01X1599260Y-924380D02*
G01X1599260Y-894840D01*
G01X1599260Y-924380D02*
G01X1593360Y-924380D01*
G01X1593360Y-924380D02*
G01X1593360Y-894840D01*
G01X1593360Y-894840D02*
G01X1599260Y-894840D01*
G01X1595320Y-894840D02*
G01X1595320Y-924380D01*
G01X1597280Y-924380D02*
G01X1597280Y-894840D01*
G01X1599240Y-894840D02*
G01X1599240Y-924380D01*
G01X1574850Y-924380D02*
G01X1574850Y-894840D01*
G01X1574850Y-924380D02*
G01X1568950Y-924380D01*
G01X1568950Y-924380D02*
G01X1568950Y-894840D01*
G01X1568950Y-894840D02*
G01X1574850Y-894840D01*
G01X1570910Y-894840D02*
G01X1570910Y-924380D01*
G01X1572870Y-924380D02*
G01X1572870Y-894840D01*
G01X1574830Y-894840D02*
G01X1574830Y-924380D01*
G01X1559100Y-924380D02*
G01X1559100Y-894840D01*
G01X1559100Y-924380D02*
G01X1553200Y-924380D01*
G01X1553200Y-924380D02*
G01X1553200Y-894840D01*
G01X1553200Y-894840D02*
G01X1559100Y-894840D01*
G01X1555160Y-894840D02*
G01X1555160Y-924380D01*
G01X1557120Y-924380D02*
G01X1557120Y-894840D01*
G01X1559080Y-894840D02*
G01X1559080Y-924380D01*
G01X1543350Y-924380D02*
G01X1543350Y-894840D01*
G01X1543350Y-924380D02*
G01X1537450Y-924380D01*
G01X1537450Y-924380D02*
G01X1537450Y-894840D01*
G01X1537450Y-894840D02*
G01X1543350Y-894840D01*
G01X1539410Y-894840D02*
G01X1539410Y-924380D01*
G01X1541370Y-924380D02*
G01X1541370Y-894840D01*
G01X1543330Y-894840D02*
G01X1543330Y-924380D01*
G01X1543350Y-833830D02*
G01X1543350Y-804290D01*
G01X1543350Y-833830D02*
G01X1537450Y-833830D01*
G01X1537450Y-833830D02*
G01X1537450Y-804290D01*
G01X1537450Y-804290D02*
G01X1543350Y-804290D01*
G01X1539410Y-804290D02*
G01X1539410Y-833830D01*
G01X1541370Y-833830D02*
G01X1541370Y-804290D01*
G01X1543330Y-804290D02*
G01X1543330Y-833830D01*
G01X1559100Y-833830D02*
G01X1559100Y-804290D01*
G01X1559100Y-833830D02*
G01X1553200Y-833830D01*
G01X1553200Y-833830D02*
G01X1553200Y-804290D01*
G01X1553200Y-804290D02*
G01X1559100Y-804290D01*
G01X1555160Y-804290D02*
G01X1555160Y-833830D01*
G01X1557120Y-833830D02*
G01X1557120Y-804290D01*
G01X1559080Y-804290D02*
G01X1559080Y-833830D01*
G01X1574850Y-833830D02*
G01X1574850Y-804290D01*
G01X1574850Y-833830D02*
G01X1568950Y-833830D01*
G01X1568950Y-833830D02*
G01X1568950Y-804290D01*
G01X1568950Y-804290D02*
G01X1574850Y-804290D01*
G01X1570910Y-804290D02*
G01X1570910Y-833830D01*
G01X1572870Y-833830D02*
G01X1572870Y-804290D01*
G01X1574830Y-804290D02*
G01X1574830Y-833830D01*
G01X1599260Y-833830D02*
G01X1599260Y-804290D01*
G01X1599260Y-833830D02*
G01X1593360Y-833830D01*
G01X1593360Y-833830D02*
G01X1593360Y-804290D01*
G01X1593360Y-804290D02*
G01X1599260Y-804290D01*
G01X1595320Y-804290D02*
G01X1595320Y-833830D01*
G01X1597280Y-833830D02*
G01X1597280Y-804290D01*
G01X1599240Y-804290D02*
G01X1599240Y-833830D01*
G01X1630750Y-833830D02*
G01X1630750Y-804290D01*
G01X1630750Y-833830D02*
G01X1624850Y-833830D01*
G01X1624850Y-833830D02*
G01X1624850Y-804290D01*
G01X1624850Y-804290D02*
G01X1630750Y-804290D01*
G01X1626810Y-804290D02*
G01X1626810Y-833830D01*
G01X1628770Y-833830D02*
G01X1628770Y-804290D01*
G01X1630730Y-804290D02*
G01X1630730Y-833830D01*
G01X1622680Y-859410D02*
G01X1652220Y-859410D01*
G01X1622680Y-859410D02*
G01X1622680Y-853510D01*
G01X1622680Y-853510D02*
G01X1652220Y-853510D01*
G01X1652220Y-853510D02*
G01X1652220Y-859410D01*
G01X1624640Y-859410D02*
G01X1624640Y-853510D01*
G01X1626600Y-853510D02*
G01X1626600Y-859410D01*
G01X1628560Y-859410D02*
G01X1628560Y-853510D01*
G01X1630520Y-853510D02*
G01X1630520Y-859410D01*
G01X1632480Y-859410D02*
G01X1632480Y-853510D01*
G01X1634440Y-853510D02*
G01X1634440Y-859410D01*
G01X1636400Y-859410D02*
G01X1636400Y-853510D01*
G01X1638360Y-853510D02*
G01X1638360Y-859410D01*
G01X1640320Y-859410D02*
G01X1640320Y-853510D01*
G01X1642280Y-853510D02*
G01X1642280Y-859410D01*
G01X1644240Y-859410D02*
G01X1644240Y-853510D01*
G01X1646200Y-853510D02*
G01X1646200Y-859410D01*
G01X1648160Y-859410D02*
G01X1648160Y-853510D01*
G01X1650120Y-853510D02*
G01X1650120Y-859410D01*
G01X1652080Y-859410D02*
G01X1652080Y-853510D01*
G01X1652220Y-875150D02*
G01X1622680Y-875150D01*
G01X1622680Y-875150D02*
G01X1622680Y-869250D01*
G01X1622680Y-869250D02*
G01X1652220Y-869250D01*
G01X1652220Y-869250D02*
G01X1652220Y-875150D01*
G01X1624640Y-875150D02*
G01X1624640Y-869250D01*
G01X1626600Y-869250D02*
G01X1626600Y-875150D01*
G01X1628560Y-875150D02*
G01X1628560Y-869250D01*
G01X1630520Y-869250D02*
G01X1630520Y-875150D01*
G01X1632480Y-875150D02*
G01X1632480Y-869250D01*
G01X1634440Y-869250D02*
G01X1634440Y-875150D01*
G01X1636400Y-875150D02*
G01X1636400Y-869250D01*
G01X1638360Y-869250D02*
G01X1638360Y-875150D01*
G01X1640320Y-875150D02*
G01X1640320Y-869250D01*
G01X1642280Y-869250D02*
G01X1642280Y-875150D01*
G01X1644240Y-875150D02*
G01X1644240Y-869250D01*
G01X1646200Y-869250D02*
G01X1646200Y-875150D01*
G01X1648160Y-875150D02*
G01X1648160Y-869250D01*
G01X1650120Y-869250D02*
G01X1650120Y-875150D01*
G01X1652080Y-875150D02*
G01X1652080Y-869250D01*
G54D22*
G01X2065110Y-834410D02*
G01X2065110Y-804490D01*
G01X2065110Y-804490D02*
G01X2124550Y-804490D01*
G01X2124550Y-804490D02*
G01X2124550Y-834410D01*
G01X2124550Y-834410D02*
G01X2065110Y-834410D01*
G01X2072580Y-834410D02*
G01X2072580Y-804490D01*
G01X2080050Y-804490D02*
G01X2080050Y-834410D01*
G01X2087520Y-834410D02*
G01X2087520Y-804490D01*
G01X2094990Y-804490D02*
G01X2094990Y-834410D01*
G01X2102460Y-834410D02*
G01X2102460Y-804490D01*
G01X2109930Y-804490D02*
G01X2109930Y-834410D01*
G01X2117400Y-834410D02*
G01X2117400Y-804490D01*
G01X2065110Y-724170D02*
G01X2065110Y-694250D01*
G01X2065110Y-694250D02*
G01X2124550Y-694250D01*
G01X2124550Y-694250D02*
G01X2124550Y-724170D01*
G01X2124550Y-724170D02*
G01X2065110Y-724170D01*
G01X2072580Y-724170D02*
G01X2072580Y-694250D01*
G01X2080050Y-694250D02*
G01X2080050Y-724170D01*
G01X2087520Y-724170D02*
G01X2087520Y-694250D01*
G01X2094990Y-694250D02*
G01X2094990Y-724170D01*
G01X2102460Y-724170D02*
G01X2102460Y-694250D01*
G01X2109930Y-694250D02*
G01X2109930Y-724170D01*
G01X2117400Y-724170D02*
G01X2117400Y-694250D01*
G01X2274550Y-694250D02*
G01X2274550Y-724170D01*
G01X2274550Y-724170D02*
G01X2215110Y-724170D01*
G01X2215110Y-724170D02*
G01X2215110Y-694250D01*
G01X2215110Y-694250D02*
G01X2274550Y-694250D01*
G01X2222580Y-694250D02*
G01X2222580Y-724170D01*
G01X2230050Y-724170D02*
G01X2230050Y-694250D01*
G01X2237520Y-694250D02*
G01X2237520Y-724170D01*
G01X2244990Y-724170D02*
G01X2244990Y-694250D01*
G01X2252460Y-694250D02*
G01X2252460Y-724170D01*
G01X2259930Y-724170D02*
G01X2259930Y-694250D01*
G01X2267400Y-694250D02*
G01X2267400Y-724170D01*
G01X2274550Y-804490D02*
G01X2274550Y-834410D01*
G01X2274550Y-834410D02*
G01X2215110Y-834410D01*
G01X2215110Y-834410D02*
G01X2215110Y-804490D01*
G01X2215110Y-804490D02*
G01X2274550Y-804490D01*
G01X2222580Y-804490D02*
G01X2222580Y-834410D01*
G01X2230050Y-834410D02*
G01X2230050Y-804490D01*
G01X2237520Y-804490D02*
G01X2237520Y-834410D01*
G01X2244990Y-834410D02*
G01X2244990Y-804490D01*
G01X2252460Y-804490D02*
G01X2252460Y-834410D01*
G01X2259930Y-834410D02*
G01X2259930Y-804490D01*
G01X2267400Y-804490D02*
G01X2267400Y-834410D01*
G01X2365110Y-834410D02*
G01X2365110Y-804490D01*
G01X2365110Y-804490D02*
G01X2424550Y-804490D01*
G01X2424550Y-804490D02*
G01X2424550Y-834410D01*
G01X2424550Y-834410D02*
G01X2365110Y-834410D01*
G01X2372580Y-834410D02*
G01X2372580Y-804490D01*
G01X2380050Y-804490D02*
G01X2380050Y-834410D01*
G01X2387520Y-834410D02*
G01X2387520Y-804490D01*
G01X2394990Y-804490D02*
G01X2394990Y-834410D01*
G01X2402460Y-834410D02*
G01X2402460Y-804490D01*
G01X2409930Y-804490D02*
G01X2409930Y-834410D01*
G01X2417400Y-834410D02*
G01X2417400Y-804490D01*
G01X2365110Y-724170D02*
G01X2365110Y-694250D01*
G01X2365110Y-694250D02*
G01X2424550Y-694250D01*
G01X2424550Y-694250D02*
G01X2424550Y-724170D01*
G01X2424550Y-724170D02*
G01X2365110Y-724170D01*
G01X2372580Y-724170D02*
G01X2372580Y-694250D01*
G01X2380050Y-694250D02*
G01X2380050Y-724170D01*
G01X2387520Y-724170D02*
G01X2387520Y-694250D01*
G01X2394990Y-694250D02*
G01X2394990Y-724170D01*
G01X2402460Y-724170D02*
G01X2402460Y-694250D01*
G01X2409930Y-694250D02*
G01X2409930Y-724170D01*
G01X2417400Y-724170D02*
G01X2417400Y-694250D01*
G01X2574550Y-694250D02*
G01X2574550Y-724170D01*
G01X2574550Y-724170D02*
G01X2515110Y-724170D01*
G01X2515110Y-724170D02*
G01X2515110Y-694250D01*
G01X2515110Y-694250D02*
G01X2574550Y-694250D01*
G01X2522580Y-694250D02*
G01X2522580Y-724170D01*
G01X2530050Y-724170D02*
G01X2530050Y-694250D01*
G01X2537520Y-694250D02*
G01X2537520Y-724170D01*
G01X2544990Y-724170D02*
G01X2544990Y-694250D01*
G01X2552460Y-694250D02*
G01X2552460Y-724170D01*
G01X2559930Y-724170D02*
G01X2559930Y-694250D01*
G01X2567400Y-694250D02*
G01X2567400Y-724170D01*
G01X2574550Y-804490D02*
G01X2574550Y-834410D01*
G01X2574550Y-834410D02*
G01X2515110Y-834410D01*
G01X2515110Y-834410D02*
G01X2515110Y-804490D01*
G01X2515110Y-804490D02*
G01X2574550Y-804490D01*
G01X2522580Y-804490D02*
G01X2522580Y-834410D01*
G01X2530050Y-834410D02*
G01X2530050Y-804490D01*
G01X2537520Y-804490D02*
G01X2537520Y-834410D01*
G01X2544990Y-834410D02*
G01X2544990Y-804490D01*
G01X2552460Y-804490D02*
G01X2552460Y-834410D01*
G01X2559930Y-834410D02*
G01X2559930Y-804490D01*
G01X2567400Y-804490D02*
G01X2567400Y-834410D01*
G54D23*
G01X2277210Y-1016410D02*
G01X2254970Y-1016410D01*
G01X2277210Y-1016410D02*
G01X2277210Y-1022890D01*
G01X2277210Y-1022890D02*
G01X2254970Y-1022890D01*
G01X2254970Y-1022890D02*
G01X2254970Y-1016410D01*
G01X2261460Y-1016410D02*
G01X2261460Y-1022890D01*
G01X2267950Y-1022890D02*
G01X2267950Y-1016410D01*
G01X2274440Y-1016410D02*
G01X2274440Y-1022890D01*
G01X2277210Y-1036090D02*
G01X2254970Y-1036090D01*
G01X2277210Y-1036090D02*
G01X2277210Y-1042570D01*
G01X2277210Y-1042570D02*
G01X2254970Y-1042570D01*
G01X2254970Y-1042570D02*
G01X2254970Y-1036090D01*
G01X2261460Y-1036090D02*
G01X2261460Y-1042570D01*
G01X2267950Y-1042570D02*
G01X2267950Y-1036090D01*
G01X2274440Y-1036090D02*
G01X2274440Y-1042570D01*
G01X2277210Y-1055780D02*
G01X2251030Y-1055780D01*
G01X2277210Y-1055780D02*
G01X2277210Y-1062260D01*
G01X2277210Y-1062260D02*
G01X2251030Y-1062260D01*
G01X2251030Y-1062260D02*
G01X2251030Y-1055780D01*
G01X2257520Y-1055780D02*
G01X2257520Y-1062260D01*
G01X2264010Y-1062260D02*
G01X2264010Y-1055780D01*
G01X2270500Y-1055780D02*
G01X2270500Y-1062260D01*
G01X2276990Y-1062260D02*
G01X2276990Y-1055780D01*
G01X2234690Y-1062260D02*
G01X2212450Y-1062260D01*
G01X2212450Y-1062260D02*
G01X2212450Y-1055780D01*
G01X2212450Y-1055780D02*
G01X2234690Y-1055780D01*
G01X2234690Y-1055780D02*
G01X2234690Y-1062260D01*
G01X2218940Y-1062260D02*
G01X2218940Y-1055780D01*
G01X2225430Y-1055780D02*
G01X2225430Y-1062260D01*
G01X2231920Y-1062260D02*
G01X2231920Y-1055780D01*
G01X2234690Y-1042570D02*
G01X2212450Y-1042570D01*
G01X2212450Y-1042570D02*
G01X2212450Y-1036090D01*
G01X2212450Y-1036090D02*
G01X2234690Y-1036090D01*
G01X2234690Y-1036090D02*
G01X2234690Y-1042570D01*
G01X2218940Y-1042570D02*
G01X2218940Y-1036090D01*
G01X2225430Y-1036090D02*
G01X2225430Y-1042570D01*
G01X2231920Y-1042570D02*
G01X2231920Y-1036090D01*
G01X2234690Y-1022890D02*
G01X2212450Y-1022890D01*
G01X2212450Y-1022890D02*
G01X2212450Y-1016410D01*
G01X2212450Y-1016410D02*
G01X2234690Y-1016410D01*
G01X2234690Y-1016410D02*
G01X2234690Y-1022890D01*
G01X2218940Y-1022890D02*
G01X2218940Y-1016410D01*
G01X2225430Y-1016410D02*
G01X2225430Y-1022890D01*
G01X2231920Y-1022890D02*
G01X2231920Y-1016410D01*
M02*
