G75*
%MOIN*%
%OFA0B0*%
%FSLAX25Y25*%
%IPPOS*%
%LPD*%
%AMOC8*
5,1,8,0,0,1.08239X$1,22.5*
%
%ADD10C,0.00000*%
%ADD11C,0.00000*%
D10*
X0058933Y0065733D02*
X0058933Y0290733D01*
X0458933Y0290733D01*
X0458933Y0065733D01*
X0058933Y0065733D01*
D11*
X0129268Y0085733D02*
X0129270Y0085826D01*
X0129276Y0085918D01*
X0129286Y0086010D01*
X0129300Y0086101D01*
X0129317Y0086192D01*
X0129339Y0086282D01*
X0129364Y0086371D01*
X0129393Y0086459D01*
X0129426Y0086545D01*
X0129463Y0086630D01*
X0129503Y0086714D01*
X0129547Y0086795D01*
X0129594Y0086875D01*
X0129644Y0086953D01*
X0129698Y0087028D01*
X0129755Y0087101D01*
X0129815Y0087171D01*
X0129878Y0087239D01*
X0129944Y0087304D01*
X0130012Y0087366D01*
X0130083Y0087426D01*
X0130157Y0087482D01*
X0130233Y0087535D01*
X0130311Y0087584D01*
X0130391Y0087631D01*
X0130473Y0087673D01*
X0130557Y0087713D01*
X0130642Y0087748D01*
X0130729Y0087780D01*
X0130817Y0087809D01*
X0130906Y0087833D01*
X0130996Y0087854D01*
X0131087Y0087870D01*
X0131179Y0087883D01*
X0131271Y0087892D01*
X0131364Y0087897D01*
X0131456Y0087898D01*
X0131549Y0087895D01*
X0131641Y0087888D01*
X0131733Y0087877D01*
X0131824Y0087862D01*
X0131915Y0087844D01*
X0132005Y0087821D01*
X0132093Y0087795D01*
X0132181Y0087765D01*
X0132267Y0087731D01*
X0132351Y0087694D01*
X0132434Y0087652D01*
X0132515Y0087608D01*
X0132595Y0087560D01*
X0132672Y0087509D01*
X0132746Y0087454D01*
X0132819Y0087396D01*
X0132889Y0087336D01*
X0132956Y0087272D01*
X0133020Y0087206D01*
X0133082Y0087136D01*
X0133140Y0087065D01*
X0133195Y0086991D01*
X0133247Y0086914D01*
X0133296Y0086835D01*
X0133342Y0086755D01*
X0133384Y0086672D01*
X0133422Y0086588D01*
X0133457Y0086502D01*
X0133488Y0086415D01*
X0133515Y0086327D01*
X0133538Y0086237D01*
X0133558Y0086147D01*
X0133574Y0086056D01*
X0133586Y0085964D01*
X0133594Y0085872D01*
X0133598Y0085779D01*
X0133598Y0085687D01*
X0133594Y0085594D01*
X0133586Y0085502D01*
X0133574Y0085410D01*
X0133558Y0085319D01*
X0133538Y0085229D01*
X0133515Y0085139D01*
X0133488Y0085051D01*
X0133457Y0084964D01*
X0133422Y0084878D01*
X0133384Y0084794D01*
X0133342Y0084711D01*
X0133296Y0084631D01*
X0133247Y0084552D01*
X0133195Y0084475D01*
X0133140Y0084401D01*
X0133082Y0084330D01*
X0133020Y0084260D01*
X0132956Y0084194D01*
X0132889Y0084130D01*
X0132819Y0084070D01*
X0132746Y0084012D01*
X0132672Y0083957D01*
X0132595Y0083906D01*
X0132516Y0083858D01*
X0132434Y0083814D01*
X0132351Y0083772D01*
X0132267Y0083735D01*
X0132181Y0083701D01*
X0132093Y0083671D01*
X0132005Y0083645D01*
X0131915Y0083622D01*
X0131824Y0083604D01*
X0131733Y0083589D01*
X0131641Y0083578D01*
X0131549Y0083571D01*
X0131456Y0083568D01*
X0131364Y0083569D01*
X0131271Y0083574D01*
X0131179Y0083583D01*
X0131087Y0083596D01*
X0130996Y0083612D01*
X0130906Y0083633D01*
X0130817Y0083657D01*
X0130729Y0083686D01*
X0130642Y0083718D01*
X0130557Y0083753D01*
X0130473Y0083793D01*
X0130391Y0083835D01*
X0130311Y0083882D01*
X0130233Y0083931D01*
X0130157Y0083984D01*
X0130083Y0084040D01*
X0130012Y0084100D01*
X0129944Y0084162D01*
X0129878Y0084227D01*
X0129815Y0084295D01*
X0129755Y0084365D01*
X0129698Y0084438D01*
X0129644Y0084513D01*
X0129594Y0084591D01*
X0129547Y0084671D01*
X0129503Y0084752D01*
X0129463Y0084836D01*
X0129426Y0084921D01*
X0129393Y0085007D01*
X0129364Y0085095D01*
X0129339Y0085184D01*
X0129317Y0085274D01*
X0129300Y0085365D01*
X0129286Y0085456D01*
X0129276Y0085548D01*
X0129270Y0085640D01*
X0129268Y0085733D01*
X0129268Y0095733D02*
X0129270Y0095826D01*
X0129276Y0095918D01*
X0129286Y0096010D01*
X0129300Y0096101D01*
X0129317Y0096192D01*
X0129339Y0096282D01*
X0129364Y0096371D01*
X0129393Y0096459D01*
X0129426Y0096545D01*
X0129463Y0096630D01*
X0129503Y0096714D01*
X0129547Y0096795D01*
X0129594Y0096875D01*
X0129644Y0096953D01*
X0129698Y0097028D01*
X0129755Y0097101D01*
X0129815Y0097171D01*
X0129878Y0097239D01*
X0129944Y0097304D01*
X0130012Y0097366D01*
X0130083Y0097426D01*
X0130157Y0097482D01*
X0130233Y0097535D01*
X0130311Y0097584D01*
X0130391Y0097631D01*
X0130473Y0097673D01*
X0130557Y0097713D01*
X0130642Y0097748D01*
X0130729Y0097780D01*
X0130817Y0097809D01*
X0130906Y0097833D01*
X0130996Y0097854D01*
X0131087Y0097870D01*
X0131179Y0097883D01*
X0131271Y0097892D01*
X0131364Y0097897D01*
X0131456Y0097898D01*
X0131549Y0097895D01*
X0131641Y0097888D01*
X0131733Y0097877D01*
X0131824Y0097862D01*
X0131915Y0097844D01*
X0132005Y0097821D01*
X0132093Y0097795D01*
X0132181Y0097765D01*
X0132267Y0097731D01*
X0132351Y0097694D01*
X0132434Y0097652D01*
X0132515Y0097608D01*
X0132595Y0097560D01*
X0132672Y0097509D01*
X0132746Y0097454D01*
X0132819Y0097396D01*
X0132889Y0097336D01*
X0132956Y0097272D01*
X0133020Y0097206D01*
X0133082Y0097136D01*
X0133140Y0097065D01*
X0133195Y0096991D01*
X0133247Y0096914D01*
X0133296Y0096835D01*
X0133342Y0096755D01*
X0133384Y0096672D01*
X0133422Y0096588D01*
X0133457Y0096502D01*
X0133488Y0096415D01*
X0133515Y0096327D01*
X0133538Y0096237D01*
X0133558Y0096147D01*
X0133574Y0096056D01*
X0133586Y0095964D01*
X0133594Y0095872D01*
X0133598Y0095779D01*
X0133598Y0095687D01*
X0133594Y0095594D01*
X0133586Y0095502D01*
X0133574Y0095410D01*
X0133558Y0095319D01*
X0133538Y0095229D01*
X0133515Y0095139D01*
X0133488Y0095051D01*
X0133457Y0094964D01*
X0133422Y0094878D01*
X0133384Y0094794D01*
X0133342Y0094711D01*
X0133296Y0094631D01*
X0133247Y0094552D01*
X0133195Y0094475D01*
X0133140Y0094401D01*
X0133082Y0094330D01*
X0133020Y0094260D01*
X0132956Y0094194D01*
X0132889Y0094130D01*
X0132819Y0094070D01*
X0132746Y0094012D01*
X0132672Y0093957D01*
X0132595Y0093906D01*
X0132516Y0093858D01*
X0132434Y0093814D01*
X0132351Y0093772D01*
X0132267Y0093735D01*
X0132181Y0093701D01*
X0132093Y0093671D01*
X0132005Y0093645D01*
X0131915Y0093622D01*
X0131824Y0093604D01*
X0131733Y0093589D01*
X0131641Y0093578D01*
X0131549Y0093571D01*
X0131456Y0093568D01*
X0131364Y0093569D01*
X0131271Y0093574D01*
X0131179Y0093583D01*
X0131087Y0093596D01*
X0130996Y0093612D01*
X0130906Y0093633D01*
X0130817Y0093657D01*
X0130729Y0093686D01*
X0130642Y0093718D01*
X0130557Y0093753D01*
X0130473Y0093793D01*
X0130391Y0093835D01*
X0130311Y0093882D01*
X0130233Y0093931D01*
X0130157Y0093984D01*
X0130083Y0094040D01*
X0130012Y0094100D01*
X0129944Y0094162D01*
X0129878Y0094227D01*
X0129815Y0094295D01*
X0129755Y0094365D01*
X0129698Y0094438D01*
X0129644Y0094513D01*
X0129594Y0094591D01*
X0129547Y0094671D01*
X0129503Y0094752D01*
X0129463Y0094836D01*
X0129426Y0094921D01*
X0129393Y0095007D01*
X0129364Y0095095D01*
X0129339Y0095184D01*
X0129317Y0095274D01*
X0129300Y0095365D01*
X0129286Y0095456D01*
X0129276Y0095548D01*
X0129270Y0095640D01*
X0129268Y0095733D01*
X0139268Y0095733D02*
X0139270Y0095826D01*
X0139276Y0095918D01*
X0139286Y0096010D01*
X0139300Y0096101D01*
X0139317Y0096192D01*
X0139339Y0096282D01*
X0139364Y0096371D01*
X0139393Y0096459D01*
X0139426Y0096545D01*
X0139463Y0096630D01*
X0139503Y0096714D01*
X0139547Y0096795D01*
X0139594Y0096875D01*
X0139644Y0096953D01*
X0139698Y0097028D01*
X0139755Y0097101D01*
X0139815Y0097171D01*
X0139878Y0097239D01*
X0139944Y0097304D01*
X0140012Y0097366D01*
X0140083Y0097426D01*
X0140157Y0097482D01*
X0140233Y0097535D01*
X0140311Y0097584D01*
X0140391Y0097631D01*
X0140473Y0097673D01*
X0140557Y0097713D01*
X0140642Y0097748D01*
X0140729Y0097780D01*
X0140817Y0097809D01*
X0140906Y0097833D01*
X0140996Y0097854D01*
X0141087Y0097870D01*
X0141179Y0097883D01*
X0141271Y0097892D01*
X0141364Y0097897D01*
X0141456Y0097898D01*
X0141549Y0097895D01*
X0141641Y0097888D01*
X0141733Y0097877D01*
X0141824Y0097862D01*
X0141915Y0097844D01*
X0142005Y0097821D01*
X0142093Y0097795D01*
X0142181Y0097765D01*
X0142267Y0097731D01*
X0142351Y0097694D01*
X0142434Y0097652D01*
X0142515Y0097608D01*
X0142595Y0097560D01*
X0142672Y0097509D01*
X0142746Y0097454D01*
X0142819Y0097396D01*
X0142889Y0097336D01*
X0142956Y0097272D01*
X0143020Y0097206D01*
X0143082Y0097136D01*
X0143140Y0097065D01*
X0143195Y0096991D01*
X0143247Y0096914D01*
X0143296Y0096835D01*
X0143342Y0096755D01*
X0143384Y0096672D01*
X0143422Y0096588D01*
X0143457Y0096502D01*
X0143488Y0096415D01*
X0143515Y0096327D01*
X0143538Y0096237D01*
X0143558Y0096147D01*
X0143574Y0096056D01*
X0143586Y0095964D01*
X0143594Y0095872D01*
X0143598Y0095779D01*
X0143598Y0095687D01*
X0143594Y0095594D01*
X0143586Y0095502D01*
X0143574Y0095410D01*
X0143558Y0095319D01*
X0143538Y0095229D01*
X0143515Y0095139D01*
X0143488Y0095051D01*
X0143457Y0094964D01*
X0143422Y0094878D01*
X0143384Y0094794D01*
X0143342Y0094711D01*
X0143296Y0094631D01*
X0143247Y0094552D01*
X0143195Y0094475D01*
X0143140Y0094401D01*
X0143082Y0094330D01*
X0143020Y0094260D01*
X0142956Y0094194D01*
X0142889Y0094130D01*
X0142819Y0094070D01*
X0142746Y0094012D01*
X0142672Y0093957D01*
X0142595Y0093906D01*
X0142516Y0093858D01*
X0142434Y0093814D01*
X0142351Y0093772D01*
X0142267Y0093735D01*
X0142181Y0093701D01*
X0142093Y0093671D01*
X0142005Y0093645D01*
X0141915Y0093622D01*
X0141824Y0093604D01*
X0141733Y0093589D01*
X0141641Y0093578D01*
X0141549Y0093571D01*
X0141456Y0093568D01*
X0141364Y0093569D01*
X0141271Y0093574D01*
X0141179Y0093583D01*
X0141087Y0093596D01*
X0140996Y0093612D01*
X0140906Y0093633D01*
X0140817Y0093657D01*
X0140729Y0093686D01*
X0140642Y0093718D01*
X0140557Y0093753D01*
X0140473Y0093793D01*
X0140391Y0093835D01*
X0140311Y0093882D01*
X0140233Y0093931D01*
X0140157Y0093984D01*
X0140083Y0094040D01*
X0140012Y0094100D01*
X0139944Y0094162D01*
X0139878Y0094227D01*
X0139815Y0094295D01*
X0139755Y0094365D01*
X0139698Y0094438D01*
X0139644Y0094513D01*
X0139594Y0094591D01*
X0139547Y0094671D01*
X0139503Y0094752D01*
X0139463Y0094836D01*
X0139426Y0094921D01*
X0139393Y0095007D01*
X0139364Y0095095D01*
X0139339Y0095184D01*
X0139317Y0095274D01*
X0139300Y0095365D01*
X0139286Y0095456D01*
X0139276Y0095548D01*
X0139270Y0095640D01*
X0139268Y0095733D01*
X0139268Y0085733D02*
X0139270Y0085826D01*
X0139276Y0085918D01*
X0139286Y0086010D01*
X0139300Y0086101D01*
X0139317Y0086192D01*
X0139339Y0086282D01*
X0139364Y0086371D01*
X0139393Y0086459D01*
X0139426Y0086545D01*
X0139463Y0086630D01*
X0139503Y0086714D01*
X0139547Y0086795D01*
X0139594Y0086875D01*
X0139644Y0086953D01*
X0139698Y0087028D01*
X0139755Y0087101D01*
X0139815Y0087171D01*
X0139878Y0087239D01*
X0139944Y0087304D01*
X0140012Y0087366D01*
X0140083Y0087426D01*
X0140157Y0087482D01*
X0140233Y0087535D01*
X0140311Y0087584D01*
X0140391Y0087631D01*
X0140473Y0087673D01*
X0140557Y0087713D01*
X0140642Y0087748D01*
X0140729Y0087780D01*
X0140817Y0087809D01*
X0140906Y0087833D01*
X0140996Y0087854D01*
X0141087Y0087870D01*
X0141179Y0087883D01*
X0141271Y0087892D01*
X0141364Y0087897D01*
X0141456Y0087898D01*
X0141549Y0087895D01*
X0141641Y0087888D01*
X0141733Y0087877D01*
X0141824Y0087862D01*
X0141915Y0087844D01*
X0142005Y0087821D01*
X0142093Y0087795D01*
X0142181Y0087765D01*
X0142267Y0087731D01*
X0142351Y0087694D01*
X0142434Y0087652D01*
X0142515Y0087608D01*
X0142595Y0087560D01*
X0142672Y0087509D01*
X0142746Y0087454D01*
X0142819Y0087396D01*
X0142889Y0087336D01*
X0142956Y0087272D01*
X0143020Y0087206D01*
X0143082Y0087136D01*
X0143140Y0087065D01*
X0143195Y0086991D01*
X0143247Y0086914D01*
X0143296Y0086835D01*
X0143342Y0086755D01*
X0143384Y0086672D01*
X0143422Y0086588D01*
X0143457Y0086502D01*
X0143488Y0086415D01*
X0143515Y0086327D01*
X0143538Y0086237D01*
X0143558Y0086147D01*
X0143574Y0086056D01*
X0143586Y0085964D01*
X0143594Y0085872D01*
X0143598Y0085779D01*
X0143598Y0085687D01*
X0143594Y0085594D01*
X0143586Y0085502D01*
X0143574Y0085410D01*
X0143558Y0085319D01*
X0143538Y0085229D01*
X0143515Y0085139D01*
X0143488Y0085051D01*
X0143457Y0084964D01*
X0143422Y0084878D01*
X0143384Y0084794D01*
X0143342Y0084711D01*
X0143296Y0084631D01*
X0143247Y0084552D01*
X0143195Y0084475D01*
X0143140Y0084401D01*
X0143082Y0084330D01*
X0143020Y0084260D01*
X0142956Y0084194D01*
X0142889Y0084130D01*
X0142819Y0084070D01*
X0142746Y0084012D01*
X0142672Y0083957D01*
X0142595Y0083906D01*
X0142516Y0083858D01*
X0142434Y0083814D01*
X0142351Y0083772D01*
X0142267Y0083735D01*
X0142181Y0083701D01*
X0142093Y0083671D01*
X0142005Y0083645D01*
X0141915Y0083622D01*
X0141824Y0083604D01*
X0141733Y0083589D01*
X0141641Y0083578D01*
X0141549Y0083571D01*
X0141456Y0083568D01*
X0141364Y0083569D01*
X0141271Y0083574D01*
X0141179Y0083583D01*
X0141087Y0083596D01*
X0140996Y0083612D01*
X0140906Y0083633D01*
X0140817Y0083657D01*
X0140729Y0083686D01*
X0140642Y0083718D01*
X0140557Y0083753D01*
X0140473Y0083793D01*
X0140391Y0083835D01*
X0140311Y0083882D01*
X0140233Y0083931D01*
X0140157Y0083984D01*
X0140083Y0084040D01*
X0140012Y0084100D01*
X0139944Y0084162D01*
X0139878Y0084227D01*
X0139815Y0084295D01*
X0139755Y0084365D01*
X0139698Y0084438D01*
X0139644Y0084513D01*
X0139594Y0084591D01*
X0139547Y0084671D01*
X0139503Y0084752D01*
X0139463Y0084836D01*
X0139426Y0084921D01*
X0139393Y0085007D01*
X0139364Y0085095D01*
X0139339Y0085184D01*
X0139317Y0085274D01*
X0139300Y0085365D01*
X0139286Y0085456D01*
X0139276Y0085548D01*
X0139270Y0085640D01*
X0139268Y0085733D01*
X0149268Y0085733D02*
X0149270Y0085826D01*
X0149276Y0085918D01*
X0149286Y0086010D01*
X0149300Y0086101D01*
X0149317Y0086192D01*
X0149339Y0086282D01*
X0149364Y0086371D01*
X0149393Y0086459D01*
X0149426Y0086545D01*
X0149463Y0086630D01*
X0149503Y0086714D01*
X0149547Y0086795D01*
X0149594Y0086875D01*
X0149644Y0086953D01*
X0149698Y0087028D01*
X0149755Y0087101D01*
X0149815Y0087171D01*
X0149878Y0087239D01*
X0149944Y0087304D01*
X0150012Y0087366D01*
X0150083Y0087426D01*
X0150157Y0087482D01*
X0150233Y0087535D01*
X0150311Y0087584D01*
X0150391Y0087631D01*
X0150473Y0087673D01*
X0150557Y0087713D01*
X0150642Y0087748D01*
X0150729Y0087780D01*
X0150817Y0087809D01*
X0150906Y0087833D01*
X0150996Y0087854D01*
X0151087Y0087870D01*
X0151179Y0087883D01*
X0151271Y0087892D01*
X0151364Y0087897D01*
X0151456Y0087898D01*
X0151549Y0087895D01*
X0151641Y0087888D01*
X0151733Y0087877D01*
X0151824Y0087862D01*
X0151915Y0087844D01*
X0152005Y0087821D01*
X0152093Y0087795D01*
X0152181Y0087765D01*
X0152267Y0087731D01*
X0152351Y0087694D01*
X0152434Y0087652D01*
X0152515Y0087608D01*
X0152595Y0087560D01*
X0152672Y0087509D01*
X0152746Y0087454D01*
X0152819Y0087396D01*
X0152889Y0087336D01*
X0152956Y0087272D01*
X0153020Y0087206D01*
X0153082Y0087136D01*
X0153140Y0087065D01*
X0153195Y0086991D01*
X0153247Y0086914D01*
X0153296Y0086835D01*
X0153342Y0086755D01*
X0153384Y0086672D01*
X0153422Y0086588D01*
X0153457Y0086502D01*
X0153488Y0086415D01*
X0153515Y0086327D01*
X0153538Y0086237D01*
X0153558Y0086147D01*
X0153574Y0086056D01*
X0153586Y0085964D01*
X0153594Y0085872D01*
X0153598Y0085779D01*
X0153598Y0085687D01*
X0153594Y0085594D01*
X0153586Y0085502D01*
X0153574Y0085410D01*
X0153558Y0085319D01*
X0153538Y0085229D01*
X0153515Y0085139D01*
X0153488Y0085051D01*
X0153457Y0084964D01*
X0153422Y0084878D01*
X0153384Y0084794D01*
X0153342Y0084711D01*
X0153296Y0084631D01*
X0153247Y0084552D01*
X0153195Y0084475D01*
X0153140Y0084401D01*
X0153082Y0084330D01*
X0153020Y0084260D01*
X0152956Y0084194D01*
X0152889Y0084130D01*
X0152819Y0084070D01*
X0152746Y0084012D01*
X0152672Y0083957D01*
X0152595Y0083906D01*
X0152516Y0083858D01*
X0152434Y0083814D01*
X0152351Y0083772D01*
X0152267Y0083735D01*
X0152181Y0083701D01*
X0152093Y0083671D01*
X0152005Y0083645D01*
X0151915Y0083622D01*
X0151824Y0083604D01*
X0151733Y0083589D01*
X0151641Y0083578D01*
X0151549Y0083571D01*
X0151456Y0083568D01*
X0151364Y0083569D01*
X0151271Y0083574D01*
X0151179Y0083583D01*
X0151087Y0083596D01*
X0150996Y0083612D01*
X0150906Y0083633D01*
X0150817Y0083657D01*
X0150729Y0083686D01*
X0150642Y0083718D01*
X0150557Y0083753D01*
X0150473Y0083793D01*
X0150391Y0083835D01*
X0150311Y0083882D01*
X0150233Y0083931D01*
X0150157Y0083984D01*
X0150083Y0084040D01*
X0150012Y0084100D01*
X0149944Y0084162D01*
X0149878Y0084227D01*
X0149815Y0084295D01*
X0149755Y0084365D01*
X0149698Y0084438D01*
X0149644Y0084513D01*
X0149594Y0084591D01*
X0149547Y0084671D01*
X0149503Y0084752D01*
X0149463Y0084836D01*
X0149426Y0084921D01*
X0149393Y0085007D01*
X0149364Y0085095D01*
X0149339Y0085184D01*
X0149317Y0085274D01*
X0149300Y0085365D01*
X0149286Y0085456D01*
X0149276Y0085548D01*
X0149270Y0085640D01*
X0149268Y0085733D01*
X0149268Y0095733D02*
X0149270Y0095826D01*
X0149276Y0095918D01*
X0149286Y0096010D01*
X0149300Y0096101D01*
X0149317Y0096192D01*
X0149339Y0096282D01*
X0149364Y0096371D01*
X0149393Y0096459D01*
X0149426Y0096545D01*
X0149463Y0096630D01*
X0149503Y0096714D01*
X0149547Y0096795D01*
X0149594Y0096875D01*
X0149644Y0096953D01*
X0149698Y0097028D01*
X0149755Y0097101D01*
X0149815Y0097171D01*
X0149878Y0097239D01*
X0149944Y0097304D01*
X0150012Y0097366D01*
X0150083Y0097426D01*
X0150157Y0097482D01*
X0150233Y0097535D01*
X0150311Y0097584D01*
X0150391Y0097631D01*
X0150473Y0097673D01*
X0150557Y0097713D01*
X0150642Y0097748D01*
X0150729Y0097780D01*
X0150817Y0097809D01*
X0150906Y0097833D01*
X0150996Y0097854D01*
X0151087Y0097870D01*
X0151179Y0097883D01*
X0151271Y0097892D01*
X0151364Y0097897D01*
X0151456Y0097898D01*
X0151549Y0097895D01*
X0151641Y0097888D01*
X0151733Y0097877D01*
X0151824Y0097862D01*
X0151915Y0097844D01*
X0152005Y0097821D01*
X0152093Y0097795D01*
X0152181Y0097765D01*
X0152267Y0097731D01*
X0152351Y0097694D01*
X0152434Y0097652D01*
X0152515Y0097608D01*
X0152595Y0097560D01*
X0152672Y0097509D01*
X0152746Y0097454D01*
X0152819Y0097396D01*
X0152889Y0097336D01*
X0152956Y0097272D01*
X0153020Y0097206D01*
X0153082Y0097136D01*
X0153140Y0097065D01*
X0153195Y0096991D01*
X0153247Y0096914D01*
X0153296Y0096835D01*
X0153342Y0096755D01*
X0153384Y0096672D01*
X0153422Y0096588D01*
X0153457Y0096502D01*
X0153488Y0096415D01*
X0153515Y0096327D01*
X0153538Y0096237D01*
X0153558Y0096147D01*
X0153574Y0096056D01*
X0153586Y0095964D01*
X0153594Y0095872D01*
X0153598Y0095779D01*
X0153598Y0095687D01*
X0153594Y0095594D01*
X0153586Y0095502D01*
X0153574Y0095410D01*
X0153558Y0095319D01*
X0153538Y0095229D01*
X0153515Y0095139D01*
X0153488Y0095051D01*
X0153457Y0094964D01*
X0153422Y0094878D01*
X0153384Y0094794D01*
X0153342Y0094711D01*
X0153296Y0094631D01*
X0153247Y0094552D01*
X0153195Y0094475D01*
X0153140Y0094401D01*
X0153082Y0094330D01*
X0153020Y0094260D01*
X0152956Y0094194D01*
X0152889Y0094130D01*
X0152819Y0094070D01*
X0152746Y0094012D01*
X0152672Y0093957D01*
X0152595Y0093906D01*
X0152516Y0093858D01*
X0152434Y0093814D01*
X0152351Y0093772D01*
X0152267Y0093735D01*
X0152181Y0093701D01*
X0152093Y0093671D01*
X0152005Y0093645D01*
X0151915Y0093622D01*
X0151824Y0093604D01*
X0151733Y0093589D01*
X0151641Y0093578D01*
X0151549Y0093571D01*
X0151456Y0093568D01*
X0151364Y0093569D01*
X0151271Y0093574D01*
X0151179Y0093583D01*
X0151087Y0093596D01*
X0150996Y0093612D01*
X0150906Y0093633D01*
X0150817Y0093657D01*
X0150729Y0093686D01*
X0150642Y0093718D01*
X0150557Y0093753D01*
X0150473Y0093793D01*
X0150391Y0093835D01*
X0150311Y0093882D01*
X0150233Y0093931D01*
X0150157Y0093984D01*
X0150083Y0094040D01*
X0150012Y0094100D01*
X0149944Y0094162D01*
X0149878Y0094227D01*
X0149815Y0094295D01*
X0149755Y0094365D01*
X0149698Y0094438D01*
X0149644Y0094513D01*
X0149594Y0094591D01*
X0149547Y0094671D01*
X0149503Y0094752D01*
X0149463Y0094836D01*
X0149426Y0094921D01*
X0149393Y0095007D01*
X0149364Y0095095D01*
X0149339Y0095184D01*
X0149317Y0095274D01*
X0149300Y0095365D01*
X0149286Y0095456D01*
X0149276Y0095548D01*
X0149270Y0095640D01*
X0149268Y0095733D01*
X0159268Y0095733D02*
X0159270Y0095826D01*
X0159276Y0095918D01*
X0159286Y0096010D01*
X0159300Y0096101D01*
X0159317Y0096192D01*
X0159339Y0096282D01*
X0159364Y0096371D01*
X0159393Y0096459D01*
X0159426Y0096545D01*
X0159463Y0096630D01*
X0159503Y0096714D01*
X0159547Y0096795D01*
X0159594Y0096875D01*
X0159644Y0096953D01*
X0159698Y0097028D01*
X0159755Y0097101D01*
X0159815Y0097171D01*
X0159878Y0097239D01*
X0159944Y0097304D01*
X0160012Y0097366D01*
X0160083Y0097426D01*
X0160157Y0097482D01*
X0160233Y0097535D01*
X0160311Y0097584D01*
X0160391Y0097631D01*
X0160473Y0097673D01*
X0160557Y0097713D01*
X0160642Y0097748D01*
X0160729Y0097780D01*
X0160817Y0097809D01*
X0160906Y0097833D01*
X0160996Y0097854D01*
X0161087Y0097870D01*
X0161179Y0097883D01*
X0161271Y0097892D01*
X0161364Y0097897D01*
X0161456Y0097898D01*
X0161549Y0097895D01*
X0161641Y0097888D01*
X0161733Y0097877D01*
X0161824Y0097862D01*
X0161915Y0097844D01*
X0162005Y0097821D01*
X0162093Y0097795D01*
X0162181Y0097765D01*
X0162267Y0097731D01*
X0162351Y0097694D01*
X0162434Y0097652D01*
X0162515Y0097608D01*
X0162595Y0097560D01*
X0162672Y0097509D01*
X0162746Y0097454D01*
X0162819Y0097396D01*
X0162889Y0097336D01*
X0162956Y0097272D01*
X0163020Y0097206D01*
X0163082Y0097136D01*
X0163140Y0097065D01*
X0163195Y0096991D01*
X0163247Y0096914D01*
X0163296Y0096835D01*
X0163342Y0096755D01*
X0163384Y0096672D01*
X0163422Y0096588D01*
X0163457Y0096502D01*
X0163488Y0096415D01*
X0163515Y0096327D01*
X0163538Y0096237D01*
X0163558Y0096147D01*
X0163574Y0096056D01*
X0163586Y0095964D01*
X0163594Y0095872D01*
X0163598Y0095779D01*
X0163598Y0095687D01*
X0163594Y0095594D01*
X0163586Y0095502D01*
X0163574Y0095410D01*
X0163558Y0095319D01*
X0163538Y0095229D01*
X0163515Y0095139D01*
X0163488Y0095051D01*
X0163457Y0094964D01*
X0163422Y0094878D01*
X0163384Y0094794D01*
X0163342Y0094711D01*
X0163296Y0094631D01*
X0163247Y0094552D01*
X0163195Y0094475D01*
X0163140Y0094401D01*
X0163082Y0094330D01*
X0163020Y0094260D01*
X0162956Y0094194D01*
X0162889Y0094130D01*
X0162819Y0094070D01*
X0162746Y0094012D01*
X0162672Y0093957D01*
X0162595Y0093906D01*
X0162516Y0093858D01*
X0162434Y0093814D01*
X0162351Y0093772D01*
X0162267Y0093735D01*
X0162181Y0093701D01*
X0162093Y0093671D01*
X0162005Y0093645D01*
X0161915Y0093622D01*
X0161824Y0093604D01*
X0161733Y0093589D01*
X0161641Y0093578D01*
X0161549Y0093571D01*
X0161456Y0093568D01*
X0161364Y0093569D01*
X0161271Y0093574D01*
X0161179Y0093583D01*
X0161087Y0093596D01*
X0160996Y0093612D01*
X0160906Y0093633D01*
X0160817Y0093657D01*
X0160729Y0093686D01*
X0160642Y0093718D01*
X0160557Y0093753D01*
X0160473Y0093793D01*
X0160391Y0093835D01*
X0160311Y0093882D01*
X0160233Y0093931D01*
X0160157Y0093984D01*
X0160083Y0094040D01*
X0160012Y0094100D01*
X0159944Y0094162D01*
X0159878Y0094227D01*
X0159815Y0094295D01*
X0159755Y0094365D01*
X0159698Y0094438D01*
X0159644Y0094513D01*
X0159594Y0094591D01*
X0159547Y0094671D01*
X0159503Y0094752D01*
X0159463Y0094836D01*
X0159426Y0094921D01*
X0159393Y0095007D01*
X0159364Y0095095D01*
X0159339Y0095184D01*
X0159317Y0095274D01*
X0159300Y0095365D01*
X0159286Y0095456D01*
X0159276Y0095548D01*
X0159270Y0095640D01*
X0159268Y0095733D01*
X0159268Y0085733D02*
X0159270Y0085826D01*
X0159276Y0085918D01*
X0159286Y0086010D01*
X0159300Y0086101D01*
X0159317Y0086192D01*
X0159339Y0086282D01*
X0159364Y0086371D01*
X0159393Y0086459D01*
X0159426Y0086545D01*
X0159463Y0086630D01*
X0159503Y0086714D01*
X0159547Y0086795D01*
X0159594Y0086875D01*
X0159644Y0086953D01*
X0159698Y0087028D01*
X0159755Y0087101D01*
X0159815Y0087171D01*
X0159878Y0087239D01*
X0159944Y0087304D01*
X0160012Y0087366D01*
X0160083Y0087426D01*
X0160157Y0087482D01*
X0160233Y0087535D01*
X0160311Y0087584D01*
X0160391Y0087631D01*
X0160473Y0087673D01*
X0160557Y0087713D01*
X0160642Y0087748D01*
X0160729Y0087780D01*
X0160817Y0087809D01*
X0160906Y0087833D01*
X0160996Y0087854D01*
X0161087Y0087870D01*
X0161179Y0087883D01*
X0161271Y0087892D01*
X0161364Y0087897D01*
X0161456Y0087898D01*
X0161549Y0087895D01*
X0161641Y0087888D01*
X0161733Y0087877D01*
X0161824Y0087862D01*
X0161915Y0087844D01*
X0162005Y0087821D01*
X0162093Y0087795D01*
X0162181Y0087765D01*
X0162267Y0087731D01*
X0162351Y0087694D01*
X0162434Y0087652D01*
X0162515Y0087608D01*
X0162595Y0087560D01*
X0162672Y0087509D01*
X0162746Y0087454D01*
X0162819Y0087396D01*
X0162889Y0087336D01*
X0162956Y0087272D01*
X0163020Y0087206D01*
X0163082Y0087136D01*
X0163140Y0087065D01*
X0163195Y0086991D01*
X0163247Y0086914D01*
X0163296Y0086835D01*
X0163342Y0086755D01*
X0163384Y0086672D01*
X0163422Y0086588D01*
X0163457Y0086502D01*
X0163488Y0086415D01*
X0163515Y0086327D01*
X0163538Y0086237D01*
X0163558Y0086147D01*
X0163574Y0086056D01*
X0163586Y0085964D01*
X0163594Y0085872D01*
X0163598Y0085779D01*
X0163598Y0085687D01*
X0163594Y0085594D01*
X0163586Y0085502D01*
X0163574Y0085410D01*
X0163558Y0085319D01*
X0163538Y0085229D01*
X0163515Y0085139D01*
X0163488Y0085051D01*
X0163457Y0084964D01*
X0163422Y0084878D01*
X0163384Y0084794D01*
X0163342Y0084711D01*
X0163296Y0084631D01*
X0163247Y0084552D01*
X0163195Y0084475D01*
X0163140Y0084401D01*
X0163082Y0084330D01*
X0163020Y0084260D01*
X0162956Y0084194D01*
X0162889Y0084130D01*
X0162819Y0084070D01*
X0162746Y0084012D01*
X0162672Y0083957D01*
X0162595Y0083906D01*
X0162516Y0083858D01*
X0162434Y0083814D01*
X0162351Y0083772D01*
X0162267Y0083735D01*
X0162181Y0083701D01*
X0162093Y0083671D01*
X0162005Y0083645D01*
X0161915Y0083622D01*
X0161824Y0083604D01*
X0161733Y0083589D01*
X0161641Y0083578D01*
X0161549Y0083571D01*
X0161456Y0083568D01*
X0161364Y0083569D01*
X0161271Y0083574D01*
X0161179Y0083583D01*
X0161087Y0083596D01*
X0160996Y0083612D01*
X0160906Y0083633D01*
X0160817Y0083657D01*
X0160729Y0083686D01*
X0160642Y0083718D01*
X0160557Y0083753D01*
X0160473Y0083793D01*
X0160391Y0083835D01*
X0160311Y0083882D01*
X0160233Y0083931D01*
X0160157Y0083984D01*
X0160083Y0084040D01*
X0160012Y0084100D01*
X0159944Y0084162D01*
X0159878Y0084227D01*
X0159815Y0084295D01*
X0159755Y0084365D01*
X0159698Y0084438D01*
X0159644Y0084513D01*
X0159594Y0084591D01*
X0159547Y0084671D01*
X0159503Y0084752D01*
X0159463Y0084836D01*
X0159426Y0084921D01*
X0159393Y0085007D01*
X0159364Y0085095D01*
X0159339Y0085184D01*
X0159317Y0085274D01*
X0159300Y0085365D01*
X0159286Y0085456D01*
X0159276Y0085548D01*
X0159270Y0085640D01*
X0159268Y0085733D01*
X0156109Y0110241D02*
X0156111Y0110311D01*
X0156117Y0110380D01*
X0156127Y0110449D01*
X0156140Y0110517D01*
X0156158Y0110584D01*
X0156179Y0110651D01*
X0156204Y0110716D01*
X0156233Y0110779D01*
X0156265Y0110841D01*
X0156301Y0110901D01*
X0156340Y0110958D01*
X0156382Y0111014D01*
X0156427Y0111067D01*
X0156475Y0111117D01*
X0156526Y0111164D01*
X0156580Y0111209D01*
X0156636Y0111250D01*
X0156694Y0111288D01*
X0156754Y0111323D01*
X0156817Y0111355D01*
X0156880Y0111382D01*
X0156946Y0111406D01*
X0157012Y0111427D01*
X0157080Y0111443D01*
X0157148Y0111456D01*
X0157217Y0111465D01*
X0157287Y0111470D01*
X0157356Y0111471D01*
X0157426Y0111468D01*
X0157495Y0111461D01*
X0157564Y0111450D01*
X0157632Y0111436D01*
X0157699Y0111417D01*
X0157765Y0111395D01*
X0157830Y0111369D01*
X0157893Y0111339D01*
X0157954Y0111306D01*
X0158013Y0111270D01*
X0158070Y0111230D01*
X0158125Y0111187D01*
X0158177Y0111141D01*
X0158227Y0111092D01*
X0158274Y0111040D01*
X0158317Y0110986D01*
X0158358Y0110930D01*
X0158395Y0110871D01*
X0158429Y0110810D01*
X0158460Y0110748D01*
X0158487Y0110683D01*
X0158510Y0110618D01*
X0158529Y0110551D01*
X0158545Y0110483D01*
X0158557Y0110414D01*
X0158565Y0110345D01*
X0158569Y0110276D01*
X0158569Y0110206D01*
X0158565Y0110137D01*
X0158557Y0110068D01*
X0158545Y0109999D01*
X0158529Y0109931D01*
X0158510Y0109864D01*
X0158487Y0109799D01*
X0158460Y0109734D01*
X0158429Y0109672D01*
X0158395Y0109611D01*
X0158358Y0109552D01*
X0158317Y0109496D01*
X0158274Y0109442D01*
X0158227Y0109390D01*
X0158177Y0109341D01*
X0158125Y0109295D01*
X0158070Y0109252D01*
X0158013Y0109212D01*
X0157954Y0109176D01*
X0157893Y0109143D01*
X0157830Y0109113D01*
X0157765Y0109087D01*
X0157699Y0109065D01*
X0157632Y0109046D01*
X0157564Y0109032D01*
X0157495Y0109021D01*
X0157426Y0109014D01*
X0157356Y0109011D01*
X0157287Y0109012D01*
X0157217Y0109017D01*
X0157148Y0109026D01*
X0157080Y0109039D01*
X0157012Y0109055D01*
X0156946Y0109076D01*
X0156880Y0109100D01*
X0156817Y0109127D01*
X0156754Y0109159D01*
X0156694Y0109194D01*
X0156636Y0109232D01*
X0156580Y0109273D01*
X0156526Y0109318D01*
X0156475Y0109365D01*
X0156427Y0109415D01*
X0156382Y0109468D01*
X0156340Y0109524D01*
X0156301Y0109581D01*
X0156265Y0109641D01*
X0156233Y0109703D01*
X0156204Y0109766D01*
X0156179Y0109831D01*
X0156158Y0109898D01*
X0156140Y0109965D01*
X0156127Y0110033D01*
X0156117Y0110102D01*
X0156111Y0110171D01*
X0156109Y0110241D01*
X0156109Y0136225D02*
X0156111Y0136295D01*
X0156117Y0136364D01*
X0156127Y0136433D01*
X0156140Y0136501D01*
X0156158Y0136568D01*
X0156179Y0136635D01*
X0156204Y0136700D01*
X0156233Y0136763D01*
X0156265Y0136825D01*
X0156301Y0136885D01*
X0156340Y0136942D01*
X0156382Y0136998D01*
X0156427Y0137051D01*
X0156475Y0137101D01*
X0156526Y0137148D01*
X0156580Y0137193D01*
X0156636Y0137234D01*
X0156694Y0137272D01*
X0156754Y0137307D01*
X0156817Y0137339D01*
X0156880Y0137366D01*
X0156946Y0137390D01*
X0157012Y0137411D01*
X0157080Y0137427D01*
X0157148Y0137440D01*
X0157217Y0137449D01*
X0157287Y0137454D01*
X0157356Y0137455D01*
X0157426Y0137452D01*
X0157495Y0137445D01*
X0157564Y0137434D01*
X0157632Y0137420D01*
X0157699Y0137401D01*
X0157765Y0137379D01*
X0157830Y0137353D01*
X0157893Y0137323D01*
X0157954Y0137290D01*
X0158013Y0137254D01*
X0158070Y0137214D01*
X0158125Y0137171D01*
X0158177Y0137125D01*
X0158227Y0137076D01*
X0158274Y0137024D01*
X0158317Y0136970D01*
X0158358Y0136914D01*
X0158395Y0136855D01*
X0158429Y0136794D01*
X0158460Y0136732D01*
X0158487Y0136667D01*
X0158510Y0136602D01*
X0158529Y0136535D01*
X0158545Y0136467D01*
X0158557Y0136398D01*
X0158565Y0136329D01*
X0158569Y0136260D01*
X0158569Y0136190D01*
X0158565Y0136121D01*
X0158557Y0136052D01*
X0158545Y0135983D01*
X0158529Y0135915D01*
X0158510Y0135848D01*
X0158487Y0135783D01*
X0158460Y0135718D01*
X0158429Y0135656D01*
X0158395Y0135595D01*
X0158358Y0135536D01*
X0158317Y0135480D01*
X0158274Y0135426D01*
X0158227Y0135374D01*
X0158177Y0135325D01*
X0158125Y0135279D01*
X0158070Y0135236D01*
X0158013Y0135196D01*
X0157954Y0135160D01*
X0157893Y0135127D01*
X0157830Y0135097D01*
X0157765Y0135071D01*
X0157699Y0135049D01*
X0157632Y0135030D01*
X0157564Y0135016D01*
X0157495Y0135005D01*
X0157426Y0134998D01*
X0157356Y0134995D01*
X0157287Y0134996D01*
X0157217Y0135001D01*
X0157148Y0135010D01*
X0157080Y0135023D01*
X0157012Y0135039D01*
X0156946Y0135060D01*
X0156880Y0135084D01*
X0156817Y0135111D01*
X0156754Y0135143D01*
X0156694Y0135178D01*
X0156636Y0135216D01*
X0156580Y0135257D01*
X0156526Y0135302D01*
X0156475Y0135349D01*
X0156427Y0135399D01*
X0156382Y0135452D01*
X0156340Y0135508D01*
X0156301Y0135565D01*
X0156265Y0135625D01*
X0156233Y0135687D01*
X0156204Y0135750D01*
X0156179Y0135815D01*
X0156158Y0135882D01*
X0156140Y0135949D01*
X0156127Y0136017D01*
X0156117Y0136086D01*
X0156111Y0136155D01*
X0156109Y0136225D01*
X0149268Y0260733D02*
X0149270Y0260826D01*
X0149276Y0260918D01*
X0149286Y0261010D01*
X0149300Y0261101D01*
X0149317Y0261192D01*
X0149339Y0261282D01*
X0149364Y0261371D01*
X0149393Y0261459D01*
X0149426Y0261545D01*
X0149463Y0261630D01*
X0149503Y0261714D01*
X0149547Y0261795D01*
X0149594Y0261875D01*
X0149644Y0261953D01*
X0149698Y0262028D01*
X0149755Y0262101D01*
X0149815Y0262171D01*
X0149878Y0262239D01*
X0149944Y0262304D01*
X0150012Y0262366D01*
X0150083Y0262426D01*
X0150157Y0262482D01*
X0150233Y0262535D01*
X0150311Y0262584D01*
X0150391Y0262631D01*
X0150473Y0262673D01*
X0150557Y0262713D01*
X0150642Y0262748D01*
X0150729Y0262780D01*
X0150817Y0262809D01*
X0150906Y0262833D01*
X0150996Y0262854D01*
X0151087Y0262870D01*
X0151179Y0262883D01*
X0151271Y0262892D01*
X0151364Y0262897D01*
X0151456Y0262898D01*
X0151549Y0262895D01*
X0151641Y0262888D01*
X0151733Y0262877D01*
X0151824Y0262862D01*
X0151915Y0262844D01*
X0152005Y0262821D01*
X0152093Y0262795D01*
X0152181Y0262765D01*
X0152267Y0262731D01*
X0152351Y0262694D01*
X0152434Y0262652D01*
X0152515Y0262608D01*
X0152595Y0262560D01*
X0152672Y0262509D01*
X0152746Y0262454D01*
X0152819Y0262396D01*
X0152889Y0262336D01*
X0152956Y0262272D01*
X0153020Y0262206D01*
X0153082Y0262136D01*
X0153140Y0262065D01*
X0153195Y0261991D01*
X0153247Y0261914D01*
X0153296Y0261835D01*
X0153342Y0261755D01*
X0153384Y0261672D01*
X0153422Y0261588D01*
X0153457Y0261502D01*
X0153488Y0261415D01*
X0153515Y0261327D01*
X0153538Y0261237D01*
X0153558Y0261147D01*
X0153574Y0261056D01*
X0153586Y0260964D01*
X0153594Y0260872D01*
X0153598Y0260779D01*
X0153598Y0260687D01*
X0153594Y0260594D01*
X0153586Y0260502D01*
X0153574Y0260410D01*
X0153558Y0260319D01*
X0153538Y0260229D01*
X0153515Y0260139D01*
X0153488Y0260051D01*
X0153457Y0259964D01*
X0153422Y0259878D01*
X0153384Y0259794D01*
X0153342Y0259711D01*
X0153296Y0259631D01*
X0153247Y0259552D01*
X0153195Y0259475D01*
X0153140Y0259401D01*
X0153082Y0259330D01*
X0153020Y0259260D01*
X0152956Y0259194D01*
X0152889Y0259130D01*
X0152819Y0259070D01*
X0152746Y0259012D01*
X0152672Y0258957D01*
X0152595Y0258906D01*
X0152516Y0258858D01*
X0152434Y0258814D01*
X0152351Y0258772D01*
X0152267Y0258735D01*
X0152181Y0258701D01*
X0152093Y0258671D01*
X0152005Y0258645D01*
X0151915Y0258622D01*
X0151824Y0258604D01*
X0151733Y0258589D01*
X0151641Y0258578D01*
X0151549Y0258571D01*
X0151456Y0258568D01*
X0151364Y0258569D01*
X0151271Y0258574D01*
X0151179Y0258583D01*
X0151087Y0258596D01*
X0150996Y0258612D01*
X0150906Y0258633D01*
X0150817Y0258657D01*
X0150729Y0258686D01*
X0150642Y0258718D01*
X0150557Y0258753D01*
X0150473Y0258793D01*
X0150391Y0258835D01*
X0150311Y0258882D01*
X0150233Y0258931D01*
X0150157Y0258984D01*
X0150083Y0259040D01*
X0150012Y0259100D01*
X0149944Y0259162D01*
X0149878Y0259227D01*
X0149815Y0259295D01*
X0149755Y0259365D01*
X0149698Y0259438D01*
X0149644Y0259513D01*
X0149594Y0259591D01*
X0149547Y0259671D01*
X0149503Y0259752D01*
X0149463Y0259836D01*
X0149426Y0259921D01*
X0149393Y0260007D01*
X0149364Y0260095D01*
X0149339Y0260184D01*
X0149317Y0260274D01*
X0149300Y0260365D01*
X0149286Y0260456D01*
X0149276Y0260548D01*
X0149270Y0260640D01*
X0149268Y0260733D01*
X0139268Y0260733D02*
X0139270Y0260826D01*
X0139276Y0260918D01*
X0139286Y0261010D01*
X0139300Y0261101D01*
X0139317Y0261192D01*
X0139339Y0261282D01*
X0139364Y0261371D01*
X0139393Y0261459D01*
X0139426Y0261545D01*
X0139463Y0261630D01*
X0139503Y0261714D01*
X0139547Y0261795D01*
X0139594Y0261875D01*
X0139644Y0261953D01*
X0139698Y0262028D01*
X0139755Y0262101D01*
X0139815Y0262171D01*
X0139878Y0262239D01*
X0139944Y0262304D01*
X0140012Y0262366D01*
X0140083Y0262426D01*
X0140157Y0262482D01*
X0140233Y0262535D01*
X0140311Y0262584D01*
X0140391Y0262631D01*
X0140473Y0262673D01*
X0140557Y0262713D01*
X0140642Y0262748D01*
X0140729Y0262780D01*
X0140817Y0262809D01*
X0140906Y0262833D01*
X0140996Y0262854D01*
X0141087Y0262870D01*
X0141179Y0262883D01*
X0141271Y0262892D01*
X0141364Y0262897D01*
X0141456Y0262898D01*
X0141549Y0262895D01*
X0141641Y0262888D01*
X0141733Y0262877D01*
X0141824Y0262862D01*
X0141915Y0262844D01*
X0142005Y0262821D01*
X0142093Y0262795D01*
X0142181Y0262765D01*
X0142267Y0262731D01*
X0142351Y0262694D01*
X0142434Y0262652D01*
X0142515Y0262608D01*
X0142595Y0262560D01*
X0142672Y0262509D01*
X0142746Y0262454D01*
X0142819Y0262396D01*
X0142889Y0262336D01*
X0142956Y0262272D01*
X0143020Y0262206D01*
X0143082Y0262136D01*
X0143140Y0262065D01*
X0143195Y0261991D01*
X0143247Y0261914D01*
X0143296Y0261835D01*
X0143342Y0261755D01*
X0143384Y0261672D01*
X0143422Y0261588D01*
X0143457Y0261502D01*
X0143488Y0261415D01*
X0143515Y0261327D01*
X0143538Y0261237D01*
X0143558Y0261147D01*
X0143574Y0261056D01*
X0143586Y0260964D01*
X0143594Y0260872D01*
X0143598Y0260779D01*
X0143598Y0260687D01*
X0143594Y0260594D01*
X0143586Y0260502D01*
X0143574Y0260410D01*
X0143558Y0260319D01*
X0143538Y0260229D01*
X0143515Y0260139D01*
X0143488Y0260051D01*
X0143457Y0259964D01*
X0143422Y0259878D01*
X0143384Y0259794D01*
X0143342Y0259711D01*
X0143296Y0259631D01*
X0143247Y0259552D01*
X0143195Y0259475D01*
X0143140Y0259401D01*
X0143082Y0259330D01*
X0143020Y0259260D01*
X0142956Y0259194D01*
X0142889Y0259130D01*
X0142819Y0259070D01*
X0142746Y0259012D01*
X0142672Y0258957D01*
X0142595Y0258906D01*
X0142516Y0258858D01*
X0142434Y0258814D01*
X0142351Y0258772D01*
X0142267Y0258735D01*
X0142181Y0258701D01*
X0142093Y0258671D01*
X0142005Y0258645D01*
X0141915Y0258622D01*
X0141824Y0258604D01*
X0141733Y0258589D01*
X0141641Y0258578D01*
X0141549Y0258571D01*
X0141456Y0258568D01*
X0141364Y0258569D01*
X0141271Y0258574D01*
X0141179Y0258583D01*
X0141087Y0258596D01*
X0140996Y0258612D01*
X0140906Y0258633D01*
X0140817Y0258657D01*
X0140729Y0258686D01*
X0140642Y0258718D01*
X0140557Y0258753D01*
X0140473Y0258793D01*
X0140391Y0258835D01*
X0140311Y0258882D01*
X0140233Y0258931D01*
X0140157Y0258984D01*
X0140083Y0259040D01*
X0140012Y0259100D01*
X0139944Y0259162D01*
X0139878Y0259227D01*
X0139815Y0259295D01*
X0139755Y0259365D01*
X0139698Y0259438D01*
X0139644Y0259513D01*
X0139594Y0259591D01*
X0139547Y0259671D01*
X0139503Y0259752D01*
X0139463Y0259836D01*
X0139426Y0259921D01*
X0139393Y0260007D01*
X0139364Y0260095D01*
X0139339Y0260184D01*
X0139317Y0260274D01*
X0139300Y0260365D01*
X0139286Y0260456D01*
X0139276Y0260548D01*
X0139270Y0260640D01*
X0139268Y0260733D01*
X0129268Y0260733D02*
X0129270Y0260826D01*
X0129276Y0260918D01*
X0129286Y0261010D01*
X0129300Y0261101D01*
X0129317Y0261192D01*
X0129339Y0261282D01*
X0129364Y0261371D01*
X0129393Y0261459D01*
X0129426Y0261545D01*
X0129463Y0261630D01*
X0129503Y0261714D01*
X0129547Y0261795D01*
X0129594Y0261875D01*
X0129644Y0261953D01*
X0129698Y0262028D01*
X0129755Y0262101D01*
X0129815Y0262171D01*
X0129878Y0262239D01*
X0129944Y0262304D01*
X0130012Y0262366D01*
X0130083Y0262426D01*
X0130157Y0262482D01*
X0130233Y0262535D01*
X0130311Y0262584D01*
X0130391Y0262631D01*
X0130473Y0262673D01*
X0130557Y0262713D01*
X0130642Y0262748D01*
X0130729Y0262780D01*
X0130817Y0262809D01*
X0130906Y0262833D01*
X0130996Y0262854D01*
X0131087Y0262870D01*
X0131179Y0262883D01*
X0131271Y0262892D01*
X0131364Y0262897D01*
X0131456Y0262898D01*
X0131549Y0262895D01*
X0131641Y0262888D01*
X0131733Y0262877D01*
X0131824Y0262862D01*
X0131915Y0262844D01*
X0132005Y0262821D01*
X0132093Y0262795D01*
X0132181Y0262765D01*
X0132267Y0262731D01*
X0132351Y0262694D01*
X0132434Y0262652D01*
X0132515Y0262608D01*
X0132595Y0262560D01*
X0132672Y0262509D01*
X0132746Y0262454D01*
X0132819Y0262396D01*
X0132889Y0262336D01*
X0132956Y0262272D01*
X0133020Y0262206D01*
X0133082Y0262136D01*
X0133140Y0262065D01*
X0133195Y0261991D01*
X0133247Y0261914D01*
X0133296Y0261835D01*
X0133342Y0261755D01*
X0133384Y0261672D01*
X0133422Y0261588D01*
X0133457Y0261502D01*
X0133488Y0261415D01*
X0133515Y0261327D01*
X0133538Y0261237D01*
X0133558Y0261147D01*
X0133574Y0261056D01*
X0133586Y0260964D01*
X0133594Y0260872D01*
X0133598Y0260779D01*
X0133598Y0260687D01*
X0133594Y0260594D01*
X0133586Y0260502D01*
X0133574Y0260410D01*
X0133558Y0260319D01*
X0133538Y0260229D01*
X0133515Y0260139D01*
X0133488Y0260051D01*
X0133457Y0259964D01*
X0133422Y0259878D01*
X0133384Y0259794D01*
X0133342Y0259711D01*
X0133296Y0259631D01*
X0133247Y0259552D01*
X0133195Y0259475D01*
X0133140Y0259401D01*
X0133082Y0259330D01*
X0133020Y0259260D01*
X0132956Y0259194D01*
X0132889Y0259130D01*
X0132819Y0259070D01*
X0132746Y0259012D01*
X0132672Y0258957D01*
X0132595Y0258906D01*
X0132516Y0258858D01*
X0132434Y0258814D01*
X0132351Y0258772D01*
X0132267Y0258735D01*
X0132181Y0258701D01*
X0132093Y0258671D01*
X0132005Y0258645D01*
X0131915Y0258622D01*
X0131824Y0258604D01*
X0131733Y0258589D01*
X0131641Y0258578D01*
X0131549Y0258571D01*
X0131456Y0258568D01*
X0131364Y0258569D01*
X0131271Y0258574D01*
X0131179Y0258583D01*
X0131087Y0258596D01*
X0130996Y0258612D01*
X0130906Y0258633D01*
X0130817Y0258657D01*
X0130729Y0258686D01*
X0130642Y0258718D01*
X0130557Y0258753D01*
X0130473Y0258793D01*
X0130391Y0258835D01*
X0130311Y0258882D01*
X0130233Y0258931D01*
X0130157Y0258984D01*
X0130083Y0259040D01*
X0130012Y0259100D01*
X0129944Y0259162D01*
X0129878Y0259227D01*
X0129815Y0259295D01*
X0129755Y0259365D01*
X0129698Y0259438D01*
X0129644Y0259513D01*
X0129594Y0259591D01*
X0129547Y0259671D01*
X0129503Y0259752D01*
X0129463Y0259836D01*
X0129426Y0259921D01*
X0129393Y0260007D01*
X0129364Y0260095D01*
X0129339Y0260184D01*
X0129317Y0260274D01*
X0129300Y0260365D01*
X0129286Y0260456D01*
X0129276Y0260548D01*
X0129270Y0260640D01*
X0129268Y0260733D01*
X0129268Y0270733D02*
X0129270Y0270826D01*
X0129276Y0270918D01*
X0129286Y0271010D01*
X0129300Y0271101D01*
X0129317Y0271192D01*
X0129339Y0271282D01*
X0129364Y0271371D01*
X0129393Y0271459D01*
X0129426Y0271545D01*
X0129463Y0271630D01*
X0129503Y0271714D01*
X0129547Y0271795D01*
X0129594Y0271875D01*
X0129644Y0271953D01*
X0129698Y0272028D01*
X0129755Y0272101D01*
X0129815Y0272171D01*
X0129878Y0272239D01*
X0129944Y0272304D01*
X0130012Y0272366D01*
X0130083Y0272426D01*
X0130157Y0272482D01*
X0130233Y0272535D01*
X0130311Y0272584D01*
X0130391Y0272631D01*
X0130473Y0272673D01*
X0130557Y0272713D01*
X0130642Y0272748D01*
X0130729Y0272780D01*
X0130817Y0272809D01*
X0130906Y0272833D01*
X0130996Y0272854D01*
X0131087Y0272870D01*
X0131179Y0272883D01*
X0131271Y0272892D01*
X0131364Y0272897D01*
X0131456Y0272898D01*
X0131549Y0272895D01*
X0131641Y0272888D01*
X0131733Y0272877D01*
X0131824Y0272862D01*
X0131915Y0272844D01*
X0132005Y0272821D01*
X0132093Y0272795D01*
X0132181Y0272765D01*
X0132267Y0272731D01*
X0132351Y0272694D01*
X0132434Y0272652D01*
X0132515Y0272608D01*
X0132595Y0272560D01*
X0132672Y0272509D01*
X0132746Y0272454D01*
X0132819Y0272396D01*
X0132889Y0272336D01*
X0132956Y0272272D01*
X0133020Y0272206D01*
X0133082Y0272136D01*
X0133140Y0272065D01*
X0133195Y0271991D01*
X0133247Y0271914D01*
X0133296Y0271835D01*
X0133342Y0271755D01*
X0133384Y0271672D01*
X0133422Y0271588D01*
X0133457Y0271502D01*
X0133488Y0271415D01*
X0133515Y0271327D01*
X0133538Y0271237D01*
X0133558Y0271147D01*
X0133574Y0271056D01*
X0133586Y0270964D01*
X0133594Y0270872D01*
X0133598Y0270779D01*
X0133598Y0270687D01*
X0133594Y0270594D01*
X0133586Y0270502D01*
X0133574Y0270410D01*
X0133558Y0270319D01*
X0133538Y0270229D01*
X0133515Y0270139D01*
X0133488Y0270051D01*
X0133457Y0269964D01*
X0133422Y0269878D01*
X0133384Y0269794D01*
X0133342Y0269711D01*
X0133296Y0269631D01*
X0133247Y0269552D01*
X0133195Y0269475D01*
X0133140Y0269401D01*
X0133082Y0269330D01*
X0133020Y0269260D01*
X0132956Y0269194D01*
X0132889Y0269130D01*
X0132819Y0269070D01*
X0132746Y0269012D01*
X0132672Y0268957D01*
X0132595Y0268906D01*
X0132516Y0268858D01*
X0132434Y0268814D01*
X0132351Y0268772D01*
X0132267Y0268735D01*
X0132181Y0268701D01*
X0132093Y0268671D01*
X0132005Y0268645D01*
X0131915Y0268622D01*
X0131824Y0268604D01*
X0131733Y0268589D01*
X0131641Y0268578D01*
X0131549Y0268571D01*
X0131456Y0268568D01*
X0131364Y0268569D01*
X0131271Y0268574D01*
X0131179Y0268583D01*
X0131087Y0268596D01*
X0130996Y0268612D01*
X0130906Y0268633D01*
X0130817Y0268657D01*
X0130729Y0268686D01*
X0130642Y0268718D01*
X0130557Y0268753D01*
X0130473Y0268793D01*
X0130391Y0268835D01*
X0130311Y0268882D01*
X0130233Y0268931D01*
X0130157Y0268984D01*
X0130083Y0269040D01*
X0130012Y0269100D01*
X0129944Y0269162D01*
X0129878Y0269227D01*
X0129815Y0269295D01*
X0129755Y0269365D01*
X0129698Y0269438D01*
X0129644Y0269513D01*
X0129594Y0269591D01*
X0129547Y0269671D01*
X0129503Y0269752D01*
X0129463Y0269836D01*
X0129426Y0269921D01*
X0129393Y0270007D01*
X0129364Y0270095D01*
X0129339Y0270184D01*
X0129317Y0270274D01*
X0129300Y0270365D01*
X0129286Y0270456D01*
X0129276Y0270548D01*
X0129270Y0270640D01*
X0129268Y0270733D01*
X0139268Y0270733D02*
X0139270Y0270826D01*
X0139276Y0270918D01*
X0139286Y0271010D01*
X0139300Y0271101D01*
X0139317Y0271192D01*
X0139339Y0271282D01*
X0139364Y0271371D01*
X0139393Y0271459D01*
X0139426Y0271545D01*
X0139463Y0271630D01*
X0139503Y0271714D01*
X0139547Y0271795D01*
X0139594Y0271875D01*
X0139644Y0271953D01*
X0139698Y0272028D01*
X0139755Y0272101D01*
X0139815Y0272171D01*
X0139878Y0272239D01*
X0139944Y0272304D01*
X0140012Y0272366D01*
X0140083Y0272426D01*
X0140157Y0272482D01*
X0140233Y0272535D01*
X0140311Y0272584D01*
X0140391Y0272631D01*
X0140473Y0272673D01*
X0140557Y0272713D01*
X0140642Y0272748D01*
X0140729Y0272780D01*
X0140817Y0272809D01*
X0140906Y0272833D01*
X0140996Y0272854D01*
X0141087Y0272870D01*
X0141179Y0272883D01*
X0141271Y0272892D01*
X0141364Y0272897D01*
X0141456Y0272898D01*
X0141549Y0272895D01*
X0141641Y0272888D01*
X0141733Y0272877D01*
X0141824Y0272862D01*
X0141915Y0272844D01*
X0142005Y0272821D01*
X0142093Y0272795D01*
X0142181Y0272765D01*
X0142267Y0272731D01*
X0142351Y0272694D01*
X0142434Y0272652D01*
X0142515Y0272608D01*
X0142595Y0272560D01*
X0142672Y0272509D01*
X0142746Y0272454D01*
X0142819Y0272396D01*
X0142889Y0272336D01*
X0142956Y0272272D01*
X0143020Y0272206D01*
X0143082Y0272136D01*
X0143140Y0272065D01*
X0143195Y0271991D01*
X0143247Y0271914D01*
X0143296Y0271835D01*
X0143342Y0271755D01*
X0143384Y0271672D01*
X0143422Y0271588D01*
X0143457Y0271502D01*
X0143488Y0271415D01*
X0143515Y0271327D01*
X0143538Y0271237D01*
X0143558Y0271147D01*
X0143574Y0271056D01*
X0143586Y0270964D01*
X0143594Y0270872D01*
X0143598Y0270779D01*
X0143598Y0270687D01*
X0143594Y0270594D01*
X0143586Y0270502D01*
X0143574Y0270410D01*
X0143558Y0270319D01*
X0143538Y0270229D01*
X0143515Y0270139D01*
X0143488Y0270051D01*
X0143457Y0269964D01*
X0143422Y0269878D01*
X0143384Y0269794D01*
X0143342Y0269711D01*
X0143296Y0269631D01*
X0143247Y0269552D01*
X0143195Y0269475D01*
X0143140Y0269401D01*
X0143082Y0269330D01*
X0143020Y0269260D01*
X0142956Y0269194D01*
X0142889Y0269130D01*
X0142819Y0269070D01*
X0142746Y0269012D01*
X0142672Y0268957D01*
X0142595Y0268906D01*
X0142516Y0268858D01*
X0142434Y0268814D01*
X0142351Y0268772D01*
X0142267Y0268735D01*
X0142181Y0268701D01*
X0142093Y0268671D01*
X0142005Y0268645D01*
X0141915Y0268622D01*
X0141824Y0268604D01*
X0141733Y0268589D01*
X0141641Y0268578D01*
X0141549Y0268571D01*
X0141456Y0268568D01*
X0141364Y0268569D01*
X0141271Y0268574D01*
X0141179Y0268583D01*
X0141087Y0268596D01*
X0140996Y0268612D01*
X0140906Y0268633D01*
X0140817Y0268657D01*
X0140729Y0268686D01*
X0140642Y0268718D01*
X0140557Y0268753D01*
X0140473Y0268793D01*
X0140391Y0268835D01*
X0140311Y0268882D01*
X0140233Y0268931D01*
X0140157Y0268984D01*
X0140083Y0269040D01*
X0140012Y0269100D01*
X0139944Y0269162D01*
X0139878Y0269227D01*
X0139815Y0269295D01*
X0139755Y0269365D01*
X0139698Y0269438D01*
X0139644Y0269513D01*
X0139594Y0269591D01*
X0139547Y0269671D01*
X0139503Y0269752D01*
X0139463Y0269836D01*
X0139426Y0269921D01*
X0139393Y0270007D01*
X0139364Y0270095D01*
X0139339Y0270184D01*
X0139317Y0270274D01*
X0139300Y0270365D01*
X0139286Y0270456D01*
X0139276Y0270548D01*
X0139270Y0270640D01*
X0139268Y0270733D01*
X0149268Y0270733D02*
X0149270Y0270826D01*
X0149276Y0270918D01*
X0149286Y0271010D01*
X0149300Y0271101D01*
X0149317Y0271192D01*
X0149339Y0271282D01*
X0149364Y0271371D01*
X0149393Y0271459D01*
X0149426Y0271545D01*
X0149463Y0271630D01*
X0149503Y0271714D01*
X0149547Y0271795D01*
X0149594Y0271875D01*
X0149644Y0271953D01*
X0149698Y0272028D01*
X0149755Y0272101D01*
X0149815Y0272171D01*
X0149878Y0272239D01*
X0149944Y0272304D01*
X0150012Y0272366D01*
X0150083Y0272426D01*
X0150157Y0272482D01*
X0150233Y0272535D01*
X0150311Y0272584D01*
X0150391Y0272631D01*
X0150473Y0272673D01*
X0150557Y0272713D01*
X0150642Y0272748D01*
X0150729Y0272780D01*
X0150817Y0272809D01*
X0150906Y0272833D01*
X0150996Y0272854D01*
X0151087Y0272870D01*
X0151179Y0272883D01*
X0151271Y0272892D01*
X0151364Y0272897D01*
X0151456Y0272898D01*
X0151549Y0272895D01*
X0151641Y0272888D01*
X0151733Y0272877D01*
X0151824Y0272862D01*
X0151915Y0272844D01*
X0152005Y0272821D01*
X0152093Y0272795D01*
X0152181Y0272765D01*
X0152267Y0272731D01*
X0152351Y0272694D01*
X0152434Y0272652D01*
X0152515Y0272608D01*
X0152595Y0272560D01*
X0152672Y0272509D01*
X0152746Y0272454D01*
X0152819Y0272396D01*
X0152889Y0272336D01*
X0152956Y0272272D01*
X0153020Y0272206D01*
X0153082Y0272136D01*
X0153140Y0272065D01*
X0153195Y0271991D01*
X0153247Y0271914D01*
X0153296Y0271835D01*
X0153342Y0271755D01*
X0153384Y0271672D01*
X0153422Y0271588D01*
X0153457Y0271502D01*
X0153488Y0271415D01*
X0153515Y0271327D01*
X0153538Y0271237D01*
X0153558Y0271147D01*
X0153574Y0271056D01*
X0153586Y0270964D01*
X0153594Y0270872D01*
X0153598Y0270779D01*
X0153598Y0270687D01*
X0153594Y0270594D01*
X0153586Y0270502D01*
X0153574Y0270410D01*
X0153558Y0270319D01*
X0153538Y0270229D01*
X0153515Y0270139D01*
X0153488Y0270051D01*
X0153457Y0269964D01*
X0153422Y0269878D01*
X0153384Y0269794D01*
X0153342Y0269711D01*
X0153296Y0269631D01*
X0153247Y0269552D01*
X0153195Y0269475D01*
X0153140Y0269401D01*
X0153082Y0269330D01*
X0153020Y0269260D01*
X0152956Y0269194D01*
X0152889Y0269130D01*
X0152819Y0269070D01*
X0152746Y0269012D01*
X0152672Y0268957D01*
X0152595Y0268906D01*
X0152516Y0268858D01*
X0152434Y0268814D01*
X0152351Y0268772D01*
X0152267Y0268735D01*
X0152181Y0268701D01*
X0152093Y0268671D01*
X0152005Y0268645D01*
X0151915Y0268622D01*
X0151824Y0268604D01*
X0151733Y0268589D01*
X0151641Y0268578D01*
X0151549Y0268571D01*
X0151456Y0268568D01*
X0151364Y0268569D01*
X0151271Y0268574D01*
X0151179Y0268583D01*
X0151087Y0268596D01*
X0150996Y0268612D01*
X0150906Y0268633D01*
X0150817Y0268657D01*
X0150729Y0268686D01*
X0150642Y0268718D01*
X0150557Y0268753D01*
X0150473Y0268793D01*
X0150391Y0268835D01*
X0150311Y0268882D01*
X0150233Y0268931D01*
X0150157Y0268984D01*
X0150083Y0269040D01*
X0150012Y0269100D01*
X0149944Y0269162D01*
X0149878Y0269227D01*
X0149815Y0269295D01*
X0149755Y0269365D01*
X0149698Y0269438D01*
X0149644Y0269513D01*
X0149594Y0269591D01*
X0149547Y0269671D01*
X0149503Y0269752D01*
X0149463Y0269836D01*
X0149426Y0269921D01*
X0149393Y0270007D01*
X0149364Y0270095D01*
X0149339Y0270184D01*
X0149317Y0270274D01*
X0149300Y0270365D01*
X0149286Y0270456D01*
X0149276Y0270548D01*
X0149270Y0270640D01*
X0149268Y0270733D01*
X0159268Y0270733D02*
X0159270Y0270826D01*
X0159276Y0270918D01*
X0159286Y0271010D01*
X0159300Y0271101D01*
X0159317Y0271192D01*
X0159339Y0271282D01*
X0159364Y0271371D01*
X0159393Y0271459D01*
X0159426Y0271545D01*
X0159463Y0271630D01*
X0159503Y0271714D01*
X0159547Y0271795D01*
X0159594Y0271875D01*
X0159644Y0271953D01*
X0159698Y0272028D01*
X0159755Y0272101D01*
X0159815Y0272171D01*
X0159878Y0272239D01*
X0159944Y0272304D01*
X0160012Y0272366D01*
X0160083Y0272426D01*
X0160157Y0272482D01*
X0160233Y0272535D01*
X0160311Y0272584D01*
X0160391Y0272631D01*
X0160473Y0272673D01*
X0160557Y0272713D01*
X0160642Y0272748D01*
X0160729Y0272780D01*
X0160817Y0272809D01*
X0160906Y0272833D01*
X0160996Y0272854D01*
X0161087Y0272870D01*
X0161179Y0272883D01*
X0161271Y0272892D01*
X0161364Y0272897D01*
X0161456Y0272898D01*
X0161549Y0272895D01*
X0161641Y0272888D01*
X0161733Y0272877D01*
X0161824Y0272862D01*
X0161915Y0272844D01*
X0162005Y0272821D01*
X0162093Y0272795D01*
X0162181Y0272765D01*
X0162267Y0272731D01*
X0162351Y0272694D01*
X0162434Y0272652D01*
X0162515Y0272608D01*
X0162595Y0272560D01*
X0162672Y0272509D01*
X0162746Y0272454D01*
X0162819Y0272396D01*
X0162889Y0272336D01*
X0162956Y0272272D01*
X0163020Y0272206D01*
X0163082Y0272136D01*
X0163140Y0272065D01*
X0163195Y0271991D01*
X0163247Y0271914D01*
X0163296Y0271835D01*
X0163342Y0271755D01*
X0163384Y0271672D01*
X0163422Y0271588D01*
X0163457Y0271502D01*
X0163488Y0271415D01*
X0163515Y0271327D01*
X0163538Y0271237D01*
X0163558Y0271147D01*
X0163574Y0271056D01*
X0163586Y0270964D01*
X0163594Y0270872D01*
X0163598Y0270779D01*
X0163598Y0270687D01*
X0163594Y0270594D01*
X0163586Y0270502D01*
X0163574Y0270410D01*
X0163558Y0270319D01*
X0163538Y0270229D01*
X0163515Y0270139D01*
X0163488Y0270051D01*
X0163457Y0269964D01*
X0163422Y0269878D01*
X0163384Y0269794D01*
X0163342Y0269711D01*
X0163296Y0269631D01*
X0163247Y0269552D01*
X0163195Y0269475D01*
X0163140Y0269401D01*
X0163082Y0269330D01*
X0163020Y0269260D01*
X0162956Y0269194D01*
X0162889Y0269130D01*
X0162819Y0269070D01*
X0162746Y0269012D01*
X0162672Y0268957D01*
X0162595Y0268906D01*
X0162516Y0268858D01*
X0162434Y0268814D01*
X0162351Y0268772D01*
X0162267Y0268735D01*
X0162181Y0268701D01*
X0162093Y0268671D01*
X0162005Y0268645D01*
X0161915Y0268622D01*
X0161824Y0268604D01*
X0161733Y0268589D01*
X0161641Y0268578D01*
X0161549Y0268571D01*
X0161456Y0268568D01*
X0161364Y0268569D01*
X0161271Y0268574D01*
X0161179Y0268583D01*
X0161087Y0268596D01*
X0160996Y0268612D01*
X0160906Y0268633D01*
X0160817Y0268657D01*
X0160729Y0268686D01*
X0160642Y0268718D01*
X0160557Y0268753D01*
X0160473Y0268793D01*
X0160391Y0268835D01*
X0160311Y0268882D01*
X0160233Y0268931D01*
X0160157Y0268984D01*
X0160083Y0269040D01*
X0160012Y0269100D01*
X0159944Y0269162D01*
X0159878Y0269227D01*
X0159815Y0269295D01*
X0159755Y0269365D01*
X0159698Y0269438D01*
X0159644Y0269513D01*
X0159594Y0269591D01*
X0159547Y0269671D01*
X0159503Y0269752D01*
X0159463Y0269836D01*
X0159426Y0269921D01*
X0159393Y0270007D01*
X0159364Y0270095D01*
X0159339Y0270184D01*
X0159317Y0270274D01*
X0159300Y0270365D01*
X0159286Y0270456D01*
X0159276Y0270548D01*
X0159270Y0270640D01*
X0159268Y0270733D01*
X0159268Y0260733D02*
X0159270Y0260826D01*
X0159276Y0260918D01*
X0159286Y0261010D01*
X0159300Y0261101D01*
X0159317Y0261192D01*
X0159339Y0261282D01*
X0159364Y0261371D01*
X0159393Y0261459D01*
X0159426Y0261545D01*
X0159463Y0261630D01*
X0159503Y0261714D01*
X0159547Y0261795D01*
X0159594Y0261875D01*
X0159644Y0261953D01*
X0159698Y0262028D01*
X0159755Y0262101D01*
X0159815Y0262171D01*
X0159878Y0262239D01*
X0159944Y0262304D01*
X0160012Y0262366D01*
X0160083Y0262426D01*
X0160157Y0262482D01*
X0160233Y0262535D01*
X0160311Y0262584D01*
X0160391Y0262631D01*
X0160473Y0262673D01*
X0160557Y0262713D01*
X0160642Y0262748D01*
X0160729Y0262780D01*
X0160817Y0262809D01*
X0160906Y0262833D01*
X0160996Y0262854D01*
X0161087Y0262870D01*
X0161179Y0262883D01*
X0161271Y0262892D01*
X0161364Y0262897D01*
X0161456Y0262898D01*
X0161549Y0262895D01*
X0161641Y0262888D01*
X0161733Y0262877D01*
X0161824Y0262862D01*
X0161915Y0262844D01*
X0162005Y0262821D01*
X0162093Y0262795D01*
X0162181Y0262765D01*
X0162267Y0262731D01*
X0162351Y0262694D01*
X0162434Y0262652D01*
X0162515Y0262608D01*
X0162595Y0262560D01*
X0162672Y0262509D01*
X0162746Y0262454D01*
X0162819Y0262396D01*
X0162889Y0262336D01*
X0162956Y0262272D01*
X0163020Y0262206D01*
X0163082Y0262136D01*
X0163140Y0262065D01*
X0163195Y0261991D01*
X0163247Y0261914D01*
X0163296Y0261835D01*
X0163342Y0261755D01*
X0163384Y0261672D01*
X0163422Y0261588D01*
X0163457Y0261502D01*
X0163488Y0261415D01*
X0163515Y0261327D01*
X0163538Y0261237D01*
X0163558Y0261147D01*
X0163574Y0261056D01*
X0163586Y0260964D01*
X0163594Y0260872D01*
X0163598Y0260779D01*
X0163598Y0260687D01*
X0163594Y0260594D01*
X0163586Y0260502D01*
X0163574Y0260410D01*
X0163558Y0260319D01*
X0163538Y0260229D01*
X0163515Y0260139D01*
X0163488Y0260051D01*
X0163457Y0259964D01*
X0163422Y0259878D01*
X0163384Y0259794D01*
X0163342Y0259711D01*
X0163296Y0259631D01*
X0163247Y0259552D01*
X0163195Y0259475D01*
X0163140Y0259401D01*
X0163082Y0259330D01*
X0163020Y0259260D01*
X0162956Y0259194D01*
X0162889Y0259130D01*
X0162819Y0259070D01*
X0162746Y0259012D01*
X0162672Y0258957D01*
X0162595Y0258906D01*
X0162516Y0258858D01*
X0162434Y0258814D01*
X0162351Y0258772D01*
X0162267Y0258735D01*
X0162181Y0258701D01*
X0162093Y0258671D01*
X0162005Y0258645D01*
X0161915Y0258622D01*
X0161824Y0258604D01*
X0161733Y0258589D01*
X0161641Y0258578D01*
X0161549Y0258571D01*
X0161456Y0258568D01*
X0161364Y0258569D01*
X0161271Y0258574D01*
X0161179Y0258583D01*
X0161087Y0258596D01*
X0160996Y0258612D01*
X0160906Y0258633D01*
X0160817Y0258657D01*
X0160729Y0258686D01*
X0160642Y0258718D01*
X0160557Y0258753D01*
X0160473Y0258793D01*
X0160391Y0258835D01*
X0160311Y0258882D01*
X0160233Y0258931D01*
X0160157Y0258984D01*
X0160083Y0259040D01*
X0160012Y0259100D01*
X0159944Y0259162D01*
X0159878Y0259227D01*
X0159815Y0259295D01*
X0159755Y0259365D01*
X0159698Y0259438D01*
X0159644Y0259513D01*
X0159594Y0259591D01*
X0159547Y0259671D01*
X0159503Y0259752D01*
X0159463Y0259836D01*
X0159426Y0259921D01*
X0159393Y0260007D01*
X0159364Y0260095D01*
X0159339Y0260184D01*
X0159317Y0260274D01*
X0159300Y0260365D01*
X0159286Y0260456D01*
X0159276Y0260548D01*
X0159270Y0260640D01*
X0159268Y0260733D01*
X0354268Y0260733D02*
X0354270Y0260826D01*
X0354276Y0260918D01*
X0354286Y0261010D01*
X0354300Y0261101D01*
X0354317Y0261192D01*
X0354339Y0261282D01*
X0354364Y0261371D01*
X0354393Y0261459D01*
X0354426Y0261545D01*
X0354463Y0261630D01*
X0354503Y0261714D01*
X0354547Y0261795D01*
X0354594Y0261875D01*
X0354644Y0261953D01*
X0354698Y0262028D01*
X0354755Y0262101D01*
X0354815Y0262171D01*
X0354878Y0262239D01*
X0354944Y0262304D01*
X0355012Y0262366D01*
X0355083Y0262426D01*
X0355157Y0262482D01*
X0355233Y0262535D01*
X0355311Y0262584D01*
X0355391Y0262631D01*
X0355473Y0262673D01*
X0355557Y0262713D01*
X0355642Y0262748D01*
X0355729Y0262780D01*
X0355817Y0262809D01*
X0355906Y0262833D01*
X0355996Y0262854D01*
X0356087Y0262870D01*
X0356179Y0262883D01*
X0356271Y0262892D01*
X0356364Y0262897D01*
X0356456Y0262898D01*
X0356549Y0262895D01*
X0356641Y0262888D01*
X0356733Y0262877D01*
X0356824Y0262862D01*
X0356915Y0262844D01*
X0357005Y0262821D01*
X0357093Y0262795D01*
X0357181Y0262765D01*
X0357267Y0262731D01*
X0357351Y0262694D01*
X0357434Y0262652D01*
X0357515Y0262608D01*
X0357595Y0262560D01*
X0357672Y0262509D01*
X0357746Y0262454D01*
X0357819Y0262396D01*
X0357889Y0262336D01*
X0357956Y0262272D01*
X0358020Y0262206D01*
X0358082Y0262136D01*
X0358140Y0262065D01*
X0358195Y0261991D01*
X0358247Y0261914D01*
X0358296Y0261835D01*
X0358342Y0261755D01*
X0358384Y0261672D01*
X0358422Y0261588D01*
X0358457Y0261502D01*
X0358488Y0261415D01*
X0358515Y0261327D01*
X0358538Y0261237D01*
X0358558Y0261147D01*
X0358574Y0261056D01*
X0358586Y0260964D01*
X0358594Y0260872D01*
X0358598Y0260779D01*
X0358598Y0260687D01*
X0358594Y0260594D01*
X0358586Y0260502D01*
X0358574Y0260410D01*
X0358558Y0260319D01*
X0358538Y0260229D01*
X0358515Y0260139D01*
X0358488Y0260051D01*
X0358457Y0259964D01*
X0358422Y0259878D01*
X0358384Y0259794D01*
X0358342Y0259711D01*
X0358296Y0259631D01*
X0358247Y0259552D01*
X0358195Y0259475D01*
X0358140Y0259401D01*
X0358082Y0259330D01*
X0358020Y0259260D01*
X0357956Y0259194D01*
X0357889Y0259130D01*
X0357819Y0259070D01*
X0357746Y0259012D01*
X0357672Y0258957D01*
X0357595Y0258906D01*
X0357516Y0258858D01*
X0357434Y0258814D01*
X0357351Y0258772D01*
X0357267Y0258735D01*
X0357181Y0258701D01*
X0357093Y0258671D01*
X0357005Y0258645D01*
X0356915Y0258622D01*
X0356824Y0258604D01*
X0356733Y0258589D01*
X0356641Y0258578D01*
X0356549Y0258571D01*
X0356456Y0258568D01*
X0356364Y0258569D01*
X0356271Y0258574D01*
X0356179Y0258583D01*
X0356087Y0258596D01*
X0355996Y0258612D01*
X0355906Y0258633D01*
X0355817Y0258657D01*
X0355729Y0258686D01*
X0355642Y0258718D01*
X0355557Y0258753D01*
X0355473Y0258793D01*
X0355391Y0258835D01*
X0355311Y0258882D01*
X0355233Y0258931D01*
X0355157Y0258984D01*
X0355083Y0259040D01*
X0355012Y0259100D01*
X0354944Y0259162D01*
X0354878Y0259227D01*
X0354815Y0259295D01*
X0354755Y0259365D01*
X0354698Y0259438D01*
X0354644Y0259513D01*
X0354594Y0259591D01*
X0354547Y0259671D01*
X0354503Y0259752D01*
X0354463Y0259836D01*
X0354426Y0259921D01*
X0354393Y0260007D01*
X0354364Y0260095D01*
X0354339Y0260184D01*
X0354317Y0260274D01*
X0354300Y0260365D01*
X0354286Y0260456D01*
X0354276Y0260548D01*
X0354270Y0260640D01*
X0354268Y0260733D01*
X0354268Y0270733D02*
X0354270Y0270826D01*
X0354276Y0270918D01*
X0354286Y0271010D01*
X0354300Y0271101D01*
X0354317Y0271192D01*
X0354339Y0271282D01*
X0354364Y0271371D01*
X0354393Y0271459D01*
X0354426Y0271545D01*
X0354463Y0271630D01*
X0354503Y0271714D01*
X0354547Y0271795D01*
X0354594Y0271875D01*
X0354644Y0271953D01*
X0354698Y0272028D01*
X0354755Y0272101D01*
X0354815Y0272171D01*
X0354878Y0272239D01*
X0354944Y0272304D01*
X0355012Y0272366D01*
X0355083Y0272426D01*
X0355157Y0272482D01*
X0355233Y0272535D01*
X0355311Y0272584D01*
X0355391Y0272631D01*
X0355473Y0272673D01*
X0355557Y0272713D01*
X0355642Y0272748D01*
X0355729Y0272780D01*
X0355817Y0272809D01*
X0355906Y0272833D01*
X0355996Y0272854D01*
X0356087Y0272870D01*
X0356179Y0272883D01*
X0356271Y0272892D01*
X0356364Y0272897D01*
X0356456Y0272898D01*
X0356549Y0272895D01*
X0356641Y0272888D01*
X0356733Y0272877D01*
X0356824Y0272862D01*
X0356915Y0272844D01*
X0357005Y0272821D01*
X0357093Y0272795D01*
X0357181Y0272765D01*
X0357267Y0272731D01*
X0357351Y0272694D01*
X0357434Y0272652D01*
X0357515Y0272608D01*
X0357595Y0272560D01*
X0357672Y0272509D01*
X0357746Y0272454D01*
X0357819Y0272396D01*
X0357889Y0272336D01*
X0357956Y0272272D01*
X0358020Y0272206D01*
X0358082Y0272136D01*
X0358140Y0272065D01*
X0358195Y0271991D01*
X0358247Y0271914D01*
X0358296Y0271835D01*
X0358342Y0271755D01*
X0358384Y0271672D01*
X0358422Y0271588D01*
X0358457Y0271502D01*
X0358488Y0271415D01*
X0358515Y0271327D01*
X0358538Y0271237D01*
X0358558Y0271147D01*
X0358574Y0271056D01*
X0358586Y0270964D01*
X0358594Y0270872D01*
X0358598Y0270779D01*
X0358598Y0270687D01*
X0358594Y0270594D01*
X0358586Y0270502D01*
X0358574Y0270410D01*
X0358558Y0270319D01*
X0358538Y0270229D01*
X0358515Y0270139D01*
X0358488Y0270051D01*
X0358457Y0269964D01*
X0358422Y0269878D01*
X0358384Y0269794D01*
X0358342Y0269711D01*
X0358296Y0269631D01*
X0358247Y0269552D01*
X0358195Y0269475D01*
X0358140Y0269401D01*
X0358082Y0269330D01*
X0358020Y0269260D01*
X0357956Y0269194D01*
X0357889Y0269130D01*
X0357819Y0269070D01*
X0357746Y0269012D01*
X0357672Y0268957D01*
X0357595Y0268906D01*
X0357516Y0268858D01*
X0357434Y0268814D01*
X0357351Y0268772D01*
X0357267Y0268735D01*
X0357181Y0268701D01*
X0357093Y0268671D01*
X0357005Y0268645D01*
X0356915Y0268622D01*
X0356824Y0268604D01*
X0356733Y0268589D01*
X0356641Y0268578D01*
X0356549Y0268571D01*
X0356456Y0268568D01*
X0356364Y0268569D01*
X0356271Y0268574D01*
X0356179Y0268583D01*
X0356087Y0268596D01*
X0355996Y0268612D01*
X0355906Y0268633D01*
X0355817Y0268657D01*
X0355729Y0268686D01*
X0355642Y0268718D01*
X0355557Y0268753D01*
X0355473Y0268793D01*
X0355391Y0268835D01*
X0355311Y0268882D01*
X0355233Y0268931D01*
X0355157Y0268984D01*
X0355083Y0269040D01*
X0355012Y0269100D01*
X0354944Y0269162D01*
X0354878Y0269227D01*
X0354815Y0269295D01*
X0354755Y0269365D01*
X0354698Y0269438D01*
X0354644Y0269513D01*
X0354594Y0269591D01*
X0354547Y0269671D01*
X0354503Y0269752D01*
X0354463Y0269836D01*
X0354426Y0269921D01*
X0354393Y0270007D01*
X0354364Y0270095D01*
X0354339Y0270184D01*
X0354317Y0270274D01*
X0354300Y0270365D01*
X0354286Y0270456D01*
X0354276Y0270548D01*
X0354270Y0270640D01*
X0354268Y0270733D01*
X0364268Y0270733D02*
X0364270Y0270826D01*
X0364276Y0270918D01*
X0364286Y0271010D01*
X0364300Y0271101D01*
X0364317Y0271192D01*
X0364339Y0271282D01*
X0364364Y0271371D01*
X0364393Y0271459D01*
X0364426Y0271545D01*
X0364463Y0271630D01*
X0364503Y0271714D01*
X0364547Y0271795D01*
X0364594Y0271875D01*
X0364644Y0271953D01*
X0364698Y0272028D01*
X0364755Y0272101D01*
X0364815Y0272171D01*
X0364878Y0272239D01*
X0364944Y0272304D01*
X0365012Y0272366D01*
X0365083Y0272426D01*
X0365157Y0272482D01*
X0365233Y0272535D01*
X0365311Y0272584D01*
X0365391Y0272631D01*
X0365473Y0272673D01*
X0365557Y0272713D01*
X0365642Y0272748D01*
X0365729Y0272780D01*
X0365817Y0272809D01*
X0365906Y0272833D01*
X0365996Y0272854D01*
X0366087Y0272870D01*
X0366179Y0272883D01*
X0366271Y0272892D01*
X0366364Y0272897D01*
X0366456Y0272898D01*
X0366549Y0272895D01*
X0366641Y0272888D01*
X0366733Y0272877D01*
X0366824Y0272862D01*
X0366915Y0272844D01*
X0367005Y0272821D01*
X0367093Y0272795D01*
X0367181Y0272765D01*
X0367267Y0272731D01*
X0367351Y0272694D01*
X0367434Y0272652D01*
X0367515Y0272608D01*
X0367595Y0272560D01*
X0367672Y0272509D01*
X0367746Y0272454D01*
X0367819Y0272396D01*
X0367889Y0272336D01*
X0367956Y0272272D01*
X0368020Y0272206D01*
X0368082Y0272136D01*
X0368140Y0272065D01*
X0368195Y0271991D01*
X0368247Y0271914D01*
X0368296Y0271835D01*
X0368342Y0271755D01*
X0368384Y0271672D01*
X0368422Y0271588D01*
X0368457Y0271502D01*
X0368488Y0271415D01*
X0368515Y0271327D01*
X0368538Y0271237D01*
X0368558Y0271147D01*
X0368574Y0271056D01*
X0368586Y0270964D01*
X0368594Y0270872D01*
X0368598Y0270779D01*
X0368598Y0270687D01*
X0368594Y0270594D01*
X0368586Y0270502D01*
X0368574Y0270410D01*
X0368558Y0270319D01*
X0368538Y0270229D01*
X0368515Y0270139D01*
X0368488Y0270051D01*
X0368457Y0269964D01*
X0368422Y0269878D01*
X0368384Y0269794D01*
X0368342Y0269711D01*
X0368296Y0269631D01*
X0368247Y0269552D01*
X0368195Y0269475D01*
X0368140Y0269401D01*
X0368082Y0269330D01*
X0368020Y0269260D01*
X0367956Y0269194D01*
X0367889Y0269130D01*
X0367819Y0269070D01*
X0367746Y0269012D01*
X0367672Y0268957D01*
X0367595Y0268906D01*
X0367516Y0268858D01*
X0367434Y0268814D01*
X0367351Y0268772D01*
X0367267Y0268735D01*
X0367181Y0268701D01*
X0367093Y0268671D01*
X0367005Y0268645D01*
X0366915Y0268622D01*
X0366824Y0268604D01*
X0366733Y0268589D01*
X0366641Y0268578D01*
X0366549Y0268571D01*
X0366456Y0268568D01*
X0366364Y0268569D01*
X0366271Y0268574D01*
X0366179Y0268583D01*
X0366087Y0268596D01*
X0365996Y0268612D01*
X0365906Y0268633D01*
X0365817Y0268657D01*
X0365729Y0268686D01*
X0365642Y0268718D01*
X0365557Y0268753D01*
X0365473Y0268793D01*
X0365391Y0268835D01*
X0365311Y0268882D01*
X0365233Y0268931D01*
X0365157Y0268984D01*
X0365083Y0269040D01*
X0365012Y0269100D01*
X0364944Y0269162D01*
X0364878Y0269227D01*
X0364815Y0269295D01*
X0364755Y0269365D01*
X0364698Y0269438D01*
X0364644Y0269513D01*
X0364594Y0269591D01*
X0364547Y0269671D01*
X0364503Y0269752D01*
X0364463Y0269836D01*
X0364426Y0269921D01*
X0364393Y0270007D01*
X0364364Y0270095D01*
X0364339Y0270184D01*
X0364317Y0270274D01*
X0364300Y0270365D01*
X0364286Y0270456D01*
X0364276Y0270548D01*
X0364270Y0270640D01*
X0364268Y0270733D01*
X0364268Y0260733D02*
X0364270Y0260826D01*
X0364276Y0260918D01*
X0364286Y0261010D01*
X0364300Y0261101D01*
X0364317Y0261192D01*
X0364339Y0261282D01*
X0364364Y0261371D01*
X0364393Y0261459D01*
X0364426Y0261545D01*
X0364463Y0261630D01*
X0364503Y0261714D01*
X0364547Y0261795D01*
X0364594Y0261875D01*
X0364644Y0261953D01*
X0364698Y0262028D01*
X0364755Y0262101D01*
X0364815Y0262171D01*
X0364878Y0262239D01*
X0364944Y0262304D01*
X0365012Y0262366D01*
X0365083Y0262426D01*
X0365157Y0262482D01*
X0365233Y0262535D01*
X0365311Y0262584D01*
X0365391Y0262631D01*
X0365473Y0262673D01*
X0365557Y0262713D01*
X0365642Y0262748D01*
X0365729Y0262780D01*
X0365817Y0262809D01*
X0365906Y0262833D01*
X0365996Y0262854D01*
X0366087Y0262870D01*
X0366179Y0262883D01*
X0366271Y0262892D01*
X0366364Y0262897D01*
X0366456Y0262898D01*
X0366549Y0262895D01*
X0366641Y0262888D01*
X0366733Y0262877D01*
X0366824Y0262862D01*
X0366915Y0262844D01*
X0367005Y0262821D01*
X0367093Y0262795D01*
X0367181Y0262765D01*
X0367267Y0262731D01*
X0367351Y0262694D01*
X0367434Y0262652D01*
X0367515Y0262608D01*
X0367595Y0262560D01*
X0367672Y0262509D01*
X0367746Y0262454D01*
X0367819Y0262396D01*
X0367889Y0262336D01*
X0367956Y0262272D01*
X0368020Y0262206D01*
X0368082Y0262136D01*
X0368140Y0262065D01*
X0368195Y0261991D01*
X0368247Y0261914D01*
X0368296Y0261835D01*
X0368342Y0261755D01*
X0368384Y0261672D01*
X0368422Y0261588D01*
X0368457Y0261502D01*
X0368488Y0261415D01*
X0368515Y0261327D01*
X0368538Y0261237D01*
X0368558Y0261147D01*
X0368574Y0261056D01*
X0368586Y0260964D01*
X0368594Y0260872D01*
X0368598Y0260779D01*
X0368598Y0260687D01*
X0368594Y0260594D01*
X0368586Y0260502D01*
X0368574Y0260410D01*
X0368558Y0260319D01*
X0368538Y0260229D01*
X0368515Y0260139D01*
X0368488Y0260051D01*
X0368457Y0259964D01*
X0368422Y0259878D01*
X0368384Y0259794D01*
X0368342Y0259711D01*
X0368296Y0259631D01*
X0368247Y0259552D01*
X0368195Y0259475D01*
X0368140Y0259401D01*
X0368082Y0259330D01*
X0368020Y0259260D01*
X0367956Y0259194D01*
X0367889Y0259130D01*
X0367819Y0259070D01*
X0367746Y0259012D01*
X0367672Y0258957D01*
X0367595Y0258906D01*
X0367516Y0258858D01*
X0367434Y0258814D01*
X0367351Y0258772D01*
X0367267Y0258735D01*
X0367181Y0258701D01*
X0367093Y0258671D01*
X0367005Y0258645D01*
X0366915Y0258622D01*
X0366824Y0258604D01*
X0366733Y0258589D01*
X0366641Y0258578D01*
X0366549Y0258571D01*
X0366456Y0258568D01*
X0366364Y0258569D01*
X0366271Y0258574D01*
X0366179Y0258583D01*
X0366087Y0258596D01*
X0365996Y0258612D01*
X0365906Y0258633D01*
X0365817Y0258657D01*
X0365729Y0258686D01*
X0365642Y0258718D01*
X0365557Y0258753D01*
X0365473Y0258793D01*
X0365391Y0258835D01*
X0365311Y0258882D01*
X0365233Y0258931D01*
X0365157Y0258984D01*
X0365083Y0259040D01*
X0365012Y0259100D01*
X0364944Y0259162D01*
X0364878Y0259227D01*
X0364815Y0259295D01*
X0364755Y0259365D01*
X0364698Y0259438D01*
X0364644Y0259513D01*
X0364594Y0259591D01*
X0364547Y0259671D01*
X0364503Y0259752D01*
X0364463Y0259836D01*
X0364426Y0259921D01*
X0364393Y0260007D01*
X0364364Y0260095D01*
X0364339Y0260184D01*
X0364317Y0260274D01*
X0364300Y0260365D01*
X0364286Y0260456D01*
X0364276Y0260548D01*
X0364270Y0260640D01*
X0364268Y0260733D01*
X0374268Y0260733D02*
X0374270Y0260826D01*
X0374276Y0260918D01*
X0374286Y0261010D01*
X0374300Y0261101D01*
X0374317Y0261192D01*
X0374339Y0261282D01*
X0374364Y0261371D01*
X0374393Y0261459D01*
X0374426Y0261545D01*
X0374463Y0261630D01*
X0374503Y0261714D01*
X0374547Y0261795D01*
X0374594Y0261875D01*
X0374644Y0261953D01*
X0374698Y0262028D01*
X0374755Y0262101D01*
X0374815Y0262171D01*
X0374878Y0262239D01*
X0374944Y0262304D01*
X0375012Y0262366D01*
X0375083Y0262426D01*
X0375157Y0262482D01*
X0375233Y0262535D01*
X0375311Y0262584D01*
X0375391Y0262631D01*
X0375473Y0262673D01*
X0375557Y0262713D01*
X0375642Y0262748D01*
X0375729Y0262780D01*
X0375817Y0262809D01*
X0375906Y0262833D01*
X0375996Y0262854D01*
X0376087Y0262870D01*
X0376179Y0262883D01*
X0376271Y0262892D01*
X0376364Y0262897D01*
X0376456Y0262898D01*
X0376549Y0262895D01*
X0376641Y0262888D01*
X0376733Y0262877D01*
X0376824Y0262862D01*
X0376915Y0262844D01*
X0377005Y0262821D01*
X0377093Y0262795D01*
X0377181Y0262765D01*
X0377267Y0262731D01*
X0377351Y0262694D01*
X0377434Y0262652D01*
X0377515Y0262608D01*
X0377595Y0262560D01*
X0377672Y0262509D01*
X0377746Y0262454D01*
X0377819Y0262396D01*
X0377889Y0262336D01*
X0377956Y0262272D01*
X0378020Y0262206D01*
X0378082Y0262136D01*
X0378140Y0262065D01*
X0378195Y0261991D01*
X0378247Y0261914D01*
X0378296Y0261835D01*
X0378342Y0261755D01*
X0378384Y0261672D01*
X0378422Y0261588D01*
X0378457Y0261502D01*
X0378488Y0261415D01*
X0378515Y0261327D01*
X0378538Y0261237D01*
X0378558Y0261147D01*
X0378574Y0261056D01*
X0378586Y0260964D01*
X0378594Y0260872D01*
X0378598Y0260779D01*
X0378598Y0260687D01*
X0378594Y0260594D01*
X0378586Y0260502D01*
X0378574Y0260410D01*
X0378558Y0260319D01*
X0378538Y0260229D01*
X0378515Y0260139D01*
X0378488Y0260051D01*
X0378457Y0259964D01*
X0378422Y0259878D01*
X0378384Y0259794D01*
X0378342Y0259711D01*
X0378296Y0259631D01*
X0378247Y0259552D01*
X0378195Y0259475D01*
X0378140Y0259401D01*
X0378082Y0259330D01*
X0378020Y0259260D01*
X0377956Y0259194D01*
X0377889Y0259130D01*
X0377819Y0259070D01*
X0377746Y0259012D01*
X0377672Y0258957D01*
X0377595Y0258906D01*
X0377516Y0258858D01*
X0377434Y0258814D01*
X0377351Y0258772D01*
X0377267Y0258735D01*
X0377181Y0258701D01*
X0377093Y0258671D01*
X0377005Y0258645D01*
X0376915Y0258622D01*
X0376824Y0258604D01*
X0376733Y0258589D01*
X0376641Y0258578D01*
X0376549Y0258571D01*
X0376456Y0258568D01*
X0376364Y0258569D01*
X0376271Y0258574D01*
X0376179Y0258583D01*
X0376087Y0258596D01*
X0375996Y0258612D01*
X0375906Y0258633D01*
X0375817Y0258657D01*
X0375729Y0258686D01*
X0375642Y0258718D01*
X0375557Y0258753D01*
X0375473Y0258793D01*
X0375391Y0258835D01*
X0375311Y0258882D01*
X0375233Y0258931D01*
X0375157Y0258984D01*
X0375083Y0259040D01*
X0375012Y0259100D01*
X0374944Y0259162D01*
X0374878Y0259227D01*
X0374815Y0259295D01*
X0374755Y0259365D01*
X0374698Y0259438D01*
X0374644Y0259513D01*
X0374594Y0259591D01*
X0374547Y0259671D01*
X0374503Y0259752D01*
X0374463Y0259836D01*
X0374426Y0259921D01*
X0374393Y0260007D01*
X0374364Y0260095D01*
X0374339Y0260184D01*
X0374317Y0260274D01*
X0374300Y0260365D01*
X0374286Y0260456D01*
X0374276Y0260548D01*
X0374270Y0260640D01*
X0374268Y0260733D01*
X0374268Y0270733D02*
X0374270Y0270826D01*
X0374276Y0270918D01*
X0374286Y0271010D01*
X0374300Y0271101D01*
X0374317Y0271192D01*
X0374339Y0271282D01*
X0374364Y0271371D01*
X0374393Y0271459D01*
X0374426Y0271545D01*
X0374463Y0271630D01*
X0374503Y0271714D01*
X0374547Y0271795D01*
X0374594Y0271875D01*
X0374644Y0271953D01*
X0374698Y0272028D01*
X0374755Y0272101D01*
X0374815Y0272171D01*
X0374878Y0272239D01*
X0374944Y0272304D01*
X0375012Y0272366D01*
X0375083Y0272426D01*
X0375157Y0272482D01*
X0375233Y0272535D01*
X0375311Y0272584D01*
X0375391Y0272631D01*
X0375473Y0272673D01*
X0375557Y0272713D01*
X0375642Y0272748D01*
X0375729Y0272780D01*
X0375817Y0272809D01*
X0375906Y0272833D01*
X0375996Y0272854D01*
X0376087Y0272870D01*
X0376179Y0272883D01*
X0376271Y0272892D01*
X0376364Y0272897D01*
X0376456Y0272898D01*
X0376549Y0272895D01*
X0376641Y0272888D01*
X0376733Y0272877D01*
X0376824Y0272862D01*
X0376915Y0272844D01*
X0377005Y0272821D01*
X0377093Y0272795D01*
X0377181Y0272765D01*
X0377267Y0272731D01*
X0377351Y0272694D01*
X0377434Y0272652D01*
X0377515Y0272608D01*
X0377595Y0272560D01*
X0377672Y0272509D01*
X0377746Y0272454D01*
X0377819Y0272396D01*
X0377889Y0272336D01*
X0377956Y0272272D01*
X0378020Y0272206D01*
X0378082Y0272136D01*
X0378140Y0272065D01*
X0378195Y0271991D01*
X0378247Y0271914D01*
X0378296Y0271835D01*
X0378342Y0271755D01*
X0378384Y0271672D01*
X0378422Y0271588D01*
X0378457Y0271502D01*
X0378488Y0271415D01*
X0378515Y0271327D01*
X0378538Y0271237D01*
X0378558Y0271147D01*
X0378574Y0271056D01*
X0378586Y0270964D01*
X0378594Y0270872D01*
X0378598Y0270779D01*
X0378598Y0270687D01*
X0378594Y0270594D01*
X0378586Y0270502D01*
X0378574Y0270410D01*
X0378558Y0270319D01*
X0378538Y0270229D01*
X0378515Y0270139D01*
X0378488Y0270051D01*
X0378457Y0269964D01*
X0378422Y0269878D01*
X0378384Y0269794D01*
X0378342Y0269711D01*
X0378296Y0269631D01*
X0378247Y0269552D01*
X0378195Y0269475D01*
X0378140Y0269401D01*
X0378082Y0269330D01*
X0378020Y0269260D01*
X0377956Y0269194D01*
X0377889Y0269130D01*
X0377819Y0269070D01*
X0377746Y0269012D01*
X0377672Y0268957D01*
X0377595Y0268906D01*
X0377516Y0268858D01*
X0377434Y0268814D01*
X0377351Y0268772D01*
X0377267Y0268735D01*
X0377181Y0268701D01*
X0377093Y0268671D01*
X0377005Y0268645D01*
X0376915Y0268622D01*
X0376824Y0268604D01*
X0376733Y0268589D01*
X0376641Y0268578D01*
X0376549Y0268571D01*
X0376456Y0268568D01*
X0376364Y0268569D01*
X0376271Y0268574D01*
X0376179Y0268583D01*
X0376087Y0268596D01*
X0375996Y0268612D01*
X0375906Y0268633D01*
X0375817Y0268657D01*
X0375729Y0268686D01*
X0375642Y0268718D01*
X0375557Y0268753D01*
X0375473Y0268793D01*
X0375391Y0268835D01*
X0375311Y0268882D01*
X0375233Y0268931D01*
X0375157Y0268984D01*
X0375083Y0269040D01*
X0375012Y0269100D01*
X0374944Y0269162D01*
X0374878Y0269227D01*
X0374815Y0269295D01*
X0374755Y0269365D01*
X0374698Y0269438D01*
X0374644Y0269513D01*
X0374594Y0269591D01*
X0374547Y0269671D01*
X0374503Y0269752D01*
X0374463Y0269836D01*
X0374426Y0269921D01*
X0374393Y0270007D01*
X0374364Y0270095D01*
X0374339Y0270184D01*
X0374317Y0270274D01*
X0374300Y0270365D01*
X0374286Y0270456D01*
X0374276Y0270548D01*
X0374270Y0270640D01*
X0374268Y0270733D01*
X0384268Y0270733D02*
X0384270Y0270826D01*
X0384276Y0270918D01*
X0384286Y0271010D01*
X0384300Y0271101D01*
X0384317Y0271192D01*
X0384339Y0271282D01*
X0384364Y0271371D01*
X0384393Y0271459D01*
X0384426Y0271545D01*
X0384463Y0271630D01*
X0384503Y0271714D01*
X0384547Y0271795D01*
X0384594Y0271875D01*
X0384644Y0271953D01*
X0384698Y0272028D01*
X0384755Y0272101D01*
X0384815Y0272171D01*
X0384878Y0272239D01*
X0384944Y0272304D01*
X0385012Y0272366D01*
X0385083Y0272426D01*
X0385157Y0272482D01*
X0385233Y0272535D01*
X0385311Y0272584D01*
X0385391Y0272631D01*
X0385473Y0272673D01*
X0385557Y0272713D01*
X0385642Y0272748D01*
X0385729Y0272780D01*
X0385817Y0272809D01*
X0385906Y0272833D01*
X0385996Y0272854D01*
X0386087Y0272870D01*
X0386179Y0272883D01*
X0386271Y0272892D01*
X0386364Y0272897D01*
X0386456Y0272898D01*
X0386549Y0272895D01*
X0386641Y0272888D01*
X0386733Y0272877D01*
X0386824Y0272862D01*
X0386915Y0272844D01*
X0387005Y0272821D01*
X0387093Y0272795D01*
X0387181Y0272765D01*
X0387267Y0272731D01*
X0387351Y0272694D01*
X0387434Y0272652D01*
X0387515Y0272608D01*
X0387595Y0272560D01*
X0387672Y0272509D01*
X0387746Y0272454D01*
X0387819Y0272396D01*
X0387889Y0272336D01*
X0387956Y0272272D01*
X0388020Y0272206D01*
X0388082Y0272136D01*
X0388140Y0272065D01*
X0388195Y0271991D01*
X0388247Y0271914D01*
X0388296Y0271835D01*
X0388342Y0271755D01*
X0388384Y0271672D01*
X0388422Y0271588D01*
X0388457Y0271502D01*
X0388488Y0271415D01*
X0388515Y0271327D01*
X0388538Y0271237D01*
X0388558Y0271147D01*
X0388574Y0271056D01*
X0388586Y0270964D01*
X0388594Y0270872D01*
X0388598Y0270779D01*
X0388598Y0270687D01*
X0388594Y0270594D01*
X0388586Y0270502D01*
X0388574Y0270410D01*
X0388558Y0270319D01*
X0388538Y0270229D01*
X0388515Y0270139D01*
X0388488Y0270051D01*
X0388457Y0269964D01*
X0388422Y0269878D01*
X0388384Y0269794D01*
X0388342Y0269711D01*
X0388296Y0269631D01*
X0388247Y0269552D01*
X0388195Y0269475D01*
X0388140Y0269401D01*
X0388082Y0269330D01*
X0388020Y0269260D01*
X0387956Y0269194D01*
X0387889Y0269130D01*
X0387819Y0269070D01*
X0387746Y0269012D01*
X0387672Y0268957D01*
X0387595Y0268906D01*
X0387516Y0268858D01*
X0387434Y0268814D01*
X0387351Y0268772D01*
X0387267Y0268735D01*
X0387181Y0268701D01*
X0387093Y0268671D01*
X0387005Y0268645D01*
X0386915Y0268622D01*
X0386824Y0268604D01*
X0386733Y0268589D01*
X0386641Y0268578D01*
X0386549Y0268571D01*
X0386456Y0268568D01*
X0386364Y0268569D01*
X0386271Y0268574D01*
X0386179Y0268583D01*
X0386087Y0268596D01*
X0385996Y0268612D01*
X0385906Y0268633D01*
X0385817Y0268657D01*
X0385729Y0268686D01*
X0385642Y0268718D01*
X0385557Y0268753D01*
X0385473Y0268793D01*
X0385391Y0268835D01*
X0385311Y0268882D01*
X0385233Y0268931D01*
X0385157Y0268984D01*
X0385083Y0269040D01*
X0385012Y0269100D01*
X0384944Y0269162D01*
X0384878Y0269227D01*
X0384815Y0269295D01*
X0384755Y0269365D01*
X0384698Y0269438D01*
X0384644Y0269513D01*
X0384594Y0269591D01*
X0384547Y0269671D01*
X0384503Y0269752D01*
X0384463Y0269836D01*
X0384426Y0269921D01*
X0384393Y0270007D01*
X0384364Y0270095D01*
X0384339Y0270184D01*
X0384317Y0270274D01*
X0384300Y0270365D01*
X0384286Y0270456D01*
X0384276Y0270548D01*
X0384270Y0270640D01*
X0384268Y0270733D01*
X0384268Y0260733D02*
X0384270Y0260826D01*
X0384276Y0260918D01*
X0384286Y0261010D01*
X0384300Y0261101D01*
X0384317Y0261192D01*
X0384339Y0261282D01*
X0384364Y0261371D01*
X0384393Y0261459D01*
X0384426Y0261545D01*
X0384463Y0261630D01*
X0384503Y0261714D01*
X0384547Y0261795D01*
X0384594Y0261875D01*
X0384644Y0261953D01*
X0384698Y0262028D01*
X0384755Y0262101D01*
X0384815Y0262171D01*
X0384878Y0262239D01*
X0384944Y0262304D01*
X0385012Y0262366D01*
X0385083Y0262426D01*
X0385157Y0262482D01*
X0385233Y0262535D01*
X0385311Y0262584D01*
X0385391Y0262631D01*
X0385473Y0262673D01*
X0385557Y0262713D01*
X0385642Y0262748D01*
X0385729Y0262780D01*
X0385817Y0262809D01*
X0385906Y0262833D01*
X0385996Y0262854D01*
X0386087Y0262870D01*
X0386179Y0262883D01*
X0386271Y0262892D01*
X0386364Y0262897D01*
X0386456Y0262898D01*
X0386549Y0262895D01*
X0386641Y0262888D01*
X0386733Y0262877D01*
X0386824Y0262862D01*
X0386915Y0262844D01*
X0387005Y0262821D01*
X0387093Y0262795D01*
X0387181Y0262765D01*
X0387267Y0262731D01*
X0387351Y0262694D01*
X0387434Y0262652D01*
X0387515Y0262608D01*
X0387595Y0262560D01*
X0387672Y0262509D01*
X0387746Y0262454D01*
X0387819Y0262396D01*
X0387889Y0262336D01*
X0387956Y0262272D01*
X0388020Y0262206D01*
X0388082Y0262136D01*
X0388140Y0262065D01*
X0388195Y0261991D01*
X0388247Y0261914D01*
X0388296Y0261835D01*
X0388342Y0261755D01*
X0388384Y0261672D01*
X0388422Y0261588D01*
X0388457Y0261502D01*
X0388488Y0261415D01*
X0388515Y0261327D01*
X0388538Y0261237D01*
X0388558Y0261147D01*
X0388574Y0261056D01*
X0388586Y0260964D01*
X0388594Y0260872D01*
X0388598Y0260779D01*
X0388598Y0260687D01*
X0388594Y0260594D01*
X0388586Y0260502D01*
X0388574Y0260410D01*
X0388558Y0260319D01*
X0388538Y0260229D01*
X0388515Y0260139D01*
X0388488Y0260051D01*
X0388457Y0259964D01*
X0388422Y0259878D01*
X0388384Y0259794D01*
X0388342Y0259711D01*
X0388296Y0259631D01*
X0388247Y0259552D01*
X0388195Y0259475D01*
X0388140Y0259401D01*
X0388082Y0259330D01*
X0388020Y0259260D01*
X0387956Y0259194D01*
X0387889Y0259130D01*
X0387819Y0259070D01*
X0387746Y0259012D01*
X0387672Y0258957D01*
X0387595Y0258906D01*
X0387516Y0258858D01*
X0387434Y0258814D01*
X0387351Y0258772D01*
X0387267Y0258735D01*
X0387181Y0258701D01*
X0387093Y0258671D01*
X0387005Y0258645D01*
X0386915Y0258622D01*
X0386824Y0258604D01*
X0386733Y0258589D01*
X0386641Y0258578D01*
X0386549Y0258571D01*
X0386456Y0258568D01*
X0386364Y0258569D01*
X0386271Y0258574D01*
X0386179Y0258583D01*
X0386087Y0258596D01*
X0385996Y0258612D01*
X0385906Y0258633D01*
X0385817Y0258657D01*
X0385729Y0258686D01*
X0385642Y0258718D01*
X0385557Y0258753D01*
X0385473Y0258793D01*
X0385391Y0258835D01*
X0385311Y0258882D01*
X0385233Y0258931D01*
X0385157Y0258984D01*
X0385083Y0259040D01*
X0385012Y0259100D01*
X0384944Y0259162D01*
X0384878Y0259227D01*
X0384815Y0259295D01*
X0384755Y0259365D01*
X0384698Y0259438D01*
X0384644Y0259513D01*
X0384594Y0259591D01*
X0384547Y0259671D01*
X0384503Y0259752D01*
X0384463Y0259836D01*
X0384426Y0259921D01*
X0384393Y0260007D01*
X0384364Y0260095D01*
X0384339Y0260184D01*
X0384317Y0260274D01*
X0384300Y0260365D01*
X0384286Y0260456D01*
X0384276Y0260548D01*
X0384270Y0260640D01*
X0384268Y0260733D01*
X0359298Y0246225D02*
X0359300Y0246295D01*
X0359306Y0246364D01*
X0359316Y0246433D01*
X0359329Y0246501D01*
X0359347Y0246568D01*
X0359368Y0246635D01*
X0359393Y0246700D01*
X0359422Y0246763D01*
X0359454Y0246825D01*
X0359490Y0246885D01*
X0359529Y0246942D01*
X0359571Y0246998D01*
X0359616Y0247051D01*
X0359664Y0247101D01*
X0359715Y0247148D01*
X0359769Y0247193D01*
X0359825Y0247234D01*
X0359883Y0247272D01*
X0359943Y0247307D01*
X0360006Y0247339D01*
X0360069Y0247366D01*
X0360135Y0247390D01*
X0360201Y0247411D01*
X0360269Y0247427D01*
X0360337Y0247440D01*
X0360406Y0247449D01*
X0360476Y0247454D01*
X0360545Y0247455D01*
X0360615Y0247452D01*
X0360684Y0247445D01*
X0360753Y0247434D01*
X0360821Y0247420D01*
X0360888Y0247401D01*
X0360954Y0247379D01*
X0361019Y0247353D01*
X0361082Y0247323D01*
X0361143Y0247290D01*
X0361202Y0247254D01*
X0361259Y0247214D01*
X0361314Y0247171D01*
X0361366Y0247125D01*
X0361416Y0247076D01*
X0361463Y0247024D01*
X0361506Y0246970D01*
X0361547Y0246914D01*
X0361584Y0246855D01*
X0361618Y0246794D01*
X0361649Y0246732D01*
X0361676Y0246667D01*
X0361699Y0246602D01*
X0361718Y0246535D01*
X0361734Y0246467D01*
X0361746Y0246398D01*
X0361754Y0246329D01*
X0361758Y0246260D01*
X0361758Y0246190D01*
X0361754Y0246121D01*
X0361746Y0246052D01*
X0361734Y0245983D01*
X0361718Y0245915D01*
X0361699Y0245848D01*
X0361676Y0245783D01*
X0361649Y0245718D01*
X0361618Y0245656D01*
X0361584Y0245595D01*
X0361547Y0245536D01*
X0361506Y0245480D01*
X0361463Y0245426D01*
X0361416Y0245374D01*
X0361366Y0245325D01*
X0361314Y0245279D01*
X0361259Y0245236D01*
X0361202Y0245196D01*
X0361143Y0245160D01*
X0361082Y0245127D01*
X0361019Y0245097D01*
X0360954Y0245071D01*
X0360888Y0245049D01*
X0360821Y0245030D01*
X0360753Y0245016D01*
X0360684Y0245005D01*
X0360615Y0244998D01*
X0360545Y0244995D01*
X0360476Y0244996D01*
X0360406Y0245001D01*
X0360337Y0245010D01*
X0360269Y0245023D01*
X0360201Y0245039D01*
X0360135Y0245060D01*
X0360069Y0245084D01*
X0360006Y0245111D01*
X0359943Y0245143D01*
X0359883Y0245178D01*
X0359825Y0245216D01*
X0359769Y0245257D01*
X0359715Y0245302D01*
X0359664Y0245349D01*
X0359616Y0245399D01*
X0359571Y0245452D01*
X0359529Y0245508D01*
X0359490Y0245565D01*
X0359454Y0245625D01*
X0359422Y0245687D01*
X0359393Y0245750D01*
X0359368Y0245815D01*
X0359347Y0245882D01*
X0359329Y0245949D01*
X0359316Y0246017D01*
X0359306Y0246086D01*
X0359300Y0246155D01*
X0359298Y0246225D01*
X0359298Y0220241D02*
X0359300Y0220311D01*
X0359306Y0220380D01*
X0359316Y0220449D01*
X0359329Y0220517D01*
X0359347Y0220584D01*
X0359368Y0220651D01*
X0359393Y0220716D01*
X0359422Y0220779D01*
X0359454Y0220841D01*
X0359490Y0220901D01*
X0359529Y0220958D01*
X0359571Y0221014D01*
X0359616Y0221067D01*
X0359664Y0221117D01*
X0359715Y0221164D01*
X0359769Y0221209D01*
X0359825Y0221250D01*
X0359883Y0221288D01*
X0359943Y0221323D01*
X0360006Y0221355D01*
X0360069Y0221382D01*
X0360135Y0221406D01*
X0360201Y0221427D01*
X0360269Y0221443D01*
X0360337Y0221456D01*
X0360406Y0221465D01*
X0360476Y0221470D01*
X0360545Y0221471D01*
X0360615Y0221468D01*
X0360684Y0221461D01*
X0360753Y0221450D01*
X0360821Y0221436D01*
X0360888Y0221417D01*
X0360954Y0221395D01*
X0361019Y0221369D01*
X0361082Y0221339D01*
X0361143Y0221306D01*
X0361202Y0221270D01*
X0361259Y0221230D01*
X0361314Y0221187D01*
X0361366Y0221141D01*
X0361416Y0221092D01*
X0361463Y0221040D01*
X0361506Y0220986D01*
X0361547Y0220930D01*
X0361584Y0220871D01*
X0361618Y0220810D01*
X0361649Y0220748D01*
X0361676Y0220683D01*
X0361699Y0220618D01*
X0361718Y0220551D01*
X0361734Y0220483D01*
X0361746Y0220414D01*
X0361754Y0220345D01*
X0361758Y0220276D01*
X0361758Y0220206D01*
X0361754Y0220137D01*
X0361746Y0220068D01*
X0361734Y0219999D01*
X0361718Y0219931D01*
X0361699Y0219864D01*
X0361676Y0219799D01*
X0361649Y0219734D01*
X0361618Y0219672D01*
X0361584Y0219611D01*
X0361547Y0219552D01*
X0361506Y0219496D01*
X0361463Y0219442D01*
X0361416Y0219390D01*
X0361366Y0219341D01*
X0361314Y0219295D01*
X0361259Y0219252D01*
X0361202Y0219212D01*
X0361143Y0219176D01*
X0361082Y0219143D01*
X0361019Y0219113D01*
X0360954Y0219087D01*
X0360888Y0219065D01*
X0360821Y0219046D01*
X0360753Y0219032D01*
X0360684Y0219021D01*
X0360615Y0219014D01*
X0360545Y0219011D01*
X0360476Y0219012D01*
X0360406Y0219017D01*
X0360337Y0219026D01*
X0360269Y0219039D01*
X0360201Y0219055D01*
X0360135Y0219076D01*
X0360069Y0219100D01*
X0360006Y0219127D01*
X0359943Y0219159D01*
X0359883Y0219194D01*
X0359825Y0219232D01*
X0359769Y0219273D01*
X0359715Y0219318D01*
X0359664Y0219365D01*
X0359616Y0219415D01*
X0359571Y0219468D01*
X0359529Y0219524D01*
X0359490Y0219581D01*
X0359454Y0219641D01*
X0359422Y0219703D01*
X0359393Y0219766D01*
X0359368Y0219831D01*
X0359347Y0219898D01*
X0359329Y0219965D01*
X0359316Y0220033D01*
X0359306Y0220102D01*
X0359300Y0220171D01*
X0359298Y0220241D01*
X0354268Y0095733D02*
X0354270Y0095826D01*
X0354276Y0095918D01*
X0354286Y0096010D01*
X0354300Y0096101D01*
X0354317Y0096192D01*
X0354339Y0096282D01*
X0354364Y0096371D01*
X0354393Y0096459D01*
X0354426Y0096545D01*
X0354463Y0096630D01*
X0354503Y0096714D01*
X0354547Y0096795D01*
X0354594Y0096875D01*
X0354644Y0096953D01*
X0354698Y0097028D01*
X0354755Y0097101D01*
X0354815Y0097171D01*
X0354878Y0097239D01*
X0354944Y0097304D01*
X0355012Y0097366D01*
X0355083Y0097426D01*
X0355157Y0097482D01*
X0355233Y0097535D01*
X0355311Y0097584D01*
X0355391Y0097631D01*
X0355473Y0097673D01*
X0355557Y0097713D01*
X0355642Y0097748D01*
X0355729Y0097780D01*
X0355817Y0097809D01*
X0355906Y0097833D01*
X0355996Y0097854D01*
X0356087Y0097870D01*
X0356179Y0097883D01*
X0356271Y0097892D01*
X0356364Y0097897D01*
X0356456Y0097898D01*
X0356549Y0097895D01*
X0356641Y0097888D01*
X0356733Y0097877D01*
X0356824Y0097862D01*
X0356915Y0097844D01*
X0357005Y0097821D01*
X0357093Y0097795D01*
X0357181Y0097765D01*
X0357267Y0097731D01*
X0357351Y0097694D01*
X0357434Y0097652D01*
X0357515Y0097608D01*
X0357595Y0097560D01*
X0357672Y0097509D01*
X0357746Y0097454D01*
X0357819Y0097396D01*
X0357889Y0097336D01*
X0357956Y0097272D01*
X0358020Y0097206D01*
X0358082Y0097136D01*
X0358140Y0097065D01*
X0358195Y0096991D01*
X0358247Y0096914D01*
X0358296Y0096835D01*
X0358342Y0096755D01*
X0358384Y0096672D01*
X0358422Y0096588D01*
X0358457Y0096502D01*
X0358488Y0096415D01*
X0358515Y0096327D01*
X0358538Y0096237D01*
X0358558Y0096147D01*
X0358574Y0096056D01*
X0358586Y0095964D01*
X0358594Y0095872D01*
X0358598Y0095779D01*
X0358598Y0095687D01*
X0358594Y0095594D01*
X0358586Y0095502D01*
X0358574Y0095410D01*
X0358558Y0095319D01*
X0358538Y0095229D01*
X0358515Y0095139D01*
X0358488Y0095051D01*
X0358457Y0094964D01*
X0358422Y0094878D01*
X0358384Y0094794D01*
X0358342Y0094711D01*
X0358296Y0094631D01*
X0358247Y0094552D01*
X0358195Y0094475D01*
X0358140Y0094401D01*
X0358082Y0094330D01*
X0358020Y0094260D01*
X0357956Y0094194D01*
X0357889Y0094130D01*
X0357819Y0094070D01*
X0357746Y0094012D01*
X0357672Y0093957D01*
X0357595Y0093906D01*
X0357516Y0093858D01*
X0357434Y0093814D01*
X0357351Y0093772D01*
X0357267Y0093735D01*
X0357181Y0093701D01*
X0357093Y0093671D01*
X0357005Y0093645D01*
X0356915Y0093622D01*
X0356824Y0093604D01*
X0356733Y0093589D01*
X0356641Y0093578D01*
X0356549Y0093571D01*
X0356456Y0093568D01*
X0356364Y0093569D01*
X0356271Y0093574D01*
X0356179Y0093583D01*
X0356087Y0093596D01*
X0355996Y0093612D01*
X0355906Y0093633D01*
X0355817Y0093657D01*
X0355729Y0093686D01*
X0355642Y0093718D01*
X0355557Y0093753D01*
X0355473Y0093793D01*
X0355391Y0093835D01*
X0355311Y0093882D01*
X0355233Y0093931D01*
X0355157Y0093984D01*
X0355083Y0094040D01*
X0355012Y0094100D01*
X0354944Y0094162D01*
X0354878Y0094227D01*
X0354815Y0094295D01*
X0354755Y0094365D01*
X0354698Y0094438D01*
X0354644Y0094513D01*
X0354594Y0094591D01*
X0354547Y0094671D01*
X0354503Y0094752D01*
X0354463Y0094836D01*
X0354426Y0094921D01*
X0354393Y0095007D01*
X0354364Y0095095D01*
X0354339Y0095184D01*
X0354317Y0095274D01*
X0354300Y0095365D01*
X0354286Y0095456D01*
X0354276Y0095548D01*
X0354270Y0095640D01*
X0354268Y0095733D01*
X0354268Y0085733D02*
X0354270Y0085826D01*
X0354276Y0085918D01*
X0354286Y0086010D01*
X0354300Y0086101D01*
X0354317Y0086192D01*
X0354339Y0086282D01*
X0354364Y0086371D01*
X0354393Y0086459D01*
X0354426Y0086545D01*
X0354463Y0086630D01*
X0354503Y0086714D01*
X0354547Y0086795D01*
X0354594Y0086875D01*
X0354644Y0086953D01*
X0354698Y0087028D01*
X0354755Y0087101D01*
X0354815Y0087171D01*
X0354878Y0087239D01*
X0354944Y0087304D01*
X0355012Y0087366D01*
X0355083Y0087426D01*
X0355157Y0087482D01*
X0355233Y0087535D01*
X0355311Y0087584D01*
X0355391Y0087631D01*
X0355473Y0087673D01*
X0355557Y0087713D01*
X0355642Y0087748D01*
X0355729Y0087780D01*
X0355817Y0087809D01*
X0355906Y0087833D01*
X0355996Y0087854D01*
X0356087Y0087870D01*
X0356179Y0087883D01*
X0356271Y0087892D01*
X0356364Y0087897D01*
X0356456Y0087898D01*
X0356549Y0087895D01*
X0356641Y0087888D01*
X0356733Y0087877D01*
X0356824Y0087862D01*
X0356915Y0087844D01*
X0357005Y0087821D01*
X0357093Y0087795D01*
X0357181Y0087765D01*
X0357267Y0087731D01*
X0357351Y0087694D01*
X0357434Y0087652D01*
X0357515Y0087608D01*
X0357595Y0087560D01*
X0357672Y0087509D01*
X0357746Y0087454D01*
X0357819Y0087396D01*
X0357889Y0087336D01*
X0357956Y0087272D01*
X0358020Y0087206D01*
X0358082Y0087136D01*
X0358140Y0087065D01*
X0358195Y0086991D01*
X0358247Y0086914D01*
X0358296Y0086835D01*
X0358342Y0086755D01*
X0358384Y0086672D01*
X0358422Y0086588D01*
X0358457Y0086502D01*
X0358488Y0086415D01*
X0358515Y0086327D01*
X0358538Y0086237D01*
X0358558Y0086147D01*
X0358574Y0086056D01*
X0358586Y0085964D01*
X0358594Y0085872D01*
X0358598Y0085779D01*
X0358598Y0085687D01*
X0358594Y0085594D01*
X0358586Y0085502D01*
X0358574Y0085410D01*
X0358558Y0085319D01*
X0358538Y0085229D01*
X0358515Y0085139D01*
X0358488Y0085051D01*
X0358457Y0084964D01*
X0358422Y0084878D01*
X0358384Y0084794D01*
X0358342Y0084711D01*
X0358296Y0084631D01*
X0358247Y0084552D01*
X0358195Y0084475D01*
X0358140Y0084401D01*
X0358082Y0084330D01*
X0358020Y0084260D01*
X0357956Y0084194D01*
X0357889Y0084130D01*
X0357819Y0084070D01*
X0357746Y0084012D01*
X0357672Y0083957D01*
X0357595Y0083906D01*
X0357516Y0083858D01*
X0357434Y0083814D01*
X0357351Y0083772D01*
X0357267Y0083735D01*
X0357181Y0083701D01*
X0357093Y0083671D01*
X0357005Y0083645D01*
X0356915Y0083622D01*
X0356824Y0083604D01*
X0356733Y0083589D01*
X0356641Y0083578D01*
X0356549Y0083571D01*
X0356456Y0083568D01*
X0356364Y0083569D01*
X0356271Y0083574D01*
X0356179Y0083583D01*
X0356087Y0083596D01*
X0355996Y0083612D01*
X0355906Y0083633D01*
X0355817Y0083657D01*
X0355729Y0083686D01*
X0355642Y0083718D01*
X0355557Y0083753D01*
X0355473Y0083793D01*
X0355391Y0083835D01*
X0355311Y0083882D01*
X0355233Y0083931D01*
X0355157Y0083984D01*
X0355083Y0084040D01*
X0355012Y0084100D01*
X0354944Y0084162D01*
X0354878Y0084227D01*
X0354815Y0084295D01*
X0354755Y0084365D01*
X0354698Y0084438D01*
X0354644Y0084513D01*
X0354594Y0084591D01*
X0354547Y0084671D01*
X0354503Y0084752D01*
X0354463Y0084836D01*
X0354426Y0084921D01*
X0354393Y0085007D01*
X0354364Y0085095D01*
X0354339Y0085184D01*
X0354317Y0085274D01*
X0354300Y0085365D01*
X0354286Y0085456D01*
X0354276Y0085548D01*
X0354270Y0085640D01*
X0354268Y0085733D01*
X0364268Y0085733D02*
X0364270Y0085826D01*
X0364276Y0085918D01*
X0364286Y0086010D01*
X0364300Y0086101D01*
X0364317Y0086192D01*
X0364339Y0086282D01*
X0364364Y0086371D01*
X0364393Y0086459D01*
X0364426Y0086545D01*
X0364463Y0086630D01*
X0364503Y0086714D01*
X0364547Y0086795D01*
X0364594Y0086875D01*
X0364644Y0086953D01*
X0364698Y0087028D01*
X0364755Y0087101D01*
X0364815Y0087171D01*
X0364878Y0087239D01*
X0364944Y0087304D01*
X0365012Y0087366D01*
X0365083Y0087426D01*
X0365157Y0087482D01*
X0365233Y0087535D01*
X0365311Y0087584D01*
X0365391Y0087631D01*
X0365473Y0087673D01*
X0365557Y0087713D01*
X0365642Y0087748D01*
X0365729Y0087780D01*
X0365817Y0087809D01*
X0365906Y0087833D01*
X0365996Y0087854D01*
X0366087Y0087870D01*
X0366179Y0087883D01*
X0366271Y0087892D01*
X0366364Y0087897D01*
X0366456Y0087898D01*
X0366549Y0087895D01*
X0366641Y0087888D01*
X0366733Y0087877D01*
X0366824Y0087862D01*
X0366915Y0087844D01*
X0367005Y0087821D01*
X0367093Y0087795D01*
X0367181Y0087765D01*
X0367267Y0087731D01*
X0367351Y0087694D01*
X0367434Y0087652D01*
X0367515Y0087608D01*
X0367595Y0087560D01*
X0367672Y0087509D01*
X0367746Y0087454D01*
X0367819Y0087396D01*
X0367889Y0087336D01*
X0367956Y0087272D01*
X0368020Y0087206D01*
X0368082Y0087136D01*
X0368140Y0087065D01*
X0368195Y0086991D01*
X0368247Y0086914D01*
X0368296Y0086835D01*
X0368342Y0086755D01*
X0368384Y0086672D01*
X0368422Y0086588D01*
X0368457Y0086502D01*
X0368488Y0086415D01*
X0368515Y0086327D01*
X0368538Y0086237D01*
X0368558Y0086147D01*
X0368574Y0086056D01*
X0368586Y0085964D01*
X0368594Y0085872D01*
X0368598Y0085779D01*
X0368598Y0085687D01*
X0368594Y0085594D01*
X0368586Y0085502D01*
X0368574Y0085410D01*
X0368558Y0085319D01*
X0368538Y0085229D01*
X0368515Y0085139D01*
X0368488Y0085051D01*
X0368457Y0084964D01*
X0368422Y0084878D01*
X0368384Y0084794D01*
X0368342Y0084711D01*
X0368296Y0084631D01*
X0368247Y0084552D01*
X0368195Y0084475D01*
X0368140Y0084401D01*
X0368082Y0084330D01*
X0368020Y0084260D01*
X0367956Y0084194D01*
X0367889Y0084130D01*
X0367819Y0084070D01*
X0367746Y0084012D01*
X0367672Y0083957D01*
X0367595Y0083906D01*
X0367516Y0083858D01*
X0367434Y0083814D01*
X0367351Y0083772D01*
X0367267Y0083735D01*
X0367181Y0083701D01*
X0367093Y0083671D01*
X0367005Y0083645D01*
X0366915Y0083622D01*
X0366824Y0083604D01*
X0366733Y0083589D01*
X0366641Y0083578D01*
X0366549Y0083571D01*
X0366456Y0083568D01*
X0366364Y0083569D01*
X0366271Y0083574D01*
X0366179Y0083583D01*
X0366087Y0083596D01*
X0365996Y0083612D01*
X0365906Y0083633D01*
X0365817Y0083657D01*
X0365729Y0083686D01*
X0365642Y0083718D01*
X0365557Y0083753D01*
X0365473Y0083793D01*
X0365391Y0083835D01*
X0365311Y0083882D01*
X0365233Y0083931D01*
X0365157Y0083984D01*
X0365083Y0084040D01*
X0365012Y0084100D01*
X0364944Y0084162D01*
X0364878Y0084227D01*
X0364815Y0084295D01*
X0364755Y0084365D01*
X0364698Y0084438D01*
X0364644Y0084513D01*
X0364594Y0084591D01*
X0364547Y0084671D01*
X0364503Y0084752D01*
X0364463Y0084836D01*
X0364426Y0084921D01*
X0364393Y0085007D01*
X0364364Y0085095D01*
X0364339Y0085184D01*
X0364317Y0085274D01*
X0364300Y0085365D01*
X0364286Y0085456D01*
X0364276Y0085548D01*
X0364270Y0085640D01*
X0364268Y0085733D01*
X0364268Y0095733D02*
X0364270Y0095826D01*
X0364276Y0095918D01*
X0364286Y0096010D01*
X0364300Y0096101D01*
X0364317Y0096192D01*
X0364339Y0096282D01*
X0364364Y0096371D01*
X0364393Y0096459D01*
X0364426Y0096545D01*
X0364463Y0096630D01*
X0364503Y0096714D01*
X0364547Y0096795D01*
X0364594Y0096875D01*
X0364644Y0096953D01*
X0364698Y0097028D01*
X0364755Y0097101D01*
X0364815Y0097171D01*
X0364878Y0097239D01*
X0364944Y0097304D01*
X0365012Y0097366D01*
X0365083Y0097426D01*
X0365157Y0097482D01*
X0365233Y0097535D01*
X0365311Y0097584D01*
X0365391Y0097631D01*
X0365473Y0097673D01*
X0365557Y0097713D01*
X0365642Y0097748D01*
X0365729Y0097780D01*
X0365817Y0097809D01*
X0365906Y0097833D01*
X0365996Y0097854D01*
X0366087Y0097870D01*
X0366179Y0097883D01*
X0366271Y0097892D01*
X0366364Y0097897D01*
X0366456Y0097898D01*
X0366549Y0097895D01*
X0366641Y0097888D01*
X0366733Y0097877D01*
X0366824Y0097862D01*
X0366915Y0097844D01*
X0367005Y0097821D01*
X0367093Y0097795D01*
X0367181Y0097765D01*
X0367267Y0097731D01*
X0367351Y0097694D01*
X0367434Y0097652D01*
X0367515Y0097608D01*
X0367595Y0097560D01*
X0367672Y0097509D01*
X0367746Y0097454D01*
X0367819Y0097396D01*
X0367889Y0097336D01*
X0367956Y0097272D01*
X0368020Y0097206D01*
X0368082Y0097136D01*
X0368140Y0097065D01*
X0368195Y0096991D01*
X0368247Y0096914D01*
X0368296Y0096835D01*
X0368342Y0096755D01*
X0368384Y0096672D01*
X0368422Y0096588D01*
X0368457Y0096502D01*
X0368488Y0096415D01*
X0368515Y0096327D01*
X0368538Y0096237D01*
X0368558Y0096147D01*
X0368574Y0096056D01*
X0368586Y0095964D01*
X0368594Y0095872D01*
X0368598Y0095779D01*
X0368598Y0095687D01*
X0368594Y0095594D01*
X0368586Y0095502D01*
X0368574Y0095410D01*
X0368558Y0095319D01*
X0368538Y0095229D01*
X0368515Y0095139D01*
X0368488Y0095051D01*
X0368457Y0094964D01*
X0368422Y0094878D01*
X0368384Y0094794D01*
X0368342Y0094711D01*
X0368296Y0094631D01*
X0368247Y0094552D01*
X0368195Y0094475D01*
X0368140Y0094401D01*
X0368082Y0094330D01*
X0368020Y0094260D01*
X0367956Y0094194D01*
X0367889Y0094130D01*
X0367819Y0094070D01*
X0367746Y0094012D01*
X0367672Y0093957D01*
X0367595Y0093906D01*
X0367516Y0093858D01*
X0367434Y0093814D01*
X0367351Y0093772D01*
X0367267Y0093735D01*
X0367181Y0093701D01*
X0367093Y0093671D01*
X0367005Y0093645D01*
X0366915Y0093622D01*
X0366824Y0093604D01*
X0366733Y0093589D01*
X0366641Y0093578D01*
X0366549Y0093571D01*
X0366456Y0093568D01*
X0366364Y0093569D01*
X0366271Y0093574D01*
X0366179Y0093583D01*
X0366087Y0093596D01*
X0365996Y0093612D01*
X0365906Y0093633D01*
X0365817Y0093657D01*
X0365729Y0093686D01*
X0365642Y0093718D01*
X0365557Y0093753D01*
X0365473Y0093793D01*
X0365391Y0093835D01*
X0365311Y0093882D01*
X0365233Y0093931D01*
X0365157Y0093984D01*
X0365083Y0094040D01*
X0365012Y0094100D01*
X0364944Y0094162D01*
X0364878Y0094227D01*
X0364815Y0094295D01*
X0364755Y0094365D01*
X0364698Y0094438D01*
X0364644Y0094513D01*
X0364594Y0094591D01*
X0364547Y0094671D01*
X0364503Y0094752D01*
X0364463Y0094836D01*
X0364426Y0094921D01*
X0364393Y0095007D01*
X0364364Y0095095D01*
X0364339Y0095184D01*
X0364317Y0095274D01*
X0364300Y0095365D01*
X0364286Y0095456D01*
X0364276Y0095548D01*
X0364270Y0095640D01*
X0364268Y0095733D01*
X0374268Y0095733D02*
X0374270Y0095826D01*
X0374276Y0095918D01*
X0374286Y0096010D01*
X0374300Y0096101D01*
X0374317Y0096192D01*
X0374339Y0096282D01*
X0374364Y0096371D01*
X0374393Y0096459D01*
X0374426Y0096545D01*
X0374463Y0096630D01*
X0374503Y0096714D01*
X0374547Y0096795D01*
X0374594Y0096875D01*
X0374644Y0096953D01*
X0374698Y0097028D01*
X0374755Y0097101D01*
X0374815Y0097171D01*
X0374878Y0097239D01*
X0374944Y0097304D01*
X0375012Y0097366D01*
X0375083Y0097426D01*
X0375157Y0097482D01*
X0375233Y0097535D01*
X0375311Y0097584D01*
X0375391Y0097631D01*
X0375473Y0097673D01*
X0375557Y0097713D01*
X0375642Y0097748D01*
X0375729Y0097780D01*
X0375817Y0097809D01*
X0375906Y0097833D01*
X0375996Y0097854D01*
X0376087Y0097870D01*
X0376179Y0097883D01*
X0376271Y0097892D01*
X0376364Y0097897D01*
X0376456Y0097898D01*
X0376549Y0097895D01*
X0376641Y0097888D01*
X0376733Y0097877D01*
X0376824Y0097862D01*
X0376915Y0097844D01*
X0377005Y0097821D01*
X0377093Y0097795D01*
X0377181Y0097765D01*
X0377267Y0097731D01*
X0377351Y0097694D01*
X0377434Y0097652D01*
X0377515Y0097608D01*
X0377595Y0097560D01*
X0377672Y0097509D01*
X0377746Y0097454D01*
X0377819Y0097396D01*
X0377889Y0097336D01*
X0377956Y0097272D01*
X0378020Y0097206D01*
X0378082Y0097136D01*
X0378140Y0097065D01*
X0378195Y0096991D01*
X0378247Y0096914D01*
X0378296Y0096835D01*
X0378342Y0096755D01*
X0378384Y0096672D01*
X0378422Y0096588D01*
X0378457Y0096502D01*
X0378488Y0096415D01*
X0378515Y0096327D01*
X0378538Y0096237D01*
X0378558Y0096147D01*
X0378574Y0096056D01*
X0378586Y0095964D01*
X0378594Y0095872D01*
X0378598Y0095779D01*
X0378598Y0095687D01*
X0378594Y0095594D01*
X0378586Y0095502D01*
X0378574Y0095410D01*
X0378558Y0095319D01*
X0378538Y0095229D01*
X0378515Y0095139D01*
X0378488Y0095051D01*
X0378457Y0094964D01*
X0378422Y0094878D01*
X0378384Y0094794D01*
X0378342Y0094711D01*
X0378296Y0094631D01*
X0378247Y0094552D01*
X0378195Y0094475D01*
X0378140Y0094401D01*
X0378082Y0094330D01*
X0378020Y0094260D01*
X0377956Y0094194D01*
X0377889Y0094130D01*
X0377819Y0094070D01*
X0377746Y0094012D01*
X0377672Y0093957D01*
X0377595Y0093906D01*
X0377516Y0093858D01*
X0377434Y0093814D01*
X0377351Y0093772D01*
X0377267Y0093735D01*
X0377181Y0093701D01*
X0377093Y0093671D01*
X0377005Y0093645D01*
X0376915Y0093622D01*
X0376824Y0093604D01*
X0376733Y0093589D01*
X0376641Y0093578D01*
X0376549Y0093571D01*
X0376456Y0093568D01*
X0376364Y0093569D01*
X0376271Y0093574D01*
X0376179Y0093583D01*
X0376087Y0093596D01*
X0375996Y0093612D01*
X0375906Y0093633D01*
X0375817Y0093657D01*
X0375729Y0093686D01*
X0375642Y0093718D01*
X0375557Y0093753D01*
X0375473Y0093793D01*
X0375391Y0093835D01*
X0375311Y0093882D01*
X0375233Y0093931D01*
X0375157Y0093984D01*
X0375083Y0094040D01*
X0375012Y0094100D01*
X0374944Y0094162D01*
X0374878Y0094227D01*
X0374815Y0094295D01*
X0374755Y0094365D01*
X0374698Y0094438D01*
X0374644Y0094513D01*
X0374594Y0094591D01*
X0374547Y0094671D01*
X0374503Y0094752D01*
X0374463Y0094836D01*
X0374426Y0094921D01*
X0374393Y0095007D01*
X0374364Y0095095D01*
X0374339Y0095184D01*
X0374317Y0095274D01*
X0374300Y0095365D01*
X0374286Y0095456D01*
X0374276Y0095548D01*
X0374270Y0095640D01*
X0374268Y0095733D01*
X0374268Y0085733D02*
X0374270Y0085826D01*
X0374276Y0085918D01*
X0374286Y0086010D01*
X0374300Y0086101D01*
X0374317Y0086192D01*
X0374339Y0086282D01*
X0374364Y0086371D01*
X0374393Y0086459D01*
X0374426Y0086545D01*
X0374463Y0086630D01*
X0374503Y0086714D01*
X0374547Y0086795D01*
X0374594Y0086875D01*
X0374644Y0086953D01*
X0374698Y0087028D01*
X0374755Y0087101D01*
X0374815Y0087171D01*
X0374878Y0087239D01*
X0374944Y0087304D01*
X0375012Y0087366D01*
X0375083Y0087426D01*
X0375157Y0087482D01*
X0375233Y0087535D01*
X0375311Y0087584D01*
X0375391Y0087631D01*
X0375473Y0087673D01*
X0375557Y0087713D01*
X0375642Y0087748D01*
X0375729Y0087780D01*
X0375817Y0087809D01*
X0375906Y0087833D01*
X0375996Y0087854D01*
X0376087Y0087870D01*
X0376179Y0087883D01*
X0376271Y0087892D01*
X0376364Y0087897D01*
X0376456Y0087898D01*
X0376549Y0087895D01*
X0376641Y0087888D01*
X0376733Y0087877D01*
X0376824Y0087862D01*
X0376915Y0087844D01*
X0377005Y0087821D01*
X0377093Y0087795D01*
X0377181Y0087765D01*
X0377267Y0087731D01*
X0377351Y0087694D01*
X0377434Y0087652D01*
X0377515Y0087608D01*
X0377595Y0087560D01*
X0377672Y0087509D01*
X0377746Y0087454D01*
X0377819Y0087396D01*
X0377889Y0087336D01*
X0377956Y0087272D01*
X0378020Y0087206D01*
X0378082Y0087136D01*
X0378140Y0087065D01*
X0378195Y0086991D01*
X0378247Y0086914D01*
X0378296Y0086835D01*
X0378342Y0086755D01*
X0378384Y0086672D01*
X0378422Y0086588D01*
X0378457Y0086502D01*
X0378488Y0086415D01*
X0378515Y0086327D01*
X0378538Y0086237D01*
X0378558Y0086147D01*
X0378574Y0086056D01*
X0378586Y0085964D01*
X0378594Y0085872D01*
X0378598Y0085779D01*
X0378598Y0085687D01*
X0378594Y0085594D01*
X0378586Y0085502D01*
X0378574Y0085410D01*
X0378558Y0085319D01*
X0378538Y0085229D01*
X0378515Y0085139D01*
X0378488Y0085051D01*
X0378457Y0084964D01*
X0378422Y0084878D01*
X0378384Y0084794D01*
X0378342Y0084711D01*
X0378296Y0084631D01*
X0378247Y0084552D01*
X0378195Y0084475D01*
X0378140Y0084401D01*
X0378082Y0084330D01*
X0378020Y0084260D01*
X0377956Y0084194D01*
X0377889Y0084130D01*
X0377819Y0084070D01*
X0377746Y0084012D01*
X0377672Y0083957D01*
X0377595Y0083906D01*
X0377516Y0083858D01*
X0377434Y0083814D01*
X0377351Y0083772D01*
X0377267Y0083735D01*
X0377181Y0083701D01*
X0377093Y0083671D01*
X0377005Y0083645D01*
X0376915Y0083622D01*
X0376824Y0083604D01*
X0376733Y0083589D01*
X0376641Y0083578D01*
X0376549Y0083571D01*
X0376456Y0083568D01*
X0376364Y0083569D01*
X0376271Y0083574D01*
X0376179Y0083583D01*
X0376087Y0083596D01*
X0375996Y0083612D01*
X0375906Y0083633D01*
X0375817Y0083657D01*
X0375729Y0083686D01*
X0375642Y0083718D01*
X0375557Y0083753D01*
X0375473Y0083793D01*
X0375391Y0083835D01*
X0375311Y0083882D01*
X0375233Y0083931D01*
X0375157Y0083984D01*
X0375083Y0084040D01*
X0375012Y0084100D01*
X0374944Y0084162D01*
X0374878Y0084227D01*
X0374815Y0084295D01*
X0374755Y0084365D01*
X0374698Y0084438D01*
X0374644Y0084513D01*
X0374594Y0084591D01*
X0374547Y0084671D01*
X0374503Y0084752D01*
X0374463Y0084836D01*
X0374426Y0084921D01*
X0374393Y0085007D01*
X0374364Y0085095D01*
X0374339Y0085184D01*
X0374317Y0085274D01*
X0374300Y0085365D01*
X0374286Y0085456D01*
X0374276Y0085548D01*
X0374270Y0085640D01*
X0374268Y0085733D01*
X0384268Y0085733D02*
X0384270Y0085826D01*
X0384276Y0085918D01*
X0384286Y0086010D01*
X0384300Y0086101D01*
X0384317Y0086192D01*
X0384339Y0086282D01*
X0384364Y0086371D01*
X0384393Y0086459D01*
X0384426Y0086545D01*
X0384463Y0086630D01*
X0384503Y0086714D01*
X0384547Y0086795D01*
X0384594Y0086875D01*
X0384644Y0086953D01*
X0384698Y0087028D01*
X0384755Y0087101D01*
X0384815Y0087171D01*
X0384878Y0087239D01*
X0384944Y0087304D01*
X0385012Y0087366D01*
X0385083Y0087426D01*
X0385157Y0087482D01*
X0385233Y0087535D01*
X0385311Y0087584D01*
X0385391Y0087631D01*
X0385473Y0087673D01*
X0385557Y0087713D01*
X0385642Y0087748D01*
X0385729Y0087780D01*
X0385817Y0087809D01*
X0385906Y0087833D01*
X0385996Y0087854D01*
X0386087Y0087870D01*
X0386179Y0087883D01*
X0386271Y0087892D01*
X0386364Y0087897D01*
X0386456Y0087898D01*
X0386549Y0087895D01*
X0386641Y0087888D01*
X0386733Y0087877D01*
X0386824Y0087862D01*
X0386915Y0087844D01*
X0387005Y0087821D01*
X0387093Y0087795D01*
X0387181Y0087765D01*
X0387267Y0087731D01*
X0387351Y0087694D01*
X0387434Y0087652D01*
X0387515Y0087608D01*
X0387595Y0087560D01*
X0387672Y0087509D01*
X0387746Y0087454D01*
X0387819Y0087396D01*
X0387889Y0087336D01*
X0387956Y0087272D01*
X0388020Y0087206D01*
X0388082Y0087136D01*
X0388140Y0087065D01*
X0388195Y0086991D01*
X0388247Y0086914D01*
X0388296Y0086835D01*
X0388342Y0086755D01*
X0388384Y0086672D01*
X0388422Y0086588D01*
X0388457Y0086502D01*
X0388488Y0086415D01*
X0388515Y0086327D01*
X0388538Y0086237D01*
X0388558Y0086147D01*
X0388574Y0086056D01*
X0388586Y0085964D01*
X0388594Y0085872D01*
X0388598Y0085779D01*
X0388598Y0085687D01*
X0388594Y0085594D01*
X0388586Y0085502D01*
X0388574Y0085410D01*
X0388558Y0085319D01*
X0388538Y0085229D01*
X0388515Y0085139D01*
X0388488Y0085051D01*
X0388457Y0084964D01*
X0388422Y0084878D01*
X0388384Y0084794D01*
X0388342Y0084711D01*
X0388296Y0084631D01*
X0388247Y0084552D01*
X0388195Y0084475D01*
X0388140Y0084401D01*
X0388082Y0084330D01*
X0388020Y0084260D01*
X0387956Y0084194D01*
X0387889Y0084130D01*
X0387819Y0084070D01*
X0387746Y0084012D01*
X0387672Y0083957D01*
X0387595Y0083906D01*
X0387516Y0083858D01*
X0387434Y0083814D01*
X0387351Y0083772D01*
X0387267Y0083735D01*
X0387181Y0083701D01*
X0387093Y0083671D01*
X0387005Y0083645D01*
X0386915Y0083622D01*
X0386824Y0083604D01*
X0386733Y0083589D01*
X0386641Y0083578D01*
X0386549Y0083571D01*
X0386456Y0083568D01*
X0386364Y0083569D01*
X0386271Y0083574D01*
X0386179Y0083583D01*
X0386087Y0083596D01*
X0385996Y0083612D01*
X0385906Y0083633D01*
X0385817Y0083657D01*
X0385729Y0083686D01*
X0385642Y0083718D01*
X0385557Y0083753D01*
X0385473Y0083793D01*
X0385391Y0083835D01*
X0385311Y0083882D01*
X0385233Y0083931D01*
X0385157Y0083984D01*
X0385083Y0084040D01*
X0385012Y0084100D01*
X0384944Y0084162D01*
X0384878Y0084227D01*
X0384815Y0084295D01*
X0384755Y0084365D01*
X0384698Y0084438D01*
X0384644Y0084513D01*
X0384594Y0084591D01*
X0384547Y0084671D01*
X0384503Y0084752D01*
X0384463Y0084836D01*
X0384426Y0084921D01*
X0384393Y0085007D01*
X0384364Y0085095D01*
X0384339Y0085184D01*
X0384317Y0085274D01*
X0384300Y0085365D01*
X0384286Y0085456D01*
X0384276Y0085548D01*
X0384270Y0085640D01*
X0384268Y0085733D01*
X0384268Y0095733D02*
X0384270Y0095826D01*
X0384276Y0095918D01*
X0384286Y0096010D01*
X0384300Y0096101D01*
X0384317Y0096192D01*
X0384339Y0096282D01*
X0384364Y0096371D01*
X0384393Y0096459D01*
X0384426Y0096545D01*
X0384463Y0096630D01*
X0384503Y0096714D01*
X0384547Y0096795D01*
X0384594Y0096875D01*
X0384644Y0096953D01*
X0384698Y0097028D01*
X0384755Y0097101D01*
X0384815Y0097171D01*
X0384878Y0097239D01*
X0384944Y0097304D01*
X0385012Y0097366D01*
X0385083Y0097426D01*
X0385157Y0097482D01*
X0385233Y0097535D01*
X0385311Y0097584D01*
X0385391Y0097631D01*
X0385473Y0097673D01*
X0385557Y0097713D01*
X0385642Y0097748D01*
X0385729Y0097780D01*
X0385817Y0097809D01*
X0385906Y0097833D01*
X0385996Y0097854D01*
X0386087Y0097870D01*
X0386179Y0097883D01*
X0386271Y0097892D01*
X0386364Y0097897D01*
X0386456Y0097898D01*
X0386549Y0097895D01*
X0386641Y0097888D01*
X0386733Y0097877D01*
X0386824Y0097862D01*
X0386915Y0097844D01*
X0387005Y0097821D01*
X0387093Y0097795D01*
X0387181Y0097765D01*
X0387267Y0097731D01*
X0387351Y0097694D01*
X0387434Y0097652D01*
X0387515Y0097608D01*
X0387595Y0097560D01*
X0387672Y0097509D01*
X0387746Y0097454D01*
X0387819Y0097396D01*
X0387889Y0097336D01*
X0387956Y0097272D01*
X0388020Y0097206D01*
X0388082Y0097136D01*
X0388140Y0097065D01*
X0388195Y0096991D01*
X0388247Y0096914D01*
X0388296Y0096835D01*
X0388342Y0096755D01*
X0388384Y0096672D01*
X0388422Y0096588D01*
X0388457Y0096502D01*
X0388488Y0096415D01*
X0388515Y0096327D01*
X0388538Y0096237D01*
X0388558Y0096147D01*
X0388574Y0096056D01*
X0388586Y0095964D01*
X0388594Y0095872D01*
X0388598Y0095779D01*
X0388598Y0095687D01*
X0388594Y0095594D01*
X0388586Y0095502D01*
X0388574Y0095410D01*
X0388558Y0095319D01*
X0388538Y0095229D01*
X0388515Y0095139D01*
X0388488Y0095051D01*
X0388457Y0094964D01*
X0388422Y0094878D01*
X0388384Y0094794D01*
X0388342Y0094711D01*
X0388296Y0094631D01*
X0388247Y0094552D01*
X0388195Y0094475D01*
X0388140Y0094401D01*
X0388082Y0094330D01*
X0388020Y0094260D01*
X0387956Y0094194D01*
X0387889Y0094130D01*
X0387819Y0094070D01*
X0387746Y0094012D01*
X0387672Y0093957D01*
X0387595Y0093906D01*
X0387516Y0093858D01*
X0387434Y0093814D01*
X0387351Y0093772D01*
X0387267Y0093735D01*
X0387181Y0093701D01*
X0387093Y0093671D01*
X0387005Y0093645D01*
X0386915Y0093622D01*
X0386824Y0093604D01*
X0386733Y0093589D01*
X0386641Y0093578D01*
X0386549Y0093571D01*
X0386456Y0093568D01*
X0386364Y0093569D01*
X0386271Y0093574D01*
X0386179Y0093583D01*
X0386087Y0093596D01*
X0385996Y0093612D01*
X0385906Y0093633D01*
X0385817Y0093657D01*
X0385729Y0093686D01*
X0385642Y0093718D01*
X0385557Y0093753D01*
X0385473Y0093793D01*
X0385391Y0093835D01*
X0385311Y0093882D01*
X0385233Y0093931D01*
X0385157Y0093984D01*
X0385083Y0094040D01*
X0385012Y0094100D01*
X0384944Y0094162D01*
X0384878Y0094227D01*
X0384815Y0094295D01*
X0384755Y0094365D01*
X0384698Y0094438D01*
X0384644Y0094513D01*
X0384594Y0094591D01*
X0384547Y0094671D01*
X0384503Y0094752D01*
X0384463Y0094836D01*
X0384426Y0094921D01*
X0384393Y0095007D01*
X0384364Y0095095D01*
X0384339Y0095184D01*
X0384317Y0095274D01*
X0384300Y0095365D01*
X0384286Y0095456D01*
X0384276Y0095548D01*
X0384270Y0095640D01*
X0384268Y0095733D01*
M02*
