G75*
%MOIN*%
%OFA0B0*%
%FSLAX25Y25*%
%IPPOS*%
%LPD*%
%AMOC8*
5,1,8,0,0,1.08239X$1,22.5*
%
%ADD10C,0.00600*%
%ADD11C,0.01200*%
%ADD12C,0.01100*%
%ADD13C,0.01000*%
%ADD14C,0.00900*%
%ADD15C,0.00800*%
%ADD16C,0.00700*%
%ADD17C,0.00500*%
%ADD18C,0.00400*%
%ADD19C,0.00300*%
%ADD20C,0.00200*%
%ADD21C,0.00100*%
%ADD22C,0.03937*%
D10*
X0088750Y0039800D02*
X0313750Y0039800D01*
X0313750Y0264800D01*
X0088750Y0264800D01*
X0088750Y0039800D01*
X0093750Y0044800D02*
X0308750Y0044800D01*
X0308750Y0259800D01*
X0093750Y0259800D01*
X0093750Y0044800D01*
X0146750Y0149800D02*
X0144250Y0152300D01*
D11*
X0146750Y0164800D02*
X0144250Y0167300D01*
D12*
X0144250Y0164800D02*
X0146750Y0162300D01*
D13*
X0146750Y0159800D02*
X0144250Y0162300D01*
D14*
X0144250Y0159800D02*
X0146750Y0157300D01*
D15*
X0146750Y0154800D02*
X0144250Y0157300D01*
D16*
X0144250Y0154800D02*
X0146750Y0152300D01*
D17*
X0144250Y0149800D02*
X0146750Y0147300D01*
X0127000Y0120066D02*
X0127002Y0119944D01*
X0127008Y0119822D01*
X0127018Y0119700D01*
X0127031Y0119578D01*
X0127049Y0119457D01*
X0127070Y0119337D01*
X0127096Y0119217D01*
X0127125Y0119098D01*
X0127158Y0118980D01*
X0127194Y0118864D01*
X0127235Y0118748D01*
X0127279Y0118634D01*
X0127327Y0118521D01*
X0127378Y0118410D01*
X0127433Y0118301D01*
X0127491Y0118193D01*
X0127553Y0118088D01*
X0127618Y0117984D01*
X0127686Y0117883D01*
X0127758Y0117784D01*
X0127833Y0117687D01*
X0127910Y0117592D01*
X0127991Y0117500D01*
X0128075Y0117411D01*
X0128161Y0117325D01*
X0128250Y0117241D01*
X0128342Y0117160D01*
X0128437Y0117083D01*
X0128534Y0117008D01*
X0128633Y0116936D01*
X0128734Y0116868D01*
X0128838Y0116803D01*
X0128943Y0116741D01*
X0129051Y0116683D01*
X0129160Y0116628D01*
X0129271Y0116577D01*
X0129384Y0116529D01*
X0129498Y0116485D01*
X0129614Y0116444D01*
X0129730Y0116408D01*
X0129848Y0116375D01*
X0129967Y0116346D01*
X0130087Y0116320D01*
X0130207Y0116299D01*
X0130328Y0116281D01*
X0130450Y0116268D01*
X0130572Y0116258D01*
X0130694Y0116252D01*
X0130816Y0116250D01*
X0265484Y0116250D01*
X0265603Y0116252D01*
X0265722Y0116258D01*
X0265841Y0116267D01*
X0265959Y0116281D01*
X0266077Y0116298D01*
X0266195Y0116319D01*
X0266311Y0116343D01*
X0266427Y0116372D01*
X0266542Y0116404D01*
X0266655Y0116439D01*
X0266768Y0116479D01*
X0266879Y0116522D01*
X0266989Y0116568D01*
X0267097Y0116618D01*
X0267203Y0116672D01*
X0267308Y0116728D01*
X0267411Y0116788D01*
X0267512Y0116852D01*
X0267611Y0116918D01*
X0267707Y0116988D01*
X0267802Y0117061D01*
X0267893Y0117137D01*
X0267983Y0117215D01*
X0268070Y0117297D01*
X0268154Y0117381D01*
X0268236Y0117468D01*
X0268314Y0117558D01*
X0268390Y0117649D01*
X0268463Y0117744D01*
X0268533Y0117840D01*
X0268599Y0117939D01*
X0268663Y0118040D01*
X0268723Y0118143D01*
X0268779Y0118248D01*
X0268833Y0118354D01*
X0268883Y0118462D01*
X0268929Y0118572D01*
X0268972Y0118683D01*
X0269012Y0118796D01*
X0269047Y0118909D01*
X0269079Y0119024D01*
X0269108Y0119140D01*
X0269132Y0119256D01*
X0269153Y0119374D01*
X0269170Y0119492D01*
X0269184Y0119610D01*
X0269193Y0119729D01*
X0269199Y0119848D01*
X0269201Y0119967D01*
X0269200Y0119967D02*
X0269200Y0184633D01*
X0269201Y0184633D02*
X0269199Y0184752D01*
X0269193Y0184871D01*
X0269184Y0184990D01*
X0269170Y0185108D01*
X0269153Y0185226D01*
X0269132Y0185344D01*
X0269108Y0185460D01*
X0269079Y0185576D01*
X0269047Y0185691D01*
X0269012Y0185804D01*
X0268972Y0185917D01*
X0268929Y0186028D01*
X0268883Y0186138D01*
X0268833Y0186246D01*
X0268779Y0186352D01*
X0268723Y0186457D01*
X0268663Y0186560D01*
X0268599Y0186661D01*
X0268533Y0186760D01*
X0268463Y0186856D01*
X0268390Y0186951D01*
X0268314Y0187042D01*
X0268236Y0187132D01*
X0268154Y0187219D01*
X0268070Y0187303D01*
X0267983Y0187385D01*
X0267893Y0187463D01*
X0267802Y0187539D01*
X0267707Y0187612D01*
X0267611Y0187682D01*
X0267512Y0187748D01*
X0267411Y0187812D01*
X0267308Y0187872D01*
X0267203Y0187928D01*
X0267097Y0187982D01*
X0266989Y0188032D01*
X0266879Y0188078D01*
X0266768Y0188121D01*
X0266655Y0188161D01*
X0266542Y0188196D01*
X0266427Y0188228D01*
X0266311Y0188257D01*
X0266195Y0188281D01*
X0266077Y0188302D01*
X0265959Y0188319D01*
X0265841Y0188333D01*
X0265722Y0188342D01*
X0265603Y0188348D01*
X0265484Y0188350D01*
X0130816Y0188350D01*
X0130694Y0188348D01*
X0130572Y0188342D01*
X0130450Y0188332D01*
X0130328Y0188319D01*
X0130207Y0188301D01*
X0130087Y0188280D01*
X0129967Y0188254D01*
X0129848Y0188225D01*
X0129730Y0188192D01*
X0129614Y0188156D01*
X0129498Y0188115D01*
X0129384Y0188071D01*
X0129271Y0188023D01*
X0129160Y0187972D01*
X0129051Y0187917D01*
X0128943Y0187859D01*
X0128838Y0187797D01*
X0128734Y0187732D01*
X0128633Y0187664D01*
X0128534Y0187592D01*
X0128437Y0187517D01*
X0128342Y0187440D01*
X0128250Y0187359D01*
X0128161Y0187275D01*
X0128075Y0187189D01*
X0127991Y0187100D01*
X0127910Y0187008D01*
X0127833Y0186913D01*
X0127758Y0186816D01*
X0127686Y0186717D01*
X0127618Y0186616D01*
X0127553Y0186512D01*
X0127491Y0186407D01*
X0127433Y0186299D01*
X0127378Y0186190D01*
X0127327Y0186079D01*
X0127279Y0185966D01*
X0127235Y0185852D01*
X0127194Y0185736D01*
X0127158Y0185620D01*
X0127125Y0185502D01*
X0127096Y0185383D01*
X0127070Y0185263D01*
X0127049Y0185143D01*
X0127031Y0185022D01*
X0127018Y0184900D01*
X0127008Y0184778D01*
X0127002Y0184656D01*
X0127000Y0184534D01*
X0127000Y0120066D01*
X0120600Y0089800D02*
X0120600Y0214800D01*
X0275600Y0214800D01*
X0275600Y0089800D01*
X0120600Y0089800D01*
D18*
X0146750Y0144800D02*
X0144250Y0147300D01*
D19*
X0144250Y0144800D02*
X0146750Y0142300D01*
D20*
X0146750Y0139800D02*
X0144250Y0142300D01*
D21*
X0144250Y0139800D02*
X0146750Y0137300D01*
D22*
X0113455Y0093639D03*
M02*
