G75*
%MOIN*%
%OFA0B0*%
%FSLAX25Y25*%
%IPPOS*%
%LPD*%
%AMOC8*
5,1,8,0,0,1.08239X$1,22.5*
%
%ADD10C,0.00600*%
D10*
X0100135Y0052792D02*
X0100135Y0059300D01*
X0102103Y0057800D02*
X0102103Y0052792D01*
X0106040Y0052792D02*
X0106040Y0059300D01*
X0108009Y0057800D02*
X0108009Y0052792D01*
X0117851Y0052792D02*
X0117851Y0059300D01*
X0119820Y0057800D02*
X0119820Y0052792D01*
X0129662Y0052792D02*
X0129662Y0059300D01*
X0131631Y0057800D02*
X0131631Y0052792D01*
X0141473Y0052792D02*
X0141473Y0059300D01*
X0143442Y0057800D02*
X0143442Y0052792D01*
X0159190Y0052792D02*
X0159190Y0059300D01*
X0161158Y0057800D02*
X0161158Y0052792D01*
X0171001Y0052792D02*
X0171001Y0059300D01*
X0172969Y0057800D02*
X0172969Y0052792D01*
X0182812Y0052792D02*
X0182812Y0059300D01*
X0184780Y0057800D02*
X0184780Y0052792D01*
X0188717Y0052792D02*
X0188717Y0059300D01*
X0190686Y0057800D02*
X0190686Y0052792D01*
X0186749Y0076808D02*
X0186749Y0080800D01*
X0186747Y0080842D01*
X0186742Y0080884D01*
X0186733Y0080925D01*
X0186720Y0080965D01*
X0186704Y0081004D01*
X0186684Y0081042D01*
X0186662Y0081077D01*
X0186636Y0081110D01*
X0186608Y0081142D01*
X0186315Y0081848D02*
X0186315Y0082001D01*
X0186315Y0081848D02*
X0186317Y0081788D01*
X0186322Y0081727D01*
X0186331Y0081668D01*
X0186344Y0081609D01*
X0186360Y0081550D01*
X0186380Y0081493D01*
X0186403Y0081438D01*
X0186430Y0081383D01*
X0186459Y0081331D01*
X0186492Y0081280D01*
X0186528Y0081231D01*
X0186566Y0081185D01*
X0186608Y0081141D01*
X0184921Y0081142D02*
X0184893Y0081110D01*
X0184867Y0081077D01*
X0184845Y0081042D01*
X0184825Y0081004D01*
X0184809Y0080965D01*
X0184796Y0080925D01*
X0184787Y0080884D01*
X0184782Y0080842D01*
X0184780Y0080800D01*
X0184780Y0076808D01*
X0185215Y0081848D02*
X0185215Y0082457D01*
X0185215Y0081848D02*
X0185213Y0081788D01*
X0185208Y0081727D01*
X0185199Y0081668D01*
X0185186Y0081609D01*
X0185170Y0081550D01*
X0185150Y0081493D01*
X0185127Y0081438D01*
X0185100Y0081383D01*
X0185071Y0081331D01*
X0185038Y0081280D01*
X0185002Y0081231D01*
X0184964Y0081185D01*
X0184922Y0081141D01*
X0185215Y0082457D02*
X0185217Y0082555D01*
X0185223Y0082653D01*
X0185232Y0082751D01*
X0185246Y0082848D01*
X0185263Y0082945D01*
X0185284Y0083041D01*
X0185309Y0083136D01*
X0185337Y0083230D01*
X0185370Y0083322D01*
X0185405Y0083414D01*
X0185445Y0083504D01*
X0185487Y0083592D01*
X0185534Y0083679D01*
X0185583Y0083763D01*
X0185636Y0083846D01*
X0185692Y0083926D01*
X0185752Y0084005D01*
X0185814Y0084081D01*
X0185879Y0084154D01*
X0185947Y0084225D01*
X0224312Y0122590D01*
X0224768Y0121490D02*
X0187047Y0083769D01*
X0186979Y0083698D01*
X0186914Y0083625D01*
X0186852Y0083549D01*
X0186792Y0083470D01*
X0186736Y0083390D01*
X0186683Y0083307D01*
X0186634Y0083223D01*
X0186587Y0083136D01*
X0186545Y0083048D01*
X0186505Y0082958D01*
X0186470Y0082866D01*
X0186437Y0082774D01*
X0186409Y0082680D01*
X0186384Y0082585D01*
X0186363Y0082489D01*
X0186346Y0082392D01*
X0186332Y0082295D01*
X0186323Y0082197D01*
X0186317Y0082099D01*
X0186315Y0082001D01*
X0186492Y0091750D02*
X0173563Y0091750D01*
X0173108Y0092850D02*
X0186037Y0092850D01*
X0186492Y0091750D02*
X0186590Y0091752D01*
X0186688Y0091758D01*
X0186786Y0091767D01*
X0186883Y0091781D01*
X0186980Y0091798D01*
X0187076Y0091819D01*
X0187171Y0091844D01*
X0187265Y0091872D01*
X0187357Y0091905D01*
X0187449Y0091940D01*
X0187539Y0091980D01*
X0187627Y0092022D01*
X0187714Y0092069D01*
X0187798Y0092118D01*
X0187881Y0092171D01*
X0187961Y0092227D01*
X0188040Y0092287D01*
X0188116Y0092349D01*
X0188189Y0092414D01*
X0188260Y0092482D01*
X0229044Y0133266D01*
X0228588Y0134366D02*
X0187804Y0093582D01*
X0187805Y0093582D02*
X0187734Y0093514D01*
X0187661Y0093449D01*
X0187585Y0093387D01*
X0187506Y0093327D01*
X0187426Y0093271D01*
X0187343Y0093218D01*
X0187259Y0093169D01*
X0187172Y0093122D01*
X0187084Y0093080D01*
X0186994Y0093040D01*
X0186902Y0093005D01*
X0186810Y0092972D01*
X0186716Y0092944D01*
X0186621Y0092919D01*
X0186525Y0092898D01*
X0186428Y0092881D01*
X0186331Y0092867D01*
X0186233Y0092858D01*
X0186135Y0092852D01*
X0186037Y0092850D01*
X0183992Y0096750D02*
X0171063Y0096750D01*
X0170608Y0097850D02*
X0183537Y0097850D01*
X0183992Y0096750D02*
X0184090Y0096752D01*
X0184188Y0096758D01*
X0184286Y0096767D01*
X0184383Y0096781D01*
X0184480Y0096798D01*
X0184576Y0096819D01*
X0184671Y0096844D01*
X0184765Y0096872D01*
X0184857Y0096905D01*
X0184949Y0096940D01*
X0185039Y0096980D01*
X0185127Y0097022D01*
X0185214Y0097069D01*
X0185298Y0097118D01*
X0185381Y0097171D01*
X0185461Y0097227D01*
X0185540Y0097287D01*
X0185616Y0097349D01*
X0185689Y0097414D01*
X0185760Y0097482D01*
X0227449Y0139171D01*
X0226993Y0140271D02*
X0185304Y0098582D01*
X0185305Y0098582D02*
X0185234Y0098514D01*
X0185161Y0098449D01*
X0185085Y0098387D01*
X0185006Y0098327D01*
X0184926Y0098271D01*
X0184843Y0098218D01*
X0184759Y0098169D01*
X0184672Y0098122D01*
X0184584Y0098080D01*
X0184494Y0098040D01*
X0184402Y0098005D01*
X0184310Y0097972D01*
X0184216Y0097944D01*
X0184121Y0097919D01*
X0184025Y0097898D01*
X0183928Y0097881D01*
X0183831Y0097867D01*
X0183733Y0097858D01*
X0183635Y0097852D01*
X0183537Y0097850D01*
X0181492Y0101750D02*
X0168563Y0101750D01*
X0168108Y0102850D02*
X0181037Y0102850D01*
X0181492Y0101750D02*
X0181590Y0101752D01*
X0181688Y0101758D01*
X0181786Y0101767D01*
X0181883Y0101781D01*
X0181980Y0101798D01*
X0182076Y0101819D01*
X0182171Y0101844D01*
X0182265Y0101872D01*
X0182357Y0101905D01*
X0182449Y0101940D01*
X0182539Y0101980D01*
X0182627Y0102022D01*
X0182714Y0102069D01*
X0182798Y0102118D01*
X0182881Y0102171D01*
X0182961Y0102227D01*
X0183040Y0102287D01*
X0183116Y0102349D01*
X0183189Y0102414D01*
X0183260Y0102482D01*
X0225855Y0145077D01*
X0225399Y0146177D02*
X0182804Y0103582D01*
X0182805Y0103582D02*
X0182734Y0103514D01*
X0182661Y0103449D01*
X0182585Y0103387D01*
X0182506Y0103327D01*
X0182426Y0103271D01*
X0182343Y0103218D01*
X0182259Y0103169D01*
X0182172Y0103122D01*
X0182084Y0103080D01*
X0181994Y0103040D01*
X0181902Y0103005D01*
X0181810Y0102972D01*
X0181716Y0102944D01*
X0181621Y0102919D01*
X0181525Y0102898D01*
X0181428Y0102881D01*
X0181331Y0102867D01*
X0181233Y0102858D01*
X0181135Y0102852D01*
X0181037Y0102850D01*
X0170608Y0097850D02*
X0170510Y0097848D01*
X0170412Y0097842D01*
X0170314Y0097833D01*
X0170217Y0097819D01*
X0170120Y0097802D01*
X0170024Y0097781D01*
X0169929Y0097756D01*
X0169835Y0097728D01*
X0169743Y0097695D01*
X0169651Y0097660D01*
X0169561Y0097620D01*
X0169473Y0097578D01*
X0169386Y0097531D01*
X0169302Y0097482D01*
X0169219Y0097429D01*
X0169139Y0097373D01*
X0169060Y0097313D01*
X0168984Y0097251D01*
X0168911Y0097186D01*
X0168840Y0097118D01*
X0162325Y0090603D01*
X0163425Y0090147D02*
X0169296Y0096018D01*
X0169295Y0096018D02*
X0169366Y0096086D01*
X0169439Y0096151D01*
X0169515Y0096213D01*
X0169594Y0096273D01*
X0169674Y0096329D01*
X0169757Y0096382D01*
X0169841Y0096431D01*
X0169928Y0096478D01*
X0170016Y0096520D01*
X0170106Y0096560D01*
X0170198Y0096595D01*
X0170290Y0096628D01*
X0170384Y0096656D01*
X0170479Y0096681D01*
X0170575Y0096702D01*
X0170672Y0096719D01*
X0170769Y0096733D01*
X0170867Y0096742D01*
X0170965Y0096748D01*
X0171063Y0096750D01*
X0168563Y0101750D02*
X0168465Y0101748D01*
X0168367Y0101742D01*
X0168269Y0101733D01*
X0168172Y0101719D01*
X0168075Y0101702D01*
X0167979Y0101681D01*
X0167884Y0101656D01*
X0167790Y0101628D01*
X0167698Y0101595D01*
X0167606Y0101560D01*
X0167516Y0101520D01*
X0167428Y0101478D01*
X0167341Y0101431D01*
X0167257Y0101382D01*
X0167174Y0101329D01*
X0167094Y0101273D01*
X0167015Y0101213D01*
X0166939Y0101151D01*
X0166866Y0101086D01*
X0166795Y0101018D01*
X0166796Y0101018D02*
X0151416Y0085638D01*
X0150514Y0086292D02*
X0166340Y0102118D01*
X0166411Y0102186D01*
X0166484Y0102251D01*
X0166560Y0102313D01*
X0166639Y0102373D01*
X0166719Y0102429D01*
X0166802Y0102482D01*
X0166886Y0102531D01*
X0166973Y0102578D01*
X0167061Y0102620D01*
X0167151Y0102660D01*
X0167243Y0102695D01*
X0167335Y0102728D01*
X0167429Y0102756D01*
X0167524Y0102781D01*
X0167620Y0102802D01*
X0167717Y0102819D01*
X0167814Y0102833D01*
X0167912Y0102842D01*
X0168010Y0102848D01*
X0168108Y0102850D01*
X0165508Y0107231D02*
X0165579Y0107299D01*
X0165652Y0107364D01*
X0165728Y0107426D01*
X0165807Y0107486D01*
X0165887Y0107542D01*
X0165970Y0107595D01*
X0166054Y0107644D01*
X0166141Y0107691D01*
X0166229Y0107733D01*
X0166319Y0107773D01*
X0166411Y0107808D01*
X0166503Y0107841D01*
X0166597Y0107869D01*
X0166692Y0107894D01*
X0166788Y0107915D01*
X0166885Y0107932D01*
X0166982Y0107946D01*
X0167080Y0107955D01*
X0167178Y0107961D01*
X0167276Y0107963D01*
X0167709Y0107963D01*
X0165508Y0107230D02*
X0145708Y0087430D01*
X0144608Y0087886D02*
X0167072Y0110350D01*
X0171340Y0092118D02*
X0168230Y0089008D01*
X0169330Y0088552D02*
X0171796Y0091018D01*
X0171340Y0092118D02*
X0171411Y0092186D01*
X0171484Y0092251D01*
X0171560Y0092313D01*
X0171639Y0092373D01*
X0171719Y0092429D01*
X0171802Y0092482D01*
X0171886Y0092531D01*
X0171973Y0092578D01*
X0172061Y0092620D01*
X0172151Y0092660D01*
X0172243Y0092695D01*
X0172335Y0092728D01*
X0172429Y0092756D01*
X0172524Y0092781D01*
X0172620Y0092802D01*
X0172717Y0092819D01*
X0172814Y0092833D01*
X0172912Y0092842D01*
X0173010Y0092848D01*
X0173108Y0092850D01*
X0173563Y0091750D02*
X0173465Y0091748D01*
X0173367Y0091742D01*
X0173269Y0091733D01*
X0173172Y0091719D01*
X0173075Y0091702D01*
X0172979Y0091681D01*
X0172884Y0091656D01*
X0172790Y0091628D01*
X0172698Y0091595D01*
X0172606Y0091560D01*
X0172516Y0091520D01*
X0172428Y0091478D01*
X0172341Y0091431D01*
X0172257Y0091382D01*
X0172174Y0091329D01*
X0172094Y0091273D01*
X0172015Y0091213D01*
X0171939Y0091151D01*
X0171866Y0091086D01*
X0171795Y0091018D01*
X0168230Y0089008D02*
X0168162Y0088937D01*
X0168097Y0088864D01*
X0168035Y0088788D01*
X0167975Y0088709D01*
X0167919Y0088629D01*
X0167866Y0088546D01*
X0167817Y0088462D01*
X0167770Y0088375D01*
X0167728Y0088287D01*
X0167688Y0088197D01*
X0167653Y0088105D01*
X0167620Y0088013D01*
X0167592Y0087919D01*
X0167567Y0087824D01*
X0167546Y0087728D01*
X0167529Y0087631D01*
X0167515Y0087534D01*
X0167506Y0087436D01*
X0167500Y0087338D01*
X0167498Y0087240D01*
X0167498Y0081848D01*
X0167496Y0081788D01*
X0167491Y0081727D01*
X0167482Y0081668D01*
X0167469Y0081609D01*
X0167453Y0081550D01*
X0167433Y0081493D01*
X0167410Y0081438D01*
X0167383Y0081383D01*
X0167354Y0081331D01*
X0167321Y0081280D01*
X0167285Y0081231D01*
X0167247Y0081185D01*
X0167205Y0081141D01*
X0167064Y0080800D02*
X0167064Y0076808D01*
X0169032Y0076808D02*
X0169032Y0080800D01*
X0169033Y0080800D02*
X0169031Y0080842D01*
X0169026Y0080884D01*
X0169017Y0080925D01*
X0169004Y0080965D01*
X0168988Y0081004D01*
X0168968Y0081042D01*
X0168946Y0081077D01*
X0168920Y0081110D01*
X0168892Y0081142D01*
X0168598Y0081848D02*
X0168598Y0086785D01*
X0168600Y0086883D01*
X0168606Y0086981D01*
X0168615Y0087079D01*
X0168629Y0087176D01*
X0168646Y0087273D01*
X0168667Y0087369D01*
X0168692Y0087464D01*
X0168720Y0087558D01*
X0168753Y0087650D01*
X0168788Y0087742D01*
X0168828Y0087832D01*
X0168870Y0087920D01*
X0168917Y0088007D01*
X0168966Y0088091D01*
X0169019Y0088174D01*
X0169075Y0088254D01*
X0169135Y0088333D01*
X0169197Y0088409D01*
X0169262Y0088482D01*
X0169330Y0088553D01*
X0163425Y0090147D02*
X0163357Y0090076D01*
X0163292Y0090003D01*
X0163230Y0089927D01*
X0163170Y0089848D01*
X0163114Y0089768D01*
X0163061Y0089685D01*
X0163012Y0089601D01*
X0162965Y0089514D01*
X0162923Y0089426D01*
X0162883Y0089336D01*
X0162848Y0089244D01*
X0162815Y0089152D01*
X0162787Y0089058D01*
X0162762Y0088963D01*
X0162741Y0088867D01*
X0162724Y0088770D01*
X0162710Y0088673D01*
X0162701Y0088575D01*
X0162695Y0088477D01*
X0162693Y0088379D01*
X0162693Y0081641D01*
X0162839Y0081287D02*
X0162980Y0081146D01*
X0163127Y0080792D02*
X0163127Y0076808D01*
X0161158Y0076808D02*
X0161158Y0080792D01*
X0161305Y0081146D02*
X0161446Y0081287D01*
X0161593Y0081641D02*
X0161593Y0088835D01*
X0161595Y0088933D01*
X0161601Y0089031D01*
X0161610Y0089129D01*
X0161624Y0089226D01*
X0161641Y0089323D01*
X0161662Y0089419D01*
X0161687Y0089514D01*
X0161715Y0089608D01*
X0161748Y0089700D01*
X0161783Y0089792D01*
X0161823Y0089882D01*
X0161865Y0089970D01*
X0161912Y0090057D01*
X0161961Y0090141D01*
X0162014Y0090224D01*
X0162070Y0090304D01*
X0162130Y0090383D01*
X0162192Y0090459D01*
X0162257Y0090532D01*
X0162325Y0090603D01*
X0162693Y0081641D02*
X0162695Y0081597D01*
X0162701Y0081554D01*
X0162710Y0081512D01*
X0162723Y0081470D01*
X0162740Y0081430D01*
X0162760Y0081391D01*
X0162783Y0081354D01*
X0162810Y0081320D01*
X0162839Y0081287D01*
X0162981Y0081146D02*
X0163010Y0081113D01*
X0163037Y0081079D01*
X0163060Y0081042D01*
X0163080Y0081003D01*
X0163097Y0080963D01*
X0163110Y0080921D01*
X0163119Y0080879D01*
X0163125Y0080836D01*
X0163127Y0080792D01*
X0161304Y0081146D02*
X0161275Y0081113D01*
X0161248Y0081079D01*
X0161225Y0081042D01*
X0161205Y0081003D01*
X0161188Y0080963D01*
X0161175Y0080921D01*
X0161166Y0080879D01*
X0161160Y0080836D01*
X0161158Y0080792D01*
X0161447Y0081287D02*
X0161476Y0081320D01*
X0161503Y0081354D01*
X0161526Y0081391D01*
X0161546Y0081430D01*
X0161563Y0081470D01*
X0161576Y0081512D01*
X0161585Y0081554D01*
X0161591Y0081597D01*
X0161593Y0081641D01*
X0167063Y0080800D02*
X0167065Y0080842D01*
X0167070Y0080884D01*
X0167079Y0080925D01*
X0167092Y0080965D01*
X0167108Y0081004D01*
X0167128Y0081042D01*
X0167150Y0081077D01*
X0167176Y0081110D01*
X0167204Y0081142D01*
X0168598Y0081848D02*
X0168600Y0081788D01*
X0168605Y0081727D01*
X0168614Y0081668D01*
X0168627Y0081609D01*
X0168643Y0081550D01*
X0168663Y0081493D01*
X0168686Y0081438D01*
X0168713Y0081383D01*
X0168742Y0081331D01*
X0168775Y0081280D01*
X0168811Y0081231D01*
X0168849Y0081185D01*
X0168891Y0081141D01*
X0151416Y0085638D02*
X0151358Y0085577D01*
X0151303Y0085513D01*
X0151250Y0085447D01*
X0151201Y0085379D01*
X0151155Y0085308D01*
X0151113Y0085236D01*
X0151073Y0085161D01*
X0151037Y0085085D01*
X0151005Y0085007D01*
X0150977Y0084928D01*
X0150952Y0084847D01*
X0150930Y0084766D01*
X0150913Y0084683D01*
X0150899Y0084600D01*
X0150890Y0084516D01*
X0150884Y0084432D01*
X0150882Y0084348D01*
X0150881Y0084348D02*
X0150881Y0081848D01*
X0150883Y0081788D01*
X0150888Y0081727D01*
X0150897Y0081668D01*
X0150910Y0081609D01*
X0150926Y0081550D01*
X0150946Y0081493D01*
X0150969Y0081438D01*
X0150996Y0081383D01*
X0151025Y0081331D01*
X0151058Y0081280D01*
X0151094Y0081231D01*
X0151132Y0081185D01*
X0151174Y0081141D01*
X0151316Y0080800D02*
X0151316Y0076808D01*
X0149347Y0076808D02*
X0149347Y0080800D01*
X0149349Y0080842D01*
X0149354Y0080884D01*
X0149363Y0080925D01*
X0149376Y0080965D01*
X0149392Y0081004D01*
X0149412Y0081042D01*
X0149434Y0081077D01*
X0149460Y0081110D01*
X0149488Y0081142D01*
X0149781Y0081848D02*
X0149781Y0084524D01*
X0149783Y0084622D01*
X0149789Y0084720D01*
X0149798Y0084818D01*
X0149812Y0084915D01*
X0149829Y0085012D01*
X0149850Y0085108D01*
X0149875Y0085203D01*
X0149903Y0085297D01*
X0149936Y0085389D01*
X0149971Y0085481D01*
X0150011Y0085571D01*
X0150053Y0085659D01*
X0150100Y0085746D01*
X0150149Y0085830D01*
X0150202Y0085913D01*
X0150258Y0085993D01*
X0150318Y0086072D01*
X0150380Y0086148D01*
X0150445Y0086221D01*
X0150513Y0086292D01*
X0145708Y0087431D02*
X0145640Y0087360D01*
X0145575Y0087287D01*
X0145513Y0087211D01*
X0145453Y0087132D01*
X0145397Y0087052D01*
X0145344Y0086969D01*
X0145295Y0086885D01*
X0145248Y0086798D01*
X0145206Y0086710D01*
X0145166Y0086620D01*
X0145131Y0086528D01*
X0145098Y0086436D01*
X0145070Y0086342D01*
X0145045Y0086247D01*
X0145024Y0086151D01*
X0145007Y0086054D01*
X0144993Y0085957D01*
X0144984Y0085859D01*
X0144978Y0085761D01*
X0144976Y0085663D01*
X0144976Y0081848D01*
X0144978Y0081788D01*
X0144983Y0081727D01*
X0144992Y0081668D01*
X0145005Y0081609D01*
X0145021Y0081550D01*
X0145041Y0081493D01*
X0145064Y0081438D01*
X0145091Y0081383D01*
X0145120Y0081331D01*
X0145153Y0081280D01*
X0145189Y0081231D01*
X0145227Y0081185D01*
X0145269Y0081141D01*
X0145410Y0080800D02*
X0145410Y0076808D01*
X0143442Y0076808D02*
X0143442Y0080800D01*
X0143441Y0080800D02*
X0143443Y0080842D01*
X0143448Y0080884D01*
X0143457Y0080925D01*
X0143470Y0080965D01*
X0143486Y0081004D01*
X0143506Y0081042D01*
X0143528Y0081077D01*
X0143554Y0081110D01*
X0143582Y0081142D01*
X0143876Y0081848D02*
X0143876Y0086118D01*
X0143878Y0086216D01*
X0143884Y0086314D01*
X0143893Y0086412D01*
X0143907Y0086509D01*
X0143924Y0086606D01*
X0143945Y0086702D01*
X0143970Y0086797D01*
X0143998Y0086891D01*
X0144031Y0086983D01*
X0144066Y0087075D01*
X0144106Y0087165D01*
X0144148Y0087253D01*
X0144195Y0087340D01*
X0144244Y0087424D01*
X0144297Y0087507D01*
X0144353Y0087587D01*
X0144413Y0087666D01*
X0144475Y0087742D01*
X0144540Y0087815D01*
X0144608Y0087886D01*
X0143876Y0081848D02*
X0143874Y0081788D01*
X0143869Y0081727D01*
X0143860Y0081668D01*
X0143847Y0081609D01*
X0143831Y0081550D01*
X0143811Y0081493D01*
X0143788Y0081438D01*
X0143761Y0081383D01*
X0143732Y0081331D01*
X0143699Y0081280D01*
X0143663Y0081231D01*
X0143625Y0081185D01*
X0143583Y0081141D01*
X0145270Y0081142D02*
X0145298Y0081110D01*
X0145324Y0081077D01*
X0145346Y0081042D01*
X0145366Y0081004D01*
X0145382Y0080965D01*
X0145395Y0080925D01*
X0145404Y0080884D01*
X0145409Y0080842D01*
X0145411Y0080800D01*
X0149488Y0081141D02*
X0149530Y0081185D01*
X0149568Y0081231D01*
X0149604Y0081280D01*
X0149637Y0081331D01*
X0149666Y0081383D01*
X0149693Y0081438D01*
X0149716Y0081493D01*
X0149736Y0081550D01*
X0149752Y0081609D01*
X0149765Y0081668D01*
X0149774Y0081727D01*
X0149779Y0081788D01*
X0149781Y0081848D01*
X0151175Y0081142D02*
X0151203Y0081110D01*
X0151229Y0081077D01*
X0151251Y0081042D01*
X0151271Y0081004D01*
X0151287Y0080965D01*
X0151300Y0080925D01*
X0151309Y0080884D01*
X0151314Y0080842D01*
X0151316Y0080800D01*
X0127552Y0081141D02*
X0127510Y0081185D01*
X0127472Y0081231D01*
X0127436Y0081280D01*
X0127403Y0081331D01*
X0127374Y0081383D01*
X0127347Y0081438D01*
X0127324Y0081493D01*
X0127304Y0081550D01*
X0127288Y0081609D01*
X0127275Y0081668D01*
X0127266Y0081727D01*
X0127261Y0081788D01*
X0127259Y0081848D01*
X0127259Y0094583D01*
X0126159Y0094127D02*
X0126159Y0081848D01*
X0126157Y0081788D01*
X0126152Y0081727D01*
X0126143Y0081668D01*
X0126130Y0081609D01*
X0126114Y0081550D01*
X0126094Y0081493D01*
X0126071Y0081438D01*
X0126044Y0081383D01*
X0126015Y0081331D01*
X0125982Y0081280D01*
X0125946Y0081231D01*
X0125908Y0081185D01*
X0125866Y0081141D01*
X0125725Y0080800D02*
X0125725Y0076808D01*
X0127694Y0076808D02*
X0127694Y0080800D01*
X0127692Y0080842D01*
X0127687Y0080884D01*
X0127678Y0080925D01*
X0127665Y0080965D01*
X0127649Y0081004D01*
X0127629Y0081042D01*
X0127607Y0081077D01*
X0127581Y0081110D01*
X0127553Y0081142D01*
X0125866Y0081142D02*
X0125838Y0081110D01*
X0125812Y0081077D01*
X0125790Y0081042D01*
X0125770Y0081004D01*
X0125754Y0080965D01*
X0125741Y0080925D01*
X0125732Y0080884D01*
X0125727Y0080842D01*
X0125725Y0080800D01*
X0121647Y0081141D02*
X0121605Y0081185D01*
X0121567Y0081231D01*
X0121531Y0081280D01*
X0121498Y0081331D01*
X0121469Y0081383D01*
X0121442Y0081438D01*
X0121419Y0081493D01*
X0121399Y0081550D01*
X0121383Y0081609D01*
X0121370Y0081668D01*
X0121361Y0081727D01*
X0121356Y0081788D01*
X0121354Y0081848D01*
X0121354Y0092988D01*
X0120254Y0092533D02*
X0120254Y0081848D01*
X0120252Y0081788D01*
X0120247Y0081727D01*
X0120238Y0081668D01*
X0120225Y0081609D01*
X0120209Y0081550D01*
X0120189Y0081493D01*
X0120166Y0081438D01*
X0120139Y0081383D01*
X0120110Y0081331D01*
X0120077Y0081280D01*
X0120041Y0081231D01*
X0120003Y0081185D01*
X0119961Y0081141D01*
X0119820Y0080800D02*
X0119820Y0076808D01*
X0121788Y0076808D02*
X0121788Y0080800D01*
X0121789Y0080800D02*
X0121787Y0080842D01*
X0121782Y0080884D01*
X0121773Y0080925D01*
X0121760Y0080965D01*
X0121744Y0081004D01*
X0121724Y0081042D01*
X0121702Y0081077D01*
X0121676Y0081110D01*
X0121648Y0081142D01*
X0119960Y0081142D02*
X0119932Y0081110D01*
X0119906Y0081077D01*
X0119884Y0081042D01*
X0119864Y0081004D01*
X0119848Y0080965D01*
X0119835Y0080925D01*
X0119826Y0080884D01*
X0119821Y0080842D01*
X0119819Y0080800D01*
X0120254Y0092533D02*
X0120252Y0092631D01*
X0120246Y0092729D01*
X0120237Y0092827D01*
X0120223Y0092924D01*
X0120206Y0093021D01*
X0120185Y0093117D01*
X0120160Y0093212D01*
X0120132Y0093306D01*
X0120099Y0093398D01*
X0120064Y0093490D01*
X0120024Y0093580D01*
X0119982Y0093668D01*
X0119935Y0093755D01*
X0119886Y0093839D01*
X0119833Y0093922D01*
X0119777Y0094002D01*
X0119717Y0094081D01*
X0119655Y0094157D01*
X0119590Y0094230D01*
X0119522Y0094301D01*
X0119522Y0094300D02*
X0080486Y0133337D01*
X0080941Y0134437D02*
X0120622Y0094756D01*
X0120690Y0094685D01*
X0120755Y0094612D01*
X0120817Y0094536D01*
X0120877Y0094457D01*
X0120933Y0094377D01*
X0120986Y0094294D01*
X0121035Y0094210D01*
X0121082Y0094123D01*
X0121124Y0094035D01*
X0121164Y0093945D01*
X0121199Y0093853D01*
X0121232Y0093761D01*
X0121260Y0093667D01*
X0121285Y0093572D01*
X0121306Y0093476D01*
X0121323Y0093379D01*
X0121337Y0093282D01*
X0121346Y0093184D01*
X0121352Y0093086D01*
X0121354Y0092988D01*
X0126159Y0094127D02*
X0126157Y0094225D01*
X0126151Y0094323D01*
X0126142Y0094421D01*
X0126128Y0094518D01*
X0126111Y0094615D01*
X0126090Y0094711D01*
X0126065Y0094806D01*
X0126037Y0094900D01*
X0126004Y0094992D01*
X0125969Y0095084D01*
X0125929Y0095174D01*
X0125887Y0095262D01*
X0125840Y0095349D01*
X0125791Y0095433D01*
X0125738Y0095516D01*
X0125682Y0095596D01*
X0125622Y0095675D01*
X0125560Y0095751D01*
X0125495Y0095824D01*
X0125427Y0095895D01*
X0082080Y0139242D01*
X0082536Y0140342D02*
X0126527Y0096351D01*
X0126595Y0096280D01*
X0126660Y0096207D01*
X0126722Y0096131D01*
X0126782Y0096052D01*
X0126838Y0095972D01*
X0126891Y0095889D01*
X0126940Y0095805D01*
X0126987Y0095718D01*
X0127029Y0095630D01*
X0127069Y0095540D01*
X0127104Y0095448D01*
X0127137Y0095356D01*
X0127165Y0095262D01*
X0127190Y0095167D01*
X0127211Y0095071D01*
X0127228Y0094974D01*
X0127242Y0094877D01*
X0127251Y0094779D01*
X0127257Y0094681D01*
X0127259Y0094583D01*
X0105350Y0101492D02*
X0105350Y0085608D01*
X0104250Y0086063D02*
X0104250Y0101037D01*
X0105350Y0101492D02*
X0105348Y0101590D01*
X0105342Y0101688D01*
X0105333Y0101786D01*
X0105319Y0101883D01*
X0105302Y0101980D01*
X0105281Y0102076D01*
X0105256Y0102171D01*
X0105228Y0102265D01*
X0105195Y0102357D01*
X0105160Y0102449D01*
X0105120Y0102539D01*
X0105078Y0102627D01*
X0105031Y0102714D01*
X0104982Y0102798D01*
X0104929Y0102881D01*
X0104873Y0102961D01*
X0104813Y0103040D01*
X0104751Y0103116D01*
X0104686Y0103189D01*
X0104618Y0103260D01*
X0083319Y0124559D01*
X0082863Y0123459D02*
X0103518Y0102804D01*
X0103518Y0102805D02*
X0103586Y0102734D01*
X0103651Y0102661D01*
X0103713Y0102585D01*
X0103773Y0102506D01*
X0103829Y0102426D01*
X0103882Y0102343D01*
X0103931Y0102259D01*
X0103978Y0102172D01*
X0104020Y0102084D01*
X0104060Y0101994D01*
X0104095Y0101902D01*
X0104128Y0101810D01*
X0104156Y0101716D01*
X0104181Y0101621D01*
X0104202Y0101525D01*
X0104219Y0101428D01*
X0104233Y0101331D01*
X0104242Y0101233D01*
X0104248Y0101135D01*
X0104250Y0101037D01*
X0104250Y0086063D02*
X0104248Y0085965D01*
X0104242Y0085867D01*
X0104233Y0085769D01*
X0104219Y0085672D01*
X0104202Y0085575D01*
X0104181Y0085479D01*
X0104156Y0085384D01*
X0104128Y0085290D01*
X0104095Y0085198D01*
X0104060Y0085106D01*
X0104020Y0085016D01*
X0103978Y0084928D01*
X0103931Y0084841D01*
X0103882Y0084757D01*
X0103829Y0084674D01*
X0103773Y0084594D01*
X0103713Y0084515D01*
X0103651Y0084439D01*
X0103586Y0084366D01*
X0103518Y0084295D01*
X0103518Y0084296D02*
X0103270Y0084047D01*
X0104353Y0083575D02*
X0104618Y0083840D01*
X0103269Y0084048D02*
X0103201Y0083977D01*
X0103136Y0083904D01*
X0103074Y0083828D01*
X0103014Y0083749D01*
X0102958Y0083669D01*
X0102905Y0083586D01*
X0102856Y0083502D01*
X0102809Y0083415D01*
X0102767Y0083327D01*
X0102727Y0083237D01*
X0102692Y0083145D01*
X0102659Y0083053D01*
X0102631Y0082959D01*
X0102606Y0082864D01*
X0102585Y0082768D01*
X0102568Y0082671D01*
X0102554Y0082574D01*
X0102545Y0082476D01*
X0102539Y0082378D01*
X0102537Y0082280D01*
X0102537Y0081848D01*
X0102535Y0081788D01*
X0102530Y0081727D01*
X0102521Y0081668D01*
X0102508Y0081609D01*
X0102492Y0081550D01*
X0102472Y0081493D01*
X0102449Y0081438D01*
X0102422Y0081383D01*
X0102393Y0081331D01*
X0102360Y0081280D01*
X0102324Y0081231D01*
X0102286Y0081185D01*
X0102244Y0081141D01*
X0102103Y0080800D02*
X0102103Y0076808D01*
X0104072Y0076808D02*
X0104072Y0080800D01*
X0104070Y0080842D01*
X0104065Y0080884D01*
X0104056Y0080925D01*
X0104043Y0080965D01*
X0104027Y0081004D01*
X0104007Y0081042D01*
X0103985Y0081077D01*
X0103959Y0081110D01*
X0103931Y0081142D01*
X0103930Y0081141D02*
X0103888Y0081185D01*
X0103850Y0081231D01*
X0103814Y0081280D01*
X0103781Y0081331D01*
X0103752Y0081383D01*
X0103725Y0081438D01*
X0103702Y0081493D01*
X0103682Y0081550D01*
X0103666Y0081609D01*
X0103653Y0081668D01*
X0103644Y0081727D01*
X0103639Y0081788D01*
X0103637Y0081848D01*
X0102244Y0081142D02*
X0102216Y0081110D01*
X0102190Y0081077D01*
X0102168Y0081042D01*
X0102148Y0081004D01*
X0102132Y0080965D01*
X0102119Y0080925D01*
X0102110Y0080884D01*
X0102105Y0080842D01*
X0102103Y0080800D01*
X0103637Y0081848D02*
X0103639Y0081944D01*
X0103645Y0082040D01*
X0103654Y0082135D01*
X0103667Y0082230D01*
X0103684Y0082324D01*
X0103704Y0082418D01*
X0103729Y0082511D01*
X0103757Y0082603D01*
X0103788Y0082693D01*
X0103823Y0082783D01*
X0103861Y0082870D01*
X0103903Y0082957D01*
X0103948Y0083041D01*
X0103997Y0083124D01*
X0104049Y0083205D01*
X0104103Y0083283D01*
X0104161Y0083360D01*
X0104222Y0083434D01*
X0104286Y0083506D01*
X0104352Y0083575D01*
X0104618Y0083840D02*
X0104686Y0083911D01*
X0104751Y0083984D01*
X0104813Y0084060D01*
X0104873Y0084139D01*
X0104929Y0084219D01*
X0104982Y0084302D01*
X0105031Y0084386D01*
X0105078Y0084473D01*
X0105120Y0084561D01*
X0105160Y0084651D01*
X0105195Y0084743D01*
X0105228Y0084835D01*
X0105256Y0084929D01*
X0105281Y0085024D01*
X0105302Y0085120D01*
X0105319Y0085217D01*
X0105333Y0085314D01*
X0105342Y0085412D01*
X0105348Y0085510D01*
X0105350Y0085608D01*
X0082864Y0123459D02*
X0082793Y0123527D01*
X0082720Y0123592D01*
X0082644Y0123654D01*
X0082565Y0123714D01*
X0082485Y0123770D01*
X0082402Y0123823D01*
X0082318Y0123872D01*
X0082231Y0123919D01*
X0082143Y0123961D01*
X0082053Y0124001D01*
X0081961Y0124036D01*
X0081869Y0124069D01*
X0081775Y0124097D01*
X0081680Y0124122D01*
X0081584Y0124143D01*
X0081487Y0124160D01*
X0081390Y0124174D01*
X0081292Y0124183D01*
X0081194Y0124189D01*
X0081096Y0124191D01*
X0074823Y0124191D01*
X0074368Y0125291D02*
X0081551Y0125291D01*
X0081649Y0125289D01*
X0081747Y0125283D01*
X0081845Y0125274D01*
X0081942Y0125260D01*
X0082039Y0125243D01*
X0082135Y0125222D01*
X0082230Y0125197D01*
X0082324Y0125169D01*
X0082416Y0125136D01*
X0082508Y0125101D01*
X0082598Y0125061D01*
X0082686Y0125019D01*
X0082773Y0124972D01*
X0082857Y0124923D01*
X0082940Y0124870D01*
X0083020Y0124814D01*
X0083099Y0124754D01*
X0083175Y0124692D01*
X0083248Y0124627D01*
X0083319Y0124559D01*
X0080486Y0133337D02*
X0080415Y0133405D01*
X0080342Y0133470D01*
X0080266Y0133532D01*
X0080187Y0133592D01*
X0080107Y0133648D01*
X0080024Y0133701D01*
X0079940Y0133750D01*
X0079853Y0133797D01*
X0079765Y0133839D01*
X0079675Y0133879D01*
X0079583Y0133914D01*
X0079491Y0133947D01*
X0079397Y0133975D01*
X0079302Y0134000D01*
X0079206Y0134021D01*
X0079109Y0134038D01*
X0079012Y0134052D01*
X0078914Y0134061D01*
X0078816Y0134067D01*
X0078718Y0134069D01*
X0062279Y0134069D01*
X0061925Y0133922D02*
X0061895Y0133892D01*
X0061925Y0133923D02*
X0061958Y0133952D01*
X0061992Y0133979D01*
X0062029Y0134002D01*
X0062068Y0134022D01*
X0062108Y0134039D01*
X0062150Y0134052D01*
X0062192Y0134061D01*
X0062235Y0134067D01*
X0062279Y0134069D01*
X0062279Y0135169D02*
X0079173Y0135169D01*
X0079271Y0135167D01*
X0079369Y0135161D01*
X0079467Y0135152D01*
X0079564Y0135138D01*
X0079661Y0135121D01*
X0079757Y0135100D01*
X0079852Y0135075D01*
X0079946Y0135047D01*
X0080038Y0135014D01*
X0080130Y0134979D01*
X0080220Y0134939D01*
X0080308Y0134897D01*
X0080395Y0134850D01*
X0080479Y0134801D01*
X0080562Y0134748D01*
X0080642Y0134692D01*
X0080721Y0134632D01*
X0080797Y0134570D01*
X0080870Y0134505D01*
X0080941Y0134437D01*
X0082080Y0139242D02*
X0082009Y0139310D01*
X0081936Y0139375D01*
X0081860Y0139437D01*
X0081781Y0139497D01*
X0081701Y0139553D01*
X0081618Y0139606D01*
X0081534Y0139655D01*
X0081447Y0139702D01*
X0081359Y0139744D01*
X0081269Y0139784D01*
X0081177Y0139819D01*
X0081085Y0139852D01*
X0080991Y0139880D01*
X0080896Y0139905D01*
X0080800Y0139926D01*
X0080703Y0139943D01*
X0080606Y0139957D01*
X0080508Y0139966D01*
X0080410Y0139972D01*
X0080312Y0139974D01*
X0062279Y0139974D01*
X0061925Y0139828D02*
X0061895Y0139798D01*
X0061925Y0139828D02*
X0061958Y0139857D01*
X0061992Y0139884D01*
X0062029Y0139907D01*
X0062068Y0139927D01*
X0062108Y0139944D01*
X0062150Y0139957D01*
X0062192Y0139966D01*
X0062235Y0139972D01*
X0062279Y0139974D01*
X0062279Y0141074D02*
X0080768Y0141074D01*
X0080866Y0141072D01*
X0080964Y0141066D01*
X0081062Y0141057D01*
X0081159Y0141043D01*
X0081256Y0141026D01*
X0081352Y0141005D01*
X0081447Y0140980D01*
X0081541Y0140952D01*
X0081633Y0140919D01*
X0081725Y0140884D01*
X0081815Y0140844D01*
X0081903Y0140802D01*
X0081990Y0140755D01*
X0082074Y0140706D01*
X0082157Y0140653D01*
X0082237Y0140597D01*
X0082316Y0140537D01*
X0082392Y0140475D01*
X0082465Y0140410D01*
X0082536Y0140342D01*
X0072390Y0146612D02*
X0099618Y0173840D01*
X0098518Y0174296D02*
X0071934Y0147712D01*
X0072390Y0146612D02*
X0072319Y0146544D01*
X0072246Y0146479D01*
X0072170Y0146417D01*
X0072091Y0146357D01*
X0072011Y0146301D01*
X0071928Y0146248D01*
X0071844Y0146199D01*
X0071757Y0146152D01*
X0071669Y0146110D01*
X0071579Y0146070D01*
X0071487Y0146035D01*
X0071395Y0146002D01*
X0071301Y0145974D01*
X0071206Y0145949D01*
X0071110Y0145928D01*
X0071013Y0145911D01*
X0070916Y0145897D01*
X0070818Y0145888D01*
X0070720Y0145882D01*
X0070622Y0145880D01*
X0062279Y0145880D01*
X0061925Y0145733D02*
X0061895Y0145703D01*
X0061925Y0145734D02*
X0061958Y0145763D01*
X0061992Y0145790D01*
X0062029Y0145813D01*
X0062068Y0145833D01*
X0062108Y0145850D01*
X0062150Y0145863D01*
X0062192Y0145872D01*
X0062235Y0145878D01*
X0062279Y0145880D01*
X0062279Y0146980D02*
X0070167Y0146980D01*
X0070265Y0146982D01*
X0070363Y0146988D01*
X0070461Y0146997D01*
X0070558Y0147011D01*
X0070655Y0147028D01*
X0070751Y0147049D01*
X0070846Y0147074D01*
X0070940Y0147102D01*
X0071032Y0147135D01*
X0071124Y0147170D01*
X0071214Y0147210D01*
X0071302Y0147252D01*
X0071389Y0147299D01*
X0071473Y0147348D01*
X0071556Y0147401D01*
X0071636Y0147457D01*
X0071715Y0147517D01*
X0071791Y0147579D01*
X0071864Y0147644D01*
X0071935Y0147712D01*
X0062279Y0146980D02*
X0062235Y0146982D01*
X0062192Y0146988D01*
X0062150Y0146997D01*
X0062108Y0147010D01*
X0062068Y0147027D01*
X0062029Y0147047D01*
X0061992Y0147070D01*
X0061958Y0147097D01*
X0061925Y0147126D01*
X0061673Y0147379D01*
X0061072Y0147379D01*
X0061895Y0145703D02*
X0061851Y0145661D01*
X0061805Y0145623D01*
X0061756Y0145587D01*
X0061705Y0145554D01*
X0061653Y0145525D01*
X0061598Y0145498D01*
X0061543Y0145475D01*
X0061486Y0145455D01*
X0061427Y0145439D01*
X0061368Y0145426D01*
X0061309Y0145417D01*
X0061248Y0145412D01*
X0061188Y0145410D01*
X0059572Y0145410D01*
X0061072Y0141473D02*
X0061673Y0141473D01*
X0061925Y0141221D01*
X0061925Y0141220D02*
X0061958Y0141191D01*
X0061992Y0141164D01*
X0062029Y0141141D01*
X0062068Y0141121D01*
X0062108Y0141104D01*
X0062150Y0141091D01*
X0062192Y0141082D01*
X0062235Y0141076D01*
X0062279Y0141074D01*
X0061895Y0139798D02*
X0061851Y0139756D01*
X0061805Y0139718D01*
X0061756Y0139682D01*
X0061705Y0139649D01*
X0061653Y0139620D01*
X0061598Y0139593D01*
X0061543Y0139570D01*
X0061486Y0139550D01*
X0061427Y0139534D01*
X0061368Y0139521D01*
X0061309Y0139512D01*
X0061248Y0139507D01*
X0061188Y0139505D01*
X0059572Y0139505D01*
X0061072Y0135568D02*
X0061673Y0135568D01*
X0061925Y0135315D01*
X0061958Y0135286D01*
X0061992Y0135259D01*
X0062029Y0135236D01*
X0062068Y0135216D01*
X0062108Y0135199D01*
X0062150Y0135186D01*
X0062192Y0135177D01*
X0062235Y0135171D01*
X0062279Y0135169D01*
X0061895Y0133892D02*
X0061851Y0133850D01*
X0061805Y0133812D01*
X0061756Y0133776D01*
X0061705Y0133743D01*
X0061653Y0133714D01*
X0061598Y0133687D01*
X0061543Y0133664D01*
X0061486Y0133644D01*
X0061427Y0133628D01*
X0061368Y0133615D01*
X0061309Y0133606D01*
X0061248Y0133601D01*
X0061188Y0133599D01*
X0059572Y0133599D01*
X0061072Y0123757D02*
X0061673Y0123757D01*
X0061925Y0123504D01*
X0062364Y0123322D02*
X0070328Y0123322D01*
X0070784Y0122222D02*
X0062193Y0122222D01*
X0061925Y0122111D02*
X0061748Y0121935D01*
X0061395Y0121788D02*
X0059572Y0121788D01*
X0061395Y0121788D02*
X0061439Y0121790D01*
X0061482Y0121796D01*
X0061524Y0121805D01*
X0061566Y0121818D01*
X0061606Y0121835D01*
X0061645Y0121855D01*
X0061682Y0121878D01*
X0061716Y0121905D01*
X0061749Y0121934D01*
X0061925Y0122111D02*
X0061953Y0122136D01*
X0061982Y0122158D01*
X0062014Y0122177D01*
X0062048Y0122193D01*
X0062083Y0122206D01*
X0062119Y0122215D01*
X0062156Y0122220D01*
X0062193Y0122222D01*
X0062364Y0123322D02*
X0062315Y0123324D01*
X0062267Y0123330D01*
X0062219Y0123339D01*
X0062172Y0123352D01*
X0062126Y0123369D01*
X0062082Y0123390D01*
X0062040Y0123414D01*
X0061999Y0123441D01*
X0061961Y0123471D01*
X0061925Y0123504D01*
X0070328Y0123322D02*
X0070426Y0123324D01*
X0070524Y0123330D01*
X0070622Y0123339D01*
X0070719Y0123353D01*
X0070816Y0123370D01*
X0070912Y0123391D01*
X0071007Y0123416D01*
X0071101Y0123444D01*
X0071193Y0123477D01*
X0071285Y0123512D01*
X0071375Y0123552D01*
X0071463Y0123594D01*
X0071550Y0123641D01*
X0071634Y0123690D01*
X0071717Y0123743D01*
X0071797Y0123799D01*
X0071876Y0123859D01*
X0071952Y0123921D01*
X0072025Y0123986D01*
X0072096Y0124054D01*
X0072096Y0124055D02*
X0072600Y0124559D01*
X0073055Y0123459D02*
X0072551Y0122955D01*
X0072600Y0124559D02*
X0072671Y0124627D01*
X0072744Y0124692D01*
X0072820Y0124754D01*
X0072899Y0124814D01*
X0072979Y0124870D01*
X0073062Y0124923D01*
X0073146Y0124972D01*
X0073233Y0125019D01*
X0073321Y0125061D01*
X0073411Y0125101D01*
X0073503Y0125136D01*
X0073595Y0125169D01*
X0073689Y0125197D01*
X0073784Y0125222D01*
X0073880Y0125243D01*
X0073977Y0125260D01*
X0074074Y0125274D01*
X0074172Y0125283D01*
X0074270Y0125289D01*
X0074368Y0125291D01*
X0072552Y0122954D02*
X0072481Y0122886D01*
X0072408Y0122821D01*
X0072332Y0122759D01*
X0072253Y0122699D01*
X0072173Y0122643D01*
X0072090Y0122590D01*
X0072006Y0122541D01*
X0071919Y0122494D01*
X0071831Y0122452D01*
X0071741Y0122412D01*
X0071649Y0122377D01*
X0071557Y0122344D01*
X0071463Y0122316D01*
X0071368Y0122291D01*
X0071272Y0122270D01*
X0071175Y0122253D01*
X0071078Y0122239D01*
X0070980Y0122230D01*
X0070882Y0122224D01*
X0070784Y0122222D01*
X0073055Y0123459D02*
X0073126Y0123527D01*
X0073199Y0123592D01*
X0073275Y0123654D01*
X0073354Y0123714D01*
X0073434Y0123770D01*
X0073517Y0123823D01*
X0073601Y0123872D01*
X0073688Y0123919D01*
X0073776Y0123961D01*
X0073866Y0124001D01*
X0073958Y0124036D01*
X0074050Y0124069D01*
X0074144Y0124097D01*
X0074239Y0124122D01*
X0074335Y0124143D01*
X0074432Y0124160D01*
X0074529Y0124174D01*
X0074627Y0124183D01*
X0074725Y0124189D01*
X0074823Y0124191D01*
X0059572Y0157221D02*
X0059054Y0157221D01*
X0057286Y0157953D02*
X0053724Y0161516D01*
X0054824Y0161972D02*
X0056873Y0159922D01*
X0058641Y0159190D02*
X0061072Y0159190D01*
X0059248Y0159190D01*
X0059054Y0157221D02*
X0058956Y0157223D01*
X0058858Y0157229D01*
X0058760Y0157238D01*
X0058663Y0157252D01*
X0058566Y0157269D01*
X0058470Y0157290D01*
X0058375Y0157315D01*
X0058281Y0157343D01*
X0058189Y0157376D01*
X0058097Y0157411D01*
X0058007Y0157451D01*
X0057919Y0157493D01*
X0057832Y0157540D01*
X0057748Y0157589D01*
X0057665Y0157642D01*
X0057585Y0157698D01*
X0057506Y0157758D01*
X0057430Y0157820D01*
X0057357Y0157885D01*
X0057286Y0157953D01*
X0058641Y0159190D02*
X0058543Y0159192D01*
X0058445Y0159198D01*
X0058347Y0159207D01*
X0058250Y0159221D01*
X0058153Y0159238D01*
X0058057Y0159259D01*
X0057962Y0159284D01*
X0057868Y0159312D01*
X0057776Y0159345D01*
X0057684Y0159380D01*
X0057594Y0159420D01*
X0057506Y0159462D01*
X0057419Y0159509D01*
X0057335Y0159558D01*
X0057252Y0159611D01*
X0057172Y0159667D01*
X0057093Y0159727D01*
X0057017Y0159789D01*
X0056944Y0159854D01*
X0056873Y0159922D01*
X0053724Y0161516D02*
X0053663Y0161579D01*
X0053606Y0161644D01*
X0053551Y0161712D01*
X0053500Y0161783D01*
X0053451Y0161855D01*
X0053406Y0161930D01*
X0053364Y0162007D01*
X0053325Y0162085D01*
X0053290Y0162165D01*
X0053259Y0162246D01*
X0053231Y0162329D01*
X0053206Y0162412D01*
X0053185Y0162497D01*
X0053168Y0162583D01*
X0053155Y0162669D01*
X0053146Y0162756D01*
X0053140Y0162843D01*
X0053138Y0162930D01*
X0053138Y0216858D01*
X0054238Y0216403D02*
X0054238Y0163386D01*
X0054240Y0163299D01*
X0054246Y0163212D01*
X0054255Y0163125D01*
X0054268Y0163039D01*
X0054285Y0162953D01*
X0054306Y0162868D01*
X0054331Y0162785D01*
X0054359Y0162702D01*
X0054390Y0162621D01*
X0054425Y0162541D01*
X0054464Y0162463D01*
X0054506Y0162386D01*
X0054551Y0162311D01*
X0054600Y0162239D01*
X0054651Y0162168D01*
X0054706Y0162100D01*
X0054763Y0162035D01*
X0054824Y0161972D01*
X0059572Y0163127D02*
X0061188Y0163127D01*
X0061895Y0163420D02*
X0061925Y0163450D01*
X0062279Y0163596D02*
X0080839Y0163596D01*
X0080383Y0164696D02*
X0062279Y0164696D01*
X0061925Y0164843D02*
X0061673Y0165095D01*
X0061072Y0165095D01*
X0061895Y0163420D02*
X0061851Y0163378D01*
X0061805Y0163340D01*
X0061756Y0163304D01*
X0061705Y0163271D01*
X0061653Y0163242D01*
X0061598Y0163215D01*
X0061543Y0163192D01*
X0061486Y0163172D01*
X0061427Y0163156D01*
X0061368Y0163143D01*
X0061309Y0163134D01*
X0061248Y0163129D01*
X0061188Y0163127D01*
X0061925Y0163450D02*
X0061958Y0163479D01*
X0061992Y0163506D01*
X0062029Y0163529D01*
X0062068Y0163549D01*
X0062108Y0163566D01*
X0062150Y0163579D01*
X0062192Y0163588D01*
X0062235Y0163594D01*
X0062279Y0163596D01*
X0062279Y0164696D02*
X0062235Y0164698D01*
X0062192Y0164704D01*
X0062150Y0164713D01*
X0062108Y0164726D01*
X0062068Y0164743D01*
X0062029Y0164763D01*
X0061992Y0164786D01*
X0061958Y0164813D01*
X0061925Y0164842D01*
X0061925Y0169356D02*
X0061958Y0169385D01*
X0061992Y0169412D01*
X0062029Y0169435D01*
X0062068Y0169455D01*
X0062108Y0169472D01*
X0062150Y0169485D01*
X0062192Y0169494D01*
X0062235Y0169500D01*
X0062279Y0169502D01*
X0079244Y0169502D01*
X0078789Y0170602D02*
X0062279Y0170602D01*
X0061925Y0170748D02*
X0061673Y0171001D01*
X0061072Y0171001D01*
X0061895Y0169325D02*
X0061851Y0169283D01*
X0061805Y0169245D01*
X0061756Y0169209D01*
X0061705Y0169176D01*
X0061653Y0169147D01*
X0061598Y0169120D01*
X0061543Y0169097D01*
X0061486Y0169077D01*
X0061427Y0169061D01*
X0061368Y0169048D01*
X0061309Y0169039D01*
X0061248Y0169034D01*
X0061188Y0169032D01*
X0059572Y0169032D01*
X0061895Y0169325D02*
X0061925Y0169356D01*
X0062279Y0170602D02*
X0062235Y0170604D01*
X0062192Y0170610D01*
X0062150Y0170619D01*
X0062108Y0170632D01*
X0062068Y0170649D01*
X0062029Y0170669D01*
X0061992Y0170692D01*
X0061958Y0170719D01*
X0061925Y0170748D01*
X0068359Y0181278D02*
X0068457Y0181276D01*
X0068555Y0181270D01*
X0068653Y0181261D01*
X0068750Y0181247D01*
X0068847Y0181230D01*
X0068943Y0181209D01*
X0069038Y0181184D01*
X0069132Y0181156D01*
X0069224Y0181123D01*
X0069316Y0181088D01*
X0069406Y0181048D01*
X0069494Y0181006D01*
X0069581Y0180959D01*
X0069665Y0180910D01*
X0069748Y0180857D01*
X0069828Y0180801D01*
X0069907Y0180741D01*
X0069983Y0180679D01*
X0070056Y0180614D01*
X0070127Y0180546D01*
X0070127Y0180545D02*
X0070631Y0180041D01*
X0071087Y0181141D02*
X0070583Y0181645D01*
X0070631Y0180041D02*
X0070702Y0179973D01*
X0070775Y0179908D01*
X0070851Y0179846D01*
X0070930Y0179786D01*
X0071010Y0179730D01*
X0071093Y0179677D01*
X0071177Y0179628D01*
X0071264Y0179581D01*
X0071352Y0179539D01*
X0071442Y0179499D01*
X0071534Y0179464D01*
X0071626Y0179431D01*
X0071720Y0179403D01*
X0071815Y0179378D01*
X0071911Y0179357D01*
X0072008Y0179340D01*
X0072105Y0179326D01*
X0072203Y0179317D01*
X0072301Y0179311D01*
X0072399Y0179309D01*
X0081551Y0179309D01*
X0081096Y0180409D02*
X0072855Y0180409D01*
X0072757Y0180411D01*
X0072659Y0180417D01*
X0072561Y0180426D01*
X0072464Y0180440D01*
X0072367Y0180457D01*
X0072271Y0180478D01*
X0072176Y0180503D01*
X0072082Y0180531D01*
X0071990Y0180564D01*
X0071898Y0180599D01*
X0071808Y0180639D01*
X0071720Y0180681D01*
X0071633Y0180728D01*
X0071549Y0180777D01*
X0071466Y0180830D01*
X0071386Y0180886D01*
X0071307Y0180946D01*
X0071231Y0181008D01*
X0071158Y0181073D01*
X0071087Y0181141D01*
X0068815Y0182378D02*
X0062364Y0182378D01*
X0061925Y0182559D02*
X0061673Y0182812D01*
X0061072Y0182812D01*
X0061925Y0182560D02*
X0061961Y0182527D01*
X0061999Y0182497D01*
X0062040Y0182470D01*
X0062082Y0182446D01*
X0062126Y0182425D01*
X0062172Y0182408D01*
X0062219Y0182395D01*
X0062267Y0182386D01*
X0062315Y0182380D01*
X0062364Y0182378D01*
X0062443Y0181278D02*
X0068359Y0181278D01*
X0068815Y0182378D02*
X0068913Y0182376D01*
X0069011Y0182370D01*
X0069109Y0182361D01*
X0069206Y0182347D01*
X0069303Y0182330D01*
X0069399Y0182309D01*
X0069494Y0182284D01*
X0069588Y0182256D01*
X0069680Y0182223D01*
X0069772Y0182188D01*
X0069862Y0182148D01*
X0069950Y0182106D01*
X0070037Y0182059D01*
X0070121Y0182010D01*
X0070204Y0181957D01*
X0070284Y0181901D01*
X0070363Y0181841D01*
X0070439Y0181779D01*
X0070512Y0181714D01*
X0070583Y0181646D01*
X0062443Y0181278D02*
X0062384Y0181276D01*
X0062325Y0181271D01*
X0062266Y0181262D01*
X0062208Y0181249D01*
X0062151Y0181233D01*
X0062094Y0181214D01*
X0062040Y0181191D01*
X0061986Y0181165D01*
X0061934Y0181136D01*
X0061885Y0181104D01*
X0061837Y0181069D01*
X0061791Y0181031D01*
X0061748Y0180990D01*
X0061395Y0180843D02*
X0059572Y0180843D01*
X0061395Y0180843D02*
X0061439Y0180845D01*
X0061482Y0180851D01*
X0061524Y0180860D01*
X0061566Y0180873D01*
X0061606Y0180890D01*
X0061645Y0180910D01*
X0061682Y0180933D01*
X0061716Y0180960D01*
X0061749Y0180989D01*
X0078789Y0170602D02*
X0078887Y0170604D01*
X0078985Y0170610D01*
X0079083Y0170619D01*
X0079180Y0170633D01*
X0079277Y0170650D01*
X0079373Y0170671D01*
X0079468Y0170696D01*
X0079562Y0170724D01*
X0079654Y0170757D01*
X0079746Y0170792D01*
X0079836Y0170832D01*
X0079924Y0170874D01*
X0080011Y0170921D01*
X0080095Y0170970D01*
X0080178Y0171023D01*
X0080258Y0171079D01*
X0080337Y0171139D01*
X0080413Y0171201D01*
X0080486Y0171266D01*
X0080557Y0171334D01*
X0080556Y0171334D02*
X0088518Y0179296D01*
X0089618Y0178840D02*
X0081012Y0170234D01*
X0080941Y0170166D01*
X0080868Y0170101D01*
X0080792Y0170039D01*
X0080713Y0169979D01*
X0080633Y0169923D01*
X0080550Y0169870D01*
X0080466Y0169821D01*
X0080379Y0169774D01*
X0080291Y0169732D01*
X0080201Y0169692D01*
X0080109Y0169657D01*
X0080017Y0169624D01*
X0079923Y0169596D01*
X0079828Y0169571D01*
X0079732Y0169550D01*
X0079635Y0169533D01*
X0079538Y0169519D01*
X0079440Y0169510D01*
X0079342Y0169504D01*
X0079244Y0169502D01*
X0080383Y0164696D02*
X0080481Y0164698D01*
X0080579Y0164704D01*
X0080677Y0164713D01*
X0080774Y0164727D01*
X0080871Y0164744D01*
X0080967Y0164765D01*
X0081062Y0164790D01*
X0081156Y0164818D01*
X0081248Y0164851D01*
X0081340Y0164886D01*
X0081430Y0164926D01*
X0081518Y0164968D01*
X0081605Y0165015D01*
X0081689Y0165064D01*
X0081772Y0165117D01*
X0081852Y0165173D01*
X0081931Y0165233D01*
X0082007Y0165295D01*
X0082080Y0165360D01*
X0082151Y0165428D01*
X0082151Y0165429D02*
X0093518Y0176796D01*
X0094618Y0176340D02*
X0082607Y0164329D01*
X0082607Y0164328D02*
X0082536Y0164260D01*
X0082463Y0164195D01*
X0082387Y0164133D01*
X0082308Y0164073D01*
X0082228Y0164017D01*
X0082145Y0163964D01*
X0082061Y0163915D01*
X0081974Y0163868D01*
X0081886Y0163826D01*
X0081796Y0163786D01*
X0081704Y0163751D01*
X0081612Y0163718D01*
X0081518Y0163690D01*
X0081423Y0163665D01*
X0081327Y0163644D01*
X0081230Y0163627D01*
X0081133Y0163613D01*
X0081035Y0163604D01*
X0080937Y0163598D01*
X0080839Y0163596D01*
X0093518Y0176795D02*
X0093586Y0176866D01*
X0093651Y0176939D01*
X0093713Y0177015D01*
X0093773Y0177094D01*
X0093829Y0177174D01*
X0093882Y0177257D01*
X0093931Y0177341D01*
X0093978Y0177428D01*
X0094020Y0177516D01*
X0094060Y0177606D01*
X0094095Y0177698D01*
X0094128Y0177790D01*
X0094156Y0177884D01*
X0094181Y0177979D01*
X0094202Y0178075D01*
X0094219Y0178172D01*
X0094233Y0178269D01*
X0094242Y0178367D01*
X0094248Y0178465D01*
X0094250Y0178563D01*
X0094250Y0198992D01*
X0095350Y0198537D02*
X0095350Y0178108D01*
X0099250Y0176063D02*
X0099248Y0175965D01*
X0099242Y0175867D01*
X0099233Y0175769D01*
X0099219Y0175672D01*
X0099202Y0175575D01*
X0099181Y0175479D01*
X0099156Y0175384D01*
X0099128Y0175290D01*
X0099095Y0175198D01*
X0099060Y0175106D01*
X0099020Y0175016D01*
X0098978Y0174928D01*
X0098931Y0174841D01*
X0098882Y0174757D01*
X0098829Y0174674D01*
X0098773Y0174594D01*
X0098713Y0174515D01*
X0098651Y0174439D01*
X0098586Y0174366D01*
X0098518Y0174295D01*
X0099618Y0173840D02*
X0099686Y0173911D01*
X0099751Y0173984D01*
X0099813Y0174060D01*
X0099873Y0174139D01*
X0099929Y0174219D01*
X0099982Y0174302D01*
X0100031Y0174386D01*
X0100078Y0174473D01*
X0100120Y0174561D01*
X0100160Y0174651D01*
X0100195Y0174743D01*
X0100228Y0174835D01*
X0100256Y0174929D01*
X0100281Y0175024D01*
X0100302Y0175120D01*
X0100319Y0175217D01*
X0100333Y0175314D01*
X0100342Y0175412D01*
X0100348Y0175510D01*
X0100350Y0175608D01*
X0100350Y0196037D01*
X0099250Y0196492D02*
X0099250Y0176063D01*
X0095350Y0178108D02*
X0095348Y0178010D01*
X0095342Y0177912D01*
X0095333Y0177814D01*
X0095319Y0177717D01*
X0095302Y0177620D01*
X0095281Y0177524D01*
X0095256Y0177429D01*
X0095228Y0177335D01*
X0095195Y0177243D01*
X0095160Y0177151D01*
X0095120Y0177061D01*
X0095078Y0176973D01*
X0095031Y0176886D01*
X0094982Y0176802D01*
X0094929Y0176719D01*
X0094873Y0176639D01*
X0094813Y0176560D01*
X0094751Y0176484D01*
X0094686Y0176411D01*
X0094618Y0176340D01*
X0090350Y0180608D02*
X0090350Y0201037D01*
X0089250Y0201492D02*
X0089250Y0181063D01*
X0090350Y0180608D02*
X0090348Y0180510D01*
X0090342Y0180412D01*
X0090333Y0180314D01*
X0090319Y0180217D01*
X0090302Y0180120D01*
X0090281Y0180024D01*
X0090256Y0179929D01*
X0090228Y0179835D01*
X0090195Y0179743D01*
X0090160Y0179651D01*
X0090120Y0179561D01*
X0090078Y0179473D01*
X0090031Y0179386D01*
X0089982Y0179302D01*
X0089929Y0179219D01*
X0089873Y0179139D01*
X0089813Y0179060D01*
X0089751Y0178984D01*
X0089686Y0178911D01*
X0089618Y0178840D01*
X0088518Y0179295D02*
X0088586Y0179366D01*
X0088651Y0179439D01*
X0088713Y0179515D01*
X0088773Y0179594D01*
X0088829Y0179674D01*
X0088882Y0179757D01*
X0088931Y0179841D01*
X0088978Y0179928D01*
X0089020Y0180016D01*
X0089060Y0180106D01*
X0089095Y0180198D01*
X0089128Y0180290D01*
X0089156Y0180384D01*
X0089181Y0180479D01*
X0089202Y0180575D01*
X0089219Y0180672D01*
X0089233Y0180769D01*
X0089242Y0180867D01*
X0089248Y0180965D01*
X0089250Y0181063D01*
X0085350Y0183108D02*
X0085350Y0203537D01*
X0084250Y0203992D02*
X0084250Y0183563D01*
X0085350Y0183108D02*
X0085348Y0183010D01*
X0085342Y0182912D01*
X0085333Y0182814D01*
X0085319Y0182717D01*
X0085302Y0182620D01*
X0085281Y0182524D01*
X0085256Y0182429D01*
X0085228Y0182335D01*
X0085195Y0182243D01*
X0085160Y0182151D01*
X0085120Y0182061D01*
X0085078Y0181973D01*
X0085031Y0181886D01*
X0084982Y0181802D01*
X0084929Y0181719D01*
X0084873Y0181639D01*
X0084813Y0181560D01*
X0084751Y0181484D01*
X0084686Y0181411D01*
X0084618Y0181340D01*
X0083319Y0180041D01*
X0082863Y0181141D02*
X0083518Y0181796D01*
X0083319Y0180041D02*
X0083248Y0179973D01*
X0083175Y0179908D01*
X0083099Y0179846D01*
X0083020Y0179786D01*
X0082940Y0179730D01*
X0082857Y0179677D01*
X0082773Y0179628D01*
X0082686Y0179581D01*
X0082598Y0179539D01*
X0082508Y0179499D01*
X0082416Y0179464D01*
X0082324Y0179431D01*
X0082230Y0179403D01*
X0082135Y0179378D01*
X0082039Y0179357D01*
X0081942Y0179340D01*
X0081845Y0179326D01*
X0081747Y0179317D01*
X0081649Y0179311D01*
X0081551Y0179309D01*
X0081096Y0180409D02*
X0081194Y0180411D01*
X0081292Y0180417D01*
X0081390Y0180426D01*
X0081487Y0180440D01*
X0081584Y0180457D01*
X0081680Y0180478D01*
X0081775Y0180503D01*
X0081869Y0180531D01*
X0081961Y0180564D01*
X0082053Y0180599D01*
X0082143Y0180639D01*
X0082231Y0180681D01*
X0082318Y0180728D01*
X0082402Y0180777D01*
X0082485Y0180830D01*
X0082565Y0180886D01*
X0082644Y0180946D01*
X0082720Y0181008D01*
X0082793Y0181073D01*
X0082864Y0181141D01*
X0083518Y0181795D02*
X0083586Y0181866D01*
X0083651Y0181939D01*
X0083713Y0182015D01*
X0083773Y0182094D01*
X0083829Y0182174D01*
X0083882Y0182257D01*
X0083931Y0182341D01*
X0083978Y0182428D01*
X0084020Y0182516D01*
X0084060Y0182606D01*
X0084095Y0182698D01*
X0084128Y0182790D01*
X0084156Y0182884D01*
X0084181Y0182979D01*
X0084202Y0183075D01*
X0084219Y0183172D01*
X0084233Y0183269D01*
X0084242Y0183367D01*
X0084248Y0183465D01*
X0084250Y0183563D01*
X0094250Y0198992D02*
X0094252Y0199090D01*
X0094258Y0199188D01*
X0094267Y0199286D01*
X0094281Y0199383D01*
X0094298Y0199480D01*
X0094319Y0199576D01*
X0094344Y0199671D01*
X0094372Y0199765D01*
X0094405Y0199857D01*
X0094440Y0199949D01*
X0094480Y0200039D01*
X0094522Y0200127D01*
X0094569Y0200214D01*
X0094618Y0200298D01*
X0094671Y0200381D01*
X0094727Y0200461D01*
X0094787Y0200540D01*
X0094849Y0200616D01*
X0094914Y0200689D01*
X0094982Y0200760D01*
X0105742Y0211520D01*
X0106842Y0211064D02*
X0096082Y0200304D01*
X0096082Y0200305D02*
X0096014Y0200234D01*
X0095949Y0200161D01*
X0095887Y0200085D01*
X0095827Y0200006D01*
X0095771Y0199926D01*
X0095718Y0199843D01*
X0095669Y0199759D01*
X0095622Y0199672D01*
X0095580Y0199584D01*
X0095540Y0199494D01*
X0095505Y0199402D01*
X0095472Y0199310D01*
X0095444Y0199216D01*
X0095419Y0199121D01*
X0095398Y0199025D01*
X0095381Y0198928D01*
X0095367Y0198831D01*
X0095358Y0198733D01*
X0095352Y0198635D01*
X0095350Y0198537D01*
X0090350Y0201037D02*
X0090352Y0201135D01*
X0090358Y0201233D01*
X0090367Y0201331D01*
X0090381Y0201428D01*
X0090398Y0201525D01*
X0090419Y0201621D01*
X0090444Y0201716D01*
X0090472Y0201810D01*
X0090505Y0201902D01*
X0090540Y0201994D01*
X0090580Y0202084D01*
X0090622Y0202172D01*
X0090669Y0202259D01*
X0090718Y0202343D01*
X0090771Y0202426D01*
X0090827Y0202506D01*
X0090887Y0202585D01*
X0090949Y0202661D01*
X0091014Y0202734D01*
X0091082Y0202805D01*
X0091082Y0202804D02*
X0100937Y0212659D01*
X0099837Y0213114D02*
X0089982Y0203260D01*
X0086082Y0205305D02*
X0086014Y0205234D01*
X0085949Y0205161D01*
X0085887Y0205085D01*
X0085827Y0205006D01*
X0085771Y0204926D01*
X0085718Y0204843D01*
X0085669Y0204759D01*
X0085622Y0204672D01*
X0085580Y0204584D01*
X0085540Y0204494D01*
X0085505Y0204402D01*
X0085472Y0204310D01*
X0085444Y0204216D01*
X0085419Y0204121D01*
X0085398Y0204025D01*
X0085381Y0203928D01*
X0085367Y0203831D01*
X0085358Y0203733D01*
X0085352Y0203635D01*
X0085350Y0203537D01*
X0084250Y0203992D02*
X0084252Y0204090D01*
X0084258Y0204188D01*
X0084267Y0204286D01*
X0084281Y0204383D01*
X0084298Y0204480D01*
X0084319Y0204576D01*
X0084344Y0204671D01*
X0084372Y0204765D01*
X0084405Y0204857D01*
X0084440Y0204949D01*
X0084480Y0205039D01*
X0084522Y0205127D01*
X0084569Y0205214D01*
X0084618Y0205298D01*
X0084671Y0205381D01*
X0084727Y0205461D01*
X0084787Y0205540D01*
X0084849Y0205616D01*
X0084914Y0205689D01*
X0084982Y0205760D01*
X0093931Y0214709D01*
X0095031Y0214253D02*
X0086082Y0205304D01*
X0089982Y0203260D02*
X0089914Y0203189D01*
X0089849Y0203116D01*
X0089787Y0203040D01*
X0089727Y0202961D01*
X0089671Y0202881D01*
X0089618Y0202798D01*
X0089569Y0202714D01*
X0089522Y0202627D01*
X0089480Y0202539D01*
X0089440Y0202449D01*
X0089405Y0202357D01*
X0089372Y0202265D01*
X0089344Y0202171D01*
X0089319Y0202076D01*
X0089298Y0201980D01*
X0089281Y0201883D01*
X0089267Y0201786D01*
X0089258Y0201688D01*
X0089252Y0201590D01*
X0089250Y0201492D01*
X0099982Y0198260D02*
X0111648Y0209926D01*
X0112748Y0209470D02*
X0101082Y0197804D01*
X0099982Y0198260D02*
X0099914Y0198189D01*
X0099849Y0198116D01*
X0099787Y0198040D01*
X0099727Y0197961D01*
X0099671Y0197881D01*
X0099618Y0197798D01*
X0099569Y0197714D01*
X0099522Y0197627D01*
X0099480Y0197539D01*
X0099440Y0197449D01*
X0099405Y0197357D01*
X0099372Y0197265D01*
X0099344Y0197171D01*
X0099319Y0197076D01*
X0099298Y0196980D01*
X0099281Y0196883D01*
X0099267Y0196786D01*
X0099258Y0196688D01*
X0099252Y0196590D01*
X0099250Y0196492D01*
X0100350Y0196037D02*
X0100352Y0196135D01*
X0100358Y0196233D01*
X0100367Y0196331D01*
X0100381Y0196428D01*
X0100398Y0196525D01*
X0100419Y0196621D01*
X0100444Y0196716D01*
X0100472Y0196810D01*
X0100505Y0196902D01*
X0100540Y0196994D01*
X0100580Y0197084D01*
X0100622Y0197172D01*
X0100669Y0197259D01*
X0100718Y0197343D01*
X0100771Y0197426D01*
X0100827Y0197506D01*
X0100887Y0197585D01*
X0100949Y0197661D01*
X0101014Y0197734D01*
X0101082Y0197805D01*
X0106842Y0211064D02*
X0106910Y0211135D01*
X0106975Y0211208D01*
X0107037Y0211284D01*
X0107097Y0211363D01*
X0107153Y0211443D01*
X0107206Y0211526D01*
X0107255Y0211610D01*
X0107302Y0211697D01*
X0107344Y0211785D01*
X0107384Y0211875D01*
X0107419Y0211967D01*
X0107452Y0212059D01*
X0107480Y0212153D01*
X0107505Y0212248D01*
X0107526Y0212344D01*
X0107543Y0212441D01*
X0107557Y0212538D01*
X0107566Y0212636D01*
X0107572Y0212734D01*
X0107574Y0212832D01*
X0107574Y0222752D01*
X0107576Y0222812D01*
X0107581Y0222873D01*
X0107590Y0222932D01*
X0107603Y0222991D01*
X0107619Y0223050D01*
X0107639Y0223107D01*
X0107662Y0223162D01*
X0107689Y0223217D01*
X0107718Y0223269D01*
X0107751Y0223320D01*
X0107787Y0223369D01*
X0107825Y0223415D01*
X0107867Y0223459D01*
X0108009Y0223800D02*
X0108009Y0227792D01*
X0106040Y0227792D02*
X0106040Y0223800D01*
X0106042Y0223758D01*
X0106047Y0223716D01*
X0106056Y0223675D01*
X0106069Y0223635D01*
X0106085Y0223596D01*
X0106105Y0223558D01*
X0106127Y0223523D01*
X0106153Y0223490D01*
X0106181Y0223458D01*
X0106474Y0222752D02*
X0106474Y0213288D01*
X0106472Y0213190D01*
X0106466Y0213092D01*
X0106457Y0212994D01*
X0106443Y0212897D01*
X0106426Y0212800D01*
X0106405Y0212704D01*
X0106380Y0212609D01*
X0106352Y0212515D01*
X0106319Y0212423D01*
X0106284Y0212331D01*
X0106244Y0212241D01*
X0106202Y0212153D01*
X0106155Y0212066D01*
X0106106Y0211982D01*
X0106053Y0211899D01*
X0105997Y0211819D01*
X0105937Y0211740D01*
X0105875Y0211664D01*
X0105810Y0211591D01*
X0105742Y0211520D01*
X0101669Y0214427D02*
X0101669Y0222752D01*
X0101671Y0222812D01*
X0101676Y0222873D01*
X0101685Y0222932D01*
X0101698Y0222991D01*
X0101714Y0223050D01*
X0101734Y0223107D01*
X0101757Y0223162D01*
X0101784Y0223217D01*
X0101813Y0223269D01*
X0101846Y0223320D01*
X0101882Y0223369D01*
X0101920Y0223415D01*
X0101962Y0223459D01*
X0102103Y0223800D02*
X0102103Y0227792D01*
X0100135Y0227792D02*
X0100135Y0223800D01*
X0100134Y0223800D02*
X0100136Y0223758D01*
X0100141Y0223716D01*
X0100150Y0223675D01*
X0100163Y0223635D01*
X0100179Y0223596D01*
X0100199Y0223558D01*
X0100221Y0223523D01*
X0100247Y0223490D01*
X0100275Y0223458D01*
X0100569Y0222752D02*
X0100569Y0214882D01*
X0101669Y0214427D02*
X0101667Y0214329D01*
X0101661Y0214231D01*
X0101652Y0214133D01*
X0101638Y0214036D01*
X0101621Y0213939D01*
X0101600Y0213843D01*
X0101575Y0213748D01*
X0101547Y0213654D01*
X0101514Y0213562D01*
X0101479Y0213470D01*
X0101439Y0213380D01*
X0101397Y0213292D01*
X0101350Y0213205D01*
X0101301Y0213121D01*
X0101248Y0213038D01*
X0101192Y0212958D01*
X0101132Y0212879D01*
X0101070Y0212803D01*
X0101005Y0212730D01*
X0100937Y0212659D01*
X0099837Y0213114D02*
X0099905Y0213185D01*
X0099970Y0213258D01*
X0100032Y0213334D01*
X0100092Y0213413D01*
X0100148Y0213493D01*
X0100201Y0213576D01*
X0100250Y0213660D01*
X0100297Y0213747D01*
X0100339Y0213835D01*
X0100379Y0213925D01*
X0100414Y0214017D01*
X0100447Y0214109D01*
X0100475Y0214203D01*
X0100500Y0214298D01*
X0100521Y0214394D01*
X0100538Y0214491D01*
X0100552Y0214588D01*
X0100561Y0214686D01*
X0100567Y0214784D01*
X0100569Y0214882D01*
X0095763Y0216021D02*
X0095763Y0222752D01*
X0095765Y0222812D01*
X0095770Y0222873D01*
X0095779Y0222932D01*
X0095792Y0222991D01*
X0095808Y0223050D01*
X0095828Y0223107D01*
X0095851Y0223162D01*
X0095878Y0223217D01*
X0095907Y0223269D01*
X0095940Y0223320D01*
X0095976Y0223369D01*
X0096014Y0223415D01*
X0096056Y0223459D01*
X0096198Y0223800D02*
X0096198Y0227792D01*
X0094229Y0227792D02*
X0094229Y0223800D01*
X0094231Y0223758D01*
X0094236Y0223716D01*
X0094245Y0223675D01*
X0094258Y0223635D01*
X0094274Y0223596D01*
X0094294Y0223558D01*
X0094316Y0223523D01*
X0094342Y0223490D01*
X0094370Y0223458D01*
X0094663Y0222752D02*
X0094663Y0216477D01*
X0095763Y0216021D02*
X0095761Y0215923D01*
X0095755Y0215825D01*
X0095746Y0215727D01*
X0095732Y0215630D01*
X0095715Y0215533D01*
X0095694Y0215437D01*
X0095669Y0215342D01*
X0095641Y0215248D01*
X0095608Y0215156D01*
X0095573Y0215064D01*
X0095533Y0214974D01*
X0095491Y0214886D01*
X0095444Y0214799D01*
X0095395Y0214715D01*
X0095342Y0214632D01*
X0095286Y0214552D01*
X0095226Y0214473D01*
X0095164Y0214397D01*
X0095099Y0214324D01*
X0095031Y0214253D01*
X0093931Y0214709D02*
X0093999Y0214780D01*
X0094064Y0214853D01*
X0094126Y0214929D01*
X0094186Y0215008D01*
X0094242Y0215088D01*
X0094295Y0215171D01*
X0094344Y0215255D01*
X0094391Y0215342D01*
X0094433Y0215430D01*
X0094473Y0215520D01*
X0094508Y0215612D01*
X0094541Y0215704D01*
X0094569Y0215798D01*
X0094594Y0215893D01*
X0094615Y0215989D01*
X0094632Y0216086D01*
X0094646Y0216183D01*
X0094655Y0216281D01*
X0094661Y0216379D01*
X0094663Y0216477D01*
X0094663Y0222752D02*
X0094661Y0222812D01*
X0094656Y0222873D01*
X0094647Y0222932D01*
X0094634Y0222991D01*
X0094618Y0223050D01*
X0094598Y0223107D01*
X0094575Y0223162D01*
X0094548Y0223217D01*
X0094519Y0223269D01*
X0094486Y0223320D01*
X0094450Y0223369D01*
X0094412Y0223415D01*
X0094370Y0223459D01*
X0096057Y0223458D02*
X0096085Y0223490D01*
X0096111Y0223523D01*
X0096133Y0223558D01*
X0096153Y0223596D01*
X0096169Y0223635D01*
X0096182Y0223675D01*
X0096191Y0223716D01*
X0096196Y0223758D01*
X0096198Y0223800D01*
X0100276Y0223459D02*
X0100318Y0223415D01*
X0100356Y0223369D01*
X0100392Y0223320D01*
X0100425Y0223269D01*
X0100454Y0223217D01*
X0100481Y0223162D01*
X0100504Y0223107D01*
X0100524Y0223050D01*
X0100540Y0222991D01*
X0100553Y0222932D01*
X0100562Y0222873D01*
X0100567Y0222812D01*
X0100569Y0222752D01*
X0101963Y0223458D02*
X0101991Y0223490D01*
X0102017Y0223523D01*
X0102039Y0223558D01*
X0102059Y0223596D01*
X0102075Y0223635D01*
X0102088Y0223675D01*
X0102097Y0223716D01*
X0102102Y0223758D01*
X0102104Y0223800D01*
X0106181Y0223459D02*
X0106223Y0223415D01*
X0106261Y0223369D01*
X0106297Y0223320D01*
X0106330Y0223269D01*
X0106359Y0223217D01*
X0106386Y0223162D01*
X0106409Y0223107D01*
X0106429Y0223050D01*
X0106445Y0222991D01*
X0106458Y0222932D01*
X0106467Y0222873D01*
X0106472Y0222812D01*
X0106474Y0222752D01*
X0107868Y0223458D02*
X0107896Y0223490D01*
X0107922Y0223523D01*
X0107944Y0223558D01*
X0107964Y0223596D01*
X0107980Y0223635D01*
X0107993Y0223675D01*
X0108002Y0223716D01*
X0108007Y0223758D01*
X0108009Y0223800D01*
X0112087Y0223459D02*
X0112129Y0223415D01*
X0112167Y0223369D01*
X0112203Y0223320D01*
X0112236Y0223269D01*
X0112265Y0223217D01*
X0112292Y0223162D01*
X0112315Y0223107D01*
X0112335Y0223050D01*
X0112351Y0222991D01*
X0112364Y0222932D01*
X0112373Y0222873D01*
X0112378Y0222812D01*
X0112380Y0222752D01*
X0112380Y0211693D01*
X0113480Y0211238D02*
X0113480Y0222752D01*
X0113482Y0222812D01*
X0113487Y0222873D01*
X0113496Y0222932D01*
X0113509Y0222991D01*
X0113525Y0223050D01*
X0113545Y0223107D01*
X0113568Y0223162D01*
X0113595Y0223217D01*
X0113624Y0223269D01*
X0113657Y0223320D01*
X0113693Y0223369D01*
X0113731Y0223415D01*
X0113773Y0223459D01*
X0113914Y0223800D02*
X0113914Y0227792D01*
X0111946Y0227792D02*
X0111946Y0223800D01*
X0111945Y0223800D02*
X0111947Y0223758D01*
X0111952Y0223716D01*
X0111961Y0223675D01*
X0111974Y0223635D01*
X0111990Y0223596D01*
X0112010Y0223558D01*
X0112032Y0223523D01*
X0112058Y0223490D01*
X0112086Y0223458D01*
X0113774Y0223458D02*
X0113802Y0223490D01*
X0113828Y0223523D01*
X0113850Y0223558D01*
X0113870Y0223596D01*
X0113886Y0223635D01*
X0113899Y0223675D01*
X0113908Y0223716D01*
X0113913Y0223758D01*
X0113915Y0223800D01*
X0112380Y0211693D02*
X0112378Y0211595D01*
X0112372Y0211497D01*
X0112363Y0211399D01*
X0112349Y0211302D01*
X0112332Y0211205D01*
X0112311Y0211109D01*
X0112286Y0211014D01*
X0112258Y0210920D01*
X0112225Y0210828D01*
X0112190Y0210736D01*
X0112150Y0210646D01*
X0112108Y0210558D01*
X0112061Y0210471D01*
X0112012Y0210387D01*
X0111959Y0210304D01*
X0111903Y0210224D01*
X0111843Y0210145D01*
X0111781Y0210069D01*
X0111716Y0209996D01*
X0111648Y0209925D01*
X0112748Y0209470D02*
X0112816Y0209541D01*
X0112881Y0209614D01*
X0112943Y0209690D01*
X0113003Y0209769D01*
X0113059Y0209849D01*
X0113112Y0209932D01*
X0113161Y0210016D01*
X0113208Y0210103D01*
X0113250Y0210191D01*
X0113290Y0210281D01*
X0113325Y0210373D01*
X0113358Y0210465D01*
X0113386Y0210559D01*
X0113411Y0210654D01*
X0113432Y0210750D01*
X0113449Y0210847D01*
X0113463Y0210944D01*
X0113472Y0211042D01*
X0113478Y0211140D01*
X0113480Y0211238D01*
X0121788Y0245300D02*
X0121788Y0251808D01*
X0119820Y0251808D02*
X0119820Y0246800D01*
X0125725Y0246800D02*
X0125725Y0251808D01*
X0127694Y0251808D02*
X0127694Y0245300D01*
X0131631Y0246800D02*
X0131631Y0251808D01*
X0133599Y0251808D02*
X0133599Y0245300D01*
X0137536Y0246800D02*
X0137536Y0251808D01*
X0139505Y0251808D02*
X0139505Y0245300D01*
X0143442Y0246800D02*
X0143442Y0251808D01*
X0145410Y0251808D02*
X0145410Y0245300D01*
X0153284Y0227792D02*
X0153284Y0222784D01*
X0155253Y0221284D02*
X0155253Y0227792D01*
X0159190Y0227792D02*
X0159190Y0222784D01*
X0161158Y0221284D02*
X0161158Y0227792D01*
X0165095Y0227792D02*
X0165095Y0223800D01*
X0165097Y0223758D01*
X0165102Y0223716D01*
X0165111Y0223675D01*
X0165124Y0223635D01*
X0165140Y0223596D01*
X0165160Y0223558D01*
X0165182Y0223523D01*
X0165208Y0223490D01*
X0165236Y0223458D01*
X0165530Y0222752D02*
X0165530Y0211828D01*
X0166630Y0212284D02*
X0166630Y0222752D01*
X0166632Y0222812D01*
X0166637Y0222873D01*
X0166646Y0222932D01*
X0166659Y0222991D01*
X0166675Y0223050D01*
X0166695Y0223107D01*
X0166718Y0223162D01*
X0166745Y0223217D01*
X0166774Y0223269D01*
X0166807Y0223320D01*
X0166843Y0223369D01*
X0166881Y0223415D01*
X0166923Y0223459D01*
X0167064Y0223800D02*
X0167064Y0227792D01*
X0167064Y0223800D02*
X0167062Y0223758D01*
X0167057Y0223716D01*
X0167048Y0223675D01*
X0167035Y0223635D01*
X0167019Y0223596D01*
X0166999Y0223558D01*
X0166977Y0223523D01*
X0166951Y0223490D01*
X0166923Y0223458D01*
X0165530Y0222752D02*
X0165528Y0222812D01*
X0165523Y0222873D01*
X0165514Y0222932D01*
X0165501Y0222991D01*
X0165485Y0223050D01*
X0165465Y0223107D01*
X0165442Y0223162D01*
X0165415Y0223217D01*
X0165386Y0223269D01*
X0165353Y0223320D01*
X0165317Y0223369D01*
X0165279Y0223415D01*
X0165237Y0223459D01*
X0171142Y0223459D02*
X0171184Y0223415D01*
X0171222Y0223369D01*
X0171258Y0223320D01*
X0171291Y0223269D01*
X0171320Y0223217D01*
X0171347Y0223162D01*
X0171370Y0223107D01*
X0171390Y0223050D01*
X0171406Y0222991D01*
X0171419Y0222932D01*
X0171428Y0222873D01*
X0171433Y0222812D01*
X0171435Y0222752D01*
X0171435Y0213423D01*
X0172535Y0213878D02*
X0172535Y0222752D01*
X0172537Y0222812D01*
X0172542Y0222873D01*
X0172551Y0222932D01*
X0172564Y0222991D01*
X0172580Y0223050D01*
X0172600Y0223107D01*
X0172623Y0223162D01*
X0172650Y0223217D01*
X0172679Y0223269D01*
X0172712Y0223320D01*
X0172748Y0223369D01*
X0172786Y0223415D01*
X0172828Y0223459D01*
X0172969Y0223800D02*
X0172969Y0227792D01*
X0171001Y0227792D02*
X0171001Y0223800D01*
X0171000Y0223800D02*
X0171002Y0223758D01*
X0171007Y0223716D01*
X0171016Y0223675D01*
X0171029Y0223635D01*
X0171045Y0223596D01*
X0171065Y0223558D01*
X0171087Y0223523D01*
X0171113Y0223490D01*
X0171141Y0223458D01*
X0172829Y0223458D02*
X0172857Y0223490D01*
X0172883Y0223523D01*
X0172905Y0223558D01*
X0172925Y0223596D01*
X0172941Y0223635D01*
X0172954Y0223675D01*
X0172963Y0223716D01*
X0172968Y0223758D01*
X0172970Y0223800D01*
X0177048Y0223459D02*
X0177090Y0223415D01*
X0177128Y0223369D01*
X0177164Y0223320D01*
X0177197Y0223269D01*
X0177226Y0223217D01*
X0177253Y0223162D01*
X0177276Y0223107D01*
X0177296Y0223050D01*
X0177312Y0222991D01*
X0177325Y0222932D01*
X0177334Y0222873D01*
X0177339Y0222812D01*
X0177341Y0222752D01*
X0177341Y0215017D01*
X0178441Y0215473D02*
X0178441Y0222752D01*
X0178443Y0222812D01*
X0178448Y0222873D01*
X0178457Y0222932D01*
X0178470Y0222991D01*
X0178486Y0223050D01*
X0178506Y0223107D01*
X0178529Y0223162D01*
X0178556Y0223217D01*
X0178585Y0223269D01*
X0178618Y0223320D01*
X0178654Y0223369D01*
X0178692Y0223415D01*
X0178734Y0223459D01*
X0178875Y0223800D02*
X0178875Y0227792D01*
X0176906Y0227792D02*
X0176906Y0223800D01*
X0176908Y0223758D01*
X0176913Y0223716D01*
X0176922Y0223675D01*
X0176935Y0223635D01*
X0176951Y0223596D01*
X0176971Y0223558D01*
X0176993Y0223523D01*
X0177019Y0223490D01*
X0177047Y0223458D01*
X0178734Y0223458D02*
X0178762Y0223490D01*
X0178788Y0223523D01*
X0178810Y0223558D01*
X0178830Y0223596D01*
X0178846Y0223635D01*
X0178859Y0223675D01*
X0178868Y0223716D01*
X0178873Y0223758D01*
X0178875Y0223800D01*
X0182953Y0223459D02*
X0182995Y0223415D01*
X0183033Y0223369D01*
X0183069Y0223320D01*
X0183102Y0223269D01*
X0183131Y0223217D01*
X0183158Y0223162D01*
X0183181Y0223107D01*
X0183201Y0223050D01*
X0183217Y0222991D01*
X0183230Y0222932D01*
X0183239Y0222873D01*
X0183244Y0222812D01*
X0183246Y0222752D01*
X0183246Y0216612D01*
X0184346Y0217067D02*
X0184346Y0222752D01*
X0184348Y0222812D01*
X0184353Y0222873D01*
X0184362Y0222932D01*
X0184375Y0222991D01*
X0184391Y0223050D01*
X0184411Y0223107D01*
X0184434Y0223162D01*
X0184461Y0223217D01*
X0184490Y0223269D01*
X0184523Y0223320D01*
X0184559Y0223369D01*
X0184597Y0223415D01*
X0184639Y0223459D01*
X0184780Y0223800D02*
X0184780Y0227792D01*
X0182812Y0227792D02*
X0182812Y0223800D01*
X0182811Y0223800D02*
X0182813Y0223758D01*
X0182818Y0223716D01*
X0182827Y0223675D01*
X0182840Y0223635D01*
X0182856Y0223596D01*
X0182876Y0223558D01*
X0182898Y0223523D01*
X0182924Y0223490D01*
X0182952Y0223458D01*
X0184640Y0223458D02*
X0184668Y0223490D01*
X0184694Y0223523D01*
X0184716Y0223558D01*
X0184736Y0223596D01*
X0184752Y0223635D01*
X0184765Y0223675D01*
X0184774Y0223716D01*
X0184779Y0223758D01*
X0184781Y0223800D01*
X0184346Y0217067D02*
X0184348Y0216969D01*
X0184354Y0216871D01*
X0184363Y0216773D01*
X0184377Y0216676D01*
X0184394Y0216579D01*
X0184415Y0216483D01*
X0184440Y0216388D01*
X0184468Y0216294D01*
X0184501Y0216202D01*
X0184536Y0216110D01*
X0184576Y0216020D01*
X0184618Y0215932D01*
X0184665Y0215845D01*
X0184714Y0215761D01*
X0184767Y0215678D01*
X0184823Y0215598D01*
X0184883Y0215519D01*
X0184945Y0215443D01*
X0185010Y0215370D01*
X0185078Y0215299D01*
X0185078Y0215300D02*
X0219237Y0181141D01*
X0218781Y0180041D02*
X0183978Y0214844D01*
X0183910Y0214915D01*
X0183845Y0214988D01*
X0183783Y0215064D01*
X0183723Y0215143D01*
X0183667Y0215223D01*
X0183614Y0215306D01*
X0183565Y0215390D01*
X0183518Y0215477D01*
X0183476Y0215565D01*
X0183436Y0215655D01*
X0183401Y0215747D01*
X0183368Y0215839D01*
X0183340Y0215933D01*
X0183315Y0216028D01*
X0183294Y0216124D01*
X0183277Y0216221D01*
X0183263Y0216318D01*
X0183254Y0216416D01*
X0183248Y0216514D01*
X0183246Y0216612D01*
X0178441Y0215473D02*
X0178443Y0215375D01*
X0178449Y0215277D01*
X0178458Y0215179D01*
X0178472Y0215082D01*
X0178489Y0214985D01*
X0178510Y0214889D01*
X0178535Y0214794D01*
X0178563Y0214700D01*
X0178596Y0214608D01*
X0178631Y0214516D01*
X0178671Y0214426D01*
X0178713Y0214338D01*
X0178760Y0214251D01*
X0178809Y0214167D01*
X0178862Y0214084D01*
X0178918Y0214004D01*
X0178978Y0213925D01*
X0179040Y0213849D01*
X0179105Y0213776D01*
X0179173Y0213705D01*
X0221614Y0171263D01*
X0221159Y0170163D02*
X0178073Y0213249D01*
X0178005Y0213320D01*
X0177940Y0213393D01*
X0177878Y0213469D01*
X0177818Y0213548D01*
X0177762Y0213628D01*
X0177709Y0213711D01*
X0177660Y0213795D01*
X0177613Y0213882D01*
X0177571Y0213970D01*
X0177531Y0214060D01*
X0177496Y0214152D01*
X0177463Y0214244D01*
X0177435Y0214338D01*
X0177410Y0214433D01*
X0177389Y0214529D01*
X0177372Y0214626D01*
X0177358Y0214723D01*
X0177349Y0214821D01*
X0177343Y0214919D01*
X0177341Y0215017D01*
X0172535Y0213878D02*
X0172537Y0213780D01*
X0172543Y0213682D01*
X0172552Y0213584D01*
X0172566Y0213487D01*
X0172583Y0213390D01*
X0172604Y0213294D01*
X0172629Y0213199D01*
X0172657Y0213105D01*
X0172690Y0213013D01*
X0172725Y0212921D01*
X0172765Y0212831D01*
X0172807Y0212743D01*
X0172854Y0212656D01*
X0172903Y0212572D01*
X0172956Y0212489D01*
X0173012Y0212409D01*
X0173072Y0212330D01*
X0173134Y0212254D01*
X0173199Y0212181D01*
X0173267Y0212110D01*
X0173267Y0212111D02*
X0220020Y0165358D01*
X0219564Y0164258D02*
X0172167Y0211655D01*
X0172099Y0211726D01*
X0172034Y0211799D01*
X0171972Y0211875D01*
X0171912Y0211954D01*
X0171856Y0212034D01*
X0171803Y0212117D01*
X0171754Y0212201D01*
X0171707Y0212288D01*
X0171665Y0212376D01*
X0171625Y0212466D01*
X0171590Y0212558D01*
X0171557Y0212650D01*
X0171529Y0212744D01*
X0171504Y0212839D01*
X0171483Y0212935D01*
X0171466Y0213032D01*
X0171452Y0213129D01*
X0171443Y0213227D01*
X0171437Y0213325D01*
X0171435Y0213423D01*
X0166630Y0212284D02*
X0166632Y0212186D01*
X0166638Y0212088D01*
X0166647Y0211990D01*
X0166661Y0211893D01*
X0166678Y0211796D01*
X0166699Y0211700D01*
X0166724Y0211605D01*
X0166752Y0211511D01*
X0166785Y0211419D01*
X0166820Y0211327D01*
X0166860Y0211237D01*
X0166902Y0211149D01*
X0166949Y0211062D01*
X0166998Y0210978D01*
X0167051Y0210895D01*
X0167107Y0210815D01*
X0167167Y0210736D01*
X0167229Y0210660D01*
X0167294Y0210587D01*
X0167362Y0210516D01*
X0218426Y0159452D01*
X0217970Y0158352D02*
X0166262Y0210060D01*
X0166194Y0210131D01*
X0166129Y0210204D01*
X0166067Y0210280D01*
X0166007Y0210359D01*
X0165951Y0210439D01*
X0165898Y0210522D01*
X0165849Y0210606D01*
X0165802Y0210693D01*
X0165760Y0210781D01*
X0165720Y0210871D01*
X0165685Y0210963D01*
X0165652Y0211055D01*
X0165624Y0211149D01*
X0165599Y0211244D01*
X0165578Y0211340D01*
X0165561Y0211437D01*
X0165547Y0211534D01*
X0165538Y0211632D01*
X0165532Y0211730D01*
X0165530Y0211828D01*
X0180843Y0245300D02*
X0180843Y0251808D01*
X0178875Y0251808D02*
X0178875Y0246800D01*
X0184780Y0246800D02*
X0184780Y0251808D01*
X0186749Y0251808D02*
X0186749Y0245300D01*
X0219236Y0181141D02*
X0219307Y0181073D01*
X0219380Y0181008D01*
X0219456Y0180946D01*
X0219535Y0180886D01*
X0219615Y0180830D01*
X0219698Y0180777D01*
X0219782Y0180728D01*
X0219869Y0180681D01*
X0219957Y0180639D01*
X0220047Y0180599D01*
X0220139Y0180564D01*
X0220231Y0180531D01*
X0220325Y0180503D01*
X0220420Y0180478D01*
X0220516Y0180457D01*
X0220613Y0180440D01*
X0220710Y0180426D01*
X0220808Y0180417D01*
X0220906Y0180411D01*
X0221004Y0180409D01*
X0235682Y0180409D01*
X0236138Y0179309D02*
X0220549Y0179309D01*
X0220451Y0179311D01*
X0220353Y0179317D01*
X0220255Y0179326D01*
X0220158Y0179340D01*
X0220061Y0179357D01*
X0219965Y0179378D01*
X0219870Y0179403D01*
X0219776Y0179431D01*
X0219684Y0179464D01*
X0219592Y0179499D01*
X0219502Y0179539D01*
X0219414Y0179581D01*
X0219327Y0179628D01*
X0219243Y0179677D01*
X0219160Y0179730D01*
X0219080Y0179786D01*
X0219001Y0179846D01*
X0218925Y0179908D01*
X0218852Y0179973D01*
X0218781Y0180041D01*
X0221614Y0171263D02*
X0221685Y0171195D01*
X0221758Y0171130D01*
X0221834Y0171068D01*
X0221913Y0171008D01*
X0221993Y0170952D01*
X0222076Y0170899D01*
X0222160Y0170850D01*
X0222247Y0170803D01*
X0222335Y0170761D01*
X0222425Y0170721D01*
X0222517Y0170686D01*
X0222609Y0170653D01*
X0222703Y0170625D01*
X0222798Y0170600D01*
X0222894Y0170579D01*
X0222991Y0170562D01*
X0223088Y0170548D01*
X0223186Y0170539D01*
X0223284Y0170533D01*
X0223382Y0170531D01*
X0242278Y0170531D01*
X0242325Y0170533D01*
X0242372Y0170538D01*
X0242419Y0170548D01*
X0242465Y0170561D01*
X0242509Y0170577D01*
X0242552Y0170597D01*
X0242594Y0170620D01*
X0242633Y0170646D01*
X0242670Y0170676D01*
X0242705Y0170708D01*
X0243412Y0171001D02*
X0245028Y0171001D01*
X0243412Y0171001D02*
X0243352Y0170999D01*
X0243291Y0170994D01*
X0243232Y0170985D01*
X0243173Y0170972D01*
X0243114Y0170956D01*
X0243057Y0170936D01*
X0243002Y0170913D01*
X0242947Y0170886D01*
X0242895Y0170857D01*
X0242844Y0170824D01*
X0242795Y0170788D01*
X0242749Y0170750D01*
X0242705Y0170708D01*
X0242321Y0169431D02*
X0222927Y0169431D01*
X0222829Y0169433D01*
X0222731Y0169439D01*
X0222633Y0169448D01*
X0222536Y0169462D01*
X0222439Y0169479D01*
X0222343Y0169500D01*
X0222248Y0169525D01*
X0222154Y0169553D01*
X0222062Y0169586D01*
X0221970Y0169621D01*
X0221880Y0169661D01*
X0221792Y0169703D01*
X0221705Y0169750D01*
X0221621Y0169799D01*
X0221538Y0169852D01*
X0221458Y0169908D01*
X0221379Y0169968D01*
X0221303Y0170030D01*
X0221230Y0170095D01*
X0221159Y0170163D01*
X0220020Y0165358D02*
X0220091Y0165290D01*
X0220164Y0165225D01*
X0220240Y0165163D01*
X0220319Y0165103D01*
X0220399Y0165047D01*
X0220482Y0164994D01*
X0220566Y0164945D01*
X0220653Y0164898D01*
X0220741Y0164856D01*
X0220831Y0164816D01*
X0220923Y0164781D01*
X0221015Y0164748D01*
X0221109Y0164720D01*
X0221204Y0164695D01*
X0221300Y0164674D01*
X0221397Y0164657D01*
X0221494Y0164643D01*
X0221592Y0164634D01*
X0221690Y0164628D01*
X0221788Y0164626D01*
X0242278Y0164626D01*
X0242278Y0164625D02*
X0242325Y0164627D01*
X0242372Y0164632D01*
X0242419Y0164642D01*
X0242465Y0164655D01*
X0242509Y0164671D01*
X0242552Y0164691D01*
X0242594Y0164714D01*
X0242633Y0164740D01*
X0242670Y0164770D01*
X0242705Y0164802D01*
X0243412Y0165095D02*
X0245028Y0165095D01*
X0243412Y0165095D02*
X0243352Y0165093D01*
X0243291Y0165088D01*
X0243232Y0165079D01*
X0243173Y0165066D01*
X0243114Y0165050D01*
X0243057Y0165030D01*
X0243002Y0165007D01*
X0242947Y0164980D01*
X0242895Y0164951D01*
X0242844Y0164918D01*
X0242795Y0164882D01*
X0242749Y0164844D01*
X0242705Y0164802D01*
X0242321Y0163526D02*
X0221332Y0163526D01*
X0221234Y0163528D01*
X0221136Y0163534D01*
X0221038Y0163543D01*
X0220941Y0163557D01*
X0220844Y0163574D01*
X0220748Y0163595D01*
X0220653Y0163620D01*
X0220559Y0163648D01*
X0220467Y0163681D01*
X0220375Y0163716D01*
X0220285Y0163756D01*
X0220197Y0163798D01*
X0220110Y0163845D01*
X0220026Y0163894D01*
X0219943Y0163947D01*
X0219863Y0164003D01*
X0219784Y0164063D01*
X0219708Y0164125D01*
X0219635Y0164190D01*
X0219564Y0164258D01*
X0218425Y0159452D02*
X0218496Y0159384D01*
X0218569Y0159319D01*
X0218645Y0159257D01*
X0218724Y0159197D01*
X0218804Y0159141D01*
X0218887Y0159088D01*
X0218971Y0159039D01*
X0219058Y0158992D01*
X0219146Y0158950D01*
X0219236Y0158910D01*
X0219328Y0158875D01*
X0219420Y0158842D01*
X0219514Y0158814D01*
X0219609Y0158789D01*
X0219705Y0158768D01*
X0219802Y0158751D01*
X0219899Y0158737D01*
X0219997Y0158728D01*
X0220095Y0158722D01*
X0220193Y0158720D01*
X0242278Y0158720D01*
X0242325Y0158722D01*
X0242372Y0158727D01*
X0242419Y0158737D01*
X0242465Y0158750D01*
X0242509Y0158766D01*
X0242552Y0158786D01*
X0242594Y0158809D01*
X0242633Y0158835D01*
X0242670Y0158865D01*
X0242705Y0158897D01*
X0243412Y0159190D02*
X0245028Y0159190D01*
X0243412Y0159190D02*
X0243352Y0159188D01*
X0243291Y0159183D01*
X0243232Y0159174D01*
X0243173Y0159161D01*
X0243114Y0159145D01*
X0243057Y0159125D01*
X0243002Y0159102D01*
X0242947Y0159075D01*
X0242895Y0159046D01*
X0242844Y0159013D01*
X0242795Y0158977D01*
X0242749Y0158939D01*
X0242705Y0158897D01*
X0242321Y0157620D02*
X0219738Y0157620D01*
X0219640Y0157622D01*
X0219542Y0157628D01*
X0219444Y0157637D01*
X0219347Y0157651D01*
X0219250Y0157668D01*
X0219154Y0157689D01*
X0219059Y0157714D01*
X0218965Y0157742D01*
X0218873Y0157775D01*
X0218781Y0157810D01*
X0218691Y0157850D01*
X0218603Y0157892D01*
X0218516Y0157939D01*
X0218432Y0157988D01*
X0218349Y0158041D01*
X0218269Y0158097D01*
X0218190Y0158157D01*
X0218114Y0158219D01*
X0218041Y0158284D01*
X0217970Y0158352D01*
X0227167Y0146909D02*
X0242278Y0146909D01*
X0242325Y0146911D01*
X0242372Y0146916D01*
X0242419Y0146926D01*
X0242465Y0146939D01*
X0242509Y0146955D01*
X0242552Y0146975D01*
X0242594Y0146998D01*
X0242633Y0147024D01*
X0242670Y0147054D01*
X0242705Y0147086D01*
X0243412Y0147379D02*
X0245028Y0147379D01*
X0243412Y0147379D02*
X0243352Y0147377D01*
X0243291Y0147372D01*
X0243232Y0147363D01*
X0243173Y0147350D01*
X0243114Y0147334D01*
X0243057Y0147314D01*
X0243002Y0147291D01*
X0242947Y0147264D01*
X0242895Y0147235D01*
X0242844Y0147202D01*
X0242795Y0147166D01*
X0242749Y0147128D01*
X0242705Y0147086D01*
X0242321Y0145809D02*
X0227622Y0145809D01*
X0227167Y0146909D02*
X0227069Y0146907D01*
X0226971Y0146901D01*
X0226873Y0146892D01*
X0226776Y0146878D01*
X0226679Y0146861D01*
X0226583Y0146840D01*
X0226488Y0146815D01*
X0226394Y0146787D01*
X0226302Y0146754D01*
X0226210Y0146719D01*
X0226120Y0146679D01*
X0226032Y0146637D01*
X0225945Y0146590D01*
X0225861Y0146541D01*
X0225778Y0146488D01*
X0225698Y0146432D01*
X0225619Y0146372D01*
X0225543Y0146310D01*
X0225470Y0146245D01*
X0225399Y0146177D01*
X0225854Y0145077D02*
X0225925Y0145145D01*
X0225998Y0145210D01*
X0226074Y0145272D01*
X0226153Y0145332D01*
X0226233Y0145388D01*
X0226316Y0145441D01*
X0226400Y0145490D01*
X0226487Y0145537D01*
X0226575Y0145579D01*
X0226665Y0145619D01*
X0226757Y0145654D01*
X0226849Y0145687D01*
X0226943Y0145715D01*
X0227038Y0145740D01*
X0227134Y0145761D01*
X0227231Y0145778D01*
X0227328Y0145792D01*
X0227426Y0145801D01*
X0227524Y0145807D01*
X0227622Y0145809D01*
X0228761Y0141004D02*
X0242278Y0141004D01*
X0242278Y0141003D02*
X0242325Y0141005D01*
X0242372Y0141010D01*
X0242419Y0141020D01*
X0242465Y0141033D01*
X0242509Y0141049D01*
X0242552Y0141069D01*
X0242594Y0141092D01*
X0242633Y0141118D01*
X0242670Y0141148D01*
X0242705Y0141180D01*
X0243412Y0141473D02*
X0245028Y0141473D01*
X0243412Y0141473D02*
X0243352Y0141471D01*
X0243291Y0141466D01*
X0243232Y0141457D01*
X0243173Y0141444D01*
X0243114Y0141428D01*
X0243057Y0141408D01*
X0243002Y0141385D01*
X0242947Y0141358D01*
X0242895Y0141329D01*
X0242844Y0141296D01*
X0242795Y0141260D01*
X0242749Y0141222D01*
X0242705Y0141180D01*
X0242321Y0139904D02*
X0229217Y0139904D01*
X0228761Y0141004D02*
X0228663Y0141002D01*
X0228565Y0140996D01*
X0228467Y0140987D01*
X0228370Y0140973D01*
X0228273Y0140956D01*
X0228177Y0140935D01*
X0228082Y0140910D01*
X0227988Y0140882D01*
X0227896Y0140849D01*
X0227804Y0140814D01*
X0227714Y0140774D01*
X0227626Y0140732D01*
X0227539Y0140685D01*
X0227455Y0140636D01*
X0227372Y0140583D01*
X0227292Y0140527D01*
X0227213Y0140467D01*
X0227137Y0140405D01*
X0227064Y0140340D01*
X0226993Y0140272D01*
X0227449Y0139172D02*
X0227520Y0139240D01*
X0227593Y0139305D01*
X0227669Y0139367D01*
X0227748Y0139427D01*
X0227828Y0139483D01*
X0227911Y0139536D01*
X0227995Y0139585D01*
X0228082Y0139632D01*
X0228170Y0139674D01*
X0228260Y0139714D01*
X0228352Y0139749D01*
X0228444Y0139782D01*
X0228538Y0139810D01*
X0228633Y0139835D01*
X0228729Y0139856D01*
X0228826Y0139873D01*
X0228923Y0139887D01*
X0229021Y0139896D01*
X0229119Y0139902D01*
X0229217Y0139904D01*
X0230356Y0135098D02*
X0242278Y0135098D01*
X0242325Y0135100D01*
X0242372Y0135105D01*
X0242419Y0135115D01*
X0242465Y0135128D01*
X0242509Y0135144D01*
X0242552Y0135164D01*
X0242594Y0135187D01*
X0242633Y0135213D01*
X0242670Y0135243D01*
X0242705Y0135275D01*
X0243412Y0135568D02*
X0245028Y0135568D01*
X0243412Y0135568D02*
X0243352Y0135566D01*
X0243291Y0135561D01*
X0243232Y0135552D01*
X0243173Y0135539D01*
X0243114Y0135523D01*
X0243057Y0135503D01*
X0243002Y0135480D01*
X0242947Y0135453D01*
X0242895Y0135424D01*
X0242844Y0135391D01*
X0242795Y0135355D01*
X0242749Y0135317D01*
X0242705Y0135275D01*
X0242321Y0133998D02*
X0230811Y0133998D01*
X0230356Y0135098D02*
X0230258Y0135096D01*
X0230160Y0135090D01*
X0230062Y0135081D01*
X0229965Y0135067D01*
X0229868Y0135050D01*
X0229772Y0135029D01*
X0229677Y0135004D01*
X0229583Y0134976D01*
X0229491Y0134943D01*
X0229399Y0134908D01*
X0229309Y0134868D01*
X0229221Y0134826D01*
X0229134Y0134779D01*
X0229050Y0134730D01*
X0228967Y0134677D01*
X0228887Y0134621D01*
X0228808Y0134561D01*
X0228732Y0134499D01*
X0228659Y0134434D01*
X0228588Y0134366D01*
X0229043Y0133266D02*
X0229114Y0133334D01*
X0229187Y0133399D01*
X0229263Y0133461D01*
X0229342Y0133521D01*
X0229422Y0133577D01*
X0229505Y0133630D01*
X0229589Y0133679D01*
X0229676Y0133726D01*
X0229764Y0133768D01*
X0229854Y0133808D01*
X0229946Y0133843D01*
X0230038Y0133876D01*
X0230132Y0133904D01*
X0230227Y0133929D01*
X0230323Y0133950D01*
X0230420Y0133967D01*
X0230517Y0133981D01*
X0230615Y0133990D01*
X0230713Y0133996D01*
X0230811Y0133998D01*
X0226080Y0123322D02*
X0242364Y0123322D01*
X0242406Y0123324D01*
X0242448Y0123329D01*
X0242489Y0123338D01*
X0242529Y0123351D01*
X0242568Y0123367D01*
X0242606Y0123387D01*
X0242641Y0123409D01*
X0242674Y0123435D01*
X0242706Y0123463D01*
X0243412Y0123757D02*
X0245028Y0123757D01*
X0243412Y0123757D02*
X0243352Y0123755D01*
X0243291Y0123750D01*
X0243232Y0123741D01*
X0243173Y0123728D01*
X0243114Y0123712D01*
X0243057Y0123692D01*
X0243002Y0123669D01*
X0242947Y0123642D01*
X0242895Y0123613D01*
X0242844Y0123580D01*
X0242795Y0123544D01*
X0242749Y0123506D01*
X0242705Y0123464D01*
X0242236Y0122222D02*
X0226536Y0122222D01*
X0226080Y0123322D02*
X0225982Y0123320D01*
X0225884Y0123314D01*
X0225786Y0123305D01*
X0225689Y0123291D01*
X0225592Y0123274D01*
X0225496Y0123253D01*
X0225401Y0123228D01*
X0225307Y0123200D01*
X0225215Y0123167D01*
X0225123Y0123132D01*
X0225033Y0123092D01*
X0224945Y0123050D01*
X0224858Y0123003D01*
X0224774Y0122954D01*
X0224691Y0122901D01*
X0224611Y0122845D01*
X0224532Y0122785D01*
X0224456Y0122723D01*
X0224383Y0122658D01*
X0224312Y0122590D01*
X0224768Y0121490D02*
X0224839Y0121558D01*
X0224912Y0121623D01*
X0224988Y0121685D01*
X0225067Y0121745D01*
X0225147Y0121801D01*
X0225230Y0121854D01*
X0225314Y0121903D01*
X0225401Y0121950D01*
X0225489Y0121992D01*
X0225579Y0122032D01*
X0225671Y0122067D01*
X0225763Y0122100D01*
X0225857Y0122128D01*
X0225952Y0122153D01*
X0226048Y0122174D01*
X0226145Y0122191D01*
X0226242Y0122205D01*
X0226340Y0122214D01*
X0226438Y0122220D01*
X0226536Y0122222D01*
X0242236Y0122222D02*
X0242285Y0122220D01*
X0242333Y0122214D01*
X0242381Y0122205D01*
X0242428Y0122192D01*
X0242474Y0122175D01*
X0242518Y0122154D01*
X0242560Y0122130D01*
X0242601Y0122103D01*
X0242639Y0122073D01*
X0242675Y0122040D01*
X0242675Y0122041D02*
X0242927Y0121788D01*
X0243528Y0121788D01*
X0242675Y0133852D02*
X0242642Y0133881D01*
X0242608Y0133908D01*
X0242571Y0133931D01*
X0242532Y0133951D01*
X0242492Y0133968D01*
X0242450Y0133981D01*
X0242408Y0133990D01*
X0242365Y0133996D01*
X0242321Y0133998D01*
X0242675Y0133852D02*
X0242927Y0133599D01*
X0243528Y0133599D01*
X0243528Y0139505D02*
X0242927Y0139505D01*
X0242675Y0139757D01*
X0242675Y0139758D02*
X0242642Y0139787D01*
X0242608Y0139814D01*
X0242571Y0139837D01*
X0242532Y0139857D01*
X0242492Y0139874D01*
X0242450Y0139887D01*
X0242408Y0139896D01*
X0242365Y0139902D01*
X0242321Y0139904D01*
X0242675Y0145663D02*
X0242642Y0145692D01*
X0242608Y0145719D01*
X0242571Y0145742D01*
X0242532Y0145762D01*
X0242492Y0145779D01*
X0242450Y0145792D01*
X0242408Y0145801D01*
X0242365Y0145807D01*
X0242321Y0145809D01*
X0242675Y0145663D02*
X0242927Y0145410D01*
X0243528Y0145410D01*
X0242675Y0157474D02*
X0242642Y0157503D01*
X0242608Y0157530D01*
X0242571Y0157553D01*
X0242532Y0157573D01*
X0242492Y0157590D01*
X0242450Y0157603D01*
X0242408Y0157612D01*
X0242365Y0157618D01*
X0242321Y0157620D01*
X0242675Y0157474D02*
X0242927Y0157221D01*
X0243528Y0157221D01*
X0243528Y0163127D02*
X0242927Y0163127D01*
X0242675Y0163379D01*
X0242675Y0163380D02*
X0242642Y0163409D01*
X0242608Y0163436D01*
X0242571Y0163459D01*
X0242532Y0163479D01*
X0242492Y0163496D01*
X0242450Y0163509D01*
X0242408Y0163518D01*
X0242365Y0163524D01*
X0242321Y0163526D01*
X0242675Y0169285D02*
X0242642Y0169314D01*
X0242608Y0169341D01*
X0242571Y0169364D01*
X0242532Y0169384D01*
X0242492Y0169401D01*
X0242450Y0169414D01*
X0242408Y0169423D01*
X0242365Y0169429D01*
X0242321Y0169431D01*
X0242675Y0169285D02*
X0242927Y0169032D01*
X0243528Y0169032D01*
X0238374Y0180510D02*
X0238445Y0180578D01*
X0238518Y0180643D01*
X0238594Y0180705D01*
X0238673Y0180765D01*
X0238753Y0180821D01*
X0238836Y0180874D01*
X0238920Y0180923D01*
X0239007Y0180970D01*
X0239095Y0181012D01*
X0239185Y0181052D01*
X0239277Y0181087D01*
X0239369Y0181120D01*
X0239463Y0181148D01*
X0239558Y0181173D01*
X0239654Y0181194D01*
X0239751Y0181211D01*
X0239848Y0181225D01*
X0239946Y0181234D01*
X0240044Y0181240D01*
X0240142Y0181242D01*
X0242321Y0181242D01*
X0242675Y0181096D02*
X0242927Y0180843D01*
X0243528Y0180843D01*
X0242705Y0182519D02*
X0242749Y0182561D01*
X0242795Y0182599D01*
X0242844Y0182635D01*
X0242895Y0182668D01*
X0242947Y0182697D01*
X0243002Y0182724D01*
X0243057Y0182747D01*
X0243114Y0182767D01*
X0243173Y0182783D01*
X0243232Y0182796D01*
X0243291Y0182805D01*
X0243352Y0182810D01*
X0243412Y0182812D01*
X0245028Y0182812D01*
X0242705Y0182519D02*
X0242670Y0182487D01*
X0242633Y0182457D01*
X0242594Y0182431D01*
X0242552Y0182408D01*
X0242509Y0182388D01*
X0242465Y0182372D01*
X0242419Y0182359D01*
X0242372Y0182349D01*
X0242325Y0182344D01*
X0242278Y0182342D01*
X0239686Y0182342D01*
X0237919Y0181610D02*
X0237450Y0181141D01*
X0238374Y0180510D02*
X0237906Y0180041D01*
X0237918Y0181610D02*
X0237989Y0181678D01*
X0238062Y0181743D01*
X0238138Y0181805D01*
X0238217Y0181865D01*
X0238297Y0181921D01*
X0238380Y0181974D01*
X0238464Y0182023D01*
X0238551Y0182070D01*
X0238639Y0182112D01*
X0238729Y0182152D01*
X0238821Y0182187D01*
X0238913Y0182220D01*
X0239007Y0182248D01*
X0239102Y0182273D01*
X0239198Y0182294D01*
X0239295Y0182311D01*
X0239392Y0182325D01*
X0239490Y0182334D01*
X0239588Y0182340D01*
X0239686Y0182342D01*
X0242321Y0181242D02*
X0242365Y0181240D01*
X0242408Y0181234D01*
X0242450Y0181225D01*
X0242492Y0181212D01*
X0242532Y0181195D01*
X0242571Y0181175D01*
X0242608Y0181152D01*
X0242642Y0181125D01*
X0242675Y0181096D01*
X0237906Y0180041D02*
X0237835Y0179973D01*
X0237762Y0179908D01*
X0237686Y0179846D01*
X0237607Y0179786D01*
X0237527Y0179730D01*
X0237444Y0179677D01*
X0237360Y0179628D01*
X0237273Y0179581D01*
X0237185Y0179539D01*
X0237095Y0179499D01*
X0237003Y0179464D01*
X0236911Y0179431D01*
X0236817Y0179403D01*
X0236722Y0179378D01*
X0236626Y0179357D01*
X0236529Y0179340D01*
X0236432Y0179326D01*
X0236334Y0179317D01*
X0236236Y0179311D01*
X0236138Y0179309D01*
X0235682Y0180409D02*
X0235780Y0180411D01*
X0235878Y0180417D01*
X0235976Y0180426D01*
X0236073Y0180440D01*
X0236170Y0180457D01*
X0236266Y0180478D01*
X0236361Y0180503D01*
X0236455Y0180531D01*
X0236547Y0180564D01*
X0236639Y0180599D01*
X0236729Y0180639D01*
X0236817Y0180681D01*
X0236904Y0180728D01*
X0236988Y0180777D01*
X0237071Y0180830D01*
X0237151Y0180886D01*
X0237230Y0180946D01*
X0237306Y0181008D01*
X0237379Y0181073D01*
X0237450Y0181141D01*
X0098166Y0245300D02*
X0098166Y0251808D01*
X0096198Y0251808D02*
X0096198Y0246800D01*
X0067300Y0228800D02*
X0066635Y0228800D01*
X0065936Y0230692D02*
X0065986Y0230739D01*
X0066038Y0230783D01*
X0066093Y0230825D01*
X0066150Y0230863D01*
X0066209Y0230898D01*
X0066270Y0230929D01*
X0066332Y0230957D01*
X0066396Y0230981D01*
X0066462Y0231002D01*
X0066528Y0231019D01*
X0066595Y0231033D01*
X0066663Y0231042D01*
X0066731Y0231048D01*
X0066800Y0231050D01*
X0065936Y0230692D02*
X0053870Y0218626D01*
X0054970Y0218171D02*
X0064867Y0228068D01*
X0064938Y0228136D01*
X0065011Y0228201D01*
X0065087Y0228263D01*
X0065166Y0228323D01*
X0065246Y0228379D01*
X0065329Y0228432D01*
X0065413Y0228481D01*
X0065500Y0228528D01*
X0065588Y0228570D01*
X0065678Y0228610D01*
X0065770Y0228645D01*
X0065862Y0228678D01*
X0065956Y0228706D01*
X0066051Y0228731D01*
X0066147Y0228752D01*
X0066244Y0228769D01*
X0066341Y0228783D01*
X0066439Y0228792D01*
X0066537Y0228798D01*
X0066635Y0228800D01*
X0054970Y0218171D02*
X0054902Y0218100D01*
X0054837Y0218027D01*
X0054775Y0217951D01*
X0054715Y0217872D01*
X0054659Y0217792D01*
X0054606Y0217709D01*
X0054557Y0217625D01*
X0054510Y0217538D01*
X0054468Y0217450D01*
X0054428Y0217360D01*
X0054393Y0217268D01*
X0054360Y0217176D01*
X0054332Y0217082D01*
X0054307Y0216987D01*
X0054286Y0216891D01*
X0054269Y0216794D01*
X0054255Y0216697D01*
X0054246Y0216599D01*
X0054240Y0216501D01*
X0054238Y0216403D01*
X0053138Y0216858D02*
X0053140Y0216956D01*
X0053146Y0217054D01*
X0053155Y0217152D01*
X0053169Y0217249D01*
X0053186Y0217346D01*
X0053207Y0217442D01*
X0053232Y0217537D01*
X0053260Y0217631D01*
X0053293Y0217723D01*
X0053328Y0217815D01*
X0053368Y0217905D01*
X0053410Y0217993D01*
X0053457Y0218080D01*
X0053506Y0218164D01*
X0053559Y0218247D01*
X0053615Y0218327D01*
X0053675Y0218406D01*
X0053737Y0218482D01*
X0053802Y0218555D01*
X0053870Y0218626D01*
M02*
