G75*
%MOIN*%
%OFA0B0*%
%FSLAX25Y25*%
%IPPOS*%
%LPD*%
%AMOC8*
5,1,8,0,0,1.08239X$1,22.5*
%
%ADD10C,0.00600*%
D10*
X0202001Y0027433D02*
X0201901Y0027674D01*
X0201867Y0027933D01*
X0201901Y0028192D01*
X0202001Y0028433D01*
X0202160Y0028640D01*
X0202367Y0028799D01*
X0202608Y0028899D01*
X0202867Y0028933D01*
X0216367Y0028933D01*
X0216625Y0028899D01*
X0216867Y0028799D01*
X0217074Y0028640D01*
X0217233Y0028433D01*
X0217333Y0028192D01*
X0217367Y0027933D01*
X0217333Y0027674D01*
X0217233Y0027433D01*
X0217074Y0027226D01*
X0216867Y0027067D01*
X0216625Y0026967D01*
X0216367Y0026933D01*
X0202867Y0026933D01*
X0202608Y0026967D01*
X0202367Y0027067D01*
X0202160Y0027226D01*
X0202001Y0027433D01*
X0202027Y0027398D02*
X0217206Y0027398D01*
X0217358Y0027997D02*
X0201875Y0027997D01*
X0202125Y0028595D02*
X0217108Y0028595D01*
X0223127Y0027933D02*
X0223161Y0027674D01*
X0223260Y0027433D01*
X0223419Y0027226D01*
X0223627Y0027067D01*
X0223868Y0026967D01*
X0224127Y0026933D01*
X0237627Y0026933D01*
X0237885Y0026967D01*
X0238127Y0027067D01*
X0238334Y0027226D01*
X0238493Y0027433D01*
X0238592Y0027674D01*
X0238627Y0027933D01*
X0238592Y0028192D01*
X0238493Y0028433D01*
X0238334Y0028640D01*
X0238127Y0028799D01*
X0237885Y0028899D01*
X0237627Y0028933D01*
X0224127Y0028933D01*
X0223868Y0028899D01*
X0223627Y0028799D01*
X0223419Y0028640D01*
X0223260Y0028433D01*
X0223161Y0028192D01*
X0223127Y0027933D01*
X0223135Y0027997D02*
X0238618Y0027997D01*
X0238466Y0027398D02*
X0223287Y0027398D01*
X0223385Y0028595D02*
X0238368Y0028595D01*
X0241271Y0028192D02*
X0241371Y0028433D01*
X0241530Y0028640D01*
X0241737Y0028799D01*
X0241978Y0028899D01*
X0242237Y0028933D01*
X0247863Y0028933D01*
X0248122Y0028899D01*
X0248363Y0028799D01*
X0248570Y0028640D01*
X0248729Y0028433D01*
X0248829Y0028192D01*
X0248863Y0027933D01*
X0248829Y0027674D01*
X0248729Y0027433D01*
X0248570Y0027226D01*
X0248363Y0027067D01*
X0248122Y0026967D01*
X0247863Y0026933D01*
X0242237Y0026933D01*
X0241978Y0026967D01*
X0241737Y0027067D01*
X0241530Y0027226D01*
X0241371Y0027433D01*
X0241271Y0027674D01*
X0241237Y0027933D01*
X0241271Y0028192D01*
X0241245Y0027997D02*
X0248854Y0027997D01*
X0248702Y0027398D02*
X0241398Y0027398D01*
X0241495Y0028595D02*
X0248604Y0028595D01*
X0247863Y0238933D02*
X0242237Y0238933D01*
X0241978Y0238967D01*
X0241737Y0239067D01*
X0241530Y0239226D01*
X0241371Y0239433D01*
X0241271Y0239674D01*
X0241237Y0239933D01*
X0241271Y0240192D01*
X0241371Y0240433D01*
X0241530Y0240640D01*
X0241737Y0240799D01*
X0241978Y0240899D01*
X0242237Y0240933D01*
X0247863Y0240933D01*
X0248122Y0240899D01*
X0248363Y0240799D01*
X0248570Y0240640D01*
X0248729Y0240433D01*
X0248829Y0240192D01*
X0248863Y0239933D01*
X0248829Y0239674D01*
X0248729Y0239433D01*
X0248570Y0239226D01*
X0248363Y0239067D01*
X0248122Y0238967D01*
X0247863Y0238933D01*
X0248604Y0239271D02*
X0241495Y0239271D01*
X0241245Y0239870D02*
X0248854Y0239870D01*
X0248702Y0240468D02*
X0241398Y0240468D01*
X0238592Y0240192D02*
X0238493Y0240433D01*
X0238334Y0240640D01*
X0238127Y0240799D01*
X0237885Y0240899D01*
X0237627Y0240933D01*
X0224127Y0240933D01*
X0223868Y0240899D01*
X0223627Y0240799D01*
X0223419Y0240640D01*
X0223260Y0240433D01*
X0223161Y0240192D01*
X0223127Y0239933D01*
X0223161Y0239674D01*
X0223260Y0239433D01*
X0223419Y0239226D01*
X0223627Y0239067D01*
X0223868Y0238967D01*
X0224127Y0238933D01*
X0237627Y0238933D01*
X0237885Y0238967D01*
X0238127Y0239067D01*
X0238334Y0239226D01*
X0238493Y0239433D01*
X0238592Y0239674D01*
X0238627Y0239933D01*
X0238592Y0240192D01*
X0238466Y0240468D02*
X0223287Y0240468D01*
X0223135Y0239870D02*
X0238618Y0239870D01*
X0238368Y0239271D02*
X0223385Y0239271D01*
X0217367Y0239933D02*
X0217333Y0240192D01*
X0217233Y0240433D01*
X0217074Y0240640D01*
X0216867Y0240799D01*
X0216625Y0240899D01*
X0216367Y0240933D01*
X0202867Y0240933D01*
X0202608Y0240899D01*
X0202367Y0240799D01*
X0202160Y0240640D01*
X0202001Y0240433D01*
X0201901Y0240192D01*
X0201867Y0239933D01*
X0201901Y0239674D01*
X0202001Y0239433D01*
X0202160Y0239226D01*
X0202367Y0239067D01*
X0202608Y0238967D01*
X0202867Y0238933D01*
X0216367Y0238933D01*
X0216625Y0238967D01*
X0216867Y0239067D01*
X0217074Y0239226D01*
X0217233Y0239433D01*
X0217333Y0239674D01*
X0217367Y0239933D01*
X0217358Y0239870D02*
X0201875Y0239870D01*
X0202027Y0240468D02*
X0217206Y0240468D01*
X0217108Y0239271D02*
X0202125Y0239271D01*
M02*
