G75*
%MOIN*%
%OFA0B0*%
%FSLAX25Y25*%
%IPPOS*%
%LPD*%
%AMOC8*
5,1,8,0,0,1.08239X$1,22.5*
%
%ADD10C,0.00600*%
D10*
X0098600Y0091814D02*
X0098598Y0091912D01*
X0098592Y0092010D01*
X0098583Y0092108D01*
X0098569Y0092205D01*
X0098552Y0092302D01*
X0098531Y0092398D01*
X0098506Y0092493D01*
X0098478Y0092587D01*
X0098445Y0092679D01*
X0098410Y0092771D01*
X0098370Y0092861D01*
X0098328Y0092949D01*
X0098281Y0093036D01*
X0098232Y0093120D01*
X0098179Y0093203D01*
X0098123Y0093283D01*
X0098063Y0093362D01*
X0098001Y0093438D01*
X0097936Y0093511D01*
X0097868Y0093582D01*
X0096650Y0094800D01*
X0098600Y0091814D02*
X0098600Y0071108D01*
X0099700Y0071563D02*
X0099700Y0091814D01*
X0100433Y0093582D02*
X0101650Y0094800D01*
X0103600Y0096814D02*
X0103598Y0096912D01*
X0103592Y0097010D01*
X0103583Y0097108D01*
X0103569Y0097205D01*
X0103552Y0097302D01*
X0103531Y0097398D01*
X0103506Y0097493D01*
X0103478Y0097587D01*
X0103445Y0097679D01*
X0103410Y0097771D01*
X0103370Y0097861D01*
X0103328Y0097949D01*
X0103281Y0098036D01*
X0103232Y0098120D01*
X0103179Y0098203D01*
X0103123Y0098283D01*
X0103063Y0098362D01*
X0103001Y0098438D01*
X0102936Y0098511D01*
X0102868Y0098582D01*
X0101650Y0099800D01*
X0103600Y0096814D02*
X0103600Y0073608D01*
X0104700Y0074063D02*
X0104700Y0096814D01*
X0105433Y0098582D02*
X0106650Y0099800D01*
X0105432Y0098582D02*
X0105364Y0098511D01*
X0105299Y0098438D01*
X0105237Y0098362D01*
X0105177Y0098283D01*
X0105121Y0098203D01*
X0105068Y0098120D01*
X0105019Y0098036D01*
X0104972Y0097949D01*
X0104930Y0097861D01*
X0104890Y0097771D01*
X0104855Y0097679D01*
X0104822Y0097587D01*
X0104794Y0097493D01*
X0104769Y0097398D01*
X0104748Y0097302D01*
X0104731Y0097205D01*
X0104717Y0097108D01*
X0104708Y0097010D01*
X0104702Y0096912D01*
X0104700Y0096814D01*
X0106650Y0094800D02*
X0107868Y0093582D01*
X0108600Y0091814D02*
X0108600Y0076108D01*
X0109700Y0076563D02*
X0109700Y0091814D01*
X0110433Y0093582D02*
X0111650Y0094800D01*
X0113600Y0096814D02*
X0113598Y0096912D01*
X0113592Y0097010D01*
X0113583Y0097108D01*
X0113569Y0097205D01*
X0113552Y0097302D01*
X0113531Y0097398D01*
X0113506Y0097493D01*
X0113478Y0097587D01*
X0113445Y0097679D01*
X0113410Y0097771D01*
X0113370Y0097861D01*
X0113328Y0097949D01*
X0113281Y0098036D01*
X0113232Y0098120D01*
X0113179Y0098203D01*
X0113123Y0098283D01*
X0113063Y0098362D01*
X0113001Y0098438D01*
X0112936Y0098511D01*
X0112868Y0098582D01*
X0111650Y0099800D01*
X0113600Y0096814D02*
X0113600Y0078608D01*
X0114700Y0079063D02*
X0114700Y0096814D01*
X0115433Y0098582D02*
X0116650Y0099800D01*
X0115432Y0098582D02*
X0115364Y0098511D01*
X0115299Y0098438D01*
X0115237Y0098362D01*
X0115177Y0098283D01*
X0115121Y0098203D01*
X0115068Y0098120D01*
X0115019Y0098036D01*
X0114972Y0097949D01*
X0114930Y0097861D01*
X0114890Y0097771D01*
X0114855Y0097679D01*
X0114822Y0097587D01*
X0114794Y0097493D01*
X0114769Y0097398D01*
X0114748Y0097302D01*
X0114731Y0097205D01*
X0114717Y0097108D01*
X0114708Y0097010D01*
X0114702Y0096912D01*
X0114700Y0096814D01*
X0110432Y0093582D02*
X0110364Y0093511D01*
X0110299Y0093438D01*
X0110237Y0093362D01*
X0110177Y0093283D01*
X0110121Y0093203D01*
X0110068Y0093120D01*
X0110019Y0093036D01*
X0109972Y0092949D01*
X0109930Y0092861D01*
X0109890Y0092771D01*
X0109855Y0092679D01*
X0109822Y0092587D01*
X0109794Y0092493D01*
X0109769Y0092398D01*
X0109748Y0092302D01*
X0109731Y0092205D01*
X0109717Y0092108D01*
X0109708Y0092010D01*
X0109702Y0091912D01*
X0109700Y0091814D01*
X0108600Y0091814D02*
X0108598Y0091912D01*
X0108592Y0092010D01*
X0108583Y0092108D01*
X0108569Y0092205D01*
X0108552Y0092302D01*
X0108531Y0092398D01*
X0108506Y0092493D01*
X0108478Y0092587D01*
X0108445Y0092679D01*
X0108410Y0092771D01*
X0108370Y0092861D01*
X0108328Y0092949D01*
X0108281Y0093036D01*
X0108232Y0093120D01*
X0108179Y0093203D01*
X0108123Y0093283D01*
X0108063Y0093362D01*
X0108001Y0093438D01*
X0107936Y0093511D01*
X0107868Y0093582D01*
X0100432Y0093582D02*
X0100364Y0093511D01*
X0100299Y0093438D01*
X0100237Y0093362D01*
X0100177Y0093283D01*
X0100121Y0093203D01*
X0100068Y0093120D01*
X0100019Y0093036D01*
X0099972Y0092949D01*
X0099930Y0092861D01*
X0099890Y0092771D01*
X0099855Y0092679D01*
X0099822Y0092587D01*
X0099794Y0092493D01*
X0099769Y0092398D01*
X0099748Y0092302D01*
X0099731Y0092205D01*
X0099717Y0092108D01*
X0099708Y0092010D01*
X0099702Y0091912D01*
X0099700Y0091814D01*
X0109700Y0076563D02*
X0109702Y0076465D01*
X0109708Y0076367D01*
X0109717Y0076269D01*
X0109731Y0076172D01*
X0109748Y0076075D01*
X0109769Y0075979D01*
X0109794Y0075884D01*
X0109822Y0075790D01*
X0109855Y0075698D01*
X0109890Y0075606D01*
X0109930Y0075516D01*
X0109972Y0075428D01*
X0110019Y0075341D01*
X0110068Y0075257D01*
X0110121Y0075174D01*
X0110177Y0075094D01*
X0110237Y0075015D01*
X0110299Y0074939D01*
X0110364Y0074866D01*
X0110432Y0074795D01*
X0110433Y0074796D02*
X0112968Y0072260D01*
X0111868Y0071804D02*
X0109333Y0074340D01*
X0105432Y0072295D02*
X0105364Y0072366D01*
X0105299Y0072439D01*
X0105237Y0072515D01*
X0105177Y0072594D01*
X0105121Y0072674D01*
X0105068Y0072757D01*
X0105019Y0072841D01*
X0104972Y0072928D01*
X0104930Y0073016D01*
X0104890Y0073106D01*
X0104855Y0073198D01*
X0104822Y0073290D01*
X0104794Y0073384D01*
X0104769Y0073479D01*
X0104748Y0073575D01*
X0104731Y0073672D01*
X0104717Y0073769D01*
X0104708Y0073867D01*
X0104702Y0073965D01*
X0104700Y0074063D01*
X0103600Y0073608D02*
X0103602Y0073510D01*
X0103608Y0073412D01*
X0103617Y0073314D01*
X0103631Y0073217D01*
X0103648Y0073120D01*
X0103669Y0073024D01*
X0103694Y0072929D01*
X0103722Y0072835D01*
X0103755Y0072743D01*
X0103790Y0072651D01*
X0103830Y0072561D01*
X0103872Y0072473D01*
X0103919Y0072386D01*
X0103968Y0072302D01*
X0104021Y0072219D01*
X0104077Y0072139D01*
X0104137Y0072060D01*
X0104199Y0071984D01*
X0104264Y0071911D01*
X0104332Y0071840D01*
X0104333Y0071840D02*
X0105868Y0070304D01*
X0106968Y0070760D02*
X0105433Y0072296D01*
X0106968Y0070760D02*
X0107036Y0070689D01*
X0107101Y0070616D01*
X0107163Y0070540D01*
X0107223Y0070461D01*
X0107279Y0070381D01*
X0107332Y0070298D01*
X0107381Y0070214D01*
X0107428Y0070127D01*
X0107470Y0070039D01*
X0107510Y0069949D01*
X0107545Y0069857D01*
X0107578Y0069765D01*
X0107606Y0069671D01*
X0107631Y0069576D01*
X0107652Y0069480D01*
X0107669Y0069383D01*
X0107683Y0069286D01*
X0107692Y0069188D01*
X0107698Y0069090D01*
X0107700Y0068992D01*
X0107700Y0065507D01*
X0107847Y0065154D02*
X0107862Y0065138D01*
X0108009Y0064785D02*
X0108009Y0062800D01*
X0108009Y0064785D02*
X0108007Y0064829D01*
X0108001Y0064872D01*
X0107992Y0064914D01*
X0107979Y0064956D01*
X0107962Y0064996D01*
X0107942Y0065035D01*
X0107919Y0065072D01*
X0107892Y0065106D01*
X0107863Y0065139D01*
X0107846Y0065153D02*
X0107817Y0065186D01*
X0107790Y0065220D01*
X0107767Y0065257D01*
X0107747Y0065296D01*
X0107730Y0065336D01*
X0107717Y0065378D01*
X0107708Y0065420D01*
X0107702Y0065463D01*
X0107700Y0065507D01*
X0106600Y0065507D02*
X0106600Y0068537D01*
X0106598Y0068635D01*
X0106592Y0068733D01*
X0106583Y0068831D01*
X0106569Y0068928D01*
X0106552Y0069025D01*
X0106531Y0069121D01*
X0106506Y0069216D01*
X0106478Y0069310D01*
X0106445Y0069402D01*
X0106410Y0069494D01*
X0106370Y0069584D01*
X0106328Y0069672D01*
X0106281Y0069759D01*
X0106232Y0069843D01*
X0106179Y0069926D01*
X0106123Y0070006D01*
X0106063Y0070085D01*
X0106001Y0070161D01*
X0105936Y0070234D01*
X0105868Y0070305D01*
X0100432Y0069795D02*
X0100364Y0069866D01*
X0100299Y0069939D01*
X0100237Y0070015D01*
X0100177Y0070094D01*
X0100121Y0070174D01*
X0100068Y0070257D01*
X0100019Y0070341D01*
X0099972Y0070428D01*
X0099930Y0070516D01*
X0099890Y0070606D01*
X0099855Y0070698D01*
X0099822Y0070790D01*
X0099794Y0070884D01*
X0099769Y0070979D01*
X0099748Y0071075D01*
X0099731Y0071172D01*
X0099717Y0071269D01*
X0099708Y0071367D01*
X0099702Y0071465D01*
X0099700Y0071563D01*
X0098600Y0071108D02*
X0098602Y0071010D01*
X0098608Y0070912D01*
X0098617Y0070814D01*
X0098631Y0070717D01*
X0098648Y0070620D01*
X0098669Y0070524D01*
X0098694Y0070429D01*
X0098722Y0070335D01*
X0098755Y0070243D01*
X0098790Y0070151D01*
X0098830Y0070061D01*
X0098872Y0069973D01*
X0098919Y0069886D01*
X0098968Y0069802D01*
X0099021Y0069719D01*
X0099077Y0069639D01*
X0099137Y0069560D01*
X0099199Y0069484D01*
X0099264Y0069411D01*
X0099332Y0069340D01*
X0099333Y0069340D02*
X0099868Y0068804D01*
X0100433Y0069796D02*
X0100968Y0069260D01*
X0101700Y0067492D02*
X0101700Y0065507D01*
X0101847Y0065154D02*
X0101957Y0065044D01*
X0102103Y0064690D02*
X0102103Y0062800D01*
X0102103Y0064690D02*
X0102101Y0064734D01*
X0102095Y0064777D01*
X0102086Y0064819D01*
X0102073Y0064861D01*
X0102056Y0064901D01*
X0102036Y0064940D01*
X0102013Y0064977D01*
X0101986Y0065011D01*
X0101957Y0065044D01*
X0101846Y0065153D02*
X0101817Y0065186D01*
X0101790Y0065220D01*
X0101767Y0065257D01*
X0101747Y0065296D01*
X0101730Y0065336D01*
X0101717Y0065378D01*
X0101708Y0065420D01*
X0101702Y0065463D01*
X0101700Y0065507D01*
X0100600Y0065507D02*
X0100600Y0067037D01*
X0101700Y0067492D02*
X0101698Y0067590D01*
X0101692Y0067688D01*
X0101683Y0067786D01*
X0101669Y0067883D01*
X0101652Y0067980D01*
X0101631Y0068076D01*
X0101606Y0068171D01*
X0101578Y0068265D01*
X0101545Y0068357D01*
X0101510Y0068449D01*
X0101470Y0068539D01*
X0101428Y0068627D01*
X0101381Y0068714D01*
X0101332Y0068798D01*
X0101279Y0068881D01*
X0101223Y0068961D01*
X0101163Y0069040D01*
X0101101Y0069116D01*
X0101036Y0069189D01*
X0100968Y0069260D01*
X0099868Y0068805D02*
X0099936Y0068734D01*
X0100001Y0068661D01*
X0100063Y0068585D01*
X0100123Y0068506D01*
X0100179Y0068426D01*
X0100232Y0068343D01*
X0100281Y0068259D01*
X0100328Y0068172D01*
X0100370Y0068084D01*
X0100410Y0067994D01*
X0100445Y0067902D01*
X0100478Y0067810D01*
X0100506Y0067716D01*
X0100531Y0067621D01*
X0100552Y0067525D01*
X0100569Y0067428D01*
X0100583Y0067331D01*
X0100592Y0067233D01*
X0100598Y0067135D01*
X0100600Y0067037D01*
X0100600Y0065507D02*
X0100598Y0065463D01*
X0100592Y0065420D01*
X0100583Y0065378D01*
X0100570Y0065336D01*
X0100553Y0065296D01*
X0100533Y0065257D01*
X0100510Y0065220D01*
X0100483Y0065186D01*
X0100454Y0065153D01*
X0100454Y0065154D02*
X0100281Y0064981D01*
X0100135Y0064627D02*
X0100135Y0064300D01*
X0100135Y0064627D02*
X0100137Y0064671D01*
X0100143Y0064714D01*
X0100152Y0064756D01*
X0100165Y0064798D01*
X0100182Y0064838D01*
X0100202Y0064877D01*
X0100225Y0064914D01*
X0100252Y0064948D01*
X0100281Y0064981D01*
X0106040Y0064533D02*
X0106040Y0064300D01*
X0106040Y0064533D02*
X0106042Y0064577D01*
X0106048Y0064620D01*
X0106057Y0064662D01*
X0106070Y0064704D01*
X0106087Y0064744D01*
X0106107Y0064783D01*
X0106130Y0064820D01*
X0106157Y0064854D01*
X0106186Y0064887D01*
X0106187Y0064886D02*
X0106454Y0065154D01*
X0106454Y0065153D02*
X0106483Y0065186D01*
X0106510Y0065220D01*
X0106533Y0065257D01*
X0106553Y0065296D01*
X0106570Y0065336D01*
X0106583Y0065378D01*
X0106592Y0065420D01*
X0106598Y0065463D01*
X0106600Y0065507D01*
X0111946Y0064438D02*
X0111946Y0064300D01*
X0112092Y0064792D02*
X0112454Y0065154D01*
X0112600Y0065507D02*
X0112600Y0070037D01*
X0113700Y0070492D02*
X0113700Y0065507D01*
X0113702Y0065463D01*
X0113708Y0065420D01*
X0113717Y0065378D01*
X0113730Y0065336D01*
X0113747Y0065296D01*
X0113767Y0065257D01*
X0113790Y0065220D01*
X0113817Y0065186D01*
X0113846Y0065153D01*
X0113914Y0064991D02*
X0113914Y0062800D01*
X0111946Y0064438D02*
X0111948Y0064482D01*
X0111954Y0064525D01*
X0111963Y0064567D01*
X0111976Y0064609D01*
X0111993Y0064649D01*
X0112013Y0064688D01*
X0112036Y0064725D01*
X0112063Y0064759D01*
X0112092Y0064792D01*
X0112454Y0065153D02*
X0112483Y0065186D01*
X0112510Y0065220D01*
X0112533Y0065257D01*
X0112553Y0065296D01*
X0112570Y0065336D01*
X0112583Y0065378D01*
X0112592Y0065420D01*
X0112598Y0065463D01*
X0112600Y0065507D01*
X0113847Y0065154D02*
X0113864Y0065134D01*
X0113879Y0065113D01*
X0113891Y0065091D01*
X0113901Y0065067D01*
X0113908Y0065042D01*
X0113913Y0065017D01*
X0113914Y0064991D01*
X0117998Y0065697D02*
X0118021Y0065722D01*
X0118042Y0065750D01*
X0118060Y0065780D01*
X0118074Y0065811D01*
X0118086Y0065843D01*
X0118094Y0065877D01*
X0118099Y0065911D01*
X0118101Y0065945D01*
X0118100Y0065945D02*
X0118100Y0072037D01*
X0119200Y0072492D02*
X0119200Y0066214D01*
X0119493Y0065507D02*
X0119527Y0065474D01*
X0119820Y0064766D02*
X0119820Y0062800D01*
X0119820Y0064766D02*
X0119818Y0064826D01*
X0119813Y0064887D01*
X0119804Y0064946D01*
X0119791Y0065005D01*
X0119775Y0065064D01*
X0119755Y0065121D01*
X0119732Y0065176D01*
X0119705Y0065231D01*
X0119676Y0065283D01*
X0119643Y0065334D01*
X0119607Y0065383D01*
X0119569Y0065429D01*
X0119527Y0065473D01*
X0119493Y0065507D02*
X0119451Y0065551D01*
X0119413Y0065597D01*
X0119377Y0065646D01*
X0119344Y0065697D01*
X0119315Y0065749D01*
X0119288Y0065804D01*
X0119265Y0065859D01*
X0119245Y0065916D01*
X0119229Y0065975D01*
X0119216Y0066034D01*
X0119207Y0066093D01*
X0119202Y0066154D01*
X0119200Y0066214D01*
X0117997Y0065698D02*
X0117968Y0065665D01*
X0117941Y0065631D01*
X0117918Y0065594D01*
X0117898Y0065555D01*
X0117881Y0065515D01*
X0117868Y0065473D01*
X0117859Y0065431D01*
X0117853Y0065388D01*
X0117851Y0065344D01*
X0117851Y0064300D01*
X0123954Y0065153D02*
X0123983Y0065186D01*
X0124010Y0065220D01*
X0124033Y0065257D01*
X0124053Y0065296D01*
X0124070Y0065336D01*
X0124083Y0065378D01*
X0124092Y0065420D01*
X0124098Y0065463D01*
X0124100Y0065507D01*
X0124100Y0067779D01*
X0125200Y0068114D02*
X0125198Y0068174D01*
X0125193Y0068235D01*
X0125184Y0068294D01*
X0125171Y0068353D01*
X0125155Y0068412D01*
X0125135Y0068469D01*
X0125112Y0068524D01*
X0125085Y0068579D01*
X0125056Y0068631D01*
X0125023Y0068682D01*
X0124987Y0068731D01*
X0124949Y0068777D01*
X0124907Y0068821D01*
X0123893Y0068279D02*
X0123851Y0068323D01*
X0123813Y0068369D01*
X0123777Y0068418D01*
X0123744Y0068469D01*
X0123715Y0068521D01*
X0123688Y0068576D01*
X0123665Y0068631D01*
X0123645Y0068688D01*
X0123629Y0068747D01*
X0123616Y0068806D01*
X0123607Y0068865D01*
X0123602Y0068926D01*
X0123600Y0068986D01*
X0123600Y0096814D01*
X0124700Y0096814D02*
X0124700Y0069321D01*
X0124701Y0069321D02*
X0124703Y0069271D01*
X0124708Y0069220D01*
X0124717Y0069171D01*
X0124730Y0069122D01*
X0124746Y0069074D01*
X0124765Y0069027D01*
X0124787Y0068982D01*
X0124813Y0068939D01*
X0124842Y0068897D01*
X0124874Y0068858D01*
X0124908Y0068821D01*
X0125200Y0068114D02*
X0125200Y0065714D01*
X0125202Y0065654D01*
X0125207Y0065593D01*
X0125216Y0065534D01*
X0125229Y0065475D01*
X0125245Y0065416D01*
X0125265Y0065359D01*
X0125288Y0065304D01*
X0125315Y0065249D01*
X0125344Y0065197D01*
X0125377Y0065146D01*
X0125413Y0065097D01*
X0125451Y0065051D01*
X0125493Y0065007D01*
X0125725Y0064447D02*
X0125725Y0062800D01*
X0125725Y0064447D02*
X0125723Y0064499D01*
X0125718Y0064550D01*
X0125710Y0064602D01*
X0125698Y0064652D01*
X0125683Y0064702D01*
X0125665Y0064750D01*
X0125643Y0064797D01*
X0125619Y0064843D01*
X0125592Y0064887D01*
X0125561Y0064929D01*
X0125528Y0064969D01*
X0125493Y0065007D01*
X0123903Y0065103D02*
X0123874Y0065070D01*
X0123847Y0065036D01*
X0123824Y0064999D01*
X0123804Y0064960D01*
X0123787Y0064920D01*
X0123774Y0064878D01*
X0123765Y0064836D01*
X0123759Y0064793D01*
X0123757Y0064749D01*
X0123757Y0064300D01*
X0123903Y0065103D02*
X0123954Y0065154D01*
X0124100Y0067779D02*
X0124098Y0067829D01*
X0124093Y0067880D01*
X0124084Y0067929D01*
X0124071Y0067978D01*
X0124055Y0068026D01*
X0124036Y0068073D01*
X0124014Y0068118D01*
X0123988Y0068161D01*
X0123959Y0068203D01*
X0123927Y0068242D01*
X0123893Y0068279D01*
X0129368Y0070805D02*
X0129436Y0070734D01*
X0129501Y0070661D01*
X0129563Y0070585D01*
X0129623Y0070506D01*
X0129679Y0070426D01*
X0129732Y0070343D01*
X0129781Y0070259D01*
X0129828Y0070172D01*
X0129870Y0070084D01*
X0129910Y0069994D01*
X0129945Y0069902D01*
X0129978Y0069810D01*
X0130006Y0069716D01*
X0130031Y0069621D01*
X0130052Y0069525D01*
X0130069Y0069428D01*
X0130083Y0069331D01*
X0130092Y0069233D01*
X0130098Y0069135D01*
X0130100Y0069037D01*
X0130100Y0065507D01*
X0129954Y0065154D02*
X0129809Y0065008D01*
X0129662Y0064655D02*
X0129662Y0064300D01*
X0129662Y0064655D02*
X0129664Y0064699D01*
X0129670Y0064742D01*
X0129679Y0064784D01*
X0129692Y0064826D01*
X0129709Y0064866D01*
X0129729Y0064905D01*
X0129752Y0064942D01*
X0129779Y0064976D01*
X0129808Y0065009D01*
X0129954Y0065153D02*
X0129983Y0065186D01*
X0130010Y0065220D01*
X0130033Y0065257D01*
X0130053Y0065296D01*
X0130070Y0065336D01*
X0130083Y0065378D01*
X0130092Y0065420D01*
X0130098Y0065463D01*
X0130100Y0065507D01*
X0131200Y0065507D02*
X0131200Y0069492D01*
X0130468Y0071260D02*
X0130433Y0071296D01*
X0129368Y0070804D02*
X0129333Y0070840D01*
X0130468Y0071260D02*
X0130536Y0071189D01*
X0130601Y0071116D01*
X0130663Y0071040D01*
X0130723Y0070961D01*
X0130779Y0070881D01*
X0130832Y0070798D01*
X0130881Y0070714D01*
X0130928Y0070627D01*
X0130970Y0070539D01*
X0131010Y0070449D01*
X0131045Y0070357D01*
X0131078Y0070265D01*
X0131106Y0070171D01*
X0131131Y0070076D01*
X0131152Y0069980D01*
X0131169Y0069883D01*
X0131183Y0069786D01*
X0131192Y0069688D01*
X0131198Y0069590D01*
X0131200Y0069492D01*
X0136100Y0070537D02*
X0136098Y0070635D01*
X0136092Y0070733D01*
X0136083Y0070831D01*
X0136069Y0070928D01*
X0136052Y0071025D01*
X0136031Y0071121D01*
X0136006Y0071216D01*
X0135978Y0071310D01*
X0135945Y0071402D01*
X0135910Y0071494D01*
X0135870Y0071584D01*
X0135828Y0071672D01*
X0135781Y0071759D01*
X0135732Y0071843D01*
X0135679Y0071926D01*
X0135623Y0072006D01*
X0135563Y0072085D01*
X0135501Y0072161D01*
X0135436Y0072234D01*
X0135368Y0072305D01*
X0135368Y0072304D02*
X0134333Y0073340D01*
X0135433Y0073796D02*
X0136468Y0072760D01*
X0137200Y0070992D02*
X0137200Y0065507D01*
X0137347Y0065154D02*
X0137390Y0065111D01*
X0137536Y0064757D02*
X0137536Y0062800D01*
X0137536Y0064757D02*
X0137534Y0064801D01*
X0137528Y0064844D01*
X0137519Y0064886D01*
X0137506Y0064928D01*
X0137489Y0064968D01*
X0137469Y0065007D01*
X0137446Y0065044D01*
X0137419Y0065078D01*
X0137390Y0065111D01*
X0137346Y0065153D02*
X0137317Y0065186D01*
X0137290Y0065220D01*
X0137267Y0065257D01*
X0137247Y0065296D01*
X0137230Y0065336D01*
X0137217Y0065378D01*
X0137208Y0065420D01*
X0137202Y0065463D01*
X0137200Y0065507D01*
X0136100Y0065507D02*
X0136100Y0070537D01*
X0137200Y0070992D02*
X0137198Y0071090D01*
X0137192Y0071188D01*
X0137183Y0071286D01*
X0137169Y0071383D01*
X0137152Y0071480D01*
X0137131Y0071576D01*
X0137106Y0071671D01*
X0137078Y0071765D01*
X0137045Y0071857D01*
X0137010Y0071949D01*
X0136970Y0072039D01*
X0136928Y0072127D01*
X0136881Y0072214D01*
X0136832Y0072298D01*
X0136779Y0072381D01*
X0136723Y0072461D01*
X0136663Y0072540D01*
X0136601Y0072616D01*
X0136536Y0072689D01*
X0136468Y0072760D01*
X0134332Y0073340D02*
X0134264Y0073411D01*
X0134199Y0073484D01*
X0134137Y0073560D01*
X0134077Y0073639D01*
X0134021Y0073719D01*
X0133968Y0073802D01*
X0133919Y0073886D01*
X0133872Y0073973D01*
X0133830Y0074061D01*
X0133790Y0074151D01*
X0133755Y0074243D01*
X0133722Y0074335D01*
X0133694Y0074429D01*
X0133669Y0074524D01*
X0133648Y0074620D01*
X0133631Y0074717D01*
X0133617Y0074814D01*
X0133608Y0074912D01*
X0133602Y0075010D01*
X0133600Y0075108D01*
X0133600Y0096814D01*
X0134700Y0096814D02*
X0134700Y0075563D01*
X0134702Y0075465D01*
X0134708Y0075367D01*
X0134717Y0075269D01*
X0134731Y0075172D01*
X0134748Y0075075D01*
X0134769Y0074979D01*
X0134794Y0074884D01*
X0134822Y0074790D01*
X0134855Y0074698D01*
X0134890Y0074606D01*
X0134930Y0074516D01*
X0134972Y0074428D01*
X0135019Y0074341D01*
X0135068Y0074257D01*
X0135121Y0074174D01*
X0135177Y0074094D01*
X0135237Y0074015D01*
X0135299Y0073939D01*
X0135364Y0073866D01*
X0135432Y0073795D01*
X0130432Y0071295D02*
X0130364Y0071366D01*
X0130299Y0071439D01*
X0130237Y0071515D01*
X0130177Y0071594D01*
X0130121Y0071674D01*
X0130068Y0071757D01*
X0130019Y0071841D01*
X0129972Y0071928D01*
X0129930Y0072016D01*
X0129890Y0072106D01*
X0129855Y0072198D01*
X0129822Y0072290D01*
X0129794Y0072384D01*
X0129769Y0072479D01*
X0129748Y0072575D01*
X0129731Y0072672D01*
X0129717Y0072769D01*
X0129708Y0072867D01*
X0129702Y0072965D01*
X0129700Y0073063D01*
X0129700Y0091814D01*
X0128600Y0091814D02*
X0128600Y0072608D01*
X0128602Y0072510D01*
X0128608Y0072412D01*
X0128617Y0072314D01*
X0128631Y0072217D01*
X0128648Y0072120D01*
X0128669Y0072024D01*
X0128694Y0071929D01*
X0128722Y0071835D01*
X0128755Y0071743D01*
X0128790Y0071651D01*
X0128830Y0071561D01*
X0128872Y0071473D01*
X0128919Y0071386D01*
X0128968Y0071302D01*
X0129021Y0071219D01*
X0129077Y0071139D01*
X0129137Y0071060D01*
X0129199Y0070984D01*
X0129264Y0070911D01*
X0129332Y0070840D01*
X0131200Y0065507D02*
X0131202Y0065463D01*
X0131208Y0065420D01*
X0131217Y0065378D01*
X0131230Y0065336D01*
X0131247Y0065296D01*
X0131267Y0065257D01*
X0131290Y0065220D01*
X0131317Y0065186D01*
X0131346Y0065153D01*
X0131347Y0065154D02*
X0131484Y0065016D01*
X0131631Y0064663D02*
X0131631Y0062800D01*
X0131631Y0064663D02*
X0131629Y0064707D01*
X0131623Y0064750D01*
X0131614Y0064792D01*
X0131601Y0064834D01*
X0131584Y0064874D01*
X0131564Y0064913D01*
X0131541Y0064950D01*
X0131514Y0064984D01*
X0131485Y0065017D01*
X0135568Y0064560D02*
X0135568Y0064300D01*
X0135568Y0064560D02*
X0135570Y0064604D01*
X0135576Y0064647D01*
X0135585Y0064689D01*
X0135598Y0064731D01*
X0135615Y0064771D01*
X0135635Y0064810D01*
X0135658Y0064847D01*
X0135685Y0064881D01*
X0135714Y0064914D01*
X0135954Y0065154D01*
X0135954Y0065153D02*
X0135983Y0065186D01*
X0136010Y0065220D01*
X0136033Y0065257D01*
X0136053Y0065296D01*
X0136070Y0065336D01*
X0136083Y0065378D01*
X0136092Y0065420D01*
X0136098Y0065463D01*
X0136100Y0065507D01*
X0141473Y0064466D02*
X0141473Y0064300D01*
X0141473Y0064466D02*
X0141475Y0064510D01*
X0141481Y0064553D01*
X0141490Y0064595D01*
X0141503Y0064637D01*
X0141520Y0064677D01*
X0141540Y0064716D01*
X0141563Y0064753D01*
X0141590Y0064787D01*
X0141619Y0064820D01*
X0141620Y0064819D02*
X0141954Y0065154D01*
X0142100Y0065507D02*
X0142100Y0072037D01*
X0143200Y0072492D02*
X0143200Y0065434D01*
X0143202Y0065402D01*
X0143206Y0065371D01*
X0143214Y0065340D01*
X0143225Y0065310D01*
X0143238Y0065281D01*
X0143255Y0065254D01*
X0143274Y0065228D01*
X0143295Y0065205D01*
X0143442Y0064852D02*
X0143442Y0062800D01*
X0143442Y0064852D02*
X0143440Y0064896D01*
X0143434Y0064939D01*
X0143425Y0064981D01*
X0143412Y0065023D01*
X0143395Y0065063D01*
X0143375Y0065102D01*
X0143352Y0065139D01*
X0143325Y0065173D01*
X0143296Y0065206D01*
X0142100Y0065507D02*
X0142098Y0065463D01*
X0142092Y0065420D01*
X0142083Y0065378D01*
X0142070Y0065336D01*
X0142053Y0065296D01*
X0142033Y0065257D01*
X0142010Y0065220D01*
X0141983Y0065186D01*
X0141954Y0065153D01*
X0147379Y0064371D02*
X0147379Y0064300D01*
X0147525Y0064725D02*
X0147954Y0065154D01*
X0148100Y0065507D02*
X0148100Y0073537D01*
X0149200Y0073992D02*
X0149200Y0065507D01*
X0149347Y0065154D02*
X0149347Y0065153D01*
X0149347Y0062800D01*
X0147379Y0064371D02*
X0147381Y0064415D01*
X0147387Y0064458D01*
X0147396Y0064500D01*
X0147409Y0064542D01*
X0147426Y0064582D01*
X0147446Y0064621D01*
X0147469Y0064658D01*
X0147496Y0064692D01*
X0147525Y0064725D01*
X0147954Y0065153D02*
X0147983Y0065186D01*
X0148010Y0065220D01*
X0148033Y0065257D01*
X0148053Y0065296D01*
X0148070Y0065336D01*
X0148083Y0065378D01*
X0148092Y0065420D01*
X0148098Y0065463D01*
X0148100Y0065507D01*
X0149200Y0065507D02*
X0149202Y0065463D01*
X0149208Y0065420D01*
X0149217Y0065378D01*
X0149230Y0065336D01*
X0149247Y0065296D01*
X0149267Y0065257D01*
X0149290Y0065220D01*
X0149317Y0065186D01*
X0149346Y0065153D01*
X0153454Y0065153D02*
X0153483Y0065186D01*
X0153510Y0065220D01*
X0153533Y0065257D01*
X0153553Y0065296D01*
X0153570Y0065336D01*
X0153583Y0065378D01*
X0153592Y0065420D01*
X0153598Y0065463D01*
X0153600Y0065507D01*
X0153600Y0096814D01*
X0154700Y0096814D02*
X0154700Y0065507D01*
X0154847Y0065154D02*
X0155106Y0064894D01*
X0155253Y0064541D02*
X0155253Y0062800D01*
X0155253Y0064541D02*
X0155251Y0064585D01*
X0155245Y0064628D01*
X0155236Y0064670D01*
X0155223Y0064712D01*
X0155206Y0064752D01*
X0155186Y0064791D01*
X0155163Y0064828D01*
X0155136Y0064862D01*
X0155107Y0064895D01*
X0154846Y0065153D02*
X0154817Y0065186D01*
X0154790Y0065220D01*
X0154767Y0065257D01*
X0154747Y0065296D01*
X0154730Y0065336D01*
X0154717Y0065378D01*
X0154708Y0065420D01*
X0154702Y0065463D01*
X0154700Y0065507D01*
X0153430Y0065131D02*
X0153401Y0065098D01*
X0153374Y0065064D01*
X0153351Y0065027D01*
X0153331Y0064988D01*
X0153314Y0064948D01*
X0153301Y0064906D01*
X0153292Y0064864D01*
X0153286Y0064821D01*
X0153284Y0064777D01*
X0153284Y0064300D01*
X0153431Y0065130D02*
X0153454Y0065154D01*
X0159600Y0067451D02*
X0159598Y0067525D01*
X0159593Y0067598D01*
X0159584Y0067671D01*
X0159571Y0067744D01*
X0159555Y0067815D01*
X0159535Y0067886D01*
X0159512Y0067956D01*
X0159486Y0068025D01*
X0159456Y0068092D01*
X0159423Y0068158D01*
X0159387Y0068222D01*
X0159347Y0068284D01*
X0159305Y0068345D01*
X0159260Y0068403D01*
X0159211Y0068458D01*
X0159161Y0068512D01*
X0159040Y0068633D01*
X0160261Y0068968D02*
X0160311Y0068914D01*
X0160360Y0068859D01*
X0160405Y0068801D01*
X0160447Y0068740D01*
X0160487Y0068678D01*
X0160523Y0068614D01*
X0160556Y0068548D01*
X0160586Y0068481D01*
X0160612Y0068412D01*
X0160635Y0068342D01*
X0160655Y0068271D01*
X0160671Y0068200D01*
X0160684Y0068127D01*
X0160693Y0068054D01*
X0160698Y0067981D01*
X0160700Y0067907D01*
X0160700Y0065507D01*
X0160847Y0065154D02*
X0161012Y0064989D01*
X0161158Y0064635D02*
X0161158Y0062800D01*
X0161158Y0064635D02*
X0161156Y0064679D01*
X0161150Y0064722D01*
X0161141Y0064764D01*
X0161128Y0064806D01*
X0161111Y0064846D01*
X0161091Y0064885D01*
X0161068Y0064922D01*
X0161041Y0064956D01*
X0161012Y0064989D01*
X0160846Y0065153D02*
X0160817Y0065186D01*
X0160790Y0065220D01*
X0160767Y0065257D01*
X0160747Y0065296D01*
X0160730Y0065336D01*
X0160717Y0065378D01*
X0160708Y0065420D01*
X0160702Y0065463D01*
X0160700Y0065507D01*
X0159600Y0065507D02*
X0159600Y0067451D01*
X0160261Y0068967D02*
X0160140Y0069088D01*
X0159039Y0068632D02*
X0158989Y0068686D01*
X0158940Y0068741D01*
X0158895Y0068799D01*
X0158853Y0068860D01*
X0158813Y0068922D01*
X0158777Y0068986D01*
X0158744Y0069052D01*
X0158714Y0069119D01*
X0158688Y0069188D01*
X0158665Y0069258D01*
X0158645Y0069329D01*
X0158629Y0069400D01*
X0158616Y0069473D01*
X0158607Y0069546D01*
X0158602Y0069619D01*
X0158600Y0069693D01*
X0158600Y0091814D01*
X0159700Y0091814D02*
X0159700Y0070149D01*
X0159702Y0070075D01*
X0159707Y0070002D01*
X0159716Y0069929D01*
X0159729Y0069856D01*
X0159745Y0069785D01*
X0159765Y0069714D01*
X0159788Y0069644D01*
X0159814Y0069575D01*
X0159844Y0069508D01*
X0159877Y0069442D01*
X0159913Y0069378D01*
X0159953Y0069316D01*
X0159995Y0069255D01*
X0160040Y0069197D01*
X0160089Y0069142D01*
X0160139Y0069088D01*
X0164868Y0070305D02*
X0164936Y0070234D01*
X0165001Y0070161D01*
X0165063Y0070085D01*
X0165123Y0070006D01*
X0165179Y0069926D01*
X0165232Y0069843D01*
X0165281Y0069759D01*
X0165328Y0069672D01*
X0165370Y0069584D01*
X0165410Y0069494D01*
X0165445Y0069402D01*
X0165478Y0069310D01*
X0165506Y0069216D01*
X0165531Y0069121D01*
X0165552Y0069025D01*
X0165569Y0068928D01*
X0165583Y0068831D01*
X0165592Y0068733D01*
X0165598Y0068635D01*
X0165600Y0068537D01*
X0165600Y0065507D01*
X0165454Y0065154D02*
X0165242Y0064941D01*
X0165095Y0064588D02*
X0165095Y0064300D01*
X0165095Y0064588D02*
X0165097Y0064632D01*
X0165103Y0064675D01*
X0165112Y0064717D01*
X0165125Y0064759D01*
X0165142Y0064799D01*
X0165162Y0064838D01*
X0165185Y0064875D01*
X0165212Y0064909D01*
X0165241Y0064942D01*
X0165454Y0065153D02*
X0165483Y0065186D01*
X0165510Y0065220D01*
X0165533Y0065257D01*
X0165553Y0065296D01*
X0165570Y0065336D01*
X0165583Y0065378D01*
X0165592Y0065420D01*
X0165598Y0065463D01*
X0165600Y0065507D01*
X0166700Y0065507D02*
X0166700Y0068992D01*
X0165968Y0070760D02*
X0165433Y0071296D01*
X0164868Y0070304D02*
X0164333Y0070840D01*
X0165968Y0070760D02*
X0166036Y0070689D01*
X0166101Y0070616D01*
X0166163Y0070540D01*
X0166223Y0070461D01*
X0166279Y0070381D01*
X0166332Y0070298D01*
X0166381Y0070214D01*
X0166428Y0070127D01*
X0166470Y0070039D01*
X0166510Y0069949D01*
X0166545Y0069857D01*
X0166578Y0069765D01*
X0166606Y0069671D01*
X0166631Y0069576D01*
X0166652Y0069480D01*
X0166669Y0069383D01*
X0166683Y0069286D01*
X0166692Y0069188D01*
X0166698Y0069090D01*
X0166700Y0068992D01*
X0171600Y0070037D02*
X0171598Y0070135D01*
X0171592Y0070233D01*
X0171583Y0070331D01*
X0171569Y0070428D01*
X0171552Y0070525D01*
X0171531Y0070621D01*
X0171506Y0070716D01*
X0171478Y0070810D01*
X0171445Y0070902D01*
X0171410Y0070994D01*
X0171370Y0071084D01*
X0171328Y0071172D01*
X0171281Y0071259D01*
X0171232Y0071343D01*
X0171179Y0071426D01*
X0171123Y0071506D01*
X0171063Y0071585D01*
X0171001Y0071661D01*
X0170936Y0071734D01*
X0170868Y0071805D01*
X0170868Y0071804D02*
X0169333Y0073340D01*
X0170433Y0073796D02*
X0171968Y0072260D01*
X0172700Y0070492D02*
X0172700Y0065507D01*
X0172702Y0065463D01*
X0172708Y0065420D01*
X0172717Y0065378D01*
X0172730Y0065336D01*
X0172747Y0065296D01*
X0172767Y0065257D01*
X0172790Y0065220D01*
X0172817Y0065186D01*
X0172846Y0065153D01*
X0172969Y0064858D02*
X0172969Y0062800D01*
X0172969Y0064858D02*
X0172967Y0064894D01*
X0172963Y0064931D01*
X0172955Y0064966D01*
X0172944Y0065001D01*
X0172930Y0065035D01*
X0172913Y0065067D01*
X0172893Y0065098D01*
X0172871Y0065127D01*
X0172847Y0065154D01*
X0171600Y0065507D02*
X0171600Y0070037D01*
X0172700Y0070492D02*
X0172698Y0070590D01*
X0172692Y0070688D01*
X0172683Y0070786D01*
X0172669Y0070883D01*
X0172652Y0070980D01*
X0172631Y0071076D01*
X0172606Y0071171D01*
X0172578Y0071265D01*
X0172545Y0071357D01*
X0172510Y0071449D01*
X0172470Y0071539D01*
X0172428Y0071627D01*
X0172381Y0071714D01*
X0172332Y0071798D01*
X0172279Y0071881D01*
X0172223Y0071961D01*
X0172163Y0072040D01*
X0172101Y0072116D01*
X0172036Y0072189D01*
X0171968Y0072260D01*
X0169332Y0073340D02*
X0169264Y0073411D01*
X0169199Y0073484D01*
X0169137Y0073560D01*
X0169077Y0073639D01*
X0169021Y0073719D01*
X0168968Y0073802D01*
X0168919Y0073886D01*
X0168872Y0073973D01*
X0168830Y0074061D01*
X0168790Y0074151D01*
X0168755Y0074243D01*
X0168722Y0074335D01*
X0168694Y0074429D01*
X0168669Y0074524D01*
X0168648Y0074620D01*
X0168631Y0074717D01*
X0168617Y0074814D01*
X0168608Y0074912D01*
X0168602Y0075010D01*
X0168600Y0075108D01*
X0168600Y0091814D01*
X0169700Y0091814D02*
X0169700Y0075563D01*
X0169702Y0075465D01*
X0169708Y0075367D01*
X0169717Y0075269D01*
X0169731Y0075172D01*
X0169748Y0075075D01*
X0169769Y0074979D01*
X0169794Y0074884D01*
X0169822Y0074790D01*
X0169855Y0074698D01*
X0169890Y0074606D01*
X0169930Y0074516D01*
X0169972Y0074428D01*
X0170019Y0074341D01*
X0170068Y0074257D01*
X0170121Y0074174D01*
X0170177Y0074094D01*
X0170237Y0074015D01*
X0170299Y0073939D01*
X0170364Y0073866D01*
X0170432Y0073795D01*
X0165432Y0071295D02*
X0165364Y0071366D01*
X0165299Y0071439D01*
X0165237Y0071515D01*
X0165177Y0071594D01*
X0165121Y0071674D01*
X0165068Y0071757D01*
X0165019Y0071841D01*
X0164972Y0071928D01*
X0164930Y0072016D01*
X0164890Y0072106D01*
X0164855Y0072198D01*
X0164822Y0072290D01*
X0164794Y0072384D01*
X0164769Y0072479D01*
X0164748Y0072575D01*
X0164731Y0072672D01*
X0164717Y0072769D01*
X0164708Y0072867D01*
X0164702Y0072965D01*
X0164700Y0073063D01*
X0164700Y0096814D01*
X0163600Y0096814D02*
X0163600Y0072608D01*
X0163602Y0072510D01*
X0163608Y0072412D01*
X0163617Y0072314D01*
X0163631Y0072217D01*
X0163648Y0072120D01*
X0163669Y0072024D01*
X0163694Y0071929D01*
X0163722Y0071835D01*
X0163755Y0071743D01*
X0163790Y0071651D01*
X0163830Y0071561D01*
X0163872Y0071473D01*
X0163919Y0071386D01*
X0163968Y0071302D01*
X0164021Y0071219D01*
X0164077Y0071139D01*
X0164137Y0071060D01*
X0164199Y0070984D01*
X0164264Y0070911D01*
X0164332Y0070840D01*
X0166700Y0065507D02*
X0166702Y0065463D01*
X0166708Y0065420D01*
X0166717Y0065378D01*
X0166730Y0065336D01*
X0166747Y0065296D01*
X0166767Y0065257D01*
X0166790Y0065220D01*
X0166817Y0065186D01*
X0166846Y0065153D01*
X0166847Y0065154D02*
X0166917Y0065083D01*
X0167064Y0064730D02*
X0167064Y0062800D01*
X0167064Y0064730D02*
X0167062Y0064774D01*
X0167056Y0064817D01*
X0167047Y0064859D01*
X0167034Y0064901D01*
X0167017Y0064941D01*
X0166997Y0064980D01*
X0166974Y0065017D01*
X0166947Y0065051D01*
X0166918Y0065084D01*
X0171001Y0064493D02*
X0171001Y0064300D01*
X0171001Y0064493D02*
X0171003Y0064537D01*
X0171009Y0064580D01*
X0171018Y0064622D01*
X0171031Y0064664D01*
X0171048Y0064704D01*
X0171068Y0064743D01*
X0171091Y0064780D01*
X0171118Y0064814D01*
X0171147Y0064847D01*
X0171454Y0065154D01*
X0171454Y0065153D02*
X0171483Y0065186D01*
X0171510Y0065220D01*
X0171533Y0065257D01*
X0171553Y0065296D01*
X0171570Y0065336D01*
X0171583Y0065378D01*
X0171592Y0065420D01*
X0171598Y0065463D01*
X0171600Y0065507D01*
X0176906Y0064399D02*
X0176906Y0064300D01*
X0177053Y0064752D02*
X0177454Y0065154D01*
X0177600Y0065507D02*
X0177600Y0071537D01*
X0178700Y0071992D02*
X0178700Y0065507D01*
X0178846Y0065153D02*
X0178858Y0065139D01*
X0178867Y0065122D01*
X0178872Y0065105D01*
X0178874Y0065086D01*
X0178875Y0065086D02*
X0178875Y0062800D01*
X0176906Y0064399D02*
X0176908Y0064443D01*
X0176914Y0064486D01*
X0176923Y0064528D01*
X0176936Y0064570D01*
X0176953Y0064610D01*
X0176973Y0064649D01*
X0176996Y0064686D01*
X0177023Y0064720D01*
X0177052Y0064753D01*
X0177454Y0065153D02*
X0177483Y0065186D01*
X0177510Y0065220D01*
X0177533Y0065257D01*
X0177553Y0065296D01*
X0177570Y0065336D01*
X0177583Y0065378D01*
X0177592Y0065420D01*
X0177598Y0065463D01*
X0177600Y0065507D01*
X0178700Y0065507D02*
X0178702Y0065463D01*
X0178708Y0065420D01*
X0178717Y0065378D01*
X0178730Y0065336D01*
X0178747Y0065296D01*
X0178767Y0065257D01*
X0178790Y0065220D01*
X0178817Y0065186D01*
X0178846Y0065153D01*
X0182954Y0065153D02*
X0182983Y0065186D01*
X0183010Y0065220D01*
X0183033Y0065257D01*
X0183053Y0065296D01*
X0183070Y0065336D01*
X0183083Y0065378D01*
X0183092Y0065420D01*
X0183098Y0065463D01*
X0183100Y0065507D01*
X0183100Y0070492D01*
X0184200Y0070037D02*
X0184200Y0065706D01*
X0184202Y0065647D01*
X0184207Y0065588D01*
X0184216Y0065529D01*
X0184228Y0065471D01*
X0184244Y0065414D01*
X0184264Y0065358D01*
X0184286Y0065304D01*
X0184312Y0065251D01*
X0184341Y0065199D01*
X0184373Y0065149D01*
X0184409Y0065102D01*
X0184446Y0065056D01*
X0184487Y0065013D01*
X0184780Y0064306D02*
X0184780Y0062800D01*
X0184780Y0064306D02*
X0184778Y0064366D01*
X0184773Y0064427D01*
X0184764Y0064486D01*
X0184751Y0064545D01*
X0184735Y0064604D01*
X0184715Y0064661D01*
X0184692Y0064716D01*
X0184665Y0064771D01*
X0184636Y0064823D01*
X0184603Y0064874D01*
X0184567Y0064923D01*
X0184529Y0064969D01*
X0184487Y0065013D01*
X0182954Y0065153D02*
X0182925Y0065122D01*
X0182900Y0065088D01*
X0182877Y0065052D01*
X0182857Y0065015D01*
X0182841Y0064976D01*
X0182829Y0064936D01*
X0182819Y0064894D01*
X0182814Y0064852D01*
X0182812Y0064810D01*
X0182812Y0064300D01*
X0188717Y0064300D02*
X0188717Y0064710D01*
X0188864Y0065063D02*
X0188954Y0065154D01*
X0189100Y0065507D02*
X0189100Y0068992D01*
X0190200Y0068537D02*
X0190200Y0065572D01*
X0190201Y0065572D02*
X0190203Y0065525D01*
X0190208Y0065478D01*
X0190216Y0065432D01*
X0190228Y0065387D01*
X0190242Y0065342D01*
X0190260Y0065299D01*
X0190281Y0065257D01*
X0190305Y0065217D01*
X0190332Y0065178D01*
X0190361Y0065142D01*
X0190393Y0065107D01*
X0190686Y0064400D02*
X0190686Y0062800D01*
X0190686Y0064400D02*
X0190684Y0064460D01*
X0190679Y0064521D01*
X0190670Y0064580D01*
X0190657Y0064639D01*
X0190641Y0064698D01*
X0190621Y0064755D01*
X0190598Y0064810D01*
X0190571Y0064865D01*
X0190542Y0064917D01*
X0190509Y0064968D01*
X0190473Y0065017D01*
X0190435Y0065063D01*
X0190393Y0065107D01*
X0188863Y0065064D02*
X0188834Y0065031D01*
X0188807Y0064997D01*
X0188784Y0064960D01*
X0188764Y0064921D01*
X0188747Y0064881D01*
X0188734Y0064839D01*
X0188725Y0064797D01*
X0188719Y0064754D01*
X0188717Y0064710D01*
X0188954Y0065153D02*
X0188983Y0065186D01*
X0189010Y0065220D01*
X0189033Y0065257D01*
X0189053Y0065296D01*
X0189070Y0065336D01*
X0189083Y0065378D01*
X0189092Y0065420D01*
X0189098Y0065463D01*
X0189100Y0065507D01*
X0189100Y0068992D02*
X0189102Y0069090D01*
X0189108Y0069188D01*
X0189117Y0069286D01*
X0189131Y0069383D01*
X0189148Y0069480D01*
X0189169Y0069576D01*
X0189194Y0069671D01*
X0189222Y0069765D01*
X0189255Y0069857D01*
X0189290Y0069949D01*
X0189330Y0070039D01*
X0189372Y0070127D01*
X0189419Y0070214D01*
X0189468Y0070298D01*
X0189521Y0070381D01*
X0189577Y0070461D01*
X0189637Y0070540D01*
X0189699Y0070616D01*
X0189764Y0070689D01*
X0189832Y0070760D01*
X0189833Y0070760D02*
X0192868Y0073796D01*
X0193968Y0073340D02*
X0190933Y0070304D01*
X0190932Y0070305D02*
X0190864Y0070234D01*
X0190799Y0070161D01*
X0190737Y0070085D01*
X0190677Y0070006D01*
X0190621Y0069926D01*
X0190568Y0069843D01*
X0190519Y0069759D01*
X0190472Y0069672D01*
X0190430Y0069584D01*
X0190390Y0069494D01*
X0190355Y0069402D01*
X0190322Y0069310D01*
X0190294Y0069216D01*
X0190269Y0069121D01*
X0190248Y0069025D01*
X0190231Y0068928D01*
X0190217Y0068831D01*
X0190208Y0068733D01*
X0190202Y0068635D01*
X0190200Y0068537D01*
X0184200Y0070037D02*
X0184202Y0070135D01*
X0184208Y0070233D01*
X0184217Y0070331D01*
X0184231Y0070428D01*
X0184248Y0070525D01*
X0184269Y0070621D01*
X0184294Y0070716D01*
X0184322Y0070810D01*
X0184355Y0070902D01*
X0184390Y0070994D01*
X0184430Y0071084D01*
X0184472Y0071172D01*
X0184519Y0071259D01*
X0184568Y0071343D01*
X0184621Y0071426D01*
X0184677Y0071506D01*
X0184737Y0071585D01*
X0184799Y0071661D01*
X0184864Y0071734D01*
X0184932Y0071805D01*
X0184933Y0071804D02*
X0188968Y0075840D01*
X0187868Y0076296D02*
X0183833Y0072260D01*
X0183832Y0072260D02*
X0183764Y0072189D01*
X0183699Y0072116D01*
X0183637Y0072040D01*
X0183577Y0071961D01*
X0183521Y0071881D01*
X0183468Y0071798D01*
X0183419Y0071714D01*
X0183372Y0071627D01*
X0183330Y0071539D01*
X0183290Y0071449D01*
X0183255Y0071357D01*
X0183222Y0071265D01*
X0183194Y0071171D01*
X0183169Y0071076D01*
X0183148Y0070980D01*
X0183131Y0070883D01*
X0183117Y0070786D01*
X0183108Y0070688D01*
X0183102Y0070590D01*
X0183100Y0070492D01*
X0177968Y0073760D02*
X0175433Y0076296D01*
X0174333Y0075840D02*
X0176868Y0073304D01*
X0177968Y0073760D02*
X0178036Y0073689D01*
X0178101Y0073616D01*
X0178163Y0073540D01*
X0178223Y0073461D01*
X0178279Y0073381D01*
X0178332Y0073298D01*
X0178381Y0073214D01*
X0178428Y0073127D01*
X0178470Y0073039D01*
X0178510Y0072949D01*
X0178545Y0072857D01*
X0178578Y0072765D01*
X0178606Y0072671D01*
X0178631Y0072576D01*
X0178652Y0072480D01*
X0178669Y0072383D01*
X0178683Y0072286D01*
X0178692Y0072188D01*
X0178698Y0072090D01*
X0178700Y0071992D01*
X0177600Y0071537D02*
X0177598Y0071635D01*
X0177592Y0071733D01*
X0177583Y0071831D01*
X0177569Y0071928D01*
X0177552Y0072025D01*
X0177531Y0072121D01*
X0177506Y0072216D01*
X0177478Y0072310D01*
X0177445Y0072402D01*
X0177410Y0072494D01*
X0177370Y0072584D01*
X0177328Y0072672D01*
X0177281Y0072759D01*
X0177232Y0072843D01*
X0177179Y0072926D01*
X0177123Y0073006D01*
X0177063Y0073085D01*
X0177001Y0073161D01*
X0176936Y0073234D01*
X0176868Y0073305D01*
X0174332Y0075840D02*
X0174264Y0075911D01*
X0174199Y0075984D01*
X0174137Y0076060D01*
X0174077Y0076139D01*
X0174021Y0076219D01*
X0173968Y0076302D01*
X0173919Y0076386D01*
X0173872Y0076473D01*
X0173830Y0076561D01*
X0173790Y0076651D01*
X0173755Y0076743D01*
X0173722Y0076835D01*
X0173694Y0076929D01*
X0173669Y0077024D01*
X0173648Y0077120D01*
X0173631Y0077217D01*
X0173617Y0077314D01*
X0173608Y0077412D01*
X0173602Y0077510D01*
X0173600Y0077608D01*
X0173600Y0096814D01*
X0174700Y0096814D02*
X0174700Y0078063D01*
X0174702Y0077965D01*
X0174708Y0077867D01*
X0174717Y0077769D01*
X0174731Y0077672D01*
X0174748Y0077575D01*
X0174769Y0077479D01*
X0174794Y0077384D01*
X0174822Y0077290D01*
X0174855Y0077198D01*
X0174890Y0077106D01*
X0174930Y0077016D01*
X0174972Y0076928D01*
X0175019Y0076841D01*
X0175068Y0076757D01*
X0175121Y0076674D01*
X0175177Y0076594D01*
X0175237Y0076515D01*
X0175299Y0076439D01*
X0175364Y0076366D01*
X0175432Y0076295D01*
X0187868Y0076295D02*
X0187936Y0076366D01*
X0188001Y0076439D01*
X0188063Y0076515D01*
X0188123Y0076594D01*
X0188179Y0076674D01*
X0188232Y0076757D01*
X0188281Y0076841D01*
X0188328Y0076928D01*
X0188370Y0077016D01*
X0188410Y0077106D01*
X0188445Y0077198D01*
X0188478Y0077290D01*
X0188506Y0077384D01*
X0188531Y0077479D01*
X0188552Y0077575D01*
X0188569Y0077672D01*
X0188583Y0077769D01*
X0188592Y0077867D01*
X0188598Y0077965D01*
X0188600Y0078063D01*
X0188600Y0091814D01*
X0189700Y0091814D02*
X0189700Y0077608D01*
X0193600Y0075563D02*
X0193598Y0075465D01*
X0193592Y0075367D01*
X0193583Y0075269D01*
X0193569Y0075172D01*
X0193552Y0075075D01*
X0193531Y0074979D01*
X0193506Y0074884D01*
X0193478Y0074790D01*
X0193445Y0074698D01*
X0193410Y0074606D01*
X0193370Y0074516D01*
X0193328Y0074428D01*
X0193281Y0074341D01*
X0193232Y0074257D01*
X0193179Y0074174D01*
X0193123Y0074094D01*
X0193063Y0074015D01*
X0193001Y0073939D01*
X0192936Y0073866D01*
X0192868Y0073795D01*
X0193968Y0073340D02*
X0194036Y0073411D01*
X0194101Y0073484D01*
X0194163Y0073560D01*
X0194223Y0073639D01*
X0194279Y0073719D01*
X0194332Y0073802D01*
X0194381Y0073886D01*
X0194428Y0073973D01*
X0194470Y0074061D01*
X0194510Y0074151D01*
X0194545Y0074243D01*
X0194578Y0074335D01*
X0194606Y0074429D01*
X0194631Y0074524D01*
X0194652Y0074620D01*
X0194669Y0074717D01*
X0194683Y0074814D01*
X0194692Y0074912D01*
X0194698Y0075010D01*
X0194700Y0075108D01*
X0194700Y0096814D01*
X0193600Y0096814D02*
X0193600Y0075563D01*
X0189700Y0077608D02*
X0189698Y0077510D01*
X0189692Y0077412D01*
X0189683Y0077314D01*
X0189669Y0077217D01*
X0189652Y0077120D01*
X0189631Y0077024D01*
X0189606Y0076929D01*
X0189578Y0076835D01*
X0189545Y0076743D01*
X0189510Y0076651D01*
X0189470Y0076561D01*
X0189428Y0076473D01*
X0189381Y0076386D01*
X0189332Y0076302D01*
X0189279Y0076219D01*
X0189223Y0076139D01*
X0189163Y0076060D01*
X0189101Y0075984D01*
X0189036Y0075911D01*
X0188968Y0075840D01*
X0188600Y0091814D02*
X0188598Y0091912D01*
X0188592Y0092010D01*
X0188583Y0092108D01*
X0188569Y0092205D01*
X0188552Y0092302D01*
X0188531Y0092398D01*
X0188506Y0092493D01*
X0188478Y0092587D01*
X0188445Y0092679D01*
X0188410Y0092771D01*
X0188370Y0092861D01*
X0188328Y0092949D01*
X0188281Y0093036D01*
X0188232Y0093120D01*
X0188179Y0093203D01*
X0188123Y0093283D01*
X0188063Y0093362D01*
X0188001Y0093438D01*
X0187936Y0093511D01*
X0187868Y0093582D01*
X0186650Y0094800D01*
X0190433Y0093582D02*
X0191650Y0094800D01*
X0193600Y0096814D02*
X0193598Y0096912D01*
X0193592Y0097010D01*
X0193583Y0097108D01*
X0193569Y0097205D01*
X0193552Y0097302D01*
X0193531Y0097398D01*
X0193506Y0097493D01*
X0193478Y0097587D01*
X0193445Y0097679D01*
X0193410Y0097771D01*
X0193370Y0097861D01*
X0193328Y0097949D01*
X0193281Y0098036D01*
X0193232Y0098120D01*
X0193179Y0098203D01*
X0193123Y0098283D01*
X0193063Y0098362D01*
X0193001Y0098438D01*
X0192936Y0098511D01*
X0192868Y0098582D01*
X0191650Y0099800D01*
X0195433Y0098582D02*
X0196650Y0099800D01*
X0195432Y0098582D02*
X0195364Y0098511D01*
X0195299Y0098438D01*
X0195237Y0098362D01*
X0195177Y0098283D01*
X0195121Y0098203D01*
X0195068Y0098120D01*
X0195019Y0098036D01*
X0194972Y0097949D01*
X0194930Y0097861D01*
X0194890Y0097771D01*
X0194855Y0097679D01*
X0194822Y0097587D01*
X0194794Y0097493D01*
X0194769Y0097398D01*
X0194748Y0097302D01*
X0194731Y0097205D01*
X0194717Y0097108D01*
X0194708Y0097010D01*
X0194702Y0096912D01*
X0194700Y0096814D01*
X0190432Y0093582D02*
X0190364Y0093511D01*
X0190299Y0093438D01*
X0190237Y0093362D01*
X0190177Y0093283D01*
X0190121Y0093203D01*
X0190068Y0093120D01*
X0190019Y0093036D01*
X0189972Y0092949D01*
X0189930Y0092861D01*
X0189890Y0092771D01*
X0189855Y0092679D01*
X0189822Y0092587D01*
X0189794Y0092493D01*
X0189769Y0092398D01*
X0189748Y0092302D01*
X0189731Y0092205D01*
X0189717Y0092108D01*
X0189708Y0092010D01*
X0189702Y0091912D01*
X0189700Y0091814D01*
X0175432Y0098582D02*
X0175364Y0098511D01*
X0175299Y0098438D01*
X0175237Y0098362D01*
X0175177Y0098283D01*
X0175121Y0098203D01*
X0175068Y0098120D01*
X0175019Y0098036D01*
X0174972Y0097949D01*
X0174930Y0097861D01*
X0174890Y0097771D01*
X0174855Y0097679D01*
X0174822Y0097587D01*
X0174794Y0097493D01*
X0174769Y0097398D01*
X0174748Y0097302D01*
X0174731Y0097205D01*
X0174717Y0097108D01*
X0174708Y0097010D01*
X0174702Y0096912D01*
X0174700Y0096814D01*
X0175433Y0098582D02*
X0176650Y0099800D01*
X0172868Y0098582D02*
X0171650Y0099800D01*
X0172868Y0098582D02*
X0172936Y0098511D01*
X0173001Y0098438D01*
X0173063Y0098362D01*
X0173123Y0098283D01*
X0173179Y0098203D01*
X0173232Y0098120D01*
X0173281Y0098036D01*
X0173328Y0097949D01*
X0173370Y0097861D01*
X0173410Y0097771D01*
X0173445Y0097679D01*
X0173478Y0097587D01*
X0173506Y0097493D01*
X0173531Y0097398D01*
X0173552Y0097302D01*
X0173569Y0097205D01*
X0173583Y0097108D01*
X0173592Y0097010D01*
X0173598Y0096912D01*
X0173600Y0096814D01*
X0171650Y0094800D02*
X0170433Y0093582D01*
X0170432Y0093582D02*
X0170364Y0093511D01*
X0170299Y0093438D01*
X0170237Y0093362D01*
X0170177Y0093283D01*
X0170121Y0093203D01*
X0170068Y0093120D01*
X0170019Y0093036D01*
X0169972Y0092949D01*
X0169930Y0092861D01*
X0169890Y0092771D01*
X0169855Y0092679D01*
X0169822Y0092587D01*
X0169794Y0092493D01*
X0169769Y0092398D01*
X0169748Y0092302D01*
X0169731Y0092205D01*
X0169717Y0092108D01*
X0169708Y0092010D01*
X0169702Y0091912D01*
X0169700Y0091814D01*
X0167868Y0093582D02*
X0166650Y0094800D01*
X0164700Y0096814D02*
X0164702Y0096912D01*
X0164708Y0097010D01*
X0164717Y0097108D01*
X0164731Y0097205D01*
X0164748Y0097302D01*
X0164769Y0097398D01*
X0164794Y0097493D01*
X0164822Y0097587D01*
X0164855Y0097679D01*
X0164890Y0097771D01*
X0164930Y0097861D01*
X0164972Y0097949D01*
X0165019Y0098036D01*
X0165068Y0098120D01*
X0165121Y0098203D01*
X0165177Y0098283D01*
X0165237Y0098362D01*
X0165299Y0098438D01*
X0165364Y0098511D01*
X0165432Y0098582D01*
X0165433Y0098582D02*
X0166650Y0099800D01*
X0162868Y0098582D02*
X0161650Y0099800D01*
X0162868Y0098582D02*
X0162936Y0098511D01*
X0163001Y0098438D01*
X0163063Y0098362D01*
X0163123Y0098283D01*
X0163179Y0098203D01*
X0163232Y0098120D01*
X0163281Y0098036D01*
X0163328Y0097949D01*
X0163370Y0097861D01*
X0163410Y0097771D01*
X0163445Y0097679D01*
X0163478Y0097587D01*
X0163506Y0097493D01*
X0163531Y0097398D01*
X0163552Y0097302D01*
X0163569Y0097205D01*
X0163583Y0097108D01*
X0163592Y0097010D01*
X0163598Y0096912D01*
X0163600Y0096814D01*
X0161650Y0094800D02*
X0160433Y0093582D01*
X0160432Y0093582D02*
X0160364Y0093511D01*
X0160299Y0093438D01*
X0160237Y0093362D01*
X0160177Y0093283D01*
X0160121Y0093203D01*
X0160068Y0093120D01*
X0160019Y0093036D01*
X0159972Y0092949D01*
X0159930Y0092861D01*
X0159890Y0092771D01*
X0159855Y0092679D01*
X0159822Y0092587D01*
X0159794Y0092493D01*
X0159769Y0092398D01*
X0159748Y0092302D01*
X0159731Y0092205D01*
X0159717Y0092108D01*
X0159708Y0092010D01*
X0159702Y0091912D01*
X0159700Y0091814D01*
X0157868Y0093582D02*
X0156650Y0094800D01*
X0154700Y0096814D02*
X0154702Y0096912D01*
X0154708Y0097010D01*
X0154717Y0097108D01*
X0154731Y0097205D01*
X0154748Y0097302D01*
X0154769Y0097398D01*
X0154794Y0097493D01*
X0154822Y0097587D01*
X0154855Y0097679D01*
X0154890Y0097771D01*
X0154930Y0097861D01*
X0154972Y0097949D01*
X0155019Y0098036D01*
X0155068Y0098120D01*
X0155121Y0098203D01*
X0155177Y0098283D01*
X0155237Y0098362D01*
X0155299Y0098438D01*
X0155364Y0098511D01*
X0155432Y0098582D01*
X0155433Y0098582D02*
X0156650Y0099800D01*
X0152868Y0098582D02*
X0151650Y0099800D01*
X0152868Y0098582D02*
X0152936Y0098511D01*
X0153001Y0098438D01*
X0153063Y0098362D01*
X0153123Y0098283D01*
X0153179Y0098203D01*
X0153232Y0098120D01*
X0153281Y0098036D01*
X0153328Y0097949D01*
X0153370Y0097861D01*
X0153410Y0097771D01*
X0153445Y0097679D01*
X0153478Y0097587D01*
X0153506Y0097493D01*
X0153531Y0097398D01*
X0153552Y0097302D01*
X0153569Y0097205D01*
X0153583Y0097108D01*
X0153592Y0097010D01*
X0153598Y0096912D01*
X0153600Y0096814D01*
X0157868Y0093582D02*
X0157936Y0093511D01*
X0158001Y0093438D01*
X0158063Y0093362D01*
X0158123Y0093283D01*
X0158179Y0093203D01*
X0158232Y0093120D01*
X0158281Y0093036D01*
X0158328Y0092949D01*
X0158370Y0092861D01*
X0158410Y0092771D01*
X0158445Y0092679D01*
X0158478Y0092587D01*
X0158506Y0092493D01*
X0158531Y0092398D01*
X0158552Y0092302D01*
X0158569Y0092205D01*
X0158583Y0092108D01*
X0158592Y0092010D01*
X0158598Y0091912D01*
X0158600Y0091814D01*
X0167868Y0093582D02*
X0167936Y0093511D01*
X0168001Y0093438D01*
X0168063Y0093362D01*
X0168123Y0093283D01*
X0168179Y0093203D01*
X0168232Y0093120D01*
X0168281Y0093036D01*
X0168328Y0092949D01*
X0168370Y0092861D01*
X0168410Y0092771D01*
X0168445Y0092679D01*
X0168478Y0092587D01*
X0168506Y0092493D01*
X0168531Y0092398D01*
X0168552Y0092302D01*
X0168569Y0092205D01*
X0168583Y0092108D01*
X0168592Y0092010D01*
X0168598Y0091912D01*
X0168600Y0091814D01*
X0145432Y0098582D02*
X0145364Y0098511D01*
X0145299Y0098438D01*
X0145237Y0098362D01*
X0145177Y0098283D01*
X0145121Y0098203D01*
X0145068Y0098120D01*
X0145019Y0098036D01*
X0144972Y0097949D01*
X0144930Y0097861D01*
X0144890Y0097771D01*
X0144855Y0097679D01*
X0144822Y0097587D01*
X0144794Y0097493D01*
X0144769Y0097398D01*
X0144748Y0097302D01*
X0144731Y0097205D01*
X0144717Y0097108D01*
X0144708Y0097010D01*
X0144702Y0096912D01*
X0144700Y0096814D01*
X0144700Y0080563D01*
X0143600Y0080108D02*
X0143600Y0096814D01*
X0142868Y0098582D02*
X0141650Y0099800D01*
X0142868Y0098582D02*
X0142936Y0098511D01*
X0143001Y0098438D01*
X0143063Y0098362D01*
X0143123Y0098283D01*
X0143179Y0098203D01*
X0143232Y0098120D01*
X0143281Y0098036D01*
X0143328Y0097949D01*
X0143370Y0097861D01*
X0143410Y0097771D01*
X0143445Y0097679D01*
X0143478Y0097587D01*
X0143506Y0097493D01*
X0143531Y0097398D01*
X0143552Y0097302D01*
X0143569Y0097205D01*
X0143583Y0097108D01*
X0143592Y0097010D01*
X0143598Y0096912D01*
X0143600Y0096814D01*
X0145433Y0098582D02*
X0146650Y0099800D01*
X0141650Y0094800D02*
X0140433Y0093582D01*
X0139700Y0091814D02*
X0139700Y0078063D01*
X0138600Y0077608D02*
X0138600Y0091814D01*
X0137868Y0093582D02*
X0136650Y0094800D01*
X0134700Y0096814D02*
X0134702Y0096912D01*
X0134708Y0097010D01*
X0134717Y0097108D01*
X0134731Y0097205D01*
X0134748Y0097302D01*
X0134769Y0097398D01*
X0134794Y0097493D01*
X0134822Y0097587D01*
X0134855Y0097679D01*
X0134890Y0097771D01*
X0134930Y0097861D01*
X0134972Y0097949D01*
X0135019Y0098036D01*
X0135068Y0098120D01*
X0135121Y0098203D01*
X0135177Y0098283D01*
X0135237Y0098362D01*
X0135299Y0098438D01*
X0135364Y0098511D01*
X0135432Y0098582D01*
X0135433Y0098582D02*
X0136650Y0099800D01*
X0132868Y0098582D02*
X0131650Y0099800D01*
X0132868Y0098582D02*
X0132936Y0098511D01*
X0133001Y0098438D01*
X0133063Y0098362D01*
X0133123Y0098283D01*
X0133179Y0098203D01*
X0133232Y0098120D01*
X0133281Y0098036D01*
X0133328Y0097949D01*
X0133370Y0097861D01*
X0133410Y0097771D01*
X0133445Y0097679D01*
X0133478Y0097587D01*
X0133506Y0097493D01*
X0133531Y0097398D01*
X0133552Y0097302D01*
X0133569Y0097205D01*
X0133583Y0097108D01*
X0133592Y0097010D01*
X0133598Y0096912D01*
X0133600Y0096814D01*
X0131650Y0094800D02*
X0130433Y0093582D01*
X0130432Y0093582D02*
X0130364Y0093511D01*
X0130299Y0093438D01*
X0130237Y0093362D01*
X0130177Y0093283D01*
X0130121Y0093203D01*
X0130068Y0093120D01*
X0130019Y0093036D01*
X0129972Y0092949D01*
X0129930Y0092861D01*
X0129890Y0092771D01*
X0129855Y0092679D01*
X0129822Y0092587D01*
X0129794Y0092493D01*
X0129769Y0092398D01*
X0129748Y0092302D01*
X0129731Y0092205D01*
X0129717Y0092108D01*
X0129708Y0092010D01*
X0129702Y0091912D01*
X0129700Y0091814D01*
X0127868Y0093582D02*
X0126650Y0094800D01*
X0124700Y0096814D02*
X0124702Y0096912D01*
X0124708Y0097010D01*
X0124717Y0097108D01*
X0124731Y0097205D01*
X0124748Y0097302D01*
X0124769Y0097398D01*
X0124794Y0097493D01*
X0124822Y0097587D01*
X0124855Y0097679D01*
X0124890Y0097771D01*
X0124930Y0097861D01*
X0124972Y0097949D01*
X0125019Y0098036D01*
X0125068Y0098120D01*
X0125121Y0098203D01*
X0125177Y0098283D01*
X0125237Y0098362D01*
X0125299Y0098438D01*
X0125364Y0098511D01*
X0125432Y0098582D01*
X0125433Y0098582D02*
X0126650Y0099800D01*
X0122868Y0098582D02*
X0121650Y0099800D01*
X0122868Y0098582D02*
X0122936Y0098511D01*
X0123001Y0098438D01*
X0123063Y0098362D01*
X0123123Y0098283D01*
X0123179Y0098203D01*
X0123232Y0098120D01*
X0123281Y0098036D01*
X0123328Y0097949D01*
X0123370Y0097861D01*
X0123410Y0097771D01*
X0123445Y0097679D01*
X0123478Y0097587D01*
X0123506Y0097493D01*
X0123531Y0097398D01*
X0123552Y0097302D01*
X0123569Y0097205D01*
X0123583Y0097108D01*
X0123592Y0097010D01*
X0123598Y0096912D01*
X0123600Y0096814D01*
X0127868Y0093582D02*
X0127936Y0093511D01*
X0128001Y0093438D01*
X0128063Y0093362D01*
X0128123Y0093283D01*
X0128179Y0093203D01*
X0128232Y0093120D01*
X0128281Y0093036D01*
X0128328Y0092949D01*
X0128370Y0092861D01*
X0128410Y0092771D01*
X0128445Y0092679D01*
X0128478Y0092587D01*
X0128506Y0092493D01*
X0128531Y0092398D01*
X0128552Y0092302D01*
X0128569Y0092205D01*
X0128583Y0092108D01*
X0128592Y0092010D01*
X0128598Y0091912D01*
X0128600Y0091814D01*
X0137868Y0093582D02*
X0137936Y0093511D01*
X0138001Y0093438D01*
X0138063Y0093362D01*
X0138123Y0093283D01*
X0138179Y0093203D01*
X0138232Y0093120D01*
X0138281Y0093036D01*
X0138328Y0092949D01*
X0138370Y0092861D01*
X0138410Y0092771D01*
X0138445Y0092679D01*
X0138478Y0092587D01*
X0138506Y0092493D01*
X0138531Y0092398D01*
X0138552Y0092302D01*
X0138569Y0092205D01*
X0138583Y0092108D01*
X0138592Y0092010D01*
X0138598Y0091912D01*
X0138600Y0091814D01*
X0139700Y0091814D02*
X0139702Y0091912D01*
X0139708Y0092010D01*
X0139717Y0092108D01*
X0139731Y0092205D01*
X0139748Y0092302D01*
X0139769Y0092398D01*
X0139794Y0092493D01*
X0139822Y0092587D01*
X0139855Y0092679D01*
X0139890Y0092771D01*
X0139930Y0092861D01*
X0139972Y0092949D01*
X0140019Y0093036D01*
X0140068Y0093120D01*
X0140121Y0093203D01*
X0140177Y0093283D01*
X0140237Y0093362D01*
X0140299Y0093438D01*
X0140364Y0093511D01*
X0140432Y0093582D01*
X0143600Y0080108D02*
X0143602Y0080010D01*
X0143608Y0079912D01*
X0143617Y0079814D01*
X0143631Y0079717D01*
X0143648Y0079620D01*
X0143669Y0079524D01*
X0143694Y0079429D01*
X0143722Y0079335D01*
X0143755Y0079243D01*
X0143790Y0079151D01*
X0143830Y0079061D01*
X0143872Y0078973D01*
X0143919Y0078886D01*
X0143968Y0078802D01*
X0144021Y0078719D01*
X0144077Y0078639D01*
X0144137Y0078560D01*
X0144199Y0078484D01*
X0144264Y0078411D01*
X0144332Y0078340D01*
X0144333Y0078340D02*
X0147368Y0075304D01*
X0148468Y0075760D02*
X0145433Y0078796D01*
X0145432Y0078795D02*
X0145364Y0078866D01*
X0145299Y0078939D01*
X0145237Y0079015D01*
X0145177Y0079094D01*
X0145121Y0079174D01*
X0145068Y0079257D01*
X0145019Y0079341D01*
X0144972Y0079428D01*
X0144930Y0079516D01*
X0144890Y0079606D01*
X0144855Y0079698D01*
X0144822Y0079790D01*
X0144794Y0079884D01*
X0144769Y0079979D01*
X0144748Y0080075D01*
X0144731Y0080172D01*
X0144717Y0080269D01*
X0144708Y0080367D01*
X0144702Y0080465D01*
X0144700Y0080563D01*
X0139700Y0078063D02*
X0139702Y0077965D01*
X0139708Y0077867D01*
X0139717Y0077769D01*
X0139731Y0077672D01*
X0139748Y0077575D01*
X0139769Y0077479D01*
X0139794Y0077384D01*
X0139822Y0077290D01*
X0139855Y0077198D01*
X0139890Y0077106D01*
X0139930Y0077016D01*
X0139972Y0076928D01*
X0140019Y0076841D01*
X0140068Y0076757D01*
X0140121Y0076674D01*
X0140177Y0076594D01*
X0140237Y0076515D01*
X0140299Y0076439D01*
X0140364Y0076366D01*
X0140432Y0076295D01*
X0140433Y0076296D02*
X0142468Y0074260D01*
X0141368Y0073804D02*
X0139333Y0075840D01*
X0139332Y0075840D02*
X0139264Y0075911D01*
X0139199Y0075984D01*
X0139137Y0076060D01*
X0139077Y0076139D01*
X0139021Y0076219D01*
X0138968Y0076302D01*
X0138919Y0076386D01*
X0138872Y0076473D01*
X0138830Y0076561D01*
X0138790Y0076651D01*
X0138755Y0076743D01*
X0138722Y0076835D01*
X0138694Y0076929D01*
X0138669Y0077024D01*
X0138648Y0077120D01*
X0138631Y0077217D01*
X0138617Y0077314D01*
X0138608Y0077412D01*
X0138602Y0077510D01*
X0138600Y0077608D01*
X0142468Y0074260D02*
X0142536Y0074189D01*
X0142601Y0074116D01*
X0142663Y0074040D01*
X0142723Y0073961D01*
X0142779Y0073881D01*
X0142832Y0073798D01*
X0142881Y0073714D01*
X0142928Y0073627D01*
X0142970Y0073539D01*
X0143010Y0073449D01*
X0143045Y0073357D01*
X0143078Y0073265D01*
X0143106Y0073171D01*
X0143131Y0073076D01*
X0143152Y0072980D01*
X0143169Y0072883D01*
X0143183Y0072786D01*
X0143192Y0072688D01*
X0143198Y0072590D01*
X0143200Y0072492D01*
X0148100Y0073537D02*
X0148098Y0073635D01*
X0148092Y0073733D01*
X0148083Y0073831D01*
X0148069Y0073928D01*
X0148052Y0074025D01*
X0148031Y0074121D01*
X0148006Y0074216D01*
X0147978Y0074310D01*
X0147945Y0074402D01*
X0147910Y0074494D01*
X0147870Y0074584D01*
X0147828Y0074672D01*
X0147781Y0074759D01*
X0147732Y0074843D01*
X0147679Y0074926D01*
X0147623Y0075006D01*
X0147563Y0075085D01*
X0147501Y0075161D01*
X0147436Y0075234D01*
X0147368Y0075305D01*
X0148468Y0075760D02*
X0148536Y0075689D01*
X0148601Y0075616D01*
X0148663Y0075540D01*
X0148723Y0075461D01*
X0148779Y0075381D01*
X0148832Y0075298D01*
X0148881Y0075214D01*
X0148928Y0075127D01*
X0148970Y0075039D01*
X0149010Y0074949D01*
X0149045Y0074857D01*
X0149078Y0074765D01*
X0149106Y0074671D01*
X0149131Y0074576D01*
X0149152Y0074480D01*
X0149169Y0074383D01*
X0149183Y0074286D01*
X0149192Y0074188D01*
X0149198Y0074090D01*
X0149200Y0073992D01*
X0142100Y0072037D02*
X0142098Y0072135D01*
X0142092Y0072233D01*
X0142083Y0072331D01*
X0142069Y0072428D01*
X0142052Y0072525D01*
X0142031Y0072621D01*
X0142006Y0072716D01*
X0141978Y0072810D01*
X0141945Y0072902D01*
X0141910Y0072994D01*
X0141870Y0073084D01*
X0141828Y0073172D01*
X0141781Y0073259D01*
X0141732Y0073343D01*
X0141679Y0073426D01*
X0141623Y0073506D01*
X0141563Y0073585D01*
X0141501Y0073661D01*
X0141436Y0073734D01*
X0141368Y0073805D01*
X0159600Y0065507D02*
X0159598Y0065463D01*
X0159592Y0065420D01*
X0159583Y0065378D01*
X0159570Y0065336D01*
X0159553Y0065296D01*
X0159533Y0065257D01*
X0159510Y0065220D01*
X0159483Y0065186D01*
X0159454Y0065153D01*
X0159454Y0065154D02*
X0159336Y0065036D01*
X0159190Y0064682D02*
X0159190Y0064300D01*
X0159190Y0064682D02*
X0159192Y0064726D01*
X0159198Y0064769D01*
X0159207Y0064811D01*
X0159220Y0064853D01*
X0159237Y0064893D01*
X0159257Y0064932D01*
X0159280Y0064969D01*
X0159307Y0065003D01*
X0159336Y0065036D01*
X0118468Y0074260D02*
X0115433Y0077296D01*
X0114333Y0076840D02*
X0117368Y0073804D01*
X0118468Y0074260D02*
X0118536Y0074189D01*
X0118601Y0074116D01*
X0118663Y0074040D01*
X0118723Y0073961D01*
X0118779Y0073881D01*
X0118832Y0073798D01*
X0118881Y0073714D01*
X0118928Y0073627D01*
X0118970Y0073539D01*
X0119010Y0073449D01*
X0119045Y0073357D01*
X0119078Y0073265D01*
X0119106Y0073171D01*
X0119131Y0073076D01*
X0119152Y0072980D01*
X0119169Y0072883D01*
X0119183Y0072786D01*
X0119192Y0072688D01*
X0119198Y0072590D01*
X0119200Y0072492D01*
X0118100Y0072037D02*
X0118098Y0072135D01*
X0118092Y0072233D01*
X0118083Y0072331D01*
X0118069Y0072428D01*
X0118052Y0072525D01*
X0118031Y0072621D01*
X0118006Y0072716D01*
X0117978Y0072810D01*
X0117945Y0072902D01*
X0117910Y0072994D01*
X0117870Y0073084D01*
X0117828Y0073172D01*
X0117781Y0073259D01*
X0117732Y0073343D01*
X0117679Y0073426D01*
X0117623Y0073506D01*
X0117563Y0073585D01*
X0117501Y0073661D01*
X0117436Y0073734D01*
X0117368Y0073805D01*
X0114332Y0076840D02*
X0114264Y0076911D01*
X0114199Y0076984D01*
X0114137Y0077060D01*
X0114077Y0077139D01*
X0114021Y0077219D01*
X0113968Y0077302D01*
X0113919Y0077386D01*
X0113872Y0077473D01*
X0113830Y0077561D01*
X0113790Y0077651D01*
X0113755Y0077743D01*
X0113722Y0077835D01*
X0113694Y0077929D01*
X0113669Y0078024D01*
X0113648Y0078120D01*
X0113631Y0078217D01*
X0113617Y0078314D01*
X0113608Y0078412D01*
X0113602Y0078510D01*
X0113600Y0078608D01*
X0108600Y0076108D02*
X0108602Y0076010D01*
X0108608Y0075912D01*
X0108617Y0075814D01*
X0108631Y0075717D01*
X0108648Y0075620D01*
X0108669Y0075524D01*
X0108694Y0075429D01*
X0108722Y0075335D01*
X0108755Y0075243D01*
X0108790Y0075151D01*
X0108830Y0075061D01*
X0108872Y0074973D01*
X0108919Y0074886D01*
X0108968Y0074802D01*
X0109021Y0074719D01*
X0109077Y0074639D01*
X0109137Y0074560D01*
X0109199Y0074484D01*
X0109264Y0074411D01*
X0109332Y0074340D01*
X0112968Y0072260D02*
X0113036Y0072189D01*
X0113101Y0072116D01*
X0113163Y0072040D01*
X0113223Y0071961D01*
X0113279Y0071881D01*
X0113332Y0071798D01*
X0113381Y0071714D01*
X0113428Y0071627D01*
X0113470Y0071539D01*
X0113510Y0071449D01*
X0113545Y0071357D01*
X0113578Y0071265D01*
X0113606Y0071171D01*
X0113631Y0071076D01*
X0113652Y0070980D01*
X0113669Y0070883D01*
X0113683Y0070786D01*
X0113692Y0070688D01*
X0113698Y0070590D01*
X0113700Y0070492D01*
X0112600Y0070037D02*
X0112598Y0070135D01*
X0112592Y0070233D01*
X0112583Y0070331D01*
X0112569Y0070428D01*
X0112552Y0070525D01*
X0112531Y0070621D01*
X0112506Y0070716D01*
X0112478Y0070810D01*
X0112445Y0070902D01*
X0112410Y0070994D01*
X0112370Y0071084D01*
X0112328Y0071172D01*
X0112281Y0071259D01*
X0112232Y0071343D01*
X0112179Y0071426D01*
X0112123Y0071506D01*
X0112063Y0071585D01*
X0112001Y0071661D01*
X0111936Y0071734D01*
X0111868Y0071805D01*
X0115432Y0077295D02*
X0115364Y0077366D01*
X0115299Y0077439D01*
X0115237Y0077515D01*
X0115177Y0077594D01*
X0115121Y0077674D01*
X0115068Y0077757D01*
X0115019Y0077841D01*
X0114972Y0077928D01*
X0114930Y0078016D01*
X0114890Y0078106D01*
X0114855Y0078198D01*
X0114822Y0078290D01*
X0114794Y0078384D01*
X0114769Y0078479D01*
X0114748Y0078575D01*
X0114731Y0078672D01*
X0114717Y0078769D01*
X0114708Y0078867D01*
X0114702Y0078965D01*
X0114700Y0079063D01*
X0116650Y0204800D02*
X0115433Y0206018D01*
X0114700Y0207786D02*
X0114700Y0232072D01*
X0115200Y0232572D01*
X0115200Y0239093D01*
X0115347Y0239446D02*
X0115883Y0239982D01*
X0115883Y0240300D01*
X0115346Y0239447D02*
X0115317Y0239414D01*
X0115290Y0239380D01*
X0115267Y0239343D01*
X0115247Y0239304D01*
X0115230Y0239264D01*
X0115217Y0239222D01*
X0115208Y0239180D01*
X0115202Y0239137D01*
X0115200Y0239093D01*
X0114100Y0239093D02*
X0114100Y0233028D01*
X0113600Y0232528D01*
X0113600Y0207786D01*
X0112868Y0206018D02*
X0111650Y0204800D01*
X0112868Y0206018D02*
X0112936Y0206089D01*
X0113001Y0206162D01*
X0113063Y0206238D01*
X0113123Y0206317D01*
X0113179Y0206397D01*
X0113232Y0206480D01*
X0113281Y0206564D01*
X0113328Y0206651D01*
X0113370Y0206739D01*
X0113410Y0206829D01*
X0113445Y0206921D01*
X0113478Y0207013D01*
X0113506Y0207107D01*
X0113531Y0207202D01*
X0113552Y0207298D01*
X0113569Y0207395D01*
X0113583Y0207492D01*
X0113592Y0207590D01*
X0113598Y0207688D01*
X0113600Y0207786D01*
X0111650Y0209800D02*
X0110433Y0211018D01*
X0109700Y0212786D02*
X0109700Y0238593D01*
X0109702Y0238637D01*
X0109708Y0238680D01*
X0109717Y0238722D01*
X0109730Y0238764D01*
X0109747Y0238804D01*
X0109767Y0238843D01*
X0109790Y0238880D01*
X0109817Y0238914D01*
X0109846Y0238947D01*
X0109977Y0239261D02*
X0109977Y0240300D01*
X0109977Y0239261D02*
X0109975Y0239222D01*
X0109970Y0239184D01*
X0109962Y0239146D01*
X0109950Y0239109D01*
X0109935Y0239073D01*
X0109917Y0239039D01*
X0109897Y0239006D01*
X0109873Y0238975D01*
X0109847Y0238946D01*
X0108600Y0238593D02*
X0108600Y0212786D01*
X0107868Y0211018D02*
X0106650Y0209800D01*
X0104700Y0207786D02*
X0104702Y0207688D01*
X0104708Y0207590D01*
X0104717Y0207492D01*
X0104731Y0207395D01*
X0104748Y0207298D01*
X0104769Y0207202D01*
X0104794Y0207107D01*
X0104822Y0207013D01*
X0104855Y0206921D01*
X0104890Y0206829D01*
X0104930Y0206739D01*
X0104972Y0206651D01*
X0105019Y0206564D01*
X0105068Y0206480D01*
X0105121Y0206397D01*
X0105177Y0206317D01*
X0105237Y0206238D01*
X0105299Y0206162D01*
X0105364Y0206089D01*
X0105432Y0206018D01*
X0105433Y0206018D02*
X0106650Y0204800D01*
X0104700Y0207786D02*
X0104700Y0222992D01*
X0103600Y0222537D02*
X0103600Y0207786D01*
X0102868Y0206018D02*
X0101650Y0204800D01*
X0102868Y0206018D02*
X0102936Y0206089D01*
X0103001Y0206162D01*
X0103063Y0206238D01*
X0103123Y0206317D01*
X0103179Y0206397D01*
X0103232Y0206480D01*
X0103281Y0206564D01*
X0103328Y0206651D01*
X0103370Y0206739D01*
X0103410Y0206829D01*
X0103445Y0206921D01*
X0103478Y0207013D01*
X0103506Y0207107D01*
X0103531Y0207202D01*
X0103552Y0207298D01*
X0103569Y0207395D01*
X0103583Y0207492D01*
X0103592Y0207590D01*
X0103598Y0207688D01*
X0103600Y0207786D01*
X0107868Y0211018D02*
X0107936Y0211089D01*
X0108001Y0211162D01*
X0108063Y0211238D01*
X0108123Y0211317D01*
X0108179Y0211397D01*
X0108232Y0211480D01*
X0108281Y0211564D01*
X0108328Y0211651D01*
X0108370Y0211739D01*
X0108410Y0211829D01*
X0108445Y0211921D01*
X0108478Y0212013D01*
X0108506Y0212107D01*
X0108531Y0212202D01*
X0108552Y0212298D01*
X0108569Y0212395D01*
X0108583Y0212492D01*
X0108592Y0212590D01*
X0108598Y0212688D01*
X0108600Y0212786D01*
X0109700Y0212786D02*
X0109702Y0212688D01*
X0109708Y0212590D01*
X0109717Y0212492D01*
X0109731Y0212395D01*
X0109748Y0212298D01*
X0109769Y0212202D01*
X0109794Y0212107D01*
X0109822Y0212013D01*
X0109855Y0211921D01*
X0109890Y0211829D01*
X0109930Y0211739D01*
X0109972Y0211651D01*
X0110019Y0211564D01*
X0110068Y0211480D01*
X0110121Y0211397D01*
X0110177Y0211317D01*
X0110237Y0211238D01*
X0110299Y0211162D01*
X0110364Y0211089D01*
X0110432Y0211018D01*
X0114700Y0207786D02*
X0114702Y0207688D01*
X0114708Y0207590D01*
X0114717Y0207492D01*
X0114731Y0207395D01*
X0114748Y0207298D01*
X0114769Y0207202D01*
X0114794Y0207107D01*
X0114822Y0207013D01*
X0114855Y0206921D01*
X0114890Y0206829D01*
X0114930Y0206739D01*
X0114972Y0206651D01*
X0115019Y0206564D01*
X0115068Y0206480D01*
X0115121Y0206397D01*
X0115177Y0206317D01*
X0115237Y0206238D01*
X0115299Y0206162D01*
X0115364Y0206089D01*
X0115432Y0206018D01*
X0122868Y0206018D02*
X0122936Y0206089D01*
X0123001Y0206162D01*
X0123063Y0206238D01*
X0123123Y0206317D01*
X0123179Y0206397D01*
X0123232Y0206480D01*
X0123281Y0206564D01*
X0123328Y0206651D01*
X0123370Y0206739D01*
X0123410Y0206829D01*
X0123445Y0206921D01*
X0123478Y0207013D01*
X0123506Y0207107D01*
X0123531Y0207202D01*
X0123552Y0207298D01*
X0123569Y0207395D01*
X0123583Y0207492D01*
X0123592Y0207590D01*
X0123598Y0207688D01*
X0123600Y0207786D01*
X0123600Y0224537D01*
X0124700Y0224992D02*
X0124700Y0207786D01*
X0125433Y0206018D02*
X0126650Y0204800D01*
X0125432Y0206018D02*
X0125364Y0206089D01*
X0125299Y0206162D01*
X0125237Y0206238D01*
X0125177Y0206317D01*
X0125121Y0206397D01*
X0125068Y0206480D01*
X0125019Y0206564D01*
X0124972Y0206651D01*
X0124930Y0206739D01*
X0124890Y0206829D01*
X0124855Y0206921D01*
X0124822Y0207013D01*
X0124794Y0207107D01*
X0124769Y0207202D01*
X0124748Y0207298D01*
X0124731Y0207395D01*
X0124717Y0207492D01*
X0124708Y0207590D01*
X0124702Y0207688D01*
X0124700Y0207786D01*
X0122868Y0206018D02*
X0121650Y0204800D01*
X0126650Y0209800D02*
X0127868Y0211018D01*
X0128600Y0212786D02*
X0128600Y0227037D01*
X0129700Y0227492D02*
X0129700Y0212786D01*
X0130433Y0211018D02*
X0131650Y0209800D01*
X0133600Y0207786D02*
X0133598Y0207688D01*
X0133592Y0207590D01*
X0133583Y0207492D01*
X0133569Y0207395D01*
X0133552Y0207298D01*
X0133531Y0207202D01*
X0133506Y0207107D01*
X0133478Y0207013D01*
X0133445Y0206921D01*
X0133410Y0206829D01*
X0133370Y0206739D01*
X0133328Y0206651D01*
X0133281Y0206564D01*
X0133232Y0206480D01*
X0133179Y0206397D01*
X0133123Y0206317D01*
X0133063Y0206238D01*
X0133001Y0206162D01*
X0132936Y0206089D01*
X0132868Y0206018D01*
X0131650Y0204800D01*
X0133600Y0207786D02*
X0133600Y0229537D01*
X0134700Y0229992D02*
X0134700Y0207786D01*
X0135433Y0206018D02*
X0136650Y0204800D01*
X0135432Y0206018D02*
X0135364Y0206089D01*
X0135299Y0206162D01*
X0135237Y0206238D01*
X0135177Y0206317D01*
X0135121Y0206397D01*
X0135068Y0206480D01*
X0135019Y0206564D01*
X0134972Y0206651D01*
X0134930Y0206739D01*
X0134890Y0206829D01*
X0134855Y0206921D01*
X0134822Y0207013D01*
X0134794Y0207107D01*
X0134769Y0207202D01*
X0134748Y0207298D01*
X0134731Y0207395D01*
X0134717Y0207492D01*
X0134708Y0207590D01*
X0134702Y0207688D01*
X0134700Y0207786D01*
X0136650Y0209800D02*
X0137868Y0211018D01*
X0138600Y0212786D02*
X0138600Y0232779D01*
X0139700Y0233114D02*
X0139698Y0233174D01*
X0139693Y0233235D01*
X0139684Y0233294D01*
X0139671Y0233353D01*
X0139655Y0233412D01*
X0139635Y0233469D01*
X0139612Y0233524D01*
X0139585Y0233579D01*
X0139556Y0233631D01*
X0139523Y0233682D01*
X0139487Y0233731D01*
X0139449Y0233777D01*
X0139407Y0233821D01*
X0138393Y0233279D02*
X0138351Y0233323D01*
X0138313Y0233369D01*
X0138277Y0233418D01*
X0138244Y0233469D01*
X0138215Y0233521D01*
X0138188Y0233576D01*
X0138165Y0233631D01*
X0138145Y0233688D01*
X0138129Y0233747D01*
X0138116Y0233806D01*
X0138107Y0233865D01*
X0138102Y0233926D01*
X0138100Y0233986D01*
X0138100Y0239093D01*
X0137954Y0239446D02*
X0137683Y0239718D01*
X0137536Y0240071D02*
X0137536Y0241800D01*
X0137536Y0240071D02*
X0137538Y0240027D01*
X0137544Y0239984D01*
X0137553Y0239942D01*
X0137566Y0239900D01*
X0137583Y0239860D01*
X0137603Y0239821D01*
X0137626Y0239784D01*
X0137653Y0239750D01*
X0137682Y0239717D01*
X0137954Y0239447D02*
X0137983Y0239414D01*
X0138010Y0239380D01*
X0138033Y0239343D01*
X0138053Y0239304D01*
X0138070Y0239264D01*
X0138083Y0239222D01*
X0138092Y0239180D01*
X0138098Y0239137D01*
X0138100Y0239093D01*
X0139200Y0239093D02*
X0139200Y0234321D01*
X0139201Y0234321D02*
X0139203Y0234271D01*
X0139208Y0234220D01*
X0139217Y0234171D01*
X0139230Y0234122D01*
X0139246Y0234074D01*
X0139265Y0234027D01*
X0139287Y0233982D01*
X0139313Y0233939D01*
X0139342Y0233897D01*
X0139374Y0233858D01*
X0139408Y0233821D01*
X0139700Y0233114D02*
X0139700Y0212786D01*
X0140433Y0211018D02*
X0141650Y0209800D01*
X0143600Y0207786D02*
X0143598Y0207688D01*
X0143592Y0207590D01*
X0143583Y0207492D01*
X0143569Y0207395D01*
X0143552Y0207298D01*
X0143531Y0207202D01*
X0143506Y0207107D01*
X0143478Y0207013D01*
X0143445Y0206921D01*
X0143410Y0206829D01*
X0143370Y0206739D01*
X0143328Y0206651D01*
X0143281Y0206564D01*
X0143232Y0206480D01*
X0143179Y0206397D01*
X0143123Y0206317D01*
X0143063Y0206238D01*
X0143001Y0206162D01*
X0142936Y0206089D01*
X0142868Y0206018D01*
X0141650Y0204800D01*
X0143600Y0207786D02*
X0143600Y0239093D01*
X0143453Y0239446D02*
X0143447Y0239455D01*
X0143442Y0239465D01*
X0143441Y0239476D01*
X0143442Y0239476D02*
X0143442Y0241800D01*
X0145410Y0240300D02*
X0145410Y0240010D01*
X0144847Y0239446D01*
X0144700Y0239093D02*
X0144700Y0207786D01*
X0145433Y0206018D02*
X0146650Y0204800D01*
X0145432Y0206018D02*
X0145364Y0206089D01*
X0145299Y0206162D01*
X0145237Y0206238D01*
X0145177Y0206317D01*
X0145121Y0206397D01*
X0145068Y0206480D01*
X0145019Y0206564D01*
X0144972Y0206651D01*
X0144930Y0206739D01*
X0144890Y0206829D01*
X0144855Y0206921D01*
X0144822Y0207013D01*
X0144794Y0207107D01*
X0144769Y0207202D01*
X0144748Y0207298D01*
X0144731Y0207395D01*
X0144717Y0207492D01*
X0144708Y0207590D01*
X0144702Y0207688D01*
X0144700Y0207786D01*
X0140432Y0211018D02*
X0140364Y0211089D01*
X0140299Y0211162D01*
X0140237Y0211238D01*
X0140177Y0211317D01*
X0140121Y0211397D01*
X0140068Y0211480D01*
X0140019Y0211564D01*
X0139972Y0211651D01*
X0139930Y0211739D01*
X0139890Y0211829D01*
X0139855Y0211921D01*
X0139822Y0212013D01*
X0139794Y0212107D01*
X0139769Y0212202D01*
X0139748Y0212298D01*
X0139731Y0212395D01*
X0139717Y0212492D01*
X0139708Y0212590D01*
X0139702Y0212688D01*
X0139700Y0212786D01*
X0138600Y0212786D02*
X0138598Y0212688D01*
X0138592Y0212590D01*
X0138583Y0212492D01*
X0138569Y0212395D01*
X0138552Y0212298D01*
X0138531Y0212202D01*
X0138506Y0212107D01*
X0138478Y0212013D01*
X0138445Y0211921D01*
X0138410Y0211829D01*
X0138370Y0211739D01*
X0138328Y0211651D01*
X0138281Y0211564D01*
X0138232Y0211480D01*
X0138179Y0211397D01*
X0138123Y0211317D01*
X0138063Y0211238D01*
X0138001Y0211162D01*
X0137936Y0211089D01*
X0137868Y0211018D01*
X0130432Y0211018D02*
X0130364Y0211089D01*
X0130299Y0211162D01*
X0130237Y0211238D01*
X0130177Y0211317D01*
X0130121Y0211397D01*
X0130068Y0211480D01*
X0130019Y0211564D01*
X0129972Y0211651D01*
X0129930Y0211739D01*
X0129890Y0211829D01*
X0129855Y0211921D01*
X0129822Y0212013D01*
X0129794Y0212107D01*
X0129769Y0212202D01*
X0129748Y0212298D01*
X0129731Y0212395D01*
X0129717Y0212492D01*
X0129708Y0212590D01*
X0129702Y0212688D01*
X0129700Y0212786D01*
X0128600Y0212786D02*
X0128598Y0212688D01*
X0128592Y0212590D01*
X0128583Y0212492D01*
X0128569Y0212395D01*
X0128552Y0212298D01*
X0128531Y0212202D01*
X0128506Y0212107D01*
X0128478Y0212013D01*
X0128445Y0211921D01*
X0128410Y0211829D01*
X0128370Y0211739D01*
X0128328Y0211651D01*
X0128281Y0211564D01*
X0128232Y0211480D01*
X0128179Y0211397D01*
X0128123Y0211317D01*
X0128063Y0211238D01*
X0128001Y0211162D01*
X0127936Y0211089D01*
X0127868Y0211018D01*
X0124700Y0224992D02*
X0124698Y0225090D01*
X0124692Y0225188D01*
X0124683Y0225286D01*
X0124669Y0225383D01*
X0124652Y0225480D01*
X0124631Y0225576D01*
X0124606Y0225671D01*
X0124578Y0225765D01*
X0124545Y0225857D01*
X0124510Y0225949D01*
X0124470Y0226039D01*
X0124428Y0226127D01*
X0124381Y0226214D01*
X0124332Y0226298D01*
X0124279Y0226381D01*
X0124223Y0226461D01*
X0124163Y0226540D01*
X0124101Y0226616D01*
X0124036Y0226689D01*
X0123968Y0226760D01*
X0121933Y0228796D01*
X0120833Y0228340D02*
X0122868Y0226304D01*
X0122868Y0226305D02*
X0122936Y0226234D01*
X0123001Y0226161D01*
X0123063Y0226085D01*
X0123123Y0226006D01*
X0123179Y0225926D01*
X0123232Y0225843D01*
X0123281Y0225759D01*
X0123328Y0225672D01*
X0123370Y0225584D01*
X0123410Y0225494D01*
X0123445Y0225402D01*
X0123478Y0225310D01*
X0123506Y0225216D01*
X0123531Y0225121D01*
X0123552Y0225025D01*
X0123569Y0224928D01*
X0123583Y0224831D01*
X0123592Y0224733D01*
X0123598Y0224635D01*
X0123600Y0224537D01*
X0128600Y0227037D02*
X0128598Y0227135D01*
X0128592Y0227233D01*
X0128583Y0227331D01*
X0128569Y0227428D01*
X0128552Y0227525D01*
X0128531Y0227621D01*
X0128506Y0227716D01*
X0128478Y0227810D01*
X0128445Y0227902D01*
X0128410Y0227994D01*
X0128370Y0228084D01*
X0128328Y0228172D01*
X0128281Y0228259D01*
X0128232Y0228343D01*
X0128179Y0228426D01*
X0128123Y0228506D01*
X0128063Y0228585D01*
X0128001Y0228661D01*
X0127936Y0228734D01*
X0127868Y0228805D01*
X0127868Y0228804D02*
X0126833Y0229840D01*
X0127933Y0230296D02*
X0128968Y0229260D01*
X0132868Y0231305D02*
X0132936Y0231234D01*
X0133001Y0231161D01*
X0133063Y0231085D01*
X0133123Y0231006D01*
X0133179Y0230926D01*
X0133232Y0230843D01*
X0133281Y0230759D01*
X0133328Y0230672D01*
X0133370Y0230584D01*
X0133410Y0230494D01*
X0133445Y0230402D01*
X0133478Y0230310D01*
X0133506Y0230216D01*
X0133531Y0230121D01*
X0133552Y0230025D01*
X0133569Y0229928D01*
X0133583Y0229831D01*
X0133592Y0229733D01*
X0133598Y0229635D01*
X0133600Y0229537D01*
X0134700Y0229992D02*
X0134698Y0230090D01*
X0134692Y0230188D01*
X0134683Y0230286D01*
X0134669Y0230383D01*
X0134652Y0230480D01*
X0134631Y0230576D01*
X0134606Y0230671D01*
X0134578Y0230765D01*
X0134545Y0230857D01*
X0134510Y0230949D01*
X0134470Y0231039D01*
X0134428Y0231127D01*
X0134381Y0231214D01*
X0134332Y0231298D01*
X0134279Y0231381D01*
X0134223Y0231461D01*
X0134163Y0231540D01*
X0134101Y0231616D01*
X0134036Y0231689D01*
X0133968Y0231760D01*
X0133933Y0231796D01*
X0132868Y0231304D02*
X0132833Y0231340D01*
X0132100Y0233108D02*
X0132100Y0239093D01*
X0131954Y0239446D02*
X0131777Y0239623D01*
X0131631Y0239977D02*
X0131631Y0241800D01*
X0131631Y0239977D02*
X0131633Y0239933D01*
X0131639Y0239890D01*
X0131648Y0239848D01*
X0131661Y0239806D01*
X0131678Y0239766D01*
X0131698Y0239727D01*
X0131721Y0239690D01*
X0131748Y0239656D01*
X0131777Y0239623D01*
X0131954Y0239447D02*
X0131983Y0239414D01*
X0132010Y0239380D01*
X0132033Y0239343D01*
X0132053Y0239304D01*
X0132070Y0239264D01*
X0132083Y0239222D01*
X0132092Y0239180D01*
X0132098Y0239137D01*
X0132100Y0239093D01*
X0133200Y0239093D02*
X0133200Y0233563D01*
X0132100Y0233108D02*
X0132102Y0233010D01*
X0132108Y0232912D01*
X0132117Y0232814D01*
X0132131Y0232717D01*
X0132148Y0232620D01*
X0132169Y0232524D01*
X0132194Y0232429D01*
X0132222Y0232335D01*
X0132255Y0232243D01*
X0132290Y0232151D01*
X0132330Y0232061D01*
X0132372Y0231973D01*
X0132419Y0231886D01*
X0132468Y0231802D01*
X0132521Y0231719D01*
X0132577Y0231639D01*
X0132637Y0231560D01*
X0132699Y0231484D01*
X0132764Y0231411D01*
X0132832Y0231340D01*
X0127932Y0230295D02*
X0127864Y0230366D01*
X0127799Y0230439D01*
X0127737Y0230515D01*
X0127677Y0230594D01*
X0127621Y0230674D01*
X0127568Y0230757D01*
X0127519Y0230841D01*
X0127472Y0230928D01*
X0127430Y0231016D01*
X0127390Y0231106D01*
X0127355Y0231198D01*
X0127322Y0231290D01*
X0127294Y0231384D01*
X0127269Y0231479D01*
X0127248Y0231575D01*
X0127231Y0231672D01*
X0127217Y0231769D01*
X0127208Y0231867D01*
X0127202Y0231965D01*
X0127200Y0232063D01*
X0127200Y0239093D01*
X0127347Y0239446D02*
X0127694Y0239793D01*
X0127694Y0240300D01*
X0127346Y0239447D02*
X0127317Y0239414D01*
X0127290Y0239380D01*
X0127267Y0239343D01*
X0127247Y0239304D01*
X0127230Y0239264D01*
X0127217Y0239222D01*
X0127208Y0239180D01*
X0127202Y0239137D01*
X0127200Y0239093D01*
X0126100Y0239093D02*
X0126100Y0231608D01*
X0126102Y0231510D01*
X0126108Y0231412D01*
X0126117Y0231314D01*
X0126131Y0231217D01*
X0126148Y0231120D01*
X0126169Y0231024D01*
X0126194Y0230929D01*
X0126222Y0230835D01*
X0126255Y0230743D01*
X0126290Y0230651D01*
X0126330Y0230561D01*
X0126372Y0230473D01*
X0126419Y0230386D01*
X0126468Y0230302D01*
X0126521Y0230219D01*
X0126577Y0230139D01*
X0126637Y0230060D01*
X0126699Y0229984D01*
X0126764Y0229911D01*
X0126832Y0229840D01*
X0128968Y0229260D02*
X0129036Y0229189D01*
X0129101Y0229116D01*
X0129163Y0229040D01*
X0129223Y0228961D01*
X0129279Y0228881D01*
X0129332Y0228798D01*
X0129381Y0228714D01*
X0129428Y0228627D01*
X0129470Y0228539D01*
X0129510Y0228449D01*
X0129545Y0228357D01*
X0129578Y0228265D01*
X0129606Y0228171D01*
X0129631Y0228076D01*
X0129652Y0227980D01*
X0129669Y0227883D01*
X0129683Y0227786D01*
X0129692Y0227688D01*
X0129698Y0227590D01*
X0129700Y0227492D01*
X0121932Y0228795D02*
X0121864Y0228866D01*
X0121799Y0228939D01*
X0121737Y0229015D01*
X0121677Y0229094D01*
X0121621Y0229174D01*
X0121568Y0229257D01*
X0121519Y0229341D01*
X0121472Y0229428D01*
X0121430Y0229516D01*
X0121390Y0229606D01*
X0121355Y0229698D01*
X0121322Y0229790D01*
X0121294Y0229884D01*
X0121269Y0229979D01*
X0121248Y0230075D01*
X0121231Y0230172D01*
X0121217Y0230269D01*
X0121208Y0230367D01*
X0121202Y0230465D01*
X0121200Y0230563D01*
X0121200Y0239093D01*
X0121347Y0239446D02*
X0121788Y0239888D01*
X0121788Y0240300D01*
X0121346Y0239447D02*
X0121317Y0239414D01*
X0121290Y0239380D01*
X0121267Y0239343D01*
X0121247Y0239304D01*
X0121230Y0239264D01*
X0121217Y0239222D01*
X0121208Y0239180D01*
X0121202Y0239137D01*
X0121200Y0239093D01*
X0120100Y0239093D02*
X0120100Y0230108D01*
X0120102Y0230010D01*
X0120108Y0229912D01*
X0120117Y0229814D01*
X0120131Y0229717D01*
X0120148Y0229620D01*
X0120169Y0229524D01*
X0120194Y0229429D01*
X0120222Y0229335D01*
X0120255Y0229243D01*
X0120290Y0229151D01*
X0120330Y0229061D01*
X0120372Y0228973D01*
X0120419Y0228886D01*
X0120468Y0228802D01*
X0120521Y0228719D01*
X0120577Y0228639D01*
X0120637Y0228560D01*
X0120699Y0228484D01*
X0120764Y0228411D01*
X0120832Y0228340D01*
X0120100Y0239093D02*
X0120098Y0239137D01*
X0120092Y0239180D01*
X0120083Y0239222D01*
X0120070Y0239264D01*
X0120053Y0239304D01*
X0120033Y0239343D01*
X0120010Y0239380D01*
X0119983Y0239414D01*
X0119954Y0239447D01*
X0119820Y0239771D02*
X0119820Y0241800D01*
X0119820Y0239771D02*
X0119822Y0239731D01*
X0119827Y0239691D01*
X0119836Y0239652D01*
X0119848Y0239614D01*
X0119863Y0239577D01*
X0119881Y0239542D01*
X0119903Y0239508D01*
X0119927Y0239477D01*
X0119954Y0239447D01*
X0125954Y0239447D02*
X0125983Y0239414D01*
X0126010Y0239380D01*
X0126033Y0239343D01*
X0126053Y0239304D01*
X0126070Y0239264D01*
X0126083Y0239222D01*
X0126092Y0239180D01*
X0126098Y0239137D01*
X0126100Y0239093D01*
X0125954Y0239446D02*
X0125872Y0239529D01*
X0125725Y0239882D02*
X0125725Y0241800D01*
X0125725Y0239882D02*
X0125727Y0239838D01*
X0125733Y0239795D01*
X0125742Y0239753D01*
X0125755Y0239711D01*
X0125772Y0239671D01*
X0125792Y0239632D01*
X0125815Y0239595D01*
X0125842Y0239561D01*
X0125871Y0239528D01*
X0133347Y0239446D02*
X0133599Y0239699D01*
X0133599Y0240300D01*
X0133346Y0239447D02*
X0133317Y0239414D01*
X0133290Y0239380D01*
X0133267Y0239343D01*
X0133247Y0239304D01*
X0133230Y0239264D01*
X0133217Y0239222D01*
X0133208Y0239180D01*
X0133202Y0239137D01*
X0133200Y0239093D01*
X0133200Y0233563D02*
X0133202Y0233465D01*
X0133208Y0233367D01*
X0133217Y0233269D01*
X0133231Y0233172D01*
X0133248Y0233075D01*
X0133269Y0232979D01*
X0133294Y0232884D01*
X0133322Y0232790D01*
X0133355Y0232698D01*
X0133390Y0232606D01*
X0133430Y0232516D01*
X0133472Y0232428D01*
X0133519Y0232341D01*
X0133568Y0232257D01*
X0133621Y0232174D01*
X0133677Y0232094D01*
X0133737Y0232015D01*
X0133799Y0231939D01*
X0133864Y0231866D01*
X0133932Y0231795D01*
X0138393Y0233279D02*
X0138427Y0233242D01*
X0138459Y0233203D01*
X0138488Y0233161D01*
X0138514Y0233118D01*
X0138536Y0233073D01*
X0138555Y0233026D01*
X0138571Y0232978D01*
X0138584Y0232929D01*
X0138593Y0232880D01*
X0138598Y0232829D01*
X0138600Y0232779D01*
X0139200Y0239093D02*
X0139202Y0239137D01*
X0139208Y0239180D01*
X0139217Y0239222D01*
X0139230Y0239264D01*
X0139247Y0239304D01*
X0139267Y0239343D01*
X0139290Y0239380D01*
X0139317Y0239414D01*
X0139346Y0239447D01*
X0139347Y0239446D02*
X0139505Y0239604D01*
X0139505Y0240300D01*
X0143454Y0239447D02*
X0143483Y0239414D01*
X0143510Y0239380D01*
X0143533Y0239343D01*
X0143553Y0239304D01*
X0143570Y0239264D01*
X0143583Y0239222D01*
X0143592Y0239180D01*
X0143598Y0239137D01*
X0143600Y0239093D01*
X0144700Y0239093D02*
X0144702Y0239137D01*
X0144708Y0239180D01*
X0144717Y0239222D01*
X0144730Y0239264D01*
X0144747Y0239304D01*
X0144767Y0239343D01*
X0144790Y0239380D01*
X0144817Y0239414D01*
X0144846Y0239447D01*
X0149454Y0239447D02*
X0149483Y0239414D01*
X0149510Y0239380D01*
X0149533Y0239343D01*
X0149553Y0239304D01*
X0149570Y0239264D01*
X0149583Y0239222D01*
X0149592Y0239180D01*
X0149598Y0239137D01*
X0149600Y0239093D01*
X0149600Y0230108D01*
X0150700Y0230563D02*
X0150700Y0239093D01*
X0150847Y0239446D02*
X0151316Y0239915D01*
X0151316Y0240300D01*
X0150846Y0239447D02*
X0150817Y0239414D01*
X0150790Y0239380D01*
X0150767Y0239343D01*
X0150747Y0239304D01*
X0150730Y0239264D01*
X0150717Y0239222D01*
X0150708Y0239180D01*
X0150702Y0239137D01*
X0150700Y0239093D01*
X0149455Y0239447D02*
X0149431Y0239473D01*
X0149409Y0239502D01*
X0149391Y0239532D01*
X0149376Y0239565D01*
X0149364Y0239598D01*
X0149355Y0239633D01*
X0149350Y0239668D01*
X0149348Y0239704D01*
X0149347Y0239704D02*
X0149347Y0241800D01*
X0155253Y0241800D02*
X0155253Y0239855D01*
X0155399Y0239501D02*
X0155454Y0239446D01*
X0155600Y0239093D02*
X0155600Y0231608D01*
X0156700Y0232063D02*
X0156700Y0239093D01*
X0156847Y0239446D02*
X0157221Y0239821D01*
X0157221Y0240300D01*
X0156846Y0239447D02*
X0156817Y0239414D01*
X0156790Y0239380D01*
X0156767Y0239343D01*
X0156747Y0239304D01*
X0156730Y0239264D01*
X0156717Y0239222D01*
X0156708Y0239180D01*
X0156702Y0239137D01*
X0156700Y0239093D01*
X0155399Y0239501D02*
X0155370Y0239534D01*
X0155343Y0239568D01*
X0155320Y0239605D01*
X0155300Y0239644D01*
X0155283Y0239684D01*
X0155270Y0239726D01*
X0155261Y0239768D01*
X0155255Y0239811D01*
X0155253Y0239855D01*
X0155454Y0239447D02*
X0155483Y0239414D01*
X0155510Y0239380D01*
X0155533Y0239343D01*
X0155553Y0239304D01*
X0155570Y0239264D01*
X0155583Y0239222D01*
X0155592Y0239180D01*
X0155598Y0239137D01*
X0155600Y0239093D01*
X0161454Y0239447D02*
X0161483Y0239414D01*
X0161510Y0239380D01*
X0161533Y0239343D01*
X0161553Y0239304D01*
X0161570Y0239264D01*
X0161583Y0239222D01*
X0161592Y0239180D01*
X0161598Y0239137D01*
X0161600Y0239093D01*
X0161600Y0233108D01*
X0162700Y0233563D02*
X0162700Y0239093D01*
X0162847Y0239446D02*
X0163127Y0239726D01*
X0163127Y0240300D01*
X0162846Y0239447D02*
X0162817Y0239414D01*
X0162790Y0239380D01*
X0162767Y0239343D01*
X0162747Y0239304D01*
X0162730Y0239264D01*
X0162717Y0239222D01*
X0162708Y0239180D01*
X0162702Y0239137D01*
X0162700Y0239093D01*
X0161454Y0239446D02*
X0161305Y0239596D01*
X0161158Y0239949D02*
X0161158Y0241800D01*
X0161158Y0239949D02*
X0161160Y0239905D01*
X0161166Y0239862D01*
X0161175Y0239820D01*
X0161188Y0239778D01*
X0161205Y0239738D01*
X0161225Y0239699D01*
X0161248Y0239662D01*
X0161275Y0239628D01*
X0161304Y0239595D01*
X0167064Y0240044D02*
X0167064Y0241800D01*
X0167064Y0240044D02*
X0167066Y0240000D01*
X0167072Y0239957D01*
X0167081Y0239915D01*
X0167094Y0239873D01*
X0167111Y0239833D01*
X0167131Y0239794D01*
X0167154Y0239757D01*
X0167181Y0239723D01*
X0167210Y0239690D01*
X0167454Y0239446D01*
X0167600Y0239093D02*
X0167600Y0234193D01*
X0168040Y0233133D02*
X0168161Y0233012D01*
X0169261Y0233468D02*
X0169311Y0233414D01*
X0169360Y0233359D01*
X0169405Y0233301D01*
X0169447Y0233240D01*
X0169487Y0233178D01*
X0169523Y0233114D01*
X0169556Y0233048D01*
X0169586Y0232981D01*
X0169612Y0232912D01*
X0169635Y0232842D01*
X0169655Y0232771D01*
X0169671Y0232700D01*
X0169684Y0232627D01*
X0169693Y0232554D01*
X0169698Y0232481D01*
X0169700Y0232407D01*
X0169700Y0212786D01*
X0168600Y0212786D02*
X0168600Y0231951D01*
X0168598Y0232025D01*
X0168593Y0232098D01*
X0168584Y0232171D01*
X0168571Y0232244D01*
X0168555Y0232315D01*
X0168535Y0232386D01*
X0168512Y0232456D01*
X0168486Y0232525D01*
X0168456Y0232592D01*
X0168423Y0232658D01*
X0168387Y0232722D01*
X0168347Y0232784D01*
X0168305Y0232845D01*
X0168260Y0232903D01*
X0168211Y0232958D01*
X0168161Y0233012D01*
X0169140Y0233588D02*
X0169261Y0233467D01*
X0168039Y0233132D02*
X0167989Y0233186D01*
X0167940Y0233241D01*
X0167895Y0233299D01*
X0167853Y0233360D01*
X0167813Y0233422D01*
X0167777Y0233486D01*
X0167744Y0233552D01*
X0167714Y0233619D01*
X0167688Y0233688D01*
X0167665Y0233758D01*
X0167645Y0233829D01*
X0167629Y0233900D01*
X0167616Y0233973D01*
X0167607Y0234046D01*
X0167602Y0234119D01*
X0167600Y0234193D01*
X0168700Y0234649D02*
X0168700Y0239093D01*
X0168847Y0239446D02*
X0169032Y0239632D01*
X0169032Y0240300D01*
X0168846Y0239447D02*
X0168817Y0239414D01*
X0168790Y0239380D01*
X0168767Y0239343D01*
X0168747Y0239304D01*
X0168730Y0239264D01*
X0168717Y0239222D01*
X0168708Y0239180D01*
X0168702Y0239137D01*
X0168700Y0239093D01*
X0167600Y0239093D02*
X0167598Y0239137D01*
X0167592Y0239180D01*
X0167583Y0239222D01*
X0167570Y0239264D01*
X0167553Y0239304D01*
X0167533Y0239343D01*
X0167510Y0239380D01*
X0167483Y0239414D01*
X0167454Y0239447D01*
X0168700Y0234649D02*
X0168702Y0234575D01*
X0168707Y0234502D01*
X0168716Y0234429D01*
X0168729Y0234356D01*
X0168745Y0234285D01*
X0168765Y0234214D01*
X0168788Y0234144D01*
X0168814Y0234075D01*
X0168844Y0234008D01*
X0168877Y0233942D01*
X0168913Y0233878D01*
X0168953Y0233816D01*
X0168995Y0233755D01*
X0169040Y0233697D01*
X0169089Y0233642D01*
X0169139Y0233588D01*
X0173307Y0234865D02*
X0173349Y0234821D01*
X0173387Y0234775D01*
X0173423Y0234726D01*
X0173456Y0234675D01*
X0173485Y0234623D01*
X0173512Y0234568D01*
X0173535Y0234513D01*
X0173555Y0234456D01*
X0173571Y0234397D01*
X0173584Y0234338D01*
X0173593Y0234279D01*
X0173598Y0234218D01*
X0173600Y0234158D01*
X0173600Y0207786D01*
X0174700Y0207786D02*
X0174700Y0234614D01*
X0174698Y0234674D01*
X0174693Y0234735D01*
X0174684Y0234794D01*
X0174671Y0234853D01*
X0174655Y0234912D01*
X0174635Y0234969D01*
X0174612Y0235024D01*
X0174585Y0235079D01*
X0174556Y0235131D01*
X0174523Y0235182D01*
X0174487Y0235231D01*
X0174449Y0235277D01*
X0174407Y0235321D01*
X0174200Y0235821D02*
X0174200Y0239093D01*
X0174347Y0239446D02*
X0174938Y0240037D01*
X0174938Y0240300D01*
X0174346Y0239447D02*
X0174317Y0239414D01*
X0174290Y0239380D01*
X0174267Y0239343D01*
X0174247Y0239304D01*
X0174230Y0239264D01*
X0174217Y0239222D01*
X0174208Y0239180D01*
X0174202Y0239137D01*
X0174200Y0239093D01*
X0173100Y0239115D02*
X0173100Y0235365D01*
X0173101Y0235365D02*
X0173103Y0235315D01*
X0173108Y0235264D01*
X0173117Y0235215D01*
X0173130Y0235166D01*
X0173146Y0235118D01*
X0173165Y0235071D01*
X0173187Y0235026D01*
X0173213Y0234983D01*
X0173242Y0234941D01*
X0173274Y0234902D01*
X0173308Y0234865D01*
X0174408Y0235321D02*
X0174374Y0235358D01*
X0174342Y0235397D01*
X0174313Y0235439D01*
X0174287Y0235482D01*
X0174265Y0235527D01*
X0174246Y0235574D01*
X0174230Y0235622D01*
X0174217Y0235671D01*
X0174208Y0235720D01*
X0174203Y0235771D01*
X0174201Y0235821D01*
X0173101Y0239115D02*
X0173099Y0239154D01*
X0173094Y0239193D01*
X0173086Y0239231D01*
X0173074Y0239268D01*
X0173059Y0239304D01*
X0173041Y0239339D01*
X0173020Y0239372D01*
X0172996Y0239403D01*
X0172970Y0239432D01*
X0172969Y0239431D02*
X0172969Y0241800D01*
X0178875Y0241800D02*
X0178875Y0239638D01*
X0178877Y0239608D01*
X0178882Y0239578D01*
X0178890Y0239549D01*
X0178902Y0239521D01*
X0178916Y0239494D01*
X0178934Y0239470D01*
X0178954Y0239447D01*
X0179100Y0239093D02*
X0179100Y0220108D01*
X0180200Y0220563D02*
X0180200Y0239093D01*
X0180347Y0239446D02*
X0180697Y0239796D01*
X0180843Y0240150D02*
X0180843Y0240300D01*
X0180843Y0240150D02*
X0180841Y0240106D01*
X0180835Y0240063D01*
X0180826Y0240021D01*
X0180813Y0239979D01*
X0180796Y0239939D01*
X0180776Y0239900D01*
X0180753Y0239863D01*
X0180726Y0239829D01*
X0180697Y0239796D01*
X0180346Y0239447D02*
X0180317Y0239414D01*
X0180290Y0239380D01*
X0180267Y0239343D01*
X0180247Y0239304D01*
X0180230Y0239264D01*
X0180217Y0239222D01*
X0180208Y0239180D01*
X0180202Y0239137D01*
X0180200Y0239093D01*
X0179100Y0239093D02*
X0179098Y0239137D01*
X0179092Y0239180D01*
X0179083Y0239222D01*
X0179070Y0239264D01*
X0179053Y0239304D01*
X0179033Y0239343D01*
X0179010Y0239380D01*
X0178983Y0239414D01*
X0178954Y0239447D01*
X0184954Y0239447D02*
X0184983Y0239414D01*
X0185010Y0239380D01*
X0185033Y0239343D01*
X0185053Y0239304D01*
X0185070Y0239264D01*
X0185083Y0239222D01*
X0185092Y0239180D01*
X0185098Y0239137D01*
X0185100Y0239093D01*
X0185100Y0222858D01*
X0186200Y0223313D02*
X0186200Y0239093D01*
X0186347Y0239446D02*
X0186749Y0239848D01*
X0186749Y0240300D01*
X0186346Y0239447D02*
X0186317Y0239414D01*
X0186290Y0239380D01*
X0186267Y0239343D01*
X0186247Y0239304D01*
X0186230Y0239264D01*
X0186217Y0239222D01*
X0186208Y0239180D01*
X0186202Y0239137D01*
X0186200Y0239093D01*
X0184926Y0239473D02*
X0184897Y0239506D01*
X0184870Y0239540D01*
X0184847Y0239577D01*
X0184827Y0239616D01*
X0184810Y0239656D01*
X0184797Y0239698D01*
X0184788Y0239740D01*
X0184782Y0239783D01*
X0184780Y0239827D01*
X0184780Y0241800D01*
X0184927Y0239474D02*
X0184954Y0239446D01*
X0190954Y0239447D02*
X0190983Y0239414D01*
X0191010Y0239380D01*
X0191033Y0239343D01*
X0191053Y0239304D01*
X0191070Y0239264D01*
X0191083Y0239222D01*
X0191092Y0239180D01*
X0191098Y0239137D01*
X0191100Y0239093D01*
X0191100Y0225608D01*
X0192200Y0226063D02*
X0192200Y0239093D01*
X0192347Y0239446D02*
X0192654Y0239754D01*
X0192654Y0240300D01*
X0192346Y0239447D02*
X0192317Y0239414D01*
X0192290Y0239380D01*
X0192267Y0239343D01*
X0192247Y0239304D01*
X0192230Y0239264D01*
X0192217Y0239222D01*
X0192208Y0239180D01*
X0192202Y0239137D01*
X0192200Y0239093D01*
X0190954Y0239446D02*
X0190832Y0239568D01*
X0190686Y0239922D02*
X0190686Y0241800D01*
X0190686Y0239922D02*
X0190688Y0239878D01*
X0190694Y0239835D01*
X0190703Y0239793D01*
X0190716Y0239751D01*
X0190733Y0239711D01*
X0190753Y0239672D01*
X0190776Y0239635D01*
X0190803Y0239601D01*
X0190832Y0239568D01*
X0192200Y0226063D02*
X0192202Y0225965D01*
X0192208Y0225867D01*
X0192217Y0225769D01*
X0192231Y0225672D01*
X0192248Y0225575D01*
X0192269Y0225479D01*
X0192294Y0225384D01*
X0192322Y0225290D01*
X0192355Y0225198D01*
X0192390Y0225106D01*
X0192430Y0225016D01*
X0192472Y0224928D01*
X0192519Y0224841D01*
X0192568Y0224757D01*
X0192621Y0224674D01*
X0192677Y0224594D01*
X0192737Y0224515D01*
X0192799Y0224439D01*
X0192864Y0224366D01*
X0192932Y0224295D01*
X0192933Y0224296D02*
X0193968Y0223260D01*
X0192868Y0222804D02*
X0191833Y0223840D01*
X0193968Y0223260D02*
X0194036Y0223189D01*
X0194101Y0223116D01*
X0194163Y0223040D01*
X0194223Y0222961D01*
X0194279Y0222881D01*
X0194332Y0222798D01*
X0194381Y0222714D01*
X0194428Y0222627D01*
X0194470Y0222539D01*
X0194510Y0222449D01*
X0194545Y0222357D01*
X0194578Y0222265D01*
X0194606Y0222171D01*
X0194631Y0222076D01*
X0194652Y0221980D01*
X0194669Y0221883D01*
X0194683Y0221786D01*
X0194692Y0221688D01*
X0194698Y0221590D01*
X0194700Y0221492D01*
X0194700Y0207786D01*
X0193600Y0207786D02*
X0193600Y0221037D01*
X0193598Y0221135D01*
X0193592Y0221233D01*
X0193583Y0221331D01*
X0193569Y0221428D01*
X0193552Y0221525D01*
X0193531Y0221621D01*
X0193506Y0221716D01*
X0193478Y0221810D01*
X0193445Y0221902D01*
X0193410Y0221994D01*
X0193370Y0222084D01*
X0193328Y0222172D01*
X0193281Y0222259D01*
X0193232Y0222343D01*
X0193179Y0222426D01*
X0193123Y0222506D01*
X0193063Y0222585D01*
X0193001Y0222661D01*
X0192936Y0222734D01*
X0192868Y0222805D01*
X0191832Y0223840D02*
X0191764Y0223911D01*
X0191699Y0223984D01*
X0191637Y0224060D01*
X0191577Y0224139D01*
X0191521Y0224219D01*
X0191468Y0224302D01*
X0191419Y0224386D01*
X0191372Y0224473D01*
X0191330Y0224561D01*
X0191290Y0224651D01*
X0191255Y0224743D01*
X0191222Y0224835D01*
X0191194Y0224929D01*
X0191169Y0225024D01*
X0191148Y0225120D01*
X0191131Y0225217D01*
X0191117Y0225314D01*
X0191108Y0225412D01*
X0191102Y0225510D01*
X0191100Y0225608D01*
X0186200Y0223313D02*
X0186202Y0223215D01*
X0186208Y0223117D01*
X0186217Y0223019D01*
X0186231Y0222922D01*
X0186248Y0222825D01*
X0186269Y0222729D01*
X0186294Y0222634D01*
X0186322Y0222540D01*
X0186355Y0222448D01*
X0186390Y0222356D01*
X0186430Y0222266D01*
X0186472Y0222178D01*
X0186519Y0222091D01*
X0186568Y0222007D01*
X0186621Y0221924D01*
X0186677Y0221844D01*
X0186737Y0221765D01*
X0186799Y0221689D01*
X0186864Y0221616D01*
X0186932Y0221545D01*
X0186933Y0221546D02*
X0188968Y0219510D01*
X0187868Y0219054D02*
X0185833Y0221090D01*
X0185832Y0221090D02*
X0185764Y0221161D01*
X0185699Y0221234D01*
X0185637Y0221310D01*
X0185577Y0221389D01*
X0185521Y0221469D01*
X0185468Y0221552D01*
X0185419Y0221636D01*
X0185372Y0221723D01*
X0185330Y0221811D01*
X0185290Y0221901D01*
X0185255Y0221993D01*
X0185222Y0222085D01*
X0185194Y0222179D01*
X0185169Y0222274D01*
X0185148Y0222370D01*
X0185131Y0222467D01*
X0185117Y0222564D01*
X0185108Y0222662D01*
X0185102Y0222760D01*
X0185100Y0222858D01*
X0180200Y0220563D02*
X0180202Y0220465D01*
X0180208Y0220367D01*
X0180217Y0220269D01*
X0180231Y0220172D01*
X0180248Y0220075D01*
X0180269Y0219979D01*
X0180294Y0219884D01*
X0180322Y0219790D01*
X0180355Y0219698D01*
X0180390Y0219606D01*
X0180430Y0219516D01*
X0180472Y0219428D01*
X0180519Y0219341D01*
X0180568Y0219257D01*
X0180621Y0219174D01*
X0180677Y0219094D01*
X0180737Y0219015D01*
X0180799Y0218939D01*
X0180864Y0218866D01*
X0180932Y0218795D01*
X0180933Y0218796D02*
X0183968Y0215760D01*
X0182868Y0215304D02*
X0179833Y0218340D01*
X0179832Y0218340D02*
X0179764Y0218411D01*
X0179699Y0218484D01*
X0179637Y0218560D01*
X0179577Y0218639D01*
X0179521Y0218719D01*
X0179468Y0218802D01*
X0179419Y0218886D01*
X0179372Y0218973D01*
X0179330Y0219061D01*
X0179290Y0219151D01*
X0179255Y0219243D01*
X0179222Y0219335D01*
X0179194Y0219429D01*
X0179169Y0219524D01*
X0179148Y0219620D01*
X0179131Y0219717D01*
X0179117Y0219814D01*
X0179108Y0219912D01*
X0179102Y0220010D01*
X0179100Y0220108D01*
X0183968Y0215760D02*
X0184036Y0215689D01*
X0184101Y0215616D01*
X0184163Y0215540D01*
X0184223Y0215461D01*
X0184279Y0215381D01*
X0184332Y0215298D01*
X0184381Y0215214D01*
X0184428Y0215127D01*
X0184470Y0215039D01*
X0184510Y0214949D01*
X0184545Y0214857D01*
X0184578Y0214765D01*
X0184606Y0214671D01*
X0184631Y0214576D01*
X0184652Y0214480D01*
X0184669Y0214383D01*
X0184683Y0214286D01*
X0184692Y0214188D01*
X0184698Y0214090D01*
X0184700Y0213992D01*
X0184700Y0207786D01*
X0183600Y0207786D02*
X0183600Y0213537D01*
X0183598Y0213635D01*
X0183592Y0213733D01*
X0183583Y0213831D01*
X0183569Y0213928D01*
X0183552Y0214025D01*
X0183531Y0214121D01*
X0183506Y0214216D01*
X0183478Y0214310D01*
X0183445Y0214402D01*
X0183410Y0214494D01*
X0183370Y0214584D01*
X0183328Y0214672D01*
X0183281Y0214759D01*
X0183232Y0214843D01*
X0183179Y0214926D01*
X0183123Y0215006D01*
X0183063Y0215085D01*
X0183001Y0215161D01*
X0182936Y0215234D01*
X0182868Y0215305D01*
X0188600Y0217287D02*
X0188598Y0217385D01*
X0188592Y0217483D01*
X0188583Y0217581D01*
X0188569Y0217678D01*
X0188552Y0217775D01*
X0188531Y0217871D01*
X0188506Y0217966D01*
X0188478Y0218060D01*
X0188445Y0218152D01*
X0188410Y0218244D01*
X0188370Y0218334D01*
X0188328Y0218422D01*
X0188281Y0218509D01*
X0188232Y0218593D01*
X0188179Y0218676D01*
X0188123Y0218756D01*
X0188063Y0218835D01*
X0188001Y0218911D01*
X0187936Y0218984D01*
X0187868Y0219055D01*
X0188968Y0219510D02*
X0189036Y0219439D01*
X0189101Y0219366D01*
X0189163Y0219290D01*
X0189223Y0219211D01*
X0189279Y0219131D01*
X0189332Y0219048D01*
X0189381Y0218964D01*
X0189428Y0218877D01*
X0189470Y0218789D01*
X0189510Y0218699D01*
X0189545Y0218607D01*
X0189578Y0218515D01*
X0189606Y0218421D01*
X0189631Y0218326D01*
X0189652Y0218230D01*
X0189669Y0218133D01*
X0189683Y0218036D01*
X0189692Y0217938D01*
X0189698Y0217840D01*
X0189700Y0217742D01*
X0189700Y0212786D01*
X0188600Y0212786D02*
X0188600Y0217287D01*
X0188600Y0212786D02*
X0188598Y0212688D01*
X0188592Y0212590D01*
X0188583Y0212492D01*
X0188569Y0212395D01*
X0188552Y0212298D01*
X0188531Y0212202D01*
X0188506Y0212107D01*
X0188478Y0212013D01*
X0188445Y0211921D01*
X0188410Y0211829D01*
X0188370Y0211739D01*
X0188328Y0211651D01*
X0188281Y0211564D01*
X0188232Y0211480D01*
X0188179Y0211397D01*
X0188123Y0211317D01*
X0188063Y0211238D01*
X0188001Y0211162D01*
X0187936Y0211089D01*
X0187868Y0211018D01*
X0186650Y0209800D01*
X0184700Y0207786D02*
X0184702Y0207688D01*
X0184708Y0207590D01*
X0184717Y0207492D01*
X0184731Y0207395D01*
X0184748Y0207298D01*
X0184769Y0207202D01*
X0184794Y0207107D01*
X0184822Y0207013D01*
X0184855Y0206921D01*
X0184890Y0206829D01*
X0184930Y0206739D01*
X0184972Y0206651D01*
X0185019Y0206564D01*
X0185068Y0206480D01*
X0185121Y0206397D01*
X0185177Y0206317D01*
X0185237Y0206238D01*
X0185299Y0206162D01*
X0185364Y0206089D01*
X0185432Y0206018D01*
X0185433Y0206018D02*
X0186650Y0204800D01*
X0182868Y0206018D02*
X0181650Y0204800D01*
X0182868Y0206018D02*
X0182936Y0206089D01*
X0183001Y0206162D01*
X0183063Y0206238D01*
X0183123Y0206317D01*
X0183179Y0206397D01*
X0183232Y0206480D01*
X0183281Y0206564D01*
X0183328Y0206651D01*
X0183370Y0206739D01*
X0183410Y0206829D01*
X0183445Y0206921D01*
X0183478Y0207013D01*
X0183506Y0207107D01*
X0183531Y0207202D01*
X0183552Y0207298D01*
X0183569Y0207395D01*
X0183583Y0207492D01*
X0183592Y0207590D01*
X0183598Y0207688D01*
X0183600Y0207786D01*
X0175432Y0206018D02*
X0175364Y0206089D01*
X0175299Y0206162D01*
X0175237Y0206238D01*
X0175177Y0206317D01*
X0175121Y0206397D01*
X0175068Y0206480D01*
X0175019Y0206564D01*
X0174972Y0206651D01*
X0174930Y0206739D01*
X0174890Y0206829D01*
X0174855Y0206921D01*
X0174822Y0207013D01*
X0174794Y0207107D01*
X0174769Y0207202D01*
X0174748Y0207298D01*
X0174731Y0207395D01*
X0174717Y0207492D01*
X0174708Y0207590D01*
X0174702Y0207688D01*
X0174700Y0207786D01*
X0175433Y0206018D02*
X0176650Y0204800D01*
X0172868Y0206018D02*
X0171650Y0204800D01*
X0172868Y0206018D02*
X0172936Y0206089D01*
X0173001Y0206162D01*
X0173063Y0206238D01*
X0173123Y0206317D01*
X0173179Y0206397D01*
X0173232Y0206480D01*
X0173281Y0206564D01*
X0173328Y0206651D01*
X0173370Y0206739D01*
X0173410Y0206829D01*
X0173445Y0206921D01*
X0173478Y0207013D01*
X0173506Y0207107D01*
X0173531Y0207202D01*
X0173552Y0207298D01*
X0173569Y0207395D01*
X0173583Y0207492D01*
X0173592Y0207590D01*
X0173598Y0207688D01*
X0173600Y0207786D01*
X0171650Y0209800D02*
X0170433Y0211018D01*
X0170432Y0211018D02*
X0170364Y0211089D01*
X0170299Y0211162D01*
X0170237Y0211238D01*
X0170177Y0211317D01*
X0170121Y0211397D01*
X0170068Y0211480D01*
X0170019Y0211564D01*
X0169972Y0211651D01*
X0169930Y0211739D01*
X0169890Y0211829D01*
X0169855Y0211921D01*
X0169822Y0212013D01*
X0169794Y0212107D01*
X0169769Y0212202D01*
X0169748Y0212298D01*
X0169731Y0212395D01*
X0169717Y0212492D01*
X0169708Y0212590D01*
X0169702Y0212688D01*
X0169700Y0212786D01*
X0167868Y0211018D02*
X0166650Y0209800D01*
X0164700Y0207786D02*
X0164702Y0207688D01*
X0164708Y0207590D01*
X0164717Y0207492D01*
X0164731Y0207395D01*
X0164748Y0207298D01*
X0164769Y0207202D01*
X0164794Y0207107D01*
X0164822Y0207013D01*
X0164855Y0206921D01*
X0164890Y0206829D01*
X0164930Y0206739D01*
X0164972Y0206651D01*
X0165019Y0206564D01*
X0165068Y0206480D01*
X0165121Y0206397D01*
X0165177Y0206317D01*
X0165237Y0206238D01*
X0165299Y0206162D01*
X0165364Y0206089D01*
X0165432Y0206018D01*
X0165433Y0206018D02*
X0166650Y0204800D01*
X0164700Y0207786D02*
X0164700Y0229492D01*
X0163600Y0229037D02*
X0163600Y0207786D01*
X0162868Y0206018D02*
X0161650Y0204800D01*
X0162868Y0206018D02*
X0162936Y0206089D01*
X0163001Y0206162D01*
X0163063Y0206238D01*
X0163123Y0206317D01*
X0163179Y0206397D01*
X0163232Y0206480D01*
X0163281Y0206564D01*
X0163328Y0206651D01*
X0163370Y0206739D01*
X0163410Y0206829D01*
X0163445Y0206921D01*
X0163478Y0207013D01*
X0163506Y0207107D01*
X0163531Y0207202D01*
X0163552Y0207298D01*
X0163569Y0207395D01*
X0163583Y0207492D01*
X0163592Y0207590D01*
X0163598Y0207688D01*
X0163600Y0207786D01*
X0161650Y0209800D02*
X0160433Y0211018D01*
X0159700Y0212786D02*
X0159700Y0226992D01*
X0158600Y0226537D02*
X0158600Y0212786D01*
X0157868Y0211018D02*
X0156650Y0209800D01*
X0154700Y0207786D02*
X0154702Y0207688D01*
X0154708Y0207590D01*
X0154717Y0207492D01*
X0154731Y0207395D01*
X0154748Y0207298D01*
X0154769Y0207202D01*
X0154794Y0207107D01*
X0154822Y0207013D01*
X0154855Y0206921D01*
X0154890Y0206829D01*
X0154930Y0206739D01*
X0154972Y0206651D01*
X0155019Y0206564D01*
X0155068Y0206480D01*
X0155121Y0206397D01*
X0155177Y0206317D01*
X0155237Y0206238D01*
X0155299Y0206162D01*
X0155364Y0206089D01*
X0155432Y0206018D01*
X0155433Y0206018D02*
X0156650Y0204800D01*
X0154700Y0207786D02*
X0154700Y0224492D01*
X0153600Y0224037D02*
X0153600Y0207786D01*
X0152868Y0206018D02*
X0151650Y0204800D01*
X0152868Y0206018D02*
X0152936Y0206089D01*
X0153001Y0206162D01*
X0153063Y0206238D01*
X0153123Y0206317D01*
X0153179Y0206397D01*
X0153232Y0206480D01*
X0153281Y0206564D01*
X0153328Y0206651D01*
X0153370Y0206739D01*
X0153410Y0206829D01*
X0153445Y0206921D01*
X0153478Y0207013D01*
X0153506Y0207107D01*
X0153531Y0207202D01*
X0153552Y0207298D01*
X0153569Y0207395D01*
X0153583Y0207492D01*
X0153592Y0207590D01*
X0153598Y0207688D01*
X0153600Y0207786D01*
X0157868Y0211018D02*
X0157936Y0211089D01*
X0158001Y0211162D01*
X0158063Y0211238D01*
X0158123Y0211317D01*
X0158179Y0211397D01*
X0158232Y0211480D01*
X0158281Y0211564D01*
X0158328Y0211651D01*
X0158370Y0211739D01*
X0158410Y0211829D01*
X0158445Y0211921D01*
X0158478Y0212013D01*
X0158506Y0212107D01*
X0158531Y0212202D01*
X0158552Y0212298D01*
X0158569Y0212395D01*
X0158583Y0212492D01*
X0158592Y0212590D01*
X0158598Y0212688D01*
X0158600Y0212786D01*
X0159700Y0212786D02*
X0159702Y0212688D01*
X0159708Y0212590D01*
X0159717Y0212492D01*
X0159731Y0212395D01*
X0159748Y0212298D01*
X0159769Y0212202D01*
X0159794Y0212107D01*
X0159822Y0212013D01*
X0159855Y0211921D01*
X0159890Y0211829D01*
X0159930Y0211739D01*
X0159972Y0211651D01*
X0160019Y0211564D01*
X0160068Y0211480D01*
X0160121Y0211397D01*
X0160177Y0211317D01*
X0160237Y0211238D01*
X0160299Y0211162D01*
X0160364Y0211089D01*
X0160432Y0211018D01*
X0167868Y0211018D02*
X0167936Y0211089D01*
X0168001Y0211162D01*
X0168063Y0211238D01*
X0168123Y0211317D01*
X0168179Y0211397D01*
X0168232Y0211480D01*
X0168281Y0211564D01*
X0168328Y0211651D01*
X0168370Y0211739D01*
X0168410Y0211829D01*
X0168445Y0211921D01*
X0168478Y0212013D01*
X0168506Y0212107D01*
X0168531Y0212202D01*
X0168552Y0212298D01*
X0168569Y0212395D01*
X0168583Y0212492D01*
X0168592Y0212590D01*
X0168598Y0212688D01*
X0168600Y0212786D01*
X0159700Y0226992D02*
X0159698Y0227090D01*
X0159692Y0227188D01*
X0159683Y0227286D01*
X0159669Y0227383D01*
X0159652Y0227480D01*
X0159631Y0227576D01*
X0159606Y0227671D01*
X0159578Y0227765D01*
X0159545Y0227857D01*
X0159510Y0227949D01*
X0159470Y0228039D01*
X0159428Y0228127D01*
X0159381Y0228214D01*
X0159332Y0228298D01*
X0159279Y0228381D01*
X0159223Y0228461D01*
X0159163Y0228540D01*
X0159101Y0228616D01*
X0159036Y0228689D01*
X0158968Y0228760D01*
X0157433Y0230296D01*
X0156333Y0229840D02*
X0157868Y0228304D01*
X0157868Y0228305D02*
X0157936Y0228234D01*
X0158001Y0228161D01*
X0158063Y0228085D01*
X0158123Y0228006D01*
X0158179Y0227926D01*
X0158232Y0227843D01*
X0158281Y0227759D01*
X0158328Y0227672D01*
X0158370Y0227584D01*
X0158410Y0227494D01*
X0158445Y0227402D01*
X0158478Y0227310D01*
X0158506Y0227216D01*
X0158531Y0227121D01*
X0158552Y0227025D01*
X0158569Y0226928D01*
X0158583Y0226831D01*
X0158592Y0226733D01*
X0158598Y0226635D01*
X0158600Y0226537D01*
X0163600Y0229037D02*
X0163598Y0229135D01*
X0163592Y0229233D01*
X0163583Y0229331D01*
X0163569Y0229428D01*
X0163552Y0229525D01*
X0163531Y0229621D01*
X0163506Y0229716D01*
X0163478Y0229810D01*
X0163445Y0229902D01*
X0163410Y0229994D01*
X0163370Y0230084D01*
X0163328Y0230172D01*
X0163281Y0230259D01*
X0163232Y0230343D01*
X0163179Y0230426D01*
X0163123Y0230506D01*
X0163063Y0230585D01*
X0163001Y0230661D01*
X0162936Y0230734D01*
X0162868Y0230805D01*
X0162868Y0230804D02*
X0162333Y0231340D01*
X0163433Y0231796D02*
X0163968Y0231260D01*
X0162332Y0231340D02*
X0162264Y0231411D01*
X0162199Y0231484D01*
X0162137Y0231560D01*
X0162077Y0231639D01*
X0162021Y0231719D01*
X0161968Y0231802D01*
X0161919Y0231886D01*
X0161872Y0231973D01*
X0161830Y0232061D01*
X0161790Y0232151D01*
X0161755Y0232243D01*
X0161722Y0232335D01*
X0161694Y0232429D01*
X0161669Y0232524D01*
X0161648Y0232620D01*
X0161631Y0232717D01*
X0161617Y0232814D01*
X0161608Y0232912D01*
X0161602Y0233010D01*
X0161600Y0233108D01*
X0156700Y0232063D02*
X0156702Y0231965D01*
X0156708Y0231867D01*
X0156717Y0231769D01*
X0156731Y0231672D01*
X0156748Y0231575D01*
X0156769Y0231479D01*
X0156794Y0231384D01*
X0156822Y0231290D01*
X0156855Y0231198D01*
X0156890Y0231106D01*
X0156930Y0231016D01*
X0156972Y0230928D01*
X0157019Y0230841D01*
X0157068Y0230757D01*
X0157121Y0230674D01*
X0157177Y0230594D01*
X0157237Y0230515D01*
X0157299Y0230439D01*
X0157364Y0230366D01*
X0157432Y0230295D01*
X0156332Y0229840D02*
X0156264Y0229911D01*
X0156199Y0229984D01*
X0156137Y0230060D01*
X0156077Y0230139D01*
X0156021Y0230219D01*
X0155968Y0230302D01*
X0155919Y0230386D01*
X0155872Y0230473D01*
X0155830Y0230561D01*
X0155790Y0230651D01*
X0155755Y0230743D01*
X0155722Y0230835D01*
X0155694Y0230929D01*
X0155669Y0231024D01*
X0155648Y0231120D01*
X0155631Y0231217D01*
X0155617Y0231314D01*
X0155608Y0231412D01*
X0155602Y0231510D01*
X0155600Y0231608D01*
X0150700Y0230563D02*
X0150702Y0230465D01*
X0150708Y0230367D01*
X0150717Y0230269D01*
X0150731Y0230172D01*
X0150748Y0230075D01*
X0150769Y0229979D01*
X0150794Y0229884D01*
X0150822Y0229790D01*
X0150855Y0229698D01*
X0150890Y0229606D01*
X0150930Y0229516D01*
X0150972Y0229428D01*
X0151019Y0229341D01*
X0151068Y0229257D01*
X0151121Y0229174D01*
X0151177Y0229094D01*
X0151237Y0229015D01*
X0151299Y0228939D01*
X0151364Y0228866D01*
X0151432Y0228795D01*
X0151433Y0228796D02*
X0153968Y0226260D01*
X0152868Y0225804D02*
X0150333Y0228340D01*
X0150332Y0228340D02*
X0150264Y0228411D01*
X0150199Y0228484D01*
X0150137Y0228560D01*
X0150077Y0228639D01*
X0150021Y0228719D01*
X0149968Y0228802D01*
X0149919Y0228886D01*
X0149872Y0228973D01*
X0149830Y0229061D01*
X0149790Y0229151D01*
X0149755Y0229243D01*
X0149722Y0229335D01*
X0149694Y0229429D01*
X0149669Y0229524D01*
X0149648Y0229620D01*
X0149631Y0229717D01*
X0149617Y0229814D01*
X0149608Y0229912D01*
X0149602Y0230010D01*
X0149600Y0230108D01*
X0153968Y0226260D02*
X0154036Y0226189D01*
X0154101Y0226116D01*
X0154163Y0226040D01*
X0154223Y0225961D01*
X0154279Y0225881D01*
X0154332Y0225798D01*
X0154381Y0225714D01*
X0154428Y0225627D01*
X0154470Y0225539D01*
X0154510Y0225449D01*
X0154545Y0225357D01*
X0154578Y0225265D01*
X0154606Y0225171D01*
X0154631Y0225076D01*
X0154652Y0224980D01*
X0154669Y0224883D01*
X0154683Y0224786D01*
X0154692Y0224688D01*
X0154698Y0224590D01*
X0154700Y0224492D01*
X0153600Y0224037D02*
X0153598Y0224135D01*
X0153592Y0224233D01*
X0153583Y0224331D01*
X0153569Y0224428D01*
X0153552Y0224525D01*
X0153531Y0224621D01*
X0153506Y0224716D01*
X0153478Y0224810D01*
X0153445Y0224902D01*
X0153410Y0224994D01*
X0153370Y0225084D01*
X0153328Y0225172D01*
X0153281Y0225259D01*
X0153232Y0225343D01*
X0153179Y0225426D01*
X0153123Y0225506D01*
X0153063Y0225585D01*
X0153001Y0225661D01*
X0152936Y0225734D01*
X0152868Y0225805D01*
X0163968Y0231260D02*
X0164036Y0231189D01*
X0164101Y0231116D01*
X0164163Y0231040D01*
X0164223Y0230961D01*
X0164279Y0230881D01*
X0164332Y0230798D01*
X0164381Y0230714D01*
X0164428Y0230627D01*
X0164470Y0230539D01*
X0164510Y0230449D01*
X0164545Y0230357D01*
X0164578Y0230265D01*
X0164606Y0230171D01*
X0164631Y0230076D01*
X0164652Y0229980D01*
X0164669Y0229883D01*
X0164683Y0229786D01*
X0164692Y0229688D01*
X0164698Y0229590D01*
X0164700Y0229492D01*
X0163432Y0231795D02*
X0163364Y0231866D01*
X0163299Y0231939D01*
X0163237Y0232015D01*
X0163177Y0232094D01*
X0163121Y0232174D01*
X0163068Y0232257D01*
X0163019Y0232341D01*
X0162972Y0232428D01*
X0162930Y0232516D01*
X0162890Y0232606D01*
X0162855Y0232698D01*
X0162822Y0232790D01*
X0162794Y0232884D01*
X0162769Y0232979D01*
X0162748Y0233075D01*
X0162731Y0233172D01*
X0162717Y0233269D01*
X0162708Y0233367D01*
X0162702Y0233465D01*
X0162700Y0233563D01*
X0190433Y0211018D02*
X0191650Y0209800D01*
X0193600Y0207786D02*
X0193598Y0207688D01*
X0193592Y0207590D01*
X0193583Y0207492D01*
X0193569Y0207395D01*
X0193552Y0207298D01*
X0193531Y0207202D01*
X0193506Y0207107D01*
X0193478Y0207013D01*
X0193445Y0206921D01*
X0193410Y0206829D01*
X0193370Y0206739D01*
X0193328Y0206651D01*
X0193281Y0206564D01*
X0193232Y0206480D01*
X0193179Y0206397D01*
X0193123Y0206317D01*
X0193063Y0206238D01*
X0193001Y0206162D01*
X0192936Y0206089D01*
X0192868Y0206018D01*
X0191650Y0204800D01*
X0195433Y0206018D02*
X0196650Y0204800D01*
X0195432Y0206018D02*
X0195364Y0206089D01*
X0195299Y0206162D01*
X0195237Y0206238D01*
X0195177Y0206317D01*
X0195121Y0206397D01*
X0195068Y0206480D01*
X0195019Y0206564D01*
X0194972Y0206651D01*
X0194930Y0206739D01*
X0194890Y0206829D01*
X0194855Y0206921D01*
X0194822Y0207013D01*
X0194794Y0207107D01*
X0194769Y0207202D01*
X0194748Y0207298D01*
X0194731Y0207395D01*
X0194717Y0207492D01*
X0194708Y0207590D01*
X0194702Y0207688D01*
X0194700Y0207786D01*
X0190432Y0211018D02*
X0190364Y0211089D01*
X0190299Y0211162D01*
X0190237Y0211238D01*
X0190177Y0211317D01*
X0190121Y0211397D01*
X0190068Y0211480D01*
X0190019Y0211564D01*
X0189972Y0211651D01*
X0189930Y0211739D01*
X0189890Y0211829D01*
X0189855Y0211921D01*
X0189822Y0212013D01*
X0189794Y0212107D01*
X0189769Y0212202D01*
X0189748Y0212298D01*
X0189731Y0212395D01*
X0189717Y0212492D01*
X0189708Y0212590D01*
X0189702Y0212688D01*
X0189700Y0212786D01*
X0113954Y0239446D02*
X0113940Y0239462D01*
X0113929Y0239480D01*
X0113921Y0239500D01*
X0113916Y0239521D01*
X0113914Y0239542D01*
X0113914Y0241800D01*
X0113954Y0239447D02*
X0113983Y0239414D01*
X0114010Y0239380D01*
X0114033Y0239343D01*
X0114053Y0239304D01*
X0114070Y0239264D01*
X0114083Y0239222D01*
X0114092Y0239180D01*
X0114098Y0239137D01*
X0114100Y0239093D01*
X0108155Y0239245D02*
X0108126Y0239278D01*
X0108099Y0239312D01*
X0108076Y0239349D01*
X0108056Y0239388D01*
X0108039Y0239428D01*
X0108026Y0239470D01*
X0108017Y0239512D01*
X0108011Y0239555D01*
X0108009Y0239599D01*
X0108009Y0241800D01*
X0108155Y0239245D02*
X0108454Y0238946D01*
X0108454Y0238947D02*
X0108483Y0238914D01*
X0108510Y0238880D01*
X0108533Y0238843D01*
X0108553Y0238804D01*
X0108570Y0238764D01*
X0108583Y0238722D01*
X0108592Y0238680D01*
X0108598Y0238637D01*
X0108600Y0238593D01*
X0097846Y0239447D02*
X0097817Y0239414D01*
X0097790Y0239380D01*
X0097767Y0239343D01*
X0097747Y0239304D01*
X0097730Y0239264D01*
X0097717Y0239222D01*
X0097708Y0239180D01*
X0097702Y0239137D01*
X0097700Y0239093D01*
X0097700Y0232063D01*
X0096600Y0231608D02*
X0096600Y0239093D01*
X0096454Y0239446D02*
X0096344Y0239556D01*
X0096198Y0239910D02*
X0096198Y0241800D01*
X0096198Y0239910D02*
X0096200Y0239866D01*
X0096206Y0239823D01*
X0096215Y0239781D01*
X0096228Y0239739D01*
X0096245Y0239699D01*
X0096265Y0239660D01*
X0096288Y0239623D01*
X0096315Y0239589D01*
X0096344Y0239556D01*
X0096454Y0239447D02*
X0096483Y0239414D01*
X0096510Y0239380D01*
X0096533Y0239343D01*
X0096553Y0239304D01*
X0096570Y0239264D01*
X0096583Y0239222D01*
X0096592Y0239180D01*
X0096598Y0239137D01*
X0096600Y0239093D01*
X0097847Y0239446D02*
X0098020Y0239619D01*
X0098166Y0239973D02*
X0098166Y0240300D01*
X0098166Y0239973D02*
X0098164Y0239929D01*
X0098158Y0239886D01*
X0098149Y0239844D01*
X0098136Y0239802D01*
X0098119Y0239762D01*
X0098099Y0239723D01*
X0098076Y0239686D01*
X0098049Y0239652D01*
X0098020Y0239619D01*
X0097700Y0232063D02*
X0097702Y0231965D01*
X0097708Y0231867D01*
X0097717Y0231769D01*
X0097731Y0231672D01*
X0097748Y0231575D01*
X0097769Y0231479D01*
X0097794Y0231384D01*
X0097822Y0231290D01*
X0097855Y0231198D01*
X0097890Y0231106D01*
X0097930Y0231016D01*
X0097972Y0230928D01*
X0098019Y0230841D01*
X0098068Y0230757D01*
X0098121Y0230674D01*
X0098177Y0230594D01*
X0098237Y0230515D01*
X0098299Y0230439D01*
X0098364Y0230366D01*
X0098432Y0230295D01*
X0098433Y0230296D02*
X0103968Y0224760D01*
X0102868Y0224304D02*
X0097333Y0229840D01*
X0097332Y0229840D02*
X0097264Y0229911D01*
X0097199Y0229984D01*
X0097137Y0230060D01*
X0097077Y0230139D01*
X0097021Y0230219D01*
X0096968Y0230302D01*
X0096919Y0230386D01*
X0096872Y0230473D01*
X0096830Y0230561D01*
X0096790Y0230651D01*
X0096755Y0230743D01*
X0096722Y0230835D01*
X0096694Y0230929D01*
X0096669Y0231024D01*
X0096648Y0231120D01*
X0096631Y0231217D01*
X0096617Y0231314D01*
X0096608Y0231412D01*
X0096602Y0231510D01*
X0096600Y0231608D01*
X0102868Y0224305D02*
X0102936Y0224234D01*
X0103001Y0224161D01*
X0103063Y0224085D01*
X0103123Y0224006D01*
X0103179Y0223926D01*
X0103232Y0223843D01*
X0103281Y0223759D01*
X0103328Y0223672D01*
X0103370Y0223584D01*
X0103410Y0223494D01*
X0103445Y0223402D01*
X0103478Y0223310D01*
X0103506Y0223216D01*
X0103531Y0223121D01*
X0103552Y0223025D01*
X0103569Y0222928D01*
X0103583Y0222831D01*
X0103592Y0222733D01*
X0103598Y0222635D01*
X0103600Y0222537D01*
X0104700Y0222992D02*
X0104698Y0223090D01*
X0104692Y0223188D01*
X0104683Y0223286D01*
X0104669Y0223383D01*
X0104652Y0223480D01*
X0104631Y0223576D01*
X0104606Y0223671D01*
X0104578Y0223765D01*
X0104545Y0223857D01*
X0104510Y0223949D01*
X0104470Y0224039D01*
X0104428Y0224127D01*
X0104381Y0224214D01*
X0104332Y0224298D01*
X0104279Y0224381D01*
X0104223Y0224461D01*
X0104163Y0224540D01*
X0104101Y0224616D01*
X0104036Y0224689D01*
X0103968Y0224760D01*
M02*
