G75*
%MOIN*%
%OFA0B0*%
%FSLAX25Y25*%
%IPPOS*%
%LPD*%
%AMOC8*
5,1,8,0,0,1.08239X$1,22.5*
%
%ADD10C,0.00600*%
D10*
X0074629Y0055785D02*
X0074629Y0056010D01*
X0075361Y0057778D02*
X0076833Y0059250D01*
X0076122Y0060368D02*
X0076193Y0060436D01*
X0076266Y0060501D01*
X0076342Y0060563D01*
X0076421Y0060623D01*
X0076501Y0060679D01*
X0076584Y0060732D01*
X0076668Y0060781D01*
X0076755Y0060828D01*
X0076843Y0060870D01*
X0076933Y0060910D01*
X0077025Y0060945D01*
X0077117Y0060978D01*
X0077211Y0061006D01*
X0077306Y0061031D01*
X0077402Y0061052D01*
X0077499Y0061069D01*
X0077596Y0061083D01*
X0077694Y0061092D01*
X0077792Y0061098D01*
X0077890Y0061100D01*
X0101046Y0061100D01*
X0100549Y0059900D02*
X0088669Y0059900D01*
X0088622Y0059898D01*
X0088575Y0059893D01*
X0088529Y0059883D01*
X0088484Y0059871D01*
X0088439Y0059854D01*
X0088397Y0059835D01*
X0088356Y0059812D01*
X0088316Y0059785D01*
X0088279Y0059756D01*
X0088245Y0059724D01*
X0088213Y0059690D01*
X0088184Y0059653D01*
X0088157Y0059613D01*
X0088134Y0059572D01*
X0088115Y0059530D01*
X0088098Y0059485D01*
X0088086Y0059440D01*
X0088076Y0059394D01*
X0088071Y0059347D01*
X0088069Y0059300D01*
X0088069Y0059290D01*
X0088067Y0059243D01*
X0088062Y0059196D01*
X0088052Y0059150D01*
X0088040Y0059105D01*
X0088023Y0059060D01*
X0088004Y0059018D01*
X0087981Y0058977D01*
X0087954Y0058937D01*
X0087925Y0058900D01*
X0087893Y0058866D01*
X0087859Y0058834D01*
X0087822Y0058805D01*
X0087782Y0058778D01*
X0087741Y0058755D01*
X0087699Y0058736D01*
X0087654Y0058719D01*
X0087609Y0058707D01*
X0087563Y0058697D01*
X0087516Y0058692D01*
X0087469Y0058690D01*
X0087148Y0058690D01*
X0087101Y0058692D01*
X0087054Y0058697D01*
X0087008Y0058707D01*
X0086963Y0058719D01*
X0086918Y0058736D01*
X0086876Y0058755D01*
X0086835Y0058778D01*
X0086795Y0058805D01*
X0086758Y0058834D01*
X0086724Y0058866D01*
X0086692Y0058900D01*
X0086663Y0058937D01*
X0086636Y0058977D01*
X0086613Y0059018D01*
X0086594Y0059060D01*
X0086577Y0059105D01*
X0086565Y0059150D01*
X0086555Y0059196D01*
X0086550Y0059243D01*
X0086548Y0059290D01*
X0086548Y0059300D01*
X0086546Y0059347D01*
X0086541Y0059394D01*
X0086531Y0059440D01*
X0086519Y0059485D01*
X0086502Y0059530D01*
X0086483Y0059572D01*
X0086460Y0059613D01*
X0086433Y0059653D01*
X0086404Y0059690D01*
X0086372Y0059724D01*
X0086338Y0059756D01*
X0086301Y0059785D01*
X0086261Y0059812D01*
X0086220Y0059835D01*
X0086178Y0059854D01*
X0086133Y0059871D01*
X0086088Y0059883D01*
X0086042Y0059893D01*
X0085995Y0059898D01*
X0085948Y0059900D01*
X0085627Y0059900D01*
X0085580Y0059898D01*
X0085533Y0059893D01*
X0085487Y0059883D01*
X0085442Y0059871D01*
X0085397Y0059854D01*
X0085355Y0059835D01*
X0085314Y0059812D01*
X0085274Y0059785D01*
X0085237Y0059756D01*
X0085203Y0059724D01*
X0085171Y0059690D01*
X0085142Y0059653D01*
X0085115Y0059613D01*
X0085092Y0059572D01*
X0085073Y0059530D01*
X0085056Y0059485D01*
X0085044Y0059440D01*
X0085034Y0059394D01*
X0085029Y0059347D01*
X0085027Y0059300D01*
X0085027Y0059290D01*
X0085025Y0059243D01*
X0085020Y0059196D01*
X0085010Y0059150D01*
X0084998Y0059105D01*
X0084981Y0059060D01*
X0084962Y0059018D01*
X0084939Y0058977D01*
X0084912Y0058937D01*
X0084883Y0058900D01*
X0084851Y0058866D01*
X0084817Y0058834D01*
X0084780Y0058805D01*
X0084740Y0058778D01*
X0084699Y0058755D01*
X0084657Y0058736D01*
X0084612Y0058719D01*
X0084567Y0058707D01*
X0084521Y0058697D01*
X0084474Y0058692D01*
X0084427Y0058690D01*
X0084106Y0058690D01*
X0084059Y0058692D01*
X0084012Y0058697D01*
X0083966Y0058707D01*
X0083921Y0058719D01*
X0083876Y0058736D01*
X0083834Y0058755D01*
X0083793Y0058778D01*
X0083753Y0058805D01*
X0083716Y0058834D01*
X0083682Y0058866D01*
X0083650Y0058900D01*
X0083621Y0058937D01*
X0083594Y0058977D01*
X0083571Y0059018D01*
X0083552Y0059060D01*
X0083535Y0059105D01*
X0083523Y0059150D01*
X0083513Y0059196D01*
X0083508Y0059243D01*
X0083506Y0059290D01*
X0083506Y0059300D01*
X0083504Y0059347D01*
X0083499Y0059394D01*
X0083489Y0059440D01*
X0083477Y0059485D01*
X0083460Y0059530D01*
X0083441Y0059572D01*
X0083418Y0059613D01*
X0083391Y0059653D01*
X0083362Y0059690D01*
X0083330Y0059724D01*
X0083296Y0059756D01*
X0083259Y0059785D01*
X0083219Y0059812D01*
X0083178Y0059835D01*
X0083136Y0059854D01*
X0083091Y0059871D01*
X0083046Y0059883D01*
X0083000Y0059893D01*
X0082953Y0059898D01*
X0082906Y0059900D01*
X0082586Y0059900D01*
X0082539Y0059898D01*
X0082492Y0059893D01*
X0082446Y0059883D01*
X0082401Y0059871D01*
X0082356Y0059854D01*
X0082314Y0059835D01*
X0082273Y0059812D01*
X0082233Y0059785D01*
X0082196Y0059756D01*
X0082162Y0059724D01*
X0082130Y0059690D01*
X0082101Y0059653D01*
X0082074Y0059613D01*
X0082051Y0059572D01*
X0082032Y0059530D01*
X0082015Y0059485D01*
X0082003Y0059440D01*
X0081993Y0059394D01*
X0081988Y0059347D01*
X0081986Y0059300D01*
X0081986Y0059290D01*
X0081984Y0059243D01*
X0081979Y0059196D01*
X0081969Y0059150D01*
X0081957Y0059105D01*
X0081940Y0059060D01*
X0081921Y0059018D01*
X0081898Y0058977D01*
X0081871Y0058937D01*
X0081842Y0058900D01*
X0081810Y0058866D01*
X0081776Y0058834D01*
X0081739Y0058805D01*
X0081699Y0058778D01*
X0081658Y0058755D01*
X0081616Y0058736D01*
X0081571Y0058719D01*
X0081526Y0058707D01*
X0081480Y0058697D01*
X0081433Y0058692D01*
X0081386Y0058690D01*
X0081065Y0058690D01*
X0081018Y0058692D01*
X0080971Y0058697D01*
X0080925Y0058707D01*
X0080880Y0058719D01*
X0080835Y0058736D01*
X0080793Y0058755D01*
X0080752Y0058778D01*
X0080712Y0058805D01*
X0080675Y0058834D01*
X0080641Y0058866D01*
X0080609Y0058900D01*
X0080580Y0058937D01*
X0080553Y0058977D01*
X0080530Y0059018D01*
X0080511Y0059060D01*
X0080494Y0059105D01*
X0080482Y0059150D01*
X0080472Y0059196D01*
X0080467Y0059243D01*
X0080465Y0059290D01*
X0080465Y0059300D01*
X0080463Y0059347D01*
X0080458Y0059394D01*
X0080448Y0059440D01*
X0080436Y0059485D01*
X0080419Y0059530D01*
X0080400Y0059572D01*
X0080377Y0059613D01*
X0080350Y0059653D01*
X0080321Y0059690D01*
X0080289Y0059724D01*
X0080255Y0059756D01*
X0080218Y0059785D01*
X0080178Y0059812D01*
X0080137Y0059835D01*
X0080095Y0059854D01*
X0080050Y0059871D01*
X0080005Y0059883D01*
X0079959Y0059893D01*
X0079912Y0059898D01*
X0079865Y0059900D01*
X0078403Y0059900D01*
X0078311Y0059898D01*
X0078220Y0059892D01*
X0078129Y0059883D01*
X0078038Y0059870D01*
X0077948Y0059853D01*
X0077858Y0059832D01*
X0077770Y0059808D01*
X0077682Y0059780D01*
X0077596Y0059748D01*
X0077512Y0059713D01*
X0077428Y0059675D01*
X0077347Y0059633D01*
X0077267Y0059587D01*
X0077189Y0059539D01*
X0077114Y0059487D01*
X0077040Y0059432D01*
X0076969Y0059374D01*
X0076900Y0059314D01*
X0076834Y0059250D01*
X0074921Y0059722D02*
X0066755Y0059722D01*
X0074921Y0059722D02*
X0075003Y0059732D01*
X0075084Y0059746D01*
X0075164Y0059764D01*
X0075244Y0059785D01*
X0075322Y0059810D01*
X0075400Y0059838D01*
X0075475Y0059870D01*
X0075550Y0059906D01*
X0075622Y0059945D01*
X0075693Y0059987D01*
X0075761Y0060033D01*
X0075828Y0060081D01*
X0075892Y0060133D01*
X0075954Y0060187D01*
X0076013Y0060245D01*
X0076069Y0060305D01*
X0076123Y0060367D01*
X0075361Y0057778D02*
X0075293Y0057707D01*
X0075228Y0057634D01*
X0075166Y0057558D01*
X0075106Y0057479D01*
X0075050Y0057399D01*
X0074997Y0057316D01*
X0074948Y0057232D01*
X0074901Y0057145D01*
X0074859Y0057057D01*
X0074819Y0056967D01*
X0074784Y0056875D01*
X0074751Y0056783D01*
X0074723Y0056689D01*
X0074698Y0056594D01*
X0074677Y0056498D01*
X0074660Y0056401D01*
X0074646Y0056304D01*
X0074637Y0056206D01*
X0074631Y0056108D01*
X0074629Y0056010D01*
X0100549Y0059900D02*
X0100647Y0059898D01*
X0100745Y0059892D01*
X0100843Y0059883D01*
X0100940Y0059869D01*
X0101037Y0059852D01*
X0101133Y0059831D01*
X0101228Y0059806D01*
X0101322Y0059778D01*
X0101414Y0059745D01*
X0101506Y0059710D01*
X0101596Y0059670D01*
X0101684Y0059628D01*
X0101771Y0059581D01*
X0101855Y0059532D01*
X0101938Y0059479D01*
X0102018Y0059423D01*
X0102097Y0059363D01*
X0102173Y0059301D01*
X0102246Y0059236D01*
X0102317Y0059168D01*
X0120853Y0040632D01*
X0121350Y0041832D02*
X0102814Y0060368D01*
X0102743Y0060436D01*
X0102670Y0060501D01*
X0102594Y0060563D01*
X0102515Y0060623D01*
X0102435Y0060679D01*
X0102352Y0060732D01*
X0102268Y0060781D01*
X0102181Y0060828D01*
X0102093Y0060870D01*
X0102003Y0060910D01*
X0101911Y0060945D01*
X0101819Y0060978D01*
X0101725Y0061006D01*
X0101630Y0061031D01*
X0101534Y0061052D01*
X0101437Y0061069D01*
X0101340Y0061083D01*
X0101242Y0061092D01*
X0101144Y0061098D01*
X0101046Y0061100D01*
X0121349Y0041832D02*
X0121420Y0041764D01*
X0121493Y0041699D01*
X0121569Y0041637D01*
X0121648Y0041577D01*
X0121728Y0041521D01*
X0121811Y0041468D01*
X0121895Y0041419D01*
X0121982Y0041372D01*
X0122070Y0041330D01*
X0122160Y0041290D01*
X0122252Y0041255D01*
X0122344Y0041222D01*
X0122438Y0041194D01*
X0122533Y0041169D01*
X0122629Y0041148D01*
X0122726Y0041131D01*
X0122823Y0041117D01*
X0122921Y0041108D01*
X0123019Y0041102D01*
X0123117Y0041100D01*
X0210442Y0041100D01*
X0210642Y0039900D02*
X0122620Y0039900D01*
X0122522Y0039902D01*
X0122424Y0039908D01*
X0122326Y0039917D01*
X0122229Y0039931D01*
X0122132Y0039948D01*
X0122036Y0039969D01*
X0121941Y0039994D01*
X0121847Y0040022D01*
X0121755Y0040055D01*
X0121663Y0040090D01*
X0121573Y0040130D01*
X0121485Y0040172D01*
X0121398Y0040219D01*
X0121314Y0040268D01*
X0121231Y0040321D01*
X0121151Y0040377D01*
X0121072Y0040437D01*
X0120996Y0040499D01*
X0120923Y0040564D01*
X0120852Y0040632D01*
X0210442Y0041100D02*
X0210518Y0041102D01*
X0210594Y0041108D01*
X0210669Y0041117D01*
X0210744Y0041131D01*
X0210818Y0041148D01*
X0210891Y0041169D01*
X0210963Y0041193D01*
X0211034Y0041222D01*
X0211103Y0041253D01*
X0211170Y0041288D01*
X0211235Y0041327D01*
X0211299Y0041369D01*
X0211360Y0041414D01*
X0211419Y0041462D01*
X0211475Y0041513D01*
X0211529Y0041567D01*
X0211580Y0041623D01*
X0211628Y0041682D01*
X0211673Y0041743D01*
X0211715Y0041807D01*
X0211754Y0041872D01*
X0211789Y0041939D01*
X0211820Y0042008D01*
X0211849Y0042079D01*
X0211873Y0042151D01*
X0211894Y0042224D01*
X0211911Y0042298D01*
X0211925Y0042373D01*
X0211934Y0042448D01*
X0211940Y0042524D01*
X0211942Y0042600D01*
X0211942Y0042724D01*
X0211649Y0043431D02*
X0211241Y0043839D01*
X0211202Y0043880D01*
X0211166Y0043923D01*
X0211133Y0043969D01*
X0211102Y0044016D01*
X0211074Y0044065D01*
X0211049Y0044116D01*
X0211028Y0044168D01*
X0211009Y0044222D01*
X0210994Y0044276D01*
X0210982Y0044331D01*
X0210974Y0044387D01*
X0210969Y0044444D01*
X0210967Y0044500D01*
X0211649Y0043431D02*
X0211691Y0043387D01*
X0211729Y0043341D01*
X0211765Y0043292D01*
X0211798Y0043241D01*
X0211827Y0043189D01*
X0211854Y0043134D01*
X0211877Y0043079D01*
X0211897Y0043022D01*
X0211913Y0042963D01*
X0211926Y0042904D01*
X0211935Y0042845D01*
X0211940Y0042784D01*
X0211942Y0042724D01*
X0213142Y0042724D02*
X0213142Y0042400D01*
X0213142Y0042724D02*
X0213144Y0042784D01*
X0213149Y0042845D01*
X0213158Y0042904D01*
X0213171Y0042963D01*
X0213187Y0043022D01*
X0213207Y0043079D01*
X0213230Y0043134D01*
X0213257Y0043189D01*
X0213286Y0043241D01*
X0213319Y0043292D01*
X0213355Y0043341D01*
X0213393Y0043387D01*
X0213435Y0043431D01*
X0213843Y0043839D01*
X0213882Y0043880D01*
X0213918Y0043923D01*
X0213951Y0043969D01*
X0213982Y0044016D01*
X0214010Y0044065D01*
X0214035Y0044116D01*
X0214056Y0044168D01*
X0214075Y0044222D01*
X0214090Y0044276D01*
X0214102Y0044331D01*
X0214110Y0044387D01*
X0214115Y0044444D01*
X0214117Y0044500D01*
X0213142Y0042400D02*
X0213140Y0042302D01*
X0213134Y0042204D01*
X0213125Y0042106D01*
X0213111Y0042009D01*
X0213094Y0041912D01*
X0213073Y0041816D01*
X0213048Y0041721D01*
X0213020Y0041627D01*
X0212987Y0041535D01*
X0212952Y0041443D01*
X0212912Y0041353D01*
X0212870Y0041265D01*
X0212823Y0041178D01*
X0212774Y0041094D01*
X0212721Y0041011D01*
X0212665Y0040931D01*
X0212605Y0040852D01*
X0212543Y0040776D01*
X0212478Y0040703D01*
X0212410Y0040632D01*
X0212339Y0040564D01*
X0212266Y0040499D01*
X0212190Y0040437D01*
X0212111Y0040377D01*
X0212031Y0040321D01*
X0211948Y0040268D01*
X0211864Y0040219D01*
X0211777Y0040172D01*
X0211689Y0040130D01*
X0211599Y0040090D01*
X0211507Y0040055D01*
X0211415Y0040022D01*
X0211321Y0039994D01*
X0211226Y0039969D01*
X0211130Y0039948D01*
X0211033Y0039931D01*
X0210936Y0039917D01*
X0210838Y0039908D01*
X0210740Y0039902D01*
X0210642Y0039900D01*
X0220416Y0044500D02*
X0220951Y0045035D01*
X0221391Y0046096D02*
X0221391Y0061558D01*
X0222591Y0062056D02*
X0222591Y0046096D01*
X0223030Y0045035D02*
X0223566Y0044500D01*
X0223030Y0045035D02*
X0222980Y0045089D01*
X0222931Y0045144D01*
X0222886Y0045202D01*
X0222844Y0045263D01*
X0222804Y0045325D01*
X0222768Y0045389D01*
X0222735Y0045455D01*
X0222705Y0045522D01*
X0222679Y0045591D01*
X0222656Y0045661D01*
X0222636Y0045732D01*
X0222620Y0045803D01*
X0222607Y0045876D01*
X0222598Y0045949D01*
X0222593Y0046022D01*
X0222591Y0046096D01*
X0221391Y0046096D02*
X0221389Y0046022D01*
X0221384Y0045949D01*
X0221375Y0045876D01*
X0221362Y0045803D01*
X0221346Y0045732D01*
X0221326Y0045661D01*
X0221303Y0045591D01*
X0221277Y0045522D01*
X0221247Y0045455D01*
X0221214Y0045389D01*
X0221178Y0045325D01*
X0221138Y0045263D01*
X0221096Y0045202D01*
X0221051Y0045144D01*
X0221002Y0045089D01*
X0220952Y0045035D01*
X0230401Y0045035D02*
X0230451Y0045089D01*
X0230500Y0045144D01*
X0230545Y0045202D01*
X0230587Y0045263D01*
X0230627Y0045325D01*
X0230663Y0045389D01*
X0230696Y0045455D01*
X0230726Y0045522D01*
X0230752Y0045591D01*
X0230775Y0045661D01*
X0230795Y0045732D01*
X0230811Y0045803D01*
X0230824Y0045876D01*
X0230833Y0045949D01*
X0230838Y0046022D01*
X0230840Y0046096D01*
X0230840Y0092110D01*
X0232040Y0092607D02*
X0232040Y0046096D01*
X0232479Y0045035D02*
X0233014Y0044500D01*
X0232479Y0045035D02*
X0232429Y0045089D01*
X0232380Y0045144D01*
X0232335Y0045202D01*
X0232293Y0045263D01*
X0232253Y0045325D01*
X0232217Y0045389D01*
X0232184Y0045455D01*
X0232154Y0045522D01*
X0232128Y0045591D01*
X0232105Y0045661D01*
X0232085Y0045732D01*
X0232069Y0045803D01*
X0232056Y0045876D01*
X0232047Y0045949D01*
X0232042Y0046022D01*
X0232040Y0046096D01*
X0230400Y0045035D02*
X0229865Y0044500D01*
X0242999Y0045035D02*
X0243049Y0045089D01*
X0243098Y0045144D01*
X0243143Y0045202D01*
X0243185Y0045263D01*
X0243225Y0045325D01*
X0243261Y0045389D01*
X0243294Y0045455D01*
X0243324Y0045522D01*
X0243350Y0045591D01*
X0243373Y0045661D01*
X0243393Y0045732D01*
X0243409Y0045803D01*
X0243422Y0045876D01*
X0243431Y0045949D01*
X0243436Y0046022D01*
X0243438Y0046096D01*
X0243438Y0087011D01*
X0244638Y0087508D02*
X0244638Y0046096D01*
X0245077Y0045035D02*
X0245613Y0044500D01*
X0245077Y0045035D02*
X0245027Y0045089D01*
X0244978Y0045144D01*
X0244933Y0045202D01*
X0244891Y0045263D01*
X0244851Y0045325D01*
X0244815Y0045389D01*
X0244782Y0045455D01*
X0244752Y0045522D01*
X0244726Y0045591D01*
X0244703Y0045661D01*
X0244683Y0045732D01*
X0244667Y0045803D01*
X0244654Y0045876D01*
X0244645Y0045949D01*
X0244640Y0046022D01*
X0244638Y0046096D01*
X0242999Y0045035D02*
X0242463Y0044500D01*
X0252448Y0045035D02*
X0252498Y0045089D01*
X0252547Y0045144D01*
X0252592Y0045202D01*
X0252634Y0045263D01*
X0252674Y0045325D01*
X0252710Y0045389D01*
X0252743Y0045455D01*
X0252773Y0045522D01*
X0252799Y0045591D01*
X0252822Y0045661D01*
X0252842Y0045732D01*
X0252858Y0045803D01*
X0252871Y0045876D01*
X0252880Y0045949D01*
X0252885Y0046022D01*
X0252887Y0046096D01*
X0252887Y0085062D01*
X0254087Y0085559D02*
X0254087Y0046096D01*
X0254526Y0045035D02*
X0255062Y0044500D01*
X0254526Y0045035D02*
X0254476Y0045089D01*
X0254427Y0045144D01*
X0254382Y0045202D01*
X0254340Y0045263D01*
X0254300Y0045325D01*
X0254264Y0045389D01*
X0254231Y0045455D01*
X0254201Y0045522D01*
X0254175Y0045591D01*
X0254152Y0045661D01*
X0254132Y0045732D01*
X0254116Y0045803D01*
X0254103Y0045876D01*
X0254094Y0045949D01*
X0254089Y0046022D01*
X0254087Y0046096D01*
X0252448Y0045035D02*
X0251912Y0044500D01*
X0261897Y0045035D02*
X0261947Y0045089D01*
X0261996Y0045144D01*
X0262041Y0045202D01*
X0262083Y0045263D01*
X0262123Y0045325D01*
X0262159Y0045389D01*
X0262192Y0045455D01*
X0262222Y0045522D01*
X0262248Y0045591D01*
X0262271Y0045661D01*
X0262291Y0045732D01*
X0262307Y0045803D01*
X0262320Y0045876D01*
X0262329Y0045949D01*
X0262334Y0046022D01*
X0262336Y0046096D01*
X0262336Y0083114D01*
X0263536Y0083611D02*
X0263536Y0046096D01*
X0263975Y0045035D02*
X0264510Y0044500D01*
X0263975Y0045035D02*
X0263925Y0045089D01*
X0263876Y0045144D01*
X0263831Y0045202D01*
X0263789Y0045263D01*
X0263749Y0045325D01*
X0263713Y0045389D01*
X0263680Y0045455D01*
X0263650Y0045522D01*
X0263624Y0045591D01*
X0263601Y0045661D01*
X0263581Y0045732D01*
X0263565Y0045803D01*
X0263552Y0045876D01*
X0263543Y0045949D01*
X0263538Y0046022D01*
X0263536Y0046096D01*
X0261896Y0045035D02*
X0261361Y0044500D01*
X0274495Y0045035D02*
X0274545Y0045089D01*
X0274594Y0045144D01*
X0274639Y0045202D01*
X0274681Y0045263D01*
X0274721Y0045325D01*
X0274757Y0045389D01*
X0274790Y0045455D01*
X0274820Y0045522D01*
X0274846Y0045591D01*
X0274869Y0045661D01*
X0274889Y0045732D01*
X0274905Y0045803D01*
X0274918Y0045876D01*
X0274927Y0045949D01*
X0274932Y0046022D01*
X0274934Y0046096D01*
X0274934Y0078015D01*
X0276134Y0078512D02*
X0276134Y0046096D01*
X0276573Y0045035D02*
X0277109Y0044500D01*
X0276573Y0045035D02*
X0276523Y0045089D01*
X0276474Y0045144D01*
X0276429Y0045202D01*
X0276387Y0045263D01*
X0276347Y0045325D01*
X0276311Y0045389D01*
X0276278Y0045455D01*
X0276248Y0045522D01*
X0276222Y0045591D01*
X0276199Y0045661D01*
X0276179Y0045732D01*
X0276163Y0045803D01*
X0276150Y0045876D01*
X0276141Y0045949D01*
X0276136Y0046022D01*
X0276134Y0046096D01*
X0274495Y0045035D02*
X0273959Y0044500D01*
X0283944Y0045035D02*
X0283994Y0045089D01*
X0284043Y0045144D01*
X0284088Y0045202D01*
X0284130Y0045263D01*
X0284170Y0045325D01*
X0284206Y0045389D01*
X0284239Y0045455D01*
X0284269Y0045522D01*
X0284295Y0045591D01*
X0284318Y0045661D01*
X0284338Y0045732D01*
X0284354Y0045803D01*
X0284367Y0045876D01*
X0284376Y0045949D01*
X0284381Y0046022D01*
X0284383Y0046096D01*
X0284383Y0075363D01*
X0285583Y0074866D02*
X0285583Y0046096D01*
X0286022Y0045035D02*
X0286558Y0044500D01*
X0286022Y0045035D02*
X0285972Y0045089D01*
X0285923Y0045144D01*
X0285878Y0045202D01*
X0285836Y0045263D01*
X0285796Y0045325D01*
X0285760Y0045389D01*
X0285727Y0045455D01*
X0285697Y0045522D01*
X0285671Y0045591D01*
X0285648Y0045661D01*
X0285628Y0045732D01*
X0285612Y0045803D01*
X0285599Y0045876D01*
X0285590Y0045949D01*
X0285585Y0046022D01*
X0285583Y0046096D01*
X0283944Y0045035D02*
X0283408Y0044500D01*
X0293393Y0045035D02*
X0293443Y0045089D01*
X0293492Y0045144D01*
X0293537Y0045202D01*
X0293579Y0045263D01*
X0293619Y0045325D01*
X0293655Y0045389D01*
X0293688Y0045455D01*
X0293718Y0045522D01*
X0293744Y0045591D01*
X0293767Y0045661D01*
X0293787Y0045732D01*
X0293803Y0045803D01*
X0293816Y0045876D01*
X0293825Y0045949D01*
X0293830Y0046022D01*
X0293832Y0046096D01*
X0293832Y0077311D01*
X0295032Y0076814D02*
X0295032Y0046096D01*
X0295471Y0045035D02*
X0296007Y0044500D01*
X0295471Y0045035D02*
X0295421Y0045089D01*
X0295372Y0045144D01*
X0295327Y0045202D01*
X0295285Y0045263D01*
X0295245Y0045325D01*
X0295209Y0045389D01*
X0295176Y0045455D01*
X0295146Y0045522D01*
X0295120Y0045591D01*
X0295097Y0045661D01*
X0295077Y0045732D01*
X0295061Y0045803D01*
X0295048Y0045876D01*
X0295039Y0045949D01*
X0295034Y0046022D01*
X0295032Y0046096D01*
X0293392Y0045035D02*
X0292857Y0044500D01*
X0302842Y0045035D02*
X0302892Y0045089D01*
X0302941Y0045144D01*
X0302986Y0045202D01*
X0303028Y0045263D01*
X0303068Y0045325D01*
X0303104Y0045389D01*
X0303137Y0045455D01*
X0303167Y0045522D01*
X0303193Y0045591D01*
X0303216Y0045661D01*
X0303236Y0045732D01*
X0303252Y0045803D01*
X0303265Y0045876D01*
X0303274Y0045949D01*
X0303279Y0046022D01*
X0303281Y0046096D01*
X0303281Y0079260D01*
X0304481Y0078763D02*
X0304481Y0046096D01*
X0304920Y0045035D02*
X0305455Y0044500D01*
X0304920Y0045035D02*
X0304870Y0045089D01*
X0304821Y0045144D01*
X0304776Y0045202D01*
X0304734Y0045263D01*
X0304694Y0045325D01*
X0304658Y0045389D01*
X0304625Y0045455D01*
X0304595Y0045522D01*
X0304569Y0045591D01*
X0304546Y0045661D01*
X0304526Y0045732D01*
X0304510Y0045803D01*
X0304497Y0045876D01*
X0304488Y0045949D01*
X0304483Y0046022D01*
X0304481Y0046096D01*
X0302841Y0045035D02*
X0302306Y0044500D01*
X0312290Y0045035D02*
X0312340Y0045089D01*
X0312389Y0045144D01*
X0312434Y0045202D01*
X0312476Y0045263D01*
X0312516Y0045325D01*
X0312552Y0045389D01*
X0312585Y0045455D01*
X0312615Y0045522D01*
X0312641Y0045591D01*
X0312664Y0045661D01*
X0312684Y0045732D01*
X0312700Y0045803D01*
X0312713Y0045876D01*
X0312722Y0045949D01*
X0312727Y0046022D01*
X0312729Y0046096D01*
X0312729Y0081209D01*
X0313929Y0080712D02*
X0313929Y0046096D01*
X0314369Y0045035D02*
X0314904Y0044500D01*
X0314368Y0045035D02*
X0314318Y0045089D01*
X0314269Y0045144D01*
X0314224Y0045202D01*
X0314182Y0045263D01*
X0314142Y0045325D01*
X0314106Y0045389D01*
X0314073Y0045455D01*
X0314043Y0045522D01*
X0314017Y0045591D01*
X0313994Y0045661D01*
X0313974Y0045732D01*
X0313958Y0045803D01*
X0313945Y0045876D01*
X0313936Y0045949D01*
X0313931Y0046022D01*
X0313929Y0046096D01*
X0312290Y0045035D02*
X0311755Y0044500D01*
X0321739Y0045035D02*
X0321789Y0045089D01*
X0321838Y0045144D01*
X0321883Y0045202D01*
X0321925Y0045263D01*
X0321965Y0045325D01*
X0322001Y0045389D01*
X0322034Y0045455D01*
X0322064Y0045522D01*
X0322090Y0045591D01*
X0322113Y0045661D01*
X0322133Y0045732D01*
X0322149Y0045803D01*
X0322162Y0045876D01*
X0322171Y0045949D01*
X0322176Y0046022D01*
X0322178Y0046096D01*
X0322178Y0083158D01*
X0323378Y0082661D02*
X0323378Y0046096D01*
X0323818Y0045035D02*
X0324353Y0044500D01*
X0323817Y0045035D02*
X0323767Y0045089D01*
X0323718Y0045144D01*
X0323673Y0045202D01*
X0323631Y0045263D01*
X0323591Y0045325D01*
X0323555Y0045389D01*
X0323522Y0045455D01*
X0323492Y0045522D01*
X0323466Y0045591D01*
X0323443Y0045661D01*
X0323423Y0045732D01*
X0323407Y0045803D01*
X0323394Y0045876D01*
X0323385Y0045949D01*
X0323380Y0046022D01*
X0323378Y0046096D01*
X0321739Y0045035D02*
X0321203Y0044500D01*
X0331188Y0045035D02*
X0331238Y0045089D01*
X0331287Y0045144D01*
X0331332Y0045202D01*
X0331374Y0045263D01*
X0331414Y0045325D01*
X0331450Y0045389D01*
X0331483Y0045455D01*
X0331513Y0045522D01*
X0331539Y0045591D01*
X0331562Y0045661D01*
X0331582Y0045732D01*
X0331598Y0045803D01*
X0331611Y0045876D01*
X0331620Y0045949D01*
X0331625Y0046022D01*
X0331627Y0046096D01*
X0331627Y0052413D01*
X0332827Y0051916D02*
X0332827Y0046096D01*
X0333266Y0045035D02*
X0333802Y0044500D01*
X0333266Y0045035D02*
X0333216Y0045089D01*
X0333167Y0045144D01*
X0333122Y0045202D01*
X0333080Y0045263D01*
X0333040Y0045325D01*
X0333004Y0045389D01*
X0332971Y0045455D01*
X0332941Y0045522D01*
X0332915Y0045591D01*
X0332892Y0045661D01*
X0332872Y0045732D01*
X0332856Y0045803D01*
X0332843Y0045876D01*
X0332834Y0045949D01*
X0332829Y0046022D01*
X0332827Y0046096D01*
X0331188Y0045035D02*
X0330652Y0044500D01*
X0332827Y0051916D02*
X0332829Y0052014D01*
X0332835Y0052112D01*
X0332844Y0052210D01*
X0332858Y0052307D01*
X0332875Y0052404D01*
X0332896Y0052500D01*
X0332921Y0052595D01*
X0332949Y0052689D01*
X0332982Y0052781D01*
X0333017Y0052873D01*
X0333057Y0052963D01*
X0333099Y0053051D01*
X0333146Y0053138D01*
X0333195Y0053222D01*
X0333248Y0053305D01*
X0333304Y0053385D01*
X0333364Y0053464D01*
X0333426Y0053540D01*
X0333491Y0053613D01*
X0333559Y0053684D01*
X0336045Y0056170D01*
X0369206Y0089524D01*
X0368006Y0090021D02*
X0334845Y0056667D01*
X0332359Y0054181D01*
X0332291Y0054110D01*
X0332226Y0054037D01*
X0332164Y0053961D01*
X0332104Y0053882D01*
X0332048Y0053802D01*
X0331995Y0053719D01*
X0331946Y0053635D01*
X0331899Y0053548D01*
X0331857Y0053460D01*
X0331817Y0053370D01*
X0331782Y0053278D01*
X0331749Y0053186D01*
X0331721Y0053092D01*
X0331696Y0052997D01*
X0331675Y0052901D01*
X0331658Y0052804D01*
X0331644Y0052707D01*
X0331635Y0052609D01*
X0331629Y0052511D01*
X0331627Y0052413D01*
X0304481Y0078763D02*
X0304483Y0078861D01*
X0304489Y0078959D01*
X0304498Y0079057D01*
X0304512Y0079154D01*
X0304529Y0079251D01*
X0304550Y0079347D01*
X0304575Y0079442D01*
X0304603Y0079536D01*
X0304636Y0079628D01*
X0304671Y0079720D01*
X0304711Y0079810D01*
X0304753Y0079898D01*
X0304800Y0079985D01*
X0304849Y0080069D01*
X0304902Y0080152D01*
X0304958Y0080232D01*
X0305018Y0080311D01*
X0305080Y0080387D01*
X0305145Y0080460D01*
X0305213Y0080531D01*
X0351276Y0126594D01*
X0350636Y0127651D02*
X0304013Y0081028D01*
X0303945Y0080957D01*
X0303880Y0080884D01*
X0303818Y0080808D01*
X0303758Y0080729D01*
X0303702Y0080649D01*
X0303649Y0080566D01*
X0303600Y0080482D01*
X0303553Y0080395D01*
X0303511Y0080307D01*
X0303471Y0080217D01*
X0303436Y0080125D01*
X0303403Y0080033D01*
X0303375Y0079939D01*
X0303350Y0079844D01*
X0303329Y0079748D01*
X0303312Y0079651D01*
X0303298Y0079554D01*
X0303289Y0079456D01*
X0303283Y0079358D01*
X0303281Y0079260D01*
X0295764Y0078582D02*
X0295696Y0078511D01*
X0295631Y0078438D01*
X0295569Y0078362D01*
X0295509Y0078283D01*
X0295453Y0078203D01*
X0295400Y0078120D01*
X0295351Y0078036D01*
X0295304Y0077949D01*
X0295262Y0077861D01*
X0295222Y0077771D01*
X0295187Y0077679D01*
X0295154Y0077587D01*
X0295126Y0077493D01*
X0295101Y0077398D01*
X0295080Y0077302D01*
X0295063Y0077205D01*
X0295049Y0077108D01*
X0295040Y0077010D01*
X0295034Y0076912D01*
X0295032Y0076814D01*
X0293832Y0077311D02*
X0293834Y0077409D01*
X0293840Y0077507D01*
X0293849Y0077605D01*
X0293863Y0077702D01*
X0293880Y0077799D01*
X0293901Y0077895D01*
X0293926Y0077990D01*
X0293954Y0078084D01*
X0293987Y0078176D01*
X0294022Y0078268D01*
X0294062Y0078358D01*
X0294104Y0078446D01*
X0294151Y0078533D01*
X0294200Y0078617D01*
X0294253Y0078700D01*
X0294309Y0078780D01*
X0294369Y0078859D01*
X0294431Y0078935D01*
X0294496Y0079008D01*
X0294564Y0079079D01*
X0349042Y0133557D01*
X0349539Y0132357D02*
X0295764Y0078582D01*
X0286315Y0076634D02*
X0286247Y0076563D01*
X0286182Y0076490D01*
X0286120Y0076414D01*
X0286060Y0076335D01*
X0286004Y0076255D01*
X0285951Y0076172D01*
X0285902Y0076088D01*
X0285855Y0076001D01*
X0285813Y0075913D01*
X0285773Y0075823D01*
X0285738Y0075731D01*
X0285705Y0075639D01*
X0285677Y0075545D01*
X0285652Y0075450D01*
X0285631Y0075354D01*
X0285614Y0075257D01*
X0285600Y0075160D01*
X0285591Y0075062D01*
X0285585Y0074964D01*
X0285583Y0074866D01*
X0284383Y0075363D02*
X0284385Y0075461D01*
X0284391Y0075559D01*
X0284400Y0075657D01*
X0284414Y0075754D01*
X0284431Y0075851D01*
X0284452Y0075947D01*
X0284477Y0076042D01*
X0284505Y0076136D01*
X0284538Y0076228D01*
X0284573Y0076320D01*
X0284613Y0076410D01*
X0284655Y0076498D01*
X0284702Y0076585D01*
X0284751Y0076669D01*
X0284804Y0076752D01*
X0284860Y0076832D01*
X0284920Y0076911D01*
X0284982Y0076987D01*
X0285047Y0077060D01*
X0285115Y0077131D01*
X0285115Y0077130D02*
X0347447Y0139462D01*
X0347944Y0138262D02*
X0286315Y0076633D01*
X0275402Y0080280D02*
X0216220Y0139462D01*
X0215723Y0138262D02*
X0274202Y0079783D01*
X0275402Y0080280D02*
X0275470Y0080209D01*
X0275535Y0080136D01*
X0275597Y0080060D01*
X0275657Y0079981D01*
X0275713Y0079901D01*
X0275766Y0079818D01*
X0275815Y0079734D01*
X0275862Y0079647D01*
X0275904Y0079559D01*
X0275944Y0079469D01*
X0275979Y0079377D01*
X0276012Y0079285D01*
X0276040Y0079191D01*
X0276065Y0079096D01*
X0276086Y0079000D01*
X0276103Y0078903D01*
X0276117Y0078806D01*
X0276126Y0078708D01*
X0276132Y0078610D01*
X0276134Y0078512D01*
X0274934Y0078015D02*
X0274932Y0078113D01*
X0274926Y0078211D01*
X0274917Y0078309D01*
X0274903Y0078406D01*
X0274886Y0078503D01*
X0274865Y0078599D01*
X0274840Y0078694D01*
X0274812Y0078788D01*
X0274779Y0078880D01*
X0274744Y0078972D01*
X0274704Y0079062D01*
X0274662Y0079150D01*
X0274615Y0079237D01*
X0274566Y0079321D01*
X0274513Y0079404D01*
X0274457Y0079484D01*
X0274397Y0079563D01*
X0274335Y0079639D01*
X0274270Y0079712D01*
X0274202Y0079783D01*
X0262803Y0085378D02*
X0214625Y0133557D01*
X0214128Y0132357D02*
X0261603Y0084881D01*
X0262804Y0085379D02*
X0262872Y0085308D01*
X0262937Y0085235D01*
X0262999Y0085159D01*
X0263059Y0085080D01*
X0263115Y0085000D01*
X0263168Y0084917D01*
X0263217Y0084833D01*
X0263264Y0084746D01*
X0263306Y0084658D01*
X0263346Y0084568D01*
X0263381Y0084476D01*
X0263414Y0084384D01*
X0263442Y0084290D01*
X0263467Y0084195D01*
X0263488Y0084099D01*
X0263505Y0084002D01*
X0263519Y0083905D01*
X0263528Y0083807D01*
X0263534Y0083709D01*
X0263536Y0083611D01*
X0262336Y0083114D02*
X0262334Y0083212D01*
X0262328Y0083310D01*
X0262319Y0083408D01*
X0262305Y0083505D01*
X0262288Y0083602D01*
X0262267Y0083698D01*
X0262242Y0083793D01*
X0262214Y0083887D01*
X0262181Y0083979D01*
X0262146Y0084071D01*
X0262106Y0084161D01*
X0262064Y0084249D01*
X0262017Y0084336D01*
X0261968Y0084420D01*
X0261915Y0084503D01*
X0261859Y0084583D01*
X0261799Y0084662D01*
X0261737Y0084738D01*
X0261672Y0084811D01*
X0261604Y0084882D01*
X0253355Y0087327D02*
X0213031Y0127651D01*
X0212391Y0126594D02*
X0252155Y0086830D01*
X0253355Y0087327D02*
X0253423Y0087256D01*
X0253488Y0087183D01*
X0253550Y0087107D01*
X0253610Y0087028D01*
X0253666Y0086948D01*
X0253719Y0086865D01*
X0253768Y0086781D01*
X0253815Y0086694D01*
X0253857Y0086606D01*
X0253897Y0086516D01*
X0253932Y0086424D01*
X0253965Y0086332D01*
X0253993Y0086238D01*
X0254018Y0086143D01*
X0254039Y0086047D01*
X0254056Y0085950D01*
X0254070Y0085853D01*
X0254079Y0085755D01*
X0254085Y0085657D01*
X0254087Y0085559D01*
X0252887Y0085062D02*
X0252885Y0085160D01*
X0252879Y0085258D01*
X0252870Y0085356D01*
X0252856Y0085453D01*
X0252839Y0085550D01*
X0252818Y0085646D01*
X0252793Y0085741D01*
X0252765Y0085835D01*
X0252732Y0085927D01*
X0252697Y0086019D01*
X0252657Y0086109D01*
X0252615Y0086197D01*
X0252568Y0086284D01*
X0252519Y0086368D01*
X0252466Y0086451D01*
X0252410Y0086531D01*
X0252350Y0086610D01*
X0252288Y0086686D01*
X0252223Y0086759D01*
X0252155Y0086830D01*
X0243906Y0089276D02*
X0215373Y0117809D01*
X0214876Y0116609D02*
X0242706Y0088779D01*
X0243906Y0089276D02*
X0243974Y0089205D01*
X0244039Y0089132D01*
X0244101Y0089056D01*
X0244161Y0088977D01*
X0244217Y0088897D01*
X0244270Y0088814D01*
X0244319Y0088730D01*
X0244366Y0088643D01*
X0244408Y0088555D01*
X0244448Y0088465D01*
X0244483Y0088373D01*
X0244516Y0088281D01*
X0244544Y0088187D01*
X0244569Y0088092D01*
X0244590Y0087996D01*
X0244607Y0087899D01*
X0244621Y0087802D01*
X0244630Y0087704D01*
X0244636Y0087606D01*
X0244638Y0087508D01*
X0243438Y0087011D02*
X0243436Y0087109D01*
X0243430Y0087207D01*
X0243421Y0087305D01*
X0243407Y0087402D01*
X0243390Y0087499D01*
X0243369Y0087595D01*
X0243344Y0087690D01*
X0243316Y0087784D01*
X0243283Y0087876D01*
X0243248Y0087968D01*
X0243208Y0088058D01*
X0243166Y0088146D01*
X0243119Y0088233D01*
X0243070Y0088317D01*
X0243017Y0088400D01*
X0242961Y0088480D01*
X0242901Y0088559D01*
X0242839Y0088635D01*
X0242774Y0088708D01*
X0242706Y0088779D01*
X0231307Y0094374D02*
X0213779Y0111903D01*
X0213282Y0110703D02*
X0230107Y0093877D01*
X0231308Y0094375D02*
X0231376Y0094304D01*
X0231441Y0094231D01*
X0231503Y0094155D01*
X0231563Y0094076D01*
X0231619Y0093996D01*
X0231672Y0093913D01*
X0231721Y0093829D01*
X0231768Y0093742D01*
X0231810Y0093654D01*
X0231850Y0093564D01*
X0231885Y0093472D01*
X0231918Y0093380D01*
X0231946Y0093286D01*
X0231971Y0093191D01*
X0231992Y0093095D01*
X0232009Y0092998D01*
X0232023Y0092901D01*
X0232032Y0092803D01*
X0232038Y0092705D01*
X0232040Y0092607D01*
X0230840Y0092110D02*
X0230838Y0092208D01*
X0230832Y0092306D01*
X0230823Y0092404D01*
X0230809Y0092501D01*
X0230792Y0092598D01*
X0230771Y0092694D01*
X0230746Y0092789D01*
X0230718Y0092883D01*
X0230685Y0092975D01*
X0230650Y0093067D01*
X0230610Y0093157D01*
X0230568Y0093245D01*
X0230521Y0093332D01*
X0230472Y0093416D01*
X0230419Y0093499D01*
X0230363Y0093579D01*
X0230303Y0093658D01*
X0230241Y0093734D01*
X0230176Y0093807D01*
X0230108Y0093878D01*
X0213282Y0110703D02*
X0213211Y0110771D01*
X0213138Y0110836D01*
X0213062Y0110898D01*
X0212983Y0110958D01*
X0212903Y0111014D01*
X0212820Y0111067D01*
X0212736Y0111116D01*
X0212649Y0111163D01*
X0212561Y0111205D01*
X0212471Y0111245D01*
X0212379Y0111280D01*
X0212287Y0111313D01*
X0212193Y0111341D01*
X0212098Y0111366D01*
X0212002Y0111387D01*
X0211905Y0111404D01*
X0211808Y0111418D01*
X0211710Y0111427D01*
X0211612Y0111433D01*
X0211514Y0111435D01*
X0211096Y0111435D01*
X0211065Y0111433D01*
X0211035Y0111429D01*
X0211005Y0111422D01*
X0210977Y0111411D01*
X0210949Y0111398D01*
X0210923Y0111382D01*
X0210898Y0111364D01*
X0210875Y0111344D01*
X0210169Y0111051D02*
X0206341Y0111051D01*
X0206341Y0113020D02*
X0210169Y0113020D01*
X0210875Y0112726D02*
X0210898Y0112706D01*
X0210923Y0112688D01*
X0210949Y0112672D01*
X0210977Y0112659D01*
X0211005Y0112648D01*
X0211035Y0112641D01*
X0211065Y0112637D01*
X0211096Y0112635D01*
X0212011Y0112635D01*
X0210876Y0111344D02*
X0210832Y0111302D01*
X0210786Y0111264D01*
X0210737Y0111228D01*
X0210686Y0111195D01*
X0210634Y0111166D01*
X0210579Y0111139D01*
X0210524Y0111116D01*
X0210467Y0111096D01*
X0210408Y0111080D01*
X0210349Y0111067D01*
X0210290Y0111058D01*
X0210229Y0111053D01*
X0210169Y0111051D01*
X0210876Y0112727D02*
X0210832Y0112769D01*
X0210786Y0112807D01*
X0210737Y0112843D01*
X0210686Y0112876D01*
X0210634Y0112905D01*
X0210579Y0112932D01*
X0210524Y0112955D01*
X0210467Y0112975D01*
X0210408Y0112991D01*
X0210349Y0113004D01*
X0210290Y0113013D01*
X0210229Y0113018D01*
X0210169Y0113020D01*
X0212011Y0112635D02*
X0212109Y0112633D01*
X0212207Y0112627D01*
X0212305Y0112618D01*
X0212402Y0112604D01*
X0212499Y0112587D01*
X0212595Y0112566D01*
X0212690Y0112541D01*
X0212784Y0112513D01*
X0212876Y0112480D01*
X0212968Y0112445D01*
X0213058Y0112405D01*
X0213146Y0112363D01*
X0213233Y0112316D01*
X0213317Y0112267D01*
X0213400Y0112214D01*
X0213480Y0112158D01*
X0213559Y0112098D01*
X0213635Y0112036D01*
X0213708Y0111971D01*
X0213779Y0111903D01*
X0214876Y0116609D02*
X0214805Y0116677D01*
X0214732Y0116742D01*
X0214656Y0116804D01*
X0214577Y0116864D01*
X0214497Y0116920D01*
X0214414Y0116973D01*
X0214330Y0117022D01*
X0214243Y0117069D01*
X0214155Y0117111D01*
X0214065Y0117151D01*
X0213973Y0117186D01*
X0213881Y0117219D01*
X0213787Y0117247D01*
X0213692Y0117272D01*
X0213596Y0117293D01*
X0213499Y0117310D01*
X0213402Y0117324D01*
X0213304Y0117333D01*
X0213206Y0117339D01*
X0213108Y0117341D01*
X0211096Y0117341D01*
X0211065Y0117339D01*
X0211035Y0117335D01*
X0211005Y0117328D01*
X0210977Y0117317D01*
X0210949Y0117304D01*
X0210923Y0117288D01*
X0210898Y0117270D01*
X0210875Y0117250D01*
X0210169Y0116957D02*
X0206341Y0116957D01*
X0206341Y0118925D02*
X0210169Y0118925D01*
X0210875Y0118632D02*
X0210898Y0118612D01*
X0210923Y0118594D01*
X0210949Y0118578D01*
X0210977Y0118565D01*
X0211005Y0118554D01*
X0211035Y0118547D01*
X0211065Y0118543D01*
X0211096Y0118541D01*
X0213605Y0118541D01*
X0213703Y0118539D01*
X0213801Y0118533D01*
X0213899Y0118524D01*
X0213996Y0118510D01*
X0214093Y0118493D01*
X0214189Y0118472D01*
X0214284Y0118447D01*
X0214378Y0118419D01*
X0214470Y0118386D01*
X0214562Y0118351D01*
X0214652Y0118311D01*
X0214740Y0118269D01*
X0214827Y0118222D01*
X0214911Y0118173D01*
X0214994Y0118120D01*
X0215074Y0118064D01*
X0215153Y0118004D01*
X0215229Y0117942D01*
X0215302Y0117877D01*
X0215373Y0117809D01*
X0210876Y0118632D02*
X0210832Y0118674D01*
X0210786Y0118712D01*
X0210737Y0118748D01*
X0210686Y0118781D01*
X0210634Y0118810D01*
X0210579Y0118837D01*
X0210524Y0118860D01*
X0210467Y0118880D01*
X0210408Y0118896D01*
X0210349Y0118909D01*
X0210290Y0118918D01*
X0210229Y0118923D01*
X0210169Y0118925D01*
X0210876Y0117250D02*
X0210832Y0117208D01*
X0210786Y0117170D01*
X0210737Y0117134D01*
X0210686Y0117101D01*
X0210634Y0117072D01*
X0210579Y0117045D01*
X0210524Y0117022D01*
X0210467Y0117002D01*
X0210408Y0116986D01*
X0210349Y0116973D01*
X0210290Y0116964D01*
X0210229Y0116959D01*
X0210169Y0116957D01*
X0212391Y0126594D02*
X0212328Y0126655D01*
X0212262Y0126713D01*
X0212193Y0126768D01*
X0212122Y0126820D01*
X0212049Y0126869D01*
X0211974Y0126914D01*
X0211897Y0126956D01*
X0211818Y0126995D01*
X0211738Y0127031D01*
X0211656Y0127063D01*
X0211573Y0127091D01*
X0211488Y0127115D01*
X0211403Y0127136D01*
X0211317Y0127153D01*
X0211230Y0127167D01*
X0211143Y0127176D01*
X0211055Y0127182D01*
X0210967Y0127184D01*
X0210967Y0127183D02*
X0210876Y0127092D01*
X0210169Y0126799D02*
X0206341Y0126799D01*
X0206341Y0128768D02*
X0210169Y0128768D01*
X0210875Y0128474D02*
X0210898Y0128454D01*
X0210923Y0128436D01*
X0210949Y0128420D01*
X0210977Y0128407D01*
X0211005Y0128396D01*
X0211035Y0128389D01*
X0211065Y0128385D01*
X0211096Y0128383D01*
X0211263Y0128383D01*
X0210876Y0127092D02*
X0210832Y0127050D01*
X0210786Y0127012D01*
X0210737Y0126976D01*
X0210686Y0126943D01*
X0210634Y0126914D01*
X0210579Y0126887D01*
X0210524Y0126864D01*
X0210467Y0126844D01*
X0210408Y0126828D01*
X0210349Y0126815D01*
X0210290Y0126806D01*
X0210229Y0126801D01*
X0210169Y0126799D01*
X0210876Y0128475D02*
X0210832Y0128517D01*
X0210786Y0128555D01*
X0210737Y0128591D01*
X0210686Y0128624D01*
X0210634Y0128653D01*
X0210579Y0128680D01*
X0210524Y0128703D01*
X0210467Y0128723D01*
X0210408Y0128739D01*
X0210349Y0128752D01*
X0210290Y0128761D01*
X0210229Y0128766D01*
X0210169Y0128768D01*
X0212360Y0133089D02*
X0212458Y0133087D01*
X0212556Y0133081D01*
X0212654Y0133072D01*
X0212751Y0133058D01*
X0212848Y0133041D01*
X0212944Y0133020D01*
X0213039Y0132995D01*
X0213133Y0132967D01*
X0213225Y0132934D01*
X0213317Y0132899D01*
X0213407Y0132859D01*
X0213495Y0132817D01*
X0213582Y0132770D01*
X0213666Y0132721D01*
X0213749Y0132668D01*
X0213829Y0132612D01*
X0213908Y0132552D01*
X0213984Y0132490D01*
X0214057Y0132425D01*
X0214128Y0132357D01*
X0214625Y0133557D02*
X0214554Y0133625D01*
X0214481Y0133690D01*
X0214405Y0133752D01*
X0214326Y0133812D01*
X0214246Y0133868D01*
X0214163Y0133921D01*
X0214079Y0133970D01*
X0213992Y0134017D01*
X0213904Y0134059D01*
X0213814Y0134099D01*
X0213722Y0134134D01*
X0213630Y0134167D01*
X0213536Y0134195D01*
X0213441Y0134220D01*
X0213345Y0134241D01*
X0213248Y0134258D01*
X0213151Y0134272D01*
X0213053Y0134281D01*
X0212955Y0134287D01*
X0212857Y0134289D01*
X0211096Y0134289D01*
X0211065Y0134291D01*
X0211035Y0134295D01*
X0211005Y0134302D01*
X0210977Y0134313D01*
X0210949Y0134326D01*
X0210923Y0134342D01*
X0210898Y0134360D01*
X0210875Y0134380D01*
X0210169Y0134673D02*
X0206341Y0134673D01*
X0206341Y0132705D02*
X0210169Y0132705D01*
X0210875Y0132998D02*
X0210898Y0133018D01*
X0210923Y0133036D01*
X0210949Y0133052D01*
X0210977Y0133065D01*
X0211005Y0133076D01*
X0211035Y0133083D01*
X0211065Y0133087D01*
X0211096Y0133089D01*
X0212360Y0133089D01*
X0210876Y0134380D02*
X0210832Y0134422D01*
X0210786Y0134460D01*
X0210737Y0134496D01*
X0210686Y0134529D01*
X0210634Y0134558D01*
X0210579Y0134585D01*
X0210524Y0134608D01*
X0210467Y0134628D01*
X0210408Y0134644D01*
X0210349Y0134657D01*
X0210290Y0134666D01*
X0210229Y0134671D01*
X0210169Y0134673D01*
X0210876Y0132998D02*
X0210832Y0132956D01*
X0210786Y0132918D01*
X0210737Y0132882D01*
X0210686Y0132849D01*
X0210634Y0132820D01*
X0210579Y0132793D01*
X0210524Y0132770D01*
X0210467Y0132750D01*
X0210408Y0132734D01*
X0210349Y0132721D01*
X0210290Y0132712D01*
X0210229Y0132707D01*
X0210169Y0132705D01*
X0213955Y0138994D02*
X0214053Y0138992D01*
X0214151Y0138986D01*
X0214249Y0138977D01*
X0214346Y0138963D01*
X0214443Y0138946D01*
X0214539Y0138925D01*
X0214634Y0138900D01*
X0214728Y0138872D01*
X0214820Y0138839D01*
X0214912Y0138804D01*
X0215002Y0138764D01*
X0215090Y0138722D01*
X0215177Y0138675D01*
X0215261Y0138626D01*
X0215344Y0138573D01*
X0215424Y0138517D01*
X0215503Y0138457D01*
X0215579Y0138395D01*
X0215652Y0138330D01*
X0215723Y0138262D01*
X0216220Y0139462D02*
X0216149Y0139530D01*
X0216076Y0139595D01*
X0216000Y0139657D01*
X0215921Y0139717D01*
X0215841Y0139773D01*
X0215758Y0139826D01*
X0215674Y0139875D01*
X0215587Y0139922D01*
X0215499Y0139964D01*
X0215409Y0140004D01*
X0215317Y0140039D01*
X0215225Y0140072D01*
X0215131Y0140100D01*
X0215036Y0140125D01*
X0214940Y0140146D01*
X0214843Y0140163D01*
X0214746Y0140177D01*
X0214648Y0140186D01*
X0214550Y0140192D01*
X0214452Y0140194D01*
X0211096Y0140194D01*
X0211065Y0140196D01*
X0211035Y0140200D01*
X0211005Y0140207D01*
X0210977Y0140218D01*
X0210949Y0140231D01*
X0210923Y0140247D01*
X0210898Y0140265D01*
X0210875Y0140285D01*
X0210169Y0140579D02*
X0206341Y0140579D01*
X0206341Y0138610D02*
X0210169Y0138610D01*
X0210875Y0138904D02*
X0210898Y0138924D01*
X0210923Y0138942D01*
X0210949Y0138958D01*
X0210977Y0138971D01*
X0211005Y0138982D01*
X0211035Y0138989D01*
X0211065Y0138993D01*
X0211096Y0138995D01*
X0211096Y0138994D02*
X0213955Y0138994D01*
X0210876Y0140286D02*
X0210832Y0140328D01*
X0210786Y0140366D01*
X0210737Y0140402D01*
X0210686Y0140435D01*
X0210634Y0140464D01*
X0210579Y0140491D01*
X0210524Y0140514D01*
X0210467Y0140534D01*
X0210408Y0140550D01*
X0210349Y0140563D01*
X0210290Y0140572D01*
X0210229Y0140577D01*
X0210169Y0140579D01*
X0210876Y0138903D02*
X0210832Y0138861D01*
X0210786Y0138823D01*
X0210737Y0138787D01*
X0210686Y0138754D01*
X0210634Y0138725D01*
X0210579Y0138698D01*
X0210524Y0138675D01*
X0210467Y0138655D01*
X0210408Y0138639D01*
X0210349Y0138626D01*
X0210290Y0138617D01*
X0210229Y0138612D01*
X0210169Y0138610D01*
X0210169Y0150421D02*
X0206341Y0150421D01*
X0206341Y0152390D02*
X0210169Y0152390D01*
X0210875Y0152096D02*
X0210898Y0152076D01*
X0210923Y0152058D01*
X0210949Y0152042D01*
X0210977Y0152029D01*
X0211005Y0152018D01*
X0211035Y0152011D01*
X0211065Y0152007D01*
X0211096Y0152005D01*
X0211096Y0152006D02*
X0213955Y0152006D01*
X0214452Y0150806D02*
X0211096Y0150806D01*
X0211065Y0150804D01*
X0211035Y0150800D01*
X0211005Y0150793D01*
X0210977Y0150782D01*
X0210949Y0150769D01*
X0210923Y0150753D01*
X0210898Y0150735D01*
X0210875Y0150715D01*
X0210876Y0152097D02*
X0210832Y0152139D01*
X0210786Y0152177D01*
X0210737Y0152213D01*
X0210686Y0152246D01*
X0210634Y0152275D01*
X0210579Y0152302D01*
X0210524Y0152325D01*
X0210467Y0152345D01*
X0210408Y0152361D01*
X0210349Y0152374D01*
X0210290Y0152383D01*
X0210229Y0152388D01*
X0210169Y0152390D01*
X0210876Y0150714D02*
X0210832Y0150672D01*
X0210786Y0150634D01*
X0210737Y0150598D01*
X0210686Y0150565D01*
X0210634Y0150536D01*
X0210579Y0150509D01*
X0210524Y0150486D01*
X0210467Y0150466D01*
X0210408Y0150450D01*
X0210349Y0150437D01*
X0210290Y0150428D01*
X0210229Y0150423D01*
X0210169Y0150421D01*
X0214452Y0150805D02*
X0214550Y0150807D01*
X0214648Y0150813D01*
X0214746Y0150822D01*
X0214843Y0150836D01*
X0214940Y0150853D01*
X0215036Y0150874D01*
X0215131Y0150899D01*
X0215225Y0150927D01*
X0215317Y0150960D01*
X0215409Y0150995D01*
X0215499Y0151035D01*
X0215587Y0151077D01*
X0215674Y0151124D01*
X0215758Y0151173D01*
X0215841Y0151226D01*
X0215921Y0151282D01*
X0216000Y0151342D01*
X0216076Y0151404D01*
X0216149Y0151469D01*
X0216220Y0151537D01*
X0216220Y0151538D02*
X0284851Y0220169D01*
X0283651Y0220666D02*
X0215723Y0152738D01*
X0215723Y0152737D02*
X0215652Y0152669D01*
X0215579Y0152604D01*
X0215503Y0152542D01*
X0215424Y0152482D01*
X0215344Y0152426D01*
X0215261Y0152373D01*
X0215177Y0152324D01*
X0215090Y0152277D01*
X0215002Y0152235D01*
X0214912Y0152195D01*
X0214820Y0152160D01*
X0214728Y0152127D01*
X0214634Y0152099D01*
X0214539Y0152074D01*
X0214443Y0152053D01*
X0214346Y0152036D01*
X0214249Y0152022D01*
X0214151Y0152013D01*
X0214053Y0152007D01*
X0213955Y0152005D01*
X0212857Y0156711D02*
X0211096Y0156711D01*
X0211065Y0156709D01*
X0211035Y0156705D01*
X0211005Y0156698D01*
X0210977Y0156687D01*
X0210949Y0156674D01*
X0210923Y0156658D01*
X0210898Y0156640D01*
X0210875Y0156620D01*
X0210169Y0156327D02*
X0206341Y0156327D01*
X0210169Y0156327D02*
X0210229Y0156329D01*
X0210290Y0156334D01*
X0210349Y0156343D01*
X0210408Y0156356D01*
X0210467Y0156372D01*
X0210524Y0156392D01*
X0210579Y0156415D01*
X0210634Y0156442D01*
X0210686Y0156471D01*
X0210737Y0156504D01*
X0210786Y0156540D01*
X0210832Y0156578D01*
X0210876Y0156620D01*
X0212857Y0156711D02*
X0212955Y0156713D01*
X0213053Y0156719D01*
X0213151Y0156728D01*
X0213248Y0156742D01*
X0213345Y0156759D01*
X0213441Y0156780D01*
X0213536Y0156805D01*
X0213630Y0156833D01*
X0213722Y0156866D01*
X0213814Y0156901D01*
X0213904Y0156941D01*
X0213992Y0156983D01*
X0214079Y0157030D01*
X0214163Y0157079D01*
X0214246Y0157132D01*
X0214326Y0157188D01*
X0214405Y0157248D01*
X0214481Y0157310D01*
X0214554Y0157375D01*
X0214625Y0157443D01*
X0275402Y0218220D01*
X0276134Y0219988D02*
X0276134Y0244904D01*
X0276573Y0245965D02*
X0277109Y0246500D01*
X0276573Y0245965D02*
X0276523Y0245911D01*
X0276474Y0245856D01*
X0276429Y0245798D01*
X0276387Y0245737D01*
X0276347Y0245675D01*
X0276311Y0245611D01*
X0276278Y0245545D01*
X0276248Y0245478D01*
X0276222Y0245409D01*
X0276199Y0245339D01*
X0276179Y0245268D01*
X0276163Y0245197D01*
X0276150Y0245124D01*
X0276141Y0245051D01*
X0276136Y0244978D01*
X0276134Y0244904D01*
X0283944Y0245965D02*
X0283994Y0245911D01*
X0284043Y0245856D01*
X0284088Y0245798D01*
X0284130Y0245737D01*
X0284170Y0245675D01*
X0284206Y0245611D01*
X0284239Y0245545D01*
X0284269Y0245478D01*
X0284295Y0245409D01*
X0284318Y0245339D01*
X0284338Y0245268D01*
X0284354Y0245197D01*
X0284367Y0245124D01*
X0284376Y0245051D01*
X0284381Y0244978D01*
X0284383Y0244904D01*
X0284383Y0222434D01*
X0285583Y0221937D02*
X0285583Y0244904D01*
X0286022Y0245965D02*
X0286558Y0246500D01*
X0286022Y0245965D02*
X0285972Y0245911D01*
X0285923Y0245856D01*
X0285878Y0245798D01*
X0285836Y0245737D01*
X0285796Y0245675D01*
X0285760Y0245611D01*
X0285727Y0245545D01*
X0285697Y0245478D01*
X0285671Y0245409D01*
X0285648Y0245339D01*
X0285628Y0245268D01*
X0285612Y0245197D01*
X0285599Y0245124D01*
X0285590Y0245051D01*
X0285585Y0244978D01*
X0285583Y0244904D01*
X0283944Y0245965D02*
X0283408Y0246500D01*
X0293393Y0245965D02*
X0293443Y0245911D01*
X0293492Y0245856D01*
X0293537Y0245798D01*
X0293579Y0245737D01*
X0293619Y0245675D01*
X0293655Y0245611D01*
X0293688Y0245545D01*
X0293718Y0245478D01*
X0293744Y0245409D01*
X0293767Y0245339D01*
X0293787Y0245268D01*
X0293803Y0245197D01*
X0293816Y0245124D01*
X0293825Y0245051D01*
X0293830Y0244978D01*
X0293832Y0244904D01*
X0293832Y0206189D01*
X0295032Y0206686D02*
X0295032Y0244904D01*
X0295471Y0245965D02*
X0296007Y0246500D01*
X0295471Y0245965D02*
X0295421Y0245911D01*
X0295372Y0245856D01*
X0295327Y0245798D01*
X0295285Y0245737D01*
X0295245Y0245675D01*
X0295209Y0245611D01*
X0295176Y0245545D01*
X0295146Y0245478D01*
X0295120Y0245409D01*
X0295097Y0245339D01*
X0295077Y0245268D01*
X0295061Y0245197D01*
X0295048Y0245124D01*
X0295039Y0245051D01*
X0295034Y0244978D01*
X0295032Y0244904D01*
X0293392Y0245965D02*
X0292857Y0246500D01*
X0302842Y0245965D02*
X0302892Y0245911D01*
X0302941Y0245856D01*
X0302986Y0245798D01*
X0303028Y0245737D01*
X0303068Y0245675D01*
X0303104Y0245611D01*
X0303137Y0245545D01*
X0303167Y0245478D01*
X0303193Y0245409D01*
X0303216Y0245339D01*
X0303236Y0245268D01*
X0303252Y0245197D01*
X0303265Y0245124D01*
X0303274Y0245051D01*
X0303279Y0244978D01*
X0303281Y0244904D01*
X0303281Y0204240D01*
X0304481Y0204737D02*
X0304481Y0244904D01*
X0304920Y0245965D02*
X0305455Y0246500D01*
X0304920Y0245965D02*
X0304870Y0245911D01*
X0304821Y0245856D01*
X0304776Y0245798D01*
X0304734Y0245737D01*
X0304694Y0245675D01*
X0304658Y0245611D01*
X0304625Y0245545D01*
X0304595Y0245478D01*
X0304569Y0245409D01*
X0304546Y0245339D01*
X0304526Y0245268D01*
X0304510Y0245197D01*
X0304497Y0245124D01*
X0304488Y0245051D01*
X0304483Y0244978D01*
X0304481Y0244904D01*
X0302841Y0245965D02*
X0302306Y0246500D01*
X0312290Y0245965D02*
X0312340Y0245911D01*
X0312389Y0245856D01*
X0312434Y0245798D01*
X0312476Y0245737D01*
X0312516Y0245675D01*
X0312552Y0245611D01*
X0312585Y0245545D01*
X0312615Y0245478D01*
X0312641Y0245409D01*
X0312664Y0245339D01*
X0312684Y0245268D01*
X0312700Y0245197D01*
X0312713Y0245124D01*
X0312722Y0245051D01*
X0312727Y0244978D01*
X0312729Y0244904D01*
X0312729Y0202291D01*
X0313929Y0202788D02*
X0313929Y0244904D01*
X0314369Y0245965D02*
X0314904Y0246500D01*
X0314368Y0245965D02*
X0314318Y0245911D01*
X0314269Y0245856D01*
X0314224Y0245798D01*
X0314182Y0245737D01*
X0314142Y0245675D01*
X0314106Y0245611D01*
X0314073Y0245545D01*
X0314043Y0245478D01*
X0314017Y0245409D01*
X0313994Y0245339D01*
X0313974Y0245268D01*
X0313958Y0245197D01*
X0313945Y0245124D01*
X0313936Y0245051D01*
X0313931Y0244978D01*
X0313929Y0244904D01*
X0312290Y0245965D02*
X0311755Y0246500D01*
X0321739Y0245965D02*
X0321789Y0245911D01*
X0321838Y0245856D01*
X0321883Y0245798D01*
X0321925Y0245737D01*
X0321965Y0245675D01*
X0322001Y0245611D01*
X0322034Y0245545D01*
X0322064Y0245478D01*
X0322090Y0245409D01*
X0322113Y0245339D01*
X0322133Y0245268D01*
X0322149Y0245197D01*
X0322162Y0245124D01*
X0322171Y0245051D01*
X0322176Y0244978D01*
X0322178Y0244904D01*
X0322178Y0200342D01*
X0323378Y0200839D02*
X0323378Y0244904D01*
X0323818Y0245965D02*
X0324353Y0246500D01*
X0323817Y0245965D02*
X0323767Y0245911D01*
X0323718Y0245856D01*
X0323673Y0245798D01*
X0323631Y0245737D01*
X0323591Y0245675D01*
X0323555Y0245611D01*
X0323522Y0245545D01*
X0323492Y0245478D01*
X0323466Y0245409D01*
X0323443Y0245339D01*
X0323423Y0245268D01*
X0323407Y0245197D01*
X0323394Y0245124D01*
X0323385Y0245051D01*
X0323380Y0244978D01*
X0323378Y0244904D01*
X0321739Y0245965D02*
X0321203Y0246500D01*
X0331188Y0245965D02*
X0331238Y0245911D01*
X0331287Y0245856D01*
X0331332Y0245798D01*
X0331374Y0245737D01*
X0331414Y0245675D01*
X0331450Y0245611D01*
X0331483Y0245545D01*
X0331513Y0245478D01*
X0331539Y0245409D01*
X0331562Y0245339D01*
X0331582Y0245268D01*
X0331598Y0245197D01*
X0331611Y0245124D01*
X0331620Y0245051D01*
X0331625Y0244978D01*
X0331627Y0244904D01*
X0331627Y0198393D01*
X0332827Y0198890D02*
X0332827Y0244904D01*
X0333266Y0245965D02*
X0333802Y0246500D01*
X0333266Y0245965D02*
X0333216Y0245911D01*
X0333167Y0245856D01*
X0333122Y0245798D01*
X0333080Y0245737D01*
X0333040Y0245675D01*
X0333004Y0245611D01*
X0332971Y0245545D01*
X0332941Y0245478D01*
X0332915Y0245409D01*
X0332892Y0245339D01*
X0332872Y0245268D01*
X0332856Y0245197D01*
X0332843Y0245124D01*
X0332834Y0245051D01*
X0332829Y0244978D01*
X0332827Y0244904D01*
X0331188Y0245965D02*
X0330652Y0246500D01*
X0340637Y0245965D02*
X0340687Y0245911D01*
X0340736Y0245856D01*
X0340781Y0245798D01*
X0340823Y0245737D01*
X0340863Y0245675D01*
X0340899Y0245611D01*
X0340932Y0245545D01*
X0340962Y0245478D01*
X0340988Y0245409D01*
X0341011Y0245339D01*
X0341031Y0245268D01*
X0341047Y0245197D01*
X0341060Y0245124D01*
X0341069Y0245051D01*
X0341074Y0244978D01*
X0341076Y0244904D01*
X0341076Y0228944D01*
X0342276Y0229442D02*
X0342276Y0244904D01*
X0342715Y0245965D02*
X0343251Y0246500D01*
X0342715Y0245965D02*
X0342665Y0245911D01*
X0342616Y0245856D01*
X0342571Y0245798D01*
X0342529Y0245737D01*
X0342489Y0245675D01*
X0342453Y0245611D01*
X0342420Y0245545D01*
X0342390Y0245478D01*
X0342364Y0245409D01*
X0342341Y0245339D01*
X0342321Y0245268D01*
X0342305Y0245197D01*
X0342292Y0245124D01*
X0342283Y0245051D01*
X0342278Y0244978D01*
X0342276Y0244904D01*
X0340637Y0245965D02*
X0340101Y0246500D01*
X0342276Y0229442D02*
X0342278Y0229344D01*
X0342284Y0229246D01*
X0342293Y0229148D01*
X0342307Y0229051D01*
X0342324Y0228954D01*
X0342345Y0228858D01*
X0342370Y0228763D01*
X0342398Y0228669D01*
X0342431Y0228577D01*
X0342466Y0228485D01*
X0342506Y0228395D01*
X0342548Y0228307D01*
X0342595Y0228220D01*
X0342644Y0228136D01*
X0342697Y0228053D01*
X0342753Y0227973D01*
X0342813Y0227894D01*
X0342875Y0227818D01*
X0342940Y0227745D01*
X0343008Y0227674D01*
X0369201Y0201481D01*
X0368001Y0200984D02*
X0341808Y0227177D01*
X0341808Y0227176D02*
X0341740Y0227247D01*
X0341675Y0227320D01*
X0341613Y0227396D01*
X0341553Y0227475D01*
X0341497Y0227555D01*
X0341444Y0227638D01*
X0341395Y0227722D01*
X0341348Y0227809D01*
X0341306Y0227897D01*
X0341266Y0227987D01*
X0341231Y0228079D01*
X0341198Y0228171D01*
X0341170Y0228265D01*
X0341145Y0228360D01*
X0341124Y0228456D01*
X0341107Y0228553D01*
X0341093Y0228650D01*
X0341084Y0228748D01*
X0341078Y0228846D01*
X0341076Y0228944D01*
X0313929Y0202788D02*
X0313931Y0202690D01*
X0313937Y0202592D01*
X0313946Y0202494D01*
X0313960Y0202397D01*
X0313977Y0202300D01*
X0313998Y0202204D01*
X0314023Y0202109D01*
X0314051Y0202015D01*
X0314084Y0201923D01*
X0314119Y0201831D01*
X0314159Y0201741D01*
X0314201Y0201653D01*
X0314248Y0201566D01*
X0314297Y0201482D01*
X0314350Y0201399D01*
X0314406Y0201319D01*
X0314466Y0201240D01*
X0314528Y0201164D01*
X0314593Y0201091D01*
X0314661Y0201020D01*
X0314662Y0201020D02*
X0351276Y0164406D01*
X0350636Y0163349D02*
X0313462Y0200523D01*
X0313461Y0200523D02*
X0313393Y0200594D01*
X0313328Y0200667D01*
X0313266Y0200743D01*
X0313206Y0200822D01*
X0313150Y0200902D01*
X0313097Y0200985D01*
X0313048Y0201069D01*
X0313001Y0201156D01*
X0312959Y0201244D01*
X0312919Y0201334D01*
X0312884Y0201426D01*
X0312851Y0201518D01*
X0312823Y0201612D01*
X0312798Y0201707D01*
X0312777Y0201803D01*
X0312760Y0201900D01*
X0312746Y0201997D01*
X0312737Y0202095D01*
X0312731Y0202193D01*
X0312729Y0202291D01*
X0305213Y0202969D02*
X0305145Y0203040D01*
X0305080Y0203113D01*
X0305018Y0203189D01*
X0304958Y0203268D01*
X0304902Y0203348D01*
X0304849Y0203431D01*
X0304800Y0203515D01*
X0304753Y0203602D01*
X0304711Y0203690D01*
X0304671Y0203780D01*
X0304636Y0203872D01*
X0304603Y0203964D01*
X0304575Y0204058D01*
X0304550Y0204153D01*
X0304529Y0204249D01*
X0304512Y0204346D01*
X0304498Y0204443D01*
X0304489Y0204541D01*
X0304483Y0204639D01*
X0304481Y0204737D01*
X0303281Y0204240D02*
X0303283Y0204142D01*
X0303289Y0204044D01*
X0303298Y0203946D01*
X0303312Y0203849D01*
X0303329Y0203752D01*
X0303350Y0203656D01*
X0303375Y0203561D01*
X0303403Y0203467D01*
X0303436Y0203375D01*
X0303471Y0203283D01*
X0303511Y0203193D01*
X0303553Y0203105D01*
X0303600Y0203018D01*
X0303649Y0202934D01*
X0303702Y0202851D01*
X0303758Y0202771D01*
X0303818Y0202692D01*
X0303880Y0202616D01*
X0303945Y0202543D01*
X0304013Y0202472D01*
X0349042Y0157443D01*
X0349539Y0158643D02*
X0305213Y0202969D01*
X0295764Y0204918D02*
X0295696Y0204989D01*
X0295631Y0205062D01*
X0295569Y0205138D01*
X0295509Y0205217D01*
X0295453Y0205297D01*
X0295400Y0205380D01*
X0295351Y0205464D01*
X0295304Y0205551D01*
X0295262Y0205639D01*
X0295222Y0205729D01*
X0295187Y0205821D01*
X0295154Y0205913D01*
X0295126Y0206007D01*
X0295101Y0206102D01*
X0295080Y0206198D01*
X0295063Y0206295D01*
X0295049Y0206392D01*
X0295040Y0206490D01*
X0295034Y0206588D01*
X0295032Y0206686D01*
X0293832Y0206189D02*
X0293834Y0206091D01*
X0293840Y0205993D01*
X0293849Y0205895D01*
X0293863Y0205798D01*
X0293880Y0205701D01*
X0293901Y0205605D01*
X0293926Y0205510D01*
X0293954Y0205416D01*
X0293987Y0205324D01*
X0294022Y0205232D01*
X0294062Y0205142D01*
X0294104Y0205054D01*
X0294151Y0204967D01*
X0294200Y0204883D01*
X0294253Y0204800D01*
X0294309Y0204720D01*
X0294369Y0204641D01*
X0294431Y0204565D01*
X0294496Y0204492D01*
X0294564Y0204421D01*
X0347447Y0151538D01*
X0347944Y0152738D02*
X0295764Y0204918D01*
X0322910Y0198574D02*
X0348293Y0173191D01*
X0348791Y0174391D02*
X0324110Y0199071D01*
X0322910Y0198574D02*
X0322842Y0198645D01*
X0322777Y0198718D01*
X0322715Y0198794D01*
X0322655Y0198873D01*
X0322599Y0198953D01*
X0322546Y0199036D01*
X0322497Y0199120D01*
X0322450Y0199207D01*
X0322408Y0199295D01*
X0322368Y0199385D01*
X0322333Y0199477D01*
X0322300Y0199569D01*
X0322272Y0199663D01*
X0322247Y0199758D01*
X0322226Y0199854D01*
X0322209Y0199951D01*
X0322195Y0200048D01*
X0322186Y0200146D01*
X0322180Y0200244D01*
X0322178Y0200342D01*
X0323378Y0200839D02*
X0323380Y0200741D01*
X0323386Y0200643D01*
X0323395Y0200545D01*
X0323409Y0200448D01*
X0323426Y0200351D01*
X0323447Y0200255D01*
X0323472Y0200160D01*
X0323500Y0200066D01*
X0323533Y0199974D01*
X0323568Y0199882D01*
X0323608Y0199792D01*
X0323650Y0199704D01*
X0323697Y0199617D01*
X0323746Y0199533D01*
X0323799Y0199450D01*
X0323855Y0199370D01*
X0323915Y0199291D01*
X0323977Y0199215D01*
X0324042Y0199142D01*
X0324110Y0199071D01*
X0332359Y0196626D02*
X0349888Y0179097D01*
X0350385Y0180297D02*
X0333559Y0197123D01*
X0332359Y0196625D02*
X0332291Y0196696D01*
X0332226Y0196769D01*
X0332164Y0196845D01*
X0332104Y0196924D01*
X0332048Y0197004D01*
X0331995Y0197087D01*
X0331946Y0197171D01*
X0331899Y0197258D01*
X0331857Y0197346D01*
X0331817Y0197436D01*
X0331782Y0197528D01*
X0331749Y0197620D01*
X0331721Y0197714D01*
X0331696Y0197809D01*
X0331675Y0197905D01*
X0331658Y0198002D01*
X0331644Y0198099D01*
X0331635Y0198197D01*
X0331629Y0198295D01*
X0331627Y0198393D01*
X0332827Y0198890D02*
X0332829Y0198792D01*
X0332835Y0198694D01*
X0332844Y0198596D01*
X0332858Y0198499D01*
X0332875Y0198402D01*
X0332896Y0198306D01*
X0332921Y0198211D01*
X0332949Y0198117D01*
X0332982Y0198025D01*
X0333017Y0197933D01*
X0333057Y0197843D01*
X0333099Y0197755D01*
X0333146Y0197668D01*
X0333195Y0197584D01*
X0333248Y0197501D01*
X0333304Y0197421D01*
X0333364Y0197342D01*
X0333426Y0197266D01*
X0333491Y0197193D01*
X0333559Y0197122D01*
X0350385Y0180297D02*
X0350456Y0180229D01*
X0350529Y0180164D01*
X0350605Y0180102D01*
X0350684Y0180042D01*
X0350764Y0179986D01*
X0350847Y0179933D01*
X0350931Y0179884D01*
X0351018Y0179837D01*
X0351106Y0179795D01*
X0351196Y0179755D01*
X0351288Y0179720D01*
X0351380Y0179687D01*
X0351474Y0179659D01*
X0351569Y0179634D01*
X0351665Y0179613D01*
X0351762Y0179596D01*
X0351859Y0179582D01*
X0351957Y0179573D01*
X0352055Y0179567D01*
X0352153Y0179565D01*
X0352570Y0179565D01*
X0352601Y0179567D01*
X0352631Y0179571D01*
X0352661Y0179578D01*
X0352689Y0179589D01*
X0352717Y0179602D01*
X0352743Y0179618D01*
X0352768Y0179636D01*
X0352791Y0179656D01*
X0353498Y0179949D02*
X0357325Y0179949D01*
X0357325Y0177980D02*
X0353498Y0177980D01*
X0352791Y0178274D02*
X0352768Y0178294D01*
X0352743Y0178312D01*
X0352717Y0178328D01*
X0352689Y0178341D01*
X0352661Y0178352D01*
X0352631Y0178359D01*
X0352601Y0178363D01*
X0352570Y0178365D01*
X0351656Y0178365D01*
X0352791Y0179656D02*
X0352835Y0179698D01*
X0352881Y0179736D01*
X0352930Y0179772D01*
X0352981Y0179805D01*
X0353033Y0179834D01*
X0353088Y0179861D01*
X0353143Y0179884D01*
X0353200Y0179904D01*
X0353259Y0179920D01*
X0353318Y0179933D01*
X0353377Y0179942D01*
X0353438Y0179947D01*
X0353498Y0179949D01*
X0352791Y0178273D02*
X0352835Y0178231D01*
X0352881Y0178193D01*
X0352930Y0178157D01*
X0352981Y0178124D01*
X0353033Y0178095D01*
X0353088Y0178068D01*
X0353143Y0178045D01*
X0353200Y0178025D01*
X0353259Y0178009D01*
X0353318Y0177996D01*
X0353377Y0177987D01*
X0353438Y0177982D01*
X0353498Y0177980D01*
X0350558Y0173659D02*
X0350460Y0173661D01*
X0350362Y0173667D01*
X0350264Y0173676D01*
X0350167Y0173690D01*
X0350070Y0173707D01*
X0349974Y0173728D01*
X0349879Y0173753D01*
X0349785Y0173781D01*
X0349693Y0173814D01*
X0349601Y0173849D01*
X0349511Y0173889D01*
X0349423Y0173931D01*
X0349336Y0173978D01*
X0349252Y0174027D01*
X0349169Y0174080D01*
X0349089Y0174136D01*
X0349010Y0174196D01*
X0348934Y0174258D01*
X0348861Y0174323D01*
X0348790Y0174391D01*
X0348293Y0173191D02*
X0348364Y0173123D01*
X0348437Y0173058D01*
X0348513Y0172996D01*
X0348592Y0172936D01*
X0348672Y0172880D01*
X0348755Y0172827D01*
X0348839Y0172778D01*
X0348926Y0172731D01*
X0349014Y0172689D01*
X0349104Y0172649D01*
X0349196Y0172614D01*
X0349288Y0172581D01*
X0349382Y0172553D01*
X0349477Y0172528D01*
X0349573Y0172507D01*
X0349670Y0172490D01*
X0349767Y0172476D01*
X0349865Y0172467D01*
X0349963Y0172461D01*
X0350061Y0172459D01*
X0352570Y0172459D01*
X0352601Y0172457D01*
X0352631Y0172453D01*
X0352661Y0172446D01*
X0352689Y0172435D01*
X0352717Y0172422D01*
X0352743Y0172406D01*
X0352768Y0172388D01*
X0352791Y0172368D01*
X0353498Y0172075D02*
X0357325Y0172075D01*
X0357325Y0174043D02*
X0353498Y0174043D01*
X0352791Y0173750D02*
X0352768Y0173730D01*
X0352743Y0173712D01*
X0352717Y0173696D01*
X0352689Y0173683D01*
X0352661Y0173672D01*
X0352631Y0173665D01*
X0352601Y0173661D01*
X0352570Y0173659D01*
X0350558Y0173659D01*
X0352791Y0172368D02*
X0352835Y0172326D01*
X0352881Y0172288D01*
X0352930Y0172252D01*
X0352981Y0172219D01*
X0353033Y0172190D01*
X0353088Y0172163D01*
X0353143Y0172140D01*
X0353200Y0172120D01*
X0353259Y0172104D01*
X0353318Y0172091D01*
X0353377Y0172082D01*
X0353438Y0172077D01*
X0353498Y0172075D01*
X0352791Y0173750D02*
X0352835Y0173792D01*
X0352881Y0173830D01*
X0352930Y0173866D01*
X0352981Y0173899D01*
X0353033Y0173928D01*
X0353088Y0173955D01*
X0353143Y0173978D01*
X0353200Y0173998D01*
X0353259Y0174014D01*
X0353318Y0174027D01*
X0353377Y0174036D01*
X0353438Y0174041D01*
X0353498Y0174043D01*
X0351656Y0178365D02*
X0351558Y0178367D01*
X0351460Y0178373D01*
X0351362Y0178382D01*
X0351265Y0178396D01*
X0351168Y0178413D01*
X0351072Y0178434D01*
X0350977Y0178459D01*
X0350883Y0178487D01*
X0350791Y0178520D01*
X0350699Y0178555D01*
X0350609Y0178595D01*
X0350521Y0178637D01*
X0350434Y0178684D01*
X0350350Y0178733D01*
X0350267Y0178786D01*
X0350187Y0178842D01*
X0350108Y0178902D01*
X0350032Y0178964D01*
X0349959Y0179029D01*
X0349888Y0179097D01*
X0368733Y0177000D02*
X0368733Y0199216D01*
X0369933Y0199713D02*
X0369933Y0177000D01*
X0368733Y0177000D02*
X0368735Y0176886D01*
X0368741Y0176771D01*
X0368751Y0176657D01*
X0368764Y0176544D01*
X0368782Y0176431D01*
X0368803Y0176318D01*
X0368828Y0176207D01*
X0368857Y0176096D01*
X0368890Y0175987D01*
X0368926Y0175878D01*
X0368967Y0175771D01*
X0369010Y0175665D01*
X0369058Y0175561D01*
X0369109Y0175459D01*
X0369163Y0175358D01*
X0369221Y0175259D01*
X0369282Y0175163D01*
X0369346Y0175068D01*
X0369414Y0174976D01*
X0369484Y0174886D01*
X0369558Y0174798D01*
X0369635Y0174713D01*
X0369714Y0174631D01*
X0369796Y0174552D01*
X0369881Y0174475D01*
X0369969Y0174401D01*
X0370059Y0174331D01*
X0370151Y0174263D01*
X0370246Y0174199D01*
X0370342Y0174138D01*
X0370441Y0174080D01*
X0370542Y0174026D01*
X0370644Y0173975D01*
X0370748Y0173927D01*
X0370854Y0173884D01*
X0370961Y0173843D01*
X0371070Y0173807D01*
X0371179Y0173774D01*
X0371290Y0173745D01*
X0371401Y0173720D01*
X0371514Y0173699D01*
X0371627Y0173681D01*
X0371740Y0173668D01*
X0371854Y0173658D01*
X0371969Y0173652D01*
X0372083Y0173650D01*
X0376020Y0173650D01*
X0376373Y0173796D02*
X0376474Y0173897D01*
X0376827Y0174043D02*
X0381341Y0174043D01*
X0381341Y0176012D02*
X0377120Y0176012D01*
X0376413Y0175719D02*
X0375983Y0175289D01*
X0376374Y0173796D02*
X0376341Y0173767D01*
X0376307Y0173740D01*
X0376270Y0173717D01*
X0376231Y0173697D01*
X0376191Y0173680D01*
X0376149Y0173667D01*
X0376107Y0173658D01*
X0376064Y0173652D01*
X0376020Y0173650D01*
X0376473Y0173897D02*
X0376506Y0173926D01*
X0376540Y0173953D01*
X0376577Y0173976D01*
X0376616Y0173996D01*
X0376656Y0174013D01*
X0376698Y0174026D01*
X0376740Y0174035D01*
X0376783Y0174041D01*
X0376827Y0174043D01*
X0376413Y0175719D02*
X0376457Y0175761D01*
X0376503Y0175799D01*
X0376552Y0175835D01*
X0376603Y0175868D01*
X0376655Y0175897D01*
X0376710Y0175924D01*
X0376765Y0175947D01*
X0376822Y0175967D01*
X0376881Y0175983D01*
X0376940Y0175996D01*
X0376999Y0176005D01*
X0377060Y0176010D01*
X0377120Y0176012D01*
X0375984Y0175289D02*
X0375930Y0175239D01*
X0375875Y0175190D01*
X0375817Y0175145D01*
X0375756Y0175103D01*
X0375694Y0175063D01*
X0375630Y0175027D01*
X0375564Y0174994D01*
X0375497Y0174964D01*
X0375428Y0174938D01*
X0375358Y0174915D01*
X0375287Y0174895D01*
X0375216Y0174879D01*
X0375143Y0174866D01*
X0375070Y0174857D01*
X0374997Y0174852D01*
X0374923Y0174850D01*
X0372083Y0174850D01*
X0371992Y0174852D01*
X0371901Y0174858D01*
X0371810Y0174867D01*
X0371720Y0174881D01*
X0371630Y0174898D01*
X0371541Y0174919D01*
X0371453Y0174944D01*
X0371367Y0174973D01*
X0371281Y0175005D01*
X0371197Y0175041D01*
X0371115Y0175080D01*
X0371034Y0175123D01*
X0370956Y0175169D01*
X0370879Y0175219D01*
X0370805Y0175271D01*
X0370732Y0175327D01*
X0370663Y0175386D01*
X0370595Y0175448D01*
X0370531Y0175512D01*
X0370469Y0175580D01*
X0370410Y0175649D01*
X0370354Y0175722D01*
X0370302Y0175796D01*
X0370252Y0175873D01*
X0370206Y0175951D01*
X0370163Y0176032D01*
X0370124Y0176114D01*
X0370088Y0176198D01*
X0370056Y0176284D01*
X0370027Y0176370D01*
X0370002Y0176458D01*
X0369981Y0176547D01*
X0369964Y0176637D01*
X0369950Y0176727D01*
X0369941Y0176818D01*
X0369935Y0176909D01*
X0369933Y0177000D01*
X0352699Y0163816D02*
X0352611Y0163818D01*
X0352523Y0163824D01*
X0352436Y0163833D01*
X0352349Y0163847D01*
X0352263Y0163864D01*
X0352178Y0163885D01*
X0352093Y0163909D01*
X0352010Y0163937D01*
X0351928Y0163969D01*
X0351848Y0164005D01*
X0351769Y0164044D01*
X0351692Y0164086D01*
X0351617Y0164131D01*
X0351544Y0164180D01*
X0351473Y0164232D01*
X0351404Y0164287D01*
X0351338Y0164345D01*
X0351275Y0164406D01*
X0350636Y0163349D02*
X0350707Y0163281D01*
X0350780Y0163216D01*
X0350856Y0163154D01*
X0350935Y0163094D01*
X0351015Y0163038D01*
X0351098Y0162985D01*
X0351182Y0162936D01*
X0351269Y0162889D01*
X0351357Y0162847D01*
X0351447Y0162807D01*
X0351539Y0162772D01*
X0351631Y0162739D01*
X0351725Y0162711D01*
X0351820Y0162686D01*
X0351916Y0162665D01*
X0352013Y0162648D01*
X0352110Y0162634D01*
X0352208Y0162625D01*
X0352306Y0162619D01*
X0352404Y0162617D01*
X0352570Y0162617D01*
X0352601Y0162615D01*
X0352631Y0162611D01*
X0352661Y0162604D01*
X0352689Y0162593D01*
X0352717Y0162580D01*
X0352743Y0162564D01*
X0352768Y0162546D01*
X0352791Y0162526D01*
X0353498Y0162232D02*
X0357325Y0162232D01*
X0357325Y0164201D02*
X0353498Y0164201D01*
X0352791Y0163908D02*
X0352699Y0163817D01*
X0352791Y0162525D02*
X0352835Y0162483D01*
X0352881Y0162445D01*
X0352930Y0162409D01*
X0352981Y0162376D01*
X0353033Y0162347D01*
X0353088Y0162320D01*
X0353143Y0162297D01*
X0353200Y0162277D01*
X0353259Y0162261D01*
X0353318Y0162248D01*
X0353377Y0162239D01*
X0353438Y0162234D01*
X0353498Y0162232D01*
X0352791Y0163908D02*
X0352835Y0163950D01*
X0352881Y0163988D01*
X0352930Y0164024D01*
X0352981Y0164057D01*
X0353033Y0164086D01*
X0353088Y0164113D01*
X0353143Y0164136D01*
X0353200Y0164156D01*
X0353259Y0164172D01*
X0353318Y0164185D01*
X0353377Y0164194D01*
X0353438Y0164199D01*
X0353498Y0164201D01*
X0351306Y0157911D02*
X0351208Y0157913D01*
X0351110Y0157919D01*
X0351012Y0157928D01*
X0350915Y0157942D01*
X0350818Y0157959D01*
X0350722Y0157980D01*
X0350627Y0158005D01*
X0350533Y0158033D01*
X0350441Y0158066D01*
X0350349Y0158101D01*
X0350259Y0158141D01*
X0350171Y0158183D01*
X0350084Y0158230D01*
X0350000Y0158279D01*
X0349917Y0158332D01*
X0349837Y0158388D01*
X0349758Y0158448D01*
X0349682Y0158510D01*
X0349609Y0158575D01*
X0349538Y0158643D01*
X0349041Y0157443D02*
X0349112Y0157375D01*
X0349185Y0157310D01*
X0349261Y0157248D01*
X0349340Y0157188D01*
X0349420Y0157132D01*
X0349503Y0157079D01*
X0349587Y0157030D01*
X0349674Y0156983D01*
X0349762Y0156941D01*
X0349852Y0156901D01*
X0349944Y0156866D01*
X0350036Y0156833D01*
X0350130Y0156805D01*
X0350225Y0156780D01*
X0350321Y0156759D01*
X0350418Y0156742D01*
X0350515Y0156728D01*
X0350613Y0156719D01*
X0350711Y0156713D01*
X0350809Y0156711D01*
X0352570Y0156711D01*
X0352601Y0156709D01*
X0352631Y0156705D01*
X0352661Y0156698D01*
X0352689Y0156687D01*
X0352717Y0156674D01*
X0352743Y0156658D01*
X0352768Y0156640D01*
X0352791Y0156620D01*
X0353498Y0156327D02*
X0357325Y0156327D01*
X0357325Y0158295D02*
X0353498Y0158295D01*
X0352791Y0158002D02*
X0352768Y0157982D01*
X0352743Y0157964D01*
X0352717Y0157948D01*
X0352689Y0157935D01*
X0352661Y0157924D01*
X0352631Y0157917D01*
X0352601Y0157913D01*
X0352570Y0157911D01*
X0351306Y0157911D01*
X0352791Y0156620D02*
X0352835Y0156578D01*
X0352881Y0156540D01*
X0352930Y0156504D01*
X0352981Y0156471D01*
X0353033Y0156442D01*
X0353088Y0156415D01*
X0353143Y0156392D01*
X0353200Y0156372D01*
X0353259Y0156356D01*
X0353318Y0156343D01*
X0353377Y0156334D01*
X0353438Y0156329D01*
X0353498Y0156327D01*
X0352791Y0158002D02*
X0352835Y0158044D01*
X0352881Y0158082D01*
X0352930Y0158118D01*
X0352981Y0158151D01*
X0353033Y0158180D01*
X0353088Y0158207D01*
X0353143Y0158230D01*
X0353200Y0158250D01*
X0353259Y0158266D01*
X0353318Y0158279D01*
X0353377Y0158288D01*
X0353438Y0158293D01*
X0353498Y0158295D01*
X0349712Y0152005D02*
X0349614Y0152007D01*
X0349516Y0152013D01*
X0349418Y0152022D01*
X0349321Y0152036D01*
X0349224Y0152053D01*
X0349128Y0152074D01*
X0349033Y0152099D01*
X0348939Y0152127D01*
X0348847Y0152160D01*
X0348755Y0152195D01*
X0348665Y0152235D01*
X0348577Y0152277D01*
X0348490Y0152324D01*
X0348406Y0152373D01*
X0348323Y0152426D01*
X0348243Y0152482D01*
X0348164Y0152542D01*
X0348088Y0152604D01*
X0348015Y0152669D01*
X0347944Y0152737D01*
X0347447Y0151537D02*
X0347518Y0151469D01*
X0347591Y0151404D01*
X0347667Y0151342D01*
X0347746Y0151282D01*
X0347826Y0151226D01*
X0347909Y0151173D01*
X0347993Y0151124D01*
X0348080Y0151077D01*
X0348168Y0151035D01*
X0348258Y0150995D01*
X0348350Y0150960D01*
X0348442Y0150927D01*
X0348536Y0150899D01*
X0348631Y0150874D01*
X0348727Y0150853D01*
X0348824Y0150836D01*
X0348921Y0150822D01*
X0349019Y0150813D01*
X0349117Y0150807D01*
X0349215Y0150805D01*
X0349215Y0150806D02*
X0352570Y0150806D01*
X0352601Y0150804D01*
X0352631Y0150800D01*
X0352661Y0150793D01*
X0352689Y0150782D01*
X0352717Y0150769D01*
X0352743Y0150753D01*
X0352768Y0150735D01*
X0352791Y0150715D01*
X0353498Y0150421D02*
X0357325Y0150421D01*
X0357325Y0152390D02*
X0353498Y0152390D01*
X0352791Y0152096D02*
X0352768Y0152076D01*
X0352743Y0152058D01*
X0352717Y0152042D01*
X0352689Y0152029D01*
X0352661Y0152018D01*
X0352631Y0152011D01*
X0352601Y0152007D01*
X0352570Y0152005D01*
X0352570Y0152006D02*
X0349712Y0152006D01*
X0352791Y0150714D02*
X0352835Y0150672D01*
X0352881Y0150634D01*
X0352930Y0150598D01*
X0352981Y0150565D01*
X0353033Y0150536D01*
X0353088Y0150509D01*
X0353143Y0150486D01*
X0353200Y0150466D01*
X0353259Y0150450D01*
X0353318Y0150437D01*
X0353377Y0150428D01*
X0353438Y0150423D01*
X0353498Y0150421D01*
X0352791Y0152097D02*
X0352835Y0152139D01*
X0352881Y0152177D01*
X0352930Y0152213D01*
X0352981Y0152246D01*
X0353033Y0152275D01*
X0353088Y0152302D01*
X0353143Y0152325D01*
X0353200Y0152345D01*
X0353259Y0152361D01*
X0353318Y0152374D01*
X0353377Y0152383D01*
X0353438Y0152388D01*
X0353498Y0152390D01*
X0353498Y0140579D02*
X0357325Y0140579D01*
X0357325Y0138610D02*
X0353498Y0138610D01*
X0352791Y0138904D02*
X0352768Y0138924D01*
X0352743Y0138942D01*
X0352717Y0138958D01*
X0352689Y0138971D01*
X0352661Y0138982D01*
X0352631Y0138989D01*
X0352601Y0138993D01*
X0352570Y0138995D01*
X0352570Y0138994D02*
X0349712Y0138994D01*
X0349215Y0140194D02*
X0352570Y0140194D01*
X0352601Y0140196D01*
X0352631Y0140200D01*
X0352661Y0140207D01*
X0352689Y0140218D01*
X0352717Y0140231D01*
X0352743Y0140247D01*
X0352768Y0140265D01*
X0352791Y0140285D01*
X0352791Y0138903D02*
X0352835Y0138861D01*
X0352881Y0138823D01*
X0352930Y0138787D01*
X0352981Y0138754D01*
X0353033Y0138725D01*
X0353088Y0138698D01*
X0353143Y0138675D01*
X0353200Y0138655D01*
X0353259Y0138639D01*
X0353318Y0138626D01*
X0353377Y0138617D01*
X0353438Y0138612D01*
X0353498Y0138610D01*
X0352791Y0140286D02*
X0352835Y0140328D01*
X0352881Y0140366D01*
X0352930Y0140402D01*
X0352981Y0140435D01*
X0353033Y0140464D01*
X0353088Y0140491D01*
X0353143Y0140514D01*
X0353200Y0140534D01*
X0353259Y0140550D01*
X0353318Y0140563D01*
X0353377Y0140572D01*
X0353438Y0140577D01*
X0353498Y0140579D01*
X0349215Y0140194D02*
X0349117Y0140192D01*
X0349019Y0140186D01*
X0348921Y0140177D01*
X0348824Y0140163D01*
X0348727Y0140146D01*
X0348631Y0140125D01*
X0348536Y0140100D01*
X0348442Y0140072D01*
X0348350Y0140039D01*
X0348258Y0140004D01*
X0348168Y0139964D01*
X0348080Y0139922D01*
X0347993Y0139875D01*
X0347909Y0139826D01*
X0347826Y0139773D01*
X0347746Y0139717D01*
X0347667Y0139657D01*
X0347591Y0139595D01*
X0347518Y0139530D01*
X0347447Y0139462D01*
X0347944Y0138262D02*
X0348015Y0138330D01*
X0348088Y0138395D01*
X0348164Y0138457D01*
X0348243Y0138517D01*
X0348323Y0138573D01*
X0348406Y0138626D01*
X0348490Y0138675D01*
X0348577Y0138722D01*
X0348665Y0138764D01*
X0348755Y0138804D01*
X0348847Y0138839D01*
X0348939Y0138872D01*
X0349033Y0138900D01*
X0349128Y0138925D01*
X0349224Y0138946D01*
X0349321Y0138963D01*
X0349418Y0138977D01*
X0349516Y0138986D01*
X0349614Y0138992D01*
X0349712Y0138994D01*
X0350809Y0134289D02*
X0352570Y0134289D01*
X0352601Y0134291D01*
X0352631Y0134295D01*
X0352661Y0134302D01*
X0352689Y0134313D01*
X0352717Y0134326D01*
X0352743Y0134342D01*
X0352768Y0134360D01*
X0352791Y0134380D01*
X0353498Y0134673D02*
X0357325Y0134673D01*
X0357325Y0132705D02*
X0353498Y0132705D01*
X0352791Y0132998D02*
X0352768Y0133018D01*
X0352743Y0133036D01*
X0352717Y0133052D01*
X0352689Y0133065D01*
X0352661Y0133076D01*
X0352631Y0133083D01*
X0352601Y0133087D01*
X0352570Y0133089D01*
X0351306Y0133089D01*
X0350809Y0134289D02*
X0350711Y0134287D01*
X0350613Y0134281D01*
X0350515Y0134272D01*
X0350418Y0134258D01*
X0350321Y0134241D01*
X0350225Y0134220D01*
X0350130Y0134195D01*
X0350036Y0134167D01*
X0349944Y0134134D01*
X0349852Y0134099D01*
X0349762Y0134059D01*
X0349674Y0134017D01*
X0349587Y0133970D01*
X0349503Y0133921D01*
X0349420Y0133868D01*
X0349340Y0133812D01*
X0349261Y0133752D01*
X0349185Y0133690D01*
X0349112Y0133625D01*
X0349041Y0133557D01*
X0349538Y0132357D02*
X0349609Y0132425D01*
X0349682Y0132490D01*
X0349758Y0132552D01*
X0349837Y0132612D01*
X0349917Y0132668D01*
X0350000Y0132721D01*
X0350084Y0132770D01*
X0350171Y0132817D01*
X0350259Y0132859D01*
X0350349Y0132899D01*
X0350441Y0132934D01*
X0350533Y0132967D01*
X0350627Y0132995D01*
X0350722Y0133020D01*
X0350818Y0133041D01*
X0350915Y0133058D01*
X0351012Y0133072D01*
X0351110Y0133081D01*
X0351208Y0133087D01*
X0351306Y0133089D01*
X0352791Y0134380D02*
X0352835Y0134422D01*
X0352881Y0134460D01*
X0352930Y0134496D01*
X0352981Y0134529D01*
X0353033Y0134558D01*
X0353088Y0134585D01*
X0353143Y0134608D01*
X0353200Y0134628D01*
X0353259Y0134644D01*
X0353318Y0134657D01*
X0353377Y0134666D01*
X0353438Y0134671D01*
X0353498Y0134673D01*
X0352791Y0132998D02*
X0352835Y0132956D01*
X0352881Y0132918D01*
X0352930Y0132882D01*
X0352981Y0132849D01*
X0353033Y0132820D01*
X0353088Y0132793D01*
X0353143Y0132770D01*
X0353200Y0132750D01*
X0353259Y0132734D01*
X0353318Y0132721D01*
X0353377Y0132712D01*
X0353438Y0132707D01*
X0353498Y0132705D01*
X0353498Y0128768D02*
X0357325Y0128768D01*
X0357325Y0126799D02*
X0353498Y0126799D01*
X0352791Y0127092D02*
X0352699Y0127183D01*
X0352791Y0128475D02*
X0352835Y0128517D01*
X0352881Y0128555D01*
X0352930Y0128591D01*
X0352981Y0128624D01*
X0353033Y0128653D01*
X0353088Y0128680D01*
X0353143Y0128703D01*
X0353200Y0128723D01*
X0353259Y0128739D01*
X0353318Y0128752D01*
X0353377Y0128761D01*
X0353438Y0128766D01*
X0353498Y0128768D01*
X0352791Y0128474D02*
X0352768Y0128454D01*
X0352743Y0128436D01*
X0352717Y0128420D01*
X0352689Y0128407D01*
X0352661Y0128396D01*
X0352631Y0128389D01*
X0352601Y0128385D01*
X0352570Y0128383D01*
X0352404Y0128383D01*
X0352791Y0127092D02*
X0352835Y0127050D01*
X0352881Y0127012D01*
X0352930Y0126976D01*
X0352981Y0126943D01*
X0353033Y0126914D01*
X0353088Y0126887D01*
X0353143Y0126864D01*
X0353200Y0126844D01*
X0353259Y0126828D01*
X0353318Y0126815D01*
X0353377Y0126806D01*
X0353438Y0126801D01*
X0353498Y0126799D01*
X0352404Y0128383D02*
X0352306Y0128381D01*
X0352208Y0128375D01*
X0352110Y0128366D01*
X0352013Y0128352D01*
X0351916Y0128335D01*
X0351820Y0128314D01*
X0351725Y0128289D01*
X0351631Y0128261D01*
X0351539Y0128228D01*
X0351447Y0128193D01*
X0351357Y0128153D01*
X0351269Y0128111D01*
X0351182Y0128064D01*
X0351098Y0128015D01*
X0351015Y0127962D01*
X0350935Y0127906D01*
X0350856Y0127846D01*
X0350780Y0127784D01*
X0350707Y0127719D01*
X0350636Y0127651D01*
X0351275Y0126594D02*
X0351338Y0126655D01*
X0351404Y0126713D01*
X0351473Y0126768D01*
X0351544Y0126820D01*
X0351617Y0126869D01*
X0351692Y0126914D01*
X0351769Y0126956D01*
X0351848Y0126995D01*
X0351928Y0127031D01*
X0352010Y0127063D01*
X0352093Y0127091D01*
X0352178Y0127115D01*
X0352263Y0127136D01*
X0352349Y0127153D01*
X0352436Y0127167D01*
X0352523Y0127176D01*
X0352611Y0127182D01*
X0352699Y0127184D01*
X0353498Y0118925D02*
X0357325Y0118925D01*
X0357325Y0116957D02*
X0353498Y0116957D01*
X0352791Y0117250D02*
X0352768Y0117270D01*
X0352743Y0117288D01*
X0352717Y0117304D01*
X0352689Y0117317D01*
X0352661Y0117328D01*
X0352631Y0117335D01*
X0352601Y0117339D01*
X0352570Y0117341D01*
X0350558Y0117341D01*
X0350061Y0118541D02*
X0352570Y0118541D01*
X0352601Y0118543D01*
X0352631Y0118547D01*
X0352661Y0118554D01*
X0352689Y0118565D01*
X0352717Y0118578D01*
X0352743Y0118594D01*
X0352768Y0118612D01*
X0352791Y0118632D01*
X0352791Y0117250D02*
X0352835Y0117208D01*
X0352881Y0117170D01*
X0352930Y0117134D01*
X0352981Y0117101D01*
X0353033Y0117072D01*
X0353088Y0117045D01*
X0353143Y0117022D01*
X0353200Y0117002D01*
X0353259Y0116986D01*
X0353318Y0116973D01*
X0353377Y0116964D01*
X0353438Y0116959D01*
X0353498Y0116957D01*
X0352791Y0118632D02*
X0352835Y0118674D01*
X0352881Y0118712D01*
X0352930Y0118748D01*
X0352981Y0118781D01*
X0353033Y0118810D01*
X0353088Y0118837D01*
X0353143Y0118860D01*
X0353200Y0118880D01*
X0353259Y0118896D01*
X0353318Y0118909D01*
X0353377Y0118918D01*
X0353438Y0118923D01*
X0353498Y0118925D01*
X0350061Y0118541D02*
X0349963Y0118539D01*
X0349865Y0118533D01*
X0349767Y0118524D01*
X0349670Y0118510D01*
X0349573Y0118493D01*
X0349477Y0118472D01*
X0349382Y0118447D01*
X0349288Y0118419D01*
X0349196Y0118386D01*
X0349104Y0118351D01*
X0349014Y0118311D01*
X0348926Y0118269D01*
X0348839Y0118222D01*
X0348755Y0118173D01*
X0348672Y0118120D01*
X0348592Y0118064D01*
X0348513Y0118004D01*
X0348437Y0117942D01*
X0348364Y0117877D01*
X0348293Y0117809D01*
X0313462Y0082977D01*
X0314662Y0082480D02*
X0348791Y0116609D01*
X0348790Y0116609D02*
X0348861Y0116677D01*
X0348934Y0116742D01*
X0349010Y0116804D01*
X0349089Y0116864D01*
X0349169Y0116920D01*
X0349252Y0116973D01*
X0349336Y0117022D01*
X0349423Y0117069D01*
X0349511Y0117111D01*
X0349601Y0117151D01*
X0349693Y0117186D01*
X0349785Y0117219D01*
X0349879Y0117247D01*
X0349974Y0117272D01*
X0350070Y0117293D01*
X0350167Y0117310D01*
X0350264Y0117324D01*
X0350362Y0117333D01*
X0350460Y0117339D01*
X0350558Y0117341D01*
X0351656Y0112635D02*
X0352570Y0112635D01*
X0352601Y0112637D01*
X0352631Y0112641D01*
X0352661Y0112648D01*
X0352689Y0112659D01*
X0352717Y0112672D01*
X0352743Y0112688D01*
X0352768Y0112706D01*
X0352791Y0112726D01*
X0353498Y0113020D02*
X0357325Y0113020D01*
X0357325Y0111051D02*
X0353498Y0111051D01*
X0352791Y0111344D02*
X0352768Y0111364D01*
X0352743Y0111382D01*
X0352717Y0111398D01*
X0352689Y0111411D01*
X0352661Y0111422D01*
X0352631Y0111429D01*
X0352601Y0111433D01*
X0352570Y0111435D01*
X0352153Y0111435D01*
X0351656Y0112635D02*
X0351558Y0112633D01*
X0351460Y0112627D01*
X0351362Y0112618D01*
X0351265Y0112604D01*
X0351168Y0112587D01*
X0351072Y0112566D01*
X0350977Y0112541D01*
X0350883Y0112513D01*
X0350791Y0112480D01*
X0350699Y0112445D01*
X0350609Y0112405D01*
X0350521Y0112363D01*
X0350434Y0112316D01*
X0350350Y0112267D01*
X0350267Y0112214D01*
X0350187Y0112158D01*
X0350108Y0112098D01*
X0350032Y0112036D01*
X0349959Y0111971D01*
X0349888Y0111903D01*
X0322910Y0084926D01*
X0324110Y0084429D02*
X0350385Y0110703D01*
X0350456Y0110771D01*
X0350529Y0110836D01*
X0350605Y0110898D01*
X0350684Y0110958D01*
X0350764Y0111014D01*
X0350847Y0111067D01*
X0350931Y0111116D01*
X0351018Y0111163D01*
X0351106Y0111205D01*
X0351196Y0111245D01*
X0351288Y0111280D01*
X0351380Y0111313D01*
X0351474Y0111341D01*
X0351569Y0111366D01*
X0351665Y0111387D01*
X0351762Y0111404D01*
X0351859Y0111418D01*
X0351957Y0111427D01*
X0352055Y0111433D01*
X0352153Y0111435D01*
X0352791Y0112727D02*
X0352835Y0112769D01*
X0352881Y0112807D01*
X0352930Y0112843D01*
X0352981Y0112876D01*
X0353033Y0112905D01*
X0353088Y0112932D01*
X0353143Y0112955D01*
X0353200Y0112975D01*
X0353259Y0112991D01*
X0353318Y0113004D01*
X0353377Y0113013D01*
X0353438Y0113018D01*
X0353498Y0113020D01*
X0352791Y0111344D02*
X0352835Y0111302D01*
X0352881Y0111264D01*
X0352930Y0111228D01*
X0352981Y0111195D01*
X0353033Y0111166D01*
X0353088Y0111139D01*
X0353143Y0111116D01*
X0353200Y0111096D01*
X0353259Y0111080D01*
X0353318Y0111067D01*
X0353377Y0111058D01*
X0353438Y0111053D01*
X0353498Y0111051D01*
X0368733Y0113500D02*
X0368733Y0091784D01*
X0369933Y0091287D02*
X0369933Y0113500D01*
X0368733Y0113500D02*
X0368735Y0113623D01*
X0368741Y0113747D01*
X0368751Y0113870D01*
X0368765Y0113992D01*
X0368782Y0114114D01*
X0368804Y0114236D01*
X0368830Y0114357D01*
X0368859Y0114477D01*
X0368892Y0114595D01*
X0368929Y0114713D01*
X0368970Y0114830D01*
X0369014Y0114945D01*
X0369063Y0115058D01*
X0369114Y0115170D01*
X0369170Y0115281D01*
X0369228Y0115389D01*
X0369291Y0115496D01*
X0369356Y0115600D01*
X0369425Y0115703D01*
X0369498Y0115803D01*
X0369573Y0115900D01*
X0369651Y0115996D01*
X0369733Y0116088D01*
X0369817Y0116178D01*
X0369905Y0116266D01*
X0369995Y0116350D01*
X0370087Y0116432D01*
X0370183Y0116510D01*
X0370280Y0116585D01*
X0370380Y0116658D01*
X0370483Y0116727D01*
X0370587Y0116792D01*
X0370694Y0116855D01*
X0370802Y0116913D01*
X0370913Y0116969D01*
X0371025Y0117020D01*
X0371138Y0117069D01*
X0371253Y0117113D01*
X0371370Y0117154D01*
X0371488Y0117191D01*
X0371606Y0117224D01*
X0371726Y0117253D01*
X0371847Y0117279D01*
X0371969Y0117301D01*
X0372091Y0117318D01*
X0372213Y0117332D01*
X0372336Y0117342D01*
X0372460Y0117348D01*
X0372583Y0117350D01*
X0376227Y0117350D01*
X0376620Y0116957D01*
X0381341Y0116957D01*
X0381341Y0114988D02*
X0377120Y0114988D01*
X0376413Y0115281D02*
X0375544Y0116150D01*
X0372583Y0116150D01*
X0372481Y0116148D01*
X0372380Y0116142D01*
X0372279Y0116133D01*
X0372178Y0116119D01*
X0372078Y0116102D01*
X0371979Y0116080D01*
X0371881Y0116055D01*
X0371783Y0116027D01*
X0371687Y0115994D01*
X0371592Y0115958D01*
X0371499Y0115918D01*
X0371407Y0115875D01*
X0371317Y0115828D01*
X0371229Y0115778D01*
X0371143Y0115724D01*
X0371058Y0115668D01*
X0370977Y0115608D01*
X0370897Y0115544D01*
X0370820Y0115478D01*
X0370745Y0115409D01*
X0370674Y0115338D01*
X0370605Y0115263D01*
X0370539Y0115186D01*
X0370475Y0115106D01*
X0370415Y0115025D01*
X0370359Y0114940D01*
X0370305Y0114854D01*
X0370255Y0114766D01*
X0370208Y0114676D01*
X0370165Y0114584D01*
X0370125Y0114491D01*
X0370089Y0114396D01*
X0370056Y0114300D01*
X0370028Y0114202D01*
X0370003Y0114104D01*
X0369981Y0114005D01*
X0369964Y0113905D01*
X0369950Y0113804D01*
X0369941Y0113703D01*
X0369935Y0113602D01*
X0369933Y0113500D01*
X0376413Y0115281D02*
X0376457Y0115239D01*
X0376503Y0115201D01*
X0376552Y0115165D01*
X0376603Y0115132D01*
X0376655Y0115103D01*
X0376710Y0115076D01*
X0376765Y0115053D01*
X0376822Y0115033D01*
X0376881Y0115017D01*
X0376940Y0115004D01*
X0376999Y0114995D01*
X0377060Y0114990D01*
X0377120Y0114988D01*
X0374525Y0126799D02*
X0381341Y0126799D01*
X0381341Y0128768D02*
X0376706Y0128768D01*
X0374525Y0132705D02*
X0381341Y0132705D01*
X0381341Y0134673D02*
X0376706Y0134673D01*
X0374525Y0138610D02*
X0381341Y0138610D01*
X0381341Y0140579D02*
X0376706Y0140579D01*
X0389494Y0134039D02*
X0389548Y0133989D01*
X0389603Y0133940D01*
X0389661Y0133895D01*
X0389722Y0133853D01*
X0389784Y0133813D01*
X0389848Y0133777D01*
X0389914Y0133744D01*
X0389981Y0133714D01*
X0390050Y0133688D01*
X0390120Y0133665D01*
X0390191Y0133645D01*
X0390262Y0133629D01*
X0390335Y0133616D01*
X0390408Y0133607D01*
X0390481Y0133602D01*
X0390555Y0133600D01*
X0393549Y0133600D01*
X0394046Y0132400D02*
X0390555Y0132400D01*
X0389494Y0131961D02*
X0389333Y0131800D01*
X0389494Y0131961D02*
X0389548Y0132011D01*
X0389603Y0132060D01*
X0389661Y0132105D01*
X0389722Y0132147D01*
X0389784Y0132187D01*
X0389848Y0132223D01*
X0389914Y0132256D01*
X0389981Y0132286D01*
X0390050Y0132312D01*
X0390120Y0132335D01*
X0390191Y0132355D01*
X0390262Y0132371D01*
X0390335Y0132384D01*
X0390408Y0132393D01*
X0390481Y0132398D01*
X0390555Y0132400D01*
X0389494Y0134039D02*
X0389333Y0134200D01*
X0393549Y0133600D02*
X0393647Y0133602D01*
X0393745Y0133608D01*
X0393843Y0133617D01*
X0393940Y0133631D01*
X0394037Y0133648D01*
X0394133Y0133669D01*
X0394228Y0133694D01*
X0394322Y0133722D01*
X0394414Y0133755D01*
X0394506Y0133790D01*
X0394596Y0133830D01*
X0394684Y0133872D01*
X0394771Y0133919D01*
X0394855Y0133968D01*
X0394938Y0134021D01*
X0395018Y0134077D01*
X0395097Y0134137D01*
X0395173Y0134199D01*
X0395246Y0134264D01*
X0395317Y0134332D01*
X0399159Y0138174D01*
X0399159Y0138674D01*
X0398915Y0138919D01*
X0399159Y0138174D02*
X0405753Y0144768D01*
X0407520Y0145500D02*
X0411755Y0145500D01*
X0411755Y0143531D02*
X0407249Y0143531D01*
X0405752Y0144768D02*
X0405823Y0144836D01*
X0405896Y0144901D01*
X0405972Y0144963D01*
X0406051Y0145023D01*
X0406131Y0145079D01*
X0406214Y0145132D01*
X0406298Y0145181D01*
X0406385Y0145228D01*
X0406473Y0145270D01*
X0406563Y0145310D01*
X0406655Y0145345D01*
X0406747Y0145378D01*
X0406841Y0145406D01*
X0406936Y0145431D01*
X0407032Y0145452D01*
X0407129Y0145469D01*
X0407226Y0145483D01*
X0407324Y0145492D01*
X0407422Y0145498D01*
X0407520Y0145500D01*
X0405481Y0142799D02*
X0400008Y0137326D01*
X0400508Y0137326D01*
X0400752Y0137081D01*
X0400008Y0137326D02*
X0395814Y0133132D01*
X0395743Y0133064D01*
X0395670Y0132999D01*
X0395594Y0132937D01*
X0395515Y0132877D01*
X0395435Y0132821D01*
X0395352Y0132768D01*
X0395268Y0132719D01*
X0395181Y0132672D01*
X0395093Y0132630D01*
X0395003Y0132590D01*
X0394911Y0132555D01*
X0394819Y0132522D01*
X0394725Y0132494D01*
X0394630Y0132469D01*
X0394534Y0132448D01*
X0394437Y0132431D01*
X0394340Y0132417D01*
X0394242Y0132408D01*
X0394144Y0132402D01*
X0394046Y0132400D01*
X0405481Y0142799D02*
X0405552Y0142867D01*
X0405625Y0142932D01*
X0405701Y0142994D01*
X0405780Y0143054D01*
X0405860Y0143110D01*
X0405943Y0143163D01*
X0406027Y0143212D01*
X0406114Y0143259D01*
X0406202Y0143301D01*
X0406292Y0143341D01*
X0406384Y0143376D01*
X0406476Y0143409D01*
X0406570Y0143437D01*
X0406665Y0143462D01*
X0406761Y0143483D01*
X0406858Y0143500D01*
X0406955Y0143514D01*
X0407053Y0143523D01*
X0407151Y0143529D01*
X0407249Y0143531D01*
X0406615Y0151406D02*
X0411755Y0151406D01*
X0411755Y0153374D02*
X0406343Y0153374D01*
X0404847Y0152137D02*
X0404918Y0152069D01*
X0404991Y0152004D01*
X0405067Y0151942D01*
X0405146Y0151882D01*
X0405226Y0151826D01*
X0405309Y0151773D01*
X0405393Y0151724D01*
X0405480Y0151677D01*
X0405568Y0151635D01*
X0405658Y0151595D01*
X0405750Y0151560D01*
X0405842Y0151527D01*
X0405936Y0151499D01*
X0406031Y0151474D01*
X0406127Y0151453D01*
X0406224Y0151436D01*
X0406321Y0151422D01*
X0406419Y0151413D01*
X0406517Y0151407D01*
X0406615Y0151405D01*
X0404847Y0152138D02*
X0399159Y0157826D01*
X0399159Y0157326D01*
X0398915Y0157081D01*
X0399159Y0157826D02*
X0396966Y0160019D01*
X0397965Y0160717D02*
X0400008Y0158674D01*
X0400508Y0158674D01*
X0400752Y0158919D01*
X0400008Y0158674D02*
X0404576Y0154106D01*
X0404575Y0154106D02*
X0404646Y0154038D01*
X0404719Y0153973D01*
X0404795Y0153911D01*
X0404874Y0153851D01*
X0404954Y0153795D01*
X0405037Y0153742D01*
X0405121Y0153693D01*
X0405208Y0153646D01*
X0405296Y0153604D01*
X0405386Y0153564D01*
X0405478Y0153529D01*
X0405570Y0153496D01*
X0405664Y0153468D01*
X0405759Y0153443D01*
X0405855Y0153422D01*
X0405952Y0153405D01*
X0406049Y0153391D01*
X0406147Y0153382D01*
X0406245Y0153376D01*
X0406343Y0153374D01*
X0397964Y0160717D02*
X0397906Y0160778D01*
X0397851Y0160841D01*
X0397799Y0160907D01*
X0397750Y0160975D01*
X0397705Y0161045D01*
X0397662Y0161117D01*
X0397623Y0161191D01*
X0397588Y0161267D01*
X0397555Y0161345D01*
X0397527Y0161424D01*
X0397502Y0161504D01*
X0397481Y0161585D01*
X0397464Y0161667D01*
X0397450Y0161749D01*
X0397441Y0161833D01*
X0397435Y0161916D01*
X0397433Y0162000D01*
X0397433Y0164000D01*
X0396233Y0164000D02*
X0396233Y0161787D01*
X0396235Y0161689D01*
X0396241Y0161591D01*
X0396250Y0161493D01*
X0396264Y0161396D01*
X0396281Y0161299D01*
X0396302Y0161203D01*
X0396327Y0161108D01*
X0396355Y0161014D01*
X0396388Y0160922D01*
X0396423Y0160830D01*
X0396463Y0160740D01*
X0396505Y0160652D01*
X0396552Y0160565D01*
X0396601Y0160481D01*
X0396654Y0160398D01*
X0396710Y0160318D01*
X0396770Y0160239D01*
X0396832Y0160163D01*
X0396897Y0160090D01*
X0396965Y0160019D01*
X0397433Y0164000D02*
X0397435Y0164090D01*
X0397441Y0164179D01*
X0397451Y0164268D01*
X0397464Y0164356D01*
X0397482Y0164444D01*
X0397503Y0164531D01*
X0397528Y0164617D01*
X0397557Y0164702D01*
X0397589Y0164785D01*
X0397625Y0164867D01*
X0397665Y0164948D01*
X0397708Y0165026D01*
X0397754Y0165103D01*
X0397804Y0165177D01*
X0397857Y0165249D01*
X0397913Y0165319D01*
X0397972Y0165386D01*
X0398034Y0165451D01*
X0398083Y0165500D01*
X0395632Y0165451D02*
X0395583Y0165500D01*
X0395632Y0165451D02*
X0395694Y0165386D01*
X0395753Y0165319D01*
X0395809Y0165249D01*
X0395862Y0165177D01*
X0395912Y0165103D01*
X0395958Y0165026D01*
X0396001Y0164948D01*
X0396041Y0164867D01*
X0396077Y0164785D01*
X0396109Y0164702D01*
X0396138Y0164617D01*
X0396163Y0164531D01*
X0396184Y0164444D01*
X0396202Y0164356D01*
X0396215Y0164268D01*
X0396225Y0164179D01*
X0396231Y0164090D01*
X0396233Y0164000D01*
X0381341Y0164201D02*
X0374525Y0164201D01*
X0376706Y0162232D02*
X0381341Y0162232D01*
X0381341Y0158295D02*
X0374525Y0158295D01*
X0376706Y0156327D02*
X0381341Y0156327D01*
X0381341Y0152390D02*
X0374525Y0152390D01*
X0376706Y0150421D02*
X0381341Y0150421D01*
X0368733Y0199216D02*
X0368731Y0199314D01*
X0368725Y0199412D01*
X0368716Y0199510D01*
X0368702Y0199607D01*
X0368685Y0199704D01*
X0368664Y0199800D01*
X0368639Y0199895D01*
X0368611Y0199989D01*
X0368578Y0200081D01*
X0368543Y0200173D01*
X0368503Y0200263D01*
X0368461Y0200351D01*
X0368414Y0200438D01*
X0368365Y0200522D01*
X0368312Y0200605D01*
X0368256Y0200685D01*
X0368196Y0200764D01*
X0368134Y0200840D01*
X0368069Y0200913D01*
X0368001Y0200984D01*
X0369201Y0201481D02*
X0369269Y0201410D01*
X0369334Y0201337D01*
X0369396Y0201261D01*
X0369456Y0201182D01*
X0369512Y0201102D01*
X0369565Y0201019D01*
X0369614Y0200935D01*
X0369661Y0200848D01*
X0369703Y0200760D01*
X0369743Y0200670D01*
X0369778Y0200578D01*
X0369811Y0200486D01*
X0369839Y0200392D01*
X0369864Y0200297D01*
X0369885Y0200201D01*
X0369902Y0200104D01*
X0369916Y0200007D01*
X0369925Y0199909D01*
X0369931Y0199811D01*
X0369933Y0199713D01*
X0416774Y0200157D02*
X0416774Y0200354D01*
X0424648Y0200354D02*
X0424648Y0200157D01*
X0424648Y0219646D02*
X0424648Y0219843D01*
X0416774Y0219843D02*
X0416774Y0219646D01*
X0285583Y0221937D02*
X0285581Y0221839D01*
X0285575Y0221741D01*
X0285566Y0221643D01*
X0285552Y0221546D01*
X0285535Y0221449D01*
X0285514Y0221353D01*
X0285489Y0221258D01*
X0285461Y0221164D01*
X0285428Y0221072D01*
X0285393Y0220980D01*
X0285353Y0220890D01*
X0285311Y0220802D01*
X0285264Y0220715D01*
X0285215Y0220631D01*
X0285162Y0220548D01*
X0285106Y0220468D01*
X0285046Y0220389D01*
X0284984Y0220313D01*
X0284919Y0220240D01*
X0284851Y0220169D01*
X0283651Y0220666D02*
X0283719Y0220737D01*
X0283784Y0220810D01*
X0283846Y0220886D01*
X0283906Y0220965D01*
X0283962Y0221045D01*
X0284015Y0221128D01*
X0284064Y0221212D01*
X0284111Y0221299D01*
X0284153Y0221387D01*
X0284193Y0221477D01*
X0284228Y0221569D01*
X0284261Y0221661D01*
X0284289Y0221755D01*
X0284314Y0221850D01*
X0284335Y0221946D01*
X0284352Y0222043D01*
X0284366Y0222140D01*
X0284375Y0222238D01*
X0284381Y0222336D01*
X0284383Y0222434D01*
X0276134Y0219988D02*
X0276132Y0219890D01*
X0276126Y0219792D01*
X0276117Y0219694D01*
X0276103Y0219597D01*
X0276086Y0219500D01*
X0276065Y0219404D01*
X0276040Y0219309D01*
X0276012Y0219215D01*
X0275979Y0219123D01*
X0275944Y0219031D01*
X0275904Y0218941D01*
X0275862Y0218853D01*
X0275815Y0218766D01*
X0275766Y0218682D01*
X0275713Y0218599D01*
X0275657Y0218519D01*
X0275597Y0218440D01*
X0275535Y0218364D01*
X0275470Y0218291D01*
X0275402Y0218220D01*
X0263536Y0214889D02*
X0263536Y0244904D01*
X0263975Y0245965D02*
X0264510Y0246500D01*
X0263975Y0245965D02*
X0263925Y0245911D01*
X0263876Y0245856D01*
X0263831Y0245798D01*
X0263789Y0245737D01*
X0263749Y0245675D01*
X0263713Y0245611D01*
X0263680Y0245545D01*
X0263650Y0245478D01*
X0263624Y0245409D01*
X0263601Y0245339D01*
X0263581Y0245268D01*
X0263565Y0245197D01*
X0263552Y0245124D01*
X0263543Y0245051D01*
X0263538Y0244978D01*
X0263536Y0244904D01*
X0262336Y0244904D02*
X0262336Y0215386D01*
X0263536Y0214889D02*
X0263534Y0214791D01*
X0263528Y0214693D01*
X0263519Y0214595D01*
X0263505Y0214498D01*
X0263488Y0214401D01*
X0263467Y0214305D01*
X0263442Y0214210D01*
X0263414Y0214116D01*
X0263381Y0214024D01*
X0263346Y0213932D01*
X0263306Y0213842D01*
X0263264Y0213754D01*
X0263217Y0213667D01*
X0263168Y0213583D01*
X0263115Y0213500D01*
X0263059Y0213420D01*
X0262999Y0213341D01*
X0262937Y0213265D01*
X0262872Y0213192D01*
X0262804Y0213121D01*
X0262803Y0213122D02*
X0213031Y0163349D01*
X0212391Y0164406D02*
X0261603Y0213619D01*
X0261604Y0213618D02*
X0261672Y0213689D01*
X0261737Y0213762D01*
X0261799Y0213838D01*
X0261859Y0213917D01*
X0261915Y0213997D01*
X0261968Y0214080D01*
X0262017Y0214164D01*
X0262064Y0214251D01*
X0262106Y0214339D01*
X0262146Y0214429D01*
X0262181Y0214521D01*
X0262214Y0214613D01*
X0262242Y0214707D01*
X0262267Y0214802D01*
X0262288Y0214898D01*
X0262305Y0214995D01*
X0262319Y0215092D01*
X0262328Y0215190D01*
X0262334Y0215288D01*
X0262336Y0215386D01*
X0254087Y0212941D02*
X0254087Y0244904D01*
X0254526Y0245965D02*
X0255062Y0246500D01*
X0254526Y0245965D02*
X0254476Y0245911D01*
X0254427Y0245856D01*
X0254382Y0245798D01*
X0254340Y0245737D01*
X0254300Y0245675D01*
X0254264Y0245611D01*
X0254231Y0245545D01*
X0254201Y0245478D01*
X0254175Y0245409D01*
X0254152Y0245339D01*
X0254132Y0245268D01*
X0254116Y0245197D01*
X0254103Y0245124D01*
X0254094Y0245051D01*
X0254089Y0244978D01*
X0254087Y0244904D01*
X0252887Y0244904D02*
X0252887Y0213438D01*
X0254087Y0212941D02*
X0254085Y0212843D01*
X0254079Y0212745D01*
X0254070Y0212647D01*
X0254056Y0212550D01*
X0254039Y0212453D01*
X0254018Y0212357D01*
X0253993Y0212262D01*
X0253965Y0212168D01*
X0253932Y0212076D01*
X0253897Y0211984D01*
X0253857Y0211894D01*
X0253815Y0211806D01*
X0253768Y0211719D01*
X0253719Y0211635D01*
X0253666Y0211552D01*
X0253610Y0211472D01*
X0253550Y0211393D01*
X0253488Y0211317D01*
X0253423Y0211244D01*
X0253355Y0211173D01*
X0215373Y0173191D01*
X0214876Y0174391D02*
X0252155Y0211670D01*
X0252223Y0211741D01*
X0252288Y0211814D01*
X0252350Y0211890D01*
X0252410Y0211969D01*
X0252466Y0212049D01*
X0252519Y0212132D01*
X0252568Y0212216D01*
X0252615Y0212303D01*
X0252657Y0212391D01*
X0252697Y0212481D01*
X0252732Y0212573D01*
X0252765Y0212665D01*
X0252793Y0212759D01*
X0252818Y0212854D01*
X0252839Y0212950D01*
X0252856Y0213047D01*
X0252870Y0213144D01*
X0252879Y0213242D01*
X0252885Y0213340D01*
X0252887Y0213438D01*
X0244638Y0210992D02*
X0244638Y0244904D01*
X0245077Y0245965D02*
X0245613Y0246500D01*
X0245077Y0245965D02*
X0245027Y0245911D01*
X0244978Y0245856D01*
X0244933Y0245798D01*
X0244891Y0245737D01*
X0244851Y0245675D01*
X0244815Y0245611D01*
X0244782Y0245545D01*
X0244752Y0245478D01*
X0244726Y0245409D01*
X0244703Y0245339D01*
X0244683Y0245268D01*
X0244667Y0245197D01*
X0244654Y0245124D01*
X0244645Y0245051D01*
X0244640Y0244978D01*
X0244638Y0244904D01*
X0243438Y0244904D02*
X0243438Y0211489D01*
X0244638Y0210992D02*
X0244636Y0210894D01*
X0244630Y0210796D01*
X0244621Y0210698D01*
X0244607Y0210601D01*
X0244590Y0210504D01*
X0244569Y0210408D01*
X0244544Y0210313D01*
X0244516Y0210219D01*
X0244483Y0210127D01*
X0244448Y0210035D01*
X0244408Y0209945D01*
X0244366Y0209857D01*
X0244319Y0209770D01*
X0244270Y0209686D01*
X0244217Y0209603D01*
X0244161Y0209523D01*
X0244101Y0209444D01*
X0244039Y0209368D01*
X0243974Y0209295D01*
X0243906Y0209224D01*
X0213779Y0179097D01*
X0213282Y0180297D02*
X0242706Y0209721D01*
X0242774Y0209792D01*
X0242839Y0209865D01*
X0242901Y0209941D01*
X0242961Y0210020D01*
X0243017Y0210100D01*
X0243070Y0210183D01*
X0243119Y0210267D01*
X0243166Y0210354D01*
X0243208Y0210442D01*
X0243248Y0210532D01*
X0243283Y0210624D01*
X0243316Y0210716D01*
X0243344Y0210810D01*
X0243369Y0210905D01*
X0243390Y0211001D01*
X0243407Y0211098D01*
X0243421Y0211195D01*
X0243430Y0211293D01*
X0243436Y0211391D01*
X0243438Y0211489D01*
X0232040Y0217893D02*
X0232040Y0244904D01*
X0232479Y0245965D02*
X0233014Y0246500D01*
X0232479Y0245965D02*
X0232429Y0245911D01*
X0232380Y0245856D01*
X0232335Y0245798D01*
X0232293Y0245737D01*
X0232253Y0245675D01*
X0232217Y0245611D01*
X0232184Y0245545D01*
X0232154Y0245478D01*
X0232128Y0245409D01*
X0232105Y0245339D01*
X0232085Y0245268D01*
X0232069Y0245197D01*
X0232056Y0245124D01*
X0232047Y0245051D01*
X0232042Y0244978D01*
X0232040Y0244904D01*
X0230840Y0244904D02*
X0230840Y0218390D01*
X0232040Y0217893D02*
X0232038Y0217795D01*
X0232032Y0217697D01*
X0232023Y0217599D01*
X0232009Y0217502D01*
X0231992Y0217405D01*
X0231971Y0217309D01*
X0231946Y0217214D01*
X0231918Y0217120D01*
X0231885Y0217028D01*
X0231850Y0216936D01*
X0231810Y0216846D01*
X0231768Y0216758D01*
X0231721Y0216671D01*
X0231672Y0216587D01*
X0231619Y0216504D01*
X0231563Y0216424D01*
X0231503Y0216345D01*
X0231441Y0216269D01*
X0231376Y0216196D01*
X0231308Y0216125D01*
X0231307Y0216126D02*
X0228314Y0213132D01*
X0227817Y0214332D02*
X0230107Y0216623D01*
X0230108Y0216622D02*
X0230176Y0216693D01*
X0230241Y0216766D01*
X0230303Y0216842D01*
X0230363Y0216921D01*
X0230419Y0217001D01*
X0230472Y0217084D01*
X0230521Y0217168D01*
X0230568Y0217255D01*
X0230610Y0217343D01*
X0230650Y0217433D01*
X0230685Y0217525D01*
X0230718Y0217617D01*
X0230746Y0217711D01*
X0230771Y0217806D01*
X0230792Y0217902D01*
X0230809Y0217999D01*
X0230823Y0218096D01*
X0230832Y0218194D01*
X0230838Y0218292D01*
X0230840Y0218390D01*
X0227817Y0214332D02*
X0227746Y0214264D01*
X0227673Y0214199D01*
X0227597Y0214137D01*
X0227518Y0214077D01*
X0227438Y0214021D01*
X0227355Y0213968D01*
X0227271Y0213919D01*
X0227184Y0213872D01*
X0227096Y0213830D01*
X0227006Y0213790D01*
X0226914Y0213755D01*
X0226822Y0213722D01*
X0226728Y0213694D01*
X0226633Y0213669D01*
X0226537Y0213648D01*
X0226440Y0213631D01*
X0226343Y0213617D01*
X0226245Y0213608D01*
X0226147Y0213602D01*
X0226049Y0213600D01*
X0207620Y0213600D01*
X0208117Y0212400D02*
X0226546Y0212400D01*
X0226644Y0212402D01*
X0226742Y0212408D01*
X0226840Y0212417D01*
X0226937Y0212431D01*
X0227034Y0212448D01*
X0227130Y0212469D01*
X0227225Y0212494D01*
X0227319Y0212522D01*
X0227411Y0212555D01*
X0227503Y0212590D01*
X0227593Y0212630D01*
X0227681Y0212672D01*
X0227768Y0212719D01*
X0227852Y0212768D01*
X0227935Y0212821D01*
X0228015Y0212877D01*
X0228094Y0212937D01*
X0228170Y0212999D01*
X0228243Y0213064D01*
X0228314Y0213132D01*
X0223566Y0219500D02*
X0223030Y0220035D01*
X0222591Y0221096D02*
X0222591Y0223470D01*
X0222151Y0224530D02*
X0218521Y0228161D01*
X0217461Y0228600D02*
X0192706Y0228600D01*
X0191645Y0228161D02*
X0185024Y0221539D01*
X0185522Y0220339D02*
X0185468Y0220289D01*
X0185413Y0220240D01*
X0185355Y0220195D01*
X0185294Y0220153D01*
X0185232Y0220113D01*
X0185168Y0220077D01*
X0185102Y0220044D01*
X0185035Y0220014D01*
X0184966Y0219988D01*
X0184896Y0219965D01*
X0184825Y0219945D01*
X0184754Y0219929D01*
X0184681Y0219916D01*
X0184608Y0219907D01*
X0184535Y0219902D01*
X0184461Y0219900D01*
X0165203Y0219900D01*
X0164706Y0221100D02*
X0164632Y0221098D01*
X0164559Y0221093D01*
X0164486Y0221084D01*
X0164413Y0221071D01*
X0164342Y0221055D01*
X0164271Y0221035D01*
X0164201Y0221012D01*
X0164132Y0220986D01*
X0164065Y0220956D01*
X0163999Y0220923D01*
X0163935Y0220887D01*
X0163873Y0220847D01*
X0163812Y0220805D01*
X0163754Y0220760D01*
X0163699Y0220711D01*
X0163645Y0220661D01*
X0156673Y0213688D01*
X0156233Y0212627D02*
X0156233Y0183373D01*
X0156673Y0182312D02*
X0164251Y0174734D01*
X0165451Y0175231D02*
X0157873Y0182809D01*
X0156672Y0182312D02*
X0156622Y0182366D01*
X0156573Y0182421D01*
X0156528Y0182479D01*
X0156486Y0182540D01*
X0156446Y0182602D01*
X0156410Y0182666D01*
X0156377Y0182732D01*
X0156347Y0182799D01*
X0156321Y0182868D01*
X0156298Y0182938D01*
X0156278Y0183009D01*
X0156262Y0183080D01*
X0156249Y0183153D01*
X0156240Y0183226D01*
X0156235Y0183299D01*
X0156233Y0183373D01*
X0157433Y0183870D02*
X0157433Y0212130D01*
X0156233Y0212627D02*
X0156235Y0212701D01*
X0156240Y0212774D01*
X0156249Y0212847D01*
X0156262Y0212920D01*
X0156278Y0212991D01*
X0156298Y0213062D01*
X0156321Y0213132D01*
X0156347Y0213201D01*
X0156377Y0213268D01*
X0156410Y0213334D01*
X0156446Y0213398D01*
X0156486Y0213460D01*
X0156528Y0213521D01*
X0156573Y0213579D01*
X0156622Y0213634D01*
X0156672Y0213688D01*
X0157873Y0213191D02*
X0164143Y0219461D01*
X0164142Y0219461D02*
X0164196Y0219511D01*
X0164251Y0219560D01*
X0164309Y0219605D01*
X0164370Y0219647D01*
X0164432Y0219687D01*
X0164496Y0219723D01*
X0164562Y0219756D01*
X0164629Y0219786D01*
X0164698Y0219812D01*
X0164768Y0219835D01*
X0164839Y0219855D01*
X0164910Y0219871D01*
X0164983Y0219884D01*
X0165056Y0219893D01*
X0165129Y0219898D01*
X0165203Y0219900D01*
X0164706Y0221100D02*
X0183963Y0221100D01*
X0184037Y0221102D01*
X0184110Y0221107D01*
X0184183Y0221116D01*
X0184256Y0221129D01*
X0184327Y0221145D01*
X0184398Y0221165D01*
X0184468Y0221188D01*
X0184537Y0221214D01*
X0184604Y0221244D01*
X0184670Y0221277D01*
X0184734Y0221313D01*
X0184796Y0221353D01*
X0184857Y0221395D01*
X0184915Y0221440D01*
X0184970Y0221489D01*
X0185024Y0221539D01*
X0185521Y0220339D02*
X0192143Y0226961D01*
X0191645Y0228161D02*
X0191699Y0228211D01*
X0191754Y0228260D01*
X0191812Y0228305D01*
X0191873Y0228347D01*
X0191935Y0228387D01*
X0191999Y0228423D01*
X0192065Y0228456D01*
X0192132Y0228486D01*
X0192201Y0228512D01*
X0192271Y0228535D01*
X0192342Y0228555D01*
X0192413Y0228571D01*
X0192486Y0228584D01*
X0192559Y0228593D01*
X0192632Y0228598D01*
X0192706Y0228600D01*
X0193203Y0227400D02*
X0216963Y0227400D01*
X0217461Y0228600D02*
X0217535Y0228598D01*
X0217608Y0228593D01*
X0217681Y0228584D01*
X0217754Y0228571D01*
X0217825Y0228555D01*
X0217896Y0228535D01*
X0217966Y0228512D01*
X0218035Y0228486D01*
X0218102Y0228456D01*
X0218168Y0228423D01*
X0218232Y0228387D01*
X0218294Y0228347D01*
X0218355Y0228305D01*
X0218413Y0228260D01*
X0218468Y0228211D01*
X0218522Y0228161D01*
X0218024Y0226961D02*
X0220951Y0224033D01*
X0222152Y0224531D02*
X0222202Y0224477D01*
X0222251Y0224422D01*
X0222296Y0224364D01*
X0222338Y0224303D01*
X0222378Y0224241D01*
X0222414Y0224177D01*
X0222447Y0224111D01*
X0222477Y0224044D01*
X0222503Y0223975D01*
X0222526Y0223905D01*
X0222546Y0223834D01*
X0222562Y0223763D01*
X0222575Y0223690D01*
X0222584Y0223617D01*
X0222589Y0223544D01*
X0222591Y0223470D01*
X0221391Y0222973D02*
X0221391Y0221096D01*
X0220951Y0220035D02*
X0220416Y0219500D01*
X0220952Y0220035D02*
X0221002Y0220089D01*
X0221051Y0220144D01*
X0221096Y0220202D01*
X0221138Y0220263D01*
X0221178Y0220325D01*
X0221214Y0220389D01*
X0221247Y0220455D01*
X0221277Y0220522D01*
X0221303Y0220591D01*
X0221326Y0220661D01*
X0221346Y0220732D01*
X0221362Y0220803D01*
X0221375Y0220876D01*
X0221384Y0220949D01*
X0221389Y0221022D01*
X0221391Y0221096D01*
X0221391Y0222973D02*
X0221389Y0223047D01*
X0221384Y0223120D01*
X0221375Y0223193D01*
X0221362Y0223266D01*
X0221346Y0223337D01*
X0221326Y0223408D01*
X0221303Y0223478D01*
X0221277Y0223547D01*
X0221247Y0223614D01*
X0221214Y0223680D01*
X0221178Y0223744D01*
X0221138Y0223806D01*
X0221096Y0223867D01*
X0221051Y0223925D01*
X0221002Y0223980D01*
X0220952Y0224034D01*
X0222591Y0221096D02*
X0222593Y0221022D01*
X0222598Y0220949D01*
X0222607Y0220876D01*
X0222620Y0220803D01*
X0222636Y0220732D01*
X0222656Y0220661D01*
X0222679Y0220591D01*
X0222705Y0220522D01*
X0222735Y0220455D01*
X0222768Y0220389D01*
X0222804Y0220325D01*
X0222844Y0220263D01*
X0222886Y0220202D01*
X0222931Y0220144D01*
X0222980Y0220089D01*
X0223030Y0220035D01*
X0218024Y0226961D02*
X0217970Y0227011D01*
X0217915Y0227060D01*
X0217857Y0227105D01*
X0217796Y0227147D01*
X0217734Y0227187D01*
X0217670Y0227223D01*
X0217604Y0227256D01*
X0217537Y0227286D01*
X0217468Y0227312D01*
X0217398Y0227335D01*
X0217327Y0227355D01*
X0217256Y0227371D01*
X0217183Y0227384D01*
X0217110Y0227393D01*
X0217037Y0227398D01*
X0216963Y0227400D01*
X0205853Y0212868D02*
X0194466Y0201481D01*
X0195666Y0200984D02*
X0206350Y0211668D01*
X0205852Y0212868D02*
X0205923Y0212936D01*
X0205996Y0213001D01*
X0206072Y0213063D01*
X0206151Y0213123D01*
X0206231Y0213179D01*
X0206314Y0213232D01*
X0206398Y0213281D01*
X0206485Y0213328D01*
X0206573Y0213370D01*
X0206663Y0213410D01*
X0206755Y0213445D01*
X0206847Y0213478D01*
X0206941Y0213506D01*
X0207036Y0213531D01*
X0207132Y0213552D01*
X0207229Y0213569D01*
X0207326Y0213583D01*
X0207424Y0213592D01*
X0207522Y0213598D01*
X0207620Y0213600D01*
X0208117Y0212400D02*
X0208019Y0212398D01*
X0207921Y0212392D01*
X0207823Y0212383D01*
X0207726Y0212369D01*
X0207629Y0212352D01*
X0207533Y0212331D01*
X0207438Y0212306D01*
X0207344Y0212278D01*
X0207252Y0212245D01*
X0207160Y0212210D01*
X0207070Y0212170D01*
X0206982Y0212128D01*
X0206895Y0212081D01*
X0206811Y0212032D01*
X0206728Y0211979D01*
X0206648Y0211923D01*
X0206569Y0211863D01*
X0206493Y0211801D01*
X0206420Y0211736D01*
X0206349Y0211668D01*
X0195665Y0200984D02*
X0195597Y0200913D01*
X0195532Y0200840D01*
X0195470Y0200764D01*
X0195410Y0200685D01*
X0195354Y0200605D01*
X0195301Y0200522D01*
X0195252Y0200438D01*
X0195205Y0200351D01*
X0195163Y0200263D01*
X0195123Y0200173D01*
X0195088Y0200081D01*
X0195055Y0199989D01*
X0195027Y0199895D01*
X0195002Y0199800D01*
X0194981Y0199704D01*
X0194964Y0199607D01*
X0194950Y0199510D01*
X0194941Y0199412D01*
X0194935Y0199314D01*
X0194933Y0199216D01*
X0194933Y0178000D01*
X0193733Y0178000D02*
X0193733Y0199713D01*
X0193735Y0199811D01*
X0193741Y0199909D01*
X0193750Y0200007D01*
X0193764Y0200104D01*
X0193781Y0200201D01*
X0193802Y0200297D01*
X0193827Y0200392D01*
X0193855Y0200486D01*
X0193888Y0200578D01*
X0193923Y0200670D01*
X0193963Y0200760D01*
X0194005Y0200848D01*
X0194052Y0200935D01*
X0194101Y0201019D01*
X0194154Y0201102D01*
X0194210Y0201182D01*
X0194270Y0201261D01*
X0194332Y0201337D01*
X0194397Y0201410D01*
X0194465Y0201481D01*
X0211514Y0179565D02*
X0211612Y0179567D01*
X0211710Y0179573D01*
X0211808Y0179582D01*
X0211905Y0179596D01*
X0212002Y0179613D01*
X0212098Y0179634D01*
X0212193Y0179659D01*
X0212287Y0179687D01*
X0212379Y0179720D01*
X0212471Y0179755D01*
X0212561Y0179795D01*
X0212649Y0179837D01*
X0212736Y0179884D01*
X0212820Y0179933D01*
X0212903Y0179986D01*
X0212983Y0180042D01*
X0213062Y0180102D01*
X0213138Y0180164D01*
X0213211Y0180229D01*
X0213282Y0180297D01*
X0213779Y0179097D02*
X0213708Y0179029D01*
X0213635Y0178964D01*
X0213559Y0178902D01*
X0213480Y0178842D01*
X0213400Y0178786D01*
X0213317Y0178733D01*
X0213233Y0178684D01*
X0213146Y0178637D01*
X0213058Y0178595D01*
X0212968Y0178555D01*
X0212876Y0178520D01*
X0212784Y0178487D01*
X0212690Y0178459D01*
X0212595Y0178434D01*
X0212499Y0178413D01*
X0212402Y0178396D01*
X0212305Y0178382D01*
X0212207Y0178373D01*
X0212109Y0178367D01*
X0212011Y0178365D01*
X0211096Y0178365D01*
X0211065Y0178363D01*
X0211035Y0178359D01*
X0211005Y0178352D01*
X0210977Y0178341D01*
X0210949Y0178328D01*
X0210923Y0178312D01*
X0210898Y0178294D01*
X0210875Y0178274D01*
X0210169Y0177980D02*
X0206341Y0177980D01*
X0206341Y0179949D02*
X0210169Y0179949D01*
X0210875Y0179656D02*
X0210898Y0179636D01*
X0210923Y0179618D01*
X0210949Y0179602D01*
X0210977Y0179589D01*
X0211005Y0179578D01*
X0211035Y0179571D01*
X0211065Y0179567D01*
X0211096Y0179565D01*
X0211514Y0179565D01*
X0210876Y0178273D02*
X0210832Y0178231D01*
X0210786Y0178193D01*
X0210737Y0178157D01*
X0210686Y0178124D01*
X0210634Y0178095D01*
X0210579Y0178068D01*
X0210524Y0178045D01*
X0210467Y0178025D01*
X0210408Y0178009D01*
X0210349Y0177996D01*
X0210290Y0177987D01*
X0210229Y0177982D01*
X0210169Y0177980D01*
X0210876Y0179656D02*
X0210832Y0179698D01*
X0210786Y0179736D01*
X0210737Y0179772D01*
X0210686Y0179805D01*
X0210634Y0179834D01*
X0210579Y0179861D01*
X0210524Y0179884D01*
X0210467Y0179904D01*
X0210408Y0179920D01*
X0210349Y0179933D01*
X0210290Y0179942D01*
X0210229Y0179947D01*
X0210169Y0179949D01*
X0213108Y0173659D02*
X0213206Y0173661D01*
X0213304Y0173667D01*
X0213402Y0173676D01*
X0213499Y0173690D01*
X0213596Y0173707D01*
X0213692Y0173728D01*
X0213787Y0173753D01*
X0213881Y0173781D01*
X0213973Y0173814D01*
X0214065Y0173849D01*
X0214155Y0173889D01*
X0214243Y0173931D01*
X0214330Y0173978D01*
X0214414Y0174027D01*
X0214497Y0174080D01*
X0214577Y0174136D01*
X0214656Y0174196D01*
X0214732Y0174258D01*
X0214805Y0174323D01*
X0214876Y0174391D01*
X0215373Y0173191D02*
X0215302Y0173123D01*
X0215229Y0173058D01*
X0215153Y0172996D01*
X0215074Y0172936D01*
X0214994Y0172880D01*
X0214911Y0172827D01*
X0214827Y0172778D01*
X0214740Y0172731D01*
X0214652Y0172689D01*
X0214562Y0172649D01*
X0214470Y0172614D01*
X0214378Y0172581D01*
X0214284Y0172553D01*
X0214189Y0172528D01*
X0214093Y0172507D01*
X0213996Y0172490D01*
X0213899Y0172476D01*
X0213801Y0172467D01*
X0213703Y0172461D01*
X0213605Y0172459D01*
X0211096Y0172459D01*
X0211065Y0172457D01*
X0211035Y0172453D01*
X0211005Y0172446D01*
X0210977Y0172435D01*
X0210949Y0172422D01*
X0210923Y0172406D01*
X0210898Y0172388D01*
X0210875Y0172368D01*
X0210169Y0172075D02*
X0206341Y0172075D01*
X0206341Y0174043D02*
X0210169Y0174043D01*
X0210875Y0173750D02*
X0210898Y0173730D01*
X0210923Y0173712D01*
X0210949Y0173696D01*
X0210977Y0173683D01*
X0211005Y0173672D01*
X0211035Y0173665D01*
X0211065Y0173661D01*
X0211096Y0173659D01*
X0213108Y0173659D01*
X0210876Y0172368D02*
X0210832Y0172326D01*
X0210786Y0172288D01*
X0210737Y0172252D01*
X0210686Y0172219D01*
X0210634Y0172190D01*
X0210579Y0172163D01*
X0210524Y0172140D01*
X0210467Y0172120D01*
X0210408Y0172104D01*
X0210349Y0172091D01*
X0210290Y0172082D01*
X0210229Y0172077D01*
X0210169Y0172075D01*
X0210876Y0173750D02*
X0210832Y0173792D01*
X0210786Y0173830D01*
X0210737Y0173866D01*
X0210686Y0173899D01*
X0210634Y0173928D01*
X0210579Y0173955D01*
X0210524Y0173978D01*
X0210467Y0173998D01*
X0210408Y0174014D01*
X0210349Y0174027D01*
X0210290Y0174036D01*
X0210229Y0174041D01*
X0210169Y0174043D01*
X0212391Y0164406D02*
X0212328Y0164345D01*
X0212262Y0164287D01*
X0212193Y0164232D01*
X0212122Y0164180D01*
X0212049Y0164131D01*
X0211974Y0164086D01*
X0211897Y0164044D01*
X0211818Y0164005D01*
X0211738Y0163969D01*
X0211656Y0163937D01*
X0211573Y0163909D01*
X0211488Y0163885D01*
X0211403Y0163864D01*
X0211317Y0163847D01*
X0211230Y0163833D01*
X0211143Y0163824D01*
X0211055Y0163818D01*
X0210967Y0163816D01*
X0210967Y0163817D02*
X0210876Y0163908D01*
X0210169Y0164201D02*
X0206341Y0164201D01*
X0206341Y0162232D02*
X0210169Y0162232D01*
X0210875Y0162526D02*
X0210898Y0162546D01*
X0210923Y0162564D01*
X0210949Y0162580D01*
X0210977Y0162593D01*
X0211005Y0162604D01*
X0211035Y0162611D01*
X0211065Y0162615D01*
X0211096Y0162617D01*
X0211263Y0162617D01*
X0210876Y0163908D02*
X0210832Y0163950D01*
X0210786Y0163988D01*
X0210737Y0164024D01*
X0210686Y0164057D01*
X0210634Y0164086D01*
X0210579Y0164113D01*
X0210524Y0164136D01*
X0210467Y0164156D01*
X0210408Y0164172D01*
X0210349Y0164185D01*
X0210290Y0164194D01*
X0210229Y0164199D01*
X0210169Y0164201D01*
X0210876Y0162525D02*
X0210832Y0162483D01*
X0210786Y0162445D01*
X0210737Y0162409D01*
X0210686Y0162376D01*
X0210634Y0162347D01*
X0210579Y0162320D01*
X0210524Y0162297D01*
X0210467Y0162277D01*
X0210408Y0162261D01*
X0210349Y0162248D01*
X0210290Y0162239D01*
X0210229Y0162234D01*
X0210169Y0162232D01*
X0211263Y0162617D02*
X0211361Y0162619D01*
X0211459Y0162625D01*
X0211557Y0162634D01*
X0211654Y0162648D01*
X0211751Y0162665D01*
X0211847Y0162686D01*
X0211942Y0162711D01*
X0212036Y0162739D01*
X0212128Y0162772D01*
X0212220Y0162807D01*
X0212310Y0162847D01*
X0212398Y0162889D01*
X0212485Y0162936D01*
X0212569Y0162985D01*
X0212652Y0163038D01*
X0212732Y0163094D01*
X0212811Y0163154D01*
X0212887Y0163216D01*
X0212960Y0163281D01*
X0213031Y0163349D01*
X0190583Y0173650D02*
X0187354Y0173650D01*
X0186961Y0174043D01*
X0182325Y0174043D01*
X0182325Y0176012D02*
X0186961Y0176012D01*
X0188123Y0174850D01*
X0190583Y0174850D01*
X0190693Y0174852D01*
X0190803Y0174858D01*
X0190912Y0174867D01*
X0191021Y0174881D01*
X0191130Y0174898D01*
X0191238Y0174919D01*
X0191345Y0174944D01*
X0191451Y0174972D01*
X0191556Y0175004D01*
X0191660Y0175040D01*
X0191763Y0175079D01*
X0191864Y0175122D01*
X0191964Y0175169D01*
X0192062Y0175219D01*
X0192158Y0175272D01*
X0192252Y0175329D01*
X0192344Y0175389D01*
X0192435Y0175452D01*
X0192522Y0175518D01*
X0192608Y0175587D01*
X0192691Y0175659D01*
X0192771Y0175734D01*
X0192849Y0175812D01*
X0192924Y0175892D01*
X0192996Y0175975D01*
X0193065Y0176061D01*
X0193131Y0176148D01*
X0193194Y0176239D01*
X0193254Y0176331D01*
X0193311Y0176425D01*
X0193364Y0176521D01*
X0193414Y0176619D01*
X0193461Y0176719D01*
X0193504Y0176820D01*
X0193543Y0176923D01*
X0193579Y0177027D01*
X0193611Y0177132D01*
X0193639Y0177238D01*
X0193664Y0177345D01*
X0193685Y0177453D01*
X0193702Y0177562D01*
X0193716Y0177671D01*
X0193725Y0177780D01*
X0193731Y0177890D01*
X0193733Y0178000D01*
X0194933Y0178000D02*
X0194931Y0177871D01*
X0194925Y0177742D01*
X0194916Y0177614D01*
X0194902Y0177486D01*
X0194885Y0177358D01*
X0194864Y0177231D01*
X0194840Y0177104D01*
X0194811Y0176978D01*
X0194779Y0176853D01*
X0194743Y0176730D01*
X0194704Y0176607D01*
X0194661Y0176485D01*
X0194614Y0176365D01*
X0194564Y0176246D01*
X0194510Y0176129D01*
X0194453Y0176014D01*
X0194392Y0175900D01*
X0194329Y0175788D01*
X0194261Y0175678D01*
X0194191Y0175570D01*
X0194117Y0175464D01*
X0194041Y0175360D01*
X0193961Y0175259D01*
X0193878Y0175160D01*
X0193793Y0175064D01*
X0193704Y0174970D01*
X0193613Y0174879D01*
X0193519Y0174790D01*
X0193423Y0174705D01*
X0193324Y0174622D01*
X0193223Y0174542D01*
X0193119Y0174466D01*
X0193013Y0174392D01*
X0192905Y0174322D01*
X0192795Y0174254D01*
X0192683Y0174191D01*
X0192569Y0174130D01*
X0192454Y0174073D01*
X0192337Y0174019D01*
X0192218Y0173969D01*
X0192098Y0173922D01*
X0191976Y0173879D01*
X0191853Y0173840D01*
X0191730Y0173804D01*
X0191605Y0173772D01*
X0191479Y0173743D01*
X0191352Y0173719D01*
X0191225Y0173698D01*
X0191097Y0173681D01*
X0190969Y0173667D01*
X0190841Y0173658D01*
X0190712Y0173652D01*
X0190583Y0173650D01*
X0188642Y0164201D02*
X0182325Y0164201D01*
X0182325Y0162232D02*
X0186961Y0162232D01*
X0188642Y0158295D02*
X0182325Y0158295D01*
X0182325Y0156327D02*
X0186961Y0156327D01*
X0188642Y0152390D02*
X0182325Y0152390D01*
X0182325Y0150421D02*
X0186961Y0150421D01*
X0186961Y0140579D02*
X0182325Y0140579D01*
X0182325Y0138610D02*
X0188642Y0138610D01*
X0186961Y0134673D02*
X0182325Y0134673D01*
X0182325Y0132705D02*
X0188642Y0132705D01*
X0186961Y0128768D02*
X0182325Y0128768D01*
X0182325Y0126799D02*
X0188642Y0126799D01*
X0187561Y0117350D02*
X0190583Y0117350D01*
X0190583Y0116150D02*
X0188744Y0116150D01*
X0187683Y0115711D02*
X0187400Y0115428D01*
X0186340Y0114988D02*
X0182325Y0114988D01*
X0182325Y0116957D02*
X0186754Y0116957D01*
X0187107Y0117103D02*
X0187208Y0117204D01*
X0187207Y0117204D02*
X0187240Y0117233D01*
X0187274Y0117260D01*
X0187311Y0117283D01*
X0187350Y0117303D01*
X0187390Y0117320D01*
X0187432Y0117333D01*
X0187474Y0117342D01*
X0187517Y0117348D01*
X0187561Y0117350D01*
X0187108Y0117103D02*
X0187075Y0117074D01*
X0187041Y0117047D01*
X0187004Y0117024D01*
X0186965Y0117004D01*
X0186925Y0116987D01*
X0186883Y0116974D01*
X0186841Y0116965D01*
X0186798Y0116959D01*
X0186754Y0116957D01*
X0187401Y0115427D02*
X0187347Y0115377D01*
X0187292Y0115328D01*
X0187234Y0115283D01*
X0187173Y0115241D01*
X0187111Y0115201D01*
X0187047Y0115165D01*
X0186981Y0115132D01*
X0186914Y0115102D01*
X0186845Y0115076D01*
X0186775Y0115053D01*
X0186704Y0115033D01*
X0186633Y0115017D01*
X0186560Y0115004D01*
X0186487Y0114995D01*
X0186414Y0114990D01*
X0186340Y0114988D01*
X0187683Y0115711D02*
X0187737Y0115761D01*
X0187792Y0115810D01*
X0187850Y0115855D01*
X0187911Y0115897D01*
X0187973Y0115937D01*
X0188037Y0115973D01*
X0188103Y0116006D01*
X0188170Y0116036D01*
X0188239Y0116062D01*
X0188309Y0116085D01*
X0188380Y0116105D01*
X0188451Y0116121D01*
X0188524Y0116134D01*
X0188597Y0116143D01*
X0188670Y0116148D01*
X0188744Y0116150D01*
X0190583Y0116150D02*
X0190693Y0116148D01*
X0190803Y0116142D01*
X0190912Y0116133D01*
X0191021Y0116119D01*
X0191130Y0116102D01*
X0191238Y0116081D01*
X0191345Y0116056D01*
X0191451Y0116028D01*
X0191556Y0115996D01*
X0191660Y0115960D01*
X0191763Y0115921D01*
X0191864Y0115878D01*
X0191964Y0115831D01*
X0192062Y0115781D01*
X0192158Y0115728D01*
X0192252Y0115671D01*
X0192344Y0115611D01*
X0192435Y0115548D01*
X0192522Y0115482D01*
X0192608Y0115413D01*
X0192691Y0115341D01*
X0192771Y0115266D01*
X0192849Y0115188D01*
X0192924Y0115108D01*
X0192996Y0115025D01*
X0193065Y0114939D01*
X0193131Y0114852D01*
X0193194Y0114761D01*
X0193254Y0114669D01*
X0193311Y0114575D01*
X0193364Y0114479D01*
X0193414Y0114381D01*
X0193461Y0114281D01*
X0193504Y0114180D01*
X0193543Y0114077D01*
X0193579Y0113973D01*
X0193611Y0113868D01*
X0193639Y0113762D01*
X0193664Y0113655D01*
X0193685Y0113547D01*
X0193702Y0113438D01*
X0193716Y0113329D01*
X0193725Y0113220D01*
X0193731Y0113110D01*
X0193733Y0113000D01*
X0193733Y0091287D01*
X0194933Y0091784D02*
X0194933Y0113000D01*
X0194931Y0113129D01*
X0194925Y0113258D01*
X0194916Y0113386D01*
X0194902Y0113514D01*
X0194885Y0113642D01*
X0194864Y0113769D01*
X0194840Y0113896D01*
X0194811Y0114022D01*
X0194779Y0114147D01*
X0194743Y0114270D01*
X0194704Y0114393D01*
X0194661Y0114515D01*
X0194614Y0114635D01*
X0194564Y0114754D01*
X0194510Y0114871D01*
X0194453Y0114986D01*
X0194392Y0115100D01*
X0194329Y0115212D01*
X0194261Y0115322D01*
X0194191Y0115430D01*
X0194117Y0115536D01*
X0194041Y0115640D01*
X0193961Y0115741D01*
X0193878Y0115840D01*
X0193793Y0115936D01*
X0193704Y0116030D01*
X0193613Y0116121D01*
X0193519Y0116210D01*
X0193423Y0116295D01*
X0193324Y0116378D01*
X0193223Y0116458D01*
X0193119Y0116534D01*
X0193013Y0116608D01*
X0192905Y0116678D01*
X0192795Y0116746D01*
X0192683Y0116809D01*
X0192569Y0116870D01*
X0192454Y0116927D01*
X0192337Y0116981D01*
X0192218Y0117031D01*
X0192098Y0117078D01*
X0191976Y0117121D01*
X0191853Y0117160D01*
X0191730Y0117196D01*
X0191605Y0117228D01*
X0191479Y0117257D01*
X0191352Y0117281D01*
X0191225Y0117302D01*
X0191097Y0117319D01*
X0190969Y0117333D01*
X0190841Y0117342D01*
X0190712Y0117348D01*
X0190583Y0117350D01*
X0211263Y0128383D02*
X0211361Y0128381D01*
X0211459Y0128375D01*
X0211557Y0128366D01*
X0211654Y0128352D01*
X0211751Y0128335D01*
X0211847Y0128314D01*
X0211942Y0128289D01*
X0212036Y0128261D01*
X0212128Y0128228D01*
X0212220Y0128193D01*
X0212310Y0128153D01*
X0212398Y0128111D01*
X0212485Y0128064D01*
X0212569Y0128015D01*
X0212652Y0127962D01*
X0212732Y0127906D01*
X0212811Y0127846D01*
X0212887Y0127784D01*
X0212960Y0127719D01*
X0213031Y0127651D01*
X0165451Y0149519D02*
X0164133Y0148201D01*
X0164627Y0147706D01*
X0164133Y0148201D02*
X0162548Y0146616D01*
X0162051Y0147816D02*
X0163284Y0149049D01*
X0162790Y0149544D01*
X0163284Y0149049D02*
X0164251Y0150016D01*
X0165451Y0149519D02*
X0165519Y0149590D01*
X0165584Y0149663D01*
X0165646Y0149739D01*
X0165706Y0149818D01*
X0165762Y0149898D01*
X0165815Y0149981D01*
X0165864Y0150065D01*
X0165911Y0150152D01*
X0165953Y0150240D01*
X0165993Y0150330D01*
X0166028Y0150422D01*
X0166061Y0150514D01*
X0166089Y0150608D01*
X0166114Y0150703D01*
X0166135Y0150799D01*
X0166152Y0150896D01*
X0166166Y0150993D01*
X0166175Y0151091D01*
X0166181Y0151189D01*
X0166183Y0151287D01*
X0166183Y0173463D01*
X0164983Y0172966D02*
X0164983Y0151784D01*
X0164981Y0151686D01*
X0164975Y0151588D01*
X0164966Y0151490D01*
X0164952Y0151393D01*
X0164935Y0151296D01*
X0164914Y0151200D01*
X0164889Y0151105D01*
X0164861Y0151011D01*
X0164828Y0150919D01*
X0164793Y0150827D01*
X0164753Y0150737D01*
X0164711Y0150649D01*
X0164664Y0150562D01*
X0164615Y0150478D01*
X0164562Y0150395D01*
X0164506Y0150315D01*
X0164446Y0150236D01*
X0164384Y0150160D01*
X0164319Y0150087D01*
X0164251Y0150016D01*
X0162549Y0146616D02*
X0162478Y0146548D01*
X0162405Y0146483D01*
X0162329Y0146421D01*
X0162250Y0146361D01*
X0162170Y0146305D01*
X0162087Y0146252D01*
X0162003Y0146203D01*
X0161916Y0146156D01*
X0161828Y0146114D01*
X0161738Y0146074D01*
X0161646Y0146039D01*
X0161554Y0146006D01*
X0161460Y0145978D01*
X0161365Y0145953D01*
X0161269Y0145932D01*
X0161172Y0145915D01*
X0161075Y0145901D01*
X0160977Y0145892D01*
X0160879Y0145886D01*
X0160781Y0145884D01*
X0156056Y0145884D01*
X0155703Y0145738D02*
X0155611Y0145646D01*
X0155258Y0145500D02*
X0151912Y0145500D01*
X0151912Y0147469D02*
X0155258Y0147469D01*
X0155611Y0147322D02*
X0155703Y0147231D01*
X0156056Y0147084D02*
X0160284Y0147084D01*
X0160283Y0147084D02*
X0160381Y0147086D01*
X0160479Y0147092D01*
X0160577Y0147101D01*
X0160674Y0147115D01*
X0160771Y0147132D01*
X0160867Y0147153D01*
X0160962Y0147178D01*
X0161056Y0147206D01*
X0161148Y0147239D01*
X0161240Y0147274D01*
X0161330Y0147314D01*
X0161418Y0147356D01*
X0161505Y0147403D01*
X0161589Y0147452D01*
X0161672Y0147505D01*
X0161752Y0147561D01*
X0161831Y0147621D01*
X0161907Y0147683D01*
X0161980Y0147748D01*
X0162051Y0147816D01*
X0156056Y0147084D02*
X0156012Y0147086D01*
X0155969Y0147092D01*
X0155927Y0147101D01*
X0155885Y0147114D01*
X0155845Y0147131D01*
X0155806Y0147151D01*
X0155769Y0147174D01*
X0155735Y0147201D01*
X0155702Y0147230D01*
X0155612Y0147322D02*
X0155579Y0147351D01*
X0155545Y0147378D01*
X0155508Y0147401D01*
X0155469Y0147421D01*
X0155429Y0147438D01*
X0155387Y0147451D01*
X0155345Y0147460D01*
X0155302Y0147466D01*
X0155258Y0147468D01*
X0155612Y0145646D02*
X0155579Y0145617D01*
X0155545Y0145590D01*
X0155508Y0145567D01*
X0155469Y0145547D01*
X0155429Y0145530D01*
X0155387Y0145517D01*
X0155345Y0145508D01*
X0155302Y0145502D01*
X0155258Y0145500D01*
X0155702Y0145738D02*
X0155735Y0145767D01*
X0155769Y0145794D01*
X0155806Y0145817D01*
X0155845Y0145837D01*
X0155885Y0145854D01*
X0155927Y0145867D01*
X0155969Y0145876D01*
X0156012Y0145882D01*
X0156056Y0145884D01*
X0164983Y0172966D02*
X0164981Y0173064D01*
X0164975Y0173162D01*
X0164966Y0173260D01*
X0164952Y0173357D01*
X0164935Y0173454D01*
X0164914Y0173550D01*
X0164889Y0173645D01*
X0164861Y0173739D01*
X0164828Y0173831D01*
X0164793Y0173923D01*
X0164753Y0174013D01*
X0164711Y0174101D01*
X0164664Y0174188D01*
X0164615Y0174272D01*
X0164562Y0174355D01*
X0164506Y0174435D01*
X0164446Y0174514D01*
X0164384Y0174590D01*
X0164319Y0174663D01*
X0164251Y0174734D01*
X0165451Y0175231D02*
X0165519Y0175160D01*
X0165584Y0175087D01*
X0165646Y0175011D01*
X0165706Y0174932D01*
X0165762Y0174852D01*
X0165815Y0174769D01*
X0165864Y0174685D01*
X0165911Y0174598D01*
X0165953Y0174510D01*
X0165993Y0174420D01*
X0166028Y0174328D01*
X0166061Y0174236D01*
X0166089Y0174142D01*
X0166114Y0174047D01*
X0166135Y0173951D01*
X0166152Y0173854D01*
X0166166Y0173757D01*
X0166175Y0173659D01*
X0166181Y0173561D01*
X0166183Y0173463D01*
X0157872Y0182809D02*
X0157822Y0182863D01*
X0157773Y0182918D01*
X0157728Y0182976D01*
X0157686Y0183037D01*
X0157646Y0183099D01*
X0157610Y0183163D01*
X0157577Y0183229D01*
X0157547Y0183296D01*
X0157521Y0183365D01*
X0157498Y0183435D01*
X0157478Y0183506D01*
X0157462Y0183577D01*
X0157449Y0183650D01*
X0157440Y0183723D01*
X0157435Y0183796D01*
X0157433Y0183870D01*
X0157433Y0212130D02*
X0157435Y0212204D01*
X0157440Y0212277D01*
X0157449Y0212350D01*
X0157462Y0212423D01*
X0157478Y0212494D01*
X0157498Y0212565D01*
X0157521Y0212635D01*
X0157547Y0212704D01*
X0157577Y0212771D01*
X0157610Y0212837D01*
X0157646Y0212901D01*
X0157686Y0212963D01*
X0157728Y0213024D01*
X0157773Y0213082D01*
X0157822Y0213137D01*
X0157872Y0213191D01*
X0192142Y0226961D02*
X0192196Y0227011D01*
X0192251Y0227060D01*
X0192309Y0227105D01*
X0192370Y0227147D01*
X0192432Y0227187D01*
X0192496Y0227223D01*
X0192562Y0227256D01*
X0192629Y0227286D01*
X0192698Y0227312D01*
X0192768Y0227335D01*
X0192839Y0227355D01*
X0192910Y0227371D01*
X0192983Y0227384D01*
X0193056Y0227393D01*
X0193129Y0227398D01*
X0193203Y0227400D01*
X0214117Y0246500D02*
X0214119Y0246556D01*
X0214124Y0246613D01*
X0214132Y0246669D01*
X0214144Y0246724D01*
X0214159Y0246778D01*
X0214178Y0246832D01*
X0214199Y0246884D01*
X0214224Y0246935D01*
X0214252Y0246984D01*
X0214283Y0247031D01*
X0214316Y0247077D01*
X0214352Y0247120D01*
X0214391Y0247161D01*
X0214799Y0247569D01*
X0215092Y0248276D02*
X0215092Y0248400D01*
X0215092Y0248276D02*
X0215090Y0248216D01*
X0215085Y0248155D01*
X0215076Y0248096D01*
X0215063Y0248037D01*
X0215047Y0247978D01*
X0215027Y0247921D01*
X0215004Y0247866D01*
X0214977Y0247811D01*
X0214948Y0247759D01*
X0214915Y0247708D01*
X0214879Y0247659D01*
X0214841Y0247613D01*
X0214799Y0247569D01*
X0216292Y0248600D02*
X0216290Y0248698D01*
X0216284Y0248796D01*
X0216275Y0248894D01*
X0216261Y0248991D01*
X0216244Y0249088D01*
X0216223Y0249184D01*
X0216198Y0249279D01*
X0216170Y0249373D01*
X0216137Y0249465D01*
X0216102Y0249557D01*
X0216062Y0249647D01*
X0216020Y0249735D01*
X0215973Y0249822D01*
X0215924Y0249906D01*
X0215871Y0249989D01*
X0215815Y0250069D01*
X0215755Y0250148D01*
X0215693Y0250224D01*
X0215628Y0250297D01*
X0215560Y0250368D01*
X0215489Y0250436D01*
X0215416Y0250501D01*
X0215340Y0250563D01*
X0215261Y0250623D01*
X0215181Y0250679D01*
X0215098Y0250732D01*
X0215014Y0250781D01*
X0214927Y0250828D01*
X0214839Y0250870D01*
X0214749Y0250910D01*
X0214657Y0250945D01*
X0214565Y0250978D01*
X0214471Y0251006D01*
X0214376Y0251031D01*
X0214280Y0251052D01*
X0214183Y0251069D01*
X0214086Y0251083D01*
X0213988Y0251092D01*
X0213890Y0251098D01*
X0213792Y0251100D01*
X0122652Y0251100D01*
X0123149Y0249900D02*
X0213592Y0249900D01*
X0213668Y0249898D01*
X0213744Y0249892D01*
X0213819Y0249883D01*
X0213894Y0249869D01*
X0213968Y0249852D01*
X0214041Y0249831D01*
X0214113Y0249807D01*
X0214184Y0249778D01*
X0214253Y0249747D01*
X0214320Y0249712D01*
X0214385Y0249673D01*
X0214449Y0249631D01*
X0214510Y0249586D01*
X0214569Y0249538D01*
X0214625Y0249487D01*
X0214679Y0249433D01*
X0214730Y0249377D01*
X0214778Y0249318D01*
X0214823Y0249257D01*
X0214865Y0249193D01*
X0214904Y0249128D01*
X0214939Y0249061D01*
X0214970Y0248992D01*
X0214999Y0248921D01*
X0215023Y0248849D01*
X0215044Y0248776D01*
X0215061Y0248702D01*
X0215075Y0248627D01*
X0215084Y0248552D01*
X0215090Y0248476D01*
X0215092Y0248400D01*
X0216292Y0248276D02*
X0216292Y0248600D01*
X0216292Y0248276D02*
X0216294Y0248216D01*
X0216299Y0248155D01*
X0216308Y0248096D01*
X0216321Y0248037D01*
X0216337Y0247978D01*
X0216357Y0247921D01*
X0216380Y0247866D01*
X0216407Y0247811D01*
X0216436Y0247759D01*
X0216469Y0247708D01*
X0216505Y0247659D01*
X0216543Y0247613D01*
X0216585Y0247569D01*
X0216584Y0247569D02*
X0216992Y0247161D01*
X0217031Y0247120D01*
X0217067Y0247077D01*
X0217100Y0247031D01*
X0217131Y0246984D01*
X0217159Y0246935D01*
X0217184Y0246884D01*
X0217205Y0246832D01*
X0217224Y0246778D01*
X0217239Y0246724D01*
X0217251Y0246669D01*
X0217259Y0246613D01*
X0217264Y0246556D01*
X0217266Y0246500D01*
X0230401Y0245965D02*
X0230451Y0245911D01*
X0230500Y0245856D01*
X0230545Y0245798D01*
X0230587Y0245737D01*
X0230627Y0245675D01*
X0230663Y0245611D01*
X0230696Y0245545D01*
X0230726Y0245478D01*
X0230752Y0245409D01*
X0230775Y0245339D01*
X0230795Y0245268D01*
X0230811Y0245197D01*
X0230824Y0245124D01*
X0230833Y0245051D01*
X0230838Y0244978D01*
X0230840Y0244904D01*
X0230400Y0245965D02*
X0229865Y0246500D01*
X0242999Y0245965D02*
X0243049Y0245911D01*
X0243098Y0245856D01*
X0243143Y0245798D01*
X0243185Y0245737D01*
X0243225Y0245675D01*
X0243261Y0245611D01*
X0243294Y0245545D01*
X0243324Y0245478D01*
X0243350Y0245409D01*
X0243373Y0245339D01*
X0243393Y0245268D01*
X0243409Y0245197D01*
X0243422Y0245124D01*
X0243431Y0245051D01*
X0243436Y0244978D01*
X0243438Y0244904D01*
X0242999Y0245965D02*
X0242463Y0246500D01*
X0252448Y0245965D02*
X0252498Y0245911D01*
X0252547Y0245856D01*
X0252592Y0245798D01*
X0252634Y0245737D01*
X0252674Y0245675D01*
X0252710Y0245611D01*
X0252743Y0245545D01*
X0252773Y0245478D01*
X0252799Y0245409D01*
X0252822Y0245339D01*
X0252842Y0245268D01*
X0252858Y0245197D01*
X0252871Y0245124D01*
X0252880Y0245051D01*
X0252885Y0244978D01*
X0252887Y0244904D01*
X0252448Y0245965D02*
X0251912Y0246500D01*
X0261897Y0245965D02*
X0261947Y0245911D01*
X0261996Y0245856D01*
X0262041Y0245798D01*
X0262083Y0245737D01*
X0262123Y0245675D01*
X0262159Y0245611D01*
X0262192Y0245545D01*
X0262222Y0245478D01*
X0262248Y0245409D01*
X0262271Y0245339D01*
X0262291Y0245268D01*
X0262307Y0245197D01*
X0262320Y0245124D01*
X0262329Y0245051D01*
X0262334Y0244978D01*
X0262336Y0244904D01*
X0261896Y0245965D02*
X0261361Y0246500D01*
X0123149Y0249900D02*
X0123051Y0249898D01*
X0122953Y0249892D01*
X0122855Y0249883D01*
X0122758Y0249869D01*
X0122661Y0249852D01*
X0122565Y0249831D01*
X0122470Y0249806D01*
X0122376Y0249778D01*
X0122284Y0249745D01*
X0122192Y0249710D01*
X0122102Y0249670D01*
X0122014Y0249628D01*
X0121927Y0249581D01*
X0121843Y0249532D01*
X0121760Y0249479D01*
X0121680Y0249423D01*
X0121601Y0249363D01*
X0121525Y0249301D01*
X0121452Y0249236D01*
X0121381Y0249168D01*
X0102846Y0230632D01*
X0102349Y0231832D02*
X0120884Y0250368D01*
X0120955Y0250436D01*
X0121028Y0250501D01*
X0121104Y0250563D01*
X0121183Y0250623D01*
X0121263Y0250679D01*
X0121346Y0250732D01*
X0121430Y0250781D01*
X0121517Y0250828D01*
X0121605Y0250870D01*
X0121695Y0250910D01*
X0121787Y0250945D01*
X0121879Y0250978D01*
X0121973Y0251006D01*
X0122068Y0251031D01*
X0122164Y0251052D01*
X0122261Y0251069D01*
X0122358Y0251083D01*
X0122456Y0251092D01*
X0122554Y0251098D01*
X0122652Y0251100D01*
X0102349Y0231832D02*
X0102278Y0231764D01*
X0102205Y0231699D01*
X0102129Y0231637D01*
X0102050Y0231577D01*
X0101970Y0231521D01*
X0101887Y0231468D01*
X0101803Y0231419D01*
X0101716Y0231372D01*
X0101628Y0231330D01*
X0101538Y0231290D01*
X0101446Y0231255D01*
X0101354Y0231222D01*
X0101260Y0231194D01*
X0101165Y0231169D01*
X0101069Y0231148D01*
X0100972Y0231131D01*
X0100875Y0231117D01*
X0100777Y0231108D01*
X0100679Y0231102D01*
X0100581Y0231100D01*
X0084413Y0231100D01*
X0084670Y0229900D02*
X0087946Y0229900D01*
X0087993Y0229901D01*
X0088041Y0229897D01*
X0088088Y0229889D01*
X0088134Y0229878D01*
X0088180Y0229863D01*
X0088223Y0229844D01*
X0088265Y0229821D01*
X0088306Y0229795D01*
X0088343Y0229766D01*
X0088379Y0229734D01*
X0088411Y0229699D01*
X0088441Y0229662D01*
X0088467Y0229622D01*
X0088490Y0229580D01*
X0088510Y0229537D01*
X0088526Y0229492D01*
X0088538Y0229446D01*
X0088546Y0229399D01*
X0088546Y0229398D02*
X0088546Y0229369D01*
X0088545Y0229369D02*
X0088547Y0229325D01*
X0088553Y0229282D01*
X0088562Y0229239D01*
X0088575Y0229197D01*
X0088592Y0229157D01*
X0088612Y0229118D01*
X0088636Y0229081D01*
X0088662Y0229046D01*
X0088692Y0229014D01*
X0088724Y0228984D01*
X0088759Y0228958D01*
X0088796Y0228934D01*
X0088835Y0228914D01*
X0088875Y0228897D01*
X0088917Y0228884D01*
X0088960Y0228875D01*
X0089003Y0228869D01*
X0089047Y0228867D01*
X0089047Y0228868D02*
X0089217Y0228868D01*
X0089262Y0228866D01*
X0089308Y0228868D01*
X0089354Y0228873D01*
X0089398Y0228882D01*
X0089442Y0228895D01*
X0089485Y0228911D01*
X0089526Y0228931D01*
X0089565Y0228954D01*
X0089603Y0228980D01*
X0089638Y0229010D01*
X0089670Y0229042D01*
X0089700Y0229077D01*
X0089727Y0229114D01*
X0089751Y0229153D01*
X0089771Y0229194D01*
X0089788Y0229236D01*
X0089801Y0229280D01*
X0089811Y0229324D01*
X0089817Y0229370D01*
X0089817Y0229369D02*
X0089817Y0229398D01*
X0089816Y0229398D02*
X0089818Y0229442D01*
X0089824Y0229485D01*
X0089833Y0229528D01*
X0089846Y0229570D01*
X0089863Y0229610D01*
X0089883Y0229649D01*
X0089907Y0229686D01*
X0089933Y0229721D01*
X0089963Y0229753D01*
X0089995Y0229783D01*
X0090030Y0229809D01*
X0090067Y0229833D01*
X0090106Y0229853D01*
X0090146Y0229870D01*
X0090188Y0229883D01*
X0090231Y0229892D01*
X0090274Y0229898D01*
X0090318Y0229900D01*
X0101078Y0229900D01*
X0101176Y0229902D01*
X0101274Y0229908D01*
X0101372Y0229917D01*
X0101469Y0229931D01*
X0101566Y0229948D01*
X0101662Y0229969D01*
X0101757Y0229994D01*
X0101851Y0230022D01*
X0101943Y0230055D01*
X0102035Y0230090D01*
X0102125Y0230130D01*
X0102213Y0230172D01*
X0102300Y0230219D01*
X0102384Y0230268D01*
X0102467Y0230321D01*
X0102547Y0230377D01*
X0102626Y0230437D01*
X0102702Y0230499D01*
X0102775Y0230564D01*
X0102846Y0230632D01*
X0084669Y0229899D02*
X0084624Y0229895D01*
X0084579Y0229887D01*
X0084535Y0229875D01*
X0084492Y0229860D01*
X0084450Y0229840D01*
X0084411Y0229817D01*
X0084373Y0229791D01*
X0084338Y0229762D01*
X0084306Y0229729D01*
X0084277Y0229694D01*
X0084251Y0229657D01*
X0084228Y0229617D01*
X0084209Y0229576D01*
X0084193Y0229533D01*
X0084181Y0229489D01*
X0084173Y0229444D01*
X0084169Y0229398D01*
X0084170Y0229399D02*
X0084163Y0229355D01*
X0084153Y0229313D01*
X0084140Y0229271D01*
X0084123Y0229231D01*
X0084102Y0229192D01*
X0084078Y0229155D01*
X0084051Y0229121D01*
X0084021Y0229089D01*
X0083988Y0229059D01*
X0083953Y0229033D01*
X0083916Y0229010D01*
X0083877Y0228990D01*
X0083836Y0228974D01*
X0083794Y0228961D01*
X0083751Y0228952D01*
X0083707Y0228946D01*
X0083664Y0228945D01*
X0083620Y0228947D01*
X0083552Y0228947D01*
X0083505Y0228945D01*
X0083457Y0228947D01*
X0083410Y0228952D01*
X0083363Y0228961D01*
X0083317Y0228973D01*
X0083273Y0228990D01*
X0083229Y0229010D01*
X0083188Y0229033D01*
X0083148Y0229059D01*
X0083111Y0229088D01*
X0083076Y0229121D01*
X0083043Y0229156D01*
X0083014Y0229193D01*
X0082988Y0229233D01*
X0082965Y0229274D01*
X0082945Y0229318D01*
X0082928Y0229362D01*
X0082916Y0229408D01*
X0082907Y0229455D01*
X0082902Y0229502D01*
X0082900Y0229550D01*
X0082902Y0229597D01*
X0082903Y0229597D02*
X0082915Y0229645D01*
X0082924Y0229694D01*
X0082929Y0229743D01*
X0082930Y0229793D01*
X0082927Y0229842D01*
X0082921Y0229891D01*
X0082910Y0229940D01*
X0082896Y0229987D01*
X0082878Y0230034D01*
X0082857Y0230078D01*
X0082832Y0230121D01*
X0082805Y0230162D01*
X0082774Y0230201D01*
X0082740Y0230237D01*
X0082703Y0230270D01*
X0082664Y0230301D01*
X0082623Y0230328D01*
X0082579Y0230352D01*
X0082579Y0230351D02*
X0082535Y0230378D01*
X0082489Y0230402D01*
X0082441Y0230422D01*
X0082392Y0230439D01*
X0082342Y0230452D01*
X0082292Y0230461D01*
X0082240Y0230467D01*
X0082189Y0230469D01*
X0082137Y0230467D01*
X0082086Y0230461D01*
X0082035Y0230452D01*
X0081985Y0230439D01*
X0081936Y0230422D01*
X0081889Y0230402D01*
X0081843Y0230378D01*
X0081799Y0230351D01*
X0081757Y0230321D01*
X0081717Y0230287D01*
X0081680Y0230251D01*
X0081034Y0229605D01*
X0081034Y0229606D02*
X0081000Y0229574D01*
X0080963Y0229545D01*
X0080923Y0229518D01*
X0080882Y0229495D01*
X0080840Y0229476D01*
X0080795Y0229459D01*
X0080750Y0229447D01*
X0080704Y0229437D01*
X0080657Y0229432D01*
X0080610Y0229430D01*
X0080563Y0229432D01*
X0080516Y0229437D01*
X0080470Y0229447D01*
X0080425Y0229459D01*
X0080380Y0229476D01*
X0080338Y0229495D01*
X0080297Y0229518D01*
X0080257Y0229545D01*
X0080220Y0229574D01*
X0080186Y0229606D01*
X0080185Y0229605D02*
X0080181Y0229610D01*
X0080149Y0229644D01*
X0080120Y0229681D01*
X0080093Y0229721D01*
X0080070Y0229762D01*
X0080051Y0229804D01*
X0080034Y0229849D01*
X0080022Y0229894D01*
X0080012Y0229940D01*
X0080007Y0229987D01*
X0080005Y0230034D01*
X0080007Y0230081D01*
X0080012Y0230128D01*
X0080022Y0230174D01*
X0080034Y0230219D01*
X0080051Y0230264D01*
X0080070Y0230306D01*
X0080093Y0230347D01*
X0080120Y0230387D01*
X0080149Y0230424D01*
X0080181Y0230458D01*
X0080827Y0231104D01*
X0080827Y0231105D02*
X0080859Y0231139D01*
X0080888Y0231176D01*
X0080915Y0231216D01*
X0080938Y0231257D01*
X0080957Y0231299D01*
X0080974Y0231344D01*
X0080986Y0231389D01*
X0080996Y0231435D01*
X0081001Y0231482D01*
X0081003Y0231529D01*
X0081001Y0231576D01*
X0080996Y0231623D01*
X0080986Y0231669D01*
X0080974Y0231714D01*
X0080957Y0231759D01*
X0080938Y0231801D01*
X0080915Y0231842D01*
X0080888Y0231882D01*
X0080859Y0231919D01*
X0080827Y0231953D01*
X0080823Y0231957D01*
X0080789Y0231989D01*
X0080752Y0232018D01*
X0080712Y0232045D01*
X0080671Y0232068D01*
X0080629Y0232087D01*
X0080584Y0232104D01*
X0080539Y0232116D01*
X0080493Y0232126D01*
X0080446Y0232131D01*
X0080399Y0232133D01*
X0080352Y0232131D01*
X0080305Y0232126D01*
X0080259Y0232116D01*
X0080214Y0232104D01*
X0080169Y0232087D01*
X0080127Y0232068D01*
X0080086Y0232045D01*
X0080046Y0232018D01*
X0080009Y0231989D01*
X0079975Y0231957D01*
X0079974Y0231957D02*
X0079328Y0231311D01*
X0079294Y0231279D01*
X0079257Y0231250D01*
X0079217Y0231223D01*
X0079176Y0231200D01*
X0079134Y0231181D01*
X0079089Y0231164D01*
X0079044Y0231152D01*
X0078998Y0231142D01*
X0078951Y0231137D01*
X0078904Y0231135D01*
X0078857Y0231137D01*
X0078810Y0231142D01*
X0078764Y0231152D01*
X0078719Y0231164D01*
X0078674Y0231181D01*
X0078632Y0231200D01*
X0078591Y0231223D01*
X0078551Y0231250D01*
X0078514Y0231279D01*
X0078480Y0231311D01*
X0078476Y0231315D01*
X0078045Y0233806D02*
X0077949Y0233801D01*
X0077854Y0233792D01*
X0077759Y0233779D01*
X0077664Y0233762D01*
X0077570Y0233741D01*
X0077477Y0233717D01*
X0077386Y0233688D01*
X0077295Y0233656D01*
X0077206Y0233620D01*
X0077119Y0233581D01*
X0077033Y0233537D01*
X0076949Y0233491D01*
X0076867Y0233441D01*
X0076787Y0233387D01*
X0076710Y0233331D01*
X0076635Y0233271D01*
X0076562Y0233208D01*
X0076492Y0233142D01*
X0076425Y0233074D01*
X0074629Y0231278D01*
X0078227Y0235215D02*
X0078325Y0235213D01*
X0078423Y0235207D01*
X0078521Y0235198D01*
X0078618Y0235184D01*
X0078715Y0235167D01*
X0078811Y0235146D01*
X0078906Y0235121D01*
X0079000Y0235093D01*
X0079092Y0235060D01*
X0079184Y0235025D01*
X0079274Y0234985D01*
X0079362Y0234943D01*
X0079449Y0234896D01*
X0079533Y0234847D01*
X0079616Y0234794D01*
X0079696Y0234738D01*
X0079775Y0234678D01*
X0079851Y0234616D01*
X0079924Y0234551D01*
X0079995Y0234483D01*
X0079995Y0234482D02*
X0082645Y0231832D01*
X0082716Y0231764D01*
X0082789Y0231699D01*
X0082865Y0231637D01*
X0082944Y0231577D01*
X0083024Y0231521D01*
X0083107Y0231468D01*
X0083191Y0231419D01*
X0083278Y0231372D01*
X0083366Y0231330D01*
X0083456Y0231290D01*
X0083548Y0231255D01*
X0083640Y0231222D01*
X0083734Y0231194D01*
X0083829Y0231169D01*
X0083925Y0231148D01*
X0084022Y0231131D01*
X0084119Y0231117D01*
X0084217Y0231108D01*
X0084315Y0231102D01*
X0084413Y0231100D01*
X0078476Y0231315D02*
X0078444Y0231349D01*
X0078415Y0231386D01*
X0078388Y0231426D01*
X0078365Y0231467D01*
X0078346Y0231509D01*
X0078329Y0231554D01*
X0078317Y0231599D01*
X0078307Y0231645D01*
X0078302Y0231692D01*
X0078300Y0231739D01*
X0078302Y0231786D01*
X0078307Y0231833D01*
X0078317Y0231879D01*
X0078329Y0231924D01*
X0078346Y0231969D01*
X0078365Y0232011D01*
X0078388Y0232052D01*
X0078415Y0232092D01*
X0078444Y0232129D01*
X0078476Y0232163D01*
X0078476Y0232164D02*
X0079122Y0232810D01*
X0079122Y0232809D02*
X0079144Y0232856D01*
X0079162Y0232903D01*
X0079176Y0232953D01*
X0079187Y0233002D01*
X0079194Y0233053D01*
X0079198Y0233104D01*
X0079197Y0233155D01*
X0079193Y0233206D01*
X0079185Y0233257D01*
X0079173Y0233307D01*
X0079157Y0233355D01*
X0079138Y0233403D01*
X0079116Y0233449D01*
X0079090Y0233493D01*
X0079060Y0233535D01*
X0079028Y0233574D01*
X0078993Y0233611D01*
X0078955Y0233646D01*
X0078915Y0233677D01*
X0078872Y0233706D01*
X0078828Y0233731D01*
X0078781Y0233753D01*
X0078734Y0233771D01*
X0078684Y0233785D01*
X0078635Y0233796D01*
X0078584Y0233803D01*
X0078533Y0233807D01*
X0078482Y0233806D01*
X0078045Y0233806D01*
X0078227Y0235215D02*
X0066755Y0235215D01*
X0193733Y0091287D02*
X0193735Y0091189D01*
X0193741Y0091091D01*
X0193750Y0090993D01*
X0193764Y0090896D01*
X0193781Y0090799D01*
X0193802Y0090703D01*
X0193827Y0090608D01*
X0193855Y0090514D01*
X0193888Y0090422D01*
X0193923Y0090330D01*
X0193963Y0090240D01*
X0194005Y0090152D01*
X0194052Y0090065D01*
X0194101Y0089981D01*
X0194154Y0089898D01*
X0194210Y0089818D01*
X0194270Y0089739D01*
X0194332Y0089663D01*
X0194397Y0089590D01*
X0194465Y0089519D01*
X0194466Y0089519D02*
X0220659Y0063326D01*
X0221859Y0063823D02*
X0195666Y0090016D01*
X0195665Y0090016D02*
X0195597Y0090087D01*
X0195532Y0090160D01*
X0195470Y0090236D01*
X0195410Y0090315D01*
X0195354Y0090395D01*
X0195301Y0090478D01*
X0195252Y0090562D01*
X0195205Y0090649D01*
X0195163Y0090737D01*
X0195123Y0090827D01*
X0195088Y0090919D01*
X0195055Y0091011D01*
X0195027Y0091105D01*
X0195002Y0091200D01*
X0194981Y0091296D01*
X0194964Y0091393D01*
X0194950Y0091490D01*
X0194941Y0091588D01*
X0194935Y0091686D01*
X0194933Y0091784D01*
X0220659Y0063326D02*
X0220727Y0063255D01*
X0220792Y0063182D01*
X0220854Y0063106D01*
X0220914Y0063027D01*
X0220970Y0062947D01*
X0221023Y0062864D01*
X0221072Y0062780D01*
X0221119Y0062693D01*
X0221161Y0062605D01*
X0221201Y0062515D01*
X0221236Y0062423D01*
X0221269Y0062331D01*
X0221297Y0062237D01*
X0221322Y0062142D01*
X0221343Y0062046D01*
X0221360Y0061949D01*
X0221374Y0061852D01*
X0221383Y0061754D01*
X0221389Y0061656D01*
X0221391Y0061558D01*
X0222591Y0062056D02*
X0222589Y0062154D01*
X0222583Y0062252D01*
X0222574Y0062350D01*
X0222560Y0062447D01*
X0222543Y0062544D01*
X0222522Y0062640D01*
X0222497Y0062735D01*
X0222469Y0062829D01*
X0222436Y0062921D01*
X0222401Y0063013D01*
X0222361Y0063103D01*
X0222319Y0063191D01*
X0222272Y0063278D01*
X0222223Y0063362D01*
X0222170Y0063445D01*
X0222114Y0063525D01*
X0222054Y0063604D01*
X0221992Y0063680D01*
X0221927Y0063753D01*
X0221859Y0063824D01*
X0312729Y0081209D02*
X0312731Y0081307D01*
X0312737Y0081405D01*
X0312746Y0081503D01*
X0312760Y0081600D01*
X0312777Y0081697D01*
X0312798Y0081793D01*
X0312823Y0081888D01*
X0312851Y0081982D01*
X0312884Y0082074D01*
X0312919Y0082166D01*
X0312959Y0082256D01*
X0313001Y0082344D01*
X0313048Y0082431D01*
X0313097Y0082515D01*
X0313150Y0082598D01*
X0313206Y0082678D01*
X0313266Y0082757D01*
X0313328Y0082833D01*
X0313393Y0082906D01*
X0313461Y0082977D01*
X0314661Y0082480D02*
X0314593Y0082409D01*
X0314528Y0082336D01*
X0314466Y0082260D01*
X0314406Y0082181D01*
X0314350Y0082101D01*
X0314297Y0082018D01*
X0314248Y0081934D01*
X0314201Y0081847D01*
X0314159Y0081759D01*
X0314119Y0081669D01*
X0314084Y0081577D01*
X0314051Y0081485D01*
X0314023Y0081391D01*
X0313998Y0081296D01*
X0313977Y0081200D01*
X0313960Y0081103D01*
X0313946Y0081006D01*
X0313937Y0080908D01*
X0313931Y0080810D01*
X0313929Y0080712D01*
X0322178Y0083158D02*
X0322180Y0083256D01*
X0322186Y0083354D01*
X0322195Y0083452D01*
X0322209Y0083549D01*
X0322226Y0083646D01*
X0322247Y0083742D01*
X0322272Y0083837D01*
X0322300Y0083931D01*
X0322333Y0084023D01*
X0322368Y0084115D01*
X0322408Y0084205D01*
X0322450Y0084293D01*
X0322497Y0084380D01*
X0322546Y0084464D01*
X0322599Y0084547D01*
X0322655Y0084627D01*
X0322715Y0084706D01*
X0322777Y0084782D01*
X0322842Y0084855D01*
X0322910Y0084926D01*
X0324110Y0084429D02*
X0324042Y0084358D01*
X0323977Y0084285D01*
X0323915Y0084209D01*
X0323855Y0084130D01*
X0323799Y0084050D01*
X0323746Y0083967D01*
X0323697Y0083883D01*
X0323650Y0083796D01*
X0323608Y0083708D01*
X0323568Y0083618D01*
X0323533Y0083526D01*
X0323500Y0083434D01*
X0323472Y0083340D01*
X0323447Y0083245D01*
X0323426Y0083149D01*
X0323409Y0083052D01*
X0323395Y0082955D01*
X0323386Y0082857D01*
X0323380Y0082759D01*
X0323378Y0082661D01*
X0368006Y0090021D02*
X0368073Y0090092D01*
X0368138Y0090165D01*
X0368200Y0090241D01*
X0368259Y0090319D01*
X0368315Y0090400D01*
X0368367Y0090482D01*
X0368417Y0090567D01*
X0368462Y0090653D01*
X0368505Y0090741D01*
X0368544Y0090831D01*
X0368580Y0090922D01*
X0368612Y0091014D01*
X0368640Y0091108D01*
X0368664Y0091203D01*
X0368685Y0091298D01*
X0368702Y0091394D01*
X0368716Y0091491D01*
X0368725Y0091589D01*
X0368731Y0091686D01*
X0368733Y0091784D01*
X0369933Y0091287D02*
X0369931Y0091189D01*
X0369925Y0091092D01*
X0369916Y0090994D01*
X0369902Y0090897D01*
X0369885Y0090801D01*
X0369864Y0090706D01*
X0369840Y0090611D01*
X0369812Y0090517D01*
X0369780Y0090425D01*
X0369744Y0090334D01*
X0369705Y0090244D01*
X0369662Y0090156D01*
X0369617Y0090070D01*
X0369567Y0089985D01*
X0369515Y0089903D01*
X0369459Y0089822D01*
X0369400Y0089744D01*
X0369338Y0089668D01*
X0369273Y0089595D01*
X0369206Y0089524D01*
X0416774Y0090646D02*
X0416774Y0090843D01*
X0424648Y0090843D02*
X0424648Y0090646D01*
X0424648Y0071354D02*
X0424648Y0071157D01*
X0416774Y0071157D02*
X0416774Y0071354D01*
M02*
