G75*
%MOIN*%
%OFA0B0*%
%FSLAX25Y25*%
%IPPOS*%
%LPD*%
%AMOC8*
5,1,8,0,0,1.08239X$1,22.5*
%
%ADD10C,0.00600*%
D10*
X0271000Y0657555D02*
X0271000Y0673500D01*
X0271002Y0673598D01*
X0271008Y0673696D01*
X0271017Y0673794D01*
X0271031Y0673891D01*
X0271048Y0673988D01*
X0271069Y0674084D01*
X0271094Y0674179D01*
X0271122Y0674273D01*
X0271155Y0674365D01*
X0271190Y0674457D01*
X0271230Y0674547D01*
X0271272Y0674635D01*
X0271319Y0674722D01*
X0271368Y0674806D01*
X0271421Y0674889D01*
X0271477Y0674969D01*
X0271537Y0675048D01*
X0271599Y0675124D01*
X0271664Y0675197D01*
X0271732Y0675268D01*
X0271803Y0675336D01*
X0271876Y0675401D01*
X0271952Y0675463D01*
X0272031Y0675523D01*
X0272111Y0675579D01*
X0272194Y0675632D01*
X0272278Y0675681D01*
X0272365Y0675728D01*
X0272453Y0675770D01*
X0272543Y0675810D01*
X0272635Y0675845D01*
X0272727Y0675878D01*
X0272821Y0675906D01*
X0272916Y0675931D01*
X0273012Y0675952D01*
X0273109Y0675969D01*
X0273206Y0675983D01*
X0273304Y0675992D01*
X0273402Y0675998D01*
X0273500Y0676000D01*
X0292900Y0676000D01*
X0292998Y0676002D01*
X0293096Y0676008D01*
X0293194Y0676017D01*
X0293291Y0676031D01*
X0293388Y0676048D01*
X0293484Y0676069D01*
X0293579Y0676094D01*
X0293673Y0676122D01*
X0293765Y0676155D01*
X0293857Y0676190D01*
X0293947Y0676230D01*
X0294035Y0676272D01*
X0294122Y0676319D01*
X0294206Y0676368D01*
X0294289Y0676421D01*
X0294369Y0676477D01*
X0294448Y0676537D01*
X0294524Y0676599D01*
X0294597Y0676664D01*
X0294668Y0676732D01*
X0294736Y0676803D01*
X0294801Y0676876D01*
X0294863Y0676952D01*
X0294923Y0677031D01*
X0294979Y0677111D01*
X0295032Y0677194D01*
X0295081Y0677278D01*
X0295128Y0677365D01*
X0295170Y0677453D01*
X0295210Y0677543D01*
X0295245Y0677635D01*
X0295278Y0677727D01*
X0295306Y0677821D01*
X0295331Y0677916D01*
X0295352Y0678012D01*
X0295369Y0678109D01*
X0295383Y0678206D01*
X0295392Y0678304D01*
X0295398Y0678402D01*
X0295400Y0678500D01*
X0295400Y0684941D01*
X0295398Y0684984D01*
X0295393Y0685026D01*
X0295384Y0685067D01*
X0295371Y0685108D01*
X0295355Y0685148D01*
X0295336Y0685186D01*
X0295314Y0685222D01*
X0295288Y0685256D01*
X0295260Y0685288D01*
X0295229Y0685317D01*
X0295196Y0685344D01*
X0295161Y0685368D01*
X0295124Y0685388D01*
X0294676Y0685612D01*
X0294639Y0685632D01*
X0294604Y0685656D01*
X0294571Y0685683D01*
X0294540Y0685712D01*
X0294512Y0685744D01*
X0294486Y0685778D01*
X0294464Y0685814D01*
X0294445Y0685852D01*
X0294429Y0685892D01*
X0294416Y0685933D01*
X0294407Y0685974D01*
X0294402Y0686016D01*
X0294400Y0686059D01*
X0294400Y0686441D01*
X0294402Y0686484D01*
X0294407Y0686526D01*
X0294416Y0686567D01*
X0294429Y0686608D01*
X0294445Y0686648D01*
X0294464Y0686686D01*
X0294486Y0686722D01*
X0294512Y0686756D01*
X0294540Y0686788D01*
X0294571Y0686817D01*
X0294604Y0686844D01*
X0294639Y0686868D01*
X0294676Y0686888D01*
X0295124Y0687112D01*
X0295161Y0687132D01*
X0295196Y0687156D01*
X0295229Y0687183D01*
X0295260Y0687212D01*
X0295288Y0687244D01*
X0295314Y0687278D01*
X0295336Y0687314D01*
X0295355Y0687352D01*
X0295371Y0687392D01*
X0295384Y0687433D01*
X0295393Y0687474D01*
X0295398Y0687516D01*
X0295400Y0687559D01*
X0295400Y0687900D01*
X0296600Y0688100D02*
X0296600Y0678500D01*
X0296602Y0678402D01*
X0296608Y0678304D01*
X0296617Y0678206D01*
X0296631Y0678109D01*
X0296648Y0678012D01*
X0296669Y0677916D01*
X0296694Y0677821D01*
X0296722Y0677727D01*
X0296755Y0677635D01*
X0296790Y0677543D01*
X0296830Y0677453D01*
X0296872Y0677365D01*
X0296919Y0677278D01*
X0296968Y0677194D01*
X0297021Y0677111D01*
X0297077Y0677031D01*
X0297137Y0676952D01*
X0297199Y0676876D01*
X0297264Y0676803D01*
X0297332Y0676732D01*
X0297403Y0676664D01*
X0297476Y0676599D01*
X0297552Y0676537D01*
X0297631Y0676477D01*
X0297711Y0676421D01*
X0297794Y0676368D01*
X0297878Y0676319D01*
X0297965Y0676272D01*
X0298053Y0676230D01*
X0298143Y0676190D01*
X0298235Y0676155D01*
X0298327Y0676122D01*
X0298421Y0676094D01*
X0298516Y0676069D01*
X0298612Y0676048D01*
X0298709Y0676031D01*
X0298806Y0676017D01*
X0298904Y0676008D01*
X0299002Y0676002D01*
X0299100Y0676000D01*
X0318500Y0676000D01*
X0318598Y0675998D01*
X0318696Y0675992D01*
X0318794Y0675983D01*
X0318891Y0675969D01*
X0318988Y0675952D01*
X0319084Y0675931D01*
X0319179Y0675906D01*
X0319273Y0675878D01*
X0319365Y0675845D01*
X0319457Y0675810D01*
X0319547Y0675770D01*
X0319635Y0675728D01*
X0319722Y0675681D01*
X0319806Y0675632D01*
X0319889Y0675579D01*
X0319969Y0675523D01*
X0320048Y0675463D01*
X0320124Y0675401D01*
X0320197Y0675336D01*
X0320268Y0675268D01*
X0320336Y0675197D01*
X0320401Y0675124D01*
X0320463Y0675048D01*
X0320523Y0674969D01*
X0320579Y0674889D01*
X0320632Y0674806D01*
X0320681Y0674722D01*
X0320728Y0674635D01*
X0320770Y0674547D01*
X0320810Y0674457D01*
X0320845Y0674365D01*
X0320878Y0674273D01*
X0320906Y0674179D01*
X0320931Y0674084D01*
X0320952Y0673988D01*
X0320969Y0673891D01*
X0320983Y0673794D01*
X0320992Y0673696D01*
X0320998Y0673598D01*
X0321000Y0673500D01*
X0321000Y0657555D01*
X0295400Y0687900D02*
X0295398Y0687998D01*
X0295392Y0688096D01*
X0295383Y0688194D01*
X0295369Y0688291D01*
X0295352Y0688388D01*
X0295331Y0688484D01*
X0295306Y0688579D01*
X0295278Y0688673D01*
X0295245Y0688765D01*
X0295210Y0688857D01*
X0295170Y0688947D01*
X0295128Y0689035D01*
X0295081Y0689122D01*
X0295032Y0689206D01*
X0294979Y0689289D01*
X0294923Y0689369D01*
X0294863Y0689448D01*
X0294801Y0689524D01*
X0294736Y0689597D01*
X0294668Y0689668D01*
X0294597Y0689736D01*
X0294524Y0689801D01*
X0294448Y0689863D01*
X0294369Y0689923D01*
X0294289Y0689979D01*
X0294206Y0690032D01*
X0294122Y0690081D01*
X0294035Y0690128D01*
X0293947Y0690170D01*
X0293857Y0690210D01*
X0293765Y0690245D01*
X0293673Y0690278D01*
X0293579Y0690306D01*
X0293484Y0690331D01*
X0293388Y0690352D01*
X0293291Y0690369D01*
X0293194Y0690383D01*
X0293096Y0690392D01*
X0292998Y0690398D01*
X0292900Y0690400D01*
X0292559Y0690400D01*
X0292516Y0690398D01*
X0292474Y0690393D01*
X0292433Y0690384D01*
X0292392Y0690371D01*
X0292352Y0690355D01*
X0292314Y0690336D01*
X0292278Y0690314D01*
X0292244Y0690288D01*
X0292212Y0690260D01*
X0292183Y0690229D01*
X0292156Y0690196D01*
X0292132Y0690161D01*
X0292112Y0690124D01*
X0291888Y0689676D01*
X0291868Y0689639D01*
X0291844Y0689604D01*
X0291817Y0689571D01*
X0291788Y0689540D01*
X0291756Y0689512D01*
X0291722Y0689486D01*
X0291686Y0689464D01*
X0291648Y0689445D01*
X0291608Y0689429D01*
X0291567Y0689416D01*
X0291526Y0689407D01*
X0291484Y0689402D01*
X0291441Y0689400D01*
X0291059Y0689400D01*
X0291016Y0689402D01*
X0290974Y0689407D01*
X0290933Y0689416D01*
X0290892Y0689429D01*
X0290852Y0689445D01*
X0290814Y0689464D01*
X0290778Y0689486D01*
X0290744Y0689512D01*
X0290712Y0689540D01*
X0290683Y0689571D01*
X0290656Y0689604D01*
X0290632Y0689639D01*
X0290612Y0689676D01*
X0290388Y0690124D01*
X0290368Y0690161D01*
X0290344Y0690196D01*
X0290317Y0690229D01*
X0290288Y0690260D01*
X0290256Y0690288D01*
X0290222Y0690314D01*
X0290186Y0690336D01*
X0290148Y0690355D01*
X0290108Y0690371D01*
X0290067Y0690384D01*
X0290026Y0690393D01*
X0289984Y0690398D01*
X0289941Y0690400D01*
X0011600Y0690400D01*
X0011553Y0690398D01*
X0011506Y0690393D01*
X0011460Y0690383D01*
X0011415Y0690371D01*
X0011370Y0690354D01*
X0011328Y0690335D01*
X0011287Y0690312D01*
X0011247Y0690285D01*
X0011210Y0690256D01*
X0011176Y0690224D01*
X0011144Y0690190D01*
X0011115Y0690153D01*
X0011088Y0690113D01*
X0011065Y0690072D01*
X0011046Y0690030D01*
X0011029Y0689985D01*
X0011017Y0689940D01*
X0011007Y0689894D01*
X0011002Y0689847D01*
X0011000Y0689800D01*
X0011600Y0691600D02*
X0293100Y0691600D01*
X0293217Y0691598D01*
X0293334Y0691592D01*
X0293450Y0691582D01*
X0293567Y0691569D01*
X0293682Y0691551D01*
X0293797Y0691530D01*
X0293911Y0691505D01*
X0294025Y0691476D01*
X0294137Y0691443D01*
X0294248Y0691406D01*
X0294358Y0691366D01*
X0294466Y0691322D01*
X0294573Y0691275D01*
X0294679Y0691224D01*
X0294782Y0691169D01*
X0294884Y0691111D01*
X0294983Y0691050D01*
X0295081Y0690986D01*
X0295176Y0690918D01*
X0295269Y0690847D01*
X0295360Y0690773D01*
X0295448Y0690696D01*
X0295533Y0690616D01*
X0295616Y0690533D01*
X0295696Y0690448D01*
X0295773Y0690360D01*
X0295847Y0690269D01*
X0295918Y0690176D01*
X0295986Y0690081D01*
X0296050Y0689983D01*
X0296111Y0689884D01*
X0296169Y0689782D01*
X0296224Y0689679D01*
X0296275Y0689573D01*
X0296322Y0689466D01*
X0296366Y0689358D01*
X0296406Y0689248D01*
X0296443Y0689137D01*
X0296476Y0689025D01*
X0296505Y0688911D01*
X0296530Y0688797D01*
X0296551Y0688682D01*
X0296569Y0688567D01*
X0296582Y0688450D01*
X0296592Y0688334D01*
X0296598Y0688217D01*
X0296600Y0688100D01*
X0381000Y0673500D02*
X0381000Y0657555D01*
X0381000Y0673500D02*
X0381002Y0673598D01*
X0381008Y0673696D01*
X0381017Y0673794D01*
X0381031Y0673891D01*
X0381048Y0673988D01*
X0381069Y0674084D01*
X0381094Y0674179D01*
X0381122Y0674273D01*
X0381155Y0674365D01*
X0381190Y0674457D01*
X0381230Y0674547D01*
X0381272Y0674635D01*
X0381319Y0674722D01*
X0381368Y0674806D01*
X0381421Y0674889D01*
X0381477Y0674969D01*
X0381537Y0675048D01*
X0381599Y0675124D01*
X0381664Y0675197D01*
X0381732Y0675268D01*
X0381803Y0675336D01*
X0381876Y0675401D01*
X0381952Y0675463D01*
X0382031Y0675523D01*
X0382111Y0675579D01*
X0382194Y0675632D01*
X0382278Y0675681D01*
X0382365Y0675728D01*
X0382453Y0675770D01*
X0382543Y0675810D01*
X0382635Y0675845D01*
X0382727Y0675878D01*
X0382821Y0675906D01*
X0382916Y0675931D01*
X0383012Y0675952D01*
X0383109Y0675969D01*
X0383206Y0675983D01*
X0383304Y0675992D01*
X0383402Y0675998D01*
X0383500Y0676000D01*
X0402900Y0676000D01*
X0402998Y0676002D01*
X0403096Y0676008D01*
X0403194Y0676017D01*
X0403291Y0676031D01*
X0403388Y0676048D01*
X0403484Y0676069D01*
X0403579Y0676094D01*
X0403673Y0676122D01*
X0403765Y0676155D01*
X0403857Y0676190D01*
X0403947Y0676230D01*
X0404035Y0676272D01*
X0404122Y0676319D01*
X0404206Y0676368D01*
X0404289Y0676421D01*
X0404369Y0676477D01*
X0404448Y0676537D01*
X0404524Y0676599D01*
X0404597Y0676664D01*
X0404668Y0676732D01*
X0404736Y0676803D01*
X0404801Y0676876D01*
X0404863Y0676952D01*
X0404923Y0677031D01*
X0404979Y0677111D01*
X0405032Y0677194D01*
X0405081Y0677278D01*
X0405128Y0677365D01*
X0405170Y0677453D01*
X0405210Y0677543D01*
X0405245Y0677635D01*
X0405278Y0677727D01*
X0405306Y0677821D01*
X0405331Y0677916D01*
X0405352Y0678012D01*
X0405369Y0678109D01*
X0405383Y0678206D01*
X0405392Y0678304D01*
X0405398Y0678402D01*
X0405400Y0678500D01*
X0405400Y0688100D01*
X0406600Y0687900D02*
X0406600Y0687559D01*
X0406602Y0687516D01*
X0406607Y0687474D01*
X0406616Y0687433D01*
X0406629Y0687392D01*
X0406645Y0687352D01*
X0406664Y0687314D01*
X0406686Y0687278D01*
X0406712Y0687244D01*
X0406740Y0687212D01*
X0406771Y0687183D01*
X0406804Y0687156D01*
X0406839Y0687132D01*
X0406876Y0687112D01*
X0407324Y0686888D01*
X0407361Y0686868D01*
X0407396Y0686844D01*
X0407429Y0686817D01*
X0407460Y0686788D01*
X0407488Y0686756D01*
X0407514Y0686722D01*
X0407536Y0686686D01*
X0407555Y0686648D01*
X0407571Y0686608D01*
X0407584Y0686567D01*
X0407593Y0686526D01*
X0407598Y0686484D01*
X0407600Y0686441D01*
X0407600Y0686059D01*
X0407598Y0686016D01*
X0407593Y0685974D01*
X0407584Y0685933D01*
X0407571Y0685892D01*
X0407555Y0685852D01*
X0407536Y0685814D01*
X0407514Y0685778D01*
X0407488Y0685744D01*
X0407460Y0685712D01*
X0407429Y0685683D01*
X0407396Y0685656D01*
X0407361Y0685632D01*
X0407324Y0685612D01*
X0406876Y0685388D01*
X0406839Y0685368D01*
X0406804Y0685344D01*
X0406771Y0685317D01*
X0406740Y0685288D01*
X0406712Y0685256D01*
X0406686Y0685222D01*
X0406664Y0685186D01*
X0406645Y0685148D01*
X0406629Y0685108D01*
X0406616Y0685067D01*
X0406607Y0685026D01*
X0406602Y0684984D01*
X0406600Y0684941D01*
X0406600Y0678500D01*
X0406602Y0678402D01*
X0406608Y0678304D01*
X0406617Y0678206D01*
X0406631Y0678109D01*
X0406648Y0678012D01*
X0406669Y0677916D01*
X0406694Y0677821D01*
X0406722Y0677727D01*
X0406755Y0677635D01*
X0406790Y0677543D01*
X0406830Y0677453D01*
X0406872Y0677365D01*
X0406919Y0677278D01*
X0406968Y0677194D01*
X0407021Y0677111D01*
X0407077Y0677031D01*
X0407137Y0676952D01*
X0407199Y0676876D01*
X0407264Y0676803D01*
X0407332Y0676732D01*
X0407403Y0676664D01*
X0407476Y0676599D01*
X0407552Y0676537D01*
X0407631Y0676477D01*
X0407711Y0676421D01*
X0407794Y0676368D01*
X0407878Y0676319D01*
X0407965Y0676272D01*
X0408053Y0676230D01*
X0408143Y0676190D01*
X0408235Y0676155D01*
X0408327Y0676122D01*
X0408421Y0676094D01*
X0408516Y0676069D01*
X0408612Y0676048D01*
X0408709Y0676031D01*
X0408806Y0676017D01*
X0408904Y0676008D01*
X0409002Y0676002D01*
X0409100Y0676000D01*
X0428500Y0676000D01*
X0428598Y0675998D01*
X0428696Y0675992D01*
X0428794Y0675983D01*
X0428891Y0675969D01*
X0428988Y0675952D01*
X0429084Y0675931D01*
X0429179Y0675906D01*
X0429273Y0675878D01*
X0429365Y0675845D01*
X0429457Y0675810D01*
X0429547Y0675770D01*
X0429635Y0675728D01*
X0429722Y0675681D01*
X0429806Y0675632D01*
X0429889Y0675579D01*
X0429969Y0675523D01*
X0430048Y0675463D01*
X0430124Y0675401D01*
X0430197Y0675336D01*
X0430268Y0675268D01*
X0430336Y0675197D01*
X0430401Y0675124D01*
X0430463Y0675048D01*
X0430523Y0674969D01*
X0430579Y0674889D01*
X0430632Y0674806D01*
X0430681Y0674722D01*
X0430728Y0674635D01*
X0430770Y0674547D01*
X0430810Y0674457D01*
X0430845Y0674365D01*
X0430878Y0674273D01*
X0430906Y0674179D01*
X0430931Y0674084D01*
X0430952Y0673988D01*
X0430969Y0673891D01*
X0430983Y0673794D01*
X0430992Y0673696D01*
X0430998Y0673598D01*
X0431000Y0673500D01*
X0431000Y0657555D01*
X0454676Y0685612D02*
X0455124Y0685388D01*
X0455161Y0685368D01*
X0455196Y0685344D01*
X0455229Y0685317D01*
X0455260Y0685288D01*
X0455288Y0685256D01*
X0455314Y0685222D01*
X0455336Y0685186D01*
X0455355Y0685148D01*
X0455371Y0685108D01*
X0455384Y0685067D01*
X0455393Y0685026D01*
X0455398Y0684984D01*
X0455400Y0684941D01*
X0455400Y0673900D01*
X0456600Y0674100D02*
X0456600Y0674441D01*
X0456602Y0674484D01*
X0456607Y0674526D01*
X0456616Y0674567D01*
X0456629Y0674608D01*
X0456645Y0674648D01*
X0456664Y0674686D01*
X0456686Y0674722D01*
X0456712Y0674756D01*
X0456740Y0674788D01*
X0456771Y0674817D01*
X0456804Y0674844D01*
X0456839Y0674868D01*
X0456876Y0674888D01*
X0457324Y0675112D01*
X0457361Y0675132D01*
X0457396Y0675156D01*
X0457429Y0675183D01*
X0457460Y0675212D01*
X0457488Y0675244D01*
X0457514Y0675278D01*
X0457536Y0675314D01*
X0457555Y0675352D01*
X0457571Y0675392D01*
X0457584Y0675433D01*
X0457593Y0675474D01*
X0457598Y0675516D01*
X0457600Y0675559D01*
X0457600Y0675941D01*
X0457598Y0675984D01*
X0457593Y0676026D01*
X0457584Y0676067D01*
X0457571Y0676108D01*
X0457555Y0676148D01*
X0457536Y0676186D01*
X0457514Y0676222D01*
X0457488Y0676256D01*
X0457460Y0676288D01*
X0457429Y0676317D01*
X0457396Y0676344D01*
X0457361Y0676368D01*
X0457324Y0676388D01*
X0456876Y0676612D01*
X0456839Y0676632D01*
X0456804Y0676656D01*
X0456771Y0676683D01*
X0456740Y0676712D01*
X0456712Y0676744D01*
X0456686Y0676778D01*
X0456664Y0676814D01*
X0456645Y0676852D01*
X0456629Y0676892D01*
X0456616Y0676933D01*
X0456607Y0676974D01*
X0456602Y0677016D01*
X0456600Y0677059D01*
X0456600Y0688100D01*
X0455400Y0687900D02*
X0455400Y0687559D01*
X0455398Y0687516D01*
X0455393Y0687474D01*
X0455384Y0687433D01*
X0455371Y0687392D01*
X0455355Y0687352D01*
X0455336Y0687314D01*
X0455314Y0687278D01*
X0455288Y0687244D01*
X0455260Y0687212D01*
X0455229Y0687183D01*
X0455196Y0687156D01*
X0455161Y0687132D01*
X0455124Y0687112D01*
X0454676Y0686888D01*
X0454639Y0686868D01*
X0454604Y0686844D01*
X0454571Y0686817D01*
X0454540Y0686788D01*
X0454512Y0686756D01*
X0454486Y0686722D01*
X0454464Y0686686D01*
X0454445Y0686648D01*
X0454429Y0686608D01*
X0454416Y0686567D01*
X0454407Y0686526D01*
X0454402Y0686484D01*
X0454400Y0686441D01*
X0454400Y0686059D01*
X0454402Y0686016D01*
X0454407Y0685974D01*
X0454416Y0685933D01*
X0454429Y0685892D01*
X0454445Y0685852D01*
X0454464Y0685814D01*
X0454486Y0685778D01*
X0454512Y0685744D01*
X0454540Y0685712D01*
X0454571Y0685683D01*
X0454604Y0685656D01*
X0454639Y0685632D01*
X0454676Y0685612D01*
X0455400Y0687900D02*
X0455398Y0687998D01*
X0455392Y0688096D01*
X0455383Y0688194D01*
X0455369Y0688291D01*
X0455352Y0688388D01*
X0455331Y0688484D01*
X0455306Y0688579D01*
X0455278Y0688673D01*
X0455245Y0688765D01*
X0455210Y0688857D01*
X0455170Y0688947D01*
X0455128Y0689035D01*
X0455081Y0689122D01*
X0455032Y0689206D01*
X0454979Y0689289D01*
X0454923Y0689369D01*
X0454863Y0689448D01*
X0454801Y0689524D01*
X0454736Y0689597D01*
X0454668Y0689668D01*
X0454597Y0689736D01*
X0454524Y0689801D01*
X0454448Y0689863D01*
X0454369Y0689923D01*
X0454289Y0689979D01*
X0454206Y0690032D01*
X0454122Y0690081D01*
X0454035Y0690128D01*
X0453947Y0690170D01*
X0453857Y0690210D01*
X0453765Y0690245D01*
X0453673Y0690278D01*
X0453579Y0690306D01*
X0453484Y0690331D01*
X0453388Y0690352D01*
X0453291Y0690369D01*
X0453194Y0690383D01*
X0453096Y0690392D01*
X0452998Y0690398D01*
X0452900Y0690400D01*
X0452559Y0690400D01*
X0452516Y0690398D01*
X0452474Y0690393D01*
X0452433Y0690384D01*
X0452392Y0690371D01*
X0452352Y0690355D01*
X0452314Y0690336D01*
X0452278Y0690314D01*
X0452244Y0690288D01*
X0452212Y0690260D01*
X0452183Y0690229D01*
X0452156Y0690196D01*
X0452132Y0690161D01*
X0452112Y0690124D01*
X0451888Y0689676D01*
X0451868Y0689639D01*
X0451844Y0689604D01*
X0451817Y0689571D01*
X0451788Y0689540D01*
X0451756Y0689512D01*
X0451722Y0689486D01*
X0451686Y0689464D01*
X0451648Y0689445D01*
X0451608Y0689429D01*
X0451567Y0689416D01*
X0451526Y0689407D01*
X0451484Y0689402D01*
X0451441Y0689400D01*
X0451059Y0689400D01*
X0451016Y0689402D01*
X0450974Y0689407D01*
X0450933Y0689416D01*
X0450892Y0689429D01*
X0450852Y0689445D01*
X0450814Y0689464D01*
X0450778Y0689486D01*
X0450744Y0689512D01*
X0450712Y0689540D01*
X0450683Y0689571D01*
X0450656Y0689604D01*
X0450632Y0689639D01*
X0450612Y0689676D01*
X0450388Y0690124D01*
X0450368Y0690161D01*
X0450344Y0690196D01*
X0450317Y0690229D01*
X0450288Y0690260D01*
X0450256Y0690288D01*
X0450222Y0690314D01*
X0450186Y0690336D01*
X0450148Y0690355D01*
X0450108Y0690371D01*
X0450067Y0690384D01*
X0450026Y0690393D01*
X0449984Y0690398D01*
X0449941Y0690400D01*
X0412059Y0690400D01*
X0412016Y0690398D01*
X0411974Y0690393D01*
X0411933Y0690384D01*
X0411892Y0690371D01*
X0411852Y0690355D01*
X0411814Y0690336D01*
X0411778Y0690314D01*
X0411744Y0690288D01*
X0411712Y0690260D01*
X0411683Y0690229D01*
X0411656Y0690196D01*
X0411632Y0690161D01*
X0411612Y0690124D01*
X0411388Y0689676D01*
X0411368Y0689639D01*
X0411344Y0689604D01*
X0411317Y0689571D01*
X0411288Y0689540D01*
X0411256Y0689512D01*
X0411222Y0689486D01*
X0411186Y0689464D01*
X0411148Y0689445D01*
X0411108Y0689429D01*
X0411067Y0689416D01*
X0411026Y0689407D01*
X0410984Y0689402D01*
X0410941Y0689400D01*
X0410559Y0689400D01*
X0410516Y0689402D01*
X0410474Y0689407D01*
X0410433Y0689416D01*
X0410392Y0689429D01*
X0410352Y0689445D01*
X0410314Y0689464D01*
X0410278Y0689486D01*
X0410244Y0689512D01*
X0410212Y0689540D01*
X0410183Y0689571D01*
X0410156Y0689604D01*
X0410132Y0689639D01*
X0410112Y0689676D01*
X0409888Y0690124D01*
X0409868Y0690161D01*
X0409844Y0690196D01*
X0409817Y0690229D01*
X0409788Y0690260D01*
X0409756Y0690288D01*
X0409722Y0690314D01*
X0409686Y0690336D01*
X0409648Y0690355D01*
X0409608Y0690371D01*
X0409567Y0690384D01*
X0409526Y0690393D01*
X0409484Y0690398D01*
X0409441Y0690400D01*
X0409100Y0690400D01*
X0408900Y0691600D02*
X0453100Y0691600D01*
X0453217Y0691598D01*
X0453334Y0691592D01*
X0453450Y0691582D01*
X0453567Y0691569D01*
X0453682Y0691551D01*
X0453797Y0691530D01*
X0453911Y0691505D01*
X0454025Y0691476D01*
X0454137Y0691443D01*
X0454248Y0691406D01*
X0454358Y0691366D01*
X0454466Y0691322D01*
X0454573Y0691275D01*
X0454679Y0691224D01*
X0454782Y0691169D01*
X0454884Y0691111D01*
X0454983Y0691050D01*
X0455081Y0690986D01*
X0455176Y0690918D01*
X0455269Y0690847D01*
X0455360Y0690773D01*
X0455448Y0690696D01*
X0455533Y0690616D01*
X0455616Y0690533D01*
X0455696Y0690448D01*
X0455773Y0690360D01*
X0455847Y0690269D01*
X0455918Y0690176D01*
X0455986Y0690081D01*
X0456050Y0689983D01*
X0456111Y0689884D01*
X0456169Y0689782D01*
X0456224Y0689679D01*
X0456275Y0689573D01*
X0456322Y0689466D01*
X0456366Y0689358D01*
X0456406Y0689248D01*
X0456443Y0689137D01*
X0456476Y0689025D01*
X0456505Y0688911D01*
X0456530Y0688797D01*
X0456551Y0688682D01*
X0456569Y0688567D01*
X0456582Y0688450D01*
X0456592Y0688334D01*
X0456598Y0688217D01*
X0456600Y0688100D01*
X0456600Y0674100D02*
X0456602Y0674002D01*
X0456608Y0673904D01*
X0456617Y0673806D01*
X0456631Y0673709D01*
X0456648Y0673612D01*
X0456669Y0673516D01*
X0456694Y0673421D01*
X0456722Y0673327D01*
X0456755Y0673235D01*
X0456790Y0673143D01*
X0456830Y0673053D01*
X0456872Y0672965D01*
X0456919Y0672878D01*
X0456968Y0672794D01*
X0457021Y0672711D01*
X0457077Y0672631D01*
X0457137Y0672552D01*
X0457199Y0672476D01*
X0457264Y0672403D01*
X0457332Y0672332D01*
X0457403Y0672264D01*
X0457476Y0672199D01*
X0457552Y0672137D01*
X0457631Y0672077D01*
X0457711Y0672021D01*
X0457794Y0671968D01*
X0457878Y0671919D01*
X0457965Y0671872D01*
X0458053Y0671830D01*
X0458143Y0671790D01*
X0458235Y0671755D01*
X0458327Y0671722D01*
X0458421Y0671694D01*
X0458516Y0671669D01*
X0458612Y0671648D01*
X0458709Y0671631D01*
X0458806Y0671617D01*
X0458904Y0671608D01*
X0459002Y0671602D01*
X0459100Y0671600D01*
X0459441Y0671600D01*
X0459484Y0671602D01*
X0459526Y0671607D01*
X0459567Y0671616D01*
X0459608Y0671629D01*
X0459648Y0671645D01*
X0459686Y0671664D01*
X0459722Y0671686D01*
X0459756Y0671712D01*
X0459788Y0671740D01*
X0459817Y0671771D01*
X0459844Y0671804D01*
X0459868Y0671839D01*
X0459888Y0671876D01*
X0460112Y0672324D01*
X0460132Y0672361D01*
X0460156Y0672396D01*
X0460183Y0672429D01*
X0460212Y0672460D01*
X0460244Y0672488D01*
X0460278Y0672514D01*
X0460314Y0672536D01*
X0460352Y0672555D01*
X0460392Y0672571D01*
X0460433Y0672584D01*
X0460474Y0672593D01*
X0460516Y0672598D01*
X0460559Y0672600D01*
X0460941Y0672600D01*
X0460984Y0672598D01*
X0461026Y0672593D01*
X0461067Y0672584D01*
X0461108Y0672571D01*
X0461148Y0672555D01*
X0461186Y0672536D01*
X0461222Y0672514D01*
X0461256Y0672488D01*
X0461288Y0672460D01*
X0461317Y0672429D01*
X0461344Y0672396D01*
X0461368Y0672361D01*
X0461388Y0672324D01*
X0461612Y0671876D01*
X0461632Y0671839D01*
X0461656Y0671804D01*
X0461683Y0671771D01*
X0461712Y0671740D01*
X0461744Y0671712D01*
X0461778Y0671686D01*
X0461814Y0671664D01*
X0461852Y0671645D01*
X0461892Y0671629D01*
X0461933Y0671616D01*
X0461974Y0671607D01*
X0462016Y0671602D01*
X0462059Y0671600D01*
X0473100Y0671600D01*
X0472900Y0670400D02*
X0472559Y0670400D01*
X0472516Y0670398D01*
X0472474Y0670393D01*
X0472433Y0670384D01*
X0472392Y0670371D01*
X0472352Y0670355D01*
X0472314Y0670336D01*
X0472278Y0670314D01*
X0472244Y0670288D01*
X0472212Y0670260D01*
X0472183Y0670229D01*
X0472156Y0670196D01*
X0472132Y0670161D01*
X0472112Y0670124D01*
X0471888Y0669676D01*
X0471868Y0669639D01*
X0471844Y0669604D01*
X0471817Y0669571D01*
X0471788Y0669540D01*
X0471756Y0669512D01*
X0471722Y0669486D01*
X0471686Y0669464D01*
X0471648Y0669445D01*
X0471608Y0669429D01*
X0471567Y0669416D01*
X0471526Y0669407D01*
X0471484Y0669402D01*
X0471441Y0669400D01*
X0471059Y0669400D01*
X0471016Y0669402D01*
X0470974Y0669407D01*
X0470933Y0669416D01*
X0470892Y0669429D01*
X0470852Y0669445D01*
X0470814Y0669464D01*
X0470778Y0669486D01*
X0470744Y0669512D01*
X0470712Y0669540D01*
X0470683Y0669571D01*
X0470656Y0669604D01*
X0470632Y0669639D01*
X0470612Y0669676D01*
X0470388Y0670124D01*
X0470368Y0670161D01*
X0470344Y0670196D01*
X0470317Y0670229D01*
X0470288Y0670260D01*
X0470256Y0670288D01*
X0470222Y0670314D01*
X0470186Y0670336D01*
X0470148Y0670355D01*
X0470108Y0670371D01*
X0470067Y0670384D01*
X0470026Y0670393D01*
X0469984Y0670398D01*
X0469941Y0670400D01*
X0458900Y0670400D01*
X0458783Y0670402D01*
X0458666Y0670408D01*
X0458550Y0670418D01*
X0458433Y0670431D01*
X0458318Y0670449D01*
X0458203Y0670470D01*
X0458089Y0670495D01*
X0457975Y0670524D01*
X0457863Y0670557D01*
X0457752Y0670594D01*
X0457642Y0670634D01*
X0457534Y0670678D01*
X0457427Y0670725D01*
X0457321Y0670776D01*
X0457218Y0670831D01*
X0457116Y0670889D01*
X0457017Y0670950D01*
X0456919Y0671014D01*
X0456824Y0671082D01*
X0456731Y0671153D01*
X0456640Y0671227D01*
X0456552Y0671304D01*
X0456467Y0671384D01*
X0456384Y0671467D01*
X0456304Y0671552D01*
X0456227Y0671640D01*
X0456153Y0671731D01*
X0456082Y0671824D01*
X0456014Y0671919D01*
X0455950Y0672017D01*
X0455889Y0672116D01*
X0455831Y0672218D01*
X0455776Y0672321D01*
X0455725Y0672427D01*
X0455678Y0672534D01*
X0455634Y0672642D01*
X0455594Y0672752D01*
X0455557Y0672863D01*
X0455524Y0672975D01*
X0455495Y0673089D01*
X0455470Y0673203D01*
X0455449Y0673318D01*
X0455431Y0673433D01*
X0455418Y0673550D01*
X0455408Y0673666D01*
X0455402Y0673783D01*
X0455400Y0673900D01*
X0472900Y0670400D02*
X0472998Y0670398D01*
X0473096Y0670392D01*
X0473194Y0670383D01*
X0473291Y0670369D01*
X0473388Y0670352D01*
X0473484Y0670331D01*
X0473579Y0670306D01*
X0473673Y0670278D01*
X0473765Y0670245D01*
X0473857Y0670210D01*
X0473947Y0670170D01*
X0474035Y0670128D01*
X0474122Y0670081D01*
X0474206Y0670032D01*
X0474289Y0669979D01*
X0474369Y0669923D01*
X0474448Y0669863D01*
X0474524Y0669801D01*
X0474597Y0669736D01*
X0474668Y0669668D01*
X0474736Y0669597D01*
X0474801Y0669524D01*
X0474863Y0669448D01*
X0474923Y0669369D01*
X0474979Y0669289D01*
X0475032Y0669206D01*
X0475081Y0669122D01*
X0475128Y0669035D01*
X0475170Y0668947D01*
X0475210Y0668857D01*
X0475245Y0668765D01*
X0475278Y0668673D01*
X0475306Y0668579D01*
X0475331Y0668484D01*
X0475352Y0668388D01*
X0475369Y0668291D01*
X0475383Y0668194D01*
X0475392Y0668096D01*
X0475398Y0667998D01*
X0475400Y0667900D01*
X0475400Y0667559D01*
X0475398Y0667516D01*
X0475393Y0667474D01*
X0475384Y0667433D01*
X0475371Y0667392D01*
X0475355Y0667352D01*
X0475336Y0667314D01*
X0475314Y0667278D01*
X0475288Y0667244D01*
X0475260Y0667212D01*
X0475229Y0667183D01*
X0475196Y0667156D01*
X0475161Y0667132D01*
X0475124Y0667112D01*
X0474676Y0666888D01*
X0474639Y0666868D01*
X0474604Y0666844D01*
X0474571Y0666817D01*
X0474540Y0666788D01*
X0474512Y0666756D01*
X0474486Y0666722D01*
X0474464Y0666686D01*
X0474445Y0666648D01*
X0474429Y0666608D01*
X0474416Y0666567D01*
X0474407Y0666526D01*
X0474402Y0666484D01*
X0474400Y0666441D01*
X0474400Y0666059D01*
X0474402Y0666016D01*
X0474407Y0665974D01*
X0474416Y0665933D01*
X0474429Y0665892D01*
X0474445Y0665852D01*
X0474464Y0665814D01*
X0474486Y0665778D01*
X0474512Y0665744D01*
X0474540Y0665712D01*
X0474571Y0665683D01*
X0474604Y0665656D01*
X0474639Y0665632D01*
X0474676Y0665612D01*
X0475124Y0665388D01*
X0475161Y0665368D01*
X0475196Y0665344D01*
X0475229Y0665317D01*
X0475260Y0665288D01*
X0475288Y0665256D01*
X0475314Y0665222D01*
X0475336Y0665186D01*
X0475355Y0665148D01*
X0475371Y0665108D01*
X0475384Y0665067D01*
X0475393Y0665026D01*
X0475398Y0664984D01*
X0475400Y0664941D01*
X0475400Y0011600D01*
X0475398Y0011553D01*
X0475393Y0011506D01*
X0475383Y0011460D01*
X0475371Y0011415D01*
X0475354Y0011370D01*
X0475335Y0011328D01*
X0475312Y0011287D01*
X0475285Y0011247D01*
X0475256Y0011210D01*
X0475224Y0011176D01*
X0475190Y0011144D01*
X0475153Y0011115D01*
X0475113Y0011088D01*
X0475072Y0011065D01*
X0475030Y0011046D01*
X0474985Y0011029D01*
X0474940Y0011017D01*
X0474894Y0011007D01*
X0474847Y0011002D01*
X0474800Y0011000D01*
X0476600Y0011600D02*
X0476600Y0668100D01*
X0476598Y0668217D01*
X0476592Y0668334D01*
X0476582Y0668450D01*
X0476569Y0668567D01*
X0476551Y0668682D01*
X0476530Y0668797D01*
X0476505Y0668911D01*
X0476476Y0669025D01*
X0476443Y0669137D01*
X0476406Y0669248D01*
X0476366Y0669358D01*
X0476322Y0669466D01*
X0476275Y0669573D01*
X0476224Y0669679D01*
X0476169Y0669782D01*
X0476111Y0669884D01*
X0476050Y0669983D01*
X0475986Y0670081D01*
X0475918Y0670176D01*
X0475847Y0670269D01*
X0475773Y0670360D01*
X0475696Y0670448D01*
X0475616Y0670533D01*
X0475533Y0670616D01*
X0475448Y0670696D01*
X0475360Y0670773D01*
X0475269Y0670847D01*
X0475176Y0670918D01*
X0475081Y0670986D01*
X0474983Y0671050D01*
X0474884Y0671111D01*
X0474782Y0671169D01*
X0474679Y0671224D01*
X0474573Y0671275D01*
X0474466Y0671322D01*
X0474358Y0671366D01*
X0474248Y0671406D01*
X0474137Y0671443D01*
X0474025Y0671476D01*
X0473911Y0671505D01*
X0473797Y0671530D01*
X0473682Y0671551D01*
X0473567Y0671569D01*
X0473450Y0671582D01*
X0473334Y0671592D01*
X0473217Y0671598D01*
X0473100Y0671600D01*
X0409100Y0690400D02*
X0409002Y0690398D01*
X0408904Y0690392D01*
X0408806Y0690383D01*
X0408709Y0690369D01*
X0408612Y0690352D01*
X0408516Y0690331D01*
X0408421Y0690306D01*
X0408327Y0690278D01*
X0408235Y0690245D01*
X0408143Y0690210D01*
X0408053Y0690170D01*
X0407965Y0690128D01*
X0407878Y0690081D01*
X0407794Y0690032D01*
X0407711Y0689979D01*
X0407631Y0689923D01*
X0407552Y0689863D01*
X0407476Y0689801D01*
X0407403Y0689736D01*
X0407332Y0689668D01*
X0407264Y0689597D01*
X0407199Y0689524D01*
X0407137Y0689448D01*
X0407077Y0689369D01*
X0407021Y0689289D01*
X0406968Y0689206D01*
X0406919Y0689122D01*
X0406872Y0689035D01*
X0406830Y0688947D01*
X0406790Y0688857D01*
X0406755Y0688765D01*
X0406722Y0688673D01*
X0406694Y0688579D01*
X0406669Y0688484D01*
X0406648Y0688388D01*
X0406631Y0688291D01*
X0406617Y0688194D01*
X0406608Y0688096D01*
X0406602Y0687998D01*
X0406600Y0687900D01*
X0405400Y0688100D02*
X0405402Y0688217D01*
X0405408Y0688334D01*
X0405418Y0688450D01*
X0405431Y0688567D01*
X0405449Y0688682D01*
X0405470Y0688797D01*
X0405495Y0688911D01*
X0405524Y0689025D01*
X0405557Y0689137D01*
X0405594Y0689248D01*
X0405634Y0689358D01*
X0405678Y0689466D01*
X0405725Y0689573D01*
X0405776Y0689679D01*
X0405831Y0689782D01*
X0405889Y0689884D01*
X0405950Y0689983D01*
X0406014Y0690081D01*
X0406082Y0690176D01*
X0406153Y0690269D01*
X0406227Y0690360D01*
X0406304Y0690448D01*
X0406384Y0690533D01*
X0406467Y0690616D01*
X0406552Y0690696D01*
X0406640Y0690773D01*
X0406731Y0690847D01*
X0406824Y0690918D01*
X0406919Y0690986D01*
X0407017Y0691050D01*
X0407116Y0691111D01*
X0407218Y0691169D01*
X0407321Y0691224D01*
X0407427Y0691275D01*
X0407534Y0691322D01*
X0407642Y0691366D01*
X0407752Y0691406D01*
X0407863Y0691443D01*
X0407975Y0691476D01*
X0408089Y0691505D01*
X0408203Y0691530D01*
X0408318Y0691551D01*
X0408433Y0691569D01*
X0408550Y0691582D01*
X0408666Y0691592D01*
X0408783Y0691598D01*
X0408900Y0691600D01*
X0011600Y0691600D02*
X0011553Y0691602D01*
X0011506Y0691607D01*
X0011460Y0691617D01*
X0011415Y0691629D01*
X0011370Y0691646D01*
X0011328Y0691665D01*
X0011287Y0691688D01*
X0011247Y0691715D01*
X0011210Y0691744D01*
X0011176Y0691776D01*
X0011144Y0691810D01*
X0011115Y0691847D01*
X0011088Y0691887D01*
X0011065Y0691928D01*
X0011046Y0691970D01*
X0011029Y0692015D01*
X0011017Y0692060D01*
X0011007Y0692106D01*
X0011002Y0692153D01*
X0011000Y0692200D01*
X0476600Y0011600D02*
X0476602Y0011553D01*
X0476607Y0011506D01*
X0476617Y0011460D01*
X0476629Y0011415D01*
X0476646Y0011370D01*
X0476665Y0011328D01*
X0476688Y0011287D01*
X0476715Y0011247D01*
X0476744Y0011210D01*
X0476776Y0011176D01*
X0476810Y0011144D01*
X0476847Y0011115D01*
X0476887Y0011088D01*
X0476928Y0011065D01*
X0476970Y0011046D01*
X0477015Y0011029D01*
X0477060Y0011017D01*
X0477106Y0011007D01*
X0477153Y0011002D01*
X0477200Y0011000D01*
M02*
