%MOMM*%
%FSLAX33Y33*%
%IPPOS*%
%AMOC8*
5,1,8,0,0,((1.08239)X($1))X(25.4),22.5*%
%AMOC8_1*
5,1,8,0,0,((1.08239)X($1))X(25.4),22.5*%
%ADD10C,0.1524*%
%ADD11C,0.127*%
%ADD12C,0*%
%ADD13C,0*%
%ADD14C,0*%
%ADD15C,0*%
%ADD16C,0.0254*%
%ADD17C,0*%
%ADD18C,0*%
G75*
%LPD*%
D11*
X27355Y28885D02*
X44775Y28885D01*
X44836Y28886D01*
X44898Y28888D01*
X44959Y28891D01*
X45020Y28897D01*
X45081Y28903D01*
X45142Y28912D01*
X45203Y28921D01*
X45263Y28932D01*
X45323Y28945D01*
X45383Y28959D01*
X45442Y28974D01*
X45501Y28991D01*
X45560Y29009D01*
X45618Y29029D01*
X45676Y29050D01*
X45733Y29072D01*
X45789Y29096D01*
X45845Y29121D01*
X45901Y29148D01*
X45955Y29176D01*
X46009Y29205D01*
X46063Y29235D01*
X46115Y29267D01*
X46167Y29300D01*
X46218Y29334D01*
X46268Y29370D01*
X46317Y29407D01*
X46365Y29444D01*
X46413Y29484D01*
X46459Y29524D01*
X46505Y29565D01*
X46549Y29607D01*
X46592Y29651D01*
X46635Y29695D01*
X46676Y29741D01*
X46716Y29787D01*
X46755Y29834D01*
X46793Y29883D01*
X46830Y29932D01*
X46865Y29982D01*
X46900Y30033D01*
X46933Y30085D01*
X46964Y30137D01*
X46995Y30190D01*
X47024Y30245D01*
X47052Y30299D01*
X47078Y30355D01*
X47104Y30410D01*
X47127Y30467D01*
X47150Y30524D01*
X47171Y30582D01*
X47191Y30640D01*
X47209Y30699D01*
X47226Y30758D01*
X47241Y30817D01*
X47255Y30877D01*
X47268Y30937D01*
X47279Y30997D01*
X47288Y31058D01*
X47296Y31119D01*
X47303Y31180D01*
X47308Y31241D01*
X47312Y31302D01*
X47314Y31363D01*
X47315Y31425D01*
X47315Y40805D01*
X47314Y40867D01*
X47312Y40928D01*
X47308Y40989D01*
X47303Y41050D01*
X47296Y41111D01*
X47288Y41172D01*
X47279Y41233D01*
X47268Y41293D01*
X47255Y41353D01*
X47241Y41413D01*
X47226Y41472D01*
X47209Y41531D01*
X47191Y41590D01*
X47171Y41648D01*
X47150Y41706D01*
X47127Y41763D01*
X47104Y41820D01*
X47078Y41875D01*
X47052Y41931D01*
X47024Y41985D01*
X46995Y42040D01*
X46964Y42093D01*
X46933Y42145D01*
X46900Y42197D01*
X46865Y42248D01*
X46830Y42298D01*
X46793Y42347D01*
X46755Y42396D01*
X46716Y42443D01*
X46676Y42489D01*
X46635Y42535D01*
X46592Y42579D01*
X46549Y42623D01*
X46505Y42665D01*
X46459Y42706D01*
X46413Y42746D01*
X46365Y42786D01*
X46317Y42823D01*
X46268Y42860D01*
X46218Y42896D01*
X46167Y42930D01*
X46115Y42963D01*
X46063Y42995D01*
X46009Y43025D01*
X45955Y43054D01*
X45901Y43082D01*
X45845Y43109D01*
X45789Y43134D01*
X45733Y43158D01*
X45676Y43180D01*
X45618Y43201D01*
X45560Y43221D01*
X45501Y43239D01*
X45442Y43256D01*
X45383Y43271D01*
X45323Y43285D01*
X45263Y43298D01*
X45203Y43309D01*
X45142Y43318D01*
X45081Y43327D01*
X45020Y43333D01*
X44959Y43339D01*
X44898Y43342D01*
X44836Y43344D01*
X44775Y43345D01*
X27355Y43345D01*
X27294Y43344D01*
X27232Y43342D01*
X27171Y43339D01*
X27110Y43333D01*
X27049Y43327D01*
X26988Y43318D01*
X26927Y43309D01*
X26867Y43298D01*
X26807Y43285D01*
X26747Y43271D01*
X26688Y43256D01*
X26629Y43239D01*
X26570Y43221D01*
X26512Y43201D01*
X26454Y43180D01*
X26397Y43158D01*
X26341Y43134D01*
X26285Y43109D01*
X26229Y43082D01*
X26175Y43054D01*
X26121Y43025D01*
X26067Y42995D01*
X26015Y42963D01*
X25963Y42930D01*
X25912Y42896D01*
X25862Y42860D01*
X25813Y42823D01*
X25764Y42786D01*
X25717Y42746D01*
X25671Y42706D01*
X25625Y42665D01*
X25581Y42623D01*
X25537Y42579D01*
X25495Y42535D01*
X25454Y42489D01*
X25414Y42443D01*
X25375Y42396D01*
X25337Y42347D01*
X25300Y42298D01*
X25265Y42248D01*
X25230Y42197D01*
X25197Y42145D01*
X25166Y42093D01*
X25135Y42040D01*
X25106Y41985D01*
X25078Y41931D01*
X25052Y41875D01*
X25026Y41820D01*
X25002Y41763D01*
X24980Y41706D01*
X24959Y41648D01*
X24939Y41590D01*
X24921Y41531D01*
X24904Y41472D01*
X24889Y41413D01*
X24875Y41353D01*
X24862Y41293D01*
X24851Y41233D01*
X24842Y41172D01*
X24834Y41111D01*
X24827Y41050D01*
X24822Y40989D01*
X24818Y40928D01*
X24816Y40867D01*
X24815Y40805D01*
X24815Y31425D01*
X24816Y31363D01*
X24818Y31302D01*
X24822Y31241D01*
X24827Y31180D01*
X24834Y31119D01*
X24842Y31058D01*
X24851Y30997D01*
X24862Y30937D01*
X24875Y30877D01*
X24889Y30817D01*
X24904Y30758D01*
X24921Y30699D01*
X24939Y30640D01*
X24959Y30582D01*
X24980Y30524D01*
X25002Y30467D01*
X25026Y30410D01*
X25052Y30355D01*
X25078Y30299D01*
X25106Y30245D01*
X25135Y30190D01*
X25166Y30137D01*
X25197Y30085D01*
X25230Y30033D01*
X25265Y29982D01*
X25300Y29932D01*
X25337Y29883D01*
X25375Y29834D01*
X25414Y29787D01*
X25454Y29741D01*
X25495Y29695D01*
X25537Y29651D01*
X25581Y29607D01*
X25625Y29565D01*
X25671Y29524D01*
X25717Y29484D01*
X25764Y29444D01*
X25813Y29407D01*
X25862Y29370D01*
X25912Y29334D01*
X25963Y29300D01*
X26015Y29267D01*
X26067Y29235D01*
X26121Y29205D01*
X26175Y29176D01*
X26229Y29148D01*
X26285Y29121D01*
X26341Y29096D01*
X26397Y29072D01*
X26454Y29050D01*
X26512Y29029D01*
X26570Y29009D01*
X26629Y28991D01*
X26688Y28974D01*
X26747Y28959D01*
X26807Y28945D01*
X26867Y28932D01*
X26927Y28921D01*
X26988Y28912D01*
X27049Y28903D01*
X27110Y28897D01*
X27171Y28891D01*
X27232Y28888D01*
X27294Y28886D01*
X27355Y28885D01*
D12*
X16302Y13890D02*
X16303Y13915D01*
X16305Y13940D01*
X16307Y13964D01*
X16311Y13989D01*
X16315Y14013D01*
X16321Y14038D01*
X16327Y14061D01*
X16334Y14085D01*
X16343Y14108D01*
X16352Y14132D01*
X16362Y14154D01*
X16374Y14176D01*
X16386Y14198D01*
X16399Y14219D01*
X16412Y14240D01*
X16427Y14260D01*
X16442Y14279D01*
X16458Y14298D01*
X16475Y14316D01*
X16493Y14334D01*
X16511Y14351D01*
X16530Y14367D01*
X16550Y14382D01*
X16570Y14396D01*
X16591Y14410D01*
X16612Y14422D01*
X16634Y14434D01*
X16656Y14445D01*
X16679Y14455D01*
X16702Y14464D01*
X16726Y14472D01*
X16749Y14480D01*
X16773Y14486D01*
X16798Y14491D01*
X16822Y14495D01*
X16847Y14499D01*
X16871Y14501D01*
X16896Y14502D01*
X16921Y14502D01*
X16946Y14502D01*
X16971Y14500D01*
X16995Y14497D01*
X17020Y14493D01*
X17044Y14489D01*
X17068Y14483D01*
X17092Y14476D01*
X17116Y14468D01*
X17139Y14460D01*
X17162Y14450D01*
X17185Y14440D01*
X17207Y14428D01*
X17228Y14416D01*
X17249Y14403D01*
X17270Y14389D01*
X17290Y14374D01*
X17309Y14359D01*
X17328Y14342D01*
X17346Y14325D01*
X17363Y14307D01*
X17379Y14289D01*
X17395Y14270D01*
X17410Y14250D01*
X17424Y14230D01*
X17438Y14209D01*
X17450Y14187D01*
X17462Y14165D01*
X17473Y14143D01*
X17482Y14120D01*
X17491Y14097D01*
X17499Y14073D01*
X17506Y14050D01*
X17512Y14025D01*
X17517Y14001D01*
X17521Y13977D01*
X17524Y13952D01*
X17526Y13927D01*
X17527Y13902D01*
X17527Y13878D01*
X17526Y13853D01*
X17524Y13828D01*
X17521Y13803D01*
X17517Y13779D01*
X17512Y13755D01*
X17506Y13730D01*
X17499Y13707D01*
X17491Y13683D01*
X17482Y13660D01*
X17473Y13637D01*
X17462Y13615D01*
X17450Y13593D01*
X17438Y13571D01*
X17424Y13550D01*
X17410Y13530D01*
X17395Y13510D01*
X17379Y13491D01*
X17363Y13473D01*
X17346Y13455D01*
X17328Y13438D01*
X17309Y13421D01*
X17290Y13406D01*
X17270Y13391D01*
X17249Y13377D01*
X17228Y13364D01*
X17207Y13352D01*
X17185Y13340D01*
X17162Y13330D01*
X17139Y13320D01*
X17116Y13312D01*
X17092Y13304D01*
X17068Y13297D01*
X17044Y13291D01*
X17020Y13287D01*
X16995Y13283D01*
X16971Y13280D01*
X16946Y13278D01*
X16921Y13278D01*
X16896Y13278D01*
X16871Y13279D01*
X16847Y13281D01*
X16822Y13285D01*
X16798Y13289D01*
X16773Y13294D01*
X16749Y13300D01*
X16726Y13308D01*
X16702Y13316D01*
X16679Y13325D01*
X16656Y13335D01*
X16634Y13346D01*
X16612Y13358D01*
X16591Y13370D01*
X16570Y13384D01*
X16550Y13398D01*
X16530Y13413D01*
X16511Y13429D01*
X16493Y13446D01*
X16475Y13464D01*
X16458Y13482D01*
X16442Y13501D01*
X16427Y13520D01*
X16412Y13540D01*
X16399Y13561D01*
X16386Y13582D01*
X16374Y13604D01*
X16362Y13626D01*
X16352Y13648D01*
X16343Y13672D01*
X16334Y13695D01*
X16327Y13719D01*
X16321Y13742D01*
X16315Y13767D01*
X16311Y13791D01*
X16307Y13816D01*
X16305Y13840D01*
X16303Y13865D01*
X16302Y13890D01*
X54753Y13890D02*
X54753Y13914D01*
X54755Y13938D01*
X54757Y13961D01*
X54761Y13985D01*
X54765Y14009D01*
X54771Y14032D01*
X54777Y14055D01*
X54785Y14077D01*
X54793Y14100D01*
X54803Y14122D01*
X54813Y14143D01*
X54824Y14164D01*
X54836Y14185D01*
X54849Y14205D01*
X54863Y14225D01*
X54877Y14244D01*
X54893Y14262D01*
X54909Y14279D01*
X54926Y14296D01*
X54944Y14312D01*
X54962Y14328D01*
X54981Y14342D01*
X55000Y14356D01*
X55020Y14369D01*
X55041Y14381D01*
X55062Y14392D01*
X55083Y14403D01*
X55105Y14412D01*
X55128Y14420D01*
X55150Y14428D01*
X55173Y14435D01*
X55196Y14440D01*
X55220Y14444D01*
X55244Y14448D01*
X55267Y14451D01*
X55291Y14452D01*
X55315Y14453D01*
X55339Y14452D01*
X55363Y14451D01*
X55386Y14448D01*
X55410Y14444D01*
X55434Y14440D01*
X55457Y14435D01*
X55480Y14428D01*
X55503Y14420D01*
X55525Y14412D01*
X55547Y14403D01*
X55568Y14392D01*
X55589Y14381D01*
X55610Y14369D01*
X55630Y14356D01*
X55650Y14342D01*
X55669Y14328D01*
X55687Y14312D01*
X55704Y14296D01*
X55721Y14279D01*
X55738Y14262D01*
X55753Y14244D01*
X55767Y14225D01*
X55781Y14205D01*
X55794Y14185D01*
X55806Y14164D01*
X55818Y14143D01*
X55828Y14122D01*
X55837Y14100D01*
X55845Y14077D01*
X55853Y14055D01*
X55860Y14032D01*
X55865Y14009D01*
X55870Y13985D01*
X55873Y13961D01*
X55876Y13938D01*
X55877Y13914D01*
X55878Y13890D01*
X55877Y13866D01*
X55876Y13842D01*
X55873Y13819D01*
X55870Y13795D01*
X55865Y13771D01*
X55860Y13748D01*
X55853Y13725D01*
X55845Y13703D01*
X55837Y13680D01*
X55828Y13658D01*
X55818Y13637D01*
X55806Y13616D01*
X55794Y13595D01*
X55781Y13575D01*
X55767Y13555D01*
X55753Y13536D01*
X55738Y13518D01*
X55721Y13501D01*
X55704Y13484D01*
X55687Y13468D01*
X55669Y13452D01*
X55650Y13438D01*
X55630Y13424D01*
X55610Y13411D01*
X55589Y13399D01*
X55568Y13388D01*
X55547Y13377D01*
X55525Y13368D01*
X55503Y13360D01*
X55480Y13352D01*
X55457Y13345D01*
X55434Y13340D01*
X55410Y13336D01*
X55386Y13332D01*
X55363Y13329D01*
X55339Y13328D01*
X55315Y13327D01*
X55291Y13328D01*
X55267Y13329D01*
X55244Y13332D01*
X55220Y13336D01*
X55196Y13340D01*
X55173Y13345D01*
X55150Y13352D01*
X55128Y13360D01*
X55105Y13368D01*
X55083Y13377D01*
X55062Y13388D01*
X55041Y13399D01*
X55020Y13411D01*
X55000Y13424D01*
X54981Y13438D01*
X54962Y13452D01*
X54944Y13468D01*
X54926Y13484D01*
X54909Y13501D01*
X54893Y13518D01*
X54877Y13536D01*
X54863Y13555D01*
X54849Y13575D01*
X54836Y13595D01*
X54824Y13616D01*
X54813Y13637D01*
X54803Y13658D01*
X54793Y13680D01*
X54785Y13703D01*
X54777Y13725D01*
X54771Y13748D01*
X54765Y13771D01*
X54761Y13795D01*
X54757Y13819D01*
X54755Y13842D01*
X54753Y13866D01*
X54753Y13890D01*
X62535Y18335D02*
X62536Y18351D01*
X62537Y18367D01*
X62540Y18382D01*
X62543Y18398D01*
X62548Y18413D01*
X62553Y18428D01*
X62559Y18442D01*
X62567Y18456D01*
X62575Y18470D01*
X62584Y18483D01*
X62593Y18496D01*
X62604Y18507D01*
X62615Y18519D01*
X62628Y18529D01*
X62640Y18539D01*
X62653Y18547D01*
X62667Y18555D01*
X62681Y18562D01*
X62696Y18568D01*
X62711Y18574D01*
X62726Y18578D01*
X62742Y18581D01*
X62757Y18583D01*
X62773Y18585D01*
X62789Y18585D01*
X62805Y18584D01*
X62821Y18582D01*
X62836Y18580D01*
X62852Y18576D01*
X62867Y18571D01*
X62882Y18566D01*
X62896Y18559D01*
X62910Y18551D01*
X62923Y18543D01*
X62936Y18534D01*
X62949Y18524D01*
X62960Y18513D01*
X62971Y18502D01*
X62981Y18489D01*
X62991Y18477D01*
X62999Y18463D01*
X63007Y18450D01*
X63014Y18435D01*
X63020Y18421D01*
X63025Y18405D01*
X63029Y18390D01*
X63032Y18374D01*
X63034Y18359D01*
X63035Y18343D01*
X63035Y18327D01*
X63034Y18311D01*
X63032Y18296D01*
X63029Y18280D01*
X63025Y18265D01*
X63020Y18249D01*
X63014Y18235D01*
X63007Y18220D01*
X62999Y18207D01*
X62991Y18193D01*
X62981Y18181D01*
X62971Y18168D01*
X62960Y18157D01*
X62949Y18146D01*
X62936Y18136D01*
X62923Y18127D01*
X62910Y18119D01*
X62896Y18111D01*
X62882Y18104D01*
X62867Y18099D01*
X62852Y18094D01*
X62836Y18090D01*
X62821Y18088D01*
X62805Y18086D01*
X62789Y18085D01*
X62773Y18085D01*
X62757Y18087D01*
X62742Y18089D01*
X62726Y18092D01*
X62711Y18096D01*
X62696Y18102D01*
X62681Y18108D01*
X62667Y18115D01*
X62653Y18123D01*
X62640Y18131D01*
X62628Y18141D01*
X62615Y18151D01*
X62604Y18163D01*
X62593Y18174D01*
X62584Y18187D01*
X62575Y18200D01*
X62567Y18214D01*
X62559Y18228D01*
X62553Y18242D01*
X62548Y18257D01*
X62543Y18272D01*
X62540Y18288D01*
X62537Y18303D01*
X62536Y18319D01*
X62535Y18335D01*
X54703Y58340D02*
X54703Y58365D01*
X54705Y58390D01*
X54707Y58414D01*
X54711Y58439D01*
X54715Y58463D01*
X54721Y58488D01*
X54727Y58511D01*
X54735Y58535D01*
X54743Y58558D01*
X54752Y58582D01*
X54763Y58604D01*
X54774Y58626D01*
X54786Y58648D01*
X54799Y58669D01*
X54812Y58690D01*
X54827Y58710D01*
X54842Y58729D01*
X54859Y58748D01*
X54875Y58766D01*
X54893Y58784D01*
X54912Y58801D01*
X54931Y58817D01*
X54950Y58832D01*
X54970Y58846D01*
X54991Y58860D01*
X55013Y58872D01*
X55034Y58884D01*
X55057Y58895D01*
X55079Y58905D01*
X55103Y58914D01*
X55126Y58922D01*
X55150Y58930D01*
X55174Y58936D01*
X55198Y58941D01*
X55222Y58945D01*
X55247Y58949D01*
X55272Y58951D01*
X55297Y58952D01*
X55321Y58952D01*
X55346Y58952D01*
X55371Y58950D01*
X55396Y58947D01*
X55420Y58943D01*
X55444Y58939D01*
X55469Y58933D01*
X55492Y58926D01*
X55516Y58918D01*
X55539Y58910D01*
X55562Y58900D01*
X55585Y58890D01*
X55607Y58878D01*
X55629Y58866D01*
X55650Y58853D01*
X55670Y58839D01*
X55690Y58824D01*
X55709Y58809D01*
X55728Y58792D01*
X55746Y58775D01*
X55763Y58757D01*
X55780Y58739D01*
X55796Y58720D01*
X55811Y58700D01*
X55825Y58680D01*
X55838Y58659D01*
X55851Y58637D01*
X55862Y58615D01*
X55873Y58593D01*
X55883Y58570D01*
X55891Y58547D01*
X55899Y58523D01*
X55906Y58500D01*
X55912Y58475D01*
X55917Y58451D01*
X55921Y58427D01*
X55924Y58402D01*
X55926Y58377D01*
X55928Y58352D01*
X55928Y58328D01*
X55926Y58303D01*
X55924Y58278D01*
X55921Y58253D01*
X55917Y58229D01*
X55912Y58205D01*
X55906Y58180D01*
X55899Y58157D01*
X55891Y58133D01*
X55883Y58110D01*
X55873Y58087D01*
X55862Y58065D01*
X55851Y58043D01*
X55838Y58021D01*
X55825Y58000D01*
X55811Y57980D01*
X55796Y57960D01*
X55780Y57941D01*
X55763Y57923D01*
X55746Y57905D01*
X55728Y57888D01*
X55709Y57871D01*
X55690Y57856D01*
X55670Y57841D01*
X55650Y57827D01*
X55629Y57814D01*
X55607Y57802D01*
X55585Y57790D01*
X55562Y57780D01*
X55539Y57770D01*
X55516Y57762D01*
X55492Y57754D01*
X55469Y57747D01*
X55444Y57741D01*
X55420Y57737D01*
X55396Y57733D01*
X55371Y57730D01*
X55346Y57728D01*
X55321Y57728D01*
X55297Y57728D01*
X55272Y57729D01*
X55247Y57731D01*
X55222Y57735D01*
X55198Y57739D01*
X55174Y57744D01*
X55150Y57750D01*
X55126Y57758D01*
X55103Y57766D01*
X55079Y57775D01*
X55057Y57785D01*
X55034Y57796D01*
X55013Y57808D01*
X54991Y57820D01*
X54970Y57834D01*
X54950Y57848D01*
X54931Y57863D01*
X54912Y57879D01*
X54893Y57896D01*
X54875Y57914D01*
X54859Y57932D01*
X54842Y57951D01*
X54827Y57970D01*
X54812Y57990D01*
X54799Y58011D01*
X54786Y58032D01*
X54774Y58054D01*
X54763Y58076D01*
X54752Y58098D01*
X54743Y58122D01*
X54735Y58145D01*
X54727Y58169D01*
X54721Y58192D01*
X54715Y58217D01*
X54711Y58241D01*
X54707Y58266D01*
X54705Y58290D01*
X54703Y58315D01*
X54703Y58340D01*
X16352Y58340D02*
X16353Y58364D01*
X16354Y58388D01*
X16357Y58411D01*
X16360Y58435D01*
X16365Y58459D01*
X16370Y58482D01*
X16377Y58505D01*
X16385Y58527D01*
X16393Y58550D01*
X16402Y58572D01*
X16412Y58593D01*
X16424Y58614D01*
X16436Y58635D01*
X16449Y58655D01*
X16463Y58675D01*
X16477Y58694D01*
X16492Y58712D01*
X16509Y58729D01*
X16526Y58746D01*
X16543Y58762D01*
X16561Y58778D01*
X16580Y58792D01*
X16600Y58806D01*
X16620Y58819D01*
X16641Y58831D01*
X16662Y58842D01*
X16683Y58853D01*
X16705Y58862D01*
X16727Y58870D01*
X16750Y58878D01*
X16773Y58885D01*
X16796Y58890D01*
X16820Y58894D01*
X16844Y58898D01*
X16867Y58901D01*
X16891Y58902D01*
X16915Y58903D01*
X16939Y58902D01*
X16963Y58901D01*
X16986Y58898D01*
X17010Y58894D01*
X17034Y58890D01*
X17057Y58885D01*
X17080Y58878D01*
X17102Y58870D01*
X17125Y58862D01*
X17147Y58853D01*
X17168Y58842D01*
X17189Y58831D01*
X17210Y58819D01*
X17230Y58806D01*
X17249Y58792D01*
X17268Y58778D01*
X17286Y58762D01*
X17304Y58746D01*
X17321Y58729D01*
X17337Y58712D01*
X17353Y58694D01*
X17367Y58675D01*
X17381Y58655D01*
X17394Y58635D01*
X17406Y58614D01*
X17417Y58593D01*
X17427Y58572D01*
X17437Y58550D01*
X17445Y58527D01*
X17453Y58505D01*
X17459Y58482D01*
X17465Y58459D01*
X17469Y58435D01*
X17473Y58411D01*
X17475Y58388D01*
X17477Y58364D01*
X17477Y58340D01*
X17477Y58316D01*
X17475Y58292D01*
X17473Y58269D01*
X17469Y58245D01*
X17465Y58221D01*
X17459Y58198D01*
X17453Y58175D01*
X17445Y58153D01*
X17437Y58130D01*
X17427Y58108D01*
X17417Y58087D01*
X17406Y58066D01*
X17394Y58045D01*
X17381Y58025D01*
X17367Y58005D01*
X17353Y57986D01*
X17337Y57968D01*
X17321Y57951D01*
X17304Y57934D01*
X17286Y57918D01*
X17268Y57902D01*
X17249Y57888D01*
X17230Y57874D01*
X17210Y57861D01*
X17189Y57849D01*
X17168Y57838D01*
X17147Y57827D01*
X17125Y57818D01*
X17102Y57810D01*
X17080Y57802D01*
X17057Y57795D01*
X17034Y57790D01*
X17010Y57786D01*
X16986Y57782D01*
X16963Y57779D01*
X16939Y57778D01*
X16915Y57777D01*
X16891Y57778D01*
X16867Y57779D01*
X16844Y57782D01*
X16820Y57786D01*
X16796Y57790D01*
X16773Y57795D01*
X16750Y57802D01*
X16727Y57810D01*
X16705Y57818D01*
X16683Y57827D01*
X16662Y57838D01*
X16641Y57849D01*
X16620Y57861D01*
X16600Y57874D01*
X16580Y57888D01*
X16561Y57902D01*
X16543Y57918D01*
X16526Y57934D01*
X16509Y57951D01*
X16492Y57968D01*
X16477Y57986D01*
X16463Y58005D01*
X16449Y58025D01*
X16436Y58045D01*
X16424Y58066D01*
X16412Y58087D01*
X16402Y58108D01*
X16393Y58130D01*
X16385Y58153D01*
X16377Y58175D01*
X16370Y58198D01*
X16365Y58221D01*
X16360Y58245D01*
X16357Y58269D01*
X16354Y58292D01*
X16353Y58316D01*
X16352Y58340D01*
X9195Y53895D02*
X9196Y53911D01*
X9197Y53927D01*
X9200Y53942D01*
X9203Y53958D01*
X9208Y53973D01*
X9213Y53988D01*
X9219Y54002D01*
X9227Y54016D01*
X9235Y54030D01*
X9244Y54043D01*
X9253Y54056D01*
X9264Y54067D01*
X9275Y54079D01*
X9288Y54089D01*
X9300Y54099D01*
X9313Y54107D01*
X9327Y54115D01*
X9341Y54122D01*
X9356Y54128D01*
X9371Y54134D01*
X9386Y54138D01*
X9402Y54141D01*
X9417Y54143D01*
X9433Y54145D01*
X9449Y54145D01*
X9465Y54144D01*
X9481Y54142D01*
X9496Y54140D01*
X9512Y54136D01*
X9527Y54131D01*
X9542Y54126D01*
X9556Y54119D01*
X9570Y54111D01*
X9583Y54103D01*
X9596Y54094D01*
X9609Y54084D01*
X9620Y54073D01*
X9631Y54062D01*
X9641Y54049D01*
X9651Y54037D01*
X9659Y54023D01*
X9667Y54010D01*
X9674Y53995D01*
X9680Y53981D01*
X9685Y53965D01*
X9689Y53950D01*
X9692Y53934D01*
X9694Y53919D01*
X9695Y53903D01*
X9695Y53887D01*
X9694Y53871D01*
X9692Y53856D01*
X9689Y53840D01*
X9685Y53825D01*
X9680Y53809D01*
X9674Y53795D01*
X9667Y53780D01*
X9659Y53767D01*
X9651Y53753D01*
X9641Y53741D01*
X9631Y53728D01*
X9620Y53717D01*
X9609Y53706D01*
X9596Y53696D01*
X9583Y53687D01*
X9570Y53679D01*
X9556Y53671D01*
X9542Y53664D01*
X9527Y53659D01*
X9512Y53654D01*
X9496Y53650D01*
X9481Y53648D01*
X9465Y53646D01*
X9449Y53645D01*
X9433Y53645D01*
X9417Y53647D01*
X9402Y53649D01*
X9386Y53652D01*
X9371Y53656D01*
X9356Y53662D01*
X9341Y53668D01*
X9327Y53675D01*
X9313Y53683D01*
X9300Y53691D01*
X9288Y53701D01*
X9275Y53711D01*
X9264Y53723D01*
X9253Y53734D01*
X9244Y53747D01*
X9235Y53760D01*
X9227Y53774D01*
X9219Y53788D01*
X9213Y53802D01*
X9208Y53817D01*
X9203Y53832D01*
X9200Y53848D01*
X9197Y53863D01*
X9196Y53879D01*
X9195Y53895D01*
G75*
%LPD*%
D14*
X75992Y13890D02*
X75993Y13915D01*
X75995Y13940D01*
X75997Y13964D01*
X76001Y13989D01*
X76005Y14013D01*
X76011Y14038D01*
X76017Y14061D01*
X76024Y14085D01*
X76033Y14108D01*
X76042Y14132D01*
X76052Y14154D01*
X76064Y14176D01*
X76076Y14198D01*
X76089Y14219D01*
X76102Y14240D01*
X76117Y14260D01*
X76132Y14279D01*
X76148Y14298D01*
X76165Y14316D01*
X76183Y14334D01*
X76201Y14351D01*
X76220Y14367D01*
X76240Y14382D01*
X76260Y14396D01*
X76281Y14410D01*
X76302Y14422D01*
X76324Y14434D01*
X76346Y14445D01*
X76369Y14455D01*
X76392Y14464D01*
X76416Y14472D01*
X76439Y14480D01*
X76463Y14486D01*
X76488Y14491D01*
X76512Y14495D01*
X76537Y14499D01*
X76561Y14501D01*
X76586Y14502D01*
X76611Y14502D01*
X76636Y14502D01*
X76661Y14500D01*
X76685Y14497D01*
X76710Y14493D01*
X76734Y14489D01*
X76758Y14483D01*
X76782Y14476D01*
X76806Y14468D01*
X76829Y14460D01*
X76852Y14450D01*
X76875Y14440D01*
X76897Y14428D01*
X76918Y14416D01*
X76939Y14403D01*
X76960Y14389D01*
X76980Y14374D01*
X76999Y14359D01*
X77018Y14342D01*
X77036Y14325D01*
X77053Y14307D01*
X77069Y14289D01*
X77085Y14270D01*
X77100Y14250D01*
X77114Y14230D01*
X77128Y14209D01*
X77140Y14187D01*
X77152Y14165D01*
X77163Y14143D01*
X77172Y14120D01*
X77181Y14097D01*
X77189Y14073D01*
X77196Y14050D01*
X77202Y14025D01*
X77207Y14001D01*
X77211Y13977D01*
X77214Y13952D01*
X77216Y13927D01*
X77217Y13902D01*
X77217Y13878D01*
X77216Y13853D01*
X77214Y13828D01*
X77211Y13803D01*
X77207Y13779D01*
X77202Y13755D01*
X77196Y13730D01*
X77189Y13707D01*
X77181Y13683D01*
X77172Y13660D01*
X77163Y13637D01*
X77152Y13615D01*
X77140Y13593D01*
X77128Y13571D01*
X77114Y13550D01*
X77100Y13530D01*
X77085Y13510D01*
X77069Y13491D01*
X77053Y13473D01*
X77036Y13455D01*
X77018Y13438D01*
X76999Y13421D01*
X76980Y13406D01*
X76960Y13391D01*
X76939Y13377D01*
X76918Y13364D01*
X76897Y13352D01*
X76875Y13340D01*
X76852Y13330D01*
X76829Y13320D01*
X76806Y13312D01*
X76782Y13304D01*
X76758Y13297D01*
X76734Y13291D01*
X76710Y13287D01*
X76685Y13283D01*
X76661Y13280D01*
X76636Y13278D01*
X76611Y13278D01*
X76586Y13278D01*
X76561Y13279D01*
X76537Y13281D01*
X76512Y13285D01*
X76488Y13289D01*
X76463Y13294D01*
X76439Y13300D01*
X76416Y13308D01*
X76392Y13316D01*
X76369Y13325D01*
X76346Y13335D01*
X76324Y13346D01*
X76302Y13358D01*
X76281Y13370D01*
X76260Y13384D01*
X76240Y13398D01*
X76220Y13413D01*
X76201Y13429D01*
X76183Y13446D01*
X76165Y13464D01*
X76148Y13482D01*
X76132Y13501D01*
X76117Y13520D01*
X76102Y13540D01*
X76089Y13561D01*
X76076Y13582D01*
X76064Y13604D01*
X76052Y13626D01*
X76042Y13648D01*
X76033Y13672D01*
X76024Y13695D01*
X76017Y13719D01*
X76011Y13742D01*
X76005Y13767D01*
X76001Y13791D01*
X75997Y13816D01*
X75995Y13840D01*
X75993Y13865D01*
X75992Y13890D01*
X73017Y19915D02*
X73018Y19939D01*
X73019Y19963D01*
X73022Y19986D01*
X73026Y20010D01*
X73030Y20033D01*
X73035Y20057D01*
X73042Y20080D01*
X73050Y20102D01*
X73058Y20125D01*
X73067Y20147D01*
X73078Y20168D01*
X73089Y20189D01*
X73101Y20210D01*
X73114Y20230D01*
X73128Y20249D01*
X73142Y20268D01*
X73158Y20286D01*
X73174Y20304D01*
X73191Y20321D01*
X73208Y20337D01*
X73226Y20353D01*
X73245Y20367D01*
X73265Y20381D01*
X73285Y20394D01*
X73306Y20406D01*
X73327Y20417D01*
X73348Y20427D01*
X73370Y20437D01*
X73393Y20445D01*
X73415Y20453D01*
X73438Y20459D01*
X73461Y20465D01*
X73485Y20469D01*
X73509Y20473D01*
X73532Y20475D01*
X73556Y20477D01*
X73580Y20477D01*
X73604Y20477D01*
X73628Y20475D01*
X73651Y20473D01*
X73675Y20469D01*
X73699Y20465D01*
X73722Y20459D01*
X73745Y20453D01*
X73767Y20445D01*
X73790Y20437D01*
X73812Y20427D01*
X73833Y20417D01*
X73854Y20406D01*
X73875Y20394D01*
X73895Y20381D01*
X73915Y20367D01*
X73934Y20353D01*
X73952Y20337D01*
X73969Y20321D01*
X73986Y20304D01*
X74002Y20286D01*
X74018Y20268D01*
X74032Y20249D01*
X74046Y20230D01*
X74059Y20210D01*
X74071Y20189D01*
X74082Y20168D01*
X74093Y20147D01*
X74102Y20125D01*
X74110Y20102D01*
X74118Y20080D01*
X74125Y20057D01*
X74130Y20033D01*
X74134Y20010D01*
X74138Y19986D01*
X74141Y19963D01*
X74142Y19939D01*
X74143Y19915D01*
X74142Y19891D01*
X74141Y19867D01*
X74138Y19844D01*
X74134Y19820D01*
X74130Y19796D01*
X74125Y19773D01*
X74118Y19750D01*
X74110Y19727D01*
X74102Y19705D01*
X74093Y19683D01*
X74082Y19662D01*
X74071Y19641D01*
X74059Y19620D01*
X74046Y19600D01*
X74032Y19580D01*
X74018Y19561D01*
X74002Y19543D01*
X73986Y19525D01*
X73969Y19509D01*
X73952Y19492D01*
X73934Y19477D01*
X73915Y19463D01*
X73895Y19449D01*
X73875Y19436D01*
X73854Y19424D01*
X73833Y19412D01*
X73812Y19402D01*
X73790Y19393D01*
X73767Y19385D01*
X73745Y19377D01*
X73722Y19370D01*
X73699Y19365D01*
X73675Y19360D01*
X73651Y19357D01*
X73628Y19354D01*
X73604Y19353D01*
X73580Y19352D01*
X73556Y19353D01*
X73532Y19354D01*
X73509Y19357D01*
X73485Y19360D01*
X73461Y19365D01*
X73438Y19370D01*
X73415Y19377D01*
X73393Y19385D01*
X73370Y19393D01*
X73348Y19402D01*
X73327Y19412D01*
X73306Y19424D01*
X73285Y19436D01*
X73265Y19449D01*
X73245Y19463D01*
X73226Y19477D01*
X73208Y19492D01*
X73191Y19509D01*
X73174Y19525D01*
X73158Y19543D01*
X73142Y19561D01*
X73128Y19580D01*
X73114Y19600D01*
X73101Y19620D01*
X73089Y19641D01*
X73078Y19662D01*
X73067Y19683D01*
X73058Y19705D01*
X73050Y19727D01*
X73042Y19750D01*
X73035Y19773D01*
X73030Y19796D01*
X73026Y19820D01*
X73022Y19844D01*
X73019Y19867D01*
X73018Y19891D01*
X73017Y19915D01*
X72968Y52315D02*
X72968Y52340D01*
X72970Y52365D01*
X72972Y52389D01*
X72976Y52414D01*
X72980Y52438D01*
X72986Y52463D01*
X72992Y52487D01*
X73000Y52510D01*
X73008Y52534D01*
X73017Y52557D01*
X73028Y52579D01*
X73039Y52601D01*
X73051Y52623D01*
X73064Y52644D01*
X73077Y52665D01*
X73092Y52685D01*
X73107Y52705D01*
X73124Y52723D01*
X73140Y52742D01*
X73158Y52759D01*
X73176Y52776D01*
X73195Y52792D01*
X73215Y52807D01*
X73235Y52821D01*
X73256Y52835D01*
X73277Y52848D01*
X73299Y52859D01*
X73321Y52870D01*
X73344Y52880D01*
X73367Y52889D01*
X73391Y52898D01*
X73414Y52905D01*
X73439Y52911D01*
X73463Y52916D01*
X73487Y52920D01*
X73512Y52924D01*
X73537Y52926D01*
X73561Y52927D01*
X73586Y52928D01*
X73611Y52927D01*
X73636Y52925D01*
X73661Y52922D01*
X73685Y52918D01*
X73709Y52914D01*
X73733Y52908D01*
X73757Y52901D01*
X73781Y52893D01*
X73804Y52885D01*
X73827Y52875D01*
X73850Y52865D01*
X73872Y52854D01*
X73893Y52841D01*
X73915Y52828D01*
X73935Y52814D01*
X73955Y52799D01*
X73974Y52784D01*
X73993Y52767D01*
X74011Y52750D01*
X74028Y52732D01*
X74045Y52714D01*
X74061Y52695D01*
X74076Y52675D01*
X74090Y52655D01*
X74103Y52634D01*
X74115Y52612D01*
X74127Y52590D01*
X74138Y52568D01*
X74147Y52545D01*
X74156Y52522D01*
X74164Y52499D01*
X74171Y52475D01*
X74177Y52451D01*
X74182Y52426D01*
X74186Y52402D01*
X74189Y52377D01*
X74191Y52352D01*
X74192Y52328D01*
X74192Y52303D01*
X74191Y52278D01*
X74189Y52253D01*
X74186Y52229D01*
X74182Y52204D01*
X74177Y52180D01*
X74171Y52156D01*
X74164Y52132D01*
X74156Y52108D01*
X74147Y52085D01*
X74138Y52062D01*
X74127Y52040D01*
X74115Y52018D01*
X74103Y51996D01*
X74090Y51976D01*
X74076Y51955D01*
X74061Y51935D01*
X74045Y51916D01*
X74028Y51898D01*
X74011Y51880D01*
X73993Y51863D01*
X73974Y51846D01*
X73955Y51831D01*
X73935Y51816D01*
X73915Y51802D01*
X73893Y51789D01*
X73872Y51777D01*
X73850Y51765D01*
X73827Y51755D01*
X73804Y51745D01*
X73781Y51737D01*
X73757Y51729D01*
X73733Y51722D01*
X73709Y51716D01*
X73685Y51712D01*
X73661Y51708D01*
X73636Y51705D01*
X73611Y51703D01*
X73586Y51703D01*
X73561Y51703D01*
X73537Y51704D01*
X73512Y51707D01*
X73487Y51710D01*
X73463Y51714D01*
X73439Y51719D01*
X73414Y51726D01*
X73391Y51733D01*
X73367Y51741D01*
X73344Y51750D01*
X73321Y51760D01*
X73299Y51771D01*
X73277Y51783D01*
X73256Y51795D01*
X73235Y51809D01*
X73215Y51823D01*
X73195Y51839D01*
X73176Y51855D01*
X73158Y51871D01*
X73140Y51889D01*
X73124Y51907D01*
X73107Y51926D01*
X73092Y51945D01*
X73077Y51965D01*
X73064Y51986D01*
X73051Y52007D01*
X73039Y52029D01*
X73028Y52051D01*
X73017Y52074D01*
X73008Y52097D01*
X73000Y52120D01*
X72992Y52144D01*
X72986Y52168D01*
X72980Y52192D01*
X72976Y52216D01*
X72972Y52241D01*
X72970Y52266D01*
X72968Y52290D01*
X72968Y52315D01*
X76042Y58340D02*
X76043Y58364D01*
X76044Y58388D01*
X76047Y58411D01*
X76050Y58435D01*
X76055Y58459D01*
X76060Y58482D01*
X76067Y58505D01*
X76075Y58527D01*
X76083Y58550D01*
X76092Y58572D01*
X76102Y58593D01*
X76114Y58614D01*
X76126Y58635D01*
X76139Y58655D01*
X76153Y58675D01*
X76167Y58694D01*
X76182Y58712D01*
X76199Y58729D01*
X76216Y58746D01*
X76233Y58762D01*
X76251Y58778D01*
X76270Y58792D01*
X76290Y58806D01*
X76310Y58819D01*
X76331Y58831D01*
X76352Y58842D01*
X76373Y58853D01*
X76395Y58862D01*
X76417Y58870D01*
X76440Y58878D01*
X76463Y58885D01*
X76486Y58890D01*
X76510Y58894D01*
X76534Y58898D01*
X76557Y58901D01*
X76581Y58902D01*
X76605Y58903D01*
X76629Y58902D01*
X76653Y58901D01*
X76676Y58898D01*
X76700Y58894D01*
X76724Y58890D01*
X76747Y58885D01*
X76770Y58878D01*
X76792Y58870D01*
X76815Y58862D01*
X76837Y58853D01*
X76858Y58842D01*
X76879Y58831D01*
X76900Y58819D01*
X76920Y58806D01*
X76939Y58792D01*
X76958Y58778D01*
X76976Y58762D01*
X76994Y58746D01*
X77011Y58729D01*
X77027Y58712D01*
X77043Y58694D01*
X77057Y58675D01*
X77071Y58655D01*
X77084Y58635D01*
X77096Y58614D01*
X77107Y58593D01*
X77117Y58572D01*
X77127Y58550D01*
X77135Y58527D01*
X77143Y58505D01*
X77149Y58482D01*
X77155Y58459D01*
X77159Y58435D01*
X77163Y58411D01*
X77165Y58388D01*
X77167Y58364D01*
X77167Y58340D01*
X77167Y58316D01*
X77165Y58292D01*
X77163Y58269D01*
X77159Y58245D01*
X77155Y58221D01*
X77149Y58198D01*
X77143Y58175D01*
X77135Y58153D01*
X77127Y58130D01*
X77117Y58108D01*
X77107Y58087D01*
X77096Y58066D01*
X77084Y58045D01*
X77071Y58025D01*
X77057Y58005D01*
X77043Y57986D01*
X77027Y57968D01*
X77011Y57951D01*
X76994Y57934D01*
X76976Y57918D01*
X76958Y57902D01*
X76939Y57888D01*
X76920Y57874D01*
X76900Y57861D01*
X76879Y57849D01*
X76858Y57838D01*
X76837Y57827D01*
X76815Y57818D01*
X76792Y57810D01*
X76770Y57802D01*
X76747Y57795D01*
X76724Y57790D01*
X76700Y57786D01*
X76676Y57782D01*
X76653Y57779D01*
X76629Y57778D01*
X76605Y57777D01*
X76581Y57778D01*
X76557Y57779D01*
X76534Y57782D01*
X76510Y57786D01*
X76486Y57790D01*
X76463Y57795D01*
X76440Y57802D01*
X76417Y57810D01*
X76395Y57818D01*
X76373Y57827D01*
X76352Y57838D01*
X76331Y57849D01*
X76310Y57861D01*
X76290Y57874D01*
X76270Y57888D01*
X76251Y57902D01*
X76233Y57918D01*
X76216Y57934D01*
X76199Y57951D01*
X76182Y57968D01*
X76167Y57986D01*
X76153Y58005D01*
X76139Y58025D01*
X76126Y58045D01*
X76114Y58066D01*
X76102Y58087D01*
X76092Y58108D01*
X76083Y58130D01*
X76075Y58153D01*
X76067Y58175D01*
X76060Y58198D01*
X76055Y58221D01*
X76050Y58245D01*
X76047Y58269D01*
X76044Y58292D01*
X76043Y58316D01*
X76042Y58340D01*
X114393Y58340D02*
X114393Y58365D01*
X114395Y58390D01*
X114397Y58414D01*
X114401Y58439D01*
X114405Y58463D01*
X114411Y58488D01*
X114417Y58511D01*
X114425Y58535D01*
X114433Y58558D01*
X114442Y58582D01*
X114453Y58604D01*
X114464Y58626D01*
X114476Y58648D01*
X114489Y58669D01*
X114502Y58690D01*
X114517Y58710D01*
X114532Y58729D01*
X114549Y58748D01*
X114565Y58766D01*
X114583Y58784D01*
X114602Y58801D01*
X114621Y58817D01*
X114640Y58832D01*
X114660Y58846D01*
X114681Y58860D01*
X114703Y58872D01*
X114724Y58884D01*
X114747Y58895D01*
X114769Y58905D01*
X114793Y58914D01*
X114816Y58922D01*
X114840Y58930D01*
X114864Y58936D01*
X114888Y58941D01*
X114912Y58945D01*
X114937Y58949D01*
X114962Y58951D01*
X114987Y58952D01*
X115011Y58952D01*
X115036Y58952D01*
X115061Y58950D01*
X115086Y58947D01*
X115110Y58943D01*
X115134Y58939D01*
X115159Y58933D01*
X115182Y58926D01*
X115206Y58918D01*
X115229Y58910D01*
X115252Y58900D01*
X115275Y58890D01*
X115297Y58878D01*
X115319Y58866D01*
X115340Y58853D01*
X115360Y58839D01*
X115380Y58824D01*
X115399Y58809D01*
X115418Y58792D01*
X115436Y58775D01*
X115453Y58757D01*
X115470Y58739D01*
X115486Y58720D01*
X115501Y58700D01*
X115515Y58680D01*
X115528Y58659D01*
X115541Y58637D01*
X115552Y58615D01*
X115563Y58593D01*
X115573Y58570D01*
X115581Y58547D01*
X115589Y58523D01*
X115596Y58500D01*
X115602Y58475D01*
X115607Y58451D01*
X115611Y58427D01*
X115614Y58402D01*
X115616Y58377D01*
X115618Y58352D01*
X115618Y58328D01*
X115616Y58303D01*
X115614Y58278D01*
X115611Y58253D01*
X115607Y58229D01*
X115602Y58205D01*
X115596Y58180D01*
X115589Y58157D01*
X115581Y58133D01*
X115573Y58110D01*
X115563Y58087D01*
X115552Y58065D01*
X115541Y58043D01*
X115528Y58021D01*
X115515Y58000D01*
X115501Y57980D01*
X115486Y57960D01*
X115470Y57941D01*
X115453Y57923D01*
X115436Y57905D01*
X115418Y57888D01*
X115399Y57871D01*
X115380Y57856D01*
X115360Y57841D01*
X115340Y57827D01*
X115319Y57814D01*
X115297Y57802D01*
X115275Y57790D01*
X115252Y57780D01*
X115229Y57770D01*
X115206Y57762D01*
X115182Y57754D01*
X115159Y57747D01*
X115134Y57741D01*
X115110Y57737D01*
X115086Y57733D01*
X115061Y57730D01*
X115036Y57728D01*
X115011Y57728D01*
X114987Y57728D01*
X114962Y57729D01*
X114937Y57731D01*
X114912Y57735D01*
X114888Y57739D01*
X114864Y57744D01*
X114840Y57750D01*
X114816Y57758D01*
X114793Y57766D01*
X114769Y57775D01*
X114747Y57785D01*
X114724Y57796D01*
X114703Y57808D01*
X114681Y57820D01*
X114660Y57834D01*
X114640Y57848D01*
X114621Y57863D01*
X114602Y57879D01*
X114583Y57896D01*
X114565Y57914D01*
X114549Y57932D01*
X114532Y57951D01*
X114517Y57970D01*
X114502Y57990D01*
X114489Y58011D01*
X114476Y58032D01*
X114464Y58054D01*
X114453Y58076D01*
X114442Y58098D01*
X114433Y58122D01*
X114425Y58145D01*
X114417Y58169D01*
X114411Y58192D01*
X114405Y58217D01*
X114401Y58241D01*
X114397Y58266D01*
X114395Y58290D01*
X114393Y58315D01*
X114393Y58340D01*
X117467Y52315D02*
X117468Y52339D01*
X117469Y52363D01*
X117472Y52386D01*
X117476Y52410D01*
X117480Y52434D01*
X117485Y52457D01*
X117492Y52480D01*
X117500Y52503D01*
X117508Y52525D01*
X117517Y52547D01*
X117528Y52568D01*
X117539Y52589D01*
X117551Y52610D01*
X117564Y52630D01*
X117578Y52650D01*
X117592Y52669D01*
X117608Y52687D01*
X117624Y52705D01*
X117641Y52721D01*
X117658Y52738D01*
X117676Y52753D01*
X117695Y52767D01*
X117715Y52781D01*
X117735Y52794D01*
X117756Y52806D01*
X117777Y52818D01*
X117798Y52828D01*
X117820Y52837D01*
X117843Y52845D01*
X117865Y52853D01*
X117888Y52860D01*
X117911Y52865D01*
X117935Y52870D01*
X117959Y52873D01*
X117982Y52876D01*
X118006Y52877D01*
X118030Y52878D01*
X118054Y52877D01*
X118078Y52876D01*
X118101Y52873D01*
X118125Y52870D01*
X118149Y52865D01*
X118172Y52860D01*
X118195Y52853D01*
X118217Y52845D01*
X118240Y52837D01*
X118262Y52828D01*
X118283Y52818D01*
X118304Y52806D01*
X118325Y52794D01*
X118345Y52781D01*
X118365Y52767D01*
X118384Y52753D01*
X118402Y52738D01*
X118419Y52721D01*
X118436Y52705D01*
X118452Y52687D01*
X118468Y52669D01*
X118482Y52650D01*
X118496Y52630D01*
X118509Y52610D01*
X118521Y52589D01*
X118532Y52568D01*
X118543Y52547D01*
X118552Y52525D01*
X118560Y52503D01*
X118568Y52480D01*
X118575Y52457D01*
X118580Y52434D01*
X118584Y52410D01*
X118588Y52386D01*
X118591Y52363D01*
X118592Y52339D01*
X118593Y52315D01*
X118592Y52291D01*
X118591Y52267D01*
X118588Y52244D01*
X118584Y52220D01*
X118580Y52197D01*
X118575Y52173D01*
X118568Y52150D01*
X118560Y52128D01*
X118552Y52105D01*
X118543Y52083D01*
X118532Y52062D01*
X118521Y52041D01*
X118509Y52020D01*
X118496Y52000D01*
X118482Y51981D01*
X118468Y51962D01*
X118452Y51944D01*
X118436Y51926D01*
X118419Y51909D01*
X118402Y51893D01*
X118384Y51877D01*
X118365Y51863D01*
X118345Y51849D01*
X118325Y51836D01*
X118304Y51824D01*
X118283Y51813D01*
X118262Y51803D01*
X118240Y51793D01*
X118217Y51785D01*
X118195Y51777D01*
X118172Y51771D01*
X118149Y51765D01*
X118125Y51761D01*
X118101Y51757D01*
X118078Y51755D01*
X118054Y51753D01*
X118030Y51753D01*
X118006Y51753D01*
X117982Y51755D01*
X117959Y51757D01*
X117935Y51761D01*
X117911Y51765D01*
X117888Y51771D01*
X117865Y51777D01*
X117843Y51785D01*
X117820Y51793D01*
X117798Y51803D01*
X117777Y51813D01*
X117756Y51824D01*
X117735Y51836D01*
X117715Y51849D01*
X117695Y51863D01*
X117676Y51877D01*
X117658Y51893D01*
X117641Y51909D01*
X117624Y51926D01*
X117608Y51944D01*
X117592Y51962D01*
X117578Y51981D01*
X117564Y52000D01*
X117551Y52020D01*
X117539Y52041D01*
X117528Y52062D01*
X117517Y52083D01*
X117508Y52105D01*
X117500Y52128D01*
X117492Y52150D01*
X117485Y52173D01*
X117480Y52197D01*
X117476Y52220D01*
X117472Y52244D01*
X117469Y52267D01*
X117468Y52291D01*
X117467Y52315D01*
X117418Y19915D02*
X117418Y19940D01*
X117420Y19964D01*
X117422Y19989D01*
X117426Y20014D01*
X117430Y20038D01*
X117436Y20062D01*
X117442Y20086D01*
X117450Y20110D01*
X117458Y20133D01*
X117467Y20156D01*
X117478Y20179D01*
X117489Y20201D01*
X117501Y20223D01*
X117514Y20244D01*
X117527Y20265D01*
X117542Y20285D01*
X117557Y20304D01*
X117574Y20323D01*
X117590Y20341D01*
X117608Y20359D01*
X117626Y20375D01*
X117645Y20391D01*
X117665Y20407D01*
X117685Y20421D01*
X117706Y20435D01*
X117727Y20447D01*
X117749Y20459D01*
X117771Y20470D01*
X117794Y20480D01*
X117817Y20489D01*
X117841Y20497D01*
X117864Y20504D01*
X117889Y20511D01*
X117913Y20516D01*
X117937Y20520D01*
X117962Y20523D01*
X117987Y20526D01*
X118011Y20527D01*
X118036Y20527D01*
X118061Y20527D01*
X118086Y20525D01*
X118111Y20522D01*
X118135Y20518D01*
X118159Y20514D01*
X118183Y20508D01*
X118207Y20501D01*
X118231Y20493D01*
X118254Y20485D01*
X118277Y20475D01*
X118300Y20465D01*
X118322Y20453D01*
X118343Y20441D01*
X118365Y20428D01*
X118385Y20414D01*
X118405Y20399D01*
X118424Y20384D01*
X118443Y20367D01*
X118461Y20350D01*
X118478Y20332D01*
X118495Y20314D01*
X118511Y20295D01*
X118526Y20275D01*
X118540Y20254D01*
X118553Y20234D01*
X118565Y20212D01*
X118577Y20190D01*
X118588Y20168D01*
X118597Y20145D01*
X118606Y20122D01*
X118614Y20098D01*
X118621Y20074D01*
X118627Y20050D01*
X118632Y20026D01*
X118636Y20001D01*
X118639Y19977D01*
X118641Y19952D01*
X118642Y19927D01*
X118642Y19902D01*
X118641Y19878D01*
X118639Y19853D01*
X118636Y19828D01*
X118632Y19804D01*
X118627Y19779D01*
X118621Y19755D01*
X118614Y19731D01*
X118606Y19708D01*
X118597Y19685D01*
X118588Y19662D01*
X118577Y19640D01*
X118565Y19618D01*
X118553Y19596D01*
X118540Y19575D01*
X118526Y19555D01*
X118511Y19535D01*
X118495Y19516D01*
X118478Y19498D01*
X118461Y19480D01*
X118443Y19463D01*
X118424Y19446D01*
X118405Y19431D01*
X118385Y19416D01*
X118365Y19402D01*
X118343Y19389D01*
X118322Y19376D01*
X118300Y19365D01*
X118277Y19355D01*
X118254Y19345D01*
X118231Y19337D01*
X118207Y19329D01*
X118183Y19322D01*
X118159Y19316D01*
X118135Y19312D01*
X118111Y19308D01*
X118086Y19305D01*
X118061Y19303D01*
X118036Y19302D01*
X118011Y19303D01*
X117987Y19304D01*
X117962Y19306D01*
X117937Y19310D01*
X117913Y19314D01*
X117889Y19319D01*
X117864Y19325D01*
X117841Y19332D01*
X117817Y19341D01*
X117794Y19350D01*
X117771Y19360D01*
X117749Y19371D01*
X117727Y19382D01*
X117706Y19395D01*
X117685Y19409D01*
X117665Y19423D01*
X117645Y19438D01*
X117626Y19454D01*
X117608Y19471D01*
X117590Y19488D01*
X117574Y19507D01*
X117557Y19525D01*
X117542Y19545D01*
X117527Y19565D01*
X117514Y19586D01*
X117501Y19607D01*
X117489Y19629D01*
X117478Y19651D01*
X117467Y19673D01*
X117458Y19696D01*
X117450Y19720D01*
X117442Y19743D01*
X117436Y19767D01*
X117430Y19792D01*
X117426Y19816D01*
X117422Y19841D01*
X117420Y19865D01*
X117418Y19890D01*
X117418Y19915D01*
X114443Y13890D02*
X114443Y13914D01*
X114445Y13938D01*
X114447Y13961D01*
X114451Y13985D01*
X114455Y14009D01*
X114461Y14032D01*
X114467Y14055D01*
X114475Y14077D01*
X114483Y14100D01*
X114493Y14122D01*
X114503Y14143D01*
X114514Y14164D01*
X114526Y14185D01*
X114539Y14205D01*
X114553Y14225D01*
X114567Y14244D01*
X114583Y14262D01*
X114599Y14279D01*
X114616Y14296D01*
X114634Y14312D01*
X114652Y14328D01*
X114671Y14342D01*
X114690Y14356D01*
X114710Y14369D01*
X114731Y14381D01*
X114752Y14392D01*
X114773Y14403D01*
X114795Y14412D01*
X114818Y14420D01*
X114840Y14428D01*
X114863Y14435D01*
X114886Y14440D01*
X114910Y14444D01*
X114934Y14448D01*
X114957Y14451D01*
X114981Y14452D01*
X115005Y14453D01*
X115029Y14452D01*
X115053Y14451D01*
X115076Y14448D01*
X115100Y14444D01*
X115124Y14440D01*
X115147Y14435D01*
X115170Y14428D01*
X115193Y14420D01*
X115215Y14412D01*
X115237Y14403D01*
X115258Y14392D01*
X115279Y14381D01*
X115300Y14369D01*
X115320Y14356D01*
X115340Y14342D01*
X115359Y14328D01*
X115377Y14312D01*
X115394Y14296D01*
X115411Y14279D01*
X115428Y14262D01*
X115443Y14244D01*
X115457Y14225D01*
X115471Y14205D01*
X115484Y14185D01*
X115496Y14164D01*
X115508Y14143D01*
X115518Y14122D01*
X115527Y14100D01*
X115535Y14077D01*
X115543Y14055D01*
X115550Y14032D01*
X115555Y14009D01*
X115560Y13985D01*
X115563Y13961D01*
X115566Y13938D01*
X115567Y13914D01*
X115568Y13890D01*
X115567Y13866D01*
X115566Y13842D01*
X115563Y13819D01*
X115560Y13795D01*
X115555Y13771D01*
X115550Y13748D01*
X115543Y13725D01*
X115535Y13703D01*
X115527Y13680D01*
X115518Y13658D01*
X115508Y13637D01*
X115496Y13616D01*
X115484Y13595D01*
X115471Y13575D01*
X115457Y13555D01*
X115443Y13536D01*
X115428Y13518D01*
X115411Y13501D01*
X115394Y13484D01*
X115377Y13468D01*
X115359Y13452D01*
X115340Y13438D01*
X115320Y13424D01*
X115300Y13411D01*
X115279Y13399D01*
X115258Y13388D01*
X115237Y13377D01*
X115215Y13368D01*
X115193Y13360D01*
X115170Y13352D01*
X115147Y13345D01*
X115124Y13340D01*
X115100Y13336D01*
X115076Y13332D01*
X115053Y13329D01*
X115029Y13328D01*
X115005Y13327D01*
X114981Y13328D01*
X114957Y13329D01*
X114934Y13332D01*
X114910Y13336D01*
X114886Y13340D01*
X114863Y13345D01*
X114840Y13352D01*
X114818Y13360D01*
X114795Y13368D01*
X114773Y13377D01*
X114752Y13388D01*
X114731Y13399D01*
X114710Y13411D01*
X114690Y13424D01*
X114671Y13438D01*
X114652Y13452D01*
X114634Y13468D01*
X114616Y13484D01*
X114599Y13501D01*
X114583Y13518D01*
X114567Y13536D01*
X114553Y13555D01*
X114539Y13575D01*
X114526Y13595D01*
X114514Y13616D01*
X114503Y13637D01*
X114493Y13658D01*
X114483Y13680D01*
X114475Y13703D01*
X114467Y13725D01*
X114461Y13748D01*
X114455Y13771D01*
X114451Y13795D01*
X114447Y13819D01*
X114445Y13842D01*
X114443Y13866D01*
X114443Y13890D01*
G54D16*
G01X48190Y73055D02*
G01X48131Y72967D01*
G01X48131Y72967D02*
G01X48073Y73055D01*
G01X48015Y72967D02*
G01X48190Y72967D01*
G01X48161Y72900D02*
G01X48131Y72871D01*
G01X48131Y72871D02*
G01X48131Y72812D01*
G01X48131Y72812D02*
G01X48102Y72783D01*
G01X48102Y72783D02*
G01X48073Y72812D01*
G01X48073Y72812D02*
G01X48073Y72900D01*
G01X48161Y72900D02*
G01X48190Y72871D01*
G01X48190Y72871D02*
G01X48190Y72783D01*
G01X48190Y72716D02*
G01X48190Y72628D01*
G01X48190Y72628D02*
G01X48161Y72599D01*
G01X48161Y72599D02*
G01X48131Y72628D01*
G01X48131Y72628D02*
G01X48131Y72716D01*
G01X48102Y72716D02*
G01X48190Y72716D01*
G01X48102Y72716D02*
G01X48073Y72686D01*
G01X48073Y72686D02*
G01X48073Y72628D01*
G01X48102Y72531D02*
G01X48190Y72531D01*
G01X48190Y72473D02*
G01X48102Y72473D01*
G01X48102Y72473D02*
G01X48073Y72502D01*
G01X48073Y72502D02*
G01X48102Y72531D01*
G01X48102Y72473D02*
G01X48073Y72444D01*
G01X48073Y72444D02*
G01X48073Y72415D01*
G01X48073Y72415D02*
G01X48190Y72415D01*
G01X48373Y72475D02*
G01X48402Y72446D01*
G01X48402Y72446D02*
G01X48461Y72446D01*
G01X48461Y72446D02*
G01X48490Y72475D01*
G01X48490Y72475D02*
G01X48490Y72533D01*
G01X48490Y72533D02*
G01X48461Y72562D01*
G01X48461Y72562D02*
G01X48402Y72562D01*
G01X48402Y72562D02*
G01X48373Y72533D01*
G01X48373Y72533D02*
G01X48373Y72475D01*
G01X48402Y72378D02*
G01X48373Y72349D01*
G01X48373Y72349D02*
G01X48373Y72261D01*
G01X48315Y72261D02*
G01X48490Y72261D01*
G01X48490Y72261D02*
G01X48490Y72349D01*
G01X48490Y72349D02*
G01X48461Y72378D01*
G01X48461Y72378D02*
G01X48402Y72378D01*
G01X48615Y72270D02*
G01X48790Y72270D01*
G01X48790Y72270D02*
G01X48790Y72183D01*
G01X48790Y72183D02*
G01X48761Y72154D01*
G01X48761Y72154D02*
G01X48702Y72154D01*
G01X48702Y72154D02*
G01X48673Y72183D01*
G01X48673Y72183D02*
G01X48673Y72270D01*
G01X48702Y72338D02*
G01X48673Y72367D01*
G01X48673Y72367D02*
G01X48673Y72426D01*
G01X48673Y72426D02*
G01X48702Y72455D01*
G01X48702Y72455D02*
G01X48731Y72455D01*
G01X48731Y72455D02*
G01X48731Y72338D01*
G01X48761Y72338D02*
G01X48702Y72338D01*
G01X48761Y72338D02*
G01X48790Y72367D01*
G01X48790Y72367D02*
G01X48790Y72426D01*
G01X48790Y72522D02*
G01X48790Y72610D01*
G01X48790Y72610D02*
G01X48761Y72639D01*
G01X48761Y72639D02*
G01X48731Y72610D01*
G01X48731Y72610D02*
G01X48731Y72551D01*
G01X48731Y72551D02*
G01X48702Y72522D01*
G01X48702Y72522D02*
G01X48673Y72551D01*
G01X48673Y72551D02*
G01X48673Y72639D01*
G01X48761Y72706D02*
G01X48761Y72735D01*
G01X48761Y72735D02*
G01X48790Y72735D01*
G01X48790Y72735D02*
G01X48790Y72706D01*
G01X48790Y72706D02*
G01X48761Y72706D01*
G01X48490Y72688D02*
G01X48461Y72659D01*
G01X48461Y72659D02*
G01X48344Y72659D01*
G01X48373Y72630D02*
G01X48373Y72688D01*
G01X48402Y72752D02*
G01X48373Y72782D01*
G01X48373Y72782D02*
G01X48373Y72840D01*
G01X48373Y72840D02*
G01X48402Y72869D01*
G01X48402Y72869D02*
G01X48490Y72869D01*
G01X48490Y72752D02*
G01X48315Y72752D01*
G01X47890Y72748D02*
G01X47890Y72689D01*
G01X47890Y72689D02*
G01X47860Y72661D01*
G01X47860Y72661D02*
G01X47802Y72661D01*
G01X47802Y72661D02*
G01X47773Y72689D01*
G01X47773Y72689D02*
G01X47773Y72748D01*
G01X47773Y72748D02*
G01X47802Y72777D01*
G01X47802Y72777D02*
G01X47832Y72777D01*
G01X47832Y72777D02*
G01X47832Y72661D01*
G01X47860Y72593D02*
G01X47832Y72563D01*
G01X47832Y72563D02*
G01X47832Y72505D01*
G01X47832Y72505D02*
G01X47802Y72476D01*
G01X47802Y72476D02*
G01X47773Y72505D01*
G01X47773Y72505D02*
G01X47773Y72593D01*
G01X47860Y72593D02*
G01X47890Y72563D01*
G01X47890Y72563D02*
G01X47890Y72476D01*
G01X47890Y72409D02*
G01X47890Y72321D01*
G01X47890Y72321D02*
G01X47860Y72292D01*
G01X47860Y72292D02*
G01X47832Y72321D01*
G01X47832Y72321D02*
G01X47832Y72409D01*
G01X47802Y72409D02*
G01X47890Y72409D01*
G01X47802Y72409D02*
G01X47773Y72379D01*
G01X47773Y72379D02*
G01X47773Y72321D01*
G01X47802Y72224D02*
G01X47832Y72224D01*
G01X47832Y72224D02*
G01X47832Y72108D01*
G01X47860Y72108D02*
G01X47802Y72108D01*
G01X47802Y72108D02*
G01X47773Y72137D01*
G01X47773Y72137D02*
G01X47773Y72195D01*
G01X47773Y72195D02*
G01X47802Y72224D01*
G01X47890Y72195D02*
G01X47890Y72137D01*
G01X47890Y72137D02*
G01X47860Y72108D01*
G01X47890Y72043D02*
G01X47890Y71985D01*
G01X47890Y72014D02*
G01X47715Y72014D01*
G01X47715Y72014D02*
G01X47715Y71985D01*
G01X47744Y71918D02*
G01X47802Y71918D01*
G01X47802Y71918D02*
G01X47832Y71888D01*
G01X47832Y71888D02*
G01X47832Y71801D01*
G01X47890Y71801D02*
G01X47715Y71801D01*
G01X47715Y71801D02*
G01X47715Y71888D01*
G01X47715Y71888D02*
G01X47744Y71918D01*
G01X48073Y71891D02*
G01X48073Y71950D01*
G01X48073Y71950D02*
G01X48102Y71979D01*
G01X48102Y71979D02*
G01X48131Y71979D01*
G01X48131Y71979D02*
G01X48131Y71862D01*
G01X48161Y71862D02*
G01X48102Y71862D01*
G01X48102Y71862D02*
G01X48073Y71891D01*
G01X48161Y71862D02*
G01X48190Y71891D01*
G01X48190Y71891D02*
G01X48190Y71950D01*
G01X48190Y72047D02*
G01X48190Y72134D01*
G01X48190Y72134D02*
G01X48161Y72163D01*
G01X48161Y72163D02*
G01X48102Y72163D01*
G01X48102Y72163D02*
G01X48073Y72134D01*
G01X48073Y72134D02*
G01X48073Y72047D01*
G01X48073Y72047D02*
G01X48248Y72047D01*
G01X48373Y71981D02*
G01X48402Y72010D01*
G01X48402Y72010D02*
G01X48490Y72010D01*
G01X48586Y72060D02*
G01X48615Y72060D01*
G01X48673Y72060D02*
G01X48790Y72060D01*
G01X48790Y72031D02*
G01X48790Y72090D01*
G01X48673Y72060D02*
G01X48673Y72031D01*
G01X48673Y71964D02*
G01X48673Y71876D01*
G01X48673Y71876D02*
G01X48702Y71847D01*
G01X48702Y71847D02*
G01X48731Y71876D01*
G01X48731Y71876D02*
G01X48731Y71934D01*
G01X48731Y71934D02*
G01X48761Y71964D01*
G01X48761Y71964D02*
G01X48790Y71934D01*
G01X48790Y71934D02*
G01X48790Y71847D01*
G01X48490Y71893D02*
G01X48373Y71893D01*
G01X48373Y71893D02*
G01X48373Y71981D01*
G01X48402Y71825D02*
G01X48373Y71796D01*
G01X48373Y71796D02*
G01X48373Y71738D01*
G01X48373Y71738D02*
G01X48402Y71709D01*
G01X48402Y71709D02*
G01X48461Y71709D01*
G01X48461Y71709D02*
G01X48490Y71738D01*
G01X48490Y71738D02*
G01X48490Y71796D01*
G01X48490Y71796D02*
G01X48461Y71825D01*
G01X48461Y71825D02*
G01X48402Y71825D01*
G01X48190Y71766D02*
G01X48190Y71707D01*
G01X48190Y71707D02*
G01X48161Y71678D01*
G01X48161Y71678D02*
G01X48102Y71678D01*
G01X48102Y71678D02*
G01X48073Y71707D01*
G01X48073Y71707D02*
G01X48073Y71766D01*
G01X48073Y71766D02*
G01X48102Y71795D01*
G01X48102Y71795D02*
G01X48131Y71795D01*
G01X48131Y71795D02*
G01X48131Y71678D01*
G01X48190Y71612D02*
G01X48131Y71525D01*
G01X48131Y71525D02*
G01X48073Y71612D01*
G01X48015Y71525D02*
G01X48190Y71525D01*
G01X39640Y71847D02*
G01X39640Y71934D01*
G01X39640Y71934D02*
G01X39611Y71964D01*
G01X39611Y71964D02*
G01X39581Y71934D01*
G01X39581Y71934D02*
G01X39581Y71876D01*
G01X39581Y71876D02*
G01X39552Y71847D01*
G01X39552Y71847D02*
G01X39523Y71876D01*
G01X39523Y71876D02*
G01X39523Y71964D01*
G01X39523Y72031D02*
G01X39523Y72060D01*
G01X39523Y72060D02*
G01X39640Y72060D01*
G01X39640Y72031D02*
G01X39640Y72090D01*
G01X39611Y72154D02*
G01X39552Y72154D01*
G01X39552Y72154D02*
G01X39523Y72183D01*
G01X39523Y72183D02*
G01X39523Y72270D01*
G01X39465Y72270D02*
G01X39640Y72270D01*
G01X39640Y72270D02*
G01X39640Y72183D01*
G01X39640Y72183D02*
G01X39611Y72154D01*
G01X39465Y72060D02*
G01X39436Y72060D01*
G01X39340Y72010D02*
G01X39252Y72010D01*
G01X39252Y72010D02*
G01X39223Y71981D01*
G01X39223Y71981D02*
G01X39223Y71893D01*
G01X39223Y71893D02*
G01X39340Y71893D01*
G01X39311Y71825D02*
G01X39252Y71825D01*
G01X39252Y71825D02*
G01X39223Y71796D01*
G01X39223Y71796D02*
G01X39223Y71738D01*
G01X39223Y71738D02*
G01X39252Y71709D01*
G01X39252Y71709D02*
G01X39311Y71709D01*
G01X39311Y71709D02*
G01X39340Y71738D01*
G01X39340Y71738D02*
G01X39340Y71796D01*
G01X39340Y71796D02*
G01X39311Y71825D01*
G01X39040Y71766D02*
G01X39040Y71707D01*
G01X39040Y71707D02*
G01X39011Y71678D01*
G01X39011Y71678D02*
G01X38952Y71678D01*
G01X38952Y71678D02*
G01X38923Y71707D01*
G01X38923Y71707D02*
G01X38923Y71766D01*
G01X38923Y71766D02*
G01X38952Y71795D01*
G01X38952Y71795D02*
G01X38981Y71795D01*
G01X38981Y71795D02*
G01X38981Y71678D01*
G01X38923Y71612D02*
G01X38981Y71525D01*
G01X38981Y71525D02*
G01X39040Y71612D01*
G01X39040Y71525D02*
G01X38865Y71525D01*
G01X38740Y71801D02*
G01X38565Y71801D01*
G01X38565Y71801D02*
G01X38565Y71888D01*
G01X38565Y71888D02*
G01X38594Y71918D01*
G01X38594Y71918D02*
G01X38652Y71918D01*
G01X38652Y71918D02*
G01X38681Y71888D01*
G01X38681Y71888D02*
G01X38681Y71801D01*
G01X38740Y71985D02*
G01X38740Y72043D01*
G01X38740Y72014D02*
G01X38565Y72014D01*
G01X38565Y72014D02*
G01X38565Y71985D01*
G01X38652Y72108D02*
G01X38623Y72137D01*
G01X38623Y72137D02*
G01X38623Y72195D01*
G01X38623Y72195D02*
G01X38652Y72224D01*
G01X38652Y72224D02*
G01X38681Y72224D01*
G01X38681Y72224D02*
G01X38681Y72108D01*
G01X38711Y72108D02*
G01X38652Y72108D01*
G01X38711Y72108D02*
G01X38740Y72137D01*
G01X38740Y72137D02*
G01X38740Y72195D01*
G01X38711Y72292D02*
G01X38681Y72321D01*
G01X38681Y72321D02*
G01X38681Y72409D01*
G01X38652Y72409D02*
G01X38740Y72409D01*
G01X38740Y72409D02*
G01X38740Y72321D01*
G01X38740Y72321D02*
G01X38711Y72292D01*
G01X38623Y72321D02*
G01X38623Y72379D01*
G01X38623Y72379D02*
G01X38652Y72409D01*
G01X38652Y72476D02*
G01X38623Y72505D01*
G01X38623Y72505D02*
G01X38623Y72593D01*
G01X38681Y72563D02*
G01X38681Y72505D01*
G01X38681Y72505D02*
G01X38652Y72476D01*
G01X38740Y72476D02*
G01X38740Y72563D01*
G01X38740Y72563D02*
G01X38711Y72593D01*
G01X38711Y72593D02*
G01X38681Y72563D01*
G01X38681Y72661D02*
G01X38681Y72777D01*
G01X38681Y72777D02*
G01X38652Y72777D01*
G01X38652Y72777D02*
G01X38623Y72748D01*
G01X38623Y72748D02*
G01X38623Y72689D01*
G01X38623Y72689D02*
G01X38652Y72661D01*
G01X38652Y72661D02*
G01X38711Y72661D01*
G01X38711Y72661D02*
G01X38740Y72689D01*
G01X38740Y72689D02*
G01X38740Y72748D01*
G01X38923Y72686D02*
G01X38952Y72716D01*
G01X38952Y72716D02*
G01X39040Y72716D01*
G01X39040Y72716D02*
G01X39040Y72628D01*
G01X39040Y72628D02*
G01X39011Y72599D01*
G01X39011Y72599D02*
G01X38981Y72628D01*
G01X38981Y72628D02*
G01X38981Y72716D01*
G01X38923Y72686D02*
G01X38923Y72628D01*
G01X38952Y72531D02*
G01X39040Y72531D01*
G01X39040Y72473D02*
G01X38952Y72473D01*
G01X38952Y72473D02*
G01X38923Y72502D01*
G01X38923Y72502D02*
G01X38952Y72531D01*
G01X38952Y72473D02*
G01X38923Y72444D01*
G01X38923Y72444D02*
G01X38923Y72415D01*
G01X38923Y72415D02*
G01X39040Y72415D01*
G01X39223Y72475D02*
G01X39252Y72446D01*
G01X39252Y72446D02*
G01X39311Y72446D01*
G01X39311Y72446D02*
G01X39340Y72475D01*
G01X39340Y72475D02*
G01X39340Y72533D01*
G01X39340Y72533D02*
G01X39311Y72562D01*
G01X39311Y72562D02*
G01X39252Y72562D01*
G01X39252Y72562D02*
G01X39223Y72533D01*
G01X39223Y72533D02*
G01X39223Y72475D01*
G01X39252Y72378D02*
G01X39223Y72349D01*
G01X39223Y72349D02*
G01X39223Y72261D01*
G01X39165Y72261D02*
G01X39340Y72261D01*
G01X39340Y72261D02*
G01X39340Y72349D01*
G01X39340Y72349D02*
G01X39311Y72378D01*
G01X39311Y72378D02*
G01X39252Y72378D01*
G01X39223Y72630D02*
G01X39223Y72688D01*
G01X39194Y72659D02*
G01X39311Y72659D01*
G01X39311Y72659D02*
G01X39340Y72688D01*
G01X39340Y72752D02*
G01X39165Y72752D01*
G01X39223Y72782D02*
G01X39223Y72840D01*
G01X39223Y72840D02*
G01X39252Y72869D01*
G01X39252Y72869D02*
G01X39340Y72869D01*
G01X39252Y72752D02*
G01X39223Y72782D01*
G01X39040Y72783D02*
G01X39040Y72871D01*
G01X39040Y72871D02*
G01X39011Y72900D01*
G01X39011Y72900D02*
G01X38981Y72871D01*
G01X38981Y72871D02*
G01X38981Y72812D01*
G01X38981Y72812D02*
G01X38952Y72783D01*
G01X38952Y72783D02*
G01X38923Y72812D01*
G01X38923Y72812D02*
G01X38923Y72900D01*
G01X38981Y72967D02*
G01X38923Y73055D01*
G01X38981Y72967D02*
G01X39040Y73055D01*
G01X39040Y72967D02*
G01X38865Y72967D01*
G01X39523Y72639D02*
G01X39523Y72551D01*
G01X39523Y72551D02*
G01X39552Y72522D01*
G01X39552Y72522D02*
G01X39581Y72551D01*
G01X39581Y72551D02*
G01X39581Y72610D01*
G01X39581Y72610D02*
G01X39611Y72639D01*
G01X39611Y72639D02*
G01X39640Y72610D01*
G01X39640Y72610D02*
G01X39640Y72522D01*
G01X39581Y72455D02*
G01X39581Y72338D01*
G01X39552Y72338D02*
G01X39523Y72367D01*
G01X39523Y72367D02*
G01X39523Y72426D01*
G01X39523Y72426D02*
G01X39552Y72455D01*
G01X39552Y72455D02*
G01X39581Y72455D01*
G01X39640Y72426D02*
G01X39640Y72367D01*
G01X39640Y72367D02*
G01X39611Y72338D01*
G01X39611Y72338D02*
G01X39552Y72338D01*
G01X39611Y72706D02*
G01X39611Y72735D01*
G01X39611Y72735D02*
G01X39640Y72735D01*
G01X39640Y72735D02*
G01X39640Y72706D01*
G01X39640Y72706D02*
G01X39611Y72706D01*
G01X39040Y72134D02*
G01X39040Y72047D01*
G01X39098Y72047D02*
G01X38923Y72047D01*
G01X38923Y72047D02*
G01X38923Y72134D01*
G01X38923Y72134D02*
G01X38952Y72163D01*
G01X38952Y72163D02*
G01X39011Y72163D01*
G01X39011Y72163D02*
G01X39040Y72134D01*
G01X38981Y71979D02*
G01X38981Y71862D01*
G01X38952Y71862D02*
G01X38923Y71891D01*
G01X38923Y71891D02*
G01X38923Y71950D01*
G01X38923Y71950D02*
G01X38952Y71979D01*
G01X38952Y71979D02*
G01X38981Y71979D01*
G01X39040Y71950D02*
G01X39040Y71891D01*
G01X39040Y71891D02*
G01X39011Y71862D01*
G01X39011Y71862D02*
G01X38952Y71862D01*
G01X20215Y71847D02*
G01X20215Y71934D01*
G01X20215Y71934D02*
G01X20186Y71964D01*
G01X20186Y71964D02*
G01X20156Y71934D01*
G01X20156Y71934D02*
G01X20156Y71876D01*
G01X20156Y71876D02*
G01X20127Y71847D01*
G01X20127Y71847D02*
G01X20098Y71876D01*
G01X20098Y71876D02*
G01X20098Y71964D01*
G01X20098Y72031D02*
G01X20098Y72060D01*
G01X20098Y72060D02*
G01X20215Y72060D01*
G01X20215Y72031D02*
G01X20215Y72090D01*
G01X20186Y72154D02*
G01X20127Y72154D01*
G01X20127Y72154D02*
G01X20098Y72183D01*
G01X20098Y72183D02*
G01X20098Y72270D01*
G01X20040Y72270D02*
G01X20215Y72270D01*
G01X20215Y72270D02*
G01X20215Y72183D01*
G01X20215Y72183D02*
G01X20186Y72154D01*
G01X20040Y72060D02*
G01X20011Y72060D01*
G01X19915Y72010D02*
G01X19827Y72010D01*
G01X19827Y72010D02*
G01X19798Y71981D01*
G01X19798Y71981D02*
G01X19798Y71893D01*
G01X19798Y71893D02*
G01X19915Y71893D01*
G01X19886Y71825D02*
G01X19827Y71825D01*
G01X19827Y71825D02*
G01X19798Y71796D01*
G01X19798Y71796D02*
G01X19798Y71738D01*
G01X19798Y71738D02*
G01X19827Y71709D01*
G01X19827Y71709D02*
G01X19886Y71709D01*
G01X19886Y71709D02*
G01X19915Y71738D01*
G01X19915Y71738D02*
G01X19915Y71796D01*
G01X19915Y71796D02*
G01X19886Y71825D01*
G01X19615Y71766D02*
G01X19615Y71707D01*
G01X19615Y71707D02*
G01X19586Y71678D01*
G01X19586Y71678D02*
G01X19527Y71678D01*
G01X19527Y71678D02*
G01X19498Y71707D01*
G01X19498Y71707D02*
G01X19498Y71766D01*
G01X19498Y71766D02*
G01X19527Y71795D01*
G01X19527Y71795D02*
G01X19556Y71795D01*
G01X19556Y71795D02*
G01X19556Y71678D01*
G01X19615Y71612D02*
G01X19556Y71525D01*
G01X19556Y71525D02*
G01X19498Y71612D01*
G01X19440Y71525D02*
G01X19615Y71525D01*
G01X19586Y71862D02*
G01X19527Y71862D01*
G01X19527Y71862D02*
G01X19498Y71891D01*
G01X19498Y71891D02*
G01X19498Y71950D01*
G01X19498Y71950D02*
G01X19527Y71979D01*
G01X19527Y71979D02*
G01X19556Y71979D01*
G01X19556Y71979D02*
G01X19556Y71862D01*
G01X19586Y71862D02*
G01X19615Y71891D01*
G01X19615Y71891D02*
G01X19615Y71950D01*
G01X19615Y72047D02*
G01X19615Y72134D01*
G01X19615Y72134D02*
G01X19586Y72163D01*
G01X19586Y72163D02*
G01X19527Y72163D01*
G01X19527Y72163D02*
G01X19498Y72134D01*
G01X19498Y72134D02*
G01X19498Y72047D01*
G01X19498Y72047D02*
G01X19673Y72047D01*
G01X19740Y72261D02*
G01X19915Y72261D01*
G01X19915Y72261D02*
G01X19915Y72349D01*
G01X19915Y72349D02*
G01X19886Y72378D01*
G01X19886Y72378D02*
G01X19827Y72378D01*
G01X19827Y72378D02*
G01X19798Y72349D01*
G01X19798Y72349D02*
G01X19798Y72261D01*
G01X19827Y72446D02*
G01X19886Y72446D01*
G01X19886Y72446D02*
G01X19915Y72475D01*
G01X19915Y72475D02*
G01X19915Y72533D01*
G01X19915Y72533D02*
G01X19886Y72562D01*
G01X19886Y72562D02*
G01X19827Y72562D01*
G01X19827Y72562D02*
G01X19798Y72533D01*
G01X19798Y72533D02*
G01X19798Y72475D01*
G01X19798Y72475D02*
G01X19827Y72446D01*
G01X19798Y72630D02*
G01X19798Y72688D01*
G01X19769Y72659D02*
G01X19886Y72659D01*
G01X19886Y72659D02*
G01X19915Y72688D01*
G01X19915Y72752D02*
G01X19740Y72752D01*
G01X19798Y72782D02*
G01X19798Y72840D01*
G01X19798Y72840D02*
G01X19827Y72869D01*
G01X19827Y72869D02*
G01X19915Y72869D01*
G01X19798Y72782D02*
G01X19827Y72752D01*
G01X19615Y72783D02*
G01X19615Y72871D01*
G01X19615Y72871D02*
G01X19586Y72900D01*
G01X19586Y72900D02*
G01X19556Y72871D01*
G01X19556Y72871D02*
G01X19556Y72812D01*
G01X19556Y72812D02*
G01X19527Y72783D01*
G01X19527Y72783D02*
G01X19498Y72812D01*
G01X19498Y72812D02*
G01X19498Y72900D01*
G01X19556Y72967D02*
G01X19498Y73055D01*
G01X19556Y72967D02*
G01X19615Y73055D01*
G01X19615Y72967D02*
G01X19440Y72967D01*
G01X19315Y72748D02*
G01X19315Y72689D01*
G01X19315Y72689D02*
G01X19285Y72661D01*
G01X19285Y72661D02*
G01X19227Y72661D01*
G01X19227Y72661D02*
G01X19198Y72689D01*
G01X19198Y72689D02*
G01X19198Y72748D01*
G01X19198Y72748D02*
G01X19227Y72777D01*
G01X19227Y72777D02*
G01X19257Y72777D01*
G01X19257Y72777D02*
G01X19257Y72661D01*
G01X19285Y72593D02*
G01X19257Y72563D01*
G01X19257Y72563D02*
G01X19257Y72505D01*
G01X19257Y72505D02*
G01X19227Y72476D01*
G01X19227Y72476D02*
G01X19198Y72505D01*
G01X19198Y72505D02*
G01X19198Y72593D01*
G01X19285Y72593D02*
G01X19315Y72563D01*
G01X19315Y72563D02*
G01X19315Y72476D01*
G01X19315Y72409D02*
G01X19315Y72321D01*
G01X19315Y72321D02*
G01X19285Y72292D01*
G01X19285Y72292D02*
G01X19257Y72321D01*
G01X19257Y72321D02*
G01X19257Y72409D01*
G01X19227Y72409D02*
G01X19315Y72409D01*
G01X19227Y72409D02*
G01X19198Y72379D01*
G01X19198Y72379D02*
G01X19198Y72321D01*
G01X19227Y72224D02*
G01X19257Y72224D01*
G01X19257Y72224D02*
G01X19257Y72108D01*
G01X19285Y72108D02*
G01X19227Y72108D01*
G01X19227Y72108D02*
G01X19198Y72137D01*
G01X19198Y72137D02*
G01X19198Y72195D01*
G01X19198Y72195D02*
G01X19227Y72224D01*
G01X19315Y72195D02*
G01X19315Y72137D01*
G01X19315Y72137D02*
G01X19285Y72108D01*
G01X19315Y72043D02*
G01X19315Y71985D01*
G01X19315Y72014D02*
G01X19140Y72014D01*
G01X19140Y72014D02*
G01X19140Y71985D01*
G01X19169Y71918D02*
G01X19227Y71918D01*
G01X19227Y71918D02*
G01X19257Y71888D01*
G01X19257Y71888D02*
G01X19257Y71801D01*
G01X19315Y71801D02*
G01X19140Y71801D01*
G01X19140Y71801D02*
G01X19140Y71888D01*
G01X19140Y71888D02*
G01X19169Y71918D01*
G01X19498Y72415D02*
G01X19498Y72444D01*
G01X19498Y72444D02*
G01X19527Y72473D01*
G01X19527Y72473D02*
G01X19498Y72502D01*
G01X19498Y72502D02*
G01X19527Y72531D01*
G01X19527Y72531D02*
G01X19615Y72531D01*
G01X19615Y72473D02*
G01X19527Y72473D01*
G01X19498Y72415D02*
G01X19615Y72415D01*
G01X19586Y72599D02*
G01X19556Y72628D01*
G01X19556Y72628D02*
G01X19556Y72716D01*
G01X19527Y72716D02*
G01X19615Y72716D01*
G01X19615Y72716D02*
G01X19615Y72628D01*
G01X19615Y72628D02*
G01X19586Y72599D01*
G01X19498Y72628D02*
G01X19498Y72686D01*
G01X19498Y72686D02*
G01X19527Y72716D01*
G01X20098Y72639D02*
G01X20098Y72551D01*
G01X20098Y72551D02*
G01X20127Y72522D01*
G01X20127Y72522D02*
G01X20156Y72551D01*
G01X20156Y72551D02*
G01X20156Y72610D01*
G01X20156Y72610D02*
G01X20186Y72639D01*
G01X20186Y72639D02*
G01X20215Y72610D01*
G01X20215Y72610D02*
G01X20215Y72522D01*
G01X20156Y72455D02*
G01X20156Y72338D01*
G01X20127Y72338D02*
G01X20098Y72367D01*
G01X20098Y72367D02*
G01X20098Y72426D01*
G01X20098Y72426D02*
G01X20127Y72455D01*
G01X20127Y72455D02*
G01X20156Y72455D01*
G01X20215Y72426D02*
G01X20215Y72367D01*
G01X20215Y72367D02*
G01X20186Y72338D01*
G01X20186Y72338D02*
G01X20127Y72338D01*
G01X20186Y72706D02*
G01X20186Y72735D01*
G01X20186Y72735D02*
G01X20215Y72735D01*
G01X20215Y72735D02*
G01X20215Y72706D01*
G01X20215Y72706D02*
G01X20186Y72706D01*
G01X11065Y72735D02*
G01X11065Y72706D01*
G01X11065Y72706D02*
G01X11036Y72706D01*
G01X11036Y72706D02*
G01X11036Y72735D01*
G01X11036Y72735D02*
G01X11065Y72735D01*
G01X11036Y72639D02*
G01X11006Y72610D01*
G01X11006Y72610D02*
G01X11006Y72551D01*
G01X11006Y72551D02*
G01X10977Y72522D01*
G01X10977Y72522D02*
G01X10948Y72551D01*
G01X10948Y72551D02*
G01X10948Y72639D01*
G01X11036Y72639D02*
G01X11065Y72610D01*
G01X11065Y72610D02*
G01X11065Y72522D01*
G01X11006Y72455D02*
G01X11006Y72338D01*
G01X10977Y72338D02*
G01X10948Y72367D01*
G01X10948Y72367D02*
G01X10948Y72426D01*
G01X10948Y72426D02*
G01X10977Y72455D01*
G01X10977Y72455D02*
G01X11006Y72455D01*
G01X11065Y72426D02*
G01X11065Y72367D01*
G01X11065Y72367D02*
G01X11036Y72338D01*
G01X11036Y72338D02*
G01X10977Y72338D01*
G01X10948Y72270D02*
G01X10948Y72183D01*
G01X10948Y72183D02*
G01X10977Y72154D01*
G01X10977Y72154D02*
G01X11036Y72154D01*
G01X11036Y72154D02*
G01X11065Y72183D01*
G01X11065Y72183D02*
G01X11065Y72270D01*
G01X11065Y72270D02*
G01X10890Y72270D01*
G01X10765Y72261D02*
G01X10765Y72349D01*
G01X10765Y72349D02*
G01X10736Y72378D01*
G01X10736Y72378D02*
G01X10677Y72378D01*
G01X10677Y72378D02*
G01X10648Y72349D01*
G01X10648Y72349D02*
G01X10648Y72261D01*
G01X10590Y72261D02*
G01X10765Y72261D01*
G01X10736Y72446D02*
G01X10765Y72475D01*
G01X10765Y72475D02*
G01X10765Y72533D01*
G01X10765Y72533D02*
G01X10736Y72562D01*
G01X10736Y72562D02*
G01X10677Y72562D01*
G01X10677Y72562D02*
G01X10648Y72533D01*
G01X10648Y72533D02*
G01X10648Y72475D01*
G01X10648Y72475D02*
G01X10677Y72446D01*
G01X10677Y72446D02*
G01X10736Y72446D01*
G01X10648Y72630D02*
G01X10648Y72688D01*
G01X10619Y72659D02*
G01X10736Y72659D01*
G01X10736Y72659D02*
G01X10765Y72688D01*
G01X10765Y72752D02*
G01X10590Y72752D01*
G01X10648Y72782D02*
G01X10648Y72840D01*
G01X10648Y72840D02*
G01X10677Y72869D01*
G01X10677Y72869D02*
G01X10765Y72869D01*
G01X10677Y72752D02*
G01X10648Y72782D01*
G01X10465Y72783D02*
G01X10465Y72871D01*
G01X10465Y72871D02*
G01X10436Y72900D01*
G01X10436Y72900D02*
G01X10406Y72871D01*
G01X10406Y72871D02*
G01X10406Y72812D01*
G01X10406Y72812D02*
G01X10377Y72783D01*
G01X10377Y72783D02*
G01X10348Y72812D01*
G01X10348Y72812D02*
G01X10348Y72900D01*
G01X10406Y72967D02*
G01X10348Y73055D01*
G01X10406Y72967D02*
G01X10465Y73055D01*
G01X10465Y72967D02*
G01X10290Y72967D01*
G01X10165Y72748D02*
G01X10165Y72689D01*
G01X10165Y72689D02*
G01X10136Y72661D01*
G01X10136Y72661D02*
G01X10077Y72661D01*
G01X10077Y72661D02*
G01X10048Y72689D01*
G01X10048Y72689D02*
G01X10048Y72748D01*
G01X10048Y72748D02*
G01X10077Y72777D01*
G01X10077Y72777D02*
G01X10106Y72777D01*
G01X10106Y72777D02*
G01X10106Y72661D01*
G01X10136Y72593D02*
G01X10106Y72563D01*
G01X10106Y72563D02*
G01X10106Y72505D01*
G01X10106Y72505D02*
G01X10077Y72476D01*
G01X10077Y72476D02*
G01X10048Y72505D01*
G01X10048Y72505D02*
G01X10048Y72593D01*
G01X10136Y72593D02*
G01X10165Y72563D01*
G01X10165Y72563D02*
G01X10165Y72476D01*
G01X10165Y72409D02*
G01X10165Y72321D01*
G01X10165Y72321D02*
G01X10136Y72292D01*
G01X10136Y72292D02*
G01X10106Y72321D01*
G01X10106Y72321D02*
G01X10106Y72409D01*
G01X10077Y72409D02*
G01X10165Y72409D01*
G01X10077Y72409D02*
G01X10048Y72379D01*
G01X10048Y72379D02*
G01X10048Y72321D01*
G01X10077Y72224D02*
G01X10106Y72224D01*
G01X10106Y72224D02*
G01X10106Y72108D01*
G01X10077Y72108D02*
G01X10048Y72137D01*
G01X10048Y72137D02*
G01X10048Y72195D01*
G01X10048Y72195D02*
G01X10077Y72224D01*
G01X10165Y72195D02*
G01X10165Y72137D01*
G01X10165Y72137D02*
G01X10136Y72108D01*
G01X10136Y72108D02*
G01X10077Y72108D01*
G01X10165Y72043D02*
G01X10165Y71985D01*
G01X10165Y72014D02*
G01X9990Y72014D01*
G01X9990Y72014D02*
G01X9990Y71985D01*
G01X10019Y71918D02*
G01X10077Y71918D01*
G01X10077Y71918D02*
G01X10106Y71888D01*
G01X10106Y71888D02*
G01X10106Y71801D01*
G01X10165Y71801D02*
G01X9990Y71801D01*
G01X9990Y71801D02*
G01X9990Y71888D01*
G01X9990Y71888D02*
G01X10019Y71918D01*
G01X10348Y71891D02*
G01X10348Y71950D01*
G01X10348Y71950D02*
G01X10377Y71979D01*
G01X10377Y71979D02*
G01X10406Y71979D01*
G01X10406Y71979D02*
G01X10406Y71862D01*
G01X10377Y71862D02*
G01X10348Y71891D01*
G01X10377Y71862D02*
G01X10436Y71862D01*
G01X10436Y71862D02*
G01X10465Y71891D01*
G01X10465Y71891D02*
G01X10465Y71950D01*
G01X10465Y72047D02*
G01X10465Y72134D01*
G01X10465Y72134D02*
G01X10436Y72163D01*
G01X10436Y72163D02*
G01X10377Y72163D01*
G01X10377Y72163D02*
G01X10348Y72134D01*
G01X10348Y72134D02*
G01X10348Y72047D01*
G01X10348Y72047D02*
G01X10523Y72047D01*
G01X10648Y71981D02*
G01X10677Y72010D01*
G01X10677Y72010D02*
G01X10765Y72010D01*
G01X10861Y72060D02*
G01X10890Y72060D01*
G01X10948Y72060D02*
G01X11065Y72060D01*
G01X11065Y72031D02*
G01X11065Y72090D01*
G01X10948Y72060D02*
G01X10948Y72031D01*
G01X10948Y71964D02*
G01X10948Y71876D01*
G01X10948Y71876D02*
G01X10977Y71847D01*
G01X10977Y71847D02*
G01X11006Y71876D01*
G01X11006Y71876D02*
G01X11006Y71934D01*
G01X11006Y71934D02*
G01X11036Y71964D01*
G01X11036Y71964D02*
G01X11065Y71934D01*
G01X11065Y71934D02*
G01X11065Y71847D01*
G01X10765Y71893D02*
G01X10648Y71893D01*
G01X10648Y71893D02*
G01X10648Y71981D01*
G01X10677Y71825D02*
G01X10648Y71796D01*
G01X10648Y71796D02*
G01X10648Y71738D01*
G01X10648Y71738D02*
G01X10677Y71709D01*
G01X10677Y71709D02*
G01X10736Y71709D01*
G01X10736Y71709D02*
G01X10765Y71738D01*
G01X10765Y71738D02*
G01X10765Y71796D01*
G01X10765Y71796D02*
G01X10736Y71825D01*
G01X10736Y71825D02*
G01X10677Y71825D01*
G01X10465Y71766D02*
G01X10465Y71707D01*
G01X10465Y71707D02*
G01X10436Y71678D01*
G01X10436Y71678D02*
G01X10377Y71678D01*
G01X10377Y71678D02*
G01X10348Y71707D01*
G01X10348Y71707D02*
G01X10348Y71766D01*
G01X10348Y71766D02*
G01X10377Y71795D01*
G01X10377Y71795D02*
G01X10406Y71795D01*
G01X10406Y71795D02*
G01X10406Y71678D01*
G01X10348Y71612D02*
G01X10406Y71525D01*
G01X10406Y71525D02*
G01X10465Y71612D01*
G01X10465Y71525D02*
G01X10290Y71525D01*
G01X10348Y72415D02*
G01X10348Y72444D01*
G01X10348Y72444D02*
G01X10377Y72473D01*
G01X10377Y72473D02*
G01X10348Y72502D01*
G01X10348Y72502D02*
G01X10377Y72531D01*
G01X10377Y72531D02*
G01X10465Y72531D01*
G01X10465Y72473D02*
G01X10377Y72473D01*
G01X10348Y72415D02*
G01X10465Y72415D01*
G01X10436Y72599D02*
G01X10406Y72628D01*
G01X10406Y72628D02*
G01X10406Y72716D01*
G01X10377Y72716D02*
G01X10465Y72716D01*
G01X10465Y72716D02*
G01X10465Y72628D01*
G01X10465Y72628D02*
G01X10436Y72599D01*
G01X10348Y72628D02*
G01X10348Y72686D01*
G01X10348Y72686D02*
G01X10377Y72716D01*
G01X116760Y149865D01*
G75*
%LPD*%
D18*
G01*
X0Y0D02*
G75*
G01*
X131920Y0D01*
G01*
X131920Y186530D01*
G01*
X0Y186530D01*
G01*
X0Y0D01*
G01*
X124380Y168830D02*
G75*
G01*
X108036Y168830D01*
G01*
X107912Y168836D01*
G01*
X107788Y168854D01*
G01*
X107667Y168885D01*
G01*
X107550Y168927D01*
G01*
X107437Y168980D01*
G01*
X107330Y169044D01*
G01*
X107230Y169118D01*
G01*
X107138Y169202D01*
G01*
X107054Y169294D01*
G01*
X106980Y169394D01*
G01*
X106916Y169501D01*
G01*
X106863Y169614D01*
G01*
X106821Y169731D01*
G01*
X106790Y169852D01*
G01*
X106772Y169976D01*
G01*
X106766Y170100D01*
G01*
X106772Y170224D01*
G01*
X106790Y170348D01*
G01*
X106821Y170469D01*
G01*
X106863Y170586D01*
G01*
X106916Y170699D01*
G01*
X106980Y170806D01*
G01*
X107054Y170906D01*
G01*
X107138Y170998D01*
G01*
X107230Y171082D01*
G01*
X107330Y171156D01*
G01*
X107437Y171220D01*
G01*
X107550Y171273D01*
G01*
X107667Y171315D01*
G01*
X107788Y171346D01*
G01*
X107912Y171364D01*
G01*
X108036Y171370D01*
G01*
X125650Y171370D01*
G01*
X125774Y171364D01*
G01*
X125898Y171346D01*
G01*
X126019Y171315D01*
G01*
X126136Y171273D01*
G01*
X126249Y171220D01*
G01*
X126356Y171156D01*
G01*
X126456Y171082D01*
G01*
X126548Y170998D01*
G01*
X126632Y170906D01*
G01*
X126706Y170806D01*
G01*
X126770Y170699D01*
G01*
X126823Y170586D01*
G01*
X126865Y170469D01*
G01*
X126896Y170348D01*
G01*
X126914Y170224D01*
G01*
X126920Y170100D01*
G01*
X126920Y162383D01*
G01*
X126914Y162258D01*
G01*
X126896Y162135D01*
G01*
X126865Y162014D01*
G01*
X126823Y161897D01*
G01*
X126770Y161784D01*
G01*
X126706Y161677D01*
G01*
X126632Y161577D01*
G01*
X126548Y161485D01*
G01*
X126456Y161401D01*
G01*
X126356Y161327D01*
G01*
X126249Y161263D01*
G01*
X126136Y161210D01*
G01*
X126019Y161168D01*
G01*
X125898Y161137D01*
G01*
X125774Y161119D01*
G01*
X125650Y161113D01*
G01*
X125526Y161119D01*
G01*
X125402Y161137D01*
G01*
X125281Y161168D01*
G01*
X125164Y161210D01*
G01*
X125051Y161263D01*
G01*
X124944Y161327D01*
G01*
X124844Y161401D01*
G01*
X124752Y161485D01*
G01*
X124668Y161577D01*
G01*
X124594Y161677D01*
G01*
X124530Y161784D01*
G01*
X124477Y161897D01*
G01*
X124435Y162014D01*
G01*
X124404Y162135D01*
G01*
X124386Y162258D01*
G01*
X124380Y162383D01*
G01*
X124380Y168830D01*
G01*
X124380Y157383D02*
G75*
G01*
X124386Y157507D01*
G01*
X124404Y157631D01*
G01*
X124435Y157752D01*
G01*
X124477Y157869D01*
G01*
X124530Y157982D01*
G01*
X124594Y158088D01*
G01*
X124668Y158189D01*
G01*
X124752Y158281D01*
G01*
X124844Y158365D01*
G01*
X124944Y158439D01*
G01*
X125051Y158503D01*
G01*
X125164Y158556D01*
G01*
X125281Y158598D01*
G01*
X125402Y158628D01*
G01*
X125526Y158647D01*
G01*
X125650Y158653D01*
G01*
X125774Y158647D01*
G01*
X125898Y158628D01*
G01*
X126019Y158598D01*
G01*
X126136Y158556D01*
G01*
X126249Y158503D01*
G01*
X126356Y158439D01*
G01*
X126456Y158365D01*
G01*
X126548Y158281D01*
G01*
X126632Y158189D01*
G01*
X126706Y158088D01*
G01*
X126770Y157982D01*
G01*
X126823Y157869D01*
G01*
X126865Y157752D01*
G01*
X126896Y157631D01*
G01*
X126914Y157507D01*
G01*
X126920Y157383D01*
G01*
X126920Y135736D01*
G01*
X126914Y135611D01*
G01*
X126896Y135488D01*
G01*
X126865Y135367D01*
G01*
X126823Y135250D01*
G01*
X126770Y135137D01*
G01*
X126706Y135030D01*
G01*
X126632Y134930D01*
G01*
X126548Y134838D01*
G01*
X126456Y134754D01*
G01*
X126356Y134680D01*
G01*
X126249Y134616D01*
G01*
X126136Y134562D01*
G01*
X126019Y134520D01*
G01*
X125898Y134490D01*
G01*
X125774Y134472D01*
G01*
X125650Y134466D01*
G01*
X125526Y134472D01*
G01*
X125402Y134490D01*
G01*
X125281Y134520D01*
G01*
X125164Y134562D01*
G01*
X125051Y134616D01*
G01*
X124944Y134680D01*
G01*
X124844Y134754D01*
G01*
X124752Y134838D01*
G01*
X124668Y134930D01*
G01*
X124594Y135030D01*
G01*
X124530Y135137D01*
G01*
X124477Y135250D01*
G01*
X124435Y135367D01*
G01*
X124404Y135488D01*
G01*
X124386Y135611D01*
G01*
X124380Y135736D01*
G01*
X124380Y157383D01*
G01*
X124380Y130736D02*
G75*
G01*
X124386Y130860D01*
G01*
X124404Y130983D01*
G01*
X124435Y131104D01*
G01*
X124477Y131222D01*
G01*
X124530Y131334D01*
G01*
X124594Y131441D01*
G01*
X124668Y131541D01*
G01*
X124752Y131634D01*
G01*
X124844Y131717D01*
G01*
X124944Y131792D01*
G01*
X125051Y131856D01*
G01*
X125164Y131909D01*
G01*
X125281Y131951D01*
G01*
X125402Y131981D01*
G01*
X125526Y132000D01*
G01*
X125650Y132006D01*
G01*
X125774Y132000D01*
G01*
X125898Y131981D01*
G01*
X126019Y131951D01*
G01*
X126136Y131909D01*
G01*
X126249Y131856D01*
G01*
X126356Y131792D01*
G01*
X126456Y131717D01*
G01*
X126548Y131634D01*
G01*
X126632Y131541D01*
G01*
X126706Y131441D01*
G01*
X126770Y131334D01*
G01*
X126823Y131222D01*
G01*
X126865Y131104D01*
G01*
X126896Y130983D01*
G01*
X126914Y130860D01*
G01*
X126920Y130736D01*
G01*
X126920Y109089D01*
G01*
X126914Y108964D01*
G01*
X126896Y108841D01*
G01*
X126865Y108720D01*
G01*
X126823Y108603D01*
G01*
X126770Y108490D01*
G01*
X126706Y108383D01*
G01*
X126632Y108283D01*
G01*
X126548Y108191D01*
G01*
X126456Y108107D01*
G01*
X126356Y108033D01*
G01*
X126249Y107969D01*
G01*
X126136Y107915D01*
G01*
X126019Y107873D01*
G01*
X125898Y107843D01*
G01*
X125774Y107825D01*
G01*
X125650Y107819D01*
G01*
X125526Y107825D01*
G01*
X125402Y107843D01*
G01*
X125281Y107873D01*
G01*
X125164Y107915D01*
G01*
X125051Y107969D01*
G01*
X124944Y108033D01*
G01*
X124844Y108107D01*
G01*
X124752Y108191D01*
G01*
X124668Y108283D01*
G01*
X124594Y108383D01*
G01*
X124530Y108490D01*
G01*
X124477Y108603D01*
G01*
X124435Y108720D01*
G01*
X124404Y108841D01*
G01*
X124386Y108964D01*
G01*
X124380Y109089D01*
G01*
X124380Y130736D01*
G01*
X124380Y104089D02*
G75*
G01*
X124386Y104213D01*
G01*
X124404Y104336D01*
G01*
X124435Y104457D01*
G01*
X124477Y104575D01*
G01*
X124530Y104687D01*
G01*
X124594Y104794D01*
G01*
X124668Y104894D01*
G01*
X124752Y104987D01*
G01*
X124844Y105070D01*
G01*
X124944Y105145D01*
G01*
X125051Y105209D01*
G01*
X125164Y105262D01*
G01*
X125281Y105304D01*
G01*
X125402Y105334D01*
G01*
X125526Y105352D01*
G01*
X125650Y105359D01*
G01*
X125774Y105352D01*
G01*
X125898Y105334D01*
G01*
X126019Y105304D01*
G01*
X126136Y105262D01*
G01*
X126249Y105209D01*
G01*
X126356Y105145D01*
G01*
X126456Y105070D01*
G01*
X126548Y104987D01*
G01*
X126632Y104894D01*
G01*
X126706Y104794D01*
G01*
X126770Y104687D01*
G01*
X126823Y104575D01*
G01*
X126865Y104457D01*
G01*
X126896Y104336D01*
G01*
X126914Y104213D01*
G01*
X126920Y104089D01*
G01*
X126920Y82441D01*
G01*
X126914Y82317D01*
G01*
X126896Y82194D01*
G01*
X126865Y82073D01*
G01*
X126823Y81955D01*
G01*
X126770Y81843D01*
G01*
X126706Y81736D01*
G01*
X126632Y81636D01*
G01*
X126548Y81543D01*
G01*
X126456Y81460D01*
G01*
X126356Y81385D01*
G01*
X126249Y81321D01*
G01*
X126136Y81268D01*
G01*
X126019Y81226D01*
G01*
X125898Y81196D01*
G01*
X125774Y81178D01*
G01*
X125650Y81171D01*
G01*
X125526Y81178D01*
G01*
X125402Y81196D01*
G01*
X125281Y81226D01*
G01*
X125164Y81268D01*
G01*
X125051Y81321D01*
G01*
X124944Y81385D01*
G01*
X124844Y81460D01*
G01*
X124752Y81543D01*
G01*
X124668Y81636D01*
G01*
X124594Y81736D01*
G01*
X124530Y81843D01*
G01*
X124477Y81955D01*
G01*
X124435Y82073D01*
G01*
X124404Y82194D01*
G01*
X124386Y82317D01*
G01*
X124380Y82441D01*
G01*
X124380Y104089D01*
G01*
X124380Y50794D02*
G75*
G01*
X124386Y50919D01*
G01*
X124404Y51042D01*
G01*
X124435Y51163D01*
G01*
X124477Y51280D01*
G01*
X124530Y51393D01*
G01*
X124594Y51500D01*
G01*
X124668Y51600D01*
G01*
X124752Y51692D01*
G01*
X124844Y51776D01*
G01*
X124944Y51850D01*
G01*
X125051Y51914D01*
G01*
X125164Y51968D01*
G01*
X125281Y52010D01*
G01*
X125402Y52040D01*
G01*
X125526Y52058D01*
G01*
X125650Y52064D01*
G01*
X125774Y52058D01*
G01*
X125898Y52040D01*
G01*
X126019Y52010D01*
G01*
X126136Y51968D01*
G01*
X126249Y51914D01*
G01*
X126356Y51850D01*
G01*
X126456Y51776D01*
G01*
X126548Y51692D01*
G01*
X126632Y51600D01*
G01*
X126706Y51500D01*
G01*
X126770Y51393D01*
G01*
X126823Y51280D01*
G01*
X126865Y51163D01*
G01*
X126896Y51042D01*
G01*
X126914Y50919D01*
G01*
X126920Y50794D01*
G01*
X126920Y29147D01*
G01*
X126914Y29023D01*
G01*
X126896Y28899D01*
G01*
X126865Y28778D01*
G01*
X126823Y28661D01*
G01*
X126770Y28548D01*
G01*
X126706Y28442D01*
G01*
X126632Y28341D01*
G01*
X126548Y28249D01*
G01*
X126456Y28165D01*
G01*
X126356Y28091D01*
G01*
X126249Y28027D01*
G01*
X126136Y27974D01*
G01*
X126019Y27932D01*
G01*
X125898Y27902D01*
G01*
X125774Y27883D01*
G01*
X125650Y27877D01*
G01*
X125526Y27883D01*
G01*
X125402Y27902D01*
G01*
X125281Y27932D01*
G01*
X125164Y27974D01*
G01*
X125051Y28027D01*
G01*
X124944Y28091D01*
G01*
X124844Y28165D01*
G01*
X124752Y28249D01*
G01*
X124668Y28341D01*
G01*
X124594Y28442D01*
G01*
X124530Y28548D01*
G01*
X124477Y28661D01*
G01*
X124435Y28778D01*
G01*
X124404Y28899D01*
G01*
X124386Y29023D01*
G01*
X124380Y29147D01*
G01*
X124380Y50794D01*
G01*
X124380Y7540D02*
G75*
G01*
X124380Y24147D01*
G01*
X124386Y24272D01*
G01*
X124404Y24395D01*
G01*
X124435Y24516D01*
G01*
X124477Y24633D01*
G01*
X124530Y24746D01*
G01*
X124594Y24853D01*
G01*
X124668Y24953D01*
G01*
X124752Y25045D01*
G01*
X124844Y25129D01*
G01*
X124944Y25203D01*
G01*
X125051Y25267D01*
G01*
X125164Y25320D01*
G01*
X125281Y25362D01*
G01*
X125402Y25393D01*
G01*
X125526Y25411D01*
G01*
X125650Y25417D01*
G01*
X125774Y25411D01*
G01*
X125898Y25393D01*
G01*
X126019Y25362D01*
G01*
X126136Y25320D01*
G01*
X126249Y25267D01*
G01*
X126356Y25203D01*
G01*
X126456Y25129D01*
G01*
X126548Y25045D01*
G01*
X126632Y24953D01*
G01*
X126706Y24853D01*
G01*
X126770Y24746D01*
G01*
X126823Y24633D01*
G01*
X126865Y24516D01*
G01*
X126896Y24395D01*
G01*
X126914Y24272D01*
G01*
X126920Y24147D01*
G01*
X126920Y6270D01*
G01*
X126914Y6146D01*
G01*
X126896Y6022D01*
G01*
X126865Y5901D01*
G01*
X126823Y5784D01*
G01*
X126770Y5671D01*
G01*
X126706Y5564D01*
G01*
X126632Y5464D01*
G01*
X126548Y5372D01*
G01*
X126456Y5288D01*
G01*
X126356Y5214D01*
G01*
X126249Y5150D01*
G01*
X126136Y5097D01*
G01*
X126019Y5055D01*
G01*
X125898Y5024D01*
G01*
X125774Y5006D01*
G01*
X125650Y5000D01*
G01*
X108036Y5000D01*
G01*
X107912Y5006D01*
G01*
X107788Y5024D01*
G01*
X107667Y5055D01*
G01*
X107550Y5097D01*
G01*
X107437Y5150D01*
G01*
X107330Y5214D01*
G01*
X107230Y5288D01*
G01*
X107138Y5372D01*
G01*
X107054Y5464D01*
G01*
X106980Y5564D01*
G01*
X106916Y5671D01*
G01*
X106863Y5784D01*
G01*
X106821Y5901D01*
G01*
X106790Y6022D01*
G01*
X106772Y6146D01*
G01*
X106766Y6270D01*
G01*
X106772Y6394D01*
G01*
X106790Y6518D01*
G01*
X106821Y6639D01*
G01*
X106863Y6756D01*
G01*
X106916Y6869D01*
G01*
X106980Y6976D01*
G01*
X107054Y7076D01*
G01*
X107138Y7168D01*
G01*
X107230Y7252D01*
G01*
X107330Y7326D01*
G01*
X107437Y7390D01*
G01*
X107550Y7443D01*
G01*
X107667Y7485D01*
G01*
X107788Y7516D01*
G01*
X107912Y7534D01*
G01*
X108036Y7540D01*
G01*
X124380Y7540D01*
G01*
X106766Y65960D02*
G75*
G01*
X106766Y65960D01*
G01*
X106772Y66084D01*
G01*
X106790Y66208D01*
G01*
X106821Y66329D01*
G01*
X106863Y66446D01*
G01*
X106916Y66559D01*
G01*
X106980Y66666D01*
G01*
X107054Y66766D01*
G01*
X107138Y66858D01*
G01*
X107230Y66942D01*
G01*
X107330Y67016D01*
G01*
X107437Y67080D01*
G01*
X107550Y67133D01*
G01*
X107667Y67175D01*
G01*
X107788Y67206D01*
G01*
X107912Y67224D01*
G01*
X108036Y67230D01*
G01*
X124380Y67230D01*
G01*
X124380Y77441D01*
G01*
X124386Y77566D01*
G01*
X124404Y77689D01*
G01*
X124435Y77810D01*
G01*
X124477Y77927D01*
G01*
X124530Y78040D01*
G01*
X124594Y78147D01*
G01*
X124668Y78247D01*
G01*
X124752Y78339D01*
G01*
X124844Y78423D01*
G01*
X124944Y78497D01*
G01*
X125051Y78561D01*
G01*
X125164Y78615D01*
G01*
X125281Y78657D01*
G01*
X125402Y78687D01*
G01*
X125526Y78705D01*
G01*
X125650Y78711D01*
G01*
X125774Y78705D01*
G01*
X125898Y78687D01*
G01*
X126019Y78657D01*
G01*
X126136Y78615D01*
G01*
X126249Y78561D01*
G01*
X126356Y78497D01*
G01*
X126456Y78423D01*
G01*
X126548Y78339D01*
G01*
X126632Y78247D01*
G01*
X126706Y78147D01*
G01*
X126770Y78040D01*
G01*
X126823Y77927D01*
G01*
X126865Y77810D01*
G01*
X126896Y77689D01*
G01*
X126914Y77566D01*
G01*
X126920Y77441D01*
G01*
X126920Y65960D01*
G01*
X126920Y65960D01*
G01*
X126920Y55794D01*
G01*
X126914Y55670D01*
G01*
X126896Y55547D01*
G01*
X126865Y55426D01*
G01*
X126823Y55308D01*
G01*
X126770Y55196D01*
G01*
X126706Y55089D01*
G01*
X126632Y54989D01*
G01*
X126548Y54896D01*
G01*
X126456Y54813D01*
G01*
X126356Y54738D01*
G01*
X126249Y54674D01*
G01*
X126136Y54621D01*
G01*
X126019Y54579D01*
G01*
X125898Y54549D01*
G01*
X125774Y54530D01*
G01*
X125650Y54524D01*
G01*
X125526Y54530D01*
G01*
X125402Y54549D01*
G01*
X125281Y54579D01*
G01*
X125164Y54621D01*
G01*
X125051Y54674D01*
G01*
X124944Y54738D01*
G01*
X124844Y54813D01*
G01*
X124752Y54896D01*
G01*
X124668Y54989D01*
G01*
X124594Y55089D01*
G01*
X124530Y55196D01*
G01*
X124477Y55308D01*
G01*
X124435Y55426D01*
G01*
X124404Y55547D01*
G01*
X124386Y55670D01*
G01*
X124380Y55794D01*
G01*
X124380Y64690D01*
G01*
X108036Y64690D01*
G01*
X107912Y64696D01*
G01*
X107788Y64714D01*
G01*
X107667Y64745D01*
G01*
X107550Y64787D01*
G01*
X107437Y64840D01*
G01*
X107330Y64904D01*
G01*
X107230Y64978D01*
G01*
X107138Y65062D01*
G01*
X107054Y65154D01*
G01*
X106980Y65254D01*
G01*
X106916Y65361D01*
G01*
X106863Y65474D01*
G01*
X106821Y65591D01*
G01*
X106790Y65712D01*
G01*
X106772Y65836D01*
G01*
X106766Y65960D01*
G01*
X103036Y7540D02*
G75*
G01*
X103160Y7534D01*
G01*
X103284Y7516D01*
G01*
X103405Y7485D01*
G01*
X103522Y7443D01*
G01*
X103635Y7390D01*
G01*
X103742Y7326D01*
G01*
X103842Y7252D01*
G01*
X103934Y7168D01*
G01*
X104018Y7076D01*
G01*
X104092Y6976D01*
G01*
X104156Y6869D01*
G01*
X104209Y6756D01*
G01*
X104251Y6639D01*
G01*
X104282Y6518D01*
G01*
X104300Y6394D01*
G01*
X104306Y6270D01*
G01*
X104300Y6146D01*
G01*
X104282Y6022D01*
G01*
X104251Y5901D01*
G01*
X104209Y5784D01*
G01*
X104156Y5671D01*
G01*
X104092Y5564D01*
G01*
X104018Y5464D01*
G01*
X103934Y5372D01*
G01*
X103842Y5288D01*
G01*
X103742Y5214D01*
G01*
X103635Y5150D01*
G01*
X103522Y5097D01*
G01*
X103405Y5055D01*
G01*
X103284Y5024D01*
G01*
X103160Y5006D01*
G01*
X103036Y5000D01*
G01*
X81652Y5000D01*
G01*
X81528Y5006D01*
G01*
X81404Y5024D01*
G01*
X81283Y5055D01*
G01*
X81166Y5097D01*
G01*
X81053Y5150D01*
G01*
X80946Y5214D01*
G01*
X80846Y5288D01*
G01*
X80754Y5372D01*
G01*
X80670Y5464D01*
G01*
X80596Y5564D01*
G01*
X80532Y5671D01*
G01*
X80479Y5784D01*
G01*
X80437Y5901D01*
G01*
X80406Y6022D01*
G01*
X80388Y6146D01*
G01*
X80382Y6270D01*
G01*
X80388Y6394D01*
G01*
X80406Y6518D01*
G01*
X80437Y6639D01*
G01*
X80479Y6756D01*
G01*
X80532Y6869D01*
G01*
X80596Y6976D01*
G01*
X80670Y7076D01*
G01*
X80754Y7168D01*
G01*
X80846Y7252D01*
G01*
X80946Y7326D01*
G01*
X81053Y7390D01*
G01*
X81166Y7443D01*
G01*
X81283Y7485D01*
G01*
X81404Y7516D01*
G01*
X81528Y7534D01*
G01*
X81652Y7540D01*
G01*
X103036Y7540D01*
G01*
X81652Y168830D02*
G75*
G01*
X81528Y168836D01*
G01*
X81404Y168854D01*
G01*
X81283Y168885D01*
G01*
X81166Y168927D01*
G01*
X81053Y168980D01*
G01*
X80946Y169044D01*
G01*
X80846Y169118D01*
G01*
X80754Y169202D01*
G01*
X80670Y169294D01*
G01*
X80596Y169394D01*
G01*
X80532Y169501D01*
G01*
X80479Y169614D01*
G01*
X80437Y169731D01*
G01*
X80406Y169852D01*
G01*
X80388Y169976D01*
G01*
X80382Y170100D01*
G01*
X80388Y170224D01*
G01*
X80406Y170348D01*
G01*
X80437Y170469D01*
G01*
X80479Y170586D01*
G01*
X80532Y170699D01*
G01*
X80596Y170806D01*
G01*
X80670Y170906D01*
G01*
X80754Y170998D01*
G01*
X80846Y171082D01*
G01*
X80946Y171156D01*
G01*
X81053Y171220D01*
G01*
X81166Y171273D01*
G01*
X81283Y171315D01*
G01*
X81404Y171346D01*
G01*
X81528Y171364D01*
G01*
X81652Y171370D01*
G01*
X103036Y171370D01*
G01*
X103160Y171364D01*
G01*
X103284Y171346D01*
G01*
X103405Y171315D01*
G01*
X103522Y171273D01*
G01*
X103635Y171220D01*
G01*
X103742Y171156D01*
G01*
X103842Y171082D01*
G01*
X103934Y170998D01*
G01*
X104018Y170906D01*
G01*
X104092Y170806D01*
G01*
X104156Y170699D01*
G01*
X104209Y170586D01*
G01*
X104251Y170469D01*
G01*
X104282Y170348D01*
G01*
X104300Y170224D01*
G01*
X104306Y170100D01*
G01*
X104300Y169976D01*
G01*
X104282Y169852D01*
G01*
X104251Y169731D01*
G01*
X104209Y169614D01*
G01*
X104156Y169501D01*
G01*
X104092Y169394D01*
G01*
X104018Y169294D01*
G01*
X103934Y169202D01*
G01*
X103842Y169118D01*
G01*
X103742Y169044D01*
G01*
X103635Y168980D01*
G01*
X103522Y168927D01*
G01*
X103405Y168885D01*
G01*
X103284Y168854D01*
G01*
X103160Y168836D01*
G01*
X103036Y168830D01*
G01*
X81652Y168830D01*
G01*
X80382Y65960D02*
G75*
G01*
X80382Y65960D01*
G01*
X80388Y66084D01*
G01*
X80406Y66208D01*
G01*
X80437Y66329D01*
G01*
X80479Y66446D01*
G01*
X80532Y66559D01*
G01*
X80596Y66666D01*
G01*
X80670Y66766D01*
G01*
X80754Y66858D01*
G01*
X80846Y66942D01*
G01*
X80946Y67016D01*
G01*
X81053Y67080D01*
G01*
X81166Y67133D01*
G01*
X81283Y67175D01*
G01*
X81404Y67206D01*
G01*
X81528Y67224D01*
G01*
X81652Y67230D01*
G01*
X103036Y67230D01*
G01*
X103160Y67224D01*
G01*
X103284Y67206D01*
G01*
X103405Y67175D01*
G01*
X103522Y67133D01*
G01*
X103635Y67080D01*
G01*
X103742Y67016D01*
G01*
X103842Y66942D01*
G01*
X103934Y66858D01*
G01*
X104018Y66766D01*
G01*
X104092Y66666D01*
G01*
X104156Y66559D01*
G01*
X104209Y66446D01*
G01*
X104251Y66329D01*
G01*
X104282Y66208D01*
G01*
X104300Y66084D01*
G01*
X104306Y65960D01*
G01*
X104306Y65960D01*
G01*
X104300Y65836D01*
G01*
X104282Y65712D01*
G01*
X104251Y65591D01*
G01*
X104209Y65474D01*
G01*
X104156Y65361D01*
G01*
X104092Y65254D01*
G01*
X104018Y65154D01*
G01*
X103934Y65062D01*
G01*
X103842Y64978D01*
G01*
X103742Y64904D01*
G01*
X103635Y64840D01*
G01*
X103522Y64787D01*
G01*
X103405Y64745D01*
G01*
X103284Y64714D01*
G01*
X103160Y64696D01*
G01*
X103036Y64690D01*
G01*
X81652Y64690D01*
G01*
X81528Y64696D01*
G01*
X81404Y64714D01*
G01*
X81283Y64745D01*
G01*
X81166Y64787D01*
G01*
X81053Y64840D01*
G01*
X80946Y64904D01*
G01*
X80846Y64978D01*
G01*
X80754Y65062D01*
G01*
X80670Y65154D01*
G01*
X80596Y65254D01*
G01*
X80532Y65361D01*
G01*
X80479Y65474D01*
G01*
X80437Y65591D01*
G01*
X80406Y65712D01*
G01*
X80388Y65836D01*
G01*
X80382Y65960D01*
G01*
X53998Y65960D02*
G75*
G01*
X53998Y65960D01*
G01*
X54004Y66084D01*
G01*
X54022Y66208D01*
G01*
X54053Y66329D01*
G01*
X54095Y66446D01*
G01*
X54148Y66559D01*
G01*
X54212Y66666D01*
G01*
X54286Y66766D01*
G01*
X54370Y66858D01*
G01*
X54462Y66942D01*
G01*
X54562Y67016D01*
G01*
X54669Y67080D01*
G01*
X54782Y67133D01*
G01*
X54899Y67175D01*
G01*
X55020Y67206D01*
G01*
X55144Y67224D01*
G01*
X55268Y67230D01*
G01*
X64690Y67230D01*
G01*
X64690Y77441D01*
G01*
X64696Y77566D01*
G01*
X64714Y77689D01*
G01*
X64745Y77810D01*
G01*
X64787Y77927D01*
G01*
X64840Y78040D01*
G01*
X64904Y78147D01*
G01*
X64978Y78247D01*
G01*
X65062Y78339D01*
G01*
X65154Y78423D01*
G01*
X65254Y78497D01*
G01*
X65361Y78561D01*
G01*
X65474Y78615D01*
G01*
X65591Y78657D01*
G01*
X65712Y78687D01*
G01*
X65836Y78705D01*
G01*
X65960Y78711D01*
G01*
X65960Y78711D01*
G01*
X66084Y78705D01*
G01*
X66208Y78687D01*
G01*
X66329Y78657D01*
G01*
X66446Y78615D01*
G01*
X66559Y78561D01*
G01*
X66666Y78497D01*
G01*
X66766Y78423D01*
G01*
X66858Y78339D01*
G01*
X66942Y78247D01*
G01*
X67016Y78147D01*
G01*
X67080Y78040D01*
G01*
X67133Y77927D01*
G01*
X67175Y77810D01*
G01*
X67206Y77689D01*
G01*
X67224Y77566D01*
G01*
X67230Y77441D01*
G01*
X67230Y67230D01*
G01*
X76652Y67230D01*
G01*
X76776Y67224D01*
G01*
X76900Y67206D01*
G01*
X77021Y67175D01*
G01*
X77138Y67133D01*
G01*
X77251Y67080D01*
G01*
X77358Y67016D01*
G01*
X77458Y66942D01*
G01*
X77550Y66858D01*
G01*
X77634Y66766D01*
G01*
X77708Y66666D01*
G01*
X77772Y66559D01*
G01*
X77825Y66446D01*
G01*
X77867Y66329D01*
G01*
X77898Y66208D01*
G01*
X77916Y66084D01*
G01*
X77922Y65960D01*
G01*
X77922Y65960D01*
G01*
X77916Y65836D01*
G01*
X77898Y65712D01*
G01*
X77867Y65591D01*
G01*
X77825Y65474D01*
G01*
X77772Y65361D01*
G01*
X77708Y65254D01*
G01*
X77634Y65154D01*
G01*
X77550Y65062D01*
G01*
X77458Y64978D01*
G01*
X77358Y64904D01*
G01*
X77251Y64840D01*
G01*
X77138Y64787D01*
G01*
X77021Y64745D01*
G01*
X76900Y64714D01*
G01*
X76776Y64696D01*
G01*
X76652Y64690D01*
G01*
X67230Y64690D01*
G01*
X67230Y55794D01*
G01*
X67224Y55670D01*
G01*
X67206Y55547D01*
G01*
X67175Y55426D01*
G01*
X67133Y55308D01*
G01*
X67080Y55196D01*
G01*
X67016Y55089D01*
G01*
X66942Y54989D01*
G01*
X66858Y54896D01*
G01*
X66766Y54813D01*
G01*
X66666Y54738D01*
G01*
X66559Y54674D01*
G01*
X66446Y54621D01*
G01*
X66329Y54579D01*
G01*
X66208Y54549D01*
G01*
X66084Y54530D01*
G01*
X65960Y54524D01*
G01*
X65960Y54524D01*
G01*
X65836Y54530D01*
G01*
X65712Y54549D01*
G01*
X65591Y54579D01*
G01*
X65474Y54621D01*
G01*
X65361Y54674D01*
G01*
X65254Y54738D01*
G01*
X65154Y54813D01*
G01*
X65062Y54896D01*
G01*
X64978Y54989D01*
G01*
X64904Y55089D01*
G01*
X64840Y55196D01*
G01*
X64787Y55308D01*
G01*
X64745Y55426D01*
G01*
X64714Y55547D01*
G01*
X64696Y55670D01*
G01*
X64690Y55794D01*
G01*
X64690Y64690D01*
G01*
X55268Y64690D01*
G01*
X55144Y64696D01*
G01*
X55020Y64714D01*
G01*
X54899Y64745D01*
G01*
X54782Y64787D01*
G01*
X54669Y64840D01*
G01*
X54562Y64904D01*
G01*
X54462Y64978D01*
G01*
X54370Y65062D01*
G01*
X54286Y65154D01*
G01*
X54212Y65254D01*
G01*
X54148Y65361D01*
G01*
X54095Y65474D01*
G01*
X54053Y65591D01*
G01*
X54022Y65712D01*
G01*
X54004Y65836D01*
G01*
X53998Y65960D01*
G01*
X64690Y7540D02*
G75*
G01*
X64690Y24147D01*
G01*
X64696Y24272D01*
G01*
X64714Y24395D01*
G01*
X64745Y24516D01*
G01*
X64787Y24633D01*
G01*
X64840Y24746D01*
G01*
X64904Y24853D01*
G01*
X64978Y24953D01*
G01*
X65062Y25045D01*
G01*
X65154Y25129D01*
G01*
X65254Y25203D01*
G01*
X65361Y25267D01*
G01*
X65474Y25320D01*
G01*
X65591Y25362D01*
G01*
X65712Y25393D01*
G01*
X65836Y25411D01*
G01*
X65960Y25417D01*
G01*
X65960Y25417D01*
G01*
X66084Y25411D01*
G01*
X66208Y25393D01*
G01*
X66329Y25362D01*
G01*
X66446Y25320D01*
G01*
X66559Y25267D01*
G01*
X66666Y25203D01*
G01*
X66766Y25129D01*
G01*
X66858Y25045D01*
G01*
X66942Y24953D01*
G01*
X67016Y24853D01*
G01*
X67080Y24746D01*
G01*
X67133Y24633D01*
G01*
X67175Y24516D01*
G01*
X67206Y24395D01*
G01*
X67224Y24272D01*
G01*
X67230Y24147D01*
G01*
X67230Y7540D01*
G01*
X76652Y7540D01*
G01*
X76776Y7534D01*
G01*
X76900Y7516D01*
G01*
X77021Y7485D01*
G01*
X77138Y7443D01*
G01*
X77251Y7390D01*
G01*
X77358Y7326D01*
G01*
X77458Y7252D01*
G01*
X77550Y7168D01*
G01*
X77634Y7076D01*
G01*
X77708Y6976D01*
G01*
X77772Y6869D01*
G01*
X77825Y6756D01*
G01*
X77867Y6639D01*
G01*
X77898Y6518D01*
G01*
X77916Y6394D01*
G01*
X77922Y6270D01*
G01*
X77916Y6146D01*
G01*
X77898Y6022D01*
G01*
X77867Y5901D01*
G01*
X77825Y5784D01*
G01*
X77772Y5671D01*
G01*
X77708Y5564D01*
G01*
X77634Y5464D01*
G01*
X77550Y5372D01*
G01*
X77458Y5288D01*
G01*
X77358Y5214D01*
G01*
X77251Y5150D01*
G01*
X77138Y5097D01*
G01*
X77021Y5055D01*
G01*
X76900Y5024D01*
G01*
X76776Y5006D01*
G01*
X76652Y5000D01*
G01*
X65960Y5000D01*
G01*
X65960Y5000D01*
G01*
X55268Y5000D01*
G01*
X55144Y5006D01*
G01*
X55020Y5024D01*
G01*
X54899Y5055D01*
G01*
X54782Y5097D01*
G01*
X54669Y5150D01*
G01*
X54562Y5214D01*
G01*
X54462Y5288D01*
G01*
X54370Y5372D01*
G01*
X54286Y5464D01*
G01*
X54212Y5564D01*
G01*
X54148Y5671D01*
G01*
X54095Y5784D01*
G01*
X54053Y5901D01*
G01*
X54022Y6022D01*
G01*
X54004Y6146D01*
G01*
X53998Y6270D01*
G01*
X54004Y6394D01*
G01*
X54022Y6518D01*
G01*
X54053Y6639D01*
G01*
X54095Y6756D01*
G01*
X54148Y6869D01*
G01*
X54212Y6976D01*
G01*
X54286Y7076D01*
G01*
X54370Y7168D01*
G01*
X54462Y7252D01*
G01*
X54562Y7326D01*
G01*
X54669Y7390D01*
G01*
X54782Y7443D01*
G01*
X54899Y7485D01*
G01*
X55020Y7516D01*
G01*
X55144Y7534D01*
G01*
X55268Y7540D01*
G01*
X64690Y7540D01*
G01*
X64690Y178990D02*
G75*
G01*
X55268Y178990D01*
G01*
X55144Y178996D01*
G01*
X55020Y179014D01*
G01*
X54899Y179045D01*
G01*
X54782Y179087D01*
G01*
X54669Y179140D01*
G01*
X54562Y179204D01*
G01*
X54462Y179278D01*
G01*
X54370Y179362D01*
G01*
X54286Y179454D01*
G01*
X54212Y179554D01*
G01*
X54148Y179661D01*
G01*
X54095Y179774D01*
G01*
X54053Y179891D01*
G01*
X54022Y180012D01*
G01*
X54004Y180136D01*
G01*
X53998Y180260D01*
G01*
X54004Y180384D01*
G01*
X54022Y180508D01*
G01*
X54053Y180629D01*
G01*
X54095Y180746D01*
G01*
X54148Y180859D01*
G01*
X54212Y180966D01*
G01*
X54286Y181066D01*
G01*
X54370Y181158D01*
G01*
X54462Y181242D01*
G01*
X54562Y181316D01*
G01*
X54669Y181380D01*
G01*
X54782Y181433D01*
G01*
X54899Y181475D01*
G01*
X55020Y181506D01*
G01*
X55144Y181524D01*
G01*
X55268Y181530D01*
G01*
X65960Y181530D01*
G01*
X66084Y181524D01*
G01*
X66208Y181506D01*
G01*
X66329Y181475D01*
G01*
X66446Y181433D01*
G01*
X66559Y181380D01*
G01*
X66666Y181316D01*
G01*
X66766Y181242D01*
G01*
X66858Y181158D01*
G01*
X66942Y181066D01*
G01*
X67016Y180966D01*
G01*
X67080Y180859D01*
G01*
X67133Y180746D01*
G01*
X67175Y180629D01*
G01*
X67206Y180508D01*
G01*
X67224Y180384D01*
G01*
X67230Y180260D01*
G01*
X67230Y171370D01*
G01*
X76652Y171370D01*
G01*
X76776Y171364D01*
G01*
X76900Y171346D01*
G01*
X77021Y171315D01*
G01*
X77138Y171273D01*
G01*
X77251Y171220D01*
G01*
X77358Y171156D01*
G01*
X77458Y171082D01*
G01*
X77550Y170998D01*
G01*
X77634Y170906D01*
G01*
X77708Y170806D01*
G01*
X77772Y170699D01*
G01*
X77825Y170586D01*
G01*
X77867Y170469D01*
G01*
X77898Y170348D01*
G01*
X77916Y170224D01*
G01*
X77922Y170100D01*
G01*
X77916Y169976D01*
G01*
X77898Y169852D01*
G01*
X77867Y169731D01*
G01*
X77825Y169614D01*
G01*
X77772Y169501D01*
G01*
X77708Y169394D01*
G01*
X77634Y169294D01*
G01*
X77550Y169202D01*
G01*
X77458Y169118D01*
G01*
X77358Y169044D01*
G01*
X77251Y168980D01*
G01*
X77138Y168927D01*
G01*
X77021Y168885D01*
G01*
X76900Y168854D01*
G01*
X76776Y168836D01*
G01*
X76652Y168830D01*
G01*
X67230Y168830D01*
G01*
X67230Y162383D01*
G01*
X67224Y162258D01*
G01*
X67206Y162135D01*
G01*
X67175Y162014D01*
G01*
X67133Y161897D01*
G01*
X67080Y161784D01*
G01*
X67016Y161677D01*
G01*
X66942Y161577D01*
G01*
X66858Y161485D01*
G01*
X66766Y161401D01*
G01*
X66666Y161327D01*
G01*
X66559Y161263D01*
G01*
X66446Y161210D01*
G01*
X66329Y161168D01*
G01*
X66208Y161137D01*
G01*
X66084Y161119D01*
G01*
X65960Y161113D01*
G01*
X65960Y161113D01*
G01*
X65836Y161119D01*
G01*
X65712Y161137D01*
G01*
X65591Y161168D01*
G01*
X65474Y161210D01*
G01*
X65361Y161263D01*
G01*
X65254Y161327D01*
G01*
X65154Y161401D01*
G01*
X65062Y161485D01*
G01*
X64978Y161577D01*
G01*
X64904Y161677D01*
G01*
X64840Y161784D01*
G01*
X64787Y161897D01*
G01*
X64745Y162014D01*
G01*
X64714Y162135D01*
G01*
X64696Y162258D01*
G01*
X64690Y162383D01*
G01*
X64690Y178990D01*
G01*
X64690Y104089D02*
G75*
G01*
X64696Y104213D01*
G01*
X64714Y104336D01*
G01*
X64745Y104457D01*
G01*
X64787Y104575D01*
G01*
X64840Y104687D01*
G01*
X64904Y104794D01*
G01*
X64978Y104894D01*
G01*
X65062Y104987D01*
G01*
X65154Y105070D01*
G01*
X65254Y105145D01*
G01*
X65361Y105209D01*
G01*
X65474Y105262D01*
G01*
X65591Y105304D01*
G01*
X65712Y105334D01*
G01*
X65836Y105352D01*
G01*
X65960Y105359D01*
G01*
X65960Y105359D01*
G01*
X66084Y105352D01*
G01*
X66208Y105334D01*
G01*
X66329Y105304D01*
G01*
X66446Y105262D01*
G01*
X66559Y105209D01*
G01*
X66666Y105145D01*
G01*
X66766Y105070D01*
G01*
X66858Y104987D01*
G01*
X66942Y104894D01*
G01*
X67016Y104794D01*
G01*
X67080Y104687D01*
G01*
X67133Y104575D01*
G01*
X67175Y104457D01*
G01*
X67206Y104336D01*
G01*
X67224Y104213D01*
G01*
X67230Y104089D01*
G01*
X67230Y82441D01*
G01*
X67224Y82317D01*
G01*
X67206Y82194D01*
G01*
X67175Y82073D01*
G01*
X67133Y81955D01*
G01*
X67080Y81843D01*
G01*
X67016Y81736D01*
G01*
X66942Y81636D01*
G01*
X66858Y81543D01*
G01*
X66766Y81460D01*
G01*
X66666Y81385D01*
G01*
X66559Y81321D01*
G01*
X66446Y81268D01*
G01*
X66329Y81226D01*
G01*
X66208Y81196D01*
G01*
X66084Y81178D01*
G01*
X65960Y81171D01*
G01*
X65960Y81171D01*
G01*
X65836Y81178D01*
G01*
X65712Y81196D01*
G01*
X65591Y81226D01*
G01*
X65474Y81268D01*
G01*
X65361Y81321D01*
G01*
X65254Y81385D01*
G01*
X65154Y81460D01*
G01*
X65062Y81543D01*
G01*
X64978Y81636D01*
G01*
X64904Y81736D01*
G01*
X64840Y81843D01*
G01*
X64787Y81955D01*
G01*
X64745Y82073D01*
G01*
X64714Y82194D01*
G01*
X64696Y82317D01*
G01*
X64690Y82441D01*
G01*
X64690Y104089D01*
G01*
X64690Y157383D02*
G75*
G01*
X64696Y157507D01*
G01*
X64714Y157631D01*
G01*
X64745Y157752D01*
G01*
X64787Y157869D01*
G01*
X64840Y157982D01*
G01*
X64904Y158088D01*
G01*
X64978Y158189D01*
G01*
X65062Y158281D01*
G01*
X65154Y158365D01*
G01*
X65254Y158439D01*
G01*
X65361Y158503D01*
G01*
X65474Y158556D01*
G01*
X65591Y158598D01*
G01*
X65712Y158628D01*
G01*
X65836Y158647D01*
G01*
X65960Y158653D01*
G01*
X65960Y158653D01*
G01*
X66084Y158647D01*
G01*
X66208Y158628D01*
G01*
X66329Y158598D01*
G01*
X66446Y158556D01*
G01*
X66559Y158503D01*
G01*
X66666Y158439D01*
G01*
X66766Y158365D01*
G01*
X66858Y158281D01*
G01*
X66942Y158189D01*
G01*
X67016Y158088D01*
G01*
X67080Y157982D01*
G01*
X67133Y157869D01*
G01*
X67175Y157752D01*
G01*
X67206Y157631D01*
G01*
X67224Y157507D01*
G01*
X67230Y157383D01*
G01*
X67230Y135736D01*
G01*
X67224Y135611D01*
G01*
X67206Y135488D01*
G01*
X67175Y135367D01*
G01*
X67133Y135250D01*
G01*
X67080Y135137D01*
G01*
X67016Y135030D01*
G01*
X66942Y134930D01*
G01*
X66858Y134838D01*
G01*
X66766Y134754D01*
G01*
X66666Y134680D01*
G01*
X66559Y134616D01*
G01*
X66446Y134562D01*
G01*
X66329Y134520D01*
G01*
X66208Y134490D01*
G01*
X66084Y134472D01*
G01*
X65960Y134466D01*
G01*
X65960Y134466D01*
G01*
X65836Y134472D01*
G01*
X65712Y134490D01*
G01*
X65591Y134520D01*
G01*
X65474Y134562D01*
G01*
X65361Y134616D01*
G01*
X65254Y134680D01*
G01*
X65154Y134754D01*
G01*
X65062Y134838D01*
G01*
X64978Y134930D01*
G01*
X64904Y135030D01*
G01*
X64840Y135137D01*
G01*
X64787Y135250D01*
G01*
X64745Y135367D01*
G01*
X64714Y135488D01*
G01*
X64696Y135611D01*
G01*
X64690Y135736D01*
G01*
X64690Y157383D01*
G01*
X64690Y130736D02*
G75*
G01*
X64696Y130860D01*
G01*
X64714Y130983D01*
G01*
X64745Y131104D01*
G01*
X64787Y131222D01*
G01*
X64840Y131334D01*
G01*
X64904Y131441D01*
G01*
X64978Y131541D01*
G01*
X65062Y131634D01*
G01*
X65154Y131717D01*
G01*
X65254Y131792D01*
G01*
X65361Y131856D01*
G01*
X65474Y131909D01*
G01*
X65591Y131951D01*
G01*
X65712Y131981D01*
G01*
X65836Y132000D01*
G01*
X65960Y132006D01*
G01*
X65960Y132006D01*
G01*
X66084Y132000D01*
G01*
X66208Y131981D01*
G01*
X66329Y131951D01*
G01*
X66446Y131909D01*
G01*
X66559Y131856D01*
G01*
X66666Y131792D01*
G01*
X66766Y131717D01*
G01*
X66858Y131634D01*
G01*
X66942Y131541D01*
G01*
X67016Y131441D01*
G01*
X67080Y131334D01*
G01*
X67133Y131222D01*
G01*
X67175Y131104D01*
G01*
X67206Y130983D01*
G01*
X67224Y130860D01*
G01*
X67230Y130736D01*
G01*
X67230Y109089D01*
G01*
X67224Y108964D01*
G01*
X67206Y108841D01*
G01*
X67175Y108720D01*
G01*
X67133Y108603D01*
G01*
X67080Y108490D01*
G01*
X67016Y108383D01*
G01*
X66942Y108283D01*
G01*
X66858Y108191D01*
G01*
X66766Y108107D01*
G01*
X66666Y108033D01*
G01*
X66559Y107969D01*
G01*
X66446Y107915D01*
G01*
X66329Y107873D01*
G01*
X66208Y107843D01*
G01*
X66084Y107825D01*
G01*
X65960Y107819D01*
G01*
X65960Y107819D01*
G01*
X65836Y107825D01*
G01*
X65712Y107843D01*
G01*
X65591Y107873D01*
G01*
X65474Y107915D01*
G01*
X65361Y107969D01*
G01*
X65254Y108033D01*
G01*
X65154Y108107D01*
G01*
X65062Y108191D01*
G01*
X64978Y108283D01*
G01*
X64904Y108383D01*
G01*
X64840Y108490D01*
G01*
X64787Y108603D01*
G01*
X64745Y108720D01*
G01*
X64714Y108841D01*
G01*
X64696Y108964D01*
G01*
X64690Y109089D01*
G01*
X64690Y130736D01*
G01*
X64690Y50794D02*
G75*
G01*
X64696Y50919D01*
G01*
X64714Y51042D01*
G01*
X64745Y51163D01*
G01*
X64787Y51280D01*
G01*
X64840Y51393D01*
G01*
X64904Y51500D01*
G01*
X64978Y51600D01*
G01*
X65062Y51692D01*
G01*
X65154Y51776D01*
G01*
X65254Y51850D01*
G01*
X65361Y51914D01*
G01*
X65474Y51968D01*
G01*
X65591Y52010D01*
G01*
X65712Y52040D01*
G01*
X65836Y52058D01*
G01*
X65960Y52064D01*
G01*
X65960Y52064D01*
G01*
X66084Y52058D01*
G01*
X66208Y52040D01*
G01*
X66329Y52010D01*
G01*
X66446Y51968D01*
G01*
X66559Y51914D01*
G01*
X66666Y51850D01*
G01*
X66766Y51776D01*
G01*
X66858Y51692D01*
G01*
X66942Y51600D01*
G01*
X67016Y51500D01*
G01*
X67080Y51393D01*
G01*
X67133Y51280D01*
G01*
X67175Y51163D01*
G01*
X67206Y51042D01*
G01*
X67224Y50919D01*
G01*
X67230Y50794D01*
G01*
X67230Y29147D01*
G01*
X67224Y29023D01*
G01*
X67206Y28899D01*
G01*
X67175Y28778D01*
G01*
X67133Y28661D01*
G01*
X67080Y28548D01*
G01*
X67016Y28442D01*
G01*
X66942Y28341D01*
G01*
X66858Y28249D01*
G01*
X66766Y28165D01*
G01*
X66666Y28091D01*
G01*
X66559Y28027D01*
G01*
X66446Y27974D01*
G01*
X66329Y27932D01*
G01*
X66208Y27902D01*
G01*
X66084Y27883D01*
G01*
X65960Y27877D01*
G01*
X65960Y27877D01*
G01*
X65836Y27883D01*
G01*
X65712Y27902D01*
G01*
X65591Y27932D01*
G01*
X65474Y27974D01*
G01*
X65361Y28027D01*
G01*
X65254Y28091D01*
G01*
X65154Y28165D01*
G01*
X65062Y28249D01*
G01*
X64978Y28341D01*
G01*
X64904Y28442D01*
G01*
X64840Y28548D01*
G01*
X64787Y28661D01*
G01*
X64745Y28778D01*
G01*
X64714Y28899D01*
G01*
X64696Y29023D01*
G01*
X64690Y29147D01*
G01*
X64690Y50794D01*
G01*
X50268Y7540D02*
G75*
G01*
X50392Y7534D01*
G01*
X50516Y7516D01*
G01*
X50637Y7485D01*
G01*
X50754Y7443D01*
G01*
X50867Y7390D01*
G01*
X50974Y7326D01*
G01*
X51074Y7252D01*
G01*
X51166Y7168D01*
G01*
X51250Y7076D01*
G01*
X51324Y6976D01*
G01*
X51388Y6869D01*
G01*
X51441Y6756D01*
G01*
X51483Y6639D01*
G01*
X51514Y6518D01*
G01*
X51532Y6394D01*
G01*
X51538Y6270D01*
G01*
X51532Y6146D01*
G01*
X51514Y6022D01*
G01*
X51483Y5901D01*
G01*
X51441Y5784D01*
G01*
X51388Y5671D01*
G01*
X51324Y5564D01*
G01*
X51250Y5464D01*
G01*
X51166Y5372D01*
G01*
X51074Y5288D01*
G01*
X50974Y5214D01*
G01*
X50867Y5150D01*
G01*
X50754Y5097D01*
G01*
X50637Y5055D01*
G01*
X50516Y5024D01*
G01*
X50392Y5006D01*
G01*
X50268Y5000D01*
G01*
X28884Y5000D01*
G01*
X28760Y5006D01*
G01*
X28636Y5024D01*
G01*
X28515Y5055D01*
G01*
X28398Y5097D01*
G01*
X28285Y5150D01*
G01*
X28178Y5214D01*
G01*
X28078Y5288D01*
G01*
X27986Y5372D01*
G01*
X27902Y5464D01*
G01*
X27828Y5564D01*
G01*
X27764Y5671D01*
G01*
X27711Y5784D01*
G01*
X27669Y5901D01*
G01*
X27638Y6022D01*
G01*
X27620Y6146D01*
G01*
X27614Y6270D01*
G01*
X27620Y6394D01*
G01*
X27638Y6518D01*
G01*
X27669Y6639D01*
G01*
X27711Y6756D01*
G01*
X27764Y6869D01*
G01*
X27828Y6976D01*
G01*
X27902Y7076D01*
G01*
X27986Y7168D01*
G01*
X28078Y7252D01*
G01*
X28178Y7326D01*
G01*
X28285Y7390D01*
G01*
X28398Y7443D01*
G01*
X28515Y7485D01*
G01*
X28636Y7516D01*
G01*
X28760Y7534D01*
G01*
X28884Y7540D01*
G01*
X50268Y7540D01*
G01*
X28884Y178990D02*
G75*
G01*
X28760Y178996D01*
G01*
X28636Y179014D01*
G01*
X28515Y179045D01*
G01*
X28398Y179087D01*
G01*
X28285Y179140D01*
G01*
X28178Y179204D01*
G01*
X28078Y179278D01*
G01*
X27986Y179362D01*
G01*
X27902Y179454D01*
G01*
X27828Y179554D01*
G01*
X27764Y179661D01*
G01*
X27711Y179774D01*
G01*
X27669Y179891D01*
G01*
X27638Y180012D01*
G01*
X27620Y180136D01*
G01*
X27614Y180260D01*
G01*
X27620Y180384D01*
G01*
X27638Y180508D01*
G01*
X27669Y180629D01*
G01*
X27711Y180746D01*
G01*
X27764Y180859D01*
G01*
X27828Y180966D01*
G01*
X27902Y181066D01*
G01*
X27986Y181158D01*
G01*
X28078Y181242D01*
G01*
X28178Y181316D01*
G01*
X28285Y181380D01*
G01*
X28398Y181433D01*
G01*
X28515Y181475D01*
G01*
X28636Y181506D01*
G01*
X28760Y181524D01*
G01*
X28884Y181530D01*
G01*
X50268Y181530D01*
G01*
X50392Y181524D01*
G01*
X50516Y181506D01*
G01*
X50637Y181475D01*
G01*
X50754Y181433D01*
G01*
X50867Y181380D01*
G01*
X50974Y181316D01*
G01*
X51074Y181242D01*
G01*
X51166Y181158D01*
G01*
X51250Y181066D01*
G01*
X51324Y180966D01*
G01*
X51388Y180859D01*
G01*
X51441Y180746D01*
G01*
X51483Y180629D01*
G01*
X51514Y180508D01*
G01*
X51532Y180384D01*
G01*
X51538Y180260D01*
G01*
X51532Y180136D01*
G01*
X51514Y180012D01*
G01*
X51483Y179891D01*
G01*
X51441Y179774D01*
G01*
X51388Y179661D01*
G01*
X51324Y179554D01*
G01*
X51250Y179454D01*
G01*
X51166Y179362D01*
G01*
X51074Y179278D01*
G01*
X50974Y179204D01*
G01*
X50867Y179140D01*
G01*
X50754Y179087D01*
G01*
X50637Y179045D01*
G01*
X50516Y179014D01*
G01*
X50392Y178996D01*
G01*
X50268Y178990D01*
G01*
X28884Y178990D01*
G01*
X27614Y65960D02*
G75*
G01*
X27614Y65960D01*
G01*
X27620Y66084D01*
G01*
X27638Y66208D01*
G01*
X27669Y66329D01*
G01*
X27711Y66446D01*
G01*
X27764Y66559D01*
G01*
X27828Y66666D01*
G01*
X27902Y66766D01*
G01*
X27986Y66858D01*
G01*
X28078Y66942D01*
G01*
X28178Y67016D01*
G01*
X28285Y67080D01*
G01*
X28398Y67133D01*
G01*
X28515Y67175D01*
G01*
X28636Y67206D01*
G01*
X28760Y67224D01*
G01*
X28884Y67230D01*
G01*
X50268Y67230D01*
G01*
X50392Y67224D01*
G01*
X50516Y67206D01*
G01*
X50637Y67175D01*
G01*
X50754Y67133D01*
G01*
X50867Y67080D01*
G01*
X50974Y67016D01*
G01*
X51074Y66942D01*
G01*
X51166Y66858D01*
G01*
X51250Y66766D01*
G01*
X51324Y66666D01*
G01*
X51388Y66559D01*
G01*
X51441Y66446D01*
G01*
X51483Y66329D01*
G01*
X51514Y66208D01*
G01*
X51532Y66084D01*
G01*
X51538Y65960D01*
G01*
X51538Y65960D01*
G01*
X51532Y65836D01*
G01*
X51514Y65712D01*
G01*
X51483Y65591D01*
G01*
X51441Y65474D01*
G01*
X51388Y65361D01*
G01*
X51324Y65254D01*
G01*
X51250Y65154D01*
G01*
X51166Y65062D01*
G01*
X51074Y64978D01*
G01*
X50974Y64904D01*
G01*
X50867Y64840D01*
G01*
X50754Y64787D01*
G01*
X50637Y64745D01*
G01*
X50516Y64714D01*
G01*
X50392Y64696D01*
G01*
X50268Y64690D01*
G01*
X28884Y64690D01*
G01*
X28760Y64696D01*
G01*
X28636Y64714D01*
G01*
X28515Y64745D01*
G01*
X28398Y64787D01*
G01*
X28285Y64840D01*
G01*
X28178Y64904D01*
G01*
X28078Y64978D01*
G01*
X27986Y65062D01*
G01*
X27902Y65154D01*
G01*
X27828Y65254D01*
G01*
X27764Y65361D01*
G01*
X27711Y65474D01*
G01*
X27669Y65591D01*
G01*
X27638Y65712D01*
G01*
X27620Y65836D01*
G01*
X27614Y65960D01*
G01*
X5000Y6270D02*
G75*
G01*
X5000Y24147D01*
G01*
X5006Y24272D01*
G01*
X5024Y24395D01*
G01*
X5055Y24516D01*
G01*
X5097Y24633D01*
G01*
X5150Y24746D01*
G01*
X5214Y24853D01*
G01*
X5288Y24953D01*
G01*
X5372Y25045D01*
G01*
X5464Y25129D01*
G01*
X5564Y25203D01*
G01*
X5671Y25267D01*
G01*
X5784Y25320D01*
G01*
X5901Y25362D01*
G01*
X6022Y25393D01*
G01*
X6146Y25411D01*
G01*
X6270Y25417D01*
G01*
X6394Y25411D01*
G01*
X6518Y25393D01*
G01*
X6639Y25362D01*
G01*
X6756Y25320D01*
G01*
X6869Y25267D01*
G01*
X6976Y25203D01*
G01*
X7076Y25129D01*
G01*
X7168Y25045D01*
G01*
X7252Y24953D01*
G01*
X7326Y24853D01*
G01*
X7390Y24746D01*
G01*
X7443Y24633D01*
G01*
X7485Y24516D01*
G01*
X7516Y24395D01*
G01*
X7534Y24272D01*
G01*
X7540Y24147D01*
G01*
X7540Y7540D01*
G01*
X23884Y7540D01*
G01*
X24008Y7534D01*
G01*
X24132Y7516D01*
G01*
X24253Y7485D01*
G01*
X24370Y7443D01*
G01*
X24483Y7390D01*
G01*
X24590Y7326D01*
G01*
X24690Y7252D01*
G01*
X24782Y7168D01*
G01*
X24866Y7076D01*
G01*
X24940Y6976D01*
G01*
X25004Y6869D01*
G01*
X25057Y6756D01*
G01*
X25099Y6639D01*
G01*
X25130Y6518D01*
G01*
X25148Y6394D01*
G01*
X25154Y6270D01*
G01*
X25148Y6146D01*
G01*
X25130Y6022D01*
G01*
X25099Y5901D01*
G01*
X25057Y5784D01*
G01*
X25004Y5671D01*
G01*
X24940Y5564D01*
G01*
X24866Y5464D01*
G01*
X24782Y5372D01*
G01*
X24690Y5288D01*
G01*
X24590Y5214D01*
G01*
X24483Y5150D01*
G01*
X24370Y5097D01*
G01*
X24253Y5055D01*
G01*
X24132Y5024D01*
G01*
X24008Y5006D01*
G01*
X23884Y5000D01*
G01*
X6270Y5000D01*
G01*
X6146Y5006D01*
G01*
X6022Y5024D01*
G01*
X5901Y5055D01*
G01*
X5784Y5097D01*
G01*
X5685Y5144D01*
G01*
X5671Y5150D01*
G01*
X5671Y5150D01*
G01*
X5618Y5182D01*
G01*
X5564Y5214D01*
G01*
X5564Y5214D01*
G01*
X5564Y5214D01*
G01*
X5477Y5279D01*
G01*
X5464Y5288D01*
G01*
X5464Y5288D01*
G01*
X5432Y5317D01*
G01*
X5372Y5372D01*
G01*
X5288Y5464D01*
G01*
X5214Y5564D01*
G01*
X5188Y5607D01*
G01*
X5150Y5671D01*
G01*
X5110Y5756D01*
G01*
X5097Y5784D01*
G01*
X5097Y5784D01*
G01*
X5097Y5784D01*
G01*
X5088Y5808D01*
G01*
X5055Y5901D01*
G01*
X5024Y6022D01*
G01*
X5024Y6022D01*
G01*
X5023Y6034D01*
G01*
X5006Y6146D01*
G01*
X5000Y6270D01*
G01*
X5000Y6270D01*
G01*
X7540Y178990D02*
G75*
G01*
X7540Y162383D01*
G01*
X7534Y162258D01*
G01*
X7516Y162135D01*
G01*
X7485Y162014D01*
G01*
X7443Y161897D01*
G01*
X7390Y161784D01*
G01*
X7326Y161677D01*
G01*
X7252Y161577D01*
G01*
X7168Y161485D01*
G01*
X7076Y161401D01*
G01*
X6976Y161327D01*
G01*
X6869Y161263D01*
G01*
X6756Y161210D01*
G01*
X6639Y161168D01*
G01*
X6518Y161137D01*
G01*
X6394Y161119D01*
G01*
X6270Y161113D01*
G01*
X6146Y161119D01*
G01*
X6022Y161137D01*
G01*
X5901Y161168D01*
G01*
X5784Y161210D01*
G01*
X5671Y161263D01*
G01*
X5564Y161327D01*
G01*
X5464Y161401D01*
G01*
X5372Y161485D01*
G01*
X5288Y161577D01*
G01*
X5214Y161677D01*
G01*
X5150Y161784D01*
G01*
X5097Y161897D01*
G01*
X5055Y162014D01*
G01*
X5024Y162135D01*
G01*
X5006Y162258D01*
G01*
X5000Y162383D01*
G01*
X5000Y180260D01*
G01*
X5006Y180384D01*
G01*
X5024Y180508D01*
G01*
X5055Y180629D01*
G01*
X5097Y180746D01*
G01*
X5150Y180859D01*
G01*
X5214Y180966D01*
G01*
X5288Y181066D01*
G01*
X5372Y181158D01*
G01*
X5464Y181242D01*
G01*
X5564Y181316D01*
G01*
X5671Y181380D01*
G01*
X5784Y181433D01*
G01*
X5901Y181475D01*
G01*
X6022Y181506D01*
G01*
X6146Y181524D01*
G01*
X6270Y181530D01*
G01*
X23884Y181530D01*
G01*
X24008Y181524D01*
G01*
X24132Y181506D01*
G01*
X24253Y181475D01*
G01*
X24370Y181433D01*
G01*
X24483Y181380D01*
G01*
X24590Y181316D01*
G01*
X24690Y181242D01*
G01*
X24782Y181158D01*
G01*
X24866Y181066D01*
G01*
X24940Y180966D01*
G01*
X25004Y180859D01*
G01*
X25057Y180746D01*
G01*
X25099Y180629D01*
G01*
X25130Y180508D01*
G01*
X25148Y180384D01*
G01*
X25154Y180260D01*
G01*
X25148Y180136D01*
G01*
X25130Y180012D01*
G01*
X25099Y179891D01*
G01*
X25057Y179774D01*
G01*
X25004Y179661D01*
G01*
X24940Y179554D01*
G01*
X24866Y179454D01*
G01*
X24782Y179362D01*
G01*
X24690Y179278D01*
G01*
X24590Y179204D01*
G01*
X24483Y179140D01*
G01*
X24370Y179087D01*
G01*
X24253Y179045D01*
G01*
X24132Y179014D01*
G01*
X24008Y178996D01*
G01*
X23884Y178990D01*
G01*
X7540Y178990D01*
G01*
X5000Y65960D02*
G75*
G01*
X5000Y77441D01*
G01*
X5006Y77566D01*
G01*
X5024Y77689D01*
G01*
X5055Y77810D01*
G01*
X5097Y77927D01*
G01*
X5150Y78040D01*
G01*
X5214Y78147D01*
G01*
X5288Y78247D01*
G01*
X5372Y78339D01*
G01*
X5464Y78423D01*
G01*
X5564Y78497D01*
G01*
X5671Y78561D01*
G01*
X5784Y78615D01*
G01*
X5901Y78657D01*
G01*
X6022Y78687D01*
G01*
X6146Y78705D01*
G01*
X6270Y78711D01*
G01*
X6394Y78705D01*
G01*
X6518Y78687D01*
G01*
X6639Y78657D01*
G01*
X6756Y78615D01*
G01*
X6869Y78561D01*
G01*
X6976Y78497D01*
G01*
X7076Y78423D01*
G01*
X7168Y78339D01*
G01*
X7252Y78247D01*
G01*
X7326Y78147D01*
G01*
X7390Y78040D01*
G01*
X7443Y77927D01*
G01*
X7485Y77810D01*
G01*
X7516Y77689D01*
G01*
X7534Y77566D01*
G01*
X7540Y77441D01*
G01*
X7540Y67230D01*
G01*
X23884Y67230D01*
G01*
X24008Y67224D01*
G01*
X24132Y67206D01*
G01*
X24253Y67175D01*
G01*
X24370Y67133D01*
G01*
X24483Y67080D01*
G01*
X24590Y67016D01*
G01*
X24690Y66942D01*
G01*
X24782Y66858D01*
G01*
X24866Y66766D01*
G01*
X24940Y66666D01*
G01*
X25004Y66559D01*
G01*
X25057Y66446D01*
G01*
X25099Y66329D01*
G01*
X25130Y66208D01*
G01*
X25148Y66084D01*
G01*
X25154Y65960D01*
G01*
X25154Y65960D01*
G01*
X25148Y65836D01*
G01*
X25130Y65712D01*
G01*
X25099Y65591D01*
G01*
X25057Y65474D01*
G01*
X25004Y65361D01*
G01*
X24940Y65254D01*
G01*
X24866Y65154D01*
G01*
X24782Y65062D01*
G01*
X24690Y64978D01*
G01*
X24590Y64904D01*
G01*
X24483Y64840D01*
G01*
X24370Y64787D01*
G01*
X24253Y64745D01*
G01*
X24132Y64714D01*
G01*
X24008Y64696D01*
G01*
X23884Y64690D01*
G01*
X7540Y64690D01*
G01*
X7540Y55794D01*
G01*
X7534Y55670D01*
G01*
X7516Y55547D01*
G01*
X7485Y55426D01*
G01*
X7443Y55308D01*
G01*
X7390Y55196D01*
G01*
X7326Y55089D01*
G01*
X7252Y54989D01*
G01*
X7168Y54896D01*
G01*
X7076Y54813D01*
G01*
X6976Y54738D01*
G01*
X6869Y54674D01*
G01*
X6756Y54621D01*
G01*
X6639Y54579D01*
G01*
X6518Y54549D01*
G01*
X6394Y54530D01*
G01*
X6270Y54524D01*
G01*
X6146Y54530D01*
G01*
X6022Y54549D01*
G01*
X5901Y54579D01*
G01*
X5784Y54621D01*
G01*
X5671Y54674D01*
G01*
X5564Y54738D01*
G01*
X5464Y54813D01*
G01*
X5372Y54896D01*
G01*
X5288Y54989D01*
G01*
X5214Y55089D01*
G01*
X5150Y55196D01*
G01*
X5097Y55308D01*
G01*
X5055Y55426D01*
G01*
X5024Y55547D01*
G01*
X5006Y55670D01*
G01*
X5000Y55794D01*
G01*
X5000Y65960D01*
G01*
X5000Y65960D01*
G01*
X7540Y135736D02*
G75*
G01*
X7534Y135611D01*
G01*
X7516Y135488D01*
G01*
X7485Y135367D01*
G01*
X7443Y135250D01*
G01*
X7390Y135137D01*
G01*
X7326Y135030D01*
G01*
X7252Y134930D01*
G01*
X7168Y134838D01*
G01*
X7076Y134754D01*
G01*
X6976Y134680D01*
G01*
X6869Y134616D01*
G01*
X6756Y134562D01*
G01*
X6639Y134520D01*
G01*
X6518Y134490D01*
G01*
X6394Y134472D01*
G01*
X6270Y134466D01*
G01*
X6146Y134472D01*
G01*
X6022Y134490D01*
G01*
X5901Y134520D01*
G01*
X5784Y134562D01*
G01*
X5671Y134616D01*
G01*
X5564Y134680D01*
G01*
X5464Y134754D01*
G01*
X5372Y134838D01*
G01*
X5288Y134930D01*
G01*
X5214Y135030D01*
G01*
X5150Y135137D01*
G01*
X5097Y135250D01*
G01*
X5055Y135367D01*
G01*
X5024Y135488D01*
G01*
X5006Y135611D01*
G01*
X5000Y135736D01*
G01*
X5000Y157383D01*
G01*
X5006Y157507D01*
G01*
X5024Y157631D01*
G01*
X5055Y157752D01*
G01*
X5097Y157869D01*
G01*
X5150Y157982D01*
G01*
X5214Y158088D01*
G01*
X5288Y158189D01*
G01*
X5372Y158281D01*
G01*
X5464Y158365D01*
G01*
X5564Y158439D01*
G01*
X5671Y158503D01*
G01*
X5784Y158556D01*
G01*
X5901Y158598D01*
G01*
X6022Y158628D01*
G01*
X6146Y158647D01*
G01*
X6270Y158653D01*
G01*
X6394Y158647D01*
G01*
X6518Y158628D01*
G01*
X6639Y158598D01*
G01*
X6756Y158556D01*
G01*
X6869Y158503D01*
G01*
X6976Y158439D01*
G01*
X7076Y158365D01*
G01*
X7168Y158281D01*
G01*
X7252Y158189D01*
G01*
X7326Y158088D01*
G01*
X7390Y157982D01*
G01*
X7443Y157869D01*
G01*
X7485Y157752D01*
G01*
X7516Y157631D01*
G01*
X7534Y157507D01*
G01*
X7540Y157383D01*
G01*
X7540Y135736D01*
G01*
X7540Y109089D02*
G75*
G01*
X7534Y108964D01*
G01*
X7516Y108841D01*
G01*
X7485Y108720D01*
G01*
X7443Y108603D01*
G01*
X7390Y108490D01*
G01*
X7326Y108383D01*
G01*
X7252Y108283D01*
G01*
X7168Y108191D01*
G01*
X7076Y108107D01*
G01*
X6976Y108033D01*
G01*
X6869Y107969D01*
G01*
X6756Y107915D01*
G01*
X6639Y107873D01*
G01*
X6518Y107843D01*
G01*
X6394Y107825D01*
G01*
X6270Y107819D01*
G01*
X6146Y107825D01*
G01*
X6022Y107843D01*
G01*
X5901Y107873D01*
G01*
X5784Y107915D01*
G01*
X5671Y107969D01*
G01*
X5564Y108033D01*
G01*
X5464Y108107D01*
G01*
X5372Y108191D01*
G01*
X5288Y108283D01*
G01*
X5214Y108383D01*
G01*
X5150Y108490D01*
G01*
X5097Y108603D01*
G01*
X5055Y108720D01*
G01*
X5024Y108841D01*
G01*
X5006Y108964D01*
G01*
X5000Y109089D01*
G01*
X5000Y130736D01*
G01*
X5006Y130860D01*
G01*
X5024Y130983D01*
G01*
X5055Y131104D01*
G01*
X5097Y131222D01*
G01*
X5150Y131334D01*
G01*
X5214Y131441D01*
G01*
X5288Y131541D01*
G01*
X5372Y131634D01*
G01*
X5464Y131717D01*
G01*
X5564Y131792D01*
G01*
X5671Y131856D01*
G01*
X5784Y131909D01*
G01*
X5901Y131951D01*
G01*
X6022Y131981D01*
G01*
X6146Y132000D01*
G01*
X6270Y132006D01*
G01*
X6394Y132000D01*
G01*
X6518Y131981D01*
G01*
X6639Y131951D01*
G01*
X6756Y131909D01*
G01*
X6869Y131856D01*
G01*
X6976Y131792D01*
G01*
X7076Y131717D01*
G01*
X7168Y131634D01*
G01*
X7252Y131541D01*
G01*
X7326Y131441D01*
G01*
X7390Y131334D01*
G01*
X7443Y131222D01*
G01*
X7485Y131104D01*
G01*
X7516Y130983D01*
G01*
X7534Y130860D01*
G01*
X7540Y130736D01*
G01*
X7540Y109089D01*
G01*
X7540Y82441D02*
G75*
G01*
X7534Y82317D01*
G01*
X7516Y82194D01*
G01*
X7485Y82073D01*
G01*
X7443Y81955D01*
G01*
X7390Y81843D01*
G01*
X7326Y81736D01*
G01*
X7252Y81636D01*
G01*
X7168Y81543D01*
G01*
X7076Y81460D01*
G01*
X6976Y81385D01*
G01*
X6869Y81321D01*
G01*
X6756Y81268D01*
G01*
X6639Y81226D01*
G01*
X6518Y81196D01*
G01*
X6394Y81178D01*
G01*
X6270Y81171D01*
G01*
X6146Y81178D01*
G01*
X6022Y81196D01*
G01*
X5901Y81226D01*
G01*
X5784Y81268D01*
G01*
X5671Y81321D01*
G01*
X5564Y81385D01*
G01*
X5464Y81460D01*
G01*
X5372Y81543D01*
G01*
X5288Y81636D01*
G01*
X5214Y81736D01*
G01*
X5150Y81843D01*
G01*
X5097Y81955D01*
G01*
X5055Y82073D01*
G01*
X5024Y82194D01*
G01*
X5006Y82317D01*
G01*
X5000Y82441D01*
G01*
X5000Y104089D01*
G01*
X5006Y104213D01*
G01*
X5024Y104336D01*
G01*
X5055Y104457D01*
G01*
X5097Y104575D01*
G01*
X5150Y104687D01*
G01*
X5214Y104794D01*
G01*
X5288Y104894D01*
G01*
X5372Y104987D01*
G01*
X5464Y105070D01*
G01*
X5564Y105145D01*
G01*
X5671Y105209D01*
G01*
X5784Y105262D01*
G01*
X5901Y105304D01*
G01*
X6022Y105334D01*
G01*
X6146Y105352D01*
G01*
X6270Y105359D01*
G01*
X6394Y105352D01*
G01*
X6518Y105334D01*
G01*
X6639Y105304D01*
G01*
X6756Y105262D01*
G01*
X6869Y105209D01*
G01*
X6976Y105145D01*
G01*
X7076Y105070D01*
G01*
X7168Y104987D01*
G01*
X7252Y104894D01*
G01*
X7326Y104794D01*
G01*
X7390Y104687D01*
G01*
X7443Y104575D01*
G01*
X7485Y104457D01*
G01*
X7516Y104336D01*
G01*
X7534Y104213D01*
G01*
X7540Y104089D01*
G01*
X7540Y82441D01*
G01*
X7540Y29147D02*
G75*
G01*
X7534Y29023D01*
G01*
X7516Y28899D01*
G01*
X7485Y28778D01*
G01*
X7443Y28661D01*
G01*
X7390Y28548D01*
G01*
X7326Y28442D01*
G01*
X7252Y28341D01*
G01*
X7168Y28249D01*
G01*
X7076Y28165D01*
G01*
X6976Y28091D01*
G01*
X6869Y28027D01*
G01*
X6756Y27974D01*
G01*
X6639Y27932D01*
G01*
X6518Y27902D01*
G01*
X6394Y27883D01*
G01*
X6270Y27877D01*
G01*
X6146Y27883D01*
G01*
X6022Y27902D01*
G01*
X5901Y27932D01*
G01*
X5784Y27974D01*
G01*
X5671Y28027D01*
G01*
X5564Y28091D01*
G01*
X5464Y28165D01*
G01*
X5372Y28249D01*
G01*
X5288Y28341D01*
G01*
X5214Y28442D01*
G01*
X5150Y28548D01*
G01*
X5097Y28661D01*
G01*
X5055Y28778D01*
G01*
X5024Y28899D01*
G01*
X5006Y29023D01*
G01*
X5000Y29147D01*
G01*
X5000Y50794D01*
G01*
X5006Y50919D01*
G01*
X5024Y51042D01*
G01*
X5055Y51163D01*
G01*
X5097Y51280D01*
G01*
X5150Y51393D01*
G01*
X5214Y51500D01*
G01*
X5288Y51600D01*
G01*
X5372Y51692D01*
G01*
X5464Y51776D01*
G01*
X5564Y51850D01*
G01*
X5671Y51914D01*
G01*
X5784Y51968D01*
G01*
X5901Y52010D01*
G01*
X6022Y52040D01*
G01*
X6146Y52058D01*
G01*
X6270Y52064D01*
G01*
X6394Y52058D01*
G01*
X6518Y52040D01*
G01*
X6639Y52010D01*
G01*
X6756Y51968D01*
G01*
X6869Y51914D01*
G01*
X6976Y51850D01*
G01*
X7076Y51776D01*
G01*
X7168Y51692D01*
G01*
X7252Y51600D01*
G01*
X7326Y51500D01*
G01*
X7390Y51393D01*
G01*
X7443Y51280D01*
G01*
X7485Y51163D01*
G01*
X7516Y51042D01*
G01*
X7534Y50919D01*
G01*
X7540Y50794D01*
G01*
X7540Y29147D01*
M02*
