M48
FMAT,2
ICI,OFF
METRIC,TZ,000.000
T01C0.254
T02C0.330
T03C0.350
T04C0.500
T05C1.125
T06C1.224
T07C2.600
T08C0.203
T09C1.016
T10C0.381
T11C0.406
T12C0.599
T13C0.624
T14C0.635
T15C0.701
T16C0.723
T17C0.800
T18C0.914
T19C1.099
T20C1.198
T21C2.148
T22C3.175
T23C0.304
T24C0.355
T25C0.609
%
G90
M71
T01
X015635Y018175
X017195Y008631
X017667Y017667
X008631Y017195
X019953Y017667
X020425Y008631
X019953Y019953
X008631Y020425
X017667Y019953
X015635Y020715
X015635Y023255
X015635Y025795
X015635Y028335
X015635Y030875
X015635Y033415
X008631Y030621
X018302Y030113
X021223Y031002
X023001Y009647
X020969Y026811
X020969Y025541
X023001Y026176
X009186Y009393
X009313Y009393
X007694Y009393
X009567Y009393
X009694Y025795
X009821Y025795
X009948Y025795
X010075Y025795
X010202Y025795
X010329Y009393
X010456Y025795
X010583Y025795
X007821Y025795
X010837Y025795
X010964Y009393
X011091Y009393
X011218Y025795
X011345Y025795
X011472Y025795
X011599Y025795
X011726Y025795
X011853Y009393
X007948Y025795
X012107Y025795
X012234Y025795
X012361Y009393
X012488Y009393
X012615Y009393
X012742Y009393
X012869Y009393
X059326Y024906
X059326Y021858
X060324Y021858
X061325Y021858
X060824Y020842
X059826Y020842
X058825Y020842
X057824Y020842
X057324Y021223
X056326Y020842
X055825Y021223
X054825Y020842
X054324Y021223
X053824Y021858
X053326Y020842
X052826Y021223
X052325Y021858
X051825Y020842
X051325Y021223
X050824Y021858
X050324Y020842
X049826Y021223
X049326Y021858
X048825Y020842
X048325Y021223
X047824Y021858
X047324Y020842
X046826Y021223
X046326Y021858
X045825Y020842
X045325Y021223
X044825Y021858
X044324Y020842
X043824Y021223
X043326Y021858
X042826Y020842
X042325Y021223
X041825Y021858
X041325Y020842
X040824Y021223
X040324Y021858
X039826Y020842
X039326Y021223
X038825Y021858
X038325Y020842
X037824Y021223
X037324Y021858
X036826Y020842
X036326Y021223
X010329Y021858
X035325Y020842
X034825Y021223
X034324Y021858
X033824Y020842
X033326Y021223
X032826Y021858
X032325Y020842
X031825Y021223
X031325Y021858
X030824Y020842
X030324Y021223
X029826Y021858
X029326Y020842
X028825Y021223
X027578Y020715
X028325Y008504
X029826Y008504
X031325Y008504
X032826Y008504
X034324Y008504
X033415Y015635
X035955Y015635
X037324Y008504
X038825Y008504
X040324Y008504
X041825Y008504
X043326Y008504
X044825Y008504
X046326Y008504
X047824Y008504
X049326Y008504
X048655Y015635
X046115Y015635
X043575Y015635
X041035Y015635
X038495Y015635
X030875Y015635
X028335Y015635
X026826Y008504
X025795Y015635
X023255Y015635
X020715Y015635
X018175Y015635
X008377Y008377
X019128Y024004
X009694Y007702
X009821Y007702
X009948Y007702
X010075Y007702
X010202Y007702
X010456Y007702
X010583Y007702
X007821Y007702
X010837Y007702
X011218Y007702
X011345Y007702
X011472Y007702
X011599Y007702
X011726Y007702
X007948Y007702
X012107Y007702
X012234Y007702
X064911Y026176
X064911Y025541
X065038Y024271
X068589Y026557
X069229Y026557
X071515Y025795
X071515Y028335
X069229Y030113
X068594Y030113
X067959Y030113
X067324Y030113
X066689Y009647
X064893Y030113
X064893Y031002
X066689Y033415
X067324Y034558
X067959Y034558
X068594Y034558
X069229Y034558
X069229Y035447
X068594Y035447
X071515Y035955
X071515Y038495
X069229Y039003
X068594Y039003
X067959Y039003
X067324Y039003
X066689Y010536
X064893Y039003
X064324Y010946
X063181Y042432
X062709Y043575
X063181Y044718
X064324Y011269
X065467Y044718
X065942Y043575
X065467Y042432
X071515Y043575
X071515Y046115
X071515Y048655
X071515Y051195
X068848Y051449
X069102Y052401
X069102Y053036
X069102Y053672
X069102Y054306
X013711Y055259
X071515Y056275
X071515Y053735
X068848Y050143
X066689Y049861
X066689Y050496
X066689Y049226
X066689Y048591
X066181Y047766
X063387Y049226
X063387Y049861
X063387Y050496
X064428Y051576
X065038Y051576
X065546Y052401
X065546Y053036
X065546Y053672
X065546Y054306
X013123Y012314
X062714Y012314
X061952Y052719
X061228Y050951
X012742Y011933
X012615Y011933
X012615Y052719
X058015Y052719
X012488Y011933
X012361Y011933
X012234Y012695
X012107Y012695
X007948Y012695
X051411Y061355
X049823Y061355
X011599Y061355
X011472Y061355
X011345Y061355
X011218Y061355
X042775Y061355
X010837Y061355
X007821Y061355
X010583Y061355
X010456Y061355
X010329Y012822
X010202Y061355
X010075Y061355
X009948Y061355
X009821Y061355
X009694Y012822
X009567Y012822
X007694Y012822
X009313Y012822
X009186Y012822
X022239Y060974
X022239Y061609
X022239Y062879
X025825Y065292
X026826Y065292
X027824Y065292
X028825Y065292
X029326Y066308
X029826Y065927
X030324Y065292
X030824Y066308
X031325Y065927
X031825Y065292
X032325Y066308
X032826Y065927
X033326Y065292
X033824Y066308
X034324Y065927
X034825Y065292
X035325Y066308
X035825Y065927
X036326Y065292
X036826Y066308
X037324Y065927
X037824Y065292
X038325Y066308
X038825Y065927
X039326Y065292
X039826Y066308
X040324Y065927
X040743Y065292
X041325Y066308
X041825Y065927
X042325Y065292
X042826Y066308
X043326Y065927
X043824Y065292
X044324Y066308
X044825Y065927
X045325Y065292
X045825Y066308
X046326Y065927
X046826Y065292
X047324Y066308
X047824Y065927
X048325Y065292
X048825Y066308
X049326Y065927
X049826Y065292
X050324Y066308
X050824Y065927
X051325Y065292
X051825Y066308
X052325Y065927
X052826Y065292
X053326Y066308
X053824Y065927
X054324Y065292
X054825Y066308
X055325Y065899
X055825Y065292
X056326Y066308
X056826Y065899
X057324Y065292
X057824Y066308
X058325Y065899
X058942Y065292
X059328Y066821
X060824Y013457
X061325Y066308
X060324Y013711
X058825Y013711
X057324Y013711
X055825Y013711
X054324Y013711
X052826Y013711
X053735Y071515
X051195Y071515
X049826Y013711
X048325Y013711
X046826Y013711
X045325Y013711
X043824Y013711
X042325Y013711
X040824Y013711
X039326Y013711
X037824Y013711
X038495Y071515
X041035Y071515
X043575Y071515
X046115Y071515
X048655Y071515
X056275Y071515
X058815Y071515
X061355Y071515
X063895Y071515
X066435Y071515
X013584Y069955
X067197Y069483
X066725Y013584
X067197Y067197
X013584Y066725
X069483Y067197
X069955Y013584
X069483Y069483
X013838Y013838
X068975Y071515
X071515Y068975
X071515Y066435
X071515Y063895
X071515Y061355
X071515Y058815
X069102Y057799
X067705Y060085
X065635Y059132
X065673Y061482
X065165Y012949
X066372Y063636
X013015Y060085
X062015Y012822
X060872Y012822
X012615Y012822
X012488Y012822
X012361Y012822
X054967Y061355
X056689Y062117
X057824Y062117
X053189Y061355
X011726Y012695
X011599Y012695
X011472Y012695
X011345Y012695
X011218Y012695
X010837Y012695
X007821Y012695
X010583Y012695
X010456Y012695
X010202Y012695
X010075Y012695
X009948Y012695
X009821Y012695
X027824Y062244
X027324Y066308
X026326Y066308
X028325Y066308
X028825Y013711
X030324Y013711
X031825Y013711
X033326Y013711
X034825Y013711
X035955Y071515
X033415Y071515
X030875Y071515
X028335Y071515
X025795Y071515
X023255Y071515
X020715Y071515
X008631Y069955
X017667Y069483
X017195Y013584
X017667Y067197
X008631Y066725
X019953Y067197
X020425Y013584
X019953Y069483
X018175Y071515
X008377Y013838
X015635Y068975
X015635Y066435
X015635Y063895
X015635Y061355
X017921Y060593
X018561Y060593
X020461Y012568
X019826Y057037
X019191Y057037
X018556Y057037
X017921Y057037
X017921Y056148
X018556Y056148
X015635Y056275
X015635Y053735
X017921Y052592
X018556Y052592
X019191Y052592
X019826Y052592
X018556Y051703
X017921Y051703
X015635Y051195
X015635Y048655
X017921Y048147
X018556Y048147
X019191Y048147
X019826Y048147
X020461Y011679
X022257Y048147
X021185Y011269
X022328Y044718
X007653Y043575
X022328Y042432
X021185Y010946
X020042Y042432
X019569Y043575
X020042Y044718
X017375Y044845
X008424Y043575
X015635Y043575
X017375Y042305
X008424Y041035
X015635Y041035
X015635Y038495
X017921Y038114
X019953Y037606
X019953Y038622
X020969Y035447
X020969Y034431
X023001Y034939
X009186Y010282
X009313Y010282
X007694Y010282
X009567Y010282
X009694Y010282
X009821Y010282
X023019Y032762
X015635Y035955
X015635Y046115
X008424Y046115
X022257Y051703
X022257Y052592
X020461Y053735
X022257Y056148
X022257Y057037
X009186Y011933
X009313Y011933
X007694Y011933
X009567Y011933
X009694Y011933
X015635Y058815
X012361Y010282
X012488Y010282
X012615Y010282
X012742Y010282
X012869Y010282
X064893Y035447
X064893Y034558
X068594Y031002
X069229Y031002
X071515Y030875
X071515Y033415
X071515Y041035
X071515Y023255
X071515Y020715
X069483Y019953
X013584Y020425
X067197Y019953
X066725Y008631
X067197Y017667
X013584Y017195
X069483Y017667
X069955Y008631
X071515Y018175
X013838Y008377
X068975Y015635
X066435Y015635
X063895Y015635
X061355Y015635
X058815Y015635
X056275Y015635
X056826Y008504
X055325Y008504
X053824Y008504
X052325Y008504
X051195Y015635
X053735Y015635
X058325Y008504
X013584Y174979
X099733Y150533
X094653Y153073
X165635Y018175
X167195Y008631
X167667Y017667
X158631Y017195
X169953Y017667
X170425Y008631
X169953Y019953
X158631Y020425
X167667Y019953
X165635Y020715
X165635Y023255
X165635Y025795
X165635Y028335
X165635Y030875
X165635Y033415
X158631Y030621
X168302Y030113
X171223Y031002
X173001Y009647
X170969Y026811
X170969Y025541
X173001Y026176
X159186Y009393
X159313Y009393
X157694Y009393
X159567Y009393
X159694Y025795
X159821Y025795
X159948Y025795
X160075Y025795
X160202Y025795
X160329Y009393
X160456Y025795
X160583Y025795
X157821Y025795
X160837Y025795
X160964Y009393
X161091Y009393
X161218Y025795
X161345Y025795
X161472Y025795
X161599Y025795
X161726Y025795
X161853Y009393
X157948Y025795
X162107Y025795
X162234Y025795
X162361Y009393
X162488Y009393
X162615Y009393
X162742Y009393
X162869Y009393
X209326Y024906
X209326Y021858
X210324Y021858
X211325Y021858
X210824Y020842
X209826Y020842
X208825Y020842
X207824Y020842
X207324Y021223
X206326Y020842
X205825Y021223
X204825Y020842
X204324Y021223
X203824Y021858
X203326Y020842
X202826Y021223
X202325Y021858
X201825Y020842
X201325Y021223
X200824Y021858
X200324Y020842
X199826Y021223
X199326Y021858
X198825Y020842
X198325Y021223
X197824Y021858
X197324Y020842
X196826Y021223
X196326Y021858
X195825Y020842
X195325Y021223
X194825Y021858
X194324Y020842
X193824Y021223
X193326Y021858
X192826Y020842
X192325Y021223
X191825Y021858
X191325Y020842
X190824Y021223
X190324Y021858
X189826Y020842
X189326Y021223
X188825Y021858
X188325Y020842
X187824Y021223
X187324Y021858
X186826Y020842
X186326Y021223
X160329Y021858
X185325Y020842
X184825Y021223
X184324Y021858
X183824Y020842
X183326Y021223
X182826Y021858
X182325Y020842
X181825Y021223
X181325Y021858
X180824Y020842
X180324Y021223
X179826Y021858
X179326Y020842
X178825Y021223
X177578Y020715
X178325Y008504
X179826Y008504
X181325Y008504
X182826Y008504
X184324Y008504
X183415Y015635
X185955Y015635
X187324Y008504
X188825Y008504
X190324Y008504
X191825Y008504
X193326Y008504
X194825Y008504
X196326Y008504
X197824Y008504
X199326Y008504
X198655Y015635
X196115Y015635
X193575Y015635
X191035Y015635
X188495Y015635
X180875Y015635
X178335Y015635
X176826Y008504
X175795Y015635
X173255Y015635
X170715Y015635
X168175Y015635
X158377Y008377
X169128Y024004
X159694Y007702
X159821Y007702
X159948Y007702
X160075Y007702
X160202Y007702
X160456Y007702
X160583Y007702
X157821Y007702
X160837Y007702
X161218Y007702
X161345Y007702
X161472Y007702
X161599Y007702
X161726Y007702
X157948Y007702
X162107Y007702
X162234Y007702
X214911Y026176
X214911Y025541
X215038Y024271
X218589Y026557
X219229Y026557
X221515Y025795
X221515Y028335
X219229Y030113
X218594Y030113
X217959Y030113
X217324Y030113
X216689Y009647
X214893Y030113
X214893Y031002
X216689Y033415
X217324Y034558
X217959Y034558
X218594Y034558
X219229Y034558
X219229Y035447
X218594Y035447
X221515Y035955
X221515Y038495
X219229Y039003
X218594Y039003
X217959Y039003
X217324Y039003
X216689Y010536
X214893Y039003
X214324Y010946
X213181Y042432
X212709Y043575
X213181Y044718
X214324Y011269
X215467Y044718
X215942Y043575
X215467Y042432
X221515Y043575
X221515Y046115
X221515Y048655
X221515Y051195
X218848Y051449
X219102Y052401
X219102Y053036
X219102Y053672
X219102Y054306
X163711Y055259
X221515Y056275
X221515Y053735
X218848Y050143
X216689Y049861
X216689Y050496
X216689Y049226
X216689Y048591
X216181Y047766
X213387Y049226
X213387Y049861
X213387Y050496
X214428Y051576
X215038Y051576
X215546Y052401
X215546Y053036
X215546Y053672
X215546Y054306
X163123Y012314
X212714Y012314
X211952Y052719
X211228Y050951
X162742Y011933
X162615Y011933
X162615Y052719
X208015Y052719
X162488Y011933
X162361Y011933
X162234Y012695
X162107Y012695
X157948Y012695
X201411Y061355
X199823Y061355
X161599Y061355
X161472Y061355
X161345Y061355
X161218Y061355
X192775Y061355
X160837Y061355
X157821Y061355
X160583Y061355
X160456Y061355
X160329Y012822
X160202Y061355
X160075Y061355
X159948Y061355
X159821Y061355
X159694Y012822
X159567Y012822
X157694Y012822
X159313Y012822
X159186Y012822
X172239Y060974
X172239Y061609
X172239Y062879
X175825Y065292
X176826Y065292
X177824Y065292
X178825Y065292
X179326Y066308
X179826Y065927
X180324Y065292
X180824Y066308
X181325Y065927
X181825Y065292
X182325Y066308
X182826Y065927
X183326Y065292
X183824Y066308
X184324Y065927
X184825Y065292
X185325Y066308
X185825Y065927
X186326Y065292
X186826Y066308
X187324Y065927
X187824Y065292
X188325Y066308
X188825Y065927
X189326Y065292
X189826Y066308
X190324Y065927
X190743Y065292
X191325Y066308
X191825Y065927
X192325Y065292
X192826Y066308
X193326Y065927
X193824Y065292
X194324Y066308
X194825Y065927
X195325Y065292
X195825Y066308
X196326Y065927
X196826Y065292
X197324Y066308
X197824Y065927
X198325Y065292
X198825Y066308
X199326Y065927
X199826Y065292
X200324Y066308
X200824Y065927
X201325Y065292
X201825Y066308
X202325Y065927
X202826Y065292
X203326Y066308
X203824Y065927
X204324Y065292
X204825Y066308
X205325Y065899
X205825Y065292
X206326Y066308
X206826Y065899
X207324Y065292
X207824Y066308
X208325Y065899
X208942Y065292
X209328Y066821
X210824Y013457
X211325Y066308
X210324Y013711
X208825Y013711
X207324Y013711
X205825Y013711
X204324Y013711
X202826Y013711
X203735Y071515
X201195Y071515
X199826Y013711
X198325Y013711
X196826Y013711
X195325Y013711
X193824Y013711
X192325Y013711
X190824Y013711
X189326Y013711
X187824Y013711
X188495Y071515
X191035Y071515
X193575Y071515
X196115Y071515
X198655Y071515
X206275Y071515
X208815Y071515
X211355Y071515
X213895Y071515
X216435Y071515
X163584Y069955
X217197Y069483
X216725Y013584
X217197Y067197
X163584Y066725
X219483Y067197
X219955Y013584
X219483Y069483
X163838Y013838
X218975Y071515
X221515Y068975
X221515Y066435
X221515Y063895
X221515Y061355
X221515Y058815
X219102Y057799
X217705Y060085
X215635Y059132
X215673Y061482
X215165Y012949
X216372Y063636
X163015Y060085
X212015Y012822
X210872Y012822
X162615Y012822
X162488Y012822
X162361Y012822
X204967Y061355
X206689Y062117
X207824Y062117
X203189Y061355
X161726Y012695
X161599Y012695
X161472Y012695
X161345Y012695
X161218Y012695
X160837Y012695
X157821Y012695
X160583Y012695
X160456Y012695
X160202Y012695
X160075Y012695
X159948Y012695
X159821Y012695
X177824Y062244
X177324Y066308
X176326Y066308
X178325Y066308
X178825Y013711
X180324Y013711
X181825Y013711
X183326Y013711
X184825Y013711
X185955Y071515
X183415Y071515
X180875Y071515
X178335Y071515
X175795Y071515
X173255Y071515
X170715Y071515
X158631Y069955
X167667Y069483
X167195Y013584
X167667Y067197
X158631Y066725
X169953Y067197
X170425Y013584
X169953Y069483
X168175Y071515
X158377Y013838
X165635Y068975
X165635Y066435
X165635Y063895
X165635Y061355
X167921Y060593
X168561Y060593
X170461Y012568
X169826Y057037
X169191Y057037
X168556Y057037
X167921Y057037
X167921Y056148
X168556Y056148
X165635Y056275
X165635Y053735
X167921Y052592
X168556Y052592
X169191Y052592
X169826Y052592
X168556Y051703
X167921Y051703
X165635Y051195
X165635Y048655
X167921Y048147
X168556Y048147
X169191Y048147
X169826Y048147
X170461Y011679
X172257Y048147
X171185Y011269
X172328Y044718
X157653Y043575
X172328Y042432
X171185Y010946
X170042Y042432
X169569Y043575
X170042Y044718
X167375Y044845
X158424Y043575
X165635Y043575
X167375Y042305
X158424Y041035
X165635Y041035
X165635Y038495
X167921Y038114
X169953Y037606
X169953Y038622
X170969Y035447
X170969Y034431
X173001Y034939
X159186Y010282
X159313Y010282
X157694Y010282
X159567Y010282
X159694Y010282
X159821Y010282
X173019Y032762
X165635Y035955
X165635Y046115
X158424Y046115
X172257Y051703
X172257Y052592
X170461Y053735
X172257Y056148
X172257Y057037
X159186Y011933
X159313Y011933
X157694Y011933
X159567Y011933
X159694Y011933
X165635Y058815
X162361Y010282
X162488Y010282
X162615Y010282
X162742Y010282
X162869Y010282
X214893Y035447
X214893Y034558
X218594Y031002
X219229Y031002
X221515Y030875
X221515Y033415
X221515Y041035
X221515Y023255
X221515Y020715
X219483Y019953
X163584Y020425
X217197Y019953
X216725Y008631
X217197Y017667
X163584Y017195
X219483Y017667
X219955Y008631
X221515Y018175
X163838Y008377
X218975Y015635
X216435Y015635
X213895Y015635
X211355Y015635
X208815Y015635
X206275Y015635
X206826Y008504
X205325Y008504
X203824Y008504
X202325Y008504
X201195Y015635
X203735Y015635
X208325Y008504
X163584Y174979
X249733Y150533
X244653Y153073
T02
X024525Y013584
X046574Y180709
X045825Y180709
X045076Y180709
X044324Y180709
X043575Y180709
X042825Y180709
X042076Y180709
X041324Y180709
X040575Y180709
X040575Y090509
X041324Y090509
X042076Y090509
X042825Y090509
X043575Y090509
X044324Y090509
X045076Y090509
X045825Y090509
X046574Y090509
X110846Y157835
X108941Y020311
X100686Y019041
X084811Y018279
X095288Y093065
X096241Y015612
X084811Y091795
X129261Y140251
X174525Y013584
X196574Y180709
X195825Y180709
X195076Y180709
X194324Y180709
X193575Y180709
X192825Y180709
X192076Y180709
X191324Y180709
X190575Y180709
X190575Y090509
X191324Y090509
X192076Y090509
X192825Y090509
X193575Y090509
X194324Y090509
X195076Y090509
X195825Y090509
X196574Y090509
X260846Y157835
X258941Y020311
X250686Y019041
X234811Y018279
X245288Y093065
X246241Y015612
X234811Y091795
X279261Y140251
T03
X009186Y012568
X009186Y012441
X009313Y012441
X009313Y012568
X007694Y012568
X007694Y012441
X009567Y012441
X009567Y012568
X009694Y012568
X009694Y012441
X009821Y012441
X009821Y012568
X009948Y012568
X009948Y012441
X010075Y012441
X010075Y012568
X010202Y012568
X010202Y012441
X010329Y012441
X010329Y012568
X010456Y012568
X010456Y012441
X010583Y012441
X010583Y012568
X007821Y012568
X007821Y012441
X010837Y012441
X010837Y012568
X010964Y012568
X010964Y012441
X011091Y012441
X011091Y012568
X011218Y012568
X011218Y012441
X011345Y012441
X011345Y012568
X011472Y012568
X011472Y012441
X011599Y012441
X011599Y012568
X011726Y012568
X011726Y012441
X011853Y012441
X011853Y012568
X007948Y012568
X007948Y012441
X012107Y012441
X012107Y012568
X012234Y012568
X012234Y012441
X012361Y012441
X012361Y012568
X012488Y012568
X012488Y012441
X012615Y012441
X012615Y012568
X012742Y012568
X012742Y012441
X012742Y012314
X012615Y012314
X012488Y012314
X012361Y012314
X012234Y012314
X012107Y012314
X007948Y012314
X011853Y012314
X011726Y012314
X011599Y012314
X011472Y012314
X011345Y012314
X011218Y012314
X011091Y012314
X010964Y012314
X010837Y012314
X007821Y012314
X010583Y012314
X010456Y012314
X010329Y012314
X010202Y012314
X010075Y012314
X009948Y012314
X009821Y012314
X009694Y012314
X009567Y012314
X007694Y012314
X009313Y012314
X009186Y012314
X009186Y012187
X009313Y012187
X007694Y012187
X009567Y012187
X009694Y012187
X009821Y012187
X009948Y012187
X010075Y012187
X010202Y012187
X010329Y012187
X010456Y012187
X010583Y012187
X007821Y012187
X010837Y012187
X010964Y012187
X011091Y012187
X011218Y012187
X011345Y012187
X011472Y012187
X011599Y012187
X011726Y012187
X011853Y012187
X007948Y012187
X012107Y012187
X012234Y012187
X012361Y012187
X012488Y012187
X012615Y012187
X012742Y012187
X012869Y012187
X012869Y012314
X012869Y012441
X012869Y012568
X012869Y010028
X012742Y010028
X012615Y010028
X012488Y010028
X012361Y010028
X012234Y010028
X012107Y010028
X007948Y010028
X011853Y010028
X011726Y010028
X011599Y010028
X011472Y010028
X011345Y010028
X011218Y010028
X011091Y010028
X010964Y010028
X010837Y010028
X007821Y010028
X010583Y010028
X010456Y010028
X010329Y010028
X010202Y010028
X010075Y010028
X009948Y010028
X009821Y010028
X009694Y010028
X009567Y010028
X007694Y010028
X009313Y010028
X009186Y010028
X009186Y009901
X009313Y009901
X007694Y009901
X009567Y009901
X009567Y009774
X007694Y009774
X009313Y009774
X009186Y009774
X009313Y009647
X007694Y009647
X009567Y009647
X009694Y009647
X009694Y009774
X009821Y009774
X009821Y009647
X009948Y009647
X009948Y009774
X010075Y009774
X010075Y009647
X010202Y009647
X010202Y009774
X010329Y009774
X010329Y009647
X010456Y009647
X010456Y009774
X010583Y009774
X010583Y009647
X007821Y009647
X007821Y009774
X010837Y009774
X010837Y009647
X010964Y009647
X010964Y009774
X011091Y009774
X011091Y009647
X011218Y009647
X011218Y009774
X011345Y009774
X011345Y009647
X011472Y009647
X011472Y009774
X011599Y009774
X011599Y009647
X011726Y009647
X011726Y009774
X011853Y009774
X011853Y009647
X007948Y009647
X012107Y009647
X012107Y009774
X012107Y009901
X012234Y009901
X012361Y009901
X012488Y009901
X012615Y009901
X012742Y009901
X012742Y009774
X012615Y009774
X012488Y009774
X012361Y009774
X012234Y009774
X012234Y009647
X012361Y009647
X012488Y009647
X012615Y009647
X012742Y009647
X012869Y009647
X012869Y009774
X012869Y009901
X011853Y009901
X011726Y009901
X011599Y009901
X011472Y009901
X011345Y009901
X011218Y009901
X011091Y009901
X010964Y009901
X010837Y009901
X007821Y009901
X010583Y009901
X010456Y009901
X010329Y009901
X010202Y009901
X010075Y009901
X009948Y009901
X009821Y009901
X009694Y009901
X159186Y012568
X159186Y012441
X159313Y012441
X159313Y012568
X157694Y012568
X157694Y012441
X159567Y012441
X159567Y012568
X159694Y012568
X159694Y012441
X159821Y012441
X159821Y012568
X159948Y012568
X159948Y012441
X160075Y012441
X160075Y012568
X160202Y012568
X160202Y012441
X160329Y012441
X160329Y012568
X160456Y012568
X160456Y012441
X160583Y012441
X160583Y012568
X157821Y012568
X157821Y012441
X160837Y012441
X160837Y012568
X160964Y012568
X160964Y012441
X161091Y012441
X161091Y012568
X161218Y012568
X161218Y012441
X161345Y012441
X161345Y012568
X161472Y012568
X161472Y012441
X161599Y012441
X161599Y012568
X161726Y012568
X161726Y012441
X161853Y012441
X161853Y012568
X157948Y012568
X157948Y012441
X162107Y012441
X162107Y012568
X162234Y012568
X162234Y012441
X162361Y012441
X162361Y012568
X162488Y012568
X162488Y012441
X162615Y012441
X162615Y012568
X162742Y012568
X162742Y012441
X162742Y012314
X162615Y012314
X162488Y012314
X162361Y012314
X162234Y012314
X162107Y012314
X157948Y012314
X161853Y012314
X161726Y012314
X161599Y012314
X161472Y012314
X161345Y012314
X161218Y012314
X161091Y012314
X160964Y012314
X160837Y012314
X157821Y012314
X160583Y012314
X160456Y012314
X160329Y012314
X160202Y012314
X160075Y012314
X159948Y012314
X159821Y012314
X159694Y012314
X159567Y012314
X157694Y012314
X159313Y012314
X159186Y012314
X159186Y012187
X159313Y012187
X157694Y012187
X159567Y012187
X159694Y012187
X159821Y012187
X159948Y012187
X160075Y012187
X160202Y012187
X160329Y012187
X160456Y012187
X160583Y012187
X157821Y012187
X160837Y012187
X160964Y012187
X161091Y012187
X161218Y012187
X161345Y012187
X161472Y012187
X161599Y012187
X161726Y012187
X161853Y012187
X157948Y012187
X162107Y012187
X162234Y012187
X162361Y012187
X162488Y012187
X162615Y012187
X162742Y012187
X162869Y012187
X162869Y012314
X162869Y012441
X162869Y012568
X162869Y010028
X162742Y010028
X162615Y010028
X162488Y010028
X162361Y010028
X162234Y010028
X162107Y010028
X157948Y010028
X161853Y010028
X161726Y010028
X161599Y010028
X161472Y010028
X161345Y010028
X161218Y010028
X161091Y010028
X160964Y010028
X160837Y010028
X157821Y010028
X160583Y010028
X160456Y010028
X160329Y010028
X160202Y010028
X160075Y010028
X159948Y010028
X159821Y010028
X159694Y010028
X159567Y010028
X157694Y010028
X159313Y010028
X159186Y010028
X159186Y009901
X159313Y009901
X157694Y009901
X159567Y009901
X159567Y009774
X157694Y009774
X159313Y009774
X159186Y009774
X159313Y009647
X157694Y009647
X159567Y009647
X159694Y009647
X159694Y009774
X159821Y009774
X159821Y009647
X159948Y009647
X159948Y009774
X160075Y009774
X160075Y009647
X160202Y009647
X160202Y009774
X160329Y009774
X160329Y009647
X160456Y009647
X160456Y009774
X160583Y009774
X160583Y009647
X157821Y009647
X157821Y009774
X160837Y009774
X160837Y009647
X160964Y009647
X160964Y009774
X161091Y009774
X161091Y009647
X161218Y009647
X161218Y009774
X161345Y009774
X161345Y009647
X161472Y009647
X161472Y009774
X161599Y009774
X161599Y009647
X161726Y009647
X161726Y009774
X161853Y009774
X161853Y009647
X157948Y009647
X162107Y009647
X162107Y009774
X162107Y009901
X162234Y009901
X162361Y009901
X162488Y009901
X162615Y009901
X162742Y009901
X162742Y009774
X162615Y009774
X162488Y009774
X162361Y009774
X162234Y009774
X162234Y009647
X162361Y009647
X162488Y009647
X162615Y009647
X162742Y009647
X162869Y009647
X162869Y009774
X162869Y009901
X161853Y009901
X161726Y009901
X161599Y009901
X161472Y009901
X161345Y009901
X161218Y009901
X161091Y009901
X160964Y009901
X160837Y009901
X157821Y009901
X160583Y009901
X160456Y009901
X160329Y009901
X160202Y009901
X160075Y009901
X159948Y009901
X159821Y009901
X159694Y009901
T04
X016905Y061355
X070245Y025795
X166905Y061355
X220245Y025795
T05
X062775Y008885
X024375Y008083
X019295Y059775
X084025Y008083
X008235Y027375
X122425Y008885
X008083Y022521
X008885Y022521
X125451Y017085
X125451Y017085
X081001Y017085
X081001Y017085
X212775Y008885
X174375Y008083
X169295Y059775
X234025Y008083
X158235Y027375
X272425Y008885
X158083Y022521
X158885Y022521
X275451Y017085
X275451Y017085
X231001Y017085
X231001Y017085
T06
X062775Y008083
X024375Y008885
X019295Y027375
X084025Y008885
X008235Y059775
X122425Y008083
X212775Y008083
X174375Y008885
X169295Y027375
X234025Y008885
X158235Y059775
X272425Y008083
T07
X008631Y008631
X021185Y043575
X008631Y013584
X064324Y043575
X013584Y013584
X013584Y008631
X019549Y013584
X014596Y013584
X014596Y008631
X019549Y008631
X158631Y008631
X171185Y043575
X158631Y013584
X214324Y043575
X163584Y013584
X163584Y008631
X169549Y013584
X164596Y013584
X164596Y008631
X169549Y008631
T08
X075285Y018175
X076845Y008631
X077317Y017667
X014596Y017195
X079603Y017667
X080075Y008631
X079603Y019953
X014596Y020425
X077317Y019953
X075285Y020715
X014469Y024525
X075285Y025795
X075285Y028335
X077444Y028825
X077444Y030324
X076873Y031576
X075285Y030875
X075285Y033415
X076873Y035325
X075285Y035955
X076873Y037576
X075285Y038495
X076873Y039826
X076873Y041325
X075285Y041035
X075285Y043575
X076873Y043575
X076873Y045825
X076873Y047324
X075285Y046115
X075285Y048655
X076873Y049574
X075285Y051195
X076873Y052465
X075285Y053735
X076873Y055607
X075285Y056275
X076873Y057545
X075285Y058815
X075285Y061355
X014469Y062625
X014596Y061672
X079413Y059767
X079667Y058325
X080111Y057824
X079667Y057324
X080365Y056275
X080111Y054825
X079667Y054324
X080111Y053824
X081635Y054086
X082651Y053824
X084556Y053326
X085445Y053417
X084556Y054324
X085445Y055322
X086715Y054687
X087985Y054052
X089255Y053417
X090525Y052782
X091795Y052147
X090525Y050877
X089255Y051512
X087985Y052147
X086715Y052782
X085445Y051512
X086715Y050877
X087985Y050242
X089255Y049607
X090525Y048972
X091795Y048337
X090525Y047067
X089255Y047702
X087985Y048337
X087032Y047385
X087985Y046432
X089255Y045797
X087985Y044527
X015358Y044464
X015231Y045797
X015231Y047385
X015231Y048972
X085445Y049607
X086715Y048972
X081635Y049925
X080365Y049641
X080053Y048325
X079672Y047824
X080053Y046826
X079672Y046326
X080053Y045325
X079672Y044825
X008235Y045162
X008235Y043575
X080053Y042325
X079672Y041825
X080053Y040824
X079672Y040324
X080053Y039326
X079672Y038825
X080365Y037576
X081635Y037225
X080053Y036326
X079672Y035825
X080365Y010282
X081635Y010282
X085445Y035637
X086715Y036273
X087985Y036907
X089255Y037542
X090525Y038177
X091795Y038812
X090525Y040082
X089255Y039447
X087985Y038812
X087032Y039765
X087985Y040718
X089255Y041352
X087985Y042622
X086715Y041352
X085445Y042686
X015231Y041352
X015231Y039765
X015231Y038177
X085445Y037542
X086715Y038177
X089255Y035637
X087985Y035002
X089255Y033732
X087985Y033097
X086715Y032462
X085445Y031828
X086715Y030557
X085445Y029922
X084556Y029826
X082651Y030324
X082651Y029326
X080365Y030319
X079349Y029326
X080365Y009901
X081635Y009901
X085445Y033732
X086715Y034367
X089255Y031828
X087985Y031193
X089255Y029922
X087985Y029288
X086715Y028652
X085445Y028017
X086715Y026748
X087668Y025795
X087985Y027383
X089255Y028017
X090525Y028652
X091795Y029288
X093065Y029922
X094335Y030557
X095605Y031193
X096875Y029922
X016501Y009647
X016501Y027383
X016501Y025795
X095923Y027383
X094335Y026748
X093065Y026112
X091478Y025795
X090525Y026748
X089573Y025795
X091795Y027383
X093065Y028017
X094335Y028652
X095605Y029288
X093065Y031828
X094335Y032462
X093065Y033732
X091795Y033097
X090525Y032462
X091795Y031193
X090525Y030557
X090525Y034367
X091795Y035002
X090525Y036273
X091795Y036907
X008235Y039765
X008235Y041352
X008235Y047385
X079672Y050824
X080053Y051325
X080365Y052465
X081635Y011933
X082648Y056577
X084556Y056575
X084556Y057324
X085445Y057227
X086715Y056592
X087985Y055957
X089255Y055322
X090525Y054687
X091795Y054052
X093065Y055322
X094335Y056592
X093065Y057227
X091795Y057862
X090525Y058497
X089255Y059132
X087985Y059767
X087985Y061355
X089573Y061355
X090843Y012822
X015993Y060403
X094335Y060403
X095288Y061355
X095605Y059767
X094335Y058497
X095605Y057862
X098145Y060403
X099098Y061355
X098145Y064149
X016755Y064149
X100474Y066575
X099974Y067197
X099476Y067578
X098475Y067197
X097975Y067578
X096974Y067197
X096476Y067578
X095475Y067197
X094975Y067578
X094475Y066575
X095976Y066575
X097474Y066575
X098976Y066575
X100975Y067578
X101475Y067197
X101975Y066575
X103225Y066435
X017136Y008083
X104495Y064149
X105765Y064149
X105765Y008083
X017517Y008083
X017517Y064149
X109575Y064149
X110845Y064149
X018025Y064149
X018152Y064149
X113067Y008083
X112476Y066161
X111975Y067197
X111475Y067578
X110474Y067197
X109974Y067578
X109476Y066575
X110975Y066575
X114475Y067575
X115976Y067575
X117474Y067575
X117975Y066575
X116476Y066575
X118724Y064576
X120975Y066816
X120474Y067578
X119476Y067575
X121958Y013584
X122593Y013584
X122593Y013711
X121958Y013711
X123863Y013711
X124498Y013711
X124498Y013584
X123863Y013584
X126375Y013584
X126847Y069483
X019549Y069955
X129133Y069483
X129605Y013584
X129133Y067197
X019549Y066725
X126847Y067197
X019295Y008083
X019676Y062625
X131165Y061355
X131165Y058815
X129006Y058325
X129641Y056826
X131165Y056275
X129006Y054837
X129006Y053821
X129006Y053186
X129577Y051825
X131165Y051195
X129577Y049574
X131165Y048655
X129577Y047324
X129577Y045825
X131165Y046115
X131165Y043575
X129577Y043575
X126778Y042325
X126397Y041825
X126778Y040824
X126397Y040324
X126778Y039326
X126397Y038825
X126085Y037576
X124815Y036907
X124815Y010282
X126105Y034688
X126397Y035825
X126778Y036326
X129577Y037576
X131165Y038495
X129577Y039826
X129577Y041325
X131165Y041035
X126397Y044825
X126778Y045325
X126397Y046326
X126778Y046826
X126397Y047824
X126778Y048325
X019295Y047324
X019295Y045825
X019295Y043575
X019295Y041325
X019295Y039826
X121323Y038495
X120053Y010663
X120688Y039765
X120053Y041035
X118782Y010917
X119735Y042622
X121323Y042686
X121323Y044464
X121724Y045825
X018787Y045797
X119735Y044527
X008616Y045162
X018533Y046432
X008616Y047067
X018787Y047702
X008616Y048972
X018787Y049607
X121724Y049574
X121724Y048825
X121724Y047324
X018533Y048337
X018406Y047702
X018279Y048972
X018406Y049607
X018533Y050242
X008616Y050877
X018787Y051512
X008616Y052782
X018533Y052147
X018406Y051512
X018279Y050877
X018152Y050242
X018025Y051512
X018152Y052147
X018279Y052782
X018406Y053417
X018533Y054052
X118724Y054576
X118724Y055574
X119725Y055076
X121724Y053875
X121724Y052826
X121724Y051325
X124475Y051825
X019297Y051833
X126397Y050824
X126778Y051325
X126105Y049928
X124835Y049928
X131165Y053735
X127101Y057824
X126085Y056831
X123799Y056826
X123799Y057824
X121894Y057324
X018406Y055322
X018279Y054687
X018152Y054052
X018025Y053417
X017898Y052782
X017771Y054052
X017898Y054687
X018025Y055322
X018152Y055957
X018279Y056592
X115925Y057862
X114655Y059132
X018152Y057862
X018025Y057227
X017898Y056592
X017771Y055957
X017644Y055322
X017517Y056592
X106718Y012441
X106083Y012568
X104812Y057545
X103543Y058815
X104812Y012695
X106083Y060085
X105475Y061096
X104975Y061477
X103974Y061096
X103474Y061477
X102273Y061355
X102907Y060085
X107352Y012695
X017644Y059767
X109258Y058815
X017771Y057862
X017644Y057227
X107988Y012568
X110528Y012695
X017898Y058497
X018025Y059132
X112115Y060085
X111975Y061076
X110474Y061076
X108976Y061076
X107474Y061076
X018152Y061038
X121924Y012949
X131165Y066435
X131165Y068975
X019803Y013838
X128625Y071515
X126085Y071515
X123545Y071515
X121005Y071515
X118465Y071515
X118475Y070118
X116974Y070118
X115475Y070118
X113974Y070118
X112476Y070118
X110975Y070118
X109476Y070118
X107975Y070118
X106476Y070118
X104975Y070118
X103474Y070118
X103225Y071515
X101975Y070118
X100474Y070118
X100685Y071515
X098976Y070118
X097474Y070118
X095976Y070118
X094475Y070118
X092976Y070118
X091475Y070118
X089974Y070118
X088475Y070118
X087985Y071515
X090525Y071515
X093065Y071515
X095605Y071515
X098145Y071515
X015993Y066752
X089974Y066575
X089476Y067197
X088976Y067578
X087975Y066816
X088475Y066074
X086974Y066816
X086476Y067578
X085976Y066816
X085475Y067578
X084493Y013584
X083858Y013584
X083858Y013711
X084493Y013711
X082588Y013711
X081953Y013711
X081953Y013584
X082588Y013584
X080075Y013584
X079603Y069483
X014596Y069955
X077317Y069483
X076845Y013584
X077317Y067197
X014596Y066725
X079603Y067197
X008235Y008083
X081508Y063578
X081635Y063006
X014977Y062942
X085475Y061512
X085191Y060514
X086715Y058497
X087985Y057862
X089255Y057227
X090525Y056592
X091795Y055957
X091795Y050242
X015866Y064212
X015993Y064212
X094335Y064212
X016374Y064212
X015739Y064847
X089255Y064212
X087985Y065165
X087474Y067578
X085445Y071515
X082905Y071515
X080365Y071515
X077825Y071515
X014342Y013838
X075285Y068975
X075285Y066435
X105765Y071515
X108305Y071515
X110845Y071515
X113385Y071515
X115925Y071515
X117513Y007829
X116243Y010663
X117513Y038495
X118782Y010536
X120053Y037225
X120688Y035955
X120053Y010282
X118782Y035955
X117513Y010409
X116243Y037225
X114973Y010536
X113703Y010409
X114973Y035955
X116243Y010282
X117513Y034685
X118782Y010155
X120053Y033415
X118782Y032145
X117513Y010028
X116243Y033415
X114973Y010155
X113703Y034685
X112433Y010282
X111163Y010155
X109893Y033415
X109258Y032145
X108623Y009901
X107988Y032145
X107139Y032313
X106977Y010042
X008489Y033415
X105448Y032145
X106718Y009901
X107352Y009774
X106718Y029605
X105765Y028652
X104495Y029288
X105448Y009774
X104178Y030875
X101955Y028652
X100685Y027383
X101955Y026748
X100368Y025795
X099974Y023128
X101475Y023128
X017009Y008885
X103225Y020715
X104475Y020575
X104975Y019953
X105475Y019572
X105976Y020575
X107474Y020575
X107975Y019953
X108475Y019572
X108976Y020575
X110474Y020575
X110975Y019953
X111475Y019572
X112476Y019953
X112976Y019572
X113474Y020575
X111975Y020575
X111975Y023128
X110474Y023128
X108976Y023128
X107474Y023128
X105976Y023128
X104475Y023128
X101475Y020575
X100474Y019953
X100975Y019572
X099974Y020575
X099098Y008885
X098475Y020575
X097474Y019953
X097975Y019572
X096974Y020575
X016374Y008885
X095475Y020575
X094475Y019953
X094975Y019572
X093974Y020989
X093383Y008885
X091475Y019953
X091975Y019572
X090474Y019572
X089974Y019953
X089476Y020575
X088303Y008885
X087975Y023128
X089476Y023128
X090975Y023128
X090975Y020575
X086974Y019575
X085976Y019572
X085475Y020334
X084493Y008631
X083858Y008631
X083858Y008504
X084493Y008504
X082588Y008504
X081953Y008504
X081953Y008631
X082588Y008631
X008235Y008885
X084526Y009266
X087975Y017032
X089476Y017032
X090975Y017032
X092476Y017032
X093974Y017032
X095468Y017032
X096974Y017032
X098475Y017032
X099974Y017032
X101475Y017032
X102976Y017032
X103225Y015635
X104475Y017032
X105976Y017032
X105765Y015635
X107474Y017032
X108976Y017032
X110467Y017032
X111975Y017032
X113474Y017032
X114975Y017032
X116476Y017032
X117975Y017032
X118465Y015635
X115925Y015635
X113385Y015635
X110845Y015635
X108305Y015635
X100685Y015635
X098145Y015635
X095605Y015635
X093065Y015635
X090525Y015635
X087985Y015635
X085445Y015635
X082905Y015635
X080365Y015635
X077825Y015635
X014342Y008377
X095475Y023128
X104495Y025795
X104495Y027383
X008489Y027383
X107035Y028017
X107988Y027065
X108623Y007702
X109575Y026748
X017644Y026112
X110528Y025795
X110528Y007702
X109893Y009647
X109258Y009774
X107988Y009647
X109893Y009901
X111163Y032145
X112433Y009901
X113703Y030875
X114973Y009774
X116243Y029605
X114973Y028335
X113703Y009647
X112433Y029605
X111798Y009647
X111163Y009774
X112433Y007702
X113703Y027065
X113703Y025795
X113474Y023128
X117284Y020588
X118475Y020334
X118976Y019572
X119476Y020334
X119974Y019572
X120474Y020334
X120975Y019572
X121958Y008631
X122593Y008631
X122593Y008504
X121958Y008504
X123863Y008504
X124498Y008504
X124498Y008631
X123863Y008631
X126375Y008631
X126847Y017667
X019549Y017195
X129133Y017667
X129605Y008631
X129133Y019953
X019549Y020425
X126847Y019953
X019295Y008885
X019676Y024525
X019549Y025795
X019549Y007702
X127101Y028825
X126339Y029326
X127101Y029826
X126085Y031193
X126339Y032325
X127101Y032826
X126339Y033326
X124815Y033097
X123799Y033326
X121894Y033824
X121323Y034367
X121894Y032826
X018914Y009901
X121894Y030575
X121894Y029826
X123802Y030573
X121259Y026636
X120975Y025638
X118465Y021985
X121005Y015635
X123545Y015635
X126085Y015635
X128625Y015635
X019803Y008377
X131165Y018175
X131165Y020715
X131165Y025795
X131165Y028335
X131165Y030875
X019676Y009901
X131165Y033415
X131165Y035955
X118782Y039765
X113703Y010028
X114973Y032145
X116243Y009901
X117513Y030875
X112433Y033415
X107988Y033415
X013838Y075919
X013838Y079729
X013838Y083539
X069737Y087222
X070316Y088619
X069737Y090016
X013584Y090595
X068022Y091794
X068022Y093699
X068022Y095604
X013711Y095604
X013838Y095604
X069927Y093699
X013711Y097509
X013838Y097509
X013838Y099414
X013711Y099414
X013584Y099414
X013584Y097509
X013584Y101319
X013711Y101319
X013838Y101319
X013838Y103224
X013711Y103224
X013711Y105129
X013838Y105129
X013838Y107034
X013711Y107034
X013711Y108939
X013838Y108939
X013838Y110844
X013711Y110844
X013711Y112749
X013838Y112749
X013838Y114654
X013711Y114654
X069229Y116011
X013584Y114654
X067705Y112749
X067705Y110844
X013584Y108939
X013584Y107034
X013584Y104494
X013076Y098335
X062457Y099335
X062457Y101334
X059958Y101334
X059958Y099335
X059958Y097085
X059958Y095086
X059958Y093085
X059958Y091086
X059958Y089084
X062457Y087334
X062307Y086079
X013076Y088335
X064212Y086079
X013203Y087984
X013203Y089889
X066364Y088619
X066943Y087222
X066117Y086079
X066364Y084174
X064362Y084174
X062112Y084174
X060362Y084174
X058363Y084174
X056313Y082904
X054408Y084174
X054052Y086079
X054052Y088429
X055322Y088335
X056592Y088335
X057458Y087334
X056592Y090336
X055322Y090336
X054052Y090336
X054052Y092335
X055322Y092335
X056592Y092335
X056592Y094334
X055322Y094334
X054052Y094334
X054052Y096336
X055322Y096336
X056592Y096336
X056592Y098335
X055322Y098335
X055322Y099335
X054052Y099335
X054052Y098335
X052465Y097509
X052465Y016301
X052465Y094017
X052465Y093011
X052465Y015901
X052465Y090011
X011933Y087984
X011806Y086714
X049574Y088561
X050024Y015651
X050024Y090011
X049574Y090509
X050024Y091009
X049574Y015901
X050024Y015951
X050024Y093011
X050024Y094009
X050024Y016251
X049574Y016301
X050024Y096011
X050024Y097009
X049574Y097509
X050024Y016551
X049574Y016601
X050024Y016651
X050024Y100011
X049574Y101459
X048076Y101459
X048076Y016761
X046074Y101111
X046074Y103709
X046074Y104621
X045162Y105764
X045162Y008491
X043321Y108939
X042622Y108939
X041352Y108939
X041352Y108304
X041352Y107669
X039447Y108304
X038177Y108939
X036907Y108939
X035637Y108939
X034367Y108939
X034367Y107034
X035637Y107034
X036907Y107034
X038177Y107034
X038175Y105129
X037105Y017156
X036153Y103107
X010282Y104177
X036272Y105129
X007775Y105764
X010123Y104494
X034365Y103224
X007772Y101555
X033062Y101223
X031825Y101223
X009996Y103224
X030555Y103224
X030555Y104494
X030854Y105256
X031355Y104875
X031855Y105256
X033095Y105764
X029854Y105256
X029356Y104875
X028855Y105256
X028355Y104875
X027855Y105256
X027062Y104494
X009361Y105129
X009301Y103859
X024522Y104812
X023887Y107034
X023887Y109574
X025157Y110209
X024205Y112432
X009139Y114654
X025574Y116409
X025574Y018551
X025574Y018711
X024779Y120011
X024779Y120811
X025574Y121611
X027174Y121611
X027974Y121611
X009647Y121322
X009774Y121957
X009647Y123227
X027974Y019111
X007702Y124497
X026775Y019271
X025574Y019271
X025574Y019111
X026775Y019111
X009647Y125132
X009774Y125767
X009647Y127037
X007702Y126402
X026775Y127209
X025574Y127209
X025574Y019711
X009393Y129577
X007702Y130212
X009647Y130847
X009774Y131482
X009647Y132752
X007702Y132117
X027763Y133958
X009412Y135101
X009412Y136117
X026775Y137611
X027763Y020476
X009647Y138467
X009774Y139737
X009647Y140372
X027974Y140011
X026775Y140011
X025574Y140011
X025574Y142409
X026775Y142409
X027974Y142409
X009647Y142277
X009774Y141642
X009774Y143547
X029175Y144809
X027974Y144809
X026775Y144809
X025574Y144809
X025574Y147209
X026775Y147209
X027974Y147209
X029175Y147209
X009774Y147357
X009774Y145452
X009901Y144817
X010028Y144182
X010155Y143547
X010028Y142277
X009901Y142912
X009901Y141007
X010155Y141324
X035955Y143229
X010282Y144817
X010409Y146087
X010282Y146722
X010409Y147992
X010536Y147357
X010663Y148627
X010536Y149262
X010409Y149897
X010282Y150532
X010409Y151802
X010536Y151167
X010663Y150532
X007829Y149897
X041606Y151103
X007829Y151802
X041352Y152754
X042749Y153072
X042749Y152246
X007869Y152246
X044337Y153072
X045797Y152754
X011425Y151802
X045543Y151103
X011425Y149897
X011552Y150532
X011679Y151167
X011806Y151802
X011933Y152437
X007956Y153072
X012187Y151802
X007956Y151167
X012187Y149897
X007956Y149262
X012187Y147992
X007956Y147357
X012187Y146087
X007956Y145452
X012187Y144182
X007956Y143547
X012187Y142277
X012314Y142912
X012314Y141007
X012441Y141642
X012568Y142277
X012695Y142912
X060374Y142409
X061576Y142409
X061576Y144809
X060374Y144809
X012695Y144817
X012568Y144182
X012441Y143547
X012314Y144817
X012441Y145452
X012568Y146087
X012695Y146722
X060374Y147209
X061576Y147209
X061576Y021711
X060374Y021711
X059175Y021711
X012568Y149897
X012441Y149262
X012568Y147992
X012441Y147357
X012314Y146722
X012314Y148627
X012314Y150532
X012441Y151167
X012568Y151802
X059132Y151802
X059767Y152437
X059767Y153389
X012822Y153707
X061672Y152754
X061672Y154659
X012822Y155612
X059767Y154659
X058325Y153516
X057824Y153135
X057324Y153516
X012314Y152437
X056326Y022361
X055767Y156882
X054824Y022361
X012187Y156882
X007956Y156882
X007956Y158787
X012187Y158469
X012187Y159358
X055767Y158469
X057164Y158469
X057164Y157199
X059767Y156564
X059767Y159104
X059795Y162419
X060306Y162914
X059795Y023091
X059295Y165962
X058794Y166343
X058294Y165962
X057794Y166343
X057296Y165962
X056295Y165962
X055795Y166343
X055294Y165962
X054052Y166724
X007956Y165772
X052147Y166724
X051512Y165772
X050242Y165772
X051197Y167677
X052465Y169264
X053417Y170217
X052574Y170941
X052574Y172439
X052574Y173709
X052574Y174959
X052574Y176211
X052574Y177209
X052574Y024651
X054055Y178647
X055325Y178393
X056574Y178886
X055325Y179917
X054055Y180298
X055325Y181568
X056574Y180885
X056574Y182886
X057458Y183884
X059958Y182134
X059958Y180135
X059958Y178134
X059958Y176135
X059958Y174136
X059958Y171886
X058957Y170885
X057458Y169884
X057458Y171886
X056574Y172886
X055325Y172439
X054055Y172439
X012187Y171169
X055322Y169582
X055322Y167677
X012441Y167677
X058815Y167677
X012822Y167677
X062622Y166407
X013076Y164184
X013076Y161644
X013076Y156564
X008083Y156564
X013584Y156564
X013838Y021871
X070245Y021711
X069229Y021631
X069229Y021551
X070245Y147209
X069229Y146409
X069229Y145609
X070245Y144809
X069229Y144009
X069229Y143209
X070245Y142409
X069229Y141611
X069229Y140811
X070245Y140011
X069229Y139211
X069229Y138411
X070245Y137611
X069229Y136811
X069229Y136011
X070245Y020271
X069229Y020191
X069229Y020111
X013838Y020031
X013838Y019951
X013838Y130811
X070245Y019711
X069229Y019631
X069229Y019551
X070245Y127209
X069229Y126409
X069229Y125609
X069229Y123209
X069229Y122409
X070245Y121611
X069229Y120811
X069229Y120011
X070245Y119211
X069229Y118411
X069229Y117611
X013838Y116559
X013838Y120369
X013838Y126011
X013838Y128411
X069229Y019791
X069229Y019871
X008083Y129607
X008083Y127207
X008083Y124814
X008083Y121606
X008083Y119206
X008083Y114654
X013076Y114654
X059767Y114654
X059767Y112114
X057824Y115162
X056826Y115162
X056275Y114337
X055068Y114654
X054332Y114654
X012108Y114654
X007956Y114019
X052782Y114972
X051512Y114337
X050242Y114337
X048972Y114337
X048972Y112432
X048325Y111939
X047824Y111512
X046826Y111939
X046326Y111512
X045325Y111939
X044824Y111512
X007869Y112432
X007869Y113384
X007869Y114337
X045797Y114337
X045797Y112749
X047385Y112749
X047385Y114337
X050242Y112432
X051512Y112432
X052825Y111512
X007956Y112114
X007956Y112749
X054824Y111606
X055322Y112749
X056326Y111606
X055005Y108939
X054687Y107987
X054687Y107034
X056275Y107669
X012441Y108304
X057545Y105764
X012568Y105764
X058815Y105764
X058497Y104177
X012441Y105129
X056592Y103224
X012314Y105129
X054687Y105129
X054687Y103224
X054052Y101334
X055322Y101334
X052465Y100011
X052147Y101954
X052782Y103224
X052782Y105129
X050877Y105129
X050877Y103224
X048972Y105129
X048972Y107034
X050242Y107034
X051512Y107034
X052782Y107034
X052782Y108939
X051512Y108939
X050242Y108939
X048972Y108939
X042325Y111512
X041825Y111939
X041352Y112749
X040326Y111939
X040824Y111512
X039325Y111512
X038825Y111939
X038177Y112432
X036907Y112432
X035637Y112432
X035637Y114337
X036907Y114337
X038177Y114337
X039765Y114337
X039765Y112749
X041352Y114337
X042749Y114337
X042749Y113384
X042749Y112432
X042749Y118147
X042749Y118972
X041606Y120115
X007829Y119417
X041352Y118147
X007829Y121322
X010663Y120687
X010536Y120052
X010409Y119417
X010282Y118782
X010155Y118147
X010028Y119417
X009901Y118782
X009774Y120052
X009647Y119417
X028017Y119417
X027382Y118782
X027382Y117829
X027382Y116559
X028825Y117702
X029325Y118083
X029826Y117702
X030824Y115109
X031383Y114019
X031383Y112749
X029986Y112749
X029986Y114019
X032325Y115109
X010028Y114019
X010028Y112749
X010028Y017936
X010155Y112432
X010155Y114337
X010536Y118147
X010663Y118782
X010409Y121322
X010282Y120687
X010282Y122592
X010409Y123227
X010536Y123862
X010663Y122592
X010536Y121957
X010409Y125132
X010282Y124497
X010282Y126402
X010155Y125767
X010028Y125132
X009901Y124497
X010028Y123227
X009901Y122592
X010028Y121322
X009901Y120687
X010155Y120052
X010155Y121957
X010155Y123862
X010028Y127037
X009901Y126402
X009901Y128307
X010028Y128942
X010155Y127672
X009901Y130212
X009774Y129577
X009647Y128942
X007702Y128307
X009774Y127672
X009774Y123862
X027174Y018791
X027382Y114654
X027382Y112114
X027354Y008513
X026844Y108304
X027354Y107809
X027192Y103224
X027192Y101334
X027192Y099335
X027192Y097085
X027192Y095086
X027192Y093085
X027192Y091086
X027192Y089084
X024692Y087334
X009139Y086336
X009139Y088335
X009012Y087984
X009012Y086079
X008885Y085444
X008758Y084174
X017857Y084174
X008504Y082904
X008377Y083539
X017413Y087222
X016834Y088619
X017413Y090016
X008631Y090595
X019127Y091794
X019127Y093699
X019127Y095604
X008504Y095604
X008377Y095604
X017222Y093699
X008504Y097509
X008377Y097509
X008377Y099414
X008504Y099414
X008631Y099414
X008631Y097509
X008631Y101319
X008504Y101319
X008377Y101319
X008377Y103224
X008504Y103224
X008504Y105129
X008377Y105129
X008377Y107034
X008504Y107034
X008504Y108939
X008377Y108939
X008377Y110844
X008504Y110844
X008504Y112749
X008377Y112749
X008377Y114654
X008504Y114654
X008631Y114654
X019445Y112749
X019445Y110844
X008631Y108939
X008631Y107034
X008631Y104494
X024692Y101334
X024692Y099335
X009139Y096336
X009139Y094334
X009139Y092335
X009139Y090336
X009012Y089889
X020786Y088619
X020207Y087222
X008631Y086646
X020207Y090016
X021032Y091794
X022302Y092429
X021032Y093699
X009012Y084174
X025477Y084174
X027662Y082904
X029788Y084174
X031787Y084174
X031825Y086079
X033095Y086079
X031825Y087349
X033095Y088111
X031827Y088843
X030557Y088335
X029691Y087334
X030557Y086336
X033095Y090016
X031827Y090336
X030557Y090336
X030557Y092335
X031827Y092208
X033095Y091921
X033095Y093572
X031827Y093953
X030557Y094334
X031827Y095447
X033095Y094969
X033095Y096239
X033095Y097509
X031827Y097225
X030557Y096336
X030557Y098335
X031825Y016678
X033095Y016678
X034576Y098779
X034576Y097509
X034576Y016376
X034576Y016251
X034576Y094009
X034576Y093011
X034576Y091911
X034576Y090011
X034682Y088619
X035952Y087349
X035317Y085762
X035787Y084174
X033788Y084174
X037222Y086079
X037789Y084174
X039765Y085762
X041075Y015376
X041576Y088561
X043074Y088561
X044075Y088561
X046074Y088561
X047575Y088561
X048576Y088561
X048655Y086079
X048655Y084174
X011778Y084174
X052147Y084174
X052147Y086079
X052363Y079729
X050362Y079729
X011397Y084174
X044845Y081634
X043265Y083887
X010917Y084174
X041891Y080364
X042305Y079729
X041891Y079094
X042305Y075919
X044845Y076554
X044845Y077824
X037789Y079729
X035787Y079729
X033788Y079729
X031787Y079729
X029788Y079729
X027662Y076554
X023788Y079729
X021787Y079729
X008377Y079729
X008377Y075919
X029191Y103224
X037126Y100011
X037575Y099511
X037126Y016651
X037575Y016551
X037126Y097509
X037126Y096511
X037126Y095759
X037126Y016251
X037126Y094009
X037126Y093011
X037126Y015951
X037126Y091009
X037126Y090011
X037126Y089259
X039574Y088561
X039574Y091609
X040326Y093359
X041324Y092759
X042775Y016171
X044375Y016171
X045825Y092759
X046574Y093811
X047075Y016251
X047075Y095711
X047075Y096409
X045825Y016476
X046074Y099109
X044375Y016331
X042775Y016331
X041324Y016476
X039574Y016456
X039826Y096211
X040075Y095459
X040326Y094611
X040224Y099861
X039475Y099861
X039574Y101459
X041075Y103709
X041075Y104494
X042076Y104494
X042076Y103709
X039445Y105129
X037575Y101459
X041652Y099861
X047824Y016061
X058363Y079729
X060362Y079729
X062363Y079729
X064362Y079729
X066364Y079729
X013584Y086646
X066943Y090016
X066117Y091794
X064847Y092429
X066117Y093699
X013076Y094334
X013076Y096336
X013076Y092335
X013076Y090336
X056313Y076554
X059767Y116559
X060402Y117194
X061037Y117829
X061576Y119211
X060374Y119211
X059175Y119211
X057974Y119211
X056775Y119211
X056326Y117702
X057324Y117702
X058325Y117702
X057974Y121611
X012441Y121957
X012441Y123862
X057974Y019111
X059175Y019111
X060374Y019111
X061576Y019111
X061576Y019271
X060374Y019271
X059175Y019271
X012568Y125132
X012441Y125767
X012568Y127037
X059175Y127209
X060374Y127209
X061576Y127209
X061576Y019711
X060374Y019711
X059175Y019711
X012568Y128942
X012441Y129577
X012568Y130847
X012441Y131482
X012568Y132752
X012695Y132117
X060374Y131611
X061576Y131611
X061576Y133209
X012822Y133387
X061576Y020271
X060529Y136117
X059386Y020476
X012568Y138467
X012695Y139102
X012568Y140372
X012441Y139737
X012695Y141007
X012822Y139737
X061576Y140011
X012822Y137832
X061576Y137611
X059386Y133958
X012314Y130212
X012187Y128942
X012314Y128307
X012187Y127037
X012314Y126402
X012187Y125132
X012314Y124497
X012187Y123227
X012314Y122592
X012187Y121322
X012314Y120687
X012187Y119417
X012314Y118782
X055078Y117702
X007956Y118147
X007956Y120052
X011933Y120687
X011806Y121322
X011679Y121957
X011552Y122592
X011679Y123862
X011806Y123227
X011933Y122592
X007956Y121957
X007956Y123862
X007956Y125767
X011933Y126402
X051195Y127989
X007956Y127672
X007956Y129894
X049925Y133704
X011679Y133069
X011552Y131799
X047385Y131164
X011806Y125132
X011933Y124497
X011552Y120687
X011679Y120052
X011806Y119417
X011933Y118782
X011679Y118147
X011552Y118782
X047385Y118147
X011425Y119417
X045543Y120115
X007869Y118972
X007869Y118147
X045797Y118147
X011425Y121322
X039765Y131164
X010663Y131799
X010536Y133069
X037225Y133704
X037225Y137514
X010536Y138149
X010663Y139419
X039765Y140054
X010155Y145452
X010028Y146087
X009901Y146722
X010028Y147992
X010155Y147357
X010282Y148627
X010155Y149262
X010028Y149897
X009901Y150532
X010028Y151802
X010155Y151167
X010155Y153072
X010282Y152437
X010536Y153072
X010663Y152437
X039765Y156882
X039765Y158469
X040326Y159152
X040824Y159709
X041825Y159152
X042325Y159709
X042749Y158787
X042749Y157834
X042749Y156882
X041352Y156882
X041352Y158469
X039325Y159709
X038825Y159152
X038177Y158787
X036907Y158787
X035637Y158787
X035637Y156882
X036907Y156882
X038177Y156882
X034367Y156247
X010107Y156564
X032818Y156564
X032081Y156564
X030875Y156882
X030326Y156056
X029325Y156056
X027382Y156564
X009393Y155675
X025477Y154659
X009393Y153072
X026775Y021951
X027974Y021951
X029175Y021951
X030374Y021951
X030824Y153516
X029826Y153516
X028825Y153516
X027382Y154659
X025574Y021951
X025574Y021711
X026775Y021711
X027974Y021711
X029175Y021711
X030374Y021711
X009901Y148627
X009901Y152437
X032071Y153516
X010155Y157199
X010155Y158469
X010155Y159109
X034324Y159739
X032325Y159612
X031827Y158469
X030824Y159612
X009901Y162279
X032574Y164184
X033542Y165454
X034367Y165454
X034367Y164184
X035637Y164184
X036907Y164184
X036907Y165454
X010536Y165454
X038495Y165137
X038495Y164502
X010663Y164184
X010663Y165454
X041035Y167359
X010936Y166089
X010936Y165327
X010936Y164565
X043575Y023286
X011298Y166724
X046074Y023456
X045574Y167461
X011425Y166089
X047829Y164502
X048337Y163867
X048782Y163232
X011552Y162279
X047055Y162914
X046445Y162914
X046115Y162279
X046115Y163549
X047385Y163549
X050242Y164184
X051512Y164184
X052782Y164184
X052782Y162279
X051512Y162279
X050242Y162279
X048325Y159152
X048972Y158787
X050242Y158787
X051512Y158787
X051512Y156882
X050242Y156882
X048972Y156882
X047385Y156882
X047385Y158469
X046826Y159152
X046326Y159709
X045325Y159152
X044824Y159709
X007869Y158787
X007869Y157834
X007869Y156882
X045797Y156882
X045797Y158469
X047824Y159709
X044527Y162279
X043829Y162279
X040082Y162279
X038177Y162279
X036907Y162279
X035637Y162279
X034367Y162279
X035637Y165454
X010409Y167359
X010282Y168629
X034367Y167359
X033097Y168629
X032145Y167677
X009901Y166724
X030875Y166089
X009774Y166724
X029605Y166089
X009647Y164819
X028335Y164184
X028335Y165454
X029605Y164184
X028335Y162787
X028017Y167994
X029605Y167994
X029691Y169884
X031192Y169899
X029691Y171886
X030557Y172886
X031827Y172886
X033097Y173135
X033097Y174885
X031827Y174885
X030557Y174885
X030557Y176884
X031827Y176884
X033097Y176884
X033097Y178886
X031827Y178886
X030557Y178886
X030557Y180885
X031827Y180885
X033097Y180885
X033097Y025029
X033097Y183869
X031827Y182886
X030557Y182886
X029691Y183884
X027192Y182134
X027192Y180135
X027192Y178134
X027192Y176135
X027192Y174136
X027192Y171886
X028193Y170885
X024692Y169884
X024692Y171886
X008631Y166724
X008631Y164184
X008631Y156615
X008885Y156615
X009139Y156564
X008885Y151484
X008885Y149607
X008885Y147207
X008885Y144807
X008885Y142406
X008885Y140006
X008885Y137611
X008885Y135216
X017921Y136011
X017921Y136811
X016905Y137611
X017921Y138411
X017921Y139211
X016905Y140011
X017921Y140811
X017921Y141611
X016905Y142409
X017921Y143209
X017921Y144009
X016905Y144809
X017921Y145609
X017921Y146409
X016905Y147209
X017921Y021551
X017921Y021631
X016905Y021711
X017921Y021791
X017921Y021871
X016905Y021951
X008377Y022031
X025574Y137611
X025574Y134233
X009393Y133387
X025574Y019951
X009393Y131482
X008885Y129615
X008885Y127215
X008885Y124814
X008885Y121538
X008885Y120407
X008885Y118807
X017921Y118411
X017921Y119211
X016905Y121611
X008377Y120534
X008377Y118535
X008377Y116559
X008504Y116559
X008885Y114654
X017921Y122409
X017921Y123209
X017921Y125609
X017921Y126409
X016905Y127209
X017921Y019551
X017921Y019631
X016905Y019711
X017921Y019791
X017921Y019871
X008377Y130811
X008377Y019951
X016244Y020031
X016905Y020271
X017921Y020191
X017921Y020111
X008377Y128411
X008377Y126011
X037575Y023726
X037126Y170209
X037126Y023871
X037126Y172211
X037126Y173209
X037575Y173709
X037126Y024171
X037126Y024271
X037575Y175711
X037126Y176211
X037126Y177209
X037126Y024571
X037126Y179211
X037575Y179711
X037126Y180209
X037575Y180709
X037126Y024871
X037575Y025016
X010409Y184504
X010282Y183234
X034685Y181461
X034685Y179711
X034685Y024571
X034685Y177202
X034685Y175711
X034685Y173709
X034685Y023921
X010155Y169899
X010028Y171169
X039074Y171111
X039074Y023726
X041352Y170217
X041825Y023936
X041324Y173961
X042775Y175411
X042775Y177011
X041324Y178459
X040575Y024491
X040075Y176211
X040075Y024301
X040075Y174809
X039325Y178111
X041075Y025016
X043074Y025016
X044075Y025016
X045825Y025016
X047575Y025016
X047575Y024711
X046826Y024536
X045825Y178459
X044375Y177011
X044375Y175411
X045825Y173961
X046826Y024411
X047075Y175759
X047324Y024251
X047575Y174159
X049574Y173209
X050024Y173709
X050024Y024221
X050024Y175459
X050024Y176211
X050024Y177209
X050024Y024571
X050024Y024871
X051197Y183869
X012187Y183869
X054055Y177001
X055325Y176742
X056574Y176884
X056574Y174885
X055325Y174885
X054055Y024298
X054055Y173961
X050024Y172211
X049574Y023726
X047575Y023726
X046432Y170435
X046826Y023886
X047575Y023886
X044576Y023936
X007956Y167677
X062457Y169884
X062457Y171886
X013584Y166724
X013584Y164184
X008083Y150806
X008083Y147207
X008083Y144807
X008083Y142406
X008083Y140423
X008083Y137621
X008083Y020271
X012441Y127672
X059175Y121611
X060374Y121611
X061576Y121611
X049925Y137514
X011679Y138149
X011552Y139419
X047385Y140054
X011933Y144817
X011806Y146087
X011933Y146722
X011806Y147992
X011679Y147357
X011552Y148627
X011679Y149262
X011806Y149897
X011933Y150532
X011933Y148627
X011679Y153072
X011552Y152437
X013584Y180626
X066943Y181202
X066364Y182599
X066943Y183996
X013584Y184575
X069737Y183996
X070316Y182599
X069737Y181202
X062457Y183884
X024692Y183884
X022937Y182574
X020786Y182599
X020207Y181202
X008631Y180626
X017413Y181202
X016834Y182599
X017413Y183996
X008631Y184575
X020207Y183996
X129388Y077063
X129967Y014596
X129388Y079857
X127991Y080436
X126594Y079857
X126015Y014596
X126594Y077063
X127991Y076484
X126721Y015231
X126721Y015358
X127991Y085445
X129261Y085445
X130531Y015358
X130531Y015231
X130848Y087985
X126403Y088303
X126086Y088938
X122911Y090525
X121641Y090525
X122276Y089255
X122276Y087985
X122911Y086715
X121641Y086715
X121006Y085445
X119101Y086715
X119736Y015562
X118466Y015612
X121006Y082905
X113386Y082905
X113386Y085445
X105766Y085445
X105766Y082905
X102908Y015866
X102591Y091668
X101956Y092303
X100686Y094335
X099924Y016247
X099416Y095605
X099416Y097345
X100051Y098145
X100053Y099098
X100686Y103225
X100686Y104495
X102273Y106718
X101321Y109575
X101321Y112115
X099098Y114528
X099606Y115798
X097511Y018279
X094971Y018279
X093701Y112115
X093701Y109575
X093066Y104495
X093066Y103225
X094653Y104495
X095923Y104495
X016419Y099865
X094653Y099415
X094653Y098394
X094717Y097345
X095923Y094018
X096876Y094335
X097828Y094335
X092875Y015739
X091161Y015866
X090843Y008365
X091796Y094018
X091161Y097828
X091796Y098463
X086716Y015739
X086716Y015612
X087605Y015612
X084811Y090525
X083541Y090525
X084176Y089255
X084176Y087985
X084811Y086715
X083541Y086715
X084176Y085445
X084303Y015231
X079731Y015231
X079731Y015358
X078461Y085445
X077191Y085445
X075921Y015358
X075921Y015231
X075921Y014977
X077064Y079857
X076485Y014596
X077064Y077063
X078461Y076484
X079858Y077063
X080437Y014596
X079858Y079857
X078461Y080436
X090526Y082905
X090526Y085445
X098146Y085445
X098146Y082905
X107691Y016501
X108189Y097193
X108689Y016501
X017669Y097193
X017719Y016501
X116561Y008489
X117831Y008489
X117196Y109575
X117196Y110845
X117831Y115925
X116561Y115925
X121641Y018455
X121641Y119451
X124816Y120251
X124816Y121051
X126086Y121051
X126086Y120251
X125451Y119451
X126086Y118651
X126086Y117851
X125451Y018455
X126086Y018375
X126086Y018295
X125451Y018215
X124816Y018295
X124816Y018375
X124816Y117851
X124816Y118651
X121641Y018215
X121641Y017895
X121641Y109049
X124816Y108249
X124816Y107449
X124816Y106649
X124816Y105849
X126086Y105849
X126086Y107449
X126086Y108249
X125451Y109049
X126086Y017735
X126086Y017815
X125451Y017895
X126086Y017975
X126086Y018055
X124816Y018055
X124816Y017975
X124816Y017815
X124816Y017735
X129261Y109049
X129261Y017895
X130213Y018279
X129261Y018455
X129261Y119451
X126086Y123451
X126086Y124249
X125451Y125049
X124816Y124249
X124816Y123451
X124816Y125849
X124816Y126649
X125451Y127449
X126086Y126649
X126086Y125849
X126086Y128249
X126086Y129049
X125451Y019735
X126086Y019815
X126086Y019895
X125451Y019975
X126086Y020055
X126086Y020135
X125451Y020215
X126086Y020295
X126086Y020375
X125451Y020455
X126086Y137851
X126086Y138651
X125451Y139451
X124816Y138651
X124816Y137851
X124816Y020375
X124816Y020295
X124816Y020135
X124816Y020055
X124816Y019895
X124816Y019815
X124816Y129049
X124816Y128249
X121641Y127449
X121641Y125049
X117831Y019295
X116561Y019295
X117196Y128625
X117196Y129895
X117831Y134975
X116561Y134975
X118402Y137134
X121641Y020455
X121641Y020215
X121641Y019975
X129261Y019975
X129261Y020215
X129261Y020455
X129261Y142651
X129261Y144251
X129261Y145049
X126086Y143451
X124816Y144251
X124816Y145049
X124816Y142651
X121641Y143451
X115291Y153073
X114338Y152438
X111798Y152506
X111798Y151485
X111735Y153555
X109761Y151036
X107036Y153555
X106401Y152755
X106398Y151803
X105766Y147675
X105766Y146405
X105004Y144183
X017148Y144183
X103988Y145135
X103988Y146405
X017148Y147358
X099929Y147358
X099929Y146405
X099929Y145135
X099929Y144183
X016609Y141325
X099098Y020819
X097511Y143865
X094971Y143865
X094971Y139689
X094971Y020184
X097511Y020184
X101067Y134048
X101067Y135097
X101702Y137198
X103226Y135483
X105258Y136499
X106147Y136372
X106718Y020311
X106718Y020229
X106718Y133891
X104496Y132885
X102974Y019866
X102426Y019803
X017098Y019676
X102972Y128625
X101321Y128943
X101003Y128308
X097511Y124815
X094971Y124815
X094971Y120639
X099289Y008616
X100051Y008616
X106718Y128308
X106528Y019676
X105766Y129895
X108941Y126085
X111481Y126085
X111481Y130261
X111481Y020311
X112751Y138785
X112751Y141325
X113386Y146405
X113386Y147675
X111798Y146405
X110528Y146405
X105131Y141325
X105131Y138785
X100686Y022089
X016626Y022089
X016576Y153708
X016526Y022089
X097259Y153708
X096759Y022089
X096241Y159486
X095733Y159994
X096241Y022851
X094717Y162598
X096241Y164185
X094717Y165773
X092113Y166725
X092113Y167459
X094717Y168948
X092113Y164439
X092113Y162958
X090843Y161963
X089464Y162915
X088966Y162407
X088466Y163423
X015356Y160502
X085466Y159994
X083965Y160502
X084176Y164185
X084176Y023486
X085446Y168313
X084966Y168948
X086716Y023486
X087351Y023486
X088001Y023486
X089256Y023613
X085446Y171805
X082525Y173075
X080437Y023994
X079858Y173837
X078461Y174416
X077064Y173837
X076485Y023994
X077064Y171043
X078461Y170464
X079858Y171043
X078461Y167614
X079281Y165138
X014768Y165138
X014768Y162958
X081636Y167459
X080366Y145049
X080366Y144251
X081636Y144251
X084684Y144251
X084684Y145049
X084684Y141851
X084811Y139451
X084811Y020455
X084811Y020215
X084811Y019975
X081636Y019895
X081636Y019815
X081001Y019735
X081636Y129049
X081636Y128249
X081001Y127449
X081636Y126649
X081636Y125849
X081001Y125049
X081636Y124249
X081636Y123451
X080366Y123451
X080366Y124249
X080366Y125849
X080366Y126649
X080366Y128249
X080366Y129049
X080366Y019815
X080366Y019895
X081001Y019975
X081636Y020055
X081636Y020135
X081001Y020215
X081636Y020295
X081636Y020375
X081001Y020455
X081636Y137851
X081636Y138651
X081001Y139451
X081636Y140251
X081636Y141051
X080366Y141051
X080366Y140251
X080366Y138651
X080366Y137851
X080366Y020375
X080366Y020295
X080366Y020135
X080366Y020055
X077191Y019975
X077191Y020215
X077191Y020455
X077191Y139451
X077318Y141851
X077191Y144251
X076619Y019735
X077191Y127449
X077191Y125049
X080366Y121051
X080366Y120251
X081001Y119451
X081636Y120251
X081636Y121051
X081636Y118651
X081636Y117851
X081001Y018455
X081636Y018375
X081636Y018295
X081001Y018215
X080366Y018295
X080366Y018375
X080366Y117851
X080366Y118651
X077191Y119451
X077191Y018455
X077191Y018215
X077191Y017895
X077191Y107449
X080366Y108249
X080366Y109049
X080366Y017735
X080366Y017815
X081001Y017895
X081636Y017815
X081636Y017735
X081636Y109049
X081636Y108249
X081001Y107449
X081636Y017975
X081636Y018055
X080366Y018055
X080366Y017975
X084811Y017895
X084811Y107449
X088621Y115925
X089891Y115925
X089256Y121005
X089256Y122275
X089891Y019295
X088621Y019295
X084811Y125049
X084811Y127449
X084811Y119451
X084811Y018455
X088621Y134975
X089891Y134975
X089256Y140055
X089256Y141325
X089891Y007637
X088621Y007637
X101638Y160693
X102591Y162915
X101321Y164185
X101321Y165455
X103861Y162915
X105131Y164185
X105131Y165455
X109258Y159728
X109576Y159105
X111481Y162915
X115291Y159728
X018368Y164693
X018323Y023545
X116279Y023613
X018433Y023545
X117381Y023613
X018543Y023545
X118481Y023613
X018653Y023545
X119581Y023613
X120129Y023545
X120681Y023613
X121229Y023545
X018928Y023613
X122329Y023545
X019038Y023613
X122179Y164693
X125133Y023105
X127356Y023232
X127991Y166293
X127991Y167995
X127356Y023613
X127991Y170464
X126594Y171043
X126015Y023994
X126594Y173837
X127991Y174416
X129388Y173837
X129967Y023994
X129388Y171043
X129896Y023486
X130531Y165455
X115179Y023613
X129832Y019735
X129261Y127449
X129261Y125049
X111481Y018406
X108941Y018406
X111481Y111211
X108052Y110711
X107544Y017771
X108941Y107035
X111481Y107035
X117831Y098145
X129261Y094335
X225285Y018175
X226845Y008631
X227317Y017667
X164596Y017195
X229603Y017667
X230075Y008631
X229603Y019953
X164596Y020425
X227317Y019953
X225285Y020715
X164469Y024525
X225285Y025795
X225285Y028335
X227444Y028825
X227444Y030324
X226873Y031576
X225285Y030875
X225285Y033415
X226873Y035325
X225285Y035955
X226873Y037576
X225285Y038495
X226873Y039826
X226873Y041325
X225285Y041035
X225285Y043575
X226873Y043575
X226873Y045825
X226873Y047324
X225285Y046115
X225285Y048655
X226873Y049574
X225285Y051195
X226873Y052465
X225285Y053735
X226873Y055607
X225285Y056275
X226873Y057545
X225285Y058815
X225285Y061355
X164469Y062625
X164596Y061672
X229413Y059767
X229667Y058325
X230111Y057824
X229667Y057324
X230365Y056275
X230111Y054825
X229667Y054324
X230111Y053824
X231635Y054086
X232651Y053824
X234556Y053326
X235445Y053417
X234556Y054324
X235445Y055322
X236715Y054687
X237985Y054052
X239255Y053417
X240525Y052782
X241795Y052147
X240525Y050877
X239255Y051512
X237985Y052147
X236715Y052782
X235445Y051512
X236715Y050877
X237985Y050242
X239255Y049607
X240525Y048972
X241795Y048337
X240525Y047067
X239255Y047702
X237985Y048337
X237032Y047385
X237985Y046432
X239255Y045797
X237985Y044527
X165358Y044464
X165231Y045797
X165231Y047385
X165231Y048972
X235445Y049607
X236715Y048972
X231635Y049925
X230365Y049641
X230053Y048325
X229672Y047824
X230053Y046826
X229672Y046326
X230053Y045325
X229672Y044825
X158235Y045162
X158235Y043575
X230053Y042325
X229672Y041825
X230053Y040824
X229672Y040324
X230053Y039326
X229672Y038825
X230365Y037576
X231635Y037225
X230053Y036326
X229672Y035825
X230365Y010282
X231635Y010282
X235445Y035637
X236715Y036273
X237985Y036907
X239255Y037542
X240525Y038177
X241795Y038812
X240525Y040082
X239255Y039447
X237985Y038812
X237032Y039765
X237985Y040718
X239255Y041352
X237985Y042622
X236715Y041352
X235445Y042686
X165231Y041352
X165231Y039765
X165231Y038177
X235445Y037542
X236715Y038177
X239255Y035637
X237985Y035002
X239255Y033732
X237985Y033097
X236715Y032462
X235445Y031828
X236715Y030557
X235445Y029922
X234556Y029826
X232651Y030324
X232651Y029326
X230365Y030319
X229349Y029326
X230365Y009901
X231635Y009901
X235445Y033732
X236715Y034367
X239255Y031828
X237985Y031193
X239255Y029922
X237985Y029288
X236715Y028652
X235445Y028017
X236715Y026748
X237668Y025795
X237985Y027383
X239255Y028017
X240525Y028652
X241795Y029288
X243065Y029922
X244335Y030557
X245605Y031193
X246875Y029922
X166501Y009647
X166501Y027383
X166501Y025795
X245923Y027383
X244335Y026748
X243065Y026112
X241478Y025795
X240525Y026748
X239573Y025795
X241795Y027383
X243065Y028017
X244335Y028652
X245605Y029288
X243065Y031828
X244335Y032462
X243065Y033732
X241795Y033097
X240525Y032462
X241795Y031193
X240525Y030557
X240525Y034367
X241795Y035002
X240525Y036273
X241795Y036907
X158235Y039765
X158235Y041352
X158235Y047385
X229672Y050824
X230053Y051325
X230365Y052465
X231635Y011933
X232648Y056577
X234556Y056575
X234556Y057324
X235445Y057227
X236715Y056592
X237985Y055957
X239255Y055322
X240525Y054687
X241795Y054052
X243065Y055322
X244335Y056592
X243065Y057227
X241795Y057862
X240525Y058497
X239255Y059132
X237985Y059767
X237985Y061355
X239573Y061355
X240843Y012822
X165993Y060403
X244335Y060403
X245288Y061355
X245605Y059767
X244335Y058497
X245605Y057862
X248145Y060403
X249098Y061355
X248145Y064149
X166755Y064149
X250474Y066575
X249974Y067197
X249476Y067578
X248475Y067197
X247975Y067578
X246974Y067197
X246476Y067578
X245475Y067197
X244975Y067578
X244475Y066575
X245976Y066575
X247474Y066575
X248976Y066575
X250975Y067578
X251475Y067197
X251975Y066575
X253225Y066435
X167136Y008083
X254495Y064149
X255765Y064149
X255765Y008083
X167517Y008083
X167517Y064149
X259575Y064149
X260845Y064149
X168025Y064149
X168152Y064149
X263067Y008083
X262476Y066161
X261975Y067197
X261475Y067578
X260474Y067197
X259974Y067578
X259476Y066575
X260975Y066575
X264475Y067575
X265976Y067575
X267474Y067575
X267975Y066575
X266476Y066575
X268724Y064576
X270975Y066816
X270474Y067578
X269476Y067575
X271958Y013584
X272593Y013584
X272593Y013711
X271958Y013711
X273863Y013711
X274498Y013711
X274498Y013584
X273863Y013584
X276375Y013584
X276847Y069483
X169549Y069955
X279133Y069483
X279605Y013584
X279133Y067197
X169549Y066725
X276847Y067197
X169295Y008083
X169676Y062625
X281165Y061355
X281165Y058815
X279006Y058325
X279641Y056826
X281165Y056275
X279006Y054837
X279006Y053821
X279006Y053186
X279577Y051825
X281165Y051195
X279577Y049574
X281165Y048655
X279577Y047324
X279577Y045825
X281165Y046115
X281165Y043575
X279577Y043575
X276778Y042325
X276397Y041825
X276778Y040824
X276397Y040324
X276778Y039326
X276397Y038825
X276085Y037576
X274815Y036907
X274815Y010282
X276105Y034688
X276397Y035825
X276778Y036326
X279577Y037576
X281165Y038495
X279577Y039826
X279577Y041325
X281165Y041035
X276397Y044825
X276778Y045325
X276397Y046326
X276778Y046826
X276397Y047824
X276778Y048325
X169295Y047324
X169295Y045825
X169295Y043575
X169295Y041325
X169295Y039826
X271323Y038495
X270053Y010663
X270688Y039765
X270053Y041035
X268782Y010917
X269735Y042622
X271323Y042686
X271323Y044464
X271724Y045825
X168787Y045797
X269735Y044527
X158616Y045162
X168533Y046432
X158616Y047067
X168787Y047702
X158616Y048972
X168787Y049607
X271724Y049574
X271724Y048825
X271724Y047324
X168533Y048337
X168406Y047702
X168279Y048972
X168406Y049607
X168533Y050242
X158616Y050877
X168787Y051512
X158616Y052782
X168533Y052147
X168406Y051512
X168279Y050877
X168152Y050242
X168025Y051512
X168152Y052147
X168279Y052782
X168406Y053417
X168533Y054052
X268724Y054576
X268724Y055574
X269725Y055076
X271724Y053875
X271724Y052826
X271724Y051325
X274475Y051825
X169297Y051833
X276397Y050824
X276778Y051325
X276105Y049928
X274835Y049928
X281165Y053735
X277101Y057824
X276085Y056831
X273799Y056826
X273799Y057824
X271894Y057324
X168406Y055322
X168279Y054687
X168152Y054052
X168025Y053417
X167898Y052782
X167771Y054052
X167898Y054687
X168025Y055322
X168152Y055957
X168279Y056592
X265925Y057862
X264655Y059132
X168152Y057862
X168025Y057227
X167898Y056592
X167771Y055957
X167644Y055322
X167517Y056592
X256718Y012441
X256083Y012568
X254812Y057545
X253543Y058815
X254812Y012695
X256083Y060085
X255475Y061096
X254975Y061477
X253974Y061096
X253474Y061477
X252273Y061355
X252907Y060085
X257352Y012695
X167644Y059767
X259258Y058815
X167771Y057862
X167644Y057227
X257988Y012568
X260528Y012695
X167898Y058497
X168025Y059132
X262115Y060085
X261975Y061076
X260474Y061076
X258976Y061076
X257474Y061076
X168152Y061038
X271924Y012949
X281165Y066435
X281165Y068975
X169803Y013838
X278625Y071515
X276085Y071515
X273545Y071515
X271005Y071515
X268465Y071515
X268475Y070118
X266974Y070118
X265475Y070118
X263974Y070118
X262476Y070118
X260975Y070118
X259476Y070118
X257975Y070118
X256476Y070118
X254975Y070118
X253474Y070118
X253225Y071515
X251975Y070118
X250474Y070118
X250685Y071515
X248976Y070118
X247474Y070118
X245976Y070118
X244475Y070118
X242976Y070118
X241475Y070118
X239974Y070118
X238475Y070118
X237985Y071515
X240525Y071515
X243065Y071515
X245605Y071515
X248145Y071515
X165993Y066752
X239974Y066575
X239476Y067197
X238976Y067578
X237975Y066816
X238475Y066074
X236974Y066816
X236476Y067578
X235976Y066816
X235475Y067578
X234493Y013584
X233858Y013584
X233858Y013711
X234493Y013711
X232588Y013711
X231953Y013711
X231953Y013584
X232588Y013584
X230075Y013584
X229603Y069483
X164596Y069955
X227317Y069483
X226845Y013584
X227317Y067197
X164596Y066725
X229603Y067197
X158235Y008083
X231508Y063578
X231635Y063006
X164977Y062942
X235475Y061512
X235191Y060514
X236715Y058497
X237985Y057862
X239255Y057227
X240525Y056592
X241795Y055957
X241795Y050242
X165866Y064212
X165993Y064212
X244335Y064212
X166374Y064212
X165739Y064847
X239255Y064212
X237985Y065165
X237474Y067578
X235445Y071515
X232905Y071515
X230365Y071515
X227825Y071515
X164342Y013838
X225285Y068975
X225285Y066435
X255765Y071515
X258305Y071515
X260845Y071515
X263385Y071515
X265925Y071515
X267513Y007829
X266243Y010663
X267513Y038495
X268782Y010536
X270053Y037225
X270688Y035955
X270053Y010282
X268782Y035955
X267513Y010409
X266243Y037225
X264973Y010536
X263703Y010409
X264973Y035955
X266243Y010282
X267513Y034685
X268782Y010155
X270053Y033415
X268782Y032145
X267513Y010028
X266243Y033415
X264973Y010155
X263703Y034685
X262433Y010282
X261163Y010155
X259893Y033415
X259258Y032145
X258623Y009901
X257988Y032145
X257139Y032313
X256977Y010042
X158489Y033415
X255448Y032145
X256718Y009901
X257352Y009774
X256718Y029605
X255765Y028652
X254495Y029288
X255448Y009774
X254178Y030875
X251955Y028652
X250685Y027383
X251955Y026748
X250368Y025795
X249974Y023128
X251475Y023128
X167009Y008885
X253225Y020715
X254475Y020575
X254975Y019953
X255475Y019572
X255976Y020575
X257474Y020575
X257975Y019953
X258475Y019572
X258976Y020575
X260474Y020575
X260975Y019953
X261475Y019572
X262476Y019953
X262976Y019572
X263474Y020575
X261975Y020575
X261975Y023128
X260474Y023128
X258976Y023128
X257474Y023128
X255976Y023128
X254475Y023128
X251475Y020575
X250474Y019953
X250975Y019572
X249974Y020575
X249098Y008885
X248475Y020575
X247474Y019953
X247975Y019572
X246974Y020575
X166374Y008885
X245475Y020575
X244475Y019953
X244975Y019572
X243974Y020989
X243383Y008885
X241475Y019953
X241975Y019572
X240474Y019572
X239974Y019953
X239476Y020575
X238303Y008885
X237975Y023128
X239476Y023128
X240975Y023128
X240975Y020575
X236974Y019575
X235976Y019572
X235475Y020334
X234493Y008631
X233858Y008631
X233858Y008504
X234493Y008504
X232588Y008504
X231953Y008504
X231953Y008631
X232588Y008631
X158235Y008885
X234526Y009266
X237975Y017032
X239476Y017032
X240975Y017032
X242476Y017032
X243974Y017032
X245468Y017032
X246974Y017032
X248475Y017032
X249974Y017032
X251475Y017032
X252976Y017032
X253225Y015635
X254475Y017032
X255976Y017032
X255765Y015635
X257474Y017032
X258976Y017032
X260467Y017032
X261975Y017032
X263474Y017032
X264975Y017032
X266476Y017032
X267975Y017032
X268465Y015635
X265925Y015635
X263385Y015635
X260845Y015635
X258305Y015635
X250685Y015635
X248145Y015635
X245605Y015635
X243065Y015635
X240525Y015635
X237985Y015635
X235445Y015635
X232905Y015635
X230365Y015635
X227825Y015635
X164342Y008377
X245475Y023128
X254495Y025795
X254495Y027383
X158489Y027383
X257035Y028017
X257988Y027065
X258623Y007702
X259575Y026748
X167644Y026112
X260528Y025795
X260528Y007702
X259893Y009647
X259258Y009774
X257988Y009647
X259893Y009901
X261163Y032145
X262433Y009901
X263703Y030875
X264973Y009774
X266243Y029605
X264973Y028335
X263703Y009647
X262433Y029605
X261798Y009647
X261163Y009774
X262433Y007702
X263703Y027065
X263703Y025795
X263474Y023128
X267284Y020588
X268475Y020334
X268976Y019572
X269476Y020334
X269974Y019572
X270474Y020334
X270975Y019572
X271958Y008631
X272593Y008631
X272593Y008504
X271958Y008504
X273863Y008504
X274498Y008504
X274498Y008631
X273863Y008631
X276375Y008631
X276847Y017667
X169549Y017195
X279133Y017667
X279605Y008631
X279133Y019953
X169549Y020425
X276847Y019953
X169295Y008885
X169676Y024525
X169549Y025795
X169549Y007702
X277101Y028825
X276339Y029326
X277101Y029826
X276085Y031193
X276339Y032325
X277101Y032826
X276339Y033326
X274815Y033097
X273799Y033326
X271894Y033824
X271323Y034367
X271894Y032826
X168914Y009901
X271894Y030575
X271894Y029826
X273802Y030573
X271259Y026636
X270975Y025638
X268465Y021985
X271005Y015635
X273545Y015635
X276085Y015635
X278625Y015635
X169803Y008377
X281165Y018175
X281165Y020715
X281165Y025795
X281165Y028335
X281165Y030875
X169676Y009901
X281165Y033415
X281165Y035955
X268782Y039765
X263703Y010028
X264973Y032145
X266243Y009901
X267513Y030875
X262433Y033415
X257988Y033415
X163838Y075919
X163838Y079729
X163838Y083539
X219737Y087222
X220316Y088619
X219737Y090016
X163584Y090595
X218022Y091794
X218022Y093699
X218022Y095604
X163711Y095604
X163838Y095604
X219927Y093699
X163711Y097509
X163838Y097509
X163838Y099414
X163711Y099414
X163584Y099414
X163584Y097509
X163584Y101319
X163711Y101319
X163838Y101319
X163838Y103224
X163711Y103224
X163711Y105129
X163838Y105129
X163838Y107034
X163711Y107034
X163711Y108939
X163838Y108939
X163838Y110844
X163711Y110844
X163711Y112749
X163838Y112749
X163838Y114654
X163711Y114654
X219229Y116011
X163584Y114654
X217705Y112749
X217705Y110844
X163584Y108939
X163584Y107034
X163584Y104494
X163076Y098335
X212457Y099335
X212457Y101334
X209958Y101334
X209958Y099335
X209958Y097085
X209958Y095086
X209958Y093085
X209958Y091086
X209958Y089084
X212457Y087334
X212307Y086079
X163076Y088335
X214212Y086079
X163203Y087984
X163203Y089889
X216364Y088619
X216943Y087222
X216117Y086079
X216364Y084174
X214362Y084174
X212112Y084174
X210362Y084174
X208363Y084174
X206313Y082904
X204408Y084174
X204052Y086079
X204052Y088429
X205322Y088335
X206592Y088335
X207458Y087334
X206592Y090336
X205322Y090336
X204052Y090336
X204052Y092335
X205322Y092335
X206592Y092335
X206592Y094334
X205322Y094334
X204052Y094334
X204052Y096336
X205322Y096336
X206592Y096336
X206592Y098335
X205322Y098335
X205322Y099335
X204052Y099335
X204052Y098335
X202465Y097509
X202465Y016301
X202465Y094017
X202465Y093011
X202465Y015901
X202465Y090011
X161933Y087984
X161806Y086714
X199574Y088561
X200024Y015651
X200024Y090011
X199574Y090509
X200024Y091009
X199574Y015901
X200024Y015951
X200024Y093011
X200024Y094009
X200024Y016251
X199574Y016301
X200024Y096011
X200024Y097009
X199574Y097509
X200024Y016551
X199574Y016601
X200024Y016651
X200024Y100011
X199574Y101459
X198076Y101459
X198076Y016761
X196074Y101111
X196074Y103709
X196074Y104621
X195162Y105764
X195162Y008491
X193321Y108939
X192622Y108939
X191352Y108939
X191352Y108304
X191352Y107669
X189447Y108304
X188177Y108939
X186907Y108939
X185637Y108939
X184367Y108939
X184367Y107034
X185637Y107034
X186907Y107034
X188177Y107034
X188175Y105129
X187105Y017156
X186153Y103107
X160282Y104177
X186272Y105129
X157775Y105764
X160123Y104494
X184365Y103224
X157772Y101555
X183062Y101223
X181825Y101223
X159996Y103224
X180555Y103224
X180555Y104494
X180854Y105256
X181355Y104875
X181855Y105256
X183095Y105764
X179854Y105256
X179356Y104875
X178855Y105256
X178355Y104875
X177855Y105256
X177062Y104494
X159361Y105129
X159301Y103859
X174522Y104812
X173887Y107034
X173887Y109574
X175157Y110209
X174205Y112432
X159139Y114654
X175574Y116409
X175574Y018551
X175574Y018711
X174779Y120011
X174779Y120811
X175574Y121611
X177174Y121611
X177974Y121611
X159647Y121322
X159774Y121957
X159647Y123227
X177974Y019111
X157702Y124497
X176775Y019271
X175574Y019271
X175574Y019111
X176775Y019111
X159647Y125132
X159774Y125767
X159647Y127037
X157702Y126402
X176775Y127209
X175574Y127209
X175574Y019711
X159393Y129577
X157702Y130212
X159647Y130847
X159774Y131482
X159647Y132752
X157702Y132117
X177763Y133958
X159412Y135101
X159412Y136117
X176775Y137611
X177763Y020476
X159647Y138467
X159774Y139737
X159647Y140372
X177974Y140011
X176775Y140011
X175574Y140011
X175574Y142409
X176775Y142409
X177974Y142409
X159647Y142277
X159774Y141642
X159774Y143547
X179175Y144809
X177974Y144809
X176775Y144809
X175574Y144809
X175574Y147209
X176775Y147209
X177974Y147209
X179175Y147209
X159774Y147357
X159774Y145452
X159901Y144817
X160028Y144182
X160155Y143547
X160028Y142277
X159901Y142912
X159901Y141007
X160155Y141324
X185955Y143229
X160282Y144817
X160409Y146087
X160282Y146722
X160409Y147992
X160536Y147357
X160663Y148627
X160536Y149262
X160409Y149897
X160282Y150532
X160409Y151802
X160536Y151167
X160663Y150532
X157829Y149897
X191606Y151103
X157829Y151802
X191352Y152754
X192749Y153072
X192749Y152246
X157869Y152246
X194337Y153072
X195797Y152754
X161425Y151802
X195543Y151103
X161425Y149897
X161552Y150532
X161679Y151167
X161806Y151802
X161933Y152437
X157956Y153072
X162187Y151802
X157956Y151167
X162187Y149897
X157956Y149262
X162187Y147992
X157956Y147357
X162187Y146087
X157956Y145452
X162187Y144182
X157956Y143547
X162187Y142277
X162314Y142912
X162314Y141007
X162441Y141642
X162568Y142277
X162695Y142912
X210374Y142409
X211576Y142409
X211576Y144809
X210374Y144809
X162695Y144817
X162568Y144182
X162441Y143547
X162314Y144817
X162441Y145452
X162568Y146087
X162695Y146722
X210374Y147209
X211576Y147209
X211576Y021711
X210374Y021711
X209175Y021711
X162568Y149897
X162441Y149262
X162568Y147992
X162441Y147357
X162314Y146722
X162314Y148627
X162314Y150532
X162441Y151167
X162568Y151802
X209132Y151802
X209767Y152437
X209767Y153389
X162822Y153707
X211672Y152754
X211672Y154659
X162822Y155612
X209767Y154659
X208325Y153516
X207824Y153135
X207324Y153516
X162314Y152437
X206326Y022361
X205767Y156882
X204824Y022361
X162187Y156882
X157956Y156882
X157956Y158787
X162187Y158469
X162187Y159358
X205767Y158469
X207164Y158469
X207164Y157199
X209767Y156564
X209767Y159104
X209795Y162419
X210306Y162914
X209795Y023091
X209295Y165962
X208794Y166343
X208294Y165962
X207794Y166343
X207296Y165962
X206295Y165962
X205795Y166343
X205294Y165962
X204052Y166724
X157956Y165772
X202147Y166724
X201512Y165772
X200242Y165772
X201197Y167677
X202465Y169264
X203417Y170217
X202574Y170941
X202574Y172439
X202574Y173709
X202574Y174959
X202574Y176211
X202574Y177209
X202574Y024651
X204055Y178647
X205325Y178393
X206574Y178886
X205325Y179917
X204055Y180298
X205325Y181568
X206574Y180885
X206574Y182886
X207458Y183884
X209958Y182134
X209958Y180135
X209958Y178134
X209958Y176135
X209958Y174136
X209958Y171886
X208957Y170885
X207458Y169884
X207458Y171886
X206574Y172886
X205325Y172439
X204055Y172439
X162187Y171169
X205322Y169582
X205322Y167677
X162441Y167677
X208815Y167677
X162822Y167677
X212622Y166407
X163076Y164184
X163076Y161644
X163076Y156564
X158083Y156564
X163584Y156564
X163838Y021871
X220245Y021711
X219229Y021631
X219229Y021551
X220245Y147209
X219229Y146409
X219229Y145609
X220245Y144809
X219229Y144009
X219229Y143209
X220245Y142409
X219229Y141611
X219229Y140811
X220245Y140011
X219229Y139211
X219229Y138411
X220245Y137611
X219229Y136811
X219229Y136011
X220245Y020271
X219229Y020191
X219229Y020111
X163838Y020031
X163838Y019951
X163838Y130811
X220245Y019711
X219229Y019631
X219229Y019551
X220245Y127209
X219229Y126409
X219229Y125609
X219229Y123209
X219229Y122409
X220245Y121611
X219229Y120811
X219229Y120011
X220245Y119211
X219229Y118411
X219229Y117611
X163838Y116559
X163838Y120369
X163838Y126011
X163838Y128411
X219229Y019791
X219229Y019871
X158083Y129607
X158083Y127207
X158083Y124814
X158083Y121606
X158083Y119206
X158083Y114654
X163076Y114654
X209767Y114654
X209767Y112114
X207824Y115162
X206826Y115162
X206275Y114337
X205068Y114654
X204332Y114654
X162108Y114654
X157956Y114019
X202782Y114972
X201512Y114337
X200242Y114337
X198972Y114337
X198972Y112432
X198325Y111939
X197824Y111512
X196826Y111939
X196326Y111512
X195325Y111939
X194824Y111512
X157869Y112432
X157869Y113384
X157869Y114337
X195797Y114337
X195797Y112749
X197385Y112749
X197385Y114337
X200242Y112432
X201512Y112432
X202825Y111512
X157956Y112114
X157956Y112749
X204824Y111606
X205322Y112749
X206326Y111606
X205005Y108939
X204687Y107987
X204687Y107034
X206275Y107669
X162441Y108304
X207545Y105764
X162568Y105764
X208815Y105764
X208497Y104177
X162441Y105129
X206592Y103224
X162314Y105129
X204687Y105129
X204687Y103224
X204052Y101334
X205322Y101334
X202465Y100011
X202147Y101954
X202782Y103224
X202782Y105129
X200877Y105129
X200877Y103224
X198972Y105129
X198972Y107034
X200242Y107034
X201512Y107034
X202782Y107034
X202782Y108939
X201512Y108939
X200242Y108939
X198972Y108939
X192325Y111512
X191825Y111939
X191352Y112749
X190326Y111939
X190824Y111512
X189325Y111512
X188825Y111939
X188177Y112432
X186907Y112432
X185637Y112432
X185637Y114337
X186907Y114337
X188177Y114337
X189765Y114337
X189765Y112749
X191352Y114337
X192749Y114337
X192749Y113384
X192749Y112432
X192749Y118147
X192749Y118972
X191606Y120115
X157829Y119417
X191352Y118147
X157829Y121322
X160663Y120687
X160536Y120052
X160409Y119417
X160282Y118782
X160155Y118147
X160028Y119417
X159901Y118782
X159774Y120052
X159647Y119417
X178017Y119417
X177382Y118782
X177382Y117829
X177382Y116559
X178825Y117702
X179325Y118083
X179826Y117702
X180824Y115109
X181383Y114019
X181383Y112749
X179986Y112749
X179986Y114019
X182325Y115109
X160028Y114019
X160028Y112749
X160028Y017936
X160155Y112432
X160155Y114337
X160536Y118147
X160663Y118782
X160409Y121322
X160282Y120687
X160282Y122592
X160409Y123227
X160536Y123862
X160663Y122592
X160536Y121957
X160409Y125132
X160282Y124497
X160282Y126402
X160155Y125767
X160028Y125132
X159901Y124497
X160028Y123227
X159901Y122592
X160028Y121322
X159901Y120687
X160155Y120052
X160155Y121957
X160155Y123862
X160028Y127037
X159901Y126402
X159901Y128307
X160028Y128942
X160155Y127672
X159901Y130212
X159774Y129577
X159647Y128942
X157702Y128307
X159774Y127672
X159774Y123862
X177174Y018791
X177382Y114654
X177382Y112114
X177354Y008513
X176844Y108304
X177354Y107809
X177192Y103224
X177192Y101334
X177192Y099335
X177192Y097085
X177192Y095086
X177192Y093085
X177192Y091086
X177192Y089084
X174692Y087334
X159139Y086336
X159139Y088335
X159012Y087984
X159012Y086079
X158885Y085444
X158758Y084174
X167857Y084174
X158504Y082904
X158377Y083539
X167413Y087222
X166834Y088619
X167413Y090016
X158631Y090595
X169127Y091794
X169127Y093699
X169127Y095604
X158504Y095604
X158377Y095604
X167222Y093699
X158504Y097509
X158377Y097509
X158377Y099414
X158504Y099414
X158631Y099414
X158631Y097509
X158631Y101319
X158504Y101319
X158377Y101319
X158377Y103224
X158504Y103224
X158504Y105129
X158377Y105129
X158377Y107034
X158504Y107034
X158504Y108939
X158377Y108939
X158377Y110844
X158504Y110844
X158504Y112749
X158377Y112749
X158377Y114654
X158504Y114654
X158631Y114654
X169445Y112749
X169445Y110844
X158631Y108939
X158631Y107034
X158631Y104494
X174692Y101334
X174692Y099335
X159139Y096336
X159139Y094334
X159139Y092335
X159139Y090336
X159012Y089889
X170786Y088619
X170207Y087222
X158631Y086646
X170207Y090016
X171032Y091794
X172302Y092429
X171032Y093699
X159012Y084174
X175477Y084174
X177662Y082904
X179788Y084174
X181787Y084174
X181825Y086079
X183095Y086079
X181825Y087349
X183095Y088111
X181827Y088843
X180557Y088335
X179691Y087334
X180557Y086336
X183095Y090016
X181827Y090336
X180557Y090336
X180557Y092335
X181827Y092208
X183095Y091921
X183095Y093572
X181827Y093953
X180557Y094334
X181827Y095447
X183095Y094969
X183095Y096239
X183095Y097509
X181827Y097225
X180557Y096336
X180557Y098335
X181825Y016678
X183095Y016678
X184576Y098779
X184576Y097509
X184576Y016376
X184576Y016251
X184576Y094009
X184576Y093011
X184576Y091911
X184576Y090011
X184682Y088619
X185952Y087349
X185317Y085762
X185787Y084174
X183788Y084174
X187222Y086079
X187789Y084174
X189765Y085762
X191075Y015376
X191576Y088561
X193074Y088561
X194075Y088561
X196074Y088561
X197575Y088561
X198576Y088561
X198655Y086079
X198655Y084174
X161778Y084174
X202147Y084174
X202147Y086079
X202363Y079729
X200362Y079729
X161397Y084174
X194845Y081634
X193265Y083887
X160917Y084174
X191891Y080364
X192305Y079729
X191891Y079094
X192305Y075919
X194845Y076554
X194845Y077824
X187789Y079729
X185787Y079729
X183788Y079729
X181787Y079729
X179788Y079729
X177662Y076554
X173788Y079729
X171787Y079729
X158377Y079729
X158377Y075919
X179191Y103224
X187126Y100011
X187575Y099511
X187126Y016651
X187575Y016551
X187126Y097509
X187126Y096511
X187126Y095759
X187126Y016251
X187126Y094009
X187126Y093011
X187126Y015951
X187126Y091009
X187126Y090011
X187126Y089259
X189574Y088561
X189574Y091609
X190326Y093359
X191324Y092759
X192775Y016171
X194375Y016171
X195825Y092759
X196574Y093811
X197075Y016251
X197075Y095711
X197075Y096409
X195825Y016476
X196074Y099109
X194375Y016331
X192775Y016331
X191324Y016476
X189574Y016456
X189826Y096211
X190075Y095459
X190326Y094611
X190224Y099861
X189475Y099861
X189574Y101459
X191075Y103709
X191075Y104494
X192076Y104494
X192076Y103709
X189445Y105129
X187575Y101459
X191652Y099861
X197824Y016061
X208363Y079729
X210362Y079729
X212363Y079729
X214362Y079729
X216364Y079729
X163584Y086646
X216943Y090016
X216117Y091794
X214847Y092429
X216117Y093699
X163076Y094334
X163076Y096336
X163076Y092335
X163076Y090336
X206313Y076554
X209767Y116559
X210402Y117194
X211037Y117829
X211576Y119211
X210374Y119211
X209175Y119211
X207974Y119211
X206775Y119211
X206326Y117702
X207324Y117702
X208325Y117702
X207974Y121611
X162441Y121957
X162441Y123862
X207974Y019111
X209175Y019111
X210374Y019111
X211576Y019111
X211576Y019271
X210374Y019271
X209175Y019271
X162568Y125132
X162441Y125767
X162568Y127037
X209175Y127209
X210374Y127209
X211576Y127209
X211576Y019711
X210374Y019711
X209175Y019711
X162568Y128942
X162441Y129577
X162568Y130847
X162441Y131482
X162568Y132752
X162695Y132117
X210374Y131611
X211576Y131611
X211576Y133209
X162822Y133387
X211576Y020271
X210529Y136117
X209386Y020476
X162568Y138467
X162695Y139102
X162568Y140372
X162441Y139737
X162695Y141007
X162822Y139737
X211576Y140011
X162822Y137832
X211576Y137611
X209386Y133958
X162314Y130212
X162187Y128942
X162314Y128307
X162187Y127037
X162314Y126402
X162187Y125132
X162314Y124497
X162187Y123227
X162314Y122592
X162187Y121322
X162314Y120687
X162187Y119417
X162314Y118782
X205078Y117702
X157956Y118147
X157956Y120052
X161933Y120687
X161806Y121322
X161679Y121957
X161552Y122592
X161679Y123862
X161806Y123227
X161933Y122592
X157956Y121957
X157956Y123862
X157956Y125767
X161933Y126402
X201195Y127989
X157956Y127672
X157956Y129894
X199925Y133704
X161679Y133069
X161552Y131799
X197385Y131164
X161806Y125132
X161933Y124497
X161552Y120687
X161679Y120052
X161806Y119417
X161933Y118782
X161679Y118147
X161552Y118782
X197385Y118147
X161425Y119417
X195543Y120115
X157869Y118972
X157869Y118147
X195797Y118147
X161425Y121322
X189765Y131164
X160663Y131799
X160536Y133069
X187225Y133704
X187225Y137514
X160536Y138149
X160663Y139419
X189765Y140054
X160155Y145452
X160028Y146087
X159901Y146722
X160028Y147992
X160155Y147357
X160282Y148627
X160155Y149262
X160028Y149897
X159901Y150532
X160028Y151802
X160155Y151167
X160155Y153072
X160282Y152437
X160536Y153072
X160663Y152437
X189765Y156882
X189765Y158469
X190326Y159152
X190824Y159709
X191825Y159152
X192325Y159709
X192749Y158787
X192749Y157834
X192749Y156882
X191352Y156882
X191352Y158469
X189325Y159709
X188825Y159152
X188177Y158787
X186907Y158787
X185637Y158787
X185637Y156882
X186907Y156882
X188177Y156882
X184367Y156247
X160107Y156564
X182818Y156564
X182081Y156564
X180875Y156882
X180326Y156056
X179325Y156056
X177382Y156564
X159393Y155675
X175477Y154659
X159393Y153072
X176775Y021951
X177974Y021951
X179175Y021951
X180374Y021951
X180824Y153516
X179826Y153516
X178825Y153516
X177382Y154659
X175574Y021951
X175574Y021711
X176775Y021711
X177974Y021711
X179175Y021711
X180374Y021711
X159901Y148627
X159901Y152437
X182071Y153516
X160155Y157199
X160155Y158469
X160155Y159109
X184324Y159739
X182325Y159612
X181827Y158469
X180824Y159612
X159901Y162279
X182574Y164184
X183542Y165454
X184367Y165454
X184367Y164184
X185637Y164184
X186907Y164184
X186907Y165454
X160536Y165454
X188495Y165137
X188495Y164502
X160663Y164184
X160663Y165454
X191035Y167359
X160936Y166089
X160936Y165327
X160936Y164565
X193575Y023286
X161298Y166724
X196074Y023456
X195574Y167461
X161425Y166089
X197829Y164502
X198337Y163867
X198782Y163232
X161552Y162279
X197055Y162914
X196445Y162914
X196115Y162279
X196115Y163549
X197385Y163549
X200242Y164184
X201512Y164184
X202782Y164184
X202782Y162279
X201512Y162279
X200242Y162279
X198325Y159152
X198972Y158787
X200242Y158787
X201512Y158787
X201512Y156882
X200242Y156882
X198972Y156882
X197385Y156882
X197385Y158469
X196826Y159152
X196326Y159709
X195325Y159152
X194824Y159709
X157869Y158787
X157869Y157834
X157869Y156882
X195797Y156882
X195797Y158469
X197824Y159709
X194527Y162279
X193829Y162279
X190082Y162279
X188177Y162279
X186907Y162279
X185637Y162279
X184367Y162279
X185637Y165454
X160409Y167359
X160282Y168629
X184367Y167359
X183097Y168629
X182145Y167677
X159901Y166724
X180875Y166089
X159774Y166724
X179605Y166089
X159647Y164819
X178335Y164184
X178335Y165454
X179605Y164184
X178335Y162787
X178017Y167994
X179605Y167994
X179691Y169884
X181192Y169899
X179691Y171886
X180557Y172886
X181827Y172886
X183097Y173135
X183097Y174885
X181827Y174885
X180557Y174885
X180557Y176884
X181827Y176884
X183097Y176884
X183097Y178886
X181827Y178886
X180557Y178886
X180557Y180885
X181827Y180885
X183097Y180885
X183097Y025029
X183097Y183869
X181827Y182886
X180557Y182886
X179691Y183884
X177192Y182134
X177192Y180135
X177192Y178134
X177192Y176135
X177192Y174136
X177192Y171886
X178193Y170885
X174692Y169884
X174692Y171886
X158631Y166724
X158631Y164184
X158631Y156615
X158885Y156615
X159139Y156564
X158885Y151484
X158885Y149607
X158885Y147207
X158885Y144807
X158885Y142406
X158885Y140006
X158885Y137611
X158885Y135216
X167921Y136011
X167921Y136811
X166905Y137611
X167921Y138411
X167921Y139211
X166905Y140011
X167921Y140811
X167921Y141611
X166905Y142409
X167921Y143209
X167921Y144009
X166905Y144809
X167921Y145609
X167921Y146409
X166905Y147209
X167921Y021551
X167921Y021631
X166905Y021711
X167921Y021791
X167921Y021871
X166905Y021951
X158377Y022031
X175574Y137611
X175574Y134233
X159393Y133387
X175574Y019951
X159393Y131482
X158885Y129615
X158885Y127215
X158885Y124814
X158885Y121538
X158885Y120407
X158885Y118807
X167921Y118411
X167921Y119211
X166905Y121611
X158377Y120534
X158377Y118535
X158377Y116559
X158504Y116559
X158885Y114654
X167921Y122409
X167921Y123209
X167921Y125609
X167921Y126409
X166905Y127209
X167921Y019551
X167921Y019631
X166905Y019711
X167921Y019791
X167921Y019871
X158377Y130811
X158377Y019951
X166244Y020031
X166905Y020271
X167921Y020191
X167921Y020111
X158377Y128411
X158377Y126011
X187575Y023726
X187126Y170209
X187126Y023871
X187126Y172211
X187126Y173209
X187575Y173709
X187126Y024171
X187126Y024271
X187575Y175711
X187126Y176211
X187126Y177209
X187126Y024571
X187126Y179211
X187575Y179711
X187126Y180209
X187575Y180709
X187126Y024871
X187575Y025016
X160409Y184504
X160282Y183234
X184685Y181461
X184685Y179711
X184685Y024571
X184685Y177202
X184685Y175711
X184685Y173709
X184685Y023921
X160155Y169899
X160028Y171169
X189074Y171111
X189074Y023726
X191352Y170217
X191825Y023936
X191324Y173961
X192775Y175411
X192775Y177011
X191324Y178459
X190575Y024491
X190075Y176211
X190075Y024301
X190075Y174809
X189325Y178111
X191075Y025016
X193074Y025016
X194075Y025016
X195825Y025016
X197575Y025016
X197575Y024711
X196826Y024536
X195825Y178459
X194375Y177011
X194375Y175411
X195825Y173961
X196826Y024411
X197075Y175759
X197324Y024251
X197575Y174159
X199574Y173209
X200024Y173709
X200024Y024221
X200024Y175459
X200024Y176211
X200024Y177209
X200024Y024571
X200024Y024871
X201197Y183869
X162187Y183869
X204055Y177001
X205325Y176742
X206574Y176884
X206574Y174885
X205325Y174885
X204055Y024298
X204055Y173961
X200024Y172211
X199574Y023726
X197575Y023726
X196432Y170435
X196826Y023886
X197575Y023886
X194576Y023936
X157956Y167677
X212457Y169884
X212457Y171886
X163584Y166724
X163584Y164184
X158083Y150806
X158083Y147207
X158083Y144807
X158083Y142406
X158083Y140423
X158083Y137621
X158083Y020271
X162441Y127672
X209175Y121611
X210374Y121611
X211576Y121611
X199925Y137514
X161679Y138149
X161552Y139419
X197385Y140054
X161933Y144817
X161806Y146087
X161933Y146722
X161806Y147992
X161679Y147357
X161552Y148627
X161679Y149262
X161806Y149897
X161933Y150532
X161933Y148627
X161679Y153072
X161552Y152437
X163584Y180626
X216943Y181202
X216364Y182599
X216943Y183996
X163584Y184575
X219737Y183996
X220316Y182599
X219737Y181202
X212457Y183884
X174692Y183884
X172937Y182574
X170786Y182599
X170207Y181202
X158631Y180626
X167413Y181202
X166834Y182599
X167413Y183996
X158631Y184575
X170207Y183996
X279388Y077063
X279967Y014596
X279388Y079857
X277991Y080436
X276594Y079857
X276015Y014596
X276594Y077063
X277991Y076484
X276721Y015231
X276721Y015358
X277991Y085445
X279261Y085445
X280531Y015358
X280531Y015231
X280848Y087985
X276403Y088303
X276086Y088938
X272911Y090525
X271641Y090525
X272276Y089255
X272276Y087985
X272911Y086715
X271641Y086715
X271006Y085445
X269101Y086715
X269736Y015562
X268466Y015612
X271006Y082905
X263386Y082905
X263386Y085445
X255766Y085445
X255766Y082905
X252908Y015866
X252591Y091668
X251956Y092303
X250686Y094335
X249924Y016247
X249416Y095605
X249416Y097345
X250051Y098145
X250053Y099098
X250686Y103225
X250686Y104495
X252273Y106718
X251321Y109575
X251321Y112115
X249098Y114528
X249606Y115798
X247511Y018279
X244971Y018279
X243701Y112115
X243701Y109575
X243066Y104495
X243066Y103225
X244653Y104495
X245923Y104495
X166419Y099865
X244653Y099415
X244653Y098394
X244717Y097345
X245923Y094018
X246876Y094335
X247828Y094335
X242875Y015739
X241161Y015866
X240843Y008365
X241796Y094018
X241161Y097828
X241796Y098463
X236716Y015739
X236716Y015612
X237605Y015612
X234811Y090525
X233541Y090525
X234176Y089255
X234176Y087985
X234811Y086715
X233541Y086715
X234176Y085445
X234303Y015231
X229731Y015231
X229731Y015358
X228461Y085445
X227191Y085445
X225921Y015358
X225921Y015231
X225921Y014977
X227064Y079857
X226485Y014596
X227064Y077063
X228461Y076484
X229858Y077063
X230437Y014596
X229858Y079857
X228461Y080436
X240526Y082905
X240526Y085445
X248146Y085445
X248146Y082905
X257691Y016501
X258189Y097193
X258689Y016501
X167669Y097193
X167719Y016501
X266561Y008489
X267831Y008489
X267196Y109575
X267196Y110845
X267831Y115925
X266561Y115925
X271641Y018455
X271641Y119451
X274816Y120251
X274816Y121051
X276086Y121051
X276086Y120251
X275451Y119451
X276086Y118651
X276086Y117851
X275451Y018455
X276086Y018375
X276086Y018295
X275451Y018215
X274816Y018295
X274816Y018375
X274816Y117851
X274816Y118651
X271641Y018215
X271641Y017895
X271641Y109049
X274816Y108249
X274816Y107449
X274816Y106649
X274816Y105849
X276086Y105849
X276086Y107449
X276086Y108249
X275451Y109049
X276086Y017735
X276086Y017815
X275451Y017895
X276086Y017975
X276086Y018055
X274816Y018055
X274816Y017975
X274816Y017815
X274816Y017735
X279261Y109049
X279261Y017895
X280213Y018279
X279261Y018455
X279261Y119451
X276086Y123451
X276086Y124249
X275451Y125049
X274816Y124249
X274816Y123451
X274816Y125849
X274816Y126649
X275451Y127449
X276086Y126649
X276086Y125849
X276086Y128249
X276086Y129049
X275451Y019735
X276086Y019815
X276086Y019895
X275451Y019975
X276086Y020055
X276086Y020135
X275451Y020215
X276086Y020295
X276086Y020375
X275451Y020455
X276086Y137851
X276086Y138651
X275451Y139451
X274816Y138651
X274816Y137851
X274816Y020375
X274816Y020295
X274816Y020135
X274816Y020055
X274816Y019895
X274816Y019815
X274816Y129049
X274816Y128249
X271641Y127449
X271641Y125049
X267831Y019295
X266561Y019295
X267196Y128625
X267196Y129895
X267831Y134975
X266561Y134975
X268402Y137134
X271641Y020455
X271641Y020215
X271641Y019975
X279261Y019975
X279261Y020215
X279261Y020455
X279261Y142651
X279261Y144251
X279261Y145049
X276086Y143451
X274816Y144251
X274816Y145049
X274816Y142651
X271641Y143451
X265291Y153073
X264338Y152438
X261798Y152506
X261798Y151485
X261735Y153555
X259761Y151036
X257036Y153555
X256401Y152755
X256398Y151803
X255766Y147675
X255766Y146405
X255004Y144183
X167148Y144183
X253988Y145135
X253988Y146405
X167148Y147358
X249929Y147358
X249929Y146405
X249929Y145135
X249929Y144183
X166609Y141325
X249098Y020819
X247511Y143865
X244971Y143865
X244971Y139689
X244971Y020184
X247511Y020184
X251067Y134048
X251067Y135097
X251702Y137198
X253226Y135483
X255258Y136499
X256147Y136372
X256718Y020311
X256718Y020229
X256718Y133891
X254496Y132885
X252974Y019866
X252426Y019803
X167098Y019676
X252972Y128625
X251321Y128943
X251003Y128308
X247511Y124815
X244971Y124815
X244971Y120639
X249289Y008616
X250051Y008616
X256718Y128308
X256528Y019676
X255766Y129895
X258941Y126085
X261481Y126085
X261481Y130261
X261481Y020311
X262751Y138785
X262751Y141325
X263386Y146405
X263386Y147675
X261798Y146405
X260528Y146405
X255131Y141325
X255131Y138785
X250686Y022089
X166626Y022089
X166576Y153708
X166526Y022089
X247259Y153708
X246759Y022089
X246241Y159486
X245733Y159994
X246241Y022851
X244717Y162598
X246241Y164185
X244717Y165773
X242113Y166725
X242113Y167459
X244717Y168948
X242113Y164439
X242113Y162958
X240843Y161963
X239464Y162915
X238966Y162407
X238466Y163423
X165356Y160502
X235466Y159994
X233965Y160502
X234176Y164185
X234176Y023486
X235446Y168313
X234966Y168948
X236716Y023486
X237351Y023486
X238001Y023486
X239256Y023613
X235446Y171805
X232525Y173075
X230437Y023994
X229858Y173837
X228461Y174416
X227064Y173837
X226485Y023994
X227064Y171043
X228461Y170464
X229858Y171043
X228461Y167614
X229281Y165138
X164768Y165138
X164768Y162958
X231636Y167459
X230366Y145049
X230366Y144251
X231636Y144251
X234684Y144251
X234684Y145049
X234684Y141851
X234811Y139451
X234811Y020455
X234811Y020215
X234811Y019975
X231636Y019895
X231636Y019815
X231001Y019735
X231636Y129049
X231636Y128249
X231001Y127449
X231636Y126649
X231636Y125849
X231001Y125049
X231636Y124249
X231636Y123451
X230366Y123451
X230366Y124249
X230366Y125849
X230366Y126649
X230366Y128249
X230366Y129049
X230366Y019815
X230366Y019895
X231001Y019975
X231636Y020055
X231636Y020135
X231001Y020215
X231636Y020295
X231636Y020375
X231001Y020455
X231636Y137851
X231636Y138651
X231001Y139451
X231636Y140251
X231636Y141051
X230366Y141051
X230366Y140251
X230366Y138651
X230366Y137851
X230366Y020375
X230366Y020295
X230366Y020135
X230366Y020055
X227191Y019975
X227191Y020215
X227191Y020455
X227191Y139451
X227318Y141851
X227191Y144251
X226619Y019735
X227191Y127449
X227191Y125049
X230366Y121051
X230366Y120251
X231001Y119451
X231636Y120251
X231636Y121051
X231636Y118651
X231636Y117851
X231001Y018455
X231636Y018375
X231636Y018295
X231001Y018215
X230366Y018295
X230366Y018375
X230366Y117851
X230366Y118651
X227191Y119451
X227191Y018455
X227191Y018215
X227191Y017895
X227191Y107449
X230366Y108249
X230366Y109049
X230366Y017735
X230366Y017815
X231001Y017895
X231636Y017815
X231636Y017735
X231636Y109049
X231636Y108249
X231001Y107449
X231636Y017975
X231636Y018055
X230366Y018055
X230366Y017975
X234811Y017895
X234811Y107449
X238621Y115925
X239891Y115925
X239256Y121005
X239256Y122275
X239891Y019295
X238621Y019295
X234811Y125049
X234811Y127449
X234811Y119451
X234811Y018455
X238621Y134975
X239891Y134975
X239256Y140055
X239256Y141325
X239891Y007637
X238621Y007637
X251638Y160693
X252591Y162915
X251321Y164185
X251321Y165455
X253861Y162915
X255131Y164185
X255131Y165455
X259258Y159728
X259576Y159105
X261481Y162915
X265291Y159728
X168368Y164693
X168323Y023545
X266279Y023613
X168433Y023545
X267381Y023613
X168543Y023545
X268481Y023613
X168653Y023545
X269581Y023613
X270129Y023545
X270681Y023613
X271229Y023545
X168928Y023613
X272329Y023545
X169038Y023613
X272179Y164693
X275133Y023105
X277356Y023232
X277991Y166293
X277991Y167995
X277356Y023613
X277991Y170464
X276594Y171043
X276015Y023994
X276594Y173837
X277991Y174416
X279388Y173837
X279967Y023994
X279388Y171043
X279896Y023486
X280531Y165455
X265179Y023613
X279832Y019735
X279261Y127449
X279261Y125049
X261481Y018406
X258941Y018406
X261481Y111211
X258052Y110711
X257544Y017771
X258941Y107035
X261481Y107035
X267831Y098145
X279261Y094335
T09
X019549Y009012
X019803Y009012
X014596Y009012
X014342Y009012
X014342Y013203
X014596Y013203
X019549Y013203
X019803Y013203
X008758Y167994
X008758Y165454
X009012Y165454
X009012Y167994
X013203Y167994
X013203Y165454
X013457Y165454
X013457Y167994
X013457Y105764
X013457Y103224
X013203Y103224
X013203Y105764
X009012Y105764
X009012Y103224
X008758Y103224
X008758Y105764
X169549Y009012
X169803Y009012
X164596Y009012
X164342Y009012
X164342Y013203
X164596Y013203
X169549Y013203
X169803Y013203
X158758Y167994
X158758Y165454
X159012Y165454
X159012Y167994
X163203Y167994
X163203Y165454
X163457Y165454
X163457Y167994
X163457Y105764
X163457Y103224
X163203Y103224
X163203Y105764
X159012Y105764
X159012Y103224
X158758Y103224
X158758Y105764
T10
X035955Y127989
X010155Y129894
X051195Y143229
X007956Y141324
X018114Y104051
X018114Y017244
X112751Y017244
X112751Y104051
X111862Y104051
X111862Y017244
X111862Y113576
X112751Y113576
X018114Y113576
X018114Y114465
X112751Y114465
X111862Y114465
X111862Y123101
X112751Y123101
X018114Y123101
X018114Y019149
X112751Y019149
X111862Y019149
X111862Y132626
X112751Y132626
X018114Y132626
X018114Y133515
X112751Y133515
X111862Y133515
X114846Y141706
X115735Y141706
X115735Y142595
X115735Y143484
X114846Y143484
X114846Y142595
X108115Y142595
X108115Y143484
X107226Y143484
X107226Y142595
X107226Y141706
X108115Y141706
X016209Y145961
X016209Y021435
X093701Y021435
X093701Y145961
X092812Y145961
X092812Y021435
X092812Y137325
X093701Y137325
X016209Y137325
X016209Y136436
X093701Y136436
X092812Y136436
X092812Y008703
X093701Y008703
X016209Y008703
X016209Y126911
X093701Y126911
X092812Y126911
X092812Y118275
X093701Y118275
X016209Y118275
X016209Y117386
X093701Y117386
X092812Y117386
X091605Y109194
X091605Y108305
X091605Y107416
X090716Y107416
X090716Y108305
X090716Y109194
X098336Y109194
X099225Y109194
X099225Y108305
X099225Y107416
X098336Y107416
X098336Y108305
X016355Y082524
X016355Y081635
X016355Y080746
X095161Y080746
X095161Y081635
X095161Y082524
X015593Y082524
X015593Y081635
X015593Y080746
X087541Y080746
X087541Y081635
X087541Y082524
X102781Y082524
X017117Y082524
X017117Y081635
X017117Y080746
X102781Y080746
X102781Y081635
X110401Y081635
X017879Y081635
X017879Y082524
X110401Y082524
X110401Y080746
X017879Y080746
X118021Y080746
X018641Y080746
X018641Y081635
X018641Y082524
X118021Y082524
X118021Y081635
X185955Y127989
X160155Y129894
X201195Y143229
X157956Y141324
X168114Y104051
X168114Y017244
X262751Y017244
X262751Y104051
X261862Y104051
X261862Y017244
X261862Y113576
X262751Y113576
X168114Y113576
X168114Y114465
X262751Y114465
X261862Y114465
X261862Y123101
X262751Y123101
X168114Y123101
X168114Y019149
X262751Y019149
X261862Y019149
X261862Y132626
X262751Y132626
X168114Y132626
X168114Y133515
X262751Y133515
X261862Y133515
X264846Y141706
X265735Y141706
X265735Y142595
X265735Y143484
X264846Y143484
X264846Y142595
X258115Y142595
X258115Y143484
X257226Y143484
X257226Y142595
X257226Y141706
X258115Y141706
X166209Y145961
X166209Y021435
X243701Y021435
X243701Y145961
X242812Y145961
X242812Y021435
X242812Y137325
X243701Y137325
X166209Y137325
X166209Y136436
X243701Y136436
X242812Y136436
X242812Y008703
X243701Y008703
X166209Y008703
X166209Y126911
X243701Y126911
X242812Y126911
X242812Y118275
X243701Y118275
X166209Y118275
X166209Y117386
X243701Y117386
X242812Y117386
X241605Y109194
X241605Y108305
X241605Y107416
X240716Y107416
X240716Y108305
X240716Y109194
X248336Y109194
X249225Y109194
X249225Y108305
X249225Y107416
X248336Y107416
X248336Y108305
X166355Y082524
X166355Y081635
X166355Y080746
X245161Y080746
X245161Y081635
X245161Y082524
X165593Y082524
X165593Y081635
X165593Y080746
X237541Y080746
X237541Y081635
X237541Y082524
X252781Y082524
X167117Y082524
X167117Y081635
X167117Y080746
X252781Y080746
X252781Y081635
X260401Y081635
X167879Y081635
X167879Y082524
X260401Y082524
X260401Y080746
X167879Y080746
X268021Y080746
X168641Y080746
X168641Y081635
X168641Y082524
X268021Y082524
X268021Y081635
T11
X012568Y135609
X043575Y121004
X035825Y016951
X009647Y135609
X043575Y150214
X051324Y169211
X109576Y075285
X105494Y075311
X104224Y075311
X102954Y075311
X096604Y075311
X091161Y015612
X087033Y093065
X081001Y091795
X082906Y103225
X079096Y103225
X093701Y016374
X101321Y016755
X106401Y016755
X101956Y008362
X103226Y015739
X105766Y015739
X107988Y015739
X108941Y015739
X109893Y015739
X120688Y098145
X120688Y100685
X123546Y103225
X127356Y103225
X120371Y119735
X106718Y130848
X106718Y132753
X101003Y130213
X103226Y018787
X105131Y018787
X105131Y018533
X101321Y018533
X101321Y114655
X086081Y131165
X082906Y147675
X085763Y150215
X085763Y152755
X079096Y147675
X084493Y163233
X090526Y022851
X094971Y022851
X099416Y166408
X100368Y022851
X105131Y160375
X106401Y161645
X107353Y161645
X108306Y161645
X108306Y160375
X108306Y163319
X107353Y163319
X106401Y163319
X107036Y166408
X111481Y166408
X113386Y166408
X113386Y023486
X113386Y165455
X115291Y163868
X119101Y163868
X119418Y157835
X125451Y159105
X127356Y147675
X123546Y147675
X112751Y022216
X111481Y160375
X108306Y156565
X105131Y156565
X094971Y174345
X082271Y075311
X162568Y135609
X193575Y121004
X185825Y016951
X159647Y135609
X193575Y150214
X201324Y169211
X259576Y075285
X255494Y075311
X254224Y075311
X252954Y075311
X246604Y075311
X241161Y015612
X237033Y093065
X231001Y091795
X232906Y103225
X229096Y103225
X243701Y016374
X251321Y016755
X256401Y016755
X251956Y008362
X253226Y015739
X255766Y015739
X257988Y015739
X258941Y015739
X259893Y015739
X270688Y098145
X270688Y100685
X273546Y103225
X277356Y103225
X270371Y119735
X256718Y130848
X256718Y132753
X251003Y130213
X253226Y018787
X255131Y018787
X255131Y018533
X251321Y018533
X251321Y114655
X236081Y131165
X232906Y147675
X235763Y150215
X235763Y152755
X229096Y147675
X234493Y163233
X240526Y022851
X244971Y022851
X249416Y166408
X250368Y022851
X255131Y160375
X256401Y161645
X257353Y161645
X258306Y161645
X258306Y160375
X258306Y163319
X257353Y163319
X256401Y163319
X257036Y166408
X261481Y166408
X263386Y166408
X263386Y023486
X263386Y165455
X265291Y163868
X269101Y163868
X269418Y157835
X275451Y159105
X277356Y147675
X273546Y147675
X262751Y022216
X261481Y160375
X258306Y156565
X255131Y156565
X244971Y174345
X232271Y075311
T12
X044845Y148944
X046115Y147674
X042305Y148944
X041035Y147674
X009901Y138149
X009774Y136879
X009774Y134339
X009901Y133069
X041035Y123544
X042305Y122274
X044845Y122274
X046115Y123544
X012314Y133069
X012441Y134339
X012441Y136879
X012314Y138149
X194845Y148944
X196115Y147674
X192305Y148944
X191035Y147674
X159901Y138149
X159774Y136879
X159774Y134339
X159901Y133069
X191035Y123544
X192305Y122274
X194845Y122274
X196115Y123544
X162314Y133069
X162441Y134339
X162441Y136879
X162314Y138149
T13
X054245Y164415
X060844Y164415
X032904Y106806
X026305Y106806
X092555Y099644
X085954Y099644
X113894Y151254
X120495Y151254
X204245Y164415
X210844Y164415
X182904Y106806
X176305Y106806
X242555Y099644
X235954Y099644
X263894Y151254
X270495Y151254
T14
X060948Y104611
X026191Y166724
X210948Y104611
X176191Y166724
T15
X025787Y015048
X024786Y080979
X023788Y015048
X022787Y080979
X021787Y015048
X020788Y080979
X019788Y015048
X020788Y014598
X021787Y076481
X022787Y014598
X023788Y076481
X024786Y014598
X025787Y076481
X028787Y014598
X029788Y076481
X030788Y014598
X031787Y076481
X032787Y014598
X033788Y076481
X034786Y014598
X035787Y076481
X036788Y014598
X037789Y076481
X038787Y014598
X038787Y080979
X037789Y015048
X036788Y080979
X035787Y015048
X034786Y080979
X033788Y015048
X032787Y080979
X031787Y015048
X030788Y080979
X029788Y015048
X028787Y080979
X019788Y076481
X048363Y076481
X049363Y014598
X050362Y076481
X051362Y014598
X052363Y076481
X053361Y014598
X054362Y076481
X057362Y014598
X058363Y076481
X059363Y014598
X060362Y076481
X061362Y014598
X062363Y076481
X063361Y014598
X064362Y076481
X065363Y014598
X066364Y076481
X067362Y014598
X067362Y080979
X066364Y015048
X065363Y080979
X064362Y015048
X063361Y080979
X062363Y015048
X061362Y080979
X060362Y015048
X059363Y080979
X058363Y015048
X057362Y080979
X054362Y015048
X053361Y080979
X052363Y015048
X051362Y080979
X050362Y015048
X049363Y080979
X048363Y015048
X175787Y015048
X174786Y080979
X173788Y015048
X172787Y080979
X171787Y015048
X170788Y080979
X169788Y015048
X170788Y014598
X171787Y076481
X172787Y014598
X173788Y076481
X174786Y014598
X175787Y076481
X178787Y014598
X179788Y076481
X180788Y014598
X181787Y076481
X182787Y014598
X183788Y076481
X184786Y014598
X185787Y076481
X186788Y014598
X187789Y076481
X188787Y014598
X188787Y080979
X187789Y015048
X186788Y080979
X185787Y015048
X184786Y080979
X183788Y015048
X182787Y080979
X181787Y015048
X180788Y080979
X179788Y015048
X178787Y080979
X169788Y076481
X198363Y076481
X199363Y014598
X200362Y076481
X201362Y014598
X202363Y076481
X203361Y014598
X204362Y076481
X207362Y014598
X208363Y076481
X209363Y014598
X210362Y076481
X211362Y014598
X212363Y076481
X213361Y014598
X214362Y076481
X215363Y014598
X216364Y076481
X217362Y014598
X217362Y080979
X216364Y015048
X215363Y080979
X214362Y015048
X213361Y080979
X212363Y015048
X211362Y080979
X210362Y015048
X209363Y080979
X208363Y015048
X207362Y080979
X204362Y015048
X203361Y080979
X202363Y015048
X201362Y080979
X200362Y015048
X199363Y080979
X198363Y015048
T16
X008083Y113511
X008885Y113511
X125451Y147551
X125451Y147551
X081001Y147551
X081001Y147551
X158083Y113511
X158885Y113511
X275451Y147551
X275451Y147551
X231001Y147551
X231001Y147551
T17
X026191Y101334
X026191Y099335
X026191Y097334
X026191Y095335
X026191Y093336
X028193Y093336
X028193Y095335
X028193Y097334
X028193Y099335
X028193Y101334
X028193Y091334
X028193Y089336
X028193Y087334
X026191Y087334
X026191Y089336
X026191Y091334
X058957Y091334
X058957Y089336
X058957Y087334
X060959Y087334
X060959Y089336
X060959Y091334
X060959Y093336
X060959Y095335
X060959Y097334
X060959Y099335
X060959Y101334
X058957Y101334
X058957Y099335
X058957Y097334
X058957Y095335
X058957Y093336
X058957Y169884
X058957Y171886
X058957Y173884
X058957Y175886
X058957Y177885
X058957Y179884
X058957Y181885
X058957Y183884
X060959Y183884
X060959Y181885
X060959Y179884
X060959Y177885
X060959Y175886
X060959Y173884
X060959Y171886
X060959Y169884
X028193Y169884
X028193Y171886
X028193Y173884
X028193Y175886
X028193Y177885
X028193Y179884
X028193Y181885
X028193Y183884
X026191Y183884
X026191Y181885
X026191Y179884
X026191Y177885
X026191Y175886
X026191Y173884
X026191Y171886
X026191Y169884
X176191Y101334
X176191Y099335
X176191Y097334
X176191Y095335
X176191Y093336
X178193Y093336
X178193Y095335
X178193Y097334
X178193Y099335
X178193Y101334
X178193Y091334
X178193Y089336
X178193Y087334
X176191Y087334
X176191Y089336
X176191Y091334
X208957Y091334
X208957Y089336
X208957Y087334
X210959Y087334
X210959Y089336
X210959Y091334
X210959Y093336
X210959Y095335
X210959Y097334
X210959Y099335
X210959Y101334
X208957Y101334
X208957Y099335
X208957Y097334
X208957Y095335
X208957Y093336
X208957Y169884
X208957Y171886
X208957Y173884
X208957Y175886
X208957Y177885
X208957Y179884
X208957Y181885
X208957Y183884
X210959Y183884
X210959Y181885
X210959Y179884
X210959Y177885
X210959Y175886
X210959Y173884
X210959Y171886
X210959Y169884
X178193Y169884
X178193Y171886
X178193Y173884
X178193Y175886
X178193Y177885
X178193Y179884
X178193Y181885
X178193Y183884
X176191Y183884
X176191Y181885
X176191Y179884
X176191Y177885
X176191Y175886
X176191Y173884
X176191Y171886
X176191Y169884
T18
X008885Y174616
X008885Y176615
X158885Y174616
X158885Y176615
T19
X027375Y157834
X059775Y113384
X082271Y150215
X082271Y152755
X082271Y155295
X082271Y157835
X079731Y157835
X079731Y155295
X079731Y152755
X079731Y150215
X079731Y100685
X082271Y100685
X082271Y098145
X082271Y095605
X082271Y093065
X079731Y093065
X079731Y095605
X079731Y098145
X124181Y098145
X126721Y098145
X126721Y100685
X124181Y100685
X124181Y095605
X126721Y095605
X126721Y093065
X124181Y093065
X124181Y150215
X126721Y150215
X126721Y152755
X126721Y155295
X126721Y157835
X124181Y157835
X124181Y155295
X124181Y152755
X177375Y157834
X209775Y113384
X232271Y150215
X232271Y152755
X232271Y155295
X232271Y157835
X229731Y157835
X229731Y155295
X229731Y152755
X229731Y150215
X229731Y100685
X232271Y100685
X232271Y098145
X232271Y095605
X232271Y093065
X229731Y093065
X229731Y095605
X229731Y098145
X274181Y098145
X276721Y098145
X276721Y100685
X274181Y100685
X274181Y095605
X276721Y095605
X276721Y093065
X274181Y093065
X274181Y150215
X276721Y150215
X276721Y152755
X276721Y155295
X276721Y157835
X274181Y157835
X274181Y155295
X274181Y152755
T20
X009012Y160374
X009012Y162914
X027375Y113384
X009012Y110844
X009012Y108304
X059775Y157834
X013203Y160374
X013203Y162914
X013203Y110844
X013203Y108304
X159012Y160374
X159012Y162914
X177375Y113384
X159012Y110844
X159012Y108304
X209775Y157834
X163203Y160374
X163203Y162914
X163203Y110844
X163203Y108304
T21
X055713Y079729
X046562Y079729
X027138Y079729
X017987Y079729
X205713Y079729
X196562Y079729
X177138Y079729
X167987Y079729
T22
X008631Y088619
X013584Y088619
X013584Y182599
X008631Y182599
X078461Y014596
X127991Y014596
X127991Y023994
X078461Y023994
X158631Y088619
X163584Y088619
X163584Y182599
X158631Y182599
X228461Y014596
X277991Y014596
X277991Y023994
X228461Y023994
T23
X096876Y022343
X096876Y008997
X098146Y008997
X098146Y022343
X097193Y147675
X097193Y021454
X096241Y007637
X096241Y143865
X092431Y142913
X091161Y142913
X087986Y146088
X087986Y146723
X087986Y137198
X087986Y136563
X091161Y133388
X092431Y133388
X096241Y020184
X096241Y134975
X097193Y137515
X097193Y020565
X097193Y128625
X097193Y019549
X096241Y019295
X096241Y124815
X092431Y123863
X091161Y123863
X087986Y127038
X087986Y127673
X087986Y118148
X087986Y117513
X089891Y111798
X090526Y111798
X093066Y110845
X093701Y110845
X097511Y111798
X098146Y111798
X100686Y110845
X101321Y110845
X096241Y018279
X096241Y115925
X097193Y118465
X097193Y008616
X102591Y124815
X102591Y126085
X103861Y126085
X103861Y124815
X109258Y019041
X109258Y122275
X110211Y019295
X110211Y126085
X114021Y127038
X115291Y127038
X118466Y123863
X118466Y123228
X115291Y117513
X114021Y117513
X110211Y018406
X110211Y115925
X109258Y113385
X109258Y018025
X110211Y107035
X110211Y008489
X109258Y017136
X109258Y103225
X114021Y107988
X115291Y107988
X118466Y104813
X118466Y104178
X118466Y113703
X118466Y114338
X109258Y008743
X109258Y132435
X110211Y134975
X110211Y020311
X108941Y139103
X108306Y139103
X105766Y140055
X105131Y140055
X107353Y147993
X107988Y147993
X112116Y150215
X114973Y147993
X115608Y147993
X118148Y148945
X113386Y140055
X112751Y140055
X115926Y139103
X116561Y139103
X118466Y133388
X118466Y132753
X099098Y102908
X098463Y102908
X094336Y100685
X091478Y102908
X090843Y102908
X088303Y101955
X098146Y091795
X099416Y091795
X099416Y090525
X098146Y090525
X094971Y085128
X094336Y085128
X097511Y084175
X098146Y084175
X099098Y080365
X097511Y079413
X097511Y078778
X101956Y085128
X102591Y085128
X105131Y084175
X105766Y084175
X106718Y080365
X105131Y079413
X105131Y078778
X109576Y085128
X110211Y085128
X112751Y084175
X113386Y084175
X114338Y080365
X112751Y079413
X112751Y078778
X117196Y085128
X117831Y085128
X120371Y084175
X121006Y084175
X120371Y079413
X120371Y078778
X109576Y008362
X109576Y016247
X108306Y016247
X108306Y008362
X091478Y080365
X089891Y079413
X089891Y078778
X089891Y084175
X090526Y084175
X087351Y085128
X086716Y085128
X118481Y024039
X246876Y022343
X246876Y008997
X248146Y008997
X248146Y022343
X247193Y147675
X247193Y021454
X246241Y007637
X246241Y143865
X242431Y142913
X241161Y142913
X237986Y146088
X237986Y146723
X237986Y137198
X237986Y136563
X241161Y133388
X242431Y133388
X246241Y020184
X246241Y134975
X247193Y137515
X247193Y020565
X247193Y128625
X247193Y019549
X246241Y019295
X246241Y124815
X242431Y123863
X241161Y123863
X237986Y127038
X237986Y127673
X237986Y118148
X237986Y117513
X239891Y111798
X240526Y111798
X243066Y110845
X243701Y110845
X247511Y111798
X248146Y111798
X250686Y110845
X251321Y110845
X246241Y018279
X246241Y115925
X247193Y118465
X247193Y008616
X252591Y124815
X252591Y126085
X253861Y126085
X253861Y124815
X259258Y019041
X259258Y122275
X260211Y019295
X260211Y126085
X264021Y127038
X265291Y127038
X268466Y123863
X268466Y123228
X265291Y117513
X264021Y117513
X260211Y018406
X260211Y115925
X259258Y113385
X259258Y018025
X260211Y107035
X260211Y008489
X259258Y017136
X259258Y103225
X264021Y107988
X265291Y107988
X268466Y104813
X268466Y104178
X268466Y113703
X268466Y114338
X259258Y008743
X259258Y132435
X260211Y134975
X260211Y020311
X258941Y139103
X258306Y139103
X255766Y140055
X255131Y140055
X257353Y147993
X257988Y147993
X262116Y150215
X264973Y147993
X265608Y147993
X268148Y148945
X263386Y140055
X262751Y140055
X265926Y139103
X266561Y139103
X268466Y133388
X268466Y132753
X249098Y102908
X248463Y102908
X244336Y100685
X241478Y102908
X240843Y102908
X238303Y101955
X248146Y091795
X249416Y091795
X249416Y090525
X248146Y090525
X244971Y085128
X244336Y085128
X247511Y084175
X248146Y084175
X249098Y080365
X247511Y079413
X247511Y078778
X251956Y085128
X252591Y085128
X255131Y084175
X255766Y084175
X256718Y080365
X255131Y079413
X255131Y078778
X259576Y085128
X260211Y085128
X262751Y084175
X263386Y084175
X264338Y080365
X262751Y079413
X262751Y078778
X267196Y085128
X267831Y085128
X270371Y084175
X271006Y084175
X270371Y079413
X270371Y078778
X259576Y008362
X259576Y016247
X258306Y016247
X258306Y008362
X241478Y080365
X239891Y079413
X239891Y078778
X239891Y084175
X240526Y084175
X237351Y085128
X236716Y085128
X268481Y024039
T24
X120688Y148945
X119418Y148945
X120688Y155295
X092431Y158851
X090208Y157835
X090208Y155295
X087986Y158851
X085763Y157835
X085763Y155295
X085763Y101955
X087033Y101955
X085763Y095605
X114021Y092049
X116243Y093065
X116243Y095605
X118466Y092049
X120688Y093065
X120688Y095605
X270688Y148945
X269418Y148945
X270688Y155295
X242431Y158851
X240208Y157835
X240208Y155295
X237986Y158851
X235763Y157835
X235763Y155295
X235763Y101955
X237033Y101955
X235763Y095605
X264021Y092049
X266243Y093065
X266243Y095605
X268466Y092049
X270688Y093065
X270688Y095605
T25
X081001Y099415
X081001Y151485
X081001Y154025
X125451Y151485
X125451Y099415
X125451Y096875
X231001Y099415
X231001Y151485
X231001Y154025
X275451Y151485
X275451Y099415
X275451Y096875
M30
