G75*
%MOIN*%
%OFA0B0*%
%FSLAX25Y25*%
%IPPOS*%
%LPD*%
%AMOC8*
5,1,8,0,0,1.08239X$1,22.5*
%
%ADD10C,0.00000*%
%ADD11C,0.00000*%
D10*
X0041833Y0092579D02*
X0041833Y0317579D01*
X0481833Y0317579D01*
X0481833Y0092579D01*
X0041833Y0092579D01*
D11*
X0171971Y0122579D02*
X0171973Y0122676D01*
X0171979Y0122773D01*
X0171989Y0122869D01*
X0172003Y0122965D01*
X0172021Y0123061D01*
X0172042Y0123155D01*
X0172068Y0123249D01*
X0172097Y0123341D01*
X0172131Y0123432D01*
X0172167Y0123522D01*
X0172208Y0123610D01*
X0172252Y0123696D01*
X0172300Y0123781D01*
X0172351Y0123863D01*
X0172405Y0123944D01*
X0172463Y0124022D01*
X0172524Y0124097D01*
X0172587Y0124170D01*
X0172654Y0124241D01*
X0172724Y0124308D01*
X0172796Y0124373D01*
X0172871Y0124434D01*
X0172949Y0124493D01*
X0173028Y0124548D01*
X0173110Y0124600D01*
X0173194Y0124648D01*
X0173280Y0124693D01*
X0173368Y0124735D01*
X0173457Y0124773D01*
X0173548Y0124807D01*
X0173640Y0124837D01*
X0173733Y0124864D01*
X0173828Y0124886D01*
X0173923Y0124905D01*
X0174019Y0124920D01*
X0174115Y0124931D01*
X0174212Y0124938D01*
X0174309Y0124941D01*
X0174406Y0124940D01*
X0174503Y0124935D01*
X0174599Y0124926D01*
X0174695Y0124913D01*
X0174791Y0124896D01*
X0174886Y0124875D01*
X0174979Y0124851D01*
X0175072Y0124822D01*
X0175164Y0124790D01*
X0175254Y0124754D01*
X0175342Y0124715D01*
X0175429Y0124671D01*
X0175514Y0124625D01*
X0175597Y0124574D01*
X0175678Y0124521D01*
X0175756Y0124464D01*
X0175833Y0124404D01*
X0175906Y0124341D01*
X0175977Y0124275D01*
X0176045Y0124206D01*
X0176111Y0124134D01*
X0176173Y0124060D01*
X0176232Y0123983D01*
X0176288Y0123904D01*
X0176341Y0123822D01*
X0176391Y0123739D01*
X0176436Y0123653D01*
X0176479Y0123566D01*
X0176518Y0123477D01*
X0176553Y0123387D01*
X0176584Y0123295D01*
X0176611Y0123202D01*
X0176635Y0123108D01*
X0176655Y0123013D01*
X0176671Y0122917D01*
X0176683Y0122821D01*
X0176691Y0122724D01*
X0176695Y0122627D01*
X0176695Y0122531D01*
X0176691Y0122434D01*
X0176683Y0122337D01*
X0176671Y0122241D01*
X0176655Y0122145D01*
X0176635Y0122050D01*
X0176611Y0121956D01*
X0176584Y0121863D01*
X0176553Y0121771D01*
X0176518Y0121681D01*
X0176479Y0121592D01*
X0176436Y0121505D01*
X0176391Y0121419D01*
X0176341Y0121336D01*
X0176288Y0121254D01*
X0176232Y0121175D01*
X0176173Y0121098D01*
X0176111Y0121024D01*
X0176045Y0120952D01*
X0175977Y0120883D01*
X0175906Y0120817D01*
X0175833Y0120754D01*
X0175756Y0120694D01*
X0175678Y0120637D01*
X0175597Y0120584D01*
X0175514Y0120533D01*
X0175429Y0120487D01*
X0175342Y0120443D01*
X0175254Y0120404D01*
X0175164Y0120368D01*
X0175072Y0120336D01*
X0174979Y0120307D01*
X0174886Y0120283D01*
X0174791Y0120262D01*
X0174695Y0120245D01*
X0174599Y0120232D01*
X0174503Y0120223D01*
X0174406Y0120218D01*
X0174309Y0120217D01*
X0174212Y0120220D01*
X0174115Y0120227D01*
X0174019Y0120238D01*
X0173923Y0120253D01*
X0173828Y0120272D01*
X0173733Y0120294D01*
X0173640Y0120321D01*
X0173548Y0120351D01*
X0173457Y0120385D01*
X0173368Y0120423D01*
X0173280Y0120465D01*
X0173194Y0120510D01*
X0173110Y0120558D01*
X0173028Y0120610D01*
X0172949Y0120665D01*
X0172871Y0120724D01*
X0172796Y0120785D01*
X0172724Y0120850D01*
X0172654Y0120917D01*
X0172587Y0120988D01*
X0172524Y0121061D01*
X0172463Y0121136D01*
X0172405Y0121214D01*
X0172351Y0121295D01*
X0172300Y0121377D01*
X0172252Y0121462D01*
X0172208Y0121548D01*
X0172167Y0121636D01*
X0172131Y0121726D01*
X0172097Y0121817D01*
X0172068Y0121909D01*
X0172042Y0122003D01*
X0172021Y0122097D01*
X0172003Y0122193D01*
X0171989Y0122289D01*
X0171979Y0122385D01*
X0171973Y0122482D01*
X0171971Y0122579D01*
X0181971Y0122579D02*
X0181973Y0122676D01*
X0181979Y0122773D01*
X0181989Y0122869D01*
X0182003Y0122965D01*
X0182021Y0123061D01*
X0182042Y0123155D01*
X0182068Y0123249D01*
X0182097Y0123341D01*
X0182131Y0123432D01*
X0182167Y0123522D01*
X0182208Y0123610D01*
X0182252Y0123696D01*
X0182300Y0123781D01*
X0182351Y0123863D01*
X0182405Y0123944D01*
X0182463Y0124022D01*
X0182524Y0124097D01*
X0182587Y0124170D01*
X0182654Y0124241D01*
X0182724Y0124308D01*
X0182796Y0124373D01*
X0182871Y0124434D01*
X0182949Y0124493D01*
X0183028Y0124548D01*
X0183110Y0124600D01*
X0183194Y0124648D01*
X0183280Y0124693D01*
X0183368Y0124735D01*
X0183457Y0124773D01*
X0183548Y0124807D01*
X0183640Y0124837D01*
X0183733Y0124864D01*
X0183828Y0124886D01*
X0183923Y0124905D01*
X0184019Y0124920D01*
X0184115Y0124931D01*
X0184212Y0124938D01*
X0184309Y0124941D01*
X0184406Y0124940D01*
X0184503Y0124935D01*
X0184599Y0124926D01*
X0184695Y0124913D01*
X0184791Y0124896D01*
X0184886Y0124875D01*
X0184979Y0124851D01*
X0185072Y0124822D01*
X0185164Y0124790D01*
X0185254Y0124754D01*
X0185342Y0124715D01*
X0185429Y0124671D01*
X0185514Y0124625D01*
X0185597Y0124574D01*
X0185678Y0124521D01*
X0185756Y0124464D01*
X0185833Y0124404D01*
X0185906Y0124341D01*
X0185977Y0124275D01*
X0186045Y0124206D01*
X0186111Y0124134D01*
X0186173Y0124060D01*
X0186232Y0123983D01*
X0186288Y0123904D01*
X0186341Y0123822D01*
X0186391Y0123739D01*
X0186436Y0123653D01*
X0186479Y0123566D01*
X0186518Y0123477D01*
X0186553Y0123387D01*
X0186584Y0123295D01*
X0186611Y0123202D01*
X0186635Y0123108D01*
X0186655Y0123013D01*
X0186671Y0122917D01*
X0186683Y0122821D01*
X0186691Y0122724D01*
X0186695Y0122627D01*
X0186695Y0122531D01*
X0186691Y0122434D01*
X0186683Y0122337D01*
X0186671Y0122241D01*
X0186655Y0122145D01*
X0186635Y0122050D01*
X0186611Y0121956D01*
X0186584Y0121863D01*
X0186553Y0121771D01*
X0186518Y0121681D01*
X0186479Y0121592D01*
X0186436Y0121505D01*
X0186391Y0121419D01*
X0186341Y0121336D01*
X0186288Y0121254D01*
X0186232Y0121175D01*
X0186173Y0121098D01*
X0186111Y0121024D01*
X0186045Y0120952D01*
X0185977Y0120883D01*
X0185906Y0120817D01*
X0185833Y0120754D01*
X0185756Y0120694D01*
X0185678Y0120637D01*
X0185597Y0120584D01*
X0185514Y0120533D01*
X0185429Y0120487D01*
X0185342Y0120443D01*
X0185254Y0120404D01*
X0185164Y0120368D01*
X0185072Y0120336D01*
X0184979Y0120307D01*
X0184886Y0120283D01*
X0184791Y0120262D01*
X0184695Y0120245D01*
X0184599Y0120232D01*
X0184503Y0120223D01*
X0184406Y0120218D01*
X0184309Y0120217D01*
X0184212Y0120220D01*
X0184115Y0120227D01*
X0184019Y0120238D01*
X0183923Y0120253D01*
X0183828Y0120272D01*
X0183733Y0120294D01*
X0183640Y0120321D01*
X0183548Y0120351D01*
X0183457Y0120385D01*
X0183368Y0120423D01*
X0183280Y0120465D01*
X0183194Y0120510D01*
X0183110Y0120558D01*
X0183028Y0120610D01*
X0182949Y0120665D01*
X0182871Y0120724D01*
X0182796Y0120785D01*
X0182724Y0120850D01*
X0182654Y0120917D01*
X0182587Y0120988D01*
X0182524Y0121061D01*
X0182463Y0121136D01*
X0182405Y0121214D01*
X0182351Y0121295D01*
X0182300Y0121377D01*
X0182252Y0121462D01*
X0182208Y0121548D01*
X0182167Y0121636D01*
X0182131Y0121726D01*
X0182097Y0121817D01*
X0182068Y0121909D01*
X0182042Y0122003D01*
X0182021Y0122097D01*
X0182003Y0122193D01*
X0181989Y0122289D01*
X0181979Y0122385D01*
X0181973Y0122482D01*
X0181971Y0122579D01*
X0193398Y0117579D02*
X0193400Y0117654D01*
X0193406Y0117729D01*
X0193416Y0117804D01*
X0193430Y0117878D01*
X0193447Y0117951D01*
X0193469Y0118024D01*
X0193494Y0118094D01*
X0193523Y0118164D01*
X0193556Y0118232D01*
X0193592Y0118298D01*
X0193632Y0118362D01*
X0193675Y0118424D01*
X0193721Y0118483D01*
X0193770Y0118540D01*
X0193823Y0118595D01*
X0193878Y0118646D01*
X0193935Y0118695D01*
X0193995Y0118740D01*
X0194058Y0118782D01*
X0194122Y0118821D01*
X0194189Y0118856D01*
X0194257Y0118888D01*
X0194327Y0118916D01*
X0194398Y0118941D01*
X0194471Y0118961D01*
X0194544Y0118978D01*
X0194619Y0118991D01*
X0194693Y0119000D01*
X0194769Y0119005D01*
X0194844Y0119006D01*
X0194919Y0119003D01*
X0194994Y0118996D01*
X0195069Y0118985D01*
X0195143Y0118970D01*
X0195216Y0118952D01*
X0195287Y0118929D01*
X0195358Y0118903D01*
X0195427Y0118873D01*
X0195495Y0118839D01*
X0195560Y0118802D01*
X0195624Y0118762D01*
X0195685Y0118718D01*
X0195744Y0118671D01*
X0195800Y0118621D01*
X0195854Y0118568D01*
X0195905Y0118512D01*
X0195952Y0118454D01*
X0195997Y0118393D01*
X0196038Y0118330D01*
X0196076Y0118265D01*
X0196111Y0118198D01*
X0196142Y0118129D01*
X0196169Y0118059D01*
X0196192Y0117988D01*
X0196212Y0117915D01*
X0196228Y0117841D01*
X0196240Y0117767D01*
X0196248Y0117692D01*
X0196252Y0117617D01*
X0196252Y0117541D01*
X0196248Y0117466D01*
X0196240Y0117391D01*
X0196228Y0117317D01*
X0196212Y0117243D01*
X0196192Y0117170D01*
X0196169Y0117099D01*
X0196142Y0117029D01*
X0196111Y0116960D01*
X0196076Y0116893D01*
X0196038Y0116828D01*
X0195997Y0116765D01*
X0195952Y0116704D01*
X0195905Y0116646D01*
X0195854Y0116590D01*
X0195800Y0116537D01*
X0195744Y0116487D01*
X0195685Y0116440D01*
X0195624Y0116396D01*
X0195560Y0116356D01*
X0195495Y0116319D01*
X0195427Y0116285D01*
X0195358Y0116255D01*
X0195287Y0116229D01*
X0195216Y0116206D01*
X0195143Y0116188D01*
X0195069Y0116173D01*
X0194994Y0116162D01*
X0194919Y0116155D01*
X0194844Y0116152D01*
X0194769Y0116153D01*
X0194693Y0116158D01*
X0194619Y0116167D01*
X0194544Y0116180D01*
X0194471Y0116197D01*
X0194398Y0116217D01*
X0194327Y0116242D01*
X0194257Y0116270D01*
X0194189Y0116302D01*
X0194122Y0116337D01*
X0194058Y0116376D01*
X0193995Y0116418D01*
X0193935Y0116463D01*
X0193878Y0116512D01*
X0193823Y0116563D01*
X0193770Y0116618D01*
X0193721Y0116675D01*
X0193675Y0116734D01*
X0193632Y0116796D01*
X0193592Y0116860D01*
X0193556Y0116926D01*
X0193523Y0116994D01*
X0193494Y0117064D01*
X0193469Y0117134D01*
X0193447Y0117207D01*
X0193430Y0117280D01*
X0193416Y0117354D01*
X0193406Y0117429D01*
X0193400Y0117504D01*
X0193398Y0117579D01*
X0192168Y0141300D02*
X0192170Y0141393D01*
X0192176Y0141485D01*
X0192186Y0141577D01*
X0192200Y0141668D01*
X0192217Y0141759D01*
X0192239Y0141849D01*
X0192264Y0141938D01*
X0192293Y0142026D01*
X0192326Y0142112D01*
X0192363Y0142197D01*
X0192403Y0142281D01*
X0192447Y0142362D01*
X0192494Y0142442D01*
X0192544Y0142520D01*
X0192598Y0142595D01*
X0192655Y0142668D01*
X0192715Y0142738D01*
X0192778Y0142806D01*
X0192844Y0142871D01*
X0192912Y0142933D01*
X0192983Y0142993D01*
X0193057Y0143049D01*
X0193133Y0143102D01*
X0193211Y0143151D01*
X0193291Y0143198D01*
X0193373Y0143240D01*
X0193457Y0143280D01*
X0193542Y0143315D01*
X0193629Y0143347D01*
X0193717Y0143376D01*
X0193806Y0143400D01*
X0193896Y0143421D01*
X0193987Y0143437D01*
X0194079Y0143450D01*
X0194171Y0143459D01*
X0194264Y0143464D01*
X0194356Y0143465D01*
X0194449Y0143462D01*
X0194541Y0143455D01*
X0194633Y0143444D01*
X0194724Y0143429D01*
X0194815Y0143411D01*
X0194905Y0143388D01*
X0194993Y0143362D01*
X0195081Y0143332D01*
X0195167Y0143298D01*
X0195251Y0143261D01*
X0195334Y0143219D01*
X0195415Y0143175D01*
X0195495Y0143127D01*
X0195572Y0143076D01*
X0195646Y0143021D01*
X0195719Y0142963D01*
X0195789Y0142903D01*
X0195856Y0142839D01*
X0195920Y0142773D01*
X0195982Y0142703D01*
X0196040Y0142632D01*
X0196095Y0142558D01*
X0196147Y0142481D01*
X0196196Y0142402D01*
X0196242Y0142322D01*
X0196284Y0142239D01*
X0196322Y0142155D01*
X0196357Y0142069D01*
X0196388Y0141982D01*
X0196415Y0141894D01*
X0196438Y0141804D01*
X0196458Y0141714D01*
X0196474Y0141623D01*
X0196486Y0141531D01*
X0196494Y0141439D01*
X0196498Y0141346D01*
X0196498Y0141254D01*
X0196494Y0141161D01*
X0196486Y0141069D01*
X0196474Y0140977D01*
X0196458Y0140886D01*
X0196438Y0140796D01*
X0196415Y0140706D01*
X0196388Y0140618D01*
X0196357Y0140531D01*
X0196322Y0140445D01*
X0196284Y0140361D01*
X0196242Y0140278D01*
X0196196Y0140198D01*
X0196147Y0140119D01*
X0196095Y0140042D01*
X0196040Y0139968D01*
X0195982Y0139897D01*
X0195920Y0139827D01*
X0195856Y0139761D01*
X0195789Y0139697D01*
X0195719Y0139637D01*
X0195646Y0139579D01*
X0195572Y0139524D01*
X0195495Y0139473D01*
X0195416Y0139425D01*
X0195334Y0139381D01*
X0195251Y0139339D01*
X0195167Y0139302D01*
X0195081Y0139268D01*
X0194993Y0139238D01*
X0194905Y0139212D01*
X0194815Y0139189D01*
X0194724Y0139171D01*
X0194633Y0139156D01*
X0194541Y0139145D01*
X0194449Y0139138D01*
X0194356Y0139135D01*
X0194264Y0139136D01*
X0194171Y0139141D01*
X0194079Y0139150D01*
X0193987Y0139163D01*
X0193896Y0139179D01*
X0193806Y0139200D01*
X0193717Y0139224D01*
X0193629Y0139253D01*
X0193542Y0139285D01*
X0193457Y0139320D01*
X0193373Y0139360D01*
X0193291Y0139402D01*
X0193211Y0139449D01*
X0193133Y0139498D01*
X0193057Y0139551D01*
X0192983Y0139607D01*
X0192912Y0139667D01*
X0192844Y0139729D01*
X0192778Y0139794D01*
X0192715Y0139862D01*
X0192655Y0139932D01*
X0192598Y0140005D01*
X0192544Y0140080D01*
X0192494Y0140158D01*
X0192447Y0140238D01*
X0192403Y0140319D01*
X0192363Y0140403D01*
X0192326Y0140488D01*
X0192293Y0140574D01*
X0192264Y0140662D01*
X0192239Y0140751D01*
X0192217Y0140841D01*
X0192200Y0140932D01*
X0192186Y0141023D01*
X0192176Y0141115D01*
X0192170Y0141207D01*
X0192168Y0141300D01*
X0167198Y0247087D02*
X0167200Y0247157D01*
X0167206Y0247226D01*
X0167216Y0247295D01*
X0167229Y0247363D01*
X0167247Y0247430D01*
X0167268Y0247497D01*
X0167293Y0247562D01*
X0167322Y0247625D01*
X0167354Y0247687D01*
X0167390Y0247747D01*
X0167429Y0247804D01*
X0167471Y0247860D01*
X0167516Y0247913D01*
X0167564Y0247963D01*
X0167615Y0248010D01*
X0167669Y0248055D01*
X0167725Y0248096D01*
X0167783Y0248134D01*
X0167843Y0248169D01*
X0167906Y0248201D01*
X0167969Y0248228D01*
X0168035Y0248252D01*
X0168101Y0248273D01*
X0168169Y0248289D01*
X0168237Y0248302D01*
X0168306Y0248311D01*
X0168376Y0248316D01*
X0168445Y0248317D01*
X0168515Y0248314D01*
X0168584Y0248307D01*
X0168653Y0248296D01*
X0168721Y0248282D01*
X0168788Y0248263D01*
X0168854Y0248241D01*
X0168919Y0248215D01*
X0168982Y0248185D01*
X0169043Y0248152D01*
X0169102Y0248116D01*
X0169159Y0248076D01*
X0169214Y0248033D01*
X0169266Y0247987D01*
X0169316Y0247938D01*
X0169363Y0247886D01*
X0169406Y0247832D01*
X0169447Y0247776D01*
X0169484Y0247717D01*
X0169518Y0247656D01*
X0169549Y0247594D01*
X0169576Y0247529D01*
X0169599Y0247464D01*
X0169618Y0247397D01*
X0169634Y0247329D01*
X0169646Y0247260D01*
X0169654Y0247191D01*
X0169658Y0247122D01*
X0169658Y0247052D01*
X0169654Y0246983D01*
X0169646Y0246914D01*
X0169634Y0246845D01*
X0169618Y0246777D01*
X0169599Y0246710D01*
X0169576Y0246645D01*
X0169549Y0246580D01*
X0169518Y0246518D01*
X0169484Y0246457D01*
X0169447Y0246398D01*
X0169406Y0246342D01*
X0169363Y0246288D01*
X0169316Y0246236D01*
X0169266Y0246187D01*
X0169214Y0246141D01*
X0169159Y0246098D01*
X0169102Y0246058D01*
X0169043Y0246022D01*
X0168982Y0245989D01*
X0168919Y0245959D01*
X0168854Y0245933D01*
X0168788Y0245911D01*
X0168721Y0245892D01*
X0168653Y0245878D01*
X0168584Y0245867D01*
X0168515Y0245860D01*
X0168445Y0245857D01*
X0168376Y0245858D01*
X0168306Y0245863D01*
X0168237Y0245872D01*
X0168169Y0245885D01*
X0168101Y0245901D01*
X0168035Y0245922D01*
X0167969Y0245946D01*
X0167906Y0245973D01*
X0167843Y0246005D01*
X0167783Y0246040D01*
X0167725Y0246078D01*
X0167669Y0246119D01*
X0167615Y0246164D01*
X0167564Y0246211D01*
X0167516Y0246261D01*
X0167471Y0246314D01*
X0167429Y0246370D01*
X0167390Y0246427D01*
X0167354Y0246487D01*
X0167322Y0246549D01*
X0167293Y0246612D01*
X0167268Y0246677D01*
X0167247Y0246744D01*
X0167229Y0246811D01*
X0167216Y0246879D01*
X0167206Y0246948D01*
X0167200Y0247017D01*
X0167198Y0247087D01*
X0191971Y0268859D02*
X0191973Y0268956D01*
X0191979Y0269053D01*
X0191989Y0269149D01*
X0192003Y0269245D01*
X0192021Y0269341D01*
X0192042Y0269435D01*
X0192068Y0269529D01*
X0192097Y0269621D01*
X0192131Y0269712D01*
X0192167Y0269802D01*
X0192208Y0269890D01*
X0192252Y0269976D01*
X0192300Y0270061D01*
X0192351Y0270143D01*
X0192405Y0270224D01*
X0192463Y0270302D01*
X0192524Y0270377D01*
X0192587Y0270450D01*
X0192654Y0270521D01*
X0192724Y0270588D01*
X0192796Y0270653D01*
X0192871Y0270714D01*
X0192949Y0270773D01*
X0193028Y0270828D01*
X0193110Y0270880D01*
X0193194Y0270928D01*
X0193280Y0270973D01*
X0193368Y0271015D01*
X0193457Y0271053D01*
X0193548Y0271087D01*
X0193640Y0271117D01*
X0193733Y0271144D01*
X0193828Y0271166D01*
X0193923Y0271185D01*
X0194019Y0271200D01*
X0194115Y0271211D01*
X0194212Y0271218D01*
X0194309Y0271221D01*
X0194406Y0271220D01*
X0194503Y0271215D01*
X0194599Y0271206D01*
X0194695Y0271193D01*
X0194791Y0271176D01*
X0194886Y0271155D01*
X0194979Y0271131D01*
X0195072Y0271102D01*
X0195164Y0271070D01*
X0195254Y0271034D01*
X0195342Y0270995D01*
X0195429Y0270951D01*
X0195514Y0270905D01*
X0195597Y0270854D01*
X0195678Y0270801D01*
X0195756Y0270744D01*
X0195833Y0270684D01*
X0195906Y0270621D01*
X0195977Y0270555D01*
X0196045Y0270486D01*
X0196111Y0270414D01*
X0196173Y0270340D01*
X0196232Y0270263D01*
X0196288Y0270184D01*
X0196341Y0270102D01*
X0196391Y0270019D01*
X0196436Y0269933D01*
X0196479Y0269846D01*
X0196518Y0269757D01*
X0196553Y0269667D01*
X0196584Y0269575D01*
X0196611Y0269482D01*
X0196635Y0269388D01*
X0196655Y0269293D01*
X0196671Y0269197D01*
X0196683Y0269101D01*
X0196691Y0269004D01*
X0196695Y0268907D01*
X0196695Y0268811D01*
X0196691Y0268714D01*
X0196683Y0268617D01*
X0196671Y0268521D01*
X0196655Y0268425D01*
X0196635Y0268330D01*
X0196611Y0268236D01*
X0196584Y0268143D01*
X0196553Y0268051D01*
X0196518Y0267961D01*
X0196479Y0267872D01*
X0196436Y0267785D01*
X0196391Y0267699D01*
X0196341Y0267616D01*
X0196288Y0267534D01*
X0196232Y0267455D01*
X0196173Y0267378D01*
X0196111Y0267304D01*
X0196045Y0267232D01*
X0195977Y0267163D01*
X0195906Y0267097D01*
X0195833Y0267034D01*
X0195756Y0266974D01*
X0195678Y0266917D01*
X0195597Y0266864D01*
X0195514Y0266813D01*
X0195429Y0266767D01*
X0195342Y0266723D01*
X0195254Y0266684D01*
X0195164Y0266648D01*
X0195072Y0266616D01*
X0194979Y0266587D01*
X0194886Y0266563D01*
X0194791Y0266542D01*
X0194695Y0266525D01*
X0194599Y0266512D01*
X0194503Y0266503D01*
X0194406Y0266498D01*
X0194309Y0266497D01*
X0194212Y0266500D01*
X0194115Y0266507D01*
X0194019Y0266518D01*
X0193923Y0266533D01*
X0193828Y0266552D01*
X0193733Y0266574D01*
X0193640Y0266601D01*
X0193548Y0266631D01*
X0193457Y0266665D01*
X0193368Y0266703D01*
X0193280Y0266745D01*
X0193194Y0266790D01*
X0193110Y0266838D01*
X0193028Y0266890D01*
X0192949Y0266945D01*
X0192871Y0267004D01*
X0192796Y0267065D01*
X0192724Y0267130D01*
X0192654Y0267197D01*
X0192587Y0267268D01*
X0192524Y0267341D01*
X0192463Y0267416D01*
X0192405Y0267494D01*
X0192351Y0267575D01*
X0192300Y0267657D01*
X0192252Y0267742D01*
X0192208Y0267828D01*
X0192167Y0267916D01*
X0192131Y0268006D01*
X0192097Y0268097D01*
X0192068Y0268189D01*
X0192042Y0268283D01*
X0192021Y0268377D01*
X0192003Y0268473D01*
X0191989Y0268569D01*
X0191979Y0268665D01*
X0191973Y0268762D01*
X0191971Y0268859D01*
X0167198Y0273072D02*
X0167200Y0273142D01*
X0167206Y0273211D01*
X0167216Y0273280D01*
X0167229Y0273348D01*
X0167247Y0273415D01*
X0167268Y0273482D01*
X0167293Y0273547D01*
X0167322Y0273610D01*
X0167354Y0273672D01*
X0167390Y0273732D01*
X0167429Y0273789D01*
X0167471Y0273845D01*
X0167516Y0273898D01*
X0167564Y0273948D01*
X0167615Y0273995D01*
X0167669Y0274040D01*
X0167725Y0274081D01*
X0167783Y0274119D01*
X0167843Y0274154D01*
X0167906Y0274186D01*
X0167969Y0274213D01*
X0168035Y0274237D01*
X0168101Y0274258D01*
X0168169Y0274274D01*
X0168237Y0274287D01*
X0168306Y0274296D01*
X0168376Y0274301D01*
X0168445Y0274302D01*
X0168515Y0274299D01*
X0168584Y0274292D01*
X0168653Y0274281D01*
X0168721Y0274267D01*
X0168788Y0274248D01*
X0168854Y0274226D01*
X0168919Y0274200D01*
X0168982Y0274170D01*
X0169043Y0274137D01*
X0169102Y0274101D01*
X0169159Y0274061D01*
X0169214Y0274018D01*
X0169266Y0273972D01*
X0169316Y0273923D01*
X0169363Y0273871D01*
X0169406Y0273817D01*
X0169447Y0273761D01*
X0169484Y0273702D01*
X0169518Y0273641D01*
X0169549Y0273579D01*
X0169576Y0273514D01*
X0169599Y0273449D01*
X0169618Y0273382D01*
X0169634Y0273314D01*
X0169646Y0273245D01*
X0169654Y0273176D01*
X0169658Y0273107D01*
X0169658Y0273037D01*
X0169654Y0272968D01*
X0169646Y0272899D01*
X0169634Y0272830D01*
X0169618Y0272762D01*
X0169599Y0272695D01*
X0169576Y0272630D01*
X0169549Y0272565D01*
X0169518Y0272503D01*
X0169484Y0272442D01*
X0169447Y0272383D01*
X0169406Y0272327D01*
X0169363Y0272273D01*
X0169316Y0272221D01*
X0169266Y0272172D01*
X0169214Y0272126D01*
X0169159Y0272083D01*
X0169102Y0272043D01*
X0169043Y0272007D01*
X0168982Y0271974D01*
X0168919Y0271944D01*
X0168854Y0271918D01*
X0168788Y0271896D01*
X0168721Y0271877D01*
X0168653Y0271863D01*
X0168584Y0271852D01*
X0168515Y0271845D01*
X0168445Y0271842D01*
X0168376Y0271843D01*
X0168306Y0271848D01*
X0168237Y0271857D01*
X0168169Y0271870D01*
X0168101Y0271886D01*
X0168035Y0271907D01*
X0167969Y0271931D01*
X0167906Y0271958D01*
X0167843Y0271990D01*
X0167783Y0272025D01*
X0167725Y0272063D01*
X0167669Y0272104D01*
X0167615Y0272149D01*
X0167564Y0272196D01*
X0167516Y0272246D01*
X0167471Y0272299D01*
X0167429Y0272355D01*
X0167390Y0272412D01*
X0167354Y0272472D01*
X0167322Y0272534D01*
X0167293Y0272597D01*
X0167268Y0272662D01*
X0167247Y0272729D01*
X0167229Y0272796D01*
X0167216Y0272864D01*
X0167206Y0272933D01*
X0167200Y0273002D01*
X0167198Y0273072D01*
X0171971Y0287579D02*
X0171973Y0287676D01*
X0171979Y0287773D01*
X0171989Y0287869D01*
X0172003Y0287965D01*
X0172021Y0288061D01*
X0172042Y0288155D01*
X0172068Y0288249D01*
X0172097Y0288341D01*
X0172131Y0288432D01*
X0172167Y0288522D01*
X0172208Y0288610D01*
X0172252Y0288696D01*
X0172300Y0288781D01*
X0172351Y0288863D01*
X0172405Y0288944D01*
X0172463Y0289022D01*
X0172524Y0289097D01*
X0172587Y0289170D01*
X0172654Y0289241D01*
X0172724Y0289308D01*
X0172796Y0289373D01*
X0172871Y0289434D01*
X0172949Y0289493D01*
X0173028Y0289548D01*
X0173110Y0289600D01*
X0173194Y0289648D01*
X0173280Y0289693D01*
X0173368Y0289735D01*
X0173457Y0289773D01*
X0173548Y0289807D01*
X0173640Y0289837D01*
X0173733Y0289864D01*
X0173828Y0289886D01*
X0173923Y0289905D01*
X0174019Y0289920D01*
X0174115Y0289931D01*
X0174212Y0289938D01*
X0174309Y0289941D01*
X0174406Y0289940D01*
X0174503Y0289935D01*
X0174599Y0289926D01*
X0174695Y0289913D01*
X0174791Y0289896D01*
X0174886Y0289875D01*
X0174979Y0289851D01*
X0175072Y0289822D01*
X0175164Y0289790D01*
X0175254Y0289754D01*
X0175342Y0289715D01*
X0175429Y0289671D01*
X0175514Y0289625D01*
X0175597Y0289574D01*
X0175678Y0289521D01*
X0175756Y0289464D01*
X0175833Y0289404D01*
X0175906Y0289341D01*
X0175977Y0289275D01*
X0176045Y0289206D01*
X0176111Y0289134D01*
X0176173Y0289060D01*
X0176232Y0288983D01*
X0176288Y0288904D01*
X0176341Y0288822D01*
X0176391Y0288739D01*
X0176436Y0288653D01*
X0176479Y0288566D01*
X0176518Y0288477D01*
X0176553Y0288387D01*
X0176584Y0288295D01*
X0176611Y0288202D01*
X0176635Y0288108D01*
X0176655Y0288013D01*
X0176671Y0287917D01*
X0176683Y0287821D01*
X0176691Y0287724D01*
X0176695Y0287627D01*
X0176695Y0287531D01*
X0176691Y0287434D01*
X0176683Y0287337D01*
X0176671Y0287241D01*
X0176655Y0287145D01*
X0176635Y0287050D01*
X0176611Y0286956D01*
X0176584Y0286863D01*
X0176553Y0286771D01*
X0176518Y0286681D01*
X0176479Y0286592D01*
X0176436Y0286505D01*
X0176391Y0286419D01*
X0176341Y0286336D01*
X0176288Y0286254D01*
X0176232Y0286175D01*
X0176173Y0286098D01*
X0176111Y0286024D01*
X0176045Y0285952D01*
X0175977Y0285883D01*
X0175906Y0285817D01*
X0175833Y0285754D01*
X0175756Y0285694D01*
X0175678Y0285637D01*
X0175597Y0285584D01*
X0175514Y0285533D01*
X0175429Y0285487D01*
X0175342Y0285443D01*
X0175254Y0285404D01*
X0175164Y0285368D01*
X0175072Y0285336D01*
X0174979Y0285307D01*
X0174886Y0285283D01*
X0174791Y0285262D01*
X0174695Y0285245D01*
X0174599Y0285232D01*
X0174503Y0285223D01*
X0174406Y0285218D01*
X0174309Y0285217D01*
X0174212Y0285220D01*
X0174115Y0285227D01*
X0174019Y0285238D01*
X0173923Y0285253D01*
X0173828Y0285272D01*
X0173733Y0285294D01*
X0173640Y0285321D01*
X0173548Y0285351D01*
X0173457Y0285385D01*
X0173368Y0285423D01*
X0173280Y0285465D01*
X0173194Y0285510D01*
X0173110Y0285558D01*
X0173028Y0285610D01*
X0172949Y0285665D01*
X0172871Y0285724D01*
X0172796Y0285785D01*
X0172724Y0285850D01*
X0172654Y0285917D01*
X0172587Y0285988D01*
X0172524Y0286061D01*
X0172463Y0286136D01*
X0172405Y0286214D01*
X0172351Y0286295D01*
X0172300Y0286377D01*
X0172252Y0286462D01*
X0172208Y0286548D01*
X0172167Y0286636D01*
X0172131Y0286726D01*
X0172097Y0286817D01*
X0172068Y0286909D01*
X0172042Y0287003D01*
X0172021Y0287097D01*
X0172003Y0287193D01*
X0171989Y0287289D01*
X0171979Y0287385D01*
X0171973Y0287482D01*
X0171971Y0287579D01*
X0181971Y0287579D02*
X0181973Y0287676D01*
X0181979Y0287773D01*
X0181989Y0287869D01*
X0182003Y0287965D01*
X0182021Y0288061D01*
X0182042Y0288155D01*
X0182068Y0288249D01*
X0182097Y0288341D01*
X0182131Y0288432D01*
X0182167Y0288522D01*
X0182208Y0288610D01*
X0182252Y0288696D01*
X0182300Y0288781D01*
X0182351Y0288863D01*
X0182405Y0288944D01*
X0182463Y0289022D01*
X0182524Y0289097D01*
X0182587Y0289170D01*
X0182654Y0289241D01*
X0182724Y0289308D01*
X0182796Y0289373D01*
X0182871Y0289434D01*
X0182949Y0289493D01*
X0183028Y0289548D01*
X0183110Y0289600D01*
X0183194Y0289648D01*
X0183280Y0289693D01*
X0183368Y0289735D01*
X0183457Y0289773D01*
X0183548Y0289807D01*
X0183640Y0289837D01*
X0183733Y0289864D01*
X0183828Y0289886D01*
X0183923Y0289905D01*
X0184019Y0289920D01*
X0184115Y0289931D01*
X0184212Y0289938D01*
X0184309Y0289941D01*
X0184406Y0289940D01*
X0184503Y0289935D01*
X0184599Y0289926D01*
X0184695Y0289913D01*
X0184791Y0289896D01*
X0184886Y0289875D01*
X0184979Y0289851D01*
X0185072Y0289822D01*
X0185164Y0289790D01*
X0185254Y0289754D01*
X0185342Y0289715D01*
X0185429Y0289671D01*
X0185514Y0289625D01*
X0185597Y0289574D01*
X0185678Y0289521D01*
X0185756Y0289464D01*
X0185833Y0289404D01*
X0185906Y0289341D01*
X0185977Y0289275D01*
X0186045Y0289206D01*
X0186111Y0289134D01*
X0186173Y0289060D01*
X0186232Y0288983D01*
X0186288Y0288904D01*
X0186341Y0288822D01*
X0186391Y0288739D01*
X0186436Y0288653D01*
X0186479Y0288566D01*
X0186518Y0288477D01*
X0186553Y0288387D01*
X0186584Y0288295D01*
X0186611Y0288202D01*
X0186635Y0288108D01*
X0186655Y0288013D01*
X0186671Y0287917D01*
X0186683Y0287821D01*
X0186691Y0287724D01*
X0186695Y0287627D01*
X0186695Y0287531D01*
X0186691Y0287434D01*
X0186683Y0287337D01*
X0186671Y0287241D01*
X0186655Y0287145D01*
X0186635Y0287050D01*
X0186611Y0286956D01*
X0186584Y0286863D01*
X0186553Y0286771D01*
X0186518Y0286681D01*
X0186479Y0286592D01*
X0186436Y0286505D01*
X0186391Y0286419D01*
X0186341Y0286336D01*
X0186288Y0286254D01*
X0186232Y0286175D01*
X0186173Y0286098D01*
X0186111Y0286024D01*
X0186045Y0285952D01*
X0185977Y0285883D01*
X0185906Y0285817D01*
X0185833Y0285754D01*
X0185756Y0285694D01*
X0185678Y0285637D01*
X0185597Y0285584D01*
X0185514Y0285533D01*
X0185429Y0285487D01*
X0185342Y0285443D01*
X0185254Y0285404D01*
X0185164Y0285368D01*
X0185072Y0285336D01*
X0184979Y0285307D01*
X0184886Y0285283D01*
X0184791Y0285262D01*
X0184695Y0285245D01*
X0184599Y0285232D01*
X0184503Y0285223D01*
X0184406Y0285218D01*
X0184309Y0285217D01*
X0184212Y0285220D01*
X0184115Y0285227D01*
X0184019Y0285238D01*
X0183923Y0285253D01*
X0183828Y0285272D01*
X0183733Y0285294D01*
X0183640Y0285321D01*
X0183548Y0285351D01*
X0183457Y0285385D01*
X0183368Y0285423D01*
X0183280Y0285465D01*
X0183194Y0285510D01*
X0183110Y0285558D01*
X0183028Y0285610D01*
X0182949Y0285665D01*
X0182871Y0285724D01*
X0182796Y0285785D01*
X0182724Y0285850D01*
X0182654Y0285917D01*
X0182587Y0285988D01*
X0182524Y0286061D01*
X0182463Y0286136D01*
X0182405Y0286214D01*
X0182351Y0286295D01*
X0182300Y0286377D01*
X0182252Y0286462D01*
X0182208Y0286548D01*
X0182167Y0286636D01*
X0182131Y0286726D01*
X0182097Y0286817D01*
X0182068Y0286909D01*
X0182042Y0287003D01*
X0182021Y0287097D01*
X0182003Y0287193D01*
X0181989Y0287289D01*
X0181979Y0287385D01*
X0181973Y0287482D01*
X0181971Y0287579D01*
X0193398Y0292579D02*
X0193400Y0292654D01*
X0193406Y0292729D01*
X0193416Y0292804D01*
X0193430Y0292878D01*
X0193447Y0292951D01*
X0193469Y0293024D01*
X0193494Y0293094D01*
X0193523Y0293164D01*
X0193556Y0293232D01*
X0193592Y0293298D01*
X0193632Y0293362D01*
X0193675Y0293424D01*
X0193721Y0293483D01*
X0193770Y0293540D01*
X0193823Y0293595D01*
X0193878Y0293646D01*
X0193935Y0293695D01*
X0193995Y0293740D01*
X0194058Y0293782D01*
X0194122Y0293821D01*
X0194189Y0293856D01*
X0194257Y0293888D01*
X0194327Y0293916D01*
X0194398Y0293941D01*
X0194471Y0293961D01*
X0194544Y0293978D01*
X0194619Y0293991D01*
X0194693Y0294000D01*
X0194769Y0294005D01*
X0194844Y0294006D01*
X0194919Y0294003D01*
X0194994Y0293996D01*
X0195069Y0293985D01*
X0195143Y0293970D01*
X0195216Y0293952D01*
X0195287Y0293929D01*
X0195358Y0293903D01*
X0195427Y0293873D01*
X0195495Y0293839D01*
X0195560Y0293802D01*
X0195624Y0293762D01*
X0195685Y0293718D01*
X0195744Y0293671D01*
X0195800Y0293621D01*
X0195854Y0293568D01*
X0195905Y0293512D01*
X0195952Y0293454D01*
X0195997Y0293393D01*
X0196038Y0293330D01*
X0196076Y0293265D01*
X0196111Y0293198D01*
X0196142Y0293129D01*
X0196169Y0293059D01*
X0196192Y0292988D01*
X0196212Y0292915D01*
X0196228Y0292841D01*
X0196240Y0292767D01*
X0196248Y0292692D01*
X0196252Y0292617D01*
X0196252Y0292541D01*
X0196248Y0292466D01*
X0196240Y0292391D01*
X0196228Y0292317D01*
X0196212Y0292243D01*
X0196192Y0292170D01*
X0196169Y0292099D01*
X0196142Y0292029D01*
X0196111Y0291960D01*
X0196076Y0291893D01*
X0196038Y0291828D01*
X0195997Y0291765D01*
X0195952Y0291704D01*
X0195905Y0291646D01*
X0195854Y0291590D01*
X0195800Y0291537D01*
X0195744Y0291487D01*
X0195685Y0291440D01*
X0195624Y0291396D01*
X0195560Y0291356D01*
X0195495Y0291319D01*
X0195427Y0291285D01*
X0195358Y0291255D01*
X0195287Y0291229D01*
X0195216Y0291206D01*
X0195143Y0291188D01*
X0195069Y0291173D01*
X0194994Y0291162D01*
X0194919Y0291155D01*
X0194844Y0291152D01*
X0194769Y0291153D01*
X0194693Y0291158D01*
X0194619Y0291167D01*
X0194544Y0291180D01*
X0194471Y0291197D01*
X0194398Y0291217D01*
X0194327Y0291242D01*
X0194257Y0291270D01*
X0194189Y0291302D01*
X0194122Y0291337D01*
X0194058Y0291376D01*
X0193995Y0291418D01*
X0193935Y0291463D01*
X0193878Y0291512D01*
X0193823Y0291563D01*
X0193770Y0291618D01*
X0193721Y0291675D01*
X0193675Y0291734D01*
X0193632Y0291796D01*
X0193592Y0291860D01*
X0193556Y0291926D01*
X0193523Y0291994D01*
X0193494Y0292064D01*
X0193469Y0292134D01*
X0193447Y0292207D01*
X0193430Y0292280D01*
X0193416Y0292354D01*
X0193406Y0292429D01*
X0193400Y0292504D01*
X0193398Y0292579D01*
X0366626Y0292579D02*
X0366628Y0292673D01*
X0366634Y0292767D01*
X0366644Y0292860D01*
X0366658Y0292953D01*
X0366676Y0293046D01*
X0366697Y0293137D01*
X0366723Y0293228D01*
X0366753Y0293317D01*
X0366786Y0293405D01*
X0366823Y0293491D01*
X0366863Y0293576D01*
X0366907Y0293659D01*
X0366955Y0293740D01*
X0367006Y0293819D01*
X0367060Y0293896D01*
X0367118Y0293971D01*
X0367178Y0294042D01*
X0367242Y0294112D01*
X0367308Y0294178D01*
X0367378Y0294242D01*
X0367449Y0294302D01*
X0367524Y0294360D01*
X0367601Y0294414D01*
X0367680Y0294465D01*
X0367761Y0294513D01*
X0367844Y0294557D01*
X0367929Y0294597D01*
X0368015Y0294634D01*
X0368103Y0294667D01*
X0368192Y0294697D01*
X0368283Y0294723D01*
X0368374Y0294744D01*
X0368467Y0294762D01*
X0368560Y0294776D01*
X0368653Y0294786D01*
X0368747Y0294792D01*
X0368841Y0294794D01*
X0368935Y0294792D01*
X0369029Y0294786D01*
X0369122Y0294776D01*
X0369215Y0294762D01*
X0369308Y0294744D01*
X0369399Y0294723D01*
X0369490Y0294697D01*
X0369579Y0294667D01*
X0369667Y0294634D01*
X0369753Y0294597D01*
X0369838Y0294557D01*
X0369921Y0294513D01*
X0370002Y0294465D01*
X0370081Y0294414D01*
X0370158Y0294360D01*
X0370233Y0294302D01*
X0370304Y0294242D01*
X0370374Y0294178D01*
X0370440Y0294112D01*
X0370504Y0294042D01*
X0370564Y0293971D01*
X0370622Y0293896D01*
X0370676Y0293819D01*
X0370727Y0293740D01*
X0370775Y0293659D01*
X0370819Y0293576D01*
X0370859Y0293491D01*
X0370896Y0293405D01*
X0370929Y0293317D01*
X0370959Y0293228D01*
X0370985Y0293137D01*
X0371006Y0293046D01*
X0371024Y0292953D01*
X0371038Y0292860D01*
X0371048Y0292767D01*
X0371054Y0292673D01*
X0371056Y0292579D01*
X0371054Y0292485D01*
X0371048Y0292391D01*
X0371038Y0292298D01*
X0371024Y0292205D01*
X0371006Y0292112D01*
X0370985Y0292021D01*
X0370959Y0291930D01*
X0370929Y0291841D01*
X0370896Y0291753D01*
X0370859Y0291667D01*
X0370819Y0291582D01*
X0370775Y0291499D01*
X0370727Y0291418D01*
X0370676Y0291339D01*
X0370622Y0291262D01*
X0370564Y0291187D01*
X0370504Y0291116D01*
X0370440Y0291046D01*
X0370374Y0290980D01*
X0370304Y0290916D01*
X0370233Y0290856D01*
X0370158Y0290798D01*
X0370081Y0290744D01*
X0370002Y0290693D01*
X0369921Y0290645D01*
X0369838Y0290601D01*
X0369753Y0290561D01*
X0369667Y0290524D01*
X0369579Y0290491D01*
X0369490Y0290461D01*
X0369399Y0290435D01*
X0369308Y0290414D01*
X0369215Y0290396D01*
X0369122Y0290382D01*
X0369029Y0290372D01*
X0368935Y0290366D01*
X0368841Y0290364D01*
X0368747Y0290366D01*
X0368653Y0290372D01*
X0368560Y0290382D01*
X0368467Y0290396D01*
X0368374Y0290414D01*
X0368283Y0290435D01*
X0368192Y0290461D01*
X0368103Y0290491D01*
X0368015Y0290524D01*
X0367929Y0290561D01*
X0367844Y0290601D01*
X0367761Y0290645D01*
X0367680Y0290693D01*
X0367601Y0290744D01*
X0367524Y0290798D01*
X0367449Y0290856D01*
X0367378Y0290916D01*
X0367308Y0290980D01*
X0367242Y0291046D01*
X0367178Y0291116D01*
X0367118Y0291187D01*
X0367060Y0291262D01*
X0367006Y0291339D01*
X0366955Y0291418D01*
X0366907Y0291499D01*
X0366863Y0291582D01*
X0366823Y0291667D01*
X0366786Y0291753D01*
X0366753Y0291841D01*
X0366723Y0291930D01*
X0366697Y0292021D01*
X0366676Y0292112D01*
X0366658Y0292205D01*
X0366644Y0292298D01*
X0366634Y0292391D01*
X0366628Y0292485D01*
X0366626Y0292579D01*
X0376971Y0287579D02*
X0376973Y0287676D01*
X0376979Y0287773D01*
X0376989Y0287869D01*
X0377003Y0287965D01*
X0377021Y0288061D01*
X0377042Y0288155D01*
X0377068Y0288249D01*
X0377097Y0288341D01*
X0377131Y0288432D01*
X0377167Y0288522D01*
X0377208Y0288610D01*
X0377252Y0288696D01*
X0377300Y0288781D01*
X0377351Y0288863D01*
X0377405Y0288944D01*
X0377463Y0289022D01*
X0377524Y0289097D01*
X0377587Y0289170D01*
X0377654Y0289241D01*
X0377724Y0289308D01*
X0377796Y0289373D01*
X0377871Y0289434D01*
X0377949Y0289493D01*
X0378028Y0289548D01*
X0378110Y0289600D01*
X0378194Y0289648D01*
X0378280Y0289693D01*
X0378368Y0289735D01*
X0378457Y0289773D01*
X0378548Y0289807D01*
X0378640Y0289837D01*
X0378733Y0289864D01*
X0378828Y0289886D01*
X0378923Y0289905D01*
X0379019Y0289920D01*
X0379115Y0289931D01*
X0379212Y0289938D01*
X0379309Y0289941D01*
X0379406Y0289940D01*
X0379503Y0289935D01*
X0379599Y0289926D01*
X0379695Y0289913D01*
X0379791Y0289896D01*
X0379886Y0289875D01*
X0379979Y0289851D01*
X0380072Y0289822D01*
X0380164Y0289790D01*
X0380254Y0289754D01*
X0380342Y0289715D01*
X0380429Y0289671D01*
X0380514Y0289625D01*
X0380597Y0289574D01*
X0380678Y0289521D01*
X0380756Y0289464D01*
X0380833Y0289404D01*
X0380906Y0289341D01*
X0380977Y0289275D01*
X0381045Y0289206D01*
X0381111Y0289134D01*
X0381173Y0289060D01*
X0381232Y0288983D01*
X0381288Y0288904D01*
X0381341Y0288822D01*
X0381391Y0288739D01*
X0381436Y0288653D01*
X0381479Y0288566D01*
X0381518Y0288477D01*
X0381553Y0288387D01*
X0381584Y0288295D01*
X0381611Y0288202D01*
X0381635Y0288108D01*
X0381655Y0288013D01*
X0381671Y0287917D01*
X0381683Y0287821D01*
X0381691Y0287724D01*
X0381695Y0287627D01*
X0381695Y0287531D01*
X0381691Y0287434D01*
X0381683Y0287337D01*
X0381671Y0287241D01*
X0381655Y0287145D01*
X0381635Y0287050D01*
X0381611Y0286956D01*
X0381584Y0286863D01*
X0381553Y0286771D01*
X0381518Y0286681D01*
X0381479Y0286592D01*
X0381436Y0286505D01*
X0381391Y0286419D01*
X0381341Y0286336D01*
X0381288Y0286254D01*
X0381232Y0286175D01*
X0381173Y0286098D01*
X0381111Y0286024D01*
X0381045Y0285952D01*
X0380977Y0285883D01*
X0380906Y0285817D01*
X0380833Y0285754D01*
X0380756Y0285694D01*
X0380678Y0285637D01*
X0380597Y0285584D01*
X0380514Y0285533D01*
X0380429Y0285487D01*
X0380342Y0285443D01*
X0380254Y0285404D01*
X0380164Y0285368D01*
X0380072Y0285336D01*
X0379979Y0285307D01*
X0379886Y0285283D01*
X0379791Y0285262D01*
X0379695Y0285245D01*
X0379599Y0285232D01*
X0379503Y0285223D01*
X0379406Y0285218D01*
X0379309Y0285217D01*
X0379212Y0285220D01*
X0379115Y0285227D01*
X0379019Y0285238D01*
X0378923Y0285253D01*
X0378828Y0285272D01*
X0378733Y0285294D01*
X0378640Y0285321D01*
X0378548Y0285351D01*
X0378457Y0285385D01*
X0378368Y0285423D01*
X0378280Y0285465D01*
X0378194Y0285510D01*
X0378110Y0285558D01*
X0378028Y0285610D01*
X0377949Y0285665D01*
X0377871Y0285724D01*
X0377796Y0285785D01*
X0377724Y0285850D01*
X0377654Y0285917D01*
X0377587Y0285988D01*
X0377524Y0286061D01*
X0377463Y0286136D01*
X0377405Y0286214D01*
X0377351Y0286295D01*
X0377300Y0286377D01*
X0377252Y0286462D01*
X0377208Y0286548D01*
X0377167Y0286636D01*
X0377131Y0286726D01*
X0377097Y0286817D01*
X0377068Y0286909D01*
X0377042Y0287003D01*
X0377021Y0287097D01*
X0377003Y0287193D01*
X0376989Y0287289D01*
X0376979Y0287385D01*
X0376973Y0287482D01*
X0376971Y0287579D01*
X0386971Y0287579D02*
X0386973Y0287676D01*
X0386979Y0287773D01*
X0386989Y0287869D01*
X0387003Y0287965D01*
X0387021Y0288061D01*
X0387042Y0288155D01*
X0387068Y0288249D01*
X0387097Y0288341D01*
X0387131Y0288432D01*
X0387167Y0288522D01*
X0387208Y0288610D01*
X0387252Y0288696D01*
X0387300Y0288781D01*
X0387351Y0288863D01*
X0387405Y0288944D01*
X0387463Y0289022D01*
X0387524Y0289097D01*
X0387587Y0289170D01*
X0387654Y0289241D01*
X0387724Y0289308D01*
X0387796Y0289373D01*
X0387871Y0289434D01*
X0387949Y0289493D01*
X0388028Y0289548D01*
X0388110Y0289600D01*
X0388194Y0289648D01*
X0388280Y0289693D01*
X0388368Y0289735D01*
X0388457Y0289773D01*
X0388548Y0289807D01*
X0388640Y0289837D01*
X0388733Y0289864D01*
X0388828Y0289886D01*
X0388923Y0289905D01*
X0389019Y0289920D01*
X0389115Y0289931D01*
X0389212Y0289938D01*
X0389309Y0289941D01*
X0389406Y0289940D01*
X0389503Y0289935D01*
X0389599Y0289926D01*
X0389695Y0289913D01*
X0389791Y0289896D01*
X0389886Y0289875D01*
X0389979Y0289851D01*
X0390072Y0289822D01*
X0390164Y0289790D01*
X0390254Y0289754D01*
X0390342Y0289715D01*
X0390429Y0289671D01*
X0390514Y0289625D01*
X0390597Y0289574D01*
X0390678Y0289521D01*
X0390756Y0289464D01*
X0390833Y0289404D01*
X0390906Y0289341D01*
X0390977Y0289275D01*
X0391045Y0289206D01*
X0391111Y0289134D01*
X0391173Y0289060D01*
X0391232Y0288983D01*
X0391288Y0288904D01*
X0391341Y0288822D01*
X0391391Y0288739D01*
X0391436Y0288653D01*
X0391479Y0288566D01*
X0391518Y0288477D01*
X0391553Y0288387D01*
X0391584Y0288295D01*
X0391611Y0288202D01*
X0391635Y0288108D01*
X0391655Y0288013D01*
X0391671Y0287917D01*
X0391683Y0287821D01*
X0391691Y0287724D01*
X0391695Y0287627D01*
X0391695Y0287531D01*
X0391691Y0287434D01*
X0391683Y0287337D01*
X0391671Y0287241D01*
X0391655Y0287145D01*
X0391635Y0287050D01*
X0391611Y0286956D01*
X0391584Y0286863D01*
X0391553Y0286771D01*
X0391518Y0286681D01*
X0391479Y0286592D01*
X0391436Y0286505D01*
X0391391Y0286419D01*
X0391341Y0286336D01*
X0391288Y0286254D01*
X0391232Y0286175D01*
X0391173Y0286098D01*
X0391111Y0286024D01*
X0391045Y0285952D01*
X0390977Y0285883D01*
X0390906Y0285817D01*
X0390833Y0285754D01*
X0390756Y0285694D01*
X0390678Y0285637D01*
X0390597Y0285584D01*
X0390514Y0285533D01*
X0390429Y0285487D01*
X0390342Y0285443D01*
X0390254Y0285404D01*
X0390164Y0285368D01*
X0390072Y0285336D01*
X0389979Y0285307D01*
X0389886Y0285283D01*
X0389791Y0285262D01*
X0389695Y0285245D01*
X0389599Y0285232D01*
X0389503Y0285223D01*
X0389406Y0285218D01*
X0389309Y0285217D01*
X0389212Y0285220D01*
X0389115Y0285227D01*
X0389019Y0285238D01*
X0388923Y0285253D01*
X0388828Y0285272D01*
X0388733Y0285294D01*
X0388640Y0285321D01*
X0388548Y0285351D01*
X0388457Y0285385D01*
X0388368Y0285423D01*
X0388280Y0285465D01*
X0388194Y0285510D01*
X0388110Y0285558D01*
X0388028Y0285610D01*
X0387949Y0285665D01*
X0387871Y0285724D01*
X0387796Y0285785D01*
X0387724Y0285850D01*
X0387654Y0285917D01*
X0387587Y0285988D01*
X0387524Y0286061D01*
X0387463Y0286136D01*
X0387405Y0286214D01*
X0387351Y0286295D01*
X0387300Y0286377D01*
X0387252Y0286462D01*
X0387208Y0286548D01*
X0387167Y0286636D01*
X0387131Y0286726D01*
X0387097Y0286817D01*
X0387068Y0286909D01*
X0387042Y0287003D01*
X0387021Y0287097D01*
X0387003Y0287193D01*
X0386989Y0287289D01*
X0386979Y0287385D01*
X0386973Y0287482D01*
X0386971Y0287579D01*
X0367168Y0268859D02*
X0367170Y0268952D01*
X0367176Y0269044D01*
X0367186Y0269136D01*
X0367200Y0269227D01*
X0367217Y0269318D01*
X0367239Y0269408D01*
X0367264Y0269497D01*
X0367293Y0269585D01*
X0367326Y0269671D01*
X0367363Y0269756D01*
X0367403Y0269840D01*
X0367447Y0269921D01*
X0367494Y0270001D01*
X0367544Y0270079D01*
X0367598Y0270154D01*
X0367655Y0270227D01*
X0367715Y0270297D01*
X0367778Y0270365D01*
X0367844Y0270430D01*
X0367912Y0270492D01*
X0367983Y0270552D01*
X0368057Y0270608D01*
X0368133Y0270661D01*
X0368211Y0270710D01*
X0368291Y0270757D01*
X0368373Y0270799D01*
X0368457Y0270839D01*
X0368542Y0270874D01*
X0368629Y0270906D01*
X0368717Y0270935D01*
X0368806Y0270959D01*
X0368896Y0270980D01*
X0368987Y0270996D01*
X0369079Y0271009D01*
X0369171Y0271018D01*
X0369264Y0271023D01*
X0369356Y0271024D01*
X0369449Y0271021D01*
X0369541Y0271014D01*
X0369633Y0271003D01*
X0369724Y0270988D01*
X0369815Y0270970D01*
X0369905Y0270947D01*
X0369993Y0270921D01*
X0370081Y0270891D01*
X0370167Y0270857D01*
X0370251Y0270820D01*
X0370334Y0270778D01*
X0370415Y0270734D01*
X0370495Y0270686D01*
X0370572Y0270635D01*
X0370646Y0270580D01*
X0370719Y0270522D01*
X0370789Y0270462D01*
X0370856Y0270398D01*
X0370920Y0270332D01*
X0370982Y0270262D01*
X0371040Y0270191D01*
X0371095Y0270117D01*
X0371147Y0270040D01*
X0371196Y0269961D01*
X0371242Y0269881D01*
X0371284Y0269798D01*
X0371322Y0269714D01*
X0371357Y0269628D01*
X0371388Y0269541D01*
X0371415Y0269453D01*
X0371438Y0269363D01*
X0371458Y0269273D01*
X0371474Y0269182D01*
X0371486Y0269090D01*
X0371494Y0268998D01*
X0371498Y0268905D01*
X0371498Y0268813D01*
X0371494Y0268720D01*
X0371486Y0268628D01*
X0371474Y0268536D01*
X0371458Y0268445D01*
X0371438Y0268355D01*
X0371415Y0268265D01*
X0371388Y0268177D01*
X0371357Y0268090D01*
X0371322Y0268004D01*
X0371284Y0267920D01*
X0371242Y0267837D01*
X0371196Y0267757D01*
X0371147Y0267678D01*
X0371095Y0267601D01*
X0371040Y0267527D01*
X0370982Y0267456D01*
X0370920Y0267386D01*
X0370856Y0267320D01*
X0370789Y0267256D01*
X0370719Y0267196D01*
X0370646Y0267138D01*
X0370572Y0267083D01*
X0370495Y0267032D01*
X0370416Y0266984D01*
X0370334Y0266940D01*
X0370251Y0266898D01*
X0370167Y0266861D01*
X0370081Y0266827D01*
X0369993Y0266797D01*
X0369905Y0266771D01*
X0369815Y0266748D01*
X0369724Y0266730D01*
X0369633Y0266715D01*
X0369541Y0266704D01*
X0369449Y0266697D01*
X0369356Y0266694D01*
X0369264Y0266695D01*
X0369171Y0266700D01*
X0369079Y0266709D01*
X0368987Y0266722D01*
X0368896Y0266738D01*
X0368806Y0266759D01*
X0368717Y0266783D01*
X0368629Y0266812D01*
X0368542Y0266844D01*
X0368457Y0266879D01*
X0368373Y0266919D01*
X0368291Y0266961D01*
X0368211Y0267008D01*
X0368133Y0267057D01*
X0368057Y0267110D01*
X0367983Y0267166D01*
X0367912Y0267226D01*
X0367844Y0267288D01*
X0367778Y0267353D01*
X0367715Y0267421D01*
X0367655Y0267491D01*
X0367598Y0267564D01*
X0367544Y0267639D01*
X0367494Y0267717D01*
X0367447Y0267797D01*
X0367403Y0267878D01*
X0367363Y0267962D01*
X0367326Y0268047D01*
X0367293Y0268133D01*
X0367264Y0268221D01*
X0367239Y0268310D01*
X0367217Y0268400D01*
X0367200Y0268491D01*
X0367186Y0268582D01*
X0367176Y0268674D01*
X0367170Y0268766D01*
X0367168Y0268859D01*
X0394009Y0163072D02*
X0394011Y0163142D01*
X0394017Y0163211D01*
X0394027Y0163280D01*
X0394040Y0163348D01*
X0394058Y0163415D01*
X0394079Y0163482D01*
X0394104Y0163547D01*
X0394133Y0163610D01*
X0394165Y0163672D01*
X0394201Y0163732D01*
X0394240Y0163789D01*
X0394282Y0163845D01*
X0394327Y0163898D01*
X0394375Y0163948D01*
X0394426Y0163995D01*
X0394480Y0164040D01*
X0394536Y0164081D01*
X0394594Y0164119D01*
X0394654Y0164154D01*
X0394717Y0164186D01*
X0394780Y0164213D01*
X0394846Y0164237D01*
X0394912Y0164258D01*
X0394980Y0164274D01*
X0395048Y0164287D01*
X0395117Y0164296D01*
X0395187Y0164301D01*
X0395256Y0164302D01*
X0395326Y0164299D01*
X0395395Y0164292D01*
X0395464Y0164281D01*
X0395532Y0164267D01*
X0395599Y0164248D01*
X0395665Y0164226D01*
X0395730Y0164200D01*
X0395793Y0164170D01*
X0395854Y0164137D01*
X0395913Y0164101D01*
X0395970Y0164061D01*
X0396025Y0164018D01*
X0396077Y0163972D01*
X0396127Y0163923D01*
X0396174Y0163871D01*
X0396217Y0163817D01*
X0396258Y0163761D01*
X0396295Y0163702D01*
X0396329Y0163641D01*
X0396360Y0163579D01*
X0396387Y0163514D01*
X0396410Y0163449D01*
X0396429Y0163382D01*
X0396445Y0163314D01*
X0396457Y0163245D01*
X0396465Y0163176D01*
X0396469Y0163107D01*
X0396469Y0163037D01*
X0396465Y0162968D01*
X0396457Y0162899D01*
X0396445Y0162830D01*
X0396429Y0162762D01*
X0396410Y0162695D01*
X0396387Y0162630D01*
X0396360Y0162565D01*
X0396329Y0162503D01*
X0396295Y0162442D01*
X0396258Y0162383D01*
X0396217Y0162327D01*
X0396174Y0162273D01*
X0396127Y0162221D01*
X0396077Y0162172D01*
X0396025Y0162126D01*
X0395970Y0162083D01*
X0395913Y0162043D01*
X0395854Y0162007D01*
X0395793Y0161974D01*
X0395730Y0161944D01*
X0395665Y0161918D01*
X0395599Y0161896D01*
X0395532Y0161877D01*
X0395464Y0161863D01*
X0395395Y0161852D01*
X0395326Y0161845D01*
X0395256Y0161842D01*
X0395187Y0161843D01*
X0395117Y0161848D01*
X0395048Y0161857D01*
X0394980Y0161870D01*
X0394912Y0161886D01*
X0394846Y0161907D01*
X0394780Y0161931D01*
X0394717Y0161958D01*
X0394654Y0161990D01*
X0394594Y0162025D01*
X0394536Y0162063D01*
X0394480Y0162104D01*
X0394426Y0162149D01*
X0394375Y0162196D01*
X0394327Y0162246D01*
X0394282Y0162299D01*
X0394240Y0162355D01*
X0394201Y0162412D01*
X0394165Y0162472D01*
X0394133Y0162534D01*
X0394104Y0162597D01*
X0394079Y0162662D01*
X0394058Y0162729D01*
X0394040Y0162796D01*
X0394027Y0162864D01*
X0394017Y0162933D01*
X0394011Y0163002D01*
X0394009Y0163072D01*
X0366971Y0141300D02*
X0366973Y0141397D01*
X0366979Y0141494D01*
X0366989Y0141590D01*
X0367003Y0141686D01*
X0367021Y0141782D01*
X0367042Y0141876D01*
X0367068Y0141970D01*
X0367097Y0142062D01*
X0367131Y0142153D01*
X0367167Y0142243D01*
X0367208Y0142331D01*
X0367252Y0142417D01*
X0367300Y0142502D01*
X0367351Y0142584D01*
X0367405Y0142665D01*
X0367463Y0142743D01*
X0367524Y0142818D01*
X0367587Y0142891D01*
X0367654Y0142962D01*
X0367724Y0143029D01*
X0367796Y0143094D01*
X0367871Y0143155D01*
X0367949Y0143214D01*
X0368028Y0143269D01*
X0368110Y0143321D01*
X0368194Y0143369D01*
X0368280Y0143414D01*
X0368368Y0143456D01*
X0368457Y0143494D01*
X0368548Y0143528D01*
X0368640Y0143558D01*
X0368733Y0143585D01*
X0368828Y0143607D01*
X0368923Y0143626D01*
X0369019Y0143641D01*
X0369115Y0143652D01*
X0369212Y0143659D01*
X0369309Y0143662D01*
X0369406Y0143661D01*
X0369503Y0143656D01*
X0369599Y0143647D01*
X0369695Y0143634D01*
X0369791Y0143617D01*
X0369886Y0143596D01*
X0369979Y0143572D01*
X0370072Y0143543D01*
X0370164Y0143511D01*
X0370254Y0143475D01*
X0370342Y0143436D01*
X0370429Y0143392D01*
X0370514Y0143346D01*
X0370597Y0143295D01*
X0370678Y0143242D01*
X0370756Y0143185D01*
X0370833Y0143125D01*
X0370906Y0143062D01*
X0370977Y0142996D01*
X0371045Y0142927D01*
X0371111Y0142855D01*
X0371173Y0142781D01*
X0371232Y0142704D01*
X0371288Y0142625D01*
X0371341Y0142543D01*
X0371391Y0142460D01*
X0371436Y0142374D01*
X0371479Y0142287D01*
X0371518Y0142198D01*
X0371553Y0142108D01*
X0371584Y0142016D01*
X0371611Y0141923D01*
X0371635Y0141829D01*
X0371655Y0141734D01*
X0371671Y0141638D01*
X0371683Y0141542D01*
X0371691Y0141445D01*
X0371695Y0141348D01*
X0371695Y0141252D01*
X0371691Y0141155D01*
X0371683Y0141058D01*
X0371671Y0140962D01*
X0371655Y0140866D01*
X0371635Y0140771D01*
X0371611Y0140677D01*
X0371584Y0140584D01*
X0371553Y0140492D01*
X0371518Y0140402D01*
X0371479Y0140313D01*
X0371436Y0140226D01*
X0371391Y0140140D01*
X0371341Y0140057D01*
X0371288Y0139975D01*
X0371232Y0139896D01*
X0371173Y0139819D01*
X0371111Y0139745D01*
X0371045Y0139673D01*
X0370977Y0139604D01*
X0370906Y0139538D01*
X0370833Y0139475D01*
X0370756Y0139415D01*
X0370678Y0139358D01*
X0370597Y0139305D01*
X0370514Y0139254D01*
X0370429Y0139208D01*
X0370342Y0139164D01*
X0370254Y0139125D01*
X0370164Y0139089D01*
X0370072Y0139057D01*
X0369979Y0139028D01*
X0369886Y0139004D01*
X0369791Y0138983D01*
X0369695Y0138966D01*
X0369599Y0138953D01*
X0369503Y0138944D01*
X0369406Y0138939D01*
X0369309Y0138938D01*
X0369212Y0138941D01*
X0369115Y0138948D01*
X0369019Y0138959D01*
X0368923Y0138974D01*
X0368828Y0138993D01*
X0368733Y0139015D01*
X0368640Y0139042D01*
X0368548Y0139072D01*
X0368457Y0139106D01*
X0368368Y0139144D01*
X0368280Y0139186D01*
X0368194Y0139231D01*
X0368110Y0139279D01*
X0368028Y0139331D01*
X0367949Y0139386D01*
X0367871Y0139445D01*
X0367796Y0139506D01*
X0367724Y0139571D01*
X0367654Y0139638D01*
X0367587Y0139709D01*
X0367524Y0139782D01*
X0367463Y0139857D01*
X0367405Y0139935D01*
X0367351Y0140016D01*
X0367300Y0140098D01*
X0367252Y0140183D01*
X0367208Y0140269D01*
X0367167Y0140357D01*
X0367131Y0140447D01*
X0367097Y0140538D01*
X0367068Y0140630D01*
X0367042Y0140724D01*
X0367021Y0140818D01*
X0367003Y0140914D01*
X0366989Y0141010D01*
X0366979Y0141106D01*
X0366973Y0141203D01*
X0366971Y0141300D01*
X0376971Y0122579D02*
X0376973Y0122676D01*
X0376979Y0122773D01*
X0376989Y0122869D01*
X0377003Y0122965D01*
X0377021Y0123061D01*
X0377042Y0123155D01*
X0377068Y0123249D01*
X0377097Y0123341D01*
X0377131Y0123432D01*
X0377167Y0123522D01*
X0377208Y0123610D01*
X0377252Y0123696D01*
X0377300Y0123781D01*
X0377351Y0123863D01*
X0377405Y0123944D01*
X0377463Y0124022D01*
X0377524Y0124097D01*
X0377587Y0124170D01*
X0377654Y0124241D01*
X0377724Y0124308D01*
X0377796Y0124373D01*
X0377871Y0124434D01*
X0377949Y0124493D01*
X0378028Y0124548D01*
X0378110Y0124600D01*
X0378194Y0124648D01*
X0378280Y0124693D01*
X0378368Y0124735D01*
X0378457Y0124773D01*
X0378548Y0124807D01*
X0378640Y0124837D01*
X0378733Y0124864D01*
X0378828Y0124886D01*
X0378923Y0124905D01*
X0379019Y0124920D01*
X0379115Y0124931D01*
X0379212Y0124938D01*
X0379309Y0124941D01*
X0379406Y0124940D01*
X0379503Y0124935D01*
X0379599Y0124926D01*
X0379695Y0124913D01*
X0379791Y0124896D01*
X0379886Y0124875D01*
X0379979Y0124851D01*
X0380072Y0124822D01*
X0380164Y0124790D01*
X0380254Y0124754D01*
X0380342Y0124715D01*
X0380429Y0124671D01*
X0380514Y0124625D01*
X0380597Y0124574D01*
X0380678Y0124521D01*
X0380756Y0124464D01*
X0380833Y0124404D01*
X0380906Y0124341D01*
X0380977Y0124275D01*
X0381045Y0124206D01*
X0381111Y0124134D01*
X0381173Y0124060D01*
X0381232Y0123983D01*
X0381288Y0123904D01*
X0381341Y0123822D01*
X0381391Y0123739D01*
X0381436Y0123653D01*
X0381479Y0123566D01*
X0381518Y0123477D01*
X0381553Y0123387D01*
X0381584Y0123295D01*
X0381611Y0123202D01*
X0381635Y0123108D01*
X0381655Y0123013D01*
X0381671Y0122917D01*
X0381683Y0122821D01*
X0381691Y0122724D01*
X0381695Y0122627D01*
X0381695Y0122531D01*
X0381691Y0122434D01*
X0381683Y0122337D01*
X0381671Y0122241D01*
X0381655Y0122145D01*
X0381635Y0122050D01*
X0381611Y0121956D01*
X0381584Y0121863D01*
X0381553Y0121771D01*
X0381518Y0121681D01*
X0381479Y0121592D01*
X0381436Y0121505D01*
X0381391Y0121419D01*
X0381341Y0121336D01*
X0381288Y0121254D01*
X0381232Y0121175D01*
X0381173Y0121098D01*
X0381111Y0121024D01*
X0381045Y0120952D01*
X0380977Y0120883D01*
X0380906Y0120817D01*
X0380833Y0120754D01*
X0380756Y0120694D01*
X0380678Y0120637D01*
X0380597Y0120584D01*
X0380514Y0120533D01*
X0380429Y0120487D01*
X0380342Y0120443D01*
X0380254Y0120404D01*
X0380164Y0120368D01*
X0380072Y0120336D01*
X0379979Y0120307D01*
X0379886Y0120283D01*
X0379791Y0120262D01*
X0379695Y0120245D01*
X0379599Y0120232D01*
X0379503Y0120223D01*
X0379406Y0120218D01*
X0379309Y0120217D01*
X0379212Y0120220D01*
X0379115Y0120227D01*
X0379019Y0120238D01*
X0378923Y0120253D01*
X0378828Y0120272D01*
X0378733Y0120294D01*
X0378640Y0120321D01*
X0378548Y0120351D01*
X0378457Y0120385D01*
X0378368Y0120423D01*
X0378280Y0120465D01*
X0378194Y0120510D01*
X0378110Y0120558D01*
X0378028Y0120610D01*
X0377949Y0120665D01*
X0377871Y0120724D01*
X0377796Y0120785D01*
X0377724Y0120850D01*
X0377654Y0120917D01*
X0377587Y0120988D01*
X0377524Y0121061D01*
X0377463Y0121136D01*
X0377405Y0121214D01*
X0377351Y0121295D01*
X0377300Y0121377D01*
X0377252Y0121462D01*
X0377208Y0121548D01*
X0377167Y0121636D01*
X0377131Y0121726D01*
X0377097Y0121817D01*
X0377068Y0121909D01*
X0377042Y0122003D01*
X0377021Y0122097D01*
X0377003Y0122193D01*
X0376989Y0122289D01*
X0376979Y0122385D01*
X0376973Y0122482D01*
X0376971Y0122579D01*
X0366626Y0117579D02*
X0366628Y0117673D01*
X0366634Y0117767D01*
X0366644Y0117860D01*
X0366658Y0117953D01*
X0366676Y0118046D01*
X0366697Y0118137D01*
X0366723Y0118228D01*
X0366753Y0118317D01*
X0366786Y0118405D01*
X0366823Y0118491D01*
X0366863Y0118576D01*
X0366907Y0118659D01*
X0366955Y0118740D01*
X0367006Y0118819D01*
X0367060Y0118896D01*
X0367118Y0118971D01*
X0367178Y0119042D01*
X0367242Y0119112D01*
X0367308Y0119178D01*
X0367378Y0119242D01*
X0367449Y0119302D01*
X0367524Y0119360D01*
X0367601Y0119414D01*
X0367680Y0119465D01*
X0367761Y0119513D01*
X0367844Y0119557D01*
X0367929Y0119597D01*
X0368015Y0119634D01*
X0368103Y0119667D01*
X0368192Y0119697D01*
X0368283Y0119723D01*
X0368374Y0119744D01*
X0368467Y0119762D01*
X0368560Y0119776D01*
X0368653Y0119786D01*
X0368747Y0119792D01*
X0368841Y0119794D01*
X0368935Y0119792D01*
X0369029Y0119786D01*
X0369122Y0119776D01*
X0369215Y0119762D01*
X0369308Y0119744D01*
X0369399Y0119723D01*
X0369490Y0119697D01*
X0369579Y0119667D01*
X0369667Y0119634D01*
X0369753Y0119597D01*
X0369838Y0119557D01*
X0369921Y0119513D01*
X0370002Y0119465D01*
X0370081Y0119414D01*
X0370158Y0119360D01*
X0370233Y0119302D01*
X0370304Y0119242D01*
X0370374Y0119178D01*
X0370440Y0119112D01*
X0370504Y0119042D01*
X0370564Y0118971D01*
X0370622Y0118896D01*
X0370676Y0118819D01*
X0370727Y0118740D01*
X0370775Y0118659D01*
X0370819Y0118576D01*
X0370859Y0118491D01*
X0370896Y0118405D01*
X0370929Y0118317D01*
X0370959Y0118228D01*
X0370985Y0118137D01*
X0371006Y0118046D01*
X0371024Y0117953D01*
X0371038Y0117860D01*
X0371048Y0117767D01*
X0371054Y0117673D01*
X0371056Y0117579D01*
X0371054Y0117485D01*
X0371048Y0117391D01*
X0371038Y0117298D01*
X0371024Y0117205D01*
X0371006Y0117112D01*
X0370985Y0117021D01*
X0370959Y0116930D01*
X0370929Y0116841D01*
X0370896Y0116753D01*
X0370859Y0116667D01*
X0370819Y0116582D01*
X0370775Y0116499D01*
X0370727Y0116418D01*
X0370676Y0116339D01*
X0370622Y0116262D01*
X0370564Y0116187D01*
X0370504Y0116116D01*
X0370440Y0116046D01*
X0370374Y0115980D01*
X0370304Y0115916D01*
X0370233Y0115856D01*
X0370158Y0115798D01*
X0370081Y0115744D01*
X0370002Y0115693D01*
X0369921Y0115645D01*
X0369838Y0115601D01*
X0369753Y0115561D01*
X0369667Y0115524D01*
X0369579Y0115491D01*
X0369490Y0115461D01*
X0369399Y0115435D01*
X0369308Y0115414D01*
X0369215Y0115396D01*
X0369122Y0115382D01*
X0369029Y0115372D01*
X0368935Y0115366D01*
X0368841Y0115364D01*
X0368747Y0115366D01*
X0368653Y0115372D01*
X0368560Y0115382D01*
X0368467Y0115396D01*
X0368374Y0115414D01*
X0368283Y0115435D01*
X0368192Y0115461D01*
X0368103Y0115491D01*
X0368015Y0115524D01*
X0367929Y0115561D01*
X0367844Y0115601D01*
X0367761Y0115645D01*
X0367680Y0115693D01*
X0367601Y0115744D01*
X0367524Y0115798D01*
X0367449Y0115856D01*
X0367378Y0115916D01*
X0367308Y0115980D01*
X0367242Y0116046D01*
X0367178Y0116116D01*
X0367118Y0116187D01*
X0367060Y0116262D01*
X0367006Y0116339D01*
X0366955Y0116418D01*
X0366907Y0116499D01*
X0366863Y0116582D01*
X0366823Y0116667D01*
X0366786Y0116753D01*
X0366753Y0116841D01*
X0366723Y0116930D01*
X0366697Y0117021D01*
X0366676Y0117112D01*
X0366658Y0117205D01*
X0366644Y0117298D01*
X0366634Y0117391D01*
X0366628Y0117485D01*
X0366626Y0117579D01*
X0386971Y0122579D02*
X0386973Y0122676D01*
X0386979Y0122773D01*
X0386989Y0122869D01*
X0387003Y0122965D01*
X0387021Y0123061D01*
X0387042Y0123155D01*
X0387068Y0123249D01*
X0387097Y0123341D01*
X0387131Y0123432D01*
X0387167Y0123522D01*
X0387208Y0123610D01*
X0387252Y0123696D01*
X0387300Y0123781D01*
X0387351Y0123863D01*
X0387405Y0123944D01*
X0387463Y0124022D01*
X0387524Y0124097D01*
X0387587Y0124170D01*
X0387654Y0124241D01*
X0387724Y0124308D01*
X0387796Y0124373D01*
X0387871Y0124434D01*
X0387949Y0124493D01*
X0388028Y0124548D01*
X0388110Y0124600D01*
X0388194Y0124648D01*
X0388280Y0124693D01*
X0388368Y0124735D01*
X0388457Y0124773D01*
X0388548Y0124807D01*
X0388640Y0124837D01*
X0388733Y0124864D01*
X0388828Y0124886D01*
X0388923Y0124905D01*
X0389019Y0124920D01*
X0389115Y0124931D01*
X0389212Y0124938D01*
X0389309Y0124941D01*
X0389406Y0124940D01*
X0389503Y0124935D01*
X0389599Y0124926D01*
X0389695Y0124913D01*
X0389791Y0124896D01*
X0389886Y0124875D01*
X0389979Y0124851D01*
X0390072Y0124822D01*
X0390164Y0124790D01*
X0390254Y0124754D01*
X0390342Y0124715D01*
X0390429Y0124671D01*
X0390514Y0124625D01*
X0390597Y0124574D01*
X0390678Y0124521D01*
X0390756Y0124464D01*
X0390833Y0124404D01*
X0390906Y0124341D01*
X0390977Y0124275D01*
X0391045Y0124206D01*
X0391111Y0124134D01*
X0391173Y0124060D01*
X0391232Y0123983D01*
X0391288Y0123904D01*
X0391341Y0123822D01*
X0391391Y0123739D01*
X0391436Y0123653D01*
X0391479Y0123566D01*
X0391518Y0123477D01*
X0391553Y0123387D01*
X0391584Y0123295D01*
X0391611Y0123202D01*
X0391635Y0123108D01*
X0391655Y0123013D01*
X0391671Y0122917D01*
X0391683Y0122821D01*
X0391691Y0122724D01*
X0391695Y0122627D01*
X0391695Y0122531D01*
X0391691Y0122434D01*
X0391683Y0122337D01*
X0391671Y0122241D01*
X0391655Y0122145D01*
X0391635Y0122050D01*
X0391611Y0121956D01*
X0391584Y0121863D01*
X0391553Y0121771D01*
X0391518Y0121681D01*
X0391479Y0121592D01*
X0391436Y0121505D01*
X0391391Y0121419D01*
X0391341Y0121336D01*
X0391288Y0121254D01*
X0391232Y0121175D01*
X0391173Y0121098D01*
X0391111Y0121024D01*
X0391045Y0120952D01*
X0390977Y0120883D01*
X0390906Y0120817D01*
X0390833Y0120754D01*
X0390756Y0120694D01*
X0390678Y0120637D01*
X0390597Y0120584D01*
X0390514Y0120533D01*
X0390429Y0120487D01*
X0390342Y0120443D01*
X0390254Y0120404D01*
X0390164Y0120368D01*
X0390072Y0120336D01*
X0389979Y0120307D01*
X0389886Y0120283D01*
X0389791Y0120262D01*
X0389695Y0120245D01*
X0389599Y0120232D01*
X0389503Y0120223D01*
X0389406Y0120218D01*
X0389309Y0120217D01*
X0389212Y0120220D01*
X0389115Y0120227D01*
X0389019Y0120238D01*
X0388923Y0120253D01*
X0388828Y0120272D01*
X0388733Y0120294D01*
X0388640Y0120321D01*
X0388548Y0120351D01*
X0388457Y0120385D01*
X0388368Y0120423D01*
X0388280Y0120465D01*
X0388194Y0120510D01*
X0388110Y0120558D01*
X0388028Y0120610D01*
X0387949Y0120665D01*
X0387871Y0120724D01*
X0387796Y0120785D01*
X0387724Y0120850D01*
X0387654Y0120917D01*
X0387587Y0120988D01*
X0387524Y0121061D01*
X0387463Y0121136D01*
X0387405Y0121214D01*
X0387351Y0121295D01*
X0387300Y0121377D01*
X0387252Y0121462D01*
X0387208Y0121548D01*
X0387167Y0121636D01*
X0387131Y0121726D01*
X0387097Y0121817D01*
X0387068Y0121909D01*
X0387042Y0122003D01*
X0387021Y0122097D01*
X0387003Y0122193D01*
X0386989Y0122289D01*
X0386979Y0122385D01*
X0386973Y0122482D01*
X0386971Y0122579D01*
X0394009Y0137087D02*
X0394011Y0137157D01*
X0394017Y0137226D01*
X0394027Y0137295D01*
X0394040Y0137363D01*
X0394058Y0137430D01*
X0394079Y0137497D01*
X0394104Y0137562D01*
X0394133Y0137625D01*
X0394165Y0137687D01*
X0394201Y0137747D01*
X0394240Y0137804D01*
X0394282Y0137860D01*
X0394327Y0137913D01*
X0394375Y0137963D01*
X0394426Y0138010D01*
X0394480Y0138055D01*
X0394536Y0138096D01*
X0394594Y0138134D01*
X0394654Y0138169D01*
X0394717Y0138201D01*
X0394780Y0138228D01*
X0394846Y0138252D01*
X0394912Y0138273D01*
X0394980Y0138289D01*
X0395048Y0138302D01*
X0395117Y0138311D01*
X0395187Y0138316D01*
X0395256Y0138317D01*
X0395326Y0138314D01*
X0395395Y0138307D01*
X0395464Y0138296D01*
X0395532Y0138282D01*
X0395599Y0138263D01*
X0395665Y0138241D01*
X0395730Y0138215D01*
X0395793Y0138185D01*
X0395854Y0138152D01*
X0395913Y0138116D01*
X0395970Y0138076D01*
X0396025Y0138033D01*
X0396077Y0137987D01*
X0396127Y0137938D01*
X0396174Y0137886D01*
X0396217Y0137832D01*
X0396258Y0137776D01*
X0396295Y0137717D01*
X0396329Y0137656D01*
X0396360Y0137594D01*
X0396387Y0137529D01*
X0396410Y0137464D01*
X0396429Y0137397D01*
X0396445Y0137329D01*
X0396457Y0137260D01*
X0396465Y0137191D01*
X0396469Y0137122D01*
X0396469Y0137052D01*
X0396465Y0136983D01*
X0396457Y0136914D01*
X0396445Y0136845D01*
X0396429Y0136777D01*
X0396410Y0136710D01*
X0396387Y0136645D01*
X0396360Y0136580D01*
X0396329Y0136518D01*
X0396295Y0136457D01*
X0396258Y0136398D01*
X0396217Y0136342D01*
X0396174Y0136288D01*
X0396127Y0136236D01*
X0396077Y0136187D01*
X0396025Y0136141D01*
X0395970Y0136098D01*
X0395913Y0136058D01*
X0395854Y0136022D01*
X0395793Y0135989D01*
X0395730Y0135959D01*
X0395665Y0135933D01*
X0395599Y0135911D01*
X0395532Y0135892D01*
X0395464Y0135878D01*
X0395395Y0135867D01*
X0395326Y0135860D01*
X0395256Y0135857D01*
X0395187Y0135858D01*
X0395117Y0135863D01*
X0395048Y0135872D01*
X0394980Y0135885D01*
X0394912Y0135901D01*
X0394846Y0135922D01*
X0394780Y0135946D01*
X0394717Y0135973D01*
X0394654Y0136005D01*
X0394594Y0136040D01*
X0394536Y0136078D01*
X0394480Y0136119D01*
X0394426Y0136164D01*
X0394375Y0136211D01*
X0394327Y0136261D01*
X0394282Y0136314D01*
X0394240Y0136370D01*
X0394201Y0136427D01*
X0394165Y0136487D01*
X0394133Y0136549D01*
X0394104Y0136612D01*
X0394079Y0136677D01*
X0394058Y0136744D01*
X0394040Y0136811D01*
X0394027Y0136879D01*
X0394017Y0136948D01*
X0394011Y0137017D01*
X0394009Y0137087D01*
M02*
