G75*
%MOIN*%
%OFA0B0*%
%FSLAX25Y25*%
%IPPOS*%
%LPD*%
%AMOC8*
5,1,8,0,0,1.08239X$1,22.5*
%
%ADD10C,0.01600*%
%ADD11C,0.01000*%
D10*
X0259000Y0619000D03*
X0259000Y0624000D03*
X0259000Y0629000D03*
X0259000Y0634000D03*
X0259000Y0639000D03*
X0259000Y0644000D03*
X0259000Y0649000D03*
X0259000Y0654000D03*
X0259000Y0659000D03*
X0259000Y0664000D03*
X0254000Y0664000D03*
X0254000Y0659000D03*
X0254000Y0654000D03*
X0254000Y0649000D03*
X0254000Y0644000D03*
X0254000Y0639000D03*
X0254000Y0634000D03*
X0249000Y0634000D03*
X0249000Y0639000D03*
X0249000Y0644000D03*
X0249000Y0649000D03*
X0249000Y0654000D03*
X0249000Y0659000D03*
X0249000Y0664000D03*
X0244000Y0664000D03*
X0244000Y0659000D03*
X0244000Y0654000D03*
X0244000Y0649000D03*
X0244000Y0644000D03*
X0244000Y0639000D03*
X0244000Y0634000D03*
X0239000Y0634000D03*
X0239000Y0639000D03*
X0239000Y0644000D03*
X0239000Y0649000D03*
X0239000Y0654000D03*
X0239000Y0659000D03*
X0239000Y0664000D03*
X0234000Y0664000D03*
X0234000Y0659000D03*
X0229000Y0659000D03*
X0229000Y0664000D03*
X0224000Y0664000D03*
X0224000Y0659000D03*
X0219000Y0659000D03*
X0219000Y0664000D03*
X0214000Y0664000D03*
X0209000Y0664000D03*
X0209000Y0659000D03*
X0214000Y0659000D03*
X0204000Y0659000D03*
X0204000Y0664000D03*
X0199000Y0664000D03*
X0199000Y0659000D03*
X0194000Y0659000D03*
X0194000Y0664000D03*
X0189000Y0664000D03*
X0189000Y0659000D03*
X0184000Y0659000D03*
X0184000Y0664000D03*
X0179000Y0664000D03*
X0179000Y0659000D03*
X0174000Y0659000D03*
X0174000Y0664000D03*
X0169000Y0664000D03*
X0169000Y0659000D03*
X0164000Y0659000D03*
X0164000Y0664000D03*
X0159000Y0664000D03*
X0159000Y0659000D03*
X0154000Y0659000D03*
X0154000Y0664000D03*
X0149000Y0664000D03*
X0149000Y0659000D03*
X0144000Y0659000D03*
X0144000Y0664000D03*
X0139000Y0664000D03*
X0134000Y0664000D03*
X0134000Y0659000D03*
X0139000Y0659000D03*
X0129000Y0659000D03*
X0129000Y0664000D03*
X0124000Y0664000D03*
X0124000Y0659000D03*
X0119000Y0659000D03*
X0119000Y0664000D03*
X0114000Y0664000D03*
X0114000Y0659000D03*
X0109000Y0659000D03*
X0109000Y0664000D03*
X0104000Y0664000D03*
X0104000Y0659000D03*
X0099000Y0659000D03*
X0099000Y0664000D03*
X0094000Y0664000D03*
X0094000Y0659000D03*
X0089000Y0659000D03*
X0089000Y0664000D03*
X0084000Y0664000D03*
X0084000Y0659000D03*
X0079000Y0659000D03*
X0079000Y0664000D03*
X0074000Y0664000D03*
X0074000Y0659000D03*
X0069000Y0659000D03*
X0069000Y0664000D03*
X0064000Y0664000D03*
X0059000Y0664000D03*
X0059000Y0659000D03*
X0064000Y0659000D03*
X0054000Y0659000D03*
X0054000Y0664000D03*
X0049000Y0664000D03*
X0049000Y0659000D03*
X0044000Y0659000D03*
X0044000Y0664000D03*
X0039000Y0664000D03*
X0039000Y0659000D03*
X0034000Y0659000D03*
X0034000Y0664000D03*
X0029000Y0664000D03*
X0029000Y0659000D03*
X0024000Y0659000D03*
X0024000Y0664000D03*
X0019000Y0664000D03*
X0019000Y0659000D03*
X0014000Y0659000D03*
X0011500Y0660300D03*
X0011500Y0662700D03*
X0009000Y0661500D03*
X0009000Y0659000D03*
X0009000Y0664000D03*
X0014000Y0664000D03*
X0264000Y0664000D03*
X0264000Y0659000D03*
X0264000Y0654000D03*
X0264000Y0649000D03*
X0264000Y0644000D03*
X0264000Y0639000D03*
X0264000Y0634000D03*
X0264000Y0629000D03*
X0264000Y0624000D03*
X0264000Y0619000D03*
X0279000Y0619000D03*
X0279000Y0624000D03*
X0279000Y0629000D03*
X0279000Y0634000D03*
X0279000Y0639000D03*
X0279000Y0644000D03*
X0279000Y0649000D03*
X0279000Y0654000D03*
X0279000Y0659000D03*
X0279000Y0664000D03*
X0274000Y0664000D03*
X0274000Y0659000D03*
X0274000Y0654000D03*
X0274000Y0649000D03*
X0274000Y0644000D03*
X0269000Y0644000D03*
X0269000Y0649000D03*
X0269000Y0654000D03*
X0269000Y0659000D03*
X0269000Y0664000D03*
X0284000Y0664000D03*
X0289000Y0664000D03*
X0289000Y0659000D03*
X0284000Y0659000D03*
X0284000Y0654000D03*
X0289000Y0654000D03*
X0289000Y0649000D03*
X0284000Y0649000D03*
X0284000Y0644000D03*
X0289000Y0644000D03*
X0289000Y0639000D03*
X0284000Y0639000D03*
X0284000Y0634000D03*
X0289000Y0634000D03*
X0294000Y0634000D03*
X0294000Y0639000D03*
X0294000Y0644000D03*
X0294000Y0649000D03*
X0294000Y0654000D03*
X0299000Y0654000D03*
X0299000Y0649000D03*
X0299000Y0644000D03*
X0299000Y0639000D03*
X0299000Y0634000D03*
X0304000Y0634000D03*
X0304000Y0639000D03*
X0304000Y0644000D03*
X0304000Y0649000D03*
X0304000Y0654000D03*
X0304000Y0659000D03*
X0304000Y0664000D03*
X0299000Y0664000D03*
X0299000Y0659000D03*
X0294000Y0664000D03*
X0309000Y0664000D03*
X0309000Y0659000D03*
X0309000Y0654000D03*
X0309000Y0649000D03*
X0309000Y0644000D03*
X0309000Y0639000D03*
X0309000Y0634000D03*
X0309000Y0629000D03*
X0309000Y0624000D03*
X0309000Y0619000D03*
X0314000Y0619000D03*
X0314000Y0624000D03*
X0314000Y0629000D03*
X0314000Y0634000D03*
X0314000Y0639000D03*
X0314000Y0644000D03*
X0314000Y0649000D03*
X0314000Y0654000D03*
X0314000Y0659000D03*
X0314000Y0664000D03*
X0319000Y0664000D03*
X0319000Y0659000D03*
X0319000Y0654000D03*
X0319000Y0649000D03*
X0319000Y0644000D03*
X0324000Y0644000D03*
X0324000Y0649000D03*
X0324000Y0654000D03*
X0324000Y0659000D03*
X0324000Y0664000D03*
X0329000Y0664000D03*
X0329000Y0659000D03*
X0329000Y0654000D03*
X0329000Y0649000D03*
X0329000Y0644000D03*
X0329000Y0639000D03*
X0329000Y0634000D03*
X0329000Y0629000D03*
X0329000Y0624000D03*
X0329000Y0619000D03*
X0334000Y0619000D03*
X0334000Y0624000D03*
X0334000Y0629000D03*
X0334000Y0634000D03*
X0334000Y0639000D03*
X0334000Y0644000D03*
X0334000Y0649000D03*
X0334000Y0654000D03*
X0334000Y0659000D03*
X0334000Y0664000D03*
X0339000Y0664000D03*
X0339000Y0659000D03*
X0339000Y0654000D03*
X0339000Y0649000D03*
X0339000Y0644000D03*
X0339000Y0639000D03*
X0339000Y0634000D03*
X0344000Y0634000D03*
X0344000Y0639000D03*
X0344000Y0644000D03*
X0344000Y0649000D03*
X0344000Y0654000D03*
X0344000Y0659000D03*
X0344000Y0664000D03*
X0349000Y0664000D03*
X0349000Y0659000D03*
X0349000Y0654000D03*
X0349000Y0649000D03*
X0349000Y0644000D03*
X0349000Y0639000D03*
X0349000Y0634000D03*
X0354000Y0634000D03*
X0354000Y0639000D03*
X0354000Y0644000D03*
X0354000Y0649000D03*
X0354000Y0654000D03*
X0354000Y0659000D03*
X0354000Y0664000D03*
X0359000Y0664000D03*
X0364000Y0664000D03*
X0364000Y0659000D03*
X0359000Y0659000D03*
X0359000Y0654000D03*
X0364000Y0654000D03*
X0364000Y0649000D03*
X0359000Y0649000D03*
X0359000Y0644000D03*
X0364000Y0644000D03*
X0364000Y0639000D03*
X0359000Y0639000D03*
X0359000Y0634000D03*
X0364000Y0634000D03*
X0369000Y0634000D03*
X0369000Y0629000D03*
X0369000Y0624000D03*
X0369000Y0619000D03*
X0374000Y0619000D03*
X0374000Y0624000D03*
X0374000Y0629000D03*
X0374000Y0634000D03*
X0374000Y0639000D03*
X0374000Y0644000D03*
X0374000Y0649000D03*
X0374000Y0654000D03*
X0374000Y0659000D03*
X0374000Y0664000D03*
X0369000Y0664000D03*
X0369000Y0659000D03*
X0369000Y0654000D03*
X0369000Y0649000D03*
X0369000Y0644000D03*
X0369000Y0639000D03*
X0379000Y0644000D03*
X0379000Y0649000D03*
X0379000Y0654000D03*
X0379000Y0659000D03*
X0379000Y0664000D03*
X0384000Y0664000D03*
X0384000Y0659000D03*
X0384000Y0654000D03*
X0384000Y0649000D03*
X0384000Y0644000D03*
X0389000Y0644000D03*
X0389000Y0639000D03*
X0389000Y0634000D03*
X0389000Y0629000D03*
X0389000Y0624000D03*
X0389000Y0619000D03*
X0394000Y0619000D03*
X0394000Y0624000D03*
X0394000Y0629000D03*
X0394000Y0634000D03*
X0394000Y0639000D03*
X0394000Y0644000D03*
X0394000Y0649000D03*
X0394000Y0654000D03*
X0394000Y0659000D03*
X0394000Y0664000D03*
X0389000Y0664000D03*
X0389000Y0659000D03*
X0389000Y0654000D03*
X0389000Y0649000D03*
X0399000Y0649000D03*
X0399000Y0654000D03*
X0399000Y0659000D03*
X0399000Y0664000D03*
X0404000Y0664000D03*
X0404000Y0659000D03*
X0404000Y0654000D03*
X0404000Y0649000D03*
X0404000Y0644000D03*
X0404000Y0639000D03*
X0404000Y0634000D03*
X0399000Y0634000D03*
X0399000Y0639000D03*
X0399000Y0644000D03*
X0409000Y0644000D03*
X0409000Y0639000D03*
X0409000Y0634000D03*
X0414000Y0634000D03*
X0414000Y0639000D03*
X0414000Y0644000D03*
X0414000Y0649000D03*
X0414000Y0654000D03*
X0414000Y0659000D03*
X0414000Y0664000D03*
X0409000Y0664000D03*
X0409000Y0654000D03*
X0409000Y0649000D03*
X0419000Y0649000D03*
X0419000Y0654000D03*
X0419000Y0659000D03*
X0419000Y0664000D03*
X0424000Y0664000D03*
X0424000Y0659000D03*
X0424000Y0654000D03*
X0424000Y0649000D03*
X0424000Y0644000D03*
X0424000Y0639000D03*
X0424000Y0634000D03*
X0424000Y0629000D03*
X0424000Y0624000D03*
X0424000Y0619000D03*
X0419000Y0619000D03*
X0419000Y0624000D03*
X0419000Y0629000D03*
X0419000Y0634000D03*
X0419000Y0639000D03*
X0419000Y0644000D03*
X0429000Y0644000D03*
X0429000Y0649000D03*
X0429000Y0654000D03*
X0429000Y0659000D03*
X0429000Y0664000D03*
X0434000Y0664000D03*
X0439000Y0664000D03*
X0439000Y0659000D03*
X0434000Y0659000D03*
X0434000Y0654000D03*
X0439000Y0654000D03*
X0439000Y0649000D03*
X0434000Y0649000D03*
X0434000Y0644000D03*
X0439000Y0644000D03*
X0439000Y0639000D03*
X0439000Y0634000D03*
X0439000Y0629000D03*
X0439000Y0624000D03*
X0439000Y0619000D03*
X0444000Y0619000D03*
X0444000Y0624000D03*
X0444000Y0629000D03*
X0444000Y0634000D03*
X0444000Y0639000D03*
X0444000Y0644000D03*
X0444000Y0649000D03*
X0444000Y0654000D03*
X0444000Y0659000D03*
X0444000Y0664000D03*
X0449000Y0664000D03*
X0449000Y0659000D03*
X0449000Y0654000D03*
X0449000Y0649000D03*
X0449000Y0644000D03*
X0449000Y0639000D03*
X0449000Y0634000D03*
X0454000Y0634000D03*
X0454000Y0639000D03*
X0454000Y0644000D03*
X0454000Y0649000D03*
X0454000Y0654000D03*
X0459000Y0654000D03*
X0459000Y0649000D03*
X0464000Y0644000D03*
X0464000Y0639000D03*
X0464000Y0634000D03*
X0459000Y0634000D03*
X0459000Y0639000D03*
X0469000Y0639000D03*
X0469000Y0634000D03*
X0474000Y0634000D03*
X0474000Y0629000D03*
X0474000Y0624000D03*
X0474000Y0619000D03*
X0474000Y0614000D03*
X0474000Y0609000D03*
X0474000Y0604000D03*
X0474000Y0599000D03*
X0474000Y0594000D03*
X0474000Y0589000D03*
X0474000Y0584000D03*
X0474000Y0579000D03*
X0474000Y0574000D03*
X0474000Y0569000D03*
X0474000Y0564000D03*
X0474000Y0559000D03*
X0474000Y0554000D03*
X0474000Y0549000D03*
X0474000Y0544000D03*
X0474000Y0539000D03*
X0474000Y0534000D03*
X0474000Y0529000D03*
X0474000Y0524000D03*
X0474000Y0519000D03*
X0474000Y0514000D03*
X0474000Y0509000D03*
X0474000Y0504000D03*
X0474000Y0499000D03*
X0474000Y0494000D03*
X0474000Y0489000D03*
X0474000Y0484000D03*
X0474000Y0479000D03*
X0474000Y0474000D03*
X0474000Y0469000D03*
X0474000Y0464000D03*
X0474000Y0459000D03*
X0474000Y0454000D03*
X0474000Y0449000D03*
X0474000Y0444000D03*
X0474000Y0439000D03*
X0474000Y0434000D03*
X0474000Y0429000D03*
X0474000Y0424000D03*
X0474000Y0419000D03*
X0474000Y0414000D03*
X0474000Y0409000D03*
X0474000Y0404000D03*
X0474000Y0399000D03*
X0474000Y0394000D03*
X0474000Y0389000D03*
X0474000Y0384000D03*
X0474000Y0379000D03*
X0474000Y0374000D03*
X0474000Y0369000D03*
X0474000Y0364000D03*
X0474000Y0359000D03*
X0474000Y0354000D03*
X0474000Y0349000D03*
X0474000Y0344000D03*
X0474000Y0339000D03*
X0474000Y0334000D03*
X0474000Y0329000D03*
X0474000Y0324000D03*
X0474000Y0319000D03*
X0474000Y0314000D03*
X0474000Y0309000D03*
X0474000Y0304000D03*
X0474000Y0299000D03*
X0474000Y0294000D03*
X0474000Y0289000D03*
X0474000Y0284000D03*
X0474000Y0279000D03*
X0474000Y0274000D03*
X0474000Y0269000D03*
X0474000Y0264000D03*
X0474000Y0259000D03*
X0474000Y0254000D03*
X0474000Y0249000D03*
X0474000Y0244000D03*
X0474000Y0239000D03*
X0474000Y0234000D03*
X0474000Y0229000D03*
X0474000Y0224000D03*
X0474000Y0219000D03*
X0474000Y0214000D03*
X0474000Y0209000D03*
X0474000Y0204000D03*
X0474000Y0199000D03*
X0474000Y0194000D03*
X0474000Y0189000D03*
X0474000Y0184000D03*
X0474000Y0179000D03*
X0474000Y0174000D03*
X0474000Y0169000D03*
X0474000Y0164000D03*
X0474000Y0159000D03*
X0474000Y0154000D03*
X0474000Y0149000D03*
X0474000Y0144000D03*
X0474000Y0139000D03*
X0474000Y0134000D03*
X0474000Y0129000D03*
X0474000Y0124000D03*
X0474000Y0119000D03*
X0474000Y0114000D03*
X0474000Y0109000D03*
X0474000Y0104000D03*
X0474000Y0099000D03*
X0474000Y0094000D03*
X0474000Y0089000D03*
X0474000Y0084000D03*
X0474000Y0079000D03*
X0474000Y0074000D03*
X0474000Y0069000D03*
X0474000Y0064000D03*
X0474000Y0059000D03*
X0474000Y0054000D03*
X0474000Y0049000D03*
X0474000Y0044000D03*
X0474000Y0039000D03*
X0474000Y0034000D03*
X0474000Y0029000D03*
X0474000Y0024000D03*
X0474000Y0019000D03*
X0474000Y0014000D03*
X0475300Y0011500D03*
X0477700Y0011500D03*
X0476500Y0009000D03*
X0474000Y0009000D03*
X0479000Y0009000D03*
X0479000Y0014000D03*
X0479000Y0019000D03*
X0479000Y0024000D03*
X0479000Y0029000D03*
X0479000Y0034000D03*
X0479000Y0039000D03*
X0479000Y0044000D03*
X0479000Y0049000D03*
X0479000Y0054000D03*
X0479000Y0059000D03*
X0479000Y0064000D03*
X0479000Y0069000D03*
X0479000Y0074000D03*
X0479000Y0079000D03*
X0479000Y0084000D03*
X0479000Y0089000D03*
X0479000Y0094000D03*
X0479000Y0099000D03*
X0479000Y0104000D03*
X0479000Y0109000D03*
X0479000Y0114000D03*
X0479000Y0119000D03*
X0479000Y0124000D03*
X0479000Y0129000D03*
X0479000Y0134000D03*
X0479000Y0139000D03*
X0479000Y0144000D03*
X0479000Y0149000D03*
X0479000Y0154000D03*
X0479000Y0159000D03*
X0479000Y0164000D03*
X0479000Y0169000D03*
X0479000Y0174000D03*
X0479000Y0179000D03*
X0479000Y0184000D03*
X0479000Y0189000D03*
X0479000Y0194000D03*
X0479000Y0199000D03*
X0479000Y0204000D03*
X0479000Y0209000D03*
X0479000Y0214000D03*
X0479000Y0219000D03*
X0479000Y0224000D03*
X0479000Y0229000D03*
X0479000Y0234000D03*
X0479000Y0239000D03*
X0479000Y0244000D03*
X0479000Y0249000D03*
X0479000Y0254000D03*
X0479000Y0259000D03*
X0479000Y0264000D03*
X0479000Y0269000D03*
X0479000Y0274000D03*
X0479000Y0279000D03*
X0479000Y0284000D03*
X0479000Y0289000D03*
X0479000Y0294000D03*
X0479000Y0299000D03*
X0479000Y0304000D03*
X0479000Y0309000D03*
X0479000Y0314000D03*
X0479000Y0319000D03*
X0479000Y0324000D03*
X0479000Y0329000D03*
X0479000Y0334000D03*
X0479000Y0339000D03*
X0479000Y0344000D03*
X0479000Y0349000D03*
X0479000Y0354000D03*
X0479000Y0359000D03*
X0479000Y0364000D03*
X0479000Y0369000D03*
X0479000Y0374000D03*
X0479000Y0379000D03*
X0479000Y0384000D03*
X0479000Y0389000D03*
X0479000Y0394000D03*
X0479000Y0399000D03*
X0479000Y0404000D03*
X0479000Y0409000D03*
X0479000Y0414000D03*
X0479000Y0419000D03*
X0479000Y0424000D03*
X0479000Y0429000D03*
X0479000Y0434000D03*
X0479000Y0439000D03*
X0479000Y0444000D03*
X0479000Y0449000D03*
X0479000Y0454000D03*
X0479000Y0459000D03*
X0479000Y0464000D03*
X0479000Y0469000D03*
X0479000Y0474000D03*
X0479000Y0479000D03*
X0479000Y0484000D03*
X0479000Y0489000D03*
X0479000Y0494000D03*
X0479000Y0499000D03*
X0479000Y0504000D03*
X0479000Y0509000D03*
X0479000Y0514000D03*
X0479000Y0519000D03*
X0479000Y0524000D03*
X0479000Y0529000D03*
X0479000Y0534000D03*
X0479000Y0539000D03*
X0479000Y0544000D03*
X0479000Y0549000D03*
X0479000Y0554000D03*
X0479000Y0559000D03*
X0479000Y0564000D03*
X0479000Y0569000D03*
X0479000Y0574000D03*
X0479000Y0579000D03*
X0479000Y0584000D03*
X0479000Y0589000D03*
X0479000Y0594000D03*
X0479000Y0599000D03*
X0479000Y0604000D03*
X0479000Y0609000D03*
X0479000Y0614000D03*
X0479000Y0619000D03*
X0479000Y0624000D03*
X0479000Y0629000D03*
X0479000Y0634000D03*
X0479000Y0639000D03*
X0479000Y0644000D03*
X0474000Y0644000D03*
X0469000Y0644000D03*
X0459000Y0659000D03*
X0459000Y0664000D03*
X0454000Y0664000D03*
X0284000Y0629000D03*
X0284000Y0624000D03*
X0284000Y0619000D03*
D11*
X0238400Y0618400D02*
X0238400Y0657287D01*
X0237287Y0658400D01*
X0003400Y0658400D01*
X0003400Y0664600D01*
X0459600Y0664600D01*
X0459600Y0645713D01*
X0460713Y0644600D01*
X0462287Y0644600D01*
X0479600Y0644600D01*
X0479600Y0003400D01*
X0473400Y0003400D01*
X0473400Y0617287D01*
X0472287Y0618400D01*
X0238400Y0618400D01*
X0238400Y0618519D02*
X0479600Y0618519D01*
X0479600Y0617521D02*
X0473166Y0617521D01*
X0473400Y0616522D02*
X0479600Y0616522D01*
X0479600Y0615524D02*
X0473400Y0615524D01*
X0473400Y0614525D02*
X0479600Y0614525D01*
X0479600Y0613527D02*
X0473400Y0613527D01*
X0473400Y0612528D02*
X0479600Y0612528D01*
X0479600Y0611530D02*
X0473400Y0611530D01*
X0473400Y0610531D02*
X0479600Y0610531D01*
X0479600Y0609533D02*
X0473400Y0609533D01*
X0473400Y0608534D02*
X0479600Y0608534D01*
X0479600Y0607536D02*
X0473400Y0607536D01*
X0473400Y0606537D02*
X0479600Y0606537D01*
X0479600Y0605539D02*
X0473400Y0605539D01*
X0473400Y0604540D02*
X0479600Y0604540D01*
X0479600Y0603542D02*
X0473400Y0603542D01*
X0473400Y0602543D02*
X0479600Y0602543D01*
X0479600Y0601545D02*
X0473400Y0601545D01*
X0473400Y0600546D02*
X0479600Y0600546D01*
X0479600Y0599548D02*
X0473400Y0599548D01*
X0473400Y0598549D02*
X0479600Y0598549D01*
X0479600Y0597551D02*
X0473400Y0597551D01*
X0473400Y0596552D02*
X0479600Y0596552D01*
X0479600Y0595554D02*
X0473400Y0595554D01*
X0473400Y0594555D02*
X0479600Y0594555D01*
X0479600Y0593557D02*
X0473400Y0593557D01*
X0473400Y0592558D02*
X0479600Y0592558D01*
X0479600Y0591560D02*
X0473400Y0591560D01*
X0473400Y0590561D02*
X0479600Y0590561D01*
X0479600Y0589563D02*
X0473400Y0589563D01*
X0473400Y0588564D02*
X0479600Y0588564D01*
X0479600Y0587566D02*
X0473400Y0587566D01*
X0473400Y0586567D02*
X0479600Y0586567D01*
X0479600Y0585568D02*
X0473400Y0585568D01*
X0473400Y0584570D02*
X0479600Y0584570D01*
X0479600Y0583571D02*
X0473400Y0583571D01*
X0473400Y0582573D02*
X0479600Y0582573D01*
X0479600Y0581574D02*
X0473400Y0581574D01*
X0473400Y0580576D02*
X0479600Y0580576D01*
X0479600Y0579577D02*
X0473400Y0579577D01*
X0473400Y0578579D02*
X0479600Y0578579D01*
X0479600Y0577580D02*
X0473400Y0577580D01*
X0473400Y0576582D02*
X0479600Y0576582D01*
X0479600Y0575583D02*
X0473400Y0575583D01*
X0473400Y0574585D02*
X0479600Y0574585D01*
X0479600Y0573586D02*
X0473400Y0573586D01*
X0473400Y0572588D02*
X0479600Y0572588D01*
X0479600Y0571589D02*
X0473400Y0571589D01*
X0473400Y0570591D02*
X0479600Y0570591D01*
X0479600Y0569592D02*
X0473400Y0569592D01*
X0473400Y0568594D02*
X0479600Y0568594D01*
X0479600Y0567595D02*
X0473400Y0567595D01*
X0473400Y0566597D02*
X0479600Y0566597D01*
X0479600Y0565598D02*
X0473400Y0565598D01*
X0473400Y0564600D02*
X0479600Y0564600D01*
X0479600Y0563601D02*
X0473400Y0563601D01*
X0473400Y0562603D02*
X0479600Y0562603D01*
X0479600Y0561604D02*
X0473400Y0561604D01*
X0473400Y0560606D02*
X0479600Y0560606D01*
X0479600Y0559607D02*
X0473400Y0559607D01*
X0473400Y0558609D02*
X0479600Y0558609D01*
X0479600Y0557610D02*
X0473400Y0557610D01*
X0473400Y0556612D02*
X0479600Y0556612D01*
X0479600Y0555613D02*
X0473400Y0555613D01*
X0473400Y0554615D02*
X0479600Y0554615D01*
X0479600Y0553616D02*
X0473400Y0553616D01*
X0473400Y0552618D02*
X0479600Y0552618D01*
X0479600Y0551619D02*
X0473400Y0551619D01*
X0473400Y0550621D02*
X0479600Y0550621D01*
X0479600Y0549622D02*
X0473400Y0549622D01*
X0473400Y0548624D02*
X0479600Y0548624D01*
X0479600Y0547625D02*
X0473400Y0547625D01*
X0473400Y0546627D02*
X0479600Y0546627D01*
X0479600Y0545628D02*
X0473400Y0545628D01*
X0473400Y0544630D02*
X0479600Y0544630D01*
X0479600Y0543631D02*
X0473400Y0543631D01*
X0473400Y0542632D02*
X0479600Y0542632D01*
X0479600Y0541634D02*
X0473400Y0541634D01*
X0473400Y0540635D02*
X0479600Y0540635D01*
X0479600Y0539637D02*
X0473400Y0539637D01*
X0473400Y0538638D02*
X0479600Y0538638D01*
X0479600Y0537640D02*
X0473400Y0537640D01*
X0473400Y0536641D02*
X0479600Y0536641D01*
X0479600Y0535643D02*
X0473400Y0535643D01*
X0473400Y0534644D02*
X0479600Y0534644D01*
X0479600Y0533646D02*
X0473400Y0533646D01*
X0473400Y0532647D02*
X0479600Y0532647D01*
X0479600Y0531649D02*
X0473400Y0531649D01*
X0473400Y0530650D02*
X0479600Y0530650D01*
X0479600Y0529652D02*
X0473400Y0529652D01*
X0473400Y0528653D02*
X0479600Y0528653D01*
X0479600Y0527655D02*
X0473400Y0527655D01*
X0473400Y0526656D02*
X0479600Y0526656D01*
X0479600Y0525658D02*
X0473400Y0525658D01*
X0473400Y0524659D02*
X0479600Y0524659D01*
X0479600Y0523661D02*
X0473400Y0523661D01*
X0473400Y0522662D02*
X0479600Y0522662D01*
X0479600Y0521664D02*
X0473400Y0521664D01*
X0473400Y0520665D02*
X0479600Y0520665D01*
X0479600Y0519667D02*
X0473400Y0519667D01*
X0473400Y0518668D02*
X0479600Y0518668D01*
X0479600Y0517670D02*
X0473400Y0517670D01*
X0473400Y0516671D02*
X0479600Y0516671D01*
X0479600Y0515673D02*
X0473400Y0515673D01*
X0473400Y0514674D02*
X0479600Y0514674D01*
X0479600Y0513676D02*
X0473400Y0513676D01*
X0473400Y0512677D02*
X0479600Y0512677D01*
X0479600Y0511679D02*
X0473400Y0511679D01*
X0473400Y0510680D02*
X0479600Y0510680D01*
X0479600Y0509682D02*
X0473400Y0509682D01*
X0473400Y0508683D02*
X0479600Y0508683D01*
X0479600Y0507685D02*
X0473400Y0507685D01*
X0473400Y0506686D02*
X0479600Y0506686D01*
X0479600Y0505688D02*
X0473400Y0505688D01*
X0473400Y0504689D02*
X0479600Y0504689D01*
X0479600Y0503691D02*
X0473400Y0503691D01*
X0473400Y0502692D02*
X0479600Y0502692D01*
X0479600Y0501694D02*
X0473400Y0501694D01*
X0473400Y0500695D02*
X0479600Y0500695D01*
X0479600Y0499697D02*
X0473400Y0499697D01*
X0473400Y0498698D02*
X0479600Y0498698D01*
X0479600Y0497699D02*
X0473400Y0497699D01*
X0473400Y0496701D02*
X0479600Y0496701D01*
X0479600Y0495702D02*
X0473400Y0495702D01*
X0473400Y0494704D02*
X0479600Y0494704D01*
X0479600Y0493705D02*
X0473400Y0493705D01*
X0473400Y0492707D02*
X0479600Y0492707D01*
X0479600Y0491708D02*
X0473400Y0491708D01*
X0473400Y0490710D02*
X0479600Y0490710D01*
X0479600Y0489711D02*
X0473400Y0489711D01*
X0473400Y0488713D02*
X0479600Y0488713D01*
X0479600Y0487714D02*
X0473400Y0487714D01*
X0473400Y0486716D02*
X0479600Y0486716D01*
X0479600Y0485717D02*
X0473400Y0485717D01*
X0473400Y0484719D02*
X0479600Y0484719D01*
X0479600Y0483720D02*
X0473400Y0483720D01*
X0473400Y0482722D02*
X0479600Y0482722D01*
X0479600Y0481723D02*
X0473400Y0481723D01*
X0473400Y0480725D02*
X0479600Y0480725D01*
X0479600Y0479726D02*
X0473400Y0479726D01*
X0473400Y0478728D02*
X0479600Y0478728D01*
X0479600Y0477729D02*
X0473400Y0477729D01*
X0473400Y0476731D02*
X0479600Y0476731D01*
X0479600Y0475732D02*
X0473400Y0475732D01*
X0473400Y0474734D02*
X0479600Y0474734D01*
X0479600Y0473735D02*
X0473400Y0473735D01*
X0473400Y0472737D02*
X0479600Y0472737D01*
X0479600Y0471738D02*
X0473400Y0471738D01*
X0473400Y0470740D02*
X0479600Y0470740D01*
X0479600Y0469741D02*
X0473400Y0469741D01*
X0473400Y0468743D02*
X0479600Y0468743D01*
X0479600Y0467744D02*
X0473400Y0467744D01*
X0473400Y0466746D02*
X0479600Y0466746D01*
X0479600Y0465747D02*
X0473400Y0465747D01*
X0473400Y0464749D02*
X0479600Y0464749D01*
X0479600Y0463750D02*
X0473400Y0463750D01*
X0473400Y0462752D02*
X0479600Y0462752D01*
X0479600Y0461753D02*
X0473400Y0461753D01*
X0473400Y0460755D02*
X0479600Y0460755D01*
X0479600Y0459756D02*
X0473400Y0459756D01*
X0473400Y0458758D02*
X0479600Y0458758D01*
X0479600Y0457759D02*
X0473400Y0457759D01*
X0473400Y0456761D02*
X0479600Y0456761D01*
X0479600Y0455762D02*
X0473400Y0455762D01*
X0473400Y0454763D02*
X0479600Y0454763D01*
X0479600Y0453765D02*
X0473400Y0453765D01*
X0473400Y0452766D02*
X0479600Y0452766D01*
X0479600Y0451768D02*
X0473400Y0451768D01*
X0473400Y0450769D02*
X0479600Y0450769D01*
X0479600Y0449771D02*
X0473400Y0449771D01*
X0473400Y0448772D02*
X0479600Y0448772D01*
X0479600Y0447774D02*
X0473400Y0447774D01*
X0473400Y0446775D02*
X0479600Y0446775D01*
X0479600Y0445777D02*
X0473400Y0445777D01*
X0473400Y0444778D02*
X0479600Y0444778D01*
X0479600Y0443780D02*
X0473400Y0443780D01*
X0473400Y0442781D02*
X0479600Y0442781D01*
X0479600Y0441783D02*
X0473400Y0441783D01*
X0473400Y0440784D02*
X0479600Y0440784D01*
X0479600Y0439786D02*
X0473400Y0439786D01*
X0473400Y0438787D02*
X0479600Y0438787D01*
X0479600Y0437789D02*
X0473400Y0437789D01*
X0473400Y0436790D02*
X0479600Y0436790D01*
X0479600Y0435792D02*
X0473400Y0435792D01*
X0473400Y0434793D02*
X0479600Y0434793D01*
X0479600Y0433795D02*
X0473400Y0433795D01*
X0473400Y0432796D02*
X0479600Y0432796D01*
X0479600Y0431798D02*
X0473400Y0431798D01*
X0473400Y0430799D02*
X0479600Y0430799D01*
X0479600Y0429801D02*
X0473400Y0429801D01*
X0473400Y0428802D02*
X0479600Y0428802D01*
X0479600Y0427804D02*
X0473400Y0427804D01*
X0473400Y0426805D02*
X0479600Y0426805D01*
X0479600Y0425807D02*
X0473400Y0425807D01*
X0473400Y0424808D02*
X0479600Y0424808D01*
X0479600Y0423810D02*
X0473400Y0423810D01*
X0473400Y0422811D02*
X0479600Y0422811D01*
X0479600Y0421813D02*
X0473400Y0421813D01*
X0473400Y0420814D02*
X0479600Y0420814D01*
X0479600Y0419816D02*
X0473400Y0419816D01*
X0473400Y0418817D02*
X0479600Y0418817D01*
X0479600Y0417819D02*
X0473400Y0417819D01*
X0473400Y0416820D02*
X0479600Y0416820D01*
X0479600Y0415822D02*
X0473400Y0415822D01*
X0473400Y0414823D02*
X0479600Y0414823D01*
X0479600Y0413825D02*
X0473400Y0413825D01*
X0473400Y0412826D02*
X0479600Y0412826D01*
X0479600Y0411828D02*
X0473400Y0411828D01*
X0473400Y0410829D02*
X0479600Y0410829D01*
X0479600Y0409830D02*
X0473400Y0409830D01*
X0473400Y0408832D02*
X0479600Y0408832D01*
X0479600Y0407833D02*
X0473400Y0407833D01*
X0473400Y0406835D02*
X0479600Y0406835D01*
X0479600Y0405836D02*
X0473400Y0405836D01*
X0473400Y0404838D02*
X0479600Y0404838D01*
X0479600Y0403839D02*
X0473400Y0403839D01*
X0473400Y0402841D02*
X0479600Y0402841D01*
X0479600Y0401842D02*
X0473400Y0401842D01*
X0473400Y0400844D02*
X0479600Y0400844D01*
X0479600Y0399845D02*
X0473400Y0399845D01*
X0473400Y0398847D02*
X0479600Y0398847D01*
X0479600Y0397848D02*
X0473400Y0397848D01*
X0473400Y0396850D02*
X0479600Y0396850D01*
X0479600Y0395851D02*
X0473400Y0395851D01*
X0473400Y0394853D02*
X0479600Y0394853D01*
X0479600Y0393854D02*
X0473400Y0393854D01*
X0473400Y0392856D02*
X0479600Y0392856D01*
X0479600Y0391857D02*
X0473400Y0391857D01*
X0473400Y0390859D02*
X0479600Y0390859D01*
X0479600Y0389860D02*
X0473400Y0389860D01*
X0473400Y0388862D02*
X0479600Y0388862D01*
X0479600Y0387863D02*
X0473400Y0387863D01*
X0473400Y0386865D02*
X0479600Y0386865D01*
X0479600Y0385866D02*
X0473400Y0385866D01*
X0473400Y0384868D02*
X0479600Y0384868D01*
X0479600Y0383869D02*
X0473400Y0383869D01*
X0473400Y0382871D02*
X0479600Y0382871D01*
X0479600Y0381872D02*
X0473400Y0381872D01*
X0473400Y0380874D02*
X0479600Y0380874D01*
X0479600Y0379875D02*
X0473400Y0379875D01*
X0473400Y0378877D02*
X0479600Y0378877D01*
X0479600Y0377878D02*
X0473400Y0377878D01*
X0473400Y0376880D02*
X0479600Y0376880D01*
X0479600Y0375881D02*
X0473400Y0375881D01*
X0473400Y0374883D02*
X0479600Y0374883D01*
X0479600Y0373884D02*
X0473400Y0373884D01*
X0473400Y0372886D02*
X0479600Y0372886D01*
X0479600Y0371887D02*
X0473400Y0371887D01*
X0473400Y0370889D02*
X0479600Y0370889D01*
X0479600Y0369890D02*
X0473400Y0369890D01*
X0473400Y0368892D02*
X0479600Y0368892D01*
X0479600Y0367893D02*
X0473400Y0367893D01*
X0473400Y0366895D02*
X0479600Y0366895D01*
X0479600Y0365896D02*
X0473400Y0365896D01*
X0473400Y0364897D02*
X0479600Y0364897D01*
X0479600Y0363899D02*
X0473400Y0363899D01*
X0473400Y0362900D02*
X0479600Y0362900D01*
X0479600Y0361902D02*
X0473400Y0361902D01*
X0473400Y0360903D02*
X0479600Y0360903D01*
X0479600Y0359905D02*
X0473400Y0359905D01*
X0473400Y0358906D02*
X0479600Y0358906D01*
X0479600Y0357908D02*
X0473400Y0357908D01*
X0473400Y0356909D02*
X0479600Y0356909D01*
X0479600Y0355911D02*
X0473400Y0355911D01*
X0473400Y0354912D02*
X0479600Y0354912D01*
X0479600Y0353914D02*
X0473400Y0353914D01*
X0473400Y0352915D02*
X0479600Y0352915D01*
X0479600Y0351917D02*
X0473400Y0351917D01*
X0473400Y0350918D02*
X0479600Y0350918D01*
X0479600Y0349920D02*
X0473400Y0349920D01*
X0473400Y0348921D02*
X0479600Y0348921D01*
X0479600Y0347923D02*
X0473400Y0347923D01*
X0473400Y0346924D02*
X0479600Y0346924D01*
X0479600Y0345926D02*
X0473400Y0345926D01*
X0473400Y0344927D02*
X0479600Y0344927D01*
X0479600Y0343929D02*
X0473400Y0343929D01*
X0473400Y0342930D02*
X0479600Y0342930D01*
X0479600Y0341932D02*
X0473400Y0341932D01*
X0473400Y0340933D02*
X0479600Y0340933D01*
X0479600Y0339935D02*
X0473400Y0339935D01*
X0473400Y0338936D02*
X0479600Y0338936D01*
X0479600Y0337938D02*
X0473400Y0337938D01*
X0473400Y0336939D02*
X0479600Y0336939D01*
X0479600Y0335941D02*
X0473400Y0335941D01*
X0473400Y0334942D02*
X0479600Y0334942D01*
X0479600Y0333944D02*
X0473400Y0333944D01*
X0473400Y0332945D02*
X0479600Y0332945D01*
X0479600Y0331947D02*
X0473400Y0331947D01*
X0473400Y0330948D02*
X0479600Y0330948D01*
X0479600Y0329950D02*
X0473400Y0329950D01*
X0473400Y0328951D02*
X0479600Y0328951D01*
X0479600Y0327953D02*
X0473400Y0327953D01*
X0473400Y0326954D02*
X0479600Y0326954D01*
X0479600Y0325956D02*
X0473400Y0325956D01*
X0473400Y0324957D02*
X0479600Y0324957D01*
X0479600Y0323959D02*
X0473400Y0323959D01*
X0473400Y0322960D02*
X0479600Y0322960D01*
X0479600Y0321961D02*
X0473400Y0321961D01*
X0473400Y0320963D02*
X0479600Y0320963D01*
X0479600Y0319964D02*
X0473400Y0319964D01*
X0473400Y0318966D02*
X0479600Y0318966D01*
X0479600Y0317967D02*
X0473400Y0317967D01*
X0473400Y0316969D02*
X0479600Y0316969D01*
X0479600Y0315970D02*
X0473400Y0315970D01*
X0473400Y0314972D02*
X0479600Y0314972D01*
X0479600Y0313973D02*
X0473400Y0313973D01*
X0473400Y0312975D02*
X0479600Y0312975D01*
X0479600Y0311976D02*
X0473400Y0311976D01*
X0473400Y0310978D02*
X0479600Y0310978D01*
X0479600Y0309979D02*
X0473400Y0309979D01*
X0473400Y0308981D02*
X0479600Y0308981D01*
X0479600Y0307982D02*
X0473400Y0307982D01*
X0473400Y0306984D02*
X0479600Y0306984D01*
X0479600Y0305985D02*
X0473400Y0305985D01*
X0473400Y0304987D02*
X0479600Y0304987D01*
X0479600Y0303988D02*
X0473400Y0303988D01*
X0473400Y0302990D02*
X0479600Y0302990D01*
X0479600Y0301991D02*
X0473400Y0301991D01*
X0473400Y0300993D02*
X0479600Y0300993D01*
X0479600Y0299994D02*
X0473400Y0299994D01*
X0473400Y0298996D02*
X0479600Y0298996D01*
X0479600Y0297997D02*
X0473400Y0297997D01*
X0473400Y0296999D02*
X0479600Y0296999D01*
X0479600Y0296000D02*
X0473400Y0296000D01*
X0473400Y0295002D02*
X0479600Y0295002D01*
X0479600Y0294003D02*
X0473400Y0294003D01*
X0473400Y0293005D02*
X0479600Y0293005D01*
X0479600Y0292006D02*
X0473400Y0292006D01*
X0473400Y0291008D02*
X0479600Y0291008D01*
X0479600Y0290009D02*
X0473400Y0290009D01*
X0473400Y0289011D02*
X0479600Y0289011D01*
X0479600Y0288012D02*
X0473400Y0288012D01*
X0473400Y0287014D02*
X0479600Y0287014D01*
X0479600Y0286015D02*
X0473400Y0286015D01*
X0473400Y0285017D02*
X0479600Y0285017D01*
X0479600Y0284018D02*
X0473400Y0284018D01*
X0473400Y0283020D02*
X0479600Y0283020D01*
X0479600Y0282021D02*
X0473400Y0282021D01*
X0473400Y0281023D02*
X0479600Y0281023D01*
X0479600Y0280024D02*
X0473400Y0280024D01*
X0473400Y0279026D02*
X0479600Y0279026D01*
X0479600Y0278027D02*
X0473400Y0278027D01*
X0473400Y0277028D02*
X0479600Y0277028D01*
X0479600Y0276030D02*
X0473400Y0276030D01*
X0473400Y0275031D02*
X0479600Y0275031D01*
X0479600Y0274033D02*
X0473400Y0274033D01*
X0473400Y0273034D02*
X0479600Y0273034D01*
X0479600Y0272036D02*
X0473400Y0272036D01*
X0473400Y0271037D02*
X0479600Y0271037D01*
X0479600Y0270039D02*
X0473400Y0270039D01*
X0473400Y0269040D02*
X0479600Y0269040D01*
X0479600Y0268042D02*
X0473400Y0268042D01*
X0473400Y0267043D02*
X0479600Y0267043D01*
X0479600Y0266045D02*
X0473400Y0266045D01*
X0473400Y0265046D02*
X0479600Y0265046D01*
X0479600Y0264048D02*
X0473400Y0264048D01*
X0473400Y0263049D02*
X0479600Y0263049D01*
X0479600Y0262051D02*
X0473400Y0262051D01*
X0473400Y0261052D02*
X0479600Y0261052D01*
X0479600Y0260054D02*
X0473400Y0260054D01*
X0473400Y0259055D02*
X0479600Y0259055D01*
X0479600Y0258057D02*
X0473400Y0258057D01*
X0473400Y0257058D02*
X0479600Y0257058D01*
X0479600Y0256060D02*
X0473400Y0256060D01*
X0473400Y0255061D02*
X0479600Y0255061D01*
X0479600Y0254063D02*
X0473400Y0254063D01*
X0473400Y0253064D02*
X0479600Y0253064D01*
X0479600Y0252066D02*
X0473400Y0252066D01*
X0473400Y0251067D02*
X0479600Y0251067D01*
X0479600Y0250069D02*
X0473400Y0250069D01*
X0473400Y0249070D02*
X0479600Y0249070D01*
X0479600Y0248072D02*
X0473400Y0248072D01*
X0473400Y0247073D02*
X0479600Y0247073D01*
X0479600Y0246075D02*
X0473400Y0246075D01*
X0473400Y0245076D02*
X0479600Y0245076D01*
X0479600Y0244078D02*
X0473400Y0244078D01*
X0473400Y0243079D02*
X0479600Y0243079D01*
X0479600Y0242081D02*
X0473400Y0242081D01*
X0473400Y0241082D02*
X0479600Y0241082D01*
X0479600Y0240084D02*
X0473400Y0240084D01*
X0473400Y0239085D02*
X0479600Y0239085D01*
X0479600Y0238087D02*
X0473400Y0238087D01*
X0473400Y0237088D02*
X0479600Y0237088D01*
X0479600Y0236090D02*
X0473400Y0236090D01*
X0473400Y0235091D02*
X0479600Y0235091D01*
X0479600Y0234092D02*
X0473400Y0234092D01*
X0473400Y0233094D02*
X0479600Y0233094D01*
X0479600Y0232095D02*
X0473400Y0232095D01*
X0473400Y0231097D02*
X0479600Y0231097D01*
X0479600Y0230098D02*
X0473400Y0230098D01*
X0473400Y0229100D02*
X0479600Y0229100D01*
X0479600Y0228101D02*
X0473400Y0228101D01*
X0473400Y0227103D02*
X0479600Y0227103D01*
X0479600Y0226104D02*
X0473400Y0226104D01*
X0473400Y0225106D02*
X0479600Y0225106D01*
X0479600Y0224107D02*
X0473400Y0224107D01*
X0473400Y0223109D02*
X0479600Y0223109D01*
X0479600Y0222110D02*
X0473400Y0222110D01*
X0473400Y0221112D02*
X0479600Y0221112D01*
X0479600Y0220113D02*
X0473400Y0220113D01*
X0473400Y0219115D02*
X0479600Y0219115D01*
X0479600Y0218116D02*
X0473400Y0218116D01*
X0473400Y0217118D02*
X0479600Y0217118D01*
X0479600Y0216119D02*
X0473400Y0216119D01*
X0473400Y0215121D02*
X0479600Y0215121D01*
X0479600Y0214122D02*
X0473400Y0214122D01*
X0473400Y0213124D02*
X0479600Y0213124D01*
X0479600Y0212125D02*
X0473400Y0212125D01*
X0473400Y0211127D02*
X0479600Y0211127D01*
X0479600Y0210128D02*
X0473400Y0210128D01*
X0473400Y0209130D02*
X0479600Y0209130D01*
X0479600Y0208131D02*
X0473400Y0208131D01*
X0473400Y0207133D02*
X0479600Y0207133D01*
X0479600Y0206134D02*
X0473400Y0206134D01*
X0473400Y0205136D02*
X0479600Y0205136D01*
X0479600Y0204137D02*
X0473400Y0204137D01*
X0473400Y0203139D02*
X0479600Y0203139D01*
X0479600Y0202140D02*
X0473400Y0202140D01*
X0473400Y0201142D02*
X0479600Y0201142D01*
X0479600Y0200143D02*
X0473400Y0200143D01*
X0473400Y0199145D02*
X0479600Y0199145D01*
X0479600Y0198146D02*
X0473400Y0198146D01*
X0473400Y0197148D02*
X0479600Y0197148D01*
X0479600Y0196149D02*
X0473400Y0196149D01*
X0473400Y0195151D02*
X0479600Y0195151D01*
X0479600Y0194152D02*
X0473400Y0194152D01*
X0473400Y0193154D02*
X0479600Y0193154D01*
X0479600Y0192155D02*
X0473400Y0192155D01*
X0473400Y0191157D02*
X0479600Y0191157D01*
X0479600Y0190158D02*
X0473400Y0190158D01*
X0473400Y0189159D02*
X0479600Y0189159D01*
X0479600Y0188161D02*
X0473400Y0188161D01*
X0473400Y0187162D02*
X0479600Y0187162D01*
X0479600Y0186164D02*
X0473400Y0186164D01*
X0473400Y0185165D02*
X0479600Y0185165D01*
X0479600Y0184167D02*
X0473400Y0184167D01*
X0473400Y0183168D02*
X0479600Y0183168D01*
X0479600Y0182170D02*
X0473400Y0182170D01*
X0473400Y0181171D02*
X0479600Y0181171D01*
X0479600Y0180173D02*
X0473400Y0180173D01*
X0473400Y0179174D02*
X0479600Y0179174D01*
X0479600Y0178176D02*
X0473400Y0178176D01*
X0473400Y0177177D02*
X0479600Y0177177D01*
X0479600Y0176179D02*
X0473400Y0176179D01*
X0473400Y0175180D02*
X0479600Y0175180D01*
X0479600Y0174182D02*
X0473400Y0174182D01*
X0473400Y0173183D02*
X0479600Y0173183D01*
X0479600Y0172185D02*
X0473400Y0172185D01*
X0473400Y0171186D02*
X0479600Y0171186D01*
X0479600Y0170188D02*
X0473400Y0170188D01*
X0473400Y0169189D02*
X0479600Y0169189D01*
X0479600Y0168191D02*
X0473400Y0168191D01*
X0473400Y0167192D02*
X0479600Y0167192D01*
X0479600Y0166194D02*
X0473400Y0166194D01*
X0473400Y0165195D02*
X0479600Y0165195D01*
X0479600Y0164197D02*
X0473400Y0164197D01*
X0473400Y0163198D02*
X0479600Y0163198D01*
X0479600Y0162200D02*
X0473400Y0162200D01*
X0473400Y0161201D02*
X0479600Y0161201D01*
X0479600Y0160203D02*
X0473400Y0160203D01*
X0473400Y0159204D02*
X0479600Y0159204D01*
X0479600Y0158206D02*
X0473400Y0158206D01*
X0473400Y0157207D02*
X0479600Y0157207D01*
X0479600Y0156209D02*
X0473400Y0156209D01*
X0473400Y0155210D02*
X0479600Y0155210D01*
X0479600Y0154212D02*
X0473400Y0154212D01*
X0473400Y0153213D02*
X0479600Y0153213D01*
X0479600Y0152215D02*
X0473400Y0152215D01*
X0473400Y0151216D02*
X0479600Y0151216D01*
X0479600Y0150218D02*
X0473400Y0150218D01*
X0473400Y0149219D02*
X0479600Y0149219D01*
X0479600Y0148221D02*
X0473400Y0148221D01*
X0473400Y0147222D02*
X0479600Y0147222D01*
X0479600Y0146223D02*
X0473400Y0146223D01*
X0473400Y0145225D02*
X0479600Y0145225D01*
X0479600Y0144226D02*
X0473400Y0144226D01*
X0473400Y0143228D02*
X0479600Y0143228D01*
X0479600Y0142229D02*
X0473400Y0142229D01*
X0473400Y0141231D02*
X0479600Y0141231D01*
X0479600Y0140232D02*
X0473400Y0140232D01*
X0473400Y0139234D02*
X0479600Y0139234D01*
X0479600Y0138235D02*
X0473400Y0138235D01*
X0473400Y0137237D02*
X0479600Y0137237D01*
X0479600Y0136238D02*
X0473400Y0136238D01*
X0473400Y0135240D02*
X0479600Y0135240D01*
X0479600Y0134241D02*
X0473400Y0134241D01*
X0473400Y0133243D02*
X0479600Y0133243D01*
X0479600Y0132244D02*
X0473400Y0132244D01*
X0473400Y0131246D02*
X0479600Y0131246D01*
X0479600Y0130247D02*
X0473400Y0130247D01*
X0473400Y0129249D02*
X0479600Y0129249D01*
X0479600Y0128250D02*
X0473400Y0128250D01*
X0473400Y0127252D02*
X0479600Y0127252D01*
X0479600Y0126253D02*
X0473400Y0126253D01*
X0473400Y0125255D02*
X0479600Y0125255D01*
X0479600Y0124256D02*
X0473400Y0124256D01*
X0473400Y0123258D02*
X0479600Y0123258D01*
X0479600Y0122259D02*
X0473400Y0122259D01*
X0473400Y0121261D02*
X0479600Y0121261D01*
X0479600Y0120262D02*
X0473400Y0120262D01*
X0473400Y0119264D02*
X0479600Y0119264D01*
X0479600Y0118265D02*
X0473400Y0118265D01*
X0473400Y0117267D02*
X0479600Y0117267D01*
X0479600Y0116268D02*
X0473400Y0116268D01*
X0473400Y0115270D02*
X0479600Y0115270D01*
X0479600Y0114271D02*
X0473400Y0114271D01*
X0473400Y0113273D02*
X0479600Y0113273D01*
X0479600Y0112274D02*
X0473400Y0112274D01*
X0473400Y0111276D02*
X0479600Y0111276D01*
X0479600Y0110277D02*
X0473400Y0110277D01*
X0473400Y0109279D02*
X0479600Y0109279D01*
X0479600Y0108280D02*
X0473400Y0108280D01*
X0473400Y0107282D02*
X0479600Y0107282D01*
X0479600Y0106283D02*
X0473400Y0106283D01*
X0473400Y0105285D02*
X0479600Y0105285D01*
X0479600Y0104286D02*
X0473400Y0104286D01*
X0473400Y0103288D02*
X0479600Y0103288D01*
X0479600Y0102289D02*
X0473400Y0102289D01*
X0473400Y0101290D02*
X0479600Y0101290D01*
X0479600Y0100292D02*
X0473400Y0100292D01*
X0473400Y0099293D02*
X0479600Y0099293D01*
X0479600Y0098295D02*
X0473400Y0098295D01*
X0473400Y0097296D02*
X0479600Y0097296D01*
X0479600Y0096298D02*
X0473400Y0096298D01*
X0473400Y0095299D02*
X0479600Y0095299D01*
X0479600Y0094301D02*
X0473400Y0094301D01*
X0473400Y0093302D02*
X0479600Y0093302D01*
X0479600Y0092304D02*
X0473400Y0092304D01*
X0473400Y0091305D02*
X0479600Y0091305D01*
X0479600Y0090307D02*
X0473400Y0090307D01*
X0473400Y0089308D02*
X0479600Y0089308D01*
X0479600Y0088310D02*
X0473400Y0088310D01*
X0473400Y0087311D02*
X0479600Y0087311D01*
X0479600Y0086313D02*
X0473400Y0086313D01*
X0473400Y0085314D02*
X0479600Y0085314D01*
X0479600Y0084316D02*
X0473400Y0084316D01*
X0473400Y0083317D02*
X0479600Y0083317D01*
X0479600Y0082319D02*
X0473400Y0082319D01*
X0473400Y0081320D02*
X0479600Y0081320D01*
X0479600Y0080322D02*
X0473400Y0080322D01*
X0473400Y0079323D02*
X0479600Y0079323D01*
X0479600Y0078325D02*
X0473400Y0078325D01*
X0473400Y0077326D02*
X0479600Y0077326D01*
X0479600Y0076328D02*
X0473400Y0076328D01*
X0473400Y0075329D02*
X0479600Y0075329D01*
X0479600Y0074331D02*
X0473400Y0074331D01*
X0473400Y0073332D02*
X0479600Y0073332D01*
X0479600Y0072334D02*
X0473400Y0072334D01*
X0473400Y0071335D02*
X0479600Y0071335D01*
X0479600Y0070337D02*
X0473400Y0070337D01*
X0473400Y0069338D02*
X0479600Y0069338D01*
X0479600Y0068340D02*
X0473400Y0068340D01*
X0473400Y0067341D02*
X0479600Y0067341D01*
X0479600Y0066343D02*
X0473400Y0066343D01*
X0473400Y0065344D02*
X0479600Y0065344D01*
X0479600Y0064346D02*
X0473400Y0064346D01*
X0473400Y0063347D02*
X0479600Y0063347D01*
X0479600Y0062349D02*
X0473400Y0062349D01*
X0473400Y0061350D02*
X0479600Y0061350D01*
X0479600Y0060352D02*
X0473400Y0060352D01*
X0473400Y0059353D02*
X0479600Y0059353D01*
X0479600Y0058355D02*
X0473400Y0058355D01*
X0473400Y0057356D02*
X0479600Y0057356D01*
X0479600Y0056357D02*
X0473400Y0056357D01*
X0473400Y0055359D02*
X0479600Y0055359D01*
X0479600Y0054360D02*
X0473400Y0054360D01*
X0473400Y0053362D02*
X0479600Y0053362D01*
X0479600Y0052363D02*
X0473400Y0052363D01*
X0473400Y0051365D02*
X0479600Y0051365D01*
X0479600Y0050366D02*
X0473400Y0050366D01*
X0473400Y0049368D02*
X0479600Y0049368D01*
X0479600Y0048369D02*
X0473400Y0048369D01*
X0473400Y0047371D02*
X0479600Y0047371D01*
X0479600Y0046372D02*
X0473400Y0046372D01*
X0473400Y0045374D02*
X0479600Y0045374D01*
X0479600Y0044375D02*
X0473400Y0044375D01*
X0473400Y0043377D02*
X0479600Y0043377D01*
X0479600Y0042378D02*
X0473400Y0042378D01*
X0473400Y0041380D02*
X0479600Y0041380D01*
X0479600Y0040381D02*
X0473400Y0040381D01*
X0473400Y0039383D02*
X0479600Y0039383D01*
X0479600Y0038384D02*
X0473400Y0038384D01*
X0473400Y0037386D02*
X0479600Y0037386D01*
X0479600Y0036387D02*
X0473400Y0036387D01*
X0473400Y0035389D02*
X0479600Y0035389D01*
X0479600Y0034390D02*
X0473400Y0034390D01*
X0473400Y0033392D02*
X0479600Y0033392D01*
X0479600Y0032393D02*
X0473400Y0032393D01*
X0473400Y0031395D02*
X0479600Y0031395D01*
X0479600Y0030396D02*
X0473400Y0030396D01*
X0473400Y0029398D02*
X0479600Y0029398D01*
X0479600Y0028399D02*
X0473400Y0028399D01*
X0473400Y0027401D02*
X0479600Y0027401D01*
X0479600Y0026402D02*
X0473400Y0026402D01*
X0473400Y0025404D02*
X0479600Y0025404D01*
X0479600Y0024405D02*
X0473400Y0024405D01*
X0473400Y0023407D02*
X0479600Y0023407D01*
X0479600Y0022408D02*
X0473400Y0022408D01*
X0473400Y0021410D02*
X0479600Y0021410D01*
X0479600Y0020411D02*
X0473400Y0020411D01*
X0473400Y0019413D02*
X0479600Y0019413D01*
X0479600Y0018414D02*
X0473400Y0018414D01*
X0473400Y0017416D02*
X0479600Y0017416D01*
X0479600Y0016417D02*
X0473400Y0016417D01*
X0473400Y0015419D02*
X0479600Y0015419D01*
X0479600Y0014420D02*
X0473400Y0014420D01*
X0473400Y0013421D02*
X0479600Y0013421D01*
X0479600Y0012423D02*
X0479464Y0012423D01*
X0479600Y0012287D02*
X0478487Y0013400D01*
X0476913Y0013400D01*
X0476500Y0012987D01*
X0476087Y0013400D01*
X0474513Y0013400D01*
X0473400Y0012287D01*
X0473400Y0010713D01*
X0474513Y0009600D01*
X0476087Y0009600D01*
X0476500Y0010013D01*
X0476913Y0009600D01*
X0478487Y0009600D01*
X0479600Y0010713D01*
X0479600Y0012287D01*
X0479600Y0011424D02*
X0479600Y0011424D01*
X0479600Y0010426D02*
X0479313Y0010426D01*
X0479600Y0009427D02*
X0473400Y0009427D01*
X0473400Y0008429D02*
X0479600Y0008429D01*
X0479600Y0007430D02*
X0473400Y0007430D01*
X0473400Y0006432D02*
X0479600Y0006432D01*
X0479600Y0005433D02*
X0473400Y0005433D01*
X0473400Y0004435D02*
X0479600Y0004435D01*
X0479600Y0003436D02*
X0473400Y0003436D01*
X0473400Y0010426D02*
X0473687Y0010426D01*
X0473400Y0011424D02*
X0473400Y0011424D01*
X0473400Y0012423D02*
X0473536Y0012423D01*
X0479600Y0619518D02*
X0434399Y0619518D01*
X0434331Y0619450D02*
X0434800Y0619919D01*
X0434800Y0620581D01*
X0434800Y0636370D01*
X0434864Y0636561D01*
X0434800Y0636689D01*
X0434800Y0636831D01*
X0434657Y0636974D01*
X0432241Y0641807D01*
X0432154Y0642067D01*
X0432096Y0642096D01*
X0432067Y0642154D01*
X0431807Y0642241D01*
X0431561Y0642364D01*
X0431500Y0642343D01*
X0431439Y0642364D01*
X0431193Y0642241D01*
X0430933Y0642154D01*
X0430904Y0642096D01*
X0430846Y0642067D01*
X0430759Y0641807D01*
X0428343Y0636974D01*
X0428200Y0636831D01*
X0428200Y0636689D01*
X0428136Y0636561D01*
X0428200Y0636370D01*
X0428200Y0619919D01*
X0428669Y0619450D01*
X0434331Y0619450D01*
X0434800Y0620516D02*
X0479600Y0620516D01*
X0479600Y0621515D02*
X0434800Y0621515D01*
X0434800Y0622513D02*
X0479600Y0622513D01*
X0479600Y0623512D02*
X0434800Y0623512D01*
X0434800Y0624510D02*
X0479600Y0624510D01*
X0479600Y0625509D02*
X0434800Y0625509D01*
X0434800Y0626507D02*
X0479600Y0626507D01*
X0479600Y0627506D02*
X0434800Y0627506D01*
X0434800Y0628504D02*
X0479600Y0628504D01*
X0479600Y0629503D02*
X0434800Y0629503D01*
X0434800Y0630501D02*
X0479600Y0630501D01*
X0479600Y0631500D02*
X0434800Y0631500D01*
X0434800Y0632499D02*
X0479600Y0632499D01*
X0479600Y0633497D02*
X0434800Y0633497D01*
X0434800Y0634496D02*
X0479600Y0634496D01*
X0479600Y0635494D02*
X0434800Y0635494D01*
X0434841Y0636493D02*
X0479600Y0636493D01*
X0479600Y0637491D02*
X0434399Y0637491D01*
X0433900Y0638490D02*
X0479600Y0638490D01*
X0479600Y0639488D02*
X0433400Y0639488D01*
X0432901Y0640487D02*
X0479600Y0640487D01*
X0479600Y0641485D02*
X0432402Y0641485D01*
X0430598Y0641485D02*
X0382402Y0641485D01*
X0382241Y0641807D02*
X0382154Y0642067D01*
X0382096Y0642096D01*
X0382067Y0642154D01*
X0381807Y0642241D01*
X0381561Y0642364D01*
X0381500Y0642343D01*
X0381439Y0642364D01*
X0381193Y0642241D01*
X0380933Y0642154D01*
X0380904Y0642096D01*
X0380846Y0642067D01*
X0380759Y0641807D01*
X0378343Y0636974D01*
X0378200Y0636831D01*
X0378200Y0636689D01*
X0378136Y0636561D01*
X0378200Y0636370D01*
X0378200Y0619919D01*
X0378669Y0619450D01*
X0384331Y0619450D01*
X0384800Y0619919D01*
X0384800Y0620581D01*
X0384800Y0636370D01*
X0384864Y0636561D01*
X0384800Y0636689D01*
X0384800Y0636831D01*
X0384657Y0636974D01*
X0382241Y0641807D01*
X0382901Y0640487D02*
X0430099Y0640487D01*
X0429600Y0639488D02*
X0383400Y0639488D01*
X0383900Y0638490D02*
X0429100Y0638490D01*
X0428601Y0637491D02*
X0384399Y0637491D01*
X0384841Y0636493D02*
X0428159Y0636493D01*
X0428200Y0635494D02*
X0384800Y0635494D01*
X0384800Y0634496D02*
X0428200Y0634496D01*
X0428200Y0633497D02*
X0384800Y0633497D01*
X0384800Y0632499D02*
X0428200Y0632499D01*
X0428200Y0631500D02*
X0384800Y0631500D01*
X0384800Y0630501D02*
X0428200Y0630501D01*
X0428200Y0629503D02*
X0384800Y0629503D01*
X0384800Y0628504D02*
X0428200Y0628504D01*
X0428200Y0627506D02*
X0384800Y0627506D01*
X0384800Y0626507D02*
X0428200Y0626507D01*
X0428200Y0625509D02*
X0384800Y0625509D01*
X0384800Y0624510D02*
X0428200Y0624510D01*
X0428200Y0623512D02*
X0384800Y0623512D01*
X0384800Y0622513D02*
X0428200Y0622513D01*
X0428200Y0621515D02*
X0384800Y0621515D01*
X0384800Y0620516D02*
X0428200Y0620516D01*
X0428601Y0619518D02*
X0384399Y0619518D01*
X0378601Y0619518D02*
X0324399Y0619518D01*
X0324331Y0619450D02*
X0324800Y0619919D01*
X0324800Y0620581D01*
X0324800Y0636370D01*
X0324864Y0636561D01*
X0324800Y0636689D01*
X0324800Y0636831D01*
X0324657Y0636974D01*
X0322241Y0641807D01*
X0322154Y0642067D01*
X0322096Y0642096D01*
X0322067Y0642154D01*
X0321807Y0642241D01*
X0321561Y0642364D01*
X0321500Y0642343D01*
X0321439Y0642364D01*
X0321193Y0642241D01*
X0320933Y0642154D01*
X0320904Y0642096D01*
X0320846Y0642067D01*
X0320759Y0641807D01*
X0318343Y0636974D01*
X0318200Y0636831D01*
X0318200Y0636689D01*
X0318136Y0636561D01*
X0318200Y0636370D01*
X0318200Y0619919D01*
X0318669Y0619450D01*
X0324331Y0619450D01*
X0324800Y0620516D02*
X0378200Y0620516D01*
X0378200Y0621515D02*
X0324800Y0621515D01*
X0324800Y0622513D02*
X0378200Y0622513D01*
X0378200Y0623512D02*
X0324800Y0623512D01*
X0324800Y0624510D02*
X0378200Y0624510D01*
X0378200Y0625509D02*
X0324800Y0625509D01*
X0324800Y0626507D02*
X0378200Y0626507D01*
X0378200Y0627506D02*
X0324800Y0627506D01*
X0324800Y0628504D02*
X0378200Y0628504D01*
X0378200Y0629503D02*
X0324800Y0629503D01*
X0324800Y0630501D02*
X0378200Y0630501D01*
X0378200Y0631500D02*
X0324800Y0631500D01*
X0324800Y0632499D02*
X0378200Y0632499D01*
X0378200Y0633497D02*
X0324800Y0633497D01*
X0324800Y0634496D02*
X0378200Y0634496D01*
X0378200Y0635494D02*
X0324800Y0635494D01*
X0324841Y0636493D02*
X0378159Y0636493D01*
X0378601Y0637491D02*
X0324399Y0637491D01*
X0323900Y0638490D02*
X0379100Y0638490D01*
X0379600Y0639488D02*
X0323400Y0639488D01*
X0322901Y0640487D02*
X0380099Y0640487D01*
X0380598Y0641485D02*
X0322402Y0641485D01*
X0320598Y0641485D02*
X0272402Y0641485D01*
X0272241Y0641807D02*
X0272154Y0642067D01*
X0272096Y0642096D01*
X0272067Y0642154D01*
X0271807Y0642241D01*
X0271561Y0642364D01*
X0271500Y0642343D01*
X0271439Y0642364D01*
X0271193Y0642241D01*
X0270933Y0642154D01*
X0270904Y0642096D01*
X0270846Y0642067D01*
X0270759Y0641807D01*
X0268343Y0636974D01*
X0268200Y0636831D01*
X0268200Y0636689D01*
X0268136Y0636561D01*
X0268200Y0636370D01*
X0268200Y0619919D01*
X0268669Y0619450D01*
X0274331Y0619450D01*
X0274800Y0619919D01*
X0274800Y0620581D01*
X0274800Y0636370D01*
X0274864Y0636561D01*
X0274800Y0636689D01*
X0274800Y0636831D01*
X0274657Y0636974D01*
X0272241Y0641807D01*
X0272901Y0640487D02*
X0320099Y0640487D01*
X0319600Y0639488D02*
X0273400Y0639488D01*
X0273900Y0638490D02*
X0319100Y0638490D01*
X0318601Y0637491D02*
X0274399Y0637491D01*
X0274841Y0636493D02*
X0318159Y0636493D01*
X0318200Y0635494D02*
X0274800Y0635494D01*
X0274800Y0634496D02*
X0318200Y0634496D01*
X0318200Y0633497D02*
X0274800Y0633497D01*
X0274800Y0632499D02*
X0318200Y0632499D01*
X0318200Y0631500D02*
X0274800Y0631500D01*
X0274800Y0630501D02*
X0318200Y0630501D01*
X0318200Y0629503D02*
X0274800Y0629503D01*
X0274800Y0628504D02*
X0318200Y0628504D01*
X0318200Y0627506D02*
X0274800Y0627506D01*
X0274800Y0626507D02*
X0318200Y0626507D01*
X0318200Y0625509D02*
X0274800Y0625509D01*
X0274800Y0624510D02*
X0318200Y0624510D01*
X0318200Y0623512D02*
X0274800Y0623512D01*
X0274800Y0622513D02*
X0318200Y0622513D01*
X0318200Y0621515D02*
X0274800Y0621515D01*
X0274800Y0620516D02*
X0318200Y0620516D01*
X0318601Y0619518D02*
X0274399Y0619518D01*
X0268601Y0619518D02*
X0238400Y0619518D01*
X0238400Y0620516D02*
X0268200Y0620516D01*
X0268200Y0621515D02*
X0238400Y0621515D01*
X0238400Y0622513D02*
X0268200Y0622513D01*
X0268200Y0623512D02*
X0238400Y0623512D01*
X0238400Y0624510D02*
X0268200Y0624510D01*
X0268200Y0625509D02*
X0238400Y0625509D01*
X0238400Y0626507D02*
X0268200Y0626507D01*
X0268200Y0627506D02*
X0238400Y0627506D01*
X0238400Y0628504D02*
X0268200Y0628504D01*
X0268200Y0629503D02*
X0238400Y0629503D01*
X0238400Y0630501D02*
X0268200Y0630501D01*
X0268200Y0631500D02*
X0238400Y0631500D01*
X0238400Y0632499D02*
X0268200Y0632499D01*
X0268200Y0633497D02*
X0238400Y0633497D01*
X0238400Y0634496D02*
X0268200Y0634496D01*
X0268200Y0635494D02*
X0238400Y0635494D01*
X0238400Y0636493D02*
X0268159Y0636493D01*
X0268601Y0637491D02*
X0238400Y0637491D01*
X0238400Y0638490D02*
X0269100Y0638490D01*
X0269600Y0639488D02*
X0238400Y0639488D01*
X0238400Y0640487D02*
X0270099Y0640487D01*
X0270598Y0641485D02*
X0238400Y0641485D01*
X0238400Y0642484D02*
X0479600Y0642484D01*
X0479600Y0643482D02*
X0238400Y0643482D01*
X0238400Y0644481D02*
X0479600Y0644481D01*
X0459834Y0645479D02*
X0238400Y0645479D01*
X0238400Y0646478D02*
X0459600Y0646478D01*
X0459600Y0647476D02*
X0238400Y0647476D01*
X0238400Y0648475D02*
X0459600Y0648475D01*
X0459600Y0649473D02*
X0238400Y0649473D01*
X0238400Y0650472D02*
X0459600Y0650472D01*
X0459600Y0651470D02*
X0238400Y0651470D01*
X0238400Y0652469D02*
X0459600Y0652469D01*
X0459600Y0653467D02*
X0238400Y0653467D01*
X0238400Y0654466D02*
X0459600Y0654466D01*
X0459600Y0655464D02*
X0238400Y0655464D01*
X0238400Y0656463D02*
X0459600Y0656463D01*
X0459600Y0657461D02*
X0238226Y0657461D01*
X0459600Y0658460D02*
X0012347Y0658460D01*
X0012287Y0658400D02*
X0013400Y0659513D01*
X0013400Y0661087D01*
X0012987Y0661500D01*
X0013400Y0661913D01*
X0013400Y0663487D01*
X0012287Y0664600D01*
X0010713Y0664600D01*
X0009600Y0663487D01*
X0009600Y0661913D01*
X0010013Y0661500D01*
X0009600Y0661087D01*
X0009600Y0659513D01*
X0010713Y0658400D01*
X0012287Y0658400D01*
X0013345Y0659458D02*
X0459600Y0659458D01*
X0459600Y0660457D02*
X0013400Y0660457D01*
X0013032Y0661455D02*
X0459600Y0661455D01*
X0459600Y0662454D02*
X0013400Y0662454D01*
X0013400Y0663452D02*
X0459600Y0663452D01*
X0459600Y0664451D02*
X0012436Y0664451D01*
X0010564Y0664451D02*
X0003400Y0664451D01*
X0003400Y0663452D02*
X0009600Y0663452D01*
X0009600Y0662454D02*
X0003400Y0662454D01*
X0003400Y0661455D02*
X0009968Y0661455D01*
X0009600Y0660457D02*
X0003400Y0660457D01*
X0003400Y0659458D02*
X0009655Y0659458D01*
X0010653Y0658460D02*
X0003400Y0658460D01*
M02*
