%
M48
M72
T01C0.0080
%
T01
X25900Y64900
X25900Y65400
X25900Y65900
X25900Y66400
X25900Y66900
X25900Y67400
X25900Y67900
X25900Y68400
X25900Y68900
X25900Y69400
X25400Y69400
X25400Y68900
X25400Y68400
X25400Y67900
X25400Y67400
X25400Y66900
X25400Y66400
X24900Y66400
X24900Y66900
X24900Y67400
X24900Y67900
X24900Y68400
X24900Y68900
X24900Y69400
X24400Y69400
X24400Y68900
X24400Y68400
X24400Y67900
X24400Y67400
X24400Y66900
X24400Y66400
X23900Y66400
X23900Y66900
X23900Y67400
X23900Y67900
X23900Y68400
X23900Y68900
X23900Y69400
X23400Y69400
X23400Y68900
X22900Y68900
X22900Y69400
X22400Y69400
X22400Y68900
X21900Y68900
X21900Y69400
X21400Y69400
X20900Y69400
X20900Y68900
X21400Y68900
X20400Y68900
X20400Y69400
X19900Y69400
X19900Y68900
X19400Y68900
X19400Y69400
X18900Y69400
X18900Y68900
X18400Y68900
X18400Y69400
X17900Y69400
X17900Y68900
X17400Y68900
X17400Y69400
X16900Y69400
X16900Y68900
X16400Y68900
X16400Y69400
X15900Y69400
X15900Y68900
X15400Y68900
X15400Y69400
X14900Y69400
X14900Y68900
X14400Y68900
X14400Y69400
X13900Y69400
X13400Y69400
X13400Y68900
X13900Y68900
X12900Y68900
X12900Y69400
X12400Y69400
X12400Y68900
X11900Y68900
X11900Y69400
X11400Y69400
X11400Y68900
X10900Y68900
X10900Y69400
X10400Y69400
X10400Y68900
X9900Y68900
X9900Y69400
X9400Y69400
X9400Y68900
X8900Y68900
X8900Y69400
X8400Y69400
X8400Y68900
X7900Y68900
X7900Y69400
X7400Y69400
X7400Y68900
X6900Y68900
X6900Y69400
X6400Y69400
X5900Y69400
X5900Y68900
X6400Y68900
X5400Y68900
X5400Y69400
X4900Y69400
X4900Y68900
X4400Y68900
X4400Y69400
X3900Y69400
X3900Y68900
X3400Y68900
X3400Y69400
X2900Y69400
X2900Y68900
X2400Y68900
X2400Y69400
X1900Y69400
X1900Y68900
X1400Y68900
X1150Y69030
X1150Y69270
X900Y69150
X900Y69400
X900Y68900
X1400Y69400
X26400Y69400
X26400Y68900
X26400Y68400
X26400Y67900
X26400Y67400
X26400Y66900
X26400Y66400
X26400Y65900
X26400Y65400
X26400Y64900
X27900Y64900
X27900Y65400
X27900Y65900
X27900Y66400
X27900Y66900
X27900Y67400
X27900Y67900
X27900Y68400
X27900Y68900
X27900Y69400
X27400Y69400
X27400Y68900
X27400Y68400
X27400Y67900
X27400Y67400
X26900Y67400
X26900Y67900
X26900Y68400
X26900Y68900
X26900Y69400
X28400Y69400
X28900Y69400
X28900Y68900
X28900Y68400
X28400Y68400
X28400Y68900
X28400Y67900
X28900Y67900
X28900Y67400
X28900Y66900
X28400Y66900
X28400Y67400
X28400Y66400
X28900Y66400
X29400Y66400
X29400Y66900
X29400Y67400
X29400Y67900
X29400Y68400
X29900Y68400
X29900Y68900
X29900Y69400
X29400Y69400
X30400Y69400
X30400Y68900
X30400Y68400
X30400Y67900
X30400Y67400
X30400Y66900
X30400Y66400
X29900Y66400
X29900Y66900
X29900Y67400
X29900Y67900
X30900Y67900
X30900Y67400
X30900Y66900
X30900Y66400
X30900Y65900
X30900Y65400
X30900Y64900
X31400Y64900
X31400Y65400
X31400Y65900
X31400Y66400
X31400Y66900
X31400Y67400
X31400Y67900
X31400Y68400
X31400Y68900
X31400Y69400
X30900Y69400
X30900Y68900
X30900Y68400
X31900Y68400
X31900Y68900
X31900Y69400
X32400Y69400
X32400Y68900
X32400Y68400
X32400Y67900
X32400Y67400
X31900Y67400
X31900Y67900
X32900Y67900
X32900Y67400
X32900Y66900
X32900Y66400
X32900Y65900
X32900Y65400
X32900Y64900
X33400Y64900
X33400Y65400
X33400Y65900
X33400Y66400
X33400Y66900
X33400Y67400
X33400Y67900
X33400Y68400
X33400Y68900
X33400Y69400
X32900Y69400
X32900Y68900
X32900Y68400
X33900Y68400
X33900Y68900
X33900Y69400
X34400Y69400
X34400Y68900
X34400Y68400
X34400Y67900
X34400Y67400
X34400Y66900
X34400Y66400
X33900Y66400
X33900Y66900
X33900Y67400
X33900Y67900
X34900Y67900
X34900Y67400
X34900Y66900
X34900Y66400
X35400Y66400
X35400Y66900
X35400Y67400
X35400Y67900
X35400Y68400
X35400Y68900
X35400Y69400
X34900Y69400
X34900Y68900
X34900Y68400
X35900Y68400
X36400Y68400
X36400Y68900
X35900Y68900
X35900Y69400
X36400Y69400
X36900Y69400
X36900Y68900
X36900Y68400
X36900Y67900
X36900Y67400
X36900Y66900
X36900Y66400
X36900Y65900
X36900Y65400
X36900Y64900
X37400Y64900
X37400Y65400
X37400Y65900
X37400Y66400
X37400Y66900
X37400Y67400
X37400Y67900
X37400Y68400
X37400Y68900
X37400Y69400
X37900Y69400
X37900Y68900
X37900Y68400
X37900Y67900
X37900Y67400
X38400Y67400
X38400Y67900
X38400Y68400
X38400Y68900
X38400Y69400
X38900Y69400
X38900Y68900
X38900Y68400
X38900Y67900
X38900Y67400
X38900Y66900
X38900Y66400
X38900Y65900
X38900Y65400
X38900Y64900
X39400Y64900
X39400Y65400
X39400Y65900
X39400Y66400
X39400Y66900
X39400Y67400
X39400Y67900
X39400Y68400
X39400Y68900
X39400Y69400
X39900Y69400
X39900Y68900
X39900Y68400
X39900Y67900
X39900Y67400
X39900Y66900
X39900Y66400
X40400Y66400
X40400Y66900
X40400Y67400
X40400Y67900
X40400Y68400
X40400Y68900
X40400Y69400
X40900Y69400
X41400Y69400
X41400Y68900
X41400Y68400
X41400Y67900
X41400Y67400
X41400Y66900
X41400Y66400
X40900Y66400
X40900Y66900
X40900Y67400
X40900Y67900
X40900Y68400
X41900Y68400
X41900Y68900
X41900Y69400
X42400Y69400
X42400Y68900
X42400Y68400
X42400Y67900
X42400Y67400
X42400Y66900
X42400Y66400
X42400Y65900
X42400Y65400
X42400Y64900
X41900Y64900
X41900Y65400
X41900Y65900
X41900Y66400
X41900Y66900
X41900Y67400
X41900Y67900
X42900Y67900
X42900Y67400
X43400Y67400
X43900Y67400
X43900Y66900
X43900Y66400
X43900Y65900
X43900Y65400
X43900Y64900
X44400Y64900
X44400Y65400
X44400Y65900
X44400Y66400
X44400Y66900
X44400Y67400
X44400Y67900
X44400Y68400
X44400Y68900
X44400Y69400
X43900Y69400
X43400Y69400
X43400Y68900
X43400Y68400
X43900Y68400
X43900Y68900
X43900Y67900
X43400Y67900
X42900Y68400
X42900Y68900
X42900Y69400
X44900Y69400
X44900Y68900
X44900Y68400
X44900Y67900
X44900Y67400
X44900Y66900
X44900Y66400
X45400Y66400
X45400Y66900
X45400Y67400
X45400Y67900
X45400Y68400
X45900Y68400
X45900Y68900
X45900Y69400
X45400Y69400
X45900Y67900
X46400Y67400
X46400Y66900
X46400Y66400
X45900Y66400
X45900Y66900
X46900Y66900
X46900Y67400
X47400Y67400
X47900Y67400
X47900Y66900
X47900Y66400
X47900Y65900
X47900Y65400
X47900Y64900
X47900Y64400
X47900Y63900
X47900Y63400
X47900Y62900
X47900Y62400
X47900Y61900
X47900Y61400
X47900Y60900
X47900Y60400
X47900Y59900
X47900Y59400
X47900Y58900
X47900Y58400
X47900Y57900
X47900Y57400
X47900Y56900
X47900Y56400
X47900Y55900
X47900Y55400
X47900Y54900
X47900Y54400
X47900Y53900
X47900Y53400
X47900Y52900
X47900Y52400
X47900Y51900
X47900Y51400
X47900Y50900
X47900Y50400
X47900Y49900
X47900Y49400
X47900Y48900
X47900Y48400
X47900Y47900
X47900Y47400
X47900Y46900
X47900Y46400
X47900Y45900
X47900Y45400
X47900Y44900
X47900Y44400
X47900Y43900
X47900Y43400
X47900Y42900
X47900Y42400
X47900Y41900
X47900Y41400
X47900Y40900
X47900Y40400
X47900Y39900
X47900Y39400
X47900Y38900
X47900Y38400
X47900Y37900
X47900Y37400
X47900Y36900
X47900Y36400
X47900Y35900
X47900Y35400
X47900Y34900
X47900Y34400
X47900Y33900
X47900Y33400
X47900Y32900
X47900Y32400
X47900Y31900
X47900Y31400
X47900Y30900
X47900Y30400
X47900Y29900
X47900Y29400
X47900Y28900
X47900Y28400
X47900Y27900
X47900Y27400
X47900Y26900
X47900Y26400
X47900Y25900
X47900Y25400
X47900Y24900
X47900Y24400
X47900Y23900
X47900Y23400
X47900Y22900
X47900Y22400
X47900Y21900
X47900Y21400
X47900Y20900
X47900Y20400
X47900Y19900
X47900Y19400
X47900Y18900
X47900Y18400
X47900Y17900
X47900Y17400
X47900Y16900
X47900Y16400
X47900Y15900
X47900Y15400
X47900Y14900
X47900Y14400
X47900Y13900
X47900Y13400
X47900Y12900
X47900Y12400
X47900Y11900
X47900Y11400
X47900Y10900
X47900Y10400
X47900Y9900
X47900Y9400
X47900Y8900
X47900Y8400
X47900Y7900
X47900Y7400
X47900Y6900
X47900Y6400
X47900Y5900
X47900Y5400
X47900Y4900
X47900Y4400
X47900Y3900
X47900Y3400
X47900Y2900
X47900Y2400
X47900Y1900
X47900Y1400
X47770Y1150
X47530Y1150
X47650Y900
X47400Y900
X47400Y1400
X47400Y1900
X47400Y2400
X47400Y2900
X47400Y3400
X47400Y3900
X47400Y4400
X47400Y4900
X47400Y5400
X47400Y5900
X47400Y6400
X47400Y6900
X47400Y7400
X47400Y7900
X47400Y8400
X47400Y8900
X47400Y9400
X47400Y9900
X47400Y10400
X47400Y10900
X47400Y11400
X47400Y11900
X47400Y12400
X47400Y12900
X47400Y13400
X47400Y13900
X47400Y14400
X47400Y14900
X47400Y15400
X47400Y15900
X47400Y16400
X47400Y16900
X47400Y17400
X47400Y17900
X47400Y18400
X47400Y18900
X47400Y19400
X47400Y19900
X47400Y20400
X47400Y20900
X47400Y21400
X47400Y21900
X47400Y22400
X47400Y22900
X47400Y23400
X47400Y23900
X47400Y24400
X47400Y24900
X47400Y25400
X47400Y25900
X47400Y26400
X47400Y26900
X47400Y27400
X47400Y27900
X47400Y28400
X47400Y28900
X47400Y29400
X47400Y29900
X47400Y30400
X47400Y30900
X47400Y31400
X47400Y31900
X47400Y32400
X47400Y32900
X47400Y33400
X47400Y33900
X47400Y34400
X47400Y34900
X47400Y35400
X47400Y35900
X47400Y36400
X47400Y36900
X47400Y37400
X47400Y37900
X47400Y38400
X47400Y38900
X47400Y39400
X47400Y39900
X47400Y40400
X47400Y40900
X47400Y41400
X47400Y41900
X47400Y42400
X47400Y42900
X47400Y43400
X47400Y43900
X47400Y44400
X47400Y44900
X47400Y45400
X47400Y45900
X47400Y46400
X47400Y46900
X47400Y47400
X47400Y47900
X47400Y48400
X47400Y48900
X47400Y49400
X47400Y49900
X47400Y50400
X47400Y50900
X47400Y51400
X47400Y51900
X47400Y52400
X47400Y52900
X47400Y53400
X47400Y53900
X47400Y54400
X47400Y54900
X47400Y55400
X47400Y55900
X47400Y56400
X47400Y56900
X47400Y57400
X47400Y57900
X47400Y58400
X47400Y58900
X47400Y59400
X47400Y59900
X47400Y60400
X47400Y60900
X47400Y61400
X47400Y61900
X47400Y62400
X47400Y62900
X47400Y63400
X47400Y63900
X47400Y64400
X47400Y64900
X47400Y65400
X47400Y65900
X47400Y66400
X46900Y66400
X36400Y66400
X35900Y66400
X35900Y66900
X36400Y66900
X36400Y67400
X35900Y67400
X35900Y67900
X36400Y67900
X28400Y65900
X28400Y65400
X28400Y64900
X47900Y900
M30
