%
M48
M72
T01C0.0080
%
T01
X25900Y61900
X25900Y62400
X25900Y62900
X25900Y63400
X25900Y63900
X25900Y64400
X25900Y64900
X25900Y65400
X25900Y65900
X25900Y66400
X25400Y66400
X25400Y65900
X25400Y65400
X25400Y64900
X25400Y64400
X25400Y63900
X25400Y63400
X24900Y63400
X24900Y63900
X24900Y64400
X24900Y64900
X24900Y65400
X24900Y65900
X24900Y66400
X24400Y66400
X24400Y65900
X24400Y65400
X24400Y64900
X24400Y64400
X24400Y63900
X24400Y63400
X23900Y63400
X23900Y63900
X23900Y64400
X23900Y64900
X23900Y65400
X23900Y65900
X23900Y66400
X23400Y66400
X23400Y65900
X22900Y65900
X22900Y66400
X22400Y66400
X22400Y65900
X21900Y65900
X21900Y66400
X21400Y66400
X20900Y66400
X20900Y65900
X21400Y65900
X20400Y65900
X20400Y66400
X19900Y66400
X19900Y65900
X19400Y65900
X19400Y66400
X18900Y66400
X18900Y65900
X18400Y65900
X18400Y66400
X17900Y66400
X17900Y65900
X17400Y65900
X17400Y66400
X16900Y66400
X16900Y65900
X16400Y65900
X16400Y66400
X15900Y66400
X15900Y65900
X15400Y65900
X15400Y66400
X14900Y66400
X14900Y65900
X14400Y65900
X14400Y66400
X13900Y66400
X13400Y66400
X13400Y65900
X13900Y65900
X12900Y65900
X12900Y66400
X12400Y66400
X12400Y65900
X11900Y65900
X11900Y66400
X11400Y66400
X11400Y65900
X10900Y65900
X10900Y66400
X10400Y66400
X10400Y65900
X9900Y65900
X9900Y66400
X9400Y66400
X9400Y65900
X8900Y65900
X8900Y66400
X8400Y66400
X8400Y65900
X7900Y65900
X7900Y66400
X7400Y66400
X7400Y65900
X6900Y65900
X6900Y66400
X6400Y66400
X5900Y66400
X5900Y65900
X6400Y65900
X5400Y65900
X5400Y66400
X4900Y66400
X4900Y65900
X4400Y65900
X4400Y66400
X3900Y66400
X3900Y65900
X3400Y65900
X3400Y66400
X2900Y66400
X2900Y65900
X2400Y65900
X2400Y66400
X1900Y66400
X1900Y65900
X1400Y65900
X1150Y66030
X1150Y66270
X900Y66150
X900Y65900
X900Y66400
X1400Y66400
X26400Y66400
X26400Y65900
X26400Y65400
X26400Y64900
X26400Y64400
X26400Y63900
X26400Y63400
X26400Y62900
X26400Y62400
X26400Y61900
X27900Y61900
X27900Y62400
X27900Y62900
X27900Y63400
X27900Y63900
X27900Y64400
X27900Y64900
X27900Y65400
X27900Y65900
X27900Y66400
X27400Y66400
X27400Y65900
X27400Y65400
X27400Y64900
X27400Y64400
X26900Y64400
X26900Y64900
X26900Y65400
X26900Y65900
X26900Y66400
X28400Y66400
X28900Y66400
X28900Y65900
X28400Y65900
X28400Y65400
X28900Y65400
X28900Y64900
X28400Y64900
X28400Y64400
X28900Y64400
X28900Y63900
X28400Y63900
X28400Y63400
X28900Y63400
X29400Y63400
X29400Y63900
X29400Y64400
X29400Y64900
X29400Y65400
X29900Y65400
X29900Y64900
X29900Y64400
X29900Y63900
X29900Y63400
X30400Y63400
X30400Y63900
X30400Y64400
X30400Y64900
X30400Y65400
X30400Y65900
X30400Y66400
X29900Y66400
X29900Y65900
X29400Y66400
X30900Y66400
X30900Y65900
X30900Y65400
X30900Y64900
X30900Y64400
X30900Y63900
X30900Y63400
X30900Y62900
X30900Y62400
X30900Y61900
X31400Y61900
X31400Y62400
X31400Y62900
X31400Y63400
X31400Y63900
X31400Y64400
X31400Y64900
X31400Y65400
X31400Y65900
X31400Y66400
X31900Y66400
X31900Y65900
X31900Y65400
X31900Y64900
X31900Y64400
X32400Y64400
X32400Y64900
X32400Y65400
X32400Y65900
X32400Y66400
X32900Y66400
X32900Y65900
X32900Y65400
X32900Y64900
X32900Y64400
X32900Y63900
X32900Y63400
X32900Y62900
X32900Y62400
X32900Y61900
X33400Y61900
X33400Y62400
X33400Y62900
X33400Y63400
X33400Y63900
X33400Y64400
X33400Y64900
X33400Y65400
X33400Y65900
X33400Y66400
X33900Y66400
X33900Y65900
X33900Y65400
X33900Y64900
X33900Y64400
X33900Y63900
X33900Y63400
X34400Y63400
X34400Y63900
X34400Y64400
X34400Y64900
X34400Y65400
X34400Y65900
X34400Y66400
X34900Y66400
X34900Y65900
X34900Y65400
X34900Y64900
X34900Y64400
X34900Y63900
X34900Y63400
X35400Y63400
X35400Y63900
X35400Y64400
X35400Y64900
X35400Y65400
X35400Y65900
X35400Y66400
X35900Y66400
X36400Y66400
X36400Y65900
X35900Y65900
X35900Y65400
X36400Y65400
X36400Y64900
X35900Y64900
X35900Y64400
X36400Y64400
X36400Y63900
X35900Y63900
X35900Y63400
X36400Y63400
X36900Y63400
X36900Y62900
X36900Y62400
X36900Y61900
X37400Y61900
X37400Y62400
X37400Y62900
X37400Y63400
X37400Y63900
X37400Y64400
X37400Y64900
X37400Y65400
X37400Y65900
X37400Y66400
X36900Y66400
X36900Y65900
X36900Y65400
X36900Y64900
X36900Y64400
X36900Y63900
X37900Y64400
X37900Y64900
X37900Y65400
X37900Y65900
X37900Y66400
X38400Y66400
X38400Y65900
X38400Y65400
X38400Y64900
X38400Y64400
X38900Y64400
X38900Y63900
X38900Y63400
X38900Y62900
X38900Y62400
X38900Y61900
X39400Y61900
X39400Y62400
X39400Y62900
X39400Y63400
X39400Y63900
X39400Y64400
X39400Y64900
X39400Y65400
X39400Y65900
X39400Y66400
X38900Y66400
X38900Y65900
X38900Y65400
X38900Y64900
X39900Y64900
X39900Y65400
X39900Y65900
X39900Y66400
X40400Y66400
X40400Y65900
X40400Y65400
X40400Y64900
X40400Y64400
X40400Y63900
X40400Y63400
X39900Y63400
X39900Y63900
X39900Y64400
X40900Y64400
X40900Y63900
X40900Y63400
X41400Y63400
X41400Y63900
X41400Y64400
X41400Y64900
X41400Y65400
X41400Y65900
X41400Y66400
X40900Y66400
X40900Y65400
X40900Y64900
X41900Y64900
X41900Y65400
X41900Y65900
X41900Y66400
X42400Y66400
X42400Y65900
X42400Y65400
X42400Y64900
X42400Y64400
X42400Y63900
X42400Y63400
X42400Y62900
X42400Y62400
X42400Y61900
X41900Y61900
X41900Y62400
X41900Y62900
X41900Y63400
X41900Y63900
X41900Y64400
X42900Y64400
X42900Y64900
X42900Y65400
X42900Y65900
X42900Y66400
X43400Y66400
X43900Y66400
X43900Y65900
X43400Y65900
X43400Y65400
X43900Y65400
X43900Y64900
X43400Y64900
X43400Y64400
X43900Y64400
X43900Y63900
X43900Y63400
X43900Y62900
X43900Y62400
X43900Y61900
X44400Y61900
X44400Y62400
X44400Y62900
X44400Y63400
X44400Y63900
X44400Y64400
X44400Y64900
X44400Y65400
X44400Y65900
X44400Y66400
X44900Y66400
X44900Y65900
X44900Y65400
X44900Y64900
X44900Y64400
X44900Y63900
X44900Y63400
X45400Y63400
X45400Y63900
X45400Y64400
X45400Y64900
X45400Y65400
X45900Y65400
X45900Y64900
X46400Y64400
X46400Y63900
X46400Y63400
X45900Y63400
X45900Y63900
X46900Y63900
X46900Y63400
X47400Y63400
X47400Y62900
X47400Y62400
X47400Y61900
X47400Y61400
X47400Y60900
X47400Y60400
X47400Y59900
X47400Y59400
X47400Y58900
X47400Y58400
X47400Y57900
X47400Y57400
X47400Y56900
X47400Y56400
X47400Y55900
X47400Y55400
X47400Y54900
X47400Y54400
X47400Y53900
X47400Y53400
X47400Y52900
X47400Y52400
X47400Y51900
X47400Y51400
X47400Y50900
X47400Y50400
X47400Y49900
X47400Y49400
X47400Y48900
X47400Y48400
X47400Y47900
X47400Y47400
X47400Y46900
X47400Y46400
X47400Y45900
X47400Y45400
X47400Y44900
X47400Y44400
X47400Y43900
X47400Y43400
X47400Y42900
X47400Y42400
X47400Y41900
X47400Y41400
X47400Y40900
X47400Y40400
X47400Y39900
X47400Y39400
X47400Y38900
X47400Y38400
X47400Y37900
X47400Y37400
X47400Y36900
X47400Y36400
X47400Y35900
X47400Y35400
X47400Y34900
X47400Y34400
X47400Y33900
X47400Y33400
X47400Y32900
X47400Y32400
X47400Y31900
X47400Y31400
X47400Y30900
X47400Y30400
X47400Y29900
X47400Y29400
X47400Y28900
X47400Y28400
X47400Y27900
X47400Y27400
X47400Y26900
X47400Y26400
X47400Y25900
X47400Y25400
X47400Y24900
X47400Y24400
X47400Y23900
X47400Y23400
X47400Y22900
X47400Y22400
X47400Y21900
X47400Y21400
X47400Y20900
X47400Y20400
X47400Y19900
X47400Y19400
X47400Y18900
X47400Y18400
X47400Y17900
X47400Y17400
X47400Y16900
X47400Y16400
X47400Y15900
X47400Y15400
X47400Y14900
X47400Y14400
X47400Y13900
X47400Y13400
X47400Y12900
X47400Y12400
X47400Y11900
X47400Y11400
X47400Y10900
X47400Y10400
X47400Y9900
X47400Y9400
X47400Y8900
X47400Y8400
X47400Y7900
X47400Y7400
X47400Y6900
X47400Y6400
X47400Y5900
X47400Y5400
X47400Y4900
X47400Y4400
X47400Y3900
X47400Y3400
X47400Y2900
X47400Y2400
X47400Y1900
X47400Y1400
X47530Y1150
X47770Y1150
X47650Y900
X47400Y900
X47900Y900
X47900Y1400
X47900Y1900
X47900Y2400
X47900Y2900
X47900Y3400
X47900Y3900
X47900Y4400
X47900Y4900
X47900Y5400
X47900Y5900
X47900Y6400
X47900Y6900
X47900Y7400
X47900Y7900
X47900Y8400
X47900Y8900
X47900Y9400
X47900Y9900
X47900Y10400
X47900Y10900
X47900Y11400
X47900Y11900
X47900Y12400
X47900Y12900
X47900Y13400
X47900Y13900
X47900Y14400
X47900Y14900
X47900Y15400
X47900Y15900
X47900Y16400
X47900Y16900
X47900Y17400
X47900Y17900
X47900Y18400
X47900Y18900
X47900Y19400
X47900Y19900
X47900Y20400
X47900Y20900
X47900Y21400
X47900Y21900
X47900Y22400
X47900Y22900
X47900Y23400
X47900Y23900
X47900Y24400
X47900Y24900
X47900Y25400
X47900Y25900
X47900Y26400
X47900Y26900
X47900Y27400
X47900Y27900
X47900Y28400
X47900Y28900
X47900Y29400
X47900Y29900
X47900Y30400
X47900Y30900
X47900Y31400
X47900Y31900
X47900Y32400
X47900Y32900
X47900Y33400
X47900Y33900
X47900Y34400
X47900Y34900
X47900Y35400
X47900Y35900
X47900Y36400
X47900Y36900
X47900Y37400
X47900Y37900
X47900Y38400
X47900Y38900
X47900Y39400
X47900Y39900
X47900Y40400
X47900Y40900
X47900Y41400
X47900Y41900
X47900Y42400
X47900Y42900
X47900Y43400
X47900Y43900
X47900Y44400
X47900Y44900
X47900Y45400
X47900Y45900
X47900Y46400
X47900Y46900
X47900Y47400
X47900Y47900
X47900Y48400
X47900Y48900
X47900Y49400
X47900Y49900
X47900Y50400
X47900Y50900
X47900Y51400
X47900Y51900
X47900Y52400
X47900Y52900
X47900Y53400
X47900Y53900
X47900Y54400
X47900Y54900
X47900Y55400
X47900Y55900
X47900Y56400
X47900Y56900
X47900Y57400
X47900Y57900
X47900Y58400
X47900Y58900
X47900Y59400
X47900Y59900
X47900Y60400
X47900Y60900
X47900Y61400
X47900Y61900
X47900Y62400
X47900Y62900
X47900Y63400
X47900Y63900
X47900Y64400
X47400Y64400
X46900Y64400
X45900Y65900
X45900Y66400
X45400Y66400
X28400Y62900
X28400Y62400
X28400Y61900
M30
