G75*
%MOIN*%
%OFA0B0*%
%FSLAX25Y25*%
%IPPOS*%
%LPD*%
%AMOC8*
5,1,8,0,0,1.08239X$1,22.5*
%
%ADD10R,0.06811X0.18110*%
%ADD11R,0.07480X0.18110*%
%ADD12C,0.01600*%
%ADD13C,0.01000*%
%ADD14C,0.00600*%
D10*
X0271500Y0658055D03*
X0321500Y0658055D03*
X0381500Y0658055D03*
X0431500Y0658055D03*
D11*
X0421264Y0658055D03*
X0441736Y0658055D03*
X0391736Y0658055D03*
X0371264Y0658055D03*
X0331736Y0658055D03*
X0311264Y0658055D03*
X0281736Y0658055D03*
X0261264Y0658055D03*
D12*
X0259000Y0659000D03*
X0259000Y0654000D03*
X0259000Y0649000D03*
X0264000Y0649000D03*
X0264000Y0654000D03*
X0264000Y0659000D03*
X0264000Y0664000D03*
X0264000Y0669000D03*
X0264000Y0674000D03*
X0264000Y0679000D03*
X0264000Y0684000D03*
X0264000Y0689000D03*
X0264000Y0694000D03*
X0259000Y0694000D03*
X0259000Y0689000D03*
X0259000Y0684000D03*
X0259000Y0679000D03*
X0259000Y0674000D03*
X0259000Y0669000D03*
X0259000Y0664000D03*
X0254000Y0664000D03*
X0254000Y0669000D03*
X0254000Y0674000D03*
X0254000Y0679000D03*
X0254000Y0684000D03*
X0254000Y0689000D03*
X0254000Y0694000D03*
X0249000Y0694000D03*
X0249000Y0689000D03*
X0249000Y0684000D03*
X0249000Y0679000D03*
X0249000Y0674000D03*
X0249000Y0669000D03*
X0249000Y0664000D03*
X0244000Y0664000D03*
X0244000Y0669000D03*
X0244000Y0674000D03*
X0244000Y0679000D03*
X0244000Y0684000D03*
X0244000Y0689000D03*
X0244000Y0694000D03*
X0239000Y0694000D03*
X0239000Y0689000D03*
X0239000Y0684000D03*
X0239000Y0679000D03*
X0239000Y0674000D03*
X0239000Y0669000D03*
X0239000Y0664000D03*
X0234000Y0689000D03*
X0234000Y0694000D03*
X0229000Y0694000D03*
X0229000Y0689000D03*
X0224000Y0689000D03*
X0224000Y0694000D03*
X0219000Y0694000D03*
X0219000Y0689000D03*
X0214000Y0689000D03*
X0209000Y0689000D03*
X0209000Y0694000D03*
X0214000Y0694000D03*
X0204000Y0694000D03*
X0204000Y0689000D03*
X0199000Y0689000D03*
X0199000Y0694000D03*
X0194000Y0694000D03*
X0194000Y0689000D03*
X0189000Y0689000D03*
X0189000Y0694000D03*
X0184000Y0694000D03*
X0184000Y0689000D03*
X0179000Y0689000D03*
X0179000Y0694000D03*
X0174000Y0694000D03*
X0174000Y0689000D03*
X0169000Y0689000D03*
X0169000Y0694000D03*
X0164000Y0694000D03*
X0164000Y0689000D03*
X0159000Y0689000D03*
X0159000Y0694000D03*
X0154000Y0694000D03*
X0154000Y0689000D03*
X0149000Y0689000D03*
X0149000Y0694000D03*
X0144000Y0694000D03*
X0144000Y0689000D03*
X0139000Y0689000D03*
X0134000Y0689000D03*
X0134000Y0694000D03*
X0139000Y0694000D03*
X0129000Y0694000D03*
X0129000Y0689000D03*
X0124000Y0689000D03*
X0124000Y0694000D03*
X0119000Y0694000D03*
X0119000Y0689000D03*
X0114000Y0689000D03*
X0114000Y0694000D03*
X0109000Y0694000D03*
X0109000Y0689000D03*
X0104000Y0689000D03*
X0104000Y0694000D03*
X0099000Y0694000D03*
X0099000Y0689000D03*
X0094000Y0689000D03*
X0094000Y0694000D03*
X0089000Y0694000D03*
X0089000Y0689000D03*
X0084000Y0689000D03*
X0084000Y0694000D03*
X0079000Y0694000D03*
X0079000Y0689000D03*
X0074000Y0689000D03*
X0074000Y0694000D03*
X0069000Y0694000D03*
X0069000Y0689000D03*
X0064000Y0689000D03*
X0059000Y0689000D03*
X0059000Y0694000D03*
X0064000Y0694000D03*
X0054000Y0694000D03*
X0054000Y0689000D03*
X0049000Y0689000D03*
X0049000Y0694000D03*
X0044000Y0694000D03*
X0044000Y0689000D03*
X0039000Y0689000D03*
X0039000Y0694000D03*
X0034000Y0694000D03*
X0034000Y0689000D03*
X0029000Y0689000D03*
X0029000Y0694000D03*
X0024000Y0694000D03*
X0024000Y0689000D03*
X0019000Y0689000D03*
X0019000Y0694000D03*
X0014000Y0694000D03*
X0011500Y0692700D03*
X0011500Y0690300D03*
X0009000Y0691500D03*
X0009000Y0694000D03*
X0009000Y0689000D03*
X0014000Y0689000D03*
X0269000Y0689000D03*
X0269000Y0684000D03*
X0269000Y0679000D03*
X0269000Y0674000D03*
X0274000Y0674000D03*
X0274000Y0679000D03*
X0274000Y0684000D03*
X0274000Y0689000D03*
X0274000Y0694000D03*
X0269000Y0694000D03*
X0279000Y0694000D03*
X0279000Y0689000D03*
X0279000Y0684000D03*
X0279000Y0679000D03*
X0279000Y0674000D03*
X0279000Y0669000D03*
X0279000Y0664000D03*
X0279000Y0659000D03*
X0279000Y0654000D03*
X0279000Y0649000D03*
X0284000Y0649000D03*
X0284000Y0654000D03*
X0284000Y0659000D03*
X0284000Y0664000D03*
X0289000Y0664000D03*
X0289000Y0669000D03*
X0284000Y0669000D03*
X0284000Y0674000D03*
X0289000Y0674000D03*
X0289000Y0679000D03*
X0284000Y0679000D03*
X0284000Y0684000D03*
X0289000Y0684000D03*
X0289000Y0689000D03*
X0284000Y0689000D03*
X0284000Y0694000D03*
X0289000Y0694000D03*
X0294000Y0694000D03*
X0299000Y0694000D03*
X0299000Y0689000D03*
X0299000Y0684000D03*
X0299000Y0679000D03*
X0299000Y0674000D03*
X0299000Y0669000D03*
X0299000Y0664000D03*
X0294000Y0664000D03*
X0294000Y0669000D03*
X0294000Y0674000D03*
X0294000Y0679000D03*
X0294000Y0684000D03*
X0304000Y0684000D03*
X0304000Y0689000D03*
X0304000Y0694000D03*
X0309000Y0694000D03*
X0309000Y0689000D03*
X0309000Y0684000D03*
X0309000Y0679000D03*
X0309000Y0674000D03*
X0309000Y0669000D03*
X0309000Y0664000D03*
X0309000Y0659000D03*
X0309000Y0654000D03*
X0309000Y0649000D03*
X0314000Y0649000D03*
X0314000Y0654000D03*
X0314000Y0659000D03*
X0314000Y0664000D03*
X0314000Y0669000D03*
X0314000Y0674000D03*
X0314000Y0679000D03*
X0314000Y0684000D03*
X0314000Y0689000D03*
X0314000Y0694000D03*
X0319000Y0694000D03*
X0319000Y0689000D03*
X0319000Y0684000D03*
X0319000Y0679000D03*
X0319000Y0674000D03*
X0324000Y0674000D03*
X0324000Y0679000D03*
X0324000Y0684000D03*
X0324000Y0689000D03*
X0324000Y0694000D03*
X0329000Y0694000D03*
X0329000Y0689000D03*
X0329000Y0684000D03*
X0329000Y0679000D03*
X0329000Y0674000D03*
X0329000Y0669000D03*
X0329000Y0664000D03*
X0329000Y0659000D03*
X0329000Y0654000D03*
X0329000Y0649000D03*
X0334000Y0649000D03*
X0334000Y0654000D03*
X0334000Y0659000D03*
X0334000Y0664000D03*
X0334000Y0669000D03*
X0334000Y0674000D03*
X0334000Y0679000D03*
X0334000Y0684000D03*
X0334000Y0689000D03*
X0334000Y0694000D03*
X0339000Y0694000D03*
X0339000Y0689000D03*
X0339000Y0684000D03*
X0339000Y0679000D03*
X0339000Y0674000D03*
X0339000Y0669000D03*
X0339000Y0664000D03*
X0344000Y0664000D03*
X0344000Y0669000D03*
X0344000Y0674000D03*
X0344000Y0679000D03*
X0344000Y0684000D03*
X0344000Y0689000D03*
X0344000Y0694000D03*
X0349000Y0694000D03*
X0349000Y0689000D03*
X0349000Y0684000D03*
X0349000Y0679000D03*
X0349000Y0674000D03*
X0349000Y0669000D03*
X0349000Y0664000D03*
X0354000Y0664000D03*
X0354000Y0669000D03*
X0354000Y0674000D03*
X0354000Y0679000D03*
X0354000Y0684000D03*
X0354000Y0689000D03*
X0354000Y0694000D03*
X0359000Y0694000D03*
X0364000Y0694000D03*
X0364000Y0689000D03*
X0364000Y0684000D03*
X0359000Y0684000D03*
X0359000Y0689000D03*
X0359000Y0679000D03*
X0364000Y0679000D03*
X0364000Y0674000D03*
X0364000Y0669000D03*
X0359000Y0669000D03*
X0359000Y0674000D03*
X0359000Y0664000D03*
X0364000Y0664000D03*
X0369000Y0664000D03*
X0369000Y0659000D03*
X0369000Y0654000D03*
X0369000Y0649000D03*
X0374000Y0649000D03*
X0374000Y0654000D03*
X0374000Y0659000D03*
X0374000Y0664000D03*
X0374000Y0669000D03*
X0374000Y0674000D03*
X0374000Y0679000D03*
X0374000Y0684000D03*
X0374000Y0689000D03*
X0374000Y0694000D03*
X0369000Y0694000D03*
X0369000Y0689000D03*
X0369000Y0684000D03*
X0369000Y0679000D03*
X0369000Y0674000D03*
X0369000Y0669000D03*
X0379000Y0674000D03*
X0379000Y0679000D03*
X0379000Y0684000D03*
X0379000Y0689000D03*
X0379000Y0694000D03*
X0384000Y0694000D03*
X0384000Y0689000D03*
X0384000Y0684000D03*
X0384000Y0679000D03*
X0384000Y0674000D03*
X0389000Y0674000D03*
X0389000Y0669000D03*
X0389000Y0664000D03*
X0389000Y0659000D03*
X0389000Y0654000D03*
X0389000Y0649000D03*
X0394000Y0649000D03*
X0394000Y0654000D03*
X0394000Y0659000D03*
X0394000Y0664000D03*
X0394000Y0669000D03*
X0394000Y0674000D03*
X0394000Y0679000D03*
X0394000Y0684000D03*
X0394000Y0689000D03*
X0394000Y0694000D03*
X0389000Y0694000D03*
X0389000Y0689000D03*
X0389000Y0684000D03*
X0389000Y0679000D03*
X0399000Y0679000D03*
X0399000Y0674000D03*
X0399000Y0669000D03*
X0399000Y0664000D03*
X0404000Y0664000D03*
X0404000Y0669000D03*
X0404000Y0674000D03*
X0404000Y0679000D03*
X0404000Y0684000D03*
X0404000Y0689000D03*
X0404000Y0694000D03*
X0399000Y0694000D03*
X0399000Y0689000D03*
X0399000Y0684000D03*
X0409000Y0684000D03*
X0409000Y0679000D03*
X0409000Y0674000D03*
X0409000Y0669000D03*
X0409000Y0664000D03*
X0414000Y0664000D03*
X0414000Y0669000D03*
X0414000Y0674000D03*
X0414000Y0679000D03*
X0414000Y0684000D03*
X0414000Y0689000D03*
X0414000Y0694000D03*
X0409000Y0694000D03*
X0419000Y0694000D03*
X0419000Y0689000D03*
X0419000Y0684000D03*
X0419000Y0679000D03*
X0419000Y0674000D03*
X0419000Y0669000D03*
X0419000Y0664000D03*
X0419000Y0659000D03*
X0419000Y0654000D03*
X0419000Y0649000D03*
X0424000Y0649000D03*
X0424000Y0654000D03*
X0424000Y0659000D03*
X0424000Y0664000D03*
X0424000Y0669000D03*
X0424000Y0674000D03*
X0424000Y0679000D03*
X0424000Y0684000D03*
X0424000Y0689000D03*
X0424000Y0694000D03*
X0429000Y0694000D03*
X0429000Y0689000D03*
X0429000Y0684000D03*
X0429000Y0679000D03*
X0429000Y0674000D03*
X0434000Y0674000D03*
X0439000Y0674000D03*
X0439000Y0669000D03*
X0439000Y0664000D03*
X0439000Y0659000D03*
X0439000Y0654000D03*
X0439000Y0649000D03*
X0444000Y0649000D03*
X0444000Y0654000D03*
X0444000Y0659000D03*
X0444000Y0664000D03*
X0444000Y0669000D03*
X0444000Y0674000D03*
X0444000Y0679000D03*
X0444000Y0684000D03*
X0444000Y0689000D03*
X0444000Y0694000D03*
X0439000Y0694000D03*
X0434000Y0694000D03*
X0434000Y0689000D03*
X0434000Y0684000D03*
X0439000Y0684000D03*
X0439000Y0689000D03*
X0439000Y0679000D03*
X0434000Y0679000D03*
X0449000Y0679000D03*
X0449000Y0674000D03*
X0449000Y0669000D03*
X0449000Y0664000D03*
X0454000Y0664000D03*
X0454000Y0669000D03*
X0454000Y0674000D03*
X0454000Y0679000D03*
X0454000Y0684000D03*
X0449000Y0684000D03*
X0449000Y0689000D03*
X0449000Y0694000D03*
X0454000Y0694000D03*
X0459000Y0694000D03*
X0459000Y0689000D03*
X0459000Y0684000D03*
X0459000Y0679000D03*
X0464000Y0674000D03*
X0464000Y0669000D03*
X0464000Y0664000D03*
X0459000Y0664000D03*
X0459000Y0669000D03*
X0469000Y0669000D03*
X0469000Y0674000D03*
X0474000Y0674000D03*
X0479000Y0674000D03*
X0479000Y0669000D03*
X0479000Y0664000D03*
X0479000Y0659000D03*
X0479000Y0654000D03*
X0479000Y0649000D03*
X0479000Y0644000D03*
X0479000Y0639000D03*
X0479000Y0634000D03*
X0479000Y0629000D03*
X0479000Y0624000D03*
X0479000Y0619000D03*
X0479000Y0614000D03*
X0479000Y0609000D03*
X0479000Y0604000D03*
X0479000Y0599000D03*
X0479000Y0594000D03*
X0479000Y0589000D03*
X0479000Y0584000D03*
X0479000Y0579000D03*
X0479000Y0574000D03*
X0479000Y0569000D03*
X0479000Y0564000D03*
X0479000Y0559000D03*
X0479000Y0554000D03*
X0479000Y0549000D03*
X0479000Y0544000D03*
X0479000Y0539000D03*
X0479000Y0534000D03*
X0479000Y0529000D03*
X0479000Y0524000D03*
X0479000Y0519000D03*
X0479000Y0514000D03*
X0479000Y0509000D03*
X0479000Y0504000D03*
X0479000Y0499000D03*
X0479000Y0494000D03*
X0479000Y0489000D03*
X0479000Y0484000D03*
X0479000Y0479000D03*
X0479000Y0474000D03*
X0479000Y0469000D03*
X0479000Y0464000D03*
X0479000Y0459000D03*
X0479000Y0454000D03*
X0479000Y0449000D03*
X0479000Y0444000D03*
X0479000Y0439000D03*
X0479000Y0434000D03*
X0479000Y0429000D03*
X0479000Y0424000D03*
X0479000Y0419000D03*
X0479000Y0414000D03*
X0479000Y0409000D03*
X0479000Y0404000D03*
X0479000Y0399000D03*
X0479000Y0394000D03*
X0479000Y0389000D03*
X0479000Y0384000D03*
X0479000Y0379000D03*
X0479000Y0374000D03*
X0479000Y0369000D03*
X0479000Y0364000D03*
X0479000Y0359000D03*
X0479000Y0354000D03*
X0479000Y0349000D03*
X0479000Y0344000D03*
X0479000Y0339000D03*
X0479000Y0334000D03*
X0479000Y0329000D03*
X0479000Y0324000D03*
X0479000Y0319000D03*
X0479000Y0314000D03*
X0479000Y0309000D03*
X0479000Y0304000D03*
X0479000Y0299000D03*
X0479000Y0294000D03*
X0479000Y0289000D03*
X0479000Y0284000D03*
X0479000Y0279000D03*
X0479000Y0274000D03*
X0479000Y0269000D03*
X0479000Y0264000D03*
X0479000Y0259000D03*
X0479000Y0254000D03*
X0479000Y0249000D03*
X0479000Y0244000D03*
X0479000Y0239000D03*
X0479000Y0234000D03*
X0479000Y0229000D03*
X0479000Y0224000D03*
X0479000Y0219000D03*
X0479000Y0214000D03*
X0479000Y0209000D03*
X0479000Y0204000D03*
X0479000Y0199000D03*
X0479000Y0194000D03*
X0479000Y0189000D03*
X0479000Y0184000D03*
X0479000Y0179000D03*
X0479000Y0174000D03*
X0479000Y0169000D03*
X0479000Y0164000D03*
X0479000Y0159000D03*
X0479000Y0154000D03*
X0479000Y0149000D03*
X0479000Y0144000D03*
X0479000Y0139000D03*
X0479000Y0134000D03*
X0479000Y0129000D03*
X0479000Y0124000D03*
X0479000Y0119000D03*
X0479000Y0114000D03*
X0479000Y0109000D03*
X0479000Y0104000D03*
X0479000Y0099000D03*
X0479000Y0094000D03*
X0479000Y0089000D03*
X0479000Y0084000D03*
X0479000Y0079000D03*
X0479000Y0074000D03*
X0479000Y0069000D03*
X0479000Y0064000D03*
X0479000Y0059000D03*
X0479000Y0054000D03*
X0479000Y0049000D03*
X0479000Y0044000D03*
X0479000Y0039000D03*
X0479000Y0034000D03*
X0479000Y0029000D03*
X0479000Y0024000D03*
X0479000Y0019000D03*
X0479000Y0014000D03*
X0477700Y0011500D03*
X0475300Y0011500D03*
X0476500Y0009000D03*
X0474000Y0009000D03*
X0474000Y0014000D03*
X0474000Y0019000D03*
X0474000Y0024000D03*
X0474000Y0029000D03*
X0474000Y0034000D03*
X0474000Y0039000D03*
X0474000Y0044000D03*
X0474000Y0049000D03*
X0474000Y0054000D03*
X0474000Y0059000D03*
X0474000Y0064000D03*
X0474000Y0069000D03*
X0474000Y0074000D03*
X0474000Y0079000D03*
X0474000Y0084000D03*
X0474000Y0089000D03*
X0474000Y0094000D03*
X0474000Y0099000D03*
X0474000Y0104000D03*
X0474000Y0109000D03*
X0474000Y0114000D03*
X0474000Y0119000D03*
X0474000Y0124000D03*
X0474000Y0129000D03*
X0474000Y0134000D03*
X0474000Y0139000D03*
X0474000Y0144000D03*
X0474000Y0149000D03*
X0474000Y0154000D03*
X0474000Y0159000D03*
X0474000Y0164000D03*
X0474000Y0169000D03*
X0474000Y0174000D03*
X0474000Y0179000D03*
X0474000Y0184000D03*
X0474000Y0189000D03*
X0474000Y0194000D03*
X0474000Y0199000D03*
X0474000Y0204000D03*
X0474000Y0209000D03*
X0474000Y0214000D03*
X0474000Y0219000D03*
X0474000Y0224000D03*
X0474000Y0229000D03*
X0474000Y0234000D03*
X0474000Y0239000D03*
X0474000Y0244000D03*
X0474000Y0249000D03*
X0474000Y0254000D03*
X0474000Y0259000D03*
X0474000Y0264000D03*
X0474000Y0269000D03*
X0474000Y0274000D03*
X0474000Y0279000D03*
X0474000Y0284000D03*
X0474000Y0289000D03*
X0474000Y0294000D03*
X0474000Y0299000D03*
X0474000Y0304000D03*
X0474000Y0309000D03*
X0474000Y0314000D03*
X0474000Y0319000D03*
X0474000Y0324000D03*
X0474000Y0329000D03*
X0474000Y0334000D03*
X0474000Y0339000D03*
X0474000Y0344000D03*
X0474000Y0349000D03*
X0474000Y0354000D03*
X0474000Y0359000D03*
X0474000Y0364000D03*
X0474000Y0369000D03*
X0474000Y0374000D03*
X0474000Y0379000D03*
X0474000Y0384000D03*
X0474000Y0389000D03*
X0474000Y0394000D03*
X0474000Y0399000D03*
X0474000Y0404000D03*
X0474000Y0409000D03*
X0474000Y0414000D03*
X0474000Y0419000D03*
X0474000Y0424000D03*
X0474000Y0429000D03*
X0474000Y0434000D03*
X0474000Y0439000D03*
X0474000Y0444000D03*
X0474000Y0449000D03*
X0474000Y0454000D03*
X0474000Y0459000D03*
X0474000Y0464000D03*
X0474000Y0469000D03*
X0474000Y0474000D03*
X0474000Y0479000D03*
X0474000Y0484000D03*
X0474000Y0489000D03*
X0474000Y0494000D03*
X0474000Y0499000D03*
X0474000Y0504000D03*
X0474000Y0509000D03*
X0474000Y0514000D03*
X0474000Y0519000D03*
X0474000Y0524000D03*
X0474000Y0529000D03*
X0474000Y0534000D03*
X0474000Y0539000D03*
X0474000Y0544000D03*
X0474000Y0549000D03*
X0474000Y0554000D03*
X0474000Y0559000D03*
X0474000Y0564000D03*
X0474000Y0569000D03*
X0474000Y0574000D03*
X0474000Y0579000D03*
X0474000Y0584000D03*
X0474000Y0589000D03*
X0474000Y0594000D03*
X0474000Y0599000D03*
X0474000Y0604000D03*
X0474000Y0609000D03*
X0474000Y0614000D03*
X0474000Y0619000D03*
X0474000Y0624000D03*
X0474000Y0629000D03*
X0474000Y0634000D03*
X0474000Y0639000D03*
X0474000Y0644000D03*
X0474000Y0649000D03*
X0474000Y0654000D03*
X0474000Y0659000D03*
X0474000Y0664000D03*
X0469000Y0664000D03*
X0304000Y0664000D03*
X0304000Y0669000D03*
X0304000Y0674000D03*
X0304000Y0679000D03*
X0479000Y0009000D03*
D13*
X0238000Y0648000D02*
X0238000Y0687121D01*
X0237121Y0688000D01*
X0003000Y0688000D01*
X0003000Y0695000D01*
X0460000Y0695000D01*
X0460000Y0677121D01*
X0460000Y0675879D01*
X0460013Y0675866D01*
X0460879Y0675000D01*
X0480000Y0675000D01*
X0480000Y0003000D01*
X0473000Y0003000D01*
X0473000Y0647121D01*
X0472121Y0648000D01*
X0438550Y0648000D01*
X0438550Y0668081D01*
X0438081Y0668550D01*
X0432900Y0673731D01*
X0432900Y0674000D01*
X0432937Y0674285D01*
X0433222Y0674778D01*
X0433715Y0675063D01*
X0434000Y0675100D01*
X0444580Y0675100D01*
X0445045Y0675100D01*
X0446855Y0676145D01*
X0447900Y0677955D01*
X0447900Y0680045D01*
X0446855Y0681855D01*
X0446855Y0681855D01*
X0446855Y0681855D01*
X0445045Y0682900D01*
X0247955Y0682900D01*
X0246145Y0681855D01*
X0246145Y0681855D01*
X0245100Y0680045D01*
X0245100Y0677955D01*
X0246145Y0676145D01*
X0247955Y0675100D01*
X0269000Y0675100D01*
X0269285Y0675063D01*
X0269778Y0674778D01*
X0270063Y0674285D01*
X0270100Y0674000D01*
X0270100Y0673731D01*
X0264450Y0668081D01*
X0264450Y0648000D01*
X0238000Y0648000D01*
X0238000Y0648519D02*
X0264450Y0648519D01*
X0264450Y0649518D02*
X0238000Y0649518D01*
X0238000Y0650516D02*
X0264450Y0650516D01*
X0264450Y0651515D02*
X0238000Y0651515D01*
X0238000Y0652513D02*
X0264450Y0652513D01*
X0264450Y0653512D02*
X0238000Y0653512D01*
X0238000Y0654510D02*
X0264450Y0654510D01*
X0264450Y0655509D02*
X0238000Y0655509D01*
X0238000Y0656507D02*
X0264450Y0656507D01*
X0264450Y0657506D02*
X0238000Y0657506D01*
X0238000Y0658504D02*
X0264450Y0658504D01*
X0264450Y0659503D02*
X0238000Y0659503D01*
X0238000Y0660501D02*
X0264450Y0660501D01*
X0264450Y0661500D02*
X0238000Y0661500D01*
X0238000Y0662499D02*
X0264450Y0662499D01*
X0264450Y0663497D02*
X0238000Y0663497D01*
X0238000Y0664496D02*
X0264450Y0664496D01*
X0264450Y0665494D02*
X0238000Y0665494D01*
X0238000Y0666493D02*
X0264450Y0666493D01*
X0264450Y0667491D02*
X0238000Y0667491D01*
X0238000Y0668490D02*
X0264858Y0668490D01*
X0265857Y0669488D02*
X0238000Y0669488D01*
X0238000Y0670487D02*
X0266855Y0670487D01*
X0267854Y0671485D02*
X0238000Y0671485D01*
X0238000Y0672484D02*
X0268852Y0672484D01*
X0269851Y0673482D02*
X0238000Y0673482D01*
X0238000Y0674481D02*
X0269949Y0674481D01*
X0272649Y0675479D02*
X0320351Y0675479D01*
X0320100Y0675045D02*
X0320100Y0673731D01*
X0314450Y0668081D01*
X0314450Y0648000D01*
X0278550Y0648000D01*
X0278550Y0668081D01*
X0278081Y0668550D01*
X0272900Y0673731D01*
X0272900Y0675045D01*
X0271855Y0676855D01*
X0271855Y0676855D01*
X0271855Y0676855D01*
X0270045Y0677900D01*
X0249000Y0677900D01*
X0248715Y0677937D01*
X0248222Y0678222D01*
X0247937Y0678715D01*
X0247900Y0679000D01*
X0247937Y0679285D01*
X0248222Y0679778D01*
X0248715Y0680063D01*
X0249000Y0680100D01*
X0444000Y0680100D01*
X0444285Y0680063D01*
X0444778Y0679778D01*
X0445063Y0679285D01*
X0445100Y0679000D01*
X0445100Y0679000D01*
X0445063Y0678715D01*
X0444778Y0678222D01*
X0444285Y0677937D01*
X0444000Y0677900D01*
X0432955Y0677900D01*
X0431145Y0676855D01*
X0431145Y0676855D01*
X0430100Y0675045D01*
X0430100Y0673731D01*
X0424450Y0668081D01*
X0424450Y0648000D01*
X0388550Y0648000D01*
X0388550Y0668081D01*
X0382900Y0673731D01*
X0382900Y0675045D01*
X0381855Y0676855D01*
X0381855Y0676855D01*
X0381855Y0676855D01*
X0380045Y0677900D01*
X0322955Y0677900D01*
X0321145Y0676855D01*
X0321145Y0676855D01*
X0320100Y0675045D01*
X0320100Y0674481D02*
X0272900Y0674481D01*
X0273149Y0673482D02*
X0319851Y0673482D01*
X0318852Y0672484D02*
X0274148Y0672484D01*
X0275146Y0671485D02*
X0317854Y0671485D01*
X0316855Y0670487D02*
X0276145Y0670487D01*
X0277143Y0669488D02*
X0315857Y0669488D01*
X0314858Y0668490D02*
X0278142Y0668490D01*
X0278550Y0667491D02*
X0314450Y0667491D01*
X0314450Y0666493D02*
X0278550Y0666493D01*
X0278550Y0665494D02*
X0314450Y0665494D01*
X0314450Y0664496D02*
X0278550Y0664496D01*
X0278550Y0663497D02*
X0314450Y0663497D01*
X0314450Y0662499D02*
X0278550Y0662499D01*
X0278550Y0661500D02*
X0314450Y0661500D01*
X0314450Y0660501D02*
X0278550Y0660501D01*
X0278550Y0659503D02*
X0314450Y0659503D01*
X0314450Y0658504D02*
X0278550Y0658504D01*
X0278550Y0657506D02*
X0314450Y0657506D01*
X0314450Y0656507D02*
X0278550Y0656507D01*
X0278550Y0655509D02*
X0314450Y0655509D01*
X0314450Y0654510D02*
X0278550Y0654510D01*
X0278550Y0653512D02*
X0314450Y0653512D01*
X0314450Y0652513D02*
X0278550Y0652513D01*
X0278550Y0651515D02*
X0314450Y0651515D01*
X0314450Y0650516D02*
X0278550Y0650516D01*
X0278550Y0649518D02*
X0314450Y0649518D01*
X0314450Y0648519D02*
X0278550Y0648519D01*
X0272073Y0676478D02*
X0320927Y0676478D01*
X0321145Y0676855D02*
X0321145Y0676855D01*
X0322221Y0677476D02*
X0270779Y0677476D01*
X0248076Y0678475D02*
X0444924Y0678475D01*
X0444954Y0679473D02*
X0248046Y0679473D01*
X0247900Y0679000D02*
X0247900Y0679000D01*
X0245100Y0679473D02*
X0238000Y0679473D01*
X0238000Y0678475D02*
X0245100Y0678475D01*
X0245376Y0677476D02*
X0238000Y0677476D01*
X0238000Y0676478D02*
X0245953Y0676478D01*
X0246145Y0676145D02*
X0246145Y0676145D01*
X0247298Y0675479D02*
X0238000Y0675479D01*
X0238000Y0680472D02*
X0245346Y0680472D01*
X0245923Y0681470D02*
X0238000Y0681470D01*
X0238000Y0682469D02*
X0247208Y0682469D01*
X0246145Y0681855D02*
X0246145Y0681855D01*
X0238000Y0683467D02*
X0454500Y0683467D01*
X0454500Y0682469D02*
X0445792Y0682469D01*
X0447077Y0681470D02*
X0454500Y0681470D01*
X0454500Y0680472D02*
X0447654Y0680472D01*
X0447900Y0679473D02*
X0454500Y0679473D01*
X0454500Y0678475D02*
X0447900Y0678475D01*
X0447624Y0677476D02*
X0454500Y0677476D01*
X0454500Y0676478D02*
X0447047Y0676478D01*
X0446855Y0676145D02*
X0446855Y0676145D01*
X0446855Y0676145D01*
X0445702Y0675479D02*
X0454500Y0675479D01*
X0454500Y0674481D02*
X0433051Y0674481D01*
X0433149Y0673482D02*
X0454500Y0673482D01*
X0454500Y0673425D02*
X0455246Y0671624D01*
X0456624Y0670246D01*
X0456624Y0670246D01*
X0458425Y0669500D01*
X0473400Y0669500D01*
X0473685Y0669463D01*
X0474178Y0669178D01*
X0474463Y0668685D01*
X0474500Y0668400D01*
X0474500Y0013387D01*
X0473400Y0012287D01*
X0473400Y0010713D01*
X0474513Y0009600D01*
X0476087Y0009600D01*
X0476500Y0010013D01*
X0476913Y0009600D01*
X0478487Y0009600D01*
X0479600Y0010713D01*
X0479600Y0012287D01*
X0478500Y0013387D01*
X0478500Y0669575D01*
X0477754Y0671376D01*
X0476376Y0672754D01*
X0474575Y0673500D01*
X0474180Y0673500D01*
X0459600Y0673500D01*
X0459315Y0673537D01*
X0458822Y0673822D01*
X0458537Y0674315D01*
X0458500Y0674600D01*
X0458500Y0689575D01*
X0457754Y0691376D01*
X0456376Y0692754D01*
X0456376Y0692754D01*
X0454575Y0693500D01*
X0013387Y0693500D01*
X0012287Y0694600D01*
X0010713Y0694600D01*
X0009600Y0693487D01*
X0009600Y0691913D01*
X0010013Y0691500D01*
X0009600Y0691087D01*
X0009600Y0689513D01*
X0010713Y0688400D01*
X0012287Y0688400D01*
X0013387Y0689500D01*
X0449726Y0689500D01*
X0450010Y0689009D01*
X0450724Y0688596D01*
X0450821Y0688500D01*
X0452230Y0688500D01*
X0452327Y0688596D01*
X0453041Y0689009D01*
X0453325Y0689500D01*
X0453400Y0689500D01*
X0453685Y0689463D01*
X0454178Y0689178D01*
X0454463Y0688685D01*
X0454500Y0688400D01*
X0454500Y0673425D01*
X0454890Y0672484D02*
X0434148Y0672484D01*
X0435146Y0671485D02*
X0455385Y0671485D01*
X0455246Y0671624D02*
X0455246Y0671624D01*
X0456384Y0670487D02*
X0436145Y0670487D01*
X0437143Y0669488D02*
X0473490Y0669488D01*
X0474488Y0668490D02*
X0438142Y0668490D01*
X0438550Y0667491D02*
X0474500Y0667491D01*
X0474500Y0666493D02*
X0438550Y0666493D01*
X0438550Y0665494D02*
X0474500Y0665494D01*
X0474500Y0664496D02*
X0438550Y0664496D01*
X0438550Y0663497D02*
X0474500Y0663497D01*
X0474500Y0662499D02*
X0438550Y0662499D01*
X0438550Y0661500D02*
X0474500Y0661500D01*
X0474500Y0660501D02*
X0438550Y0660501D01*
X0438550Y0659503D02*
X0474500Y0659503D01*
X0474500Y0658504D02*
X0438550Y0658504D01*
X0438550Y0657506D02*
X0474500Y0657506D01*
X0474500Y0656507D02*
X0438550Y0656507D01*
X0438550Y0655509D02*
X0474500Y0655509D01*
X0474500Y0654510D02*
X0438550Y0654510D01*
X0438550Y0653512D02*
X0474500Y0653512D01*
X0474500Y0652513D02*
X0438550Y0652513D01*
X0438550Y0651515D02*
X0474500Y0651515D01*
X0474500Y0650516D02*
X0438550Y0650516D01*
X0438550Y0649518D02*
X0474500Y0649518D01*
X0474500Y0648519D02*
X0438550Y0648519D01*
X0424450Y0648519D02*
X0388550Y0648519D01*
X0388550Y0649518D02*
X0424450Y0649518D01*
X0424450Y0650516D02*
X0388550Y0650516D01*
X0388550Y0651515D02*
X0424450Y0651515D01*
X0424450Y0652513D02*
X0388550Y0652513D01*
X0388550Y0653512D02*
X0424450Y0653512D01*
X0424450Y0654510D02*
X0388550Y0654510D01*
X0388550Y0655509D02*
X0424450Y0655509D01*
X0424450Y0656507D02*
X0388550Y0656507D01*
X0388550Y0657506D02*
X0424450Y0657506D01*
X0424450Y0658504D02*
X0388550Y0658504D01*
X0388550Y0659503D02*
X0424450Y0659503D01*
X0424450Y0660501D02*
X0388550Y0660501D01*
X0388550Y0661500D02*
X0424450Y0661500D01*
X0424450Y0662499D02*
X0388550Y0662499D01*
X0388550Y0663497D02*
X0424450Y0663497D01*
X0424450Y0664496D02*
X0388550Y0664496D01*
X0388550Y0665494D02*
X0424450Y0665494D01*
X0424450Y0666493D02*
X0388550Y0666493D01*
X0388550Y0667491D02*
X0424450Y0667491D01*
X0424858Y0668490D02*
X0388142Y0668490D01*
X0387143Y0669488D02*
X0425857Y0669488D01*
X0426855Y0670487D02*
X0386145Y0670487D01*
X0385146Y0671485D02*
X0427854Y0671485D01*
X0428852Y0672484D02*
X0384148Y0672484D01*
X0383149Y0673482D02*
X0429851Y0673482D01*
X0430100Y0674481D02*
X0382900Y0674481D01*
X0382649Y0675479D02*
X0430351Y0675479D01*
X0430927Y0676478D02*
X0382073Y0676478D01*
X0380779Y0677476D02*
X0432221Y0677476D01*
X0431145Y0676855D02*
X0431145Y0676855D01*
X0445045Y0675100D02*
X0445045Y0675100D01*
X0454500Y0684466D02*
X0238000Y0684466D01*
X0238000Y0685464D02*
X0454500Y0685464D01*
X0454500Y0686463D02*
X0238000Y0686463D01*
X0237660Y0687461D02*
X0454500Y0687461D01*
X0454492Y0688460D02*
X0012347Y0688460D01*
X0013345Y0689458D02*
X0449750Y0689458D01*
X0450010Y0689009D02*
X0450010Y0689009D01*
X0450010Y0689009D01*
X0453041Y0689009D02*
X0453041Y0689009D01*
X0453041Y0689009D01*
X0453300Y0689458D02*
X0453692Y0689458D01*
X0454690Y0693452D02*
X0460000Y0693452D01*
X0460000Y0692454D02*
X0456676Y0692454D01*
X0457674Y0691455D02*
X0460000Y0691455D01*
X0460000Y0690457D02*
X0458135Y0690457D01*
X0457754Y0691376D02*
X0457754Y0691376D01*
X0458500Y0689458D02*
X0460000Y0689458D01*
X0460000Y0688460D02*
X0458500Y0688460D01*
X0458500Y0687461D02*
X0460000Y0687461D01*
X0460000Y0686463D02*
X0458500Y0686463D01*
X0458500Y0685464D02*
X0460000Y0685464D01*
X0460000Y0684466D02*
X0458500Y0684466D01*
X0458500Y0683467D02*
X0460000Y0683467D01*
X0460000Y0682469D02*
X0458500Y0682469D01*
X0458500Y0681470D02*
X0460000Y0681470D01*
X0460000Y0680472D02*
X0458500Y0680472D01*
X0458500Y0679473D02*
X0460000Y0679473D01*
X0460000Y0678475D02*
X0458500Y0678475D01*
X0458500Y0677476D02*
X0460000Y0677476D01*
X0460000Y0676478D02*
X0458500Y0676478D01*
X0458500Y0675479D02*
X0460399Y0675479D01*
X0458516Y0674481D02*
X0480000Y0674481D01*
X0480000Y0673482D02*
X0474618Y0673482D01*
X0476376Y0672754D02*
X0476376Y0672754D01*
X0476646Y0672484D02*
X0480000Y0672484D01*
X0480000Y0671485D02*
X0477645Y0671485D01*
X0477754Y0671376D02*
X0477754Y0671376D01*
X0478122Y0670487D02*
X0480000Y0670487D01*
X0480000Y0669488D02*
X0478500Y0669488D01*
X0478500Y0668490D02*
X0480000Y0668490D01*
X0480000Y0667491D02*
X0478500Y0667491D01*
X0478500Y0666493D02*
X0480000Y0666493D01*
X0480000Y0665494D02*
X0478500Y0665494D01*
X0478500Y0664496D02*
X0480000Y0664496D01*
X0480000Y0663497D02*
X0478500Y0663497D01*
X0478500Y0662499D02*
X0480000Y0662499D01*
X0480000Y0661500D02*
X0478500Y0661500D01*
X0478500Y0660501D02*
X0480000Y0660501D01*
X0480000Y0659503D02*
X0478500Y0659503D01*
X0478500Y0658504D02*
X0480000Y0658504D01*
X0480000Y0657506D02*
X0478500Y0657506D01*
X0478500Y0656507D02*
X0480000Y0656507D01*
X0480000Y0655509D02*
X0478500Y0655509D01*
X0478500Y0654510D02*
X0480000Y0654510D01*
X0480000Y0653512D02*
X0478500Y0653512D01*
X0478500Y0652513D02*
X0480000Y0652513D01*
X0480000Y0651515D02*
X0478500Y0651515D01*
X0478500Y0650516D02*
X0480000Y0650516D01*
X0480000Y0649518D02*
X0478500Y0649518D01*
X0478500Y0648519D02*
X0480000Y0648519D01*
X0480000Y0647521D02*
X0478500Y0647521D01*
X0478500Y0646522D02*
X0480000Y0646522D01*
X0480000Y0645524D02*
X0478500Y0645524D01*
X0478500Y0644525D02*
X0480000Y0644525D01*
X0480000Y0643527D02*
X0478500Y0643527D01*
X0478500Y0642528D02*
X0480000Y0642528D01*
X0480000Y0641530D02*
X0478500Y0641530D01*
X0478500Y0640531D02*
X0480000Y0640531D01*
X0480000Y0639533D02*
X0478500Y0639533D01*
X0478500Y0638534D02*
X0480000Y0638534D01*
X0480000Y0637536D02*
X0478500Y0637536D01*
X0478500Y0636537D02*
X0480000Y0636537D01*
X0480000Y0635539D02*
X0478500Y0635539D01*
X0478500Y0634540D02*
X0480000Y0634540D01*
X0480000Y0633542D02*
X0478500Y0633542D01*
X0478500Y0632543D02*
X0480000Y0632543D01*
X0480000Y0631545D02*
X0478500Y0631545D01*
X0478500Y0630546D02*
X0480000Y0630546D01*
X0480000Y0629548D02*
X0478500Y0629548D01*
X0478500Y0628549D02*
X0480000Y0628549D01*
X0480000Y0627551D02*
X0478500Y0627551D01*
X0478500Y0626552D02*
X0480000Y0626552D01*
X0480000Y0625554D02*
X0478500Y0625554D01*
X0478500Y0624555D02*
X0480000Y0624555D01*
X0480000Y0623557D02*
X0478500Y0623557D01*
X0478500Y0622558D02*
X0480000Y0622558D01*
X0480000Y0621560D02*
X0478500Y0621560D01*
X0478500Y0620561D02*
X0480000Y0620561D01*
X0480000Y0619563D02*
X0478500Y0619563D01*
X0478500Y0618564D02*
X0480000Y0618564D01*
X0480000Y0617566D02*
X0478500Y0617566D01*
X0478500Y0616567D02*
X0480000Y0616567D01*
X0480000Y0615568D02*
X0478500Y0615568D01*
X0478500Y0614570D02*
X0480000Y0614570D01*
X0480000Y0613571D02*
X0478500Y0613571D01*
X0478500Y0612573D02*
X0480000Y0612573D01*
X0480000Y0611574D02*
X0478500Y0611574D01*
X0478500Y0610576D02*
X0480000Y0610576D01*
X0480000Y0609577D02*
X0478500Y0609577D01*
X0478500Y0608579D02*
X0480000Y0608579D01*
X0480000Y0607580D02*
X0478500Y0607580D01*
X0478500Y0606582D02*
X0480000Y0606582D01*
X0480000Y0605583D02*
X0478500Y0605583D01*
X0478500Y0604585D02*
X0480000Y0604585D01*
X0480000Y0603586D02*
X0478500Y0603586D01*
X0478500Y0602588D02*
X0480000Y0602588D01*
X0480000Y0601589D02*
X0478500Y0601589D01*
X0478500Y0600591D02*
X0480000Y0600591D01*
X0480000Y0599592D02*
X0478500Y0599592D01*
X0478500Y0598594D02*
X0480000Y0598594D01*
X0480000Y0597595D02*
X0478500Y0597595D01*
X0478500Y0596597D02*
X0480000Y0596597D01*
X0480000Y0595598D02*
X0478500Y0595598D01*
X0478500Y0594600D02*
X0480000Y0594600D01*
X0480000Y0593601D02*
X0478500Y0593601D01*
X0478500Y0592603D02*
X0480000Y0592603D01*
X0480000Y0591604D02*
X0478500Y0591604D01*
X0478500Y0590606D02*
X0480000Y0590606D01*
X0480000Y0589607D02*
X0478500Y0589607D01*
X0478500Y0588609D02*
X0480000Y0588609D01*
X0480000Y0587610D02*
X0478500Y0587610D01*
X0478500Y0586612D02*
X0480000Y0586612D01*
X0480000Y0585613D02*
X0478500Y0585613D01*
X0478500Y0584615D02*
X0480000Y0584615D01*
X0480000Y0583616D02*
X0478500Y0583616D01*
X0478500Y0582618D02*
X0480000Y0582618D01*
X0480000Y0581619D02*
X0478500Y0581619D01*
X0478500Y0580621D02*
X0480000Y0580621D01*
X0480000Y0579622D02*
X0478500Y0579622D01*
X0478500Y0578624D02*
X0480000Y0578624D01*
X0480000Y0577625D02*
X0478500Y0577625D01*
X0478500Y0576627D02*
X0480000Y0576627D01*
X0480000Y0575628D02*
X0478500Y0575628D01*
X0478500Y0574630D02*
X0480000Y0574630D01*
X0480000Y0573631D02*
X0478500Y0573631D01*
X0478500Y0572632D02*
X0480000Y0572632D01*
X0480000Y0571634D02*
X0478500Y0571634D01*
X0478500Y0570635D02*
X0480000Y0570635D01*
X0480000Y0569637D02*
X0478500Y0569637D01*
X0478500Y0568638D02*
X0480000Y0568638D01*
X0480000Y0567640D02*
X0478500Y0567640D01*
X0478500Y0566641D02*
X0480000Y0566641D01*
X0480000Y0565643D02*
X0478500Y0565643D01*
X0478500Y0564644D02*
X0480000Y0564644D01*
X0480000Y0563646D02*
X0478500Y0563646D01*
X0478500Y0562647D02*
X0480000Y0562647D01*
X0480000Y0561649D02*
X0478500Y0561649D01*
X0478500Y0560650D02*
X0480000Y0560650D01*
X0480000Y0559652D02*
X0478500Y0559652D01*
X0478500Y0558653D02*
X0480000Y0558653D01*
X0480000Y0557655D02*
X0478500Y0557655D01*
X0478500Y0556656D02*
X0480000Y0556656D01*
X0480000Y0555658D02*
X0478500Y0555658D01*
X0478500Y0554659D02*
X0480000Y0554659D01*
X0480000Y0553661D02*
X0478500Y0553661D01*
X0478500Y0552662D02*
X0480000Y0552662D01*
X0480000Y0551664D02*
X0478500Y0551664D01*
X0478500Y0550665D02*
X0480000Y0550665D01*
X0480000Y0549667D02*
X0478500Y0549667D01*
X0478500Y0548668D02*
X0480000Y0548668D01*
X0480000Y0547670D02*
X0478500Y0547670D01*
X0478500Y0546671D02*
X0480000Y0546671D01*
X0480000Y0545673D02*
X0478500Y0545673D01*
X0478500Y0544674D02*
X0480000Y0544674D01*
X0480000Y0543676D02*
X0478500Y0543676D01*
X0478500Y0542677D02*
X0480000Y0542677D01*
X0480000Y0541679D02*
X0478500Y0541679D01*
X0478500Y0540680D02*
X0480000Y0540680D01*
X0480000Y0539682D02*
X0478500Y0539682D01*
X0478500Y0538683D02*
X0480000Y0538683D01*
X0480000Y0537685D02*
X0478500Y0537685D01*
X0478500Y0536686D02*
X0480000Y0536686D01*
X0480000Y0535688D02*
X0478500Y0535688D01*
X0478500Y0534689D02*
X0480000Y0534689D01*
X0480000Y0533691D02*
X0478500Y0533691D01*
X0478500Y0532692D02*
X0480000Y0532692D01*
X0480000Y0531694D02*
X0478500Y0531694D01*
X0478500Y0530695D02*
X0480000Y0530695D01*
X0480000Y0529697D02*
X0478500Y0529697D01*
X0478500Y0528698D02*
X0480000Y0528698D01*
X0480000Y0527699D02*
X0478500Y0527699D01*
X0478500Y0526701D02*
X0480000Y0526701D01*
X0480000Y0525702D02*
X0478500Y0525702D01*
X0478500Y0524704D02*
X0480000Y0524704D01*
X0480000Y0523705D02*
X0478500Y0523705D01*
X0478500Y0522707D02*
X0480000Y0522707D01*
X0480000Y0521708D02*
X0478500Y0521708D01*
X0478500Y0520710D02*
X0480000Y0520710D01*
X0480000Y0519711D02*
X0478500Y0519711D01*
X0478500Y0518713D02*
X0480000Y0518713D01*
X0480000Y0517714D02*
X0478500Y0517714D01*
X0478500Y0516716D02*
X0480000Y0516716D01*
X0480000Y0515717D02*
X0478500Y0515717D01*
X0478500Y0514719D02*
X0480000Y0514719D01*
X0480000Y0513720D02*
X0478500Y0513720D01*
X0478500Y0512722D02*
X0480000Y0512722D01*
X0480000Y0511723D02*
X0478500Y0511723D01*
X0478500Y0510725D02*
X0480000Y0510725D01*
X0480000Y0509726D02*
X0478500Y0509726D01*
X0478500Y0508728D02*
X0480000Y0508728D01*
X0480000Y0507729D02*
X0478500Y0507729D01*
X0478500Y0506731D02*
X0480000Y0506731D01*
X0480000Y0505732D02*
X0478500Y0505732D01*
X0478500Y0504734D02*
X0480000Y0504734D01*
X0480000Y0503735D02*
X0478500Y0503735D01*
X0478500Y0502737D02*
X0480000Y0502737D01*
X0480000Y0501738D02*
X0478500Y0501738D01*
X0478500Y0500740D02*
X0480000Y0500740D01*
X0480000Y0499741D02*
X0478500Y0499741D01*
X0478500Y0498743D02*
X0480000Y0498743D01*
X0480000Y0497744D02*
X0478500Y0497744D01*
X0478500Y0496746D02*
X0480000Y0496746D01*
X0480000Y0495747D02*
X0478500Y0495747D01*
X0478500Y0494749D02*
X0480000Y0494749D01*
X0480000Y0493750D02*
X0478500Y0493750D01*
X0478500Y0492752D02*
X0480000Y0492752D01*
X0480000Y0491753D02*
X0478500Y0491753D01*
X0478500Y0490755D02*
X0480000Y0490755D01*
X0480000Y0489756D02*
X0478500Y0489756D01*
X0478500Y0488758D02*
X0480000Y0488758D01*
X0480000Y0487759D02*
X0478500Y0487759D01*
X0478500Y0486761D02*
X0480000Y0486761D01*
X0480000Y0485762D02*
X0478500Y0485762D01*
X0478500Y0484763D02*
X0480000Y0484763D01*
X0480000Y0483765D02*
X0478500Y0483765D01*
X0478500Y0482766D02*
X0480000Y0482766D01*
X0480000Y0481768D02*
X0478500Y0481768D01*
X0478500Y0480769D02*
X0480000Y0480769D01*
X0480000Y0479771D02*
X0478500Y0479771D01*
X0478500Y0478772D02*
X0480000Y0478772D01*
X0480000Y0477774D02*
X0478500Y0477774D01*
X0478500Y0476775D02*
X0480000Y0476775D01*
X0480000Y0475777D02*
X0478500Y0475777D01*
X0478500Y0474778D02*
X0480000Y0474778D01*
X0480000Y0473780D02*
X0478500Y0473780D01*
X0478500Y0472781D02*
X0480000Y0472781D01*
X0480000Y0471783D02*
X0478500Y0471783D01*
X0478500Y0470784D02*
X0480000Y0470784D01*
X0480000Y0469786D02*
X0478500Y0469786D01*
X0478500Y0468787D02*
X0480000Y0468787D01*
X0480000Y0467789D02*
X0478500Y0467789D01*
X0478500Y0466790D02*
X0480000Y0466790D01*
X0480000Y0465792D02*
X0478500Y0465792D01*
X0478500Y0464793D02*
X0480000Y0464793D01*
X0480000Y0463795D02*
X0478500Y0463795D01*
X0478500Y0462796D02*
X0480000Y0462796D01*
X0480000Y0461798D02*
X0478500Y0461798D01*
X0478500Y0460799D02*
X0480000Y0460799D01*
X0480000Y0459801D02*
X0478500Y0459801D01*
X0478500Y0458802D02*
X0480000Y0458802D01*
X0480000Y0457804D02*
X0478500Y0457804D01*
X0478500Y0456805D02*
X0480000Y0456805D01*
X0480000Y0455807D02*
X0478500Y0455807D01*
X0478500Y0454808D02*
X0480000Y0454808D01*
X0480000Y0453810D02*
X0478500Y0453810D01*
X0478500Y0452811D02*
X0480000Y0452811D01*
X0480000Y0451813D02*
X0478500Y0451813D01*
X0478500Y0450814D02*
X0480000Y0450814D01*
X0480000Y0449816D02*
X0478500Y0449816D01*
X0478500Y0448817D02*
X0480000Y0448817D01*
X0480000Y0447819D02*
X0478500Y0447819D01*
X0478500Y0446820D02*
X0480000Y0446820D01*
X0480000Y0445822D02*
X0478500Y0445822D01*
X0478500Y0444823D02*
X0480000Y0444823D01*
X0480000Y0443825D02*
X0478500Y0443825D01*
X0478500Y0442826D02*
X0480000Y0442826D01*
X0480000Y0441828D02*
X0478500Y0441828D01*
X0478500Y0440829D02*
X0480000Y0440829D01*
X0480000Y0439830D02*
X0478500Y0439830D01*
X0478500Y0438832D02*
X0480000Y0438832D01*
X0480000Y0437833D02*
X0478500Y0437833D01*
X0478500Y0436835D02*
X0480000Y0436835D01*
X0480000Y0435836D02*
X0478500Y0435836D01*
X0478500Y0434838D02*
X0480000Y0434838D01*
X0480000Y0433839D02*
X0478500Y0433839D01*
X0478500Y0432841D02*
X0480000Y0432841D01*
X0480000Y0431842D02*
X0478500Y0431842D01*
X0478500Y0430844D02*
X0480000Y0430844D01*
X0480000Y0429845D02*
X0478500Y0429845D01*
X0478500Y0428847D02*
X0480000Y0428847D01*
X0480000Y0427848D02*
X0478500Y0427848D01*
X0478500Y0426850D02*
X0480000Y0426850D01*
X0480000Y0425851D02*
X0478500Y0425851D01*
X0478500Y0424853D02*
X0480000Y0424853D01*
X0480000Y0423854D02*
X0478500Y0423854D01*
X0478500Y0422856D02*
X0480000Y0422856D01*
X0480000Y0421857D02*
X0478500Y0421857D01*
X0478500Y0420859D02*
X0480000Y0420859D01*
X0480000Y0419860D02*
X0478500Y0419860D01*
X0478500Y0418862D02*
X0480000Y0418862D01*
X0480000Y0417863D02*
X0478500Y0417863D01*
X0478500Y0416865D02*
X0480000Y0416865D01*
X0480000Y0415866D02*
X0478500Y0415866D01*
X0478500Y0414868D02*
X0480000Y0414868D01*
X0480000Y0413869D02*
X0478500Y0413869D01*
X0478500Y0412871D02*
X0480000Y0412871D01*
X0480000Y0411872D02*
X0478500Y0411872D01*
X0478500Y0410874D02*
X0480000Y0410874D01*
X0480000Y0409875D02*
X0478500Y0409875D01*
X0478500Y0408877D02*
X0480000Y0408877D01*
X0480000Y0407878D02*
X0478500Y0407878D01*
X0478500Y0406880D02*
X0480000Y0406880D01*
X0480000Y0405881D02*
X0478500Y0405881D01*
X0478500Y0404883D02*
X0480000Y0404883D01*
X0480000Y0403884D02*
X0478500Y0403884D01*
X0478500Y0402886D02*
X0480000Y0402886D01*
X0480000Y0401887D02*
X0478500Y0401887D01*
X0478500Y0400889D02*
X0480000Y0400889D01*
X0480000Y0399890D02*
X0478500Y0399890D01*
X0478500Y0398892D02*
X0480000Y0398892D01*
X0480000Y0397893D02*
X0478500Y0397893D01*
X0478500Y0396895D02*
X0480000Y0396895D01*
X0480000Y0395896D02*
X0478500Y0395896D01*
X0478500Y0394897D02*
X0480000Y0394897D01*
X0480000Y0393899D02*
X0478500Y0393899D01*
X0478500Y0392900D02*
X0480000Y0392900D01*
X0480000Y0391902D02*
X0478500Y0391902D01*
X0478500Y0390903D02*
X0480000Y0390903D01*
X0480000Y0389905D02*
X0478500Y0389905D01*
X0478500Y0388906D02*
X0480000Y0388906D01*
X0480000Y0387908D02*
X0478500Y0387908D01*
X0478500Y0386909D02*
X0480000Y0386909D01*
X0480000Y0385911D02*
X0478500Y0385911D01*
X0478500Y0384912D02*
X0480000Y0384912D01*
X0480000Y0383914D02*
X0478500Y0383914D01*
X0478500Y0382915D02*
X0480000Y0382915D01*
X0480000Y0381917D02*
X0478500Y0381917D01*
X0478500Y0380918D02*
X0480000Y0380918D01*
X0480000Y0379920D02*
X0478500Y0379920D01*
X0478500Y0378921D02*
X0480000Y0378921D01*
X0480000Y0377923D02*
X0478500Y0377923D01*
X0478500Y0376924D02*
X0480000Y0376924D01*
X0480000Y0375926D02*
X0478500Y0375926D01*
X0478500Y0374927D02*
X0480000Y0374927D01*
X0480000Y0373929D02*
X0478500Y0373929D01*
X0478500Y0372930D02*
X0480000Y0372930D01*
X0480000Y0371932D02*
X0478500Y0371932D01*
X0478500Y0370933D02*
X0480000Y0370933D01*
X0480000Y0369935D02*
X0478500Y0369935D01*
X0478500Y0368936D02*
X0480000Y0368936D01*
X0480000Y0367938D02*
X0478500Y0367938D01*
X0478500Y0366939D02*
X0480000Y0366939D01*
X0480000Y0365941D02*
X0478500Y0365941D01*
X0478500Y0364942D02*
X0480000Y0364942D01*
X0480000Y0363944D02*
X0478500Y0363944D01*
X0478500Y0362945D02*
X0480000Y0362945D01*
X0480000Y0361947D02*
X0478500Y0361947D01*
X0478500Y0360948D02*
X0480000Y0360948D01*
X0480000Y0359950D02*
X0478500Y0359950D01*
X0478500Y0358951D02*
X0480000Y0358951D01*
X0480000Y0357953D02*
X0478500Y0357953D01*
X0478500Y0356954D02*
X0480000Y0356954D01*
X0480000Y0355956D02*
X0478500Y0355956D01*
X0478500Y0354957D02*
X0480000Y0354957D01*
X0480000Y0353959D02*
X0478500Y0353959D01*
X0478500Y0352960D02*
X0480000Y0352960D01*
X0480000Y0351961D02*
X0478500Y0351961D01*
X0478500Y0350963D02*
X0480000Y0350963D01*
X0480000Y0349964D02*
X0478500Y0349964D01*
X0478500Y0348966D02*
X0480000Y0348966D01*
X0480000Y0347967D02*
X0478500Y0347967D01*
X0478500Y0346969D02*
X0480000Y0346969D01*
X0480000Y0345970D02*
X0478500Y0345970D01*
X0478500Y0344972D02*
X0480000Y0344972D01*
X0480000Y0343973D02*
X0478500Y0343973D01*
X0478500Y0342975D02*
X0480000Y0342975D01*
X0480000Y0341976D02*
X0478500Y0341976D01*
X0478500Y0340978D02*
X0480000Y0340978D01*
X0480000Y0339979D02*
X0478500Y0339979D01*
X0478500Y0338981D02*
X0480000Y0338981D01*
X0480000Y0337982D02*
X0478500Y0337982D01*
X0478500Y0336984D02*
X0480000Y0336984D01*
X0480000Y0335985D02*
X0478500Y0335985D01*
X0478500Y0334987D02*
X0480000Y0334987D01*
X0480000Y0333988D02*
X0478500Y0333988D01*
X0478500Y0332990D02*
X0480000Y0332990D01*
X0480000Y0331991D02*
X0478500Y0331991D01*
X0478500Y0330993D02*
X0480000Y0330993D01*
X0480000Y0329994D02*
X0478500Y0329994D01*
X0478500Y0328996D02*
X0480000Y0328996D01*
X0480000Y0327997D02*
X0478500Y0327997D01*
X0478500Y0326999D02*
X0480000Y0326999D01*
X0480000Y0326000D02*
X0478500Y0326000D01*
X0478500Y0325002D02*
X0480000Y0325002D01*
X0480000Y0324003D02*
X0478500Y0324003D01*
X0478500Y0323005D02*
X0480000Y0323005D01*
X0480000Y0322006D02*
X0478500Y0322006D01*
X0478500Y0321008D02*
X0480000Y0321008D01*
X0480000Y0320009D02*
X0478500Y0320009D01*
X0478500Y0319011D02*
X0480000Y0319011D01*
X0480000Y0318012D02*
X0478500Y0318012D01*
X0478500Y0317014D02*
X0480000Y0317014D01*
X0480000Y0316015D02*
X0478500Y0316015D01*
X0478500Y0315017D02*
X0480000Y0315017D01*
X0480000Y0314018D02*
X0478500Y0314018D01*
X0478500Y0313020D02*
X0480000Y0313020D01*
X0480000Y0312021D02*
X0478500Y0312021D01*
X0478500Y0311023D02*
X0480000Y0311023D01*
X0480000Y0310024D02*
X0478500Y0310024D01*
X0478500Y0309026D02*
X0480000Y0309026D01*
X0480000Y0308027D02*
X0478500Y0308027D01*
X0478500Y0307028D02*
X0480000Y0307028D01*
X0480000Y0306030D02*
X0478500Y0306030D01*
X0478500Y0305031D02*
X0480000Y0305031D01*
X0480000Y0304033D02*
X0478500Y0304033D01*
X0478500Y0303034D02*
X0480000Y0303034D01*
X0480000Y0302036D02*
X0478500Y0302036D01*
X0478500Y0301037D02*
X0480000Y0301037D01*
X0480000Y0300039D02*
X0478500Y0300039D01*
X0478500Y0299040D02*
X0480000Y0299040D01*
X0480000Y0298042D02*
X0478500Y0298042D01*
X0478500Y0297043D02*
X0480000Y0297043D01*
X0480000Y0296045D02*
X0478500Y0296045D01*
X0478500Y0295046D02*
X0480000Y0295046D01*
X0480000Y0294048D02*
X0478500Y0294048D01*
X0478500Y0293049D02*
X0480000Y0293049D01*
X0480000Y0292051D02*
X0478500Y0292051D01*
X0478500Y0291052D02*
X0480000Y0291052D01*
X0480000Y0290054D02*
X0478500Y0290054D01*
X0478500Y0289055D02*
X0480000Y0289055D01*
X0480000Y0288057D02*
X0478500Y0288057D01*
X0478500Y0287058D02*
X0480000Y0287058D01*
X0480000Y0286060D02*
X0478500Y0286060D01*
X0478500Y0285061D02*
X0480000Y0285061D01*
X0480000Y0284063D02*
X0478500Y0284063D01*
X0478500Y0283064D02*
X0480000Y0283064D01*
X0480000Y0282066D02*
X0478500Y0282066D01*
X0478500Y0281067D02*
X0480000Y0281067D01*
X0480000Y0280069D02*
X0478500Y0280069D01*
X0478500Y0279070D02*
X0480000Y0279070D01*
X0480000Y0278072D02*
X0478500Y0278072D01*
X0478500Y0277073D02*
X0480000Y0277073D01*
X0480000Y0276075D02*
X0478500Y0276075D01*
X0478500Y0275076D02*
X0480000Y0275076D01*
X0480000Y0274078D02*
X0478500Y0274078D01*
X0478500Y0273079D02*
X0480000Y0273079D01*
X0480000Y0272081D02*
X0478500Y0272081D01*
X0478500Y0271082D02*
X0480000Y0271082D01*
X0480000Y0270084D02*
X0478500Y0270084D01*
X0478500Y0269085D02*
X0480000Y0269085D01*
X0480000Y0268087D02*
X0478500Y0268087D01*
X0478500Y0267088D02*
X0480000Y0267088D01*
X0480000Y0266090D02*
X0478500Y0266090D01*
X0478500Y0265091D02*
X0480000Y0265091D01*
X0480000Y0264092D02*
X0478500Y0264092D01*
X0478500Y0263094D02*
X0480000Y0263094D01*
X0480000Y0262095D02*
X0478500Y0262095D01*
X0478500Y0261097D02*
X0480000Y0261097D01*
X0480000Y0260098D02*
X0478500Y0260098D01*
X0478500Y0259100D02*
X0480000Y0259100D01*
X0480000Y0258101D02*
X0478500Y0258101D01*
X0478500Y0257103D02*
X0480000Y0257103D01*
X0480000Y0256104D02*
X0478500Y0256104D01*
X0478500Y0255106D02*
X0480000Y0255106D01*
X0480000Y0254107D02*
X0478500Y0254107D01*
X0478500Y0253109D02*
X0480000Y0253109D01*
X0480000Y0252110D02*
X0478500Y0252110D01*
X0478500Y0251112D02*
X0480000Y0251112D01*
X0480000Y0250113D02*
X0478500Y0250113D01*
X0478500Y0249115D02*
X0480000Y0249115D01*
X0480000Y0248116D02*
X0478500Y0248116D01*
X0478500Y0247118D02*
X0480000Y0247118D01*
X0480000Y0246119D02*
X0478500Y0246119D01*
X0478500Y0245121D02*
X0480000Y0245121D01*
X0480000Y0244122D02*
X0478500Y0244122D01*
X0478500Y0243124D02*
X0480000Y0243124D01*
X0480000Y0242125D02*
X0478500Y0242125D01*
X0478500Y0241127D02*
X0480000Y0241127D01*
X0480000Y0240128D02*
X0478500Y0240128D01*
X0478500Y0239130D02*
X0480000Y0239130D01*
X0480000Y0238131D02*
X0478500Y0238131D01*
X0478500Y0237133D02*
X0480000Y0237133D01*
X0480000Y0236134D02*
X0478500Y0236134D01*
X0478500Y0235136D02*
X0480000Y0235136D01*
X0480000Y0234137D02*
X0478500Y0234137D01*
X0478500Y0233139D02*
X0480000Y0233139D01*
X0480000Y0232140D02*
X0478500Y0232140D01*
X0478500Y0231142D02*
X0480000Y0231142D01*
X0480000Y0230143D02*
X0478500Y0230143D01*
X0478500Y0229145D02*
X0480000Y0229145D01*
X0480000Y0228146D02*
X0478500Y0228146D01*
X0478500Y0227148D02*
X0480000Y0227148D01*
X0480000Y0226149D02*
X0478500Y0226149D01*
X0478500Y0225151D02*
X0480000Y0225151D01*
X0480000Y0224152D02*
X0478500Y0224152D01*
X0478500Y0223154D02*
X0480000Y0223154D01*
X0480000Y0222155D02*
X0478500Y0222155D01*
X0478500Y0221157D02*
X0480000Y0221157D01*
X0480000Y0220158D02*
X0478500Y0220158D01*
X0478500Y0219159D02*
X0480000Y0219159D01*
X0480000Y0218161D02*
X0478500Y0218161D01*
X0478500Y0217162D02*
X0480000Y0217162D01*
X0480000Y0216164D02*
X0478500Y0216164D01*
X0478500Y0215165D02*
X0480000Y0215165D01*
X0480000Y0214167D02*
X0478500Y0214167D01*
X0478500Y0213168D02*
X0480000Y0213168D01*
X0480000Y0212170D02*
X0478500Y0212170D01*
X0478500Y0211171D02*
X0480000Y0211171D01*
X0480000Y0210173D02*
X0478500Y0210173D01*
X0478500Y0209174D02*
X0480000Y0209174D01*
X0480000Y0208176D02*
X0478500Y0208176D01*
X0478500Y0207177D02*
X0480000Y0207177D01*
X0480000Y0206179D02*
X0478500Y0206179D01*
X0478500Y0205180D02*
X0480000Y0205180D01*
X0480000Y0204182D02*
X0478500Y0204182D01*
X0478500Y0203183D02*
X0480000Y0203183D01*
X0480000Y0202185D02*
X0478500Y0202185D01*
X0478500Y0201186D02*
X0480000Y0201186D01*
X0480000Y0200188D02*
X0478500Y0200188D01*
X0478500Y0199189D02*
X0480000Y0199189D01*
X0480000Y0198191D02*
X0478500Y0198191D01*
X0478500Y0197192D02*
X0480000Y0197192D01*
X0480000Y0196194D02*
X0478500Y0196194D01*
X0478500Y0195195D02*
X0480000Y0195195D01*
X0480000Y0194197D02*
X0478500Y0194197D01*
X0478500Y0193198D02*
X0480000Y0193198D01*
X0480000Y0192200D02*
X0478500Y0192200D01*
X0478500Y0191201D02*
X0480000Y0191201D01*
X0480000Y0190203D02*
X0478500Y0190203D01*
X0478500Y0189204D02*
X0480000Y0189204D01*
X0480000Y0188206D02*
X0478500Y0188206D01*
X0478500Y0187207D02*
X0480000Y0187207D01*
X0480000Y0186209D02*
X0478500Y0186209D01*
X0478500Y0185210D02*
X0480000Y0185210D01*
X0480000Y0184212D02*
X0478500Y0184212D01*
X0478500Y0183213D02*
X0480000Y0183213D01*
X0480000Y0182215D02*
X0478500Y0182215D01*
X0478500Y0181216D02*
X0480000Y0181216D01*
X0480000Y0180218D02*
X0478500Y0180218D01*
X0478500Y0179219D02*
X0480000Y0179219D01*
X0480000Y0178221D02*
X0478500Y0178221D01*
X0478500Y0177222D02*
X0480000Y0177222D01*
X0480000Y0176223D02*
X0478500Y0176223D01*
X0478500Y0175225D02*
X0480000Y0175225D01*
X0480000Y0174226D02*
X0478500Y0174226D01*
X0478500Y0173228D02*
X0480000Y0173228D01*
X0480000Y0172229D02*
X0478500Y0172229D01*
X0478500Y0171231D02*
X0480000Y0171231D01*
X0480000Y0170232D02*
X0478500Y0170232D01*
X0478500Y0169234D02*
X0480000Y0169234D01*
X0480000Y0168235D02*
X0478500Y0168235D01*
X0478500Y0167237D02*
X0480000Y0167237D01*
X0480000Y0166238D02*
X0478500Y0166238D01*
X0478500Y0165240D02*
X0480000Y0165240D01*
X0480000Y0164241D02*
X0478500Y0164241D01*
X0478500Y0163243D02*
X0480000Y0163243D01*
X0480000Y0162244D02*
X0478500Y0162244D01*
X0478500Y0161246D02*
X0480000Y0161246D01*
X0480000Y0160247D02*
X0478500Y0160247D01*
X0478500Y0159249D02*
X0480000Y0159249D01*
X0480000Y0158250D02*
X0478500Y0158250D01*
X0478500Y0157252D02*
X0480000Y0157252D01*
X0480000Y0156253D02*
X0478500Y0156253D01*
X0478500Y0155255D02*
X0480000Y0155255D01*
X0480000Y0154256D02*
X0478500Y0154256D01*
X0478500Y0153258D02*
X0480000Y0153258D01*
X0480000Y0152259D02*
X0478500Y0152259D01*
X0478500Y0151261D02*
X0480000Y0151261D01*
X0480000Y0150262D02*
X0478500Y0150262D01*
X0478500Y0149264D02*
X0480000Y0149264D01*
X0480000Y0148265D02*
X0478500Y0148265D01*
X0478500Y0147267D02*
X0480000Y0147267D01*
X0480000Y0146268D02*
X0478500Y0146268D01*
X0478500Y0145270D02*
X0480000Y0145270D01*
X0480000Y0144271D02*
X0478500Y0144271D01*
X0478500Y0143273D02*
X0480000Y0143273D01*
X0480000Y0142274D02*
X0478500Y0142274D01*
X0478500Y0141276D02*
X0480000Y0141276D01*
X0480000Y0140277D02*
X0478500Y0140277D01*
X0478500Y0139279D02*
X0480000Y0139279D01*
X0480000Y0138280D02*
X0478500Y0138280D01*
X0478500Y0137282D02*
X0480000Y0137282D01*
X0480000Y0136283D02*
X0478500Y0136283D01*
X0478500Y0135285D02*
X0480000Y0135285D01*
X0480000Y0134286D02*
X0478500Y0134286D01*
X0478500Y0133288D02*
X0480000Y0133288D01*
X0480000Y0132289D02*
X0478500Y0132289D01*
X0478500Y0131290D02*
X0480000Y0131290D01*
X0480000Y0130292D02*
X0478500Y0130292D01*
X0478500Y0129293D02*
X0480000Y0129293D01*
X0480000Y0128295D02*
X0478500Y0128295D01*
X0478500Y0127296D02*
X0480000Y0127296D01*
X0480000Y0126298D02*
X0478500Y0126298D01*
X0478500Y0125299D02*
X0480000Y0125299D01*
X0480000Y0124301D02*
X0478500Y0124301D01*
X0478500Y0123302D02*
X0480000Y0123302D01*
X0480000Y0122304D02*
X0478500Y0122304D01*
X0478500Y0121305D02*
X0480000Y0121305D01*
X0480000Y0120307D02*
X0478500Y0120307D01*
X0478500Y0119308D02*
X0480000Y0119308D01*
X0480000Y0118310D02*
X0478500Y0118310D01*
X0478500Y0117311D02*
X0480000Y0117311D01*
X0480000Y0116313D02*
X0478500Y0116313D01*
X0478500Y0115314D02*
X0480000Y0115314D01*
X0480000Y0114316D02*
X0478500Y0114316D01*
X0478500Y0113317D02*
X0480000Y0113317D01*
X0480000Y0112319D02*
X0478500Y0112319D01*
X0478500Y0111320D02*
X0480000Y0111320D01*
X0480000Y0110322D02*
X0478500Y0110322D01*
X0478500Y0109323D02*
X0480000Y0109323D01*
X0480000Y0108325D02*
X0478500Y0108325D01*
X0478500Y0107326D02*
X0480000Y0107326D01*
X0480000Y0106328D02*
X0478500Y0106328D01*
X0478500Y0105329D02*
X0480000Y0105329D01*
X0480000Y0104331D02*
X0478500Y0104331D01*
X0478500Y0103332D02*
X0480000Y0103332D01*
X0480000Y0102334D02*
X0478500Y0102334D01*
X0478500Y0101335D02*
X0480000Y0101335D01*
X0480000Y0100337D02*
X0478500Y0100337D01*
X0478500Y0099338D02*
X0480000Y0099338D01*
X0480000Y0098340D02*
X0478500Y0098340D01*
X0478500Y0097341D02*
X0480000Y0097341D01*
X0480000Y0096343D02*
X0478500Y0096343D01*
X0478500Y0095344D02*
X0480000Y0095344D01*
X0480000Y0094346D02*
X0478500Y0094346D01*
X0478500Y0093347D02*
X0480000Y0093347D01*
X0480000Y0092349D02*
X0478500Y0092349D01*
X0478500Y0091350D02*
X0480000Y0091350D01*
X0480000Y0090352D02*
X0478500Y0090352D01*
X0478500Y0089353D02*
X0480000Y0089353D01*
X0480000Y0088355D02*
X0478500Y0088355D01*
X0478500Y0087356D02*
X0480000Y0087356D01*
X0480000Y0086357D02*
X0478500Y0086357D01*
X0478500Y0085359D02*
X0480000Y0085359D01*
X0480000Y0084360D02*
X0478500Y0084360D01*
X0478500Y0083362D02*
X0480000Y0083362D01*
X0480000Y0082363D02*
X0478500Y0082363D01*
X0478500Y0081365D02*
X0480000Y0081365D01*
X0480000Y0080366D02*
X0478500Y0080366D01*
X0478500Y0079368D02*
X0480000Y0079368D01*
X0480000Y0078369D02*
X0478500Y0078369D01*
X0478500Y0077371D02*
X0480000Y0077371D01*
X0480000Y0076372D02*
X0478500Y0076372D01*
X0478500Y0075374D02*
X0480000Y0075374D01*
X0480000Y0074375D02*
X0478500Y0074375D01*
X0478500Y0073377D02*
X0480000Y0073377D01*
X0480000Y0072378D02*
X0478500Y0072378D01*
X0478500Y0071380D02*
X0480000Y0071380D01*
X0480000Y0070381D02*
X0478500Y0070381D01*
X0478500Y0069383D02*
X0480000Y0069383D01*
X0480000Y0068384D02*
X0478500Y0068384D01*
X0478500Y0067386D02*
X0480000Y0067386D01*
X0480000Y0066387D02*
X0478500Y0066387D01*
X0478500Y0065389D02*
X0480000Y0065389D01*
X0480000Y0064390D02*
X0478500Y0064390D01*
X0478500Y0063392D02*
X0480000Y0063392D01*
X0480000Y0062393D02*
X0478500Y0062393D01*
X0478500Y0061395D02*
X0480000Y0061395D01*
X0480000Y0060396D02*
X0478500Y0060396D01*
X0478500Y0059398D02*
X0480000Y0059398D01*
X0480000Y0058399D02*
X0478500Y0058399D01*
X0478500Y0057401D02*
X0480000Y0057401D01*
X0480000Y0056402D02*
X0478500Y0056402D01*
X0478500Y0055404D02*
X0480000Y0055404D01*
X0480000Y0054405D02*
X0478500Y0054405D01*
X0478500Y0053407D02*
X0480000Y0053407D01*
X0480000Y0052408D02*
X0478500Y0052408D01*
X0478500Y0051410D02*
X0480000Y0051410D01*
X0480000Y0050411D02*
X0478500Y0050411D01*
X0478500Y0049413D02*
X0480000Y0049413D01*
X0480000Y0048414D02*
X0478500Y0048414D01*
X0478500Y0047416D02*
X0480000Y0047416D01*
X0480000Y0046417D02*
X0478500Y0046417D01*
X0478500Y0045419D02*
X0480000Y0045419D01*
X0480000Y0044420D02*
X0478500Y0044420D01*
X0478500Y0043421D02*
X0480000Y0043421D01*
X0480000Y0042423D02*
X0478500Y0042423D01*
X0478500Y0041424D02*
X0480000Y0041424D01*
X0480000Y0040426D02*
X0478500Y0040426D01*
X0478500Y0039427D02*
X0480000Y0039427D01*
X0480000Y0038429D02*
X0478500Y0038429D01*
X0478500Y0037430D02*
X0480000Y0037430D01*
X0480000Y0036432D02*
X0478500Y0036432D01*
X0478500Y0035433D02*
X0480000Y0035433D01*
X0480000Y0034435D02*
X0478500Y0034435D01*
X0478500Y0033436D02*
X0480000Y0033436D01*
X0480000Y0032438D02*
X0478500Y0032438D01*
X0478500Y0031439D02*
X0480000Y0031439D01*
X0480000Y0030441D02*
X0478500Y0030441D01*
X0478500Y0029442D02*
X0480000Y0029442D01*
X0480000Y0028444D02*
X0478500Y0028444D01*
X0478500Y0027445D02*
X0480000Y0027445D01*
X0480000Y0026447D02*
X0478500Y0026447D01*
X0478500Y0025448D02*
X0480000Y0025448D01*
X0480000Y0024450D02*
X0478500Y0024450D01*
X0478500Y0023451D02*
X0480000Y0023451D01*
X0480000Y0022453D02*
X0478500Y0022453D01*
X0478500Y0021454D02*
X0480000Y0021454D01*
X0480000Y0020456D02*
X0478500Y0020456D01*
X0478500Y0019457D02*
X0480000Y0019457D01*
X0480000Y0018459D02*
X0478500Y0018459D01*
X0478500Y0017460D02*
X0480000Y0017460D01*
X0480000Y0016462D02*
X0478500Y0016462D01*
X0478500Y0015463D02*
X0480000Y0015463D01*
X0480000Y0014465D02*
X0478500Y0014465D01*
X0478500Y0013466D02*
X0480000Y0013466D01*
X0480000Y0012468D02*
X0479419Y0012468D01*
X0479600Y0011469D02*
X0480000Y0011469D01*
X0480000Y0010471D02*
X0479358Y0010471D01*
X0480000Y0009472D02*
X0473000Y0009472D01*
X0473000Y0008474D02*
X0480000Y0008474D01*
X0480000Y0007475D02*
X0473000Y0007475D01*
X0473000Y0006477D02*
X0480000Y0006477D01*
X0480000Y0005478D02*
X0473000Y0005478D01*
X0473000Y0004480D02*
X0480000Y0004480D01*
X0480000Y0003481D02*
X0473000Y0003481D01*
X0473000Y0010471D02*
X0473642Y0010471D01*
X0473400Y0011469D02*
X0473000Y0011469D01*
X0473000Y0012468D02*
X0473581Y0012468D01*
X0473000Y0013466D02*
X0474500Y0013466D01*
X0474500Y0014465D02*
X0473000Y0014465D01*
X0473000Y0015463D02*
X0474500Y0015463D01*
X0474500Y0016462D02*
X0473000Y0016462D01*
X0473000Y0017460D02*
X0474500Y0017460D01*
X0474500Y0018459D02*
X0473000Y0018459D01*
X0473000Y0019457D02*
X0474500Y0019457D01*
X0474500Y0020456D02*
X0473000Y0020456D01*
X0473000Y0021454D02*
X0474500Y0021454D01*
X0474500Y0022453D02*
X0473000Y0022453D01*
X0473000Y0023451D02*
X0474500Y0023451D01*
X0474500Y0024450D02*
X0473000Y0024450D01*
X0473000Y0025448D02*
X0474500Y0025448D01*
X0474500Y0026447D02*
X0473000Y0026447D01*
X0473000Y0027445D02*
X0474500Y0027445D01*
X0474500Y0028444D02*
X0473000Y0028444D01*
X0473000Y0029442D02*
X0474500Y0029442D01*
X0474500Y0030441D02*
X0473000Y0030441D01*
X0473000Y0031439D02*
X0474500Y0031439D01*
X0474500Y0032438D02*
X0473000Y0032438D01*
X0473000Y0033436D02*
X0474500Y0033436D01*
X0474500Y0034435D02*
X0473000Y0034435D01*
X0473000Y0035433D02*
X0474500Y0035433D01*
X0474500Y0036432D02*
X0473000Y0036432D01*
X0473000Y0037430D02*
X0474500Y0037430D01*
X0474500Y0038429D02*
X0473000Y0038429D01*
X0473000Y0039427D02*
X0474500Y0039427D01*
X0474500Y0040426D02*
X0473000Y0040426D01*
X0473000Y0041424D02*
X0474500Y0041424D01*
X0474500Y0042423D02*
X0473000Y0042423D01*
X0473000Y0043421D02*
X0474500Y0043421D01*
X0474500Y0044420D02*
X0473000Y0044420D01*
X0473000Y0045419D02*
X0474500Y0045419D01*
X0474500Y0046417D02*
X0473000Y0046417D01*
X0473000Y0047416D02*
X0474500Y0047416D01*
X0474500Y0048414D02*
X0473000Y0048414D01*
X0473000Y0049413D02*
X0474500Y0049413D01*
X0474500Y0050411D02*
X0473000Y0050411D01*
X0473000Y0051410D02*
X0474500Y0051410D01*
X0474500Y0052408D02*
X0473000Y0052408D01*
X0473000Y0053407D02*
X0474500Y0053407D01*
X0474500Y0054405D02*
X0473000Y0054405D01*
X0473000Y0055404D02*
X0474500Y0055404D01*
X0474500Y0056402D02*
X0473000Y0056402D01*
X0473000Y0057401D02*
X0474500Y0057401D01*
X0474500Y0058399D02*
X0473000Y0058399D01*
X0473000Y0059398D02*
X0474500Y0059398D01*
X0474500Y0060396D02*
X0473000Y0060396D01*
X0473000Y0061395D02*
X0474500Y0061395D01*
X0474500Y0062393D02*
X0473000Y0062393D01*
X0473000Y0063392D02*
X0474500Y0063392D01*
X0474500Y0064390D02*
X0473000Y0064390D01*
X0473000Y0065389D02*
X0474500Y0065389D01*
X0474500Y0066387D02*
X0473000Y0066387D01*
X0473000Y0067386D02*
X0474500Y0067386D01*
X0474500Y0068384D02*
X0473000Y0068384D01*
X0473000Y0069383D02*
X0474500Y0069383D01*
X0474500Y0070381D02*
X0473000Y0070381D01*
X0473000Y0071380D02*
X0474500Y0071380D01*
X0474500Y0072378D02*
X0473000Y0072378D01*
X0473000Y0073377D02*
X0474500Y0073377D01*
X0474500Y0074375D02*
X0473000Y0074375D01*
X0473000Y0075374D02*
X0474500Y0075374D01*
X0474500Y0076372D02*
X0473000Y0076372D01*
X0473000Y0077371D02*
X0474500Y0077371D01*
X0474500Y0078369D02*
X0473000Y0078369D01*
X0473000Y0079368D02*
X0474500Y0079368D01*
X0474500Y0080366D02*
X0473000Y0080366D01*
X0473000Y0081365D02*
X0474500Y0081365D01*
X0474500Y0082363D02*
X0473000Y0082363D01*
X0473000Y0083362D02*
X0474500Y0083362D01*
X0474500Y0084360D02*
X0473000Y0084360D01*
X0473000Y0085359D02*
X0474500Y0085359D01*
X0474500Y0086357D02*
X0473000Y0086357D01*
X0473000Y0087356D02*
X0474500Y0087356D01*
X0474500Y0088355D02*
X0473000Y0088355D01*
X0473000Y0089353D02*
X0474500Y0089353D01*
X0474500Y0090352D02*
X0473000Y0090352D01*
X0473000Y0091350D02*
X0474500Y0091350D01*
X0474500Y0092349D02*
X0473000Y0092349D01*
X0473000Y0093347D02*
X0474500Y0093347D01*
X0474500Y0094346D02*
X0473000Y0094346D01*
X0473000Y0095344D02*
X0474500Y0095344D01*
X0474500Y0096343D02*
X0473000Y0096343D01*
X0473000Y0097341D02*
X0474500Y0097341D01*
X0474500Y0098340D02*
X0473000Y0098340D01*
X0473000Y0099338D02*
X0474500Y0099338D01*
X0474500Y0100337D02*
X0473000Y0100337D01*
X0473000Y0101335D02*
X0474500Y0101335D01*
X0474500Y0102334D02*
X0473000Y0102334D01*
X0473000Y0103332D02*
X0474500Y0103332D01*
X0474500Y0104331D02*
X0473000Y0104331D01*
X0473000Y0105329D02*
X0474500Y0105329D01*
X0474500Y0106328D02*
X0473000Y0106328D01*
X0473000Y0107326D02*
X0474500Y0107326D01*
X0474500Y0108325D02*
X0473000Y0108325D01*
X0473000Y0109323D02*
X0474500Y0109323D01*
X0474500Y0110322D02*
X0473000Y0110322D01*
X0473000Y0111320D02*
X0474500Y0111320D01*
X0474500Y0112319D02*
X0473000Y0112319D01*
X0473000Y0113317D02*
X0474500Y0113317D01*
X0474500Y0114316D02*
X0473000Y0114316D01*
X0473000Y0115314D02*
X0474500Y0115314D01*
X0474500Y0116313D02*
X0473000Y0116313D01*
X0473000Y0117311D02*
X0474500Y0117311D01*
X0474500Y0118310D02*
X0473000Y0118310D01*
X0473000Y0119308D02*
X0474500Y0119308D01*
X0474500Y0120307D02*
X0473000Y0120307D01*
X0473000Y0121305D02*
X0474500Y0121305D01*
X0474500Y0122304D02*
X0473000Y0122304D01*
X0473000Y0123302D02*
X0474500Y0123302D01*
X0474500Y0124301D02*
X0473000Y0124301D01*
X0473000Y0125299D02*
X0474500Y0125299D01*
X0474500Y0126298D02*
X0473000Y0126298D01*
X0473000Y0127296D02*
X0474500Y0127296D01*
X0474500Y0128295D02*
X0473000Y0128295D01*
X0473000Y0129293D02*
X0474500Y0129293D01*
X0474500Y0130292D02*
X0473000Y0130292D01*
X0473000Y0131290D02*
X0474500Y0131290D01*
X0474500Y0132289D02*
X0473000Y0132289D01*
X0473000Y0133288D02*
X0474500Y0133288D01*
X0474500Y0134286D02*
X0473000Y0134286D01*
X0473000Y0135285D02*
X0474500Y0135285D01*
X0474500Y0136283D02*
X0473000Y0136283D01*
X0473000Y0137282D02*
X0474500Y0137282D01*
X0474500Y0138280D02*
X0473000Y0138280D01*
X0473000Y0139279D02*
X0474500Y0139279D01*
X0474500Y0140277D02*
X0473000Y0140277D01*
X0473000Y0141276D02*
X0474500Y0141276D01*
X0474500Y0142274D02*
X0473000Y0142274D01*
X0473000Y0143273D02*
X0474500Y0143273D01*
X0474500Y0144271D02*
X0473000Y0144271D01*
X0473000Y0145270D02*
X0474500Y0145270D01*
X0474500Y0146268D02*
X0473000Y0146268D01*
X0473000Y0147267D02*
X0474500Y0147267D01*
X0474500Y0148265D02*
X0473000Y0148265D01*
X0473000Y0149264D02*
X0474500Y0149264D01*
X0474500Y0150262D02*
X0473000Y0150262D01*
X0473000Y0151261D02*
X0474500Y0151261D01*
X0474500Y0152259D02*
X0473000Y0152259D01*
X0473000Y0153258D02*
X0474500Y0153258D01*
X0474500Y0154256D02*
X0473000Y0154256D01*
X0473000Y0155255D02*
X0474500Y0155255D01*
X0474500Y0156253D02*
X0473000Y0156253D01*
X0473000Y0157252D02*
X0474500Y0157252D01*
X0474500Y0158250D02*
X0473000Y0158250D01*
X0473000Y0159249D02*
X0474500Y0159249D01*
X0474500Y0160247D02*
X0473000Y0160247D01*
X0473000Y0161246D02*
X0474500Y0161246D01*
X0474500Y0162244D02*
X0473000Y0162244D01*
X0473000Y0163243D02*
X0474500Y0163243D01*
X0474500Y0164241D02*
X0473000Y0164241D01*
X0473000Y0165240D02*
X0474500Y0165240D01*
X0474500Y0166238D02*
X0473000Y0166238D01*
X0473000Y0167237D02*
X0474500Y0167237D01*
X0474500Y0168235D02*
X0473000Y0168235D01*
X0473000Y0169234D02*
X0474500Y0169234D01*
X0474500Y0170232D02*
X0473000Y0170232D01*
X0473000Y0171231D02*
X0474500Y0171231D01*
X0474500Y0172229D02*
X0473000Y0172229D01*
X0473000Y0173228D02*
X0474500Y0173228D01*
X0474500Y0174226D02*
X0473000Y0174226D01*
X0473000Y0175225D02*
X0474500Y0175225D01*
X0474500Y0176223D02*
X0473000Y0176223D01*
X0473000Y0177222D02*
X0474500Y0177222D01*
X0474500Y0178221D02*
X0473000Y0178221D01*
X0473000Y0179219D02*
X0474500Y0179219D01*
X0474500Y0180218D02*
X0473000Y0180218D01*
X0473000Y0181216D02*
X0474500Y0181216D01*
X0474500Y0182215D02*
X0473000Y0182215D01*
X0473000Y0183213D02*
X0474500Y0183213D01*
X0474500Y0184212D02*
X0473000Y0184212D01*
X0473000Y0185210D02*
X0474500Y0185210D01*
X0474500Y0186209D02*
X0473000Y0186209D01*
X0473000Y0187207D02*
X0474500Y0187207D01*
X0474500Y0188206D02*
X0473000Y0188206D01*
X0473000Y0189204D02*
X0474500Y0189204D01*
X0474500Y0190203D02*
X0473000Y0190203D01*
X0473000Y0191201D02*
X0474500Y0191201D01*
X0474500Y0192200D02*
X0473000Y0192200D01*
X0473000Y0193198D02*
X0474500Y0193198D01*
X0474500Y0194197D02*
X0473000Y0194197D01*
X0473000Y0195195D02*
X0474500Y0195195D01*
X0474500Y0196194D02*
X0473000Y0196194D01*
X0473000Y0197192D02*
X0474500Y0197192D01*
X0474500Y0198191D02*
X0473000Y0198191D01*
X0473000Y0199189D02*
X0474500Y0199189D01*
X0474500Y0200188D02*
X0473000Y0200188D01*
X0473000Y0201186D02*
X0474500Y0201186D01*
X0474500Y0202185D02*
X0473000Y0202185D01*
X0473000Y0203183D02*
X0474500Y0203183D01*
X0474500Y0204182D02*
X0473000Y0204182D01*
X0473000Y0205180D02*
X0474500Y0205180D01*
X0474500Y0206179D02*
X0473000Y0206179D01*
X0473000Y0207177D02*
X0474500Y0207177D01*
X0474500Y0208176D02*
X0473000Y0208176D01*
X0473000Y0209174D02*
X0474500Y0209174D01*
X0474500Y0210173D02*
X0473000Y0210173D01*
X0473000Y0211171D02*
X0474500Y0211171D01*
X0474500Y0212170D02*
X0473000Y0212170D01*
X0473000Y0213168D02*
X0474500Y0213168D01*
X0474500Y0214167D02*
X0473000Y0214167D01*
X0473000Y0215165D02*
X0474500Y0215165D01*
X0474500Y0216164D02*
X0473000Y0216164D01*
X0473000Y0217162D02*
X0474500Y0217162D01*
X0474500Y0218161D02*
X0473000Y0218161D01*
X0473000Y0219159D02*
X0474500Y0219159D01*
X0474500Y0220158D02*
X0473000Y0220158D01*
X0473000Y0221157D02*
X0474500Y0221157D01*
X0474500Y0222155D02*
X0473000Y0222155D01*
X0473000Y0223154D02*
X0474500Y0223154D01*
X0474500Y0224152D02*
X0473000Y0224152D01*
X0473000Y0225151D02*
X0474500Y0225151D01*
X0474500Y0226149D02*
X0473000Y0226149D01*
X0473000Y0227148D02*
X0474500Y0227148D01*
X0474500Y0228146D02*
X0473000Y0228146D01*
X0473000Y0229145D02*
X0474500Y0229145D01*
X0474500Y0230143D02*
X0473000Y0230143D01*
X0473000Y0231142D02*
X0474500Y0231142D01*
X0474500Y0232140D02*
X0473000Y0232140D01*
X0473000Y0233139D02*
X0474500Y0233139D01*
X0474500Y0234137D02*
X0473000Y0234137D01*
X0473000Y0235136D02*
X0474500Y0235136D01*
X0474500Y0236134D02*
X0473000Y0236134D01*
X0473000Y0237133D02*
X0474500Y0237133D01*
X0474500Y0238131D02*
X0473000Y0238131D01*
X0473000Y0239130D02*
X0474500Y0239130D01*
X0474500Y0240128D02*
X0473000Y0240128D01*
X0473000Y0241127D02*
X0474500Y0241127D01*
X0474500Y0242125D02*
X0473000Y0242125D01*
X0473000Y0243124D02*
X0474500Y0243124D01*
X0474500Y0244122D02*
X0473000Y0244122D01*
X0473000Y0245121D02*
X0474500Y0245121D01*
X0474500Y0246119D02*
X0473000Y0246119D01*
X0473000Y0247118D02*
X0474500Y0247118D01*
X0474500Y0248116D02*
X0473000Y0248116D01*
X0473000Y0249115D02*
X0474500Y0249115D01*
X0474500Y0250113D02*
X0473000Y0250113D01*
X0473000Y0251112D02*
X0474500Y0251112D01*
X0474500Y0252110D02*
X0473000Y0252110D01*
X0473000Y0253109D02*
X0474500Y0253109D01*
X0474500Y0254107D02*
X0473000Y0254107D01*
X0473000Y0255106D02*
X0474500Y0255106D01*
X0474500Y0256104D02*
X0473000Y0256104D01*
X0473000Y0257103D02*
X0474500Y0257103D01*
X0474500Y0258101D02*
X0473000Y0258101D01*
X0473000Y0259100D02*
X0474500Y0259100D01*
X0474500Y0260098D02*
X0473000Y0260098D01*
X0473000Y0261097D02*
X0474500Y0261097D01*
X0474500Y0262095D02*
X0473000Y0262095D01*
X0473000Y0263094D02*
X0474500Y0263094D01*
X0474500Y0264092D02*
X0473000Y0264092D01*
X0473000Y0265091D02*
X0474500Y0265091D01*
X0474500Y0266090D02*
X0473000Y0266090D01*
X0473000Y0267088D02*
X0474500Y0267088D01*
X0474500Y0268087D02*
X0473000Y0268087D01*
X0473000Y0269085D02*
X0474500Y0269085D01*
X0474500Y0270084D02*
X0473000Y0270084D01*
X0473000Y0271082D02*
X0474500Y0271082D01*
X0474500Y0272081D02*
X0473000Y0272081D01*
X0473000Y0273079D02*
X0474500Y0273079D01*
X0474500Y0274078D02*
X0473000Y0274078D01*
X0473000Y0275076D02*
X0474500Y0275076D01*
X0474500Y0276075D02*
X0473000Y0276075D01*
X0473000Y0277073D02*
X0474500Y0277073D01*
X0474500Y0278072D02*
X0473000Y0278072D01*
X0473000Y0279070D02*
X0474500Y0279070D01*
X0474500Y0280069D02*
X0473000Y0280069D01*
X0473000Y0281067D02*
X0474500Y0281067D01*
X0474500Y0282066D02*
X0473000Y0282066D01*
X0473000Y0283064D02*
X0474500Y0283064D01*
X0474500Y0284063D02*
X0473000Y0284063D01*
X0473000Y0285061D02*
X0474500Y0285061D01*
X0474500Y0286060D02*
X0473000Y0286060D01*
X0473000Y0287058D02*
X0474500Y0287058D01*
X0474500Y0288057D02*
X0473000Y0288057D01*
X0473000Y0289055D02*
X0474500Y0289055D01*
X0474500Y0290054D02*
X0473000Y0290054D01*
X0473000Y0291052D02*
X0474500Y0291052D01*
X0474500Y0292051D02*
X0473000Y0292051D01*
X0473000Y0293049D02*
X0474500Y0293049D01*
X0474500Y0294048D02*
X0473000Y0294048D01*
X0473000Y0295046D02*
X0474500Y0295046D01*
X0474500Y0296045D02*
X0473000Y0296045D01*
X0473000Y0297043D02*
X0474500Y0297043D01*
X0474500Y0298042D02*
X0473000Y0298042D01*
X0473000Y0299040D02*
X0474500Y0299040D01*
X0474500Y0300039D02*
X0473000Y0300039D01*
X0473000Y0301037D02*
X0474500Y0301037D01*
X0474500Y0302036D02*
X0473000Y0302036D01*
X0473000Y0303034D02*
X0474500Y0303034D01*
X0474500Y0304033D02*
X0473000Y0304033D01*
X0473000Y0305031D02*
X0474500Y0305031D01*
X0474500Y0306030D02*
X0473000Y0306030D01*
X0473000Y0307028D02*
X0474500Y0307028D01*
X0474500Y0308027D02*
X0473000Y0308027D01*
X0473000Y0309026D02*
X0474500Y0309026D01*
X0474500Y0310024D02*
X0473000Y0310024D01*
X0473000Y0311023D02*
X0474500Y0311023D01*
X0474500Y0312021D02*
X0473000Y0312021D01*
X0473000Y0313020D02*
X0474500Y0313020D01*
X0474500Y0314018D02*
X0473000Y0314018D01*
X0473000Y0315017D02*
X0474500Y0315017D01*
X0474500Y0316015D02*
X0473000Y0316015D01*
X0473000Y0317014D02*
X0474500Y0317014D01*
X0474500Y0318012D02*
X0473000Y0318012D01*
X0473000Y0319011D02*
X0474500Y0319011D01*
X0474500Y0320009D02*
X0473000Y0320009D01*
X0473000Y0321008D02*
X0474500Y0321008D01*
X0474500Y0322006D02*
X0473000Y0322006D01*
X0473000Y0323005D02*
X0474500Y0323005D01*
X0474500Y0324003D02*
X0473000Y0324003D01*
X0473000Y0325002D02*
X0474500Y0325002D01*
X0474500Y0326000D02*
X0473000Y0326000D01*
X0473000Y0326999D02*
X0474500Y0326999D01*
X0474500Y0327997D02*
X0473000Y0327997D01*
X0473000Y0328996D02*
X0474500Y0328996D01*
X0474500Y0329994D02*
X0473000Y0329994D01*
X0473000Y0330993D02*
X0474500Y0330993D01*
X0474500Y0331991D02*
X0473000Y0331991D01*
X0473000Y0332990D02*
X0474500Y0332990D01*
X0474500Y0333988D02*
X0473000Y0333988D01*
X0473000Y0334987D02*
X0474500Y0334987D01*
X0474500Y0335985D02*
X0473000Y0335985D01*
X0473000Y0336984D02*
X0474500Y0336984D01*
X0474500Y0337982D02*
X0473000Y0337982D01*
X0473000Y0338981D02*
X0474500Y0338981D01*
X0474500Y0339979D02*
X0473000Y0339979D01*
X0473000Y0340978D02*
X0474500Y0340978D01*
X0474500Y0341976D02*
X0473000Y0341976D01*
X0473000Y0342975D02*
X0474500Y0342975D01*
X0474500Y0343973D02*
X0473000Y0343973D01*
X0473000Y0344972D02*
X0474500Y0344972D01*
X0474500Y0345970D02*
X0473000Y0345970D01*
X0473000Y0346969D02*
X0474500Y0346969D01*
X0474500Y0347967D02*
X0473000Y0347967D01*
X0473000Y0348966D02*
X0474500Y0348966D01*
X0474500Y0349964D02*
X0473000Y0349964D01*
X0473000Y0350963D02*
X0474500Y0350963D01*
X0474500Y0351961D02*
X0473000Y0351961D01*
X0473000Y0352960D02*
X0474500Y0352960D01*
X0474500Y0353959D02*
X0473000Y0353959D01*
X0473000Y0354957D02*
X0474500Y0354957D01*
X0474500Y0355956D02*
X0473000Y0355956D01*
X0473000Y0356954D02*
X0474500Y0356954D01*
X0474500Y0357953D02*
X0473000Y0357953D01*
X0473000Y0358951D02*
X0474500Y0358951D01*
X0474500Y0359950D02*
X0473000Y0359950D01*
X0473000Y0360948D02*
X0474500Y0360948D01*
X0474500Y0361947D02*
X0473000Y0361947D01*
X0473000Y0362945D02*
X0474500Y0362945D01*
X0474500Y0363944D02*
X0473000Y0363944D01*
X0473000Y0364942D02*
X0474500Y0364942D01*
X0474500Y0365941D02*
X0473000Y0365941D01*
X0473000Y0366939D02*
X0474500Y0366939D01*
X0474500Y0367938D02*
X0473000Y0367938D01*
X0473000Y0368936D02*
X0474500Y0368936D01*
X0474500Y0369935D02*
X0473000Y0369935D01*
X0473000Y0370933D02*
X0474500Y0370933D01*
X0474500Y0371932D02*
X0473000Y0371932D01*
X0473000Y0372930D02*
X0474500Y0372930D01*
X0474500Y0373929D02*
X0473000Y0373929D01*
X0473000Y0374927D02*
X0474500Y0374927D01*
X0474500Y0375926D02*
X0473000Y0375926D01*
X0473000Y0376924D02*
X0474500Y0376924D01*
X0474500Y0377923D02*
X0473000Y0377923D01*
X0473000Y0378921D02*
X0474500Y0378921D01*
X0474500Y0379920D02*
X0473000Y0379920D01*
X0473000Y0380918D02*
X0474500Y0380918D01*
X0474500Y0381917D02*
X0473000Y0381917D01*
X0473000Y0382915D02*
X0474500Y0382915D01*
X0474500Y0383914D02*
X0473000Y0383914D01*
X0473000Y0384912D02*
X0474500Y0384912D01*
X0474500Y0385911D02*
X0473000Y0385911D01*
X0473000Y0386909D02*
X0474500Y0386909D01*
X0474500Y0387908D02*
X0473000Y0387908D01*
X0473000Y0388906D02*
X0474500Y0388906D01*
X0474500Y0389905D02*
X0473000Y0389905D01*
X0473000Y0390903D02*
X0474500Y0390903D01*
X0474500Y0391902D02*
X0473000Y0391902D01*
X0473000Y0392900D02*
X0474500Y0392900D01*
X0474500Y0393899D02*
X0473000Y0393899D01*
X0473000Y0394897D02*
X0474500Y0394897D01*
X0474500Y0395896D02*
X0473000Y0395896D01*
X0473000Y0396895D02*
X0474500Y0396895D01*
X0474500Y0397893D02*
X0473000Y0397893D01*
X0473000Y0398892D02*
X0474500Y0398892D01*
X0474500Y0399890D02*
X0473000Y0399890D01*
X0473000Y0400889D02*
X0474500Y0400889D01*
X0474500Y0401887D02*
X0473000Y0401887D01*
X0473000Y0402886D02*
X0474500Y0402886D01*
X0474500Y0403884D02*
X0473000Y0403884D01*
X0473000Y0404883D02*
X0474500Y0404883D01*
X0474500Y0405881D02*
X0473000Y0405881D01*
X0473000Y0406880D02*
X0474500Y0406880D01*
X0474500Y0407878D02*
X0473000Y0407878D01*
X0473000Y0408877D02*
X0474500Y0408877D01*
X0474500Y0409875D02*
X0473000Y0409875D01*
X0473000Y0410874D02*
X0474500Y0410874D01*
X0474500Y0411872D02*
X0473000Y0411872D01*
X0473000Y0412871D02*
X0474500Y0412871D01*
X0474500Y0413869D02*
X0473000Y0413869D01*
X0473000Y0414868D02*
X0474500Y0414868D01*
X0474500Y0415866D02*
X0473000Y0415866D01*
X0473000Y0416865D02*
X0474500Y0416865D01*
X0474500Y0417863D02*
X0473000Y0417863D01*
X0473000Y0418862D02*
X0474500Y0418862D01*
X0474500Y0419860D02*
X0473000Y0419860D01*
X0473000Y0420859D02*
X0474500Y0420859D01*
X0474500Y0421857D02*
X0473000Y0421857D01*
X0473000Y0422856D02*
X0474500Y0422856D01*
X0474500Y0423854D02*
X0473000Y0423854D01*
X0473000Y0424853D02*
X0474500Y0424853D01*
X0474500Y0425851D02*
X0473000Y0425851D01*
X0473000Y0426850D02*
X0474500Y0426850D01*
X0474500Y0427848D02*
X0473000Y0427848D01*
X0473000Y0428847D02*
X0474500Y0428847D01*
X0474500Y0429845D02*
X0473000Y0429845D01*
X0473000Y0430844D02*
X0474500Y0430844D01*
X0474500Y0431842D02*
X0473000Y0431842D01*
X0473000Y0432841D02*
X0474500Y0432841D01*
X0474500Y0433839D02*
X0473000Y0433839D01*
X0473000Y0434838D02*
X0474500Y0434838D01*
X0474500Y0435836D02*
X0473000Y0435836D01*
X0473000Y0436835D02*
X0474500Y0436835D01*
X0474500Y0437833D02*
X0473000Y0437833D01*
X0473000Y0438832D02*
X0474500Y0438832D01*
X0474500Y0439830D02*
X0473000Y0439830D01*
X0473000Y0440829D02*
X0474500Y0440829D01*
X0474500Y0441828D02*
X0473000Y0441828D01*
X0473000Y0442826D02*
X0474500Y0442826D01*
X0474500Y0443825D02*
X0473000Y0443825D01*
X0473000Y0444823D02*
X0474500Y0444823D01*
X0474500Y0445822D02*
X0473000Y0445822D01*
X0473000Y0446820D02*
X0474500Y0446820D01*
X0474500Y0447819D02*
X0473000Y0447819D01*
X0473000Y0448817D02*
X0474500Y0448817D01*
X0474500Y0449816D02*
X0473000Y0449816D01*
X0473000Y0450814D02*
X0474500Y0450814D01*
X0474500Y0451813D02*
X0473000Y0451813D01*
X0473000Y0452811D02*
X0474500Y0452811D01*
X0474500Y0453810D02*
X0473000Y0453810D01*
X0473000Y0454808D02*
X0474500Y0454808D01*
X0474500Y0455807D02*
X0473000Y0455807D01*
X0473000Y0456805D02*
X0474500Y0456805D01*
X0474500Y0457804D02*
X0473000Y0457804D01*
X0473000Y0458802D02*
X0474500Y0458802D01*
X0474500Y0459801D02*
X0473000Y0459801D01*
X0473000Y0460799D02*
X0474500Y0460799D01*
X0474500Y0461798D02*
X0473000Y0461798D01*
X0473000Y0462796D02*
X0474500Y0462796D01*
X0474500Y0463795D02*
X0473000Y0463795D01*
X0473000Y0464793D02*
X0474500Y0464793D01*
X0474500Y0465792D02*
X0473000Y0465792D01*
X0473000Y0466790D02*
X0474500Y0466790D01*
X0474500Y0467789D02*
X0473000Y0467789D01*
X0473000Y0468787D02*
X0474500Y0468787D01*
X0474500Y0469786D02*
X0473000Y0469786D01*
X0473000Y0470784D02*
X0474500Y0470784D01*
X0474500Y0471783D02*
X0473000Y0471783D01*
X0473000Y0472781D02*
X0474500Y0472781D01*
X0474500Y0473780D02*
X0473000Y0473780D01*
X0473000Y0474778D02*
X0474500Y0474778D01*
X0474500Y0475777D02*
X0473000Y0475777D01*
X0473000Y0476775D02*
X0474500Y0476775D01*
X0474500Y0477774D02*
X0473000Y0477774D01*
X0473000Y0478772D02*
X0474500Y0478772D01*
X0474500Y0479771D02*
X0473000Y0479771D01*
X0473000Y0480769D02*
X0474500Y0480769D01*
X0474500Y0481768D02*
X0473000Y0481768D01*
X0473000Y0482766D02*
X0474500Y0482766D01*
X0474500Y0483765D02*
X0473000Y0483765D01*
X0473000Y0484763D02*
X0474500Y0484763D01*
X0474500Y0485762D02*
X0473000Y0485762D01*
X0473000Y0486761D02*
X0474500Y0486761D01*
X0474500Y0487759D02*
X0473000Y0487759D01*
X0473000Y0488758D02*
X0474500Y0488758D01*
X0474500Y0489756D02*
X0473000Y0489756D01*
X0473000Y0490755D02*
X0474500Y0490755D01*
X0474500Y0491753D02*
X0473000Y0491753D01*
X0473000Y0492752D02*
X0474500Y0492752D01*
X0474500Y0493750D02*
X0473000Y0493750D01*
X0473000Y0494749D02*
X0474500Y0494749D01*
X0474500Y0495747D02*
X0473000Y0495747D01*
X0473000Y0496746D02*
X0474500Y0496746D01*
X0474500Y0497744D02*
X0473000Y0497744D01*
X0473000Y0498743D02*
X0474500Y0498743D01*
X0474500Y0499741D02*
X0473000Y0499741D01*
X0473000Y0500740D02*
X0474500Y0500740D01*
X0474500Y0501738D02*
X0473000Y0501738D01*
X0473000Y0502737D02*
X0474500Y0502737D01*
X0474500Y0503735D02*
X0473000Y0503735D01*
X0473000Y0504734D02*
X0474500Y0504734D01*
X0474500Y0505732D02*
X0473000Y0505732D01*
X0473000Y0506731D02*
X0474500Y0506731D01*
X0474500Y0507729D02*
X0473000Y0507729D01*
X0473000Y0508728D02*
X0474500Y0508728D01*
X0474500Y0509726D02*
X0473000Y0509726D01*
X0473000Y0510725D02*
X0474500Y0510725D01*
X0474500Y0511723D02*
X0473000Y0511723D01*
X0473000Y0512722D02*
X0474500Y0512722D01*
X0474500Y0513720D02*
X0473000Y0513720D01*
X0473000Y0514719D02*
X0474500Y0514719D01*
X0474500Y0515717D02*
X0473000Y0515717D01*
X0473000Y0516716D02*
X0474500Y0516716D01*
X0474500Y0517714D02*
X0473000Y0517714D01*
X0473000Y0518713D02*
X0474500Y0518713D01*
X0474500Y0519711D02*
X0473000Y0519711D01*
X0473000Y0520710D02*
X0474500Y0520710D01*
X0474500Y0521708D02*
X0473000Y0521708D01*
X0473000Y0522707D02*
X0474500Y0522707D01*
X0474500Y0523705D02*
X0473000Y0523705D01*
X0473000Y0524704D02*
X0474500Y0524704D01*
X0474500Y0525702D02*
X0473000Y0525702D01*
X0473000Y0526701D02*
X0474500Y0526701D01*
X0474500Y0527699D02*
X0473000Y0527699D01*
X0473000Y0528698D02*
X0474500Y0528698D01*
X0474500Y0529697D02*
X0473000Y0529697D01*
X0473000Y0530695D02*
X0474500Y0530695D01*
X0474500Y0531694D02*
X0473000Y0531694D01*
X0473000Y0532692D02*
X0474500Y0532692D01*
X0474500Y0533691D02*
X0473000Y0533691D01*
X0473000Y0534689D02*
X0474500Y0534689D01*
X0474500Y0535688D02*
X0473000Y0535688D01*
X0473000Y0536686D02*
X0474500Y0536686D01*
X0474500Y0537685D02*
X0473000Y0537685D01*
X0473000Y0538683D02*
X0474500Y0538683D01*
X0474500Y0539682D02*
X0473000Y0539682D01*
X0473000Y0540680D02*
X0474500Y0540680D01*
X0474500Y0541679D02*
X0473000Y0541679D01*
X0473000Y0542677D02*
X0474500Y0542677D01*
X0474500Y0543676D02*
X0473000Y0543676D01*
X0473000Y0544674D02*
X0474500Y0544674D01*
X0474500Y0545673D02*
X0473000Y0545673D01*
X0473000Y0546671D02*
X0474500Y0546671D01*
X0474500Y0547670D02*
X0473000Y0547670D01*
X0473000Y0548668D02*
X0474500Y0548668D01*
X0474500Y0549667D02*
X0473000Y0549667D01*
X0473000Y0550665D02*
X0474500Y0550665D01*
X0474500Y0551664D02*
X0473000Y0551664D01*
X0473000Y0552662D02*
X0474500Y0552662D01*
X0474500Y0553661D02*
X0473000Y0553661D01*
X0473000Y0554659D02*
X0474500Y0554659D01*
X0474500Y0555658D02*
X0473000Y0555658D01*
X0473000Y0556656D02*
X0474500Y0556656D01*
X0474500Y0557655D02*
X0473000Y0557655D01*
X0473000Y0558653D02*
X0474500Y0558653D01*
X0474500Y0559652D02*
X0473000Y0559652D01*
X0473000Y0560650D02*
X0474500Y0560650D01*
X0474500Y0561649D02*
X0473000Y0561649D01*
X0473000Y0562647D02*
X0474500Y0562647D01*
X0474500Y0563646D02*
X0473000Y0563646D01*
X0473000Y0564644D02*
X0474500Y0564644D01*
X0474500Y0565643D02*
X0473000Y0565643D01*
X0473000Y0566641D02*
X0474500Y0566641D01*
X0474500Y0567640D02*
X0473000Y0567640D01*
X0473000Y0568638D02*
X0474500Y0568638D01*
X0474500Y0569637D02*
X0473000Y0569637D01*
X0473000Y0570635D02*
X0474500Y0570635D01*
X0474500Y0571634D02*
X0473000Y0571634D01*
X0473000Y0572632D02*
X0474500Y0572632D01*
X0474500Y0573631D02*
X0473000Y0573631D01*
X0473000Y0574630D02*
X0474500Y0574630D01*
X0474500Y0575628D02*
X0473000Y0575628D01*
X0473000Y0576627D02*
X0474500Y0576627D01*
X0474500Y0577625D02*
X0473000Y0577625D01*
X0473000Y0578624D02*
X0474500Y0578624D01*
X0474500Y0579622D02*
X0473000Y0579622D01*
X0473000Y0580621D02*
X0474500Y0580621D01*
X0474500Y0581619D02*
X0473000Y0581619D01*
X0473000Y0582618D02*
X0474500Y0582618D01*
X0474500Y0583616D02*
X0473000Y0583616D01*
X0473000Y0584615D02*
X0474500Y0584615D01*
X0474500Y0585613D02*
X0473000Y0585613D01*
X0473000Y0586612D02*
X0474500Y0586612D01*
X0474500Y0587610D02*
X0473000Y0587610D01*
X0473000Y0588609D02*
X0474500Y0588609D01*
X0474500Y0589607D02*
X0473000Y0589607D01*
X0473000Y0590606D02*
X0474500Y0590606D01*
X0474500Y0591604D02*
X0473000Y0591604D01*
X0473000Y0592603D02*
X0474500Y0592603D01*
X0474500Y0593601D02*
X0473000Y0593601D01*
X0473000Y0594600D02*
X0474500Y0594600D01*
X0474500Y0595598D02*
X0473000Y0595598D01*
X0473000Y0596597D02*
X0474500Y0596597D01*
X0474500Y0597595D02*
X0473000Y0597595D01*
X0473000Y0598594D02*
X0474500Y0598594D01*
X0474500Y0599592D02*
X0473000Y0599592D01*
X0473000Y0600591D02*
X0474500Y0600591D01*
X0474500Y0601589D02*
X0473000Y0601589D01*
X0473000Y0602588D02*
X0474500Y0602588D01*
X0474500Y0603586D02*
X0473000Y0603586D01*
X0473000Y0604585D02*
X0474500Y0604585D01*
X0474500Y0605583D02*
X0473000Y0605583D01*
X0473000Y0606582D02*
X0474500Y0606582D01*
X0474500Y0607580D02*
X0473000Y0607580D01*
X0473000Y0608579D02*
X0474500Y0608579D01*
X0474500Y0609577D02*
X0473000Y0609577D01*
X0473000Y0610576D02*
X0474500Y0610576D01*
X0474500Y0611574D02*
X0473000Y0611574D01*
X0473000Y0612573D02*
X0474500Y0612573D01*
X0474500Y0613571D02*
X0473000Y0613571D01*
X0473000Y0614570D02*
X0474500Y0614570D01*
X0474500Y0615568D02*
X0473000Y0615568D01*
X0473000Y0616567D02*
X0474500Y0616567D01*
X0474500Y0617566D02*
X0473000Y0617566D01*
X0473000Y0618564D02*
X0474500Y0618564D01*
X0474500Y0619563D02*
X0473000Y0619563D01*
X0473000Y0620561D02*
X0474500Y0620561D01*
X0474500Y0621560D02*
X0473000Y0621560D01*
X0473000Y0622558D02*
X0474500Y0622558D01*
X0474500Y0623557D02*
X0473000Y0623557D01*
X0473000Y0624555D02*
X0474500Y0624555D01*
X0474500Y0625554D02*
X0473000Y0625554D01*
X0473000Y0626552D02*
X0474500Y0626552D01*
X0474500Y0627551D02*
X0473000Y0627551D01*
X0473000Y0628549D02*
X0474500Y0628549D01*
X0474500Y0629548D02*
X0473000Y0629548D01*
X0473000Y0630546D02*
X0474500Y0630546D01*
X0474500Y0631545D02*
X0473000Y0631545D01*
X0473000Y0632543D02*
X0474500Y0632543D01*
X0474500Y0633542D02*
X0473000Y0633542D01*
X0473000Y0634540D02*
X0474500Y0634540D01*
X0474500Y0635539D02*
X0473000Y0635539D01*
X0473000Y0636537D02*
X0474500Y0636537D01*
X0474500Y0637536D02*
X0473000Y0637536D01*
X0473000Y0638534D02*
X0474500Y0638534D01*
X0474500Y0639533D02*
X0473000Y0639533D01*
X0473000Y0640531D02*
X0474500Y0640531D01*
X0474500Y0641530D02*
X0473000Y0641530D01*
X0473000Y0642528D02*
X0474500Y0642528D01*
X0474500Y0643527D02*
X0473000Y0643527D01*
X0473000Y0644525D02*
X0474500Y0644525D01*
X0474500Y0645524D02*
X0473000Y0645524D01*
X0473000Y0646522D02*
X0474500Y0646522D01*
X0474500Y0647521D02*
X0472600Y0647521D01*
X0460000Y0694451D02*
X0012436Y0694451D01*
X0010564Y0694451D02*
X0003000Y0694451D01*
X0003000Y0693452D02*
X0009600Y0693452D01*
X0009600Y0692454D02*
X0003000Y0692454D01*
X0003000Y0691455D02*
X0009968Y0691455D01*
X0009600Y0690457D02*
X0003000Y0690457D01*
X0003000Y0689458D02*
X0009655Y0689458D01*
X0010653Y0688460D02*
X0003000Y0688460D01*
X0322900Y0674000D02*
X0322937Y0674285D01*
X0323222Y0674778D01*
X0323715Y0675063D01*
X0324000Y0675100D01*
X0379000Y0675100D01*
X0379285Y0675063D01*
X0379778Y0674778D01*
X0380063Y0674285D01*
X0380100Y0674000D01*
X0380100Y0673731D01*
X0374450Y0668081D01*
X0374450Y0648000D01*
X0328550Y0648000D01*
X0328550Y0668081D01*
X0328081Y0668550D01*
X0322900Y0673731D01*
X0322900Y0674000D01*
X0323051Y0674481D02*
X0379949Y0674481D01*
X0379851Y0673482D02*
X0323149Y0673482D01*
X0324148Y0672484D02*
X0378852Y0672484D01*
X0377854Y0671485D02*
X0325146Y0671485D01*
X0326145Y0670487D02*
X0376855Y0670487D01*
X0375857Y0669488D02*
X0327143Y0669488D01*
X0328142Y0668490D02*
X0374858Y0668490D01*
X0374450Y0667491D02*
X0328550Y0667491D01*
X0328550Y0666493D02*
X0374450Y0666493D01*
X0374450Y0665494D02*
X0328550Y0665494D01*
X0328550Y0664496D02*
X0374450Y0664496D01*
X0374450Y0663497D02*
X0328550Y0663497D01*
X0328550Y0662499D02*
X0374450Y0662499D01*
X0374450Y0661500D02*
X0328550Y0661500D01*
X0328550Y0660501D02*
X0374450Y0660501D01*
X0374450Y0659503D02*
X0328550Y0659503D01*
X0328550Y0658504D02*
X0374450Y0658504D01*
X0374450Y0657506D02*
X0328550Y0657506D01*
X0328550Y0656507D02*
X0374450Y0656507D01*
X0374450Y0655509D02*
X0328550Y0655509D01*
X0328550Y0654510D02*
X0374450Y0654510D01*
X0374450Y0653512D02*
X0328550Y0653512D01*
X0328550Y0652513D02*
X0374450Y0652513D01*
X0374450Y0651515D02*
X0328550Y0651515D01*
X0328550Y0650516D02*
X0374450Y0650516D01*
X0374450Y0649518D02*
X0328550Y0649518D01*
X0328550Y0648519D02*
X0374450Y0648519D01*
D14*
X0381500Y0658055D02*
X0381500Y0674000D01*
X0381498Y0674098D01*
X0381492Y0674196D01*
X0381483Y0674294D01*
X0381469Y0674391D01*
X0381452Y0674488D01*
X0381431Y0674584D01*
X0381406Y0674679D01*
X0381378Y0674773D01*
X0381345Y0674865D01*
X0381310Y0674957D01*
X0381270Y0675047D01*
X0381228Y0675135D01*
X0381181Y0675222D01*
X0381132Y0675306D01*
X0381079Y0675389D01*
X0381023Y0675469D01*
X0380963Y0675548D01*
X0380901Y0675624D01*
X0380836Y0675697D01*
X0380768Y0675768D01*
X0380697Y0675836D01*
X0380624Y0675901D01*
X0380548Y0675963D01*
X0380469Y0676023D01*
X0380389Y0676079D01*
X0380306Y0676132D01*
X0380222Y0676181D01*
X0380135Y0676228D01*
X0380047Y0676270D01*
X0379957Y0676310D01*
X0379865Y0676345D01*
X0379773Y0676378D01*
X0379679Y0676406D01*
X0379584Y0676431D01*
X0379488Y0676452D01*
X0379391Y0676469D01*
X0379294Y0676483D01*
X0379196Y0676492D01*
X0379098Y0676498D01*
X0379000Y0676500D01*
X0324000Y0676500D01*
X0323902Y0676498D01*
X0323804Y0676492D01*
X0323706Y0676483D01*
X0323609Y0676469D01*
X0323512Y0676452D01*
X0323416Y0676431D01*
X0323321Y0676406D01*
X0323227Y0676378D01*
X0323135Y0676345D01*
X0323043Y0676310D01*
X0322953Y0676270D01*
X0322865Y0676228D01*
X0322778Y0676181D01*
X0322694Y0676132D01*
X0322611Y0676079D01*
X0322531Y0676023D01*
X0322452Y0675963D01*
X0322376Y0675901D01*
X0322303Y0675836D01*
X0322232Y0675768D01*
X0322164Y0675697D01*
X0322099Y0675624D01*
X0322037Y0675548D01*
X0321977Y0675469D01*
X0321921Y0675389D01*
X0321868Y0675306D01*
X0321819Y0675222D01*
X0321772Y0675135D01*
X0321730Y0675047D01*
X0321690Y0674957D01*
X0321655Y0674865D01*
X0321622Y0674773D01*
X0321594Y0674679D01*
X0321569Y0674584D01*
X0321548Y0674488D01*
X0321531Y0674391D01*
X0321517Y0674294D01*
X0321508Y0674196D01*
X0321502Y0674098D01*
X0321500Y0674000D01*
X0321500Y0658055D01*
X0271500Y0658055D02*
X0271500Y0674000D01*
X0271498Y0674098D01*
X0271492Y0674196D01*
X0271483Y0674294D01*
X0271469Y0674391D01*
X0271452Y0674488D01*
X0271431Y0674584D01*
X0271406Y0674679D01*
X0271378Y0674773D01*
X0271345Y0674865D01*
X0271310Y0674957D01*
X0271270Y0675047D01*
X0271228Y0675135D01*
X0271181Y0675222D01*
X0271132Y0675306D01*
X0271079Y0675389D01*
X0271023Y0675469D01*
X0270963Y0675548D01*
X0270901Y0675624D01*
X0270836Y0675697D01*
X0270768Y0675768D01*
X0270697Y0675836D01*
X0270624Y0675901D01*
X0270548Y0675963D01*
X0270469Y0676023D01*
X0270389Y0676079D01*
X0270306Y0676132D01*
X0270222Y0676181D01*
X0270135Y0676228D01*
X0270047Y0676270D01*
X0269957Y0676310D01*
X0269865Y0676345D01*
X0269773Y0676378D01*
X0269679Y0676406D01*
X0269584Y0676431D01*
X0269488Y0676452D01*
X0269391Y0676469D01*
X0269294Y0676483D01*
X0269196Y0676492D01*
X0269098Y0676498D01*
X0269000Y0676500D01*
X0249000Y0676500D01*
X0246500Y0679000D02*
X0246502Y0679098D01*
X0246508Y0679196D01*
X0246517Y0679294D01*
X0246531Y0679391D01*
X0246548Y0679488D01*
X0246569Y0679584D01*
X0246594Y0679679D01*
X0246622Y0679773D01*
X0246655Y0679865D01*
X0246690Y0679957D01*
X0246730Y0680047D01*
X0246772Y0680135D01*
X0246819Y0680222D01*
X0246868Y0680306D01*
X0246921Y0680389D01*
X0246977Y0680469D01*
X0247037Y0680548D01*
X0247099Y0680624D01*
X0247164Y0680697D01*
X0247232Y0680768D01*
X0247303Y0680836D01*
X0247376Y0680901D01*
X0247452Y0680963D01*
X0247531Y0681023D01*
X0247611Y0681079D01*
X0247694Y0681132D01*
X0247778Y0681181D01*
X0247865Y0681228D01*
X0247953Y0681270D01*
X0248043Y0681310D01*
X0248135Y0681345D01*
X0248227Y0681378D01*
X0248321Y0681406D01*
X0248416Y0681431D01*
X0248512Y0681452D01*
X0248609Y0681469D01*
X0248706Y0681483D01*
X0248804Y0681492D01*
X0248902Y0681498D01*
X0249000Y0681500D01*
X0444000Y0681500D01*
X0446500Y0679000D02*
X0446498Y0678902D01*
X0446492Y0678804D01*
X0446483Y0678706D01*
X0446469Y0678609D01*
X0446452Y0678512D01*
X0446431Y0678416D01*
X0446406Y0678321D01*
X0446378Y0678227D01*
X0446345Y0678135D01*
X0446310Y0678043D01*
X0446270Y0677953D01*
X0446228Y0677865D01*
X0446181Y0677778D01*
X0446132Y0677694D01*
X0446079Y0677611D01*
X0446023Y0677531D01*
X0445963Y0677452D01*
X0445901Y0677376D01*
X0445836Y0677303D01*
X0445768Y0677232D01*
X0445697Y0677164D01*
X0445624Y0677099D01*
X0445548Y0677037D01*
X0445469Y0676977D01*
X0445389Y0676921D01*
X0445306Y0676868D01*
X0445222Y0676819D01*
X0445135Y0676772D01*
X0445047Y0676730D01*
X0444957Y0676690D01*
X0444865Y0676655D01*
X0444773Y0676622D01*
X0444679Y0676594D01*
X0444584Y0676569D01*
X0444488Y0676548D01*
X0444391Y0676531D01*
X0444294Y0676517D01*
X0444196Y0676508D01*
X0444098Y0676502D01*
X0444000Y0676500D01*
X0434000Y0676500D01*
X0433902Y0676498D01*
X0433804Y0676492D01*
X0433706Y0676483D01*
X0433609Y0676469D01*
X0433512Y0676452D01*
X0433416Y0676431D01*
X0433321Y0676406D01*
X0433227Y0676378D01*
X0433135Y0676345D01*
X0433043Y0676310D01*
X0432953Y0676270D01*
X0432865Y0676228D01*
X0432778Y0676181D01*
X0432694Y0676132D01*
X0432611Y0676079D01*
X0432531Y0676023D01*
X0432452Y0675963D01*
X0432376Y0675901D01*
X0432303Y0675836D01*
X0432232Y0675768D01*
X0432164Y0675697D01*
X0432099Y0675624D01*
X0432037Y0675548D01*
X0431977Y0675469D01*
X0431921Y0675389D01*
X0431868Y0675306D01*
X0431819Y0675222D01*
X0431772Y0675135D01*
X0431730Y0675047D01*
X0431690Y0674957D01*
X0431655Y0674865D01*
X0431622Y0674773D01*
X0431594Y0674679D01*
X0431569Y0674584D01*
X0431548Y0674488D01*
X0431531Y0674391D01*
X0431517Y0674294D01*
X0431508Y0674196D01*
X0431502Y0674098D01*
X0431500Y0674000D01*
X0431500Y0658055D01*
X0446500Y0679000D02*
X0446498Y0679098D01*
X0446492Y0679196D01*
X0446483Y0679294D01*
X0446469Y0679391D01*
X0446452Y0679488D01*
X0446431Y0679584D01*
X0446406Y0679679D01*
X0446378Y0679773D01*
X0446345Y0679865D01*
X0446310Y0679957D01*
X0446270Y0680047D01*
X0446228Y0680135D01*
X0446181Y0680222D01*
X0446132Y0680306D01*
X0446079Y0680389D01*
X0446023Y0680469D01*
X0445963Y0680548D01*
X0445901Y0680624D01*
X0445836Y0680697D01*
X0445768Y0680768D01*
X0445697Y0680836D01*
X0445624Y0680901D01*
X0445548Y0680963D01*
X0445469Y0681023D01*
X0445389Y0681079D01*
X0445306Y0681132D01*
X0445222Y0681181D01*
X0445135Y0681228D01*
X0445047Y0681270D01*
X0444957Y0681310D01*
X0444865Y0681345D01*
X0444773Y0681378D01*
X0444679Y0681406D01*
X0444584Y0681431D01*
X0444488Y0681452D01*
X0444391Y0681469D01*
X0444294Y0681483D01*
X0444196Y0681492D01*
X0444098Y0681498D01*
X0444000Y0681500D01*
X0450901Y0690400D02*
X0450899Y0690444D01*
X0450893Y0690487D01*
X0450884Y0690529D01*
X0450871Y0690571D01*
X0450854Y0690611D01*
X0450834Y0690650D01*
X0450811Y0690687D01*
X0450784Y0690721D01*
X0450755Y0690754D01*
X0450722Y0690783D01*
X0450688Y0690810D01*
X0450651Y0690833D01*
X0450612Y0690853D01*
X0450572Y0690870D01*
X0450530Y0690883D01*
X0450488Y0690892D01*
X0450445Y0690898D01*
X0450401Y0690900D01*
X0012100Y0690900D01*
X0012053Y0690898D01*
X0012006Y0690893D01*
X0011960Y0690883D01*
X0011915Y0690871D01*
X0011870Y0690854D01*
X0011828Y0690835D01*
X0011787Y0690812D01*
X0011747Y0690785D01*
X0011710Y0690756D01*
X0011676Y0690724D01*
X0011644Y0690690D01*
X0011615Y0690653D01*
X0011588Y0690613D01*
X0011565Y0690572D01*
X0011546Y0690530D01*
X0011529Y0690485D01*
X0011517Y0690440D01*
X0011507Y0690394D01*
X0011502Y0690347D01*
X0011500Y0690300D01*
X0012100Y0692100D02*
X0453600Y0692100D01*
X0453400Y0690900D02*
X0452650Y0690900D01*
X0452606Y0690898D01*
X0452563Y0690892D01*
X0452521Y0690883D01*
X0452479Y0690870D01*
X0452439Y0690853D01*
X0452400Y0690833D01*
X0452363Y0690810D01*
X0452329Y0690783D01*
X0452296Y0690754D01*
X0452267Y0690721D01*
X0452240Y0690687D01*
X0452217Y0690650D01*
X0452197Y0690611D01*
X0452180Y0690571D01*
X0452167Y0690529D01*
X0452158Y0690487D01*
X0452152Y0690444D01*
X0452150Y0690400D01*
X0452150Y0690400D01*
X0452148Y0690356D01*
X0452142Y0690313D01*
X0452133Y0690271D01*
X0452120Y0690229D01*
X0452103Y0690189D01*
X0452083Y0690150D01*
X0452060Y0690113D01*
X0452033Y0690079D01*
X0452004Y0690046D01*
X0451971Y0690017D01*
X0451937Y0689990D01*
X0451900Y0689967D01*
X0451861Y0689947D01*
X0451821Y0689930D01*
X0451779Y0689917D01*
X0451737Y0689908D01*
X0451694Y0689902D01*
X0451650Y0689900D01*
X0451401Y0689900D01*
X0451357Y0689902D01*
X0451314Y0689908D01*
X0451272Y0689917D01*
X0451230Y0689930D01*
X0451190Y0689947D01*
X0451151Y0689967D01*
X0451114Y0689990D01*
X0451080Y0690017D01*
X0451047Y0690046D01*
X0451018Y0690079D01*
X0450991Y0690113D01*
X0450968Y0690150D01*
X0450948Y0690189D01*
X0450931Y0690229D01*
X0450918Y0690271D01*
X0450909Y0690313D01*
X0450903Y0690356D01*
X0450901Y0690400D01*
X0450901Y0690400D01*
X0453400Y0690900D02*
X0453498Y0690898D01*
X0453596Y0690892D01*
X0453694Y0690883D01*
X0453791Y0690869D01*
X0453888Y0690852D01*
X0453984Y0690831D01*
X0454079Y0690806D01*
X0454173Y0690778D01*
X0454265Y0690745D01*
X0454357Y0690710D01*
X0454447Y0690670D01*
X0454535Y0690628D01*
X0454622Y0690581D01*
X0454706Y0690532D01*
X0454789Y0690479D01*
X0454869Y0690423D01*
X0454948Y0690363D01*
X0455024Y0690301D01*
X0455097Y0690236D01*
X0455168Y0690168D01*
X0455236Y0690097D01*
X0455301Y0690024D01*
X0455363Y0689948D01*
X0455423Y0689869D01*
X0455479Y0689789D01*
X0455532Y0689706D01*
X0455581Y0689622D01*
X0455628Y0689535D01*
X0455670Y0689447D01*
X0455710Y0689357D01*
X0455745Y0689265D01*
X0455778Y0689173D01*
X0455806Y0689079D01*
X0455831Y0688984D01*
X0455852Y0688888D01*
X0455869Y0688791D01*
X0455883Y0688694D01*
X0455892Y0688596D01*
X0455898Y0688498D01*
X0455900Y0688400D01*
X0455900Y0674400D01*
X0457100Y0674600D02*
X0457100Y0688600D01*
X0457098Y0688717D01*
X0457092Y0688834D01*
X0457082Y0688950D01*
X0457069Y0689067D01*
X0457051Y0689182D01*
X0457030Y0689297D01*
X0457005Y0689411D01*
X0456976Y0689525D01*
X0456943Y0689637D01*
X0456906Y0689748D01*
X0456866Y0689858D01*
X0456822Y0689966D01*
X0456775Y0690073D01*
X0456724Y0690179D01*
X0456669Y0690282D01*
X0456611Y0690384D01*
X0456550Y0690483D01*
X0456486Y0690581D01*
X0456418Y0690676D01*
X0456347Y0690769D01*
X0456273Y0690860D01*
X0456196Y0690948D01*
X0456116Y0691033D01*
X0456033Y0691116D01*
X0455948Y0691196D01*
X0455860Y0691273D01*
X0455769Y0691347D01*
X0455676Y0691418D01*
X0455581Y0691486D01*
X0455483Y0691550D01*
X0455384Y0691611D01*
X0455282Y0691669D01*
X0455179Y0691724D01*
X0455073Y0691775D01*
X0454966Y0691822D01*
X0454858Y0691866D01*
X0454748Y0691906D01*
X0454637Y0691943D01*
X0454525Y0691976D01*
X0454411Y0692005D01*
X0454297Y0692030D01*
X0454182Y0692051D01*
X0454067Y0692069D01*
X0453950Y0692082D01*
X0453834Y0692092D01*
X0453717Y0692098D01*
X0453600Y0692100D01*
X0457100Y0674600D02*
X0457102Y0674502D01*
X0457108Y0674404D01*
X0457117Y0674306D01*
X0457131Y0674209D01*
X0457148Y0674112D01*
X0457169Y0674016D01*
X0457194Y0673921D01*
X0457222Y0673827D01*
X0457255Y0673735D01*
X0457290Y0673643D01*
X0457330Y0673553D01*
X0457372Y0673465D01*
X0457419Y0673378D01*
X0457468Y0673294D01*
X0457521Y0673211D01*
X0457577Y0673131D01*
X0457637Y0673052D01*
X0457699Y0672976D01*
X0457764Y0672903D01*
X0457832Y0672832D01*
X0457903Y0672764D01*
X0457976Y0672699D01*
X0458052Y0672637D01*
X0458131Y0672577D01*
X0458211Y0672521D01*
X0458294Y0672468D01*
X0458378Y0672419D01*
X0458465Y0672372D01*
X0458553Y0672330D01*
X0458643Y0672290D01*
X0458735Y0672255D01*
X0458827Y0672222D01*
X0458921Y0672194D01*
X0459016Y0672169D01*
X0459112Y0672148D01*
X0459209Y0672131D01*
X0459306Y0672117D01*
X0459404Y0672108D01*
X0459502Y0672102D01*
X0459600Y0672100D01*
X0473600Y0672100D01*
X0473400Y0670900D02*
X0459400Y0670900D01*
X0459283Y0670902D01*
X0459166Y0670908D01*
X0459050Y0670918D01*
X0458933Y0670931D01*
X0458818Y0670949D01*
X0458703Y0670970D01*
X0458589Y0670995D01*
X0458475Y0671024D01*
X0458363Y0671057D01*
X0458252Y0671094D01*
X0458142Y0671134D01*
X0458034Y0671178D01*
X0457927Y0671225D01*
X0457821Y0671276D01*
X0457718Y0671331D01*
X0457616Y0671389D01*
X0457517Y0671450D01*
X0457419Y0671514D01*
X0457324Y0671582D01*
X0457231Y0671653D01*
X0457140Y0671727D01*
X0457052Y0671804D01*
X0456967Y0671884D01*
X0456884Y0671967D01*
X0456804Y0672052D01*
X0456727Y0672140D01*
X0456653Y0672231D01*
X0456582Y0672324D01*
X0456514Y0672419D01*
X0456450Y0672517D01*
X0456389Y0672616D01*
X0456331Y0672718D01*
X0456276Y0672821D01*
X0456225Y0672927D01*
X0456178Y0673034D01*
X0456134Y0673142D01*
X0456094Y0673252D01*
X0456057Y0673363D01*
X0456024Y0673475D01*
X0455995Y0673589D01*
X0455970Y0673703D01*
X0455949Y0673818D01*
X0455931Y0673933D01*
X0455918Y0674050D01*
X0455908Y0674166D01*
X0455902Y0674283D01*
X0455900Y0674400D01*
X0473400Y0670900D02*
X0473498Y0670898D01*
X0473596Y0670892D01*
X0473694Y0670883D01*
X0473791Y0670869D01*
X0473888Y0670852D01*
X0473984Y0670831D01*
X0474079Y0670806D01*
X0474173Y0670778D01*
X0474265Y0670745D01*
X0474357Y0670710D01*
X0474447Y0670670D01*
X0474535Y0670628D01*
X0474622Y0670581D01*
X0474706Y0670532D01*
X0474789Y0670479D01*
X0474869Y0670423D01*
X0474948Y0670363D01*
X0475024Y0670301D01*
X0475097Y0670236D01*
X0475168Y0670168D01*
X0475236Y0670097D01*
X0475301Y0670024D01*
X0475363Y0669948D01*
X0475423Y0669869D01*
X0475479Y0669789D01*
X0475532Y0669706D01*
X0475581Y0669622D01*
X0475628Y0669535D01*
X0475670Y0669447D01*
X0475710Y0669357D01*
X0475745Y0669265D01*
X0475778Y0669173D01*
X0475806Y0669079D01*
X0475831Y0668984D01*
X0475852Y0668888D01*
X0475869Y0668791D01*
X0475883Y0668694D01*
X0475892Y0668596D01*
X0475898Y0668498D01*
X0475900Y0668400D01*
X0475900Y0012100D01*
X0475898Y0012053D01*
X0475893Y0012006D01*
X0475883Y0011960D01*
X0475871Y0011915D01*
X0475854Y0011870D01*
X0475835Y0011828D01*
X0475812Y0011787D01*
X0475785Y0011747D01*
X0475756Y0011710D01*
X0475724Y0011676D01*
X0475690Y0011644D01*
X0475653Y0011615D01*
X0475613Y0011588D01*
X0475572Y0011565D01*
X0475530Y0011546D01*
X0475485Y0011529D01*
X0475440Y0011517D01*
X0475394Y0011507D01*
X0475347Y0011502D01*
X0475300Y0011500D01*
X0477100Y0012100D02*
X0477100Y0668600D01*
X0477098Y0668717D01*
X0477092Y0668834D01*
X0477082Y0668950D01*
X0477069Y0669067D01*
X0477051Y0669182D01*
X0477030Y0669297D01*
X0477005Y0669411D01*
X0476976Y0669525D01*
X0476943Y0669637D01*
X0476906Y0669748D01*
X0476866Y0669858D01*
X0476822Y0669966D01*
X0476775Y0670073D01*
X0476724Y0670179D01*
X0476669Y0670282D01*
X0476611Y0670384D01*
X0476550Y0670483D01*
X0476486Y0670581D01*
X0476418Y0670676D01*
X0476347Y0670769D01*
X0476273Y0670860D01*
X0476196Y0670948D01*
X0476116Y0671033D01*
X0476033Y0671116D01*
X0475948Y0671196D01*
X0475860Y0671273D01*
X0475769Y0671347D01*
X0475676Y0671418D01*
X0475581Y0671486D01*
X0475483Y0671550D01*
X0475384Y0671611D01*
X0475282Y0671669D01*
X0475179Y0671724D01*
X0475073Y0671775D01*
X0474966Y0671822D01*
X0474858Y0671866D01*
X0474748Y0671906D01*
X0474637Y0671943D01*
X0474525Y0671976D01*
X0474411Y0672005D01*
X0474297Y0672030D01*
X0474182Y0672051D01*
X0474067Y0672069D01*
X0473950Y0672082D01*
X0473834Y0672092D01*
X0473717Y0672098D01*
X0473600Y0672100D01*
X0249000Y0676500D02*
X0248902Y0676502D01*
X0248804Y0676508D01*
X0248706Y0676517D01*
X0248609Y0676531D01*
X0248512Y0676548D01*
X0248416Y0676569D01*
X0248321Y0676594D01*
X0248227Y0676622D01*
X0248135Y0676655D01*
X0248043Y0676690D01*
X0247953Y0676730D01*
X0247865Y0676772D01*
X0247778Y0676819D01*
X0247694Y0676868D01*
X0247611Y0676921D01*
X0247531Y0676977D01*
X0247452Y0677037D01*
X0247376Y0677099D01*
X0247303Y0677164D01*
X0247232Y0677232D01*
X0247164Y0677303D01*
X0247099Y0677376D01*
X0247037Y0677452D01*
X0246977Y0677531D01*
X0246921Y0677611D01*
X0246868Y0677694D01*
X0246819Y0677778D01*
X0246772Y0677865D01*
X0246730Y0677953D01*
X0246690Y0678043D01*
X0246655Y0678135D01*
X0246622Y0678227D01*
X0246594Y0678321D01*
X0246569Y0678416D01*
X0246548Y0678512D01*
X0246531Y0678609D01*
X0246517Y0678706D01*
X0246508Y0678804D01*
X0246502Y0678902D01*
X0246500Y0679000D01*
X0012100Y0692100D02*
X0012053Y0692102D01*
X0012006Y0692107D01*
X0011960Y0692117D01*
X0011915Y0692129D01*
X0011870Y0692146D01*
X0011828Y0692165D01*
X0011787Y0692188D01*
X0011747Y0692215D01*
X0011710Y0692244D01*
X0011676Y0692276D01*
X0011644Y0692310D01*
X0011615Y0692347D01*
X0011588Y0692387D01*
X0011565Y0692428D01*
X0011546Y0692470D01*
X0011529Y0692515D01*
X0011517Y0692560D01*
X0011507Y0692606D01*
X0011502Y0692653D01*
X0011500Y0692700D01*
X0477100Y0012100D02*
X0477102Y0012053D01*
X0477107Y0012006D01*
X0477117Y0011960D01*
X0477129Y0011915D01*
X0477146Y0011870D01*
X0477165Y0011828D01*
X0477188Y0011787D01*
X0477215Y0011747D01*
X0477244Y0011710D01*
X0477276Y0011676D01*
X0477310Y0011644D01*
X0477347Y0011615D01*
X0477387Y0011588D01*
X0477428Y0011565D01*
X0477470Y0011546D01*
X0477515Y0011529D01*
X0477560Y0011517D01*
X0477606Y0011507D01*
X0477653Y0011502D01*
X0477700Y0011500D01*
M02*
