%
M48
M71
T01C0.203
%
T01
X65786Y164846
X65786Y166116
X65786Y167386
X65786Y168656
X65786Y169926
X65786Y171196
X65786Y172466
X65786Y173736
X65786Y175006
X65786Y176276
X64516Y176276
X64516Y175006
X64516Y173736
X64516Y172466
X64516Y171196
X64516Y169926
X64516Y168656
X63246Y168656
X63246Y169926
X63246Y171196
X63246Y172466
X63246Y173736
X63246Y175006
X63246Y176276
X61976Y176276
X61976Y175006
X61976Y173736
X61976Y172466
X61976Y171196
X61976Y169926
X61976Y168656
X60706Y168656
X60706Y169926
X60706Y171196
X60706Y172466
X60706Y173736
X60706Y175006
X60706Y176276
X59436Y176276
X59436Y175006
X58166Y175006
X58166Y176276
X56896Y176276
X56896Y175006
X55626Y175006
X55626Y176276
X54356Y176276
X53086Y176276
X53086Y175006
X54356Y175006
X51816Y175006
X51816Y176276
X50546Y176276
X50546Y175006
X49276Y175006
X49276Y176276
X48006Y176276
X48006Y175006
X46736Y175006
X46736Y176276
X45466Y176276
X45466Y175006
X44196Y175006
X44196Y176276
X42926Y176276
X42926Y175006
X41656Y175006
X41656Y176276
X40386Y176276
X40386Y175006
X39116Y175006
X39116Y176276
X37846Y176276
X37846Y175006
X36576Y175006
X36576Y176276
X35306Y176276
X34036Y176276
X34036Y175006
X35306Y175006
X32766Y175006
X32766Y176276
X31496Y176276
X31496Y175006
X30226Y175006
X30226Y176276
X28956Y176276
X28956Y175006
X27686Y175006
X27686Y176276
X26416Y176276
X26416Y175006
X25146Y175006
X25146Y176276
X23876Y176276
X23876Y175006
X22606Y175006
X22606Y176276
X21336Y176276
X21336Y175006
X20066Y175006
X20066Y176276
X18796Y176276
X18796Y175006
X17526Y175006
X17526Y176276
X16256Y176276
X14986Y176276
X14986Y175006
X16256Y175006
X13716Y175006
X13716Y176276
X12446Y176276
X12446Y175006
X11176Y175006
X11176Y176276
X9906Y176276
X9906Y175006
X8636Y175006
X8636Y176276
X7366Y176276
X7366Y175006
X6096Y175006
X6096Y176276
X4826Y176276
X4826Y175006
X3556Y175006
X2921Y175336
X2921Y175946
X2286Y175641
X2286Y176276
X2286Y175006
X3556Y176276
X67056Y176276
X67056Y175006
X67056Y173736
X67056Y172466
X67056Y171196
X67056Y169926
X67056Y168656
X67056Y167386
X67056Y166116
X67056Y164846
X70866Y164846
X70866Y166116
X70866Y167386
X70866Y168656
X70866Y169926
X70866Y171196
X70866Y172466
X70866Y173736
X70866Y175006
X70866Y176276
X69596Y176276
X69596Y175006
X69596Y173736
X69596Y172466
X69596Y171196
X68326Y171196
X68326Y172466
X68326Y173736
X68326Y175006
X68326Y176276
X72136Y176276
X73406Y176276
X73406Y175006
X73406Y173736
X72136Y173736
X72136Y175006
X72136Y172466
X73406Y172466
X73406Y171196
X73406Y169926
X72136Y169926
X72136Y171196
X72136Y168656
X73406Y168656
X74676Y168656
X74676Y169926
X74676Y171196
X74676Y172466
X74676Y173736
X75946Y173736
X75946Y175006
X75946Y176276
X74676Y176276
X77216Y176276
X77216Y175006
X77216Y173736
X77216Y172466
X77216Y171196
X77216Y169926
X77216Y168656
X75946Y168656
X75946Y169926
X75946Y171196
X75946Y172466
X78486Y172466
X78486Y171196
X78486Y169926
X78486Y168656
X78486Y167386
X78486Y166116
X78486Y164846
X79756Y164846
X79756Y166116
X79756Y167386
X79756Y168656
X79756Y169926
X79756Y171196
X79756Y172466
X79756Y173736
X79756Y175006
X79756Y176276
X78486Y176276
X78486Y175006
X78486Y173736
X81026Y173736
X81026Y175006
X81026Y176276
X82296Y176276
X82296Y175006
X82296Y173736
X82296Y172466
X82296Y171196
X81026Y171196
X81026Y172466
X83566Y172466
X83566Y171196
X83566Y169926
X83566Y168656
X83566Y167386
X83566Y166116
X83566Y164846
X84836Y164846
X84836Y166116
X84836Y167386
X84836Y168656
X84836Y169926
X84836Y171196
X84836Y172466
X84836Y173736
X84836Y175006
X84836Y176276
X83566Y176276
X83566Y175006
X83566Y173736
X86106Y173736
X86106Y175006
X86106Y176276
X87376Y176276
X87376Y175006
X87376Y173736
X87376Y172466
X87376Y171196
X87376Y169926
X87376Y168656
X86106Y168656
X86106Y169926
X86106Y171196
X86106Y172466
X88646Y172466
X88646Y171196
X88646Y169926
X88646Y168656
X89916Y168656
X89916Y169926
X89916Y171196
X89916Y172466
X89916Y173736
X89916Y175006
X89916Y176276
X88646Y176276
X88646Y175006
X88646Y173736
X91186Y173736
X92456Y173736
X92456Y175006
X91186Y175006
X91186Y176276
X92456Y176276
X93726Y176276
X93726Y175006
X93726Y173736
X93726Y172466
X93726Y171196
X93726Y169926
X93726Y168656
X93726Y167386
X93726Y166116
X93726Y164846
X94996Y164846
X94996Y166116
X94996Y167386
X94996Y168656
X94996Y169926
X94996Y171196
X94996Y172466
X94996Y173736
X94996Y175006
X94996Y176276
X96266Y176276
X96266Y175006
X96266Y173736
X96266Y172466
X96266Y171196
X97536Y171196
X97536Y172466
X97536Y173736
X97536Y175006
X97536Y176276
X98806Y176276
X98806Y175006
X98806Y173736
X98806Y172466
X98806Y171196
X98806Y169926
X98806Y168656
X98806Y167386
X98806Y166116
X98806Y164846
X100076Y164846
X100076Y166116
X100076Y167386
X100076Y168656
X100076Y169926
X100076Y171196
X100076Y172466
X100076Y173736
X100076Y175006
X100076Y176276
X101346Y176276
X101346Y175006
X101346Y173736
X101346Y172466
X101346Y171196
X101346Y169926
X101346Y168656
X102616Y168656
X102616Y169926
X102616Y171196
X102616Y172466
X102616Y173736
X102616Y175006
X102616Y176276
X103886Y176276
X105156Y176276
X105156Y175006
X105156Y173736
X105156Y172466
X105156Y171196
X105156Y169926
X105156Y168656
X103886Y168656
X103886Y169926
X103886Y171196
X103886Y172466
X103886Y173736
X106426Y173736
X106426Y175006
X106426Y176276
X107696Y176276
X107696Y175006
X107696Y173736
X107696Y172466
X107696Y171196
X107696Y169926
X107696Y168656
X107696Y167386
X107696Y166116
X107696Y164846
X106426Y164846
X106426Y166116
X106426Y167386
X106426Y168656
X106426Y169926
X106426Y171196
X106426Y172466
X108966Y172466
X108966Y171196
X110236Y171196
X111506Y171196
X111506Y169926
X111506Y168656
X111506Y167386
X111506Y166116
X111506Y164846
X112776Y164846
X112776Y166116
X112776Y167386
X112776Y168656
X112776Y169926
X112776Y171196
X112776Y172466
X112776Y173736
X112776Y175006
X112776Y176276
X111506Y176276
X110236Y176276
X110236Y175006
X110236Y173736
X111506Y173736
X111506Y175006
X111506Y172466
X110236Y172466
X108966Y173736
X108966Y175006
X108966Y176276
X114046Y176276
X114046Y175006
X114046Y173736
X114046Y172466
X114046Y171196
X114046Y169926
X114046Y168656
X115316Y168656
X115316Y169926
X115316Y171196
X115316Y172466
X115316Y173736
X116586Y173736
X116586Y175006
X116586Y176276
X115316Y176276
X116586Y172466
X117856Y171196
X117856Y169926
X117856Y168656
X116586Y168656
X116586Y169926
X119126Y169926
X119126Y171196
X120396Y171196
X121666Y171196
X121666Y169926
X121666Y168656
X121666Y167386
X121666Y166116
X121666Y164846
X121666Y163576
X121666Y162306
X121666Y161036
X121666Y159766
X121666Y158496
X121666Y157226
X121666Y155956
X121666Y154686
X121666Y153416
X121666Y152146
X121666Y150876
X121666Y149606
X121666Y148336
X121666Y147066
X121666Y145796
X121666Y144526
X121666Y143256
X121666Y141986
X121666Y140716
X121666Y139446
X121666Y138176
X121666Y136906
X121666Y135636
X121666Y134366
X121666Y133096
X121666Y131826
X121666Y130556
X121666Y129286
X121666Y128016
X121666Y126746
X121666Y125476
X121666Y124206
X121666Y122936
X121666Y121666
X121666Y120396
X121666Y119126
X121666Y117856
X121666Y116586
X121666Y115316
X121666Y114046
X121666Y112776
X121666Y111506
X121666Y110236
X121666Y108966
X121666Y107696
X121666Y106426
X121666Y105156
X121666Y103886
X121666Y102616
X121666Y101346
X121666Y100076
X121666Y98806
X121666Y97536
X121666Y96266
X121666Y94996
X121666Y93726
X121666Y92456
X121666Y91186
X121666Y89916
X121666Y88646
X121666Y87376
X121666Y86106
X121666Y84836
X121666Y83566
X121666Y82296
X121666Y81026
X121666Y79756
X121666Y78486
X121666Y77216
X121666Y75946
X121666Y74676
X121666Y73406
X121666Y72136
X121666Y70866
X121666Y69596
X121666Y68326
X121666Y67056
X121666Y65786
X121666Y64516
X121666Y63246
X121666Y61976
X121666Y60706
X121666Y59436
X121666Y58166
X121666Y56896
X121666Y55626
X121666Y54356
X121666Y53086
X121666Y51816
X121666Y50546
X121666Y49276
X121666Y48006
X121666Y46736
X121666Y45466
X121666Y44196
X121666Y42926
X121666Y41656
X121666Y40386
X121666Y39116
X121666Y37846
X121666Y36576
X121666Y35306
X121666Y34036
X121666Y32766
X121666Y31496
X121666Y30226
X121666Y28956
X121666Y27686
X121666Y26416
X121666Y25146
X121666Y23876
X121666Y22606
X121666Y21336
X121666Y20066
X121666Y18796
X121666Y17526
X121666Y16256
X121666Y14986
X121666Y13716
X121666Y12446
X121666Y11176
X121666Y9906
X121666Y8636
X121666Y7366
X121666Y6096
X121666Y4826
X121666Y3556
X121336Y2921
X120726Y2921
X121031Y2286
X120396Y2286
X120396Y3556
X120396Y4826
X120396Y6096
X120396Y7366
X120396Y8636
X120396Y9906
X120396Y11176
X120396Y12446
X120396Y13716
X120396Y14986
X120396Y16256
X120396Y17526
X120396Y18796
X120396Y20066
X120396Y21336
X120396Y22606
X120396Y23876
X120396Y25146
X120396Y26416
X120396Y27686
X120396Y28956
X120396Y30226
X120396Y31496
X120396Y32766
X120396Y34036
X120396Y35306
X120396Y36576
X120396Y37846
X120396Y39116
X120396Y40386
X120396Y41656
X120396Y42926
X120396Y44196
X120396Y45466
X120396Y46736
X120396Y48006
X120396Y49276
X120396Y50546
X120396Y51816
X120396Y53086
X120396Y54356
X120396Y55626
X120396Y56896
X120396Y58166
X120396Y59436
X120396Y60706
X120396Y61976
X120396Y63246
X120396Y64516
X120396Y65786
X120396Y67056
X120396Y68326
X120396Y69596
X120396Y70866
X120396Y72136
X120396Y73406
X120396Y74676
X120396Y75946
X120396Y77216
X120396Y78486
X120396Y79756
X120396Y81026
X120396Y82296
X120396Y83566
X120396Y84836
X120396Y86106
X120396Y87376
X120396Y88646
X120396Y89916
X120396Y91186
X120396Y92456
X120396Y93726
X120396Y94996
X120396Y96266
X120396Y97536
X120396Y98806
X120396Y100076
X120396Y101346
X120396Y102616
X120396Y103886
X120396Y105156
X120396Y106426
X120396Y107696
X120396Y108966
X120396Y110236
X120396Y111506
X120396Y112776
X120396Y114046
X120396Y115316
X120396Y116586
X120396Y117856
X120396Y119126
X120396Y120396
X120396Y121666
X120396Y122936
X120396Y124206
X120396Y125476
X120396Y126746
X120396Y128016
X120396Y129286
X120396Y130556
X120396Y131826
X120396Y133096
X120396Y134366
X120396Y135636
X120396Y136906
X120396Y138176
X120396Y139446
X120396Y140716
X120396Y141986
X120396Y143256
X120396Y144526
X120396Y145796
X120396Y147066
X120396Y148336
X120396Y149606
X120396Y150876
X120396Y152146
X120396Y153416
X120396Y154686
X120396Y155956
X120396Y157226
X120396Y158496
X120396Y159766
X120396Y161036
X120396Y162306
X120396Y163576
X120396Y164846
X120396Y166116
X120396Y167386
X120396Y168656
X119126Y168656
X92456Y168656
X91186Y168656
X91186Y169926
X92456Y169926
X92456Y171196
X91186Y171196
X91186Y172466
X92456Y172466
X72136Y167386
X72136Y166116
X72136Y164846
X121666Y2286
M30
