G75*
%MOIN*%
%OFA0B0*%
%FSLAX25Y25*%
%IPPOS*%
%LPD*%
%AMOC8*
5,1,8,0,0,1.08239X$1,22.5*
%
%ADD10C,0.01200*%
%ADD11C,0.01100*%
%ADD12C,0.01000*%
%ADD13C,0.00900*%
%ADD14C,0.00800*%
%ADD15C,0.00700*%
%ADD16C,0.00600*%
%ADD17C,0.00500*%
%ADD18C,0.00400*%
%ADD19C,0.00300*%
%ADD20C,0.00200*%
%ADD21C,0.00100*%
%ADD22C,0.02000*%
%ADD23C,0.00000*%
%ADD24C,0.01575*%
%ADD25C,0.03000*%
D10*
X0451229Y0135733D02*
X0453729Y0138233D01*
D11*
X0453729Y0135733D02*
X0451229Y0133233D01*
D12*
X0451229Y0130733D02*
X0453729Y0133233D01*
D13*
X0453729Y0130733D02*
X0451229Y0128233D01*
D14*
X0451229Y0125733D02*
X0453729Y0128233D01*
X0452131Y0171233D02*
X0426328Y0171233D01*
X0426328Y0185233D01*
X0452131Y0185233D01*
X0452131Y0171233D01*
D15*
X0453729Y0125733D02*
X0451229Y0123233D01*
D16*
X0451229Y0120733D02*
X0453729Y0123233D01*
X0396179Y0129633D02*
X0396179Y0131833D01*
X0391779Y0127633D02*
X0389179Y0127633D01*
X0384779Y0129633D02*
X0384779Y0131833D01*
X0385679Y0131433D02*
X0385718Y0131380D01*
X0385754Y0131325D01*
X0385786Y0131268D01*
X0385815Y0131210D01*
X0385841Y0131149D01*
X0385863Y0131088D01*
X0385882Y0131025D01*
X0385897Y0130961D01*
X0385908Y0130896D01*
X0385916Y0130831D01*
X0385920Y0130766D01*
X0385920Y0130700D01*
X0385916Y0130635D01*
X0385908Y0130570D01*
X0385897Y0130505D01*
X0385882Y0130441D01*
X0385863Y0130378D01*
X0385841Y0130317D01*
X0385815Y0130256D01*
X0385786Y0130198D01*
X0385754Y0130141D01*
X0385718Y0130086D01*
X0385679Y0130033D01*
X0385718Y0130086D01*
X0385754Y0130141D01*
X0385786Y0130198D01*
X0385815Y0130256D01*
X0385841Y0130317D01*
X0385863Y0130378D01*
X0385882Y0130441D01*
X0385897Y0130505D01*
X0385908Y0130570D01*
X0385916Y0130635D01*
X0385920Y0130700D01*
X0385920Y0130766D01*
X0385916Y0130831D01*
X0385908Y0130896D01*
X0385897Y0130961D01*
X0385882Y0131025D01*
X0385863Y0131088D01*
X0385841Y0131149D01*
X0385815Y0131210D01*
X0385786Y0131268D01*
X0385754Y0131325D01*
X0385718Y0131380D01*
X0385679Y0131433D01*
X0347629Y0141083D02*
X0345229Y0141083D01*
X0347629Y0141083D02*
X0347629Y0142083D01*
X0338229Y0141083D02*
X0335829Y0141083D01*
X0335829Y0142083D01*
X0335829Y0151883D02*
X0335829Y0152883D01*
X0338229Y0152883D01*
X0345229Y0152883D02*
X0347629Y0152883D01*
X0347629Y0151883D01*
X0345329Y0173294D02*
X0333129Y0173294D01*
X0323875Y0180633D02*
X0321907Y0180633D01*
X0333129Y0193172D02*
X0338029Y0193172D01*
X0340429Y0193172D01*
X0345329Y0193172D01*
X0340429Y0193172D02*
X0340427Y0193103D01*
X0340421Y0193035D01*
X0340411Y0192967D01*
X0340398Y0192900D01*
X0340380Y0192834D01*
X0340359Y0192769D01*
X0340334Y0192705D01*
X0340306Y0192643D01*
X0340274Y0192582D01*
X0340239Y0192523D01*
X0340200Y0192467D01*
X0340158Y0192412D01*
X0340113Y0192361D01*
X0340065Y0192311D01*
X0340015Y0192265D01*
X0339962Y0192222D01*
X0339906Y0192181D01*
X0339849Y0192144D01*
X0339789Y0192111D01*
X0339727Y0192080D01*
X0339664Y0192054D01*
X0339600Y0192031D01*
X0339534Y0192011D01*
X0339467Y0191996D01*
X0339400Y0191984D01*
X0339332Y0191976D01*
X0339263Y0191972D01*
X0339195Y0191972D01*
X0339126Y0191976D01*
X0339058Y0191984D01*
X0338991Y0191996D01*
X0338924Y0192011D01*
X0338858Y0192031D01*
X0338794Y0192054D01*
X0338731Y0192080D01*
X0338669Y0192111D01*
X0338609Y0192144D01*
X0338552Y0192181D01*
X0338496Y0192222D01*
X0338443Y0192265D01*
X0338393Y0192311D01*
X0338345Y0192361D01*
X0338300Y0192412D01*
X0338258Y0192467D01*
X0338219Y0192523D01*
X0338184Y0192582D01*
X0338152Y0192643D01*
X0338124Y0192705D01*
X0338099Y0192769D01*
X0338078Y0192834D01*
X0338060Y0192900D01*
X0338047Y0192967D01*
X0338037Y0193035D01*
X0338031Y0193103D01*
X0338029Y0193172D01*
X0325129Y0227333D02*
X0324129Y0227333D01*
X0325129Y0227333D02*
X0325129Y0229733D01*
X0325129Y0236733D02*
X0325129Y0239133D01*
X0324129Y0239133D01*
X0314329Y0239133D02*
X0313329Y0239133D01*
X0313329Y0236733D01*
X0313329Y0229733D02*
X0313329Y0227333D01*
X0314329Y0227333D01*
X0250129Y0227333D02*
X0249129Y0227333D01*
X0250129Y0227333D02*
X0250129Y0229733D01*
X0250129Y0236733D02*
X0250129Y0239133D01*
X0249129Y0239133D01*
X0239329Y0239133D02*
X0238329Y0239133D01*
X0238329Y0236733D01*
X0238329Y0229733D02*
X0238329Y0227333D01*
X0239329Y0227333D01*
X0182629Y0215383D02*
X0182629Y0214383D01*
X0182629Y0215383D02*
X0180229Y0215383D01*
X0173229Y0215383D02*
X0170829Y0215383D01*
X0170829Y0214383D01*
X0170829Y0204583D02*
X0170829Y0203583D01*
X0173229Y0203583D01*
X0180229Y0203583D02*
X0182629Y0203583D01*
X0182629Y0204583D01*
X0133679Y0224633D02*
X0133679Y0226833D01*
X0132779Y0226433D02*
X0132740Y0226380D01*
X0132704Y0226325D01*
X0132672Y0226268D01*
X0132643Y0226210D01*
X0132617Y0226149D01*
X0132595Y0226088D01*
X0132576Y0226025D01*
X0132561Y0225961D01*
X0132550Y0225896D01*
X0132542Y0225831D01*
X0132538Y0225766D01*
X0132538Y0225700D01*
X0132542Y0225635D01*
X0132550Y0225570D01*
X0132561Y0225505D01*
X0132576Y0225441D01*
X0132595Y0225378D01*
X0132617Y0225317D01*
X0132643Y0225256D01*
X0132672Y0225198D01*
X0132704Y0225141D01*
X0132740Y0225086D01*
X0132779Y0225033D01*
X0132740Y0225086D01*
X0132704Y0225141D01*
X0132672Y0225198D01*
X0132643Y0225256D01*
X0132617Y0225317D01*
X0132595Y0225378D01*
X0132576Y0225441D01*
X0132561Y0225505D01*
X0132550Y0225570D01*
X0132542Y0225635D01*
X0132538Y0225700D01*
X0132538Y0225766D01*
X0132542Y0225831D01*
X0132550Y0225896D01*
X0132561Y0225961D01*
X0132576Y0226025D01*
X0132595Y0226088D01*
X0132617Y0226149D01*
X0132643Y0226210D01*
X0132672Y0226268D01*
X0132704Y0226325D01*
X0132740Y0226380D01*
X0132779Y0226433D01*
X0129279Y0228833D02*
X0126679Y0228833D01*
X0122279Y0226833D02*
X0122279Y0224633D01*
X0107629Y0272333D02*
X0105229Y0272333D01*
X0107629Y0272333D02*
X0107629Y0273333D01*
X0098229Y0272333D02*
X0095829Y0272333D01*
X0095829Y0273333D01*
X0095829Y0283133D02*
X0095829Y0284133D01*
X0098229Y0284133D01*
X0105229Y0284133D02*
X0107629Y0284133D01*
X0107629Y0283133D01*
X0193329Y0129133D02*
X0194329Y0129133D01*
X0193329Y0129133D02*
X0193329Y0126733D01*
X0193329Y0119733D02*
X0193329Y0117333D01*
X0194329Y0117333D01*
X0204129Y0117333D02*
X0205129Y0117333D01*
X0205129Y0119733D01*
X0205129Y0126733D02*
X0205129Y0129133D01*
X0204129Y0129133D01*
X0268329Y0129133D02*
X0269329Y0129133D01*
X0268329Y0129133D02*
X0268329Y0126733D01*
X0268329Y0119733D02*
X0268329Y0117333D01*
X0269329Y0117333D01*
X0279129Y0117333D02*
X0280129Y0117333D01*
X0280129Y0119733D01*
X0280129Y0126733D02*
X0280129Y0129133D01*
X0279129Y0129133D01*
X0400829Y0172333D02*
X0400829Y0173333D01*
X0400829Y0172333D02*
X0403229Y0172333D01*
X0410229Y0172333D02*
X0412629Y0172333D01*
X0412629Y0173333D01*
X0412629Y0183133D02*
X0412629Y0184133D01*
X0410229Y0184133D01*
X0403229Y0184133D02*
X0400829Y0184133D01*
X0400829Y0183133D01*
X0405525Y0229946D02*
X0429934Y0229946D01*
X0431017Y0231028D01*
X0431017Y0255438D01*
X0429934Y0256520D01*
X0405525Y0256520D01*
X0404442Y0255438D01*
X0404442Y0231028D01*
X0405525Y0229946D01*
X0443629Y0238633D02*
X0443629Y0239533D01*
X0443629Y0241933D01*
X0443629Y0242833D01*
X0455829Y0242833D02*
X0455829Y0238633D01*
X0107629Y0084133D02*
X0107629Y0083133D01*
X0107629Y0084133D02*
X0105229Y0084133D01*
X0098229Y0084133D02*
X0095829Y0084133D01*
X0095829Y0083133D01*
X0095829Y0073333D02*
X0095829Y0072333D01*
X0098229Y0072333D01*
X0105229Y0072333D02*
X0107629Y0072333D01*
X0107629Y0073333D01*
D17*
X0109976Y0073556D02*
X0109976Y0075891D01*
X0111728Y0075891D01*
X0111144Y0074724D01*
X0111144Y0074140D01*
X0111728Y0073556D01*
X0112896Y0073556D01*
X0113479Y0074140D01*
X0113479Y0075308D01*
X0112896Y0075891D01*
X0113479Y0077239D02*
X0113479Y0079575D01*
X0113479Y0078407D02*
X0109976Y0078407D01*
X0111144Y0079575D01*
X0109976Y0080922D02*
X0112896Y0080922D01*
X0113479Y0081506D01*
X0113479Y0082674D01*
X0112896Y0083258D01*
X0109976Y0083258D01*
X0126749Y0081048D02*
X0126749Y0100615D01*
X0138140Y0072083D02*
X0138140Y0069381D01*
X0139491Y0069381D01*
X0139941Y0069831D01*
X0139941Y0070732D01*
X0139491Y0071182D01*
X0138140Y0071182D01*
X0141086Y0072083D02*
X0141987Y0071182D01*
X0142888Y0072083D01*
X0142888Y0069381D01*
X0144033Y0069381D02*
X0145384Y0069381D01*
X0145834Y0069831D01*
X0145834Y0070732D01*
X0145384Y0071182D01*
X0144033Y0071182D01*
X0144934Y0071182D02*
X0145834Y0072083D01*
X0146979Y0070732D02*
X0148781Y0070732D01*
X0149926Y0070282D02*
X0150376Y0070732D01*
X0151277Y0070732D01*
X0151727Y0071182D01*
X0151727Y0071633D01*
X0151277Y0072083D01*
X0150376Y0072083D01*
X0149926Y0071633D01*
X0149926Y0070282D02*
X0149926Y0069831D01*
X0150376Y0069381D01*
X0151277Y0069381D01*
X0151727Y0069831D01*
X0152872Y0069381D02*
X0152872Y0072083D01*
X0153773Y0071182D01*
X0154674Y0072083D01*
X0154674Y0069381D01*
X0144033Y0069381D02*
X0144033Y0072083D01*
X0141086Y0072083D02*
X0141086Y0069381D01*
X0166749Y0081048D02*
X0166749Y0100615D01*
X0169072Y0102541D02*
X0169072Y0078919D01*
X0180096Y0078919D01*
X0180096Y0080887D01*
X0180096Y0080891D02*
X0180686Y0080891D01*
X0180686Y0082859D02*
X0171040Y0082859D01*
X0171040Y0082856D01*
X0171040Y0082859D02*
X0171040Y0092698D01*
X0173403Y0092698D01*
X0173403Y0098604D01*
X0173403Y0098607D02*
X0180686Y0098607D01*
X0180686Y0100576D02*
X0180096Y0100576D01*
X0180096Y0102541D01*
X0169072Y0102541D01*
X0180096Y0100576D02*
X0180096Y0100572D01*
X0180096Y0092698D02*
X0180096Y0088761D01*
X0338363Y0088761D01*
X0338363Y0092698D01*
X0180096Y0092698D01*
X0207476Y0118556D02*
X0208060Y0118556D01*
X0210396Y0120891D01*
X0210979Y0120891D01*
X0210979Y0122239D02*
X0210979Y0124575D01*
X0210979Y0123407D02*
X0207476Y0123407D01*
X0208644Y0124575D01*
X0207476Y0125922D02*
X0210396Y0125922D01*
X0210979Y0126506D01*
X0210979Y0127674D01*
X0210396Y0128258D01*
X0207476Y0128258D01*
X0207476Y0120891D02*
X0207476Y0118556D01*
X0282476Y0119140D02*
X0283060Y0118556D01*
X0285396Y0118556D01*
X0285979Y0119140D01*
X0285979Y0120308D01*
X0285396Y0120891D01*
X0284228Y0120308D02*
X0284228Y0118556D01*
X0284228Y0120308D02*
X0283644Y0120891D01*
X0283060Y0120891D01*
X0282476Y0120308D01*
X0282476Y0119140D01*
X0282476Y0123407D02*
X0285979Y0123407D01*
X0285979Y0124575D02*
X0285979Y0122239D01*
X0283644Y0124575D02*
X0282476Y0123407D01*
X0282476Y0125922D02*
X0285396Y0125922D01*
X0285979Y0126506D01*
X0285979Y0127674D01*
X0285396Y0128258D01*
X0282476Y0128258D01*
X0336705Y0154980D02*
X0336705Y0157899D01*
X0337288Y0158483D01*
X0338456Y0158483D01*
X0339040Y0157899D01*
X0339040Y0154980D01*
X0340388Y0155564D02*
X0340972Y0154980D01*
X0342139Y0154980D01*
X0342723Y0155564D01*
X0342723Y0156148D01*
X0340388Y0158483D01*
X0342723Y0158483D01*
X0344071Y0158483D02*
X0346406Y0158483D01*
X0345239Y0158483D02*
X0345239Y0154980D01*
X0344071Y0156148D01*
X0344156Y0195480D02*
X0341821Y0195480D01*
X0340473Y0196064D02*
X0339889Y0195480D01*
X0338722Y0195480D01*
X0338138Y0196064D01*
X0336790Y0195480D02*
X0336790Y0198399D01*
X0336206Y0198983D01*
X0335038Y0198983D01*
X0334455Y0198399D01*
X0334455Y0195480D01*
X0338138Y0198983D02*
X0340473Y0196648D01*
X0340473Y0196064D01*
X0341821Y0198399D02*
X0341821Y0198983D01*
X0341821Y0198399D02*
X0344156Y0196064D01*
X0344156Y0195480D01*
X0340473Y0198983D02*
X0338138Y0198983D01*
X0310396Y0228306D02*
X0310979Y0228890D01*
X0310979Y0230058D01*
X0310396Y0230641D01*
X0308060Y0228306D01*
X0310396Y0228306D01*
X0310396Y0230641D02*
X0308060Y0230641D01*
X0307476Y0230058D01*
X0307476Y0228890D01*
X0308060Y0228306D01*
X0308060Y0231989D02*
X0307476Y0232573D01*
X0307476Y0233741D01*
X0308060Y0234325D01*
X0307476Y0235672D02*
X0310396Y0235672D01*
X0310979Y0236256D01*
X0310979Y0237424D01*
X0310396Y0238008D01*
X0307476Y0238008D01*
X0310979Y0234325D02*
X0308644Y0231989D01*
X0308060Y0231989D01*
X0310979Y0231989D02*
X0310979Y0234325D01*
X0338363Y0253925D02*
X0349387Y0253925D01*
X0349387Y0277547D01*
X0338363Y0277547D01*
X0338363Y0275579D01*
X0338363Y0275576D02*
X0337773Y0275576D01*
X0337773Y0273607D02*
X0345056Y0273607D01*
X0345056Y0273610D01*
X0345056Y0273607D02*
X0345056Y0267705D01*
X0347418Y0267705D01*
X0347418Y0257862D01*
X0347418Y0257859D02*
X0337773Y0257859D01*
X0337773Y0255891D02*
X0338363Y0255891D01*
X0338363Y0253925D01*
X0338363Y0255891D02*
X0338363Y0255894D01*
X0338363Y0263768D02*
X0338363Y0267705D01*
X0180096Y0267705D01*
X0180096Y0263768D01*
X0338363Y0263768D01*
X0351710Y0255851D02*
X0351710Y0275418D01*
X0347418Y0275871D02*
X0345844Y0275871D01*
X0346631Y0274296D01*
X0347418Y0275871D01*
X0363140Y0284381D02*
X0364491Y0284381D01*
X0364941Y0284831D01*
X0364941Y0285732D01*
X0364491Y0286182D01*
X0363140Y0286182D01*
X0363140Y0287083D02*
X0363140Y0284381D01*
X0366086Y0284381D02*
X0366086Y0287083D01*
X0366987Y0286182D01*
X0367888Y0287083D01*
X0367888Y0284381D01*
X0369033Y0284381D02*
X0370384Y0284381D01*
X0370834Y0284831D01*
X0370834Y0285732D01*
X0370384Y0286182D01*
X0369033Y0286182D01*
X0369934Y0286182D02*
X0370834Y0287083D01*
X0371979Y0285732D02*
X0373781Y0285732D01*
X0374926Y0287083D02*
X0374926Y0284381D01*
X0376727Y0287083D01*
X0376727Y0284381D01*
X0377872Y0284381D02*
X0377872Y0287083D01*
X0379674Y0287083D01*
X0378773Y0285732D02*
X0377872Y0285732D01*
X0377872Y0284381D02*
X0379674Y0284381D01*
X0369033Y0284381D02*
X0369033Y0287083D01*
X0391710Y0275418D02*
X0391710Y0255851D01*
X0397296Y0257480D02*
X0397296Y0260399D01*
X0397880Y0260983D01*
X0399048Y0260983D01*
X0399632Y0260399D01*
X0399632Y0257480D01*
X0400979Y0258648D02*
X0402147Y0257480D01*
X0402147Y0260983D01*
X0400979Y0260983D02*
X0403315Y0260983D01*
X0432930Y0226654D02*
X0432930Y0216812D01*
X0445529Y0216812D01*
X0445529Y0226654D01*
X0432930Y0226654D01*
X0400982Y0203076D02*
X0400399Y0203660D01*
X0398063Y0201325D01*
X0397479Y0201908D01*
X0397479Y0203076D01*
X0398063Y0203660D01*
X0400399Y0203660D01*
X0400982Y0203076D02*
X0400982Y0201908D01*
X0400399Y0201325D01*
X0398063Y0201325D01*
X0398063Y0199977D02*
X0397479Y0199393D01*
X0397479Y0198225D01*
X0398063Y0197641D01*
X0398063Y0196294D02*
X0400982Y0196294D01*
X0400399Y0197641D02*
X0400982Y0198225D01*
X0400982Y0199393D01*
X0400399Y0199977D01*
X0399815Y0199977D01*
X0399231Y0199393D01*
X0398647Y0199977D01*
X0398063Y0199977D01*
X0399231Y0199393D02*
X0399231Y0198809D01*
X0398063Y0196294D02*
X0397479Y0195710D01*
X0397479Y0194542D01*
X0398063Y0193958D01*
X0400982Y0193958D01*
X0415979Y0182660D02*
X0415979Y0180325D01*
X0418315Y0182660D01*
X0418899Y0182660D01*
X0419482Y0182076D01*
X0419482Y0180908D01*
X0418899Y0180325D01*
X0418899Y0178977D02*
X0419482Y0178393D01*
X0419482Y0177225D01*
X0418899Y0176641D01*
X0419482Y0175294D02*
X0416563Y0175294D01*
X0415979Y0174710D01*
X0415979Y0173542D01*
X0416563Y0172958D01*
X0419482Y0172958D01*
X0415979Y0176641D02*
X0418315Y0178977D01*
X0418899Y0178977D01*
X0415979Y0178977D02*
X0415979Y0176641D01*
X0434455Y0197730D02*
X0434455Y0200649D01*
X0435038Y0201233D01*
X0436206Y0201233D01*
X0436790Y0200649D01*
X0436790Y0197730D01*
X0438138Y0198314D02*
X0438722Y0197730D01*
X0439889Y0197730D01*
X0440473Y0198314D01*
X0440473Y0198898D01*
X0438138Y0201233D01*
X0440473Y0201233D01*
X0441821Y0200649D02*
X0442405Y0201233D01*
X0443572Y0201233D01*
X0444156Y0200649D01*
X0444156Y0200065D01*
X0443572Y0199482D01*
X0441821Y0199482D01*
X0441821Y0200649D01*
X0441821Y0199482D02*
X0442989Y0198314D01*
X0444156Y0197730D01*
X0453729Y0120733D02*
X0451229Y0118233D01*
X0391710Y0100418D02*
X0391710Y0080851D01*
X0379674Y0072083D02*
X0377872Y0072083D01*
X0377872Y0069381D01*
X0379674Y0069381D01*
X0378773Y0070732D02*
X0377872Y0070732D01*
X0376727Y0071182D02*
X0376727Y0071633D01*
X0376277Y0072083D01*
X0375376Y0072083D01*
X0374926Y0071633D01*
X0375376Y0070732D02*
X0376277Y0070732D01*
X0376727Y0071182D01*
X0376727Y0069831D02*
X0376277Y0069381D01*
X0375376Y0069381D01*
X0374926Y0069831D01*
X0374926Y0070282D01*
X0375376Y0070732D01*
X0373781Y0070732D02*
X0371979Y0070732D01*
X0370834Y0070732D02*
X0370384Y0071182D01*
X0369033Y0071182D01*
X0369934Y0071182D02*
X0370834Y0072083D01*
X0370834Y0070732D02*
X0370834Y0069831D01*
X0370384Y0069381D01*
X0369033Y0069381D01*
X0369033Y0072083D01*
X0367888Y0072083D02*
X0367888Y0069381D01*
X0366086Y0069381D02*
X0366086Y0072083D01*
X0366987Y0071182D01*
X0367888Y0072083D01*
X0364941Y0070732D02*
X0364491Y0071182D01*
X0363140Y0071182D01*
X0363140Y0072083D02*
X0363140Y0069381D01*
X0364491Y0069381D01*
X0364941Y0069831D01*
X0364941Y0070732D01*
X0351710Y0080851D02*
X0351710Y0100418D01*
X0349387Y0102541D02*
X0338363Y0102541D01*
X0338363Y0100576D01*
X0337773Y0100576D01*
X0338363Y0100576D02*
X0338363Y0100572D01*
X0337773Y0098607D02*
X0345056Y0098607D01*
X0345056Y0098604D02*
X0345056Y0092698D01*
X0347418Y0092698D01*
X0347418Y0082859D01*
X0337773Y0082859D01*
X0337773Y0080891D02*
X0338363Y0080891D01*
X0338363Y0080887D02*
X0338363Y0078919D01*
X0349387Y0078919D01*
X0349387Y0102541D01*
X0347418Y0101068D02*
X0345844Y0101068D01*
X0346631Y0099493D01*
X0347418Y0101068D01*
X0347418Y0082859D02*
X0347418Y0082856D01*
X0181406Y0197730D02*
X0180239Y0198314D01*
X0179071Y0199482D01*
X0180822Y0199482D01*
X0181406Y0200065D01*
X0181406Y0200649D01*
X0180822Y0201233D01*
X0179655Y0201233D01*
X0179071Y0200649D01*
X0179071Y0199482D01*
X0177723Y0201233D02*
X0175388Y0201233D01*
X0176555Y0201233D02*
X0176555Y0197730D01*
X0175388Y0198898D01*
X0174040Y0197730D02*
X0174040Y0200649D01*
X0173456Y0201233D01*
X0172288Y0201233D01*
X0171705Y0200649D01*
X0171705Y0197730D01*
X0232476Y0229140D02*
X0233060Y0228556D01*
X0233644Y0228556D01*
X0234228Y0229140D01*
X0234228Y0230308D01*
X0233644Y0230891D01*
X0233060Y0230891D01*
X0232476Y0230308D01*
X0232476Y0229140D01*
X0234228Y0229140D02*
X0234812Y0228556D01*
X0235396Y0228556D01*
X0235979Y0229140D01*
X0235979Y0230308D01*
X0235396Y0230891D01*
X0234812Y0230891D01*
X0234228Y0230308D01*
X0235979Y0232239D02*
X0235979Y0234575D01*
X0235979Y0233407D02*
X0232476Y0233407D01*
X0233644Y0234575D01*
X0232476Y0235922D02*
X0235396Y0235922D01*
X0235979Y0236506D01*
X0235979Y0237674D01*
X0235396Y0238258D01*
X0232476Y0238258D01*
X0180096Y0253925D02*
X0180096Y0255891D01*
X0180686Y0255891D01*
X0180096Y0255891D02*
X0180096Y0255894D01*
X0180096Y0253925D02*
X0169072Y0253925D01*
X0169072Y0277547D01*
X0180096Y0277547D01*
X0180096Y0275579D01*
X0180096Y0275576D02*
X0180686Y0275576D01*
X0180686Y0273607D02*
X0173403Y0273607D01*
X0173403Y0267705D01*
X0171040Y0267705D01*
X0171040Y0257862D01*
X0171040Y0257859D02*
X0180686Y0257859D01*
X0166749Y0256048D02*
X0166749Y0275615D01*
X0173403Y0273610D02*
X0173403Y0273607D01*
X0154674Y0284381D02*
X0154674Y0287083D01*
X0153773Y0286182D01*
X0152872Y0287083D01*
X0152872Y0284381D01*
X0151727Y0284381D02*
X0151727Y0287083D01*
X0149926Y0284381D01*
X0149926Y0287083D01*
X0148781Y0285732D02*
X0146979Y0285732D01*
X0145834Y0285732D02*
X0145384Y0286182D01*
X0144033Y0286182D01*
X0144934Y0286182D02*
X0145834Y0287083D01*
X0145834Y0285732D02*
X0145834Y0284831D01*
X0145384Y0284381D01*
X0144033Y0284381D01*
X0144033Y0287083D01*
X0142888Y0287083D02*
X0142888Y0284381D01*
X0141086Y0284381D02*
X0141086Y0287083D01*
X0141987Y0286182D01*
X0142888Y0287083D01*
X0139941Y0285732D02*
X0139491Y0286182D01*
X0138140Y0286182D01*
X0138140Y0287083D02*
X0138140Y0284381D01*
X0139491Y0284381D01*
X0139941Y0284831D01*
X0139941Y0285732D01*
X0126749Y0275615D02*
X0126749Y0256048D01*
X0093479Y0274140D02*
X0089976Y0274140D01*
X0091728Y0275891D01*
X0091728Y0273556D01*
X0093479Y0277239D02*
X0093479Y0279575D01*
X0093479Y0278407D02*
X0089976Y0278407D01*
X0091144Y0279575D01*
X0089976Y0280922D02*
X0092896Y0280922D01*
X0093479Y0281506D01*
X0093479Y0282674D01*
X0092896Y0283258D01*
X0089976Y0283258D01*
D18*
X0105260Y0266133D02*
X0105260Y0263331D01*
X0106661Y0263331D01*
X0107128Y0263798D01*
X0107128Y0264732D01*
X0106661Y0265199D01*
X0105260Y0265199D01*
X0106194Y0265199D02*
X0107128Y0266133D01*
X0108206Y0265666D02*
X0108673Y0266133D01*
X0109607Y0266133D01*
X0110074Y0265666D01*
X0110074Y0265199D01*
X0109607Y0264732D01*
X0108206Y0264732D01*
X0108206Y0265666D01*
X0108206Y0264732D02*
X0109140Y0263798D01*
X0110074Y0263331D01*
X0111153Y0263798D02*
X0111620Y0263331D01*
X0112554Y0263331D01*
X0113021Y0263798D01*
X0113021Y0264265D01*
X0111153Y0266133D01*
X0113021Y0266133D01*
X0115260Y0266133D02*
X0115260Y0263331D01*
X0116661Y0263331D01*
X0117128Y0263798D01*
X0117128Y0264732D01*
X0116661Y0265199D01*
X0115260Y0265199D01*
X0116194Y0265199D02*
X0117128Y0266133D01*
X0118206Y0265666D02*
X0118673Y0266133D01*
X0119607Y0266133D01*
X0120074Y0265666D01*
X0120074Y0265199D01*
X0119607Y0264732D01*
X0118206Y0264732D01*
X0118206Y0265666D01*
X0118206Y0264732D02*
X0119140Y0263798D01*
X0120074Y0263331D01*
X0121153Y0264265D02*
X0122087Y0263331D01*
X0122087Y0266133D01*
X0121153Y0266133D02*
X0123021Y0266133D01*
X0120162Y0229703D02*
X0118294Y0229703D01*
X0117827Y0229236D01*
X0117827Y0228302D01*
X0118294Y0227835D01*
X0117827Y0226756D02*
X0120629Y0224888D01*
X0117827Y0224888D01*
X0117827Y0223810D02*
X0120629Y0223810D01*
X0119695Y0222876D01*
X0120629Y0221942D01*
X0117827Y0221942D01*
X0117827Y0226756D02*
X0120629Y0226756D01*
X0120162Y0227835D02*
X0120629Y0228302D01*
X0120629Y0229236D01*
X0120162Y0229703D01*
X0176327Y0244355D02*
X0176794Y0243888D01*
X0177728Y0243888D01*
X0178195Y0244355D01*
X0178195Y0245756D01*
X0179129Y0245756D02*
X0176327Y0245756D01*
X0176327Y0244355D01*
X0177728Y0242810D02*
X0177728Y0240942D01*
X0178195Y0246835D02*
X0176327Y0246835D01*
X0176327Y0248703D02*
X0178195Y0248703D01*
X0179129Y0247769D01*
X0178195Y0246835D01*
X0188827Y0239953D02*
X0190695Y0239953D01*
X0191629Y0239019D01*
X0190695Y0238085D01*
X0188827Y0238085D01*
X0188827Y0237006D02*
X0188827Y0235605D01*
X0189294Y0235138D01*
X0190228Y0235138D01*
X0190695Y0235605D01*
X0190695Y0237006D01*
X0191629Y0237006D02*
X0188827Y0237006D01*
X0190228Y0234060D02*
X0190228Y0232192D01*
X0189294Y0233126D02*
X0191162Y0233126D01*
X0317827Y0224953D02*
X0317827Y0223552D01*
X0318294Y0223085D01*
X0319228Y0223085D01*
X0319695Y0223552D01*
X0319695Y0224953D01*
X0319695Y0224019D02*
X0320629Y0223085D01*
X0320629Y0222006D02*
X0320162Y0222006D01*
X0318294Y0220138D01*
X0317827Y0220138D01*
X0317827Y0222006D01*
X0317827Y0224953D02*
X0320629Y0224953D01*
X0319228Y0219060D02*
X0319228Y0217192D01*
X0317827Y0217659D02*
X0319228Y0219060D01*
X0320629Y0217659D02*
X0317827Y0217659D01*
X0400577Y0270159D02*
X0401044Y0269692D01*
X0402912Y0271560D01*
X0403379Y0271093D01*
X0403379Y0270159D01*
X0402912Y0269692D01*
X0401044Y0269692D01*
X0400577Y0270159D02*
X0400577Y0271093D01*
X0401044Y0271560D01*
X0402912Y0271560D01*
X0401978Y0272638D02*
X0402445Y0273105D01*
X0402445Y0274506D01*
X0403379Y0274506D02*
X0400577Y0274506D01*
X0400577Y0273105D01*
X0401044Y0272638D01*
X0401978Y0272638D01*
X0400577Y0275585D02*
X0400577Y0277453D01*
X0400577Y0276519D02*
X0403379Y0276519D01*
X0409077Y0276519D02*
X0411879Y0276519D01*
X0411879Y0274506D02*
X0409077Y0274506D01*
X0409077Y0273105D01*
X0409544Y0272638D01*
X0410478Y0272638D01*
X0410945Y0273105D01*
X0410945Y0274506D01*
X0409077Y0275585D02*
X0409077Y0277453D01*
X0410011Y0271560D02*
X0409077Y0270626D01*
X0411879Y0270626D01*
X0411879Y0271560D02*
X0411879Y0269692D01*
X0417827Y0270159D02*
X0417827Y0271093D01*
X0418294Y0271560D01*
X0418294Y0272638D02*
X0419228Y0272638D01*
X0419695Y0273105D01*
X0419695Y0274506D01*
X0420629Y0274506D02*
X0417827Y0274506D01*
X0417827Y0273105D01*
X0418294Y0272638D01*
X0417827Y0270159D02*
X0418294Y0269692D01*
X0418761Y0269692D01*
X0420629Y0271560D01*
X0420629Y0269692D01*
X0426577Y0270159D02*
X0427044Y0269692D01*
X0427511Y0269692D01*
X0427978Y0270159D01*
X0428445Y0269692D01*
X0428912Y0269692D01*
X0429379Y0270159D01*
X0429379Y0271093D01*
X0428912Y0271560D01*
X0427978Y0270626D02*
X0427978Y0270159D01*
X0426577Y0270159D02*
X0426577Y0271093D01*
X0427044Y0271560D01*
X0427044Y0272638D02*
X0427978Y0272638D01*
X0428445Y0273105D01*
X0428445Y0274506D01*
X0429379Y0274506D02*
X0426577Y0274506D01*
X0426577Y0273105D01*
X0427044Y0272638D01*
X0426577Y0275585D02*
X0426577Y0277453D01*
X0426577Y0276519D02*
X0429379Y0276519D01*
X0420629Y0276519D02*
X0417827Y0276519D01*
X0417827Y0277453D02*
X0417827Y0275585D01*
X0439027Y0243330D02*
X0441362Y0243330D01*
X0441829Y0242863D01*
X0441829Y0241928D01*
X0441362Y0241461D01*
X0439027Y0241461D01*
X0439494Y0240383D02*
X0439027Y0239916D01*
X0439027Y0238982D01*
X0439494Y0238515D01*
X0439961Y0238515D01*
X0441829Y0240383D01*
X0441829Y0238515D01*
X0452294Y0153453D02*
X0454162Y0153453D01*
X0454629Y0152986D01*
X0454629Y0152052D01*
X0454162Y0151585D01*
X0454162Y0150506D02*
X0453695Y0150506D01*
X0453228Y0150039D01*
X0453228Y0149105D01*
X0453695Y0148638D01*
X0454162Y0148638D01*
X0454629Y0149105D01*
X0454629Y0150039D01*
X0454162Y0150506D01*
X0453228Y0150039D02*
X0452761Y0150506D01*
X0452294Y0150506D01*
X0451827Y0150039D01*
X0451827Y0149105D01*
X0452294Y0148638D01*
X0452761Y0148638D01*
X0453228Y0149105D01*
X0453228Y0147560D02*
X0453228Y0145692D01*
X0451827Y0146159D02*
X0453228Y0147560D01*
X0454629Y0146159D02*
X0451827Y0146159D01*
X0452294Y0151585D02*
X0451827Y0152052D01*
X0451827Y0152986D01*
X0452294Y0153453D01*
X0438961Y0140864D02*
X0438961Y0138061D01*
X0437093Y0138061D01*
X0436014Y0138061D02*
X0434146Y0138061D01*
X0435080Y0138061D02*
X0435080Y0140864D01*
X0436014Y0139930D01*
X0433068Y0139930D02*
X0433068Y0140397D01*
X0432601Y0140864D01*
X0431667Y0140864D01*
X0431200Y0140397D01*
X0431200Y0139930D01*
X0431667Y0139463D01*
X0432601Y0139463D01*
X0433068Y0139930D01*
X0432601Y0139463D02*
X0433068Y0138996D01*
X0433068Y0138528D01*
X0432601Y0138061D01*
X0431667Y0138061D01*
X0431200Y0138528D01*
X0431200Y0138996D01*
X0431667Y0139463D01*
X0426162Y0145692D02*
X0426629Y0146159D01*
X0426629Y0147093D01*
X0426162Y0147560D01*
X0426162Y0148638D02*
X0426629Y0149105D01*
X0426629Y0150039D01*
X0426162Y0150506D01*
X0425695Y0150506D01*
X0425228Y0150039D01*
X0425228Y0149105D01*
X0425695Y0148638D01*
X0426162Y0148638D01*
X0425228Y0149105D02*
X0424761Y0148638D01*
X0424294Y0148638D01*
X0423827Y0149105D01*
X0423827Y0150039D01*
X0424294Y0150506D01*
X0424761Y0150506D01*
X0425228Y0150039D01*
X0424294Y0151585D02*
X0423827Y0152052D01*
X0423827Y0152986D01*
X0424294Y0153453D01*
X0426162Y0153453D01*
X0426629Y0152986D01*
X0426629Y0152052D01*
X0426162Y0151585D01*
X0424294Y0147560D02*
X0423827Y0147093D01*
X0423827Y0146159D01*
X0424294Y0145692D01*
X0424761Y0145692D01*
X0425228Y0146159D01*
X0425695Y0145692D01*
X0426162Y0145692D01*
X0425228Y0146159D02*
X0425228Y0146626D01*
X0400629Y0134236D02*
X0400629Y0133302D01*
X0400162Y0132835D01*
X0400162Y0131756D02*
X0400629Y0131289D01*
X0400629Y0130355D01*
X0400162Y0129888D01*
X0399695Y0129888D01*
X0399228Y0130355D01*
X0399228Y0131289D01*
X0398761Y0131756D01*
X0398294Y0131756D01*
X0397827Y0131289D01*
X0397827Y0130355D01*
X0398294Y0129888D01*
X0397827Y0128810D02*
X0400629Y0128810D01*
X0400629Y0126942D01*
X0399228Y0127876D02*
X0399228Y0128810D01*
X0397827Y0128810D02*
X0397827Y0126942D01*
X0398294Y0132835D02*
X0397827Y0133302D01*
X0397827Y0134236D01*
X0398294Y0134703D01*
X0400162Y0134703D01*
X0400629Y0134236D01*
X0415977Y0099633D02*
X0416911Y0099633D01*
X0417378Y0099166D01*
X0417378Y0096831D01*
X0418456Y0097298D02*
X0418923Y0096831D01*
X0419857Y0096831D01*
X0420324Y0097298D01*
X0420324Y0097765D01*
X0418456Y0099633D01*
X0420324Y0099633D01*
X0421403Y0099166D02*
X0421403Y0098699D01*
X0421870Y0098232D01*
X0422804Y0098232D01*
X0423271Y0098699D01*
X0423271Y0099166D01*
X0422804Y0099633D01*
X0421870Y0099633D01*
X0421403Y0099166D01*
X0421870Y0098232D02*
X0421403Y0097765D01*
X0421403Y0097298D01*
X0421870Y0096831D01*
X0422804Y0096831D01*
X0423271Y0097298D01*
X0423271Y0097765D01*
X0422804Y0098232D01*
X0415977Y0099633D02*
X0415510Y0099166D01*
X0415510Y0096831D01*
X0451229Y0115733D02*
X0453729Y0118233D01*
X0123021Y0093416D02*
X0123021Y0092949D01*
X0122554Y0092482D01*
X0121153Y0092482D01*
X0121153Y0093416D01*
X0121620Y0093883D01*
X0122554Y0093883D01*
X0123021Y0093416D01*
X0122087Y0091548D02*
X0121153Y0092482D01*
X0120074Y0092482D02*
X0120074Y0093416D01*
X0119607Y0093883D01*
X0118673Y0093883D01*
X0118206Y0093416D01*
X0118206Y0092482D02*
X0119140Y0092015D01*
X0119607Y0092015D01*
X0120074Y0092482D01*
X0120074Y0091081D02*
X0118206Y0091081D01*
X0118206Y0092482D01*
X0117128Y0092482D02*
X0116661Y0092949D01*
X0115260Y0092949D01*
X0116194Y0092949D02*
X0117128Y0093883D01*
X0117128Y0092482D02*
X0117128Y0091548D01*
X0116661Y0091081D01*
X0115260Y0091081D01*
X0115260Y0093883D01*
X0113021Y0093416D02*
X0112554Y0093883D01*
X0111620Y0093883D01*
X0111153Y0093416D01*
X0111153Y0092482D02*
X0112087Y0092015D01*
X0112554Y0092015D01*
X0113021Y0092482D01*
X0113021Y0093416D01*
X0111153Y0092482D02*
X0111153Y0091081D01*
X0113021Y0091081D01*
X0110074Y0091081D02*
X0108206Y0091081D01*
X0108206Y0092482D01*
X0109140Y0092015D01*
X0109607Y0092015D01*
X0110074Y0092482D01*
X0110074Y0093416D01*
X0109607Y0093883D01*
X0108673Y0093883D01*
X0108206Y0093416D01*
X0107128Y0093883D02*
X0106194Y0092949D01*
X0106661Y0092949D02*
X0105260Y0092949D01*
X0105260Y0093883D02*
X0105260Y0091081D01*
X0106661Y0091081D01*
X0107128Y0091548D01*
X0107128Y0092482D01*
X0106661Y0092949D01*
X0122087Y0091548D02*
X0123021Y0091081D01*
D19*
X0097386Y0089683D02*
X0097035Y0090033D01*
X0096335Y0090033D01*
X0095984Y0089683D01*
X0095176Y0089683D02*
X0094825Y0090033D01*
X0094125Y0090033D01*
X0093774Y0089683D01*
X0093774Y0089332D01*
X0094125Y0088982D01*
X0094825Y0088982D01*
X0095176Y0089332D01*
X0095176Y0089683D01*
X0094825Y0088982D02*
X0095176Y0088632D01*
X0095176Y0088282D01*
X0094825Y0087931D01*
X0094125Y0087931D01*
X0093774Y0088282D01*
X0093774Y0088632D01*
X0094125Y0088982D01*
X0092966Y0088982D02*
X0092615Y0089332D01*
X0091565Y0089332D01*
X0092265Y0089332D02*
X0092966Y0090033D01*
X0092966Y0088982D02*
X0092966Y0088282D01*
X0092615Y0087931D01*
X0091565Y0087931D01*
X0091565Y0090033D01*
X0095984Y0088282D02*
X0096335Y0087931D01*
X0097035Y0087931D01*
X0097386Y0088282D01*
X0097386Y0088632D01*
X0097035Y0088982D01*
X0097386Y0089332D01*
X0097386Y0089683D01*
X0097035Y0088982D02*
X0096685Y0088982D01*
X0133928Y0111927D02*
X0133928Y0112628D01*
X0134278Y0112978D01*
X0134628Y0112978D01*
X0134978Y0112628D01*
X0134978Y0111577D01*
X0134278Y0111577D02*
X0135679Y0111577D01*
X0136029Y0111927D01*
X0136029Y0112628D01*
X0135679Y0112978D01*
X0136029Y0113787D02*
X0136029Y0115188D01*
X0134628Y0113787D01*
X0134278Y0113787D01*
X0133928Y0114137D01*
X0133928Y0114838D01*
X0134278Y0115188D01*
X0134278Y0115997D02*
X0133928Y0116347D01*
X0133928Y0117048D01*
X0134278Y0117398D01*
X0135679Y0117398D01*
X0136029Y0117048D01*
X0136029Y0116347D01*
X0135679Y0115997D01*
X0137428Y0116347D02*
X0137428Y0117048D01*
X0137778Y0117398D01*
X0139179Y0117398D01*
X0139529Y0117048D01*
X0139529Y0116347D01*
X0139179Y0115997D01*
X0139529Y0115188D02*
X0138128Y0113787D01*
X0137778Y0113787D01*
X0137428Y0114137D01*
X0137428Y0114838D01*
X0137778Y0115188D01*
X0137778Y0115997D02*
X0137428Y0116347D01*
X0139529Y0115188D02*
X0139529Y0113787D01*
X0139179Y0112978D02*
X0138829Y0112978D01*
X0138478Y0112628D01*
X0138478Y0111927D01*
X0138829Y0111577D01*
X0139179Y0111577D01*
X0139529Y0111927D01*
X0139529Y0112628D01*
X0139179Y0112978D01*
X0138478Y0112628D02*
X0138128Y0112978D01*
X0137778Y0112978D01*
X0137428Y0112628D01*
X0137428Y0111927D01*
X0137778Y0111577D01*
X0138128Y0111577D01*
X0138478Y0111927D01*
X0134278Y0111577D02*
X0133928Y0111927D01*
X0133928Y0129077D02*
X0134278Y0129778D01*
X0134978Y0130478D01*
X0134978Y0129427D01*
X0135329Y0129077D01*
X0135679Y0129077D01*
X0136029Y0129427D01*
X0136029Y0130128D01*
X0135679Y0130478D01*
X0134978Y0130478D01*
X0134628Y0131287D02*
X0136029Y0132688D01*
X0136029Y0131287D01*
X0134628Y0131287D02*
X0134278Y0131287D01*
X0133928Y0131637D01*
X0133928Y0132338D01*
X0134278Y0132688D01*
X0134278Y0133497D02*
X0133928Y0133847D01*
X0133928Y0134548D01*
X0134278Y0134898D01*
X0135679Y0134898D01*
X0136029Y0134548D01*
X0136029Y0133847D01*
X0135679Y0133497D01*
X0137428Y0133847D02*
X0137428Y0134548D01*
X0137778Y0134898D01*
X0139179Y0134898D01*
X0139529Y0134548D01*
X0139529Y0133847D01*
X0139179Y0133497D01*
X0139529Y0132688D02*
X0138128Y0131287D01*
X0137778Y0131287D01*
X0137428Y0131637D01*
X0137428Y0132338D01*
X0137778Y0132688D01*
X0137778Y0133497D02*
X0137428Y0133847D01*
X0139529Y0132688D02*
X0139529Y0131287D01*
X0139179Y0130478D02*
X0139529Y0130128D01*
X0139529Y0129427D01*
X0139179Y0129077D01*
X0138478Y0129077D01*
X0138128Y0129427D01*
X0138128Y0129778D01*
X0138478Y0130478D01*
X0137428Y0130478D01*
X0137428Y0129077D01*
X0137575Y0144681D02*
X0137926Y0145032D01*
X0137926Y0145382D01*
X0137575Y0145732D01*
X0136875Y0145732D01*
X0136524Y0145382D01*
X0136524Y0145032D01*
X0136875Y0144681D01*
X0137575Y0144681D01*
X0137575Y0145732D02*
X0137926Y0146082D01*
X0137926Y0146433D01*
X0137575Y0146783D01*
X0136875Y0146783D01*
X0136524Y0146433D01*
X0136524Y0146082D01*
X0136875Y0145732D01*
X0135716Y0145032D02*
X0135365Y0144681D01*
X0134665Y0144681D01*
X0134315Y0145032D01*
X0134315Y0146433D01*
X0134665Y0146783D01*
X0135365Y0146783D01*
X0135716Y0146433D01*
X0138734Y0146433D02*
X0138734Y0146783D01*
X0138734Y0146433D02*
X0140136Y0145032D01*
X0140136Y0144681D01*
X0138734Y0144681D01*
X0137575Y0160931D02*
X0137926Y0161282D01*
X0137926Y0161632D01*
X0137575Y0161982D01*
X0136875Y0161982D01*
X0136524Y0161632D01*
X0136524Y0161282D01*
X0136875Y0160931D01*
X0137575Y0160931D01*
X0137575Y0161982D02*
X0137926Y0162332D01*
X0137926Y0162683D01*
X0137575Y0163033D01*
X0136875Y0163033D01*
X0136524Y0162683D01*
X0136524Y0162332D01*
X0136875Y0161982D01*
X0135716Y0161982D02*
X0135365Y0162332D01*
X0134315Y0162332D01*
X0135015Y0162332D02*
X0135716Y0163033D01*
X0135716Y0161982D02*
X0135716Y0161282D01*
X0135365Y0160931D01*
X0134315Y0160931D01*
X0134315Y0163033D01*
X0134315Y0164681D02*
X0135365Y0164681D01*
X0135716Y0165032D01*
X0135716Y0165732D01*
X0135365Y0166082D01*
X0134315Y0166082D01*
X0135015Y0166082D02*
X0135716Y0166783D01*
X0136524Y0166433D02*
X0136524Y0166082D01*
X0136875Y0165732D01*
X0137575Y0165732D01*
X0137926Y0166082D01*
X0137926Y0166433D01*
X0137575Y0166783D01*
X0136875Y0166783D01*
X0136524Y0166433D01*
X0136875Y0165732D02*
X0136524Y0165382D01*
X0136524Y0165032D01*
X0136875Y0164681D01*
X0137575Y0164681D01*
X0137926Y0165032D01*
X0137926Y0165382D01*
X0137575Y0165732D01*
X0138734Y0166433D02*
X0138734Y0166783D01*
X0138734Y0166433D02*
X0140136Y0165032D01*
X0140136Y0164681D01*
X0138734Y0164681D01*
X0139085Y0163033D02*
X0139785Y0163033D01*
X0140136Y0162683D01*
X0140136Y0162332D01*
X0139785Y0161982D01*
X0138734Y0161982D01*
X0138734Y0162683D01*
X0139085Y0163033D01*
X0138734Y0161982D02*
X0139435Y0161282D01*
X0140136Y0160931D01*
X0134315Y0164681D02*
X0134315Y0166783D01*
X0134285Y0185431D02*
X0134636Y0185782D01*
X0133234Y0187183D01*
X0133585Y0187533D01*
X0134285Y0187533D01*
X0134636Y0187183D01*
X0134636Y0185782D01*
X0134285Y0185431D02*
X0133585Y0185431D01*
X0133234Y0185782D01*
X0133234Y0187183D01*
X0132426Y0187183D02*
X0132426Y0185782D01*
X0132075Y0185431D01*
X0131375Y0185431D01*
X0131024Y0185782D01*
X0131024Y0186132D01*
X0131375Y0186482D01*
X0132426Y0186482D01*
X0132426Y0187183D02*
X0132075Y0187533D01*
X0131375Y0187533D01*
X0131024Y0187183D01*
X0130216Y0187533D02*
X0129515Y0186832D01*
X0129865Y0186832D02*
X0128815Y0186832D01*
X0128815Y0187533D02*
X0128815Y0185431D01*
X0129865Y0185431D01*
X0130216Y0185782D01*
X0130216Y0186482D01*
X0129865Y0186832D01*
X0146928Y0194077D02*
X0147278Y0194077D01*
X0148679Y0195478D01*
X0149029Y0195478D01*
X0148679Y0196287D02*
X0147278Y0196287D01*
X0146928Y0196637D01*
X0146928Y0197338D01*
X0147278Y0197688D01*
X0147628Y0197688D01*
X0147978Y0197338D01*
X0147978Y0196287D01*
X0148679Y0196287D02*
X0149029Y0196637D01*
X0149029Y0197338D01*
X0148679Y0197688D01*
X0149029Y0198497D02*
X0148329Y0199197D01*
X0148329Y0198847D02*
X0148329Y0199898D01*
X0149029Y0199898D02*
X0146928Y0199898D01*
X0146928Y0198847D01*
X0147278Y0198497D01*
X0147978Y0198497D01*
X0148329Y0198847D01*
X0146928Y0195478D02*
X0146928Y0194077D01*
X0144929Y0202827D02*
X0143528Y0202827D01*
X0143178Y0203177D01*
X0143178Y0203878D01*
X0143528Y0204228D01*
X0143878Y0204228D01*
X0144228Y0203878D01*
X0144228Y0202827D01*
X0144929Y0202827D02*
X0145279Y0203177D01*
X0145279Y0203878D01*
X0144929Y0204228D01*
X0144929Y0205037D02*
X0143528Y0205037D01*
X0143178Y0205387D01*
X0143178Y0206088D01*
X0143528Y0206438D01*
X0143878Y0206438D01*
X0144228Y0206088D01*
X0144228Y0205037D01*
X0144929Y0205037D02*
X0145279Y0205387D01*
X0145279Y0206088D01*
X0144929Y0206438D01*
X0145279Y0207247D02*
X0144579Y0207947D01*
X0144579Y0207597D02*
X0144579Y0208648D01*
X0145279Y0208648D02*
X0143178Y0208648D01*
X0143178Y0207597D01*
X0143528Y0207247D01*
X0144228Y0207247D01*
X0144579Y0207597D01*
X0149678Y0210572D02*
X0149678Y0211273D01*
X0150028Y0211623D01*
X0151429Y0211623D01*
X0150028Y0210222D01*
X0151429Y0210222D01*
X0151779Y0210572D01*
X0151779Y0211273D01*
X0151429Y0211623D01*
X0151429Y0212432D02*
X0151779Y0212782D01*
X0151779Y0213483D01*
X0151429Y0213833D01*
X0150028Y0212432D01*
X0151429Y0212432D01*
X0151429Y0213833D02*
X0150028Y0213833D01*
X0149678Y0213483D01*
X0149678Y0212782D01*
X0150028Y0212432D01*
X0149678Y0210572D02*
X0150028Y0210222D01*
X0151779Y0214642D02*
X0151779Y0216043D01*
X0151779Y0215342D02*
X0149678Y0215342D01*
X0150378Y0216043D01*
X0150028Y0216852D02*
X0150728Y0216852D01*
X0151079Y0217202D01*
X0151079Y0218253D01*
X0151779Y0218253D02*
X0149678Y0218253D01*
X0149678Y0217202D01*
X0150028Y0216852D01*
X0151079Y0217552D02*
X0151779Y0216852D01*
X0160678Y0209253D02*
X0160678Y0208202D01*
X0161028Y0207852D01*
X0161728Y0207852D01*
X0162079Y0208202D01*
X0162079Y0209253D01*
X0162779Y0209253D02*
X0160678Y0209253D01*
X0162079Y0208552D02*
X0162779Y0207852D01*
X0162779Y0207043D02*
X0162779Y0205642D01*
X0162779Y0206342D02*
X0160678Y0206342D01*
X0161378Y0207043D01*
X0161028Y0204833D02*
X0160678Y0204483D01*
X0160678Y0203782D01*
X0161028Y0203432D01*
X0162429Y0204833D01*
X0162779Y0204483D01*
X0162779Y0203782D01*
X0162429Y0203432D01*
X0161028Y0203432D01*
X0161378Y0202623D02*
X0160678Y0201923D01*
X0162779Y0201923D01*
X0162779Y0202623D02*
X0162779Y0201222D01*
X0160279Y0199898D02*
X0158178Y0199898D01*
X0158178Y0198847D01*
X0158528Y0198497D01*
X0159228Y0198497D01*
X0159579Y0198847D01*
X0159579Y0199898D01*
X0159579Y0199197D02*
X0160279Y0198497D01*
X0159929Y0197688D02*
X0160279Y0197338D01*
X0160279Y0196637D01*
X0159929Y0196287D01*
X0158528Y0196287D01*
X0158178Y0196637D01*
X0158178Y0197338D01*
X0158528Y0197688D01*
X0158878Y0197688D01*
X0159228Y0197338D01*
X0159228Y0196287D01*
X0158878Y0195478D02*
X0158528Y0195478D01*
X0158178Y0195128D01*
X0158178Y0194427D01*
X0158528Y0194077D01*
X0158878Y0194077D01*
X0159228Y0194427D01*
X0159228Y0195128D01*
X0158878Y0195478D01*
X0159228Y0195128D02*
X0159579Y0195478D01*
X0159929Y0195478D01*
X0160279Y0195128D01*
X0160279Y0194427D01*
X0159929Y0194077D01*
X0159579Y0194077D01*
X0159228Y0194427D01*
X0161028Y0204833D02*
X0162429Y0204833D01*
X0186315Y0208431D02*
X0187365Y0208431D01*
X0187716Y0208782D01*
X0187716Y0209482D01*
X0187365Y0209832D01*
X0186315Y0209832D01*
X0187015Y0209832D02*
X0187716Y0210533D01*
X0188524Y0210533D02*
X0188524Y0210183D01*
X0189926Y0208782D01*
X0189926Y0208431D01*
X0188524Y0208431D01*
X0186315Y0208431D02*
X0186315Y0210533D01*
X0190734Y0210183D02*
X0191085Y0210533D01*
X0191785Y0210533D01*
X0192136Y0210183D01*
X0192136Y0208782D01*
X0191785Y0208431D01*
X0191085Y0208431D01*
X0190734Y0208782D01*
X0190734Y0209132D01*
X0191085Y0209482D01*
X0192136Y0209482D01*
X0243678Y0218427D02*
X0244028Y0218077D01*
X0244378Y0218077D01*
X0244728Y0218427D01*
X0245079Y0218077D01*
X0245429Y0218077D01*
X0245779Y0218427D01*
X0245779Y0219128D01*
X0245429Y0219478D01*
X0244728Y0218778D02*
X0244728Y0218427D01*
X0243678Y0218427D02*
X0243678Y0219128D01*
X0244028Y0219478D01*
X0244028Y0220287D02*
X0245429Y0221688D01*
X0245779Y0221688D01*
X0245779Y0222497D02*
X0245079Y0223197D01*
X0245079Y0222847D02*
X0245079Y0223898D01*
X0245779Y0223898D02*
X0243678Y0223898D01*
X0243678Y0222847D01*
X0244028Y0222497D01*
X0244728Y0222497D01*
X0245079Y0222847D01*
X0243678Y0221688D02*
X0243678Y0220287D01*
X0244028Y0220287D01*
X0265678Y0192148D02*
X0265678Y0191097D01*
X0266028Y0190747D01*
X0266728Y0190747D01*
X0267079Y0191097D01*
X0267079Y0192148D01*
X0267779Y0192148D02*
X0265678Y0192148D01*
X0267079Y0191447D02*
X0267779Y0190747D01*
X0267429Y0189938D02*
X0267079Y0189938D01*
X0266728Y0189588D01*
X0266728Y0188887D01*
X0267079Y0188537D01*
X0267429Y0188537D01*
X0267779Y0188887D01*
X0267779Y0189588D01*
X0267429Y0189938D01*
X0266728Y0189588D02*
X0266378Y0189938D01*
X0266028Y0189938D01*
X0265678Y0189588D01*
X0265678Y0188887D01*
X0266028Y0188537D01*
X0266378Y0188537D01*
X0266728Y0188887D01*
X0266378Y0187728D02*
X0266028Y0187728D01*
X0265678Y0187378D01*
X0265678Y0186677D01*
X0266028Y0186327D01*
X0266378Y0186327D01*
X0266728Y0186677D01*
X0266728Y0187378D01*
X0266378Y0187728D01*
X0266728Y0187378D02*
X0267079Y0187728D01*
X0267429Y0187728D01*
X0267779Y0187378D01*
X0267779Y0186677D01*
X0267429Y0186327D01*
X0267079Y0186327D01*
X0266728Y0186677D01*
X0282460Y0186783D02*
X0282460Y0184681D01*
X0283511Y0184681D01*
X0283861Y0185032D01*
X0283861Y0185732D01*
X0283511Y0186082D01*
X0282460Y0186082D01*
X0283160Y0186082D02*
X0283861Y0186783D01*
X0284670Y0186783D02*
X0286071Y0186783D01*
X0285370Y0186783D02*
X0285370Y0184681D01*
X0284670Y0185382D01*
X0286879Y0185032D02*
X0287230Y0184681D01*
X0287930Y0184681D01*
X0288281Y0185032D01*
X0286879Y0186433D01*
X0287230Y0186783D01*
X0287930Y0186783D01*
X0288281Y0186433D01*
X0288281Y0185032D01*
X0289089Y0185032D02*
X0289089Y0185382D01*
X0289440Y0185732D01*
X0290140Y0185732D01*
X0290490Y0186082D01*
X0290490Y0186433D01*
X0290140Y0186783D01*
X0289440Y0186783D01*
X0289089Y0186433D01*
X0289089Y0186082D01*
X0289440Y0185732D01*
X0290140Y0185732D02*
X0290490Y0185382D01*
X0290490Y0185032D01*
X0290140Y0184681D01*
X0289440Y0184681D01*
X0289089Y0185032D01*
X0286879Y0185032D02*
X0286879Y0186433D01*
X0285339Y0175533D02*
X0285339Y0175183D01*
X0286740Y0173782D01*
X0286740Y0173431D01*
X0285339Y0173431D01*
X0284531Y0173782D02*
X0283129Y0175183D01*
X0283480Y0175533D01*
X0284180Y0175533D01*
X0284531Y0175183D01*
X0284531Y0173782D01*
X0284180Y0173431D01*
X0283480Y0173431D01*
X0283129Y0173782D01*
X0283129Y0175183D01*
X0282321Y0175533D02*
X0280920Y0175533D01*
X0281620Y0175533D02*
X0281620Y0173431D01*
X0280920Y0174132D01*
X0280111Y0174482D02*
X0279761Y0174832D01*
X0278710Y0174832D01*
X0279410Y0174832D02*
X0280111Y0175533D01*
X0280111Y0174482D02*
X0280111Y0173782D01*
X0279761Y0173431D01*
X0278710Y0173431D01*
X0278710Y0175533D01*
X0282315Y0169283D02*
X0282315Y0167181D01*
X0283365Y0167181D01*
X0283716Y0167532D01*
X0283716Y0168232D01*
X0283365Y0168582D01*
X0282315Y0168582D01*
X0283015Y0168582D02*
X0283716Y0169283D01*
X0284524Y0168933D02*
X0284875Y0169283D01*
X0285575Y0169283D01*
X0285926Y0168933D01*
X0285926Y0167532D01*
X0285575Y0167181D01*
X0284875Y0167181D01*
X0284524Y0167532D01*
X0284524Y0167882D01*
X0284875Y0168232D01*
X0285926Y0168232D01*
X0286734Y0167532D02*
X0287085Y0167181D01*
X0287785Y0167181D01*
X0288136Y0167532D01*
X0288136Y0167882D01*
X0286734Y0169283D01*
X0288136Y0169283D01*
X0299815Y0172181D02*
X0300865Y0172181D01*
X0301216Y0172532D01*
X0301216Y0173232D01*
X0300865Y0173582D01*
X0299815Y0173582D01*
X0300515Y0173582D02*
X0301216Y0174283D01*
X0302024Y0173933D02*
X0302375Y0174283D01*
X0303075Y0174283D01*
X0303426Y0173933D01*
X0303426Y0172532D01*
X0303075Y0172181D01*
X0302375Y0172181D01*
X0302024Y0172532D01*
X0302024Y0172882D01*
X0302375Y0173232D01*
X0303426Y0173232D01*
X0304234Y0172532D02*
X0304585Y0172181D01*
X0305285Y0172181D01*
X0305636Y0172532D01*
X0305636Y0172882D01*
X0305285Y0173232D01*
X0305636Y0173582D01*
X0305636Y0173933D01*
X0305285Y0174283D01*
X0304585Y0174283D01*
X0304234Y0173933D01*
X0304935Y0173232D02*
X0305285Y0173232D01*
X0304325Y0177181D02*
X0303625Y0177181D01*
X0303274Y0177532D01*
X0303274Y0177882D01*
X0303625Y0178232D01*
X0304676Y0178232D01*
X0304676Y0177532D02*
X0304325Y0177181D01*
X0304676Y0177532D02*
X0304676Y0178933D01*
X0304325Y0179283D01*
X0303625Y0179283D01*
X0303274Y0178933D01*
X0302466Y0179283D02*
X0301765Y0178582D01*
X0302115Y0178582D02*
X0301065Y0178582D01*
X0301065Y0179283D02*
X0301065Y0177181D01*
X0302115Y0177181D01*
X0302466Y0177532D01*
X0302466Y0178232D01*
X0302115Y0178582D01*
X0302115Y0180931D02*
X0302466Y0181282D01*
X0302466Y0181982D01*
X0302115Y0182332D01*
X0301065Y0182332D01*
X0301765Y0182332D02*
X0302466Y0183033D01*
X0303274Y0182683D02*
X0303625Y0183033D01*
X0304325Y0183033D01*
X0304676Y0182683D01*
X0304676Y0181282D01*
X0304325Y0180931D01*
X0303625Y0180931D01*
X0303274Y0181282D01*
X0303274Y0181632D01*
X0303625Y0181982D01*
X0304676Y0181982D01*
X0305484Y0181982D02*
X0306185Y0181632D01*
X0306535Y0181632D01*
X0306886Y0181982D01*
X0306886Y0182683D01*
X0306535Y0183033D01*
X0305835Y0183033D01*
X0305484Y0182683D01*
X0305484Y0181982D02*
X0305484Y0180931D01*
X0306886Y0180931D01*
X0306535Y0179283D02*
X0306886Y0178933D01*
X0306886Y0178582D01*
X0306535Y0178232D01*
X0305484Y0178232D01*
X0305484Y0178933D01*
X0305835Y0179283D01*
X0306535Y0179283D01*
X0305484Y0178232D02*
X0306185Y0177532D01*
X0306886Y0177181D01*
X0302115Y0180931D02*
X0301065Y0180931D01*
X0301065Y0183033D01*
X0299815Y0174283D02*
X0299815Y0172181D01*
X0267779Y0170148D02*
X0265678Y0170148D01*
X0265678Y0169097D01*
X0266028Y0168747D01*
X0266728Y0168747D01*
X0267079Y0169097D01*
X0267079Y0170148D01*
X0267079Y0169447D02*
X0267779Y0168747D01*
X0267429Y0167938D02*
X0267079Y0167938D01*
X0266728Y0167588D01*
X0266728Y0166887D01*
X0267079Y0166537D01*
X0267429Y0166537D01*
X0267779Y0166887D01*
X0267779Y0167588D01*
X0267429Y0167938D01*
X0266728Y0167588D02*
X0266378Y0167938D01*
X0266028Y0167938D01*
X0265678Y0167588D01*
X0265678Y0166887D01*
X0266028Y0166537D01*
X0266378Y0166537D01*
X0266728Y0166887D01*
X0266378Y0165728D02*
X0266728Y0165378D01*
X0266728Y0164327D01*
X0266028Y0164327D02*
X0265678Y0164677D01*
X0265678Y0165378D01*
X0266028Y0165728D01*
X0266378Y0165728D01*
X0267429Y0165728D02*
X0267779Y0165378D01*
X0267779Y0164677D01*
X0267429Y0164327D01*
X0266028Y0164327D01*
X0273178Y0138898D02*
X0273178Y0137847D01*
X0273528Y0137497D01*
X0274228Y0137497D01*
X0274579Y0137847D01*
X0274579Y0138898D01*
X0275279Y0138898D02*
X0273178Y0138898D01*
X0274579Y0138197D02*
X0275279Y0137497D01*
X0275279Y0136688D02*
X0274929Y0136688D01*
X0273528Y0135287D01*
X0273178Y0135287D01*
X0273178Y0136688D01*
X0274228Y0134478D02*
X0274228Y0133427D01*
X0274579Y0133077D01*
X0274929Y0133077D01*
X0275279Y0133427D01*
X0275279Y0134128D01*
X0274929Y0134478D01*
X0274228Y0134478D01*
X0273528Y0133778D01*
X0273178Y0133077D01*
X0326565Y0145931D02*
X0327615Y0145931D01*
X0327966Y0146282D01*
X0327966Y0146982D01*
X0327615Y0147332D01*
X0326565Y0147332D01*
X0327265Y0147332D02*
X0327966Y0148033D01*
X0328774Y0147683D02*
X0328774Y0147332D01*
X0329125Y0146982D01*
X0329825Y0146982D01*
X0330176Y0147332D01*
X0330176Y0147683D01*
X0329825Y0148033D01*
X0329125Y0148033D01*
X0328774Y0147683D01*
X0329125Y0146982D02*
X0328774Y0146632D01*
X0328774Y0146282D01*
X0329125Y0145931D01*
X0329825Y0145931D01*
X0330176Y0146282D01*
X0330176Y0146632D01*
X0329825Y0146982D01*
X0330984Y0146282D02*
X0331335Y0145931D01*
X0332035Y0145931D01*
X0332386Y0146282D01*
X0330984Y0147683D01*
X0331335Y0148033D01*
X0332035Y0148033D01*
X0332386Y0147683D01*
X0332386Y0146282D01*
X0330984Y0146282D02*
X0330984Y0147683D01*
X0326565Y0148033D02*
X0326565Y0145931D01*
X0358178Y0145733D02*
X0358178Y0145032D01*
X0358528Y0144682D01*
X0359929Y0146083D01*
X0360279Y0145733D01*
X0360279Y0145032D01*
X0359929Y0144682D01*
X0358528Y0144682D01*
X0359228Y0143873D02*
X0359228Y0142822D01*
X0359579Y0142472D01*
X0359929Y0142472D01*
X0360279Y0142822D01*
X0360279Y0143523D01*
X0359929Y0143873D01*
X0359228Y0143873D01*
X0358528Y0143173D01*
X0358178Y0142472D01*
X0358178Y0145733D02*
X0358528Y0146083D01*
X0359929Y0146083D01*
X0360279Y0146892D02*
X0360279Y0148293D01*
X0360279Y0147592D02*
X0358178Y0147592D01*
X0358878Y0148293D01*
X0358528Y0149102D02*
X0359228Y0149102D01*
X0359579Y0149452D01*
X0359579Y0150503D01*
X0360279Y0150503D02*
X0358178Y0150503D01*
X0358178Y0149452D01*
X0358528Y0149102D01*
X0359579Y0149802D02*
X0360279Y0149102D01*
X0366928Y0143253D02*
X0366928Y0142202D01*
X0367278Y0141852D01*
X0367978Y0141852D01*
X0368329Y0142202D01*
X0368329Y0143253D01*
X0369029Y0143253D02*
X0366928Y0143253D01*
X0368329Y0142552D02*
X0369029Y0141852D01*
X0369029Y0141043D02*
X0369029Y0139642D01*
X0369029Y0140342D02*
X0366928Y0140342D01*
X0367628Y0141043D01*
X0367278Y0138833D02*
X0366928Y0138483D01*
X0366928Y0137782D01*
X0367278Y0137432D01*
X0368679Y0138833D01*
X0369029Y0138483D01*
X0369029Y0137782D01*
X0368679Y0137432D01*
X0367278Y0137432D01*
X0366928Y0136623D02*
X0367978Y0136623D01*
X0367628Y0135923D01*
X0367628Y0135572D01*
X0367978Y0135222D01*
X0368679Y0135222D01*
X0369029Y0135572D01*
X0369029Y0136273D01*
X0368679Y0136623D01*
X0366928Y0136623D02*
X0366928Y0135222D01*
X0367278Y0138833D02*
X0368679Y0138833D01*
X0373178Y0147072D02*
X0374228Y0148123D01*
X0374228Y0146722D01*
X0373178Y0147072D02*
X0375279Y0147072D01*
X0374929Y0148932D02*
X0375279Y0149282D01*
X0375279Y0149983D01*
X0374929Y0150333D01*
X0373528Y0148932D01*
X0374929Y0148932D01*
X0374929Y0150333D02*
X0373528Y0150333D01*
X0373178Y0149983D01*
X0373178Y0149282D01*
X0373528Y0148932D01*
X0375279Y0151142D02*
X0375279Y0152543D01*
X0375279Y0151842D02*
X0373178Y0151842D01*
X0373878Y0152543D01*
X0373528Y0153352D02*
X0374228Y0153352D01*
X0374579Y0153702D01*
X0374579Y0154753D01*
X0375279Y0154753D02*
X0373178Y0154753D01*
X0373178Y0153702D01*
X0373528Y0153352D01*
X0374579Y0154052D02*
X0375279Y0153352D01*
X0373779Y0157222D02*
X0373779Y0158623D01*
X0372378Y0157222D01*
X0372028Y0157222D01*
X0371678Y0157572D01*
X0371678Y0158273D01*
X0372028Y0158623D01*
X0372028Y0159432D02*
X0373429Y0160833D01*
X0373779Y0160483D01*
X0373779Y0159782D01*
X0373429Y0159432D01*
X0372028Y0159432D01*
X0371678Y0159782D01*
X0371678Y0160483D01*
X0372028Y0160833D01*
X0373429Y0160833D01*
X0373779Y0161642D02*
X0373779Y0163043D01*
X0373779Y0162342D02*
X0371678Y0162342D01*
X0372378Y0163043D01*
X0372028Y0163852D02*
X0372728Y0163852D01*
X0373079Y0164202D01*
X0373079Y0165253D01*
X0373779Y0165253D02*
X0371678Y0165253D01*
X0371678Y0164202D01*
X0372028Y0163852D01*
X0373079Y0164552D02*
X0373779Y0163852D01*
X0360279Y0163753D02*
X0358178Y0163753D01*
X0358178Y0162702D01*
X0358528Y0162352D01*
X0359228Y0162352D01*
X0359579Y0162702D01*
X0359579Y0163753D01*
X0359579Y0163052D02*
X0360279Y0162352D01*
X0360279Y0161543D02*
X0360279Y0160142D01*
X0360279Y0160842D02*
X0358178Y0160842D01*
X0358878Y0161543D01*
X0358528Y0159333D02*
X0358178Y0158983D01*
X0358178Y0158282D01*
X0358528Y0157932D01*
X0359929Y0159333D01*
X0360279Y0158983D01*
X0360279Y0158282D01*
X0359929Y0157932D01*
X0358528Y0157932D01*
X0358528Y0157123D02*
X0358178Y0156773D01*
X0358178Y0156072D01*
X0358528Y0155722D01*
X0358878Y0155722D01*
X0359228Y0156072D01*
X0359579Y0155722D01*
X0359929Y0155722D01*
X0360279Y0156072D01*
X0360279Y0156773D01*
X0359929Y0157123D01*
X0359228Y0156423D02*
X0359228Y0156072D01*
X0359929Y0159333D02*
X0358528Y0159333D01*
X0386065Y0145183D02*
X0386415Y0145533D01*
X0387115Y0145533D01*
X0387466Y0145183D01*
X0388274Y0145183D02*
X0388274Y0144832D01*
X0388625Y0144482D01*
X0389325Y0144482D01*
X0389676Y0144832D01*
X0389676Y0145183D01*
X0389325Y0145533D01*
X0388625Y0145533D01*
X0388274Y0145183D01*
X0388625Y0144482D02*
X0388274Y0144132D01*
X0388274Y0143782D01*
X0388625Y0143431D01*
X0389325Y0143431D01*
X0389676Y0143782D01*
X0389676Y0144132D01*
X0389325Y0144482D01*
X0390484Y0144132D02*
X0391185Y0143431D01*
X0391185Y0145533D01*
X0390484Y0145533D02*
X0391886Y0145533D01*
X0387466Y0143782D02*
X0387115Y0143431D01*
X0386415Y0143431D01*
X0386065Y0143782D01*
X0386065Y0145183D01*
X0386028Y0122148D02*
X0387429Y0122148D01*
X0387779Y0121798D01*
X0387779Y0121097D01*
X0387429Y0120747D01*
X0387429Y0119938D02*
X0387079Y0119938D01*
X0386728Y0119588D01*
X0386728Y0118887D01*
X0387079Y0118537D01*
X0387429Y0118537D01*
X0387779Y0118887D01*
X0387779Y0119588D01*
X0387429Y0119938D01*
X0386728Y0119588D02*
X0386378Y0119938D01*
X0386028Y0119938D01*
X0385678Y0119588D01*
X0385678Y0118887D01*
X0386028Y0118537D01*
X0386378Y0118537D01*
X0386728Y0118887D01*
X0386028Y0117728D02*
X0385678Y0117378D01*
X0385678Y0116677D01*
X0386028Y0116327D01*
X0387429Y0117728D01*
X0387779Y0117378D01*
X0387779Y0116677D01*
X0387429Y0116327D01*
X0386028Y0116327D01*
X0386028Y0117728D02*
X0387429Y0117728D01*
X0386028Y0120747D02*
X0385678Y0121097D01*
X0385678Y0121798D01*
X0386028Y0122148D01*
X0396928Y0121798D02*
X0397278Y0122148D01*
X0398679Y0122148D01*
X0399029Y0121798D01*
X0399029Y0121097D01*
X0398679Y0120747D01*
X0398679Y0119938D02*
X0399029Y0119938D01*
X0398679Y0119938D02*
X0397278Y0118537D01*
X0396928Y0118537D01*
X0396928Y0119938D01*
X0397278Y0120747D02*
X0396928Y0121097D01*
X0396928Y0121798D01*
X0397278Y0117728D02*
X0397628Y0117728D01*
X0397978Y0117378D01*
X0397978Y0116327D01*
X0397278Y0116327D02*
X0396928Y0116677D01*
X0396928Y0117378D01*
X0397278Y0117728D01*
X0397278Y0116327D02*
X0398679Y0116327D01*
X0399029Y0116677D01*
X0399029Y0117378D01*
X0398679Y0117728D01*
X0404678Y0091253D02*
X0404678Y0090202D01*
X0405028Y0089852D01*
X0405728Y0089852D01*
X0406079Y0090202D01*
X0406079Y0091253D01*
X0406779Y0091253D02*
X0404678Y0091253D01*
X0406079Y0090552D02*
X0406779Y0089852D01*
X0406779Y0089043D02*
X0406779Y0087642D01*
X0406779Y0088342D02*
X0404678Y0088342D01*
X0405378Y0089043D01*
X0405028Y0086833D02*
X0404678Y0086483D01*
X0404678Y0085782D01*
X0405028Y0085432D01*
X0406429Y0086833D01*
X0406779Y0086483D01*
X0406779Y0085782D01*
X0406429Y0085432D01*
X0405028Y0085432D01*
X0405028Y0084623D02*
X0405378Y0084623D01*
X0405728Y0084273D01*
X0405728Y0083222D01*
X0405028Y0083222D02*
X0404678Y0083572D01*
X0404678Y0084273D01*
X0405028Y0084623D01*
X0405028Y0083222D02*
X0406429Y0083222D01*
X0406779Y0083572D01*
X0406779Y0084273D01*
X0406429Y0084623D01*
X0406429Y0086833D02*
X0405028Y0086833D01*
X0440238Y0099801D02*
X0440238Y0101903D01*
X0441289Y0100852D01*
X0439888Y0100852D01*
X0442098Y0101202D02*
X0442098Y0101553D01*
X0442448Y0101903D01*
X0443149Y0101903D01*
X0443499Y0101553D01*
X0442098Y0101202D02*
X0443499Y0099801D01*
X0442098Y0099801D01*
X0444308Y0099801D02*
X0445709Y0099801D01*
X0445008Y0099801D02*
X0445008Y0101903D01*
X0445709Y0101202D01*
X0446518Y0100852D02*
X0446868Y0100502D01*
X0447919Y0100502D01*
X0447218Y0100502D02*
X0446518Y0099801D01*
X0446518Y0100852D02*
X0446518Y0101553D01*
X0446868Y0101903D01*
X0447919Y0101903D01*
X0447919Y0099801D01*
X0447919Y0104132D02*
X0447919Y0106234D01*
X0446868Y0106234D01*
X0446518Y0105883D01*
X0446518Y0105183D01*
X0446868Y0104832D01*
X0447919Y0104832D01*
X0447218Y0104832D02*
X0446518Y0104132D01*
X0445709Y0104132D02*
X0444308Y0104132D01*
X0445008Y0104132D02*
X0445008Y0106234D01*
X0445709Y0105533D01*
X0443499Y0105883D02*
X0443149Y0106234D01*
X0442448Y0106234D01*
X0442098Y0105883D01*
X0442098Y0105533D01*
X0443499Y0104132D01*
X0442098Y0104132D01*
X0441289Y0104482D02*
X0440939Y0104132D01*
X0440238Y0104132D01*
X0439888Y0104482D01*
X0439888Y0104832D01*
X0440238Y0105183D01*
X0440589Y0105183D01*
X0440238Y0105183D02*
X0439888Y0105533D01*
X0439888Y0105883D01*
X0440238Y0106234D01*
X0440939Y0106234D01*
X0441289Y0105883D01*
X0441289Y0108463D02*
X0439888Y0108463D01*
X0440589Y0108463D02*
X0440589Y0110564D01*
X0441289Y0109864D01*
X0442098Y0110214D02*
X0442448Y0110564D01*
X0443149Y0110564D01*
X0443499Y0110214D01*
X0443499Y0109864D01*
X0443149Y0109513D01*
X0442098Y0109513D01*
X0442098Y0108813D02*
X0442098Y0110214D01*
X0442098Y0108813D02*
X0442448Y0108463D01*
X0443149Y0108463D01*
X0443499Y0108813D01*
X0444308Y0108813D02*
X0444658Y0108463D01*
X0445359Y0108463D01*
X0445709Y0108813D01*
X0445709Y0110214D01*
X0445359Y0110564D01*
X0444658Y0110564D01*
X0444308Y0110214D01*
X0444658Y0113581D02*
X0444308Y0113931D01*
X0444658Y0113581D02*
X0445359Y0113581D01*
X0445709Y0113931D01*
X0445709Y0115332D01*
X0445359Y0115683D01*
X0444658Y0115683D01*
X0444308Y0115332D01*
X0443499Y0115332D02*
X0443499Y0114982D01*
X0443149Y0114632D01*
X0442098Y0114632D01*
X0442098Y0115332D02*
X0442098Y0113931D01*
X0442448Y0113581D01*
X0443149Y0113581D01*
X0443499Y0113931D01*
X0443499Y0115332D02*
X0443149Y0115683D01*
X0442448Y0115683D01*
X0442098Y0115332D01*
X0441289Y0115332D02*
X0440939Y0115683D01*
X0440238Y0115683D01*
X0439888Y0115332D01*
X0439888Y0114982D01*
X0441289Y0113581D01*
X0439888Y0113581D01*
X0439888Y0121455D02*
X0441289Y0121455D01*
X0439888Y0122856D01*
X0439888Y0123206D01*
X0440238Y0123557D01*
X0440939Y0123557D01*
X0441289Y0123206D01*
X0442098Y0123206D02*
X0442448Y0123557D01*
X0443149Y0123557D01*
X0443499Y0123206D01*
X0442098Y0123206D02*
X0442098Y0122856D01*
X0443499Y0121455D01*
X0442098Y0121455D01*
X0444308Y0121455D02*
X0445709Y0121455D01*
X0445008Y0121455D02*
X0445008Y0123557D01*
X0445709Y0122856D01*
X0446518Y0123206D02*
X0446518Y0122506D01*
X0446868Y0122155D01*
X0447919Y0122155D01*
X0447919Y0121455D02*
X0447919Y0123557D01*
X0446868Y0123557D01*
X0446518Y0123206D01*
X0447218Y0122155D02*
X0446518Y0121455D01*
X0453729Y0115733D02*
X0451229Y0113233D01*
X0447919Y0130116D02*
X0447919Y0132218D01*
X0446868Y0132218D01*
X0446518Y0131868D01*
X0446518Y0131167D01*
X0446868Y0130817D01*
X0447919Y0130817D01*
X0447218Y0130817D02*
X0446518Y0130116D01*
X0445709Y0130116D02*
X0444308Y0130116D01*
X0445008Y0130116D02*
X0445008Y0132218D01*
X0445709Y0131517D01*
X0443499Y0131868D02*
X0443149Y0132218D01*
X0442448Y0132218D01*
X0442098Y0131868D01*
X0442098Y0131517D01*
X0443499Y0130116D01*
X0442098Y0130116D01*
X0441289Y0130466D02*
X0440939Y0130116D01*
X0440238Y0130116D01*
X0439888Y0130466D01*
X0439888Y0131167D01*
X0440238Y0131517D01*
X0440589Y0131517D01*
X0441289Y0131167D01*
X0441289Y0132218D01*
X0439888Y0132218D01*
X0441727Y0133640D02*
X0441727Y0135742D01*
X0442778Y0134691D01*
X0441376Y0134691D01*
X0443586Y0135041D02*
X0443937Y0134691D01*
X0444987Y0134691D01*
X0443937Y0134691D02*
X0443586Y0134340D01*
X0443586Y0133990D01*
X0443937Y0133640D01*
X0444987Y0133640D01*
X0444987Y0135742D01*
X0443937Y0135742D01*
X0443586Y0135391D01*
X0443586Y0135041D01*
X0445796Y0135742D02*
X0447197Y0135742D01*
X0447197Y0133640D01*
X0447197Y0134691D02*
X0446497Y0134691D01*
X0397136Y0177032D02*
X0396785Y0176681D01*
X0396085Y0176681D01*
X0395734Y0177032D01*
X0394926Y0177032D02*
X0394926Y0177382D01*
X0394575Y0177732D01*
X0393875Y0177732D01*
X0393524Y0177382D01*
X0393524Y0177032D01*
X0393875Y0176681D01*
X0394575Y0176681D01*
X0394926Y0177032D01*
X0394575Y0177732D02*
X0394926Y0178082D01*
X0394926Y0178433D01*
X0394575Y0178783D01*
X0393875Y0178783D01*
X0393524Y0178433D01*
X0393524Y0178082D01*
X0393875Y0177732D01*
X0392716Y0177732D02*
X0392365Y0178082D01*
X0391315Y0178082D01*
X0392015Y0178082D02*
X0392716Y0178783D01*
X0392716Y0177732D02*
X0392716Y0177032D01*
X0392365Y0176681D01*
X0391315Y0176681D01*
X0391315Y0178783D01*
X0395734Y0178783D02*
X0397136Y0177382D01*
X0397136Y0177032D01*
X0397136Y0178783D02*
X0395734Y0178783D01*
X0384386Y0189681D02*
X0382984Y0189681D01*
X0382984Y0190732D01*
X0383685Y0190382D01*
X0384035Y0190382D01*
X0384386Y0190732D01*
X0384386Y0191433D01*
X0384035Y0191783D01*
X0383335Y0191783D01*
X0382984Y0191433D01*
X0382176Y0191433D02*
X0381825Y0191783D01*
X0381125Y0191783D01*
X0380774Y0191433D01*
X0380774Y0191082D01*
X0381125Y0190732D01*
X0381825Y0190732D01*
X0382176Y0191082D01*
X0382176Y0191433D01*
X0381825Y0190732D02*
X0382176Y0190382D01*
X0382176Y0190032D01*
X0381825Y0189681D01*
X0381125Y0189681D01*
X0380774Y0190032D01*
X0380774Y0190382D01*
X0381125Y0190732D01*
X0379966Y0190732D02*
X0379615Y0191082D01*
X0378565Y0191082D01*
X0379265Y0191082D02*
X0379966Y0191783D01*
X0379966Y0190732D02*
X0379966Y0190032D01*
X0379615Y0189681D01*
X0378565Y0189681D01*
X0378565Y0191783D01*
X0378565Y0193431D02*
X0379615Y0193431D01*
X0379966Y0193782D01*
X0379966Y0194482D01*
X0379615Y0194832D01*
X0378565Y0194832D01*
X0379265Y0194832D02*
X0379966Y0195533D01*
X0380774Y0195183D02*
X0381125Y0195533D01*
X0381825Y0195533D01*
X0382176Y0195183D01*
X0382176Y0194832D01*
X0381825Y0194482D01*
X0381125Y0194482D01*
X0380774Y0194132D01*
X0380774Y0193782D01*
X0381125Y0193431D01*
X0381825Y0193431D01*
X0382176Y0193782D01*
X0382176Y0194132D01*
X0381825Y0194482D01*
X0381125Y0194482D02*
X0380774Y0194832D01*
X0380774Y0195183D01*
X0378565Y0195533D02*
X0378565Y0193431D01*
X0382984Y0194482D02*
X0384386Y0194482D01*
X0384035Y0193431D02*
X0382984Y0194482D01*
X0384035Y0195533D02*
X0384035Y0193431D01*
X0384035Y0209681D02*
X0383335Y0209681D01*
X0382984Y0210032D01*
X0382984Y0210382D01*
X0383335Y0210732D01*
X0384035Y0210732D01*
X0384386Y0211082D01*
X0384386Y0211433D01*
X0384035Y0211783D01*
X0383335Y0211783D01*
X0382984Y0211433D01*
X0382984Y0211082D01*
X0383335Y0210732D01*
X0384035Y0210732D02*
X0384386Y0210382D01*
X0384386Y0210032D01*
X0384035Y0209681D01*
X0382176Y0210032D02*
X0382176Y0210382D01*
X0381825Y0210732D01*
X0381125Y0210732D01*
X0380774Y0210382D01*
X0380774Y0210032D01*
X0381125Y0209681D01*
X0381825Y0209681D01*
X0382176Y0210032D01*
X0381825Y0210732D02*
X0382176Y0211082D01*
X0382176Y0211433D01*
X0381825Y0211783D01*
X0381125Y0211783D01*
X0380774Y0211433D01*
X0380774Y0211082D01*
X0381125Y0210732D01*
X0379966Y0210032D02*
X0379615Y0209681D01*
X0378915Y0209681D01*
X0378565Y0210032D01*
X0378565Y0211433D01*
X0378915Y0211783D01*
X0379615Y0211783D01*
X0379966Y0211433D01*
X0381029Y0221577D02*
X0381029Y0222978D01*
X0381029Y0222278D02*
X0378928Y0222278D01*
X0379628Y0222978D01*
X0379628Y0223787D02*
X0379978Y0224137D01*
X0380329Y0223787D01*
X0380679Y0223787D01*
X0381029Y0224137D01*
X0381029Y0224838D01*
X0380679Y0225188D01*
X0380679Y0225997D02*
X0381029Y0226347D01*
X0381029Y0227048D01*
X0380679Y0227398D01*
X0379278Y0227398D01*
X0378928Y0227048D01*
X0378928Y0226347D01*
X0379278Y0225997D01*
X0379278Y0225188D02*
X0378928Y0224838D01*
X0378928Y0224137D01*
X0379278Y0223787D01*
X0379628Y0223787D01*
X0379978Y0224137D02*
X0379978Y0224487D01*
X0382428Y0224137D02*
X0382778Y0223787D01*
X0383128Y0223787D01*
X0383478Y0224137D01*
X0383829Y0223787D01*
X0384179Y0223787D01*
X0384529Y0224137D01*
X0384529Y0224838D01*
X0384179Y0225188D01*
X0384179Y0225997D02*
X0384529Y0226347D01*
X0384529Y0227048D01*
X0384179Y0227398D01*
X0382778Y0227398D01*
X0382428Y0227048D01*
X0382428Y0226347D01*
X0382778Y0225997D01*
X0382778Y0225188D02*
X0382428Y0224838D01*
X0382428Y0224137D01*
X0383478Y0224137D02*
X0383478Y0224487D01*
X0382778Y0222978D02*
X0382428Y0222628D01*
X0382428Y0221927D01*
X0382778Y0221577D01*
X0383128Y0221577D01*
X0384529Y0222978D01*
X0384529Y0221577D01*
X0384179Y0239077D02*
X0384529Y0239427D01*
X0384529Y0240128D01*
X0384179Y0240478D01*
X0383478Y0240478D02*
X0383128Y0239778D01*
X0383128Y0239427D01*
X0383478Y0239077D01*
X0384179Y0239077D01*
X0383478Y0240478D02*
X0382428Y0240478D01*
X0382428Y0239077D01*
X0381029Y0239427D02*
X0378928Y0239427D01*
X0379978Y0240478D01*
X0379978Y0239077D01*
X0379628Y0241287D02*
X0379978Y0241637D01*
X0380329Y0241287D01*
X0380679Y0241287D01*
X0381029Y0241637D01*
X0381029Y0242338D01*
X0380679Y0242688D01*
X0380679Y0243497D02*
X0381029Y0243847D01*
X0381029Y0244548D01*
X0380679Y0244898D01*
X0379278Y0244898D01*
X0378928Y0244548D01*
X0378928Y0243847D01*
X0379278Y0243497D01*
X0379278Y0242688D02*
X0378928Y0242338D01*
X0378928Y0241637D01*
X0379278Y0241287D01*
X0379628Y0241287D01*
X0379978Y0241637D02*
X0379978Y0241987D01*
X0382428Y0241637D02*
X0382778Y0241287D01*
X0383128Y0241287D01*
X0383478Y0241637D01*
X0383829Y0241287D01*
X0384179Y0241287D01*
X0384529Y0241637D01*
X0384529Y0242338D01*
X0384179Y0242688D01*
X0384179Y0243497D02*
X0384529Y0243847D01*
X0384529Y0244548D01*
X0384179Y0244898D01*
X0382778Y0244898D01*
X0382428Y0244548D01*
X0382428Y0243847D01*
X0382778Y0243497D01*
X0382778Y0242688D02*
X0382428Y0242338D01*
X0382428Y0241637D01*
X0383478Y0241637D02*
X0383478Y0241987D01*
X0423420Y0215433D02*
X0423770Y0215783D01*
X0424470Y0215783D01*
X0424821Y0215433D01*
X0425629Y0215783D02*
X0427031Y0214382D01*
X0427031Y0214032D01*
X0426680Y0213681D01*
X0425980Y0213681D01*
X0425629Y0214032D01*
X0424821Y0214032D02*
X0424470Y0213681D01*
X0423770Y0213681D01*
X0423420Y0214032D01*
X0423420Y0215433D01*
X0425629Y0215783D02*
X0427031Y0215783D01*
X0440270Y0232681D02*
X0439920Y0233032D01*
X0439920Y0234433D01*
X0440270Y0234783D01*
X0440970Y0234783D01*
X0441321Y0234433D01*
X0442129Y0234783D02*
X0443531Y0234783D01*
X0442830Y0234783D02*
X0442830Y0232681D01*
X0442129Y0233382D01*
X0441321Y0233032D02*
X0440970Y0232681D01*
X0440270Y0232681D01*
X0448678Y0223753D02*
X0448678Y0222702D01*
X0449028Y0222352D01*
X0449728Y0222352D01*
X0450079Y0222702D01*
X0450079Y0223753D01*
X0450779Y0223753D02*
X0448678Y0223753D01*
X0450079Y0223052D02*
X0450779Y0222352D01*
X0450779Y0221543D02*
X0450779Y0220142D01*
X0450779Y0220842D02*
X0448678Y0220842D01*
X0449378Y0221543D01*
X0449378Y0219333D02*
X0448678Y0218632D01*
X0450779Y0218632D01*
X0450779Y0217932D02*
X0450779Y0219333D01*
X0451928Y0218632D02*
X0454029Y0218632D01*
X0454029Y0217932D02*
X0454029Y0219333D01*
X0454029Y0220142D02*
X0454029Y0221543D01*
X0454029Y0220842D02*
X0451928Y0220842D01*
X0452628Y0221543D01*
X0452278Y0222352D02*
X0452978Y0222352D01*
X0453329Y0222702D01*
X0453329Y0223753D01*
X0454029Y0223753D02*
X0451928Y0223753D01*
X0451928Y0222702D01*
X0452278Y0222352D01*
X0453329Y0223052D02*
X0454029Y0222352D01*
X0452628Y0219333D02*
X0451928Y0218632D01*
X0452278Y0217123D02*
X0451928Y0216773D01*
X0451928Y0216072D01*
X0452278Y0215722D01*
X0452628Y0215722D01*
X0454029Y0217123D01*
X0454029Y0215722D01*
X0450779Y0216072D02*
X0450779Y0216773D01*
X0450429Y0217123D01*
X0449728Y0216423D02*
X0449728Y0216072D01*
X0450079Y0215722D01*
X0450429Y0215722D01*
X0450779Y0216072D01*
X0449728Y0216072D02*
X0449378Y0215722D01*
X0449028Y0215722D01*
X0448678Y0216072D01*
X0448678Y0216773D01*
X0449028Y0217123D01*
X0446281Y0248681D02*
X0444879Y0248681D01*
X0444879Y0249732D01*
X0445580Y0249382D01*
X0445930Y0249382D01*
X0446281Y0249732D01*
X0446281Y0250433D01*
X0445930Y0250783D01*
X0445230Y0250783D01*
X0444879Y0250433D01*
X0444071Y0250433D02*
X0443720Y0250783D01*
X0443020Y0250783D01*
X0442670Y0250433D01*
X0442670Y0249032D01*
X0443020Y0248681D01*
X0443720Y0248681D01*
X0444071Y0249032D01*
X0454428Y0248722D02*
X0454428Y0250123D01*
X0455478Y0250123D01*
X0455128Y0249423D01*
X0455128Y0249072D01*
X0455478Y0248722D01*
X0456179Y0248722D01*
X0456529Y0249072D01*
X0456529Y0249773D01*
X0456179Y0250123D01*
X0456529Y0250932D02*
X0456529Y0252333D01*
X0456529Y0251632D02*
X0454428Y0251632D01*
X0455128Y0252333D01*
X0456529Y0253142D02*
X0456529Y0254543D01*
X0456529Y0253842D02*
X0454428Y0253842D01*
X0455128Y0254543D01*
X0454778Y0255352D02*
X0455478Y0255352D01*
X0455829Y0255702D01*
X0455829Y0256753D01*
X0456529Y0256753D02*
X0454428Y0256753D01*
X0454428Y0255702D01*
X0454778Y0255352D01*
X0455829Y0256052D02*
X0456529Y0255352D01*
X0456390Y0258681D02*
X0455339Y0259732D01*
X0456740Y0259732D01*
X0456390Y0260783D02*
X0456390Y0258681D01*
X0453830Y0258681D02*
X0453830Y0260783D01*
X0453129Y0260783D02*
X0454531Y0260783D01*
X0453129Y0259382D02*
X0453830Y0258681D01*
X0451620Y0258681D02*
X0451620Y0260783D01*
X0450920Y0260783D02*
X0452321Y0260783D01*
X0450920Y0259382D02*
X0451620Y0258681D01*
X0450111Y0259032D02*
X0450111Y0259732D01*
X0449761Y0260082D01*
X0448710Y0260082D01*
X0449410Y0260082D02*
X0450111Y0260783D01*
X0448710Y0260783D02*
X0448710Y0258681D01*
X0449761Y0258681D01*
X0450111Y0259032D01*
X0444281Y0258681D02*
X0443580Y0259032D01*
X0442879Y0259732D01*
X0443930Y0259732D01*
X0444281Y0260082D01*
X0444281Y0260433D01*
X0443930Y0260783D01*
X0443230Y0260783D01*
X0442879Y0260433D01*
X0442879Y0259732D01*
X0442071Y0259032D02*
X0441720Y0258681D01*
X0441020Y0258681D01*
X0440670Y0259032D01*
X0440670Y0260433D01*
X0441020Y0260783D01*
X0441720Y0260783D01*
X0442071Y0260433D01*
X0200279Y0138898D02*
X0198178Y0138898D01*
X0198178Y0137847D01*
X0198528Y0137497D01*
X0199228Y0137497D01*
X0199579Y0137847D01*
X0199579Y0138898D01*
X0199579Y0138197D02*
X0200279Y0137497D01*
X0200279Y0136688D02*
X0199929Y0136688D01*
X0198528Y0135287D01*
X0198178Y0135287D01*
X0198178Y0136688D01*
X0198178Y0134478D02*
X0198178Y0133077D01*
X0198528Y0133077D01*
X0199929Y0134478D01*
X0200279Y0134478D01*
X0133935Y0203681D02*
X0133935Y0205783D01*
X0133234Y0205783D02*
X0134636Y0205783D01*
X0133234Y0204382D02*
X0133935Y0203681D01*
X0132426Y0204032D02*
X0132075Y0203681D01*
X0131375Y0203681D01*
X0131024Y0204032D01*
X0131024Y0204382D01*
X0131375Y0204732D01*
X0132426Y0204732D01*
X0132426Y0204032D02*
X0132426Y0205433D01*
X0132075Y0205783D01*
X0131375Y0205783D01*
X0131024Y0205433D01*
X0130216Y0205783D02*
X0129515Y0205082D01*
X0129865Y0205082D02*
X0128815Y0205082D01*
X0128815Y0205783D02*
X0128815Y0203681D01*
X0129865Y0203681D01*
X0130216Y0204032D01*
X0130216Y0204732D01*
X0129865Y0205082D01*
X0130426Y0210931D02*
X0129024Y0210931D01*
X0128216Y0211282D02*
X0127865Y0210931D01*
X0127165Y0210931D01*
X0126815Y0211282D01*
X0126815Y0212683D01*
X0127165Y0213033D01*
X0127865Y0213033D01*
X0128216Y0212683D01*
X0129024Y0212683D02*
X0129024Y0213033D01*
X0129024Y0212683D02*
X0130426Y0211282D01*
X0130426Y0210931D01*
X0131234Y0211282D02*
X0131234Y0211632D01*
X0131585Y0211982D01*
X0132285Y0211982D01*
X0132636Y0212332D01*
X0132636Y0212683D01*
X0132285Y0213033D01*
X0131585Y0213033D01*
X0131234Y0212683D01*
X0131234Y0212332D01*
X0131585Y0211982D01*
X0132285Y0211982D02*
X0132636Y0211632D01*
X0132636Y0211282D01*
X0132285Y0210931D01*
X0131585Y0210931D01*
X0131234Y0211282D01*
X0131028Y0234827D02*
X0132429Y0236228D01*
X0132779Y0236228D01*
X0131028Y0237037D02*
X0132429Y0238438D01*
X0132779Y0238438D01*
X0132429Y0239247D02*
X0132779Y0239597D01*
X0132779Y0240298D01*
X0132429Y0240648D01*
X0131028Y0240648D01*
X0130678Y0240298D01*
X0130678Y0239597D01*
X0131028Y0239247D01*
X0130678Y0238438D02*
X0130678Y0237037D01*
X0131028Y0237037D01*
X0130678Y0236228D02*
X0130678Y0234827D01*
X0131028Y0234827D01*
X0121529Y0235177D02*
X0121179Y0234827D01*
X0120829Y0234827D01*
X0120478Y0235177D01*
X0120478Y0236228D01*
X0121179Y0236228D01*
X0121529Y0235878D01*
X0121529Y0235177D01*
X0120478Y0236228D02*
X0119778Y0235528D01*
X0119428Y0234827D01*
X0119428Y0237037D02*
X0119778Y0237037D01*
X0121179Y0238438D01*
X0121529Y0238438D01*
X0121179Y0239247D02*
X0121529Y0239597D01*
X0121529Y0240298D01*
X0121179Y0240648D01*
X0119778Y0240648D01*
X0119428Y0240298D01*
X0119428Y0239597D01*
X0119778Y0239247D01*
X0119428Y0238438D02*
X0119428Y0237037D01*
X0093279Y0264827D02*
X0093279Y0266228D01*
X0093279Y0265528D02*
X0091178Y0265528D01*
X0091878Y0266228D01*
X0091878Y0267037D02*
X0092228Y0267387D01*
X0092228Y0268088D01*
X0091878Y0268438D01*
X0091528Y0268438D01*
X0091178Y0268088D01*
X0091178Y0267387D01*
X0091528Y0267037D01*
X0091878Y0267037D01*
X0092228Y0267387D02*
X0092579Y0267037D01*
X0092929Y0267037D01*
X0093279Y0267387D01*
X0093279Y0268088D01*
X0092929Y0268438D01*
X0092579Y0268438D01*
X0092228Y0268088D01*
X0092228Y0269247D02*
X0092579Y0269597D01*
X0092579Y0270648D01*
X0093279Y0270648D02*
X0091178Y0270648D01*
X0091178Y0269597D01*
X0091528Y0269247D01*
X0092228Y0269247D01*
X0092579Y0269947D02*
X0093279Y0269247D01*
D20*
X0451229Y0110733D02*
X0453729Y0113233D01*
D21*
X0453729Y0110733D02*
X0451229Y0108233D01*
D22*
X0383479Y0135733D03*
X0412229Y0191233D03*
X0432229Y0228733D03*
X0432229Y0228733D03*
X0442229Y0245733D03*
X0134979Y0220733D03*
D23*
X0443629Y0239533D02*
X0443698Y0239535D01*
X0443766Y0239541D01*
X0443834Y0239551D01*
X0443901Y0239564D01*
X0443967Y0239582D01*
X0444032Y0239603D01*
X0444096Y0239628D01*
X0444158Y0239656D01*
X0444219Y0239688D01*
X0444278Y0239723D01*
X0444334Y0239762D01*
X0444389Y0239804D01*
X0444440Y0239849D01*
X0444490Y0239897D01*
X0444536Y0239947D01*
X0444579Y0240000D01*
X0444620Y0240056D01*
X0444657Y0240113D01*
X0444690Y0240173D01*
X0444721Y0240235D01*
X0444747Y0240298D01*
X0444770Y0240362D01*
X0444790Y0240428D01*
X0444805Y0240495D01*
X0444817Y0240562D01*
X0444825Y0240630D01*
X0444829Y0240699D01*
X0444829Y0240767D01*
X0444825Y0240836D01*
X0444817Y0240904D01*
X0444805Y0240971D01*
X0444790Y0241038D01*
X0444770Y0241104D01*
X0444747Y0241168D01*
X0444721Y0241231D01*
X0444690Y0241293D01*
X0444657Y0241353D01*
X0444620Y0241410D01*
X0444579Y0241466D01*
X0444536Y0241519D01*
X0444490Y0241569D01*
X0444440Y0241617D01*
X0444389Y0241662D01*
X0444334Y0241704D01*
X0444278Y0241743D01*
X0444219Y0241778D01*
X0444158Y0241810D01*
X0444096Y0241838D01*
X0444032Y0241863D01*
X0443967Y0241884D01*
X0443901Y0241902D01*
X0443834Y0241915D01*
X0443766Y0241925D01*
X0443698Y0241931D01*
X0443629Y0241933D01*
D24*
X0093462Y0071934D03*
X0205529Y0114965D03*
X0280529Y0114965D03*
X0349997Y0153282D03*
X0414997Y0184532D03*
X0312930Y0241501D03*
X0237930Y0241501D03*
X0168462Y0203184D03*
X0109997Y0284532D03*
D25*
X0351084Y0194572D03*
M02*
