G04 This is an RS-274x file exported by *
G04 gerbv version 2.7.0 *
G04 More information is available about gerbv at *
G04 http://gerbv.geda-project.org/ *
G04 --End of header info--*
%MOIN*%
%FSLAX36Y36*%
%IPPOS*%
G04 --Define apertures--*
%ADD10C,0.0000*%
%ADD11C,0.0000*%
G04 --Start main section--*
G54D10*
G01X-330000Y0418330D02*
G01X-2580000Y0418330D01*
G01X-2580000Y0418330D02*
G01X-2580000Y4818330D01*
G01X-2580000Y4818330D02*
G01X-330000Y4818330D01*
G01X-330000Y4818330D02*
G01X-330000Y0418330D01*
G54D11*
G01X-630000Y1719710D02*
G01X-630970Y1719730D01*
G01X-630970Y1719730D02*
G01X-631940Y1719790D01*
G01X-631940Y1719790D02*
G01X-632900Y1719890D01*
G01X-632900Y1719890D02*
G01X-633860Y1720030D01*
G01X-633860Y1720030D02*
G01X-634820Y1720210D01*
G01X-634820Y1720210D02*
G01X-635760Y1720420D01*
G01X-635760Y1720420D02*
G01X-636700Y1720680D01*
G01X-636700Y1720680D02*
G01X-637620Y1720970D01*
G01X-637620Y1720970D02*
G01X-638530Y1721310D01*
G01X-638530Y1721310D02*
G01X-639430Y1721670D01*
G01X-639430Y1721670D02*
G01X-640310Y1722080D01*
G01X-640310Y1722080D02*
G01X-641170Y1722520D01*
G01X-641170Y1722520D02*
G01X-642020Y1723000D01*
G01X-642020Y1723000D02*
G01X-642840Y1723510D01*
G01X-642840Y1723510D02*
G01X-643650Y1724050D01*
G01X-643650Y1724050D02*
G01X-644430Y1724630D01*
G01X-644430Y1724630D02*
G01X-645180Y1725240D01*
G01X-645180Y1725240D02*
G01X-645910Y1725870D01*
G01X-645910Y1725870D02*
G01X-646620Y1726540D01*
G01X-646620Y1726540D02*
G01X-647290Y1727240D01*
G01X-647290Y1727240D02*
G01X-647940Y1727960D01*
G01X-647940Y1727960D02*
G01X-648550Y1728710D01*
G01X-648550Y1728710D02*
G01X-649140Y1729490D01*
G01X-649140Y1729490D02*
G01X-649690Y1730280D01*
G01X-649690Y1730280D02*
G01X-650210Y1731100D01*
G01X-650210Y1731100D02*
G01X-650690Y1731940D01*
G01X-650690Y1731940D02*
G01X-651140Y1732800D01*
G01X-651140Y1732800D02*
G01X-651560Y1733680D01*
G01X-651560Y1733680D02*
G01X-651940Y1734570D01*
G01X-651940Y1734570D02*
G01X-652280Y1735480D01*
G01X-652280Y1735480D02*
G01X-652580Y1736400D01*
G01X-652580Y1736400D02*
G01X-652850Y1737330D01*
G01X-652850Y1737330D02*
G01X-653070Y1738280D01*
G01X-653070Y1738280D02*
G01X-653260Y1739230D01*
G01X-653260Y1739230D02*
G01X-653410Y1740190D01*
G01X-653410Y1740190D02*
G01X-653520Y1741150D01*
G01X-653520Y1741150D02*
G01X-653590Y1742120D01*
G01X-653590Y1742120D02*
G01X-653620Y1743090D01*
G01X-653620Y1743090D02*
G01X-653610Y1744060D01*
G01X-653610Y1744060D02*
G01X-653560Y1745030D01*
G01X-653560Y1745030D02*
G01X-653470Y1745990D01*
G01X-653470Y1745990D02*
G01X-653340Y1746950D01*
G01X-653340Y1746950D02*
G01X-653170Y1747910D01*
G01X-653170Y1747910D02*
G01X-652960Y1748860D01*
G01X-652960Y1748860D02*
G01X-652720Y1749790D01*
G01X-652720Y1749790D02*
G01X-652430Y1750720D01*
G01X-652430Y1750720D02*
G01X-652110Y1751640D01*
G01X-652110Y1751640D02*
G01X-651750Y1752540D01*
G01X-651750Y1752540D02*
G01X-651360Y1753420D01*
G01X-651360Y1753420D02*
G01X-650920Y1754290D01*
G01X-650920Y1754290D02*
G01X-650460Y1755140D01*
G01X-650460Y1755140D02*
G01X-649950Y1755970D01*
G01X-649950Y1755970D02*
G01X-649420Y1756780D01*
G01X-649420Y1756780D02*
G01X-648850Y1757560D01*
G01X-648850Y1757560D02*
G01X-648250Y1758330D01*
G01X-648250Y1758330D02*
G01X-647620Y1759060D01*
G01X-647620Y1759060D02*
G01X-646960Y1759770D01*
G01X-646960Y1759770D02*
G01X-646270Y1760450D01*
G01X-646270Y1760450D02*
G01X-645550Y1761110D01*
G01X-645550Y1761110D02*
G01X-644810Y1761730D01*
G01X-644810Y1761730D02*
G01X-644040Y1762320D01*
G01X-644040Y1762320D02*
G01X-643250Y1762880D01*
G01X-643250Y1762880D02*
G01X-642430Y1763410D01*
G01X-642430Y1763410D02*
G01X-641600Y1763910D01*
G01X-641600Y1763910D02*
G01X-640740Y1764360D01*
G01X-640740Y1764360D02*
G01X-639870Y1764790D01*
G01X-639870Y1764790D02*
G01X-638980Y1765180D01*
G01X-638980Y1765180D02*
G01X-638080Y1765530D01*
G01X-638080Y1765530D02*
G01X-637160Y1765840D01*
G01X-637160Y1765840D02*
G01X-636230Y1766110D01*
G01X-636230Y1766110D02*
G01X-635290Y1766350D01*
G01X-635290Y1766350D02*
G01X-634340Y1766550D01*
G01X-634340Y1766550D02*
G01X-633380Y1766710D01*
G01X-633380Y1766710D02*
G01X-632420Y1766830D01*
G01X-632420Y1766830D02*
G01X-631450Y1766910D01*
G01X-631450Y1766910D02*
G01X-630480Y1766950D01*
G01X-630480Y1766950D02*
G01X-629520Y1766950D01*
G01X-629520Y1766950D02*
G01X-628550Y1766910D01*
G01X-628550Y1766910D02*
G01X-627580Y1766830D01*
G01X-627580Y1766830D02*
G01X-626620Y1766710D01*
G01X-626620Y1766710D02*
G01X-625660Y1766550D01*
G01X-625660Y1766550D02*
G01X-624710Y1766350D01*
G01X-624710Y1766350D02*
G01X-623770Y1766110D01*
G01X-623770Y1766110D02*
G01X-622840Y1765840D01*
G01X-622840Y1765840D02*
G01X-621920Y1765530D01*
G01X-621920Y1765530D02*
G01X-621020Y1765180D01*
G01X-621020Y1765180D02*
G01X-620130Y1764790D01*
G01X-620130Y1764790D02*
G01X-619260Y1764360D01*
G01X-619260Y1764360D02*
G01X-618400Y1763910D01*
G01X-618400Y1763910D02*
G01X-617570Y1763410D01*
G01X-617570Y1763410D02*
G01X-616750Y1762880D01*
G01X-616750Y1762880D02*
G01X-615960Y1762320D01*
G01X-615960Y1762320D02*
G01X-615190Y1761730D01*
G01X-615190Y1761730D02*
G01X-614450Y1761110D01*
G01X-614450Y1761110D02*
G01X-613730Y1760450D01*
G01X-613730Y1760450D02*
G01X-613040Y1759770D01*
G01X-613040Y1759770D02*
G01X-612380Y1759060D01*
G01X-612380Y1759060D02*
G01X-611750Y1758330D01*
G01X-611750Y1758330D02*
G01X-611150Y1757560D01*
G01X-611150Y1757560D02*
G01X-610580Y1756780D01*
G01X-610580Y1756780D02*
G01X-610050Y1755970D01*
G01X-610050Y1755970D02*
G01X-609540Y1755140D01*
G01X-609540Y1755140D02*
G01X-609080Y1754290D01*
G01X-609080Y1754290D02*
G01X-608640Y1753420D01*
G01X-608640Y1753420D02*
G01X-608250Y1752540D01*
G01X-608250Y1752540D02*
G01X-607890Y1751640D01*
G01X-607890Y1751640D02*
G01X-607570Y1750720D01*
G01X-607570Y1750720D02*
G01X-607280Y1749790D01*
G01X-607280Y1749790D02*
G01X-607040Y1748860D01*
G01X-607040Y1748860D02*
G01X-606830Y1747910D01*
G01X-606830Y1747910D02*
G01X-606660Y1746950D01*
G01X-606660Y1746950D02*
G01X-606530Y1745990D01*
G01X-606530Y1745990D02*
G01X-606440Y1745030D01*
G01X-606440Y1745030D02*
G01X-606390Y1744060D01*
G01X-606390Y1744060D02*
G01X-606380Y1743090D01*
G01X-606380Y1743090D02*
G01X-606410Y1742120D01*
G01X-606410Y1742120D02*
G01X-606480Y1741150D01*
G01X-606480Y1741150D02*
G01X-606590Y1740190D01*
G01X-606590Y1740190D02*
G01X-606740Y1739230D01*
G01X-606740Y1739230D02*
G01X-606930Y1738280D01*
G01X-606930Y1738280D02*
G01X-607150Y1737330D01*
G01X-607150Y1737330D02*
G01X-607420Y1736400D01*
G01X-607420Y1736400D02*
G01X-607720Y1735480D01*
G01X-607720Y1735480D02*
G01X-608060Y1734570D01*
G01X-608060Y1734570D02*
G01X-608440Y1733680D01*
G01X-608440Y1733680D02*
G01X-608860Y1732800D01*
G01X-608860Y1732800D02*
G01X-609310Y1731940D01*
G01X-609310Y1731940D02*
G01X-609790Y1731100D01*
G01X-609790Y1731100D02*
G01X-610310Y1730280D01*
G01X-610310Y1730280D02*
G01X-610860Y1729490D01*
G01X-610860Y1729490D02*
G01X-611450Y1728710D01*
G01X-611450Y1728710D02*
G01X-612060Y1727960D01*
G01X-612060Y1727960D02*
G01X-612710Y1727240D01*
G01X-612710Y1727240D02*
G01X-613380Y1726540D01*
G01X-613380Y1726540D02*
G01X-614090Y1725870D01*
G01X-614090Y1725870D02*
G01X-614820Y1725240D01*
G01X-614820Y1725240D02*
G01X-615570Y1724630D01*
G01X-615570Y1724630D02*
G01X-616350Y1724050D01*
G01X-616350Y1724050D02*
G01X-617160Y1723510D01*
G01X-617160Y1723510D02*
G01X-617980Y1723000D01*
G01X-617980Y1723000D02*
G01X-618830Y1722520D01*
G01X-618830Y1722520D02*
G01X-619690Y1722080D01*
G01X-619690Y1722080D02*
G01X-620570Y1721670D01*
G01X-620570Y1721670D02*
G01X-621470Y1721310D01*
G01X-621470Y1721310D02*
G01X-622380Y1720970D01*
G01X-622380Y1720970D02*
G01X-623300Y1720680D01*
G01X-623300Y1720680D02*
G01X-624240Y1720420D01*
G01X-624240Y1720420D02*
G01X-625180Y1720210D01*
G01X-625180Y1720210D02*
G01X-626140Y1720030D01*
G01X-626140Y1720030D02*
G01X-627100Y1719890D01*
G01X-627100Y1719890D02*
G01X-628060Y1719790D01*
G01X-628060Y1719790D02*
G01X-629030Y1719730D01*
G01X-629030Y1719730D02*
G01X-630000Y1719710D01*
G01X-630000Y1819710D02*
G01X-630970Y1819730D01*
G01X-630970Y1819730D02*
G01X-631940Y1819790D01*
G01X-631940Y1819790D02*
G01X-632900Y1819890D01*
G01X-632900Y1819890D02*
G01X-633860Y1820030D01*
G01X-633860Y1820030D02*
G01X-634820Y1820210D01*
G01X-634820Y1820210D02*
G01X-635760Y1820420D01*
G01X-635760Y1820420D02*
G01X-636700Y1820680D01*
G01X-636700Y1820680D02*
G01X-637620Y1820970D01*
G01X-637620Y1820970D02*
G01X-638530Y1821310D01*
G01X-638530Y1821310D02*
G01X-639430Y1821670D01*
G01X-639430Y1821670D02*
G01X-640310Y1822080D01*
G01X-640310Y1822080D02*
G01X-641170Y1822520D01*
G01X-641170Y1822520D02*
G01X-642020Y1823000D01*
G01X-642020Y1823000D02*
G01X-642840Y1823510D01*
G01X-642840Y1823510D02*
G01X-643650Y1824050D01*
G01X-643650Y1824050D02*
G01X-644430Y1824630D01*
G01X-644430Y1824630D02*
G01X-645180Y1825240D01*
G01X-645180Y1825240D02*
G01X-645910Y1825870D01*
G01X-645910Y1825870D02*
G01X-646620Y1826540D01*
G01X-646620Y1826540D02*
G01X-647290Y1827240D01*
G01X-647290Y1827240D02*
G01X-647940Y1827960D01*
G01X-647940Y1827960D02*
G01X-648550Y1828710D01*
G01X-648550Y1828710D02*
G01X-649140Y1829490D01*
G01X-649140Y1829490D02*
G01X-649690Y1830280D01*
G01X-649690Y1830280D02*
G01X-650210Y1831100D01*
G01X-650210Y1831100D02*
G01X-650690Y1831940D01*
G01X-650690Y1831940D02*
G01X-651140Y1832800D01*
G01X-651140Y1832800D02*
G01X-651560Y1833680D01*
G01X-651560Y1833680D02*
G01X-651940Y1834570D01*
G01X-651940Y1834570D02*
G01X-652280Y1835480D01*
G01X-652280Y1835480D02*
G01X-652580Y1836400D01*
G01X-652580Y1836400D02*
G01X-652850Y1837330D01*
G01X-652850Y1837330D02*
G01X-653070Y1838280D01*
G01X-653070Y1838280D02*
G01X-653260Y1839230D01*
G01X-653260Y1839230D02*
G01X-653410Y1840190D01*
G01X-653410Y1840190D02*
G01X-653520Y1841150D01*
G01X-653520Y1841150D02*
G01X-653590Y1842120D01*
G01X-653590Y1842120D02*
G01X-653620Y1843090D01*
G01X-653620Y1843090D02*
G01X-653610Y1844060D01*
G01X-653610Y1844060D02*
G01X-653560Y1845030D01*
G01X-653560Y1845030D02*
G01X-653470Y1845990D01*
G01X-653470Y1845990D02*
G01X-653340Y1846950D01*
G01X-653340Y1846950D02*
G01X-653170Y1847910D01*
G01X-653170Y1847910D02*
G01X-652960Y1848860D01*
G01X-652960Y1848860D02*
G01X-652720Y1849790D01*
G01X-652720Y1849790D02*
G01X-652430Y1850720D01*
G01X-652430Y1850720D02*
G01X-652110Y1851640D01*
G01X-652110Y1851640D02*
G01X-651750Y1852540D01*
G01X-651750Y1852540D02*
G01X-651360Y1853420D01*
G01X-651360Y1853420D02*
G01X-650920Y1854290D01*
G01X-650920Y1854290D02*
G01X-650460Y1855140D01*
G01X-650460Y1855140D02*
G01X-649950Y1855970D01*
G01X-649950Y1855970D02*
G01X-649420Y1856780D01*
G01X-649420Y1856780D02*
G01X-648850Y1857560D01*
G01X-648850Y1857560D02*
G01X-648250Y1858330D01*
G01X-648250Y1858330D02*
G01X-647620Y1859060D01*
G01X-647620Y1859060D02*
G01X-646960Y1859770D01*
G01X-646960Y1859770D02*
G01X-646270Y1860450D01*
G01X-646270Y1860450D02*
G01X-645550Y1861110D01*
G01X-645550Y1861110D02*
G01X-644810Y1861730D01*
G01X-644810Y1861730D02*
G01X-644040Y1862320D01*
G01X-644040Y1862320D02*
G01X-643250Y1862880D01*
G01X-643250Y1862880D02*
G01X-642430Y1863410D01*
G01X-642430Y1863410D02*
G01X-641600Y1863910D01*
G01X-641600Y1863910D02*
G01X-640740Y1864360D01*
G01X-640740Y1864360D02*
G01X-639870Y1864790D01*
G01X-639870Y1864790D02*
G01X-638980Y1865180D01*
G01X-638980Y1865180D02*
G01X-638080Y1865530D01*
G01X-638080Y1865530D02*
G01X-637160Y1865840D01*
G01X-637160Y1865840D02*
G01X-636230Y1866110D01*
G01X-636230Y1866110D02*
G01X-635290Y1866350D01*
G01X-635290Y1866350D02*
G01X-634340Y1866550D01*
G01X-634340Y1866550D02*
G01X-633380Y1866710D01*
G01X-633380Y1866710D02*
G01X-632420Y1866830D01*
G01X-632420Y1866830D02*
G01X-631450Y1866910D01*
G01X-631450Y1866910D02*
G01X-630480Y1866950D01*
G01X-630480Y1866950D02*
G01X-629520Y1866950D01*
G01X-629520Y1866950D02*
G01X-628550Y1866910D01*
G01X-628550Y1866910D02*
G01X-627580Y1866830D01*
G01X-627580Y1866830D02*
G01X-626620Y1866710D01*
G01X-626620Y1866710D02*
G01X-625660Y1866550D01*
G01X-625660Y1866550D02*
G01X-624710Y1866350D01*
G01X-624710Y1866350D02*
G01X-623770Y1866110D01*
G01X-623770Y1866110D02*
G01X-622840Y1865840D01*
G01X-622840Y1865840D02*
G01X-621920Y1865530D01*
G01X-621920Y1865530D02*
G01X-621020Y1865180D01*
G01X-621020Y1865180D02*
G01X-620130Y1864790D01*
G01X-620130Y1864790D02*
G01X-619260Y1864360D01*
G01X-619260Y1864360D02*
G01X-618400Y1863910D01*
G01X-618400Y1863910D02*
G01X-617570Y1863410D01*
G01X-617570Y1863410D02*
G01X-616750Y1862880D01*
G01X-616750Y1862880D02*
G01X-615960Y1862320D01*
G01X-615960Y1862320D02*
G01X-615190Y1861730D01*
G01X-615190Y1861730D02*
G01X-614450Y1861110D01*
G01X-614450Y1861110D02*
G01X-613730Y1860450D01*
G01X-613730Y1860450D02*
G01X-613040Y1859770D01*
G01X-613040Y1859770D02*
G01X-612380Y1859060D01*
G01X-612380Y1859060D02*
G01X-611750Y1858330D01*
G01X-611750Y1858330D02*
G01X-611150Y1857560D01*
G01X-611150Y1857560D02*
G01X-610580Y1856780D01*
G01X-610580Y1856780D02*
G01X-610050Y1855970D01*
G01X-610050Y1855970D02*
G01X-609540Y1855140D01*
G01X-609540Y1855140D02*
G01X-609080Y1854290D01*
G01X-609080Y1854290D02*
G01X-608640Y1853420D01*
G01X-608640Y1853420D02*
G01X-608250Y1852540D01*
G01X-608250Y1852540D02*
G01X-607890Y1851640D01*
G01X-607890Y1851640D02*
G01X-607570Y1850720D01*
G01X-607570Y1850720D02*
G01X-607280Y1849790D01*
G01X-607280Y1849790D02*
G01X-607040Y1848860D01*
G01X-607040Y1848860D02*
G01X-606830Y1847910D01*
G01X-606830Y1847910D02*
G01X-606660Y1846950D01*
G01X-606660Y1846950D02*
G01X-606530Y1845990D01*
G01X-606530Y1845990D02*
G01X-606440Y1845030D01*
G01X-606440Y1845030D02*
G01X-606390Y1844060D01*
G01X-606390Y1844060D02*
G01X-606380Y1843090D01*
G01X-606380Y1843090D02*
G01X-606410Y1842120D01*
G01X-606410Y1842120D02*
G01X-606480Y1841150D01*
G01X-606480Y1841150D02*
G01X-606590Y1840190D01*
G01X-606590Y1840190D02*
G01X-606740Y1839230D01*
G01X-606740Y1839230D02*
G01X-606930Y1838280D01*
G01X-606930Y1838280D02*
G01X-607150Y1837330D01*
G01X-607150Y1837330D02*
G01X-607420Y1836400D01*
G01X-607420Y1836400D02*
G01X-607720Y1835480D01*
G01X-607720Y1835480D02*
G01X-608060Y1834570D01*
G01X-608060Y1834570D02*
G01X-608440Y1833680D01*
G01X-608440Y1833680D02*
G01X-608860Y1832800D01*
G01X-608860Y1832800D02*
G01X-609310Y1831940D01*
G01X-609310Y1831940D02*
G01X-609790Y1831100D01*
G01X-609790Y1831100D02*
G01X-610310Y1830280D01*
G01X-610310Y1830280D02*
G01X-610860Y1829490D01*
G01X-610860Y1829490D02*
G01X-611450Y1828710D01*
G01X-611450Y1828710D02*
G01X-612060Y1827960D01*
G01X-612060Y1827960D02*
G01X-612710Y1827240D01*
G01X-612710Y1827240D02*
G01X-613380Y1826540D01*
G01X-613380Y1826540D02*
G01X-614090Y1825870D01*
G01X-614090Y1825870D02*
G01X-614820Y1825240D01*
G01X-614820Y1825240D02*
G01X-615570Y1824630D01*
G01X-615570Y1824630D02*
G01X-616350Y1824050D01*
G01X-616350Y1824050D02*
G01X-617160Y1823510D01*
G01X-617160Y1823510D02*
G01X-617980Y1823000D01*
G01X-617980Y1823000D02*
G01X-618830Y1822520D01*
G01X-618830Y1822520D02*
G01X-619690Y1822080D01*
G01X-619690Y1822080D02*
G01X-620570Y1821670D01*
G01X-620570Y1821670D02*
G01X-621470Y1821310D01*
G01X-621470Y1821310D02*
G01X-622380Y1820970D01*
G01X-622380Y1820970D02*
G01X-623300Y1820680D01*
G01X-623300Y1820680D02*
G01X-624240Y1820420D01*
G01X-624240Y1820420D02*
G01X-625180Y1820210D01*
G01X-625180Y1820210D02*
G01X-626140Y1820030D01*
G01X-626140Y1820030D02*
G01X-627100Y1819890D01*
G01X-627100Y1819890D02*
G01X-628060Y1819790D01*
G01X-628060Y1819790D02*
G01X-629030Y1819730D01*
G01X-629030Y1819730D02*
G01X-630000Y1819710D01*
G01X-630000Y3769710D02*
G01X-630970Y3769730D01*
G01X-630970Y3769730D02*
G01X-631940Y3769790D01*
G01X-631940Y3769790D02*
G01X-632900Y3769890D01*
G01X-632900Y3769890D02*
G01X-633860Y3770030D01*
G01X-633860Y3770030D02*
G01X-634820Y3770210D01*
G01X-634820Y3770210D02*
G01X-635760Y3770420D01*
G01X-635760Y3770420D02*
G01X-636700Y3770680D01*
G01X-636700Y3770680D02*
G01X-637620Y3770970D01*
G01X-637620Y3770970D02*
G01X-638530Y3771310D01*
G01X-638530Y3771310D02*
G01X-639430Y3771670D01*
G01X-639430Y3771670D02*
G01X-640310Y3772080D01*
G01X-640310Y3772080D02*
G01X-641170Y3772520D01*
G01X-641170Y3772520D02*
G01X-642020Y3773000D01*
G01X-642020Y3773000D02*
G01X-642840Y3773510D01*
G01X-642840Y3773510D02*
G01X-643650Y3774050D01*
G01X-643650Y3774050D02*
G01X-644430Y3774630D01*
G01X-644430Y3774630D02*
G01X-645180Y3775240D01*
G01X-645180Y3775240D02*
G01X-645910Y3775870D01*
G01X-645910Y3775870D02*
G01X-646620Y3776540D01*
G01X-646620Y3776540D02*
G01X-647290Y3777240D01*
G01X-647290Y3777240D02*
G01X-647940Y3777960D01*
G01X-647940Y3777960D02*
G01X-648550Y3778710D01*
G01X-648550Y3778710D02*
G01X-649140Y3779490D01*
G01X-649140Y3779490D02*
G01X-649690Y3780280D01*
G01X-649690Y3780280D02*
G01X-650210Y3781100D01*
G01X-650210Y3781100D02*
G01X-650690Y3781940D01*
G01X-650690Y3781940D02*
G01X-651140Y3782800D01*
G01X-651140Y3782800D02*
G01X-651560Y3783680D01*
G01X-651560Y3783680D02*
G01X-651940Y3784570D01*
G01X-651940Y3784570D02*
G01X-652280Y3785480D01*
G01X-652280Y3785480D02*
G01X-652580Y3786400D01*
G01X-652580Y3786400D02*
G01X-652850Y3787330D01*
G01X-652850Y3787330D02*
G01X-653070Y3788280D01*
G01X-653070Y3788280D02*
G01X-653260Y3789230D01*
G01X-653260Y3789230D02*
G01X-653410Y3790190D01*
G01X-653410Y3790190D02*
G01X-653520Y3791150D01*
G01X-653520Y3791150D02*
G01X-653590Y3792120D01*
G01X-653590Y3792120D02*
G01X-653620Y3793090D01*
G01X-653620Y3793090D02*
G01X-653610Y3794060D01*
G01X-653610Y3794060D02*
G01X-653560Y3795030D01*
G01X-653560Y3795030D02*
G01X-653470Y3795990D01*
G01X-653470Y3795990D02*
G01X-653340Y3796950D01*
G01X-653340Y3796950D02*
G01X-653170Y3797910D01*
G01X-653170Y3797910D02*
G01X-652960Y3798860D01*
G01X-652960Y3798860D02*
G01X-652720Y3799790D01*
G01X-652720Y3799790D02*
G01X-652430Y3800720D01*
G01X-652430Y3800720D02*
G01X-652110Y3801640D01*
G01X-652110Y3801640D02*
G01X-651750Y3802540D01*
G01X-651750Y3802540D02*
G01X-651360Y3803420D01*
G01X-651360Y3803420D02*
G01X-650920Y3804290D01*
G01X-650920Y3804290D02*
G01X-650460Y3805140D01*
G01X-650460Y3805140D02*
G01X-649950Y3805970D01*
G01X-649950Y3805970D02*
G01X-649420Y3806780D01*
G01X-649420Y3806780D02*
G01X-648850Y3807560D01*
G01X-648850Y3807560D02*
G01X-648250Y3808330D01*
G01X-648250Y3808330D02*
G01X-647620Y3809060D01*
G01X-647620Y3809060D02*
G01X-646960Y3809770D01*
G01X-646960Y3809770D02*
G01X-646270Y3810450D01*
G01X-646270Y3810450D02*
G01X-645550Y3811110D01*
G01X-645550Y3811110D02*
G01X-644810Y3811730D01*
G01X-644810Y3811730D02*
G01X-644040Y3812320D01*
G01X-644040Y3812320D02*
G01X-643250Y3812880D01*
G01X-643250Y3812880D02*
G01X-642430Y3813410D01*
G01X-642430Y3813410D02*
G01X-641600Y3813910D01*
G01X-641600Y3813910D02*
G01X-640740Y3814360D01*
G01X-640740Y3814360D02*
G01X-639870Y3814790D01*
G01X-639870Y3814790D02*
G01X-638980Y3815180D01*
G01X-638980Y3815180D02*
G01X-638080Y3815530D01*
G01X-638080Y3815530D02*
G01X-637160Y3815840D01*
G01X-637160Y3815840D02*
G01X-636230Y3816110D01*
G01X-636230Y3816110D02*
G01X-635290Y3816350D01*
G01X-635290Y3816350D02*
G01X-634340Y3816550D01*
G01X-634340Y3816550D02*
G01X-633380Y3816710D01*
G01X-633380Y3816710D02*
G01X-632420Y3816830D01*
G01X-632420Y3816830D02*
G01X-631450Y3816910D01*
G01X-631450Y3816910D02*
G01X-630480Y3816950D01*
G01X-630480Y3816950D02*
G01X-629520Y3816950D01*
G01X-629520Y3816950D02*
G01X-628550Y3816910D01*
G01X-628550Y3816910D02*
G01X-627580Y3816830D01*
G01X-627580Y3816830D02*
G01X-626620Y3816710D01*
G01X-626620Y3816710D02*
G01X-625660Y3816550D01*
G01X-625660Y3816550D02*
G01X-624710Y3816350D01*
G01X-624710Y3816350D02*
G01X-623770Y3816110D01*
G01X-623770Y3816110D02*
G01X-622840Y3815840D01*
G01X-622840Y3815840D02*
G01X-621920Y3815530D01*
G01X-621920Y3815530D02*
G01X-621020Y3815180D01*
G01X-621020Y3815180D02*
G01X-620130Y3814790D01*
G01X-620130Y3814790D02*
G01X-619260Y3814360D01*
G01X-619260Y3814360D02*
G01X-618400Y3813910D01*
G01X-618400Y3813910D02*
G01X-617570Y3813410D01*
G01X-617570Y3813410D02*
G01X-616750Y3812880D01*
G01X-616750Y3812880D02*
G01X-615960Y3812320D01*
G01X-615960Y3812320D02*
G01X-615190Y3811730D01*
G01X-615190Y3811730D02*
G01X-614450Y3811110D01*
G01X-614450Y3811110D02*
G01X-613730Y3810450D01*
G01X-613730Y3810450D02*
G01X-613040Y3809770D01*
G01X-613040Y3809770D02*
G01X-612380Y3809060D01*
G01X-612380Y3809060D02*
G01X-611750Y3808330D01*
G01X-611750Y3808330D02*
G01X-611150Y3807560D01*
G01X-611150Y3807560D02*
G01X-610580Y3806780D01*
G01X-610580Y3806780D02*
G01X-610050Y3805970D01*
G01X-610050Y3805970D02*
G01X-609540Y3805140D01*
G01X-609540Y3805140D02*
G01X-609080Y3804290D01*
G01X-609080Y3804290D02*
G01X-608640Y3803420D01*
G01X-608640Y3803420D02*
G01X-608250Y3802540D01*
G01X-608250Y3802540D02*
G01X-607890Y3801640D01*
G01X-607890Y3801640D02*
G01X-607570Y3800720D01*
G01X-607570Y3800720D02*
G01X-607280Y3799790D01*
G01X-607280Y3799790D02*
G01X-607040Y3798860D01*
G01X-607040Y3798860D02*
G01X-606830Y3797910D01*
G01X-606830Y3797910D02*
G01X-606660Y3796950D01*
G01X-606660Y3796950D02*
G01X-606530Y3795990D01*
G01X-606530Y3795990D02*
G01X-606440Y3795030D01*
G01X-606440Y3795030D02*
G01X-606390Y3794060D01*
G01X-606390Y3794060D02*
G01X-606380Y3793090D01*
G01X-606380Y3793090D02*
G01X-606410Y3792120D01*
G01X-606410Y3792120D02*
G01X-606480Y3791150D01*
G01X-606480Y3791150D02*
G01X-606590Y3790190D01*
G01X-606590Y3790190D02*
G01X-606740Y3789230D01*
G01X-606740Y3789230D02*
G01X-606930Y3788280D01*
G01X-606930Y3788280D02*
G01X-607150Y3787330D01*
G01X-607150Y3787330D02*
G01X-607420Y3786400D01*
G01X-607420Y3786400D02*
G01X-607720Y3785480D01*
G01X-607720Y3785480D02*
G01X-608060Y3784570D01*
G01X-608060Y3784570D02*
G01X-608440Y3783680D01*
G01X-608440Y3783680D02*
G01X-608860Y3782800D01*
G01X-608860Y3782800D02*
G01X-609310Y3781940D01*
G01X-609310Y3781940D02*
G01X-609790Y3781100D01*
G01X-609790Y3781100D02*
G01X-610310Y3780280D01*
G01X-610310Y3780280D02*
G01X-610860Y3779490D01*
G01X-610860Y3779490D02*
G01X-611450Y3778710D01*
G01X-611450Y3778710D02*
G01X-612060Y3777960D01*
G01X-612060Y3777960D02*
G01X-612710Y3777240D01*
G01X-612710Y3777240D02*
G01X-613380Y3776540D01*
G01X-613380Y3776540D02*
G01X-614090Y3775870D01*
G01X-614090Y3775870D02*
G01X-614820Y3775240D01*
G01X-614820Y3775240D02*
G01X-615570Y3774630D01*
G01X-615570Y3774630D02*
G01X-616350Y3774050D01*
G01X-616350Y3774050D02*
G01X-617160Y3773510D01*
G01X-617160Y3773510D02*
G01X-617980Y3773000D01*
G01X-617980Y3773000D02*
G01X-618830Y3772520D01*
G01X-618830Y3772520D02*
G01X-619690Y3772080D01*
G01X-619690Y3772080D02*
G01X-620570Y3771670D01*
G01X-620570Y3771670D02*
G01X-621470Y3771310D01*
G01X-621470Y3771310D02*
G01X-622380Y3770970D01*
G01X-622380Y3770970D02*
G01X-623300Y3770680D01*
G01X-623300Y3770680D02*
G01X-624240Y3770420D01*
G01X-624240Y3770420D02*
G01X-625180Y3770210D01*
G01X-625180Y3770210D02*
G01X-626140Y3770030D01*
G01X-626140Y3770030D02*
G01X-627100Y3769890D01*
G01X-627100Y3769890D02*
G01X-628060Y3769790D01*
G01X-628060Y3769790D02*
G01X-629030Y3769730D01*
G01X-629030Y3769730D02*
G01X-630000Y3769710D01*
G01X-630000Y3869710D02*
G01X-630970Y3869730D01*
G01X-630970Y3869730D02*
G01X-631940Y3869790D01*
G01X-631940Y3869790D02*
G01X-632900Y3869890D01*
G01X-632900Y3869890D02*
G01X-633860Y3870030D01*
G01X-633860Y3870030D02*
G01X-634820Y3870210D01*
G01X-634820Y3870210D02*
G01X-635760Y3870420D01*
G01X-635760Y3870420D02*
G01X-636700Y3870680D01*
G01X-636700Y3870680D02*
G01X-637620Y3870970D01*
G01X-637620Y3870970D02*
G01X-638530Y3871310D01*
G01X-638530Y3871310D02*
G01X-639430Y3871670D01*
G01X-639430Y3871670D02*
G01X-640310Y3872080D01*
G01X-640310Y3872080D02*
G01X-641170Y3872520D01*
G01X-641170Y3872520D02*
G01X-642020Y3873000D01*
G01X-642020Y3873000D02*
G01X-642840Y3873510D01*
G01X-642840Y3873510D02*
G01X-643650Y3874050D01*
G01X-643650Y3874050D02*
G01X-644430Y3874630D01*
G01X-644430Y3874630D02*
G01X-645180Y3875240D01*
G01X-645180Y3875240D02*
G01X-645910Y3875870D01*
G01X-645910Y3875870D02*
G01X-646620Y3876540D01*
G01X-646620Y3876540D02*
G01X-647290Y3877240D01*
G01X-647290Y3877240D02*
G01X-647940Y3877960D01*
G01X-647940Y3877960D02*
G01X-648550Y3878710D01*
G01X-648550Y3878710D02*
G01X-649140Y3879490D01*
G01X-649140Y3879490D02*
G01X-649690Y3880280D01*
G01X-649690Y3880280D02*
G01X-650210Y3881100D01*
G01X-650210Y3881100D02*
G01X-650690Y3881940D01*
G01X-650690Y3881940D02*
G01X-651140Y3882800D01*
G01X-651140Y3882800D02*
G01X-651560Y3883680D01*
G01X-651560Y3883680D02*
G01X-651940Y3884570D01*
G01X-651940Y3884570D02*
G01X-652280Y3885480D01*
G01X-652280Y3885480D02*
G01X-652580Y3886400D01*
G01X-652580Y3886400D02*
G01X-652850Y3887330D01*
G01X-652850Y3887330D02*
G01X-653070Y3888280D01*
G01X-653070Y3888280D02*
G01X-653260Y3889230D01*
G01X-653260Y3889230D02*
G01X-653410Y3890190D01*
G01X-653410Y3890190D02*
G01X-653520Y3891150D01*
G01X-653520Y3891150D02*
G01X-653590Y3892120D01*
G01X-653590Y3892120D02*
G01X-653620Y3893090D01*
G01X-653620Y3893090D02*
G01X-653610Y3894060D01*
G01X-653610Y3894060D02*
G01X-653560Y3895030D01*
G01X-653560Y3895030D02*
G01X-653470Y3895990D01*
G01X-653470Y3895990D02*
G01X-653340Y3896950D01*
G01X-653340Y3896950D02*
G01X-653170Y3897910D01*
G01X-653170Y3897910D02*
G01X-652960Y3898860D01*
G01X-652960Y3898860D02*
G01X-652720Y3899790D01*
G01X-652720Y3899790D02*
G01X-652430Y3900720D01*
G01X-652430Y3900720D02*
G01X-652110Y3901640D01*
G01X-652110Y3901640D02*
G01X-651750Y3902540D01*
G01X-651750Y3902540D02*
G01X-651360Y3903420D01*
G01X-651360Y3903420D02*
G01X-650920Y3904290D01*
G01X-650920Y3904290D02*
G01X-650460Y3905140D01*
G01X-650460Y3905140D02*
G01X-649950Y3905970D01*
G01X-649950Y3905970D02*
G01X-649420Y3906780D01*
G01X-649420Y3906780D02*
G01X-648850Y3907560D01*
G01X-648850Y3907560D02*
G01X-648250Y3908330D01*
G01X-648250Y3908330D02*
G01X-647620Y3909060D01*
G01X-647620Y3909060D02*
G01X-646960Y3909770D01*
G01X-646960Y3909770D02*
G01X-646270Y3910450D01*
G01X-646270Y3910450D02*
G01X-645550Y3911110D01*
G01X-645550Y3911110D02*
G01X-644810Y3911730D01*
G01X-644810Y3911730D02*
G01X-644040Y3912320D01*
G01X-644040Y3912320D02*
G01X-643250Y3912880D01*
G01X-643250Y3912880D02*
G01X-642430Y3913410D01*
G01X-642430Y3913410D02*
G01X-641600Y3913910D01*
G01X-641600Y3913910D02*
G01X-640740Y3914360D01*
G01X-640740Y3914360D02*
G01X-639870Y3914790D01*
G01X-639870Y3914790D02*
G01X-638980Y3915180D01*
G01X-638980Y3915180D02*
G01X-638080Y3915530D01*
G01X-638080Y3915530D02*
G01X-637160Y3915840D01*
G01X-637160Y3915840D02*
G01X-636230Y3916110D01*
G01X-636230Y3916110D02*
G01X-635290Y3916350D01*
G01X-635290Y3916350D02*
G01X-634340Y3916550D01*
G01X-634340Y3916550D02*
G01X-633380Y3916710D01*
G01X-633380Y3916710D02*
G01X-632420Y3916830D01*
G01X-632420Y3916830D02*
G01X-631450Y3916910D01*
G01X-631450Y3916910D02*
G01X-630480Y3916950D01*
G01X-630480Y3916950D02*
G01X-629520Y3916950D01*
G01X-629520Y3916950D02*
G01X-628550Y3916910D01*
G01X-628550Y3916910D02*
G01X-627580Y3916830D01*
G01X-627580Y3916830D02*
G01X-626620Y3916710D01*
G01X-626620Y3916710D02*
G01X-625660Y3916550D01*
G01X-625660Y3916550D02*
G01X-624710Y3916350D01*
G01X-624710Y3916350D02*
G01X-623770Y3916110D01*
G01X-623770Y3916110D02*
G01X-622840Y3915840D01*
G01X-622840Y3915840D02*
G01X-621920Y3915530D01*
G01X-621920Y3915530D02*
G01X-621020Y3915180D01*
G01X-621020Y3915180D02*
G01X-620130Y3914790D01*
G01X-620130Y3914790D02*
G01X-619260Y3914360D01*
G01X-619260Y3914360D02*
G01X-618400Y3913910D01*
G01X-618400Y3913910D02*
G01X-617570Y3913410D01*
G01X-617570Y3913410D02*
G01X-616750Y3912880D01*
G01X-616750Y3912880D02*
G01X-615960Y3912320D01*
G01X-615960Y3912320D02*
G01X-615190Y3911730D01*
G01X-615190Y3911730D02*
G01X-614450Y3911110D01*
G01X-614450Y3911110D02*
G01X-613730Y3910450D01*
G01X-613730Y3910450D02*
G01X-613040Y3909770D01*
G01X-613040Y3909770D02*
G01X-612380Y3909060D01*
G01X-612380Y3909060D02*
G01X-611750Y3908330D01*
G01X-611750Y3908330D02*
G01X-611150Y3907560D01*
G01X-611150Y3907560D02*
G01X-610580Y3906780D01*
G01X-610580Y3906780D02*
G01X-610050Y3905970D01*
G01X-610050Y3905970D02*
G01X-609540Y3905140D01*
G01X-609540Y3905140D02*
G01X-609080Y3904290D01*
G01X-609080Y3904290D02*
G01X-608640Y3903420D01*
G01X-608640Y3903420D02*
G01X-608250Y3902540D01*
G01X-608250Y3902540D02*
G01X-607890Y3901640D01*
G01X-607890Y3901640D02*
G01X-607570Y3900720D01*
G01X-607570Y3900720D02*
G01X-607280Y3899790D01*
G01X-607280Y3899790D02*
G01X-607040Y3898860D01*
G01X-607040Y3898860D02*
G01X-606830Y3897910D01*
G01X-606830Y3897910D02*
G01X-606660Y3896950D01*
G01X-606660Y3896950D02*
G01X-606530Y3895990D01*
G01X-606530Y3895990D02*
G01X-606440Y3895030D01*
G01X-606440Y3895030D02*
G01X-606390Y3894060D01*
G01X-606390Y3894060D02*
G01X-606380Y3893090D01*
G01X-606380Y3893090D02*
G01X-606410Y3892120D01*
G01X-606410Y3892120D02*
G01X-606480Y3891150D01*
G01X-606480Y3891150D02*
G01X-606590Y3890190D01*
G01X-606590Y3890190D02*
G01X-606740Y3889230D01*
G01X-606740Y3889230D02*
G01X-606930Y3888280D01*
G01X-606930Y3888280D02*
G01X-607150Y3887330D01*
G01X-607150Y3887330D02*
G01X-607420Y3886400D01*
G01X-607420Y3886400D02*
G01X-607720Y3885480D01*
G01X-607720Y3885480D02*
G01X-608060Y3884570D01*
G01X-608060Y3884570D02*
G01X-608440Y3883680D01*
G01X-608440Y3883680D02*
G01X-608860Y3882800D01*
G01X-608860Y3882800D02*
G01X-609310Y3881940D01*
G01X-609310Y3881940D02*
G01X-609790Y3881100D01*
G01X-609790Y3881100D02*
G01X-610310Y3880280D01*
G01X-610310Y3880280D02*
G01X-610860Y3879490D01*
G01X-610860Y3879490D02*
G01X-611450Y3878710D01*
G01X-611450Y3878710D02*
G01X-612060Y3877960D01*
G01X-612060Y3877960D02*
G01X-612710Y3877240D01*
G01X-612710Y3877240D02*
G01X-613380Y3876540D01*
G01X-613380Y3876540D02*
G01X-614090Y3875870D01*
G01X-614090Y3875870D02*
G01X-614820Y3875240D01*
G01X-614820Y3875240D02*
G01X-615570Y3874630D01*
G01X-615570Y3874630D02*
G01X-616350Y3874050D01*
G01X-616350Y3874050D02*
G01X-617160Y3873510D01*
G01X-617160Y3873510D02*
G01X-617980Y3873000D01*
G01X-617980Y3873000D02*
G01X-618830Y3872520D01*
G01X-618830Y3872520D02*
G01X-619690Y3872080D01*
G01X-619690Y3872080D02*
G01X-620570Y3871670D01*
G01X-620570Y3871670D02*
G01X-621470Y3871310D01*
G01X-621470Y3871310D02*
G01X-622380Y3870970D01*
G01X-622380Y3870970D02*
G01X-623300Y3870680D01*
G01X-623300Y3870680D02*
G01X-624240Y3870420D01*
G01X-624240Y3870420D02*
G01X-625180Y3870210D01*
G01X-625180Y3870210D02*
G01X-626140Y3870030D01*
G01X-626140Y3870030D02*
G01X-627100Y3869890D01*
G01X-627100Y3869890D02*
G01X-628060Y3869790D01*
G01X-628060Y3869790D02*
G01X-629030Y3869730D01*
G01X-629030Y3869730D02*
G01X-630000Y3869710D01*
G01X-2280000Y3869710D02*
G01X-2280970Y3869730D01*
G01X-2280970Y3869730D02*
G01X-2281940Y3869790D01*
G01X-2281940Y3869790D02*
G01X-2282900Y3869890D01*
G01X-2282900Y3869890D02*
G01X-2283860Y3870030D01*
G01X-2283860Y3870030D02*
G01X-2284820Y3870210D01*
G01X-2284820Y3870210D02*
G01X-2285760Y3870420D01*
G01X-2285760Y3870420D02*
G01X-2286700Y3870680D01*
G01X-2286700Y3870680D02*
G01X-2287620Y3870970D01*
G01X-2287620Y3870970D02*
G01X-2288530Y3871310D01*
G01X-2288530Y3871310D02*
G01X-2289430Y3871670D01*
G01X-2289430Y3871670D02*
G01X-2290310Y3872080D01*
G01X-2290310Y3872080D02*
G01X-2291170Y3872520D01*
G01X-2291170Y3872520D02*
G01X-2292020Y3873000D01*
G01X-2292020Y3873000D02*
G01X-2292840Y3873510D01*
G01X-2292840Y3873510D02*
G01X-2293650Y3874050D01*
G01X-2293650Y3874050D02*
G01X-2294430Y3874630D01*
G01X-2294430Y3874630D02*
G01X-2295180Y3875240D01*
G01X-2295180Y3875240D02*
G01X-2295910Y3875870D01*
G01X-2295910Y3875870D02*
G01X-2296620Y3876540D01*
G01X-2296620Y3876540D02*
G01X-2297290Y3877240D01*
G01X-2297290Y3877240D02*
G01X-2297940Y3877960D01*
G01X-2297940Y3877960D02*
G01X-2298550Y3878710D01*
G01X-2298550Y3878710D02*
G01X-2299140Y3879490D01*
G01X-2299140Y3879490D02*
G01X-2299690Y3880280D01*
G01X-2299690Y3880280D02*
G01X-2300210Y3881100D01*
G01X-2300210Y3881100D02*
G01X-2300690Y3881940D01*
G01X-2300690Y3881940D02*
G01X-2301140Y3882800D01*
G01X-2301140Y3882800D02*
G01X-2301560Y3883680D01*
G01X-2301560Y3883680D02*
G01X-2301940Y3884570D01*
G01X-2301940Y3884570D02*
G01X-2302280Y3885480D01*
G01X-2302280Y3885480D02*
G01X-2302580Y3886400D01*
G01X-2302580Y3886400D02*
G01X-2302850Y3887330D01*
G01X-2302850Y3887330D02*
G01X-2303070Y3888280D01*
G01X-2303070Y3888280D02*
G01X-2303260Y3889230D01*
G01X-2303260Y3889230D02*
G01X-2303410Y3890190D01*
G01X-2303410Y3890190D02*
G01X-2303520Y3891150D01*
G01X-2303520Y3891150D02*
G01X-2303590Y3892120D01*
G01X-2303590Y3892120D02*
G01X-2303620Y3893090D01*
G01X-2303620Y3893090D02*
G01X-2303610Y3894060D01*
G01X-2303610Y3894060D02*
G01X-2303560Y3895030D01*
G01X-2303560Y3895030D02*
G01X-2303470Y3895990D01*
G01X-2303470Y3895990D02*
G01X-2303340Y3896950D01*
G01X-2303340Y3896950D02*
G01X-2303170Y3897910D01*
G01X-2303170Y3897910D02*
G01X-2302960Y3898860D01*
G01X-2302960Y3898860D02*
G01X-2302720Y3899790D01*
G01X-2302720Y3899790D02*
G01X-2302430Y3900720D01*
G01X-2302430Y3900720D02*
G01X-2302110Y3901640D01*
G01X-2302110Y3901640D02*
G01X-2301750Y3902540D01*
G01X-2301750Y3902540D02*
G01X-2301360Y3903420D01*
G01X-2301360Y3903420D02*
G01X-2300920Y3904290D01*
G01X-2300920Y3904290D02*
G01X-2300460Y3905140D01*
G01X-2300460Y3905140D02*
G01X-2299950Y3905970D01*
G01X-2299950Y3905970D02*
G01X-2299420Y3906780D01*
G01X-2299420Y3906780D02*
G01X-2298850Y3907560D01*
G01X-2298850Y3907560D02*
G01X-2298250Y3908330D01*
G01X-2298250Y3908330D02*
G01X-2297620Y3909060D01*
G01X-2297620Y3909060D02*
G01X-2296960Y3909770D01*
G01X-2296960Y3909770D02*
G01X-2296270Y3910450D01*
G01X-2296270Y3910450D02*
G01X-2295550Y3911110D01*
G01X-2295550Y3911110D02*
G01X-2294810Y3911730D01*
G01X-2294810Y3911730D02*
G01X-2294040Y3912320D01*
G01X-2294040Y3912320D02*
G01X-2293250Y3912880D01*
G01X-2293250Y3912880D02*
G01X-2292430Y3913410D01*
G01X-2292430Y3913410D02*
G01X-2291600Y3913910D01*
G01X-2291600Y3913910D02*
G01X-2290740Y3914360D01*
G01X-2290740Y3914360D02*
G01X-2289870Y3914790D01*
G01X-2289870Y3914790D02*
G01X-2288980Y3915180D01*
G01X-2288980Y3915180D02*
G01X-2288080Y3915530D01*
G01X-2288080Y3915530D02*
G01X-2287160Y3915840D01*
G01X-2287160Y3915840D02*
G01X-2286230Y3916110D01*
G01X-2286230Y3916110D02*
G01X-2285290Y3916350D01*
G01X-2285290Y3916350D02*
G01X-2284340Y3916550D01*
G01X-2284340Y3916550D02*
G01X-2283380Y3916710D01*
G01X-2283380Y3916710D02*
G01X-2282420Y3916830D01*
G01X-2282420Y3916830D02*
G01X-2281450Y3916910D01*
G01X-2281450Y3916910D02*
G01X-2280480Y3916950D01*
G01X-2280480Y3916950D02*
G01X-2279520Y3916950D01*
G01X-2279520Y3916950D02*
G01X-2278550Y3916910D01*
G01X-2278550Y3916910D02*
G01X-2277580Y3916830D01*
G01X-2277580Y3916830D02*
G01X-2276620Y3916710D01*
G01X-2276620Y3916710D02*
G01X-2275660Y3916550D01*
G01X-2275660Y3916550D02*
G01X-2274710Y3916350D01*
G01X-2274710Y3916350D02*
G01X-2273770Y3916110D01*
G01X-2273770Y3916110D02*
G01X-2272840Y3915840D01*
G01X-2272840Y3915840D02*
G01X-2271920Y3915530D01*
G01X-2271920Y3915530D02*
G01X-2271020Y3915180D01*
G01X-2271020Y3915180D02*
G01X-2270130Y3914790D01*
G01X-2270130Y3914790D02*
G01X-2269260Y3914360D01*
G01X-2269260Y3914360D02*
G01X-2268400Y3913910D01*
G01X-2268400Y3913910D02*
G01X-2267570Y3913410D01*
G01X-2267570Y3913410D02*
G01X-2266750Y3912880D01*
G01X-2266750Y3912880D02*
G01X-2265960Y3912320D01*
G01X-2265960Y3912320D02*
G01X-2265190Y3911730D01*
G01X-2265190Y3911730D02*
G01X-2264450Y3911110D01*
G01X-2264450Y3911110D02*
G01X-2263730Y3910450D01*
G01X-2263730Y3910450D02*
G01X-2263040Y3909770D01*
G01X-2263040Y3909770D02*
G01X-2262380Y3909060D01*
G01X-2262380Y3909060D02*
G01X-2261750Y3908330D01*
G01X-2261750Y3908330D02*
G01X-2261150Y3907560D01*
G01X-2261150Y3907560D02*
G01X-2260580Y3906780D01*
G01X-2260580Y3906780D02*
G01X-2260050Y3905970D01*
G01X-2260050Y3905970D02*
G01X-2259540Y3905140D01*
G01X-2259540Y3905140D02*
G01X-2259080Y3904290D01*
G01X-2259080Y3904290D02*
G01X-2258640Y3903420D01*
G01X-2258640Y3903420D02*
G01X-2258250Y3902540D01*
G01X-2258250Y3902540D02*
G01X-2257890Y3901640D01*
G01X-2257890Y3901640D02*
G01X-2257570Y3900720D01*
G01X-2257570Y3900720D02*
G01X-2257280Y3899790D01*
G01X-2257280Y3899790D02*
G01X-2257040Y3898860D01*
G01X-2257040Y3898860D02*
G01X-2256830Y3897910D01*
G01X-2256830Y3897910D02*
G01X-2256660Y3896950D01*
G01X-2256660Y3896950D02*
G01X-2256530Y3895990D01*
G01X-2256530Y3895990D02*
G01X-2256440Y3895030D01*
G01X-2256440Y3895030D02*
G01X-2256390Y3894060D01*
G01X-2256390Y3894060D02*
G01X-2256380Y3893090D01*
G01X-2256380Y3893090D02*
G01X-2256410Y3892120D01*
G01X-2256410Y3892120D02*
G01X-2256480Y3891150D01*
G01X-2256480Y3891150D02*
G01X-2256590Y3890190D01*
G01X-2256590Y3890190D02*
G01X-2256740Y3889230D01*
G01X-2256740Y3889230D02*
G01X-2256930Y3888280D01*
G01X-2256930Y3888280D02*
G01X-2257150Y3887330D01*
G01X-2257150Y3887330D02*
G01X-2257420Y3886400D01*
G01X-2257420Y3886400D02*
G01X-2257720Y3885480D01*
G01X-2257720Y3885480D02*
G01X-2258060Y3884570D01*
G01X-2258060Y3884570D02*
G01X-2258440Y3883680D01*
G01X-2258440Y3883680D02*
G01X-2258860Y3882800D01*
G01X-2258860Y3882800D02*
G01X-2259310Y3881940D01*
G01X-2259310Y3881940D02*
G01X-2259790Y3881100D01*
G01X-2259790Y3881100D02*
G01X-2260310Y3880280D01*
G01X-2260310Y3880280D02*
G01X-2260860Y3879490D01*
G01X-2260860Y3879490D02*
G01X-2261450Y3878710D01*
G01X-2261450Y3878710D02*
G01X-2262060Y3877960D01*
G01X-2262060Y3877960D02*
G01X-2262710Y3877240D01*
G01X-2262710Y3877240D02*
G01X-2263380Y3876540D01*
G01X-2263380Y3876540D02*
G01X-2264090Y3875870D01*
G01X-2264090Y3875870D02*
G01X-2264820Y3875240D01*
G01X-2264820Y3875240D02*
G01X-2265570Y3874630D01*
G01X-2265570Y3874630D02*
G01X-2266350Y3874050D01*
G01X-2266350Y3874050D02*
G01X-2267160Y3873510D01*
G01X-2267160Y3873510D02*
G01X-2267980Y3873000D01*
G01X-2267980Y3873000D02*
G01X-2268830Y3872520D01*
G01X-2268830Y3872520D02*
G01X-2269690Y3872080D01*
G01X-2269690Y3872080D02*
G01X-2270570Y3871670D01*
G01X-2270570Y3871670D02*
G01X-2271470Y3871310D01*
G01X-2271470Y3871310D02*
G01X-2272380Y3870970D01*
G01X-2272380Y3870970D02*
G01X-2273300Y3870680D01*
G01X-2273300Y3870680D02*
G01X-2274240Y3870420D01*
G01X-2274240Y3870420D02*
G01X-2275180Y3870210D01*
G01X-2275180Y3870210D02*
G01X-2276140Y3870030D01*
G01X-2276140Y3870030D02*
G01X-2277100Y3869890D01*
G01X-2277100Y3869890D02*
G01X-2278060Y3869790D01*
G01X-2278060Y3869790D02*
G01X-2279030Y3869730D01*
G01X-2279030Y3869730D02*
G01X-2280000Y3869710D01*
G01X-2280000Y3769710D02*
G01X-2280970Y3769730D01*
G01X-2280970Y3769730D02*
G01X-2281940Y3769790D01*
G01X-2281940Y3769790D02*
G01X-2282900Y3769890D01*
G01X-2282900Y3769890D02*
G01X-2283860Y3770030D01*
G01X-2283860Y3770030D02*
G01X-2284820Y3770210D01*
G01X-2284820Y3770210D02*
G01X-2285760Y3770420D01*
G01X-2285760Y3770420D02*
G01X-2286700Y3770680D01*
G01X-2286700Y3770680D02*
G01X-2287620Y3770970D01*
G01X-2287620Y3770970D02*
G01X-2288530Y3771310D01*
G01X-2288530Y3771310D02*
G01X-2289430Y3771670D01*
G01X-2289430Y3771670D02*
G01X-2290310Y3772080D01*
G01X-2290310Y3772080D02*
G01X-2291170Y3772520D01*
G01X-2291170Y3772520D02*
G01X-2292020Y3773000D01*
G01X-2292020Y3773000D02*
G01X-2292840Y3773510D01*
G01X-2292840Y3773510D02*
G01X-2293650Y3774050D01*
G01X-2293650Y3774050D02*
G01X-2294430Y3774630D01*
G01X-2294430Y3774630D02*
G01X-2295180Y3775240D01*
G01X-2295180Y3775240D02*
G01X-2295910Y3775870D01*
G01X-2295910Y3775870D02*
G01X-2296620Y3776540D01*
G01X-2296620Y3776540D02*
G01X-2297290Y3777240D01*
G01X-2297290Y3777240D02*
G01X-2297940Y3777960D01*
G01X-2297940Y3777960D02*
G01X-2298550Y3778710D01*
G01X-2298550Y3778710D02*
G01X-2299140Y3779490D01*
G01X-2299140Y3779490D02*
G01X-2299690Y3780280D01*
G01X-2299690Y3780280D02*
G01X-2300210Y3781100D01*
G01X-2300210Y3781100D02*
G01X-2300690Y3781940D01*
G01X-2300690Y3781940D02*
G01X-2301140Y3782800D01*
G01X-2301140Y3782800D02*
G01X-2301560Y3783680D01*
G01X-2301560Y3783680D02*
G01X-2301940Y3784570D01*
G01X-2301940Y3784570D02*
G01X-2302280Y3785480D01*
G01X-2302280Y3785480D02*
G01X-2302580Y3786400D01*
G01X-2302580Y3786400D02*
G01X-2302850Y3787330D01*
G01X-2302850Y3787330D02*
G01X-2303070Y3788280D01*
G01X-2303070Y3788280D02*
G01X-2303260Y3789230D01*
G01X-2303260Y3789230D02*
G01X-2303410Y3790190D01*
G01X-2303410Y3790190D02*
G01X-2303520Y3791150D01*
G01X-2303520Y3791150D02*
G01X-2303590Y3792120D01*
G01X-2303590Y3792120D02*
G01X-2303620Y3793090D01*
G01X-2303620Y3793090D02*
G01X-2303610Y3794060D01*
G01X-2303610Y3794060D02*
G01X-2303560Y3795030D01*
G01X-2303560Y3795030D02*
G01X-2303470Y3795990D01*
G01X-2303470Y3795990D02*
G01X-2303340Y3796950D01*
G01X-2303340Y3796950D02*
G01X-2303170Y3797910D01*
G01X-2303170Y3797910D02*
G01X-2302960Y3798860D01*
G01X-2302960Y3798860D02*
G01X-2302720Y3799790D01*
G01X-2302720Y3799790D02*
G01X-2302430Y3800720D01*
G01X-2302430Y3800720D02*
G01X-2302110Y3801640D01*
G01X-2302110Y3801640D02*
G01X-2301750Y3802540D01*
G01X-2301750Y3802540D02*
G01X-2301360Y3803420D01*
G01X-2301360Y3803420D02*
G01X-2300920Y3804290D01*
G01X-2300920Y3804290D02*
G01X-2300460Y3805140D01*
G01X-2300460Y3805140D02*
G01X-2299950Y3805970D01*
G01X-2299950Y3805970D02*
G01X-2299420Y3806780D01*
G01X-2299420Y3806780D02*
G01X-2298850Y3807560D01*
G01X-2298850Y3807560D02*
G01X-2298250Y3808330D01*
G01X-2298250Y3808330D02*
G01X-2297620Y3809060D01*
G01X-2297620Y3809060D02*
G01X-2296960Y3809770D01*
G01X-2296960Y3809770D02*
G01X-2296270Y3810450D01*
G01X-2296270Y3810450D02*
G01X-2295550Y3811110D01*
G01X-2295550Y3811110D02*
G01X-2294810Y3811730D01*
G01X-2294810Y3811730D02*
G01X-2294040Y3812320D01*
G01X-2294040Y3812320D02*
G01X-2293250Y3812880D01*
G01X-2293250Y3812880D02*
G01X-2292430Y3813410D01*
G01X-2292430Y3813410D02*
G01X-2291600Y3813910D01*
G01X-2291600Y3813910D02*
G01X-2290740Y3814360D01*
G01X-2290740Y3814360D02*
G01X-2289870Y3814790D01*
G01X-2289870Y3814790D02*
G01X-2288980Y3815180D01*
G01X-2288980Y3815180D02*
G01X-2288080Y3815530D01*
G01X-2288080Y3815530D02*
G01X-2287160Y3815840D01*
G01X-2287160Y3815840D02*
G01X-2286230Y3816110D01*
G01X-2286230Y3816110D02*
G01X-2285290Y3816350D01*
G01X-2285290Y3816350D02*
G01X-2284340Y3816550D01*
G01X-2284340Y3816550D02*
G01X-2283380Y3816710D01*
G01X-2283380Y3816710D02*
G01X-2282420Y3816830D01*
G01X-2282420Y3816830D02*
G01X-2281450Y3816910D01*
G01X-2281450Y3816910D02*
G01X-2280480Y3816950D01*
G01X-2280480Y3816950D02*
G01X-2279520Y3816950D01*
G01X-2279520Y3816950D02*
G01X-2278550Y3816910D01*
G01X-2278550Y3816910D02*
G01X-2277580Y3816830D01*
G01X-2277580Y3816830D02*
G01X-2276620Y3816710D01*
G01X-2276620Y3816710D02*
G01X-2275660Y3816550D01*
G01X-2275660Y3816550D02*
G01X-2274710Y3816350D01*
G01X-2274710Y3816350D02*
G01X-2273770Y3816110D01*
G01X-2273770Y3816110D02*
G01X-2272840Y3815840D01*
G01X-2272840Y3815840D02*
G01X-2271920Y3815530D01*
G01X-2271920Y3815530D02*
G01X-2271020Y3815180D01*
G01X-2271020Y3815180D02*
G01X-2270130Y3814790D01*
G01X-2270130Y3814790D02*
G01X-2269260Y3814360D01*
G01X-2269260Y3814360D02*
G01X-2268400Y3813910D01*
G01X-2268400Y3813910D02*
G01X-2267570Y3813410D01*
G01X-2267570Y3813410D02*
G01X-2266750Y3812880D01*
G01X-2266750Y3812880D02*
G01X-2265960Y3812320D01*
G01X-2265960Y3812320D02*
G01X-2265190Y3811730D01*
G01X-2265190Y3811730D02*
G01X-2264450Y3811110D01*
G01X-2264450Y3811110D02*
G01X-2263730Y3810450D01*
G01X-2263730Y3810450D02*
G01X-2263040Y3809770D01*
G01X-2263040Y3809770D02*
G01X-2262380Y3809060D01*
G01X-2262380Y3809060D02*
G01X-2261750Y3808330D01*
G01X-2261750Y3808330D02*
G01X-2261150Y3807560D01*
G01X-2261150Y3807560D02*
G01X-2260580Y3806780D01*
G01X-2260580Y3806780D02*
G01X-2260050Y3805970D01*
G01X-2260050Y3805970D02*
G01X-2259540Y3805140D01*
G01X-2259540Y3805140D02*
G01X-2259080Y3804290D01*
G01X-2259080Y3804290D02*
G01X-2258640Y3803420D01*
G01X-2258640Y3803420D02*
G01X-2258250Y3802540D01*
G01X-2258250Y3802540D02*
G01X-2257890Y3801640D01*
G01X-2257890Y3801640D02*
G01X-2257570Y3800720D01*
G01X-2257570Y3800720D02*
G01X-2257280Y3799790D01*
G01X-2257280Y3799790D02*
G01X-2257040Y3798860D01*
G01X-2257040Y3798860D02*
G01X-2256830Y3797910D01*
G01X-2256830Y3797910D02*
G01X-2256660Y3796950D01*
G01X-2256660Y3796950D02*
G01X-2256530Y3795990D01*
G01X-2256530Y3795990D02*
G01X-2256440Y3795030D01*
G01X-2256440Y3795030D02*
G01X-2256390Y3794060D01*
G01X-2256390Y3794060D02*
G01X-2256380Y3793090D01*
G01X-2256380Y3793090D02*
G01X-2256410Y3792120D01*
G01X-2256410Y3792120D02*
G01X-2256480Y3791150D01*
G01X-2256480Y3791150D02*
G01X-2256590Y3790190D01*
G01X-2256590Y3790190D02*
G01X-2256740Y3789230D01*
G01X-2256740Y3789230D02*
G01X-2256930Y3788280D01*
G01X-2256930Y3788280D02*
G01X-2257150Y3787330D01*
G01X-2257150Y3787330D02*
G01X-2257420Y3786400D01*
G01X-2257420Y3786400D02*
G01X-2257720Y3785480D01*
G01X-2257720Y3785480D02*
G01X-2258060Y3784570D01*
G01X-2258060Y3784570D02*
G01X-2258440Y3783680D01*
G01X-2258440Y3783680D02*
G01X-2258860Y3782800D01*
G01X-2258860Y3782800D02*
G01X-2259310Y3781940D01*
G01X-2259310Y3781940D02*
G01X-2259790Y3781100D01*
G01X-2259790Y3781100D02*
G01X-2260310Y3780280D01*
G01X-2260310Y3780280D02*
G01X-2260860Y3779490D01*
G01X-2260860Y3779490D02*
G01X-2261450Y3778710D01*
G01X-2261450Y3778710D02*
G01X-2262060Y3777960D01*
G01X-2262060Y3777960D02*
G01X-2262710Y3777240D01*
G01X-2262710Y3777240D02*
G01X-2263380Y3776540D01*
G01X-2263380Y3776540D02*
G01X-2264090Y3775870D01*
G01X-2264090Y3775870D02*
G01X-2264820Y3775240D01*
G01X-2264820Y3775240D02*
G01X-2265570Y3774630D01*
G01X-2265570Y3774630D02*
G01X-2266350Y3774050D01*
G01X-2266350Y3774050D02*
G01X-2267160Y3773510D01*
G01X-2267160Y3773510D02*
G01X-2267980Y3773000D01*
G01X-2267980Y3773000D02*
G01X-2268830Y3772520D01*
G01X-2268830Y3772520D02*
G01X-2269690Y3772080D01*
G01X-2269690Y3772080D02*
G01X-2270570Y3771670D01*
G01X-2270570Y3771670D02*
G01X-2271470Y3771310D01*
G01X-2271470Y3771310D02*
G01X-2272380Y3770970D01*
G01X-2272380Y3770970D02*
G01X-2273300Y3770680D01*
G01X-2273300Y3770680D02*
G01X-2274240Y3770420D01*
G01X-2274240Y3770420D02*
G01X-2275180Y3770210D01*
G01X-2275180Y3770210D02*
G01X-2276140Y3770030D01*
G01X-2276140Y3770030D02*
G01X-2277100Y3769890D01*
G01X-2277100Y3769890D02*
G01X-2278060Y3769790D01*
G01X-2278060Y3769790D02*
G01X-2279030Y3769730D01*
G01X-2279030Y3769730D02*
G01X-2280000Y3769710D01*
G01X-2280000Y1819710D02*
G01X-2280970Y1819730D01*
G01X-2280970Y1819730D02*
G01X-2281940Y1819790D01*
G01X-2281940Y1819790D02*
G01X-2282900Y1819890D01*
G01X-2282900Y1819890D02*
G01X-2283860Y1820030D01*
G01X-2283860Y1820030D02*
G01X-2284820Y1820210D01*
G01X-2284820Y1820210D02*
G01X-2285760Y1820420D01*
G01X-2285760Y1820420D02*
G01X-2286700Y1820680D01*
G01X-2286700Y1820680D02*
G01X-2287620Y1820970D01*
G01X-2287620Y1820970D02*
G01X-2288530Y1821310D01*
G01X-2288530Y1821310D02*
G01X-2289430Y1821670D01*
G01X-2289430Y1821670D02*
G01X-2290310Y1822080D01*
G01X-2290310Y1822080D02*
G01X-2291170Y1822520D01*
G01X-2291170Y1822520D02*
G01X-2292020Y1823000D01*
G01X-2292020Y1823000D02*
G01X-2292840Y1823510D01*
G01X-2292840Y1823510D02*
G01X-2293650Y1824050D01*
G01X-2293650Y1824050D02*
G01X-2294430Y1824630D01*
G01X-2294430Y1824630D02*
G01X-2295180Y1825240D01*
G01X-2295180Y1825240D02*
G01X-2295910Y1825870D01*
G01X-2295910Y1825870D02*
G01X-2296620Y1826540D01*
G01X-2296620Y1826540D02*
G01X-2297290Y1827240D01*
G01X-2297290Y1827240D02*
G01X-2297940Y1827960D01*
G01X-2297940Y1827960D02*
G01X-2298550Y1828710D01*
G01X-2298550Y1828710D02*
G01X-2299140Y1829490D01*
G01X-2299140Y1829490D02*
G01X-2299690Y1830280D01*
G01X-2299690Y1830280D02*
G01X-2300210Y1831100D01*
G01X-2300210Y1831100D02*
G01X-2300690Y1831940D01*
G01X-2300690Y1831940D02*
G01X-2301140Y1832800D01*
G01X-2301140Y1832800D02*
G01X-2301560Y1833680D01*
G01X-2301560Y1833680D02*
G01X-2301940Y1834570D01*
G01X-2301940Y1834570D02*
G01X-2302280Y1835480D01*
G01X-2302280Y1835480D02*
G01X-2302580Y1836400D01*
G01X-2302580Y1836400D02*
G01X-2302850Y1837330D01*
G01X-2302850Y1837330D02*
G01X-2303070Y1838280D01*
G01X-2303070Y1838280D02*
G01X-2303260Y1839230D01*
G01X-2303260Y1839230D02*
G01X-2303410Y1840190D01*
G01X-2303410Y1840190D02*
G01X-2303520Y1841150D01*
G01X-2303520Y1841150D02*
G01X-2303590Y1842120D01*
G01X-2303590Y1842120D02*
G01X-2303620Y1843090D01*
G01X-2303620Y1843090D02*
G01X-2303610Y1844060D01*
G01X-2303610Y1844060D02*
G01X-2303560Y1845030D01*
G01X-2303560Y1845030D02*
G01X-2303470Y1845990D01*
G01X-2303470Y1845990D02*
G01X-2303340Y1846950D01*
G01X-2303340Y1846950D02*
G01X-2303170Y1847910D01*
G01X-2303170Y1847910D02*
G01X-2302960Y1848860D01*
G01X-2302960Y1848860D02*
G01X-2302720Y1849790D01*
G01X-2302720Y1849790D02*
G01X-2302430Y1850720D01*
G01X-2302430Y1850720D02*
G01X-2302110Y1851640D01*
G01X-2302110Y1851640D02*
G01X-2301750Y1852540D01*
G01X-2301750Y1852540D02*
G01X-2301360Y1853420D01*
G01X-2301360Y1853420D02*
G01X-2300920Y1854290D01*
G01X-2300920Y1854290D02*
G01X-2300460Y1855140D01*
G01X-2300460Y1855140D02*
G01X-2299950Y1855970D01*
G01X-2299950Y1855970D02*
G01X-2299420Y1856780D01*
G01X-2299420Y1856780D02*
G01X-2298850Y1857560D01*
G01X-2298850Y1857560D02*
G01X-2298250Y1858330D01*
G01X-2298250Y1858330D02*
G01X-2297620Y1859060D01*
G01X-2297620Y1859060D02*
G01X-2296960Y1859770D01*
G01X-2296960Y1859770D02*
G01X-2296270Y1860450D01*
G01X-2296270Y1860450D02*
G01X-2295550Y1861110D01*
G01X-2295550Y1861110D02*
G01X-2294810Y1861730D01*
G01X-2294810Y1861730D02*
G01X-2294040Y1862320D01*
G01X-2294040Y1862320D02*
G01X-2293250Y1862880D01*
G01X-2293250Y1862880D02*
G01X-2292430Y1863410D01*
G01X-2292430Y1863410D02*
G01X-2291600Y1863910D01*
G01X-2291600Y1863910D02*
G01X-2290740Y1864360D01*
G01X-2290740Y1864360D02*
G01X-2289870Y1864790D01*
G01X-2289870Y1864790D02*
G01X-2288980Y1865180D01*
G01X-2288980Y1865180D02*
G01X-2288080Y1865530D01*
G01X-2288080Y1865530D02*
G01X-2287160Y1865840D01*
G01X-2287160Y1865840D02*
G01X-2286230Y1866110D01*
G01X-2286230Y1866110D02*
G01X-2285290Y1866350D01*
G01X-2285290Y1866350D02*
G01X-2284340Y1866550D01*
G01X-2284340Y1866550D02*
G01X-2283380Y1866710D01*
G01X-2283380Y1866710D02*
G01X-2282420Y1866830D01*
G01X-2282420Y1866830D02*
G01X-2281450Y1866910D01*
G01X-2281450Y1866910D02*
G01X-2280480Y1866950D01*
G01X-2280480Y1866950D02*
G01X-2279520Y1866950D01*
G01X-2279520Y1866950D02*
G01X-2278550Y1866910D01*
G01X-2278550Y1866910D02*
G01X-2277580Y1866830D01*
G01X-2277580Y1866830D02*
G01X-2276620Y1866710D01*
G01X-2276620Y1866710D02*
G01X-2275660Y1866550D01*
G01X-2275660Y1866550D02*
G01X-2274710Y1866350D01*
G01X-2274710Y1866350D02*
G01X-2273770Y1866110D01*
G01X-2273770Y1866110D02*
G01X-2272840Y1865840D01*
G01X-2272840Y1865840D02*
G01X-2271920Y1865530D01*
G01X-2271920Y1865530D02*
G01X-2271020Y1865180D01*
G01X-2271020Y1865180D02*
G01X-2270130Y1864790D01*
G01X-2270130Y1864790D02*
G01X-2269260Y1864360D01*
G01X-2269260Y1864360D02*
G01X-2268400Y1863910D01*
G01X-2268400Y1863910D02*
G01X-2267570Y1863410D01*
G01X-2267570Y1863410D02*
G01X-2266750Y1862880D01*
G01X-2266750Y1862880D02*
G01X-2265960Y1862320D01*
G01X-2265960Y1862320D02*
G01X-2265190Y1861730D01*
G01X-2265190Y1861730D02*
G01X-2264450Y1861110D01*
G01X-2264450Y1861110D02*
G01X-2263730Y1860450D01*
G01X-2263730Y1860450D02*
G01X-2263040Y1859770D01*
G01X-2263040Y1859770D02*
G01X-2262380Y1859060D01*
G01X-2262380Y1859060D02*
G01X-2261750Y1858330D01*
G01X-2261750Y1858330D02*
G01X-2261150Y1857560D01*
G01X-2261150Y1857560D02*
G01X-2260580Y1856780D01*
G01X-2260580Y1856780D02*
G01X-2260050Y1855970D01*
G01X-2260050Y1855970D02*
G01X-2259540Y1855140D01*
G01X-2259540Y1855140D02*
G01X-2259080Y1854290D01*
G01X-2259080Y1854290D02*
G01X-2258640Y1853420D01*
G01X-2258640Y1853420D02*
G01X-2258250Y1852540D01*
G01X-2258250Y1852540D02*
G01X-2257890Y1851640D01*
G01X-2257890Y1851640D02*
G01X-2257570Y1850720D01*
G01X-2257570Y1850720D02*
G01X-2257280Y1849790D01*
G01X-2257280Y1849790D02*
G01X-2257040Y1848860D01*
G01X-2257040Y1848860D02*
G01X-2256830Y1847910D01*
G01X-2256830Y1847910D02*
G01X-2256660Y1846950D01*
G01X-2256660Y1846950D02*
G01X-2256530Y1845990D01*
G01X-2256530Y1845990D02*
G01X-2256440Y1845030D01*
G01X-2256440Y1845030D02*
G01X-2256390Y1844060D01*
G01X-2256390Y1844060D02*
G01X-2256380Y1843090D01*
G01X-2256380Y1843090D02*
G01X-2256410Y1842120D01*
G01X-2256410Y1842120D02*
G01X-2256480Y1841150D01*
G01X-2256480Y1841150D02*
G01X-2256590Y1840190D01*
G01X-2256590Y1840190D02*
G01X-2256740Y1839230D01*
G01X-2256740Y1839230D02*
G01X-2256930Y1838280D01*
G01X-2256930Y1838280D02*
G01X-2257150Y1837330D01*
G01X-2257150Y1837330D02*
G01X-2257420Y1836400D01*
G01X-2257420Y1836400D02*
G01X-2257720Y1835480D01*
G01X-2257720Y1835480D02*
G01X-2258060Y1834570D01*
G01X-2258060Y1834570D02*
G01X-2258440Y1833680D01*
G01X-2258440Y1833680D02*
G01X-2258860Y1832800D01*
G01X-2258860Y1832800D02*
G01X-2259310Y1831940D01*
G01X-2259310Y1831940D02*
G01X-2259790Y1831100D01*
G01X-2259790Y1831100D02*
G01X-2260310Y1830280D01*
G01X-2260310Y1830280D02*
G01X-2260860Y1829490D01*
G01X-2260860Y1829490D02*
G01X-2261450Y1828710D01*
G01X-2261450Y1828710D02*
G01X-2262060Y1827960D01*
G01X-2262060Y1827960D02*
G01X-2262710Y1827240D01*
G01X-2262710Y1827240D02*
G01X-2263380Y1826540D01*
G01X-2263380Y1826540D02*
G01X-2264090Y1825870D01*
G01X-2264090Y1825870D02*
G01X-2264820Y1825240D01*
G01X-2264820Y1825240D02*
G01X-2265570Y1824630D01*
G01X-2265570Y1824630D02*
G01X-2266350Y1824050D01*
G01X-2266350Y1824050D02*
G01X-2267160Y1823510D01*
G01X-2267160Y1823510D02*
G01X-2267980Y1823000D01*
G01X-2267980Y1823000D02*
G01X-2268830Y1822520D01*
G01X-2268830Y1822520D02*
G01X-2269690Y1822080D01*
G01X-2269690Y1822080D02*
G01X-2270570Y1821670D01*
G01X-2270570Y1821670D02*
G01X-2271470Y1821310D01*
G01X-2271470Y1821310D02*
G01X-2272380Y1820970D01*
G01X-2272380Y1820970D02*
G01X-2273300Y1820680D01*
G01X-2273300Y1820680D02*
G01X-2274240Y1820420D01*
G01X-2274240Y1820420D02*
G01X-2275180Y1820210D01*
G01X-2275180Y1820210D02*
G01X-2276140Y1820030D01*
G01X-2276140Y1820030D02*
G01X-2277100Y1819890D01*
G01X-2277100Y1819890D02*
G01X-2278060Y1819790D01*
G01X-2278060Y1819790D02*
G01X-2279030Y1819730D01*
G01X-2279030Y1819730D02*
G01X-2280000Y1819710D01*
G01X-2280000Y1719710D02*
G01X-2280970Y1719730D01*
G01X-2280970Y1719730D02*
G01X-2281940Y1719790D01*
G01X-2281940Y1719790D02*
G01X-2282900Y1719890D01*
G01X-2282900Y1719890D02*
G01X-2283860Y1720030D01*
G01X-2283860Y1720030D02*
G01X-2284820Y1720210D01*
G01X-2284820Y1720210D02*
G01X-2285760Y1720420D01*
G01X-2285760Y1720420D02*
G01X-2286700Y1720680D01*
G01X-2286700Y1720680D02*
G01X-2287620Y1720970D01*
G01X-2287620Y1720970D02*
G01X-2288530Y1721310D01*
G01X-2288530Y1721310D02*
G01X-2289430Y1721670D01*
G01X-2289430Y1721670D02*
G01X-2290310Y1722080D01*
G01X-2290310Y1722080D02*
G01X-2291170Y1722520D01*
G01X-2291170Y1722520D02*
G01X-2292020Y1723000D01*
G01X-2292020Y1723000D02*
G01X-2292840Y1723510D01*
G01X-2292840Y1723510D02*
G01X-2293650Y1724050D01*
G01X-2293650Y1724050D02*
G01X-2294430Y1724630D01*
G01X-2294430Y1724630D02*
G01X-2295180Y1725240D01*
G01X-2295180Y1725240D02*
G01X-2295910Y1725870D01*
G01X-2295910Y1725870D02*
G01X-2296620Y1726540D01*
G01X-2296620Y1726540D02*
G01X-2297290Y1727240D01*
G01X-2297290Y1727240D02*
G01X-2297940Y1727960D01*
G01X-2297940Y1727960D02*
G01X-2298550Y1728710D01*
G01X-2298550Y1728710D02*
G01X-2299140Y1729490D01*
G01X-2299140Y1729490D02*
G01X-2299690Y1730280D01*
G01X-2299690Y1730280D02*
G01X-2300210Y1731100D01*
G01X-2300210Y1731100D02*
G01X-2300690Y1731940D01*
G01X-2300690Y1731940D02*
G01X-2301140Y1732800D01*
G01X-2301140Y1732800D02*
G01X-2301560Y1733680D01*
G01X-2301560Y1733680D02*
G01X-2301940Y1734570D01*
G01X-2301940Y1734570D02*
G01X-2302280Y1735480D01*
G01X-2302280Y1735480D02*
G01X-2302580Y1736400D01*
G01X-2302580Y1736400D02*
G01X-2302850Y1737330D01*
G01X-2302850Y1737330D02*
G01X-2303070Y1738280D01*
G01X-2303070Y1738280D02*
G01X-2303260Y1739230D01*
G01X-2303260Y1739230D02*
G01X-2303410Y1740190D01*
G01X-2303410Y1740190D02*
G01X-2303520Y1741150D01*
G01X-2303520Y1741150D02*
G01X-2303590Y1742120D01*
G01X-2303590Y1742120D02*
G01X-2303620Y1743090D01*
G01X-2303620Y1743090D02*
G01X-2303610Y1744060D01*
G01X-2303610Y1744060D02*
G01X-2303560Y1745030D01*
G01X-2303560Y1745030D02*
G01X-2303470Y1745990D01*
G01X-2303470Y1745990D02*
G01X-2303340Y1746950D01*
G01X-2303340Y1746950D02*
G01X-2303170Y1747910D01*
G01X-2303170Y1747910D02*
G01X-2302960Y1748860D01*
G01X-2302960Y1748860D02*
G01X-2302720Y1749790D01*
G01X-2302720Y1749790D02*
G01X-2302430Y1750720D01*
G01X-2302430Y1750720D02*
G01X-2302110Y1751640D01*
G01X-2302110Y1751640D02*
G01X-2301750Y1752540D01*
G01X-2301750Y1752540D02*
G01X-2301360Y1753420D01*
G01X-2301360Y1753420D02*
G01X-2300920Y1754290D01*
G01X-2300920Y1754290D02*
G01X-2300460Y1755140D01*
G01X-2300460Y1755140D02*
G01X-2299950Y1755970D01*
G01X-2299950Y1755970D02*
G01X-2299420Y1756780D01*
G01X-2299420Y1756780D02*
G01X-2298850Y1757560D01*
G01X-2298850Y1757560D02*
G01X-2298250Y1758330D01*
G01X-2298250Y1758330D02*
G01X-2297620Y1759060D01*
G01X-2297620Y1759060D02*
G01X-2296960Y1759770D01*
G01X-2296960Y1759770D02*
G01X-2296270Y1760450D01*
G01X-2296270Y1760450D02*
G01X-2295550Y1761110D01*
G01X-2295550Y1761110D02*
G01X-2294810Y1761730D01*
G01X-2294810Y1761730D02*
G01X-2294040Y1762320D01*
G01X-2294040Y1762320D02*
G01X-2293250Y1762880D01*
G01X-2293250Y1762880D02*
G01X-2292430Y1763410D01*
G01X-2292430Y1763410D02*
G01X-2291600Y1763910D01*
G01X-2291600Y1763910D02*
G01X-2290740Y1764360D01*
G01X-2290740Y1764360D02*
G01X-2289870Y1764790D01*
G01X-2289870Y1764790D02*
G01X-2288980Y1765180D01*
G01X-2288980Y1765180D02*
G01X-2288080Y1765530D01*
G01X-2288080Y1765530D02*
G01X-2287160Y1765840D01*
G01X-2287160Y1765840D02*
G01X-2286230Y1766110D01*
G01X-2286230Y1766110D02*
G01X-2285290Y1766350D01*
G01X-2285290Y1766350D02*
G01X-2284340Y1766550D01*
G01X-2284340Y1766550D02*
G01X-2283380Y1766710D01*
G01X-2283380Y1766710D02*
G01X-2282420Y1766830D01*
G01X-2282420Y1766830D02*
G01X-2281450Y1766910D01*
G01X-2281450Y1766910D02*
G01X-2280480Y1766950D01*
G01X-2280480Y1766950D02*
G01X-2279520Y1766950D01*
G01X-2279520Y1766950D02*
G01X-2278550Y1766910D01*
G01X-2278550Y1766910D02*
G01X-2277580Y1766830D01*
G01X-2277580Y1766830D02*
G01X-2276620Y1766710D01*
G01X-2276620Y1766710D02*
G01X-2275660Y1766550D01*
G01X-2275660Y1766550D02*
G01X-2274710Y1766350D01*
G01X-2274710Y1766350D02*
G01X-2273770Y1766110D01*
G01X-2273770Y1766110D02*
G01X-2272840Y1765840D01*
G01X-2272840Y1765840D02*
G01X-2271920Y1765530D01*
G01X-2271920Y1765530D02*
G01X-2271020Y1765180D01*
G01X-2271020Y1765180D02*
G01X-2270130Y1764790D01*
G01X-2270130Y1764790D02*
G01X-2269260Y1764360D01*
G01X-2269260Y1764360D02*
G01X-2268400Y1763910D01*
G01X-2268400Y1763910D02*
G01X-2267570Y1763410D01*
G01X-2267570Y1763410D02*
G01X-2266750Y1762880D01*
G01X-2266750Y1762880D02*
G01X-2265960Y1762320D01*
G01X-2265960Y1762320D02*
G01X-2265190Y1761730D01*
G01X-2265190Y1761730D02*
G01X-2264450Y1761110D01*
G01X-2264450Y1761110D02*
G01X-2263730Y1760450D01*
G01X-2263730Y1760450D02*
G01X-2263040Y1759770D01*
G01X-2263040Y1759770D02*
G01X-2262380Y1759060D01*
G01X-2262380Y1759060D02*
G01X-2261750Y1758330D01*
G01X-2261750Y1758330D02*
G01X-2261150Y1757560D01*
G01X-2261150Y1757560D02*
G01X-2260580Y1756780D01*
G01X-2260580Y1756780D02*
G01X-2260050Y1755970D01*
G01X-2260050Y1755970D02*
G01X-2259540Y1755140D01*
G01X-2259540Y1755140D02*
G01X-2259080Y1754290D01*
G01X-2259080Y1754290D02*
G01X-2258640Y1753420D01*
G01X-2258640Y1753420D02*
G01X-2258250Y1752540D01*
G01X-2258250Y1752540D02*
G01X-2257890Y1751640D01*
G01X-2257890Y1751640D02*
G01X-2257570Y1750720D01*
G01X-2257570Y1750720D02*
G01X-2257280Y1749790D01*
G01X-2257280Y1749790D02*
G01X-2257040Y1748860D01*
G01X-2257040Y1748860D02*
G01X-2256830Y1747910D01*
G01X-2256830Y1747910D02*
G01X-2256660Y1746950D01*
G01X-2256660Y1746950D02*
G01X-2256530Y1745990D01*
G01X-2256530Y1745990D02*
G01X-2256440Y1745030D01*
G01X-2256440Y1745030D02*
G01X-2256390Y1744060D01*
G01X-2256390Y1744060D02*
G01X-2256380Y1743090D01*
G01X-2256380Y1743090D02*
G01X-2256410Y1742120D01*
G01X-2256410Y1742120D02*
G01X-2256480Y1741150D01*
G01X-2256480Y1741150D02*
G01X-2256590Y1740190D01*
G01X-2256590Y1740190D02*
G01X-2256740Y1739230D01*
G01X-2256740Y1739230D02*
G01X-2256930Y1738280D01*
G01X-2256930Y1738280D02*
G01X-2257150Y1737330D01*
G01X-2257150Y1737330D02*
G01X-2257420Y1736400D01*
G01X-2257420Y1736400D02*
G01X-2257720Y1735480D01*
G01X-2257720Y1735480D02*
G01X-2258060Y1734570D01*
G01X-2258060Y1734570D02*
G01X-2258440Y1733680D01*
G01X-2258440Y1733680D02*
G01X-2258860Y1732800D01*
G01X-2258860Y1732800D02*
G01X-2259310Y1731940D01*
G01X-2259310Y1731940D02*
G01X-2259790Y1731100D01*
G01X-2259790Y1731100D02*
G01X-2260310Y1730280D01*
G01X-2260310Y1730280D02*
G01X-2260860Y1729490D01*
G01X-2260860Y1729490D02*
G01X-2261450Y1728710D01*
G01X-2261450Y1728710D02*
G01X-2262060Y1727960D01*
G01X-2262060Y1727960D02*
G01X-2262710Y1727240D01*
G01X-2262710Y1727240D02*
G01X-2263380Y1726540D01*
G01X-2263380Y1726540D02*
G01X-2264090Y1725870D01*
G01X-2264090Y1725870D02*
G01X-2264820Y1725240D01*
G01X-2264820Y1725240D02*
G01X-2265570Y1724630D01*
G01X-2265570Y1724630D02*
G01X-2266350Y1724050D01*
G01X-2266350Y1724050D02*
G01X-2267160Y1723510D01*
G01X-2267160Y1723510D02*
G01X-2267980Y1723000D01*
G01X-2267980Y1723000D02*
G01X-2268830Y1722520D01*
G01X-2268830Y1722520D02*
G01X-2269690Y1722080D01*
G01X-2269690Y1722080D02*
G01X-2270570Y1721670D01*
G01X-2270570Y1721670D02*
G01X-2271470Y1721310D01*
G01X-2271470Y1721310D02*
G01X-2272380Y1720970D01*
G01X-2272380Y1720970D02*
G01X-2273300Y1720680D01*
G01X-2273300Y1720680D02*
G01X-2274240Y1720420D01*
G01X-2274240Y1720420D02*
G01X-2275180Y1720210D01*
G01X-2275180Y1720210D02*
G01X-2276140Y1720030D01*
G01X-2276140Y1720030D02*
G01X-2277100Y1719890D01*
G01X-2277100Y1719890D02*
G01X-2278060Y1719790D01*
G01X-2278060Y1719790D02*
G01X-2279030Y1719730D01*
G01X-2279030Y1719730D02*
G01X-2280000Y1719710D01*
M02*
