G04 This is an RS-274x file exported by *
G04 gerbv version 2.7.0 *
G04 More information is available about gerbv at *
G04 http://gerbv.geda-project.org/ *
G04 --End of header info--*
%MOIN*%
%FSLAX36Y36*%
%IPPOS*%
G04 --Define apertures--*
%ADD10C,0.0120*%
%ADD11C,0.0110*%
%ADD12C,0.0100*%
%ADD13C,0.0090*%
%ADD14C,0.0080*%
%ADD15C,0.0070*%
%ADD16C,0.0060*%
%ADD17C,0.0050*%
%ADD18C,0.0040*%
%ADD19C,0.0030*%
%ADD20C,0.0020*%
%ADD21C,0.0010*%
%ADD22C,0.0300*%
%ADD23C,0.0197*%
%ADD24R,0.0197X0.0394*%
%ADD25C,0.0075*%
%ADD26R,0.0394X0.0197*%
G04 --Start main section--*
G54D10*
G01X-2038290Y2393330D02*
G01X-2063290Y2418330D01*
G54D11*
G01X-2063290Y2443330D02*
G01X-2038290Y2418330D01*
G54D12*
G01X-2038290Y2443330D02*
G01X-2063290Y2468330D01*
G54D13*
G01X-2063290Y2493330D02*
G01X-2038290Y2468330D01*
G54D14*
G01X-2038290Y2493330D02*
G01X-2063290Y2518330D01*
G54D15*
G01X-2063290Y2543330D02*
G01X-2038290Y2518330D01*
G54D16*
G01X-2038290Y2543330D02*
G01X-2063290Y2568330D01*
G01X-2090160Y1569510D02*
G01X-2090160Y1559510D01*
G01X-1893310Y1559510D02*
G01X-1893310Y1569510D01*
G01X-1804420Y1495280D02*
G01X-1775420Y1495280D01*
G01X-1775420Y1495280D02*
G01X-1775420Y1466280D01*
G01X-1711420Y1357700D02*
G01X-1701420Y1357700D01*
G01X-1701420Y1160850D02*
G01X-1711420Y1160850D01*
G01X-1790420Y0979540D02*
G01X-1810420Y0959540D01*
G01X-1804420Y0944540D02*
G01X-1775420Y0944540D01*
G01X-1775420Y0944540D02*
G01X-1775420Y0973540D01*
G01X-1814570Y0880540D02*
G01X-1814570Y0870540D01*
G01X-2011420Y0870540D02*
G01X-2011420Y0880540D01*
G01X-2014790Y0679330D02*
G01X-2014790Y0630330D01*
G01X-2014790Y0630330D02*
G01X-2014790Y0606330D01*
G01X-2014790Y0606330D02*
G01X-2014790Y0557330D01*
G01X-2014790Y0606330D02*
G01X-2015480Y0606350D01*
G01X-2015480Y0606350D02*
G01X-2016160Y0606410D01*
G01X-2016160Y0606410D02*
G01X-2016840Y0606510D01*
G01X-2016840Y0606510D02*
G01X-2017510Y0606640D01*
G01X-2017510Y0606640D02*
G01X-2018170Y0606820D01*
G01X-2018170Y0606820D02*
G01X-2018820Y0607030D01*
G01X-2018820Y0607030D02*
G01X-2019460Y0607280D01*
G01X-2019460Y0607280D02*
G01X-2020080Y0607560D01*
G01X-2020080Y0607560D02*
G01X-2020690Y0607880D01*
G01X-2020690Y0607880D02*
G01X-2021280Y0608230D01*
G01X-2021280Y0608230D02*
G01X-2021840Y0608620D01*
G01X-2021840Y0608620D02*
G01X-2022390Y0609040D01*
G01X-2022390Y0609040D02*
G01X-2022900Y0609490D01*
G01X-2022900Y0609490D02*
G01X-2023400Y0609970D01*
G01X-2023400Y0609970D02*
G01X-2023860Y0610470D01*
G01X-2023860Y0610470D02*
G01X-2024290Y0611000D01*
G01X-2024290Y0611000D02*
G01X-2024700Y0611560D01*
G01X-2024700Y0611560D02*
G01X-2025070Y0612130D01*
G01X-2025070Y0612130D02*
G01X-2025400Y0612730D01*
G01X-2025400Y0612730D02*
G01X-2025710Y0613350D01*
G01X-2025710Y0613350D02*
G01X-2025970Y0613980D01*
G01X-2025970Y0613980D02*
G01X-2026200Y0614620D01*
G01X-2026200Y0614620D02*
G01X-2026400Y0615280D01*
G01X-2026400Y0615280D02*
G01X-2026550Y0615950D01*
G01X-2026550Y0615950D02*
G01X-2026670Y0616620D01*
G01X-2026670Y0616620D02*
G01X-2026750Y0617300D01*
G01X-2026750Y0617300D02*
G01X-2026790Y0617990D01*
G01X-2026790Y0617990D02*
G01X-2026790Y0618670D01*
G01X-2026790Y0618670D02*
G01X-2026750Y0619360D01*
G01X-2026750Y0619360D02*
G01X-2026670Y0620040D01*
G01X-2026670Y0620040D02*
G01X-2026550Y0620710D01*
G01X-2026550Y0620710D02*
G01X-2026400Y0621380D01*
G01X-2026400Y0621380D02*
G01X-2026200Y0622040D01*
G01X-2026200Y0622040D02*
G01X-2025970Y0622680D01*
G01X-2025970Y0622680D02*
G01X-2025710Y0623310D01*
G01X-2025710Y0623310D02*
G01X-2025400Y0623930D01*
G01X-2025400Y0623930D02*
G01X-2025070Y0624530D01*
G01X-2025070Y0624530D02*
G01X-2024700Y0625100D01*
G01X-2024700Y0625100D02*
G01X-2024290Y0625660D01*
G01X-2024290Y0625660D02*
G01X-2023860Y0626190D01*
G01X-2023860Y0626190D02*
G01X-2023400Y0626690D01*
G01X-2023400Y0626690D02*
G01X-2022900Y0627170D01*
G01X-2022900Y0627170D02*
G01X-2022390Y0627620D01*
G01X-2022390Y0627620D02*
G01X-2021840Y0628040D01*
G01X-2021840Y0628040D02*
G01X-2021280Y0628430D01*
G01X-2021280Y0628430D02*
G01X-2020690Y0628780D01*
G01X-2020690Y0628780D02*
G01X-2020080Y0629100D01*
G01X-2020080Y0629100D02*
G01X-2019460Y0629380D01*
G01X-2019460Y0629380D02*
G01X-2018820Y0629630D01*
G01X-2018820Y0629630D02*
G01X-2018170Y0629840D01*
G01X-2018170Y0629840D02*
G01X-2017510Y0630020D01*
G01X-2017510Y0630020D02*
G01X-2016840Y0630150D01*
G01X-2016840Y0630150D02*
G01X-2016160Y0630250D01*
G01X-2016160Y0630250D02*
G01X-2015480Y0630310D01*
G01X-2015480Y0630310D02*
G01X-2014790Y0630330D01*
G01X-2136790Y0679330D02*
G01X-2136790Y0557330D01*
G01X-2208270Y0870540D02*
G01X-2208270Y0880540D01*
G01X-2297160Y0944540D02*
G01X-2326160Y0944540D01*
G01X-2326160Y0944540D02*
G01X-2326160Y0973540D01*
G01X-2390400Y1082110D02*
G01X-2400400Y1082110D01*
G01X-2400400Y1278960D02*
G01X-2390400Y1278960D01*
G01X-2326160Y1466280D02*
G01X-2326160Y1495280D01*
G01X-2326160Y1495280D02*
G01X-2297160Y1495280D01*
G01X-2287010Y1559510D02*
G01X-2287010Y1569510D01*
G01X-1230790Y2164850D02*
G01X-1230790Y2177850D01*
G01X-1230790Y2177850D02*
G01X-1214790Y2180850D01*
G01X-1214790Y2180850D02*
G01X-1209790Y2192850D01*
G01X-1209790Y2192850D02*
G01X-1218790Y2206850D01*
G01X-1218790Y2206850D02*
G01X-1209790Y2215850D01*
G01X-1209790Y2215850D02*
G01X-1196790Y2206850D01*
G01X-1196790Y2206850D02*
G01X-1184790Y2211850D01*
G01X-1184790Y2211850D02*
G01X-1181790Y2226850D01*
G01X-1181790Y2226850D02*
G01X-1168790Y2226850D01*
G01X-1168790Y2226850D02*
G01X-1165790Y2212850D01*
G01X-1165790Y2212850D02*
G01X-1152790Y2206850D01*
G01X-1152790Y2206850D02*
G01X-1139790Y2215850D01*
G01X-1139790Y2215850D02*
G01X-1130790Y2206850D01*
G01X-1130790Y2206850D02*
G01X-1138790Y2194850D01*
G01X-1138790Y2194850D02*
G01X-1135790Y2188850D01*
G01X-1135790Y2188850D02*
G01X-1158790Y2179850D01*
G01X-1155790Y2185850D02*
G01X-1175790Y2195850D01*
G01X-1175790Y2195850D02*
G01X-1190790Y2185850D01*
G01X-1190790Y2185850D02*
G01X-1195790Y2170850D01*
G01X-1195790Y2170850D02*
G01X-1190790Y2155850D01*
G01X-1190790Y2155850D02*
G01X-1175790Y2150850D01*
G01X-1175790Y2150850D02*
G01X-1160790Y2155850D01*
G01X-1160790Y2155850D02*
G01X-1155790Y2160850D01*
G01X-1155790Y2160850D02*
G01X-1140790Y2150850D01*
G01X-1140790Y2150850D02*
G01X-1135790Y2135850D01*
G01X-1135790Y2135850D02*
G01X-1140790Y2130850D01*
G01X-1140790Y2130850D02*
G01X-1155790Y2140850D01*
G01X-1155790Y2140850D02*
G01X-1170790Y2130850D01*
G01X-1170790Y2130850D02*
G01X-1170790Y2120850D01*
G01X-1170790Y2120850D02*
G01X-1180790Y2120850D01*
G01X-1180790Y2120850D02*
G01X-1180790Y2135850D01*
G01X-1180790Y2135850D02*
G01X-1195790Y2140850D01*
G01X-1195790Y2140850D02*
G01X-1210790Y2130850D01*
G01X-1210790Y2130850D02*
G01X-1215790Y2135850D01*
G01X-1215790Y2135850D02*
G01X-1205790Y2150850D01*
G01X-1205790Y2150850D02*
G01X-1215790Y2165850D01*
G01X-1215790Y2165850D02*
G01X-1225790Y2165850D01*
G01X-1225790Y2165850D02*
G01X-1225790Y2175850D01*
G01X-1225790Y2175850D02*
G01X-1210790Y2180850D01*
G01X-1210790Y2180850D02*
G01X-1205790Y2195850D01*
G01X-1205790Y2195850D02*
G01X-1215790Y2205850D01*
G01X-1215790Y2205850D02*
G01X-1210790Y2210850D01*
G01X-1210790Y2210850D02*
G01X-1195790Y2205850D01*
G01X-1195790Y2205850D02*
G01X-1180790Y2210850D01*
G01X-1180790Y2210850D02*
G01X-1180790Y2225850D01*
G01X-1180790Y2225850D02*
G01X-1170790Y2220850D01*
G01X-1170790Y2220850D02*
G01X-1165790Y2205850D01*
G01X-1165790Y2205850D02*
G01X-1150790Y2205850D01*
G01X-1150790Y2205850D02*
G01X-1140790Y2210850D01*
G01X-1140790Y2210850D02*
G01X-1135790Y2205850D01*
G01X-1135790Y2205850D02*
G01X-1140790Y2195850D01*
G01X-1140790Y2195850D02*
G01X-1140790Y2190850D01*
G01X-1140790Y2190850D02*
G01X-1155790Y2185850D01*
G01X-1153030Y2186770D02*
G01X-1153030Y2205850D01*
G01X-1159010Y2205850D02*
G01X-1159010Y2187450D01*
G01X-1165000Y2190450D02*
G01X-1165000Y2205850D01*
G01X-1170980Y2193440D02*
G01X-1170980Y2220940D01*
G01X-1176970Y2223930D02*
G01X-1176970Y2195060D01*
G01X-1182950Y2191070D02*
G01X-1182950Y2210130D01*
G01X-1188940Y2208130D02*
G01X-1188940Y2187080D01*
G01X-1194920Y2173460D02*
G01X-1194920Y2206140D01*
G01X-1200910Y2207550D02*
G01X-1200910Y2137440D01*
G01X-1196790Y2136850D02*
G01X-1209790Y2127850D01*
G01X-1209790Y2127850D02*
G01X-1218790Y2136850D01*
G01X-1218790Y2136850D02*
G01X-1209790Y2149850D01*
G01X-1209790Y2149850D02*
G01X-1214790Y2161850D01*
G01X-1214790Y2161850D02*
G01X-1230790Y2164850D01*
G01X-1224850Y2165850D02*
G01X-1224850Y2176160D01*
G01X-1218860Y2178160D02*
G01X-1218860Y2165850D01*
G01X-1212880Y2161470D02*
G01X-1212880Y2180150D01*
G01X-1206890Y2192550D02*
G01X-1206890Y2152490D01*
G01X-1206890Y2149200D02*
G01X-1206890Y2133450D01*
G01X-1212880Y2132930D02*
G01X-1212880Y2140220D01*
G01X-1196790Y2136850D02*
G01X-1183790Y2130850D01*
G01X-1183790Y2130850D02*
G01X-1181790Y2115850D01*
G01X-1181790Y2115850D02*
G01X-1168790Y2115850D01*
G01X-1168790Y2115850D02*
G01X-1165790Y2130850D01*
G01X-1165790Y2130850D02*
G01X-1152790Y2135850D01*
G01X-1152790Y2135850D02*
G01X-1139790Y2127850D01*
G01X-1139790Y2127850D02*
G01X-1130790Y2136850D01*
G01X-1130790Y2136850D02*
G01X-1138790Y2148850D01*
G01X-1138790Y2148850D02*
G01X-1135790Y2153850D01*
G01X-1135790Y2153850D02*
G01X-1158790Y2163850D01*
G01X-1159010Y2157630D02*
G01X-1159010Y2138700D01*
G01X-1153030Y2139000D02*
G01X-1153030Y2159000D01*
G01X-1147040Y2155010D02*
G01X-1147040Y2135010D01*
G01X-1141060Y2131020D02*
G01X-1141060Y2151020D01*
G01X-1165000Y2154440D02*
G01X-1165000Y2134710D01*
G01X-1170980Y2120850D02*
G01X-1170980Y2152450D01*
G01X-1176970Y2151240D02*
G01X-1176970Y2120850D01*
G01X-1182950Y2136560D02*
G01X-1182950Y2153230D01*
G01X-1188940Y2155230D02*
G01X-1188940Y2138560D01*
G01X-1194920Y2140550D02*
G01X-1194920Y2168230D01*
G01X-1158790Y2163850D02*
G01X-1159180Y2163110D01*
G01X-1159180Y2163110D02*
G01X-1159610Y2162380D01*
G01X-1159610Y2162380D02*
G01X-1160070Y2161680D01*
G01X-1160070Y2161680D02*
G01X-1160570Y2161000D01*
G01X-1160570Y2161000D02*
G01X-1161090Y2160340D01*
G01X-1161090Y2160340D02*
G01X-1161650Y2159710D01*
G01X-1161650Y2159710D02*
G01X-1162230Y2159110D01*
G01X-1162230Y2159110D02*
G01X-1162840Y2158530D01*
G01X-1162840Y2158530D02*
G01X-1163480Y2157990D01*
G01X-1163480Y2157990D02*
G01X-1164140Y2157470D01*
G01X-1164140Y2157470D02*
G01X-1164830Y2156990D01*
G01X-1164830Y2156990D02*
G01X-1165540Y2156540D01*
G01X-1165540Y2156540D02*
G01X-1166270Y2156120D01*
G01X-1166270Y2156120D02*
G01X-1167020Y2155740D01*
G01X-1167020Y2155740D02*
G01X-1167780Y2155390D01*
G01X-1167780Y2155390D02*
G01X-1168560Y2155080D01*
G01X-1168560Y2155080D02*
G01X-1169360Y2154800D01*
G01X-1169360Y2154800D02*
G01X-1170170Y2154570D01*
G01X-1170170Y2154570D02*
G01X-1170980Y2154370D01*
G01X-1170980Y2154370D02*
G01X-1171810Y2154210D01*
G01X-1171810Y2154210D02*
G01X-1172640Y2154090D01*
G01X-1172640Y2154090D02*
G01X-1173480Y2154010D01*
G01X-1173480Y2154010D02*
G01X-1174310Y2153970D01*
G01X-1174310Y2153970D02*
G01X-1175160Y2153960D01*
G01X-1175160Y2153960D02*
G01X-1175990Y2154000D01*
G01X-1175990Y2154000D02*
G01X-1176830Y2154080D01*
G01X-1176830Y2154080D02*
G01X-1177660Y2154190D01*
G01X-1177660Y2154190D02*
G01X-1178490Y2154350D01*
G01X-1178490Y2154350D02*
G01X-1179310Y2154540D01*
G01X-1179310Y2154540D02*
G01X-1180120Y2154770D01*
G01X-1180120Y2154770D02*
G01X-1180910Y2155040D01*
G01X-1180910Y2155040D02*
G01X-1181700Y2155350D01*
G01X-1181700Y2155350D02*
G01X-1182460Y2155690D01*
G01X-1182460Y2155690D02*
G01X-1183210Y2156070D01*
G01X-1183210Y2156070D02*
G01X-1183940Y2156480D01*
G01X-1183940Y2156480D02*
G01X-1184660Y2156930D01*
G01X-1184660Y2156930D02*
G01X-1185350Y2157410D01*
G01X-1185350Y2157410D02*
G01X-1186010Y2157920D01*
G01X-1186010Y2157920D02*
G01X-1186660Y2158460D01*
G01X-1186660Y2158460D02*
G01X-1187270Y2159030D01*
G01X-1187270Y2159030D02*
G01X-1187860Y2159630D01*
G01X-1187860Y2159630D02*
G01X-1188420Y2160260D01*
G01X-1188420Y2160260D02*
G01X-1188950Y2160910D01*
G01X-1188950Y2160910D02*
G01X-1189450Y2161590D01*
G01X-1189450Y2161590D02*
G01X-1189910Y2162290D01*
G01X-1189910Y2162290D02*
G01X-1190340Y2163010D01*
G01X-1190340Y2163010D02*
G01X-1190740Y2163750D01*
G01X-1190740Y2163750D02*
G01X-1191100Y2164510D01*
G01X-1191100Y2164510D02*
G01X-1191430Y2165280D01*
G01X-1191430Y2165280D02*
G01X-1191720Y2166070D01*
G01X-1191720Y2166070D02*
G01X-1191970Y2166870D01*
G01X-1191970Y2166870D02*
G01X-1192190Y2167690D01*
G01X-1192190Y2167690D02*
G01X-1192370Y2168510D01*
G01X-1192370Y2168510D02*
G01X-1192500Y2169340D01*
G01X-1192500Y2169340D02*
G01X-1192600Y2170170D01*
G01X-1192600Y2170170D02*
G01X-1192660Y2171010D01*
G01X-1192660Y2171010D02*
G01X-1192680Y2171850D01*
G01X-1192680Y2171850D02*
G01X-1192660Y2172690D01*
G01X-1192660Y2172690D02*
G01X-1192600Y2173530D01*
G01X-1192600Y2173530D02*
G01X-1192500Y2174360D01*
G01X-1192500Y2174360D02*
G01X-1192370Y2175190D01*
G01X-1192370Y2175190D02*
G01X-1192190Y2176010D01*
G01X-1192190Y2176010D02*
G01X-1191970Y2176830D01*
G01X-1191970Y2176830D02*
G01X-1191720Y2177630D01*
G01X-1191720Y2177630D02*
G01X-1191430Y2178420D01*
G01X-1191430Y2178420D02*
G01X-1191100Y2179190D01*
G01X-1191100Y2179190D02*
G01X-1190740Y2179950D01*
G01X-1190740Y2179950D02*
G01X-1190340Y2180690D01*
G01X-1190340Y2180690D02*
G01X-1189910Y2181410D01*
G01X-1189910Y2181410D02*
G01X-1189450Y2182110D01*
G01X-1189450Y2182110D02*
G01X-1188950Y2182790D01*
G01X-1188950Y2182790D02*
G01X-1188420Y2183440D01*
G01X-1188420Y2183440D02*
G01X-1187860Y2184070D01*
G01X-1187860Y2184070D02*
G01X-1187270Y2184670D01*
G01X-1187270Y2184670D02*
G01X-1186660Y2185240D01*
G01X-1186660Y2185240D02*
G01X-1186010Y2185780D01*
G01X-1186010Y2185780D02*
G01X-1185350Y2186290D01*
G01X-1185350Y2186290D02*
G01X-1184660Y2186770D01*
G01X-1184660Y2186770D02*
G01X-1183940Y2187220D01*
G01X-1183940Y2187220D02*
G01X-1183210Y2187630D01*
G01X-1183210Y2187630D02*
G01X-1182460Y2188010D01*
G01X-1182460Y2188010D02*
G01X-1181700Y2188350D01*
G01X-1181700Y2188350D02*
G01X-1180910Y2188660D01*
G01X-1180910Y2188660D02*
G01X-1180120Y2188930D01*
G01X-1180120Y2188930D02*
G01X-1179310Y2189160D01*
G01X-1179310Y2189160D02*
G01X-1178490Y2189350D01*
G01X-1178490Y2189350D02*
G01X-1177660Y2189510D01*
G01X-1177660Y2189510D02*
G01X-1176830Y2189620D01*
G01X-1176830Y2189620D02*
G01X-1175990Y2189700D01*
G01X-1175990Y2189700D02*
G01X-1175160Y2189740D01*
G01X-1175160Y2189740D02*
G01X-1174310Y2189730D01*
G01X-1174310Y2189730D02*
G01X-1173480Y2189690D01*
G01X-1173480Y2189690D02*
G01X-1172640Y2189610D01*
G01X-1172640Y2189610D02*
G01X-1171810Y2189490D01*
G01X-1171810Y2189490D02*
G01X-1170980Y2189330D01*
G01X-1170980Y2189330D02*
G01X-1170170Y2189130D01*
G01X-1170170Y2189130D02*
G01X-1169360Y2188900D01*
G01X-1169360Y2188900D02*
G01X-1168560Y2188620D01*
G01X-1168560Y2188620D02*
G01X-1167780Y2188310D01*
G01X-1167780Y2188310D02*
G01X-1167020Y2187960D01*
G01X-1167020Y2187960D02*
G01X-1166270Y2187580D01*
G01X-1166270Y2187580D02*
G01X-1165540Y2187160D01*
G01X-1165540Y2187160D02*
G01X-1164830Y2186710D01*
G01X-1164830Y2186710D02*
G01X-1164140Y2186230D01*
G01X-1164140Y2186230D02*
G01X-1163480Y2185710D01*
G01X-1163480Y2185710D02*
G01X-1162840Y2185170D01*
G01X-1162840Y2185170D02*
G01X-1162230Y2184590D01*
G01X-1162230Y2184590D02*
G01X-1161650Y2183990D01*
G01X-1161650Y2183990D02*
G01X-1161090Y2183360D01*
G01X-1161090Y2183360D02*
G01X-1160570Y2182700D01*
G01X-1160570Y2182700D02*
G01X-1160070Y2182020D01*
G01X-1160070Y2182020D02*
G01X-1159610Y2181320D01*
G01X-1159610Y2181320D02*
G01X-1159180Y2180590D01*
G01X-1159180Y2180590D02*
G01X-1158790Y2179850D01*
G01X-1147040Y2188760D02*
G01X-1147040Y2207720D01*
G01X-1141060Y2210710D02*
G01X-1141060Y2190760D01*
G01X-1206890Y2196940D02*
G01X-1206890Y2209540D01*
G01X-1212880Y2208760D02*
G01X-1212880Y2202930D01*
G01X-1814570Y4067150D02*
G01X-1814570Y4077150D01*
G01X-1804420Y4141390D02*
G01X-1775420Y4141390D01*
G01X-1775420Y4141390D02*
G01X-1775420Y4170390D01*
G01X-1711190Y4357700D02*
G01X-1701190Y4357700D01*
G01X-1701190Y4554550D02*
G01X-1711190Y4554550D01*
G01X-1775420Y4663130D02*
G01X-1775420Y4692130D01*
G01X-1775420Y4692130D02*
G01X-1804420Y4692130D01*
G01X-1893310Y4756130D02*
G01X-1893310Y4766130D01*
G01X-2090160Y4766130D02*
G01X-2090160Y4756130D01*
G01X-2287010Y4756130D02*
G01X-2287010Y4766130D01*
G01X-2297160Y4692130D02*
G01X-2326160Y4692130D01*
G01X-2326160Y4692130D02*
G01X-2326160Y4663130D01*
G01X-2311160Y4657130D02*
G01X-2291160Y4677130D01*
G01X-2390160Y4475810D02*
G01X-2400160Y4475810D01*
G01X-2400160Y4278960D02*
G01X-2390160Y4278960D01*
G01X-2326160Y4170390D02*
G01X-2326160Y4141390D01*
G01X-2326160Y4141390D02*
G01X-2297160Y4141390D01*
G01X-2208270Y4077150D02*
G01X-2208270Y4067150D01*
G01X-2011420Y4067150D02*
G01X-2011420Y4077150D01*
G01X-2957290Y4312620D02*
G01X-3025790Y4312620D01*
G01X-3025790Y4312620D02*
G01X-3025790Y4393330D01*
G01X-3025790Y4393330D02*
G01X-3025790Y4474040D01*
G01X-3025790Y4474040D02*
G01X-2957290Y4474040D01*
G01X-2957290Y4474040D02*
G01X-2957290Y4393330D01*
G01X-2957290Y4393330D02*
G01X-3025790Y4393330D01*
G01X-2957290Y4393330D02*
G01X-2957290Y4312620D01*
G54D17*
G01X-1440560Y1799630D02*
G01X-1340160Y1799630D01*
G01X-1340160Y1799630D02*
G01X-1320480Y1819320D01*
G01X-1320480Y1819320D02*
G01X-1320480Y1876400D01*
G01X-1320480Y1876400D02*
G01X-1381500Y1876400D01*
G01X-1381500Y1876400D02*
G01X-1381500Y2010260D01*
G01X-1381500Y2010260D02*
G01X-1320480Y2010260D01*
G01X-1320480Y2010260D02*
G01X-1320480Y2087030D01*
G01X-1320480Y2087030D02*
G01X-1440560Y2087030D01*
G01X-1440560Y2087030D02*
G01X-1440560Y2049630D01*
G01X-1440560Y2010260D02*
G01X-1440560Y1876400D01*
G01X-1440560Y1876400D02*
G01X-2661030Y1876400D01*
G01X-2661030Y1876400D02*
G01X-2661030Y2010260D01*
G01X-2661030Y2010260D02*
G01X-1440560Y2010260D01*
G01X-1440560Y1837030D02*
G01X-1440560Y1799630D01*
G01X-1968050Y1598330D02*
G01X-1968050Y1563300D01*
G01X-1968050Y1563300D02*
G01X-1985560Y1563300D01*
G01X-1985560Y1563300D02*
G01X-1991400Y1569140D01*
G01X-1991400Y1569140D02*
G01X-1991400Y1580820D01*
G01X-1991400Y1580820D02*
G01X-1985560Y1586660D01*
G01X-1985560Y1586660D02*
G01X-1968050Y1586660D01*
G01X-1979720Y1586660D02*
G01X-1991400Y1598330D01*
G01X-2004880Y1598330D02*
G01X-2004880Y1563300D01*
G01X-2004880Y1563300D02*
G01X-2028230Y1563300D01*
G01X-2041710Y1563300D02*
G01X-2041710Y1598330D01*
G01X-2041710Y1598330D02*
G01X-2053390Y1586660D01*
G01X-2053390Y1586660D02*
G01X-2065060Y1598330D01*
G01X-2065060Y1598330D02*
G01X-2065060Y1563300D01*
G01X-2016550Y1580820D02*
G01X-2004880Y1580820D01*
G01X-2150790Y0747690D02*
G01X-2150790Y0724330D01*
G01X-2150790Y0736010D02*
G01X-2185820Y0736010D01*
G01X-2185820Y0736010D02*
G01X-2174150Y0724330D01*
G01X-2185820Y0710860D02*
G01X-2156630Y0710860D01*
G01X-2156630Y0710860D02*
G01X-2150790Y0705020D01*
G01X-2150790Y0705020D02*
G01X-2150790Y0693340D01*
G01X-2150790Y0693340D02*
G01X-2156630Y0687500D01*
G01X-2156630Y0687500D02*
G01X-2185820Y0687500D01*
G01X-2661030Y1799630D02*
G01X-2781110Y1799630D01*
G01X-2781110Y1799630D02*
G01X-2781110Y1876400D01*
G01X-2781110Y1876400D02*
G01X-2720090Y1876400D01*
G01X-2720090Y1876400D02*
G01X-2720090Y2010260D01*
G01X-2720090Y2010260D02*
G01X-2781110Y2010260D01*
G01X-2781110Y2010260D02*
G01X-2781110Y2087030D01*
G01X-2781110Y2087030D02*
G01X-2661030Y2087030D01*
G01X-2661030Y2087030D02*
G01X-2661030Y2049630D01*
G01X-2661030Y1837030D02*
G01X-2661030Y1799630D01*
G01X-2038290Y2568330D02*
G01X-2063290Y2593330D01*
G01X-2661030Y3549630D02*
G01X-2781110Y3549630D01*
G01X-2781110Y3549630D02*
G01X-2781110Y3626400D01*
G01X-2781110Y3626400D02*
G01X-2720090Y3626400D01*
G01X-2720090Y3626400D02*
G01X-2720090Y3760260D01*
G01X-2720090Y3760260D02*
G01X-2781110Y3760260D01*
G01X-2781110Y3760260D02*
G01X-2781110Y3817350D01*
G01X-2781110Y3817350D02*
G01X-2761420Y3837030D01*
G01X-2761420Y3837030D02*
G01X-2661030Y3837030D01*
G01X-2661030Y3837030D02*
G01X-2661030Y3799630D01*
G01X-2661030Y3760260D02*
G01X-2661030Y3626400D01*
G01X-2661030Y3626400D02*
G01X-1440560Y3626400D01*
G01X-1440560Y3626400D02*
G01X-1440560Y3760260D01*
G01X-1440560Y3760260D02*
G01X-2661030Y3760260D01*
G01X-2661030Y3587030D02*
G01X-2661030Y3549630D01*
G01X-2884720Y4250800D02*
G01X-2896400Y4250800D01*
G01X-2890560Y4250800D02*
G01X-2890560Y4280000D01*
G01X-2890560Y4280000D02*
G01X-2884720Y4285830D01*
G01X-2884720Y4285830D02*
G01X-2878880Y4285830D01*
G01X-2878880Y4285830D02*
G01X-2873050Y4280000D01*
G01X-2909880Y4285830D02*
G01X-2909880Y4250800D01*
G01X-2909880Y4250800D02*
G01X-2927390Y4250800D01*
G01X-2927390Y4250800D02*
G01X-2933230Y4256640D01*
G01X-2933230Y4256640D02*
G01X-2933230Y4268320D01*
G01X-2933230Y4268320D02*
G01X-2927390Y4274160D01*
G01X-2927390Y4274160D02*
G01X-2909880Y4274160D01*
G01X-2946710Y4285830D02*
G01X-2970060Y4285830D01*
G01X-2958390Y4285830D02*
G01X-2958390Y4250800D01*
G01X-2958390Y4250800D02*
G01X-2946710Y4262480D01*
G01X-2133540Y4073360D02*
G01X-2133540Y4038330D01*
G01X-2133540Y4050010D02*
G01X-2116030Y4050010D01*
G01X-2116030Y4050010D02*
G01X-2110190Y4055850D01*
G01X-2110190Y4055850D02*
G01X-2110190Y4067520D01*
G01X-2110190Y4067520D02*
G01X-2116030Y4073360D01*
G01X-2116030Y4073360D02*
G01X-2133540Y4073360D01*
G01X-2121860Y4050010D02*
G01X-2110190Y4038330D01*
G01X-2096710Y4038330D02*
G01X-2096710Y4073360D01*
G01X-2096710Y4073360D02*
G01X-2073360Y4073360D01*
G01X-2059880Y4073360D02*
G01X-2059880Y4038330D01*
G01X-2059880Y4038330D02*
G01X-2036520Y4038330D01*
G01X-2048200Y4055850D02*
G01X-2059880Y4055850D01*
G01X-2059880Y4073360D02*
G01X-2036520Y4073360D01*
G01X-2085030Y4055850D02*
G01X-2096710Y4055850D01*
G01X-1440560Y3837030D02*
G01X-1320480Y3837030D01*
G01X-1320480Y3837030D02*
G01X-1320480Y3760260D01*
G01X-1320480Y3760260D02*
G01X-1381500Y3760260D01*
G01X-1381500Y3760260D02*
G01X-1381500Y3626400D01*
G01X-1381500Y3626400D02*
G01X-1320480Y3626400D01*
G01X-1320480Y3626400D02*
G01X-1320480Y3549630D01*
G01X-1320480Y3549630D02*
G01X-1440560Y3549630D01*
G01X-1440560Y3549630D02*
G01X-1440560Y3587030D01*
G01X-1440560Y3799630D02*
G01X-1440560Y3837030D01*
G54D18*
G01X-1189820Y4195870D02*
G01X-1161790Y4195870D01*
G01X-1161790Y4195870D02*
G01X-1161790Y4209880D01*
G01X-1161790Y4209880D02*
G01X-1166460Y4214550D01*
G01X-1166460Y4214550D02*
G01X-1185150Y4214550D01*
G01X-1185150Y4214550D02*
G01X-1189820Y4209880D01*
G01X-1189820Y4209880D02*
G01X-1189820Y4195870D01*
G01X-1180480Y4225330D02*
G01X-1189820Y4234670D01*
G01X-1189820Y4234670D02*
G01X-1161790Y4234670D01*
G01X-1161790Y4225330D02*
G01X-1161790Y4244020D01*
G01X-2063290Y2618330D02*
G01X-2038290Y2593330D01*
G54D19*
G01X-2038290Y2618330D02*
G01X-2063290Y2643330D01*
G01X-1023850Y4172820D02*
G01X-1013340Y4183320D01*
G01X-1013340Y4183320D02*
G01X-1027360Y4183320D01*
G01X-1023850Y4172820D02*
G01X-1023850Y4193830D01*
G01X-1005260Y4193830D02*
G01X-991240Y4193830D01*
G01X-998250Y4193830D02*
G01X-998250Y4172820D01*
G01X-998250Y4172820D02*
G01X-991240Y4179820D01*
G01X-983160Y4176320D02*
G01X-983160Y4183320D01*
G01X-983160Y4183320D02*
G01X-979650Y4186830D01*
G01X-979650Y4186830D02*
G01X-969150Y4186830D01*
G01X-976150Y4186830D02*
G01X-983160Y4193830D01*
G01X-969150Y4193830D02*
G01X-969150Y4172820D01*
G01X-969150Y4172820D02*
G01X-979650Y4172820D01*
G01X-979650Y4172820D02*
G01X-983160Y4176320D01*
G54D20*
G01X-2063290Y2668330D02*
G01X-2038290Y2643330D01*
G54D21*
G01X-2038290Y2668330D02*
G01X-2063290Y2693330D01*
G54D22*
G01X-1755520Y0924630D03*
G01X-2000790Y0708330D03*
G01X-2346070Y4712030D03*
G54D23*
G01X-2957680Y4432700D02*
G01X-3122050Y4432700D01*
G01X-3122050Y4353960D02*
G01X-2957680Y4353960D01*
G54D26*
G01X-2935640Y4353960D03*
G01X-2935640Y4432700D03*
G54D25*
G01X-1043290Y4233330D02*
G01X-1043290Y4203330D01*
M02*
