G75*
%MOIN*%
%OFA0B0*%
%FSLAX25Y25*%
%IPPOS*%
%LPD*%
%AMOC8*
5,1,8,0,0,1.08239X$1,22.5*
%
%ADD10C,0.00709*%
%ADD11C,0.00488*%
%ADD12C,0.00200*%
%ADD13C,0.00320*%
%ADD14C,0.00236*%
%ADD15R,0.01969X0.01969*%
%ADD16C,0.00440*%
%ADD17C,0.00906*%
%ADD18C,0.00591*%
%ADD19C,0.00472*%
%ADD20C,0.00315*%
%ADD21C,0.00197*%
%ADD22R,0.01181X0.01575*%
%ADD23C,0.00748*%
%ADD24C,0.00650*%
D10*
X0130016Y0075044D02*
X0130016Y0081422D01*
X0132850Y0081422D01*
X0132850Y0075044D01*
X0130016Y0075044D01*
X0130016Y0075752D02*
X0132850Y0075752D01*
X0132850Y0076460D02*
X0130016Y0076460D01*
X0130016Y0077168D02*
X0132850Y0077168D01*
X0132850Y0077876D02*
X0130016Y0077876D01*
X0130016Y0078584D02*
X0132850Y0078584D01*
X0132850Y0079292D02*
X0130016Y0079292D01*
X0130016Y0080000D02*
X0132850Y0080000D01*
X0132850Y0080708D02*
X0130016Y0080708D01*
X0130016Y0081416D02*
X0132850Y0081416D01*
X0140016Y0081422D02*
X0140016Y0075044D01*
X0140016Y0081422D02*
X0142850Y0081422D01*
X0142850Y0075044D01*
X0140016Y0075044D01*
X0140016Y0075752D02*
X0142850Y0075752D01*
X0142850Y0076460D02*
X0140016Y0076460D01*
X0140016Y0077168D02*
X0142850Y0077168D01*
X0142850Y0077876D02*
X0140016Y0077876D01*
X0140016Y0078584D02*
X0142850Y0078584D01*
X0142850Y0079292D02*
X0140016Y0079292D01*
X0140016Y0080000D02*
X0142850Y0080000D01*
X0142850Y0080708D02*
X0140016Y0080708D01*
X0140016Y0081416D02*
X0142850Y0081416D01*
X0150016Y0081422D02*
X0150016Y0075044D01*
X0150016Y0081422D02*
X0152850Y0081422D01*
X0152850Y0075044D01*
X0150016Y0075044D01*
X0150016Y0075752D02*
X0152850Y0075752D01*
X0152850Y0076460D02*
X0150016Y0076460D01*
X0150016Y0077168D02*
X0152850Y0077168D01*
X0152850Y0077876D02*
X0150016Y0077876D01*
X0150016Y0078584D02*
X0152850Y0078584D01*
X0152850Y0079292D02*
X0150016Y0079292D01*
X0150016Y0080000D02*
X0152850Y0080000D01*
X0152850Y0080708D02*
X0150016Y0080708D01*
X0150016Y0081416D02*
X0152850Y0081416D01*
X0160016Y0081422D02*
X0160016Y0075044D01*
X0160016Y0081422D02*
X0162850Y0081422D01*
X0162850Y0075044D01*
X0160016Y0075044D01*
X0160016Y0075752D02*
X0162850Y0075752D01*
X0162850Y0076460D02*
X0160016Y0076460D01*
X0160016Y0077168D02*
X0162850Y0077168D01*
X0162850Y0077876D02*
X0160016Y0077876D01*
X0160016Y0078584D02*
X0162850Y0078584D01*
X0162850Y0079292D02*
X0160016Y0079292D01*
X0160016Y0080000D02*
X0162850Y0080000D01*
X0162850Y0080708D02*
X0160016Y0080708D01*
X0160016Y0081416D02*
X0162850Y0081416D01*
X0160016Y0100044D02*
X0160016Y0106422D01*
X0162850Y0106422D01*
X0162850Y0100044D01*
X0160016Y0100044D01*
X0160016Y0100752D02*
X0162850Y0100752D01*
X0162850Y0101460D02*
X0160016Y0101460D01*
X0160016Y0102168D02*
X0162850Y0102168D01*
X0162850Y0102876D02*
X0160016Y0102876D01*
X0160016Y0103584D02*
X0162850Y0103584D01*
X0162850Y0104292D02*
X0160016Y0104292D01*
X0160016Y0105000D02*
X0162850Y0105000D01*
X0162850Y0105708D02*
X0160016Y0105708D01*
X0160016Y0106416D02*
X0162850Y0106416D01*
X0150016Y0106422D02*
X0150016Y0100044D01*
X0150016Y0106422D02*
X0152850Y0106422D01*
X0152850Y0100044D01*
X0150016Y0100044D01*
X0150016Y0100752D02*
X0152850Y0100752D01*
X0152850Y0101460D02*
X0150016Y0101460D01*
X0150016Y0102168D02*
X0152850Y0102168D01*
X0152850Y0102876D02*
X0150016Y0102876D01*
X0150016Y0103584D02*
X0152850Y0103584D01*
X0152850Y0104292D02*
X0150016Y0104292D01*
X0150016Y0105000D02*
X0152850Y0105000D01*
X0152850Y0105708D02*
X0150016Y0105708D01*
X0150016Y0106416D02*
X0152850Y0106416D01*
X0140016Y0106422D02*
X0140016Y0100044D01*
X0140016Y0106422D02*
X0142850Y0106422D01*
X0142850Y0100044D01*
X0140016Y0100044D01*
X0140016Y0100752D02*
X0142850Y0100752D01*
X0142850Y0101460D02*
X0140016Y0101460D01*
X0140016Y0102168D02*
X0142850Y0102168D01*
X0142850Y0102876D02*
X0140016Y0102876D01*
X0140016Y0103584D02*
X0142850Y0103584D01*
X0142850Y0104292D02*
X0140016Y0104292D01*
X0140016Y0105000D02*
X0142850Y0105000D01*
X0142850Y0105708D02*
X0140016Y0105708D01*
X0140016Y0106416D02*
X0142850Y0106416D01*
X0130016Y0106422D02*
X0130016Y0100044D01*
X0130016Y0106422D02*
X0132850Y0106422D01*
X0132850Y0100044D01*
X0130016Y0100044D01*
X0130016Y0100752D02*
X0132850Y0100752D01*
X0132850Y0101460D02*
X0130016Y0101460D01*
X0130016Y0102168D02*
X0132850Y0102168D01*
X0132850Y0102876D02*
X0130016Y0102876D01*
X0130016Y0103584D02*
X0132850Y0103584D01*
X0132850Y0104292D02*
X0130016Y0104292D01*
X0130016Y0105000D02*
X0132850Y0105000D01*
X0132850Y0105708D02*
X0130016Y0105708D01*
X0130016Y0106416D02*
X0132850Y0106416D01*
X0130016Y0250044D02*
X0130016Y0256422D01*
X0132850Y0256422D01*
X0132850Y0250044D01*
X0130016Y0250044D01*
X0130016Y0250752D02*
X0132850Y0250752D01*
X0132850Y0251460D02*
X0130016Y0251460D01*
X0130016Y0252168D02*
X0132850Y0252168D01*
X0132850Y0252876D02*
X0130016Y0252876D01*
X0130016Y0253584D02*
X0132850Y0253584D01*
X0132850Y0254292D02*
X0130016Y0254292D01*
X0130016Y0255000D02*
X0132850Y0255000D01*
X0132850Y0255708D02*
X0130016Y0255708D01*
X0130016Y0256416D02*
X0132850Y0256416D01*
X0140016Y0256422D02*
X0140016Y0250044D01*
X0140016Y0256422D02*
X0142850Y0256422D01*
X0142850Y0250044D01*
X0140016Y0250044D01*
X0140016Y0250752D02*
X0142850Y0250752D01*
X0142850Y0251460D02*
X0140016Y0251460D01*
X0140016Y0252168D02*
X0142850Y0252168D01*
X0142850Y0252876D02*
X0140016Y0252876D01*
X0140016Y0253584D02*
X0142850Y0253584D01*
X0142850Y0254292D02*
X0140016Y0254292D01*
X0140016Y0255000D02*
X0142850Y0255000D01*
X0142850Y0255708D02*
X0140016Y0255708D01*
X0140016Y0256416D02*
X0142850Y0256416D01*
X0150016Y0256422D02*
X0150016Y0250044D01*
X0150016Y0256422D02*
X0152850Y0256422D01*
X0152850Y0250044D01*
X0150016Y0250044D01*
X0150016Y0250752D02*
X0152850Y0250752D01*
X0152850Y0251460D02*
X0150016Y0251460D01*
X0150016Y0252168D02*
X0152850Y0252168D01*
X0152850Y0252876D02*
X0150016Y0252876D01*
X0150016Y0253584D02*
X0152850Y0253584D01*
X0152850Y0254292D02*
X0150016Y0254292D01*
X0150016Y0255000D02*
X0152850Y0255000D01*
X0152850Y0255708D02*
X0150016Y0255708D01*
X0150016Y0256416D02*
X0152850Y0256416D01*
X0160016Y0256422D02*
X0160016Y0250044D01*
X0160016Y0256422D02*
X0162850Y0256422D01*
X0162850Y0250044D01*
X0160016Y0250044D01*
X0160016Y0250752D02*
X0162850Y0250752D01*
X0162850Y0251460D02*
X0160016Y0251460D01*
X0160016Y0252168D02*
X0162850Y0252168D01*
X0162850Y0252876D02*
X0160016Y0252876D01*
X0160016Y0253584D02*
X0162850Y0253584D01*
X0162850Y0254292D02*
X0160016Y0254292D01*
X0160016Y0255000D02*
X0162850Y0255000D01*
X0162850Y0255708D02*
X0160016Y0255708D01*
X0160016Y0256416D02*
X0162850Y0256416D01*
X0160016Y0275044D02*
X0160016Y0281422D01*
X0162850Y0281422D01*
X0162850Y0275044D01*
X0160016Y0275044D01*
X0160016Y0275752D02*
X0162850Y0275752D01*
X0162850Y0276460D02*
X0160016Y0276460D01*
X0160016Y0277168D02*
X0162850Y0277168D01*
X0162850Y0277876D02*
X0160016Y0277876D01*
X0160016Y0278584D02*
X0162850Y0278584D01*
X0162850Y0279292D02*
X0160016Y0279292D01*
X0160016Y0280000D02*
X0162850Y0280000D01*
X0162850Y0280708D02*
X0160016Y0280708D01*
X0160016Y0281416D02*
X0162850Y0281416D01*
X0150016Y0281422D02*
X0150016Y0275044D01*
X0150016Y0281422D02*
X0152850Y0281422D01*
X0152850Y0275044D01*
X0150016Y0275044D01*
X0150016Y0275752D02*
X0152850Y0275752D01*
X0152850Y0276460D02*
X0150016Y0276460D01*
X0150016Y0277168D02*
X0152850Y0277168D01*
X0152850Y0277876D02*
X0150016Y0277876D01*
X0150016Y0278584D02*
X0152850Y0278584D01*
X0152850Y0279292D02*
X0150016Y0279292D01*
X0150016Y0280000D02*
X0152850Y0280000D01*
X0152850Y0280708D02*
X0150016Y0280708D01*
X0150016Y0281416D02*
X0152850Y0281416D01*
X0140016Y0281422D02*
X0140016Y0275044D01*
X0140016Y0281422D02*
X0142850Y0281422D01*
X0142850Y0275044D01*
X0140016Y0275044D01*
X0140016Y0275752D02*
X0142850Y0275752D01*
X0142850Y0276460D02*
X0140016Y0276460D01*
X0140016Y0277168D02*
X0142850Y0277168D01*
X0142850Y0277876D02*
X0140016Y0277876D01*
X0140016Y0278584D02*
X0142850Y0278584D01*
X0142850Y0279292D02*
X0140016Y0279292D01*
X0140016Y0280000D02*
X0142850Y0280000D01*
X0142850Y0280708D02*
X0140016Y0280708D01*
X0140016Y0281416D02*
X0142850Y0281416D01*
X0130016Y0281422D02*
X0130016Y0275044D01*
X0130016Y0281422D02*
X0132850Y0281422D01*
X0132850Y0275044D01*
X0130016Y0275044D01*
X0130016Y0275752D02*
X0132850Y0275752D01*
X0132850Y0276460D02*
X0130016Y0276460D01*
X0130016Y0277168D02*
X0132850Y0277168D01*
X0132850Y0277876D02*
X0130016Y0277876D01*
X0130016Y0278584D02*
X0132850Y0278584D01*
X0132850Y0279292D02*
X0130016Y0279292D01*
X0130016Y0280000D02*
X0132850Y0280000D01*
X0132850Y0280708D02*
X0130016Y0280708D01*
X0130016Y0281416D02*
X0132850Y0281416D01*
X0357850Y0281422D02*
X0357850Y0275044D01*
X0355016Y0275044D01*
X0355016Y0281422D01*
X0357850Y0281422D01*
X0357850Y0275752D02*
X0355016Y0275752D01*
X0355016Y0276460D02*
X0357850Y0276460D01*
X0357850Y0277168D02*
X0355016Y0277168D01*
X0355016Y0277876D02*
X0357850Y0277876D01*
X0357850Y0278584D02*
X0355016Y0278584D01*
X0355016Y0279292D02*
X0357850Y0279292D01*
X0357850Y0280000D02*
X0355016Y0280000D01*
X0355016Y0280708D02*
X0357850Y0280708D01*
X0357850Y0281416D02*
X0355016Y0281416D01*
X0367850Y0281422D02*
X0367850Y0275044D01*
X0365016Y0275044D01*
X0365016Y0281422D01*
X0367850Y0281422D01*
X0367850Y0275752D02*
X0365016Y0275752D01*
X0365016Y0276460D02*
X0367850Y0276460D01*
X0367850Y0277168D02*
X0365016Y0277168D01*
X0365016Y0277876D02*
X0367850Y0277876D01*
X0367850Y0278584D02*
X0365016Y0278584D01*
X0365016Y0279292D02*
X0367850Y0279292D01*
X0367850Y0280000D02*
X0365016Y0280000D01*
X0365016Y0280708D02*
X0367850Y0280708D01*
X0367850Y0281416D02*
X0365016Y0281416D01*
X0377850Y0281422D02*
X0377850Y0275044D01*
X0375016Y0275044D01*
X0375016Y0281422D01*
X0377850Y0281422D01*
X0377850Y0275752D02*
X0375016Y0275752D01*
X0375016Y0276460D02*
X0377850Y0276460D01*
X0377850Y0277168D02*
X0375016Y0277168D01*
X0375016Y0277876D02*
X0377850Y0277876D01*
X0377850Y0278584D02*
X0375016Y0278584D01*
X0375016Y0279292D02*
X0377850Y0279292D01*
X0377850Y0280000D02*
X0375016Y0280000D01*
X0375016Y0280708D02*
X0377850Y0280708D01*
X0377850Y0281416D02*
X0375016Y0281416D01*
X0387850Y0281422D02*
X0387850Y0275044D01*
X0385016Y0275044D01*
X0385016Y0281422D01*
X0387850Y0281422D01*
X0387850Y0275752D02*
X0385016Y0275752D01*
X0385016Y0276460D02*
X0387850Y0276460D01*
X0387850Y0277168D02*
X0385016Y0277168D01*
X0385016Y0277876D02*
X0387850Y0277876D01*
X0387850Y0278584D02*
X0385016Y0278584D01*
X0385016Y0279292D02*
X0387850Y0279292D01*
X0387850Y0280000D02*
X0385016Y0280000D01*
X0385016Y0280708D02*
X0387850Y0280708D01*
X0387850Y0281416D02*
X0385016Y0281416D01*
X0387850Y0256422D02*
X0387850Y0250044D01*
X0385016Y0250044D01*
X0385016Y0256422D01*
X0387850Y0256422D01*
X0387850Y0250752D02*
X0385016Y0250752D01*
X0385016Y0251460D02*
X0387850Y0251460D01*
X0387850Y0252168D02*
X0385016Y0252168D01*
X0385016Y0252876D02*
X0387850Y0252876D01*
X0387850Y0253584D02*
X0385016Y0253584D01*
X0385016Y0254292D02*
X0387850Y0254292D01*
X0387850Y0255000D02*
X0385016Y0255000D01*
X0385016Y0255708D02*
X0387850Y0255708D01*
X0387850Y0256416D02*
X0385016Y0256416D01*
X0377850Y0256422D02*
X0377850Y0250044D01*
X0375016Y0250044D01*
X0375016Y0256422D01*
X0377850Y0256422D01*
X0377850Y0250752D02*
X0375016Y0250752D01*
X0375016Y0251460D02*
X0377850Y0251460D01*
X0377850Y0252168D02*
X0375016Y0252168D01*
X0375016Y0252876D02*
X0377850Y0252876D01*
X0377850Y0253584D02*
X0375016Y0253584D01*
X0375016Y0254292D02*
X0377850Y0254292D01*
X0377850Y0255000D02*
X0375016Y0255000D01*
X0375016Y0255708D02*
X0377850Y0255708D01*
X0377850Y0256416D02*
X0375016Y0256416D01*
X0367850Y0256422D02*
X0367850Y0250044D01*
X0365016Y0250044D01*
X0365016Y0256422D01*
X0367850Y0256422D01*
X0367850Y0250752D02*
X0365016Y0250752D01*
X0365016Y0251460D02*
X0367850Y0251460D01*
X0367850Y0252168D02*
X0365016Y0252168D01*
X0365016Y0252876D02*
X0367850Y0252876D01*
X0367850Y0253584D02*
X0365016Y0253584D01*
X0365016Y0254292D02*
X0367850Y0254292D01*
X0367850Y0255000D02*
X0365016Y0255000D01*
X0365016Y0255708D02*
X0367850Y0255708D01*
X0367850Y0256416D02*
X0365016Y0256416D01*
X0357850Y0256422D02*
X0357850Y0250044D01*
X0355016Y0250044D01*
X0355016Y0256422D01*
X0357850Y0256422D01*
X0357850Y0250752D02*
X0355016Y0250752D01*
X0355016Y0251460D02*
X0357850Y0251460D01*
X0357850Y0252168D02*
X0355016Y0252168D01*
X0355016Y0252876D02*
X0357850Y0252876D01*
X0357850Y0253584D02*
X0355016Y0253584D01*
X0355016Y0254292D02*
X0357850Y0254292D01*
X0357850Y0255000D02*
X0355016Y0255000D01*
X0355016Y0255708D02*
X0357850Y0255708D01*
X0357850Y0256416D02*
X0355016Y0256416D01*
X0357850Y0106422D02*
X0357850Y0100044D01*
X0355016Y0100044D01*
X0355016Y0106422D01*
X0357850Y0106422D01*
X0357850Y0100752D02*
X0355016Y0100752D01*
X0355016Y0101460D02*
X0357850Y0101460D01*
X0357850Y0102168D02*
X0355016Y0102168D01*
X0355016Y0102876D02*
X0357850Y0102876D01*
X0357850Y0103584D02*
X0355016Y0103584D01*
X0355016Y0104292D02*
X0357850Y0104292D01*
X0357850Y0105000D02*
X0355016Y0105000D01*
X0355016Y0105708D02*
X0357850Y0105708D01*
X0357850Y0106416D02*
X0355016Y0106416D01*
X0367850Y0106422D02*
X0367850Y0100044D01*
X0365016Y0100044D01*
X0365016Y0106422D01*
X0367850Y0106422D01*
X0367850Y0100752D02*
X0365016Y0100752D01*
X0365016Y0101460D02*
X0367850Y0101460D01*
X0367850Y0102168D02*
X0365016Y0102168D01*
X0365016Y0102876D02*
X0367850Y0102876D01*
X0367850Y0103584D02*
X0365016Y0103584D01*
X0365016Y0104292D02*
X0367850Y0104292D01*
X0367850Y0105000D02*
X0365016Y0105000D01*
X0365016Y0105708D02*
X0367850Y0105708D01*
X0367850Y0106416D02*
X0365016Y0106416D01*
X0377850Y0106422D02*
X0377850Y0100044D01*
X0375016Y0100044D01*
X0375016Y0106422D01*
X0377850Y0106422D01*
X0377850Y0100752D02*
X0375016Y0100752D01*
X0375016Y0101460D02*
X0377850Y0101460D01*
X0377850Y0102168D02*
X0375016Y0102168D01*
X0375016Y0102876D02*
X0377850Y0102876D01*
X0377850Y0103584D02*
X0375016Y0103584D01*
X0375016Y0104292D02*
X0377850Y0104292D01*
X0377850Y0105000D02*
X0375016Y0105000D01*
X0375016Y0105708D02*
X0377850Y0105708D01*
X0377850Y0106416D02*
X0375016Y0106416D01*
X0387850Y0106422D02*
X0387850Y0100044D01*
X0385016Y0100044D01*
X0385016Y0106422D01*
X0387850Y0106422D01*
X0387850Y0100752D02*
X0385016Y0100752D01*
X0385016Y0101460D02*
X0387850Y0101460D01*
X0387850Y0102168D02*
X0385016Y0102168D01*
X0385016Y0102876D02*
X0387850Y0102876D01*
X0387850Y0103584D02*
X0385016Y0103584D01*
X0385016Y0104292D02*
X0387850Y0104292D01*
X0387850Y0105000D02*
X0385016Y0105000D01*
X0385016Y0105708D02*
X0387850Y0105708D01*
X0387850Y0106416D02*
X0385016Y0106416D01*
X0387850Y0081422D02*
X0387850Y0075044D01*
X0385016Y0075044D01*
X0385016Y0081422D01*
X0387850Y0081422D01*
X0387850Y0075752D02*
X0385016Y0075752D01*
X0385016Y0076460D02*
X0387850Y0076460D01*
X0387850Y0077168D02*
X0385016Y0077168D01*
X0385016Y0077876D02*
X0387850Y0077876D01*
X0387850Y0078584D02*
X0385016Y0078584D01*
X0385016Y0079292D02*
X0387850Y0079292D01*
X0387850Y0080000D02*
X0385016Y0080000D01*
X0385016Y0080708D02*
X0387850Y0080708D01*
X0387850Y0081416D02*
X0385016Y0081416D01*
X0377850Y0081422D02*
X0377850Y0075044D01*
X0375016Y0075044D01*
X0375016Y0081422D01*
X0377850Y0081422D01*
X0377850Y0075752D02*
X0375016Y0075752D01*
X0375016Y0076460D02*
X0377850Y0076460D01*
X0377850Y0077168D02*
X0375016Y0077168D01*
X0375016Y0077876D02*
X0377850Y0077876D01*
X0377850Y0078584D02*
X0375016Y0078584D01*
X0375016Y0079292D02*
X0377850Y0079292D01*
X0377850Y0080000D02*
X0375016Y0080000D01*
X0375016Y0080708D02*
X0377850Y0080708D01*
X0377850Y0081416D02*
X0375016Y0081416D01*
X0367850Y0081422D02*
X0367850Y0075044D01*
X0365016Y0075044D01*
X0365016Y0081422D01*
X0367850Y0081422D01*
X0367850Y0075752D02*
X0365016Y0075752D01*
X0365016Y0076460D02*
X0367850Y0076460D01*
X0367850Y0077168D02*
X0365016Y0077168D01*
X0365016Y0077876D02*
X0367850Y0077876D01*
X0367850Y0078584D02*
X0365016Y0078584D01*
X0365016Y0079292D02*
X0367850Y0079292D01*
X0367850Y0080000D02*
X0365016Y0080000D01*
X0365016Y0080708D02*
X0367850Y0080708D01*
X0367850Y0081416D02*
X0365016Y0081416D01*
X0357850Y0081422D02*
X0357850Y0075044D01*
X0355016Y0075044D01*
X0355016Y0081422D01*
X0357850Y0081422D01*
X0357850Y0075752D02*
X0355016Y0075752D01*
X0355016Y0076460D02*
X0357850Y0076460D01*
X0357850Y0077168D02*
X0355016Y0077168D01*
X0355016Y0077876D02*
X0357850Y0077876D01*
X0357850Y0078584D02*
X0355016Y0078584D01*
X0355016Y0079292D02*
X0357850Y0079292D01*
X0357850Y0080000D02*
X0355016Y0080000D01*
X0355016Y0080708D02*
X0357850Y0080708D01*
X0357850Y0081416D02*
X0355016Y0081416D01*
D11*
X0377409Y0111735D02*
X0377409Y0113687D01*
X0377409Y0111735D02*
X0375457Y0111735D01*
X0375457Y0113687D01*
X0377409Y0113687D01*
X0377409Y0112222D02*
X0375457Y0112222D01*
X0375457Y0112709D02*
X0377409Y0112709D01*
X0377409Y0113196D02*
X0375457Y0113196D01*
X0375457Y0113683D02*
X0377409Y0113683D01*
X0377409Y0115279D02*
X0377409Y0117231D01*
X0377409Y0115279D02*
X0375457Y0115279D01*
X0375457Y0117231D01*
X0377409Y0117231D01*
X0377409Y0115766D02*
X0375457Y0115766D01*
X0375457Y0116253D02*
X0377409Y0116253D01*
X0377409Y0116740D02*
X0375457Y0116740D01*
X0375457Y0117227D02*
X0377409Y0117227D01*
X0387409Y0117231D02*
X0387409Y0115279D01*
X0385457Y0115279D01*
X0385457Y0117231D01*
X0387409Y0117231D01*
X0387409Y0115766D02*
X0385457Y0115766D01*
X0385457Y0116253D02*
X0387409Y0116253D01*
X0387409Y0116740D02*
X0385457Y0116740D01*
X0385457Y0117227D02*
X0387409Y0117227D01*
X0387409Y0113687D02*
X0387409Y0111735D01*
X0385457Y0111735D01*
X0385457Y0113687D01*
X0387409Y0113687D01*
X0387409Y0112222D02*
X0385457Y0112222D01*
X0385457Y0112709D02*
X0387409Y0112709D01*
X0387409Y0113196D02*
X0385457Y0113196D01*
X0385457Y0113683D02*
X0387409Y0113683D01*
X0387409Y0129235D02*
X0387409Y0131187D01*
X0387409Y0129235D02*
X0385457Y0129235D01*
X0385457Y0131187D01*
X0387409Y0131187D01*
X0387409Y0129722D02*
X0385457Y0129722D01*
X0385457Y0130209D02*
X0387409Y0130209D01*
X0387409Y0130696D02*
X0385457Y0130696D01*
X0385457Y0131183D02*
X0387409Y0131183D01*
X0387409Y0132779D02*
X0387409Y0134731D01*
X0387409Y0132779D02*
X0385457Y0132779D01*
X0385457Y0134731D01*
X0387409Y0134731D01*
X0387409Y0133266D02*
X0385457Y0133266D01*
X0385457Y0133753D02*
X0387409Y0133753D01*
X0387409Y0134240D02*
X0385457Y0134240D01*
X0385457Y0134727D02*
X0387409Y0134727D01*
X0377409Y0134731D02*
X0377409Y0132779D01*
X0375457Y0132779D01*
X0375457Y0134731D01*
X0377409Y0134731D01*
X0377409Y0133266D02*
X0375457Y0133266D01*
X0375457Y0133753D02*
X0377409Y0133753D01*
X0377409Y0134240D02*
X0375457Y0134240D01*
X0375457Y0134727D02*
X0377409Y0134727D01*
X0377409Y0131187D02*
X0377409Y0129235D01*
X0375457Y0129235D01*
X0375457Y0131187D01*
X0377409Y0131187D01*
X0377409Y0129722D02*
X0375457Y0129722D01*
X0375457Y0130209D02*
X0377409Y0130209D01*
X0377409Y0130696D02*
X0375457Y0130696D01*
X0375457Y0131183D02*
X0377409Y0131183D01*
X0376681Y0144757D02*
X0374729Y0144757D01*
X0374729Y0146709D01*
X0376681Y0146709D01*
X0376681Y0144757D01*
X0376681Y0145244D02*
X0374729Y0145244D01*
X0374729Y0145731D02*
X0376681Y0145731D01*
X0376681Y0146218D02*
X0374729Y0146218D01*
X0374729Y0146705D02*
X0376681Y0146705D01*
X0373137Y0144757D02*
X0371185Y0144757D01*
X0371185Y0146709D01*
X0373137Y0146709D01*
X0373137Y0144757D01*
X0373137Y0145244D02*
X0371185Y0145244D01*
X0371185Y0145731D02*
X0373137Y0145731D01*
X0373137Y0146218D02*
X0371185Y0146218D01*
X0371185Y0146705D02*
X0373137Y0146705D01*
X0373137Y0161007D02*
X0371185Y0161007D01*
X0371185Y0162959D01*
X0373137Y0162959D01*
X0373137Y0161007D01*
X0373137Y0161494D02*
X0371185Y0161494D01*
X0371185Y0161981D02*
X0373137Y0161981D01*
X0373137Y0162468D02*
X0371185Y0162468D01*
X0371185Y0162955D02*
X0373137Y0162955D01*
X0374729Y0161007D02*
X0376681Y0161007D01*
X0374729Y0161007D02*
X0374729Y0162959D01*
X0376681Y0162959D01*
X0376681Y0161007D01*
X0376681Y0161494D02*
X0374729Y0161494D01*
X0374729Y0161981D02*
X0376681Y0161981D01*
X0376681Y0162468D02*
X0374729Y0162468D01*
X0374729Y0162955D02*
X0376681Y0162955D01*
X0376681Y0166709D02*
X0374729Y0166709D01*
X0376681Y0166709D02*
X0376681Y0164757D01*
X0374729Y0164757D01*
X0374729Y0166709D01*
X0374729Y0165244D02*
X0376681Y0165244D01*
X0376681Y0165731D02*
X0374729Y0165731D01*
X0374729Y0166218D02*
X0376681Y0166218D01*
X0376681Y0166705D02*
X0374729Y0166705D01*
X0373137Y0166709D02*
X0371185Y0166709D01*
X0373137Y0166709D02*
X0373137Y0164757D01*
X0371185Y0164757D01*
X0371185Y0166709D01*
X0371185Y0165244D02*
X0373137Y0165244D01*
X0373137Y0165731D02*
X0371185Y0165731D01*
X0371185Y0166218D02*
X0373137Y0166218D01*
X0373137Y0166705D02*
X0371185Y0166705D01*
X0387409Y0189235D02*
X0387409Y0191187D01*
X0387409Y0189235D02*
X0385457Y0189235D01*
X0385457Y0191187D01*
X0387409Y0191187D01*
X0387409Y0189722D02*
X0385457Y0189722D01*
X0385457Y0190209D02*
X0387409Y0190209D01*
X0387409Y0190696D02*
X0385457Y0190696D01*
X0385457Y0191183D02*
X0387409Y0191183D01*
X0387409Y0192779D02*
X0387409Y0194731D01*
X0387409Y0192779D02*
X0385457Y0192779D01*
X0385457Y0194731D01*
X0387409Y0194731D01*
X0387409Y0193266D02*
X0385457Y0193266D01*
X0385457Y0193753D02*
X0387409Y0193753D01*
X0387409Y0194240D02*
X0385457Y0194240D01*
X0385457Y0194727D02*
X0387409Y0194727D01*
X0387409Y0196735D02*
X0387409Y0198687D01*
X0387409Y0196735D02*
X0385457Y0196735D01*
X0385457Y0198687D01*
X0387409Y0198687D01*
X0387409Y0197222D02*
X0385457Y0197222D01*
X0385457Y0197709D02*
X0387409Y0197709D01*
X0387409Y0198196D02*
X0385457Y0198196D01*
X0385457Y0198683D02*
X0387409Y0198683D01*
X0387409Y0200279D02*
X0387409Y0202231D01*
X0387409Y0200279D02*
X0385457Y0200279D01*
X0385457Y0202231D01*
X0387409Y0202231D01*
X0387409Y0200766D02*
X0385457Y0200766D01*
X0385457Y0201253D02*
X0387409Y0201253D01*
X0387409Y0201740D02*
X0385457Y0201740D01*
X0385457Y0202227D02*
X0387409Y0202227D01*
X0372957Y0202985D02*
X0372957Y0204937D01*
X0374909Y0204937D01*
X0374909Y0202985D01*
X0372957Y0202985D01*
X0372957Y0203472D02*
X0374909Y0203472D01*
X0374909Y0203959D02*
X0372957Y0203959D01*
X0372957Y0204446D02*
X0374909Y0204446D01*
X0374909Y0204933D02*
X0372957Y0204933D01*
X0372957Y0206529D02*
X0372957Y0208481D01*
X0374909Y0208481D01*
X0374909Y0206529D01*
X0372957Y0206529D01*
X0372957Y0207016D02*
X0374909Y0207016D01*
X0374909Y0207503D02*
X0372957Y0207503D01*
X0372957Y0207990D02*
X0374909Y0207990D01*
X0374909Y0208477D02*
X0372957Y0208477D01*
X0371159Y0208481D02*
X0371159Y0206529D01*
X0369207Y0206529D01*
X0369207Y0208481D01*
X0371159Y0208481D01*
X0371159Y0207016D02*
X0369207Y0207016D01*
X0369207Y0207503D02*
X0371159Y0207503D01*
X0371159Y0207990D02*
X0369207Y0207990D01*
X0369207Y0208477D02*
X0371159Y0208477D01*
X0371159Y0204937D02*
X0371159Y0202985D01*
X0369207Y0202985D01*
X0369207Y0204937D01*
X0371159Y0204937D01*
X0371159Y0203472D02*
X0369207Y0203472D01*
X0369207Y0203959D02*
X0371159Y0203959D01*
X0371159Y0204446D02*
X0369207Y0204446D01*
X0369207Y0204933D02*
X0371159Y0204933D01*
X0367409Y0204937D02*
X0367409Y0202985D01*
X0365457Y0202985D01*
X0365457Y0204937D01*
X0367409Y0204937D01*
X0367409Y0203472D02*
X0365457Y0203472D01*
X0365457Y0203959D02*
X0367409Y0203959D01*
X0367409Y0204446D02*
X0365457Y0204446D01*
X0365457Y0204933D02*
X0367409Y0204933D01*
X0367409Y0206529D02*
X0367409Y0208481D01*
X0367409Y0206529D02*
X0365457Y0206529D01*
X0365457Y0208481D01*
X0367409Y0208481D01*
X0367409Y0207016D02*
X0365457Y0207016D01*
X0365457Y0207503D02*
X0367409Y0207503D01*
X0367409Y0207990D02*
X0365457Y0207990D01*
X0365457Y0208477D02*
X0367409Y0208477D01*
X0363659Y0208481D02*
X0363659Y0206529D01*
X0361707Y0206529D01*
X0361707Y0208481D01*
X0363659Y0208481D01*
X0363659Y0207016D02*
X0361707Y0207016D01*
X0361707Y0207503D02*
X0363659Y0207503D01*
X0363659Y0207990D02*
X0361707Y0207990D01*
X0361707Y0208477D02*
X0363659Y0208477D01*
X0363659Y0204937D02*
X0363659Y0202985D01*
X0361707Y0202985D01*
X0361707Y0204937D01*
X0363659Y0204937D01*
X0363659Y0203472D02*
X0361707Y0203472D01*
X0361707Y0203959D02*
X0363659Y0203959D01*
X0363659Y0204446D02*
X0361707Y0204446D01*
X0361707Y0204933D02*
X0363659Y0204933D01*
X0361707Y0199731D02*
X0361707Y0197779D01*
X0361707Y0199731D02*
X0363659Y0199731D01*
X0363659Y0197779D01*
X0361707Y0197779D01*
X0361707Y0198266D02*
X0363659Y0198266D01*
X0363659Y0198753D02*
X0361707Y0198753D01*
X0361707Y0199240D02*
X0363659Y0199240D01*
X0363659Y0199727D02*
X0361707Y0199727D01*
X0365457Y0199731D02*
X0365457Y0197779D01*
X0365457Y0199731D02*
X0367409Y0199731D01*
X0367409Y0197779D01*
X0365457Y0197779D01*
X0365457Y0198266D02*
X0367409Y0198266D01*
X0367409Y0198753D02*
X0365457Y0198753D01*
X0365457Y0199240D02*
X0367409Y0199240D01*
X0367409Y0199727D02*
X0365457Y0199727D01*
X0365457Y0196187D02*
X0365457Y0194235D01*
X0365457Y0196187D02*
X0367409Y0196187D01*
X0367409Y0194235D01*
X0365457Y0194235D01*
X0365457Y0194722D02*
X0367409Y0194722D01*
X0367409Y0195209D02*
X0365457Y0195209D01*
X0365457Y0195696D02*
X0367409Y0195696D01*
X0367409Y0196183D02*
X0365457Y0196183D01*
X0361707Y0196187D02*
X0361707Y0194235D01*
X0361707Y0196187D02*
X0363659Y0196187D01*
X0363659Y0194235D01*
X0361707Y0194235D01*
X0361707Y0194722D02*
X0363659Y0194722D01*
X0363659Y0195209D02*
X0361707Y0195209D01*
X0361707Y0195696D02*
X0363659Y0195696D01*
X0363659Y0196183D02*
X0361707Y0196183D01*
X0385585Y0214757D02*
X0387537Y0214757D01*
X0385585Y0214757D02*
X0385585Y0216709D01*
X0387537Y0216709D01*
X0387537Y0214757D01*
X0387537Y0215244D02*
X0385585Y0215244D01*
X0385585Y0215731D02*
X0387537Y0215731D01*
X0387537Y0216218D02*
X0385585Y0216218D01*
X0385585Y0216705D02*
X0387537Y0216705D01*
X0389129Y0214757D02*
X0391081Y0214757D01*
X0389129Y0214757D02*
X0389129Y0216709D01*
X0391081Y0216709D01*
X0391081Y0214757D01*
X0391081Y0215244D02*
X0389129Y0215244D01*
X0389129Y0215731D02*
X0391081Y0215731D01*
X0391081Y0216218D02*
X0389129Y0216218D01*
X0389129Y0216705D02*
X0391081Y0216705D01*
X0391159Y0234735D02*
X0391159Y0236687D01*
X0391159Y0234735D02*
X0389207Y0234735D01*
X0389207Y0236687D01*
X0391159Y0236687D01*
X0391159Y0235222D02*
X0389207Y0235222D01*
X0389207Y0235709D02*
X0391159Y0235709D01*
X0391159Y0236196D02*
X0389207Y0236196D01*
X0389207Y0236683D02*
X0391159Y0236683D01*
X0391159Y0238279D02*
X0391159Y0240231D01*
X0391159Y0238279D02*
X0389207Y0238279D01*
X0389207Y0240231D01*
X0391159Y0240231D01*
X0391159Y0238766D02*
X0389207Y0238766D01*
X0389207Y0239253D02*
X0391159Y0239253D01*
X0391159Y0239740D02*
X0389207Y0239740D01*
X0389207Y0240227D02*
X0391159Y0240227D01*
X0394909Y0240231D02*
X0394909Y0238279D01*
X0392957Y0238279D01*
X0392957Y0240231D01*
X0394909Y0240231D01*
X0394909Y0238766D02*
X0392957Y0238766D01*
X0392957Y0239253D02*
X0394909Y0239253D01*
X0394909Y0239740D02*
X0392957Y0239740D01*
X0392957Y0240227D02*
X0394909Y0240227D01*
X0394909Y0236687D02*
X0394909Y0234735D01*
X0392957Y0234735D01*
X0392957Y0236687D01*
X0394909Y0236687D01*
X0394909Y0235222D02*
X0392957Y0235222D01*
X0392957Y0235709D02*
X0394909Y0235709D01*
X0394909Y0236196D02*
X0392957Y0236196D01*
X0392957Y0236683D02*
X0394909Y0236683D01*
X0421207Y0264985D02*
X0421207Y0266937D01*
X0423159Y0266937D01*
X0423159Y0264985D01*
X0421207Y0264985D01*
X0421207Y0265472D02*
X0423159Y0265472D01*
X0423159Y0265959D02*
X0421207Y0265959D01*
X0421207Y0266446D02*
X0423159Y0266446D01*
X0423159Y0266933D02*
X0421207Y0266933D01*
X0421207Y0268529D02*
X0421207Y0270481D01*
X0423159Y0270481D01*
X0423159Y0268529D01*
X0421207Y0268529D01*
X0421207Y0269016D02*
X0423159Y0269016D01*
X0423159Y0269503D02*
X0421207Y0269503D01*
X0421207Y0269990D02*
X0423159Y0269990D01*
X0423159Y0270477D02*
X0421207Y0270477D01*
X0331681Y0214209D02*
X0329729Y0214209D01*
X0331681Y0214209D02*
X0331681Y0212257D01*
X0329729Y0212257D01*
X0329729Y0214209D01*
X0329729Y0212744D02*
X0331681Y0212744D01*
X0331681Y0213231D02*
X0329729Y0213231D01*
X0329729Y0213718D02*
X0331681Y0213718D01*
X0331681Y0214205D02*
X0329729Y0214205D01*
X0328137Y0214209D02*
X0326185Y0214209D01*
X0328137Y0214209D02*
X0328137Y0212257D01*
X0326185Y0212257D01*
X0326185Y0214209D01*
X0326185Y0212744D02*
X0328137Y0212744D01*
X0328137Y0213231D02*
X0326185Y0213231D01*
X0326185Y0213718D02*
X0328137Y0213718D01*
X0328137Y0214205D02*
X0326185Y0214205D01*
X0269207Y0217985D02*
X0269207Y0219937D01*
X0271159Y0219937D01*
X0271159Y0217985D01*
X0269207Y0217985D01*
X0269207Y0218472D02*
X0271159Y0218472D01*
X0271159Y0218959D02*
X0269207Y0218959D01*
X0269207Y0219446D02*
X0271159Y0219446D01*
X0271159Y0219933D02*
X0269207Y0219933D01*
X0269207Y0221529D02*
X0269207Y0223481D01*
X0271159Y0223481D01*
X0271159Y0221529D01*
X0269207Y0221529D01*
X0269207Y0222016D02*
X0271159Y0222016D01*
X0271159Y0222503D02*
X0269207Y0222503D01*
X0269207Y0222990D02*
X0271159Y0222990D01*
X0271159Y0223477D02*
X0269207Y0223477D01*
X0250457Y0184731D02*
X0250457Y0182779D01*
X0250457Y0184731D02*
X0252409Y0184731D01*
X0252409Y0182779D01*
X0250457Y0182779D01*
X0250457Y0183266D02*
X0252409Y0183266D01*
X0252409Y0183753D02*
X0250457Y0183753D01*
X0250457Y0184240D02*
X0252409Y0184240D01*
X0252409Y0184727D02*
X0250457Y0184727D01*
X0250457Y0181187D02*
X0250457Y0179235D01*
X0250457Y0181187D02*
X0252409Y0181187D01*
X0252409Y0179235D01*
X0250457Y0179235D01*
X0250457Y0179722D02*
X0252409Y0179722D01*
X0252409Y0180209D02*
X0250457Y0180209D01*
X0250457Y0180696D02*
X0252409Y0180696D01*
X0252409Y0181183D02*
X0250457Y0181183D01*
X0250457Y0177231D02*
X0250457Y0175279D01*
X0250457Y0177231D02*
X0252409Y0177231D01*
X0252409Y0175279D01*
X0250457Y0175279D01*
X0250457Y0175766D02*
X0252409Y0175766D01*
X0252409Y0176253D02*
X0250457Y0176253D01*
X0250457Y0176740D02*
X0252409Y0176740D01*
X0252409Y0177227D02*
X0250457Y0177227D01*
X0250457Y0173687D02*
X0250457Y0171735D01*
X0250457Y0173687D02*
X0252409Y0173687D01*
X0252409Y0171735D01*
X0250457Y0171735D01*
X0250457Y0172222D02*
X0252409Y0172222D01*
X0252409Y0172709D02*
X0250457Y0172709D01*
X0250457Y0173196D02*
X0252409Y0173196D01*
X0252409Y0173683D02*
X0250457Y0173683D01*
X0234181Y0177257D02*
X0232229Y0177257D01*
X0232229Y0179209D01*
X0234181Y0179209D01*
X0234181Y0177257D01*
X0234181Y0177744D02*
X0232229Y0177744D01*
X0232229Y0178231D02*
X0234181Y0178231D01*
X0234181Y0178718D02*
X0232229Y0178718D01*
X0232229Y0179205D02*
X0234181Y0179205D01*
X0234181Y0181007D02*
X0232229Y0181007D01*
X0232229Y0182959D01*
X0234181Y0182959D01*
X0234181Y0181007D01*
X0234181Y0181494D02*
X0232229Y0181494D01*
X0232229Y0181981D02*
X0234181Y0181981D01*
X0234181Y0182468D02*
X0232229Y0182468D01*
X0232229Y0182955D02*
X0234181Y0182955D01*
X0230637Y0181007D02*
X0228685Y0181007D01*
X0228685Y0182959D01*
X0230637Y0182959D01*
X0230637Y0181007D01*
X0230637Y0181494D02*
X0228685Y0181494D01*
X0228685Y0181981D02*
X0230637Y0181981D01*
X0230637Y0182468D02*
X0228685Y0182468D01*
X0228685Y0182955D02*
X0230637Y0182955D01*
X0230637Y0177257D02*
X0228685Y0177257D01*
X0228685Y0179209D01*
X0230637Y0179209D01*
X0230637Y0177257D01*
X0230637Y0177744D02*
X0228685Y0177744D01*
X0228685Y0178231D02*
X0230637Y0178231D01*
X0230637Y0178718D02*
X0228685Y0178718D01*
X0228685Y0179205D02*
X0230637Y0179205D01*
X0226681Y0179209D02*
X0224729Y0179209D01*
X0226681Y0179209D02*
X0226681Y0177257D01*
X0224729Y0177257D01*
X0224729Y0179209D01*
X0224729Y0177744D02*
X0226681Y0177744D01*
X0226681Y0178231D02*
X0224729Y0178231D01*
X0224729Y0178718D02*
X0226681Y0178718D01*
X0226681Y0179205D02*
X0224729Y0179205D01*
X0223137Y0179209D02*
X0221185Y0179209D01*
X0223137Y0179209D02*
X0223137Y0177257D01*
X0221185Y0177257D01*
X0221185Y0179209D01*
X0221185Y0177744D02*
X0223137Y0177744D01*
X0223137Y0178231D02*
X0221185Y0178231D01*
X0221185Y0178718D02*
X0223137Y0178718D01*
X0223137Y0179205D02*
X0221185Y0179205D01*
X0221185Y0182959D02*
X0223137Y0182959D01*
X0223137Y0181007D01*
X0221185Y0181007D01*
X0221185Y0182959D01*
X0221185Y0181494D02*
X0223137Y0181494D01*
X0223137Y0181981D02*
X0221185Y0181981D01*
X0221185Y0182468D02*
X0223137Y0182468D01*
X0223137Y0182955D02*
X0221185Y0182955D01*
X0224729Y0182959D02*
X0226681Y0182959D01*
X0226681Y0181007D01*
X0224729Y0181007D01*
X0224729Y0182959D01*
X0224729Y0181494D02*
X0226681Y0181494D01*
X0226681Y0181981D02*
X0224729Y0181981D01*
X0224729Y0182468D02*
X0226681Y0182468D01*
X0226681Y0182955D02*
X0224729Y0182955D01*
X0224729Y0172959D02*
X0226681Y0172959D01*
X0226681Y0171007D01*
X0224729Y0171007D01*
X0224729Y0172959D01*
X0224729Y0171494D02*
X0226681Y0171494D01*
X0226681Y0171981D02*
X0224729Y0171981D01*
X0224729Y0172468D02*
X0226681Y0172468D01*
X0226681Y0172955D02*
X0224729Y0172955D01*
X0223137Y0172959D02*
X0221185Y0172959D01*
X0223137Y0172959D02*
X0223137Y0171007D01*
X0221185Y0171007D01*
X0221185Y0172959D01*
X0221185Y0171494D02*
X0223137Y0171494D01*
X0223137Y0171981D02*
X0221185Y0171981D01*
X0221185Y0172468D02*
X0223137Y0172468D01*
X0223137Y0172955D02*
X0221185Y0172955D01*
X0221185Y0169209D02*
X0223137Y0169209D01*
X0223137Y0167257D01*
X0221185Y0167257D01*
X0221185Y0169209D01*
X0221185Y0167744D02*
X0223137Y0167744D01*
X0223137Y0168231D02*
X0221185Y0168231D01*
X0221185Y0168718D02*
X0223137Y0168718D01*
X0223137Y0169205D02*
X0221185Y0169205D01*
X0224729Y0169209D02*
X0226681Y0169209D01*
X0226681Y0167257D01*
X0224729Y0167257D01*
X0224729Y0169209D01*
X0224729Y0167744D02*
X0226681Y0167744D01*
X0226681Y0168231D02*
X0224729Y0168231D01*
X0224729Y0168718D02*
X0226681Y0168718D01*
X0226681Y0169205D02*
X0224729Y0169205D01*
X0191681Y0142257D02*
X0189729Y0142257D01*
X0189729Y0144209D01*
X0191681Y0144209D01*
X0191681Y0142257D01*
X0191681Y0142744D02*
X0189729Y0142744D01*
X0189729Y0143231D02*
X0191681Y0143231D01*
X0191681Y0143718D02*
X0189729Y0143718D01*
X0189729Y0144205D02*
X0191681Y0144205D01*
X0188137Y0142257D02*
X0186185Y0142257D01*
X0186185Y0144209D01*
X0188137Y0144209D01*
X0188137Y0142257D01*
X0188137Y0142744D02*
X0186185Y0142744D01*
X0186185Y0143231D02*
X0188137Y0143231D01*
X0188137Y0143718D02*
X0186185Y0143718D01*
X0186185Y0144205D02*
X0188137Y0144205D01*
X0154207Y0147985D02*
X0154207Y0149937D01*
X0156159Y0149937D01*
X0156159Y0147985D01*
X0154207Y0147985D01*
X0154207Y0148472D02*
X0156159Y0148472D01*
X0156159Y0148959D02*
X0154207Y0148959D01*
X0154207Y0149446D02*
X0156159Y0149446D01*
X0156159Y0149933D02*
X0154207Y0149933D01*
X0154207Y0151529D02*
X0154207Y0153481D01*
X0156159Y0153481D01*
X0156159Y0151529D01*
X0154207Y0151529D01*
X0154207Y0152016D02*
X0156159Y0152016D01*
X0156159Y0152503D02*
X0154207Y0152503D01*
X0154207Y0152990D02*
X0156159Y0152990D01*
X0156159Y0153477D02*
X0154207Y0153477D01*
X0150457Y0153481D02*
X0150457Y0151529D01*
X0150457Y0153481D02*
X0152409Y0153481D01*
X0152409Y0151529D01*
X0150457Y0151529D01*
X0150457Y0152016D02*
X0152409Y0152016D01*
X0152409Y0152503D02*
X0150457Y0152503D01*
X0150457Y0152990D02*
X0152409Y0152990D01*
X0152409Y0153477D02*
X0150457Y0153477D01*
X0146707Y0153481D02*
X0146707Y0151529D01*
X0146707Y0153481D02*
X0148659Y0153481D01*
X0148659Y0151529D01*
X0146707Y0151529D01*
X0146707Y0152016D02*
X0148659Y0152016D01*
X0148659Y0152503D02*
X0146707Y0152503D01*
X0146707Y0152990D02*
X0148659Y0152990D01*
X0148659Y0153477D02*
X0146707Y0153477D01*
X0144909Y0153481D02*
X0144909Y0151529D01*
X0142957Y0151529D01*
X0142957Y0153481D01*
X0144909Y0153481D01*
X0144909Y0152016D02*
X0142957Y0152016D01*
X0142957Y0152503D02*
X0144909Y0152503D01*
X0144909Y0152990D02*
X0142957Y0152990D01*
X0142957Y0153477D02*
X0144909Y0153477D01*
X0144909Y0149937D02*
X0144909Y0147985D01*
X0142957Y0147985D01*
X0142957Y0149937D01*
X0144909Y0149937D01*
X0144909Y0148472D02*
X0142957Y0148472D01*
X0142957Y0148959D02*
X0144909Y0148959D01*
X0144909Y0149446D02*
X0142957Y0149446D01*
X0142957Y0149933D02*
X0144909Y0149933D01*
X0146707Y0149937D02*
X0146707Y0147985D01*
X0146707Y0149937D02*
X0148659Y0149937D01*
X0148659Y0147985D01*
X0146707Y0147985D01*
X0146707Y0148472D02*
X0148659Y0148472D01*
X0148659Y0148959D02*
X0146707Y0148959D01*
X0146707Y0149446D02*
X0148659Y0149446D01*
X0148659Y0149933D02*
X0146707Y0149933D01*
X0150457Y0149937D02*
X0150457Y0147985D01*
X0150457Y0149937D02*
X0152409Y0149937D01*
X0152409Y0147985D01*
X0150457Y0147985D01*
X0150457Y0148472D02*
X0152409Y0148472D01*
X0152409Y0148959D02*
X0150457Y0148959D01*
X0150457Y0149446D02*
X0152409Y0149446D01*
X0152409Y0149933D02*
X0150457Y0149933D01*
X0152409Y0156735D02*
X0152409Y0158687D01*
X0152409Y0156735D02*
X0150457Y0156735D01*
X0150457Y0158687D01*
X0152409Y0158687D01*
X0152409Y0157222D02*
X0150457Y0157222D01*
X0150457Y0157709D02*
X0152409Y0157709D01*
X0152409Y0158196D02*
X0150457Y0158196D01*
X0150457Y0158683D02*
X0152409Y0158683D01*
X0152409Y0160279D02*
X0152409Y0162231D01*
X0152409Y0160279D02*
X0150457Y0160279D01*
X0150457Y0162231D01*
X0152409Y0162231D01*
X0152409Y0160766D02*
X0150457Y0160766D01*
X0150457Y0161253D02*
X0152409Y0161253D01*
X0152409Y0161740D02*
X0150457Y0161740D01*
X0150457Y0162227D02*
X0152409Y0162227D01*
X0156159Y0162231D02*
X0156159Y0160279D01*
X0154207Y0160279D01*
X0154207Y0162231D01*
X0156159Y0162231D01*
X0156159Y0160766D02*
X0154207Y0160766D01*
X0154207Y0161253D02*
X0156159Y0161253D01*
X0156159Y0161740D02*
X0154207Y0161740D01*
X0154207Y0162227D02*
X0156159Y0162227D01*
X0156159Y0158687D02*
X0156159Y0156735D01*
X0154207Y0156735D01*
X0154207Y0158687D01*
X0156159Y0158687D01*
X0156159Y0157222D02*
X0154207Y0157222D01*
X0154207Y0157709D02*
X0156159Y0157709D01*
X0156159Y0158196D02*
X0154207Y0158196D01*
X0154207Y0158683D02*
X0156159Y0158683D01*
X0132181Y0141709D02*
X0130229Y0141709D01*
X0132181Y0141709D02*
X0132181Y0139757D01*
X0130229Y0139757D01*
X0130229Y0141709D01*
X0130229Y0140244D02*
X0132181Y0140244D01*
X0132181Y0140731D02*
X0130229Y0140731D01*
X0130229Y0141218D02*
X0132181Y0141218D01*
X0132181Y0141705D02*
X0130229Y0141705D01*
X0128637Y0141709D02*
X0126685Y0141709D01*
X0128637Y0141709D02*
X0128637Y0139757D01*
X0126685Y0139757D01*
X0126685Y0141709D01*
X0126685Y0140244D02*
X0128637Y0140244D01*
X0128637Y0140731D02*
X0126685Y0140731D01*
X0126685Y0141218D02*
X0128637Y0141218D01*
X0128637Y0141705D02*
X0126685Y0141705D01*
X0126707Y0121731D02*
X0126707Y0119779D01*
X0126707Y0121731D02*
X0128659Y0121731D01*
X0128659Y0119779D01*
X0126707Y0119779D01*
X0126707Y0120266D02*
X0128659Y0120266D01*
X0128659Y0120753D02*
X0126707Y0120753D01*
X0126707Y0121240D02*
X0128659Y0121240D01*
X0128659Y0121727D02*
X0126707Y0121727D01*
X0122957Y0121731D02*
X0122957Y0119779D01*
X0122957Y0121731D02*
X0124909Y0121731D01*
X0124909Y0119779D01*
X0122957Y0119779D01*
X0122957Y0120266D02*
X0124909Y0120266D01*
X0124909Y0120753D02*
X0122957Y0120753D01*
X0122957Y0121240D02*
X0124909Y0121240D01*
X0124909Y0121727D02*
X0122957Y0121727D01*
X0122957Y0118187D02*
X0122957Y0116235D01*
X0122957Y0118187D02*
X0124909Y0118187D01*
X0124909Y0116235D01*
X0122957Y0116235D01*
X0122957Y0116722D02*
X0124909Y0116722D01*
X0124909Y0117209D02*
X0122957Y0117209D01*
X0122957Y0117696D02*
X0124909Y0117696D01*
X0124909Y0118183D02*
X0122957Y0118183D01*
X0126707Y0118187D02*
X0126707Y0116235D01*
X0126707Y0118187D02*
X0128659Y0118187D01*
X0128659Y0116235D01*
X0126707Y0116235D01*
X0126707Y0116722D02*
X0128659Y0116722D01*
X0128659Y0117209D02*
X0126707Y0117209D01*
X0126707Y0117696D02*
X0128659Y0117696D01*
X0128659Y0118183D02*
X0126707Y0118183D01*
X0107957Y0089731D02*
X0107957Y0087779D01*
X0107957Y0089731D02*
X0109909Y0089731D01*
X0109909Y0087779D01*
X0107957Y0087779D01*
X0107957Y0088266D02*
X0109909Y0088266D01*
X0109909Y0088753D02*
X0107957Y0088753D01*
X0107957Y0089240D02*
X0109909Y0089240D01*
X0109909Y0089727D02*
X0107957Y0089727D01*
X0107957Y0086187D02*
X0107957Y0084235D01*
X0107957Y0086187D02*
X0109909Y0086187D01*
X0109909Y0084235D01*
X0107957Y0084235D01*
X0107957Y0084722D02*
X0109909Y0084722D01*
X0109909Y0085209D02*
X0107957Y0085209D01*
X0107957Y0085696D02*
X0109909Y0085696D01*
X0109909Y0086183D02*
X0107957Y0086183D01*
X0086681Y0099875D02*
X0084729Y0099875D01*
X0084729Y0101827D01*
X0086681Y0101827D01*
X0086681Y0099875D01*
X0086681Y0100362D02*
X0084729Y0100362D01*
X0084729Y0100849D02*
X0086681Y0100849D01*
X0086681Y0101336D02*
X0084729Y0101336D01*
X0084729Y0101823D02*
X0086681Y0101823D01*
X0086681Y0104206D02*
X0084729Y0104206D01*
X0084729Y0106158D01*
X0086681Y0106158D01*
X0086681Y0104206D01*
X0086681Y0104693D02*
X0084729Y0104693D01*
X0084729Y0105180D02*
X0086681Y0105180D01*
X0086681Y0105667D02*
X0084729Y0105667D01*
X0084729Y0106154D02*
X0086681Y0106154D01*
X0086681Y0108537D02*
X0084729Y0108537D01*
X0084729Y0110489D01*
X0086681Y0110489D01*
X0086681Y0108537D01*
X0086681Y0109024D02*
X0084729Y0109024D01*
X0084729Y0109511D02*
X0086681Y0109511D01*
X0086681Y0109998D02*
X0084729Y0109998D01*
X0084729Y0110485D02*
X0086681Y0110485D01*
X0083137Y0108537D02*
X0081185Y0108537D01*
X0081185Y0110489D01*
X0083137Y0110489D01*
X0083137Y0108537D01*
X0083137Y0109024D02*
X0081185Y0109024D01*
X0081185Y0109511D02*
X0083137Y0109511D01*
X0083137Y0109998D02*
X0081185Y0109998D01*
X0081185Y0110485D02*
X0083137Y0110485D01*
X0083137Y0104206D02*
X0081185Y0104206D01*
X0081185Y0106158D01*
X0083137Y0106158D01*
X0083137Y0104206D01*
X0083137Y0104693D02*
X0081185Y0104693D01*
X0081185Y0105180D02*
X0083137Y0105180D01*
X0083137Y0105667D02*
X0081185Y0105667D01*
X0081185Y0106154D02*
X0083137Y0106154D01*
X0083137Y0099875D02*
X0081185Y0099875D01*
X0081185Y0101827D01*
X0083137Y0101827D01*
X0083137Y0099875D01*
X0083137Y0100362D02*
X0081185Y0100362D01*
X0081185Y0100849D02*
X0083137Y0100849D01*
X0083137Y0101336D02*
X0081185Y0101336D01*
X0081185Y0101823D02*
X0083137Y0101823D01*
X0083137Y0117198D02*
X0081185Y0117198D01*
X0081185Y0119150D01*
X0083137Y0119150D01*
X0083137Y0117198D01*
X0083137Y0117685D02*
X0081185Y0117685D01*
X0081185Y0118172D02*
X0083137Y0118172D01*
X0083137Y0118659D02*
X0081185Y0118659D01*
X0081185Y0119146D02*
X0083137Y0119146D01*
X0084729Y0117198D02*
X0086681Y0117198D01*
X0084729Y0117198D02*
X0084729Y0119150D01*
X0086681Y0119150D01*
X0086681Y0117198D01*
X0086681Y0117685D02*
X0084729Y0117685D01*
X0084729Y0118172D02*
X0086681Y0118172D01*
X0086681Y0118659D02*
X0084729Y0118659D01*
X0084729Y0119146D02*
X0086681Y0119146D01*
X0086681Y0121529D02*
X0084729Y0121529D01*
X0084729Y0123481D01*
X0086681Y0123481D01*
X0086681Y0121529D01*
X0086681Y0122016D02*
X0084729Y0122016D01*
X0084729Y0122503D02*
X0086681Y0122503D01*
X0086681Y0122990D02*
X0084729Y0122990D01*
X0084729Y0123477D02*
X0086681Y0123477D01*
X0083137Y0121529D02*
X0081185Y0121529D01*
X0081185Y0123481D01*
X0083137Y0123481D01*
X0083137Y0121529D01*
X0083137Y0122016D02*
X0081185Y0122016D01*
X0081185Y0122503D02*
X0083137Y0122503D01*
X0083137Y0122990D02*
X0081185Y0122990D01*
X0081185Y0123477D02*
X0083137Y0123477D01*
X0083137Y0130190D02*
X0081185Y0130190D01*
X0081185Y0132142D01*
X0083137Y0132142D01*
X0083137Y0130190D01*
X0083137Y0130677D02*
X0081185Y0130677D01*
X0081185Y0131164D02*
X0083137Y0131164D01*
X0083137Y0131651D02*
X0081185Y0131651D01*
X0081185Y0132138D02*
X0083137Y0132138D01*
X0084729Y0130190D02*
X0086681Y0130190D01*
X0084729Y0130190D02*
X0084729Y0132142D01*
X0086681Y0132142D01*
X0086681Y0130190D01*
X0086681Y0130677D02*
X0084729Y0130677D01*
X0084729Y0131164D02*
X0086681Y0131164D01*
X0086681Y0131651D02*
X0084729Y0131651D01*
X0084729Y0132138D02*
X0086681Y0132138D01*
X0076681Y0139209D02*
X0074729Y0139209D01*
X0076681Y0139209D02*
X0076681Y0137257D01*
X0074729Y0137257D01*
X0074729Y0139209D01*
X0074729Y0137744D02*
X0076681Y0137744D01*
X0076681Y0138231D02*
X0074729Y0138231D01*
X0074729Y0138718D02*
X0076681Y0138718D01*
X0076681Y0139205D02*
X0074729Y0139205D01*
X0073137Y0139209D02*
X0071185Y0139209D01*
X0073137Y0139209D02*
X0073137Y0137257D01*
X0071185Y0137257D01*
X0071185Y0139209D01*
X0071185Y0137744D02*
X0073137Y0137744D01*
X0073137Y0138231D02*
X0071185Y0138231D01*
X0071185Y0138718D02*
X0073137Y0138718D01*
X0073137Y0139205D02*
X0071185Y0139205D01*
X0121185Y0173507D02*
X0123137Y0173507D01*
X0121185Y0173507D02*
X0121185Y0175459D01*
X0123137Y0175459D01*
X0123137Y0173507D01*
X0123137Y0173994D02*
X0121185Y0173994D01*
X0121185Y0174481D02*
X0123137Y0174481D01*
X0123137Y0174968D02*
X0121185Y0174968D01*
X0121185Y0175455D02*
X0123137Y0175455D01*
X0124729Y0173507D02*
X0126681Y0173507D01*
X0124729Y0173507D02*
X0124729Y0175459D01*
X0126681Y0175459D01*
X0126681Y0173507D01*
X0126681Y0173994D02*
X0124729Y0173994D01*
X0124729Y0174481D02*
X0126681Y0174481D01*
X0126681Y0174968D02*
X0124729Y0174968D01*
X0124729Y0175455D02*
X0126681Y0175455D01*
X0141185Y0189757D02*
X0143137Y0189757D01*
X0141185Y0189757D02*
X0141185Y0191709D01*
X0143137Y0191709D01*
X0143137Y0189757D01*
X0143137Y0190244D02*
X0141185Y0190244D01*
X0141185Y0190731D02*
X0143137Y0190731D01*
X0143137Y0191218D02*
X0141185Y0191218D01*
X0141185Y0191705D02*
X0143137Y0191705D01*
X0144729Y0189757D02*
X0146681Y0189757D01*
X0144729Y0189757D02*
X0144729Y0191709D01*
X0146681Y0191709D01*
X0146681Y0189757D01*
X0146681Y0190244D02*
X0144729Y0190244D01*
X0144729Y0190731D02*
X0146681Y0190731D01*
X0146681Y0191218D02*
X0144729Y0191218D01*
X0144729Y0191705D02*
X0146681Y0191705D01*
X0146681Y0195459D02*
X0144729Y0195459D01*
X0146681Y0195459D02*
X0146681Y0193507D01*
X0144729Y0193507D01*
X0144729Y0195459D01*
X0144729Y0193994D02*
X0146681Y0193994D01*
X0146681Y0194481D02*
X0144729Y0194481D01*
X0144729Y0194968D02*
X0146681Y0194968D01*
X0146681Y0195455D02*
X0144729Y0195455D01*
X0143137Y0195459D02*
X0141185Y0195459D01*
X0143137Y0195459D02*
X0143137Y0193507D01*
X0141185Y0193507D01*
X0141185Y0195459D01*
X0141185Y0193994D02*
X0143137Y0193994D01*
X0143137Y0194481D02*
X0141185Y0194481D01*
X0141185Y0194968D02*
X0143137Y0194968D01*
X0143137Y0195455D02*
X0141185Y0195455D01*
X0141681Y0211709D02*
X0139729Y0211709D01*
X0141681Y0211709D02*
X0141681Y0209757D01*
X0139729Y0209757D01*
X0139729Y0211709D01*
X0139729Y0210244D02*
X0141681Y0210244D01*
X0141681Y0210731D02*
X0139729Y0210731D01*
X0139729Y0211218D02*
X0141681Y0211218D01*
X0141681Y0211705D02*
X0139729Y0211705D01*
X0138137Y0211709D02*
X0136185Y0211709D01*
X0138137Y0211709D02*
X0138137Y0209757D01*
X0136185Y0209757D01*
X0136185Y0211709D01*
X0136185Y0210244D02*
X0138137Y0210244D01*
X0138137Y0210731D02*
X0136185Y0210731D01*
X0136185Y0211218D02*
X0138137Y0211218D01*
X0138137Y0211705D02*
X0136185Y0211705D01*
X0130457Y0221735D02*
X0130457Y0223687D01*
X0132409Y0223687D01*
X0132409Y0221735D01*
X0130457Y0221735D01*
X0130457Y0222222D02*
X0132409Y0222222D01*
X0132409Y0222709D02*
X0130457Y0222709D01*
X0130457Y0223196D02*
X0132409Y0223196D01*
X0132409Y0223683D02*
X0130457Y0223683D01*
X0130457Y0225279D02*
X0130457Y0227231D01*
X0132409Y0227231D01*
X0132409Y0225279D01*
X0130457Y0225279D01*
X0130457Y0225766D02*
X0132409Y0225766D01*
X0132409Y0226253D02*
X0130457Y0226253D01*
X0130457Y0226740D02*
X0132409Y0226740D01*
X0132409Y0227227D02*
X0130457Y0227227D01*
X0140457Y0227231D02*
X0140457Y0225279D01*
X0140457Y0227231D02*
X0142409Y0227231D01*
X0142409Y0225279D01*
X0140457Y0225279D01*
X0140457Y0225766D02*
X0142409Y0225766D01*
X0142409Y0226253D02*
X0140457Y0226253D01*
X0140457Y0226740D02*
X0142409Y0226740D01*
X0142409Y0227227D02*
X0140457Y0227227D01*
X0140457Y0223687D02*
X0140457Y0221735D01*
X0140457Y0223687D02*
X0142409Y0223687D01*
X0142409Y0221735D01*
X0140457Y0221735D01*
X0140457Y0222222D02*
X0142409Y0222222D01*
X0142409Y0222709D02*
X0140457Y0222709D01*
X0140457Y0223196D02*
X0142409Y0223196D01*
X0142409Y0223683D02*
X0140457Y0223683D01*
X0140457Y0239235D02*
X0140457Y0241187D01*
X0142409Y0241187D01*
X0142409Y0239235D01*
X0140457Y0239235D01*
X0140457Y0239722D02*
X0142409Y0239722D01*
X0142409Y0240209D02*
X0140457Y0240209D01*
X0140457Y0240696D02*
X0142409Y0240696D01*
X0142409Y0241183D02*
X0140457Y0241183D01*
X0140457Y0242779D02*
X0140457Y0244731D01*
X0142409Y0244731D01*
X0142409Y0242779D01*
X0140457Y0242779D01*
X0140457Y0243266D02*
X0142409Y0243266D01*
X0142409Y0243753D02*
X0140457Y0243753D01*
X0140457Y0244240D02*
X0142409Y0244240D01*
X0142409Y0244727D02*
X0140457Y0244727D01*
X0130457Y0244731D02*
X0130457Y0242779D01*
X0130457Y0244731D02*
X0132409Y0244731D01*
X0132409Y0242779D01*
X0130457Y0242779D01*
X0130457Y0243266D02*
X0132409Y0243266D01*
X0132409Y0243753D02*
X0130457Y0243753D01*
X0130457Y0244240D02*
X0132409Y0244240D01*
X0132409Y0244727D02*
X0130457Y0244727D01*
X0130457Y0241187D02*
X0130457Y0239235D01*
X0130457Y0241187D02*
X0132409Y0241187D01*
X0132409Y0239235D01*
X0130457Y0239235D01*
X0130457Y0239722D02*
X0132409Y0239722D01*
X0132409Y0240209D02*
X0130457Y0240209D01*
X0130457Y0240696D02*
X0132409Y0240696D01*
X0132409Y0241183D02*
X0130457Y0241183D01*
X0114207Y0227231D02*
X0114207Y0225279D01*
X0114207Y0227231D02*
X0116159Y0227231D01*
X0116159Y0225279D01*
X0114207Y0225279D01*
X0114207Y0225766D02*
X0116159Y0225766D01*
X0116159Y0226253D02*
X0114207Y0226253D01*
X0114207Y0226740D02*
X0116159Y0226740D01*
X0116159Y0227227D02*
X0114207Y0227227D01*
X0110457Y0227231D02*
X0110457Y0225279D01*
X0110457Y0227231D02*
X0112409Y0227231D01*
X0112409Y0225279D01*
X0110457Y0225279D01*
X0110457Y0225766D02*
X0112409Y0225766D01*
X0112409Y0226253D02*
X0110457Y0226253D01*
X0110457Y0226740D02*
X0112409Y0226740D01*
X0112409Y0227227D02*
X0110457Y0227227D01*
X0110457Y0223687D02*
X0110457Y0221735D01*
X0110457Y0223687D02*
X0112409Y0223687D01*
X0112409Y0221735D01*
X0110457Y0221735D01*
X0110457Y0222222D02*
X0112409Y0222222D01*
X0112409Y0222709D02*
X0110457Y0222709D01*
X0110457Y0223196D02*
X0112409Y0223196D01*
X0112409Y0223683D02*
X0110457Y0223683D01*
X0114207Y0223687D02*
X0114207Y0221735D01*
X0114207Y0223687D02*
X0116159Y0223687D01*
X0116159Y0221735D01*
X0114207Y0221735D01*
X0114207Y0222222D02*
X0116159Y0222222D01*
X0116159Y0222709D02*
X0114207Y0222709D01*
X0114207Y0223196D02*
X0116159Y0223196D01*
X0116159Y0223683D02*
X0114207Y0223683D01*
X0110457Y0215981D02*
X0110457Y0214029D01*
X0110457Y0215981D02*
X0112409Y0215981D01*
X0112409Y0214029D01*
X0110457Y0214029D01*
X0110457Y0214516D02*
X0112409Y0214516D01*
X0112409Y0215003D02*
X0110457Y0215003D01*
X0110457Y0215490D02*
X0112409Y0215490D01*
X0112409Y0215977D02*
X0110457Y0215977D01*
X0110457Y0212437D02*
X0110457Y0210485D01*
X0110457Y0212437D02*
X0112409Y0212437D01*
X0112409Y0210485D01*
X0110457Y0210485D01*
X0110457Y0210972D02*
X0112409Y0210972D01*
X0112409Y0211459D02*
X0110457Y0211459D01*
X0110457Y0211946D02*
X0112409Y0211946D01*
X0112409Y0212433D02*
X0110457Y0212433D01*
X0106681Y0211709D02*
X0104729Y0211709D01*
X0106681Y0211709D02*
X0106681Y0209757D01*
X0104729Y0209757D01*
X0104729Y0211709D01*
X0104729Y0210244D02*
X0106681Y0210244D01*
X0106681Y0210731D02*
X0104729Y0210731D01*
X0104729Y0211218D02*
X0106681Y0211218D01*
X0106681Y0211705D02*
X0104729Y0211705D01*
X0103137Y0211709D02*
X0101185Y0211709D01*
X0103137Y0211709D02*
X0103137Y0209757D01*
X0101185Y0209757D01*
X0101185Y0211709D01*
X0101185Y0210244D02*
X0103137Y0210244D01*
X0103137Y0210731D02*
X0101185Y0210731D01*
X0101185Y0211218D02*
X0103137Y0211218D01*
X0103137Y0211705D02*
X0101185Y0211705D01*
X0101185Y0216709D02*
X0103137Y0216709D01*
X0103137Y0214757D01*
X0101185Y0214757D01*
X0101185Y0216709D01*
X0101185Y0215244D02*
X0103137Y0215244D01*
X0103137Y0215731D02*
X0101185Y0215731D01*
X0101185Y0216218D02*
X0103137Y0216218D01*
X0103137Y0216705D02*
X0101185Y0216705D01*
X0104729Y0216709D02*
X0106681Y0216709D01*
X0106681Y0214757D01*
X0104729Y0214757D01*
X0104729Y0216709D01*
X0104729Y0215244D02*
X0106681Y0215244D01*
X0106681Y0215731D02*
X0104729Y0215731D01*
X0104729Y0216218D02*
X0106681Y0216218D01*
X0106681Y0216705D02*
X0104729Y0216705D01*
X0091707Y0221735D02*
X0091707Y0223687D01*
X0093659Y0223687D01*
X0093659Y0221735D01*
X0091707Y0221735D01*
X0091707Y0222222D02*
X0093659Y0222222D01*
X0093659Y0222709D02*
X0091707Y0222709D01*
X0091707Y0223196D02*
X0093659Y0223196D01*
X0093659Y0223683D02*
X0091707Y0223683D01*
X0091707Y0225279D02*
X0091707Y0227231D01*
X0093659Y0227231D01*
X0093659Y0225279D01*
X0091707Y0225279D01*
X0091707Y0225766D02*
X0093659Y0225766D01*
X0093659Y0226253D02*
X0091707Y0226253D01*
X0091707Y0226740D02*
X0093659Y0226740D01*
X0093659Y0227227D02*
X0091707Y0227227D01*
X0119207Y0207231D02*
X0119207Y0205279D01*
X0119207Y0207231D02*
X0121159Y0207231D01*
X0121159Y0205279D01*
X0119207Y0205279D01*
X0119207Y0205766D02*
X0121159Y0205766D01*
X0121159Y0206253D02*
X0119207Y0206253D01*
X0119207Y0206740D02*
X0121159Y0206740D01*
X0121159Y0207227D02*
X0119207Y0207227D01*
X0119207Y0203687D02*
X0119207Y0201735D01*
X0119207Y0203687D02*
X0121159Y0203687D01*
X0121159Y0201735D01*
X0119207Y0201735D01*
X0119207Y0202222D02*
X0121159Y0202222D01*
X0121159Y0202709D02*
X0119207Y0202709D01*
X0119207Y0203196D02*
X0121159Y0203196D01*
X0121159Y0203683D02*
X0119207Y0203683D01*
X0119207Y0198481D02*
X0119207Y0196529D01*
X0119207Y0198481D02*
X0121159Y0198481D01*
X0121159Y0196529D01*
X0119207Y0196529D01*
X0119207Y0197016D02*
X0121159Y0197016D01*
X0121159Y0197503D02*
X0119207Y0197503D01*
X0119207Y0197990D02*
X0121159Y0197990D01*
X0121159Y0198477D02*
X0119207Y0198477D01*
X0119207Y0194937D02*
X0119207Y0192985D01*
X0119207Y0194937D02*
X0121159Y0194937D01*
X0121159Y0192985D01*
X0119207Y0192985D01*
X0119207Y0193472D02*
X0121159Y0193472D01*
X0121159Y0193959D02*
X0119207Y0193959D01*
X0119207Y0194446D02*
X0121159Y0194446D01*
X0121159Y0194933D02*
X0119207Y0194933D01*
X0101681Y0192257D02*
X0099729Y0192257D01*
X0099729Y0194209D01*
X0101681Y0194209D01*
X0101681Y0192257D01*
X0101681Y0192744D02*
X0099729Y0192744D01*
X0099729Y0193231D02*
X0101681Y0193231D01*
X0101681Y0193718D02*
X0099729Y0193718D01*
X0099729Y0194205D02*
X0101681Y0194205D01*
X0101681Y0197257D02*
X0099729Y0197257D01*
X0099729Y0199209D01*
X0101681Y0199209D01*
X0101681Y0197257D01*
X0101681Y0197744D02*
X0099729Y0197744D01*
X0099729Y0198231D02*
X0101681Y0198231D01*
X0101681Y0198718D02*
X0099729Y0198718D01*
X0099729Y0199205D02*
X0101681Y0199205D01*
X0098137Y0197257D02*
X0096185Y0197257D01*
X0096185Y0199209D01*
X0098137Y0199209D01*
X0098137Y0197257D01*
X0098137Y0197744D02*
X0096185Y0197744D01*
X0096185Y0198231D02*
X0098137Y0198231D01*
X0098137Y0198718D02*
X0096185Y0198718D01*
X0096185Y0199205D02*
X0098137Y0199205D01*
X0098137Y0192257D02*
X0096185Y0192257D01*
X0096185Y0194209D01*
X0098137Y0194209D01*
X0098137Y0192257D01*
X0098137Y0192744D02*
X0096185Y0192744D01*
X0096185Y0193231D02*
X0098137Y0193231D01*
X0098137Y0193718D02*
X0096185Y0193718D01*
X0096185Y0194205D02*
X0098137Y0194205D01*
X0194207Y0217985D02*
X0194207Y0219937D01*
X0196159Y0219937D01*
X0196159Y0217985D01*
X0194207Y0217985D01*
X0194207Y0218472D02*
X0196159Y0218472D01*
X0196159Y0218959D02*
X0194207Y0218959D01*
X0194207Y0219446D02*
X0196159Y0219446D01*
X0196159Y0219933D02*
X0194207Y0219933D01*
X0194207Y0221529D02*
X0194207Y0223481D01*
X0196159Y0223481D01*
X0196159Y0221529D01*
X0194207Y0221529D01*
X0194207Y0222016D02*
X0196159Y0222016D01*
X0196159Y0222503D02*
X0194207Y0222503D01*
X0194207Y0222990D02*
X0196159Y0222990D01*
X0196159Y0223477D02*
X0194207Y0223477D01*
X0248659Y0138481D02*
X0248659Y0136529D01*
X0246707Y0136529D01*
X0246707Y0138481D01*
X0248659Y0138481D01*
X0248659Y0137016D02*
X0246707Y0137016D01*
X0246707Y0137503D02*
X0248659Y0137503D01*
X0248659Y0137990D02*
X0246707Y0137990D01*
X0246707Y0138477D02*
X0248659Y0138477D01*
X0248659Y0134937D02*
X0248659Y0132985D01*
X0246707Y0132985D01*
X0246707Y0134937D01*
X0248659Y0134937D01*
X0248659Y0133472D02*
X0246707Y0133472D01*
X0246707Y0133959D02*
X0248659Y0133959D01*
X0248659Y0134446D02*
X0246707Y0134446D01*
X0246707Y0134933D02*
X0248659Y0134933D01*
X0323659Y0134937D02*
X0323659Y0132985D01*
X0321707Y0132985D01*
X0321707Y0134937D01*
X0323659Y0134937D01*
X0323659Y0133472D02*
X0321707Y0133472D01*
X0321707Y0133959D02*
X0323659Y0133959D01*
X0323659Y0134446D02*
X0321707Y0134446D01*
X0321707Y0134933D02*
X0323659Y0134933D01*
X0323659Y0136529D02*
X0323659Y0138481D01*
X0323659Y0136529D02*
X0321707Y0136529D01*
X0321707Y0138481D01*
X0323659Y0138481D01*
X0323659Y0137016D02*
X0321707Y0137016D01*
X0321707Y0137503D02*
X0323659Y0137503D01*
X0323659Y0137990D02*
X0321707Y0137990D01*
X0321707Y0138477D02*
X0323659Y0138477D01*
X0413685Y0088007D02*
X0415637Y0088007D01*
X0413685Y0088007D02*
X0413685Y0089959D01*
X0415637Y0089959D01*
X0415637Y0088007D01*
X0415637Y0088494D02*
X0413685Y0088494D01*
X0413685Y0088981D02*
X0415637Y0088981D01*
X0415637Y0089468D02*
X0413685Y0089468D01*
X0413685Y0089955D02*
X0415637Y0089955D01*
X0417229Y0088007D02*
X0419181Y0088007D01*
X0417229Y0088007D02*
X0417229Y0089959D01*
X0419181Y0089959D01*
X0419181Y0088007D01*
X0419181Y0088494D02*
X0417229Y0088494D01*
X0417229Y0088981D02*
X0419181Y0088981D01*
X0419181Y0089468D02*
X0417229Y0089468D01*
X0417229Y0089955D02*
X0419181Y0089955D01*
D12*
X0093033Y0088933D02*
X0093033Y0086733D01*
X0093033Y0088933D02*
X0093833Y0088933D01*
X0093833Y0086733D01*
X0093033Y0086733D01*
X0093033Y0086932D02*
X0093833Y0086932D01*
X0093833Y0087131D02*
X0093033Y0087131D01*
X0093033Y0087330D02*
X0093833Y0087330D01*
X0093833Y0087529D02*
X0093033Y0087529D01*
X0093033Y0087728D02*
X0093833Y0087728D01*
X0093833Y0087927D02*
X0093033Y0087927D01*
X0093033Y0088126D02*
X0093833Y0088126D01*
X0093833Y0088325D02*
X0093033Y0088325D01*
X0093033Y0088524D02*
X0093833Y0088524D01*
X0093833Y0088723D02*
X0093033Y0088723D01*
X0093033Y0088922D02*
X0093833Y0088922D01*
X0094633Y0088933D02*
X0094633Y0086733D01*
X0094633Y0088933D02*
X0095433Y0088933D01*
X0095433Y0086733D01*
X0094633Y0086733D01*
X0094633Y0086932D02*
X0095433Y0086932D01*
X0095433Y0087131D02*
X0094633Y0087131D01*
X0094633Y0087330D02*
X0095433Y0087330D01*
X0095433Y0087529D02*
X0094633Y0087529D01*
X0094633Y0087728D02*
X0095433Y0087728D01*
X0095433Y0087927D02*
X0094633Y0087927D01*
X0094633Y0088126D02*
X0095433Y0088126D01*
X0095433Y0088325D02*
X0094633Y0088325D01*
X0094633Y0088524D02*
X0095433Y0088524D01*
X0095433Y0088723D02*
X0094633Y0088723D01*
X0094633Y0088922D02*
X0095433Y0088922D01*
X0096133Y0088933D02*
X0096133Y0086733D01*
X0096133Y0088933D02*
X0096933Y0088933D01*
X0096933Y0086733D01*
X0096133Y0086733D01*
X0096133Y0086932D02*
X0096933Y0086932D01*
X0096933Y0087131D02*
X0096133Y0087131D01*
X0096133Y0087330D02*
X0096933Y0087330D01*
X0096933Y0087529D02*
X0096133Y0087529D01*
X0096133Y0087728D02*
X0096933Y0087728D01*
X0096933Y0087927D02*
X0096133Y0087927D01*
X0096133Y0088126D02*
X0096933Y0088126D01*
X0096933Y0088325D02*
X0096133Y0088325D01*
X0096133Y0088524D02*
X0096933Y0088524D01*
X0096933Y0088723D02*
X0096133Y0088723D01*
X0096133Y0088922D02*
X0096933Y0088922D01*
X0097733Y0088933D02*
X0097733Y0086733D01*
X0097733Y0088933D02*
X0098533Y0088933D01*
X0098533Y0086733D01*
X0097733Y0086733D01*
X0097733Y0086932D02*
X0098533Y0086932D01*
X0098533Y0087131D02*
X0097733Y0087131D01*
X0097733Y0087330D02*
X0098533Y0087330D01*
X0098533Y0087529D02*
X0097733Y0087529D01*
X0097733Y0087728D02*
X0098533Y0087728D01*
X0098533Y0087927D02*
X0097733Y0087927D01*
X0097733Y0088126D02*
X0098533Y0088126D01*
X0098533Y0088325D02*
X0097733Y0088325D01*
X0097733Y0088524D02*
X0098533Y0088524D01*
X0098533Y0088723D02*
X0097733Y0088723D01*
X0097733Y0088922D02*
X0098533Y0088922D01*
X0099333Y0088933D02*
X0099333Y0086733D01*
X0099333Y0088933D02*
X0100133Y0088933D01*
X0100133Y0086733D01*
X0099333Y0086733D01*
X0099333Y0086932D02*
X0100133Y0086932D01*
X0100133Y0087131D02*
X0099333Y0087131D01*
X0099333Y0087330D02*
X0100133Y0087330D01*
X0100133Y0087529D02*
X0099333Y0087529D01*
X0099333Y0087728D02*
X0100133Y0087728D01*
X0100133Y0087927D02*
X0099333Y0087927D01*
X0099333Y0088126D02*
X0100133Y0088126D01*
X0100133Y0088325D02*
X0099333Y0088325D01*
X0099333Y0088524D02*
X0100133Y0088524D01*
X0100133Y0088723D02*
X0099333Y0088723D01*
X0099333Y0088922D02*
X0100133Y0088922D01*
X0100933Y0088933D02*
X0100933Y0086733D01*
X0100933Y0088933D02*
X0101733Y0088933D01*
X0101733Y0086733D01*
X0100933Y0086733D01*
X0100933Y0086932D02*
X0101733Y0086932D01*
X0101733Y0087131D02*
X0100933Y0087131D01*
X0100933Y0087330D02*
X0101733Y0087330D01*
X0101733Y0087529D02*
X0100933Y0087529D01*
X0100933Y0087728D02*
X0101733Y0087728D01*
X0101733Y0087927D02*
X0100933Y0087927D01*
X0100933Y0088126D02*
X0101733Y0088126D01*
X0101733Y0088325D02*
X0100933Y0088325D01*
X0100933Y0088524D02*
X0101733Y0088524D01*
X0101733Y0088723D02*
X0100933Y0088723D01*
X0100933Y0088922D02*
X0101733Y0088922D01*
X0102433Y0088933D02*
X0102433Y0086733D01*
X0102433Y0088933D02*
X0103233Y0088933D01*
X0103233Y0086733D01*
X0102433Y0086733D01*
X0102433Y0086932D02*
X0103233Y0086932D01*
X0103233Y0087131D02*
X0102433Y0087131D01*
X0102433Y0087330D02*
X0103233Y0087330D01*
X0103233Y0087529D02*
X0102433Y0087529D01*
X0102433Y0087728D02*
X0103233Y0087728D01*
X0103233Y0087927D02*
X0102433Y0087927D01*
X0102433Y0088126D02*
X0103233Y0088126D01*
X0103233Y0088325D02*
X0102433Y0088325D01*
X0102433Y0088524D02*
X0103233Y0088524D01*
X0103233Y0088723D02*
X0102433Y0088723D01*
X0102433Y0088922D02*
X0103233Y0088922D01*
X0104033Y0088933D02*
X0104033Y0086733D01*
X0104033Y0088933D02*
X0104833Y0088933D01*
X0104833Y0086733D01*
X0104033Y0086733D01*
X0104033Y0086932D02*
X0104833Y0086932D01*
X0104833Y0087131D02*
X0104033Y0087131D01*
X0104033Y0087330D02*
X0104833Y0087330D01*
X0104833Y0087529D02*
X0104033Y0087529D01*
X0104033Y0087728D02*
X0104833Y0087728D01*
X0104833Y0087927D02*
X0104033Y0087927D01*
X0104033Y0088126D02*
X0104833Y0088126D01*
X0104833Y0088325D02*
X0104033Y0088325D01*
X0104033Y0088524D02*
X0104833Y0088524D01*
X0104833Y0088723D02*
X0104033Y0088723D01*
X0104033Y0088922D02*
X0104833Y0088922D01*
X0104033Y0092533D02*
X0104033Y0094733D01*
X0104833Y0094733D01*
X0104833Y0092533D01*
X0104033Y0092533D01*
X0104033Y0092732D02*
X0104833Y0092732D01*
X0104833Y0092931D02*
X0104033Y0092931D01*
X0104033Y0093130D02*
X0104833Y0093130D01*
X0104833Y0093329D02*
X0104033Y0093329D01*
X0104033Y0093528D02*
X0104833Y0093528D01*
X0104833Y0093727D02*
X0104033Y0093727D01*
X0104033Y0093926D02*
X0104833Y0093926D01*
X0104833Y0094125D02*
X0104033Y0094125D01*
X0104033Y0094324D02*
X0104833Y0094324D01*
X0104833Y0094523D02*
X0104033Y0094523D01*
X0104033Y0094722D02*
X0104833Y0094722D01*
X0102433Y0094733D02*
X0102433Y0092533D01*
X0102433Y0094733D02*
X0103233Y0094733D01*
X0103233Y0092533D01*
X0102433Y0092533D01*
X0102433Y0092732D02*
X0103233Y0092732D01*
X0103233Y0092931D02*
X0102433Y0092931D01*
X0102433Y0093130D02*
X0103233Y0093130D01*
X0103233Y0093329D02*
X0102433Y0093329D01*
X0102433Y0093528D02*
X0103233Y0093528D01*
X0103233Y0093727D02*
X0102433Y0093727D01*
X0102433Y0093926D02*
X0103233Y0093926D01*
X0103233Y0094125D02*
X0102433Y0094125D01*
X0102433Y0094324D02*
X0103233Y0094324D01*
X0103233Y0094523D02*
X0102433Y0094523D01*
X0102433Y0094722D02*
X0103233Y0094722D01*
X0100933Y0094733D02*
X0100933Y0092533D01*
X0100933Y0094733D02*
X0101733Y0094733D01*
X0101733Y0092533D01*
X0100933Y0092533D01*
X0100933Y0092732D02*
X0101733Y0092732D01*
X0101733Y0092931D02*
X0100933Y0092931D01*
X0100933Y0093130D02*
X0101733Y0093130D01*
X0101733Y0093329D02*
X0100933Y0093329D01*
X0100933Y0093528D02*
X0101733Y0093528D01*
X0101733Y0093727D02*
X0100933Y0093727D01*
X0100933Y0093926D02*
X0101733Y0093926D01*
X0101733Y0094125D02*
X0100933Y0094125D01*
X0100933Y0094324D02*
X0101733Y0094324D01*
X0101733Y0094523D02*
X0100933Y0094523D01*
X0100933Y0094722D02*
X0101733Y0094722D01*
X0099333Y0094733D02*
X0099333Y0092533D01*
X0099333Y0094733D02*
X0100133Y0094733D01*
X0100133Y0092533D01*
X0099333Y0092533D01*
X0099333Y0092732D02*
X0100133Y0092732D01*
X0100133Y0092931D02*
X0099333Y0092931D01*
X0099333Y0093130D02*
X0100133Y0093130D01*
X0100133Y0093329D02*
X0099333Y0093329D01*
X0099333Y0093528D02*
X0100133Y0093528D01*
X0100133Y0093727D02*
X0099333Y0093727D01*
X0099333Y0093926D02*
X0100133Y0093926D01*
X0100133Y0094125D02*
X0099333Y0094125D01*
X0099333Y0094324D02*
X0100133Y0094324D01*
X0100133Y0094523D02*
X0099333Y0094523D01*
X0099333Y0094722D02*
X0100133Y0094722D01*
X0097733Y0094733D02*
X0097733Y0092533D01*
X0097733Y0094733D02*
X0098533Y0094733D01*
X0098533Y0092533D01*
X0097733Y0092533D01*
X0097733Y0092732D02*
X0098533Y0092732D01*
X0098533Y0092931D02*
X0097733Y0092931D01*
X0097733Y0093130D02*
X0098533Y0093130D01*
X0098533Y0093329D02*
X0097733Y0093329D01*
X0097733Y0093528D02*
X0098533Y0093528D01*
X0098533Y0093727D02*
X0097733Y0093727D01*
X0097733Y0093926D02*
X0098533Y0093926D01*
X0098533Y0094125D02*
X0097733Y0094125D01*
X0097733Y0094324D02*
X0098533Y0094324D01*
X0098533Y0094523D02*
X0097733Y0094523D01*
X0097733Y0094722D02*
X0098533Y0094722D01*
X0096133Y0094733D02*
X0096133Y0092533D01*
X0096133Y0094733D02*
X0096933Y0094733D01*
X0096933Y0092533D01*
X0096133Y0092533D01*
X0096133Y0092732D02*
X0096933Y0092732D01*
X0096933Y0092931D02*
X0096133Y0092931D01*
X0096133Y0093130D02*
X0096933Y0093130D01*
X0096933Y0093329D02*
X0096133Y0093329D01*
X0096133Y0093528D02*
X0096933Y0093528D01*
X0096933Y0093727D02*
X0096133Y0093727D01*
X0096133Y0093926D02*
X0096933Y0093926D01*
X0096933Y0094125D02*
X0096133Y0094125D01*
X0096133Y0094324D02*
X0096933Y0094324D01*
X0096933Y0094523D02*
X0096133Y0094523D01*
X0096133Y0094722D02*
X0096933Y0094722D01*
X0094633Y0094733D02*
X0094633Y0092533D01*
X0094633Y0094733D02*
X0095433Y0094733D01*
X0095433Y0092533D01*
X0094633Y0092533D01*
X0094633Y0092732D02*
X0095433Y0092732D01*
X0095433Y0092931D02*
X0094633Y0092931D01*
X0094633Y0093130D02*
X0095433Y0093130D01*
X0095433Y0093329D02*
X0094633Y0093329D01*
X0094633Y0093528D02*
X0095433Y0093528D01*
X0095433Y0093727D02*
X0094633Y0093727D01*
X0094633Y0093926D02*
X0095433Y0093926D01*
X0095433Y0094125D02*
X0094633Y0094125D01*
X0094633Y0094324D02*
X0095433Y0094324D01*
X0095433Y0094523D02*
X0094633Y0094523D01*
X0094633Y0094722D02*
X0095433Y0094722D01*
X0093033Y0094733D02*
X0093033Y0092533D01*
X0093033Y0094733D02*
X0093833Y0094733D01*
X0093833Y0092533D01*
X0093033Y0092533D01*
X0093033Y0092732D02*
X0093833Y0092732D01*
X0093833Y0092931D02*
X0093033Y0092931D01*
X0093033Y0093130D02*
X0093833Y0093130D01*
X0093833Y0093329D02*
X0093033Y0093329D01*
X0093033Y0093528D02*
X0093833Y0093528D01*
X0093833Y0093727D02*
X0093033Y0093727D01*
X0093033Y0093926D02*
X0093833Y0093926D01*
X0093833Y0094125D02*
X0093033Y0094125D01*
X0093033Y0094324D02*
X0093833Y0094324D01*
X0093833Y0094523D02*
X0093033Y0094523D01*
X0093033Y0094722D02*
X0093833Y0094722D01*
D13*
X0093593Y0091373D02*
X0093593Y0090093D01*
X0093593Y0091373D02*
X0104273Y0091373D01*
X0104273Y0090093D01*
X0093593Y0090093D01*
X0093593Y0090412D02*
X0104273Y0090412D01*
X0104273Y0090731D02*
X0093593Y0090731D01*
X0093593Y0091050D02*
X0104273Y0091050D01*
X0104273Y0091369D02*
X0093593Y0091369D01*
D14*
X0169464Y0142574D02*
X0171984Y0142574D01*
X0169464Y0142574D02*
X0169464Y0143518D01*
X0171984Y0143518D01*
X0171984Y0142574D01*
X0171984Y0142809D02*
X0169464Y0142809D01*
X0169464Y0143044D02*
X0171984Y0143044D01*
X0171984Y0143279D02*
X0169464Y0143279D01*
X0169464Y0143514D02*
X0171984Y0143514D01*
X0171984Y0144543D02*
X0169464Y0144543D01*
X0169464Y0145487D01*
X0171984Y0145487D01*
X0171984Y0144543D01*
X0171984Y0144778D02*
X0169464Y0144778D01*
X0169464Y0145013D02*
X0171984Y0145013D01*
X0171984Y0145248D02*
X0169464Y0145248D01*
X0169464Y0145483D02*
X0171984Y0145483D01*
X0171984Y0146511D02*
X0169464Y0146511D01*
X0169464Y0147455D01*
X0171984Y0147455D01*
X0171984Y0146511D01*
X0171984Y0146746D02*
X0169464Y0146746D01*
X0169464Y0146981D02*
X0171984Y0146981D01*
X0171984Y0147216D02*
X0169464Y0147216D01*
X0169464Y0147451D02*
X0171984Y0147451D01*
X0171984Y0148480D02*
X0169464Y0148480D01*
X0169464Y0149424D01*
X0171984Y0149424D01*
X0171984Y0148480D01*
X0171984Y0148715D02*
X0169464Y0148715D01*
X0169464Y0148950D02*
X0171984Y0148950D01*
X0171984Y0149185D02*
X0169464Y0149185D01*
X0169464Y0149420D02*
X0171984Y0149420D01*
X0171984Y0150448D02*
X0169464Y0150448D01*
X0169464Y0151392D01*
X0171984Y0151392D01*
X0171984Y0150448D01*
X0171984Y0150683D02*
X0169464Y0150683D01*
X0169464Y0150918D02*
X0171984Y0150918D01*
X0171984Y0151153D02*
X0169464Y0151153D01*
X0169464Y0151388D02*
X0171984Y0151388D01*
X0180882Y0150448D02*
X0183402Y0150448D01*
X0180882Y0150448D02*
X0180882Y0151392D01*
X0183402Y0151392D01*
X0183402Y0150448D01*
X0183402Y0150683D02*
X0180882Y0150683D01*
X0180882Y0150918D02*
X0183402Y0150918D01*
X0183402Y0151153D02*
X0180882Y0151153D01*
X0180882Y0151388D02*
X0183402Y0151388D01*
X0183402Y0148480D02*
X0180882Y0148480D01*
X0180882Y0149424D01*
X0183402Y0149424D01*
X0183402Y0148480D01*
X0183402Y0148715D02*
X0180882Y0148715D01*
X0180882Y0148950D02*
X0183402Y0148950D01*
X0183402Y0149185D02*
X0180882Y0149185D01*
X0180882Y0149420D02*
X0183402Y0149420D01*
X0183402Y0146511D02*
X0180882Y0146511D01*
X0180882Y0147455D01*
X0183402Y0147455D01*
X0183402Y0146511D01*
X0183402Y0146746D02*
X0180882Y0146746D01*
X0180882Y0146981D02*
X0183402Y0146981D01*
X0183402Y0147216D02*
X0180882Y0147216D01*
X0180882Y0147451D02*
X0183402Y0147451D01*
X0183402Y0144543D02*
X0180882Y0144543D01*
X0180882Y0145487D01*
X0183402Y0145487D01*
X0183402Y0144543D01*
X0183402Y0144778D02*
X0180882Y0144778D01*
X0180882Y0145013D02*
X0183402Y0145013D01*
X0183402Y0145248D02*
X0180882Y0145248D01*
X0180882Y0145483D02*
X0183402Y0145483D01*
X0183402Y0142574D02*
X0180882Y0142574D01*
X0180882Y0143518D01*
X0183402Y0143518D01*
X0183402Y0142574D01*
X0183402Y0142809D02*
X0180882Y0142809D01*
X0180882Y0143044D02*
X0183402Y0143044D01*
X0183402Y0143279D02*
X0180882Y0143279D01*
X0180882Y0143514D02*
X0183402Y0143514D01*
X0240468Y0130202D02*
X0240468Y0127682D01*
X0239524Y0127682D01*
X0239524Y0130202D01*
X0240468Y0130202D01*
X0240468Y0127917D02*
X0239524Y0127917D01*
X0239524Y0128152D02*
X0240468Y0128152D01*
X0240468Y0128387D02*
X0239524Y0128387D01*
X0239524Y0128622D02*
X0240468Y0128622D01*
X0240468Y0128857D02*
X0239524Y0128857D01*
X0239524Y0129092D02*
X0240468Y0129092D01*
X0240468Y0129327D02*
X0239524Y0129327D01*
X0239524Y0129562D02*
X0240468Y0129562D01*
X0240468Y0129797D02*
X0239524Y0129797D01*
X0239524Y0130032D02*
X0240468Y0130032D01*
X0242437Y0130202D02*
X0242437Y0127682D01*
X0241493Y0127682D01*
X0241493Y0130202D01*
X0242437Y0130202D01*
X0242437Y0127917D02*
X0241493Y0127917D01*
X0241493Y0128152D02*
X0242437Y0128152D01*
X0242437Y0128387D02*
X0241493Y0128387D01*
X0241493Y0128622D02*
X0242437Y0128622D01*
X0242437Y0128857D02*
X0241493Y0128857D01*
X0241493Y0129092D02*
X0242437Y0129092D01*
X0242437Y0129327D02*
X0241493Y0129327D01*
X0241493Y0129562D02*
X0242437Y0129562D01*
X0242437Y0129797D02*
X0241493Y0129797D01*
X0241493Y0130032D02*
X0242437Y0130032D01*
X0244405Y0130202D02*
X0244405Y0127682D01*
X0243461Y0127682D01*
X0243461Y0130202D01*
X0244405Y0130202D01*
X0244405Y0127917D02*
X0243461Y0127917D01*
X0243461Y0128152D02*
X0244405Y0128152D01*
X0244405Y0128387D02*
X0243461Y0128387D01*
X0243461Y0128622D02*
X0244405Y0128622D01*
X0244405Y0128857D02*
X0243461Y0128857D01*
X0243461Y0129092D02*
X0244405Y0129092D01*
X0244405Y0129327D02*
X0243461Y0129327D01*
X0243461Y0129562D02*
X0244405Y0129562D01*
X0244405Y0129797D02*
X0243461Y0129797D01*
X0243461Y0130032D02*
X0244405Y0130032D01*
X0246374Y0130202D02*
X0246374Y0127682D01*
X0245430Y0127682D01*
X0245430Y0130202D01*
X0246374Y0130202D01*
X0246374Y0127917D02*
X0245430Y0127917D01*
X0245430Y0128152D02*
X0246374Y0128152D01*
X0246374Y0128387D02*
X0245430Y0128387D01*
X0245430Y0128622D02*
X0246374Y0128622D01*
X0246374Y0128857D02*
X0245430Y0128857D01*
X0245430Y0129092D02*
X0246374Y0129092D01*
X0246374Y0129327D02*
X0245430Y0129327D01*
X0245430Y0129562D02*
X0246374Y0129562D01*
X0246374Y0129797D02*
X0245430Y0129797D01*
X0245430Y0130032D02*
X0246374Y0130032D01*
X0248342Y0130202D02*
X0248342Y0127682D01*
X0247398Y0127682D01*
X0247398Y0130202D01*
X0248342Y0130202D01*
X0248342Y0127917D02*
X0247398Y0127917D01*
X0247398Y0128152D02*
X0248342Y0128152D01*
X0248342Y0128387D02*
X0247398Y0128387D01*
X0247398Y0128622D02*
X0248342Y0128622D01*
X0248342Y0128857D02*
X0247398Y0128857D01*
X0247398Y0129092D02*
X0248342Y0129092D01*
X0248342Y0129327D02*
X0247398Y0129327D01*
X0247398Y0129562D02*
X0248342Y0129562D01*
X0248342Y0129797D02*
X0247398Y0129797D01*
X0247398Y0130032D02*
X0248342Y0130032D01*
X0248342Y0118784D02*
X0248342Y0116264D01*
X0247398Y0116264D01*
X0247398Y0118784D01*
X0248342Y0118784D01*
X0248342Y0116499D02*
X0247398Y0116499D01*
X0247398Y0116734D02*
X0248342Y0116734D01*
X0248342Y0116969D02*
X0247398Y0116969D01*
X0247398Y0117204D02*
X0248342Y0117204D01*
X0248342Y0117439D02*
X0247398Y0117439D01*
X0247398Y0117674D02*
X0248342Y0117674D01*
X0248342Y0117909D02*
X0247398Y0117909D01*
X0247398Y0118144D02*
X0248342Y0118144D01*
X0248342Y0118379D02*
X0247398Y0118379D01*
X0247398Y0118614D02*
X0248342Y0118614D01*
X0246374Y0118784D02*
X0246374Y0116264D01*
X0245430Y0116264D01*
X0245430Y0118784D01*
X0246374Y0118784D01*
X0246374Y0116499D02*
X0245430Y0116499D01*
X0245430Y0116734D02*
X0246374Y0116734D01*
X0246374Y0116969D02*
X0245430Y0116969D01*
X0245430Y0117204D02*
X0246374Y0117204D01*
X0246374Y0117439D02*
X0245430Y0117439D01*
X0245430Y0117674D02*
X0246374Y0117674D01*
X0246374Y0117909D02*
X0245430Y0117909D01*
X0245430Y0118144D02*
X0246374Y0118144D01*
X0246374Y0118379D02*
X0245430Y0118379D01*
X0245430Y0118614D02*
X0246374Y0118614D01*
X0244405Y0118784D02*
X0244405Y0116264D01*
X0243461Y0116264D01*
X0243461Y0118784D01*
X0244405Y0118784D01*
X0244405Y0116499D02*
X0243461Y0116499D01*
X0243461Y0116734D02*
X0244405Y0116734D01*
X0244405Y0116969D02*
X0243461Y0116969D01*
X0243461Y0117204D02*
X0244405Y0117204D01*
X0244405Y0117439D02*
X0243461Y0117439D01*
X0243461Y0117674D02*
X0244405Y0117674D01*
X0244405Y0117909D02*
X0243461Y0117909D01*
X0243461Y0118144D02*
X0244405Y0118144D01*
X0244405Y0118379D02*
X0243461Y0118379D01*
X0243461Y0118614D02*
X0244405Y0118614D01*
X0242437Y0118784D02*
X0242437Y0116264D01*
X0241493Y0116264D01*
X0241493Y0118784D01*
X0242437Y0118784D01*
X0242437Y0116499D02*
X0241493Y0116499D01*
X0241493Y0116734D02*
X0242437Y0116734D01*
X0242437Y0116969D02*
X0241493Y0116969D01*
X0241493Y0117204D02*
X0242437Y0117204D01*
X0242437Y0117439D02*
X0241493Y0117439D01*
X0241493Y0117674D02*
X0242437Y0117674D01*
X0242437Y0117909D02*
X0241493Y0117909D01*
X0241493Y0118144D02*
X0242437Y0118144D01*
X0242437Y0118379D02*
X0241493Y0118379D01*
X0241493Y0118614D02*
X0242437Y0118614D01*
X0240468Y0118784D02*
X0240468Y0116264D01*
X0239524Y0116264D01*
X0239524Y0118784D01*
X0240468Y0118784D01*
X0240468Y0116499D02*
X0239524Y0116499D01*
X0239524Y0116734D02*
X0240468Y0116734D01*
X0240468Y0116969D02*
X0239524Y0116969D01*
X0239524Y0117204D02*
X0240468Y0117204D01*
X0240468Y0117439D02*
X0239524Y0117439D01*
X0239524Y0117674D02*
X0240468Y0117674D01*
X0240468Y0117909D02*
X0239524Y0117909D01*
X0239524Y0118144D02*
X0240468Y0118144D01*
X0240468Y0118379D02*
X0239524Y0118379D01*
X0239524Y0118614D02*
X0240468Y0118614D01*
X0315468Y0118784D02*
X0315468Y0116264D01*
X0314524Y0116264D01*
X0314524Y0118784D01*
X0315468Y0118784D01*
X0315468Y0116499D02*
X0314524Y0116499D01*
X0314524Y0116734D02*
X0315468Y0116734D01*
X0315468Y0116969D02*
X0314524Y0116969D01*
X0314524Y0117204D02*
X0315468Y0117204D01*
X0315468Y0117439D02*
X0314524Y0117439D01*
X0314524Y0117674D02*
X0315468Y0117674D01*
X0315468Y0117909D02*
X0314524Y0117909D01*
X0314524Y0118144D02*
X0315468Y0118144D01*
X0315468Y0118379D02*
X0314524Y0118379D01*
X0314524Y0118614D02*
X0315468Y0118614D01*
X0317437Y0118784D02*
X0317437Y0116264D01*
X0316493Y0116264D01*
X0316493Y0118784D01*
X0317437Y0118784D01*
X0317437Y0116499D02*
X0316493Y0116499D01*
X0316493Y0116734D02*
X0317437Y0116734D01*
X0317437Y0116969D02*
X0316493Y0116969D01*
X0316493Y0117204D02*
X0317437Y0117204D01*
X0317437Y0117439D02*
X0316493Y0117439D01*
X0316493Y0117674D02*
X0317437Y0117674D01*
X0317437Y0117909D02*
X0316493Y0117909D01*
X0316493Y0118144D02*
X0317437Y0118144D01*
X0317437Y0118379D02*
X0316493Y0118379D01*
X0316493Y0118614D02*
X0317437Y0118614D01*
X0319405Y0118784D02*
X0319405Y0116264D01*
X0318461Y0116264D01*
X0318461Y0118784D01*
X0319405Y0118784D01*
X0319405Y0116499D02*
X0318461Y0116499D01*
X0318461Y0116734D02*
X0319405Y0116734D01*
X0319405Y0116969D02*
X0318461Y0116969D01*
X0318461Y0117204D02*
X0319405Y0117204D01*
X0319405Y0117439D02*
X0318461Y0117439D01*
X0318461Y0117674D02*
X0319405Y0117674D01*
X0319405Y0117909D02*
X0318461Y0117909D01*
X0318461Y0118144D02*
X0319405Y0118144D01*
X0319405Y0118379D02*
X0318461Y0118379D01*
X0318461Y0118614D02*
X0319405Y0118614D01*
X0321374Y0118784D02*
X0321374Y0116264D01*
X0320430Y0116264D01*
X0320430Y0118784D01*
X0321374Y0118784D01*
X0321374Y0116499D02*
X0320430Y0116499D01*
X0320430Y0116734D02*
X0321374Y0116734D01*
X0321374Y0116969D02*
X0320430Y0116969D01*
X0320430Y0117204D02*
X0321374Y0117204D01*
X0321374Y0117439D02*
X0320430Y0117439D01*
X0320430Y0117674D02*
X0321374Y0117674D01*
X0321374Y0117909D02*
X0320430Y0117909D01*
X0320430Y0118144D02*
X0321374Y0118144D01*
X0321374Y0118379D02*
X0320430Y0118379D01*
X0320430Y0118614D02*
X0321374Y0118614D01*
X0323342Y0118784D02*
X0323342Y0116264D01*
X0322398Y0116264D01*
X0322398Y0118784D01*
X0323342Y0118784D01*
X0323342Y0116499D02*
X0322398Y0116499D01*
X0322398Y0116734D02*
X0323342Y0116734D01*
X0323342Y0116969D02*
X0322398Y0116969D01*
X0322398Y0117204D02*
X0323342Y0117204D01*
X0323342Y0117439D02*
X0322398Y0117439D01*
X0322398Y0117674D02*
X0323342Y0117674D01*
X0323342Y0117909D02*
X0322398Y0117909D01*
X0322398Y0118144D02*
X0323342Y0118144D01*
X0323342Y0118379D02*
X0322398Y0118379D01*
X0322398Y0118614D02*
X0323342Y0118614D01*
X0323342Y0127682D02*
X0323342Y0130202D01*
X0323342Y0127682D02*
X0322398Y0127682D01*
X0322398Y0130202D01*
X0323342Y0130202D01*
X0323342Y0127917D02*
X0322398Y0127917D01*
X0322398Y0128152D02*
X0323342Y0128152D01*
X0323342Y0128387D02*
X0322398Y0128387D01*
X0322398Y0128622D02*
X0323342Y0128622D01*
X0323342Y0128857D02*
X0322398Y0128857D01*
X0322398Y0129092D02*
X0323342Y0129092D01*
X0323342Y0129327D02*
X0322398Y0129327D01*
X0322398Y0129562D02*
X0323342Y0129562D01*
X0323342Y0129797D02*
X0322398Y0129797D01*
X0322398Y0130032D02*
X0323342Y0130032D01*
X0321374Y0130202D02*
X0321374Y0127682D01*
X0320430Y0127682D01*
X0320430Y0130202D01*
X0321374Y0130202D01*
X0321374Y0127917D02*
X0320430Y0127917D01*
X0320430Y0128152D02*
X0321374Y0128152D01*
X0321374Y0128387D02*
X0320430Y0128387D01*
X0320430Y0128622D02*
X0321374Y0128622D01*
X0321374Y0128857D02*
X0320430Y0128857D01*
X0320430Y0129092D02*
X0321374Y0129092D01*
X0321374Y0129327D02*
X0320430Y0129327D01*
X0320430Y0129562D02*
X0321374Y0129562D01*
X0321374Y0129797D02*
X0320430Y0129797D01*
X0320430Y0130032D02*
X0321374Y0130032D01*
X0319405Y0130202D02*
X0319405Y0127682D01*
X0318461Y0127682D01*
X0318461Y0130202D01*
X0319405Y0130202D01*
X0319405Y0127917D02*
X0318461Y0127917D01*
X0318461Y0128152D02*
X0319405Y0128152D01*
X0319405Y0128387D02*
X0318461Y0128387D01*
X0318461Y0128622D02*
X0319405Y0128622D01*
X0319405Y0128857D02*
X0318461Y0128857D01*
X0318461Y0129092D02*
X0319405Y0129092D01*
X0319405Y0129327D02*
X0318461Y0129327D01*
X0318461Y0129562D02*
X0319405Y0129562D01*
X0319405Y0129797D02*
X0318461Y0129797D01*
X0318461Y0130032D02*
X0319405Y0130032D01*
X0317437Y0130202D02*
X0317437Y0127682D01*
X0316493Y0127682D01*
X0316493Y0130202D01*
X0317437Y0130202D01*
X0317437Y0127917D02*
X0316493Y0127917D01*
X0316493Y0128152D02*
X0317437Y0128152D01*
X0317437Y0128387D02*
X0316493Y0128387D01*
X0316493Y0128622D02*
X0317437Y0128622D01*
X0317437Y0128857D02*
X0316493Y0128857D01*
X0316493Y0129092D02*
X0317437Y0129092D01*
X0317437Y0129327D02*
X0316493Y0129327D01*
X0316493Y0129562D02*
X0317437Y0129562D01*
X0317437Y0129797D02*
X0316493Y0129797D01*
X0316493Y0130032D02*
X0317437Y0130032D01*
X0315468Y0130202D02*
X0315468Y0127682D01*
X0314524Y0127682D01*
X0314524Y0130202D01*
X0315468Y0130202D01*
X0315468Y0127917D02*
X0314524Y0127917D01*
X0314524Y0128152D02*
X0315468Y0128152D01*
X0315468Y0128387D02*
X0314524Y0128387D01*
X0314524Y0128622D02*
X0315468Y0128622D01*
X0315468Y0128857D02*
X0314524Y0128857D01*
X0314524Y0129092D02*
X0315468Y0129092D01*
X0315468Y0129327D02*
X0314524Y0129327D01*
X0314524Y0129562D02*
X0315468Y0129562D01*
X0315468Y0129797D02*
X0314524Y0129797D01*
X0314524Y0130032D02*
X0315468Y0130032D01*
X0409464Y0082642D02*
X0411984Y0082642D01*
X0411984Y0081698D01*
X0409464Y0081698D01*
X0409464Y0082642D01*
X0409464Y0081933D02*
X0411984Y0081933D01*
X0411984Y0082168D02*
X0409464Y0082168D01*
X0409464Y0082403D02*
X0411984Y0082403D01*
X0411984Y0082638D02*
X0409464Y0082638D01*
X0409464Y0080674D02*
X0411984Y0080674D01*
X0411984Y0079730D01*
X0409464Y0079730D01*
X0409464Y0080674D01*
X0409464Y0079965D02*
X0411984Y0079965D01*
X0411984Y0080200D02*
X0409464Y0080200D01*
X0409464Y0080435D02*
X0411984Y0080435D01*
X0411984Y0080670D02*
X0409464Y0080670D01*
X0409464Y0078705D02*
X0411984Y0078705D01*
X0411984Y0077761D01*
X0409464Y0077761D01*
X0409464Y0078705D01*
X0409464Y0077996D02*
X0411984Y0077996D01*
X0411984Y0078231D02*
X0409464Y0078231D01*
X0409464Y0078466D02*
X0411984Y0078466D01*
X0411984Y0078701D02*
X0409464Y0078701D01*
X0409464Y0076737D02*
X0411984Y0076737D01*
X0411984Y0075793D01*
X0409464Y0075793D01*
X0409464Y0076737D01*
X0409464Y0076028D02*
X0411984Y0076028D01*
X0411984Y0076263D02*
X0409464Y0076263D01*
X0409464Y0076498D02*
X0411984Y0076498D01*
X0411984Y0076733D02*
X0409464Y0076733D01*
X0409464Y0074768D02*
X0411984Y0074768D01*
X0411984Y0073824D01*
X0409464Y0073824D01*
X0409464Y0074768D01*
X0409464Y0074059D02*
X0411984Y0074059D01*
X0411984Y0074294D02*
X0409464Y0074294D01*
X0409464Y0074529D02*
X0411984Y0074529D01*
X0411984Y0074764D02*
X0409464Y0074764D01*
X0420882Y0074768D02*
X0423402Y0074768D01*
X0423402Y0073824D01*
X0420882Y0073824D01*
X0420882Y0074768D01*
X0420882Y0074059D02*
X0423402Y0074059D01*
X0423402Y0074294D02*
X0420882Y0074294D01*
X0420882Y0074529D02*
X0423402Y0074529D01*
X0423402Y0074764D02*
X0420882Y0074764D01*
X0420882Y0076737D02*
X0423402Y0076737D01*
X0423402Y0075793D01*
X0420882Y0075793D01*
X0420882Y0076737D01*
X0420882Y0076028D02*
X0423402Y0076028D01*
X0423402Y0076263D02*
X0420882Y0076263D01*
X0420882Y0076498D02*
X0423402Y0076498D01*
X0423402Y0076733D02*
X0420882Y0076733D01*
X0420882Y0078705D02*
X0423402Y0078705D01*
X0423402Y0077761D01*
X0420882Y0077761D01*
X0420882Y0078705D01*
X0420882Y0077996D02*
X0423402Y0077996D01*
X0423402Y0078231D02*
X0420882Y0078231D01*
X0420882Y0078466D02*
X0423402Y0078466D01*
X0423402Y0078701D02*
X0420882Y0078701D01*
X0420882Y0080674D02*
X0423402Y0080674D01*
X0423402Y0079730D01*
X0420882Y0079730D01*
X0420882Y0080674D01*
X0420882Y0079965D02*
X0423402Y0079965D01*
X0423402Y0080200D02*
X0420882Y0080200D01*
X0420882Y0080435D02*
X0423402Y0080435D01*
X0423402Y0080670D02*
X0420882Y0080670D01*
X0420882Y0082642D02*
X0423402Y0082642D01*
X0423402Y0081698D01*
X0420882Y0081698D01*
X0420882Y0082642D01*
X0420882Y0081933D02*
X0423402Y0081933D01*
X0423402Y0082168D02*
X0420882Y0082168D01*
X0420882Y0082403D02*
X0423402Y0082403D01*
X0423402Y0082638D02*
X0420882Y0082638D01*
X0348402Y0206018D02*
X0345882Y0206018D01*
X0348402Y0206018D02*
X0348402Y0205074D01*
X0345882Y0205074D01*
X0345882Y0206018D01*
X0345882Y0205309D02*
X0348402Y0205309D01*
X0348402Y0205544D02*
X0345882Y0205544D01*
X0345882Y0205779D02*
X0348402Y0205779D01*
X0348402Y0206014D02*
X0345882Y0206014D01*
X0345882Y0207987D02*
X0348402Y0207987D01*
X0348402Y0207043D01*
X0345882Y0207043D01*
X0345882Y0207987D01*
X0345882Y0207278D02*
X0348402Y0207278D01*
X0348402Y0207513D02*
X0345882Y0207513D01*
X0345882Y0207748D02*
X0348402Y0207748D01*
X0348402Y0207983D02*
X0345882Y0207983D01*
X0345882Y0209955D02*
X0348402Y0209955D01*
X0348402Y0209011D01*
X0345882Y0209011D01*
X0345882Y0209955D01*
X0345882Y0209246D02*
X0348402Y0209246D01*
X0348402Y0209481D02*
X0345882Y0209481D01*
X0345882Y0209716D02*
X0348402Y0209716D01*
X0348402Y0209951D02*
X0345882Y0209951D01*
X0345882Y0211924D02*
X0348402Y0211924D01*
X0348402Y0210980D01*
X0345882Y0210980D01*
X0345882Y0211924D01*
X0345882Y0211215D02*
X0348402Y0211215D01*
X0348402Y0211450D02*
X0345882Y0211450D01*
X0345882Y0211685D02*
X0348402Y0211685D01*
X0348402Y0211920D02*
X0345882Y0211920D01*
X0345882Y0213892D02*
X0348402Y0213892D01*
X0348402Y0212948D01*
X0345882Y0212948D01*
X0345882Y0213892D01*
X0345882Y0213183D02*
X0348402Y0213183D01*
X0348402Y0213418D02*
X0345882Y0213418D01*
X0345882Y0213653D02*
X0348402Y0213653D01*
X0348402Y0213888D02*
X0345882Y0213888D01*
X0336984Y0213892D02*
X0334464Y0213892D01*
X0336984Y0213892D02*
X0336984Y0212948D01*
X0334464Y0212948D01*
X0334464Y0213892D01*
X0334464Y0213183D02*
X0336984Y0213183D01*
X0336984Y0213418D02*
X0334464Y0213418D01*
X0334464Y0213653D02*
X0336984Y0213653D01*
X0336984Y0213888D02*
X0334464Y0213888D01*
X0334464Y0211924D02*
X0336984Y0211924D01*
X0336984Y0210980D01*
X0334464Y0210980D01*
X0334464Y0211924D01*
X0334464Y0211215D02*
X0336984Y0211215D01*
X0336984Y0211450D02*
X0334464Y0211450D01*
X0334464Y0211685D02*
X0336984Y0211685D01*
X0336984Y0211920D02*
X0334464Y0211920D01*
X0334464Y0209955D02*
X0336984Y0209955D01*
X0336984Y0209011D01*
X0334464Y0209011D01*
X0334464Y0209955D01*
X0334464Y0209246D02*
X0336984Y0209246D01*
X0336984Y0209481D02*
X0334464Y0209481D01*
X0334464Y0209716D02*
X0336984Y0209716D01*
X0336984Y0209951D02*
X0334464Y0209951D01*
X0334464Y0207987D02*
X0336984Y0207987D01*
X0336984Y0207043D01*
X0334464Y0207043D01*
X0334464Y0207987D01*
X0334464Y0207278D02*
X0336984Y0207278D01*
X0336984Y0207513D02*
X0334464Y0207513D01*
X0334464Y0207748D02*
X0336984Y0207748D01*
X0336984Y0207983D02*
X0334464Y0207983D01*
X0334464Y0206018D02*
X0336984Y0206018D01*
X0336984Y0205074D01*
X0334464Y0205074D01*
X0334464Y0206018D01*
X0334464Y0205309D02*
X0336984Y0205309D01*
X0336984Y0205544D02*
X0334464Y0205544D01*
X0334464Y0205779D02*
X0336984Y0205779D01*
X0336984Y0206014D02*
X0334464Y0206014D01*
X0277398Y0226264D02*
X0277398Y0228784D01*
X0278342Y0228784D01*
X0278342Y0226264D01*
X0277398Y0226264D01*
X0277398Y0226499D02*
X0278342Y0226499D01*
X0278342Y0226734D02*
X0277398Y0226734D01*
X0277398Y0226969D02*
X0278342Y0226969D01*
X0278342Y0227204D02*
X0277398Y0227204D01*
X0277398Y0227439D02*
X0278342Y0227439D01*
X0278342Y0227674D02*
X0277398Y0227674D01*
X0277398Y0227909D02*
X0278342Y0227909D01*
X0278342Y0228144D02*
X0277398Y0228144D01*
X0277398Y0228379D02*
X0278342Y0228379D01*
X0278342Y0228614D02*
X0277398Y0228614D01*
X0275430Y0228784D02*
X0275430Y0226264D01*
X0275430Y0228784D02*
X0276374Y0228784D01*
X0276374Y0226264D01*
X0275430Y0226264D01*
X0275430Y0226499D02*
X0276374Y0226499D01*
X0276374Y0226734D02*
X0275430Y0226734D01*
X0275430Y0226969D02*
X0276374Y0226969D01*
X0276374Y0227204D02*
X0275430Y0227204D01*
X0275430Y0227439D02*
X0276374Y0227439D01*
X0276374Y0227674D02*
X0275430Y0227674D01*
X0275430Y0227909D02*
X0276374Y0227909D01*
X0276374Y0228144D02*
X0275430Y0228144D01*
X0275430Y0228379D02*
X0276374Y0228379D01*
X0276374Y0228614D02*
X0275430Y0228614D01*
X0273461Y0228784D02*
X0273461Y0226264D01*
X0273461Y0228784D02*
X0274405Y0228784D01*
X0274405Y0226264D01*
X0273461Y0226264D01*
X0273461Y0226499D02*
X0274405Y0226499D01*
X0274405Y0226734D02*
X0273461Y0226734D01*
X0273461Y0226969D02*
X0274405Y0226969D01*
X0274405Y0227204D02*
X0273461Y0227204D01*
X0273461Y0227439D02*
X0274405Y0227439D01*
X0274405Y0227674D02*
X0273461Y0227674D01*
X0273461Y0227909D02*
X0274405Y0227909D01*
X0274405Y0228144D02*
X0273461Y0228144D01*
X0273461Y0228379D02*
X0274405Y0228379D01*
X0274405Y0228614D02*
X0273461Y0228614D01*
X0271493Y0228784D02*
X0271493Y0226264D01*
X0271493Y0228784D02*
X0272437Y0228784D01*
X0272437Y0226264D01*
X0271493Y0226264D01*
X0271493Y0226499D02*
X0272437Y0226499D01*
X0272437Y0226734D02*
X0271493Y0226734D01*
X0271493Y0226969D02*
X0272437Y0226969D01*
X0272437Y0227204D02*
X0271493Y0227204D01*
X0271493Y0227439D02*
X0272437Y0227439D01*
X0272437Y0227674D02*
X0271493Y0227674D01*
X0271493Y0227909D02*
X0272437Y0227909D01*
X0272437Y0228144D02*
X0271493Y0228144D01*
X0271493Y0228379D02*
X0272437Y0228379D01*
X0272437Y0228614D02*
X0271493Y0228614D01*
X0269524Y0228784D02*
X0269524Y0226264D01*
X0269524Y0228784D02*
X0270468Y0228784D01*
X0270468Y0226264D01*
X0269524Y0226264D01*
X0269524Y0226499D02*
X0270468Y0226499D01*
X0270468Y0226734D02*
X0269524Y0226734D01*
X0269524Y0226969D02*
X0270468Y0226969D01*
X0270468Y0227204D02*
X0269524Y0227204D01*
X0269524Y0227439D02*
X0270468Y0227439D01*
X0270468Y0227674D02*
X0269524Y0227674D01*
X0269524Y0227909D02*
X0270468Y0227909D01*
X0270468Y0228144D02*
X0269524Y0228144D01*
X0269524Y0228379D02*
X0270468Y0228379D01*
X0270468Y0228614D02*
X0269524Y0228614D01*
X0269524Y0237682D02*
X0269524Y0240202D01*
X0270468Y0240202D01*
X0270468Y0237682D01*
X0269524Y0237682D01*
X0269524Y0237917D02*
X0270468Y0237917D01*
X0270468Y0238152D02*
X0269524Y0238152D01*
X0269524Y0238387D02*
X0270468Y0238387D01*
X0270468Y0238622D02*
X0269524Y0238622D01*
X0269524Y0238857D02*
X0270468Y0238857D01*
X0270468Y0239092D02*
X0269524Y0239092D01*
X0269524Y0239327D02*
X0270468Y0239327D01*
X0270468Y0239562D02*
X0269524Y0239562D01*
X0269524Y0239797D02*
X0270468Y0239797D01*
X0270468Y0240032D02*
X0269524Y0240032D01*
X0271493Y0240202D02*
X0271493Y0237682D01*
X0271493Y0240202D02*
X0272437Y0240202D01*
X0272437Y0237682D01*
X0271493Y0237682D01*
X0271493Y0237917D02*
X0272437Y0237917D01*
X0272437Y0238152D02*
X0271493Y0238152D01*
X0271493Y0238387D02*
X0272437Y0238387D01*
X0272437Y0238622D02*
X0271493Y0238622D01*
X0271493Y0238857D02*
X0272437Y0238857D01*
X0272437Y0239092D02*
X0271493Y0239092D01*
X0271493Y0239327D02*
X0272437Y0239327D01*
X0272437Y0239562D02*
X0271493Y0239562D01*
X0271493Y0239797D02*
X0272437Y0239797D01*
X0272437Y0240032D02*
X0271493Y0240032D01*
X0273461Y0240202D02*
X0273461Y0237682D01*
X0273461Y0240202D02*
X0274405Y0240202D01*
X0274405Y0237682D01*
X0273461Y0237682D01*
X0273461Y0237917D02*
X0274405Y0237917D01*
X0274405Y0238152D02*
X0273461Y0238152D01*
X0273461Y0238387D02*
X0274405Y0238387D01*
X0274405Y0238622D02*
X0273461Y0238622D01*
X0273461Y0238857D02*
X0274405Y0238857D01*
X0274405Y0239092D02*
X0273461Y0239092D01*
X0273461Y0239327D02*
X0274405Y0239327D01*
X0274405Y0239562D02*
X0273461Y0239562D01*
X0273461Y0239797D02*
X0274405Y0239797D01*
X0274405Y0240032D02*
X0273461Y0240032D01*
X0275430Y0240202D02*
X0275430Y0237682D01*
X0275430Y0240202D02*
X0276374Y0240202D01*
X0276374Y0237682D01*
X0275430Y0237682D01*
X0275430Y0237917D02*
X0276374Y0237917D01*
X0276374Y0238152D02*
X0275430Y0238152D01*
X0275430Y0238387D02*
X0276374Y0238387D01*
X0276374Y0238622D02*
X0275430Y0238622D01*
X0275430Y0238857D02*
X0276374Y0238857D01*
X0276374Y0239092D02*
X0275430Y0239092D01*
X0275430Y0239327D02*
X0276374Y0239327D01*
X0276374Y0239562D02*
X0275430Y0239562D01*
X0275430Y0239797D02*
X0276374Y0239797D01*
X0276374Y0240032D02*
X0275430Y0240032D01*
X0277398Y0240202D02*
X0277398Y0237682D01*
X0277398Y0240202D02*
X0278342Y0240202D01*
X0278342Y0237682D01*
X0277398Y0237682D01*
X0277398Y0237917D02*
X0278342Y0237917D01*
X0278342Y0238152D02*
X0277398Y0238152D01*
X0277398Y0238387D02*
X0278342Y0238387D01*
X0278342Y0238622D02*
X0277398Y0238622D01*
X0277398Y0238857D02*
X0278342Y0238857D01*
X0278342Y0239092D02*
X0277398Y0239092D01*
X0277398Y0239327D02*
X0278342Y0239327D01*
X0278342Y0239562D02*
X0277398Y0239562D01*
X0277398Y0239797D02*
X0278342Y0239797D01*
X0278342Y0240032D02*
X0277398Y0240032D01*
X0202398Y0240202D02*
X0202398Y0237682D01*
X0202398Y0240202D02*
X0203342Y0240202D01*
X0203342Y0237682D01*
X0202398Y0237682D01*
X0202398Y0237917D02*
X0203342Y0237917D01*
X0203342Y0238152D02*
X0202398Y0238152D01*
X0202398Y0238387D02*
X0203342Y0238387D01*
X0203342Y0238622D02*
X0202398Y0238622D01*
X0202398Y0238857D02*
X0203342Y0238857D01*
X0203342Y0239092D02*
X0202398Y0239092D01*
X0202398Y0239327D02*
X0203342Y0239327D01*
X0203342Y0239562D02*
X0202398Y0239562D01*
X0202398Y0239797D02*
X0203342Y0239797D01*
X0203342Y0240032D02*
X0202398Y0240032D01*
X0200430Y0240202D02*
X0200430Y0237682D01*
X0200430Y0240202D02*
X0201374Y0240202D01*
X0201374Y0237682D01*
X0200430Y0237682D01*
X0200430Y0237917D02*
X0201374Y0237917D01*
X0201374Y0238152D02*
X0200430Y0238152D01*
X0200430Y0238387D02*
X0201374Y0238387D01*
X0201374Y0238622D02*
X0200430Y0238622D01*
X0200430Y0238857D02*
X0201374Y0238857D01*
X0201374Y0239092D02*
X0200430Y0239092D01*
X0200430Y0239327D02*
X0201374Y0239327D01*
X0201374Y0239562D02*
X0200430Y0239562D01*
X0200430Y0239797D02*
X0201374Y0239797D01*
X0201374Y0240032D02*
X0200430Y0240032D01*
X0198461Y0240202D02*
X0198461Y0237682D01*
X0198461Y0240202D02*
X0199405Y0240202D01*
X0199405Y0237682D01*
X0198461Y0237682D01*
X0198461Y0237917D02*
X0199405Y0237917D01*
X0199405Y0238152D02*
X0198461Y0238152D01*
X0198461Y0238387D02*
X0199405Y0238387D01*
X0199405Y0238622D02*
X0198461Y0238622D01*
X0198461Y0238857D02*
X0199405Y0238857D01*
X0199405Y0239092D02*
X0198461Y0239092D01*
X0198461Y0239327D02*
X0199405Y0239327D01*
X0199405Y0239562D02*
X0198461Y0239562D01*
X0198461Y0239797D02*
X0199405Y0239797D01*
X0199405Y0240032D02*
X0198461Y0240032D01*
X0196493Y0240202D02*
X0196493Y0237682D01*
X0196493Y0240202D02*
X0197437Y0240202D01*
X0197437Y0237682D01*
X0196493Y0237682D01*
X0196493Y0237917D02*
X0197437Y0237917D01*
X0197437Y0238152D02*
X0196493Y0238152D01*
X0196493Y0238387D02*
X0197437Y0238387D01*
X0197437Y0238622D02*
X0196493Y0238622D01*
X0196493Y0238857D02*
X0197437Y0238857D01*
X0197437Y0239092D02*
X0196493Y0239092D01*
X0196493Y0239327D02*
X0197437Y0239327D01*
X0197437Y0239562D02*
X0196493Y0239562D01*
X0196493Y0239797D02*
X0197437Y0239797D01*
X0197437Y0240032D02*
X0196493Y0240032D01*
X0194524Y0240202D02*
X0194524Y0237682D01*
X0194524Y0240202D02*
X0195468Y0240202D01*
X0195468Y0237682D01*
X0194524Y0237682D01*
X0194524Y0237917D02*
X0195468Y0237917D01*
X0195468Y0238152D02*
X0194524Y0238152D01*
X0194524Y0238387D02*
X0195468Y0238387D01*
X0195468Y0238622D02*
X0194524Y0238622D01*
X0194524Y0238857D02*
X0195468Y0238857D01*
X0195468Y0239092D02*
X0194524Y0239092D01*
X0194524Y0239327D02*
X0195468Y0239327D01*
X0195468Y0239562D02*
X0194524Y0239562D01*
X0194524Y0239797D02*
X0195468Y0239797D01*
X0195468Y0240032D02*
X0194524Y0240032D01*
X0194524Y0228784D02*
X0194524Y0226264D01*
X0194524Y0228784D02*
X0195468Y0228784D01*
X0195468Y0226264D01*
X0194524Y0226264D01*
X0194524Y0226499D02*
X0195468Y0226499D01*
X0195468Y0226734D02*
X0194524Y0226734D01*
X0194524Y0226969D02*
X0195468Y0226969D01*
X0195468Y0227204D02*
X0194524Y0227204D01*
X0194524Y0227439D02*
X0195468Y0227439D01*
X0195468Y0227674D02*
X0194524Y0227674D01*
X0194524Y0227909D02*
X0195468Y0227909D01*
X0195468Y0228144D02*
X0194524Y0228144D01*
X0194524Y0228379D02*
X0195468Y0228379D01*
X0195468Y0228614D02*
X0194524Y0228614D01*
X0196493Y0228784D02*
X0196493Y0226264D01*
X0196493Y0228784D02*
X0197437Y0228784D01*
X0197437Y0226264D01*
X0196493Y0226264D01*
X0196493Y0226499D02*
X0197437Y0226499D01*
X0197437Y0226734D02*
X0196493Y0226734D01*
X0196493Y0226969D02*
X0197437Y0226969D01*
X0197437Y0227204D02*
X0196493Y0227204D01*
X0196493Y0227439D02*
X0197437Y0227439D01*
X0197437Y0227674D02*
X0196493Y0227674D01*
X0196493Y0227909D02*
X0197437Y0227909D01*
X0197437Y0228144D02*
X0196493Y0228144D01*
X0196493Y0228379D02*
X0197437Y0228379D01*
X0197437Y0228614D02*
X0196493Y0228614D01*
X0198461Y0228784D02*
X0198461Y0226264D01*
X0198461Y0228784D02*
X0199405Y0228784D01*
X0199405Y0226264D01*
X0198461Y0226264D01*
X0198461Y0226499D02*
X0199405Y0226499D01*
X0199405Y0226734D02*
X0198461Y0226734D01*
X0198461Y0226969D02*
X0199405Y0226969D01*
X0199405Y0227204D02*
X0198461Y0227204D01*
X0198461Y0227439D02*
X0199405Y0227439D01*
X0199405Y0227674D02*
X0198461Y0227674D01*
X0198461Y0227909D02*
X0199405Y0227909D01*
X0199405Y0228144D02*
X0198461Y0228144D01*
X0198461Y0228379D02*
X0199405Y0228379D01*
X0199405Y0228614D02*
X0198461Y0228614D01*
X0200430Y0228784D02*
X0200430Y0226264D01*
X0200430Y0228784D02*
X0201374Y0228784D01*
X0201374Y0226264D01*
X0200430Y0226264D01*
X0200430Y0226499D02*
X0201374Y0226499D01*
X0201374Y0226734D02*
X0200430Y0226734D01*
X0200430Y0226969D02*
X0201374Y0226969D01*
X0201374Y0227204D02*
X0200430Y0227204D01*
X0200430Y0227439D02*
X0201374Y0227439D01*
X0201374Y0227674D02*
X0200430Y0227674D01*
X0200430Y0227909D02*
X0201374Y0227909D01*
X0201374Y0228144D02*
X0200430Y0228144D01*
X0200430Y0228379D02*
X0201374Y0228379D01*
X0201374Y0228614D02*
X0200430Y0228614D01*
X0202398Y0228784D02*
X0202398Y0226264D01*
X0202398Y0228784D02*
X0203342Y0228784D01*
X0203342Y0226264D01*
X0202398Y0226264D01*
X0202398Y0226499D02*
X0203342Y0226499D01*
X0203342Y0226734D02*
X0202398Y0226734D01*
X0202398Y0226969D02*
X0203342Y0226969D01*
X0203342Y0227204D02*
X0202398Y0227204D01*
X0202398Y0227439D02*
X0203342Y0227439D01*
X0203342Y0227674D02*
X0202398Y0227674D01*
X0202398Y0227909D02*
X0203342Y0227909D01*
X0203342Y0228144D02*
X0202398Y0228144D01*
X0202398Y0228379D02*
X0203342Y0228379D01*
X0203342Y0228614D02*
X0202398Y0228614D01*
X0118402Y0181698D02*
X0115882Y0181698D01*
X0115882Y0182642D01*
X0118402Y0182642D01*
X0118402Y0181698D01*
X0118402Y0181933D02*
X0115882Y0181933D01*
X0115882Y0182168D02*
X0118402Y0182168D01*
X0118402Y0182403D02*
X0115882Y0182403D01*
X0115882Y0182638D02*
X0118402Y0182638D01*
X0118402Y0179730D02*
X0115882Y0179730D01*
X0115882Y0180674D01*
X0118402Y0180674D01*
X0118402Y0179730D01*
X0118402Y0179965D02*
X0115882Y0179965D01*
X0115882Y0180200D02*
X0118402Y0180200D01*
X0118402Y0180435D02*
X0115882Y0180435D01*
X0115882Y0180670D02*
X0118402Y0180670D01*
X0118402Y0177761D02*
X0115882Y0177761D01*
X0115882Y0178705D01*
X0118402Y0178705D01*
X0118402Y0177761D01*
X0118402Y0177996D02*
X0115882Y0177996D01*
X0115882Y0178231D02*
X0118402Y0178231D01*
X0118402Y0178466D02*
X0115882Y0178466D01*
X0115882Y0178701D02*
X0118402Y0178701D01*
X0118402Y0175793D02*
X0115882Y0175793D01*
X0115882Y0176737D01*
X0118402Y0176737D01*
X0118402Y0175793D01*
X0118402Y0176028D02*
X0115882Y0176028D01*
X0115882Y0176263D02*
X0118402Y0176263D01*
X0118402Y0176498D02*
X0115882Y0176498D01*
X0115882Y0176733D02*
X0118402Y0176733D01*
X0118402Y0173824D02*
X0115882Y0173824D01*
X0115882Y0174768D01*
X0118402Y0174768D01*
X0118402Y0173824D01*
X0118402Y0174059D02*
X0115882Y0174059D01*
X0115882Y0174294D02*
X0118402Y0174294D01*
X0118402Y0174529D02*
X0115882Y0174529D01*
X0115882Y0174764D02*
X0118402Y0174764D01*
X0106984Y0173824D02*
X0104464Y0173824D01*
X0104464Y0174768D01*
X0106984Y0174768D01*
X0106984Y0173824D01*
X0106984Y0174059D02*
X0104464Y0174059D01*
X0104464Y0174294D02*
X0106984Y0174294D01*
X0106984Y0174529D02*
X0104464Y0174529D01*
X0104464Y0174764D02*
X0106984Y0174764D01*
X0106984Y0175793D02*
X0104464Y0175793D01*
X0104464Y0176737D01*
X0106984Y0176737D01*
X0106984Y0175793D01*
X0106984Y0176028D02*
X0104464Y0176028D01*
X0104464Y0176263D02*
X0106984Y0176263D01*
X0106984Y0176498D02*
X0104464Y0176498D01*
X0104464Y0176733D02*
X0106984Y0176733D01*
X0106984Y0177761D02*
X0104464Y0177761D01*
X0104464Y0178705D01*
X0106984Y0178705D01*
X0106984Y0177761D01*
X0106984Y0177996D02*
X0104464Y0177996D01*
X0104464Y0178231D02*
X0106984Y0178231D01*
X0106984Y0178466D02*
X0104464Y0178466D01*
X0104464Y0178701D02*
X0106984Y0178701D01*
X0106984Y0179730D02*
X0104464Y0179730D01*
X0104464Y0180674D01*
X0106984Y0180674D01*
X0106984Y0179730D01*
X0106984Y0179965D02*
X0104464Y0179965D01*
X0104464Y0180200D02*
X0106984Y0180200D01*
X0106984Y0180435D02*
X0104464Y0180435D01*
X0104464Y0180670D02*
X0106984Y0180670D01*
X0106984Y0181698D02*
X0104464Y0181698D01*
X0104464Y0182642D01*
X0106984Y0182642D01*
X0106984Y0181698D01*
X0106984Y0181933D02*
X0104464Y0181933D01*
X0104464Y0182168D02*
X0106984Y0182168D01*
X0106984Y0182403D02*
X0104464Y0182403D01*
X0104464Y0182638D02*
X0106984Y0182638D01*
X0409464Y0273824D02*
X0411984Y0273824D01*
X0409464Y0273824D02*
X0409464Y0274768D01*
X0411984Y0274768D01*
X0411984Y0273824D01*
X0411984Y0274059D02*
X0409464Y0274059D01*
X0409464Y0274294D02*
X0411984Y0274294D01*
X0411984Y0274529D02*
X0409464Y0274529D01*
X0409464Y0274764D02*
X0411984Y0274764D01*
X0411984Y0275793D02*
X0409464Y0275793D01*
X0409464Y0276737D01*
X0411984Y0276737D01*
X0411984Y0275793D01*
X0411984Y0276028D02*
X0409464Y0276028D01*
X0409464Y0276263D02*
X0411984Y0276263D01*
X0411984Y0276498D02*
X0409464Y0276498D01*
X0409464Y0276733D02*
X0411984Y0276733D01*
X0411984Y0277761D02*
X0409464Y0277761D01*
X0409464Y0278705D01*
X0411984Y0278705D01*
X0411984Y0277761D01*
X0411984Y0277996D02*
X0409464Y0277996D01*
X0409464Y0278231D02*
X0411984Y0278231D01*
X0411984Y0278466D02*
X0409464Y0278466D01*
X0409464Y0278701D02*
X0411984Y0278701D01*
X0411984Y0279730D02*
X0409464Y0279730D01*
X0409464Y0280674D01*
X0411984Y0280674D01*
X0411984Y0279730D01*
X0411984Y0279965D02*
X0409464Y0279965D01*
X0409464Y0280200D02*
X0411984Y0280200D01*
X0411984Y0280435D02*
X0409464Y0280435D01*
X0409464Y0280670D02*
X0411984Y0280670D01*
X0411984Y0281698D02*
X0409464Y0281698D01*
X0409464Y0282642D01*
X0411984Y0282642D01*
X0411984Y0281698D01*
X0411984Y0281933D02*
X0409464Y0281933D01*
X0409464Y0282168D02*
X0411984Y0282168D01*
X0411984Y0282403D02*
X0409464Y0282403D01*
X0409464Y0282638D02*
X0411984Y0282638D01*
X0420882Y0281698D02*
X0423402Y0281698D01*
X0420882Y0281698D02*
X0420882Y0282642D01*
X0423402Y0282642D01*
X0423402Y0281698D01*
X0423402Y0281933D02*
X0420882Y0281933D01*
X0420882Y0282168D02*
X0423402Y0282168D01*
X0423402Y0282403D02*
X0420882Y0282403D01*
X0420882Y0282638D02*
X0423402Y0282638D01*
X0423402Y0279730D02*
X0420882Y0279730D01*
X0420882Y0280674D01*
X0423402Y0280674D01*
X0423402Y0279730D01*
X0423402Y0279965D02*
X0420882Y0279965D01*
X0420882Y0280200D02*
X0423402Y0280200D01*
X0423402Y0280435D02*
X0420882Y0280435D01*
X0420882Y0280670D02*
X0423402Y0280670D01*
X0423402Y0277761D02*
X0420882Y0277761D01*
X0420882Y0278705D01*
X0423402Y0278705D01*
X0423402Y0277761D01*
X0423402Y0277996D02*
X0420882Y0277996D01*
X0420882Y0278231D02*
X0423402Y0278231D01*
X0423402Y0278466D02*
X0420882Y0278466D01*
X0420882Y0278701D02*
X0423402Y0278701D01*
X0423402Y0275793D02*
X0420882Y0275793D01*
X0420882Y0276737D01*
X0423402Y0276737D01*
X0423402Y0275793D01*
X0423402Y0276028D02*
X0420882Y0276028D01*
X0420882Y0276263D02*
X0423402Y0276263D01*
X0423402Y0276498D02*
X0420882Y0276498D01*
X0420882Y0276733D02*
X0423402Y0276733D01*
X0423402Y0273824D02*
X0420882Y0273824D01*
X0420882Y0274768D01*
X0423402Y0274768D01*
X0423402Y0273824D01*
X0423402Y0274059D02*
X0420882Y0274059D01*
X0420882Y0274294D02*
X0423402Y0274294D01*
X0423402Y0274529D02*
X0420882Y0274529D01*
X0420882Y0274764D02*
X0423402Y0274764D01*
D15*
X0418402Y0274887D03*
X0418402Y0278233D03*
X0418402Y0281580D03*
X0414465Y0281580D03*
X0414465Y0278233D03*
X0414465Y0274887D03*
X0343402Y0212830D03*
X0343402Y0209483D03*
X0343402Y0206137D03*
X0339465Y0206137D03*
X0339465Y0209483D03*
X0339465Y0212830D03*
X0277280Y0231265D03*
X0273933Y0231265D03*
X0270587Y0231265D03*
X0270587Y0235202D03*
X0273933Y0235202D03*
X0277280Y0235202D03*
X0202280Y0235202D03*
X0198933Y0235202D03*
X0195587Y0235202D03*
X0195587Y0231265D03*
X0198933Y0231265D03*
X0202280Y0231265D03*
X0113402Y0181580D03*
X0113402Y0178233D03*
X0113402Y0174887D03*
X0109465Y0174887D03*
X0109465Y0178233D03*
X0109465Y0181580D03*
X0174465Y0150330D03*
X0174465Y0146983D03*
X0174465Y0143637D03*
X0178402Y0143637D03*
X0178402Y0146983D03*
X0178402Y0150330D03*
X0240587Y0125202D03*
X0243933Y0125202D03*
X0247280Y0125202D03*
X0247280Y0121265D03*
X0243933Y0121265D03*
X0240587Y0121265D03*
X0315587Y0121265D03*
X0318933Y0121265D03*
X0322280Y0121265D03*
X0322280Y0125202D03*
X0318933Y0125202D03*
X0315587Y0125202D03*
X0414465Y0081580D03*
X0414465Y0078233D03*
X0414465Y0074887D03*
X0418402Y0074887D03*
X0418402Y0078233D03*
X0418402Y0081580D03*
D16*
X0394763Y0218753D02*
X0394763Y0223513D01*
X0394763Y0218753D02*
X0393003Y0218753D01*
X0393003Y0223513D01*
X0394763Y0223513D01*
X0394763Y0219192D02*
X0393003Y0219192D01*
X0393003Y0219631D02*
X0394763Y0219631D01*
X0394763Y0220070D02*
X0393003Y0220070D01*
X0393003Y0220509D02*
X0394763Y0220509D01*
X0394763Y0220948D02*
X0393003Y0220948D01*
X0393003Y0221387D02*
X0394763Y0221387D01*
X0394763Y0221826D02*
X0393003Y0221826D01*
X0393003Y0222265D02*
X0394763Y0222265D01*
X0394763Y0222704D02*
X0393003Y0222704D01*
X0393003Y0223143D02*
X0394763Y0223143D01*
X0391063Y0223513D02*
X0391063Y0218753D01*
X0389303Y0218753D01*
X0389303Y0223513D01*
X0391063Y0223513D01*
X0391063Y0219192D02*
X0389303Y0219192D01*
X0389303Y0219631D02*
X0391063Y0219631D01*
X0391063Y0220070D02*
X0389303Y0220070D01*
X0389303Y0220509D02*
X0391063Y0220509D01*
X0391063Y0220948D02*
X0389303Y0220948D01*
X0389303Y0221387D02*
X0391063Y0221387D01*
X0391063Y0221826D02*
X0389303Y0221826D01*
X0389303Y0222265D02*
X0391063Y0222265D01*
X0391063Y0222704D02*
X0389303Y0222704D01*
X0389303Y0223143D02*
X0391063Y0223143D01*
X0387363Y0223513D02*
X0387363Y0218753D01*
X0385603Y0218753D01*
X0385603Y0223513D01*
X0387363Y0223513D01*
X0387363Y0219192D02*
X0385603Y0219192D01*
X0385603Y0219631D02*
X0387363Y0219631D01*
X0387363Y0220070D02*
X0385603Y0220070D01*
X0385603Y0220509D02*
X0387363Y0220509D01*
X0387363Y0220948D02*
X0385603Y0220948D01*
X0385603Y0221387D02*
X0387363Y0221387D01*
X0387363Y0221826D02*
X0385603Y0221826D01*
X0385603Y0222265D02*
X0387363Y0222265D01*
X0387363Y0222704D02*
X0385603Y0222704D01*
X0385603Y0223143D02*
X0387363Y0223143D01*
X0387363Y0227953D02*
X0387363Y0232713D01*
X0387363Y0227953D02*
X0385603Y0227953D01*
X0385603Y0232713D01*
X0387363Y0232713D01*
X0387363Y0228392D02*
X0385603Y0228392D01*
X0385603Y0228831D02*
X0387363Y0228831D01*
X0387363Y0229270D02*
X0385603Y0229270D01*
X0385603Y0229709D02*
X0387363Y0229709D01*
X0387363Y0230148D02*
X0385603Y0230148D01*
X0385603Y0230587D02*
X0387363Y0230587D01*
X0387363Y0231026D02*
X0385603Y0231026D01*
X0385603Y0231465D02*
X0387363Y0231465D01*
X0387363Y0231904D02*
X0385603Y0231904D01*
X0385603Y0232343D02*
X0387363Y0232343D01*
X0394763Y0232713D02*
X0394763Y0227953D01*
X0393003Y0227953D01*
X0393003Y0232713D01*
X0394763Y0232713D01*
X0394763Y0228392D02*
X0393003Y0228392D01*
X0393003Y0228831D02*
X0394763Y0228831D01*
X0394763Y0229270D02*
X0393003Y0229270D01*
X0393003Y0229709D02*
X0394763Y0229709D01*
X0394763Y0230148D02*
X0393003Y0230148D01*
X0393003Y0230587D02*
X0394763Y0230587D01*
X0394763Y0231026D02*
X0393003Y0231026D01*
X0393003Y0231465D02*
X0394763Y0231465D01*
X0394763Y0231904D02*
X0393003Y0231904D01*
X0393003Y0232343D02*
X0394763Y0232343D01*
X0130503Y0137713D02*
X0130503Y0132953D01*
X0130503Y0137713D02*
X0132263Y0137713D01*
X0132263Y0132953D01*
X0130503Y0132953D01*
X0130503Y0133392D02*
X0132263Y0133392D01*
X0132263Y0133831D02*
X0130503Y0133831D01*
X0130503Y0134270D02*
X0132263Y0134270D01*
X0132263Y0134709D02*
X0130503Y0134709D01*
X0130503Y0135148D02*
X0132263Y0135148D01*
X0132263Y0135587D02*
X0130503Y0135587D01*
X0130503Y0136026D02*
X0132263Y0136026D01*
X0132263Y0136465D02*
X0130503Y0136465D01*
X0130503Y0136904D02*
X0132263Y0136904D01*
X0132263Y0137343D02*
X0130503Y0137343D01*
X0126803Y0137713D02*
X0126803Y0132953D01*
X0126803Y0137713D02*
X0128563Y0137713D01*
X0128563Y0132953D01*
X0126803Y0132953D01*
X0126803Y0133392D02*
X0128563Y0133392D01*
X0128563Y0133831D02*
X0126803Y0133831D01*
X0126803Y0134270D02*
X0128563Y0134270D01*
X0128563Y0134709D02*
X0126803Y0134709D01*
X0126803Y0135148D02*
X0128563Y0135148D01*
X0128563Y0135587D02*
X0126803Y0135587D01*
X0126803Y0136026D02*
X0128563Y0136026D01*
X0128563Y0136465D02*
X0126803Y0136465D01*
X0126803Y0136904D02*
X0128563Y0136904D01*
X0128563Y0137343D02*
X0126803Y0137343D01*
X0123103Y0137713D02*
X0123103Y0132953D01*
X0123103Y0137713D02*
X0124863Y0137713D01*
X0124863Y0132953D01*
X0123103Y0132953D01*
X0123103Y0133392D02*
X0124863Y0133392D01*
X0124863Y0133831D02*
X0123103Y0133831D01*
X0123103Y0134270D02*
X0124863Y0134270D01*
X0124863Y0134709D02*
X0123103Y0134709D01*
X0123103Y0135148D02*
X0124863Y0135148D01*
X0124863Y0135587D02*
X0123103Y0135587D01*
X0123103Y0136026D02*
X0124863Y0136026D01*
X0124863Y0136465D02*
X0123103Y0136465D01*
X0123103Y0136904D02*
X0124863Y0136904D01*
X0124863Y0137343D02*
X0123103Y0137343D01*
X0123103Y0128513D02*
X0123103Y0123753D01*
X0123103Y0128513D02*
X0124863Y0128513D01*
X0124863Y0123753D01*
X0123103Y0123753D01*
X0123103Y0124192D02*
X0124863Y0124192D01*
X0124863Y0124631D02*
X0123103Y0124631D01*
X0123103Y0125070D02*
X0124863Y0125070D01*
X0124863Y0125509D02*
X0123103Y0125509D01*
X0123103Y0125948D02*
X0124863Y0125948D01*
X0124863Y0126387D02*
X0123103Y0126387D01*
X0123103Y0126826D02*
X0124863Y0126826D01*
X0124863Y0127265D02*
X0123103Y0127265D01*
X0123103Y0127704D02*
X0124863Y0127704D01*
X0124863Y0128143D02*
X0123103Y0128143D01*
X0130503Y0128513D02*
X0130503Y0123753D01*
X0130503Y0128513D02*
X0132263Y0128513D01*
X0132263Y0123753D01*
X0130503Y0123753D01*
X0130503Y0124192D02*
X0132263Y0124192D01*
X0132263Y0124631D02*
X0130503Y0124631D01*
X0130503Y0125070D02*
X0132263Y0125070D01*
X0132263Y0125509D02*
X0130503Y0125509D01*
X0130503Y0125948D02*
X0132263Y0125948D01*
X0132263Y0126387D02*
X0130503Y0126387D01*
X0130503Y0126826D02*
X0132263Y0126826D01*
X0132263Y0127265D02*
X0130503Y0127265D01*
X0130503Y0127704D02*
X0132263Y0127704D01*
X0132263Y0128143D02*
X0130503Y0128143D01*
D17*
X0395843Y0110950D02*
X0395843Y0107328D01*
X0395843Y0110950D02*
X0402023Y0110950D01*
X0402023Y0107328D01*
X0395843Y0107328D01*
X0395843Y0108233D02*
X0402023Y0108233D01*
X0402023Y0109138D02*
X0395843Y0109138D01*
X0395843Y0110043D02*
X0402023Y0110043D01*
X0402023Y0110948D02*
X0395843Y0110948D01*
X0405843Y0110950D02*
X0405843Y0107328D01*
X0405843Y0110950D02*
X0412023Y0110950D01*
X0412023Y0107328D01*
X0405843Y0107328D01*
X0405843Y0108233D02*
X0412023Y0108233D01*
X0412023Y0109138D02*
X0405843Y0109138D01*
X0405843Y0110043D02*
X0412023Y0110043D01*
X0412023Y0110948D02*
X0405843Y0110948D01*
X0405843Y0099139D02*
X0405843Y0095517D01*
X0405843Y0099139D02*
X0412023Y0099139D01*
X0412023Y0095517D01*
X0405843Y0095517D01*
X0405843Y0096422D02*
X0412023Y0096422D01*
X0412023Y0097327D02*
X0405843Y0097327D01*
X0405843Y0098232D02*
X0412023Y0098232D01*
X0412023Y0099137D02*
X0405843Y0099137D01*
X0395843Y0099139D02*
X0395843Y0095517D01*
X0395843Y0099139D02*
X0402023Y0099139D01*
X0402023Y0095517D01*
X0395843Y0095517D01*
X0395843Y0096422D02*
X0402023Y0096422D01*
X0402023Y0097327D02*
X0395843Y0097327D01*
X0395843Y0098232D02*
X0402023Y0098232D01*
X0402023Y0099137D02*
X0395843Y0099137D01*
X0402023Y0245517D02*
X0402023Y0249139D01*
X0402023Y0245517D02*
X0395843Y0245517D01*
X0395843Y0249139D01*
X0402023Y0249139D01*
X0402023Y0246422D02*
X0395843Y0246422D01*
X0395843Y0247327D02*
X0402023Y0247327D01*
X0402023Y0248232D02*
X0395843Y0248232D01*
X0395843Y0249137D02*
X0402023Y0249137D01*
X0412023Y0249139D02*
X0412023Y0245517D01*
X0405843Y0245517D01*
X0405843Y0249139D01*
X0412023Y0249139D01*
X0412023Y0246422D02*
X0405843Y0246422D01*
X0405843Y0247327D02*
X0412023Y0247327D01*
X0412023Y0248232D02*
X0405843Y0248232D01*
X0405843Y0249137D02*
X0412023Y0249137D01*
X0412023Y0257328D02*
X0412023Y0260950D01*
X0412023Y0257328D02*
X0405843Y0257328D01*
X0405843Y0260950D01*
X0412023Y0260950D01*
X0412023Y0258233D02*
X0405843Y0258233D01*
X0405843Y0259138D02*
X0412023Y0259138D01*
X0412023Y0260043D02*
X0405843Y0260043D01*
X0405843Y0260948D02*
X0412023Y0260948D01*
X0402023Y0260950D02*
X0402023Y0257328D01*
X0395843Y0257328D01*
X0395843Y0260950D01*
X0402023Y0260950D01*
X0402023Y0258233D02*
X0395843Y0258233D01*
X0395843Y0259138D02*
X0402023Y0259138D01*
X0402023Y0260043D02*
X0395843Y0260043D01*
X0395843Y0260948D02*
X0402023Y0260948D01*
D18*
X0089976Y0144257D02*
X0087614Y0144257D01*
X0087614Y0147209D01*
X0089976Y0147209D01*
X0089976Y0144257D01*
X0089976Y0144847D02*
X0087614Y0144847D01*
X0087614Y0145437D02*
X0089976Y0145437D01*
X0089976Y0146027D02*
X0087614Y0146027D01*
X0087614Y0146617D02*
X0089976Y0146617D01*
X0089976Y0147207D02*
X0087614Y0147207D01*
X0085252Y0144257D02*
X0082890Y0144257D01*
X0082890Y0147209D01*
X0085252Y0147209D01*
X0085252Y0144257D01*
X0085252Y0144847D02*
X0082890Y0144847D01*
X0082890Y0145437D02*
X0085252Y0145437D01*
X0085252Y0146027D02*
X0082890Y0146027D01*
X0082890Y0146617D02*
X0085252Y0146617D01*
X0085252Y0147207D02*
X0082890Y0147207D01*
X0076659Y0149690D02*
X0076659Y0152052D01*
X0076659Y0149690D02*
X0073707Y0149690D01*
X0073707Y0152052D01*
X0076659Y0152052D01*
X0076659Y0150280D02*
X0073707Y0150280D01*
X0073707Y0150870D02*
X0076659Y0150870D01*
X0076659Y0151460D02*
X0073707Y0151460D01*
X0073707Y0152050D02*
X0076659Y0152050D01*
X0076659Y0154414D02*
X0076659Y0156776D01*
X0076659Y0154414D02*
X0073707Y0154414D01*
X0073707Y0156776D01*
X0076659Y0156776D01*
X0076659Y0155004D02*
X0073707Y0155004D01*
X0073707Y0155594D02*
X0076659Y0155594D01*
X0076659Y0156184D02*
X0073707Y0156184D01*
X0073707Y0156774D02*
X0076659Y0156774D01*
X0073707Y0159690D02*
X0073707Y0162052D01*
X0076659Y0162052D01*
X0076659Y0159690D01*
X0073707Y0159690D01*
X0073707Y0160280D02*
X0076659Y0160280D01*
X0076659Y0160870D02*
X0073707Y0160870D01*
X0073707Y0161460D02*
X0076659Y0161460D01*
X0076659Y0162050D02*
X0073707Y0162050D01*
X0073707Y0164414D02*
X0073707Y0166776D01*
X0076659Y0166776D01*
X0076659Y0164414D01*
X0073707Y0164414D01*
X0073707Y0165004D02*
X0076659Y0165004D01*
X0076659Y0165594D02*
X0073707Y0165594D01*
X0073707Y0166184D02*
X0076659Y0166184D01*
X0076659Y0166774D02*
X0073707Y0166774D01*
D19*
X0165488Y0174316D02*
X0169544Y0174316D01*
X0165488Y0174316D02*
X0165488Y0176206D01*
X0169544Y0176206D01*
X0169544Y0174316D01*
X0169544Y0174787D02*
X0165488Y0174787D01*
X0165488Y0175258D02*
X0169544Y0175258D01*
X0169544Y0175729D02*
X0165488Y0175729D01*
X0165488Y0176200D02*
X0169544Y0176200D01*
X0169544Y0190261D02*
X0165488Y0190261D01*
X0165488Y0192151D01*
X0169544Y0192151D01*
X0169544Y0190261D01*
X0169544Y0190732D02*
X0165488Y0190732D01*
X0165488Y0191203D02*
X0169544Y0191203D01*
X0169544Y0191674D02*
X0165488Y0191674D01*
X0165488Y0192145D02*
X0169544Y0192145D01*
X0188322Y0190261D02*
X0192378Y0190261D01*
X0188322Y0190261D02*
X0188322Y0192151D01*
X0192378Y0192151D01*
X0192378Y0190261D01*
X0192378Y0190732D02*
X0188322Y0190732D01*
X0188322Y0191203D02*
X0192378Y0191203D01*
X0192378Y0191674D02*
X0188322Y0191674D01*
X0188322Y0192145D02*
X0192378Y0192145D01*
X0192378Y0174316D02*
X0188322Y0174316D01*
X0188322Y0176206D01*
X0192378Y0176206D01*
X0192378Y0174316D01*
X0192378Y0174787D02*
X0188322Y0174787D01*
X0188322Y0175258D02*
X0192378Y0175258D01*
X0192378Y0175729D02*
X0188322Y0175729D01*
X0188322Y0176200D02*
X0192378Y0176200D01*
D20*
X0192457Y0177485D02*
X0188243Y0177485D01*
X0188243Y0178745D01*
X0192457Y0178745D01*
X0192457Y0177485D01*
X0192457Y0177799D02*
X0188243Y0177799D01*
X0188243Y0178113D02*
X0192457Y0178113D01*
X0192457Y0178427D02*
X0188243Y0178427D01*
X0188243Y0178741D02*
X0192457Y0178741D01*
X0192457Y0180044D02*
X0188243Y0180044D01*
X0188243Y0181304D01*
X0192457Y0181304D01*
X0192457Y0180044D01*
X0192457Y0180358D02*
X0188243Y0180358D01*
X0188243Y0180672D02*
X0192457Y0180672D01*
X0192457Y0180986D02*
X0188243Y0180986D01*
X0188243Y0181300D02*
X0192457Y0181300D01*
X0192457Y0182603D02*
X0188243Y0182603D01*
X0188243Y0183863D01*
X0192457Y0183863D01*
X0192457Y0182603D01*
X0192457Y0182917D02*
X0188243Y0182917D01*
X0188243Y0183231D02*
X0192457Y0183231D01*
X0192457Y0183545D02*
X0188243Y0183545D01*
X0188243Y0183859D02*
X0192457Y0183859D01*
X0192457Y0185162D02*
X0188243Y0185162D01*
X0188243Y0186422D01*
X0192457Y0186422D01*
X0192457Y0185162D01*
X0192457Y0185476D02*
X0188243Y0185476D01*
X0188243Y0185790D02*
X0192457Y0185790D01*
X0192457Y0186104D02*
X0188243Y0186104D01*
X0188243Y0186418D02*
X0192457Y0186418D01*
X0192457Y0187721D02*
X0188243Y0187721D01*
X0188243Y0188981D01*
X0192457Y0188981D01*
X0192457Y0187721D01*
X0192457Y0188035D02*
X0188243Y0188035D01*
X0188243Y0188349D02*
X0192457Y0188349D01*
X0192457Y0188663D02*
X0188243Y0188663D01*
X0188243Y0188977D02*
X0192457Y0188977D01*
X0169623Y0187721D02*
X0165409Y0187721D01*
X0165409Y0188981D01*
X0169623Y0188981D01*
X0169623Y0187721D01*
X0169623Y0188035D02*
X0165409Y0188035D01*
X0165409Y0188349D02*
X0169623Y0188349D01*
X0169623Y0188663D02*
X0165409Y0188663D01*
X0165409Y0188977D02*
X0169623Y0188977D01*
X0169623Y0185162D02*
X0165409Y0185162D01*
X0165409Y0186422D01*
X0169623Y0186422D01*
X0169623Y0185162D01*
X0169623Y0185476D02*
X0165409Y0185476D01*
X0165409Y0185790D02*
X0169623Y0185790D01*
X0169623Y0186104D02*
X0165409Y0186104D01*
X0165409Y0186418D02*
X0169623Y0186418D01*
X0169623Y0182603D02*
X0165409Y0182603D01*
X0165409Y0183863D01*
X0169623Y0183863D01*
X0169623Y0182603D01*
X0169623Y0182917D02*
X0165409Y0182917D01*
X0165409Y0183231D02*
X0169623Y0183231D01*
X0169623Y0183545D02*
X0165409Y0183545D01*
X0165409Y0183859D02*
X0169623Y0183859D01*
X0169623Y0180044D02*
X0165409Y0180044D01*
X0165409Y0181304D01*
X0169623Y0181304D01*
X0169623Y0180044D01*
X0169623Y0180358D02*
X0165409Y0180358D01*
X0165409Y0180672D02*
X0169623Y0180672D01*
X0169623Y0180986D02*
X0165409Y0180986D01*
X0165409Y0181300D02*
X0169623Y0181300D01*
X0169623Y0177485D02*
X0165409Y0177485D01*
X0165409Y0178745D01*
X0169623Y0178745D01*
X0169623Y0177485D01*
X0169623Y0177799D02*
X0165409Y0177799D01*
X0165409Y0178113D02*
X0169623Y0178113D01*
X0169623Y0178427D02*
X0165409Y0178427D01*
X0165409Y0178741D02*
X0169623Y0178741D01*
D21*
X0113523Y0194620D02*
X0112410Y0195733D01*
X0112967Y0196290D01*
X0114080Y0195177D01*
X0113523Y0194620D01*
X0113719Y0194816D02*
X0113327Y0194816D01*
X0113131Y0195012D02*
X0113915Y0195012D01*
X0114049Y0195208D02*
X0112935Y0195208D01*
X0112739Y0195404D02*
X0113853Y0195404D01*
X0113657Y0195600D02*
X0112543Y0195600D01*
X0112473Y0195796D02*
X0113461Y0195796D01*
X0113265Y0195992D02*
X0112669Y0195992D01*
X0112865Y0196188D02*
X0113069Y0196188D01*
X0112688Y0197681D02*
X0111575Y0196568D01*
X0111018Y0197125D01*
X0112131Y0198238D01*
X0112688Y0197681D01*
X0111771Y0196764D02*
X0111379Y0196764D01*
X0111183Y0196960D02*
X0111967Y0196960D01*
X0112163Y0197156D02*
X0111049Y0197156D01*
X0111245Y0197352D02*
X0112359Y0197352D01*
X0112555Y0197548D02*
X0111441Y0197548D01*
X0111637Y0197744D02*
X0112625Y0197744D01*
X0112429Y0197940D02*
X0111833Y0197940D01*
X0112029Y0198136D02*
X0112233Y0198136D01*
X0110183Y0197960D02*
X0109070Y0199073D01*
X0109627Y0199630D01*
X0110740Y0198517D01*
X0110183Y0197960D01*
X0110379Y0198156D02*
X0109987Y0198156D01*
X0109791Y0198352D02*
X0110575Y0198352D01*
X0110709Y0198548D02*
X0109595Y0198548D01*
X0109399Y0198744D02*
X0110513Y0198744D01*
X0110317Y0198940D02*
X0109203Y0198940D01*
X0109133Y0199136D02*
X0110121Y0199136D01*
X0109925Y0199332D02*
X0109329Y0199332D01*
X0109525Y0199528D02*
X0109729Y0199528D01*
X0107678Y0197681D02*
X0108791Y0196568D01*
X0107678Y0197681D02*
X0108235Y0198238D01*
X0109348Y0197125D01*
X0108791Y0196568D01*
X0108987Y0196764D02*
X0108595Y0196764D01*
X0108399Y0196960D02*
X0109183Y0196960D01*
X0109317Y0197156D02*
X0108203Y0197156D01*
X0108007Y0197352D02*
X0109121Y0197352D01*
X0108925Y0197548D02*
X0107811Y0197548D01*
X0107741Y0197744D02*
X0108729Y0197744D01*
X0108533Y0197940D02*
X0107937Y0197940D01*
X0108133Y0198136D02*
X0108337Y0198136D01*
X0106286Y0196289D02*
X0107399Y0195176D01*
X0106286Y0196289D02*
X0106843Y0196846D01*
X0107956Y0195733D01*
X0107399Y0195176D01*
X0107595Y0195372D02*
X0107203Y0195372D01*
X0107007Y0195568D02*
X0107791Y0195568D01*
X0107925Y0195764D02*
X0106811Y0195764D01*
X0106615Y0195960D02*
X0107729Y0195960D01*
X0107533Y0196156D02*
X0106419Y0196156D01*
X0106349Y0196352D02*
X0107337Y0196352D01*
X0107141Y0196548D02*
X0106545Y0196548D01*
X0106741Y0196744D02*
X0106945Y0196744D01*
X0109348Y0194341D02*
X0108235Y0193228D01*
X0107678Y0193785D01*
X0108791Y0194898D01*
X0109348Y0194341D01*
X0108431Y0193424D02*
X0108039Y0193424D01*
X0107843Y0193620D02*
X0108627Y0193620D01*
X0108823Y0193816D02*
X0107709Y0193816D01*
X0107905Y0194012D02*
X0109019Y0194012D01*
X0109215Y0194208D02*
X0108101Y0194208D01*
X0108297Y0194404D02*
X0109285Y0194404D01*
X0109089Y0194600D02*
X0108493Y0194600D01*
X0108689Y0194796D02*
X0108893Y0194796D01*
X0109626Y0192949D02*
X0110739Y0191836D01*
X0109626Y0192949D02*
X0110183Y0193506D01*
X0111296Y0192393D01*
X0110739Y0191836D01*
X0110935Y0192032D02*
X0110543Y0192032D01*
X0110347Y0192228D02*
X0111131Y0192228D01*
X0111265Y0192424D02*
X0110151Y0192424D01*
X0109955Y0192620D02*
X0111069Y0192620D01*
X0110873Y0192816D02*
X0109759Y0192816D01*
X0109689Y0193012D02*
X0110677Y0193012D01*
X0110481Y0193208D02*
X0109885Y0193208D01*
X0110081Y0193404D02*
X0110285Y0193404D01*
X0111018Y0194341D02*
X0112131Y0193228D01*
X0111018Y0194341D02*
X0111575Y0194898D01*
X0112688Y0193785D01*
X0112131Y0193228D01*
X0112327Y0193424D02*
X0111935Y0193424D01*
X0111739Y0193620D02*
X0112523Y0193620D01*
X0112657Y0193816D02*
X0111543Y0193816D01*
X0111347Y0194012D02*
X0112461Y0194012D01*
X0112265Y0194208D02*
X0111151Y0194208D01*
X0111081Y0194404D02*
X0112069Y0194404D01*
X0111873Y0194600D02*
X0111277Y0194600D01*
X0111473Y0194796D02*
X0111677Y0194796D01*
X0092438Y0163075D02*
X0089484Y0163075D01*
X0092438Y0163075D02*
X0092438Y0162485D01*
X0089484Y0162485D01*
X0089484Y0163075D01*
X0089484Y0162681D02*
X0092438Y0162681D01*
X0092438Y0162877D02*
X0089484Y0162877D01*
X0089484Y0163073D02*
X0092438Y0163073D01*
X0092438Y0161501D02*
X0089484Y0161501D01*
X0092438Y0161501D02*
X0092438Y0160911D01*
X0089484Y0160911D01*
X0089484Y0161501D01*
X0089484Y0161107D02*
X0092438Y0161107D01*
X0092438Y0161303D02*
X0089484Y0161303D01*
X0089484Y0161499D02*
X0092438Y0161499D01*
X0092438Y0159926D02*
X0089484Y0159926D01*
X0092438Y0159926D02*
X0092438Y0159336D01*
X0089484Y0159336D01*
X0089484Y0159926D01*
X0089484Y0159532D02*
X0092438Y0159532D01*
X0092438Y0159728D02*
X0089484Y0159728D01*
X0089484Y0159924D02*
X0092438Y0159924D01*
X0092438Y0157485D02*
X0089484Y0157485D01*
X0092438Y0157485D02*
X0092438Y0156895D01*
X0089484Y0156895D01*
X0089484Y0157485D01*
X0089484Y0157091D02*
X0092438Y0157091D01*
X0092438Y0157287D02*
X0089484Y0157287D01*
X0089484Y0157483D02*
X0092438Y0157483D01*
X0092438Y0155910D02*
X0089484Y0155910D01*
X0092438Y0155910D02*
X0092438Y0155320D01*
X0089484Y0155320D01*
X0089484Y0155910D01*
X0089484Y0155516D02*
X0092438Y0155516D01*
X0092438Y0155712D02*
X0089484Y0155712D01*
X0089484Y0155908D02*
X0092438Y0155908D01*
X0092438Y0154335D02*
X0089484Y0154335D01*
X0092438Y0154335D02*
X0092438Y0153745D01*
X0089484Y0153745D01*
X0089484Y0154335D01*
X0089484Y0153941D02*
X0092438Y0153941D01*
X0092438Y0154137D02*
X0089484Y0154137D01*
X0089484Y0154333D02*
X0092438Y0154333D01*
X0083383Y0154335D02*
X0080429Y0154335D01*
X0083383Y0154335D02*
X0083383Y0153745D01*
X0080429Y0153745D01*
X0080429Y0154335D01*
X0080429Y0153941D02*
X0083383Y0153941D01*
X0083383Y0154137D02*
X0080429Y0154137D01*
X0080429Y0154333D02*
X0083383Y0154333D01*
X0083383Y0155910D02*
X0080429Y0155910D01*
X0083383Y0155910D02*
X0083383Y0155320D01*
X0080429Y0155320D01*
X0080429Y0155910D01*
X0080429Y0155516D02*
X0083383Y0155516D01*
X0083383Y0155712D02*
X0080429Y0155712D01*
X0080429Y0155908D02*
X0083383Y0155908D01*
X0083383Y0157485D02*
X0080429Y0157485D01*
X0083383Y0157485D02*
X0083383Y0156895D01*
X0080429Y0156895D01*
X0080429Y0157485D01*
X0080429Y0157091D02*
X0083383Y0157091D01*
X0083383Y0157287D02*
X0080429Y0157287D01*
X0080429Y0157483D02*
X0083383Y0157483D01*
X0083383Y0159926D02*
X0080429Y0159926D01*
X0083383Y0159926D02*
X0083383Y0159336D01*
X0080429Y0159336D01*
X0080429Y0159926D01*
X0080429Y0159532D02*
X0083383Y0159532D01*
X0083383Y0159728D02*
X0080429Y0159728D01*
X0080429Y0159924D02*
X0083383Y0159924D01*
X0083383Y0163075D02*
X0080429Y0163075D01*
X0083383Y0163075D02*
X0083383Y0162485D01*
X0080429Y0162485D01*
X0080429Y0163075D01*
X0080429Y0162681D02*
X0083383Y0162681D01*
X0083383Y0162877D02*
X0080429Y0162877D01*
X0080429Y0163073D02*
X0083383Y0163073D01*
X0085941Y0162268D02*
X0085941Y0165222D01*
X0085941Y0162268D02*
X0085351Y0162268D01*
X0085351Y0165222D01*
X0085941Y0165222D01*
X0085941Y0162464D02*
X0085351Y0162464D01*
X0085351Y0162660D02*
X0085941Y0162660D01*
X0085941Y0162856D02*
X0085351Y0162856D01*
X0085351Y0163052D02*
X0085941Y0163052D01*
X0085941Y0163248D02*
X0085351Y0163248D01*
X0085351Y0163444D02*
X0085941Y0163444D01*
X0085941Y0163640D02*
X0085351Y0163640D01*
X0085351Y0163836D02*
X0085941Y0163836D01*
X0085941Y0164032D02*
X0085351Y0164032D01*
X0085351Y0164228D02*
X0085941Y0164228D01*
X0085941Y0164424D02*
X0085351Y0164424D01*
X0085351Y0164620D02*
X0085941Y0164620D01*
X0085941Y0164816D02*
X0085351Y0164816D01*
X0085351Y0165012D02*
X0085941Y0165012D01*
X0085941Y0165208D02*
X0085351Y0165208D01*
X0087515Y0165222D02*
X0087515Y0162268D01*
X0086925Y0162268D01*
X0086925Y0165222D01*
X0087515Y0165222D01*
X0087515Y0162464D02*
X0086925Y0162464D01*
X0086925Y0162660D02*
X0087515Y0162660D01*
X0087515Y0162856D02*
X0086925Y0162856D01*
X0086925Y0163052D02*
X0087515Y0163052D01*
X0087515Y0163248D02*
X0086925Y0163248D01*
X0086925Y0163444D02*
X0087515Y0163444D01*
X0087515Y0163640D02*
X0086925Y0163640D01*
X0086925Y0163836D02*
X0087515Y0163836D01*
X0087515Y0164032D02*
X0086925Y0164032D01*
X0086925Y0164228D02*
X0087515Y0164228D01*
X0087515Y0164424D02*
X0086925Y0164424D01*
X0086925Y0164620D02*
X0087515Y0164620D01*
X0087515Y0164816D02*
X0086925Y0164816D01*
X0086925Y0165012D02*
X0087515Y0165012D01*
X0087515Y0165208D02*
X0086925Y0165208D01*
D22*
X0088402Y0156658D03*
X0088402Y0154572D03*
X0084465Y0154572D03*
X0084465Y0156658D03*
D23*
X0083441Y0206511D02*
X0080449Y0206511D01*
X0080449Y0212455D01*
X0083441Y0212455D01*
X0083441Y0206511D01*
X0083441Y0207258D02*
X0080449Y0207258D01*
X0080449Y0208005D02*
X0083441Y0208005D01*
X0083441Y0208752D02*
X0080449Y0208752D01*
X0080449Y0209499D02*
X0083441Y0209499D01*
X0083441Y0210246D02*
X0080449Y0210246D01*
X0080449Y0210993D02*
X0083441Y0210993D01*
X0083441Y0211740D02*
X0080449Y0211740D01*
X0072417Y0206511D02*
X0069425Y0206511D01*
X0069425Y0212455D01*
X0072417Y0212455D01*
X0072417Y0206511D01*
X0072417Y0207258D02*
X0069425Y0207258D01*
X0069425Y0208005D02*
X0072417Y0208005D01*
X0072417Y0208752D02*
X0069425Y0208752D01*
X0069425Y0209499D02*
X0072417Y0209499D01*
X0072417Y0210246D02*
X0069425Y0210246D01*
X0069425Y0210993D02*
X0072417Y0210993D01*
X0072417Y0211740D02*
X0069425Y0211740D01*
X0069425Y0227455D02*
X0072417Y0227455D01*
X0072417Y0221511D01*
X0069425Y0221511D01*
X0069425Y0227455D01*
X0069425Y0222258D02*
X0072417Y0222258D01*
X0072417Y0223005D02*
X0069425Y0223005D01*
X0069425Y0223752D02*
X0072417Y0223752D01*
X0072417Y0224499D02*
X0069425Y0224499D01*
X0069425Y0225246D02*
X0072417Y0225246D01*
X0072417Y0225993D02*
X0069425Y0225993D01*
X0069425Y0226740D02*
X0072417Y0226740D01*
X0080449Y0227455D02*
X0083441Y0227455D01*
X0083441Y0221511D01*
X0080449Y0221511D01*
X0080449Y0227455D01*
X0080449Y0222258D02*
X0083441Y0222258D01*
X0083441Y0223005D02*
X0080449Y0223005D01*
X0080449Y0223752D02*
X0083441Y0223752D01*
X0083441Y0224499D02*
X0080449Y0224499D01*
X0080449Y0225246D02*
X0083441Y0225246D01*
X0083441Y0225993D02*
X0080449Y0225993D01*
X0080449Y0226740D02*
X0083441Y0226740D01*
X0083441Y0236511D02*
X0080449Y0236511D01*
X0080449Y0242455D01*
X0083441Y0242455D01*
X0083441Y0236511D01*
X0083441Y0237258D02*
X0080449Y0237258D01*
X0080449Y0238005D02*
X0083441Y0238005D01*
X0083441Y0238752D02*
X0080449Y0238752D01*
X0080449Y0239499D02*
X0083441Y0239499D01*
X0083441Y0240246D02*
X0080449Y0240246D01*
X0080449Y0240993D02*
X0083441Y0240993D01*
X0083441Y0241740D02*
X0080449Y0241740D01*
X0072417Y0236511D02*
X0069425Y0236511D01*
X0069425Y0242455D01*
X0072417Y0242455D01*
X0072417Y0236511D01*
X0072417Y0237258D02*
X0069425Y0237258D01*
X0069425Y0238005D02*
X0072417Y0238005D01*
X0072417Y0238752D02*
X0069425Y0238752D01*
X0069425Y0239499D02*
X0072417Y0239499D01*
X0072417Y0240246D02*
X0069425Y0240246D01*
X0069425Y0240993D02*
X0072417Y0240993D01*
X0072417Y0241740D02*
X0069425Y0241740D01*
X0069425Y0257455D02*
X0072417Y0257455D01*
X0072417Y0251511D01*
X0069425Y0251511D01*
X0069425Y0257455D01*
X0069425Y0252258D02*
X0072417Y0252258D01*
X0072417Y0253005D02*
X0069425Y0253005D01*
X0069425Y0253752D02*
X0072417Y0253752D01*
X0072417Y0254499D02*
X0069425Y0254499D01*
X0069425Y0255246D02*
X0072417Y0255246D01*
X0072417Y0255993D02*
X0069425Y0255993D01*
X0069425Y0256740D02*
X0072417Y0256740D01*
X0080449Y0257455D02*
X0083441Y0257455D01*
X0083441Y0251511D01*
X0080449Y0251511D01*
X0080449Y0257455D01*
X0080449Y0252258D02*
X0083441Y0252258D01*
X0083441Y0253005D02*
X0080449Y0253005D01*
X0080449Y0253752D02*
X0083441Y0253752D01*
X0083441Y0254499D02*
X0080449Y0254499D01*
X0080449Y0255246D02*
X0083441Y0255246D01*
X0083441Y0255993D02*
X0080449Y0255993D01*
X0080449Y0256740D02*
X0083441Y0256740D01*
D24*
X0101641Y0227721D02*
X0101641Y0225497D01*
X0101641Y0227721D02*
X0102289Y0227721D01*
X0102289Y0225497D01*
X0101641Y0225497D01*
X0101641Y0226146D02*
X0102289Y0226146D01*
X0102289Y0226795D02*
X0101641Y0226795D01*
X0101641Y0227444D02*
X0102289Y0227444D01*
X0103609Y0227721D02*
X0103609Y0225497D01*
X0103609Y0227721D02*
X0104257Y0227721D01*
X0104257Y0225497D01*
X0103609Y0225497D01*
X0103609Y0226146D02*
X0104257Y0226146D01*
X0104257Y0226795D02*
X0103609Y0226795D01*
X0103609Y0227444D02*
X0104257Y0227444D01*
X0105578Y0227721D02*
X0105578Y0225103D01*
X0105578Y0227721D02*
X0106226Y0227721D01*
X0106226Y0225103D01*
X0105578Y0225103D01*
X0105578Y0225752D02*
X0106226Y0225752D01*
X0106226Y0226401D02*
X0105578Y0226401D01*
X0105578Y0227050D02*
X0106226Y0227050D01*
X0106226Y0227699D02*
X0105578Y0227699D01*
X0106226Y0223469D02*
X0106226Y0221245D01*
X0105578Y0221245D01*
X0105578Y0223469D01*
X0106226Y0223469D01*
X0106226Y0221894D02*
X0105578Y0221894D01*
X0105578Y0222543D02*
X0106226Y0222543D01*
X0106226Y0223192D02*
X0105578Y0223192D01*
X0104257Y0223469D02*
X0104257Y0221245D01*
X0103609Y0221245D01*
X0103609Y0223469D01*
X0104257Y0223469D01*
X0104257Y0221894D02*
X0103609Y0221894D01*
X0103609Y0222543D02*
X0104257Y0222543D01*
X0104257Y0223192D02*
X0103609Y0223192D01*
X0102289Y0223469D02*
X0102289Y0221245D01*
X0101641Y0221245D01*
X0101641Y0223469D01*
X0102289Y0223469D01*
X0102289Y0221894D02*
X0101641Y0221894D01*
X0101641Y0222543D02*
X0102289Y0222543D01*
X0102289Y0223192D02*
X0101641Y0223192D01*
M02*
