M48
FMAT,2
ICI,OFF
METRIC,TZ,000.000
T01C0.254
T02C0.330
T03C0.350
T04C0.500
T05C1.125
T06C1.224
T07C2.600
T08C0.203
T09C1.016
T10C0.381
T11C0.406
T12C0.599
T13C0.624
T14C0.635
T15C0.701
T16C0.723
T17C0.800
T18C0.914
T19C1.099
T20C1.198
T21C2.148
T22C3.175
T23C0.304
T24C0.355
T25C0.609
%
G90
M71
T01
X008135Y010675
X009695Y01131
X010167Y010167
X01131Y009695
X012453Y010167
X012925Y01131
X012453Y012453
X01131Y012925
X010167Y012453
X008135Y013215
X008135Y015755
X008135Y018295
X008135Y020835
X008135Y023375
X008135Y025915
X01131Y023121
X010802Y022613
X013723Y023502
X015501Y02147
X013469Y019311
X013469Y018041
X015501Y018676
X01686Y01893
X01813Y01893
X0194Y01893
X02067Y01893
X02194Y018295
X02321Y018295
X02448Y018295
X02575Y018295
X02702Y018295
X02829Y01893
X02956Y018295
X03083Y018295
X0321Y018295
X03337Y018295
X03464Y01893
X03591Y01893
X03718Y018295
X03845Y018295
X03972Y018295
X04099Y018295
X04226Y018295
X04353Y01893
X0448Y018295
X04607Y018295
X04734Y018295
X04861Y01893
X04988Y01893
X05115Y01893
X05242Y01893
X05369Y01893
X051826Y017406
X051826Y014358
X052824Y014358
X053825Y014358
X053324Y013342
X052326Y013342
X051325Y013342
X050324Y013342
X049824Y013723
X048826Y013342
X048325Y013723
X047325Y013342
X046824Y013723
X046324Y014358
X045826Y013342
X045326Y013723
X044825Y014358
X044325Y013342
X043825Y013723
X043324Y014358
X042824Y013342
X042326Y013723
X041826Y014358
X041325Y013342
X040825Y013723
X040324Y014358
X039824Y013342
X039326Y013723
X038826Y014358
X038325Y013342
X037825Y013723
X037325Y014358
X036824Y013342
X036324Y013723
X035826Y014358
X035326Y013342
X034825Y013723
X034325Y014358
X033825Y013342
X033324Y013723
X032824Y014358
X032326Y013342
X031826Y013723
X031325Y014358
X030825Y013342
X030324Y013723
X029824Y014358
X029326Y013342
X028826Y013723
X02829Y014358
X027825Y013342
X027325Y013723
X026824Y014358
X026324Y013342
X025826Y013723
X025326Y014358
X024825Y013342
X024325Y013723
X023825Y014358
X023324Y013342
X022824Y013723
X022326Y014358
X021826Y013342
X021325Y013723
X020078Y013215
X020825Y01004
X022326Y01004
X023825Y01004
X025326Y01004
X026824Y01004
X025915Y008135
X028455Y008135
X029824Y01004
X031325Y01004
X032824Y01004
X034325Y01004
X035826Y01004
X037325Y01004
X038826Y01004
X040324Y01004
X041826Y01004
X041155Y008135
X038615Y008135
X036075Y008135
X033535Y008135
X030995Y008135
X023375Y008135
X020835Y008135
X019326Y01004
X018295Y008135
X015755Y008135
X013215Y008135
X010675Y008135
X00877Y00877
X011628Y016504
X02194Y0202
X02321Y0202
X02448Y0202
X02575Y0202
X02702Y0202
X02956Y0202
X03083Y0202
X0321Y0202
X03337Y0202
X03718Y0202
X03845Y0202
X03972Y0202
X04099Y0202
X04226Y0202
X0448Y0202
X04607Y0202
X04734Y0202
X057411Y018676
X057411Y018041
X057538Y016771
X061089Y019057
X061729Y019057
X064015Y018295
X064015Y020835
X061729Y022613
X061094Y022613
X060459Y022613
X059824Y022613
X059189Y02147
X057393Y022613
X057393Y023502
X059189Y025915
X059824Y027058
X060459Y027058
X061094Y027058
X061729Y027058
X061729Y027947
X061094Y027947
X064015Y028455
X064015Y030995
X061729Y031503
X061094Y031503
X060459Y031503
X059824Y031503
X059189Y03036
X057393Y031503
X056824Y03446
X055681Y034932
X055209Y036075
X055681Y037218
X056824Y03769
X057967Y037218
X058442Y036075
X057967Y034932
X064015Y036075
X064015Y038615
X064015Y041155
X064015Y043695
X061348Y043949
X061602Y044901
X061602Y045536
X061602Y046172
X061602Y046806
X06211Y047759
X064015Y048775
X064015Y046235
X061348Y042643
X059189Y042361
X059189Y042996
X059189Y041726
X059189Y041091
X058681Y040266
X055887Y041726
X055887Y042361
X055887Y042996
X056928Y044076
X057538Y044076
X058046Y044901
X058046Y045536
X058046Y046172
X058046Y046806
X05623Y04814
X055214Y04814
X054452Y045219
X053728Y043451
X05242Y04433
X05115Y04433
X05115Y045219
X050515Y045219
X04988Y04433
X04861Y04433
X04734Y05195
X04607Y05195
X0448Y05195
X043911Y053855
X042323Y053855
X04099Y053855
X03972Y053855
X03845Y053855
X03718Y053855
X035275Y053855
X03337Y053855
X0321Y053855
X03083Y053855
X02956Y053855
X02829Y05322
X02702Y053855
X02575Y053855
X02448Y053855
X02321Y053855
X02194Y05322
X02067Y05322
X0194Y05322
X01813Y05322
X01686Y05322
X014739Y053474
X014739Y054109
X014739Y055379
X018325Y057792
X019326Y057792
X020324Y057792
X021325Y057792
X021826Y058808
X022326Y058427
X022824Y057792
X023324Y058808
X023825Y058427
X024325Y057792
X024825Y058808
X025326Y058427
X025826Y057792
X026324Y058808
X026824Y058427
X027325Y057792
X027825Y058808
X028325Y058427
X028826Y057792
X029326Y058808
X029824Y058427
X030324Y057792
X030825Y058808
X031325Y058427
X031826Y057792
X032326Y058808
X032824Y058427
X033243Y057792
X033825Y058808
X034325Y058427
X034825Y057792
X035326Y058808
X035826Y058427
X036324Y057792
X036824Y058808
X037325Y058427
X037825Y057792
X038325Y058808
X038826Y058427
X039326Y057792
X039824Y058808
X040324Y058427
X040825Y057792
X041325Y058808
X041826Y058427
X042326Y057792
X042824Y058808
X043324Y058427
X043825Y057792
X044325Y058808
X044825Y058427
X045326Y057792
X045826Y058808
X046324Y058427
X046824Y057792
X047325Y058808
X047825Y058399
X048325Y057792
X048826Y058808
X049326Y058399
X049824Y057792
X050324Y058808
X050825Y058399
X051442Y057792
X051828Y059321
X053324Y05957
X053825Y058808
X052824Y06211
X051325Y06211
X049824Y06211
X048325Y06211
X046824Y06211
X045326Y06211
X046235Y064015
X043695Y064015
X042326Y06211
X040825Y06211
X039326Y06211
X037825Y06211
X036324Y06211
X034825Y06211
X033324Y06211
X031826Y06211
X030324Y06211
X030995Y064015
X033535Y064015
X036075Y064015
X038615Y064015
X041155Y064015
X048775Y064015
X051315Y064015
X053855Y064015
X056395Y064015
X058935Y064015
X06084Y062455
X059697Y061983
X059225Y06084
X059697Y059697
X06084Y059225
X061983Y059697
X062455Y06084
X061983Y061983
X06338Y06338
X061475Y064015
X064015Y061475
X064015Y058935
X064015Y056395
X064015Y053855
X064015Y051315
X061602Y050299
X060205Y052585
X058135Y051632
X058173Y053982
X057665Y05449
X058872Y056136
X05515Y052585
X054515Y05322
X053372Y05322
X05115Y05322
X04988Y05322
X04861Y05322
X047467Y053855
X049189Y054617
X050324Y054617
X045689Y053855
X04226Y05195
X04099Y05195
X03972Y05195
X03845Y05195
X03718Y05195
X03337Y05195
X0321Y05195
X03083Y05195
X02956Y05195
X02702Y05195
X02575Y05195
X02448Y05195
X02321Y05195
X020324Y054744
X019824Y058808
X018826Y058808
X020825Y058808
X021325Y06211
X022824Y06211
X024325Y06211
X025826Y06211
X027325Y06211
X028455Y064015
X025915Y064015
X023375Y064015
X020835Y064015
X018295Y064015
X015755Y064015
X013215Y064015
X01131Y062455
X010167Y061983
X009695Y06084
X010167Y059697
X01131Y059225
X012453Y059697
X012925Y06084
X012453Y061983
X010675Y064015
X00877Y06338
X008135Y061475
X008135Y058935
X008135Y056395
X008135Y053855
X010421Y053093
X011061Y053093
X012961Y05068
X012326Y049537
X011691Y049537
X011056Y049537
X010421Y049537
X010421Y048648
X011056Y048648
X008135Y048775
X008135Y046235
X010421Y045092
X011056Y045092
X011691Y045092
X012326Y045092
X011056Y044203
X010421Y044203
X008135Y043695
X008135Y041155
X010421Y040647
X011056Y040647
X011691Y040647
X012326Y040647
X012961Y04179
X014757Y040647
X013685Y03769
X014828Y037218
X0153Y036075
X014828Y034932
X013685Y03446
X012542Y034932
X012069Y036075
X012542Y037218
X009875Y037345
X00924Y036075
X008135Y036075
X009875Y034805
X00924Y033535
X008135Y033535
X008135Y030995
X010421Y030614
X012453Y030106
X012453Y031122
X013469Y027947
X013469Y026931
X015501Y027439
X01686Y02782
X01813Y02782
X0194Y02782
X02067Y02782
X02194Y02782
X02321Y02782
X015519Y025262
X008135Y028455
X008135Y038615
X00924Y038615
X014757Y044203
X014757Y045092
X012961Y046235
X014757Y048648
X014757Y049537
X01686Y04433
X01813Y04433
X0194Y04433
X02067Y04433
X02194Y04433
X008135Y051315
X04861Y02782
X04988Y02782
X05115Y02782
X05242Y02782
X05369Y02782
X057393Y027947
X057393Y027058
X061094Y023502
X061729Y023502
X064015Y023375
X064015Y025915
X064015Y033535
X064015Y015755
X064015Y013215
X061983Y012453
X06084Y012925
X059697Y012453
X059225Y01131
X059697Y010167
X06084Y009695
X061983Y010167
X062455Y01131
X064015Y010675
X06338Y00877
X061475Y008135
X058935Y008135
X056395Y008135
X053855Y008135
X051315Y008135
X048775Y008135
X049326Y01004
X047825Y01004
X046324Y01004
X044825Y01004
X043695Y008135
X046235Y008135
X050825Y01004
X06084Y167479
X092233Y143033
X087153Y145573
T02
X017025Y06084
X039074Y173209
X038325Y173209
X037576Y173209
X036824Y173209
X036075Y173209
X035325Y173209
X034576Y173209
X033824Y173209
X033075Y173209
X033075Y083009
X033824Y083009
X034576Y083009
X035325Y083009
X036075Y083009
X036824Y083009
X037576Y083009
X038325Y083009
X039074Y083009
X103346Y150335
X101441Y12811
X093186Y11541
X077311Y10779
X087788Y085565
X088741Y08112
X077311Y084295
X121761Y132751
T03
X01686Y05068
X01686Y04941
X01813Y04941
X01813Y05068
X0194Y05068
X0194Y04941
X02067Y04941
X02067Y05068
X02194Y05068
X02194Y04941
X02321Y04941
X02321Y05068
X02448Y05068
X02448Y04941
X02575Y04941
X02575Y05068
X02702Y05068
X02702Y04941
X02829Y04941
X02829Y05068
X02956Y05068
X02956Y04941
X03083Y04941
X03083Y05068
X0321Y05068
X0321Y04941
X03337Y04941
X03337Y05068
X03464Y05068
X03464Y04941
X03591Y04941
X03591Y05068
X03718Y05068
X03718Y04941
X03845Y04941
X03845Y05068
X03972Y05068
X03972Y04941
X04099Y04941
X04099Y05068
X04226Y05068
X04226Y04941
X04353Y04941
X04353Y05068
X0448Y05068
X0448Y04941
X04607Y04941
X04607Y05068
X04734Y05068
X04734Y04941
X04861Y04941
X04861Y05068
X04988Y05068
X04988Y04941
X05115Y04941
X05115Y05068
X05242Y05068
X05242Y04941
X05242Y04814
X05115Y04814
X04988Y04814
X04861Y04814
X04734Y04814
X04607Y04814
X0448Y04814
X04353Y04814
X04226Y04814
X04099Y04814
X03972Y04814
X03845Y04814
X03718Y04814
X03591Y04814
X03464Y04814
X03337Y04814
X0321Y04814
X03083Y04814
X02956Y04814
X02829Y04814
X02702Y04814
X02575Y04814
X02448Y04814
X02321Y04814
X02194Y04814
X02067Y04814
X0194Y04814
X01813Y04814
X01686Y04814
X01686Y04687
X01813Y04687
X0194Y04687
X02067Y04687
X02194Y04687
X02321Y04687
X02448Y04687
X02575Y04687
X02702Y04687
X02829Y04687
X02956Y04687
X03083Y04687
X0321Y04687
X03337Y04687
X03464Y04687
X03591Y04687
X03718Y04687
X03845Y04687
X03972Y04687
X04099Y04687
X04226Y04687
X04353Y04687
X0448Y04687
X04607Y04687
X04734Y04687
X04861Y04687
X04988Y04687
X05115Y04687
X05242Y04687
X05369Y04687
X05369Y04814
X05369Y04941
X05369Y05068
X05369Y02528
X05242Y02528
X05115Y02528
X04988Y02528
X04861Y02528
X04734Y02528
X04607Y02528
X0448Y02528
X04353Y02528
X04226Y02528
X04099Y02528
X03972Y02528
X03845Y02528
X03718Y02528
X03591Y02528
X03464Y02528
X03337Y02528
X0321Y02528
X03083Y02528
X02956Y02528
X02829Y02528
X02702Y02528
X02575Y02528
X02448Y02528
X02321Y02528
X02194Y02528
X02067Y02528
X0194Y02528
X01813Y02528
X01686Y02528
X01686Y02401
X01813Y02401
X0194Y02401
X02067Y02401
X02067Y02274
X0194Y02274
X01813Y02274
X01686Y02274
X01813Y02147
X0194Y02147
X02067Y02147
X02194Y02147
X02194Y02274
X02321Y02274
X02321Y02147
X02448Y02147
X02448Y02274
X02575Y02274
X02575Y02147
X02702Y02147
X02702Y02274
X02829Y02274
X02829Y02147
X02956Y02147
X02956Y02274
X03083Y02274
X03083Y02147
X0321Y02147
X0321Y02274
X03337Y02274
X03337Y02147
X03464Y02147
X03464Y02274
X03591Y02274
X03591Y02147
X03718Y02147
X03718Y02274
X03845Y02274
X03845Y02147
X03972Y02147
X03972Y02274
X04099Y02274
X04099Y02147
X04226Y02147
X04226Y02274
X04353Y02274
X04353Y02147
X0448Y02147
X04607Y02147
X04607Y02274
X04607Y02401
X04734Y02401
X04861Y02401
X04988Y02401
X05115Y02401
X05242Y02401
X05242Y02274
X05115Y02274
X04988Y02274
X04861Y02274
X04734Y02274
X04734Y02147
X04861Y02147
X04988Y02147
X05115Y02147
X05242Y02147
X05369Y02147
X05369Y02274
X05369Y02401
X04353Y02401
X04226Y02401
X04099Y02401
X03972Y02401
X03845Y02401
X03718Y02401
X03591Y02401
X03464Y02401
X03337Y02401
X0321Y02401
X03083Y02401
X02956Y02401
X02829Y02401
X02702Y02401
X02575Y02401
X02448Y02401
X02321Y02401
X02194Y02401
T04
X009405Y053855
X062745Y018295
T05
X055275Y01385
X016875Y0583
X11795Y052275
X076525Y0583
X0735Y019875
X114925Y01385
X0583Y15021
X01385Y15021
X117951Y09585
X117951Y09585
X073501Y09585
X073501Y09585
T06
X055275Y0583
X016875Y01385
X11795Y019875
X076525Y01385
X0735Y052275
X114925Y0583
T07
X01131Y01131
X013685Y036075
X01131Y06084
X056824Y036075
X06084Y06084
X06084Y01131
X12049Y06084
X07096Y06084
X07096Y01131
X12049Y01131
T08
X067785Y010675
X069345Y01131
X069817Y010167
X07096Y009695
X072103Y010167
X072575Y01131
X072103Y012453
X07096Y012925
X069817Y012453
X067785Y013215
X06969Y017025
X067785Y018295
X067785Y020835
X069944Y021325
X069944Y022824
X069373Y024076
X067785Y023375
X067785Y025915
X069373Y027825
X067785Y028455
X069373Y030076
X067785Y030995
X069373Y032326
X069373Y033825
X067785Y033535
X067785Y036075
X069373Y036075
X069373Y038325
X069373Y039824
X067785Y038615
X067785Y041155
X069373Y042074
X067785Y043695
X069373Y044965
X067785Y046235
X069373Y048107
X067785Y048775
X069373Y050045
X067785Y051315
X067785Y053855
X06969Y055125
X07096Y054172
X071913Y052267
X072167Y050825
X072611Y050324
X072167Y049824
X072865Y048775
X072611Y047325
X072167Y046824
X072611Y046324
X074135Y046586
X075151Y046324
X077056Y045826
X077945Y045917
X077056Y046824
X077945Y047822
X079215Y047187
X080485Y046552
X081755Y045917
X083025Y045282
X084295Y044647
X083025Y043377
X081755Y044012
X080485Y044647
X079215Y045282
X077945Y044012
X079215Y043377
X080485Y042742
X081755Y042107
X083025Y041472
X084295Y040837
X083025Y039567
X081755Y040202
X080485Y040837
X079532Y039885
X080485Y038932
X081755Y038297
X080485Y037027
X07858Y036964
X07731Y038297
X07731Y039885
X07731Y041472
X077945Y042107
X079215Y041472
X074135Y042425
X072865Y042141
X072553Y040825
X072172Y040324
X072553Y039326
X072172Y038826
X072553Y037825
X072172Y037325
X0735Y037662
X0735Y036075
X072553Y034825
X072172Y034325
X072553Y033324
X072172Y032824
X072553Y031826
X072172Y031325
X072865Y030076
X074135Y029725
X072553Y028826
X072172Y028325
X072865Y02782
X074135Y02782
X077945Y028137
X079215Y028773
X080485Y029407
X081755Y030042
X083025Y030677
X084295Y031312
X083025Y032582
X081755Y031947
X080485Y031312
X079532Y032265
X080485Y033218
X081755Y033852
X080485Y035122
X079215Y033852
X077945Y035186
X07731Y033852
X07731Y032265
X07731Y030677
X077945Y030042
X079215Y030677
X081755Y028137
X080485Y027502
X081755Y026232
X080485Y025597
X079215Y024962
X077945Y024328
X079215Y023057
X077945Y022422
X077056Y022326
X075151Y022824
X075151Y021826
X072865Y022819
X071849Y021826
X072865Y02401
X074135Y02401
X077945Y026232
X079215Y026867
X081755Y024328
X080485Y023693
X081755Y022422
X080485Y021788
X079215Y021152
X077945Y020517
X079215Y019248
X080168Y018295
X080485Y019883
X081755Y020517
X083025Y021152
X084295Y021788
X085565Y022422
X086835Y023057
X088105Y023693
X089375Y022422
X09001Y02147
X09001Y019883
X09001Y018295
X088423Y019883
X086835Y019248
X085565Y018612
X083978Y018295
X083025Y019248
X082073Y018295
X084295Y019883
X085565Y020517
X086835Y021152
X088105Y021788
X085565Y024328
X086835Y024962
X085565Y026232
X084295Y025597
X083025Y024962
X084295Y023693
X083025Y023057
X083025Y026867
X084295Y027502
X083025Y028773
X084295Y029407
X0735Y032265
X0735Y033852
X0735Y039885
X072172Y043324
X072553Y043825
X072865Y044965
X074135Y04433
X075148Y049077
X077056Y049075
X077056Y049824
X077945Y049727
X079215Y049092
X080485Y048457
X081755Y047822
X083025Y047187
X084295Y046552
X085565Y047822
X086835Y049092
X085565Y049727
X084295Y050362
X083025Y050997
X081755Y051632
X080485Y052267
X080485Y053855
X082073Y053855
X083343Y05322
X08493Y052903
X086835Y052903
X087788Y053855
X088105Y052267
X086835Y050997
X088105Y050362
X090645Y052903
X091598Y053855
X090645Y056649
X09255Y056649
X092974Y059075
X092474Y059697
X091976Y060078
X090975Y059697
X090475Y060078
X089474Y059697
X088976Y060078
X087975Y059697
X087475Y060078
X086975Y059075
X088476Y059075
X089974Y059075
X091476Y059075
X093475Y060078
X093975Y059697
X094475Y059075
X095725Y058935
X09636Y0583
X096995Y056649
X098265Y056649
X098265Y0583
X10017Y0583
X10017Y056649
X102075Y056649
X103345Y056649
X10525Y056649
X10652Y056649
X105567Y0583
X104976Y058661
X104475Y059697
X103975Y060078
X102974Y059697
X102474Y060078
X101976Y059075
X103475Y059075
X106975Y060075
X108476Y060075
X109974Y060075
X110475Y059075
X108976Y059075
X111224Y057076
X113475Y059316
X112974Y060078
X111976Y060075
X114458Y06084
X115093Y06084
X115093Y06211
X114458Y06211
X116363Y06211
X116998Y06211
X116998Y06084
X116363Y06084
X118875Y06084
X119347Y061983
X12049Y062455
X121633Y061983
X122105Y06084
X121633Y059697
X12049Y059225
X119347Y059697
X11795Y0583
X12176Y055125
X123665Y053855
X123665Y051315
X121506Y050825
X122141Y049326
X123665Y048775
X121506Y047337
X121506Y046321
X121506Y045686
X122077Y044325
X123665Y043695
X122077Y042074
X123665Y041155
X122077Y039824
X122077Y038325
X123665Y038615
X123665Y036075
X122077Y036075
X119278Y034825
X118897Y034325
X119278Y033324
X118897Y032824
X119278Y031826
X118897Y031325
X118585Y030076
X117315Y029407
X117315Y02782
X118605Y027188
X118897Y028325
X119278Y028826
X122077Y030076
X123665Y030995
X122077Y032326
X122077Y033825
X123665Y033535
X118897Y037325
X119278Y037825
X118897Y038826
X119278Y039326
X118897Y040324
X119278Y040825
X11795Y039824
X11795Y038325
X11795Y036075
X11795Y033825
X11795Y032326
X113823Y030995
X112553Y03163
X113188Y032265
X112553Y033535
X111282Y03417
X112235Y035122
X113823Y035186
X113823Y036964
X114224Y038325
X11287Y038297
X112235Y037027
X1116Y037662
X11033Y038932
X1116Y039567
X11287Y040202
X1116Y041472
X11287Y042107
X114224Y042074
X114224Y041325
X114224Y039824
X11033Y040837
X10906Y040202
X10779Y041472
X10906Y042107
X11033Y042742
X1116Y043377
X11287Y044012
X1116Y045282
X11033Y044647
X10906Y044012
X10779Y043377
X10652Y042742
X10525Y044012
X10652Y044647
X10779Y045282
X10906Y045917
X11033Y046552
X111224Y047076
X111224Y048074
X112225Y047576
X114224Y046375
X114224Y045326
X114224Y043825
X116975Y044325
X11797Y044333
X118897Y043324
X119278Y043825
X118605Y042428
X117335Y042428
X123665Y046235
X119601Y050324
X118585Y049331
X116299Y049326
X116299Y050324
X114394Y049824
X10906Y047822
X10779Y047187
X10652Y046552
X10525Y045917
X10398Y045282
X10271Y046552
X10398Y047187
X10525Y047822
X10652Y048457
X10779Y049092
X108425Y050362
X107155Y051632
X10652Y050362
X10525Y049727
X10398Y049092
X10271Y048457
X10144Y047822
X10017Y049092
X099218Y04941
X098583Y05068
X097312Y050045
X096043Y051315
X097312Y05195
X098583Y052585
X097975Y053596
X097475Y053977
X096474Y053596
X095974Y053977
X094773Y053855
X095407Y052585
X099852Y05195
X10144Y052267
X101758Y051315
X10271Y050362
X10144Y049727
X100488Y05068
X103028Y05195
X10398Y050997
X10525Y051632
X104615Y052585
X104475Y053576
X102974Y053576
X101476Y053576
X099974Y053576
X10652Y053538
X114424Y05449
X123665Y058935
X123665Y061475
X12303Y06338
X121125Y064015
X118585Y064015
X116045Y064015
X113505Y064015
X110965Y064015
X110975Y062618
X109474Y062618
X107975Y062618
X106474Y062618
X104976Y062618
X103475Y062618
X101976Y062618
X100475Y062618
X098976Y062618
X097475Y062618
X095974Y062618
X095725Y064015
X094475Y062618
X092974Y062618
X093185Y064015
X091476Y062618
X089974Y062618
X088476Y062618
X086975Y062618
X085476Y062618
X083975Y062618
X082474Y062618
X080975Y062618
X080485Y064015
X083025Y064015
X085565Y064015
X088105Y064015
X090645Y064015
X08493Y059252
X082474Y059075
X081976Y059697
X081476Y060078
X080475Y059316
X080975Y058574
X079474Y059316
X078976Y060078
X078476Y059316
X077975Y060078
X076993Y06084
X076358Y06084
X076358Y06211
X076993Y06211
X075088Y06211
X074453Y06211
X074453Y06084
X075088Y06084
X072575Y06084
X072103Y061983
X07096Y062455
X069817Y061983
X069345Y06084
X069817Y059697
X07096Y059225
X072103Y059697
X0735Y0583
X074008Y056078
X074135Y055506
X07477Y055442
X077975Y054012
X077691Y053014
X079215Y050997
X080485Y050362
X081755Y049727
X083025Y049092
X084295Y048457
X084295Y042742
X08366Y056712
X08493Y056712
X086835Y056712
X08874Y056712
X08239Y057347
X081755Y056712
X080485Y057665
X079974Y060078
X077945Y064015
X075405Y064015
X072865Y064015
X070325Y064015
X06842Y06338
X067785Y061475
X067785Y058935
X098265Y064015
X100805Y064015
X103345Y064015
X105885Y064015
X108425Y064015
X110013Y0329
X108743Y03163
X110013Y030995
X111282Y03036
X112553Y029725
X113188Y028455
X112553Y02782
X111282Y028455
X110013Y02909
X108743Y029725
X107473Y03036
X106203Y02909
X107473Y028455
X108743Y02782
X110013Y027185
X111282Y02655
X112553Y025915
X111282Y024645
X110013Y02528
X108743Y025915
X107473Y02655
X106203Y027185
X104933Y02782
X103663Y02655
X102393Y025915
X101758Y024645
X101123Y02401
X100488Y024645
X099639Y024813
X099477Y02542
X0989Y025915
X097948Y024645
X099218Y02401
X099852Y02274
X099218Y022105
X098265Y021152
X096995Y021788
X097948Y02274
X096678Y023375
X094455Y021152
X093185Y019883
X094455Y019248
X092868Y018295
X092474Y015628
X093975Y015628
X09509Y01385
X095725Y013215
X096975Y013075
X097475Y012453
X097975Y012072
X098476Y013075
X099974Y013075
X100475Y012453
X100975Y012072
X101476Y013075
X102974Y013075
X103475Y012453
X103975Y012072
X104976Y012453
X105476Y012072
X105974Y013075
X104475Y013075
X104475Y015628
X102974Y015628
X101476Y015628
X099974Y015628
X098476Y015628
X096975Y015628
X093975Y013075
X092974Y012453
X093475Y012072
X092474Y013075
X091598Y01385
X090975Y013075
X089974Y012453
X090475Y012072
X089474Y013075
X08874Y01385
X087975Y013075
X086975Y012453
X087475Y012072
X086474Y013489
X085883Y01385
X083975Y012453
X084475Y012072
X082974Y012072
X082474Y012453
X081976Y013075
X080803Y01385
X080475Y015628
X081976Y015628
X083475Y015628
X083475Y013075
X079474Y012075
X078476Y012072
X077975Y012834
X076993Y01131
X076358Y01131
X076358Y01004
X076993Y01004
X075088Y01004
X074453Y01004
X074453Y01131
X075088Y01131
X0735Y01385
X077026Y01766
X080475Y009532
X081976Y009532
X083475Y009532
X084976Y009532
X086474Y009532
X087968Y009532
X089474Y009532
X090975Y009532
X092474Y009532
X093975Y009532
X095476Y009532
X095725Y008135
X096975Y009532
X098476Y009532
X098265Y008135
X099974Y009532
X101476Y009532
X102967Y009532
X104475Y009532
X105974Y009532
X107475Y009532
X108976Y009532
X110475Y009532
X110965Y008135
X108425Y008135
X105885Y008135
X103345Y008135
X100805Y008135
X093185Y008135
X090645Y008135
X088105Y008135
X085565Y008135
X083025Y008135
X080485Y008135
X077945Y008135
X075405Y008135
X072865Y008135
X070325Y008135
X06842Y00877
X087975Y015628
X096995Y018295
X096995Y019883
X0989Y019883
X099535Y020517
X100488Y019565
X101123Y0202
X102075Y019248
X10144Y018612
X103028Y018295
X103028Y0202
X102393Y02147
X101758Y02274
X100488Y02147
X102393Y02401
X103663Y024645
X104933Y02401
X106203Y023375
X107473Y02274
X108743Y022105
X107473Y020835
X106203Y02147
X104933Y022105
X104298Y02147
X103663Y02274
X104933Y0202
X106203Y019565
X106203Y018295
X105974Y015628
X109784Y013088
X110975Y012834
X111476Y012072
X111976Y012834
X112474Y012072
X112974Y012834
X113475Y012072
X114458Y01131
X115093Y01131
X115093Y01004
X114458Y01004
X116363Y01004
X116998Y01004
X116998Y01131
X116363Y01131
X118875Y01131
X119347Y010167
X12049Y009695
X121633Y010167
X122105Y01131
X121633Y012453
X12049Y012925
X119347Y012453
X11795Y01385
X12176Y017025
X12049Y018295
X12049Y0202
X119601Y021325
X118839Y021826
X119601Y022326
X118585Y023693
X118839Y024825
X119601Y025326
X118839Y025826
X117315Y025597
X116299Y025826
X114394Y026324
X113823Y026867
X114394Y025326
X11414Y02401
X114394Y023075
X114394Y022326
X116302Y023073
X113759Y019136
X113475Y018138
X110965Y014485
X113505Y008135
X116045Y008135
X118585Y008135
X121125Y008135
X12303Y00877
X123665Y010675
X123665Y013215
X123665Y018295
X123665Y020835
X123665Y023375
X12176Y02401
X123665Y025915
X123665Y028455
X111282Y032265
X106203Y02528
X107473Y024645
X108743Y02401
X110013Y023375
X104933Y025915
X100488Y025915
X06338Y068419
X06338Y072229
X06338Y076039
X062237Y079722
X062816Y081119
X062237Y082516
X06084Y083095
X060522Y084294
X060522Y086199
X060522Y088104
X06211Y088104
X06338Y088104
X062427Y086199
X06211Y090009
X06338Y090009
X06338Y091914
X06211Y091914
X06084Y091914
X06084Y090009
X06084Y093819
X06211Y093819
X06338Y093819
X06338Y095724
X06211Y095724
X06211Y097629
X06338Y097629
X06338Y099534
X06211Y099534
X06211Y101439
X06338Y101439
X06338Y103344
X06211Y103344
X06211Y105249
X06338Y105249
X06338Y107154
X06211Y107154
X061729Y108511
X06084Y107154
X060205Y105249
X060205Y103344
X06084Y101439
X06084Y099534
X06084Y096994
X05576Y090835
X054957Y091835
X054957Y093834
X052458Y093834
X052458Y091835
X052458Y089585
X052458Y087586
X052458Y085585
X052458Y083586
X052458Y081584
X054957Y079834
X054807Y078579
X05576Y080835
X056712Y078579
X05703Y080484
X05703Y082389
X058864Y081119
X059443Y079722
X058617Y078579
X058864Y076674
X056862Y076674
X054612Y076674
X052862Y076674
X050863Y076674
X048813Y075404
X046908Y076674
X046552Y078579
X046552Y080929
X047822Y080835
X049092Y080835
X049958Y079834
X049092Y082836
X047822Y082836
X046552Y082836
X046552Y084835
X047822Y084835
X049092Y084835
X049092Y086834
X047822Y086834
X046552Y086834
X046552Y088836
X047822Y088836
X049092Y088836
X049092Y090835
X047822Y090835
X047822Y091835
X046552Y091835
X046552Y090835
X044965Y090009
X044965Y08801
X044965Y086517
X044965Y085511
X044965Y08401
X044965Y082511
X04433Y080484
X04306Y079214
X042074Y081061
X042524Y08151
X042524Y082511
X042074Y083009
X042524Y083509
X042074Y08401
X042524Y08451
X042524Y085511
X042524Y086509
X042524Y08751
X042074Y08801
X042524Y088511
X042524Y089509
X042074Y090009
X042524Y09051
X042074Y09101
X042524Y09151
X042524Y092511
X042074Y093959
X040576Y093959
X040576Y09261
X038574Y093611
X038574Y096209
X038574Y097121
X037662Y098264
X037662Y0991
X035821Y101439
X035122Y101439
X033852Y101439
X033852Y100804
X033852Y100169
X031947Y100804
X030677Y101439
X029407Y101439
X028137Y101439
X026867Y101439
X026867Y099534
X028137Y099534
X029407Y099534
X030677Y099534
X030675Y097629
X029605Y09656
X028653Y095607
X02782Y096677
X028772Y097629
X0275Y098264
X02623Y096994
X026865Y095724
X0272Y094055
X025562Y093723
X024325Y093723
X02496Y095724
X023055Y095724
X023055Y096994
X023354Y097756
X023855Y097375
X024355Y097756
X025595Y098264
X022354Y097756
X021856Y097375
X021355Y097756
X020855Y097375
X020355Y097756
X019562Y096994
X01861Y097629
X01801Y096359
X017022Y097312
X016387Y099534
X016387Y102074
X017657Y102709
X016705Y104932
X01639Y107154
X018074Y108909
X018074Y11051
X018074Y11211
X017279Y112511
X017279Y113311
X018074Y114111
X019674Y114111
X020474Y114111
X02147Y113822
X02274Y114457
X02147Y115727
X020474Y11611
X0202Y116997
X019275Y11771
X018074Y11771
X018074Y11611
X019275Y11611
X02147Y117632
X02274Y118267
X02147Y119537
X0202Y118902
X019275Y119709
X018074Y119709
X018074Y12211
X01893Y122077
X0202Y122712
X02147Y123347
X02274Y123982
X02147Y125252
X0202Y124617
X020263Y126458
X01912Y127601
X01912Y128617
X019275Y130111
X020263Y12976
X02147Y130967
X02274Y132237
X02147Y132872
X020474Y132511
X019275Y132511
X018074Y132511
X018074Y134909
X019275Y134909
X020474Y134909
X02147Y134777
X02274Y134142
X02274Y136047
X021675Y137309
X020474Y137309
X019275Y137309
X018074Y137309
X018074Y139709
X019275Y139709
X020474Y139709
X021675Y139709
X02274Y139857
X02274Y137952
X02401Y137317
X02528Y136682
X02655Y136047
X02528Y134777
X02401Y135412
X02401Y133507
X02655Y133824
X028455Y135729
X02782Y137317
X02909Y138587
X02782Y139222
X02909Y140492
X03036Y139857
X03163Y141127
X03036Y141762
X02909Y142397
X02782Y143032
X02909Y144302
X03036Y143667
X03163Y143032
X0329Y142397
X034106Y143603
X0329Y144302
X033852Y145254
X035249Y145572
X035249Y144746
X0369Y144746
X036837Y145572
X038297Y145254
X03925Y144302
X038043Y143603
X03925Y142397
X04052Y143032
X04179Y143667
X04306Y144302
X04433Y144937
X0456Y145572
X04687Y144302
X0456Y143667
X04687Y142397
X0456Y141762
X04687Y140492
X0456Y139857
X04687Y138587
X0456Y137952
X04687Y136682
X0456Y136047
X04687Y134777
X04814Y135412
X04814Y133507
X04941Y134142
X05068Y134777
X05195Y135412
X052874Y134909
X054076Y134909
X054076Y137309
X052874Y137309
X05195Y137317
X05068Y136682
X04941Y136047
X04814Y137317
X04941Y137952
X05068Y138587
X05195Y139222
X052874Y139709
X054076Y139709
X054076Y14211
X052874Y14211
X051675Y14211
X05068Y142397
X04941Y141762
X05068Y140492
X04941Y139857
X04814Y139222
X04814Y141127
X04814Y143032
X04941Y143667
X05068Y144302
X051632Y144302
X052267Y144937
X052267Y145889
X05322Y146207
X054172Y145254
X054172Y147159
X05322Y148112
X052267Y147159
X050825Y146016
X050324Y145635
X049824Y146016
X04814Y144937
X048826Y14861
X048267Y149382
X047324Y14861
X04687Y149382
X0456Y149382
X0456Y151287
X04687Y150969
X04687Y151858
X048267Y150969
X049664Y150969
X049664Y149699
X052267Y149064
X052267Y151604
X052295Y154919
X052806Y155414
X052295Y15591
X051795Y158462
X051294Y158843
X050794Y158462
X050294Y158843
X049796Y158462
X048795Y158462
X048295Y158843
X047794Y158462
X046552Y159224
X0456Y158272
X044647Y159224
X044012Y158272
X042742Y158272
X043697Y160177
X044965Y161764
X045917Y162717
X045074Y163441
X045074Y164939
X045074Y166209
X045074Y167459
X045074Y168711
X045074Y169709
X045074Y17151
X046555Y171147
X047825Y170893
X049074Y171386
X047825Y172417
X046555Y172798
X047825Y174068
X049074Y173385
X049074Y175386
X049958Y176384
X052458Y174634
X052458Y172635
X052458Y170634
X052458Y168635
X052458Y166636
X052458Y164386
X051457Y163385
X049958Y162384
X049958Y164386
X049074Y165386
X047825Y164939
X046555Y164939
X04687Y163669
X047822Y162082
X047822Y160177
X04941Y160177
X051315Y160177
X05322Y160177
X055122Y158907
X05576Y156684
X05576Y154144
X05576Y149064
X0583Y149064
X06084Y149064
X06338Y14371
X062745Y14211
X061729Y14131
X061729Y14051
X062745Y139709
X061729Y138909
X061729Y138109
X062745Y137309
X061729Y136509
X061729Y135709
X062745Y134909
X061729Y134111
X061729Y133311
X062745Y132511
X061729Y131711
X061729Y130911
X062745Y130111
X061729Y129311
X061729Y128511
X062745Y12771
X061729Y12691
X061729Y12611
X06338Y12531
X06338Y12451
X06338Y123311
X062745Y12211
X061729Y12131
X061729Y12051
X062745Y119709
X061729Y118909
X061729Y118109
X061729Y115709
X061729Y114909
X062745Y114111
X061729Y113311
X061729Y112511
X062745Y111711
X061729Y110911
X061729Y110111
X06338Y109059
X06338Y112869
X06338Y118511
X06338Y120911
X061729Y12291
X061729Y12371
X0583Y122107
X0583Y119707
X0583Y117314
X0583Y114106
X0583Y111706
X0583Y107154
X05576Y107154
X052267Y107154
X052267Y104614
X050324Y107662
X049326Y107662
X048775Y106837
X047568Y107154
X046832Y107154
X04608Y107154
X0456Y106519
X045282Y107472
X044012Y106837
X042742Y106837
X041472Y106837
X041472Y104932
X040825Y104439
X040324Y104012
X039326Y104439
X038826Y104012
X037825Y104439
X037324Y104012
X0369Y104932
X0369Y105884
X0369Y106837
X038297Y106837
X038297Y105249
X039885Y105249
X039885Y106837
X042742Y104932
X044012Y104932
X045325Y104012
X0456Y104614
X0456Y105249
X047324Y104106
X047822Y105249
X048826Y104106
X047505Y101439
X047187Y100487
X047187Y099534
X048775Y100169
X04941Y100804
X050045Y098264
X05068Y098264
X051315Y098264
X050997Y096677
X04941Y097629
X049092Y095724
X04814Y097629
X047187Y097629
X047187Y095724
X046552Y093834
X047822Y093834
X044965Y092511
X044647Y094454
X045282Y095724
X045282Y097629
X043377Y097629
X043377Y095724
X041472Y097629
X041472Y099534
X042742Y099534
X044012Y099534
X045282Y099534
X045282Y101439
X044012Y101439
X042742Y101439
X041472Y101439
X034825Y104012
X034325Y104439
X033852Y105249
X032826Y104439
X033324Y104012
X031825Y104012
X031325Y104439
X030677Y104932
X029407Y104932
X028137Y104932
X028137Y106837
X029407Y106837
X030677Y106837
X032265Y106837
X032265Y105249
X033852Y106837
X035249Y106837
X035249Y105884
X035249Y104932
X035249Y110647
X035249Y111472
X034106Y112615
X0329Y111917
X033852Y110647
X0329Y113822
X03163Y113187
X03036Y112552
X02909Y111917
X02782Y111282
X02655Y110647
X02528Y111917
X02401Y111282
X02274Y112552
X02147Y111917
X020517Y111917
X019882Y111282
X019882Y110329
X019882Y109059
X021325Y110202
X021825Y110583
X022326Y110202
X023324Y107609
X023883Y106519
X023883Y105249
X022486Y105249
X022486Y106519
X024825Y107609
X02528Y106519
X02528Y105249
X02528Y10436
X02655Y104932
X02655Y106837
X03036Y110647
X03163Y111282
X02909Y113822
X02782Y113187
X02782Y115092
X02909Y115727
X03036Y116362
X03163Y115092
X03036Y114457
X02909Y117632
X02782Y116997
X02782Y118902
X02655Y118267
X02528Y117632
X02401Y116997
X02528Y115727
X02401Y115092
X02528Y113822
X02401Y113187
X02655Y112552
X02655Y114457
X02655Y116362
X02528Y119537
X02401Y118902
X02401Y120807
X02528Y121442
X02655Y120172
X02401Y122712
X02274Y122077
X02147Y121442
X0202Y120807
X02274Y120172
X02274Y116362
X019674Y11291
X019882Y107154
X019882Y104614
X019854Y1013
X019344Y100804
X019854Y100309
X019692Y095724
X019692Y093834
X019692Y091835
X019692Y089585
X019692Y087586
X019692Y085585
X019692Y083586
X019692Y081584
X017192Y079834
X01639Y078836
X01639Y080835
X01512Y080484
X01512Y078579
X01385Y077944
X01258Y076674
X010357Y076674
X01004Y075404
X00877Y076039
X009913Y079722
X009334Y081119
X009913Y082516
X01131Y083095
X011627Y084294
X011627Y086199
X011627Y088104
X01004Y088104
X00877Y088104
X009722Y086199
X01004Y090009
X00877Y090009
X00877Y091914
X01004Y091914
X01131Y091914
X01131Y090009
X01131Y093819
X01004Y093819
X00877Y093819
X00877Y095724
X01004Y095724
X01004Y097629
X00877Y097629
X00877Y099534
X01004Y099534
X01004Y101439
X00877Y101439
X00877Y103344
X01004Y103344
X01004Y105249
X00877Y105249
X00877Y107154
X01004Y107154
X01131Y107154
X011945Y105249
X011945Y103344
X01131Y101439
X01131Y099534
X01131Y096994
X017192Y093834
X017192Y091835
X01639Y088836
X01639Y086834
X01639Y084835
X01639Y082836
X01512Y082389
X013286Y081119
X012707Y079722
X01131Y079146
X012707Y082516
X013532Y084294
X014802Y084929
X013532Y086199
X01512Y076674
X017977Y076674
X020162Y075404
X022288Y076674
X024287Y076674
X024325Y078579
X025595Y078579
X024325Y079849
X025595Y080611
X024327Y081343
X023057Y080835
X022191Y079834
X023057Y078836
X025595Y082516
X024327Y082836
X023057Y082836
X023057Y084835
X024327Y084708
X025595Y084421
X025595Y086072
X024327Y086453
X023057Y086834
X024327Y087947
X025595Y087469
X025595Y088739
X025595Y090009
X024327Y089725
X023057Y088836
X023057Y090835
X024325Y09178
X025595Y09178
X027076Y091279
X027076Y090009
X027076Y08876
X027076Y08751
X027076Y086509
X027076Y085511
X027076Y084411
X027076Y082511
X027182Y081119
X028452Y079849
X027817Y078262
X028287Y076674
X026288Y076674
X029722Y078579
X030289Y076674
X032265Y078262
X033575Y07876
X034076Y081061
X035574Y081061
X036575Y081061
X038574Y081061
X040075Y081061
X041076Y081061
X041155Y078579
X041155Y076674
X04278Y076674
X044647Y076674
X044647Y078579
X044863Y072229
X042862Y072229
X03897Y076674
X037345Y074134
X035765Y076387
X03417Y076674
X034391Y072864
X034805Y072229
X034391Y071594
X034805Y068419
X037345Y069054
X037345Y070324
X030289Y072229
X028287Y072229
X026288Y072229
X024287Y072229
X022288Y072229
X020162Y069054
X016288Y072229
X014287Y072229
X00877Y072229
X00877Y068419
X021691Y095724
X029626Y092511
X030075Y092011
X029626Y09151
X030075Y09051
X029626Y090009
X029626Y089011
X029626Y088259
X029626Y08751
X029626Y086509
X029626Y085511
X029626Y08451
X029626Y083509
X029626Y082511
X029626Y081759
X032074Y081061
X032074Y084109
X032826Y085859
X033824Y085259
X035275Y08671
X036875Y08671
X038325Y085259
X039074Y086311
X039575Y08751
X039575Y088211
X039575Y088909
X038325Y08976
X038574Y091609
X036875Y08831
X035275Y08831
X033824Y08976
X032074Y08956
X032326Y088711
X032575Y087959
X032826Y087111
X032724Y092361
X031975Y092361
X032074Y093959
X033575Y096209
X033575Y096994
X034576Y096994
X034576Y096209
X031945Y097629
X030075Y093959
X034152Y092361
X040324Y08561
X050863Y072229
X052862Y072229
X054863Y072229
X056862Y072229
X058864Y072229
X06084Y079146
X059443Y082516
X058617Y084294
X057347Y084929
X058617Y086199
X05576Y086834
X05576Y088836
X05576Y084835
X05576Y082836
X048813Y069054
X052267Y109059
X052902Y109694
X053537Y110329
X054076Y111711
X052874Y111711
X051675Y111711
X050474Y111711
X049275Y111711
X048826Y110202
X049824Y110202
X050825Y110202
X050474Y114111
X04941Y114457
X04941Y116362
X050474Y11611
X051675Y11611
X052874Y11611
X054076Y11611
X054076Y11771
X052874Y11771
X051675Y11771
X05068Y117632
X04941Y118267
X05068Y119537
X051675Y119709
X052874Y119709
X054076Y119709
X054076Y12211
X052874Y12211
X051675Y12211
X05068Y121442
X04941Y122077
X05068Y123347
X04941Y123982
X05068Y125252
X05195Y124617
X052874Y124111
X054076Y124111
X054076Y125709
X05322Y125887
X054076Y12771
X053029Y128617
X051886Y12976
X05068Y130967
X05195Y131602
X05068Y132872
X04941Y132237
X05195Y133507
X05322Y132237
X054076Y132511
X05322Y130332
X054076Y130111
X051886Y126458
X04814Y122712
X04687Y121442
X04814Y120807
X04687Y119537
X04814Y118902
X04687Y117632
X04814Y116997
X04687Y115727
X04814Y115092
X04687Y113822
X04814Y113187
X04687Y111917
X04814Y111282
X047578Y110202
X0456Y110647
X0456Y112552
X04433Y113187
X04306Y113822
X04179Y114457
X04052Y115092
X04179Y116362
X04306Y115727
X04433Y115092
X0456Y114457
X0456Y116362
X0456Y118267
X04433Y118902
X043695Y120489
X0456Y120172
X0456Y122394
X042425Y126204
X04179Y125569
X04052Y124299
X039885Y123664
X04306Y117632
X04433Y116997
X04052Y113187
X04179Y112552
X04306Y111917
X04433Y111282
X04179Y110647
X04052Y111282
X039885Y110647
X03925Y111917
X038043Y112615
X0369Y111472
X0369Y110647
X038297Y110647
X03925Y113822
X032265Y123664
X03163Y124299
X03036Y125569
X029725Y126204
X029725Y130014
X03036Y130649
X03163Y131919
X032265Y132554
X02655Y137952
X02528Y138587
X02401Y139222
X02528Y140492
X02655Y139857
X02782Y141127
X02655Y141762
X02528Y142397
X02401Y143032
X02528Y144302
X02655Y143667
X02655Y145572
X02782Y144937
X03036Y145572
X03163Y144937
X032265Y149382
X032265Y150969
X032826Y151652
X033324Y152209
X034325Y151652
X034825Y152209
X035249Y151287
X035249Y150334
X035249Y149382
X033852Y149382
X033852Y150969
X031825Y152209
X031325Y151652
X030677Y151287
X029407Y151287
X028137Y151287
X028137Y149382
X029407Y149382
X030677Y149382
X026867Y148747
X02607Y149064
X025318Y149064
X024581Y149064
X023375Y149382
X022826Y148556
X021825Y148556
X019882Y149064
X01893Y148175
X017977Y147159
X01893Y145572
X019275Y14451
X020474Y14451
X021675Y14451
X022874Y14451
X023324Y146016
X022326Y146016
X021325Y146016
X019882Y147159
X018074Y14451
X018074Y14211
X019275Y14211
X020474Y14211
X021675Y14211
X022874Y14211
X02401Y141127
X02401Y144937
X024571Y146016
X02655Y149699
X02655Y150969
X02655Y151609
X026824Y152239
X024825Y152112
X024327Y150969
X023324Y152112
X02401Y154779
X025074Y156684
X026042Y157954
X026867Y157954
X026867Y156684
X028137Y156684
X029407Y156684
X029407Y157954
X03036Y157954
X030995Y157637
X030995Y157002
X03163Y156684
X03163Y157954
X033535Y159859
X03436Y158589
X03436Y157827
X03436Y157065
X036075Y15786
X03798Y159224
X038574Y15956
X038074Y159961
X03925Y158589
X040329Y157002
X040837Y156367
X041282Y155732
X04052Y154779
X039555Y155414
X038945Y155414
X038615Y154779
X038615Y156049
X039885Y156049
X042742Y156684
X044012Y156684
X045282Y156684
X045282Y154779
X044012Y154779
X042742Y154779
X040825Y151652
X041472Y151287
X042742Y151287
X044012Y151287
X044012Y149382
X042742Y149382
X041472Y149382
X039885Y149382
X039885Y150969
X039326Y151652
X038826Y152209
X037825Y151652
X037324Y152209
X0369Y151287
X0369Y150334
X0369Y149382
X038297Y149382
X038297Y150969
X040324Y152209
X037027Y154779
X036329Y154779
X032582Y154779
X030677Y154779
X029407Y154779
X028137Y154779
X026867Y154779
X028137Y157954
X02909Y159859
X02782Y161129
X026867Y159859
X025597Y161129
X024645Y160177
X02401Y159224
X023375Y158589
X02274Y159224
X022105Y158589
X02147Y157319
X020835Y156684
X020835Y157954
X022105Y156684
X020835Y155287
X020517Y160494
X022105Y160494
X022191Y162384
X023692Y162399
X022191Y164386
X023057Y165386
X024327Y165386
X025597Y165635
X025597Y167385
X024327Y167385
X023057Y167385
X023057Y169384
X024327Y169384
X025597Y169384
X025597Y171386
X024327Y171386
X023057Y171386
X023057Y173385
X024327Y173385
X025597Y173385
X025597Y17529
X025597Y176369
X024327Y175386
X023057Y175386
X022191Y176384
X019692Y174634
X019692Y172635
X019692Y170634
X019692Y168635
X019692Y166636
X019692Y164386
X020693Y163385
X017192Y162384
X017192Y164386
X01131Y159224
X01131Y156684
X01131Y149115
X01385Y149115
X01639Y149064
X01385Y143984
X01385Y142107
X01385Y139707
X01385Y137307
X01385Y134906
X01385Y132506
X01385Y130111
X01385Y127716
X010421Y128511
X010421Y129311
X009405Y130111
X010421Y130911
X010421Y131711
X009405Y132511
X010421Y133311
X010421Y134111
X009405Y134909
X010421Y135709
X010421Y136509
X009405Y137309
X010421Y138109
X010421Y138909
X009405Y139709
X010421Y14051
X010421Y14131
X009405Y14211
X010421Y14291
X010421Y14371
X009405Y14451
X00877Y14531
X018074Y130111
X018074Y126733
X01893Y125887
X018074Y12451
X01893Y123982
X01385Y122115
X01385Y119715
X01385Y117314
X01385Y114038
X01385Y112907
X01385Y111307
X010421Y110911
X010421Y111711
X009405Y114111
X00877Y113034
X00877Y111035
X00877Y109059
X01004Y109059
X01385Y107154
X010421Y114909
X010421Y115709
X010421Y118109
X010421Y118909
X009405Y119709
X010421Y12051
X010421Y12131
X009405Y12211
X010421Y12291
X010421Y12371
X00877Y123311
X00877Y12451
X008744Y12531
X009405Y12771
X010421Y12691
X010421Y12611
X00877Y120911
X00877Y118511
X030075Y16226
X029626Y162709
X029626Y16371
X029626Y164711
X029626Y165709
X030075Y166209
X029626Y16671
X029626Y16771
X030075Y168211
X029626Y168711
X029626Y169709
X029626Y17071
X029626Y171711
X030075Y172211
X029626Y172709
X030075Y173209
X029626Y17371
X030075Y17516
X02909Y177004
X02782Y175734
X027185Y173961
X027185Y172211
X027185Y17071
X027185Y169702
X027185Y168211
X027185Y166209
X027185Y16421
X02655Y162399
X02528Y163669
X031574Y163611
X031574Y16226
X033852Y162717
X034325Y16436
X033824Y166461
X035275Y167911
X035275Y169511
X033824Y170959
X033075Y16991
X032575Y168711
X032575Y16801
X032575Y167309
X031825Y170611
X033575Y17516
X035574Y17516
X036575Y17516
X038325Y17516
X040075Y17516
X040075Y17211
X039326Y17036
X038325Y170959
X036875Y169511
X036875Y167911
X038325Y166461
X039326Y16911
X039575Y168259
X039824Y16751
X040075Y166659
X042074Y165709
X042524Y166209
X042524Y16721
X042524Y167959
X042524Y168711
X042524Y169709
X042524Y17071
X042524Y17371
X043697Y176369
X04687Y176369
X046555Y169501
X047825Y169242
X049074Y169384
X049074Y167385
X047825Y167385
X046555Y16798
X046555Y166461
X042524Y164711
X042074Y16226
X040075Y16226
X038932Y162935
X039326Y16386
X040075Y16386
X037076Y16436
X0456Y160177
X054957Y162384
X054957Y164386
X06084Y159224
X06084Y156684
X0583Y143306
X0583Y139707
X0583Y137307
X0583Y134906
X0583Y132923
X0583Y130121
X0583Y12771
X04941Y120172
X051675Y114111
X052874Y114111
X054076Y114111
X042425Y130014
X04179Y130649
X04052Y131919
X039885Y132554
X04433Y137317
X04306Y138587
X04433Y139222
X04306Y140492
X04179Y139857
X04052Y141127
X04179Y141762
X04306Y142397
X04433Y143032
X04433Y141127
X04179Y145572
X04052Y144937
X06084Y173126
X059443Y173702
X058864Y175099
X059443Y176496
X06084Y177075
X062237Y176496
X062816Y175099
X062237Y173702
X054957Y176384
X017192Y176384
X015437Y175074
X013286Y175099
X012707Y173702
X01131Y173126
X009913Y173702
X009334Y175099
X009913Y176496
X01131Y177075
X012707Y176496
X121888Y069563
X122467Y07096
X121888Y072357
X120491Y072936
X119094Y072357
X118515Y07096
X119094Y069563
X120491Y068984
X119221Y07731
X119221Y07858
X120491Y077945
X121761Y077945
X123031Y07858
X123031Y07731
X123348Y080485
X118903Y080803
X118586Y081438
X115411Y083025
X114141Y083025
X114776Y081755
X114776Y080485
X115411Y079215
X114141Y079215
X113506Y077945
X111601Y079215
X112236Y08062
X110966Y08112
X113506Y075405
X105886Y075405
X105886Y077945
X098266Y077945
X098266Y075405
X095408Y08366
X095091Y084168
X094456Y084803
X093186Y086835
X092424Y08747
X091916Y088105
X091916Y089845
X092551Y090645
X092553Y091598
X093186Y095725
X093186Y096995
X094773Y099218
X093821Y102075
X093821Y104615
X091598Y107028
X092106Y108298
X090011Y10779
X087471Y10779
X086201Y104615
X086201Y102075
X085566Y096995
X085566Y095725
X087153Y096995
X088423Y096995
X08919Y092365
X087153Y091915
X087153Y090894
X087217Y089845
X088423Y086518
X089376Y086835
X090328Y086835
X085375Y08239
X083661Y08366
X083343Y0865
X084296Y086518
X083661Y090328
X084296Y090963
X079216Y08239
X079216Y08112
X080105Y08112
X077311Y083025
X076041Y083025
X076676Y081755
X076676Y080485
X077311Y079215
X076041Y079215
X076676Y077945
X076803Y07731
X072231Y07731
X072231Y07858
X070961Y077945
X069691Y077945
X068421Y07858
X068421Y07731
X068421Y07477
X069564Y072357
X068985Y07096
X069564Y069563
X070961Y068984
X072358Y069563
X072937Y07096
X072358Y072357
X070961Y072936
X083026Y075405
X083026Y077945
X090646Y077945
X090646Y075405
X100191Y09001
X100689Y089693
X101189Y09001
X10169Y089693
X10219Y09001
X109061Y0989
X110331Y0989
X109696Y102075
X109696Y103345
X110331Y108425
X109061Y108425
X114141Y10955
X114141Y111951
X117316Y112751
X117316Y113551
X118586Y113551
X118586Y112751
X117951Y111951
X118586Y111151
X118586Y110351
X117951Y10955
X118586Y10875
X118586Y10795
X117951Y10715
X117316Y10795
X117316Y10875
X117316Y110351
X117316Y111151
X114141Y10715
X114141Y10395
X114141Y101549
X117316Y100749
X117316Y099949
X117316Y099149
X117316Y098349
X118586Y098349
X118586Y099949
X118586Y100749
X117951Y101549
X118586Y10235
X118586Y10315
X117951Y10395
X118586Y10475
X118586Y10555
X117316Y10555
X117316Y10475
X117316Y10315
X117316Y10235
X121761Y101549
X121761Y10395
X122713Y10779
X121761Y10955
X121761Y111951
X118586Y115951
X118586Y116749
X117951Y117549
X117316Y116749
X117316Y115951
X117316Y118349
X117316Y119149
X117951Y119949
X118586Y119149
X118586Y118349
X118586Y120749
X118586Y121549
X117951Y12235
X118586Y12315
X118586Y12395
X117951Y12475
X118586Y12555
X118586Y12635
X117951Y12715
X118586Y12795
X118586Y12875
X117951Y12955
X118586Y130351
X118586Y131151
X117951Y131951
X117316Y131151
X117316Y130351
X117316Y12875
X117316Y12795
X117316Y12635
X117316Y12555
X117316Y12395
X117316Y12315
X117316Y121549
X117316Y120749
X114141Y119949
X114141Y117549
X110331Y11795
X109061Y11795
X109696Y121125
X109696Y122395
X110331Y127475
X109061Y127475
X110902Y129634
X114141Y12955
X114141Y12715
X114141Y12475
X121761Y12475
X121761Y12715
X121761Y12955
X121761Y135151
X121761Y136751
X121761Y137549
X118586Y135951
X117316Y136751
X117316Y137549
X117316Y135151
X114141Y135951
X107791Y145573
X106838Y144938
X104298Y145006
X104298Y143985
X104235Y146055
X102261Y143536
X099536Y146055
X098901Y145255
X098898Y144303
X098266Y140175
X098266Y138905
X097504Y136683
X09648Y136683
X096488Y137635
X096488Y138905
X09648Y139858
X092429Y139858
X092429Y138905
X092429Y137635
X092429Y136683
X09109Y133825
X091598Y13319
X090011Y136365
X087471Y136365
X087471Y132189
X087471Y12684
X090011Y12684
X093567Y126548
X093567Y127597
X094202Y129698
X095726Y127983
X097758Y128999
X098647Y128872
X099218Y12811
X099218Y12729
X099218Y126391
X096996Y125385
X095474Y12366
X094926Y12303
X09598Y12176
X095472Y121125
X093821Y121443
X093503Y120808
X090011Y117315
X087471Y117315
X087471Y113139
X091789Y1116
X092551Y1116
X099218Y120808
X099028Y12176
X098266Y122395
X101441Y118585
X103981Y118585
X103981Y122761
X103981Y12811
X105251Y131285
X105251Y133825
X105886Y138905
X105886Y140175
X104298Y138905
X103028Y138905
X097631Y133825
X097631Y131285
X093186Y14589
X09126Y14589
X09076Y146208
X09026Y14589
X089759Y146208
X089259Y14589
X088741Y151986
X088233Y152494
X088741Y15351
X087217Y155098
X088741Y156685
X087217Y158273
X084613Y159225
X084613Y159959
X087217Y161448
X084613Y156939
X084613Y155458
X083343Y154463
X081964Y155415
X081466Y154907
X080966Y155923
X07856Y153002
X077966Y152494
X076465Y153002
X076676Y156685
X076676Y15986
X077946Y160813
X077466Y161448
X079216Y15986
X079851Y15986
X080501Y15986
X081756Y16113
X077946Y164305
X075025Y165575
X072937Y16494
X072358Y166337
X070961Y166916
X069564Y166337
X068985Y16494
X069564Y163543
X070961Y162964
X072358Y163543
X070961Y160114
X071781Y157638
X07268Y157638
X07268Y155458
X074136Y159959
X072866Y137549
X072866Y136751
X074136Y136751
X077184Y136751
X077184Y137549
X077184Y134351
X077311Y131951
X077311Y12955
X077311Y12715
X077311Y12475
X074136Y12395
X074136Y12315
X073501Y12235
X074136Y121549
X074136Y120749
X073501Y119949
X074136Y119149
X074136Y118349
X073501Y117549
X074136Y116749
X074136Y115951
X072866Y115951
X072866Y116749
X072866Y118349
X072866Y119149
X072866Y120749
X072866Y121549
X072866Y12315
X072866Y12395
X073501Y12475
X074136Y12555
X074136Y12635
X073501Y12715
X074136Y12795
X074136Y12875
X073501Y12955
X074136Y130351
X074136Y131151
X073501Y131951
X074136Y132751
X074136Y133551
X072866Y133551
X072866Y132751
X072866Y131151
X072866Y130351
X072866Y12875
X072866Y12795
X072866Y12635
X072866Y12555
X069691Y12475
X069691Y12715
X069691Y12955
X069691Y131951
X069818Y134351
X069691Y136751
X069119Y12235
X069691Y119949
X069691Y117549
X072866Y113551
X072866Y112751
X073501Y111951
X074136Y112751
X074136Y113551
X074136Y111151
X074136Y110351
X073501Y10955
X074136Y10875
X074136Y10795
X073501Y10715
X072866Y10795
X072866Y10875
X072866Y110351
X072866Y111151
X069691Y111951
X069691Y10955
X069691Y10715
X069691Y10395
X069691Y099949
X072866Y100749
X072866Y101549
X072866Y10235
X072866Y10315
X073501Y10395
X074136Y10315
X074136Y10235
X074136Y101549
X074136Y100749
X073501Y099949
X074136Y10475
X074136Y10555
X072866Y10555
X072866Y10475
X077311Y10395
X077311Y099949
X081121Y108425
X082391Y108425
X081756Y113505
X081756Y114775
X082391Y11795
X081121Y11795
X077311Y117549
X077311Y119949
X077311Y111951
X077311Y10955
X081121Y127475
X082391Y127475
X081756Y132555
X081756Y133825
X082391Y137
X081121Y137
X094138Y153193
X095091Y155415
X093821Y156685
X093821Y157955
X096361Y155415
X097631Y156685
X097631Y157955
X101758Y152228
X102076Y151605
X103981Y155415
X107791Y152228
X10868Y157193
X10823Y16045
X108779Y16113
X10933Y16045
X109881Y16113
X11043Y16045
X110981Y16113
X11153Y16045
X112081Y16113
X112629Y16045
X113181Y16113
X113729Y16045
X11428Y16113
X114829Y16045
X11538Y16113
X114679Y157193
X117633Y15605
X119856Y15732
X120491Y158793
X120491Y160495
X119856Y16113
X120491Y162964
X119094Y163543
X118515Y16494
X119094Y166337
X120491Y166916
X121888Y166337
X122467Y16494
X121888Y163543
X122396Y15986
X123031Y157955
X107679Y16113
X122332Y12235
X121761Y119949
X121761Y117549
X103981Y10906
X101441Y10906
X103981Y103711
X100552Y103211
X100044Y10271
X101441Y099535
X103981Y099535
X110331Y090645
X121761Y086835
T09
X12049Y01512
X12303Y01512
X07096Y01512
X06842Y01512
X06842Y05703
X07096Y05703
X12049Y05703
X12303Y05703
X01258Y160494
X01258Y157954
X01512Y157954
X01512Y160494
X05703Y160494
X05703Y157954
X05957Y157954
X05957Y160494
X05957Y098264
X05957Y095724
X05703Y095724
X05703Y098264
X01512Y098264
X01512Y095724
X01258Y095724
X01258Y098264
T10
X028455Y120489
X02655Y122394
X043695Y135729
X0456Y133824
X10614Y096551
X10614Y09744
X105251Y09744
X105251Y096551
X104362Y096551
X104362Y09744
X104362Y106076
X105251Y106076
X10614Y106076
X10614Y106965
X105251Y106965
X104362Y106965
X104362Y115601
X105251Y115601
X10614Y115601
X10614Y11649
X105251Y11649
X104362Y11649
X104362Y125126
X105251Y125126
X10614Y125126
X10614Y126015
X105251Y126015
X104362Y126015
X107346Y134206
X108235Y134206
X108235Y135095
X108235Y135984
X107346Y135984
X107346Y135095
X100615Y135095
X100615Y135984
X099726Y135984
X099726Y135095
X099726Y134206
X100615Y134206
X08709Y138461
X08709Y13935
X086201Y13935
X086201Y138461
X085312Y138461
X085312Y13935
X085312Y129825
X086201Y129825
X08709Y129825
X08709Y128936
X086201Y128936
X085312Y128936
X085312Y1203
X086201Y1203
X08709Y1203
X08709Y119411
X086201Y119411
X085312Y119411
X085312Y110775
X086201Y110775
X08709Y110775
X08709Y109886
X086201Y109886
X085312Y109886
X084105Y101694
X084105Y100805
X084105Y099916
X083216Y099916
X083216Y100805
X083216Y101694
X090836Y101694
X091725Y101694
X091725Y100805
X091725Y099916
X090836Y099916
X090836Y100805
X08855Y075024
X08855Y074135
X08855Y073246
X087661Y073246
X087661Y074135
X087661Y075024
X08093Y075024
X08093Y074135
X08093Y073246
X080041Y073246
X080041Y074135
X080041Y075024
X095281Y075024
X09617Y075024
X09617Y074135
X09617Y073246
X095281Y073246
X095281Y074135
X102901Y074135
X10379Y074135
X10379Y075024
X102901Y075024
X102901Y073246
X10379Y073246
X110521Y073246
X11141Y073246
X11141Y074135
X11141Y075024
X110521Y075024
X110521Y074135
T11
X05068Y128109
X036075Y113504
X028325Y09451
X02147Y128109
X036075Y142714
X043824Y161711
X102076Y067785
X097994Y067811
X096724Y067811
X095454Y067811
X089104Y067811
X083661Y08112
X079533Y085565
X073501Y084295
X075406Y095725
X071596Y095725
X086201Y08874
X093821Y09255
X098901Y09255
X094456Y0862
X095726Y08239
X098266Y08239
X100488Y08239
X101441Y08239
X102393Y08239
X113188Y090645
X113188Y093185
X116046Y095725
X119856Y095725
X112871Y112235
X099218Y123348
X099218Y125253
X093503Y122713
X095726Y11287
X097631Y11287
X097631Y11033
X093821Y11033
X093821Y107155
X078581Y123665
X075406Y140175
X078263Y142715
X078263Y145255
X071596Y140175
X076993Y155733
X083026Y15351
X087471Y15351
X091916Y158908
X092868Y15351
X097631Y152875
X098901Y154145
X099853Y154145
X100806Y154145
X100806Y152875
X100806Y155819
X099853Y155819
X098901Y155819
X099536Y158908
X103981Y158908
X105886Y158908
X105886Y15986
X105886Y157955
X107791Y156368
X111601Y156368
X111918Y150335
X117951Y151605
X119856Y140175
X116046Y140175
X105251Y14716
X103981Y152875
X100806Y149065
X097631Y149065
X087471Y166845
X074771Y067811
T12
X037345Y141444
X038615Y140174
X034805Y141444
X033535Y140174
X02401Y130649
X02274Y129379
X02274Y126839
X02401Y125569
X033535Y116044
X034805Y114774
X037345Y114774
X038615Y116044
X04814Y125569
X04941Y126839
X04941Y129379
X04814Y130649
T13
X046745Y156915
X053344Y156915
X025404Y099306
X018805Y099306
X085055Y092144
X078454Y092144
X106394Y143754
X112995Y143754
T14
X053448Y097111
X018691Y159224
T15
X018287Y07548
X017286Y073479
X016288Y07548
X015287Y073479
X014287Y07548
X013288Y073479
X012288Y07548
X013288Y07098
X014287Y068981
X015287Y07098
X016288Y068981
X017286Y07098
X018287Y068981
X021287Y07098
X022288Y068981
X023288Y07098
X024287Y068981
X025287Y07098
X026288Y068981
X027286Y07098
X028287Y068981
X029288Y07098
X030289Y068981
X031287Y07098
X031287Y073479
X030289Y07548
X029288Y073479
X028287Y07548
X027286Y073479
X026288Y07548
X025287Y073479
X024287Y07548
X023288Y073479
X022288Y07548
X021287Y073479
X012288Y068981
X040863Y068981
X041863Y07098
X042862Y068981
X043862Y07098
X044863Y068981
X045861Y07098
X046862Y068981
X049862Y07098
X050863Y068981
X051863Y07098
X052862Y068981
X053862Y07098
X054863Y068981
X055861Y07098
X056862Y068981
X057863Y07098
X058864Y068981
X059862Y07098
X059862Y073479
X058864Y07548
X057863Y073479
X056862Y07548
X055861Y073479
X054863Y07548
X053862Y073479
X052862Y07548
X051863Y073479
X050863Y07548
X049862Y073479
X046862Y07548
X045861Y073479
X044863Y07548
X043862Y073479
X042862Y07548
X041863Y073479
X040863Y07548
T16
X0583Y106011
X01385Y106011
X117951Y140051
X117951Y140051
X073501Y140051
X073501Y140051
T17
X018691Y093834
X018691Y091835
X018691Y089834
X018691Y087835
X018691Y085836
X020693Y085836
X020693Y087835
X020693Y089834
X020693Y091835
X020693Y093834
X020693Y083834
X020693Y081836
X020693Y079834
X018691Y079834
X018691Y081836
X018691Y083834
X051457Y083834
X051457Y081836
X051457Y079834
X053459Y079834
X053459Y081836
X053459Y083834
X053459Y085836
X053459Y087835
X053459Y089834
X053459Y091835
X053459Y093834
X051457Y093834
X051457Y091835
X051457Y089834
X051457Y087835
X051457Y085836
X051457Y162384
X051457Y164386
X051457Y166384
X051457Y168386
X051457Y170385
X051457Y172384
X051457Y174385
X051457Y176384
X053459Y176384
X053459Y174385
X053459Y172384
X053459Y170385
X053459Y168386
X053459Y166384
X053459Y164386
X053459Y162384
X020693Y162384
X020693Y164386
X020693Y166384
X020693Y168386
X020693Y170385
X020693Y172384
X020693Y174385
X020693Y176384
X018691Y176384
X018691Y174385
X018691Y172384
X018691Y170385
X018691Y168386
X018691Y166384
X018691Y164386
X018691Y162384
T18
X01385Y167116
X01385Y169115
T19
X019875Y150334
X052275Y105884
X074771Y142715
X074771Y145255
X074771Y147795
X074771Y150335
X072231Y150335
X072231Y147795
X072231Y145255
X072231Y142715
X072231Y093185
X074771Y093185
X074771Y090645
X074771Y088105
X074771Y085565
X072231Y085565
X072231Y088105
X072231Y090645
X116681Y090645
X119221Y090645
X119221Y093185
X116681Y093185
X116681Y088105
X119221Y088105
X119221Y085565
X116681Y085565
X116681Y142715
X119221Y142715
X119221Y145255
X119221Y147795
X119221Y150335
X116681Y150335
X116681Y147795
X116681Y145255
T20
X01512Y152874
X01512Y155414
X019875Y105884
X01512Y103344
X01512Y100804
X052275Y150334
X05703Y152874
X05703Y155414
X05703Y103344
X05703Y100804
T21
X048213Y072229
X039062Y072229
X019638Y072229
X010487Y072229
T22
X01131Y081119
X06084Y081119
X06084Y175099
X01131Y175099
X070961Y07096
X120491Y07096
X120491Y16494
X070961Y16494
T23
X089376Y14843
X089376Y1497
X090646Y1497
X090646Y14843
X089693Y140175
X089693Y13954
X088741Y137
X088741Y136365
X084931Y135413
X083661Y135413
X080486Y138588
X080486Y139223
X080486Y129698
X080486Y129063
X083661Y125888
X084931Y125888
X088741Y12684
X088741Y127475
X089693Y130015
X089693Y13065
X089693Y121125
X089693Y12049
X088741Y11795
X088741Y117315
X084931Y116363
X083661Y116363
X080486Y119538
X080486Y120173
X080486Y110648
X080486Y110013
X082391Y104298
X083026Y104298
X085566Y103345
X086201Y103345
X090011Y104298
X090646Y104298
X093186Y103345
X093821Y103345
X088741Y10779
X088741Y108425
X089693Y110965
X089693Y1116
X095091Y117315
X095091Y118585
X096361Y118585
X096361Y117315
X101758Y11541
X101758Y114775
X102711Y11795
X102711Y118585
X106521Y119538
X107791Y119538
X110966Y116363
X110966Y115728
X107791Y110013
X106521Y110013
X102711Y10906
X102711Y108425
X101758Y105885
X101758Y10525
X102711Y099535
X102711Y0989
X101758Y09636
X101758Y095725
X106521Y100488
X107791Y100488
X110966Y097313
X110966Y096678
X110966Y106203
X110966Y106838
X101758Y1243
X101758Y124935
X102711Y127475
X102711Y12811
X101441Y131603
X100806Y131603
X098266Y132555
X097631Y132555
X099853Y140493
X100488Y140493
X104616Y142715
X107473Y140493
X108108Y140493
X110648Y141445
X105886Y132555
X105251Y132555
X108426Y131603
X109061Y131603
X110966Y125888
X110966Y125253
X091598Y095408
X090963Y095408
X086836Y093185
X083978Y095408
X083343Y095408
X080803Y094455
X090646Y084295
X091916Y084295
X091916Y083025
X090646Y083025
X087471Y077628
X086836Y077628
X090011Y076675
X090646Y076675
X091598Y072865
X090011Y071913
X090011Y071278
X094456Y077628
X095091Y077628
X097631Y076675
X098266Y076675
X099218Y072865
X097631Y071913
X097631Y071278
X102076Y077628
X102711Y077628
X105251Y076675
X105886Y076675
X106838Y072865
X105251Y071913
X105251Y071278
X109696Y077628
X110331Y077628
X112871Y076675
X113506Y076675
X112871Y071913
X112871Y071278
X102076Y0862
X102076Y08747
X100806Y08747
X100806Y0862
X083978Y072865
X082391Y071913
X082391Y071278
X082391Y076675
X083026Y076675
X079851Y077628
X079216Y077628
X110981Y16539
T24
X113188Y141445
X111918Y141445
X113188Y147795
X084931Y151351
X082708Y150335
X082708Y147795
X080486Y151351
X078263Y150335
X078263Y147795
X078263Y094455
X079533Y094455
X078263Y088105
X106521Y084549
X108743Y085565
X108743Y088105
X110966Y084549
X113188Y085565
X113188Y088105
T25
X073501Y091915
X073501Y143985
X073501Y146525
X117951Y143985
X117951Y091915
X117951Y089375
M30
