M48
FMAT,2
ICI,OFF
METRIC,TZ,000.000
T01C0.254
T02C0.330
T03C0.350
T04C0.500
T05C1.125
T06C1.224
T07C2.600
T08C0.203
T09C1.016
T10C0.381
T11C0.406
T12C0.609
T13C0.635
T14C0.711
T15C0.736
T16C0.812
T17C0.914
T18C1.092
T19C1.117
T20C1.193
T21C2.159
T22C3.175
T23C0.304
T24C0.355
%
G90
M71
T01
X8175Y10715
X9735Y11350
X10207Y10207
X11350Y9735
X12493Y10207
X12965Y11350
X12493Y12493
X11350Y12965
X10207Y12493
X8175Y13255
X8175Y15795
X8175Y18335
X8175Y20875
X8175Y23415
X8175Y25955
X11350Y23161
X10842Y22653
X13763Y23542
X15541Y21510
X13509Y19351
X13509Y18081
X15541Y18716
X16900Y18970
X18170Y18970
X19440Y18970
X20710Y18970
X21980Y18335
X23250Y18335
X24520Y18335
X25790Y18335
X27060Y18335
X28330Y18970
X29600Y18335
X30870Y18335
X32140Y18335
X33410Y18335
X34680Y18970
X35950Y18970
X37220Y18335
X38490Y18335
X39760Y18335
X41030Y18335
X42300Y18335
X43570Y18970
X44840Y18335
X46110Y18335
X47380Y18335
X48650Y18970
X49920Y18970
X51190Y18970
X51825Y18970
X52460Y18970
X53730Y18970
X51866Y17446
X51866Y14398
X52864Y14398
X53865Y14398
X53364Y13382
X52366Y13382
X51365Y13382
X50364Y13382
X49864Y13763
X48866Y13382
X48365Y13763
X47365Y13382
X46864Y13763
X46364Y14398
X45866Y13382
X45366Y13763
X44865Y14398
X44365Y13382
X43865Y13763
X43364Y14398
X42864Y13382
X42366Y13763
X41866Y14398
X41365Y13382
X40865Y13763
X40364Y14398
X39864Y13382
X39366Y13763
X38866Y14398
X38365Y13382
X37865Y13763
X37365Y14398
X36864Y13382
X36364Y13763
X35866Y14398
X35366Y13382
X34865Y13763
X34365Y14398
X33865Y13382
X33364Y13763
X32864Y14398
X32366Y13382
X31866Y13763
X31365Y14398
X30865Y13382
X30364Y13763
X29864Y14398
X29366Y13382
X28866Y13763
X28330Y14398
X27865Y13382
X27365Y13763
X26864Y14398
X26364Y13382
X25866Y13763
X25366Y14398
X24865Y13382
X24365Y13763
X23865Y14398
X23364Y13382
X22864Y13763
X22366Y14398
X21866Y13382
X21365Y13763
X20118Y13255
X20865Y10080
X22366Y10080
X23865Y10080
X25366Y10080
X26864Y10080
X25955Y8175
X28495Y8175
X29864Y10080
X31365Y10080
X32864Y10080
X34365Y10080
X35866Y10080
X37365Y10080
X38866Y10080
X40364Y10080
X41866Y10080
X41195Y8175
X38655Y8175
X36115Y8175
X33575Y8175
X31035Y8175
X23415Y8175
X20875Y8175
X19366Y10080
X18335Y8175
X15795Y8175
X13255Y8175
X10715Y8175
X8810Y8810
X11668Y16544
X21980Y20240
X23250Y20240
X24520Y20240
X25790Y20240
X27060Y20240
X29600Y20240
X30870Y20240
X32140Y20240
X33410Y20240
X37220Y20240
X38490Y20240
X39760Y20240
X41030Y20240
X42300Y20240
X44840Y20240
X46110Y20240
X47380Y20240
X57451Y18716
X57451Y18081
X57578Y16811
X61129Y19097
X61769Y19097
X64055Y18335
X64055Y20875
X61769Y22653
X61134Y22653
X60499Y22653
X59864Y22653
X59229Y21510
X57433Y22653
X57433Y23542
X59229Y25955
X59864Y27098
X60499Y27098
X61134Y27098
X61769Y27098
X61769Y27987
X61134Y27987
X64055Y28495
X64055Y31035
X61769Y31543
X61134Y31543
X60499Y31543
X59864Y31543
X59229Y30400
X57433Y31543
X56864Y34500
X55721Y34972
X55249Y36115
X55721Y37258
X56864Y37730
X58007Y37258
X58482Y36115
X58007Y34972
X64055Y36115
X64055Y38655
X64055Y41195
X64055Y43735
X61388Y43989
X61642Y44941
X61642Y45576
X61642Y46212
X61642Y46846
X62150Y47799
X64055Y48815
X64055Y46275
X61388Y42683
X59229Y42401
X59229Y43036
X59229Y41766
X59229Y41131
X58721Y40306
X55927Y41766
X55927Y42401
X55927Y43036
X56968Y44116
X57578Y44116
X58086Y44941
X58086Y45576
X58086Y46212
X58086Y46846
X56270Y48180
X55254Y48180
X54492Y45259
X53768Y43491
X52460Y44370
X51190Y44370
X51190Y45259
X50555Y45259
X49920Y44370
X48650Y44370
X47380Y51990
X46110Y51990
X44840Y51990
X43951Y53895
X42363Y53895
X41030Y53895
X39760Y53895
X38490Y53895
X37220Y53895
X35315Y53895
X33410Y53895
X32140Y53895
X30870Y53895
X29600Y53895
X28330Y53260
X27060Y53895
X25790Y53895
X24520Y53895
X23250Y53895
X21980Y53260
X20710Y53260
X19440Y53260
X18170Y53260
X16900Y53260
X14779Y53514
X14779Y54149
X14779Y55419
X18365Y57832
X19366Y57832
X20364Y57832
X21365Y57832
X21866Y58848
X22366Y58467
X22864Y57832
X23364Y58848
X23865Y58467
X24365Y57832
X24865Y58848
X25366Y58467
X25866Y57832
X26364Y58848
X26864Y58467
X27365Y57832
X27865Y58848
X28365Y58467
X28866Y57832
X29366Y58848
X29864Y58467
X30364Y57832
X30865Y58848
X31365Y58467
X31866Y57832
X32366Y58848
X32864Y58467
X33283Y57832
X33865Y58848
X34365Y58467
X34865Y57832
X35366Y58848
X35866Y58467
X36364Y57832
X36864Y58848
X37365Y58467
X37865Y57832
X38365Y58848
X38866Y58467
X39366Y57832
X39864Y58848
X40364Y58467
X40865Y57832
X41365Y58848
X41866Y58467
X42366Y57832
X42864Y58848
X43364Y58467
X43865Y57832
X44365Y58848
X44865Y58467
X45366Y57832
X45866Y58848
X46364Y58467
X46864Y57832
X47365Y58848
X47865Y58439
X48365Y57832
X48866Y58848
X49366Y58439
X49864Y57832
X50364Y58848
X50865Y58439
X51482Y57832
X51868Y59361
X53364Y59610
X53865Y58848
X52864Y62150
X51365Y62150
X49864Y62150
X48365Y62150
X46864Y62150
X45366Y62150
X46275Y64055
X43735Y64055
X42366Y62150
X40865Y62150
X39366Y62150
X37865Y62150
X36364Y62150
X34865Y62150
X33364Y62150
X31866Y62150
X30364Y62150
X31035Y64055
X33575Y64055
X36115Y64055
X38655Y64055
X41195Y64055
X48815Y64055
X51355Y64055
X53895Y64055
X56435Y64055
X58975Y64055
X60880Y62495
X59737Y62023
X59265Y60880
X59737Y59737
X60880Y59265
X62023Y59737
X62495Y60880
X62023Y62023
X63420Y63420
X61515Y64055
X64055Y61515
X64055Y58975
X64055Y56435
X64055Y53895
X64055Y51355
X61642Y50339
X60245Y52625
X58175Y51672
X58213Y54022
X57705Y54530
X58912Y56176
X55190Y52625
X54555Y53260
X53412Y53260
X51190Y53260
X49920Y53260
X48650Y53260
X47507Y53895
X49229Y54657
X50364Y54657
X45729Y53895
X42300Y51990
X41030Y51990
X39760Y51990
X38490Y51990
X37220Y51990
X33410Y51990
X32140Y51990
X30870Y51990
X29600Y51990
X27060Y51990
X25790Y51990
X24520Y51990
X23250Y51990
X20364Y54784
X19864Y58848
X18866Y58848
X20865Y58848
X21365Y62150
X22864Y62150
X24365Y62150
X25866Y62150
X27365Y62150
X28495Y64055
X25955Y64055
X23415Y64055
X20875Y64055
X18335Y64055
X15795Y64055
X13255Y64055
X11350Y62495
X10207Y62023
X9735Y60880
X10207Y59737
X11350Y59265
X12493Y59737
X12965Y60880
X12493Y62023
X10715Y64055
X8810Y63420
X8175Y61515
X8175Y58975
X8175Y56435
X8175Y53895
X10461Y53133
X11101Y53133
X13001Y50720
X12366Y49577
X11731Y49577
X11096Y49577
X10461Y49577
X10461Y48688
X11096Y48688
X8175Y48815
X8175Y46275
X10461Y45132
X11096Y45132
X11731Y45132
X12366Y45132
X11096Y44243
X10461Y44243
X8175Y43735
X8175Y41195
X10461Y40687
X11096Y40687
X11731Y40687
X12366Y40687
X13001Y41830
X14797Y40687
X13725Y37730
X14868Y37258
X15340Y36115
X14868Y34972
X13725Y34500
X12582Y34972
X12109Y36115
X12582Y37258
X9915Y37385
X9280Y36115
X8175Y36115
X9915Y34845
X9280Y33575
X8175Y33575
X8175Y31035
X10461Y30654
X12493Y30146
X12493Y31162
X13509Y27987
X13509Y26971
X15541Y27479
X16900Y27860
X18170Y27860
X19440Y27860
X20710Y27860
X21980Y27860
X22742Y27860
X23504Y27860
X15559Y25302
X8175Y28495
X8175Y38655
X9280Y38655
X14797Y44243
X14797Y45132
X13001Y46275
X14797Y48688
X14797Y49577
X16900Y44370
X17789Y44370
X18551Y44370
X19313Y44370
X20075Y44370
X21345Y44370
X8175Y51355
X48650Y27860
X49920Y27860
X51190Y27860
X52460Y27860
X53730Y27860
X57433Y27987
X57433Y27098
X61134Y23542
X61769Y23542
X64055Y23415
X64055Y25955
X64055Y33575
X64055Y15795
X64055Y13255
X62023Y12493
X60880Y12965
X59737Y12493
X59265Y11350
X59737Y10207
X60880Y9735
X62023Y10207
X62495Y11350
X64055Y10715
X63420Y8810
X61515Y8175
X58975Y8175
X56435Y8175
X53895Y8175
X51355Y8175
X48815Y8175
X49366Y10080
X47865Y10080
X46364Y10080
X44865Y10080
X43735Y8175
X46275Y8175
X50865Y10080
X62150Y167559
X92504Y142922
X87233Y145970
X84376Y161528
X84376Y162163
X83741Y162163
X82153Y165020
X82153Y165973
X81518Y165973
X80248Y165020
X76756Y162163
X76756Y161528
X76121Y162163
X87868Y165020
X89138Y165973
X89773Y165973
X89773Y165020
T02
X17065Y60880
X39114Y173289
X38365Y173289
X37616Y173289
X36864Y173289
X36115Y173289
X35365Y173289
X34616Y173289
X33864Y173289
X33115Y173289
X33115Y83089
X33864Y83089
X34616Y83089
X35365Y83089
X36115Y83089
X36864Y83089
X37616Y83089
X38365Y83089
X39114Y83089
X103426Y150415
X101521Y128190
X93266Y115490
X77391Y107870
X87868Y85645
X88821Y81200
X77391Y84375
X121841Y132831
T03
X16900Y50720
X16900Y49450
X18170Y49450
X18170Y50720
X19440Y50720
X19440Y49450
X20710Y49450
X20710Y50720
X21980Y50720
X21980Y49450
X23250Y49450
X23250Y50720
X24520Y50720
X24520Y49450
X25790Y49450
X25790Y50720
X27060Y50720
X27060Y49450
X28330Y49450
X28330Y50720
X29600Y50720
X29600Y49450
X30870Y49450
X30870Y50720
X32140Y50720
X32140Y49450
X33410Y49450
X33410Y50720
X34680Y50720
X34680Y49450
X35950Y49450
X35950Y50720
X37220Y50720
X37220Y49450
X38490Y49450
X38490Y50720
X39760Y50720
X39760Y49450
X41030Y49450
X41030Y50720
X42300Y50720
X42300Y49450
X43570Y49450
X43570Y50720
X44840Y50720
X44840Y49450
X46110Y49450
X46110Y50720
X47380Y50720
X47380Y49450
X48650Y49450
X48650Y50720
X49920Y50720
X49920Y49450
X51190Y49450
X51190Y50720
X52460Y50720
X52460Y49450
X52460Y48180
X51190Y48180
X49920Y48180
X48650Y48180
X47380Y48180
X46110Y48180
X44840Y48180
X43570Y48180
X42300Y48180
X41030Y48180
X39760Y48180
X38490Y48180
X37220Y48180
X35950Y48180
X34680Y48180
X33410Y48180
X32140Y48180
X30870Y48180
X29600Y48180
X28330Y48180
X27060Y48180
X25790Y48180
X24520Y48180
X23250Y48180
X21980Y48180
X20710Y48180
X19440Y48180
X18170Y48180
X16900Y48180
X16900Y46910
X18170Y46910
X19440Y46910
X20710Y46910
X21980Y46910
X23250Y46910
X24520Y46910
X25790Y46910
X27060Y46910
X28330Y46910
X29600Y46910
X30870Y46910
X32140Y46910
X33410Y46910
X34680Y46910
X35950Y46910
X37220Y46910
X38490Y46910
X39760Y46910
X41030Y46910
X42300Y46910
X43570Y46910
X44840Y46910
X46110Y46910
X47380Y46910
X48650Y46910
X49920Y46910
X51190Y46910
X52460Y46910
X53730Y46910
X53730Y48180
X53730Y49450
X53730Y50720
X53730Y25320
X52460Y25320
X51190Y25320
X49920Y25320
X48650Y25320
X47380Y25320
X46110Y25320
X44840Y25320
X43570Y25320
X42300Y25320
X41030Y25320
X39760Y25320
X38490Y25320
X37220Y25320
X35950Y25320
X34680Y25320
X33410Y25320
X32140Y25320
X30870Y25320
X29600Y25320
X28330Y25320
X27060Y25320
X25790Y25320
X24520Y25320
X23250Y25320
X21980Y25320
X20710Y25320
X19440Y25320
X18170Y25320
X16900Y25320
X16900Y24050
X18170Y24050
X19440Y24050
X20710Y24050
X20710Y22780
X19440Y22780
X18170Y22780
X16900Y22780
X18170Y21510
X19440Y21510
X20710Y21510
X21980Y21510
X21980Y22780
X23250Y22780
X23250Y21510
X24520Y21510
X24520Y22780
X25790Y22780
X25790Y21510
X27060Y21510
X27060Y22780
X28330Y22780
X28330Y21510
X29600Y21510
X29600Y22780
X30870Y22780
X30870Y21510
X32140Y21510
X32140Y22780
X33410Y22780
X33410Y21510
X34680Y21510
X34680Y22780
X35950Y22780
X35950Y21510
X37220Y21510
X37220Y22780
X38490Y22780
X38490Y21510
X39760Y21510
X39760Y22780
X41030Y22780
X41030Y21510
X42300Y21510
X42300Y22780
X43570Y22780
X43570Y21510
X44840Y21510
X46110Y21510
X46110Y22780
X46110Y24050
X47380Y24050
X48650Y24050
X49920Y24050
X51190Y24050
X52460Y24050
X52460Y22780
X51190Y22780
X49920Y22780
X48650Y22780
X47380Y22780
X47380Y21510
X48650Y21510
X49920Y21510
X51190Y21510
X52460Y21510
X53730Y21510
X53730Y22780
X53730Y24050
X43570Y24050
X42300Y24050
X41030Y24050
X39760Y24050
X38490Y24050
X37220Y24050
X35950Y24050
X34680Y24050
X33410Y24050
X32140Y24050
X30870Y24050
X29600Y24050
X28330Y24050
X27060Y24050
X25790Y24050
X24520Y24050
X23250Y24050
X21980Y24050
T04
X9445Y53895
X62785Y18335
T05
X55315Y13890
X16915Y58340
X118030Y52315
X76605Y58340
X73580Y19915
X115005Y13890
T06
X55315Y58340
X16915Y13890
X118030Y19915
X76605Y13890
X73580Y52315
X115005Y58340
T07
X11350Y11350
X13725Y36115
X11350Y60880
X56864Y36115
X60880Y60880
X60880Y11350
X120570Y60880
X71040Y60880
X71040Y11350
X120570Y11350
T08
X67865Y10715
X69425Y11350
X69897Y10207
X71040Y9735
X72183Y10207
X72655Y11350
X72183Y12493
X71040Y12965
X69897Y12493
X67865Y13255
X69770Y17065
X67865Y18335
X67865Y20875
X70024Y21365
X70024Y22864
X69453Y24116
X67865Y23415
X67865Y25955
X69453Y27865
X67865Y28495
X69453Y30116
X67865Y31035
X69453Y32366
X69453Y33865
X67865Y33575
X67865Y36115
X69453Y36115
X69453Y38365
X69453Y39864
X67865Y38655
X67865Y41195
X69453Y42114
X67865Y43735
X69453Y45005
X67865Y46275
X69453Y48147
X67865Y48815
X69453Y50085
X67865Y51355
X67865Y53895
X69770Y55165
X71040Y54212
X71993Y52307
X72246Y50865
X72691Y50364
X72246Y49864
X72945Y48815
X72691Y47365
X72246Y46864
X72691Y46364
X74215Y46626
X75231Y46364
X77136Y45866
X78025Y45957
X77136Y46864
X78025Y47862
X79295Y47227
X80565Y46592
X81835Y45957
X83105Y45322
X84375Y44687
X83105Y43417
X81835Y44052
X80565Y44687
X79295Y45322
X78025Y44052
X79295Y43417
X80565Y42782
X81835Y42147
X83105Y41512
X84375Y40877
X83105Y39607
X81835Y40242
X80565Y40877
X79613Y39925
X80565Y38972
X81835Y38337
X80565Y37067
X78660Y37004
X77390Y38337
X77390Y39925
X77390Y41512
X78025Y42147
X79295Y41512
X74215Y42465
X72945Y42181
X72633Y40865
X72252Y40364
X72633Y39366
X72252Y38866
X72633Y37865
X72252Y37365
X73580Y37702
X73580Y36115
X72633Y34865
X72252Y34365
X72633Y33364
X72252Y32864
X72633Y31866
X72252Y31365
X72945Y30116
X74215Y29765
X72633Y28866
X72252Y28365
X72945Y27860
X74215Y27860
X78025Y28177
X79295Y28812
X80565Y29448
X81835Y30082
X83105Y30717
X84375Y31352
X83105Y32622
X81835Y31988
X80565Y31352
X79613Y32305
X80565Y33258
X81835Y33892
X80565Y35162
X79295Y33892
X78025Y35226
X77390Y33892
X77390Y32305
X77390Y30717
X78025Y30082
X79295Y30717
X81835Y28177
X80565Y27543
X81835Y26272
X80565Y25637
X79295Y25002
X78025Y24367
X79295Y23098
X78025Y22463
X77136Y22366
X75231Y22864
X75231Y21866
X72945Y22859
X71929Y21866
X72945Y24050
X74215Y24050
X78025Y26272
X79295Y26908
X81835Y24367
X80565Y23733
X81835Y22463
X80565Y21828
X79295Y21192
X78025Y20558
X79295Y19288
X80248Y18335
X80565Y19922
X81835Y20558
X83105Y21192
X84375Y21828
X85645Y22463
X86915Y23098
X88185Y23733
X89455Y22463
X90090Y21510
X90090Y19922
X90090Y18335
X88502Y19922
X86915Y19288
X85645Y18652
X84058Y18335
X83105Y19288
X82153Y18335
X84375Y19922
X85645Y20558
X86915Y21192
X88185Y21828
X85645Y24367
X86915Y25002
X85645Y26272
X84375Y25637
X83105Y25002
X84375Y23733
X83105Y23098
X83105Y26908
X84375Y27543
X83105Y28812
X84375Y29448
X73580Y32305
X73580Y33892
X73580Y39925
X72252Y43364
X72633Y43865
X72945Y45005
X74215Y44370
X75228Y49117
X77136Y49115
X77136Y49864
X78025Y49767
X79295Y49132
X80565Y48497
X81835Y47862
X83105Y47227
X84375Y46592
X85645Y47862
X86915Y49132
X85645Y49767
X84375Y50402
X83105Y51037
X81835Y51672
X80565Y52307
X80565Y53895
X82153Y53895
X83422Y53260
X85010Y52943
X86915Y52943
X87868Y53895
X88185Y52307
X86915Y51037
X88185Y50402
X90725Y52943
X91678Y53895
X90725Y56689
X92630Y56689
X93054Y59115
X92554Y59737
X92056Y60118
X91055Y59737
X90555Y60118
X89554Y59737
X89056Y60118
X88055Y59737
X87555Y60118
X87055Y59115
X88556Y59115
X90054Y59115
X91556Y59115
X93555Y60118
X94055Y59737
X94555Y59115
X95805Y58975
X96440Y58340
X97075Y56689
X98345Y56689
X98345Y58340
X100250Y58340
X100250Y56689
X102155Y56689
X103425Y56689
X105330Y56689
X106600Y56689
X105648Y58340
X105056Y58701
X104555Y59737
X104055Y60118
X103054Y59737
X102554Y60118
X102056Y59115
X103555Y59115
X107055Y60115
X108556Y60115
X110054Y60115
X110555Y59115
X109056Y59115
X111304Y57116
X113555Y59356
X113054Y60118
X112056Y60115
X114537Y60880
X115173Y60880
X115173Y62150
X114537Y62150
X116442Y62150
X117078Y62150
X117078Y60880
X116442Y60880
X118955Y60880
X119427Y62023
X120570Y62495
X121713Y62023
X122185Y60880
X121713Y59737
X120570Y59265
X119427Y59737
X118030Y58340
X121840Y55165
X123745Y53895
X123745Y51355
X121586Y50865
X122221Y49366
X123745Y48815
X121586Y47377
X121586Y46361
X121586Y45726
X122157Y44365
X123745Y43735
X122157Y42114
X123745Y41195
X122157Y39864
X122157Y38365
X123745Y38655
X123745Y36115
X122157Y36115
X119358Y34865
X118977Y34365
X119358Y33364
X118977Y32864
X119358Y31866
X118977Y31365
X118665Y30116
X117395Y29448
X117395Y27860
X118685Y27228
X118977Y28365
X119358Y28866
X122157Y30116
X123745Y31035
X122157Y32366
X122157Y33865
X123745Y33575
X118977Y37365
X119358Y37865
X118977Y38866
X119358Y39366
X118977Y40364
X119358Y40865
X118030Y39864
X118030Y38365
X118030Y36115
X118030Y33865
X118030Y32366
X113903Y31035
X112632Y31670
X113268Y32305
X112632Y33575
X111363Y34210
X112315Y35162
X113903Y35226
X113903Y37004
X114304Y38365
X112950Y38337
X112315Y37067
X111680Y37702
X110410Y38972
X111680Y39607
X112950Y40242
X111680Y41512
X112950Y42147
X114304Y42114
X114304Y41365
X114304Y39864
X110410Y40877
X109140Y40242
X107870Y41512
X109140Y42147
X110410Y42782
X111680Y43417
X112950Y44052
X111680Y45322
X110410Y44687
X109140Y44052
X107870Y43417
X106600Y42782
X105330Y44052
X106600Y44687
X107870Y45322
X109140Y45957
X110410Y46592
X111304Y47116
X111304Y48114
X112305Y47616
X114304Y46415
X114304Y45366
X114304Y43865
X117055Y44365
X118050Y44373
X118977Y43364
X119358Y43865
X118685Y42468
X117415Y42468
X123745Y46275
X119681Y50364
X118665Y49371
X116379Y49366
X116379Y50364
X114474Y49864
X109140Y47862
X107870Y47227
X106600Y46592
X105330Y45957
X104060Y45322
X102790Y46592
X104060Y47227
X105330Y47862
X106600Y48497
X107870Y49132
X108505Y50402
X107235Y51672
X106600Y50402
X105330Y49767
X104060Y49132
X102790Y48497
X101520Y47862
X100250Y49132
X99297Y49450
X98662Y50720
X97393Y50085
X96123Y51355
X97393Y51990
X98662Y52625
X98055Y53636
X97555Y54017
X96554Y53636
X96054Y54017
X94853Y53895
X95488Y52625
X99933Y51990
X101520Y52307
X101838Y51355
X102790Y50402
X101520Y49767
X100568Y50720
X103108Y51990
X104060Y51037
X105330Y51672
X104695Y52625
X104555Y53616
X103054Y53616
X101556Y53616
X100054Y53616
X106600Y53578
X114504Y54530
X123745Y58975
X123745Y61515
X123110Y63420
X121205Y64055
X118665Y64055
X116125Y64055
X113585Y64055
X111045Y64055
X111055Y62658
X109554Y62658
X108055Y62658
X106554Y62658
X105056Y62658
X103555Y62658
X102056Y62658
X100555Y62658
X99056Y62658
X97555Y62658
X96054Y62658
X95805Y64055
X94555Y62658
X93054Y62658
X93265Y64055
X91556Y62658
X90054Y62658
X88556Y62658
X87055Y62658
X85556Y62658
X84055Y62658
X82554Y62658
X81055Y62658
X80565Y64055
X83105Y64055
X85645Y64055
X88185Y64055
X90725Y64055
X85010Y59292
X82554Y59115
X82056Y59737
X81556Y60118
X80555Y59356
X81055Y58614
X79554Y59356
X79056Y60118
X78556Y59356
X78055Y60118
X77073Y60880
X76438Y60880
X76438Y62150
X77073Y62150
X75168Y62150
X74532Y62150
X74532Y60880
X75168Y60880
X72655Y60880
X72183Y62023
X71040Y62495
X69897Y62023
X69425Y60880
X69897Y59737
X71040Y59265
X72183Y59737
X73580Y58340
X74088Y56117
X74215Y55546
X74850Y55482
X78055Y54052
X77771Y53054
X79295Y51037
X80565Y50402
X81835Y49767
X83105Y49132
X84375Y48497
X84375Y42782
X83740Y56752
X85010Y56752
X86915Y56752
X88820Y56752
X82470Y57387
X81835Y56752
X80565Y57705
X80054Y60118
X78025Y64055
X75485Y64055
X72945Y64055
X70405Y64055
X68500Y63420
X67865Y61515
X67865Y58975
X98345Y64055
X100885Y64055
X103425Y64055
X105965Y64055
X108505Y64055
X110093Y32940
X108822Y31670
X110093Y31035
X111363Y30400
X112632Y29765
X113268Y28495
X112632Y27860
X111363Y28495
X110093Y29130
X108822Y29765
X107553Y30400
X106282Y29130
X107553Y28495
X108822Y27860
X110093Y27225
X111363Y26590
X112632Y25955
X111363Y24685
X110093Y25320
X108822Y25955
X107553Y26590
X106282Y27225
X105013Y27860
X103743Y26590
X102472Y25955
X101838Y24685
X101203Y24050
X100568Y24685
X99719Y24853
X99557Y25460
X98980Y25955
X98028Y24685
X99297Y24050
X99933Y22780
X99297Y22145
X98345Y21192
X97075Y21828
X98028Y22780
X96757Y23415
X94535Y21192
X93265Y19922
X94535Y19288
X92948Y18335
X92554Y15668
X94055Y15668
X95170Y13890
X95805Y13255
X97055Y13115
X97555Y12493
X98055Y12112
X98556Y13115
X100054Y13115
X100555Y12493
X101055Y12112
X101556Y13115
X103054Y13115
X103555Y12493
X104055Y12112
X105056Y12493
X105556Y12112
X106054Y13115
X104555Y13115
X104555Y15668
X103054Y15668
X101556Y15668
X100054Y15668
X98556Y15668
X97055Y15668
X94055Y13115
X93054Y12493
X93555Y12112
X92554Y13115
X91678Y13890
X91055Y13115
X90054Y12493
X90555Y12112
X89554Y13115
X88820Y13890
X88055Y13115
X87055Y12493
X87555Y12112
X86554Y13529
X85963Y13890
X84055Y12493
X84555Y12112
X83054Y12112
X82554Y12493
X82056Y13115
X80883Y13890
X80555Y15668
X82056Y15668
X83555Y15668
X83555Y13115
X79554Y12115
X78556Y12112
X78055Y12874
X77073Y11350
X76438Y11350
X76438Y10080
X77073Y10080
X75168Y10080
X74532Y10080
X74532Y11350
X75168Y11350
X73580Y13890
X77106Y17700
X80555Y9572
X82056Y9572
X83555Y9572
X85056Y9572
X86554Y9572
X88048Y9572
X89554Y9572
X91055Y9572
X92554Y9572
X94055Y9572
X95556Y9572
X95805Y8175
X97055Y9572
X98556Y9572
X98345Y8175
X100054Y9572
X101556Y9572
X103047Y9572
X104555Y9572
X106054Y9572
X107555Y9572
X109056Y9572
X110555Y9572
X111045Y8175
X108505Y8175
X105965Y8175
X103425Y8175
X100885Y8175
X93265Y8175
X90725Y8175
X88185Y8175
X85645Y8175
X83105Y8175
X80565Y8175
X78025Y8175
X75485Y8175
X72945Y8175
X70405Y8175
X68500Y8810
X88055Y15668
X97075Y18335
X97075Y19922
X98980Y19922
X99615Y20558
X100568Y19605
X101203Y20240
X102155Y19288
X101520Y18652
X103108Y18335
X103108Y20240
X102472Y21510
X101838Y22780
X100568Y21510
X102472Y24050
X103743Y24685
X105013Y24050
X106282Y23415
X107553Y22780
X108822Y22145
X107553Y20875
X106282Y21510
X105013Y22145
X104377Y21510
X103743Y22780
X105013Y20240
X106282Y19605
X106282Y18335
X106054Y15668
X109864Y13128
X111055Y12874
X111556Y12112
X112056Y12874
X112554Y12112
X113054Y12874
X113555Y12112
X114537Y11350
X115173Y11350
X115173Y10080
X114537Y10080
X116442Y10080
X117078Y10080
X117078Y11350
X116442Y11350
X118955Y11350
X119427Y10207
X120570Y9735
X121713Y10207
X122185Y11350
X121713Y12493
X120570Y12965
X119427Y12493
X118030Y13890
X121840Y17065
X120570Y18335
X120570Y20240
X119681Y21365
X118919Y21866
X119681Y22366
X118665Y23733
X118919Y24865
X119681Y25366
X118919Y25866
X117395Y25637
X116379Y25866
X114474Y26364
X113903Y26908
X114474Y25366
X114220Y24050
X114474Y23115
X114474Y22366
X116382Y23113
X113839Y19176
X113555Y18178
X111045Y14525
X113585Y8175
X116125Y8175
X118665Y8175
X121205Y8175
X123110Y8810
X123745Y10715
X123745Y13255
X123745Y18335
X123745Y20875
X123745Y23415
X121840Y24050
X123745Y25955
X123745Y28495
X111363Y32305
X106282Y25320
X107553Y24685
X108822Y24050
X110093Y23415
X105013Y25955
X100568Y25955
X63420Y68499
X63420Y72309
X63420Y76119
X62277Y79802
X62856Y81199
X62277Y82596
X60880Y83175
X60562Y84374
X60562Y86279
X60562Y88184
X62150Y88184
X63420Y88184
X62467Y86279
X62150Y90089
X63420Y90089
X63420Y91994
X62150Y91994
X60880Y91994
X60880Y90089
X60880Y93899
X62150Y93899
X63420Y93899
X63420Y95804
X62150Y95804
X62150Y97709
X63420Y97709
X63420Y99614
X62150Y99614
X62150Y101519
X63420Y101519
X63420Y103424
X62150Y103424
X62150Y105329
X63420Y105329
X63420Y107234
X62150Y107234
X61769Y108591
X60880Y107234
X60245Y105329
X60245Y103424
X60880Y101519
X60880Y99614
X60880Y97074
X55800Y90915
X54997Y91915
X54997Y93914
X52498Y93914
X52498Y91915
X52498Y89665
X52498Y87666
X52498Y85665
X52498Y83666
X52498Y81664
X54997Y79914
X54847Y78659
X55800Y80915
X56752Y78659
X57070Y80564
X57070Y82469
X58904Y81199
X59483Y79802
X58657Y78659
X58904Y76754
X56902Y76754
X54652Y76754
X52902Y76754
X50903Y76754
X48853Y75484
X46948Y76754
X46592Y78659
X46592Y81009
X47862Y80915
X49132Y80915
X49998Y79914
X49132Y82916
X47862Y82916
X46592Y82916
X46592Y84915
X47862Y84915
X49132Y84915
X49132Y86914
X47862Y86914
X46592Y86914
X46592Y88916
X47862Y88916
X49132Y88916
X49132Y90915
X47862Y90915
X47862Y91915
X46592Y91915
X46592Y90915
X45005Y90089
X45005Y88090
X45005Y86597
X45005Y85591
X45005Y84090
X45005Y82591
X44370Y80564
X43100Y79294
X42114Y81141
X42564Y81590
X42564Y82591
X42114Y83089
X42564Y83589
X42114Y84090
X42564Y84590
X42564Y85591
X42564Y86589
X42564Y87590
X42114Y88090
X42564Y88591
X42564Y89589
X42114Y90089
X42564Y90590
X42114Y91090
X42564Y91590
X42564Y92591
X42114Y94039
X40616Y94039
X40616Y92690
X38614Y93691
X38614Y96289
X38614Y97201
X37702Y98344
X37702Y99180
X35861Y101519
X35162Y101519
X33892Y101519
X33892Y100884
X33892Y100249
X31987Y100884
X30717Y101519
X29447Y101519
X28177Y101519
X26907Y101519
X26907Y99614
X28177Y99614
X29447Y99614
X30717Y99614
X30715Y97709
X29645Y96640
X28693Y95687
X27860Y96757
X28812Y97709
X27540Y98344
X26270Y97074
X26905Y95804
X27240Y94135
X25602Y93803
X24365Y93803
X25000Y95804
X23095Y95804
X23095Y97074
X23394Y97836
X23895Y97455
X24395Y97836
X25635Y98344
X22394Y97836
X21896Y97455
X21395Y97836
X20895Y97455
X20395Y97836
X19602Y97074
X18650Y97709
X18050Y96439
X17062Y97392
X16427Y99614
X16427Y102154
X17697Y102789
X16745Y105012
X16430Y107234
X18114Y108989
X18114Y110590
X18114Y112190
X17319Y112591
X17319Y113391
X18114Y114191
X19714Y114191
X20514Y114191
X21510Y113902
X22780Y114537
X21510Y115807
X20514Y116190
X20240Y117077
X19315Y117790
X18114Y117790
X18114Y116190
X19315Y116190
X21510Y117712
X22780Y118347
X21510Y119617
X20240Y118982
X19315Y119789
X18114Y119789
X18114Y122190
X18970Y122157
X20240Y122792
X21510Y123427
X22780Y124062
X21510Y125332
X20240Y124697
X20303Y126538
X19160Y127681
X19160Y128697
X19315Y130191
X20303Y129840
X21510Y131047
X22780Y132317
X21510Y132952
X20514Y132591
X19315Y132591
X18114Y132591
X18114Y134989
X19315Y134989
X20514Y134989
X21510Y134857
X22780Y134222
X22780Y136127
X21715Y137389
X20514Y137389
X19315Y137389
X18114Y137389
X18114Y139789
X19315Y139789
X20514Y139789
X21715Y139789
X22780Y139937
X22780Y138032
X24050Y137397
X25320Y136762
X26590Y136127
X25320Y134857
X24050Y135492
X24050Y133587
X26590Y133904
X28495Y135809
X27860Y137397
X29130Y138667
X27860Y139302
X29130Y140572
X30400Y139937
X31670Y141207
X30400Y141842
X29130Y142477
X27860Y143112
X29130Y144382
X30400Y143747
X31670Y143112
X32940Y142477
X34146Y143683
X32940Y144382
X33892Y145334
X35289Y145652
X35289Y144826
X36940Y144826
X36877Y145652
X38337Y145334
X39290Y144382
X38083Y143683
X39290Y142477
X40560Y143112
X41830Y143747
X43100Y144382
X44370Y145017
X45640Y145652
X46910Y144382
X45640Y143747
X46910Y142477
X45640Y141842
X46910Y140572
X45640Y139937
X46910Y138667
X45640Y138032
X46910Y136762
X45640Y136127
X46910Y134857
X48180Y135492
X48180Y133587
X49450Y134222
X50720Y134857
X51990Y135492
X52914Y134989
X54116Y134989
X54116Y137389
X52914Y137389
X51990Y137397
X50720Y136762
X49450Y136127
X48180Y137397
X49450Y138032
X50720Y138667
X51990Y139302
X52914Y139789
X54116Y139789
X54116Y142190
X52914Y142190
X51715Y142190
X50720Y142477
X49450Y141842
X50720Y140572
X49450Y139937
X48180Y139302
X48180Y141207
X48180Y143112
X49450Y143747
X50720Y144382
X51672Y144382
X52307Y145017
X52307Y145969
X53260Y146287
X54212Y145334
X54212Y147239
X53260Y148192
X52307Y147239
X50865Y146096
X50364Y145715
X49864Y146096
X48180Y145017
X48866Y148690
X48307Y149462
X47364Y148690
X46910Y149462
X45640Y149462
X45640Y151367
X46910Y151049
X46910Y151938
X48307Y151049
X49704Y151049
X49704Y149779
X52307Y149144
X52307Y151684
X52335Y154999
X52846Y155494
X52335Y155990
X51835Y158542
X51334Y158923
X50834Y158542
X50334Y158923
X49836Y158542
X48835Y158542
X48335Y158923
X47834Y158542
X46592Y159304
X45640Y158352
X44687Y159304
X44052Y158352
X42782Y158352
X43737Y160257
X45005Y161844
X45957Y162797
X45114Y163521
X45114Y165019
X45114Y166289
X45114Y167539
X45114Y168791
X45114Y169789
X45114Y171590
X46595Y171227
X47865Y170973
X49114Y171466
X47865Y172497
X46595Y172878
X47865Y174148
X49114Y173465
X49114Y175466
X49998Y176464
X52498Y174714
X52498Y172715
X52498Y170714
X52498Y168715
X52498Y166716
X52498Y164466
X51497Y163465
X49998Y162464
X49998Y164466
X49114Y165466
X47865Y165019
X46595Y165019
X46910Y163749
X47862Y162162
X47862Y160257
X49450Y160257
X51355Y160257
X53260Y160257
X55162Y158987
X55800Y156764
X55800Y154224
X55800Y149144
X58340Y149144
X60880Y149144
X63420Y143790
X62785Y142190
X61769Y141390
X61769Y140590
X62785Y139789
X61769Y138989
X61769Y138189
X62785Y137389
X61769Y136589
X61769Y135789
X62785Y134989
X61769Y134191
X61769Y133391
X62785Y132591
X61769Y131791
X61769Y130991
X62785Y130191
X61769Y129391
X61769Y128591
X62785Y127790
X61769Y126990
X61769Y126190
X63420Y125390
X63420Y124590
X63420Y123391
X62785Y122190
X61769Y121390
X61769Y120590
X62785Y119789
X61769Y118989
X61769Y118189
X61769Y115789
X61769Y114989
X62785Y114191
X61769Y113391
X61769Y112591
X62785Y111791
X61769Y110991
X61769Y110191
X63420Y109139
X63420Y112949
X63420Y118591
X63420Y120991
X61769Y122990
X61769Y123790
X58340Y122187
X58340Y119787
X58340Y117394
X58340Y114186
X58340Y111786
X58340Y107234
X55800Y107234
X52307Y107234
X52307Y104694
X50364Y107742
X49366Y107742
X48815Y106917
X47608Y107234
X46872Y107234
X46120Y107234
X45640Y106599
X45322Y107552
X44052Y106917
X42782Y106917
X41512Y106917
X41512Y105012
X40865Y104519
X40364Y104092
X39366Y104519
X38866Y104092
X37865Y104519
X37364Y104092
X36940Y105012
X36940Y105964
X36940Y106917
X38337Y106917
X38337Y105329
X39925Y105329
X39925Y106917
X42782Y105012
X44052Y105012
X45365Y104092
X45640Y104694
X45640Y105329
X47364Y104186
X47862Y105329
X48866Y104186
X47545Y101519
X47227Y100567
X47227Y99614
X48815Y100249
X49450Y100884
X50085Y98344
X50720Y98344
X51355Y98344
X51037Y96757
X49450Y97709
X49132Y95804
X48180Y97709
X47227Y97709
X47227Y95804
X46592Y93914
X47862Y93914
X45005Y92591
X44687Y94534
X45322Y95804
X45322Y97709
X43417Y97709
X43417Y95804
X41512Y97709
X41512Y99614
X42782Y99614
X44052Y99614
X45322Y99614
X45322Y101519
X44052Y101519
X42782Y101519
X41512Y101519
X34865Y104092
X34365Y104519
X33892Y105329
X32866Y104519
X33364Y104092
X31865Y104092
X31365Y104519
X30717Y105012
X29447Y105012
X28177Y105012
X28177Y106917
X29447Y106917
X30717Y106917
X32305Y106917
X32305Y105329
X33892Y106917
X35289Y106917
X35289Y105964
X35289Y105012
X35289Y110727
X35289Y111552
X34146Y112695
X32940Y111997
X33892Y110727
X32940Y113902
X31670Y113267
X30400Y112632
X29130Y111997
X27860Y111362
X26590Y110727
X25320Y111997
X24050Y111362
X22780Y112632
X21510Y111997
X20557Y111997
X19922Y111362
X19922Y110409
X19922Y109139
X21365Y110282
X21865Y110663
X22366Y110282
X23364Y107689
X23923Y106599
X23923Y105329
X22526Y105329
X22526Y106599
X24865Y107689
X25320Y106599
X25320Y105329
X25320Y104440
X26590Y105012
X26590Y106917
X30400Y110727
X31670Y111362
X29130Y113902
X27860Y113267
X27860Y115172
X29130Y115807
X30400Y116442
X31670Y115172
X30400Y114537
X29130Y117712
X27860Y117077
X27860Y118982
X26590Y118347
X25320Y117712
X24050Y117077
X25320Y115807
X24050Y115172
X25320Y113902
X24050Y113267
X26590Y112632
X26590Y114537
X26590Y116442
X25320Y119617
X24050Y118982
X24050Y120887
X25320Y121522
X26590Y120252
X24050Y122792
X22780Y122157
X21510Y121522
X20240Y120887
X22780Y120252
X22780Y116442
X19714Y112990
X19922Y107234
X19922Y104694
X19894Y101380
X19384Y100884
X19894Y100389
X19732Y95804
X19732Y93914
X19732Y91915
X19732Y89665
X19732Y87666
X19732Y85665
X19732Y83666
X19732Y81664
X17232Y79914
X16430Y78916
X16430Y80915
X15160Y80564
X15160Y78659
X13890Y78024
X12620Y76754
X10397Y76754
X10080Y75484
X8810Y76119
X9953Y79802
X9374Y81199
X9953Y82596
X11350Y83175
X11667Y84374
X11667Y86279
X11667Y88184
X10080Y88184
X8810Y88184
X9762Y86279
X10080Y90089
X8810Y90089
X8810Y91994
X10080Y91994
X11350Y91994
X11350Y90089
X11350Y93899
X10080Y93899
X8810Y93899
X8810Y95804
X10080Y95804
X10080Y97709
X8810Y97709
X8810Y99614
X10080Y99614
X10080Y101519
X8810Y101519
X8810Y103424
X10080Y103424
X10080Y105329
X8810Y105329
X8810Y107234
X10080Y107234
X11350Y107234
X11985Y105329
X11985Y103424
X11350Y101519
X11350Y99614
X11350Y97074
X17232Y93914
X17232Y91915
X16430Y88916
X16430Y86914
X16430Y84915
X16430Y82916
X15160Y82469
X13326Y81199
X12747Y79802
X11350Y79226
X12747Y82596
X13572Y84374
X14842Y85009
X13572Y86279
X15160Y76754
X18017Y76754
X20202Y75484
X22328Y76754
X24327Y76754
X24365Y78659
X25635Y78659
X24365Y79929
X25635Y80691
X24367Y81423
X23097Y80915
X22231Y79914
X23097Y78916
X25635Y82596
X24367Y82916
X23097Y82916
X23097Y84915
X24367Y84788
X25635Y84501
X25635Y86152
X24367Y86533
X23097Y86914
X24367Y88027
X25635Y87549
X25635Y88819
X25635Y90089
X24367Y89805
X23097Y88916
X23097Y90915
X24365Y91860
X25635Y91860
X27116Y91359
X27116Y90089
X27116Y88840
X27116Y87590
X27116Y86589
X27116Y85591
X27116Y84491
X27116Y82591
X27222Y81199
X28492Y79929
X27857Y78342
X28327Y76754
X26328Y76754
X29762Y78659
X30329Y76754
X32305Y78342
X33615Y78840
X34116Y81141
X35614Y81141
X36615Y81141
X38614Y81141
X40115Y81141
X41116Y81141
X41195Y78659
X41195Y76754
X42820Y76754
X44687Y76754
X44687Y78659
X44903Y72309
X42902Y72309
X39010Y76754
X37385Y74214
X35805Y76467
X34210Y76754
X34431Y72944
X34845Y72309
X34431Y71674
X34845Y68499
X37385Y69134
X37385Y70404
X30329Y72309
X28327Y72309
X26328Y72309
X24327Y72309
X22328Y72309
X20202Y69134
X16328Y72309
X14327Y72309
X8810Y72309
X8810Y68499
X21731Y95804
X29666Y92591
X30115Y92091
X29666Y91590
X30115Y90590
X29666Y90089
X29666Y89091
X29666Y88339
X29666Y87590
X29666Y86589
X29666Y85591
X29666Y84590
X29666Y83589
X29666Y82591
X29666Y81839
X32114Y81141
X32114Y84189
X32866Y85939
X33864Y85339
X35315Y86790
X36915Y86790
X38365Y85339
X39114Y86391
X39615Y87590
X39615Y88291
X39615Y88989
X38365Y89840
X38614Y91689
X36915Y88390
X35315Y88390
X33864Y89840
X32114Y89640
X32366Y88791
X32615Y88039
X32866Y87191
X32764Y92441
X32015Y92441
X32114Y94039
X33615Y96289
X33615Y97074
X34616Y97074
X34616Y96289
X31985Y97709
X30115Y94039
X34192Y92441
X40364Y85690
X50903Y72309
X52902Y72309
X54903Y72309
X56902Y72309
X58904Y72309
X60880Y79226
X59483Y82596
X58657Y84374
X57387Y85009
X58657Y86279
X55800Y86914
X55800Y88916
X55800Y84915
X55800Y82916
X48853Y69134
X52307Y109139
X52942Y109774
X53577Y110409
X54116Y111791
X52914Y111791
X51715Y111791
X50514Y111791
X49315Y111791
X48866Y110282
X49864Y110282
X50865Y110282
X50514Y114191
X49450Y114537
X49450Y116442
X50514Y116190
X51715Y116190
X52914Y116190
X54116Y116190
X54116Y117790
X52914Y117790
X51715Y117790
X50720Y117712
X49450Y118347
X50720Y119617
X51715Y119789
X52914Y119789
X54116Y119789
X54116Y122190
X52914Y122190
X51715Y122190
X50720Y121522
X49450Y122157
X50720Y123427
X49450Y124062
X50720Y125332
X51990Y124697
X52914Y124191
X54116Y124191
X54116Y125789
X53260Y125967
X54116Y127790
X53069Y128697
X51926Y129840
X50720Y131047
X51990Y131682
X50720Y132952
X49450Y132317
X51990Y133587
X53260Y132317
X54116Y132591
X53260Y130412
X54116Y130191
X51926Y126538
X48180Y122792
X46910Y121522
X48180Y120887
X46910Y119617
X48180Y118982
X46910Y117712
X48180Y117077
X46910Y115807
X48180Y115172
X46910Y113902
X48180Y113267
X46910Y111997
X48180Y111362
X47618Y110282
X45640Y110727
X45640Y112632
X44370Y113267
X43100Y113902
X41830Y114537
X40560Y115172
X41830Y116442
X43100Y115807
X44370Y115172
X45640Y114537
X45640Y116442
X45640Y118347
X44370Y118982
X43735Y120569
X45640Y120252
X45640Y122474
X42465Y126284
X41830Y125649
X40560Y124379
X39925Y123744
X43100Y117712
X44370Y117077
X40560Y113267
X41830Y112632
X43100Y111997
X44370Y111362
X41830Y110727
X40560Y111362
X39925Y110727
X39290Y111997
X38083Y112695
X36940Y111552
X36940Y110727
X38337Y110727
X39290Y113902
X32305Y123744
X31670Y124379
X30400Y125649
X29765Y126284
X29765Y130094
X30400Y130729
X31670Y131999
X32305Y132634
X26590Y138032
X25320Y138667
X24050Y139302
X25320Y140572
X26590Y139937
X27860Y141207
X26590Y141842
X25320Y142477
X24050Y143112
X25320Y144382
X26590Y143747
X26590Y145652
X27860Y145017
X30400Y145652
X31670Y145017
X32305Y149462
X32305Y151049
X32866Y151732
X33364Y152289
X34365Y151732
X34865Y152289
X35289Y151367
X35289Y150414
X35289Y149462
X33892Y149462
X33892Y151049
X31865Y152289
X31365Y151732
X30717Y151367
X29447Y151367
X28177Y151367
X28177Y149462
X29447Y149462
X30717Y149462
X26907Y148827
X26110Y149144
X25358Y149144
X24621Y149144
X23415Y149462
X22866Y148636
X21865Y148636
X19922Y149144
X18970Y148255
X18017Y147239
X18970Y145652
X19315Y144590
X20514Y144590
X21715Y144590
X22914Y144590
X23364Y146096
X22366Y146096
X21365Y146096
X19922Y147239
X18114Y144590
X18114Y142190
X19315Y142190
X20514Y142190
X21715Y142190
X22914Y142190
X24050Y141207
X24050Y145017
X24611Y146096
X26590Y149779
X26590Y151049
X26590Y151689
X26864Y152319
X24865Y152192
X24367Y151049
X23364Y152192
X24050Y154859
X25114Y156764
X26082Y158034
X26907Y158034
X26907Y156764
X28177Y156764
X29447Y156764
X29447Y158034
X30400Y158034
X31035Y157717
X31035Y157082
X31670Y156764
X31670Y158034
X33575Y159939
X34400Y158669
X34400Y157907
X34400Y157145
X36115Y157940
X38020Y159304
X38614Y159640
X38114Y160041
X39290Y158669
X40369Y157082
X40877Y156447
X41322Y155812
X40560Y154859
X39595Y155494
X38985Y155494
X38655Y154859
X38655Y156129
X39925Y156129
X42782Y156764
X44052Y156764
X45322Y156764
X45322Y154859
X44052Y154859
X42782Y154859
X40865Y151732
X41512Y151367
X42782Y151367
X44052Y151367
X44052Y149462
X42782Y149462
X41512Y149462
X39925Y149462
X39925Y151049
X39366Y151732
X38866Y152289
X37865Y151732
X37364Y152289
X36940Y151367
X36940Y150414
X36940Y149462
X38337Y149462
X38337Y151049
X40364Y152289
X37067Y154859
X36369Y154859
X32622Y154859
X30717Y154859
X29447Y154859
X28177Y154859
X26907Y154859
X28177Y158034
X29130Y159939
X27860Y161209
X26907Y159939
X25637Y161209
X24685Y160257
X24050Y159304
X23415Y158669
X22780Y159304
X22145Y158669
X21510Y157399
X20875Y156764
X20875Y158034
X22145Y156764
X20875Y155367
X20557Y160574
X22145Y160574
X22231Y162464
X23732Y162479
X22231Y164466
X23097Y165466
X24367Y165466
X25637Y165715
X25637Y167465
X24367Y167465
X23097Y167465
X23097Y169464
X24367Y169464
X25637Y169464
X25637Y171466
X24367Y171466
X23097Y171466
X23097Y173465
X24367Y173465
X25637Y173465
X25637Y175370
X25637Y176449
X24367Y175466
X23097Y175466
X22231Y176464
X19732Y174714
X19732Y172715
X19732Y170714
X19732Y168715
X19732Y166716
X19732Y164466
X20733Y163465
X17232Y162464
X17232Y164466
X11350Y159304
X11350Y156764
X11350Y149195
X13890Y149195
X16430Y149144
X13890Y144064
X13890Y142187
X13890Y139787
X13890Y137387
X13890Y134986
X13890Y132586
X13890Y130191
X13890Y127796
X10461Y128591
X10461Y129391
X9445Y130191
X10461Y130991
X10461Y131791
X9445Y132591
X10461Y133391
X10461Y134191
X9445Y134989
X10461Y135789
X10461Y136589
X9445Y137389
X10461Y138189
X10461Y138989
X9445Y139789
X10461Y140590
X10461Y141390
X9445Y142190
X10461Y142990
X10461Y143790
X9445Y144590
X8810Y145390
X18114Y130191
X18114Y126813
X18970Y125967
X18114Y124590
X18970Y124062
X13890Y122195
X13890Y119795
X13890Y117394
X13890Y114118
X13890Y112987
X13890Y111387
X10461Y110991
X10461Y111791
X9445Y114191
X8810Y113114
X8810Y111115
X8810Y109139
X10080Y109139
X13890Y107234
X10461Y114989
X10461Y115789
X10461Y118189
X10461Y118989
X9445Y119789
X10461Y120590
X10461Y121390
X9445Y122190
X10461Y122990
X10461Y123790
X8810Y123391
X8810Y124590
X8784Y125390
X9445Y127790
X10461Y126990
X10461Y126190
X8810Y120991
X8810Y118591
X30115Y162340
X29666Y162789
X29666Y163790
X29666Y164791
X29666Y165789
X30115Y166289
X29666Y166790
X29666Y167790
X30115Y168291
X29666Y168791
X29666Y169789
X29666Y170790
X29666Y171791
X30115Y172291
X29666Y172789
X30115Y173289
X29666Y173790
X30115Y175240
X29130Y177084
X27860Y175814
X27225Y174041
X27225Y172291
X27225Y170790
X27225Y169782
X27225Y168291
X27225Y166289
X27225Y164290
X26590Y162479
X25320Y163749
X31614Y163691
X31614Y162340
X33892Y162797
X34365Y164440
X33864Y166541
X35315Y167991
X35315Y169591
X33864Y171039
X33115Y169990
X32615Y168791
X32615Y168090
X32615Y167389
X31865Y170691
X33615Y175240
X35614Y175240
X36615Y175240
X38365Y175240
X40115Y175240
X40115Y172190
X39366Y170440
X38365Y171039
X36915Y169591
X36915Y167991
X38365Y166541
X39366Y169190
X39615Y168339
X39864Y167590
X40115Y166739
X42114Y165789
X42564Y166289
X42564Y167290
X42564Y168039
X42564Y168791
X42564Y169789
X42564Y170790
X42564Y173790
X43737Y176449
X46910Y176449
X46595Y169581
X47865Y169322
X49114Y169464
X49114Y167465
X47865Y167465
X46595Y168060
X46595Y166541
X42564Y164791
X42114Y162340
X40115Y162340
X38972Y163015
X39366Y163940
X40115Y163940
X37116Y164440
X45640Y160257
X54997Y162464
X54997Y164466
X60880Y159304
X60880Y156764
X58340Y143386
X58340Y139787
X58340Y137387
X58340Y134986
X58340Y133003
X58340Y130201
X58340Y127790
X49450Y120252
X51715Y114191
X52914Y114191
X54116Y114191
X42465Y130094
X41830Y130729
X40560Y131999
X39925Y132634
X44370Y137397
X43100Y138667
X44370Y139302
X43100Y140572
X41830Y139937
X40560Y141207
X41830Y141842
X43100Y142477
X44370Y143112
X44370Y141207
X41830Y145652
X40560Y145017
X60880Y173206
X59483Y173782
X58904Y175179
X59483Y176576
X60880Y177155
X62277Y176576
X62856Y175179
X62277Y173782
X54997Y176464
X17232Y176464
X15477Y175154
X13326Y175179
X12747Y173782
X11350Y173206
X9953Y173782
X9374Y175179
X9953Y176576
X11350Y177155
X12747Y176576
X121968Y69643
X122547Y71040
X121968Y72437
X120571Y73016
X119174Y72437
X118595Y71040
X119174Y69643
X120571Y69064
X119301Y77390
X119301Y78660
X120571Y78025
X121841Y78025
X123111Y78660
X123111Y77390
X123428Y80565
X118983Y80883
X118666Y81518
X115491Y83105
X114221Y83105
X114856Y81835
X114856Y80565
X115491Y79295
X114221Y79295
X113586Y78025
X111681Y79295
X112316Y80700
X111046Y81200
X113586Y75485
X105966Y75485
X105966Y78025
X98346Y78025
X98346Y75485
X95488Y83740
X95171Y84248
X94536Y84883
X93266Y86915
X92504Y87550
X91996Y88185
X92313Y89773
X92313Y90725
X92316Y91678
X89905Y92445
X87551Y91678
X87551Y90725
X87551Y89773
X88503Y86598
X89456Y86915
X90408Y86915
X85455Y82470
X83741Y83740
X83423Y86580
X84376Y86598
X83741Y90408
X84376Y91043
X85646Y95805
X85646Y97075
X87233Y97075
X88503Y97075
X86281Y102155
X86281Y104695
X87551Y107870
X90091Y107870
X91678Y107108
X92186Y108378
X91869Y111680
X92631Y111680
X90091Y117395
X87551Y117395
X87551Y113219
X81836Y113585
X81836Y114855
X82471Y118030
X81201Y118030
X77391Y117629
X77391Y120029
X74216Y119229
X74216Y118429
X73581Y117629
X74216Y116829
X74216Y116031
X72946Y116031
X72946Y116829
X72946Y118429
X72946Y119229
X73581Y120029
X74216Y120829
X74216Y121629
X73581Y122430
X74216Y123230
X74216Y124030
X73581Y124830
X74216Y125630
X74216Y126430
X73581Y127230
X74216Y128030
X74216Y128830
X73581Y129630
X74216Y130431
X74216Y131231
X73581Y132031
X74216Y132831
X74216Y133631
X72946Y133631
X72946Y132831
X72946Y131231
X72946Y130431
X72946Y128830
X72946Y128030
X72946Y126430
X72946Y125630
X72946Y124030
X72946Y123230
X72946Y121629
X72946Y120829
X69771Y120029
X69771Y117629
X69199Y122430
X69771Y124830
X69771Y127230
X69771Y129630
X69771Y132031
X69898Y134431
X77264Y134431
X77391Y132031
X77391Y129630
X77391Y127230
X77391Y124830
X81201Y127555
X82471Y127555
X81836Y132635
X81836Y133905
X82471Y137080
X81201Y137080
X87551Y136445
X90091Y136445
X91170Y133905
X91678Y133270
X92509Y136763
X92509Y137715
X92509Y138985
X92509Y139938
X96560Y139938
X96568Y138985
X96568Y137715
X96560Y136763
X97584Y136763
X98346Y138985
X98346Y140255
X96758Y143748
X96758Y144700
X99296Y144383
X99298Y145335
X99298Y146288
X101706Y143616
X104061Y144383
X104061Y145335
X104061Y146288
X106918Y145018
X107871Y145653
X105966Y140255
X105966Y138985
X104378Y138985
X103108Y138985
X105331Y133905
X105331Y131365
X104061Y128190
X99298Y128190
X99298Y127370
X99298Y126471
X98727Y128952
X97838Y128952
X95806Y128952
X94536Y128317
X94282Y129778
X97076Y125465
X95554Y123740
X95006Y123110
X96060Y121840
X95552Y121205
X93901Y121523
X93583Y120888
X90091Y126920
X87551Y126920
X87551Y132269
X97711Y131365
X97711Y133905
X98346Y122475
X99108Y121840
X99298Y120888
X101521Y118665
X104061Y118665
X104061Y122841
X109776Y122475
X109776Y121205
X110411Y118030
X109141Y118030
X114221Y117629
X114221Y120029
X117396Y119229
X117396Y118429
X118031Y117629
X118666Y116829
X118666Y116031
X117396Y116031
X117396Y116829
X118666Y118429
X118666Y119229
X118031Y120029
X118666Y120829
X118666Y121629
X118031Y122430
X118666Y123230
X118666Y124030
X118031Y124830
X118666Y125630
X118666Y126430
X118031Y127230
X118666Y128030
X118666Y128830
X118031Y129630
X118666Y130431
X118666Y131231
X118031Y132031
X117396Y131231
X117396Y130431
X117396Y128830
X117396Y128030
X117396Y126430
X117396Y125630
X117396Y124030
X117396Y123230
X117396Y121629
X117396Y120829
X114221Y124830
X114221Y127230
X114221Y129630
X110982Y129714
X110411Y127555
X109141Y127555
X114221Y136031
X117396Y136831
X117396Y137629
X118666Y136031
X117396Y135231
X121841Y135231
X121841Y136831
X121841Y137629
X121841Y129630
X121841Y127230
X121841Y124830
X122412Y122430
X121841Y120029
X121841Y117629
X118666Y113631
X118666Y112831
X118031Y112031
X117396Y112831
X117396Y113631
X117396Y111231
X117396Y110431
X118031Y109630
X118666Y110431
X118666Y111231
X118666Y108830
X118666Y108030
X118031Y107230
X117396Y108030
X117396Y108830
X117396Y105630
X117396Y104830
X118031Y104030
X118666Y103230
X118666Y102430
X118031Y101629
X118666Y100829
X118666Y100029
X117396Y100029
X117396Y99229
X117396Y98429
X118666Y98429
X117396Y100829
X117396Y102430
X117396Y103230
X118666Y104830
X118666Y105630
X121841Y104030
X121841Y101629
X122793Y107870
X121841Y109630
X121841Y112031
X114221Y112031
X114221Y109630
X114221Y107230
X114221Y104030
X114221Y101629
X110411Y98980
X109141Y98980
X109776Y102155
X109776Y103425
X110411Y108505
X109141Y108505
X104061Y109140
X101521Y109140
X104061Y103791
X100632Y103291
X100124Y102790
X101521Y99615
X104061Y99615
X110411Y90725
X102270Y90090
X101770Y89773
X101269Y90090
X100769Y89773
X100271Y90090
X94853Y99298
X93266Y97075
X93266Y95805
X93901Y102155
X93901Y104695
X82471Y108505
X81201Y108505
X77391Y109630
X77391Y112031
X74216Y112831
X74216Y113631
X72946Y113631
X72946Y112831
X73581Y112031
X74216Y111231
X74216Y110431
X73581Y109630
X74216Y108830
X74216Y108030
X73581Y107230
X72946Y108030
X72946Y108830
X72946Y110431
X72946Y111231
X69771Y112031
X69771Y109630
X69771Y107230
X69771Y104030
X69771Y100029
X72946Y100829
X72946Y101629
X72946Y102430
X72946Y103230
X73581Y104030
X74216Y103230
X74216Y102430
X74216Y101629
X74216Y100829
X73581Y100029
X74216Y104830
X74216Y105630
X72946Y105630
X72946Y104830
X77391Y104030
X77391Y100029
X77391Y83105
X76121Y83105
X76756Y81835
X76756Y80565
X77391Y79295
X76121Y79295
X76756Y78025
X76883Y77390
X79296Y81200
X80185Y81200
X79296Y82470
X83106Y78025
X83106Y75485
X90726Y75485
X90726Y78025
X73017Y71040
X72438Y72437
X71041Y73016
X69644Y72437
X69065Y71040
X69644Y69643
X71041Y69064
X72438Y69643
X68501Y74850
X68501Y77390
X68501Y78660
X69771Y78025
X71041Y78025
X72311Y78660
X72311Y77390
X121841Y86915
X93266Y145970
X91340Y145970
X90840Y146288
X90340Y145970
X89839Y146288
X89339Y145970
X88186Y152320
X87868Y153273
X88193Y154543
X88844Y154543
X87543Y154543
X86893Y154543
X85011Y154543
X83106Y154543
X83106Y160258
X85011Y160258
X85646Y160258
X86893Y160258
X87543Y160258
X88193Y160258
X88844Y160258
X87551Y161528
X87551Y162163
X88186Y162163
X89138Y162163
X89138Y162798
X86598Y164385
X85963Y164385
X85328Y164385
X84058Y164385
X82788Y162798
X81518Y162798
X81518Y162163
X80566Y162163
X79931Y162163
X79931Y161528
X78978Y164385
X78343Y164385
X77708Y164385
X76438Y164385
X78026Y165973
X74851Y160258
X72438Y163623
X73017Y165020
X72438Y166417
X71041Y166996
X69644Y166417
X69065Y165020
X69644Y163623
X71041Y163044
X75803Y157400
X85646Y165973
X91361Y159115
X91996Y157400
X90726Y157400
X92504Y154741
X91996Y154225
X94218Y153273
X95171Y155495
X93901Y156765
X93901Y158035
X95806Y159940
X97711Y158035
X97711Y156765
X96441Y155495
X100530Y159623
X104061Y163750
X107759Y161210
X108310Y160530
X108859Y161210
X109410Y160530
X109961Y161210
X110510Y160530
X111061Y161210
X111610Y160530
X112161Y161210
X112709Y160530
X113261Y161210
X113809Y160530
X114360Y161210
X114909Y160530
X115460Y161210
X114759Y157273
X117713Y156130
X119936Y157400
X120571Y158873
X120571Y160575
X119936Y161210
X120571Y163044
X119174Y163623
X118595Y165020
X119174Y166417
X120571Y166996
X121968Y166417
X122547Y165020
X121968Y163623
X122476Y159940
X123111Y158035
X108760Y157273
X107871Y152308
X104061Y155495
X101838Y152308
X102156Y151685
X73045Y172105
X73045Y173375
X73045Y174645
X73045Y175915
X73045Y177185
X73045Y178455
X73045Y179725
X73045Y180995
X73045Y182265
X73045Y183535
X71775Y183535
X71775Y182265
X71775Y180995
X71775Y179725
X71775Y178455
X71775Y177185
X71775Y175915
X70505Y175915
X70505Y177185
X70505Y178455
X70505Y179725
X70505Y180995
X70505Y182265
X70505Y183535
X69235Y183535
X69235Y182265
X69235Y180995
X69235Y179725
X69235Y178455
X69235Y177185
X69235Y175915
X67965Y175915
X67965Y177185
X67965Y178455
X67965Y179725
X67965Y180995
X67965Y182265
X67965Y183535
X66695Y183535
X66695Y182265
X65425Y182265
X65425Y183535
X64155Y183535
X64155Y182265
X62885Y182265
X62885Y183535
X61615Y183535
X60345Y183535
X60345Y182265
X61615Y182265
X59075Y182265
X59075Y183535
X57805Y183535
X57805Y182265
X56535Y182265
X56535Y183535
X55265Y183535
X55265Y182265
X53995Y182265
X53995Y183535
X52725Y183535
X52725Y182265
X51455Y182265
X51455Y183535
X50185Y183535
X50185Y182265
X48915Y182265
X48915Y183535
X47645Y183535
X47645Y182265
X46375Y182265
X46375Y183535
X45105Y183535
X45105Y182265
X43835Y182265
X43835Y183535
X42565Y183535
X41295Y183535
X41295Y182265
X42565Y182265
X40025Y182265
X40025Y183535
X38755Y183535
X38755Y182265
X37485Y182265
X37485Y183535
X36215Y183535
X36215Y182265
X34945Y182265
X34945Y183535
X33675Y183535
X33675Y182265
X32405Y182265
X32405Y183535
X31135Y183535
X31135Y182265
X29865Y182265
X29865Y183535
X28595Y183535
X28595Y182265
X27325Y182265
X27325Y183535
X26055Y183535
X26055Y182265
X24785Y182265
X24785Y183535
X23515Y183535
X22245Y183535
X22245Y182265
X23515Y182265
X20975Y182265
X20975Y183535
X19705Y183535
X19705Y182265
X18435Y182265
X18435Y183535
X17165Y183535
X17165Y182265
X15895Y182265
X15895Y183535
X14625Y183535
X14625Y182265
X13355Y182265
X13355Y183535
X12085Y183535
X12085Y182265
X10815Y182265
X10180Y182595
X10180Y183205
X9545Y182900
X9545Y183535
X9545Y182265
X10815Y183535
X74315Y183535
X74315Y182265
X74315Y180995
X74315Y179725
X74315Y178455
X74315Y177185
X74315Y175915
X74315Y174645
X74315Y173375
X74315Y172105
X78125Y172105
X78125Y173375
X78125Y174645
X78125Y175915
X78125Y177185
X78125Y178455
X78125Y179725
X78125Y180995
X78125Y182265
X78125Y183535
X76855Y183535
X76855Y182265
X76855Y180995
X76855Y179725
X76855Y178455
X75585Y178455
X75585Y179725
X75585Y180995
X75585Y182265
X75585Y183535
X79395Y183535
X80665Y183535
X80665Y182265
X80665Y180995
X79395Y180995
X79395Y182265
X79395Y179725
X80665Y179725
X80665Y178455
X80665Y177185
X79395Y177185
X79395Y178455
X79395Y175915
X80665Y175915
X81935Y175915
X81935Y177185
X81935Y178455
X81935Y179725
X81935Y180995
X83205Y180995
X83205Y182265
X83205Y183535
X81935Y183535
X84475Y183535
X84475Y182265
X84475Y180995
X84475Y179725
X84475Y178455
X84475Y177185
X84475Y175915
X83205Y175915
X83205Y177185
X83205Y178455
X83205Y179725
X85745Y179725
X85745Y178455
X85745Y177185
X85745Y175915
X85745Y174645
X85745Y173375
X85745Y172105
X87015Y172105
X87015Y173375
X87015Y174645
X87015Y175915
X87015Y177185
X87015Y178455
X87015Y179725
X87015Y180995
X87015Y182265
X87015Y183535
X85745Y183535
X85745Y182265
X85745Y180995
X88285Y180995
X88285Y182265
X88285Y183535
X89555Y183535
X89555Y182265
X89555Y180995
X89555Y179725
X89555Y178455
X88285Y178455
X88285Y179725
X90825Y179725
X90825Y178455
X90825Y177185
X90825Y175915
X90825Y174645
X90825Y173375
X90825Y172105
X92095Y172105
X92095Y173375
X92095Y174645
X92095Y175915
X92095Y177185
X92095Y178455
X92095Y179725
X92095Y180995
X92095Y182265
X92095Y183535
X90825Y183535
X90825Y182265
X90825Y180995
X93365Y180995
X93365Y182265
X93365Y183535
X94635Y183535
X94635Y182265
X94635Y180995
X94635Y179725
X94635Y178455
X94635Y177185
X94635Y175915
X93365Y175915
X93365Y177185
X93365Y178455
X93365Y179725
X95905Y179725
X95905Y178455
X95905Y177185
X95905Y175915
X97175Y175915
X97175Y177185
X97175Y178455
X97175Y179725
X97175Y180995
X97175Y182265
X97175Y183535
X95905Y183535
X95905Y182265
X95905Y180995
X98445Y180995
X99715Y180995
X99715Y182265
X98445Y182265
X98445Y183535
X99715Y183535
X100985Y183535
X100985Y182265
X100985Y180995
X100985Y179725
X100985Y178455
X100985Y177185
X100985Y175915
X100985Y174645
X100985Y173375
X100985Y172105
X102255Y172105
X102255Y173375
X102255Y174645
X102255Y175915
X102255Y177185
X102255Y178455
X102255Y179725
X102255Y180995
X102255Y182265
X102255Y183535
X103525Y183535
X103525Y182265
X103525Y180995
X103525Y179725
X103525Y178455
X104795Y178455
X104795Y179725
X104795Y180995
X104795Y182265
X104795Y183535
X106065Y183535
X106065Y182265
X106065Y180995
X106065Y179725
X106065Y178455
X106065Y177185
X106065Y175915
X106065Y174645
X106065Y173375
X106065Y172105
X107335Y172105
X107335Y173375
X107335Y174645
X107335Y175915
X107335Y177185
X107335Y178455
X107335Y179725
X107335Y180995
X107335Y182265
X107335Y183535
X108605Y183535
X108605Y182265
X108605Y180995
X108605Y179725
X108605Y178455
X108605Y177185
X108605Y175915
X109875Y175915
X109875Y177185
X109875Y178455
X109875Y179725
X109875Y180995
X109875Y182265
X109875Y183535
X111145Y183535
X112415Y183535
X112415Y182265
X112415Y180995
X112415Y179725
X112415Y178455
X112415Y177185
X112415Y175915
X111145Y175915
X111145Y177185
X111145Y178455
X111145Y179725
X111145Y180995
X113685Y180995
X113685Y182265
X113685Y183535
X114955Y183535
X114955Y182265
X114955Y180995
X114955Y179725
X114955Y178455
X114955Y177185
X114955Y175915
X114955Y174645
X114955Y173375
X114955Y172105
X113685Y172105
X113685Y173375
X113685Y174645
X113685Y175915
X113685Y177185
X113685Y178455
X113685Y179725
X116225Y179725
X116225Y178455
X117495Y178455
X118765Y178455
X118765Y177185
X118765Y175915
X118765Y174645
X118765Y173375
X118765Y172105
X120035Y172105
X120035Y173375
X120035Y174645
X120035Y175915
X120035Y177185
X120035Y178455
X120035Y179725
X120035Y180995
X120035Y182265
X120035Y183535
X118765Y183535
X117495Y183535
X117495Y182265
X117495Y180995
X118765Y180995
X118765Y182265
X118765Y179725
X117495Y179725
X116225Y180995
X116225Y182265
X116225Y183535
X121305Y183535
X121305Y182265
X121305Y180995
X121305Y179725
X121305Y178455
X121305Y177185
X121305Y175915
X122575Y175915
X122575Y177185
X122575Y178455
X122575Y179725
X122575Y180995
X123845Y180995
X123845Y182265
X123845Y183535
X122575Y183535
X123845Y179725
X125115Y178455
X125115Y177185
X125115Y175915
X123845Y175915
X123845Y177185
X126385Y177185
X126385Y178455
X127655Y178455
X128925Y178455
X128925Y177185
X128925Y175915
X128925Y174645
X128925Y173375
X128925Y172105
X128925Y170835
X128925Y169565
X128925Y168295
X128925Y167025
X128925Y165755
X128925Y164485
X128925Y163215
X128925Y161945
X128925Y160675
X128925Y159405
X128925Y158135
X128925Y156865
X128925Y155595
X128925Y154325
X128925Y153055
X128925Y151785
X128925Y150515
X128925Y149245
X128925Y147975
X128925Y146705
X128925Y145435
X128925Y144165
X128925Y142895
X128925Y141625
X128925Y140355
X128925Y139085
X128925Y137815
X128925Y136545
X128925Y135275
X128925Y134005
X128925Y132735
X128925Y131465
X128925Y130195
X128925Y128925
X128925Y127655
X128925Y126385
X128925Y125115
X128925Y123845
X128925Y122575
X128925Y121305
X128925Y120035
X128925Y118765
X128925Y117495
X128925Y116225
X128925Y114955
X128925Y113685
X128925Y112415
X128925Y111145
X128925Y109875
X128925Y108605
X128925Y107335
X128925Y106065
X128925Y104795
X128925Y103525
X128925Y102255
X128925Y100985
X128925Y99715
X128925Y98445
X128925Y97175
X128925Y95905
X128925Y94635
X128925Y93365
X128925Y92095
X128925Y90825
X128925Y89555
X128925Y88285
X128925Y87015
X128925Y85745
X128925Y84475
X128925Y83205
X128925Y81935
X128925Y80665
X128925Y79395
X128925Y78125
X128925Y76855
X128925Y75585
X128925Y74315
X128925Y73045
X128925Y71775
X128925Y70505
X128925Y69235
X128925Y67965
X128925Y66695
X128925Y65425
X128925Y64155
X128925Y62885
X128925Y61615
X128925Y60345
X128925Y59075
X128925Y57805
X128925Y56535
X128925Y55265
X128925Y53995
X128925Y52725
X128925Y51455
X128925Y50185
X128925Y48915
X128925Y47645
X128925Y46375
X128925Y45105
X128925Y43835
X128925Y42565
X128925Y41295
X128925Y40025
X128925Y38755
X128925Y37485
X128925Y36215
X128925Y34945
X128925Y33675
X128925Y32405
X128925Y31135
X128925Y29865
X128925Y28595
X128925Y27325
X128925Y26055
X128925Y24785
X128925Y23515
X128925Y22245
X128925Y20975
X128925Y19705
X128925Y18435
X128925Y17165
X128925Y15895
X128925Y14625
X128925Y13355
X128925Y12085
X128925Y10815
X128595Y10180
X127985Y10180
X128290Y9545
X127655Y9545
X127655Y10815
X127655Y12085
X127655Y13355
X127655Y14625
X127655Y15895
X127655Y17165
X127655Y18435
X127655Y19705
X127655Y20975
X127655Y22245
X127655Y23515
X127655Y24785
X127655Y26055
X127655Y27325
X127655Y28595
X127655Y29865
X127655Y31135
X127655Y32405
X127655Y33675
X127655Y34945
X127655Y36215
X127655Y37485
X127655Y38755
X127655Y40025
X127655Y41295
X127655Y42565
X127655Y43835
X127655Y45105
X127655Y46375
X127655Y47645
X127655Y48915
X127655Y50185
X127655Y51455
X127655Y52725
X127655Y53995
X127655Y55265
X127655Y56535
X127655Y57805
X127655Y59075
X127655Y60345
X127655Y61615
X127655Y62885
X127655Y64155
X127655Y65425
X127655Y66695
X127655Y67965
X127655Y69235
X127655Y70505
X127655Y71775
X127655Y73045
X127655Y74315
X127655Y75585
X127655Y76855
X127655Y78125
X127655Y79395
X127655Y80665
X127655Y81935
X127655Y83205
X127655Y84475
X127655Y85745
X127655Y87015
X127655Y88285
X127655Y89555
X127655Y90825
X127655Y92095
X127655Y93365
X127655Y94635
X127655Y95905
X127655Y97175
X127655Y98445
X127655Y99715
X127655Y100985
X127655Y102255
X127655Y103525
X127655Y104795
X127655Y106065
X127655Y107335
X127655Y108605
X127655Y109875
X127655Y111145
X127655Y112415
X127655Y113685
X127655Y114955
X127655Y116225
X127655Y117495
X127655Y118765
X127655Y120035
X127655Y121305
X127655Y122575
X127655Y123845
X127655Y125115
X127655Y126385
X127655Y127655
X127655Y128925
X127655Y130195
X127655Y131465
X127655Y132735
X127655Y134005
X127655Y135275
X127655Y136545
X127655Y137815
X127655Y139085
X127655Y140355
X127655Y141625
X127655Y142895
X127655Y144165
X127655Y145435
X127655Y146705
X127655Y147975
X127655Y149245
X127655Y150515
X127655Y151785
X127655Y153055
X127655Y154325
X127655Y155595
X127655Y156865
X127655Y158135
X127655Y159405
X127655Y160675
X127655Y161945
X127655Y163215
X127655Y164485
X127655Y165755
X127655Y167025
X127655Y168295
X127655Y169565
X127655Y170835
X127655Y172105
X127655Y173375
X127655Y174645
X127655Y175915
X126385Y175915
X99715Y175915
X98445Y175915
X98445Y177185
X99715Y177185
X99715Y178455
X98445Y178455
X98445Y179725
X99715Y179725
X79395Y174645
X79395Y173375
X79395Y172105
X128925Y9545
T09
X120570Y15160
X123110Y15160
X71040Y15160
X68500Y15160
X68500Y57070
X71040Y57070
X120570Y57070
X123110Y57070
X59610Y160574
X59610Y158034
X57070Y158034
X57070Y160574
X15160Y160574
X15160Y158034
X12620Y158034
X12620Y160574
X12620Y98344
X12620Y95804
X15160Y95804
X15160Y98344
X57070Y98344
X57070Y95804
X59610Y95804
X59610Y98344
X78343Y156130
X78343Y158670
X80883Y158670
X80883Y156130
T10
X28495Y120569
X26590Y122474
X43735Y135809
X45640Y133904
X106220Y96631
X106220Y97520
X105331Y97520
X105331Y96631
X104442Y96631
X104442Y97520
X104442Y106156
X105331Y106156
X106220Y106156
X106220Y107045
X105331Y107045
X104442Y107045
X104442Y115681
X105331Y115681
X106220Y115681
X106220Y116570
X105331Y116570
X104442Y116570
X104442Y125206
X105331Y125206
X106220Y125206
X106220Y126095
X105331Y126095
X104442Y126095
X107426Y134286
X108315Y134286
X108315Y135175
X108315Y136064
X107426Y136064
X107426Y135175
X100695Y135175
X100695Y136064
X99806Y136064
X99806Y135175
X99806Y134286
X100695Y134286
X87170Y138541
X87170Y139430
X86281Y139430
X86281Y138541
X85392Y138541
X85392Y139430
X85392Y129905
X86281Y129905
X87170Y129905
X87170Y129016
X86281Y129016
X85392Y129016
X85392Y120380
X86281Y120380
X87170Y120380
X87170Y119491
X86281Y119491
X85392Y119491
X85392Y110855
X86281Y110855
X87170Y110855
X87170Y109966
X86281Y109966
X85392Y109966
X84185Y101774
X84185Y100885
X84185Y99996
X83296Y99996
X83296Y100885
X83296Y101774
X90916Y101774
X91805Y101774
X91805Y100885
X91805Y99996
X90916Y99996
X90916Y100885
X88630Y75104
X88630Y74215
X88630Y73326
X87741Y73326
X87741Y74215
X87741Y75104
X81010Y75104
X81010Y74215
X81010Y73326
X80121Y73326
X80121Y74215
X80121Y75104
X95361Y75104
X96250Y75104
X96250Y74215
X96250Y73326
X95361Y73326
X95361Y74215
X102981Y74215
X103870Y74215
X103870Y75104
X102981Y75104
X102981Y73326
X103870Y73326
X110601Y73326
X111490Y73326
X111490Y74215
X111490Y75104
X110601Y75104
X110601Y74215
T11
X50720Y128189
X36115Y113584
X28365Y94590
X21510Y128189
X36115Y142794
X43864Y161791
X102156Y67865
X98074Y67891
X96804Y67891
X95534Y67891
X89184Y67891
X83741Y81200
X79613Y85645
X73581Y84375
X75486Y95805
X71676Y95805
X86281Y88820
X93901Y92630
X98981Y92630
X94536Y86280
X95806Y82470
X98346Y82470
X100568Y82470
X101521Y82470
X102473Y82470
X113268Y90725
X113268Y93265
X116126Y95805
X119936Y95805
X112951Y112315
X99298Y123428
X99298Y125333
X93583Y122793
X95806Y112950
X97711Y112950
X97711Y110410
X93901Y110410
X93901Y107235
X78661Y123745
X75486Y140255
X78343Y142795
X78343Y145335
X82788Y152320
X87233Y152320
X93266Y153273
X96441Y149145
X97711Y152955
X98981Y154225
X99933Y154225
X100886Y154225
X100886Y152955
X100886Y155899
X99933Y155899
X98981Y155899
X99933Y158988
X104061Y158988
X105966Y158988
X105966Y159940
X105966Y158035
X107871Y156448
X111681Y156448
X111998Y150415
X118031Y151685
X119936Y140255
X116126Y140255
X105331Y147240
X104061Y152955
X100886Y149145
X100886Y164703
X90726Y164703
X74851Y154543
X72311Y158670
X69453Y159623
X71676Y140255
X74851Y67891
T12
X37385Y141524
X38655Y140254
X34845Y141524
X33575Y140254
X24050Y130729
X22780Y129459
X22780Y126919
X24050Y125649
X33575Y116124
X34845Y114854
X37385Y114854
X38655Y116124
X48180Y125649
X49450Y126919
X49450Y129459
X48180Y130729
X73581Y91995
X73581Y144065
X73581Y146605
X93901Y159940
X97711Y159940
X118031Y144065
X118031Y91995
X118031Y89455
T13
X46785Y156995
X53384Y156995
X25444Y99386
X18845Y99386
X53488Y97191
X18731Y159304
X85135Y92224
X78534Y92224
X106474Y143834
X113075Y143834
T14
X18327Y75560
X17326Y73559
X16328Y75560
X15327Y73559
X14327Y75560
X13328Y73559
X12328Y75560
X13328Y71060
X14327Y69061
X15327Y71060
X16328Y69061
X17326Y71060
X18327Y69061
X21327Y71060
X22328Y69061
X23328Y71060
X24327Y69061
X25327Y71060
X26328Y69061
X27326Y71060
X28327Y69061
X29328Y71060
X30329Y69061
X31327Y71060
X31327Y73559
X30329Y75560
X29328Y73559
X28327Y75560
X27326Y73559
X26328Y75560
X25327Y73559
X24327Y75560
X23328Y73559
X22328Y75560
X21327Y73559
X12328Y69061
X40903Y69061
X41903Y71060
X42902Y69061
X43902Y71060
X44903Y69061
X45901Y71060
X46902Y69061
X49902Y71060
X50903Y69061
X51903Y71060
X52902Y69061
X53902Y71060
X54903Y69061
X55901Y71060
X56902Y69061
X57903Y71060
X58904Y69061
X59902Y71060
X59902Y73559
X58904Y75560
X57903Y73559
X56902Y75560
X55901Y73559
X54903Y75560
X53902Y73559
X52902Y75560
X51903Y73559
X50903Y75560
X49902Y73559
X46902Y75560
X45901Y73559
X44903Y75560
X43902Y73559
X42902Y75560
X41903Y73559
X40903Y75560
T15
X58340Y106091
X13890Y106091
X118031Y140131
X118031Y140131
X73581Y140131
X73581Y140131
T16
X18731Y93914
X18731Y91915
X18731Y89914
X18731Y87915
X18731Y85916
X20733Y85916
X20733Y87915
X20733Y89914
X20733Y91915
X20733Y93914
X20733Y83914
X20733Y81916
X20733Y79914
X18731Y79914
X18731Y81916
X18731Y83914
X51497Y83914
X51497Y81916
X51497Y79914
X53499Y79914
X53499Y81916
X53499Y83914
X53499Y85916
X53499Y87915
X53499Y89914
X53499Y91915
X53499Y93914
X51497Y93914
X51497Y91915
X51497Y89914
X51497Y87915
X51497Y85916
X51497Y162464
X51497Y164466
X51497Y166464
X51497Y168466
X51497Y170465
X51497Y172464
X51497Y174465
X51497Y176464
X53499Y176464
X53499Y174465
X53499Y172464
X53499Y170465
X53499Y168466
X53499Y166464
X53499Y164466
X53499Y162464
X20733Y162464
X20733Y164466
X20733Y166464
X20733Y168466
X20733Y170465
X20733Y172464
X20733Y174465
X20733Y176464
X18731Y176464
X18731Y174465
X18731Y172464
X18731Y170465
X18731Y168466
X18731Y166464
X18731Y164466
X18731Y162464
T17
X13890Y167196
X13890Y169195
X60245Y169190
X60245Y167191
T18
X52315Y105964
X19915Y150414
X74851Y150415
X74851Y147875
X74851Y145335
X74851Y142795
X72311Y142795
X72311Y145335
X72311Y147875
X72311Y150415
X72311Y93265
X74851Y93265
X74851Y90725
X74851Y88185
X74851Y85645
X72311Y85645
X72311Y88185
X72311Y90725
X116761Y90725
X119301Y90725
X119301Y93265
X116761Y93265
X116761Y88185
X119301Y88185
X119301Y85645
X116761Y85645
X116761Y142795
X119301Y142795
X119301Y145335
X119301Y147875
X119301Y150415
X116761Y150415
X116761Y147875
X116761Y145335
T19
X13890Y150290
X58340Y150290
X118031Y95930
X118031Y95930
X73581Y95930
X73581Y95930
T20
X57070Y152954
X57070Y155494
X52315Y150414
X57070Y103424
X57070Y100884
X19915Y105964
X15160Y103424
X15160Y100884
X15160Y152954
X15160Y155494
T21
X19678Y72309
X10527Y72309
X39102Y72309
X48253Y72309
T22
X60880Y81199
X11350Y81199
X11350Y175179
X60880Y175179
X71041Y71040
X120571Y71040
X120571Y165020
X71041Y165020
T23
X89456Y149780
X89456Y148510
X90726Y148510
X90726Y149780
X89773Y140255
X89773Y139620
X88821Y137080
X88821Y136445
X85011Y135493
X83741Y135493
X80566Y138668
X80566Y139303
X80566Y129778
X80566Y129143
X83741Y125968
X85011Y125968
X88821Y126920
X88821Y127555
X89773Y130095
X89773Y130730
X89773Y121205
X89773Y120570
X88821Y118030
X88821Y117395
X85011Y116443
X83741Y116443
X80566Y119618
X80566Y120253
X80566Y110728
X80566Y110093
X82471Y104378
X83106Y104378
X85646Y103425
X86281Y103425
X90091Y104378
X90726Y104378
X93266Y103425
X93901Y103425
X88821Y107870
X88821Y108505
X89773Y111045
X89773Y111680
X95171Y117395
X95171Y118665
X96441Y118665
X96441Y117395
X101838Y115490
X101838Y114855
X102791Y118030
X102791Y118665
X106601Y119618
X107871Y119618
X111046Y116443
X111046Y115808
X107871Y110093
X106601Y110093
X102791Y109140
X102791Y108505
X101838Y105965
X101838Y105330
X102791Y99615
X102791Y98980
X101838Y96440
X101838Y95805
X106601Y100568
X107871Y100568
X111046Y97393
X111046Y96758
X111046Y106283
X111046Y106918
X101838Y124380
X101838Y125015
X102791Y127555
X102791Y128190
X101521Y131683
X100886Y131683
X98346Y132635
X97711Y132635
X99933Y140573
X100568Y140573
X104696Y142795
X107553Y140573
X108188Y140573
X110728Y141525
X105966Y132635
X105331Y132635
X108506Y131683
X109141Y131683
X111046Y125968
X111046Y125333
X91678Y95488
X91043Y95488
X86916Y93265
X84058Y95488
X83423Y95488
X80883Y94535
X90726Y84375
X91996Y84375
X91996Y83105
X90726Y83105
X87551Y77708
X86916Y77708
X90091Y76755
X90726Y76755
X91678Y72945
X90091Y71993
X90091Y71358
X94536Y77708
X95171Y77708
X97711Y76755
X98346Y76755
X99298Y72945
X97711Y71993
X97711Y71358
X102156Y77708
X102791Y77708
X105331Y76755
X105966Y76755
X106918Y72945
X105331Y71993
X105331Y71358
X109776Y77708
X110411Y77708
X112951Y76755
X113586Y76755
X112951Y71993
X112951Y71358
X102156Y86280
X102156Y87550
X100886Y87550
X100886Y86280
X84058Y72945
X82471Y71993
X82471Y71358
X82471Y76755
X83106Y76755
X79931Y77708
X79296Y77708
X111061Y165470
T24
X113268Y141525
X111998Y141525
X113268Y147875
X85011Y151431
X82788Y150415
X82788Y147875
X80566Y151431
X78343Y150415
X78343Y147875
X78343Y94535
X79613Y94535
X78343Y88185
X106601Y84629
X108823Y85645
X108823Y88185
X111046Y84629
X113268Y85645
X113268Y88185
M30
