M48
FMAT,2
ICI,OFF
METRIC,TZ,000.000
T01C0.254
T02C0.330
T03C0.350
T04C0.500
T05C1.125
T06C1.224
T07C2.600
T08C0.203
T09C1.016
T10C0.381
T11C0.406
T12C0.599
T13C0.624
T14C0.635
T15C0.701
T16C0.723
T17C0.800
T18C0.914
T19C1.099
T20C1.198
T21C2.148
T22C3.175
T23C0.304
T24C0.355
T25C0.609
%
G90
M71
T01
X8135Y10675
X9695Y11310
X10167Y10167
X11310Y9695
X12453Y10167
X12925Y11310
X12453Y12453
X11310Y12925
X10167Y12453
X8135Y13215
X8135Y15755
X8135Y18295
X8135Y20835
X8135Y23375
X8135Y25915
X11310Y23121
X10802Y22613
X13723Y23502
X15501Y21470
X13469Y19311
X13469Y18041
X15501Y18676
X16860Y18930
X18130Y18930
X19400Y18930
X20670Y18930
X21940Y18295
X23210Y18295
X24480Y18295
X25750Y18295
X27020Y18295
X28290Y18930
X29560Y18295
X30830Y18295
X32100Y18295
X33370Y18295
X34640Y18930
X35910Y18930
X37180Y18295
X38450Y18295
X39720Y18295
X40990Y18295
X42260Y18295
X43530Y18930
X44800Y18295
X46070Y18295
X47340Y18295
X48610Y18930
X49880Y18930
X51150Y18930
X51785Y18930
X52420Y18930
X53690Y18930
X51826Y17406
X51826Y14358
X52824Y14358
X53825Y14358
X53324Y13342
X52326Y13342
X51325Y13342
X50324Y13342
X49824Y13723
X48826Y13342
X48325Y13723
X47325Y13342
X46824Y13723
X46324Y14358
X45826Y13342
X45326Y13723
X44825Y14358
X44325Y13342
X43825Y13723
X43324Y14358
X42824Y13342
X42326Y13723
X41826Y14358
X41325Y13342
X40825Y13723
X40324Y14358
X39824Y13342
X39326Y13723
X38826Y14358
X38325Y13342
X37825Y13723
X37325Y14358
X36824Y13342
X36324Y13723
X35826Y14358
X35326Y13342
X34825Y13723
X34325Y14358
X33825Y13342
X33324Y13723
X32824Y14358
X32326Y13342
X31826Y13723
X31325Y14358
X30825Y13342
X30324Y13723
X29824Y14358
X29326Y13342
X28826Y13723
X28290Y14358
X27825Y13342
X27325Y13723
X26824Y14358
X26324Y13342
X25826Y13723
X25326Y14358
X24825Y13342
X24325Y13723
X23825Y14358
X23324Y13342
X22824Y13723
X22326Y14358
X21826Y13342
X21325Y13723
X20078Y13215
X20825Y10040
X22326Y10040
X23825Y10040
X25326Y10040
X26824Y10040
X25915Y8135
X28455Y8135
X29824Y10040
X31325Y10040
X32824Y10040
X34325Y10040
X35826Y10040
X37325Y10040
X38826Y10040
X40324Y10040
X41826Y10040
X41155Y8135
X38615Y8135
X36075Y8135
X33535Y8135
X30995Y8135
X23375Y8135
X20835Y8135
X19326Y10040
X18295Y8135
X15755Y8135
X13215Y8135
X10675Y8135
X8770Y8770
X11628Y16504
X21940Y20200
X23210Y20200
X24480Y20200
X25750Y20200
X27020Y20200
X29560Y20200
X30830Y20200
X32100Y20200
X33370Y20200
X37180Y20200
X38450Y20200
X39720Y20200
X40990Y20200
X42260Y20200
X44800Y20200
X46070Y20200
X47340Y20200
X57411Y18676
X57411Y18041
X57538Y16771
X61089Y19057
X61729Y19057
X64015Y18295
X64015Y20835
X61729Y22613
X61094Y22613
X60459Y22613
X59824Y22613
X59189Y21470
X57393Y22613
X57393Y23502
X59189Y25915
X59824Y27058
X60459Y27058
X61094Y27058
X61729Y27058
X61729Y27947
X61094Y27947
X64015Y28455
X64015Y30995
X61729Y31503
X61094Y31503
X60459Y31503
X59824Y31503
X59189Y30360
X57393Y31503
X56824Y34460
X55681Y34932
X55209Y36075
X55681Y37218
X56824Y37690
X57967Y37218
X58442Y36075
X57967Y34932
X64015Y36075
X64015Y38615
X64015Y41155
X64015Y43695
X61348Y43949
X61602Y44901
X61602Y45536
X61602Y46172
X61602Y46806
X62110Y47759
X64015Y48775
X64015Y46235
X61348Y42643
X59189Y42361
X59189Y42996
X59189Y41726
X59189Y41091
X58681Y40266
X55887Y41726
X55887Y42361
X55887Y42996
X56928Y44076
X57538Y44076
X58046Y44901
X58046Y45536
X58046Y46172
X58046Y46806
X56230Y48140
X55214Y48140
X54452Y45219
X53728Y43451
X52420Y44330
X51150Y44330
X51150Y45219
X50515Y45219
X49880Y44330
X48610Y44330
X47340Y51950
X46070Y51950
X44800Y51950
X43911Y53855
X42323Y53855
X40990Y53855
X39720Y53855
X38450Y53855
X37180Y53855
X35275Y53855
X33370Y53855
X32100Y53855
X30830Y53855
X29560Y53855
X28290Y53220
X27020Y53855
X25750Y53855
X24480Y53855
X23210Y53855
X21940Y53220
X20670Y53220
X19400Y53220
X18130Y53220
X16860Y53220
X14739Y53474
X14739Y54109
X14739Y55379
X18325Y57792
X19326Y57792
X20324Y57792
X21325Y57792
X21826Y58808
X22326Y58427
X22824Y57792
X23324Y58808
X23825Y58427
X24325Y57792
X24825Y58808
X25326Y58427
X25826Y57792
X26324Y58808
X26824Y58427
X27325Y57792
X27825Y58808
X28325Y58427
X28826Y57792
X29326Y58808
X29824Y58427
X30324Y57792
X30825Y58808
X31325Y58427
X31826Y57792
X32326Y58808
X32824Y58427
X33243Y57792
X33825Y58808
X34325Y58427
X34825Y57792
X35326Y58808
X35826Y58427
X36324Y57792
X36824Y58808
X37325Y58427
X37825Y57792
X38325Y58808
X38826Y58427
X39326Y57792
X39824Y58808
X40324Y58427
X40825Y57792
X41325Y58808
X41826Y58427
X42326Y57792
X42824Y58808
X43324Y58427
X43825Y57792
X44325Y58808
X44825Y58427
X45326Y57792
X45826Y58808
X46324Y58427
X46824Y57792
X47325Y58808
X47825Y58399
X48325Y57792
X48826Y58808
X49326Y58399
X49824Y57792
X50324Y58808
X50825Y58399
X51442Y57792
X51828Y59321
X53324Y59570
X53825Y58808
X52824Y62110
X51325Y62110
X49824Y62110
X48325Y62110
X46824Y62110
X45326Y62110
X46235Y64015
X43695Y64015
X42326Y62110
X40825Y62110
X39326Y62110
X37825Y62110
X36324Y62110
X34825Y62110
X33324Y62110
X31826Y62110
X30324Y62110
X30995Y64015
X33535Y64015
X36075Y64015
X38615Y64015
X41155Y64015
X48775Y64015
X51315Y64015
X53855Y64015
X56395Y64015
X58935Y64015
X60840Y62455
X59697Y61983
X59225Y60840
X59697Y59697
X60840Y59225
X61983Y59697
X62455Y60840
X61983Y61983
X63380Y63380
X61475Y64015
X64015Y61475
X64015Y58935
X64015Y56395
X64015Y53855
X64015Y51315
X61602Y50299
X60205Y52585
X58135Y51632
X58173Y53982
X57665Y54490
X58872Y56136
X55150Y52585
X54515Y53220
X53372Y53220
X51150Y53220
X49880Y53220
X48610Y53220
X47467Y53855
X49189Y54617
X50324Y54617
X45689Y53855
X42260Y51950
X40990Y51950
X39720Y51950
X38450Y51950
X37180Y51950
X33370Y51950
X32100Y51950
X30830Y51950
X29560Y51950
X27020Y51950
X25750Y51950
X24480Y51950
X23210Y51950
X20324Y54744
X19824Y58808
X18826Y58808
X20825Y58808
X21325Y62110
X22824Y62110
X24325Y62110
X25826Y62110
X27325Y62110
X28455Y64015
X25915Y64015
X23375Y64015
X20835Y64015
X18295Y64015
X15755Y64015
X13215Y64015
X11310Y62455
X10167Y61983
X9695Y60840
X10167Y59697
X11310Y59225
X12453Y59697
X12925Y60840
X12453Y61983
X10675Y64015
X8770Y63380
X8135Y61475
X8135Y58935
X8135Y56395
X8135Y53855
X10421Y53093
X11061Y53093
X12961Y50680
X12326Y49537
X11691Y49537
X11056Y49537
X10421Y49537
X10421Y48648
X11056Y48648
X8135Y48775
X8135Y46235
X10421Y45092
X11056Y45092
X11691Y45092
X12326Y45092
X11056Y44203
X10421Y44203
X8135Y43695
X8135Y41155
X10421Y40647
X11056Y40647
X11691Y40647
X12326Y40647
X12961Y41790
X14757Y40647
X13685Y37690
X14828Y37218
X15300Y36075
X14828Y34932
X13685Y34460
X12542Y34932
X12069Y36075
X12542Y37218
X9875Y37345
X9240Y36075
X8135Y36075
X9875Y34805
X9240Y33535
X8135Y33535
X8135Y30995
X10421Y30614
X12453Y30106
X12453Y31122
X13469Y27947
X13469Y26931
X15501Y27439
X16860Y27820
X18130Y27820
X19400Y27820
X20670Y27820
X21940Y27820
X22702Y27820
X23464Y27820
X15519Y25262
X8135Y28455
X8135Y38615
X9240Y38615
X14757Y44203
X14757Y45092
X12961Y46235
X14757Y48648
X14757Y49537
X16860Y44330
X17749Y44330
X18511Y44330
X19273Y44330
X20035Y44330
X21305Y44330
X8135Y51315
X48610Y27820
X49880Y27820
X51150Y27820
X52420Y27820
X53690Y27820
X57393Y27947
X57393Y27058
X61094Y23502
X61729Y23502
X64015Y23375
X64015Y25915
X64015Y33535
X64015Y15755
X64015Y13215
X61983Y12453
X60840Y12925
X59697Y12453
X59225Y11310
X59697Y10167
X60840Y9695
X61983Y10167
X62455Y11310
X64015Y10675
X63380Y8770
X61475Y8135
X58935Y8135
X56395Y8135
X53855Y8135
X51315Y8135
X48775Y8135
X49326Y10040
X47825Y10040
X46324Y10040
X44825Y10040
X43695Y8135
X46235Y8135
X50825Y10040
X62110Y167479
X92424Y142842
X87153Y145890
X84296Y161448
X84296Y162083
X83661Y162083
X82073Y164940
X82073Y165893
X81438Y165893
X80168Y164940
X76676Y162083
X76676Y161448
X76041Y162083
X87788Y164940
X89058Y165893
X89693Y165893
X89693Y164940
T02
X17025Y60840
X39074Y173209
X38325Y173209
X37576Y173209
X36824Y173209
X36075Y173209
X35325Y173209
X34576Y173209
X33824Y173209
X33075Y173209
X33075Y83009
X33824Y83009
X34576Y83009
X35325Y83009
X36075Y83009
X36824Y83009
X37576Y83009
X38325Y83009
X39074Y83009
X103346Y150335
X101441Y128110
X93186Y115410
X77311Y107790
X87788Y85565
X88741Y81120
X77311Y84295
X121761Y132751
T03
X16860Y50680
X16860Y49410
X18130Y49410
X18130Y50680
X19400Y50680
X19400Y49410
X20670Y49410
X20670Y50680
X21940Y50680
X21940Y49410
X23210Y49410
X23210Y50680
X24480Y50680
X24480Y49410
X25750Y49410
X25750Y50680
X27020Y50680
X27020Y49410
X28290Y49410
X28290Y50680
X29560Y50680
X29560Y49410
X30830Y49410
X30830Y50680
X32100Y50680
X32100Y49410
X33370Y49410
X33370Y50680
X34640Y50680
X34640Y49410
X35910Y49410
X35910Y50680
X37180Y50680
X37180Y49410
X38450Y49410
X38450Y50680
X39720Y50680
X39720Y49410
X40990Y49410
X40990Y50680
X42260Y50680
X42260Y49410
X43530Y49410
X43530Y50680
X44800Y50680
X44800Y49410
X46070Y49410
X46070Y50680
X47340Y50680
X47340Y49410
X48610Y49410
X48610Y50680
X49880Y50680
X49880Y49410
X51150Y49410
X51150Y50680
X52420Y50680
X52420Y49410
X52420Y48140
X51150Y48140
X49880Y48140
X48610Y48140
X47340Y48140
X46070Y48140
X44800Y48140
X43530Y48140
X42260Y48140
X40990Y48140
X39720Y48140
X38450Y48140
X37180Y48140
X35910Y48140
X34640Y48140
X33370Y48140
X32100Y48140
X30830Y48140
X29560Y48140
X28290Y48140
X27020Y48140
X25750Y48140
X24480Y48140
X23210Y48140
X21940Y48140
X20670Y48140
X19400Y48140
X18130Y48140
X16860Y48140
X16860Y46870
X18130Y46870
X19400Y46870
X20670Y46870
X21940Y46870
X23210Y46870
X24480Y46870
X25750Y46870
X27020Y46870
X28290Y46870
X29560Y46870
X30830Y46870
X32100Y46870
X33370Y46870
X34640Y46870
X35910Y46870
X37180Y46870
X38450Y46870
X39720Y46870
X40990Y46870
X42260Y46870
X43530Y46870
X44800Y46870
X46070Y46870
X47340Y46870
X48610Y46870
X49880Y46870
X51150Y46870
X52420Y46870
X53690Y46870
X53690Y48140
X53690Y49410
X53690Y50680
X53690Y25280
X52420Y25280
X51150Y25280
X49880Y25280
X48610Y25280
X47340Y25280
X46070Y25280
X44800Y25280
X43530Y25280
X42260Y25280
X40990Y25280
X39720Y25280
X38450Y25280
X37180Y25280
X35910Y25280
X34640Y25280
X33370Y25280
X32100Y25280
X30830Y25280
X29560Y25280
X28290Y25280
X27020Y25280
X25750Y25280
X24480Y25280
X23210Y25280
X21940Y25280
X20670Y25280
X19400Y25280
X18130Y25280
X16860Y25280
X16860Y24010
X18130Y24010
X19400Y24010
X20670Y24010
X20670Y22740
X19400Y22740
X18130Y22740
X16860Y22740
X18130Y21470
X19400Y21470
X20670Y21470
X21940Y21470
X21940Y22740
X23210Y22740
X23210Y21470
X24480Y21470
X24480Y22740
X25750Y22740
X25750Y21470
X27020Y21470
X27020Y22740
X28290Y22740
X28290Y21470
X29560Y21470
X29560Y22740
X30830Y22740
X30830Y21470
X32100Y21470
X32100Y22740
X33370Y22740
X33370Y21470
X34640Y21470
X34640Y22740
X35910Y22740
X35910Y21470
X37180Y21470
X37180Y22740
X38450Y22740
X38450Y21470
X39720Y21470
X39720Y22740
X40990Y22740
X40990Y21470
X42260Y21470
X42260Y22740
X43530Y22740
X43530Y21470
X44800Y21470
X46070Y21470
X46070Y22740
X46070Y24010
X47340Y24010
X48610Y24010
X49880Y24010
X51150Y24010
X52420Y24010
X52420Y22740
X51150Y22740
X49880Y22740
X48610Y22740
X47340Y22740
X47340Y21470
X48610Y21470
X49880Y21470
X51150Y21470
X52420Y21470
X53690Y21470
X53690Y22740
X53690Y24010
X43530Y24010
X42260Y24010
X40990Y24010
X39720Y24010
X38450Y24010
X37180Y24010
X35910Y24010
X34640Y24010
X33370Y24010
X32100Y24010
X30830Y24010
X29560Y24010
X28290Y24010
X27020Y24010
X25750Y24010
X24480Y24010
X23210Y24010
X21940Y24010
T04
X9405Y53855
X62745Y18295
T05
X55275Y13850
X16875Y58300
X117950Y52275
X76525Y58300
X73500Y19875
X114925Y13850
X13850Y150210
X58300Y150210
X117951Y95850
X117951Y95850
X73501Y95850
X73501Y95850
T06
X55275Y58300
X16875Y13850
X117950Y19875
X76525Y13850
X73500Y52275
X114925Y58300
T07
X11310Y11310
X13685Y36075
X11310Y60840
X56824Y36075
X60840Y60840
X60840Y11310
X120490Y60840
X70960Y60840
X70960Y11310
X120490Y11310
T08
X67785Y10675
X69345Y11310
X69817Y10167
X70960Y9695
X72103Y10167
X72575Y11310
X72103Y12453
X70960Y12925
X69817Y12453
X67785Y13215
X69690Y17025
X67785Y18295
X67785Y20835
X69944Y21325
X69944Y22824
X69373Y24076
X67785Y23375
X67785Y25915
X69373Y27825
X67785Y28455
X69373Y30076
X67785Y30995
X69373Y32326
X69373Y33825
X67785Y33535
X67785Y36075
X69373Y36075
X69373Y38325
X69373Y39824
X67785Y38615
X67785Y41155
X69373Y42074
X67785Y43695
X69373Y44965
X67785Y46235
X69373Y48107
X67785Y48775
X69373Y50045
X67785Y51315
X67785Y53855
X69690Y55125
X70960Y54172
X71913Y52267
X72167Y50825
X72611Y50324
X72167Y49824
X72865Y48775
X72611Y47325
X72167Y46824
X72611Y46324
X74135Y46586
X75151Y46324
X77056Y45826
X77945Y45917
X77056Y46824
X77945Y47822
X79215Y47187
X80485Y46552
X81755Y45917
X83025Y45282
X84295Y44647
X83025Y43377
X81755Y44012
X80485Y44647
X79215Y45282
X77945Y44012
X79215Y43377
X80485Y42742
X81755Y42107
X83025Y41472
X84295Y40837
X83025Y39567
X81755Y40202
X80485Y40837
X79532Y39885
X80485Y38932
X81755Y38297
X80485Y37027
X78580Y36964
X77310Y38297
X77310Y39885
X77310Y41472
X77945Y42107
X79215Y41472
X74135Y42425
X72865Y42141
X72553Y40825
X72172Y40324
X72553Y39326
X72172Y38826
X72553Y37825
X72172Y37325
X73500Y37662
X73500Y36075
X72553Y34825
X72172Y34325
X72553Y33324
X72172Y32824
X72553Y31826
X72172Y31325
X72865Y30076
X74135Y29725
X72553Y28826
X72172Y28325
X72865Y27820
X74135Y27820
X77945Y28137
X79215Y28773
X80485Y29407
X81755Y30042
X83025Y30677
X84295Y31312
X83025Y32582
X81755Y31947
X80485Y31312
X79532Y32265
X80485Y33218
X81755Y33852
X80485Y35122
X79215Y33852
X77945Y35186
X77310Y33852
X77310Y32265
X77310Y30677
X77945Y30042
X79215Y30677
X81755Y28137
X80485Y27502
X81755Y26232
X80485Y25597
X79215Y24962
X77945Y24328
X79215Y23057
X77945Y22422
X77056Y22326
X75151Y22824
X75151Y21826
X72865Y22819
X71849Y21826
X72865Y24010
X74135Y24010
X77945Y26232
X79215Y26867
X81755Y24328
X80485Y23693
X81755Y22422
X80485Y21788
X79215Y21152
X77945Y20517
X79215Y19248
X80168Y18295
X80485Y19883
X81755Y20517
X83025Y21152
X84295Y21788
X85565Y22422
X86835Y23057
X88105Y23693
X89375Y22422
X90010Y21470
X90010Y19883
X90010Y18295
X88423Y19883
X86835Y19248
X85565Y18612
X83978Y18295
X83025Y19248
X82073Y18295
X84295Y19883
X85565Y20517
X86835Y21152
X88105Y21788
X85565Y24328
X86835Y24962
X85565Y26232
X84295Y25597
X83025Y24962
X84295Y23693
X83025Y23057
X83025Y26867
X84295Y27502
X83025Y28773
X84295Y29407
X73500Y32265
X73500Y33852
X73500Y39885
X72172Y43324
X72553Y43825
X72865Y44965
X74135Y44330
X75148Y49077
X77056Y49075
X77056Y49824
X77945Y49727
X79215Y49092
X80485Y48457
X81755Y47822
X83025Y47187
X84295Y46552
X85565Y47822
X86835Y49092
X85565Y49727
X84295Y50362
X83025Y50997
X81755Y51632
X80485Y52267
X80485Y53855
X82073Y53855
X83343Y53220
X84930Y52903
X86835Y52903
X87788Y53855
X88105Y52267
X86835Y50997
X88105Y50362
X90645Y52903
X91598Y53855
X90645Y56649
X92550Y56649
X92974Y59075
X92474Y59697
X91976Y60078
X90975Y59697
X90475Y60078
X89474Y59697
X88976Y60078
X87975Y59697
X87475Y60078
X86975Y59075
X88476Y59075
X89974Y59075
X91476Y59075
X93475Y60078
X93975Y59697
X94475Y59075
X95725Y58935
X96360Y58300
X96995Y56649
X98265Y56649
X98265Y58300
X100170Y58300
X100170Y56649
X102075Y56649
X103345Y56649
X105250Y56649
X106520Y56649
X105567Y58300
X104976Y58661
X104475Y59697
X103975Y60078
X102974Y59697
X102474Y60078
X101976Y59075
X103475Y59075
X106975Y60075
X108476Y60075
X109974Y60075
X110475Y59075
X108976Y59075
X111224Y57076
X113475Y59316
X112974Y60078
X111976Y60075
X114458Y60840
X115093Y60840
X115093Y62110
X114458Y62110
X116363Y62110
X116998Y62110
X116998Y60840
X116363Y60840
X118875Y60840
X119347Y61983
X120490Y62455
X121633Y61983
X122105Y60840
X121633Y59697
X120490Y59225
X119347Y59697
X117950Y58300
X121760Y55125
X123665Y53855
X123665Y51315
X121506Y50825
X122141Y49326
X123665Y48775
X121506Y47337
X121506Y46321
X121506Y45686
X122077Y44325
X123665Y43695
X122077Y42074
X123665Y41155
X122077Y39824
X122077Y38325
X123665Y38615
X123665Y36075
X122077Y36075
X119278Y34825
X118897Y34325
X119278Y33324
X118897Y32824
X119278Y31826
X118897Y31325
X118585Y30076
X117315Y29407
X117315Y27820
X118605Y27188
X118897Y28325
X119278Y28826
X122077Y30076
X123665Y30995
X122077Y32326
X122077Y33825
X123665Y33535
X118897Y37325
X119278Y37825
X118897Y38826
X119278Y39326
X118897Y40324
X119278Y40825
X117950Y39824
X117950Y38325
X117950Y36075
X117950Y33825
X117950Y32326
X113823Y30995
X112553Y31630
X113188Y32265
X112553Y33535
X111282Y34170
X112235Y35122
X113823Y35186
X113823Y36964
X114224Y38325
X112870Y38297
X112235Y37027
X111600Y37662
X110330Y38932
X111600Y39567
X112870Y40202
X111600Y41472
X112870Y42107
X114224Y42074
X114224Y41325
X114224Y39824
X110330Y40837
X109060Y40202
X107790Y41472
X109060Y42107
X110330Y42742
X111600Y43377
X112870Y44012
X111600Y45282
X110330Y44647
X109060Y44012
X107790Y43377
X106520Y42742
X105250Y44012
X106520Y44647
X107790Y45282
X109060Y45917
X110330Y46552
X111224Y47076
X111224Y48074
X112225Y47576
X114224Y46375
X114224Y45326
X114224Y43825
X116975Y44325
X117970Y44333
X118897Y43324
X119278Y43825
X118605Y42428
X117335Y42428
X123665Y46235
X119601Y50324
X118585Y49331
X116299Y49326
X116299Y50324
X114394Y49824
X109060Y47822
X107790Y47187
X106520Y46552
X105250Y45917
X103980Y45282
X102710Y46552
X103980Y47187
X105250Y47822
X106520Y48457
X107790Y49092
X108425Y50362
X107155Y51632
X106520Y50362
X105250Y49727
X103980Y49092
X102710Y48457
X101440Y47822
X100170Y49092
X99218Y49410
X98583Y50680
X97312Y50045
X96043Y51315
X97312Y51950
X98583Y52585
X97975Y53596
X97475Y53977
X96474Y53596
X95974Y53977
X94773Y53855
X95407Y52585
X99852Y51950
X101440Y52267
X101758Y51315
X102710Y50362
X101440Y49727
X100488Y50680
X103028Y51950
X103980Y50997
X105250Y51632
X104615Y52585
X104475Y53576
X102974Y53576
X101476Y53576
X99974Y53576
X106520Y53538
X114424Y54490
X123665Y58935
X123665Y61475
X123030Y63380
X121125Y64015
X118585Y64015
X116045Y64015
X113505Y64015
X110965Y64015
X110975Y62618
X109474Y62618
X107975Y62618
X106474Y62618
X104976Y62618
X103475Y62618
X101976Y62618
X100475Y62618
X98976Y62618
X97475Y62618
X95974Y62618
X95725Y64015
X94475Y62618
X92974Y62618
X93185Y64015
X91476Y62618
X89974Y62618
X88476Y62618
X86975Y62618
X85476Y62618
X83975Y62618
X82474Y62618
X80975Y62618
X80485Y64015
X83025Y64015
X85565Y64015
X88105Y64015
X90645Y64015
X84930Y59252
X82474Y59075
X81976Y59697
X81476Y60078
X80475Y59316
X80975Y58574
X79474Y59316
X78976Y60078
X78476Y59316
X77975Y60078
X76993Y60840
X76358Y60840
X76358Y62110
X76993Y62110
X75088Y62110
X74453Y62110
X74453Y60840
X75088Y60840
X72575Y60840
X72103Y61983
X70960Y62455
X69817Y61983
X69345Y60840
X69817Y59697
X70960Y59225
X72103Y59697
X73500Y58300
X74008Y56078
X74135Y55506
X74770Y55442
X77975Y54012
X77691Y53014
X79215Y50997
X80485Y50362
X81755Y49727
X83025Y49092
X84295Y48457
X84295Y42742
X83660Y56712
X84930Y56712
X86835Y56712
X88740Y56712
X82390Y57347
X81755Y56712
X80485Y57665
X79974Y60078
X77945Y64015
X75405Y64015
X72865Y64015
X70325Y64015
X68420Y63380
X67785Y61475
X67785Y58935
X98265Y64015
X100805Y64015
X103345Y64015
X105885Y64015
X108425Y64015
X110013Y32900
X108743Y31630
X110013Y30995
X111282Y30360
X112553Y29725
X113188Y28455
X112553Y27820
X111282Y28455
X110013Y29090
X108743Y29725
X107473Y30360
X106203Y29090
X107473Y28455
X108743Y27820
X110013Y27185
X111282Y26550
X112553Y25915
X111282Y24645
X110013Y25280
X108743Y25915
X107473Y26550
X106203Y27185
X104933Y27820
X103663Y26550
X102393Y25915
X101758Y24645
X101123Y24010
X100488Y24645
X99639Y24813
X99477Y25420
X98900Y25915
X97948Y24645
X99218Y24010
X99852Y22740
X99218Y22105
X98265Y21152
X96995Y21788
X97948Y22740
X96678Y23375
X94455Y21152
X93185Y19883
X94455Y19248
X92868Y18295
X92474Y15628
X93975Y15628
X95090Y13850
X95725Y13215
X96975Y13075
X97475Y12453
X97975Y12072
X98476Y13075
X99974Y13075
X100475Y12453
X100975Y12072
X101476Y13075
X102974Y13075
X103475Y12453
X103975Y12072
X104976Y12453
X105476Y12072
X105974Y13075
X104475Y13075
X104475Y15628
X102974Y15628
X101476Y15628
X99974Y15628
X98476Y15628
X96975Y15628
X93975Y13075
X92974Y12453
X93475Y12072
X92474Y13075
X91598Y13850
X90975Y13075
X89974Y12453
X90475Y12072
X89474Y13075
X88740Y13850
X87975Y13075
X86975Y12453
X87475Y12072
X86474Y13489
X85883Y13850
X83975Y12453
X84475Y12072
X82974Y12072
X82474Y12453
X81976Y13075
X80803Y13850
X80475Y15628
X81976Y15628
X83475Y15628
X83475Y13075
X79474Y12075
X78476Y12072
X77975Y12834
X76993Y11310
X76358Y11310
X76358Y10040
X76993Y10040
X75088Y10040
X74453Y10040
X74453Y11310
X75088Y11310
X73500Y13850
X77026Y17660
X80475Y9532
X81976Y9532
X83475Y9532
X84976Y9532
X86474Y9532
X87968Y9532
X89474Y9532
X90975Y9532
X92474Y9532
X93975Y9532
X95476Y9532
X95725Y8135
X96975Y9532
X98476Y9532
X98265Y8135
X99974Y9532
X101476Y9532
X102967Y9532
X104475Y9532
X105974Y9532
X107475Y9532
X108976Y9532
X110475Y9532
X110965Y8135
X108425Y8135
X105885Y8135
X103345Y8135
X100805Y8135
X93185Y8135
X90645Y8135
X88105Y8135
X85565Y8135
X83025Y8135
X80485Y8135
X77945Y8135
X75405Y8135
X72865Y8135
X70325Y8135
X68420Y8770
X87975Y15628
X96995Y18295
X96995Y19883
X98900Y19883
X99535Y20517
X100488Y19565
X101123Y20200
X102075Y19248
X101440Y18612
X103028Y18295
X103028Y20200
X102393Y21470
X101758Y22740
X100488Y21470
X102393Y24010
X103663Y24645
X104933Y24010
X106203Y23375
X107473Y22740
X108743Y22105
X107473Y20835
X106203Y21470
X104933Y22105
X104298Y21470
X103663Y22740
X104933Y20200
X106203Y19565
X106203Y18295
X105974Y15628
X109784Y13088
X110975Y12834
X111476Y12072
X111976Y12834
X112474Y12072
X112974Y12834
X113475Y12072
X114458Y11310
X115093Y11310
X115093Y10040
X114458Y10040
X116363Y10040
X116998Y10040
X116998Y11310
X116363Y11310
X118875Y11310
X119347Y10167
X120490Y9695
X121633Y10167
X122105Y11310
X121633Y12453
X120490Y12925
X119347Y12453
X117950Y13850
X121760Y17025
X120490Y18295
X120490Y20200
X119601Y21325
X118839Y21826
X119601Y22326
X118585Y23693
X118839Y24825
X119601Y25326
X118839Y25826
X117315Y25597
X116299Y25826
X114394Y26324
X113823Y26867
X114394Y25326
X114140Y24010
X114394Y23075
X114394Y22326
X116302Y23073
X113759Y19136
X113475Y18138
X110965Y14485
X113505Y8135
X116045Y8135
X118585Y8135
X121125Y8135
X123030Y8770
X123665Y10675
X123665Y13215
X123665Y18295
X123665Y20835
X123665Y23375
X121760Y24010
X123665Y25915
X123665Y28455
X111282Y32265
X106203Y25280
X107473Y24645
X108743Y24010
X110013Y23375
X104933Y25915
X100488Y25915
X63380Y68419
X63380Y72229
X63380Y76039
X62237Y79722
X62816Y81119
X62237Y82516
X60840Y83095
X60522Y84294
X60522Y86199
X60522Y88104
X62110Y88104
X63380Y88104
X62427Y86199
X62110Y90009
X63380Y90009
X63380Y91914
X62110Y91914
X60840Y91914
X60840Y90009
X60840Y93819
X62110Y93819
X63380Y93819
X63380Y95724
X62110Y95724
X62110Y97629
X63380Y97629
X63380Y99534
X62110Y99534
X62110Y101439
X63380Y101439
X63380Y103344
X62110Y103344
X62110Y105249
X63380Y105249
X63380Y107154
X62110Y107154
X61729Y108511
X60840Y107154
X60205Y105249
X60205Y103344
X60840Y101439
X60840Y99534
X60840Y96994
X55760Y90835
X54957Y91835
X54957Y93834
X52458Y93834
X52458Y91835
X52458Y89585
X52458Y87586
X52458Y85585
X52458Y83586
X52458Y81584
X54957Y79834
X54807Y78579
X55760Y80835
X56712Y78579
X57030Y80484
X57030Y82389
X58864Y81119
X59443Y79722
X58617Y78579
X58864Y76674
X56862Y76674
X54612Y76674
X52862Y76674
X50863Y76674
X48813Y75404
X46908Y76674
X46552Y78579
X46552Y80929
X47822Y80835
X49092Y80835
X49958Y79834
X49092Y82836
X47822Y82836
X46552Y82836
X46552Y84835
X47822Y84835
X49092Y84835
X49092Y86834
X47822Y86834
X46552Y86834
X46552Y88836
X47822Y88836
X49092Y88836
X49092Y90835
X47822Y90835
X47822Y91835
X46552Y91835
X46552Y90835
X44965Y90009
X44965Y88010
X44965Y86517
X44965Y85511
X44965Y84010
X44965Y82511
X44330Y80484
X43060Y79214
X42074Y81061
X42524Y81510
X42524Y82511
X42074Y83009
X42524Y83509
X42074Y84010
X42524Y84510
X42524Y85511
X42524Y86509
X42524Y87510
X42074Y88010
X42524Y88511
X42524Y89509
X42074Y90009
X42524Y90510
X42074Y91010
X42524Y91510
X42524Y92511
X42074Y93959
X40576Y93959
X40576Y92610
X38574Y93611
X38574Y96209
X38574Y97121
X37662Y98264
X37662Y99100
X35821Y101439
X35122Y101439
X33852Y101439
X33852Y100804
X33852Y100169
X31947Y100804
X30677Y101439
X29407Y101439
X28137Y101439
X26867Y101439
X26867Y99534
X28137Y99534
X29407Y99534
X30677Y99534
X30675Y97629
X29605Y96560
X28653Y95607
X27820Y96677
X28772Y97629
X27500Y98264
X26230Y96994
X26865Y95724
X27200Y94055
X25562Y93723
X24325Y93723
X24960Y95724
X23055Y95724
X23055Y96994
X23354Y97756
X23855Y97375
X24355Y97756
X25595Y98264
X22354Y97756
X21856Y97375
X21355Y97756
X20855Y97375
X20355Y97756
X19562Y96994
X18610Y97629
X18010Y96359
X17022Y97312
X16387Y99534
X16387Y102074
X17657Y102709
X16705Y104932
X16390Y107154
X18074Y108909
X18074Y110510
X18074Y112110
X17279Y112511
X17279Y113311
X18074Y114111
X19674Y114111
X20474Y114111
X21470Y113822
X22740Y114457
X21470Y115727
X20474Y116110
X20200Y116997
X19275Y117710
X18074Y117710
X18074Y116110
X19275Y116110
X21470Y117632
X22740Y118267
X21470Y119537
X20200Y118902
X19275Y119709
X18074Y119709
X18074Y122110
X18930Y122077
X20200Y122712
X21470Y123347
X22740Y123982
X21470Y125252
X20200Y124617
X20263Y126458
X19120Y127601
X19120Y128617
X19275Y130111
X20263Y129760
X21470Y130967
X22740Y132237
X21470Y132872
X20474Y132511
X19275Y132511
X18074Y132511
X18074Y134909
X19275Y134909
X20474Y134909
X21470Y134777
X22740Y134142
X22740Y136047
X21675Y137309
X20474Y137309
X19275Y137309
X18074Y137309
X18074Y139709
X19275Y139709
X20474Y139709
X21675Y139709
X22740Y139857
X22740Y137952
X24010Y137317
X25280Y136682
X26550Y136047
X25280Y134777
X24010Y135412
X24010Y133507
X26550Y133824
X28455Y135729
X27820Y137317
X29090Y138587
X27820Y139222
X29090Y140492
X30360Y139857
X31630Y141127
X30360Y141762
X29090Y142397
X27820Y143032
X29090Y144302
X30360Y143667
X31630Y143032
X32900Y142397
X34106Y143603
X32900Y144302
X33852Y145254
X35249Y145572
X35249Y144746
X36900Y144746
X36837Y145572
X38297Y145254
X39250Y144302
X38043Y143603
X39250Y142397
X40520Y143032
X41790Y143667
X43060Y144302
X44330Y144937
X45600Y145572
X46870Y144302
X45600Y143667
X46870Y142397
X45600Y141762
X46870Y140492
X45600Y139857
X46870Y138587
X45600Y137952
X46870Y136682
X45600Y136047
X46870Y134777
X48140Y135412
X48140Y133507
X49410Y134142
X50680Y134777
X51950Y135412
X52874Y134909
X54076Y134909
X54076Y137309
X52874Y137309
X51950Y137317
X50680Y136682
X49410Y136047
X48140Y137317
X49410Y137952
X50680Y138587
X51950Y139222
X52874Y139709
X54076Y139709
X54076Y142110
X52874Y142110
X51675Y142110
X50680Y142397
X49410Y141762
X50680Y140492
X49410Y139857
X48140Y139222
X48140Y141127
X48140Y143032
X49410Y143667
X50680Y144302
X51632Y144302
X52267Y144937
X52267Y145889
X53220Y146207
X54172Y145254
X54172Y147159
X53220Y148112
X52267Y147159
X50825Y146016
X50324Y145635
X49824Y146016
X48140Y144937
X48826Y148610
X48267Y149382
X47324Y148610
X46870Y149382
X45600Y149382
X45600Y151287
X46870Y150969
X46870Y151858
X48267Y150969
X49664Y150969
X49664Y149699
X52267Y149064
X52267Y151604
X52295Y154919
X52806Y155414
X52295Y155910
X51795Y158462
X51294Y158843
X50794Y158462
X50294Y158843
X49796Y158462
X48795Y158462
X48295Y158843
X47794Y158462
X46552Y159224
X45600Y158272
X44647Y159224
X44012Y158272
X42742Y158272
X43697Y160177
X44965Y161764
X45917Y162717
X45074Y163441
X45074Y164939
X45074Y166209
X45074Y167459
X45074Y168711
X45074Y169709
X45074Y171510
X46555Y171147
X47825Y170893
X49074Y171386
X47825Y172417
X46555Y172798
X47825Y174068
X49074Y173385
X49074Y175386
X49958Y176384
X52458Y174634
X52458Y172635
X52458Y170634
X52458Y168635
X52458Y166636
X52458Y164386
X51457Y163385
X49958Y162384
X49958Y164386
X49074Y165386
X47825Y164939
X46555Y164939
X46870Y163669
X47822Y162082
X47822Y160177
X49410Y160177
X51315Y160177
X53220Y160177
X55122Y158907
X55760Y156684
X55760Y154144
X55760Y149064
X58300Y149064
X60840Y149064
X63380Y143710
X62745Y142110
X61729Y141310
X61729Y140510
X62745Y139709
X61729Y138909
X61729Y138109
X62745Y137309
X61729Y136509
X61729Y135709
X62745Y134909
X61729Y134111
X61729Y133311
X62745Y132511
X61729Y131711
X61729Y130911
X62745Y130111
X61729Y129311
X61729Y128511
X62745Y127710
X61729Y126910
X61729Y126110
X63380Y125310
X63380Y124510
X63380Y123311
X62745Y122110
X61729Y121310
X61729Y120510
X62745Y119709
X61729Y118909
X61729Y118109
X61729Y115709
X61729Y114909
X62745Y114111
X61729Y113311
X61729Y112511
X62745Y111711
X61729Y110911
X61729Y110111
X63380Y109059
X63380Y112869
X63380Y118511
X63380Y120911
X61729Y122910
X61729Y123710
X58300Y122107
X58300Y119707
X58300Y117314
X58300Y114106
X58300Y111706
X58300Y107154
X55760Y107154
X52267Y107154
X52267Y104614
X50324Y107662
X49326Y107662
X48775Y106837
X47568Y107154
X46832Y107154
X46080Y107154
X45600Y106519
X45282Y107472
X44012Y106837
X42742Y106837
X41472Y106837
X41472Y104932
X40825Y104439
X40324Y104012
X39326Y104439
X38826Y104012
X37825Y104439
X37324Y104012
X36900Y104932
X36900Y105884
X36900Y106837
X38297Y106837
X38297Y105249
X39885Y105249
X39885Y106837
X42742Y104932
X44012Y104932
X45325Y104012
X45600Y104614
X45600Y105249
X47324Y104106
X47822Y105249
X48826Y104106
X47505Y101439
X47187Y100487
X47187Y99534
X48775Y100169
X49410Y100804
X50045Y98264
X50680Y98264
X51315Y98264
X50997Y96677
X49410Y97629
X49092Y95724
X48140Y97629
X47187Y97629
X47187Y95724
X46552Y93834
X47822Y93834
X44965Y92511
X44647Y94454
X45282Y95724
X45282Y97629
X43377Y97629
X43377Y95724
X41472Y97629
X41472Y99534
X42742Y99534
X44012Y99534
X45282Y99534
X45282Y101439
X44012Y101439
X42742Y101439
X41472Y101439
X34825Y104012
X34325Y104439
X33852Y105249
X32826Y104439
X33324Y104012
X31825Y104012
X31325Y104439
X30677Y104932
X29407Y104932
X28137Y104932
X28137Y106837
X29407Y106837
X30677Y106837
X32265Y106837
X32265Y105249
X33852Y106837
X35249Y106837
X35249Y105884
X35249Y104932
X35249Y110647
X35249Y111472
X34106Y112615
X32900Y111917
X33852Y110647
X32900Y113822
X31630Y113187
X30360Y112552
X29090Y111917
X27820Y111282
X26550Y110647
X25280Y111917
X24010Y111282
X22740Y112552
X21470Y111917
X20517Y111917
X19882Y111282
X19882Y110329
X19882Y109059
X21325Y110202
X21825Y110583
X22326Y110202
X23324Y107609
X23883Y106519
X23883Y105249
X22486Y105249
X22486Y106519
X24825Y107609
X25280Y106519
X25280Y105249
X25280Y104360
X26550Y104932
X26550Y106837
X30360Y110647
X31630Y111282
X29090Y113822
X27820Y113187
X27820Y115092
X29090Y115727
X30360Y116362
X31630Y115092
X30360Y114457
X29090Y117632
X27820Y116997
X27820Y118902
X26550Y118267
X25280Y117632
X24010Y116997
X25280Y115727
X24010Y115092
X25280Y113822
X24010Y113187
X26550Y112552
X26550Y114457
X26550Y116362
X25280Y119537
X24010Y118902
X24010Y120807
X25280Y121442
X26550Y120172
X24010Y122712
X22740Y122077
X21470Y121442
X20200Y120807
X22740Y120172
X22740Y116362
X19674Y112910
X19882Y107154
X19882Y104614
X19854Y101300
X19344Y100804
X19854Y100309
X19692Y95724
X19692Y93834
X19692Y91835
X19692Y89585
X19692Y87586
X19692Y85585
X19692Y83586
X19692Y81584
X17192Y79834
X16390Y78836
X16390Y80835
X15120Y80484
X15120Y78579
X13850Y77944
X12580Y76674
X10357Y76674
X10040Y75404
X8770Y76039
X9913Y79722
X9334Y81119
X9913Y82516
X11310Y83095
X11627Y84294
X11627Y86199
X11627Y88104
X10040Y88104
X8770Y88104
X9722Y86199
X10040Y90009
X8770Y90009
X8770Y91914
X10040Y91914
X11310Y91914
X11310Y90009
X11310Y93819
X10040Y93819
X8770Y93819
X8770Y95724
X10040Y95724
X10040Y97629
X8770Y97629
X8770Y99534
X10040Y99534
X10040Y101439
X8770Y101439
X8770Y103344
X10040Y103344
X10040Y105249
X8770Y105249
X8770Y107154
X10040Y107154
X11310Y107154
X11945Y105249
X11945Y103344
X11310Y101439
X11310Y99534
X11310Y96994
X17192Y93834
X17192Y91835
X16390Y88836
X16390Y86834
X16390Y84835
X16390Y82836
X15120Y82389
X13286Y81119
X12707Y79722
X11310Y79146
X12707Y82516
X13532Y84294
X14802Y84929
X13532Y86199
X15120Y76674
X17977Y76674
X20162Y75404
X22288Y76674
X24287Y76674
X24325Y78579
X25595Y78579
X24325Y79849
X25595Y80611
X24327Y81343
X23057Y80835
X22191Y79834
X23057Y78836
X25595Y82516
X24327Y82836
X23057Y82836
X23057Y84835
X24327Y84708
X25595Y84421
X25595Y86072
X24327Y86453
X23057Y86834
X24327Y87947
X25595Y87469
X25595Y88739
X25595Y90009
X24327Y89725
X23057Y88836
X23057Y90835
X24325Y91780
X25595Y91780
X27076Y91279
X27076Y90009
X27076Y88760
X27076Y87510
X27076Y86509
X27076Y85511
X27076Y84411
X27076Y82511
X27182Y81119
X28452Y79849
X27817Y78262
X28287Y76674
X26288Y76674
X29722Y78579
X30289Y76674
X32265Y78262
X33575Y78760
X34076Y81061
X35574Y81061
X36575Y81061
X38574Y81061
X40075Y81061
X41076Y81061
X41155Y78579
X41155Y76674
X42780Y76674
X44647Y76674
X44647Y78579
X44863Y72229
X42862Y72229
X38970Y76674
X37345Y74134
X35765Y76387
X34170Y76674
X34391Y72864
X34805Y72229
X34391Y71594
X34805Y68419
X37345Y69054
X37345Y70324
X30289Y72229
X28287Y72229
X26288Y72229
X24287Y72229
X22288Y72229
X20162Y69054
X16288Y72229
X14287Y72229
X8770Y72229
X8770Y68419
X21691Y95724
X29626Y92511
X30075Y92011
X29626Y91510
X30075Y90510
X29626Y90009
X29626Y89011
X29626Y88259
X29626Y87510
X29626Y86509
X29626Y85511
X29626Y84510
X29626Y83509
X29626Y82511
X29626Y81759
X32074Y81061
X32074Y84109
X32826Y85859
X33824Y85259
X35275Y86710
X36875Y86710
X38325Y85259
X39074Y86311
X39575Y87510
X39575Y88211
X39575Y88909
X38325Y89760
X38574Y91609
X36875Y88310
X35275Y88310
X33824Y89760
X32074Y89560
X32326Y88711
X32575Y87959
X32826Y87111
X32724Y92361
X31975Y92361
X32074Y93959
X33575Y96209
X33575Y96994
X34576Y96994
X34576Y96209
X31945Y97629
X30075Y93959
X34152Y92361
X40324Y85610
X50863Y72229
X52862Y72229
X54863Y72229
X56862Y72229
X58864Y72229
X60840Y79146
X59443Y82516
X58617Y84294
X57347Y84929
X58617Y86199
X55760Y86834
X55760Y88836
X55760Y84835
X55760Y82836
X48813Y69054
X52267Y109059
X52902Y109694
X53537Y110329
X54076Y111711
X52874Y111711
X51675Y111711
X50474Y111711
X49275Y111711
X48826Y110202
X49824Y110202
X50825Y110202
X50474Y114111
X49410Y114457
X49410Y116362
X50474Y116110
X51675Y116110
X52874Y116110
X54076Y116110
X54076Y117710
X52874Y117710
X51675Y117710
X50680Y117632
X49410Y118267
X50680Y119537
X51675Y119709
X52874Y119709
X54076Y119709
X54076Y122110
X52874Y122110
X51675Y122110
X50680Y121442
X49410Y122077
X50680Y123347
X49410Y123982
X50680Y125252
X51950Y124617
X52874Y124111
X54076Y124111
X54076Y125709
X53220Y125887
X54076Y127710
X53029Y128617
X51886Y129760
X50680Y130967
X51950Y131602
X50680Y132872
X49410Y132237
X51950Y133507
X53220Y132237
X54076Y132511
X53220Y130332
X54076Y130111
X51886Y126458
X48140Y122712
X46870Y121442
X48140Y120807
X46870Y119537
X48140Y118902
X46870Y117632
X48140Y116997
X46870Y115727
X48140Y115092
X46870Y113822
X48140Y113187
X46870Y111917
X48140Y111282
X47578Y110202
X45600Y110647
X45600Y112552
X44330Y113187
X43060Y113822
X41790Y114457
X40520Y115092
X41790Y116362
X43060Y115727
X44330Y115092
X45600Y114457
X45600Y116362
X45600Y118267
X44330Y118902
X43695Y120489
X45600Y120172
X45600Y122394
X42425Y126204
X41790Y125569
X40520Y124299
X39885Y123664
X43060Y117632
X44330Y116997
X40520Y113187
X41790Y112552
X43060Y111917
X44330Y111282
X41790Y110647
X40520Y111282
X39885Y110647
X39250Y111917
X38043Y112615
X36900Y111472
X36900Y110647
X38297Y110647
X39250Y113822
X32265Y123664
X31630Y124299
X30360Y125569
X29725Y126204
X29725Y130014
X30360Y130649
X31630Y131919
X32265Y132554
X26550Y137952
X25280Y138587
X24010Y139222
X25280Y140492
X26550Y139857
X27820Y141127
X26550Y141762
X25280Y142397
X24010Y143032
X25280Y144302
X26550Y143667
X26550Y145572
X27820Y144937
X30360Y145572
X31630Y144937
X32265Y149382
X32265Y150969
X32826Y151652
X33324Y152209
X34325Y151652
X34825Y152209
X35249Y151287
X35249Y150334
X35249Y149382
X33852Y149382
X33852Y150969
X31825Y152209
X31325Y151652
X30677Y151287
X29407Y151287
X28137Y151287
X28137Y149382
X29407Y149382
X30677Y149382
X26867Y148747
X26070Y149064
X25318Y149064
X24581Y149064
X23375Y149382
X22826Y148556
X21825Y148556
X19882Y149064
X18930Y148175
X17977Y147159
X18930Y145572
X19275Y144510
X20474Y144510
X21675Y144510
X22874Y144510
X23324Y146016
X22326Y146016
X21325Y146016
X19882Y147159
X18074Y144510
X18074Y142110
X19275Y142110
X20474Y142110
X21675Y142110
X22874Y142110
X24010Y141127
X24010Y144937
X24571Y146016
X26550Y149699
X26550Y150969
X26550Y151609
X26824Y152239
X24825Y152112
X24327Y150969
X23324Y152112
X24010Y154779
X25074Y156684
X26042Y157954
X26867Y157954
X26867Y156684
X28137Y156684
X29407Y156684
X29407Y157954
X30360Y157954
X30995Y157637
X30995Y157002
X31630Y156684
X31630Y157954
X33535Y159859
X34360Y158589
X34360Y157827
X34360Y157065
X36075Y157860
X37980Y159224
X38574Y159560
X38074Y159961
X39250Y158589
X40329Y157002
X40837Y156367
X41282Y155732
X40520Y154779
X39555Y155414
X38945Y155414
X38615Y154779
X38615Y156049
X39885Y156049
X42742Y156684
X44012Y156684
X45282Y156684
X45282Y154779
X44012Y154779
X42742Y154779
X40825Y151652
X41472Y151287
X42742Y151287
X44012Y151287
X44012Y149382
X42742Y149382
X41472Y149382
X39885Y149382
X39885Y150969
X39326Y151652
X38826Y152209
X37825Y151652
X37324Y152209
X36900Y151287
X36900Y150334
X36900Y149382
X38297Y149382
X38297Y150969
X40324Y152209
X37027Y154779
X36329Y154779
X32582Y154779
X30677Y154779
X29407Y154779
X28137Y154779
X26867Y154779
X28137Y157954
X29090Y159859
X27820Y161129
X26867Y159859
X25597Y161129
X24645Y160177
X24010Y159224
X23375Y158589
X22740Y159224
X22105Y158589
X21470Y157319
X20835Y156684
X20835Y157954
X22105Y156684
X20835Y155287
X20517Y160494
X22105Y160494
X22191Y162384
X23692Y162399
X22191Y164386
X23057Y165386
X24327Y165386
X25597Y165635
X25597Y167385
X24327Y167385
X23057Y167385
X23057Y169384
X24327Y169384
X25597Y169384
X25597Y171386
X24327Y171386
X23057Y171386
X23057Y173385
X24327Y173385
X25597Y173385
X25597Y175290
X25597Y176369
X24327Y175386
X23057Y175386
X22191Y176384
X19692Y174634
X19692Y172635
X19692Y170634
X19692Y168635
X19692Y166636
X19692Y164386
X20693Y163385
X17192Y162384
X17192Y164386
X11310Y159224
X11310Y156684
X11310Y149115
X13850Y149115
X16390Y149064
X13850Y143984
X13850Y142107
X13850Y139707
X13850Y137307
X13850Y134906
X13850Y132506
X13850Y130111
X13850Y127716
X10421Y128511
X10421Y129311
X9405Y130111
X10421Y130911
X10421Y131711
X9405Y132511
X10421Y133311
X10421Y134111
X9405Y134909
X10421Y135709
X10421Y136509
X9405Y137309
X10421Y138109
X10421Y138909
X9405Y139709
X10421Y140510
X10421Y141310
X9405Y142110
X10421Y142910
X10421Y143710
X9405Y144510
X8770Y145310
X18074Y130111
X18074Y126733
X18930Y125887
X18074Y124510
X18930Y123982
X13850Y122115
X13850Y119715
X13850Y117314
X13850Y114038
X13850Y112907
X13850Y111307
X10421Y110911
X10421Y111711
X9405Y114111
X8770Y113034
X8770Y111035
X8770Y109059
X10040Y109059
X13850Y107154
X10421Y114909
X10421Y115709
X10421Y118109
X10421Y118909
X9405Y119709
X10421Y120510
X10421Y121310
X9405Y122110
X10421Y122910
X10421Y123710
X8770Y123311
X8770Y124510
X8744Y125310
X9405Y127710
X10421Y126910
X10421Y126110
X8770Y120911
X8770Y118511
X30075Y162260
X29626Y162709
X29626Y163710
X29626Y164711
X29626Y165709
X30075Y166209
X29626Y166710
X29626Y167710
X30075Y168211
X29626Y168711
X29626Y169709
X29626Y170710
X29626Y171711
X30075Y172211
X29626Y172709
X30075Y173209
X29626Y173710
X30075Y175160
X29090Y177004
X27820Y175734
X27185Y173961
X27185Y172211
X27185Y170710
X27185Y169702
X27185Y168211
X27185Y166209
X27185Y164210
X26550Y162399
X25280Y163669
X31574Y163611
X31574Y162260
X33852Y162717
X34325Y164360
X33824Y166461
X35275Y167911
X35275Y169511
X33824Y170959
X33075Y169910
X32575Y168711
X32575Y168010
X32575Y167309
X31825Y170611
X33575Y175160
X35574Y175160
X36575Y175160
X38325Y175160
X40075Y175160
X40075Y172110
X39326Y170360
X38325Y170959
X36875Y169511
X36875Y167911
X38325Y166461
X39326Y169110
X39575Y168259
X39824Y167510
X40075Y166659
X42074Y165709
X42524Y166209
X42524Y167210
X42524Y167959
X42524Y168711
X42524Y169709
X42524Y170710
X42524Y173710
X43697Y176369
X46870Y176369
X46555Y169501
X47825Y169242
X49074Y169384
X49074Y167385
X47825Y167385
X46555Y167980
X46555Y166461
X42524Y164711
X42074Y162260
X40075Y162260
X38932Y162935
X39326Y163860
X40075Y163860
X37076Y164360
X45600Y160177
X54957Y162384
X54957Y164386
X60840Y159224
X60840Y156684
X58300Y143306
X58300Y139707
X58300Y137307
X58300Y134906
X58300Y132923
X58300Y130121
X58300Y127710
X49410Y120172
X51675Y114111
X52874Y114111
X54076Y114111
X42425Y130014
X41790Y130649
X40520Y131919
X39885Y132554
X44330Y137317
X43060Y138587
X44330Y139222
X43060Y140492
X41790Y139857
X40520Y141127
X41790Y141762
X43060Y142397
X44330Y143032
X44330Y141127
X41790Y145572
X40520Y144937
X60840Y173126
X59443Y173702
X58864Y175099
X59443Y176496
X60840Y177075
X62237Y176496
X62816Y175099
X62237Y173702
X54957Y176384
X17192Y176384
X15437Y175074
X13286Y175099
X12707Y173702
X11310Y173126
X9913Y173702
X9334Y175099
X9913Y176496
X11310Y177075
X12707Y176496
X121888Y69563
X122467Y70960
X121888Y72357
X120491Y72936
X119094Y72357
X118515Y70960
X119094Y69563
X120491Y68984
X119221Y77310
X119221Y78580
X120491Y77945
X121761Y77945
X123031Y78580
X123031Y77310
X123348Y80485
X118903Y80803
X118586Y81438
X115411Y83025
X114141Y83025
X114776Y81755
X114776Y80485
X115411Y79215
X114141Y79215
X113506Y77945
X111601Y79215
X112236Y80620
X110966Y81120
X113506Y75405
X105886Y75405
X105886Y77945
X98266Y77945
X98266Y75405
X95408Y83660
X95091Y84168
X94456Y84803
X93186Y86835
X92424Y87470
X91916Y88105
X92233Y89693
X92233Y90645
X92236Y91598
X89825Y92365
X87471Y91598
X87471Y90645
X87471Y89693
X88423Y86518
X89376Y86835
X90328Y86835
X85375Y82390
X83661Y83660
X83343Y86500
X84296Y86518
X83661Y90328
X84296Y90963
X85566Y95725
X85566Y96995
X87153Y96995
X88423Y96995
X86201Y102075
X86201Y104615
X87471Y107790
X90011Y107790
X91598Y107028
X92106Y108298
X91789Y111600
X92551Y111600
X90011Y117315
X87471Y117315
X87471Y113139
X81756Y113505
X81756Y114775
X82391Y117950
X81121Y117950
X77311Y117549
X77311Y119949
X74136Y119149
X74136Y118349
X73501Y117549
X74136Y116749
X74136Y115951
X72866Y115951
X72866Y116749
X72866Y118349
X72866Y119149
X73501Y119949
X74136Y120749
X74136Y121549
X73501Y122350
X74136Y123150
X74136Y123950
X73501Y124750
X74136Y125550
X74136Y126350
X73501Y127150
X74136Y127950
X74136Y128750
X73501Y129550
X74136Y130351
X74136Y131151
X73501Y131951
X74136Y132751
X74136Y133551
X72866Y133551
X72866Y132751
X72866Y131151
X72866Y130351
X72866Y128750
X72866Y127950
X72866Y126350
X72866Y125550
X72866Y123950
X72866Y123150
X72866Y121549
X72866Y120749
X69691Y119949
X69691Y117549
X69119Y122350
X69691Y124750
X69691Y127150
X69691Y129550
X69691Y131951
X69818Y134351
X77184Y134351
X77311Y131951
X77311Y129550
X77311Y127150
X77311Y124750
X81121Y127475
X82391Y127475
X81756Y132555
X81756Y133825
X82391Y137000
X81121Y137000
X87471Y136365
X90011Y136365
X91090Y133825
X91598Y133190
X92429Y136683
X92429Y137635
X92429Y138905
X92429Y139858
X96480Y139858
X96488Y138905
X96488Y137635
X96480Y136683
X97504Y136683
X98266Y138905
X98266Y140175
X96678Y143668
X96678Y144620
X99216Y144303
X99218Y145255
X99218Y146208
X101626Y143536
X103981Y144303
X103981Y145255
X103981Y146208
X106838Y144938
X107791Y145573
X105886Y140175
X105886Y138905
X104298Y138905
X103028Y138905
X105251Y133825
X105251Y131285
X103981Y128110
X99218Y128110
X99218Y127290
X99218Y126391
X98647Y128872
X97758Y128872
X95726Y128872
X94456Y128237
X94202Y129698
X96996Y125385
X95474Y123660
X94926Y123030
X95980Y121760
X95472Y121125
X93821Y121443
X93503Y120808
X90011Y126840
X87471Y126840
X87471Y132189
X97631Y131285
X97631Y133825
X98266Y122395
X99028Y121760
X99218Y120808
X101441Y118585
X103981Y118585
X103981Y122761
X109696Y122395
X109696Y121125
X110331Y117950
X109061Y117950
X114141Y117549
X114141Y119949
X117316Y119149
X117316Y118349
X117951Y117549
X118586Y116749
X118586Y115951
X117316Y115951
X117316Y116749
X118586Y118349
X118586Y119149
X117951Y119949
X118586Y120749
X118586Y121549
X117951Y122350
X118586Y123150
X118586Y123950
X117951Y124750
X118586Y125550
X118586Y126350
X117951Y127150
X118586Y127950
X118586Y128750
X117951Y129550
X118586Y130351
X118586Y131151
X117951Y131951
X117316Y131151
X117316Y130351
X117316Y128750
X117316Y127950
X117316Y126350
X117316Y125550
X117316Y123950
X117316Y123150
X117316Y121549
X117316Y120749
X114141Y124750
X114141Y127150
X114141Y129550
X110902Y129634
X110331Y127475
X109061Y127475
X114141Y135951
X117316Y136751
X117316Y137549
X118586Y135951
X117316Y135151
X121761Y135151
X121761Y136751
X121761Y137549
X121761Y129550
X121761Y127150
X121761Y124750
X122332Y122350
X121761Y119949
X121761Y117549
X118586Y113551
X118586Y112751
X117951Y111951
X117316Y112751
X117316Y113551
X117316Y111151
X117316Y110351
X117951Y109550
X118586Y110351
X118586Y111151
X118586Y108750
X118586Y107950
X117951Y107150
X117316Y107950
X117316Y108750
X117316Y105550
X117316Y104750
X117951Y103950
X118586Y103150
X118586Y102350
X117951Y101549
X118586Y100749
X118586Y99949
X117316Y99949
X117316Y99149
X117316Y98349
X118586Y98349
X117316Y100749
X117316Y102350
X117316Y103150
X118586Y104750
X118586Y105550
X121761Y103950
X121761Y101549
X122713Y107790
X121761Y109550
X121761Y111951
X114141Y111951
X114141Y109550
X114141Y107150
X114141Y103950
X114141Y101549
X110331Y98900
X109061Y98900
X109696Y102075
X109696Y103345
X110331Y108425
X109061Y108425
X103981Y109060
X101441Y109060
X103981Y103711
X100552Y103211
X100044Y102710
X101441Y99535
X103981Y99535
X110331Y90645
X102190Y90010
X101690Y89693
X101189Y90010
X100689Y89693
X100191Y90010
X94773Y99218
X93186Y96995
X93186Y95725
X93821Y102075
X93821Y104615
X82391Y108425
X81121Y108425
X77311Y109550
X77311Y111951
X74136Y112751
X74136Y113551
X72866Y113551
X72866Y112751
X73501Y111951
X74136Y111151
X74136Y110351
X73501Y109550
X74136Y108750
X74136Y107950
X73501Y107150
X72866Y107950
X72866Y108750
X72866Y110351
X72866Y111151
X69691Y111951
X69691Y109550
X69691Y107150
X69691Y103950
X69691Y99949
X72866Y100749
X72866Y101549
X72866Y102350
X72866Y103150
X73501Y103950
X74136Y103150
X74136Y102350
X74136Y101549
X74136Y100749
X73501Y99949
X74136Y104750
X74136Y105550
X72866Y105550
X72866Y104750
X77311Y103950
X77311Y99949
X77311Y83025
X76041Y83025
X76676Y81755
X76676Y80485
X77311Y79215
X76041Y79215
X76676Y77945
X76803Y77310
X79216Y81120
X80105Y81120
X79216Y82390
X83026Y77945
X83026Y75405
X90646Y75405
X90646Y77945
X72937Y70960
X72358Y72357
X70961Y72936
X69564Y72357
X68985Y70960
X69564Y69563
X70961Y68984
X72358Y69563
X68421Y74770
X68421Y77310
X68421Y78580
X69691Y77945
X70961Y77945
X72231Y78580
X72231Y77310
X121761Y86835
X93186Y145890
X91260Y145890
X90760Y146208
X90260Y145890
X89759Y146208
X89259Y145890
X88106Y152240
X87788Y153193
X88113Y154463
X88764Y154463
X87463Y154463
X86813Y154463
X84931Y154463
X83026Y154463
X83026Y160178
X84931Y160178
X85566Y160178
X86813Y160178
X87463Y160178
X88113Y160178
X88764Y160178
X87471Y161448
X87471Y162083
X88106Y162083
X89058Y162083
X89058Y162718
X86518Y164305
X85883Y164305
X85248Y164305
X83978Y164305
X82708Y162718
X81438Y162718
X81438Y162083
X80486Y162083
X79851Y162083
X79851Y161448
X78898Y164305
X78263Y164305
X77628Y164305
X76358Y164305
X75088Y162718
X72937Y164940
X72358Y166337
X70961Y166916
X69564Y166337
X68985Y164940
X69564Y163543
X70961Y162964
X72358Y163543
X76041Y157320
X77946Y165893
X85566Y165893
X91281Y159035
X91916Y157320
X90646Y157320
X92424Y154661
X91916Y154145
X94138Y153193
X95091Y155415
X93821Y156685
X93821Y157955
X95726Y159860
X97631Y157955
X97631Y156685
X96361Y155415
X100450Y159543
X103981Y163670
X107679Y161130
X108230Y160450
X108779Y161130
X109330Y160450
X109881Y161130
X110430Y160450
X110981Y161130
X111530Y160450
X112081Y161130
X112629Y160450
X113181Y161130
X113729Y160450
X114280Y161130
X114829Y160450
X115380Y161130
X114679Y157193
X117633Y156050
X119856Y157320
X120491Y158793
X120491Y160495
X119856Y161130
X120491Y162964
X119094Y163543
X118515Y164940
X119094Y166337
X120491Y166916
X121888Y166337
X122467Y164940
X121888Y163543
X122396Y159860
X123031Y157955
X108680Y157193
X107791Y152228
X103981Y155415
X101758Y152228
X102076Y151605
T09
X120490Y15120
X123030Y15120
X70960Y15120
X68420Y15120
X68420Y57030
X70960Y57030
X120490Y57030
X123030Y57030
X59570Y160494
X59570Y157954
X57030Y157954
X57030Y160494
X15120Y160494
X15120Y157954
X12580Y157954
X12580Y160494
X12580Y98264
X12580Y95724
X15120Y95724
X15120Y98264
X57030Y98264
X57030Y95724
X59570Y95724
X59570Y98264
X78263Y156050
X78263Y158590
X80803Y158590
X80803Y156050
T10
X28455Y120489
X26550Y122394
X43695Y135729
X45600Y133824
X106140Y96551
X106140Y97440
X105251Y97440
X105251Y96551
X104362Y96551
X104362Y97440
X104362Y106076
X105251Y106076
X106140Y106076
X106140Y106965
X105251Y106965
X104362Y106965
X104362Y115601
X105251Y115601
X106140Y115601
X106140Y116490
X105251Y116490
X104362Y116490
X104362Y125126
X105251Y125126
X106140Y125126
X106140Y126015
X105251Y126015
X104362Y126015
X107346Y134206
X108235Y134206
X108235Y135095
X108235Y135984
X107346Y135984
X107346Y135095
X100615Y135095
X100615Y135984
X99726Y135984
X99726Y135095
X99726Y134206
X100615Y134206
X87090Y138461
X87090Y139350
X86201Y139350
X86201Y138461
X85312Y138461
X85312Y139350
X85312Y129825
X86201Y129825
X87090Y129825
X87090Y128936
X86201Y128936
X85312Y128936
X85312Y120300
X86201Y120300
X87090Y120300
X87090Y119411
X86201Y119411
X85312Y119411
X85312Y110775
X86201Y110775
X87090Y110775
X87090Y109886
X86201Y109886
X85312Y109886
X84105Y101694
X84105Y100805
X84105Y99916
X83216Y99916
X83216Y100805
X83216Y101694
X90836Y101694
X91725Y101694
X91725Y100805
X91725Y99916
X90836Y99916
X90836Y100805
X88550Y75024
X88550Y74135
X88550Y73246
X87661Y73246
X87661Y74135
X87661Y75024
X80930Y75024
X80930Y74135
X80930Y73246
X80041Y73246
X80041Y74135
X80041Y75024
X95281Y75024
X96170Y75024
X96170Y74135
X96170Y73246
X95281Y73246
X95281Y74135
X102901Y74135
X103790Y74135
X103790Y75024
X102901Y75024
X102901Y73246
X103790Y73246
X110521Y73246
X111410Y73246
X111410Y74135
X111410Y75024
X110521Y75024
X110521Y74135
T11
X50680Y128109
X36075Y113504
X28325Y94510
X21470Y128109
X36075Y142714
X43824Y161711
X102076Y67785
X97994Y67811
X96724Y67811
X95454Y67811
X89104Y67811
X83661Y81120
X79533Y85565
X73501Y84295
X75406Y95725
X71596Y95725
X86201Y88740
X93821Y92550
X98901Y92550
X94456Y86200
X95726Y82390
X98266Y82390
X100488Y82390
X101441Y82390
X102393Y82390
X113188Y90645
X113188Y93185
X116046Y95725
X119856Y95725
X112871Y112235
X99218Y123348
X99218Y125253
X93503Y122713
X95726Y112870
X97631Y112870
X97631Y110330
X93821Y110330
X93821Y107155
X78581Y123665
X75406Y140175
X78263Y142715
X78263Y145255
X82708Y152240
X87153Y152240
X93186Y153193
X96361Y149065
X97631Y152875
X98901Y154145
X99853Y154145
X100806Y154145
X100806Y152875
X100806Y155819
X99853Y155819
X98901Y155819
X99853Y158908
X103981Y158908
X105886Y158908
X105886Y159860
X105886Y157955
X107791Y156368
X111601Y156368
X111918Y150335
X117951Y151605
X119856Y140175
X116046Y140175
X105251Y147160
X103981Y152875
X100806Y149065
X100806Y164623
X90646Y164623
X76041Y153510
X69373Y159543
X71596Y140175
X74771Y67811
T12
X37345Y141444
X38615Y140174
X34805Y141444
X33535Y140174
X24010Y130649
X22740Y129379
X22740Y126839
X24010Y125569
X33535Y116044
X34805Y114774
X37345Y114774
X38615Y116044
X48140Y125569
X49410Y126839
X49410Y129379
X48140Y130649
T13
X46745Y156915
X53344Y156915
X25404Y99306
X18805Y99306
X85055Y92144
X78454Y92144
X106394Y143754
X112995Y143754
T14
X53448Y97111
X18691Y159224
T15
X18287Y75480
X17286Y73479
X16288Y75480
X15287Y73479
X14287Y75480
X13288Y73479
X12288Y75480
X13288Y70980
X14287Y68981
X15287Y70980
X16288Y68981
X17286Y70980
X18287Y68981
X21287Y70980
X22288Y68981
X23288Y70980
X24287Y68981
X25287Y70980
X26288Y68981
X27286Y70980
X28287Y68981
X29288Y70980
X30289Y68981
X31287Y70980
X31287Y73479
X30289Y75480
X29288Y73479
X28287Y75480
X27286Y73479
X26288Y75480
X25287Y73479
X24287Y75480
X23288Y73479
X22288Y75480
X21287Y73479
X12288Y68981
X40863Y68981
X41863Y70980
X42862Y68981
X43862Y70980
X44863Y68981
X45861Y70980
X46862Y68981
X49862Y70980
X50863Y68981
X51863Y70980
X52862Y68981
X53862Y70980
X54863Y68981
X55861Y70980
X56862Y68981
X57863Y70980
X58864Y68981
X59862Y70980
X59862Y73479
X58864Y75480
X57863Y73479
X56862Y75480
X55861Y73479
X54863Y75480
X53862Y73479
X52862Y75480
X51863Y73479
X50863Y75480
X49862Y73479
X46862Y75480
X45861Y73479
X44863Y75480
X43862Y73479
X42862Y75480
X41863Y73479
X40863Y75480
T16
X58300Y106011
X13850Y106011
X117951Y140051
X117951Y140051
X73501Y140051
X73501Y140051
T17
X18691Y93834
X18691Y91835
X18691Y89834
X18691Y87835
X18691Y85836
X20693Y85836
X20693Y87835
X20693Y89834
X20693Y91835
X20693Y93834
X20693Y83834
X20693Y81836
X20693Y79834
X18691Y79834
X18691Y81836
X18691Y83834
X51457Y83834
X51457Y81836
X51457Y79834
X53459Y79834
X53459Y81836
X53459Y83834
X53459Y85836
X53459Y87835
X53459Y89834
X53459Y91835
X53459Y93834
X51457Y93834
X51457Y91835
X51457Y89834
X51457Y87835
X51457Y85836
X51457Y162384
X51457Y164386
X51457Y166384
X51457Y168386
X51457Y170385
X51457Y172384
X51457Y174385
X51457Y176384
X53459Y176384
X53459Y174385
X53459Y172384
X53459Y170385
X53459Y168386
X53459Y166384
X53459Y164386
X53459Y162384
X20693Y162384
X20693Y164386
X20693Y166384
X20693Y168386
X20693Y170385
X20693Y172384
X20693Y174385
X20693Y176384
X18691Y176384
X18691Y174385
X18691Y172384
X18691Y170385
X18691Y168386
X18691Y166384
X18691Y164386
X18691Y162384
T18
X13850Y167116
X13850Y169115
X60205Y169110
X60205Y167111
T19
X52275Y105884
X19875Y150334
X74771Y150335
X74771Y147795
X74771Y145255
X74771Y142715
X72231Y142715
X72231Y145255
X72231Y147795
X72231Y150335
X72231Y93185
X74771Y93185
X74771Y90645
X74771Y88105
X74771Y85565
X72231Y85565
X72231Y88105
X72231Y90645
X116681Y90645
X119221Y90645
X119221Y93185
X116681Y93185
X116681Y88105
X119221Y88105
X119221Y85565
X116681Y85565
X116681Y142715
X119221Y142715
X119221Y145255
X119221Y147795
X119221Y150335
X116681Y150335
X116681Y147795
X116681Y145255
T20
X57030Y152874
X57030Y155414
X52275Y150334
X57030Y103344
X57030Y100804
X19875Y105884
X15120Y103344
X15120Y100804
X15120Y152874
X15120Y155414
T21
X19638Y72229
X10487Y72229
X39062Y72229
X48213Y72229
T22
X60840Y81119
X11310Y81119
X11310Y175099
X60840Y175099
X70961Y70960
X120491Y70960
X120491Y164940
X70961Y164940
T23
X89376Y149700
X89376Y148430
X90646Y148430
X90646Y149700
X89693Y140175
X89693Y139540
X88741Y137000
X88741Y136365
X84931Y135413
X83661Y135413
X80486Y138588
X80486Y139223
X80486Y129698
X80486Y129063
X83661Y125888
X84931Y125888
X88741Y126840
X88741Y127475
X89693Y130015
X89693Y130650
X89693Y121125
X89693Y120490
X88741Y117950
X88741Y117315
X84931Y116363
X83661Y116363
X80486Y119538
X80486Y120173
X80486Y110648
X80486Y110013
X82391Y104298
X83026Y104298
X85566Y103345
X86201Y103345
X90011Y104298
X90646Y104298
X93186Y103345
X93821Y103345
X88741Y107790
X88741Y108425
X89693Y110965
X89693Y111600
X95091Y117315
X95091Y118585
X96361Y118585
X96361Y117315
X101758Y115410
X101758Y114775
X102711Y117950
X102711Y118585
X106521Y119538
X107791Y119538
X110966Y116363
X110966Y115728
X107791Y110013
X106521Y110013
X102711Y109060
X102711Y108425
X101758Y105885
X101758Y105250
X102711Y99535
X102711Y98900
X101758Y96360
X101758Y95725
X106521Y100488
X107791Y100488
X110966Y97313
X110966Y96678
X110966Y106203
X110966Y106838
X101758Y124300
X101758Y124935
X102711Y127475
X102711Y128110
X101441Y131603
X100806Y131603
X98266Y132555
X97631Y132555
X99853Y140493
X100488Y140493
X104616Y142715
X107473Y140493
X108108Y140493
X110648Y141445
X105886Y132555
X105251Y132555
X108426Y131603
X109061Y131603
X110966Y125888
X110966Y125253
X91598Y95408
X90963Y95408
X86836Y93185
X83978Y95408
X83343Y95408
X80803Y94455
X90646Y84295
X91916Y84295
X91916Y83025
X90646Y83025
X87471Y77628
X86836Y77628
X90011Y76675
X90646Y76675
X91598Y72865
X90011Y71913
X90011Y71278
X94456Y77628
X95091Y77628
X97631Y76675
X98266Y76675
X99218Y72865
X97631Y71913
X97631Y71278
X102076Y77628
X102711Y77628
X105251Y76675
X105886Y76675
X106838Y72865
X105251Y71913
X105251Y71278
X109696Y77628
X110331Y77628
X112871Y76675
X113506Y76675
X112871Y71913
X112871Y71278
X102076Y86200
X102076Y87470
X100806Y87470
X100806Y86200
X83978Y72865
X82391Y71913
X82391Y71278
X82391Y76675
X83026Y76675
X79851Y77628
X79216Y77628
X110981Y165390
T24
X113188Y141445
X111918Y141445
X113188Y147795
X84931Y151351
X82708Y150335
X82708Y147795
X80486Y151351
X78263Y150335
X78263Y147795
X78263Y94455
X79533Y94455
X78263Y88105
X106521Y84549
X108743Y85565
X108743Y88105
X110966Y84549
X113188Y85565
X113188Y88105
T25
X73501Y91915
X73501Y143985
X73501Y146525
X93821Y159860
X97631Y159860
X117951Y143985
X117951Y91915
X117951Y89375
M30
