M48
FMAT,2
ICI,OFF
METRIC,TZ,000.0000
T01C0.2540
T02C0.3302
T03C0.3505
T04C0.5003
T05C1.1252
T06C1.2242
T07C2.6009
T08C0.2032
T09C1.0160
T10C0.3810
T11C0.4064
T12C0.6096
T13C0.6350
T14C0.7112
T15C0.7366
T16C0.8128
T17C0.9144
T18C1.0922
T19C1.1176
T20C1.1938
T21C2.1590
T22C3.1750
T23C0.3048
T24C0.3556
%
G90
M71
T01
X81350Y106750
X96946Y113100
X101670Y101670
X113100Y96946
X124530Y101670
X129254Y113100
X124530Y124530
X113100Y129254
X101670Y124530
X81350Y132150
X81350Y157550
X81350Y182950
X81350Y208350
X81350Y233750
X81350Y259150
X113100Y231210
X108020Y226130
X137230Y235020
X155010Y214700
X134690Y193110
X134690Y180410
X155010Y186760
X168599Y189300
X181299Y189300
X193999Y189300
X206699Y189300
X219399Y182950
X232099Y182950
X244799Y182950
X257499Y182950
X270199Y182950
X282899Y189300
X295599Y182950
X308299Y182950
X320999Y182950
X333699Y182950
X346399Y189300
X359099Y189300
X371799Y182950
X384499Y182950
X397199Y182950
X409899Y182950
X422599Y182950
X435299Y189300
X447999Y182950
X460699Y182950
X473399Y182950
X486099Y189300
X498799Y189300
X511499Y189300
X517849Y189300
X524199Y189300
X536899Y189300
X518255Y174060
X518255Y143580
X528238Y143580
X538245Y143580
X533241Y133420
X523259Y133420
X513252Y133420
X503244Y133420
X498240Y137230
X488258Y133420
X483254Y137230
X473247Y133420
X468243Y137230
X463239Y143580
X458261Y133420
X453257Y137230
X448253Y143580
X443249Y133420
X438245Y137230
X433242Y143580
X428238Y133420
X423259Y137230
X418256Y143580
X413252Y133420
X408248Y137230
X403244Y143580
X398240Y133420
X393262Y137230
X388258Y143580
X383254Y133420
X378251Y137230
X373247Y143580
X368243Y133420
X363239Y137230
X358261Y143580
X353257Y133420
X348253Y137230
X343249Y143580
X338246Y133420
X333242Y137230
X328238Y143580
X323260Y133420
X318256Y137230
X313252Y143580
X308248Y133420
X303244Y137230
X298241Y143580
X293262Y133420
X288258Y137230
X282899Y143580
X278251Y133420
X273247Y137230
X268243Y143580
X263239Y133420
X258261Y137230
X253257Y143580
X248253Y133420
X243250Y137230
X238246Y143580
X233242Y133420
X228238Y137230
X223260Y143580
X218256Y133420
X213252Y137230
X200781Y132150
X208248Y100400
X223260Y100400
X238246Y100400
X253257Y100400
X268243Y100400
X259150Y81350
X284550Y81350
X298241Y100400
X313252Y100400
X328238Y100400
X343249Y100400
X358261Y100400
X373247Y100400
X388258Y100400
X403244Y100400
X418256Y100400
X411550Y81350
X386150Y81350
X360750Y81350
X335350Y81350
X309950Y81350
X233750Y81350
X208350Y81350
X193262Y100400
X182950Y81350
X157550Y81350
X132150Y81350
X106750Y81350
X87700Y87700
X116275Y165043
X219399Y202000
X232099Y202000
X244799Y202000
X257499Y202000
X270199Y202000
X295599Y202000
X308299Y202000
X320999Y202000
X333699Y202000
X371799Y202000
X384499Y202000
X397199Y202000
X409899Y202000
X422599Y202000
X447999Y202000
X460699Y202000
X473399Y202000
X574110Y186760
X574110Y180410
X575380Y167710
X610889Y190570
X617290Y190570
X640150Y182950
X640150Y208350
X617290Y226130
X610940Y226130
X604590Y226130
X598240Y226130
X591890Y214700
X573932Y226130
X573932Y235020
X591890Y259150
X598240Y270580
X604590Y270580
X610940Y270580
X617290Y270580
X617290Y279470
X610940Y279470
X640150Y284550
X640150Y309950
X617290Y315030
X610940Y315030
X604590Y315030
X598240Y315030
X591890Y303600
X573932Y315030
X568243Y344596
X556813Y349320
X552088Y360750
X556813Y372180
X568243Y376904
X579673Y372180
X584422Y360750
X579673Y349320
X640150Y360750
X640150Y386150
X640150Y411550
X640150Y436950
X613480Y439490
X616020Y449015
X616020Y455365
X616020Y461715
X616020Y468065
X621100Y477590
X640150Y487750
X640150Y462350
X613480Y426434
X591890Y423615
X591890Y429965
X591890Y417265
X591890Y410915
X586810Y402660
X558870Y417265
X558870Y423615
X558870Y429965
X569284Y440760
X575380Y440760
X580460Y449015
X580460Y455365
X580460Y461715
X580460Y468065
X562299Y481400
X552139Y481400
X544519Y452190
X537280Y434512
X524199Y443300
X511499Y443300
X511499Y452190
X505149Y452190
X498799Y443300
X486099Y443300
X473399Y519500
X460699Y519500
X447999Y519500
X439109Y538550
X423234Y538550
X409899Y538550
X397199Y538550
X384499Y538550
X371799Y538550
X352749Y538550
X333699Y538550
X320999Y538550
X308299Y538550
X295599Y538550
X282899Y532200
X270199Y538550
X257499Y538550
X244799Y538550
X232099Y538550
X219399Y532200
X206699Y532200
X193999Y532200
X181299Y532200
X168599Y532200
X147390Y534740
X147390Y541090
X147390Y553790
X183255Y577920
X193262Y577920
X203245Y577920
X213252Y577920
X218256Y588080
X223260Y584270
X228238Y577920
X233242Y588080
X238246Y584270
X243250Y577920
X248253Y588080
X253257Y584270
X258261Y577920
X263239Y588080
X268243Y584270
X273247Y577920
X278251Y588080
X283255Y584270
X288258Y577920
X293262Y588080
X298241Y584270
X303244Y577920
X308248Y588080
X313252Y584270
X318256Y577920
X323260Y588080
X328238Y584270
X332429Y577920
X338246Y588080
X343249Y584270
X348253Y577920
X353257Y588080
X358261Y584270
X363239Y577920
X368243Y588080
X373247Y584270
X378251Y577920
X383254Y588080
X388258Y584270
X393262Y577920
X398240Y588080
X403244Y584270
X408248Y577920
X413252Y588080
X418256Y584270
X423259Y577920
X428238Y588080
X433242Y584270
X438245Y577920
X443249Y588080
X448253Y584270
X453257Y577920
X458261Y588080
X463239Y584270
X468243Y577920
X473247Y588080
X478250Y583991
X483254Y577920
X488258Y588080
X493262Y583991
X498240Y577920
X503244Y588080
X508248Y583991
X514420Y577920
X518281Y593211
X533241Y595700
X538245Y588080
X528238Y621100
X513252Y621100
X498240Y621100
X483254Y621100
X468243Y621100
X453257Y621100
X462350Y640150
X436950Y640150
X423259Y621100
X408248Y621100
X393262Y621100
X378251Y621100
X363239Y621100
X348253Y621100
X333242Y621100
X318256Y621100
X303244Y621100
X309950Y640150
X335350Y640150
X360750Y640150
X386150Y640150
X411550Y640150
X487750Y640150
X513150Y640150
X538550Y640150
X563950Y640150
X589350Y640150
X608400Y624554
X596970Y619830
X592246Y608400
X596970Y596970
X608400Y592246
X619830Y596970
X624554Y608400
X619830Y619830
X633800Y633800
X614750Y640150
X640150Y614750
X640150Y589350
X640150Y563950
X640150Y538550
X640150Y513150
X616020Y502990
X602050Y525850
X581349Y516325
X581730Y539820
X576650Y544900
X588715Y561359
X551504Y525850
X545154Y532200
X533724Y532200
X511499Y532200
X498799Y532200
X486099Y532200
X474669Y538550
X491890Y546170
X503244Y546170
X456889Y538550
X422599Y519500
X409899Y519500
X397199Y519500
X384499Y519500
X371799Y519500
X333699Y519500
X320999Y519500
X308299Y519500
X295599Y519500
X270199Y519500
X257499Y519500
X244799Y519500
X232099Y519500
X203245Y547440
X198241Y588080
X188259Y588080
X208248Y588080
X213252Y621100
X228238Y621100
X243250Y621100
X258261Y621100
X273247Y621100
X284550Y640150
X259150Y640150
X233750Y640150
X208350Y640150
X182950Y640150
X157550Y640150
X132150Y640150
X113100Y624554
X101670Y619830
X96946Y608400
X101670Y596970
X113100Y592246
X124530Y596970
X129254Y608400
X124530Y619830
X106750Y640150
X87700Y633800
X81350Y614750
X81350Y589350
X81350Y563950
X81350Y538550
X104210Y530930
X110611Y530930
X129610Y506800
X123260Y495370
X116910Y495370
X110560Y495370
X104210Y495370
X104210Y486480
X110560Y486480
X81350Y487750
X81350Y462350
X104210Y450920
X110560Y450920
X116910Y450920
X123260Y450920
X110560Y442030
X104210Y442030
X81350Y436950
X81350Y411550
X104210Y406470
X110560Y406470
X116910Y406470
X123260Y406470
X129610Y417900
X147568Y406470
X136849Y376904
X148279Y372180
X153003Y360750
X148279Y349320
X136849Y344596
X125419Y349320
X120695Y360750
X125419Y372180
X98749Y373450
X92399Y360750
X81350Y360750
X98749Y348050
X92399Y335350
X81350Y335350
X81350Y309950
X104210Y306140
X124530Y301060
X124530Y311220
X134690Y279470
X134690Y269310
X155010Y274390
X168599Y278200
X181299Y278200
X193999Y278200
X206699Y278200
X219399Y278200
X227019Y278200
X234639Y278200
X155188Y252622
X81350Y284550
X81350Y386150
X92399Y386150
X147568Y442030
X147568Y450920
X129610Y462350
X147568Y486480
X147568Y495370
X168599Y443300
X177489Y443300
X185109Y443300
X192729Y443300
X200349Y443300
X213049Y443300
X81350Y513150
X486099Y278200
X498799Y278200
X511499Y278200
X524199Y278200
X536899Y278200
X573932Y279470
X573932Y270580
X610940Y235020
X617290Y235020
X640150Y233750
X640150Y259150
X640150Y335350
X640150Y157550
X640150Y132150
X619830Y124530
X608400Y129254
X596970Y124530
X592246Y113100
X596970Y101670
X608400Y96946
X619830Y101670
X624554Y113100
X640150Y106750
X633800Y87700
X614750Y81350
X589350Y81350
X563950Y81350
X538550Y81350
X513150Y81350
X487750Y81350
X493262Y100400
X478250Y100400
X463239Y100400
X448253Y100400
X436950Y81350
X462350Y81350
X508248Y100400
X621097Y1674792
X924238Y1428423
X871533Y1458903
X842958Y1614478
X842958Y1620828
X836608Y1620828
X820733Y1649403
X820733Y1658928
X814383Y1658928
X801683Y1649403
X766758Y1620828
X766758Y1614478
X760408Y1620828
X877883Y1649403
X890583Y1658928
X896933Y1658928
X896933Y1649403
T02
X170250Y608400
X390745Y1732095
X383252Y1732095
X375759Y1732095
X368240Y1732095
X360747Y1732095
X353254Y1732095
X345761Y1732095
X338243Y1732095
X330750Y1732095
X330750Y830090
X338243Y830090
X345761Y830090
X353254Y830090
X360747Y830090
X368240Y830090
X375759Y830090
X383252Y830090
X390745Y830090
X1033458Y1503353
X1014408Y1281103
X931858Y1154103
X773108Y1077903
X877883Y855653
X887408Y811203
X773108Y842953
X1217608Y1327508
T03
X168599Y506800
X168599Y494100
X181299Y494100
X181299Y506800
X193999Y506800
X193999Y494100
X206699Y494100
X206699Y506800
X219399Y506800
X219399Y494100
X232099Y494100
X232099Y506800
X244799Y506800
X244799Y494100
X257499Y494100
X257499Y506800
X270199Y506800
X270199Y494100
X282899Y494100
X282899Y506800
X295599Y506800
X295599Y494100
X308299Y494100
X308299Y506800
X320999Y506800
X320999Y494100
X333699Y494100
X333699Y506800
X346399Y506800
X346399Y494100
X359099Y494100
X359099Y506800
X371799Y506800
X371799Y494100
X384499Y494100
X384499Y506800
X397199Y506800
X397199Y494100
X409899Y494100
X409899Y506800
X422599Y506800
X422599Y494100
X435299Y494100
X435299Y506800
X447999Y506800
X447999Y494100
X460699Y494100
X460699Y506800
X473399Y506800
X473399Y494100
X486099Y494100
X486099Y506800
X498799Y506800
X498799Y494100
X511499Y494100
X511499Y506800
X524199Y506800
X524199Y494100
X524199Y481400
X511499Y481400
X498799Y481400
X486099Y481400
X473399Y481400
X460699Y481400
X447999Y481400
X435299Y481400
X422599Y481400
X409899Y481400
X397199Y481400
X384499Y481400
X371799Y481400
X359099Y481400
X346399Y481400
X333699Y481400
X320999Y481400
X308299Y481400
X295599Y481400
X282899Y481400
X270199Y481400
X257499Y481400
X244799Y481400
X232099Y481400
X219399Y481400
X206699Y481400
X193999Y481400
X181299Y481400
X168599Y481400
X168599Y468700
X181299Y468700
X193999Y468700
X206699Y468700
X219399Y468700
X232099Y468700
X244799Y468700
X257499Y468700
X270199Y468700
X282899Y468700
X295599Y468700
X308299Y468700
X320999Y468700
X333699Y468700
X346399Y468700
X359099Y468700
X371799Y468700
X384499Y468700
X397199Y468700
X409899Y468700
X422599Y468700
X435299Y468700
X447999Y468700
X460699Y468700
X473399Y468700
X486099Y468700
X498799Y468700
X511499Y468700
X524199Y468700
X536899Y468700
X536899Y481400
X536899Y494100
X536899Y506800
X536899Y252800
X524199Y252800
X511499Y252800
X498799Y252800
X486099Y252800
X473399Y252800
X460699Y252800
X447999Y252800
X435299Y252800
X422599Y252800
X409899Y252800
X397199Y252800
X384499Y252800
X371799Y252800
X359099Y252800
X346399Y252800
X333699Y252800
X320999Y252800
X308299Y252800
X295599Y252800
X282899Y252800
X270199Y252800
X257499Y252800
X244799Y252800
X232099Y252800
X219399Y252800
X206699Y252800
X193999Y252800
X181299Y252800
X168599Y252800
X168599Y240100
X181299Y240100
X193999Y240100
X206699Y240100
X206699Y227400
X193999Y227400
X181299Y227400
X168599Y227400
X181299Y214700
X193999Y214700
X206699Y214700
X219399Y214700
X219399Y227400
X232099Y227400
X232099Y214700
X244799Y214700
X244799Y227400
X257499Y227400
X257499Y214700
X270199Y214700
X270199Y227400
X282899Y227400
X282899Y214700
X295599Y214700
X295599Y227400
X308299Y227400
X308299Y214700
X320999Y214700
X320999Y227400
X333699Y227400
X333699Y214700
X346399Y214700
X346399Y227400
X359099Y227400
X359099Y214700
X371799Y214700
X371799Y227400
X384499Y227400
X384499Y214700
X397199Y214700
X397199Y227400
X409899Y227400
X409899Y214700
X422599Y214700
X422599Y227400
X435299Y227400
X435299Y214700
X447999Y214700
X460699Y214700
X460699Y227400
X460699Y240100
X473399Y240100
X486099Y240100
X498799Y240100
X511499Y240100
X524199Y240100
X524199Y227400
X511499Y227400
X498799Y227400
X486099Y227400
X473399Y227400
X473399Y214700
X486099Y214700
X498799Y214700
X511499Y214700
X524199Y214700
X536899Y214700
X536899Y227400
X536899Y240100
X435299Y240100
X422599Y240100
X409899Y240100
X397199Y240100
X384499Y240100
X371799Y240100
X359099Y240100
X346399Y240100
X333699Y240100
X320999Y240100
X308299Y240100
X295599Y240100
X282899Y240100
X270199Y240100
X257499Y240100
X244799Y240100
X232099Y240100
X219399Y240100
T04
X94050Y538550
X627450Y182950
T05
X552749Y138500
X168751Y583000
X1179500Y522751
X765251Y583000
X735000Y198749
X1149249Y138500
T06
X552749Y583000
X168751Y138500
X1179500Y198749
X765251Y138500
X735000Y522751
X1149249Y583000
T07
X113100Y113100
X136849Y360750
X113100Y608400
X568243Y360750
X608400Y608400
X608400Y113100
X1204900Y608400
X709600Y608400
X709600Y113100
X1204900Y113100
T08
X677850Y106750
X693446Y113100
X698170Y101670
X709600Y96946
X721030Y101670
X725754Y113100
X721030Y124530
X709600Y129254
X698170Y124530
X677850Y132150
X696900Y170250
X677850Y182950
X677850Y208350
X699440Y213252
X699440Y228238
X693725Y240760
X677850Y233750
X677850Y259150
X693725Y278251
X677850Y284550
X693725Y300755
X677850Y309950
X693725Y323260
X693725Y338246
X677850Y335350
X677850Y360750
X693725Y360750
X693725Y383254
X693725Y398240
X677850Y386150
X677850Y411550
X693725Y420745
X677850Y436950
X693725Y449650
X677850Y462350
X693725Y481070
X677850Y487750
X693725Y500450
X677850Y513150
X677850Y538550
X696900Y551250
X709600Y541725
X719125Y522675
X721665Y508248
X726110Y503244
X721665Y498240
X728650Y487750
X726110Y473247
X721665Y468243
X726110Y463239
X741350Y465855
X751510Y463239
X770560Y458261
X779450Y459175
X770560Y468243
X779450Y478225
X792150Y471875
X804850Y465525
X817550Y459175
X830250Y452825
X842950Y446475
X830250Y433775
X817550Y440125
X804850Y446475
X792150Y452825
X779450Y440125
X792150Y433775
X804850Y427425
X817550Y421075
X830250Y414725
X842950Y408375
X830250Y395675
X817550Y402025
X804850Y408375
X795325Y398850
X804850Y389325
X817550Y382975
X804850Y370275
X785800Y369640
X773100Y382975
X773100Y398850
X773100Y414725
X779450Y421075
X792150Y414725
X741350Y424250
X728650Y421405
X725526Y408248
X721716Y403244
X725526Y393262
X721716Y388258
X725526Y378251
X721716Y373247
X735000Y376625
X735000Y360750
X725526Y348253
X721716Y343249
X725526Y333242
X721716Y328238
X725526Y318256
X721716Y313252
X728650Y300755
X741350Y297250
X725526Y288258
X721716Y283255
X728650Y278200
X741350Y278200
X779450Y281375
X792150Y287725
X804850Y294075
X817550Y300425
X830250Y306775
X842950Y313125
X830250Y325825
X817550Y319475
X804850Y313125
X795325Y322650
X804850Y332175
X817550Y338525
X804850Y351225
X792150Y338525
X779450Y351860
X773100Y338525
X773100Y322650
X773100Y306775
X779450Y300425
X792150Y306775
X817550Y281375
X804850Y275025
X817550Y262325
X804850Y255975
X792150Y249625
X779450Y243275
X792150Y230575
X779450Y224225
X770560Y223260
X751510Y228238
X751510Y218256
X728650Y228187
X718490Y218256
X728650Y240100
X741350Y240100
X779450Y262325
X792150Y268675
X817550Y243275
X804850Y236925
X817550Y224225
X804850Y217875
X792150Y211525
X779450Y205175
X792150Y192475
X801675Y182950
X804850Y198825
X817550Y205175
X830250Y211525
X842950Y217875
X855650Y224225
X868350Y230575
X881050Y236925
X893750Y224225
X900100Y214700
X900100Y198825
X900100Y182950
X884225Y198825
X868350Y192475
X855650Y186125
X839775Y182950
X830250Y192475
X820725Y182950
X842950Y198825
X855650Y205175
X868350Y211525
X881050Y217875
X855650Y243275
X868350Y249625
X855650Y262325
X842950Y255975
X830250Y249625
X842950Y236925
X830250Y230575
X830250Y268675
X842950Y275025
X830250Y287725
X842950Y294075
X735000Y322650
X735000Y338525
X735000Y398850
X721716Y433242
X725526Y438245
X728650Y449650
X741350Y443300
X751485Y490773
X770560Y490747
X770560Y498240
X779450Y497275
X792150Y490925
X804850Y484575
X817550Y478225
X830250Y471875
X842950Y465525
X855650Y478225
X868350Y490925
X855650Y497275
X842950Y503625
X830250Y509975
X817550Y516325
X804850Y522675
X804850Y538550
X820725Y538550
X833425Y532200
X849300Y529025
X868350Y529025
X877875Y538550
X881050Y522675
X868350Y509975
X881050Y503625
X906450Y529025
X915975Y538550
X906450Y566490
X925500Y566490
X929742Y590747
X924738Y596970
X919760Y600780
X909752Y596970
X904748Y600780
X894741Y596970
X889762Y600780
X879755Y596970
X874751Y600780
X869747Y590747
X884758Y590747
X899744Y590747
X914756Y590747
X934746Y600780
X939749Y596970
X944753Y590747
X957250Y589350
X963600Y583000
X969950Y566490
X982650Y566490
X982650Y583000
X1001700Y583000
X1001700Y566490
X1020750Y566490
X1033450Y566490
X1052500Y566490
X1065200Y566490
X1055675Y583000
X1049757Y586607
X1044753Y596970
X1039749Y600780
X1029742Y596970
X1024738Y600780
X1019759Y590747
X1034745Y590747
X1069747Y600755
X1084758Y600755
X1099744Y600755
X1104748Y590747
X1089762Y590747
X1112241Y570757
X1134745Y593160
X1129741Y600780
X1119759Y600755
X1144575Y608400
X1150925Y608400
X1150925Y621100
X1144575Y621100
X1163625Y621100
X1169975Y621100
X1169975Y608400
X1163625Y608400
X1188746Y608400
X1193470Y619830
X1204900Y624554
X1216330Y619830
X1221054Y608400
X1216330Y596970
X1204900Y592246
X1193470Y596970
X1179500Y583000
X1217600Y551250
X1236650Y538550
X1236650Y513150
X1215060Y508248
X1221410Y493262
X1236650Y487750
X1215060Y473374
X1215060Y463214
X1215060Y456864
X1220775Y443249
X1236650Y436950
X1220775Y420745
X1236650Y411550
X1220775Y398240
X1220775Y383254
X1236650Y386150
X1236650Y360750
X1220775Y360750
X1192784Y348253
X1188974Y343249
X1192784Y333242
X1188974Y328238
X1192784Y318256
X1188974Y313252
X1185850Y300755
X1173150Y294075
X1173150Y278200
X1186053Y271875
X1188974Y283255
X1192784Y288258
X1220775Y300755
X1236650Y309950
X1220775Y323260
X1220775Y338246
X1236650Y335350
X1188974Y373247
X1192784Y378251
X1188974Y388258
X1192784Y393262
X1188974Y403244
X1192784Y408248
X1179500Y398240
X1179500Y383254
X1179500Y360750
X1179500Y338246
X1179500Y323260
X1138225Y309950
X1125525Y316300
X1131875Y322650
X1125525Y335350
X1112825Y341700
X1122350Y351225
X1138225Y351860
X1138225Y369640
X1142238Y383254
X1128700Y382975
X1122350Y370275
X1116000Y376625
X1103300Y389325
X1116000Y395675
X1128700Y402025
X1116000Y414725
X1128700Y421075
X1142238Y420745
X1142238Y413252
X1142238Y398240
X1103300Y408375
X1090600Y402025
X1077900Y414725
X1090600Y421075
X1103300Y427425
X1116000Y433775
X1128700Y440125
X1116000Y452825
X1103300Y446475
X1090600Y440125
X1077900Y433775
X1065200Y427425
X1052500Y440125
X1065200Y446475
X1077900Y452825
X1090600Y459175
X1103300Y465525
X1112241Y470757
X1112241Y480740
X1122248Y475761
X1142238Y463747
X1142238Y453257
X1142238Y438245
X1169746Y443249
X1179703Y443325
X1188974Y433242
X1192784Y438245
X1186053Y424275
X1173353Y424275
X1236650Y462350
X1196010Y503244
X1185850Y493313
X1162990Y493262
X1162990Y503244
X1143940Y498240
X1090600Y478225
X1077900Y471875
X1065200Y465525
X1052500Y459175
X1039800Y452825
X1027100Y465525
X1039800Y471875
X1052500Y478225
X1065200Y484575
X1077900Y490925
X1084250Y503625
X1071550Y516325
X1065200Y503625
X1052500Y497275
X1039800Y490925
X1027100Y484575
X1014400Y478225
X1001700Y490925
X992175Y494100
X985825Y506800
X973125Y500450
X960425Y513150
X973125Y519500
X985825Y525850
X979754Y535959
X974751Y539769
X964743Y535959
X959739Y539769
X947725Y538550
X954075Y525850
X998525Y519500
X1014400Y522675
X1017575Y513150
X1027100Y503625
X1014400Y497275
X1004875Y506800
X1030275Y519500
X1039800Y509975
X1052500Y516325
X1046150Y525850
X1044753Y535756
X1029742Y535756
X1014756Y535756
X999744Y535756
X1065200Y535375
X1144245Y544900
X1236650Y589350
X1236650Y614750
X1230300Y633800
X1211250Y640150
X1185850Y640150
X1160450Y640150
X1135050Y640150
X1109650Y640150
X1109752Y626180
X1094740Y626180
X1079754Y626180
X1064743Y626180
X1049757Y626180
X1034745Y626180
X1019759Y626180
X1004748Y626180
X989762Y626180
X974751Y626180
X959739Y626180
X957250Y640150
X944753Y626180
X929742Y626180
X931850Y640150
X914756Y626180
X899744Y626180
X884758Y626180
X869747Y626180
X854761Y626180
X839750Y626180
X824738Y626180
X809752Y626180
X804850Y640150
X830250Y640150
X855650Y640150
X881050Y640150
X906450Y640150
X849300Y592525
X824738Y590747
X819760Y596970
X814756Y600780
X804748Y593160
X809752Y585743
X794741Y593160
X789762Y600780
X784759Y593160
X779755Y600780
X769925Y608400
X763575Y608400
X763575Y621100
X769925Y621100
X750875Y621100
X744525Y621100
X744525Y608400
X750875Y608400
X725754Y608400
X721030Y619830
X709600Y624554
X698170Y619830
X693446Y608400
X698170Y596970
X709600Y592246
X721030Y596970
X735000Y583000
X740080Y560775
X741350Y555060
X747700Y554425
X779755Y540125
X776910Y530143
X792150Y509975
X804850Y503625
X817550Y497275
X830250Y490925
X842950Y484575
X842950Y427425
X836600Y567125
X849300Y567125
X868350Y567125
X887400Y567125
X823900Y573475
X817550Y567125
X804850Y576650
X799745Y600780
X779450Y640150
X754050Y640150
X728650Y640150
X703250Y640150
X684200Y633800
X677850Y614750
X677850Y589350
X982650Y640150
X1008050Y640150
X1033450Y640150
X1058850Y640150
X1084250Y640150
X1100125Y329000
X1087425Y316300
X1100125Y309950
X1112825Y303600
X1125525Y297250
X1131875Y284550
X1125525Y278200
X1112825Y284550
X1100125Y290900
X1087425Y297250
X1074725Y303600
X1062025Y290900
X1074725Y284550
X1087425Y278200
X1100125Y271850
X1112825Y265500
X1125525Y259150
X1112825Y246450
X1100125Y252800
X1087425Y259150
X1074725Y265500
X1062025Y271850
X1049325Y278200
X1036625Y265500
X1023925Y259150
X1017575Y246450
X1011225Y240100
X1004875Y246450
X996391Y248126
X994766Y254197
X989000Y259150
X979475Y246450
X992175Y240100
X998525Y227400
X992175Y221050
X982650Y211525
X969950Y217875
X979475Y227400
X966775Y233750
X944550Y211525
X931850Y198825
X944550Y192475
X928675Y182950
X924738Y156280
X939749Y156280
X950900Y138500
X957250Y132150
X969747Y130753
X974751Y124530
X979754Y120720
X984758Y130753
X999744Y130753
X1004748Y124530
X1009752Y120720
X1014756Y130753
X1029742Y130753
X1034745Y124530
X1039749Y120720
X1049757Y124530
X1054761Y120720
X1059739Y130753
X1044753Y130753
X1044753Y156280
X1029742Y156280
X1014756Y156280
X999744Y156280
X984758Y156280
X969747Y156280
X939749Y130753
X929742Y124530
X934746Y120720
X924738Y130753
X915975Y138500
X909752Y130753
X899744Y124530
X904748Y120720
X894741Y130753
X887400Y138500
X879755Y130753
X869747Y124530
X874751Y120720
X864743Y134893
X858825Y138500
X839750Y124530
X844753Y120720
X829742Y120720
X824738Y124530
X819760Y130753
X808025Y138500
X804748Y156280
X819760Y156280
X834746Y156280
X834746Y130753
X794741Y120745
X784759Y120720
X779755Y128340
X769925Y113100
X763575Y113100
X763575Y100400
X769925Y100400
X750875Y100400
X744525Y100400
X744525Y113100
X750875Y113100
X735000Y138500
X770255Y176600
X804748Y95320
X819760Y95320
X834746Y95320
X849757Y95320
X864743Y95320
X879678Y95320
X894741Y95320
X909752Y95320
X924738Y95320
X939749Y95320
X954761Y95320
X957250Y81350
X969747Y95320
X984758Y95320
X982650Y81350
X999744Y95320
X1014756Y95320
X1029665Y95320
X1044753Y95320
X1059739Y95320
X1074750Y95320
X1089762Y95320
X1104748Y95320
X1109650Y81350
X1084250Y81350
X1058850Y81350
X1033450Y81350
X1008050Y81350
X931850Y81350
X906450Y81350
X881050Y81350
X855650Y81350
X830250Y81350
X804850Y81350
X779450Y81350
X754050Y81350
X728650Y81350
X703250Y81350
X684200Y87700
X879755Y156280
X969950Y182950
X969950Y198825
X989000Y198825
X995350Y205175
X1004875Y195650
X1011225Y202000
X1020750Y192475
X1014400Y186125
X1030275Y182950
X1030275Y202000
X1023925Y214700
X1017575Y227400
X1004875Y214700
X1023925Y240100
X1036625Y246450
X1049325Y240100
X1062025Y233750
X1074725Y227400
X1087425Y221050
X1074725Y208350
X1062025Y214700
X1049325Y221050
X1042975Y214700
X1036625Y227400
X1049325Y202000
X1062025Y195650
X1062025Y182950
X1059739Y156280
X1097839Y130880
X1109752Y128340
X1114755Y120720
X1119759Y128340
X1124738Y120720
X1129741Y128340
X1134745Y120720
X1144575Y113100
X1150925Y113100
X1150925Y100400
X1144575Y100400
X1163625Y100400
X1169975Y100400
X1169975Y113100
X1163625Y113100
X1188746Y113100
X1193470Y101670
X1204900Y96946
X1216330Y101670
X1221054Y113100
X1216330Y124530
X1204900Y129254
X1193470Y124530
X1179500Y138500
X1217600Y170250
X1204900Y182950
X1204900Y202000
X1196010Y213252
X1188390Y218256
X1196010Y223260
X1185850Y236925
X1188390Y248253
X1196010Y253257
X1188390Y258261
X1173150Y255975
X1162990Y258261
X1143940Y263239
X1138225Y268675
X1143940Y253257
X1141400Y240100
X1143940Y230753
X1143940Y223260
X1163015Y230727
X1137590Y191357
X1134745Y181375
X1109650Y144850
X1135050Y81350
X1160450Y81350
X1185850Y81350
X1211250Y81350
X1230300Y87700
X1236650Y106750
X1236650Y132150
X1236650Y182950
X1236650Y208350
X1236650Y233750
X1217600Y240100
X1236650Y259150
X1236650Y284550
X1112825Y322650
X1062025Y252800
X1074725Y246450
X1087425Y240100
X1100125Y233750
X1049325Y259150
X1004875Y259150
X633797Y684192
X633797Y722292
X633797Y760392
X622367Y797222
X628159Y811192
X622367Y825162
X608397Y830954
X605222Y842942
X605222Y861992
X605222Y881042
X621097Y881042
X633797Y881042
X624272Y861992
X621097Y900092
X633797Y900092
X633797Y919142
X621097Y919142
X608397Y919142
X608397Y900092
X608397Y938192
X621097Y938192
X633797Y938192
X633797Y957242
X621097Y957242
X621097Y976292
X633797Y976292
X633797Y995342
X621097Y995342
X621097Y1014392
X633797Y1014392
X633797Y1033442
X621097Y1033442
X621097Y1052492
X633797Y1052492
X633797Y1071542
X621097Y1071542
X617287Y1085106
X608397Y1071542
X602047Y1052492
X602047Y1033442
X608397Y1014392
X608397Y995342
X608397Y969942
X557597Y908347
X549571Y918355
X549571Y938345
X524577Y938345
X524577Y918355
X524577Y895851
X524577Y875861
X524577Y855846
X524577Y835856
X524577Y815841
X549571Y798340
X548072Y785792
X557597Y808348
X567122Y785792
X570297Y804842
X570297Y823892
X588636Y811192
X594427Y797222
X586172Y785792
X588636Y766742
X568621Y766742
X546117Y766742
X528616Y766742
X508626Y766742
X488128Y754042
X469078Y766742
X465522Y785792
X465522Y809287
X478222Y808348
X490922Y808348
X499584Y798340
X490922Y828363
X478222Y828363
X465522Y828363
X465522Y848353
X478222Y848353
X490922Y848353
X490922Y868342
X478222Y868342
X465522Y868342
X465522Y888358
X478222Y888358
X490922Y888358
X490922Y908347
X478222Y908347
X478222Y918355
X465522Y918355
X465522Y908347
X449647Y900092
X449647Y880103
X449647Y865167
X449647Y855109
X449647Y840098
X449647Y825112
X443297Y804842
X430597Y792142
X420742Y810608
X425238Y815104
X425238Y825112
X420742Y830090
X425238Y835094
X420742Y840098
X425238Y845101
X425238Y855109
X425238Y865091
X425238Y875099
X420742Y880103
X425238Y885106
X425238Y895089
X420742Y900092
X425238Y905096
X420742Y910100
X425238Y915104
X425238Y925111
X420742Y939589
X405756Y939589
X405756Y926102
X385741Y936110
X385741Y962094
X385741Y971212
X376622Y982642
X376622Y990999
X358207Y1014392
X351222Y1014392
X338522Y1014392
X338522Y1008042
X338522Y1001692
X319472Y1008042
X306772Y1014392
X294072Y1014392
X281372Y1014392
X268672Y1014392
X268672Y995342
X281372Y995342
X294072Y995342
X306772Y995342
X306747Y976292
X296054Y965599
X286529Y956074
X278197Y966767
X287722Y976292
X274997Y982642
X262297Y969942
X268647Y957242
X272000Y940555
X255617Y937227
X243247Y937227
X249597Y957242
X230547Y957242
X230547Y969942
X233544Y977562
X238548Y973752
X243552Y977562
X255947Y982642
X223537Y977562
X218558Y973752
X213554Y977562
X208551Y973752
X203547Y977562
X195622Y969942
X186097Y976292
X180103Y963592
X170222Y973117
X163872Y995342
X163872Y1020742
X176572Y1027092
X167047Y1049317
X163897Y1071542
X180738Y1089094
X180738Y1105096
X180738Y1121098
X172787Y1125111
X172787Y1133112
X180738Y1141113
X196740Y1141113
X204741Y1141113
X214697Y1138217
X227397Y1144567
X214697Y1157267
X204741Y1161103
X201997Y1169967
X192752Y1177105
X180738Y1177105
X180738Y1161103
X192752Y1161103
X214697Y1176317
X227397Y1182667
X214697Y1195367
X201997Y1189017
X192752Y1197095
X180738Y1197095
X180738Y1221098
X189297Y1220767
X201997Y1227117
X214697Y1233467
X227397Y1239817
X214697Y1252517
X201997Y1246167
X202632Y1264582
X191202Y1276012
X191202Y1286172
X192752Y1301108
X202632Y1297602
X214697Y1309667
X227397Y1322367
X214697Y1328717
X204741Y1325111
X192752Y1325111
X180738Y1325111
X180738Y1349088
X192752Y1349088
X204741Y1349088
X214697Y1347767
X227397Y1341417
X227397Y1360467
X216755Y1373091
X204741Y1373091
X192752Y1373091
X180738Y1373091
X180738Y1397094
X192752Y1397094
X204741Y1397094
X216755Y1397094
X227397Y1398567
X227397Y1379517
X240097Y1373167
X252797Y1366817
X265497Y1360467
X252797Y1347767
X240097Y1354117
X240097Y1335067
X265497Y1338242
X284547Y1357292
X278197Y1373167
X290897Y1385867
X278197Y1392217
X290897Y1404917
X303597Y1398567
X316297Y1411267
X303597Y1417617
X290897Y1423967
X278197Y1430317
X290897Y1443017
X303597Y1436667
X316297Y1430317
X328997Y1423967
X341062Y1436032
X328997Y1443017
X338522Y1452542
X352492Y1455717
X352492Y1447462
X369002Y1447462
X368367Y1455717
X382972Y1452542
X392497Y1443017
X380432Y1436032
X392497Y1423967
X405197Y1430317
X417897Y1436667
X430597Y1443017
X443297Y1449367
X455997Y1455717
X468697Y1443017
X455997Y1436667
X468697Y1423967
X455997Y1417617
X468697Y1404917
X455997Y1398567
X468697Y1385867
X455997Y1379517
X468697Y1366817
X455997Y1360467
X468697Y1347767
X481397Y1354117
X481397Y1335067
X494097Y1341417
X506797Y1347767
X519497Y1354117
X528743Y1349088
X540757Y1349088
X540757Y1373091
X528743Y1373091
X519497Y1373167
X506797Y1366817
X494097Y1360467
X481397Y1373167
X494097Y1379517
X506797Y1385867
X519497Y1392217
X528743Y1397094
X540757Y1397094
X540757Y1421097
X528743Y1421097
X516754Y1421097
X506797Y1423967
X494097Y1417617
X506797Y1404917
X494097Y1398567
X481397Y1392217
X481397Y1411267
X481397Y1430317
X494097Y1436667
X506797Y1443017
X516322Y1443017
X522672Y1449367
X522672Y1458892
X532197Y1462067
X541722Y1452542
X541722Y1471592
X532197Y1481117
X522672Y1471592
X508245Y1460162
X503241Y1456352
X498238Y1460162
X481397Y1449367
X488255Y1486096
X482667Y1493817
X473244Y1486096
X468697Y1493817
X455997Y1493817
X455997Y1512867
X468697Y1509692
X468697Y1518582
X482667Y1509692
X496637Y1509692
X496637Y1496992
X522672Y1490642
X522672Y1516042
X522952Y1549189
X528057Y1554142
X522952Y1559095
X517948Y1584622
X512944Y1588432
X507940Y1584622
X502937Y1588432
X497958Y1584622
X487951Y1584622
X482947Y1588432
X477943Y1584622
X465522Y1592242
X455997Y1582717
X446472Y1592242
X440122Y1582717
X427422Y1582717
X436973Y1601767
X449647Y1617642
X459172Y1627167
X450740Y1634406
X450740Y1649392
X450740Y1662092
X450740Y1674589
X450740Y1687111
X450740Y1697094
X450740Y1715102
X465548Y1711470
X478248Y1708930
X490745Y1713858
X478248Y1724170
X465548Y1727980
X478248Y1740680
X490745Y1733847
X490745Y1753863
X499584Y1763845
X524577Y1746344
X524577Y1726354
X524577Y1706339
X524577Y1686349
X524577Y1666360
X524577Y1643855
X514570Y1633848
X499584Y1623840
X499584Y1643855
X490745Y1653863
X478248Y1649392
X465548Y1649392
X468697Y1636692
X478222Y1620817
X478222Y1601767
X494097Y1601767
X513147Y1601767
X532197Y1601767
X551222Y1589067
X557597Y1566842
X557597Y1541442
X557597Y1490642
X582997Y1490642
X608397Y1490642
X633797Y1437099
X627447Y1421097
X617287Y1413096
X617287Y1405095
X627447Y1397094
X617287Y1389093
X617287Y1381092
X627447Y1373091
X617287Y1365090
X617287Y1357089
X627447Y1349088
X617287Y1341113
X617287Y1333112
X627447Y1325111
X617287Y1317110
X617287Y1309109
X627447Y1301108
X617287Y1293107
X617287Y1285106
X627447Y1277105
X617287Y1269104
X617287Y1261103
X633797Y1253102
X633797Y1245101
X633797Y1233112
X627447Y1221098
X617287Y1213097
X617287Y1205096
X627447Y1197095
X617287Y1189094
X617287Y1181093
X617287Y1157090
X617287Y1149089
X627447Y1141113
X617287Y1133112
X617287Y1125111
X627447Y1117110
X617287Y1109109
X617287Y1101108
X633797Y1090592
X633797Y1128692
X633797Y1185106
X633797Y1209109
X617287Y1229099
X617287Y1237100
X582997Y1221072
X582997Y1197069
X582997Y1173142
X582997Y1141062
X582997Y1117059
X582997Y1071542
X557597Y1071542
X522672Y1071542
X522672Y1046142
X503241Y1076622
X493259Y1076622
X487747Y1068367
X475682Y1071542
X468316Y1071542
X460798Y1071542
X455997Y1065192
X452822Y1074717
X440122Y1068367
X427422Y1068367
X414722Y1068367
X414722Y1049317
X408245Y1044390
X403242Y1040123
X393259Y1044390
X388256Y1040123
X378248Y1044390
X373244Y1040123
X369002Y1049317
X369002Y1058842
X369002Y1068367
X382972Y1068367
X382972Y1052492
X398847Y1052492
X398847Y1068367
X427422Y1049317
X440122Y1049317
X453254Y1040123
X455997Y1046142
X455997Y1052492
X473244Y1041062
X478222Y1052492
X488255Y1041062
X475047Y1014392
X471872Y1004867
X471872Y995342
X487747Y1001692
X494097Y1008042
X500447Y982642
X506797Y982642
X513147Y982642
X509972Y966767
X494097Y976292
X490922Y957242
X481397Y976292
X471872Y976292
X471872Y957242
X465522Y938345
X478222Y938345
X449647Y925111
X446472Y944542
X452822Y957242
X452822Y976292
X433772Y976292
X433772Y957242
X414722Y976292
X414722Y995342
X427422Y995342
X440122Y995342
X452822Y995342
X452822Y1014392
X440122Y1014392
X427422Y1014392
X414722Y1014392
X348251Y1040123
X343247Y1044390
X338522Y1052492
X328261Y1044390
X333239Y1040123
X318253Y1040123
X313249Y1044390
X306772Y1049317
X294072Y1049317
X281372Y1049317
X281372Y1068367
X294072Y1068367
X306772Y1068367
X322647Y1068367
X322647Y1052492
X338522Y1068367
X352492Y1068367
X352492Y1058842
X352492Y1049317
X352492Y1106467
X352492Y1114722
X341062Y1126152
X328997Y1119167
X338522Y1106467
X328997Y1138217
X316297Y1131867
X303597Y1125517
X290897Y1119167
X278197Y1112817
X265497Y1106467
X252797Y1119167
X240097Y1112817
X227397Y1125517
X214697Y1119167
X205172Y1119167
X198822Y1112817
X198822Y1103292
X198822Y1090592
X213250Y1102022
X218253Y1105832
X223257Y1102022
X233239Y1076089
X238827Y1065192
X238827Y1052492
X224857Y1052492
X224857Y1065192
X248251Y1076089
X252797Y1065192
X252797Y1052492
X252797Y1043602
X265497Y1049317
X265497Y1068367
X303597Y1106467
X316297Y1112817
X290897Y1138217
X278197Y1131867
X278197Y1150917
X290897Y1157267
X303597Y1163617
X316297Y1150917
X303597Y1144567
X290897Y1176317
X278197Y1169967
X278197Y1189017
X265497Y1182667
X252797Y1176317
X240097Y1169967
X252797Y1157267
X240097Y1150917
X252797Y1138217
X240097Y1131867
X265497Y1125517
X265497Y1144567
X265497Y1163617
X252797Y1195367
X240097Y1189017
X240097Y1208067
X252797Y1214417
X265497Y1201717
X240097Y1227117
X227397Y1220767
X214697Y1214417
X201997Y1208067
X227397Y1201717
X227397Y1163617
X196740Y1129099
X198822Y1071542
X198822Y1046142
X198543Y1012995
X193438Y1008042
X198543Y1003089
X196917Y957242
X196917Y938345
X196917Y918355
X196917Y895851
X196917Y875861
X196917Y855846
X196917Y835856
X196917Y815841
X171924Y798340
X163897Y788358
X163897Y808348
X151197Y804842
X151197Y785792
X138497Y779442
X125797Y766742
X103572Y766742
X100397Y754042
X87697Y760392
X99127Y797222
X93336Y811192
X99127Y825162
X113097Y830954
X116272Y842942
X116272Y861992
X116272Y881042
X100397Y881042
X87697Y881042
X97222Y861992
X100397Y900092
X87697Y900092
X87697Y919142
X100397Y919142
X113097Y919142
X113097Y900092
X113097Y938192
X100397Y938192
X87697Y938192
X87697Y957242
X100397Y957242
X100397Y976292
X87697Y976292
X87697Y995342
X100397Y995342
X100397Y1014392
X87697Y1014392
X87697Y1033442
X100397Y1033442
X100397Y1052492
X87697Y1052492
X87697Y1071542
X100397Y1071542
X113097Y1071542
X119447Y1052492
X119447Y1033442
X113097Y1014392
X113097Y995342
X113097Y969942
X171924Y938345
X171924Y918355
X163897Y888358
X163897Y868342
X163897Y848353
X163897Y828363
X151197Y823892
X132859Y811192
X127067Y797222
X113097Y791457
X127067Y825162
X135322Y842942
X148022Y849292
X135322Y861992
X151197Y766742
X179772Y766742
X201616Y754042
X222876Y766742
X242866Y766742
X243247Y785792
X255947Y785792
X243247Y798492
X255947Y806112
X243272Y813428
X230572Y808348
X221911Y798340
X230572Y788358
X255947Y825162
X243272Y828363
X230572Y828363
X230572Y848353
X243272Y847083
X255947Y844212
X255947Y860722
X243272Y864532
X230572Y868342
X243272Y879468
X255947Y874692
X255947Y887392
X255947Y900092
X243272Y897248
X230572Y888358
X230572Y908347
X243247Y917796
X255947Y917796
X270755Y912792
X270755Y900092
X270755Y887596
X270755Y875099
X270755Y865091
X270755Y855109
X270755Y844111
X270755Y825112
X271822Y811192
X284522Y798492
X278172Y782617
X282871Y766742
X262881Y766742
X297222Y785792
X302886Y766742
X322647Y782617
X335754Y787596
X340758Y810608
X355744Y810608
X365751Y810608
X385741Y810608
X400752Y810608
X410760Y810608
X411547Y785792
X411547Y766742
X427803Y766742
X446472Y766742
X446472Y785792
X448631Y722292
X428616Y722292
X389703Y766742
X373447Y741342
X357649Y763872
X341697Y766742
X343907Y728642
X348047Y722292
X343907Y715942
X348047Y684192
X373447Y690542
X373447Y703242
X302886Y722292
X282871Y722292
X262881Y722292
X242866Y722292
X222876Y722292
X201616Y690542
X162881Y722292
X142866Y722292
X87697Y722292
X87697Y684192
X216907Y957242
X296257Y925111
X300753Y920108
X296257Y915104
X300753Y905096
X296257Y900092
X296257Y890110
X296257Y882592
X296257Y875099
X296257Y865091
X296257Y855109
X296257Y845101
X296257Y835094
X296257Y825112
X296257Y817593
X320742Y810608
X320742Y841088
X328261Y858589
X338243Y852594
X352746Y867098
X368748Y867098
X383252Y852594
X390745Y863110
X395749Y875099
X395749Y882109
X395749Y889094
X383252Y897603
X385741Y916094
X368748Y883100
X352746Y883100
X338243Y897603
X320742Y895597
X323257Y887113
X325746Y879595
X328261Y871111
X327245Y923613
X319752Y923613
X320742Y939589
X335754Y962094
X335754Y969942
X345761Y969942
X345761Y962094
X319447Y976292
X300753Y939589
X341520Y923613
X403242Y856100
X508626Y722292
X528616Y722292
X548631Y722292
X568621Y722292
X588636Y722292
X608397Y791457
X594427Y825162
X586172Y842942
X573472Y849292
X586172Y861992
X557597Y868342
X557597Y888358
X557597Y848353
X557597Y828363
X488128Y690542
X522672Y1090592
X529022Y1096942
X535372Y1103292
X540757Y1117110
X528743Y1117110
X516754Y1117110
X504740Y1117110
X492751Y1117110
X488255Y1102022
X498238Y1102022
X508245Y1102022
X504740Y1141113
X494097Y1144567
X494097Y1163617
X504740Y1161103
X516754Y1161103
X528743Y1161103
X540757Y1161103
X540757Y1177105
X528743Y1177105
X516754Y1177105
X506797Y1176317
X494097Y1182667
X506797Y1195367
X516754Y1197095
X528743Y1197095
X540757Y1197095
X540757Y1221098
X528743Y1221098
X516754Y1221098
X506797Y1214417
X494097Y1220767
X506797Y1233467
X494097Y1239817
X506797Y1252517
X519497Y1246167
X528743Y1241113
X540757Y1241113
X540757Y1257089
X532197Y1258867
X540757Y1277105
X530292Y1286172
X518862Y1297602
X506797Y1309667
X519497Y1316017
X506797Y1328717
X494097Y1322367
X519497Y1335067
X532197Y1322367
X540757Y1325111
X532197Y1303317
X540757Y1301108
X518862Y1264582
X481397Y1227117
X468697Y1214417
X481397Y1208067
X468697Y1195367
X481397Y1189017
X468697Y1176317
X481397Y1169967
X468697Y1157267
X481397Y1150917
X468697Y1138217
X481397Y1131867
X468697Y1119167
X481397Y1112817
X475784Y1102022
X455997Y1106467
X455997Y1125517
X443297Y1131867
X430597Y1138217
X417897Y1144567
X405197Y1150917
X417897Y1163617
X430597Y1157267
X443297Y1150917
X455997Y1144567
X455997Y1163617
X455997Y1182667
X443297Y1189017
X436947Y1204892
X455997Y1201717
X455997Y1223942
X424247Y1262042
X417897Y1255692
X405197Y1242992
X398847Y1236642
X430597Y1176317
X443297Y1169967
X405197Y1131867
X417897Y1125517
X430597Y1119167
X443297Y1112817
X417897Y1106467
X405197Y1112817
X398847Y1106467
X392497Y1119167
X380432Y1126152
X369002Y1114722
X369002Y1106467
X382972Y1106467
X392497Y1138217
X322647Y1236642
X316297Y1242992
X303597Y1255692
X297247Y1262042
X297247Y1300142
X303597Y1306492
X316297Y1319192
X322647Y1325542
X265497Y1379517
X252797Y1385867
X240097Y1392217
X252797Y1404917
X265497Y1398567
X278197Y1411267
X265497Y1417617
X252797Y1423967
X240097Y1430317
X252797Y1443017
X265497Y1436667
X265497Y1455717
X278197Y1449367
X303597Y1455717
X316297Y1449367
X322647Y1493817
X322647Y1509692
X328261Y1516525
X333239Y1522088
X343247Y1516525
X348251Y1522088
X352492Y1512867
X352492Y1503342
X352492Y1493817
X338522Y1493817
X338522Y1509692
X318253Y1522088
X313249Y1516525
X306772Y1512867
X294072Y1512867
X281372Y1512867
X281372Y1493817
X294072Y1493817
X306772Y1493817
X268672Y1487467
X260697Y1490642
X253178Y1490642
X245812Y1490642
X233747Y1493817
X228261Y1485562
X218253Y1485562
X198822Y1490642
X189297Y1481752
X179772Y1471592
X189297Y1455717
X192752Y1445100
X204741Y1445100
X216755Y1445100
X228744Y1445100
X233239Y1460162
X223257Y1460162
X213250Y1460162
X198822Y1471592
X180738Y1445100
X180738Y1421097
X192752Y1421097
X204741Y1421097
X216755Y1421097
X228744Y1421097
X240097Y1411267
X240097Y1449367
X245711Y1460162
X265497Y1496992
X265497Y1509692
X265497Y1516093
X268241Y1522392
X248251Y1521122
X243272Y1509692
X233239Y1521122
X240097Y1547792
X250740Y1566842
X260417Y1579542
X268672Y1579542
X268672Y1566842
X281372Y1566842
X294072Y1566842
X294072Y1579542
X303597Y1579542
X309947Y1576367
X309947Y1570017
X316297Y1566842
X316297Y1579542
X335347Y1598592
X343602Y1585892
X343602Y1578272
X343602Y1570652
X360747Y1578603
X379797Y1592242
X385741Y1595595
X380737Y1599608
X392497Y1585892
X403292Y1570017
X408372Y1563667
X412817Y1557317
X405197Y1547792
X395545Y1554142
X389449Y1554142
X386147Y1547792
X386147Y1560492
X398847Y1560492
X427422Y1566842
X440122Y1566842
X452822Y1566842
X452822Y1547792
X440122Y1547792
X427422Y1547792
X408245Y1516525
X414722Y1512867
X427422Y1512867
X440122Y1512867
X440122Y1493817
X427422Y1493817
X414722Y1493817
X398847Y1493817
X398847Y1509692
X393259Y1516525
X388256Y1522088
X378248Y1516525
X373244Y1522088
X369002Y1512867
X369002Y1503342
X369002Y1493817
X382972Y1493817
X382972Y1509692
X403242Y1522088
X370272Y1547792
X363287Y1547792
X325822Y1547792
X306772Y1547792
X294072Y1547792
X281372Y1547792
X268672Y1547792
X281372Y1579542
X290897Y1598592
X278197Y1611292
X268672Y1598592
X255972Y1611292
X246447Y1601767
X240097Y1592242
X233747Y1585892
X227397Y1592242
X221047Y1585892
X214697Y1573192
X208347Y1566842
X208347Y1579542
X221047Y1566842
X208347Y1552872
X205172Y1604942
X221047Y1604942
X221911Y1623840
X236922Y1623992
X221911Y1643855
X230572Y1653863
X243272Y1653863
X255972Y1656352
X255972Y1673853
X243272Y1673853
X230572Y1673853
X230572Y1693842
X243272Y1693842
X255972Y1693842
X255972Y1713858
X243272Y1713858
X230572Y1713858
X230572Y1733847
X243272Y1733847
X255972Y1733847
X255972Y1752897
X255972Y1763692
X243272Y1753863
X230572Y1753863
X221911Y1763845
X196917Y1746344
X196917Y1726354
X196917Y1706339
X196917Y1686349
X196917Y1666360
X196917Y1643855
X206925Y1633848
X171924Y1623840
X171924Y1643855
X113097Y1592242
X113097Y1566842
X113097Y1491150
X138497Y1491150
X163897Y1490642
X138497Y1439842
X138497Y1421072
X138497Y1397069
X138497Y1373066
X138497Y1349063
X138497Y1325060
X138497Y1301108
X138497Y1277155
X104207Y1285106
X104207Y1293107
X94047Y1301108
X104207Y1309109
X104207Y1317110
X94047Y1325111
X104207Y1333112
X104207Y1341113
X94047Y1349088
X104207Y1357089
X104207Y1365090
X94047Y1373091
X104207Y1381092
X104207Y1389093
X94047Y1397094
X104207Y1405095
X104207Y1413096
X94047Y1421097
X104207Y1429098
X104207Y1437099
X94047Y1445100
X87697Y1453101
X180738Y1301108
X180738Y1267326
X189297Y1258867
X180738Y1245101
X189297Y1239817
X138497Y1221148
X138497Y1197145
X138497Y1173142
X138497Y1140376
X138497Y1129073
X138497Y1113071
X104207Y1109109
X104207Y1117110
X94047Y1141113
X87697Y1130343
X87697Y1110354
X87697Y1090592
X100397Y1090592
X138497Y1071542
X104207Y1149089
X104207Y1157090
X104207Y1181093
X104207Y1189094
X94047Y1197095
X104207Y1205096
X104207Y1213097
X94047Y1221098
X104207Y1229099
X104207Y1237100
X87697Y1233112
X87697Y1245101
X87443Y1253102
X94047Y1277105
X104207Y1269104
X104207Y1261103
X87697Y1209109
X87697Y1185106
X300753Y1622595
X296257Y1627091
X296257Y1637099
X296257Y1647106
X296257Y1657089
X300753Y1662092
X296257Y1667096
X296257Y1677104
X300753Y1682108
X296257Y1687111
X296257Y1697094
X296257Y1707101
X296257Y1717109
X300753Y1722113
X296257Y1727091
X300753Y1732095
X296257Y1737099
X300753Y1751602
X290897Y1770042
X278197Y1757342
X271847Y1739613
X271847Y1722113
X271847Y1707101
X271847Y1697017
X271847Y1682108
X271847Y1662092
X271847Y1642103
X265497Y1623992
X252797Y1636692
X315739Y1636108
X315739Y1622595
X338522Y1627167
X343247Y1643601
X338243Y1664607
X352746Y1679110
X352746Y1695112
X338243Y1709590
X330750Y1699100
X325746Y1687111
X325746Y1680101
X325746Y1673091
X318253Y1706111
X335754Y1751602
X355744Y1751602
X365751Y1751602
X383252Y1751602
X400752Y1751602
X400752Y1721097
X393259Y1703596
X383252Y1709590
X368748Y1695112
X368748Y1679110
X383252Y1664607
X393259Y1691099
X395749Y1682590
X398238Y1675097
X400752Y1666588
X420742Y1657089
X425238Y1662092
X425238Y1672100
X425238Y1679593
X425238Y1687111
X425238Y1697094
X425238Y1707101
X425238Y1737099
X436973Y1763692
X468697Y1763692
X465548Y1695011
X478248Y1692420
X490745Y1693842
X490745Y1673853
X478248Y1673853
X465548Y1679796
X465548Y1664607
X425238Y1647106
X420742Y1622595
X400752Y1622595
X389322Y1629352
X393259Y1638597
X400752Y1638597
X370755Y1643601
X455997Y1601767
X549571Y1623840
X549571Y1643855
X608397Y1592242
X608397Y1566842
X582997Y1433061
X582997Y1397069
X582997Y1373066
X582997Y1349063
X582997Y1329225
X582997Y1301209
X582997Y1277105
X494097Y1201717
X516754Y1141113
X528743Y1141113
X540757Y1141113
X424247Y1300142
X417897Y1306492
X405197Y1319192
X398847Y1325542
X443297Y1373167
X430597Y1385867
X443297Y1392217
X430597Y1404917
X417897Y1398567
X405197Y1411267
X417897Y1417617
X430597Y1423967
X443297Y1430317
X443297Y1411267
X417897Y1455717
X405197Y1449367
X608397Y1731257
X594427Y1737022
X588636Y1750992
X594427Y1764962
X608397Y1770754
X622367Y1764962
X628159Y1750992
X622367Y1737022
X549571Y1763845
X171924Y1763845
X154372Y1750738
X132859Y1750992
X127067Y1737022
X113097Y1731257
X99127Y1737022
X93336Y1750992
X99127Y1764962
X113097Y1770754
X127067Y1764962
X1218878Y695633
X1224669Y709603
X1218878Y723573
X1204908Y729364
X1190938Y723573
X1185146Y709603
X1190938Y695633
X1204908Y689841
X1192208Y773103
X1192208Y785803
X1204908Y779453
X1217608Y779453
X1230308Y785803
X1230308Y773103
X1233483Y804853
X1189033Y808028
X1185858Y814378
X1154108Y830253
X1141408Y830253
X1147758Y817553
X1147758Y804853
X1154108Y792153
X1141408Y792153
X1135058Y779453
X1116008Y792153
X1122358Y806199
X1109658Y811203
X1135058Y754053
X1058858Y754053
X1058858Y779453
X982658Y779453
X982658Y754053
X954083Y836603
X950908Y841683
X944558Y848033
X931858Y868353
X924238Y874703
X919158Y881053
X922333Y896928
X922333Y906453
X922358Y915978
X898253Y923648
X874708Y915978
X874708Y906453
X874708Y896928
X884233Y865178
X893758Y868353
X903283Y868353
X853753Y823903
X836608Y836603
X833433Y865000
X842958Y865178
X836608Y903278
X842958Y909628
X855658Y957253
X855658Y969953
X871533Y969953
X884233Y969953
X862008Y1020753
X862008Y1046153
X874708Y1077903
X900108Y1077903
X915983Y1070283
X921063Y1082983
X917888Y1116003
X925508Y1116003
X900108Y1173153
X874708Y1173153
X874708Y1131395
X817558Y1135053
X817558Y1147753
X823908Y1179503
X811208Y1179503
X773108Y1175489
X773108Y1199492
X741358Y1191491
X741358Y1183490
X735008Y1175489
X741358Y1167488
X741358Y1159513
X728658Y1159513
X728658Y1167488
X728658Y1183490
X728658Y1191491
X735008Y1199492
X741358Y1207493
X741358Y1215494
X735008Y1223495
X741358Y1231496
X741358Y1239497
X735008Y1247498
X741358Y1255499
X741358Y1263500
X735008Y1271501
X741358Y1279502
X741358Y1287503
X735008Y1295504
X741358Y1303505
X741358Y1311506
X735008Y1319507
X741358Y1327508
X741358Y1335509
X728658Y1335509
X728658Y1327508
X728658Y1311506
X728658Y1303505
X728658Y1287503
X728658Y1279502
X728658Y1263500
X728658Y1255499
X728658Y1239497
X728658Y1231496
X728658Y1215494
X728658Y1207493
X696908Y1199492
X696908Y1175489
X691193Y1223495
X696908Y1247498
X696908Y1271501
X696908Y1295504
X696908Y1319507
X698178Y1343510
X771838Y1343510
X773108Y1319507
X773108Y1295504
X773108Y1271501
X773108Y1247498
X811208Y1274753
X823908Y1274753
X817558Y1325553
X817558Y1338253
X823908Y1370003
X811208Y1370003
X874708Y1363653
X900108Y1363653
X910903Y1338253
X915983Y1331903
X924288Y1366828
X924288Y1376353
X924288Y1389053
X924288Y1398578
X964801Y1398578
X964878Y1389053
X964878Y1376353
X964801Y1366828
X975038Y1366828
X982658Y1389053
X982658Y1401753
X966783Y1436678
X966783Y1446203
X992157Y1443028
X992183Y1452553
X992183Y1462078
X1016262Y1435357
X1039808Y1443028
X1039808Y1452553
X1039808Y1462078
X1068383Y1449378
X1077908Y1455728
X1058858Y1401753
X1058858Y1389053
X1042983Y1389053
X1030283Y1389053
X1052508Y1338253
X1052508Y1312853
X1039808Y1281103
X992183Y1281103
X992183Y1272898
X992183Y1263907
X986468Y1288723
X977578Y1288723
X957258Y1288723
X944558Y1282373
X942018Y1296978
X969958Y1253848
X954743Y1236602
X949257Y1230303
X959798Y1217603
X954718Y1211253
X938208Y1214428
X935033Y1208078
X900108Y1268403
X874708Y1268403
X874708Y1321895
X976308Y1312853
X976308Y1338253
X982658Y1223953
X990278Y1217603
X992183Y1208078
X1014408Y1185853
X1039808Y1185853
X1039808Y1227610
X1096958Y1223953
X1096958Y1211253
X1103308Y1179503
X1090608Y1179503
X1141408Y1175489
X1141408Y1199492
X1173158Y1191491
X1173158Y1183490
X1179508Y1175489
X1185858Y1167488
X1185858Y1159513
X1173158Y1159513
X1173158Y1167488
X1185858Y1183490
X1185858Y1191491
X1179508Y1199492
X1185858Y1207493
X1185858Y1215494
X1179508Y1223495
X1185858Y1231496
X1185858Y1239497
X1179508Y1247498
X1185858Y1255499
X1185858Y1263500
X1179508Y1271501
X1185858Y1279502
X1185858Y1287503
X1179508Y1295504
X1185858Y1303505
X1185858Y1311506
X1179508Y1319507
X1173158Y1311506
X1173158Y1303505
X1173158Y1287503
X1173158Y1279502
X1173158Y1263500
X1173158Y1255499
X1173158Y1239497
X1173158Y1231496
X1173158Y1215494
X1173158Y1207493
X1141408Y1247498
X1141408Y1271501
X1141408Y1295504
X1109023Y1296343
X1103308Y1274753
X1090608Y1274753
X1141408Y1359512
X1173158Y1367513
X1173158Y1375489
X1185858Y1359512
X1173158Y1351511
X1217608Y1351511
X1217608Y1367513
X1217608Y1375489
X1217608Y1295504
X1217608Y1271501
X1217608Y1247498
X1223323Y1223495
X1217608Y1199492
X1217608Y1175489
X1185858Y1135510
X1185858Y1127509
X1179508Y1119508
X1173158Y1127509
X1173158Y1135510
X1173158Y1111507
X1173158Y1103506
X1179508Y1095505
X1185858Y1103506
X1185858Y1111507
X1185858Y1087504
X1185858Y1079503
X1179508Y1071502
X1173158Y1079503
X1173158Y1087504
X1173158Y1055500
X1173158Y1047499
X1179508Y1039498
X1185858Y1031497
X1185858Y1023496
X1179508Y1015495
X1185858Y1007494
X1185858Y999493
X1173158Y999493
X1173158Y991492
X1173158Y983491
X1185858Y983491
X1173158Y1007494
X1173158Y1023496
X1173158Y1031497
X1185858Y1047499
X1185858Y1055500
X1217608Y1039498
X1217608Y1015495
X1227133Y1077903
X1217608Y1095505
X1217608Y1119508
X1141408Y1119508
X1141408Y1095505
X1141408Y1071502
X1141408Y1039498
X1141408Y1015495
X1103308Y989003
X1090608Y989003
X1096958Y1020753
X1096958Y1033453
X1103308Y1084253
X1090608Y1084253
X1039808Y1090603
X1014408Y1090603
X1039808Y1037110
X1005518Y1032106
X1000438Y1027103
X1014408Y995353
X1039808Y995353
X1103308Y906453
X1021901Y900103
X1016897Y896928
X1011893Y900103
X1006889Y896928
X1001911Y900103
X947733Y992178
X931858Y969953
X931858Y957253
X938208Y1020753
X938208Y1046153
X823908Y1084253
X811208Y1084253
X773108Y1095505
X773108Y1119508
X741358Y1127509
X741358Y1135510
X728658Y1135510
X728658Y1127509
X735008Y1119508
X741358Y1111507
X741358Y1103506
X735008Y1095505
X741358Y1087504
X741358Y1079503
X735008Y1071502
X728658Y1079503
X728658Y1087504
X728658Y1103506
X728658Y1111507
X696908Y1119508
X696908Y1095505
X696908Y1071502
X696908Y1039498
X696908Y999493
X728658Y1007494
X728658Y1015495
X728658Y1023496
X728658Y1031497
X735008Y1039498
X741358Y1031497
X741358Y1023496
X741358Y1015495
X741358Y1007494
X735008Y999493
X741358Y1047499
X741358Y1055500
X728658Y1055500
X728658Y1047499
X773108Y1039498
X773108Y999493
X773108Y830253
X760408Y830253
X766758Y817553
X766758Y804853
X773108Y792153
X760408Y792153
X766758Y779453
X768028Y773103
X792158Y811203
X801048Y811203
X792158Y823903
X830258Y779453
X830258Y754053
X906458Y754053
X906458Y779453
X729369Y709603
X723578Y723573
X709608Y729364
X695638Y723573
X689846Y709603
X695638Y695633
X709608Y689841
X723578Y695633
X684208Y747703
X684208Y773103
X684208Y785803
X696908Y779453
X709608Y779453
X722308Y785803
X722308Y773103
X1217608Y868353
X931858Y1458903
X912604Y1458903
X907601Y1462078
X902597Y1458903
X897593Y1462078
X892589Y1458903
X881058Y1522403
X877883Y1531928
X881134Y1544628
X887636Y1544628
X874631Y1544628
X868129Y1544628
X849308Y1544628
X830258Y1544628
X830258Y1601778
X849308Y1601778
X855658Y1601778
X868129Y1601778
X874631Y1601778
X881134Y1601778
X887636Y1601778
X874708Y1614478
X874708Y1620828
X881058Y1620828
X890583Y1620828
X890583Y1627178
X865183Y1643053
X858833Y1643053
X852483Y1643053
X839783Y1643053
X827083Y1627178
X814383Y1627178
X814383Y1620828
X804858Y1620828
X798508Y1620828
X798508Y1614478
X788983Y1643053
X782633Y1643053
X776283Y1643053
X763583Y1643053
X750883Y1627178
X729369Y1649403
X723578Y1663373
X709608Y1669164
X695638Y1663373
X689846Y1649403
X695638Y1635433
X709608Y1629641
X723578Y1635433
X760408Y1573203
X779458Y1658928
X855658Y1658928
X912808Y1590348
X919158Y1573203
X906458Y1573203
X924238Y1546609
X919158Y1541453
X941383Y1531928
X950908Y1554153
X938208Y1566853
X938208Y1579553
X957258Y1598603
X976308Y1579553
X976308Y1566853
X963608Y1554153
X1004502Y1595428
X1039808Y1636703
X1076790Y1611303
X1082302Y1604495
X1087788Y1611303
X1093300Y1604495
X1098812Y1611303
X1104298Y1604495
X1109810Y1611303
X1115296Y1604495
X1120808Y1611303
X1126295Y1604495
X1131806Y1611303
X1137293Y1604495
X1142805Y1611303
X1148291Y1604495
X1153803Y1611303
X1146792Y1571933
X1176333Y1560503
X1198558Y1573203
X1204908Y1587935
X1204908Y1604953
X1198558Y1611303
X1204908Y1629641
X1190938Y1635433
X1185146Y1649403
X1190938Y1663373
X1204908Y1669164
X1218878Y1663373
X1224669Y1649403
X1218878Y1635433
X1223958Y1598603
X1230308Y1579553
X1086798Y1571933
X1077908Y1522276
X1039808Y1554153
X1017583Y1522276
X1020758Y1516053
T09
X1204900Y151200
X1230300Y151200
X709600Y151200
X684200Y151200
X684200Y570300
X709600Y570300
X1204900Y570300
X1230300Y570300
X595697Y1604942
X595697Y1579542
X570297Y1579542
X570297Y1604942
X151197Y1604942
X151197Y1579542
X125797Y1579542
X125797Y1604942
X125797Y982642
X125797Y957242
X151197Y957242
X151197Y982642
X570297Y982642
X570297Y957242
X595697Y957242
X595697Y982642
X782633Y1560503
X782633Y1585903
X808033Y1585903
X808033Y1560503
T10
X284547Y1204892
X265497Y1223942
X436947Y1357292
X455997Y1338242
X1061398Y965508
X1061398Y974398
X1052508Y974398
X1052508Y965508
X1043618Y965508
X1043618Y974398
X1043618Y1060758
X1052508Y1060758
X1061398Y1060758
X1061398Y1069648
X1052508Y1069648
X1043618Y1069648
X1043618Y1156008
X1052508Y1156008
X1061398Y1156008
X1061398Y1164898
X1052508Y1164898
X1043618Y1164898
X1043618Y1251258
X1052508Y1251258
X1061398Y1251258
X1061398Y1260148
X1052508Y1260148
X1043618Y1260148
X1073463Y1342063
X1082353Y1342063
X1082353Y1350953
X1082353Y1359843
X1073463Y1359843
X1073463Y1350953
X1006153Y1350953
X1006153Y1359843
X997263Y1359843
X997263Y1350953
X997263Y1342063
X1006153Y1342063
X870898Y1384608
X870898Y1393498
X862008Y1393498
X862008Y1384608
X853118Y1384608
X853118Y1393498
X853118Y1298248
X862008Y1298248
X870898Y1298248
X870898Y1289358
X862008Y1289358
X853118Y1289358
X853118Y1202998
X862008Y1202998
X870898Y1202998
X870898Y1194108
X862008Y1194108
X853118Y1194108
X853118Y1107748
X862008Y1107748
X870898Y1107748
X870898Y1098858
X862008Y1098858
X853118Y1098858
X841053Y1016943
X841053Y1008053
X841053Y999163
X832163Y999163
X832163Y1008053
X832163Y1016943
X908363Y1016943
X917253Y1016943
X917253Y1008053
X917253Y999163
X908363Y999163
X908363Y1008053
X885503Y750243
X885503Y741353
X885503Y732463
X876613Y732463
X876613Y741353
X876613Y750243
X809303Y750243
X809303Y741353
X809303Y732463
X800413Y732463
X800413Y741353
X800413Y750243
X952813Y750243
X961703Y750243
X961703Y741353
X961703Y732463
X952813Y732463
X952813Y741353
X1029013Y741353
X1037903Y741353
X1037903Y750243
X1029013Y750243
X1029013Y732463
X1037903Y732463
X1105213Y732463
X1114103Y732463
X1114103Y741353
X1114103Y750243
X1105213Y750243
X1105213Y741353
T11
X506797Y1281092
X360747Y1135042
X283252Y945101
X214697Y1281092
X360747Y1427142
X438243Y1617109
X1020758Y677853
X979940Y678107
X967240Y678107
X954540Y678107
X891040Y678107
X836608Y811203
X795333Y855653
X735008Y842953
X754058Y957253
X715958Y957253
X862008Y887403
X938208Y925503
X989008Y925503
X944558Y862003
X957258Y823903
X982658Y823903
X1004883Y823903
X1014408Y823903
X1023933Y823903
X1131883Y906453
X1131883Y931853
X1160458Y957253
X1198558Y957253
X1128708Y1122353
X992183Y1233478
X992183Y1252528
X935033Y1227128
X957258Y1128703
X976308Y1128703
X976308Y1103303
X938208Y1103303
X938208Y1071553
X785808Y1236653
X754058Y1401753
X782633Y1427153
X782633Y1452553
X827083Y1522403
X871533Y1522403
X931858Y1531928
X963608Y1490653
X976308Y1528753
X989008Y1541453
X998533Y1541453
X1008058Y1541453
X1008058Y1528753
X1008058Y1558191
X998533Y1558191
X989008Y1558191
X998533Y1589078
X1039808Y1589078
X1058858Y1589078
X1058858Y1598603
X1058858Y1579553
X1077908Y1563678
X1116008Y1563678
X1119183Y1503353
X1179508Y1516053
X1198558Y1401753
X1160458Y1401753
X1052508Y1471603
X1039808Y1528753
X1008058Y1490653
X1008058Y1646228
X906458Y1646228
X760408Y1535103
X693733Y1595428
X715958Y1401753
X747708Y678107
T12
X373447Y1414442
X386147Y1401742
X348047Y1414442
X335347Y1401742
X240097Y1306492
X227397Y1293792
X227397Y1268392
X240097Y1255692
X335347Y1160442
X348047Y1147742
X373447Y1147742
X386147Y1160442
X481397Y1255692
X494097Y1268392
X494097Y1293792
X481397Y1306492
X735008Y919153
X735008Y1439853
X735008Y1465253
X938208Y1598603
X976308Y1598603
X1179508Y1439853
X1179508Y919153
X1179508Y893753
T13
X467453Y1569154
X533442Y1569154
X254042Y993056
X188053Y993056
X534483Y971111
X186910Y1592242
X850552Y921439
X784538Y921439
X1063938Y1437541
X1129952Y1437541
T14
X182871Y754804
X172864Y734789
X162881Y754804
X152874Y734789
X142866Y754804
X132884Y734789
X122876Y754804
X132884Y709796
X142866Y689806
X152874Y709796
X162881Y689806
X172864Y709796
X182871Y689806
X212869Y709796
X222876Y689806
X232884Y709796
X242866Y689806
X252874Y709796
X262881Y689806
X272863Y709796
X282871Y689806
X292879Y709796
X302886Y689806
X312868Y709796
X312868Y734789
X302886Y754804
X292879Y734789
X282871Y754804
X272863Y734789
X262881Y754804
X252874Y734789
X242866Y754804
X232884Y734789
X222876Y754804
X212869Y734789
X122876Y689806
X408626Y689806
X418634Y709796
X428616Y689806
X438624Y709796
X448631Y689806
X458614Y709796
X468621Y689806
X498619Y709796
X508626Y689806
X518634Y709796
X528616Y689806
X538624Y709796
X548631Y689806
X558613Y709796
X568621Y689806
X578629Y709796
X588636Y689806
X598618Y709796
X598618Y734789
X588636Y754804
X578629Y734789
X568621Y754804
X558613Y734789
X548631Y754804
X538624Y734789
X528616Y754804
X518634Y734789
X508626Y754804
X498619Y734789
X468621Y754804
X458614Y734789
X448631Y754804
X438624Y734789
X428616Y754804
X418634Y734789
X408626Y754804
T15
X582997Y1060112
X138497Y1060112
X1179508Y1400508
X1179508Y1400508
X735008Y1400508
X735008Y1400508
T16
X186910Y938345
X186910Y918355
X186910Y898340
X186910Y878350
X186910Y858360
X206925Y858360
X206925Y878350
X206925Y898340
X206925Y918355
X206925Y938345
X206925Y838345
X206925Y818355
X206925Y798340
X186910Y798340
X186910Y818355
X186910Y838345
X514570Y838345
X514570Y818355
X514570Y798340
X534585Y798340
X534585Y818355
X534585Y838345
X534585Y858360
X534585Y878350
X534585Y898340
X534585Y918355
X534585Y938345
X514570Y938345
X514570Y918355
X514570Y898340
X514570Y878350
X514570Y858360
X514570Y1623840
X514570Y1643855
X514570Y1663845
X514570Y1683860
X514570Y1703850
X514570Y1723840
X514570Y1743855
X514570Y1763845
X534585Y1763845
X534585Y1743855
X534585Y1723840
X534585Y1703850
X534585Y1683860
X534585Y1663845
X534585Y1643855
X534585Y1623840
X206925Y1623840
X206925Y1643855
X206925Y1663845
X206925Y1683860
X206925Y1703850
X206925Y1723840
X206925Y1743855
X206925Y1763845
X186910Y1763845
X186910Y1743855
X186910Y1723840
X186910Y1703850
X186910Y1683860
X186910Y1663845
X186910Y1643855
X186910Y1623840
T17
X138497Y1671160
X138497Y1691150
X602047Y1691099
X602047Y1671109
T18
X522749Y1058842
X198746Y1503342
X747708Y1503353
X747708Y1477953
X747708Y1452553
X747708Y1427153
X722308Y1427153
X722308Y1452553
X722308Y1477953
X722308Y1503353
X722308Y931853
X747708Y931853
X747708Y906453
X747708Y881053
X747708Y855653
X722308Y855653
X722308Y881053
X722308Y906453
X1166808Y906453
X1192208Y906453
X1192208Y931853
X1166808Y931853
X1166808Y881053
X1192208Y881053
X1192208Y855653
X1166808Y855653
X1166808Y1427153
X1192208Y1427153
X1192208Y1452553
X1192208Y1477953
X1192208Y1503353
X1166808Y1503353
X1166808Y1477953
X1166808Y1452553
T19
X138497Y1502098
X582997Y1502098
X1179508Y958497
X1179508Y958497
X735008Y958497
X735008Y958497
T20
X570297Y1528742
X570297Y1554142
X522749Y1503342
X570297Y1033442
X570297Y1008042
X198746Y1058842
X151197Y1033442
X151197Y1008042
X151197Y1528742
X151197Y1554142
T21
X196384Y722292
X104868Y722292
X390618Y722292
X482134Y722292
T22
X608397Y811192
X113097Y811192
X113097Y1750992
X608397Y1750992
X709608Y709603
X1204908Y709603
X1204908Y1649403
X709608Y1649403
T23
X893758Y1497003
X893758Y1484303
X906458Y1484303
X906458Y1497003
X896933Y1401753
X896933Y1395403
X887408Y1370003
X887408Y1363653
X849308Y1354128
X836608Y1354128
X804858Y1385878
X804858Y1392228
X804858Y1296978
X804858Y1290628
X836608Y1258878
X849308Y1258878
X887408Y1268403
X887408Y1274753
X896933Y1300153
X896933Y1306503
X896933Y1211253
X896933Y1204903
X887408Y1179503
X887408Y1173153
X849308Y1163628
X836608Y1163628
X804858Y1195378
X804858Y1201728
X804858Y1106478
X804858Y1100128
X823908Y1042978
X830258Y1042978
X855658Y1033453
X862008Y1033453
X900108Y1042978
X906458Y1042978
X931858Y1033453
X938208Y1033453
X887408Y1077903
X887408Y1084253
X896933Y1109653
X896933Y1116003
X950908Y1173153
X950908Y1185853
X963608Y1185853
X963608Y1173153
X1017583Y1154103
X1017583Y1147753
X1027108Y1179503
X1027108Y1185853
X1065208Y1195378
X1077908Y1195378
X1109658Y1163628
X1109658Y1157278
X1077908Y1100128
X1065208Y1100128
X1027108Y1090603
X1027108Y1084253
X1017583Y1058853
X1017583Y1052503
X1027108Y995353
X1027108Y989003
X1017583Y963603
X1017583Y957253
X1065208Y1004878
X1077908Y1004878
X1109658Y973128
X1109658Y966778
X1109658Y1062028
X1109658Y1068378
X1017583Y1243003
X1017583Y1249353
X1027108Y1274753
X1027108Y1281103
X1014408Y1316028
X1008058Y1316028
X982658Y1325553
X976308Y1325553
X998533Y1404928
X1004883Y1404928
X1046158Y1427153
X1074733Y1404928
X1081083Y1404928
X1106483Y1414453
X1058858Y1325553
X1052508Y1325553
X1084258Y1316028
X1090608Y1316028
X1109658Y1258878
X1109658Y1252528
X915983Y954078
X909633Y954078
X868358Y931853
X839783Y954078
X833433Y954078
X808033Y944553
X906458Y842953
X919158Y842953
X919158Y830253
X906458Y830253
X874708Y776278
X868358Y776278
X900108Y766753
X906458Y766753
X915983Y728653
X900108Y719128
X900108Y712778
X944558Y776278
X950908Y776278
X976308Y766753
X982658Y766753
X992183Y728653
X976308Y719128
X976308Y712778
X1020758Y776278
X1027108Y776278
X1052508Y766753
X1058858Y766753
X1068383Y728653
X1052508Y719128
X1052508Y712778
X1096958Y776278
X1103308Y776278
X1128708Y766753
X1135058Y766753
X1128708Y719128
X1128708Y712778
X1020758Y862003
X1020758Y874703
X1008058Y874703
X1008058Y862003
X839783Y728653
X823908Y719128
X823908Y712778
X823908Y766753
X830258Y766753
X798508Y776278
X792158Y776278
X1109810Y1653898
T24
X1131883Y1414453
X1119183Y1414453
X1131883Y1477953
X849308Y1513513
X827083Y1503353
X827083Y1477953
X804858Y1513513
X782633Y1503353
X782633Y1477953
X782633Y944553
X795333Y944553
X782633Y881053
X1065208Y845493
X1087433Y855653
X1087433Y881053
X1109658Y845493
X1131883Y855653
X1131883Y881053
M30
