%MOMM*%
%FSLAX25Y25*%
%IPPOS*%
%AMOC8*
5,1,8,0,0,((1.08239)X($1))X(25.4),22.5*%
%AMOC8_1*
5,1,8,0,0,((1.08239)X($1))X(25.4),22.5*%
%AMOC8_2*
5,1,8,0,0,((1.08239)X($1))X(25.4),112.5*%
%AMOC8_3*
5,1,8,0,0,((1.08239)X($1))X(25.4),112.5*%
%ADD10C,0.3048*%
%ADD11C,0.2794*%
%ADD12C,0.254*%
%ADD13C,0.2286*%
%ADD14C,0.2032*%
%ADD15C,0.1778*%
%ADD16C,0.1524*%
%ADD17C,0.127*%
%ADD18C,0.1016*%
%ADD19C,0.0762*%
%ADD20C,0.0508*%
%ADD21C,0.0254*%
%ADD22C,0.4064*%
%ADD23C,0.508*%
%ADD24C,0.4*%
%ADD25C,0.3048*%
%ADD26C,0.2794*%
%ADD27C,0.254*%
%ADD28C,0.2286*%
%ADD29C,0.2032*%
%ADD30C,0.1778*%
%ADD31C,0.1524*%
%ADD32C,0.127*%
%ADD33C,0.1016*%
%ADD34C,0.0762*%
%ADD35C,0.0508*%
%ADD36C,0.0254*%
%ADD37C,0.3048*%
%ADD38C,0.2794*%
%ADD39C,0.254*%
%ADD40C,0.2286*%
%ADD41C,0.2032*%
%ADD42C,0.1778*%
%ADD43C,0.1524*%
%ADD44C,0.127*%
%ADD45C,0.1016*%
%ADD46C,0.0762*%
%ADD47C,0.0508*%
%ADD48C,0.0254*%
%ADD49C,0.1001*%
%ADD50C,0.5999*%
%ADD51C,0.3048*%
%ADD52C,0.2794*%
%ADD53C,0.254*%
%ADD54C,0.2286*%
%ADD55C,0.2032*%
%ADD56C,0.1778*%
%ADD57C,0.1524*%
%ADD58C,0.127*%
%ADD59C,0.1016*%
%ADD60C,0.0762*%
%ADD61C,0.0508*%
%ADD62C,0.0254*%
%ADD63C,0.508*%
%ADD64C,0*%
%ADD65C,0.4*%
%ADD66C,0.762*%
G75*
%LPD*%
D10*
X2159700Y3226500D02*
X2223200Y3290000D01*
D11*
X2223200Y3353500D02*
X2159700Y3290000D01*
D12*
X2159700Y3353500D02*
X2223200Y3417000D01*
D13*
X2223200Y3480500D02*
X2159700Y3417000D01*
D14*
X2159700Y3480500D02*
X2223200Y3544000D01*
D15*
X2223200Y3607500D02*
X2159700Y3544000D01*
D16*
X2159700Y3607500D02*
X2223200Y3671000D01*
X1237680Y5527740D02*
X1237680Y5573460D01*
X1209740Y5563300D02*
X1209054Y5561700D01*
X1208470Y5560049D01*
X1207962Y5558372D01*
X1207581Y5556671D01*
X1207276Y5554943D01*
X1207073Y5553216D01*
X1206971Y5551464D01*
X1206971Y5549736D01*
X1207073Y5547984D01*
X1207276Y5546257D01*
X1207581Y5544529D01*
X1207962Y5542828D01*
X1208470Y5541151D01*
X1209054Y5539500D01*
X1209740Y5537900D01*
X1024320Y5527740D02*
X1024320Y5573460D01*
X5581080Y4946410D02*
X5606480Y4946410D01*
X5822380Y4565410D02*
X5847780Y4565410D01*
X5606480Y4184410D02*
X5581080Y4184410D01*
X5977320Y1687260D02*
X5977320Y1641540D01*
X6005260Y1651700D02*
X6005946Y1653300D01*
X6006530Y1654951D01*
X6007038Y1656628D01*
X6007419Y1658329D01*
X6007724Y1660057D01*
X6007927Y1661784D01*
X6008029Y1663536D01*
X6008029Y1665264D01*
X6007927Y1667016D01*
X6007724Y1668743D01*
X6007419Y1670471D01*
X6007038Y1672172D01*
X6006530Y1673849D01*
X6005946Y1675500D01*
X6005260Y1677100D01*
X6190680Y1687260D02*
X6190680Y1641540D01*
D17*
X1237756Y1475500D02*
X1087744Y1475500D01*
X1087744Y1675500D02*
X1225259Y1675500D01*
X1452488Y1679996D02*
X1452488Y1555002D01*
X1607504Y1555002D01*
X1607504Y1214998D01*
X1452488Y1214998D01*
X1452488Y1090004D01*
X1757491Y1090004D01*
X1757491Y1165011D01*
X1757491Y1604989D02*
X1757491Y1679996D01*
X1452488Y1679996D01*
X2159700Y3671000D02*
X2223200Y3734500D01*
X1757491Y5535004D02*
X1452488Y5535004D01*
X1452488Y5659998D01*
X1607504Y5659998D01*
X1607504Y6000002D01*
X1452488Y6000002D01*
X1452488Y6075008D01*
X1502500Y6124996D01*
X1757491Y6124996D01*
X1757491Y6049989D01*
X1757491Y5610011D02*
X1757491Y5535004D01*
X5457509Y5535004D02*
X5762512Y5535004D01*
X5762512Y5659998D01*
X5607496Y5659998D01*
X5607496Y6000002D01*
X5762512Y6000002D01*
X5762512Y6124996D01*
X5457509Y6124996D01*
X5457509Y6049989D01*
X5457509Y5610011D02*
X5457509Y5535004D01*
X5457509Y1679996D02*
X5457509Y1604989D01*
X5457509Y1679996D02*
X5762512Y1679996D01*
X5762512Y1555002D01*
X5607496Y1555002D01*
X5607496Y1214998D01*
X5762512Y1214998D01*
X5762512Y1139992D01*
X5712500Y1090004D01*
X5457509Y1090004D01*
X5457509Y1165011D01*
D18*
X2223200Y3798000D02*
X2159700Y3734500D01*
X1263080Y1452310D02*
X1263080Y1440448D01*
X1310527Y1393001D01*
X1310527Y1381139D01*
X1263080Y1381139D01*
X1235699Y1381139D02*
X1235699Y1440448D01*
X1223837Y1452310D01*
X1200113Y1452310D01*
X1188226Y1440448D01*
X1188226Y1381139D01*
D19*
X1659295Y1745528D02*
X1668185Y1736638D01*
X1677075Y1736638D01*
X1685965Y1745528D01*
X1694880Y1736638D01*
X1703770Y1736638D01*
X1712660Y1745528D01*
X1712660Y1763333D01*
X1703770Y1772223D01*
X1712660Y1792772D02*
X1712660Y1828357D01*
X1677075Y1792772D01*
X1668185Y1792772D01*
X1659295Y1801662D01*
X1659295Y1819467D01*
X1668185Y1828357D01*
X1668185Y1848906D02*
X1659295Y1857796D01*
X1659295Y1875601D01*
X1668185Y1884491D01*
X1703770Y1884491D01*
X1712660Y1875601D01*
X1712660Y1857796D01*
X1703770Y1848906D01*
X1668185Y1772223D02*
X1659295Y1763333D01*
X1659295Y1745528D01*
X1685965Y1745528D02*
X1685965Y1754418D01*
X1824395Y1745528D02*
X1833285Y1736638D01*
X1868870Y1772223D01*
X1877760Y1763333D01*
X1877760Y1745528D01*
X1868870Y1736638D01*
X1833285Y1736638D01*
X1824395Y1745528D02*
X1824395Y1763333D01*
X1833285Y1772223D01*
X1868870Y1772223D01*
X1868870Y1792772D02*
X1877760Y1801662D01*
X1877760Y1819467D01*
X1868870Y1828357D01*
X1868870Y1848906D02*
X1877760Y1857796D01*
X1877760Y1875601D01*
X1868870Y1884491D01*
X1833285Y1884491D01*
X1824395Y1875601D01*
X1824395Y1857796D01*
X1833285Y1848906D01*
X1833285Y1828357D02*
X1824395Y1819467D01*
X1824395Y1801662D01*
X1833285Y1792772D01*
X1842175Y1792772D01*
X1851065Y1801662D01*
X1859980Y1792772D01*
X1868870Y1792772D01*
X1851065Y1801662D02*
X1851065Y1810552D01*
X1900595Y1801662D02*
X1900595Y1819467D01*
X1909485Y1828357D01*
X1909485Y1848906D02*
X1900595Y1857796D01*
X1900595Y1875601D01*
X1909485Y1884491D01*
X1945070Y1884491D01*
X1953960Y1875601D01*
X1953960Y1857796D01*
X1945070Y1848906D01*
X1953960Y1828357D02*
X1918375Y1792772D01*
X1909485Y1792772D01*
X1900595Y1801662D01*
X1909485Y1772223D02*
X1918375Y1772223D01*
X1927265Y1763333D01*
X1927265Y1736638D01*
X1909485Y1736638D02*
X1900595Y1745528D01*
X1900595Y1763333D01*
X1909485Y1772223D01*
X1945070Y1772223D02*
X1953960Y1763333D01*
X1953960Y1745528D01*
X1945070Y1736638D01*
X1909485Y1736638D01*
X1976795Y1736638D02*
X1985685Y1754418D01*
X2003465Y1772223D01*
X2003465Y1745528D01*
X2012380Y1736638D01*
X2021270Y1736638D01*
X2030160Y1745528D01*
X2030160Y1763333D01*
X2021270Y1772223D01*
X2003465Y1772223D01*
X1994575Y1792772D02*
X2003465Y1801662D01*
X2012380Y1792772D01*
X2021270Y1792772D01*
X2030160Y1801662D01*
X2030160Y1819467D01*
X2021270Y1828357D01*
X2021270Y1848906D02*
X2030160Y1857796D01*
X2030160Y1875601D01*
X2021270Y1884491D01*
X1985685Y1884491D01*
X1976795Y1875601D01*
X1976795Y1857796D01*
X1985685Y1848906D01*
X1985685Y1828357D02*
X1976795Y1819467D01*
X1976795Y1801662D01*
X1985685Y1792772D01*
X1994575Y1792772D01*
X2003465Y1801662D02*
X2003465Y1810552D01*
X2052995Y1810552D02*
X2106360Y1810552D01*
X2106360Y1792772D02*
X2106360Y1828357D01*
X2097470Y1848906D02*
X2106360Y1857796D01*
X2106360Y1875601D01*
X2097470Y1884491D01*
X2061885Y1884491D01*
X2052995Y1875601D01*
X2052995Y1857796D01*
X2061885Y1848906D01*
X2070775Y1828357D02*
X2052995Y1810552D01*
X2079665Y1772223D02*
X2052995Y1745528D01*
X2106360Y1745528D01*
X2079665Y1736638D02*
X2079665Y1772223D01*
X1953960Y1792772D02*
X1953960Y1828357D01*
X1579462Y2094879D02*
X1543877Y2094879D01*
X1543877Y2121575D01*
X1561682Y2112685D01*
X1570572Y2112685D01*
X1579462Y2121575D01*
X1579462Y2139380D01*
X1570572Y2148270D01*
X1552767Y2148270D01*
X1543877Y2139380D01*
X1523328Y2139380D02*
X1523328Y2130465D01*
X1514438Y2121575D01*
X1487743Y2121575D01*
X1487743Y2139380D01*
X1496633Y2148270D01*
X1514438Y2148270D01*
X1523328Y2139380D01*
X1505548Y2103795D02*
X1487743Y2121575D01*
X1505548Y2103795D02*
X1523328Y2094879D01*
X1467194Y2103795D02*
X1458304Y2094879D01*
X1440499Y2094879D01*
X1431609Y2103795D01*
X1431609Y2139380D01*
X1440499Y2148270D01*
X1458304Y2148270D01*
X1467194Y2139380D01*
X1593229Y2278928D02*
X1619925Y2305623D01*
X1619925Y2270038D01*
X1646620Y2278928D02*
X1593229Y2278928D01*
X1602145Y2326172D02*
X1593229Y2335062D01*
X1593229Y2352867D01*
X1602145Y2361757D01*
X1602145Y2382306D02*
X1619925Y2382306D01*
X1628815Y2391196D01*
X1628815Y2417891D01*
X1628815Y2400086D02*
X1646620Y2382306D01*
X1646620Y2361757D02*
X1611035Y2326172D01*
X1602145Y2326172D01*
X1646620Y2326172D02*
X1646620Y2361757D01*
X1602145Y2382306D02*
X1593229Y2391196D01*
X1593229Y2417891D01*
X1646620Y2417891D01*
X1592162Y2526679D02*
X1574382Y2535595D01*
X1556577Y2553375D01*
X1583272Y2553375D01*
X1592162Y2562265D01*
X1592162Y2571180D01*
X1583272Y2580070D01*
X1565467Y2580070D01*
X1556577Y2571180D01*
X1556577Y2553375D01*
X1536028Y2562265D02*
X1527138Y2553375D01*
X1500443Y2553375D01*
X1500443Y2571180D01*
X1509333Y2580070D01*
X1527138Y2580070D01*
X1536028Y2571180D01*
X1536028Y2562265D01*
X1518248Y2535595D02*
X1500443Y2553375D01*
X1518248Y2535595D02*
X1536028Y2526679D01*
X1479894Y2535595D02*
X1471004Y2526679D01*
X1453199Y2526679D01*
X1444309Y2535595D01*
X1444309Y2571180D01*
X1453199Y2580070D01*
X1471004Y2580070D01*
X1479894Y2571180D01*
X1185762Y2577479D02*
X1185762Y2586395D01*
X1150177Y2621980D01*
X1150177Y2630870D01*
X1129628Y2586395D02*
X1094043Y2621980D01*
X1094043Y2630870D01*
X1073494Y2621980D02*
X1064604Y2630870D01*
X1046799Y2630870D01*
X1037909Y2621980D01*
X1037909Y2586395D01*
X1046799Y2577479D01*
X1064604Y2577479D01*
X1073494Y2586395D01*
X1094043Y2577479D02*
X1129628Y2577479D01*
X1129628Y2586395D01*
X1150177Y2577479D02*
X1185762Y2577479D01*
X1056070Y2685328D02*
X1047180Y2676438D01*
X1038265Y2676438D01*
X1029375Y2685328D01*
X1029375Y2712023D01*
X1047180Y2712023D01*
X1056070Y2703133D01*
X1056070Y2685328D01*
X1029375Y2712023D02*
X1011595Y2694218D01*
X1002679Y2676438D01*
X1011595Y2732572D02*
X1020485Y2732572D01*
X1029375Y2741462D01*
X1029375Y2759267D01*
X1020485Y2768157D01*
X1011595Y2768157D01*
X1002679Y2759267D01*
X1002679Y2741462D01*
X1011595Y2732572D01*
X1029375Y2741462D02*
X1038265Y2732572D01*
X1047180Y2732572D01*
X1056070Y2741462D01*
X1056070Y2759267D01*
X1047180Y2768157D01*
X1038265Y2768157D01*
X1029375Y2759267D01*
X1011595Y2788706D02*
X1002679Y2797596D01*
X1002679Y2815401D01*
X1011595Y2824291D01*
X1047180Y2824291D01*
X1056070Y2815401D01*
X1056070Y2797596D01*
X1047180Y2788706D01*
X1051904Y2882279D02*
X1034099Y2882279D01*
X1025209Y2891195D01*
X1025209Y2926780D01*
X1034099Y2935670D01*
X1051904Y2935670D01*
X1060794Y2926780D01*
X1081343Y2926780D02*
X1081343Y2935670D01*
X1081343Y2926780D02*
X1116928Y2891195D01*
X1116928Y2882279D01*
X1081343Y2882279D01*
X1060794Y2891195D02*
X1051904Y2882279D01*
X1137477Y2891195D02*
X1146367Y2882279D01*
X1164172Y2882279D01*
X1173062Y2891195D01*
X1173062Y2900085D01*
X1137477Y2935670D01*
X1173062Y2935670D01*
X1536079Y3011718D02*
X1589470Y3011718D01*
X1589470Y2993938D02*
X1589470Y3029523D01*
X1580580Y3050072D02*
X1589470Y3058962D01*
X1589470Y3076767D01*
X1580580Y3085657D01*
X1571665Y3085657D01*
X1562775Y3076767D01*
X1562775Y3058962D01*
X1571665Y3050072D01*
X1580580Y3050072D01*
X1562775Y3058962D02*
X1553885Y3050072D01*
X1544995Y3050072D01*
X1536079Y3058962D01*
X1536079Y3076767D01*
X1544995Y3085657D01*
X1553885Y3085657D01*
X1562775Y3076767D01*
X1544995Y3106206D02*
X1536079Y3115096D01*
X1536079Y3132901D01*
X1544995Y3141791D01*
X1580580Y3141791D01*
X1589470Y3132901D01*
X1589470Y3115096D01*
X1580580Y3106206D01*
X1553885Y3029523D02*
X1536079Y3011718D01*
X1659295Y2967801D02*
X1668185Y2976691D01*
X1703770Y2976691D01*
X1712660Y2967801D01*
X1712660Y2949996D01*
X1703770Y2941106D01*
X1712660Y2920557D02*
X1677075Y2884972D01*
X1668185Y2884972D01*
X1659295Y2893862D01*
X1659295Y2911667D01*
X1668185Y2920557D01*
X1668185Y2941106D02*
X1659295Y2949996D01*
X1659295Y2967801D01*
X1712660Y2920557D02*
X1712660Y2884972D01*
X1703770Y2864423D02*
X1712660Y2855533D01*
X1712660Y2837728D01*
X1703770Y2828838D01*
X1694880Y2828838D01*
X1685965Y2837728D01*
X1685965Y2864423D01*
X1703770Y2864423D01*
X1685965Y2864423D02*
X1668185Y2846618D01*
X1659295Y2828838D01*
X1735495Y2837728D02*
X1735495Y2855533D01*
X1744385Y2864423D01*
X1735495Y2884972D02*
X1744385Y2902752D01*
X1762165Y2920557D01*
X1762165Y2893862D01*
X1771080Y2884972D01*
X1779970Y2884972D01*
X1788860Y2893862D01*
X1788860Y2911667D01*
X1779970Y2920557D01*
X1762165Y2920557D01*
X1744385Y2941106D02*
X1735495Y2949996D01*
X1735495Y2967801D01*
X1744385Y2976691D01*
X1779970Y2976691D01*
X1788860Y2967801D01*
X1788860Y2949996D01*
X1779970Y2941106D01*
X1788860Y2864423D02*
X1753275Y2828838D01*
X1744385Y2828838D01*
X1735495Y2837728D01*
X1788860Y2828838D02*
X1788860Y2864423D01*
X1862495Y2855533D02*
X1862495Y2837728D01*
X1871385Y2828838D01*
X1880275Y2828838D01*
X1889165Y2837728D01*
X1898080Y2828838D01*
X1906970Y2828838D01*
X1915860Y2837728D01*
X1915860Y2855533D01*
X1906970Y2864423D01*
X1906970Y2884972D02*
X1915860Y2893862D01*
X1915860Y2911667D01*
X1906970Y2920557D01*
X1889165Y2920557D02*
X1880275Y2902752D01*
X1880275Y2893862D01*
X1889165Y2884972D01*
X1906970Y2884972D01*
X1938695Y2884972D02*
X1947585Y2884972D01*
X1983170Y2920557D01*
X1992060Y2920557D01*
X1983170Y2941106D02*
X1992060Y2949996D01*
X1992060Y2967801D01*
X1983170Y2976691D01*
X1947585Y2976691D01*
X1938695Y2967801D01*
X1938695Y2949996D01*
X1947585Y2941106D01*
X1938695Y2920557D02*
X1938695Y2884972D01*
X1956475Y2864423D02*
X1938695Y2846618D01*
X1992060Y2846618D01*
X1992060Y2828838D02*
X1992060Y2864423D01*
X2014895Y2855533D02*
X2014895Y2837728D01*
X2023785Y2828838D01*
X2032675Y2828838D01*
X2041565Y2837728D01*
X2050480Y2828838D01*
X2059370Y2828838D01*
X2068260Y2837728D01*
X2068260Y2855533D01*
X2059370Y2864423D01*
X2059370Y2884972D02*
X2050480Y2884972D01*
X2041565Y2893862D01*
X2041565Y2920557D01*
X2059370Y2920557D01*
X2068260Y2911667D01*
X2068260Y2893862D01*
X2059370Y2884972D01*
X2091095Y2902752D02*
X2108875Y2920557D01*
X2099985Y2941106D02*
X2091095Y2949996D01*
X2091095Y2967801D01*
X2099985Y2976691D01*
X2135570Y2976691D01*
X2144460Y2967801D01*
X2144460Y2949996D01*
X2135570Y2941106D01*
X2144460Y2920557D02*
X2144460Y2884972D01*
X2144460Y2902752D02*
X2091095Y2902752D01*
X2099985Y2864423D02*
X2108875Y2864423D01*
X2117765Y2855533D01*
X2117765Y2837728D01*
X2126680Y2828838D01*
X2135570Y2828838D01*
X2144460Y2837728D01*
X2144460Y2855533D01*
X2135570Y2864423D01*
X2126680Y2864423D01*
X2117765Y2855533D01*
X2117765Y2837728D02*
X2108875Y2828838D01*
X2099985Y2828838D01*
X2091095Y2837728D01*
X2091095Y2855533D01*
X2099985Y2864423D01*
X2041565Y2846618D02*
X2041565Y2837728D01*
X2023785Y2864423D02*
X2014895Y2855533D01*
X2014895Y2884972D02*
X2023785Y2902752D01*
X2041565Y2920557D01*
X2023785Y2941106D02*
X2014895Y2949996D01*
X2014895Y2967801D01*
X2023785Y2976691D01*
X2059370Y2976691D01*
X2068260Y2967801D01*
X2068260Y2949996D01*
X2059370Y2941106D01*
X2167295Y2949996D02*
X2167295Y2967801D01*
X2176185Y2976691D01*
X2211770Y2976691D01*
X2220660Y2967801D01*
X2220660Y2949996D01*
X2211770Y2941106D01*
X2220660Y2920557D02*
X2220660Y2884972D01*
X2220660Y2902752D02*
X2167295Y2902752D01*
X2185075Y2920557D01*
X2176185Y2941106D02*
X2167295Y2949996D01*
X2243495Y2949996D02*
X2243495Y2967801D01*
X2252385Y2976691D01*
X2287970Y2976691D01*
X2296860Y2967801D01*
X2296860Y2949996D01*
X2287970Y2941106D01*
X2296860Y2920557D02*
X2261275Y2884972D01*
X2252385Y2884972D01*
X2243495Y2893862D01*
X2243495Y2911667D01*
X2252385Y2920557D01*
X2252385Y2941106D02*
X2243495Y2949996D01*
X2296860Y2920557D02*
X2296860Y2884972D01*
X2287970Y2864423D02*
X2296860Y2855533D01*
X2296860Y2837728D01*
X2287970Y2828838D01*
X2270165Y2828838D01*
X2261275Y2837728D01*
X2261275Y2846618D01*
X2270165Y2864423D01*
X2243495Y2864423D01*
X2243495Y2828838D01*
X2220660Y2837728D02*
X2211770Y2828838D01*
X2193965Y2828838D01*
X2185075Y2837728D01*
X2185075Y2846618D01*
X2193965Y2864423D01*
X2167295Y2864423D01*
X2167295Y2828838D01*
X2220660Y2837728D02*
X2220660Y2855533D01*
X2211770Y2864423D01*
X2319695Y2855533D02*
X2328585Y2864423D01*
X2337475Y2864423D01*
X2346365Y2855533D01*
X2346365Y2828838D01*
X2328585Y2828838D02*
X2319695Y2837728D01*
X2319695Y2855533D01*
X2328585Y2828838D02*
X2364170Y2828838D01*
X2373060Y2837728D01*
X2373060Y2855533D01*
X2364170Y2864423D01*
X2373060Y2884972D02*
X2373060Y2920557D01*
X2373060Y2902752D02*
X2319695Y2902752D01*
X2337475Y2920557D01*
X2328585Y2941106D02*
X2319695Y2949996D01*
X2319695Y2967801D01*
X2328585Y2976691D01*
X2364170Y2976691D01*
X2373060Y2967801D01*
X2373060Y2949996D01*
X2364170Y2941106D01*
X1915860Y2949996D02*
X1906970Y2941106D01*
X1915860Y2949996D02*
X1915860Y2967801D01*
X1906970Y2976691D01*
X1871385Y2976691D01*
X1862495Y2967801D01*
X1862495Y2949996D01*
X1871385Y2941106D01*
X1862495Y2920557D02*
X1889165Y2920557D01*
X1862495Y2920557D02*
X1862495Y2884972D01*
X1871385Y2864423D02*
X1862495Y2855533D01*
X1889165Y2846618D02*
X1889165Y2837728D01*
X1164172Y2046670D02*
X1146367Y2046670D01*
X1137477Y2037780D01*
X1137477Y2028865D01*
X1146367Y2019975D01*
X1164172Y2019975D01*
X1173062Y2028865D01*
X1173062Y2037780D01*
X1164172Y2046670D01*
X1164172Y2019975D02*
X1173062Y2011085D01*
X1173062Y2002195D01*
X1164172Y1993279D01*
X1146367Y1993279D01*
X1137477Y2002195D01*
X1137477Y2011085D01*
X1146367Y2019975D01*
X1116928Y2002195D02*
X1081343Y2037780D01*
X1081343Y2046670D01*
X1060794Y2037780D02*
X1051904Y2046670D01*
X1034099Y2046670D01*
X1025209Y2037780D01*
X1025209Y2002195D01*
X1034099Y1993279D01*
X1051904Y1993279D01*
X1060794Y2002195D01*
X1081343Y1993279D02*
X1116928Y1993279D01*
X1116928Y2002195D01*
X1056070Y1939101D02*
X1047180Y1947991D01*
X1011595Y1947991D01*
X1002679Y1939101D01*
X1002679Y1921296D01*
X1011595Y1912406D01*
X1011595Y1891857D02*
X1020485Y1891857D01*
X1029375Y1882967D01*
X1029375Y1865162D01*
X1038265Y1856272D01*
X1047180Y1856272D01*
X1056070Y1865162D01*
X1056070Y1882967D01*
X1047180Y1891857D01*
X1038265Y1891857D01*
X1029375Y1882967D01*
X1029375Y1865162D02*
X1020485Y1856272D01*
X1011595Y1856272D01*
X1002679Y1865162D01*
X1002679Y1882967D01*
X1011595Y1891857D01*
X1047180Y1912406D02*
X1056070Y1921296D01*
X1056070Y1939101D01*
X1056070Y1835723D02*
X1047180Y1835723D01*
X1011595Y1800138D01*
X1002679Y1800138D01*
X1002679Y1835723D01*
X2802295Y1819467D02*
X2802295Y1801662D01*
X2811185Y1792772D01*
X2820075Y1792772D01*
X2828965Y1801662D01*
X2837880Y1792772D01*
X2846770Y1792772D01*
X2855660Y1801662D01*
X2855660Y1819467D01*
X2846770Y1828357D01*
X2846770Y1848906D02*
X2855660Y1857796D01*
X2855660Y1875601D01*
X2846770Y1884491D01*
X2811185Y1884491D01*
X2802295Y1875601D01*
X2802295Y1857796D01*
X2811185Y1848906D01*
X2811185Y1828357D02*
X2802295Y1819467D01*
X2828965Y1810552D02*
X2828965Y1801662D01*
X2846770Y1772223D02*
X2855660Y1772223D01*
X2846770Y1772223D02*
X2811185Y1736638D01*
X2802295Y1736638D01*
X2802295Y1772223D01*
X3437295Y1763333D02*
X3437295Y1745528D01*
X3446185Y1736638D01*
X3455075Y1736638D01*
X3463965Y1745528D01*
X3463965Y1763333D01*
X3455075Y1772223D01*
X3446185Y1772223D01*
X3437295Y1763333D01*
X3463965Y1763333D02*
X3472880Y1772223D01*
X3481770Y1772223D01*
X3490660Y1763333D01*
X3490660Y1745528D01*
X3481770Y1736638D01*
X3472880Y1736638D01*
X3463965Y1745528D01*
X3455075Y1792772D02*
X3463965Y1801662D01*
X3472880Y1792772D01*
X3481770Y1792772D01*
X3490660Y1801662D01*
X3490660Y1819467D01*
X3481770Y1828357D01*
X3481770Y1848906D02*
X3490660Y1857796D01*
X3490660Y1875601D01*
X3481770Y1884491D01*
X3446185Y1884491D01*
X3437295Y1875601D01*
X3437295Y1857796D01*
X3446185Y1848906D01*
X3446185Y1828357D02*
X3437295Y1819467D01*
X3437295Y1801662D01*
X3446185Y1792772D01*
X3455075Y1792772D01*
X3463965Y1801662D02*
X3463965Y1810552D01*
X3564295Y1801662D02*
X3573185Y1792772D01*
X3582075Y1792772D01*
X3590965Y1801662D01*
X3599880Y1792772D01*
X3608770Y1792772D01*
X3617660Y1801662D01*
X3617660Y1819467D01*
X3608770Y1828357D01*
X3608770Y1848906D02*
X3617660Y1857796D01*
X3617660Y1875601D01*
X3608770Y1884491D01*
X3573185Y1884491D01*
X3564295Y1875601D01*
X3564295Y1857796D01*
X3573185Y1848906D01*
X3573185Y1828357D02*
X3564295Y1819467D01*
X3564295Y1801662D01*
X3590965Y1801662D02*
X3590965Y1810552D01*
X3582075Y1772223D02*
X3590965Y1763333D01*
X3590965Y1736638D01*
X3573185Y1736638D02*
X3564295Y1745528D01*
X3564295Y1763333D01*
X3573185Y1772223D01*
X3582075Y1772223D01*
X3608770Y1772223D02*
X3617660Y1763333D01*
X3617660Y1745528D01*
X3608770Y1736638D01*
X3573185Y1736638D01*
X4326295Y1745528D02*
X4335185Y1736638D01*
X4370770Y1772223D01*
X4379660Y1763333D01*
X4379660Y1745528D01*
X4370770Y1736638D01*
X4335185Y1736638D01*
X4326295Y1745528D02*
X4326295Y1763333D01*
X4335185Y1772223D01*
X4370770Y1772223D01*
X4352965Y1792772D02*
X4352965Y1828357D01*
X4326295Y1801662D01*
X4379660Y1801662D01*
X4370770Y1848906D02*
X4379660Y1857796D01*
X4379660Y1875601D01*
X4370770Y1884491D01*
X4335185Y1884491D01*
X4326295Y1875601D01*
X4326295Y1857796D01*
X4335185Y1848906D01*
X4834295Y1857796D02*
X4834295Y1875601D01*
X4843185Y1884491D01*
X4878770Y1884491D01*
X4887660Y1875601D01*
X4887660Y1857796D01*
X4878770Y1848906D01*
X4860965Y1828357D02*
X4860965Y1792772D01*
X4852075Y1772223D02*
X4834295Y1754418D01*
X4887660Y1754418D01*
X4887660Y1736638D02*
X4887660Y1772223D01*
X4887660Y1801662D02*
X4834295Y1801662D01*
X4860965Y1828357D01*
X4843185Y1848906D02*
X4834295Y1857796D01*
X4961295Y1857796D02*
X4961295Y1875601D01*
X4970185Y1884491D01*
X5005770Y1884491D01*
X5014660Y1875601D01*
X5014660Y1857796D01*
X5005770Y1848906D01*
X4987965Y1828357D02*
X4987965Y1792772D01*
X4970185Y1772223D02*
X4961295Y1763333D01*
X4961295Y1745528D01*
X4970185Y1736638D01*
X4979075Y1736638D01*
X5014660Y1772223D01*
X5014660Y1736638D01*
X5037495Y1745528D02*
X5037495Y1763333D01*
X5046385Y1772223D01*
X5055275Y1772223D01*
X5064165Y1763333D01*
X5064165Y1736638D01*
X5046385Y1736638D02*
X5037495Y1745528D01*
X5046385Y1736638D02*
X5081970Y1736638D01*
X5090860Y1745528D01*
X5090860Y1763333D01*
X5081970Y1772223D01*
X5081970Y1792772D02*
X5090860Y1801662D01*
X5090860Y1819467D01*
X5081970Y1828357D01*
X5073080Y1828357D01*
X5064165Y1819467D01*
X5064165Y1801662D01*
X5073080Y1792772D01*
X5081970Y1792772D01*
X5064165Y1801662D02*
X5055275Y1792772D01*
X5046385Y1792772D01*
X5037495Y1801662D01*
X5037495Y1819467D01*
X5046385Y1828357D01*
X5055275Y1828357D01*
X5064165Y1819467D01*
X5046385Y1848906D02*
X5037495Y1857796D01*
X5037495Y1875601D01*
X5046385Y1884491D01*
X5081970Y1884491D01*
X5090860Y1875601D01*
X5090860Y1857796D01*
X5081970Y1848906D01*
X5151795Y1857796D02*
X5151795Y1875601D01*
X5160685Y1884491D01*
X5196270Y1884491D01*
X5205160Y1875601D01*
X5205160Y1857796D01*
X5196270Y1848906D01*
X5205160Y1828357D02*
X5169575Y1792772D01*
X5160685Y1792772D01*
X5151795Y1801662D01*
X5151795Y1819467D01*
X5160685Y1828357D01*
X5160685Y1848906D02*
X5151795Y1857796D01*
X5205160Y1828357D02*
X5205160Y1792772D01*
X5178465Y1772223D02*
X5178465Y1736638D01*
X5151795Y1745528D02*
X5178465Y1772223D01*
X5151795Y1745528D02*
X5205160Y1745528D01*
X5266095Y1745528D02*
X5266095Y1763333D01*
X5274985Y1772223D01*
X5310570Y1772223D01*
X5274985Y1736638D01*
X5310570Y1736638D01*
X5319460Y1745528D01*
X5319460Y1763333D01*
X5310570Y1772223D01*
X5319460Y1792772D02*
X5319460Y1828357D01*
X5283875Y1792772D01*
X5274985Y1792772D01*
X5266095Y1801662D01*
X5266095Y1819467D01*
X5274985Y1828357D01*
X5274985Y1848906D02*
X5266095Y1857796D01*
X5266095Y1875601D01*
X5274985Y1884491D01*
X5310570Y1884491D01*
X5319460Y1875601D01*
X5319460Y1857796D01*
X5310570Y1848906D01*
X5342295Y1857796D02*
X5342295Y1875601D01*
X5351185Y1884491D01*
X5386770Y1884491D01*
X5395660Y1875601D01*
X5395660Y1857796D01*
X5386770Y1848906D01*
X5368965Y1828357D02*
X5368965Y1792772D01*
X5360075Y1772223D02*
X5368965Y1763333D01*
X5368965Y1736638D01*
X5351185Y1736638D02*
X5342295Y1745528D01*
X5342295Y1763333D01*
X5351185Y1772223D01*
X5360075Y1772223D01*
X5386770Y1772223D02*
X5395660Y1763333D01*
X5395660Y1745528D01*
X5386770Y1736638D01*
X5351185Y1736638D01*
X5342295Y1801662D02*
X5368965Y1828357D01*
X5351185Y1848906D02*
X5342295Y1857796D01*
X5342295Y1801662D02*
X5395660Y1801662D01*
X5274985Y1736638D02*
X5266095Y1745528D01*
X5014660Y1801662D02*
X4961295Y1801662D01*
X4987965Y1828357D01*
X4970185Y1848906D02*
X4961295Y1857796D01*
X5469295Y2088428D02*
X5478185Y2079538D01*
X5487075Y2079538D01*
X5495965Y2088428D01*
X5504880Y2079538D01*
X5513770Y2079538D01*
X5522660Y2088428D01*
X5522660Y2106233D01*
X5513770Y2115123D01*
X5513770Y2135672D02*
X5522660Y2144562D01*
X5522660Y2162367D01*
X5513770Y2171257D01*
X5504880Y2171257D01*
X5495965Y2162367D01*
X5495965Y2144562D01*
X5504880Y2135672D01*
X5513770Y2135672D01*
X5495965Y2144562D02*
X5487075Y2135672D01*
X5478185Y2135672D01*
X5469295Y2144562D01*
X5469295Y2162367D01*
X5478185Y2171257D01*
X5487075Y2171257D01*
X5495965Y2162367D01*
X5478185Y2191806D02*
X5469295Y2200696D01*
X5469295Y2218501D01*
X5478185Y2227391D01*
X5513770Y2227391D01*
X5522660Y2218501D01*
X5522660Y2200696D01*
X5513770Y2191806D01*
X5542624Y2206665D02*
X5569294Y2206665D01*
X5578210Y2197775D01*
X5578210Y2179995D01*
X5569294Y2171079D01*
X5542624Y2171079D01*
X5542624Y2224470D01*
X5560404Y2206665D02*
X5578210Y2224470D01*
X5598733Y2224470D02*
X5634344Y2224470D01*
X5616538Y2224470D02*
X5616538Y2171079D01*
X5598733Y2188885D01*
X5598733Y2148270D02*
X5634344Y2148270D01*
X5616538Y2148270D02*
X5616538Y2094879D01*
X5598733Y2112685D01*
X5578210Y2121575D02*
X5569294Y2130465D01*
X5542624Y2130465D01*
X5560404Y2130465D02*
X5578210Y2148270D01*
X5578210Y2121575D02*
X5578210Y2103795D01*
X5569294Y2094879D01*
X5542624Y2094879D01*
X5542624Y2148270D01*
X5495965Y2097318D02*
X5495965Y2088428D01*
X5469295Y2088428D02*
X5469295Y2106233D01*
X5478185Y2115123D01*
X5542624Y2072070D02*
X5542624Y2018679D01*
X5569294Y2018679D01*
X5578210Y2027595D01*
X5578210Y2045375D01*
X5569294Y2054265D01*
X5542624Y2054265D01*
X5560404Y2054265D02*
X5578210Y2072070D01*
X5598733Y2072070D02*
X5634344Y2072070D01*
X5616538Y2072070D02*
X5616538Y2018679D01*
X5598733Y2036485D01*
X5598733Y1995870D02*
X5634344Y1995870D01*
X5616538Y1995870D02*
X5616538Y1942479D01*
X5598733Y1960285D01*
X5578210Y1951395D02*
X5569294Y1942479D01*
X5551514Y1942479D01*
X5542624Y1951395D01*
X5542624Y1986980D01*
X5551514Y1995870D01*
X5569294Y1995870D01*
X5578210Y1986980D01*
X5654867Y1995870D02*
X5690478Y1995870D01*
X5672672Y1995870D02*
X5672672Y1942479D01*
X5654867Y1960285D01*
X5663782Y2018679D02*
X5681562Y2018679D01*
X5690478Y2027595D01*
X5654867Y2063180D01*
X5663782Y2072070D01*
X5681562Y2072070D01*
X5690478Y2063180D01*
X5690478Y2027595D01*
X5663782Y2018679D02*
X5654867Y2027595D01*
X5654867Y2063180D01*
X5672672Y2094879D02*
X5672672Y2148270D01*
X5654867Y2148270D02*
X5690478Y2148270D01*
X5681562Y2171079D02*
X5663782Y2171079D01*
X5654867Y2179995D01*
X5681562Y2171079D02*
X5690478Y2179995D01*
X5690478Y2188885D01*
X5654867Y2224470D01*
X5690478Y2224470D01*
X5691570Y2291628D02*
X5691570Y2327213D01*
X5655985Y2291628D01*
X5647095Y2291628D01*
X5638179Y2300543D01*
X5638179Y2318323D01*
X5647095Y2327213D01*
X5638179Y2365567D02*
X5691570Y2365567D01*
X5691570Y2383347D02*
X5691570Y2347762D01*
X5655985Y2383347D02*
X5638179Y2365567D01*
X5647095Y2403896D02*
X5638179Y2412786D01*
X5638179Y2430591D01*
X5647095Y2439481D01*
X5682680Y2439481D01*
X5691570Y2430591D01*
X5691570Y2412786D01*
X5682680Y2403896D01*
X5681562Y2463179D02*
X5690478Y2472095D01*
X5690478Y2480985D01*
X5681562Y2489875D01*
X5690478Y2498765D01*
X5690478Y2507680D01*
X5681562Y2516570D01*
X5663782Y2516570D01*
X5654867Y2507680D01*
X5634344Y2516570D02*
X5598733Y2516570D01*
X5616538Y2516570D02*
X5616538Y2463179D01*
X5598733Y2480985D01*
X5578210Y2489875D02*
X5569294Y2498765D01*
X5542624Y2498765D01*
X5560404Y2498765D02*
X5578210Y2516570D01*
X5569294Y2539379D02*
X5542624Y2539379D01*
X5542624Y2592770D01*
X5542624Y2574965D02*
X5569294Y2574965D01*
X5578210Y2566075D01*
X5578210Y2548295D01*
X5569294Y2539379D01*
X5598733Y2557185D02*
X5616538Y2539379D01*
X5616538Y2592770D01*
X5598733Y2592770D02*
X5634344Y2592770D01*
X5616538Y2615579D02*
X5616538Y2668970D01*
X5598733Y2668970D02*
X5634344Y2668970D01*
X5654867Y2660080D02*
X5663782Y2668970D01*
X5681562Y2668970D01*
X5690478Y2660080D01*
X5690478Y2642275D01*
X5681562Y2633385D01*
X5672672Y2633385D01*
X5654867Y2642275D01*
X5654867Y2615579D01*
X5690478Y2615579D01*
X5681562Y2592770D02*
X5681562Y2539379D01*
X5654867Y2566075D01*
X5690478Y2566075D01*
X5681562Y2489875D02*
X5672672Y2489875D01*
X5654867Y2472095D02*
X5663782Y2463179D01*
X5681562Y2463179D01*
X5578210Y2472095D02*
X5578210Y2489875D01*
X5578210Y2472095D02*
X5569294Y2463179D01*
X5542624Y2463179D01*
X5542624Y2516570D01*
X5560404Y2574965D02*
X5578210Y2592770D01*
X5569294Y2615579D02*
X5542624Y2615579D01*
X5542624Y2668970D01*
X5542624Y2651165D02*
X5569294Y2651165D01*
X5578210Y2642275D01*
X5578210Y2624495D01*
X5569294Y2615579D01*
X5598733Y2633385D02*
X5616538Y2615579D01*
X5578210Y2668970D02*
X5560404Y2651165D01*
X5551743Y2831530D02*
X5569523Y2831530D01*
X5578413Y2840420D01*
X5598962Y2831530D02*
X5634547Y2831530D01*
X5616767Y2831530D02*
X5616767Y2884921D01*
X5634547Y2867115D01*
X5655096Y2876005D02*
X5663986Y2884921D01*
X5681791Y2884921D01*
X5690681Y2876005D01*
X5690681Y2840420D01*
X5681791Y2831530D01*
X5663986Y2831530D01*
X5655096Y2840420D01*
X5655096Y2907730D02*
X5672901Y2925535D01*
X5663986Y2925535D02*
X5690681Y2925535D01*
X5690681Y2907730D02*
X5690681Y2961121D01*
X5663986Y2961121D01*
X5655096Y2952205D01*
X5655096Y2934425D01*
X5663986Y2925535D01*
X5634547Y2943315D02*
X5616767Y2961121D01*
X5616767Y2907730D01*
X5634547Y2907730D02*
X5598962Y2907730D01*
X5578413Y2916620D02*
X5569523Y2907730D01*
X5551743Y2907730D01*
X5542828Y2916620D01*
X5542828Y2925535D01*
X5551743Y2934425D01*
X5578413Y2934425D01*
X5578413Y2916620D01*
X5578413Y2934425D02*
X5560633Y2952205D01*
X5542828Y2961121D01*
X5578413Y2983930D02*
X5578413Y2992820D01*
X5542828Y3028405D01*
X5542828Y3037321D01*
X5578413Y3037321D01*
X5569523Y3060130D02*
X5578413Y3069020D01*
X5578413Y3077935D01*
X5569523Y3086825D01*
X5551743Y3086825D01*
X5542828Y3077935D01*
X5542828Y3069020D01*
X5551743Y3060130D01*
X5569523Y3060130D01*
X5569523Y3086825D02*
X5578413Y3095715D01*
X5578413Y3104605D01*
X5569523Y3113521D01*
X5551743Y3113521D01*
X5542828Y3104605D01*
X5542828Y3095715D01*
X5551743Y3086825D01*
X5598962Y3060130D02*
X5634547Y3060130D01*
X5616767Y3060130D02*
X5616767Y3113521D01*
X5634547Y3095715D01*
X5655096Y3086825D02*
X5663986Y3077935D01*
X5690681Y3077935D01*
X5672901Y3077935D02*
X5655096Y3060130D01*
X5663986Y3037321D02*
X5655096Y3028405D01*
X5655096Y3010625D01*
X5663986Y3001735D01*
X5690681Y3001735D01*
X5672901Y3001735D02*
X5655096Y2983930D01*
X5634547Y2983930D02*
X5598962Y2983930D01*
X5616767Y2983930D02*
X5616767Y3037321D01*
X5634547Y3019515D01*
X5663986Y3037321D02*
X5690681Y3037321D01*
X5690681Y2983930D01*
X5690681Y3060130D02*
X5690681Y3113521D01*
X5663986Y3113521D01*
X5655096Y3104605D01*
X5655096Y3086825D01*
X5569523Y2884921D02*
X5551743Y2884921D01*
X5542828Y2876005D01*
X5542828Y2867115D01*
X5551743Y2858225D01*
X5542828Y2849335D01*
X5542828Y2840420D01*
X5551743Y2831530D01*
X5551743Y2858225D02*
X5560633Y2858225D01*
X5578413Y2876005D02*
X5569523Y2884921D01*
X5395660Y2893862D02*
X5342295Y2893862D01*
X5368965Y2920557D01*
X5368965Y2884972D01*
X5360075Y2864423D02*
X5351185Y2864423D01*
X5342295Y2855533D01*
X5342295Y2837728D01*
X5351185Y2828838D01*
X5360075Y2828838D01*
X5368965Y2837728D01*
X5368965Y2855533D01*
X5360075Y2864423D01*
X5368965Y2855533D02*
X5377880Y2864423D01*
X5386770Y2864423D01*
X5395660Y2855533D01*
X5395660Y2837728D01*
X5386770Y2828838D01*
X5377880Y2828838D01*
X5368965Y2837728D01*
X5319460Y2828838D02*
X5319460Y2864423D01*
X5319460Y2846618D02*
X5266095Y2846618D01*
X5283875Y2864423D01*
X5283875Y2884972D02*
X5274985Y2884972D01*
X5266095Y2893862D01*
X5266095Y2911667D01*
X5274985Y2920557D01*
X5274985Y2941106D02*
X5266095Y2949996D01*
X5266095Y2967801D01*
X5274985Y2976691D01*
X5310570Y2976691D01*
X5319460Y2967801D01*
X5319460Y2949996D01*
X5310570Y2941106D01*
X5319460Y2920557D02*
X5283875Y2884972D01*
X5319460Y2884972D02*
X5319460Y2920557D01*
X5342295Y2949996D02*
X5342295Y2967801D01*
X5351185Y2976691D01*
X5386770Y2976691D01*
X5395660Y2967801D01*
X5395660Y2949996D01*
X5386770Y2941106D01*
X5351185Y2941106D02*
X5342295Y2949996D01*
X5217860Y2949996D02*
X5208970Y2941106D01*
X5217860Y2949996D02*
X5217860Y2967801D01*
X5208970Y2976691D01*
X5173385Y2976691D01*
X5164495Y2967801D01*
X5164495Y2949996D01*
X5173385Y2941106D01*
X5191165Y2920557D02*
X5191165Y2893862D01*
X5200080Y2884972D01*
X5208970Y2884972D01*
X5217860Y2893862D01*
X5217860Y2911667D01*
X5208970Y2920557D01*
X5191165Y2920557D01*
X5173385Y2902752D01*
X5164495Y2884972D01*
X5141660Y2893862D02*
X5088295Y2893862D01*
X5114965Y2920557D01*
X5114965Y2884972D01*
X5132770Y2864423D02*
X5141660Y2864423D01*
X5132770Y2864423D02*
X5097185Y2828838D01*
X5088295Y2828838D01*
X5088295Y2864423D01*
X5065460Y2855533D02*
X5065460Y2837728D01*
X5056570Y2828838D01*
X5047680Y2828838D01*
X5038765Y2837728D01*
X5038765Y2864423D01*
X5056570Y2864423D01*
X5065460Y2855533D01*
X5038765Y2864423D02*
X5020985Y2846618D01*
X5012095Y2828838D01*
X4963860Y2837728D02*
X4954970Y2828838D01*
X4937165Y2828838D01*
X4928275Y2837728D01*
X4928275Y2846618D01*
X4937165Y2864423D01*
X4910495Y2864423D01*
X4910495Y2828838D01*
X4887660Y2837728D02*
X4834295Y2837728D01*
X4860965Y2864423D01*
X4860965Y2828838D01*
X4811460Y2837728D02*
X4811460Y2855533D01*
X4802570Y2864423D01*
X4784765Y2864423D02*
X4775875Y2846618D01*
X4775875Y2837728D01*
X4784765Y2828838D01*
X4802570Y2828838D01*
X4811460Y2837728D01*
X4784765Y2864423D02*
X4758095Y2864423D01*
X4758095Y2828838D01*
X4758095Y2884972D02*
X4766985Y2884972D01*
X4802570Y2920557D01*
X4811460Y2920557D01*
X4802570Y2941106D02*
X4811460Y2949996D01*
X4811460Y2967801D01*
X4802570Y2976691D01*
X4766985Y2976691D01*
X4758095Y2967801D01*
X4758095Y2949996D01*
X4766985Y2941106D01*
X4758095Y2920557D02*
X4758095Y2884972D01*
X4834295Y2884972D02*
X4834295Y2920557D01*
X4860965Y2920557D01*
X4852075Y2902752D01*
X4852075Y2893862D01*
X4860965Y2884972D01*
X4878770Y2884972D01*
X4887660Y2893862D01*
X4887660Y2911667D01*
X4878770Y2920557D01*
X4878770Y2941106D02*
X4887660Y2949996D01*
X4887660Y2967801D01*
X4878770Y2976691D01*
X4843185Y2976691D01*
X4834295Y2967801D01*
X4834295Y2949996D01*
X4843185Y2941106D01*
X4910495Y2949996D02*
X4910495Y2967801D01*
X4919385Y2976691D01*
X4954970Y2976691D01*
X4963860Y2967801D01*
X4963860Y2949996D01*
X4954970Y2941106D01*
X4954970Y2920557D02*
X4963860Y2911667D01*
X4963860Y2893862D01*
X4954970Y2884972D01*
X4937165Y2884972D01*
X4928275Y2893862D01*
X4928275Y2902752D01*
X4937165Y2920557D01*
X4910495Y2920557D01*
X4910495Y2884972D01*
X4954970Y2864423D02*
X4963860Y2855533D01*
X4963860Y2837728D01*
X5012095Y2884972D02*
X5012095Y2920557D01*
X5038765Y2920557D01*
X5029875Y2902752D01*
X5029875Y2893862D01*
X5038765Y2884972D01*
X5056570Y2884972D01*
X5065460Y2893862D01*
X5065460Y2911667D01*
X5056570Y2920557D01*
X5056570Y2941106D02*
X5065460Y2949996D01*
X5065460Y2967801D01*
X5056570Y2976691D01*
X5020985Y2976691D01*
X5012095Y2967801D01*
X5012095Y2949996D01*
X5020985Y2941106D01*
X5088295Y2949996D02*
X5088295Y2967801D01*
X5097185Y2976691D01*
X5132770Y2976691D01*
X5141660Y2967801D01*
X5141660Y2949996D01*
X5132770Y2941106D01*
X5097185Y2941106D02*
X5088295Y2949996D01*
X5191165Y2864423D02*
X5191165Y2828838D01*
X5164495Y2837728D02*
X5191165Y2864423D01*
X5164495Y2837728D02*
X5217860Y2837728D01*
X4919385Y2941106D02*
X4910495Y2949996D01*
X5879276Y2812480D02*
X5888166Y2821370D01*
X5905971Y2821370D01*
X5914861Y2812480D01*
X5935410Y2812480D02*
X5935410Y2821370D01*
X5935410Y2812480D02*
X5970995Y2776895D01*
X5970995Y2767979D01*
X5935410Y2767979D01*
X5914861Y2776895D02*
X5905971Y2767979D01*
X5888166Y2767979D01*
X5879276Y2776895D01*
X5879276Y2812480D01*
X6219839Y2930438D02*
X6273230Y2930438D01*
X6255425Y2948218D01*
X6273230Y2966023D01*
X6219839Y2966023D01*
X6228755Y2986572D02*
X6219839Y2995462D01*
X6219839Y3013267D01*
X6228755Y3022157D01*
X6237645Y3022157D01*
X6246535Y3013267D01*
X6246535Y2995462D01*
X6255425Y2986572D01*
X6264340Y2986572D01*
X6273230Y2995462D01*
X6273230Y3013267D01*
X6264340Y3022157D01*
X6264340Y3042706D02*
X6219839Y3042706D01*
X6219839Y3078291D02*
X6264340Y3078291D01*
X6273230Y3069401D01*
X6273230Y3051596D01*
X6264340Y3042706D01*
X6264340Y2633791D02*
X6273230Y2624901D01*
X6273230Y2607096D01*
X6264340Y2598206D01*
X6219839Y2598206D01*
X6228755Y2577657D02*
X6237645Y2577657D01*
X6246535Y2568767D01*
X6246535Y2550962D01*
X6255425Y2542072D01*
X6264340Y2542072D01*
X6273230Y2550962D01*
X6273230Y2568767D01*
X6264340Y2577657D01*
X6228755Y2577657D02*
X6219839Y2568767D01*
X6219839Y2550962D01*
X6228755Y2542072D01*
X6228755Y2521523D02*
X6237645Y2521523D01*
X6246535Y2512633D01*
X6246535Y2494828D01*
X6255425Y2485938D01*
X6264340Y2485938D01*
X6273230Y2494828D01*
X6273230Y2512633D01*
X6264340Y2521523D01*
X6228755Y2521523D02*
X6219839Y2512633D01*
X6219839Y2494828D01*
X6228755Y2485938D01*
X6219839Y2633791D02*
X6264340Y2633791D01*
X5970995Y2367980D02*
X5962105Y2376870D01*
X5944300Y2376870D01*
X5935410Y2367980D01*
X5935410Y2350175D01*
X5962105Y2350175D01*
X5970995Y2359065D01*
X5970995Y2367980D01*
X5953215Y2332395D02*
X5935410Y2350175D01*
X5953215Y2332395D02*
X5970995Y2323479D01*
X5914861Y2332395D02*
X5905971Y2323479D01*
X5888166Y2323479D01*
X5879276Y2332395D01*
X5879276Y2367980D01*
X5888166Y2376870D01*
X5905971Y2376870D01*
X5914861Y2367980D01*
X5931600Y2237170D02*
X5922710Y2228280D01*
X5931600Y2237170D02*
X5949405Y2237170D01*
X5958295Y2228280D01*
X5958295Y2210475D01*
X5949405Y2201585D01*
X5940515Y2201585D01*
X5922710Y2210475D01*
X5922710Y2183779D01*
X5958295Y2183779D01*
X5902161Y2192695D02*
X5893271Y2183779D01*
X5875466Y2183779D01*
X5866576Y2192695D01*
X5866576Y2228280D01*
X5875466Y2237170D01*
X5893271Y2237170D01*
X5902161Y2228280D01*
X5672672Y2094879D02*
X5654867Y2112685D01*
X5782070Y1910678D02*
X5782070Y1875093D01*
X5782070Y1892873D02*
X5835461Y1892873D01*
X5835461Y1854544D02*
X5782070Y1854544D01*
X5782070Y1827849D01*
X5790960Y1818959D01*
X5808766Y1818959D01*
X5817656Y1827849D01*
X5817656Y1854544D01*
X5808766Y1798410D02*
X5808766Y1762825D01*
X5815979Y1744791D02*
X5815979Y1718096D01*
X5824895Y1709206D01*
X5842675Y1709206D01*
X5851565Y1718096D01*
X5851565Y1744791D01*
X5851565Y1726986D02*
X5869370Y1709206D01*
X5869370Y1688657D02*
X5833785Y1653072D01*
X5824895Y1653072D01*
X5815979Y1661962D01*
X5815979Y1679767D01*
X5824895Y1688657D01*
X5869370Y1688657D02*
X5869370Y1653072D01*
X5860480Y1632523D02*
X5824895Y1596938D01*
X5860480Y1596938D01*
X5869370Y1605828D01*
X5869370Y1623633D01*
X5860480Y1632523D01*
X5824895Y1632523D01*
X5815979Y1623633D01*
X5815979Y1605828D01*
X5824895Y1596938D01*
X5815979Y1744791D02*
X5869370Y1744791D01*
X5835461Y1771715D02*
X5782070Y1771715D01*
X5808766Y1798410D01*
X6040566Y1475170D02*
X6058371Y1475170D01*
X6067261Y1466280D01*
X6067261Y1421779D01*
X6087810Y1430695D02*
X6096700Y1421779D01*
X6114505Y1421779D01*
X6123395Y1430695D01*
X6123395Y1439585D01*
X6087810Y1475170D01*
X6123395Y1475170D01*
X6040566Y1475170D02*
X6031676Y1466280D01*
X6031676Y1421779D01*
X5987150Y1423989D02*
X5978260Y1432879D01*
X5960454Y1432879D01*
X5951564Y1423989D01*
X5969370Y1406184D02*
X5978260Y1406184D01*
X5987150Y1415074D01*
X5987150Y1423989D01*
X5978260Y1406184D02*
X5987150Y1397294D01*
X5987150Y1388404D01*
X5978260Y1379488D01*
X5960454Y1379488D01*
X5951564Y1388404D01*
X5931016Y1388404D02*
X5931016Y1406184D01*
X5922126Y1415074D01*
X5895430Y1415074D01*
X5895430Y1432879D02*
X5895430Y1379488D01*
X5922126Y1379488D01*
X5931016Y1388404D01*
X5874882Y1379488D02*
X5839296Y1379488D01*
X5857102Y1379488D02*
X5857102Y1432879D01*
X6217299Y2038898D02*
X6217299Y2074483D01*
X6270690Y2074483D01*
X6270690Y2038898D01*
X6243995Y2056678D02*
X6243995Y2074483D01*
X6252885Y2095032D02*
X6261800Y2095032D01*
X6270690Y2103922D01*
X6270690Y2121727D01*
X6261800Y2130617D01*
X6243995Y2121727D02*
X6243995Y2103922D01*
X6252885Y2095032D01*
X6226215Y2095032D02*
X6217299Y2103922D01*
X6217299Y2121727D01*
X6226215Y2130617D01*
X6235105Y2130617D01*
X6243995Y2121727D01*
X6261800Y2151166D02*
X6217299Y2151166D01*
X6217299Y2186751D02*
X6261800Y2186751D01*
X6270690Y2177861D01*
X6270690Y2160056D01*
X6261800Y2151166D01*
X5635715Y4050679D02*
X5617935Y4059595D01*
X5600130Y4077375D01*
X5626825Y4077375D01*
X5635715Y4086265D01*
X5635715Y4095180D01*
X5626825Y4104070D01*
X5609020Y4104070D01*
X5600130Y4095180D01*
X5600130Y4077375D01*
X5579581Y4095180D02*
X5579581Y4050679D01*
X5543996Y4050679D02*
X5543996Y4095180D01*
X5552886Y4104070D01*
X5570691Y4104070D01*
X5579581Y4095180D01*
X5515929Y4155200D02*
X5480344Y4155200D01*
X5471454Y4164090D01*
X5471454Y4181896D01*
X5480344Y4190786D01*
X5489234Y4190786D01*
X5498149Y4181896D01*
X5498149Y4155200D01*
X5515929Y4155200D02*
X5524819Y4164090D01*
X5524819Y4181896D01*
X5515929Y4190786D01*
X5498149Y4211334D02*
X5507039Y4220224D01*
X5507039Y4246920D01*
X5524819Y4246920D02*
X5471454Y4246920D01*
X5471454Y4220224D01*
X5480344Y4211334D01*
X5498149Y4211334D01*
X5471454Y4267468D02*
X5471454Y4303054D01*
X5471454Y4285248D02*
X5524819Y4285248D01*
X5544428Y4440569D02*
X5526622Y4449459D01*
X5508817Y4467265D01*
X5535512Y4467265D01*
X5544428Y4476155D01*
X5544428Y4485045D01*
X5535512Y4493960D01*
X5517732Y4493960D01*
X5508817Y4485045D01*
X5508817Y4467265D01*
X5488294Y4493960D02*
X5452683Y4493960D01*
X5470488Y4493960D02*
X5470488Y4440569D01*
X5452683Y4458349D01*
X5432160Y4449459D02*
X5423244Y4440569D01*
X5405464Y4440569D01*
X5396574Y4449459D01*
X5396574Y4485045D01*
X5405464Y4493960D01*
X5423244Y4493960D01*
X5432160Y4485045D01*
X5422914Y4545751D02*
X5431804Y4554641D01*
X5431804Y4572446D01*
X5422914Y4581336D01*
X5396219Y4581336D01*
X5413999Y4581336D02*
X5431804Y4599141D01*
X5452353Y4599141D02*
X5487938Y4563556D01*
X5487938Y4554641D01*
X5479048Y4545751D01*
X5461243Y4545751D01*
X5452353Y4554641D01*
X5422914Y4545751D02*
X5396219Y4545751D01*
X5396219Y4599141D01*
X5452353Y4599141D02*
X5487938Y4599141D01*
X5508487Y4590251D02*
X5517377Y4599141D01*
X5535157Y4599141D01*
X5544072Y4590251D01*
X5544072Y4581336D01*
X5535157Y4572446D01*
X5526267Y4572446D01*
X5535157Y4572446D02*
X5544072Y4563556D01*
X5544072Y4554641D01*
X5535157Y4545751D01*
X5517377Y4545751D01*
X5508487Y4554641D01*
X5625479Y4619538D02*
X5634395Y4619538D01*
X5669980Y4655123D01*
X5678870Y4655123D01*
X5669980Y4675672D02*
X5661065Y4675672D01*
X5652175Y4684562D01*
X5652175Y4711257D01*
X5669980Y4711257D01*
X5678870Y4702367D01*
X5678870Y4684562D01*
X5669980Y4675672D01*
X5701679Y4675672D02*
X5710595Y4675672D01*
X5746180Y4711257D01*
X5755070Y4711257D01*
X5746180Y4731806D02*
X5755070Y4740696D01*
X5755070Y4758501D01*
X5746180Y4767391D01*
X5710595Y4767391D01*
X5701679Y4758501D01*
X5701679Y4740696D01*
X5710595Y4731806D01*
X5701679Y4711257D02*
X5701679Y4675672D01*
X5710595Y4655123D02*
X5701679Y4646233D01*
X5701679Y4628428D01*
X5710595Y4619538D01*
X5746180Y4655123D01*
X5755070Y4646233D01*
X5755070Y4628428D01*
X5746180Y4619538D01*
X5710595Y4619538D01*
X5710595Y4655123D02*
X5746180Y4655123D01*
X5669980Y4731806D02*
X5678870Y4740696D01*
X5678870Y4758501D01*
X5669980Y4767391D01*
X5634395Y4767391D01*
X5625479Y4758501D01*
X5625479Y4740696D01*
X5634395Y4731806D01*
X5652175Y4711257D02*
X5634395Y4693452D01*
X5625479Y4675672D01*
X5625479Y4655123D02*
X5625479Y4619538D01*
X5626825Y4812679D02*
X5600130Y4839375D01*
X5635715Y4839375D01*
X5626825Y4866070D02*
X5626825Y4812679D01*
X5579581Y4812679D02*
X5579581Y4857180D01*
X5570691Y4866070D01*
X5552886Y4866070D01*
X5543996Y4857180D01*
X5543996Y4812679D01*
X5981079Y5066578D02*
X5981079Y5084383D01*
X5989995Y5093273D01*
X5998885Y5093273D01*
X6007775Y5084383D01*
X6007775Y5057688D01*
X5989995Y5057688D02*
X5981079Y5066578D01*
X5989995Y5057688D02*
X6025580Y5057688D01*
X6034470Y5066578D01*
X6034470Y5084383D01*
X6025580Y5093273D01*
X6025580Y5113822D02*
X6034470Y5122712D01*
X6034470Y5140517D01*
X6025580Y5149407D01*
X6007775Y5149407D02*
X5998885Y5131602D01*
X5998885Y5122712D01*
X6007775Y5113822D01*
X6025580Y5113822D01*
X6007775Y5149407D02*
X5981079Y5149407D01*
X5981079Y5113822D01*
X5989995Y5169956D02*
X5981079Y5178846D01*
X5981079Y5196651D01*
X5989995Y5205541D01*
X6025580Y5205541D01*
X6034470Y5196651D01*
X6034470Y5178846D01*
X6025580Y5169956D01*
X5992738Y5294009D02*
X6001628Y5302925D01*
X6001628Y5320705D01*
X5992738Y5329595D01*
X5966042Y5329595D01*
X5966042Y5347400D02*
X5966042Y5294009D01*
X5992738Y5294009D01*
X5945494Y5294009D02*
X5909908Y5294009D01*
X5909908Y5347400D01*
X5945494Y5347400D01*
X5927688Y5320705D02*
X5909908Y5320705D01*
X5889360Y5338510D02*
X5889360Y5294009D01*
X5853774Y5294009D02*
X5853774Y5338510D01*
X5862664Y5347400D01*
X5880470Y5347400D01*
X5889360Y5338510D01*
X6209679Y5330001D02*
X6218595Y5338891D01*
X6254180Y5338891D01*
X6263070Y5330001D01*
X6263070Y5312196D01*
X6254180Y5303306D01*
X6254180Y5282757D02*
X6263070Y5273867D01*
X6263070Y5256062D01*
X6254180Y5247172D01*
X6218595Y5247172D01*
X6209679Y5256062D01*
X6209679Y5273867D01*
X6218595Y5282757D01*
X6227485Y5282757D01*
X6236375Y5273867D01*
X6236375Y5247172D01*
X6218595Y5226623D02*
X6209679Y5217733D01*
X6209679Y5199928D01*
X6218595Y5191038D01*
X6227485Y5191038D01*
X6236375Y5199928D01*
X6245265Y5191038D01*
X6254180Y5191038D01*
X6263070Y5199928D01*
X6263070Y5217733D01*
X6254180Y5226623D01*
X6236375Y5208818D02*
X6236375Y5199928D01*
X6218595Y5161091D02*
X6254180Y5161091D01*
X6263070Y5152201D01*
X6263070Y5134396D01*
X6254180Y5125506D01*
X6254180Y5104957D02*
X6263070Y5096067D01*
X6263070Y5078262D01*
X6254180Y5069372D01*
X6245265Y5069372D01*
X6236375Y5078262D01*
X6236375Y5104957D01*
X6254180Y5104957D01*
X6236375Y5104957D02*
X6218595Y5087152D01*
X6209679Y5069372D01*
X6218595Y5048823D02*
X6227485Y5048823D01*
X6236375Y5039933D01*
X6236375Y5013238D01*
X6218595Y5013238D02*
X6209679Y5022128D01*
X6209679Y5039933D01*
X6218595Y5048823D01*
X6254180Y5048823D02*
X6263070Y5039933D01*
X6263070Y5022128D01*
X6254180Y5013238D01*
X6218595Y5013238D01*
X6218595Y5125506D02*
X6209679Y5134396D01*
X6209679Y5152201D01*
X6218595Y5161091D01*
X6218595Y5303306D02*
X6209679Y5312196D01*
X6209679Y5330001D01*
X6265610Y5596295D02*
X6265610Y5631880D01*
X6265610Y5614100D02*
X6212245Y5614100D01*
X6230025Y5631880D01*
X6221135Y5652429D02*
X6212245Y5661319D01*
X6212245Y5679124D01*
X6221135Y5688014D01*
X6256720Y5688014D01*
X6265610Y5679124D01*
X6265610Y5661319D01*
X6256720Y5652429D01*
X6189562Y5765179D02*
X6153977Y5818570D01*
X6133428Y5818570D02*
X6097843Y5818570D01*
X6133428Y5782985D01*
X6133428Y5774095D01*
X6124538Y5765179D01*
X6106733Y5765179D01*
X6097843Y5774095D01*
X6077294Y5774095D02*
X6077294Y5791875D01*
X6068404Y5800765D01*
X6041709Y5800765D01*
X6059514Y5800765D02*
X6077294Y5818570D01*
X6041709Y5818570D02*
X6041709Y5765179D01*
X6068404Y5765179D01*
X6077294Y5774095D01*
X6153977Y5765179D02*
X6189562Y5818570D01*
X5916360Y5804981D02*
X5862995Y5804981D01*
X5862995Y5778286D01*
X5871885Y5769396D01*
X5889665Y5769396D01*
X5898580Y5778286D01*
X5898580Y5804981D01*
X5898580Y5787201D02*
X5916360Y5769396D01*
X5916360Y5748847D02*
X5916360Y5713262D01*
X5916360Y5731067D02*
X5862995Y5731067D01*
X5880775Y5748847D01*
X5862995Y5692713D02*
X5916360Y5657128D01*
X5916360Y5692713D02*
X5862995Y5657128D01*
X5317072Y5424870D02*
X5281487Y5424870D01*
X5317072Y5389285D01*
X5317072Y5380395D01*
X5308157Y5371479D01*
X5290377Y5371479D01*
X5281487Y5380395D01*
X5260938Y5380395D02*
X5260938Y5389285D01*
X5252048Y5398175D01*
X5234243Y5398175D01*
X5225353Y5389285D01*
X5225353Y5380395D01*
X5234243Y5371479D01*
X5252048Y5371479D01*
X5260938Y5380395D01*
X5252048Y5398175D02*
X5260938Y5407065D01*
X5260938Y5415980D01*
X5252048Y5424870D01*
X5234243Y5424870D01*
X5225353Y5415980D01*
X5225353Y5407065D01*
X5234243Y5398175D01*
X5204804Y5380395D02*
X5195914Y5371479D01*
X5178109Y5371479D01*
X5169219Y5380395D01*
X5169219Y5415980D01*
X5178109Y5424870D01*
X5195914Y5424870D01*
X5204804Y5415980D01*
X5141660Y5395762D02*
X5088295Y5395762D01*
X5114965Y5422457D01*
X5114965Y5386872D01*
X5114965Y5366323D02*
X5114965Y5339628D01*
X5123880Y5330738D01*
X5132770Y5330738D01*
X5141660Y5339628D01*
X5141660Y5357433D01*
X5132770Y5366323D01*
X5114965Y5366323D01*
X5097185Y5348518D01*
X5088295Y5330738D01*
X5065460Y5339628D02*
X5012095Y5339628D01*
X5038765Y5366323D01*
X5038765Y5330738D01*
X5020985Y5386872D02*
X5056570Y5422457D01*
X5065460Y5422457D01*
X5056570Y5443006D02*
X5065460Y5451896D01*
X5065460Y5469701D01*
X5056570Y5478591D01*
X5020985Y5478591D01*
X5012095Y5469701D01*
X5012095Y5451896D01*
X5020985Y5443006D01*
X5012095Y5422457D02*
X5012095Y5386872D01*
X5020985Y5386872D01*
X4963860Y5395762D02*
X4954970Y5386872D01*
X4946080Y5386872D01*
X4937165Y5395762D01*
X4937165Y5413567D01*
X4928275Y5422457D01*
X4919385Y5422457D01*
X4910495Y5413567D01*
X4910495Y5395762D01*
X4919385Y5386872D01*
X4928275Y5386872D01*
X4937165Y5395762D01*
X4937165Y5413567D02*
X4946080Y5422457D01*
X4954970Y5422457D01*
X4963860Y5413567D01*
X4963860Y5395762D01*
X4954970Y5366323D02*
X4919385Y5330738D01*
X4954970Y5330738D01*
X4963860Y5339628D01*
X4963860Y5357433D01*
X4954970Y5366323D01*
X4919385Y5366323D01*
X4910495Y5357433D01*
X4910495Y5339628D01*
X4919385Y5330738D01*
X4887660Y5339628D02*
X4887660Y5357433D01*
X4878770Y5366323D01*
X4860965Y5366323D02*
X4852075Y5348518D01*
X4852075Y5339628D01*
X4860965Y5330738D01*
X4878770Y5330738D01*
X4887660Y5339628D01*
X4860965Y5366323D02*
X4834295Y5366323D01*
X4834295Y5330738D01*
X4843185Y5386872D02*
X4834295Y5395762D01*
X4834295Y5413567D01*
X4843185Y5422457D01*
X4843185Y5443006D02*
X4834295Y5451896D01*
X4834295Y5469701D01*
X4843185Y5478591D01*
X4878770Y5478591D01*
X4887660Y5469701D01*
X4887660Y5451896D01*
X4878770Y5443006D01*
X4878770Y5422457D02*
X4887660Y5413567D01*
X4887660Y5395762D01*
X4878770Y5386872D01*
X4869880Y5386872D01*
X4860965Y5395762D01*
X4860965Y5404652D01*
X4860965Y5395762D02*
X4852075Y5386872D01*
X4843185Y5386872D01*
X4910495Y5451896D02*
X4910495Y5469701D01*
X4919385Y5478591D01*
X4954970Y5478591D01*
X4963860Y5469701D01*
X4963860Y5451896D01*
X4954970Y5443006D01*
X4919385Y5443006D02*
X4910495Y5451896D01*
X5088295Y5451896D02*
X5088295Y5469701D01*
X5097185Y5478591D01*
X5132770Y5478591D01*
X5141660Y5469701D01*
X5141660Y5451896D01*
X5132770Y5443006D01*
X5097185Y5443006D02*
X5088295Y5451896D01*
X4379660Y5451896D02*
X4370770Y5443006D01*
X4379660Y5451896D02*
X4379660Y5469701D01*
X4370770Y5478591D01*
X4335185Y5478591D01*
X4326295Y5469701D01*
X4326295Y5451896D01*
X4335185Y5443006D01*
X4335185Y5422457D02*
X4326295Y5413567D01*
X4326295Y5395762D01*
X4335185Y5386872D01*
X4344075Y5386872D01*
X4352965Y5395762D01*
X4361880Y5386872D01*
X4370770Y5386872D01*
X4379660Y5395762D01*
X4379660Y5413567D01*
X4370770Y5422457D01*
X4352965Y5404652D02*
X4352965Y5395762D01*
X4352965Y5366323D02*
X4352965Y5330738D01*
X4326295Y5339628D02*
X4352965Y5366323D01*
X4326295Y5339628D02*
X4379660Y5339628D01*
X3592260Y5339628D02*
X3592260Y5357433D01*
X3583370Y5366323D01*
X3565565Y5348518D02*
X3565565Y5339628D01*
X3574480Y5330738D01*
X3583370Y5330738D01*
X3592260Y5339628D01*
X3565565Y5339628D02*
X3556675Y5330738D01*
X3547785Y5330738D01*
X3538895Y5339628D01*
X3538895Y5357433D01*
X3547785Y5366323D01*
X3565565Y5386872D02*
X3565565Y5422457D01*
X3538895Y5395762D01*
X3592260Y5395762D01*
X3583370Y5443006D02*
X3592260Y5451896D01*
X3592260Y5469701D01*
X3583370Y5478591D01*
X3547785Y5478591D01*
X3538895Y5469701D01*
X3538895Y5451896D01*
X3547785Y5443006D01*
X3516060Y5451896D02*
X3507170Y5443006D01*
X3516060Y5451896D02*
X3516060Y5469701D01*
X3507170Y5478591D01*
X3471585Y5478591D01*
X3462695Y5469701D01*
X3462695Y5451896D01*
X3471585Y5443006D01*
X3471585Y5422457D02*
X3462695Y5413567D01*
X3462695Y5395762D01*
X3471585Y5386872D01*
X3480475Y5386872D01*
X3489365Y5395762D01*
X3498280Y5386872D01*
X3507170Y5386872D01*
X3516060Y5395762D01*
X3516060Y5413567D01*
X3507170Y5422457D01*
X3489365Y5404652D02*
X3489365Y5395762D01*
X3471585Y5366323D02*
X3462695Y5357433D01*
X3462695Y5339628D01*
X3471585Y5330738D01*
X3480475Y5330738D01*
X3489365Y5339628D01*
X3498280Y5330738D01*
X3507170Y5330738D01*
X3516060Y5339628D01*
X3516060Y5357433D01*
X3507170Y5366323D01*
X3489365Y5348518D02*
X3489365Y5339628D01*
X2855660Y5330738D02*
X2855660Y5366323D01*
X2820075Y5330738D01*
X2811185Y5330738D01*
X2802295Y5339628D01*
X2802295Y5357433D01*
X2811185Y5366323D01*
X2811185Y5386872D02*
X2820075Y5386872D01*
X2828965Y5395762D01*
X2837880Y5386872D01*
X2846770Y5386872D01*
X2855660Y5395762D01*
X2855660Y5413567D01*
X2846770Y5422457D01*
X2846770Y5443006D02*
X2855660Y5451896D01*
X2855660Y5469701D01*
X2846770Y5478591D01*
X2811185Y5478591D01*
X2802295Y5469701D01*
X2802295Y5451896D01*
X2811185Y5443006D01*
X2811185Y5422457D02*
X2802295Y5413567D01*
X2802295Y5395762D01*
X2811185Y5386872D01*
X2828965Y5395762D02*
X2828965Y5404652D01*
X2220660Y5395762D02*
X2211770Y5386872D01*
X2202880Y5386872D01*
X2193965Y5395762D01*
X2193965Y5404652D01*
X2193965Y5395762D02*
X2185075Y5386872D01*
X2176185Y5386872D01*
X2167295Y5395762D01*
X2167295Y5413567D01*
X2176185Y5422457D01*
X2176185Y5443006D02*
X2167295Y5451896D01*
X2167295Y5469701D01*
X2176185Y5478591D01*
X2211770Y5478591D01*
X2220660Y5469701D01*
X2220660Y5451896D01*
X2211770Y5443006D01*
X2211770Y5422457D02*
X2220660Y5413567D01*
X2220660Y5395762D01*
X2220660Y5366323D02*
X2220660Y5330738D01*
X2220660Y5348518D02*
X2167295Y5348518D01*
X2185075Y5366323D01*
X2144460Y5357433D02*
X2144460Y5339628D01*
X2135570Y5330738D01*
X2099985Y5330738D01*
X2091095Y5339628D01*
X2091095Y5357433D01*
X2099985Y5366323D01*
X2108875Y5366323D01*
X2117765Y5357433D01*
X2117765Y5330738D01*
X2144460Y5357433D02*
X2135570Y5366323D01*
X2099985Y5386872D02*
X2135570Y5422457D01*
X2144460Y5422457D01*
X2135570Y5443006D02*
X2144460Y5451896D01*
X2144460Y5469701D01*
X2135570Y5478591D01*
X2099985Y5478591D01*
X2091095Y5469701D01*
X2091095Y5451896D01*
X2099985Y5443006D01*
X2091095Y5422457D02*
X2091095Y5386872D01*
X2099985Y5386872D01*
X2042860Y5395762D02*
X2042860Y5413567D01*
X2033970Y5422457D01*
X2016165Y5422457D02*
X2007275Y5404652D01*
X2007275Y5395762D01*
X2016165Y5386872D01*
X2033970Y5386872D01*
X2042860Y5395762D01*
X2033970Y5366323D02*
X2025080Y5366323D01*
X2016165Y5357433D01*
X2016165Y5339628D01*
X2025080Y5330738D01*
X2033970Y5330738D01*
X2042860Y5339628D01*
X2042860Y5357433D01*
X2033970Y5366323D01*
X2016165Y5357433D02*
X2007275Y5366323D01*
X1998385Y5366323D01*
X1989495Y5357433D01*
X1989495Y5339628D01*
X1998385Y5330738D01*
X2007275Y5330738D01*
X2016165Y5339628D01*
X1966660Y5339628D02*
X1966660Y5357433D01*
X1957770Y5366323D01*
X1948880Y5366323D01*
X1939965Y5357433D01*
X1939965Y5339628D01*
X1948880Y5330738D01*
X1957770Y5330738D01*
X1966660Y5339628D01*
X1939965Y5339628D02*
X1931075Y5330738D01*
X1922185Y5330738D01*
X1913295Y5339628D01*
X1913295Y5357433D01*
X1922185Y5366323D01*
X1931075Y5366323D01*
X1939965Y5357433D01*
X1931075Y5386872D02*
X1922185Y5386872D01*
X1913295Y5395762D01*
X1913295Y5413567D01*
X1922185Y5422457D01*
X1922185Y5443006D02*
X1913295Y5451896D01*
X1913295Y5469701D01*
X1922185Y5478591D01*
X1957770Y5478591D01*
X1966660Y5469701D01*
X1966660Y5451896D01*
X1957770Y5443006D01*
X1966660Y5422457D02*
X1931075Y5386872D01*
X1966660Y5386872D02*
X1966660Y5422457D01*
X1989495Y5422457D02*
X1989495Y5386872D01*
X1989495Y5422457D02*
X2016165Y5422457D01*
X1998385Y5443006D02*
X1989495Y5451896D01*
X1989495Y5469701D01*
X1998385Y5478591D01*
X2033970Y5478591D01*
X2042860Y5469701D01*
X2042860Y5451896D01*
X2033970Y5443006D01*
X1890460Y5451896D02*
X1890460Y5469701D01*
X1881570Y5478591D01*
X1845985Y5478591D01*
X1837095Y5469701D01*
X1837095Y5451896D01*
X1845985Y5443006D01*
X1863765Y5422457D02*
X1863765Y5395762D01*
X1872680Y5386872D01*
X1881570Y5386872D01*
X1890460Y5395762D01*
X1890460Y5413567D01*
X1881570Y5422457D01*
X1863765Y5422457D01*
X1845985Y5404652D01*
X1837095Y5386872D01*
X1845985Y5366323D02*
X1837095Y5357433D01*
X1837095Y5339628D01*
X1845985Y5330738D01*
X1881570Y5366323D01*
X1890460Y5357433D01*
X1890460Y5339628D01*
X1881570Y5330738D01*
X1845985Y5330738D01*
X1845985Y5366323D02*
X1881570Y5366323D01*
X1881570Y5443006D02*
X1890460Y5451896D01*
X1725360Y5451896D02*
X1716470Y5443006D01*
X1725360Y5451896D02*
X1725360Y5469701D01*
X1716470Y5478591D01*
X1680885Y5478591D01*
X1671995Y5469701D01*
X1671995Y5451896D01*
X1680885Y5443006D01*
X1698665Y5422457D02*
X1698665Y5386872D01*
X1698665Y5366323D02*
X1689775Y5348518D01*
X1689775Y5339628D01*
X1698665Y5330738D01*
X1716470Y5330738D01*
X1725360Y5339628D01*
X1725360Y5357433D01*
X1716470Y5366323D01*
X1698665Y5366323D02*
X1671995Y5366323D01*
X1671995Y5330738D01*
X1649160Y5339628D02*
X1649160Y5357433D01*
X1640270Y5366323D01*
X1622465Y5348518D02*
X1622465Y5339628D01*
X1631380Y5330738D01*
X1640270Y5330738D01*
X1649160Y5339628D01*
X1622465Y5339628D02*
X1613575Y5330738D01*
X1604685Y5330738D01*
X1595795Y5339628D01*
X1595795Y5357433D01*
X1604685Y5366323D01*
X1604685Y5386872D02*
X1640270Y5422457D01*
X1649160Y5422457D01*
X1640270Y5443006D02*
X1649160Y5451896D01*
X1649160Y5469701D01*
X1640270Y5478591D01*
X1604685Y5478591D01*
X1595795Y5469701D01*
X1595795Y5451896D01*
X1604685Y5443006D01*
X1595795Y5422457D02*
X1595795Y5386872D01*
X1604685Y5386872D01*
X1671995Y5395762D02*
X1698665Y5422457D01*
X1671995Y5395762D02*
X1725360Y5395762D01*
X1576770Y5314634D02*
X1576770Y5296829D01*
X1567880Y5287939D01*
X1567880Y5267390D02*
X1558965Y5267390D01*
X1550075Y5258500D01*
X1550075Y5240695D01*
X1558965Y5231805D01*
X1567880Y5231805D01*
X1576770Y5240695D01*
X1576770Y5258500D01*
X1567880Y5267390D01*
X1550075Y5258500D02*
X1541185Y5267390D01*
X1532295Y5267390D01*
X1523379Y5258500D01*
X1523379Y5240695D01*
X1532295Y5231805D01*
X1541185Y5231805D01*
X1550075Y5240695D01*
X1558965Y5213009D02*
X1558965Y5186339D01*
X1550075Y5177423D01*
X1532295Y5177423D01*
X1523379Y5186339D01*
X1523379Y5213009D01*
X1576770Y5213009D01*
X1558965Y5195229D02*
X1576770Y5177423D01*
X1576770Y5156900D02*
X1576770Y5121289D01*
X1576770Y5103814D02*
X1523379Y5103814D01*
X1523379Y5077119D01*
X1532295Y5068229D01*
X1550075Y5068229D01*
X1558965Y5077119D01*
X1558965Y5103814D01*
X1558965Y5086034D02*
X1576770Y5068229D01*
X1576770Y5047680D02*
X1541185Y5012095D01*
X1532295Y5012095D01*
X1523379Y5020985D01*
X1523379Y5038790D01*
X1532295Y5047680D01*
X1576770Y5047680D02*
X1576770Y5012095D01*
X1576770Y5139095D02*
X1523379Y5139095D01*
X1541185Y5156900D01*
X1532295Y5287939D02*
X1523379Y5296829D01*
X1523379Y5314634D01*
X1532295Y5323524D01*
X1567880Y5323524D01*
X1576770Y5314634D01*
X1424370Y5318038D02*
X1424370Y5353623D01*
X1388785Y5318038D01*
X1379895Y5318038D01*
X1370979Y5326928D01*
X1370979Y5344733D01*
X1379895Y5353623D01*
X1379895Y5374172D02*
X1397675Y5374172D01*
X1406565Y5383062D01*
X1406565Y5409757D01*
X1424370Y5409757D02*
X1370979Y5409757D01*
X1370979Y5383062D01*
X1379895Y5374172D01*
X1370979Y5430306D02*
X1370979Y5465891D01*
X1370979Y5448086D02*
X1424370Y5448086D01*
X1402780Y5521238D02*
X1367195Y5521238D01*
X1358279Y5530128D01*
X1358279Y5547933D01*
X1367195Y5556823D01*
X1376085Y5556823D01*
X1384975Y5547933D01*
X1384975Y5521238D01*
X1402780Y5521238D02*
X1411670Y5530128D01*
X1411670Y5547933D01*
X1402780Y5556823D01*
X1411670Y5577372D02*
X1411670Y5612957D01*
X1411670Y5595152D02*
X1358279Y5595152D01*
X1376085Y5612957D01*
X1384975Y5633506D02*
X1393865Y5642396D01*
X1393865Y5669091D01*
X1393865Y5651286D02*
X1411670Y5633506D01*
X1384975Y5633506D02*
X1367195Y5633506D01*
X1358279Y5642396D01*
X1358279Y5669091D01*
X1411670Y5669091D01*
X1344970Y5782070D02*
X1344970Y5835461D01*
X1327190Y5835461D02*
X1362775Y5835461D01*
X1327190Y5799876D02*
X1344970Y5782070D01*
X1306641Y5790960D02*
X1306641Y5808766D01*
X1297751Y5817656D01*
X1271056Y5817656D01*
X1271056Y5835461D02*
X1271056Y5782070D01*
X1297751Y5782070D01*
X1306641Y5790960D01*
X1250507Y5782070D02*
X1214922Y5782070D01*
X1232727Y5782070D02*
X1232727Y5835461D01*
X1170395Y5793170D02*
X1134810Y5793170D01*
X1152615Y5793170D02*
X1152615Y5739779D01*
X1134810Y5757585D01*
X1114261Y5739779D02*
X1114261Y5784280D01*
X1105371Y5793170D01*
X1087566Y5793170D01*
X1078676Y5784280D01*
X1078676Y5739779D01*
X1252666Y5323270D02*
X1270471Y5323270D01*
X1279361Y5314380D01*
X1299910Y5323270D02*
X1335495Y5287685D01*
X1335495Y5278795D01*
X1326605Y5269879D01*
X1308800Y5269879D01*
X1299910Y5278795D01*
X1279361Y5278795D02*
X1270471Y5269879D01*
X1252666Y5269879D01*
X1243776Y5278795D01*
X1243776Y5314380D01*
X1252666Y5323270D01*
X1299910Y5323270D02*
X1335495Y5323270D01*
X1007810Y5177601D02*
X1007810Y5159796D01*
X998920Y5150906D01*
X954419Y5150906D01*
X954419Y5130357D02*
X1007810Y5094772D01*
X954419Y5094772D01*
X954419Y5074223D02*
X1007810Y5074223D01*
X990005Y5056418D01*
X1007810Y5038638D01*
X954419Y5038638D01*
X954419Y5130357D02*
X1007810Y5130357D01*
X1007810Y5177601D02*
X998920Y5186491D01*
X954419Y5186491D01*
X1252691Y5031170D02*
X1252691Y4977779D01*
X1279361Y4977779D01*
X1288277Y4986695D01*
X1288277Y5004475D01*
X1279361Y5013365D01*
X1252691Y5013365D01*
X1270471Y5013365D02*
X1288277Y5031170D01*
X1308800Y5022280D02*
X1317715Y5031170D01*
X1335495Y5031170D01*
X1344411Y5022280D01*
X1344411Y5013365D01*
X1335495Y5004475D01*
X1326605Y5004475D01*
X1335495Y5004475D02*
X1344411Y4995585D01*
X1344411Y4986695D01*
X1335495Y4977779D01*
X1317715Y4977779D01*
X1308800Y4986695D01*
X1308800Y4878770D02*
X1299910Y4869880D01*
X1308800Y4878770D02*
X1326605Y4878770D01*
X1335495Y4869880D01*
X1335495Y4860965D01*
X1326605Y4852075D01*
X1317715Y4852075D01*
X1326605Y4852075D02*
X1335495Y4843185D01*
X1335495Y4834295D01*
X1326605Y4825379D01*
X1308800Y4825379D01*
X1299910Y4834295D01*
X1279361Y4834295D02*
X1270471Y4825379D01*
X1252666Y4825379D01*
X1243776Y4834295D01*
X1243776Y4869880D01*
X1252666Y4878770D01*
X1270471Y4878770D01*
X1279361Y4869880D01*
X1523379Y4870134D02*
X1532295Y4879024D01*
X1567880Y4879024D01*
X1576770Y4870134D01*
X1576770Y4852329D01*
X1567880Y4843439D01*
X1567880Y4822890D02*
X1576770Y4814000D01*
X1576770Y4796195D01*
X1567880Y4787305D01*
X1532295Y4787305D01*
X1523379Y4796195D01*
X1523379Y4814000D01*
X1532295Y4822890D01*
X1541185Y4822890D01*
X1550075Y4814000D01*
X1550075Y4787305D01*
X1558965Y4760914D02*
X1558965Y4734219D01*
X1550075Y4725329D01*
X1532295Y4725329D01*
X1523379Y4734219D01*
X1523379Y4760914D01*
X1576770Y4760914D01*
X1558965Y4743134D02*
X1576770Y4725329D01*
X1550075Y4704780D02*
X1550075Y4669195D01*
X1558965Y4646614D02*
X1558965Y4619919D01*
X1550075Y4611029D01*
X1532295Y4611029D01*
X1523379Y4619919D01*
X1523379Y4646614D01*
X1576770Y4646614D01*
X1558965Y4628834D02*
X1576770Y4611029D01*
X1567880Y4590480D02*
X1576770Y4581590D01*
X1576770Y4563785D01*
X1567880Y4554895D01*
X1550075Y4554895D01*
X1541185Y4563785D01*
X1541185Y4572700D01*
X1550075Y4590480D01*
X1523379Y4590480D01*
X1523379Y4554895D01*
X1532295Y4487991D02*
X1567880Y4487991D01*
X1576770Y4479101D01*
X1576770Y4461296D01*
X1567880Y4452406D01*
X1576770Y4431857D02*
X1576770Y4396272D01*
X1576770Y4414052D02*
X1523379Y4414052D01*
X1541185Y4431857D01*
X1532295Y4452406D02*
X1523379Y4461296D01*
X1523379Y4479101D01*
X1532295Y4487991D01*
X1604685Y4386391D02*
X1640270Y4386391D01*
X1649160Y4377501D01*
X1649160Y4359696D01*
X1640270Y4350806D01*
X1640270Y4330257D02*
X1649160Y4321367D01*
X1649160Y4303562D01*
X1640270Y4294672D01*
X1631380Y4294672D01*
X1622465Y4303562D01*
X1622465Y4330257D01*
X1640270Y4330257D01*
X1622465Y4330257D02*
X1604685Y4312452D01*
X1595795Y4294672D01*
X1576770Y4280829D02*
X1558965Y4298634D01*
X1558965Y4289719D02*
X1558965Y4316414D01*
X1576770Y4316414D02*
X1523379Y4316414D01*
X1523379Y4289719D01*
X1532295Y4280829D01*
X1550075Y4280829D01*
X1558965Y4289719D01*
X1567880Y4260280D02*
X1532295Y4224695D01*
X1523379Y4224695D01*
X1523379Y4260280D01*
X1567880Y4260280D02*
X1576770Y4260280D01*
X1595795Y4256318D02*
X1649160Y4256318D01*
X1649160Y4238538D02*
X1649160Y4274123D01*
X1671995Y4247428D02*
X1698665Y4274123D01*
X1698665Y4238538D01*
X1671995Y4247428D02*
X1725360Y4247428D01*
X1748195Y4247428D02*
X1748195Y4265233D01*
X1757085Y4274123D01*
X1757085Y4294672D02*
X1748195Y4303562D01*
X1748195Y4321367D01*
X1757085Y4330257D01*
X1757085Y4350806D02*
X1748195Y4359696D01*
X1748195Y4377501D01*
X1757085Y4386391D01*
X1792670Y4386391D01*
X1801560Y4377501D01*
X1801560Y4359696D01*
X1792670Y4350806D01*
X1801560Y4330257D02*
X1765975Y4294672D01*
X1757085Y4294672D01*
X1725360Y4303562D02*
X1671995Y4303562D01*
X1698665Y4330257D01*
X1698665Y4294672D01*
X1680885Y4350806D02*
X1671995Y4359696D01*
X1671995Y4377501D01*
X1680885Y4386391D01*
X1716470Y4386391D01*
X1725360Y4377501D01*
X1725360Y4359696D01*
X1716470Y4350806D01*
X1801560Y4330257D02*
X1801560Y4294672D01*
X1801560Y4274123D02*
X1765975Y4238538D01*
X1757085Y4238538D01*
X1748195Y4247428D01*
X1801560Y4238538D02*
X1801560Y4274123D01*
X1824395Y4274123D02*
X1824395Y4238538D01*
X1833285Y4238538D01*
X1868870Y4274123D01*
X1877760Y4274123D01*
X1868870Y4294672D02*
X1877760Y4303562D01*
X1877760Y4321367D01*
X1868870Y4330257D01*
X1851065Y4330257D02*
X1842175Y4312452D01*
X1842175Y4303562D01*
X1851065Y4294672D01*
X1868870Y4294672D01*
X1900595Y4303562D02*
X1900595Y4321367D01*
X1909485Y4330257D01*
X1909485Y4350806D02*
X1900595Y4359696D01*
X1900595Y4377501D01*
X1909485Y4386391D01*
X1945070Y4386391D01*
X1953960Y4377501D01*
X1953960Y4359696D01*
X1945070Y4350806D01*
X1953960Y4330257D02*
X1918375Y4294672D01*
X1909485Y4294672D01*
X1900595Y4303562D01*
X1900595Y4274123D02*
X1900595Y4238538D01*
X1909485Y4238538D01*
X1945070Y4274123D01*
X1953960Y4274123D01*
X1953960Y4294672D02*
X1953960Y4330257D01*
X1976795Y4321367D02*
X1976795Y4303562D01*
X1985685Y4294672D01*
X2021270Y4294672D01*
X2030160Y4303562D01*
X2030160Y4321367D01*
X2021270Y4330257D01*
X2003465Y4321367D02*
X2003465Y4294672D01*
X2003465Y4321367D02*
X1994575Y4330257D01*
X1985685Y4330257D01*
X1976795Y4321367D01*
X1985685Y4350806D02*
X1976795Y4359696D01*
X1976795Y4377501D01*
X1985685Y4386391D01*
X2021270Y4386391D01*
X2030160Y4377501D01*
X2030160Y4359696D01*
X2021270Y4350806D01*
X2052995Y4359696D02*
X2052995Y4377501D01*
X2061885Y4386391D01*
X2097470Y4386391D01*
X2106360Y4377501D01*
X2106360Y4359696D01*
X2097470Y4350806D01*
X2097470Y4330257D02*
X2088580Y4330257D01*
X2079665Y4321367D01*
X2079665Y4303562D01*
X2088580Y4294672D01*
X2097470Y4294672D01*
X2106360Y4303562D01*
X2106360Y4321367D01*
X2097470Y4330257D01*
X2079665Y4321367D02*
X2070775Y4330257D01*
X2061885Y4330257D01*
X2052995Y4321367D01*
X2052995Y4303562D01*
X2061885Y4294672D01*
X2070775Y4294672D01*
X2079665Y4303562D01*
X2079665Y4274123D02*
X2079665Y4238538D01*
X2052995Y4247428D02*
X2079665Y4274123D01*
X2052995Y4247428D02*
X2106360Y4247428D01*
X2129195Y4247428D02*
X2138085Y4238538D01*
X2173670Y4274123D01*
X2182560Y4265233D01*
X2182560Y4247428D01*
X2173670Y4238538D01*
X2138085Y4238538D01*
X2129195Y4247428D02*
X2129195Y4265233D01*
X2138085Y4274123D01*
X2173670Y4274123D01*
X2173670Y4294672D02*
X2182560Y4303562D01*
X2182560Y4321367D01*
X2173670Y4330257D01*
X2155865Y4330257D02*
X2146975Y4312452D01*
X2146975Y4303562D01*
X2155865Y4294672D01*
X2173670Y4294672D01*
X2155865Y4330257D02*
X2129195Y4330257D01*
X2129195Y4294672D01*
X2138085Y4350806D02*
X2129195Y4359696D01*
X2129195Y4377501D01*
X2138085Y4386391D01*
X2173670Y4386391D01*
X2182560Y4377501D01*
X2182560Y4359696D01*
X2173670Y4350806D01*
X2268895Y4365538D02*
X2268895Y4401123D01*
X2295565Y4401123D01*
X2286675Y4383318D01*
X2286675Y4374428D01*
X2295565Y4365538D01*
X2313370Y4365538D01*
X2322260Y4374428D01*
X2322260Y4392233D01*
X2313370Y4401123D01*
X2322260Y4421672D02*
X2322260Y4457257D01*
X2286675Y4421672D01*
X2277785Y4421672D01*
X2268895Y4430562D01*
X2268895Y4448367D01*
X2277785Y4457257D01*
X2277785Y4477806D02*
X2295565Y4477806D01*
X2304480Y4486696D01*
X2304480Y4513391D01*
X2322260Y4513391D02*
X2268895Y4513391D01*
X2268895Y4486696D01*
X2277785Y4477806D01*
X2304480Y4495586D02*
X2322260Y4477806D01*
X2061885Y4350806D02*
X2052995Y4359696D01*
X2030160Y4274123D02*
X1994575Y4238538D01*
X1985685Y4238538D01*
X1976795Y4247428D01*
X1976795Y4265233D01*
X1985685Y4274123D01*
X2030160Y4274123D02*
X2030160Y4238538D01*
X1877760Y4359696D02*
X1868870Y4350806D01*
X1877760Y4359696D02*
X1877760Y4377501D01*
X1868870Y4386391D01*
X1833285Y4386391D01*
X1824395Y4377501D01*
X1824395Y4359696D01*
X1833285Y4350806D01*
X1824395Y4330257D02*
X1851065Y4330257D01*
X1824395Y4330257D02*
X1824395Y4294672D01*
X1613575Y4274123D02*
X1595795Y4256318D01*
X1576770Y4202114D02*
X1523379Y4202114D01*
X1523379Y4175419D01*
X1532295Y4166529D01*
X1550075Y4166529D01*
X1558965Y4175419D01*
X1558965Y4202114D01*
X1558965Y4184334D02*
X1576770Y4166529D01*
X1567880Y4145980D02*
X1558965Y4145980D01*
X1550075Y4137090D01*
X1550075Y4119285D01*
X1558965Y4110395D01*
X1567880Y4110395D01*
X1576770Y4119285D01*
X1576770Y4137090D01*
X1567880Y4145980D01*
X1550075Y4137090D02*
X1541185Y4145980D01*
X1532295Y4145980D01*
X1523379Y4137090D01*
X1523379Y4119285D01*
X1532295Y4110395D01*
X1541185Y4110395D01*
X1550075Y4119285D01*
X1344411Y4115475D02*
X1317715Y4115475D01*
X1308800Y4106585D01*
X1308800Y4097695D01*
X1317715Y4088779D01*
X1335495Y4088779D01*
X1344411Y4097695D01*
X1344411Y4133280D01*
X1335495Y4142170D01*
X1317715Y4142170D01*
X1308800Y4133280D01*
X1288277Y4142170D02*
X1270471Y4124365D01*
X1279361Y4124365D02*
X1252691Y4124365D01*
X1252691Y4142170D02*
X1252691Y4088779D01*
X1279361Y4088779D01*
X1288277Y4097695D01*
X1288277Y4115475D01*
X1279361Y4124365D01*
X1270471Y4380879D02*
X1252666Y4380879D01*
X1243776Y4389795D01*
X1243776Y4425380D01*
X1252666Y4434270D01*
X1270471Y4434270D01*
X1279361Y4425380D01*
X1299910Y4407575D02*
X1335495Y4407575D01*
X1326605Y4380879D02*
X1299910Y4407575D01*
X1279361Y4389795D02*
X1270471Y4380879D01*
X1326605Y4380879D02*
X1326605Y4434270D01*
X1344411Y4533279D02*
X1326605Y4542195D01*
X1308800Y4559975D01*
X1335495Y4559975D01*
X1344411Y4568865D01*
X1344411Y4577780D01*
X1335495Y4586670D01*
X1317715Y4586670D01*
X1308800Y4577780D01*
X1308800Y4559975D01*
X1288277Y4559975D02*
X1279361Y4568865D01*
X1252691Y4568865D01*
X1270471Y4568865D02*
X1288277Y4586670D01*
X1288277Y4559975D02*
X1288277Y4542195D01*
X1279361Y4533279D01*
X1252691Y4533279D01*
X1252691Y4586670D01*
X1010350Y4596678D02*
X956959Y4596678D01*
X956959Y4632263D02*
X1010350Y4596678D01*
X1010350Y4632263D02*
X956959Y4632263D01*
X956959Y4652812D02*
X1010350Y4652812D01*
X956959Y4688397D01*
X1010350Y4688397D01*
X1001460Y4708946D02*
X956959Y4708946D01*
X956959Y4744531D02*
X1001460Y4744531D01*
X1010350Y4735641D01*
X1010350Y4717836D01*
X1001460Y4708946D01*
X1523379Y4678085D02*
X1550075Y4704780D01*
X1576770Y4678085D02*
X1523379Y4678085D01*
X1532295Y4843439D02*
X1523379Y4852329D01*
X1523379Y4870134D01*
X1604685Y4386391D02*
X1595795Y4377501D01*
X1595795Y4359696D01*
X1604685Y4350806D01*
X1576770Y4349028D02*
X1576770Y4366833D01*
X1567880Y4375723D01*
X1532295Y4340138D01*
X1567880Y4340138D01*
X1576770Y4349028D01*
X1567880Y4375723D02*
X1532295Y4375723D01*
X1523379Y4366833D01*
X1523379Y4349028D01*
X1532295Y4340138D01*
X1007810Y4288601D02*
X1007810Y4270796D01*
X998920Y4261906D01*
X954419Y4261906D01*
X954419Y4241357D02*
X1007810Y4205772D01*
X954419Y4205772D01*
X954419Y4185223D02*
X1007810Y4185223D01*
X1007810Y4149638D01*
X981115Y4167418D02*
X981115Y4185223D01*
X954419Y4185223D02*
X954419Y4149638D01*
X954419Y4241357D02*
X1007810Y4241357D01*
X1007810Y4288601D02*
X998920Y4297491D01*
X954419Y4297491D01*
X2159700Y3798000D02*
X2223200Y3861500D01*
X4783495Y4256318D02*
X4836860Y4256318D01*
X4836860Y4238538D02*
X4836860Y4274123D01*
X4827970Y4294672D02*
X4836860Y4303562D01*
X4836860Y4321367D01*
X4827970Y4330257D01*
X4810165Y4330257D02*
X4801275Y4312452D01*
X4801275Y4303562D01*
X4810165Y4294672D01*
X4827970Y4294672D01*
X4859695Y4294672D02*
X4859695Y4330257D01*
X4886365Y4330257D01*
X4877475Y4312452D01*
X4877475Y4303562D01*
X4886365Y4294672D01*
X4904170Y4294672D01*
X4913060Y4303562D01*
X4913060Y4321367D01*
X4904170Y4330257D01*
X4904170Y4350806D02*
X4913060Y4359696D01*
X4913060Y4377501D01*
X4904170Y4386391D01*
X4868585Y4386391D01*
X4859695Y4377501D01*
X4859695Y4359696D01*
X4868585Y4350806D01*
X4836860Y4359696D02*
X4827970Y4350806D01*
X4836860Y4359696D02*
X4836860Y4377501D01*
X4827970Y4386391D01*
X4792385Y4386391D01*
X4783495Y4377501D01*
X4783495Y4359696D01*
X4792385Y4350806D01*
X4783495Y4330257D02*
X4810165Y4330257D01*
X4783495Y4330257D02*
X4783495Y4294672D01*
X4801275Y4274123D02*
X4783495Y4256318D01*
X4859695Y4247428D02*
X4859695Y4265233D01*
X4868585Y4274123D01*
X4859695Y4247428D02*
X4868585Y4238538D01*
X4877475Y4238538D01*
X4913060Y4274123D01*
X4913060Y4238538D01*
X4935895Y4238538D02*
X4944785Y4256318D01*
X4962565Y4274123D01*
X4962565Y4247428D01*
X4971480Y4238538D01*
X4980370Y4238538D01*
X4989260Y4247428D01*
X4989260Y4265233D01*
X4980370Y4274123D01*
X4962565Y4274123D01*
X4944785Y4294672D02*
X4980370Y4330257D01*
X4989260Y4330257D01*
X4980370Y4350806D02*
X4989260Y4359696D01*
X4989260Y4377501D01*
X4980370Y4386391D01*
X4944785Y4386391D01*
X4935895Y4377501D01*
X4935895Y4359696D01*
X4944785Y4350806D01*
X4935895Y4330257D02*
X4935895Y4294672D01*
X4944785Y4294672D01*
X5164495Y4312452D02*
X5217860Y4312452D01*
X5217860Y4294672D02*
X5217860Y4330257D01*
X5208970Y4350806D02*
X5217860Y4359696D01*
X5217860Y4377501D01*
X5208970Y4386391D01*
X5173385Y4386391D01*
X5164495Y4377501D01*
X5164495Y4359696D01*
X5173385Y4350806D01*
X5182275Y4330257D02*
X5164495Y4312452D01*
X5164495Y4274123D02*
X5164495Y4238538D01*
X5173385Y4238538D01*
X5208970Y4274123D01*
X5217860Y4274123D01*
X5253979Y4276841D02*
X5262894Y4285731D01*
X5298480Y4285731D01*
X5307370Y4276841D01*
X5307370Y4259035D01*
X5298480Y4250145D01*
X5298480Y4229597D02*
X5289564Y4229597D01*
X5280674Y4220707D01*
X5280674Y4202901D01*
X5289564Y4194011D01*
X5298480Y4194011D01*
X5307370Y4202901D01*
X5307370Y4220707D01*
X5298480Y4229597D01*
X5280674Y4220707D02*
X5271784Y4229597D01*
X5262894Y4229597D01*
X5253979Y4220707D01*
X5253979Y4202901D01*
X5262894Y4194011D01*
X5271784Y4194011D01*
X5280674Y4202901D01*
X5280674Y4173463D02*
X5271784Y4155683D01*
X5271784Y4146793D01*
X5280674Y4137877D01*
X5298480Y4137877D01*
X5307370Y4146793D01*
X5307370Y4164573D01*
X5298480Y4173463D01*
X5280674Y4173463D02*
X5253979Y4173463D01*
X5253979Y4137877D01*
X5262894Y4250145D02*
X5253979Y4259035D01*
X5253979Y4276841D01*
X5937696Y4342779D02*
X5937696Y4387280D01*
X5946586Y4396170D01*
X5964391Y4396170D01*
X5973281Y4387280D01*
X5973281Y4342779D01*
X5993830Y4342779D02*
X5993830Y4369475D01*
X6011635Y4360585D01*
X6020525Y4360585D01*
X6029415Y4369475D01*
X6029415Y4387280D01*
X6020525Y4396170D01*
X6002720Y4396170D01*
X5993830Y4387280D01*
X5993830Y4342779D02*
X6029415Y4342779D01*
X6129695Y4221291D02*
X6165280Y4221291D01*
X6174170Y4212401D01*
X6174170Y4194596D01*
X6165280Y4185706D01*
X6165280Y4165157D02*
X6156365Y4165157D01*
X6147475Y4156267D01*
X6147475Y4138462D01*
X6156365Y4129572D01*
X6165280Y4129572D01*
X6174170Y4138462D01*
X6174170Y4156267D01*
X6165280Y4165157D01*
X6147475Y4156267D02*
X6138585Y4165157D01*
X6129695Y4165157D01*
X6120779Y4156267D01*
X6120779Y4138462D01*
X6129695Y4129572D01*
X6138585Y4129572D01*
X6147475Y4138462D01*
X6138585Y4109023D02*
X6129695Y4109023D01*
X6120779Y4100133D01*
X6120779Y4082328D01*
X6129695Y4073438D01*
X6138585Y4073438D01*
X6147475Y4082328D01*
X6147475Y4100133D01*
X6138585Y4109023D01*
X6147475Y4100133D02*
X6156365Y4109023D01*
X6165280Y4109023D01*
X6174170Y4100133D01*
X6174170Y4082328D01*
X6165280Y4073438D01*
X6156365Y4073438D01*
X6147475Y4082328D01*
X6129695Y4185706D02*
X6120779Y4194596D01*
X6120779Y4212401D01*
X6129695Y4221291D01*
X6101780Y4797338D02*
X6110670Y4806228D01*
X6110670Y4824033D01*
X6101780Y4832923D01*
X6092865Y4832923D01*
X6083975Y4824033D01*
X6083975Y4806228D01*
X6092865Y4797338D01*
X6101780Y4797338D01*
X6083975Y4806228D02*
X6075085Y4797338D01*
X6066195Y4797338D01*
X6057279Y4806228D01*
X6057279Y4824033D01*
X6066195Y4832923D01*
X6075085Y4832923D01*
X6083975Y4824033D01*
X6092865Y4853472D02*
X6083975Y4862362D01*
X6083975Y4889057D01*
X6101780Y4889057D01*
X6110670Y4880167D01*
X6110670Y4862362D01*
X6101780Y4853472D01*
X6092865Y4853472D01*
X6066195Y4871252D02*
X6083975Y4889057D01*
X6066195Y4871252D02*
X6057279Y4853472D01*
X6066195Y4909606D02*
X6057279Y4918496D01*
X6057279Y4936301D01*
X6066195Y4945191D01*
X6101780Y4945191D01*
X6110670Y4936301D01*
X6110670Y4918496D01*
X6101780Y4909606D01*
D20*
X2223200Y3925000D02*
X2159700Y3861500D01*
D21*
X2159700Y3925000D02*
X2223200Y3988500D01*
D22*
X1258000Y5449000D03*
X5893500Y5106100D03*
X6134800Y4725100D03*
X5893500Y4344100D03*
X6242750Y5550600D03*
X5957000Y1766000D03*
D23*
X6223700Y1971105D03*
X6223700Y2415605D03*
X6223700Y2860105D03*
X991300Y4354895D03*
X991300Y4799395D03*
X991300Y5243895D03*
D24*
X1402755Y1662012D03*
G75*
%LPD*%
D25*
X9890000Y4763200D02*
X9953500Y4699700D01*
D26*
X9890000Y4699700D02*
X9826500Y4763200D01*
D27*
X9763000Y4763200D02*
X9826500Y4699700D01*
D28*
X9763000Y4699700D02*
X9699500Y4763200D01*
D29*
X9636000Y4763200D02*
X9699500Y4699700D01*
D30*
X9636000Y4699700D02*
X9572500Y4763200D01*
D31*
X9509000Y4763200D02*
X9572500Y4699700D01*
D32*
X7055004Y1802500D02*
X7104992Y1752513D01*
X7179998Y1752513D01*
X7179998Y1907503D01*
X7520002Y1907503D01*
X7520002Y1752513D01*
X7644996Y1752513D01*
X7644996Y2057490D01*
X7569989Y2057490D01*
X7130011Y2057490D02*
X7055004Y2057490D01*
X7055004Y1802500D01*
X7447307Y1415048D02*
X7506616Y1415048D01*
X7521450Y1400215D01*
X7521450Y1370573D01*
X7506616Y1355739D01*
X7506616Y1321500D02*
X7521450Y1306666D01*
X7521450Y1277025D01*
X7506616Y1262191D01*
X7491783Y1262191D01*
X7476975Y1277025D01*
X7476975Y1321500D01*
X7506616Y1321500D01*
X7476975Y1321500D02*
X7447307Y1291833D01*
X7432474Y1262191D01*
X7447307Y1355739D02*
X7432474Y1370573D01*
X7432474Y1400215D01*
X7447307Y1415048D01*
X7781724Y1127165D02*
X7796557Y1141998D01*
X7855866Y1141998D01*
X7870700Y1127165D01*
X7870700Y1097523D01*
X7855866Y1082689D01*
X7870700Y1048450D02*
X7811391Y989141D01*
X7796557Y989141D01*
X7781724Y1003975D01*
X7781724Y1033616D01*
X7796557Y1048450D01*
X7796557Y1082689D02*
X7781724Y1097523D01*
X7781724Y1127165D01*
X7870700Y1048450D02*
X7870700Y989141D01*
X11274224Y989141D02*
X11289057Y989141D01*
X11348366Y1048450D01*
X11363200Y1048450D01*
X11348366Y1082689D02*
X11363200Y1097523D01*
X11363200Y1127165D01*
X11348366Y1141998D01*
X11289057Y1141998D01*
X11274224Y1127165D01*
X11274224Y1097523D01*
X11289057Y1082689D01*
X11274224Y1048450D02*
X11274224Y989141D01*
X11623474Y1277025D02*
X11623474Y1306666D01*
X11638307Y1321500D01*
X11653141Y1321500D01*
X11667975Y1306666D01*
X11667975Y1262191D01*
X11697616Y1262191D02*
X11638307Y1262191D01*
X11623474Y1277025D01*
X11697616Y1262191D02*
X11712450Y1277025D01*
X11712450Y1306666D01*
X11697616Y1321500D01*
X11697616Y1355739D02*
X11712450Y1370573D01*
X11712450Y1400215D01*
X11697616Y1415048D01*
X11638307Y1415048D01*
X11623474Y1400215D01*
X11623474Y1370573D01*
X11638307Y1355739D01*
X11624998Y1752513D02*
X11500004Y1752513D01*
X11500004Y2057490D01*
X11575011Y2057490D01*
X11624998Y1907503D02*
X11965002Y1907503D01*
X11965002Y1752513D01*
X12089996Y1752513D01*
X12089996Y2057490D01*
X12014989Y2057490D01*
X11624998Y1907503D02*
X11624998Y1752513D01*
X9509000Y4699700D02*
X9445500Y4763200D01*
X7644996Y5157510D02*
X7644996Y5462487D01*
X7520002Y5462487D01*
X7520002Y5307497D01*
X7179998Y5307497D01*
X7179998Y5462487D01*
X7055004Y5462487D01*
X7055004Y5157510D01*
X7130011Y5157510D01*
X7569989Y5157510D02*
X7644996Y5157510D01*
X7506616Y5802441D02*
X7521450Y5817275D01*
X7521450Y5846916D01*
X7506616Y5861750D01*
X7491783Y5861750D01*
X7476975Y5846916D01*
X7476975Y5817275D01*
X7491783Y5802441D01*
X7506616Y5802441D01*
X7476975Y5817275D02*
X7462141Y5802441D01*
X7447307Y5802441D01*
X7432474Y5817275D01*
X7432474Y5846916D01*
X7447307Y5861750D01*
X7462141Y5861750D01*
X7476975Y5846916D01*
X7506616Y5895989D02*
X7521450Y5910823D01*
X7521450Y5940465D01*
X7506616Y5955298D01*
X7447307Y5955298D01*
X7432474Y5940465D01*
X7432474Y5910823D01*
X7447307Y5895989D01*
X7781724Y6083975D02*
X7826225Y6128450D01*
X7826225Y6069141D01*
X7870700Y6083975D02*
X7781724Y6083975D01*
X7796557Y6162689D02*
X7781724Y6177523D01*
X7781724Y6207165D01*
X7796557Y6221998D01*
X7855866Y6221998D01*
X7870700Y6207165D01*
X7870700Y6177523D01*
X7855866Y6162689D01*
X11274224Y6177523D02*
X11274224Y6207165D01*
X11289057Y6221998D01*
X11348366Y6221998D01*
X11363200Y6207165D01*
X11363200Y6177523D01*
X11348366Y6162689D01*
X11348366Y6128450D02*
X11363200Y6113616D01*
X11363200Y6083975D01*
X11348366Y6069141D01*
X11333533Y6069141D01*
X11318725Y6083975D01*
X11318725Y6098783D01*
X11318725Y6083975D02*
X11303891Y6069141D01*
X11289057Y6069141D01*
X11274224Y6083975D01*
X11274224Y6113616D01*
X11289057Y6128450D01*
X11289057Y6162689D02*
X11274224Y6177523D01*
X11623474Y5940465D02*
X11623474Y5910823D01*
X11638307Y5895989D01*
X11623474Y5861750D02*
X11667975Y5861750D01*
X11653141Y5832083D01*
X11653141Y5817275D01*
X11667975Y5802441D01*
X11697616Y5802441D01*
X11712450Y5817275D01*
X11712450Y5846916D01*
X11697616Y5861750D01*
X11697616Y5895989D02*
X11712450Y5910823D01*
X11712450Y5940465D01*
X11697616Y5955298D01*
X11638307Y5955298D01*
X11623474Y5940465D01*
X11623474Y5861750D02*
X11623474Y5802441D01*
X11624998Y5462487D02*
X11500004Y5462487D01*
X11500004Y5157510D01*
X11575011Y5157510D01*
X11624998Y5307497D02*
X11624998Y5462487D01*
X11624998Y5307497D02*
X11965002Y5307497D01*
X11965002Y5462487D01*
X12040008Y5462487D01*
X12089996Y5412500D01*
X12089996Y5157510D01*
X12014989Y5157510D01*
D33*
X9445500Y4699700D02*
X9382000Y4763200D01*
D34*
X9318500Y4763200D02*
X9382000Y4699700D01*
D35*
X9318500Y4699700D02*
X9255000Y4763200D01*
D36*
X9191500Y4763200D02*
X9255000Y4699700D01*
G75*
%LPD*%
D37*
X3575750Y12430000D02*
X3639250Y12493500D01*
D38*
X3639250Y12430000D02*
X3575750Y12366500D01*
D39*
X3575750Y12303000D02*
X3639250Y12366500D01*
D40*
X3639250Y12303000D02*
X3575750Y12239500D01*
D41*
X3575750Y12176000D02*
X3639250Y12239500D01*
D42*
X3639250Y12176000D02*
X3575750Y12112500D01*
D43*
X3575750Y12049000D02*
X3639250Y12112500D01*
X3772498Y8951013D02*
X3807500Y8951013D01*
X3807500Y8916012D01*
X3807500Y8586015D02*
X3807500Y8551014D01*
X3772498Y8551014D01*
X3442502Y8551014D02*
X3407500Y8551014D01*
X3407500Y8586015D01*
X3407500Y8916012D02*
X3407500Y8951013D01*
X3442502Y8951013D01*
X3442502Y16671013D02*
X3407500Y16671013D01*
X3407500Y16706014D01*
X3407500Y17036011D02*
X3407500Y17071012D01*
X3442502Y17071012D01*
X3772498Y17071012D02*
X3807500Y17071012D01*
X3807500Y17036011D01*
X3807500Y16706014D02*
X3807500Y16671013D01*
X3772498Y16671013D01*
D44*
X6286235Y7583020D02*
X6286235Y6863006D01*
X5976228Y6863006D01*
X5971249Y7583020D02*
X6286235Y7583020D01*
X5436021Y7718224D02*
X5436021Y7807200D01*
X5436021Y7762725D02*
X5376712Y7762725D01*
X5376712Y7807200D02*
X5376712Y7718224D01*
X5342472Y7718224D02*
X5283163Y7718224D01*
X5312805Y7718224D02*
X5312805Y7807200D01*
X5248924Y7792392D02*
X5248924Y7718224D01*
X5189590Y7718224D02*
X5189590Y7792392D01*
X5204423Y7807200D01*
X5234091Y7807200D01*
X5248924Y7792392D01*
X5155376Y7792392D02*
X5155376Y7733057D01*
X5140542Y7718224D01*
X5110875Y7718224D01*
X5096042Y7733057D01*
X5096042Y7792392D01*
X5110875Y7807200D01*
X5140542Y7807200D01*
X5155376Y7792392D01*
X5061802Y7792392D02*
X5046994Y7807200D01*
X5017327Y7807200D01*
X5002493Y7792392D01*
X5017327Y7762725D02*
X5046994Y7762725D01*
X5061802Y7777558D01*
X5061802Y7792392D01*
X5017327Y7762725D02*
X5002493Y7747891D01*
X5002493Y7733057D01*
X5017327Y7718224D01*
X5046994Y7718224D01*
X5061802Y7733057D01*
X4968254Y7762725D02*
X4908945Y7762725D01*
X4874706Y7807200D02*
X4815397Y7807200D01*
X4815397Y7718224D01*
X4874706Y7718224D01*
X4845064Y7762725D02*
X4815397Y7762725D01*
X4782682Y7807200D02*
X4753015Y7807200D01*
X4767848Y7807200D02*
X4767848Y7718224D01*
X4753015Y7718224D02*
X4782682Y7718224D01*
X4718801Y7733057D02*
X4703967Y7718224D01*
X4674300Y7718224D01*
X4659466Y7733057D01*
X4659466Y7792392D01*
X4674300Y7807200D01*
X4703967Y7807200D01*
X4718801Y7792392D01*
X4625227Y7762725D02*
X4610419Y7777558D01*
X4565918Y7777558D01*
X4565918Y7807200D02*
X4565918Y7718224D01*
X4610419Y7718224D01*
X4625227Y7733057D01*
X4625227Y7762725D01*
X4771252Y7583020D02*
X5001249Y7583020D01*
X5006253Y6863006D02*
X4771252Y6863006D01*
X4001251Y6863006D02*
X3786240Y6863006D01*
X3786240Y7583020D01*
X4001251Y7583020D01*
X3428735Y7583020D02*
X3428735Y6863006D01*
X3118728Y6863006D01*
X3113749Y7583020D02*
X3428735Y7583020D01*
X3352027Y8373798D02*
X3277859Y8373798D01*
X3263051Y8388631D01*
X3263051Y8418299D01*
X3277859Y8433132D01*
X3352027Y8433132D01*
X3337193Y8467346D02*
X3352027Y8482180D01*
X3352027Y8511847D01*
X3337193Y8526680D01*
X3322360Y8526680D01*
X3263051Y8467346D01*
X3263051Y8526680D01*
X2578521Y7807200D02*
X2578521Y7718224D01*
X2578521Y7762725D02*
X2519212Y7762725D01*
X2519212Y7807200D02*
X2519212Y7718224D01*
X2484972Y7718224D02*
X2425663Y7718224D01*
X2455305Y7718224D02*
X2455305Y7807200D01*
X2391424Y7807200D02*
X2361757Y7777558D01*
X2376591Y7777558D02*
X2332090Y7777558D01*
X2332090Y7807200D02*
X2332090Y7718224D01*
X2376591Y7718224D01*
X2391424Y7733057D01*
X2391424Y7762725D01*
X2376591Y7777558D01*
X2297876Y7792392D02*
X2297876Y7733057D01*
X2283042Y7718224D01*
X2253375Y7718224D01*
X2238542Y7733057D01*
X2238542Y7792392D01*
X2253375Y7807200D01*
X2283042Y7807200D01*
X2297876Y7792392D01*
X2204302Y7807200D02*
X2204302Y7718224D01*
X2144993Y7718224D02*
X2204302Y7807200D01*
X2144993Y7807200D02*
X2144993Y7718224D01*
X2110754Y7762725D02*
X2051445Y7762725D01*
X2017206Y7807200D02*
X1957897Y7807200D01*
X1957897Y7718224D01*
X2017206Y7718224D01*
X1987564Y7762725D02*
X1957897Y7762725D01*
X1925182Y7807200D02*
X1895515Y7807200D01*
X1910348Y7807200D02*
X1910348Y7718224D01*
X1895515Y7718224D02*
X1925182Y7718224D01*
X1861301Y7733057D02*
X1846467Y7718224D01*
X1816800Y7718224D01*
X1801966Y7733057D01*
X1801966Y7792392D01*
X1816800Y7807200D01*
X1846467Y7807200D01*
X1861301Y7792392D01*
X1767727Y7762725D02*
X1752919Y7777558D01*
X1708418Y7777558D01*
X1708418Y7807200D02*
X1708418Y7718224D01*
X1752919Y7718224D01*
X1767727Y7733057D01*
X1767727Y7762725D01*
X1913752Y7583020D02*
X2143749Y7583020D01*
X2148753Y6863006D02*
X1913752Y6863006D01*
X1143751Y6863006D02*
X928740Y6863006D01*
X928740Y7583020D01*
X1143751Y7583020D01*
X1930490Y9960510D02*
X2490484Y9960510D01*
X2490484Y10200515D01*
X1930490Y10200515D01*
X1930490Y9960510D01*
X1684898Y10521012D02*
X1084899Y10521012D01*
X1084899Y10800996D01*
X1134912Y10800996D01*
X1134988Y10800996D02*
X1134988Y10816008D01*
X1185000Y10816008D02*
X1185000Y10570999D01*
X1185077Y10570999D02*
X1435063Y10570999D01*
X1435063Y10631020D01*
X1585000Y10631020D01*
X1585000Y10816008D01*
X1634987Y10816008D02*
X1634987Y10800996D01*
X1684898Y10800996D01*
X1684898Y10521012D01*
X1642480Y10570999D02*
X1642480Y10611004D01*
X1602500Y10591015D01*
X1642480Y10570999D01*
X1435063Y10800996D02*
X1435063Y14821004D01*
X1335064Y14821004D01*
X1335064Y10800996D01*
X1435063Y10800996D01*
X3575750Y11985500D02*
X3639250Y12049000D01*
X5530077Y10800996D02*
X5530077Y10521012D01*
X6130076Y10521012D01*
X6130076Y10800996D01*
X6080063Y10800996D01*
X6079987Y10800996D02*
X6079987Y10816008D01*
X6030000Y10816008D02*
X6030000Y10631020D01*
X5879911Y10631020D01*
X5879911Y10570999D01*
X5630000Y10570999D01*
X5630000Y10816008D01*
X5579988Y10816008D02*
X5580064Y10800996D01*
X5530077Y10800996D01*
X5779911Y10800996D02*
X5879911Y10800996D01*
X5879911Y14821004D01*
X5779911Y14821004D01*
X5779911Y10800996D01*
X5630000Y10570999D02*
X5629899Y10570999D01*
X6052479Y10591015D02*
X6092484Y10570999D01*
X6092484Y10611004D01*
X6052479Y10591015D01*
X6030000Y14806018D02*
X6030000Y14991006D01*
X5879911Y14991006D01*
X5879911Y15051001D01*
X5630000Y15051001D01*
X5630000Y14806018D01*
X5579988Y14806018D02*
X5580064Y14821004D01*
X5530077Y14821004D01*
X5530077Y15101013D01*
X6130076Y15101013D01*
X6130076Y14821004D01*
X6080063Y14821004D01*
X6079987Y14821004D02*
X6079987Y14806018D01*
X5630000Y15051001D02*
X5629899Y15051001D01*
X5284484Y15421510D02*
X4724490Y15421510D01*
X4724490Y15661515D01*
X5284484Y15661515D01*
X5284484Y15421510D01*
X3952026Y17073806D02*
X3877858Y17073806D01*
X3863049Y17088639D01*
X3863049Y17118307D01*
X3877858Y17133115D01*
X3952026Y17133115D01*
X3937192Y17167354D02*
X3952026Y17182188D01*
X3952026Y17211855D01*
X3937192Y17226663D01*
X3922358Y17226663D01*
X3907525Y17211855D01*
X3892691Y17226663D01*
X3877858Y17226663D01*
X3863049Y17211855D01*
X3863049Y17182188D01*
X3877858Y17167354D01*
X3907525Y17197021D02*
X3907525Y17211855D01*
X5591240Y17438270D02*
X5591240Y17493261D01*
X5591240Y17438270D02*
X5626241Y17438270D01*
X5663249Y17518255D02*
X5679251Y17518255D01*
X5751235Y17493261D02*
X5751235Y17438270D01*
X5716233Y17438270D01*
X1623735Y17398011D02*
X1623735Y17343020D01*
X1588733Y17343020D01*
X1551751Y17423005D02*
X1535749Y17423005D01*
X1463740Y17398011D02*
X1463740Y17343020D01*
X1498741Y17343020D01*
X1684898Y15101013D02*
X1084899Y15101013D01*
X1084899Y14821004D01*
X1134912Y14821004D01*
X1134988Y14821004D02*
X1134988Y14806018D01*
X1185000Y14806018D02*
X1185000Y15051001D01*
X1185077Y15051001D02*
X1435063Y15051001D01*
X1435063Y14991006D01*
X1585000Y14991006D01*
X1585000Y14806018D01*
X1634987Y14806018D02*
X1634987Y14821004D01*
X1684898Y14821004D01*
X1684898Y15101013D01*
D45*
X3639250Y11985500D02*
X3575750Y11922000D01*
X2375295Y10465310D02*
X2375295Y10394139D01*
X2327823Y10394139D02*
X2327823Y10465310D01*
X2351572Y10441586D01*
X2375295Y10465310D01*
X2300441Y10465310D02*
X2300441Y10394139D01*
X2252994Y10394139D02*
X2300441Y10465310D01*
X2252994Y10465310D02*
X2252994Y10394139D01*
X2225613Y10429725D02*
X2178140Y10429725D01*
X2150759Y10417863D02*
X2138897Y10429725D01*
X2103312Y10429725D01*
X2075931Y10429725D02*
X2064069Y10441586D01*
X2028458Y10441586D01*
X2028458Y10465310D02*
X2028458Y10394139D01*
X2064069Y10394139D01*
X2075931Y10406001D01*
X2075931Y10429725D01*
X2103312Y10394139D02*
X2138897Y10394139D01*
X2150759Y10406001D01*
X2150759Y10417863D01*
X2138897Y10429725D02*
X2150759Y10441586D01*
X2150759Y10453448D01*
X2138897Y10465310D01*
X2103312Y10465310D01*
X2103312Y10394139D01*
X4822458Y15156639D02*
X4858069Y15156639D01*
X4869931Y15168501D01*
X4869931Y15192225D01*
X4858069Y15204086D01*
X4822458Y15204086D01*
X4822458Y15227810D02*
X4822458Y15156639D01*
X4897312Y15156639D02*
X4932897Y15156639D01*
X4944759Y15168501D01*
X4944759Y15180363D01*
X4932897Y15192225D01*
X4897312Y15192225D01*
X4932897Y15192225D02*
X4944759Y15204086D01*
X4944759Y15215948D01*
X4932897Y15227810D01*
X4897312Y15227810D01*
X4897312Y15156639D01*
X4972140Y15192225D02*
X5019613Y15192225D01*
X5046994Y15180363D02*
X5058856Y15192225D01*
X5082580Y15192225D01*
X5094441Y15204086D01*
X5094441Y15215948D01*
X5082580Y15227810D01*
X5058856Y15227810D01*
X5046994Y15215948D01*
X5046994Y15180363D02*
X5046994Y15168501D01*
X5058856Y15156639D01*
X5082580Y15156639D01*
X5094441Y15168501D01*
X5121823Y15156639D02*
X5121823Y15227810D01*
X5169295Y15227810D01*
X5145572Y15192225D02*
X5121823Y15192225D01*
X5121823Y15156639D02*
X5169295Y15156639D01*
D46*
X4430663Y16364282D02*
X4439553Y16373198D01*
X4439553Y16382088D01*
X4430663Y16390978D01*
X4439553Y16399893D01*
X4439553Y16408783D01*
X4430663Y16417673D01*
X4412858Y16417673D01*
X4403968Y16408783D01*
X4383419Y16408783D02*
X4374529Y16417673D01*
X4356724Y16417673D01*
X4347834Y16408783D01*
X4327285Y16408783D02*
X4318395Y16417673D01*
X4300590Y16417673D01*
X4291700Y16408783D01*
X4291700Y16373198D01*
X4300590Y16364282D01*
X4318395Y16364282D01*
X4327285Y16373198D01*
X4347834Y16373198D02*
X4356724Y16364282D01*
X4374529Y16364282D01*
X4383419Y16373198D01*
X4383419Y16382088D01*
X4374529Y16390978D01*
X4383419Y16399893D01*
X4383419Y16408783D01*
X4374529Y16390978D02*
X4365639Y16390978D01*
X4403968Y16373198D02*
X4412858Y16364282D01*
X4430663Y16364282D01*
X4430663Y16390978D02*
X4421748Y16390978D01*
X4314204Y16165680D02*
X4260813Y16165680D01*
X4260813Y16147874D02*
X4260813Y16183485D01*
X4296399Y16147874D02*
X4314204Y16165680D01*
X4305314Y16127351D02*
X4296399Y16127351D01*
X4287509Y16118436D01*
X4278619Y16127351D01*
X4269729Y16127351D01*
X4260813Y16118436D01*
X4260813Y16100656D01*
X4269729Y16091740D01*
X4269729Y16071217D02*
X4260813Y16062327D01*
X4260813Y16044522D01*
X4269729Y16035632D01*
X4305314Y16035632D01*
X4314204Y16044522D01*
X4314204Y16062327D01*
X4305314Y16071217D01*
X4305314Y16091740D02*
X4314204Y16100656D01*
X4314204Y16118436D01*
X4305314Y16127351D01*
X4287509Y16118436D02*
X4287509Y16109546D01*
X4105315Y16226132D02*
X4105315Y16252827D01*
X4096399Y16261717D01*
X4078619Y16261717D01*
X4069704Y16252827D01*
X4069704Y16226132D01*
X4051924Y16226132D02*
X4105315Y16226132D01*
X4069704Y16243912D02*
X4051924Y16261717D01*
X4051924Y16282240D02*
X4051924Y16317851D01*
X4051924Y16300046D02*
X4105315Y16300046D01*
X4087509Y16282240D01*
X4087509Y16338374D02*
X4078619Y16347290D01*
X4078619Y16373985D01*
X4096399Y16373985D02*
X4105315Y16365070D01*
X4105315Y16347290D01*
X4096399Y16338374D01*
X4087509Y16338374D01*
X4060814Y16338374D02*
X4051924Y16347290D01*
X4051924Y16365070D01*
X4060814Y16373985D01*
X4096399Y16373985D01*
X4105721Y16464282D02*
X4105721Y16490977D01*
X4123501Y16482087D01*
X4132416Y16482087D01*
X4141306Y16490977D01*
X4141306Y16508783D01*
X4132416Y16517673D01*
X4114611Y16517673D01*
X4105721Y16508783D01*
X4085172Y16517673D02*
X4049587Y16517673D01*
X4067367Y16517673D02*
X4067367Y16464282D01*
X4049587Y16482087D01*
X4029038Y16473197D02*
X4020148Y16464282D01*
X4002343Y16464282D01*
X3993453Y16473197D01*
X3993453Y16508783D01*
X4002343Y16517673D01*
X4020148Y16517673D01*
X4029038Y16508783D01*
X4105721Y16464282D02*
X4141306Y16464282D01*
X4298990Y16689301D02*
X4290100Y16698191D01*
X4290100Y16733776D01*
X4298990Y16742666D01*
X4316795Y16742666D01*
X4325685Y16733776D01*
X4346234Y16742666D02*
X4381819Y16742666D01*
X4364039Y16742666D02*
X4364039Y16689301D01*
X4346234Y16707081D01*
X4325685Y16698191D02*
X4316795Y16689301D01*
X4298990Y16689301D01*
X4402368Y16698191D02*
X4402368Y16707081D01*
X4411258Y16715996D01*
X4429063Y16715996D01*
X4437953Y16724886D01*
X4437953Y16733776D01*
X4429063Y16742666D01*
X4411258Y16742666D01*
X4402368Y16733776D01*
X4402368Y16724886D01*
X4411258Y16715996D01*
X4429063Y16715996D02*
X4437953Y16707081D01*
X4437953Y16698191D01*
X4429063Y16689301D01*
X4411258Y16689301D01*
X4402368Y16698191D01*
X4131908Y16964281D02*
X4114103Y16964281D01*
X4105213Y16973196D01*
X4084664Y16990976D02*
X4049079Y16990976D01*
X4075774Y16964281D01*
X4075774Y17017672D01*
X4105213Y17017672D02*
X4140798Y16982086D01*
X4140798Y16973196D01*
X4131908Y16964281D01*
X4140798Y17017672D02*
X4105213Y17017672D01*
X4028556Y17008782D02*
X4019640Y17017672D01*
X4001860Y17017672D01*
X3992945Y17008782D01*
X3992945Y16973196D01*
X4001860Y16964281D01*
X4019640Y16964281D01*
X4028556Y16973196D01*
X4298990Y17264280D02*
X4290100Y17273196D01*
X4290100Y17308781D01*
X4298990Y17317671D01*
X4316795Y17317671D01*
X4325685Y17308781D01*
X4346234Y17308781D02*
X4355124Y17317671D01*
X4372929Y17317671D01*
X4381819Y17308781D01*
X4381819Y17299891D01*
X4372929Y17290976D01*
X4364039Y17290976D01*
X4372929Y17290976D02*
X4381819Y17282086D01*
X4381819Y17273196D01*
X4372929Y17264280D01*
X4355124Y17264280D01*
X4346234Y17273196D01*
X4325685Y17273196D02*
X4316795Y17264280D01*
X4298990Y17264280D01*
X4402368Y17273196D02*
X4402368Y17282086D01*
X4411258Y17290976D01*
X4429063Y17290976D01*
X4437953Y17299891D01*
X4437953Y17308781D01*
X4429063Y17317671D01*
X4411258Y17317671D01*
X4402368Y17308781D01*
X4402368Y17299891D01*
X4411258Y17290976D01*
X4429063Y17290976D02*
X4437953Y17282086D01*
X4437953Y17273196D01*
X4429063Y17264280D01*
X4411258Y17264280D01*
X4402368Y17273196D01*
X4114205Y17564508D02*
X4105315Y17555618D01*
X4069729Y17555618D01*
X4060814Y17564508D01*
X4060814Y17582314D01*
X4069729Y17591204D01*
X4069729Y17611752D02*
X4060814Y17620642D01*
X4060814Y17638448D01*
X4069729Y17647338D01*
X4078619Y17647338D01*
X4087509Y17638448D01*
X4087509Y17629558D01*
X4087509Y17638448D02*
X4096399Y17647338D01*
X4105315Y17647338D01*
X4114205Y17638448D01*
X4114205Y17620642D01*
X4105315Y17611752D01*
X4105315Y17591204D02*
X4114205Y17582314D01*
X4114205Y17564508D01*
X4087509Y17667886D02*
X4087509Y17703472D01*
X4060814Y17694582D02*
X4114205Y17694582D01*
X4087509Y17667886D01*
X3764218Y17703472D02*
X3755303Y17685666D01*
X3737523Y17667886D01*
X3737523Y17694582D01*
X3728607Y17703472D01*
X3719717Y17703472D01*
X3710827Y17694582D01*
X3710827Y17676776D01*
X3719717Y17667886D01*
X3737523Y17667886D01*
X3710827Y17647338D02*
X3710827Y17611752D01*
X3710827Y17629558D02*
X3764218Y17629558D01*
X3746413Y17611752D01*
X3755303Y17591204D02*
X3764218Y17582314D01*
X3764218Y17564508D01*
X3755303Y17555618D01*
X3719717Y17555618D01*
X3710827Y17564508D01*
X3710827Y17582314D01*
X3719717Y17591204D01*
X3464193Y17582314D02*
X3464193Y17564508D01*
X3455303Y17555618D01*
X3419718Y17555618D01*
X3410828Y17564508D01*
X3410828Y17582314D01*
X3419718Y17591204D01*
X3419718Y17611752D02*
X3410828Y17620642D01*
X3410828Y17638448D01*
X3419718Y17647338D01*
X3428608Y17647338D01*
X3437523Y17638448D01*
X3437523Y17629558D01*
X3437523Y17638448D02*
X3446413Y17647338D01*
X3455303Y17647338D01*
X3464193Y17638448D01*
X3464193Y17620642D01*
X3455303Y17611752D01*
X3455303Y17591204D02*
X3464193Y17582314D01*
X3464193Y17667886D02*
X3437523Y17667886D01*
X3446413Y17685666D01*
X3446413Y17694582D01*
X3437523Y17703472D01*
X3419718Y17703472D01*
X3410828Y17694582D01*
X3410828Y17676776D01*
X3419718Y17667886D01*
X3464193Y17667886D02*
X3464193Y17703472D01*
X3222411Y17427679D02*
X3222411Y17374288D01*
X3195715Y17400983D01*
X3231301Y17400983D01*
X3175167Y17427679D02*
X3139581Y17427679D01*
X3157387Y17427679D02*
X3157387Y17374288D01*
X3139581Y17392093D01*
X3119033Y17383203D02*
X3110143Y17374288D01*
X3092363Y17374288D01*
X3083447Y17383203D01*
X3083447Y17418789D01*
X3092363Y17427679D01*
X3110143Y17427679D01*
X3119033Y17418789D01*
X3105317Y17555618D02*
X3069706Y17555618D01*
X3060816Y17564508D01*
X3060816Y17582314D01*
X3069706Y17591204D01*
X3069706Y17611752D02*
X3060816Y17620642D01*
X3060816Y17638448D01*
X3069706Y17647338D01*
X3078621Y17647338D01*
X3087511Y17638448D01*
X3087511Y17629558D01*
X3087511Y17638448D02*
X3096401Y17647338D01*
X3105317Y17647338D01*
X3114207Y17638448D01*
X3114207Y17620642D01*
X3105317Y17611752D01*
X3105317Y17591204D02*
X3114207Y17582314D01*
X3114207Y17564508D01*
X3105317Y17555618D01*
X3105317Y17667886D02*
X3069706Y17667886D01*
X3105317Y17703472D01*
X3069706Y17703472D01*
X3060816Y17694582D01*
X3060816Y17676776D01*
X3069706Y17667886D01*
X3105317Y17667886D02*
X3114207Y17676776D01*
X3114207Y17694582D01*
X3105317Y17703472D01*
X2911057Y17217671D02*
X2919947Y17208781D01*
X2919947Y17199891D01*
X2911057Y17190976D01*
X2884362Y17190976D01*
X2884362Y17208781D01*
X2893252Y17217671D01*
X2911057Y17217671D01*
X2884362Y17190976D02*
X2902167Y17173196D01*
X2919947Y17164281D01*
X2863813Y17173196D02*
X2863813Y17182086D01*
X2854923Y17190976D01*
X2863813Y17199891D01*
X2863813Y17208781D01*
X2854923Y17217671D01*
X2837143Y17217671D01*
X2828228Y17208781D01*
X2807705Y17208781D02*
X2798789Y17217671D01*
X2781009Y17217671D01*
X2772094Y17208781D01*
X2772094Y17173196D01*
X2781009Y17164281D01*
X2798789Y17164281D01*
X2807705Y17173196D01*
X2828228Y17173196D02*
X2837143Y17164281D01*
X2854923Y17164281D01*
X2863813Y17173196D01*
X2854923Y17190976D02*
X2846033Y17190976D01*
X2854923Y16917672D02*
X2837143Y16917672D01*
X2828228Y16908782D01*
X2807705Y16908782D02*
X2798789Y16917672D01*
X2781009Y16917672D01*
X2772094Y16908782D01*
X2772094Y16873197D01*
X2781009Y16864281D01*
X2798789Y16864281D01*
X2807705Y16873197D01*
X2828228Y16873197D02*
X2837143Y16864281D01*
X2854923Y16864281D01*
X2863813Y16873197D01*
X2863813Y16882087D01*
X2854923Y16890977D01*
X2863813Y16899892D01*
X2863813Y16908782D01*
X2854923Y16917672D01*
X2854923Y16890977D02*
X2846033Y16890977D01*
X2884362Y16873197D02*
X2893252Y16864281D01*
X2911057Y16864281D01*
X2919947Y16873197D01*
X2919947Y16882087D01*
X2884362Y16917672D01*
X2919947Y16917672D01*
X3092363Y17114293D02*
X3083447Y17123183D01*
X3083447Y17158769D01*
X3092363Y17167684D01*
X3110143Y17167684D01*
X3119033Y17158769D01*
X3139581Y17167684D02*
X3175167Y17167684D01*
X3157387Y17167684D02*
X3157387Y17114293D01*
X3139581Y17132099D01*
X3119033Y17123183D02*
X3110143Y17114293D01*
X3092363Y17114293D01*
X3195715Y17114293D02*
X3231301Y17114293D01*
X3231301Y17123183D01*
X3195715Y17158769D01*
X3195715Y17167684D01*
X2884362Y16317673D02*
X2884362Y16308783D01*
X2919947Y16273198D01*
X2919947Y16264282D01*
X2884362Y16264282D01*
X2863813Y16273198D02*
X2863813Y16282088D01*
X2854923Y16290978D01*
X2863813Y16299893D01*
X2863813Y16308783D01*
X2854923Y16317673D01*
X2837143Y16317673D01*
X2828228Y16308783D01*
X2807705Y16308783D02*
X2798789Y16317673D01*
X2781009Y16317673D01*
X2772094Y16308783D01*
X2772094Y16273198D01*
X2781009Y16264282D01*
X2798789Y16264282D01*
X2807705Y16273198D01*
X2828228Y16273198D02*
X2837143Y16264282D01*
X2854923Y16264282D01*
X2863813Y16273198D01*
X2854923Y16290978D02*
X2846033Y16290978D01*
X3060816Y16174570D02*
X3069706Y16183485D01*
X3105317Y16183485D01*
X3114207Y16174570D01*
X3114207Y16156790D01*
X3105317Y16147874D01*
X3096401Y16147874D01*
X3087511Y16156790D01*
X3087511Y16183485D01*
X3060816Y16174570D02*
X3060816Y16156790D01*
X3069706Y16147874D01*
X3069706Y16127351D02*
X3060816Y16118436D01*
X3060816Y16100656D01*
X3069706Y16091740D01*
X3069706Y16071217D02*
X3060816Y16062327D01*
X3060816Y16044522D01*
X3069706Y16035632D01*
X3105317Y16035632D01*
X3114207Y16044522D01*
X3114207Y16062327D01*
X3105317Y16071217D01*
X3105317Y16091740D02*
X3114207Y16100656D01*
X3114207Y16118436D01*
X3105317Y16127351D01*
X3096401Y16127351D01*
X3087511Y16118436D01*
X3078621Y16127351D01*
X3069706Y16127351D01*
X3087511Y16118436D02*
X3087511Y16109546D01*
X3845727Y16118436D02*
X3899117Y16118436D01*
X3872422Y16091740D01*
X3872422Y16127351D01*
X3890202Y16147874D02*
X3899117Y16156790D01*
X3899117Y16174570D01*
X3890202Y16183485D01*
X3854617Y16147874D01*
X3845727Y16156790D01*
X3845727Y16174570D01*
X3854617Y16183485D01*
X3890202Y16183485D01*
X3890202Y16147874D02*
X3854617Y16147874D01*
X3854617Y16071217D02*
X3845727Y16062327D01*
X3845727Y16044522D01*
X3854617Y16035632D01*
X3890202Y16035632D01*
X3899117Y16044522D01*
X3899117Y16062327D01*
X3890202Y16071217D01*
X5406709Y17064205D02*
X5433404Y17064205D01*
X5442294Y17073095D01*
X5442294Y17090875D01*
X5433404Y17099790D01*
X5406709Y17099790D01*
X5406709Y17117570D02*
X5406709Y17064205D01*
X5424489Y17099790D02*
X5442294Y17117570D01*
X5462843Y17117570D02*
X5498428Y17117570D01*
X5480623Y17117570D02*
X5480623Y17064205D01*
X5462843Y17081985D01*
X5518977Y17073095D02*
X5527867Y17064205D01*
X5545647Y17064205D01*
X5554562Y17073095D01*
X5554562Y17081985D01*
X5518977Y17117570D01*
X5554562Y17117570D01*
X5612678Y17318230D02*
X5612678Y17371621D01*
X5639373Y17344925D01*
X5603762Y17344925D01*
X5659896Y17344925D02*
X5695507Y17344925D01*
X5668812Y17371621D01*
X5668812Y17318230D01*
X5716030Y17327145D02*
X5724946Y17318230D01*
X5742726Y17318230D01*
X5751616Y17327145D01*
X5751616Y17362731D01*
X5742726Y17371621D01*
X5724946Y17371621D01*
X5716030Y17362731D01*
X5822228Y17244621D02*
X5813312Y17235731D01*
X5813312Y17226841D01*
X5822228Y17217925D01*
X5813312Y17209035D01*
X5813312Y17200145D01*
X5822228Y17191230D01*
X5840008Y17191230D01*
X5848923Y17200145D01*
X5869446Y17191230D02*
X5905057Y17191230D01*
X5887252Y17191230D02*
X5887252Y17244621D01*
X5905057Y17226841D01*
X5925580Y17235731D02*
X5925580Y17217925D01*
X5934496Y17209035D01*
X5961166Y17209035D01*
X5943386Y17209035D02*
X5925580Y17191230D01*
X5961166Y17191230D02*
X5961166Y17244621D01*
X5934496Y17244621D01*
X5925580Y17235731D01*
X5848923Y17235731D02*
X5840008Y17244621D01*
X5822228Y17244621D01*
X5822228Y17217925D02*
X5831118Y17217925D01*
X5551895Y17438626D02*
X5551895Y17474237D01*
X5551895Y17456431D02*
X5498530Y17456431D01*
X5498530Y17494760D02*
X5534115Y17530371D01*
X5543005Y17530371D01*
X5551895Y17521455D01*
X5551895Y17503675D01*
X5543005Y17494760D01*
X5498530Y17494760D02*
X5498530Y17530371D01*
X5597209Y17724605D02*
X5623904Y17724605D01*
X5632794Y17733495D01*
X5632794Y17751275D01*
X5623904Y17760190D01*
X5597209Y17760190D01*
X5597209Y17777970D02*
X5597209Y17724605D01*
X5614989Y17760190D02*
X5632794Y17777970D01*
X5653343Y17777970D02*
X5688928Y17777970D01*
X5671123Y17777970D02*
X5671123Y17724605D01*
X5653343Y17742385D01*
X5709477Y17742385D02*
X5727257Y17724605D01*
X5727257Y17777970D01*
X5709477Y17777970D02*
X5745062Y17777970D01*
X1808062Y17553180D02*
X1799147Y17562070D01*
X1781367Y17562070D01*
X1772477Y17553180D01*
X1808062Y17517595D01*
X1808062Y17553180D01*
X1808062Y17517595D02*
X1799147Y17508705D01*
X1781367Y17508705D01*
X1772477Y17517595D01*
X1772477Y17553180D01*
X1751928Y17562070D02*
X1716343Y17562070D01*
X1734123Y17562070D02*
X1734123Y17508705D01*
X1716343Y17526485D01*
X1695794Y17517595D02*
X1695794Y17535375D01*
X1686904Y17544290D01*
X1660209Y17544290D01*
X1660209Y17562070D02*
X1660209Y17508705D01*
X1686904Y17508705D01*
X1695794Y17517595D01*
X1677989Y17544290D02*
X1695794Y17562070D01*
X1675830Y17435121D02*
X1675830Y17399510D01*
X1675830Y17417315D02*
X1729195Y17417315D01*
X1711415Y17399510D01*
X1729195Y17378987D02*
X1729195Y17343376D01*
X1729195Y17361181D02*
X1675830Y17361181D01*
X1608876Y17244621D02*
X1617766Y17235731D01*
X1617766Y17200145D01*
X1608876Y17191230D01*
X1591096Y17191230D01*
X1582180Y17200145D01*
X1561657Y17217925D02*
X1526046Y17217925D01*
X1505523Y17200145D02*
X1496608Y17191230D01*
X1478828Y17191230D01*
X1469912Y17200145D01*
X1469912Y17209035D01*
X1478828Y17217925D01*
X1487718Y17217925D01*
X1478828Y17217925D02*
X1469912Y17226841D01*
X1469912Y17235731D01*
X1478828Y17244621D01*
X1496608Y17244621D01*
X1505523Y17235731D01*
X1534962Y17244621D02*
X1561657Y17217925D01*
X1582180Y17235731D02*
X1591096Y17244621D01*
X1608876Y17244621D01*
X1534962Y17244621D02*
X1534962Y17191230D01*
X1524471Y17724605D02*
X1533361Y17733495D01*
X1533361Y17751275D01*
X1524471Y17760190D01*
X1497776Y17760190D01*
X1515556Y17760190D02*
X1533361Y17777970D01*
X1553910Y17769080D02*
X1562800Y17777970D01*
X1580605Y17777970D01*
X1589495Y17769080D01*
X1589495Y17733495D01*
X1580605Y17724605D01*
X1562800Y17724605D01*
X1553910Y17733495D01*
X1553910Y17742385D01*
X1562800Y17751275D01*
X1589495Y17751275D01*
X1524471Y17724605D02*
X1497776Y17724605D01*
X1497776Y17777970D01*
X3639250Y11922000D02*
X3575750Y11858500D01*
X3355303Y9583473D02*
X3364193Y9574583D01*
X3364193Y9556777D01*
X3355303Y9547887D01*
X3346413Y9547887D01*
X3337523Y9556777D01*
X3337523Y9583473D01*
X3355303Y9583473D02*
X3319718Y9583473D01*
X3310828Y9574583D01*
X3310828Y9556777D01*
X3319718Y9547887D01*
X3310828Y9527339D02*
X3310828Y9491753D01*
X3346413Y9527339D01*
X3355303Y9527339D01*
X3364193Y9518449D01*
X3364193Y9500643D01*
X3355303Y9491753D01*
X3355303Y9471205D02*
X3364193Y9462315D01*
X3364193Y9444509D01*
X3355303Y9435619D01*
X3319718Y9435619D01*
X3310828Y9444509D01*
X3310828Y9462315D01*
X3319718Y9471205D01*
X3159215Y9394573D02*
X3150300Y9403463D01*
X3141410Y9403463D01*
X3132520Y9394573D01*
X3132520Y9376793D01*
X3141410Y9367878D01*
X3150300Y9367878D01*
X3159215Y9376793D01*
X3159215Y9394573D01*
X3132520Y9394573D02*
X3123605Y9403463D01*
X3114715Y9403463D01*
X3105825Y9394573D01*
X3105825Y9376793D01*
X3114715Y9367878D01*
X3123605Y9367878D01*
X3132520Y9376793D01*
X3105825Y9347354D02*
X3105825Y9311744D01*
X3105825Y9329549D02*
X3159215Y9329549D01*
X3141410Y9311744D01*
X3132520Y9291220D02*
X3123605Y9282305D01*
X3123605Y9255610D01*
X3105825Y9255610D02*
X3159215Y9255610D01*
X3159215Y9282305D01*
X3150300Y9291220D01*
X3132520Y9291220D01*
X3123605Y9273415D02*
X3105825Y9291220D01*
X3098789Y9157667D02*
X3107704Y9148777D01*
X3098789Y9157667D02*
X3081009Y9157667D01*
X3072093Y9148777D01*
X3072093Y9113192D01*
X3081009Y9104302D01*
X3098789Y9104302D01*
X3107704Y9113192D01*
X3128227Y9122082D02*
X3146033Y9104302D01*
X3146033Y9157667D01*
X3163813Y9157667D02*
X3128227Y9157667D01*
X3184361Y9148777D02*
X3219947Y9113192D01*
X3219947Y9148777D01*
X3211057Y9157667D01*
X3193251Y9157667D01*
X3184361Y9148777D01*
X3184361Y9113192D01*
X3193251Y9104302D01*
X3211057Y9104302D01*
X3219947Y9113192D01*
X2920354Y9213192D02*
X2911464Y9204302D01*
X2893658Y9204302D01*
X2884768Y9213192D01*
X2864220Y9213192D02*
X2855330Y9204302D01*
X2837524Y9204302D01*
X2828634Y9213192D01*
X2808086Y9213192D02*
X2799196Y9204302D01*
X2781390Y9204302D01*
X2772500Y9213192D01*
X2772500Y9248777D01*
X2781390Y9257667D01*
X2799196Y9257667D01*
X2808086Y9248777D01*
X2828634Y9257667D02*
X2864220Y9222082D01*
X2864220Y9213192D01*
X2864220Y9257667D02*
X2828634Y9257667D01*
X2884768Y9257667D02*
X2920354Y9222082D01*
X2920354Y9213192D01*
X2920354Y9257667D02*
X2884768Y9257667D01*
X2909711Y9435619D02*
X2900821Y9444509D01*
X2900821Y9462315D01*
X2909711Y9471205D01*
X2900821Y9491753D02*
X2936407Y9527339D01*
X2945297Y9527339D01*
X2954212Y9518449D01*
X2954212Y9500643D01*
X2945297Y9491753D01*
X2945297Y9471205D02*
X2954212Y9462315D01*
X2954212Y9444509D01*
X2945297Y9435619D01*
X2909711Y9435619D01*
X2900821Y9491753D02*
X2900821Y9527339D01*
X2909711Y9547887D02*
X2945297Y9583473D01*
X2909711Y9583473D01*
X2900821Y9574583D01*
X2900821Y9556777D01*
X2909711Y9547887D01*
X2945297Y9547887D01*
X2954212Y9556777D01*
X2954212Y9574583D01*
X2945297Y9583473D01*
X2913064Y8932674D02*
X2895259Y8932674D01*
X2886369Y8923784D01*
X2865820Y8932674D02*
X2830235Y8932674D01*
X2848040Y8932674D02*
X2848040Y8879283D01*
X2830235Y8897089D01*
X2809686Y8888199D02*
X2800796Y8879283D01*
X2782991Y8879283D01*
X2774101Y8888199D01*
X2774101Y8923784D01*
X2782991Y8932674D01*
X2800796Y8932674D01*
X2809686Y8923784D01*
X2886369Y8888199D02*
X2895259Y8879283D01*
X2913064Y8879283D01*
X2921954Y8888199D01*
X2921954Y8897089D01*
X2913064Y8905979D01*
X2921954Y8914894D01*
X2921954Y8923784D01*
X2913064Y8932674D01*
X2913064Y8905979D02*
X2904149Y8905979D01*
X3079205Y8657668D02*
X3096985Y8657668D01*
X3105901Y8648778D01*
X3126424Y8630998D02*
X3162035Y8630998D01*
X3182558Y8622083D02*
X3200363Y8604303D01*
X3200363Y8657668D01*
X3218143Y8657668D02*
X3182558Y8657668D01*
X3153119Y8657668D02*
X3153119Y8604303D01*
X3126424Y8630998D01*
X3105901Y8613193D02*
X3096985Y8604303D01*
X3079205Y8604303D01*
X3070315Y8613193D01*
X3070315Y8648778D01*
X3079205Y8657668D01*
X2886369Y8357669D02*
X2886369Y8348779D01*
X2921954Y8313193D01*
X2921954Y8304303D01*
X2886369Y8304303D01*
X2865820Y8313193D02*
X2856930Y8304303D01*
X2839125Y8304303D01*
X2830235Y8313193D01*
X2809686Y8313193D02*
X2800796Y8304303D01*
X2782991Y8304303D01*
X2774101Y8313193D01*
X2774101Y8348779D01*
X2782991Y8357669D01*
X2800796Y8357669D01*
X2809686Y8348779D01*
X2830235Y8357669D02*
X2865820Y8322083D01*
X2865820Y8313193D01*
X2865820Y8357669D02*
X2830235Y8357669D01*
X3109711Y8063486D02*
X3100821Y8054571D01*
X3100821Y8036791D01*
X3109711Y8027875D01*
X3100821Y8007352D02*
X3100821Y7971741D01*
X3136406Y8007352D01*
X3145296Y8007352D01*
X3154212Y7998437D01*
X3154212Y7980657D01*
X3145296Y7971741D01*
X3145296Y7951218D02*
X3154212Y7942303D01*
X3154212Y7924523D01*
X3145296Y7915633D01*
X3109711Y7915633D01*
X3100821Y7924523D01*
X3100821Y7942303D01*
X3109711Y7951218D01*
X3145296Y8027875D02*
X3154212Y8036791D01*
X3154212Y8054571D01*
X3145296Y8063486D01*
X3136406Y8063486D01*
X3127516Y8054571D01*
X3118626Y8063486D01*
X3109711Y8063486D01*
X3127516Y8054571D02*
X3127516Y8045681D01*
X3450807Y8045681D02*
X3504198Y8045681D01*
X3486418Y8027875D01*
X3450807Y8027875D02*
X3450807Y8063486D01*
X3450807Y8007352D02*
X3450807Y7971741D01*
X3450807Y7989547D02*
X3504198Y7989547D01*
X3486418Y7971741D01*
X3495308Y7951218D02*
X3504198Y7942303D01*
X3504198Y7924523D01*
X3495308Y7915633D01*
X3459723Y7915633D01*
X3450807Y7924523D01*
X3450807Y7942303D01*
X3459723Y7951218D01*
X3453830Y7584899D02*
X3453830Y7549314D01*
X3453830Y7567119D02*
X3507195Y7567119D01*
X3489415Y7549314D01*
X3498305Y7528765D02*
X3480525Y7528765D01*
X3471610Y7519875D01*
X3471610Y7493180D01*
X3453830Y7493180D02*
X3507195Y7493180D01*
X3507195Y7519875D01*
X3498305Y7528765D01*
X3471610Y7510985D02*
X3453830Y7528765D01*
X3453830Y7457899D02*
X3453830Y7422314D01*
X3489415Y7457899D01*
X3498305Y7457899D01*
X3507195Y7449009D01*
X3507195Y7431204D01*
X3498305Y7422314D01*
X3498305Y7401765D02*
X3480525Y7401765D01*
X3471610Y7392875D01*
X3471610Y7366180D01*
X3453830Y7366180D02*
X3507195Y7366180D01*
X3507195Y7392875D01*
X3498305Y7401765D01*
X3471610Y7383985D02*
X3453830Y7401765D01*
X3462720Y7076899D02*
X3471610Y7076899D01*
X3480525Y7068009D01*
X3480525Y7041314D01*
X3462720Y7041314D01*
X3453830Y7050204D01*
X3453830Y7068009D01*
X3462720Y7076899D01*
X3498305Y7059119D02*
X3480525Y7041314D01*
X3480525Y7020765D02*
X3471610Y7011875D01*
X3471610Y6985180D01*
X3453830Y6985180D02*
X3507195Y6985180D01*
X3507195Y7011875D01*
X3498305Y7020765D01*
X3480525Y7020765D01*
X3471610Y7002985D02*
X3453830Y7020765D01*
X3498305Y7059119D02*
X3507195Y7076899D01*
X3507195Y6954903D02*
X3507195Y6919318D01*
X3480525Y6919318D01*
X3489415Y6937123D01*
X3489415Y6946013D01*
X3480525Y6954903D01*
X3462720Y6954903D01*
X3453830Y6946013D01*
X3453830Y6928208D01*
X3462720Y6919318D01*
X3453830Y6898769D02*
X3471610Y6880989D01*
X3471610Y6889879D02*
X3471610Y6863184D01*
X3453830Y6863184D02*
X3507195Y6863184D01*
X3507195Y6889879D01*
X3498305Y6898769D01*
X3480525Y6898769D01*
X3471610Y6889879D01*
X3707830Y7112180D02*
X3761195Y7112180D01*
X3761195Y7138875D01*
X3752305Y7147765D01*
X3734525Y7147765D01*
X3725610Y7138875D01*
X3725610Y7112180D01*
X3725610Y7129985D02*
X3707830Y7147765D01*
X3734525Y7168314D02*
X3761195Y7195009D01*
X3707830Y7195009D01*
X3734525Y7203899D02*
X3734525Y7168314D01*
X3725610Y7239180D02*
X3725610Y7265875D01*
X3734525Y7274765D01*
X3752305Y7274765D01*
X3761195Y7265875D01*
X3761195Y7239180D01*
X3707830Y7239180D01*
X3725610Y7256985D02*
X3707830Y7274765D01*
X3716720Y7295314D02*
X3707830Y7304204D01*
X3707830Y7322009D01*
X3716720Y7330899D01*
X3725610Y7330899D01*
X3734525Y7322009D01*
X3734525Y7313119D01*
X3734525Y7322009D02*
X3743415Y7330899D01*
X3752305Y7330899D01*
X3761195Y7322009D01*
X3761195Y7304204D01*
X3752305Y7295314D01*
X3759722Y7915633D02*
X3750832Y7924523D01*
X3750832Y7942303D01*
X3759722Y7951218D01*
X3750832Y7971741D02*
X3786418Y8007352D01*
X3795308Y8007352D01*
X3804198Y7998437D01*
X3804198Y7980657D01*
X3795308Y7971741D01*
X3795308Y7951218D02*
X3804198Y7942303D01*
X3804198Y7924523D01*
X3795308Y7915633D01*
X3759722Y7915633D01*
X3750832Y7971741D02*
X3750832Y8007352D01*
X3777502Y8027875D02*
X3777502Y8063486D01*
X3750832Y8054571D02*
X3804198Y8054571D01*
X3777502Y8027875D01*
X4011512Y8203186D02*
X4011512Y8238771D01*
X4020428Y8247687D01*
X4038208Y8247687D01*
X4047098Y8238771D01*
X4067646Y8238771D02*
X4076536Y8247687D01*
X4094342Y8247687D01*
X4103232Y8238771D01*
X4103232Y8203186D01*
X4094342Y8194296D01*
X4076536Y8194296D01*
X4067646Y8203186D01*
X4067646Y8212076D01*
X4076536Y8220991D01*
X4103232Y8220991D01*
X4047098Y8203186D02*
X4038208Y8194296D01*
X4020428Y8194296D01*
X4011512Y8203186D01*
X4109709Y8063486D02*
X4145320Y8063486D01*
X4154210Y8054571D01*
X4154210Y8036791D01*
X4145320Y8027875D01*
X4136404Y8027875D01*
X4127514Y8036791D01*
X4127514Y8063486D01*
X4109709Y8063486D02*
X4100819Y8054571D01*
X4100819Y8036791D01*
X4109709Y8027875D01*
X4100819Y8007352D02*
X4100819Y7971741D01*
X4100819Y7989547D02*
X4154210Y7989547D01*
X4136404Y7971741D01*
X4145320Y7951218D02*
X4154210Y7942303D01*
X4154210Y7924523D01*
X4145320Y7915633D01*
X4109709Y7915633D01*
X4100819Y7924523D01*
X4100819Y7942303D01*
X4109709Y7951218D01*
X4300996Y8404303D02*
X4292106Y8413193D01*
X4292106Y8448779D01*
X4300996Y8457669D01*
X4318802Y8457669D01*
X4327692Y8448779D01*
X4348240Y8457669D02*
X4383826Y8422083D01*
X4383826Y8413193D01*
X4374936Y8404303D01*
X4357130Y8404303D01*
X4348240Y8413193D01*
X4327692Y8413193D02*
X4318802Y8404303D01*
X4300996Y8404303D01*
X4348240Y8457669D02*
X4383826Y8457669D01*
X4404374Y8448779D02*
X4413264Y8457669D01*
X4431070Y8457669D01*
X4439960Y8448779D01*
X4439960Y8430973D01*
X4431070Y8422083D01*
X4422154Y8422083D01*
X4404374Y8430973D01*
X4404374Y8404303D01*
X4439960Y8404303D01*
X4422154Y8704303D02*
X4422154Y8757668D01*
X4404374Y8757668D02*
X4439960Y8757668D01*
X4404374Y8722083D02*
X4422154Y8704303D01*
X4383826Y8713193D02*
X4374936Y8704303D01*
X4357130Y8704303D01*
X4348240Y8713193D01*
X4327692Y8713193D02*
X4318802Y8704303D01*
X4300996Y8704303D01*
X4292106Y8713193D01*
X4292106Y8748778D01*
X4300996Y8757668D01*
X4318802Y8757668D01*
X4327692Y8748778D01*
X4348240Y8757668D02*
X4383826Y8722083D01*
X4383826Y8713193D01*
X4383826Y8757668D02*
X4348240Y8757668D01*
X4131299Y8507681D02*
X4095713Y8507681D01*
X4131299Y8472096D01*
X4131299Y8463180D01*
X4122409Y8454290D01*
X4104603Y8454290D01*
X4095713Y8463180D01*
X4057385Y8454290D02*
X4057385Y8507681D01*
X4075165Y8507681D02*
X4039579Y8507681D01*
X4019056Y8498791D02*
X4010141Y8507681D01*
X3992361Y8507681D01*
X3983445Y8498791D01*
X3983445Y8463180D01*
X3992361Y8454290D01*
X4010141Y8454290D01*
X4019056Y8463180D01*
X4039579Y8472096D02*
X4057385Y8454290D01*
X4300996Y9304301D02*
X4292106Y9313191D01*
X4292106Y9348777D01*
X4300996Y9357667D01*
X4318802Y9357667D01*
X4327692Y9348777D01*
X4348240Y9357667D02*
X4383826Y9322081D01*
X4383826Y9313191D01*
X4374936Y9304301D01*
X4357130Y9304301D01*
X4348240Y9313191D01*
X4327692Y9313191D02*
X4318802Y9304301D01*
X4300996Y9304301D01*
X4348240Y9357667D02*
X4383826Y9357667D01*
X4404374Y9348777D02*
X4413264Y9357667D01*
X4431070Y9357667D01*
X4439960Y9348777D01*
X4439960Y9339887D01*
X4431070Y9330997D01*
X4404374Y9330997D01*
X4404374Y9348777D01*
X4404374Y9330997D02*
X4422154Y9313191D01*
X4439960Y9304301D01*
X4154210Y9444509D02*
X4145320Y9435619D01*
X4109709Y9435619D01*
X4100819Y9444509D01*
X4100819Y9462315D01*
X4109709Y9471205D01*
X4100819Y9491753D02*
X4136404Y9527339D01*
X4145320Y9527339D01*
X4154210Y9518449D01*
X4154210Y9500643D01*
X4145320Y9491753D01*
X4145320Y9471205D02*
X4154210Y9462315D01*
X4154210Y9444509D01*
X4100819Y9491753D02*
X4100819Y9527339D01*
X4109709Y9547887D02*
X4118624Y9547887D01*
X4127514Y9556777D01*
X4127514Y9574583D01*
X4118624Y9583473D01*
X4109709Y9583473D01*
X4100819Y9574583D01*
X4100819Y9556777D01*
X4109709Y9547887D01*
X4127514Y9556777D02*
X4136404Y9547887D01*
X4145320Y9547887D01*
X4154210Y9556777D01*
X4154210Y9574583D01*
X4145320Y9583473D01*
X4136404Y9583473D01*
X4127514Y9574583D01*
D47*
X3575750Y11795000D02*
X3639250Y11858500D01*
D48*
X3639250Y11795000D02*
X3575750Y11731500D01*
D49*
X2570494Y10270517D02*
X1850480Y10270517D01*
X1850480Y9890508D01*
X2570494Y9890508D01*
X2570494Y10270517D01*
X4644480Y15351508D02*
X5364494Y15351508D01*
X5364494Y15731517D01*
X4644480Y15731517D01*
X4644480Y15351508D01*
D50*
X3357488Y16691002D03*
X3857487Y8930998D03*
G75*
%LPD*%
D51*
X10652000Y16671800D02*
X10588500Y16735300D01*
D52*
X10652000Y16735300D02*
X10715500Y16671800D01*
D53*
X10779000Y16671800D02*
X10715500Y16735300D01*
D54*
X10779000Y16735300D02*
X10842500Y16671800D01*
D55*
X10906000Y16671800D02*
X10842500Y16735300D01*
X9750300Y16694711D02*
X9750300Y16039315D01*
X9394700Y16039315D01*
X9394700Y16694711D01*
X9750300Y16694711D01*
D56*
X10906000Y16735300D02*
X10969500Y16671800D01*
D57*
X11033000Y16671800D02*
X10969500Y16735300D01*
X10806940Y15273530D02*
X10751060Y15273530D01*
X10857740Y15161770D02*
X10857740Y15095730D01*
X10806940Y14983970D02*
X10751060Y14983970D01*
X10761220Y15006830D02*
X10762566Y15007821D01*
X10763963Y15008735D01*
X10765411Y15009548D01*
X10766884Y15010284D01*
X10768434Y15010945D01*
X10769983Y15011504D01*
X10771583Y15011986D01*
X10773209Y15012367D01*
X10774860Y15012647D01*
X10776511Y15012850D01*
X10778162Y15012951D01*
X10779838Y15012951D01*
X10781489Y15012850D01*
X10783140Y15012647D01*
X10784791Y15012367D01*
X10786417Y15011986D01*
X10788017Y15011504D01*
X10789566Y15010945D01*
X10791116Y15010284D01*
X10792589Y15009548D01*
X10794037Y15008735D01*
X10795434Y15007821D01*
X10796780Y15006830D01*
X10795434Y15007821D01*
X10794037Y15008735D01*
X10792589Y15009548D01*
X10791116Y15010284D01*
X10789566Y15010945D01*
X10788017Y15011504D01*
X10786417Y15011986D01*
X10784791Y15012367D01*
X10783140Y15012647D01*
X10781489Y15012850D01*
X10779838Y15012951D01*
X10778162Y15012951D01*
X10776511Y15012850D01*
X10774860Y15012647D01*
X10773209Y15012367D01*
X10771583Y15011986D01*
X10769983Y15011504D01*
X10768434Y15010945D01*
X10766884Y15010284D01*
X10765411Y15009548D01*
X10763963Y15008735D01*
X10762566Y15007821D01*
X10761220Y15006830D01*
X10516110Y14040360D02*
X10516110Y13979400D01*
X10516110Y14040360D02*
X10490710Y14040360D01*
X10516110Y13801600D02*
X10516110Y13740640D01*
X10490710Y13740640D01*
X10241790Y13740640D02*
X10216390Y13740640D01*
X10216390Y13801600D01*
X10216390Y13979400D02*
X10216390Y14040360D01*
X10241790Y14040360D01*
X9697951Y13981940D02*
X9697951Y13672060D01*
X9511540Y13437008D02*
X9511540Y13387021D01*
X9193049Y13672060D02*
X9193049Y13796520D01*
X9193049Y13857480D01*
X9193049Y13981940D01*
X9193049Y13857480D02*
X9194802Y13857429D01*
X9196529Y13857277D01*
X9198256Y13857023D01*
X9199958Y13856693D01*
X9201635Y13856235D01*
X9203286Y13855702D01*
X9204911Y13855067D01*
X9206486Y13854356D01*
X9208035Y13853543D01*
X9209534Y13852654D01*
X9210956Y13851663D01*
X9212353Y13850597D01*
X9213649Y13849454D01*
X9214919Y13848234D01*
X9216087Y13846964D01*
X9217179Y13845618D01*
X9218221Y13844196D01*
X9219161Y13842748D01*
X9219999Y13841224D01*
X9220786Y13839649D01*
X9221447Y13838049D01*
X9222031Y13836423D01*
X9222539Y13834747D01*
X9222920Y13833045D01*
X9223225Y13831343D01*
X9223428Y13829616D01*
X9223529Y13827864D01*
X9223529Y13826136D01*
X9223428Y13824384D01*
X9223225Y13822657D01*
X9222920Y13820955D01*
X9222539Y13819253D01*
X9222031Y13817577D01*
X9221447Y13815951D01*
X9220786Y13814351D01*
X9219999Y13812776D01*
X9219161Y13811252D01*
X9218221Y13809804D01*
X9217179Y13808382D01*
X9216087Y13807036D01*
X9214919Y13805766D01*
X9213649Y13804546D01*
X9212353Y13803403D01*
X9210956Y13802337D01*
X9209534Y13801346D01*
X9208035Y13800457D01*
X9206486Y13799644D01*
X9204911Y13798933D01*
X9203286Y13798298D01*
X9201635Y13797765D01*
X9199958Y13797307D01*
X9198256Y13796977D01*
X9196529Y13796723D01*
X9194802Y13796571D01*
X9193049Y13796520D01*
X8325360Y13468860D02*
X8325360Y13443460D01*
X8325360Y13468860D02*
X8264400Y13468860D01*
X8086600Y13468860D02*
X8025640Y13468860D01*
X8025640Y13443460D01*
X8025640Y13194540D02*
X8025640Y13169140D01*
X8086600Y13169140D01*
X8264400Y13169140D02*
X8325360Y13169140D01*
X8325360Y13194540D01*
X8325360Y11563860D02*
X8325360Y11538460D01*
X8325360Y11563860D02*
X8264400Y11563860D01*
X8086600Y11563860D02*
X8025640Y11563860D01*
X8025640Y11538460D01*
X8025640Y11289540D02*
X8025640Y11264140D01*
X8086600Y11264140D01*
X8264400Y11264140D02*
X8325360Y11264140D01*
X8325360Y11289540D01*
X8628890Y9849360D02*
X8654290Y9849360D01*
X8628890Y9849360D02*
X8628890Y9788400D01*
X8628890Y9610600D02*
X8628890Y9549640D01*
X8654290Y9549640D01*
X8903210Y9549640D02*
X8928610Y9549640D01*
X8928610Y9610600D01*
X8928610Y9788400D02*
X8928610Y9849360D01*
X8903210Y9849360D01*
X8393940Y8606030D02*
X8338060Y8606030D01*
X8348220Y8583170D02*
X8349566Y8582179D01*
X8350963Y8581265D01*
X8352411Y8580452D01*
X8353884Y8579716D01*
X8355434Y8579055D01*
X8356983Y8578496D01*
X8358583Y8578014D01*
X8360209Y8577633D01*
X8361860Y8577353D01*
X8363511Y8577150D01*
X8365162Y8577049D01*
X8366838Y8577049D01*
X8368489Y8577150D01*
X8370140Y8577353D01*
X8371791Y8577633D01*
X8373417Y8578014D01*
X8375017Y8578496D01*
X8376566Y8579055D01*
X8378116Y8579716D01*
X8379589Y8580452D01*
X8381037Y8581265D01*
X8382434Y8582179D01*
X8383780Y8583170D01*
X8382434Y8582179D01*
X8381037Y8581265D01*
X8379589Y8580452D01*
X8378116Y8579716D01*
X8376566Y8579055D01*
X8375017Y8578496D01*
X8373417Y8578014D01*
X8371791Y8577633D01*
X8370140Y8577353D01*
X8368489Y8577150D01*
X8366838Y8577049D01*
X8365162Y8577049D01*
X8363511Y8577150D01*
X8361860Y8577353D01*
X8360209Y8577633D01*
X8358583Y8578014D01*
X8356983Y8578496D01*
X8355434Y8579055D01*
X8353884Y8579716D01*
X8352411Y8580452D01*
X8350963Y8581265D01*
X8349566Y8582179D01*
X8348220Y8583170D01*
X8287260Y8494270D02*
X8287260Y8428230D01*
X8338060Y8316470D02*
X8393940Y8316470D01*
X7182360Y7944360D02*
X7182360Y7883400D01*
X7182360Y7944360D02*
X7156960Y7944360D01*
X7182360Y7705600D02*
X7182360Y7644640D01*
X7156960Y7644640D01*
X6908040Y7644640D02*
X6882640Y7644640D01*
X6882640Y7705600D01*
X6882640Y7883400D02*
X6882640Y7944360D01*
X6908040Y7944360D01*
X10819640Y10121140D02*
X10819640Y10146540D01*
X10819640Y10121140D02*
X10880600Y10121140D01*
X11058400Y10121140D02*
X11119360Y10121140D01*
X11119360Y10146540D01*
X11119360Y10395460D02*
X11119360Y10420860D01*
X11058400Y10420860D01*
X10880600Y10420860D02*
X10819640Y10420860D01*
X10819640Y10395460D01*
X10819640Y12026140D02*
X10819640Y12051540D01*
X10819640Y12026140D02*
X10880600Y12026140D01*
X11058400Y12026140D02*
X11119360Y12026140D01*
X11119360Y12051540D01*
X11119360Y12300460D02*
X11119360Y12325860D01*
X11058400Y12325860D01*
X10880600Y12325860D02*
X10819640Y12325860D01*
X10819640Y12300460D01*
X9722360Y15391640D02*
X9696960Y15391640D01*
X9722360Y15391640D02*
X9722360Y15452600D01*
X9722360Y15630400D02*
X9722360Y15691360D01*
X9696960Y15691360D01*
X9448040Y15691360D02*
X9422640Y15691360D01*
X9422640Y15630400D01*
X9422640Y15452600D02*
X9422640Y15391640D01*
X9448040Y15391640D01*
X8258990Y15510918D02*
X8258990Y16130907D01*
X8231507Y16158415D01*
X7611493Y16158415D01*
X7584010Y16130907D01*
X7584010Y15510918D01*
X7611493Y15483410D01*
X8231507Y15483410D01*
X8258990Y15510918D01*
X8038340Y16478760D02*
X8015480Y16478760D01*
X7954520Y16478760D01*
X7931660Y16478760D01*
X7931660Y16788640D02*
X8038340Y16788640D01*
X11962640Y7944360D02*
X11988040Y7944360D01*
X11962640Y7944360D02*
X11962640Y7883400D01*
X11962640Y7705600D02*
X11962640Y7644640D01*
X11988040Y7644640D01*
X12236960Y7644640D02*
X12262360Y7644640D01*
X12262360Y7705600D01*
X12262360Y7883400D02*
X12262360Y7944360D01*
X12236960Y7944360D01*
D58*
X12231296Y8003974D02*
X12171987Y8003974D01*
X12171987Y8048475D01*
X12201629Y8033641D01*
X12216462Y8033641D01*
X12231296Y8048475D01*
X12231296Y8078142D01*
X12216462Y8092950D01*
X12186795Y8092950D01*
X12171987Y8078142D01*
X12137748Y8092950D02*
X12078413Y8092950D01*
X12108080Y8092950D02*
X12108080Y8003974D01*
X12078413Y8033641D01*
X12044199Y8003974D02*
X12044199Y8078142D01*
X12029366Y8092950D01*
X11999699Y8092950D01*
X11984865Y8078142D01*
X11984865Y8003974D01*
X12040999Y8430008D02*
X11543997Y8430008D01*
X12268710Y8719339D02*
X12337341Y8719339D01*
X12337341Y8753655D01*
X12325911Y8765085D01*
X12303025Y8765085D01*
X12291595Y8753655D01*
X12291595Y8719339D01*
X12268710Y8794168D02*
X12291595Y8817053D01*
X12268710Y8839939D01*
X12337341Y8839939D01*
X12337341Y8869022D02*
X12337341Y8903337D01*
X12325911Y8914767D01*
X12303025Y8914767D01*
X12291595Y8903337D01*
X12291595Y8869022D01*
X12291595Y8891907D02*
X12268710Y8914767D01*
X12303025Y8943850D02*
X12303025Y8989621D01*
X12314455Y9018704D02*
X12303025Y9030134D01*
X12303025Y9053019D01*
X12291595Y9064449D01*
X12280140Y9064449D01*
X12268710Y9053019D01*
X12268710Y9030134D01*
X12280140Y9018704D01*
X12314455Y9018704D02*
X12325911Y9018704D01*
X12337341Y9030134D01*
X12337341Y9053019D01*
X12325911Y9064449D01*
X12337341Y9093532D02*
X12268710Y9093532D01*
X12291595Y9116418D01*
X12268710Y9139303D01*
X12337341Y9139303D01*
X12337341Y8869022D02*
X12268710Y8869022D01*
X12268710Y8794168D02*
X12337341Y8794168D01*
X12040999Y9446008D02*
X11543997Y9446008D01*
X11495077Y9505012D02*
X12095076Y9505012D01*
X12095076Y9785022D01*
X12045088Y9785022D01*
X12044987Y9785022D02*
X12044987Y9800008D01*
X11995000Y9800008D02*
X11995000Y9554999D01*
X11995076Y9554999D01*
X11995000Y9554999D02*
X11745089Y9554999D01*
X11745089Y9615020D01*
X11595077Y9615020D01*
X11595000Y9615020D02*
X11595000Y9800008D01*
X11544988Y9800008D02*
X11544988Y9785022D01*
X11495077Y9785022D01*
X11495077Y9505012D01*
X11544988Y9785022D02*
X11545089Y9785022D01*
X11745089Y9785022D02*
X11845089Y9785022D01*
X11845089Y13805004D01*
X11745089Y13805004D01*
X11745089Y9785022D01*
X11088296Y10480474D02*
X11088296Y10495307D01*
X11028987Y10554642D01*
X11028987Y10569450D01*
X10994748Y10569450D02*
X10935413Y10569450D01*
X10965080Y10569450D02*
X10965080Y10480474D01*
X10935413Y10510141D01*
X10901199Y10480474D02*
X10901199Y10554642D01*
X10886366Y10569450D01*
X10856699Y10569450D01*
X10841865Y10554642D01*
X10841865Y10480474D01*
X11028987Y10480474D02*
X11088296Y10480474D01*
X11073462Y12385474D02*
X11088296Y12400307D01*
X11088296Y12459642D01*
X11073462Y12474450D01*
X11043795Y12474450D01*
X11028987Y12459642D01*
X11043795Y12429975D02*
X11088296Y12429975D01*
X11043795Y12429975D02*
X11028987Y12415141D01*
X11028987Y12400307D01*
X11043795Y12385474D01*
X11073462Y12385474D01*
X10965080Y12385474D02*
X10965080Y12474450D01*
X10935413Y12474450D02*
X10994748Y12474450D01*
X10935413Y12415141D02*
X10965080Y12385474D01*
X10901199Y12385474D02*
X10901199Y12459642D01*
X10886366Y12474450D01*
X10856699Y12474450D01*
X10841865Y12459642D01*
X10841865Y12385474D01*
X10163126Y13762890D02*
X10088984Y13762890D01*
X10074150Y13777699D01*
X10074150Y13807366D01*
X10088984Y13822199D01*
X10163126Y13822199D01*
X10148293Y13856439D02*
X10163126Y13871272D01*
X10163126Y13900914D01*
X10148293Y13915748D01*
X10133459Y13915748D01*
X10074150Y13856439D01*
X10074150Y13915748D01*
X10074150Y13949987D02*
X10074150Y14009296D01*
X10074150Y13979654D02*
X10163126Y13979654D01*
X10133459Y13949987D01*
X9134426Y13952146D02*
X9134426Y13892837D01*
X9119593Y13858598D02*
X9134426Y13843764D01*
X9134426Y13814122D01*
X9119593Y13799289D01*
X9134426Y13765049D02*
X9060284Y13765049D01*
X9045450Y13750216D01*
X9045450Y13720549D01*
X9060284Y13705740D01*
X9134426Y13705740D01*
X9045450Y13799289D02*
X9104759Y13858598D01*
X9119593Y13858598D01*
X9060284Y13892837D02*
X9045450Y13892837D01*
X9060284Y13892837D02*
X9119593Y13952146D01*
X9134426Y13952146D01*
X9045450Y13858598D02*
X9045450Y13799289D01*
X8300646Y13094642D02*
X8285812Y13109450D01*
X8256145Y13109450D01*
X8241337Y13094642D01*
X8300646Y13035307D01*
X8300646Y13094642D01*
X8241337Y13094642D02*
X8241337Y13035307D01*
X8256145Y13020474D01*
X8285812Y13020474D01*
X8300646Y13035307D01*
X8207098Y13035307D02*
X8192264Y13020474D01*
X8162597Y13020474D01*
X8147763Y13035307D01*
X8113549Y13020474D02*
X8113549Y13094642D01*
X8098716Y13109450D01*
X8069049Y13109450D01*
X8054215Y13094642D01*
X8054215Y13020474D01*
X8147763Y13109450D02*
X8207098Y13050141D01*
X8207098Y13035307D01*
X8207098Y13109450D02*
X8147763Y13109450D01*
X7649923Y13805004D02*
X7649923Y14085013D01*
X7049924Y14085013D01*
X7049924Y13805004D01*
X7099912Y13805004D01*
X7099988Y13805004D02*
X7099988Y13790018D01*
X7150000Y13790018D02*
X7150000Y13975006D01*
X7149924Y13975006D01*
X7150000Y13975006D02*
X7299911Y13975006D01*
X7299911Y14035001D01*
X7549923Y14035001D01*
X7550000Y14035001D02*
X7550000Y13790018D01*
X7599987Y13790018D02*
X7599987Y13805004D01*
X7649923Y13805004D01*
X7599987Y13805004D02*
X7599911Y13805004D01*
X7399911Y13805004D02*
X7299911Y13805004D01*
X7299911Y9785022D01*
X7399911Y9785022D01*
X7399911Y13805004D01*
X7601003Y14144017D02*
X7104001Y14144017D01*
X7092495Y14035001D02*
X7092495Y13995021D01*
X7132500Y14015011D01*
X7092495Y14035001D01*
X6876341Y14434339D02*
X6876341Y14468655D01*
X6864911Y14480085D01*
X6842025Y14480085D01*
X6830595Y14468655D01*
X6830595Y14434339D01*
X6807710Y14434339D02*
X6876341Y14434339D01*
X6876341Y14509168D02*
X6807710Y14509168D01*
X6830595Y14532053D01*
X6807710Y14554939D01*
X6876341Y14554939D01*
X6876341Y14584022D02*
X6876341Y14618337D01*
X6864911Y14629767D01*
X6842025Y14629767D01*
X6830595Y14618337D01*
X6830595Y14584022D01*
X6830595Y14606907D02*
X6807710Y14629767D01*
X6842025Y14658850D02*
X6842025Y14704621D01*
X6807710Y14733704D02*
X6876341Y14733704D01*
X6807710Y14779449D01*
X6876341Y14779449D01*
X6876341Y14808532D02*
X6807710Y14808532D01*
X6807710Y14854303D01*
X6842025Y14831418D02*
X6842025Y14808532D01*
X6876341Y14808532D02*
X6876341Y14854303D01*
X6876341Y14584022D02*
X6807710Y14584022D01*
X7104001Y15160017D02*
X7601003Y15160017D01*
X7559626Y15301902D02*
X7485484Y15301902D01*
X7470650Y15316735D01*
X7470650Y15346403D01*
X7485484Y15361236D01*
X7559626Y15361236D01*
X7529959Y15395450D02*
X7559626Y15425117D01*
X7470650Y15425117D01*
X7470650Y15395450D02*
X7470650Y15454784D01*
X8342607Y16207005D02*
X8592593Y16207005D01*
X8592593Y16527020D01*
X8342607Y16527020D01*
X8342607Y16207005D01*
X8941488Y15395526D02*
X8926654Y15380718D01*
X8985963Y15321384D01*
X8971155Y15306550D01*
X8941488Y15306550D01*
X8926654Y15321384D01*
X8926654Y15380718D01*
X8941488Y15395526D02*
X8971155Y15395526D01*
X8985963Y15380718D01*
X8985963Y15321384D01*
X9020202Y15321384D02*
X9035036Y15306550D01*
X9064703Y15306550D01*
X9079537Y15321384D01*
X9113751Y15321384D02*
X9113751Y15395526D01*
X9079537Y15380718D02*
X9064703Y15395526D01*
X9035036Y15395526D01*
X9020202Y15380718D01*
X9020202Y15365884D01*
X9035036Y15351051D01*
X9020202Y15336217D01*
X9020202Y15321384D01*
X9035036Y15351051D02*
X9049870Y15351051D01*
X9113751Y15321384D02*
X9128584Y15306550D01*
X9158251Y15306550D01*
X9173085Y15321384D01*
X9173085Y15395526D01*
X9460054Y15776450D02*
X9519363Y15776450D01*
X9460054Y15835784D01*
X9460054Y15850618D01*
X9474888Y15865426D01*
X9504555Y15865426D01*
X9519363Y15850618D01*
X9553602Y15850618D02*
X9568436Y15865426D01*
X9598103Y15865426D01*
X9612937Y15850618D01*
X9647151Y15865426D02*
X9647151Y15791284D01*
X9661984Y15776450D01*
X9691651Y15776450D01*
X9706485Y15791284D01*
X9706485Y15865426D01*
X9612937Y15776450D02*
X9553602Y15835784D01*
X9553602Y15850618D01*
X9553602Y15776450D02*
X9612937Y15776450D01*
X9077276Y16245740D02*
X9003134Y16245740D01*
X8988300Y16260549D01*
X8988300Y16290216D01*
X9003134Y16305049D01*
X9077276Y16305049D01*
X9062443Y16339289D02*
X9077276Y16354122D01*
X9077276Y16383764D01*
X9062443Y16398598D01*
X9047609Y16398598D01*
X8988300Y16339289D01*
X8988300Y16398598D01*
X9003134Y16432837D02*
X8988300Y16447670D01*
X8988300Y16477312D01*
X9003134Y16492146D01*
X9017967Y16492146D01*
X9032775Y16477312D01*
X9032775Y16432837D01*
X9003134Y16432837D01*
X9032775Y16432837D02*
X9062443Y16462504D01*
X9077276Y16492146D01*
X11033000Y16735300D02*
X11096500Y16671800D01*
X11549001Y15160017D02*
X12046003Y15160017D01*
X12268710Y14854303D02*
X12268710Y14808532D01*
X12337341Y14808532D01*
X12337341Y14854303D01*
X12303025Y14831418D02*
X12303025Y14808532D01*
X12291595Y14779449D02*
X12280140Y14779449D01*
X12268710Y14768019D01*
X12268710Y14745134D01*
X12280140Y14733704D01*
X12303025Y14745134D02*
X12303025Y14768019D01*
X12291595Y14779449D01*
X12325911Y14779449D02*
X12337341Y14768019D01*
X12337341Y14745134D01*
X12325911Y14733704D01*
X12314455Y14733704D01*
X12303025Y14745134D01*
X12303025Y14704621D02*
X12303025Y14658850D01*
X12303025Y14629767D02*
X12291595Y14618337D01*
X12291595Y14584022D01*
X12291595Y14606907D02*
X12268710Y14629767D01*
X12303025Y14629767D02*
X12325911Y14629767D01*
X12337341Y14618337D01*
X12337341Y14584022D01*
X12268710Y14584022D01*
X12268710Y14554939D02*
X12337341Y14554939D01*
X12337341Y14509168D02*
X12268710Y14509168D01*
X12291595Y14532053D01*
X12268710Y14554939D01*
X12303025Y14480085D02*
X12291595Y14468655D01*
X12291595Y14434339D01*
X12268710Y14434339D02*
X12337341Y14434339D01*
X12337341Y14468655D01*
X12325911Y14480085D01*
X12303025Y14480085D01*
X12046003Y14144017D02*
X11549001Y14144017D01*
X11495077Y14085013D02*
X11495077Y13805004D01*
X11544988Y13805004D01*
X11544988Y13790018D01*
X11544988Y13805004D02*
X11545089Y13805004D01*
X11595000Y13790018D02*
X11595000Y13975006D01*
X11595077Y13975006D02*
X11745089Y13975006D01*
X11745089Y14035001D01*
X11995000Y14035001D01*
X11995000Y13790018D01*
X12044987Y13790018D02*
X12044987Y13805004D01*
X12045088Y13805004D02*
X12095076Y13805004D01*
X12095076Y14085013D01*
X11495077Y14085013D01*
X11532491Y14035001D02*
X11532491Y13995021D01*
X11572496Y14015011D01*
X11532491Y14035001D01*
X11995000Y14035001D02*
X11995076Y14035001D01*
X9077276Y9818296D02*
X9062443Y9788654D01*
X9032775Y9758987D01*
X9032775Y9803462D01*
X9017967Y9818296D01*
X9003134Y9818296D01*
X8988300Y9803462D01*
X8988300Y9773820D01*
X9003134Y9758987D01*
X9032775Y9758987D01*
X8988300Y9724748D02*
X8988300Y9665439D01*
X8988300Y9695080D02*
X9077276Y9695080D01*
X9047609Y9665439D01*
X9077276Y9631199D02*
X9003134Y9631199D01*
X8988300Y9616366D01*
X8988300Y9586699D01*
X9003134Y9571890D01*
X9077276Y9571890D01*
X8279462Y11115474D02*
X8294296Y11130307D01*
X8294296Y11145141D01*
X8279462Y11159975D01*
X8249795Y11159975D01*
X8234987Y11145141D01*
X8234987Y11130307D01*
X8249795Y11115474D01*
X8279462Y11115474D01*
X8279462Y11159975D02*
X8294296Y11174808D01*
X8294296Y11189642D01*
X8279462Y11204450D01*
X8249795Y11204450D01*
X8234987Y11189642D01*
X8234987Y11174808D01*
X8249795Y11159975D01*
X8200748Y11204450D02*
X8141413Y11204450D01*
X8171080Y11204450D02*
X8171080Y11115474D01*
X8141413Y11145141D01*
X8107199Y11115474D02*
X8107199Y11189642D01*
X8092366Y11204450D01*
X8062699Y11204450D01*
X8047865Y11189642D01*
X8047865Y11115474D01*
X7649923Y9785022D02*
X7599987Y9785022D01*
X7599987Y9800008D01*
X7599987Y9785022D02*
X7599911Y9785022D01*
X7649923Y9785022D02*
X7649923Y9505012D01*
X7049924Y9505012D01*
X7049924Y9785022D01*
X7099912Y9785022D01*
X7099988Y9785022D02*
X7099988Y9800008D01*
X7150000Y9800008D02*
X7150000Y9615020D01*
X7299911Y9615020D01*
X7299911Y9554999D01*
X7549923Y9554999D01*
X7550000Y9554999D02*
X7550000Y9800008D01*
X7595999Y9446008D02*
X7098997Y9446008D01*
X7149924Y9615020D02*
X7150000Y9615020D01*
X6876341Y9139303D02*
X6807710Y9139303D01*
X6830595Y9116418D01*
X6807710Y9093532D01*
X6876341Y9093532D01*
X6876341Y9064449D02*
X6807710Y9064449D01*
X6876341Y9018704D01*
X6807710Y9018704D01*
X6842025Y8989621D02*
X6842025Y8943850D01*
X6842025Y8914767D02*
X6830595Y8903337D01*
X6830595Y8869022D01*
X6830595Y8891907D02*
X6807710Y8914767D01*
X6842025Y8914767D02*
X6864911Y8914767D01*
X6876341Y8903337D01*
X6876341Y8869022D01*
X6807710Y8869022D01*
X6807710Y8839939D02*
X6876341Y8839939D01*
X6876341Y8794168D02*
X6807710Y8794168D01*
X6830595Y8817053D01*
X6807710Y8839939D01*
X6842025Y8765085D02*
X6830595Y8753655D01*
X6830595Y8719339D01*
X6807710Y8719339D02*
X6876341Y8719339D01*
X6876341Y8753655D01*
X6864911Y8765085D01*
X6842025Y8765085D01*
X7098997Y8430008D02*
X7595999Y8430008D01*
X7136462Y7584950D02*
X7136462Y7495974D01*
X7091987Y7540475D01*
X7151296Y7540475D01*
X7057748Y7584950D02*
X6998413Y7584950D01*
X7028080Y7584950D02*
X7028080Y7495974D01*
X6998413Y7525641D01*
X6964199Y7495974D02*
X6964199Y7570142D01*
X6949366Y7584950D01*
X6919699Y7584950D01*
X6904865Y7570142D01*
X6904865Y7495974D01*
D59*
X7339840Y7884187D02*
X7411011Y7884187D01*
X7411011Y7919773D01*
X7399149Y7931635D01*
X7375425Y7931635D01*
X7363564Y7919773D01*
X7363564Y7884187D01*
X7363564Y7907911D02*
X7339840Y7931635D01*
X7351702Y7959016D02*
X7339840Y7970878D01*
X7339840Y7994601D01*
X7351702Y8006463D01*
X7363564Y8006463D01*
X7375425Y7994601D01*
X7375425Y7959016D01*
X7351702Y7959016D01*
X7375425Y7959016D02*
X7399149Y7982739D01*
X7411011Y8006463D01*
X7399149Y8033870D02*
X7411011Y8045731D01*
X7411011Y8069455D01*
X7399149Y8081317D01*
X7387287Y8081317D01*
X7339840Y8033870D01*
X7339840Y8081317D01*
X7339840Y8138187D02*
X7411011Y8138187D01*
X7411011Y8173773D01*
X7399149Y8185635D01*
X7375425Y8185635D01*
X7363564Y8173773D01*
X7363564Y8138187D01*
X7363564Y8161911D02*
X7339840Y8185635D01*
X7351702Y8213016D02*
X7339840Y8224878D01*
X7339840Y8248601D01*
X7351702Y8260463D01*
X7363564Y8260463D01*
X7375425Y8248601D01*
X7375425Y8213016D01*
X7351702Y8213016D01*
X7375425Y8213016D02*
X7399149Y8236739D01*
X7411011Y8260463D01*
X7387287Y8287870D02*
X7411011Y8311593D01*
X7339840Y8311593D01*
X7339840Y8287870D02*
X7339840Y8335317D01*
X8265162Y8262698D02*
X8265162Y8215251D01*
X8277024Y8203389D01*
X8300747Y8203389D01*
X8312609Y8215251D01*
X8340016Y8203389D02*
X8387463Y8274560D01*
X8387463Y8203389D01*
X8414844Y8203389D02*
X8414844Y8274560D01*
X8438568Y8250836D01*
X8462291Y8274560D01*
X8462291Y8203389D01*
X8340016Y8203389D02*
X8340016Y8274560D01*
X8312609Y8262698D02*
X8300747Y8274560D01*
X8277024Y8274560D01*
X8265162Y8262698D01*
X7893001Y9689289D02*
X7904863Y9701151D01*
X7904863Y9724875D01*
X7893001Y9736736D01*
X7857416Y9736736D01*
X7857416Y9760460D02*
X7857416Y9689289D01*
X7893001Y9689289D01*
X7932244Y9724875D02*
X7979691Y9724875D01*
X7830009Y9736736D02*
X7830009Y9689289D01*
X7782562Y9689289D02*
X7782562Y9736736D01*
X7806286Y9760460D01*
X7830009Y9736736D01*
X8004812Y10006789D02*
X8004812Y10054236D01*
X8028536Y10077960D01*
X8052259Y10054236D01*
X8052259Y10006789D01*
X8079666Y10006789D02*
X8115251Y10006789D01*
X8127113Y10018651D01*
X8127113Y10042375D01*
X8115251Y10054236D01*
X8079666Y10054236D01*
X8079666Y10077960D02*
X8079666Y10006789D01*
X8154494Y10042375D02*
X8201941Y10042375D01*
X8178218Y10018651D02*
X8178218Y10066098D01*
X8385812Y13283389D02*
X8421397Y13283389D01*
X8433259Y13295251D01*
X8433259Y13318975D01*
X8421397Y13330836D01*
X8385812Y13330836D01*
X8409536Y13330836D02*
X8433259Y13354560D01*
X8460666Y13354560D02*
X8460666Y13342698D01*
X8508113Y13295251D01*
X8508113Y13283389D01*
X8460666Y13283389D01*
X8385812Y13283389D02*
X8385812Y13354560D01*
X8535494Y13318975D02*
X8582941Y13318975D01*
X8571080Y13283389D02*
X8535494Y13318975D01*
X8571080Y13354560D02*
X8571080Y13283389D01*
X7237580Y15385239D02*
X7249441Y15397101D01*
X7201994Y15444548D01*
X7213856Y15456410D01*
X7237580Y15456410D01*
X7249441Y15444548D01*
X7249441Y15397101D01*
X7237580Y15385239D02*
X7213856Y15385239D01*
X7201994Y15397101D01*
X7201994Y15444548D01*
X7174613Y15420825D02*
X7162751Y15432686D01*
X7127166Y15432686D01*
X7127166Y15456410D02*
X7127166Y15385239D01*
X7162751Y15385239D01*
X7174613Y15397101D01*
X7174613Y15420825D01*
X7099759Y15385239D02*
X7052312Y15385239D01*
X7076036Y15385239D02*
X7076036Y15456410D01*
X7076036Y15601139D02*
X7076036Y15672310D01*
X7127166Y15672310D02*
X7127166Y15601139D01*
X7162751Y15601139D01*
X7174613Y15613001D01*
X7174613Y15636725D01*
X7162751Y15648586D01*
X7127166Y15648586D01*
X7099759Y15601139D02*
X7052312Y15601139D01*
X7201994Y15624863D02*
X7225718Y15601139D01*
X7225718Y15672310D01*
X7201994Y15672310D02*
X7249441Y15672310D01*
X7237580Y15823389D02*
X7213856Y15823389D01*
X7201994Y15835251D01*
X7174613Y15835251D02*
X7174613Y15858975D01*
X7162751Y15870836D01*
X7127166Y15870836D01*
X7127166Y15894560D02*
X7127166Y15823389D01*
X7162751Y15823389D01*
X7174613Y15835251D01*
X7237580Y15823389D02*
X7249441Y15835251D01*
X7249441Y15847113D01*
X7201994Y15894560D01*
X7249441Y15894560D01*
X7237580Y16045639D02*
X7249441Y16057501D01*
X7249441Y16069363D01*
X7237580Y16081225D01*
X7249441Y16093086D01*
X7249441Y16104948D01*
X7237580Y16116810D01*
X7213856Y16116810D01*
X7201994Y16104948D01*
X7225718Y16081225D02*
X7237580Y16081225D01*
X7237580Y16045639D02*
X7213856Y16045639D01*
X7201994Y16057501D01*
X7174613Y16057501D02*
X7174613Y16081225D01*
X7162751Y16093086D01*
X7127166Y16093086D01*
X7127166Y16116810D02*
X7127166Y16045639D01*
X7162751Y16045639D01*
X7174613Y16057501D01*
X7099759Y16045639D02*
X7052312Y16045639D01*
X7076036Y16045639D02*
X7076036Y16116810D01*
X7076036Y15894560D02*
X7076036Y15823389D01*
X7052312Y15823389D02*
X7099759Y15823389D01*
X7919036Y16361869D02*
X7919036Y16421178D01*
X7930898Y16433040D01*
X7954647Y16433040D01*
X7966509Y16421178D01*
X7966509Y16361869D01*
X7993890Y16373731D02*
X8005752Y16361869D01*
X8029475Y16361869D01*
X8041337Y16373731D01*
X8041337Y16385593D01*
X7993890Y16433040D01*
X8041337Y16433040D01*
X10201912Y16698851D02*
X10201912Y16746298D01*
X10213774Y16758160D01*
X10237497Y16758160D01*
X10249359Y16746298D01*
X10276766Y16746298D02*
X10276766Y16734436D01*
X10288628Y16722575D01*
X10312351Y16722575D01*
X10324213Y16734436D01*
X10324213Y16746298D01*
X10312351Y16758160D01*
X10288628Y16758160D01*
X10276766Y16746298D01*
X10288628Y16722575D02*
X10276766Y16710713D01*
X10276766Y16698851D01*
X10288628Y16686989D01*
X10312351Y16686989D01*
X10324213Y16698851D01*
X10324213Y16710713D01*
X10312351Y16722575D01*
X10351594Y16722575D02*
X10399041Y16722575D01*
X10387180Y16686989D02*
X10351594Y16722575D01*
X10387180Y16758160D02*
X10387180Y16686989D01*
X10249359Y16698851D02*
X10237497Y16686989D01*
X10213774Y16686989D01*
X10201912Y16698851D01*
X10521673Y16360193D02*
X10592869Y16360193D01*
X10592869Y16312746D01*
X10592869Y16285339D02*
X10592869Y16237892D01*
X10592869Y16261615D02*
X10521673Y16261615D01*
X10545396Y16285339D01*
X10545396Y16210511D02*
X10533534Y16210511D01*
X10521673Y16198649D01*
X10521673Y16174925D01*
X10533534Y16163063D01*
X10545396Y16163063D01*
X10557258Y16174925D01*
X10557258Y16198649D01*
X10545396Y16210511D01*
X10557258Y16198649D02*
X10569120Y16210511D01*
X10581007Y16210511D01*
X10592869Y16198649D01*
X10592869Y16174925D01*
X10581007Y16163063D01*
X10569120Y16163063D01*
X10557258Y16174925D01*
X10399041Y16035098D02*
X10387180Y16046960D01*
X10363456Y16046960D01*
X10351594Y16035098D01*
X10324213Y16035098D02*
X10312351Y16046960D01*
X10288628Y16046960D01*
X10276766Y16035098D01*
X10276766Y16023236D01*
X10288628Y16011375D01*
X10312351Y16011375D01*
X10324213Y16023236D01*
X10324213Y16035098D01*
X10312351Y16011375D02*
X10324213Y15999513D01*
X10324213Y15987651D01*
X10312351Y15975789D01*
X10288628Y15975789D01*
X10276766Y15987651D01*
X10276766Y15999513D01*
X10288628Y16011375D01*
X10249359Y15987651D02*
X10237497Y15975789D01*
X10213774Y15975789D01*
X10201912Y15987651D01*
X10201912Y16035098D01*
X10213774Y16046960D01*
X10237497Y16046960D01*
X10249359Y16035098D01*
X10351594Y15987651D02*
X10363456Y15975789D01*
X10387180Y15975789D01*
X10399041Y15987651D01*
X10399041Y15999513D01*
X10387180Y16011375D01*
X10399041Y16023236D01*
X10399041Y16035098D01*
X10387180Y16011375D02*
X10375318Y16011375D01*
X10690024Y15386560D02*
X10713747Y15386560D01*
X10725609Y15374698D01*
X10753016Y15374698D02*
X10764878Y15386560D01*
X10788601Y15386560D01*
X10800463Y15374698D01*
X10800463Y15362836D01*
X10788601Y15350975D01*
X10764878Y15350975D01*
X10753016Y15339113D01*
X10753016Y15327251D01*
X10764878Y15315389D01*
X10788601Y15315389D01*
X10800463Y15327251D01*
X10827844Y15315389D02*
X10827844Y15386560D01*
X10875291Y15386560D01*
X10851568Y15350975D02*
X10827844Y15350975D01*
X10827844Y15315389D02*
X10875291Y15315389D01*
X10725609Y15327251D02*
X10713747Y15315389D01*
X10690024Y15315389D01*
X10678162Y15327251D01*
X10678162Y15374698D01*
X10690024Y15386560D01*
X11568940Y15776399D02*
X11568940Y15800123D01*
X11580802Y15811985D01*
X11640111Y15811985D01*
X11628249Y15839366D02*
X11640111Y15851228D01*
X11640111Y15874951D01*
X11628249Y15886813D01*
X11616387Y15886813D01*
X11568940Y15839366D01*
X11568940Y15886813D01*
X11580802Y15914220D02*
X11592664Y15914220D01*
X11604525Y15926081D01*
X11604525Y15949805D01*
X11592664Y15961667D01*
X11580802Y15961667D01*
X11568940Y15949805D01*
X11568940Y15926081D01*
X11580802Y15914220D01*
X11604525Y15926081D02*
X11616387Y15914220D01*
X11628249Y15914220D01*
X11640111Y15926081D01*
X11640111Y15949805D01*
X11628249Y15961667D01*
X11616387Y15961667D01*
X11604525Y15949805D01*
X11568940Y15776399D02*
X11580802Y15764537D01*
X11640111Y15764537D01*
X11160000Y16671800D02*
X11096500Y16735300D01*
X11726852Y8335317D02*
X11738714Y8335317D01*
X11750575Y8323455D01*
X11750575Y8287870D01*
X11726852Y8287870D01*
X11714990Y8299731D01*
X11714990Y8323455D01*
X11726852Y8335317D01*
X11774299Y8311593D02*
X11750575Y8287870D01*
X11750575Y8260463D02*
X11726852Y8260463D01*
X11714990Y8248601D01*
X11714990Y8224878D01*
X11726852Y8213016D01*
X11750575Y8213016D02*
X11762437Y8236739D01*
X11762437Y8248601D01*
X11750575Y8260463D01*
X11786161Y8260463D02*
X11786161Y8213016D01*
X11750575Y8213016D01*
X11750575Y8185635D02*
X11738714Y8173773D01*
X11738714Y8138187D01*
X11738714Y8161911D02*
X11714990Y8185635D01*
X11750575Y8185635D02*
X11774299Y8185635D01*
X11786161Y8173773D01*
X11786161Y8138187D01*
X11714990Y8138187D01*
X11726852Y8081317D02*
X11714990Y8069455D01*
X11714990Y8045731D01*
X11726852Y8033870D01*
X11750575Y8033870D02*
X11762437Y8057593D01*
X11762437Y8069455D01*
X11750575Y8081317D01*
X11726852Y8081317D01*
X11750575Y8033870D02*
X11786161Y8033870D01*
X11786161Y8081317D01*
X11786161Y8006463D02*
X11786161Y7959016D01*
X11750575Y7959016D01*
X11762437Y7982739D01*
X11762437Y7994601D01*
X11750575Y8006463D01*
X11726852Y8006463D01*
X11714990Y7994601D01*
X11714990Y7970878D01*
X11726852Y7959016D01*
X11714990Y7931635D02*
X11738714Y7907911D01*
X11738714Y7919773D02*
X11738714Y7884187D01*
X11714990Y7884187D02*
X11786161Y7884187D01*
X11786161Y7919773D01*
X11774299Y7931635D01*
X11750575Y7931635D01*
X11738714Y7919773D01*
X11774299Y8311593D02*
X11786161Y8335317D01*
D60*
X11821670Y7684188D02*
X11812780Y7675272D01*
X11812780Y7657492D01*
X11821670Y7648577D01*
X11821670Y7628054D02*
X11812780Y7619138D01*
X11812780Y7601358D01*
X11821670Y7592443D01*
X11830585Y7592443D01*
X11839475Y7601358D01*
X11839475Y7619138D01*
X11830585Y7628054D01*
X11821670Y7628054D01*
X11839475Y7619138D02*
X11848365Y7628054D01*
X11857255Y7628054D01*
X11866171Y7619138D01*
X11866171Y7601358D01*
X11857255Y7592443D01*
X11848365Y7592443D01*
X11839475Y7601358D01*
X11839475Y7571920D02*
X11830585Y7563004D01*
X11830585Y7536334D01*
X11830585Y7554114D02*
X11812780Y7571920D01*
X11839475Y7571920D02*
X11857255Y7571920D01*
X11866171Y7563004D01*
X11866171Y7536334D01*
X11812780Y7536334D01*
X11857255Y7648577D02*
X11866171Y7657492D01*
X11866171Y7675272D01*
X11857255Y7684188D01*
X11848365Y7684188D01*
X11839475Y7675272D01*
X11830585Y7684188D01*
X11821670Y7684188D01*
X11839475Y7675272D02*
X11839475Y7666382D01*
X11256672Y8612355D02*
X11238867Y8612355D01*
X11229977Y8621245D01*
X11229977Y8630135D01*
X11238867Y8639025D01*
X11265562Y8639025D01*
X11265562Y8621245D02*
X11265562Y8656830D01*
X11256672Y8665720D01*
X11238867Y8665720D01*
X11229977Y8656830D01*
X11209428Y8665720D02*
X11173843Y8665720D01*
X11209428Y8630135D01*
X11209428Y8621245D01*
X11200538Y8612355D01*
X11182733Y8612355D01*
X11173843Y8621245D01*
X11153294Y8621245D02*
X11144404Y8612355D01*
X11126599Y8612355D01*
X11117709Y8621245D01*
X11117709Y8656830D01*
X11126599Y8665720D01*
X11144404Y8665720D01*
X11153294Y8656830D01*
X11144404Y8701255D02*
X11126599Y8701255D01*
X11117709Y8710145D01*
X11117709Y8745730D01*
X11126599Y8754620D01*
X11144404Y8754620D01*
X11153294Y8745730D01*
X11173843Y8754620D02*
X11209428Y8719035D01*
X11209428Y8710145D01*
X11200538Y8701255D01*
X11182733Y8701255D01*
X11173843Y8710145D01*
X11153294Y8710145D02*
X11144404Y8701255D01*
X11173843Y8754620D02*
X11209428Y8754620D01*
X11229977Y8745730D02*
X11229977Y8736840D01*
X11238867Y8727925D01*
X11256672Y8727925D01*
X11265562Y8736840D01*
X11265562Y8745730D01*
X11256672Y8754620D01*
X11238867Y8754620D01*
X11229977Y8745730D01*
X11238867Y8727925D02*
X11229977Y8719035D01*
X11229977Y8710145D01*
X11238867Y8701255D01*
X11256672Y8701255D01*
X11265562Y8710145D01*
X11265562Y8719035D01*
X11256672Y8727925D01*
X11265562Y8621245D02*
X11256672Y8612355D01*
X10821062Y8612355D02*
X10803257Y8621245D01*
X10785477Y8639025D01*
X10812172Y8639025D01*
X10821062Y8647940D01*
X10821062Y8656830D01*
X10812172Y8665720D01*
X10794367Y8665720D01*
X10785477Y8656830D01*
X10785477Y8639025D01*
X10764928Y8630135D02*
X10729343Y8665720D01*
X10764928Y8665720D01*
X10764928Y8630135D02*
X10764928Y8621245D01*
X10756038Y8612355D01*
X10738233Y8612355D01*
X10729343Y8621245D01*
X10708794Y8621245D02*
X10699904Y8612355D01*
X10682099Y8612355D01*
X10673209Y8621245D01*
X10673209Y8656830D01*
X10682099Y8665720D01*
X10699904Y8665720D01*
X10708794Y8656830D01*
X10699904Y8701255D02*
X10682099Y8701255D01*
X10673209Y8710145D01*
X10673209Y8745730D01*
X10682099Y8754620D01*
X10699904Y8754620D01*
X10708794Y8745730D01*
X10729343Y8754620D02*
X10764928Y8719035D01*
X10764928Y8710145D01*
X10756038Y8701255D01*
X10738233Y8701255D01*
X10729343Y8710145D01*
X10708794Y8710145D02*
X10699904Y8701255D01*
X10729343Y8754620D02*
X10764928Y8754620D01*
X10785477Y8745730D02*
X10794367Y8754620D01*
X10812172Y8754620D01*
X10821062Y8745730D01*
X10821062Y8727925D01*
X10812172Y8719035D01*
X10803257Y8719035D01*
X10785477Y8727925D01*
X10785477Y8701255D01*
X10821062Y8701255D01*
X10424721Y8704988D02*
X10415805Y8713904D01*
X10406915Y8713904D01*
X10398025Y8704988D01*
X10398025Y8687208D01*
X10406915Y8678293D01*
X10415805Y8678293D01*
X10424721Y8687208D01*
X10424721Y8704988D01*
X10398025Y8704988D02*
X10389135Y8713904D01*
X10380220Y8713904D01*
X10371330Y8704988D01*
X10371330Y8687208D01*
X10380220Y8678293D01*
X10389135Y8678293D01*
X10398025Y8687208D01*
X10415805Y8657770D02*
X10424721Y8648854D01*
X10424721Y8631074D01*
X10415805Y8622184D01*
X10380220Y8622184D01*
X10371330Y8631074D01*
X10371330Y8648854D01*
X10380220Y8657770D01*
X10380220Y8734427D02*
X10371330Y8734427D01*
X10380220Y8734427D02*
X10415805Y8770038D01*
X10424721Y8770038D01*
X10424721Y8734427D01*
X10011971Y8704988D02*
X10003055Y8713904D01*
X9994165Y8713904D01*
X9985275Y8704988D01*
X9985275Y8687208D01*
X9994165Y8678293D01*
X10003055Y8678293D01*
X10011971Y8687208D01*
X10011971Y8704988D01*
X9985275Y8704988D02*
X9976385Y8713904D01*
X9967470Y8713904D01*
X9958580Y8704988D01*
X9958580Y8687208D01*
X9967470Y8678293D01*
X9976385Y8678293D01*
X9985275Y8687208D01*
X9985275Y8657770D02*
X9976385Y8648854D01*
X9976385Y8622184D01*
X9976385Y8639964D02*
X9958580Y8657770D01*
X9985275Y8657770D02*
X10003055Y8657770D01*
X10011971Y8648854D01*
X10011971Y8622184D01*
X9958580Y8622184D01*
X9916721Y8622184D02*
X9916721Y8648854D01*
X9907805Y8657770D01*
X9890025Y8657770D01*
X9881135Y8648854D01*
X9881135Y8622184D01*
X9881135Y8639964D02*
X9863330Y8657770D01*
X9872220Y8678293D02*
X9881135Y8678293D01*
X9890025Y8687208D01*
X9890025Y8704988D01*
X9881135Y8713904D01*
X9872220Y8713904D01*
X9863330Y8704988D01*
X9863330Y8687208D01*
X9872220Y8678293D01*
X9890025Y8687208D02*
X9898915Y8678293D01*
X9907805Y8678293D01*
X9916721Y8687208D01*
X9916721Y8704988D01*
X9907805Y8713904D01*
X9898915Y8713904D01*
X9890025Y8704988D01*
X9872220Y8734427D02*
X9863330Y8734427D01*
X9872220Y8734427D02*
X9907805Y8770038D01*
X9916721Y8770038D01*
X9916721Y8734427D01*
X9958580Y8743342D02*
X9958580Y8761122D01*
X9967470Y8770038D01*
X9976385Y8770038D01*
X9985275Y8761122D01*
X9985275Y8734427D01*
X9967470Y8734427D01*
X9958580Y8743342D01*
X9985275Y8734427D02*
X10003055Y8752232D01*
X10011971Y8770038D01*
X9916721Y8622184D02*
X9863330Y8622184D01*
X9389671Y8621422D02*
X9380755Y8630338D01*
X9345170Y8594727D01*
X9336280Y8603642D01*
X9336280Y8621422D01*
X9345170Y8630338D01*
X9380755Y8630338D01*
X9389671Y8621422D02*
X9389671Y8603642D01*
X9380755Y8594727D01*
X9345170Y8594727D01*
X9345170Y8574204D02*
X9380755Y8574204D01*
X9389671Y8565288D01*
X9389671Y8547508D01*
X9380755Y8538593D01*
X9371865Y8538593D01*
X9362975Y8547508D01*
X9362975Y8574204D01*
X9345170Y8574204D02*
X9336280Y8565288D01*
X9336280Y8547508D01*
X9345170Y8538593D01*
X9336280Y8518070D02*
X9354085Y8500264D01*
X9354085Y8509154D02*
X9354085Y8482484D01*
X9336280Y8482484D02*
X9389671Y8482484D01*
X9389671Y8509154D01*
X9380755Y8518070D01*
X9362975Y8518070D01*
X9354085Y8509154D01*
X9170062Y8942555D02*
X9170062Y8951445D01*
X9134477Y8987030D01*
X9134477Y8995920D01*
X9113928Y8987030D02*
X9113928Y8951445D01*
X9105038Y8942555D01*
X9087233Y8942555D01*
X9078343Y8951445D01*
X9078343Y8960335D01*
X9087233Y8969225D01*
X9113928Y8969225D01*
X9113928Y8987030D02*
X9105038Y8995920D01*
X9087233Y8995920D01*
X9078343Y8987030D01*
X9057794Y8995920D02*
X9040014Y8978140D01*
X9048904Y8978140D02*
X9022209Y8978140D01*
X9022209Y8995920D02*
X9022209Y8942555D01*
X9048904Y8942555D01*
X9057794Y8951445D01*
X9057794Y8969225D01*
X9048904Y8978140D01*
X9134477Y8942555D02*
X9170062Y8942555D01*
X8947812Y8891780D02*
X8947812Y8856195D01*
X8938922Y8847305D01*
X8921117Y8847305D01*
X8912227Y8856195D01*
X8912227Y8865085D01*
X8921117Y8873975D01*
X8947812Y8873975D01*
X8947812Y8891780D02*
X8938922Y8900670D01*
X8921117Y8900670D01*
X8912227Y8891780D01*
X8891678Y8891780D02*
X8891678Y8856195D01*
X8882788Y8847305D01*
X8864983Y8847305D01*
X8856093Y8856195D01*
X8856093Y8865085D01*
X8864983Y8873975D01*
X8891678Y8873975D01*
X8891678Y8891780D02*
X8882788Y8900670D01*
X8864983Y8900670D01*
X8856093Y8891780D01*
X8835544Y8900670D02*
X8817764Y8882890D01*
X8826654Y8882890D02*
X8799959Y8882890D01*
X8799959Y8900670D02*
X8799959Y8847305D01*
X8826654Y8847305D01*
X8835544Y8856195D01*
X8835544Y8873975D01*
X8826654Y8882890D01*
X8751089Y9012405D02*
X8733284Y9012405D01*
X8724394Y9021295D01*
X8724394Y9056880D01*
X8759979Y9021295D01*
X8759979Y9056880D01*
X8751089Y9065770D01*
X8733284Y9065770D01*
X8724394Y9056880D01*
X8703845Y9056880D02*
X8694955Y9065770D01*
X8677150Y9065770D01*
X8668260Y9056880D01*
X8703845Y9021295D01*
X8703845Y9056880D01*
X8668260Y9056880D02*
X8668260Y9021295D01*
X8677150Y9012405D01*
X8694955Y9012405D01*
X8703845Y9021295D01*
X8751089Y9012405D02*
X8759979Y9021295D01*
X8647711Y9065770D02*
X8612126Y9065770D01*
X8629931Y9065770D02*
X8629931Y9012405D01*
X8612126Y9030185D01*
X8591577Y9021295D02*
X8591577Y9039075D01*
X8582687Y9047990D01*
X8555992Y9047990D01*
X8555992Y9065770D02*
X8555992Y9012405D01*
X8582687Y9012405D01*
X8591577Y9021295D01*
X8573797Y9047990D02*
X8591577Y9065770D01*
X8784592Y9291805D02*
X8811287Y9291805D01*
X8820177Y9300695D01*
X8820177Y9318475D01*
X8811287Y9327390D01*
X8784592Y9327390D01*
X8784592Y9345170D02*
X8784592Y9291805D01*
X8802397Y9327390D02*
X8820177Y9345170D01*
X8840726Y9345170D02*
X8876311Y9345170D01*
X8858531Y9345170D02*
X8858531Y9291805D01*
X8840726Y9309585D01*
X8896860Y9300695D02*
X8905750Y9291805D01*
X8923555Y9291805D01*
X8932445Y9300695D01*
X8896860Y9336280D01*
X8905750Y9345170D01*
X8923555Y9345170D01*
X8932445Y9336280D01*
X8932445Y9300695D01*
X8952994Y9309585D02*
X8970774Y9291805D01*
X8970774Y9345170D01*
X8952994Y9345170D02*
X8988579Y9345170D01*
X9022209Y9281670D02*
X9022209Y9228305D01*
X9048904Y9228305D01*
X9057794Y9237195D01*
X9057794Y9254975D01*
X9048904Y9263890D01*
X9022209Y9263890D01*
X9040014Y9263890D02*
X9057794Y9281670D01*
X9078343Y9272780D02*
X9087233Y9281670D01*
X9105038Y9281670D01*
X9113928Y9272780D01*
X9113928Y9237195D01*
X9105038Y9228305D01*
X9087233Y9228305D01*
X9078343Y9237195D01*
X9078343Y9246085D01*
X9087233Y9254975D01*
X9113928Y9254975D01*
X9134477Y9246085D02*
X9134477Y9237195D01*
X9143367Y9228305D01*
X9161172Y9228305D01*
X9170062Y9237195D01*
X9170062Y9246085D01*
X9161172Y9254975D01*
X9143367Y9254975D01*
X9134477Y9246085D01*
X9143367Y9254975D02*
X9134477Y9263890D01*
X9134477Y9272780D01*
X9143367Y9281670D01*
X9161172Y9281670D01*
X9170062Y9272780D01*
X9170062Y9263890D01*
X9161172Y9254975D01*
X8896860Y9300695D02*
X8896860Y9336280D01*
X8805471Y9942984D02*
X8805471Y9969654D01*
X8796555Y9978570D01*
X8778775Y9978570D01*
X8769885Y9969654D01*
X8769885Y9942984D01*
X8769885Y9960764D02*
X8752080Y9978570D01*
X8752080Y9999093D02*
X8760970Y9999093D01*
X8796555Y10034704D01*
X8805471Y10034704D01*
X8805471Y9999093D01*
X8805471Y9942984D02*
X8752080Y9942984D01*
X8760970Y10055227D02*
X8752080Y10064142D01*
X8752080Y10081922D01*
X8760970Y10090838D01*
X8796555Y10090838D01*
X8805471Y10081922D01*
X8805471Y10064142D01*
X8796555Y10055227D01*
X8787665Y10055227D01*
X8778775Y10064142D01*
X8778775Y10090838D01*
X8551572Y11400005D02*
X8560462Y11408895D01*
X8560462Y11417785D01*
X8551572Y11426675D01*
X8560462Y11435590D01*
X8560462Y11444480D01*
X8551572Y11453370D01*
X8533767Y11453370D01*
X8524877Y11444480D01*
X8542657Y11426675D02*
X8551572Y11426675D01*
X8551572Y11400005D02*
X8533767Y11400005D01*
X8524877Y11408895D01*
X8504328Y11408895D02*
X8468743Y11444480D01*
X8468743Y11453370D01*
X8448194Y11453370D02*
X8430414Y11435590D01*
X8439304Y11435590D02*
X8412609Y11435590D01*
X8412609Y11453370D02*
X8412609Y11400005D01*
X8439304Y11400005D01*
X8448194Y11408895D01*
X8448194Y11426675D01*
X8439304Y11435590D01*
X8468743Y11400005D02*
X8504328Y11400005D01*
X8504328Y11408895D01*
X9219059Y11958805D02*
X9245754Y11958805D01*
X9254644Y11967695D01*
X9254644Y11985475D01*
X9245754Y11994390D01*
X9219059Y11994390D01*
X9219059Y12012170D02*
X9219059Y11958805D01*
X9236864Y11994390D02*
X9254644Y12012170D01*
X9275193Y12003280D02*
X9275193Y11994390D01*
X9284083Y11985475D01*
X9301888Y11985475D01*
X9310778Y11994390D01*
X9310778Y12003280D01*
X9301888Y12012170D01*
X9284083Y12012170D01*
X9275193Y12003280D01*
X9284083Y11985475D02*
X9275193Y11976585D01*
X9275193Y11967695D01*
X9284083Y11958805D01*
X9301888Y11958805D01*
X9310778Y11967695D01*
X9310778Y11976585D01*
X9301888Y11985475D01*
X9331327Y11976585D02*
X9331327Y11967695D01*
X9340217Y11958805D01*
X9358022Y11958805D01*
X9366912Y11967695D01*
X9366912Y11976585D01*
X9358022Y11985475D01*
X9340217Y11985475D01*
X9331327Y11976585D01*
X9340217Y11985475D02*
X9331327Y11994390D01*
X9331327Y12003280D01*
X9340217Y12012170D01*
X9358022Y12012170D01*
X9366912Y12003280D01*
X9366912Y11994390D01*
X9358022Y11985475D01*
X9355330Y12385067D02*
X9408721Y12385067D01*
X9408721Y12411763D01*
X9399805Y12420653D01*
X9382025Y12420653D01*
X9373135Y12411763D01*
X9373135Y12385067D01*
X9373135Y12402847D02*
X9355330Y12420653D01*
X9355330Y12441201D02*
X9355330Y12476787D01*
X9355330Y12458981D02*
X9408721Y12458981D01*
X9390915Y12441201D01*
X9399805Y12497310D02*
X9408721Y12506225D01*
X9408721Y12524005D01*
X9399805Y12532921D01*
X9364220Y12497310D01*
X9355330Y12506225D01*
X9355330Y12524005D01*
X9364220Y12532921D01*
X9399805Y12532921D01*
X9399805Y12553444D02*
X9390915Y12553444D01*
X9382025Y12562359D01*
X9382025Y12580139D01*
X9373135Y12589029D01*
X9364220Y12589029D01*
X9355330Y12580139D01*
X9355330Y12562359D01*
X9364220Y12553444D01*
X9373135Y12553444D01*
X9382025Y12562359D01*
X9382025Y12580139D02*
X9390915Y12589029D01*
X9399805Y12589029D01*
X9408721Y12580139D01*
X9408721Y12562359D01*
X9399805Y12553444D01*
X9399805Y12497310D02*
X9364220Y12497310D01*
X9641080Y12458194D02*
X9649970Y12458194D01*
X9685555Y12493779D01*
X9694471Y12493779D01*
X9694471Y12458194D01*
X9685555Y12437671D02*
X9649970Y12402060D01*
X9641080Y12410975D01*
X9641080Y12428755D01*
X9649970Y12437671D01*
X9685555Y12437671D01*
X9694471Y12428755D01*
X9694471Y12410975D01*
X9685555Y12402060D01*
X9649970Y12402060D01*
X9641080Y12381537D02*
X9641080Y12345951D01*
X9641080Y12363731D02*
X9694471Y12363731D01*
X9676665Y12345951D01*
X9667775Y12325403D02*
X9658885Y12316513D01*
X9658885Y12289817D01*
X9658885Y12307597D02*
X9641080Y12325403D01*
X9667775Y12325403D02*
X9685555Y12325403D01*
X9694471Y12316513D01*
X9694471Y12289817D01*
X9641080Y12289817D01*
X9799830Y12381384D02*
X9853221Y12381384D01*
X9853221Y12408054D01*
X9844305Y12416970D01*
X9826525Y12416970D01*
X9817635Y12408054D01*
X9817635Y12381384D01*
X9817635Y12399164D02*
X9799830Y12416970D01*
X9808720Y12437493D02*
X9799830Y12446408D01*
X9799830Y12464188D01*
X9808720Y12473104D01*
X9844305Y12473104D01*
X9853221Y12464188D01*
X9853221Y12446408D01*
X9844305Y12437493D01*
X9835415Y12437493D01*
X9826525Y12446408D01*
X9826525Y12473104D01*
X9844305Y12493627D02*
X9853221Y12502542D01*
X9853221Y12520322D01*
X9844305Y12529238D01*
X9835415Y12529238D01*
X9799830Y12493627D01*
X9799830Y12529238D01*
X9726221Y12825884D02*
X9726221Y12852554D01*
X9717305Y12861470D01*
X9699525Y12861470D01*
X9690635Y12852554D01*
X9690635Y12825884D01*
X9690635Y12843664D02*
X9672830Y12861470D01*
X9681720Y12881993D02*
X9672830Y12890908D01*
X9672830Y12908688D01*
X9681720Y12917604D01*
X9717305Y12917604D01*
X9726221Y12908688D01*
X9726221Y12890908D01*
X9717305Y12881993D01*
X9708415Y12881993D01*
X9699525Y12890908D01*
X9699525Y12917604D01*
X9717305Y12938127D02*
X9726221Y12947042D01*
X9726221Y12964822D01*
X9717305Y12973738D01*
X9708415Y12973738D01*
X9699525Y12964822D01*
X9690635Y12973738D01*
X9681720Y12973738D01*
X9672830Y12964822D01*
X9672830Y12947042D01*
X9681720Y12938127D01*
X9699525Y12955932D02*
X9699525Y12964822D01*
X9599221Y12940438D02*
X9599221Y12922658D01*
X9590305Y12913743D01*
X9581415Y12913743D01*
X9572525Y12922658D01*
X9572525Y12949354D01*
X9590305Y12949354D02*
X9599221Y12940438D01*
X9590305Y12949354D02*
X9554720Y12949354D01*
X9545830Y12940438D01*
X9545830Y12922658D01*
X9554720Y12913743D01*
X9545830Y12893220D02*
X9563635Y12875414D01*
X9563635Y12884304D02*
X9563635Y12857634D01*
X9545830Y12857634D02*
X9599221Y12857634D01*
X9599221Y12884304D01*
X9590305Y12893220D01*
X9572525Y12893220D01*
X9563635Y12884304D01*
X9503971Y12884304D02*
X9495055Y12893220D01*
X9477275Y12893220D01*
X9468385Y12884304D01*
X9468385Y12857634D01*
X9468385Y12875414D02*
X9450580Y12893220D01*
X9459470Y12913743D02*
X9450580Y12922658D01*
X9450580Y12940438D01*
X9459470Y12949354D01*
X9495055Y12949354D01*
X9503971Y12940438D01*
X9503971Y12922658D01*
X9495055Y12913743D01*
X9486165Y12913743D01*
X9477275Y12922658D01*
X9477275Y12949354D01*
X9477275Y12969877D02*
X9486165Y12987682D01*
X9486165Y12996572D01*
X9477275Y13005488D01*
X9459470Y13005488D01*
X9450580Y12996572D01*
X9450580Y12978792D01*
X9459470Y12969877D01*
X9477275Y12969877D02*
X9503971Y12969877D01*
X9503971Y13005488D01*
X9545830Y12996572D02*
X9554720Y13005488D01*
X9563635Y13005488D01*
X9572525Y12996572D01*
X9572525Y12969877D01*
X9554720Y12969877D01*
X9545830Y12978792D01*
X9545830Y12996572D01*
X9572525Y12969877D02*
X9590305Y12987682D01*
X9599221Y13005488D01*
X9503971Y12884304D02*
X9503971Y12857634D01*
X9450580Y12857634D01*
X9672830Y12825884D02*
X9726221Y12825884D01*
X9777859Y12012170D02*
X9777859Y11958805D01*
X9804554Y11958805D01*
X9813444Y11967695D01*
X9813444Y11985475D01*
X9804554Y11994390D01*
X9777859Y11994390D01*
X9795664Y11994390D02*
X9813444Y12012170D01*
X9833993Y12003280D02*
X9833993Y11994390D01*
X9842883Y11985475D01*
X9860688Y11985475D01*
X9869578Y11994390D01*
X9869578Y12003280D01*
X9860688Y12012170D01*
X9842883Y12012170D01*
X9833993Y12003280D01*
X9842883Y11985475D02*
X9833993Y11976585D01*
X9833993Y11967695D01*
X9842883Y11958805D01*
X9860688Y11958805D01*
X9869578Y11967695D01*
X9869578Y11976585D01*
X9860688Y11985475D01*
X9890127Y11976585D02*
X9899017Y11985475D01*
X9925712Y11985475D01*
X9925712Y11967695D02*
X9916822Y11958805D01*
X9899017Y11958805D01*
X9890127Y11967695D01*
X9890127Y11976585D01*
X9890127Y12003280D02*
X9899017Y12012170D01*
X9916822Y12012170D01*
X9925712Y12003280D01*
X9925712Y11967695D01*
X10571609Y12149305D02*
X10598304Y12149305D01*
X10607194Y12158195D01*
X10607194Y12175975D01*
X10598304Y12184890D01*
X10571609Y12184890D01*
X10571609Y12202670D02*
X10571609Y12149305D01*
X10589414Y12184890D02*
X10607194Y12202670D01*
X10627743Y12202670D02*
X10627743Y12193780D01*
X10663328Y12158195D01*
X10663328Y12149305D01*
X10627743Y12149305D01*
X10683877Y12175975D02*
X10710572Y12175975D01*
X10719462Y12184890D01*
X10719462Y12193780D01*
X10710572Y12202670D01*
X10692767Y12202670D01*
X10683877Y12193780D01*
X10683877Y12175975D01*
X10701657Y12158195D01*
X10719462Y12149305D01*
X10392971Y13505334D02*
X10392971Y13532004D01*
X10384055Y13540920D01*
X10366275Y13540920D01*
X10357385Y13532004D01*
X10357385Y13505334D01*
X10357385Y13523114D02*
X10339580Y13540920D01*
X10348470Y13561443D02*
X10357385Y13561443D01*
X10366275Y13570358D01*
X10366275Y13588138D01*
X10357385Y13597054D01*
X10348470Y13597054D01*
X10339580Y13588138D01*
X10339580Y13570358D01*
X10348470Y13561443D01*
X10366275Y13570358D02*
X10375165Y13561443D01*
X10384055Y13561443D01*
X10392971Y13570358D01*
X10392971Y13588138D01*
X10384055Y13597054D01*
X10375165Y13597054D01*
X10366275Y13588138D01*
X10384055Y13617577D02*
X10392971Y13626492D01*
X10392971Y13644272D01*
X10384055Y13653188D01*
X10348470Y13617577D01*
X10339580Y13626492D01*
X10339580Y13644272D01*
X10348470Y13653188D01*
X10384055Y13653188D01*
X10384055Y13617577D02*
X10348470Y13617577D01*
X10339580Y13505334D02*
X10392971Y13505334D01*
X10398000Y14308305D02*
X10415805Y14308305D01*
X10424695Y14317195D01*
X10389110Y14352780D01*
X10398000Y14361670D01*
X10415805Y14361670D01*
X10424695Y14352780D01*
X10424695Y14317195D01*
X10445244Y14334975D02*
X10471939Y14334975D01*
X10480829Y14343890D01*
X10480829Y14352780D01*
X10471939Y14361670D01*
X10454134Y14361670D01*
X10445244Y14352780D01*
X10445244Y14334975D01*
X10463024Y14317195D01*
X10480829Y14308305D01*
X10398000Y14308305D02*
X10389110Y14317195D01*
X10389110Y14352780D01*
X10368561Y14361670D02*
X10332976Y14361670D01*
X10350781Y14361670D02*
X10350781Y14308305D01*
X10332976Y14326085D01*
X10312427Y14317195D02*
X10312427Y14334975D01*
X10303537Y14343890D01*
X10276842Y14343890D01*
X10276842Y14361670D02*
X10276842Y14308305D01*
X10303537Y14308305D01*
X10312427Y14317195D01*
X10294647Y14343890D02*
X10312427Y14361670D01*
X10460992Y14530555D02*
X10487687Y14530555D01*
X10496577Y14539445D01*
X10496577Y14557225D01*
X10487687Y14566140D01*
X10460992Y14566140D01*
X10460992Y14583920D02*
X10460992Y14530555D01*
X10478797Y14566140D02*
X10496577Y14583920D01*
X10517126Y14583920D02*
X10552711Y14583920D01*
X10534931Y14583920D02*
X10534931Y14530555D01*
X10517126Y14548335D01*
X10573260Y14539445D02*
X10582150Y14530555D01*
X10599955Y14530555D01*
X10608845Y14539445D01*
X10573260Y14575030D01*
X10582150Y14583920D01*
X10599955Y14583920D01*
X10608845Y14575030D01*
X10608845Y14539445D01*
X10629394Y14530555D02*
X10629394Y14557225D01*
X10647174Y14548335D01*
X10656089Y14548335D01*
X10664979Y14557225D01*
X10664979Y14575030D01*
X10656089Y14583920D01*
X10638284Y14583920D01*
X10629394Y14575030D01*
X10629394Y14530555D02*
X10664979Y14530555D01*
X10573260Y14539445D02*
X10573260Y14575030D01*
X10363989Y14689305D02*
X10337294Y14715975D01*
X10372879Y14715975D01*
X10363989Y14689305D02*
X10363989Y14742670D01*
X10316745Y14733780D02*
X10307855Y14742670D01*
X10290050Y14742670D01*
X10281160Y14733780D01*
X10316745Y14698195D01*
X10316745Y14733780D01*
X10281160Y14733780D02*
X10281160Y14698195D01*
X10290050Y14689305D01*
X10307855Y14689305D01*
X10316745Y14698195D01*
X10260611Y14742670D02*
X10225026Y14742670D01*
X10242831Y14742670D02*
X10242831Y14689305D01*
X10225026Y14707085D01*
X10204477Y14698195D02*
X10204477Y14715975D01*
X10195587Y14724890D01*
X10168892Y14724890D01*
X10168892Y14742670D02*
X10168892Y14689305D01*
X10195587Y14689305D01*
X10204477Y14698195D01*
X10186697Y14724890D02*
X10204477Y14742670D01*
X10106179Y14704570D02*
X10070594Y14704570D01*
X10106179Y14668985D01*
X10106179Y14660095D01*
X10097289Y14651205D01*
X10079484Y14651205D01*
X10070594Y14660095D01*
X10050045Y14660095D02*
X10014460Y14695680D01*
X10023350Y14704570D01*
X10041155Y14704570D01*
X10050045Y14695680D01*
X10050045Y14660095D01*
X10041155Y14651205D01*
X10023350Y14651205D01*
X10014460Y14660095D01*
X10014460Y14695680D01*
X9993911Y14704570D02*
X9958326Y14704570D01*
X9976131Y14704570D02*
X9976131Y14651205D01*
X9958326Y14668985D01*
X9937777Y14660095D02*
X9937777Y14677875D01*
X9928887Y14686790D01*
X9902192Y14686790D01*
X9902192Y14704570D02*
X9902192Y14651205D01*
X9928887Y14651205D01*
X9937777Y14660095D01*
X9919997Y14686790D02*
X9937777Y14704570D01*
X9940292Y14361670D02*
X9940292Y14308305D01*
X9966987Y14308305D01*
X9975877Y14317195D01*
X9975877Y14334975D01*
X9966987Y14343890D01*
X9940292Y14343890D01*
X9958097Y14343890D02*
X9975877Y14361670D01*
X9996426Y14361670D02*
X10032011Y14361670D01*
X10014231Y14361670D02*
X10014231Y14308305D01*
X9996426Y14326085D01*
X10052560Y14317195D02*
X10061450Y14308305D01*
X10079255Y14308305D01*
X10088145Y14317195D01*
X10052560Y14352780D01*
X10061450Y14361670D01*
X10079255Y14361670D01*
X10088145Y14352780D01*
X10088145Y14317195D01*
X10108694Y14317195D02*
X10117584Y14308305D01*
X10135389Y14308305D01*
X10144279Y14317195D01*
X10144279Y14326085D01*
X10135389Y14334975D01*
X10144279Y14343890D01*
X10144279Y14352780D01*
X10135389Y14361670D01*
X10117584Y14361670D01*
X10108694Y14352780D01*
X10126474Y14334975D02*
X10135389Y14334975D01*
X10052560Y14352780D02*
X10052560Y14317195D01*
X10411970Y15016634D02*
X10403080Y15025524D01*
X10403080Y15043304D01*
X10411970Y15052220D01*
X10411970Y15072743D02*
X10420885Y15072743D01*
X10429775Y15081658D01*
X10429775Y15099438D01*
X10420885Y15108354D01*
X10411970Y15108354D01*
X10403080Y15099438D01*
X10403080Y15081658D01*
X10411970Y15072743D01*
X10429775Y15081658D02*
X10438665Y15072743D01*
X10447555Y15072743D01*
X10456471Y15081658D01*
X10456471Y15099438D01*
X10447555Y15108354D01*
X10438665Y15108354D01*
X10429775Y15099438D01*
X10438665Y15128877D02*
X10456471Y15146682D01*
X10403080Y15146682D01*
X10403080Y15128877D02*
X10403080Y15164488D01*
X10447555Y15052220D02*
X10456471Y15043304D01*
X10456471Y15025524D01*
X10447555Y15016634D01*
X10411970Y15016634D01*
X10997059Y15015695D02*
X10997059Y15051280D01*
X11005949Y15060170D01*
X11023754Y15060170D01*
X11032644Y15051280D01*
X11053193Y15051280D02*
X11053193Y15042390D01*
X11062083Y15033475D01*
X11079888Y15033475D01*
X11088778Y15042390D01*
X11088778Y15051280D01*
X11079888Y15060170D01*
X11062083Y15060170D01*
X11053193Y15051280D01*
X11062083Y15033475D02*
X11053193Y15024585D01*
X11053193Y15015695D01*
X11062083Y15006805D01*
X11079888Y15006805D01*
X11088778Y15015695D01*
X11088778Y15024585D01*
X11079888Y15033475D01*
X11109327Y15015695D02*
X11118217Y15006805D01*
X11136022Y15006805D01*
X11144912Y15015695D01*
X11109327Y15051280D01*
X11118217Y15060170D01*
X11136022Y15060170D01*
X11144912Y15051280D01*
X11144912Y15015695D01*
X11109327Y15015695D02*
X11109327Y15051280D01*
X11032644Y15015695D02*
X11023754Y15006805D01*
X11005949Y15006805D01*
X10997059Y15015695D01*
X11005949Y15292555D02*
X10997059Y15301445D01*
X10997059Y15337030D01*
X11005949Y15345920D01*
X11023754Y15345920D01*
X11032644Y15337030D01*
X11053193Y15337030D02*
X11053193Y15345920D01*
X11053193Y15337030D02*
X11088778Y15301445D01*
X11088778Y15292555D01*
X11053193Y15292555D01*
X11032644Y15301445D02*
X11023754Y15292555D01*
X11005949Y15292555D01*
X11109327Y15301445D02*
X11109327Y15310335D01*
X11118217Y15319225D01*
X11144912Y15319225D01*
X11144912Y15301445D02*
X11136022Y15292555D01*
X11118217Y15292555D01*
X11109327Y15301445D01*
X11144912Y15301445D02*
X11144912Y15337030D01*
X11136022Y15345920D01*
X11118217Y15345920D01*
X11109327Y15337030D01*
X11781792Y15489405D02*
X11808487Y15489405D01*
X11817377Y15498295D01*
X11817377Y15516075D01*
X11808487Y15524990D01*
X11781792Y15524990D01*
X11781792Y15542770D02*
X11781792Y15489405D01*
X11799597Y15524990D02*
X11817377Y15542770D01*
X11837926Y15542770D02*
X11873511Y15542770D01*
X11855731Y15542770D02*
X11855731Y15489405D01*
X11837926Y15507185D01*
X11894060Y15498295D02*
X11902950Y15489405D01*
X11920755Y15489405D01*
X11929645Y15498295D01*
X11894060Y15533880D01*
X11902950Y15542770D01*
X11920755Y15542770D01*
X11929645Y15533880D01*
X11929645Y15498295D01*
X11950194Y15498295D02*
X11950194Y15507185D01*
X11959084Y15516075D01*
X11985779Y15516075D01*
X11985779Y15498295D02*
X11976889Y15489405D01*
X11959084Y15489405D01*
X11950194Y15498295D01*
X11985779Y15498295D02*
X11985779Y15533880D01*
X11976889Y15542770D01*
X11959084Y15542770D01*
X11950194Y15533880D01*
X11894060Y15533880D02*
X11894060Y15498295D01*
X11564673Y16392629D02*
X11511282Y16392629D01*
X11537977Y16419324D01*
X11537977Y16383739D01*
X11529087Y16439873D02*
X11520172Y16439873D01*
X11511282Y16448763D01*
X11511282Y16466568D01*
X11520172Y16475458D01*
X11529087Y16439873D02*
X11564673Y16475458D01*
X11564673Y16439873D01*
X11564673Y16496007D02*
X11564673Y16531592D01*
X11564673Y16513787D02*
X11511282Y16513787D01*
X11529087Y16531592D01*
X11537977Y16552141D02*
X11546867Y16561031D01*
X11546867Y16587726D01*
X11546867Y16569921D02*
X11564673Y16552141D01*
X11537977Y16552141D02*
X11520172Y16552141D01*
X11511282Y16561031D01*
X11511282Y16587726D01*
X11564673Y16587726D01*
X11454665Y16587726D02*
X11401275Y16587726D01*
X11401275Y16561031D01*
X11410190Y16552141D01*
X11427970Y16552141D01*
X11436885Y16561031D01*
X11436885Y16587726D01*
X11436885Y16569921D02*
X11454665Y16552141D01*
X11454665Y16531592D02*
X11454665Y16496007D01*
X11454665Y16513787D02*
X11401275Y16513787D01*
X11419080Y16531592D01*
X11410190Y16475458D02*
X11401275Y16466568D01*
X11401275Y16448763D01*
X11410190Y16439873D01*
X11419080Y16439873D01*
X11454665Y16475458D01*
X11454665Y16439873D01*
X11445775Y16419324D02*
X11454665Y16410434D01*
X11454665Y16392629D01*
X11445775Y16383739D01*
X11436885Y16383739D01*
X11427970Y16392629D01*
X11427970Y16401544D01*
X11427970Y16392629D02*
X11419080Y16383739D01*
X11410190Y16383739D01*
X11401275Y16392629D01*
X11401275Y16410434D01*
X11410190Y16419324D01*
X11344658Y16419324D02*
X11344658Y16383739D01*
X11344658Y16401544D02*
X11291293Y16401544D01*
X11309073Y16419324D01*
X11300183Y16439873D02*
X11291293Y16448763D01*
X11291293Y16466568D01*
X11300183Y16475458D01*
X11309073Y16475458D01*
X11317988Y16466568D01*
X11317988Y16439873D01*
X11335768Y16439873D02*
X11300183Y16439873D01*
X11335768Y16439873D02*
X11344658Y16448763D01*
X11344658Y16466568D01*
X11335768Y16475458D01*
X11335768Y16496007D02*
X11344658Y16504897D01*
X11344658Y16522702D01*
X11335768Y16531592D01*
X11300183Y16531592D01*
X11291293Y16522702D01*
X11291293Y16504897D01*
X11300183Y16496007D01*
X11214661Y16504897D02*
X11205771Y16496007D01*
X11214661Y16504897D02*
X11214661Y16522702D01*
X11205771Y16531592D01*
X11170185Y16531592D01*
X11161270Y16522702D01*
X11161270Y16504897D01*
X11170185Y16496007D01*
X11170185Y16475458D02*
X11179075Y16475458D01*
X11187965Y16466568D01*
X11187965Y16439873D01*
X11170185Y16439873D02*
X11205771Y16439873D01*
X11214661Y16448763D01*
X11214661Y16466568D01*
X11205771Y16475458D01*
X11170185Y16475458D02*
X11161270Y16466568D01*
X11161270Y16448763D01*
X11170185Y16439873D01*
X11170185Y16419324D02*
X11161270Y16410434D01*
X11161270Y16392629D01*
X11170185Y16383739D01*
X11179075Y16383739D01*
X11214661Y16419324D01*
X11214661Y16383739D01*
X11014661Y16383739D02*
X11014661Y16419324D01*
X10979076Y16383739D01*
X10970186Y16383739D01*
X10961270Y16392629D01*
X10961270Y16410434D01*
X10970186Y16419324D01*
X10970186Y16439873D02*
X10961270Y16448763D01*
X10961270Y16466568D01*
X10970186Y16475458D01*
X10970186Y16439873D02*
X10979076Y16439873D01*
X11014661Y16475458D01*
X11014661Y16439873D01*
X11014661Y16496007D02*
X11014661Y16531592D01*
X11014661Y16513787D02*
X10961270Y16513787D01*
X10979076Y16531592D01*
X10970186Y16552141D02*
X10987966Y16552141D01*
X10996881Y16561031D01*
X10996881Y16587726D01*
X11014661Y16587726D02*
X10961270Y16587726D01*
X10961270Y16561031D01*
X10970186Y16552141D01*
X10996881Y16569921D02*
X11014661Y16552141D01*
X11160000Y16735300D02*
X11223500Y16671800D01*
X10794672Y16587726D02*
X10741281Y16587726D01*
X10741281Y16561031D01*
X10750171Y16552141D01*
X10767976Y16552141D01*
X10776866Y16561031D01*
X10776866Y16587726D01*
X10776866Y16569921D02*
X10794672Y16552141D01*
X10794672Y16531592D02*
X10794672Y16496007D01*
X10794672Y16513787D02*
X10741281Y16513787D01*
X10759086Y16531592D01*
X10750171Y16475458D02*
X10741281Y16466568D01*
X10741281Y16448763D01*
X10750171Y16439873D01*
X10759086Y16439873D01*
X10794672Y16475458D01*
X10794672Y16439873D01*
X10785782Y16419324D02*
X10794672Y16410434D01*
X10794672Y16392629D01*
X10785782Y16383739D01*
X10767976Y16383739D01*
X10759086Y16392629D01*
X10759086Y16401544D01*
X10767976Y16419324D01*
X10741281Y16419324D01*
X10741281Y16383739D01*
X10705162Y16430449D02*
X10651771Y16430449D01*
X10678467Y16457145D01*
X10678467Y16421534D01*
X10669577Y16477668D02*
X10678467Y16486583D01*
X10678467Y16513253D01*
X10678467Y16486583D02*
X10687382Y16477668D01*
X10696272Y16477668D01*
X10705162Y16486583D01*
X10705162Y16513253D01*
X10651771Y16513253D01*
X10651771Y16486583D01*
X10660687Y16477668D01*
X10669577Y16477668D01*
X10651771Y16533802D02*
X10651771Y16569387D01*
X10705162Y16569387D01*
X10678467Y16569387D02*
X10678467Y16551607D01*
X9603005Y15297838D02*
X9611921Y15288922D01*
X9611921Y15271142D01*
X9603005Y15262227D01*
X9603005Y15241704D02*
X9594115Y15241704D01*
X9585225Y15232788D01*
X9585225Y15215008D01*
X9594115Y15206093D01*
X9603005Y15206093D01*
X9611921Y15215008D01*
X9611921Y15232788D01*
X9603005Y15241704D01*
X9585225Y15232788D02*
X9576335Y15241704D01*
X9567420Y15241704D01*
X9558530Y15232788D01*
X9558530Y15215008D01*
X9567420Y15206093D01*
X9576335Y15206093D01*
X9585225Y15215008D01*
X9585225Y15185570D02*
X9576335Y15176654D01*
X9576335Y15149984D01*
X9576335Y15167764D02*
X9558530Y15185570D01*
X9585225Y15185570D02*
X9603005Y15185570D01*
X9611921Y15176654D01*
X9611921Y15149984D01*
X9558530Y15149984D01*
X9558530Y15262227D02*
X9594115Y15297838D01*
X9603005Y15297838D01*
X9558530Y15297838D02*
X9558530Y15262227D01*
X9281721Y14973988D02*
X9281721Y14938377D01*
X9255025Y14938377D01*
X9263915Y14956182D01*
X9263915Y14965072D01*
X9255025Y14973988D01*
X9237220Y14973988D01*
X9228330Y14965072D01*
X9228330Y14947292D01*
X9237220Y14938377D01*
X9237220Y14917854D02*
X9228330Y14908938D01*
X9228330Y14891158D01*
X9237220Y14882243D01*
X9246135Y14882243D01*
X9255025Y14891158D01*
X9255025Y14908938D01*
X9246135Y14917854D01*
X9237220Y14917854D01*
X9255025Y14908938D02*
X9263915Y14917854D01*
X9272805Y14917854D01*
X9281721Y14908938D01*
X9281721Y14891158D01*
X9272805Y14882243D01*
X9263915Y14882243D01*
X9255025Y14891158D01*
X9255025Y14861720D02*
X9246135Y14852804D01*
X9246135Y14826134D01*
X9246135Y14843914D02*
X9228330Y14861720D01*
X9255025Y14861720D02*
X9272805Y14861720D01*
X9281721Y14852804D01*
X9281721Y14826134D01*
X9228330Y14826134D01*
X9186471Y14826134D02*
X9186471Y14852804D01*
X9177555Y14861720D01*
X9159775Y14861720D01*
X9150885Y14852804D01*
X9150885Y14826134D01*
X9150885Y14843914D02*
X9133080Y14861720D01*
X9141970Y14882243D02*
X9133080Y14891158D01*
X9133080Y14908938D01*
X9141970Y14917854D01*
X9150885Y14917854D01*
X9159775Y14908938D01*
X9159775Y14891158D01*
X9168665Y14882243D01*
X9177555Y14882243D01*
X9186471Y14891158D01*
X9186471Y14908938D01*
X9177555Y14917854D01*
X9168665Y14917854D01*
X9159775Y14908938D01*
X9159775Y14891158D02*
X9150885Y14882243D01*
X9141970Y14882243D01*
X9133080Y14826134D02*
X9186471Y14826134D01*
X9159775Y14938377D02*
X9159775Y14973988D01*
X9186471Y14965072D02*
X9159775Y14938377D01*
X9133080Y14965072D02*
X9186471Y14965072D01*
X8773721Y14965072D02*
X8773721Y14947292D01*
X8764805Y14938377D01*
X8755915Y14938377D01*
X8747025Y14947292D01*
X8747025Y14965072D01*
X8738135Y14973988D01*
X8729220Y14973988D01*
X8720330Y14965072D01*
X8720330Y14947292D01*
X8729220Y14938377D01*
X8738135Y14938377D01*
X8747025Y14947292D01*
X8747025Y14965072D02*
X8755915Y14973988D01*
X8764805Y14973988D01*
X8773721Y14965072D01*
X8764805Y14917854D02*
X8755915Y14917854D01*
X8747025Y14908938D01*
X8747025Y14891158D01*
X8755915Y14882243D01*
X8764805Y14882243D01*
X8773721Y14891158D01*
X8773721Y14908938D01*
X8764805Y14917854D01*
X8747025Y14908938D02*
X8738135Y14917854D01*
X8729220Y14917854D01*
X8720330Y14908938D01*
X8720330Y14891158D01*
X8729220Y14882243D01*
X8738135Y14882243D01*
X8747025Y14891158D01*
X8764805Y14861720D02*
X8773721Y14852804D01*
X8773721Y14835024D01*
X8764805Y14826134D01*
X8729220Y14826134D01*
X8720330Y14835024D01*
X8720330Y14852804D01*
X8729220Y14861720D01*
X8471562Y14888720D02*
X8435977Y14888720D01*
X8453757Y14888720D02*
X8453757Y14835355D01*
X8435977Y14853135D01*
X8415428Y14853135D02*
X8406538Y14862025D01*
X8415428Y14870940D01*
X8415428Y14879830D01*
X8406538Y14888720D01*
X8388733Y14888720D01*
X8379843Y14879830D01*
X8359294Y14879830D02*
X8350404Y14888720D01*
X8332599Y14888720D01*
X8323709Y14879830D01*
X8323709Y14844245D01*
X8332599Y14835355D01*
X8350404Y14835355D01*
X8359294Y14844245D01*
X8379843Y14844245D02*
X8388733Y14835355D01*
X8406538Y14835355D01*
X8415428Y14844245D01*
X8415428Y14853135D01*
X8406538Y14862025D02*
X8397648Y14862025D01*
X8406538Y14924255D02*
X8415428Y14933145D01*
X8415428Y14942035D01*
X8406538Y14950925D01*
X8415428Y14959840D01*
X8415428Y14968730D01*
X8406538Y14977620D01*
X8388733Y14977620D01*
X8379843Y14968730D01*
X8359294Y14968730D02*
X8350404Y14977620D01*
X8332599Y14977620D01*
X8323709Y14968730D01*
X8323709Y14933145D01*
X8332599Y14924255D01*
X8350404Y14924255D01*
X8359294Y14933145D01*
X8379843Y14933145D02*
X8388733Y14924255D01*
X8406538Y14924255D01*
X8406538Y14950925D02*
X8397648Y14950925D01*
X8435977Y14933145D02*
X8444867Y14924255D01*
X8462672Y14924255D01*
X8471562Y14933145D01*
X8471562Y14942035D01*
X8435977Y14977620D01*
X8471562Y14977620D01*
X8027062Y14968730D02*
X8018172Y14977620D01*
X8000367Y14977620D01*
X7991477Y14968730D01*
X7991477Y14950925D02*
X8009257Y14942035D01*
X8018172Y14942035D01*
X8027062Y14950925D01*
X8027062Y14968730D01*
X7991477Y14950925D02*
X7991477Y14924255D01*
X8027062Y14924255D01*
X8018172Y14888720D02*
X8018172Y14835355D01*
X7991477Y14862025D01*
X8027062Y14862025D01*
X7970928Y14853135D02*
X7962038Y14862025D01*
X7970928Y14870940D01*
X7970928Y14879830D01*
X7962038Y14888720D01*
X7944233Y14888720D01*
X7935343Y14879830D01*
X7914794Y14879830D02*
X7905904Y14888720D01*
X7888099Y14888720D01*
X7879209Y14879830D01*
X7879209Y14844245D01*
X7888099Y14835355D01*
X7905904Y14835355D01*
X7914794Y14844245D01*
X7935343Y14844245D02*
X7944233Y14835355D01*
X7962038Y14835355D01*
X7970928Y14844245D01*
X7970928Y14853135D01*
X7962038Y14862025D02*
X7953148Y14862025D01*
X7962038Y14924255D02*
X7970928Y14933145D01*
X7970928Y14942035D01*
X7962038Y14950925D01*
X7970928Y14959840D01*
X7970928Y14968730D01*
X7962038Y14977620D01*
X7944233Y14977620D01*
X7935343Y14968730D01*
X7914794Y14968730D02*
X7905904Y14977620D01*
X7888099Y14977620D01*
X7879209Y14968730D01*
X7879209Y14933145D01*
X7888099Y14924255D01*
X7905904Y14924255D01*
X7914794Y14933145D01*
X7935343Y14933145D02*
X7944233Y14924255D01*
X7962038Y14924255D01*
X7962038Y14950925D02*
X7953148Y14950925D01*
X8627620Y15965451D02*
X8618730Y15974341D01*
X8618730Y15992121D01*
X8627620Y16001037D01*
X8618730Y16021560D02*
X8654315Y16057171D01*
X8663205Y16057171D01*
X8672121Y16048255D01*
X8672121Y16030475D01*
X8663205Y16021560D01*
X8663205Y16001037D02*
X8672121Y15992121D01*
X8672121Y15974341D01*
X8663205Y15965451D01*
X8627620Y15965451D01*
X8618730Y16021560D02*
X8618730Y16057171D01*
X8189521Y16393441D02*
X8180605Y16384551D01*
X8145020Y16384551D01*
X8136130Y16393441D01*
X8136130Y16411221D01*
X8145020Y16420137D01*
X8136130Y16440660D02*
X8136130Y16476271D01*
X8136130Y16458465D02*
X8189521Y16458465D01*
X8171715Y16440660D01*
X8180605Y16420137D02*
X8189521Y16411221D01*
X8189521Y16393441D01*
X8416292Y16607005D02*
X8442987Y16607005D01*
X8451877Y16615895D01*
X8451877Y16633675D01*
X8442987Y16642590D01*
X8416292Y16642590D01*
X8416292Y16660370D02*
X8416292Y16607005D01*
X8434097Y16642590D02*
X8451877Y16660370D01*
X8472426Y16660370D02*
X8508011Y16660370D01*
X8490231Y16660370D02*
X8490231Y16607005D01*
X8472426Y16624785D01*
X8528560Y16624785D02*
X8546365Y16607005D01*
X8546365Y16660370D01*
X8564145Y16660370D02*
X8528560Y16660370D01*
X8546365Y16689555D02*
X8546365Y16742920D01*
X8564145Y16742920D02*
X8528560Y16742920D01*
X8508011Y16742920D02*
X8472426Y16742920D01*
X8490231Y16742920D02*
X8490231Y16689555D01*
X8472426Y16707335D01*
X8451877Y16698445D02*
X8451877Y16716225D01*
X8442987Y16725140D01*
X8416292Y16725140D01*
X8416292Y16742920D02*
X8416292Y16689555D01*
X8442987Y16689555D01*
X8451877Y16698445D01*
X8434097Y16725140D02*
X8451877Y16742920D01*
X8528560Y16707335D02*
X8546365Y16689555D01*
X8584694Y16698445D02*
X8593584Y16689555D01*
X8611389Y16689555D01*
X8620279Y16698445D01*
X8620279Y16707335D01*
X8584694Y16742920D01*
X8620279Y16742920D01*
X8611389Y16660370D02*
X8593584Y16660370D01*
X8584694Y16651480D01*
X8602474Y16633675D02*
X8611389Y16633675D01*
X8620279Y16642590D01*
X8620279Y16651480D01*
X8611389Y16660370D01*
X8611389Y16633675D02*
X8620279Y16624785D01*
X8620279Y16615895D01*
X8611389Y16607005D01*
X8593584Y16607005D01*
X8584694Y16615895D01*
X7783121Y16546121D02*
X7783121Y16510510D01*
X7756425Y16510510D01*
X7765315Y16528315D01*
X7765315Y16537205D01*
X7756425Y16546121D01*
X7738620Y16546121D01*
X7729730Y16537205D01*
X7729730Y16519425D01*
X7738620Y16510510D01*
X7738620Y16489987D02*
X7729730Y16481071D01*
X7729730Y16463291D01*
X7738620Y16454401D01*
X7774205Y16454401D01*
X7783121Y16463291D01*
X7783121Y16481071D01*
X7774205Y16489987D01*
X7782079Y16753055D02*
X7746494Y16753055D01*
X7746494Y16779725D01*
X7764274Y16770835D01*
X7773189Y16770835D01*
X7782079Y16779725D01*
X7782079Y16797530D01*
X7773189Y16806420D01*
X7755384Y16806420D01*
X7746494Y16797530D01*
X7725945Y16806420D02*
X7690360Y16806420D01*
X7708165Y16806420D02*
X7708165Y16753055D01*
X7690360Y16770835D01*
X7669811Y16806420D02*
X7634226Y16806420D01*
X7652031Y16806420D02*
X7652031Y16753055D01*
X7634226Y16770835D01*
X7613677Y16761945D02*
X7613677Y16779725D01*
X7604787Y16788640D01*
X7578092Y16788640D01*
X7578092Y16806420D02*
X7578092Y16753055D01*
X7604787Y16753055D01*
X7613677Y16761945D01*
X7595897Y16788640D02*
X7613677Y16806420D01*
X7529121Y16802889D02*
X7502425Y16776194D01*
X7502425Y16811779D01*
X7475730Y16802889D02*
X7529121Y16802889D01*
X7529121Y16737865D02*
X7475730Y16737865D01*
X7475730Y16720060D02*
X7475730Y16755671D01*
X7511315Y16720060D02*
X7529121Y16737865D01*
X7529121Y16681731D02*
X7475730Y16681731D01*
X7475730Y16663951D02*
X7475730Y16699537D01*
X7511315Y16663951D02*
X7529121Y16681731D01*
X7520205Y16643403D02*
X7502425Y16643403D01*
X7493535Y16634513D01*
X7493535Y16607817D01*
X7493535Y16625597D02*
X7475730Y16643403D01*
X7475730Y16607817D02*
X7529121Y16607817D01*
X7529121Y16634513D01*
X7520205Y16643403D01*
X7529121Y16495321D02*
X7520205Y16477515D01*
X7502425Y16459710D01*
X7502425Y16486405D01*
X7493535Y16495321D01*
X7484620Y16495321D01*
X7475730Y16486405D01*
X7475730Y16468625D01*
X7484620Y16459710D01*
X7502425Y16459710D01*
X7520205Y16439187D02*
X7529121Y16430271D01*
X7529121Y16412491D01*
X7520205Y16403601D01*
X7484620Y16403601D01*
X7475730Y16412491D01*
X7475730Y16430271D01*
X7484620Y16439187D01*
X10571609Y10297670D02*
X10571609Y10244305D01*
X10598304Y10244305D01*
X10607194Y10253195D01*
X10607194Y10270975D01*
X10598304Y10279890D01*
X10571609Y10279890D01*
X10589414Y10279890D02*
X10607194Y10297670D01*
X10627743Y10297670D02*
X10627743Y10288780D01*
X10663328Y10253195D01*
X10663328Y10244305D01*
X10627743Y10244305D01*
X10683877Y10244305D02*
X10719462Y10244305D01*
X10719462Y10253195D01*
X10683877Y10288780D01*
X10683877Y10297670D01*
X8926121Y8612532D02*
X8872730Y8612532D01*
X8872730Y8594727D02*
X8872730Y8630338D01*
X8908315Y8594727D02*
X8926121Y8612532D01*
X8917205Y8574204D02*
X8926121Y8565288D01*
X8926121Y8547508D01*
X8917205Y8538593D01*
X8908315Y8538593D01*
X8899425Y8547508D01*
X8899425Y8574204D01*
X8917205Y8574204D02*
X8881620Y8574204D01*
X8872730Y8565288D01*
X8872730Y8547508D01*
X8881620Y8538593D01*
X8872730Y8518070D02*
X8890535Y8500264D01*
X8890535Y8509154D02*
X8890535Y8482484D01*
X8872730Y8482484D02*
X8926121Y8482484D01*
X8926121Y8509154D01*
X8917205Y8518070D01*
X8899425Y8518070D01*
X8890535Y8509154D01*
X8741971Y8523404D02*
X8741971Y8487793D01*
X8733055Y8467270D02*
X8741971Y8458354D01*
X8741971Y8440574D01*
X8733055Y8431684D01*
X8697470Y8431684D01*
X8688580Y8440574D01*
X8688580Y8458354D01*
X8697470Y8467270D01*
X8697470Y8487793D02*
X8688580Y8487793D01*
X8697470Y8487793D02*
X8733055Y8523404D01*
X8741971Y8523404D01*
X8733055Y8543927D02*
X8724165Y8543927D01*
X8715275Y8552842D01*
X8715275Y8570622D01*
X8706385Y8579538D01*
X8697470Y8579538D01*
X8688580Y8570622D01*
X8688580Y8552842D01*
X8697470Y8543927D01*
X8706385Y8543927D01*
X8715275Y8552842D01*
X8715275Y8570622D02*
X8724165Y8579538D01*
X8733055Y8579538D01*
X8741971Y8570622D01*
X8741971Y8552842D01*
X8733055Y8543927D01*
X8135012Y8538695D02*
X8099427Y8574280D01*
X8099427Y8583170D01*
X8078878Y8538695D02*
X8043293Y8574280D01*
X8043293Y8583170D01*
X8022744Y8574280D02*
X8013854Y8583170D01*
X7996049Y8583170D01*
X7987159Y8574280D01*
X7987159Y8538695D01*
X7996049Y8529805D01*
X8013854Y8529805D01*
X8022744Y8538695D01*
X8043293Y8529805D02*
X8078878Y8529805D01*
X8078878Y8538695D01*
X8099427Y8529805D02*
X8135012Y8529805D01*
X8135012Y8538695D01*
X8126122Y8297420D02*
X8135012Y8288530D01*
X8135012Y8279640D01*
X8126122Y8270725D01*
X8099427Y8270725D01*
X8099427Y8288530D01*
X8108317Y8297420D01*
X8126122Y8297420D01*
X8099427Y8270725D02*
X8117207Y8252945D01*
X8135012Y8244055D01*
X8078878Y8244055D02*
X8078878Y8252945D01*
X8043293Y8288530D01*
X8043293Y8297420D01*
X8022744Y8288530D02*
X8013854Y8297420D01*
X7996049Y8297420D01*
X7987159Y8288530D01*
X7987159Y8252945D01*
X7996049Y8244055D01*
X8013854Y8244055D01*
X8022744Y8252945D01*
X8043293Y8244055D02*
X8078878Y8244055D01*
X7373012Y7579870D02*
X7337427Y7579870D01*
X7355207Y7579870D02*
X7355207Y7526505D01*
X7337427Y7544285D01*
X7316878Y7544285D02*
X7307988Y7553175D01*
X7290183Y7553175D01*
X7281293Y7544285D01*
X7281293Y7535395D01*
X7290183Y7526505D01*
X7307988Y7526505D01*
X7316878Y7535395D01*
X7316878Y7544285D01*
X7307988Y7553175D02*
X7316878Y7562090D01*
X7316878Y7570980D01*
X7307988Y7579870D01*
X7290183Y7579870D01*
X7281293Y7570980D01*
X7281293Y7562090D01*
X7290183Y7553175D01*
X7260744Y7553175D02*
X7251854Y7562090D01*
X7225159Y7562090D01*
X7225159Y7579870D02*
X7225159Y7526505D01*
X7251854Y7526505D01*
X7260744Y7535395D01*
X7260744Y7553175D01*
X7242964Y7562090D02*
X7260744Y7579870D01*
D61*
X11287000Y16671800D02*
X11223500Y16735300D01*
D62*
X11287000Y16735300D02*
X11350500Y16671800D01*
D63*
X10652000Y14950950D03*
X9242300Y15681200D03*
X8289800Y16189200D03*
X8289800Y16189200D03*
X7858000Y16443200D03*
X8493000Y8639050D03*
D64*
X8015480Y16478760D02*
X8015429Y16480513D01*
X8015277Y16482240D01*
X8015023Y16483967D01*
X8014693Y16485669D01*
X8014235Y16487345D01*
X8013702Y16488996D01*
X8013067Y16490622D01*
X8012356Y16492197D01*
X8011543Y16493746D01*
X8010654Y16495245D01*
X8009663Y16496667D01*
X8008597Y16498064D01*
X8007454Y16499359D01*
X8006234Y16500629D01*
X8004964Y16501798D01*
X8003618Y16502890D01*
X8002196Y16503931D01*
X8000748Y16504871D01*
X7999224Y16505709D01*
X7997649Y16506497D01*
X7996049Y16507157D01*
X7994423Y16507741D01*
X7992747Y16508249D01*
X7991045Y16508630D01*
X7989343Y16508935D01*
X7987616Y16509138D01*
X7985864Y16509240D01*
X7984136Y16509240D01*
X7982384Y16509138D01*
X7980657Y16508935D01*
X7978955Y16508630D01*
X7977253Y16508249D01*
X7975577Y16507741D01*
X7973951Y16507157D01*
X7972351Y16506497D01*
X7970776Y16505709D01*
X7969252Y16504871D01*
X7967804Y16503931D01*
X7966382Y16502890D01*
X7965036Y16501798D01*
X7963766Y16500629D01*
X7962546Y16499359D01*
X7961403Y16498064D01*
X7960337Y16496667D01*
X7959346Y16495245D01*
X7958457Y16493746D01*
X7957644Y16492197D01*
X7956933Y16490622D01*
X7956298Y16488996D01*
X7955765Y16487345D01*
X7955307Y16485669D01*
X7954977Y16483967D01*
X7954723Y16482240D01*
X7954571Y16480513D01*
X7954520Y16478760D01*
D65*
X12272495Y7584518D03*
X11179507Y10431020D03*
X11179507Y12336020D03*
X10206255Y14100507D03*
X9412505Y15751507D03*
X7965493Y13159005D03*
X7965493Y11254005D03*
X8938745Y9489518D03*
X6872505Y8004507D03*
D66*
X9157489Y14128117D03*
M02*
