  0
SECTION
  2
HEADER
  9
$ACADVER
  1
AC1024
  9
$ACADMAINTVER
 70
6
  9
$DWGCODEPAGE
  3
ANSI_1252
  9
$LASTSAVEDBY
  1
ezdxf
  9
$INSBASE
 10
0.0
 20
0.0
 30
0.0
  9
$EXTMIN
 10
-100
 20
-100
 30
-100
  9
$EXTMAX
 10
100
 20
100
 30
100
  9
$LIMMIN
 10
0.0
 20
0.0
  9
$LIMMAX
 10
420.0
 20
297.0
  9
$ORTHOMODE
 70
0
  9
$REGENMODE
 70
1
  9
$FILLMODE
 70
1
  9
$QTEXTMODE
 70
0
  9
$MIRRTEXT
 70
1
  9
$LTSCALE
 40
1.0
  9
$ATTMODE
 70
1
  9
$TEXTSIZE
 40
2.5
  9
$TRACEWID
 40
1.0
  9
$TEXTSTYLE
  7
Standard
  9
$CLAYER
  8
0
  9
$CELTYPE
  6
ByLayer
  9
$CECOLOR
 62
256
  9
$CELTSCALE
 40
1.0
  9
$DISPSILH
 70
0
  9
$DIMSCALE
 40
1.0
  9
$DIMASZ
 40
2.5
  9
$DIMEXO
 40
0.625
  9
$DIMDLI
 40
3.75
  9
$DIMRND
 40
0.0
  9
$DIMDLE
 40
0.0
  9
$DIMEXE
 40
1.25
  9
$DIMTP
 40
0.0
  9
$DIMTM
 40
0.0
  9
$DIMTXT
 40
2.5
  9
$DIMCEN
 40
2.5
  9
$DIMTSZ
 40
0.0
  9
$DIMTOL
 70
0
  9
$DIMLIM
 70
0
  9
$DIMTIH
 70
0
  9
$DIMTOH
 70
0
  9
$DIMSE1
 70
0
  9
$DIMSE2
 70
0
  9
$DIMTAD
 70
1
  9
$DIMZIN
 70
8
  9
$DIMBLK
  1

  9
$DIMASO
 70
1
  9
$DIMSHO
 70
1
  9
$DIMPOST
  1

  9
$DIMAPOST
  1

  9
$DIMALT
 70
0
  9
$DIMALTD
 70
3
  9
$DIMALTF
 40
0.03937007874
  9
$DIMLFAC
 40
1.0
  9
$DIMTOFL
 70
1
  9
$DIMTVP
 40
0.0
  9
$DIMTIX
 70
0
  9
$DIMSOXD
 70
0
  9
$DIMSAH
 70
0
  9
$DIMBLK1
  1

  9
$DIMBLK2
  1

  9
$DIMSTYLE
  2
ISO-25
  9
$DIMCLRD
 70
0
  9
$DIMCLRE
 70
0
  9
$DIMCLRT
 70
0
  9
$DIMTFAC
 40
1.0
  9
$DIMGAP
 40
0.625
  9
$DIMJUST
 70
0
  9
$DIMSD1
 70
0
  9
$DIMSD2
 70
0
  9
$DIMTOLJ
 70
0
  9
$DIMTZIN
 70
8
  9
$DIMALTZ
 70
0
  9
$DIMALTTZ
 70
0
  9
$DIMUPT
 70
0
  9
$DIMDEC
 70
2
  9
$DIMTDEC
 70
2
  9
$DIMALTU
 70
2
  9
$DIMALTTD
 70
3
  9
$DIMTXSTY
  7
Standard
  9
$DIMAUNIT
 70
0
  9
$DIMADEC
 70
0
  9
$DIMALTRND
 40
0.0
  9
$DIMAZIN
 70
0
  9
$DIMDSEP
 70
44
  9
$DIMATFIT
 70
3
  9
$DIMFRAC
 70
0
  9
$DIMLDRBLK
  1

  9
$DIMLUNIT
 70
2
  9
$DIMLWD
 70
-2
  9
$DIMLWE
 70
-2
  9
$DIMTMOVE
 70
0
  9
$DIMFXL
 40
1.0
  9
$DIMFXLON
 70
0
  9
$DIMJOGANG
 40
0.785398163397
  9
$DIMTFILL
 70
0
  9
$DIMTFILLCLR
 70
0
  9
$DIMARCSYM
 70
0
  9
$DIMLTYPE
  6

  9
$DIMLTEX1
  6

  9
$DIMLTEX2
  6

  9
$DIMTXTDIRECTION
 70
0
  9
$LUNITS
 70
2
  9
$LUPREC
 70
4
  9
$SKETCHINC
 40
1.0
  9
$FILLETRAD
 40
10.0
  9
$AUNITS
 70
0
  9
$AUPREC
 70
2
  9
$MENU
  1
.
  9
$ELEVATION
 40
0.0
  9
$PELEVATION
 40
0.0
  9
$THICKNESS
 40
0.0
  9
$LIMCHECK
 70
0
  9
$CHAMFERA
 40
0.0
  9
$CHAMFERB
 40
0.0
  9
$CHAMFERC
 40
0.0
  9
$CHAMFERD
 40
0.0
  9
$SKPOLY
 70
0
  9
$TDCREATE
 40
2459044.8127662037
  9
$TDUCREATE
 40
2458532.153996898
  9
$TDUPDATE
 40
2459044.813113426
  9
$TDUUPDATE
 40
2458532.1544311
  9
$TDINDWG
 40
0.0
  9
$TDUSRTIMER
 40
0.0
  9
$USRTIMER
 70
1
  9
$ANGBASE
 50
0.0
  9
$ANGDIR
 70
0
  9
$PDMODE
 70
0
  9
$PDSIZE
 40
0.0
  9
$PLINEWID
 40
0.0
  9
$SPLFRAME
 70
0
  9
$SPLINETYPE
 70
6
  9
$SPLINESEGS
 70
8
  9
$HANDSEED
  5
49
  9
$SURFTAB1
 70
6
  9
$SURFTAB2
 70
6
  9
$SURFTYPE
 70
6
  9
$SURFU
 70
6
  9
$SURFV
 70
6
  9
$UCSBASE
  2

  9
$UCSNAME
  2

  9
$UCSORG
 10
0.0
 20
0.0
 30
0.0
  9
$UCSXDIR
 10
1.0
 20
0.0
 30
0.0
  9
$UCSYDIR
 10
0.0
 20
1.0
 30
0.0
  9
$UCSORTHOREF
  2

  9
$UCSORTHOVIEW
 70
0
  9
$UCSORGTOP
 10
0.0
 20
0.0
 30
0.0
  9
$UCSORGBOTTOM
 10
0.0
 20
0.0
 30
0.0
  9
$UCSORGLEFT
 10
0.0
 20
0.0
 30
0.0
  9
$UCSORGRIGHT
 10
0.0
 20
0.0
 30
0.0
  9
$UCSORGFRONT
 10
0.0
 20
0.0
 30
0.0
  9
$UCSORGBACK
 10
0.0
 20
0.0
 30
0.0
  9
$PUCSBASE
  2

  9
$PUCSNAME
  2

  9
$PUCSORG
 10
0.0
 20
0.0
 30
0.0
  9
$PUCSXDIR
 10
1.0
 20
0.0
 30
0.0
  9
$PUCSYDIR
 10
0.0
 20
1.0
 30
0.0
  9
$PUCSORTHOREF
  2

  9
$PUCSORTHOVIEW
 70
0
  9
$PUCSORGTOP
 10
0.0
 20
0.0
 30
0.0
  9
$PUCSORGBOTTOM
 10
0.0
 20
0.0
 30
0.0
  9
$PUCSORGLEFT
 10
0.0
 20
0.0
 30
0.0
  9
$PUCSORGRIGHT
 10
0.0
 20
0.0
 30
0.0
  9
$PUCSORGFRONT
 10
0.0
 20
0.0
 30
0.0
  9
$PUCSORGBACK
 10
0.0
 20
0.0
 30
0.0
  9
$USERI1
 70
0
  9
$USERI2
 70
0
  9
$USERI3
 70
0
  9
$USERI4
 70
0
  9
$USERI5
 70
0
  9
$USERR1
 40
0.0
  9
$USERR2
 40
0.0
  9
$USERR3
 40
0.0
  9
$USERR4
 40
0.0
  9
$USERR5
 40
0.0
  9
$WORLDVIEW
 70
1
  9
$SHADEDGE
 70
3
  9
$SHADEDIF
 70
70
  9
$TILEMODE
 70
1
  9
$MAXACTVP
 70
64
  9
$PINSBASE
 10
0.0
 20
0.0
 30
0.0
  9
$PLIMCHECK
 70
0
  9
$PEXTMIN
 10
1e+20
 20
1e+20
 30
1e+20
  9
$PEXTMAX
 10
-1e+20
 20
-1e+20
 30
-1e+20
  9
$PLIMMIN
 10
0.0
 20
0.0
  9
$PLIMMAX
 10
420.0
 20
297.0
  9
$UNITMODE
 70
0
  9
$VISRETAIN
 70
1
  9
$PLINEGEN
 70
0
  9
$PSLTSCALE
 70
1
  9
$TREEDEPTH
 70
3020
  9
$CMLSTYLE
  2
Standard
  9
$CMLJUST
 70
0
  9
$CMLSCALE
 40
20.0
  9
$PROXYGRAPHICS
 70
1
  9
$MEASUREMENT
 70
1
  9
$CELWEIGHT
370
-1
  9
$ENDCAPS
280
0
  9
$JOINSTYLE
280
0
  9
$LWDISPLAY
290
0
  9
$INSUNITS
 70
6
  9
$HYPERLINKBASE
  1

  9
$STYLESHEET
  1

  9
$XEDIT
290
1
  9
$CEPSNTYPE
380
0
  9
$PSTYLEMODE
290
1
  9
$FINGERPRINTGUID
  2
881A472C-C52E-11EA-B4C3-2477031981F4
  9
$VERSIONGUID
  2
9A20419C-C52E-11EA-B4C3-2477031981F4
  9
$EXTNAMES
290
1
  9
$PSVPSCALE
 40
0.0
  9
$OLESTARTUP
290
0
  9
$SORTENTS
280
127
  9
$INDEXCTL
280
0
  9
$HIDETEXT
280
1
  9
$XCLIPFRAME
280
2
  9
$HALOGAP
280
0
  9
$OBSCOLOR
 70
257
  9
$OBSLTYPE
280
0
  9
$INTERSECTIONDISPLAY
280
0
  9
$INTERSECTIONCOLOR
 70
257
  9
$DIMASSOC
280
2
  9
$PROJECTNAME
  1

  9
$CAMERADISPLAY
290
0
  9
$LENSLENGTH
 40
50.0
  9
$CAMERAHEIGHT
 40
0.0
  9
$STEPSPERSEC
 40
24.0
  9
$STEPSIZE
 40
100.0
  9
$3DDWFPREC
 40
2.0
  9
$PSOLWIDTH
 40
0.005
  9
$PSOLHEIGHT
 40
0.08
  9
$LOFTANG1
 40
1.570796326795
  9
$LOFTANG2
 40
1.570796326795
  9
$LOFTMAG1
 40
0.0
  9
$LOFTMAG2
 40
0.0
  9
$LOFTPARAM
 70
7
  9
$LOFTNORMALS
280
1
  9
$LATITUDE
 40
37.795
  9
$LONGITUDE
 40
-122.394
  9
$NORTHDIRECTION
 40
0.0
  9
$TIMEZONE
 70
-8000
  9
$LIGHTGLYPHDISPLAY
280
1
  9
$TILEMODELIGHTSYNCH
280
1
  9
$CMATERIAL
347
20
  9
$SOLIDHIST
280
0
  9
$SHOWHIST
280
1
  9
$DWFFRAME
280
2
  9
$DGNFRAME
280
2
  9
$REALWORLDSCALE
290
1
  9
$INTERFERECOLOR
 62
256
  9
$CSHADOW
280
0
  9
$SHADOWPLANELOCATION
 40
0.0
  0
ENDSEC
  0
SECTION
  2
CLASSES
  0
CLASS
  1
ACDBDICTIONARYWDFLT
  2
AcDbDictionaryWithDefault
  3
ObjectDBX Classes
 90
0
 91
0
280
0
281
0
  0
CLASS
  1
SUN
  2
AcDbSun
  3
SCENEOE
 90
1153
 91
0
280
0
281
0
  0
CLASS
  1
VISUALSTYLE
  2
AcDbVisualStyle
  3
ObjectDBX Classes
 90
4095
 91
0
280
0
281
0
  0
CLASS
  1
MATERIAL
  2
AcDbMaterial
  3
ObjectDBX Classes
 90
1153
 91
0
280
0
281
0
  0
CLASS
  1
SCALE
  2
AcDbScale
  3
ObjectDBX Classes
 90
1153
 91
0
280
0
281
0
  0
CLASS
  1
TABLESTYLE
  2
AcDbTableStyle
  3
ObjectDBX Classes
 90
4095
 91
0
280
0
281
0
  0
CLASS
  1
MLEADERSTYLE
  2
AcDbMLeaderStyle
  3
ACDB_MLEADERSTYLE_CLASS
 90
4095
 91
0
280
0
281
0
  0
CLASS
  1
DICTIONARYVAR
  2
AcDbDictionaryVar
  3
ObjectDBX Classes
 90
0
 91
0
280
0
281
0
  0
CLASS
  1
CELLSTYLEMAP
  2
AcDbCellStyleMap
  3
ObjectDBX Classes
 90
1152
 91
0
280
0
281
0
  0
CLASS
  1
MENTALRAYRENDERSETTINGS
  2
AcDbMentalRayRenderSettings
  3
SCENEOE
 90
1024
 91
0
280
0
281
0
  0
CLASS
  1
ACDBDETAILVIEWSTYLE
  2
AcDbDetailViewStyle
  3
ObjectDBX Classes
 90
1025
 91
0
280
0
281
0
  0
CLASS
  1
ACDBSECTIONVIEWSTYLE
  2
AcDbSectionViewStyle
  3
ObjectDBX Classes
 90
1025
 91
0
280
0
281
0
  0
CLASS
  1
RASTERVARIABLES
  2
AcDbRasterVariables
  3
ISM
 90
0
 91
0
280
0
281
0
  0
CLASS
  1
LAYOUT
  2
AcDbLayout
  3
ObjectDBX Classes
 90
0
 91
0
280
0
281
0
  0
CLASS
  1
ACDBPLACEHOLDER
  2
AcDbPlaceHolder
  3
ObjectDBX Classes
 90
0
 91
0
280
0
281
0
  0
ENDSEC
  0
SECTION
  2
TABLES
  0
TABLE
  2
VPORT
  5
8
330
0
100
AcDbSymbolTable
 70
1
  0
VPORT
  5
23
330
8
100
AcDbSymbolTableRecord
100
AcDbViewportTableRecord
  2
*Active
 70
0
 10
0.0
 20
0.0
 11
1.0
 21
1.0
 12
70.0
 22
50.0
 13
0.0
 23
0.0
 14
0.5
 24
0.5
 15
0.5
 25
0.5
 16
0.0
 26
0.0
 36
1.0
 17
0.0
 27
0.0
 37
0.0
 40
1.0
 41
1.34
 42
50.0
 43
0.0
 44
0.0
 50
0.0
 51
0.0
 71
0
 72
1000
 73
1
 74
3
 75
0
 76
0
 77
0
 78
0
281
0
 65
0
146
0.0
  0
ENDTAB
  0
TABLE
  2
LTYPE
  5
2
330
0
100
AcDbSymbolTable
 70
3
  0
LTYPE
  5
24
330
2
100
AcDbSymbolTableRecord
100
AcDbLinetypeTableRecord
  2
ByBlock
 70
0
  3

 72
65
 73
0
 40
0.0
  0
LTYPE
  5
25
330
2
100
AcDbSymbolTableRecord
100
AcDbLinetypeTableRecord
  2
ByLayer
 70
0
  3

 72
65
 73
0
 40
0.0
  0
LTYPE
  5
26
330
2
100
AcDbSymbolTableRecord
100
AcDbLinetypeTableRecord
  2
Continuous
 70
0
  3

 72
65
 73
0
 40
0.0
  0
ENDTAB
  0
TABLE
  2
LAYER
  5
1
330
0
100
AcDbSymbolTable
 70
2
  0
LAYER
  5
27
330
1
100
AcDbSymbolTableRecord
100
AcDbLayerTableRecord
  2
0
 70
0
 62
7
  6
Continuous
370
-3
390
13
347
21
  0
LAYER
  5
28
330
1
100
AcDbSymbolTableRecord
100
AcDbLayerTableRecord
  2
Defpoints
 70
0
 62
7
  6
Continuous
290
0
370
-3
390
13
347
21
  0
ENDTAB
  0
TABLE
  2
STYLE
  5
5
330
0
100
AcDbSymbolTable
 70
1
  0
STYLE
  5
29
330
5
100
AcDbSymbolTableRecord
100
AcDbTextStyleTableRecord
  2
Standard
 70
0
 40
0.0
 41
1.0
 50
0.0
 71
0
 42
2.5
  3
txt
  4

  0
ENDTAB
  0
TABLE
  2
VIEW
  5
7
330
0
100
AcDbSymbolTable
 70
0
  0
ENDTAB
  0
TABLE
  2
UCS
  5
6
330
0
100
AcDbSymbolTable
 70
0
  0
ENDTAB
  0
TABLE
  2
APPID
  5
3
330
0
100
AcDbSymbolTable
 70
1
  0
APPID
  5
2A
330
3
100
AcDbSymbolTableRecord
100
AcDbRegAppTableRecord
  2
ACAD
 70
0
  0
ENDTAB
  0
TABLE
  2
DIMSTYLE
  5
4
330
0
100
AcDbSymbolTable
 70
1
100
AcDbDimStyleTable
  0
DIMSTYLE
105
2B
330
4
100
AcDbSymbolTableRecord
100
AcDbDimStyleTableRecord
  2
Standard
 70
0
 40
1.0
 41
2.5
 42
0.625
 43
3.75
 44
1.25
 45
0.0
 46
0.0
 47
0.0
 48
0.0
 49
2.5
140
2.5
141
2.5
142
0.0
143
0.03937007874
144
1.0
145
0.0
146
1.0
147
0.625
148
0.0
 69
0
 70
0
 71
0
 72
0
 73
0
 74
0
 75
0
 76
0
 77
1
 78
8
 79
0
170
0
171
3
172
1
173
0
174
0
175
0
176
0
177
0
178
0
179
0
271
0
272
2
273
2
274
3
275
0
276
0
277
2
278
44
279
0
280
0
281
0
282
0
283
0
284
8
285
0
286
0
288
0
289
3
290
0
371
-2
372
-2
  0
ENDTAB
  0
TABLE
  2
BLOCK_RECORD
  5
9
330
0
100
AcDbSymbolTable
 70
2
  0
BLOCK_RECORD
  5
17
330
9
100
AcDbSymbolTableRecord
100
AcDbBlockTableRecord
  2
*Model_Space
340
1A
 70
0
280
1
281
0
  0
BLOCK_RECORD
  5
1B
330
9
100
AcDbSymbolTableRecord
100
AcDbBlockTableRecord
  2
*Paper_Space
340
1E
 70
0
280
1
281
0
  0
ENDTAB
  0
ENDSEC
  0
SECTION
  2
BLOCKS
  0
BLOCK
  5
18
330
17
100
AcDbEntity
  8
0
100
AcDbBlockBegin
  2
*Model_Space
 70
0
 10
0.0
 20
0.0
 30
0.0
  3
*Model_Space
  1

  0
ENDBLK
  5
19
330
17
100
AcDbEntity
  8
0
100
AcDbBlockEnd
  0
BLOCK
  5
1C
330
1B
100
AcDbEntity
  8
0
100
AcDbBlockBegin
  2
*Paper_Space
 70
0
 10
0.0
 20
0.0
 30
0.0
  3
*Paper_Space
  1

  0
ENDBLK
  5
1D
330
1B
100
AcDbEntity
  8
0
100
AcDbBlockEnd
  0
ENDSEC
  0
SECTION
  2
ENTITIES
  0
LWPOLYLINE
  5
2D
330
17
100
AcDbEntity
  8
0
100
AcDbPolyline
 90
4
 70
1
 10
0.0
 20
0.0
 10
131.8
 20
0.0
 10
131.8
 20
186.41000000000003
 10
0.0
 20
186.41000000000003
  0
LWPOLYLINE
  5
2E
330
17
100
AcDbEntity
  8
0
100
AcDbPolyline
 90
85
 70
0
 10
124.3
 20
168.75
 10
107.94
 20
168.75
 10
107.817478575
 20
168.756019092
 10
107.696137097
 20
168.774018399
 10
107.577144153
 20
168.80382458
 10
107.46164571
 20
168.845150584
 10
107.350754079
 20
168.89759842
 10
107.245537209
 20
168.960662985
 10
107.147008395
 20
169.033736933
 10
107.056116524
 20
169.116116524
 10
106.973736933
 20
169.207008395
 10
106.900662985
 20
169.305537209
 10
106.83759842
 20
169.410754079
 10
106.785150584
 20
169.52164571
 10
106.74382458
 20
169.637144153
 10
106.714018399
 20
169.756137097
 10
106.696019092
 20
169.877478575
 10
106.69
 20
170.0
 10
106.696019092
 20
170.122521425
 10
106.714018399
 20
170.243862903
 10
106.74382458
 20
170.362855847
 10
106.785150584
 20
170.47835429
 10
106.83759842
 20
170.589245921
 10
106.900662985
 20
170.694462791
 10
106.973736933
 20
170.792991605
 10
107.056116524
 20
170.883883476
 10
107.147008395
 20
170.966263067
 10
107.245537209
 20
171.039337015
 10
107.350754079
 20
171.10240158
 10
107.46164571
 20
171.154849416
 10
107.577144153
 20
171.19617542
 10
107.696137097
 20
171.225981601
 10
107.817478575
 20
171.243980908
 10
107.94
 20
171.25
 10
125.55
 20
171.25
 10
125.672521425
 20
171.243980908
 10
125.793862903
 20
171.225981601
 10
125.912855847
 20
171.19617542
 10
126.02835429
 20
171.154849416
 10
126.139245921
 20
171.10240158
 10
126.244462791
 20
171.039337015
 10
126.342991605
 20
170.966263067
 10
126.433883476
 20
170.883883476
 10
126.516263067
 20
170.792991605
 10
126.589337015
 20
170.694462791
 10
126.65240158
 20
170.589245921
 10
126.704849416
 20
170.47835429
 10
126.74617542
 20
170.362855847
 10
126.775981601
 20
170.243862903
 10
126.793980908
 20
170.122521425
 10
126.8
 20
170.0
 10
126.8
 20
162.28
 10
126.793980908
 20
162.157478575
 10
126.775981601
 20
162.036137097
 10
126.74617542
 20
161.917144153
 10
126.704849416
 20
161.80164571
 10
126.65240158
 20
161.690754079
 10
126.589337015
 20
161.585537209
 10
126.516263067
 20
161.487008395
 10
126.433883476
 20
161.396116524
 10
126.342991605
 20
161.313736933
 10
126.244462791
 20
161.240662985
 10
126.139245921
 20
161.17759842
 10
126.02835429
 20
161.125150584
 10
125.912855847
 20
161.08382458
 10
125.793862903
 20
161.054018399
 10
125.672521425
 20
161.036019092
 10
125.55
 20
161.03
 10
125.427478575
 20
161.036019092
 10
125.306137097
 20
161.054018399
 10
125.187144153
 20
161.08382458
 10
125.07164571
 20
161.125150584
 10
124.960754079
 20
161.17759842
 10
124.855537209
 20
161.240662985
 10
124.757008395
 20
161.313736933
 10
124.666116524
 20
161.396116524
 10
124.583736933
 20
161.487008395
 10
124.510662985
 20
161.585537209
 10
124.44759842
 20
161.690754079
 10
124.395150584
 20
161.80164571
 10
124.35382458
 20
161.917144153
 10
124.324018399
 20
162.036137097
 10
124.306019092
 20
162.157478575
 10
124.3
 20
162.28
 10
124.3
 20
168.75
  0
LWPOLYLINE
  5
2F
330
17
100
AcDbEntity
  8
0
100
AcDbPolyline
 90
67
 70
0
 10
124.3
 20
157.28
 10
124.306019092
 20
157.402521425
 10
124.324018399
 20
157.523862903
 10
124.35382458
 20
157.642855847
 10
124.395150584
 20
157.75835429
 10
124.44759842
 20
157.869245921
 10
124.510662985
 20
157.974462791
 10
124.583736933
 20
158.072991605
 10
124.666116524
 20
158.163883476
 10
124.757008395
 20
158.246263067
 10
124.855537209
 20
158.319337015
 10
124.960754079
 20
158.38240158
 10
125.07164571
 20
158.434849416
 10
125.187144153
 20
158.47617542
 10
125.306137097
 20
158.505981601
 10
125.427478575
 20
158.523980908
 10
125.55
 20
158.53
 10
125.672521425
 20
158.523980908
 10
125.793862903
 20
158.505981601
 10
125.912855847
 20
158.47617542
 10
126.02835429
 20
158.434849416
 10
126.139245921
 20
158.38240158
 10
126.244462791
 20
158.319337015
 10
126.342991605
 20
158.246263067
 10
126.433883476
 20
158.163883476
 10
126.516263067
 20
158.072991605
 10
126.589337015
 20
157.974462791
 10
126.65240158
 20
157.869245921
 10
126.704849416
 20
157.75835429
 10
126.74617542
 20
157.642855847
 10
126.775981601
 20
157.523862903
 10
126.793980908
 20
157.402521425
 10
126.8
 20
157.28
 10
126.8
 20
135.65
 10
126.793980908
 20
135.527478575
 10
126.775981601
 20
135.406137097
 10
126.74617542
 20
135.287144153
 10
126.704849416
 20
135.17164571
 10
126.65240158
 20
135.060754079
 10
126.589337015
 20
134.955537209
 10
126.516263067
 20
134.857008395
 10
126.433883476
 20
134.766116524
 10
126.342991605
 20
134.683736933
 10
126.244462791
 20
134.610662985
 10
126.139245921
 20
134.54759842
 10
126.02835429
 20
134.495150584
 10
125.912855847
 20
134.45382458
 10
125.793862903
 20
134.424018399
 10
125.672521425
 20
134.406019092
 10
125.55
 20
134.4
 10
125.427478575
 20
134.406019092
 10
125.306137097
 20
134.424018399
 10
125.187144153
 20
134.45382458
 10
125.07164571
 20
134.495150584
 10
124.960754079
 20
134.54759842
 10
124.855537209
 20
134.610662985
 10
124.757008395
 20
134.683736933
 10
124.666116524
 20
134.766116524
 10
124.583736933
 20
134.857008395
 10
124.510662985
 20
134.955537209
 10
124.44759842
 20
135.060754079
 10
124.395150584
 20
135.17164571
 10
124.35382458
 20
135.287144153
 10
124.324018399
 20
135.406137097
 10
124.306019092
 20
135.527478575
 10
124.3
 20
135.65
 10
124.3
 20
157.28
  0
LWPOLYLINE
  5
30
330
17
100
AcDbEntity
  8
0
100
AcDbPolyline
 90
67
 70
0
 10
124.3
 20
130.65
 10
124.306019092
 20
130.772521425
 10
124.324018399
 20
130.893862903
 10
124.35382458
 20
131.012855847
 10
124.395150584
 20
131.12835429
 10
124.44759842
 20
131.239245921
 10
124.510662985
 20
131.344462791
 10
124.583736933
 20
131.442991605
 10
124.666116524
 20
131.533883476
 10
124.757008395
 20
131.616263067
 10
124.855537209
 20
131.689337015
 10
124.960754079
 20
131.75240158
 10
125.07164571
 20
131.804849416
 10
125.187144153
 20
131.84617542
 10
125.306137097
 20
131.875981601
 10
125.427478575
 20
131.893980908
 10
125.55
 20
131.9
 10
125.672521425
 20
131.893980908
 10
125.793862903
 20
131.875981601
 10
125.912855847
 20
131.84617542
 10
126.02835429
 20
131.804849416
 10
126.139245921
 20
131.75240158
 10
126.244462791
 20
131.689337015
 10
126.342991605
 20
131.616263067
 10
126.433883476
 20
131.533883476
 10
126.516263067
 20
131.442991605
 10
126.589337015
 20
131.344462791
 10
126.65240158
 20
131.239245921
 10
126.704849416
 20
131.12835429
 10
126.74617542
 20
131.012855847
 10
126.775981601
 20
130.893862903
 10
126.793980908
 20
130.772521425
 10
126.8
 20
130.65
 10
126.8
 20
109.02
 10
126.793980908
 20
108.897478575
 10
126.775981601
 20
108.776137097
 10
126.74617542
 20
108.657144153
 10
126.704849416
 20
108.54164571
 10
126.65240158
 20
108.430754079
 10
126.589337015
 20
108.325537209
 10
126.516263067
 20
108.227008395
 10
126.433883476
 20
108.136116524
 10
126.342991605
 20
108.053736933
 10
126.244462791
 20
107.980662985
 10
126.139245921
 20
107.91759842
 10
126.02835429
 20
107.865150584
 10
125.912855847
 20
107.82382458
 10
125.793862903
 20
107.794018399
 10
125.672521425
 20
107.776019092
 10
125.55
 20
107.77
 10
125.427478575
 20
107.776019092
 10
125.306137097
 20
107.794018399
 10
125.187144153
 20
107.82382458
 10
125.07164571
 20
107.865150584
 10
124.960754079
 20
107.91759842
 10
124.855537209
 20
107.980662985
 10
124.757008395
 20
108.053736933
 10
124.666116524
 20
108.136116524
 10
124.583736933
 20
108.227008395
 10
124.510662985
 20
108.325537209
 10
124.44759842
 20
108.430754079
 10
124.395150584
 20
108.54164571
 10
124.35382458
 20
108.657144153
 10
124.324018399
 20
108.776137097
 10
124.306019092
 20
108.897478575
 10
124.3
 20
109.02
 10
124.3
 20
130.65
  0
LWPOLYLINE
  5
31
330
17
100
AcDbEntity
  8
0
100
AcDbPolyline
 90
67
 70
0
 10
124.3
 20
104.02
 10
124.306019092
 20
104.142521425
 10
124.324018399
 20
104.263862903
 10
124.35382458
 20
104.382855847
 10
124.395150584
 20
104.49835429
 10
124.44759842
 20
104.609245921
 10
124.510662985
 20
104.714462791
 10
124.583736933
 20
104.812991605
 10
124.666116524
 20
104.903883476
 10
124.757008395
 20
104.986263067
 10
124.855537209
 20
105.059337015
 10
124.960754079
 20
105.12240158
 10
125.07164571
 20
105.174849416
 10
125.187144153
 20
105.21617542
 10
125.306137097
 20
105.245981601
 10
125.427478575
 20
105.263980908
 10
125.55
 20
105.27
 10
125.672521425
 20
105.263980908
 10
125.793862903
 20
105.245981601
 10
125.912855847
 20
105.21617542
 10
126.02835429
 20
105.174849416
 10
126.139245921
 20
105.12240158
 10
126.244462791
 20
105.059337015
 10
126.342991605
 20
104.986263067
 10
126.433883476
 20
104.903883476
 10
126.516263067
 20
104.812991605
 10
126.589337015
 20
104.714462791
 10
126.65240158
 20
104.609245921
 10
126.704849416
 20
104.49835429
 10
126.74617542
 20
104.382855847
 10
126.775981601
 20
104.263862903
 10
126.793980908
 20
104.142521425
 10
126.8
 20
104.02
 10
126.8
 20
82.39
 10
126.793980908
 20
82.267478575
 10
126.775981601
 20
82.146137097
 10
126.74617542
 20
82.027144153
 10
126.704849416
 20
81.91164571
 10
126.65240158
 20
81.800754079
 10
126.589337015
 20
81.695537209
 10
126.516263067
 20
81.597008395
 10
126.433883476
 20
81.506116524
 10
126.342991605
 20
81.423736933
 10
126.244462791
 20
81.350662985
 10
126.139245921
 20
81.28759842
 10
126.02835429
 20
81.235150584
 10
125.912855847
 20
81.19382458
 10
125.793862903
 20
81.164018399
 10
125.672521425
 20
81.146019092
 10
125.55
 20
81.14
 10
125.427478575
 20
81.146019092
 10
125.306137097
 20
81.164018399
 10
125.187144153
 20
81.19382458
 10
125.07164571
 20
81.235150584
 10
124.960754079
 20
81.28759842
 10
124.855537209
 20
81.350662985
 10
124.757008395
 20
81.423736933
 10
124.666116524
 20
81.506116524
 10
124.583736933
 20
81.597008395
 10
124.510662985
 20
81.695537209
 10
124.44759842
 20
81.800754079
 10
124.395150584
 20
81.91164571
 10
124.35382458
 20
82.027144153
 10
124.324018399
 20
82.146137097
 10
124.306019092
 20
82.267478575
 10
124.3
 20
82.39
 10
124.3
 20
104.02
  0
LWPOLYLINE
  5
32
330
17
100
AcDbEntity
  8
0
100
AcDbPolyline
 90
67
 70
0
 10
124.3
 20
50.76
 10
124.306019092
 20
50.882521425
 10
124.324018399
 20
51.003862903
 10
124.35382458
 20
51.122855847
 10
124.395150584
 20
51.23835429
 10
124.44759842
 20
51.349245921
 10
124.510662985
 20
51.454462791
 10
124.583736933
 20
51.552991605
 10
124.666116524
 20
51.643883476
 10
124.757008395
 20
51.726263067
 10
124.855537209
 20
51.799337015
 10
124.960754079
 20
51.86240158
 10
125.07164571
 20
51.914849416
 10
125.187144153
 20
51.95617542
 10
125.306137097
 20
51.985981601
 10
125.427478575
 20
52.003980908
 10
125.55
 20
52.01
 10
125.672521425
 20
52.003980908
 10
125.793862903
 20
51.985981601
 10
125.912855847
 20
51.95617542
 10
126.02835429
 20
51.914849416
 10
126.139245921
 20
51.86240158
 10
126.244462791
 20
51.799337015
 10
126.342991605
 20
51.726263067
 10
126.433883476
 20
51.643883476
 10
126.516263067
 20
51.552991605
 10
126.589337015
 20
51.454462791
 10
126.65240158
 20
51.349245921
 10
126.704849416
 20
51.23835429
 10
126.74617542
 20
51.122855847
 10
126.775981601
 20
51.003862903
 10
126.793980908
 20
50.882521425
 10
126.8
 20
50.76
 10
126.8
 20
29.13
 10
126.793980908
 20
29.007478575
 10
126.775981601
 20
28.886137097
 10
126.74617542
 20
28.767144153
 10
126.704849416
 20
28.65164571
 10
126.65240158
 20
28.540754079
 10
126.589337015
 20
28.435537209
 10
126.516263067
 20
28.337008395
 10
126.433883476
 20
28.246116524
 10
126.342991605
 20
28.163736933
 10
126.244462791
 20
28.090662985
 10
126.139245921
 20
28.02759842
 10
126.02835429
 20
27.975150584
 10
125.912855847
 20
27.93382458
 10
125.793862903
 20
27.904018399
 10
125.672521425
 20
27.886019092
 10
125.55
 20
27.88
 10
125.427478575
 20
27.886019092
 10
125.306137097
 20
27.904018399
 10
125.187144153
 20
27.93382458
 10
125.07164571
 20
27.975150584
 10
124.960754079
 20
28.02759842
 10
124.855537209
 20
28.090662985
 10
124.757008395
 20
28.163736933
 10
124.666116524
 20
28.246116524
 10
124.583736933
 20
28.337008395
 10
124.510662985
 20
28.435537209
 10
124.44759842
 20
28.540754079
 10
124.395150584
 20
28.65164571
 10
124.35382458
 20
28.767144153
 10
124.324018399
 20
28.886137097
 10
124.306019092
 20
29.007478575
 10
124.3
 20
29.13
 10
124.3
 20
50.76
  0
LWPOLYLINE
  5
33
330
17
100
AcDbEntity
  8
0
100
AcDbPolyline
 90
85
 70
0
 10
124.3
 20
7.5
 10
124.3
 20
24.13
 10
124.306019092
 20
24.252521425
 10
124.324018399
 20
24.373862903
 10
124.35382458
 20
24.492855847
 10
124.395150584
 20
24.60835429
 10
124.44759842
 20
24.719245921
 10
124.510662985
 20
24.824462791
 10
124.583736933
 20
24.922991605
 10
124.666116524
 20
25.013883476
 10
124.757008395
 20
25.096263067
 10
124.855537209
 20
25.169337015
 10
124.960754079
 20
25.23240158
 10
125.07164571
 20
25.284849416
 10
125.187144153
 20
25.32617542
 10
125.306137097
 20
25.355981601
 10
125.427478575
 20
25.373980908
 10
125.55
 20
25.38
 10
125.672521425
 20
25.373980908
 10
125.793862903
 20
25.355981601
 10
125.912855847
 20
25.32617542
 10
126.02835429
 20
25.284849416
 10
126.139245921
 20
25.23240158
 10
126.244462791
 20
25.169337015
 10
126.342991605
 20
25.096263067
 10
126.433883476
 20
25.013883476
 10
126.516263067
 20
24.922991605
 10
126.589337015
 20
24.824462791
 10
126.65240158
 20
24.719245921
 10
126.704849416
 20
24.60835429
 10
126.74617542
 20
24.492855847
 10
126.775981601
 20
24.373862903
 10
126.793980908
 20
24.252521425
 10
126.8
 20
24.13
 10
126.8
 20
6.25
 10
126.793980908
 20
6.127478575
 10
126.775981601
 20
6.006137097
 10
126.74617542
 20
5.887144153
 10
126.704849416
 20
5.77164571
 10
126.65240158
 20
5.660754079
 10
126.589337015
 20
5.555537209
 10
126.516263067
 20
5.457008395
 10
126.433883476
 20
5.366116524
 10
126.342991605
 20
5.283736933
 10
126.244462791
 20
5.210662985
 10
126.139245921
 20
5.14759842
 10
126.02835429
 20
5.095150584
 10
125.912855847
 20
5.05382458
 10
125.793862903
 20
5.024018399
 10
125.672521425
 20
5.006019092
 10
125.55
 20
5.0
 10
107.94
 20
5.0
 10
107.817478575
 20
5.006019092
 10
107.696137097
 20
5.024018399
 10
107.577144153
 20
5.05382458
 10
107.46164571
 20
5.095150584
 10
107.350754079
 20
5.14759842
 10
107.245537209
 20
5.210662985
 10
107.147008395
 20
5.283736933
 10
107.056116524
 20
5.366116524
 10
106.973736933
 20
5.457008395
 10
106.900662985
 20
5.555537209
 10
106.83759842
 20
5.660754079
 10
106.785150584
 20
5.77164571
 10
106.74382458
 20
5.887144153
 10
106.714018399
 20
6.006137097
 10
106.696019092
 20
6.127478575
 10
106.69
 20
6.25
 10
106.696019092
 20
6.372521425
 10
106.714018399
 20
6.493862903
 10
106.74382458
 20
6.612855847
 10
106.785150584
 20
6.72835429
 10
106.83759842
 20
6.839245921
 10
106.900662985
 20
6.944462791
 10
106.973736933
 20
7.042991605
 10
107.056116524
 20
7.133883476
 10
107.147008395
 20
7.216263067
 10
107.245537209
 20
7.289337015
 10
107.350754079
 20
7.35240158
 10
107.46164571
 20
7.404849416
 10
107.577144153
 20
7.44617542
 10
107.696137097
 20
7.475981601
 10
107.817478575
 20
7.493980908
 10
107.94
 20
7.5
 10
124.3
 20
7.5
  0
LWPOLYLINE
  5
34
330
17
100
AcDbEntity
  8
0
100
AcDbPolyline
 90
103
 70
0
 10
106.69
 20
65.9
 10
106.696019092
 20
66.022521425
 10
106.714018399
 20
66.143862903
 10
106.74382458
 20
66.262855847
 10
106.785150584
 20
66.37835429
 10
106.83759842
 20
66.489245921
 10
106.900662985
 20
66.594462791
 10
106.973736933
 20
66.692991605
 10
107.056116524
 20
66.783883476
 10
107.147008395
 20
66.866263067
 10
107.245537209
 20
66.939337015
 10
107.350754079
 20
67.00240158
 10
107.46164571
 20
67.054849416
 10
107.577144153
 20
67.09617542
 10
107.696137097
 20
67.125981601
 10
107.817478575
 20
67.143980908
 10
107.94
 20
67.15
 10
124.3
 20
67.15
 10
124.3
 20
77.39
 10
124.306019092
 20
77.512521425
 10
124.324018399
 20
77.633862903
 10
124.35382458
 20
77.752855847
 10
124.395150584
 20
77.86835429
 10
124.44759842
 20
77.979245921
 10
124.510662985
 20
78.084462791
 10
124.583736933
 20
78.182991605
 10
124.666116524
 20
78.273883476
 10
124.757008395
 20
78.356263067
 10
124.855537209
 20
78.429337015
 10
124.960754079
 20
78.49240158
 10
125.07164571
 20
78.544849416
 10
125.187144153
 20
78.58617542
 10
125.306137097
 20
78.615981601
 10
125.427478575
 20
78.633980908
 10
125.55
 20
78.64
 10
125.672521425
 20
78.633980908
 10
125.793862903
 20
78.615981601
 10
125.912855847
 20
78.58617542
 10
126.02835429
 20
78.544849416
 10
126.139245921
 20
78.49240158
 10
126.244462791
 20
78.429337015
 10
126.342991605
 20
78.356263067
 10
126.433883476
 20
78.273883476
 10
126.516263067
 20
78.182991605
 10
126.589337015
 20
78.084462791
 10
126.65240158
 20
77.979245921
 10
126.704849416
 20
77.86835429
 10
126.74617542
 20
77.752855847
 10
126.775981601
 20
77.633862903
 10
126.793980908
 20
77.512521425
 10
126.8
 20
77.39
 10
126.8
 20
65.9
 10
126.8
 20
55.76
 10
126.793980908
 20
55.637478575
 10
126.775981601
 20
55.516137097
 10
126.74617542
 20
55.397144153
 10
126.704849416
 20
55.28164571
 10
126.65240158
 20
55.170754079
 10
126.589337015
 20
55.065537209
 10
126.516263067
 20
54.967008395
 10
126.433883476
 20
54.876116524
 10
126.342991605
 20
54.793736933
 10
126.244462791
 20
54.720662985
 10
126.139245921
 20
54.65759842
 10
126.02835429
 20
54.605150584
 10
125.912855847
 20
54.56382458
 10
125.793862903
 20
54.534018399
 10
125.672521425
 20
54.516019092
 10
125.55
 20
54.51
 10
125.427478575
 20
54.516019092
 10
125.306137097
 20
54.534018399
 10
125.187144153
 20
54.56382458
 10
125.07164571
 20
54.605150584
 10
124.960754079
 20
54.65759842
 10
124.855537209
 20
54.720662985
 10
124.757008395
 20
54.793736933
 10
124.666116524
 20
54.876116524
 10
124.583736933
 20
54.967008395
 10
124.510662985
 20
55.065537209
 10
124.44759842
 20
55.170754079
 10
124.395150584
 20
55.28164571
 10
124.35382458
 20
55.397144153
 10
124.324018399
 20
55.516137097
 10
124.306019092
 20
55.637478575
 10
124.3
 20
55.76
 10
124.3
 20
64.65
 10
107.94
 20
64.65
 10
107.817478575
 20
64.656019092
 10
107.696137097
 20
64.674018399
 10
107.577144153
 20
64.70382458
 10
107.46164571
 20
64.745150584
 10
107.350754079
 20
64.79759842
 10
107.245537209
 20
64.860662985
 10
107.147008395
 20
64.933736933
 10
107.056116524
 20
65.016116524
 10
106.973736933
 20
65.107008395
 10
106.900662985
 20
65.205537209
 10
106.83759842
 20
65.310754079
 10
106.785150584
 20
65.42164571
 10
106.74382458
 20
65.537144153
 10
106.714018399
 20
65.656137097
 10
106.696019092
 20
65.777478575
 10
106.69
 20
65.9
  0
LWPOLYLINE
  5
35
330
17
100
AcDbEntity
  8
0
100
AcDbPolyline
 90
67
 70
0
 10
102.94
 20
7.5
 10
103.062521425
 20
7.493980908
 10
103.183862903
 20
7.475981601
 10
103.302855847
 20
7.44617542
 10
103.41835429
 20
7.404849416
 10
103.529245921
 20
7.35240158
 10
103.634462791
 20
7.289337015
 10
103.732991605
 20
7.216263067
 10
103.823883476
 20
7.133883476
 10
103.906263067
 20
7.042991605
 10
103.979337015
 20
6.944462791
 10
104.04240158
 20
6.839245921
 10
104.094849416
 20
6.72835429
 10
104.13617542
 20
6.612855847
 10
104.165981601
 20
6.493862903
 10
104.183980908
 20
6.372521425
 10
104.19
 20
6.25
 10
104.183980908
 20
6.127478575
 10
104.165981601
 20
6.006137097
 10
104.13617542
 20
5.887144153
 10
104.094849416
 20
5.77164571
 10
104.04240158
 20
5.660754079
 10
103.979337015
 20
5.555537209
 10
103.906263067
 20
5.457008395
 10
103.823883476
 20
5.366116524
 10
103.732991605
 20
5.283736933
 10
103.634462791
 20
5.210662985
 10
103.529245921
 20
5.14759842
 10
103.41835429
 20
5.095150584
 10
103.302855847
 20
5.05382458
 10
103.183862903
 20
5.024018399
 10
103.062521425
 20
5.006019092
 10
102.94
 20
5.0
 10
81.58
 20
5.0
 10
81.457478575
 20
5.006019092
 10
81.336137097
 20
5.024018399
 10
81.217144153
 20
5.05382458
 10
81.10164571
 20
5.095150584
 10
80.990754079
 20
5.14759842
 10
80.885537209
 20
5.210662985
 10
80.787008395
 20
5.283736933
 10
80.696116524
 20
5.366116524
 10
80.613736933
 20
5.457008395
 10
80.540662985
 20
5.555537209
 10
80.47759842
 20
5.660754079
 10
80.425150584
 20
5.77164571
 10
80.38382458
 20
5.887144153
 10
80.354018399
 20
6.006137097
 10
80.336019092
 20
6.127478575
 10
80.33
 20
6.25
 10
80.336019092
 20
6.372521425
 10
80.354018399
 20
6.493862903
 10
80.38382458
 20
6.612855847
 10
80.425150584
 20
6.72835429
 10
80.47759842
 20
6.839245921
 10
80.540662985
 20
6.944462791
 10
80.613736933
 20
7.042991605
 10
80.696116524
 20
7.133883476
 10
80.787008395
 20
7.216263067
 10
80.885537209
 20
7.289337015
 10
80.990754079
 20
7.35240158
 10
81.10164571
 20
7.404849416
 10
81.217144153
 20
7.44617542
 10
81.336137097
 20
7.475981601
 10
81.457478575
 20
7.493980908
 10
81.58
 20
7.5
 10
102.94
 20
7.5
  0
LWPOLYLINE
  5
36
330
17
100
AcDbEntity
  8
0
100
AcDbPolyline
 90
67
 70
0
 10
81.58
 20
168.75
 10
81.457478575
 20
168.756019092
 10
81.336137097
 20
168.774018399
 10
81.217144153
 20
168.80382458
 10
81.10164571
 20
168.845150584
 10
80.990754079
 20
168.89759842
 10
80.885537209
 20
168.960662985
 10
80.787008395
 20
169.033736933
 10
80.696116524
 20
169.116116524
 10
80.613736933
 20
169.207008395
 10
80.540662985
 20
169.305537209
 10
80.47759842
 20
169.410754079
 10
80.425150584
 20
169.52164571
 10
80.38382458
 20
169.637144153
 10
80.354018399
 20
169.756137097
 10
80.336019092
 20
169.877478575
 10
80.33
 20
170.0
 10
80.336019092
 20
170.122521425
 10
80.354018399
 20
170.243862903
 10
80.38382458
 20
170.362855847
 10
80.425150584
 20
170.47835429
 10
80.47759842
 20
170.589245921
 10
80.540662985
 20
170.694462791
 10
80.613736933
 20
170.792991605
 10
80.696116524
 20
170.883883476
 10
80.787008395
 20
170.966263067
 10
80.885537209
 20
171.039337015
 10
80.990754079
 20
171.10240158
 10
81.10164571
 20
171.154849416
 10
81.217144153
 20
171.19617542
 10
81.336137097
 20
171.225981601
 10
81.457478575
 20
171.243980908
 10
81.58
 20
171.25
 10
102.94
 20
171.25
 10
103.062521425
 20
171.243980908
 10
103.183862903
 20
171.225981601
 10
103.302855847
 20
171.19617542
 10
103.41835429
 20
171.154849416
 10
103.529245921
 20
171.10240158
 10
103.634462791
 20
171.039337015
 10
103.732991605
 20
170.966263067
 10
103.823883476
 20
170.883883476
 10
103.906263067
 20
170.792991605
 10
103.979337015
 20
170.694462791
 10
104.04240158
 20
170.589245921
 10
104.094849416
 20
170.47835429
 10
104.13617542
 20
170.362855847
 10
104.165981601
 20
170.243862903
 10
104.183980908
 20
170.122521425
 10
104.19
 20
170.0
 10
104.183980908
 20
169.877478575
 10
104.165981601
 20
169.756137097
 10
104.13617542
 20
169.637144153
 10
104.094849416
 20
169.52164571
 10
104.04240158
 20
169.410754079
 10
103.979337015
 20
169.305537209
 10
103.906263067
 20
169.207008395
 10
103.823883476
 20
169.116116524
 10
103.732991605
 20
169.033736933
 10
103.634462791
 20
168.960662985
 10
103.529245921
 20
168.89759842
 10
103.41835429
 20
168.845150584
 10
103.302855847
 20
168.80382458
 10
103.183862903
 20
168.774018399
 10
103.062521425
 20
168.756019092
 10
102.94
 20
168.75
 10
81.58
 20
168.75
  0
LWPOLYLINE
  5
37
330
17
100
AcDbEntity
  8
0
100
AcDbPolyline
 90
67
 70
0
 10
80.33
 20
65.9
 10
80.336019092
 20
66.022521425
 10
80.354018399
 20
66.143862903
 10
80.38382458
 20
66.262855847
 10
80.425150584
 20
66.37835429
 10
80.47759842
 20
66.489245921
 10
80.540662985
 20
66.594462791
 10
80.613736933
 20
66.692991605
 10
80.696116524
 20
66.783883476
 10
80.787008395
 20
66.866263067
 10
80.885537209
 20
66.939337015
 10
80.990754079
 20
67.00240158
 10
81.10164571
 20
67.054849416
 10
81.217144153
 20
67.09617542
 10
81.336137097
 20
67.125981601
 10
81.457478575
 20
67.143980908
 10
81.58
 20
67.15
 10
102.94
 20
67.15
 10
103.062521425
 20
67.143980908
 10
103.183862903
 20
67.125981601
 10
103.302855847
 20
67.09617542
 10
103.41835429
 20
67.054849416
 10
103.529245921
 20
67.00240158
 10
103.634462791
 20
66.939337015
 10
103.732991605
 20
66.866263067
 10
103.823883476
 20
66.783883476
 10
103.906263067
 20
66.692991605
 10
103.979337015
 20
66.594462791
 10
104.04240158
 20
66.489245921
 10
104.094849416
 20
66.37835429
 10
104.13617542
 20
66.262855847
 10
104.165981601
 20
66.143862903
 10
104.183980908
 20
66.022521425
 10
104.19
 20
65.9
 10
104.183980908
 20
65.777478575
 10
104.165981601
 20
65.656137097
 10
104.13617542
 20
65.537144153
 10
104.094849416
 20
65.42164571
 10
104.04240158
 20
65.310754079
 10
103.979337015
 20
65.205537209
 10
103.906263067
 20
65.107008395
 10
103.823883476
 20
65.016116524
 10
103.732991605
 20
64.933736933
 10
103.634462791
 20
64.860662985
 10
103.529245921
 20
64.79759842
 10
103.41835429
 20
64.745150584
 10
103.302855847
 20
64.70382458
 10
103.183862903
 20
64.674018399
 10
103.062521425
 20
64.656019092
 10
102.94
 20
64.65
 10
81.58
 20
64.65
 10
81.457478575
 20
64.656019092
 10
81.336137097
 20
64.674018399
 10
81.217144153
 20
64.70382458
 10
81.10164571
 20
64.745150584
 10
80.990754079
 20
64.79759842
 10
80.885537209
 20
64.860662985
 10
80.787008395
 20
64.933736933
 10
80.696116524
 20
65.016116524
 10
80.613736933
 20
65.107008395
 10
80.540662985
 20
65.205537209
 10
80.47759842
 20
65.310754079
 10
80.425150584
 20
65.42164571
 10
80.38382458
 20
65.537144153
 10
80.354018399
 20
65.656137097
 10
80.336019092
 20
65.777478575
 10
80.33
 20
65.9
  0
LWPOLYLINE
  5
38
330
17
100
AcDbEntity
  8
0
100
AcDbPolyline
 90
137
 70
0
 10
53.97
 20
65.9
 10
53.976019092
 20
66.022521425
 10
53.994018399
 20
66.143862903
 10
54.02382458
 20
66.262855847
 10
54.065150584
 20
66.37835429
 10
54.11759842
 20
66.489245921
 10
54.180662985
 20
66.594462791
 10
54.253736933
 20
66.692991605
 10
54.336116524
 20
66.783883476
 10
54.427008395
 20
66.866263067
 10
54.525537209
 20
66.939337015
 10
54.630754079
 20
67.00240158
 10
54.74164571
 20
67.054849416
 10
54.857144153
 20
67.09617542
 10
54.976137097
 20
67.125981601
 10
55.097478575
 20
67.143980908
 10
55.22
 20
67.15
 10
64.65
 20
67.15
 10
64.65
 20
77.39
 10
64.656019092
 20
77.512521425
 10
64.674018399
 20
77.633862903
 10
64.70382458
 20
77.752855847
 10
64.745150584
 20
77.86835429
 10
64.79759842
 20
77.979245921
 10
64.860662985
 20
78.084462791
 10
64.933736933
 20
78.182991605
 10
65.016116524
 20
78.273883476
 10
65.107008395
 20
78.356263067
 10
65.205537209
 20
78.429337015
 10
65.310754079
 20
78.49240158
 10
65.42164571
 20
78.544849416
 10
65.537144153
 20
78.58617542
 10
65.656137097
 20
78.615981601
 10
65.777478575
 20
78.633980908
 10
65.9
 20
78.64
 10
66.022521425
 20
78.633980908
 10
66.143862903
 20
78.615981601
 10
66.262855847
 20
78.58617542
 10
66.37835429
 20
78.544849416
 10
66.489245921
 20
78.49240158
 10
66.594462791
 20
78.429337015
 10
66.692991605
 20
78.356263067
 10
66.783883476
 20
78.273883476
 10
66.866263067
 20
78.182991605
 10
66.939337015
 20
78.084462791
 10
67.00240158
 20
77.979245921
 10
67.054849416
 20
77.86835429
 10
67.09617542
 20
77.752855847
 10
67.125981601
 20
77.633862903
 10
67.143980908
 20
77.512521425
 10
67.15
 20
77.39
 10
67.15
 20
67.15
 10
76.58
 20
67.15
 10
76.702521425
 20
67.143980908
 10
76.823862903
 20
67.125981601
 10
76.942855847
 20
67.09617542
 10
77.05835429
 20
67.054849416
 10
77.169245921
 20
67.00240158
 10
77.274462791
 20
66.939337015
 10
77.372991605
 20
66.866263067
 10
77.463883476
 20
66.783883476
 10
77.546263067
 20
66.692991605
 10
77.619337015
 20
66.594462791
 10
77.68240158
 20
66.489245921
 10
77.734849416
 20
66.37835429
 10
77.77617542
 20
66.262855847
 10
77.805981601
 20
66.143862903
 10
77.823980908
 20
66.022521425
 10
77.83
 20
65.9
 10
77.823980908
 20
65.777478575
 10
77.805981601
 20
65.656137097
 10
77.77617542
 20
65.537144153
 10
77.734849416
 20
65.42164571
 10
77.68240158
 20
65.310754079
 10
77.619337015
 20
65.205537209
 10
77.546263067
 20
65.107008395
 10
77.463883476
 20
65.016116524
 10
77.372991605
 20
64.933736933
 10
77.274462791
 20
64.860662985
 10
77.169245921
 20
64.79759842
 10
77.05835429
 20
64.745150584
 10
76.942855847
 20
64.70382458
 10
76.823862903
 20
64.674018399
 10
76.702521425
 20
64.656019092
 10
76.58
 20
64.65
 10
67.15
 20
64.65
 10
67.15
 20
55.76
 10
67.143980908
 20
55.637478575
 10
67.125981601
 20
55.516137097
 10
67.09617542
 20
55.397144153
 10
67.054849416
 20
55.28164571
 10
67.00240158
 20
55.170754079
 10
66.939337015
 20
55.065537209
 10
66.866263067
 20
54.967008395
 10
66.783883476
 20
54.876116524
 10
66.692991605
 20
54.793736933
 10
66.594462791
 20
54.720662985
 10
66.489245921
 20
54.65759842
 10
66.37835429
 20
54.605150584
 10
66.262855847
 20
54.56382458
 10
66.143862903
 20
54.534018399
 10
66.022521425
 20
54.516019092
 10
65.9
 20
54.51
 10
65.777478575
 20
54.516019092
 10
65.656137097
 20
54.534018399
 10
65.537144153
 20
54.56382458
 10
65.42164571
 20
54.605150584
 10
65.310754079
 20
54.65759842
 10
65.205537209
 20
54.720662985
 10
65.107008395
 20
54.793736933
 10
65.016116524
 20
54.876116524
 10
64.933736933
 20
54.967008395
 10
64.860662985
 20
55.065537209
 10
64.79759842
 20
55.170754079
 10
64.745150584
 20
55.28164571
 10
64.70382458
 20
55.397144153
 10
64.674018399
 20
55.516137097
 10
64.656019092
 20
55.637478575
 10
64.65
 20
55.76
 10
64.65
 20
64.65
 10
55.22
 20
64.65
 10
55.097478575
 20
64.656019092
 10
54.976137097
 20
64.674018399
 10
54.857144153
 20
64.70382458
 10
54.74164571
 20
64.745150584
 10
54.630754079
 20
64.79759842
 10
54.525537209
 20
64.860662985
 10
54.427008395
 20
64.933736933
 10
54.336116524
 20
65.016116524
 10
54.253736933
 20
65.107008395
 10
54.180662985
 20
65.205537209
 10
54.11759842
 20
65.310754079
 10
54.065150584
 20
65.42164571
 10
54.02382458
 20
65.537144153
 10
53.994018399
 20
65.656137097
 10
53.976019092
 20
65.777478575
 10
53.97
 20
65.9
  0
LWPOLYLINE
  5
39
330
17
100
AcDbEntity
  8
0
100
AcDbPolyline
 90
103
 70
0
 10
65.9
 20
5.0
 10
55.22
 20
5.0
 10
55.097478575
 20
5.006019092
 10
54.976137097
 20
5.024018399
 10
54.857144153
 20
5.05382458
 10
54.74164571
 20
5.095150584
 10
54.630754079
 20
5.14759842
 10
54.525537209
 20
5.210662985
 10
54.427008395
 20
5.283736933
 10
54.336116524
 20
5.366116524
 10
54.253736933
 20
5.457008395
 10
54.180662985
 20
5.555537209
 10
54.11759842
 20
5.660754079
 10
54.065150584
 20
5.77164571
 10
54.02382458
 20
5.887144153
 10
53.994018399
 20
6.006137097
 10
53.976019092
 20
6.127478575
 10
53.97
 20
6.25
 10
53.976019092
 20
6.372521425
 10
53.994018399
 20
6.493862903
 10
54.02382458
 20
6.612855847
 10
54.065150584
 20
6.72835429
 10
54.11759842
 20
6.839245921
 10
54.180662985
 20
6.944462791
 10
54.253736933
 20
7.042991605
 10
54.336116524
 20
7.133883476
 10
54.427008395
 20
7.216263067
 10
54.525537209
 20
7.289337015
 10
54.630754079
 20
7.35240158
 10
54.74164571
 20
7.404849416
 10
54.857144153
 20
7.44617542
 10
54.976137097
 20
7.475981601
 10
55.097478575
 20
7.493980908
 10
55.22
 20
7.5
 10
64.65
 20
7.5
 10
64.65
 20
24.13
 10
64.656019092
 20
24.252521425
 10
64.674018399
 20
24.373862903
 10
64.70382458
 20
24.492855847
 10
64.745150584
 20
24.60835429
 10
64.79759842
 20
24.719245921
 10
64.860662985
 20
24.824462791
 10
64.933736933
 20
24.922991605
 10
65.016116524
 20
25.013883476
 10
65.107008395
 20
25.096263067
 10
65.205537209
 20
25.169337015
 10
65.310754079
 20
25.23240158
 10
65.42164571
 20
25.284849416
 10
65.537144153
 20
25.32617542
 10
65.656137097
 20
25.355981601
 10
65.777478575
 20
25.373980908
 10
65.9
 20
25.38
 10
66.022521425
 20
25.373980908
 10
66.143862903
 20
25.355981601
 10
66.262855847
 20
25.32617542
 10
66.37835429
 20
25.284849416
 10
66.489245921
 20
25.23240158
 10
66.594462791
 20
25.169337015
 10
66.692991605
 20
25.096263067
 10
66.783883476
 20
25.013883476
 10
66.866263067
 20
24.922991605
 10
66.939337015
 20
24.824462791
 10
67.00240158
 20
24.719245921
 10
67.054849416
 20
24.60835429
 10
67.09617542
 20
24.492855847
 10
67.125981601
 20
24.373862903
 10
67.143980908
 20
24.252521425
 10
67.15
 20
24.13
 10
67.15
 20
7.5
 10
76.58
 20
7.5
 10
76.702521425
 20
7.493980908
 10
76.823862903
 20
7.475981601
 10
76.942855847
 20
7.44617542
 10
77.05835429
 20
7.404849416
 10
77.169245921
 20
7.35240158
 10
77.274462791
 20
7.289337015
 10
77.372991605
 20
7.216263067
 10
77.463883476
 20
7.133883476
 10
77.546263067
 20
7.042991605
 10
77.619337015
 20
6.944462791
 10
77.68240158
 20
6.839245921
 10
77.734849416
 20
6.72835429
 10
77.77617542
 20
6.612855847
 10
77.805981601
 20
6.493862903
 10
77.823980908
 20
6.372521425
 10
77.83
 20
6.25
 10
77.823980908
 20
6.127478575
 10
77.805981601
 20
6.006137097
 10
77.77617542
 20
5.887144153
 10
77.734849416
 20
5.77164571
 10
77.68240158
 20
5.660754079
 10
77.619337015
 20
5.555537209
 10
77.546263067
 20
5.457008395
 10
77.463883476
 20
5.366116524
 10
77.372991605
 20
5.283736933
 10
77.274462791
 20
5.210662985
 10
77.169245921
 20
5.14759842
 10
77.05835429
 20
5.095150584
 10
76.942855847
 20
5.05382458
 10
76.823862903
 20
5.024018399
 10
76.702521425
 20
5.006019092
 10
76.58
 20
5.0
 10
65.9
 20
5.0
  0
LWPOLYLINE
  5
3A
330
17
100
AcDbEntity
  8
0
100
AcDbPolyline
 90
121
 70
0
 10
64.65
 20
170.0
 10
64.65
 20
178.91
 10
55.22
 20
178.91
 10
55.097478575
 20
178.916019092
 10
54.976137097
 20
178.934018399
 10
54.857144153
 20
178.96382458
 10
54.74164571
 20
179.005150584
 10
54.630754079
 20
179.05759842
 10
54.525537209
 20
179.120662985
 10
54.427008395
 20
179.193736933
 10
54.336116524
 20
179.276116524
 10
54.253736933
 20
179.367008395
 10
54.180662985
 20
179.465537209
 10
54.11759842
 20
179.570754079
 10
54.065150584
 20
179.68164571
 10
54.02382458
 20
179.797144153
 10
53.994018399
 20
179.916137097
 10
53.976019092
 20
180.037478575
 10
53.97
 20
180.16
 10
53.976019092
 20
180.282521425
 10
53.994018399
 20
180.403862903
 10
54.02382458
 20
180.522855847
 10
54.065150584
 20
180.63835429
 10
54.11759842
 20
180.749245921
 10
54.180662985
 20
180.854462791
 10
54.253736933
 20
180.952991605
 10
54.336116524
 20
181.043883476
 10
54.427008395
 20
181.126263067
 10
54.525537209
 20
181.199337015
 10
54.630754079
 20
181.26240158
 10
54.74164571
 20
181.314849416
 10
54.857144153
 20
181.35617542
 10
54.976137097
 20
181.385981601
 10
55.097478575
 20
181.403980908
 10
55.22
 20
181.41
 10
65.9
 20
181.41
 10
66.022521425
 20
181.403980908
 10
66.143862903
 20
181.385981601
 10
66.262855847
 20
181.35617542
 10
66.37835429
 20
181.314849416
 10
66.489245921
 20
181.26240158
 10
66.594462791
 20
181.199337015
 10
66.692991605
 20
181.126263067
 10
66.783883476
 20
181.043883476
 10
66.866263067
 20
180.952991605
 10
66.939337015
 20
180.854462791
 10
67.00240158
 20
180.749245921
 10
67.054849416
 20
180.63835429
 10
67.09617542
 20
180.522855847
 10
67.125981601
 20
180.403862903
 10
67.143980908
 20
180.282521425
 10
67.15
 20
180.16
 10
67.15
 20
171.25
 10
76.58
 20
171.25
 10
76.702521425
 20
171.243980908
 10
76.823862903
 20
171.225981601
 10
76.942855847
 20
171.19617542
 10
77.05835429
 20
171.154849416
 10
77.169245921
 20
171.10240158
 10
77.274462791
 20
171.039337015
 10
77.372991605
 20
170.966263067
 10
77.463883476
 20
170.883883476
 10
77.546263067
 20
170.792991605
 10
77.619337015
 20
170.694462791
 10
77.68240158
 20
170.589245921
 10
77.734849416
 20
170.47835429
 10
77.77617542
 20
170.362855847
 10
77.805981601
 20
170.243862903
 10
77.823980908
 20
170.122521425
 10
77.83
 20
170.0
 10
77.823980908
 20
169.877478575
 10
77.805981601
 20
169.756137097
 10
77.77617542
 20
169.637144153
 10
77.734849416
 20
169.52164571
 10
77.68240158
 20
169.410754079
 10
77.619337015
 20
169.305537209
 10
77.546263067
 20
169.207008395
 10
77.463883476
 20
169.116116524
 10
77.372991605
 20
169.033736933
 10
77.274462791
 20
168.960662985
 10
77.169245921
 20
168.89759842
 10
77.05835429
 20
168.845150584
 10
76.942855847
 20
168.80382458
 10
76.823862903
 20
168.774018399
 10
76.702521425
 20
168.756019092
 10
76.58
 20
168.75
 10
67.15
 20
168.75
 10
67.15
 20
162.28
 10
67.143980908
 20
162.157478575
 10
67.125981601
 20
162.036137097
 10
67.09617542
 20
161.917144153
 10
67.054849416
 20
161.80164571
 10
67.00240158
 20
161.690754079
 10
66.939337015
 20
161.585537209
 10
66.866263067
 20
161.487008395
 10
66.783883476
 20
161.396116524
 10
66.692991605
 20
161.313736933
 10
66.594462791
 20
161.240662985
 10
66.489245921
 20
161.17759842
 10
66.37835429
 20
161.125150584
 10
66.262855847
 20
161.08382458
 10
66.143862903
 20
161.054018399
 10
66.022521425
 20
161.036019092
 10
65.9
 20
161.03
 10
65.777478575
 20
161.036019092
 10
65.656137097
 20
161.054018399
 10
65.537144153
 20
161.08382458
 10
65.42164571
 20
161.125150584
 10
65.310754079
 20
161.17759842
 10
65.205537209
 20
161.240662985
 10
65.107008395
 20
161.313736933
 10
65.016116524
 20
161.396116524
 10
64.933736933
 20
161.487008395
 10
64.860662985
 20
161.585537209
 10
64.79759842
 20
161.690754079
 10
64.745150584
 20
161.80164571
 10
64.70382458
 20
161.917144153
 10
64.674018399
 20
162.036137097
 10
64.656019092
 20
162.157478575
 10
64.65
 20
162.28
 10
64.65
 20
170.0
  0
LWPOLYLINE
  5
3B
330
17
100
AcDbEntity
  8
0
100
AcDbPolyline
 90
67
 70
0
 10
64.65
 20
104.02
 10
64.656019092
 20
104.142521425
 10
64.674018399
 20
104.263862903
 10
64.70382458
 20
104.382855847
 10
64.745150584
 20
104.49835429
 10
64.79759842
 20
104.609245921
 10
64.860662985
 20
104.714462791
 10
64.933736933
 20
104.812991605
 10
65.016116524
 20
104.903883476
 10
65.107008395
 20
104.986263067
 10
65.205537209
 20
105.059337015
 10
65.310754079
 20
105.12240158
 10
65.42164571
 20
105.174849416
 10
65.537144153
 20
105.21617542
 10
65.656137097
 20
105.245981601
 10
65.777478575
 20
105.263980908
 10
65.9
 20
105.27
 10
66.022521425
 20
105.263980908
 10
66.143862903
 20
105.245981601
 10
66.262855847
 20
105.21617542
 10
66.37835429
 20
105.174849416
 10
66.489245921
 20
105.12240158
 10
66.594462791
 20
105.059337015
 10
66.692991605
 20
104.986263067
 10
66.783883476
 20
104.903883476
 10
66.866263067
 20
104.812991605
 10
66.939337015
 20
104.714462791
 10
67.00240158
 20
104.609245921
 10
67.054849416
 20
104.49835429
 10
67.09617542
 20
104.382855847
 10
67.125981601
 20
104.263862903
 10
67.143980908
 20
104.142521425
 10
67.15
 20
104.02
 10
67.15
 20
82.39
 10
67.143980908
 20
82.267478575
 10
67.125981601
 20
82.146137097
 10
67.09617542
 20
82.027144153
 10
67.054849416
 20
81.91164571
 10
67.00240158
 20
81.800754079
 10
66.939337015
 20
81.695537209
 10
66.866263067
 20
81.597008395
 10
66.783883476
 20
81.506116524
 10
66.692991605
 20
81.423736933
 10
66.594462791
 20
81.350662985
 10
66.489245921
 20
81.28759842
 10
66.37835429
 20
81.235150584
 10
66.262855847
 20
81.19382458
 10
66.143862903
 20
81.164018399
 10
66.022521425
 20
81.146019092
 10
65.9
 20
81.14
 10
65.777478575
 20
81.146019092
 10
65.656137097
 20
81.164018399
 10
65.537144153
 20
81.19382458
 10
65.42164571
 20
81.235150584
 10
65.310754079
 20
81.28759842
 10
65.205537209
 20
81.350662985
 10
65.107008395
 20
81.423736933
 10
65.016116524
 20
81.506116524
 10
64.933736933
 20
81.597008395
 10
64.860662985
 20
81.695537209
 10
64.79759842
 20
81.800754079
 10
64.745150584
 20
81.91164571
 10
64.70382458
 20
82.027144153
 10
64.674018399
 20
82.146137097
 10
64.656019092
 20
82.267478575
 10
64.65
 20
82.39
 10
64.65
 20
104.02
  0
LWPOLYLINE
  5
3C
330
17
100
AcDbEntity
  8
0
100
AcDbPolyline
 90
67
 70
0
 10
64.65
 20
157.28
 10
64.656019092
 20
157.402521425
 10
64.674018399
 20
157.523862903
 10
64.70382458
 20
157.642855847
 10
64.745150584
 20
157.75835429
 10
64.79759842
 20
157.869245921
 10
64.860662985
 20
157.974462791
 10
64.933736933
 20
158.072991605
 10
65.016116524
 20
158.163883476
 10
65.107008395
 20
158.246263067
 10
65.205537209
 20
158.319337015
 10
65.310754079
 20
158.38240158
 10
65.42164571
 20
158.434849416
 10
65.537144153
 20
158.47617542
 10
65.656137097
 20
158.505981601
 10
65.777478575
 20
158.523980908
 10
65.9
 20
158.53
 10
66.022521425
 20
158.523980908
 10
66.143862903
 20
158.505981601
 10
66.262855847
 20
158.47617542
 10
66.37835429
 20
158.434849416
 10
66.489245921
 20
158.38240158
 10
66.594462791
 20
158.319337015
 10
66.692991605
 20
158.246263067
 10
66.783883476
 20
158.163883476
 10
66.866263067
 20
158.072991605
 10
66.939337015
 20
157.974462791
 10
67.00240158
 20
157.869245921
 10
67.054849416
 20
157.75835429
 10
67.09617542
 20
157.642855847
 10
67.125981601
 20
157.523862903
 10
67.143980908
 20
157.402521425
 10
67.15
 20
157.28
 10
67.15
 20
135.65
 10
67.143980908
 20
135.527478575
 10
67.125981601
 20
135.406137097
 10
67.09617542
 20
135.287144153
 10
67.054849416
 20
135.17164571
 10
67.00240158
 20
135.060754079
 10
66.939337015
 20
134.955537209
 10
66.866263067
 20
134.857008395
 10
66.783883476
 20
134.766116524
 10
66.692991605
 20
134.683736933
 10
66.594462791
 20
134.610662985
 10
66.489245921
 20
134.54759842
 10
66.37835429
 20
134.495150584
 10
66.262855847
 20
134.45382458
 10
66.143862903
 20
134.424018399
 10
66.022521425
 20
134.406019092
 10
65.9
 20
134.4
 10
65.777478575
 20
134.406019092
 10
65.656137097
 20
134.424018399
 10
65.537144153
 20
134.45382458
 10
65.42164571
 20
134.495150584
 10
65.310754079
 20
134.54759842
 10
65.205537209
 20
134.610662985
 10
65.107008395
 20
134.683736933
 10
65.016116524
 20
134.766116524
 10
64.933736933
 20
134.857008395
 10
64.860662985
 20
134.955537209
 10
64.79759842
 20
135.060754079
 10
64.745150584
 20
135.17164571
 10
64.70382458
 20
135.287144153
 10
64.674018399
 20
135.406137097
 10
64.656019092
 20
135.527478575
 10
64.65
 20
135.65
 10
64.65
 20
157.28
  0
LWPOLYLINE
  5
3D
330
17
100
AcDbEntity
  8
0
100
AcDbPolyline
 90
67
 70
0
 10
64.65
 20
130.65
 10
64.656019092
 20
130.772521425
 10
64.674018399
 20
130.893862903
 10
64.70382458
 20
131.012855847
 10
64.745150584
 20
131.12835429
 10
64.79759842
 20
131.239245921
 10
64.860662985
 20
131.344462791
 10
64.933736933
 20
131.442991605
 10
65.016116524
 20
131.533883476
 10
65.107008395
 20
131.616263067
 10
65.205537209
 20
131.689337015
 10
65.310754079
 20
131.75240158
 10
65.42164571
 20
131.804849416
 10
65.537144153
 20
131.84617542
 10
65.656137097
 20
131.875981601
 10
65.777478575
 20
131.893980908
 10
65.9
 20
131.9
 10
66.022521425
 20
131.893980908
 10
66.143862903
 20
131.875981601
 10
66.262855847
 20
131.84617542
 10
66.37835429
 20
131.804849416
 10
66.489245921
 20
131.75240158
 10
66.594462791
 20
131.689337015
 10
66.692991605
 20
131.616263067
 10
66.783883476
 20
131.533883476
 10
66.866263067
 20
131.442991605
 10
66.939337015
 20
131.344462791
 10
67.00240158
 20
131.239245921
 10
67.054849416
 20
131.12835429
 10
67.09617542
 20
131.012855847
 10
67.125981601
 20
130.893862903
 10
67.143980908
 20
130.772521425
 10
67.15
 20
130.65
 10
67.15
 20
109.02
 10
67.143980908
 20
108.897478575
 10
67.125981601
 20
108.776137097
 10
67.09617542
 20
108.657144153
 10
67.054849416
 20
108.54164571
 10
67.00240158
 20
108.430754079
 10
66.939337015
 20
108.325537209
 10
66.866263067
 20
108.227008395
 10
66.783883476
 20
108.136116524
 10
66.692991605
 20
108.053736933
 10
66.594462791
 20
107.980662985
 10
66.489245921
 20
107.91759842
 10
66.37835429
 20
107.865150584
 10
66.262855847
 20
107.82382458
 10
66.143862903
 20
107.794018399
 10
66.022521425
 20
107.776019092
 10
65.9
 20
107.77
 10
65.777478575
 20
107.776019092
 10
65.656137097
 20
107.794018399
 10
65.537144153
 20
107.82382458
 10
65.42164571
 20
107.865150584
 10
65.310754079
 20
107.91759842
 10
65.205537209
 20
107.980662985
 10
65.107008395
 20
108.053736933
 10
65.016116524
 20
108.136116524
 10
64.933736933
 20
108.227008395
 10
64.860662985
 20
108.325537209
 10
64.79759842
 20
108.430754079
 10
64.745150584
 20
108.54164571
 10
64.70382458
 20
108.657144153
 10
64.674018399
 20
108.776137097
 10
64.656019092
 20
108.897478575
 10
64.65
 20
109.02
 10
64.65
 20
130.65
  0
LWPOLYLINE
  5
3E
330
17
100
AcDbEntity
  8
0
100
AcDbPolyline
 90
67
 70
0
 10
64.65
 20
50.76
 10
64.656019092
 20
50.882521425
 10
64.674018399
 20
51.003862903
 10
64.70382458
 20
51.122855847
 10
64.745150584
 20
51.23835429
 10
64.79759842
 20
51.349245921
 10
64.860662985
 20
51.454462791
 10
64.933736933
 20
51.552991605
 10
65.016116524
 20
51.643883476
 10
65.107008395
 20
51.726263067
 10
65.205537209
 20
51.799337015
 10
65.310754079
 20
51.86240158
 10
65.42164571
 20
51.914849416
 10
65.537144153
 20
51.95617542
 10
65.656137097
 20
51.985981601
 10
65.777478575
 20
52.003980908
 10
65.9
 20
52.01
 10
66.022521425
 20
52.003980908
 10
66.143862903
 20
51.985981601
 10
66.262855847
 20
51.95617542
 10
66.37835429
 20
51.914849416
 10
66.489245921
 20
51.86240158
 10
66.594462791
 20
51.799337015
 10
66.692991605
 20
51.726263067
 10
66.783883476
 20
51.643883476
 10
66.866263067
 20
51.552991605
 10
66.939337015
 20
51.454462791
 10
67.00240158
 20
51.349245921
 10
67.054849416
 20
51.23835429
 10
67.09617542
 20
51.122855847
 10
67.125981601
 20
51.003862903
 10
67.143980908
 20
50.882521425
 10
67.15
 20
50.76
 10
67.15
 20
29.13
 10
67.143980908
 20
29.007478575
 10
67.125981601
 20
28.886137097
 10
67.09617542
 20
28.767144153
 10
67.054849416
 20
28.65164571
 10
67.00240158
 20
28.540754079
 10
66.939337015
 20
28.435537209
 10
66.866263067
 20
28.337008395
 10
66.783883476
 20
28.246116524
 10
66.692991605
 20
28.163736933
 10
66.594462791
 20
28.090662985
 10
66.489245921
 20
28.02759842
 10
66.37835429
 20
27.975150584
 10
66.262855847
 20
27.93382458
 10
66.143862903
 20
27.904018399
 10
66.022521425
 20
27.886019092
 10
65.9
 20
27.88
 10
65.777478575
 20
27.886019092
 10
65.656137097
 20
27.904018399
 10
65.537144153
 20
27.93382458
 10
65.42164571
 20
27.975150584
 10
65.310754079
 20
28.02759842
 10
65.205537209
 20
28.090662985
 10
65.107008395
 20
28.163736933
 10
65.016116524
 20
28.246116524
 10
64.933736933
 20
28.337008395
 10
64.860662985
 20
28.435537209
 10
64.79759842
 20
28.540754079
 10
64.745150584
 20
28.65164571
 10
64.70382458
 20
28.767144153
 10
64.674018399
 20
28.886137097
 10
64.656019092
 20
29.007478575
 10
64.65
 20
29.13
 10
64.65
 20
50.76
  0
LWPOLYLINE
  5
3F
330
17
100
AcDbEntity
  8
0
100
AcDbPolyline
 90
67
 70
0
 10
50.22
 20
7.5
 10
50.342521425
 20
7.493980908
 10
50.463862903
 20
7.475981601
 10
50.582855847
 20
7.44617542
 10
50.69835429
 20
7.404849416
 10
50.809245921
 20
7.35240158
 10
50.914462791
 20
7.289337015
 10
51.012991605
 20
7.216263067
 10
51.103883476
 20
7.133883476
 10
51.186263067
 20
7.042991605
 10
51.259337015
 20
6.944462791
 10
51.32240158
 20
6.839245921
 10
51.374849416
 20
6.72835429
 10
51.41617542
 20
6.612855847
 10
51.445981601
 20
6.493862903
 10
51.463980908
 20
6.372521425
 10
51.47
 20
6.25
 10
51.463980908
 20
6.127478575
 10
51.445981601
 20
6.006137097
 10
51.41617542
 20
5.887144153
 10
51.374849416
 20
5.77164571
 10
51.32240158
 20
5.660754079
 10
51.259337015
 20
5.555537209
 10
51.186263067
 20
5.457008395
 10
51.103883476
 20
5.366116524
 10
51.012991605
 20
5.283736933
 10
50.914462791
 20
5.210662985
 10
50.809245921
 20
5.14759842
 10
50.69835429
 20
5.095150584
 10
50.582855847
 20
5.05382458
 10
50.463862903
 20
5.024018399
 10
50.342521425
 20
5.006019092
 10
50.22
 20
5.0
 10
28.86
 20
5.0
 10
28.737478575
 20
5.006019092
 10
28.616137097
 20
5.024018399
 10
28.497144153
 20
5.05382458
 10
28.38164571
 20
5.095150584
 10
28.270754079
 20
5.14759842
 10
28.165537209
 20
5.210662985
 10
28.067008395
 20
5.283736933
 10
27.976116524
 20
5.366116524
 10
27.893736933
 20
5.457008395
 10
27.820662985
 20
5.555537209
 10
27.75759842
 20
5.660754079
 10
27.705150584
 20
5.77164571
 10
27.66382458
 20
5.887144153
 10
27.634018399
 20
6.006137097
 10
27.616019092
 20
6.127478575
 10
27.61
 20
6.25
 10
27.616019092
 20
6.372521425
 10
27.634018399
 20
6.493862903
 10
27.66382458
 20
6.612855847
 10
27.705150584
 20
6.72835429
 10
27.75759842
 20
6.839245921
 10
27.820662985
 20
6.944462791
 10
27.893736933
 20
7.042991605
 10
27.976116524
 20
7.133883476
 10
28.067008395
 20
7.216263067
 10
28.165537209
 20
7.289337015
 10
28.270754079
 20
7.35240158
 10
28.38164571
 20
7.404849416
 10
28.497144153
 20
7.44617542
 10
28.616137097
 20
7.475981601
 10
28.737478575
 20
7.493980908
 10
28.86
 20
7.5
 10
50.22
 20
7.5
  0
LWPOLYLINE
  5
40
330
17
100
AcDbEntity
  8
0
100
AcDbPolyline
 90
67
 70
0
 10
28.86
 20
178.91
 10
28.737478575
 20
178.916019092
 10
28.616137097
 20
178.934018399
 10
28.497144153
 20
178.96382458
 10
28.38164571
 20
179.005150584
 10
28.270754079
 20
179.05759842
 10
28.165537209
 20
179.120662985
 10
28.067008395
 20
179.193736933
 10
27.976116524
 20
179.276116524
 10
27.893736933
 20
179.367008395
 10
27.820662985
 20
179.465537209
 10
27.75759842
 20
179.570754079
 10
27.705150584
 20
179.68164571
 10
27.66382458
 20
179.797144153
 10
27.634018399
 20
179.916137097
 10
27.616019092
 20
180.037478575
 10
27.61
 20
180.16
 10
27.616019092
 20
180.282521425
 10
27.634018399
 20
180.403862903
 10
27.66382458
 20
180.522855847
 10
27.705150584
 20
180.63835429
 10
27.75759842
 20
180.749245921
 10
27.820662985
 20
180.854462791
 10
27.893736933
 20
180.952991605
 10
27.976116524
 20
181.043883476
 10
28.067008395
 20
181.126263067
 10
28.165537209
 20
181.199337015
 10
28.270754079
 20
181.26240158
 10
28.38164571
 20
181.314849416
 10
28.497144153
 20
181.35617542
 10
28.616137097
 20
181.385981601
 10
28.737478575
 20
181.403980908
 10
28.86
 20
181.41
 10
50.22
 20
181.41
 10
50.342521425
 20
181.403980908
 10
50.463862903
 20
181.385981601
 10
50.582855847
 20
181.35617542
 10
50.69835429
 20
181.314849416
 10
50.809245921
 20
181.26240158
 10
50.914462791
 20
181.199337015
 10
51.012991605
 20
181.126263067
 10
51.103883476
 20
181.043883476
 10
51.186263067
 20
180.952991605
 10
51.259337015
 20
180.854462791
 10
51.32240158
 20
180.749245921
 10
51.374849416
 20
180.63835429
 10
51.41617542
 20
180.522855847
 10
51.445981601
 20
180.403862903
 10
51.463980908
 20
180.282521425
 10
51.47
 20
180.16
 10
51.463980908
 20
180.037478575
 10
51.445981601
 20
179.916137097
 10
51.41617542
 20
179.797144153
 10
51.374849416
 20
179.68164571
 10
51.32240158
 20
179.570754079
 10
51.259337015
 20
179.465537209
 10
51.186263067
 20
179.367008395
 10
51.103883476
 20
179.276116524
 10
51.012991605
 20
179.193736933
 10
50.914462791
 20
179.120662985
 10
50.809245921
 20
179.05759842
 10
50.69835429
 20
179.005150584
 10
50.582855847
 20
178.96382458
 10
50.463862903
 20
178.934018399
 10
50.342521425
 20
178.916019092
 10
50.22
 20
178.91
 10
28.86
 20
178.91
  0
LWPOLYLINE
  5
41
330
17
100
AcDbEntity
  8
0
100
AcDbPolyline
 90
67
 70
0
 10
27.61
 20
65.9
 10
27.616019092
 20
66.022521425
 10
27.634018399
 20
66.143862903
 10
27.66382458
 20
66.262855847
 10
27.705150584
 20
66.37835429
 10
27.75759842
 20
66.489245921
 10
27.820662985
 20
66.594462791
 10
27.893736933
 20
66.692991605
 10
27.976116524
 20
66.783883476
 10
28.067008395
 20
66.866263067
 10
28.165537209
 20
66.939337015
 10
28.270754079
 20
67.00240158
 10
28.38164571
 20
67.054849416
 10
28.497144153
 20
67.09617542
 10
28.616137097
 20
67.125981601
 10
28.737478575
 20
67.143980908
 10
28.86
 20
67.15
 10
50.22
 20
67.15
 10
50.342521425
 20
67.143980908
 10
50.463862903
 20
67.125981601
 10
50.582855847
 20
67.09617542
 10
50.69835429
 20
67.054849416
 10
50.809245921
 20
67.00240158
 10
50.914462791
 20
66.939337015
 10
51.012991605
 20
66.866263067
 10
51.103883476
 20
66.783883476
 10
51.186263067
 20
66.692991605
 10
51.259337015
 20
66.594462791
 10
51.32240158
 20
66.489245921
 10
51.374849416
 20
66.37835429
 10
51.41617542
 20
66.262855847
 10
51.445981601
 20
66.143862903
 10
51.463980908
 20
66.022521425
 10
51.47
 20
65.9
 10
51.463980908
 20
65.777478575
 10
51.445981601
 20
65.656137097
 10
51.41617542
 20
65.537144153
 10
51.374849416
 20
65.42164571
 10
51.32240158
 20
65.310754079
 10
51.259337015
 20
65.205537209
 10
51.186263067
 20
65.107008395
 10
51.103883476
 20
65.016116524
 10
51.012991605
 20
64.933736933
 10
50.914462791
 20
64.860662985
 10
50.809245921
 20
64.79759842
 10
50.69835429
 20
64.745150584
 10
50.582855847
 20
64.70382458
 10
50.463862903
 20
64.674018399
 10
50.342521425
 20
64.656019092
 10
50.22
 20
64.65
 10
28.86
 20
64.65
 10
28.737478575
 20
64.656019092
 10
28.616137097
 20
64.674018399
 10
28.497144153
 20
64.70382458
 10
28.38164571
 20
64.745150584
 10
28.270754079
 20
64.79759842
 10
28.165537209
 20
64.860662985
 10
28.067008395
 20
64.933736933
 10
27.976116524
 20
65.016116524
 10
27.893736933
 20
65.107008395
 10
27.820662985
 20
65.205537209
 10
27.75759842
 20
65.310754079
 10
27.705150584
 20
65.42164571
 10
27.66382458
 20
65.537144153
 10
27.634018399
 20
65.656137097
 10
27.616019092
 20
65.777478575
 10
27.61
 20
65.9
  0
LWPOLYLINE
  5
42
330
17
100
AcDbEntity
  8
0
100
AcDbPolyline
 90
85
 70
0
 10
5.0
 20
6.25
 10
5.0
 20
24.13
 10
5.006019092
 20
24.252521425
 10
5.024018399
 20
24.373862903
 10
5.05382458
 20
24.492855847
 10
5.095150584
 20
24.60835429
 10
5.14759842
 20
24.719245921
 10
5.210662985
 20
24.824462791
 10
5.283736933
 20
24.922991605
 10
5.366116524
 20
25.013883476
 10
5.457008395
 20
25.096263067
 10
5.555537209
 20
25.169337015
 10
5.660754079
 20
25.23240158
 10
5.77164571
 20
25.284849416
 10
5.887144153
 20
25.32617542
 10
6.006137097
 20
25.355981601
 10
6.127478575
 20
25.373980908
 10
6.25
 20
25.38
 10
6.372521425
 20
25.373980908
 10
6.493862903
 20
25.355981601
 10
6.612855847
 20
25.32617542
 10
6.72835429
 20
25.284849416
 10
6.839245921
 20
25.23240158
 10
6.944462791
 20
25.169337015
 10
7.042991605
 20
25.096263067
 10
7.133883476
 20
25.013883476
 10
7.216263067
 20
24.922991605
 10
7.289337015
 20
24.824462791
 10
7.35240158
 20
24.719245921
 10
7.404849416
 20
24.60835429
 10
7.44617542
 20
24.492855847
 10
7.475981601
 20
24.373862903
 10
7.493980908
 20
24.252521425
 10
7.5
 20
24.13
 10
7.5
 20
7.5
 10
23.86
 20
7.5
 10
23.982521425
 20
7.493980908
 10
24.103862903
 20
7.475981601
 10
24.222855847
 20
7.44617542
 10
24.33835429
 20
7.404849416
 10
24.449245921
 20
7.35240158
 10
24.554462791
 20
7.289337015
 10
24.652991605
 20
7.216263067
 10
24.743883476
 20
7.133883476
 10
24.826263067
 20
7.042991605
 10
24.899337015
 20
6.944462791
 10
24.96240158
 20
6.839245921
 10
25.014849416
 20
6.72835429
 10
25.05617542
 20
6.612855847
 10
25.085981601
 20
6.493862903
 10
25.103980908
 20
6.372521425
 10
25.11
 20
6.25
 10
25.103980908
 20
6.127478575
 10
25.085981601
 20
6.006137097
 10
25.05617542
 20
5.887144153
 10
25.014849416
 20
5.77164571
 10
24.96240158
 20
5.660754079
 10
24.899337015
 20
5.555537209
 10
24.826263067
 20
5.457008395
 10
24.743883476
 20
5.366116524
 10
24.652991605
 20
5.283736933
 10
24.554462791
 20
5.210662985
 10
24.449245921
 20
5.14759842
 10
24.33835429
 20
5.095150584
 10
24.222855847
 20
5.05382458
 10
24.103862903
 20
5.024018399
 10
23.982521425
 20
5.006019092
 10
23.86
 20
5.0
 10
6.25
 20
5.0
 10
6.127478575
 20
5.006019092
 10
6.006137097
 20
5.024018399
 10
5.887144153
 20
5.05382458
 10
5.77164571
 20
5.095150584
 10
5.660754079
 20
5.14759842
 10
5.555537209
 20
5.210662985
 10
5.457008395
 20
5.283736933
 10
5.366116524
 20
5.366116524
 10
5.283736933
 20
5.457008395
 10
5.210662985
 20
5.555537209
 10
5.14759842
 20
5.660754079
 10
5.095150584
 20
5.77164571
 10
5.05382458
 20
5.887144153
 10
5.024018399
 20
6.006137097
 10
5.006019092
 20
6.127478575
 10
5.0
 20
6.25
  0
LWPOLYLINE
  5
43
330
17
100
AcDbEntity
  8
0
100
AcDbPolyline
 90
85
 70
0
 10
7.5
 20
178.91
 10
7.5
 20
162.28
 10
7.493980908
 20
162.157478575
 10
7.475981601
 20
162.036137097
 10
7.44617542
 20
161.917144153
 10
7.404849416
 20
161.80164571
 10
7.35240158
 20
161.690754079
 10
7.289337015
 20
161.585537209
 10
7.216263067
 20
161.487008395
 10
7.133883476
 20
161.396116524
 10
7.042991605
 20
161.313736933
 10
6.944462791
 20
161.240662985
 10
6.839245921
 20
161.17759842
 10
6.72835429
 20
161.125150584
 10
6.612855847
 20
161.08382458
 10
6.493862903
 20
161.054018399
 10
6.372521425
 20
161.036019092
 10
6.25
 20
161.03
 10
6.127478575
 20
161.036019092
 10
6.006137097
 20
161.054018399
 10
5.887144153
 20
161.08382458
 10
5.77164571
 20
161.125150584
 10
5.660754079
 20
161.17759842
 10
5.555537209
 20
161.240662985
 10
5.457008395
 20
161.313736933
 10
5.366116524
 20
161.396116524
 10
5.283736933
 20
161.487008395
 10
5.210662985
 20
161.585537209
 10
5.14759842
 20
161.690754079
 10
5.095150584
 20
161.80164571
 10
5.05382458
 20
161.917144153
 10
5.024018399
 20
162.036137097
 10
5.006019092
 20
162.157478575
 10
5.0
 20
162.28
 10
5.0
 20
180.16
 10
5.006019092
 20
180.282521425
 10
5.024018399
 20
180.403862903
 10
5.05382458
 20
180.522855847
 10
5.095150584
 20
180.63835429
 10
5.14759842
 20
180.749245921
 10
5.210662985
 20
180.854462791
 10
5.283736933
 20
180.952991605
 10
5.366116524
 20
181.043883476
 10
5.457008395
 20
181.126263067
 10
5.555537209
 20
181.199337015
 10
5.660754079
 20
181.26240158
 10
5.77164571
 20
181.314849416
 10
5.887144153
 20
181.35617542
 10
6.006137097
 20
181.385981601
 10
6.127478575
 20
181.403980908
 10
6.25
 20
181.41
 10
23.86
 20
181.41
 10
23.982521425
 20
181.403980908
 10
24.103862903
 20
181.385981601
 10
24.222855847
 20
181.35617542
 10
24.33835429
 20
181.314849416
 10
24.449245921
 20
181.26240158
 10
24.554462791
 20
181.199337015
 10
24.652991605
 20
181.126263067
 10
24.743883476
 20
181.043883476
 10
24.826263067
 20
180.952991605
 10
24.899337015
 20
180.854462791
 10
24.96240158
 20
180.749245921
 10
25.014849416
 20
180.63835429
 10
25.05617542
 20
180.522855847
 10
25.085981601
 20
180.403862903
 10
25.103980908
 20
180.282521425
 10
25.11
 20
180.16
 10
25.103980908
 20
180.037478575
 10
25.085981601
 20
179.916137097
 10
25.05617542
 20
179.797144153
 10
25.014849416
 20
179.68164571
 10
24.96240158
 20
179.570754079
 10
24.899337015
 20
179.465537209
 10
24.826263067
 20
179.367008395
 10
24.743883476
 20
179.276116524
 10
24.652991605
 20
179.193736933
 10
24.554462791
 20
179.120662985
 10
24.449245921
 20
179.05759842
 10
24.33835429
 20
179.005150584
 10
24.222855847
 20
178.96382458
 10
24.103862903
 20
178.934018399
 10
23.982521425
 20
178.916019092
 10
23.86
 20
178.91
 10
7.5
 20
178.91
  0
LWPOLYLINE
  5
44
330
17
100
AcDbEntity
  8
0
100
AcDbPolyline
 90
103
 70
0
 10
5.0
 20
65.9
 10
5.0
 20
77.39
 10
5.006019092
 20
77.512521425
 10
5.024018399
 20
77.633862903
 10
5.05382458
 20
77.752855847
 10
5.095150584
 20
77.86835429
 10
5.14759842
 20
77.979245921
 10
5.210662985
 20
78.084462791
 10
5.283736933
 20
78.182991605
 10
5.366116524
 20
78.273883476
 10
5.457008395
 20
78.356263067
 10
5.555537209
 20
78.429337015
 10
5.660754079
 20
78.49240158
 10
5.77164571
 20
78.544849416
 10
5.887144153
 20
78.58617542
 10
6.006137097
 20
78.615981601
 10
6.127478575
 20
78.633980908
 10
6.25
 20
78.64
 10
6.372521425
 20
78.633980908
 10
6.493862903
 20
78.615981601
 10
6.612855847
 20
78.58617542
 10
6.72835429
 20
78.544849416
 10
6.839245921
 20
78.49240158
 10
6.944462791
 20
78.429337015
 10
7.042991605
 20
78.356263067
 10
7.133883476
 20
78.273883476
 10
7.216263067
 20
78.182991605
 10
7.289337015
 20
78.084462791
 10
7.35240158
 20
77.979245921
 10
7.404849416
 20
77.86835429
 10
7.44617542
 20
77.752855847
 10
7.475981601
 20
77.633862903
 10
7.493980908
 20
77.512521425
 10
7.5
 20
77.39
 10
7.5
 20
67.15
 10
23.86
 20
67.15
 10
23.982521425
 20
67.143980908
 10
24.103862903
 20
67.125981601
 10
24.222855847
 20
67.09617542
 10
24.33835429
 20
67.054849416
 10
24.449245921
 20
67.00240158
 10
24.554462791
 20
66.939337015
 10
24.652991605
 20
66.866263067
 10
24.743883476
 20
66.783883476
 10
24.826263067
 20
66.692991605
 10
24.899337015
 20
66.594462791
 10
24.96240158
 20
66.489245921
 10
25.014849416
 20
66.37835429
 10
25.05617542
 20
66.262855847
 10
25.085981601
 20
66.143862903
 10
25.103980908
 20
66.022521425
 10
25.11
 20
65.9
 10
25.103980908
 20
65.777478575
 10
25.085981601
 20
65.656137097
 10
25.05617542
 20
65.537144153
 10
25.014849416
 20
65.42164571
 10
24.96240158
 20
65.310754079
 10
24.899337015
 20
65.205537209
 10
24.826263067
 20
65.107008395
 10
24.743883476
 20
65.016116524
 10
24.652991605
 20
64.933736933
 10
24.554462791
 20
64.860662985
 10
24.449245921
 20
64.79759842
 10
24.33835429
 20
64.745150584
 10
24.222855847
 20
64.70382458
 10
24.103862903
 20
64.674018399
 10
23.982521425
 20
64.656019092
 10
23.86
 20
64.65
 10
7.5
 20
64.65
 10
7.5
 20
55.76
 10
7.493980908
 20
55.637478575
 10
7.475981601
 20
55.516137097
 10
7.44617542
 20
55.397144153
 10
7.404849416
 20
55.28164571
 10
7.35240158
 20
55.170754079
 10
7.289337015
 20
55.065537209
 10
7.216263067
 20
54.967008395
 10
7.133883476
 20
54.876116524
 10
7.042991605
 20
54.793736933
 10
6.944462791
 20
54.720662985
 10
6.839245921
 20
54.65759842
 10
6.72835429
 20
54.605150584
 10
6.612855847
 20
54.56382458
 10
6.493862903
 20
54.534018399
 10
6.372521425
 20
54.516019092
 10
6.25
 20
54.51
 10
6.127478575
 20
54.516019092
 10
6.006137097
 20
54.534018399
 10
5.887144153
 20
54.56382458
 10
5.77164571
 20
54.605150584
 10
5.660754079
 20
54.65759842
 10
5.555537209
 20
54.720662985
 10
5.457008395
 20
54.793736933
 10
5.366116524
 20
54.876116524
 10
5.283736933
 20
54.967008395
 10
5.210662985
 20
55.065537209
 10
5.14759842
 20
55.170754079
 10
5.095150584
 20
55.28164571
 10
5.05382458
 20
55.397144153
 10
5.024018399
 20
55.516137097
 10
5.006019092
 20
55.637478575
 10
5.0
 20
55.76
 10
5.0
 20
65.9
  0
LWPOLYLINE
  5
45
330
17
100
AcDbEntity
  8
0
100
AcDbPolyline
 90
67
 70
0
 10
7.5
 20
135.65
 10
7.493980908
 20
135.527478575
 10
7.475981601
 20
135.406137097
 10
7.44617542
 20
135.287144153
 10
7.404849416
 20
135.17164571
 10
7.35240158
 20
135.060754079
 10
7.289337015
 20
134.955537209
 10
7.216263067
 20
134.857008395
 10
7.133883476
 20
134.766116524
 10
7.042991605
 20
134.683736933
 10
6.944462791
 20
134.610662985
 10
6.839245921
 20
134.54759842
 10
6.72835429
 20
134.495150584
 10
6.612855847
 20
134.45382458
 10
6.493862903
 20
134.424018399
 10
6.372521425
 20
134.406019092
 10
6.25
 20
134.4
 10
6.127478575
 20
134.406019092
 10
6.006137097
 20
134.424018399
 10
5.887144153
 20
134.45382458
 10
5.77164571
 20
134.495150584
 10
5.660754079
 20
134.54759842
 10
5.555537209
 20
134.610662985
 10
5.457008395
 20
134.683736933
 10
5.366116524
 20
134.766116524
 10
5.283736933
 20
134.857008395
 10
5.210662985
 20
134.955537209
 10
5.14759842
 20
135.060754079
 10
5.095150584
 20
135.17164571
 10
5.05382458
 20
135.287144153
 10
5.024018399
 20
135.406137097
 10
5.006019092
 20
135.527478575
 10
5.0
 20
135.65
 10
5.0
 20
157.28
 10
5.006019092
 20
157.402521425
 10
5.024018399
 20
157.523862903
 10
5.05382458
 20
157.642855847
 10
5.095150584
 20
157.75835429
 10
5.14759842
 20
157.869245921
 10
5.210662985
 20
157.974462791
 10
5.283736933
 20
158.072991605
 10
5.366116524
 20
158.163883476
 10
5.457008395
 20
158.246263067
 10
5.555537209
 20
158.319337015
 10
5.660754079
 20
158.38240158
 10
5.77164571
 20
158.434849416
 10
5.887144153
 20
158.47617542
 10
6.006137097
 20
158.505981601
 10
6.127478575
 20
158.523980908
 10
6.25
 20
158.53
 10
6.372521425
 20
158.523980908
 10
6.493862903
 20
158.505981601
 10
6.612855847
 20
158.47617542
 10
6.72835429
 20
158.434849416
 10
6.839245921
 20
158.38240158
 10
6.944462791
 20
158.319337015
 10
7.042991605
 20
158.246263067
 10
7.133883476
 20
158.163883476
 10
7.216263067
 20
158.072991605
 10
7.289337015
 20
157.974462791
 10
7.35240158
 20
157.869245921
 10
7.404849416
 20
157.75835429
 10
7.44617542
 20
157.642855847
 10
7.475981601
 20
157.523862903
 10
7.493980908
 20
157.402521425
 10
7.5
 20
157.28
 10
7.5
 20
135.65
  0
LWPOLYLINE
  5
46
330
17
100
AcDbEntity
  8
0
100
AcDbPolyline
 90
67
 70
0
 10
7.5
 20
109.02
 10
7.493980908
 20
108.897478575
 10
7.475981601
 20
108.776137097
 10
7.44617542
 20
108.657144153
 10
7.404849416
 20
108.54164571
 10
7.35240158
 20
108.430754079
 10
7.289337015
 20
108.325537209
 10
7.216263067
 20
108.227008395
 10
7.133883476
 20
108.136116524
 10
7.042991605
 20
108.053736933
 10
6.944462791
 20
107.980662985
 10
6.839245921
 20
107.91759842
 10
6.72835429
 20
107.865150584
 10
6.612855847
 20
107.82382458
 10
6.493862903
 20
107.794018399
 10
6.372521425
 20
107.776019092
 10
6.25
 20
107.77
 10
6.127478575
 20
107.776019092
 10
6.006137097
 20
107.794018399
 10
5.887144153
 20
107.82382458
 10
5.77164571
 20
107.865150584
 10
5.660754079
 20
107.91759842
 10
5.555537209
 20
107.980662985
 10
5.457008395
 20
108.053736933
 10
5.366116524
 20
108.136116524
 10
5.283736933
 20
108.227008395
 10
5.210662985
 20
108.325537209
 10
5.14759842
 20
108.430754079
 10
5.095150584
 20
108.54164571
 10
5.05382458
 20
108.657144153
 10
5.024018399
 20
108.776137097
 10
5.006019092
 20
108.897478575
 10
5.0
 20
109.02
 10
5.0
 20
130.65
 10
5.006019092
 20
130.772521425
 10
5.024018399
 20
130.893862903
 10
5.05382458
 20
131.012855847
 10
5.095150584
 20
131.12835429
 10
5.14759842
 20
131.239245921
 10
5.210662985
 20
131.344462791
 10
5.283736933
 20
131.442991605
 10
5.366116524
 20
131.533883476
 10
5.457008395
 20
131.616263067
 10
5.555537209
 20
131.689337015
 10
5.660754079
 20
131.75240158
 10
5.77164571
 20
131.804849416
 10
5.887144153
 20
131.84617542
 10
6.006137097
 20
131.875981601
 10
6.127478575
 20
131.893980908
 10
6.25
 20
131.9
 10
6.372521425
 20
131.893980908
 10
6.493862903
 20
131.875981601
 10
6.612855847
 20
131.84617542
 10
6.72835429
 20
131.804849416
 10
6.839245921
 20
131.75240158
 10
6.944462791
 20
131.689337015
 10
7.042991605
 20
131.616263067
 10
7.133883476
 20
131.533883476
 10
7.216263067
 20
131.442991605
 10
7.289337015
 20
131.344462791
 10
7.35240158
 20
131.239245921
 10
7.404849416
 20
131.12835429
 10
7.44617542
 20
131.012855847
 10
7.475981601
 20
130.893862903
 10
7.493980908
 20
130.772521425
 10
7.5
 20
130.65
 10
7.5
 20
109.02
  0
LWPOLYLINE
  5
47
330
17
100
AcDbEntity
  8
0
100
AcDbPolyline
 90
67
 70
0
 10
7.5
 20
82.39
 10
7.493980908
 20
82.267478575
 10
7.475981601
 20
82.146137097
 10
7.44617542
 20
82.027144153
 10
7.404849416
 20
81.91164571
 10
7.35240158
 20
81.800754079
 10
7.289337015
 20
81.695537209
 10
7.216263067
 20
81.597008395
 10
7.133883476
 20
81.506116524
 10
7.042991605
 20
81.423736933
 10
6.944462791
 20
81.350662985
 10
6.839245921
 20
81.28759842
 10
6.72835429
 20
81.235150584
 10
6.612855847
 20
81.19382458
 10
6.493862903
 20
81.164018399
 10
6.372521425
 20
81.146019092
 10
6.25
 20
81.14
 10
6.127478575
 20
81.146019092
 10
6.006137097
 20
81.164018399
 10
5.887144153
 20
81.19382458
 10
5.77164571
 20
81.235150584
 10
5.660754079
 20
81.28759842
 10
5.555537209
 20
81.350662985
 10
5.457008395
 20
81.423736933
 10
5.366116524
 20
81.506116524
 10
5.283736933
 20
81.597008395
 10
5.210662985
 20
81.695537209
 10
5.14759842
 20
81.800754079
 10
5.095150584
 20
81.91164571
 10
5.05382458
 20
82.027144153
 10
5.024018399
 20
82.146137097
 10
5.006019092
 20
82.267478575
 10
5.0
 20
82.39
 10
5.0
 20
104.02
 10
5.006019092
 20
104.142521425
 10
5.024018399
 20
104.263862903
 10
5.05382458
 20
104.382855847
 10
5.095150584
 20
104.49835429
 10
5.14759842
 20
104.609245921
 10
5.210662985
 20
104.714462791
 10
5.283736933
 20
104.812991605
 10
5.366116524
 20
104.903883476
 10
5.457008395
 20
104.986263067
 10
5.555537209
 20
105.059337015
 10
5.660754079
 20
105.12240158
 10
5.77164571
 20
105.174849416
 10
5.887144153
 20
105.21617542
 10
6.006137097
 20
105.245981601
 10
6.127478575
 20
105.263980908
 10
6.25
 20
105.27
 10
6.372521425
 20
105.263980908
 10
6.493862903
 20
105.245981601
 10
6.612855847
 20
105.21617542
 10
6.72835429
 20
105.174849416
 10
6.839245921
 20
105.12240158
 10
6.944462791
 20
105.059337015
 10
7.042991605
 20
104.986263067
 10
7.133883476
 20
104.903883476
 10
7.216263067
 20
104.812991605
 10
7.289337015
 20
104.714462791
 10
7.35240158
 20
104.609245921
 10
7.404849416
 20
104.49835429
 10
7.44617542
 20
104.382855847
 10
7.475981601
 20
104.263862903
 10
7.493980908
 20
104.142521425
 10
7.5
 20
104.02
 10
7.5
 20
82.39
  0
LWPOLYLINE
  5
48
330
17
100
AcDbEntity
  8
0
100
AcDbPolyline
 90
67
 70
0
 10
7.5
 20
29.13
 10
7.493980908
 20
29.007478575
 10
7.475981601
 20
28.886137097
 10
7.44617542
 20
28.767144153
 10
7.404849416
 20
28.65164571
 10
7.35240158
 20
28.540754079
 10
7.289337015
 20
28.435537209
 10
7.216263067
 20
28.337008395
 10
7.133883476
 20
28.246116524
 10
7.042991605
 20
28.163736933
 10
6.944462791
 20
28.090662985
 10
6.839245921
 20
28.02759842
 10
6.72835429
 20
27.975150584
 10
6.612855847
 20
27.93382458
 10
6.493862903
 20
27.904018399
 10
6.372521425
 20
27.886019092
 10
6.25
 20
27.88
 10
6.127478575
 20
27.886019092
 10
6.006137097
 20
27.904018399
 10
5.887144153
 20
27.93382458
 10
5.77164571
 20
27.975150584
 10
5.660754079
 20
28.02759842
 10
5.555537209
 20
28.090662985
 10
5.457008395
 20
28.163736933
 10
5.366116524
 20
28.246116524
 10
5.283736933
 20
28.337008395
 10
5.210662985
 20
28.435537209
 10
5.14759842
 20
28.540754079
 10
5.095150584
 20
28.65164571
 10
5.05382458
 20
28.767144153
 10
5.024018399
 20
28.886137097
 10
5.006019092
 20
29.007478575
 10
5.0
 20
29.13
 10
5.0
 20
50.76
 10
5.006019092
 20
50.882521425
 10
5.024018399
 20
51.003862903
 10
5.05382458
 20
51.122855847
 10
5.095150584
 20
51.23835429
 10
5.14759842
 20
51.349245921
 10
5.210662985
 20
51.454462791
 10
5.283736933
 20
51.552991605
 10
5.366116524
 20
51.643883476
 10
5.457008395
 20
51.726263067
 10
5.555537209
 20
51.799337015
 10
5.660754079
 20
51.86240158
 10
5.77164571
 20
51.914849416
 10
5.887144153
 20
51.95617542
 10
6.006137097
 20
51.985981601
 10
6.127478575
 20
52.003980908
 10
6.25
 20
52.01
 10
6.372521425
 20
52.003980908
 10
6.493862903
 20
51.985981601
 10
6.612855847
 20
51.95617542
 10
6.72835429
 20
51.914849416
 10
6.839245921
 20
51.86240158
 10
6.944462791
 20
51.799337015
 10
7.042991605
 20
51.726263067
 10
7.133883476
 20
51.643883476
 10
7.216263067
 20
51.552991605
 10
7.289337015
 20
51.454462791
 10
7.35240158
 20
51.349245921
 10
7.404849416
 20
51.23835429
 10
7.44617542
 20
51.122855847
 10
7.475981601
 20
51.003862903
 10
7.493980908
 20
50.882521425
 10
7.5
 20
50.76
 10
7.5
 20
29.13
  0
ENDSEC
  0
SECTION
  2
OBJECTS
  0
DICTIONARY
  5
A
330
0
100
AcDbDictionary
281
1
  3
ACAD_COLOR
350
B
  3
ACAD_GROUP
350
C
  3
ACAD_LAYOUT
350
D
  3
ACAD_MATERIAL
350
E
  3
ACAD_MLEADERSTYLE
350
F
  3
ACAD_MLINESTYLE
350
10
  3
ACAD_PLOTSETTINGS
350
11
  3
ACAD_PLOTSTYLENAME
350
12
  3
ACAD_SCALELIST
350
14
  3
ACAD_TABLESTYLE
350
15
  3
ACAD_VISUALSTYLE
350
16
  0
DICTIONARY
  5
B
330
A
100
AcDbDictionary
281
1
  0
DICTIONARY
  5
C
330
A
100
AcDbDictionary
281
1
  0
DICTIONARY
  5
D
330
A
100
AcDbDictionary
281
1
  3
Model
350
1A
  3
Layout1
350
1E
  0
DICTIONARY
  5
E
330
A
100
AcDbDictionary
281
1
  3
ByBlock
350
1F
  3
ByLayer
350
20
  3
Global
350
21
  0
DICTIONARY
  5
F
330
A
100
AcDbDictionary
281
1
  3
Standard
350
2C
  0
DICTIONARY
  5
10
330
A
100
AcDbDictionary
281
1
  3
Standard
350
22
  0
DICTIONARY
  5
11
330
A
100
AcDbDictionary
281
1
  0
ACDBDICTIONARYWDFLT
  5
12
330
A
100
AcDbDictionary
281
1
  3
Normal
350
13
100
AcDbDictionaryWithDefault
340
13
  0
ACDBPLACEHOLDER
  5
13
330
12
  0
DICTIONARY
  5
14
330
A
100
AcDbDictionary
281
1
  0
DICTIONARY
  5
15
330
A
100
AcDbDictionary
281
1
  0
DICTIONARY
  5
16
330
A
100
AcDbDictionary
281
1
  0
LAYOUT
  5
1A
330
D
100
AcDbPlotSettings
  1

  2
Adobe PDF
  4
A4
  6

 40
3.175
 41
3.175
 42
3.175
 43
3.175
 44
209.91
 45
297.03
 46
0.0
 47
0.0
 48
0.0
 49
0.0
140
0.0
141
0.0
142
1.0
143
1.0
 70
1024
 72
0
 73
1
 74
5
  7

 75
16
 76
0
 77
2
 78
300
147
1.0
148
0.0
149
0.0
100
AcDbLayout
  1
Model
 70
1
 71
0
 10
-3.175
 20
-3.175
 11
293.857
 21
206.735
 12
0.0
 22
0.0
 32
0.0
 14
29.068
 24
20.356
 34
0.0
 15
261.614
 25
183.204
 35
0.0
146
0.0
 13
0.0
 23
0.0
 33
0.0
 16
1.0
 26
0.0
 36
0.0
 17
0.0
 27
1.0
 37
0.0
 76
1
330
17
  0
LAYOUT
  5
1E
330
D
100
AcDbPlotSettings
  1

  2
Adobe PDF
  4
A4
  6

 40
3.175
 41
3.175
 42
3.175
 43
3.175
 44
209.91
 45
297.03
 46
0.0
 47
0.0
 48
0.0
 49
0.0
140
0.0
141
0.0
142
1.0
143
1.0
 70
0
 72
0
 73
1
 74
5
  7

 75
16
 76
0
 77
2
 78
300
147
1.0
148
0.0
149
0.0
100
AcDbLayout
  1
Layout1
 70
1
 71
1
 10
-3.175
 20
-3.175
 11
293.857
 21
206.735
 12
0.0
 22
0.0
 32
0.0
 14
29.068
 24
20.356
 34
0.0
 15
261.614
 25
183.204
 35
0.0
146
0.0
 13
0.0
 23
0.0
 33
0.0
 16
1.0
 26
0.0
 36
0.0
 17
0.0
 27
1.0
 37
0.0
 76
1
330
1B
  0
MATERIAL
  5
1F
102
{ACAD_REACTORS
330
E
102
}
330
E
100
AcDbMaterial
  1
ByBlock
  2

 70
0
 40
1.0
 71
1
 41
1.0
 91
-1023410177
 42
1.0
 72
1
  3

 73
1
 74
1
 75
1
 44
0.5
 73
0
 45
1.0
 46
1.0
 77
1
  4

 78
1
 79
1
170
1
 48
1.0
171
1
  6

172
1
173
1
174
1
140
1.0
141
1.0
175
1
  7

176
1
177
1
178
1
143
1.0
179
1
  8

270
1
271
1
272
1
145
1.0
146
1.0
273
1
  9

274
1
275
1
276
1
 42
1.0
 72
1
  3

 73
1
 74
1
 75
1
 94
63
  0
MATERIAL
  5
20
102
{ACAD_REACTORS
330
E
102
}
330
E
100
AcDbMaterial
  1
ByLayer
  2

 70
0
 40
1.0
 71
1
 41
1.0
 91
-1023410177
 42
1.0
 72
1
  3

 73
1
 74
1
 75
1
 44
0.5
 73
0
 45
1.0
 46
1.0
 77
1
  4

 78
1
 79
1
170
1
 48
1.0
171
1
  6

172
1
173
1
174
1
140
1.0
141
1.0
175
1
  7

176
1
177
1
178
1
143
1.0
179
1
  8

270
1
271
1
272
1
145
1.0
146
1.0
273
1
  9

274
1
275
1
276
1
 42
1.0
 72
1
  3

 73
1
 74
1
 75
1
 94
63
  0
MATERIAL
  5
21
102
{ACAD_REACTORS
330
E
102
}
330
E
100
AcDbMaterial
  1
Global
  2

 70
0
 40
1.0
 71
1
 41
1.0
 91
-1023410177
 42
1.0
 72
1
  3

 73
1
 74
1
 75
1
 44
0.5
 73
0
 45
1.0
 46
1.0
 77
1
  4

 78
1
 79
1
170
1
 48
1.0
171
1
  6

172
1
173
1
174
1
140
1.0
141
1.0
175
1
  7

176
1
177
1
178
1
143
1.0
179
1
  8

270
1
271
1
272
1
145
1.0
146
1.0
273
1
  9

274
1
275
1
276
1
 42
1.0
 72
1
  3

 73
1
 74
1
 75
1
 94
63
  0
MLINESTYLE
  5
22
102
{ACAD_REACTORS
330
10
102
}
330
10
100
AcDbMlineStyle
  2
Standard
 70
0
  3

 62
256
 51
90.0
 52
90.0
 71
2
 49
0.5
 62
256
  6
BYLAYER
 49
-0.5
 62
256
  6
BYLAYER
  0
MLEADERSTYLE
  5
2C
102
{ACAD_REACTORS
330
F
102
}
330
F
100
AcDbMLeaderStyle
179
2
170
2
171
1
172
0
 90
2
 40
0.0
 41
0.0
173
1
 91
-1056964608
 92
-2
290
1
 42
2.0
291
1
 43
8.0
  3
Standard
 44
4.0
300

342
29
174
1
175
1
176
0
178
1
 93
-1056964608
 45
4.0
292
0
297
0
 46
4.0
 94
-1056964608
 47
1.0
 49
0.0
140
1.0
294
1
141
0.0
177
0
142
1.0
295
0
296
0
143
3.75
271
0
272
9
272
9
  0
ENDSEC
  0
EOF
