G04 This is an RS-274x file exported by *
G04 gerbv version 2.7.0 *
G04 More information is available about gerbv at *
G04 http://gerbv.geda-project.org/ *
G04 --End of header info--*
%MOIN*%
%FSLAX36Y36*%
%IPPOS*%
G04 --Define apertures--*
%ADD10C,0.0060*%
G04 --Start main section--*
G54D10*
G01X-489330Y1557010D02*
G01X-550880Y1557010D01*
G01X-550880Y1588510D02*
G01X-489330Y1588510D01*
G01X-489330Y1620010D02*
G01X-550880Y1620010D01*
G01X-550880Y1651500D02*
G01X-489330Y1651500D01*
G01X-439330Y1714490D02*
G01X-377720Y1714490D01*
G01X-377720Y1745990D02*
G01X-439330Y1745990D01*
G01X-439330Y1808980D02*
G01X-377720Y1808980D01*
G01X-377720Y1840480D02*
G01X-439330Y1840480D01*
G01X-489330Y1840480D02*
G01X-550880Y1840480D01*
G01X-550880Y1808980D02*
G01X-489330Y1808980D01*
G01X-489330Y1934970D02*
G01X-550880Y1934970D01*
G01X-550880Y1966460D02*
G01X-489330Y1966460D01*
G01X-489330Y2029450D02*
G01X-550880Y2029450D01*
G01X-550880Y2060950D02*
G01X-489330Y2060950D01*
G01X-439330Y2060950D02*
G01X-377720Y2060950D01*
G01X-377720Y2029450D02*
G01X-439330Y2029450D01*
G01X-439330Y1966460D02*
G01X-377720Y1966460D01*
G01X-377720Y1934970D02*
G01X-439330Y1934970D01*
G01X-439330Y2123940D02*
G01X-377720Y2123940D01*
G01X-377720Y2155440D02*
G01X-439330Y2155440D01*
G01X-439330Y2249930D02*
G01X-377720Y2249930D01*
G01X-377720Y2281420D02*
G01X-439330Y2281420D01*
G01X-489330Y2281420D02*
G01X-550880Y2281420D01*
G01X-550880Y2249930D02*
G01X-489330Y2249930D01*
G01X-489330Y2344410D02*
G01X-550880Y2344410D01*
G01X-550880Y2375910D02*
G01X-489330Y2375910D01*
G01X-489330Y2438900D02*
G01X-550880Y2438900D01*
G01X-550880Y2470400D02*
G01X-489330Y2470400D01*
G01X-489330Y2533390D02*
G01X-550880Y2533390D01*
G01X-550880Y2564890D02*
G01X-489330Y2564890D01*
G01X-489330Y2627880D02*
G01X-550880Y2627880D01*
G01X-550880Y2659380D02*
G01X-489330Y2659380D01*
G01X-489330Y2722370D02*
G01X-550880Y2722370D01*
G01X-550880Y2753860D02*
G01X-489330Y2753860D01*
G01X-489330Y2816860D02*
G01X-550880Y2816860D01*
G01X-550880Y2848350D02*
G01X-489330Y2848350D01*
G01X-439330Y2848350D02*
G01X-377720Y2848350D01*
G01X-377720Y2816860D02*
G01X-439330Y2816860D01*
G01X-439330Y2753860D02*
G01X-377720Y2753860D01*
G01X-377720Y2722370D02*
G01X-439330Y2722370D01*
G01X-439330Y2659380D02*
G01X-377720Y2659380D01*
G01X-377720Y2627880D02*
G01X-439330Y2627880D01*
G01X-439330Y2564890D02*
G01X-377720Y2564890D01*
G01X-377720Y2533390D02*
G01X-439330Y2533390D01*
G01X-439330Y2470400D02*
G01X-377720Y2470400D01*
G01X-377720Y2438900D02*
G01X-439330Y2438900D01*
G01X-439330Y2375910D02*
G01X-377720Y2375910D01*
G01X-377720Y2344410D02*
G01X-439330Y2344410D01*
G01X-2127780Y2344410D02*
G01X-2189330Y2344410D01*
G01X-2189330Y2375910D02*
G01X-2127780Y2375910D01*
G01X-2127780Y2438900D02*
G01X-2189330Y2438900D01*
G01X-2189330Y2470400D02*
G01X-2127780Y2470400D01*
G01X-2127780Y2533390D02*
G01X-2189330Y2533390D01*
G01X-2189330Y2564890D02*
G01X-2127780Y2564890D01*
G01X-2127780Y2627880D02*
G01X-2189330Y2627880D01*
G01X-2189330Y2659380D02*
G01X-2127780Y2659380D01*
G01X-2127780Y2816860D02*
G01X-2189330Y2816860D01*
G01X-2189330Y2848350D02*
G01X-2127780Y2848350D01*
G01X-2127780Y2911340D02*
G01X-2189330Y2911340D01*
G01X-2189330Y2942840D02*
G01X-2127780Y2942840D01*
G01X-2239330Y2942840D02*
G01X-2300950Y2942840D01*
G01X-2300950Y2911340D02*
G01X-2239330Y2911340D01*
G01X-2239330Y2848350D02*
G01X-2300950Y2848350D01*
G01X-2300950Y2816860D02*
G01X-2239330Y2816860D01*
G01X-2239330Y2753860D02*
G01X-2300950Y2753860D01*
G01X-2300950Y2722370D02*
G01X-2239330Y2722370D01*
G01X-2239330Y2659380D02*
G01X-2300950Y2659380D01*
G01X-2300950Y2627880D02*
G01X-2239330Y2627880D01*
G01X-2239330Y2470400D02*
G01X-2300950Y2470400D01*
G01X-2300950Y2438900D02*
G01X-2239330Y2438900D01*
G01X-2239330Y2375910D02*
G01X-2300950Y2375910D01*
G01X-2300950Y2344410D02*
G01X-2239330Y2344410D01*
G01X-2239330Y2281420D02*
G01X-2300950Y2281420D01*
G01X-2300950Y2249930D02*
G01X-2239330Y2249930D01*
G01X-2239330Y2155440D02*
G01X-2300950Y2155440D01*
G01X-2300950Y2123940D02*
G01X-2239330Y2123940D01*
G01X-2239330Y2060950D02*
G01X-2300950Y2060950D01*
G01X-2300950Y2029450D02*
G01X-2239330Y2029450D01*
G01X-2189330Y2029450D02*
G01X-2127780Y2029450D01*
G01X-2127780Y2060950D02*
G01X-2189330Y2060950D01*
G01X-2189330Y2123940D02*
G01X-2127780Y2123940D01*
G01X-2127780Y2155440D02*
G01X-2189330Y2155440D01*
G01X-2189330Y1840480D02*
G01X-2127780Y1840480D01*
G01X-2127780Y1808980D02*
G01X-2189330Y1808980D01*
G01X-2189330Y1745990D02*
G01X-2127780Y1745990D01*
G01X-2127780Y1714490D02*
G01X-2189330Y1714490D01*
G01X-2189330Y1683000D02*
G01X-2127780Y1683000D01*
G01X-2127780Y1651500D02*
G01X-2189330Y1651500D01*
G01X-2239330Y1651500D02*
G01X-2300950Y1651500D01*
G01X-2300950Y1683000D02*
G01X-2239330Y1683000D01*
G01X-2239330Y1714490D02*
G01X-2300950Y1714490D01*
G01X-2300950Y1745990D02*
G01X-2239330Y1745990D01*
M02*
