G04 This is an RS-274x file exported by *
G04 gerbv version 2.7.0 *
G04 More information is available about gerbv at *
G04 http://gerbv.geda-project.org/ *
G04 --End of header info--*
%MOIN*%
%FSLAX36Y36*%
%IPPOS*%
G04 --Define apertures--*
%ADD10C,0.0080*%
G04 --Start main section--*
G54D10*
G01X-1469060Y3103670D02*
G01X-1517440Y3152050D01*
G01X-1521830Y3162660D02*
G01X-1521830Y3324950D01*
G01X-1526220Y3335560D02*
G01X-1572440Y3381770D01*
G01X-1583040Y3386170D02*
G01X-1661830Y3386170D01*
G01X-1661830Y3386170D02*
G01X-1662590Y3386190D01*
G01X-1662590Y3386190D02*
G01X-1663350Y3386250D01*
G01X-1663350Y3386250D02*
G01X-1664100Y3386340D01*
G01X-1664100Y3386340D02*
G01X-1664850Y3386480D01*
G01X-1664850Y3386480D02*
G01X-1665590Y3386650D01*
G01X-1665590Y3386650D02*
G01X-1666320Y3386860D01*
G01X-1666320Y3386860D02*
G01X-1667040Y3387100D01*
G01X-1667040Y3387100D02*
G01X-1667750Y3387390D01*
G01X-1667750Y3387390D02*
G01X-1668440Y3387700D01*
G01X-1668440Y3387700D02*
G01X-1669110Y3388050D01*
G01X-1669110Y3388050D02*
G01X-1669760Y3388440D01*
G01X-1669760Y3388440D02*
G01X-1670400Y3388860D01*
G01X-1670400Y3388860D02*
G01X-1671010Y3389310D01*
G01X-1671010Y3389310D02*
G01X-1671600Y3389790D01*
G01X-1671600Y3389790D02*
G01X-1672160Y3390300D01*
G01X-1672160Y3390300D02*
G01X-1672700Y3390840D01*
G01X-1672700Y3390840D02*
G01X-1673210Y3391400D01*
G01X-1673210Y3391400D02*
G01X-1673690Y3391990D01*
G01X-1673690Y3391990D02*
G01X-1674140Y3392600D01*
G01X-1674140Y3392600D02*
G01X-1674560Y3393240D01*
G01X-1674560Y3393240D02*
G01X-1674950Y3393890D01*
G01X-1674950Y3393890D02*
G01X-1675300Y3394560D01*
G01X-1675300Y3394560D02*
G01X-1675610Y3395250D01*
G01X-1675610Y3395250D02*
G01X-1675900Y3395960D01*
G01X-1675900Y3395960D02*
G01X-1676140Y3396680D01*
G01X-1676140Y3396680D02*
G01X-1676350Y3397410D01*
G01X-1676350Y3397410D02*
G01X-1676520Y3398150D01*
G01X-1676520Y3398150D02*
G01X-1676660Y3398900D01*
G01X-1676660Y3398900D02*
G01X-1676750Y3399650D01*
G01X-1676750Y3399650D02*
G01X-1676810Y3400410D01*
G01X-1676810Y3400410D02*
G01X-1676830Y3401170D01*
G01X-1676830Y3401170D02*
G01X-1676830Y3428670D01*
G01X-1583040Y3386170D02*
G01X-1582300Y3386150D01*
G01X-1582300Y3386150D02*
G01X-1581570Y3386100D01*
G01X-1581570Y3386100D02*
G01X-1580840Y3386010D01*
G01X-1580840Y3386010D02*
G01X-1580110Y3385880D01*
G01X-1580110Y3385880D02*
G01X-1579400Y3385720D01*
G01X-1579400Y3385720D02*
G01X-1578690Y3385520D01*
G01X-1578690Y3385520D02*
G01X-1577990Y3385290D01*
G01X-1577990Y3385290D02*
G01X-1577300Y3385030D01*
G01X-1577300Y3385030D02*
G01X-1576630Y3384730D01*
G01X-1576630Y3384730D02*
G01X-1575970Y3384400D01*
G01X-1575970Y3384400D02*
G01X-1575330Y3384040D01*
G01X-1575330Y3384040D02*
G01X-1574710Y3383640D01*
G01X-1574710Y3383640D02*
G01X-1574100Y3383220D01*
G01X-1574100Y3383220D02*
G01X-1573520Y3382770D01*
G01X-1573520Y3382770D02*
G01X-1572970Y3382280D01*
G01X-1572970Y3382280D02*
G01X-1572430Y3381780D01*
G01X-1526220Y3335560D02*
G01X-1525720Y3335020D01*
G01X-1525720Y3335020D02*
G01X-1525230Y3334470D01*
G01X-1525230Y3334470D02*
G01X-1524780Y3333890D01*
G01X-1524780Y3333890D02*
G01X-1524360Y3333280D01*
G01X-1524360Y3333280D02*
G01X-1523960Y3332660D01*
G01X-1523960Y3332660D02*
G01X-1523600Y3332020D01*
G01X-1523600Y3332020D02*
G01X-1523270Y3331360D01*
G01X-1523270Y3331360D02*
G01X-1522970Y3330690D01*
G01X-1522970Y3330690D02*
G01X-1522710Y3330000D01*
G01X-1522710Y3330000D02*
G01X-1522480Y3329300D01*
G01X-1522480Y3329300D02*
G01X-1522280Y3328590D01*
G01X-1522280Y3328590D02*
G01X-1522120Y3327880D01*
G01X-1522120Y3327880D02*
G01X-1521990Y3327150D01*
G01X-1521990Y3327150D02*
G01X-1521900Y3326420D01*
G01X-1521900Y3326420D02*
G01X-1521850Y3325690D01*
G01X-1521850Y3325690D02*
G01X-1521830Y3324950D01*
G01X-1521830Y3162660D02*
G01X-1521810Y3161920D01*
G01X-1521810Y3161920D02*
G01X-1521760Y3161190D01*
G01X-1521760Y3161190D02*
G01X-1521670Y3160460D01*
G01X-1521670Y3160460D02*
G01X-1521540Y3159730D01*
G01X-1521540Y3159730D02*
G01X-1521380Y3159020D01*
G01X-1521380Y3159020D02*
G01X-1521180Y3158310D01*
G01X-1521180Y3158310D02*
G01X-1520950Y3157610D01*
G01X-1520950Y3157610D02*
G01X-1520690Y3156920D01*
G01X-1520690Y3156920D02*
G01X-1520390Y3156250D01*
G01X-1520390Y3156250D02*
G01X-1520060Y3155590D01*
G01X-1520060Y3155590D02*
G01X-1519700Y3154950D01*
G01X-1519700Y3154950D02*
G01X-1519300Y3154330D01*
G01X-1519300Y3154330D02*
G01X-1518880Y3153720D01*
G01X-1518880Y3153720D02*
G01X-1518430Y3153140D01*
G01X-1518430Y3153140D02*
G01X-1517940Y3152590D01*
G01X-1517940Y3152590D02*
G01X-1517440Y3152050D01*
M02*
