G04 This is an RS-274x file exported by *
G04 gerbv version 2.7.0 *
G04 More information is available about gerbv at *
G04 http://gerbv.geda-project.org/ *
G04 --End of header info--*
%MOIN*%
%FSLAX36Y36*%
%IPPOS*%
G04 --Define apertures--*
%ADD10C,0.0060*%
G04 --Start main section--*
G54D10*
G01X-489330Y1557010D02*
G01X-543040Y1557010D01*
G01X-543040Y1588510D02*
G01X-489330Y1588510D01*
G01X-489330Y1620010D02*
G01X-543040Y1620010D01*
G01X-543040Y1651500D02*
G01X-489330Y1651500D01*
G01X-439330Y1714490D02*
G01X-385560Y1714490D01*
G01X-385560Y1745990D02*
G01X-439330Y1745990D01*
G01X-439330Y1808980D02*
G01X-385560Y1808980D01*
G01X-385560Y1840480D02*
G01X-439330Y1840480D01*
G01X-489330Y1840480D02*
G01X-543040Y1840480D01*
G01X-543040Y1808980D02*
G01X-489330Y1808980D01*
G01X-489330Y1934970D02*
G01X-543040Y1934970D01*
G01X-543040Y1966460D02*
G01X-489330Y1966460D01*
G01X-489330Y2029450D02*
G01X-543040Y2029450D01*
G01X-543040Y2060950D02*
G01X-489330Y2060950D01*
G01X-439330Y2060950D02*
G01X-385560Y2060950D01*
G01X-385560Y2029450D02*
G01X-439330Y2029450D01*
G01X-439330Y1966460D02*
G01X-385560Y1966460D01*
G01X-385560Y1934970D02*
G01X-439330Y1934970D01*
G01X-439330Y2123940D02*
G01X-385560Y2123940D01*
G01X-385560Y2155440D02*
G01X-439330Y2155440D01*
G01X-439330Y2249930D02*
G01X-385560Y2249930D01*
G01X-385560Y2281420D02*
G01X-439330Y2281420D01*
G01X-489330Y2281420D02*
G01X-543040Y2281420D01*
G01X-543040Y2249930D02*
G01X-489330Y2249930D01*
G01X-489330Y2344410D02*
G01X-543040Y2344410D01*
G01X-543040Y2375910D02*
G01X-489330Y2375910D01*
G01X-489330Y2438900D02*
G01X-543040Y2438900D01*
G01X-543040Y2470400D02*
G01X-489330Y2470400D01*
G01X-489330Y2533390D02*
G01X-543040Y2533390D01*
G01X-543040Y2564890D02*
G01X-489330Y2564890D01*
G01X-489330Y2627880D02*
G01X-543040Y2627880D01*
G01X-543040Y2659380D02*
G01X-489330Y2659380D01*
G01X-489330Y2722370D02*
G01X-543040Y2722370D01*
G01X-543040Y2753860D02*
G01X-489330Y2753860D01*
G01X-489330Y2816860D02*
G01X-543040Y2816860D01*
G01X-543040Y2848350D02*
G01X-489330Y2848350D01*
G01X-439330Y2848350D02*
G01X-385560Y2848350D01*
G01X-385560Y2816860D02*
G01X-439330Y2816860D01*
G01X-439330Y2753860D02*
G01X-385560Y2753860D01*
G01X-385560Y2722370D02*
G01X-439330Y2722370D01*
G01X-439330Y2659380D02*
G01X-385560Y2659380D01*
G01X-385560Y2627880D02*
G01X-439330Y2627880D01*
G01X-439330Y2564890D02*
G01X-385560Y2564890D01*
G01X-385560Y2533390D02*
G01X-439330Y2533390D01*
G01X-439330Y2470400D02*
G01X-385560Y2470400D01*
G01X-385560Y2438900D02*
G01X-439330Y2438900D01*
G01X-439330Y2375910D02*
G01X-385560Y2375910D01*
G01X-385560Y2344410D02*
G01X-439330Y2344410D01*
G01X-2135620Y2344410D02*
G01X-2189330Y2344410D01*
G01X-2189330Y2375910D02*
G01X-2135620Y2375910D01*
G01X-2135620Y2438900D02*
G01X-2189330Y2438900D01*
G01X-2189330Y2470400D02*
G01X-2135620Y2470400D01*
G01X-2135620Y2533390D02*
G01X-2189330Y2533390D01*
G01X-2189330Y2564890D02*
G01X-2135620Y2564890D01*
G01X-2135620Y2627880D02*
G01X-2189330Y2627880D01*
G01X-2189330Y2659380D02*
G01X-2135620Y2659380D01*
G01X-2135620Y2816860D02*
G01X-2189330Y2816860D01*
G01X-2189330Y2848350D02*
G01X-2135620Y2848350D01*
G01X-2135620Y2911340D02*
G01X-2189330Y2911340D01*
G01X-2189330Y2942840D02*
G01X-2135620Y2942840D01*
G01X-2239330Y2942840D02*
G01X-2293100Y2942840D01*
G01X-2293100Y2911340D02*
G01X-2239330Y2911340D01*
G01X-2239330Y2848350D02*
G01X-2293100Y2848350D01*
G01X-2293100Y2816860D02*
G01X-2239330Y2816860D01*
G01X-2239330Y2753860D02*
G01X-2293100Y2753860D01*
G01X-2293100Y2722370D02*
G01X-2239330Y2722370D01*
G01X-2239330Y2659380D02*
G01X-2293100Y2659380D01*
G01X-2293100Y2627880D02*
G01X-2239330Y2627880D01*
G01X-2239330Y2470400D02*
G01X-2293100Y2470400D01*
G01X-2293100Y2438900D02*
G01X-2239330Y2438900D01*
G01X-2239330Y2375910D02*
G01X-2293100Y2375910D01*
G01X-2293100Y2344410D02*
G01X-2239330Y2344410D01*
G01X-2239330Y2281420D02*
G01X-2293100Y2281420D01*
G01X-2293100Y2249930D02*
G01X-2239330Y2249930D01*
G01X-2239330Y2155440D02*
G01X-2293100Y2155440D01*
G01X-2293100Y2123940D02*
G01X-2239330Y2123940D01*
G01X-2239330Y2060950D02*
G01X-2293100Y2060950D01*
G01X-2293100Y2029450D02*
G01X-2239330Y2029450D01*
G01X-2189330Y2029450D02*
G01X-2135620Y2029450D01*
G01X-2135620Y2060950D02*
G01X-2189330Y2060950D01*
G01X-2189330Y2123940D02*
G01X-2135620Y2123940D01*
G01X-2135620Y2155440D02*
G01X-2189330Y2155440D01*
G01X-2189330Y1840480D02*
G01X-2135620Y1840480D01*
G01X-2135620Y1808980D02*
G01X-2189330Y1808980D01*
G01X-2189330Y1745990D02*
G01X-2135620Y1745990D01*
G01X-2135620Y1714490D02*
G01X-2189330Y1714490D01*
G01X-2189330Y1683000D02*
G01X-2135620Y1683000D01*
G01X-2135620Y1651500D02*
G01X-2189330Y1651500D01*
G01X-2239330Y1651500D02*
G01X-2293100Y1651500D01*
G01X-2293100Y1683000D02*
G01X-2239330Y1683000D01*
G01X-2239330Y1714490D02*
G01X-2293100Y1714490D01*
G01X-2293100Y1745990D02*
G01X-2239330Y1745990D01*
M02*
