G04 This is an RS-274x file exported by *
G04 gerbv version 2.7.0 *
G04 More information is available about gerbv at *
G04 http://gerbv.geda-project.org/ *
G04 --End of header info--*
%MOIN*%
%FSLAX36Y36*%
%IPPOS*%
G04 --Define apertures--*
%ADD10C,0.0060*%
G04 --Start main section--*
G54D10*
G01X-274330Y2020010D02*
G01X-276740Y2019010D01*
G01X-276740Y2019010D02*
G01X-279330Y2018670D01*
G01X-279330Y2018670D02*
G01X-281920Y2019010D01*
G01X-281920Y2019010D02*
G01X-284330Y2020010D01*
G01X-284330Y2020010D02*
G01X-286400Y2021600D01*
G01X-286400Y2021600D02*
G01X-287990Y2023670D01*
G01X-287990Y2023670D02*
G01X-288990Y2026080D01*
G01X-288990Y2026080D02*
G01X-289330Y2028670D01*
G01X-289330Y2028670D02*
G01X-289330Y2163670D01*
G01X-289330Y2163670D02*
G01X-288990Y2166250D01*
G01X-288990Y2166250D02*
G01X-287990Y2168670D01*
G01X-287990Y2168670D02*
G01X-286400Y2170740D01*
G01X-286400Y2170740D02*
G01X-284330Y2172330D01*
G01X-284330Y2172330D02*
G01X-281920Y2173330D01*
G01X-281920Y2173330D02*
G01X-279330Y2173670D01*
G01X-279330Y2173670D02*
G01X-276740Y2173330D01*
G01X-276740Y2173330D02*
G01X-274330Y2172330D01*
G01X-274330Y2172330D02*
G01X-272260Y2170740D01*
G01X-272260Y2170740D02*
G01X-270670Y2168670D01*
G01X-270670Y2168670D02*
G01X-269670Y2166250D01*
G01X-269670Y2166250D02*
G01X-269330Y2163670D01*
G01X-269330Y2163670D02*
G01X-269330Y2028670D01*
G01X-269330Y2028670D02*
G01X-269670Y2026080D01*
G01X-269670Y2026080D02*
G01X-270670Y2023670D01*
G01X-270670Y2023670D02*
G01X-272260Y2021600D01*
G01X-272260Y2021600D02*
G01X-274330Y2020010D01*
G01X-273980Y2020270D02*
G01X-273980Y2172060D01*
G01X-279970Y2173580D02*
G01X-279970Y2018750D01*
G01X-285950Y2021250D02*
G01X-285950Y2171080D01*
G01X-279330Y2231270D02*
G01X-276740Y2231610D01*
G01X-276740Y2231610D02*
G01X-274330Y2232600D01*
G01X-274330Y2232600D02*
G01X-272260Y2234190D01*
G01X-272260Y2234190D02*
G01X-270670Y2236270D01*
G01X-270670Y2236270D02*
G01X-269670Y2238680D01*
G01X-269670Y2238680D02*
G01X-269330Y2241270D01*
G01X-269330Y2241270D02*
G01X-269330Y2376270D01*
G01X-269330Y2376270D02*
G01X-269670Y2378850D01*
G01X-269670Y2378850D02*
G01X-270670Y2381270D01*
G01X-270670Y2381270D02*
G01X-272260Y2383340D01*
G01X-272260Y2383340D02*
G01X-274330Y2384930D01*
G01X-274330Y2384930D02*
G01X-276740Y2385920D01*
G01X-276740Y2385920D02*
G01X-279330Y2386270D01*
G01X-279330Y2386270D02*
G01X-281920Y2385920D01*
G01X-281920Y2385920D02*
G01X-284330Y2384930D01*
G01X-284330Y2384930D02*
G01X-286400Y2383340D01*
G01X-286400Y2383340D02*
G01X-287990Y2381270D01*
G01X-287990Y2381270D02*
G01X-288990Y2378850D01*
G01X-288990Y2378850D02*
G01X-289330Y2376270D01*
G01X-289330Y2376270D02*
G01X-289330Y2241270D01*
G01X-289330Y2241270D02*
G01X-288990Y2238680D01*
G01X-288990Y2238680D02*
G01X-287990Y2236270D01*
G01X-287990Y2236270D02*
G01X-286400Y2234190D01*
G01X-286400Y2234190D02*
G01X-284330Y2232600D01*
G01X-284330Y2232600D02*
G01X-281920Y2231610D01*
G01X-281920Y2231610D02*
G01X-279330Y2231270D01*
G01X-279970Y2231350D02*
G01X-279970Y2386180D01*
G01X-273980Y2384660D02*
G01X-273980Y2232870D01*
G01X-285950Y2233850D02*
G01X-285950Y2383680D01*
G01X-281920Y2412710D02*
G01X-284330Y2413710D01*
G01X-284330Y2413710D02*
G01X-286400Y2415300D01*
G01X-286400Y2415300D02*
G01X-287990Y2417370D01*
G01X-287990Y2417370D02*
G01X-288990Y2419780D01*
G01X-288990Y2419780D02*
G01X-289330Y2422370D01*
G01X-289330Y2422370D02*
G01X-289330Y2478630D01*
G01X-289330Y2478630D02*
G01X-288990Y2481220D01*
G01X-288990Y2481220D02*
G01X-287990Y2483630D01*
G01X-287990Y2483630D02*
G01X-286400Y2485700D01*
G01X-286400Y2485700D02*
G01X-284330Y2487290D01*
G01X-284330Y2487290D02*
G01X-281920Y2488290D01*
G01X-281920Y2488290D02*
G01X-279330Y2488630D01*
G01X-279330Y2488630D02*
G01X-276740Y2488290D01*
G01X-276740Y2488290D02*
G01X-274330Y2487290D01*
G01X-274330Y2487290D02*
G01X-272260Y2485700D01*
G01X-272260Y2485700D02*
G01X-270670Y2483630D01*
G01X-270670Y2483630D02*
G01X-269670Y2481220D01*
G01X-269670Y2481220D02*
G01X-269330Y2478630D01*
G01X-269330Y2478630D02*
G01X-269330Y2422370D01*
G01X-269330Y2422370D02*
G01X-269670Y2419780D01*
G01X-269670Y2419780D02*
G01X-270670Y2417370D01*
G01X-270670Y2417370D02*
G01X-272260Y2415300D01*
G01X-272260Y2415300D02*
G01X-274330Y2413710D01*
G01X-274330Y2413710D02*
G01X-276740Y2412710D01*
G01X-276740Y2412710D02*
G01X-279330Y2412370D01*
G01X-279330Y2412370D02*
G01X-281920Y2412710D01*
G01X-279970Y2412450D02*
G01X-279970Y2488540D01*
G01X-273980Y2487020D02*
G01X-273980Y2413980D01*
G01X-285950Y2414950D02*
G01X-285950Y2486040D01*
G01X-2389330Y2478630D02*
G01X-2389330Y2422370D01*
G01X-2389330Y2422370D02*
G01X-2389670Y2419780D01*
G01X-2389670Y2419780D02*
G01X-2390670Y2417370D01*
G01X-2390670Y2417370D02*
G01X-2392260Y2415300D01*
G01X-2392260Y2415300D02*
G01X-2394330Y2413710D01*
G01X-2394330Y2413710D02*
G01X-2396740Y2412710D01*
G01X-2396740Y2412710D02*
G01X-2399330Y2412370D01*
G01X-2399330Y2412370D02*
G01X-2401920Y2412710D01*
G01X-2401920Y2412710D02*
G01X-2404330Y2413710D01*
G01X-2404330Y2413710D02*
G01X-2406400Y2415300D01*
G01X-2406400Y2415300D02*
G01X-2407990Y2417370D01*
G01X-2407990Y2417370D02*
G01X-2408990Y2419780D01*
G01X-2408990Y2419780D02*
G01X-2409330Y2422370D01*
G01X-2409330Y2422370D02*
G01X-2409330Y2478630D01*
G01X-2409330Y2478630D02*
G01X-2408990Y2481220D01*
G01X-2408990Y2481220D02*
G01X-2407990Y2483630D01*
G01X-2407990Y2483630D02*
G01X-2406400Y2485700D01*
G01X-2406400Y2485700D02*
G01X-2404330Y2487290D01*
G01X-2404330Y2487290D02*
G01X-2401920Y2488290D01*
G01X-2401920Y2488290D02*
G01X-2399330Y2488630D01*
G01X-2399330Y2488630D02*
G01X-2396740Y2488290D01*
G01X-2396740Y2488290D02*
G01X-2394330Y2487290D01*
G01X-2394330Y2487290D02*
G01X-2392260Y2485700D01*
G01X-2392260Y2485700D02*
G01X-2390670Y2483630D01*
G01X-2390670Y2483630D02*
G01X-2389670Y2481220D01*
G01X-2389670Y2481220D02*
G01X-2389330Y2478630D01*
G01X-2392710Y2486040D02*
G01X-2392710Y2414950D01*
G01X-2398700Y2412450D02*
G01X-2398700Y2488540D01*
G01X-2404680Y2487020D02*
G01X-2404680Y2413980D01*
G01X-2401920Y2385920D02*
G01X-2404330Y2384930D01*
G01X-2404330Y2384930D02*
G01X-2406400Y2383340D01*
G01X-2406400Y2383340D02*
G01X-2407990Y2381270D01*
G01X-2407990Y2381270D02*
G01X-2408990Y2378850D01*
G01X-2408990Y2378850D02*
G01X-2409330Y2376270D01*
G01X-2409330Y2376270D02*
G01X-2409330Y2241270D01*
G01X-2409330Y2241270D02*
G01X-2408990Y2238680D01*
G01X-2408990Y2238680D02*
G01X-2407990Y2236270D01*
G01X-2407990Y2236270D02*
G01X-2406400Y2234190D01*
G01X-2406400Y2234190D02*
G01X-2404330Y2232600D01*
G01X-2404330Y2232600D02*
G01X-2401920Y2231610D01*
G01X-2401920Y2231610D02*
G01X-2399330Y2231270D01*
G01X-2399330Y2231270D02*
G01X-2396740Y2231610D01*
G01X-2396740Y2231610D02*
G01X-2394330Y2232600D01*
G01X-2394330Y2232600D02*
G01X-2392260Y2234190D01*
G01X-2392260Y2234190D02*
G01X-2390670Y2236270D01*
G01X-2390670Y2236270D02*
G01X-2389670Y2238680D01*
G01X-2389670Y2238680D02*
G01X-2389330Y2241270D01*
G01X-2389330Y2241270D02*
G01X-2389330Y2376270D01*
G01X-2389330Y2376270D02*
G01X-2389670Y2378850D01*
G01X-2389670Y2378850D02*
G01X-2390670Y2381270D01*
G01X-2390670Y2381270D02*
G01X-2392260Y2383340D01*
G01X-2392260Y2383340D02*
G01X-2394330Y2384930D01*
G01X-2394330Y2384930D02*
G01X-2396740Y2385920D01*
G01X-2396740Y2385920D02*
G01X-2399330Y2386270D01*
G01X-2399330Y2386270D02*
G01X-2401920Y2385920D01*
G01X-2404680Y2384660D02*
G01X-2404680Y2232870D01*
G01X-2398700Y2231350D02*
G01X-2398700Y2386180D01*
G01X-2392710Y2383680D02*
G01X-2392710Y2233850D01*
G01X-2399330Y2173670D02*
G01X-2401920Y2173330D01*
G01X-2401920Y2173330D02*
G01X-2404330Y2172330D01*
G01X-2404330Y2172330D02*
G01X-2406400Y2170740D01*
G01X-2406400Y2170740D02*
G01X-2407990Y2168670D01*
G01X-2407990Y2168670D02*
G01X-2408990Y2166250D01*
G01X-2408990Y2166250D02*
G01X-2409330Y2163670D01*
G01X-2409330Y2163670D02*
G01X-2409330Y2028670D01*
G01X-2409330Y2028670D02*
G01X-2408990Y2026080D01*
G01X-2408990Y2026080D02*
G01X-2407990Y2023670D01*
G01X-2407990Y2023670D02*
G01X-2406400Y2021600D01*
G01X-2406400Y2021600D02*
G01X-2404330Y2020010D01*
G01X-2404330Y2020010D02*
G01X-2401920Y2019010D01*
G01X-2401920Y2019010D02*
G01X-2399330Y2018670D01*
G01X-2399330Y2018670D02*
G01X-2396740Y2019010D01*
G01X-2396740Y2019010D02*
G01X-2394330Y2020010D01*
G01X-2394330Y2020010D02*
G01X-2392260Y2021600D01*
G01X-2392260Y2021600D02*
G01X-2390670Y2023670D01*
G01X-2390670Y2023670D02*
G01X-2389670Y2026080D01*
G01X-2389670Y2026080D02*
G01X-2389330Y2028670D01*
G01X-2389330Y2028670D02*
G01X-2389330Y2163670D01*
G01X-2389330Y2163670D02*
G01X-2389670Y2166250D01*
G01X-2389670Y2166250D02*
G01X-2390670Y2168670D01*
G01X-2390670Y2168670D02*
G01X-2392260Y2170740D01*
G01X-2392260Y2170740D02*
G01X-2394330Y2172330D01*
G01X-2394330Y2172330D02*
G01X-2396740Y2173330D01*
G01X-2396740Y2173330D02*
G01X-2399330Y2173670D01*
G01X-2398700Y2173580D02*
G01X-2398700Y2018750D01*
G01X-2404680Y2020270D02*
G01X-2404680Y2172060D01*
G01X-2392710Y2171080D02*
G01X-2392710Y2021250D01*
M02*
