G04 This is an RS-274x file exported by *
G04 gerbv version 2.7.0 *
G04 More information is available about gerbv at *
G04 http://gerbv.geda-project.org/ *
G04 --End of header info--*
%MOIN*%
%FSLAX36Y36*%
%IPPOS*%
G04 --Define apertures--*
%ADD10C,0.0050*%
%ADD11C,0.0080*%
%ADD12C,0.0120*%
%ADD13C,0.0110*%
%ADD14C,0.0100*%
%ADD15C,0.0090*%
%ADD16C,0.0070*%
%ADD17C,0.0060*%
%ADD18C,0.0040*%
%ADD19C,0.0030*%
%ADD20C,0.0020*%
%ADD21C,0.0010*%
%ADD22R,0.1500X0.0750*%
%ADD23R,0.3000X0.0750*%
%ADD24R,0.0750X0.1500*%
%ADD25R,0.0750X0.3000*%
G04 --Start main section--*
G54D10*
G01X-614330Y0388670D02*
G01X-614330Y0430670D01*
G01X-614330Y0470040D02*
G01X-614330Y0512040D01*
G01X-614330Y0551410D02*
G01X-614330Y0593420D01*
G01X-614330Y0632790D02*
G01X-614330Y0674790D01*
G01X-614330Y0714160D02*
G01X-614330Y0756170D01*
G01X-614330Y0756170D02*
G01X-614350Y0756770D01*
G01X-614350Y0756770D02*
G01X-614400Y0757380D01*
G01X-614400Y0757380D02*
G01X-614490Y0757970D01*
G01X-614490Y0757970D02*
G01X-614620Y0758560D01*
G01X-614620Y0758560D02*
G01X-614780Y0759150D01*
G01X-614780Y0759150D02*
G01X-614980Y0759720D01*
G01X-614980Y0759720D02*
G01X-615210Y0760270D01*
G01X-615210Y0760270D02*
G01X-615480Y0760820D01*
G01X-615480Y0760820D02*
G01X-615770Y0761340D01*
G01X-615770Y0761340D02*
G01X-616100Y0761850D01*
G01X-616100Y0761850D02*
G01X-616460Y0762340D01*
G01X-616460Y0762340D02*
G01X-616840Y0762800D01*
G01X-616840Y0762800D02*
G01X-617260Y0763240D01*
G01X-617260Y0763240D02*
G01X-617700Y0763660D01*
G01X-617700Y0763660D02*
G01X-618160Y0764040D01*
G01X-618160Y0764040D02*
G01X-618650Y0764400D01*
G01X-618650Y0764400D02*
G01X-619160Y0764730D01*
G01X-619160Y0764730D02*
G01X-619680Y0765020D01*
G01X-619680Y0765020D02*
G01X-620230Y0765290D01*
G01X-620230Y0765290D02*
G01X-620780Y0765520D01*
G01X-620780Y0765520D02*
G01X-621350Y0765720D01*
G01X-621350Y0765720D02*
G01X-621940Y0765880D01*
G01X-621940Y0765880D02*
G01X-622530Y0766010D01*
G01X-622530Y0766010D02*
G01X-623120Y0766100D01*
G01X-623120Y0766100D02*
G01X-623730Y0766150D01*
G01X-623730Y0766150D02*
G01X-624330Y0766170D01*
G01X-624330Y0766170D02*
G01X-683080Y0766170D01*
G01X-722450Y0766170D02*
G01X-781210Y0766170D01*
G01X-820580Y0766170D02*
G01X-879330Y0766170D01*
G01X-879330Y0766170D02*
G01X-879930Y0766150D01*
G01X-879930Y0766150D02*
G01X-880540Y0766100D01*
G01X-880540Y0766100D02*
G01X-881130Y0766010D01*
G01X-881130Y0766010D02*
G01X-881720Y0765880D01*
G01X-881720Y0765880D02*
G01X-882310Y0765720D01*
G01X-882310Y0765720D02*
G01X-882880Y0765520D01*
G01X-882880Y0765520D02*
G01X-883430Y0765290D01*
G01X-883430Y0765290D02*
G01X-883980Y0765020D01*
G01X-883980Y0765020D02*
G01X-884500Y0764730D01*
G01X-884500Y0764730D02*
G01X-885010Y0764400D01*
G01X-885010Y0764400D02*
G01X-885500Y0764040D01*
G01X-885500Y0764040D02*
G01X-885960Y0763660D01*
G01X-885960Y0763660D02*
G01X-886400Y0763240D01*
G01X-886400Y0763240D02*
G01X-886820Y0762800D01*
G01X-886820Y0762800D02*
G01X-887200Y0762340D01*
G01X-887200Y0762340D02*
G01X-887560Y0761850D01*
G01X-887560Y0761850D02*
G01X-887890Y0761340D01*
G01X-887890Y0761340D02*
G01X-888180Y0760820D01*
G01X-888180Y0760820D02*
G01X-888450Y0760270D01*
G01X-888450Y0760270D02*
G01X-888680Y0759720D01*
G01X-888680Y0759720D02*
G01X-888880Y0759150D01*
G01X-888880Y0759150D02*
G01X-889040Y0758560D01*
G01X-889040Y0758560D02*
G01X-889170Y0757970D01*
G01X-889170Y0757970D02*
G01X-889260Y0757380D01*
G01X-889260Y0757380D02*
G01X-889310Y0756770D01*
G01X-889310Y0756770D02*
G01X-889330Y0756170D01*
G01X-889330Y0756170D02*
G01X-889330Y0714160D01*
G01X-914330Y0714160D02*
G01X-914330Y0756170D01*
G01X-914330Y0756170D02*
G01X-914350Y0756770D01*
G01X-914350Y0756770D02*
G01X-914400Y0757380D01*
G01X-914400Y0757380D02*
G01X-914490Y0757970D01*
G01X-914490Y0757970D02*
G01X-914620Y0758560D01*
G01X-914620Y0758560D02*
G01X-914780Y0759150D01*
G01X-914780Y0759150D02*
G01X-914980Y0759720D01*
G01X-914980Y0759720D02*
G01X-915210Y0760270D01*
G01X-915210Y0760270D02*
G01X-915480Y0760820D01*
G01X-915480Y0760820D02*
G01X-915770Y0761340D01*
G01X-915770Y0761340D02*
G01X-916100Y0761850D01*
G01X-916100Y0761850D02*
G01X-916460Y0762340D01*
G01X-916460Y0762340D02*
G01X-916840Y0762800D01*
G01X-916840Y0762800D02*
G01X-917260Y0763240D01*
G01X-917260Y0763240D02*
G01X-917700Y0763660D01*
G01X-917700Y0763660D02*
G01X-918160Y0764040D01*
G01X-918160Y0764040D02*
G01X-918650Y0764400D01*
G01X-918650Y0764400D02*
G01X-919160Y0764730D01*
G01X-919160Y0764730D02*
G01X-919680Y0765020D01*
G01X-919680Y0765020D02*
G01X-920230Y0765290D01*
G01X-920230Y0765290D02*
G01X-920780Y0765520D01*
G01X-920780Y0765520D02*
G01X-921350Y0765720D01*
G01X-921350Y0765720D02*
G01X-921940Y0765880D01*
G01X-921940Y0765880D02*
G01X-922530Y0766010D01*
G01X-922530Y0766010D02*
G01X-923120Y0766100D01*
G01X-923120Y0766100D02*
G01X-923730Y0766150D01*
G01X-923730Y0766150D02*
G01X-924330Y0766170D01*
G01X-924330Y0766170D02*
G01X-983080Y0766170D01*
G01X-1022450Y0766170D02*
G01X-1081210Y0766170D01*
G01X-1120580Y0766170D02*
G01X-1179330Y0766170D01*
G01X-1179330Y0766170D02*
G01X-1179930Y0766150D01*
G01X-1179930Y0766150D02*
G01X-1180540Y0766100D01*
G01X-1180540Y0766100D02*
G01X-1181130Y0766010D01*
G01X-1181130Y0766010D02*
G01X-1181720Y0765880D01*
G01X-1181720Y0765880D02*
G01X-1182310Y0765720D01*
G01X-1182310Y0765720D02*
G01X-1182880Y0765520D01*
G01X-1182880Y0765520D02*
G01X-1183430Y0765290D01*
G01X-1183430Y0765290D02*
G01X-1183980Y0765020D01*
G01X-1183980Y0765020D02*
G01X-1184500Y0764730D01*
G01X-1184500Y0764730D02*
G01X-1185010Y0764400D01*
G01X-1185010Y0764400D02*
G01X-1185500Y0764040D01*
G01X-1185500Y0764040D02*
G01X-1185960Y0763660D01*
G01X-1185960Y0763660D02*
G01X-1186400Y0763240D01*
G01X-1186400Y0763240D02*
G01X-1186820Y0762800D01*
G01X-1186820Y0762800D02*
G01X-1187200Y0762340D01*
G01X-1187200Y0762340D02*
G01X-1187560Y0761850D01*
G01X-1187560Y0761850D02*
G01X-1187890Y0761340D01*
G01X-1187890Y0761340D02*
G01X-1188180Y0760820D01*
G01X-1188180Y0760820D02*
G01X-1188450Y0760270D01*
G01X-1188450Y0760270D02*
G01X-1188680Y0759720D01*
G01X-1188680Y0759720D02*
G01X-1188880Y0759150D01*
G01X-1188880Y0759150D02*
G01X-1189040Y0758560D01*
G01X-1189040Y0758560D02*
G01X-1189170Y0757970D01*
G01X-1189170Y0757970D02*
G01X-1189260Y0757380D01*
G01X-1189260Y0757380D02*
G01X-1189310Y0756770D01*
G01X-1189310Y0756770D02*
G01X-1189330Y0756170D01*
G01X-1189330Y0756170D02*
G01X-1189330Y0714160D01*
G01X-1214330Y0714160D02*
G01X-1214330Y0756170D01*
G01X-1214330Y0756170D02*
G01X-1214350Y0756770D01*
G01X-1214350Y0756770D02*
G01X-1214400Y0757380D01*
G01X-1214400Y0757380D02*
G01X-1214490Y0757970D01*
G01X-1214490Y0757970D02*
G01X-1214620Y0758560D01*
G01X-1214620Y0758560D02*
G01X-1214780Y0759150D01*
G01X-1214780Y0759150D02*
G01X-1214980Y0759720D01*
G01X-1214980Y0759720D02*
G01X-1215210Y0760270D01*
G01X-1215210Y0760270D02*
G01X-1215480Y0760820D01*
G01X-1215480Y0760820D02*
G01X-1215770Y0761340D01*
G01X-1215770Y0761340D02*
G01X-1216100Y0761850D01*
G01X-1216100Y0761850D02*
G01X-1216460Y0762340D01*
G01X-1216460Y0762340D02*
G01X-1216840Y0762800D01*
G01X-1216840Y0762800D02*
G01X-1217260Y0763240D01*
G01X-1217260Y0763240D02*
G01X-1217700Y0763660D01*
G01X-1217700Y0763660D02*
G01X-1218160Y0764040D01*
G01X-1218160Y0764040D02*
G01X-1218650Y0764400D01*
G01X-1218650Y0764400D02*
G01X-1219160Y0764730D01*
G01X-1219160Y0764730D02*
G01X-1219680Y0765020D01*
G01X-1219680Y0765020D02*
G01X-1220230Y0765290D01*
G01X-1220230Y0765290D02*
G01X-1220780Y0765520D01*
G01X-1220780Y0765520D02*
G01X-1221350Y0765720D01*
G01X-1221350Y0765720D02*
G01X-1221940Y0765880D01*
G01X-1221940Y0765880D02*
G01X-1222530Y0766010D01*
G01X-1222530Y0766010D02*
G01X-1223120Y0766100D01*
G01X-1223120Y0766100D02*
G01X-1223730Y0766150D01*
G01X-1223730Y0766150D02*
G01X-1224330Y0766170D01*
G01X-1224330Y0766170D02*
G01X-1283080Y0766170D01*
G01X-1322450Y0766170D02*
G01X-1381210Y0766170D01*
G01X-1420580Y0766170D02*
G01X-1479330Y0766170D01*
G01X-1479330Y0766170D02*
G01X-1479930Y0766150D01*
G01X-1479930Y0766150D02*
G01X-1480540Y0766100D01*
G01X-1480540Y0766100D02*
G01X-1481130Y0766010D01*
G01X-1481130Y0766010D02*
G01X-1481720Y0765880D01*
G01X-1481720Y0765880D02*
G01X-1482310Y0765720D01*
G01X-1482310Y0765720D02*
G01X-1482880Y0765520D01*
G01X-1482880Y0765520D02*
G01X-1483430Y0765290D01*
G01X-1483430Y0765290D02*
G01X-1483980Y0765020D01*
G01X-1483980Y0765020D02*
G01X-1484500Y0764730D01*
G01X-1484500Y0764730D02*
G01X-1485010Y0764400D01*
G01X-1485010Y0764400D02*
G01X-1485500Y0764040D01*
G01X-1485500Y0764040D02*
G01X-1485960Y0763660D01*
G01X-1485960Y0763660D02*
G01X-1486400Y0763240D01*
G01X-1486400Y0763240D02*
G01X-1486820Y0762800D01*
G01X-1486820Y0762800D02*
G01X-1487200Y0762340D01*
G01X-1487200Y0762340D02*
G01X-1487560Y0761850D01*
G01X-1487560Y0761850D02*
G01X-1487890Y0761340D01*
G01X-1487890Y0761340D02*
G01X-1488180Y0760820D01*
G01X-1488180Y0760820D02*
G01X-1488450Y0760270D01*
G01X-1488450Y0760270D02*
G01X-1488680Y0759720D01*
G01X-1488680Y0759720D02*
G01X-1488880Y0759150D01*
G01X-1488880Y0759150D02*
G01X-1489040Y0758560D01*
G01X-1489040Y0758560D02*
G01X-1489170Y0757970D01*
G01X-1489170Y0757970D02*
G01X-1489260Y0757380D01*
G01X-1489260Y0757380D02*
G01X-1489310Y0756770D01*
G01X-1489310Y0756770D02*
G01X-1489330Y0756170D01*
G01X-1489330Y0756170D02*
G01X-1489330Y0714160D01*
G01X-1514330Y0714160D02*
G01X-1514330Y0756170D01*
G01X-1514330Y0756170D02*
G01X-1514350Y0756770D01*
G01X-1514350Y0756770D02*
G01X-1514400Y0757380D01*
G01X-1514400Y0757380D02*
G01X-1514490Y0757970D01*
G01X-1514490Y0757970D02*
G01X-1514620Y0758560D01*
G01X-1514620Y0758560D02*
G01X-1514780Y0759150D01*
G01X-1514780Y0759150D02*
G01X-1514980Y0759720D01*
G01X-1514980Y0759720D02*
G01X-1515210Y0760270D01*
G01X-1515210Y0760270D02*
G01X-1515480Y0760820D01*
G01X-1515480Y0760820D02*
G01X-1515770Y0761340D01*
G01X-1515770Y0761340D02*
G01X-1516100Y0761850D01*
G01X-1516100Y0761850D02*
G01X-1516460Y0762340D01*
G01X-1516460Y0762340D02*
G01X-1516840Y0762800D01*
G01X-1516840Y0762800D02*
G01X-1517260Y0763240D01*
G01X-1517260Y0763240D02*
G01X-1517700Y0763660D01*
G01X-1517700Y0763660D02*
G01X-1518160Y0764040D01*
G01X-1518160Y0764040D02*
G01X-1518650Y0764400D01*
G01X-1518650Y0764400D02*
G01X-1519160Y0764730D01*
G01X-1519160Y0764730D02*
G01X-1519680Y0765020D01*
G01X-1519680Y0765020D02*
G01X-1520230Y0765290D01*
G01X-1520230Y0765290D02*
G01X-1520780Y0765520D01*
G01X-1520780Y0765520D02*
G01X-1521350Y0765720D01*
G01X-1521350Y0765720D02*
G01X-1521940Y0765880D01*
G01X-1521940Y0765880D02*
G01X-1522530Y0766010D01*
G01X-1522530Y0766010D02*
G01X-1523120Y0766100D01*
G01X-1523120Y0766100D02*
G01X-1523730Y0766150D01*
G01X-1523730Y0766150D02*
G01X-1524330Y0766170D01*
G01X-1524330Y0766170D02*
G01X-1583080Y0766170D01*
G01X-1622450Y0766170D02*
G01X-1681210Y0766170D01*
G01X-1720580Y0766170D02*
G01X-1779330Y0766170D01*
G01X-1779330Y0766170D02*
G01X-1779930Y0766150D01*
G01X-1779930Y0766150D02*
G01X-1780540Y0766100D01*
G01X-1780540Y0766100D02*
G01X-1781130Y0766010D01*
G01X-1781130Y0766010D02*
G01X-1781720Y0765880D01*
G01X-1781720Y0765880D02*
G01X-1782310Y0765720D01*
G01X-1782310Y0765720D02*
G01X-1782880Y0765520D01*
G01X-1782880Y0765520D02*
G01X-1783430Y0765290D01*
G01X-1783430Y0765290D02*
G01X-1783980Y0765020D01*
G01X-1783980Y0765020D02*
G01X-1784500Y0764730D01*
G01X-1784500Y0764730D02*
G01X-1785010Y0764400D01*
G01X-1785010Y0764400D02*
G01X-1785500Y0764040D01*
G01X-1785500Y0764040D02*
G01X-1785960Y0763660D01*
G01X-1785960Y0763660D02*
G01X-1786400Y0763240D01*
G01X-1786400Y0763240D02*
G01X-1786820Y0762800D01*
G01X-1786820Y0762800D02*
G01X-1787200Y0762340D01*
G01X-1787200Y0762340D02*
G01X-1787560Y0761850D01*
G01X-1787560Y0761850D02*
G01X-1787890Y0761340D01*
G01X-1787890Y0761340D02*
G01X-1788180Y0760820D01*
G01X-1788180Y0760820D02*
G01X-1788450Y0760270D01*
G01X-1788450Y0760270D02*
G01X-1788680Y0759720D01*
G01X-1788680Y0759720D02*
G01X-1788880Y0759150D01*
G01X-1788880Y0759150D02*
G01X-1789040Y0758560D01*
G01X-1789040Y0758560D02*
G01X-1789170Y0757970D01*
G01X-1789170Y0757970D02*
G01X-1789260Y0757380D01*
G01X-1789260Y0757380D02*
G01X-1789310Y0756770D01*
G01X-1789310Y0756770D02*
G01X-1789330Y0756170D01*
G01X-1789330Y0756170D02*
G01X-1789330Y0714160D01*
G01X-1814330Y0714160D02*
G01X-1814330Y0756170D01*
G01X-1814330Y0756170D02*
G01X-1814350Y0756770D01*
G01X-1814350Y0756770D02*
G01X-1814400Y0757380D01*
G01X-1814400Y0757380D02*
G01X-1814490Y0757970D01*
G01X-1814490Y0757970D02*
G01X-1814620Y0758560D01*
G01X-1814620Y0758560D02*
G01X-1814780Y0759150D01*
G01X-1814780Y0759150D02*
G01X-1814980Y0759720D01*
G01X-1814980Y0759720D02*
G01X-1815210Y0760270D01*
G01X-1815210Y0760270D02*
G01X-1815480Y0760820D01*
G01X-1815480Y0760820D02*
G01X-1815770Y0761340D01*
G01X-1815770Y0761340D02*
G01X-1816100Y0761850D01*
G01X-1816100Y0761850D02*
G01X-1816460Y0762340D01*
G01X-1816460Y0762340D02*
G01X-1816840Y0762800D01*
G01X-1816840Y0762800D02*
G01X-1817260Y0763240D01*
G01X-1817260Y0763240D02*
G01X-1817700Y0763660D01*
G01X-1817700Y0763660D02*
G01X-1818160Y0764040D01*
G01X-1818160Y0764040D02*
G01X-1818650Y0764400D01*
G01X-1818650Y0764400D02*
G01X-1819160Y0764730D01*
G01X-1819160Y0764730D02*
G01X-1819680Y0765020D01*
G01X-1819680Y0765020D02*
G01X-1820230Y0765290D01*
G01X-1820230Y0765290D02*
G01X-1820780Y0765520D01*
G01X-1820780Y0765520D02*
G01X-1821350Y0765720D01*
G01X-1821350Y0765720D02*
G01X-1821940Y0765880D01*
G01X-1821940Y0765880D02*
G01X-1822530Y0766010D01*
G01X-1822530Y0766010D02*
G01X-1823120Y0766100D01*
G01X-1823120Y0766100D02*
G01X-1823730Y0766150D01*
G01X-1823730Y0766150D02*
G01X-1824330Y0766170D01*
G01X-1824330Y0766170D02*
G01X-1883080Y0766170D01*
G01X-1922450Y0766170D02*
G01X-1981210Y0766170D01*
G01X-2020580Y0766170D02*
G01X-2079330Y0766170D01*
G01X-2079330Y0766170D02*
G01X-2079930Y0766150D01*
G01X-2079930Y0766150D02*
G01X-2080540Y0766100D01*
G01X-2080540Y0766100D02*
G01X-2081130Y0766010D01*
G01X-2081130Y0766010D02*
G01X-2081720Y0765880D01*
G01X-2081720Y0765880D02*
G01X-2082310Y0765720D01*
G01X-2082310Y0765720D02*
G01X-2082880Y0765520D01*
G01X-2082880Y0765520D02*
G01X-2083430Y0765290D01*
G01X-2083430Y0765290D02*
G01X-2083980Y0765020D01*
G01X-2083980Y0765020D02*
G01X-2084500Y0764730D01*
G01X-2084500Y0764730D02*
G01X-2085010Y0764400D01*
G01X-2085010Y0764400D02*
G01X-2085500Y0764040D01*
G01X-2085500Y0764040D02*
G01X-2085960Y0763660D01*
G01X-2085960Y0763660D02*
G01X-2086400Y0763240D01*
G01X-2086400Y0763240D02*
G01X-2086820Y0762800D01*
G01X-2086820Y0762800D02*
G01X-2087200Y0762340D01*
G01X-2087200Y0762340D02*
G01X-2087560Y0761850D01*
G01X-2087560Y0761850D02*
G01X-2087890Y0761340D01*
G01X-2087890Y0761340D02*
G01X-2088180Y0760820D01*
G01X-2088180Y0760820D02*
G01X-2088450Y0760270D01*
G01X-2088450Y0760270D02*
G01X-2088680Y0759720D01*
G01X-2088680Y0759720D02*
G01X-2088880Y0759150D01*
G01X-2088880Y0759150D02*
G01X-2089040Y0758560D01*
G01X-2089040Y0758560D02*
G01X-2089170Y0757970D01*
G01X-2089170Y0757970D02*
G01X-2089260Y0757380D01*
G01X-2089260Y0757380D02*
G01X-2089310Y0756770D01*
G01X-2089310Y0756770D02*
G01X-2089330Y0756170D01*
G01X-2089330Y0756170D02*
G01X-2089330Y0714160D01*
G01X-2089330Y0674790D02*
G01X-2089330Y0632790D01*
G01X-2089330Y0593420D02*
G01X-2089330Y0551410D01*
G01X-2089330Y0512040D02*
G01X-2089330Y0470040D01*
G01X-2089330Y0430670D02*
G01X-2089330Y0388670D01*
G01X-2089330Y0388670D02*
G01X-2089310Y0388070D01*
G01X-2089310Y0388070D02*
G01X-2089260Y0387460D01*
G01X-2089260Y0387460D02*
G01X-2089170Y0386870D01*
G01X-2089170Y0386870D02*
G01X-2089040Y0386280D01*
G01X-2089040Y0386280D02*
G01X-2088880Y0385690D01*
G01X-2088880Y0385690D02*
G01X-2088680Y0385120D01*
G01X-2088680Y0385120D02*
G01X-2088450Y0384570D01*
G01X-2088450Y0384570D02*
G01X-2088180Y0384020D01*
G01X-2088180Y0384020D02*
G01X-2087890Y0383500D01*
G01X-2087890Y0383500D02*
G01X-2087560Y0382990D01*
G01X-2087560Y0382990D02*
G01X-2087200Y0382500D01*
G01X-2087200Y0382500D02*
G01X-2086820Y0382040D01*
G01X-2086820Y0382040D02*
G01X-2086400Y0381600D01*
G01X-2086400Y0381600D02*
G01X-2085960Y0381180D01*
G01X-2085960Y0381180D02*
G01X-2085500Y0380800D01*
G01X-2085500Y0380800D02*
G01X-2085010Y0380440D01*
G01X-2085010Y0380440D02*
G01X-2084500Y0380110D01*
G01X-2084500Y0380110D02*
G01X-2083980Y0379820D01*
G01X-2083980Y0379820D02*
G01X-2083430Y0379550D01*
G01X-2083430Y0379550D02*
G01X-2082880Y0379320D01*
G01X-2082880Y0379320D02*
G01X-2082310Y0379120D01*
G01X-2082310Y0379120D02*
G01X-2081720Y0378960D01*
G01X-2081720Y0378960D02*
G01X-2081130Y0378830D01*
G01X-2081130Y0378830D02*
G01X-2080540Y0378740D01*
G01X-2080540Y0378740D02*
G01X-2079930Y0378690D01*
G01X-2079930Y0378690D02*
G01X-2079330Y0378670D01*
G01X-2079330Y0378670D02*
G01X-2020580Y0378670D01*
G01X-1981210Y0378670D02*
G01X-1922450Y0378670D01*
G01X-1883080Y0378670D02*
G01X-1824330Y0378670D01*
G01X-1824330Y0378670D02*
G01X-1823730Y0378690D01*
G01X-1823730Y0378690D02*
G01X-1823120Y0378740D01*
G01X-1823120Y0378740D02*
G01X-1822530Y0378830D01*
G01X-1822530Y0378830D02*
G01X-1821940Y0378960D01*
G01X-1821940Y0378960D02*
G01X-1821350Y0379120D01*
G01X-1821350Y0379120D02*
G01X-1820780Y0379320D01*
G01X-1820780Y0379320D02*
G01X-1820230Y0379550D01*
G01X-1820230Y0379550D02*
G01X-1819680Y0379820D01*
G01X-1819680Y0379820D02*
G01X-1819160Y0380110D01*
G01X-1819160Y0380110D02*
G01X-1818650Y0380440D01*
G01X-1818650Y0380440D02*
G01X-1818160Y0380800D01*
G01X-1818160Y0380800D02*
G01X-1817700Y0381180D01*
G01X-1817700Y0381180D02*
G01X-1817260Y0381600D01*
G01X-1817260Y0381600D02*
G01X-1816840Y0382040D01*
G01X-1816840Y0382040D02*
G01X-1816460Y0382500D01*
G01X-1816460Y0382500D02*
G01X-1816100Y0382990D01*
G01X-1816100Y0382990D02*
G01X-1815770Y0383500D01*
G01X-1815770Y0383500D02*
G01X-1815480Y0384020D01*
G01X-1815480Y0384020D02*
G01X-1815210Y0384570D01*
G01X-1815210Y0384570D02*
G01X-1814980Y0385120D01*
G01X-1814980Y0385120D02*
G01X-1814780Y0385690D01*
G01X-1814780Y0385690D02*
G01X-1814620Y0386280D01*
G01X-1814620Y0386280D02*
G01X-1814490Y0386870D01*
G01X-1814490Y0386870D02*
G01X-1814400Y0387460D01*
G01X-1814400Y0387460D02*
G01X-1814350Y0388070D01*
G01X-1814350Y0388070D02*
G01X-1814330Y0388670D01*
G01X-1814330Y0388670D02*
G01X-1814330Y0430670D01*
G01X-1789330Y0430670D02*
G01X-1789330Y0388670D01*
G01X-1789330Y0388670D02*
G01X-1789310Y0388070D01*
G01X-1789310Y0388070D02*
G01X-1789260Y0387460D01*
G01X-1789260Y0387460D02*
G01X-1789170Y0386870D01*
G01X-1789170Y0386870D02*
G01X-1789040Y0386280D01*
G01X-1789040Y0386280D02*
G01X-1788880Y0385690D01*
G01X-1788880Y0385690D02*
G01X-1788680Y0385120D01*
G01X-1788680Y0385120D02*
G01X-1788450Y0384570D01*
G01X-1788450Y0384570D02*
G01X-1788180Y0384020D01*
G01X-1788180Y0384020D02*
G01X-1787890Y0383500D01*
G01X-1787890Y0383500D02*
G01X-1787560Y0382990D01*
G01X-1787560Y0382990D02*
G01X-1787200Y0382500D01*
G01X-1787200Y0382500D02*
G01X-1786820Y0382040D01*
G01X-1786820Y0382040D02*
G01X-1786400Y0381600D01*
G01X-1786400Y0381600D02*
G01X-1785960Y0381180D01*
G01X-1785960Y0381180D02*
G01X-1785500Y0380800D01*
G01X-1785500Y0380800D02*
G01X-1785010Y0380440D01*
G01X-1785010Y0380440D02*
G01X-1784500Y0380110D01*
G01X-1784500Y0380110D02*
G01X-1783980Y0379820D01*
G01X-1783980Y0379820D02*
G01X-1783430Y0379550D01*
G01X-1783430Y0379550D02*
G01X-1782880Y0379320D01*
G01X-1782880Y0379320D02*
G01X-1782310Y0379120D01*
G01X-1782310Y0379120D02*
G01X-1781720Y0378960D01*
G01X-1781720Y0378960D02*
G01X-1781130Y0378830D01*
G01X-1781130Y0378830D02*
G01X-1780540Y0378740D01*
G01X-1780540Y0378740D02*
G01X-1779930Y0378690D01*
G01X-1779930Y0378690D02*
G01X-1779330Y0378670D01*
G01X-1779330Y0378670D02*
G01X-1720580Y0378670D01*
G01X-1681210Y0378670D02*
G01X-1622450Y0378670D01*
G01X-1583080Y0378670D02*
G01X-1524330Y0378670D01*
G01X-1524330Y0378670D02*
G01X-1523730Y0378690D01*
G01X-1523730Y0378690D02*
G01X-1523120Y0378740D01*
G01X-1523120Y0378740D02*
G01X-1522530Y0378830D01*
G01X-1522530Y0378830D02*
G01X-1521940Y0378960D01*
G01X-1521940Y0378960D02*
G01X-1521350Y0379120D01*
G01X-1521350Y0379120D02*
G01X-1520780Y0379320D01*
G01X-1520780Y0379320D02*
G01X-1520230Y0379550D01*
G01X-1520230Y0379550D02*
G01X-1519680Y0379820D01*
G01X-1519680Y0379820D02*
G01X-1519160Y0380110D01*
G01X-1519160Y0380110D02*
G01X-1518650Y0380440D01*
G01X-1518650Y0380440D02*
G01X-1518160Y0380800D01*
G01X-1518160Y0380800D02*
G01X-1517700Y0381180D01*
G01X-1517700Y0381180D02*
G01X-1517260Y0381600D01*
G01X-1517260Y0381600D02*
G01X-1516840Y0382040D01*
G01X-1516840Y0382040D02*
G01X-1516460Y0382500D01*
G01X-1516460Y0382500D02*
G01X-1516100Y0382990D01*
G01X-1516100Y0382990D02*
G01X-1515770Y0383500D01*
G01X-1515770Y0383500D02*
G01X-1515480Y0384020D01*
G01X-1515480Y0384020D02*
G01X-1515210Y0384570D01*
G01X-1515210Y0384570D02*
G01X-1514980Y0385120D01*
G01X-1514980Y0385120D02*
G01X-1514780Y0385690D01*
G01X-1514780Y0385690D02*
G01X-1514620Y0386280D01*
G01X-1514620Y0386280D02*
G01X-1514490Y0386870D01*
G01X-1514490Y0386870D02*
G01X-1514400Y0387460D01*
G01X-1514400Y0387460D02*
G01X-1514350Y0388070D01*
G01X-1514350Y0388070D02*
G01X-1514330Y0388670D01*
G01X-1514330Y0388670D02*
G01X-1514330Y0430670D01*
G01X-1489330Y0430670D02*
G01X-1489330Y0388670D01*
G01X-1489330Y0388670D02*
G01X-1489310Y0388070D01*
G01X-1489310Y0388070D02*
G01X-1489260Y0387460D01*
G01X-1489260Y0387460D02*
G01X-1489170Y0386870D01*
G01X-1489170Y0386870D02*
G01X-1489040Y0386280D01*
G01X-1489040Y0386280D02*
G01X-1488880Y0385690D01*
G01X-1488880Y0385690D02*
G01X-1488680Y0385120D01*
G01X-1488680Y0385120D02*
G01X-1488450Y0384570D01*
G01X-1488450Y0384570D02*
G01X-1488180Y0384020D01*
G01X-1488180Y0384020D02*
G01X-1487890Y0383500D01*
G01X-1487890Y0383500D02*
G01X-1487560Y0382990D01*
G01X-1487560Y0382990D02*
G01X-1487200Y0382500D01*
G01X-1487200Y0382500D02*
G01X-1486820Y0382040D01*
G01X-1486820Y0382040D02*
G01X-1486400Y0381600D01*
G01X-1486400Y0381600D02*
G01X-1485960Y0381180D01*
G01X-1485960Y0381180D02*
G01X-1485500Y0380800D01*
G01X-1485500Y0380800D02*
G01X-1485010Y0380440D01*
G01X-1485010Y0380440D02*
G01X-1484500Y0380110D01*
G01X-1484500Y0380110D02*
G01X-1483980Y0379820D01*
G01X-1483980Y0379820D02*
G01X-1483430Y0379550D01*
G01X-1483430Y0379550D02*
G01X-1482880Y0379320D01*
G01X-1482880Y0379320D02*
G01X-1482310Y0379120D01*
G01X-1482310Y0379120D02*
G01X-1481720Y0378960D01*
G01X-1481720Y0378960D02*
G01X-1481130Y0378830D01*
G01X-1481130Y0378830D02*
G01X-1480540Y0378740D01*
G01X-1480540Y0378740D02*
G01X-1479930Y0378690D01*
G01X-1479930Y0378690D02*
G01X-1479330Y0378670D01*
G01X-1479330Y0378670D02*
G01X-1420580Y0378670D01*
G01X-1381210Y0378670D02*
G01X-1322450Y0378670D01*
G01X-1283080Y0378670D02*
G01X-1224330Y0378670D01*
G01X-1224330Y0378670D02*
G01X-1223730Y0378690D01*
G01X-1223730Y0378690D02*
G01X-1223120Y0378740D01*
G01X-1223120Y0378740D02*
G01X-1222530Y0378830D01*
G01X-1222530Y0378830D02*
G01X-1221940Y0378960D01*
G01X-1221940Y0378960D02*
G01X-1221350Y0379120D01*
G01X-1221350Y0379120D02*
G01X-1220780Y0379320D01*
G01X-1220780Y0379320D02*
G01X-1220230Y0379550D01*
G01X-1220230Y0379550D02*
G01X-1219680Y0379820D01*
G01X-1219680Y0379820D02*
G01X-1219160Y0380110D01*
G01X-1219160Y0380110D02*
G01X-1218650Y0380440D01*
G01X-1218650Y0380440D02*
G01X-1218160Y0380800D01*
G01X-1218160Y0380800D02*
G01X-1217700Y0381180D01*
G01X-1217700Y0381180D02*
G01X-1217260Y0381600D01*
G01X-1217260Y0381600D02*
G01X-1216840Y0382040D01*
G01X-1216840Y0382040D02*
G01X-1216460Y0382500D01*
G01X-1216460Y0382500D02*
G01X-1216100Y0382990D01*
G01X-1216100Y0382990D02*
G01X-1215770Y0383500D01*
G01X-1215770Y0383500D02*
G01X-1215480Y0384020D01*
G01X-1215480Y0384020D02*
G01X-1215210Y0384570D01*
G01X-1215210Y0384570D02*
G01X-1214980Y0385120D01*
G01X-1214980Y0385120D02*
G01X-1214780Y0385690D01*
G01X-1214780Y0385690D02*
G01X-1214620Y0386280D01*
G01X-1214620Y0386280D02*
G01X-1214490Y0386870D01*
G01X-1214490Y0386870D02*
G01X-1214400Y0387460D01*
G01X-1214400Y0387460D02*
G01X-1214350Y0388070D01*
G01X-1214350Y0388070D02*
G01X-1214330Y0388670D01*
G01X-1214330Y0388670D02*
G01X-1214330Y0430670D01*
G01X-1189330Y0430670D02*
G01X-1189330Y0388670D01*
G01X-1189330Y0388670D02*
G01X-1189310Y0388070D01*
G01X-1189310Y0388070D02*
G01X-1189260Y0387460D01*
G01X-1189260Y0387460D02*
G01X-1189170Y0386870D01*
G01X-1189170Y0386870D02*
G01X-1189040Y0386280D01*
G01X-1189040Y0386280D02*
G01X-1188880Y0385690D01*
G01X-1188880Y0385690D02*
G01X-1188680Y0385120D01*
G01X-1188680Y0385120D02*
G01X-1188450Y0384570D01*
G01X-1188450Y0384570D02*
G01X-1188180Y0384020D01*
G01X-1188180Y0384020D02*
G01X-1187890Y0383500D01*
G01X-1187890Y0383500D02*
G01X-1187560Y0382990D01*
G01X-1187560Y0382990D02*
G01X-1187200Y0382500D01*
G01X-1187200Y0382500D02*
G01X-1186820Y0382040D01*
G01X-1186820Y0382040D02*
G01X-1186400Y0381600D01*
G01X-1186400Y0381600D02*
G01X-1185960Y0381180D01*
G01X-1185960Y0381180D02*
G01X-1185500Y0380800D01*
G01X-1185500Y0380800D02*
G01X-1185010Y0380440D01*
G01X-1185010Y0380440D02*
G01X-1184500Y0380110D01*
G01X-1184500Y0380110D02*
G01X-1183980Y0379820D01*
G01X-1183980Y0379820D02*
G01X-1183430Y0379550D01*
G01X-1183430Y0379550D02*
G01X-1182880Y0379320D01*
G01X-1182880Y0379320D02*
G01X-1182310Y0379120D01*
G01X-1182310Y0379120D02*
G01X-1181720Y0378960D01*
G01X-1181720Y0378960D02*
G01X-1181130Y0378830D01*
G01X-1181130Y0378830D02*
G01X-1180540Y0378740D01*
G01X-1180540Y0378740D02*
G01X-1179930Y0378690D01*
G01X-1179930Y0378690D02*
G01X-1179330Y0378670D01*
G01X-1179330Y0378670D02*
G01X-1120580Y0378670D01*
G01X-1081210Y0378670D02*
G01X-1022450Y0378670D01*
G01X-983080Y0378670D02*
G01X-924330Y0378670D01*
G01X-924330Y0378670D02*
G01X-923730Y0378690D01*
G01X-923730Y0378690D02*
G01X-923120Y0378740D01*
G01X-923120Y0378740D02*
G01X-922530Y0378830D01*
G01X-922530Y0378830D02*
G01X-921940Y0378960D01*
G01X-921940Y0378960D02*
G01X-921350Y0379120D01*
G01X-921350Y0379120D02*
G01X-920780Y0379320D01*
G01X-920780Y0379320D02*
G01X-920230Y0379550D01*
G01X-920230Y0379550D02*
G01X-919680Y0379820D01*
G01X-919680Y0379820D02*
G01X-919160Y0380110D01*
G01X-919160Y0380110D02*
G01X-918650Y0380440D01*
G01X-918650Y0380440D02*
G01X-918160Y0380800D01*
G01X-918160Y0380800D02*
G01X-917700Y0381180D01*
G01X-917700Y0381180D02*
G01X-917260Y0381600D01*
G01X-917260Y0381600D02*
G01X-916840Y0382040D01*
G01X-916840Y0382040D02*
G01X-916460Y0382500D01*
G01X-916460Y0382500D02*
G01X-916100Y0382990D01*
G01X-916100Y0382990D02*
G01X-915770Y0383500D01*
G01X-915770Y0383500D02*
G01X-915480Y0384020D01*
G01X-915480Y0384020D02*
G01X-915210Y0384570D01*
G01X-915210Y0384570D02*
G01X-914980Y0385120D01*
G01X-914980Y0385120D02*
G01X-914780Y0385690D01*
G01X-914780Y0385690D02*
G01X-914620Y0386280D01*
G01X-914620Y0386280D02*
G01X-914490Y0386870D01*
G01X-914490Y0386870D02*
G01X-914400Y0387460D01*
G01X-914400Y0387460D02*
G01X-914350Y0388070D01*
G01X-914350Y0388070D02*
G01X-914330Y0388670D01*
G01X-914330Y0388670D02*
G01X-914330Y0430670D01*
G01X-889330Y0430670D02*
G01X-889330Y0388670D01*
G01X-889330Y0388670D02*
G01X-889310Y0388070D01*
G01X-889310Y0388070D02*
G01X-889260Y0387460D01*
G01X-889260Y0387460D02*
G01X-889170Y0386870D01*
G01X-889170Y0386870D02*
G01X-889040Y0386280D01*
G01X-889040Y0386280D02*
G01X-888880Y0385690D01*
G01X-888880Y0385690D02*
G01X-888680Y0385120D01*
G01X-888680Y0385120D02*
G01X-888450Y0384570D01*
G01X-888450Y0384570D02*
G01X-888180Y0384020D01*
G01X-888180Y0384020D02*
G01X-887890Y0383500D01*
G01X-887890Y0383500D02*
G01X-887560Y0382990D01*
G01X-887560Y0382990D02*
G01X-887200Y0382500D01*
G01X-887200Y0382500D02*
G01X-886820Y0382040D01*
G01X-886820Y0382040D02*
G01X-886400Y0381600D01*
G01X-886400Y0381600D02*
G01X-885960Y0381180D01*
G01X-885960Y0381180D02*
G01X-885500Y0380800D01*
G01X-885500Y0380800D02*
G01X-885010Y0380440D01*
G01X-885010Y0380440D02*
G01X-884500Y0380110D01*
G01X-884500Y0380110D02*
G01X-883980Y0379820D01*
G01X-883980Y0379820D02*
G01X-883430Y0379550D01*
G01X-883430Y0379550D02*
G01X-882880Y0379320D01*
G01X-882880Y0379320D02*
G01X-882310Y0379120D01*
G01X-882310Y0379120D02*
G01X-881720Y0378960D01*
G01X-881720Y0378960D02*
G01X-881130Y0378830D01*
G01X-881130Y0378830D02*
G01X-880540Y0378740D01*
G01X-880540Y0378740D02*
G01X-879930Y0378690D01*
G01X-879930Y0378690D02*
G01X-879330Y0378670D01*
G01X-879330Y0378670D02*
G01X-820580Y0378670D01*
G01X-781210Y0378670D02*
G01X-722450Y0378670D01*
G01X-683080Y0378670D02*
G01X-624330Y0378670D01*
G01X-624330Y0378670D02*
G01X-623730Y0378690D01*
G01X-623730Y0378690D02*
G01X-623120Y0378740D01*
G01X-623120Y0378740D02*
G01X-622530Y0378830D01*
G01X-622530Y0378830D02*
G01X-621940Y0378960D01*
G01X-621940Y0378960D02*
G01X-621350Y0379120D01*
G01X-621350Y0379120D02*
G01X-620780Y0379320D01*
G01X-620780Y0379320D02*
G01X-620230Y0379550D01*
G01X-620230Y0379550D02*
G01X-619680Y0379820D01*
G01X-619680Y0379820D02*
G01X-619160Y0380110D01*
G01X-619160Y0380110D02*
G01X-618650Y0380440D01*
G01X-618650Y0380440D02*
G01X-618160Y0380800D01*
G01X-618160Y0380800D02*
G01X-617700Y0381180D01*
G01X-617700Y0381180D02*
G01X-617260Y0381600D01*
G01X-617260Y0381600D02*
G01X-616840Y0382040D01*
G01X-616840Y0382040D02*
G01X-616460Y0382500D01*
G01X-616460Y0382500D02*
G01X-616100Y0382990D01*
G01X-616100Y0382990D02*
G01X-615770Y0383500D01*
G01X-615770Y0383500D02*
G01X-615480Y0384020D01*
G01X-615480Y0384020D02*
G01X-615210Y0384570D01*
G01X-615210Y0384570D02*
G01X-614980Y0385120D01*
G01X-614980Y0385120D02*
G01X-614780Y0385690D01*
G01X-614780Y0385690D02*
G01X-614620Y0386280D01*
G01X-614620Y0386280D02*
G01X-614490Y0386870D01*
G01X-614490Y0386870D02*
G01X-614400Y0387460D01*
G01X-614400Y0387460D02*
G01X-614350Y0388070D01*
G01X-614350Y0388070D02*
G01X-614330Y0388670D01*
G01X-889330Y0470040D02*
G01X-889330Y0512040D01*
G01X-914330Y0512040D02*
G01X-914330Y0470040D01*
G01X-914330Y0551410D02*
G01X-914330Y0593420D01*
G01X-889330Y0593420D02*
G01X-889330Y0551410D01*
G01X-889330Y0632790D02*
G01X-889330Y0674790D01*
G01X-914330Y0674790D02*
G01X-914330Y0632790D01*
G01X-1189330Y0632790D02*
G01X-1189330Y0674790D01*
G01X-1214330Y0674790D02*
G01X-1214330Y0632790D01*
G01X-1214330Y0593420D02*
G01X-1214330Y0551410D01*
G01X-1189330Y0551410D02*
G01X-1189330Y0593420D01*
G01X-1189330Y0512040D02*
G01X-1189330Y0470040D01*
G01X-1214330Y0470040D02*
G01X-1214330Y0512040D01*
G01X-1489330Y0512040D02*
G01X-1489330Y0470040D01*
G01X-1514330Y0470040D02*
G01X-1514330Y0512040D01*
G01X-1514330Y0551410D02*
G01X-1514330Y0593420D01*
G01X-1489330Y0593420D02*
G01X-1489330Y0551410D01*
G01X-1489330Y0632790D02*
G01X-1489330Y0674790D01*
G01X-1514330Y0674790D02*
G01X-1514330Y0632790D01*
G01X-1789330Y0632790D02*
G01X-1789330Y0674790D01*
G01X-1814330Y0674790D02*
G01X-1814330Y0632790D01*
G01X-1814330Y0593420D02*
G01X-1814330Y0551410D01*
G01X-1789330Y0551410D02*
G01X-1789330Y0593420D01*
G01X-1789330Y0512040D02*
G01X-1789330Y0470040D01*
G01X-1814330Y0470040D02*
G01X-1814330Y0512040D01*
G01X-1797450Y1378670D02*
G01X-1856210Y1378670D01*
G01X-1895580Y1378670D02*
G01X-1954330Y1378670D01*
G01X-1954330Y1378670D02*
G01X-1954930Y1378690D01*
G01X-1954930Y1378690D02*
G01X-1955540Y1378740D01*
G01X-1955540Y1378740D02*
G01X-1956130Y1378830D01*
G01X-1956130Y1378830D02*
G01X-1956720Y1378960D01*
G01X-1956720Y1378960D02*
G01X-1957310Y1379120D01*
G01X-1957310Y1379120D02*
G01X-1957880Y1379320D01*
G01X-1957880Y1379320D02*
G01X-1958430Y1379550D01*
G01X-1958430Y1379550D02*
G01X-1958980Y1379820D01*
G01X-1958980Y1379820D02*
G01X-1959500Y1380110D01*
G01X-1959500Y1380110D02*
G01X-1960010Y1380440D01*
G01X-1960010Y1380440D02*
G01X-1960500Y1380800D01*
G01X-1960500Y1380800D02*
G01X-1960960Y1381180D01*
G01X-1960960Y1381180D02*
G01X-1961400Y1381600D01*
G01X-1961400Y1381600D02*
G01X-1961820Y1382040D01*
G01X-1961820Y1382040D02*
G01X-1962200Y1382500D01*
G01X-1962200Y1382500D02*
G01X-1962560Y1382990D01*
G01X-1962560Y1382990D02*
G01X-1962890Y1383500D01*
G01X-1962890Y1383500D02*
G01X-1963180Y1384020D01*
G01X-1963180Y1384020D02*
G01X-1963450Y1384570D01*
G01X-1963450Y1384570D02*
G01X-1963680Y1385120D01*
G01X-1963680Y1385120D02*
G01X-1963880Y1385690D01*
G01X-1963880Y1385690D02*
G01X-1964040Y1386280D01*
G01X-1964040Y1386280D02*
G01X-1964170Y1386870D01*
G01X-1964170Y1386870D02*
G01X-1964260Y1387460D01*
G01X-1964260Y1387460D02*
G01X-1964310Y1388070D01*
G01X-1964310Y1388070D02*
G01X-1964330Y1388670D01*
G01X-1964330Y1388670D02*
G01X-1964330Y1440670D01*
G01X-1964330Y1480040D02*
G01X-1964330Y1532040D01*
G01X-1964330Y1571410D02*
G01X-1964330Y1623420D01*
G01X-1964330Y1662790D02*
G01X-1964330Y1714790D01*
G01X-1964330Y1754160D02*
G01X-1964330Y1806170D01*
G01X-1964330Y1806170D02*
G01X-1964310Y1806770D01*
G01X-1964310Y1806770D02*
G01X-1964260Y1807380D01*
G01X-1964260Y1807380D02*
G01X-1964170Y1807970D01*
G01X-1964170Y1807970D02*
G01X-1964040Y1808560D01*
G01X-1964040Y1808560D02*
G01X-1963880Y1809150D01*
G01X-1963880Y1809150D02*
G01X-1963680Y1809720D01*
G01X-1963680Y1809720D02*
G01X-1963450Y1810270D01*
G01X-1963450Y1810270D02*
G01X-1963180Y1810820D01*
G01X-1963180Y1810820D02*
G01X-1962890Y1811340D01*
G01X-1962890Y1811340D02*
G01X-1962560Y1811850D01*
G01X-1962560Y1811850D02*
G01X-1962200Y1812340D01*
G01X-1962200Y1812340D02*
G01X-1961820Y1812800D01*
G01X-1961820Y1812800D02*
G01X-1961400Y1813240D01*
G01X-1961400Y1813240D02*
G01X-1960960Y1813660D01*
G01X-1960960Y1813660D02*
G01X-1960500Y1814040D01*
G01X-1960500Y1814040D02*
G01X-1960010Y1814400D01*
G01X-1960010Y1814400D02*
G01X-1959500Y1814730D01*
G01X-1959500Y1814730D02*
G01X-1958980Y1815020D01*
G01X-1958980Y1815020D02*
G01X-1958430Y1815290D01*
G01X-1958430Y1815290D02*
G01X-1957880Y1815520D01*
G01X-1957880Y1815520D02*
G01X-1957310Y1815720D01*
G01X-1957310Y1815720D02*
G01X-1956720Y1815880D01*
G01X-1956720Y1815880D02*
G01X-1956130Y1816010D01*
G01X-1956130Y1816010D02*
G01X-1955540Y1816100D01*
G01X-1955540Y1816100D02*
G01X-1954930Y1816150D01*
G01X-1954930Y1816150D02*
G01X-1954330Y1816170D01*
G01X-1954330Y1816170D02*
G01X-1895580Y1816170D01*
G01X-1856210Y1816170D02*
G01X-1797450Y1816170D01*
G01X-1758080Y1816170D02*
G01X-1699330Y1816170D01*
G01X-1699330Y1816170D02*
G01X-1698730Y1816150D01*
G01X-1698730Y1816150D02*
G01X-1698120Y1816100D01*
G01X-1698120Y1816100D02*
G01X-1697530Y1816010D01*
G01X-1697530Y1816010D02*
G01X-1696940Y1815880D01*
G01X-1696940Y1815880D02*
G01X-1696350Y1815720D01*
G01X-1696350Y1815720D02*
G01X-1695780Y1815520D01*
G01X-1695780Y1815520D02*
G01X-1695230Y1815290D01*
G01X-1695230Y1815290D02*
G01X-1694680Y1815020D01*
G01X-1694680Y1815020D02*
G01X-1694160Y1814730D01*
G01X-1694160Y1814730D02*
G01X-1693650Y1814400D01*
G01X-1693650Y1814400D02*
G01X-1693160Y1814040D01*
G01X-1693160Y1814040D02*
G01X-1692700Y1813660D01*
G01X-1692700Y1813660D02*
G01X-1692260Y1813240D01*
G01X-1692260Y1813240D02*
G01X-1691840Y1812800D01*
G01X-1691840Y1812800D02*
G01X-1691460Y1812340D01*
G01X-1691460Y1812340D02*
G01X-1691100Y1811850D01*
G01X-1691100Y1811850D02*
G01X-1690770Y1811340D01*
G01X-1690770Y1811340D02*
G01X-1690480Y1810820D01*
G01X-1690480Y1810820D02*
G01X-1690210Y1810270D01*
G01X-1690210Y1810270D02*
G01X-1689980Y1809720D01*
G01X-1689980Y1809720D02*
G01X-1689780Y1809150D01*
G01X-1689780Y1809150D02*
G01X-1689620Y1808560D01*
G01X-1689620Y1808560D02*
G01X-1689490Y1807970D01*
G01X-1689490Y1807970D02*
G01X-1689400Y1807380D01*
G01X-1689400Y1807380D02*
G01X-1689350Y1806770D01*
G01X-1689350Y1806770D02*
G01X-1689330Y1806170D01*
G01X-1689330Y1806170D02*
G01X-1689330Y1754160D01*
G01X-1664330Y1754160D02*
G01X-1664330Y1806170D01*
G01X-1664330Y1806170D02*
G01X-1664310Y1806770D01*
G01X-1664310Y1806770D02*
G01X-1664260Y1807380D01*
G01X-1664260Y1807380D02*
G01X-1664170Y1807970D01*
G01X-1664170Y1807970D02*
G01X-1664040Y1808560D01*
G01X-1664040Y1808560D02*
G01X-1663880Y1809150D01*
G01X-1663880Y1809150D02*
G01X-1663680Y1809720D01*
G01X-1663680Y1809720D02*
G01X-1663450Y1810270D01*
G01X-1663450Y1810270D02*
G01X-1663180Y1810820D01*
G01X-1663180Y1810820D02*
G01X-1662890Y1811340D01*
G01X-1662890Y1811340D02*
G01X-1662560Y1811850D01*
G01X-1662560Y1811850D02*
G01X-1662200Y1812340D01*
G01X-1662200Y1812340D02*
G01X-1661820Y1812800D01*
G01X-1661820Y1812800D02*
G01X-1661400Y1813240D01*
G01X-1661400Y1813240D02*
G01X-1660960Y1813660D01*
G01X-1660960Y1813660D02*
G01X-1660500Y1814040D01*
G01X-1660500Y1814040D02*
G01X-1660010Y1814400D01*
G01X-1660010Y1814400D02*
G01X-1659500Y1814730D01*
G01X-1659500Y1814730D02*
G01X-1658980Y1815020D01*
G01X-1658980Y1815020D02*
G01X-1658430Y1815290D01*
G01X-1658430Y1815290D02*
G01X-1657880Y1815520D01*
G01X-1657880Y1815520D02*
G01X-1657310Y1815720D01*
G01X-1657310Y1815720D02*
G01X-1656720Y1815880D01*
G01X-1656720Y1815880D02*
G01X-1656130Y1816010D01*
G01X-1656130Y1816010D02*
G01X-1655540Y1816100D01*
G01X-1655540Y1816100D02*
G01X-1654930Y1816150D01*
G01X-1654930Y1816150D02*
G01X-1654330Y1816170D01*
G01X-1654330Y1816170D02*
G01X-1595580Y1816170D01*
G01X-1556210Y1816170D02*
G01X-1497450Y1816170D01*
G01X-1458080Y1816170D02*
G01X-1399330Y1816170D01*
G01X-1399330Y1816170D02*
G01X-1398730Y1816150D01*
G01X-1398730Y1816150D02*
G01X-1398120Y1816100D01*
G01X-1398120Y1816100D02*
G01X-1397530Y1816010D01*
G01X-1397530Y1816010D02*
G01X-1396940Y1815880D01*
G01X-1396940Y1815880D02*
G01X-1396350Y1815720D01*
G01X-1396350Y1815720D02*
G01X-1395780Y1815520D01*
G01X-1395780Y1815520D02*
G01X-1395230Y1815290D01*
G01X-1395230Y1815290D02*
G01X-1394680Y1815020D01*
G01X-1394680Y1815020D02*
G01X-1394160Y1814730D01*
G01X-1394160Y1814730D02*
G01X-1393650Y1814400D01*
G01X-1393650Y1814400D02*
G01X-1393160Y1814040D01*
G01X-1393160Y1814040D02*
G01X-1392700Y1813660D01*
G01X-1392700Y1813660D02*
G01X-1392260Y1813240D01*
G01X-1392260Y1813240D02*
G01X-1391840Y1812800D01*
G01X-1391840Y1812800D02*
G01X-1391460Y1812340D01*
G01X-1391460Y1812340D02*
G01X-1391100Y1811850D01*
G01X-1391100Y1811850D02*
G01X-1390770Y1811340D01*
G01X-1390770Y1811340D02*
G01X-1390480Y1810820D01*
G01X-1390480Y1810820D02*
G01X-1390210Y1810270D01*
G01X-1390210Y1810270D02*
G01X-1389980Y1809720D01*
G01X-1389980Y1809720D02*
G01X-1389780Y1809150D01*
G01X-1389780Y1809150D02*
G01X-1389620Y1808560D01*
G01X-1389620Y1808560D02*
G01X-1389490Y1807970D01*
G01X-1389490Y1807970D02*
G01X-1389400Y1807380D01*
G01X-1389400Y1807380D02*
G01X-1389350Y1806770D01*
G01X-1389350Y1806770D02*
G01X-1389330Y1806170D01*
G01X-1389330Y1806170D02*
G01X-1389330Y1754160D01*
G01X-1389330Y1714790D02*
G01X-1389330Y1662790D01*
G01X-1389330Y1623420D02*
G01X-1389330Y1571410D01*
G01X-1389330Y1532040D02*
G01X-1389330Y1480040D01*
G01X-1389330Y1440670D02*
G01X-1389330Y1388670D01*
G01X-1389330Y1388670D02*
G01X-1389350Y1388070D01*
G01X-1389350Y1388070D02*
G01X-1389400Y1387460D01*
G01X-1389400Y1387460D02*
G01X-1389490Y1386870D01*
G01X-1389490Y1386870D02*
G01X-1389620Y1386280D01*
G01X-1389620Y1386280D02*
G01X-1389780Y1385690D01*
G01X-1389780Y1385690D02*
G01X-1389980Y1385120D01*
G01X-1389980Y1385120D02*
G01X-1390210Y1384570D01*
G01X-1390210Y1384570D02*
G01X-1390480Y1384020D01*
G01X-1390480Y1384020D02*
G01X-1390770Y1383500D01*
G01X-1390770Y1383500D02*
G01X-1391100Y1382990D01*
G01X-1391100Y1382990D02*
G01X-1391460Y1382500D01*
G01X-1391460Y1382500D02*
G01X-1391840Y1382040D01*
G01X-1391840Y1382040D02*
G01X-1392260Y1381600D01*
G01X-1392260Y1381600D02*
G01X-1392700Y1381180D01*
G01X-1392700Y1381180D02*
G01X-1393160Y1380800D01*
G01X-1393160Y1380800D02*
G01X-1393650Y1380440D01*
G01X-1393650Y1380440D02*
G01X-1394160Y1380110D01*
G01X-1394160Y1380110D02*
G01X-1394680Y1379820D01*
G01X-1394680Y1379820D02*
G01X-1395230Y1379550D01*
G01X-1395230Y1379550D02*
G01X-1395780Y1379320D01*
G01X-1395780Y1379320D02*
G01X-1396350Y1379120D01*
G01X-1396350Y1379120D02*
G01X-1396940Y1378960D01*
G01X-1396940Y1378960D02*
G01X-1397530Y1378830D01*
G01X-1397530Y1378830D02*
G01X-1398120Y1378740D01*
G01X-1398120Y1378740D02*
G01X-1398730Y1378690D01*
G01X-1398730Y1378690D02*
G01X-1399330Y1378670D01*
G01X-1399330Y1378670D02*
G01X-1458080Y1378670D01*
G01X-1497450Y1378670D02*
G01X-1556210Y1378670D01*
G01X-1595580Y1378670D02*
G01X-1654330Y1378670D01*
G01X-1654330Y1378670D02*
G01X-1654930Y1378690D01*
G01X-1654930Y1378690D02*
G01X-1655540Y1378740D01*
G01X-1655540Y1378740D02*
G01X-1656130Y1378830D01*
G01X-1656130Y1378830D02*
G01X-1656720Y1378960D01*
G01X-1656720Y1378960D02*
G01X-1657310Y1379120D01*
G01X-1657310Y1379120D02*
G01X-1657880Y1379320D01*
G01X-1657880Y1379320D02*
G01X-1658430Y1379550D01*
G01X-1658430Y1379550D02*
G01X-1658980Y1379820D01*
G01X-1658980Y1379820D02*
G01X-1659500Y1380110D01*
G01X-1659500Y1380110D02*
G01X-1660010Y1380440D01*
G01X-1660010Y1380440D02*
G01X-1660500Y1380800D01*
G01X-1660500Y1380800D02*
G01X-1660960Y1381180D01*
G01X-1660960Y1381180D02*
G01X-1661400Y1381600D01*
G01X-1661400Y1381600D02*
G01X-1661820Y1382040D01*
G01X-1661820Y1382040D02*
G01X-1662200Y1382500D01*
G01X-1662200Y1382500D02*
G01X-1662560Y1382990D01*
G01X-1662560Y1382990D02*
G01X-1662890Y1383500D01*
G01X-1662890Y1383500D02*
G01X-1663180Y1384020D01*
G01X-1663180Y1384020D02*
G01X-1663450Y1384570D01*
G01X-1663450Y1384570D02*
G01X-1663680Y1385120D01*
G01X-1663680Y1385120D02*
G01X-1663880Y1385690D01*
G01X-1663880Y1385690D02*
G01X-1664040Y1386280D01*
G01X-1664040Y1386280D02*
G01X-1664170Y1386870D01*
G01X-1664170Y1386870D02*
G01X-1664260Y1387460D01*
G01X-1664260Y1387460D02*
G01X-1664310Y1388070D01*
G01X-1664310Y1388070D02*
G01X-1664330Y1388670D01*
G01X-1664330Y1388670D02*
G01X-1664330Y1440670D01*
G01X-1689330Y1440670D02*
G01X-1689330Y1388670D01*
G01X-1689330Y1388670D02*
G01X-1689350Y1388070D01*
G01X-1689350Y1388070D02*
G01X-1689400Y1387460D01*
G01X-1689400Y1387460D02*
G01X-1689490Y1386870D01*
G01X-1689490Y1386870D02*
G01X-1689620Y1386280D01*
G01X-1689620Y1386280D02*
G01X-1689780Y1385690D01*
G01X-1689780Y1385690D02*
G01X-1689980Y1385120D01*
G01X-1689980Y1385120D02*
G01X-1690210Y1384570D01*
G01X-1690210Y1384570D02*
G01X-1690480Y1384020D01*
G01X-1690480Y1384020D02*
G01X-1690770Y1383500D01*
G01X-1690770Y1383500D02*
G01X-1691100Y1382990D01*
G01X-1691100Y1382990D02*
G01X-1691460Y1382500D01*
G01X-1691460Y1382500D02*
G01X-1691840Y1382040D01*
G01X-1691840Y1382040D02*
G01X-1692260Y1381600D01*
G01X-1692260Y1381600D02*
G01X-1692700Y1381180D01*
G01X-1692700Y1381180D02*
G01X-1693160Y1380800D01*
G01X-1693160Y1380800D02*
G01X-1693650Y1380440D01*
G01X-1693650Y1380440D02*
G01X-1694160Y1380110D01*
G01X-1694160Y1380110D02*
G01X-1694680Y1379820D01*
G01X-1694680Y1379820D02*
G01X-1695230Y1379550D01*
G01X-1695230Y1379550D02*
G01X-1695780Y1379320D01*
G01X-1695780Y1379320D02*
G01X-1696350Y1379120D01*
G01X-1696350Y1379120D02*
G01X-1696940Y1378960D01*
G01X-1696940Y1378960D02*
G01X-1697530Y1378830D01*
G01X-1697530Y1378830D02*
G01X-1698120Y1378740D01*
G01X-1698120Y1378740D02*
G01X-1698730Y1378690D01*
G01X-1698730Y1378690D02*
G01X-1699330Y1378670D01*
G01X-1699330Y1378670D02*
G01X-1758080Y1378670D01*
G01X-1689330Y1480040D02*
G01X-1689330Y1532040D01*
G01X-1664330Y1532040D02*
G01X-1664330Y1480040D01*
G01X-1664330Y1571410D02*
G01X-1664330Y1623420D01*
G01X-1689330Y1623420D02*
G01X-1689330Y1571410D01*
G01X-1689330Y1662790D02*
G01X-1689330Y1714790D01*
G01X-1664330Y1714790D02*
G01X-1664330Y1662790D01*
G01X-1643200Y1903670D02*
G01X-1697710Y1903670D01*
G01X-1737080Y1903670D02*
G01X-1791580Y1903670D01*
G01X-1830950Y1903670D02*
G01X-1885460Y1903670D01*
G01X-1924830Y1903670D02*
G01X-1979330Y1903670D01*
G01X-1979330Y1903670D02*
G01X-1979930Y1903690D01*
G01X-1979930Y1903690D02*
G01X-1980540Y1903740D01*
G01X-1980540Y1903740D02*
G01X-1981130Y1903830D01*
G01X-1981130Y1903830D02*
G01X-1981720Y1903960D01*
G01X-1981720Y1903960D02*
G01X-1982310Y1904120D01*
G01X-1982310Y1904120D02*
G01X-1982880Y1904320D01*
G01X-1982880Y1904320D02*
G01X-1983430Y1904550D01*
G01X-1983430Y1904550D02*
G01X-1983980Y1904820D01*
G01X-1983980Y1904820D02*
G01X-1984500Y1905110D01*
G01X-1984500Y1905110D02*
G01X-1985010Y1905440D01*
G01X-1985010Y1905440D02*
G01X-1985500Y1905800D01*
G01X-1985500Y1905800D02*
G01X-1985960Y1906180D01*
G01X-1985960Y1906180D02*
G01X-1986400Y1906600D01*
G01X-1986400Y1906600D02*
G01X-1986820Y1907040D01*
G01X-1986820Y1907040D02*
G01X-1987200Y1907500D01*
G01X-1987200Y1907500D02*
G01X-1987560Y1907990D01*
G01X-1987560Y1907990D02*
G01X-1987890Y1908500D01*
G01X-1987890Y1908500D02*
G01X-1988180Y1909020D01*
G01X-1988180Y1909020D02*
G01X-1988450Y1909570D01*
G01X-1988450Y1909570D02*
G01X-1988680Y1910120D01*
G01X-1988680Y1910120D02*
G01X-1988880Y1910690D01*
G01X-1988880Y1910690D02*
G01X-1989040Y1911280D01*
G01X-1989040Y1911280D02*
G01X-1989170Y1911870D01*
G01X-1989170Y1911870D02*
G01X-1989260Y1912460D01*
G01X-1989260Y1912460D02*
G01X-1989310Y1913070D01*
G01X-1989310Y1913070D02*
G01X-1989330Y1913670D01*
G01X-1989330Y1913670D02*
G01X-1989330Y1966640D01*
G01X-1989330Y2006010D02*
G01X-1989330Y2058980D01*
G01X-1989330Y2098350D02*
G01X-1989330Y2151320D01*
G01X-1989330Y2190690D02*
G01X-1989330Y2243670D01*
G01X-1989330Y2243670D02*
G01X-1989310Y2244270D01*
G01X-1989310Y2244270D02*
G01X-1989260Y2244880D01*
G01X-1989260Y2244880D02*
G01X-1989170Y2245470D01*
G01X-1989170Y2245470D02*
G01X-1989040Y2246060D01*
G01X-1989040Y2246060D02*
G01X-1988880Y2246650D01*
G01X-1988880Y2246650D02*
G01X-1988680Y2247220D01*
G01X-1988680Y2247220D02*
G01X-1988450Y2247770D01*
G01X-1988450Y2247770D02*
G01X-1988180Y2248320D01*
G01X-1988180Y2248320D02*
G01X-1987890Y2248840D01*
G01X-1987890Y2248840D02*
G01X-1987560Y2249350D01*
G01X-1987560Y2249350D02*
G01X-1987200Y2249840D01*
G01X-1987200Y2249840D02*
G01X-1986820Y2250300D01*
G01X-1986820Y2250300D02*
G01X-1986400Y2250740D01*
G01X-1986400Y2250740D02*
G01X-1985960Y2251160D01*
G01X-1985960Y2251160D02*
G01X-1985500Y2251540D01*
G01X-1985500Y2251540D02*
G01X-1985010Y2251900D01*
G01X-1985010Y2251900D02*
G01X-1984500Y2252230D01*
G01X-1984500Y2252230D02*
G01X-1983980Y2252520D01*
G01X-1983980Y2252520D02*
G01X-1983430Y2252790D01*
G01X-1983430Y2252790D02*
G01X-1982880Y2253020D01*
G01X-1982880Y2253020D02*
G01X-1982310Y2253220D01*
G01X-1982310Y2253220D02*
G01X-1981720Y2253380D01*
G01X-1981720Y2253380D02*
G01X-1981130Y2253510D01*
G01X-1981130Y2253510D02*
G01X-1980540Y2253600D01*
G01X-1980540Y2253600D02*
G01X-1979930Y2253650D01*
G01X-1979930Y2253650D02*
G01X-1979330Y2253670D01*
G01X-1979330Y2253670D02*
G01X-1924830Y2253670D01*
G01X-1924830Y2278670D02*
G01X-1979330Y2278670D01*
G01X-1979330Y2278670D02*
G01X-1979930Y2278690D01*
G01X-1979930Y2278690D02*
G01X-1980540Y2278740D01*
G01X-1980540Y2278740D02*
G01X-1981130Y2278830D01*
G01X-1981130Y2278830D02*
G01X-1981720Y2278960D01*
G01X-1981720Y2278960D02*
G01X-1982310Y2279120D01*
G01X-1982310Y2279120D02*
G01X-1982880Y2279320D01*
G01X-1982880Y2279320D02*
G01X-1983430Y2279550D01*
G01X-1983430Y2279550D02*
G01X-1983980Y2279820D01*
G01X-1983980Y2279820D02*
G01X-1984500Y2280110D01*
G01X-1984500Y2280110D02*
G01X-1985010Y2280440D01*
G01X-1985010Y2280440D02*
G01X-1985500Y2280800D01*
G01X-1985500Y2280800D02*
G01X-1985960Y2281180D01*
G01X-1985960Y2281180D02*
G01X-1986400Y2281600D01*
G01X-1986400Y2281600D02*
G01X-1986820Y2282040D01*
G01X-1986820Y2282040D02*
G01X-1987200Y2282500D01*
G01X-1987200Y2282500D02*
G01X-1987560Y2282990D01*
G01X-1987560Y2282990D02*
G01X-1987890Y2283500D01*
G01X-1987890Y2283500D02*
G01X-1988180Y2284020D01*
G01X-1988180Y2284020D02*
G01X-1988450Y2284570D01*
G01X-1988450Y2284570D02*
G01X-1988680Y2285120D01*
G01X-1988680Y2285120D02*
G01X-1988880Y2285690D01*
G01X-1988880Y2285690D02*
G01X-1989040Y2286280D01*
G01X-1989040Y2286280D02*
G01X-1989170Y2286870D01*
G01X-1989170Y2286870D02*
G01X-1989260Y2287460D01*
G01X-1989260Y2287460D02*
G01X-1989310Y2288070D01*
G01X-1989310Y2288070D02*
G01X-1989330Y2288670D01*
G01X-1989330Y2288670D02*
G01X-1989330Y2341640D01*
G01X-1989330Y2381010D02*
G01X-1989330Y2433980D01*
G01X-1989330Y2473350D02*
G01X-1989330Y2526320D01*
G01X-1989330Y2565690D02*
G01X-1989330Y2618670D01*
G01X-1989330Y2618670D02*
G01X-1989310Y2619270D01*
G01X-1989310Y2619270D02*
G01X-1989260Y2619880D01*
G01X-1989260Y2619880D02*
G01X-1989170Y2620470D01*
G01X-1989170Y2620470D02*
G01X-1989040Y2621060D01*
G01X-1989040Y2621060D02*
G01X-1988880Y2621650D01*
G01X-1988880Y2621650D02*
G01X-1988680Y2622220D01*
G01X-1988680Y2622220D02*
G01X-1988450Y2622770D01*
G01X-1988450Y2622770D02*
G01X-1988180Y2623320D01*
G01X-1988180Y2623320D02*
G01X-1987890Y2623840D01*
G01X-1987890Y2623840D02*
G01X-1987560Y2624350D01*
G01X-1987560Y2624350D02*
G01X-1987200Y2624840D01*
G01X-1987200Y2624840D02*
G01X-1986820Y2625300D01*
G01X-1986820Y2625300D02*
G01X-1986400Y2625740D01*
G01X-1986400Y2625740D02*
G01X-1985960Y2626160D01*
G01X-1985960Y2626160D02*
G01X-1985500Y2626540D01*
G01X-1985500Y2626540D02*
G01X-1985010Y2626900D01*
G01X-1985010Y2626900D02*
G01X-1984500Y2627230D01*
G01X-1984500Y2627230D02*
G01X-1983980Y2627520D01*
G01X-1983980Y2627520D02*
G01X-1983430Y2627790D01*
G01X-1983430Y2627790D02*
G01X-1982880Y2628020D01*
G01X-1982880Y2628020D02*
G01X-1982310Y2628220D01*
G01X-1982310Y2628220D02*
G01X-1981720Y2628380D01*
G01X-1981720Y2628380D02*
G01X-1981130Y2628510D01*
G01X-1981130Y2628510D02*
G01X-1980540Y2628600D01*
G01X-1980540Y2628600D02*
G01X-1979930Y2628650D01*
G01X-1979930Y2628650D02*
G01X-1979330Y2628670D01*
G01X-1979330Y2628670D02*
G01X-1924830Y2628670D01*
G01X-1924830Y2653670D02*
G01X-1979330Y2653670D01*
G01X-1979330Y2653670D02*
G01X-1979930Y2653690D01*
G01X-1979930Y2653690D02*
G01X-1980540Y2653740D01*
G01X-1980540Y2653740D02*
G01X-1981130Y2653830D01*
G01X-1981130Y2653830D02*
G01X-1981720Y2653960D01*
G01X-1981720Y2653960D02*
G01X-1982310Y2654120D01*
G01X-1982310Y2654120D02*
G01X-1982880Y2654320D01*
G01X-1982880Y2654320D02*
G01X-1983430Y2654550D01*
G01X-1983430Y2654550D02*
G01X-1983980Y2654820D01*
G01X-1983980Y2654820D02*
G01X-1984500Y2655110D01*
G01X-1984500Y2655110D02*
G01X-1985010Y2655440D01*
G01X-1985010Y2655440D02*
G01X-1985500Y2655800D01*
G01X-1985500Y2655800D02*
G01X-1985960Y2656180D01*
G01X-1985960Y2656180D02*
G01X-1986400Y2656600D01*
G01X-1986400Y2656600D02*
G01X-1986820Y2657040D01*
G01X-1986820Y2657040D02*
G01X-1987200Y2657500D01*
G01X-1987200Y2657500D02*
G01X-1987560Y2657990D01*
G01X-1987560Y2657990D02*
G01X-1987890Y2658500D01*
G01X-1987890Y2658500D02*
G01X-1988180Y2659020D01*
G01X-1988180Y2659020D02*
G01X-1988450Y2659570D01*
G01X-1988450Y2659570D02*
G01X-1988680Y2660120D01*
G01X-1988680Y2660120D02*
G01X-1988880Y2660690D01*
G01X-1988880Y2660690D02*
G01X-1989040Y2661280D01*
G01X-1989040Y2661280D02*
G01X-1989170Y2661870D01*
G01X-1989170Y2661870D02*
G01X-1989260Y2662460D01*
G01X-1989260Y2662460D02*
G01X-1989310Y2663070D01*
G01X-1989310Y2663070D02*
G01X-1989330Y2663670D01*
G01X-1989330Y2663670D02*
G01X-1989330Y2716640D01*
G01X-1989330Y2756010D02*
G01X-1989330Y2808980D01*
G01X-1989330Y2848350D02*
G01X-1989330Y2901320D01*
G01X-1989330Y2940690D02*
G01X-1989330Y2993670D01*
G01X-1989330Y2993670D02*
G01X-1989310Y2994270D01*
G01X-1989310Y2994270D02*
G01X-1989260Y2994880D01*
G01X-1989260Y2994880D02*
G01X-1989170Y2995470D01*
G01X-1989170Y2995470D02*
G01X-1989040Y2996060D01*
G01X-1989040Y2996060D02*
G01X-1988880Y2996650D01*
G01X-1988880Y2996650D02*
G01X-1988680Y2997220D01*
G01X-1988680Y2997220D02*
G01X-1988450Y2997770D01*
G01X-1988450Y2997770D02*
G01X-1988180Y2998320D01*
G01X-1988180Y2998320D02*
G01X-1987890Y2998840D01*
G01X-1987890Y2998840D02*
G01X-1987560Y2999350D01*
G01X-1987560Y2999350D02*
G01X-1987200Y2999840D01*
G01X-1987200Y2999840D02*
G01X-1986820Y3000300D01*
G01X-1986820Y3000300D02*
G01X-1986400Y3000740D01*
G01X-1986400Y3000740D02*
G01X-1985960Y3001160D01*
G01X-1985960Y3001160D02*
G01X-1985500Y3001540D01*
G01X-1985500Y3001540D02*
G01X-1985010Y3001900D01*
G01X-1985010Y3001900D02*
G01X-1984500Y3002230D01*
G01X-1984500Y3002230D02*
G01X-1983980Y3002520D01*
G01X-1983980Y3002520D02*
G01X-1983430Y3002790D01*
G01X-1983430Y3002790D02*
G01X-1982880Y3003020D01*
G01X-1982880Y3003020D02*
G01X-1982310Y3003220D01*
G01X-1982310Y3003220D02*
G01X-1981720Y3003380D01*
G01X-1981720Y3003380D02*
G01X-1981130Y3003510D01*
G01X-1981130Y3003510D02*
G01X-1980540Y3003600D01*
G01X-1980540Y3003600D02*
G01X-1979930Y3003650D01*
G01X-1979930Y3003650D02*
G01X-1979330Y3003670D01*
G01X-1979330Y3003670D02*
G01X-1924830Y3003670D01*
G01X-1924830Y3028670D02*
G01X-1979330Y3028670D01*
G01X-1979330Y3028670D02*
G01X-1979930Y3028690D01*
G01X-1979930Y3028690D02*
G01X-1980540Y3028740D01*
G01X-1980540Y3028740D02*
G01X-1981130Y3028830D01*
G01X-1981130Y3028830D02*
G01X-1981720Y3028960D01*
G01X-1981720Y3028960D02*
G01X-1982310Y3029120D01*
G01X-1982310Y3029120D02*
G01X-1982880Y3029320D01*
G01X-1982880Y3029320D02*
G01X-1983430Y3029550D01*
G01X-1983430Y3029550D02*
G01X-1983980Y3029820D01*
G01X-1983980Y3029820D02*
G01X-1984500Y3030110D01*
G01X-1984500Y3030110D02*
G01X-1985010Y3030440D01*
G01X-1985010Y3030440D02*
G01X-1985500Y3030800D01*
G01X-1985500Y3030800D02*
G01X-1985960Y3031180D01*
G01X-1985960Y3031180D02*
G01X-1986400Y3031600D01*
G01X-1986400Y3031600D02*
G01X-1986820Y3032040D01*
G01X-1986820Y3032040D02*
G01X-1987200Y3032500D01*
G01X-1987200Y3032500D02*
G01X-1987560Y3032990D01*
G01X-1987560Y3032990D02*
G01X-1987890Y3033500D01*
G01X-1987890Y3033500D02*
G01X-1988180Y3034020D01*
G01X-1988180Y3034020D02*
G01X-1988450Y3034570D01*
G01X-1988450Y3034570D02*
G01X-1988680Y3035120D01*
G01X-1988680Y3035120D02*
G01X-1988880Y3035690D01*
G01X-1988880Y3035690D02*
G01X-1989040Y3036280D01*
G01X-1989040Y3036280D02*
G01X-1989170Y3036870D01*
G01X-1989170Y3036870D02*
G01X-1989260Y3037460D01*
G01X-1989260Y3037460D02*
G01X-1989310Y3038070D01*
G01X-1989310Y3038070D02*
G01X-1989330Y3038670D01*
G01X-1989330Y3038670D02*
G01X-1989330Y3091640D01*
G01X-1989330Y3131010D02*
G01X-1989330Y3183980D01*
G01X-1989330Y3223350D02*
G01X-1989330Y3276320D01*
G01X-1989330Y3315690D02*
G01X-1989330Y3368670D01*
G01X-1989330Y3368670D02*
G01X-1989310Y3369270D01*
G01X-1989310Y3369270D02*
G01X-1989260Y3369880D01*
G01X-1989260Y3369880D02*
G01X-1989170Y3370470D01*
G01X-1989170Y3370470D02*
G01X-1989040Y3371060D01*
G01X-1989040Y3371060D02*
G01X-1988880Y3371650D01*
G01X-1988880Y3371650D02*
G01X-1988680Y3372220D01*
G01X-1988680Y3372220D02*
G01X-1988450Y3372770D01*
G01X-1988450Y3372770D02*
G01X-1988180Y3373320D01*
G01X-1988180Y3373320D02*
G01X-1987890Y3373840D01*
G01X-1987890Y3373840D02*
G01X-1987560Y3374350D01*
G01X-1987560Y3374350D02*
G01X-1987200Y3374840D01*
G01X-1987200Y3374840D02*
G01X-1986820Y3375300D01*
G01X-1986820Y3375300D02*
G01X-1986400Y3375740D01*
G01X-1986400Y3375740D02*
G01X-1985960Y3376160D01*
G01X-1985960Y3376160D02*
G01X-1985500Y3376540D01*
G01X-1985500Y3376540D02*
G01X-1985010Y3376900D01*
G01X-1985010Y3376900D02*
G01X-1984500Y3377230D01*
G01X-1984500Y3377230D02*
G01X-1983980Y3377520D01*
G01X-1983980Y3377520D02*
G01X-1983430Y3377790D01*
G01X-1983430Y3377790D02*
G01X-1982880Y3378020D01*
G01X-1982880Y3378020D02*
G01X-1982310Y3378220D01*
G01X-1982310Y3378220D02*
G01X-1981720Y3378380D01*
G01X-1981720Y3378380D02*
G01X-1981130Y3378510D01*
G01X-1981130Y3378510D02*
G01X-1980540Y3378600D01*
G01X-1980540Y3378600D02*
G01X-1979930Y3378650D01*
G01X-1979930Y3378650D02*
G01X-1979330Y3378670D01*
G01X-1979330Y3378670D02*
G01X-1924830Y3378670D01*
G01X-1885460Y3378670D02*
G01X-1830950Y3378670D01*
G01X-1791580Y3378670D02*
G01X-1737080Y3378670D01*
G01X-1697710Y3378670D02*
G01X-1643200Y3378670D01*
G01X-1603830Y3378670D02*
G01X-1549330Y3378670D01*
G01X-1549330Y3378670D02*
G01X-1548730Y3378650D01*
G01X-1548730Y3378650D02*
G01X-1548120Y3378600D01*
G01X-1548120Y3378600D02*
G01X-1547530Y3378510D01*
G01X-1547530Y3378510D02*
G01X-1546940Y3378380D01*
G01X-1546940Y3378380D02*
G01X-1546350Y3378220D01*
G01X-1546350Y3378220D02*
G01X-1545780Y3378020D01*
G01X-1545780Y3378020D02*
G01X-1545230Y3377790D01*
G01X-1545230Y3377790D02*
G01X-1544680Y3377520D01*
G01X-1544680Y3377520D02*
G01X-1544160Y3377230D01*
G01X-1544160Y3377230D02*
G01X-1543650Y3376900D01*
G01X-1543650Y3376900D02*
G01X-1543160Y3376540D01*
G01X-1543160Y3376540D02*
G01X-1542700Y3376160D01*
G01X-1542700Y3376160D02*
G01X-1542260Y3375740D01*
G01X-1542260Y3375740D02*
G01X-1541840Y3375300D01*
G01X-1541840Y3375300D02*
G01X-1541460Y3374840D01*
G01X-1541460Y3374840D02*
G01X-1541100Y3374350D01*
G01X-1541100Y3374350D02*
G01X-1540770Y3373840D01*
G01X-1540770Y3373840D02*
G01X-1540480Y3373320D01*
G01X-1540480Y3373320D02*
G01X-1540210Y3372770D01*
G01X-1540210Y3372770D02*
G01X-1539980Y3372220D01*
G01X-1539980Y3372220D02*
G01X-1539780Y3371650D01*
G01X-1539780Y3371650D02*
G01X-1539620Y3371060D01*
G01X-1539620Y3371060D02*
G01X-1539490Y3370470D01*
G01X-1539490Y3370470D02*
G01X-1539400Y3369880D01*
G01X-1539400Y3369880D02*
G01X-1539350Y3369270D01*
G01X-1539350Y3369270D02*
G01X-1539330Y3368670D01*
G01X-1539330Y3368670D02*
G01X-1539330Y3315690D01*
G01X-1539330Y3276320D02*
G01X-1539330Y3223350D01*
G01X-1539330Y3183980D02*
G01X-1539330Y3131010D01*
G01X-1539330Y3091640D02*
G01X-1539330Y3038670D01*
G01X-1539330Y3038670D02*
G01X-1539350Y3038070D01*
G01X-1539350Y3038070D02*
G01X-1539400Y3037460D01*
G01X-1539400Y3037460D02*
G01X-1539490Y3036870D01*
G01X-1539490Y3036870D02*
G01X-1539620Y3036280D01*
G01X-1539620Y3036280D02*
G01X-1539780Y3035690D01*
G01X-1539780Y3035690D02*
G01X-1539980Y3035120D01*
G01X-1539980Y3035120D02*
G01X-1540210Y3034570D01*
G01X-1540210Y3034570D02*
G01X-1540480Y3034020D01*
G01X-1540480Y3034020D02*
G01X-1540770Y3033500D01*
G01X-1540770Y3033500D02*
G01X-1541100Y3032990D01*
G01X-1541100Y3032990D02*
G01X-1541460Y3032500D01*
G01X-1541460Y3032500D02*
G01X-1541840Y3032040D01*
G01X-1541840Y3032040D02*
G01X-1542260Y3031600D01*
G01X-1542260Y3031600D02*
G01X-1542700Y3031180D01*
G01X-1542700Y3031180D02*
G01X-1543160Y3030800D01*
G01X-1543160Y3030800D02*
G01X-1543650Y3030440D01*
G01X-1543650Y3030440D02*
G01X-1544160Y3030110D01*
G01X-1544160Y3030110D02*
G01X-1544680Y3029820D01*
G01X-1544680Y3029820D02*
G01X-1545230Y3029550D01*
G01X-1545230Y3029550D02*
G01X-1545780Y3029320D01*
G01X-1545780Y3029320D02*
G01X-1546350Y3029120D01*
G01X-1546350Y3029120D02*
G01X-1546940Y3028960D01*
G01X-1546940Y3028960D02*
G01X-1547530Y3028830D01*
G01X-1547530Y3028830D02*
G01X-1548120Y3028740D01*
G01X-1548120Y3028740D02*
G01X-1548730Y3028690D01*
G01X-1548730Y3028690D02*
G01X-1549330Y3028670D01*
G01X-1549330Y3028670D02*
G01X-1603830Y3028670D01*
G01X-1603830Y3003670D02*
G01X-1549330Y3003670D01*
G01X-1549330Y3003670D02*
G01X-1548730Y3003650D01*
G01X-1548730Y3003650D02*
G01X-1548120Y3003600D01*
G01X-1548120Y3003600D02*
G01X-1547530Y3003510D01*
G01X-1547530Y3003510D02*
G01X-1546940Y3003380D01*
G01X-1546940Y3003380D02*
G01X-1546350Y3003220D01*
G01X-1546350Y3003220D02*
G01X-1545780Y3003020D01*
G01X-1545780Y3003020D02*
G01X-1545230Y3002790D01*
G01X-1545230Y3002790D02*
G01X-1544680Y3002520D01*
G01X-1544680Y3002520D02*
G01X-1544160Y3002230D01*
G01X-1544160Y3002230D02*
G01X-1543650Y3001900D01*
G01X-1543650Y3001900D02*
G01X-1543160Y3001540D01*
G01X-1543160Y3001540D02*
G01X-1542700Y3001160D01*
G01X-1542700Y3001160D02*
G01X-1542260Y3000740D01*
G01X-1542260Y3000740D02*
G01X-1541840Y3000300D01*
G01X-1541840Y3000300D02*
G01X-1541460Y2999840D01*
G01X-1541460Y2999840D02*
G01X-1541100Y2999350D01*
G01X-1541100Y2999350D02*
G01X-1540770Y2998840D01*
G01X-1540770Y2998840D02*
G01X-1540480Y2998320D01*
G01X-1540480Y2998320D02*
G01X-1540210Y2997770D01*
G01X-1540210Y2997770D02*
G01X-1539980Y2997220D01*
G01X-1539980Y2997220D02*
G01X-1539780Y2996650D01*
G01X-1539780Y2996650D02*
G01X-1539620Y2996060D01*
G01X-1539620Y2996060D02*
G01X-1539490Y2995470D01*
G01X-1539490Y2995470D02*
G01X-1539400Y2994880D01*
G01X-1539400Y2994880D02*
G01X-1539350Y2994270D01*
G01X-1539350Y2994270D02*
G01X-1539330Y2993670D01*
G01X-1539330Y2993670D02*
G01X-1539330Y2940690D01*
G01X-1539330Y2901320D02*
G01X-1539330Y2848350D01*
G01X-1539330Y2808980D02*
G01X-1539330Y2756010D01*
G01X-1539330Y2716640D02*
G01X-1539330Y2663670D01*
G01X-1539330Y2663670D02*
G01X-1539350Y2663070D01*
G01X-1539350Y2663070D02*
G01X-1539400Y2662460D01*
G01X-1539400Y2662460D02*
G01X-1539490Y2661870D01*
G01X-1539490Y2661870D02*
G01X-1539620Y2661280D01*
G01X-1539620Y2661280D02*
G01X-1539780Y2660690D01*
G01X-1539780Y2660690D02*
G01X-1539980Y2660120D01*
G01X-1539980Y2660120D02*
G01X-1540210Y2659570D01*
G01X-1540210Y2659570D02*
G01X-1540480Y2659020D01*
G01X-1540480Y2659020D02*
G01X-1540770Y2658500D01*
G01X-1540770Y2658500D02*
G01X-1541100Y2657990D01*
G01X-1541100Y2657990D02*
G01X-1541460Y2657500D01*
G01X-1541460Y2657500D02*
G01X-1541840Y2657040D01*
G01X-1541840Y2657040D02*
G01X-1542260Y2656600D01*
G01X-1542260Y2656600D02*
G01X-1542700Y2656180D01*
G01X-1542700Y2656180D02*
G01X-1543160Y2655800D01*
G01X-1543160Y2655800D02*
G01X-1543650Y2655440D01*
G01X-1543650Y2655440D02*
G01X-1544160Y2655110D01*
G01X-1544160Y2655110D02*
G01X-1544680Y2654820D01*
G01X-1544680Y2654820D02*
G01X-1545230Y2654550D01*
G01X-1545230Y2654550D02*
G01X-1545780Y2654320D01*
G01X-1545780Y2654320D02*
G01X-1546350Y2654120D01*
G01X-1546350Y2654120D02*
G01X-1546940Y2653960D01*
G01X-1546940Y2653960D02*
G01X-1547530Y2653830D01*
G01X-1547530Y2653830D02*
G01X-1548120Y2653740D01*
G01X-1548120Y2653740D02*
G01X-1548730Y2653690D01*
G01X-1548730Y2653690D02*
G01X-1549330Y2653670D01*
G01X-1549330Y2653670D02*
G01X-1603830Y2653670D01*
G01X-1603830Y2628670D02*
G01X-1549330Y2628670D01*
G01X-1549330Y2628670D02*
G01X-1548730Y2628650D01*
G01X-1548730Y2628650D02*
G01X-1548120Y2628600D01*
G01X-1548120Y2628600D02*
G01X-1547530Y2628510D01*
G01X-1547530Y2628510D02*
G01X-1546940Y2628380D01*
G01X-1546940Y2628380D02*
G01X-1546350Y2628220D01*
G01X-1546350Y2628220D02*
G01X-1545780Y2628020D01*
G01X-1545780Y2628020D02*
G01X-1545230Y2627790D01*
G01X-1545230Y2627790D02*
G01X-1544680Y2627520D01*
G01X-1544680Y2627520D02*
G01X-1544160Y2627230D01*
G01X-1544160Y2627230D02*
G01X-1543650Y2626900D01*
G01X-1543650Y2626900D02*
G01X-1543160Y2626540D01*
G01X-1543160Y2626540D02*
G01X-1542700Y2626160D01*
G01X-1542700Y2626160D02*
G01X-1542260Y2625740D01*
G01X-1542260Y2625740D02*
G01X-1541840Y2625300D01*
G01X-1541840Y2625300D02*
G01X-1541460Y2624840D01*
G01X-1541460Y2624840D02*
G01X-1541100Y2624350D01*
G01X-1541100Y2624350D02*
G01X-1540770Y2623840D01*
G01X-1540770Y2623840D02*
G01X-1540480Y2623320D01*
G01X-1540480Y2623320D02*
G01X-1540210Y2622770D01*
G01X-1540210Y2622770D02*
G01X-1539980Y2622220D01*
G01X-1539980Y2622220D02*
G01X-1539780Y2621650D01*
G01X-1539780Y2621650D02*
G01X-1539620Y2621060D01*
G01X-1539620Y2621060D02*
G01X-1539490Y2620470D01*
G01X-1539490Y2620470D02*
G01X-1539400Y2619880D01*
G01X-1539400Y2619880D02*
G01X-1539350Y2619270D01*
G01X-1539350Y2619270D02*
G01X-1539330Y2618670D01*
G01X-1539330Y2618670D02*
G01X-1539330Y2565690D01*
G01X-1539330Y2526320D02*
G01X-1539330Y2473350D01*
G01X-1539330Y2433980D02*
G01X-1539330Y2381010D01*
G01X-1539330Y2341640D02*
G01X-1539330Y2288670D01*
G01X-1539330Y2288670D02*
G01X-1539350Y2288070D01*
G01X-1539350Y2288070D02*
G01X-1539400Y2287460D01*
G01X-1539400Y2287460D02*
G01X-1539490Y2286870D01*
G01X-1539490Y2286870D02*
G01X-1539620Y2286280D01*
G01X-1539620Y2286280D02*
G01X-1539780Y2285690D01*
G01X-1539780Y2285690D02*
G01X-1539980Y2285120D01*
G01X-1539980Y2285120D02*
G01X-1540210Y2284570D01*
G01X-1540210Y2284570D02*
G01X-1540480Y2284020D01*
G01X-1540480Y2284020D02*
G01X-1540770Y2283500D01*
G01X-1540770Y2283500D02*
G01X-1541100Y2282990D01*
G01X-1541100Y2282990D02*
G01X-1541460Y2282500D01*
G01X-1541460Y2282500D02*
G01X-1541840Y2282040D01*
G01X-1541840Y2282040D02*
G01X-1542260Y2281600D01*
G01X-1542260Y2281600D02*
G01X-1542700Y2281180D01*
G01X-1542700Y2281180D02*
G01X-1543160Y2280800D01*
G01X-1543160Y2280800D02*
G01X-1543650Y2280440D01*
G01X-1543650Y2280440D02*
G01X-1544160Y2280110D01*
G01X-1544160Y2280110D02*
G01X-1544680Y2279820D01*
G01X-1544680Y2279820D02*
G01X-1545230Y2279550D01*
G01X-1545230Y2279550D02*
G01X-1545780Y2279320D01*
G01X-1545780Y2279320D02*
G01X-1546350Y2279120D01*
G01X-1546350Y2279120D02*
G01X-1546940Y2278960D01*
G01X-1546940Y2278960D02*
G01X-1547530Y2278830D01*
G01X-1547530Y2278830D02*
G01X-1548120Y2278740D01*
G01X-1548120Y2278740D02*
G01X-1548730Y2278690D01*
G01X-1548730Y2278690D02*
G01X-1549330Y2278670D01*
G01X-1549330Y2278670D02*
G01X-1603830Y2278670D01*
G01X-1603830Y2253670D02*
G01X-1549330Y2253670D01*
G01X-1549330Y2253670D02*
G01X-1548730Y2253650D01*
G01X-1548730Y2253650D02*
G01X-1548120Y2253600D01*
G01X-1548120Y2253600D02*
G01X-1547530Y2253510D01*
G01X-1547530Y2253510D02*
G01X-1546940Y2253380D01*
G01X-1546940Y2253380D02*
G01X-1546350Y2253220D01*
G01X-1546350Y2253220D02*
G01X-1545780Y2253020D01*
G01X-1545780Y2253020D02*
G01X-1545230Y2252790D01*
G01X-1545230Y2252790D02*
G01X-1544680Y2252520D01*
G01X-1544680Y2252520D02*
G01X-1544160Y2252230D01*
G01X-1544160Y2252230D02*
G01X-1543650Y2251900D01*
G01X-1543650Y2251900D02*
G01X-1543160Y2251540D01*
G01X-1543160Y2251540D02*
G01X-1542700Y2251160D01*
G01X-1542700Y2251160D02*
G01X-1542260Y2250740D01*
G01X-1542260Y2250740D02*
G01X-1541840Y2250300D01*
G01X-1541840Y2250300D02*
G01X-1541460Y2249840D01*
G01X-1541460Y2249840D02*
G01X-1541100Y2249350D01*
G01X-1541100Y2249350D02*
G01X-1540770Y2248840D01*
G01X-1540770Y2248840D02*
G01X-1540480Y2248320D01*
G01X-1540480Y2248320D02*
G01X-1540210Y2247770D01*
G01X-1540210Y2247770D02*
G01X-1539980Y2247220D01*
G01X-1539980Y2247220D02*
G01X-1539780Y2246650D01*
G01X-1539780Y2246650D02*
G01X-1539620Y2246060D01*
G01X-1539620Y2246060D02*
G01X-1539490Y2245470D01*
G01X-1539490Y2245470D02*
G01X-1539400Y2244880D01*
G01X-1539400Y2244880D02*
G01X-1539350Y2244270D01*
G01X-1539350Y2244270D02*
G01X-1539330Y2243670D01*
G01X-1539330Y2243670D02*
G01X-1539330Y2190690D01*
G01X-1539330Y2151320D02*
G01X-1539330Y2098350D01*
G01X-1539330Y2058980D02*
G01X-1539330Y2006010D01*
G01X-1539330Y1966640D02*
G01X-1539330Y1913670D01*
G01X-1539330Y1913670D02*
G01X-1539350Y1913070D01*
G01X-1539350Y1913070D02*
G01X-1539400Y1912460D01*
G01X-1539400Y1912460D02*
G01X-1539490Y1911870D01*
G01X-1539490Y1911870D02*
G01X-1539620Y1911280D01*
G01X-1539620Y1911280D02*
G01X-1539780Y1910690D01*
G01X-1539780Y1910690D02*
G01X-1539980Y1910120D01*
G01X-1539980Y1910120D02*
G01X-1540210Y1909570D01*
G01X-1540210Y1909570D02*
G01X-1540480Y1909020D01*
G01X-1540480Y1909020D02*
G01X-1540770Y1908500D01*
G01X-1540770Y1908500D02*
G01X-1541100Y1907990D01*
G01X-1541100Y1907990D02*
G01X-1541460Y1907500D01*
G01X-1541460Y1907500D02*
G01X-1541840Y1907040D01*
G01X-1541840Y1907040D02*
G01X-1542260Y1906600D01*
G01X-1542260Y1906600D02*
G01X-1542700Y1906180D01*
G01X-1542700Y1906180D02*
G01X-1543160Y1905800D01*
G01X-1543160Y1905800D02*
G01X-1543650Y1905440D01*
G01X-1543650Y1905440D02*
G01X-1544160Y1905110D01*
G01X-1544160Y1905110D02*
G01X-1544680Y1904820D01*
G01X-1544680Y1904820D02*
G01X-1545230Y1904550D01*
G01X-1545230Y1904550D02*
G01X-1545780Y1904320D01*
G01X-1545780Y1904320D02*
G01X-1546350Y1904120D01*
G01X-1546350Y1904120D02*
G01X-1546940Y1903960D01*
G01X-1546940Y1903960D02*
G01X-1547530Y1903830D01*
G01X-1547530Y1903830D02*
G01X-1548120Y1903740D01*
G01X-1548120Y1903740D02*
G01X-1548730Y1903690D01*
G01X-1548730Y1903690D02*
G01X-1549330Y1903670D01*
G01X-1549330Y1903670D02*
G01X-1603830Y1903670D01*
G01X-1643200Y2253670D02*
G01X-1697710Y2253670D01*
G01X-1697710Y2278670D02*
G01X-1643200Y2278670D01*
G01X-1737080Y2278670D02*
G01X-1791580Y2278670D01*
G01X-1791580Y2253670D02*
G01X-1737080Y2253670D01*
G01X-1830950Y2253670D02*
G01X-1885460Y2253670D01*
G01X-1885460Y2278670D02*
G01X-1830950Y2278670D01*
G01X-1830950Y2628670D02*
G01X-1885460Y2628670D01*
G01X-1885460Y2653670D02*
G01X-1830950Y2653670D01*
G01X-1791580Y2653670D02*
G01X-1737080Y2653670D01*
G01X-1737080Y2628670D02*
G01X-1791580Y2628670D01*
G01X-1697710Y2628670D02*
G01X-1643200Y2628670D01*
G01X-1643200Y2653670D02*
G01X-1697710Y2653670D01*
G01X-1697710Y3003670D02*
G01X-1643200Y3003670D01*
G01X-1643200Y3028670D02*
G01X-1697710Y3028670D01*
G01X-1737080Y3028670D02*
G01X-1791580Y3028670D01*
G01X-1791580Y3003670D02*
G01X-1737080Y3003670D01*
G01X-1830950Y3003670D02*
G01X-1885460Y3003670D01*
G01X-1885460Y3028670D02*
G01X-1830950Y3028670D01*
G01X-1289330Y3033910D02*
G01X-1289330Y3085920D01*
G01X-1289330Y3125290D02*
G01X-1289330Y3177290D01*
G01X-1289330Y3216660D02*
G01X-1289330Y3268670D01*
G01X-1289330Y3268670D02*
G01X-1289310Y3269270D01*
G01X-1289310Y3269270D02*
G01X-1289260Y3269880D01*
G01X-1289260Y3269880D02*
G01X-1289170Y3270470D01*
G01X-1289170Y3270470D02*
G01X-1289040Y3271060D01*
G01X-1289040Y3271060D02*
G01X-1288880Y3271650D01*
G01X-1288880Y3271650D02*
G01X-1288680Y3272220D01*
G01X-1288680Y3272220D02*
G01X-1288450Y3272770D01*
G01X-1288450Y3272770D02*
G01X-1288180Y3273320D01*
G01X-1288180Y3273320D02*
G01X-1287890Y3273840D01*
G01X-1287890Y3273840D02*
G01X-1287560Y3274350D01*
G01X-1287560Y3274350D02*
G01X-1287200Y3274840D01*
G01X-1287200Y3274840D02*
G01X-1286820Y3275300D01*
G01X-1286820Y3275300D02*
G01X-1286400Y3275740D01*
G01X-1286400Y3275740D02*
G01X-1285960Y3276160D01*
G01X-1285960Y3276160D02*
G01X-1285500Y3276540D01*
G01X-1285500Y3276540D02*
G01X-1285010Y3276900D01*
G01X-1285010Y3276900D02*
G01X-1284500Y3277230D01*
G01X-1284500Y3277230D02*
G01X-1283980Y3277520D01*
G01X-1283980Y3277520D02*
G01X-1283430Y3277790D01*
G01X-1283430Y3277790D02*
G01X-1282880Y3278020D01*
G01X-1282880Y3278020D02*
G01X-1282310Y3278220D01*
G01X-1282310Y3278220D02*
G01X-1281720Y3278380D01*
G01X-1281720Y3278380D02*
G01X-1281130Y3278510D01*
G01X-1281130Y3278510D02*
G01X-1280540Y3278600D01*
G01X-1280540Y3278600D02*
G01X-1279930Y3278650D01*
G01X-1279930Y3278650D02*
G01X-1279330Y3278670D01*
G01X-1279330Y3278670D02*
G01X-1220580Y3278670D01*
G01X-1181210Y3278670D02*
G01X-1122450Y3278670D01*
G01X-1083080Y3278670D02*
G01X-1024330Y3278670D01*
G01X-1024330Y3278670D02*
G01X-1023730Y3278650D01*
G01X-1023730Y3278650D02*
G01X-1023120Y3278600D01*
G01X-1023120Y3278600D02*
G01X-1022530Y3278510D01*
G01X-1022530Y3278510D02*
G01X-1021940Y3278380D01*
G01X-1021940Y3278380D02*
G01X-1021350Y3278220D01*
G01X-1021350Y3278220D02*
G01X-1020780Y3278020D01*
G01X-1020780Y3278020D02*
G01X-1020230Y3277790D01*
G01X-1020230Y3277790D02*
G01X-1019680Y3277520D01*
G01X-1019680Y3277520D02*
G01X-1019160Y3277230D01*
G01X-1019160Y3277230D02*
G01X-1018650Y3276900D01*
G01X-1018650Y3276900D02*
G01X-1018160Y3276540D01*
G01X-1018160Y3276540D02*
G01X-1017700Y3276160D01*
G01X-1017700Y3276160D02*
G01X-1017260Y3275740D01*
G01X-1017260Y3275740D02*
G01X-1016840Y3275300D01*
G01X-1016840Y3275300D02*
G01X-1016460Y3274840D01*
G01X-1016460Y3274840D02*
G01X-1016100Y3274350D01*
G01X-1016100Y3274350D02*
G01X-1015770Y3273840D01*
G01X-1015770Y3273840D02*
G01X-1015480Y3273320D01*
G01X-1015480Y3273320D02*
G01X-1015210Y3272770D01*
G01X-1015210Y3272770D02*
G01X-1014980Y3272220D01*
G01X-1014980Y3272220D02*
G01X-1014780Y3271650D01*
G01X-1014780Y3271650D02*
G01X-1014620Y3271060D01*
G01X-1014620Y3271060D02*
G01X-1014490Y3270470D01*
G01X-1014490Y3270470D02*
G01X-1014400Y3269880D01*
G01X-1014400Y3269880D02*
G01X-1014350Y3269270D01*
G01X-1014350Y3269270D02*
G01X-1014330Y3268670D01*
G01X-1014330Y3268670D02*
G01X-1014330Y3216660D01*
G01X-989330Y3216660D02*
G01X-989330Y3268670D01*
G01X-989330Y3268670D02*
G01X-989310Y3269270D01*
G01X-989310Y3269270D02*
G01X-989260Y3269880D01*
G01X-989260Y3269880D02*
G01X-989170Y3270470D01*
G01X-989170Y3270470D02*
G01X-989040Y3271060D01*
G01X-989040Y3271060D02*
G01X-988880Y3271650D01*
G01X-988880Y3271650D02*
G01X-988680Y3272220D01*
G01X-988680Y3272220D02*
G01X-988450Y3272770D01*
G01X-988450Y3272770D02*
G01X-988180Y3273320D01*
G01X-988180Y3273320D02*
G01X-987890Y3273840D01*
G01X-987890Y3273840D02*
G01X-987560Y3274350D01*
G01X-987560Y3274350D02*
G01X-987200Y3274840D01*
G01X-987200Y3274840D02*
G01X-986820Y3275300D01*
G01X-986820Y3275300D02*
G01X-986400Y3275740D01*
G01X-986400Y3275740D02*
G01X-985960Y3276160D01*
G01X-985960Y3276160D02*
G01X-985500Y3276540D01*
G01X-985500Y3276540D02*
G01X-985010Y3276900D01*
G01X-985010Y3276900D02*
G01X-984500Y3277230D01*
G01X-984500Y3277230D02*
G01X-983980Y3277520D01*
G01X-983980Y3277520D02*
G01X-983430Y3277790D01*
G01X-983430Y3277790D02*
G01X-982880Y3278020D01*
G01X-982880Y3278020D02*
G01X-982310Y3278220D01*
G01X-982310Y3278220D02*
G01X-981720Y3278380D01*
G01X-981720Y3278380D02*
G01X-981130Y3278510D01*
G01X-981130Y3278510D02*
G01X-980540Y3278600D01*
G01X-980540Y3278600D02*
G01X-979930Y3278650D01*
G01X-979930Y3278650D02*
G01X-979330Y3278670D01*
G01X-979330Y3278670D02*
G01X-920580Y3278670D01*
G01X-881210Y3278670D02*
G01X-822450Y3278670D01*
G01X-783080Y3278670D02*
G01X-724330Y3278670D01*
G01X-724330Y3278670D02*
G01X-723730Y3278650D01*
G01X-723730Y3278650D02*
G01X-723120Y3278600D01*
G01X-723120Y3278600D02*
G01X-722530Y3278510D01*
G01X-722530Y3278510D02*
G01X-721940Y3278380D01*
G01X-721940Y3278380D02*
G01X-721350Y3278220D01*
G01X-721350Y3278220D02*
G01X-720780Y3278020D01*
G01X-720780Y3278020D02*
G01X-720230Y3277790D01*
G01X-720230Y3277790D02*
G01X-719680Y3277520D01*
G01X-719680Y3277520D02*
G01X-719160Y3277230D01*
G01X-719160Y3277230D02*
G01X-718650Y3276900D01*
G01X-718650Y3276900D02*
G01X-718160Y3276540D01*
G01X-718160Y3276540D02*
G01X-717700Y3276160D01*
G01X-717700Y3276160D02*
G01X-717260Y3275740D01*
G01X-717260Y3275740D02*
G01X-716840Y3275300D01*
G01X-716840Y3275300D02*
G01X-716460Y3274840D01*
G01X-716460Y3274840D02*
G01X-716100Y3274350D01*
G01X-716100Y3274350D02*
G01X-715770Y3273840D01*
G01X-715770Y3273840D02*
G01X-715480Y3273320D01*
G01X-715480Y3273320D02*
G01X-715210Y3272770D01*
G01X-715210Y3272770D02*
G01X-714980Y3272220D01*
G01X-714980Y3272220D02*
G01X-714780Y3271650D01*
G01X-714780Y3271650D02*
G01X-714620Y3271060D01*
G01X-714620Y3271060D02*
G01X-714490Y3270470D01*
G01X-714490Y3270470D02*
G01X-714400Y3269880D01*
G01X-714400Y3269880D02*
G01X-714350Y3269270D01*
G01X-714350Y3269270D02*
G01X-714330Y3268670D01*
G01X-714330Y3268670D02*
G01X-714330Y3216660D01*
G01X-714330Y3177290D02*
G01X-714330Y3125290D01*
G01X-714330Y3085920D02*
G01X-714330Y3033910D01*
G01X-714330Y2994540D02*
G01X-714330Y2942540D01*
G01X-714330Y2903170D02*
G01X-714330Y2851170D01*
G01X-714330Y2851170D02*
G01X-714350Y2850570D01*
G01X-714350Y2850570D02*
G01X-714400Y2849960D01*
G01X-714400Y2849960D02*
G01X-714490Y2849370D01*
G01X-714490Y2849370D02*
G01X-714620Y2848780D01*
G01X-714620Y2848780D02*
G01X-714780Y2848190D01*
G01X-714780Y2848190D02*
G01X-714980Y2847620D01*
G01X-714980Y2847620D02*
G01X-715210Y2847070D01*
G01X-715210Y2847070D02*
G01X-715480Y2846520D01*
G01X-715480Y2846520D02*
G01X-715770Y2846000D01*
G01X-715770Y2846000D02*
G01X-716100Y2845490D01*
G01X-716100Y2845490D02*
G01X-716460Y2845000D01*
G01X-716460Y2845000D02*
G01X-716840Y2844540D01*
G01X-716840Y2844540D02*
G01X-717260Y2844100D01*
G01X-717260Y2844100D02*
G01X-717700Y2843680D01*
G01X-717700Y2843680D02*
G01X-718160Y2843300D01*
G01X-718160Y2843300D02*
G01X-718650Y2842940D01*
G01X-718650Y2842940D02*
G01X-719160Y2842610D01*
G01X-719160Y2842610D02*
G01X-719680Y2842320D01*
G01X-719680Y2842320D02*
G01X-720230Y2842050D01*
G01X-720230Y2842050D02*
G01X-720780Y2841820D01*
G01X-720780Y2841820D02*
G01X-721350Y2841620D01*
G01X-721350Y2841620D02*
G01X-721940Y2841460D01*
G01X-721940Y2841460D02*
G01X-722530Y2841330D01*
G01X-722530Y2841330D02*
G01X-723120Y2841240D01*
G01X-723120Y2841240D02*
G01X-723730Y2841190D01*
G01X-723730Y2841190D02*
G01X-724330Y2841170D01*
G01X-724330Y2841170D02*
G01X-783080Y2841170D01*
G01X-822450Y2841170D02*
G01X-881210Y2841170D01*
G01X-920580Y2841170D02*
G01X-979330Y2841170D01*
G01X-979330Y2841170D02*
G01X-979930Y2841190D01*
G01X-979930Y2841190D02*
G01X-980540Y2841240D01*
G01X-980540Y2841240D02*
G01X-981130Y2841330D01*
G01X-981130Y2841330D02*
G01X-981720Y2841460D01*
G01X-981720Y2841460D02*
G01X-982310Y2841620D01*
G01X-982310Y2841620D02*
G01X-982880Y2841820D01*
G01X-982880Y2841820D02*
G01X-983430Y2842050D01*
G01X-983430Y2842050D02*
G01X-983980Y2842320D01*
G01X-983980Y2842320D02*
G01X-984500Y2842610D01*
G01X-984500Y2842610D02*
G01X-985010Y2842940D01*
G01X-985010Y2842940D02*
G01X-985500Y2843300D01*
G01X-985500Y2843300D02*
G01X-985960Y2843680D01*
G01X-985960Y2843680D02*
G01X-986400Y2844100D01*
G01X-986400Y2844100D02*
G01X-986820Y2844540D01*
G01X-986820Y2844540D02*
G01X-987200Y2845000D01*
G01X-987200Y2845000D02*
G01X-987560Y2845490D01*
G01X-987560Y2845490D02*
G01X-987890Y2846000D01*
G01X-987890Y2846000D02*
G01X-988180Y2846520D01*
G01X-988180Y2846520D02*
G01X-988450Y2847070D01*
G01X-988450Y2847070D02*
G01X-988680Y2847620D01*
G01X-988680Y2847620D02*
G01X-988880Y2848190D01*
G01X-988880Y2848190D02*
G01X-989040Y2848780D01*
G01X-989040Y2848780D02*
G01X-989170Y2849370D01*
G01X-989170Y2849370D02*
G01X-989260Y2849960D01*
G01X-989260Y2849960D02*
G01X-989310Y2850570D01*
G01X-989310Y2850570D02*
G01X-989330Y2851170D01*
G01X-989330Y2851170D02*
G01X-989330Y2903170D01*
G01X-1014330Y2903170D02*
G01X-1014330Y2851170D01*
G01X-1014330Y2851170D02*
G01X-1014350Y2850570D01*
G01X-1014350Y2850570D02*
G01X-1014400Y2849960D01*
G01X-1014400Y2849960D02*
G01X-1014490Y2849370D01*
G01X-1014490Y2849370D02*
G01X-1014620Y2848780D01*
G01X-1014620Y2848780D02*
G01X-1014780Y2848190D01*
G01X-1014780Y2848190D02*
G01X-1014980Y2847620D01*
G01X-1014980Y2847620D02*
G01X-1015210Y2847070D01*
G01X-1015210Y2847070D02*
G01X-1015480Y2846520D01*
G01X-1015480Y2846520D02*
G01X-1015770Y2846000D01*
G01X-1015770Y2846000D02*
G01X-1016100Y2845490D01*
G01X-1016100Y2845490D02*
G01X-1016460Y2845000D01*
G01X-1016460Y2845000D02*
G01X-1016840Y2844540D01*
G01X-1016840Y2844540D02*
G01X-1017260Y2844100D01*
G01X-1017260Y2844100D02*
G01X-1017700Y2843680D01*
G01X-1017700Y2843680D02*
G01X-1018160Y2843300D01*
G01X-1018160Y2843300D02*
G01X-1018650Y2842940D01*
G01X-1018650Y2842940D02*
G01X-1019160Y2842610D01*
G01X-1019160Y2842610D02*
G01X-1019680Y2842320D01*
G01X-1019680Y2842320D02*
G01X-1020230Y2842050D01*
G01X-1020230Y2842050D02*
G01X-1020780Y2841820D01*
G01X-1020780Y2841820D02*
G01X-1021350Y2841620D01*
G01X-1021350Y2841620D02*
G01X-1021940Y2841460D01*
G01X-1021940Y2841460D02*
G01X-1022530Y2841330D01*
G01X-1022530Y2841330D02*
G01X-1023120Y2841240D01*
G01X-1023120Y2841240D02*
G01X-1023730Y2841190D01*
G01X-1023730Y2841190D02*
G01X-1024330Y2841170D01*
G01X-1024330Y2841170D02*
G01X-1083080Y2841170D01*
G01X-1122450Y2841170D02*
G01X-1181210Y2841170D01*
G01X-1220580Y2841170D02*
G01X-1279330Y2841170D01*
G01X-1279330Y2841170D02*
G01X-1279930Y2841190D01*
G01X-1279930Y2841190D02*
G01X-1280540Y2841240D01*
G01X-1280540Y2841240D02*
G01X-1281130Y2841330D01*
G01X-1281130Y2841330D02*
G01X-1281720Y2841460D01*
G01X-1281720Y2841460D02*
G01X-1282310Y2841620D01*
G01X-1282310Y2841620D02*
G01X-1282880Y2841820D01*
G01X-1282880Y2841820D02*
G01X-1283430Y2842050D01*
G01X-1283430Y2842050D02*
G01X-1283980Y2842320D01*
G01X-1283980Y2842320D02*
G01X-1284500Y2842610D01*
G01X-1284500Y2842610D02*
G01X-1285010Y2842940D01*
G01X-1285010Y2842940D02*
G01X-1285500Y2843300D01*
G01X-1285500Y2843300D02*
G01X-1285960Y2843680D01*
G01X-1285960Y2843680D02*
G01X-1286400Y2844100D01*
G01X-1286400Y2844100D02*
G01X-1286820Y2844540D01*
G01X-1286820Y2844540D02*
G01X-1287200Y2845000D01*
G01X-1287200Y2845000D02*
G01X-1287560Y2845490D01*
G01X-1287560Y2845490D02*
G01X-1287890Y2846000D01*
G01X-1287890Y2846000D02*
G01X-1288180Y2846520D01*
G01X-1288180Y2846520D02*
G01X-1288450Y2847070D01*
G01X-1288450Y2847070D02*
G01X-1288680Y2847620D01*
G01X-1288680Y2847620D02*
G01X-1288880Y2848190D01*
G01X-1288880Y2848190D02*
G01X-1289040Y2848780D01*
G01X-1289040Y2848780D02*
G01X-1289170Y2849370D01*
G01X-1289170Y2849370D02*
G01X-1289260Y2849960D01*
G01X-1289260Y2849960D02*
G01X-1289310Y2850570D01*
G01X-1289310Y2850570D02*
G01X-1289330Y2851170D01*
G01X-1289330Y2851170D02*
G01X-1289330Y2903170D01*
G01X-1289330Y2942540D02*
G01X-1289330Y2994540D01*
G01X-1129330Y2753670D02*
G01X-1074830Y2753670D01*
G01X-1035460Y2753670D02*
G01X-980950Y2753670D01*
G01X-941580Y2753670D02*
G01X-887080Y2753670D01*
G01X-847710Y2753670D02*
G01X-793200Y2753670D01*
G01X-753830Y2753670D02*
G01X-699330Y2753670D01*
G01X-699330Y2753670D02*
G01X-698730Y2753650D01*
G01X-698730Y2753650D02*
G01X-698120Y2753600D01*
G01X-698120Y2753600D02*
G01X-697530Y2753510D01*
G01X-697530Y2753510D02*
G01X-696940Y2753380D01*
G01X-696940Y2753380D02*
G01X-696350Y2753220D01*
G01X-696350Y2753220D02*
G01X-695780Y2753020D01*
G01X-695780Y2753020D02*
G01X-695230Y2752790D01*
G01X-695230Y2752790D02*
G01X-694680Y2752520D01*
G01X-694680Y2752520D02*
G01X-694160Y2752230D01*
G01X-694160Y2752230D02*
G01X-693650Y2751900D01*
G01X-693650Y2751900D02*
G01X-693160Y2751540D01*
G01X-693160Y2751540D02*
G01X-692700Y2751160D01*
G01X-692700Y2751160D02*
G01X-692260Y2750740D01*
G01X-692260Y2750740D02*
G01X-691840Y2750300D01*
G01X-691840Y2750300D02*
G01X-691460Y2749840D01*
G01X-691460Y2749840D02*
G01X-691100Y2749350D01*
G01X-691100Y2749350D02*
G01X-690770Y2748840D01*
G01X-690770Y2748840D02*
G01X-690480Y2748320D01*
G01X-690480Y2748320D02*
G01X-690210Y2747770D01*
G01X-690210Y2747770D02*
G01X-689980Y2747220D01*
G01X-689980Y2747220D02*
G01X-689780Y2746650D01*
G01X-689780Y2746650D02*
G01X-689620Y2746060D01*
G01X-689620Y2746060D02*
G01X-689490Y2745470D01*
G01X-689490Y2745470D02*
G01X-689400Y2744880D01*
G01X-689400Y2744880D02*
G01X-689350Y2744270D01*
G01X-689350Y2744270D02*
G01X-689330Y2743670D01*
G01X-689330Y2743670D02*
G01X-689330Y2690690D01*
G01X-689330Y2651320D02*
G01X-689330Y2598350D01*
G01X-689330Y2558980D02*
G01X-689330Y2506010D01*
G01X-689330Y2466640D02*
G01X-689330Y2413670D01*
G01X-689330Y2413670D02*
G01X-689350Y2413070D01*
G01X-689350Y2413070D02*
G01X-689400Y2412460D01*
G01X-689400Y2412460D02*
G01X-689490Y2411870D01*
G01X-689490Y2411870D02*
G01X-689620Y2411280D01*
G01X-689620Y2411280D02*
G01X-689780Y2410690D01*
G01X-689780Y2410690D02*
G01X-689980Y2410120D01*
G01X-689980Y2410120D02*
G01X-690210Y2409570D01*
G01X-690210Y2409570D02*
G01X-690480Y2409020D01*
G01X-690480Y2409020D02*
G01X-690770Y2408500D01*
G01X-690770Y2408500D02*
G01X-691100Y2407990D01*
G01X-691100Y2407990D02*
G01X-691460Y2407500D01*
G01X-691460Y2407500D02*
G01X-691840Y2407040D01*
G01X-691840Y2407040D02*
G01X-692260Y2406600D01*
G01X-692260Y2406600D02*
G01X-692700Y2406180D01*
G01X-692700Y2406180D02*
G01X-693160Y2405800D01*
G01X-693160Y2405800D02*
G01X-693650Y2405440D01*
G01X-693650Y2405440D02*
G01X-694160Y2405110D01*
G01X-694160Y2405110D02*
G01X-694680Y2404820D01*
G01X-694680Y2404820D02*
G01X-695230Y2404550D01*
G01X-695230Y2404550D02*
G01X-695780Y2404320D01*
G01X-695780Y2404320D02*
G01X-696350Y2404120D01*
G01X-696350Y2404120D02*
G01X-696940Y2403960D01*
G01X-696940Y2403960D02*
G01X-697530Y2403830D01*
G01X-697530Y2403830D02*
G01X-698120Y2403740D01*
G01X-698120Y2403740D02*
G01X-698730Y2403690D01*
G01X-698730Y2403690D02*
G01X-699330Y2403670D01*
G01X-699330Y2403670D02*
G01X-753830Y2403670D01*
G01X-753830Y2378670D02*
G01X-699330Y2378670D01*
G01X-699330Y2378670D02*
G01X-698730Y2378650D01*
G01X-698730Y2378650D02*
G01X-698120Y2378600D01*
G01X-698120Y2378600D02*
G01X-697530Y2378510D01*
G01X-697530Y2378510D02*
G01X-696940Y2378380D01*
G01X-696940Y2378380D02*
G01X-696350Y2378220D01*
G01X-696350Y2378220D02*
G01X-695780Y2378020D01*
G01X-695780Y2378020D02*
G01X-695230Y2377790D01*
G01X-695230Y2377790D02*
G01X-694680Y2377520D01*
G01X-694680Y2377520D02*
G01X-694160Y2377230D01*
G01X-694160Y2377230D02*
G01X-693650Y2376900D01*
G01X-693650Y2376900D02*
G01X-693160Y2376540D01*
G01X-693160Y2376540D02*
G01X-692700Y2376160D01*
G01X-692700Y2376160D02*
G01X-692260Y2375740D01*
G01X-692260Y2375740D02*
G01X-691840Y2375300D01*
G01X-691840Y2375300D02*
G01X-691460Y2374840D01*
G01X-691460Y2374840D02*
G01X-691100Y2374350D01*
G01X-691100Y2374350D02*
G01X-690770Y2373840D01*
G01X-690770Y2373840D02*
G01X-690480Y2373320D01*
G01X-690480Y2373320D02*
G01X-690210Y2372770D01*
G01X-690210Y2372770D02*
G01X-689980Y2372220D01*
G01X-689980Y2372220D02*
G01X-689780Y2371650D01*
G01X-689780Y2371650D02*
G01X-689620Y2371060D01*
G01X-689620Y2371060D02*
G01X-689490Y2370470D01*
G01X-689490Y2370470D02*
G01X-689400Y2369880D01*
G01X-689400Y2369880D02*
G01X-689350Y2369270D01*
G01X-689350Y2369270D02*
G01X-689330Y2368670D01*
G01X-689330Y2368670D02*
G01X-689330Y2315690D01*
G01X-689330Y2276320D02*
G01X-689330Y2223350D01*
G01X-689330Y2183980D02*
G01X-689330Y2131010D01*
G01X-689330Y2091640D02*
G01X-689330Y2038670D01*
G01X-689330Y2038670D02*
G01X-689350Y2038070D01*
G01X-689350Y2038070D02*
G01X-689400Y2037460D01*
G01X-689400Y2037460D02*
G01X-689490Y2036870D01*
G01X-689490Y2036870D02*
G01X-689620Y2036280D01*
G01X-689620Y2036280D02*
G01X-689780Y2035690D01*
G01X-689780Y2035690D02*
G01X-689980Y2035120D01*
G01X-689980Y2035120D02*
G01X-690210Y2034570D01*
G01X-690210Y2034570D02*
G01X-690480Y2034020D01*
G01X-690480Y2034020D02*
G01X-690770Y2033500D01*
G01X-690770Y2033500D02*
G01X-691100Y2032990D01*
G01X-691100Y2032990D02*
G01X-691460Y2032500D01*
G01X-691460Y2032500D02*
G01X-691840Y2032040D01*
G01X-691840Y2032040D02*
G01X-692260Y2031600D01*
G01X-692260Y2031600D02*
G01X-692700Y2031180D01*
G01X-692700Y2031180D02*
G01X-693160Y2030800D01*
G01X-693160Y2030800D02*
G01X-693650Y2030440D01*
G01X-693650Y2030440D02*
G01X-694160Y2030110D01*
G01X-694160Y2030110D02*
G01X-694680Y2029820D01*
G01X-694680Y2029820D02*
G01X-695230Y2029550D01*
G01X-695230Y2029550D02*
G01X-695780Y2029320D01*
G01X-695780Y2029320D02*
G01X-696350Y2029120D01*
G01X-696350Y2029120D02*
G01X-696940Y2028960D01*
G01X-696940Y2028960D02*
G01X-697530Y2028830D01*
G01X-697530Y2028830D02*
G01X-698120Y2028740D01*
G01X-698120Y2028740D02*
G01X-698730Y2028690D01*
G01X-698730Y2028690D02*
G01X-699330Y2028670D01*
G01X-699330Y2028670D02*
G01X-753830Y2028670D01*
G01X-753830Y2003670D02*
G01X-699330Y2003670D01*
G01X-699330Y2003670D02*
G01X-698730Y2003650D01*
G01X-698730Y2003650D02*
G01X-698120Y2003600D01*
G01X-698120Y2003600D02*
G01X-697530Y2003510D01*
G01X-697530Y2003510D02*
G01X-696940Y2003380D01*
G01X-696940Y2003380D02*
G01X-696350Y2003220D01*
G01X-696350Y2003220D02*
G01X-695780Y2003020D01*
G01X-695780Y2003020D02*
G01X-695230Y2002790D01*
G01X-695230Y2002790D02*
G01X-694680Y2002520D01*
G01X-694680Y2002520D02*
G01X-694160Y2002230D01*
G01X-694160Y2002230D02*
G01X-693650Y2001900D01*
G01X-693650Y2001900D02*
G01X-693160Y2001540D01*
G01X-693160Y2001540D02*
G01X-692700Y2001160D01*
G01X-692700Y2001160D02*
G01X-692260Y2000740D01*
G01X-692260Y2000740D02*
G01X-691840Y2000300D01*
G01X-691840Y2000300D02*
G01X-691460Y1999840D01*
G01X-691460Y1999840D02*
G01X-691100Y1999350D01*
G01X-691100Y1999350D02*
G01X-690770Y1998840D01*
G01X-690770Y1998840D02*
G01X-690480Y1998320D01*
G01X-690480Y1998320D02*
G01X-690210Y1997770D01*
G01X-690210Y1997770D02*
G01X-689980Y1997220D01*
G01X-689980Y1997220D02*
G01X-689780Y1996650D01*
G01X-689780Y1996650D02*
G01X-689620Y1996060D01*
G01X-689620Y1996060D02*
G01X-689490Y1995470D01*
G01X-689490Y1995470D02*
G01X-689400Y1994880D01*
G01X-689400Y1994880D02*
G01X-689350Y1994270D01*
G01X-689350Y1994270D02*
G01X-689330Y1993670D01*
G01X-689330Y1993670D02*
G01X-689330Y1940690D01*
G01X-689330Y1901320D02*
G01X-689330Y1848350D01*
G01X-689330Y1808980D02*
G01X-689330Y1756010D01*
G01X-689330Y1716640D02*
G01X-689330Y1663670D01*
G01X-689330Y1663670D02*
G01X-689350Y1663070D01*
G01X-689350Y1663070D02*
G01X-689400Y1662460D01*
G01X-689400Y1662460D02*
G01X-689490Y1661870D01*
G01X-689490Y1661870D02*
G01X-689620Y1661280D01*
G01X-689620Y1661280D02*
G01X-689780Y1660690D01*
G01X-689780Y1660690D02*
G01X-689980Y1660120D01*
G01X-689980Y1660120D02*
G01X-690210Y1659570D01*
G01X-690210Y1659570D02*
G01X-690480Y1659020D01*
G01X-690480Y1659020D02*
G01X-690770Y1658500D01*
G01X-690770Y1658500D02*
G01X-691100Y1657990D01*
G01X-691100Y1657990D02*
G01X-691460Y1657500D01*
G01X-691460Y1657500D02*
G01X-691840Y1657040D01*
G01X-691840Y1657040D02*
G01X-692260Y1656600D01*
G01X-692260Y1656600D02*
G01X-692700Y1656180D01*
G01X-692700Y1656180D02*
G01X-693160Y1655800D01*
G01X-693160Y1655800D02*
G01X-693650Y1655440D01*
G01X-693650Y1655440D02*
G01X-694160Y1655110D01*
G01X-694160Y1655110D02*
G01X-694680Y1654820D01*
G01X-694680Y1654820D02*
G01X-695230Y1654550D01*
G01X-695230Y1654550D02*
G01X-695780Y1654320D01*
G01X-695780Y1654320D02*
G01X-696350Y1654120D01*
G01X-696350Y1654120D02*
G01X-696940Y1653960D01*
G01X-696940Y1653960D02*
G01X-697530Y1653830D01*
G01X-697530Y1653830D02*
G01X-698120Y1653740D01*
G01X-698120Y1653740D02*
G01X-698730Y1653690D01*
G01X-698730Y1653690D02*
G01X-699330Y1653670D01*
G01X-699330Y1653670D02*
G01X-753830Y1653670D01*
G01X-753830Y1628670D02*
G01X-699330Y1628670D01*
G01X-699330Y1628670D02*
G01X-698730Y1628650D01*
G01X-698730Y1628650D02*
G01X-698120Y1628600D01*
G01X-698120Y1628600D02*
G01X-697530Y1628510D01*
G01X-697530Y1628510D02*
G01X-696940Y1628380D01*
G01X-696940Y1628380D02*
G01X-696350Y1628220D01*
G01X-696350Y1628220D02*
G01X-695780Y1628020D01*
G01X-695780Y1628020D02*
G01X-695230Y1627790D01*
G01X-695230Y1627790D02*
G01X-694680Y1627520D01*
G01X-694680Y1627520D02*
G01X-694160Y1627230D01*
G01X-694160Y1627230D02*
G01X-693650Y1626900D01*
G01X-693650Y1626900D02*
G01X-693160Y1626540D01*
G01X-693160Y1626540D02*
G01X-692700Y1626160D01*
G01X-692700Y1626160D02*
G01X-692260Y1625740D01*
G01X-692260Y1625740D02*
G01X-691840Y1625300D01*
G01X-691840Y1625300D02*
G01X-691460Y1624840D01*
G01X-691460Y1624840D02*
G01X-691100Y1624350D01*
G01X-691100Y1624350D02*
G01X-690770Y1623840D01*
G01X-690770Y1623840D02*
G01X-690480Y1623320D01*
G01X-690480Y1623320D02*
G01X-690210Y1622770D01*
G01X-690210Y1622770D02*
G01X-689980Y1622220D01*
G01X-689980Y1622220D02*
G01X-689780Y1621650D01*
G01X-689780Y1621650D02*
G01X-689620Y1621060D01*
G01X-689620Y1621060D02*
G01X-689490Y1620470D01*
G01X-689490Y1620470D02*
G01X-689400Y1619880D01*
G01X-689400Y1619880D02*
G01X-689350Y1619270D01*
G01X-689350Y1619270D02*
G01X-689330Y1618670D01*
G01X-689330Y1618670D02*
G01X-689330Y1565690D01*
G01X-689330Y1526320D02*
G01X-689330Y1473350D01*
G01X-689330Y1433980D02*
G01X-689330Y1381010D01*
G01X-689330Y1341640D02*
G01X-689330Y1288670D01*
G01X-689330Y1288670D02*
G01X-689350Y1288070D01*
G01X-689350Y1288070D02*
G01X-689400Y1287460D01*
G01X-689400Y1287460D02*
G01X-689490Y1286870D01*
G01X-689490Y1286870D02*
G01X-689620Y1286280D01*
G01X-689620Y1286280D02*
G01X-689780Y1285690D01*
G01X-689780Y1285690D02*
G01X-689980Y1285120D01*
G01X-689980Y1285120D02*
G01X-690210Y1284570D01*
G01X-690210Y1284570D02*
G01X-690480Y1284020D01*
G01X-690480Y1284020D02*
G01X-690770Y1283500D01*
G01X-690770Y1283500D02*
G01X-691100Y1282990D01*
G01X-691100Y1282990D02*
G01X-691460Y1282500D01*
G01X-691460Y1282500D02*
G01X-691840Y1282040D01*
G01X-691840Y1282040D02*
G01X-692260Y1281600D01*
G01X-692260Y1281600D02*
G01X-692700Y1281180D01*
G01X-692700Y1281180D02*
G01X-693160Y1280800D01*
G01X-693160Y1280800D02*
G01X-693650Y1280440D01*
G01X-693650Y1280440D02*
G01X-694160Y1280110D01*
G01X-694160Y1280110D02*
G01X-694680Y1279820D01*
G01X-694680Y1279820D02*
G01X-695230Y1279550D01*
G01X-695230Y1279550D02*
G01X-695780Y1279320D01*
G01X-695780Y1279320D02*
G01X-696350Y1279120D01*
G01X-696350Y1279120D02*
G01X-696940Y1278960D01*
G01X-696940Y1278960D02*
G01X-697530Y1278830D01*
G01X-697530Y1278830D02*
G01X-698120Y1278740D01*
G01X-698120Y1278740D02*
G01X-698730Y1278690D01*
G01X-698730Y1278690D02*
G01X-699330Y1278670D01*
G01X-699330Y1278670D02*
G01X-753830Y1278670D01*
G01X-793200Y1278670D02*
G01X-847710Y1278670D01*
G01X-887080Y1278670D02*
G01X-941580Y1278670D01*
G01X-980950Y1278670D02*
G01X-1035460Y1278670D01*
G01X-1074830Y1278670D02*
G01X-1129330Y1278670D01*
G01X-1129330Y1278670D02*
G01X-1129930Y1278690D01*
G01X-1129930Y1278690D02*
G01X-1130540Y1278740D01*
G01X-1130540Y1278740D02*
G01X-1131130Y1278830D01*
G01X-1131130Y1278830D02*
G01X-1131720Y1278960D01*
G01X-1131720Y1278960D02*
G01X-1132310Y1279120D01*
G01X-1132310Y1279120D02*
G01X-1132880Y1279320D01*
G01X-1132880Y1279320D02*
G01X-1133430Y1279550D01*
G01X-1133430Y1279550D02*
G01X-1133980Y1279820D01*
G01X-1133980Y1279820D02*
G01X-1134500Y1280110D01*
G01X-1134500Y1280110D02*
G01X-1135010Y1280440D01*
G01X-1135010Y1280440D02*
G01X-1135500Y1280800D01*
G01X-1135500Y1280800D02*
G01X-1135960Y1281180D01*
G01X-1135960Y1281180D02*
G01X-1136400Y1281600D01*
G01X-1136400Y1281600D02*
G01X-1136820Y1282040D01*
G01X-1136820Y1282040D02*
G01X-1137200Y1282500D01*
G01X-1137200Y1282500D02*
G01X-1137560Y1282990D01*
G01X-1137560Y1282990D02*
G01X-1137890Y1283500D01*
G01X-1137890Y1283500D02*
G01X-1138180Y1284020D01*
G01X-1138180Y1284020D02*
G01X-1138450Y1284570D01*
G01X-1138450Y1284570D02*
G01X-1138680Y1285120D01*
G01X-1138680Y1285120D02*
G01X-1138880Y1285690D01*
G01X-1138880Y1285690D02*
G01X-1139040Y1286280D01*
G01X-1139040Y1286280D02*
G01X-1139170Y1286870D01*
G01X-1139170Y1286870D02*
G01X-1139260Y1287460D01*
G01X-1139260Y1287460D02*
G01X-1139310Y1288070D01*
G01X-1139310Y1288070D02*
G01X-1139330Y1288670D01*
G01X-1139330Y1288670D02*
G01X-1139330Y1341640D01*
G01X-1139330Y1381010D02*
G01X-1139330Y1433980D01*
G01X-1139330Y1473350D02*
G01X-1139330Y1526320D01*
G01X-1139330Y1565690D02*
G01X-1139330Y1618670D01*
G01X-1139330Y1618670D02*
G01X-1139310Y1619270D01*
G01X-1139310Y1619270D02*
G01X-1139260Y1619880D01*
G01X-1139260Y1619880D02*
G01X-1139170Y1620470D01*
G01X-1139170Y1620470D02*
G01X-1139040Y1621060D01*
G01X-1139040Y1621060D02*
G01X-1138880Y1621650D01*
G01X-1138880Y1621650D02*
G01X-1138680Y1622220D01*
G01X-1138680Y1622220D02*
G01X-1138450Y1622770D01*
G01X-1138450Y1622770D02*
G01X-1138180Y1623320D01*
G01X-1138180Y1623320D02*
G01X-1137890Y1623840D01*
G01X-1137890Y1623840D02*
G01X-1137560Y1624350D01*
G01X-1137560Y1624350D02*
G01X-1137200Y1624840D01*
G01X-1137200Y1624840D02*
G01X-1136820Y1625300D01*
G01X-1136820Y1625300D02*
G01X-1136400Y1625740D01*
G01X-1136400Y1625740D02*
G01X-1135960Y1626160D01*
G01X-1135960Y1626160D02*
G01X-1135500Y1626540D01*
G01X-1135500Y1626540D02*
G01X-1135010Y1626900D01*
G01X-1135010Y1626900D02*
G01X-1134500Y1627230D01*
G01X-1134500Y1627230D02*
G01X-1133980Y1627520D01*
G01X-1133980Y1627520D02*
G01X-1133430Y1627790D01*
G01X-1133430Y1627790D02*
G01X-1132880Y1628020D01*
G01X-1132880Y1628020D02*
G01X-1132310Y1628220D01*
G01X-1132310Y1628220D02*
G01X-1131720Y1628380D01*
G01X-1131720Y1628380D02*
G01X-1131130Y1628510D01*
G01X-1131130Y1628510D02*
G01X-1130540Y1628600D01*
G01X-1130540Y1628600D02*
G01X-1129930Y1628650D01*
G01X-1129930Y1628650D02*
G01X-1129330Y1628670D01*
G01X-1129330Y1628670D02*
G01X-1074830Y1628670D01*
G01X-1074830Y1653670D02*
G01X-1129330Y1653670D01*
G01X-1129330Y1653670D02*
G01X-1129930Y1653690D01*
G01X-1129930Y1653690D02*
G01X-1130540Y1653740D01*
G01X-1130540Y1653740D02*
G01X-1131130Y1653830D01*
G01X-1131130Y1653830D02*
G01X-1131720Y1653960D01*
G01X-1131720Y1653960D02*
G01X-1132310Y1654120D01*
G01X-1132310Y1654120D02*
G01X-1132880Y1654320D01*
G01X-1132880Y1654320D02*
G01X-1133430Y1654550D01*
G01X-1133430Y1654550D02*
G01X-1133980Y1654820D01*
G01X-1133980Y1654820D02*
G01X-1134500Y1655110D01*
G01X-1134500Y1655110D02*
G01X-1135010Y1655440D01*
G01X-1135010Y1655440D02*
G01X-1135500Y1655800D01*
G01X-1135500Y1655800D02*
G01X-1135960Y1656180D01*
G01X-1135960Y1656180D02*
G01X-1136400Y1656600D01*
G01X-1136400Y1656600D02*
G01X-1136820Y1657040D01*
G01X-1136820Y1657040D02*
G01X-1137200Y1657500D01*
G01X-1137200Y1657500D02*
G01X-1137560Y1657990D01*
G01X-1137560Y1657990D02*
G01X-1137890Y1658500D01*
G01X-1137890Y1658500D02*
G01X-1138180Y1659020D01*
G01X-1138180Y1659020D02*
G01X-1138450Y1659570D01*
G01X-1138450Y1659570D02*
G01X-1138680Y1660120D01*
G01X-1138680Y1660120D02*
G01X-1138880Y1660690D01*
G01X-1138880Y1660690D02*
G01X-1139040Y1661280D01*
G01X-1139040Y1661280D02*
G01X-1139170Y1661870D01*
G01X-1139170Y1661870D02*
G01X-1139260Y1662460D01*
G01X-1139260Y1662460D02*
G01X-1139310Y1663070D01*
G01X-1139310Y1663070D02*
G01X-1139330Y1663670D01*
G01X-1139330Y1663670D02*
G01X-1139330Y1716640D01*
G01X-1139330Y1756010D02*
G01X-1139330Y1808980D01*
G01X-1139330Y1848350D02*
G01X-1139330Y1901320D01*
G01X-1139330Y1940690D02*
G01X-1139330Y1993670D01*
G01X-1139330Y1993670D02*
G01X-1139310Y1994270D01*
G01X-1139310Y1994270D02*
G01X-1139260Y1994880D01*
G01X-1139260Y1994880D02*
G01X-1139170Y1995470D01*
G01X-1139170Y1995470D02*
G01X-1139040Y1996060D01*
G01X-1139040Y1996060D02*
G01X-1138880Y1996650D01*
G01X-1138880Y1996650D02*
G01X-1138680Y1997220D01*
G01X-1138680Y1997220D02*
G01X-1138450Y1997770D01*
G01X-1138450Y1997770D02*
G01X-1138180Y1998320D01*
G01X-1138180Y1998320D02*
G01X-1137890Y1998840D01*
G01X-1137890Y1998840D02*
G01X-1137560Y1999350D01*
G01X-1137560Y1999350D02*
G01X-1137200Y1999840D01*
G01X-1137200Y1999840D02*
G01X-1136820Y2000300D01*
G01X-1136820Y2000300D02*
G01X-1136400Y2000740D01*
G01X-1136400Y2000740D02*
G01X-1135960Y2001160D01*
G01X-1135960Y2001160D02*
G01X-1135500Y2001540D01*
G01X-1135500Y2001540D02*
G01X-1135010Y2001900D01*
G01X-1135010Y2001900D02*
G01X-1134500Y2002230D01*
G01X-1134500Y2002230D02*
G01X-1133980Y2002520D01*
G01X-1133980Y2002520D02*
G01X-1133430Y2002790D01*
G01X-1133430Y2002790D02*
G01X-1132880Y2003020D01*
G01X-1132880Y2003020D02*
G01X-1132310Y2003220D01*
G01X-1132310Y2003220D02*
G01X-1131720Y2003380D01*
G01X-1131720Y2003380D02*
G01X-1131130Y2003510D01*
G01X-1131130Y2003510D02*
G01X-1130540Y2003600D01*
G01X-1130540Y2003600D02*
G01X-1129930Y2003650D01*
G01X-1129930Y2003650D02*
G01X-1129330Y2003670D01*
G01X-1129330Y2003670D02*
G01X-1074830Y2003670D01*
G01X-1074830Y2028670D02*
G01X-1129330Y2028670D01*
G01X-1129330Y2028670D02*
G01X-1129930Y2028690D01*
G01X-1129930Y2028690D02*
G01X-1130540Y2028740D01*
G01X-1130540Y2028740D02*
G01X-1131130Y2028830D01*
G01X-1131130Y2028830D02*
G01X-1131720Y2028960D01*
G01X-1131720Y2028960D02*
G01X-1132310Y2029120D01*
G01X-1132310Y2029120D02*
G01X-1132880Y2029320D01*
G01X-1132880Y2029320D02*
G01X-1133430Y2029550D01*
G01X-1133430Y2029550D02*
G01X-1133980Y2029820D01*
G01X-1133980Y2029820D02*
G01X-1134500Y2030110D01*
G01X-1134500Y2030110D02*
G01X-1135010Y2030440D01*
G01X-1135010Y2030440D02*
G01X-1135500Y2030800D01*
G01X-1135500Y2030800D02*
G01X-1135960Y2031180D01*
G01X-1135960Y2031180D02*
G01X-1136400Y2031600D01*
G01X-1136400Y2031600D02*
G01X-1136820Y2032040D01*
G01X-1136820Y2032040D02*
G01X-1137200Y2032500D01*
G01X-1137200Y2032500D02*
G01X-1137560Y2032990D01*
G01X-1137560Y2032990D02*
G01X-1137890Y2033500D01*
G01X-1137890Y2033500D02*
G01X-1138180Y2034020D01*
G01X-1138180Y2034020D02*
G01X-1138450Y2034570D01*
G01X-1138450Y2034570D02*
G01X-1138680Y2035120D01*
G01X-1138680Y2035120D02*
G01X-1138880Y2035690D01*
G01X-1138880Y2035690D02*
G01X-1139040Y2036280D01*
G01X-1139040Y2036280D02*
G01X-1139170Y2036870D01*
G01X-1139170Y2036870D02*
G01X-1139260Y2037460D01*
G01X-1139260Y2037460D02*
G01X-1139310Y2038070D01*
G01X-1139310Y2038070D02*
G01X-1139330Y2038670D01*
G01X-1139330Y2038670D02*
G01X-1139330Y2091640D01*
G01X-1139330Y2131010D02*
G01X-1139330Y2183980D01*
G01X-1139330Y2223350D02*
G01X-1139330Y2276320D01*
G01X-1139330Y2315690D02*
G01X-1139330Y2368670D01*
G01X-1139330Y2368670D02*
G01X-1139310Y2369270D01*
G01X-1139310Y2369270D02*
G01X-1139260Y2369880D01*
G01X-1139260Y2369880D02*
G01X-1139170Y2370470D01*
G01X-1139170Y2370470D02*
G01X-1139040Y2371060D01*
G01X-1139040Y2371060D02*
G01X-1138880Y2371650D01*
G01X-1138880Y2371650D02*
G01X-1138680Y2372220D01*
G01X-1138680Y2372220D02*
G01X-1138450Y2372770D01*
G01X-1138450Y2372770D02*
G01X-1138180Y2373320D01*
G01X-1138180Y2373320D02*
G01X-1137890Y2373840D01*
G01X-1137890Y2373840D02*
G01X-1137560Y2374350D01*
G01X-1137560Y2374350D02*
G01X-1137200Y2374840D01*
G01X-1137200Y2374840D02*
G01X-1136820Y2375300D01*
G01X-1136820Y2375300D02*
G01X-1136400Y2375740D01*
G01X-1136400Y2375740D02*
G01X-1135960Y2376160D01*
G01X-1135960Y2376160D02*
G01X-1135500Y2376540D01*
G01X-1135500Y2376540D02*
G01X-1135010Y2376900D01*
G01X-1135010Y2376900D02*
G01X-1134500Y2377230D01*
G01X-1134500Y2377230D02*
G01X-1133980Y2377520D01*
G01X-1133980Y2377520D02*
G01X-1133430Y2377790D01*
G01X-1133430Y2377790D02*
G01X-1132880Y2378020D01*
G01X-1132880Y2378020D02*
G01X-1132310Y2378220D01*
G01X-1132310Y2378220D02*
G01X-1131720Y2378380D01*
G01X-1131720Y2378380D02*
G01X-1131130Y2378510D01*
G01X-1131130Y2378510D02*
G01X-1130540Y2378600D01*
G01X-1130540Y2378600D02*
G01X-1129930Y2378650D01*
G01X-1129930Y2378650D02*
G01X-1129330Y2378670D01*
G01X-1129330Y2378670D02*
G01X-1074830Y2378670D01*
G01X-1074830Y2403670D02*
G01X-1129330Y2403670D01*
G01X-1129330Y2403670D02*
G01X-1129930Y2403690D01*
G01X-1129930Y2403690D02*
G01X-1130540Y2403740D01*
G01X-1130540Y2403740D02*
G01X-1131130Y2403830D01*
G01X-1131130Y2403830D02*
G01X-1131720Y2403960D01*
G01X-1131720Y2403960D02*
G01X-1132310Y2404120D01*
G01X-1132310Y2404120D02*
G01X-1132880Y2404320D01*
G01X-1132880Y2404320D02*
G01X-1133430Y2404550D01*
G01X-1133430Y2404550D02*
G01X-1133980Y2404820D01*
G01X-1133980Y2404820D02*
G01X-1134500Y2405110D01*
G01X-1134500Y2405110D02*
G01X-1135010Y2405440D01*
G01X-1135010Y2405440D02*
G01X-1135500Y2405800D01*
G01X-1135500Y2405800D02*
G01X-1135960Y2406180D01*
G01X-1135960Y2406180D02*
G01X-1136400Y2406600D01*
G01X-1136400Y2406600D02*
G01X-1136820Y2407040D01*
G01X-1136820Y2407040D02*
G01X-1137200Y2407500D01*
G01X-1137200Y2407500D02*
G01X-1137560Y2407990D01*
G01X-1137560Y2407990D02*
G01X-1137890Y2408500D01*
G01X-1137890Y2408500D02*
G01X-1138180Y2409020D01*
G01X-1138180Y2409020D02*
G01X-1138450Y2409570D01*
G01X-1138450Y2409570D02*
G01X-1138680Y2410120D01*
G01X-1138680Y2410120D02*
G01X-1138880Y2410690D01*
G01X-1138880Y2410690D02*
G01X-1139040Y2411280D01*
G01X-1139040Y2411280D02*
G01X-1139170Y2411870D01*
G01X-1139170Y2411870D02*
G01X-1139260Y2412460D01*
G01X-1139260Y2412460D02*
G01X-1139310Y2413070D01*
G01X-1139310Y2413070D02*
G01X-1139330Y2413670D01*
G01X-1139330Y2413670D02*
G01X-1139330Y2466640D01*
G01X-1139330Y2506010D02*
G01X-1139330Y2558980D01*
G01X-1139330Y2598350D02*
G01X-1139330Y2651320D01*
G01X-1139330Y2690690D02*
G01X-1139330Y2743670D01*
G01X-1139330Y2743670D02*
G01X-1139310Y2744270D01*
G01X-1139310Y2744270D02*
G01X-1139260Y2744880D01*
G01X-1139260Y2744880D02*
G01X-1139170Y2745470D01*
G01X-1139170Y2745470D02*
G01X-1139040Y2746060D01*
G01X-1139040Y2746060D02*
G01X-1138880Y2746650D01*
G01X-1138880Y2746650D02*
G01X-1138680Y2747220D01*
G01X-1138680Y2747220D02*
G01X-1138450Y2747770D01*
G01X-1138450Y2747770D02*
G01X-1138180Y2748320D01*
G01X-1138180Y2748320D02*
G01X-1137890Y2748840D01*
G01X-1137890Y2748840D02*
G01X-1137560Y2749350D01*
G01X-1137560Y2749350D02*
G01X-1137200Y2749840D01*
G01X-1137200Y2749840D02*
G01X-1136820Y2750300D01*
G01X-1136820Y2750300D02*
G01X-1136400Y2750740D01*
G01X-1136400Y2750740D02*
G01X-1135960Y2751160D01*
G01X-1135960Y2751160D02*
G01X-1135500Y2751540D01*
G01X-1135500Y2751540D02*
G01X-1135010Y2751900D01*
G01X-1135010Y2751900D02*
G01X-1134500Y2752230D01*
G01X-1134500Y2752230D02*
G01X-1133980Y2752520D01*
G01X-1133980Y2752520D02*
G01X-1133430Y2752790D01*
G01X-1133430Y2752790D02*
G01X-1132880Y2753020D01*
G01X-1132880Y2753020D02*
G01X-1132310Y2753220D01*
G01X-1132310Y2753220D02*
G01X-1131720Y2753380D01*
G01X-1131720Y2753380D02*
G01X-1131130Y2753510D01*
G01X-1131130Y2753510D02*
G01X-1130540Y2753600D01*
G01X-1130540Y2753600D02*
G01X-1129930Y2753650D01*
G01X-1129930Y2753650D02*
G01X-1129330Y2753670D01*
G01X-1014330Y2942540D02*
G01X-1014330Y2994540D01*
G01X-989330Y2994540D02*
G01X-989330Y2942540D01*
G01X-989330Y3033910D02*
G01X-989330Y3085920D01*
G01X-1014330Y3085920D02*
G01X-1014330Y3033910D01*
G01X-1014330Y3125290D02*
G01X-1014330Y3177290D01*
G01X-989330Y3177290D02*
G01X-989330Y3125290D01*
G01X-980950Y2403670D02*
G01X-1035460Y2403670D01*
G01X-1035460Y2378670D02*
G01X-980950Y2378670D01*
G01X-941580Y2378670D02*
G01X-887080Y2378670D01*
G01X-887080Y2403670D02*
G01X-941580Y2403670D01*
G01X-847710Y2403670D02*
G01X-793200Y2403670D01*
G01X-793200Y2378670D02*
G01X-847710Y2378670D01*
G01X-847710Y2028670D02*
G01X-793200Y2028670D01*
G01X-793200Y2003670D02*
G01X-847710Y2003670D01*
G01X-887080Y2003670D02*
G01X-941580Y2003670D01*
G01X-941580Y2028670D02*
G01X-887080Y2028670D01*
G01X-980950Y2028670D02*
G01X-1035460Y2028670D01*
G01X-1035460Y2003670D02*
G01X-980950Y2003670D01*
G01X-980950Y1653670D02*
G01X-1035460Y1653670D01*
G01X-1035460Y1628670D02*
G01X-980950Y1628670D01*
G01X-941580Y1628670D02*
G01X-887080Y1628670D01*
G01X-887080Y1653670D02*
G01X-941580Y1653670D01*
G01X-847710Y1653670D02*
G01X-793200Y1653670D01*
G01X-793200Y1628670D02*
G01X-847710Y1628670D01*
G01X-1249330Y1623270D02*
G01X-1249330Y1603920D01*
G01X-1249330Y1603920D02*
G01X-1278360Y1603920D01*
G01X-1278360Y1603920D02*
G01X-1278360Y1623270D01*
G01X-1278360Y1635230D02*
G01X-1249330Y1635230D01*
G01X-1259010Y1635230D02*
G01X-1259010Y1649740D01*
G01X-1259010Y1649740D02*
G01X-1263840Y1654580D01*
G01X-1263840Y1654580D02*
G01X-1273520Y1654580D01*
G01X-1273520Y1654580D02*
G01X-1278360Y1649740D01*
G01X-1278360Y1649740D02*
G01X-1278360Y1635230D01*
G01X-1259010Y1644900D02*
G01X-1249330Y1654580D01*
G01X-1249330Y1666530D02*
G01X-1278360Y1666530D01*
G01X-1278360Y1666530D02*
G01X-1249330Y1685880D01*
G01X-1249330Y1685880D02*
G01X-1278360Y1685880D01*
G01X-1300330Y1685880D02*
G01X-1300330Y1666530D01*
G01X-1300330Y1666530D02*
G01X-1319680Y1685880D01*
G01X-1319680Y1685880D02*
G01X-1324520Y1685880D01*
G01X-1324520Y1685880D02*
G01X-1329360Y1681050D01*
G01X-1329360Y1681050D02*
G01X-1329360Y1671370D01*
G01X-1329360Y1671370D02*
G01X-1324520Y1666530D01*
G01X-1314840Y1654580D02*
G01X-1314840Y1635230D01*
G01X-1314840Y1623270D02*
G01X-1305170Y1623270D01*
G01X-1305170Y1623270D02*
G01X-1300330Y1618430D01*
G01X-1300330Y1618430D02*
G01X-1300330Y1608760D01*
G01X-1300330Y1608760D02*
G01X-1305170Y1603920D01*
G01X-1314840Y1603920D02*
G01X-1319680Y1613600D01*
G01X-1319680Y1613600D02*
G01X-1319680Y1618430D01*
G01X-1319680Y1618430D02*
G01X-1314840Y1623270D01*
G01X-1329360Y1623270D02*
G01X-1329360Y1603920D01*
G01X-1329360Y1603920D02*
G01X-1314840Y1603920D01*
G01X-1300330Y1591960D02*
G01X-1300330Y1572610D01*
G01X-1300330Y1582290D02*
G01X-1329360Y1582290D01*
G01X-1329360Y1582290D02*
G01X-1319680Y1572610D01*
G01X-1324520Y1560660D02*
G01X-1305170Y1541310D01*
G01X-1305170Y1541310D02*
G01X-1300330Y1546140D01*
G01X-1300330Y1546140D02*
G01X-1300330Y1555820D01*
G01X-1300330Y1555820D02*
G01X-1305170Y1560660D01*
G01X-1305170Y1560660D02*
G01X-1324520Y1560660D01*
G01X-1324520Y1560660D02*
G01X-1329360Y1555820D01*
G01X-1329360Y1555820D02*
G01X-1329360Y1546140D01*
G01X-1329360Y1546140D02*
G01X-1324520Y1541310D01*
G01X-1324520Y1541310D02*
G01X-1305170Y1541310D01*
G01X-1300330Y1529350D02*
G01X-1300330Y1510000D01*
G01X-1300330Y1510000D02*
G01X-1319680Y1529350D01*
G01X-1319680Y1529350D02*
G01X-1324520Y1529350D01*
G01X-1324520Y1529350D02*
G01X-1329360Y1524510D01*
G01X-1329360Y1524510D02*
G01X-1329360Y1514840D01*
G01X-1329360Y1514840D02*
G01X-1324520Y1510000D01*
G01X-1319680Y1467500D02*
G01X-1310010Y1467500D01*
G01X-1310010Y1467500D02*
G01X-1300330Y1457820D01*
G01X-1305170Y1445870D02*
G01X-1300330Y1441030D01*
G01X-1300330Y1441030D02*
G01X-1300330Y1431350D01*
G01X-1300330Y1431350D02*
G01X-1305170Y1426520D01*
G01X-1305170Y1426520D02*
G01X-1324520Y1426520D01*
G01X-1324520Y1426520D02*
G01X-1329360Y1431350D01*
G01X-1329360Y1431350D02*
G01X-1329360Y1441030D01*
G01X-1329360Y1441030D02*
G01X-1324520Y1445870D01*
G01X-1329360Y1457820D02*
G01X-1319680Y1467500D01*
G01X-1329360Y1415320D02*
G01X-1319680Y1405640D01*
G01X-1319680Y1405640D02*
G01X-1310010Y1405640D01*
G01X-1310010Y1405640D02*
G01X-1300330Y1415320D01*
G01X-1268680Y1421300D02*
G01X-1268680Y1435810D01*
G01X-1268680Y1435810D02*
G01X-1263840Y1440650D01*
G01X-1263840Y1440650D02*
G01X-1249330Y1440650D01*
G01X-1254170Y1452600D02*
G01X-1263840Y1452600D01*
G01X-1263840Y1452600D02*
G01X-1268680Y1457440D01*
G01X-1268680Y1457440D02*
G01X-1268680Y1471950D01*
G01X-1278360Y1471950D02*
G01X-1249330Y1471950D01*
G01X-1249330Y1471950D02*
G01X-1249330Y1457440D01*
G01X-1249330Y1457440D02*
G01X-1254170Y1452600D01*
G01X-1254170Y1483910D02*
G01X-1263840Y1483910D01*
G01X-1263840Y1483910D02*
G01X-1268680Y1488750D01*
G01X-1268680Y1488750D02*
G01X-1268680Y1498420D01*
G01X-1268680Y1498420D02*
G01X-1263840Y1503260D01*
G01X-1263840Y1503260D02*
G01X-1259010Y1503260D01*
G01X-1259010Y1503260D02*
G01X-1259010Y1483910D01*
G01X-1254170Y1483910D02*
G01X-1249330Y1488750D01*
G01X-1249330Y1488750D02*
G01X-1249330Y1498420D01*
G01X-1249330Y1515220D02*
G01X-1268680Y1515220D01*
G01X-1268680Y1524890D02*
G01X-1268680Y1529730D01*
G01X-1268680Y1524890D02*
G01X-1259010Y1515220D01*
G01X-1254170Y1572610D02*
G01X-1273520Y1572610D01*
G01X-1273520Y1572610D02*
G01X-1278360Y1577450D01*
G01X-1278360Y1577450D02*
G01X-1278360Y1587130D01*
G01X-1278360Y1587130D02*
G01X-1273520Y1591960D01*
G01X-1263840Y1603920D02*
G01X-1263840Y1613600D01*
G01X-1254170Y1591960D02*
G01X-1249330Y1587130D01*
G01X-1249330Y1587130D02*
G01X-1249330Y1577450D01*
G01X-1249330Y1577450D02*
G01X-1254170Y1572610D01*
G01X-1305170Y1697840D02*
G01X-1324520Y1717190D01*
G01X-1324520Y1717190D02*
G01X-1305170Y1717190D01*
G01X-1305170Y1717190D02*
G01X-1300330Y1712350D01*
G01X-1300330Y1712350D02*
G01X-1300330Y1702680D01*
G01X-1300330Y1702680D02*
G01X-1305170Y1697840D01*
G01X-1305170Y1697840D02*
G01X-1324520Y1697840D01*
G01X-1324520Y1697840D02*
G01X-1329360Y1702680D01*
G01X-1329360Y1702680D02*
G01X-1329360Y1712350D01*
G01X-1329360Y1712350D02*
G01X-1324520Y1717190D01*
G01X-1324520Y1729150D02*
G01X-1329360Y1733980D01*
G01X-1329360Y1733980D02*
G01X-1329360Y1743660D01*
G01X-1329360Y1743660D02*
G01X-1324520Y1748500D01*
G01X-1324520Y1748500D02*
G01X-1319680Y1748500D01*
G01X-1319680Y1748500D02*
G01X-1300330Y1729150D01*
G01X-1300330Y1729150D02*
G01X-1300330Y1748500D01*
G01X-1305170Y1760450D02*
G01X-1324520Y1779800D01*
G01X-1324520Y1779800D02*
G01X-1305170Y1779800D01*
G01X-1305170Y1779800D02*
G01X-1300330Y1774970D01*
G01X-1300330Y1774970D02*
G01X-1300330Y1765290D01*
G01X-1300330Y1765290D02*
G01X-1305170Y1760450D01*
G01X-1305170Y1760450D02*
G01X-1324520Y1760450D01*
G01X-1324520Y1760450D02*
G01X-1329360Y1765290D01*
G01X-1329360Y1765290D02*
G01X-1329360Y1774970D01*
G01X-1329360Y1774970D02*
G01X-1324520Y1779800D01*
G01X-1329360Y1823070D02*
G01X-1300330Y1823070D01*
G01X-1314840Y1823070D02*
G01X-1314840Y1842420D01*
G01X-1300330Y1842420D02*
G01X-1329360Y1842420D01*
G01X-1305170Y1854370D02*
G01X-1305170Y1859210D01*
G01X-1305170Y1859210D02*
G01X-1300330Y1859210D01*
G01X-1300330Y1859210D02*
G01X-1300330Y1854370D01*
G01X-1300330Y1854370D02*
G01X-1305170Y1854370D01*
G01X-1310010Y1870030D02*
G01X-1310010Y1884540D01*
G01X-1310010Y1884540D02*
G01X-1314840Y1889380D01*
G01X-1314840Y1889380D02*
G01X-1324520Y1889380D01*
G01X-1324520Y1889380D02*
G01X-1329360Y1884540D01*
G01X-1329360Y1884540D02*
G01X-1329360Y1870030D01*
G01X-1329360Y1870030D02*
G01X-1300330Y1870030D01*
G01X-1305170Y1901330D02*
G01X-1300330Y1906170D01*
G01X-1300330Y1906170D02*
G01X-1300330Y1915850D01*
G01X-1300330Y1915850D02*
G01X-1305170Y1920680D01*
G01X-1305170Y1920680D02*
G01X-1314840Y1920680D01*
G01X-1314840Y1920680D02*
G01X-1319680Y1915850D01*
G01X-1319680Y1915850D02*
G01X-1319680Y1906170D01*
G01X-1319680Y1906170D02*
G01X-1314840Y1901330D01*
G01X-1314840Y1901330D02*
G01X-1305170Y1901330D01*
G01X-1329360Y1906170D02*
G01X-1334190Y1906170D01*
G01X-1334190Y1915850D02*
G01X-1329360Y1915850D01*
G01X-1319680Y1932640D02*
G01X-1319680Y1942320D01*
G01X-1324520Y1937480D02*
G01X-1305170Y1937480D01*
G01X-1305170Y1937480D02*
G01X-1300330Y1942320D01*
G01X-1300330Y1953510D02*
G01X-1300330Y1972860D01*
G01X-1300330Y1984820D02*
G01X-1300330Y1994490D01*
G01X-1300330Y1989660D02*
G01X-1329360Y1989660D01*
G01X-1329360Y1989660D02*
G01X-1329360Y1984820D01*
G01X-1319680Y1972860D02*
G01X-1300330Y1953510D01*
G01X-1319680Y1953510D02*
G01X-1319680Y1972860D01*
G01X-1278360Y1947150D02*
G01X-1278360Y1937480D01*
G01X-1278360Y1937480D02*
G01X-1273520Y1932640D01*
G01X-1278360Y1947150D02*
G01X-1273520Y1951990D01*
G01X-1273520Y1951990D02*
G01X-1268680Y1951990D01*
G01X-1268680Y1951990D02*
G01X-1249330Y1932640D01*
G01X-1249330Y1932640D02*
G01X-1249330Y1951990D01*
G01X-1249330Y1921830D02*
G01X-1249330Y1916990D01*
G01X-1249330Y1916990D02*
G01X-1254170Y1916990D01*
G01X-1254170Y1916990D02*
G01X-1254170Y1921830D01*
G01X-1254170Y1921830D02*
G01X-1249330Y1921830D01*
G01X-1249330Y1905030D02*
G01X-1249330Y1885680D01*
G01X-1249330Y1895360D02*
G01X-1278360Y1895360D01*
G01X-1278360Y1895360D02*
G01X-1268680Y1885680D01*
G01X-1268680Y1873720D02*
G01X-1249330Y1864050D01*
G01X-1249330Y1864050D02*
G01X-1268680Y1854370D01*
G01X-1249330Y1811110D02*
G01X-1249330Y1791760D01*
G01X-1249330Y1791760D02*
G01X-1278360Y1791760D01*
G01X-1278360Y1779800D02*
G01X-1249330Y1779800D01*
G01X-1263840Y1779800D02*
G01X-1263840Y1760450D01*
G01X-1249330Y1760450D02*
G01X-1278360Y1760450D01*
G01X-1273520Y1748500D02*
G01X-1278360Y1743660D01*
G01X-1278360Y1743660D02*
G01X-1278360Y1733980D01*
G01X-1278360Y1733980D02*
G01X-1273520Y1729150D01*
G01X-1273520Y1729150D02*
G01X-1254170Y1729150D01*
G01X-1254170Y1729150D02*
G01X-1249330Y1733980D01*
G01X-1249330Y1733980D02*
G01X-1249330Y1743660D01*
G01X-1249330Y1743660D02*
G01X-1254170Y1748500D01*
G01X-1254170Y1748500D02*
G01X-1273520Y1748500D01*
G01X-1268680Y1421300D02*
G01X-1249330Y1421300D01*
G01X-1249330Y1409340D02*
G01X-1268680Y1409340D01*
G01X-1268680Y1389990D02*
G01X-1254170Y1389990D01*
G01X-1254170Y1389990D02*
G01X-1249330Y1394830D01*
G01X-1249330Y1394830D02*
G01X-1249330Y1409340D01*
G01X-1249330Y1346730D02*
G01X-1249330Y1332220D01*
G01X-1249330Y1332220D02*
G01X-1254170Y1327380D01*
G01X-1254170Y1327380D02*
G01X-1263840Y1327380D01*
G01X-1263840Y1327380D02*
G01X-1268680Y1332220D01*
G01X-1268680Y1332220D02*
G01X-1268680Y1346730D01*
G01X-1278360Y1346730D02*
G01X-1249330Y1346730D01*
G01X-1259010Y1315420D02*
G01X-1259010Y1296070D01*
G01X-1263840Y1296070D02*
G01X-1268680Y1300910D01*
G01X-1268680Y1300910D02*
G01X-1268680Y1310580D01*
G01X-1268680Y1310580D02*
G01X-1263840Y1315420D01*
G01X-1263840Y1315420D02*
G01X-1259010Y1315420D01*
G01X-1249330Y1310580D02*
G01X-1249330Y1300910D01*
G01X-1249330Y1300910D02*
G01X-1254170Y1296070D01*
G01X-1254170Y1296070D02*
G01X-1263840Y1296070D01*
G01X-1268680Y1284110D02*
G01X-1268680Y1269600D01*
G01X-1268680Y1269600D02*
G01X-1263840Y1264760D01*
G01X-1263840Y1264760D02*
G01X-1259010Y1269600D01*
G01X-1259010Y1269600D02*
G01X-1259010Y1279280D01*
G01X-1259010Y1279280D02*
G01X-1254170Y1284110D01*
G01X-1254170Y1284110D02*
G01X-1249330Y1279280D01*
G01X-1249330Y1279280D02*
G01X-1249330Y1264760D01*
G01X-1249330Y1252810D02*
G01X-1263840Y1252810D01*
G01X-1263840Y1252810D02*
G01X-1268680Y1247970D01*
G01X-1268680Y1247970D02*
G01X-1268680Y1233460D01*
G01X-1268680Y1233460D02*
G01X-1249330Y1233460D01*
G01X-1259010Y1221500D02*
G01X-1259010Y1202150D01*
G01X-1263840Y1202150D02*
G01X-1268680Y1206990D01*
G01X-1268680Y1206990D02*
G01X-1268680Y1216660D01*
G01X-1268680Y1216660D02*
G01X-1263840Y1221500D01*
G01X-1263840Y1221500D02*
G01X-1259010Y1221500D01*
G01X-1249330Y1216660D02*
G01X-1249330Y1206990D01*
G01X-1249330Y1206990D02*
G01X-1254170Y1202150D01*
G01X-1254170Y1202150D02*
G01X-1263840Y1202150D01*
G01X-1268680Y1190190D02*
G01X-1268680Y1175680D01*
G01X-1268680Y1175680D02*
G01X-1263840Y1170840D01*
G01X-1263840Y1170840D02*
G01X-1254170Y1170840D01*
G01X-1254170Y1170840D02*
G01X-1249330Y1175680D01*
G01X-1249330Y1175680D02*
G01X-1249330Y1190190D01*
G01X-1249330Y1159650D02*
G01X-1249330Y1149970D01*
G01X-1249330Y1154810D02*
G01X-1268680Y1154810D01*
G01X-1268680Y1154810D02*
G01X-1268680Y1149970D01*
G01X-1278360Y1154810D02*
G01X-1283190Y1154810D01*
G01X-1300330Y1154810D02*
G01X-1305170Y1149970D01*
G01X-1305170Y1149970D02*
G01X-1314840Y1149970D01*
G01X-1314840Y1149970D02*
G01X-1319680Y1154810D01*
G01X-1319680Y1154810D02*
G01X-1319680Y1164490D01*
G01X-1319680Y1164490D02*
G01X-1314840Y1169320D01*
G01X-1314840Y1169320D02*
G01X-1305170Y1169320D01*
G01X-1305170Y1169320D02*
G01X-1300330Y1164490D01*
G01X-1300330Y1164490D02*
G01X-1300330Y1154810D01*
G01X-1305170Y1138020D02*
G01X-1300330Y1133180D01*
G01X-1300330Y1133180D02*
G01X-1300330Y1123500D01*
G01X-1300330Y1123500D02*
G01X-1305170Y1118670D01*
G01X-1305170Y1118670D02*
G01X-1324520Y1118670D01*
G01X-1324520Y1118670D02*
G01X-1329360Y1123500D01*
G01X-1329360Y1123500D02*
G01X-1329360Y1133180D01*
G01X-1329360Y1133180D02*
G01X-1324520Y1138020D01*
G01X-1319680Y1181280D02*
G01X-1290660Y1181280D01*
G01X-1300330Y1181280D02*
G01X-1300330Y1195790D01*
G01X-1300330Y1195790D02*
G01X-1305170Y1200630D01*
G01X-1305170Y1200630D02*
G01X-1314840Y1200630D01*
G01X-1314840Y1200630D02*
G01X-1319680Y1195790D01*
G01X-1319680Y1195790D02*
G01X-1319680Y1181280D01*
G01X-1319680Y1212590D02*
G01X-1305170Y1212590D01*
G01X-1305170Y1212590D02*
G01X-1300330Y1217420D01*
G01X-1300330Y1217420D02*
G01X-1300330Y1231940D01*
G01X-1295490Y1231940D02*
G01X-1290660Y1227100D01*
G01X-1290660Y1227100D02*
G01X-1290660Y1222260D01*
G01X-1295490Y1231940D02*
G01X-1319680Y1231940D01*
G01X-1319680Y1243890D02*
G01X-1300330Y1243890D01*
G01X-1310010Y1243890D02*
G01X-1319680Y1253570D01*
G01X-1319680Y1253570D02*
G01X-1319680Y1258410D01*
G01X-1319680Y1269980D02*
G01X-1319680Y1274820D01*
G01X-1319680Y1274820D02*
G01X-1300330Y1274820D01*
G01X-1300330Y1269980D02*
G01X-1300330Y1279660D01*
G01X-1305170Y1290850D02*
G01X-1300330Y1295690D01*
G01X-1300330Y1295690D02*
G01X-1300330Y1310200D01*
G01X-1295490Y1310200D02*
G01X-1319680Y1310200D01*
G01X-1319680Y1310200D02*
G01X-1319680Y1295690D01*
G01X-1319680Y1295690D02*
G01X-1314840Y1290850D01*
G01X-1314840Y1290850D02*
G01X-1305170Y1290850D01*
G01X-1290660Y1300530D02*
G01X-1290660Y1305370D01*
G01X-1290660Y1305370D02*
G01X-1295490Y1310200D01*
G01X-1300330Y1322160D02*
G01X-1329360Y1322160D01*
G01X-1319680Y1327000D02*
G01X-1319680Y1336670D01*
G01X-1319680Y1336670D02*
G01X-1314840Y1341510D01*
G01X-1314840Y1341510D02*
G01X-1300330Y1341510D01*
G01X-1305170Y1358300D02*
G01X-1324520Y1358300D01*
G01X-1319680Y1353470D02*
G01X-1319680Y1363140D01*
G01X-1305170Y1358300D02*
G01X-1300330Y1363140D01*
G01X-1319680Y1327000D02*
G01X-1314840Y1322160D01*
G01X-1329360Y1274820D02*
G01X-1334190Y1274820D01*
G01X-1249330Y1138020D02*
G01X-1249330Y1118670D01*
G01X-1249330Y1118670D02*
G01X-1278360Y1118670D01*
G01X-839330Y4248670D02*
G01X-814330Y4273670D01*
G54D11*
G01X-764330Y4248670D02*
G01X-739330Y4273670D01*
G01X-1328330Y3370190D02*
G01X-1328330Y3349180D01*
G01X-1328330Y3349180D02*
G01X-1335340Y3342170D01*
G01X-1335340Y3342170D02*
G01X-1349350Y3342170D01*
G01X-1349350Y3342170D02*
G01X-1356350Y3349180D01*
G01X-1356350Y3349180D02*
G01X-1356350Y3370190D01*
G01X-1370370Y3370190D02*
G01X-1328330Y3370190D01*
G01X-1356350Y3324820D02*
G01X-1356350Y3317820D01*
G01X-1356350Y3317820D02*
G01X-1342340Y3303800D01*
G01X-1328330Y3303800D02*
G01X-1356350Y3303800D01*
G01X-1349350Y3285790D02*
G01X-1328330Y3285790D01*
G01X-1328330Y3285790D02*
G01X-1328330Y3264770D01*
G01X-1328330Y3264770D02*
G01X-1335340Y3257760D01*
G01X-1335340Y3257760D02*
G01X-1342340Y3264770D01*
G01X-1342340Y3264770D02*
G01X-1342340Y3285790D01*
G01X-1349350Y3285790D02*
G01X-1356350Y3278780D01*
G01X-1356350Y3278780D02*
G01X-1356350Y3264770D01*
G01X-1349350Y3239750D02*
G01X-1335340Y3239750D01*
G01X-1335340Y3239750D02*
G01X-1328330Y3232740D01*
G01X-1328330Y3232740D02*
G01X-1328330Y3218730D01*
G01X-1328330Y3218730D02*
G01X-1335340Y3211720D01*
G01X-1335340Y3211720D02*
G01X-1349350Y3211720D01*
G01X-1349350Y3211720D02*
G01X-1356350Y3218730D01*
G01X-1356350Y3218730D02*
G01X-1356350Y3232740D01*
G01X-1356350Y3232740D02*
G01X-1349350Y3239750D01*
G01X-1356350Y3193710D02*
G01X-1349350Y3186700D01*
G01X-1349350Y3186700D02*
G01X-1349350Y3165690D01*
G01X-1349350Y3186700D02*
G01X-1342340Y3193710D01*
G01X-1342340Y3193710D02*
G01X-1335340Y3193710D01*
G01X-1335340Y3193710D02*
G01X-1328330Y3186700D01*
G01X-1328330Y3186700D02*
G01X-1328330Y3165690D01*
G01X-1328330Y3165690D02*
G01X-1370370Y3165690D01*
G01X-1370370Y3165690D02*
G01X-1370370Y3186700D01*
G01X-1370370Y3186700D02*
G01X-1363360Y3193710D01*
G01X-1363360Y3193710D02*
G01X-1356350Y3193710D01*
G01X-1403330Y3188710D02*
G01X-1403330Y3209720D01*
G01X-1403330Y3209720D02*
G01X-1410340Y3216730D01*
G01X-1410340Y3216730D02*
G01X-1417340Y3216730D01*
G01X-1417340Y3216730D02*
G01X-1424350Y3209720D01*
G01X-1424350Y3209720D02*
G01X-1424350Y3188710D01*
G01X-1424350Y3209720D02*
G01X-1431350Y3216730D01*
G01X-1431350Y3216730D02*
G01X-1438360Y3216730D01*
G01X-1438360Y3216730D02*
G01X-1445370Y3209720D01*
G01X-1445370Y3209720D02*
G01X-1445370Y3188710D01*
G01X-1445370Y3188710D02*
G01X-1403330Y3188710D01*
G01X-1410340Y3234740D02*
G01X-1424350Y3234740D01*
G01X-1424350Y3234740D02*
G01X-1431350Y3241750D01*
G01X-1431350Y3241750D02*
G01X-1431350Y3255760D01*
G01X-1431350Y3255760D02*
G01X-1424350Y3262770D01*
G01X-1424350Y3262770D02*
G01X-1417340Y3262770D01*
G01X-1417340Y3262770D02*
G01X-1417340Y3234740D01*
G01X-1410340Y3234740D02*
G01X-1403330Y3241750D01*
G01X-1403330Y3241750D02*
G01X-1403330Y3255760D01*
G01X-1410340Y3287790D02*
G01X-1438360Y3287790D01*
G01X-1431350Y3280780D02*
G01X-1431350Y3294800D01*
G01X-1410340Y3287790D02*
G01X-1403330Y3294800D01*
G01X-1410340Y3311480D02*
G01X-1417340Y3318480D01*
G01X-1417340Y3318480D02*
G01X-1417340Y3339500D01*
G01X-1424350Y3339500D02*
G01X-1403330Y3339500D01*
G01X-1403330Y3339500D02*
G01X-1403330Y3318480D01*
G01X-1403330Y3318480D02*
G01X-1410340Y3311480D01*
G01X-1431350Y3318480D02*
G01X-1431350Y3332490D01*
G01X-1431350Y3332490D02*
G01X-1424350Y3339500D01*
G01X-1445370Y3124650D02*
G01X-1403330Y3124650D01*
G01X-1403330Y3096630D02*
G01X-1445370Y3096630D01*
G01X-1445370Y3096630D02*
G01X-1431350Y3110640D01*
G01X-1431350Y3110640D02*
G01X-1445370Y3124650D01*
G01X-1438360Y3078610D02*
G01X-1445370Y3071610D01*
G01X-1445370Y3071610D02*
G01X-1445370Y3057590D01*
G01X-1445370Y3057590D02*
G01X-1438360Y3050590D01*
G01X-1438360Y3050590D02*
G01X-1410340Y3050590D01*
G01X-1410340Y3050590D02*
G01X-1403330Y3057590D01*
G01X-1403330Y3057590D02*
G01X-1403330Y3071610D01*
G01X-1403330Y3071610D02*
G01X-1410340Y3078610D01*
G01X-1410340Y3078610D02*
G01X-1438360Y3078610D01*
G01X-1445370Y3033910D02*
G01X-1445370Y3019890D01*
G01X-1445370Y3026900D02*
G01X-1403330Y3026900D01*
G01X-1403330Y3019890D02*
G01X-1403330Y3033910D01*
G01X-1403330Y3001880D02*
G01X-1445370Y2973860D01*
G01X-1431350Y2955840D02*
G01X-1445370Y2941830D01*
G01X-1445370Y2941830D02*
G01X-1431350Y2927820D01*
G01X-1431350Y2927820D02*
G01X-1403330Y2927820D01*
G01X-1424350Y2927820D02*
G01X-1424350Y2955840D01*
G01X-1431350Y2955840D02*
G01X-1403330Y2955840D01*
G01X-1403330Y2973860D02*
G01X-1445370Y3001880D01*
G01X-1363360Y2925150D02*
G01X-1370370Y2918140D01*
G01X-1370370Y2918140D02*
G01X-1370370Y2897120D01*
G01X-1370370Y2897120D02*
G01X-1328330Y2897120D01*
G01X-1342340Y2897120D02*
G01X-1342340Y2918140D01*
G01X-1342340Y2918140D02*
G01X-1349350Y2925150D01*
G01X-1349350Y2925150D02*
G01X-1363360Y2925150D01*
G01X-1349350Y2943160D02*
G01X-1335340Y2943160D01*
G01X-1335340Y2943160D02*
G01X-1328330Y2950170D01*
G01X-1328330Y2950170D02*
G01X-1328330Y2964180D01*
G01X-1328330Y2964180D02*
G01X-1335340Y2971190D01*
G01X-1335340Y2971190D02*
G01X-1349350Y2971190D01*
G01X-1349350Y2971190D02*
G01X-1356350Y2964180D01*
G01X-1356350Y2964180D02*
G01X-1356350Y2950170D01*
G01X-1356350Y2950170D02*
G01X-1349350Y2943160D01*
G01X-1356350Y2989200D02*
G01X-1335340Y2989200D01*
G01X-1335340Y2989200D02*
G01X-1328330Y2996210D01*
G01X-1328330Y2996210D02*
G01X-1335340Y3003210D01*
G01X-1335340Y3003210D02*
G01X-1328330Y3010220D01*
G01X-1328330Y3010220D02*
G01X-1335340Y3017230D01*
G01X-1335340Y3017230D02*
G01X-1356350Y3017230D01*
G01X-1349350Y3035240D02*
G01X-1335340Y3035240D01*
G01X-1335340Y3035240D02*
G01X-1328330Y3042250D01*
G01X-1328330Y3042250D02*
G01X-1328330Y3056260D01*
G01X-1342340Y3063270D02*
G01X-1342340Y3035240D01*
G01X-1349350Y3035240D02*
G01X-1356350Y3042250D01*
G01X-1356350Y3042250D02*
G01X-1356350Y3056260D01*
G01X-1356350Y3056260D02*
G01X-1349350Y3063270D01*
G01X-1349350Y3063270D02*
G01X-1342340Y3063270D01*
G01X-1342340Y3081280D02*
G01X-1356350Y3095290D01*
G01X-1356350Y3095290D02*
G01X-1356350Y3102300D01*
G01X-1356350Y3081280D02*
G01X-1328330Y3081280D01*
G01X-614920Y2820790D02*
G01X-614920Y2812920D01*
G01X-614920Y2505830D02*
G01X-614920Y2497960D01*
G01X-614920Y2190870D02*
G01X-614920Y2183000D01*
G01X-614920Y1875910D02*
G01X-614920Y1868040D01*
G01X-315710Y1868040D02*
G01X-315710Y1875910D01*
G01X-315710Y2183000D02*
G01X-315710Y2190870D01*
G01X-315710Y2497960D02*
G01X-315710Y2505830D01*
G01X-315710Y2812920D02*
G01X-315710Y2820790D01*
G01X-2063740Y2820790D02*
G01X-2063740Y2812920D01*
G01X-2063740Y2505830D02*
G01X-2063740Y2497960D01*
G01X-2063740Y2190870D02*
G01X-2063740Y2183000D01*
G01X-2063740Y1875910D02*
G01X-2063740Y1868040D01*
G01X-2362950Y1868040D02*
G01X-2362950Y1875910D01*
G01X-2362950Y2183000D02*
G01X-2362950Y2190870D01*
G01X-2362950Y2497960D02*
G01X-2362950Y2505830D01*
G01X-2362950Y2812920D02*
G01X-2362950Y2820790D01*
G54D12*
G01X-664330Y4248670D02*
G01X-639330Y4273670D01*
G54D13*
G01X-664330Y4273670D02*
G01X-689330Y4248670D01*
G54D14*
G01X-714330Y4248670D02*
G01X-689330Y4273670D01*
G54D15*
G01X-714330Y4273670D02*
G01X-739330Y4248670D01*
G54D16*
G01X-764330Y4273670D02*
G01X-789330Y4248670D01*
G01X-298370Y3231900D02*
G01X-298370Y3203210D01*
G01X-298370Y3217550D02*
G01X-255330Y3217550D01*
G01X-255330Y3185860D02*
G01X-255330Y3157170D01*
G01X-255330Y3157170D02*
G01X-284020Y3185860D01*
G01X-284020Y3185860D02*
G01X-291190Y3185860D01*
G01X-291190Y3185860D02*
G01X-298370Y3178680D01*
G01X-298370Y3178680D02*
G01X-298370Y3164340D01*
G01X-298370Y3164340D02*
G01X-291190Y3157170D01*
G01X-298370Y3139820D02*
G01X-255330Y3111130D01*
G01X-262500Y3086610D02*
G01X-298370Y3086610D01*
G01X-298370Y3093780D02*
G01X-298370Y3079430D01*
G01X-298370Y3111130D02*
G01X-255330Y3139820D01*
G01X-262500Y3086610D02*
G01X-255330Y3079430D01*
G01X-255330Y3079430D02*
G01X-255330Y3072260D01*
G01X-255330Y3072260D02*
G01X-262500Y3065090D01*
G01X-2380330Y3072260D02*
G01X-2380330Y3079430D01*
G01X-2380330Y3079430D02*
G01X-2387500Y3086610D01*
G01X-2387500Y3086610D02*
G01X-2423370Y3086610D01*
G01X-2423370Y3093780D02*
G01X-2423370Y3079430D01*
G01X-2423370Y3111130D02*
G01X-2380330Y3139820D01*
G01X-2380330Y3157170D02*
G01X-2380330Y3185860D01*
G01X-2380330Y3171510D02*
G01X-2423370Y3171510D01*
G01X-2423370Y3171510D02*
G01X-2409020Y3157170D01*
G01X-2423370Y3139820D02*
G01X-2380330Y3111130D01*
G01X-2380330Y3072260D02*
G01X-2387500Y3065090D01*
G01X-2423370Y3203210D02*
G01X-2423370Y3231900D01*
G01X-2423370Y3217550D02*
G01X-2380330Y3217550D01*
G54D17*
G01X-814330Y4248670D02*
G01X-789330Y4273670D01*
G01X-374330Y3853670D02*
G01X-254330Y3853670D01*
G01X-254330Y3853670D02*
G01X-253570Y3853650D01*
G01X-253570Y3853650D02*
G01X-252810Y3853590D01*
G01X-252810Y3853590D02*
G01X-252060Y3853500D01*
G01X-252060Y3853500D02*
G01X-251310Y3853360D01*
G01X-251310Y3853360D02*
G01X-250570Y3853190D01*
G01X-250570Y3853190D02*
G01X-249840Y3852980D01*
G01X-249840Y3852980D02*
G01X-249120Y3852740D01*
G01X-249120Y3852740D02*
G01X-248410Y3852450D01*
G01X-248410Y3852450D02*
G01X-247720Y3852140D01*
G01X-247720Y3852140D02*
G01X-247050Y3851790D01*
G01X-247050Y3851790D02*
G01X-246400Y3851400D01*
G01X-246400Y3851400D02*
G01X-245760Y3850980D01*
G01X-245760Y3850980D02*
G01X-245150Y3850530D01*
G01X-245150Y3850530D02*
G01X-244560Y3850050D01*
G01X-244560Y3850050D02*
G01X-244000Y3849540D01*
G01X-244000Y3849540D02*
G01X-243460Y3849000D01*
G01X-243460Y3849000D02*
G01X-242950Y3848440D01*
G01X-242950Y3848440D02*
G01X-242470Y3847850D01*
G01X-242470Y3847850D02*
G01X-242020Y3847240D01*
G01X-242020Y3847240D02*
G01X-241600Y3846600D01*
G01X-241600Y3846600D02*
G01X-241210Y3845950D01*
G01X-241210Y3845950D02*
G01X-240860Y3845280D01*
G01X-240860Y3845280D02*
G01X-240550Y3844590D01*
G01X-240550Y3844590D02*
G01X-240260Y3843880D01*
G01X-240260Y3843880D02*
G01X-240020Y3843160D01*
G01X-240020Y3843160D02*
G01X-239810Y3842430D01*
G01X-239810Y3842430D02*
G01X-239640Y3841690D01*
G01X-239640Y3841690D02*
G01X-239500Y3840940D01*
G01X-239500Y3840940D02*
G01X-239410Y3840190D01*
G01X-239410Y3840190D02*
G01X-239350Y3839430D01*
G01X-239350Y3839430D02*
G01X-239330Y3838670D01*
G01X-239330Y3838670D02*
G01X-239330Y3668670D01*
G01X-239330Y3668670D02*
G01X-239350Y3667910D01*
G01X-239350Y3667910D02*
G01X-239410Y3667150D01*
G01X-239410Y3667150D02*
G01X-239500Y3666400D01*
G01X-239500Y3666400D02*
G01X-239640Y3665650D01*
G01X-239640Y3665650D02*
G01X-239810Y3664910D01*
G01X-239810Y3664910D02*
G01X-240020Y3664180D01*
G01X-240020Y3664180D02*
G01X-240260Y3663460D01*
G01X-240260Y3663460D02*
G01X-240550Y3662750D01*
G01X-240550Y3662750D02*
G01X-240860Y3662060D01*
G01X-240860Y3662060D02*
G01X-241210Y3661390D01*
G01X-241210Y3661390D02*
G01X-241600Y3660740D01*
G01X-241600Y3660740D02*
G01X-242020Y3660100D01*
G01X-242020Y3660100D02*
G01X-242470Y3659490D01*
G01X-242470Y3659490D02*
G01X-242950Y3658900D01*
G01X-242950Y3658900D02*
G01X-243460Y3658340D01*
G01X-243460Y3658340D02*
G01X-244000Y3657800D01*
G01X-244000Y3657800D02*
G01X-244560Y3657290D01*
G01X-244560Y3657290D02*
G01X-245150Y3656810D01*
G01X-245150Y3656810D02*
G01X-245760Y3656360D01*
G01X-245760Y3656360D02*
G01X-246400Y3655940D01*
G01X-246400Y3655940D02*
G01X-247050Y3655550D01*
G01X-247050Y3655550D02*
G01X-247720Y3655200D01*
G01X-247720Y3655200D02*
G01X-248410Y3654890D01*
G01X-248410Y3654890D02*
G01X-249120Y3654600D01*
G01X-249120Y3654600D02*
G01X-249840Y3654360D01*
G01X-249840Y3654360D02*
G01X-250570Y3654150D01*
G01X-250570Y3654150D02*
G01X-251310Y3653980D01*
G01X-251310Y3653980D02*
G01X-252060Y3653840D01*
G01X-252060Y3653840D02*
G01X-252810Y3653750D01*
G01X-252810Y3653750D02*
G01X-253570Y3653690D01*
G01X-253570Y3653690D02*
G01X-254330Y3653670D01*
G01X-254330Y3653670D02*
G01X-374330Y3653670D01*
G01X-374330Y3653670D02*
G01X-375090Y3653690D01*
G01X-375090Y3653690D02*
G01X-375850Y3653750D01*
G01X-375850Y3653750D02*
G01X-376600Y3653840D01*
G01X-376600Y3653840D02*
G01X-377350Y3653980D01*
G01X-377350Y3653980D02*
G01X-378090Y3654150D01*
G01X-378090Y3654150D02*
G01X-378820Y3654360D01*
G01X-378820Y3654360D02*
G01X-379540Y3654600D01*
G01X-379540Y3654600D02*
G01X-380250Y3654890D01*
G01X-380250Y3654890D02*
G01X-380940Y3655200D01*
G01X-380940Y3655200D02*
G01X-381610Y3655550D01*
G01X-381610Y3655550D02*
G01X-382260Y3655940D01*
G01X-382260Y3655940D02*
G01X-382900Y3656360D01*
G01X-382900Y3656360D02*
G01X-383510Y3656810D01*
G01X-383510Y3656810D02*
G01X-384100Y3657290D01*
G01X-384100Y3657290D02*
G01X-384660Y3657800D01*
G01X-384660Y3657800D02*
G01X-385200Y3658340D01*
G01X-385200Y3658340D02*
G01X-385710Y3658900D01*
G01X-385710Y3658900D02*
G01X-386190Y3659490D01*
G01X-386190Y3659490D02*
G01X-386640Y3660100D01*
G01X-386640Y3660100D02*
G01X-387060Y3660740D01*
G01X-387060Y3660740D02*
G01X-387450Y3661390D01*
G01X-387450Y3661390D02*
G01X-387800Y3662060D01*
G01X-387800Y3662060D02*
G01X-388110Y3662750D01*
G01X-388110Y3662750D02*
G01X-388400Y3663460D01*
G01X-388400Y3663460D02*
G01X-388640Y3664180D01*
G01X-388640Y3664180D02*
G01X-388850Y3664910D01*
G01X-388850Y3664910D02*
G01X-389020Y3665650D01*
G01X-389020Y3665650D02*
G01X-389160Y3666400D01*
G01X-389160Y3666400D02*
G01X-389250Y3667150D01*
G01X-389250Y3667150D02*
G01X-389310Y3667910D01*
G01X-389310Y3667910D02*
G01X-389330Y3668670D01*
G01X-389330Y3668670D02*
G01X-389330Y3838670D01*
G01X-389330Y3838670D02*
G01X-389310Y3839430D01*
G01X-389310Y3839430D02*
G01X-389250Y3840190D01*
G01X-389250Y3840190D02*
G01X-389160Y3840940D01*
G01X-389160Y3840940D02*
G01X-389020Y3841690D01*
G01X-389020Y3841690D02*
G01X-388850Y3842430D01*
G01X-388850Y3842430D02*
G01X-388640Y3843160D01*
G01X-388640Y3843160D02*
G01X-388400Y3843880D01*
G01X-388400Y3843880D02*
G01X-388110Y3844590D01*
G01X-388110Y3844590D02*
G01X-387800Y3845280D01*
G01X-387800Y3845280D02*
G01X-387450Y3845950D01*
G01X-387450Y3845950D02*
G01X-387060Y3846600D01*
G01X-387060Y3846600D02*
G01X-386640Y3847240D01*
G01X-386640Y3847240D02*
G01X-386190Y3847850D01*
G01X-386190Y3847850D02*
G01X-385710Y3848440D01*
G01X-385710Y3848440D02*
G01X-385200Y3849000D01*
G01X-385200Y3849000D02*
G01X-384660Y3849540D01*
G01X-384660Y3849540D02*
G01X-384100Y3850050D01*
G01X-384100Y3850050D02*
G01X-383510Y3850530D01*
G01X-383510Y3850530D02*
G01X-382900Y3850980D01*
G01X-382900Y3850980D02*
G01X-382260Y3851400D01*
G01X-382260Y3851400D02*
G01X-381610Y3851790D01*
G01X-381610Y3851790D02*
G01X-380940Y3852140D01*
G01X-380940Y3852140D02*
G01X-380250Y3852450D01*
G01X-380250Y3852450D02*
G01X-379540Y3852740D01*
G01X-379540Y3852740D02*
G01X-378820Y3852980D01*
G01X-378820Y3852980D02*
G01X-378090Y3853190D01*
G01X-378090Y3853190D02*
G01X-377350Y3853360D01*
G01X-377350Y3853360D02*
G01X-376600Y3853500D01*
G01X-376600Y3853500D02*
G01X-375850Y3853590D01*
G01X-375850Y3853590D02*
G01X-375090Y3853650D01*
G01X-375090Y3853650D02*
G01X-374330Y3853670D01*
G01X-355690Y3828890D02*
G01X-350020Y3828890D01*
G01X-350020Y3828890D02*
G01X-344350Y3823220D01*
G01X-344350Y3823220D02*
G01X-344350Y3811880D01*
G01X-344350Y3811880D02*
G01X-350020Y3806210D01*
G01X-350020Y3806210D02*
G01X-355690Y3806210D01*
G01X-355690Y3806210D02*
G01X-361360Y3811880D01*
G01X-361360Y3811880D02*
G01X-361360Y3823220D01*
G01X-361360Y3823220D02*
G01X-355690Y3828890D01*
G01X-344350Y3823220D02*
G01X-338670Y3828890D01*
G01X-338670Y3828890D02*
G01X-333000Y3828890D01*
G01X-333000Y3828890D02*
G01X-327330Y3823220D01*
G01X-327330Y3823220D02*
G01X-327330Y3811880D01*
G01X-327330Y3811880D02*
G01X-333000Y3806210D01*
G01X-333000Y3806210D02*
G01X-338670Y3806210D01*
G01X-338670Y3806210D02*
G01X-344350Y3811880D01*
G01X-350020Y3792060D02*
G01X-344350Y3786390D01*
G01X-344350Y3786390D02*
G01X-338670Y3792060D01*
G01X-338670Y3792060D02*
G01X-333000Y3792060D01*
G01X-333000Y3792060D02*
G01X-327330Y3786390D01*
G01X-327330Y3786390D02*
G01X-327330Y3775050D01*
G01X-327330Y3775050D02*
G01X-333000Y3769370D01*
G01X-333000Y3756630D02*
G01X-327330Y3756630D01*
G01X-327330Y3756630D02*
G01X-327330Y3750960D01*
G01X-327330Y3750960D02*
G01X-333000Y3750960D01*
G01X-333000Y3750960D02*
G01X-333000Y3756630D01*
G01X-333000Y3736810D02*
G01X-327330Y3731140D01*
G01X-327330Y3731140D02*
G01X-327330Y3719800D01*
G01X-327330Y3719800D02*
G01X-333000Y3714130D01*
G01X-333000Y3714130D02*
G01X-355690Y3736810D01*
G01X-355690Y3736810D02*
G01X-333000Y3736810D01*
G01X-333000Y3714130D02*
G01X-355690Y3714130D01*
G01X-355690Y3714130D02*
G01X-361360Y3719800D01*
G01X-361360Y3719800D02*
G01X-361360Y3731140D01*
G01X-361360Y3731140D02*
G01X-355690Y3736810D01*
G01X-355690Y3769370D02*
G01X-361360Y3775050D01*
G01X-361360Y3775050D02*
G01X-361360Y3786390D01*
G01X-361360Y3786390D02*
G01X-355690Y3792060D01*
G01X-355690Y3792060D02*
G01X-350020Y3792060D01*
G01X-344350Y3786390D02*
G01X-344350Y3780720D01*
G01X-301360Y3793460D02*
G01X-295690Y3787790D01*
G01X-301360Y3793460D02*
G01X-301360Y3804800D01*
G01X-301360Y3804800D02*
G01X-295690Y3810480D01*
G01X-295690Y3810480D02*
G01X-290020Y3810480D01*
G01X-290020Y3810480D02*
G01X-267330Y3787790D01*
G01X-267330Y3787790D02*
G01X-267330Y3810480D01*
G01X-267330Y3775050D02*
G01X-267330Y3769370D01*
G01X-267330Y3769370D02*
G01X-273000Y3769370D01*
G01X-273000Y3769370D02*
G01X-273000Y3775050D01*
G01X-273000Y3775050D02*
G01X-267330Y3775050D01*
G01X-267330Y3755230D02*
G01X-267330Y3732540D01*
G01X-267330Y3743890D02*
G01X-301360Y3743890D01*
G01X-301360Y3743890D02*
G01X-290020Y3732540D01*
G01X-295690Y3718400D02*
G01X-301360Y3712730D01*
G01X-301360Y3712730D02*
G01X-301360Y3695710D01*
G01X-301360Y3695710D02*
G01X-267330Y3695710D01*
G01X-278670Y3695710D02*
G01X-278670Y3712730D01*
G01X-278670Y3712730D02*
G01X-284350Y3718400D01*
G01X-284350Y3718400D02*
G01X-295690Y3718400D01*
G01X-278670Y3707050D02*
G01X-267330Y3718400D01*
G01X-327330Y3688640D02*
G01X-338670Y3677300D01*
G01X-338670Y3677300D02*
G01X-361360Y3677300D01*
G01X-361360Y3699980D02*
G01X-338670Y3699980D01*
G01X-338670Y3699980D02*
G01X-327330Y3688640D01*
G54D18*
G01X-864330Y4248670D02*
G01X-839330Y4273670D01*
G01X-291850Y1781850D02*
G01X-291850Y1765830D01*
G01X-291850Y1765830D02*
G01X-267830Y1765830D01*
G01X-267830Y1756060D02*
G01X-267830Y1740050D01*
G01X-267830Y1740050D02*
G01X-291850Y1740050D01*
G01X-287850Y1730280D02*
G01X-271830Y1714270D01*
G01X-271830Y1714270D02*
G01X-267830Y1718270D01*
G01X-267830Y1718270D02*
G01X-267830Y1726280D01*
G01X-267830Y1726280D02*
G01X-271830Y1730280D01*
G01X-271830Y1730280D02*
G01X-287850Y1730280D01*
G01X-287850Y1730280D02*
G01X-291850Y1726280D01*
G01X-291850Y1726280D02*
G01X-291850Y1718270D01*
G01X-291850Y1718270D02*
G01X-287850Y1714270D01*
G01X-287850Y1714270D02*
G01X-271830Y1714270D01*
G01X-271830Y1704500D02*
G01X-267830Y1700500D01*
G01X-267830Y1700500D02*
G01X-267830Y1692490D01*
G01X-267830Y1692490D02*
G01X-271830Y1688490D01*
G01X-271830Y1688490D02*
G01X-287850Y1704500D01*
G01X-287850Y1704500D02*
G01X-271830Y1704500D01*
G01X-271830Y1688490D02*
G01X-287850Y1688490D01*
G01X-287850Y1688490D02*
G01X-291850Y1692490D01*
G01X-291850Y1692490D02*
G01X-291850Y1700500D01*
G01X-291850Y1700500D02*
G01X-287850Y1704500D01*
G01X-279840Y1678720D02*
G01X-279840Y1662700D01*
G01X-279840Y1662700D02*
G01X-291850Y1674710D01*
G01X-291850Y1674710D02*
G01X-267830Y1674710D01*
G01X-267830Y1652940D02*
G01X-267830Y1636920D01*
G01X-267830Y1644930D02*
G01X-291850Y1644930D01*
G01X-291850Y1644930D02*
G01X-283840Y1636920D01*
G01X-287850Y1627150D02*
G01X-271830Y1611140D01*
G01X-271830Y1611140D02*
G01X-267830Y1615140D01*
G01X-267830Y1615140D02*
G01X-267830Y1623150D01*
G01X-267830Y1623150D02*
G01X-271830Y1627150D01*
G01X-271830Y1627150D02*
G01X-287850Y1627150D01*
G01X-287850Y1627150D02*
G01X-291850Y1623150D01*
G01X-291850Y1623150D02*
G01X-291850Y1615140D01*
G01X-291850Y1615140D02*
G01X-287850Y1611140D01*
G01X-287850Y1611140D02*
G01X-271830Y1611140D01*
G01X-267830Y1601370D02*
G01X-267830Y1585360D01*
G01X-267830Y1593370D02*
G01X-291850Y1593370D01*
G01X-291850Y1593370D02*
G01X-283840Y1585360D01*
G01X-279840Y1575590D02*
G01X-279840Y1559580D01*
G01X-283840Y1549810D02*
G01X-287850Y1549810D01*
G01X-287850Y1549810D02*
G01X-291850Y1545800D01*
G01X-291850Y1545800D02*
G01X-291850Y1537800D01*
G01X-291850Y1537800D02*
G01X-287850Y1533790D01*
G01X-287850Y1524030D02*
G01X-283840Y1524030D01*
G01X-283840Y1524030D02*
G01X-279840Y1520020D01*
G01X-279840Y1520020D02*
G01X-279840Y1512020D01*
G01X-279840Y1512020D02*
G01X-283840Y1508010D01*
G01X-283840Y1508010D02*
G01X-287850Y1508010D01*
G01X-287850Y1508010D02*
G01X-291850Y1512020D01*
G01X-291850Y1512020D02*
G01X-291850Y1520020D01*
G01X-291850Y1520020D02*
G01X-287850Y1524030D01*
G01X-279840Y1520020D02*
G01X-275840Y1524030D01*
G01X-275840Y1524030D02*
G01X-271830Y1524030D01*
G01X-271830Y1524030D02*
G01X-267830Y1520020D01*
G01X-267830Y1520020D02*
G01X-267830Y1512020D01*
G01X-267830Y1512020D02*
G01X-271830Y1508010D01*
G01X-271830Y1508010D02*
G01X-275840Y1508010D01*
G01X-275840Y1508010D02*
G01X-279840Y1512020D01*
G01X-287850Y1498240D02*
G01X-271830Y1498240D01*
G01X-271830Y1498240D02*
G01X-267830Y1494240D01*
G01X-267830Y1494240D02*
G01X-267830Y1486230D01*
G01X-267830Y1486230D02*
G01X-271830Y1482230D01*
G01X-271830Y1482230D02*
G01X-287850Y1498240D01*
G01X-287850Y1498240D02*
G01X-291850Y1494240D01*
G01X-291850Y1494240D02*
G01X-291850Y1486230D01*
G01X-291850Y1486230D02*
G01X-287850Y1482230D01*
G01X-287850Y1482230D02*
G01X-271830Y1482230D01*
G01X-267830Y1472460D02*
G01X-267830Y1456450D01*
G01X-267830Y1464460D02*
G01X-291850Y1464460D01*
G01X-291850Y1464460D02*
G01X-283840Y1456450D01*
G01X-275840Y1446680D02*
G01X-279840Y1442680D01*
G01X-279840Y1442680D02*
G01X-279840Y1430670D01*
G01X-279840Y1430670D02*
G01X-271830Y1430670D01*
G01X-271830Y1430670D02*
G01X-267830Y1434670D01*
G01X-267830Y1434670D02*
G01X-267830Y1442680D01*
G01X-267830Y1442680D02*
G01X-271830Y1446680D01*
G01X-271830Y1446680D02*
G01X-275840Y1446680D01*
G01X-287850Y1438670D02*
G01X-291850Y1446680D01*
G01X-287850Y1438670D02*
G01X-279840Y1430670D01*
G01X-267830Y1533790D02*
G01X-283840Y1549810D01*
G01X-267830Y1549810D02*
G01X-267830Y1533790D01*
G01X-279840Y1765830D02*
G01X-279840Y1773840D01*
G01X-2387830Y1765830D02*
G01X-2411850Y1765830D01*
G01X-2411850Y1765830D02*
G01X-2411850Y1781850D01*
G01X-2399840Y1773840D02*
G01X-2399840Y1765830D01*
G01X-2387830Y1756060D02*
G01X-2387830Y1740050D01*
G01X-2387830Y1740050D02*
G01X-2411850Y1740050D01*
G01X-2407850Y1730280D02*
G01X-2391830Y1714270D01*
G01X-2391830Y1714270D02*
G01X-2387830Y1718270D01*
G01X-2387830Y1718270D02*
G01X-2387830Y1726280D01*
G01X-2387830Y1726280D02*
G01X-2391830Y1730280D01*
G01X-2391830Y1730280D02*
G01X-2407850Y1730280D01*
G01X-2407850Y1730280D02*
G01X-2411850Y1726280D01*
G01X-2411850Y1726280D02*
G01X-2411850Y1718270D01*
G01X-2411850Y1718270D02*
G01X-2407850Y1714270D01*
G01X-2407850Y1714270D02*
G01X-2391830Y1714270D01*
G01X-2391830Y1704500D02*
G01X-2387830Y1700500D01*
G01X-2387830Y1700500D02*
G01X-2387830Y1692490D01*
G01X-2387830Y1692490D02*
G01X-2391830Y1688490D01*
G01X-2391830Y1688490D02*
G01X-2407850Y1704500D01*
G01X-2407850Y1704500D02*
G01X-2391830Y1704500D01*
G01X-2391830Y1688490D02*
G01X-2407850Y1688490D01*
G01X-2407850Y1688490D02*
G01X-2411850Y1692490D01*
G01X-2411850Y1692490D02*
G01X-2411850Y1700500D01*
G01X-2411850Y1700500D02*
G01X-2407850Y1704500D01*
G01X-2399840Y1678720D02*
G01X-2399840Y1662700D01*
G01X-2399840Y1662700D02*
G01X-2411850Y1674710D01*
G01X-2411850Y1674710D02*
G01X-2387830Y1674710D01*
G01X-2387830Y1652940D02*
G01X-2387830Y1636920D01*
G01X-2387830Y1644930D02*
G01X-2411850Y1644930D01*
G01X-2411850Y1644930D02*
G01X-2403840Y1636920D01*
G01X-2407850Y1627150D02*
G01X-2391830Y1611140D01*
G01X-2391830Y1611140D02*
G01X-2387830Y1615140D01*
G01X-2387830Y1615140D02*
G01X-2387830Y1623150D01*
G01X-2387830Y1623150D02*
G01X-2391830Y1627150D01*
G01X-2391830Y1627150D02*
G01X-2407850Y1627150D01*
G01X-2407850Y1627150D02*
G01X-2411850Y1623150D01*
G01X-2411850Y1623150D02*
G01X-2411850Y1615140D01*
G01X-2411850Y1615140D02*
G01X-2407850Y1611140D01*
G01X-2407850Y1611140D02*
G01X-2391830Y1611140D01*
G01X-2387830Y1601370D02*
G01X-2387830Y1585360D01*
G01X-2387830Y1593370D02*
G01X-2411850Y1593370D01*
G01X-2411850Y1593370D02*
G01X-2403840Y1585360D01*
G01X-2399840Y1575590D02*
G01X-2399840Y1559580D01*
G01X-2403840Y1549810D02*
G01X-2407850Y1549810D01*
G01X-2407850Y1549810D02*
G01X-2411850Y1545800D01*
G01X-2411850Y1545800D02*
G01X-2411850Y1537800D01*
G01X-2411850Y1537800D02*
G01X-2407850Y1533790D01*
G01X-2407850Y1524030D02*
G01X-2403840Y1524030D01*
G01X-2403840Y1524030D02*
G01X-2399840Y1520020D01*
G01X-2399840Y1520020D02*
G01X-2399840Y1512020D01*
G01X-2399840Y1512020D02*
G01X-2403840Y1508010D01*
G01X-2403840Y1508010D02*
G01X-2407850Y1508010D01*
G01X-2407850Y1508010D02*
G01X-2411850Y1512020D01*
G01X-2411850Y1512020D02*
G01X-2411850Y1520020D01*
G01X-2411850Y1520020D02*
G01X-2407850Y1524030D01*
G01X-2399840Y1520020D02*
G01X-2395840Y1524030D01*
G01X-2395840Y1524030D02*
G01X-2391830Y1524030D01*
G01X-2391830Y1524030D02*
G01X-2387830Y1520020D01*
G01X-2387830Y1520020D02*
G01X-2387830Y1512020D01*
G01X-2387830Y1512020D02*
G01X-2391830Y1508010D01*
G01X-2391830Y1508010D02*
G01X-2395840Y1508010D01*
G01X-2395840Y1508010D02*
G01X-2399840Y1512020D01*
G01X-2391830Y1498240D02*
G01X-2387830Y1494240D01*
G01X-2387830Y1494240D02*
G01X-2387830Y1486230D01*
G01X-2387830Y1486230D02*
G01X-2391830Y1482230D01*
G01X-2391830Y1482230D02*
G01X-2407850Y1498240D01*
G01X-2407850Y1498240D02*
G01X-2391830Y1498240D01*
G01X-2391830Y1482230D02*
G01X-2407850Y1482230D01*
G01X-2407850Y1482230D02*
G01X-2411850Y1486230D01*
G01X-2411850Y1486230D02*
G01X-2411850Y1494240D01*
G01X-2411850Y1494240D02*
G01X-2407850Y1498240D01*
G01X-2387830Y1472460D02*
G01X-2387830Y1456450D01*
G01X-2387830Y1464460D02*
G01X-2411850Y1464460D01*
G01X-2411850Y1464460D02*
G01X-2403840Y1456450D01*
G01X-2395840Y1446680D02*
G01X-2399840Y1442680D01*
G01X-2399840Y1442680D02*
G01X-2399840Y1430670D01*
G01X-2399840Y1430670D02*
G01X-2391830Y1430670D01*
G01X-2391830Y1430670D02*
G01X-2387830Y1434670D01*
G01X-2387830Y1434670D02*
G01X-2387830Y1442680D01*
G01X-2387830Y1442680D02*
G01X-2391830Y1446680D01*
G01X-2391830Y1446680D02*
G01X-2395840Y1446680D01*
G01X-2407850Y1438670D02*
G01X-2399840Y1430670D01*
G01X-2407850Y1438670D02*
G01X-2411850Y1446680D01*
G01X-2387830Y1533790D02*
G01X-2403840Y1549810D01*
G01X-2387830Y1549810D02*
G01X-2387830Y1533790D01*
G54D19*
G01X-1982190Y1260660D02*
G01X-1982190Y1257160D01*
G01X-1982190Y1257160D02*
G01X-1978690Y1253660D01*
G01X-1978690Y1253660D02*
G01X-1971680Y1253660D01*
G01X-1971680Y1253660D02*
G01X-1968180Y1250150D01*
G01X-1968180Y1250150D02*
G01X-1968180Y1246650D01*
G01X-1968180Y1246650D02*
G01X-1971680Y1243150D01*
G01X-1971680Y1243150D02*
G01X-1978690Y1243150D01*
G01X-1978690Y1243150D02*
G01X-1982190Y1246650D01*
G01X-1982190Y1260660D02*
G01X-1978690Y1264170D01*
G01X-1978690Y1264170D02*
G01X-1971680Y1264170D01*
G01X-1971680Y1264170D02*
G01X-1968180Y1260660D01*
G01X-1960090Y1260660D02*
G01X-1960090Y1246650D01*
G01X-1960090Y1246650D02*
G01X-1956590Y1243150D01*
G01X-1956590Y1243150D02*
G01X-1946080Y1243150D01*
G01X-1946080Y1243150D02*
G01X-1946080Y1264170D01*
G01X-1946080Y1264170D02*
G01X-1956590Y1264170D01*
G01X-1956590Y1264170D02*
G01X-1960090Y1260660D01*
G01X-1937990Y1260660D02*
G01X-1937990Y1246650D01*
G01X-1937990Y1246650D02*
G01X-1923980Y1260660D01*
G01X-1923980Y1260660D02*
G01X-1927480Y1264170D01*
G01X-1927480Y1264170D02*
G01X-1934490Y1264170D01*
G01X-1934490Y1264170D02*
G01X-1937990Y1260660D01*
G01X-1937990Y1246650D02*
G01X-1934490Y1243150D01*
G01X-1934490Y1243150D02*
G01X-1927480Y1243150D01*
G01X-1927480Y1243150D02*
G01X-1923980Y1246650D01*
G01X-1923980Y1246650D02*
G01X-1923980Y1260660D01*
G01X-1915890Y1264170D02*
G01X-1901880Y1264170D01*
G01X-1901880Y1264170D02*
G01X-1915890Y1250150D01*
G01X-1915890Y1250150D02*
G01X-1915890Y1246650D01*
G01X-1915890Y1246650D02*
G01X-1912390Y1243150D01*
G01X-1912390Y1243150D02*
G01X-1905380Y1243150D01*
G01X-1905380Y1243150D02*
G01X-1901880Y1246650D01*
G01X-1893790Y1253660D02*
G01X-1879780Y1253660D01*
G01X-1871690Y1250150D02*
G01X-1871690Y1246650D01*
G01X-1871690Y1246650D02*
G01X-1868190Y1243150D01*
G01X-1868190Y1243150D02*
G01X-1861190Y1243150D01*
G01X-1861190Y1243150D02*
G01X-1857680Y1246650D01*
G01X-1871690Y1250150D02*
G01X-1857680Y1264170D01*
G01X-1857680Y1264170D02*
G01X-1871690Y1264170D01*
G01X-1849600Y1264170D02*
G01X-1835580Y1264170D01*
G01X-1842590Y1264170D02*
G01X-1842590Y1243150D01*
G01X-1842590Y1243150D02*
G01X-1835580Y1250150D01*
G01X-1827500Y1243150D02*
G01X-1813480Y1243150D01*
G01X-1813480Y1243150D02*
G01X-1813480Y1264170D01*
G01X-1805400Y1260660D02*
G01X-1805400Y1246650D01*
G01X-1805400Y1246650D02*
G01X-1801890Y1243150D01*
G01X-1801890Y1243150D02*
G01X-1791390Y1243150D01*
G01X-1791390Y1243150D02*
G01X-1791390Y1264170D01*
G01X-1791390Y1264170D02*
G01X-1801890Y1264170D01*
G01X-1801890Y1264170D02*
G01X-1805400Y1260660D01*
G01X-1813480Y1253660D02*
G01X-1820490Y1253660D01*
G01X-878690Y3393150D02*
G01X-871680Y3393150D01*
G01X-871680Y3393150D02*
G01X-868180Y3396650D01*
G01X-868180Y3396650D02*
G01X-868180Y3400150D01*
G01X-868180Y3400150D02*
G01X-871680Y3403660D01*
G01X-871680Y3403660D02*
G01X-878690Y3403660D01*
G01X-878690Y3403660D02*
G01X-882190Y3407160D01*
G01X-882190Y3407160D02*
G01X-882190Y3410660D01*
G01X-882190Y3410660D02*
G01X-878690Y3414170D01*
G01X-878690Y3414170D02*
G01X-871680Y3414170D01*
G01X-871680Y3414170D02*
G01X-868180Y3410660D01*
G01X-860090Y3410660D02*
G01X-860090Y3396650D01*
G01X-860090Y3396650D02*
G01X-856590Y3393150D01*
G01X-856590Y3393150D02*
G01X-846080Y3393150D01*
G01X-846080Y3393150D02*
G01X-846080Y3414170D01*
G01X-846080Y3414170D02*
G01X-856590Y3414170D01*
G01X-856590Y3414170D02*
G01X-860090Y3410660D01*
G01X-837990Y3410660D02*
G01X-837990Y3396650D01*
G01X-837990Y3396650D02*
G01X-823980Y3410660D01*
G01X-823980Y3410660D02*
G01X-827480Y3414170D01*
G01X-827480Y3414170D02*
G01X-834490Y3414170D01*
G01X-834490Y3414170D02*
G01X-837990Y3410660D01*
G01X-837990Y3396650D02*
G01X-834490Y3393150D01*
G01X-834490Y3393150D02*
G01X-827480Y3393150D01*
G01X-827480Y3393150D02*
G01X-823980Y3396650D01*
G01X-823980Y3396650D02*
G01X-823980Y3410660D01*
G01X-815890Y3414170D02*
G01X-801880Y3414170D01*
G01X-801880Y3414170D02*
G01X-815890Y3400150D01*
G01X-815890Y3400150D02*
G01X-815890Y3396650D01*
G01X-815890Y3396650D02*
G01X-812390Y3393150D01*
G01X-812390Y3393150D02*
G01X-805380Y3393150D01*
G01X-805380Y3393150D02*
G01X-801880Y3396650D01*
G01X-793790Y3403660D02*
G01X-779780Y3403660D01*
G01X-771690Y3400150D02*
G01X-771690Y3396650D01*
G01X-771690Y3396650D02*
G01X-768190Y3393150D01*
G01X-768190Y3393150D02*
G01X-761190Y3393150D01*
G01X-761190Y3393150D02*
G01X-757680Y3396650D01*
G01X-771690Y3400150D02*
G01X-757680Y3414170D01*
G01X-757680Y3414170D02*
G01X-771690Y3414170D01*
G01X-749600Y3414170D02*
G01X-735580Y3414170D01*
G01X-742590Y3414170D02*
G01X-742590Y3393150D01*
G01X-742590Y3393150D02*
G01X-735580Y3400150D01*
G01X-727500Y3393150D02*
G01X-713480Y3393150D01*
G01X-713480Y3393150D02*
G01X-713480Y3414170D01*
G01X-705400Y3410660D02*
G01X-705400Y3396650D01*
G01X-705400Y3396650D02*
G01X-701890Y3393150D01*
G01X-701890Y3393150D02*
G01X-691390Y3393150D01*
G01X-691390Y3393150D02*
G01X-691390Y3414170D01*
G01X-691390Y3414170D02*
G01X-701890Y3414170D01*
G01X-701890Y3414170D02*
G01X-705400Y3410660D01*
G01X-713480Y3403660D02*
G01X-720490Y3403660D01*
G01X-878690Y3393150D02*
G01X-882190Y3396650D01*
G01X-889330Y4248670D02*
G01X-864330Y4273670D01*
G54D20*
G01X-889330Y4273670D02*
G01X-914330Y4248670D01*
G54D21*
G01X-939330Y4248670D02*
G01X-914330Y4273670D01*
G54D24*
G01X-2376830Y3353670D03*
G54D25*
G01X-2376830Y3628670D03*
M02*
