G75*
%MOIN*%
%OFA0B0*%
%FSLAX25Y25*%
%IPPOS*%
%LPD*%
%AMOC8*
5,1,8,0,0,1.08239X$1,22.5*
%
%ADD10C,0.00500*%
%ADD11C,0.00800*%
%ADD12C,0.01200*%
%ADD13C,0.01100*%
%ADD14C,0.01000*%
%ADD15C,0.00900*%
%ADD16C,0.00700*%
%ADD17C,0.00600*%
%ADD18C,0.00400*%
%ADD19C,0.00300*%
%ADD20C,0.00200*%
%ADD21C,0.00100*%
%ADD22R,0.15000X0.07500*%
%ADD23R,0.30000X0.07500*%
D10*
X0038867Y0061433D02*
X0043067Y0061433D01*
X0047004Y0061433D02*
X0051204Y0061433D01*
X0055141Y0061433D02*
X0059342Y0061433D01*
X0063279Y0061433D02*
X0067479Y0061433D01*
X0071416Y0061433D02*
X0075617Y0061433D01*
X0075677Y0061435D01*
X0075738Y0061440D01*
X0075797Y0061449D01*
X0075856Y0061462D01*
X0075915Y0061478D01*
X0075972Y0061498D01*
X0076027Y0061521D01*
X0076082Y0061548D01*
X0076134Y0061577D01*
X0076185Y0061610D01*
X0076234Y0061646D01*
X0076280Y0061684D01*
X0076324Y0061726D01*
X0076366Y0061770D01*
X0076404Y0061816D01*
X0076440Y0061865D01*
X0076473Y0061916D01*
X0076502Y0061968D01*
X0076529Y0062023D01*
X0076552Y0062078D01*
X0076572Y0062135D01*
X0076588Y0062194D01*
X0076601Y0062253D01*
X0076610Y0062312D01*
X0076615Y0062373D01*
X0076617Y0062433D01*
X0076617Y0068308D01*
X0076617Y0072245D02*
X0076617Y0078121D01*
X0076617Y0082058D02*
X0076617Y0087933D01*
X0076615Y0087993D01*
X0076610Y0088054D01*
X0076601Y0088113D01*
X0076588Y0088172D01*
X0076572Y0088231D01*
X0076552Y0088288D01*
X0076529Y0088343D01*
X0076502Y0088398D01*
X0076473Y0088450D01*
X0076440Y0088501D01*
X0076404Y0088550D01*
X0076366Y0088596D01*
X0076324Y0088640D01*
X0076280Y0088682D01*
X0076234Y0088720D01*
X0076185Y0088756D01*
X0076134Y0088789D01*
X0076082Y0088818D01*
X0076027Y0088845D01*
X0075972Y0088868D01*
X0075915Y0088888D01*
X0075856Y0088904D01*
X0075797Y0088917D01*
X0075738Y0088926D01*
X0075677Y0088931D01*
X0075617Y0088933D01*
X0071416Y0088933D01*
X0071416Y0091433D02*
X0075617Y0091433D01*
X0075677Y0091435D01*
X0075738Y0091440D01*
X0075797Y0091449D01*
X0075856Y0091462D01*
X0075915Y0091478D01*
X0075972Y0091498D01*
X0076027Y0091521D01*
X0076082Y0091548D01*
X0076134Y0091577D01*
X0076185Y0091610D01*
X0076234Y0091646D01*
X0076280Y0091684D01*
X0076324Y0091726D01*
X0076366Y0091770D01*
X0076404Y0091816D01*
X0076440Y0091865D01*
X0076473Y0091916D01*
X0076502Y0091968D01*
X0076529Y0092023D01*
X0076552Y0092078D01*
X0076572Y0092135D01*
X0076588Y0092194D01*
X0076601Y0092253D01*
X0076610Y0092312D01*
X0076615Y0092373D01*
X0076617Y0092433D01*
X0076617Y0098308D01*
X0076617Y0102245D02*
X0076617Y0108121D01*
X0076617Y0112058D02*
X0076617Y0117933D01*
X0076615Y0117993D01*
X0076610Y0118054D01*
X0076601Y0118113D01*
X0076588Y0118172D01*
X0076572Y0118231D01*
X0076552Y0118288D01*
X0076529Y0118343D01*
X0076502Y0118398D01*
X0076473Y0118450D01*
X0076440Y0118501D01*
X0076404Y0118550D01*
X0076366Y0118596D01*
X0076324Y0118640D01*
X0076280Y0118682D01*
X0076234Y0118720D01*
X0076185Y0118756D01*
X0076134Y0118789D01*
X0076082Y0118818D01*
X0076027Y0118845D01*
X0075972Y0118868D01*
X0075915Y0118888D01*
X0075856Y0118904D01*
X0075797Y0118917D01*
X0075738Y0118926D01*
X0075677Y0118931D01*
X0075617Y0118933D01*
X0071416Y0118933D01*
X0071416Y0121433D02*
X0075617Y0121433D01*
X0075677Y0121435D01*
X0075738Y0121440D01*
X0075797Y0121449D01*
X0075856Y0121462D01*
X0075915Y0121478D01*
X0075972Y0121498D01*
X0076027Y0121521D01*
X0076082Y0121548D01*
X0076134Y0121577D01*
X0076185Y0121610D01*
X0076234Y0121646D01*
X0076280Y0121684D01*
X0076324Y0121726D01*
X0076366Y0121770D01*
X0076404Y0121816D01*
X0076440Y0121865D01*
X0076473Y0121916D01*
X0076502Y0121968D01*
X0076529Y0122023D01*
X0076552Y0122078D01*
X0076572Y0122135D01*
X0076588Y0122194D01*
X0076601Y0122253D01*
X0076610Y0122312D01*
X0076615Y0122373D01*
X0076617Y0122433D01*
X0076617Y0128308D01*
X0076617Y0132245D02*
X0076617Y0138121D01*
X0076617Y0142058D02*
X0076617Y0147933D01*
X0076615Y0147993D01*
X0076610Y0148054D01*
X0076601Y0148113D01*
X0076588Y0148172D01*
X0076572Y0148231D01*
X0076552Y0148288D01*
X0076529Y0148343D01*
X0076502Y0148398D01*
X0076473Y0148450D01*
X0076440Y0148501D01*
X0076404Y0148550D01*
X0076366Y0148596D01*
X0076324Y0148640D01*
X0076280Y0148682D01*
X0076234Y0148720D01*
X0076185Y0148756D01*
X0076134Y0148789D01*
X0076082Y0148818D01*
X0076027Y0148845D01*
X0075972Y0148868D01*
X0075915Y0148888D01*
X0075856Y0148904D01*
X0075797Y0148917D01*
X0075738Y0148926D01*
X0075677Y0148931D01*
X0075617Y0148933D01*
X0071416Y0148933D01*
X0071416Y0151433D02*
X0075617Y0151433D01*
X0075677Y0151435D01*
X0075738Y0151440D01*
X0075797Y0151449D01*
X0075856Y0151462D01*
X0075915Y0151478D01*
X0075972Y0151498D01*
X0076027Y0151521D01*
X0076082Y0151548D01*
X0076134Y0151577D01*
X0076185Y0151610D01*
X0076234Y0151646D01*
X0076280Y0151684D01*
X0076324Y0151726D01*
X0076366Y0151770D01*
X0076404Y0151816D01*
X0076440Y0151865D01*
X0076473Y0151916D01*
X0076502Y0151968D01*
X0076529Y0152023D01*
X0076552Y0152078D01*
X0076572Y0152135D01*
X0076588Y0152194D01*
X0076601Y0152253D01*
X0076610Y0152312D01*
X0076615Y0152373D01*
X0076617Y0152433D01*
X0076617Y0158308D01*
X0076617Y0162245D02*
X0076617Y0168121D01*
X0076617Y0172058D02*
X0076617Y0177933D01*
X0076615Y0177993D01*
X0076610Y0178054D01*
X0076601Y0178113D01*
X0076588Y0178172D01*
X0076572Y0178231D01*
X0076552Y0178288D01*
X0076529Y0178343D01*
X0076502Y0178398D01*
X0076473Y0178450D01*
X0076440Y0178501D01*
X0076404Y0178550D01*
X0076366Y0178596D01*
X0076324Y0178640D01*
X0076280Y0178682D01*
X0076234Y0178720D01*
X0076185Y0178756D01*
X0076134Y0178789D01*
X0076082Y0178818D01*
X0076027Y0178845D01*
X0075972Y0178868D01*
X0075915Y0178888D01*
X0075856Y0178904D01*
X0075797Y0178917D01*
X0075738Y0178926D01*
X0075677Y0178931D01*
X0075617Y0178933D01*
X0071416Y0178933D01*
X0071416Y0181433D02*
X0075617Y0181433D01*
X0075677Y0181435D01*
X0075738Y0181440D01*
X0075797Y0181449D01*
X0075856Y0181462D01*
X0075915Y0181478D01*
X0075972Y0181498D01*
X0076027Y0181521D01*
X0076082Y0181548D01*
X0076134Y0181577D01*
X0076185Y0181610D01*
X0076234Y0181646D01*
X0076280Y0181684D01*
X0076324Y0181726D01*
X0076366Y0181770D01*
X0076404Y0181816D01*
X0076440Y0181865D01*
X0076473Y0181916D01*
X0076502Y0181968D01*
X0076529Y0182023D01*
X0076552Y0182078D01*
X0076572Y0182135D01*
X0076588Y0182194D01*
X0076601Y0182253D01*
X0076610Y0182312D01*
X0076615Y0182373D01*
X0076617Y0182433D01*
X0076617Y0188308D01*
X0076617Y0192245D02*
X0076617Y0198121D01*
X0076617Y0202058D02*
X0076617Y0207933D01*
X0076615Y0207993D01*
X0076610Y0208054D01*
X0076601Y0208113D01*
X0076588Y0208172D01*
X0076572Y0208231D01*
X0076552Y0208288D01*
X0076529Y0208343D01*
X0076502Y0208398D01*
X0076473Y0208450D01*
X0076440Y0208501D01*
X0076404Y0208550D01*
X0076366Y0208596D01*
X0076324Y0208640D01*
X0076280Y0208682D01*
X0076234Y0208720D01*
X0076185Y0208756D01*
X0076134Y0208789D01*
X0076082Y0208818D01*
X0076027Y0208845D01*
X0075972Y0208868D01*
X0075915Y0208888D01*
X0075856Y0208904D01*
X0075797Y0208917D01*
X0075738Y0208926D01*
X0075677Y0208931D01*
X0075617Y0208933D01*
X0071416Y0208933D01*
X0067479Y0208933D02*
X0063279Y0208933D01*
X0059342Y0208933D02*
X0055141Y0208933D01*
X0051204Y0208933D02*
X0047004Y0208933D01*
X0043067Y0208933D02*
X0038867Y0208933D01*
X0038807Y0208931D01*
X0038746Y0208926D01*
X0038687Y0208917D01*
X0038628Y0208904D01*
X0038569Y0208888D01*
X0038512Y0208868D01*
X0038457Y0208845D01*
X0038402Y0208818D01*
X0038350Y0208789D01*
X0038299Y0208756D01*
X0038250Y0208720D01*
X0038204Y0208682D01*
X0038160Y0208640D01*
X0038118Y0208596D01*
X0038080Y0208550D01*
X0038044Y0208501D01*
X0038011Y0208450D01*
X0037982Y0208398D01*
X0037955Y0208343D01*
X0037932Y0208288D01*
X0037912Y0208231D01*
X0037896Y0208172D01*
X0037883Y0208113D01*
X0037874Y0208054D01*
X0037869Y0207993D01*
X0037867Y0207933D01*
X0037867Y0202058D01*
X0037867Y0198121D02*
X0037867Y0192245D01*
X0037867Y0188308D02*
X0037867Y0182433D01*
X0037869Y0182373D01*
X0037874Y0182312D01*
X0037883Y0182253D01*
X0037896Y0182194D01*
X0037912Y0182135D01*
X0037932Y0182078D01*
X0037955Y0182023D01*
X0037982Y0181968D01*
X0038011Y0181916D01*
X0038044Y0181865D01*
X0038080Y0181816D01*
X0038118Y0181770D01*
X0038160Y0181726D01*
X0038204Y0181684D01*
X0038250Y0181646D01*
X0038299Y0181610D01*
X0038350Y0181577D01*
X0038402Y0181548D01*
X0038457Y0181521D01*
X0038512Y0181498D01*
X0038569Y0181478D01*
X0038628Y0181462D01*
X0038687Y0181449D01*
X0038746Y0181440D01*
X0038807Y0181435D01*
X0038867Y0181433D01*
X0043067Y0181433D01*
X0043067Y0178933D02*
X0038867Y0178933D01*
X0038807Y0178931D01*
X0038746Y0178926D01*
X0038687Y0178917D01*
X0038628Y0178904D01*
X0038569Y0178888D01*
X0038512Y0178868D01*
X0038457Y0178845D01*
X0038402Y0178818D01*
X0038350Y0178789D01*
X0038299Y0178756D01*
X0038250Y0178720D01*
X0038204Y0178682D01*
X0038160Y0178640D01*
X0038118Y0178596D01*
X0038080Y0178550D01*
X0038044Y0178501D01*
X0038011Y0178450D01*
X0037982Y0178398D01*
X0037955Y0178343D01*
X0037932Y0178288D01*
X0037912Y0178231D01*
X0037896Y0178172D01*
X0037883Y0178113D01*
X0037874Y0178054D01*
X0037869Y0177993D01*
X0037867Y0177933D01*
X0037867Y0172058D01*
X0037867Y0168121D02*
X0037867Y0162245D01*
X0037867Y0158308D02*
X0037867Y0152433D01*
X0037869Y0152373D01*
X0037874Y0152312D01*
X0037883Y0152253D01*
X0037896Y0152194D01*
X0037912Y0152135D01*
X0037932Y0152078D01*
X0037955Y0152023D01*
X0037982Y0151968D01*
X0038011Y0151916D01*
X0038044Y0151865D01*
X0038080Y0151816D01*
X0038118Y0151770D01*
X0038160Y0151726D01*
X0038204Y0151684D01*
X0038250Y0151646D01*
X0038299Y0151610D01*
X0038350Y0151577D01*
X0038402Y0151548D01*
X0038457Y0151521D01*
X0038512Y0151498D01*
X0038569Y0151478D01*
X0038628Y0151462D01*
X0038687Y0151449D01*
X0038746Y0151440D01*
X0038807Y0151435D01*
X0038867Y0151433D01*
X0043067Y0151433D01*
X0043067Y0148933D02*
X0038867Y0148933D01*
X0038807Y0148931D01*
X0038746Y0148926D01*
X0038687Y0148917D01*
X0038628Y0148904D01*
X0038569Y0148888D01*
X0038512Y0148868D01*
X0038457Y0148845D01*
X0038402Y0148818D01*
X0038350Y0148789D01*
X0038299Y0148756D01*
X0038250Y0148720D01*
X0038204Y0148682D01*
X0038160Y0148640D01*
X0038118Y0148596D01*
X0038080Y0148550D01*
X0038044Y0148501D01*
X0038011Y0148450D01*
X0037982Y0148398D01*
X0037955Y0148343D01*
X0037932Y0148288D01*
X0037912Y0148231D01*
X0037896Y0148172D01*
X0037883Y0148113D01*
X0037874Y0148054D01*
X0037869Y0147993D01*
X0037867Y0147933D01*
X0037867Y0142058D01*
X0037867Y0138121D02*
X0037867Y0132245D01*
X0037867Y0128308D02*
X0037867Y0122433D01*
X0037869Y0122373D01*
X0037874Y0122312D01*
X0037883Y0122253D01*
X0037896Y0122194D01*
X0037912Y0122135D01*
X0037932Y0122078D01*
X0037955Y0122023D01*
X0037982Y0121968D01*
X0038011Y0121916D01*
X0038044Y0121865D01*
X0038080Y0121816D01*
X0038118Y0121770D01*
X0038160Y0121726D01*
X0038204Y0121684D01*
X0038250Y0121646D01*
X0038299Y0121610D01*
X0038350Y0121577D01*
X0038402Y0121548D01*
X0038457Y0121521D01*
X0038512Y0121498D01*
X0038569Y0121478D01*
X0038628Y0121462D01*
X0038687Y0121449D01*
X0038746Y0121440D01*
X0038807Y0121435D01*
X0038867Y0121433D01*
X0043067Y0121433D01*
X0043067Y0118933D02*
X0038867Y0118933D01*
X0038807Y0118931D01*
X0038746Y0118926D01*
X0038687Y0118917D01*
X0038628Y0118904D01*
X0038569Y0118888D01*
X0038512Y0118868D01*
X0038457Y0118845D01*
X0038402Y0118818D01*
X0038350Y0118789D01*
X0038299Y0118756D01*
X0038250Y0118720D01*
X0038204Y0118682D01*
X0038160Y0118640D01*
X0038118Y0118596D01*
X0038080Y0118550D01*
X0038044Y0118501D01*
X0038011Y0118450D01*
X0037982Y0118398D01*
X0037955Y0118343D01*
X0037932Y0118288D01*
X0037912Y0118231D01*
X0037896Y0118172D01*
X0037883Y0118113D01*
X0037874Y0118054D01*
X0037869Y0117993D01*
X0037867Y0117933D01*
X0037867Y0112058D01*
X0037867Y0108121D02*
X0037867Y0102245D01*
X0037867Y0098308D02*
X0037867Y0092433D01*
X0037869Y0092373D01*
X0037874Y0092312D01*
X0037883Y0092253D01*
X0037896Y0092194D01*
X0037912Y0092135D01*
X0037932Y0092078D01*
X0037955Y0092023D01*
X0037982Y0091968D01*
X0038011Y0091916D01*
X0038044Y0091865D01*
X0038080Y0091816D01*
X0038118Y0091770D01*
X0038160Y0091726D01*
X0038204Y0091684D01*
X0038250Y0091646D01*
X0038299Y0091610D01*
X0038350Y0091577D01*
X0038402Y0091548D01*
X0038457Y0091521D01*
X0038512Y0091498D01*
X0038569Y0091478D01*
X0038628Y0091462D01*
X0038687Y0091449D01*
X0038746Y0091440D01*
X0038807Y0091435D01*
X0038867Y0091433D01*
X0043067Y0091433D01*
X0043067Y0088933D02*
X0038867Y0088933D01*
X0038807Y0088931D01*
X0038746Y0088926D01*
X0038687Y0088917D01*
X0038628Y0088904D01*
X0038569Y0088888D01*
X0038512Y0088868D01*
X0038457Y0088845D01*
X0038402Y0088818D01*
X0038350Y0088789D01*
X0038299Y0088756D01*
X0038250Y0088720D01*
X0038204Y0088682D01*
X0038160Y0088640D01*
X0038118Y0088596D01*
X0038080Y0088550D01*
X0038044Y0088501D01*
X0038011Y0088450D01*
X0037982Y0088398D01*
X0037955Y0088343D01*
X0037932Y0088288D01*
X0037912Y0088231D01*
X0037896Y0088172D01*
X0037883Y0088113D01*
X0037874Y0088054D01*
X0037869Y0087993D01*
X0037867Y0087933D01*
X0037867Y0082058D01*
X0037867Y0078121D02*
X0037867Y0072245D01*
X0037867Y0068308D02*
X0037867Y0062433D01*
X0037869Y0062373D01*
X0037874Y0062312D01*
X0037883Y0062253D01*
X0037896Y0062194D01*
X0037912Y0062135D01*
X0037932Y0062078D01*
X0037955Y0062023D01*
X0037982Y0061968D01*
X0038011Y0061916D01*
X0038044Y0061865D01*
X0038080Y0061816D01*
X0038118Y0061770D01*
X0038160Y0061726D01*
X0038204Y0061684D01*
X0038250Y0061646D01*
X0038299Y0061610D01*
X0038350Y0061577D01*
X0038402Y0061548D01*
X0038457Y0061521D01*
X0038512Y0061498D01*
X0038569Y0061478D01*
X0038628Y0061462D01*
X0038687Y0061449D01*
X0038746Y0061440D01*
X0038807Y0061435D01*
X0038867Y0061433D01*
X0047004Y0088933D02*
X0051204Y0088933D01*
X0051204Y0091433D02*
X0047004Y0091433D01*
X0055141Y0091433D02*
X0059342Y0091433D01*
X0059342Y0088933D02*
X0055141Y0088933D01*
X0063279Y0088933D02*
X0067479Y0088933D01*
X0067479Y0091433D02*
X0063279Y0091433D01*
X0063279Y0118933D02*
X0067479Y0118933D01*
X0067479Y0121433D02*
X0063279Y0121433D01*
X0059342Y0121433D02*
X0055141Y0121433D01*
X0055141Y0118933D02*
X0059342Y0118933D01*
X0051204Y0118933D02*
X0047004Y0118933D01*
X0047004Y0121433D02*
X0051204Y0121433D01*
X0051204Y0148933D02*
X0047004Y0148933D01*
X0047004Y0151433D02*
X0051204Y0151433D01*
X0055141Y0151433D02*
X0059342Y0151433D01*
X0059342Y0148933D02*
X0055141Y0148933D01*
X0063279Y0148933D02*
X0067479Y0148933D01*
X0067479Y0151433D02*
X0063279Y0151433D01*
X0063279Y0178933D02*
X0067479Y0178933D01*
X0067479Y0181433D02*
X0063279Y0181433D01*
X0059342Y0181433D02*
X0055141Y0181433D01*
X0055141Y0178933D02*
X0059342Y0178933D01*
X0051204Y0178933D02*
X0047004Y0178933D01*
X0047004Y0181433D02*
X0051204Y0181433D01*
X0137867Y0179745D02*
X0137867Y0185621D01*
X0137867Y0189558D02*
X0137867Y0195433D01*
X0137869Y0195493D01*
X0137874Y0195554D01*
X0137883Y0195613D01*
X0137896Y0195672D01*
X0137912Y0195731D01*
X0137932Y0195788D01*
X0137955Y0195843D01*
X0137982Y0195898D01*
X0138011Y0195950D01*
X0138044Y0196001D01*
X0138080Y0196050D01*
X0138118Y0196096D01*
X0138160Y0196140D01*
X0138204Y0196182D01*
X0138250Y0196220D01*
X0138299Y0196256D01*
X0138350Y0196289D01*
X0138402Y0196318D01*
X0138457Y0196345D01*
X0138512Y0196368D01*
X0138569Y0196388D01*
X0138628Y0196404D01*
X0138687Y0196417D01*
X0138746Y0196426D01*
X0138807Y0196431D01*
X0138867Y0196433D01*
X0144067Y0196433D01*
X0148004Y0196433D02*
X0153204Y0196433D01*
X0157141Y0196433D02*
X0162342Y0196433D01*
X0166279Y0196433D02*
X0171479Y0196433D01*
X0175416Y0196433D02*
X0180617Y0196433D01*
X0180677Y0196431D01*
X0180738Y0196426D01*
X0180797Y0196417D01*
X0180856Y0196404D01*
X0180915Y0196388D01*
X0180972Y0196368D01*
X0181027Y0196345D01*
X0181082Y0196318D01*
X0181134Y0196289D01*
X0181185Y0196256D01*
X0181234Y0196220D01*
X0181280Y0196182D01*
X0181324Y0196140D01*
X0181366Y0196096D01*
X0181404Y0196050D01*
X0181440Y0196001D01*
X0181473Y0195950D01*
X0181502Y0195898D01*
X0181529Y0195843D01*
X0181552Y0195788D01*
X0181572Y0195731D01*
X0181588Y0195672D01*
X0181601Y0195613D01*
X0181610Y0195554D01*
X0181615Y0195493D01*
X0181617Y0195433D01*
X0181617Y0189558D01*
X0181617Y0185621D02*
X0181617Y0179745D01*
X0181617Y0175808D02*
X0181617Y0169933D01*
X0181615Y0169873D01*
X0181610Y0169812D01*
X0181601Y0169753D01*
X0181588Y0169694D01*
X0181572Y0169635D01*
X0181552Y0169578D01*
X0181529Y0169523D01*
X0181502Y0169468D01*
X0181473Y0169416D01*
X0181440Y0169365D01*
X0181404Y0169316D01*
X0181366Y0169270D01*
X0181324Y0169226D01*
X0181280Y0169184D01*
X0181234Y0169146D01*
X0181185Y0169110D01*
X0181134Y0169077D01*
X0181082Y0169048D01*
X0181027Y0169021D01*
X0180972Y0168998D01*
X0180915Y0168978D01*
X0180856Y0168962D01*
X0180797Y0168949D01*
X0180738Y0168940D01*
X0180677Y0168935D01*
X0180617Y0168933D01*
X0175416Y0168933D01*
X0175416Y0166433D02*
X0180617Y0166433D01*
X0180677Y0166431D01*
X0180738Y0166426D01*
X0180797Y0166417D01*
X0180856Y0166404D01*
X0180915Y0166388D01*
X0180972Y0166368D01*
X0181027Y0166345D01*
X0181082Y0166318D01*
X0181134Y0166289D01*
X0181185Y0166256D01*
X0181234Y0166220D01*
X0181280Y0166182D01*
X0181324Y0166140D01*
X0181366Y0166096D01*
X0181404Y0166050D01*
X0181440Y0166001D01*
X0181473Y0165950D01*
X0181502Y0165898D01*
X0181529Y0165843D01*
X0181552Y0165788D01*
X0181572Y0165731D01*
X0181588Y0165672D01*
X0181601Y0165613D01*
X0181610Y0165554D01*
X0181615Y0165493D01*
X0181617Y0165433D01*
X0181617Y0159558D01*
X0181617Y0155621D02*
X0181617Y0149745D01*
X0181617Y0145808D02*
X0181617Y0139933D01*
X0181615Y0139873D01*
X0181610Y0139812D01*
X0181601Y0139753D01*
X0181588Y0139694D01*
X0181572Y0139635D01*
X0181552Y0139578D01*
X0181529Y0139523D01*
X0181502Y0139468D01*
X0181473Y0139416D01*
X0181440Y0139365D01*
X0181404Y0139316D01*
X0181366Y0139270D01*
X0181324Y0139226D01*
X0181280Y0139184D01*
X0181234Y0139146D01*
X0181185Y0139110D01*
X0181134Y0139077D01*
X0181082Y0139048D01*
X0181027Y0139021D01*
X0180972Y0138998D01*
X0180915Y0138978D01*
X0180856Y0138962D01*
X0180797Y0138949D01*
X0180738Y0138940D01*
X0180677Y0138935D01*
X0180617Y0138933D01*
X0175416Y0138933D01*
X0171479Y0138933D02*
X0166279Y0138933D01*
X0162342Y0138933D02*
X0157141Y0138933D01*
X0153204Y0138933D02*
X0148004Y0138933D01*
X0144067Y0138933D02*
X0138867Y0138933D01*
X0138807Y0138935D01*
X0138746Y0138940D01*
X0138687Y0138949D01*
X0138628Y0138962D01*
X0138569Y0138978D01*
X0138512Y0138998D01*
X0138457Y0139021D01*
X0138402Y0139048D01*
X0138350Y0139077D01*
X0138299Y0139110D01*
X0138250Y0139146D01*
X0138204Y0139184D01*
X0138160Y0139226D01*
X0138118Y0139270D01*
X0138080Y0139316D01*
X0138044Y0139365D01*
X0138011Y0139416D01*
X0137982Y0139468D01*
X0137955Y0139523D01*
X0137932Y0139578D01*
X0137912Y0139635D01*
X0137896Y0139694D01*
X0137883Y0139753D01*
X0137874Y0139812D01*
X0137869Y0139873D01*
X0137867Y0139933D01*
X0137867Y0145808D01*
X0137867Y0149745D02*
X0137867Y0155621D01*
X0137867Y0159558D02*
X0137867Y0165433D01*
X0137869Y0165493D01*
X0137874Y0165554D01*
X0137883Y0165613D01*
X0137896Y0165672D01*
X0137912Y0165731D01*
X0137932Y0165788D01*
X0137955Y0165843D01*
X0137982Y0165898D01*
X0138011Y0165950D01*
X0138044Y0166001D01*
X0138080Y0166050D01*
X0138118Y0166096D01*
X0138160Y0166140D01*
X0138204Y0166182D01*
X0138250Y0166220D01*
X0138299Y0166256D01*
X0138350Y0166289D01*
X0138402Y0166318D01*
X0138457Y0166345D01*
X0138512Y0166368D01*
X0138569Y0166388D01*
X0138628Y0166404D01*
X0138687Y0166417D01*
X0138746Y0166426D01*
X0138807Y0166431D01*
X0138867Y0166433D01*
X0144067Y0166433D01*
X0144067Y0168933D02*
X0138867Y0168933D01*
X0138807Y0168935D01*
X0138746Y0168940D01*
X0138687Y0168949D01*
X0138628Y0168962D01*
X0138569Y0168978D01*
X0138512Y0168998D01*
X0138457Y0169021D01*
X0138402Y0169048D01*
X0138350Y0169077D01*
X0138299Y0169110D01*
X0138250Y0169146D01*
X0138204Y0169184D01*
X0138160Y0169226D01*
X0138118Y0169270D01*
X0138080Y0169316D01*
X0138044Y0169365D01*
X0138011Y0169416D01*
X0137982Y0169468D01*
X0137955Y0169523D01*
X0137932Y0169578D01*
X0137912Y0169635D01*
X0137896Y0169694D01*
X0137883Y0169753D01*
X0137874Y0169812D01*
X0137869Y0169873D01*
X0137867Y0169933D01*
X0137867Y0175808D01*
X0148004Y0168933D02*
X0153204Y0168933D01*
X0153204Y0166433D02*
X0148004Y0166433D01*
X0157141Y0166433D02*
X0162342Y0166433D01*
X0162342Y0168933D02*
X0157141Y0168933D01*
X0166279Y0168933D02*
X0171479Y0168933D01*
X0171479Y0166433D02*
X0166279Y0166433D01*
X0190367Y0164320D02*
X0190367Y0169771D01*
X0190367Y0173708D02*
X0190367Y0179158D01*
X0190367Y0183095D02*
X0190367Y0188546D01*
X0190367Y0192483D02*
X0190367Y0197933D01*
X0190369Y0197993D01*
X0190374Y0198054D01*
X0190383Y0198113D01*
X0190396Y0198172D01*
X0190412Y0198231D01*
X0190432Y0198288D01*
X0190455Y0198343D01*
X0190482Y0198398D01*
X0190511Y0198450D01*
X0190544Y0198501D01*
X0190580Y0198550D01*
X0190618Y0198596D01*
X0190660Y0198640D01*
X0190704Y0198682D01*
X0190750Y0198720D01*
X0190799Y0198756D01*
X0190850Y0198789D01*
X0190902Y0198818D01*
X0190957Y0198845D01*
X0191012Y0198868D01*
X0191069Y0198888D01*
X0191128Y0198904D01*
X0191187Y0198917D01*
X0191246Y0198926D01*
X0191307Y0198931D01*
X0191367Y0198933D01*
X0196664Y0198933D01*
X0200601Y0198933D02*
X0205898Y0198933D01*
X0209835Y0198933D02*
X0215132Y0198933D01*
X0219069Y0198933D02*
X0224367Y0198933D01*
X0224427Y0198931D01*
X0224488Y0198926D01*
X0224547Y0198917D01*
X0224606Y0198904D01*
X0224665Y0198888D01*
X0224722Y0198868D01*
X0224777Y0198845D01*
X0224832Y0198818D01*
X0224884Y0198789D01*
X0224935Y0198756D01*
X0224984Y0198720D01*
X0225030Y0198682D01*
X0225074Y0198640D01*
X0225116Y0198596D01*
X0225154Y0198550D01*
X0225190Y0198501D01*
X0225223Y0198450D01*
X0225252Y0198398D01*
X0225279Y0198343D01*
X0225302Y0198288D01*
X0225322Y0198231D01*
X0225338Y0198172D01*
X0225351Y0198113D01*
X0225360Y0198054D01*
X0225365Y0197993D01*
X0225367Y0197933D01*
X0225367Y0192483D01*
X0227867Y0192483D02*
X0227867Y0197933D01*
X0227869Y0197993D01*
X0227874Y0198054D01*
X0227883Y0198113D01*
X0227896Y0198172D01*
X0227912Y0198231D01*
X0227932Y0198288D01*
X0227955Y0198343D01*
X0227982Y0198398D01*
X0228011Y0198450D01*
X0228044Y0198501D01*
X0228080Y0198550D01*
X0228118Y0198596D01*
X0228160Y0198640D01*
X0228204Y0198682D01*
X0228250Y0198720D01*
X0228299Y0198756D01*
X0228350Y0198789D01*
X0228402Y0198818D01*
X0228457Y0198845D01*
X0228512Y0198868D01*
X0228569Y0198888D01*
X0228628Y0198904D01*
X0228687Y0198917D01*
X0228746Y0198926D01*
X0228807Y0198931D01*
X0228867Y0198933D01*
X0234164Y0198933D01*
X0238101Y0198933D02*
X0243398Y0198933D01*
X0247335Y0198933D02*
X0252632Y0198933D01*
X0256569Y0198933D02*
X0261867Y0198933D01*
X0261927Y0198931D01*
X0261988Y0198926D01*
X0262047Y0198917D01*
X0262106Y0198904D01*
X0262165Y0198888D01*
X0262222Y0198868D01*
X0262277Y0198845D01*
X0262332Y0198818D01*
X0262384Y0198789D01*
X0262435Y0198756D01*
X0262484Y0198720D01*
X0262530Y0198682D01*
X0262574Y0198640D01*
X0262616Y0198596D01*
X0262654Y0198550D01*
X0262690Y0198501D01*
X0262723Y0198450D01*
X0262752Y0198398D01*
X0262779Y0198343D01*
X0262802Y0198288D01*
X0262822Y0198231D01*
X0262838Y0198172D01*
X0262851Y0198113D01*
X0262860Y0198054D01*
X0262865Y0197993D01*
X0262867Y0197933D01*
X0262867Y0192483D01*
X0265367Y0192483D02*
X0265367Y0197933D01*
X0265369Y0197993D01*
X0265374Y0198054D01*
X0265383Y0198113D01*
X0265396Y0198172D01*
X0265412Y0198231D01*
X0265432Y0198288D01*
X0265455Y0198343D01*
X0265482Y0198398D01*
X0265511Y0198450D01*
X0265544Y0198501D01*
X0265580Y0198550D01*
X0265618Y0198596D01*
X0265660Y0198640D01*
X0265704Y0198682D01*
X0265750Y0198720D01*
X0265799Y0198756D01*
X0265850Y0198789D01*
X0265902Y0198818D01*
X0265957Y0198845D01*
X0266012Y0198868D01*
X0266069Y0198888D01*
X0266128Y0198904D01*
X0266187Y0198917D01*
X0266246Y0198926D01*
X0266307Y0198931D01*
X0266367Y0198933D01*
X0271664Y0198933D01*
X0275601Y0198933D02*
X0280898Y0198933D01*
X0284835Y0198933D02*
X0290132Y0198933D01*
X0294069Y0198933D02*
X0299367Y0198933D01*
X0299427Y0198931D01*
X0299488Y0198926D01*
X0299547Y0198917D01*
X0299606Y0198904D01*
X0299665Y0198888D01*
X0299722Y0198868D01*
X0299777Y0198845D01*
X0299832Y0198818D01*
X0299884Y0198789D01*
X0299935Y0198756D01*
X0299984Y0198720D01*
X0300030Y0198682D01*
X0300074Y0198640D01*
X0300116Y0198596D01*
X0300154Y0198550D01*
X0300190Y0198501D01*
X0300223Y0198450D01*
X0300252Y0198398D01*
X0300279Y0198343D01*
X0300302Y0198288D01*
X0300322Y0198231D01*
X0300338Y0198172D01*
X0300351Y0198113D01*
X0300360Y0198054D01*
X0300365Y0197993D01*
X0300367Y0197933D01*
X0300367Y0192483D01*
X0302867Y0192483D02*
X0302867Y0197933D01*
X0302869Y0197993D01*
X0302874Y0198054D01*
X0302883Y0198113D01*
X0302896Y0198172D01*
X0302912Y0198231D01*
X0302932Y0198288D01*
X0302955Y0198343D01*
X0302982Y0198398D01*
X0303011Y0198450D01*
X0303044Y0198501D01*
X0303080Y0198550D01*
X0303118Y0198596D01*
X0303160Y0198640D01*
X0303204Y0198682D01*
X0303250Y0198720D01*
X0303299Y0198756D01*
X0303350Y0198789D01*
X0303402Y0198818D01*
X0303457Y0198845D01*
X0303512Y0198868D01*
X0303569Y0198888D01*
X0303628Y0198904D01*
X0303687Y0198917D01*
X0303746Y0198926D01*
X0303807Y0198931D01*
X0303867Y0198933D01*
X0309164Y0198933D01*
X0313101Y0198933D02*
X0318398Y0198933D01*
X0322335Y0198933D02*
X0327632Y0198933D01*
X0331569Y0198933D02*
X0336867Y0198933D01*
X0336927Y0198931D01*
X0336988Y0198926D01*
X0337047Y0198917D01*
X0337106Y0198904D01*
X0337165Y0198888D01*
X0337222Y0198868D01*
X0337277Y0198845D01*
X0337332Y0198818D01*
X0337384Y0198789D01*
X0337435Y0198756D01*
X0337484Y0198720D01*
X0337530Y0198682D01*
X0337574Y0198640D01*
X0337616Y0198596D01*
X0337654Y0198550D01*
X0337690Y0198501D01*
X0337723Y0198450D01*
X0337752Y0198398D01*
X0337779Y0198343D01*
X0337802Y0198288D01*
X0337822Y0198231D01*
X0337838Y0198172D01*
X0337851Y0198113D01*
X0337860Y0198054D01*
X0337865Y0197993D01*
X0337867Y0197933D01*
X0337867Y0192483D01*
X0337867Y0188546D02*
X0337867Y0183095D01*
X0337867Y0179158D02*
X0337867Y0173708D01*
X0337867Y0169771D02*
X0337867Y0164320D01*
X0337867Y0160383D02*
X0337867Y0154933D01*
X0337865Y0154873D01*
X0337860Y0154812D01*
X0337851Y0154753D01*
X0337838Y0154694D01*
X0337822Y0154635D01*
X0337802Y0154578D01*
X0337779Y0154523D01*
X0337752Y0154468D01*
X0337723Y0154416D01*
X0337690Y0154365D01*
X0337654Y0154316D01*
X0337616Y0154270D01*
X0337574Y0154226D01*
X0337530Y0154184D01*
X0337484Y0154146D01*
X0337435Y0154110D01*
X0337384Y0154077D01*
X0337332Y0154048D01*
X0337277Y0154021D01*
X0337222Y0153998D01*
X0337165Y0153978D01*
X0337106Y0153962D01*
X0337047Y0153949D01*
X0336988Y0153940D01*
X0336927Y0153935D01*
X0336867Y0153933D01*
X0331569Y0153933D01*
X0327632Y0153933D02*
X0322335Y0153933D01*
X0318398Y0153933D02*
X0313101Y0153933D01*
X0309164Y0153933D02*
X0303867Y0153933D01*
X0303807Y0153935D01*
X0303746Y0153940D01*
X0303687Y0153949D01*
X0303628Y0153962D01*
X0303569Y0153978D01*
X0303512Y0153998D01*
X0303457Y0154021D01*
X0303402Y0154048D01*
X0303350Y0154077D01*
X0303299Y0154110D01*
X0303250Y0154146D01*
X0303204Y0154184D01*
X0303160Y0154226D01*
X0303118Y0154270D01*
X0303080Y0154316D01*
X0303044Y0154365D01*
X0303011Y0154416D01*
X0302982Y0154468D01*
X0302955Y0154523D01*
X0302932Y0154578D01*
X0302912Y0154635D01*
X0302896Y0154694D01*
X0302883Y0154753D01*
X0302874Y0154812D01*
X0302869Y0154873D01*
X0302867Y0154933D01*
X0302867Y0160383D01*
X0300367Y0160383D02*
X0300367Y0154933D01*
X0300365Y0154873D01*
X0300360Y0154812D01*
X0300351Y0154753D01*
X0300338Y0154694D01*
X0300322Y0154635D01*
X0300302Y0154578D01*
X0300279Y0154523D01*
X0300252Y0154468D01*
X0300223Y0154416D01*
X0300190Y0154365D01*
X0300154Y0154316D01*
X0300116Y0154270D01*
X0300074Y0154226D01*
X0300030Y0154184D01*
X0299984Y0154146D01*
X0299935Y0154110D01*
X0299884Y0154077D01*
X0299832Y0154048D01*
X0299777Y0154021D01*
X0299722Y0153998D01*
X0299665Y0153978D01*
X0299606Y0153962D01*
X0299547Y0153949D01*
X0299488Y0153940D01*
X0299427Y0153935D01*
X0299367Y0153933D01*
X0294069Y0153933D01*
X0290132Y0153933D02*
X0284835Y0153933D01*
X0280898Y0153933D02*
X0275601Y0153933D01*
X0271664Y0153933D02*
X0266367Y0153933D01*
X0266307Y0153935D01*
X0266246Y0153940D01*
X0266187Y0153949D01*
X0266128Y0153962D01*
X0266069Y0153978D01*
X0266012Y0153998D01*
X0265957Y0154021D01*
X0265902Y0154048D01*
X0265850Y0154077D01*
X0265799Y0154110D01*
X0265750Y0154146D01*
X0265704Y0154184D01*
X0265660Y0154226D01*
X0265618Y0154270D01*
X0265580Y0154316D01*
X0265544Y0154365D01*
X0265511Y0154416D01*
X0265482Y0154468D01*
X0265455Y0154523D01*
X0265432Y0154578D01*
X0265412Y0154635D01*
X0265396Y0154694D01*
X0265383Y0154753D01*
X0265374Y0154812D01*
X0265369Y0154873D01*
X0265367Y0154933D01*
X0265367Y0160383D01*
X0262867Y0160383D02*
X0262867Y0154933D01*
X0262865Y0154873D01*
X0262860Y0154812D01*
X0262851Y0154753D01*
X0262838Y0154694D01*
X0262822Y0154635D01*
X0262802Y0154578D01*
X0262779Y0154523D01*
X0262752Y0154468D01*
X0262723Y0154416D01*
X0262690Y0154365D01*
X0262654Y0154316D01*
X0262616Y0154270D01*
X0262574Y0154226D01*
X0262530Y0154184D01*
X0262484Y0154146D01*
X0262435Y0154110D01*
X0262384Y0154077D01*
X0262332Y0154048D01*
X0262277Y0154021D01*
X0262222Y0153998D01*
X0262165Y0153978D01*
X0262106Y0153962D01*
X0262047Y0153949D01*
X0261988Y0153940D01*
X0261927Y0153935D01*
X0261867Y0153933D01*
X0256569Y0153933D01*
X0252632Y0153933D02*
X0247335Y0153933D01*
X0243398Y0153933D02*
X0238101Y0153933D01*
X0234164Y0153933D02*
X0228867Y0153933D01*
X0228807Y0153935D01*
X0228746Y0153940D01*
X0228687Y0153949D01*
X0228628Y0153962D01*
X0228569Y0153978D01*
X0228512Y0153998D01*
X0228457Y0154021D01*
X0228402Y0154048D01*
X0228350Y0154077D01*
X0228299Y0154110D01*
X0228250Y0154146D01*
X0228204Y0154184D01*
X0228160Y0154226D01*
X0228118Y0154270D01*
X0228080Y0154316D01*
X0228044Y0154365D01*
X0228011Y0154416D01*
X0227982Y0154468D01*
X0227955Y0154523D01*
X0227932Y0154578D01*
X0227912Y0154635D01*
X0227896Y0154694D01*
X0227883Y0154753D01*
X0227874Y0154812D01*
X0227869Y0154873D01*
X0227867Y0154933D01*
X0227867Y0160383D01*
X0225367Y0160383D02*
X0225367Y0154933D01*
X0225365Y0154873D01*
X0225360Y0154812D01*
X0225351Y0154753D01*
X0225338Y0154694D01*
X0225322Y0154635D01*
X0225302Y0154578D01*
X0225279Y0154523D01*
X0225252Y0154468D01*
X0225223Y0154416D01*
X0225190Y0154365D01*
X0225154Y0154316D01*
X0225116Y0154270D01*
X0225074Y0154226D01*
X0225030Y0154184D01*
X0224984Y0154146D01*
X0224935Y0154110D01*
X0224884Y0154077D01*
X0224832Y0154048D01*
X0224777Y0154021D01*
X0224722Y0153998D01*
X0224665Y0153978D01*
X0224606Y0153962D01*
X0224547Y0153949D01*
X0224488Y0153940D01*
X0224427Y0153935D01*
X0224367Y0153933D01*
X0219069Y0153933D01*
X0215132Y0153933D02*
X0209835Y0153933D01*
X0205898Y0153933D02*
X0200601Y0153933D01*
X0196664Y0153933D02*
X0191367Y0153933D01*
X0191307Y0153935D01*
X0191246Y0153940D01*
X0191187Y0153949D01*
X0191128Y0153962D01*
X0191069Y0153978D01*
X0191012Y0153998D01*
X0190957Y0154021D01*
X0190902Y0154048D01*
X0190850Y0154077D01*
X0190799Y0154110D01*
X0190750Y0154146D01*
X0190704Y0154184D01*
X0190660Y0154226D01*
X0190618Y0154270D01*
X0190580Y0154316D01*
X0190544Y0154365D01*
X0190511Y0154416D01*
X0190482Y0154468D01*
X0190455Y0154523D01*
X0190432Y0154578D01*
X0190412Y0154635D01*
X0190396Y0154694D01*
X0190383Y0154753D01*
X0190374Y0154812D01*
X0190369Y0154873D01*
X0190367Y0154933D01*
X0190367Y0160383D01*
X0225367Y0164320D02*
X0225367Y0169771D01*
X0227867Y0169771D02*
X0227867Y0164320D01*
X0227867Y0173708D02*
X0227867Y0179158D01*
X0225367Y0179158D02*
X0225367Y0173708D01*
X0225367Y0183095D02*
X0225367Y0188546D01*
X0227867Y0188546D02*
X0227867Y0183095D01*
X0262867Y0183095D02*
X0262867Y0188546D01*
X0265367Y0188546D02*
X0265367Y0183095D01*
X0265367Y0179158D02*
X0265367Y0173708D01*
X0262867Y0173708D02*
X0262867Y0179158D01*
X0262867Y0169771D02*
X0262867Y0164320D01*
X0265367Y0164320D02*
X0265367Y0169771D01*
X0300367Y0169771D02*
X0300367Y0164320D01*
X0302867Y0164320D02*
X0302867Y0169771D01*
X0302867Y0173708D02*
X0302867Y0179158D01*
X0300367Y0179158D02*
X0300367Y0173708D01*
X0300367Y0183095D02*
X0300367Y0188546D01*
X0302867Y0188546D02*
X0302867Y0183095D01*
X0303391Y0128933D02*
X0308592Y0128933D01*
X0312529Y0128933D02*
X0317729Y0128933D01*
X0321666Y0128933D02*
X0326867Y0128933D01*
X0326927Y0128931D01*
X0326988Y0128926D01*
X0327047Y0128917D01*
X0327106Y0128904D01*
X0327165Y0128888D01*
X0327222Y0128868D01*
X0327277Y0128845D01*
X0327332Y0128818D01*
X0327384Y0128789D01*
X0327435Y0128756D01*
X0327484Y0128720D01*
X0327530Y0128682D01*
X0327574Y0128640D01*
X0327616Y0128596D01*
X0327654Y0128550D01*
X0327690Y0128501D01*
X0327723Y0128450D01*
X0327752Y0128398D01*
X0327779Y0128343D01*
X0327802Y0128288D01*
X0327822Y0128231D01*
X0327838Y0128172D01*
X0327851Y0128113D01*
X0327860Y0128054D01*
X0327865Y0127993D01*
X0327867Y0127933D01*
X0327867Y0122058D01*
X0327867Y0118121D02*
X0327867Y0112245D01*
X0327867Y0108308D02*
X0327867Y0102433D01*
X0327865Y0102373D01*
X0327860Y0102312D01*
X0327851Y0102253D01*
X0327838Y0102194D01*
X0327822Y0102135D01*
X0327802Y0102078D01*
X0327779Y0102023D01*
X0327752Y0101968D01*
X0327723Y0101916D01*
X0327690Y0101865D01*
X0327654Y0101816D01*
X0327616Y0101770D01*
X0327574Y0101726D01*
X0327530Y0101684D01*
X0327484Y0101646D01*
X0327435Y0101610D01*
X0327384Y0101577D01*
X0327332Y0101548D01*
X0327277Y0101521D01*
X0327222Y0101498D01*
X0327165Y0101478D01*
X0327106Y0101462D01*
X0327047Y0101449D01*
X0326988Y0101440D01*
X0326927Y0101435D01*
X0326867Y0101433D01*
X0321666Y0101433D01*
X0321666Y0098933D02*
X0326867Y0098933D01*
X0326927Y0098931D01*
X0326988Y0098926D01*
X0327047Y0098917D01*
X0327106Y0098904D01*
X0327165Y0098888D01*
X0327222Y0098868D01*
X0327277Y0098845D01*
X0327332Y0098818D01*
X0327384Y0098789D01*
X0327435Y0098756D01*
X0327484Y0098720D01*
X0327530Y0098682D01*
X0327574Y0098640D01*
X0327616Y0098596D01*
X0327654Y0098550D01*
X0327690Y0098501D01*
X0327723Y0098450D01*
X0327752Y0098398D01*
X0327779Y0098343D01*
X0327802Y0098288D01*
X0327822Y0098231D01*
X0327838Y0098172D01*
X0327851Y0098113D01*
X0327860Y0098054D01*
X0327865Y0097993D01*
X0327867Y0097933D01*
X0327867Y0092058D01*
X0327867Y0088121D02*
X0327867Y0082245D01*
X0327867Y0078308D02*
X0327867Y0072433D01*
X0327865Y0072373D01*
X0327860Y0072312D01*
X0327851Y0072253D01*
X0327838Y0072194D01*
X0327822Y0072135D01*
X0327802Y0072078D01*
X0327779Y0072023D01*
X0327752Y0071968D01*
X0327723Y0071916D01*
X0327690Y0071865D01*
X0327654Y0071816D01*
X0327616Y0071770D01*
X0327574Y0071726D01*
X0327530Y0071684D01*
X0327484Y0071646D01*
X0327435Y0071610D01*
X0327384Y0071577D01*
X0327332Y0071548D01*
X0327277Y0071521D01*
X0327222Y0071498D01*
X0327165Y0071478D01*
X0327106Y0071462D01*
X0327047Y0071449D01*
X0326988Y0071440D01*
X0326927Y0071435D01*
X0326867Y0071433D01*
X0321666Y0071433D01*
X0317729Y0071433D02*
X0312529Y0071433D01*
X0308592Y0071433D02*
X0303391Y0071433D01*
X0299454Y0071433D02*
X0294254Y0071433D01*
X0290317Y0071433D02*
X0285117Y0071433D01*
X0285057Y0071435D01*
X0284996Y0071440D01*
X0284937Y0071449D01*
X0284878Y0071462D01*
X0284819Y0071478D01*
X0284762Y0071498D01*
X0284707Y0071521D01*
X0284652Y0071548D01*
X0284600Y0071577D01*
X0284549Y0071610D01*
X0284500Y0071646D01*
X0284454Y0071684D01*
X0284410Y0071726D01*
X0284368Y0071770D01*
X0284330Y0071816D01*
X0284294Y0071865D01*
X0284261Y0071916D01*
X0284232Y0071968D01*
X0284205Y0072023D01*
X0284182Y0072078D01*
X0284162Y0072135D01*
X0284146Y0072194D01*
X0284133Y0072253D01*
X0284124Y0072312D01*
X0284119Y0072373D01*
X0284117Y0072433D01*
X0284117Y0078308D01*
X0284117Y0082245D02*
X0284117Y0088121D01*
X0284117Y0092058D02*
X0284117Y0097933D01*
X0284119Y0097993D01*
X0284124Y0098054D01*
X0284133Y0098113D01*
X0284146Y0098172D01*
X0284162Y0098231D01*
X0284182Y0098288D01*
X0284205Y0098343D01*
X0284232Y0098398D01*
X0284261Y0098450D01*
X0284294Y0098501D01*
X0284330Y0098550D01*
X0284368Y0098596D01*
X0284410Y0098640D01*
X0284454Y0098682D01*
X0284500Y0098720D01*
X0284549Y0098756D01*
X0284600Y0098789D01*
X0284652Y0098818D01*
X0284707Y0098845D01*
X0284762Y0098868D01*
X0284819Y0098888D01*
X0284878Y0098904D01*
X0284937Y0098917D01*
X0284996Y0098926D01*
X0285057Y0098931D01*
X0285117Y0098933D01*
X0290317Y0098933D01*
X0290317Y0101433D02*
X0285117Y0101433D01*
X0285057Y0101435D01*
X0284996Y0101440D01*
X0284937Y0101449D01*
X0284878Y0101462D01*
X0284819Y0101478D01*
X0284762Y0101498D01*
X0284707Y0101521D01*
X0284652Y0101548D01*
X0284600Y0101577D01*
X0284549Y0101610D01*
X0284500Y0101646D01*
X0284454Y0101684D01*
X0284410Y0101726D01*
X0284368Y0101770D01*
X0284330Y0101816D01*
X0284294Y0101865D01*
X0284261Y0101916D01*
X0284232Y0101968D01*
X0284205Y0102023D01*
X0284182Y0102078D01*
X0284162Y0102135D01*
X0284146Y0102194D01*
X0284133Y0102253D01*
X0284124Y0102312D01*
X0284119Y0102373D01*
X0284117Y0102433D01*
X0284117Y0108308D01*
X0284117Y0112245D02*
X0284117Y0118121D01*
X0284117Y0122058D02*
X0284117Y0127933D01*
X0284119Y0127993D01*
X0284124Y0128054D01*
X0284133Y0128113D01*
X0284146Y0128172D01*
X0284162Y0128231D01*
X0284182Y0128288D01*
X0284205Y0128343D01*
X0284232Y0128398D01*
X0284261Y0128450D01*
X0284294Y0128501D01*
X0284330Y0128550D01*
X0284368Y0128596D01*
X0284410Y0128640D01*
X0284454Y0128682D01*
X0284500Y0128720D01*
X0284549Y0128756D01*
X0284600Y0128789D01*
X0284652Y0128818D01*
X0284707Y0128845D01*
X0284762Y0128868D01*
X0284819Y0128888D01*
X0284878Y0128904D01*
X0284937Y0128917D01*
X0284996Y0128926D01*
X0285057Y0128931D01*
X0285117Y0128933D01*
X0290317Y0128933D01*
X0294254Y0128933D02*
X0299454Y0128933D01*
X0275367Y0112933D02*
X0275367Y0107483D01*
X0275367Y0103546D02*
X0275367Y0098095D01*
X0275367Y0094158D02*
X0275367Y0088708D01*
X0275367Y0084771D02*
X0275367Y0079320D01*
X0275367Y0075383D02*
X0275367Y0069933D01*
X0275365Y0069873D01*
X0275360Y0069812D01*
X0275351Y0069753D01*
X0275338Y0069694D01*
X0275322Y0069635D01*
X0275302Y0069578D01*
X0275279Y0069523D01*
X0275252Y0069468D01*
X0275223Y0069416D01*
X0275190Y0069365D01*
X0275154Y0069316D01*
X0275116Y0069270D01*
X0275074Y0069226D01*
X0275030Y0069184D01*
X0274984Y0069146D01*
X0274935Y0069110D01*
X0274884Y0069077D01*
X0274832Y0069048D01*
X0274777Y0069021D01*
X0274722Y0068998D01*
X0274665Y0068978D01*
X0274606Y0068962D01*
X0274547Y0068949D01*
X0274488Y0068940D01*
X0274427Y0068935D01*
X0274367Y0068933D01*
X0269069Y0068933D01*
X0265132Y0068933D02*
X0259835Y0068933D01*
X0255898Y0068933D02*
X0250601Y0068933D01*
X0246664Y0068933D02*
X0241367Y0068933D01*
X0241307Y0068935D01*
X0241246Y0068940D01*
X0241187Y0068949D01*
X0241128Y0068962D01*
X0241069Y0068978D01*
X0241012Y0068998D01*
X0240957Y0069021D01*
X0240902Y0069048D01*
X0240850Y0069077D01*
X0240799Y0069110D01*
X0240750Y0069146D01*
X0240704Y0069184D01*
X0240660Y0069226D01*
X0240618Y0069270D01*
X0240580Y0069316D01*
X0240544Y0069365D01*
X0240511Y0069416D01*
X0240482Y0069468D01*
X0240455Y0069523D01*
X0240432Y0069578D01*
X0240412Y0069635D01*
X0240396Y0069694D01*
X0240383Y0069753D01*
X0240374Y0069812D01*
X0240369Y0069873D01*
X0240367Y0069933D01*
X0240367Y0075383D01*
X0237867Y0075383D02*
X0237867Y0069933D01*
X0237865Y0069873D01*
X0237860Y0069812D01*
X0237851Y0069753D01*
X0237838Y0069694D01*
X0237822Y0069635D01*
X0237802Y0069578D01*
X0237779Y0069523D01*
X0237752Y0069468D01*
X0237723Y0069416D01*
X0237690Y0069365D01*
X0237654Y0069316D01*
X0237616Y0069270D01*
X0237574Y0069226D01*
X0237530Y0069184D01*
X0237484Y0069146D01*
X0237435Y0069110D01*
X0237384Y0069077D01*
X0237332Y0069048D01*
X0237277Y0069021D01*
X0237222Y0068998D01*
X0237165Y0068978D01*
X0237106Y0068962D01*
X0237047Y0068949D01*
X0236988Y0068940D01*
X0236927Y0068935D01*
X0236867Y0068933D01*
X0231569Y0068933D01*
X0227632Y0068933D02*
X0222335Y0068933D01*
X0218398Y0068933D02*
X0213101Y0068933D01*
X0209164Y0068933D02*
X0203867Y0068933D01*
X0203807Y0068935D01*
X0203746Y0068940D01*
X0203687Y0068949D01*
X0203628Y0068962D01*
X0203569Y0068978D01*
X0203512Y0068998D01*
X0203457Y0069021D01*
X0203402Y0069048D01*
X0203350Y0069077D01*
X0203299Y0069110D01*
X0203250Y0069146D01*
X0203204Y0069184D01*
X0203160Y0069226D01*
X0203118Y0069270D01*
X0203080Y0069316D01*
X0203044Y0069365D01*
X0203011Y0069416D01*
X0202982Y0069468D01*
X0202955Y0069523D01*
X0202932Y0069578D01*
X0202912Y0069635D01*
X0202896Y0069694D01*
X0202883Y0069753D01*
X0202874Y0069812D01*
X0202869Y0069873D01*
X0202867Y0069933D01*
X0202867Y0075383D01*
X0200367Y0075383D02*
X0200367Y0069933D01*
X0200365Y0069873D01*
X0200360Y0069812D01*
X0200351Y0069753D01*
X0200338Y0069694D01*
X0200322Y0069635D01*
X0200302Y0069578D01*
X0200279Y0069523D01*
X0200252Y0069468D01*
X0200223Y0069416D01*
X0200190Y0069365D01*
X0200154Y0069316D01*
X0200116Y0069270D01*
X0200074Y0069226D01*
X0200030Y0069184D01*
X0199984Y0069146D01*
X0199935Y0069110D01*
X0199884Y0069077D01*
X0199832Y0069048D01*
X0199777Y0069021D01*
X0199722Y0068998D01*
X0199665Y0068978D01*
X0199606Y0068962D01*
X0199547Y0068949D01*
X0199488Y0068940D01*
X0199427Y0068935D01*
X0199367Y0068933D01*
X0194069Y0068933D01*
X0190132Y0068933D02*
X0184835Y0068933D01*
X0180898Y0068933D02*
X0175601Y0068933D01*
X0171664Y0068933D02*
X0166367Y0068933D01*
X0166307Y0068935D01*
X0166246Y0068940D01*
X0166187Y0068949D01*
X0166128Y0068962D01*
X0166069Y0068978D01*
X0166012Y0068998D01*
X0165957Y0069021D01*
X0165902Y0069048D01*
X0165850Y0069077D01*
X0165799Y0069110D01*
X0165750Y0069146D01*
X0165704Y0069184D01*
X0165660Y0069226D01*
X0165618Y0069270D01*
X0165580Y0069316D01*
X0165544Y0069365D01*
X0165511Y0069416D01*
X0165482Y0069468D01*
X0165455Y0069523D01*
X0165432Y0069578D01*
X0165412Y0069635D01*
X0165396Y0069694D01*
X0165383Y0069753D01*
X0165374Y0069812D01*
X0165369Y0069873D01*
X0165367Y0069933D01*
X0165367Y0075383D01*
X0162867Y0075383D02*
X0162867Y0069933D01*
X0162865Y0069873D01*
X0162860Y0069812D01*
X0162851Y0069753D01*
X0162838Y0069694D01*
X0162822Y0069635D01*
X0162802Y0069578D01*
X0162779Y0069523D01*
X0162752Y0069468D01*
X0162723Y0069416D01*
X0162690Y0069365D01*
X0162654Y0069316D01*
X0162616Y0069270D01*
X0162574Y0069226D01*
X0162530Y0069184D01*
X0162484Y0069146D01*
X0162435Y0069110D01*
X0162384Y0069077D01*
X0162332Y0069048D01*
X0162277Y0069021D01*
X0162222Y0068998D01*
X0162165Y0068978D01*
X0162106Y0068962D01*
X0162047Y0068949D01*
X0161988Y0068940D01*
X0161927Y0068935D01*
X0161867Y0068933D01*
X0156569Y0068933D01*
X0152632Y0068933D02*
X0147335Y0068933D01*
X0143398Y0068933D02*
X0138101Y0068933D01*
X0134164Y0068933D02*
X0128867Y0068933D01*
X0128807Y0068935D01*
X0128746Y0068940D01*
X0128687Y0068949D01*
X0128628Y0068962D01*
X0128569Y0068978D01*
X0128512Y0068998D01*
X0128457Y0069021D01*
X0128402Y0069048D01*
X0128350Y0069077D01*
X0128299Y0069110D01*
X0128250Y0069146D01*
X0128204Y0069184D01*
X0128160Y0069226D01*
X0128118Y0069270D01*
X0128080Y0069316D01*
X0128044Y0069365D01*
X0128011Y0069416D01*
X0127982Y0069468D01*
X0127955Y0069523D01*
X0127932Y0069578D01*
X0127912Y0069635D01*
X0127896Y0069694D01*
X0127883Y0069753D01*
X0127874Y0069812D01*
X0127869Y0069873D01*
X0127867Y0069933D01*
X0127867Y0075383D01*
X0127867Y0079320D02*
X0127867Y0084771D01*
X0127867Y0088708D02*
X0127867Y0094158D01*
X0127867Y0098095D02*
X0127867Y0103546D01*
X0127867Y0107483D02*
X0127867Y0112933D01*
X0127869Y0112993D01*
X0127874Y0113054D01*
X0127883Y0113113D01*
X0127896Y0113172D01*
X0127912Y0113231D01*
X0127932Y0113288D01*
X0127955Y0113343D01*
X0127982Y0113398D01*
X0128011Y0113450D01*
X0128044Y0113501D01*
X0128080Y0113550D01*
X0128118Y0113596D01*
X0128160Y0113640D01*
X0128204Y0113682D01*
X0128250Y0113720D01*
X0128299Y0113756D01*
X0128350Y0113789D01*
X0128402Y0113818D01*
X0128457Y0113845D01*
X0128512Y0113868D01*
X0128569Y0113888D01*
X0128628Y0113904D01*
X0128687Y0113917D01*
X0128746Y0113926D01*
X0128807Y0113931D01*
X0128867Y0113933D01*
X0134164Y0113933D01*
X0138101Y0113933D02*
X0143398Y0113933D01*
X0147335Y0113933D02*
X0152632Y0113933D01*
X0156569Y0113933D02*
X0161867Y0113933D01*
X0161927Y0113931D01*
X0161988Y0113926D01*
X0162047Y0113917D01*
X0162106Y0113904D01*
X0162165Y0113888D01*
X0162222Y0113868D01*
X0162277Y0113845D01*
X0162332Y0113818D01*
X0162384Y0113789D01*
X0162435Y0113756D01*
X0162484Y0113720D01*
X0162530Y0113682D01*
X0162574Y0113640D01*
X0162616Y0113596D01*
X0162654Y0113550D01*
X0162690Y0113501D01*
X0162723Y0113450D01*
X0162752Y0113398D01*
X0162779Y0113343D01*
X0162802Y0113288D01*
X0162822Y0113231D01*
X0162838Y0113172D01*
X0162851Y0113113D01*
X0162860Y0113054D01*
X0162865Y0112993D01*
X0162867Y0112933D01*
X0162867Y0107483D01*
X0165367Y0107483D02*
X0165367Y0112933D01*
X0165369Y0112993D01*
X0165374Y0113054D01*
X0165383Y0113113D01*
X0165396Y0113172D01*
X0165412Y0113231D01*
X0165432Y0113288D01*
X0165455Y0113343D01*
X0165482Y0113398D01*
X0165511Y0113450D01*
X0165544Y0113501D01*
X0165580Y0113550D01*
X0165618Y0113596D01*
X0165660Y0113640D01*
X0165704Y0113682D01*
X0165750Y0113720D01*
X0165799Y0113756D01*
X0165850Y0113789D01*
X0165902Y0113818D01*
X0165957Y0113845D01*
X0166012Y0113868D01*
X0166069Y0113888D01*
X0166128Y0113904D01*
X0166187Y0113917D01*
X0166246Y0113926D01*
X0166307Y0113931D01*
X0166367Y0113933D01*
X0171664Y0113933D01*
X0175601Y0113933D02*
X0180898Y0113933D01*
X0184835Y0113933D02*
X0190132Y0113933D01*
X0194069Y0113933D02*
X0199367Y0113933D01*
X0199427Y0113931D01*
X0199488Y0113926D01*
X0199547Y0113917D01*
X0199606Y0113904D01*
X0199665Y0113888D01*
X0199722Y0113868D01*
X0199777Y0113845D01*
X0199832Y0113818D01*
X0199884Y0113789D01*
X0199935Y0113756D01*
X0199984Y0113720D01*
X0200030Y0113682D01*
X0200074Y0113640D01*
X0200116Y0113596D01*
X0200154Y0113550D01*
X0200190Y0113501D01*
X0200223Y0113450D01*
X0200252Y0113398D01*
X0200279Y0113343D01*
X0200302Y0113288D01*
X0200322Y0113231D01*
X0200338Y0113172D01*
X0200351Y0113113D01*
X0200360Y0113054D01*
X0200365Y0112993D01*
X0200367Y0112933D01*
X0200367Y0107483D01*
X0202867Y0107483D02*
X0202867Y0112933D01*
X0202869Y0112993D01*
X0202874Y0113054D01*
X0202883Y0113113D01*
X0202896Y0113172D01*
X0202912Y0113231D01*
X0202932Y0113288D01*
X0202955Y0113343D01*
X0202982Y0113398D01*
X0203011Y0113450D01*
X0203044Y0113501D01*
X0203080Y0113550D01*
X0203118Y0113596D01*
X0203160Y0113640D01*
X0203204Y0113682D01*
X0203250Y0113720D01*
X0203299Y0113756D01*
X0203350Y0113789D01*
X0203402Y0113818D01*
X0203457Y0113845D01*
X0203512Y0113868D01*
X0203569Y0113888D01*
X0203628Y0113904D01*
X0203687Y0113917D01*
X0203746Y0113926D01*
X0203807Y0113931D01*
X0203867Y0113933D01*
X0209164Y0113933D01*
X0213101Y0113933D02*
X0218398Y0113933D01*
X0222335Y0113933D02*
X0227632Y0113933D01*
X0231569Y0113933D02*
X0236867Y0113933D01*
X0236927Y0113931D01*
X0236988Y0113926D01*
X0237047Y0113917D01*
X0237106Y0113904D01*
X0237165Y0113888D01*
X0237222Y0113868D01*
X0237277Y0113845D01*
X0237332Y0113818D01*
X0237384Y0113789D01*
X0237435Y0113756D01*
X0237484Y0113720D01*
X0237530Y0113682D01*
X0237574Y0113640D01*
X0237616Y0113596D01*
X0237654Y0113550D01*
X0237690Y0113501D01*
X0237723Y0113450D01*
X0237752Y0113398D01*
X0237779Y0113343D01*
X0237802Y0113288D01*
X0237822Y0113231D01*
X0237838Y0113172D01*
X0237851Y0113113D01*
X0237860Y0113054D01*
X0237865Y0112993D01*
X0237867Y0112933D01*
X0237867Y0107483D01*
X0240367Y0107483D02*
X0240367Y0112933D01*
X0240369Y0112993D01*
X0240374Y0113054D01*
X0240383Y0113113D01*
X0240396Y0113172D01*
X0240412Y0113231D01*
X0240432Y0113288D01*
X0240455Y0113343D01*
X0240482Y0113398D01*
X0240511Y0113450D01*
X0240544Y0113501D01*
X0240580Y0113550D01*
X0240618Y0113596D01*
X0240660Y0113640D01*
X0240704Y0113682D01*
X0240750Y0113720D01*
X0240799Y0113756D01*
X0240850Y0113789D01*
X0240902Y0113818D01*
X0240957Y0113845D01*
X0241012Y0113868D01*
X0241069Y0113888D01*
X0241128Y0113904D01*
X0241187Y0113917D01*
X0241246Y0113926D01*
X0241307Y0113931D01*
X0241367Y0113933D01*
X0246664Y0113933D01*
X0250601Y0113933D02*
X0255898Y0113933D01*
X0259835Y0113933D02*
X0265132Y0113933D01*
X0269069Y0113933D02*
X0274367Y0113933D01*
X0274427Y0113931D01*
X0274488Y0113926D01*
X0274547Y0113917D01*
X0274606Y0113904D01*
X0274665Y0113888D01*
X0274722Y0113868D01*
X0274777Y0113845D01*
X0274832Y0113818D01*
X0274884Y0113789D01*
X0274935Y0113756D01*
X0274984Y0113720D01*
X0275030Y0113682D01*
X0275074Y0113640D01*
X0275116Y0113596D01*
X0275154Y0113550D01*
X0275190Y0113501D01*
X0275223Y0113450D01*
X0275252Y0113398D01*
X0275279Y0113343D01*
X0275302Y0113288D01*
X0275322Y0113231D01*
X0275338Y0113172D01*
X0275351Y0113113D01*
X0275360Y0113054D01*
X0275365Y0112993D01*
X0275367Y0112933D01*
X0294254Y0101433D02*
X0299454Y0101433D01*
X0299454Y0098933D02*
X0294254Y0098933D01*
X0303391Y0098933D02*
X0308592Y0098933D01*
X0308592Y0101433D02*
X0303391Y0101433D01*
X0312529Y0101433D02*
X0317729Y0101433D01*
X0317729Y0098933D02*
X0312529Y0098933D01*
X0240367Y0098095D02*
X0240367Y0103546D01*
X0237867Y0103546D02*
X0237867Y0098095D01*
X0237867Y0094158D02*
X0237867Y0088708D01*
X0240367Y0088708D02*
X0240367Y0094158D01*
X0240367Y0084771D02*
X0240367Y0079320D01*
X0237867Y0079320D02*
X0237867Y0084771D01*
X0202867Y0084771D02*
X0202867Y0079320D01*
X0200367Y0079320D02*
X0200367Y0084771D01*
X0200367Y0088708D02*
X0200367Y0094158D01*
X0202867Y0094158D02*
X0202867Y0088708D01*
X0202867Y0098095D02*
X0202867Y0103546D01*
X0200367Y0103546D02*
X0200367Y0098095D01*
X0165367Y0098095D02*
X0165367Y0103546D01*
X0162867Y0103546D02*
X0162867Y0098095D01*
X0162867Y0094158D02*
X0162867Y0088708D01*
X0165367Y0088708D02*
X0165367Y0094158D01*
X0165367Y0084771D02*
X0165367Y0079320D01*
X0162867Y0079320D02*
X0162867Y0084771D01*
X0162327Y0124933D02*
X0160392Y0124933D01*
X0160392Y0127836D01*
X0162327Y0127836D01*
X0163523Y0127836D02*
X0163523Y0124933D01*
X0163523Y0125901D02*
X0164974Y0125901D01*
X0165458Y0126384D01*
X0165458Y0127352D01*
X0164974Y0127836D01*
X0163523Y0127836D01*
X0164490Y0125901D02*
X0165458Y0124933D01*
X0166653Y0124933D02*
X0166653Y0127836D01*
X0168588Y0124933D01*
X0168588Y0127836D01*
X0168588Y0130033D02*
X0166653Y0130033D01*
X0168588Y0131968D01*
X0168588Y0132452D01*
X0168105Y0132936D01*
X0167137Y0132936D01*
X0166653Y0132452D01*
X0165458Y0131484D02*
X0163523Y0131484D01*
X0162327Y0131484D02*
X0162327Y0130517D01*
X0161843Y0130033D01*
X0160876Y0130033D01*
X0160392Y0130517D01*
X0160392Y0131484D02*
X0161360Y0131968D01*
X0161843Y0131968D01*
X0162327Y0131484D01*
X0162327Y0132936D02*
X0160392Y0132936D01*
X0160392Y0131484D01*
X0159196Y0130033D02*
X0157261Y0130033D01*
X0158229Y0130033D02*
X0158229Y0132936D01*
X0157261Y0131968D01*
X0156066Y0132452D02*
X0154131Y0130517D01*
X0154614Y0130033D01*
X0155582Y0130033D01*
X0156066Y0130517D01*
X0156066Y0132452D01*
X0155582Y0132936D01*
X0154614Y0132936D01*
X0154131Y0132452D01*
X0154131Y0130517D01*
X0152935Y0130033D02*
X0151000Y0130033D01*
X0152935Y0131968D01*
X0152935Y0132452D01*
X0152451Y0132936D01*
X0151484Y0132936D01*
X0151000Y0132452D01*
X0146750Y0131968D02*
X0146750Y0131001D01*
X0145782Y0130033D01*
X0144587Y0130517D02*
X0144103Y0130033D01*
X0143135Y0130033D01*
X0142652Y0130517D01*
X0142652Y0132452D01*
X0143135Y0132936D01*
X0144103Y0132936D01*
X0144587Y0132452D01*
X0145782Y0132936D02*
X0146750Y0131968D01*
X0141532Y0132936D02*
X0140564Y0131968D01*
X0140564Y0131001D01*
X0141532Y0130033D01*
X0142130Y0126868D02*
X0143581Y0126868D01*
X0144065Y0126384D01*
X0144065Y0124933D01*
X0145260Y0125417D02*
X0145260Y0126384D01*
X0145744Y0126868D01*
X0147195Y0126868D01*
X0147195Y0127836D02*
X0147195Y0124933D01*
X0145744Y0124933D01*
X0145260Y0125417D01*
X0148391Y0125417D02*
X0148391Y0126384D01*
X0148875Y0126868D01*
X0149842Y0126868D01*
X0150326Y0126384D01*
X0150326Y0125901D01*
X0148391Y0125901D01*
X0148391Y0125417D02*
X0148875Y0124933D01*
X0149842Y0124933D01*
X0151522Y0124933D02*
X0151522Y0126868D01*
X0152489Y0126868D02*
X0152973Y0126868D01*
X0152489Y0126868D02*
X0151522Y0125901D01*
X0157261Y0125417D02*
X0157261Y0127352D01*
X0157745Y0127836D01*
X0158713Y0127836D01*
X0159196Y0127352D01*
X0160392Y0126384D02*
X0161360Y0126384D01*
X0159196Y0125417D02*
X0158713Y0124933D01*
X0157745Y0124933D01*
X0157261Y0125417D01*
X0169784Y0130517D02*
X0171719Y0132452D01*
X0171719Y0130517D01*
X0171235Y0130033D01*
X0170268Y0130033D01*
X0169784Y0130517D01*
X0169784Y0132452D01*
X0170268Y0132936D01*
X0171235Y0132936D01*
X0171719Y0132452D01*
X0172915Y0132452D02*
X0173398Y0132936D01*
X0174366Y0132936D01*
X0174850Y0132452D01*
X0174850Y0131968D01*
X0172915Y0130033D01*
X0174850Y0130033D01*
X0176045Y0130517D02*
X0177980Y0132452D01*
X0177980Y0130517D01*
X0177497Y0130033D01*
X0176529Y0130033D01*
X0176045Y0130517D01*
X0176045Y0132452D01*
X0176529Y0132936D01*
X0177497Y0132936D01*
X0177980Y0132452D01*
X0182307Y0132936D02*
X0182307Y0130033D01*
X0182307Y0131484D02*
X0184242Y0131484D01*
X0184242Y0130033D02*
X0184242Y0132936D01*
X0185437Y0130517D02*
X0185921Y0130517D01*
X0185921Y0130033D01*
X0185437Y0130033D01*
X0185437Y0130517D01*
X0187003Y0131001D02*
X0188454Y0131001D01*
X0188938Y0131484D01*
X0188938Y0132452D01*
X0188454Y0132936D01*
X0187003Y0132936D01*
X0187003Y0130033D01*
X0190133Y0130517D02*
X0190617Y0130033D01*
X0191585Y0130033D01*
X0192068Y0130517D01*
X0192068Y0131484D01*
X0191585Y0131968D01*
X0190617Y0131968D01*
X0190133Y0131484D01*
X0190133Y0130517D01*
X0190617Y0132936D02*
X0190617Y0133419D01*
X0191585Y0133419D02*
X0191585Y0132936D01*
X0193264Y0131968D02*
X0194232Y0131968D01*
X0193748Y0132452D02*
X0193748Y0130517D01*
X0194232Y0130033D01*
X0195351Y0130033D02*
X0197286Y0130033D01*
X0198482Y0130033D02*
X0199449Y0130033D01*
X0198966Y0130033D02*
X0198966Y0132936D01*
X0198482Y0132936D01*
X0197286Y0131968D02*
X0195351Y0130033D01*
X0195351Y0131968D02*
X0197286Y0131968D01*
X0194715Y0127836D02*
X0193748Y0127836D01*
X0193264Y0127352D01*
X0194715Y0127836D02*
X0195199Y0127352D01*
X0195199Y0126868D01*
X0193264Y0124933D01*
X0195199Y0124933D01*
X0192183Y0124933D02*
X0191699Y0124933D01*
X0191699Y0125417D01*
X0192183Y0125417D01*
X0192183Y0124933D01*
X0190503Y0124933D02*
X0188568Y0124933D01*
X0189536Y0124933D02*
X0189536Y0127836D01*
X0188568Y0126868D01*
X0187372Y0126868D02*
X0186405Y0124933D01*
X0185437Y0126868D01*
X0181111Y0124933D02*
X0179176Y0124933D01*
X0179176Y0127836D01*
X0177980Y0127836D02*
X0177980Y0124933D01*
X0177980Y0126384D02*
X0176045Y0126384D01*
X0176045Y0124933D02*
X0176045Y0127836D01*
X0174850Y0127352D02*
X0174366Y0127836D01*
X0173398Y0127836D01*
X0172915Y0127352D01*
X0172915Y0125417D01*
X0173398Y0124933D01*
X0174366Y0124933D01*
X0174850Y0125417D01*
X0174850Y0127352D01*
X0142130Y0126868D02*
X0142130Y0124933D01*
X0140934Y0124933D02*
X0140934Y0126868D01*
X0138999Y0126868D02*
X0138999Y0125417D01*
X0139483Y0124933D01*
X0140934Y0124933D01*
X0134673Y0124933D02*
X0133222Y0124933D01*
X0132738Y0125417D01*
X0132738Y0126384D01*
X0133222Y0126868D01*
X0134673Y0126868D01*
X0134673Y0127836D02*
X0134673Y0124933D01*
X0131542Y0125901D02*
X0129607Y0125901D01*
X0129607Y0126384D02*
X0130091Y0126868D01*
X0131058Y0126868D01*
X0131542Y0126384D01*
X0131542Y0125901D01*
X0131058Y0124933D02*
X0130091Y0124933D01*
X0129607Y0125417D01*
X0129607Y0126384D01*
X0128411Y0126868D02*
X0126960Y0126868D01*
X0126476Y0126384D01*
X0126960Y0125901D01*
X0127928Y0125901D01*
X0128411Y0125417D01*
X0127928Y0124933D01*
X0126476Y0124933D01*
X0125281Y0124933D02*
X0125281Y0126384D01*
X0124797Y0126868D01*
X0123346Y0126868D01*
X0123346Y0124933D01*
X0122150Y0125901D02*
X0120215Y0125901D01*
X0120215Y0126384D02*
X0120699Y0126868D01*
X0121666Y0126868D01*
X0122150Y0126384D01*
X0122150Y0125901D01*
X0121666Y0124933D02*
X0120699Y0124933D01*
X0120215Y0125417D01*
X0120215Y0126384D01*
X0119019Y0126868D02*
X0117568Y0126868D01*
X0117084Y0126384D01*
X0117084Y0125417D01*
X0117568Y0124933D01*
X0119019Y0124933D01*
X0115965Y0124933D02*
X0114997Y0124933D01*
X0115481Y0124933D02*
X0115481Y0126868D01*
X0114997Y0126868D01*
X0115481Y0127836D02*
X0115481Y0128319D01*
X0115481Y0130033D02*
X0114997Y0130517D01*
X0114997Y0131484D01*
X0115481Y0131968D01*
X0116449Y0131968D01*
X0116932Y0131484D01*
X0116932Y0130517D01*
X0116449Y0130033D01*
X0115481Y0130033D01*
X0113802Y0130517D02*
X0113318Y0130033D01*
X0112350Y0130033D01*
X0111867Y0130517D01*
X0111867Y0132452D01*
X0112350Y0132936D01*
X0113318Y0132936D01*
X0113802Y0132452D01*
X0118128Y0131968D02*
X0118128Y0129066D01*
X0118128Y0130033D02*
X0119579Y0130033D01*
X0120063Y0130517D01*
X0120063Y0131484D01*
X0119579Y0131968D01*
X0118128Y0131968D01*
X0121259Y0131968D02*
X0121259Y0130517D01*
X0121742Y0130033D01*
X0123194Y0130033D01*
X0123194Y0129549D02*
X0122710Y0129066D01*
X0122226Y0129066D01*
X0123194Y0129549D02*
X0123194Y0131968D01*
X0124389Y0131968D02*
X0124389Y0130033D01*
X0124389Y0131001D02*
X0125357Y0131968D01*
X0125841Y0131968D01*
X0126998Y0131968D02*
X0127482Y0131968D01*
X0127482Y0130033D01*
X0126998Y0130033D02*
X0127966Y0130033D01*
X0129085Y0130517D02*
X0129569Y0130033D01*
X0131020Y0130033D01*
X0131020Y0129549D02*
X0131020Y0131968D01*
X0129569Y0131968D01*
X0129085Y0131484D01*
X0129085Y0130517D01*
X0130053Y0129066D02*
X0130537Y0129066D01*
X0131020Y0129549D01*
X0132216Y0130033D02*
X0132216Y0132936D01*
X0132700Y0131968D02*
X0133667Y0131968D01*
X0134151Y0131484D01*
X0134151Y0130033D01*
X0135830Y0130517D02*
X0135830Y0132452D01*
X0135347Y0131968D02*
X0136314Y0131968D01*
X0135830Y0130517D02*
X0136314Y0130033D01*
X0132700Y0131968D02*
X0132216Y0131484D01*
X0127482Y0132936D02*
X0127482Y0133419D01*
X0113802Y0124933D02*
X0111867Y0124933D01*
X0111867Y0127836D01*
X0424867Y0083933D02*
X0427367Y0081433D01*
D11*
X0424867Y0076433D02*
X0427367Y0073933D01*
X0337019Y0132833D02*
X0334918Y0132833D01*
X0334217Y0133534D01*
X0334217Y0134935D01*
X0334918Y0135635D01*
X0337019Y0135635D01*
X0337019Y0137037D02*
X0337019Y0132833D01*
X0332482Y0135635D02*
X0331782Y0135635D01*
X0330380Y0134234D01*
X0330380Y0132833D02*
X0330380Y0135635D01*
X0328579Y0134935D02*
X0328579Y0132833D01*
X0326477Y0132833D01*
X0325776Y0133534D01*
X0326477Y0134234D01*
X0328579Y0134234D01*
X0328579Y0134935D02*
X0327878Y0135635D01*
X0326477Y0135635D01*
X0323975Y0134935D02*
X0323975Y0133534D01*
X0323274Y0132833D01*
X0321873Y0132833D01*
X0321172Y0133534D01*
X0321172Y0134935D01*
X0321873Y0135635D01*
X0323274Y0135635D01*
X0323975Y0134935D01*
X0319371Y0135635D02*
X0318670Y0134935D01*
X0316569Y0134935D01*
X0318670Y0134935D02*
X0319371Y0134234D01*
X0319371Y0133534D01*
X0318670Y0132833D01*
X0316569Y0132833D01*
X0316569Y0137037D01*
X0318670Y0137037D01*
X0319371Y0136336D01*
X0319371Y0135635D01*
X0318871Y0140333D02*
X0320972Y0140333D01*
X0321673Y0141034D01*
X0321673Y0141734D01*
X0320972Y0142435D01*
X0318871Y0142435D01*
X0320972Y0142435D02*
X0321673Y0143135D01*
X0321673Y0143836D01*
X0320972Y0144537D01*
X0318871Y0144537D01*
X0318871Y0140333D01*
X0323474Y0141034D02*
X0323474Y0142435D01*
X0324175Y0143135D01*
X0325576Y0143135D01*
X0326277Y0142435D01*
X0326277Y0141734D01*
X0323474Y0141734D01*
X0323474Y0141034D02*
X0324175Y0140333D01*
X0325576Y0140333D01*
X0328779Y0141034D02*
X0328779Y0143836D01*
X0328078Y0143135D02*
X0329480Y0143135D01*
X0328779Y0141034D02*
X0329480Y0140333D01*
X0331148Y0141034D02*
X0331848Y0141734D01*
X0333950Y0141734D01*
X0333950Y0142435D02*
X0333950Y0140333D01*
X0331848Y0140333D01*
X0331148Y0141034D01*
X0331848Y0143135D02*
X0333249Y0143135D01*
X0333950Y0142435D01*
X0312465Y0144537D02*
X0312465Y0140333D01*
X0309663Y0140333D02*
X0309663Y0144537D01*
X0311064Y0143135D01*
X0312465Y0144537D01*
X0307861Y0143836D02*
X0307161Y0144537D01*
X0305759Y0144537D01*
X0305059Y0143836D01*
X0305059Y0141034D01*
X0305759Y0140333D01*
X0307161Y0140333D01*
X0307861Y0141034D01*
X0307861Y0143836D01*
X0303391Y0144537D02*
X0301989Y0144537D01*
X0302690Y0144537D02*
X0302690Y0140333D01*
X0301989Y0140333D02*
X0303391Y0140333D01*
X0300188Y0140333D02*
X0297386Y0144537D01*
X0295584Y0143135D02*
X0294183Y0144537D01*
X0292782Y0143135D01*
X0292782Y0140333D01*
X0292782Y0142435D02*
X0295584Y0142435D01*
X0295584Y0143135D02*
X0295584Y0140333D01*
X0297386Y0140333D02*
X0300188Y0144537D01*
X0292515Y0136336D02*
X0291814Y0137037D01*
X0289712Y0137037D01*
X0289712Y0132833D01*
X0289712Y0134234D02*
X0291814Y0134234D01*
X0292515Y0134935D01*
X0292515Y0136336D01*
X0294316Y0134935D02*
X0294316Y0133534D01*
X0295017Y0132833D01*
X0296418Y0132833D01*
X0297119Y0133534D01*
X0297119Y0134935D01*
X0296418Y0135635D01*
X0295017Y0135635D01*
X0294316Y0134935D01*
X0298920Y0135635D02*
X0298920Y0133534D01*
X0299621Y0132833D01*
X0300321Y0133534D01*
X0301022Y0132833D01*
X0301723Y0133534D01*
X0301723Y0135635D01*
X0303524Y0134935D02*
X0303524Y0133534D01*
X0304225Y0132833D01*
X0305626Y0132833D01*
X0306327Y0134234D02*
X0303524Y0134234D01*
X0303524Y0134935D02*
X0304225Y0135635D01*
X0305626Y0135635D01*
X0306327Y0134935D01*
X0306327Y0134234D01*
X0308128Y0134234D02*
X0309529Y0135635D01*
X0310230Y0135635D01*
X0308128Y0135635D02*
X0308128Y0132833D01*
X0282079Y0061492D02*
X0281292Y0061492D01*
X0250583Y0061492D02*
X0249796Y0061492D01*
X0219087Y0061492D02*
X0218300Y0061492D01*
X0187591Y0061492D02*
X0186804Y0061492D01*
X0186804Y0031571D02*
X0187591Y0031571D01*
X0218300Y0031571D02*
X0219087Y0031571D01*
X0249796Y0031571D02*
X0250583Y0031571D01*
X0281292Y0031571D02*
X0282079Y0031571D01*
X0282079Y0206374D02*
X0281292Y0206374D01*
X0250583Y0206374D02*
X0249796Y0206374D01*
X0219087Y0206374D02*
X0218300Y0206374D01*
X0187591Y0206374D02*
X0186804Y0206374D01*
X0186804Y0236295D02*
X0187591Y0236295D01*
X0218300Y0236295D02*
X0219087Y0236295D01*
X0249796Y0236295D02*
X0250583Y0236295D01*
X0281292Y0236295D02*
X0282079Y0236295D01*
D12*
X0424867Y0066433D02*
X0427367Y0063933D01*
D13*
X0427367Y0066433D02*
X0424867Y0068933D01*
D14*
X0424867Y0071433D02*
X0427367Y0068933D01*
D15*
X0427367Y0071433D02*
X0424867Y0073933D01*
D16*
X0427367Y0076433D02*
X0424867Y0078933D01*
X0323190Y0029837D02*
X0320321Y0029837D01*
X0321755Y0029837D02*
X0321755Y0025533D01*
X0318586Y0025533D02*
X0315717Y0025533D01*
X0318586Y0028402D01*
X0318586Y0029119D01*
X0317868Y0029837D01*
X0316434Y0029837D01*
X0315717Y0029119D01*
X0313982Y0029837D02*
X0311113Y0025533D01*
X0308661Y0026250D02*
X0308661Y0029837D01*
X0309378Y0029837D02*
X0307943Y0029837D01*
X0311113Y0029837D02*
X0313982Y0025533D01*
X0308661Y0026250D02*
X0307943Y0025533D01*
X0307226Y0025533D01*
X0306509Y0026250D01*
X0307226Y0238033D02*
X0307943Y0238033D01*
X0308661Y0238750D01*
X0308661Y0242337D01*
X0309378Y0242337D02*
X0307943Y0242337D01*
X0311113Y0242337D02*
X0313982Y0238033D01*
X0315717Y0238033D02*
X0318586Y0238033D01*
X0317151Y0238033D02*
X0317151Y0242337D01*
X0315717Y0240902D01*
X0313982Y0242337D02*
X0311113Y0238033D01*
X0307226Y0238033D02*
X0306509Y0238750D01*
X0320321Y0242337D02*
X0323190Y0242337D01*
X0321755Y0242337D02*
X0321755Y0238033D01*
D17*
X0424867Y0081433D02*
X0427367Y0078933D01*
X0385367Y0037433D02*
X0385367Y0025433D01*
X0385365Y0025357D01*
X0385359Y0025281D01*
X0385350Y0025206D01*
X0385336Y0025131D01*
X0385319Y0025057D01*
X0385298Y0024984D01*
X0385274Y0024912D01*
X0385245Y0024841D01*
X0385214Y0024772D01*
X0385179Y0024705D01*
X0385140Y0024640D01*
X0385098Y0024576D01*
X0385053Y0024515D01*
X0385005Y0024456D01*
X0384954Y0024400D01*
X0384900Y0024346D01*
X0384844Y0024295D01*
X0384785Y0024247D01*
X0384724Y0024202D01*
X0384660Y0024160D01*
X0384595Y0024121D01*
X0384528Y0024086D01*
X0384459Y0024055D01*
X0384388Y0024026D01*
X0384316Y0024002D01*
X0384243Y0023981D01*
X0384169Y0023964D01*
X0384094Y0023950D01*
X0384019Y0023941D01*
X0383943Y0023935D01*
X0383867Y0023933D01*
X0366867Y0023933D01*
X0366791Y0023935D01*
X0366715Y0023941D01*
X0366640Y0023950D01*
X0366565Y0023964D01*
X0366491Y0023981D01*
X0366418Y0024002D01*
X0366346Y0024026D01*
X0366275Y0024055D01*
X0366206Y0024086D01*
X0366139Y0024121D01*
X0366074Y0024160D01*
X0366010Y0024202D01*
X0365949Y0024247D01*
X0365890Y0024295D01*
X0365834Y0024346D01*
X0365780Y0024400D01*
X0365729Y0024456D01*
X0365681Y0024515D01*
X0365636Y0024576D01*
X0365594Y0024640D01*
X0365555Y0024705D01*
X0365520Y0024772D01*
X0365489Y0024841D01*
X0365460Y0024912D01*
X0365436Y0024984D01*
X0365415Y0025057D01*
X0365398Y0025131D01*
X0365384Y0025206D01*
X0365375Y0025281D01*
X0365369Y0025357D01*
X0365367Y0025433D01*
X0365367Y0037433D01*
X0365369Y0037509D01*
X0365375Y0037585D01*
X0365384Y0037660D01*
X0365398Y0037735D01*
X0365415Y0037809D01*
X0365436Y0037882D01*
X0365460Y0037954D01*
X0365489Y0038025D01*
X0365520Y0038094D01*
X0365555Y0038161D01*
X0365594Y0038226D01*
X0365636Y0038290D01*
X0365681Y0038351D01*
X0365729Y0038410D01*
X0365780Y0038466D01*
X0365834Y0038520D01*
X0365890Y0038571D01*
X0365949Y0038619D01*
X0366010Y0038664D01*
X0366074Y0038706D01*
X0366139Y0038745D01*
X0366206Y0038780D01*
X0366275Y0038811D01*
X0366346Y0038840D01*
X0366418Y0038864D01*
X0366491Y0038885D01*
X0366565Y0038902D01*
X0366640Y0038916D01*
X0366715Y0038925D01*
X0366791Y0038931D01*
X0366867Y0038933D01*
X0383867Y0038933D01*
X0383943Y0038931D01*
X0384019Y0038925D01*
X0384094Y0038916D01*
X0384169Y0038902D01*
X0384243Y0038885D01*
X0384316Y0038864D01*
X0384388Y0038840D01*
X0384459Y0038811D01*
X0384528Y0038780D01*
X0384595Y0038745D01*
X0384660Y0038706D01*
X0384724Y0038664D01*
X0384785Y0038619D01*
X0384844Y0038571D01*
X0384900Y0038520D01*
X0384954Y0038466D01*
X0385005Y0038410D01*
X0385053Y0038351D01*
X0385098Y0038290D01*
X0385140Y0038226D01*
X0385179Y0038161D01*
X0385214Y0038094D01*
X0385245Y0038025D01*
X0385274Y0037954D01*
X0385298Y0037882D01*
X0385319Y0037809D01*
X0385336Y0037735D01*
X0385350Y0037660D01*
X0385359Y0037585D01*
X0385365Y0037509D01*
X0385367Y0037433D01*
X0382889Y0035569D02*
X0382889Y0035002D01*
X0382322Y0034435D01*
X0381188Y0034435D01*
X0380621Y0035002D01*
X0380621Y0035569D01*
X0381188Y0036136D01*
X0382322Y0036136D01*
X0382889Y0035569D01*
X0382322Y0034435D02*
X0382889Y0033867D01*
X0382889Y0033300D01*
X0382322Y0032733D01*
X0381188Y0032733D01*
X0380621Y0033300D01*
X0380621Y0033867D01*
X0381188Y0034435D01*
X0379206Y0035002D02*
X0378639Y0034435D01*
X0379206Y0033867D01*
X0379206Y0033300D01*
X0378639Y0032733D01*
X0377505Y0032733D01*
X0376937Y0033300D01*
X0375663Y0033300D02*
X0375663Y0032733D01*
X0375096Y0032733D01*
X0375096Y0033300D01*
X0375663Y0033300D01*
X0373681Y0033300D02*
X0373114Y0032733D01*
X0371980Y0032733D01*
X0371413Y0033300D01*
X0373681Y0035569D01*
X0373681Y0033300D01*
X0371413Y0033300D02*
X0371413Y0035569D01*
X0371980Y0036136D01*
X0373114Y0036136D01*
X0373681Y0035569D01*
X0376937Y0035569D02*
X0377505Y0036136D01*
X0378639Y0036136D01*
X0379206Y0035569D01*
X0379206Y0035002D01*
X0378639Y0034435D02*
X0378072Y0034435D01*
X0379346Y0030136D02*
X0378779Y0029569D01*
X0379346Y0030136D02*
X0380480Y0030136D01*
X0381048Y0029569D01*
X0381048Y0029002D01*
X0378779Y0026733D01*
X0381048Y0026733D01*
X0377505Y0026733D02*
X0376937Y0026733D01*
X0376937Y0027300D01*
X0377505Y0027300D01*
X0377505Y0026733D01*
X0375523Y0026733D02*
X0373254Y0026733D01*
X0374389Y0026733D02*
X0374389Y0030136D01*
X0373254Y0029002D01*
X0371840Y0029569D02*
X0371273Y0030136D01*
X0369571Y0030136D01*
X0369571Y0026733D01*
X0369571Y0027867D02*
X0371273Y0027867D01*
X0371840Y0028435D01*
X0371840Y0029569D01*
X0370705Y0027867D02*
X0371840Y0026733D01*
X0368864Y0032733D02*
X0367730Y0033867D01*
X0367730Y0036136D01*
X0369998Y0036136D02*
X0369998Y0033867D01*
X0368864Y0032733D01*
D18*
X0424867Y0086433D02*
X0427367Y0083933D01*
X0178185Y0029185D02*
X0176583Y0029185D01*
X0176583Y0026783D01*
X0175606Y0026783D02*
X0174005Y0026783D01*
X0174005Y0029185D01*
X0173028Y0028785D02*
X0171427Y0027183D01*
X0171827Y0026783D01*
X0172628Y0026783D01*
X0173028Y0027183D01*
X0173028Y0028785D01*
X0172628Y0029185D01*
X0171827Y0029185D01*
X0171427Y0028785D01*
X0171427Y0027183D01*
X0170450Y0027183D02*
X0170050Y0026783D01*
X0169249Y0026783D01*
X0168849Y0027183D01*
X0170450Y0028785D01*
X0170450Y0027183D01*
X0168849Y0027183D02*
X0168849Y0028785D01*
X0169249Y0029185D01*
X0170050Y0029185D01*
X0170450Y0028785D01*
X0167872Y0027984D02*
X0166270Y0027984D01*
X0167471Y0029185D01*
X0167471Y0026783D01*
X0165294Y0026783D02*
X0163692Y0026783D01*
X0164493Y0026783D02*
X0164493Y0029185D01*
X0163692Y0028384D01*
X0162715Y0028785D02*
X0161114Y0027183D01*
X0161514Y0026783D01*
X0162315Y0026783D01*
X0162715Y0027183D01*
X0162715Y0028785D01*
X0162315Y0029185D01*
X0161514Y0029185D01*
X0161114Y0028785D01*
X0161114Y0027183D01*
X0160137Y0026783D02*
X0158536Y0026783D01*
X0159337Y0026783D02*
X0159337Y0029185D01*
X0158536Y0028384D01*
X0157559Y0027984D02*
X0155958Y0027984D01*
X0154981Y0028384D02*
X0154981Y0028785D01*
X0154580Y0029185D01*
X0153780Y0029185D01*
X0153379Y0028785D01*
X0152403Y0028785D02*
X0152403Y0028384D01*
X0152002Y0027984D01*
X0151202Y0027984D01*
X0150801Y0028384D01*
X0150801Y0028785D01*
X0151202Y0029185D01*
X0152002Y0029185D01*
X0152403Y0028785D01*
X0152002Y0027984D02*
X0152403Y0027584D01*
X0152403Y0027183D01*
X0152002Y0026783D01*
X0151202Y0026783D01*
X0150801Y0027183D01*
X0150801Y0027584D01*
X0151202Y0027984D01*
X0149824Y0028785D02*
X0149824Y0027183D01*
X0149424Y0026783D01*
X0148623Y0026783D01*
X0148223Y0027183D01*
X0149824Y0028785D01*
X0149424Y0029185D01*
X0148623Y0029185D01*
X0148223Y0028785D01*
X0148223Y0027183D01*
X0147246Y0026783D02*
X0145645Y0026783D01*
X0146446Y0026783D02*
X0146446Y0029185D01*
X0145645Y0028384D01*
X0144668Y0027584D02*
X0144268Y0027984D01*
X0143067Y0027984D01*
X0143067Y0027183D01*
X0143467Y0026783D01*
X0144268Y0026783D01*
X0144668Y0027183D01*
X0144668Y0027584D01*
X0143867Y0028785D02*
X0144668Y0029185D01*
X0143867Y0028785D02*
X0143067Y0027984D01*
X0153379Y0026783D02*
X0154981Y0028384D01*
X0154981Y0026783D02*
X0153379Y0026783D01*
X0176583Y0027984D02*
X0177384Y0027984D01*
X0176583Y0238783D02*
X0176583Y0241185D01*
X0178185Y0241185D01*
X0177384Y0239984D02*
X0176583Y0239984D01*
X0175606Y0238783D02*
X0174005Y0238783D01*
X0174005Y0241185D01*
X0173028Y0240785D02*
X0171427Y0239183D01*
X0171827Y0238783D01*
X0172628Y0238783D01*
X0173028Y0239183D01*
X0173028Y0240785D01*
X0172628Y0241185D01*
X0171827Y0241185D01*
X0171427Y0240785D01*
X0171427Y0239183D01*
X0170450Y0239183D02*
X0170050Y0238783D01*
X0169249Y0238783D01*
X0168849Y0239183D01*
X0170450Y0240785D01*
X0170450Y0239183D01*
X0168849Y0239183D02*
X0168849Y0240785D01*
X0169249Y0241185D01*
X0170050Y0241185D01*
X0170450Y0240785D01*
X0167872Y0239984D02*
X0166270Y0239984D01*
X0167471Y0241185D01*
X0167471Y0238783D01*
X0165294Y0238783D02*
X0163692Y0238783D01*
X0164493Y0238783D02*
X0164493Y0241185D01*
X0163692Y0240384D01*
X0162715Y0240785D02*
X0161114Y0239183D01*
X0161514Y0238783D01*
X0162315Y0238783D01*
X0162715Y0239183D01*
X0162715Y0240785D01*
X0162315Y0241185D01*
X0161514Y0241185D01*
X0161114Y0240785D01*
X0161114Y0239183D01*
X0160137Y0238783D02*
X0158536Y0238783D01*
X0159337Y0238783D02*
X0159337Y0241185D01*
X0158536Y0240384D01*
X0157559Y0239984D02*
X0155958Y0239984D01*
X0154981Y0240384D02*
X0154981Y0240785D01*
X0154580Y0241185D01*
X0153780Y0241185D01*
X0153379Y0240785D01*
X0152403Y0240785D02*
X0152403Y0240384D01*
X0152002Y0239984D01*
X0151202Y0239984D01*
X0150801Y0240384D01*
X0150801Y0240785D01*
X0151202Y0241185D01*
X0152002Y0241185D01*
X0152403Y0240785D01*
X0152002Y0239984D02*
X0152403Y0239584D01*
X0152403Y0239183D01*
X0152002Y0238783D01*
X0151202Y0238783D01*
X0150801Y0239183D01*
X0150801Y0239584D01*
X0151202Y0239984D01*
X0149824Y0239183D02*
X0149424Y0238783D01*
X0148623Y0238783D01*
X0148223Y0239183D01*
X0149824Y0240785D01*
X0149824Y0239183D01*
X0148223Y0239183D02*
X0148223Y0240785D01*
X0148623Y0241185D01*
X0149424Y0241185D01*
X0149824Y0240785D01*
X0147246Y0238783D02*
X0145645Y0238783D01*
X0146446Y0238783D02*
X0146446Y0241185D01*
X0145645Y0240384D01*
X0144668Y0239584D02*
X0144268Y0239984D01*
X0143067Y0239984D01*
X0143067Y0239183D01*
X0143467Y0238783D01*
X0144268Y0238783D01*
X0144668Y0239183D01*
X0144668Y0239584D01*
X0143867Y0240785D02*
X0143067Y0239984D01*
X0143867Y0240785D02*
X0144668Y0241185D01*
X0153379Y0238783D02*
X0154981Y0240384D01*
X0154981Y0238783D02*
X0153379Y0238783D01*
D19*
X0126066Y0198219D02*
X0125716Y0198219D01*
X0125366Y0197869D01*
X0125366Y0197168D01*
X0125015Y0196818D01*
X0124665Y0196818D01*
X0124315Y0197168D01*
X0124315Y0197869D01*
X0124665Y0198219D01*
X0126066Y0198219D02*
X0126417Y0197869D01*
X0126417Y0197168D01*
X0126066Y0196818D01*
X0126066Y0196009D02*
X0124665Y0196009D01*
X0124315Y0195659D01*
X0124315Y0194608D01*
X0126417Y0194608D01*
X0126417Y0195659D01*
X0126066Y0196009D01*
X0126066Y0193799D02*
X0124665Y0193799D01*
X0126066Y0192398D01*
X0126417Y0192748D01*
X0126417Y0193449D01*
X0126066Y0193799D01*
X0124665Y0193799D02*
X0124315Y0193449D01*
X0124315Y0192748D01*
X0124665Y0192398D01*
X0126066Y0192398D01*
X0126417Y0191589D02*
X0126417Y0190188D01*
X0125015Y0191589D01*
X0124665Y0191589D01*
X0124315Y0191239D01*
X0124315Y0190538D01*
X0124665Y0190188D01*
X0125366Y0189379D02*
X0125366Y0187978D01*
X0125015Y0187169D02*
X0124665Y0187169D01*
X0124315Y0186819D01*
X0124315Y0186119D01*
X0124665Y0185768D01*
X0125015Y0187169D02*
X0126417Y0185768D01*
X0126417Y0187169D01*
X0126417Y0184960D02*
X0126417Y0183558D01*
X0126417Y0184259D02*
X0124315Y0184259D01*
X0125015Y0183558D01*
X0124315Y0182750D02*
X0124315Y0181348D01*
X0126417Y0181348D01*
X0126066Y0180540D02*
X0124665Y0180540D01*
X0124315Y0180189D01*
X0124315Y0179139D01*
X0126417Y0179139D01*
X0126417Y0180189D01*
X0126066Y0180540D01*
X0125366Y0181348D02*
X0125366Y0182049D01*
X0339315Y0087869D02*
X0339315Y0087168D01*
X0339665Y0086818D01*
X0340015Y0086818D01*
X0340366Y0087168D01*
X0340366Y0087869D01*
X0340716Y0088219D01*
X0341066Y0088219D01*
X0341417Y0087869D01*
X0341417Y0087168D01*
X0341066Y0086818D01*
X0341066Y0086009D02*
X0339665Y0086009D01*
X0339315Y0085659D01*
X0339315Y0084608D01*
X0341417Y0084608D01*
X0341417Y0085659D01*
X0341066Y0086009D01*
X0341066Y0083799D02*
X0339665Y0083799D01*
X0341066Y0082398D01*
X0341417Y0082748D01*
X0341417Y0083449D01*
X0341066Y0083799D01*
X0339665Y0083799D02*
X0339315Y0083449D01*
X0339315Y0082748D01*
X0339665Y0082398D01*
X0341066Y0082398D01*
X0341417Y0081589D02*
X0341417Y0080188D01*
X0340015Y0081589D01*
X0339665Y0081589D01*
X0339315Y0081239D01*
X0339315Y0080538D01*
X0339665Y0080188D01*
X0340366Y0079379D02*
X0340366Y0077978D01*
X0340015Y0077169D02*
X0339665Y0077169D01*
X0339315Y0076819D01*
X0339315Y0076119D01*
X0339665Y0075768D01*
X0340015Y0077169D02*
X0341417Y0075768D01*
X0341417Y0077169D01*
X0341417Y0074960D02*
X0341417Y0073558D01*
X0341417Y0074259D02*
X0339315Y0074259D01*
X0340015Y0073558D01*
X0339315Y0072750D02*
X0339315Y0071348D01*
X0341417Y0071348D01*
X0341066Y0070540D02*
X0339665Y0070540D01*
X0339315Y0070189D01*
X0339315Y0069139D01*
X0341417Y0069139D01*
X0341417Y0070189D01*
X0341066Y0070540D01*
X0340366Y0071348D02*
X0340366Y0072049D01*
X0339315Y0087869D02*
X0339665Y0088219D01*
X0424867Y0088933D02*
X0427367Y0086433D01*
D20*
X0427367Y0088933D02*
X0424867Y0091433D01*
D21*
X0424867Y0093933D02*
X0427367Y0091433D01*
D22*
X0335367Y0237683D03*
D23*
X0362867Y0237683D03*
M02*
