G75*
%MOIN*%
%OFA0B0*%
%FSLAX25Y25*%
%IPPOS*%
%LPD*%
%AMOC8*
5,1,8,0,0,1.08239X$1,22.5*
%
%ADD10C,0.00600*%
%ADD11C,0.00550*%
D10*
X0100135Y0054564D02*
X0100135Y0064300D01*
X0102103Y0062800D02*
X0102103Y0054564D01*
X0106040Y0054564D02*
X0106040Y0064300D01*
X0108009Y0062800D02*
X0108009Y0054564D01*
X0111946Y0054564D02*
X0111946Y0064300D01*
X0113914Y0062800D02*
X0113914Y0054564D01*
X0117851Y0054564D02*
X0117851Y0064300D01*
X0119820Y0062800D02*
X0119820Y0054564D01*
X0123757Y0054564D02*
X0123757Y0064300D01*
X0125725Y0062800D02*
X0125725Y0054564D01*
X0129662Y0054564D02*
X0129662Y0064300D01*
X0131631Y0062800D02*
X0131631Y0054564D01*
X0135568Y0054564D02*
X0135568Y0064300D01*
X0137536Y0062800D02*
X0137536Y0054564D01*
X0141473Y0054564D02*
X0141473Y0064300D01*
X0143442Y0062800D02*
X0143442Y0054564D01*
X0147379Y0054564D02*
X0147379Y0064300D01*
X0149347Y0062800D02*
X0149347Y0054564D01*
X0153284Y0054564D02*
X0153284Y0064103D01*
X0153284Y0064300D01*
X0155253Y0062800D02*
X0155253Y0062603D01*
X0155253Y0054564D01*
X0159190Y0054564D02*
X0159190Y0064103D01*
X0159190Y0064300D01*
X0161158Y0062800D02*
X0161158Y0062603D01*
X0161158Y0054564D01*
X0165095Y0054564D02*
X0165095Y0064103D01*
X0165095Y0064300D01*
X0167064Y0062800D02*
X0167064Y0062603D01*
X0167064Y0054564D01*
X0171001Y0054564D02*
X0171001Y0064103D01*
X0171001Y0064300D01*
X0172969Y0062800D02*
X0172969Y0062603D01*
X0172969Y0054564D01*
X0176906Y0054564D02*
X0176906Y0064103D01*
X0176906Y0064300D01*
X0178875Y0062800D02*
X0178875Y0062603D01*
X0178875Y0054564D01*
X0182812Y0054564D02*
X0182812Y0064103D01*
X0182812Y0064300D01*
X0184780Y0062800D02*
X0184780Y0062603D01*
X0184780Y0054564D01*
X0188717Y0054564D02*
X0188717Y0064103D01*
X0188717Y0064300D01*
X0190686Y0062800D02*
X0190686Y0062603D01*
X0190686Y0054564D01*
X0194623Y0054564D02*
X0194623Y0064103D01*
X0194623Y0064300D01*
X0196591Y0062800D02*
X0196591Y0062603D01*
X0196591Y0054564D01*
X0200528Y0054564D02*
X0200528Y0064103D01*
X0200528Y0064300D01*
X0202497Y0062800D02*
X0202497Y0062603D01*
X0202497Y0054564D01*
X0206434Y0054564D02*
X0206434Y0064103D01*
X0206434Y0064300D01*
X0208402Y0062800D02*
X0208402Y0062603D01*
X0208402Y0054564D01*
X0192654Y0240300D02*
X0192654Y0240497D01*
X0192654Y0250036D01*
X0190686Y0250036D02*
X0190686Y0241997D01*
X0190686Y0241800D01*
X0186749Y0240497D02*
X0186749Y0240300D01*
X0186749Y0240497D02*
X0186749Y0250036D01*
X0184780Y0250036D02*
X0184780Y0241997D01*
X0184780Y0241800D01*
X0180843Y0240497D02*
X0180843Y0240300D01*
X0180843Y0240497D02*
X0180843Y0250036D01*
X0178875Y0250036D02*
X0178875Y0241997D01*
X0178875Y0241800D01*
X0174938Y0240497D02*
X0174938Y0240300D01*
X0174938Y0240497D02*
X0174938Y0250036D01*
X0172969Y0250036D02*
X0172969Y0241997D01*
X0172969Y0241800D01*
X0169032Y0240497D02*
X0169032Y0240300D01*
X0169032Y0240497D02*
X0169032Y0250036D01*
X0167064Y0250036D02*
X0167064Y0241997D01*
X0167064Y0241800D01*
X0163127Y0240497D02*
X0163127Y0240300D01*
X0163127Y0240497D02*
X0163127Y0250036D01*
X0161158Y0250036D02*
X0161158Y0241997D01*
X0161158Y0241800D01*
X0157221Y0240497D02*
X0157221Y0240300D01*
X0157221Y0240497D02*
X0157221Y0250036D01*
X0155253Y0250036D02*
X0155253Y0241997D01*
X0155253Y0241800D01*
X0151316Y0240300D02*
X0151316Y0250036D01*
X0149347Y0250036D02*
X0149347Y0241800D01*
X0145410Y0240300D02*
X0145410Y0250036D01*
X0143442Y0250036D02*
X0143442Y0241800D01*
X0139505Y0240300D02*
X0139505Y0250036D01*
X0137536Y0250036D02*
X0137536Y0241800D01*
X0133599Y0240300D02*
X0133599Y0250036D01*
X0131631Y0250036D02*
X0131631Y0241800D01*
X0127694Y0240300D02*
X0127694Y0250036D01*
X0125725Y0250036D02*
X0125725Y0241800D01*
X0121788Y0240300D02*
X0121788Y0250036D01*
X0119820Y0250036D02*
X0119820Y0241800D01*
X0115883Y0240300D02*
X0115883Y0250036D01*
X0113914Y0250036D02*
X0113914Y0241800D01*
X0109977Y0240300D02*
X0109977Y0250036D01*
X0108009Y0250036D02*
X0108009Y0241800D01*
X0104072Y0240300D02*
X0104072Y0250036D01*
X0102103Y0250036D02*
X0102103Y0241800D01*
X0098166Y0240300D02*
X0098166Y0250036D01*
X0096198Y0250036D02*
X0096198Y0241800D01*
D11*
X0096198Y0229564D02*
X0096198Y0227566D01*
X0094961Y0226211D02*
X0094893Y0226282D01*
X0094828Y0226355D01*
X0094766Y0226431D01*
X0094706Y0226510D01*
X0094650Y0226590D01*
X0094597Y0226673D01*
X0094548Y0226757D01*
X0094501Y0226844D01*
X0094459Y0226932D01*
X0094419Y0227022D01*
X0094384Y0227114D01*
X0094351Y0227206D01*
X0094323Y0227300D01*
X0094298Y0227395D01*
X0094277Y0227491D01*
X0094260Y0227588D01*
X0094246Y0227685D01*
X0094237Y0227783D01*
X0094231Y0227881D01*
X0094229Y0227979D01*
X0094229Y0229564D01*
X0094961Y0226211D02*
X0097868Y0223304D01*
X0098968Y0223760D02*
X0096930Y0225798D01*
X0096862Y0225869D01*
X0096797Y0225942D01*
X0096735Y0226018D01*
X0096675Y0226097D01*
X0096619Y0226177D01*
X0096566Y0226260D01*
X0096517Y0226344D01*
X0096470Y0226431D01*
X0096428Y0226519D01*
X0096388Y0226609D01*
X0096353Y0226701D01*
X0096320Y0226793D01*
X0096292Y0226887D01*
X0096267Y0226982D01*
X0096246Y0227078D01*
X0096229Y0227175D01*
X0096215Y0227272D01*
X0096206Y0227370D01*
X0096200Y0227468D01*
X0096198Y0227566D01*
X0100135Y0228073D02*
X0100135Y0229564D01*
X0102103Y0229564D02*
X0102103Y0227661D01*
X0100867Y0226305D02*
X0100799Y0226376D01*
X0100734Y0226449D01*
X0100672Y0226525D01*
X0100612Y0226604D01*
X0100556Y0226684D01*
X0100503Y0226767D01*
X0100454Y0226851D01*
X0100407Y0226938D01*
X0100365Y0227026D01*
X0100325Y0227116D01*
X0100290Y0227208D01*
X0100257Y0227300D01*
X0100229Y0227394D01*
X0100204Y0227489D01*
X0100183Y0227585D01*
X0100166Y0227682D01*
X0100152Y0227779D01*
X0100143Y0227877D01*
X0100137Y0227975D01*
X0100135Y0228073D01*
X0100867Y0226306D02*
X0102868Y0224304D01*
X0103968Y0224760D02*
X0102835Y0225893D01*
X0102767Y0225964D01*
X0102702Y0226037D01*
X0102640Y0226113D01*
X0102580Y0226192D01*
X0102524Y0226272D01*
X0102471Y0226355D01*
X0102422Y0226439D01*
X0102375Y0226526D01*
X0102333Y0226614D01*
X0102293Y0226704D01*
X0102258Y0226796D01*
X0102225Y0226888D01*
X0102197Y0226982D01*
X0102172Y0227077D01*
X0102151Y0227173D01*
X0102134Y0227270D01*
X0102120Y0227367D01*
X0102111Y0227465D01*
X0102105Y0227563D01*
X0102103Y0227661D01*
X0106040Y0228168D02*
X0106040Y0229564D01*
X0108009Y0229564D02*
X0108009Y0227755D01*
X0106772Y0226400D02*
X0106704Y0226471D01*
X0106639Y0226544D01*
X0106577Y0226620D01*
X0106517Y0226699D01*
X0106461Y0226779D01*
X0106408Y0226862D01*
X0106359Y0226946D01*
X0106312Y0227033D01*
X0106270Y0227121D01*
X0106230Y0227211D01*
X0106195Y0227303D01*
X0106162Y0227395D01*
X0106134Y0227489D01*
X0106109Y0227584D01*
X0106088Y0227680D01*
X0106071Y0227777D01*
X0106057Y0227874D01*
X0106048Y0227972D01*
X0106042Y0228070D01*
X0106040Y0228168D01*
X0106772Y0226400D02*
X0107868Y0225304D01*
X0108741Y0225987D02*
X0108968Y0225760D01*
X0109700Y0223992D02*
X0109700Y0197786D01*
X0108600Y0197786D02*
X0108600Y0223537D01*
X0109700Y0223992D02*
X0109698Y0224090D01*
X0109692Y0224188D01*
X0109683Y0224286D01*
X0109669Y0224383D01*
X0109652Y0224480D01*
X0109631Y0224576D01*
X0109606Y0224671D01*
X0109578Y0224765D01*
X0109545Y0224857D01*
X0109510Y0224949D01*
X0109470Y0225039D01*
X0109428Y0225127D01*
X0109381Y0225214D01*
X0109332Y0225298D01*
X0109279Y0225381D01*
X0109223Y0225461D01*
X0109163Y0225540D01*
X0109101Y0225616D01*
X0109036Y0225689D01*
X0108968Y0225760D01*
X0108741Y0225987D02*
X0108673Y0226058D01*
X0108608Y0226131D01*
X0108546Y0226207D01*
X0108486Y0226286D01*
X0108430Y0226366D01*
X0108377Y0226449D01*
X0108328Y0226533D01*
X0108281Y0226620D01*
X0108239Y0226708D01*
X0108199Y0226798D01*
X0108164Y0226890D01*
X0108131Y0226982D01*
X0108103Y0227076D01*
X0108078Y0227171D01*
X0108057Y0227267D01*
X0108040Y0227364D01*
X0108026Y0227461D01*
X0108017Y0227559D01*
X0108011Y0227657D01*
X0108009Y0227755D01*
X0111946Y0227434D02*
X0111946Y0229564D01*
X0113914Y0229564D02*
X0113914Y0227021D01*
X0114061Y0226668D02*
X0114700Y0226028D01*
X0114700Y0202786D01*
X0113600Y0202786D02*
X0113600Y0225572D01*
X0112092Y0227080D01*
X0112063Y0227113D01*
X0112036Y0227147D01*
X0112013Y0227184D01*
X0111993Y0227223D01*
X0111976Y0227263D01*
X0111963Y0227305D01*
X0111954Y0227347D01*
X0111948Y0227390D01*
X0111946Y0227434D01*
X0113914Y0227021D02*
X0113916Y0226977D01*
X0113922Y0226934D01*
X0113931Y0226892D01*
X0113944Y0226850D01*
X0113961Y0226810D01*
X0113981Y0226771D01*
X0114004Y0226734D01*
X0114031Y0226700D01*
X0114060Y0226667D01*
X0117851Y0227256D02*
X0117851Y0229564D01*
X0119820Y0229564D02*
X0119820Y0226588D01*
X0119700Y0226300D02*
X0119700Y0197786D01*
X0118600Y0197786D02*
X0118600Y0226093D01*
X0118454Y0226446D02*
X0117998Y0226903D01*
X0117997Y0226902D02*
X0117968Y0226935D01*
X0117941Y0226969D01*
X0117918Y0227006D01*
X0117898Y0227045D01*
X0117881Y0227085D01*
X0117868Y0227127D01*
X0117859Y0227169D01*
X0117853Y0227212D01*
X0117851Y0227256D01*
X0118454Y0226447D02*
X0118483Y0226414D01*
X0118510Y0226380D01*
X0118533Y0226343D01*
X0118553Y0226304D01*
X0118570Y0226264D01*
X0118583Y0226222D01*
X0118592Y0226180D01*
X0118598Y0226137D01*
X0118600Y0226093D01*
X0119700Y0226300D02*
X0119724Y0226326D01*
X0119745Y0226355D01*
X0119764Y0226384D01*
X0119781Y0226416D01*
X0119794Y0226449D01*
X0119805Y0226483D01*
X0119813Y0226517D01*
X0119817Y0226553D01*
X0119819Y0226588D01*
X0123680Y0226474D02*
X0123700Y0226508D01*
X0123717Y0226544D01*
X0123731Y0226581D01*
X0123742Y0226619D01*
X0123751Y0226658D01*
X0123755Y0226697D01*
X0123757Y0226737D01*
X0123757Y0229564D01*
X0125725Y0229564D02*
X0125725Y0227304D01*
X0125579Y0226951D02*
X0124993Y0226365D01*
X0124700Y0225658D02*
X0124700Y0202786D01*
X0123600Y0202786D02*
X0123600Y0226203D01*
X0123602Y0226244D01*
X0123607Y0226284D01*
X0123615Y0226324D01*
X0123626Y0226363D01*
X0123641Y0226401D01*
X0123659Y0226438D01*
X0123679Y0226473D01*
X0125579Y0226950D02*
X0125608Y0226983D01*
X0125635Y0227017D01*
X0125658Y0227054D01*
X0125678Y0227093D01*
X0125695Y0227133D01*
X0125708Y0227175D01*
X0125717Y0227217D01*
X0125723Y0227260D01*
X0125725Y0227304D01*
X0124993Y0226365D02*
X0124951Y0226321D01*
X0124913Y0226275D01*
X0124877Y0226226D01*
X0124844Y0226175D01*
X0124815Y0226123D01*
X0124788Y0226068D01*
X0124765Y0226013D01*
X0124745Y0225956D01*
X0124729Y0225897D01*
X0124716Y0225838D01*
X0124707Y0225779D01*
X0124702Y0225718D01*
X0124700Y0225658D01*
X0128600Y0225114D02*
X0128600Y0197786D01*
X0129700Y0197786D02*
X0129700Y0224865D01*
X0128600Y0225114D02*
X0128602Y0225174D01*
X0128607Y0225235D01*
X0128616Y0225294D01*
X0128629Y0225353D01*
X0128645Y0225412D01*
X0128665Y0225469D01*
X0128688Y0225524D01*
X0128715Y0225579D01*
X0128744Y0225631D01*
X0128777Y0225682D01*
X0128813Y0225731D01*
X0128851Y0225777D01*
X0128893Y0225821D01*
X0129516Y0226443D01*
X0129662Y0226797D02*
X0129662Y0229564D01*
X0131631Y0229564D02*
X0131631Y0227210D01*
X0131484Y0226856D02*
X0129847Y0225219D01*
X0129846Y0225219D02*
X0129817Y0225186D01*
X0129790Y0225152D01*
X0129767Y0225115D01*
X0129747Y0225076D01*
X0129730Y0225036D01*
X0129717Y0224994D01*
X0129708Y0224952D01*
X0129702Y0224909D01*
X0129700Y0224865D01*
X0129516Y0226443D02*
X0129545Y0226476D01*
X0129572Y0226510D01*
X0129595Y0226547D01*
X0129615Y0226586D01*
X0129632Y0226626D01*
X0129645Y0226668D01*
X0129654Y0226710D01*
X0129660Y0226753D01*
X0129662Y0226797D01*
X0131485Y0226856D02*
X0131514Y0226889D01*
X0131541Y0226923D01*
X0131564Y0226960D01*
X0131584Y0226999D01*
X0131601Y0227039D01*
X0131614Y0227081D01*
X0131623Y0227123D01*
X0131629Y0227166D01*
X0131631Y0227210D01*
X0134836Y0225763D02*
X0134904Y0225834D01*
X0134969Y0225907D01*
X0135031Y0225983D01*
X0135091Y0226062D01*
X0135147Y0226142D01*
X0135200Y0226225D01*
X0135249Y0226309D01*
X0135296Y0226396D01*
X0135338Y0226484D01*
X0135378Y0226574D01*
X0135413Y0226666D01*
X0135446Y0226758D01*
X0135474Y0226852D01*
X0135499Y0226947D01*
X0135520Y0227043D01*
X0135537Y0227140D01*
X0135551Y0227237D01*
X0135560Y0227335D01*
X0135566Y0227433D01*
X0135568Y0227531D01*
X0135568Y0229564D01*
X0137536Y0227944D02*
X0137534Y0227846D01*
X0137528Y0227748D01*
X0137519Y0227650D01*
X0137505Y0227553D01*
X0137488Y0227456D01*
X0137467Y0227360D01*
X0137442Y0227265D01*
X0137414Y0227171D01*
X0137381Y0227079D01*
X0137346Y0226987D01*
X0137306Y0226897D01*
X0137264Y0226809D01*
X0137217Y0226722D01*
X0137168Y0226638D01*
X0137115Y0226555D01*
X0137059Y0226475D01*
X0136999Y0226396D01*
X0136937Y0226320D01*
X0136872Y0226247D01*
X0136804Y0226176D01*
X0135433Y0224804D01*
X0134835Y0225763D02*
X0134333Y0225260D01*
X0133600Y0223492D02*
X0133600Y0202786D01*
X0134700Y0202786D02*
X0134700Y0223037D01*
X0133600Y0223492D02*
X0133602Y0223590D01*
X0133608Y0223688D01*
X0133617Y0223786D01*
X0133631Y0223883D01*
X0133648Y0223980D01*
X0133669Y0224076D01*
X0133694Y0224171D01*
X0133722Y0224265D01*
X0133755Y0224357D01*
X0133790Y0224449D01*
X0133830Y0224539D01*
X0133872Y0224627D01*
X0133919Y0224714D01*
X0133968Y0224798D01*
X0134021Y0224881D01*
X0134077Y0224961D01*
X0134137Y0225040D01*
X0134199Y0225116D01*
X0134264Y0225189D01*
X0134332Y0225260D01*
X0135432Y0224805D02*
X0135364Y0224734D01*
X0135299Y0224661D01*
X0135237Y0224585D01*
X0135177Y0224506D01*
X0135121Y0224426D01*
X0135068Y0224343D01*
X0135019Y0224259D01*
X0134972Y0224172D01*
X0134930Y0224084D01*
X0134890Y0223994D01*
X0134855Y0223902D01*
X0134822Y0223810D01*
X0134794Y0223716D01*
X0134769Y0223621D01*
X0134748Y0223525D01*
X0134731Y0223428D01*
X0134717Y0223331D01*
X0134708Y0223233D01*
X0134702Y0223135D01*
X0134700Y0223037D01*
X0138600Y0222492D02*
X0138600Y0197786D01*
X0139700Y0197786D02*
X0139700Y0222037D01*
X0138600Y0222492D02*
X0138602Y0222590D01*
X0138608Y0222688D01*
X0138617Y0222786D01*
X0138631Y0222883D01*
X0138648Y0222980D01*
X0138669Y0223076D01*
X0138694Y0223171D01*
X0138722Y0223265D01*
X0138755Y0223357D01*
X0138790Y0223449D01*
X0138830Y0223539D01*
X0138872Y0223627D01*
X0138919Y0223714D01*
X0138968Y0223798D01*
X0139021Y0223881D01*
X0139077Y0223961D01*
X0139137Y0224040D01*
X0139199Y0224116D01*
X0139264Y0224189D01*
X0139332Y0224260D01*
X0139333Y0224260D02*
X0140741Y0225668D01*
X0140433Y0223804D02*
X0142709Y0226081D01*
X0141473Y0227436D02*
X0141473Y0229564D01*
X0143442Y0227849D02*
X0143440Y0227751D01*
X0143434Y0227653D01*
X0143425Y0227555D01*
X0143411Y0227458D01*
X0143394Y0227361D01*
X0143373Y0227265D01*
X0143348Y0227170D01*
X0143320Y0227076D01*
X0143287Y0226984D01*
X0143252Y0226892D01*
X0143212Y0226802D01*
X0143170Y0226714D01*
X0143123Y0226627D01*
X0143074Y0226543D01*
X0143021Y0226460D01*
X0142965Y0226380D01*
X0142905Y0226301D01*
X0142843Y0226225D01*
X0142778Y0226152D01*
X0142710Y0226081D01*
X0143442Y0227849D02*
X0143442Y0229564D01*
X0147379Y0227342D02*
X0147377Y0227244D01*
X0147371Y0227146D01*
X0147362Y0227048D01*
X0147348Y0226951D01*
X0147331Y0226854D01*
X0147310Y0226758D01*
X0147285Y0226663D01*
X0147257Y0226569D01*
X0147224Y0226477D01*
X0147189Y0226385D01*
X0147149Y0226295D01*
X0147107Y0226207D01*
X0147060Y0226120D01*
X0147011Y0226036D01*
X0146958Y0225953D01*
X0146902Y0225873D01*
X0146842Y0225794D01*
X0146780Y0225718D01*
X0146715Y0225645D01*
X0146647Y0225574D01*
X0144333Y0223260D01*
X0145433Y0222804D02*
X0148615Y0225987D01*
X0147379Y0227342D02*
X0147379Y0229564D01*
X0149347Y0227755D02*
X0149345Y0227657D01*
X0149339Y0227559D01*
X0149330Y0227461D01*
X0149316Y0227364D01*
X0149299Y0227267D01*
X0149278Y0227171D01*
X0149253Y0227076D01*
X0149225Y0226982D01*
X0149192Y0226890D01*
X0149157Y0226798D01*
X0149117Y0226708D01*
X0149075Y0226620D01*
X0149028Y0226533D01*
X0148979Y0226449D01*
X0148926Y0226366D01*
X0148870Y0226286D01*
X0148810Y0226207D01*
X0148748Y0226131D01*
X0148683Y0226058D01*
X0148615Y0225987D01*
X0149347Y0227755D02*
X0149347Y0229564D01*
X0153284Y0229564D02*
X0153284Y0226823D01*
X0153431Y0226470D02*
X0153454Y0226446D01*
X0153600Y0226093D02*
X0153600Y0202786D01*
X0154700Y0202786D02*
X0154700Y0226093D01*
X0154847Y0226446D02*
X0155106Y0226706D01*
X0155253Y0227059D02*
X0155253Y0229564D01*
X0155253Y0227059D02*
X0155251Y0227015D01*
X0155245Y0226972D01*
X0155236Y0226930D01*
X0155223Y0226888D01*
X0155206Y0226848D01*
X0155186Y0226809D01*
X0155163Y0226772D01*
X0155136Y0226738D01*
X0155107Y0226705D01*
X0154846Y0226447D02*
X0154817Y0226414D01*
X0154790Y0226380D01*
X0154767Y0226343D01*
X0154747Y0226304D01*
X0154730Y0226264D01*
X0154717Y0226222D01*
X0154708Y0226180D01*
X0154702Y0226137D01*
X0154700Y0226093D01*
X0153430Y0226469D02*
X0153401Y0226502D01*
X0153374Y0226536D01*
X0153351Y0226573D01*
X0153331Y0226612D01*
X0153314Y0226652D01*
X0153301Y0226694D01*
X0153292Y0226736D01*
X0153286Y0226779D01*
X0153284Y0226823D01*
X0153454Y0226447D02*
X0153483Y0226414D01*
X0153510Y0226380D01*
X0153533Y0226343D01*
X0153553Y0226304D01*
X0153570Y0226264D01*
X0153583Y0226222D01*
X0153592Y0226180D01*
X0153598Y0226137D01*
X0153600Y0226093D01*
X0158600Y0225614D02*
X0158600Y0197786D01*
X0159700Y0197786D02*
X0159700Y0225365D01*
X0158600Y0225614D02*
X0158602Y0225674D01*
X0158607Y0225735D01*
X0158616Y0225794D01*
X0158629Y0225853D01*
X0158645Y0225912D01*
X0158665Y0225969D01*
X0158688Y0226024D01*
X0158715Y0226079D01*
X0158744Y0226131D01*
X0158777Y0226182D01*
X0158813Y0226231D01*
X0158851Y0226277D01*
X0158893Y0226321D01*
X0159043Y0226471D01*
X0159190Y0226824D02*
X0159190Y0229564D01*
X0161158Y0229564D02*
X0161158Y0227237D01*
X0161012Y0226884D02*
X0159847Y0225719D01*
X0159846Y0225719D02*
X0159817Y0225686D01*
X0159790Y0225652D01*
X0159767Y0225615D01*
X0159747Y0225576D01*
X0159730Y0225536D01*
X0159717Y0225494D01*
X0159708Y0225452D01*
X0159702Y0225409D01*
X0159700Y0225365D01*
X0159044Y0226470D02*
X0159073Y0226503D01*
X0159100Y0226537D01*
X0159123Y0226574D01*
X0159143Y0226613D01*
X0159160Y0226653D01*
X0159173Y0226695D01*
X0159182Y0226737D01*
X0159188Y0226780D01*
X0159190Y0226824D01*
X0161012Y0226883D02*
X0161041Y0226916D01*
X0161068Y0226950D01*
X0161091Y0226987D01*
X0161111Y0227026D01*
X0161128Y0227066D01*
X0161141Y0227108D01*
X0161150Y0227150D01*
X0161156Y0227193D01*
X0161158Y0227237D01*
X0164363Y0225790D02*
X0164431Y0225861D01*
X0164496Y0225934D01*
X0164558Y0226010D01*
X0164618Y0226089D01*
X0164674Y0226169D01*
X0164727Y0226252D01*
X0164776Y0226336D01*
X0164823Y0226423D01*
X0164865Y0226511D01*
X0164905Y0226601D01*
X0164940Y0226693D01*
X0164973Y0226785D01*
X0165001Y0226879D01*
X0165026Y0226974D01*
X0165047Y0227070D01*
X0165064Y0227167D01*
X0165078Y0227264D01*
X0165087Y0227362D01*
X0165093Y0227460D01*
X0165095Y0227558D01*
X0165095Y0229564D01*
X0167064Y0227971D02*
X0167062Y0227873D01*
X0167056Y0227775D01*
X0167047Y0227677D01*
X0167033Y0227580D01*
X0167016Y0227483D01*
X0166995Y0227387D01*
X0166970Y0227292D01*
X0166942Y0227198D01*
X0166909Y0227106D01*
X0166874Y0227014D01*
X0166834Y0226924D01*
X0166792Y0226836D01*
X0166745Y0226749D01*
X0166696Y0226665D01*
X0166643Y0226582D01*
X0166587Y0226502D01*
X0166527Y0226423D01*
X0166465Y0226347D01*
X0166400Y0226274D01*
X0166332Y0226203D01*
X0165433Y0225304D01*
X0164363Y0225790D02*
X0164333Y0225760D01*
X0163600Y0223992D02*
X0163600Y0202786D01*
X0164700Y0202786D02*
X0164700Y0223537D01*
X0163600Y0223992D02*
X0163602Y0224090D01*
X0163608Y0224188D01*
X0163617Y0224286D01*
X0163631Y0224383D01*
X0163648Y0224480D01*
X0163669Y0224576D01*
X0163694Y0224671D01*
X0163722Y0224765D01*
X0163755Y0224857D01*
X0163790Y0224949D01*
X0163830Y0225039D01*
X0163872Y0225127D01*
X0163919Y0225214D01*
X0163968Y0225298D01*
X0164021Y0225381D01*
X0164077Y0225461D01*
X0164137Y0225540D01*
X0164199Y0225616D01*
X0164264Y0225689D01*
X0164332Y0225760D01*
X0167064Y0227971D02*
X0167064Y0229564D01*
X0171001Y0227464D02*
X0170999Y0227366D01*
X0170993Y0227268D01*
X0170984Y0227170D01*
X0170970Y0227073D01*
X0170953Y0226976D01*
X0170932Y0226880D01*
X0170907Y0226785D01*
X0170879Y0226691D01*
X0170846Y0226599D01*
X0170811Y0226507D01*
X0170771Y0226417D01*
X0170729Y0226329D01*
X0170682Y0226242D01*
X0170633Y0226158D01*
X0170580Y0226075D01*
X0170524Y0225995D01*
X0170464Y0225916D01*
X0170402Y0225840D01*
X0170337Y0225767D01*
X0170269Y0225696D01*
X0169333Y0224760D01*
X0170433Y0224304D02*
X0172237Y0226109D01*
X0171001Y0227464D02*
X0171001Y0229564D01*
X0172969Y0227877D02*
X0172967Y0227779D01*
X0172961Y0227681D01*
X0172952Y0227583D01*
X0172938Y0227486D01*
X0172921Y0227389D01*
X0172900Y0227293D01*
X0172875Y0227198D01*
X0172847Y0227104D01*
X0172814Y0227012D01*
X0172779Y0226920D01*
X0172739Y0226830D01*
X0172697Y0226742D01*
X0172650Y0226655D01*
X0172601Y0226571D01*
X0172548Y0226488D01*
X0172492Y0226408D01*
X0172432Y0226329D01*
X0172370Y0226253D01*
X0172305Y0226180D01*
X0172237Y0226109D01*
X0172969Y0227877D02*
X0172969Y0229564D01*
X0176906Y0227369D02*
X0176904Y0227271D01*
X0176898Y0227173D01*
X0176889Y0227075D01*
X0176875Y0226978D01*
X0176858Y0226881D01*
X0176837Y0226785D01*
X0176812Y0226690D01*
X0176784Y0226596D01*
X0176751Y0226504D01*
X0176716Y0226412D01*
X0176676Y0226322D01*
X0176634Y0226234D01*
X0176587Y0226147D01*
X0176538Y0226063D01*
X0176485Y0225980D01*
X0176429Y0225900D01*
X0176369Y0225821D01*
X0176307Y0225745D01*
X0176242Y0225672D01*
X0176174Y0225601D01*
X0176174Y0225602D02*
X0174333Y0223760D01*
X0175433Y0223304D02*
X0178143Y0226014D01*
X0176906Y0227369D02*
X0176906Y0229564D01*
X0178875Y0227782D02*
X0178873Y0227684D01*
X0178867Y0227586D01*
X0178858Y0227488D01*
X0178844Y0227391D01*
X0178827Y0227294D01*
X0178806Y0227198D01*
X0178781Y0227103D01*
X0178753Y0227009D01*
X0178720Y0226917D01*
X0178685Y0226825D01*
X0178645Y0226735D01*
X0178603Y0226647D01*
X0178556Y0226560D01*
X0178507Y0226476D01*
X0178454Y0226393D01*
X0178398Y0226313D01*
X0178338Y0226234D01*
X0178276Y0226158D01*
X0178211Y0226085D01*
X0178143Y0226014D01*
X0178875Y0227782D02*
X0178875Y0229564D01*
X0182812Y0227275D02*
X0182810Y0227177D01*
X0182804Y0227079D01*
X0182795Y0226981D01*
X0182781Y0226884D01*
X0182764Y0226787D01*
X0182743Y0226691D01*
X0182718Y0226596D01*
X0182690Y0226502D01*
X0182657Y0226410D01*
X0182622Y0226318D01*
X0182582Y0226228D01*
X0182540Y0226140D01*
X0182493Y0226053D01*
X0182444Y0225969D01*
X0182391Y0225886D01*
X0182335Y0225806D01*
X0182275Y0225727D01*
X0182213Y0225651D01*
X0182148Y0225578D01*
X0182080Y0225507D01*
X0179333Y0222760D01*
X0180433Y0222304D02*
X0184048Y0225920D01*
X0182812Y0227275D02*
X0182812Y0229564D01*
X0184780Y0227688D02*
X0184778Y0227590D01*
X0184772Y0227492D01*
X0184763Y0227394D01*
X0184749Y0227297D01*
X0184732Y0227200D01*
X0184711Y0227104D01*
X0184686Y0227009D01*
X0184658Y0226915D01*
X0184625Y0226823D01*
X0184590Y0226731D01*
X0184550Y0226641D01*
X0184508Y0226553D01*
X0184461Y0226466D01*
X0184412Y0226382D01*
X0184359Y0226299D01*
X0184303Y0226219D01*
X0184243Y0226140D01*
X0184181Y0226064D01*
X0184116Y0225991D01*
X0184048Y0225920D01*
X0184780Y0227688D02*
X0184780Y0229564D01*
X0188717Y0226180D02*
X0188715Y0226082D01*
X0188709Y0225984D01*
X0188700Y0225886D01*
X0188686Y0225789D01*
X0188669Y0225692D01*
X0188648Y0225596D01*
X0188623Y0225501D01*
X0188595Y0225407D01*
X0188562Y0225315D01*
X0188527Y0225223D01*
X0188487Y0225133D01*
X0188445Y0225045D01*
X0188398Y0224958D01*
X0188349Y0224874D01*
X0188296Y0224791D01*
X0188240Y0224711D01*
X0188180Y0224632D01*
X0188118Y0224556D01*
X0188053Y0224483D01*
X0187985Y0224412D01*
X0187985Y0224413D02*
X0184333Y0220760D01*
X0185433Y0220304D02*
X0189954Y0224825D01*
X0188717Y0226180D02*
X0188717Y0229564D01*
X0190686Y0229564D02*
X0190686Y0226593D01*
X0194623Y0225086D02*
X0194621Y0224988D01*
X0194615Y0224890D01*
X0194606Y0224792D01*
X0194592Y0224695D01*
X0194575Y0224598D01*
X0194554Y0224502D01*
X0194529Y0224407D01*
X0194501Y0224313D01*
X0194468Y0224221D01*
X0194433Y0224129D01*
X0194393Y0224039D01*
X0194351Y0223951D01*
X0194304Y0223864D01*
X0194255Y0223780D01*
X0194202Y0223697D01*
X0194146Y0223617D01*
X0194086Y0223538D01*
X0194024Y0223462D01*
X0193959Y0223389D01*
X0193891Y0223318D01*
X0189333Y0218760D01*
X0190433Y0218304D02*
X0195859Y0223731D01*
X0194623Y0225086D02*
X0194623Y0229564D01*
X0196591Y0229564D02*
X0196591Y0225499D01*
X0196589Y0225401D01*
X0196583Y0225303D01*
X0196574Y0225205D01*
X0196560Y0225108D01*
X0196543Y0225011D01*
X0196522Y0224915D01*
X0196497Y0224820D01*
X0196469Y0224726D01*
X0196436Y0224634D01*
X0196401Y0224542D01*
X0196361Y0224452D01*
X0196319Y0224364D01*
X0196272Y0224277D01*
X0196223Y0224193D01*
X0196170Y0224110D01*
X0196114Y0224030D01*
X0196054Y0223951D01*
X0195992Y0223875D01*
X0195927Y0223802D01*
X0195859Y0223731D01*
X0190432Y0218305D02*
X0190364Y0218234D01*
X0190299Y0218161D01*
X0190237Y0218085D01*
X0190177Y0218006D01*
X0190121Y0217926D01*
X0190068Y0217843D01*
X0190019Y0217759D01*
X0189972Y0217672D01*
X0189930Y0217584D01*
X0189890Y0217494D01*
X0189855Y0217402D01*
X0189822Y0217310D01*
X0189794Y0217216D01*
X0189769Y0217121D01*
X0189748Y0217025D01*
X0189731Y0216928D01*
X0189717Y0216831D01*
X0189708Y0216733D01*
X0189702Y0216635D01*
X0189700Y0216537D01*
X0189700Y0197786D01*
X0188600Y0197786D02*
X0188600Y0216992D01*
X0184700Y0218537D02*
X0184702Y0218635D01*
X0184708Y0218733D01*
X0184717Y0218831D01*
X0184731Y0218928D01*
X0184748Y0219025D01*
X0184769Y0219121D01*
X0184794Y0219216D01*
X0184822Y0219310D01*
X0184855Y0219402D01*
X0184890Y0219494D01*
X0184930Y0219584D01*
X0184972Y0219672D01*
X0185019Y0219759D01*
X0185068Y0219843D01*
X0185121Y0219926D01*
X0185177Y0220006D01*
X0185237Y0220085D01*
X0185299Y0220161D01*
X0185364Y0220234D01*
X0185432Y0220305D01*
X0184332Y0220760D02*
X0184264Y0220689D01*
X0184199Y0220616D01*
X0184137Y0220540D01*
X0184077Y0220461D01*
X0184021Y0220381D01*
X0183968Y0220298D01*
X0183919Y0220214D01*
X0183872Y0220127D01*
X0183830Y0220039D01*
X0183790Y0219949D01*
X0183755Y0219857D01*
X0183722Y0219765D01*
X0183694Y0219671D01*
X0183669Y0219576D01*
X0183648Y0219480D01*
X0183631Y0219383D01*
X0183617Y0219286D01*
X0183608Y0219188D01*
X0183602Y0219090D01*
X0183600Y0218992D01*
X0183600Y0202786D01*
X0184700Y0202786D02*
X0184700Y0218537D01*
X0179700Y0220537D02*
X0179702Y0220635D01*
X0179708Y0220733D01*
X0179717Y0220831D01*
X0179731Y0220928D01*
X0179748Y0221025D01*
X0179769Y0221121D01*
X0179794Y0221216D01*
X0179822Y0221310D01*
X0179855Y0221402D01*
X0179890Y0221494D01*
X0179930Y0221584D01*
X0179972Y0221672D01*
X0180019Y0221759D01*
X0180068Y0221843D01*
X0180121Y0221926D01*
X0180177Y0222006D01*
X0180237Y0222085D01*
X0180299Y0222161D01*
X0180364Y0222234D01*
X0180432Y0222305D01*
X0179332Y0222760D02*
X0179264Y0222689D01*
X0179199Y0222616D01*
X0179137Y0222540D01*
X0179077Y0222461D01*
X0179021Y0222381D01*
X0178968Y0222298D01*
X0178919Y0222214D01*
X0178872Y0222127D01*
X0178830Y0222039D01*
X0178790Y0221949D01*
X0178755Y0221857D01*
X0178722Y0221765D01*
X0178694Y0221671D01*
X0178669Y0221576D01*
X0178648Y0221480D01*
X0178631Y0221383D01*
X0178617Y0221286D01*
X0178608Y0221188D01*
X0178602Y0221090D01*
X0178600Y0220992D01*
X0178600Y0197786D01*
X0179700Y0197786D02*
X0179700Y0220537D01*
X0175432Y0223305D02*
X0175364Y0223234D01*
X0175299Y0223161D01*
X0175237Y0223085D01*
X0175177Y0223006D01*
X0175121Y0222926D01*
X0175068Y0222843D01*
X0175019Y0222759D01*
X0174972Y0222672D01*
X0174930Y0222584D01*
X0174890Y0222494D01*
X0174855Y0222402D01*
X0174822Y0222310D01*
X0174794Y0222216D01*
X0174769Y0222121D01*
X0174748Y0222025D01*
X0174731Y0221928D01*
X0174717Y0221831D01*
X0174708Y0221733D01*
X0174702Y0221635D01*
X0174700Y0221537D01*
X0174700Y0202786D01*
X0173600Y0202786D02*
X0173600Y0221992D01*
X0170432Y0224305D02*
X0170364Y0224234D01*
X0170299Y0224161D01*
X0170237Y0224085D01*
X0170177Y0224006D01*
X0170121Y0223926D01*
X0170068Y0223843D01*
X0170019Y0223759D01*
X0169972Y0223672D01*
X0169930Y0223584D01*
X0169890Y0223494D01*
X0169855Y0223402D01*
X0169822Y0223310D01*
X0169794Y0223216D01*
X0169769Y0223121D01*
X0169748Y0223025D01*
X0169731Y0222928D01*
X0169717Y0222831D01*
X0169708Y0222733D01*
X0169702Y0222635D01*
X0169700Y0222537D01*
X0169700Y0197786D01*
X0168600Y0197786D02*
X0168600Y0222992D01*
X0165432Y0225305D02*
X0165364Y0225234D01*
X0165299Y0225161D01*
X0165237Y0225085D01*
X0165177Y0225006D01*
X0165121Y0224926D01*
X0165068Y0224843D01*
X0165019Y0224759D01*
X0164972Y0224672D01*
X0164930Y0224584D01*
X0164890Y0224494D01*
X0164855Y0224402D01*
X0164822Y0224310D01*
X0164794Y0224216D01*
X0164769Y0224121D01*
X0164748Y0224025D01*
X0164731Y0223928D01*
X0164717Y0223831D01*
X0164708Y0223733D01*
X0164702Y0223635D01*
X0164700Y0223537D01*
X0168600Y0222992D02*
X0168602Y0223090D01*
X0168608Y0223188D01*
X0168617Y0223286D01*
X0168631Y0223383D01*
X0168648Y0223480D01*
X0168669Y0223576D01*
X0168694Y0223671D01*
X0168722Y0223765D01*
X0168755Y0223857D01*
X0168790Y0223949D01*
X0168830Y0224039D01*
X0168872Y0224127D01*
X0168919Y0224214D01*
X0168968Y0224298D01*
X0169021Y0224381D01*
X0169077Y0224461D01*
X0169137Y0224540D01*
X0169199Y0224616D01*
X0169264Y0224689D01*
X0169332Y0224760D01*
X0173600Y0221992D02*
X0173602Y0222090D01*
X0173608Y0222188D01*
X0173617Y0222286D01*
X0173631Y0222383D01*
X0173648Y0222480D01*
X0173669Y0222576D01*
X0173694Y0222671D01*
X0173722Y0222765D01*
X0173755Y0222857D01*
X0173790Y0222949D01*
X0173830Y0223039D01*
X0173872Y0223127D01*
X0173919Y0223214D01*
X0173968Y0223298D01*
X0174021Y0223381D01*
X0174077Y0223461D01*
X0174137Y0223540D01*
X0174199Y0223616D01*
X0174264Y0223689D01*
X0174332Y0223760D01*
X0189954Y0224825D02*
X0190022Y0224896D01*
X0190087Y0224969D01*
X0190149Y0225045D01*
X0190209Y0225124D01*
X0190265Y0225204D01*
X0190318Y0225287D01*
X0190367Y0225371D01*
X0190414Y0225458D01*
X0190456Y0225546D01*
X0190496Y0225636D01*
X0190531Y0225728D01*
X0190564Y0225820D01*
X0190592Y0225914D01*
X0190617Y0226009D01*
X0190638Y0226105D01*
X0190655Y0226202D01*
X0190669Y0226299D01*
X0190678Y0226397D01*
X0190684Y0226495D01*
X0190686Y0226593D01*
X0189332Y0218760D02*
X0189264Y0218689D01*
X0189199Y0218616D01*
X0189137Y0218540D01*
X0189077Y0218461D01*
X0189021Y0218381D01*
X0188968Y0218298D01*
X0188919Y0218214D01*
X0188872Y0218127D01*
X0188830Y0218039D01*
X0188790Y0217949D01*
X0188755Y0217857D01*
X0188722Y0217765D01*
X0188694Y0217671D01*
X0188669Y0217576D01*
X0188648Y0217480D01*
X0188631Y0217383D01*
X0188617Y0217286D01*
X0188608Y0217188D01*
X0188602Y0217090D01*
X0188600Y0216992D01*
X0184700Y0202786D02*
X0184702Y0202688D01*
X0184708Y0202590D01*
X0184717Y0202492D01*
X0184731Y0202395D01*
X0184748Y0202298D01*
X0184769Y0202202D01*
X0184794Y0202107D01*
X0184822Y0202013D01*
X0184855Y0201921D01*
X0184890Y0201829D01*
X0184930Y0201739D01*
X0184972Y0201651D01*
X0185019Y0201564D01*
X0185068Y0201480D01*
X0185121Y0201397D01*
X0185177Y0201317D01*
X0185237Y0201238D01*
X0185299Y0201162D01*
X0185364Y0201089D01*
X0185432Y0201018D01*
X0185433Y0201018D02*
X0186650Y0199800D01*
X0188600Y0197786D02*
X0188598Y0197688D01*
X0188592Y0197590D01*
X0188583Y0197492D01*
X0188569Y0197395D01*
X0188552Y0197298D01*
X0188531Y0197202D01*
X0188506Y0197107D01*
X0188478Y0197013D01*
X0188445Y0196921D01*
X0188410Y0196829D01*
X0188370Y0196739D01*
X0188328Y0196651D01*
X0188281Y0196564D01*
X0188232Y0196480D01*
X0188179Y0196397D01*
X0188123Y0196317D01*
X0188063Y0196238D01*
X0188001Y0196162D01*
X0187936Y0196089D01*
X0187868Y0196018D01*
X0186650Y0194800D01*
X0190433Y0196018D02*
X0191650Y0194800D01*
X0190432Y0196018D02*
X0190364Y0196089D01*
X0190299Y0196162D01*
X0190237Y0196238D01*
X0190177Y0196317D01*
X0190121Y0196397D01*
X0190068Y0196480D01*
X0190019Y0196564D01*
X0189972Y0196651D01*
X0189930Y0196739D01*
X0189890Y0196829D01*
X0189855Y0196921D01*
X0189822Y0197013D01*
X0189794Y0197107D01*
X0189769Y0197202D01*
X0189748Y0197298D01*
X0189731Y0197395D01*
X0189717Y0197492D01*
X0189708Y0197590D01*
X0189702Y0197688D01*
X0189700Y0197786D01*
X0182868Y0201018D02*
X0181650Y0199800D01*
X0179700Y0197786D02*
X0179702Y0197688D01*
X0179708Y0197590D01*
X0179717Y0197492D01*
X0179731Y0197395D01*
X0179748Y0197298D01*
X0179769Y0197202D01*
X0179794Y0197107D01*
X0179822Y0197013D01*
X0179855Y0196921D01*
X0179890Y0196829D01*
X0179930Y0196739D01*
X0179972Y0196651D01*
X0180019Y0196564D01*
X0180068Y0196480D01*
X0180121Y0196397D01*
X0180177Y0196317D01*
X0180237Y0196238D01*
X0180299Y0196162D01*
X0180364Y0196089D01*
X0180432Y0196018D01*
X0180433Y0196018D02*
X0181650Y0194800D01*
X0177868Y0196018D02*
X0176650Y0194800D01*
X0177868Y0196018D02*
X0177936Y0196089D01*
X0178001Y0196162D01*
X0178063Y0196238D01*
X0178123Y0196317D01*
X0178179Y0196397D01*
X0178232Y0196480D01*
X0178281Y0196564D01*
X0178328Y0196651D01*
X0178370Y0196739D01*
X0178410Y0196829D01*
X0178445Y0196921D01*
X0178478Y0197013D01*
X0178506Y0197107D01*
X0178531Y0197202D01*
X0178552Y0197298D01*
X0178569Y0197395D01*
X0178583Y0197492D01*
X0178592Y0197590D01*
X0178598Y0197688D01*
X0178600Y0197786D01*
X0176650Y0199800D02*
X0175433Y0201018D01*
X0175432Y0201018D02*
X0175364Y0201089D01*
X0175299Y0201162D01*
X0175237Y0201238D01*
X0175177Y0201317D01*
X0175121Y0201397D01*
X0175068Y0201480D01*
X0175019Y0201564D01*
X0174972Y0201651D01*
X0174930Y0201739D01*
X0174890Y0201829D01*
X0174855Y0201921D01*
X0174822Y0202013D01*
X0174794Y0202107D01*
X0174769Y0202202D01*
X0174748Y0202298D01*
X0174731Y0202395D01*
X0174717Y0202492D01*
X0174708Y0202590D01*
X0174702Y0202688D01*
X0174700Y0202786D01*
X0172868Y0201018D02*
X0171650Y0199800D01*
X0169700Y0197786D02*
X0169702Y0197688D01*
X0169708Y0197590D01*
X0169717Y0197492D01*
X0169731Y0197395D01*
X0169748Y0197298D01*
X0169769Y0197202D01*
X0169794Y0197107D01*
X0169822Y0197013D01*
X0169855Y0196921D01*
X0169890Y0196829D01*
X0169930Y0196739D01*
X0169972Y0196651D01*
X0170019Y0196564D01*
X0170068Y0196480D01*
X0170121Y0196397D01*
X0170177Y0196317D01*
X0170237Y0196238D01*
X0170299Y0196162D01*
X0170364Y0196089D01*
X0170432Y0196018D01*
X0170433Y0196018D02*
X0171650Y0194800D01*
X0167868Y0196018D02*
X0166650Y0194800D01*
X0167868Y0196018D02*
X0167936Y0196089D01*
X0168001Y0196162D01*
X0168063Y0196238D01*
X0168123Y0196317D01*
X0168179Y0196397D01*
X0168232Y0196480D01*
X0168281Y0196564D01*
X0168328Y0196651D01*
X0168370Y0196739D01*
X0168410Y0196829D01*
X0168445Y0196921D01*
X0168478Y0197013D01*
X0168506Y0197107D01*
X0168531Y0197202D01*
X0168552Y0197298D01*
X0168569Y0197395D01*
X0168583Y0197492D01*
X0168592Y0197590D01*
X0168598Y0197688D01*
X0168600Y0197786D01*
X0166650Y0199800D02*
X0165433Y0201018D01*
X0165432Y0201018D02*
X0165364Y0201089D01*
X0165299Y0201162D01*
X0165237Y0201238D01*
X0165177Y0201317D01*
X0165121Y0201397D01*
X0165068Y0201480D01*
X0165019Y0201564D01*
X0164972Y0201651D01*
X0164930Y0201739D01*
X0164890Y0201829D01*
X0164855Y0201921D01*
X0164822Y0202013D01*
X0164794Y0202107D01*
X0164769Y0202202D01*
X0164748Y0202298D01*
X0164731Y0202395D01*
X0164717Y0202492D01*
X0164708Y0202590D01*
X0164702Y0202688D01*
X0164700Y0202786D01*
X0162868Y0201018D02*
X0161650Y0199800D01*
X0159700Y0197786D02*
X0159702Y0197688D01*
X0159708Y0197590D01*
X0159717Y0197492D01*
X0159731Y0197395D01*
X0159748Y0197298D01*
X0159769Y0197202D01*
X0159794Y0197107D01*
X0159822Y0197013D01*
X0159855Y0196921D01*
X0159890Y0196829D01*
X0159930Y0196739D01*
X0159972Y0196651D01*
X0160019Y0196564D01*
X0160068Y0196480D01*
X0160121Y0196397D01*
X0160177Y0196317D01*
X0160237Y0196238D01*
X0160299Y0196162D01*
X0160364Y0196089D01*
X0160432Y0196018D01*
X0160433Y0196018D02*
X0161650Y0194800D01*
X0157868Y0196018D02*
X0156650Y0194800D01*
X0157868Y0196018D02*
X0157936Y0196089D01*
X0158001Y0196162D01*
X0158063Y0196238D01*
X0158123Y0196317D01*
X0158179Y0196397D01*
X0158232Y0196480D01*
X0158281Y0196564D01*
X0158328Y0196651D01*
X0158370Y0196739D01*
X0158410Y0196829D01*
X0158445Y0196921D01*
X0158478Y0197013D01*
X0158506Y0197107D01*
X0158531Y0197202D01*
X0158552Y0197298D01*
X0158569Y0197395D01*
X0158583Y0197492D01*
X0158592Y0197590D01*
X0158598Y0197688D01*
X0158600Y0197786D01*
X0156650Y0199800D02*
X0155433Y0201018D01*
X0155432Y0201018D02*
X0155364Y0201089D01*
X0155299Y0201162D01*
X0155237Y0201238D01*
X0155177Y0201317D01*
X0155121Y0201397D01*
X0155068Y0201480D01*
X0155019Y0201564D01*
X0154972Y0201651D01*
X0154930Y0201739D01*
X0154890Y0201829D01*
X0154855Y0201921D01*
X0154822Y0202013D01*
X0154794Y0202107D01*
X0154769Y0202202D01*
X0154748Y0202298D01*
X0154731Y0202395D01*
X0154717Y0202492D01*
X0154708Y0202590D01*
X0154702Y0202688D01*
X0154700Y0202786D01*
X0152868Y0201018D02*
X0151650Y0199800D01*
X0152868Y0201018D02*
X0152936Y0201089D01*
X0153001Y0201162D01*
X0153063Y0201238D01*
X0153123Y0201317D01*
X0153179Y0201397D01*
X0153232Y0201480D01*
X0153281Y0201564D01*
X0153328Y0201651D01*
X0153370Y0201739D01*
X0153410Y0201829D01*
X0153445Y0201921D01*
X0153478Y0202013D01*
X0153506Y0202107D01*
X0153531Y0202202D01*
X0153552Y0202298D01*
X0153569Y0202395D01*
X0153583Y0202492D01*
X0153592Y0202590D01*
X0153598Y0202688D01*
X0153600Y0202786D01*
X0145432Y0201018D02*
X0145364Y0201089D01*
X0145299Y0201162D01*
X0145237Y0201238D01*
X0145177Y0201317D01*
X0145121Y0201397D01*
X0145068Y0201480D01*
X0145019Y0201564D01*
X0144972Y0201651D01*
X0144930Y0201739D01*
X0144890Y0201829D01*
X0144855Y0201921D01*
X0144822Y0202013D01*
X0144794Y0202107D01*
X0144769Y0202202D01*
X0144748Y0202298D01*
X0144731Y0202395D01*
X0144717Y0202492D01*
X0144708Y0202590D01*
X0144702Y0202688D01*
X0144700Y0202786D01*
X0144700Y0221037D01*
X0143600Y0221492D02*
X0143600Y0202786D01*
X0142868Y0201018D02*
X0141650Y0199800D01*
X0139700Y0197786D02*
X0139702Y0197688D01*
X0139708Y0197590D01*
X0139717Y0197492D01*
X0139731Y0197395D01*
X0139748Y0197298D01*
X0139769Y0197202D01*
X0139794Y0197107D01*
X0139822Y0197013D01*
X0139855Y0196921D01*
X0139890Y0196829D01*
X0139930Y0196739D01*
X0139972Y0196651D01*
X0140019Y0196564D01*
X0140068Y0196480D01*
X0140121Y0196397D01*
X0140177Y0196317D01*
X0140237Y0196238D01*
X0140299Y0196162D01*
X0140364Y0196089D01*
X0140432Y0196018D01*
X0140433Y0196018D02*
X0141650Y0194800D01*
X0137868Y0196018D02*
X0136650Y0194800D01*
X0137868Y0196018D02*
X0137936Y0196089D01*
X0138001Y0196162D01*
X0138063Y0196238D01*
X0138123Y0196317D01*
X0138179Y0196397D01*
X0138232Y0196480D01*
X0138281Y0196564D01*
X0138328Y0196651D01*
X0138370Y0196739D01*
X0138410Y0196829D01*
X0138445Y0196921D01*
X0138478Y0197013D01*
X0138506Y0197107D01*
X0138531Y0197202D01*
X0138552Y0197298D01*
X0138569Y0197395D01*
X0138583Y0197492D01*
X0138592Y0197590D01*
X0138598Y0197688D01*
X0138600Y0197786D01*
X0136650Y0199800D02*
X0135433Y0201018D01*
X0135432Y0201018D02*
X0135364Y0201089D01*
X0135299Y0201162D01*
X0135237Y0201238D01*
X0135177Y0201317D01*
X0135121Y0201397D01*
X0135068Y0201480D01*
X0135019Y0201564D01*
X0134972Y0201651D01*
X0134930Y0201739D01*
X0134890Y0201829D01*
X0134855Y0201921D01*
X0134822Y0202013D01*
X0134794Y0202107D01*
X0134769Y0202202D01*
X0134748Y0202298D01*
X0134731Y0202395D01*
X0134717Y0202492D01*
X0134708Y0202590D01*
X0134702Y0202688D01*
X0134700Y0202786D01*
X0132868Y0201018D02*
X0131650Y0199800D01*
X0129700Y0197786D02*
X0129702Y0197688D01*
X0129708Y0197590D01*
X0129717Y0197492D01*
X0129731Y0197395D01*
X0129748Y0197298D01*
X0129769Y0197202D01*
X0129794Y0197107D01*
X0129822Y0197013D01*
X0129855Y0196921D01*
X0129890Y0196829D01*
X0129930Y0196739D01*
X0129972Y0196651D01*
X0130019Y0196564D01*
X0130068Y0196480D01*
X0130121Y0196397D01*
X0130177Y0196317D01*
X0130237Y0196238D01*
X0130299Y0196162D01*
X0130364Y0196089D01*
X0130432Y0196018D01*
X0130433Y0196018D02*
X0131650Y0194800D01*
X0127868Y0196018D02*
X0126650Y0194800D01*
X0127868Y0196018D02*
X0127936Y0196089D01*
X0128001Y0196162D01*
X0128063Y0196238D01*
X0128123Y0196317D01*
X0128179Y0196397D01*
X0128232Y0196480D01*
X0128281Y0196564D01*
X0128328Y0196651D01*
X0128370Y0196739D01*
X0128410Y0196829D01*
X0128445Y0196921D01*
X0128478Y0197013D01*
X0128506Y0197107D01*
X0128531Y0197202D01*
X0128552Y0197298D01*
X0128569Y0197395D01*
X0128583Y0197492D01*
X0128592Y0197590D01*
X0128598Y0197688D01*
X0128600Y0197786D01*
X0126650Y0199800D02*
X0125433Y0201018D01*
X0125432Y0201018D02*
X0125364Y0201089D01*
X0125299Y0201162D01*
X0125237Y0201238D01*
X0125177Y0201317D01*
X0125121Y0201397D01*
X0125068Y0201480D01*
X0125019Y0201564D01*
X0124972Y0201651D01*
X0124930Y0201739D01*
X0124890Y0201829D01*
X0124855Y0201921D01*
X0124822Y0202013D01*
X0124794Y0202107D01*
X0124769Y0202202D01*
X0124748Y0202298D01*
X0124731Y0202395D01*
X0124717Y0202492D01*
X0124708Y0202590D01*
X0124702Y0202688D01*
X0124700Y0202786D01*
X0122868Y0201018D02*
X0121650Y0199800D01*
X0119700Y0197786D02*
X0119702Y0197688D01*
X0119708Y0197590D01*
X0119717Y0197492D01*
X0119731Y0197395D01*
X0119748Y0197298D01*
X0119769Y0197202D01*
X0119794Y0197107D01*
X0119822Y0197013D01*
X0119855Y0196921D01*
X0119890Y0196829D01*
X0119930Y0196739D01*
X0119972Y0196651D01*
X0120019Y0196564D01*
X0120068Y0196480D01*
X0120121Y0196397D01*
X0120177Y0196317D01*
X0120237Y0196238D01*
X0120299Y0196162D01*
X0120364Y0196089D01*
X0120432Y0196018D01*
X0120433Y0196018D02*
X0121650Y0194800D01*
X0117868Y0196018D02*
X0116650Y0194800D01*
X0117868Y0196018D02*
X0117936Y0196089D01*
X0118001Y0196162D01*
X0118063Y0196238D01*
X0118123Y0196317D01*
X0118179Y0196397D01*
X0118232Y0196480D01*
X0118281Y0196564D01*
X0118328Y0196651D01*
X0118370Y0196739D01*
X0118410Y0196829D01*
X0118445Y0196921D01*
X0118478Y0197013D01*
X0118506Y0197107D01*
X0118531Y0197202D01*
X0118552Y0197298D01*
X0118569Y0197395D01*
X0118583Y0197492D01*
X0118592Y0197590D01*
X0118598Y0197688D01*
X0118600Y0197786D01*
X0116650Y0199800D02*
X0115433Y0201018D01*
X0115432Y0201018D02*
X0115364Y0201089D01*
X0115299Y0201162D01*
X0115237Y0201238D01*
X0115177Y0201317D01*
X0115121Y0201397D01*
X0115068Y0201480D01*
X0115019Y0201564D01*
X0114972Y0201651D01*
X0114930Y0201739D01*
X0114890Y0201829D01*
X0114855Y0201921D01*
X0114822Y0202013D01*
X0114794Y0202107D01*
X0114769Y0202202D01*
X0114748Y0202298D01*
X0114731Y0202395D01*
X0114717Y0202492D01*
X0114708Y0202590D01*
X0114702Y0202688D01*
X0114700Y0202786D01*
X0112868Y0201018D02*
X0111650Y0199800D01*
X0109700Y0197786D02*
X0109702Y0197688D01*
X0109708Y0197590D01*
X0109717Y0197492D01*
X0109731Y0197395D01*
X0109748Y0197298D01*
X0109769Y0197202D01*
X0109794Y0197107D01*
X0109822Y0197013D01*
X0109855Y0196921D01*
X0109890Y0196829D01*
X0109930Y0196739D01*
X0109972Y0196651D01*
X0110019Y0196564D01*
X0110068Y0196480D01*
X0110121Y0196397D01*
X0110177Y0196317D01*
X0110237Y0196238D01*
X0110299Y0196162D01*
X0110364Y0196089D01*
X0110432Y0196018D01*
X0110433Y0196018D02*
X0111650Y0194800D01*
X0107868Y0196018D02*
X0106650Y0194800D01*
X0107868Y0196018D02*
X0107936Y0196089D01*
X0108001Y0196162D01*
X0108063Y0196238D01*
X0108123Y0196317D01*
X0108179Y0196397D01*
X0108232Y0196480D01*
X0108281Y0196564D01*
X0108328Y0196651D01*
X0108370Y0196739D01*
X0108410Y0196829D01*
X0108445Y0196921D01*
X0108478Y0197013D01*
X0108506Y0197107D01*
X0108531Y0197202D01*
X0108552Y0197298D01*
X0108569Y0197395D01*
X0108583Y0197492D01*
X0108592Y0197590D01*
X0108598Y0197688D01*
X0108600Y0197786D01*
X0106650Y0199800D02*
X0105433Y0201018D01*
X0104700Y0202786D02*
X0104700Y0222992D01*
X0103600Y0222537D02*
X0103600Y0202786D01*
X0102868Y0201018D02*
X0101650Y0199800D01*
X0099700Y0197786D02*
X0099702Y0197688D01*
X0099708Y0197590D01*
X0099717Y0197492D01*
X0099731Y0197395D01*
X0099748Y0197298D01*
X0099769Y0197202D01*
X0099794Y0197107D01*
X0099822Y0197013D01*
X0099855Y0196921D01*
X0099890Y0196829D01*
X0099930Y0196739D01*
X0099972Y0196651D01*
X0100019Y0196564D01*
X0100068Y0196480D01*
X0100121Y0196397D01*
X0100177Y0196317D01*
X0100237Y0196238D01*
X0100299Y0196162D01*
X0100364Y0196089D01*
X0100432Y0196018D01*
X0100433Y0196018D02*
X0101650Y0194800D01*
X0101725Y0194725D01*
X0101725Y0190300D01*
X0098576Y0190300D02*
X0098576Y0191839D01*
X0097843Y0193607D02*
X0096650Y0194800D01*
X0097868Y0196018D01*
X0098600Y0197786D02*
X0098600Y0221537D01*
X0099700Y0221992D02*
X0099700Y0197786D01*
X0098600Y0197786D02*
X0098598Y0197688D01*
X0098592Y0197590D01*
X0098583Y0197492D01*
X0098569Y0197395D01*
X0098552Y0197298D01*
X0098531Y0197202D01*
X0098506Y0197107D01*
X0098478Y0197013D01*
X0098445Y0196921D01*
X0098410Y0196829D01*
X0098370Y0196739D01*
X0098328Y0196651D01*
X0098281Y0196564D01*
X0098232Y0196480D01*
X0098179Y0196397D01*
X0098123Y0196317D01*
X0098063Y0196238D01*
X0098001Y0196162D01*
X0097936Y0196089D01*
X0097868Y0196018D01*
X0097844Y0193607D02*
X0097912Y0193536D01*
X0097977Y0193463D01*
X0098039Y0193387D01*
X0098099Y0193308D01*
X0098155Y0193228D01*
X0098208Y0193145D01*
X0098257Y0193061D01*
X0098304Y0192974D01*
X0098346Y0192886D01*
X0098386Y0192796D01*
X0098421Y0192704D01*
X0098454Y0192612D01*
X0098482Y0192518D01*
X0098507Y0192423D01*
X0098528Y0192327D01*
X0098545Y0192230D01*
X0098559Y0192133D01*
X0098568Y0192035D01*
X0098574Y0191937D01*
X0098576Y0191839D01*
X0102868Y0201018D02*
X0102936Y0201089D01*
X0103001Y0201162D01*
X0103063Y0201238D01*
X0103123Y0201317D01*
X0103179Y0201397D01*
X0103232Y0201480D01*
X0103281Y0201564D01*
X0103328Y0201651D01*
X0103370Y0201739D01*
X0103410Y0201829D01*
X0103445Y0201921D01*
X0103478Y0202013D01*
X0103506Y0202107D01*
X0103531Y0202202D01*
X0103552Y0202298D01*
X0103569Y0202395D01*
X0103583Y0202492D01*
X0103592Y0202590D01*
X0103598Y0202688D01*
X0103600Y0202786D01*
X0104700Y0202786D02*
X0104702Y0202688D01*
X0104708Y0202590D01*
X0104717Y0202492D01*
X0104731Y0202395D01*
X0104748Y0202298D01*
X0104769Y0202202D01*
X0104794Y0202107D01*
X0104822Y0202013D01*
X0104855Y0201921D01*
X0104890Y0201829D01*
X0104930Y0201739D01*
X0104972Y0201651D01*
X0105019Y0201564D01*
X0105068Y0201480D01*
X0105121Y0201397D01*
X0105177Y0201317D01*
X0105237Y0201238D01*
X0105299Y0201162D01*
X0105364Y0201089D01*
X0105432Y0201018D01*
X0112868Y0201018D02*
X0112936Y0201089D01*
X0113001Y0201162D01*
X0113063Y0201238D01*
X0113123Y0201317D01*
X0113179Y0201397D01*
X0113232Y0201480D01*
X0113281Y0201564D01*
X0113328Y0201651D01*
X0113370Y0201739D01*
X0113410Y0201829D01*
X0113445Y0201921D01*
X0113478Y0202013D01*
X0113506Y0202107D01*
X0113531Y0202202D01*
X0113552Y0202298D01*
X0113569Y0202395D01*
X0113583Y0202492D01*
X0113592Y0202590D01*
X0113598Y0202688D01*
X0113600Y0202786D01*
X0122868Y0201018D02*
X0122936Y0201089D01*
X0123001Y0201162D01*
X0123063Y0201238D01*
X0123123Y0201317D01*
X0123179Y0201397D01*
X0123232Y0201480D01*
X0123281Y0201564D01*
X0123328Y0201651D01*
X0123370Y0201739D01*
X0123410Y0201829D01*
X0123445Y0201921D01*
X0123478Y0202013D01*
X0123506Y0202107D01*
X0123531Y0202202D01*
X0123552Y0202298D01*
X0123569Y0202395D01*
X0123583Y0202492D01*
X0123592Y0202590D01*
X0123598Y0202688D01*
X0123600Y0202786D01*
X0132868Y0201018D02*
X0132936Y0201089D01*
X0133001Y0201162D01*
X0133063Y0201238D01*
X0133123Y0201317D01*
X0133179Y0201397D01*
X0133232Y0201480D01*
X0133281Y0201564D01*
X0133328Y0201651D01*
X0133370Y0201739D01*
X0133410Y0201829D01*
X0133445Y0201921D01*
X0133478Y0202013D01*
X0133506Y0202107D01*
X0133531Y0202202D01*
X0133552Y0202298D01*
X0133569Y0202395D01*
X0133583Y0202492D01*
X0133592Y0202590D01*
X0133598Y0202688D01*
X0133600Y0202786D01*
X0142868Y0201018D02*
X0142936Y0201089D01*
X0143001Y0201162D01*
X0143063Y0201238D01*
X0143123Y0201317D01*
X0143179Y0201397D01*
X0143232Y0201480D01*
X0143281Y0201564D01*
X0143328Y0201651D01*
X0143370Y0201739D01*
X0143410Y0201829D01*
X0143445Y0201921D01*
X0143478Y0202013D01*
X0143506Y0202107D01*
X0143531Y0202202D01*
X0143552Y0202298D01*
X0143569Y0202395D01*
X0143583Y0202492D01*
X0143592Y0202590D01*
X0143598Y0202688D01*
X0143600Y0202786D01*
X0145433Y0201018D02*
X0146650Y0199800D01*
X0162868Y0201018D02*
X0162936Y0201089D01*
X0163001Y0201162D01*
X0163063Y0201238D01*
X0163123Y0201317D01*
X0163179Y0201397D01*
X0163232Y0201480D01*
X0163281Y0201564D01*
X0163328Y0201651D01*
X0163370Y0201739D01*
X0163410Y0201829D01*
X0163445Y0201921D01*
X0163478Y0202013D01*
X0163506Y0202107D01*
X0163531Y0202202D01*
X0163552Y0202298D01*
X0163569Y0202395D01*
X0163583Y0202492D01*
X0163592Y0202590D01*
X0163598Y0202688D01*
X0163600Y0202786D01*
X0172868Y0201018D02*
X0172936Y0201089D01*
X0173001Y0201162D01*
X0173063Y0201238D01*
X0173123Y0201317D01*
X0173179Y0201397D01*
X0173232Y0201480D01*
X0173281Y0201564D01*
X0173328Y0201651D01*
X0173370Y0201739D01*
X0173410Y0201829D01*
X0173445Y0201921D01*
X0173478Y0202013D01*
X0173506Y0202107D01*
X0173531Y0202202D01*
X0173552Y0202298D01*
X0173569Y0202395D01*
X0173583Y0202492D01*
X0173592Y0202590D01*
X0173598Y0202688D01*
X0173600Y0202786D01*
X0182868Y0201018D02*
X0182936Y0201089D01*
X0183001Y0201162D01*
X0183063Y0201238D01*
X0183123Y0201317D01*
X0183179Y0201397D01*
X0183232Y0201480D01*
X0183281Y0201564D01*
X0183328Y0201651D01*
X0183370Y0201739D01*
X0183410Y0201829D01*
X0183445Y0201921D01*
X0183478Y0202013D01*
X0183506Y0202107D01*
X0183531Y0202202D01*
X0183552Y0202298D01*
X0183569Y0202395D01*
X0183583Y0202492D01*
X0183592Y0202590D01*
X0183598Y0202688D01*
X0183600Y0202786D01*
X0144700Y0221037D02*
X0144702Y0221135D01*
X0144708Y0221233D01*
X0144717Y0221331D01*
X0144731Y0221428D01*
X0144748Y0221525D01*
X0144769Y0221621D01*
X0144794Y0221716D01*
X0144822Y0221810D01*
X0144855Y0221902D01*
X0144890Y0221994D01*
X0144930Y0222084D01*
X0144972Y0222172D01*
X0145019Y0222259D01*
X0145068Y0222343D01*
X0145121Y0222426D01*
X0145177Y0222506D01*
X0145237Y0222585D01*
X0145299Y0222661D01*
X0145364Y0222734D01*
X0145432Y0222805D01*
X0144332Y0223260D02*
X0144264Y0223189D01*
X0144199Y0223116D01*
X0144137Y0223040D01*
X0144077Y0222961D01*
X0144021Y0222881D01*
X0143968Y0222798D01*
X0143919Y0222714D01*
X0143872Y0222627D01*
X0143830Y0222539D01*
X0143790Y0222449D01*
X0143755Y0222357D01*
X0143722Y0222265D01*
X0143694Y0222171D01*
X0143669Y0222076D01*
X0143648Y0221980D01*
X0143631Y0221883D01*
X0143617Y0221786D01*
X0143608Y0221688D01*
X0143602Y0221590D01*
X0143600Y0221492D01*
X0140432Y0223805D02*
X0140364Y0223734D01*
X0140299Y0223661D01*
X0140237Y0223585D01*
X0140177Y0223506D01*
X0140121Y0223426D01*
X0140068Y0223343D01*
X0140019Y0223259D01*
X0139972Y0223172D01*
X0139930Y0223084D01*
X0139890Y0222994D01*
X0139855Y0222902D01*
X0139822Y0222810D01*
X0139794Y0222716D01*
X0139769Y0222621D01*
X0139748Y0222525D01*
X0139731Y0222428D01*
X0139717Y0222331D01*
X0139708Y0222233D01*
X0139702Y0222135D01*
X0139700Y0222037D01*
X0140741Y0225668D02*
X0140809Y0225739D01*
X0140874Y0225812D01*
X0140936Y0225888D01*
X0140996Y0225967D01*
X0141052Y0226047D01*
X0141105Y0226130D01*
X0141154Y0226214D01*
X0141201Y0226301D01*
X0141243Y0226389D01*
X0141283Y0226479D01*
X0141318Y0226571D01*
X0141351Y0226663D01*
X0141379Y0226757D01*
X0141404Y0226852D01*
X0141425Y0226948D01*
X0141442Y0227045D01*
X0141456Y0227142D01*
X0141465Y0227240D01*
X0141471Y0227338D01*
X0141473Y0227436D01*
X0137536Y0227944D02*
X0137536Y0229564D01*
X0108600Y0223537D02*
X0108598Y0223635D01*
X0108592Y0223733D01*
X0108583Y0223831D01*
X0108569Y0223928D01*
X0108552Y0224025D01*
X0108531Y0224121D01*
X0108506Y0224216D01*
X0108478Y0224310D01*
X0108445Y0224402D01*
X0108410Y0224494D01*
X0108370Y0224584D01*
X0108328Y0224672D01*
X0108281Y0224759D01*
X0108232Y0224843D01*
X0108179Y0224926D01*
X0108123Y0225006D01*
X0108063Y0225085D01*
X0108001Y0225161D01*
X0107936Y0225234D01*
X0107868Y0225305D01*
X0104700Y0222992D02*
X0104698Y0223090D01*
X0104692Y0223188D01*
X0104683Y0223286D01*
X0104669Y0223383D01*
X0104652Y0223480D01*
X0104631Y0223576D01*
X0104606Y0223671D01*
X0104578Y0223765D01*
X0104545Y0223857D01*
X0104510Y0223949D01*
X0104470Y0224039D01*
X0104428Y0224127D01*
X0104381Y0224214D01*
X0104332Y0224298D01*
X0104279Y0224381D01*
X0104223Y0224461D01*
X0104163Y0224540D01*
X0104101Y0224616D01*
X0104036Y0224689D01*
X0103968Y0224760D01*
X0102868Y0224305D02*
X0102936Y0224234D01*
X0103001Y0224161D01*
X0103063Y0224085D01*
X0103123Y0224006D01*
X0103179Y0223926D01*
X0103232Y0223843D01*
X0103281Y0223759D01*
X0103328Y0223672D01*
X0103370Y0223584D01*
X0103410Y0223494D01*
X0103445Y0223402D01*
X0103478Y0223310D01*
X0103506Y0223216D01*
X0103531Y0223121D01*
X0103552Y0223025D01*
X0103569Y0222928D01*
X0103583Y0222831D01*
X0103592Y0222733D01*
X0103598Y0222635D01*
X0103600Y0222537D01*
X0099700Y0221992D02*
X0099698Y0222090D01*
X0099692Y0222188D01*
X0099683Y0222286D01*
X0099669Y0222383D01*
X0099652Y0222480D01*
X0099631Y0222576D01*
X0099606Y0222671D01*
X0099578Y0222765D01*
X0099545Y0222857D01*
X0099510Y0222949D01*
X0099470Y0223039D01*
X0099428Y0223127D01*
X0099381Y0223214D01*
X0099332Y0223298D01*
X0099279Y0223381D01*
X0099223Y0223461D01*
X0099163Y0223540D01*
X0099101Y0223616D01*
X0099036Y0223689D01*
X0098968Y0223760D01*
X0097868Y0223305D02*
X0097936Y0223234D01*
X0098001Y0223161D01*
X0098063Y0223085D01*
X0098123Y0223006D01*
X0098179Y0222926D01*
X0098232Y0222843D01*
X0098281Y0222759D01*
X0098328Y0222672D01*
X0098370Y0222584D01*
X0098410Y0222494D01*
X0098445Y0222402D01*
X0098478Y0222310D01*
X0098506Y0222216D01*
X0098531Y0222121D01*
X0098552Y0222025D01*
X0098569Y0221928D01*
X0098583Y0221831D01*
X0098592Y0221733D01*
X0098598Y0221635D01*
X0098600Y0221537D01*
X0106650Y0109800D02*
X0104333Y0107482D01*
X0105140Y0106539D02*
X0105461Y0106861D01*
X0106522Y0107300D02*
X0108115Y0107300D01*
X0109883Y0108032D02*
X0111650Y0109800D01*
X0109883Y0108032D02*
X0109812Y0107964D01*
X0109739Y0107899D01*
X0109663Y0107837D01*
X0109584Y0107777D01*
X0109504Y0107721D01*
X0109421Y0107668D01*
X0109337Y0107619D01*
X0109250Y0107572D01*
X0109162Y0107530D01*
X0109072Y0107490D01*
X0108980Y0107455D01*
X0108888Y0107422D01*
X0108794Y0107394D01*
X0108699Y0107369D01*
X0108603Y0107348D01*
X0108506Y0107331D01*
X0108409Y0107317D01*
X0108311Y0107308D01*
X0108213Y0107302D01*
X0108115Y0107300D01*
X0106522Y0107300D02*
X0106448Y0107298D01*
X0106375Y0107293D01*
X0106302Y0107284D01*
X0106229Y0107271D01*
X0106158Y0107255D01*
X0106087Y0107235D01*
X0106017Y0107212D01*
X0105948Y0107186D01*
X0105881Y0107156D01*
X0105815Y0107123D01*
X0105751Y0107087D01*
X0105689Y0107047D01*
X0105628Y0107005D01*
X0105570Y0106960D01*
X0105515Y0106911D01*
X0105461Y0106861D01*
X0104332Y0107482D02*
X0104264Y0107411D01*
X0104199Y0107338D01*
X0104137Y0107262D01*
X0104077Y0107183D01*
X0104021Y0107103D01*
X0103968Y0107020D01*
X0103919Y0106936D01*
X0103872Y0106849D01*
X0103830Y0106761D01*
X0103790Y0106671D01*
X0103755Y0106579D01*
X0103722Y0106487D01*
X0103694Y0106393D01*
X0103669Y0106298D01*
X0103648Y0106202D01*
X0103631Y0106105D01*
X0103617Y0106008D01*
X0103608Y0105910D01*
X0103602Y0105812D01*
X0103600Y0105714D01*
X0103600Y0079442D01*
X0104700Y0078986D02*
X0104698Y0078926D01*
X0104693Y0078865D01*
X0104684Y0078806D01*
X0104671Y0078747D01*
X0104655Y0078688D01*
X0104635Y0078631D01*
X0104612Y0078576D01*
X0104585Y0078521D01*
X0104556Y0078469D01*
X0104523Y0078418D01*
X0104487Y0078369D01*
X0104449Y0078323D01*
X0104407Y0078279D01*
X0104408Y0078279D02*
X0104365Y0078236D01*
X0104072Y0077529D02*
X0104072Y0075036D01*
X0102103Y0075036D02*
X0102103Y0077323D01*
X0102250Y0077677D02*
X0103308Y0078735D01*
X0103307Y0078735D02*
X0103349Y0078779D01*
X0103387Y0078825D01*
X0103423Y0078874D01*
X0103456Y0078925D01*
X0103485Y0078977D01*
X0103512Y0079032D01*
X0103535Y0079087D01*
X0103555Y0079144D01*
X0103571Y0079203D01*
X0103584Y0079262D01*
X0103593Y0079321D01*
X0103598Y0079382D01*
X0103600Y0079442D01*
X0104700Y0078986D02*
X0104700Y0105479D01*
X0104702Y0105553D01*
X0104707Y0105626D01*
X0104716Y0105699D01*
X0104729Y0105772D01*
X0104745Y0105843D01*
X0104765Y0105914D01*
X0104788Y0105984D01*
X0104814Y0106053D01*
X0104844Y0106120D01*
X0104877Y0106186D01*
X0104913Y0106250D01*
X0104953Y0106312D01*
X0104995Y0106373D01*
X0105040Y0106431D01*
X0105089Y0106486D01*
X0105139Y0106540D01*
X0106650Y0104800D02*
X0107868Y0103582D01*
X0108600Y0101814D02*
X0108600Y0078714D01*
X0108308Y0078007D02*
X0108155Y0077855D01*
X0108009Y0077501D02*
X0108009Y0075036D01*
X0109977Y0075036D02*
X0109977Y0077839D01*
X0109975Y0077878D01*
X0109970Y0077916D01*
X0109962Y0077954D01*
X0109950Y0077991D01*
X0109935Y0078027D01*
X0109917Y0078061D01*
X0109897Y0078094D01*
X0109873Y0078125D01*
X0109847Y0078154D01*
X0109700Y0078507D02*
X0109700Y0101814D01*
X0110433Y0103582D02*
X0111650Y0104800D01*
X0113600Y0105714D02*
X0113600Y0078779D01*
X0113747Y0078426D02*
X0113768Y0078405D01*
X0113914Y0078051D02*
X0113914Y0075036D01*
X0115883Y0075036D02*
X0115883Y0077638D01*
X0115736Y0077992D02*
X0114993Y0078735D01*
X0114700Y0079442D02*
X0114700Y0105479D01*
X0115140Y0106539D02*
X0115461Y0106861D01*
X0116522Y0107300D02*
X0118115Y0107300D01*
X0119883Y0108032D02*
X0121650Y0109800D01*
X0119883Y0108032D02*
X0119812Y0107964D01*
X0119739Y0107899D01*
X0119663Y0107837D01*
X0119584Y0107777D01*
X0119504Y0107721D01*
X0119421Y0107668D01*
X0119337Y0107619D01*
X0119250Y0107572D01*
X0119162Y0107530D01*
X0119072Y0107490D01*
X0118980Y0107455D01*
X0118888Y0107422D01*
X0118794Y0107394D01*
X0118699Y0107369D01*
X0118603Y0107348D01*
X0118506Y0107331D01*
X0118409Y0107317D01*
X0118311Y0107308D01*
X0118213Y0107302D01*
X0118115Y0107300D01*
X0116522Y0107300D02*
X0116448Y0107298D01*
X0116375Y0107293D01*
X0116302Y0107284D01*
X0116229Y0107271D01*
X0116158Y0107255D01*
X0116087Y0107235D01*
X0116017Y0107212D01*
X0115948Y0107186D01*
X0115881Y0107156D01*
X0115815Y0107123D01*
X0115751Y0107087D01*
X0115689Y0107047D01*
X0115628Y0107005D01*
X0115570Y0106960D01*
X0115515Y0106911D01*
X0115461Y0106861D01*
X0114333Y0107482D02*
X0116650Y0109800D01*
X0114332Y0107482D02*
X0114264Y0107411D01*
X0114199Y0107338D01*
X0114137Y0107262D01*
X0114077Y0107183D01*
X0114021Y0107103D01*
X0113968Y0107020D01*
X0113919Y0106936D01*
X0113872Y0106849D01*
X0113830Y0106761D01*
X0113790Y0106671D01*
X0113755Y0106579D01*
X0113722Y0106487D01*
X0113694Y0106393D01*
X0113669Y0106298D01*
X0113648Y0106202D01*
X0113631Y0106105D01*
X0113617Y0106008D01*
X0113608Y0105910D01*
X0113602Y0105812D01*
X0113600Y0105714D01*
X0114700Y0105479D02*
X0114702Y0105553D01*
X0114707Y0105626D01*
X0114716Y0105699D01*
X0114729Y0105772D01*
X0114745Y0105843D01*
X0114765Y0105914D01*
X0114788Y0105984D01*
X0114814Y0106053D01*
X0114844Y0106120D01*
X0114877Y0106186D01*
X0114913Y0106250D01*
X0114953Y0106312D01*
X0114995Y0106373D01*
X0115040Y0106431D01*
X0115089Y0106486D01*
X0115139Y0106540D01*
X0116650Y0104800D02*
X0117868Y0103582D01*
X0118600Y0101814D02*
X0118600Y0080608D01*
X0119700Y0081063D02*
X0119700Y0101814D01*
X0120433Y0103582D02*
X0121650Y0104800D01*
X0120432Y0103582D02*
X0120364Y0103511D01*
X0120299Y0103438D01*
X0120237Y0103362D01*
X0120177Y0103283D01*
X0120121Y0103203D01*
X0120068Y0103120D01*
X0120019Y0103036D01*
X0119972Y0102949D01*
X0119930Y0102861D01*
X0119890Y0102771D01*
X0119855Y0102679D01*
X0119822Y0102587D01*
X0119794Y0102493D01*
X0119769Y0102398D01*
X0119748Y0102302D01*
X0119731Y0102205D01*
X0119717Y0102108D01*
X0119708Y0102010D01*
X0119702Y0101912D01*
X0119700Y0101814D01*
X0118600Y0101814D02*
X0118598Y0101912D01*
X0118592Y0102010D01*
X0118583Y0102108D01*
X0118569Y0102205D01*
X0118552Y0102302D01*
X0118531Y0102398D01*
X0118506Y0102493D01*
X0118478Y0102587D01*
X0118445Y0102679D01*
X0118410Y0102771D01*
X0118370Y0102861D01*
X0118328Y0102949D01*
X0118281Y0103036D01*
X0118232Y0103120D01*
X0118179Y0103203D01*
X0118123Y0103283D01*
X0118063Y0103362D01*
X0118001Y0103438D01*
X0117936Y0103511D01*
X0117868Y0103582D01*
X0110432Y0103582D02*
X0110364Y0103511D01*
X0110299Y0103438D01*
X0110237Y0103362D01*
X0110177Y0103283D01*
X0110121Y0103203D01*
X0110068Y0103120D01*
X0110019Y0103036D01*
X0109972Y0102949D01*
X0109930Y0102861D01*
X0109890Y0102771D01*
X0109855Y0102679D01*
X0109822Y0102587D01*
X0109794Y0102493D01*
X0109769Y0102398D01*
X0109748Y0102302D01*
X0109731Y0102205D01*
X0109717Y0102108D01*
X0109708Y0102010D01*
X0109702Y0101912D01*
X0109700Y0101814D01*
X0108600Y0101814D02*
X0108598Y0101912D01*
X0108592Y0102010D01*
X0108583Y0102108D01*
X0108569Y0102205D01*
X0108552Y0102302D01*
X0108531Y0102398D01*
X0108506Y0102493D01*
X0108478Y0102587D01*
X0108445Y0102679D01*
X0108410Y0102771D01*
X0108370Y0102861D01*
X0108328Y0102949D01*
X0108281Y0103036D01*
X0108232Y0103120D01*
X0108179Y0103203D01*
X0108123Y0103283D01*
X0108063Y0103362D01*
X0108001Y0103438D01*
X0107936Y0103511D01*
X0107868Y0103582D01*
X0127868Y0103582D02*
X0127936Y0103511D01*
X0128001Y0103438D01*
X0128063Y0103362D01*
X0128123Y0103283D01*
X0128179Y0103203D01*
X0128232Y0103120D01*
X0128281Y0103036D01*
X0128328Y0102949D01*
X0128370Y0102861D01*
X0128410Y0102771D01*
X0128445Y0102679D01*
X0128478Y0102587D01*
X0128506Y0102493D01*
X0128531Y0102398D01*
X0128552Y0102302D01*
X0128569Y0102205D01*
X0128583Y0102108D01*
X0128592Y0102010D01*
X0128598Y0101912D01*
X0128600Y0101814D01*
X0128600Y0081563D01*
X0129700Y0081108D02*
X0129700Y0101814D01*
X0130433Y0103582D02*
X0131650Y0104800D01*
X0133600Y0105479D02*
X0133598Y0105553D01*
X0133593Y0105626D01*
X0133584Y0105699D01*
X0133571Y0105772D01*
X0133555Y0105843D01*
X0133535Y0105914D01*
X0133512Y0105984D01*
X0133486Y0106053D01*
X0133456Y0106120D01*
X0133423Y0106186D01*
X0133387Y0106250D01*
X0133347Y0106312D01*
X0133305Y0106373D01*
X0133260Y0106431D01*
X0133211Y0106486D01*
X0133161Y0106540D01*
X0133161Y0106539D02*
X0132840Y0106861D01*
X0131779Y0107300D02*
X0130186Y0107300D01*
X0128418Y0108032D02*
X0126650Y0109800D01*
X0128418Y0108032D02*
X0128489Y0107964D01*
X0128562Y0107899D01*
X0128638Y0107837D01*
X0128717Y0107777D01*
X0128797Y0107721D01*
X0128880Y0107668D01*
X0128964Y0107619D01*
X0129051Y0107572D01*
X0129139Y0107530D01*
X0129229Y0107490D01*
X0129321Y0107455D01*
X0129413Y0107422D01*
X0129507Y0107394D01*
X0129602Y0107369D01*
X0129698Y0107348D01*
X0129795Y0107331D01*
X0129892Y0107317D01*
X0129990Y0107308D01*
X0130088Y0107302D01*
X0130186Y0107300D01*
X0131779Y0107300D02*
X0131853Y0107298D01*
X0131926Y0107293D01*
X0131999Y0107284D01*
X0132072Y0107271D01*
X0132143Y0107255D01*
X0132214Y0107235D01*
X0132284Y0107212D01*
X0132353Y0107186D01*
X0132420Y0107156D01*
X0132486Y0107123D01*
X0132550Y0107087D01*
X0132612Y0107047D01*
X0132673Y0107005D01*
X0132731Y0106960D01*
X0132786Y0106911D01*
X0132840Y0106861D01*
X0133968Y0107482D02*
X0131650Y0109800D01*
X0136650Y0109800D02*
X0138418Y0108032D01*
X0140186Y0107300D02*
X0141779Y0107300D01*
X0142840Y0106861D02*
X0143161Y0106539D01*
X0143600Y0105479D02*
X0143600Y0078317D01*
X0143601Y0078317D02*
X0143600Y0078306D01*
X0143595Y0078296D01*
X0143589Y0078287D01*
X0143442Y0077934D02*
X0143442Y0075036D01*
X0145410Y0075036D02*
X0145410Y0077383D01*
X0145264Y0077737D02*
X0144993Y0078007D01*
X0145264Y0077737D02*
X0145293Y0077704D01*
X0145320Y0077670D01*
X0145343Y0077633D01*
X0145363Y0077594D01*
X0145380Y0077554D01*
X0145393Y0077512D01*
X0145402Y0077470D01*
X0145408Y0077427D01*
X0145410Y0077383D01*
X0144993Y0078007D02*
X0144951Y0078051D01*
X0144913Y0078097D01*
X0144877Y0078146D01*
X0144844Y0078197D01*
X0144815Y0078249D01*
X0144788Y0078304D01*
X0144765Y0078359D01*
X0144745Y0078416D01*
X0144729Y0078475D01*
X0144716Y0078534D01*
X0144707Y0078593D01*
X0144702Y0078654D01*
X0144700Y0078714D01*
X0144700Y0105714D01*
X0148600Y0106814D02*
X0148598Y0106912D01*
X0148592Y0107010D01*
X0148583Y0107108D01*
X0148569Y0107205D01*
X0148552Y0107302D01*
X0148531Y0107398D01*
X0148506Y0107493D01*
X0148478Y0107587D01*
X0148445Y0107679D01*
X0148410Y0107771D01*
X0148370Y0107861D01*
X0148328Y0107949D01*
X0148281Y0108036D01*
X0148232Y0108120D01*
X0148179Y0108203D01*
X0148123Y0108283D01*
X0148063Y0108362D01*
X0148001Y0108438D01*
X0147936Y0108511D01*
X0147868Y0108582D01*
X0146650Y0109800D01*
X0143968Y0107482D02*
X0141650Y0109800D01*
X0140186Y0107300D02*
X0140088Y0107302D01*
X0139990Y0107308D01*
X0139892Y0107317D01*
X0139795Y0107331D01*
X0139698Y0107348D01*
X0139602Y0107369D01*
X0139507Y0107394D01*
X0139413Y0107422D01*
X0139321Y0107455D01*
X0139229Y0107490D01*
X0139139Y0107530D01*
X0139051Y0107572D01*
X0138964Y0107619D01*
X0138880Y0107668D01*
X0138797Y0107721D01*
X0138717Y0107777D01*
X0138638Y0107837D01*
X0138562Y0107899D01*
X0138489Y0107964D01*
X0138418Y0108032D01*
X0136650Y0104800D02*
X0137868Y0103582D01*
X0138600Y0101814D02*
X0138600Y0078942D01*
X0138308Y0078235D02*
X0137683Y0077610D01*
X0137536Y0077257D02*
X0137536Y0075036D01*
X0139505Y0075036D02*
X0139505Y0077807D01*
X0139506Y0077829D01*
X0139511Y0077850D01*
X0139518Y0077871D01*
X0139528Y0077891D01*
X0139540Y0077909D01*
X0139554Y0077926D01*
X0139700Y0078279D02*
X0139700Y0101814D01*
X0140433Y0103582D02*
X0141650Y0104800D01*
X0143600Y0105479D02*
X0143598Y0105553D01*
X0143593Y0105626D01*
X0143584Y0105699D01*
X0143571Y0105772D01*
X0143555Y0105843D01*
X0143535Y0105914D01*
X0143512Y0105984D01*
X0143486Y0106053D01*
X0143456Y0106120D01*
X0143423Y0106186D01*
X0143387Y0106250D01*
X0143347Y0106312D01*
X0143305Y0106373D01*
X0143260Y0106431D01*
X0143211Y0106486D01*
X0143161Y0106540D01*
X0143968Y0107482D02*
X0144036Y0107411D01*
X0144101Y0107338D01*
X0144163Y0107262D01*
X0144223Y0107183D01*
X0144279Y0107103D01*
X0144332Y0107020D01*
X0144381Y0106936D01*
X0144428Y0106849D01*
X0144470Y0106761D01*
X0144510Y0106671D01*
X0144545Y0106579D01*
X0144578Y0106487D01*
X0144606Y0106393D01*
X0144631Y0106298D01*
X0144652Y0106202D01*
X0144669Y0106105D01*
X0144683Y0106008D01*
X0144692Y0105910D01*
X0144698Y0105812D01*
X0144700Y0105714D01*
X0142840Y0106861D02*
X0142786Y0106911D01*
X0142731Y0106960D01*
X0142673Y0107005D01*
X0142612Y0107047D01*
X0142550Y0107087D01*
X0142486Y0107123D01*
X0142420Y0107156D01*
X0142353Y0107186D01*
X0142284Y0107212D01*
X0142214Y0107235D01*
X0142143Y0107255D01*
X0142072Y0107271D01*
X0141999Y0107284D01*
X0141926Y0107293D01*
X0141853Y0107298D01*
X0141779Y0107300D01*
X0140432Y0103582D02*
X0140364Y0103511D01*
X0140299Y0103438D01*
X0140237Y0103362D01*
X0140177Y0103283D01*
X0140121Y0103203D01*
X0140068Y0103120D01*
X0140019Y0103036D01*
X0139972Y0102949D01*
X0139930Y0102861D01*
X0139890Y0102771D01*
X0139855Y0102679D01*
X0139822Y0102587D01*
X0139794Y0102493D01*
X0139769Y0102398D01*
X0139748Y0102302D01*
X0139731Y0102205D01*
X0139717Y0102108D01*
X0139708Y0102010D01*
X0139702Y0101912D01*
X0139700Y0101814D01*
X0138600Y0101814D02*
X0138598Y0101912D01*
X0138592Y0102010D01*
X0138583Y0102108D01*
X0138569Y0102205D01*
X0138552Y0102302D01*
X0138531Y0102398D01*
X0138506Y0102493D01*
X0138478Y0102587D01*
X0138445Y0102679D01*
X0138410Y0102771D01*
X0138370Y0102861D01*
X0138328Y0102949D01*
X0138281Y0103036D01*
X0138232Y0103120D01*
X0138179Y0103203D01*
X0138123Y0103283D01*
X0138063Y0103362D01*
X0138001Y0103438D01*
X0137936Y0103511D01*
X0137868Y0103582D01*
X0134700Y0105714D02*
X0134700Y0080108D01*
X0133600Y0080563D02*
X0133600Y0105479D01*
X0134700Y0105714D02*
X0134698Y0105812D01*
X0134692Y0105910D01*
X0134683Y0106008D01*
X0134669Y0106105D01*
X0134652Y0106202D01*
X0134631Y0106298D01*
X0134606Y0106393D01*
X0134578Y0106487D01*
X0134545Y0106579D01*
X0134510Y0106671D01*
X0134470Y0106761D01*
X0134428Y0106849D01*
X0134381Y0106936D01*
X0134332Y0107020D01*
X0134279Y0107103D01*
X0134223Y0107183D01*
X0134163Y0107262D01*
X0134101Y0107338D01*
X0134036Y0107411D01*
X0133968Y0107482D01*
X0130432Y0103582D02*
X0130364Y0103511D01*
X0130299Y0103438D01*
X0130237Y0103362D01*
X0130177Y0103283D01*
X0130121Y0103203D01*
X0130068Y0103120D01*
X0130019Y0103036D01*
X0129972Y0102949D01*
X0129930Y0102861D01*
X0129890Y0102771D01*
X0129855Y0102679D01*
X0129822Y0102587D01*
X0129794Y0102493D01*
X0129769Y0102398D01*
X0129748Y0102302D01*
X0129731Y0102205D01*
X0129717Y0102108D01*
X0129708Y0102010D01*
X0129702Y0101912D01*
X0129700Y0101814D01*
X0127868Y0103582D02*
X0126650Y0104800D01*
X0148600Y0106814D02*
X0148600Y0078986D01*
X0148893Y0078279D02*
X0149201Y0077972D01*
X0149347Y0077618D02*
X0149347Y0075036D01*
X0151316Y0075036D02*
X0151316Y0077205D01*
X0151169Y0077559D02*
X0149993Y0078735D01*
X0148893Y0078279D02*
X0148851Y0078323D01*
X0148813Y0078369D01*
X0148777Y0078418D01*
X0148744Y0078469D01*
X0148715Y0078521D01*
X0148688Y0078576D01*
X0148665Y0078631D01*
X0148645Y0078688D01*
X0148629Y0078747D01*
X0148616Y0078806D01*
X0148607Y0078865D01*
X0148602Y0078926D01*
X0148600Y0078986D01*
X0149700Y0079442D02*
X0149700Y0106814D01*
X0150433Y0108582D02*
X0151650Y0109800D01*
X0150432Y0108582D02*
X0150364Y0108511D01*
X0150299Y0108438D01*
X0150237Y0108362D01*
X0150177Y0108283D01*
X0150121Y0108203D01*
X0150068Y0108120D01*
X0150019Y0108036D01*
X0149972Y0107949D01*
X0149930Y0107861D01*
X0149890Y0107771D01*
X0149855Y0107679D01*
X0149822Y0107587D01*
X0149794Y0107493D01*
X0149769Y0107398D01*
X0149748Y0107302D01*
X0149731Y0107205D01*
X0149717Y0107108D01*
X0149708Y0107010D01*
X0149702Y0106912D01*
X0149700Y0106814D01*
X0153600Y0105714D02*
X0153600Y0080608D01*
X0154700Y0081063D02*
X0154700Y0105479D01*
X0155140Y0106539D02*
X0155461Y0106861D01*
X0156522Y0107300D02*
X0158115Y0107300D01*
X0159883Y0108032D02*
X0161650Y0109800D01*
X0166650Y0109800D02*
X0168418Y0108032D01*
X0170186Y0107300D02*
X0171779Y0107300D01*
X0172840Y0106861D02*
X0173161Y0106539D01*
X0173600Y0105479D02*
X0173600Y0078300D01*
X0173116Y0077815D01*
X0172969Y0077462D02*
X0172969Y0075036D01*
X0174938Y0075036D02*
X0174938Y0077934D01*
X0174936Y0077969D01*
X0174930Y0078003D01*
X0174921Y0078037D01*
X0174907Y0078069D01*
X0174890Y0078099D01*
X0174870Y0078128D01*
X0174847Y0078154D01*
X0174700Y0078507D02*
X0174700Y0105714D01*
X0173968Y0107482D02*
X0171650Y0109800D01*
X0170186Y0107300D02*
X0170088Y0107302D01*
X0169990Y0107308D01*
X0169892Y0107317D01*
X0169795Y0107331D01*
X0169698Y0107348D01*
X0169602Y0107369D01*
X0169507Y0107394D01*
X0169413Y0107422D01*
X0169321Y0107455D01*
X0169229Y0107490D01*
X0169139Y0107530D01*
X0169051Y0107572D01*
X0168964Y0107619D01*
X0168880Y0107668D01*
X0168797Y0107721D01*
X0168717Y0107777D01*
X0168638Y0107837D01*
X0168562Y0107899D01*
X0168489Y0107964D01*
X0168418Y0108032D01*
X0166650Y0104800D02*
X0167868Y0103582D01*
X0168600Y0101814D02*
X0168600Y0079735D01*
X0169700Y0079486D02*
X0169698Y0079426D01*
X0169693Y0079365D01*
X0169684Y0079306D01*
X0169671Y0079247D01*
X0169655Y0079188D01*
X0169635Y0079131D01*
X0169612Y0079076D01*
X0169585Y0079021D01*
X0169556Y0078969D01*
X0169523Y0078918D01*
X0169487Y0078869D01*
X0169449Y0078823D01*
X0169407Y0078779D01*
X0169408Y0078779D02*
X0169179Y0078551D01*
X0169032Y0078197D02*
X0169032Y0075036D01*
X0167064Y0075036D02*
X0167064Y0077784D01*
X0167210Y0078138D02*
X0168454Y0079381D01*
X0168483Y0079414D01*
X0168510Y0079448D01*
X0168533Y0079485D01*
X0168553Y0079524D01*
X0168570Y0079564D01*
X0168583Y0079606D01*
X0168592Y0079648D01*
X0168598Y0079691D01*
X0168600Y0079735D01*
X0169700Y0079486D02*
X0169700Y0101814D01*
X0170433Y0103582D02*
X0171650Y0104800D01*
X0173600Y0105479D02*
X0173598Y0105553D01*
X0173593Y0105626D01*
X0173584Y0105699D01*
X0173571Y0105772D01*
X0173555Y0105843D01*
X0173535Y0105914D01*
X0173512Y0105984D01*
X0173486Y0106053D01*
X0173456Y0106120D01*
X0173423Y0106186D01*
X0173387Y0106250D01*
X0173347Y0106312D01*
X0173305Y0106373D01*
X0173260Y0106431D01*
X0173211Y0106486D01*
X0173161Y0106540D01*
X0173968Y0107482D02*
X0174036Y0107411D01*
X0174101Y0107338D01*
X0174163Y0107262D01*
X0174223Y0107183D01*
X0174279Y0107103D01*
X0174332Y0107020D01*
X0174381Y0106936D01*
X0174428Y0106849D01*
X0174470Y0106761D01*
X0174510Y0106671D01*
X0174545Y0106579D01*
X0174578Y0106487D01*
X0174606Y0106393D01*
X0174631Y0106298D01*
X0174652Y0106202D01*
X0174669Y0106105D01*
X0174683Y0106008D01*
X0174692Y0105910D01*
X0174698Y0105812D01*
X0174700Y0105714D01*
X0176650Y0104800D02*
X0177868Y0103582D01*
X0178600Y0101814D02*
X0178600Y0078779D01*
X0178602Y0078735D01*
X0178608Y0078692D01*
X0178617Y0078650D01*
X0178630Y0078608D01*
X0178647Y0078568D01*
X0178667Y0078529D01*
X0178690Y0078492D01*
X0178717Y0078458D01*
X0178746Y0078425D01*
X0178875Y0078117D02*
X0178875Y0075036D01*
X0180843Y0075036D02*
X0180843Y0077678D01*
X0180697Y0078031D02*
X0179847Y0078881D01*
X0179700Y0079235D02*
X0179700Y0101814D01*
X0180433Y0103582D02*
X0181650Y0104800D01*
X0183600Y0105479D02*
X0183598Y0105553D01*
X0183593Y0105626D01*
X0183584Y0105699D01*
X0183571Y0105772D01*
X0183555Y0105843D01*
X0183535Y0105914D01*
X0183512Y0105984D01*
X0183486Y0106053D01*
X0183456Y0106120D01*
X0183423Y0106186D01*
X0183387Y0106250D01*
X0183347Y0106312D01*
X0183305Y0106373D01*
X0183260Y0106431D01*
X0183211Y0106486D01*
X0183161Y0106540D01*
X0183161Y0106539D02*
X0182840Y0106861D01*
X0181779Y0107300D02*
X0180186Y0107300D01*
X0178418Y0108032D02*
X0176650Y0109800D01*
X0178418Y0108032D02*
X0178489Y0107964D01*
X0178562Y0107899D01*
X0178638Y0107837D01*
X0178717Y0107777D01*
X0178797Y0107721D01*
X0178880Y0107668D01*
X0178964Y0107619D01*
X0179051Y0107572D01*
X0179139Y0107530D01*
X0179229Y0107490D01*
X0179321Y0107455D01*
X0179413Y0107422D01*
X0179507Y0107394D01*
X0179602Y0107369D01*
X0179698Y0107348D01*
X0179795Y0107331D01*
X0179892Y0107317D01*
X0179990Y0107308D01*
X0180088Y0107302D01*
X0180186Y0107300D01*
X0181779Y0107300D02*
X0181853Y0107298D01*
X0181926Y0107293D01*
X0181999Y0107284D01*
X0182072Y0107271D01*
X0182143Y0107255D01*
X0182214Y0107235D01*
X0182284Y0107212D01*
X0182353Y0107186D01*
X0182420Y0107156D01*
X0182486Y0107123D01*
X0182550Y0107087D01*
X0182612Y0107047D01*
X0182673Y0107005D01*
X0182731Y0106960D01*
X0182786Y0106911D01*
X0182840Y0106861D01*
X0183968Y0107482D02*
X0181650Y0109800D01*
X0183968Y0107482D02*
X0184036Y0107411D01*
X0184101Y0107338D01*
X0184163Y0107262D01*
X0184223Y0107183D01*
X0184279Y0107103D01*
X0184332Y0107020D01*
X0184381Y0106936D01*
X0184428Y0106849D01*
X0184470Y0106761D01*
X0184510Y0106671D01*
X0184545Y0106579D01*
X0184578Y0106487D01*
X0184606Y0106393D01*
X0184631Y0106298D01*
X0184652Y0106202D01*
X0184669Y0106105D01*
X0184683Y0106008D01*
X0184692Y0105910D01*
X0184698Y0105812D01*
X0184700Y0105714D01*
X0184700Y0079942D01*
X0183600Y0079486D02*
X0183602Y0079426D01*
X0183607Y0079365D01*
X0183616Y0079306D01*
X0183629Y0079247D01*
X0183645Y0079188D01*
X0183665Y0079131D01*
X0183688Y0079076D01*
X0183715Y0079021D01*
X0183744Y0078969D01*
X0183777Y0078918D01*
X0183813Y0078869D01*
X0183851Y0078823D01*
X0183893Y0078779D01*
X0184634Y0078039D01*
X0184780Y0077685D02*
X0184780Y0075036D01*
X0186749Y0075036D02*
X0186749Y0077272D01*
X0186602Y0077626D02*
X0184993Y0079235D01*
X0184951Y0079279D01*
X0184913Y0079325D01*
X0184877Y0079374D01*
X0184844Y0079425D01*
X0184815Y0079477D01*
X0184788Y0079532D01*
X0184765Y0079587D01*
X0184745Y0079644D01*
X0184729Y0079703D01*
X0184716Y0079762D01*
X0184707Y0079821D01*
X0184702Y0079882D01*
X0184700Y0079942D01*
X0183600Y0079486D02*
X0183600Y0105479D01*
X0188600Y0106814D02*
X0188598Y0106912D01*
X0188592Y0107010D01*
X0188583Y0107108D01*
X0188569Y0107205D01*
X0188552Y0107302D01*
X0188531Y0107398D01*
X0188506Y0107493D01*
X0188478Y0107587D01*
X0188445Y0107679D01*
X0188410Y0107771D01*
X0188370Y0107861D01*
X0188328Y0107949D01*
X0188281Y0108036D01*
X0188232Y0108120D01*
X0188179Y0108203D01*
X0188123Y0108283D01*
X0188063Y0108362D01*
X0188001Y0108438D01*
X0187936Y0108511D01*
X0187868Y0108582D01*
X0186650Y0109800D01*
X0188600Y0106814D02*
X0188600Y0081108D01*
X0189700Y0081563D02*
X0189700Y0106814D01*
X0190433Y0108582D02*
X0191650Y0109800D01*
X0190432Y0108582D02*
X0190364Y0108511D01*
X0190299Y0108438D01*
X0190237Y0108362D01*
X0190177Y0108283D01*
X0190121Y0108203D01*
X0190068Y0108120D01*
X0190019Y0108036D01*
X0189972Y0107949D01*
X0189930Y0107861D01*
X0189890Y0107771D01*
X0189855Y0107679D01*
X0189822Y0107587D01*
X0189794Y0107493D01*
X0189769Y0107398D01*
X0189748Y0107302D01*
X0189731Y0107205D01*
X0189717Y0107108D01*
X0189708Y0107010D01*
X0189702Y0106912D01*
X0189700Y0106814D01*
X0191650Y0104800D02*
X0192868Y0103582D01*
X0193600Y0101814D02*
X0193600Y0082108D01*
X0194700Y0082563D02*
X0194700Y0101814D01*
X0195433Y0103582D02*
X0196650Y0104800D01*
X0195432Y0103582D02*
X0195364Y0103511D01*
X0195299Y0103438D01*
X0195237Y0103362D01*
X0195177Y0103283D01*
X0195121Y0103203D01*
X0195068Y0103120D01*
X0195019Y0103036D01*
X0194972Y0102949D01*
X0194930Y0102861D01*
X0194890Y0102771D01*
X0194855Y0102679D01*
X0194822Y0102587D01*
X0194794Y0102493D01*
X0194769Y0102398D01*
X0194748Y0102302D01*
X0194731Y0102205D01*
X0194717Y0102108D01*
X0194708Y0102010D01*
X0194702Y0101912D01*
X0194700Y0101814D01*
X0193600Y0101814D02*
X0193598Y0101912D01*
X0193592Y0102010D01*
X0193583Y0102108D01*
X0193569Y0102205D01*
X0193552Y0102302D01*
X0193531Y0102398D01*
X0193506Y0102493D01*
X0193478Y0102587D01*
X0193445Y0102679D01*
X0193410Y0102771D01*
X0193370Y0102861D01*
X0193328Y0102949D01*
X0193281Y0103036D01*
X0193232Y0103120D01*
X0193179Y0103203D01*
X0193123Y0103283D01*
X0193063Y0103362D01*
X0193001Y0103438D01*
X0192936Y0103511D01*
X0192868Y0103582D01*
X0180432Y0103582D02*
X0180364Y0103511D01*
X0180299Y0103438D01*
X0180237Y0103362D01*
X0180177Y0103283D01*
X0180121Y0103203D01*
X0180068Y0103120D01*
X0180019Y0103036D01*
X0179972Y0102949D01*
X0179930Y0102861D01*
X0179890Y0102771D01*
X0179855Y0102679D01*
X0179822Y0102587D01*
X0179794Y0102493D01*
X0179769Y0102398D01*
X0179748Y0102302D01*
X0179731Y0102205D01*
X0179717Y0102108D01*
X0179708Y0102010D01*
X0179702Y0101912D01*
X0179700Y0101814D01*
X0178600Y0101814D02*
X0178598Y0101912D01*
X0178592Y0102010D01*
X0178583Y0102108D01*
X0178569Y0102205D01*
X0178552Y0102302D01*
X0178531Y0102398D01*
X0178506Y0102493D01*
X0178478Y0102587D01*
X0178445Y0102679D01*
X0178410Y0102771D01*
X0178370Y0102861D01*
X0178328Y0102949D01*
X0178281Y0103036D01*
X0178232Y0103120D01*
X0178179Y0103203D01*
X0178123Y0103283D01*
X0178063Y0103362D01*
X0178001Y0103438D01*
X0177936Y0103511D01*
X0177868Y0103582D01*
X0170432Y0103582D02*
X0170364Y0103511D01*
X0170299Y0103438D01*
X0170237Y0103362D01*
X0170177Y0103283D01*
X0170121Y0103203D01*
X0170068Y0103120D01*
X0170019Y0103036D01*
X0169972Y0102949D01*
X0169930Y0102861D01*
X0169890Y0102771D01*
X0169855Y0102679D01*
X0169822Y0102587D01*
X0169794Y0102493D01*
X0169769Y0102398D01*
X0169748Y0102302D01*
X0169731Y0102205D01*
X0169717Y0102108D01*
X0169708Y0102010D01*
X0169702Y0101912D01*
X0169700Y0101814D01*
X0168600Y0101814D02*
X0168598Y0101912D01*
X0168592Y0102010D01*
X0168583Y0102108D01*
X0168569Y0102205D01*
X0168552Y0102302D01*
X0168531Y0102398D01*
X0168506Y0102493D01*
X0168478Y0102587D01*
X0168445Y0102679D01*
X0168410Y0102771D01*
X0168370Y0102861D01*
X0168328Y0102949D01*
X0168281Y0103036D01*
X0168232Y0103120D01*
X0168179Y0103203D01*
X0168123Y0103283D01*
X0168063Y0103362D01*
X0168001Y0103438D01*
X0167936Y0103511D01*
X0167868Y0103582D01*
X0171779Y0107300D02*
X0171853Y0107298D01*
X0171926Y0107293D01*
X0171999Y0107284D01*
X0172072Y0107271D01*
X0172143Y0107255D01*
X0172214Y0107235D01*
X0172284Y0107212D01*
X0172353Y0107186D01*
X0172420Y0107156D01*
X0172486Y0107123D01*
X0172550Y0107087D01*
X0172612Y0107047D01*
X0172673Y0107005D01*
X0172731Y0106960D01*
X0172786Y0106911D01*
X0172840Y0106861D01*
X0161650Y0104800D02*
X0160433Y0103582D01*
X0159700Y0101814D02*
X0159700Y0082063D01*
X0158600Y0081608D02*
X0158600Y0101814D01*
X0157868Y0103582D02*
X0156650Y0104800D01*
X0154700Y0105479D02*
X0154702Y0105553D01*
X0154707Y0105626D01*
X0154716Y0105699D01*
X0154729Y0105772D01*
X0154745Y0105843D01*
X0154765Y0105914D01*
X0154788Y0105984D01*
X0154814Y0106053D01*
X0154844Y0106120D01*
X0154877Y0106186D01*
X0154913Y0106250D01*
X0154953Y0106312D01*
X0154995Y0106373D01*
X0155040Y0106431D01*
X0155089Y0106486D01*
X0155139Y0106540D01*
X0154333Y0107482D02*
X0156650Y0109800D01*
X0158115Y0107300D02*
X0158213Y0107302D01*
X0158311Y0107308D01*
X0158409Y0107317D01*
X0158506Y0107331D01*
X0158603Y0107348D01*
X0158699Y0107369D01*
X0158794Y0107394D01*
X0158888Y0107422D01*
X0158980Y0107455D01*
X0159072Y0107490D01*
X0159162Y0107530D01*
X0159250Y0107572D01*
X0159337Y0107619D01*
X0159421Y0107668D01*
X0159504Y0107721D01*
X0159584Y0107777D01*
X0159663Y0107837D01*
X0159739Y0107899D01*
X0159812Y0107964D01*
X0159883Y0108032D01*
X0156522Y0107300D02*
X0156448Y0107298D01*
X0156375Y0107293D01*
X0156302Y0107284D01*
X0156229Y0107271D01*
X0156158Y0107255D01*
X0156087Y0107235D01*
X0156017Y0107212D01*
X0155948Y0107186D01*
X0155881Y0107156D01*
X0155815Y0107123D01*
X0155751Y0107087D01*
X0155689Y0107047D01*
X0155628Y0107005D01*
X0155570Y0106960D01*
X0155515Y0106911D01*
X0155461Y0106861D01*
X0154332Y0107482D02*
X0154264Y0107411D01*
X0154199Y0107338D01*
X0154137Y0107262D01*
X0154077Y0107183D01*
X0154021Y0107103D01*
X0153968Y0107020D01*
X0153919Y0106936D01*
X0153872Y0106849D01*
X0153830Y0106761D01*
X0153790Y0106671D01*
X0153755Y0106579D01*
X0153722Y0106487D01*
X0153694Y0106393D01*
X0153669Y0106298D01*
X0153648Y0106202D01*
X0153631Y0106105D01*
X0153617Y0106008D01*
X0153608Y0105910D01*
X0153602Y0105812D01*
X0153600Y0105714D01*
X0157868Y0103582D02*
X0157936Y0103511D01*
X0158001Y0103438D01*
X0158063Y0103362D01*
X0158123Y0103283D01*
X0158179Y0103203D01*
X0158232Y0103120D01*
X0158281Y0103036D01*
X0158328Y0102949D01*
X0158370Y0102861D01*
X0158410Y0102771D01*
X0158445Y0102679D01*
X0158478Y0102587D01*
X0158506Y0102493D01*
X0158531Y0102398D01*
X0158552Y0102302D01*
X0158569Y0102205D01*
X0158583Y0102108D01*
X0158592Y0102010D01*
X0158598Y0101912D01*
X0158600Y0101814D01*
X0159700Y0101814D02*
X0159702Y0101912D01*
X0159708Y0102010D01*
X0159717Y0102108D01*
X0159731Y0102205D01*
X0159748Y0102302D01*
X0159769Y0102398D01*
X0159794Y0102493D01*
X0159822Y0102587D01*
X0159855Y0102679D01*
X0159890Y0102771D01*
X0159930Y0102861D01*
X0159972Y0102949D01*
X0160019Y0103036D01*
X0160068Y0103120D01*
X0160121Y0103203D01*
X0160177Y0103283D01*
X0160237Y0103362D01*
X0160299Y0103438D01*
X0160364Y0103511D01*
X0160432Y0103582D01*
X0159700Y0082063D02*
X0159702Y0081965D01*
X0159708Y0081867D01*
X0159717Y0081769D01*
X0159731Y0081672D01*
X0159748Y0081575D01*
X0159769Y0081479D01*
X0159794Y0081384D01*
X0159822Y0081290D01*
X0159855Y0081198D01*
X0159890Y0081106D01*
X0159930Y0081016D01*
X0159972Y0080928D01*
X0160019Y0080841D01*
X0160068Y0080757D01*
X0160121Y0080674D01*
X0160177Y0080594D01*
X0160237Y0080515D01*
X0160299Y0080439D01*
X0160364Y0080366D01*
X0160432Y0080295D01*
X0160433Y0080296D02*
X0162395Y0078334D01*
X0161158Y0076979D02*
X0161158Y0075036D01*
X0163127Y0076566D02*
X0163125Y0076664D01*
X0163119Y0076762D01*
X0163110Y0076860D01*
X0163096Y0076957D01*
X0163079Y0077054D01*
X0163058Y0077150D01*
X0163033Y0077245D01*
X0163005Y0077339D01*
X0162972Y0077431D01*
X0162937Y0077523D01*
X0162897Y0077613D01*
X0162855Y0077701D01*
X0162808Y0077788D01*
X0162759Y0077872D01*
X0162706Y0077955D01*
X0162650Y0078035D01*
X0162590Y0078114D01*
X0162528Y0078190D01*
X0162463Y0078263D01*
X0162395Y0078334D01*
X0163127Y0076566D02*
X0163127Y0075036D01*
X0160426Y0078747D02*
X0159333Y0079840D01*
X0155432Y0079295D02*
X0155364Y0079366D01*
X0155299Y0079439D01*
X0155237Y0079515D01*
X0155177Y0079594D01*
X0155121Y0079674D01*
X0155068Y0079757D01*
X0155019Y0079841D01*
X0154972Y0079928D01*
X0154930Y0080016D01*
X0154890Y0080106D01*
X0154855Y0080198D01*
X0154822Y0080290D01*
X0154794Y0080384D01*
X0154769Y0080479D01*
X0154748Y0080575D01*
X0154731Y0080672D01*
X0154717Y0080769D01*
X0154708Y0080867D01*
X0154702Y0080965D01*
X0154700Y0081063D01*
X0153600Y0080608D02*
X0153602Y0080510D01*
X0153608Y0080412D01*
X0153617Y0080314D01*
X0153631Y0080217D01*
X0153648Y0080120D01*
X0153669Y0080024D01*
X0153694Y0079929D01*
X0153722Y0079835D01*
X0153755Y0079743D01*
X0153790Y0079651D01*
X0153830Y0079561D01*
X0153872Y0079473D01*
X0153919Y0079386D01*
X0153968Y0079302D01*
X0154021Y0079219D01*
X0154077Y0079139D01*
X0154137Y0079060D01*
X0154199Y0078984D01*
X0154264Y0078911D01*
X0154332Y0078840D01*
X0154333Y0078840D02*
X0154521Y0078652D01*
X0155433Y0079296D02*
X0156489Y0078239D01*
X0155253Y0076884D02*
X0155253Y0075036D01*
X0157221Y0076471D02*
X0157219Y0076569D01*
X0157213Y0076667D01*
X0157204Y0076765D01*
X0157190Y0076862D01*
X0157173Y0076959D01*
X0157152Y0077055D01*
X0157127Y0077150D01*
X0157099Y0077244D01*
X0157066Y0077336D01*
X0157031Y0077428D01*
X0156991Y0077518D01*
X0156949Y0077606D01*
X0156902Y0077693D01*
X0156853Y0077777D01*
X0156800Y0077860D01*
X0156744Y0077940D01*
X0156684Y0078019D01*
X0156622Y0078095D01*
X0156557Y0078168D01*
X0156489Y0078239D01*
X0157221Y0076471D02*
X0157221Y0075036D01*
X0161158Y0076979D02*
X0161156Y0077077D01*
X0161150Y0077175D01*
X0161141Y0077273D01*
X0161127Y0077370D01*
X0161110Y0077467D01*
X0161089Y0077563D01*
X0161064Y0077658D01*
X0161036Y0077752D01*
X0161003Y0077844D01*
X0160968Y0077936D01*
X0160928Y0078026D01*
X0160886Y0078114D01*
X0160839Y0078201D01*
X0160790Y0078285D01*
X0160737Y0078368D01*
X0160681Y0078448D01*
X0160621Y0078527D01*
X0160559Y0078603D01*
X0160494Y0078676D01*
X0160426Y0078747D01*
X0159332Y0079840D02*
X0159264Y0079911D01*
X0159199Y0079984D01*
X0159137Y0080060D01*
X0159077Y0080139D01*
X0159021Y0080219D01*
X0158968Y0080302D01*
X0158919Y0080386D01*
X0158872Y0080473D01*
X0158830Y0080561D01*
X0158790Y0080651D01*
X0158755Y0080743D01*
X0158722Y0080835D01*
X0158694Y0080929D01*
X0158669Y0081024D01*
X0158648Y0081120D01*
X0158631Y0081217D01*
X0158617Y0081314D01*
X0158608Y0081412D01*
X0158602Y0081510D01*
X0158600Y0081608D01*
X0154521Y0078652D02*
X0154589Y0078581D01*
X0154654Y0078508D01*
X0154716Y0078432D01*
X0154776Y0078353D01*
X0154832Y0078273D01*
X0154885Y0078190D01*
X0154934Y0078106D01*
X0154981Y0078019D01*
X0155023Y0077931D01*
X0155063Y0077841D01*
X0155098Y0077749D01*
X0155131Y0077657D01*
X0155159Y0077563D01*
X0155184Y0077468D01*
X0155205Y0077372D01*
X0155222Y0077275D01*
X0155236Y0077178D01*
X0155245Y0077080D01*
X0155251Y0076982D01*
X0155253Y0076884D01*
X0151316Y0077205D02*
X0151314Y0077249D01*
X0151308Y0077292D01*
X0151299Y0077334D01*
X0151286Y0077376D01*
X0151269Y0077416D01*
X0151249Y0077455D01*
X0151226Y0077492D01*
X0151199Y0077526D01*
X0151170Y0077559D01*
X0149993Y0078735D02*
X0149951Y0078779D01*
X0149913Y0078825D01*
X0149877Y0078874D01*
X0149844Y0078925D01*
X0149815Y0078977D01*
X0149788Y0079032D01*
X0149765Y0079087D01*
X0149745Y0079144D01*
X0149729Y0079203D01*
X0149716Y0079262D01*
X0149707Y0079321D01*
X0149702Y0079382D01*
X0149700Y0079442D01*
X0149201Y0077972D02*
X0149230Y0077939D01*
X0149257Y0077905D01*
X0149280Y0077868D01*
X0149300Y0077829D01*
X0149317Y0077789D01*
X0149330Y0077747D01*
X0149339Y0077705D01*
X0149345Y0077662D01*
X0149347Y0077618D01*
X0143588Y0078288D02*
X0143559Y0078255D01*
X0143532Y0078221D01*
X0143509Y0078184D01*
X0143489Y0078145D01*
X0143472Y0078105D01*
X0143459Y0078063D01*
X0143450Y0078021D01*
X0143444Y0077978D01*
X0143442Y0077934D01*
X0139700Y0078279D02*
X0139698Y0078235D01*
X0139692Y0078192D01*
X0139683Y0078150D01*
X0139670Y0078108D01*
X0139653Y0078068D01*
X0139633Y0078029D01*
X0139610Y0077992D01*
X0139583Y0077958D01*
X0139554Y0077925D01*
X0137682Y0077611D02*
X0137653Y0077578D01*
X0137626Y0077544D01*
X0137603Y0077507D01*
X0137583Y0077468D01*
X0137566Y0077428D01*
X0137553Y0077386D01*
X0137544Y0077344D01*
X0137538Y0077301D01*
X0137536Y0077257D01*
X0138307Y0078235D02*
X0138349Y0078279D01*
X0138387Y0078325D01*
X0138423Y0078374D01*
X0138456Y0078425D01*
X0138485Y0078477D01*
X0138512Y0078532D01*
X0138535Y0078587D01*
X0138555Y0078644D01*
X0138571Y0078703D01*
X0138584Y0078762D01*
X0138593Y0078821D01*
X0138598Y0078882D01*
X0138600Y0078942D01*
X0133968Y0078340D02*
X0133919Y0078289D01*
X0133874Y0078235D01*
X0133831Y0078178D01*
X0133792Y0078119D01*
X0133756Y0078058D01*
X0133724Y0077996D01*
X0133695Y0077931D01*
X0133670Y0077865D01*
X0133648Y0077798D01*
X0133631Y0077729D01*
X0133617Y0077660D01*
X0133607Y0077590D01*
X0133601Y0077520D01*
X0133599Y0077449D01*
X0133599Y0075036D01*
X0131631Y0076523D02*
X0131633Y0076621D01*
X0131639Y0076719D01*
X0131648Y0076817D01*
X0131662Y0076914D01*
X0131679Y0077011D01*
X0131700Y0077107D01*
X0131725Y0077202D01*
X0131753Y0077296D01*
X0131786Y0077388D01*
X0131821Y0077480D01*
X0131861Y0077570D01*
X0131903Y0077658D01*
X0131950Y0077745D01*
X0131999Y0077829D01*
X0132052Y0077912D01*
X0132108Y0077992D01*
X0132168Y0078071D01*
X0132230Y0078147D01*
X0132295Y0078220D01*
X0132363Y0078291D01*
X0132363Y0078290D02*
X0132868Y0078796D01*
X0133968Y0078340D02*
X0134036Y0078411D01*
X0134101Y0078484D01*
X0134163Y0078560D01*
X0134223Y0078639D01*
X0134279Y0078719D01*
X0134332Y0078802D01*
X0134381Y0078886D01*
X0134428Y0078973D01*
X0134470Y0079061D01*
X0134510Y0079151D01*
X0134545Y0079243D01*
X0134578Y0079335D01*
X0134606Y0079429D01*
X0134631Y0079524D01*
X0134652Y0079620D01*
X0134669Y0079717D01*
X0134683Y0079814D01*
X0134692Y0079912D01*
X0134698Y0080010D01*
X0134700Y0080108D01*
X0133600Y0080563D02*
X0133598Y0080465D01*
X0133592Y0080367D01*
X0133583Y0080269D01*
X0133569Y0080172D01*
X0133552Y0080075D01*
X0133531Y0079979D01*
X0133506Y0079884D01*
X0133478Y0079790D01*
X0133445Y0079698D01*
X0133410Y0079606D01*
X0133370Y0079516D01*
X0133328Y0079428D01*
X0133281Y0079341D01*
X0133232Y0079257D01*
X0133179Y0079174D01*
X0133123Y0079094D01*
X0133063Y0079015D01*
X0133001Y0078939D01*
X0132936Y0078866D01*
X0132868Y0078795D01*
X0131631Y0076523D02*
X0131631Y0075036D01*
X0127694Y0077030D02*
X0127696Y0077128D01*
X0127702Y0077226D01*
X0127711Y0077324D01*
X0127725Y0077421D01*
X0127742Y0077518D01*
X0127763Y0077614D01*
X0127788Y0077709D01*
X0127816Y0077803D01*
X0127849Y0077895D01*
X0127884Y0077987D01*
X0127924Y0078077D01*
X0127966Y0078165D01*
X0128013Y0078252D01*
X0128062Y0078336D01*
X0128115Y0078419D01*
X0128171Y0078499D01*
X0128231Y0078578D01*
X0128293Y0078654D01*
X0128358Y0078727D01*
X0128426Y0078798D01*
X0128968Y0079340D01*
X0127868Y0079796D02*
X0126457Y0078385D01*
X0127694Y0077030D02*
X0127694Y0075036D01*
X0125725Y0076617D02*
X0125727Y0076715D01*
X0125733Y0076813D01*
X0125742Y0076911D01*
X0125756Y0077008D01*
X0125773Y0077105D01*
X0125794Y0077201D01*
X0125819Y0077296D01*
X0125847Y0077390D01*
X0125880Y0077482D01*
X0125915Y0077574D01*
X0125955Y0077664D01*
X0125997Y0077752D01*
X0126044Y0077839D01*
X0126093Y0077923D01*
X0126146Y0078006D01*
X0126202Y0078086D01*
X0126262Y0078165D01*
X0126324Y0078241D01*
X0126389Y0078314D01*
X0126457Y0078385D01*
X0125725Y0076617D02*
X0125725Y0075036D01*
X0121788Y0075036D02*
X0121788Y0076905D01*
X0121056Y0078672D02*
X0120433Y0079296D01*
X0119332Y0078840D02*
X0119264Y0078911D01*
X0119199Y0078984D01*
X0119137Y0079060D01*
X0119077Y0079139D01*
X0119021Y0079219D01*
X0118968Y0079302D01*
X0118919Y0079386D01*
X0118872Y0079473D01*
X0118830Y0079561D01*
X0118790Y0079651D01*
X0118755Y0079743D01*
X0118722Y0079835D01*
X0118694Y0079929D01*
X0118669Y0080024D01*
X0118648Y0080120D01*
X0118631Y0080217D01*
X0118617Y0080314D01*
X0118608Y0080412D01*
X0118602Y0080510D01*
X0118600Y0080608D01*
X0119333Y0078840D02*
X0119386Y0078784D01*
X0119436Y0078726D01*
X0119484Y0078666D01*
X0119529Y0078604D01*
X0119571Y0078539D01*
X0119610Y0078473D01*
X0119646Y0078405D01*
X0119678Y0078336D01*
X0119708Y0078265D01*
X0119734Y0078192D01*
X0119757Y0078119D01*
X0119776Y0078045D01*
X0119792Y0077970D01*
X0119804Y0077894D01*
X0119813Y0077817D01*
X0119818Y0077741D01*
X0119820Y0077664D01*
X0119820Y0075036D01*
X0121788Y0076904D02*
X0121786Y0077002D01*
X0121780Y0077100D01*
X0121771Y0077198D01*
X0121757Y0077295D01*
X0121740Y0077392D01*
X0121719Y0077488D01*
X0121694Y0077583D01*
X0121666Y0077677D01*
X0121633Y0077769D01*
X0121598Y0077861D01*
X0121558Y0077951D01*
X0121516Y0078039D01*
X0121469Y0078126D01*
X0121420Y0078210D01*
X0121367Y0078293D01*
X0121311Y0078373D01*
X0121251Y0078452D01*
X0121189Y0078528D01*
X0121124Y0078601D01*
X0121056Y0078672D01*
X0120432Y0079295D02*
X0120364Y0079366D01*
X0120299Y0079439D01*
X0120237Y0079515D01*
X0120177Y0079594D01*
X0120121Y0079674D01*
X0120068Y0079757D01*
X0120019Y0079841D01*
X0119972Y0079928D01*
X0119930Y0080016D01*
X0119890Y0080106D01*
X0119855Y0080198D01*
X0119822Y0080290D01*
X0119794Y0080384D01*
X0119769Y0080479D01*
X0119748Y0080575D01*
X0119731Y0080672D01*
X0119717Y0080769D01*
X0119708Y0080867D01*
X0119702Y0080965D01*
X0119700Y0081063D01*
X0114993Y0078735D02*
X0114951Y0078779D01*
X0114913Y0078825D01*
X0114877Y0078874D01*
X0114844Y0078925D01*
X0114815Y0078977D01*
X0114788Y0079032D01*
X0114765Y0079087D01*
X0114745Y0079144D01*
X0114729Y0079203D01*
X0114716Y0079262D01*
X0114707Y0079321D01*
X0114702Y0079382D01*
X0114700Y0079442D01*
X0113600Y0078779D02*
X0113602Y0078735D01*
X0113608Y0078692D01*
X0113617Y0078650D01*
X0113630Y0078608D01*
X0113647Y0078568D01*
X0113667Y0078529D01*
X0113690Y0078492D01*
X0113717Y0078458D01*
X0113746Y0078425D01*
X0113768Y0078405D02*
X0113797Y0078372D01*
X0113824Y0078338D01*
X0113847Y0078301D01*
X0113867Y0078262D01*
X0113884Y0078222D01*
X0113897Y0078180D01*
X0113906Y0078138D01*
X0113912Y0078095D01*
X0113914Y0078051D01*
X0115737Y0077992D02*
X0115766Y0077959D01*
X0115793Y0077925D01*
X0115816Y0077888D01*
X0115836Y0077849D01*
X0115853Y0077809D01*
X0115866Y0077767D01*
X0115875Y0077725D01*
X0115881Y0077682D01*
X0115883Y0077638D01*
X0109846Y0078153D02*
X0109817Y0078186D01*
X0109790Y0078220D01*
X0109767Y0078257D01*
X0109747Y0078296D01*
X0109730Y0078336D01*
X0109717Y0078378D01*
X0109708Y0078420D01*
X0109702Y0078463D01*
X0109700Y0078507D01*
X0108155Y0077855D02*
X0108126Y0077822D01*
X0108099Y0077788D01*
X0108076Y0077751D01*
X0108056Y0077712D01*
X0108039Y0077672D01*
X0108026Y0077630D01*
X0108017Y0077588D01*
X0108011Y0077545D01*
X0108009Y0077501D01*
X0108307Y0078007D02*
X0108349Y0078051D01*
X0108387Y0078097D01*
X0108423Y0078146D01*
X0108456Y0078197D01*
X0108485Y0078249D01*
X0108512Y0078304D01*
X0108535Y0078359D01*
X0108555Y0078416D01*
X0108571Y0078475D01*
X0108584Y0078534D01*
X0108593Y0078593D01*
X0108598Y0078654D01*
X0108600Y0078714D01*
X0104365Y0078236D02*
X0104323Y0078192D01*
X0104285Y0078146D01*
X0104249Y0078097D01*
X0104216Y0078046D01*
X0104187Y0077994D01*
X0104160Y0077939D01*
X0104137Y0077884D01*
X0104117Y0077827D01*
X0104101Y0077768D01*
X0104088Y0077709D01*
X0104079Y0077650D01*
X0104074Y0077589D01*
X0104072Y0077529D01*
X0102249Y0077677D02*
X0102220Y0077644D01*
X0102193Y0077610D01*
X0102170Y0077573D01*
X0102150Y0077534D01*
X0102133Y0077494D01*
X0102120Y0077452D01*
X0102111Y0077410D01*
X0102105Y0077367D01*
X0102103Y0077323D01*
X0127868Y0079795D02*
X0127936Y0079866D01*
X0128001Y0079939D01*
X0128063Y0080015D01*
X0128123Y0080094D01*
X0128179Y0080174D01*
X0128232Y0080257D01*
X0128281Y0080341D01*
X0128328Y0080428D01*
X0128370Y0080516D01*
X0128410Y0080606D01*
X0128445Y0080698D01*
X0128478Y0080790D01*
X0128506Y0080884D01*
X0128531Y0080979D01*
X0128552Y0081075D01*
X0128569Y0081172D01*
X0128583Y0081269D01*
X0128592Y0081367D01*
X0128598Y0081465D01*
X0128600Y0081563D01*
X0129700Y0081108D02*
X0129698Y0081010D01*
X0129692Y0080912D01*
X0129683Y0080814D01*
X0129669Y0080717D01*
X0129652Y0080620D01*
X0129631Y0080524D01*
X0129606Y0080429D01*
X0129578Y0080335D01*
X0129545Y0080243D01*
X0129510Y0080151D01*
X0129470Y0080061D01*
X0129428Y0079973D01*
X0129381Y0079886D01*
X0129332Y0079802D01*
X0129279Y0079719D01*
X0129223Y0079639D01*
X0129163Y0079560D01*
X0129101Y0079484D01*
X0129036Y0079411D01*
X0128968Y0079340D01*
X0167064Y0077784D02*
X0167066Y0077828D01*
X0167072Y0077871D01*
X0167081Y0077913D01*
X0167094Y0077955D01*
X0167111Y0077995D01*
X0167131Y0078034D01*
X0167154Y0078071D01*
X0167181Y0078105D01*
X0167210Y0078138D01*
X0169032Y0078197D02*
X0169034Y0078241D01*
X0169040Y0078284D01*
X0169049Y0078326D01*
X0169062Y0078368D01*
X0169079Y0078408D01*
X0169099Y0078447D01*
X0169122Y0078484D01*
X0169149Y0078518D01*
X0169178Y0078551D01*
X0172969Y0077462D02*
X0172971Y0077506D01*
X0172977Y0077549D01*
X0172986Y0077591D01*
X0172999Y0077633D01*
X0173016Y0077673D01*
X0173036Y0077712D01*
X0173059Y0077749D01*
X0173086Y0077783D01*
X0173115Y0077816D01*
X0174700Y0078507D02*
X0174702Y0078463D01*
X0174708Y0078420D01*
X0174717Y0078378D01*
X0174730Y0078336D01*
X0174747Y0078296D01*
X0174767Y0078257D01*
X0174790Y0078220D01*
X0174817Y0078186D01*
X0174846Y0078153D01*
X0178747Y0078426D02*
X0178773Y0078398D01*
X0178796Y0078368D01*
X0178816Y0078336D01*
X0178834Y0078302D01*
X0178849Y0078266D01*
X0178860Y0078230D01*
X0178868Y0078193D01*
X0178873Y0078155D01*
X0178875Y0078117D01*
X0180697Y0078032D02*
X0180726Y0077999D01*
X0180753Y0077965D01*
X0180776Y0077928D01*
X0180796Y0077889D01*
X0180813Y0077849D01*
X0180826Y0077807D01*
X0180835Y0077765D01*
X0180841Y0077722D01*
X0180843Y0077678D01*
X0179846Y0078881D02*
X0179817Y0078914D01*
X0179790Y0078948D01*
X0179767Y0078985D01*
X0179747Y0079024D01*
X0179730Y0079064D01*
X0179717Y0079106D01*
X0179708Y0079148D01*
X0179702Y0079191D01*
X0179700Y0079235D01*
X0184634Y0078039D02*
X0184663Y0078006D01*
X0184690Y0077972D01*
X0184713Y0077935D01*
X0184733Y0077896D01*
X0184750Y0077856D01*
X0184763Y0077814D01*
X0184772Y0077772D01*
X0184778Y0077729D01*
X0184780Y0077685D01*
X0186603Y0077626D02*
X0186632Y0077593D01*
X0186659Y0077559D01*
X0186682Y0077522D01*
X0186702Y0077483D01*
X0186719Y0077443D01*
X0186732Y0077401D01*
X0186741Y0077359D01*
X0186747Y0077316D01*
X0186749Y0077272D01*
X0189954Y0078719D02*
X0190022Y0078648D01*
X0190087Y0078575D01*
X0190149Y0078499D01*
X0190209Y0078420D01*
X0190265Y0078340D01*
X0190318Y0078257D01*
X0190367Y0078173D01*
X0190414Y0078086D01*
X0190456Y0077998D01*
X0190496Y0077908D01*
X0190531Y0077816D01*
X0190564Y0077724D01*
X0190592Y0077630D01*
X0190617Y0077535D01*
X0190638Y0077439D01*
X0190655Y0077342D01*
X0190669Y0077245D01*
X0190678Y0077147D01*
X0190684Y0077049D01*
X0190686Y0076951D01*
X0190686Y0075036D01*
X0192654Y0076538D02*
X0192652Y0076636D01*
X0192646Y0076734D01*
X0192637Y0076832D01*
X0192623Y0076929D01*
X0192606Y0077026D01*
X0192585Y0077122D01*
X0192560Y0077217D01*
X0192532Y0077311D01*
X0192499Y0077403D01*
X0192464Y0077495D01*
X0192424Y0077585D01*
X0192382Y0077673D01*
X0192335Y0077760D01*
X0192286Y0077844D01*
X0192233Y0077927D01*
X0192177Y0078007D01*
X0192117Y0078086D01*
X0192055Y0078162D01*
X0191990Y0078235D01*
X0191922Y0078306D01*
X0190433Y0079796D01*
X0189954Y0078719D02*
X0189333Y0079340D01*
X0189332Y0079340D02*
X0189264Y0079411D01*
X0189199Y0079484D01*
X0189137Y0079560D01*
X0189077Y0079639D01*
X0189021Y0079719D01*
X0188968Y0079802D01*
X0188919Y0079886D01*
X0188872Y0079973D01*
X0188830Y0080061D01*
X0188790Y0080151D01*
X0188755Y0080243D01*
X0188722Y0080335D01*
X0188694Y0080429D01*
X0188669Y0080524D01*
X0188648Y0080620D01*
X0188631Y0080717D01*
X0188617Y0080814D01*
X0188608Y0080912D01*
X0188602Y0081010D01*
X0188600Y0081108D01*
X0189700Y0081563D02*
X0189702Y0081465D01*
X0189708Y0081367D01*
X0189717Y0081269D01*
X0189731Y0081172D01*
X0189748Y0081075D01*
X0189769Y0080979D01*
X0189794Y0080884D01*
X0189822Y0080790D01*
X0189855Y0080698D01*
X0189890Y0080606D01*
X0189930Y0080516D01*
X0189972Y0080428D01*
X0190019Y0080341D01*
X0190068Y0080257D01*
X0190121Y0080174D01*
X0190177Y0080094D01*
X0190237Y0080015D01*
X0190299Y0079939D01*
X0190364Y0079866D01*
X0190432Y0079795D01*
X0194333Y0080340D02*
X0195859Y0078813D01*
X0196591Y0077046D02*
X0196591Y0075036D01*
X0198560Y0076633D02*
X0198558Y0076731D01*
X0198552Y0076829D01*
X0198543Y0076927D01*
X0198529Y0077024D01*
X0198512Y0077121D01*
X0198491Y0077217D01*
X0198466Y0077312D01*
X0198438Y0077406D01*
X0198405Y0077498D01*
X0198370Y0077590D01*
X0198330Y0077680D01*
X0198288Y0077768D01*
X0198241Y0077855D01*
X0198192Y0077939D01*
X0198139Y0078022D01*
X0198083Y0078102D01*
X0198023Y0078181D01*
X0197961Y0078257D01*
X0197896Y0078330D01*
X0197828Y0078401D01*
X0195433Y0080796D01*
X0194332Y0080340D02*
X0194264Y0080411D01*
X0194199Y0080484D01*
X0194137Y0080560D01*
X0194077Y0080639D01*
X0194021Y0080719D01*
X0193968Y0080802D01*
X0193919Y0080886D01*
X0193872Y0080973D01*
X0193830Y0081061D01*
X0193790Y0081151D01*
X0193755Y0081243D01*
X0193722Y0081335D01*
X0193694Y0081429D01*
X0193669Y0081524D01*
X0193648Y0081620D01*
X0193631Y0081717D01*
X0193617Y0081814D01*
X0193608Y0081912D01*
X0193602Y0082010D01*
X0193600Y0082108D01*
X0194700Y0082563D02*
X0194702Y0082465D01*
X0194708Y0082367D01*
X0194717Y0082269D01*
X0194731Y0082172D01*
X0194748Y0082075D01*
X0194769Y0081979D01*
X0194794Y0081884D01*
X0194822Y0081790D01*
X0194855Y0081698D01*
X0194890Y0081606D01*
X0194930Y0081516D01*
X0194972Y0081428D01*
X0195019Y0081341D01*
X0195068Y0081257D01*
X0195121Y0081174D01*
X0195177Y0081094D01*
X0195237Y0081015D01*
X0195299Y0080939D01*
X0195364Y0080866D01*
X0195432Y0080795D01*
X0195859Y0078814D02*
X0195927Y0078743D01*
X0195992Y0078670D01*
X0196054Y0078594D01*
X0196114Y0078515D01*
X0196170Y0078435D01*
X0196223Y0078352D01*
X0196272Y0078268D01*
X0196319Y0078181D01*
X0196361Y0078093D01*
X0196401Y0078003D01*
X0196436Y0077911D01*
X0196469Y0077819D01*
X0196497Y0077725D01*
X0196522Y0077630D01*
X0196543Y0077534D01*
X0196560Y0077437D01*
X0196574Y0077340D01*
X0196583Y0077242D01*
X0196589Y0077144D01*
X0196591Y0077046D01*
X0198560Y0076633D02*
X0198560Y0075036D01*
X0192654Y0075036D02*
X0192654Y0076538D01*
M02*
