G04 This is an RS-274x file exported by *
G04 gerbv version 2.7.0 *
G04 More information is available about gerbv at *
G04 http://gerbv.geda-project.org/ *
G04 --End of header info--*
%MOIN*%
%FSLAX36Y36*%
%IPPOS*%
G04 --Define apertures--*
%ADD10C,0.0130*%
%ADD11C,0.0120*%
%ADD12C,0.0160*%
G04 --Start main section--*
G54D10*
G01X-813180Y4673730D02*
G01X-788830Y4698090D01*
G01X-788830Y4698090D02*
G01X-788830Y4746790D01*
G01X-788830Y4710260D02*
G01X-837540Y4710260D01*
G01X-837540Y4698090D02*
G01X-837540Y4746790D01*
G01X-868020Y4746790D02*
G01X-916730Y4673730D01*
G01X-947210Y4673730D02*
G01X-971560Y4673730D01*
G01X-959380Y4673730D02*
G01X-959380Y4746790D01*
G01X-947210Y4746790D02*
G01X-971560Y4746790D01*
G01X-1000000Y4734620D02*
G01X-1000000Y4685910D01*
G01X-1000000Y4685910D02*
G01X-1012170Y4673730D01*
G01X-1012170Y4673730D02*
G01X-1036530Y4673730D01*
G01X-1036530Y4673730D02*
G01X-1048710Y4685910D01*
G01X-1048710Y4685910D02*
G01X-1048710Y4734620D01*
G01X-1048710Y4734620D02*
G01X-1036530Y4746790D01*
G01X-1036530Y4746790D02*
G01X-1012170Y4746790D01*
G01X-1012170Y4746790D02*
G01X-1000000Y4734620D01*
G01X-983740Y4802730D02*
G01X-995910Y4814910D01*
G01X-995910Y4814910D02*
G01X-995910Y4839260D01*
G01X-995910Y4839260D02*
G01X-983740Y4851440D01*
G01X-983740Y4851440D02*
G01X-947210Y4851440D01*
G01X-947210Y4875790D02*
G01X-947210Y4802730D01*
G01X-947210Y4802730D02*
G01X-983740Y4802730D01*
G01X-916730Y4814910D02*
G01X-904550Y4802730D01*
G01X-904550Y4802730D02*
G01X-880200Y4802730D01*
G01X-880200Y4802730D02*
G01X-868020Y4814910D01*
G01X-868020Y4814910D02*
G01X-868020Y4863620D01*
G01X-868020Y4863620D02*
G01X-880200Y4875790D01*
G01X-880200Y4875790D02*
G01X-904550Y4875790D01*
G01X-904550Y4875790D02*
G01X-916730Y4863620D01*
G01X-916730Y4863620D02*
G01X-916730Y4814910D01*
G01X-916730Y4746790D02*
G01X-868020Y4673730D01*
G01X-837540Y4698090D02*
G01X-813180Y4673730D01*
G01X-813180Y4802730D02*
G01X-813180Y4875790D01*
G01X-788830Y4802730D02*
G01X-837540Y4802730D01*
G01X-1079190Y4746790D02*
G01X-1079190Y4673730D01*
G01X-1079190Y4673730D02*
G01X-1103540Y4698090D01*
G01X-1103540Y4698090D02*
G01X-1127890Y4673730D01*
G01X-1127890Y4673730D02*
G01X-1127890Y4746790D01*
G01X-1117760Y4802730D02*
G01X-1105580Y4814910D01*
G01X-1105580Y4814910D02*
G01X-1105580Y4827090D01*
G01X-1105580Y4827090D02*
G01X-1117760Y4839260D01*
G01X-1117760Y4839260D02*
G01X-1142110Y4839260D01*
G01X-1142110Y4839260D02*
G01X-1154290Y4851440D01*
G01X-1154290Y4851440D02*
G01X-1154290Y4863620D01*
G01X-1154290Y4863620D02*
G01X-1142110Y4875790D01*
G01X-1142110Y4875790D02*
G01X-1117760Y4875790D01*
G01X-1117760Y4875790D02*
G01X-1105580Y4863620D01*
G01X-1117760Y4802730D02*
G01X-1142110Y4802730D01*
G01X-1142110Y4802730D02*
G01X-1154290Y4814910D01*
G01X-1184770Y4802730D02*
G01X-1209120Y4802730D01*
G01X-1196950Y4802730D02*
G01X-1196950Y4875790D01*
G01X-1209120Y4875790D02*
G01X-1184770Y4875790D01*
G01X-1237560Y4875790D02*
G01X-1237560Y4802730D01*
G01X-1237560Y4802730D02*
G01X-1274090Y4802730D01*
G01X-1274090Y4802730D02*
G01X-1286270Y4814910D01*
G01X-1286270Y4814910D02*
G01X-1286270Y4863620D01*
G01X-1286270Y4863620D02*
G01X-1274090Y4875790D01*
G01X-1274090Y4875790D02*
G01X-1237560Y4875790D01*
G01X-1316750Y4875790D02*
G01X-1316750Y4802730D01*
G01X-1316750Y4802730D02*
G01X-1365460Y4802730D01*
G01X-1341100Y4839260D02*
G01X-1316750Y4839260D01*
G01X-1316750Y4875790D02*
G01X-1365460Y4875790D01*
G01X-1365460Y4746790D02*
G01X-1316750Y4746790D01*
G01X-1316750Y4746790D02*
G01X-1316750Y4673730D01*
G01X-1316750Y4673730D02*
G01X-1365460Y4673730D01*
G01X-1395940Y4673730D02*
G01X-1444640Y4673730D01*
G01X-1420290Y4673730D02*
G01X-1420290Y4746790D01*
G01X-1475120Y4746790D02*
G01X-1475120Y4698090D01*
G01X-1475120Y4698090D02*
G01X-1499480Y4673730D01*
G01X-1499480Y4673730D02*
G01X-1523830Y4698090D01*
G01X-1523830Y4698090D02*
G01X-1523830Y4746790D01*
G01X-1523830Y4710260D02*
G01X-1475120Y4710260D01*
G01X-1341100Y4710260D02*
G01X-1316750Y4710260D01*
G01X-1286270Y4698090D02*
G01X-1274090Y4710260D01*
G01X-1274090Y4710260D02*
G01X-1237560Y4710260D01*
G01X-1237560Y4673730D02*
G01X-1274090Y4673730D01*
G01X-1274090Y4673730D02*
G01X-1286270Y4685910D01*
G01X-1286270Y4685910D02*
G01X-1286270Y4698090D01*
G01X-1274090Y4710260D02*
G01X-1286270Y4722440D01*
G01X-1286270Y4722440D02*
G01X-1286270Y4734620D01*
G01X-1286270Y4734620D02*
G01X-1274090Y4746790D01*
G01X-1274090Y4746790D02*
G01X-1237560Y4746790D01*
G01X-1237560Y4746790D02*
G01X-1237560Y4673730D01*
G01X-1633500Y4673730D02*
G01X-1670030Y4673730D01*
G01X-1670030Y4673730D02*
G01X-1682210Y4685910D01*
G01X-1682210Y4685910D02*
G01X-1682210Y4710260D01*
G01X-1682210Y4710260D02*
G01X-1670030Y4722440D01*
G01X-1670030Y4722440D02*
G01X-1633500Y4722440D01*
G01X-1633500Y4746790D02*
G01X-1633500Y4673730D01*
G01X-1712690Y4685910D02*
G01X-1712690Y4734620D01*
G01X-1712690Y4734620D02*
G01X-1724860Y4746790D01*
G01X-1724860Y4746790D02*
G01X-1749220Y4746790D01*
G01X-1749220Y4746790D02*
G01X-1761390Y4734620D01*
G01X-1761390Y4734620D02*
G01X-1761390Y4685910D01*
G01X-1761390Y4685910D02*
G01X-1749220Y4673730D01*
G01X-1749220Y4673730D02*
G01X-1724860Y4673730D01*
G01X-1724860Y4673730D02*
G01X-1712690Y4685910D01*
G01X-1791870Y4673730D02*
G01X-1791870Y4746790D01*
G01X-1791870Y4746790D02*
G01X-1816230Y4722440D01*
G01X-1816230Y4722440D02*
G01X-1840580Y4746790D01*
G01X-1840580Y4746790D02*
G01X-1840580Y4673730D01*
G01X-1871060Y4673730D02*
G01X-1871060Y4746790D01*
G01X-1871060Y4746790D02*
G01X-1919770Y4746790D01*
G01X-1950250Y4746790D02*
G01X-1950250Y4673730D01*
G01X-1950250Y4673730D02*
G01X-1986780Y4673730D01*
G01X-1986780Y4673730D02*
G01X-1998960Y4685910D01*
G01X-1998960Y4685910D02*
G01X-1998960Y4710260D01*
G01X-1998960Y4710260D02*
G01X-1986780Y4722440D01*
G01X-1986780Y4722440D02*
G01X-1950250Y4722440D01*
G01X-1974600Y4722440D02*
G01X-1998960Y4746790D01*
G01X-2002020Y4802730D02*
G01X-1989840Y4814910D01*
G01X-2002020Y4802730D02*
G01X-2026370Y4802730D01*
G01X-2026370Y4802730D02*
G01X-2038550Y4814910D01*
G01X-2038550Y4814910D02*
G01X-2038550Y4827090D01*
G01X-2038550Y4827090D02*
G01X-2026370Y4839260D01*
G01X-2026370Y4839260D02*
G01X-2038550Y4851440D01*
G01X-2038550Y4851440D02*
G01X-2038550Y4863620D01*
G01X-2038550Y4863620D02*
G01X-2026370Y4875790D01*
G01X-2026370Y4875790D02*
G01X-2002020Y4875790D01*
G01X-2002020Y4875790D02*
G01X-1989840Y4863620D01*
G01X-1962430Y4863620D02*
G01X-1962430Y4875790D01*
G01X-1962430Y4875790D02*
G01X-1950250Y4875790D01*
G01X-1950250Y4875790D02*
G01X-1950250Y4863620D01*
G01X-1950250Y4863620D02*
G01X-1962430Y4863620D01*
G01X-1919770Y4863620D02*
G01X-1919770Y4814910D01*
G01X-1919770Y4814910D02*
G01X-1871060Y4863620D01*
G01X-1871060Y4863620D02*
G01X-1883240Y4875790D01*
G01X-1883240Y4875790D02*
G01X-1907590Y4875790D01*
G01X-1907590Y4875790D02*
G01X-1919770Y4863620D01*
G01X-1919770Y4814910D02*
G01X-1907590Y4802730D01*
G01X-1907590Y4802730D02*
G01X-1883240Y4802730D01*
G01X-1883240Y4802730D02*
G01X-1871060Y4814910D01*
G01X-1871060Y4814910D02*
G01X-1871060Y4863620D01*
G01X-1840580Y4851440D02*
G01X-1840580Y4802730D01*
G01X-1840580Y4851440D02*
G01X-1816230Y4875790D01*
G01X-1816230Y4875790D02*
G01X-1791870Y4851440D01*
G01X-1791870Y4851440D02*
G01X-1791870Y4802730D01*
G01X-1871060Y4710260D02*
G01X-1895420Y4710260D01*
G01X-1919770Y4673730D02*
G01X-1871060Y4673730D01*
G01X-2014200Y4839260D02*
G01X-2026370Y4839260D01*
G01X-2069030Y4863620D02*
G01X-2069030Y4875790D01*
G01X-2069030Y4863620D02*
G01X-2117740Y4814910D01*
G01X-2117740Y4814910D02*
G01X-2117740Y4802730D01*
G01X-2117740Y4802730D02*
G01X-2069030Y4802730D01*
G01X-2108620Y4746790D02*
G01X-2108620Y4673730D01*
G01X-2108620Y4673730D02*
G01X-2145160Y4673730D01*
G01X-2145160Y4673730D02*
G01X-2157330Y4685910D01*
G01X-2157330Y4685910D02*
G01X-2157330Y4698090D01*
G01X-2157330Y4698090D02*
G01X-2145160Y4710260D01*
G01X-2145160Y4710260D02*
G01X-2108620Y4710260D01*
G01X-2108620Y4746790D02*
G01X-2145160Y4746790D01*
G01X-2145160Y4746790D02*
G01X-2157330Y4734620D01*
G01X-2157330Y4734620D02*
G01X-2157330Y4722440D01*
G01X-2157330Y4722440D02*
G01X-2145160Y4710260D01*
G01X-2187810Y4685910D02*
G01X-2187810Y4734620D01*
G01X-2187810Y4734620D02*
G01X-2199990Y4746790D01*
G01X-2199990Y4746790D02*
G01X-2224340Y4746790D01*
G01X-2224340Y4746790D02*
G01X-2236520Y4734620D01*
G01X-2236520Y4734620D02*
G01X-2236520Y4685910D01*
G01X-2236520Y4685910D02*
G01X-2224340Y4673730D01*
G01X-2224340Y4673730D02*
G01X-2199990Y4673730D01*
G01X-2199990Y4673730D02*
G01X-2187810Y4685910D01*
G01X-2267000Y4698090D02*
G01X-2291350Y4673730D01*
G01X-2291350Y4673730D02*
G01X-2315710Y4698090D01*
G01X-2315710Y4698090D02*
G01X-2315710Y4746790D01*
G01X-2346190Y4746790D02*
G01X-2346190Y4673730D01*
G01X-2346190Y4673730D02*
G01X-2382720Y4673730D01*
G01X-2382720Y4673730D02*
G01X-2394900Y4685910D01*
G01X-2394900Y4685910D02*
G01X-2394900Y4710260D01*
G01X-2394900Y4710260D02*
G01X-2382720Y4722440D01*
G01X-2382720Y4722440D02*
G01X-2346190Y4722440D01*
G01X-2370540Y4722440D02*
G01X-2394900Y4746790D01*
G01X-2425370Y4746790D02*
G01X-2425370Y4673730D01*
G01X-2425370Y4673730D02*
G01X-2461910Y4673730D01*
G01X-2461910Y4673730D02*
G01X-2474080Y4685910D01*
G01X-2474080Y4685910D02*
G01X-2474080Y4734620D01*
G01X-2474080Y4734620D02*
G01X-2461910Y4746790D01*
G01X-2461910Y4746790D02*
G01X-2425370Y4746790D01*
G01X-2437550Y4802730D02*
G01X-2461910Y4802730D01*
G01X-2461910Y4802730D02*
G01X-2474080Y4814910D01*
G01X-2474080Y4814910D02*
G01X-2425370Y4863620D01*
G01X-2425370Y4863620D02*
G01X-2437550Y4875790D01*
G01X-2437550Y4875790D02*
G01X-2461910Y4875790D01*
G01X-2461910Y4875790D02*
G01X-2474080Y4863620D01*
G01X-2474080Y4863620D02*
G01X-2474080Y4814910D01*
G01X-2437550Y4802730D02*
G01X-2425370Y4814910D01*
G01X-2425370Y4814910D02*
G01X-2425370Y4863620D01*
G01X-2397960Y4863620D02*
G01X-2397960Y4875790D01*
G01X-2397960Y4875790D02*
G01X-2385780Y4875790D01*
G01X-2385780Y4875790D02*
G01X-2385780Y4863620D01*
G01X-2385780Y4863620D02*
G01X-2397960Y4863620D01*
G01X-2355300Y4875790D02*
G01X-2306590Y4875790D01*
G01X-2330950Y4875790D02*
G01X-2330950Y4802730D01*
G01X-2330950Y4802730D02*
G01X-2306590Y4827090D01*
G01X-2276110Y4839260D02*
G01X-2276110Y4814910D01*
G01X-2276110Y4814910D02*
G01X-2263940Y4802730D01*
G01X-2263940Y4802730D02*
G01X-2227410Y4802730D01*
G01X-2227410Y4802730D02*
G01X-2227410Y4875790D01*
G01X-2227410Y4851440D02*
G01X-2263940Y4851440D01*
G01X-2263940Y4851440D02*
G01X-2276110Y4839260D01*
G01X-2251760Y4851440D02*
G01X-2276110Y4875790D01*
G01X-2267000Y4746790D02*
G01X-2267000Y4698090D01*
G01X-2267000Y4710260D02*
G01X-2315710Y4710260D01*
G01X-2613830Y4710260D02*
G01X-2650360Y4710260D01*
G01X-2650360Y4710260D02*
G01X-2662540Y4722440D01*
G01X-2662540Y4722440D02*
G01X-2662540Y4734620D01*
G01X-2662540Y4734620D02*
G01X-2650360Y4746790D01*
G01X-2650360Y4746790D02*
G01X-2613830Y4746790D01*
G01X-2613830Y4746790D02*
G01X-2613830Y4673730D01*
G01X-2613830Y4673730D02*
G01X-2650360Y4673730D01*
G01X-2650360Y4673730D02*
G01X-2662540Y4685910D01*
G01X-2662540Y4685910D02*
G01X-2662540Y4698090D01*
G01X-2662540Y4698090D02*
G01X-2650360Y4710260D01*
G01X-2693020Y4710260D02*
G01X-2705200Y4698090D01*
G01X-2705200Y4698090D02*
G01X-2729550Y4698090D01*
G01X-2729550Y4698090D02*
G01X-2741730Y4710260D01*
G01X-2741730Y4710260D02*
G01X-2741730Y4722440D01*
G01X-2741730Y4722440D02*
G01X-2693020Y4722440D01*
G01X-2693020Y4734620D02*
G01X-2693020Y4710260D01*
G01X-2693020Y4734620D02*
G01X-2705200Y4746790D01*
G01X-2705200Y4746790D02*
G01X-2729550Y4746790D01*
G01X-2784380Y4734620D02*
G01X-2784380Y4685910D01*
G01X-2772210Y4698090D02*
G01X-2796560Y4698090D01*
G01X-2784380Y4734620D02*
G01X-2796560Y4746790D01*
G01X-2825000Y4734620D02*
G01X-2837170Y4722440D01*
G01X-2837170Y4722440D02*
G01X-2873710Y4722440D01*
G01X-2873710Y4710260D02*
G01X-2873710Y4746790D01*
G01X-2873710Y4746790D02*
G01X-2837170Y4746790D01*
G01X-2837170Y4746790D02*
G01X-2825000Y4734620D01*
G01X-2837170Y4698090D02*
G01X-2861530Y4698090D01*
G01X-2861530Y4698090D02*
G01X-2873710Y4710260D01*
G54D11*
G01X-2907330Y0592290D02*
G01X-657330Y0592290D01*
G01X-657330Y0592290D02*
G01X-657330Y4592290D01*
G01X-657330Y4592290D02*
G01X-2907330Y4592290D01*
G01X-2907330Y4592290D02*
G01X-2907330Y0592290D01*
G54D12*
G01X-2557330Y4672290D02*
G01X-2557330Y4872290D01*
M02*
