G04 This is an RS-274x file exported by *
G04 gerbv version 2.7.0 *
G04 More information is available about gerbv at *
G04 http://gerbv.geda-project.org/ *
G04 --End of header info--*
%MOIN*%
%FSLAX36Y36*%
%IPPOS*%
G04 --Define apertures--*
%ADD10C,0.0120*%
%ADD11C,0.0110*%
%ADD12C,0.0100*%
%ADD13C,0.0090*%
%ADD14C,0.0080*%
%ADD15C,0.0070*%
%ADD16C,0.0060*%
%ADD17C,0.0050*%
%ADD18C,0.0040*%
%ADD19C,0.0030*%
%ADD20C,0.0020*%
%ADD21C,0.0010*%
%ADD22C,0.0158*%
%ADD23C,0.0200*%
%ADD24C,0.0300*%
%ADD25C,0.0300*%
%ADD26R,0.0300X0.0200*%
%ADD27R,0.0300X0.0400*%
%ADD28R,0.0300X0.0300*%
%ADD29C,0.0079*%
%ADD30C,0.0039*%
%ADD31C,0.0160*%
%ADD32R,0.0200X0.0300*%
%ADD33R,0.0400X0.0300*%
%ADD34R,0.0300X0.0300*%
G04 --Start main section--*
G54D10*
G01X-1357330Y4512290D02*
G01X-1382330Y4537290D01*
G54D11*
G01X-1357330Y4537290D02*
G01X-1332330Y4512290D01*
G54D12*
G01X-1307330Y4512290D02*
G01X-1332330Y4537290D01*
G54D13*
G01X-1307330Y4537290D02*
G01X-1282330Y4512290D01*
G54D14*
G01X-1257330Y4512290D02*
G01X-1282330Y4537290D01*
G54D15*
G01X-1257330Y4537290D02*
G01X-1232330Y4512290D01*
G54D16*
G01X-1207330Y4512290D02*
G01X-1232330Y4537290D01*
G01X-1296330Y3961790D02*
G01X-1318330Y3961790D01*
G01X-1276330Y3917790D02*
G01X-1276330Y3891790D01*
G01X-1296330Y3847790D02*
G01X-1318330Y3847790D01*
G01X-1314330Y3856790D02*
G01X-1313800Y3857180D01*
G01X-1313800Y3857180D02*
G01X-1313250Y3857540D01*
G01X-1313250Y3857540D02*
G01X-1312680Y3857860D01*
G01X-1312680Y3857860D02*
G01X-1312100Y3858150D01*
G01X-1312100Y3858150D02*
G01X-1311490Y3858410D01*
G01X-1311490Y3858410D02*
G01X-1310880Y3858630D01*
G01X-1310880Y3858630D02*
G01X-1310250Y3858820D01*
G01X-1310250Y3858820D02*
G01X-1309610Y3858970D01*
G01X-1309610Y3858970D02*
G01X-1308960Y3859080D01*
G01X-1308960Y3859080D02*
G01X-1308310Y3859160D01*
G01X-1308310Y3859160D02*
G01X-1307660Y3859200D01*
G01X-1307660Y3859200D02*
G01X-1307000Y3859200D01*
G01X-1307000Y3859200D02*
G01X-1306350Y3859160D01*
G01X-1306350Y3859160D02*
G01X-1305700Y3859080D01*
G01X-1305700Y3859080D02*
G01X-1305050Y3858970D01*
G01X-1305050Y3858970D02*
G01X-1304410Y3858820D01*
G01X-1304410Y3858820D02*
G01X-1303780Y3858630D01*
G01X-1303780Y3858630D02*
G01X-1303170Y3858410D01*
G01X-1303170Y3858410D02*
G01X-1302560Y3858150D01*
G01X-1302560Y3858150D02*
G01X-1301980Y3857860D01*
G01X-1301980Y3857860D02*
G01X-1301410Y3857540D01*
G01X-1301410Y3857540D02*
G01X-1300860Y3857180D01*
G01X-1300860Y3857180D02*
G01X-1300330Y3856790D01*
G01X-1300330Y3856790D02*
G01X-1300860Y3857180D01*
G01X-1300860Y3857180D02*
G01X-1301410Y3857540D01*
G01X-1301410Y3857540D02*
G01X-1301980Y3857860D01*
G01X-1301980Y3857860D02*
G01X-1302560Y3858150D01*
G01X-1302560Y3858150D02*
G01X-1303170Y3858410D01*
G01X-1303170Y3858410D02*
G01X-1303780Y3858630D01*
G01X-1303780Y3858630D02*
G01X-1304410Y3858820D01*
G01X-1304410Y3858820D02*
G01X-1305050Y3858970D01*
G01X-1305050Y3858970D02*
G01X-1305700Y3859080D01*
G01X-1305700Y3859080D02*
G01X-1306350Y3859160D01*
G01X-1306350Y3859160D02*
G01X-1307000Y3859200D01*
G01X-1307000Y3859200D02*
G01X-1307660Y3859200D01*
G01X-1307660Y3859200D02*
G01X-1308310Y3859160D01*
G01X-1308310Y3859160D02*
G01X-1308960Y3859080D01*
G01X-1308960Y3859080D02*
G01X-1309610Y3858970D01*
G01X-1309610Y3858970D02*
G01X-1310250Y3858820D01*
G01X-1310250Y3858820D02*
G01X-1310880Y3858630D01*
G01X-1310880Y3858630D02*
G01X-1311490Y3858410D01*
G01X-1311490Y3858410D02*
G01X-1312100Y3858150D01*
G01X-1312100Y3858150D02*
G01X-1312680Y3857860D01*
G01X-1312680Y3857860D02*
G01X-1313250Y3857540D01*
G01X-1313250Y3857540D02*
G01X-1313800Y3857180D01*
G01X-1313800Y3857180D02*
G01X-1314330Y3856790D01*
G01X-1410830Y3476290D02*
G01X-1410830Y3452290D01*
G01X-1410830Y3476290D02*
G01X-1420830Y3476290D01*
G01X-1410830Y3382290D02*
G01X-1410830Y3358290D01*
G01X-1410830Y3358290D02*
G01X-1420830Y3358290D01*
G01X-1518830Y3358290D02*
G01X-1528830Y3358290D01*
G01X-1528830Y3358290D02*
G01X-1528830Y3382290D01*
G01X-1528830Y3452290D02*
G01X-1528830Y3476290D01*
G01X-1528830Y3476290D02*
G01X-1518830Y3476290D01*
G01X-1732940Y3453290D02*
G01X-1732940Y3331290D01*
G01X-1806330Y3238750D02*
G01X-1806330Y3219070D01*
G01X-1931720Y3331290D02*
G01X-1931720Y3380290D01*
G01X-1931720Y3380290D02*
G01X-1931720Y3404290D01*
G01X-1931720Y3404290D02*
G01X-1931720Y3453290D01*
G01X-1931720Y3404290D02*
G01X-1931030Y3404270D01*
G01X-1931030Y3404270D02*
G01X-1930350Y3404210D01*
G01X-1930350Y3404210D02*
G01X-1929670Y3404110D01*
G01X-1929670Y3404110D02*
G01X-1929000Y3403980D01*
G01X-1929000Y3403980D02*
G01X-1928340Y3403800D01*
G01X-1928340Y3403800D02*
G01X-1927690Y3403590D01*
G01X-1927690Y3403590D02*
G01X-1927050Y3403340D01*
G01X-1927050Y3403340D02*
G01X-1926430Y3403060D01*
G01X-1926430Y3403060D02*
G01X-1925820Y3402740D01*
G01X-1925820Y3402740D02*
G01X-1925230Y3402390D01*
G01X-1925230Y3402390D02*
G01X-1924670Y3402000D01*
G01X-1924670Y3402000D02*
G01X-1924120Y3401580D01*
G01X-1924120Y3401580D02*
G01X-1923610Y3401130D01*
G01X-1923610Y3401130D02*
G01X-1923110Y3400650D01*
G01X-1923110Y3400650D02*
G01X-1922650Y3400150D01*
G01X-1922650Y3400150D02*
G01X-1922220Y3399620D01*
G01X-1922220Y3399620D02*
G01X-1921810Y3399060D01*
G01X-1921810Y3399060D02*
G01X-1921440Y3398490D01*
G01X-1921440Y3398490D02*
G01X-1921110Y3397890D01*
G01X-1921110Y3397890D02*
G01X-1920800Y3397270D01*
G01X-1920800Y3397270D02*
G01X-1920540Y3396640D01*
G01X-1920540Y3396640D02*
G01X-1920310Y3396000D01*
G01X-1920310Y3396000D02*
G01X-1920110Y3395340D01*
G01X-1920110Y3395340D02*
G01X-1919960Y3394670D01*
G01X-1919960Y3394670D02*
G01X-1919840Y3394000D01*
G01X-1919840Y3394000D02*
G01X-1919760Y3393320D01*
G01X-1919760Y3393320D02*
G01X-1919720Y3392630D01*
G01X-1919720Y3392630D02*
G01X-1919720Y3391950D01*
G01X-1919720Y3391950D02*
G01X-1919760Y3391260D01*
G01X-1919760Y3391260D02*
G01X-1919840Y3390580D01*
G01X-1919840Y3390580D02*
G01X-1919960Y3389910D01*
G01X-1919960Y3389910D02*
G01X-1920110Y3389240D01*
G01X-1920110Y3389240D02*
G01X-1920310Y3388580D01*
G01X-1920310Y3388580D02*
G01X-1920540Y3387940D01*
G01X-1920540Y3387940D02*
G01X-1920800Y3387310D01*
G01X-1920800Y3387310D02*
G01X-1921110Y3386690D01*
G01X-1921110Y3386690D02*
G01X-1921440Y3386090D01*
G01X-1921440Y3386090D02*
G01X-1921810Y3385520D01*
G01X-1921810Y3385520D02*
G01X-1922220Y3384960D01*
G01X-1922220Y3384960D02*
G01X-1922650Y3384430D01*
G01X-1922650Y3384430D02*
G01X-1923110Y3383930D01*
G01X-1923110Y3383930D02*
G01X-1923610Y3383450D01*
G01X-1923610Y3383450D02*
G01X-1924120Y3383000D01*
G01X-1924120Y3383000D02*
G01X-1924670Y3382580D01*
G01X-1924670Y3382580D02*
G01X-1925230Y3382190D01*
G01X-1925230Y3382190D02*
G01X-1925820Y3381840D01*
G01X-1925820Y3381840D02*
G01X-1926430Y3381520D01*
G01X-1926430Y3381520D02*
G01X-1927050Y3381240D01*
G01X-1927050Y3381240D02*
G01X-1927690Y3380990D01*
G01X-1927690Y3380990D02*
G01X-1928340Y3380780D01*
G01X-1928340Y3380780D02*
G01X-1929000Y3380600D01*
G01X-1929000Y3380600D02*
G01X-1929670Y3380470D01*
G01X-1929670Y3380470D02*
G01X-1930350Y3380370D01*
G01X-1930350Y3380370D02*
G01X-1931030Y3380310D01*
G01X-1931030Y3380310D02*
G01X-1931720Y3380290D01*
G01X-2273330Y3251290D02*
G01X-2273330Y3241290D01*
G01X-2273330Y3251290D02*
G01X-2297330Y3251290D01*
G01X-2367330Y3251290D02*
G01X-2391330Y3251290D01*
G01X-2391330Y3251290D02*
G01X-2391330Y3241290D01*
G01X-2391330Y3143290D02*
G01X-2391330Y3133290D01*
G01X-2391330Y3133290D02*
G01X-2367330Y3133290D01*
G01X-2297330Y3133290D02*
G01X-2273330Y3133290D01*
G01X-2273330Y3133290D02*
G01X-2273330Y3143290D01*
G01X-2273330Y2501290D02*
G01X-2273330Y2491290D01*
G01X-2273330Y2501290D02*
G01X-2297330Y2501290D01*
G01X-2367330Y2501290D02*
G01X-2391330Y2501290D01*
G01X-2391330Y2501290D02*
G01X-2391330Y2491290D01*
G01X-2391330Y2393290D02*
G01X-2391330Y2383290D01*
G01X-2391330Y2383290D02*
G01X-2367330Y2383290D01*
G01X-2297330Y2383290D02*
G01X-2273330Y2383290D01*
G01X-2273330Y2383290D02*
G01X-2273330Y2393290D01*
G01X-2153830Y1826290D02*
G01X-2143830Y1826290D01*
G01X-2153830Y1826290D02*
G01X-2153830Y1802290D01*
G01X-2153830Y1732290D02*
G01X-2153830Y1708290D01*
G01X-2153830Y1708290D02*
G01X-2143830Y1708290D01*
G01X-2045830Y1708290D02*
G01X-2035830Y1708290D01*
G01X-2035830Y1708290D02*
G01X-2035830Y1732290D01*
G01X-2035830Y1802290D02*
G01X-2035830Y1826290D01*
G01X-2035830Y1826290D02*
G01X-2045830Y1826290D01*
G01X-2246330Y1336790D02*
G01X-2268330Y1336790D01*
G01X-2264330Y1327790D02*
G01X-2263800Y1327400D01*
G01X-2263800Y1327400D02*
G01X-2263250Y1327040D01*
G01X-2263250Y1327040D02*
G01X-2262680Y1326720D01*
G01X-2262680Y1326720D02*
G01X-2262100Y1326430D01*
G01X-2262100Y1326430D02*
G01X-2261490Y1326170D01*
G01X-2261490Y1326170D02*
G01X-2260880Y1325950D01*
G01X-2260880Y1325950D02*
G01X-2260250Y1325760D01*
G01X-2260250Y1325760D02*
G01X-2259610Y1325610D01*
G01X-2259610Y1325610D02*
G01X-2258960Y1325500D01*
G01X-2258960Y1325500D02*
G01X-2258310Y1325420D01*
G01X-2258310Y1325420D02*
G01X-2257660Y1325380D01*
G01X-2257660Y1325380D02*
G01X-2257000Y1325380D01*
G01X-2257000Y1325380D02*
G01X-2256350Y1325420D01*
G01X-2256350Y1325420D02*
G01X-2255700Y1325500D01*
G01X-2255700Y1325500D02*
G01X-2255050Y1325610D01*
G01X-2255050Y1325610D02*
G01X-2254410Y1325760D01*
G01X-2254410Y1325760D02*
G01X-2253780Y1325950D01*
G01X-2253780Y1325950D02*
G01X-2253170Y1326170D01*
G01X-2253170Y1326170D02*
G01X-2252560Y1326430D01*
G01X-2252560Y1326430D02*
G01X-2251980Y1326720D01*
G01X-2251980Y1326720D02*
G01X-2251410Y1327040D01*
G01X-2251410Y1327040D02*
G01X-2250860Y1327400D01*
G01X-2250860Y1327400D02*
G01X-2250330Y1327790D01*
G01X-2250330Y1327790D02*
G01X-2250860Y1327400D01*
G01X-2250860Y1327400D02*
G01X-2251410Y1327040D01*
G01X-2251410Y1327040D02*
G01X-2251980Y1326720D01*
G01X-2251980Y1326720D02*
G01X-2252560Y1326430D01*
G01X-2252560Y1326430D02*
G01X-2253170Y1326170D01*
G01X-2253170Y1326170D02*
G01X-2253780Y1325950D01*
G01X-2253780Y1325950D02*
G01X-2254410Y1325760D01*
G01X-2254410Y1325760D02*
G01X-2255050Y1325610D01*
G01X-2255050Y1325610D02*
G01X-2255700Y1325500D01*
G01X-2255700Y1325500D02*
G01X-2256350Y1325420D01*
G01X-2256350Y1325420D02*
G01X-2257000Y1325380D01*
G01X-2257000Y1325380D02*
G01X-2257660Y1325380D01*
G01X-2257660Y1325380D02*
G01X-2258310Y1325420D01*
G01X-2258310Y1325420D02*
G01X-2258960Y1325500D01*
G01X-2258960Y1325500D02*
G01X-2259610Y1325610D01*
G01X-2259610Y1325610D02*
G01X-2260250Y1325760D01*
G01X-2260250Y1325760D02*
G01X-2260880Y1325950D01*
G01X-2260880Y1325950D02*
G01X-2261490Y1326170D01*
G01X-2261490Y1326170D02*
G01X-2262100Y1326430D01*
G01X-2262100Y1326430D02*
G01X-2262680Y1326720D01*
G01X-2262680Y1326720D02*
G01X-2263250Y1327040D01*
G01X-2263250Y1327040D02*
G01X-2263800Y1327400D01*
G01X-2263800Y1327400D02*
G01X-2264330Y1327790D01*
G01X-2288330Y1292790D02*
G01X-2288330Y1266790D01*
G01X-2268330Y1222790D02*
G01X-2246330Y1222790D01*
G01X-2723330Y1076290D02*
G01X-2723330Y1052290D01*
G01X-2723330Y1076290D02*
G01X-2733330Y1076290D01*
G01X-2723330Y0982290D02*
G01X-2723330Y0958290D01*
G01X-2723330Y0958290D02*
G01X-2733330Y0958290D01*
G01X-2831330Y0958290D02*
G01X-2841330Y0958290D01*
G01X-2841330Y0958290D02*
G01X-2841330Y0982290D01*
G01X-2841330Y1052290D02*
G01X-2841330Y1076290D01*
G01X-2841330Y1076290D02*
G01X-2831330Y1076290D01*
G01X-1291330Y1933290D02*
G01X-1291330Y1943290D01*
G01X-1291330Y1933290D02*
G01X-1267330Y1933290D01*
G01X-1197330Y1933290D02*
G01X-1173330Y1933290D01*
G01X-1173330Y1933290D02*
G01X-1173330Y1943290D01*
G01X-1173330Y2041290D02*
G01X-1173330Y2051290D01*
G01X-1173330Y2051290D02*
G01X-1197330Y2051290D01*
G01X-1267330Y2051290D02*
G01X-1291330Y2051290D01*
G01X-1291330Y2051290D02*
G01X-1291330Y2041290D01*
G01X-1291330Y2683290D02*
G01X-1291330Y2693290D01*
G01X-1291330Y2683290D02*
G01X-1267330Y2683290D01*
G01X-1197330Y2683290D02*
G01X-1173330Y2683290D01*
G01X-1173330Y2683290D02*
G01X-1173330Y2693290D01*
G01X-1173330Y2791290D02*
G01X-1173330Y2801290D01*
G01X-1173330Y2801290D02*
G01X-1197330Y2801290D01*
G01X-1267330Y2801290D02*
G01X-1291330Y2801290D01*
G01X-1291330Y2801290D02*
G01X-1291330Y2791290D01*
G01X-1723330Y4008290D02*
G01X-1733330Y4008290D01*
G01X-1723330Y4008290D02*
G01X-1723330Y4032290D01*
G01X-1723330Y4102290D02*
G01X-1723330Y4126290D01*
G01X-1723330Y4126290D02*
G01X-1733330Y4126290D01*
G01X-1831330Y4126290D02*
G01X-1841330Y4126290D01*
G01X-1841330Y4126290D02*
G01X-1841330Y4102290D01*
G01X-1841330Y4032290D02*
G01X-1841330Y4008290D01*
G01X-1841330Y4008290D02*
G01X-1831330Y4008290D01*
G01X-2215300Y4106860D02*
G01X-2274360Y4106860D01*
G01X-2544830Y4142290D02*
G01X-2544830Y4042290D01*
G01X-2544830Y4042290D02*
G01X-2644830Y4042290D01*
G01X-2644830Y4042290D02*
G01X-2644830Y4142290D01*
G01X-2644830Y4142290D02*
G01X-2644830Y4242290D01*
G01X-2644830Y4242290D02*
G01X-2544830Y4242290D01*
G01X-2544830Y4242290D02*
G01X-2544830Y4142290D01*
G01X-2544830Y4142290D02*
G01X-2644830Y4142290D01*
G01X-2689290Y4051830D02*
G01X-2718650Y4007790D01*
G01X-2735330Y4007790D02*
G01X-2764690Y4037150D01*
G01X-2764690Y4037150D02*
G01X-2764690Y4044490D01*
G01X-2764690Y4044490D02*
G01X-2757350Y4051830D01*
G01X-2757350Y4051830D02*
G01X-2742670Y4051830D01*
G01X-2742670Y4051830D02*
G01X-2735330Y4044490D01*
G01X-2718650Y4051830D02*
G01X-2689290Y4007790D01*
G01X-2735330Y4007790D02*
G01X-2764690Y4007790D01*
G01X-841330Y1076290D02*
G01X-831330Y1076290D01*
G01X-841330Y1076290D02*
G01X-841330Y1052290D01*
G01X-841330Y0982290D02*
G01X-841330Y0958290D01*
G01X-841330Y0958290D02*
G01X-831330Y0958290D01*
G01X-733330Y0958290D02*
G01X-723330Y0958290D01*
G01X-723330Y0958290D02*
G01X-723330Y0982290D01*
G01X-723330Y1052290D02*
G01X-723330Y1076290D01*
G01X-723330Y1076290D02*
G01X-733330Y1076290D01*
G54D17*
G01X-735560Y1099760D02*
G01X-758910Y1099760D01*
G01X-758910Y1099760D02*
G01X-758910Y1117280D01*
G01X-758910Y1117280D02*
G01X-747240Y1111440D01*
G01X-747240Y1111440D02*
G01X-741400Y1111440D01*
G01X-741400Y1111440D02*
G01X-735560Y1117280D01*
G01X-735560Y1117280D02*
G01X-735560Y1128960D01*
G01X-735560Y1128960D02*
G01X-741400Y1134790D01*
G01X-741400Y1134790D02*
G01X-753080Y1134790D01*
G01X-753080Y1134790D02*
G01X-758910Y1128960D01*
G01X-772390Y1134790D02*
G01X-795750Y1134790D01*
G01X-784070Y1134790D02*
G01X-784070Y1099760D01*
G01X-784070Y1099760D02*
G01X-795750Y1111440D01*
G01X-809220Y1099760D02*
G01X-809220Y1128960D01*
G01X-809220Y1128960D02*
G01X-815060Y1134790D01*
G01X-815060Y1134790D02*
G01X-826740Y1134790D01*
G01X-826740Y1134790D02*
G01X-832580Y1128960D01*
G01X-832580Y1128960D02*
G01X-832580Y1099760D01*
G01X-789190Y1690720D02*
G01X-1025410Y1690720D01*
G01X-1025410Y1690720D02*
G01X-1025410Y1800960D01*
G01X-1025410Y1800960D02*
G01X-1005760Y1800960D01*
G01X-1005760Y1800960D02*
G01X-1005760Y1806860D01*
G01X-1005720Y1800960D02*
G01X-1005760Y1800960D01*
G01X-986070Y1806860D02*
G01X-986070Y1734030D01*
G01X-986040Y1734030D02*
G01X-926980Y1734030D01*
G01X-926980Y1734030D02*
G01X-926980Y1710400D01*
G01X-926980Y1710400D02*
G01X-828590Y1710400D01*
G01X-828590Y1710400D02*
G01X-828590Y1806860D01*
G01X-808910Y1806860D02*
G01X-808910Y1800960D01*
G01X-808870Y1800960D02*
G01X-789190Y1800960D01*
G01X-789190Y1800960D02*
G01X-789190Y1690720D01*
G01X-828560Y1710400D02*
G01X-828590Y1710400D01*
G01X-887610Y1800960D02*
G01X-926980Y1800960D01*
G01X-926980Y1800960D02*
G01X-926980Y3383630D01*
G01X-926980Y3383630D02*
G01X-887610Y3383630D01*
G01X-887610Y3383630D02*
G01X-887610Y1800960D01*
G01X-1185560Y2074760D02*
G01X-1185560Y2080600D01*
G01X-1185560Y2080600D02*
G01X-1208910Y2103960D01*
G01X-1208910Y2103960D02*
G01X-1208910Y2109790D01*
G01X-1222390Y2109790D02*
G01X-1245750Y2109790D01*
G01X-1234070Y2109790D02*
G01X-1234070Y2074760D01*
G01X-1234070Y2074760D02*
G01X-1245750Y2086440D01*
G01X-1259220Y2074760D02*
G01X-1259220Y2103960D01*
G01X-1259220Y2103960D02*
G01X-1265060Y2109790D01*
G01X-1265060Y2109790D02*
G01X-1276740Y2109790D01*
G01X-1276740Y2109790D02*
G01X-1282580Y2103960D01*
G01X-1282580Y2103960D02*
G01X-1282580Y2074760D01*
G01X-1208910Y2074760D02*
G01X-1185560Y2074760D01*
G01X-1191400Y2824760D02*
G01X-1185560Y2830600D01*
G01X-1185560Y2830600D02*
G01X-1185560Y2853960D01*
G01X-1185560Y2853960D02*
G01X-1191400Y2859790D01*
G01X-1191400Y2859790D02*
G01X-1203080Y2859790D01*
G01X-1203080Y2859790D02*
G01X-1208910Y2853960D01*
G01X-1203080Y2842280D02*
G01X-1185560Y2842280D01*
G01X-1203080Y2842280D02*
G01X-1208910Y2836440D01*
G01X-1208910Y2836440D02*
G01X-1208910Y2830600D01*
G01X-1208910Y2830600D02*
G01X-1203080Y2824760D01*
G01X-1203080Y2824760D02*
G01X-1191400Y2824760D01*
G01X-1234070Y2824760D02*
G01X-1234070Y2859790D01*
G01X-1245750Y2859790D02*
G01X-1222390Y2859790D01*
G01X-1245750Y2836440D02*
G01X-1234070Y2824760D01*
G01X-1259220Y2824760D02*
G01X-1259220Y2853960D01*
G01X-1259220Y2853960D02*
G01X-1265060Y2859790D01*
G01X-1265060Y2859790D02*
G01X-1276740Y2859790D01*
G01X-1276740Y2859790D02*
G01X-1282580Y2853960D01*
G01X-1282580Y2853960D02*
G01X-1282580Y2824760D01*
G01X-1549800Y3367050D02*
G01X-1578990Y3367050D01*
G01X-1578990Y3367050D02*
G01X-1584830Y3372880D01*
G01X-1584830Y3372880D02*
G01X-1584830Y3384560D01*
G01X-1584830Y3384560D02*
G01X-1578990Y3390400D01*
G01X-1578990Y3390400D02*
G01X-1549800Y3390400D01*
G01X-1555640Y3403880D02*
G01X-1549800Y3409720D01*
G01X-1549800Y3409720D02*
G01X-1549800Y3421390D01*
G01X-1549800Y3421390D02*
G01X-1555640Y3427230D01*
G01X-1555640Y3427230D02*
G01X-1561480Y3427230D01*
G01X-1561480Y3427230D02*
G01X-1584830Y3403880D01*
G01X-1584830Y3403880D02*
G01X-1584830Y3427230D01*
G01X-1584830Y3440710D02*
G01X-1584830Y3464060D01*
G01X-1584830Y3452390D02*
G01X-1549800Y3452390D01*
G01X-1549800Y3452390D02*
G01X-1561480Y3440710D01*
G01X-1954800Y3441560D02*
G01X-1954800Y3418210D01*
G01X-1960640Y3404730D02*
G01X-1954800Y3398890D01*
G01X-1954800Y3398890D02*
G01X-1954800Y3387220D01*
G01X-1954800Y3387220D02*
G01X-1960640Y3381380D01*
G01X-1954800Y3367900D02*
G01X-1983990Y3367900D01*
G01X-1983990Y3367900D02*
G01X-1989830Y3362060D01*
G01X-1989830Y3362060D02*
G01X-1989830Y3350380D01*
G01X-1989830Y3350380D02*
G01X-1983990Y3344550D01*
G01X-1983990Y3344550D02*
G01X-1954800Y3344550D01*
G01X-1989830Y3381380D02*
G01X-1966480Y3404730D01*
G01X-1966480Y3404730D02*
G01X-1960640Y3404730D01*
G01X-1983990Y3418210D02*
G01X-1989830Y3418210D01*
G01X-1983990Y3418210D02*
G01X-1960640Y3441560D01*
G01X-1960640Y3441560D02*
G01X-1954800Y3441560D01*
G01X-1989830Y3404730D02*
G01X-1989830Y3381380D01*
G01X-2283060Y3103960D02*
G01X-2288900Y3109790D01*
G01X-2288900Y3109790D02*
G01X-2300580Y3109790D01*
G01X-2300580Y3109790D02*
G01X-2306410Y3103960D01*
G01X-2306410Y3103960D02*
G01X-2283060Y3080600D01*
G01X-2283060Y3080600D02*
G01X-2283060Y3103960D01*
G01X-2306410Y3103960D02*
G01X-2306410Y3080600D01*
G01X-2306410Y3080600D02*
G01X-2300580Y3074760D01*
G01X-2300580Y3074760D02*
G01X-2288900Y3074760D01*
G01X-2288900Y3074760D02*
G01X-2283060Y3080600D01*
G01X-2319890Y3080600D02*
G01X-2325730Y3074760D01*
G01X-2325730Y3074760D02*
G01X-2337410Y3074760D01*
G01X-2337410Y3074760D02*
G01X-2343250Y3080600D01*
G01X-2356720Y3074760D02*
G01X-2356720Y3103960D01*
G01X-2356720Y3103960D02*
G01X-2362560Y3109790D01*
G01X-2362560Y3109790D02*
G01X-2374240Y3109790D01*
G01X-2374240Y3109790D02*
G01X-2380080Y3103960D01*
G01X-2380080Y3103960D02*
G01X-2380080Y3074760D01*
G01X-2343250Y3109790D02*
G01X-2319890Y3086440D01*
G01X-2319890Y3086440D02*
G01X-2319890Y3080600D01*
G01X-2319890Y3109790D02*
G01X-2343250Y3109790D01*
G01X-2539250Y3383630D02*
G01X-2539250Y3493870D01*
G01X-2539250Y3493870D02*
G01X-2775470Y3493870D01*
G01X-2775470Y3493870D02*
G01X-2775470Y3383630D01*
G01X-2775470Y3383630D02*
G01X-2755790Y3383630D01*
G01X-2755760Y3383630D02*
G01X-2755760Y3377730D01*
G01X-2736070Y3377730D02*
G01X-2736070Y3450560D01*
G01X-2736070Y3450560D02*
G01X-2736100Y3450560D01*
G01X-2736070Y3450560D02*
G01X-2677050Y3450560D01*
G01X-2677050Y3450560D02*
G01X-2677050Y3474180D01*
G01X-2677050Y3474180D02*
G01X-2578620Y3474180D01*
G01X-2578590Y3474180D02*
G01X-2578590Y3377730D01*
G01X-2558910Y3377730D02*
G01X-2558910Y3383630D01*
G01X-2558910Y3383630D02*
G01X-2539250Y3383630D01*
G01X-2558910Y3383630D02*
G01X-2558940Y3383630D01*
G01X-2637680Y3383630D02*
G01X-2677050Y3383630D01*
G01X-2677050Y3383630D02*
G01X-2677050Y1800960D01*
G01X-2677050Y1800960D02*
G01X-2637680Y1800960D01*
G01X-2637680Y1800960D02*
G01X-2637680Y3383630D01*
G01X-2742960Y3466310D02*
G01X-2758710Y3474180D01*
G01X-2758710Y3474180D02*
G01X-2758710Y3458440D01*
G01X-2758710Y3458440D02*
G01X-2742960Y3466310D01*
G01X-2376740Y2359790D02*
G01X-2365060Y2359790D01*
G01X-2365060Y2359790D02*
G01X-2359220Y2353960D01*
G01X-2359220Y2353960D02*
G01X-2359220Y2324760D01*
G01X-2345750Y2336440D02*
G01X-2334070Y2324760D01*
G01X-2334070Y2324760D02*
G01X-2334070Y2359790D01*
G01X-2345750Y2359790D02*
G01X-2322390Y2359790D01*
G01X-2308910Y2353960D02*
G01X-2308910Y2348120D01*
G01X-2308910Y2348120D02*
G01X-2303080Y2342280D01*
G01X-2303080Y2342280D02*
G01X-2291400Y2342280D01*
G01X-2291400Y2342280D02*
G01X-2285560Y2348120D01*
G01X-2285560Y2348120D02*
G01X-2285560Y2353960D01*
G01X-2285560Y2353960D02*
G01X-2291400Y2359790D01*
G01X-2291400Y2359790D02*
G01X-2303080Y2359790D01*
G01X-2303080Y2359790D02*
G01X-2308910Y2353960D01*
G01X-2303080Y2342280D02*
G01X-2308910Y2336440D01*
G01X-2308910Y2336440D02*
G01X-2308910Y2330600D01*
G01X-2308910Y2330600D02*
G01X-2303080Y2324760D01*
G01X-2303080Y2324760D02*
G01X-2291400Y2324760D01*
G01X-2291400Y2324760D02*
G01X-2285560Y2330600D01*
G01X-2285560Y2330600D02*
G01X-2285560Y2336440D01*
G01X-2285560Y2336440D02*
G01X-2291400Y2342280D01*
G01X-2376740Y2359790D02*
G01X-2382580Y2353960D01*
G01X-2382580Y2353960D02*
G01X-2382580Y2324760D01*
G01X-2539250Y1800960D02*
G01X-2558910Y1800960D01*
G01X-2558910Y1800960D02*
G01X-2558910Y1806860D01*
G01X-2558910Y1800960D02*
G01X-2558940Y1800960D01*
G01X-2539250Y1800960D02*
G01X-2539250Y1690720D01*
G01X-2539250Y1690720D02*
G01X-2775470Y1690720D01*
G01X-2775470Y1690720D02*
G01X-2775470Y1800960D01*
G01X-2775470Y1800960D02*
G01X-2755790Y1800960D01*
G01X-2755760Y1800960D02*
G01X-2755760Y1806860D01*
G01X-2736070Y1806860D02*
G01X-2736070Y1734030D01*
G01X-2736070Y1734030D02*
G01X-2677050Y1734030D01*
G01X-2677050Y1734030D02*
G01X-2677050Y1710400D01*
G01X-2677050Y1710400D02*
G01X-2578620Y1710400D01*
G01X-2578590Y1710400D02*
G01X-2578590Y1806860D01*
G01X-2736070Y1734030D02*
G01X-2736100Y1734030D01*
G01X-2741400Y0934790D02*
G01X-2741400Y0899760D01*
G01X-2741400Y0899760D02*
G01X-2758910Y0917280D01*
G01X-2758910Y0917280D02*
G01X-2735560Y0917280D01*
G01X-2772390Y0934790D02*
G01X-2795750Y0934790D01*
G01X-2784070Y0934790D02*
G01X-2784070Y0899760D01*
G01X-2784070Y0899760D02*
G01X-2795750Y0911440D01*
G01X-2809220Y0899760D02*
G01X-2809220Y0928960D01*
G01X-2809220Y0928960D02*
G01X-2815060Y0934790D01*
G01X-2815060Y0934790D02*
G01X-2826740Y0934790D01*
G01X-2826740Y0934790D02*
G01X-2832580Y0928960D01*
G01X-2832580Y0928960D02*
G01X-2832580Y0899760D01*
G01X-2012330Y1722880D02*
G01X-2012330Y1734560D01*
G01X-2012330Y1734560D02*
G01X-2006490Y1740400D01*
G01X-2006490Y1740400D02*
G01X-1977300Y1740400D01*
G01X-1988980Y1753880D02*
G01X-1977300Y1765550D01*
G01X-1977300Y1765550D02*
G01X-2012330Y1765550D01*
G01X-2012330Y1753880D02*
G01X-2012330Y1777230D01*
G01X-2006490Y1790710D02*
G01X-2012330Y1796550D01*
G01X-2012330Y1796550D02*
G01X-2012330Y1808220D01*
G01X-2012330Y1808220D02*
G01X-2006490Y1814060D01*
G01X-2006490Y1814060D02*
G01X-2000650Y1814060D01*
G01X-2000650Y1814060D02*
G01X-1994820Y1808220D01*
G01X-1994820Y1808220D02*
G01X-1994820Y1790710D01*
G01X-1994820Y1790710D02*
G01X-2006490Y1790710D01*
G01X-1994820Y1790710D02*
G01X-1983140Y1802390D01*
G01X-1983140Y1802390D02*
G01X-1977300Y1814060D01*
G01X-1977300Y1717050D02*
G01X-2006490Y1717050D01*
G01X-2006490Y1717050D02*
G01X-2012330Y1722880D01*
G01X-1025410Y3383630D02*
G01X-1005760Y3383630D01*
G01X-1005760Y3383630D02*
G01X-1005760Y3377730D01*
G01X-1005760Y3383630D02*
G01X-1005720Y3383630D01*
G01X-1025410Y3383630D02*
G01X-1025410Y3493870D01*
G01X-1025410Y3493870D02*
G01X-789190Y3493870D01*
G01X-789190Y3493870D02*
G01X-789190Y3383630D01*
G01X-789190Y3383630D02*
G01X-808870Y3383630D01*
G01X-808910Y3383630D02*
G01X-808910Y3377730D01*
G01X-828590Y3377730D02*
G01X-828590Y3474180D01*
G01X-828590Y3474180D02*
G01X-926980Y3474180D01*
G01X-926980Y3474180D02*
G01X-926980Y3450560D01*
G01X-926980Y3450560D02*
G01X-986040Y3450560D01*
G01X-986070Y3450560D02*
G01X-986070Y3377730D01*
G01X-1010680Y3458440D02*
G01X-1010680Y3474180D01*
G01X-1010680Y3474180D02*
G01X-994930Y3466310D01*
G01X-994930Y3466310D02*
G01X-1010680Y3458440D01*
G01X-828590Y3474180D02*
G01X-828560Y3474180D01*
G01X-1527330Y4141360D02*
G01X-1533170Y4135520D01*
G01X-1533170Y4135520D02*
G01X-1539010Y4135520D01*
G01X-1539010Y4135520D02*
G01X-1544850Y4141360D01*
G01X-1544850Y4141360D02*
G01X-1544850Y4158880D01*
G01X-1544850Y4158880D02*
G01X-1533170Y4158880D01*
G01X-1533170Y4158880D02*
G01X-1527330Y4153040D01*
G01X-1527330Y4153040D02*
G01X-1527330Y4141360D01*
G01X-1544850Y4158880D02*
G01X-1556520Y4147200D01*
G01X-1556520Y4147200D02*
G01X-1562360Y4135520D01*
G01X-1556520Y4172360D02*
G01X-1562360Y4178190D01*
G01X-1562360Y4178190D02*
G01X-1562360Y4189870D01*
G01X-1562360Y4189870D02*
G01X-1556520Y4195710D01*
G01X-1562360Y4209190D02*
G01X-1533170Y4209190D01*
G01X-1533170Y4209190D02*
G01X-1527330Y4215030D01*
G01X-1527330Y4215030D02*
G01X-1527330Y4226700D01*
G01X-1527330Y4226700D02*
G01X-1533170Y4232540D01*
G01X-1533170Y4232540D02*
G01X-1562360Y4232540D01*
G01X-1527330Y4195710D02*
G01X-1550680Y4172360D01*
G01X-1550680Y4172360D02*
G01X-1556520Y4172360D01*
G01X-1527330Y4172360D02*
G01X-1527330Y4195710D01*
G01X-1729580Y4194820D02*
G01X-1729580Y4165630D01*
G01X-1729580Y4165630D02*
G01X-1735420Y4159790D01*
G01X-1735420Y4159790D02*
G01X-1747100Y4159790D01*
G01X-1747100Y4159790D02*
G01X-1752940Y4165630D01*
G01X-1752940Y4165630D02*
G01X-1752940Y4194820D01*
G01X-1766410Y4188990D02*
G01X-1772250Y4194820D01*
G01X-1772250Y4194820D02*
G01X-1783930Y4194820D01*
G01X-1783930Y4194820D02*
G01X-1789770Y4188990D01*
G01X-1789770Y4188990D02*
G01X-1789770Y4183150D01*
G01X-1789770Y4183150D02*
G01X-1766410Y4159790D01*
G01X-1766410Y4159790D02*
G01X-1789770Y4159790D01*
G01X-1803250Y4159790D02*
G01X-1826600Y4183150D01*
G01X-1826600Y4183150D02*
G01X-1826600Y4188990D01*
G01X-1826600Y4188990D02*
G01X-1820760Y4194820D01*
G01X-1820760Y4194820D02*
G01X-1809080Y4194820D01*
G01X-1809080Y4194820D02*
G01X-1803250Y4188990D01*
G01X-1803250Y4159790D02*
G01X-1826600Y4159790D01*
G01X-1207330Y4537290D02*
G01X-1182330Y4512290D01*
G54D18*
G01X-1157330Y4512290D02*
G01X-1182330Y4537290D01*
G01X-1393330Y4359490D02*
G01X-1393330Y4340810D01*
G01X-1393330Y4330030D02*
G01X-1393330Y4311340D01*
G01X-1393330Y4320690D02*
G01X-1421350Y4320690D01*
G01X-1421350Y4320690D02*
G01X-1412010Y4330030D01*
G01X-1412010Y4300560D02*
G01X-1416680Y4300560D01*
G01X-1416680Y4300560D02*
G01X-1421350Y4295890D01*
G01X-1421350Y4295890D02*
G01X-1421350Y4286550D01*
G01X-1421350Y4286550D02*
G01X-1416680Y4281880D01*
G01X-1416680Y4281880D02*
G01X-1412010Y4281880D01*
G01X-1412010Y4281880D02*
G01X-1407340Y4286550D01*
G01X-1407340Y4286550D02*
G01X-1407340Y4295890D01*
G01X-1407340Y4295890D02*
G01X-1412010Y4300560D01*
G01X-1407340Y4295890D02*
G01X-1402670Y4300560D01*
G01X-1402670Y4300560D02*
G01X-1398000Y4300560D01*
G01X-1398000Y4300560D02*
G01X-1393330Y4295890D01*
G01X-1393330Y4295890D02*
G01X-1393330Y4286550D01*
G01X-1393330Y4286550D02*
G01X-1398000Y4281880D01*
G01X-1398000Y4281880D02*
G01X-1402670Y4281880D01*
G01X-1402670Y4281880D02*
G01X-1407340Y4286550D01*
G01X-1421350Y4359490D02*
G01X-1393330Y4359490D01*
G01X-1342360Y4006290D02*
G01X-1333020Y4006290D01*
G01X-1333020Y4006290D02*
G01X-1328350Y4001620D01*
G01X-1317560Y4001620D02*
G01X-1312890Y4006290D01*
G01X-1312890Y4006290D02*
G01X-1303550Y4006290D01*
G01X-1303550Y4006290D02*
G01X-1298880Y4001620D01*
G01X-1298880Y4001620D02*
G01X-1298880Y3996950D01*
G01X-1298880Y3996950D02*
G01X-1303550Y3992280D01*
G01X-1303550Y3992280D02*
G01X-1312890Y3992280D01*
G01X-1312890Y3992280D02*
G01X-1317560Y3987610D01*
G01X-1317560Y3987610D02*
G01X-1317560Y3982940D01*
G01X-1317560Y3982940D02*
G01X-1312890Y3978270D01*
G01X-1312890Y3978270D02*
G01X-1303550Y3978270D01*
G01X-1303550Y3978270D02*
G01X-1298880Y3982940D01*
G01X-1288100Y3978270D02*
G01X-1288100Y4006290D01*
G01X-1288100Y4006290D02*
G01X-1269420Y4006290D01*
G01X-1278760Y3992280D02*
G01X-1288100Y3992280D01*
G01X-1288100Y3978270D02*
G01X-1269420Y3978270D01*
G01X-1328350Y3982940D02*
G01X-1333020Y3978270D01*
G01X-1333020Y3978270D02*
G01X-1342360Y3978270D01*
G01X-1342360Y3978270D02*
G01X-1347030Y3982940D01*
G01X-1347030Y3982940D02*
G01X-1347030Y4001620D01*
G01X-1347030Y4001620D02*
G01X-1342360Y4006290D01*
G01X-996330Y4159770D02*
G01X-996330Y4169110D01*
G01X-996330Y4169110D02*
G01X-991660Y4173780D01*
G01X-991660Y4173780D02*
G01X-968310Y4173780D01*
G01X-972980Y4184560D02*
G01X-968310Y4189230D01*
G01X-968310Y4189230D02*
G01X-968310Y4198570D01*
G01X-968310Y4198570D02*
G01X-972980Y4203240D01*
G01X-972980Y4203240D02*
G01X-977650Y4203240D01*
G01X-977650Y4203240D02*
G01X-996330Y4184560D01*
G01X-996330Y4184560D02*
G01X-996330Y4203240D01*
G01X-991660Y4214030D02*
G01X-986990Y4214030D01*
G01X-986990Y4214030D02*
G01X-982320Y4218700D01*
G01X-982320Y4218700D02*
G01X-982320Y4228040D01*
G01X-982320Y4228040D02*
G01X-986990Y4232710D01*
G01X-986990Y4232710D02*
G01X-991660Y4232710D01*
G01X-991660Y4232710D02*
G01X-996330Y4228040D01*
G01X-996330Y4228040D02*
G01X-996330Y4218700D01*
G01X-996330Y4218700D02*
G01X-991660Y4214030D01*
G01X-982320Y4218700D02*
G01X-977650Y4214030D01*
G01X-977650Y4214030D02*
G01X-972980Y4214030D01*
G01X-972980Y4214030D02*
G01X-968310Y4218700D01*
G01X-968310Y4218700D02*
G01X-968310Y4228040D01*
G01X-968310Y4228040D02*
G01X-972980Y4232710D01*
G01X-972980Y4232710D02*
G01X-977650Y4232710D01*
G01X-977650Y4232710D02*
G01X-982320Y4228040D01*
G01X-996330Y4159770D02*
G01X-991660Y4155100D01*
G01X-991660Y4155100D02*
G01X-968310Y4155100D01*
G01X-1876510Y4147180D02*
G01X-1876510Y4137840D01*
G01X-1876510Y4137840D02*
G01X-1881180Y4133170D01*
G01X-1881180Y4133170D02*
G01X-1885850Y4133170D01*
G01X-1885850Y4133170D02*
G01X-1890520Y4137840D01*
G01X-1890520Y4137840D02*
G01X-1890520Y4142510D01*
G01X-1890520Y4137840D02*
G01X-1895190Y4133170D01*
G01X-1895190Y4133170D02*
G01X-1899860Y4133170D01*
G01X-1899860Y4133170D02*
G01X-1904530Y4137840D01*
G01X-1904530Y4137840D02*
G01X-1904530Y4147180D01*
G01X-1904530Y4147180D02*
G01X-1899860Y4151850D01*
G01X-1904530Y4162630D02*
G01X-1881180Y4162630D01*
G01X-1881180Y4162630D02*
G01X-1876510Y4167300D01*
G01X-1876510Y4167300D02*
G01X-1876510Y4176640D01*
G01X-1876510Y4176640D02*
G01X-1881180Y4181310D01*
G01X-1881180Y4181310D02*
G01X-1904530Y4181310D01*
G01X-1881180Y4151850D02*
G01X-1876510Y4147180D01*
G01X-1881180Y4122380D02*
G01X-1899860Y4103700D01*
G01X-1899860Y4103700D02*
G01X-1881180Y4103700D01*
G01X-1881180Y4103700D02*
G01X-1876510Y4108370D01*
G01X-1876510Y4108370D02*
G01X-1876510Y4117710D01*
G01X-1876510Y4117710D02*
G01X-1881180Y4122380D01*
G01X-1881180Y4122380D02*
G01X-1899860Y4122380D01*
G01X-1899860Y4122380D02*
G01X-1904530Y4117710D01*
G01X-1904530Y4117710D02*
G01X-1904530Y4108370D01*
G01X-1904530Y4108370D02*
G01X-1899860Y4103700D01*
G01X-2143330Y4288780D02*
G01X-2171350Y4288780D01*
G01X-2171350Y4288780D02*
G01X-2157340Y4302790D01*
G01X-2157340Y4302790D02*
G01X-2157340Y4284110D01*
G01X-2148000Y4313580D02*
G01X-2143330Y4318250D01*
G01X-2143330Y4318250D02*
G01X-2143330Y4327590D01*
G01X-2143330Y4327590D02*
G01X-2148000Y4332260D01*
G01X-2148000Y4332260D02*
G01X-2166680Y4332260D01*
G01X-2166680Y4332260D02*
G01X-2171350Y4327590D01*
G01X-2171350Y4327590D02*
G01X-2171350Y4318250D01*
G01X-2171350Y4318250D02*
G01X-2166680Y4313580D01*
G01X-2293330Y4318250D02*
G01X-2298000Y4313580D01*
G01X-2293330Y4318250D02*
G01X-2293330Y4327590D01*
G01X-2293330Y4327590D02*
G01X-2298000Y4332260D01*
G01X-2298000Y4332260D02*
G01X-2316680Y4332260D01*
G01X-2316680Y4332260D02*
G01X-2321350Y4327590D01*
G01X-2321350Y4327590D02*
G01X-2321350Y4318250D01*
G01X-2321350Y4318250D02*
G01X-2316680Y4313580D01*
G01X-2316680Y4302790D02*
G01X-2321350Y4298120D01*
G01X-2321350Y4298120D02*
G01X-2321350Y4288780D01*
G01X-2321350Y4288780D02*
G01X-2316680Y4284110D01*
G01X-2316680Y4284110D02*
G01X-2312010Y4284110D01*
G01X-2312010Y4284110D02*
G01X-2293330Y4302790D01*
G01X-2293330Y4302790D02*
G01X-2293330Y4284110D01*
G01X-2443330Y4288780D02*
G01X-2448000Y4284110D01*
G01X-2448000Y4284110D02*
G01X-2466680Y4284110D01*
G01X-2466680Y4284110D02*
G01X-2471350Y4288780D01*
G01X-2471350Y4288780D02*
G01X-2471350Y4298120D01*
G01X-2471350Y4298120D02*
G01X-2466680Y4302790D01*
G01X-2466680Y4302790D02*
G01X-2462010Y4302790D01*
G01X-2462010Y4302790D02*
G01X-2457340Y4298120D01*
G01X-2457340Y4298120D02*
G01X-2457340Y4284110D01*
G01X-2443330Y4288780D02*
G01X-2443330Y4298120D01*
G01X-2443330Y4298120D02*
G01X-2448000Y4302790D01*
G01X-2448000Y4313580D02*
G01X-2443330Y4318250D01*
G01X-2443330Y4318250D02*
G01X-2443330Y4327590D01*
G01X-2443330Y4327590D02*
G01X-2448000Y4332260D01*
G01X-2448000Y4332260D02*
G01X-2466680Y4332260D01*
G01X-2466680Y4332260D02*
G01X-2471350Y4327590D01*
G01X-2471350Y4327590D02*
G01X-2471350Y4318250D01*
G01X-2471350Y4318250D02*
G01X-2466680Y4313580D01*
G01X-2593330Y4318250D02*
G01X-2598000Y4313580D01*
G01X-2593330Y4318250D02*
G01X-2593330Y4327590D01*
G01X-2593330Y4327590D02*
G01X-2598000Y4332260D01*
G01X-2598000Y4332260D02*
G01X-2616680Y4332260D01*
G01X-2616680Y4332260D02*
G01X-2621350Y4327590D01*
G01X-2621350Y4327590D02*
G01X-2621350Y4318250D01*
G01X-2621350Y4318250D02*
G01X-2616680Y4313580D01*
G01X-2621350Y4302790D02*
G01X-2621350Y4284110D01*
G01X-2621350Y4284110D02*
G01X-2616680Y4284110D01*
G01X-2616680Y4284110D02*
G01X-2598000Y4302790D01*
G01X-2598000Y4302790D02*
G01X-2593330Y4302790D01*
G01X-2249530Y3206290D02*
G01X-2249530Y3178270D01*
G01X-2249530Y3178270D02*
G01X-2235520Y3178270D01*
G01X-2235520Y3178270D02*
G01X-2230850Y3182940D01*
G01X-2230850Y3182940D02*
G01X-2230850Y3192280D01*
G01X-2230850Y3192280D02*
G01X-2235520Y3196950D01*
G01X-2235520Y3196950D02*
G01X-2249530Y3196950D01*
G01X-2240190Y3196950D02*
G01X-2230850Y3206290D01*
G01X-2220060Y3206290D02*
G01X-2220060Y3201620D01*
G01X-2220060Y3201620D02*
G01X-2201380Y3182940D01*
G01X-2201380Y3182940D02*
G01X-2201380Y3178270D01*
G01X-2201380Y3178270D02*
G01X-2220060Y3178270D01*
G01X-2190600Y3192280D02*
G01X-2171920Y3192280D01*
G01X-2176590Y3178270D02*
G01X-2190600Y3192280D01*
G01X-2176590Y3206290D02*
G01X-2176590Y3178270D01*
G01X-2331260Y1911620D02*
G01X-2331260Y1892940D01*
G01X-2340600Y1902280D02*
G01X-2321920Y1902280D01*
G01X-2351380Y1902280D02*
G01X-2356050Y1906950D01*
G01X-2356050Y1906950D02*
G01X-2370060Y1906950D01*
G01X-2370060Y1916290D02*
G01X-2370060Y1888270D01*
G01X-2370060Y1888270D02*
G01X-2356050Y1888270D01*
G01X-2356050Y1888270D02*
G01X-2351380Y1892940D01*
G01X-2351380Y1892940D02*
G01X-2351380Y1902280D01*
G01X-2380850Y1906950D02*
G01X-2380850Y1888270D01*
G01X-2399530Y1888270D02*
G01X-2399530Y1906950D01*
G01X-2399530Y1906950D02*
G01X-2390190Y1916290D01*
G01X-2390190Y1916290D02*
G01X-2380850Y1906950D01*
G01X-2409420Y1777280D02*
G01X-2428100Y1777280D01*
G01X-2438880Y1777280D02*
G01X-2443550Y1781950D01*
G01X-2443550Y1781950D02*
G01X-2457560Y1781950D01*
G01X-2457560Y1791290D02*
G01X-2457560Y1763270D01*
G01X-2457560Y1763270D02*
G01X-2443550Y1763270D01*
G01X-2443550Y1763270D02*
G01X-2438880Y1767940D01*
G01X-2438880Y1767940D02*
G01X-2438880Y1777280D01*
G01X-2468350Y1781950D02*
G01X-2468350Y1763270D01*
G01X-2487030Y1763270D02*
G01X-2487030Y1781950D01*
G01X-2487030Y1781950D02*
G01X-2477690Y1791290D01*
G01X-2477690Y1791290D02*
G01X-2468350Y1781950D01*
G01X-2661330Y1230210D02*
G01X-2661330Y1211530D01*
G01X-2661330Y1220870D02*
G01X-2633310Y1220870D01*
G01X-2633310Y1220870D02*
G01X-2642650Y1211530D01*
G01X-2651990Y1200740D02*
G01X-2647320Y1196070D01*
G01X-2647320Y1196070D02*
G01X-2647320Y1182060D01*
G01X-2647320Y1182060D02*
G01X-2656660Y1182060D01*
G01X-2656660Y1182060D02*
G01X-2661330Y1186730D01*
G01X-2661330Y1186730D02*
G01X-2661330Y1196070D01*
G01X-2661330Y1196070D02*
G01X-2656660Y1200740D01*
G01X-2656660Y1200740D02*
G01X-2651990Y1200740D01*
G01X-2637980Y1191400D02*
G01X-2647320Y1182060D01*
G01X-2647320Y1171280D02*
G01X-2651990Y1166610D01*
G01X-2651990Y1166610D02*
G01X-2651990Y1152600D01*
G01X-2651990Y1161940D02*
G01X-2661330Y1171280D01*
G01X-2647320Y1171280D02*
G01X-2637980Y1171280D01*
G01X-2637980Y1171280D02*
G01X-2633310Y1166610D01*
G01X-2633310Y1166610D02*
G01X-2633310Y1152600D01*
G01X-2633310Y1152600D02*
G01X-2661330Y1152600D01*
G01X-2661330Y1130210D02*
G01X-2661330Y1111530D01*
G01X-2661330Y1111530D02*
G01X-2642650Y1130210D01*
G01X-2642650Y1130210D02*
G01X-2637980Y1130210D01*
G01X-2637980Y1130210D02*
G01X-2633310Y1125540D01*
G01X-2633310Y1125540D02*
G01X-2633310Y1116200D01*
G01X-2633310Y1116200D02*
G01X-2637980Y1111530D01*
G01X-2633310Y1100740D02*
G01X-2637980Y1091400D01*
G01X-2637980Y1091400D02*
G01X-2647320Y1082060D01*
G01X-2647320Y1082060D02*
G01X-2647320Y1096070D01*
G01X-2647320Y1096070D02*
G01X-2651990Y1100740D01*
G01X-2651990Y1100740D02*
G01X-2656660Y1100740D01*
G01X-2656660Y1100740D02*
G01X-2661330Y1096070D01*
G01X-2661330Y1096070D02*
G01X-2661330Y1086730D01*
G01X-2661330Y1086730D02*
G01X-2656660Y1082060D01*
G01X-2656660Y1082060D02*
G01X-2647320Y1082060D01*
G01X-2647320Y1071280D02*
G01X-2651990Y1066610D01*
G01X-2651990Y1066610D02*
G01X-2651990Y1052600D01*
G01X-2651990Y1061940D02*
G01X-2661330Y1071280D01*
G01X-2647320Y1071280D02*
G01X-2637980Y1071280D01*
G01X-2637980Y1071280D02*
G01X-2633310Y1066610D01*
G01X-2633310Y1066610D02*
G01X-2633310Y1052600D01*
G01X-2633310Y1052600D02*
G01X-2661330Y1052600D01*
G01X-2637980Y1191400D02*
G01X-2633310Y1200740D01*
G01X-2297030Y1201620D02*
G01X-2297030Y1182940D01*
G01X-2297030Y1182940D02*
G01X-2292360Y1178270D01*
G01X-2292360Y1178270D02*
G01X-2283020Y1178270D01*
G01X-2283020Y1178270D02*
G01X-2278350Y1182940D01*
G01X-2267560Y1178270D02*
G01X-2248880Y1206290D01*
G01X-2248880Y1206290D02*
G01X-2248880Y1178270D01*
G01X-2238100Y1178270D02*
G01X-2238100Y1206290D01*
G01X-2238100Y1206290D02*
G01X-2228760Y1196950D01*
G01X-2228760Y1196950D02*
G01X-2219420Y1206290D01*
G01X-2219420Y1206290D02*
G01X-2219420Y1178270D01*
G01X-2267560Y1178270D02*
G01X-2267560Y1206290D01*
G01X-2278350Y1201620D02*
G01X-2283020Y1206290D01*
G01X-2283020Y1206290D02*
G01X-2292360Y1206290D01*
G01X-2292360Y1206290D02*
G01X-2297030Y1201620D01*
G01X-938830Y1196070D02*
G01X-938830Y1186730D01*
G01X-938830Y1186730D02*
G01X-934160Y1182060D01*
G01X-924820Y1182060D02*
G01X-920150Y1191400D01*
G01X-920150Y1191400D02*
G01X-920150Y1196070D01*
G01X-920150Y1196070D02*
G01X-924820Y1200740D01*
G01X-924820Y1200740D02*
G01X-934160Y1200740D01*
G01X-934160Y1200740D02*
G01X-938830Y1196070D01*
G01X-934160Y1211530D02*
G01X-938830Y1216200D01*
G01X-938830Y1216200D02*
G01X-938830Y1225540D01*
G01X-938830Y1225540D02*
G01X-934160Y1230210D01*
G01X-934160Y1230210D02*
G01X-929490Y1230210D01*
G01X-929490Y1230210D02*
G01X-924820Y1225540D01*
G01X-924820Y1225540D02*
G01X-924820Y1211530D01*
G01X-924820Y1211530D02*
G01X-934160Y1211530D01*
G01X-924820Y1211530D02*
G01X-915480Y1220870D01*
G01X-915480Y1220870D02*
G01X-910810Y1230210D01*
G01X-910810Y1200740D02*
G01X-910810Y1182060D01*
G01X-910810Y1182060D02*
G01X-924820Y1182060D01*
G01X-924820Y1171280D02*
G01X-929490Y1166610D01*
G01X-929490Y1166610D02*
G01X-929490Y1152600D01*
G01X-929490Y1161940D02*
G01X-938830Y1171280D01*
G01X-924820Y1171280D02*
G01X-915480Y1171280D01*
G01X-915480Y1171280D02*
G01X-910810Y1166610D01*
G01X-910810Y1166610D02*
G01X-910810Y1152600D01*
G01X-910810Y1152600D02*
G01X-938830Y1152600D01*
G01X-934160Y1130210D02*
G01X-938830Y1125540D01*
G01X-938830Y1125540D02*
G01X-938830Y1116200D01*
G01X-938830Y1116200D02*
G01X-934160Y1111530D01*
G01X-924820Y1111530D02*
G01X-920150Y1120870D01*
G01X-920150Y1120870D02*
G01X-920150Y1125540D01*
G01X-920150Y1125540D02*
G01X-924820Y1130210D01*
G01X-924820Y1130210D02*
G01X-934160Y1130210D01*
G01X-924820Y1111530D02*
G01X-910810Y1111530D01*
G01X-910810Y1111530D02*
G01X-910810Y1130210D01*
G01X-910810Y1100740D02*
G01X-910810Y1082060D01*
G01X-910810Y1082060D02*
G01X-924820Y1082060D01*
G01X-924820Y1082060D02*
G01X-920150Y1091400D01*
G01X-920150Y1091400D02*
G01X-920150Y1096070D01*
G01X-920150Y1096070D02*
G01X-924820Y1100740D01*
G01X-924820Y1100740D02*
G01X-934160Y1100740D01*
G01X-934160Y1100740D02*
G01X-938830Y1096070D01*
G01X-938830Y1096070D02*
G01X-938830Y1086730D01*
G01X-938830Y1086730D02*
G01X-934160Y1082060D01*
G01X-938830Y1071280D02*
G01X-929490Y1061940D01*
G01X-929490Y1066610D02*
G01X-929490Y1052600D01*
G01X-938830Y1052600D02*
G01X-910810Y1052600D01*
G01X-910810Y1052600D02*
G01X-910810Y1066610D01*
G01X-910810Y1066610D02*
G01X-915480Y1071280D01*
G01X-915480Y1071280D02*
G01X-924820Y1071280D01*
G01X-924820Y1071280D02*
G01X-929490Y1066610D01*
G54D19*
G01X-896830Y0973860D02*
G01X-900330Y0970350D01*
G01X-900330Y0970350D02*
G01X-900330Y0963350D01*
G01X-900330Y0963350D02*
G01X-896830Y0959840D01*
G01X-896830Y0951760D02*
G01X-900330Y0948250D01*
G01X-900330Y0948250D02*
G01X-900330Y0941250D01*
G01X-900330Y0941250D02*
G01X-896830Y0937740D01*
G01X-896830Y0937740D02*
G01X-893320Y0937740D01*
G01X-893320Y0937740D02*
G01X-889820Y0941250D01*
G01X-889820Y0941250D02*
G01X-889820Y0948250D01*
G01X-889820Y0948250D02*
G01X-893320Y0951760D01*
G01X-893320Y0951760D02*
G01X-896830Y0951760D01*
G01X-889820Y0948250D02*
G01X-886320Y0951760D01*
G01X-886320Y0951760D02*
G01X-882820Y0951760D01*
G01X-882820Y0951760D02*
G01X-879310Y0948250D01*
G01X-879310Y0948250D02*
G01X-879310Y0941250D01*
G01X-879310Y0941250D02*
G01X-882820Y0937740D01*
G01X-882820Y0937740D02*
G01X-886320Y0937740D01*
G01X-886320Y0937740D02*
G01X-889820Y0941250D01*
G01X-889820Y0929660D02*
G01X-893320Y0926150D01*
G01X-893320Y0926150D02*
G01X-893320Y0915650D01*
G01X-893320Y0922650D02*
G01X-900330Y0929660D01*
G01X-889820Y0929660D02*
G01X-882820Y0929660D01*
G01X-882820Y0929660D02*
G01X-879310Y0926150D01*
G01X-879310Y0926150D02*
G01X-879310Y0915650D01*
G01X-879310Y0915650D02*
G01X-900330Y0915650D01*
G01X-882820Y0959840D02*
G01X-879310Y0963350D01*
G01X-879310Y0963350D02*
G01X-879310Y0970350D01*
G01X-879310Y0970350D02*
G01X-882820Y0973860D01*
G01X-882820Y0973860D02*
G01X-886320Y0973860D01*
G01X-886320Y0973860D02*
G01X-889820Y0970350D01*
G01X-889820Y0970350D02*
G01X-893320Y0973860D01*
G01X-893320Y0973860D02*
G01X-896830Y0973860D01*
G01X-889820Y0970350D02*
G01X-889820Y0966850D01*
G01X-1119270Y1339280D02*
G01X-1126280Y1339280D01*
G01X-1126280Y1339280D02*
G01X-1129780Y1342780D01*
G01X-1129780Y1342780D02*
G01X-1129780Y1346280D01*
G01X-1129780Y1346280D02*
G01X-1126280Y1349780D01*
G01X-1126280Y1349780D02*
G01X-1115770Y1349780D01*
G01X-1115770Y1342780D02*
G01X-1115770Y1356790D01*
G01X-1115770Y1356790D02*
G01X-1119270Y1360290D01*
G01X-1119270Y1360290D02*
G01X-1126280Y1360290D01*
G01X-1126280Y1360290D02*
G01X-1129780Y1356790D01*
G01X-1137870Y1360290D02*
G01X-1151880Y1360290D01*
G01X-1151880Y1360290D02*
G01X-1137870Y1346280D01*
G01X-1137870Y1346280D02*
G01X-1137870Y1342780D01*
G01X-1137870Y1342780D02*
G01X-1141370Y1339280D01*
G01X-1141370Y1339280D02*
G01X-1148380Y1339280D01*
G01X-1148380Y1339280D02*
G01X-1151880Y1342780D01*
G01X-1159970Y1342780D02*
G01X-1163470Y1339280D01*
G01X-1163470Y1339280D02*
G01X-1170480Y1339280D01*
G01X-1170480Y1339280D02*
G01X-1173980Y1342780D01*
G01X-1173980Y1342780D02*
G01X-1173980Y1356790D01*
G01X-1173980Y1356790D02*
G01X-1170480Y1360290D01*
G01X-1170480Y1360290D02*
G01X-1163470Y1360290D01*
G01X-1163470Y1360290D02*
G01X-1159970Y1356790D01*
G01X-1163470Y1374280D02*
G01X-1170480Y1374280D01*
G01X-1170480Y1374280D02*
G01X-1173980Y1377780D01*
G01X-1173980Y1377780D02*
G01X-1173980Y1391790D01*
G01X-1173980Y1391790D02*
G01X-1170480Y1395290D01*
G01X-1170480Y1395290D02*
G01X-1163470Y1395290D01*
G01X-1163470Y1395290D02*
G01X-1159970Y1391790D01*
G01X-1151880Y1395290D02*
G01X-1137870Y1381280D01*
G01X-1137870Y1381280D02*
G01X-1137870Y1377780D01*
G01X-1137870Y1377780D02*
G01X-1141370Y1374280D01*
G01X-1141370Y1374280D02*
G01X-1148380Y1374280D01*
G01X-1148380Y1374280D02*
G01X-1151880Y1377780D01*
G01X-1159970Y1377780D02*
G01X-1163470Y1374280D01*
G01X-1151880Y1395290D02*
G01X-1137870Y1395290D01*
G01X-1129780Y1391790D02*
G01X-1129780Y1388290D01*
G01X-1129780Y1388290D02*
G01X-1126280Y1384780D01*
G01X-1126280Y1384780D02*
G01X-1119270Y1384780D01*
G01X-1119270Y1384780D02*
G01X-1115770Y1388290D01*
G01X-1115770Y1388290D02*
G01X-1115770Y1391790D01*
G01X-1115770Y1391790D02*
G01X-1119270Y1395290D01*
G01X-1119270Y1395290D02*
G01X-1126280Y1395290D01*
G01X-1126280Y1395290D02*
G01X-1129780Y1391790D01*
G01X-1126280Y1384780D02*
G01X-1129780Y1381280D01*
G01X-1129780Y1381280D02*
G01X-1129780Y1377780D01*
G01X-1129780Y1377780D02*
G01X-1126280Y1374280D01*
G01X-1126280Y1374280D02*
G01X-1119270Y1374280D01*
G01X-1119270Y1374280D02*
G01X-1115770Y1377780D01*
G01X-1115770Y1377780D02*
G01X-1115770Y1381280D01*
G01X-1115770Y1381280D02*
G01X-1119270Y1384780D01*
G01X-1115770Y1342780D02*
G01X-1119270Y1339280D01*
G01X-1290770Y1339280D02*
G01X-1297780Y1342780D01*
G01X-1297780Y1342780D02*
G01X-1304780Y1349780D01*
G01X-1304780Y1349780D02*
G01X-1294270Y1349780D01*
G01X-1294270Y1349780D02*
G01X-1290770Y1353290D01*
G01X-1290770Y1353290D02*
G01X-1290770Y1356790D01*
G01X-1290770Y1356790D02*
G01X-1294270Y1360290D01*
G01X-1294270Y1360290D02*
G01X-1301280Y1360290D01*
G01X-1301280Y1360290D02*
G01X-1304780Y1356790D01*
G01X-1304780Y1356790D02*
G01X-1304780Y1349780D01*
G01X-1312870Y1346280D02*
G01X-1326880Y1360290D01*
G01X-1326880Y1360290D02*
G01X-1312870Y1360290D01*
G01X-1312870Y1346280D02*
G01X-1312870Y1342780D01*
G01X-1312870Y1342780D02*
G01X-1316370Y1339280D01*
G01X-1316370Y1339280D02*
G01X-1323380Y1339280D01*
G01X-1323380Y1339280D02*
G01X-1326880Y1342780D01*
G01X-1334970Y1342780D02*
G01X-1338470Y1339280D01*
G01X-1338470Y1339280D02*
G01X-1345480Y1339280D01*
G01X-1345480Y1339280D02*
G01X-1348980Y1342780D01*
G01X-1348980Y1342780D02*
G01X-1348980Y1356790D01*
G01X-1348980Y1356790D02*
G01X-1345480Y1360290D01*
G01X-1345480Y1360290D02*
G01X-1338470Y1360290D01*
G01X-1338470Y1360290D02*
G01X-1334970Y1356790D01*
G01X-1338470Y1374280D02*
G01X-1345480Y1374280D01*
G01X-1345480Y1374280D02*
G01X-1348980Y1377780D01*
G01X-1348980Y1377780D02*
G01X-1348980Y1391790D01*
G01X-1348980Y1391790D02*
G01X-1345480Y1395290D01*
G01X-1345480Y1395290D02*
G01X-1338470Y1395290D01*
G01X-1338470Y1395290D02*
G01X-1334970Y1391790D01*
G01X-1326880Y1395290D02*
G01X-1312870Y1381280D01*
G01X-1312870Y1381280D02*
G01X-1312870Y1377780D01*
G01X-1312870Y1377780D02*
G01X-1316370Y1374280D01*
G01X-1316370Y1374280D02*
G01X-1323380Y1374280D01*
G01X-1323380Y1374280D02*
G01X-1326880Y1377780D01*
G01X-1334970Y1377780D02*
G01X-1338470Y1374280D01*
G01X-1326880Y1395290D02*
G01X-1312870Y1395290D01*
G01X-1304780Y1391790D02*
G01X-1301280Y1395290D01*
G01X-1301280Y1395290D02*
G01X-1294270Y1395290D01*
G01X-1294270Y1395290D02*
G01X-1290770Y1391790D01*
G01X-1290770Y1391790D02*
G01X-1290770Y1384780D01*
G01X-1290770Y1384780D02*
G01X-1294270Y1381280D01*
G01X-1294270Y1381280D02*
G01X-1297780Y1381280D01*
G01X-1297780Y1381280D02*
G01X-1304780Y1384780D01*
G01X-1304780Y1384780D02*
G01X-1304780Y1374280D01*
G01X-1304780Y1374280D02*
G01X-1290770Y1374280D01*
G01X-1446810Y1375750D02*
G01X-1450320Y1379260D01*
G01X-1450320Y1379260D02*
G01X-1453820Y1379260D01*
G01X-1453820Y1379260D02*
G01X-1457320Y1375750D01*
G01X-1457320Y1375750D02*
G01X-1457320Y1368750D01*
G01X-1457320Y1368750D02*
G01X-1453820Y1365240D01*
G01X-1453820Y1365240D02*
G01X-1450320Y1365240D01*
G01X-1450320Y1365240D02*
G01X-1446810Y1368750D01*
G01X-1446810Y1368750D02*
G01X-1446810Y1375750D01*
G01X-1457320Y1375750D02*
G01X-1460820Y1379260D01*
G01X-1460820Y1379260D02*
G01X-1464330Y1379260D01*
G01X-1464330Y1379260D02*
G01X-1467830Y1375750D01*
G01X-1467830Y1375750D02*
G01X-1467830Y1368750D01*
G01X-1467830Y1368750D02*
G01X-1464330Y1365240D01*
G01X-1464330Y1365240D02*
G01X-1460820Y1365240D01*
G01X-1460820Y1365240D02*
G01X-1457320Y1368750D01*
G01X-1450320Y1357160D02*
G01X-1446810Y1353650D01*
G01X-1446810Y1353650D02*
G01X-1446810Y1346650D01*
G01X-1446810Y1346650D02*
G01X-1450320Y1343150D01*
G01X-1450320Y1343150D02*
G01X-1464330Y1343150D01*
G01X-1464330Y1343150D02*
G01X-1467830Y1346650D01*
G01X-1467830Y1346650D02*
G01X-1467830Y1353650D01*
G01X-1467830Y1353650D02*
G01X-1464330Y1357160D01*
G01X-1464330Y1387340D02*
G01X-1467830Y1387340D01*
G01X-1464330Y1387340D02*
G01X-1450320Y1401360D01*
G01X-1450320Y1401360D02*
G01X-1446810Y1401360D01*
G01X-1446810Y1401360D02*
G01X-1446810Y1387340D01*
G01X-1609310Y1375750D02*
G01X-1612820Y1379260D01*
G01X-1612820Y1379260D02*
G01X-1616320Y1379260D01*
G01X-1616320Y1379260D02*
G01X-1619820Y1375750D01*
G01X-1619820Y1375750D02*
G01X-1619820Y1368750D01*
G01X-1619820Y1368750D02*
G01X-1616320Y1365240D01*
G01X-1616320Y1365240D02*
G01X-1612820Y1365240D01*
G01X-1612820Y1365240D02*
G01X-1609310Y1368750D01*
G01X-1609310Y1368750D02*
G01X-1609310Y1375750D01*
G01X-1619820Y1375750D02*
G01X-1623320Y1379260D01*
G01X-1623320Y1379260D02*
G01X-1626830Y1379260D01*
G01X-1626830Y1379260D02*
G01X-1630330Y1375750D01*
G01X-1630330Y1375750D02*
G01X-1630330Y1368750D01*
G01X-1630330Y1368750D02*
G01X-1626830Y1365240D01*
G01X-1626830Y1365240D02*
G01X-1623320Y1365240D01*
G01X-1623320Y1365240D02*
G01X-1619820Y1368750D01*
G01X-1619820Y1357160D02*
G01X-1623320Y1353650D01*
G01X-1623320Y1353650D02*
G01X-1623320Y1343150D01*
G01X-1623320Y1350150D02*
G01X-1630330Y1357160D01*
G01X-1619820Y1357160D02*
G01X-1612820Y1357160D01*
G01X-1612820Y1357160D02*
G01X-1609310Y1353650D01*
G01X-1609310Y1353650D02*
G01X-1609310Y1343150D01*
G01X-1609310Y1343150D02*
G01X-1630330Y1343150D01*
G01X-1646810Y1343150D02*
G01X-1646810Y1353650D01*
G01X-1646810Y1353650D02*
G01X-1650320Y1357160D01*
G01X-1650320Y1357160D02*
G01X-1657320Y1357160D01*
G01X-1657320Y1357160D02*
G01X-1660820Y1353650D01*
G01X-1660820Y1353650D02*
G01X-1660820Y1343150D01*
G01X-1660820Y1350150D02*
G01X-1667830Y1357160D01*
G01X-1664330Y1365240D02*
G01X-1660820Y1365240D01*
G01X-1660820Y1365240D02*
G01X-1657320Y1368750D01*
G01X-1657320Y1368750D02*
G01X-1657320Y1375750D01*
G01X-1657320Y1375750D02*
G01X-1660820Y1379260D01*
G01X-1660820Y1379260D02*
G01X-1664330Y1379260D01*
G01X-1664330Y1379260D02*
G01X-1667830Y1375750D01*
G01X-1667830Y1375750D02*
G01X-1667830Y1368750D01*
G01X-1667830Y1368750D02*
G01X-1664330Y1365240D01*
G01X-1657320Y1368750D02*
G01X-1653820Y1365240D01*
G01X-1653820Y1365240D02*
G01X-1650320Y1365240D01*
G01X-1650320Y1365240D02*
G01X-1646810Y1368750D01*
G01X-1646810Y1368750D02*
G01X-1646810Y1375750D01*
G01X-1646810Y1375750D02*
G01X-1650320Y1379260D01*
G01X-1650320Y1379260D02*
G01X-1653820Y1379260D01*
G01X-1653820Y1379260D02*
G01X-1657320Y1375750D01*
G01X-1664330Y1387340D02*
G01X-1667830Y1387340D01*
G01X-1664330Y1387340D02*
G01X-1650320Y1401360D01*
G01X-1650320Y1401360D02*
G01X-1646810Y1401360D01*
G01X-1646810Y1401360D02*
G01X-1646810Y1387340D01*
G01X-1630330Y1390850D02*
G01X-1630330Y1397850D01*
G01X-1630330Y1397850D02*
G01X-1626830Y1401360D01*
G01X-1626830Y1401360D02*
G01X-1623320Y1401360D01*
G01X-1623320Y1401360D02*
G01X-1619820Y1397850D01*
G01X-1619820Y1397850D02*
G01X-1619820Y1387340D01*
G01X-1619820Y1387340D02*
G01X-1626830Y1387340D01*
G01X-1626830Y1387340D02*
G01X-1630330Y1390850D01*
G01X-1619820Y1387340D02*
G01X-1612820Y1394350D01*
G01X-1612820Y1394350D02*
G01X-1609310Y1401360D01*
G01X-1646810Y1343150D02*
G01X-1667830Y1343150D01*
G01X-1854310Y1342850D02*
G01X-1857820Y1346360D01*
G01X-1857820Y1346360D02*
G01X-1871830Y1332340D01*
G01X-1871830Y1332340D02*
G01X-1875330Y1335850D01*
G01X-1875330Y1335850D02*
G01X-1875330Y1342850D01*
G01X-1875330Y1342850D02*
G01X-1871830Y1346360D01*
G01X-1871830Y1346360D02*
G01X-1857820Y1346360D01*
G01X-1854310Y1342850D02*
G01X-1854310Y1335850D01*
G01X-1854310Y1335850D02*
G01X-1857820Y1332340D01*
G01X-1857820Y1332340D02*
G01X-1871830Y1332340D01*
G01X-1871830Y1324260D02*
G01X-1857820Y1324260D01*
G01X-1857820Y1324260D02*
G01X-1854310Y1320750D01*
G01X-1854310Y1320750D02*
G01X-1854310Y1313750D01*
G01X-1854310Y1313750D02*
G01X-1857820Y1310240D01*
G01X-1857820Y1310240D02*
G01X-1861320Y1310240D01*
G01X-1861320Y1310240D02*
G01X-1864820Y1313750D01*
G01X-1864820Y1313750D02*
G01X-1864820Y1324260D01*
G01X-1871830Y1324260D02*
G01X-1875330Y1320750D01*
G01X-1875330Y1320750D02*
G01X-1875330Y1313750D01*
G01X-1875330Y1313750D02*
G01X-1871830Y1310240D01*
G01X-1875330Y1302160D02*
G01X-1868320Y1295150D01*
G01X-1868320Y1298650D02*
G01X-1868320Y1288150D01*
G01X-1875330Y1288150D02*
G01X-1854310Y1288150D01*
G01X-1854310Y1288150D02*
G01X-1854310Y1298650D01*
G01X-1854310Y1298650D02*
G01X-1857820Y1302160D01*
G01X-1857820Y1302160D02*
G01X-1864820Y1302160D01*
G01X-1864820Y1302160D02*
G01X-1868320Y1298650D01*
G01X-1930770Y1444280D02*
G01X-1930770Y1447780D01*
G01X-1930770Y1447780D02*
G01X-1944780Y1461790D01*
G01X-1944780Y1461790D02*
G01X-1944780Y1465290D01*
G01X-1952870Y1461790D02*
G01X-1952870Y1447780D01*
G01X-1952870Y1447780D02*
G01X-1956370Y1444280D01*
G01X-1956370Y1444280D02*
G01X-1963380Y1444280D01*
G01X-1963380Y1444280D02*
G01X-1966880Y1447780D01*
G01X-1966880Y1447780D02*
G01X-1966880Y1451280D01*
G01X-1966880Y1451280D02*
G01X-1963380Y1454780D01*
G01X-1963380Y1454780D02*
G01X-1952870Y1454780D01*
G01X-1952870Y1461790D02*
G01X-1956370Y1465290D01*
G01X-1956370Y1465290D02*
G01X-1963380Y1465290D01*
G01X-1963380Y1465290D02*
G01X-1966880Y1461790D01*
G01X-1974970Y1465290D02*
G01X-1981970Y1458290D01*
G01X-1978470Y1458290D02*
G01X-1988980Y1458290D01*
G01X-1988980Y1465290D02*
G01X-1988980Y1444280D01*
G01X-1988980Y1444280D02*
G01X-1978470Y1444280D01*
G01X-1978470Y1444280D02*
G01X-1974970Y1447780D01*
G01X-1974970Y1447780D02*
G01X-1974970Y1454780D01*
G01X-1974970Y1454780D02*
G01X-1978470Y1458290D01*
G01X-1944780Y1444280D02*
G01X-1930770Y1444280D01*
G01X-2025680Y1411810D02*
G01X-2025680Y1397800D01*
G01X-2025680Y1397800D02*
G01X-2029190Y1394290D01*
G01X-2029190Y1394290D02*
G01X-2036190Y1394290D01*
G01X-2036190Y1394290D02*
G01X-2039690Y1397800D01*
G01X-2047780Y1394290D02*
G01X-2061790Y1394290D01*
G01X-2054790Y1394290D02*
G01X-2054790Y1415310D01*
G01X-2054790Y1415310D02*
G01X-2047780Y1408310D01*
G01X-2039690Y1411810D02*
G01X-2036190Y1415310D01*
G01X-2036190Y1415310D02*
G01X-2029190Y1415310D01*
G01X-2029190Y1415310D02*
G01X-2025680Y1411810D01*
G01X-2069880Y1408310D02*
G01X-2076890Y1415310D01*
G01X-2076890Y1415310D02*
G01X-2076890Y1394290D01*
G01X-2083890Y1394290D02*
G01X-2069880Y1394290D01*
G01X-2057830Y1346360D02*
G01X-2057830Y1332340D01*
G01X-2057830Y1339350D02*
G01X-2036810Y1339350D01*
G01X-2036810Y1339350D02*
G01X-2043820Y1332340D01*
G01X-2047320Y1324260D02*
G01X-2047320Y1313750D01*
G01X-2047320Y1313750D02*
G01X-2043820Y1310240D01*
G01X-2043820Y1310240D02*
G01X-2040320Y1310240D01*
G01X-2040320Y1310240D02*
G01X-2036810Y1313750D01*
G01X-2036810Y1313750D02*
G01X-2036810Y1320750D01*
G01X-2036810Y1320750D02*
G01X-2040320Y1324260D01*
G01X-2040320Y1324260D02*
G01X-2054330Y1324260D01*
G01X-2054330Y1324260D02*
G01X-2057830Y1320750D01*
G01X-2057830Y1320750D02*
G01X-2057830Y1313750D01*
G01X-2057830Y1313750D02*
G01X-2054330Y1310240D01*
G01X-2057830Y1302160D02*
G01X-2050820Y1295150D01*
G01X-2050820Y1298650D02*
G01X-2050820Y1288150D01*
G01X-2057830Y1288150D02*
G01X-2036810Y1288150D01*
G01X-2036810Y1288150D02*
G01X-2036810Y1298650D01*
G01X-2036810Y1298650D02*
G01X-2040320Y1302160D01*
G01X-2040320Y1302160D02*
G01X-2047320Y1302160D01*
G01X-2047320Y1302160D02*
G01X-2050820Y1298650D01*
G01X-2109310Y1304260D02*
G01X-2109310Y1290240D01*
G01X-2112820Y1282160D02*
G01X-2109310Y1278650D01*
G01X-2109310Y1278650D02*
G01X-2109310Y1271650D01*
G01X-2109310Y1271650D02*
G01X-2112820Y1268150D01*
G01X-2112820Y1268150D02*
G01X-2126830Y1268150D01*
G01X-2126830Y1268150D02*
G01X-2130330Y1271650D01*
G01X-2130330Y1271650D02*
G01X-2130330Y1278650D01*
G01X-2130330Y1278650D02*
G01X-2126830Y1282160D01*
G01X-2126830Y1290240D02*
G01X-2130330Y1290240D01*
G01X-2126830Y1290240D02*
G01X-2112820Y1304260D01*
G01X-2112820Y1304260D02*
G01X-2109310Y1304260D01*
G01X-2112820Y1312340D02*
G01X-2116320Y1312340D01*
G01X-2116320Y1312340D02*
G01X-2119820Y1315850D01*
G01X-2119820Y1315850D02*
G01X-2119820Y1322850D01*
G01X-2119820Y1322850D02*
G01X-2123320Y1326360D01*
G01X-2123320Y1326360D02*
G01X-2126830Y1326360D01*
G01X-2126830Y1326360D02*
G01X-2130330Y1322850D01*
G01X-2130330Y1322850D02*
G01X-2130330Y1315850D01*
G01X-2130330Y1315850D02*
G01X-2126830Y1312340D01*
G01X-2126830Y1312340D02*
G01X-2123320Y1312340D01*
G01X-2123320Y1312340D02*
G01X-2119820Y1315850D01*
G01X-2119820Y1322850D02*
G01X-2116320Y1326360D01*
G01X-2116320Y1326360D02*
G01X-2112820Y1326360D01*
G01X-2112820Y1326360D02*
G01X-2109310Y1322850D01*
G01X-2109310Y1322850D02*
G01X-2109310Y1315850D01*
G01X-2109310Y1315850D02*
G01X-2112820Y1312340D01*
G01X-2146770Y1464280D02*
G01X-2143270Y1467780D01*
G01X-2143270Y1467780D02*
G01X-2143270Y1481790D01*
G01X-2143270Y1481790D02*
G01X-2146770Y1485290D01*
G01X-2146770Y1485290D02*
G01X-2153780Y1485290D01*
G01X-2153780Y1485290D02*
G01X-2157280Y1481790D01*
G01X-2153780Y1474780D02*
G01X-2143270Y1474780D01*
G01X-2153780Y1474780D02*
G01X-2157280Y1471280D01*
G01X-2157280Y1471280D02*
G01X-2157280Y1467780D01*
G01X-2157280Y1467780D02*
G01X-2153780Y1464280D01*
G01X-2153780Y1464280D02*
G01X-2146770Y1464280D01*
G01X-2165370Y1467780D02*
G01X-2168870Y1464280D01*
G01X-2168870Y1464280D02*
G01X-2175880Y1464280D01*
G01X-2175880Y1464280D02*
G01X-2179380Y1467780D01*
G01X-2179380Y1467780D02*
G01X-2179380Y1471280D01*
G01X-2179380Y1471280D02*
G01X-2175880Y1474780D01*
G01X-2175880Y1474780D02*
G01X-2165370Y1474780D01*
G01X-2165370Y1467780D02*
G01X-2165370Y1481790D01*
G01X-2165370Y1481790D02*
G01X-2168870Y1485290D01*
G01X-2168870Y1485290D02*
G01X-2175880Y1485290D01*
G01X-2175880Y1485290D02*
G01X-2179380Y1481790D01*
G01X-2187470Y1485290D02*
G01X-2194470Y1478290D01*
G01X-2190970Y1478290D02*
G01X-2201480Y1478290D01*
G01X-2201480Y1485290D02*
G01X-2201480Y1464280D01*
G01X-2201480Y1464280D02*
G01X-2190970Y1464280D01*
G01X-2190970Y1464280D02*
G01X-2187470Y1467780D01*
G01X-2187470Y1467780D02*
G01X-2187470Y1474780D01*
G01X-2187470Y1474780D02*
G01X-2190970Y1478290D01*
G01X-2183420Y1496780D02*
G01X-2183420Y1517790D01*
G01X-2176420Y1517790D02*
G01X-2190430Y1517790D01*
G01X-2198520Y1517790D02*
G01X-2205520Y1510790D01*
G01X-2202020Y1510790D02*
G01X-2212530Y1510790D01*
G01X-2212530Y1517790D02*
G01X-2212530Y1496780D01*
G01X-2212530Y1496780D02*
G01X-2202020Y1496780D01*
G01X-2202020Y1496780D02*
G01X-2198520Y1500280D01*
G01X-2198520Y1500280D02*
G01X-2198520Y1507280D01*
G01X-2198520Y1507280D02*
G01X-2202020Y1510790D01*
G01X-2190430Y1503780D02*
G01X-2183420Y1496780D01*
G01X-2168330Y1500280D02*
G01X-2164830Y1496780D01*
G01X-2164830Y1496780D02*
G01X-2157820Y1496780D01*
G01X-2157820Y1496780D02*
G01X-2154320Y1500280D01*
G01X-2154320Y1500280D02*
G01X-2168330Y1514290D01*
G01X-2168330Y1514290D02*
G01X-2164830Y1517790D01*
G01X-2164830Y1517790D02*
G01X-2157820Y1517790D01*
G01X-2157820Y1517790D02*
G01X-2154320Y1514290D01*
G01X-2154320Y1514290D02*
G01X-2154320Y1500280D01*
G01X-2146230Y1500280D02*
G01X-2142730Y1496780D01*
G01X-2142730Y1496780D02*
G01X-2135720Y1496780D01*
G01X-2135720Y1496780D02*
G01X-2132220Y1500280D01*
G01X-2132220Y1500280D02*
G01X-2146230Y1514290D01*
G01X-2146230Y1514290D02*
G01X-2142730Y1517790D01*
G01X-2142730Y1517790D02*
G01X-2135720Y1517790D01*
G01X-2135720Y1517790D02*
G01X-2132220Y1514290D01*
G01X-2132220Y1514290D02*
G01X-2132220Y1500280D01*
G01X-2146230Y1500280D02*
G01X-2146230Y1514290D01*
G01X-2168330Y1514290D02*
G01X-2168330Y1500280D01*
G01X-2112530Y1581780D02*
G01X-2102020Y1581780D01*
G01X-2102020Y1581780D02*
G01X-2098520Y1585280D01*
G01X-2098520Y1585280D02*
G01X-2098520Y1592280D01*
G01X-2098520Y1592280D02*
G01X-2102020Y1595790D01*
G01X-2102020Y1595790D02*
G01X-2112530Y1595790D01*
G01X-2112530Y1602790D02*
G01X-2112530Y1581780D01*
G01X-2105520Y1595790D02*
G01X-2098520Y1602790D01*
G01X-2090430Y1602790D02*
G01X-2076420Y1602790D01*
G01X-2083420Y1602790D02*
G01X-2083420Y1581780D01*
G01X-2083420Y1581780D02*
G01X-2090430Y1588780D01*
G01X-2068330Y1585280D02*
G01X-2064830Y1581780D01*
G01X-2064830Y1581780D02*
G01X-2057820Y1581780D01*
G01X-2057820Y1581780D02*
G01X-2054320Y1585280D01*
G01X-2054320Y1585280D02*
G01X-2068330Y1599290D01*
G01X-2068330Y1599290D02*
G01X-2064830Y1602790D01*
G01X-2064830Y1602790D02*
G01X-2057820Y1602790D01*
G01X-2057820Y1602790D02*
G01X-2054320Y1599290D01*
G01X-2054320Y1599290D02*
G01X-2054320Y1585280D01*
G01X-2046230Y1588780D02*
G01X-2039230Y1581780D01*
G01X-2039230Y1581780D02*
G01X-2039230Y1602790D01*
G01X-2046230Y1602790D02*
G01X-2032220Y1602790D01*
G01X-2068330Y1599290D02*
G01X-2068330Y1585280D01*
G01X-1988980Y1581780D02*
G01X-1978470Y1581780D01*
G01X-1978470Y1581780D02*
G01X-1974970Y1585280D01*
G01X-1974970Y1585280D02*
G01X-1974970Y1592280D01*
G01X-1974970Y1592280D02*
G01X-1978470Y1595790D01*
G01X-1978470Y1595790D02*
G01X-1988980Y1595790D01*
G01X-1988980Y1602790D02*
G01X-1988980Y1581780D01*
G01X-1981970Y1595790D02*
G01X-1974970Y1602790D01*
G01X-1966880Y1599290D02*
G01X-1963380Y1602790D01*
G01X-1963380Y1602790D02*
G01X-1956370Y1602790D01*
G01X-1956370Y1602790D02*
G01X-1952870Y1599290D01*
G01X-1952870Y1599290D02*
G01X-1952870Y1585280D01*
G01X-1952870Y1585280D02*
G01X-1956370Y1581780D01*
G01X-1956370Y1581780D02*
G01X-1963380Y1581780D01*
G01X-1963380Y1581780D02*
G01X-1966880Y1585280D01*
G01X-1966880Y1585280D02*
G01X-1966880Y1588780D01*
G01X-1966880Y1588780D02*
G01X-1963380Y1592280D01*
G01X-1963380Y1592280D02*
G01X-1952870Y1592280D01*
G01X-1944780Y1588780D02*
G01X-1944780Y1585280D01*
G01X-1944780Y1585280D02*
G01X-1941280Y1581780D01*
G01X-1941280Y1581780D02*
G01X-1934270Y1581780D01*
G01X-1934270Y1581780D02*
G01X-1930770Y1585280D01*
G01X-1930770Y1585280D02*
G01X-1930770Y1588780D01*
G01X-1930770Y1588780D02*
G01X-1934270Y1592280D01*
G01X-1934270Y1592280D02*
G01X-1941280Y1592280D01*
G01X-1941280Y1592280D02*
G01X-1944780Y1588780D01*
G01X-1941280Y1592280D02*
G01X-1944780Y1595790D01*
G01X-1944780Y1595790D02*
G01X-1944780Y1599290D01*
G01X-1944780Y1599290D02*
G01X-1941280Y1602790D01*
G01X-1941280Y1602790D02*
G01X-1934270Y1602790D01*
G01X-1934270Y1602790D02*
G01X-1930770Y1599290D01*
G01X-1930770Y1599290D02*
G01X-1930770Y1595790D01*
G01X-1930770Y1595790D02*
G01X-1934270Y1592280D01*
G01X-2084310Y1863150D02*
G01X-2084310Y1873650D01*
G01X-2084310Y1873650D02*
G01X-2087820Y1877160D01*
G01X-2087820Y1877160D02*
G01X-2094820Y1877160D01*
G01X-2094820Y1877160D02*
G01X-2098320Y1873650D01*
G01X-2098320Y1873650D02*
G01X-2098320Y1863150D01*
G01X-2098320Y1870150D02*
G01X-2105330Y1877160D01*
G01X-2105330Y1885240D02*
G01X-2101830Y1885240D01*
G01X-2101830Y1885240D02*
G01X-2087820Y1899260D01*
G01X-2087820Y1899260D02*
G01X-2084310Y1899260D01*
G01X-2084310Y1899260D02*
G01X-2084310Y1885240D01*
G01X-2084310Y1863150D02*
G01X-2105330Y1863150D01*
G01X-2101830Y1907340D02*
G01X-2105330Y1910850D01*
G01X-2105330Y1910850D02*
G01X-2105330Y1917850D01*
G01X-2105330Y1917850D02*
G01X-2101830Y1921360D01*
G01X-2101830Y1921360D02*
G01X-2087820Y1921360D01*
G01X-2087820Y1921360D02*
G01X-2084310Y1917850D01*
G01X-2084310Y1917850D02*
G01X-2084310Y1910850D01*
G01X-2084310Y1910850D02*
G01X-2087820Y1907340D01*
G01X-2087820Y1907340D02*
G01X-2091320Y1907340D01*
G01X-2091320Y1907340D02*
G01X-2094820Y1910850D01*
G01X-2094820Y1910850D02*
G01X-2094820Y1921360D01*
G01X-2184270Y2436780D02*
G01X-2180770Y2440280D01*
G01X-2180770Y2440280D02*
G01X-2180770Y2443780D01*
G01X-2180770Y2443780D02*
G01X-2184270Y2447280D01*
G01X-2184270Y2447280D02*
G01X-2180770Y2450790D01*
G01X-2180770Y2450790D02*
G01X-2180770Y2454290D01*
G01X-2180770Y2454290D02*
G01X-2184270Y2457790D01*
G01X-2184270Y2457790D02*
G01X-2191280Y2457790D01*
G01X-2191280Y2457790D02*
G01X-2194780Y2454290D01*
G01X-2187780Y2447280D02*
G01X-2184270Y2447280D01*
G01X-2184270Y2436780D02*
G01X-2191280Y2436780D01*
G01X-2191280Y2436780D02*
G01X-2194780Y2440280D01*
G01X-2202870Y2440280D02*
G01X-2216880Y2454290D01*
G01X-2216880Y2454290D02*
G01X-2216880Y2457790D01*
G01X-2224970Y2457790D02*
G01X-2231970Y2450790D01*
G01X-2228470Y2450790D02*
G01X-2238980Y2450790D01*
G01X-2238980Y2457790D02*
G01X-2238980Y2436780D01*
G01X-2238980Y2436780D02*
G01X-2228470Y2436780D01*
G01X-2228470Y2436780D02*
G01X-2224970Y2440280D01*
G01X-2224970Y2440280D02*
G01X-2224970Y2447280D01*
G01X-2224970Y2447280D02*
G01X-2228470Y2450790D01*
G01X-2216880Y2436780D02*
G01X-2202870Y2436780D01*
G01X-2202870Y2436780D02*
G01X-2202870Y2440280D01*
G01X-1921480Y2656780D02*
G01X-1910970Y2656780D01*
G01X-1910970Y2656780D02*
G01X-1907470Y2660280D01*
G01X-1907470Y2660280D02*
G01X-1907470Y2667280D01*
G01X-1907470Y2667280D02*
G01X-1910970Y2670790D01*
G01X-1910970Y2670790D02*
G01X-1921480Y2670790D01*
G01X-1921480Y2677790D02*
G01X-1921480Y2656780D01*
G01X-1914470Y2670790D02*
G01X-1907470Y2677790D01*
G01X-1899380Y2674290D02*
G01X-1899380Y2670790D01*
G01X-1899380Y2670790D02*
G01X-1895880Y2667280D01*
G01X-1895880Y2667280D02*
G01X-1888870Y2667280D01*
G01X-1888870Y2667280D02*
G01X-1885370Y2670790D01*
G01X-1885370Y2670790D02*
G01X-1885370Y2674290D01*
G01X-1885370Y2674290D02*
G01X-1888870Y2677790D01*
G01X-1888870Y2677790D02*
G01X-1895880Y2677790D01*
G01X-1895880Y2677790D02*
G01X-1899380Y2674290D01*
G01X-1895880Y2667280D02*
G01X-1899380Y2663780D01*
G01X-1899380Y2663780D02*
G01X-1899380Y2660280D01*
G01X-1899380Y2660280D02*
G01X-1895880Y2656780D01*
G01X-1895880Y2656780D02*
G01X-1888870Y2656780D01*
G01X-1888870Y2656780D02*
G01X-1885370Y2660280D01*
G01X-1885370Y2660280D02*
G01X-1885370Y2663780D01*
G01X-1885370Y2663780D02*
G01X-1888870Y2667280D01*
G01X-1877280Y2663780D02*
G01X-1877280Y2660280D01*
G01X-1877280Y2660280D02*
G01X-1873780Y2656780D01*
G01X-1873780Y2656780D02*
G01X-1866770Y2656780D01*
G01X-1866770Y2656780D02*
G01X-1863270Y2660280D01*
G01X-1863270Y2660280D02*
G01X-1863270Y2663780D01*
G01X-1863270Y2663780D02*
G01X-1866770Y2667280D01*
G01X-1866770Y2667280D02*
G01X-1873780Y2667280D01*
G01X-1873780Y2667280D02*
G01X-1877280Y2663780D01*
G01X-1873780Y2667280D02*
G01X-1877280Y2670790D01*
G01X-1877280Y2670790D02*
G01X-1877280Y2674290D01*
G01X-1877280Y2674290D02*
G01X-1873780Y2677790D01*
G01X-1873780Y2677790D02*
G01X-1866770Y2677790D01*
G01X-1866770Y2677790D02*
G01X-1863270Y2674290D01*
G01X-1863270Y2674290D02*
G01X-1863270Y2670790D01*
G01X-1863270Y2670790D02*
G01X-1866770Y2667280D01*
G01X-1867830Y2824600D02*
G01X-1846810Y2824600D01*
G01X-1846810Y2824600D02*
G01X-1846810Y2835110D01*
G01X-1846810Y2835110D02*
G01X-1850320Y2838610D01*
G01X-1850320Y2838610D02*
G01X-1857320Y2838610D01*
G01X-1857320Y2838610D02*
G01X-1860820Y2835110D01*
G01X-1860820Y2835110D02*
G01X-1860820Y2824600D01*
G01X-1860820Y2831600D02*
G01X-1867830Y2838610D01*
G01X-1867830Y2846700D02*
G01X-1867830Y2860710D01*
G01X-1867830Y2853700D02*
G01X-1846810Y2853700D01*
G01X-1846810Y2853700D02*
G01X-1853820Y2846700D01*
G01X-1850320Y2868790D02*
G01X-1846810Y2872300D01*
G01X-1846810Y2872300D02*
G01X-1846810Y2879300D01*
G01X-1846810Y2879300D02*
G01X-1850320Y2882810D01*
G01X-1850320Y2882810D02*
G01X-1864330Y2868790D01*
G01X-1864330Y2868790D02*
G01X-1867830Y2872300D01*
G01X-1867830Y2872300D02*
G01X-1867830Y2879300D01*
G01X-1867830Y2879300D02*
G01X-1864330Y2882810D01*
G01X-1864330Y2882810D02*
G01X-1850320Y2882810D01*
G01X-1850320Y2890890D02*
G01X-1853820Y2890890D01*
G01X-1853820Y2890890D02*
G01X-1857320Y2894400D01*
G01X-1857320Y2894400D02*
G01X-1857320Y2901400D01*
G01X-1857320Y2901400D02*
G01X-1860820Y2904900D01*
G01X-1860820Y2904900D02*
G01X-1864330Y2904900D01*
G01X-1864330Y2904900D02*
G01X-1867830Y2901400D01*
G01X-1867830Y2901400D02*
G01X-1867830Y2894400D01*
G01X-1867830Y2894400D02*
G01X-1864330Y2890890D01*
G01X-1864330Y2890890D02*
G01X-1860820Y2890890D01*
G01X-1860820Y2890890D02*
G01X-1857320Y2894400D01*
G01X-1857320Y2901400D02*
G01X-1853820Y2904900D01*
G01X-1853820Y2904900D02*
G01X-1850320Y2904900D01*
G01X-1850320Y2904900D02*
G01X-1846810Y2901400D01*
G01X-1846810Y2901400D02*
G01X-1846810Y2894400D01*
G01X-1846810Y2894400D02*
G01X-1850320Y2890890D01*
G01X-1850320Y2868790D02*
G01X-1864330Y2868790D01*
G01X-1755330Y2853390D02*
G01X-1751830Y2853390D01*
G01X-1751830Y2853390D02*
G01X-1737820Y2867400D01*
G01X-1737820Y2867400D02*
G01X-1734310Y2867400D01*
G01X-1734310Y2867400D02*
G01X-1734310Y2853390D01*
G01X-1737820Y2845310D02*
G01X-1751830Y2831290D01*
G01X-1751830Y2831290D02*
G01X-1755330Y2834800D01*
G01X-1755330Y2834800D02*
G01X-1755330Y2841800D01*
G01X-1755330Y2841800D02*
G01X-1751830Y2845310D01*
G01X-1751830Y2845310D02*
G01X-1737820Y2845310D01*
G01X-1737820Y2845310D02*
G01X-1734310Y2841800D01*
G01X-1734310Y2841800D02*
G01X-1734310Y2834800D01*
G01X-1734310Y2834800D02*
G01X-1737820Y2831290D01*
G01X-1737820Y2831290D02*
G01X-1751830Y2831290D01*
G01X-1755330Y2823210D02*
G01X-1755330Y2809200D01*
G01X-1755330Y2816200D02*
G01X-1734310Y2816200D01*
G01X-1734310Y2816200D02*
G01X-1741320Y2809200D01*
G01X-1744820Y2801110D02*
G01X-1748320Y2797610D01*
G01X-1748320Y2797610D02*
G01X-1748320Y2787100D01*
G01X-1748320Y2794100D02*
G01X-1755330Y2801110D01*
G01X-1744820Y2801110D02*
G01X-1737820Y2801110D01*
G01X-1737820Y2801110D02*
G01X-1734310Y2797610D01*
G01X-1734310Y2797610D02*
G01X-1734310Y2787100D01*
G01X-1734310Y2787100D02*
G01X-1755330Y2787100D01*
G01X-1692830Y2823150D02*
G01X-1671810Y2823150D01*
G01X-1671810Y2823150D02*
G01X-1671810Y2833650D01*
G01X-1671810Y2833650D02*
G01X-1675320Y2837160D01*
G01X-1675320Y2837160D02*
G01X-1682320Y2837160D01*
G01X-1682320Y2837160D02*
G01X-1685820Y2833650D01*
G01X-1685820Y2833650D02*
G01X-1685820Y2823150D01*
G01X-1685820Y2830150D02*
G01X-1692830Y2837160D01*
G01X-1689330Y2845240D02*
G01X-1692830Y2848750D01*
G01X-1692830Y2848750D02*
G01X-1692830Y2855750D01*
G01X-1692830Y2855750D02*
G01X-1689330Y2859260D01*
G01X-1689330Y2859260D02*
G01X-1675320Y2859260D01*
G01X-1675320Y2859260D02*
G01X-1671810Y2855750D01*
G01X-1671810Y2855750D02*
G01X-1671810Y2848750D01*
G01X-1671810Y2848750D02*
G01X-1675320Y2845240D01*
G01X-1675320Y2845240D02*
G01X-1678820Y2845240D01*
G01X-1678820Y2845240D02*
G01X-1682320Y2848750D01*
G01X-1682320Y2848750D02*
G01X-1682320Y2859260D01*
G01X-1675320Y2867340D02*
G01X-1671810Y2870850D01*
G01X-1671810Y2870850D02*
G01X-1671810Y2877850D01*
G01X-1671810Y2877850D02*
G01X-1675320Y2881360D01*
G01X-1675320Y2881360D02*
G01X-1678820Y2881360D01*
G01X-1678820Y2881360D02*
G01X-1692830Y2867340D01*
G01X-1692830Y2867340D02*
G01X-1692830Y2881360D01*
G01X-1721810Y2998150D02*
G01X-1721810Y3008650D01*
G01X-1721810Y3008650D02*
G01X-1725320Y3012160D01*
G01X-1725320Y3012160D02*
G01X-1732320Y3012160D01*
G01X-1732320Y3012160D02*
G01X-1735820Y3008650D01*
G01X-1735820Y3008650D02*
G01X-1735820Y2998150D01*
G01X-1735820Y3005150D02*
G01X-1742830Y3012160D01*
G01X-1739330Y3020240D02*
G01X-1742830Y3023750D01*
G01X-1742830Y3023750D02*
G01X-1742830Y3030750D01*
G01X-1742830Y3030750D02*
G01X-1739330Y3034260D01*
G01X-1739330Y3034260D02*
G01X-1725320Y3034260D01*
G01X-1725320Y3034260D02*
G01X-1721810Y3030750D01*
G01X-1721810Y3030750D02*
G01X-1721810Y3023750D01*
G01X-1721810Y3023750D02*
G01X-1725320Y3020240D01*
G01X-1725320Y3020240D02*
G01X-1728820Y3020240D01*
G01X-1728820Y3020240D02*
G01X-1732320Y3023750D01*
G01X-1732320Y3023750D02*
G01X-1732320Y3034260D01*
G01X-1725320Y3042340D02*
G01X-1721810Y3045850D01*
G01X-1721810Y3045850D02*
G01X-1721810Y3052850D01*
G01X-1721810Y3052850D02*
G01X-1725320Y3056360D01*
G01X-1725320Y3056360D02*
G01X-1728820Y3056360D01*
G01X-1728820Y3056360D02*
G01X-1732320Y3052850D01*
G01X-1732320Y3052850D02*
G01X-1735820Y3056360D01*
G01X-1735820Y3056360D02*
G01X-1739330Y3056360D01*
G01X-1739330Y3056360D02*
G01X-1742830Y3052850D01*
G01X-1742830Y3052850D02*
G01X-1742830Y3045850D01*
G01X-1742830Y3045850D02*
G01X-1739330Y3042340D01*
G01X-1732320Y3049350D02*
G01X-1732320Y3052850D01*
G01X-1771810Y3048150D02*
G01X-1771810Y3058650D01*
G01X-1771810Y3058650D02*
G01X-1775320Y3062160D01*
G01X-1775320Y3062160D02*
G01X-1782320Y3062160D01*
G01X-1782320Y3062160D02*
G01X-1785820Y3058650D01*
G01X-1785820Y3058650D02*
G01X-1785820Y3048150D01*
G01X-1785820Y3055150D02*
G01X-1792830Y3062160D01*
G01X-1789330Y3070240D02*
G01X-1792830Y3073750D01*
G01X-1792830Y3073750D02*
G01X-1792830Y3080750D01*
G01X-1792830Y3080750D02*
G01X-1789330Y3084260D01*
G01X-1789330Y3084260D02*
G01X-1775320Y3084260D01*
G01X-1775320Y3084260D02*
G01X-1771810Y3080750D01*
G01X-1771810Y3080750D02*
G01X-1771810Y3073750D01*
G01X-1771810Y3073750D02*
G01X-1775320Y3070240D01*
G01X-1775320Y3070240D02*
G01X-1778820Y3070240D01*
G01X-1778820Y3070240D02*
G01X-1782320Y3073750D01*
G01X-1782320Y3073750D02*
G01X-1782320Y3084260D01*
G01X-1782320Y3092340D02*
G01X-1782320Y3102850D01*
G01X-1782320Y3102850D02*
G01X-1785820Y3106360D01*
G01X-1785820Y3106360D02*
G01X-1789330Y3106360D01*
G01X-1789330Y3106360D02*
G01X-1792830Y3102850D01*
G01X-1792830Y3102850D02*
G01X-1792830Y3095850D01*
G01X-1792830Y3095850D02*
G01X-1789330Y3092340D01*
G01X-1789330Y3092340D02*
G01X-1782320Y3092340D01*
G01X-1782320Y3092340D02*
G01X-1775320Y3099350D01*
G01X-1775320Y3099350D02*
G01X-1771810Y3106360D01*
G01X-1809310Y3068860D02*
G01X-1809310Y3054840D01*
G01X-1809310Y3054840D02*
G01X-1819820Y3054840D01*
G01X-1819820Y3054840D02*
G01X-1816320Y3061850D01*
G01X-1816320Y3061850D02*
G01X-1816320Y3065350D01*
G01X-1816320Y3065350D02*
G01X-1819820Y3068860D01*
G01X-1819820Y3068860D02*
G01X-1826830Y3068860D01*
G01X-1826830Y3068860D02*
G01X-1830330Y3065350D01*
G01X-1830330Y3065350D02*
G01X-1830330Y3058350D01*
G01X-1830330Y3058350D02*
G01X-1826830Y3054840D01*
G01X-1826830Y3046760D02*
G01X-1812820Y3046760D01*
G01X-1812820Y3046760D02*
G01X-1809310Y3043250D01*
G01X-1809310Y3043250D02*
G01X-1809310Y3036250D01*
G01X-1809310Y3036250D02*
G01X-1812820Y3032740D01*
G01X-1812820Y3032740D02*
G01X-1816320Y3032740D01*
G01X-1816320Y3032740D02*
G01X-1819820Y3036250D01*
G01X-1819820Y3036250D02*
G01X-1819820Y3046760D01*
G01X-1826830Y3046760D02*
G01X-1830330Y3043250D01*
G01X-1830330Y3043250D02*
G01X-1830330Y3036250D01*
G01X-1830330Y3036250D02*
G01X-1826830Y3032740D01*
G01X-1830330Y3024660D02*
G01X-1823320Y3017650D01*
G01X-1823320Y3021150D02*
G01X-1823320Y3010650D01*
G01X-1830330Y3010650D02*
G01X-1809310Y3010650D01*
G01X-1809310Y3010650D02*
G01X-1809310Y3021150D01*
G01X-1809310Y3021150D02*
G01X-1812820Y3024660D01*
G01X-1812820Y3024660D02*
G01X-1819820Y3024660D01*
G01X-1819820Y3024660D02*
G01X-1823320Y3021150D01*
G01X-1792830Y3048150D02*
G01X-1771810Y3048150D01*
G01X-1742830Y2998150D02*
G01X-1721810Y2998150D01*
G01X-1701480Y2677790D02*
G01X-1701480Y2656780D01*
G01X-1701480Y2656780D02*
G01X-1690970Y2656780D01*
G01X-1690970Y2656780D02*
G01X-1687470Y2660280D01*
G01X-1687470Y2660280D02*
G01X-1687470Y2667280D01*
G01X-1687470Y2667280D02*
G01X-1690970Y2670790D01*
G01X-1690970Y2670790D02*
G01X-1701480Y2670790D01*
G01X-1694470Y2670790D02*
G01X-1687470Y2677790D01*
G01X-1679380Y2674290D02*
G01X-1679380Y2670790D01*
G01X-1679380Y2670790D02*
G01X-1675880Y2667280D01*
G01X-1675880Y2667280D02*
G01X-1668870Y2667280D01*
G01X-1668870Y2667280D02*
G01X-1665370Y2670790D01*
G01X-1665370Y2670790D02*
G01X-1665370Y2674290D01*
G01X-1665370Y2674290D02*
G01X-1668870Y2677790D01*
G01X-1668870Y2677790D02*
G01X-1675880Y2677790D01*
G01X-1675880Y2677790D02*
G01X-1679380Y2674290D01*
G01X-1675880Y2667280D02*
G01X-1679380Y2663780D01*
G01X-1679380Y2663780D02*
G01X-1679380Y2660280D01*
G01X-1679380Y2660280D02*
G01X-1675880Y2656780D01*
G01X-1675880Y2656780D02*
G01X-1668870Y2656780D01*
G01X-1668870Y2656780D02*
G01X-1665370Y2660280D01*
G01X-1665370Y2660280D02*
G01X-1665370Y2663780D01*
G01X-1665370Y2663780D02*
G01X-1668870Y2667280D01*
G01X-1657280Y2663780D02*
G01X-1653780Y2667280D01*
G01X-1653780Y2667280D02*
G01X-1643270Y2667280D01*
G01X-1643270Y2660280D02*
G01X-1646770Y2656780D01*
G01X-1646770Y2656780D02*
G01X-1653780Y2656780D01*
G01X-1653780Y2656780D02*
G01X-1657280Y2660280D01*
G01X-1657280Y2660280D02*
G01X-1657280Y2663780D01*
G01X-1657280Y2674290D02*
G01X-1653780Y2677790D01*
G01X-1653780Y2677790D02*
G01X-1646770Y2677790D01*
G01X-1646770Y2677790D02*
G01X-1643270Y2674290D01*
G01X-1643270Y2674290D02*
G01X-1643270Y2660280D01*
G01X-1388980Y2731780D02*
G01X-1378470Y2731780D01*
G01X-1378470Y2731780D02*
G01X-1374970Y2735280D01*
G01X-1374970Y2735280D02*
G01X-1374970Y2742280D01*
G01X-1374970Y2742280D02*
G01X-1378470Y2745790D01*
G01X-1378470Y2745790D02*
G01X-1388980Y2745790D01*
G01X-1388980Y2752790D02*
G01X-1388980Y2731780D01*
G01X-1381970Y2745790D02*
G01X-1374970Y2752790D01*
G01X-1366880Y2752790D02*
G01X-1366880Y2749290D01*
G01X-1366880Y2749290D02*
G01X-1352870Y2735280D01*
G01X-1352870Y2735280D02*
G01X-1352870Y2731780D01*
G01X-1352870Y2731780D02*
G01X-1366880Y2731780D01*
G01X-1344780Y2742280D02*
G01X-1334270Y2742280D01*
G01X-1334270Y2742280D02*
G01X-1330770Y2745790D01*
G01X-1330770Y2745790D02*
G01X-1330770Y2749290D01*
G01X-1330770Y2749290D02*
G01X-1334270Y2752790D01*
G01X-1334270Y2752790D02*
G01X-1341280Y2752790D01*
G01X-1341280Y2752790D02*
G01X-1344780Y2749290D01*
G01X-1344780Y2749290D02*
G01X-1344780Y2742280D01*
G01X-1344780Y2742280D02*
G01X-1337780Y2735280D01*
G01X-1337780Y2735280D02*
G01X-1330770Y2731780D01*
G01X-1459310Y3265650D02*
G01X-1459310Y3276150D01*
G01X-1459310Y3276150D02*
G01X-1462820Y3279660D01*
G01X-1462820Y3279660D02*
G01X-1469820Y3279660D01*
G01X-1469820Y3279660D02*
G01X-1473320Y3276150D01*
G01X-1473320Y3276150D02*
G01X-1473320Y3265650D01*
G01X-1473320Y3272650D02*
G01X-1480330Y3279660D01*
G01X-1476830Y3287740D02*
G01X-1473320Y3287740D01*
G01X-1473320Y3287740D02*
G01X-1469820Y3291250D01*
G01X-1469820Y3291250D02*
G01X-1469820Y3298250D01*
G01X-1469820Y3298250D02*
G01X-1473320Y3301760D01*
G01X-1473320Y3301760D02*
G01X-1476830Y3301760D01*
G01X-1476830Y3301760D02*
G01X-1480330Y3298250D01*
G01X-1480330Y3298250D02*
G01X-1480330Y3291250D01*
G01X-1480330Y3291250D02*
G01X-1476830Y3287740D01*
G01X-1469820Y3291250D02*
G01X-1466320Y3287740D01*
G01X-1466320Y3287740D02*
G01X-1462820Y3287740D01*
G01X-1462820Y3287740D02*
G01X-1459310Y3291250D01*
G01X-1459310Y3291250D02*
G01X-1459310Y3298250D01*
G01X-1459310Y3298250D02*
G01X-1462820Y3301760D01*
G01X-1462820Y3301760D02*
G01X-1466320Y3301760D01*
G01X-1466320Y3301760D02*
G01X-1469820Y3298250D01*
G01X-1462820Y3309840D02*
G01X-1459310Y3313350D01*
G01X-1459310Y3313350D02*
G01X-1459310Y3320350D01*
G01X-1459310Y3320350D02*
G01X-1462820Y3323860D01*
G01X-1462820Y3323860D02*
G01X-1476830Y3309840D01*
G01X-1476830Y3309840D02*
G01X-1480330Y3313350D01*
G01X-1480330Y3313350D02*
G01X-1480330Y3320350D01*
G01X-1480330Y3320350D02*
G01X-1476830Y3323860D01*
G01X-1476830Y3323860D02*
G01X-1462820Y3323860D01*
G01X-1462820Y3309840D02*
G01X-1476830Y3309840D01*
G01X-1480330Y3265650D02*
G01X-1459310Y3265650D01*
G01X-1457820Y3581780D02*
G01X-1454320Y3585280D01*
G01X-1454320Y3585280D02*
G01X-1468330Y3599290D01*
G01X-1468330Y3599290D02*
G01X-1464830Y3602790D01*
G01X-1464830Y3602790D02*
G01X-1457820Y3602790D01*
G01X-1457820Y3602790D02*
G01X-1454320Y3599290D01*
G01X-1454320Y3599290D02*
G01X-1454320Y3585280D01*
G01X-1457820Y3581780D02*
G01X-1464830Y3581780D01*
G01X-1464830Y3581780D02*
G01X-1468330Y3585280D01*
G01X-1468330Y3585280D02*
G01X-1468330Y3599290D01*
G01X-1476420Y3602790D02*
G01X-1490430Y3602790D01*
G01X-1483420Y3602790D02*
G01X-1483420Y3581780D01*
G01X-1483420Y3581780D02*
G01X-1490430Y3588780D01*
G01X-1498520Y3585280D02*
G01X-1498520Y3592280D01*
G01X-1498520Y3592280D02*
G01X-1502020Y3595790D01*
G01X-1502020Y3595790D02*
G01X-1512530Y3595790D01*
G01X-1512530Y3602790D02*
G01X-1512530Y3581780D01*
G01X-1512530Y3581780D02*
G01X-1502020Y3581780D01*
G01X-1502020Y3581780D02*
G01X-1498520Y3585280D01*
G01X-1505520Y3595790D02*
G01X-1498520Y3602790D01*
G01X-1446230Y3599290D02*
G01X-1442730Y3602790D01*
G01X-1442730Y3602790D02*
G01X-1435720Y3602790D01*
G01X-1435720Y3602790D02*
G01X-1432220Y3599290D01*
G01X-1432220Y3599290D02*
G01X-1432220Y3595790D01*
G01X-1432220Y3595790D02*
G01X-1435720Y3592280D01*
G01X-1435720Y3592280D02*
G01X-1446230Y3592280D01*
G01X-1446230Y3592280D02*
G01X-1446230Y3599290D01*
G01X-1446230Y3592280D02*
G01X-1439230Y3585280D01*
G01X-1439230Y3585280D02*
G01X-1432220Y3581780D01*
G01X-1427020Y3666780D02*
G01X-1423520Y3670280D01*
G01X-1423520Y3670280D02*
G01X-1423520Y3677280D01*
G01X-1423520Y3677280D02*
G01X-1427020Y3680790D01*
G01X-1427020Y3680790D02*
G01X-1437530Y3680790D01*
G01X-1437530Y3687790D02*
G01X-1437530Y3666780D01*
G01X-1437530Y3666780D02*
G01X-1427020Y3666780D01*
G01X-1415430Y3673780D02*
G01X-1408420Y3666780D01*
G01X-1408420Y3666780D02*
G01X-1408420Y3687790D01*
G01X-1401420Y3687790D02*
G01X-1415430Y3687790D01*
G01X-1423520Y3687790D02*
G01X-1430520Y3680790D01*
G01X-1427020Y3699280D02*
G01X-1423520Y3702780D01*
G01X-1423520Y3702780D02*
G01X-1423520Y3709780D01*
G01X-1423520Y3709780D02*
G01X-1427020Y3713290D01*
G01X-1427020Y3713290D02*
G01X-1437530Y3713290D01*
G01X-1437530Y3720290D02*
G01X-1437530Y3699280D01*
G01X-1437530Y3699280D02*
G01X-1427020Y3699280D01*
G01X-1415430Y3706280D02*
G01X-1408420Y3699280D01*
G01X-1408420Y3699280D02*
G01X-1408420Y3720290D01*
G01X-1401420Y3720290D02*
G01X-1415430Y3720290D01*
G01X-1423520Y3720290D02*
G01X-1430520Y3713290D01*
G01X-1393330Y3716790D02*
G01X-1379320Y3702780D01*
G01X-1379320Y3702780D02*
G01X-1379320Y3716790D01*
G01X-1379320Y3716790D02*
G01X-1382820Y3720290D01*
G01X-1382820Y3720290D02*
G01X-1389830Y3720290D01*
G01X-1389830Y3720290D02*
G01X-1393330Y3716790D01*
G01X-1393330Y3716790D02*
G01X-1393330Y3702780D01*
G01X-1393330Y3702780D02*
G01X-1389830Y3699280D01*
G01X-1389830Y3699280D02*
G01X-1382820Y3699280D01*
G01X-1382820Y3699280D02*
G01X-1379320Y3702780D01*
G01X-1371230Y3709780D02*
G01X-1357220Y3709780D01*
G01X-1360720Y3699280D02*
G01X-1371230Y3709780D01*
G01X-1360720Y3699280D02*
G01X-1360720Y3720290D01*
G01X-1360720Y3687790D02*
G01X-1367730Y3687790D01*
G01X-1367730Y3687790D02*
G01X-1371230Y3684290D01*
G01X-1371230Y3677280D02*
G01X-1364230Y3673780D01*
G01X-1364230Y3673780D02*
G01X-1360720Y3673780D01*
G01X-1360720Y3673780D02*
G01X-1357220Y3677280D01*
G01X-1357220Y3677280D02*
G01X-1357220Y3684290D01*
G01X-1357220Y3684290D02*
G01X-1360720Y3687790D01*
G01X-1371230Y3677280D02*
G01X-1371230Y3666780D01*
G01X-1371230Y3666780D02*
G01X-1357220Y3666780D01*
G01X-1379320Y3670280D02*
G01X-1393330Y3684290D01*
G01X-1393330Y3684290D02*
G01X-1389830Y3687790D01*
G01X-1389830Y3687790D02*
G01X-1382820Y3687790D01*
G01X-1382820Y3687790D02*
G01X-1379320Y3684290D01*
G01X-1379320Y3684290D02*
G01X-1379320Y3670280D01*
G01X-1379320Y3670280D02*
G01X-1382820Y3666780D01*
G01X-1382820Y3666780D02*
G01X-1389830Y3666780D01*
G01X-1389830Y3666780D02*
G01X-1393330Y3670280D01*
G01X-1393330Y3670280D02*
G01X-1393330Y3684290D01*
G01X-1481690Y3769290D02*
G01X-1488690Y3769290D01*
G01X-1488690Y3769290D02*
G01X-1492190Y3772800D01*
G01X-1500280Y3769290D02*
G01X-1514290Y3769290D01*
G01X-1507290Y3769290D02*
G01X-1507290Y3790310D01*
G01X-1507290Y3790310D02*
G01X-1500280Y3783310D01*
G01X-1492190Y3786810D02*
G01X-1488690Y3790310D01*
G01X-1488690Y3790310D02*
G01X-1481690Y3790310D01*
G01X-1481690Y3790310D02*
G01X-1478180Y3786810D01*
G01X-1478180Y3786810D02*
G01X-1478180Y3772800D01*
G01X-1478180Y3772800D02*
G01X-1481690Y3769290D01*
G01X-1522380Y3769290D02*
G01X-1536390Y3783310D01*
G01X-1536390Y3783310D02*
G01X-1536390Y3786810D01*
G01X-1536390Y3786810D02*
G01X-1532890Y3790310D01*
G01X-1532890Y3790310D02*
G01X-1525880Y3790310D01*
G01X-1525880Y3790310D02*
G01X-1522380Y3786810D01*
G01X-1522380Y3769290D02*
G01X-1536390Y3769290D01*
G01X-1582220Y3752790D02*
G01X-1596230Y3752790D01*
G01X-1596230Y3752790D02*
G01X-1582220Y3738780D01*
G01X-1582220Y3738780D02*
G01X-1582220Y3735280D01*
G01X-1582220Y3735280D02*
G01X-1585720Y3731780D01*
G01X-1585720Y3731780D02*
G01X-1592730Y3731780D01*
G01X-1592730Y3731780D02*
G01X-1596230Y3735280D01*
G01X-1604320Y3735280D02*
G01X-1618330Y3749290D01*
G01X-1618330Y3749290D02*
G01X-1614830Y3752790D01*
G01X-1614830Y3752790D02*
G01X-1607820Y3752790D01*
G01X-1607820Y3752790D02*
G01X-1604320Y3749290D01*
G01X-1604320Y3749290D02*
G01X-1604320Y3735280D01*
G01X-1604320Y3735280D02*
G01X-1607820Y3731780D01*
G01X-1607820Y3731780D02*
G01X-1614830Y3731780D01*
G01X-1614830Y3731780D02*
G01X-1618330Y3735280D01*
G01X-1618330Y3735280D02*
G01X-1618330Y3749290D01*
G01X-1626420Y3752790D02*
G01X-1640430Y3752790D01*
G01X-1633420Y3752790D02*
G01X-1633420Y3731780D01*
G01X-1633420Y3731780D02*
G01X-1640430Y3738780D01*
G01X-1648520Y3735280D02*
G01X-1648520Y3742280D01*
G01X-1648520Y3742280D02*
G01X-1652020Y3745790D01*
G01X-1652020Y3745790D02*
G01X-1662530Y3745790D01*
G01X-1662530Y3752790D02*
G01X-1662530Y3731780D01*
G01X-1662530Y3731780D02*
G01X-1652020Y3731780D01*
G01X-1652020Y3731780D02*
G01X-1648520Y3735280D01*
G01X-1655520Y3745790D02*
G01X-1648520Y3752790D01*
G01X-1648520Y3602790D02*
G01X-1655520Y3595790D01*
G01X-1652020Y3595790D02*
G01X-1662530Y3595790D01*
G01X-1662530Y3602790D02*
G01X-1662530Y3581780D01*
G01X-1662530Y3581780D02*
G01X-1652020Y3581780D01*
G01X-1652020Y3581780D02*
G01X-1648520Y3585280D01*
G01X-1648520Y3585280D02*
G01X-1648520Y3592280D01*
G01X-1648520Y3592280D02*
G01X-1652020Y3595790D01*
G01X-1640430Y3602790D02*
G01X-1626420Y3602790D01*
G01X-1633420Y3602790D02*
G01X-1633420Y3581780D01*
G01X-1633420Y3581780D02*
G01X-1640430Y3588780D01*
G01X-1618330Y3585280D02*
G01X-1614830Y3581780D01*
G01X-1614830Y3581780D02*
G01X-1607820Y3581780D01*
G01X-1607820Y3581780D02*
G01X-1604320Y3585280D01*
G01X-1604320Y3585280D02*
G01X-1618330Y3599290D01*
G01X-1618330Y3599290D02*
G01X-1614830Y3602790D01*
G01X-1614830Y3602790D02*
G01X-1607820Y3602790D01*
G01X-1607820Y3602790D02*
G01X-1604320Y3599290D01*
G01X-1604320Y3599290D02*
G01X-1604320Y3585280D01*
G01X-1596230Y3585280D02*
G01X-1592730Y3581780D01*
G01X-1592730Y3581780D02*
G01X-1585720Y3581780D01*
G01X-1585720Y3581780D02*
G01X-1582220Y3585280D01*
G01X-1582220Y3585280D02*
G01X-1582220Y3588780D01*
G01X-1582220Y3588780D02*
G01X-1585720Y3592280D01*
G01X-1585720Y3592280D02*
G01X-1582220Y3595790D01*
G01X-1582220Y3595790D02*
G01X-1582220Y3599290D01*
G01X-1582220Y3599290D02*
G01X-1585720Y3602790D01*
G01X-1585720Y3602790D02*
G01X-1592730Y3602790D01*
G01X-1592730Y3602790D02*
G01X-1596230Y3599290D01*
G01X-1589230Y3592280D02*
G01X-1585720Y3592280D01*
G01X-1618330Y3599290D02*
G01X-1618330Y3585280D01*
G01X-1451830Y3860650D02*
G01X-1455330Y3864150D01*
G01X-1455330Y3864150D02*
G01X-1455330Y3871150D01*
G01X-1455330Y3871150D02*
G01X-1451830Y3874660D01*
G01X-1451830Y3882740D02*
G01X-1448320Y3882740D01*
G01X-1448320Y3882740D02*
G01X-1444820Y3886250D01*
G01X-1444820Y3886250D02*
G01X-1444820Y3893250D01*
G01X-1444820Y3893250D02*
G01X-1448320Y3896760D01*
G01X-1448320Y3896760D02*
G01X-1451830Y3896760D01*
G01X-1451830Y3896760D02*
G01X-1455330Y3893250D01*
G01X-1455330Y3893250D02*
G01X-1455330Y3886250D01*
G01X-1455330Y3886250D02*
G01X-1451830Y3882740D01*
G01X-1444820Y3886250D02*
G01X-1441320Y3882740D01*
G01X-1441320Y3882740D02*
G01X-1437820Y3882740D01*
G01X-1437820Y3882740D02*
G01X-1434310Y3886250D01*
G01X-1434310Y3886250D02*
G01X-1434310Y3893250D01*
G01X-1434310Y3893250D02*
G01X-1437820Y3896760D01*
G01X-1437820Y3896760D02*
G01X-1441320Y3896760D01*
G01X-1441320Y3896760D02*
G01X-1444820Y3893250D01*
G01X-1441320Y3904840D02*
G01X-1434310Y3911850D01*
G01X-1434310Y3911850D02*
G01X-1455330Y3911850D01*
G01X-1455330Y3904840D02*
G01X-1455330Y3918860D01*
G01X-1437820Y3874660D02*
G01X-1434310Y3871150D01*
G01X-1434310Y3871150D02*
G01X-1434310Y3864150D01*
G01X-1434310Y3864150D02*
G01X-1437820Y3860650D01*
G01X-1437820Y3860650D02*
G01X-1451830Y3860650D01*
G01X-1221480Y3860280D02*
G01X-1221480Y3874290D01*
G01X-1221480Y3874290D02*
G01X-1217980Y3877790D01*
G01X-1217980Y3877790D02*
G01X-1210970Y3877790D01*
G01X-1210970Y3877790D02*
G01X-1207470Y3874290D01*
G01X-1199380Y3874290D02*
G01X-1199380Y3870790D01*
G01X-1199380Y3870790D02*
G01X-1195880Y3867280D01*
G01X-1195880Y3867280D02*
G01X-1188870Y3867280D01*
G01X-1188870Y3867280D02*
G01X-1185370Y3870790D01*
G01X-1185370Y3870790D02*
G01X-1185370Y3874290D01*
G01X-1185370Y3874290D02*
G01X-1188870Y3877790D01*
G01X-1188870Y3877790D02*
G01X-1195880Y3877790D01*
G01X-1195880Y3877790D02*
G01X-1199380Y3874290D01*
G01X-1195880Y3867280D02*
G01X-1199380Y3863780D01*
G01X-1199380Y3863780D02*
G01X-1199380Y3860280D01*
G01X-1199380Y3860280D02*
G01X-1195880Y3856780D01*
G01X-1195880Y3856780D02*
G01X-1188870Y3856780D01*
G01X-1188870Y3856780D02*
G01X-1185370Y3860280D01*
G01X-1185370Y3860280D02*
G01X-1185370Y3863780D01*
G01X-1185370Y3863780D02*
G01X-1188870Y3867280D01*
G01X-1177280Y3860280D02*
G01X-1173780Y3856780D01*
G01X-1173780Y3856780D02*
G01X-1166770Y3856780D01*
G01X-1166770Y3856780D02*
G01X-1163270Y3860280D01*
G01X-1163270Y3860280D02*
G01X-1177280Y3874290D01*
G01X-1177280Y3874290D02*
G01X-1173780Y3877790D01*
G01X-1173780Y3877790D02*
G01X-1166770Y3877790D01*
G01X-1166770Y3877790D02*
G01X-1163270Y3874290D01*
G01X-1163270Y3874290D02*
G01X-1163270Y3860280D01*
G01X-1177280Y3860280D02*
G01X-1177280Y3874290D01*
G01X-1207470Y3860280D02*
G01X-1210970Y3856780D01*
G01X-1210970Y3856780D02*
G01X-1217980Y3856780D01*
G01X-1217980Y3856780D02*
G01X-1221480Y3860280D01*
G01X-1217980Y3969280D02*
G01X-1221480Y3972780D01*
G01X-1221480Y3972780D02*
G01X-1221480Y3986790D01*
G01X-1221480Y3986790D02*
G01X-1217980Y3990290D01*
G01X-1217980Y3990290D02*
G01X-1210970Y3990290D01*
G01X-1210970Y3990290D02*
G01X-1207470Y3986790D01*
G01X-1199380Y3986790D02*
G01X-1199380Y3990290D01*
G01X-1199380Y3986790D02*
G01X-1185370Y3972780D01*
G01X-1185370Y3972780D02*
G01X-1185370Y3969280D01*
G01X-1185370Y3969280D02*
G01X-1199380Y3969280D01*
G01X-1207470Y3972780D02*
G01X-1210970Y3969280D01*
G01X-1210970Y3969280D02*
G01X-1217980Y3969280D01*
G01X-1177280Y3972780D02*
G01X-1177280Y3976280D01*
G01X-1177280Y3976280D02*
G01X-1173780Y3979780D01*
G01X-1173780Y3979780D02*
G01X-1163270Y3979780D01*
G01X-1163270Y3972780D02*
G01X-1166770Y3969280D01*
G01X-1166770Y3969280D02*
G01X-1173780Y3969280D01*
G01X-1173780Y3969280D02*
G01X-1177280Y3972780D01*
G01X-1163270Y3972780D02*
G01X-1163270Y3986790D01*
G01X-1163270Y3986790D02*
G01X-1166770Y3990290D01*
G01X-1166770Y3990290D02*
G01X-1173780Y3990290D01*
G01X-1173780Y3990290D02*
G01X-1177280Y3986790D01*
G01X-912530Y4046780D02*
G01X-902020Y4046780D01*
G01X-902020Y4046780D02*
G01X-898520Y4050280D01*
G01X-898520Y4050280D02*
G01X-898520Y4057280D01*
G01X-898520Y4057280D02*
G01X-902020Y4060790D01*
G01X-902020Y4060790D02*
G01X-912530Y4060790D01*
G01X-912530Y4067790D02*
G01X-912530Y4046780D01*
G01X-905520Y4060790D02*
G01X-898520Y4067790D01*
G01X-890430Y4067790D02*
G01X-876420Y4067790D01*
G01X-883420Y4067790D02*
G01X-883420Y4046780D01*
G01X-883420Y4046780D02*
G01X-890430Y4053780D01*
G01X-868330Y4050280D02*
G01X-864830Y4046780D01*
G01X-864830Y4046780D02*
G01X-857820Y4046780D01*
G01X-857820Y4046780D02*
G01X-854320Y4050280D01*
G01X-854320Y4050280D02*
G01X-868330Y4064290D01*
G01X-868330Y4064290D02*
G01X-864830Y4067790D01*
G01X-864830Y4067790D02*
G01X-857820Y4067790D01*
G01X-857820Y4067790D02*
G01X-854320Y4064290D01*
G01X-854320Y4064290D02*
G01X-854320Y4050280D01*
G01X-846230Y4050280D02*
G01X-846230Y4053780D01*
G01X-846230Y4053780D02*
G01X-842730Y4057280D01*
G01X-842730Y4057280D02*
G01X-832220Y4057280D01*
G01X-832220Y4050280D02*
G01X-835720Y4046780D01*
G01X-835720Y4046780D02*
G01X-842730Y4046780D01*
G01X-842730Y4046780D02*
G01X-846230Y4050280D01*
G01X-832220Y4050280D02*
G01X-832220Y4064290D01*
G01X-832220Y4064290D02*
G01X-835720Y4067790D01*
G01X-835720Y4067790D02*
G01X-842730Y4067790D01*
G01X-842730Y4067790D02*
G01X-846230Y4064290D01*
G01X-868330Y4064290D02*
G01X-868330Y4050280D01*
G01X-998010Y4402380D02*
G01X-1019030Y4402380D01*
G01X-1019030Y4402380D02*
G01X-1008520Y4412890D01*
G01X-1008520Y4412890D02*
G01X-1008520Y4398880D01*
G01X-1012020Y4420980D02*
G01X-1015530Y4420980D01*
G01X-1015530Y4420980D02*
G01X-1019030Y4424480D01*
G01X-1019030Y4424480D02*
G01X-1019030Y4431490D01*
G01X-1019030Y4431490D02*
G01X-1015530Y4434990D01*
G01X-1012020Y4420980D02*
G01X-998010Y4434990D01*
G01X-998010Y4434990D02*
G01X-998010Y4420980D01*
G01X-998010Y4443080D02*
G01X-998010Y4457090D01*
G01X-998010Y4450080D02*
G01X-1019030Y4450080D01*
G01X-1019030Y4450080D02*
G01X-1012020Y4457090D01*
G01X-1008520Y4465180D02*
G01X-1005020Y4468680D01*
G01X-1005020Y4468680D02*
G01X-1005020Y4479190D01*
G01X-1005020Y4472180D02*
G01X-998010Y4465180D01*
G01X-1008520Y4465180D02*
G01X-1015530Y4465180D01*
G01X-1015530Y4465180D02*
G01X-1019030Y4468680D01*
G01X-1019030Y4468680D02*
G01X-1019030Y4479190D01*
G01X-1019030Y4479190D02*
G01X-998010Y4479190D01*
G01X-1041320Y4479190D02*
G01X-1062340Y4479190D01*
G01X-1062340Y4479190D02*
G01X-1062340Y4468680D01*
G01X-1062340Y4468680D02*
G01X-1058830Y4465180D01*
G01X-1058830Y4465180D02*
G01X-1051830Y4465180D01*
G01X-1051830Y4465180D02*
G01X-1048320Y4468680D01*
G01X-1048320Y4468680D02*
G01X-1048320Y4479190D01*
G01X-1048320Y4472180D02*
G01X-1041320Y4465180D01*
G01X-1041320Y4457090D02*
G01X-1041320Y4443080D01*
G01X-1041320Y4450080D02*
G01X-1062340Y4450080D01*
G01X-1062340Y4450080D02*
G01X-1055330Y4457090D01*
G01X-1058830Y4434990D02*
G01X-1062340Y4431490D01*
G01X-1062340Y4431490D02*
G01X-1062340Y4424480D01*
G01X-1062340Y4424480D02*
G01X-1058830Y4420980D01*
G01X-1058830Y4420980D02*
G01X-1055330Y4420980D01*
G01X-1055330Y4420980D02*
G01X-1041320Y4434990D01*
G01X-1041320Y4434990D02*
G01X-1041320Y4420980D01*
G01X-1044820Y4412890D02*
G01X-1041320Y4409390D01*
G01X-1041320Y4409390D02*
G01X-1041320Y4402380D01*
G01X-1041320Y4402380D02*
G01X-1044820Y4398880D01*
G01X-1044820Y4398880D02*
G01X-1048320Y4398880D01*
G01X-1048320Y4398880D02*
G01X-1051830Y4402380D01*
G01X-1051830Y4402380D02*
G01X-1051830Y4405890D01*
G01X-1051830Y4402380D02*
G01X-1055330Y4398880D01*
G01X-1055330Y4398880D02*
G01X-1058830Y4398880D01*
G01X-1058830Y4398880D02*
G01X-1062340Y4402380D01*
G01X-1062340Y4402380D02*
G01X-1062340Y4409390D01*
G01X-1062340Y4409390D02*
G01X-1058830Y4412890D01*
G01X-1084630Y4412890D02*
G01X-1084630Y4398880D01*
G01X-1084630Y4405890D02*
G01X-1105640Y4405890D01*
G01X-1105640Y4405890D02*
G01X-1098640Y4412890D01*
G01X-1102140Y4420980D02*
G01X-1105640Y4424480D01*
G01X-1105640Y4424480D02*
G01X-1105640Y4431490D01*
G01X-1105640Y4431490D02*
G01X-1102140Y4434990D01*
G01X-1102140Y4434990D02*
G01X-1098640Y4434990D01*
G01X-1098640Y4434990D02*
G01X-1095130Y4431490D01*
G01X-1095130Y4431490D02*
G01X-1095130Y4420980D01*
G01X-1088130Y4420980D02*
G01X-1102140Y4420980D01*
G01X-1088130Y4420980D02*
G01X-1084630Y4424480D01*
G01X-1084630Y4424480D02*
G01X-1084630Y4431490D01*
G01X-1084630Y4431490D02*
G01X-1088130Y4434990D01*
G01X-1088130Y4443080D02*
G01X-1084630Y4446580D01*
G01X-1084630Y4446580D02*
G01X-1084630Y4453590D01*
G01X-1084630Y4453590D02*
G01X-1088130Y4457090D01*
G01X-1088130Y4457090D02*
G01X-1102140Y4457090D01*
G01X-1102140Y4457090D02*
G01X-1105640Y4453590D01*
G01X-1105640Y4453590D02*
G01X-1105640Y4446580D01*
G01X-1105640Y4446580D02*
G01X-1102140Y4443080D01*
G01X-1135810Y4446580D02*
G01X-1139310Y4443080D01*
G01X-1135810Y4446580D02*
G01X-1135810Y4453590D01*
G01X-1135810Y4453590D02*
G01X-1139310Y4457090D01*
G01X-1139310Y4457090D02*
G01X-1153320Y4457090D01*
G01X-1153320Y4457090D02*
G01X-1156830Y4453590D01*
G01X-1156830Y4453590D02*
G01X-1156830Y4446580D01*
G01X-1156830Y4446580D02*
G01X-1153320Y4443080D01*
G01X-1153320Y4434990D02*
G01X-1149820Y4434990D01*
G01X-1149820Y4434990D02*
G01X-1146320Y4431490D01*
G01X-1146320Y4431490D02*
G01X-1146320Y4420980D01*
G01X-1153320Y4420980D02*
G01X-1139310Y4420980D01*
G01X-1139310Y4420980D02*
G01X-1135810Y4424480D01*
G01X-1135810Y4424480D02*
G01X-1135810Y4431490D01*
G01X-1135810Y4431490D02*
G01X-1139310Y4434990D01*
G01X-1153320Y4434990D02*
G01X-1156830Y4431490D01*
G01X-1156830Y4431490D02*
G01X-1156830Y4424480D01*
G01X-1156830Y4424480D02*
G01X-1153320Y4420980D01*
G01X-1153320Y4412890D02*
G01X-1156830Y4409390D01*
G01X-1156830Y4409390D02*
G01X-1156830Y4402380D01*
G01X-1156830Y4402380D02*
G01X-1153320Y4398880D01*
G01X-1153320Y4398880D02*
G01X-1149820Y4398880D01*
G01X-1149820Y4398880D02*
G01X-1135810Y4412890D01*
G01X-1135810Y4412890D02*
G01X-1135810Y4398880D01*
G01X-1214550Y4398880D02*
G01X-1214550Y4412890D01*
G01X-1214550Y4412890D02*
G01X-1228560Y4398880D01*
G01X-1228560Y4398880D02*
G01X-1232060Y4398880D01*
G01X-1232060Y4398880D02*
G01X-1235570Y4402380D01*
G01X-1235570Y4402380D02*
G01X-1235570Y4409390D01*
G01X-1235570Y4409390D02*
G01X-1232060Y4412890D01*
G01X-1232060Y4420980D02*
G01X-1235570Y4424480D01*
G01X-1235570Y4424480D02*
G01X-1235570Y4431490D01*
G01X-1235570Y4431490D02*
G01X-1232060Y4434990D01*
G01X-1232060Y4420980D02*
G01X-1228560Y4420980D01*
G01X-1228560Y4420980D02*
G01X-1214550Y4434990D01*
G01X-1214550Y4434990D02*
G01X-1214550Y4420980D01*
G01X-1214550Y4443080D02*
G01X-1214550Y4457090D01*
G01X-1214550Y4450080D02*
G01X-1235570Y4450080D01*
G01X-1235570Y4450080D02*
G01X-1228560Y4457090D01*
G01X-1232060Y4465180D02*
G01X-1225060Y4465180D01*
G01X-1225060Y4465180D02*
G01X-1221550Y4468680D01*
G01X-1221550Y4468680D02*
G01X-1221550Y4479190D01*
G01X-1214550Y4479190D02*
G01X-1235570Y4479190D01*
G01X-1235570Y4479190D02*
G01X-1235570Y4468680D01*
G01X-1235570Y4468680D02*
G01X-1232060Y4465180D01*
G01X-1221550Y4472180D02*
G01X-1214550Y4465180D01*
G01X-1157330Y4537290D02*
G01X-1132330Y4512290D01*
G01X-1301160Y4479190D02*
G01X-1322180Y4479190D01*
G01X-1322180Y4479190D02*
G01X-1322180Y4468680D01*
G01X-1322180Y4468680D02*
G01X-1318680Y4465180D01*
G01X-1318680Y4465180D02*
G01X-1311670Y4465180D01*
G01X-1311670Y4465180D02*
G01X-1308170Y4468680D01*
G01X-1308170Y4468680D02*
G01X-1308170Y4479190D01*
G01X-1308170Y4472180D02*
G01X-1301160Y4465180D01*
G01X-1301160Y4457090D02*
G01X-1301160Y4443080D01*
G01X-1301160Y4450080D02*
G01X-1322180Y4450080D01*
G01X-1322180Y4450080D02*
G01X-1315170Y4457090D01*
G01X-1318680Y4434990D02*
G01X-1322180Y4431490D01*
G01X-1322180Y4431490D02*
G01X-1322180Y4424480D01*
G01X-1322180Y4424480D02*
G01X-1318680Y4420980D01*
G01X-1318680Y4420980D02*
G01X-1315170Y4420980D01*
G01X-1315170Y4420980D02*
G01X-1301160Y4434990D01*
G01X-1301160Y4434990D02*
G01X-1301160Y4420980D01*
G01X-1304660Y4412890D02*
G01X-1301160Y4409390D01*
G01X-1301160Y4409390D02*
G01X-1301160Y4402380D01*
G01X-1301160Y4402380D02*
G01X-1304660Y4398880D01*
G01X-1304660Y4398880D02*
G01X-1311670Y4398880D01*
G01X-1311670Y4398880D02*
G01X-1315170Y4402380D01*
G01X-1315170Y4402380D02*
G01X-1315170Y4405890D01*
G01X-1315170Y4405890D02*
G01X-1311670Y4412890D01*
G01X-1311670Y4412890D02*
G01X-1322180Y4412890D01*
G01X-1322180Y4412890D02*
G01X-1322180Y4398880D01*
G01X-1336400Y4413760D02*
G01X-1336400Y4427780D01*
G01X-1336400Y4420770D02*
G01X-1357420Y4420770D01*
G01X-1357420Y4420770D02*
G01X-1350410Y4427780D01*
G01X-1350410Y4435860D02*
G01X-1346910Y4439370D01*
G01X-1346910Y4439370D02*
G01X-1346910Y4449870D01*
G01X-1346910Y4439370D02*
G01X-1343400Y4435860D01*
G01X-1343400Y4435860D02*
G01X-1339900Y4435860D01*
G01X-1339900Y4435860D02*
G01X-1336400Y4439370D01*
G01X-1336400Y4439370D02*
G01X-1336400Y4449870D01*
G01X-1336400Y4449870D02*
G01X-1357420Y4449870D01*
G01X-1357420Y4449870D02*
G01X-1357420Y4439370D01*
G01X-1357420Y4439370D02*
G01X-1353910Y4435860D01*
G01X-1353910Y4435860D02*
G01X-1350410Y4435860D01*
G01X-1357420Y4457960D02*
G01X-1357420Y4471970D01*
G01X-1357420Y4471970D02*
G01X-1336400Y4471970D01*
G01X-1346910Y4471970D02*
G01X-1346910Y4464970D01*
G01X-1503180Y4470300D02*
G01X-1506690Y4466790D01*
G01X-1506690Y4466790D02*
G01X-1513690Y4466790D01*
G01X-1513690Y4466790D02*
G01X-1517190Y4470300D01*
G01X-1525280Y4470300D02*
G01X-1525280Y4473800D01*
G01X-1525280Y4473800D02*
G01X-1528780Y4477300D01*
G01X-1528780Y4477300D02*
G01X-1535790Y4477300D01*
G01X-1535790Y4477300D02*
G01X-1539290Y4473800D01*
G01X-1539290Y4473800D02*
G01X-1539290Y4470300D01*
G01X-1539290Y4470300D02*
G01X-1535790Y4466790D01*
G01X-1535790Y4466790D02*
G01X-1528780Y4466790D01*
G01X-1528780Y4466790D02*
G01X-1525280Y4470300D01*
G01X-1528780Y4477300D02*
G01X-1525280Y4480810D01*
G01X-1525280Y4480810D02*
G01X-1525280Y4484310D01*
G01X-1525280Y4484310D02*
G01X-1528780Y4487810D01*
G01X-1528780Y4487810D02*
G01X-1535790Y4487810D01*
G01X-1535790Y4487810D02*
G01X-1539290Y4484310D01*
G01X-1539290Y4484310D02*
G01X-1539290Y4480810D01*
G01X-1539290Y4480810D02*
G01X-1535790Y4477300D01*
G01X-1547380Y4477300D02*
G01X-1561390Y4477300D01*
G01X-1557890Y4466790D02*
G01X-1557890Y4487810D01*
G01X-1557890Y4487810D02*
G01X-1547380Y4477300D01*
G01X-1517190Y4484310D02*
G01X-1513690Y4487810D01*
G01X-1513690Y4487810D02*
G01X-1506690Y4487810D01*
G01X-1506690Y4487810D02*
G01X-1503180Y4484310D01*
G01X-1503180Y4484310D02*
G01X-1503180Y4470300D01*
G01X-1603270Y4470280D02*
G01X-1603270Y4473780D01*
G01X-1603270Y4473780D02*
G01X-1606770Y4477280D01*
G01X-1606770Y4477280D02*
G01X-1603270Y4480790D01*
G01X-1603270Y4480790D02*
G01X-1603270Y4484290D01*
G01X-1603270Y4484290D02*
G01X-1606770Y4487790D01*
G01X-1606770Y4487790D02*
G01X-1613780Y4487790D01*
G01X-1613780Y4487790D02*
G01X-1617280Y4484290D01*
G01X-1625370Y4484290D02*
G01X-1628870Y4487790D01*
G01X-1628870Y4487790D02*
G01X-1635880Y4487790D01*
G01X-1635880Y4487790D02*
G01X-1639380Y4484290D01*
G01X-1639380Y4484290D02*
G01X-1639380Y4480790D01*
G01X-1639380Y4480790D02*
G01X-1635880Y4477280D01*
G01X-1635880Y4477280D02*
G01X-1628870Y4477280D01*
G01X-1628870Y4477280D02*
G01X-1625370Y4480790D01*
G01X-1625370Y4480790D02*
G01X-1625370Y4484290D01*
G01X-1628870Y4477280D02*
G01X-1625370Y4473780D01*
G01X-1625370Y4473780D02*
G01X-1625370Y4470280D01*
G01X-1625370Y4470280D02*
G01X-1628870Y4466780D01*
G01X-1628870Y4466780D02*
G01X-1635880Y4466780D01*
G01X-1635880Y4466780D02*
G01X-1639380Y4470280D01*
G01X-1639380Y4470280D02*
G01X-1639380Y4473780D01*
G01X-1639380Y4473780D02*
G01X-1635880Y4477280D01*
G01X-1647470Y4470280D02*
G01X-1650970Y4466780D01*
G01X-1650970Y4466780D02*
G01X-1657980Y4466780D01*
G01X-1657980Y4466780D02*
G01X-1661480Y4470280D01*
G01X-1661480Y4470280D02*
G01X-1661480Y4484290D01*
G01X-1661480Y4484290D02*
G01X-1657980Y4487790D01*
G01X-1657980Y4487790D02*
G01X-1650970Y4487790D01*
G01X-1650970Y4487790D02*
G01X-1647470Y4484290D01*
G01X-1617280Y4470280D02*
G01X-1613780Y4466780D01*
G01X-1613780Y4466780D02*
G01X-1606770Y4466780D01*
G01X-1606770Y4466780D02*
G01X-1603270Y4470280D01*
G01X-1606770Y4477280D02*
G01X-1610280Y4477280D01*
G01X-1921830Y4319990D02*
G01X-1942850Y4319990D01*
G01X-1942850Y4319990D02*
G01X-1942850Y4309480D01*
G01X-1942850Y4309480D02*
G01X-1939350Y4305980D01*
G01X-1939350Y4305980D02*
G01X-1932340Y4305980D01*
G01X-1932340Y4305980D02*
G01X-1928840Y4309480D01*
G01X-1928840Y4309480D02*
G01X-1928840Y4319990D01*
G01X-1928840Y4312990D02*
G01X-1921830Y4305980D01*
G01X-1921830Y4297890D02*
G01X-1921830Y4283880D01*
G01X-1921830Y4290890D02*
G01X-1942850Y4290890D01*
G01X-1942850Y4290890D02*
G01X-1935840Y4297890D01*
G01X-1939350Y4275790D02*
G01X-1942850Y4272290D01*
G01X-1942850Y4272290D02*
G01X-1942850Y4265290D01*
G01X-1942850Y4265290D02*
G01X-1939350Y4261780D01*
G01X-1939350Y4261780D02*
G01X-1935840Y4261780D01*
G01X-1935840Y4261780D02*
G01X-1921830Y4275790D01*
G01X-1921830Y4275790D02*
G01X-1921830Y4261780D01*
G01X-1925330Y4253700D02*
G01X-1939350Y4239680D01*
G01X-1939350Y4239680D02*
G01X-1925330Y4239680D01*
G01X-1925330Y4239680D02*
G01X-1921830Y4243190D01*
G01X-1921830Y4243190D02*
G01X-1921830Y4250190D01*
G01X-1921830Y4250190D02*
G01X-1925330Y4253700D01*
G01X-1925330Y4253700D02*
G01X-1939350Y4253700D01*
G01X-1939350Y4253700D02*
G01X-1942850Y4250190D01*
G01X-1942850Y4250190D02*
G01X-1942850Y4243190D01*
G01X-1942850Y4243190D02*
G01X-1939350Y4239680D01*
G01X-1971830Y4239680D02*
G01X-1971830Y4253700D01*
G01X-1971830Y4246690D02*
G01X-1992850Y4246690D01*
G01X-1992850Y4246690D02*
G01X-1985840Y4253700D01*
G01X-1985840Y4261780D02*
G01X-1989350Y4261780D01*
G01X-1989350Y4261780D02*
G01X-1992850Y4265290D01*
G01X-1992850Y4265290D02*
G01X-1992850Y4272290D01*
G01X-1992850Y4272290D02*
G01X-1989350Y4275790D01*
G01X-1985840Y4261780D02*
G01X-1971830Y4275790D01*
G01X-1971830Y4275790D02*
G01X-1971830Y4261780D01*
G01X-1971830Y4283880D02*
G01X-1971830Y4297890D01*
G01X-1971830Y4290890D02*
G01X-1992850Y4290890D01*
G01X-1992850Y4290890D02*
G01X-1985840Y4297890D01*
G01X-1982340Y4305980D02*
G01X-1978840Y4309480D01*
G01X-1978840Y4309480D02*
G01X-1978840Y4319990D01*
G01X-1978840Y4312990D02*
G01X-1971830Y4305980D01*
G01X-1982340Y4305980D02*
G01X-1989350Y4305980D01*
G01X-1989350Y4305980D02*
G01X-1992850Y4309480D01*
G01X-1992850Y4309480D02*
G01X-1992850Y4319990D01*
G01X-1992850Y4319990D02*
G01X-1971830Y4319990D01*
G01X-2059330Y4222490D02*
G01X-2080350Y4222490D01*
G01X-2080350Y4222490D02*
G01X-2080350Y4211980D01*
G01X-2080350Y4211980D02*
G01X-2076850Y4208480D01*
G01X-2076850Y4208480D02*
G01X-2069840Y4208480D01*
G01X-2069840Y4208480D02*
G01X-2066340Y4211980D01*
G01X-2066340Y4211980D02*
G01X-2066340Y4222490D01*
G01X-2066340Y4215490D02*
G01X-2059330Y4208480D01*
G01X-2059330Y4200390D02*
G01X-2059330Y4186380D01*
G01X-2059330Y4193390D02*
G01X-2080350Y4193390D01*
G01X-2080350Y4193390D02*
G01X-2073340Y4200390D01*
G01X-2076850Y4178290D02*
G01X-2080350Y4174790D01*
G01X-2080350Y4174790D02*
G01X-2080350Y4167790D01*
G01X-2080350Y4167790D02*
G01X-2076850Y4164280D01*
G01X-2076850Y4164280D02*
G01X-2073340Y4164280D01*
G01X-2073340Y4164280D02*
G01X-2059330Y4178290D01*
G01X-2059330Y4178290D02*
G01X-2059330Y4164280D01*
G01X-2062830Y4156200D02*
G01X-2059330Y4152690D01*
G01X-2059330Y4152690D02*
G01X-2059330Y4145690D01*
G01X-2059330Y4145690D02*
G01X-2062830Y4142180D01*
G01X-2062830Y4142180D02*
G01X-2066340Y4142180D01*
G01X-2066340Y4142180D02*
G01X-2069840Y4145690D01*
G01X-2069840Y4145690D02*
G01X-2069840Y4156200D01*
G01X-2069840Y4156200D02*
G01X-2062830Y4156200D01*
G01X-2069840Y4156200D02*
G01X-2076850Y4149190D01*
G01X-2076850Y4149190D02*
G01X-2080350Y4142180D01*
G01X-2146830Y4194240D02*
G01X-2146830Y4201240D01*
G01X-2146830Y4201240D02*
G01X-2150330Y4204740D01*
G01X-2150330Y4212830D02*
G01X-2164350Y4212830D01*
G01X-2164350Y4212830D02*
G01X-2167850Y4216330D01*
G01X-2167850Y4216330D02*
G01X-2167850Y4223340D01*
G01X-2167850Y4223340D02*
G01X-2164350Y4226840D01*
G01X-2164350Y4226840D02*
G01X-2160840Y4226840D01*
G01X-2160840Y4226840D02*
G01X-2157340Y4223340D01*
G01X-2157340Y4223340D02*
G01X-2157340Y4212830D01*
G01X-2150330Y4212830D02*
G01X-2146830Y4216330D01*
G01X-2146830Y4216330D02*
G01X-2146830Y4223340D01*
G01X-2146830Y4223340D02*
G01X-2150330Y4226840D01*
G01X-2150330Y4234930D02*
G01X-2146830Y4238430D01*
G01X-2146830Y4238430D02*
G01X-2146830Y4245440D01*
G01X-2146830Y4245440D02*
G01X-2150330Y4248940D01*
G01X-2150330Y4248940D02*
G01X-2164350Y4248940D01*
G01X-2164350Y4248940D02*
G01X-2167850Y4245440D01*
G01X-2167850Y4245440D02*
G01X-2167850Y4238430D01*
G01X-2167850Y4238430D02*
G01X-2164350Y4234930D01*
G01X-2164350Y4204740D02*
G01X-2167850Y4201240D01*
G01X-2167850Y4201240D02*
G01X-2167850Y4194240D01*
G01X-2167850Y4194240D02*
G01X-2164350Y4190730D01*
G01X-2164350Y4190730D02*
G01X-2160840Y4190730D01*
G01X-2160840Y4190730D02*
G01X-2157340Y4194240D01*
G01X-2157340Y4194240D02*
G01X-2153840Y4190730D01*
G01X-2153840Y4190730D02*
G01X-2150330Y4190730D01*
G01X-2150330Y4190730D02*
G01X-2146830Y4194240D01*
G01X-2157340Y4194240D02*
G01X-2157340Y4197740D01*
G01X-2202130Y4206790D02*
G01X-2202130Y4227810D01*
G01X-2202130Y4227810D02*
G01X-2212640Y4227810D01*
G01X-2212640Y4227810D02*
G01X-2216140Y4224310D01*
G01X-2216140Y4224310D02*
G01X-2216140Y4217300D01*
G01X-2216140Y4217300D02*
G01X-2212640Y4213800D01*
G01X-2212640Y4213800D02*
G01X-2202130Y4213800D01*
G01X-2209140Y4213800D02*
G01X-2216140Y4206790D01*
G01X-2224230Y4206790D02*
G01X-2238240Y4206790D01*
G01X-2231240Y4206790D02*
G01X-2231240Y4227810D01*
G01X-2231240Y4227810D02*
G01X-2224230Y4220810D01*
G01X-2246330Y4220810D02*
G01X-2253340Y4227810D01*
G01X-2253340Y4227810D02*
G01X-2253340Y4206790D01*
G01X-2260340Y4206790D02*
G01X-2246330Y4206790D01*
G01X-2268430Y4206790D02*
G01X-2268430Y4210300D01*
G01X-2268430Y4210300D02*
G01X-2282440Y4224310D01*
G01X-2282440Y4224310D02*
G01X-2282440Y4227810D01*
G01X-2282440Y4227810D02*
G01X-2268430Y4227810D01*
G01X-2300330Y4168940D02*
G01X-2296830Y4165440D01*
G01X-2296830Y4165440D02*
G01X-2296830Y4158430D01*
G01X-2296830Y4158430D02*
G01X-2300330Y4154930D01*
G01X-2300330Y4154930D02*
G01X-2317850Y4154930D01*
G01X-2314350Y4146840D02*
G01X-2317850Y4143340D01*
G01X-2317850Y4143340D02*
G01X-2317850Y4136330D01*
G01X-2317850Y4136330D02*
G01X-2314350Y4132830D01*
G01X-2314350Y4132830D02*
G01X-2310840Y4132830D01*
G01X-2310840Y4132830D02*
G01X-2307340Y4136330D01*
G01X-2307340Y4136330D02*
G01X-2303840Y4132830D01*
G01X-2303840Y4132830D02*
G01X-2300330Y4132830D01*
G01X-2300330Y4132830D02*
G01X-2296830Y4136330D01*
G01X-2296830Y4136330D02*
G01X-2296830Y4143340D01*
G01X-2296830Y4143340D02*
G01X-2300330Y4146840D01*
G01X-2307340Y4139840D02*
G01X-2307340Y4136330D01*
G01X-2310840Y4124740D02*
G01X-2317850Y4117740D01*
G01X-2317850Y4117740D02*
G01X-2296830Y4117740D01*
G01X-2296830Y4124740D02*
G01X-2296830Y4110730D01*
G01X-2300330Y4168940D02*
G01X-2317850Y4168940D01*
G01X-2278940Y4002810D02*
G01X-2271930Y4002810D01*
G01X-2271930Y4002810D02*
G01X-2268430Y3999310D01*
G01X-2278940Y4002810D02*
G01X-2282440Y3999310D01*
G01X-2282440Y3999310D02*
G01X-2282440Y3995810D01*
G01X-2282440Y3995810D02*
G01X-2268430Y3981790D01*
G01X-2268430Y3981790D02*
G01X-2282440Y3981790D01*
G01X-2282440Y3970310D02*
G01X-2275440Y3966810D01*
G01X-2275440Y3966810D02*
G01X-2268430Y3959800D01*
G01X-2268430Y3959800D02*
G01X-2278940Y3959800D01*
G01X-2278940Y3959800D02*
G01X-2282440Y3956300D01*
G01X-2282440Y3956300D02*
G01X-2282440Y3952800D01*
G01X-2282440Y3952800D02*
G01X-2278940Y3949290D01*
G01X-2278940Y3949290D02*
G01X-2271930Y3949290D01*
G01X-2271930Y3949290D02*
G01X-2268430Y3952800D01*
G01X-2268430Y3952800D02*
G01X-2268430Y3959800D01*
G01X-2260340Y3949290D02*
G01X-2246330Y3949290D01*
G01X-2253340Y3949290D02*
G01X-2253340Y3970310D01*
G01X-2253340Y3970310D02*
G01X-2246330Y3963310D01*
G01X-2238240Y3949290D02*
G01X-2224230Y3949290D01*
G01X-2231240Y3949290D02*
G01X-2231240Y3970310D01*
G01X-2231240Y3970310D02*
G01X-2224230Y3963310D01*
G01X-2216140Y3966810D02*
G01X-2216140Y3959800D01*
G01X-2216140Y3959800D02*
G01X-2212640Y3956300D01*
G01X-2212640Y3956300D02*
G01X-2202130Y3956300D01*
G01X-2202130Y3949290D02*
G01X-2202130Y3970310D01*
G01X-2202130Y3970310D02*
G01X-2212640Y3970310D01*
G01X-2212640Y3970310D02*
G01X-2216140Y3966810D01*
G01X-2209140Y3956300D02*
G01X-2216140Y3949290D01*
G01X-2216140Y3981790D02*
G01X-2209140Y3988800D01*
G01X-2212640Y3988800D02*
G01X-2202130Y3988800D01*
G01X-2202130Y3981790D02*
G01X-2202130Y4002810D01*
G01X-2202130Y4002810D02*
G01X-2212640Y4002810D01*
G01X-2212640Y4002810D02*
G01X-2216140Y3999310D01*
G01X-2216140Y3999310D02*
G01X-2216140Y3992300D01*
G01X-2216140Y3992300D02*
G01X-2212640Y3988800D01*
G01X-2224230Y3981790D02*
G01X-2238240Y3981790D01*
G01X-2231240Y3981790D02*
G01X-2231240Y4002810D01*
G01X-2231240Y4002810D02*
G01X-2224230Y3995810D01*
G01X-2246330Y3995810D02*
G01X-2253340Y4002810D01*
G01X-2253340Y4002810D02*
G01X-2253340Y3981790D01*
G01X-2260340Y3981790D02*
G01X-2246330Y3981790D01*
G01X-2189940Y3995300D02*
G01X-2186440Y3991790D01*
G01X-2186440Y3991790D02*
G01X-2179430Y3991790D01*
G01X-2179430Y3991790D02*
G01X-2175930Y3995300D01*
G01X-2167840Y3991790D02*
G01X-2153830Y3991790D01*
G01X-2160840Y3991790D02*
G01X-2160840Y4012810D01*
G01X-2160840Y4012810D02*
G01X-2153830Y4005810D01*
G01X-2145740Y3991790D02*
G01X-2131730Y3991790D01*
G01X-2138740Y3991790D02*
G01X-2138740Y4012810D01*
G01X-2138740Y4012810D02*
G01X-2131730Y4005810D01*
G01X-2123640Y4009310D02*
G01X-2123640Y4002300D01*
G01X-2123640Y4002300D02*
G01X-2120140Y3998800D01*
G01X-2120140Y3998800D02*
G01X-2109630Y3998800D01*
G01X-2109630Y3991790D02*
G01X-2109630Y4012810D01*
G01X-2109630Y4012810D02*
G01X-2120140Y4012810D01*
G01X-2120140Y4012810D02*
G01X-2123640Y4009310D01*
G01X-2116640Y3998800D02*
G01X-2123640Y3991790D01*
G01X-2175930Y4009310D02*
G01X-2179430Y4012810D01*
G01X-2179430Y4012810D02*
G01X-2186440Y4012810D01*
G01X-2186440Y4012810D02*
G01X-2189940Y4009310D01*
G01X-2189940Y4009310D02*
G01X-2189940Y4005810D01*
G01X-2189940Y4005810D02*
G01X-2186440Y4002300D01*
G01X-2186440Y4002300D02*
G01X-2189940Y3998800D01*
G01X-2189940Y3998800D02*
G01X-2189940Y3995300D01*
G01X-2186440Y4002300D02*
G01X-2182940Y4002300D01*
G01X-2087440Y3946810D02*
G01X-2087440Y3932800D01*
G01X-2087440Y3932800D02*
G01X-2083940Y3929290D01*
G01X-2083940Y3929290D02*
G01X-2076930Y3929290D01*
G01X-2076930Y3929290D02*
G01X-2073430Y3932800D01*
G01X-2076930Y3939800D02*
G01X-2087440Y3939800D01*
G01X-2087440Y3946810D02*
G01X-2083940Y3950310D01*
G01X-2083940Y3950310D02*
G01X-2076930Y3950310D01*
G01X-2076930Y3950310D02*
G01X-2073430Y3946810D01*
G01X-2073430Y3946810D02*
G01X-2073430Y3943310D01*
G01X-2073430Y3943310D02*
G01X-2076930Y3939800D01*
G01X-2065340Y3929290D02*
G01X-2051330Y3929290D01*
G01X-2058340Y3929290D02*
G01X-2058340Y3950310D01*
G01X-2058340Y3950310D02*
G01X-2051330Y3943310D01*
G01X-2043240Y3929290D02*
G01X-2029230Y3929290D01*
G01X-2036240Y3929290D02*
G01X-2036240Y3950310D01*
G01X-2036240Y3950310D02*
G01X-2029230Y3943310D01*
G01X-2021140Y3946810D02*
G01X-2021140Y3939800D01*
G01X-2021140Y3939800D02*
G01X-2017640Y3936300D01*
G01X-2017640Y3936300D02*
G01X-2007130Y3936300D01*
G01X-2007130Y3929290D02*
G01X-2007130Y3950310D01*
G01X-2007130Y3950310D02*
G01X-2017640Y3950310D01*
G01X-2017640Y3950310D02*
G01X-2021140Y3946810D01*
G01X-2014140Y3936300D02*
G01X-2021140Y3929290D01*
G01X-1983890Y3932800D02*
G01X-1980390Y3929290D01*
G01X-1980390Y3929290D02*
G01X-1973380Y3929290D01*
G01X-1973380Y3929290D02*
G01X-1969880Y3932800D01*
G01X-1969880Y3932800D02*
G01X-1983890Y3946810D01*
G01X-1983890Y3946810D02*
G01X-1983890Y3932800D01*
G01X-1983890Y3946810D02*
G01X-1980390Y3950310D01*
G01X-1980390Y3950310D02*
G01X-1973380Y3950310D01*
G01X-1973380Y3950310D02*
G01X-1969880Y3946810D01*
G01X-1969880Y3946810D02*
G01X-1969880Y3932800D01*
G01X-1961790Y3932800D02*
G01X-1961790Y3946810D01*
G01X-1961790Y3946810D02*
G01X-1958290Y3950310D01*
G01X-1958290Y3950310D02*
G01X-1951280Y3950310D01*
G01X-1951280Y3950310D02*
G01X-1947780Y3946810D01*
G01X-1947780Y3946810D02*
G01X-1947780Y3943310D01*
G01X-1947780Y3943310D02*
G01X-1951280Y3939800D01*
G01X-1951280Y3939800D02*
G01X-1961790Y3939800D01*
G01X-1961790Y3932800D02*
G01X-1958290Y3929290D01*
G01X-1958290Y3929290D02*
G01X-1951280Y3929290D01*
G01X-1951280Y3929290D02*
G01X-1947780Y3932800D01*
G01X-1939690Y3932800D02*
G01X-1936190Y3929290D01*
G01X-1936190Y3929290D02*
G01X-1929190Y3929290D01*
G01X-1929190Y3929290D02*
G01X-1925680Y3932800D01*
G01X-1925680Y3932800D02*
G01X-1925680Y3946810D01*
G01X-1925680Y3946810D02*
G01X-1929190Y3950310D01*
G01X-1929190Y3950310D02*
G01X-1936190Y3950310D01*
G01X-1936190Y3950310D02*
G01X-1939690Y3946810D01*
G01X-1944820Y3843860D02*
G01X-1944820Y3829840D01*
G01X-1944820Y3829840D02*
G01X-1934310Y3840350D01*
G01X-1934310Y3840350D02*
G01X-1955330Y3840350D01*
G01X-1951830Y3821760D02*
G01X-1955330Y3818250D01*
G01X-1955330Y3818250D02*
G01X-1955330Y3811250D01*
G01X-1955330Y3811250D02*
G01X-1951830Y3807740D01*
G01X-1951830Y3807740D02*
G01X-1948320Y3807740D01*
G01X-1948320Y3807740D02*
G01X-1944820Y3811250D01*
G01X-1944820Y3811250D02*
G01X-1944820Y3818250D01*
G01X-1944820Y3818250D02*
G01X-1948320Y3821760D01*
G01X-1948320Y3821760D02*
G01X-1951830Y3821760D01*
G01X-1944820Y3818250D02*
G01X-1941320Y3821760D01*
G01X-1941320Y3821760D02*
G01X-1937820Y3821760D01*
G01X-1937820Y3821760D02*
G01X-1934310Y3818250D01*
G01X-1934310Y3818250D02*
G01X-1934310Y3811250D01*
G01X-1934310Y3811250D02*
G01X-1937820Y3807740D01*
G01X-1937820Y3807740D02*
G01X-1941320Y3807740D01*
G01X-1941320Y3807740D02*
G01X-1944820Y3811250D01*
G01X-1944820Y3799660D02*
G01X-1948320Y3796150D01*
G01X-1948320Y3796150D02*
G01X-1948320Y3785650D01*
G01X-1948320Y3792650D02*
G01X-1955330Y3799660D01*
G01X-1944820Y3799660D02*
G01X-1937820Y3799660D01*
G01X-1937820Y3799660D02*
G01X-1934310Y3796150D01*
G01X-1934310Y3796150D02*
G01X-1934310Y3785650D01*
G01X-1934310Y3785650D02*
G01X-1955330Y3785650D01*
G01X-1917830Y3785650D02*
G01X-1896810Y3785650D01*
G01X-1896810Y3785650D02*
G01X-1896810Y3796150D01*
G01X-1896810Y3796150D02*
G01X-1900320Y3799660D01*
G01X-1900320Y3799660D02*
G01X-1907320Y3799660D01*
G01X-1907320Y3799660D02*
G01X-1910820Y3796150D01*
G01X-1910820Y3796150D02*
G01X-1910820Y3785650D01*
G01X-1910820Y3792650D02*
G01X-1917830Y3799660D01*
G01X-1914330Y3807740D02*
G01X-1917830Y3811250D01*
G01X-1917830Y3811250D02*
G01X-1917830Y3818250D01*
G01X-1917830Y3818250D02*
G01X-1914330Y3821760D01*
G01X-1914330Y3821760D02*
G01X-1910820Y3821760D01*
G01X-1910820Y3821760D02*
G01X-1907320Y3818250D01*
G01X-1907320Y3818250D02*
G01X-1907320Y3811250D01*
G01X-1907320Y3811250D02*
G01X-1903820Y3807740D01*
G01X-1903820Y3807740D02*
G01X-1900320Y3807740D01*
G01X-1900320Y3807740D02*
G01X-1896810Y3811250D01*
G01X-1896810Y3811250D02*
G01X-1896810Y3818250D01*
G01X-1896810Y3818250D02*
G01X-1900320Y3821760D01*
G01X-1900320Y3821760D02*
G01X-1903820Y3821760D01*
G01X-1903820Y3821760D02*
G01X-1907320Y3818250D01*
G01X-1907320Y3811250D02*
G01X-1910820Y3807740D01*
G01X-1910820Y3807740D02*
G01X-1914330Y3807740D01*
G01X-1914330Y3829840D02*
G01X-1917830Y3833350D01*
G01X-1917830Y3833350D02*
G01X-1917830Y3840350D01*
G01X-1917830Y3840350D02*
G01X-1914330Y3843860D01*
G01X-1914330Y3843860D02*
G01X-1907320Y3843860D01*
G01X-1907320Y3843860D02*
G01X-1903820Y3840350D01*
G01X-1903820Y3840350D02*
G01X-1903820Y3836850D01*
G01X-1903820Y3836850D02*
G01X-1907320Y3829840D01*
G01X-1907320Y3829840D02*
G01X-1896810Y3829840D01*
G01X-1896810Y3829840D02*
G01X-1896810Y3843860D01*
G01X-1787830Y3913150D02*
G01X-1766810Y3913150D01*
G01X-1766810Y3913150D02*
G01X-1766810Y3923650D01*
G01X-1766810Y3923650D02*
G01X-1770320Y3927160D01*
G01X-1770320Y3927160D02*
G01X-1777320Y3927160D01*
G01X-1777320Y3927160D02*
G01X-1780820Y3923650D01*
G01X-1780820Y3923650D02*
G01X-1780820Y3913150D01*
G01X-1780820Y3920150D02*
G01X-1787830Y3927160D01*
G01X-1784330Y3935240D02*
G01X-1780820Y3935240D01*
G01X-1780820Y3935240D02*
G01X-1777320Y3938750D01*
G01X-1777320Y3938750D02*
G01X-1777320Y3945750D01*
G01X-1777320Y3945750D02*
G01X-1780820Y3949260D01*
G01X-1780820Y3949260D02*
G01X-1784330Y3949260D01*
G01X-1784330Y3949260D02*
G01X-1787830Y3945750D01*
G01X-1787830Y3945750D02*
G01X-1787830Y3938750D01*
G01X-1787830Y3938750D02*
G01X-1784330Y3935240D01*
G01X-1777320Y3938750D02*
G01X-1773820Y3935240D01*
G01X-1773820Y3935240D02*
G01X-1770320Y3935240D01*
G01X-1770320Y3935240D02*
G01X-1766810Y3938750D01*
G01X-1766810Y3938750D02*
G01X-1766810Y3945750D01*
G01X-1766810Y3945750D02*
G01X-1770320Y3949260D01*
G01X-1770320Y3949260D02*
G01X-1773820Y3949260D01*
G01X-1773820Y3949260D02*
G01X-1777320Y3945750D01*
G01X-1770320Y3957340D02*
G01X-1766810Y3960850D01*
G01X-1766810Y3960850D02*
G01X-1766810Y3967850D01*
G01X-1766810Y3967850D02*
G01X-1770320Y3971360D01*
G01X-1770320Y3971360D02*
G01X-1773820Y3971360D01*
G01X-1773820Y3971360D02*
G01X-1787830Y3957340D01*
G01X-1787830Y3957340D02*
G01X-1787830Y3971360D01*
G01X-2096810Y3890350D02*
G01X-2096810Y3883350D01*
G01X-2096810Y3883350D02*
G01X-2100320Y3879840D01*
G01X-2100320Y3879840D02*
G01X-2103820Y3879840D01*
G01X-2103820Y3879840D02*
G01X-2107320Y3883350D01*
G01X-2107320Y3883350D02*
G01X-2107320Y3890350D01*
G01X-2107320Y3890350D02*
G01X-2110820Y3893860D01*
G01X-2110820Y3893860D02*
G01X-2114330Y3893860D01*
G01X-2114330Y3893860D02*
G01X-2117830Y3890350D01*
G01X-2117830Y3890350D02*
G01X-2117830Y3883350D01*
G01X-2117830Y3883350D02*
G01X-2114330Y3879840D01*
G01X-2114330Y3879840D02*
G01X-2110820Y3879840D01*
G01X-2110820Y3879840D02*
G01X-2107320Y3883350D01*
G01X-2107320Y3890350D02*
G01X-2103820Y3893860D01*
G01X-2103820Y3893860D02*
G01X-2100320Y3893860D01*
G01X-2100320Y3893860D02*
G01X-2096810Y3890350D01*
G01X-2100320Y3871760D02*
G01X-2103820Y3871760D01*
G01X-2103820Y3871760D02*
G01X-2107320Y3868250D01*
G01X-2107320Y3868250D02*
G01X-2107320Y3861250D01*
G01X-2107320Y3861250D02*
G01X-2103820Y3857740D01*
G01X-2103820Y3857740D02*
G01X-2100320Y3857740D01*
G01X-2100320Y3857740D02*
G01X-2096810Y3861250D01*
G01X-2096810Y3861250D02*
G01X-2096810Y3868250D01*
G01X-2096810Y3868250D02*
G01X-2100320Y3871760D01*
G01X-2107320Y3868250D02*
G01X-2110820Y3871760D01*
G01X-2110820Y3871760D02*
G01X-2114330Y3871760D01*
G01X-2114330Y3871760D02*
G01X-2117830Y3868250D01*
G01X-2117830Y3868250D02*
G01X-2117830Y3861250D01*
G01X-2117830Y3861250D02*
G01X-2114330Y3857740D01*
G01X-2114330Y3857740D02*
G01X-2110820Y3857740D01*
G01X-2110820Y3857740D02*
G01X-2107320Y3861250D01*
G01X-2100320Y3849660D02*
G01X-2096810Y3846150D01*
G01X-2096810Y3846150D02*
G01X-2096810Y3839150D01*
G01X-2096810Y3839150D02*
G01X-2100320Y3835650D01*
G01X-2100320Y3835650D02*
G01X-2114330Y3835650D01*
G01X-2114330Y3835650D02*
G01X-2117830Y3839150D01*
G01X-2117830Y3839150D02*
G01X-2117830Y3846150D01*
G01X-2117830Y3846150D02*
G01X-2114330Y3849660D01*
G01X-2215770Y3845290D02*
G01X-2229780Y3845290D01*
G01X-2229780Y3845290D02*
G01X-2215770Y3831280D01*
G01X-2215770Y3831280D02*
G01X-2215770Y3827780D01*
G01X-2215770Y3827780D02*
G01X-2219270Y3824280D01*
G01X-2219270Y3824280D02*
G01X-2226280Y3824280D01*
G01X-2226280Y3824280D02*
G01X-2229780Y3827780D01*
G01X-2237870Y3827780D02*
G01X-2237870Y3831280D01*
G01X-2237870Y3831280D02*
G01X-2241370Y3834780D01*
G01X-2241370Y3834780D02*
G01X-2237870Y3838290D01*
G01X-2237870Y3838290D02*
G01X-2237870Y3841790D01*
G01X-2237870Y3841790D02*
G01X-2241370Y3845290D01*
G01X-2241370Y3845290D02*
G01X-2248380Y3845290D01*
G01X-2248380Y3845290D02*
G01X-2251880Y3841790D01*
G01X-2259970Y3841790D02*
G01X-2263470Y3845290D01*
G01X-2263470Y3845290D02*
G01X-2270480Y3845290D01*
G01X-2270480Y3845290D02*
G01X-2273980Y3841790D01*
G01X-2273980Y3841790D02*
G01X-2273980Y3827780D01*
G01X-2273980Y3827780D02*
G01X-2270480Y3824280D01*
G01X-2270480Y3824280D02*
G01X-2263470Y3824280D01*
G01X-2263470Y3824280D02*
G01X-2259970Y3827780D01*
G01X-2251880Y3827780D02*
G01X-2248380Y3824280D01*
G01X-2248380Y3824280D02*
G01X-2241370Y3824280D01*
G01X-2241370Y3824280D02*
G01X-2237870Y3827780D01*
G01X-2241370Y3834780D02*
G01X-2244870Y3834780D01*
G01X-2241370Y3810290D02*
G01X-2248380Y3810290D01*
G01X-2248380Y3810290D02*
G01X-2251880Y3806790D01*
G01X-2259970Y3806790D02*
G01X-2263470Y3810290D01*
G01X-2263470Y3810290D02*
G01X-2270480Y3810290D01*
G01X-2270480Y3810290D02*
G01X-2273980Y3806790D01*
G01X-2273980Y3806790D02*
G01X-2273980Y3792780D01*
G01X-2273980Y3792780D02*
G01X-2270480Y3789280D01*
G01X-2270480Y3789280D02*
G01X-2263470Y3789280D01*
G01X-2263470Y3789280D02*
G01X-2259970Y3792780D01*
G01X-2251880Y3792780D02*
G01X-2248380Y3789280D01*
G01X-2248380Y3789280D02*
G01X-2241370Y3789280D01*
G01X-2241370Y3789280D02*
G01X-2237870Y3792780D01*
G01X-2237870Y3792780D02*
G01X-2237870Y3796280D01*
G01X-2237870Y3796280D02*
G01X-2241370Y3799780D01*
G01X-2241370Y3799780D02*
G01X-2237870Y3803290D01*
G01X-2237870Y3803290D02*
G01X-2237870Y3806790D01*
G01X-2237870Y3806790D02*
G01X-2241370Y3810290D01*
G01X-2241370Y3799780D02*
G01X-2244870Y3799780D01*
G01X-2229780Y3796280D02*
G01X-2222780Y3789280D01*
G01X-2222780Y3789280D02*
G01X-2222780Y3810290D01*
G01X-2229780Y3810290D02*
G01X-2215770Y3810290D01*
G01X-2390770Y3799780D02*
G01X-2404780Y3799780D01*
G01X-2404780Y3799780D02*
G01X-2394270Y3789280D01*
G01X-2394270Y3789280D02*
G01X-2394270Y3810290D01*
G01X-2390770Y3824280D02*
G01X-2404780Y3824280D01*
G01X-2404780Y3824280D02*
G01X-2404780Y3834780D01*
G01X-2404780Y3834780D02*
G01X-2397780Y3831280D01*
G01X-2397780Y3831280D02*
G01X-2394270Y3831280D01*
G01X-2394270Y3831280D02*
G01X-2390770Y3834780D01*
G01X-2390770Y3834780D02*
G01X-2390770Y3841790D01*
G01X-2390770Y3841790D02*
G01X-2394270Y3845290D01*
G01X-2394270Y3845290D02*
G01X-2401280Y3845290D01*
G01X-2401280Y3845290D02*
G01X-2404780Y3841790D01*
G01X-2412870Y3841790D02*
G01X-2416370Y3845290D01*
G01X-2416370Y3845290D02*
G01X-2423380Y3845290D01*
G01X-2423380Y3845290D02*
G01X-2426880Y3841790D01*
G01X-2434970Y3841790D02*
G01X-2438470Y3845290D01*
G01X-2438470Y3845290D02*
G01X-2445480Y3845290D01*
G01X-2445480Y3845290D02*
G01X-2448980Y3841790D01*
G01X-2448980Y3841790D02*
G01X-2448980Y3827780D01*
G01X-2448980Y3827780D02*
G01X-2445480Y3824280D01*
G01X-2445480Y3824280D02*
G01X-2438470Y3824280D01*
G01X-2438470Y3824280D02*
G01X-2434970Y3827780D01*
G01X-2426880Y3827780D02*
G01X-2423380Y3824280D01*
G01X-2423380Y3824280D02*
G01X-2416370Y3824280D01*
G01X-2416370Y3824280D02*
G01X-2412870Y3827780D01*
G01X-2412870Y3827780D02*
G01X-2412870Y3831280D01*
G01X-2412870Y3831280D02*
G01X-2416370Y3834780D01*
G01X-2416370Y3834780D02*
G01X-2412870Y3838290D01*
G01X-2412870Y3838290D02*
G01X-2412870Y3841790D01*
G01X-2416370Y3834780D02*
G01X-2419870Y3834780D01*
G01X-2416370Y3810290D02*
G01X-2412870Y3806790D01*
G01X-2412870Y3806790D02*
G01X-2412870Y3803290D01*
G01X-2412870Y3803290D02*
G01X-2416370Y3799780D01*
G01X-2416370Y3799780D02*
G01X-2419870Y3799780D01*
G01X-2416370Y3799780D02*
G01X-2412870Y3796280D01*
G01X-2412870Y3796280D02*
G01X-2412870Y3792780D01*
G01X-2412870Y3792780D02*
G01X-2416370Y3789280D01*
G01X-2416370Y3789280D02*
G01X-2423380Y3789280D01*
G01X-2423380Y3789280D02*
G01X-2426880Y3792780D01*
G01X-2434970Y3792780D02*
G01X-2438470Y3789280D01*
G01X-2438470Y3789280D02*
G01X-2445480Y3789280D01*
G01X-2445480Y3789280D02*
G01X-2448980Y3792780D01*
G01X-2448980Y3792780D02*
G01X-2448980Y3806790D01*
G01X-2448980Y3806790D02*
G01X-2445480Y3810290D01*
G01X-2445480Y3810290D02*
G01X-2438470Y3810290D01*
G01X-2438470Y3810290D02*
G01X-2434970Y3806790D01*
G01X-2426880Y3806790D02*
G01X-2423380Y3810290D01*
G01X-2423380Y3810290D02*
G01X-2416370Y3810290D01*
G01X-1388980Y2002790D02*
G01X-1388980Y1981780D01*
G01X-1388980Y1981780D02*
G01X-1378470Y1981780D01*
G01X-1378470Y1981780D02*
G01X-1374970Y1985280D01*
G01X-1374970Y1985280D02*
G01X-1374970Y1992280D01*
G01X-1374970Y1992280D02*
G01X-1378470Y1995790D01*
G01X-1378470Y1995790D02*
G01X-1388980Y1995790D01*
G01X-1381970Y1995790D02*
G01X-1374970Y2002790D01*
G01X-1366880Y2002790D02*
G01X-1366880Y1999290D01*
G01X-1366880Y1999290D02*
G01X-1352870Y1985280D01*
G01X-1352870Y1985280D02*
G01X-1352870Y1981780D01*
G01X-1352870Y1981780D02*
G01X-1366880Y1981780D01*
G01X-1344780Y1981780D02*
G01X-1330770Y1981780D01*
G01X-1330770Y1981780D02*
G01X-1330770Y1985280D01*
G01X-1330770Y1985280D02*
G01X-1344780Y1999290D01*
G01X-1344780Y1999290D02*
G01X-1344780Y2002790D01*
G01X-2348270Y1310280D02*
G01X-2362280Y1324290D01*
G01X-2362280Y1324290D02*
G01X-2362280Y1327790D01*
G01X-2370370Y1310280D02*
G01X-2384380Y1324290D01*
G01X-2384380Y1324290D02*
G01X-2384380Y1327790D01*
G01X-2392470Y1324290D02*
G01X-2395970Y1327790D01*
G01X-2395970Y1327790D02*
G01X-2402980Y1327790D01*
G01X-2402980Y1327790D02*
G01X-2406480Y1324290D01*
G01X-2406480Y1324290D02*
G01X-2406480Y1310280D01*
G01X-2406480Y1310280D02*
G01X-2402980Y1306780D01*
G01X-2402980Y1306780D02*
G01X-2395970Y1306780D01*
G01X-2395970Y1306780D02*
G01X-2392470Y1310280D01*
G01X-2384380Y1306780D02*
G01X-2370370Y1306780D01*
G01X-2370370Y1306780D02*
G01X-2370370Y1310280D01*
G01X-2362280Y1306780D02*
G01X-2348270Y1306780D01*
G01X-2348270Y1306780D02*
G01X-2348270Y1310280D01*
G01X-2351770Y1215290D02*
G01X-2348270Y1211790D01*
G01X-2348270Y1211790D02*
G01X-2348270Y1208290D01*
G01X-2348270Y1208290D02*
G01X-2351770Y1204780D01*
G01X-2351770Y1204780D02*
G01X-2362280Y1204780D01*
G01X-2362280Y1204780D02*
G01X-2362280Y1211790D01*
G01X-2362280Y1211790D02*
G01X-2358780Y1215290D01*
G01X-2358780Y1215290D02*
G01X-2351770Y1215290D01*
G01X-2362280Y1204780D02*
G01X-2355280Y1197780D01*
G01X-2355280Y1197780D02*
G01X-2348270Y1194280D01*
G01X-2370370Y1194280D02*
G01X-2370370Y1197780D01*
G01X-2370370Y1197780D02*
G01X-2384380Y1211790D01*
G01X-2384380Y1211790D02*
G01X-2384380Y1215290D01*
G01X-2392470Y1211790D02*
G01X-2395970Y1215290D01*
G01X-2395970Y1215290D02*
G01X-2402980Y1215290D01*
G01X-2402980Y1215290D02*
G01X-2406480Y1211790D01*
G01X-2406480Y1211790D02*
G01X-2406480Y1197780D01*
G01X-2406480Y1197780D02*
G01X-2402980Y1194280D01*
G01X-2402980Y1194280D02*
G01X-2395970Y1194280D01*
G01X-2395970Y1194280D02*
G01X-2392470Y1197780D01*
G01X-2384380Y1194280D02*
G01X-2370370Y1194280D01*
G01X-2648270Y0932790D02*
G01X-2662280Y0932790D01*
G01X-2655280Y0932790D02*
G01X-2655280Y0911780D01*
G01X-2655280Y0911780D02*
G01X-2662280Y0918780D01*
G01X-2670370Y0918780D02*
G01X-2673870Y0922280D01*
G01X-2673870Y0922280D02*
G01X-2680880Y0922280D01*
G01X-2680880Y0922280D02*
G01X-2684380Y0918780D01*
G01X-2684380Y0918780D02*
G01X-2684380Y0915280D01*
G01X-2684380Y0915280D02*
G01X-2680880Y0911780D01*
G01X-2680880Y0911780D02*
G01X-2673870Y0911780D01*
G01X-2673870Y0911780D02*
G01X-2670370Y0915280D01*
G01X-2670370Y0915280D02*
G01X-2670370Y0918780D01*
G01X-2673870Y0922280D02*
G01X-2670370Y0925790D01*
G01X-2670370Y0925790D02*
G01X-2670370Y0929290D01*
G01X-2670370Y0929290D02*
G01X-2673870Y0932790D01*
G01X-2673870Y0932790D02*
G01X-2680880Y0932790D01*
G01X-2680880Y0932790D02*
G01X-2684380Y0929290D01*
G01X-2684380Y0929290D02*
G01X-2684380Y0925790D01*
G01X-2684380Y0925790D02*
G01X-2680880Y0922280D01*
G01X-2692470Y0922280D02*
G01X-2695970Y0925790D01*
G01X-2695970Y0925790D02*
G01X-2706480Y0925790D01*
G01X-2706480Y0932790D02*
G01X-2706480Y0911780D01*
G01X-2706480Y0911780D02*
G01X-2695970Y0911780D01*
G01X-2695970Y0911780D02*
G01X-2692470Y0915280D01*
G01X-2692470Y0915280D02*
G01X-2692470Y0922280D01*
G01X-2699470Y0925790D02*
G01X-2692470Y0932790D01*
G54D20*
G01X-1107330Y4512290D02*
G01X-1132330Y4537290D01*
G54D21*
G01X-1107330Y4537290D02*
G01X-1082330Y4512290D01*
G54D22*
G01X-719340Y0934620D03*
G01X-1149650Y2055290D03*
G01X-1149650Y2805290D03*
G01X-1532820Y3499970D03*
G01X-1845320Y4149970D03*
G01X-1503590Y4277920D03*
G01X-2415010Y3129300D03*
G01X-2415010Y2379300D03*
G01X-2031840Y1684620D03*
G01X-2845320Y1099970D03*
G54D23*
G01X-2207330Y1349790D03*
G01X-1357330Y3834790D03*
G54D24*
G01X-1945720Y3510840D03*
G54D25*
G01X-2659830Y4092290D02*
G01X-2854830Y4092290D01*
G01X-2854830Y4192290D02*
G01X-2659830Y4192290D01*
G54D32*
G01X-2654830Y4192290D03*
G01X-2654830Y4092290D03*
G54D33*
G01X-2524830Y4092290D03*
G01X-2524830Y4192290D03*
G54D34*
G01X-2419830Y4192290D03*
G01X-2419830Y4092290D03*
G54D29*
G01X-2006050Y4096730D02*
G01X-2006440Y4096750D01*
G01X-2006440Y4096750D02*
G01X-2006830Y4096810D01*
G01X-2006830Y4096810D02*
G01X-2007210Y4096910D01*
G01X-2007210Y4096910D02*
G01X-2007580Y4097040D01*
G01X-2007580Y4097040D02*
G01X-2007930Y4097210D01*
G01X-2007930Y4097210D02*
G01X-2008270Y4097410D01*
G01X-2008270Y4097410D02*
G01X-2008580Y4097650D01*
G01X-2008580Y4097650D02*
G01X-2008870Y4097920D01*
G01X-2008870Y4097920D02*
G01X-2009130Y4098210D01*
G01X-2009130Y4098210D02*
G01X-2009360Y4098530D01*
G01X-2009360Y4098530D02*
G01X-2009560Y4098870D01*
G01X-2009560Y4098870D02*
G01X-2009720Y4099230D01*
G01X-2009720Y4099230D02*
G01X-2009840Y4099600D01*
G01X-2009840Y4099600D02*
G01X-2009930Y4099990D01*
G01X-2009930Y4099990D02*
G01X-2009980Y4100380D01*
G01X-2009980Y4100380D02*
G01X-2009990Y4100770D01*
G01X-2009990Y4100770D02*
G01X-2009960Y4101160D01*
G01X-2009960Y4101160D02*
G01X-2009890Y4101550D01*
G01X-2009890Y4101550D02*
G01X-2009780Y4101920D01*
G01X-2009780Y4101920D02*
G01X-2009640Y4102290D01*
G01X-2009640Y4102290D02*
G01X-2009460Y4102640D01*
G01X-2009460Y4102640D02*
G01X-2009250Y4102970D01*
G01X-2009250Y4102970D02*
G01X-2009000Y4103280D01*
G01X-2009000Y4103280D02*
G01X-2008730Y4103560D01*
G01X-2008730Y4103560D02*
G01X-2008430Y4103810D01*
G01X-2008430Y4103810D02*
G01X-2008100Y4104030D01*
G01X-2008100Y4104030D02*
G01X-2007760Y4104220D01*
G01X-2007760Y4104220D02*
G01X-2007400Y4104370D01*
G01X-2007400Y4104370D02*
G01X-2007020Y4104490D01*
G01X-2007020Y4104490D02*
G01X-2006640Y4104570D01*
G01X-2006640Y4104570D02*
G01X-2006250Y4104610D01*
G01X-2006250Y4104610D02*
G01X-2005850Y4104610D01*
G01X-2005850Y4104610D02*
G01X-2005460Y4104570D01*
G01X-2005460Y4104570D02*
G01X-2005080Y4104490D01*
G01X-2005080Y4104490D02*
G01X-2004700Y4104370D01*
G01X-2004700Y4104370D02*
G01X-2004340Y4104220D01*
G01X-2004340Y4104220D02*
G01X-2004000Y4104030D01*
G01X-2004000Y4104030D02*
G01X-2003670Y4103810D01*
G01X-2003670Y4103810D02*
G01X-2003370Y4103560D01*
G01X-2003370Y4103560D02*
G01X-2003100Y4103280D01*
G01X-2003100Y4103280D02*
G01X-2002850Y4102970D01*
G01X-2002850Y4102970D02*
G01X-2002640Y4102640D01*
G01X-2002640Y4102640D02*
G01X-2002460Y4102290D01*
G01X-2002460Y4102290D02*
G01X-2002320Y4101920D01*
G01X-2002320Y4101920D02*
G01X-2002210Y4101550D01*
G01X-2002210Y4101550D02*
G01X-2002140Y4101160D01*
G01X-2002140Y4101160D02*
G01X-2002110Y4100770D01*
G01X-2002110Y4100770D02*
G01X-2002120Y4100380D01*
G01X-2002120Y4100380D02*
G01X-2002170Y4099990D01*
G01X-2002170Y4099990D02*
G01X-2002260Y4099600D01*
G01X-2002260Y4099600D02*
G01X-2002380Y4099230D01*
G01X-2002380Y4099230D02*
G01X-2002540Y4098870D01*
G01X-2002540Y4098870D02*
G01X-2002740Y4098530D01*
G01X-2002740Y4098530D02*
G01X-2002970Y4098210D01*
G01X-2002970Y4098210D02*
G01X-2003230Y4097920D01*
G01X-2003230Y4097920D02*
G01X-2003520Y4097650D01*
G01X-2003520Y4097650D02*
G01X-2003830Y4097410D01*
G01X-2003830Y4097410D02*
G01X-2004170Y4097210D01*
G01X-2004170Y4097210D02*
G01X-2004520Y4097040D01*
G01X-2004520Y4097040D02*
G01X-2004890Y4096910D01*
G01X-2004890Y4096910D02*
G01X-2005270Y4096810D01*
G01X-2005270Y4096810D02*
G01X-2005660Y4096750D01*
G01X-2005660Y4096750D02*
G01X-2006050Y4096730D01*
G01X-1641390Y4268080D02*
G01X-1641390Y4366510D01*
G01X-1523280Y4366510D02*
G01X-1523280Y4268080D01*
G54D30*
G01X-1912790Y4079790D02*
G01X-1929490Y4096500D01*
G01X-1940630Y4107630D02*
G01X-1957330Y4124340D01*
G01X-2001870Y4079790D02*
G01X-1985170Y4063090D01*
G01X-1974030Y4051960D02*
G01X-1957330Y4035250D01*
G54D31*
G01X-2284200Y4093080D03*
M02*
