G75*
%MOIN*%
%OFA0B0*%
%FSLAX25Y25*%
%IPPOS*%
%LPD*%
%AMOC8*
5,1,8,0,0,1.08239X$1,22.5*
%
%ADD10C,0.00000*%
%ADD11C,0.00000*%
D10*
X0059229Y0065733D02*
X0059229Y0290733D01*
X0459229Y0290733D01*
X0459229Y0065733D01*
X0059229Y0065733D01*
D11*
X0170007Y0090733D02*
X0170009Y0090827D01*
X0170015Y0090921D01*
X0170025Y0091014D01*
X0170039Y0091107D01*
X0170057Y0091200D01*
X0170078Y0091291D01*
X0170104Y0091382D01*
X0170134Y0091471D01*
X0170167Y0091559D01*
X0170204Y0091645D01*
X0170244Y0091730D01*
X0170288Y0091813D01*
X0170336Y0091894D01*
X0170387Y0091973D01*
X0170441Y0092050D01*
X0170499Y0092125D01*
X0170559Y0092196D01*
X0170623Y0092266D01*
X0170689Y0092332D01*
X0170759Y0092396D01*
X0170830Y0092456D01*
X0170905Y0092514D01*
X0170982Y0092568D01*
X0171061Y0092619D01*
X0171142Y0092667D01*
X0171225Y0092711D01*
X0171310Y0092751D01*
X0171396Y0092788D01*
X0171484Y0092821D01*
X0171573Y0092851D01*
X0171664Y0092877D01*
X0171755Y0092898D01*
X0171848Y0092916D01*
X0171941Y0092930D01*
X0172034Y0092940D01*
X0172128Y0092946D01*
X0172222Y0092948D01*
X0172316Y0092946D01*
X0172410Y0092940D01*
X0172503Y0092930D01*
X0172596Y0092916D01*
X0172689Y0092898D01*
X0172780Y0092877D01*
X0172871Y0092851D01*
X0172960Y0092821D01*
X0173048Y0092788D01*
X0173134Y0092751D01*
X0173219Y0092711D01*
X0173302Y0092667D01*
X0173383Y0092619D01*
X0173462Y0092568D01*
X0173539Y0092514D01*
X0173614Y0092456D01*
X0173685Y0092396D01*
X0173755Y0092332D01*
X0173821Y0092266D01*
X0173885Y0092196D01*
X0173945Y0092125D01*
X0174003Y0092050D01*
X0174057Y0091973D01*
X0174108Y0091894D01*
X0174156Y0091813D01*
X0174200Y0091730D01*
X0174240Y0091645D01*
X0174277Y0091559D01*
X0174310Y0091471D01*
X0174340Y0091382D01*
X0174366Y0091291D01*
X0174387Y0091200D01*
X0174405Y0091107D01*
X0174419Y0091014D01*
X0174429Y0090921D01*
X0174435Y0090827D01*
X0174437Y0090733D01*
X0174435Y0090639D01*
X0174429Y0090545D01*
X0174419Y0090452D01*
X0174405Y0090359D01*
X0174387Y0090266D01*
X0174366Y0090175D01*
X0174340Y0090084D01*
X0174310Y0089995D01*
X0174277Y0089907D01*
X0174240Y0089821D01*
X0174200Y0089736D01*
X0174156Y0089653D01*
X0174108Y0089572D01*
X0174057Y0089493D01*
X0174003Y0089416D01*
X0173945Y0089341D01*
X0173885Y0089270D01*
X0173821Y0089200D01*
X0173755Y0089134D01*
X0173685Y0089070D01*
X0173614Y0089010D01*
X0173539Y0088952D01*
X0173462Y0088898D01*
X0173383Y0088847D01*
X0173302Y0088799D01*
X0173219Y0088755D01*
X0173134Y0088715D01*
X0173048Y0088678D01*
X0172960Y0088645D01*
X0172871Y0088615D01*
X0172780Y0088589D01*
X0172689Y0088568D01*
X0172596Y0088550D01*
X0172503Y0088536D01*
X0172410Y0088526D01*
X0172316Y0088520D01*
X0172222Y0088518D01*
X0172128Y0088520D01*
X0172034Y0088526D01*
X0171941Y0088536D01*
X0171848Y0088550D01*
X0171755Y0088568D01*
X0171664Y0088589D01*
X0171573Y0088615D01*
X0171484Y0088645D01*
X0171396Y0088678D01*
X0171310Y0088715D01*
X0171225Y0088755D01*
X0171142Y0088799D01*
X0171061Y0088847D01*
X0170982Y0088898D01*
X0170905Y0088952D01*
X0170830Y0089010D01*
X0170759Y0089070D01*
X0170689Y0089134D01*
X0170623Y0089200D01*
X0170559Y0089270D01*
X0170499Y0089341D01*
X0170441Y0089416D01*
X0170387Y0089493D01*
X0170336Y0089572D01*
X0170288Y0089653D01*
X0170244Y0089736D01*
X0170204Y0089821D01*
X0170167Y0089907D01*
X0170134Y0089995D01*
X0170104Y0090084D01*
X0170078Y0090175D01*
X0170057Y0090266D01*
X0170039Y0090359D01*
X0170025Y0090452D01*
X0170015Y0090545D01*
X0170009Y0090639D01*
X0170007Y0090733D01*
X0170009Y0090827D01*
X0170015Y0090921D01*
X0170025Y0091014D01*
X0170039Y0091107D01*
X0170057Y0091200D01*
X0170078Y0091291D01*
X0170104Y0091382D01*
X0170134Y0091471D01*
X0170167Y0091559D01*
X0170204Y0091645D01*
X0170244Y0091730D01*
X0170288Y0091813D01*
X0170336Y0091894D01*
X0170387Y0091973D01*
X0170441Y0092050D01*
X0170499Y0092125D01*
X0170559Y0092196D01*
X0170623Y0092266D01*
X0170689Y0092332D01*
X0170759Y0092396D01*
X0170830Y0092456D01*
X0170905Y0092514D01*
X0170982Y0092568D01*
X0171061Y0092619D01*
X0171142Y0092667D01*
X0171225Y0092711D01*
X0171310Y0092751D01*
X0171396Y0092788D01*
X0171484Y0092821D01*
X0171573Y0092851D01*
X0171664Y0092877D01*
X0171755Y0092898D01*
X0171848Y0092916D01*
X0171941Y0092930D01*
X0172034Y0092940D01*
X0172128Y0092946D01*
X0172222Y0092948D01*
X0172316Y0092946D01*
X0172410Y0092940D01*
X0172503Y0092930D01*
X0172596Y0092916D01*
X0172689Y0092898D01*
X0172780Y0092877D01*
X0172871Y0092851D01*
X0172960Y0092821D01*
X0173048Y0092788D01*
X0173134Y0092751D01*
X0173219Y0092711D01*
X0173302Y0092667D01*
X0173383Y0092619D01*
X0173462Y0092568D01*
X0173539Y0092514D01*
X0173614Y0092456D01*
X0173685Y0092396D01*
X0173755Y0092332D01*
X0173821Y0092266D01*
X0173885Y0092196D01*
X0173945Y0092125D01*
X0174003Y0092050D01*
X0174057Y0091973D01*
X0174108Y0091894D01*
X0174156Y0091813D01*
X0174200Y0091730D01*
X0174240Y0091645D01*
X0174277Y0091559D01*
X0174310Y0091471D01*
X0174340Y0091382D01*
X0174366Y0091291D01*
X0174387Y0091200D01*
X0174405Y0091107D01*
X0174419Y0091014D01*
X0174429Y0090921D01*
X0174435Y0090827D01*
X0174437Y0090733D01*
X0174435Y0090639D01*
X0174429Y0090545D01*
X0174419Y0090452D01*
X0174405Y0090359D01*
X0174387Y0090266D01*
X0174366Y0090175D01*
X0174340Y0090084D01*
X0174310Y0089995D01*
X0174277Y0089907D01*
X0174240Y0089821D01*
X0174200Y0089736D01*
X0174156Y0089653D01*
X0174108Y0089572D01*
X0174057Y0089493D01*
X0174003Y0089416D01*
X0173945Y0089341D01*
X0173885Y0089270D01*
X0173821Y0089200D01*
X0173755Y0089134D01*
X0173685Y0089070D01*
X0173614Y0089010D01*
X0173539Y0088952D01*
X0173462Y0088898D01*
X0173383Y0088847D01*
X0173302Y0088799D01*
X0173219Y0088755D01*
X0173134Y0088715D01*
X0173048Y0088678D01*
X0172960Y0088645D01*
X0172871Y0088615D01*
X0172780Y0088589D01*
X0172689Y0088568D01*
X0172596Y0088550D01*
X0172503Y0088536D01*
X0172410Y0088526D01*
X0172316Y0088520D01*
X0172222Y0088518D01*
X0172128Y0088520D01*
X0172034Y0088526D01*
X0171941Y0088536D01*
X0171848Y0088550D01*
X0171755Y0088568D01*
X0171664Y0088589D01*
X0171573Y0088615D01*
X0171484Y0088645D01*
X0171396Y0088678D01*
X0171310Y0088715D01*
X0171225Y0088755D01*
X0171142Y0088799D01*
X0171061Y0088847D01*
X0170982Y0088898D01*
X0170905Y0088952D01*
X0170830Y0089010D01*
X0170759Y0089070D01*
X0170689Y0089134D01*
X0170623Y0089200D01*
X0170559Y0089270D01*
X0170499Y0089341D01*
X0170441Y0089416D01*
X0170387Y0089493D01*
X0170336Y0089572D01*
X0170288Y0089653D01*
X0170244Y0089736D01*
X0170204Y0089821D01*
X0170167Y0089907D01*
X0170134Y0089995D01*
X0170104Y0090084D01*
X0170078Y0090175D01*
X0170057Y0090266D01*
X0170039Y0090359D01*
X0170025Y0090452D01*
X0170015Y0090545D01*
X0170009Y0090639D01*
X0170007Y0090733D01*
X0156405Y0220241D02*
X0156407Y0220311D01*
X0156413Y0220380D01*
X0156423Y0220449D01*
X0156436Y0220517D01*
X0156454Y0220584D01*
X0156475Y0220651D01*
X0156500Y0220716D01*
X0156529Y0220779D01*
X0156561Y0220841D01*
X0156597Y0220901D01*
X0156636Y0220958D01*
X0156678Y0221014D01*
X0156723Y0221067D01*
X0156771Y0221117D01*
X0156822Y0221164D01*
X0156876Y0221209D01*
X0156932Y0221250D01*
X0156990Y0221288D01*
X0157050Y0221323D01*
X0157113Y0221355D01*
X0157176Y0221382D01*
X0157242Y0221406D01*
X0157308Y0221427D01*
X0157376Y0221443D01*
X0157444Y0221456D01*
X0157513Y0221465D01*
X0157583Y0221470D01*
X0157652Y0221471D01*
X0157722Y0221468D01*
X0157791Y0221461D01*
X0157860Y0221450D01*
X0157928Y0221436D01*
X0157995Y0221417D01*
X0158061Y0221395D01*
X0158126Y0221369D01*
X0158189Y0221339D01*
X0158250Y0221306D01*
X0158309Y0221270D01*
X0158366Y0221230D01*
X0158421Y0221187D01*
X0158473Y0221141D01*
X0158523Y0221092D01*
X0158570Y0221040D01*
X0158613Y0220986D01*
X0158654Y0220930D01*
X0158691Y0220871D01*
X0158725Y0220810D01*
X0158756Y0220748D01*
X0158783Y0220683D01*
X0158806Y0220618D01*
X0158825Y0220551D01*
X0158841Y0220483D01*
X0158853Y0220414D01*
X0158861Y0220345D01*
X0158865Y0220276D01*
X0158865Y0220206D01*
X0158861Y0220137D01*
X0158853Y0220068D01*
X0158841Y0219999D01*
X0158825Y0219931D01*
X0158806Y0219864D01*
X0158783Y0219799D01*
X0158756Y0219734D01*
X0158725Y0219672D01*
X0158691Y0219611D01*
X0158654Y0219552D01*
X0158613Y0219496D01*
X0158570Y0219442D01*
X0158523Y0219390D01*
X0158473Y0219341D01*
X0158421Y0219295D01*
X0158366Y0219252D01*
X0158309Y0219212D01*
X0158250Y0219176D01*
X0158189Y0219143D01*
X0158126Y0219113D01*
X0158061Y0219087D01*
X0157995Y0219065D01*
X0157928Y0219046D01*
X0157860Y0219032D01*
X0157791Y0219021D01*
X0157722Y0219014D01*
X0157652Y0219011D01*
X0157583Y0219012D01*
X0157513Y0219017D01*
X0157444Y0219026D01*
X0157376Y0219039D01*
X0157308Y0219055D01*
X0157242Y0219076D01*
X0157176Y0219100D01*
X0157113Y0219127D01*
X0157050Y0219159D01*
X0156990Y0219194D01*
X0156932Y0219232D01*
X0156876Y0219273D01*
X0156822Y0219318D01*
X0156771Y0219365D01*
X0156723Y0219415D01*
X0156678Y0219468D01*
X0156636Y0219524D01*
X0156597Y0219581D01*
X0156561Y0219641D01*
X0156529Y0219703D01*
X0156500Y0219766D01*
X0156475Y0219831D01*
X0156454Y0219898D01*
X0156436Y0219965D01*
X0156423Y0220033D01*
X0156413Y0220102D01*
X0156407Y0220171D01*
X0156405Y0220241D01*
X0156405Y0246225D02*
X0156407Y0246295D01*
X0156413Y0246364D01*
X0156423Y0246433D01*
X0156436Y0246501D01*
X0156454Y0246568D01*
X0156475Y0246635D01*
X0156500Y0246700D01*
X0156529Y0246763D01*
X0156561Y0246825D01*
X0156597Y0246885D01*
X0156636Y0246942D01*
X0156678Y0246998D01*
X0156723Y0247051D01*
X0156771Y0247101D01*
X0156822Y0247148D01*
X0156876Y0247193D01*
X0156932Y0247234D01*
X0156990Y0247272D01*
X0157050Y0247307D01*
X0157113Y0247339D01*
X0157176Y0247366D01*
X0157242Y0247390D01*
X0157308Y0247411D01*
X0157376Y0247427D01*
X0157444Y0247440D01*
X0157513Y0247449D01*
X0157583Y0247454D01*
X0157652Y0247455D01*
X0157722Y0247452D01*
X0157791Y0247445D01*
X0157860Y0247434D01*
X0157928Y0247420D01*
X0157995Y0247401D01*
X0158061Y0247379D01*
X0158126Y0247353D01*
X0158189Y0247323D01*
X0158250Y0247290D01*
X0158309Y0247254D01*
X0158366Y0247214D01*
X0158421Y0247171D01*
X0158473Y0247125D01*
X0158523Y0247076D01*
X0158570Y0247024D01*
X0158613Y0246970D01*
X0158654Y0246914D01*
X0158691Y0246855D01*
X0158725Y0246794D01*
X0158756Y0246732D01*
X0158783Y0246667D01*
X0158806Y0246602D01*
X0158825Y0246535D01*
X0158841Y0246467D01*
X0158853Y0246398D01*
X0158861Y0246329D01*
X0158865Y0246260D01*
X0158865Y0246190D01*
X0158861Y0246121D01*
X0158853Y0246052D01*
X0158841Y0245983D01*
X0158825Y0245915D01*
X0158806Y0245848D01*
X0158783Y0245783D01*
X0158756Y0245718D01*
X0158725Y0245656D01*
X0158691Y0245595D01*
X0158654Y0245536D01*
X0158613Y0245480D01*
X0158570Y0245426D01*
X0158523Y0245374D01*
X0158473Y0245325D01*
X0158421Y0245279D01*
X0158366Y0245236D01*
X0158309Y0245196D01*
X0158250Y0245160D01*
X0158189Y0245127D01*
X0158126Y0245097D01*
X0158061Y0245071D01*
X0157995Y0245049D01*
X0157928Y0245030D01*
X0157860Y0245016D01*
X0157791Y0245005D01*
X0157722Y0244998D01*
X0157652Y0244995D01*
X0157583Y0244996D01*
X0157513Y0245001D01*
X0157444Y0245010D01*
X0157376Y0245023D01*
X0157308Y0245039D01*
X0157242Y0245060D01*
X0157176Y0245084D01*
X0157113Y0245111D01*
X0157050Y0245143D01*
X0156990Y0245178D01*
X0156932Y0245216D01*
X0156876Y0245257D01*
X0156822Y0245302D01*
X0156771Y0245349D01*
X0156723Y0245399D01*
X0156678Y0245452D01*
X0156636Y0245508D01*
X0156597Y0245565D01*
X0156561Y0245625D01*
X0156529Y0245687D01*
X0156500Y0245750D01*
X0156475Y0245815D01*
X0156454Y0245882D01*
X0156436Y0245949D01*
X0156423Y0246017D01*
X0156413Y0246086D01*
X0156407Y0246155D01*
X0156405Y0246225D01*
X0170007Y0265733D02*
X0170009Y0265827D01*
X0170015Y0265921D01*
X0170025Y0266014D01*
X0170039Y0266107D01*
X0170057Y0266200D01*
X0170078Y0266291D01*
X0170104Y0266382D01*
X0170134Y0266471D01*
X0170167Y0266559D01*
X0170204Y0266645D01*
X0170244Y0266730D01*
X0170288Y0266813D01*
X0170336Y0266894D01*
X0170387Y0266973D01*
X0170441Y0267050D01*
X0170499Y0267125D01*
X0170559Y0267196D01*
X0170623Y0267266D01*
X0170689Y0267332D01*
X0170759Y0267396D01*
X0170830Y0267456D01*
X0170905Y0267514D01*
X0170982Y0267568D01*
X0171061Y0267619D01*
X0171142Y0267667D01*
X0171225Y0267711D01*
X0171310Y0267751D01*
X0171396Y0267788D01*
X0171484Y0267821D01*
X0171573Y0267851D01*
X0171664Y0267877D01*
X0171755Y0267898D01*
X0171848Y0267916D01*
X0171941Y0267930D01*
X0172034Y0267940D01*
X0172128Y0267946D01*
X0172222Y0267948D01*
X0172316Y0267946D01*
X0172410Y0267940D01*
X0172503Y0267930D01*
X0172596Y0267916D01*
X0172689Y0267898D01*
X0172780Y0267877D01*
X0172871Y0267851D01*
X0172960Y0267821D01*
X0173048Y0267788D01*
X0173134Y0267751D01*
X0173219Y0267711D01*
X0173302Y0267667D01*
X0173383Y0267619D01*
X0173462Y0267568D01*
X0173539Y0267514D01*
X0173614Y0267456D01*
X0173685Y0267396D01*
X0173755Y0267332D01*
X0173821Y0267266D01*
X0173885Y0267196D01*
X0173945Y0267125D01*
X0174003Y0267050D01*
X0174057Y0266973D01*
X0174108Y0266894D01*
X0174156Y0266813D01*
X0174200Y0266730D01*
X0174240Y0266645D01*
X0174277Y0266559D01*
X0174310Y0266471D01*
X0174340Y0266382D01*
X0174366Y0266291D01*
X0174387Y0266200D01*
X0174405Y0266107D01*
X0174419Y0266014D01*
X0174429Y0265921D01*
X0174435Y0265827D01*
X0174437Y0265733D01*
X0174435Y0265639D01*
X0174429Y0265545D01*
X0174419Y0265452D01*
X0174405Y0265359D01*
X0174387Y0265266D01*
X0174366Y0265175D01*
X0174340Y0265084D01*
X0174310Y0264995D01*
X0174277Y0264907D01*
X0174240Y0264821D01*
X0174200Y0264736D01*
X0174156Y0264653D01*
X0174108Y0264572D01*
X0174057Y0264493D01*
X0174003Y0264416D01*
X0173945Y0264341D01*
X0173885Y0264270D01*
X0173821Y0264200D01*
X0173755Y0264134D01*
X0173685Y0264070D01*
X0173614Y0264010D01*
X0173539Y0263952D01*
X0173462Y0263898D01*
X0173383Y0263847D01*
X0173302Y0263799D01*
X0173219Y0263755D01*
X0173134Y0263715D01*
X0173048Y0263678D01*
X0172960Y0263645D01*
X0172871Y0263615D01*
X0172780Y0263589D01*
X0172689Y0263568D01*
X0172596Y0263550D01*
X0172503Y0263536D01*
X0172410Y0263526D01*
X0172316Y0263520D01*
X0172222Y0263518D01*
X0172128Y0263520D01*
X0172034Y0263526D01*
X0171941Y0263536D01*
X0171848Y0263550D01*
X0171755Y0263568D01*
X0171664Y0263589D01*
X0171573Y0263615D01*
X0171484Y0263645D01*
X0171396Y0263678D01*
X0171310Y0263715D01*
X0171225Y0263755D01*
X0171142Y0263799D01*
X0171061Y0263847D01*
X0170982Y0263898D01*
X0170905Y0263952D01*
X0170830Y0264010D01*
X0170759Y0264070D01*
X0170689Y0264134D01*
X0170623Y0264200D01*
X0170559Y0264270D01*
X0170499Y0264341D01*
X0170441Y0264416D01*
X0170387Y0264493D01*
X0170336Y0264572D01*
X0170288Y0264653D01*
X0170244Y0264736D01*
X0170204Y0264821D01*
X0170167Y0264907D01*
X0170134Y0264995D01*
X0170104Y0265084D01*
X0170078Y0265175D01*
X0170057Y0265266D01*
X0170039Y0265359D01*
X0170025Y0265452D01*
X0170015Y0265545D01*
X0170009Y0265639D01*
X0170007Y0265733D01*
X0170009Y0265827D01*
X0170015Y0265921D01*
X0170025Y0266014D01*
X0170039Y0266107D01*
X0170057Y0266200D01*
X0170078Y0266291D01*
X0170104Y0266382D01*
X0170134Y0266471D01*
X0170167Y0266559D01*
X0170204Y0266645D01*
X0170244Y0266730D01*
X0170288Y0266813D01*
X0170336Y0266894D01*
X0170387Y0266973D01*
X0170441Y0267050D01*
X0170499Y0267125D01*
X0170559Y0267196D01*
X0170623Y0267266D01*
X0170689Y0267332D01*
X0170759Y0267396D01*
X0170830Y0267456D01*
X0170905Y0267514D01*
X0170982Y0267568D01*
X0171061Y0267619D01*
X0171142Y0267667D01*
X0171225Y0267711D01*
X0171310Y0267751D01*
X0171396Y0267788D01*
X0171484Y0267821D01*
X0171573Y0267851D01*
X0171664Y0267877D01*
X0171755Y0267898D01*
X0171848Y0267916D01*
X0171941Y0267930D01*
X0172034Y0267940D01*
X0172128Y0267946D01*
X0172222Y0267948D01*
X0172316Y0267946D01*
X0172410Y0267940D01*
X0172503Y0267930D01*
X0172596Y0267916D01*
X0172689Y0267898D01*
X0172780Y0267877D01*
X0172871Y0267851D01*
X0172960Y0267821D01*
X0173048Y0267788D01*
X0173134Y0267751D01*
X0173219Y0267711D01*
X0173302Y0267667D01*
X0173383Y0267619D01*
X0173462Y0267568D01*
X0173539Y0267514D01*
X0173614Y0267456D01*
X0173685Y0267396D01*
X0173755Y0267332D01*
X0173821Y0267266D01*
X0173885Y0267196D01*
X0173945Y0267125D01*
X0174003Y0267050D01*
X0174057Y0266973D01*
X0174108Y0266894D01*
X0174156Y0266813D01*
X0174200Y0266730D01*
X0174240Y0266645D01*
X0174277Y0266559D01*
X0174310Y0266471D01*
X0174340Y0266382D01*
X0174366Y0266291D01*
X0174387Y0266200D01*
X0174405Y0266107D01*
X0174419Y0266014D01*
X0174429Y0265921D01*
X0174435Y0265827D01*
X0174437Y0265733D01*
X0174435Y0265639D01*
X0174429Y0265545D01*
X0174419Y0265452D01*
X0174405Y0265359D01*
X0174387Y0265266D01*
X0174366Y0265175D01*
X0174340Y0265084D01*
X0174310Y0264995D01*
X0174277Y0264907D01*
X0174240Y0264821D01*
X0174200Y0264736D01*
X0174156Y0264653D01*
X0174108Y0264572D01*
X0174057Y0264493D01*
X0174003Y0264416D01*
X0173945Y0264341D01*
X0173885Y0264270D01*
X0173821Y0264200D01*
X0173755Y0264134D01*
X0173685Y0264070D01*
X0173614Y0264010D01*
X0173539Y0263952D01*
X0173462Y0263898D01*
X0173383Y0263847D01*
X0173302Y0263799D01*
X0173219Y0263755D01*
X0173134Y0263715D01*
X0173048Y0263678D01*
X0172960Y0263645D01*
X0172871Y0263615D01*
X0172780Y0263589D01*
X0172689Y0263568D01*
X0172596Y0263550D01*
X0172503Y0263536D01*
X0172410Y0263526D01*
X0172316Y0263520D01*
X0172222Y0263518D01*
X0172128Y0263520D01*
X0172034Y0263526D01*
X0171941Y0263536D01*
X0171848Y0263550D01*
X0171755Y0263568D01*
X0171664Y0263589D01*
X0171573Y0263615D01*
X0171484Y0263645D01*
X0171396Y0263678D01*
X0171310Y0263715D01*
X0171225Y0263755D01*
X0171142Y0263799D01*
X0171061Y0263847D01*
X0170982Y0263898D01*
X0170905Y0263952D01*
X0170830Y0264010D01*
X0170759Y0264070D01*
X0170689Y0264134D01*
X0170623Y0264200D01*
X0170559Y0264270D01*
X0170499Y0264341D01*
X0170441Y0264416D01*
X0170387Y0264493D01*
X0170336Y0264572D01*
X0170288Y0264653D01*
X0170244Y0264736D01*
X0170204Y0264821D01*
X0170167Y0264907D01*
X0170134Y0264995D01*
X0170104Y0265084D01*
X0170078Y0265175D01*
X0170057Y0265266D01*
X0170039Y0265359D01*
X0170025Y0265452D01*
X0170015Y0265545D01*
X0170009Y0265639D01*
X0170007Y0265733D01*
X0344810Y0265733D02*
X0344812Y0265808D01*
X0344818Y0265883D01*
X0344828Y0265958D01*
X0344842Y0266032D01*
X0344859Y0266105D01*
X0344881Y0266178D01*
X0344906Y0266248D01*
X0344935Y0266318D01*
X0344968Y0266386D01*
X0345004Y0266452D01*
X0345044Y0266516D01*
X0345087Y0266578D01*
X0345133Y0266637D01*
X0345182Y0266694D01*
X0345235Y0266749D01*
X0345290Y0266800D01*
X0345347Y0266849D01*
X0345407Y0266894D01*
X0345470Y0266936D01*
X0345534Y0266975D01*
X0345601Y0267010D01*
X0345669Y0267042D01*
X0345739Y0267070D01*
X0345810Y0267095D01*
X0345883Y0267115D01*
X0345956Y0267132D01*
X0346031Y0267145D01*
X0346105Y0267154D01*
X0346181Y0267159D01*
X0346256Y0267160D01*
X0346331Y0267157D01*
X0346406Y0267150D01*
X0346481Y0267139D01*
X0346555Y0267124D01*
X0346628Y0267106D01*
X0346699Y0267083D01*
X0346770Y0267057D01*
X0346839Y0267027D01*
X0346907Y0266993D01*
X0346972Y0266956D01*
X0347036Y0266916D01*
X0347097Y0266872D01*
X0347156Y0266825D01*
X0347212Y0266775D01*
X0347266Y0266722D01*
X0347317Y0266666D01*
X0347364Y0266608D01*
X0347409Y0266547D01*
X0347450Y0266484D01*
X0347488Y0266419D01*
X0347523Y0266352D01*
X0347554Y0266283D01*
X0347581Y0266213D01*
X0347604Y0266142D01*
X0347624Y0266069D01*
X0347640Y0265995D01*
X0347652Y0265921D01*
X0347660Y0265846D01*
X0347664Y0265771D01*
X0347664Y0265695D01*
X0347660Y0265620D01*
X0347652Y0265545D01*
X0347640Y0265471D01*
X0347624Y0265397D01*
X0347604Y0265324D01*
X0347581Y0265253D01*
X0347554Y0265183D01*
X0347523Y0265114D01*
X0347488Y0265047D01*
X0347450Y0264982D01*
X0347409Y0264919D01*
X0347364Y0264858D01*
X0347317Y0264800D01*
X0347266Y0264744D01*
X0347212Y0264691D01*
X0347156Y0264641D01*
X0347097Y0264594D01*
X0347036Y0264550D01*
X0346972Y0264510D01*
X0346907Y0264473D01*
X0346839Y0264439D01*
X0346770Y0264409D01*
X0346699Y0264383D01*
X0346628Y0264360D01*
X0346555Y0264342D01*
X0346481Y0264327D01*
X0346406Y0264316D01*
X0346331Y0264309D01*
X0346256Y0264306D01*
X0346181Y0264307D01*
X0346105Y0264312D01*
X0346031Y0264321D01*
X0345956Y0264334D01*
X0345883Y0264351D01*
X0345810Y0264371D01*
X0345739Y0264396D01*
X0345669Y0264424D01*
X0345601Y0264456D01*
X0345534Y0264491D01*
X0345470Y0264530D01*
X0345407Y0264572D01*
X0345347Y0264617D01*
X0345290Y0264666D01*
X0345235Y0264717D01*
X0345182Y0264772D01*
X0345133Y0264829D01*
X0345087Y0264888D01*
X0345044Y0264950D01*
X0345004Y0265014D01*
X0344968Y0265080D01*
X0344935Y0265148D01*
X0344906Y0265218D01*
X0344881Y0265288D01*
X0344859Y0265361D01*
X0344842Y0265434D01*
X0344828Y0265508D01*
X0344818Y0265583D01*
X0344812Y0265658D01*
X0344810Y0265733D01*
X0344812Y0265808D01*
X0344818Y0265883D01*
X0344828Y0265958D01*
X0344842Y0266032D01*
X0344859Y0266105D01*
X0344881Y0266178D01*
X0344906Y0266248D01*
X0344935Y0266318D01*
X0344968Y0266386D01*
X0345004Y0266452D01*
X0345044Y0266516D01*
X0345087Y0266578D01*
X0345133Y0266637D01*
X0345182Y0266694D01*
X0345235Y0266749D01*
X0345290Y0266800D01*
X0345347Y0266849D01*
X0345407Y0266894D01*
X0345470Y0266936D01*
X0345534Y0266975D01*
X0345601Y0267010D01*
X0345669Y0267042D01*
X0345739Y0267070D01*
X0345810Y0267095D01*
X0345883Y0267115D01*
X0345956Y0267132D01*
X0346031Y0267145D01*
X0346105Y0267154D01*
X0346181Y0267159D01*
X0346256Y0267160D01*
X0346331Y0267157D01*
X0346406Y0267150D01*
X0346481Y0267139D01*
X0346555Y0267124D01*
X0346628Y0267106D01*
X0346699Y0267083D01*
X0346770Y0267057D01*
X0346839Y0267027D01*
X0346907Y0266993D01*
X0346972Y0266956D01*
X0347036Y0266916D01*
X0347097Y0266872D01*
X0347156Y0266825D01*
X0347212Y0266775D01*
X0347266Y0266722D01*
X0347317Y0266666D01*
X0347364Y0266608D01*
X0347409Y0266547D01*
X0347450Y0266484D01*
X0347488Y0266419D01*
X0347523Y0266352D01*
X0347554Y0266283D01*
X0347581Y0266213D01*
X0347604Y0266142D01*
X0347624Y0266069D01*
X0347640Y0265995D01*
X0347652Y0265921D01*
X0347660Y0265846D01*
X0347664Y0265771D01*
X0347664Y0265695D01*
X0347660Y0265620D01*
X0347652Y0265545D01*
X0347640Y0265471D01*
X0347624Y0265397D01*
X0347604Y0265324D01*
X0347581Y0265253D01*
X0347554Y0265183D01*
X0347523Y0265114D01*
X0347488Y0265047D01*
X0347450Y0264982D01*
X0347409Y0264919D01*
X0347364Y0264858D01*
X0347317Y0264800D01*
X0347266Y0264744D01*
X0347212Y0264691D01*
X0347156Y0264641D01*
X0347097Y0264594D01*
X0347036Y0264550D01*
X0346972Y0264510D01*
X0346907Y0264473D01*
X0346839Y0264439D01*
X0346770Y0264409D01*
X0346699Y0264383D01*
X0346628Y0264360D01*
X0346555Y0264342D01*
X0346481Y0264327D01*
X0346406Y0264316D01*
X0346331Y0264309D01*
X0346256Y0264306D01*
X0346181Y0264307D01*
X0346105Y0264312D01*
X0346031Y0264321D01*
X0345956Y0264334D01*
X0345883Y0264351D01*
X0345810Y0264371D01*
X0345739Y0264396D01*
X0345669Y0264424D01*
X0345601Y0264456D01*
X0345534Y0264491D01*
X0345470Y0264530D01*
X0345407Y0264572D01*
X0345347Y0264617D01*
X0345290Y0264666D01*
X0345235Y0264717D01*
X0345182Y0264772D01*
X0345133Y0264829D01*
X0345087Y0264888D01*
X0345044Y0264950D01*
X0345004Y0265014D01*
X0344968Y0265080D01*
X0344935Y0265148D01*
X0344906Y0265218D01*
X0344881Y0265288D01*
X0344859Y0265361D01*
X0344842Y0265434D01*
X0344828Y0265508D01*
X0344818Y0265583D01*
X0344812Y0265658D01*
X0344810Y0265733D01*
X0359594Y0136225D02*
X0359596Y0136295D01*
X0359602Y0136364D01*
X0359612Y0136433D01*
X0359625Y0136501D01*
X0359643Y0136568D01*
X0359664Y0136635D01*
X0359689Y0136700D01*
X0359718Y0136763D01*
X0359750Y0136825D01*
X0359786Y0136885D01*
X0359825Y0136942D01*
X0359867Y0136998D01*
X0359912Y0137051D01*
X0359960Y0137101D01*
X0360011Y0137148D01*
X0360065Y0137193D01*
X0360121Y0137234D01*
X0360179Y0137272D01*
X0360239Y0137307D01*
X0360302Y0137339D01*
X0360365Y0137366D01*
X0360431Y0137390D01*
X0360497Y0137411D01*
X0360565Y0137427D01*
X0360633Y0137440D01*
X0360702Y0137449D01*
X0360772Y0137454D01*
X0360841Y0137455D01*
X0360911Y0137452D01*
X0360980Y0137445D01*
X0361049Y0137434D01*
X0361117Y0137420D01*
X0361184Y0137401D01*
X0361250Y0137379D01*
X0361315Y0137353D01*
X0361378Y0137323D01*
X0361439Y0137290D01*
X0361498Y0137254D01*
X0361555Y0137214D01*
X0361610Y0137171D01*
X0361662Y0137125D01*
X0361712Y0137076D01*
X0361759Y0137024D01*
X0361802Y0136970D01*
X0361843Y0136914D01*
X0361880Y0136855D01*
X0361914Y0136794D01*
X0361945Y0136732D01*
X0361972Y0136667D01*
X0361995Y0136602D01*
X0362014Y0136535D01*
X0362030Y0136467D01*
X0362042Y0136398D01*
X0362050Y0136329D01*
X0362054Y0136260D01*
X0362054Y0136190D01*
X0362050Y0136121D01*
X0362042Y0136052D01*
X0362030Y0135983D01*
X0362014Y0135915D01*
X0361995Y0135848D01*
X0361972Y0135783D01*
X0361945Y0135718D01*
X0361914Y0135656D01*
X0361880Y0135595D01*
X0361843Y0135536D01*
X0361802Y0135480D01*
X0361759Y0135426D01*
X0361712Y0135374D01*
X0361662Y0135325D01*
X0361610Y0135279D01*
X0361555Y0135236D01*
X0361498Y0135196D01*
X0361439Y0135160D01*
X0361378Y0135127D01*
X0361315Y0135097D01*
X0361250Y0135071D01*
X0361184Y0135049D01*
X0361117Y0135030D01*
X0361049Y0135016D01*
X0360980Y0135005D01*
X0360911Y0134998D01*
X0360841Y0134995D01*
X0360772Y0134996D01*
X0360702Y0135001D01*
X0360633Y0135010D01*
X0360565Y0135023D01*
X0360497Y0135039D01*
X0360431Y0135060D01*
X0360365Y0135084D01*
X0360302Y0135111D01*
X0360239Y0135143D01*
X0360179Y0135178D01*
X0360121Y0135216D01*
X0360065Y0135257D01*
X0360011Y0135302D01*
X0359960Y0135349D01*
X0359912Y0135399D01*
X0359867Y0135452D01*
X0359825Y0135508D01*
X0359786Y0135565D01*
X0359750Y0135625D01*
X0359718Y0135687D01*
X0359689Y0135750D01*
X0359664Y0135815D01*
X0359643Y0135882D01*
X0359625Y0135949D01*
X0359612Y0136017D01*
X0359602Y0136086D01*
X0359596Y0136155D01*
X0359594Y0136225D01*
X0359594Y0110241D02*
X0359596Y0110311D01*
X0359602Y0110380D01*
X0359612Y0110449D01*
X0359625Y0110517D01*
X0359643Y0110584D01*
X0359664Y0110651D01*
X0359689Y0110716D01*
X0359718Y0110779D01*
X0359750Y0110841D01*
X0359786Y0110901D01*
X0359825Y0110958D01*
X0359867Y0111014D01*
X0359912Y0111067D01*
X0359960Y0111117D01*
X0360011Y0111164D01*
X0360065Y0111209D01*
X0360121Y0111250D01*
X0360179Y0111288D01*
X0360239Y0111323D01*
X0360302Y0111355D01*
X0360365Y0111382D01*
X0360431Y0111406D01*
X0360497Y0111427D01*
X0360565Y0111443D01*
X0360633Y0111456D01*
X0360702Y0111465D01*
X0360772Y0111470D01*
X0360841Y0111471D01*
X0360911Y0111468D01*
X0360980Y0111461D01*
X0361049Y0111450D01*
X0361117Y0111436D01*
X0361184Y0111417D01*
X0361250Y0111395D01*
X0361315Y0111369D01*
X0361378Y0111339D01*
X0361439Y0111306D01*
X0361498Y0111270D01*
X0361555Y0111230D01*
X0361610Y0111187D01*
X0361662Y0111141D01*
X0361712Y0111092D01*
X0361759Y0111040D01*
X0361802Y0110986D01*
X0361843Y0110930D01*
X0361880Y0110871D01*
X0361914Y0110810D01*
X0361945Y0110748D01*
X0361972Y0110683D01*
X0361995Y0110618D01*
X0362014Y0110551D01*
X0362030Y0110483D01*
X0362042Y0110414D01*
X0362050Y0110345D01*
X0362054Y0110276D01*
X0362054Y0110206D01*
X0362050Y0110137D01*
X0362042Y0110068D01*
X0362030Y0109999D01*
X0362014Y0109931D01*
X0361995Y0109864D01*
X0361972Y0109799D01*
X0361945Y0109734D01*
X0361914Y0109672D01*
X0361880Y0109611D01*
X0361843Y0109552D01*
X0361802Y0109496D01*
X0361759Y0109442D01*
X0361712Y0109390D01*
X0361662Y0109341D01*
X0361610Y0109295D01*
X0361555Y0109252D01*
X0361498Y0109212D01*
X0361439Y0109176D01*
X0361378Y0109143D01*
X0361315Y0109113D01*
X0361250Y0109087D01*
X0361184Y0109065D01*
X0361117Y0109046D01*
X0361049Y0109032D01*
X0360980Y0109021D01*
X0360911Y0109014D01*
X0360841Y0109011D01*
X0360772Y0109012D01*
X0360702Y0109017D01*
X0360633Y0109026D01*
X0360565Y0109039D01*
X0360497Y0109055D01*
X0360431Y0109076D01*
X0360365Y0109100D01*
X0360302Y0109127D01*
X0360239Y0109159D01*
X0360179Y0109194D01*
X0360121Y0109232D01*
X0360065Y0109273D01*
X0360011Y0109318D01*
X0359960Y0109365D01*
X0359912Y0109415D01*
X0359867Y0109468D01*
X0359825Y0109524D01*
X0359786Y0109581D01*
X0359750Y0109641D01*
X0359718Y0109703D01*
X0359689Y0109766D01*
X0359664Y0109831D01*
X0359643Y0109898D01*
X0359625Y0109965D01*
X0359612Y0110033D01*
X0359602Y0110102D01*
X0359596Y0110171D01*
X0359594Y0110241D01*
X0344810Y0090733D02*
X0344812Y0090808D01*
X0344818Y0090883D01*
X0344828Y0090958D01*
X0344842Y0091032D01*
X0344859Y0091105D01*
X0344881Y0091178D01*
X0344906Y0091248D01*
X0344935Y0091318D01*
X0344968Y0091386D01*
X0345004Y0091452D01*
X0345044Y0091516D01*
X0345087Y0091578D01*
X0345133Y0091637D01*
X0345182Y0091694D01*
X0345235Y0091749D01*
X0345290Y0091800D01*
X0345347Y0091849D01*
X0345407Y0091894D01*
X0345470Y0091936D01*
X0345534Y0091975D01*
X0345601Y0092010D01*
X0345669Y0092042D01*
X0345739Y0092070D01*
X0345810Y0092095D01*
X0345883Y0092115D01*
X0345956Y0092132D01*
X0346031Y0092145D01*
X0346105Y0092154D01*
X0346181Y0092159D01*
X0346256Y0092160D01*
X0346331Y0092157D01*
X0346406Y0092150D01*
X0346481Y0092139D01*
X0346555Y0092124D01*
X0346628Y0092106D01*
X0346699Y0092083D01*
X0346770Y0092057D01*
X0346839Y0092027D01*
X0346907Y0091993D01*
X0346972Y0091956D01*
X0347036Y0091916D01*
X0347097Y0091872D01*
X0347156Y0091825D01*
X0347212Y0091775D01*
X0347266Y0091722D01*
X0347317Y0091666D01*
X0347364Y0091608D01*
X0347409Y0091547D01*
X0347450Y0091484D01*
X0347488Y0091419D01*
X0347523Y0091352D01*
X0347554Y0091283D01*
X0347581Y0091213D01*
X0347604Y0091142D01*
X0347624Y0091069D01*
X0347640Y0090995D01*
X0347652Y0090921D01*
X0347660Y0090846D01*
X0347664Y0090771D01*
X0347664Y0090695D01*
X0347660Y0090620D01*
X0347652Y0090545D01*
X0347640Y0090471D01*
X0347624Y0090397D01*
X0347604Y0090324D01*
X0347581Y0090253D01*
X0347554Y0090183D01*
X0347523Y0090114D01*
X0347488Y0090047D01*
X0347450Y0089982D01*
X0347409Y0089919D01*
X0347364Y0089858D01*
X0347317Y0089800D01*
X0347266Y0089744D01*
X0347212Y0089691D01*
X0347156Y0089641D01*
X0347097Y0089594D01*
X0347036Y0089550D01*
X0346972Y0089510D01*
X0346907Y0089473D01*
X0346839Y0089439D01*
X0346770Y0089409D01*
X0346699Y0089383D01*
X0346628Y0089360D01*
X0346555Y0089342D01*
X0346481Y0089327D01*
X0346406Y0089316D01*
X0346331Y0089309D01*
X0346256Y0089306D01*
X0346181Y0089307D01*
X0346105Y0089312D01*
X0346031Y0089321D01*
X0345956Y0089334D01*
X0345883Y0089351D01*
X0345810Y0089371D01*
X0345739Y0089396D01*
X0345669Y0089424D01*
X0345601Y0089456D01*
X0345534Y0089491D01*
X0345470Y0089530D01*
X0345407Y0089572D01*
X0345347Y0089617D01*
X0345290Y0089666D01*
X0345235Y0089717D01*
X0345182Y0089772D01*
X0345133Y0089829D01*
X0345087Y0089888D01*
X0345044Y0089950D01*
X0345004Y0090014D01*
X0344968Y0090080D01*
X0344935Y0090148D01*
X0344906Y0090218D01*
X0344881Y0090288D01*
X0344859Y0090361D01*
X0344842Y0090434D01*
X0344828Y0090508D01*
X0344818Y0090583D01*
X0344812Y0090658D01*
X0344810Y0090733D01*
X0344812Y0090808D01*
X0344818Y0090883D01*
X0344828Y0090958D01*
X0344842Y0091032D01*
X0344859Y0091105D01*
X0344881Y0091178D01*
X0344906Y0091248D01*
X0344935Y0091318D01*
X0344968Y0091386D01*
X0345004Y0091452D01*
X0345044Y0091516D01*
X0345087Y0091578D01*
X0345133Y0091637D01*
X0345182Y0091694D01*
X0345235Y0091749D01*
X0345290Y0091800D01*
X0345347Y0091849D01*
X0345407Y0091894D01*
X0345470Y0091936D01*
X0345534Y0091975D01*
X0345601Y0092010D01*
X0345669Y0092042D01*
X0345739Y0092070D01*
X0345810Y0092095D01*
X0345883Y0092115D01*
X0345956Y0092132D01*
X0346031Y0092145D01*
X0346105Y0092154D01*
X0346181Y0092159D01*
X0346256Y0092160D01*
X0346331Y0092157D01*
X0346406Y0092150D01*
X0346481Y0092139D01*
X0346555Y0092124D01*
X0346628Y0092106D01*
X0346699Y0092083D01*
X0346770Y0092057D01*
X0346839Y0092027D01*
X0346907Y0091993D01*
X0346972Y0091956D01*
X0347036Y0091916D01*
X0347097Y0091872D01*
X0347156Y0091825D01*
X0347212Y0091775D01*
X0347266Y0091722D01*
X0347317Y0091666D01*
X0347364Y0091608D01*
X0347409Y0091547D01*
X0347450Y0091484D01*
X0347488Y0091419D01*
X0347523Y0091352D01*
X0347554Y0091283D01*
X0347581Y0091213D01*
X0347604Y0091142D01*
X0347624Y0091069D01*
X0347640Y0090995D01*
X0347652Y0090921D01*
X0347660Y0090846D01*
X0347664Y0090771D01*
X0347664Y0090695D01*
X0347660Y0090620D01*
X0347652Y0090545D01*
X0347640Y0090471D01*
X0347624Y0090397D01*
X0347604Y0090324D01*
X0347581Y0090253D01*
X0347554Y0090183D01*
X0347523Y0090114D01*
X0347488Y0090047D01*
X0347450Y0089982D01*
X0347409Y0089919D01*
X0347364Y0089858D01*
X0347317Y0089800D01*
X0347266Y0089744D01*
X0347212Y0089691D01*
X0347156Y0089641D01*
X0347097Y0089594D01*
X0347036Y0089550D01*
X0346972Y0089510D01*
X0346907Y0089473D01*
X0346839Y0089439D01*
X0346770Y0089409D01*
X0346699Y0089383D01*
X0346628Y0089360D01*
X0346555Y0089342D01*
X0346481Y0089327D01*
X0346406Y0089316D01*
X0346331Y0089309D01*
X0346256Y0089306D01*
X0346181Y0089307D01*
X0346105Y0089312D01*
X0346031Y0089321D01*
X0345956Y0089334D01*
X0345883Y0089351D01*
X0345810Y0089371D01*
X0345739Y0089396D01*
X0345669Y0089424D01*
X0345601Y0089456D01*
X0345534Y0089491D01*
X0345470Y0089530D01*
X0345407Y0089572D01*
X0345347Y0089617D01*
X0345290Y0089666D01*
X0345235Y0089717D01*
X0345182Y0089772D01*
X0345133Y0089829D01*
X0345087Y0089888D01*
X0345044Y0089950D01*
X0345004Y0090014D01*
X0344968Y0090080D01*
X0344935Y0090148D01*
X0344906Y0090218D01*
X0344881Y0090288D01*
X0344859Y0090361D01*
X0344842Y0090434D01*
X0344828Y0090508D01*
X0344818Y0090583D01*
X0344812Y0090658D01*
X0344810Y0090733D01*
M02*
