G75*
%MOIN*%
%OFA0B0*%
%FSLAX25Y25*%
%IPPOS*%
%LPD*%
%AMOC8*
5,1,8,0,0,1.08239X$1,22.5*
%
%ADD10C,0.00709*%
%ADD11C,0.00488*%
%ADD12C,0.00200*%
%ADD13C,0.00320*%
%ADD14C,0.00236*%
%ADD15R,0.01969X0.01969*%
%ADD16C,0.00440*%
%ADD17C,0.00906*%
%ADD18C,0.00591*%
%ADD19C,0.00472*%
%ADD20C,0.00315*%
%ADD21C,0.00197*%
%ADD22C,0.00748*%
%ADD23C,0.00650*%
D10*
X0133146Y0075044D02*
X0133146Y0081422D01*
X0133146Y0075044D02*
X0130312Y0075044D01*
X0130312Y0081422D01*
X0133146Y0081422D01*
X0133146Y0075752D02*
X0130312Y0075752D01*
X0130312Y0076460D02*
X0133146Y0076460D01*
X0133146Y0077168D02*
X0130312Y0077168D01*
X0130312Y0077876D02*
X0133146Y0077876D01*
X0133146Y0078584D02*
X0130312Y0078584D01*
X0130312Y0079292D02*
X0133146Y0079292D01*
X0133146Y0080000D02*
X0130312Y0080000D01*
X0130312Y0080708D02*
X0133146Y0080708D01*
X0133146Y0081416D02*
X0130312Y0081416D01*
X0143146Y0081422D02*
X0143146Y0075044D01*
X0140312Y0075044D01*
X0140312Y0081422D01*
X0143146Y0081422D01*
X0143146Y0075752D02*
X0140312Y0075752D01*
X0140312Y0076460D02*
X0143146Y0076460D01*
X0143146Y0077168D02*
X0140312Y0077168D01*
X0140312Y0077876D02*
X0143146Y0077876D01*
X0143146Y0078584D02*
X0140312Y0078584D01*
X0140312Y0079292D02*
X0143146Y0079292D01*
X0143146Y0080000D02*
X0140312Y0080000D01*
X0140312Y0080708D02*
X0143146Y0080708D01*
X0143146Y0081416D02*
X0140312Y0081416D01*
X0153146Y0081422D02*
X0153146Y0075044D01*
X0150312Y0075044D01*
X0150312Y0081422D01*
X0153146Y0081422D01*
X0153146Y0075752D02*
X0150312Y0075752D01*
X0150312Y0076460D02*
X0153146Y0076460D01*
X0153146Y0077168D02*
X0150312Y0077168D01*
X0150312Y0077876D02*
X0153146Y0077876D01*
X0153146Y0078584D02*
X0150312Y0078584D01*
X0150312Y0079292D02*
X0153146Y0079292D01*
X0153146Y0080000D02*
X0150312Y0080000D01*
X0150312Y0080708D02*
X0153146Y0080708D01*
X0153146Y0081416D02*
X0150312Y0081416D01*
X0163146Y0081422D02*
X0163146Y0075044D01*
X0160312Y0075044D01*
X0160312Y0081422D01*
X0163146Y0081422D01*
X0163146Y0075752D02*
X0160312Y0075752D01*
X0160312Y0076460D02*
X0163146Y0076460D01*
X0163146Y0077168D02*
X0160312Y0077168D01*
X0160312Y0077876D02*
X0163146Y0077876D01*
X0163146Y0078584D02*
X0160312Y0078584D01*
X0160312Y0079292D02*
X0163146Y0079292D01*
X0163146Y0080000D02*
X0160312Y0080000D01*
X0160312Y0080708D02*
X0163146Y0080708D01*
X0163146Y0081416D02*
X0160312Y0081416D01*
X0163146Y0100044D02*
X0163146Y0106422D01*
X0163146Y0100044D02*
X0160312Y0100044D01*
X0160312Y0106422D01*
X0163146Y0106422D01*
X0163146Y0100752D02*
X0160312Y0100752D01*
X0160312Y0101460D02*
X0163146Y0101460D01*
X0163146Y0102168D02*
X0160312Y0102168D01*
X0160312Y0102876D02*
X0163146Y0102876D01*
X0163146Y0103584D02*
X0160312Y0103584D01*
X0160312Y0104292D02*
X0163146Y0104292D01*
X0163146Y0105000D02*
X0160312Y0105000D01*
X0160312Y0105708D02*
X0163146Y0105708D01*
X0163146Y0106416D02*
X0160312Y0106416D01*
X0153146Y0106422D02*
X0153146Y0100044D01*
X0150312Y0100044D01*
X0150312Y0106422D01*
X0153146Y0106422D01*
X0153146Y0100752D02*
X0150312Y0100752D01*
X0150312Y0101460D02*
X0153146Y0101460D01*
X0153146Y0102168D02*
X0150312Y0102168D01*
X0150312Y0102876D02*
X0153146Y0102876D01*
X0153146Y0103584D02*
X0150312Y0103584D01*
X0150312Y0104292D02*
X0153146Y0104292D01*
X0153146Y0105000D02*
X0150312Y0105000D01*
X0150312Y0105708D02*
X0153146Y0105708D01*
X0153146Y0106416D02*
X0150312Y0106416D01*
X0143146Y0106422D02*
X0143146Y0100044D01*
X0140312Y0100044D01*
X0140312Y0106422D01*
X0143146Y0106422D01*
X0143146Y0100752D02*
X0140312Y0100752D01*
X0140312Y0101460D02*
X0143146Y0101460D01*
X0143146Y0102168D02*
X0140312Y0102168D01*
X0140312Y0102876D02*
X0143146Y0102876D01*
X0143146Y0103584D02*
X0140312Y0103584D01*
X0140312Y0104292D02*
X0143146Y0104292D01*
X0143146Y0105000D02*
X0140312Y0105000D01*
X0140312Y0105708D02*
X0143146Y0105708D01*
X0143146Y0106416D02*
X0140312Y0106416D01*
X0133146Y0106422D02*
X0133146Y0100044D01*
X0130312Y0100044D01*
X0130312Y0106422D01*
X0133146Y0106422D01*
X0133146Y0100752D02*
X0130312Y0100752D01*
X0130312Y0101460D02*
X0133146Y0101460D01*
X0133146Y0102168D02*
X0130312Y0102168D01*
X0130312Y0102876D02*
X0133146Y0102876D01*
X0133146Y0103584D02*
X0130312Y0103584D01*
X0130312Y0104292D02*
X0133146Y0104292D01*
X0133146Y0105000D02*
X0130312Y0105000D01*
X0130312Y0105708D02*
X0133146Y0105708D01*
X0133146Y0106416D02*
X0130312Y0106416D01*
X0133146Y0250044D02*
X0133146Y0256422D01*
X0133146Y0250044D02*
X0130312Y0250044D01*
X0130312Y0256422D01*
X0133146Y0256422D01*
X0133146Y0250752D02*
X0130312Y0250752D01*
X0130312Y0251460D02*
X0133146Y0251460D01*
X0133146Y0252168D02*
X0130312Y0252168D01*
X0130312Y0252876D02*
X0133146Y0252876D01*
X0133146Y0253584D02*
X0130312Y0253584D01*
X0130312Y0254292D02*
X0133146Y0254292D01*
X0133146Y0255000D02*
X0130312Y0255000D01*
X0130312Y0255708D02*
X0133146Y0255708D01*
X0133146Y0256416D02*
X0130312Y0256416D01*
X0143146Y0256422D02*
X0143146Y0250044D01*
X0140312Y0250044D01*
X0140312Y0256422D01*
X0143146Y0256422D01*
X0143146Y0250752D02*
X0140312Y0250752D01*
X0140312Y0251460D02*
X0143146Y0251460D01*
X0143146Y0252168D02*
X0140312Y0252168D01*
X0140312Y0252876D02*
X0143146Y0252876D01*
X0143146Y0253584D02*
X0140312Y0253584D01*
X0140312Y0254292D02*
X0143146Y0254292D01*
X0143146Y0255000D02*
X0140312Y0255000D01*
X0140312Y0255708D02*
X0143146Y0255708D01*
X0143146Y0256416D02*
X0140312Y0256416D01*
X0153146Y0256422D02*
X0153146Y0250044D01*
X0150312Y0250044D01*
X0150312Y0256422D01*
X0153146Y0256422D01*
X0153146Y0250752D02*
X0150312Y0250752D01*
X0150312Y0251460D02*
X0153146Y0251460D01*
X0153146Y0252168D02*
X0150312Y0252168D01*
X0150312Y0252876D02*
X0153146Y0252876D01*
X0153146Y0253584D02*
X0150312Y0253584D01*
X0150312Y0254292D02*
X0153146Y0254292D01*
X0153146Y0255000D02*
X0150312Y0255000D01*
X0150312Y0255708D02*
X0153146Y0255708D01*
X0153146Y0256416D02*
X0150312Y0256416D01*
X0163146Y0256422D02*
X0163146Y0250044D01*
X0160312Y0250044D01*
X0160312Y0256422D01*
X0163146Y0256422D01*
X0163146Y0250752D02*
X0160312Y0250752D01*
X0160312Y0251460D02*
X0163146Y0251460D01*
X0163146Y0252168D02*
X0160312Y0252168D01*
X0160312Y0252876D02*
X0163146Y0252876D01*
X0163146Y0253584D02*
X0160312Y0253584D01*
X0160312Y0254292D02*
X0163146Y0254292D01*
X0163146Y0255000D02*
X0160312Y0255000D01*
X0160312Y0255708D02*
X0163146Y0255708D01*
X0163146Y0256416D02*
X0160312Y0256416D01*
X0163146Y0275044D02*
X0163146Y0281422D01*
X0163146Y0275044D02*
X0160312Y0275044D01*
X0160312Y0281422D01*
X0163146Y0281422D01*
X0163146Y0275752D02*
X0160312Y0275752D01*
X0160312Y0276460D02*
X0163146Y0276460D01*
X0163146Y0277168D02*
X0160312Y0277168D01*
X0160312Y0277876D02*
X0163146Y0277876D01*
X0163146Y0278584D02*
X0160312Y0278584D01*
X0160312Y0279292D02*
X0163146Y0279292D01*
X0163146Y0280000D02*
X0160312Y0280000D01*
X0160312Y0280708D02*
X0163146Y0280708D01*
X0163146Y0281416D02*
X0160312Y0281416D01*
X0153146Y0281422D02*
X0153146Y0275044D01*
X0150312Y0275044D01*
X0150312Y0281422D01*
X0153146Y0281422D01*
X0153146Y0275752D02*
X0150312Y0275752D01*
X0150312Y0276460D02*
X0153146Y0276460D01*
X0153146Y0277168D02*
X0150312Y0277168D01*
X0150312Y0277876D02*
X0153146Y0277876D01*
X0153146Y0278584D02*
X0150312Y0278584D01*
X0150312Y0279292D02*
X0153146Y0279292D01*
X0153146Y0280000D02*
X0150312Y0280000D01*
X0150312Y0280708D02*
X0153146Y0280708D01*
X0153146Y0281416D02*
X0150312Y0281416D01*
X0143146Y0281422D02*
X0143146Y0275044D01*
X0140312Y0275044D01*
X0140312Y0281422D01*
X0143146Y0281422D01*
X0143146Y0275752D02*
X0140312Y0275752D01*
X0140312Y0276460D02*
X0143146Y0276460D01*
X0143146Y0277168D02*
X0140312Y0277168D01*
X0140312Y0277876D02*
X0143146Y0277876D01*
X0143146Y0278584D02*
X0140312Y0278584D01*
X0140312Y0279292D02*
X0143146Y0279292D01*
X0143146Y0280000D02*
X0140312Y0280000D01*
X0140312Y0280708D02*
X0143146Y0280708D01*
X0143146Y0281416D02*
X0140312Y0281416D01*
X0133146Y0281422D02*
X0133146Y0275044D01*
X0130312Y0275044D01*
X0130312Y0281422D01*
X0133146Y0281422D01*
X0133146Y0275752D02*
X0130312Y0275752D01*
X0130312Y0276460D02*
X0133146Y0276460D01*
X0133146Y0277168D02*
X0130312Y0277168D01*
X0130312Y0277876D02*
X0133146Y0277876D01*
X0133146Y0278584D02*
X0130312Y0278584D01*
X0130312Y0279292D02*
X0133146Y0279292D01*
X0133146Y0280000D02*
X0130312Y0280000D01*
X0130312Y0280708D02*
X0133146Y0280708D01*
X0133146Y0281416D02*
X0130312Y0281416D01*
X0355312Y0281422D02*
X0355312Y0275044D01*
X0355312Y0281422D02*
X0358146Y0281422D01*
X0358146Y0275044D01*
X0355312Y0275044D01*
X0355312Y0275752D02*
X0358146Y0275752D01*
X0358146Y0276460D02*
X0355312Y0276460D01*
X0355312Y0277168D02*
X0358146Y0277168D01*
X0358146Y0277876D02*
X0355312Y0277876D01*
X0355312Y0278584D02*
X0358146Y0278584D01*
X0358146Y0279292D02*
X0355312Y0279292D01*
X0355312Y0280000D02*
X0358146Y0280000D01*
X0358146Y0280708D02*
X0355312Y0280708D01*
X0355312Y0281416D02*
X0358146Y0281416D01*
X0365312Y0281422D02*
X0365312Y0275044D01*
X0365312Y0281422D02*
X0368146Y0281422D01*
X0368146Y0275044D01*
X0365312Y0275044D01*
X0365312Y0275752D02*
X0368146Y0275752D01*
X0368146Y0276460D02*
X0365312Y0276460D01*
X0365312Y0277168D02*
X0368146Y0277168D01*
X0368146Y0277876D02*
X0365312Y0277876D01*
X0365312Y0278584D02*
X0368146Y0278584D01*
X0368146Y0279292D02*
X0365312Y0279292D01*
X0365312Y0280000D02*
X0368146Y0280000D01*
X0368146Y0280708D02*
X0365312Y0280708D01*
X0365312Y0281416D02*
X0368146Y0281416D01*
X0375312Y0281422D02*
X0375312Y0275044D01*
X0375312Y0281422D02*
X0378146Y0281422D01*
X0378146Y0275044D01*
X0375312Y0275044D01*
X0375312Y0275752D02*
X0378146Y0275752D01*
X0378146Y0276460D02*
X0375312Y0276460D01*
X0375312Y0277168D02*
X0378146Y0277168D01*
X0378146Y0277876D02*
X0375312Y0277876D01*
X0375312Y0278584D02*
X0378146Y0278584D01*
X0378146Y0279292D02*
X0375312Y0279292D01*
X0375312Y0280000D02*
X0378146Y0280000D01*
X0378146Y0280708D02*
X0375312Y0280708D01*
X0375312Y0281416D02*
X0378146Y0281416D01*
X0385312Y0281422D02*
X0385312Y0275044D01*
X0385312Y0281422D02*
X0388146Y0281422D01*
X0388146Y0275044D01*
X0385312Y0275044D01*
X0385312Y0275752D02*
X0388146Y0275752D01*
X0388146Y0276460D02*
X0385312Y0276460D01*
X0385312Y0277168D02*
X0388146Y0277168D01*
X0388146Y0277876D02*
X0385312Y0277876D01*
X0385312Y0278584D02*
X0388146Y0278584D01*
X0388146Y0279292D02*
X0385312Y0279292D01*
X0385312Y0280000D02*
X0388146Y0280000D01*
X0388146Y0280708D02*
X0385312Y0280708D01*
X0385312Y0281416D02*
X0388146Y0281416D01*
X0385312Y0256422D02*
X0385312Y0250044D01*
X0385312Y0256422D02*
X0388146Y0256422D01*
X0388146Y0250044D01*
X0385312Y0250044D01*
X0385312Y0250752D02*
X0388146Y0250752D01*
X0388146Y0251460D02*
X0385312Y0251460D01*
X0385312Y0252168D02*
X0388146Y0252168D01*
X0388146Y0252876D02*
X0385312Y0252876D01*
X0385312Y0253584D02*
X0388146Y0253584D01*
X0388146Y0254292D02*
X0385312Y0254292D01*
X0385312Y0255000D02*
X0388146Y0255000D01*
X0388146Y0255708D02*
X0385312Y0255708D01*
X0385312Y0256416D02*
X0388146Y0256416D01*
X0375312Y0256422D02*
X0375312Y0250044D01*
X0375312Y0256422D02*
X0378146Y0256422D01*
X0378146Y0250044D01*
X0375312Y0250044D01*
X0375312Y0250752D02*
X0378146Y0250752D01*
X0378146Y0251460D02*
X0375312Y0251460D01*
X0375312Y0252168D02*
X0378146Y0252168D01*
X0378146Y0252876D02*
X0375312Y0252876D01*
X0375312Y0253584D02*
X0378146Y0253584D01*
X0378146Y0254292D02*
X0375312Y0254292D01*
X0375312Y0255000D02*
X0378146Y0255000D01*
X0378146Y0255708D02*
X0375312Y0255708D01*
X0375312Y0256416D02*
X0378146Y0256416D01*
X0365312Y0256422D02*
X0365312Y0250044D01*
X0365312Y0256422D02*
X0368146Y0256422D01*
X0368146Y0250044D01*
X0365312Y0250044D01*
X0365312Y0250752D02*
X0368146Y0250752D01*
X0368146Y0251460D02*
X0365312Y0251460D01*
X0365312Y0252168D02*
X0368146Y0252168D01*
X0368146Y0252876D02*
X0365312Y0252876D01*
X0365312Y0253584D02*
X0368146Y0253584D01*
X0368146Y0254292D02*
X0365312Y0254292D01*
X0365312Y0255000D02*
X0368146Y0255000D01*
X0368146Y0255708D02*
X0365312Y0255708D01*
X0365312Y0256416D02*
X0368146Y0256416D01*
X0355312Y0256422D02*
X0355312Y0250044D01*
X0355312Y0256422D02*
X0358146Y0256422D01*
X0358146Y0250044D01*
X0355312Y0250044D01*
X0355312Y0250752D02*
X0358146Y0250752D01*
X0358146Y0251460D02*
X0355312Y0251460D01*
X0355312Y0252168D02*
X0358146Y0252168D01*
X0358146Y0252876D02*
X0355312Y0252876D01*
X0355312Y0253584D02*
X0358146Y0253584D01*
X0358146Y0254292D02*
X0355312Y0254292D01*
X0355312Y0255000D02*
X0358146Y0255000D01*
X0358146Y0255708D02*
X0355312Y0255708D01*
X0355312Y0256416D02*
X0358146Y0256416D01*
X0355312Y0106422D02*
X0355312Y0100044D01*
X0355312Y0106422D02*
X0358146Y0106422D01*
X0358146Y0100044D01*
X0355312Y0100044D01*
X0355312Y0100752D02*
X0358146Y0100752D01*
X0358146Y0101460D02*
X0355312Y0101460D01*
X0355312Y0102168D02*
X0358146Y0102168D01*
X0358146Y0102876D02*
X0355312Y0102876D01*
X0355312Y0103584D02*
X0358146Y0103584D01*
X0358146Y0104292D02*
X0355312Y0104292D01*
X0355312Y0105000D02*
X0358146Y0105000D01*
X0358146Y0105708D02*
X0355312Y0105708D01*
X0355312Y0106416D02*
X0358146Y0106416D01*
X0365312Y0106422D02*
X0365312Y0100044D01*
X0365312Y0106422D02*
X0368146Y0106422D01*
X0368146Y0100044D01*
X0365312Y0100044D01*
X0365312Y0100752D02*
X0368146Y0100752D01*
X0368146Y0101460D02*
X0365312Y0101460D01*
X0365312Y0102168D02*
X0368146Y0102168D01*
X0368146Y0102876D02*
X0365312Y0102876D01*
X0365312Y0103584D02*
X0368146Y0103584D01*
X0368146Y0104292D02*
X0365312Y0104292D01*
X0365312Y0105000D02*
X0368146Y0105000D01*
X0368146Y0105708D02*
X0365312Y0105708D01*
X0365312Y0106416D02*
X0368146Y0106416D01*
X0375312Y0106422D02*
X0375312Y0100044D01*
X0375312Y0106422D02*
X0378146Y0106422D01*
X0378146Y0100044D01*
X0375312Y0100044D01*
X0375312Y0100752D02*
X0378146Y0100752D01*
X0378146Y0101460D02*
X0375312Y0101460D01*
X0375312Y0102168D02*
X0378146Y0102168D01*
X0378146Y0102876D02*
X0375312Y0102876D01*
X0375312Y0103584D02*
X0378146Y0103584D01*
X0378146Y0104292D02*
X0375312Y0104292D01*
X0375312Y0105000D02*
X0378146Y0105000D01*
X0378146Y0105708D02*
X0375312Y0105708D01*
X0375312Y0106416D02*
X0378146Y0106416D01*
X0385312Y0106422D02*
X0385312Y0100044D01*
X0385312Y0106422D02*
X0388146Y0106422D01*
X0388146Y0100044D01*
X0385312Y0100044D01*
X0385312Y0100752D02*
X0388146Y0100752D01*
X0388146Y0101460D02*
X0385312Y0101460D01*
X0385312Y0102168D02*
X0388146Y0102168D01*
X0388146Y0102876D02*
X0385312Y0102876D01*
X0385312Y0103584D02*
X0388146Y0103584D01*
X0388146Y0104292D02*
X0385312Y0104292D01*
X0385312Y0105000D02*
X0388146Y0105000D01*
X0388146Y0105708D02*
X0385312Y0105708D01*
X0385312Y0106416D02*
X0388146Y0106416D01*
X0385312Y0081422D02*
X0385312Y0075044D01*
X0385312Y0081422D02*
X0388146Y0081422D01*
X0388146Y0075044D01*
X0385312Y0075044D01*
X0385312Y0075752D02*
X0388146Y0075752D01*
X0388146Y0076460D02*
X0385312Y0076460D01*
X0385312Y0077168D02*
X0388146Y0077168D01*
X0388146Y0077876D02*
X0385312Y0077876D01*
X0385312Y0078584D02*
X0388146Y0078584D01*
X0388146Y0079292D02*
X0385312Y0079292D01*
X0385312Y0080000D02*
X0388146Y0080000D01*
X0388146Y0080708D02*
X0385312Y0080708D01*
X0385312Y0081416D02*
X0388146Y0081416D01*
X0375312Y0081422D02*
X0375312Y0075044D01*
X0375312Y0081422D02*
X0378146Y0081422D01*
X0378146Y0075044D01*
X0375312Y0075044D01*
X0375312Y0075752D02*
X0378146Y0075752D01*
X0378146Y0076460D02*
X0375312Y0076460D01*
X0375312Y0077168D02*
X0378146Y0077168D01*
X0378146Y0077876D02*
X0375312Y0077876D01*
X0375312Y0078584D02*
X0378146Y0078584D01*
X0378146Y0079292D02*
X0375312Y0079292D01*
X0375312Y0080000D02*
X0378146Y0080000D01*
X0378146Y0080708D02*
X0375312Y0080708D01*
X0375312Y0081416D02*
X0378146Y0081416D01*
X0365312Y0081422D02*
X0365312Y0075044D01*
X0365312Y0081422D02*
X0368146Y0081422D01*
X0368146Y0075044D01*
X0365312Y0075044D01*
X0365312Y0075752D02*
X0368146Y0075752D01*
X0368146Y0076460D02*
X0365312Y0076460D01*
X0365312Y0077168D02*
X0368146Y0077168D01*
X0368146Y0077876D02*
X0365312Y0077876D01*
X0365312Y0078584D02*
X0368146Y0078584D01*
X0368146Y0079292D02*
X0365312Y0079292D01*
X0365312Y0080000D02*
X0368146Y0080000D01*
X0368146Y0080708D02*
X0365312Y0080708D01*
X0365312Y0081416D02*
X0368146Y0081416D01*
X0355312Y0081422D02*
X0355312Y0075044D01*
X0355312Y0081422D02*
X0358146Y0081422D01*
X0358146Y0075044D01*
X0355312Y0075044D01*
X0355312Y0075752D02*
X0358146Y0075752D01*
X0358146Y0076460D02*
X0355312Y0076460D01*
X0355312Y0077168D02*
X0358146Y0077168D01*
X0358146Y0077876D02*
X0355312Y0077876D01*
X0355312Y0078584D02*
X0358146Y0078584D01*
X0358146Y0079292D02*
X0355312Y0079292D01*
X0355312Y0080000D02*
X0358146Y0080000D01*
X0358146Y0080708D02*
X0355312Y0080708D01*
X0355312Y0081416D02*
X0358146Y0081416D01*
D11*
X0389503Y0116235D02*
X0389503Y0118187D01*
X0391455Y0118187D01*
X0391455Y0116235D01*
X0389503Y0116235D01*
X0389503Y0116722D02*
X0391455Y0116722D01*
X0391455Y0117209D02*
X0389503Y0117209D01*
X0389503Y0117696D02*
X0391455Y0117696D01*
X0391455Y0118183D02*
X0389503Y0118183D01*
X0389503Y0119779D02*
X0389503Y0121731D01*
X0391455Y0121731D01*
X0391455Y0119779D01*
X0389503Y0119779D01*
X0389503Y0120266D02*
X0391455Y0120266D01*
X0391455Y0120753D02*
X0389503Y0120753D01*
X0389503Y0121240D02*
X0391455Y0121240D01*
X0391455Y0121727D02*
X0389503Y0121727D01*
X0393253Y0121731D02*
X0393253Y0119779D01*
X0393253Y0121731D02*
X0395205Y0121731D01*
X0395205Y0119779D01*
X0393253Y0119779D01*
X0393253Y0120266D02*
X0395205Y0120266D01*
X0395205Y0120753D02*
X0393253Y0120753D01*
X0393253Y0121240D02*
X0395205Y0121240D01*
X0395205Y0121727D02*
X0393253Y0121727D01*
X0393253Y0118187D02*
X0393253Y0116235D01*
X0393253Y0118187D02*
X0395205Y0118187D01*
X0395205Y0116235D01*
X0393253Y0116235D01*
X0393253Y0116722D02*
X0395205Y0116722D01*
X0395205Y0117209D02*
X0393253Y0117209D01*
X0393253Y0117696D02*
X0395205Y0117696D01*
X0395205Y0118183D02*
X0393253Y0118183D01*
X0391477Y0139757D02*
X0389525Y0139757D01*
X0389525Y0141709D01*
X0391477Y0141709D01*
X0391477Y0139757D01*
X0391477Y0140244D02*
X0389525Y0140244D01*
X0389525Y0140731D02*
X0391477Y0140731D01*
X0391477Y0141218D02*
X0389525Y0141218D01*
X0389525Y0141705D02*
X0391477Y0141705D01*
X0387934Y0139757D02*
X0385982Y0139757D01*
X0385982Y0141709D01*
X0387934Y0141709D01*
X0387934Y0139757D01*
X0387934Y0140244D02*
X0385982Y0140244D01*
X0385982Y0140731D02*
X0387934Y0140731D01*
X0387934Y0141218D02*
X0385982Y0141218D01*
X0385982Y0141705D02*
X0387934Y0141705D01*
X0375205Y0147985D02*
X0375205Y0149937D01*
X0375205Y0147985D02*
X0373253Y0147985D01*
X0373253Y0149937D01*
X0375205Y0149937D01*
X0375205Y0148472D02*
X0373253Y0148472D01*
X0373253Y0148959D02*
X0375205Y0148959D01*
X0375205Y0149446D02*
X0373253Y0149446D01*
X0373253Y0149933D02*
X0375205Y0149933D01*
X0375205Y0151529D02*
X0375205Y0153481D01*
X0375205Y0151529D02*
X0373253Y0151529D01*
X0373253Y0153481D01*
X0375205Y0153481D01*
X0375205Y0152016D02*
X0373253Y0152016D01*
X0373253Y0152503D02*
X0375205Y0152503D01*
X0375205Y0152990D02*
X0373253Y0152990D01*
X0373253Y0153477D02*
X0375205Y0153477D01*
X0369503Y0153481D02*
X0369503Y0151529D01*
X0369503Y0153481D02*
X0371455Y0153481D01*
X0371455Y0151529D01*
X0369503Y0151529D01*
X0369503Y0152016D02*
X0371455Y0152016D01*
X0371455Y0152503D02*
X0369503Y0152503D01*
X0369503Y0152990D02*
X0371455Y0152990D01*
X0371455Y0153477D02*
X0369503Y0153477D01*
X0365753Y0153481D02*
X0365753Y0151529D01*
X0365753Y0153481D02*
X0367705Y0153481D01*
X0367705Y0151529D01*
X0365753Y0151529D01*
X0365753Y0152016D02*
X0367705Y0152016D01*
X0367705Y0152503D02*
X0365753Y0152503D01*
X0365753Y0152990D02*
X0367705Y0152990D01*
X0367705Y0153477D02*
X0365753Y0153477D01*
X0362003Y0153481D02*
X0362003Y0151529D01*
X0362003Y0153481D02*
X0363955Y0153481D01*
X0363955Y0151529D01*
X0362003Y0151529D01*
X0362003Y0152016D02*
X0363955Y0152016D01*
X0363955Y0152503D02*
X0362003Y0152503D01*
X0362003Y0152990D02*
X0363955Y0152990D01*
X0363955Y0153477D02*
X0362003Y0153477D01*
X0363955Y0156735D02*
X0363955Y0158687D01*
X0363955Y0156735D02*
X0362003Y0156735D01*
X0362003Y0158687D01*
X0363955Y0158687D01*
X0363955Y0157222D02*
X0362003Y0157222D01*
X0362003Y0157709D02*
X0363955Y0157709D01*
X0363955Y0158196D02*
X0362003Y0158196D01*
X0362003Y0158683D02*
X0363955Y0158683D01*
X0363955Y0160279D02*
X0363955Y0162231D01*
X0363955Y0160279D02*
X0362003Y0160279D01*
X0362003Y0162231D01*
X0363955Y0162231D01*
X0363955Y0160766D02*
X0362003Y0160766D01*
X0362003Y0161253D02*
X0363955Y0161253D01*
X0363955Y0161740D02*
X0362003Y0161740D01*
X0362003Y0162227D02*
X0363955Y0162227D01*
X0367705Y0162231D02*
X0367705Y0160279D01*
X0365753Y0160279D01*
X0365753Y0162231D01*
X0367705Y0162231D01*
X0367705Y0160766D02*
X0365753Y0160766D01*
X0365753Y0161253D02*
X0367705Y0161253D01*
X0367705Y0161740D02*
X0365753Y0161740D01*
X0365753Y0162227D02*
X0367705Y0162227D01*
X0367705Y0158687D02*
X0367705Y0156735D01*
X0365753Y0156735D01*
X0365753Y0158687D01*
X0367705Y0158687D01*
X0367705Y0157222D02*
X0365753Y0157222D01*
X0365753Y0157709D02*
X0367705Y0157709D01*
X0367705Y0158196D02*
X0365753Y0158196D01*
X0365753Y0158683D02*
X0367705Y0158683D01*
X0365753Y0149937D02*
X0365753Y0147985D01*
X0365753Y0149937D02*
X0367705Y0149937D01*
X0367705Y0147985D01*
X0365753Y0147985D01*
X0365753Y0148472D02*
X0367705Y0148472D01*
X0367705Y0148959D02*
X0365753Y0148959D01*
X0365753Y0149446D02*
X0367705Y0149446D01*
X0367705Y0149933D02*
X0365753Y0149933D01*
X0362003Y0149937D02*
X0362003Y0147985D01*
X0362003Y0149937D02*
X0363955Y0149937D01*
X0363955Y0147985D01*
X0362003Y0147985D01*
X0362003Y0148472D02*
X0363955Y0148472D01*
X0363955Y0148959D02*
X0362003Y0148959D01*
X0362003Y0149446D02*
X0363955Y0149446D01*
X0363955Y0149933D02*
X0362003Y0149933D01*
X0369503Y0149937D02*
X0369503Y0147985D01*
X0369503Y0149937D02*
X0371455Y0149937D01*
X0371455Y0147985D01*
X0369503Y0147985D01*
X0369503Y0148472D02*
X0371455Y0148472D01*
X0371455Y0148959D02*
X0369503Y0148959D01*
X0369503Y0149446D02*
X0371455Y0149446D01*
X0371455Y0149933D02*
X0369503Y0149933D01*
X0391482Y0175459D02*
X0393434Y0175459D01*
X0393434Y0173507D01*
X0391482Y0173507D01*
X0391482Y0175459D01*
X0391482Y0173994D02*
X0393434Y0173994D01*
X0393434Y0174481D02*
X0391482Y0174481D01*
X0391482Y0174968D02*
X0393434Y0174968D01*
X0393434Y0175455D02*
X0391482Y0175455D01*
X0395025Y0175459D02*
X0396977Y0175459D01*
X0396977Y0173507D01*
X0395025Y0173507D01*
X0395025Y0175459D01*
X0395025Y0173994D02*
X0396977Y0173994D01*
X0396977Y0174481D02*
X0395025Y0174481D01*
X0395025Y0174968D02*
X0396977Y0174968D01*
X0396977Y0175455D02*
X0395025Y0175455D01*
X0376977Y0191709D02*
X0375025Y0191709D01*
X0376977Y0191709D02*
X0376977Y0189757D01*
X0375025Y0189757D01*
X0375025Y0191709D01*
X0375025Y0190244D02*
X0376977Y0190244D01*
X0376977Y0190731D02*
X0375025Y0190731D01*
X0375025Y0191218D02*
X0376977Y0191218D01*
X0376977Y0191705D02*
X0375025Y0191705D01*
X0373434Y0191709D02*
X0371482Y0191709D01*
X0373434Y0191709D02*
X0373434Y0189757D01*
X0371482Y0189757D01*
X0371482Y0191709D01*
X0371482Y0190244D02*
X0373434Y0190244D01*
X0373434Y0190731D02*
X0371482Y0190731D01*
X0371482Y0191218D02*
X0373434Y0191218D01*
X0373434Y0191705D02*
X0371482Y0191705D01*
X0371482Y0193507D02*
X0373434Y0193507D01*
X0371482Y0193507D02*
X0371482Y0195459D01*
X0373434Y0195459D01*
X0373434Y0193507D01*
X0373434Y0193994D02*
X0371482Y0193994D01*
X0371482Y0194481D02*
X0373434Y0194481D01*
X0373434Y0194968D02*
X0371482Y0194968D01*
X0371482Y0195455D02*
X0373434Y0195455D01*
X0375025Y0193507D02*
X0376977Y0193507D01*
X0375025Y0193507D02*
X0375025Y0195459D01*
X0376977Y0195459D01*
X0376977Y0193507D01*
X0376977Y0193994D02*
X0375025Y0193994D01*
X0375025Y0194481D02*
X0376977Y0194481D01*
X0376977Y0194968D02*
X0375025Y0194968D01*
X0375025Y0195455D02*
X0376977Y0195455D01*
X0376482Y0209757D02*
X0378434Y0209757D01*
X0376482Y0209757D02*
X0376482Y0211709D01*
X0378434Y0211709D01*
X0378434Y0209757D01*
X0378434Y0210244D02*
X0376482Y0210244D01*
X0376482Y0210731D02*
X0378434Y0210731D01*
X0378434Y0211218D02*
X0376482Y0211218D01*
X0376482Y0211705D02*
X0378434Y0211705D01*
X0380025Y0209757D02*
X0381977Y0209757D01*
X0380025Y0209757D02*
X0380025Y0211709D01*
X0381977Y0211709D01*
X0381977Y0209757D01*
X0381977Y0210244D02*
X0380025Y0210244D01*
X0380025Y0210731D02*
X0381977Y0210731D01*
X0381977Y0211218D02*
X0380025Y0211218D01*
X0380025Y0211705D02*
X0381977Y0211705D01*
X0385753Y0221735D02*
X0385753Y0223687D01*
X0387705Y0223687D01*
X0387705Y0221735D01*
X0385753Y0221735D01*
X0385753Y0222222D02*
X0387705Y0222222D01*
X0387705Y0222709D02*
X0385753Y0222709D01*
X0385753Y0223196D02*
X0387705Y0223196D01*
X0387705Y0223683D02*
X0385753Y0223683D01*
X0385753Y0225279D02*
X0385753Y0227231D01*
X0387705Y0227231D01*
X0387705Y0225279D01*
X0385753Y0225279D01*
X0385753Y0225766D02*
X0387705Y0225766D01*
X0387705Y0226253D02*
X0385753Y0226253D01*
X0385753Y0226740D02*
X0387705Y0226740D01*
X0387705Y0227227D02*
X0385753Y0227227D01*
X0375753Y0227231D02*
X0375753Y0225279D01*
X0375753Y0227231D02*
X0377705Y0227231D01*
X0377705Y0225279D01*
X0375753Y0225279D01*
X0375753Y0225766D02*
X0377705Y0225766D01*
X0377705Y0226253D02*
X0375753Y0226253D01*
X0375753Y0226740D02*
X0377705Y0226740D01*
X0377705Y0227227D02*
X0375753Y0227227D01*
X0375753Y0223687D02*
X0375753Y0221735D01*
X0375753Y0223687D02*
X0377705Y0223687D01*
X0377705Y0221735D01*
X0375753Y0221735D01*
X0375753Y0222222D02*
X0377705Y0222222D01*
X0377705Y0222709D02*
X0375753Y0222709D01*
X0375753Y0223196D02*
X0377705Y0223196D01*
X0377705Y0223683D02*
X0375753Y0223683D01*
X0375753Y0239235D02*
X0375753Y0241187D01*
X0377705Y0241187D01*
X0377705Y0239235D01*
X0375753Y0239235D01*
X0375753Y0239722D02*
X0377705Y0239722D01*
X0377705Y0240209D02*
X0375753Y0240209D01*
X0375753Y0240696D02*
X0377705Y0240696D01*
X0377705Y0241183D02*
X0375753Y0241183D01*
X0375753Y0242779D02*
X0375753Y0244731D01*
X0377705Y0244731D01*
X0377705Y0242779D01*
X0375753Y0242779D01*
X0375753Y0243266D02*
X0377705Y0243266D01*
X0377705Y0243753D02*
X0375753Y0243753D01*
X0375753Y0244240D02*
X0377705Y0244240D01*
X0377705Y0244727D02*
X0375753Y0244727D01*
X0385753Y0244731D02*
X0385753Y0242779D01*
X0385753Y0244731D02*
X0387705Y0244731D01*
X0387705Y0242779D01*
X0385753Y0242779D01*
X0385753Y0243266D02*
X0387705Y0243266D01*
X0387705Y0243753D02*
X0385753Y0243753D01*
X0385753Y0244240D02*
X0387705Y0244240D01*
X0387705Y0244727D02*
X0385753Y0244727D01*
X0385753Y0241187D02*
X0385753Y0239235D01*
X0385753Y0241187D02*
X0387705Y0241187D01*
X0387705Y0239235D01*
X0385753Y0239235D01*
X0385753Y0239722D02*
X0387705Y0239722D01*
X0387705Y0240209D02*
X0385753Y0240209D01*
X0385753Y0240696D02*
X0387705Y0240696D01*
X0387705Y0241183D02*
X0385753Y0241183D01*
X0402003Y0227231D02*
X0402003Y0225279D01*
X0402003Y0227231D02*
X0403955Y0227231D01*
X0403955Y0225279D01*
X0402003Y0225279D01*
X0402003Y0225766D02*
X0403955Y0225766D01*
X0403955Y0226253D02*
X0402003Y0226253D01*
X0402003Y0226740D02*
X0403955Y0226740D01*
X0403955Y0227227D02*
X0402003Y0227227D01*
X0402003Y0223687D02*
X0402003Y0221735D01*
X0402003Y0223687D02*
X0403955Y0223687D01*
X0403955Y0221735D01*
X0402003Y0221735D01*
X0402003Y0222222D02*
X0403955Y0222222D01*
X0403955Y0222709D02*
X0402003Y0222709D01*
X0402003Y0223196D02*
X0403955Y0223196D01*
X0403955Y0223683D02*
X0402003Y0223683D01*
X0405753Y0223687D02*
X0405753Y0221735D01*
X0405753Y0223687D02*
X0407705Y0223687D01*
X0407705Y0221735D01*
X0405753Y0221735D01*
X0405753Y0222222D02*
X0407705Y0222222D01*
X0407705Y0222709D02*
X0405753Y0222709D01*
X0405753Y0223196D02*
X0407705Y0223196D01*
X0407705Y0223683D02*
X0405753Y0223683D01*
X0405753Y0225279D02*
X0405753Y0227231D01*
X0407705Y0227231D01*
X0407705Y0225279D01*
X0405753Y0225279D01*
X0405753Y0225766D02*
X0407705Y0225766D01*
X0407705Y0226253D02*
X0405753Y0226253D01*
X0405753Y0226740D02*
X0407705Y0226740D01*
X0407705Y0227227D02*
X0405753Y0227227D01*
X0405753Y0215981D02*
X0405753Y0214029D01*
X0405753Y0215981D02*
X0407705Y0215981D01*
X0407705Y0214029D01*
X0405753Y0214029D01*
X0405753Y0214516D02*
X0407705Y0214516D01*
X0407705Y0215003D02*
X0405753Y0215003D01*
X0405753Y0215490D02*
X0407705Y0215490D01*
X0407705Y0215977D02*
X0405753Y0215977D01*
X0405753Y0212437D02*
X0405753Y0210485D01*
X0405753Y0212437D02*
X0407705Y0212437D01*
X0407705Y0210485D01*
X0405753Y0210485D01*
X0405753Y0210972D02*
X0407705Y0210972D01*
X0407705Y0211459D02*
X0405753Y0211459D01*
X0405753Y0211946D02*
X0407705Y0211946D01*
X0407705Y0212433D02*
X0405753Y0212433D01*
X0411482Y0209757D02*
X0413434Y0209757D01*
X0411482Y0209757D02*
X0411482Y0211709D01*
X0413434Y0211709D01*
X0413434Y0209757D01*
X0413434Y0210244D02*
X0411482Y0210244D01*
X0411482Y0210731D02*
X0413434Y0210731D01*
X0413434Y0211218D02*
X0411482Y0211218D01*
X0411482Y0211705D02*
X0413434Y0211705D01*
X0415025Y0209757D02*
X0416977Y0209757D01*
X0415025Y0209757D02*
X0415025Y0211709D01*
X0416977Y0211709D01*
X0416977Y0209757D01*
X0416977Y0210244D02*
X0415025Y0210244D01*
X0415025Y0210731D02*
X0416977Y0210731D01*
X0416977Y0211218D02*
X0415025Y0211218D01*
X0415025Y0211705D02*
X0416977Y0211705D01*
X0416977Y0214757D02*
X0415025Y0214757D01*
X0415025Y0216709D01*
X0416977Y0216709D01*
X0416977Y0214757D01*
X0416977Y0215244D02*
X0415025Y0215244D01*
X0415025Y0215731D02*
X0416977Y0215731D01*
X0416977Y0216218D02*
X0415025Y0216218D01*
X0415025Y0216705D02*
X0416977Y0216705D01*
X0413434Y0214757D02*
X0411482Y0214757D01*
X0411482Y0216709D01*
X0413434Y0216709D01*
X0413434Y0214757D01*
X0413434Y0215244D02*
X0411482Y0215244D01*
X0411482Y0215731D02*
X0413434Y0215731D01*
X0413434Y0216218D02*
X0411482Y0216218D01*
X0411482Y0216705D02*
X0413434Y0216705D01*
X0424503Y0221735D02*
X0424503Y0223687D01*
X0426455Y0223687D01*
X0426455Y0221735D01*
X0424503Y0221735D01*
X0424503Y0222222D02*
X0426455Y0222222D01*
X0426455Y0222709D02*
X0424503Y0222709D01*
X0424503Y0223196D02*
X0426455Y0223196D01*
X0426455Y0223683D02*
X0424503Y0223683D01*
X0424503Y0225279D02*
X0424503Y0227231D01*
X0426455Y0227231D01*
X0426455Y0225279D01*
X0424503Y0225279D01*
X0424503Y0225766D02*
X0426455Y0225766D01*
X0426455Y0226253D02*
X0424503Y0226253D01*
X0424503Y0226740D02*
X0426455Y0226740D01*
X0426455Y0227227D02*
X0424503Y0227227D01*
X0397003Y0207231D02*
X0397003Y0205279D01*
X0397003Y0207231D02*
X0398955Y0207231D01*
X0398955Y0205279D01*
X0397003Y0205279D01*
X0397003Y0205766D02*
X0398955Y0205766D01*
X0398955Y0206253D02*
X0397003Y0206253D01*
X0397003Y0206740D02*
X0398955Y0206740D01*
X0398955Y0207227D02*
X0397003Y0207227D01*
X0397003Y0203687D02*
X0397003Y0201735D01*
X0397003Y0203687D02*
X0398955Y0203687D01*
X0398955Y0201735D01*
X0397003Y0201735D01*
X0397003Y0202222D02*
X0398955Y0202222D01*
X0398955Y0202709D02*
X0397003Y0202709D01*
X0397003Y0203196D02*
X0398955Y0203196D01*
X0398955Y0203683D02*
X0397003Y0203683D01*
X0397003Y0198481D02*
X0397003Y0196529D01*
X0397003Y0198481D02*
X0398955Y0198481D01*
X0398955Y0196529D01*
X0397003Y0196529D01*
X0397003Y0197016D02*
X0398955Y0197016D01*
X0398955Y0197503D02*
X0397003Y0197503D01*
X0397003Y0197990D02*
X0398955Y0197990D01*
X0398955Y0198477D02*
X0397003Y0198477D01*
X0397003Y0194937D02*
X0397003Y0192985D01*
X0397003Y0194937D02*
X0398955Y0194937D01*
X0398955Y0192985D01*
X0397003Y0192985D01*
X0397003Y0193472D02*
X0398955Y0193472D01*
X0398955Y0193959D02*
X0397003Y0193959D01*
X0397003Y0194446D02*
X0398955Y0194446D01*
X0398955Y0194933D02*
X0397003Y0194933D01*
X0416482Y0194209D02*
X0418434Y0194209D01*
X0418434Y0192257D01*
X0416482Y0192257D01*
X0416482Y0194209D01*
X0416482Y0192744D02*
X0418434Y0192744D01*
X0418434Y0193231D02*
X0416482Y0193231D01*
X0416482Y0193718D02*
X0418434Y0193718D01*
X0418434Y0194205D02*
X0416482Y0194205D01*
X0416482Y0199209D02*
X0418434Y0199209D01*
X0418434Y0197257D01*
X0416482Y0197257D01*
X0416482Y0199209D01*
X0416482Y0197744D02*
X0418434Y0197744D01*
X0418434Y0198231D02*
X0416482Y0198231D01*
X0416482Y0198718D02*
X0418434Y0198718D01*
X0418434Y0199205D02*
X0416482Y0199205D01*
X0420025Y0199209D02*
X0421977Y0199209D01*
X0421977Y0197257D01*
X0420025Y0197257D01*
X0420025Y0199209D01*
X0420025Y0197744D02*
X0421977Y0197744D01*
X0421977Y0198231D02*
X0420025Y0198231D01*
X0420025Y0198718D02*
X0421977Y0198718D01*
X0421977Y0199205D02*
X0420025Y0199205D01*
X0420025Y0194209D02*
X0421977Y0194209D01*
X0421977Y0192257D01*
X0420025Y0192257D01*
X0420025Y0194209D01*
X0420025Y0192744D02*
X0421977Y0192744D01*
X0421977Y0193231D02*
X0420025Y0193231D01*
X0420025Y0193718D02*
X0421977Y0193718D01*
X0421977Y0194205D02*
X0420025Y0194205D01*
X0441482Y0137257D02*
X0443434Y0137257D01*
X0441482Y0137257D02*
X0441482Y0139209D01*
X0443434Y0139209D01*
X0443434Y0137257D01*
X0443434Y0137744D02*
X0441482Y0137744D01*
X0441482Y0138231D02*
X0443434Y0138231D01*
X0443434Y0138718D02*
X0441482Y0138718D01*
X0441482Y0139205D02*
X0443434Y0139205D01*
X0445025Y0137257D02*
X0446977Y0137257D01*
X0445025Y0137257D02*
X0445025Y0139209D01*
X0446977Y0139209D01*
X0446977Y0137257D01*
X0446977Y0137744D02*
X0445025Y0137744D01*
X0445025Y0138231D02*
X0446977Y0138231D01*
X0446977Y0138718D02*
X0445025Y0138718D01*
X0445025Y0139205D02*
X0446977Y0139205D01*
X0436977Y0132142D02*
X0435025Y0132142D01*
X0436977Y0132142D02*
X0436977Y0130190D01*
X0435025Y0130190D01*
X0435025Y0132142D01*
X0435025Y0130677D02*
X0436977Y0130677D01*
X0436977Y0131164D02*
X0435025Y0131164D01*
X0435025Y0131651D02*
X0436977Y0131651D01*
X0436977Y0132138D02*
X0435025Y0132138D01*
X0433434Y0132142D02*
X0431482Y0132142D01*
X0433434Y0132142D02*
X0433434Y0130190D01*
X0431482Y0130190D01*
X0431482Y0132142D01*
X0431482Y0130677D02*
X0433434Y0130677D01*
X0433434Y0131164D02*
X0431482Y0131164D01*
X0431482Y0131651D02*
X0433434Y0131651D01*
X0433434Y0132138D02*
X0431482Y0132138D01*
X0431482Y0123481D02*
X0433434Y0123481D01*
X0433434Y0121529D01*
X0431482Y0121529D01*
X0431482Y0123481D01*
X0431482Y0122016D02*
X0433434Y0122016D01*
X0433434Y0122503D02*
X0431482Y0122503D01*
X0431482Y0122990D02*
X0433434Y0122990D01*
X0433434Y0123477D02*
X0431482Y0123477D01*
X0435025Y0123481D02*
X0436977Y0123481D01*
X0436977Y0121529D01*
X0435025Y0121529D01*
X0435025Y0123481D01*
X0435025Y0122016D02*
X0436977Y0122016D01*
X0436977Y0122503D02*
X0435025Y0122503D01*
X0435025Y0122990D02*
X0436977Y0122990D01*
X0436977Y0123477D02*
X0435025Y0123477D01*
X0435025Y0119150D02*
X0436977Y0119150D01*
X0436977Y0117198D01*
X0435025Y0117198D01*
X0435025Y0119150D01*
X0435025Y0117685D02*
X0436977Y0117685D01*
X0436977Y0118172D02*
X0435025Y0118172D01*
X0435025Y0118659D02*
X0436977Y0118659D01*
X0436977Y0119146D02*
X0435025Y0119146D01*
X0433434Y0119150D02*
X0431482Y0119150D01*
X0433434Y0119150D02*
X0433434Y0117198D01*
X0431482Y0117198D01*
X0431482Y0119150D01*
X0431482Y0117685D02*
X0433434Y0117685D01*
X0433434Y0118172D02*
X0431482Y0118172D01*
X0431482Y0118659D02*
X0433434Y0118659D01*
X0433434Y0119146D02*
X0431482Y0119146D01*
X0431482Y0110489D02*
X0433434Y0110489D01*
X0433434Y0108537D01*
X0431482Y0108537D01*
X0431482Y0110489D01*
X0431482Y0109024D02*
X0433434Y0109024D01*
X0433434Y0109511D02*
X0431482Y0109511D01*
X0431482Y0109998D02*
X0433434Y0109998D01*
X0433434Y0110485D02*
X0431482Y0110485D01*
X0435025Y0110489D02*
X0436977Y0110489D01*
X0436977Y0108537D01*
X0435025Y0108537D01*
X0435025Y0110489D01*
X0435025Y0109024D02*
X0436977Y0109024D01*
X0436977Y0109511D02*
X0435025Y0109511D01*
X0435025Y0109998D02*
X0436977Y0109998D01*
X0436977Y0110485D02*
X0435025Y0110485D01*
X0435025Y0106158D02*
X0436977Y0106158D01*
X0436977Y0104206D01*
X0435025Y0104206D01*
X0435025Y0106158D01*
X0435025Y0104693D02*
X0436977Y0104693D01*
X0436977Y0105180D02*
X0435025Y0105180D01*
X0435025Y0105667D02*
X0436977Y0105667D01*
X0436977Y0106154D02*
X0435025Y0106154D01*
X0433434Y0106158D02*
X0431482Y0106158D01*
X0433434Y0106158D02*
X0433434Y0104206D01*
X0431482Y0104206D01*
X0431482Y0106158D01*
X0431482Y0104693D02*
X0433434Y0104693D01*
X0433434Y0105180D02*
X0431482Y0105180D01*
X0431482Y0105667D02*
X0433434Y0105667D01*
X0433434Y0106154D02*
X0431482Y0106154D01*
X0431482Y0101827D02*
X0433434Y0101827D01*
X0433434Y0099875D01*
X0431482Y0099875D01*
X0431482Y0101827D01*
X0431482Y0100362D02*
X0433434Y0100362D01*
X0433434Y0100849D02*
X0431482Y0100849D01*
X0431482Y0101336D02*
X0433434Y0101336D01*
X0433434Y0101823D02*
X0431482Y0101823D01*
X0435025Y0101827D02*
X0436977Y0101827D01*
X0436977Y0099875D01*
X0435025Y0099875D01*
X0435025Y0101827D01*
X0435025Y0100362D02*
X0436977Y0100362D01*
X0436977Y0100849D02*
X0435025Y0100849D01*
X0435025Y0101336D02*
X0436977Y0101336D01*
X0436977Y0101823D02*
X0435025Y0101823D01*
X0408253Y0089731D02*
X0408253Y0087779D01*
X0408253Y0089731D02*
X0410205Y0089731D01*
X0410205Y0087779D01*
X0408253Y0087779D01*
X0408253Y0088266D02*
X0410205Y0088266D01*
X0410205Y0088753D02*
X0408253Y0088753D01*
X0408253Y0089240D02*
X0410205Y0089240D01*
X0410205Y0089727D02*
X0408253Y0089727D01*
X0408253Y0086187D02*
X0408253Y0084235D01*
X0408253Y0086187D02*
X0410205Y0086187D01*
X0410205Y0084235D01*
X0408253Y0084235D01*
X0408253Y0084722D02*
X0410205Y0084722D01*
X0410205Y0085209D02*
X0408253Y0085209D01*
X0408253Y0085696D02*
X0410205Y0085696D01*
X0410205Y0086183D02*
X0408253Y0086183D01*
X0331977Y0144209D02*
X0330025Y0144209D01*
X0331977Y0144209D02*
X0331977Y0142257D01*
X0330025Y0142257D01*
X0330025Y0144209D01*
X0330025Y0142744D02*
X0331977Y0142744D01*
X0331977Y0143231D02*
X0330025Y0143231D01*
X0330025Y0143718D02*
X0331977Y0143718D01*
X0331977Y0144205D02*
X0330025Y0144205D01*
X0328434Y0144209D02*
X0326482Y0144209D01*
X0328434Y0144209D02*
X0328434Y0142257D01*
X0326482Y0142257D01*
X0326482Y0144209D01*
X0326482Y0142744D02*
X0328434Y0142744D01*
X0328434Y0143231D02*
X0326482Y0143231D01*
X0326482Y0143718D02*
X0328434Y0143718D01*
X0328434Y0144205D02*
X0326482Y0144205D01*
X0296977Y0167257D02*
X0295025Y0167257D01*
X0295025Y0169209D01*
X0296977Y0169209D01*
X0296977Y0167257D01*
X0296977Y0167744D02*
X0295025Y0167744D01*
X0295025Y0168231D02*
X0296977Y0168231D01*
X0296977Y0168718D02*
X0295025Y0168718D01*
X0295025Y0169205D02*
X0296977Y0169205D01*
X0296977Y0171007D02*
X0295025Y0171007D01*
X0295025Y0172959D01*
X0296977Y0172959D01*
X0296977Y0171007D01*
X0296977Y0171494D02*
X0295025Y0171494D01*
X0295025Y0171981D02*
X0296977Y0171981D01*
X0296977Y0172468D02*
X0295025Y0172468D01*
X0295025Y0172955D02*
X0296977Y0172955D01*
X0293434Y0171007D02*
X0291482Y0171007D01*
X0291482Y0172959D01*
X0293434Y0172959D01*
X0293434Y0171007D01*
X0293434Y0171494D02*
X0291482Y0171494D01*
X0291482Y0171981D02*
X0293434Y0171981D01*
X0293434Y0172468D02*
X0291482Y0172468D01*
X0291482Y0172955D02*
X0293434Y0172955D01*
X0293434Y0177257D02*
X0291482Y0177257D01*
X0291482Y0179209D01*
X0293434Y0179209D01*
X0293434Y0177257D01*
X0293434Y0177744D02*
X0291482Y0177744D01*
X0291482Y0178231D02*
X0293434Y0178231D01*
X0293434Y0178718D02*
X0291482Y0178718D01*
X0291482Y0179205D02*
X0293434Y0179205D01*
X0295025Y0177257D02*
X0296977Y0177257D01*
X0295025Y0177257D02*
X0295025Y0179209D01*
X0296977Y0179209D01*
X0296977Y0177257D01*
X0296977Y0177744D02*
X0295025Y0177744D01*
X0295025Y0178231D02*
X0296977Y0178231D01*
X0296977Y0178718D02*
X0295025Y0178718D01*
X0295025Y0179205D02*
X0296977Y0179205D01*
X0296977Y0181007D02*
X0295025Y0181007D01*
X0295025Y0182959D01*
X0296977Y0182959D01*
X0296977Y0181007D01*
X0296977Y0181494D02*
X0295025Y0181494D01*
X0295025Y0181981D02*
X0296977Y0181981D01*
X0296977Y0182468D02*
X0295025Y0182468D01*
X0295025Y0182955D02*
X0296977Y0182955D01*
X0293434Y0181007D02*
X0291482Y0181007D01*
X0291482Y0182959D01*
X0293434Y0182959D01*
X0293434Y0181007D01*
X0293434Y0181494D02*
X0291482Y0181494D01*
X0291482Y0181981D02*
X0293434Y0181981D01*
X0293434Y0182468D02*
X0291482Y0182468D01*
X0291482Y0182955D02*
X0293434Y0182955D01*
X0289477Y0182959D02*
X0287525Y0182959D01*
X0289477Y0182959D02*
X0289477Y0181007D01*
X0287525Y0181007D01*
X0287525Y0182959D01*
X0287525Y0181494D02*
X0289477Y0181494D01*
X0289477Y0181981D02*
X0287525Y0181981D01*
X0287525Y0182468D02*
X0289477Y0182468D01*
X0289477Y0182955D02*
X0287525Y0182955D01*
X0285934Y0182959D02*
X0283982Y0182959D01*
X0285934Y0182959D02*
X0285934Y0181007D01*
X0283982Y0181007D01*
X0283982Y0182959D01*
X0283982Y0181494D02*
X0285934Y0181494D01*
X0285934Y0181981D02*
X0283982Y0181981D01*
X0283982Y0182468D02*
X0285934Y0182468D01*
X0285934Y0182955D02*
X0283982Y0182955D01*
X0283982Y0179209D02*
X0285934Y0179209D01*
X0285934Y0177257D01*
X0283982Y0177257D01*
X0283982Y0179209D01*
X0283982Y0177744D02*
X0285934Y0177744D01*
X0285934Y0178231D02*
X0283982Y0178231D01*
X0283982Y0178718D02*
X0285934Y0178718D01*
X0285934Y0179205D02*
X0283982Y0179205D01*
X0287525Y0179209D02*
X0289477Y0179209D01*
X0289477Y0177257D01*
X0287525Y0177257D01*
X0287525Y0179209D01*
X0287525Y0177744D02*
X0289477Y0177744D01*
X0289477Y0178231D02*
X0287525Y0178231D01*
X0287525Y0178718D02*
X0289477Y0178718D01*
X0289477Y0179205D02*
X0287525Y0179205D01*
X0291482Y0167257D02*
X0293434Y0167257D01*
X0291482Y0167257D02*
X0291482Y0169209D01*
X0293434Y0169209D01*
X0293434Y0167257D01*
X0293434Y0167744D02*
X0291482Y0167744D01*
X0291482Y0168231D02*
X0293434Y0168231D01*
X0293434Y0168718D02*
X0291482Y0168718D01*
X0291482Y0169205D02*
X0293434Y0169205D01*
X0265753Y0171735D02*
X0265753Y0173687D01*
X0267705Y0173687D01*
X0267705Y0171735D01*
X0265753Y0171735D01*
X0265753Y0172222D02*
X0267705Y0172222D01*
X0267705Y0172709D02*
X0265753Y0172709D01*
X0265753Y0173196D02*
X0267705Y0173196D01*
X0267705Y0173683D02*
X0265753Y0173683D01*
X0265753Y0175279D02*
X0265753Y0177231D01*
X0267705Y0177231D01*
X0267705Y0175279D01*
X0265753Y0175279D01*
X0265753Y0175766D02*
X0267705Y0175766D01*
X0267705Y0176253D02*
X0265753Y0176253D01*
X0265753Y0176740D02*
X0267705Y0176740D01*
X0267705Y0177227D02*
X0265753Y0177227D01*
X0265753Y0179235D02*
X0265753Y0181187D01*
X0267705Y0181187D01*
X0267705Y0179235D01*
X0265753Y0179235D01*
X0265753Y0179722D02*
X0267705Y0179722D01*
X0267705Y0180209D02*
X0265753Y0180209D01*
X0265753Y0180696D02*
X0267705Y0180696D01*
X0267705Y0181183D02*
X0265753Y0181183D01*
X0265753Y0182779D02*
X0265753Y0184731D01*
X0267705Y0184731D01*
X0267705Y0182779D01*
X0265753Y0182779D01*
X0265753Y0183266D02*
X0267705Y0183266D01*
X0267705Y0183753D02*
X0265753Y0183753D01*
X0265753Y0184240D02*
X0267705Y0184240D01*
X0267705Y0184727D02*
X0265753Y0184727D01*
X0247003Y0217985D02*
X0247003Y0219937D01*
X0248955Y0219937D01*
X0248955Y0217985D01*
X0247003Y0217985D01*
X0247003Y0218472D02*
X0248955Y0218472D01*
X0248955Y0218959D02*
X0247003Y0218959D01*
X0247003Y0219446D02*
X0248955Y0219446D01*
X0248955Y0219933D02*
X0247003Y0219933D01*
X0247003Y0221529D02*
X0247003Y0223481D01*
X0248955Y0223481D01*
X0248955Y0221529D01*
X0247003Y0221529D01*
X0247003Y0222016D02*
X0248955Y0222016D01*
X0248955Y0222503D02*
X0247003Y0222503D01*
X0247003Y0222990D02*
X0248955Y0222990D01*
X0248955Y0223477D02*
X0247003Y0223477D01*
X0191977Y0212257D02*
X0190025Y0212257D01*
X0190025Y0214209D01*
X0191977Y0214209D01*
X0191977Y0212257D01*
X0191977Y0212744D02*
X0190025Y0212744D01*
X0190025Y0213231D02*
X0191977Y0213231D01*
X0191977Y0213718D02*
X0190025Y0213718D01*
X0190025Y0214205D02*
X0191977Y0214205D01*
X0188434Y0212257D02*
X0186482Y0212257D01*
X0186482Y0214209D01*
X0188434Y0214209D01*
X0188434Y0212257D01*
X0188434Y0212744D02*
X0186482Y0212744D01*
X0186482Y0213231D02*
X0188434Y0213231D01*
X0188434Y0213718D02*
X0186482Y0213718D01*
X0186482Y0214205D02*
X0188434Y0214205D01*
X0156455Y0208481D02*
X0156455Y0206529D01*
X0154503Y0206529D01*
X0154503Y0208481D01*
X0156455Y0208481D01*
X0156455Y0207016D02*
X0154503Y0207016D01*
X0154503Y0207503D02*
X0156455Y0207503D01*
X0156455Y0207990D02*
X0154503Y0207990D01*
X0154503Y0208477D02*
X0156455Y0208477D01*
X0156455Y0204937D02*
X0156455Y0202985D01*
X0154503Y0202985D01*
X0154503Y0204937D01*
X0156455Y0204937D01*
X0156455Y0203472D02*
X0154503Y0203472D01*
X0154503Y0203959D02*
X0156455Y0203959D01*
X0156455Y0204446D02*
X0154503Y0204446D01*
X0154503Y0204933D02*
X0156455Y0204933D01*
X0152705Y0204937D02*
X0152705Y0202985D01*
X0150753Y0202985D01*
X0150753Y0204937D01*
X0152705Y0204937D01*
X0152705Y0203472D02*
X0150753Y0203472D01*
X0150753Y0203959D02*
X0152705Y0203959D01*
X0152705Y0204446D02*
X0150753Y0204446D01*
X0150753Y0204933D02*
X0152705Y0204933D01*
X0152705Y0206529D02*
X0152705Y0208481D01*
X0152705Y0206529D02*
X0150753Y0206529D01*
X0150753Y0208481D01*
X0152705Y0208481D01*
X0152705Y0207016D02*
X0150753Y0207016D01*
X0150753Y0207503D02*
X0152705Y0207503D01*
X0152705Y0207990D02*
X0150753Y0207990D01*
X0150753Y0208477D02*
X0152705Y0208477D01*
X0148955Y0208481D02*
X0148955Y0206529D01*
X0147003Y0206529D01*
X0147003Y0208481D01*
X0148955Y0208481D01*
X0148955Y0207016D02*
X0147003Y0207016D01*
X0147003Y0207503D02*
X0148955Y0207503D01*
X0148955Y0207990D02*
X0147003Y0207990D01*
X0147003Y0208477D02*
X0148955Y0208477D01*
X0148955Y0204937D02*
X0148955Y0202985D01*
X0147003Y0202985D01*
X0147003Y0204937D01*
X0148955Y0204937D01*
X0148955Y0203472D02*
X0147003Y0203472D01*
X0147003Y0203959D02*
X0148955Y0203959D01*
X0148955Y0204446D02*
X0147003Y0204446D01*
X0147003Y0204933D02*
X0148955Y0204933D01*
X0143253Y0204937D02*
X0143253Y0202985D01*
X0143253Y0204937D02*
X0145205Y0204937D01*
X0145205Y0202985D01*
X0143253Y0202985D01*
X0143253Y0203472D02*
X0145205Y0203472D01*
X0145205Y0203959D02*
X0143253Y0203959D01*
X0143253Y0204446D02*
X0145205Y0204446D01*
X0145205Y0204933D02*
X0143253Y0204933D01*
X0143253Y0206529D02*
X0143253Y0208481D01*
X0145205Y0208481D01*
X0145205Y0206529D01*
X0143253Y0206529D01*
X0143253Y0207016D02*
X0145205Y0207016D01*
X0145205Y0207503D02*
X0143253Y0207503D01*
X0143253Y0207990D02*
X0145205Y0207990D01*
X0145205Y0208477D02*
X0143253Y0208477D01*
X0132705Y0202231D02*
X0132705Y0200279D01*
X0130753Y0200279D01*
X0130753Y0202231D01*
X0132705Y0202231D01*
X0132705Y0200766D02*
X0130753Y0200766D01*
X0130753Y0201253D02*
X0132705Y0201253D01*
X0132705Y0201740D02*
X0130753Y0201740D01*
X0130753Y0202227D02*
X0132705Y0202227D01*
X0132705Y0198687D02*
X0132705Y0196735D01*
X0130753Y0196735D01*
X0130753Y0198687D01*
X0132705Y0198687D01*
X0132705Y0197222D02*
X0130753Y0197222D01*
X0130753Y0197709D02*
X0132705Y0197709D01*
X0132705Y0198196D02*
X0130753Y0198196D01*
X0130753Y0198683D02*
X0132705Y0198683D01*
X0132705Y0194731D02*
X0132705Y0192779D01*
X0130753Y0192779D01*
X0130753Y0194731D01*
X0132705Y0194731D01*
X0132705Y0193266D02*
X0130753Y0193266D01*
X0130753Y0193753D02*
X0132705Y0193753D01*
X0132705Y0194240D02*
X0130753Y0194240D01*
X0130753Y0194727D02*
X0132705Y0194727D01*
X0132705Y0191187D02*
X0132705Y0189235D01*
X0130753Y0189235D01*
X0130753Y0191187D01*
X0132705Y0191187D01*
X0132705Y0189722D02*
X0130753Y0189722D01*
X0130753Y0190209D02*
X0132705Y0190209D01*
X0132705Y0190696D02*
X0130753Y0190696D01*
X0130753Y0191183D02*
X0132705Y0191183D01*
X0150753Y0194235D02*
X0150753Y0196187D01*
X0152705Y0196187D01*
X0152705Y0194235D01*
X0150753Y0194235D01*
X0150753Y0194722D02*
X0152705Y0194722D01*
X0152705Y0195209D02*
X0150753Y0195209D01*
X0150753Y0195696D02*
X0152705Y0195696D01*
X0152705Y0196183D02*
X0150753Y0196183D01*
X0150753Y0197779D02*
X0150753Y0199731D01*
X0152705Y0199731D01*
X0152705Y0197779D01*
X0150753Y0197779D01*
X0150753Y0198266D02*
X0152705Y0198266D01*
X0152705Y0198753D02*
X0150753Y0198753D01*
X0150753Y0199240D02*
X0152705Y0199240D01*
X0152705Y0199727D02*
X0150753Y0199727D01*
X0154503Y0199731D02*
X0154503Y0197779D01*
X0154503Y0199731D02*
X0156455Y0199731D01*
X0156455Y0197779D01*
X0154503Y0197779D01*
X0154503Y0198266D02*
X0156455Y0198266D01*
X0156455Y0198753D02*
X0154503Y0198753D01*
X0154503Y0199240D02*
X0156455Y0199240D01*
X0156455Y0199727D02*
X0154503Y0199727D01*
X0154503Y0196187D02*
X0154503Y0194235D01*
X0154503Y0196187D02*
X0156455Y0196187D01*
X0156455Y0194235D01*
X0154503Y0194235D01*
X0154503Y0194722D02*
X0156455Y0194722D01*
X0156455Y0195209D02*
X0154503Y0195209D01*
X0154503Y0195696D02*
X0156455Y0195696D01*
X0156455Y0196183D02*
X0154503Y0196183D01*
X0132577Y0216709D02*
X0130625Y0216709D01*
X0132577Y0216709D02*
X0132577Y0214757D01*
X0130625Y0214757D01*
X0130625Y0216709D01*
X0130625Y0215244D02*
X0132577Y0215244D01*
X0132577Y0215731D02*
X0130625Y0215731D01*
X0130625Y0216218D02*
X0132577Y0216218D01*
X0132577Y0216705D02*
X0130625Y0216705D01*
X0129034Y0216709D02*
X0127082Y0216709D01*
X0129034Y0216709D02*
X0129034Y0214757D01*
X0127082Y0214757D01*
X0127082Y0216709D01*
X0127082Y0215244D02*
X0129034Y0215244D01*
X0129034Y0215731D02*
X0127082Y0215731D01*
X0127082Y0216218D02*
X0129034Y0216218D01*
X0129034Y0216705D02*
X0127082Y0216705D01*
X0128955Y0234735D02*
X0128955Y0236687D01*
X0128955Y0234735D02*
X0127003Y0234735D01*
X0127003Y0236687D01*
X0128955Y0236687D01*
X0128955Y0235222D02*
X0127003Y0235222D01*
X0127003Y0235709D02*
X0128955Y0235709D01*
X0128955Y0236196D02*
X0127003Y0236196D01*
X0127003Y0236683D02*
X0128955Y0236683D01*
X0128955Y0238279D02*
X0128955Y0240231D01*
X0128955Y0238279D02*
X0127003Y0238279D01*
X0127003Y0240231D01*
X0128955Y0240231D01*
X0128955Y0238766D02*
X0127003Y0238766D01*
X0127003Y0239253D02*
X0128955Y0239253D01*
X0128955Y0239740D02*
X0127003Y0239740D01*
X0127003Y0240227D02*
X0128955Y0240227D01*
X0125205Y0240231D02*
X0125205Y0238279D01*
X0123253Y0238279D01*
X0123253Y0240231D01*
X0125205Y0240231D01*
X0125205Y0238766D02*
X0123253Y0238766D01*
X0123253Y0239253D02*
X0125205Y0239253D01*
X0125205Y0239740D02*
X0123253Y0239740D01*
X0123253Y0240227D02*
X0125205Y0240227D01*
X0125205Y0236687D02*
X0125205Y0234735D01*
X0123253Y0234735D01*
X0123253Y0236687D01*
X0125205Y0236687D01*
X0125205Y0235222D02*
X0123253Y0235222D01*
X0123253Y0235709D02*
X0125205Y0235709D01*
X0125205Y0236196D02*
X0123253Y0236196D01*
X0123253Y0236683D02*
X0125205Y0236683D01*
X0095003Y0264985D02*
X0095003Y0266937D01*
X0096955Y0266937D01*
X0096955Y0264985D01*
X0095003Y0264985D01*
X0095003Y0265472D02*
X0096955Y0265472D01*
X0096955Y0265959D02*
X0095003Y0265959D01*
X0095003Y0266446D02*
X0096955Y0266446D01*
X0096955Y0266933D02*
X0095003Y0266933D01*
X0095003Y0268529D02*
X0095003Y0270481D01*
X0096955Y0270481D01*
X0096955Y0268529D01*
X0095003Y0268529D01*
X0095003Y0269016D02*
X0096955Y0269016D01*
X0096955Y0269503D02*
X0095003Y0269503D01*
X0095003Y0269990D02*
X0096955Y0269990D01*
X0096955Y0270477D02*
X0095003Y0270477D01*
X0141482Y0164757D02*
X0143434Y0164757D01*
X0141482Y0164757D02*
X0141482Y0166709D01*
X0143434Y0166709D01*
X0143434Y0164757D01*
X0143434Y0165244D02*
X0141482Y0165244D01*
X0141482Y0165731D02*
X0143434Y0165731D01*
X0143434Y0166218D02*
X0141482Y0166218D01*
X0141482Y0166705D02*
X0143434Y0166705D01*
X0145025Y0164757D02*
X0146977Y0164757D01*
X0145025Y0164757D02*
X0145025Y0166709D01*
X0146977Y0166709D01*
X0146977Y0164757D01*
X0146977Y0165244D02*
X0145025Y0165244D01*
X0145025Y0165731D02*
X0146977Y0165731D01*
X0146977Y0166218D02*
X0145025Y0166218D01*
X0145025Y0166705D02*
X0146977Y0166705D01*
X0146977Y0162959D02*
X0145025Y0162959D01*
X0146977Y0162959D02*
X0146977Y0161007D01*
X0145025Y0161007D01*
X0145025Y0162959D01*
X0145025Y0161494D02*
X0146977Y0161494D01*
X0146977Y0161981D02*
X0145025Y0161981D01*
X0145025Y0162468D02*
X0146977Y0162468D01*
X0146977Y0162955D02*
X0145025Y0162955D01*
X0143434Y0162959D02*
X0141482Y0162959D01*
X0143434Y0162959D02*
X0143434Y0161007D01*
X0141482Y0161007D01*
X0141482Y0162959D01*
X0141482Y0161494D02*
X0143434Y0161494D01*
X0143434Y0161981D02*
X0141482Y0161981D01*
X0141482Y0162468D02*
X0143434Y0162468D01*
X0143434Y0162955D02*
X0141482Y0162955D01*
X0141482Y0146709D02*
X0143434Y0146709D01*
X0143434Y0144757D01*
X0141482Y0144757D01*
X0141482Y0146709D01*
X0141482Y0145244D02*
X0143434Y0145244D01*
X0143434Y0145731D02*
X0141482Y0145731D01*
X0141482Y0146218D02*
X0143434Y0146218D01*
X0143434Y0146705D02*
X0141482Y0146705D01*
X0145025Y0146709D02*
X0146977Y0146709D01*
X0146977Y0144757D01*
X0145025Y0144757D01*
X0145025Y0146709D01*
X0145025Y0145244D02*
X0146977Y0145244D01*
X0146977Y0145731D02*
X0145025Y0145731D01*
X0145025Y0146218D02*
X0146977Y0146218D01*
X0146977Y0146705D02*
X0145025Y0146705D01*
X0142705Y0134731D02*
X0142705Y0132779D01*
X0140753Y0132779D01*
X0140753Y0134731D01*
X0142705Y0134731D01*
X0142705Y0133266D02*
X0140753Y0133266D01*
X0140753Y0133753D02*
X0142705Y0133753D01*
X0142705Y0134240D02*
X0140753Y0134240D01*
X0140753Y0134727D02*
X0142705Y0134727D01*
X0142705Y0131187D02*
X0142705Y0129235D01*
X0140753Y0129235D01*
X0140753Y0131187D01*
X0142705Y0131187D01*
X0142705Y0129722D02*
X0140753Y0129722D01*
X0140753Y0130209D02*
X0142705Y0130209D01*
X0142705Y0130696D02*
X0140753Y0130696D01*
X0140753Y0131183D02*
X0142705Y0131183D01*
X0132705Y0131187D02*
X0132705Y0129235D01*
X0130753Y0129235D01*
X0130753Y0131187D01*
X0132705Y0131187D01*
X0132705Y0129722D02*
X0130753Y0129722D01*
X0130753Y0130209D02*
X0132705Y0130209D01*
X0132705Y0130696D02*
X0130753Y0130696D01*
X0130753Y0131183D02*
X0132705Y0131183D01*
X0132705Y0132779D02*
X0132705Y0134731D01*
X0132705Y0132779D02*
X0130753Y0132779D01*
X0130753Y0134731D01*
X0132705Y0134731D01*
X0132705Y0133266D02*
X0130753Y0133266D01*
X0130753Y0133753D02*
X0132705Y0133753D01*
X0132705Y0134240D02*
X0130753Y0134240D01*
X0130753Y0134727D02*
X0132705Y0134727D01*
X0132705Y0117231D02*
X0132705Y0115279D01*
X0130753Y0115279D01*
X0130753Y0117231D01*
X0132705Y0117231D01*
X0132705Y0115766D02*
X0130753Y0115766D01*
X0130753Y0116253D02*
X0132705Y0116253D01*
X0132705Y0116740D02*
X0130753Y0116740D01*
X0130753Y0117227D02*
X0132705Y0117227D01*
X0132705Y0113687D02*
X0132705Y0111735D01*
X0130753Y0111735D01*
X0130753Y0113687D01*
X0132705Y0113687D01*
X0132705Y0112222D02*
X0130753Y0112222D01*
X0130753Y0112709D02*
X0132705Y0112709D01*
X0132705Y0113196D02*
X0130753Y0113196D01*
X0130753Y0113683D02*
X0132705Y0113683D01*
X0142705Y0113687D02*
X0142705Y0111735D01*
X0140753Y0111735D01*
X0140753Y0113687D01*
X0142705Y0113687D01*
X0142705Y0112222D02*
X0140753Y0112222D01*
X0140753Y0112709D02*
X0142705Y0112709D01*
X0142705Y0113196D02*
X0140753Y0113196D01*
X0140753Y0113683D02*
X0142705Y0113683D01*
X0142705Y0115279D02*
X0142705Y0117231D01*
X0142705Y0115279D02*
X0140753Y0115279D01*
X0140753Y0117231D01*
X0142705Y0117231D01*
X0142705Y0115766D02*
X0140753Y0115766D01*
X0140753Y0116253D02*
X0142705Y0116253D01*
X0142705Y0116740D02*
X0140753Y0116740D01*
X0140753Y0117227D02*
X0142705Y0117227D01*
X0104477Y0089959D02*
X0102525Y0089959D01*
X0104477Y0089959D02*
X0104477Y0088007D01*
X0102525Y0088007D01*
X0102525Y0089959D01*
X0102525Y0088494D02*
X0104477Y0088494D01*
X0104477Y0088981D02*
X0102525Y0088981D01*
X0102525Y0089468D02*
X0104477Y0089468D01*
X0104477Y0089955D02*
X0102525Y0089955D01*
X0100934Y0089959D02*
X0098982Y0089959D01*
X0100934Y0089959D02*
X0100934Y0088007D01*
X0098982Y0088007D01*
X0098982Y0089959D01*
X0098982Y0088494D02*
X0100934Y0088494D01*
X0100934Y0088981D02*
X0098982Y0088981D01*
X0098982Y0089468D02*
X0100934Y0089468D01*
X0100934Y0089955D02*
X0098982Y0089955D01*
X0196455Y0132985D02*
X0196455Y0134937D01*
X0196455Y0132985D02*
X0194503Y0132985D01*
X0194503Y0134937D01*
X0196455Y0134937D01*
X0196455Y0133472D02*
X0194503Y0133472D01*
X0194503Y0133959D02*
X0196455Y0133959D01*
X0196455Y0134446D02*
X0194503Y0134446D01*
X0194503Y0134933D02*
X0196455Y0134933D01*
X0196455Y0136529D02*
X0196455Y0138481D01*
X0196455Y0136529D02*
X0194503Y0136529D01*
X0194503Y0138481D01*
X0196455Y0138481D01*
X0196455Y0137016D02*
X0194503Y0137016D01*
X0194503Y0137503D02*
X0196455Y0137503D01*
X0196455Y0137990D02*
X0194503Y0137990D01*
X0194503Y0138477D02*
X0196455Y0138477D01*
X0271455Y0138481D02*
X0271455Y0136529D01*
X0269503Y0136529D01*
X0269503Y0138481D01*
X0271455Y0138481D01*
X0271455Y0137016D02*
X0269503Y0137016D01*
X0269503Y0137503D02*
X0271455Y0137503D01*
X0271455Y0137990D02*
X0269503Y0137990D01*
X0269503Y0138477D02*
X0271455Y0138477D01*
X0271455Y0134937D02*
X0271455Y0132985D01*
X0269503Y0132985D01*
X0269503Y0134937D01*
X0271455Y0134937D01*
X0271455Y0133472D02*
X0269503Y0133472D01*
X0269503Y0133959D02*
X0271455Y0133959D01*
X0271455Y0134446D02*
X0269503Y0134446D01*
X0269503Y0134933D02*
X0271455Y0134933D01*
X0322003Y0217985D02*
X0322003Y0219937D01*
X0323955Y0219937D01*
X0323955Y0217985D01*
X0322003Y0217985D01*
X0322003Y0218472D02*
X0323955Y0218472D01*
X0323955Y0218959D02*
X0322003Y0218959D01*
X0322003Y0219446D02*
X0323955Y0219446D01*
X0323955Y0219933D02*
X0322003Y0219933D01*
X0322003Y0221529D02*
X0322003Y0223481D01*
X0323955Y0223481D01*
X0323955Y0221529D01*
X0322003Y0221529D01*
X0322003Y0222016D02*
X0323955Y0222016D01*
X0323955Y0222503D02*
X0322003Y0222503D01*
X0322003Y0222990D02*
X0323955Y0222990D01*
X0323955Y0223477D02*
X0322003Y0223477D01*
D12*
X0413329Y0094733D02*
X0413329Y0092533D01*
X0413329Y0094733D02*
X0414129Y0094733D01*
X0414129Y0092533D01*
X0413329Y0092533D01*
X0413329Y0092732D02*
X0414129Y0092732D01*
X0414129Y0092931D02*
X0413329Y0092931D01*
X0413329Y0093130D02*
X0414129Y0093130D01*
X0414129Y0093329D02*
X0413329Y0093329D01*
X0413329Y0093528D02*
X0414129Y0093528D01*
X0414129Y0093727D02*
X0413329Y0093727D01*
X0413329Y0093926D02*
X0414129Y0093926D01*
X0414129Y0094125D02*
X0413329Y0094125D01*
X0413329Y0094324D02*
X0414129Y0094324D01*
X0414129Y0094523D02*
X0413329Y0094523D01*
X0413329Y0094722D02*
X0414129Y0094722D01*
X0414929Y0094733D02*
X0414929Y0092533D01*
X0414929Y0094733D02*
X0415729Y0094733D01*
X0415729Y0092533D01*
X0414929Y0092533D01*
X0414929Y0092732D02*
X0415729Y0092732D01*
X0415729Y0092931D02*
X0414929Y0092931D01*
X0414929Y0093130D02*
X0415729Y0093130D01*
X0415729Y0093329D02*
X0414929Y0093329D01*
X0414929Y0093528D02*
X0415729Y0093528D01*
X0415729Y0093727D02*
X0414929Y0093727D01*
X0414929Y0093926D02*
X0415729Y0093926D01*
X0415729Y0094125D02*
X0414929Y0094125D01*
X0414929Y0094324D02*
X0415729Y0094324D01*
X0415729Y0094523D02*
X0414929Y0094523D01*
X0414929Y0094722D02*
X0415729Y0094722D01*
X0416429Y0094733D02*
X0416429Y0092533D01*
X0416429Y0094733D02*
X0417229Y0094733D01*
X0417229Y0092533D01*
X0416429Y0092533D01*
X0416429Y0092732D02*
X0417229Y0092732D01*
X0417229Y0092931D02*
X0416429Y0092931D01*
X0416429Y0093130D02*
X0417229Y0093130D01*
X0417229Y0093329D02*
X0416429Y0093329D01*
X0416429Y0093528D02*
X0417229Y0093528D01*
X0417229Y0093727D02*
X0416429Y0093727D01*
X0416429Y0093926D02*
X0417229Y0093926D01*
X0417229Y0094125D02*
X0416429Y0094125D01*
X0416429Y0094324D02*
X0417229Y0094324D01*
X0417229Y0094523D02*
X0416429Y0094523D01*
X0416429Y0094722D02*
X0417229Y0094722D01*
X0418029Y0094733D02*
X0418029Y0092533D01*
X0418029Y0094733D02*
X0418829Y0094733D01*
X0418829Y0092533D01*
X0418029Y0092533D01*
X0418029Y0092732D02*
X0418829Y0092732D01*
X0418829Y0092931D02*
X0418029Y0092931D01*
X0418029Y0093130D02*
X0418829Y0093130D01*
X0418829Y0093329D02*
X0418029Y0093329D01*
X0418029Y0093528D02*
X0418829Y0093528D01*
X0418829Y0093727D02*
X0418029Y0093727D01*
X0418029Y0093926D02*
X0418829Y0093926D01*
X0418829Y0094125D02*
X0418029Y0094125D01*
X0418029Y0094324D02*
X0418829Y0094324D01*
X0418829Y0094523D02*
X0418029Y0094523D01*
X0418029Y0094722D02*
X0418829Y0094722D01*
X0419629Y0094733D02*
X0419629Y0092533D01*
X0419629Y0094733D02*
X0420429Y0094733D01*
X0420429Y0092533D01*
X0419629Y0092533D01*
X0419629Y0092732D02*
X0420429Y0092732D01*
X0420429Y0092931D02*
X0419629Y0092931D01*
X0419629Y0093130D02*
X0420429Y0093130D01*
X0420429Y0093329D02*
X0419629Y0093329D01*
X0419629Y0093528D02*
X0420429Y0093528D01*
X0420429Y0093727D02*
X0419629Y0093727D01*
X0419629Y0093926D02*
X0420429Y0093926D01*
X0420429Y0094125D02*
X0419629Y0094125D01*
X0419629Y0094324D02*
X0420429Y0094324D01*
X0420429Y0094523D02*
X0419629Y0094523D01*
X0419629Y0094722D02*
X0420429Y0094722D01*
X0421229Y0094733D02*
X0421229Y0092533D01*
X0421229Y0094733D02*
X0422029Y0094733D01*
X0422029Y0092533D01*
X0421229Y0092533D01*
X0421229Y0092732D02*
X0422029Y0092732D01*
X0422029Y0092931D02*
X0421229Y0092931D01*
X0421229Y0093130D02*
X0422029Y0093130D01*
X0422029Y0093329D02*
X0421229Y0093329D01*
X0421229Y0093528D02*
X0422029Y0093528D01*
X0422029Y0093727D02*
X0421229Y0093727D01*
X0421229Y0093926D02*
X0422029Y0093926D01*
X0422029Y0094125D02*
X0421229Y0094125D01*
X0421229Y0094324D02*
X0422029Y0094324D01*
X0422029Y0094523D02*
X0421229Y0094523D01*
X0421229Y0094722D02*
X0422029Y0094722D01*
X0422729Y0094733D02*
X0422729Y0092533D01*
X0422729Y0094733D02*
X0423529Y0094733D01*
X0423529Y0092533D01*
X0422729Y0092533D01*
X0422729Y0092732D02*
X0423529Y0092732D01*
X0423529Y0092931D02*
X0422729Y0092931D01*
X0422729Y0093130D02*
X0423529Y0093130D01*
X0423529Y0093329D02*
X0422729Y0093329D01*
X0422729Y0093528D02*
X0423529Y0093528D01*
X0423529Y0093727D02*
X0422729Y0093727D01*
X0422729Y0093926D02*
X0423529Y0093926D01*
X0423529Y0094125D02*
X0422729Y0094125D01*
X0422729Y0094324D02*
X0423529Y0094324D01*
X0423529Y0094523D02*
X0422729Y0094523D01*
X0422729Y0094722D02*
X0423529Y0094722D01*
X0424329Y0094733D02*
X0424329Y0092533D01*
X0424329Y0094733D02*
X0425129Y0094733D01*
X0425129Y0092533D01*
X0424329Y0092533D01*
X0424329Y0092732D02*
X0425129Y0092732D01*
X0425129Y0092931D02*
X0424329Y0092931D01*
X0424329Y0093130D02*
X0425129Y0093130D01*
X0425129Y0093329D02*
X0424329Y0093329D01*
X0424329Y0093528D02*
X0425129Y0093528D01*
X0425129Y0093727D02*
X0424329Y0093727D01*
X0424329Y0093926D02*
X0425129Y0093926D01*
X0425129Y0094125D02*
X0424329Y0094125D01*
X0424329Y0094324D02*
X0425129Y0094324D01*
X0425129Y0094523D02*
X0424329Y0094523D01*
X0424329Y0094722D02*
X0425129Y0094722D01*
X0424329Y0088933D02*
X0424329Y0086733D01*
X0424329Y0088933D02*
X0425129Y0088933D01*
X0425129Y0086733D01*
X0424329Y0086733D01*
X0424329Y0086932D02*
X0425129Y0086932D01*
X0425129Y0087131D02*
X0424329Y0087131D01*
X0424329Y0087330D02*
X0425129Y0087330D01*
X0425129Y0087529D02*
X0424329Y0087529D01*
X0424329Y0087728D02*
X0425129Y0087728D01*
X0425129Y0087927D02*
X0424329Y0087927D01*
X0424329Y0088126D02*
X0425129Y0088126D01*
X0425129Y0088325D02*
X0424329Y0088325D01*
X0424329Y0088524D02*
X0425129Y0088524D01*
X0425129Y0088723D02*
X0424329Y0088723D01*
X0424329Y0088922D02*
X0425129Y0088922D01*
X0422729Y0088933D02*
X0422729Y0086733D01*
X0422729Y0088933D02*
X0423529Y0088933D01*
X0423529Y0086733D01*
X0422729Y0086733D01*
X0422729Y0086932D02*
X0423529Y0086932D01*
X0423529Y0087131D02*
X0422729Y0087131D01*
X0422729Y0087330D02*
X0423529Y0087330D01*
X0423529Y0087529D02*
X0422729Y0087529D01*
X0422729Y0087728D02*
X0423529Y0087728D01*
X0423529Y0087927D02*
X0422729Y0087927D01*
X0422729Y0088126D02*
X0423529Y0088126D01*
X0423529Y0088325D02*
X0422729Y0088325D01*
X0422729Y0088524D02*
X0423529Y0088524D01*
X0423529Y0088723D02*
X0422729Y0088723D01*
X0422729Y0088922D02*
X0423529Y0088922D01*
X0421229Y0088933D02*
X0421229Y0086733D01*
X0421229Y0088933D02*
X0422029Y0088933D01*
X0422029Y0086733D01*
X0421229Y0086733D01*
X0421229Y0086932D02*
X0422029Y0086932D01*
X0422029Y0087131D02*
X0421229Y0087131D01*
X0421229Y0087330D02*
X0422029Y0087330D01*
X0422029Y0087529D02*
X0421229Y0087529D01*
X0421229Y0087728D02*
X0422029Y0087728D01*
X0422029Y0087927D02*
X0421229Y0087927D01*
X0421229Y0088126D02*
X0422029Y0088126D01*
X0422029Y0088325D02*
X0421229Y0088325D01*
X0421229Y0088524D02*
X0422029Y0088524D01*
X0422029Y0088723D02*
X0421229Y0088723D01*
X0421229Y0088922D02*
X0422029Y0088922D01*
X0419629Y0088933D02*
X0419629Y0086733D01*
X0419629Y0088933D02*
X0420429Y0088933D01*
X0420429Y0086733D01*
X0419629Y0086733D01*
X0419629Y0086932D02*
X0420429Y0086932D01*
X0420429Y0087131D02*
X0419629Y0087131D01*
X0419629Y0087330D02*
X0420429Y0087330D01*
X0420429Y0087529D02*
X0419629Y0087529D01*
X0419629Y0087728D02*
X0420429Y0087728D01*
X0420429Y0087927D02*
X0419629Y0087927D01*
X0419629Y0088126D02*
X0420429Y0088126D01*
X0420429Y0088325D02*
X0419629Y0088325D01*
X0419629Y0088524D02*
X0420429Y0088524D01*
X0420429Y0088723D02*
X0419629Y0088723D01*
X0419629Y0088922D02*
X0420429Y0088922D01*
X0418029Y0088933D02*
X0418029Y0086733D01*
X0418029Y0088933D02*
X0418829Y0088933D01*
X0418829Y0086733D01*
X0418029Y0086733D01*
X0418029Y0086932D02*
X0418829Y0086932D01*
X0418829Y0087131D02*
X0418029Y0087131D01*
X0418029Y0087330D02*
X0418829Y0087330D01*
X0418829Y0087529D02*
X0418029Y0087529D01*
X0418029Y0087728D02*
X0418829Y0087728D01*
X0418829Y0087927D02*
X0418029Y0087927D01*
X0418029Y0088126D02*
X0418829Y0088126D01*
X0418829Y0088325D02*
X0418029Y0088325D01*
X0418029Y0088524D02*
X0418829Y0088524D01*
X0418829Y0088723D02*
X0418029Y0088723D01*
X0418029Y0088922D02*
X0418829Y0088922D01*
X0416429Y0088933D02*
X0416429Y0086733D01*
X0416429Y0088933D02*
X0417229Y0088933D01*
X0417229Y0086733D01*
X0416429Y0086733D01*
X0416429Y0086932D02*
X0417229Y0086932D01*
X0417229Y0087131D02*
X0416429Y0087131D01*
X0416429Y0087330D02*
X0417229Y0087330D01*
X0417229Y0087529D02*
X0416429Y0087529D01*
X0416429Y0087728D02*
X0417229Y0087728D01*
X0417229Y0087927D02*
X0416429Y0087927D01*
X0416429Y0088126D02*
X0417229Y0088126D01*
X0417229Y0088325D02*
X0416429Y0088325D01*
X0416429Y0088524D02*
X0417229Y0088524D01*
X0417229Y0088723D02*
X0416429Y0088723D01*
X0416429Y0088922D02*
X0417229Y0088922D01*
X0414929Y0088933D02*
X0414929Y0086733D01*
X0414929Y0088933D02*
X0415729Y0088933D01*
X0415729Y0086733D01*
X0414929Y0086733D01*
X0414929Y0086932D02*
X0415729Y0086932D01*
X0415729Y0087131D02*
X0414929Y0087131D01*
X0414929Y0087330D02*
X0415729Y0087330D01*
X0415729Y0087529D02*
X0414929Y0087529D01*
X0414929Y0087728D02*
X0415729Y0087728D01*
X0415729Y0087927D02*
X0414929Y0087927D01*
X0414929Y0088126D02*
X0415729Y0088126D01*
X0415729Y0088325D02*
X0414929Y0088325D01*
X0414929Y0088524D02*
X0415729Y0088524D01*
X0415729Y0088723D02*
X0414929Y0088723D01*
X0414929Y0088922D02*
X0415729Y0088922D01*
X0413329Y0088933D02*
X0413329Y0086733D01*
X0413329Y0088933D02*
X0414129Y0088933D01*
X0414129Y0086733D01*
X0413329Y0086733D01*
X0413329Y0086932D02*
X0414129Y0086932D01*
X0414129Y0087131D02*
X0413329Y0087131D01*
X0413329Y0087330D02*
X0414129Y0087330D01*
X0414129Y0087529D02*
X0413329Y0087529D01*
X0413329Y0087728D02*
X0414129Y0087728D01*
X0414129Y0087927D02*
X0413329Y0087927D01*
X0413329Y0088126D02*
X0414129Y0088126D01*
X0414129Y0088325D02*
X0413329Y0088325D01*
X0413329Y0088524D02*
X0414129Y0088524D01*
X0414129Y0088723D02*
X0413329Y0088723D01*
X0413329Y0088922D02*
X0414129Y0088922D01*
D13*
X0413889Y0090093D02*
X0413889Y0091373D01*
X0424569Y0091373D01*
X0424569Y0090093D01*
X0413889Y0090093D01*
X0413889Y0090412D02*
X0424569Y0090412D01*
X0424569Y0090731D02*
X0413889Y0090731D01*
X0413889Y0091050D02*
X0424569Y0091050D01*
X0424569Y0091369D02*
X0413889Y0091369D01*
D14*
X0097281Y0073824D02*
X0094761Y0073824D01*
X0094761Y0074768D01*
X0097281Y0074768D01*
X0097281Y0073824D01*
X0097281Y0074059D02*
X0094761Y0074059D01*
X0094761Y0074294D02*
X0097281Y0074294D01*
X0097281Y0074529D02*
X0094761Y0074529D01*
X0094761Y0074764D02*
X0097281Y0074764D01*
X0097281Y0075793D02*
X0094761Y0075793D01*
X0094761Y0076737D01*
X0097281Y0076737D01*
X0097281Y0075793D01*
X0097281Y0076028D02*
X0094761Y0076028D01*
X0094761Y0076263D02*
X0097281Y0076263D01*
X0097281Y0076498D02*
X0094761Y0076498D01*
X0094761Y0076733D02*
X0097281Y0076733D01*
X0097281Y0077761D02*
X0094761Y0077761D01*
X0094761Y0078705D01*
X0097281Y0078705D01*
X0097281Y0077761D01*
X0097281Y0077996D02*
X0094761Y0077996D01*
X0094761Y0078231D02*
X0097281Y0078231D01*
X0097281Y0078466D02*
X0094761Y0078466D01*
X0094761Y0078701D02*
X0097281Y0078701D01*
X0097281Y0079730D02*
X0094761Y0079730D01*
X0094761Y0080674D01*
X0097281Y0080674D01*
X0097281Y0079730D01*
X0097281Y0079965D02*
X0094761Y0079965D01*
X0094761Y0080200D02*
X0097281Y0080200D01*
X0097281Y0080435D02*
X0094761Y0080435D01*
X0094761Y0080670D02*
X0097281Y0080670D01*
X0097281Y0081698D02*
X0094761Y0081698D01*
X0094761Y0082642D01*
X0097281Y0082642D01*
X0097281Y0081698D01*
X0097281Y0081933D02*
X0094761Y0081933D01*
X0094761Y0082168D02*
X0097281Y0082168D01*
X0097281Y0082403D02*
X0094761Y0082403D01*
X0094761Y0082638D02*
X0097281Y0082638D01*
X0106178Y0081698D02*
X0108698Y0081698D01*
X0106178Y0081698D02*
X0106178Y0082642D01*
X0108698Y0082642D01*
X0108698Y0081698D01*
X0108698Y0081933D02*
X0106178Y0081933D01*
X0106178Y0082168D02*
X0108698Y0082168D01*
X0108698Y0082403D02*
X0106178Y0082403D01*
X0106178Y0082638D02*
X0108698Y0082638D01*
X0108698Y0079730D02*
X0106178Y0079730D01*
X0106178Y0080674D01*
X0108698Y0080674D01*
X0108698Y0079730D01*
X0108698Y0079965D02*
X0106178Y0079965D01*
X0106178Y0080200D02*
X0108698Y0080200D01*
X0108698Y0080435D02*
X0106178Y0080435D01*
X0106178Y0080670D02*
X0108698Y0080670D01*
X0108698Y0077761D02*
X0106178Y0077761D01*
X0106178Y0078705D01*
X0108698Y0078705D01*
X0108698Y0077761D01*
X0108698Y0077996D02*
X0106178Y0077996D01*
X0106178Y0078231D02*
X0108698Y0078231D01*
X0108698Y0078466D02*
X0106178Y0078466D01*
X0106178Y0078701D02*
X0108698Y0078701D01*
X0108698Y0075793D02*
X0106178Y0075793D01*
X0106178Y0076737D01*
X0108698Y0076737D01*
X0108698Y0075793D01*
X0108698Y0076028D02*
X0106178Y0076028D01*
X0106178Y0076263D02*
X0108698Y0076263D01*
X0108698Y0076498D02*
X0106178Y0076498D01*
X0106178Y0076733D02*
X0108698Y0076733D01*
X0108698Y0073824D02*
X0106178Y0073824D01*
X0106178Y0074768D01*
X0108698Y0074768D01*
X0108698Y0073824D01*
X0108698Y0074059D02*
X0106178Y0074059D01*
X0106178Y0074294D02*
X0108698Y0074294D01*
X0108698Y0074529D02*
X0106178Y0074529D01*
X0106178Y0074764D02*
X0108698Y0074764D01*
X0195764Y0116264D02*
X0195764Y0118784D01*
X0195764Y0116264D02*
X0194820Y0116264D01*
X0194820Y0118784D01*
X0195764Y0118784D01*
X0195764Y0116499D02*
X0194820Y0116499D01*
X0194820Y0116734D02*
X0195764Y0116734D01*
X0195764Y0116969D02*
X0194820Y0116969D01*
X0194820Y0117204D02*
X0195764Y0117204D01*
X0195764Y0117439D02*
X0194820Y0117439D01*
X0194820Y0117674D02*
X0195764Y0117674D01*
X0195764Y0117909D02*
X0194820Y0117909D01*
X0194820Y0118144D02*
X0195764Y0118144D01*
X0195764Y0118379D02*
X0194820Y0118379D01*
X0194820Y0118614D02*
X0195764Y0118614D01*
X0197733Y0118784D02*
X0197733Y0116264D01*
X0196789Y0116264D01*
X0196789Y0118784D01*
X0197733Y0118784D01*
X0197733Y0116499D02*
X0196789Y0116499D01*
X0196789Y0116734D02*
X0197733Y0116734D01*
X0197733Y0116969D02*
X0196789Y0116969D01*
X0196789Y0117204D02*
X0197733Y0117204D01*
X0197733Y0117439D02*
X0196789Y0117439D01*
X0196789Y0117674D02*
X0197733Y0117674D01*
X0197733Y0117909D02*
X0196789Y0117909D01*
X0196789Y0118144D02*
X0197733Y0118144D01*
X0197733Y0118379D02*
X0196789Y0118379D01*
X0196789Y0118614D02*
X0197733Y0118614D01*
X0199701Y0118784D02*
X0199701Y0116264D01*
X0198757Y0116264D01*
X0198757Y0118784D01*
X0199701Y0118784D01*
X0199701Y0116499D02*
X0198757Y0116499D01*
X0198757Y0116734D02*
X0199701Y0116734D01*
X0199701Y0116969D02*
X0198757Y0116969D01*
X0198757Y0117204D02*
X0199701Y0117204D01*
X0199701Y0117439D02*
X0198757Y0117439D01*
X0198757Y0117674D02*
X0199701Y0117674D01*
X0199701Y0117909D02*
X0198757Y0117909D01*
X0198757Y0118144D02*
X0199701Y0118144D01*
X0199701Y0118379D02*
X0198757Y0118379D01*
X0198757Y0118614D02*
X0199701Y0118614D01*
X0201670Y0118784D02*
X0201670Y0116264D01*
X0200726Y0116264D01*
X0200726Y0118784D01*
X0201670Y0118784D01*
X0201670Y0116499D02*
X0200726Y0116499D01*
X0200726Y0116734D02*
X0201670Y0116734D01*
X0201670Y0116969D02*
X0200726Y0116969D01*
X0200726Y0117204D02*
X0201670Y0117204D01*
X0201670Y0117439D02*
X0200726Y0117439D01*
X0200726Y0117674D02*
X0201670Y0117674D01*
X0201670Y0117909D02*
X0200726Y0117909D01*
X0200726Y0118144D02*
X0201670Y0118144D01*
X0201670Y0118379D02*
X0200726Y0118379D01*
X0200726Y0118614D02*
X0201670Y0118614D01*
X0203638Y0118784D02*
X0203638Y0116264D01*
X0202694Y0116264D01*
X0202694Y0118784D01*
X0203638Y0118784D01*
X0203638Y0116499D02*
X0202694Y0116499D01*
X0202694Y0116734D02*
X0203638Y0116734D01*
X0203638Y0116969D02*
X0202694Y0116969D01*
X0202694Y0117204D02*
X0203638Y0117204D01*
X0203638Y0117439D02*
X0202694Y0117439D01*
X0202694Y0117674D02*
X0203638Y0117674D01*
X0203638Y0117909D02*
X0202694Y0117909D01*
X0202694Y0118144D02*
X0203638Y0118144D01*
X0203638Y0118379D02*
X0202694Y0118379D01*
X0202694Y0118614D02*
X0203638Y0118614D01*
X0203638Y0127682D02*
X0203638Y0130202D01*
X0203638Y0127682D02*
X0202694Y0127682D01*
X0202694Y0130202D01*
X0203638Y0130202D01*
X0203638Y0127917D02*
X0202694Y0127917D01*
X0202694Y0128152D02*
X0203638Y0128152D01*
X0203638Y0128387D02*
X0202694Y0128387D01*
X0202694Y0128622D02*
X0203638Y0128622D01*
X0203638Y0128857D02*
X0202694Y0128857D01*
X0202694Y0129092D02*
X0203638Y0129092D01*
X0203638Y0129327D02*
X0202694Y0129327D01*
X0202694Y0129562D02*
X0203638Y0129562D01*
X0203638Y0129797D02*
X0202694Y0129797D01*
X0202694Y0130032D02*
X0203638Y0130032D01*
X0201670Y0130202D02*
X0201670Y0127682D01*
X0200726Y0127682D01*
X0200726Y0130202D01*
X0201670Y0130202D01*
X0201670Y0127917D02*
X0200726Y0127917D01*
X0200726Y0128152D02*
X0201670Y0128152D01*
X0201670Y0128387D02*
X0200726Y0128387D01*
X0200726Y0128622D02*
X0201670Y0128622D01*
X0201670Y0128857D02*
X0200726Y0128857D01*
X0200726Y0129092D02*
X0201670Y0129092D01*
X0201670Y0129327D02*
X0200726Y0129327D01*
X0200726Y0129562D02*
X0201670Y0129562D01*
X0201670Y0129797D02*
X0200726Y0129797D01*
X0200726Y0130032D02*
X0201670Y0130032D01*
X0199701Y0130202D02*
X0199701Y0127682D01*
X0198757Y0127682D01*
X0198757Y0130202D01*
X0199701Y0130202D01*
X0199701Y0127917D02*
X0198757Y0127917D01*
X0198757Y0128152D02*
X0199701Y0128152D01*
X0199701Y0128387D02*
X0198757Y0128387D01*
X0198757Y0128622D02*
X0199701Y0128622D01*
X0199701Y0128857D02*
X0198757Y0128857D01*
X0198757Y0129092D02*
X0199701Y0129092D01*
X0199701Y0129327D02*
X0198757Y0129327D01*
X0198757Y0129562D02*
X0199701Y0129562D01*
X0199701Y0129797D02*
X0198757Y0129797D01*
X0198757Y0130032D02*
X0199701Y0130032D01*
X0197733Y0130202D02*
X0197733Y0127682D01*
X0196789Y0127682D01*
X0196789Y0130202D01*
X0197733Y0130202D01*
X0197733Y0127917D02*
X0196789Y0127917D01*
X0196789Y0128152D02*
X0197733Y0128152D01*
X0197733Y0128387D02*
X0196789Y0128387D01*
X0196789Y0128622D02*
X0197733Y0128622D01*
X0197733Y0128857D02*
X0196789Y0128857D01*
X0196789Y0129092D02*
X0197733Y0129092D01*
X0197733Y0129327D02*
X0196789Y0129327D01*
X0196789Y0129562D02*
X0197733Y0129562D01*
X0197733Y0129797D02*
X0196789Y0129797D01*
X0196789Y0130032D02*
X0197733Y0130032D01*
X0195764Y0130202D02*
X0195764Y0127682D01*
X0194820Y0127682D01*
X0194820Y0130202D01*
X0195764Y0130202D01*
X0195764Y0127917D02*
X0194820Y0127917D01*
X0194820Y0128152D02*
X0195764Y0128152D01*
X0195764Y0128387D02*
X0194820Y0128387D01*
X0194820Y0128622D02*
X0195764Y0128622D01*
X0195764Y0128857D02*
X0194820Y0128857D01*
X0194820Y0129092D02*
X0195764Y0129092D01*
X0195764Y0129327D02*
X0194820Y0129327D01*
X0194820Y0129562D02*
X0195764Y0129562D01*
X0195764Y0129797D02*
X0194820Y0129797D01*
X0194820Y0130032D02*
X0195764Y0130032D01*
X0270764Y0130202D02*
X0270764Y0127682D01*
X0269820Y0127682D01*
X0269820Y0130202D01*
X0270764Y0130202D01*
X0270764Y0127917D02*
X0269820Y0127917D01*
X0269820Y0128152D02*
X0270764Y0128152D01*
X0270764Y0128387D02*
X0269820Y0128387D01*
X0269820Y0128622D02*
X0270764Y0128622D01*
X0270764Y0128857D02*
X0269820Y0128857D01*
X0269820Y0129092D02*
X0270764Y0129092D01*
X0270764Y0129327D02*
X0269820Y0129327D01*
X0269820Y0129562D02*
X0270764Y0129562D01*
X0270764Y0129797D02*
X0269820Y0129797D01*
X0269820Y0130032D02*
X0270764Y0130032D01*
X0272733Y0130202D02*
X0272733Y0127682D01*
X0271789Y0127682D01*
X0271789Y0130202D01*
X0272733Y0130202D01*
X0272733Y0127917D02*
X0271789Y0127917D01*
X0271789Y0128152D02*
X0272733Y0128152D01*
X0272733Y0128387D02*
X0271789Y0128387D01*
X0271789Y0128622D02*
X0272733Y0128622D01*
X0272733Y0128857D02*
X0271789Y0128857D01*
X0271789Y0129092D02*
X0272733Y0129092D01*
X0272733Y0129327D02*
X0271789Y0129327D01*
X0271789Y0129562D02*
X0272733Y0129562D01*
X0272733Y0129797D02*
X0271789Y0129797D01*
X0271789Y0130032D02*
X0272733Y0130032D01*
X0274701Y0130202D02*
X0274701Y0127682D01*
X0273757Y0127682D01*
X0273757Y0130202D01*
X0274701Y0130202D01*
X0274701Y0127917D02*
X0273757Y0127917D01*
X0273757Y0128152D02*
X0274701Y0128152D01*
X0274701Y0128387D02*
X0273757Y0128387D01*
X0273757Y0128622D02*
X0274701Y0128622D01*
X0274701Y0128857D02*
X0273757Y0128857D01*
X0273757Y0129092D02*
X0274701Y0129092D01*
X0274701Y0129327D02*
X0273757Y0129327D01*
X0273757Y0129562D02*
X0274701Y0129562D01*
X0274701Y0129797D02*
X0273757Y0129797D01*
X0273757Y0130032D02*
X0274701Y0130032D01*
X0276670Y0130202D02*
X0276670Y0127682D01*
X0275726Y0127682D01*
X0275726Y0130202D01*
X0276670Y0130202D01*
X0276670Y0127917D02*
X0275726Y0127917D01*
X0275726Y0128152D02*
X0276670Y0128152D01*
X0276670Y0128387D02*
X0275726Y0128387D01*
X0275726Y0128622D02*
X0276670Y0128622D01*
X0276670Y0128857D02*
X0275726Y0128857D01*
X0275726Y0129092D02*
X0276670Y0129092D01*
X0276670Y0129327D02*
X0275726Y0129327D01*
X0275726Y0129562D02*
X0276670Y0129562D01*
X0276670Y0129797D02*
X0275726Y0129797D01*
X0275726Y0130032D02*
X0276670Y0130032D01*
X0278638Y0130202D02*
X0278638Y0127682D01*
X0277694Y0127682D01*
X0277694Y0130202D01*
X0278638Y0130202D01*
X0278638Y0127917D02*
X0277694Y0127917D01*
X0277694Y0128152D02*
X0278638Y0128152D01*
X0278638Y0128387D02*
X0277694Y0128387D01*
X0277694Y0128622D02*
X0278638Y0128622D01*
X0278638Y0128857D02*
X0277694Y0128857D01*
X0277694Y0129092D02*
X0278638Y0129092D01*
X0278638Y0129327D02*
X0277694Y0129327D01*
X0277694Y0129562D02*
X0278638Y0129562D01*
X0278638Y0129797D02*
X0277694Y0129797D01*
X0277694Y0130032D02*
X0278638Y0130032D01*
X0278638Y0118784D02*
X0278638Y0116264D01*
X0277694Y0116264D01*
X0277694Y0118784D01*
X0278638Y0118784D01*
X0278638Y0116499D02*
X0277694Y0116499D01*
X0277694Y0116734D02*
X0278638Y0116734D01*
X0278638Y0116969D02*
X0277694Y0116969D01*
X0277694Y0117204D02*
X0278638Y0117204D01*
X0278638Y0117439D02*
X0277694Y0117439D01*
X0277694Y0117674D02*
X0278638Y0117674D01*
X0278638Y0117909D02*
X0277694Y0117909D01*
X0277694Y0118144D02*
X0278638Y0118144D01*
X0278638Y0118379D02*
X0277694Y0118379D01*
X0277694Y0118614D02*
X0278638Y0118614D01*
X0276670Y0118784D02*
X0276670Y0116264D01*
X0275726Y0116264D01*
X0275726Y0118784D01*
X0276670Y0118784D01*
X0276670Y0116499D02*
X0275726Y0116499D01*
X0275726Y0116734D02*
X0276670Y0116734D01*
X0276670Y0116969D02*
X0275726Y0116969D01*
X0275726Y0117204D02*
X0276670Y0117204D01*
X0276670Y0117439D02*
X0275726Y0117439D01*
X0275726Y0117674D02*
X0276670Y0117674D01*
X0276670Y0117909D02*
X0275726Y0117909D01*
X0275726Y0118144D02*
X0276670Y0118144D01*
X0276670Y0118379D02*
X0275726Y0118379D01*
X0275726Y0118614D02*
X0276670Y0118614D01*
X0274701Y0118784D02*
X0274701Y0116264D01*
X0273757Y0116264D01*
X0273757Y0118784D01*
X0274701Y0118784D01*
X0274701Y0116499D02*
X0273757Y0116499D01*
X0273757Y0116734D02*
X0274701Y0116734D01*
X0274701Y0116969D02*
X0273757Y0116969D01*
X0273757Y0117204D02*
X0274701Y0117204D01*
X0274701Y0117439D02*
X0273757Y0117439D01*
X0273757Y0117674D02*
X0274701Y0117674D01*
X0274701Y0117909D02*
X0273757Y0117909D01*
X0273757Y0118144D02*
X0274701Y0118144D01*
X0274701Y0118379D02*
X0273757Y0118379D01*
X0273757Y0118614D02*
X0274701Y0118614D01*
X0272733Y0118784D02*
X0272733Y0116264D01*
X0271789Y0116264D01*
X0271789Y0118784D01*
X0272733Y0118784D01*
X0272733Y0116499D02*
X0271789Y0116499D01*
X0271789Y0116734D02*
X0272733Y0116734D01*
X0272733Y0116969D02*
X0271789Y0116969D01*
X0271789Y0117204D02*
X0272733Y0117204D01*
X0272733Y0117439D02*
X0271789Y0117439D01*
X0271789Y0117674D02*
X0272733Y0117674D01*
X0272733Y0117909D02*
X0271789Y0117909D01*
X0271789Y0118144D02*
X0272733Y0118144D01*
X0272733Y0118379D02*
X0271789Y0118379D01*
X0271789Y0118614D02*
X0272733Y0118614D01*
X0270764Y0118784D02*
X0270764Y0116264D01*
X0269820Y0116264D01*
X0269820Y0118784D01*
X0270764Y0118784D01*
X0270764Y0116499D02*
X0269820Y0116499D01*
X0269820Y0116734D02*
X0270764Y0116734D01*
X0270764Y0116969D02*
X0269820Y0116969D01*
X0269820Y0117204D02*
X0270764Y0117204D01*
X0270764Y0117439D02*
X0269820Y0117439D01*
X0269820Y0117674D02*
X0270764Y0117674D01*
X0270764Y0117909D02*
X0269820Y0117909D01*
X0269820Y0118144D02*
X0270764Y0118144D01*
X0270764Y0118379D02*
X0269820Y0118379D01*
X0269820Y0118614D02*
X0270764Y0118614D01*
X0334761Y0143518D02*
X0337281Y0143518D01*
X0337281Y0142574D01*
X0334761Y0142574D01*
X0334761Y0143518D01*
X0334761Y0142809D02*
X0337281Y0142809D01*
X0337281Y0143044D02*
X0334761Y0143044D01*
X0334761Y0143279D02*
X0337281Y0143279D01*
X0337281Y0143514D02*
X0334761Y0143514D01*
X0334761Y0145487D02*
X0337281Y0145487D01*
X0337281Y0144543D01*
X0334761Y0144543D01*
X0334761Y0145487D01*
X0334761Y0144778D02*
X0337281Y0144778D01*
X0337281Y0145013D02*
X0334761Y0145013D01*
X0334761Y0145248D02*
X0337281Y0145248D01*
X0337281Y0145483D02*
X0334761Y0145483D01*
X0334761Y0147455D02*
X0337281Y0147455D01*
X0337281Y0146511D01*
X0334761Y0146511D01*
X0334761Y0147455D01*
X0334761Y0146746D02*
X0337281Y0146746D01*
X0337281Y0146981D02*
X0334761Y0146981D01*
X0334761Y0147216D02*
X0337281Y0147216D01*
X0337281Y0147451D02*
X0334761Y0147451D01*
X0334761Y0149424D02*
X0337281Y0149424D01*
X0337281Y0148480D01*
X0334761Y0148480D01*
X0334761Y0149424D01*
X0334761Y0148715D02*
X0337281Y0148715D01*
X0337281Y0148950D02*
X0334761Y0148950D01*
X0334761Y0149185D02*
X0337281Y0149185D01*
X0337281Y0149420D02*
X0334761Y0149420D01*
X0334761Y0151392D02*
X0337281Y0151392D01*
X0337281Y0150448D01*
X0334761Y0150448D01*
X0334761Y0151392D01*
X0334761Y0150683D02*
X0337281Y0150683D01*
X0337281Y0150918D02*
X0334761Y0150918D01*
X0334761Y0151153D02*
X0337281Y0151153D01*
X0337281Y0151388D02*
X0334761Y0151388D01*
X0346178Y0151392D02*
X0348698Y0151392D01*
X0348698Y0150448D01*
X0346178Y0150448D01*
X0346178Y0151392D01*
X0346178Y0150683D02*
X0348698Y0150683D01*
X0348698Y0150918D02*
X0346178Y0150918D01*
X0346178Y0151153D02*
X0348698Y0151153D01*
X0348698Y0151388D02*
X0346178Y0151388D01*
X0346178Y0149424D02*
X0348698Y0149424D01*
X0348698Y0148480D01*
X0346178Y0148480D01*
X0346178Y0149424D01*
X0346178Y0148715D02*
X0348698Y0148715D01*
X0348698Y0148950D02*
X0346178Y0148950D01*
X0346178Y0149185D02*
X0348698Y0149185D01*
X0348698Y0149420D02*
X0346178Y0149420D01*
X0346178Y0147455D02*
X0348698Y0147455D01*
X0348698Y0146511D01*
X0346178Y0146511D01*
X0346178Y0147455D01*
X0346178Y0146746D02*
X0348698Y0146746D01*
X0348698Y0146981D02*
X0346178Y0146981D01*
X0346178Y0147216D02*
X0348698Y0147216D01*
X0348698Y0147451D02*
X0346178Y0147451D01*
X0346178Y0145487D02*
X0348698Y0145487D01*
X0348698Y0144543D01*
X0346178Y0144543D01*
X0346178Y0145487D01*
X0346178Y0144778D02*
X0348698Y0144778D01*
X0348698Y0145013D02*
X0346178Y0145013D01*
X0346178Y0145248D02*
X0348698Y0145248D01*
X0348698Y0145483D02*
X0346178Y0145483D01*
X0346178Y0143518D02*
X0348698Y0143518D01*
X0348698Y0142574D01*
X0346178Y0142574D01*
X0346178Y0143518D01*
X0346178Y0142809D02*
X0348698Y0142809D01*
X0348698Y0143044D02*
X0346178Y0143044D01*
X0346178Y0143279D02*
X0348698Y0143279D01*
X0348698Y0143514D02*
X0346178Y0143514D01*
X0399761Y0174768D02*
X0402281Y0174768D01*
X0402281Y0173824D01*
X0399761Y0173824D01*
X0399761Y0174768D01*
X0399761Y0174059D02*
X0402281Y0174059D01*
X0402281Y0174294D02*
X0399761Y0174294D01*
X0399761Y0174529D02*
X0402281Y0174529D01*
X0402281Y0174764D02*
X0399761Y0174764D01*
X0399761Y0176737D02*
X0402281Y0176737D01*
X0402281Y0175793D01*
X0399761Y0175793D01*
X0399761Y0176737D01*
X0399761Y0176028D02*
X0402281Y0176028D01*
X0402281Y0176263D02*
X0399761Y0176263D01*
X0399761Y0176498D02*
X0402281Y0176498D01*
X0402281Y0176733D02*
X0399761Y0176733D01*
X0399761Y0178705D02*
X0402281Y0178705D01*
X0402281Y0177761D01*
X0399761Y0177761D01*
X0399761Y0178705D01*
X0399761Y0177996D02*
X0402281Y0177996D01*
X0402281Y0178231D02*
X0399761Y0178231D01*
X0399761Y0178466D02*
X0402281Y0178466D01*
X0402281Y0178701D02*
X0399761Y0178701D01*
X0399761Y0180674D02*
X0402281Y0180674D01*
X0402281Y0179730D01*
X0399761Y0179730D01*
X0399761Y0180674D01*
X0399761Y0179965D02*
X0402281Y0179965D01*
X0402281Y0180200D02*
X0399761Y0180200D01*
X0399761Y0180435D02*
X0402281Y0180435D01*
X0402281Y0180670D02*
X0399761Y0180670D01*
X0399761Y0182642D02*
X0402281Y0182642D01*
X0402281Y0181698D01*
X0399761Y0181698D01*
X0399761Y0182642D01*
X0399761Y0181933D02*
X0402281Y0181933D01*
X0402281Y0182168D02*
X0399761Y0182168D01*
X0399761Y0182403D02*
X0402281Y0182403D01*
X0402281Y0182638D02*
X0399761Y0182638D01*
X0411178Y0182642D02*
X0413698Y0182642D01*
X0413698Y0181698D01*
X0411178Y0181698D01*
X0411178Y0182642D01*
X0411178Y0181933D02*
X0413698Y0181933D01*
X0413698Y0182168D02*
X0411178Y0182168D01*
X0411178Y0182403D02*
X0413698Y0182403D01*
X0413698Y0182638D02*
X0411178Y0182638D01*
X0411178Y0180674D02*
X0413698Y0180674D01*
X0413698Y0179730D01*
X0411178Y0179730D01*
X0411178Y0180674D01*
X0411178Y0179965D02*
X0413698Y0179965D01*
X0413698Y0180200D02*
X0411178Y0180200D01*
X0411178Y0180435D02*
X0413698Y0180435D01*
X0413698Y0180670D02*
X0411178Y0180670D01*
X0411178Y0178705D02*
X0413698Y0178705D01*
X0413698Y0177761D01*
X0411178Y0177761D01*
X0411178Y0178705D01*
X0411178Y0177996D02*
X0413698Y0177996D01*
X0413698Y0178231D02*
X0411178Y0178231D01*
X0411178Y0178466D02*
X0413698Y0178466D01*
X0413698Y0178701D02*
X0411178Y0178701D01*
X0411178Y0176737D02*
X0413698Y0176737D01*
X0413698Y0175793D01*
X0411178Y0175793D01*
X0411178Y0176737D01*
X0411178Y0176028D02*
X0413698Y0176028D01*
X0413698Y0176263D02*
X0411178Y0176263D01*
X0411178Y0176498D02*
X0413698Y0176498D01*
X0413698Y0176733D02*
X0411178Y0176733D01*
X0411178Y0174768D02*
X0413698Y0174768D01*
X0413698Y0173824D01*
X0411178Y0173824D01*
X0411178Y0174768D01*
X0411178Y0174059D02*
X0413698Y0174059D01*
X0413698Y0174294D02*
X0411178Y0174294D01*
X0411178Y0174529D02*
X0413698Y0174529D01*
X0413698Y0174764D02*
X0411178Y0174764D01*
X0322694Y0226264D02*
X0322694Y0228784D01*
X0323638Y0228784D01*
X0323638Y0226264D01*
X0322694Y0226264D01*
X0322694Y0226499D02*
X0323638Y0226499D01*
X0323638Y0226734D02*
X0322694Y0226734D01*
X0322694Y0226969D02*
X0323638Y0226969D01*
X0323638Y0227204D02*
X0322694Y0227204D01*
X0322694Y0227439D02*
X0323638Y0227439D01*
X0323638Y0227674D02*
X0322694Y0227674D01*
X0322694Y0227909D02*
X0323638Y0227909D01*
X0323638Y0228144D02*
X0322694Y0228144D01*
X0322694Y0228379D02*
X0323638Y0228379D01*
X0323638Y0228614D02*
X0322694Y0228614D01*
X0320726Y0228784D02*
X0320726Y0226264D01*
X0320726Y0228784D02*
X0321670Y0228784D01*
X0321670Y0226264D01*
X0320726Y0226264D01*
X0320726Y0226499D02*
X0321670Y0226499D01*
X0321670Y0226734D02*
X0320726Y0226734D01*
X0320726Y0226969D02*
X0321670Y0226969D01*
X0321670Y0227204D02*
X0320726Y0227204D01*
X0320726Y0227439D02*
X0321670Y0227439D01*
X0321670Y0227674D02*
X0320726Y0227674D01*
X0320726Y0227909D02*
X0321670Y0227909D01*
X0321670Y0228144D02*
X0320726Y0228144D01*
X0320726Y0228379D02*
X0321670Y0228379D01*
X0321670Y0228614D02*
X0320726Y0228614D01*
X0318757Y0228784D02*
X0318757Y0226264D01*
X0318757Y0228784D02*
X0319701Y0228784D01*
X0319701Y0226264D01*
X0318757Y0226264D01*
X0318757Y0226499D02*
X0319701Y0226499D01*
X0319701Y0226734D02*
X0318757Y0226734D01*
X0318757Y0226969D02*
X0319701Y0226969D01*
X0319701Y0227204D02*
X0318757Y0227204D01*
X0318757Y0227439D02*
X0319701Y0227439D01*
X0319701Y0227674D02*
X0318757Y0227674D01*
X0318757Y0227909D02*
X0319701Y0227909D01*
X0319701Y0228144D02*
X0318757Y0228144D01*
X0318757Y0228379D02*
X0319701Y0228379D01*
X0319701Y0228614D02*
X0318757Y0228614D01*
X0316789Y0228784D02*
X0316789Y0226264D01*
X0316789Y0228784D02*
X0317733Y0228784D01*
X0317733Y0226264D01*
X0316789Y0226264D01*
X0316789Y0226499D02*
X0317733Y0226499D01*
X0317733Y0226734D02*
X0316789Y0226734D01*
X0316789Y0226969D02*
X0317733Y0226969D01*
X0317733Y0227204D02*
X0316789Y0227204D01*
X0316789Y0227439D02*
X0317733Y0227439D01*
X0317733Y0227674D02*
X0316789Y0227674D01*
X0316789Y0227909D02*
X0317733Y0227909D01*
X0317733Y0228144D02*
X0316789Y0228144D01*
X0316789Y0228379D02*
X0317733Y0228379D01*
X0317733Y0228614D02*
X0316789Y0228614D01*
X0314820Y0228784D02*
X0314820Y0226264D01*
X0314820Y0228784D02*
X0315764Y0228784D01*
X0315764Y0226264D01*
X0314820Y0226264D01*
X0314820Y0226499D02*
X0315764Y0226499D01*
X0315764Y0226734D02*
X0314820Y0226734D01*
X0314820Y0226969D02*
X0315764Y0226969D01*
X0315764Y0227204D02*
X0314820Y0227204D01*
X0314820Y0227439D02*
X0315764Y0227439D01*
X0315764Y0227674D02*
X0314820Y0227674D01*
X0314820Y0227909D02*
X0315764Y0227909D01*
X0315764Y0228144D02*
X0314820Y0228144D01*
X0314820Y0228379D02*
X0315764Y0228379D01*
X0315764Y0228614D02*
X0314820Y0228614D01*
X0314820Y0237682D02*
X0314820Y0240202D01*
X0315764Y0240202D01*
X0315764Y0237682D01*
X0314820Y0237682D01*
X0314820Y0237917D02*
X0315764Y0237917D01*
X0315764Y0238152D02*
X0314820Y0238152D01*
X0314820Y0238387D02*
X0315764Y0238387D01*
X0315764Y0238622D02*
X0314820Y0238622D01*
X0314820Y0238857D02*
X0315764Y0238857D01*
X0315764Y0239092D02*
X0314820Y0239092D01*
X0314820Y0239327D02*
X0315764Y0239327D01*
X0315764Y0239562D02*
X0314820Y0239562D01*
X0314820Y0239797D02*
X0315764Y0239797D01*
X0315764Y0240032D02*
X0314820Y0240032D01*
X0316789Y0240202D02*
X0316789Y0237682D01*
X0316789Y0240202D02*
X0317733Y0240202D01*
X0317733Y0237682D01*
X0316789Y0237682D01*
X0316789Y0237917D02*
X0317733Y0237917D01*
X0317733Y0238152D02*
X0316789Y0238152D01*
X0316789Y0238387D02*
X0317733Y0238387D01*
X0317733Y0238622D02*
X0316789Y0238622D01*
X0316789Y0238857D02*
X0317733Y0238857D01*
X0317733Y0239092D02*
X0316789Y0239092D01*
X0316789Y0239327D02*
X0317733Y0239327D01*
X0317733Y0239562D02*
X0316789Y0239562D01*
X0316789Y0239797D02*
X0317733Y0239797D01*
X0317733Y0240032D02*
X0316789Y0240032D01*
X0318757Y0240202D02*
X0318757Y0237682D01*
X0318757Y0240202D02*
X0319701Y0240202D01*
X0319701Y0237682D01*
X0318757Y0237682D01*
X0318757Y0237917D02*
X0319701Y0237917D01*
X0319701Y0238152D02*
X0318757Y0238152D01*
X0318757Y0238387D02*
X0319701Y0238387D01*
X0319701Y0238622D02*
X0318757Y0238622D01*
X0318757Y0238857D02*
X0319701Y0238857D01*
X0319701Y0239092D02*
X0318757Y0239092D01*
X0318757Y0239327D02*
X0319701Y0239327D01*
X0319701Y0239562D02*
X0318757Y0239562D01*
X0318757Y0239797D02*
X0319701Y0239797D01*
X0319701Y0240032D02*
X0318757Y0240032D01*
X0320726Y0240202D02*
X0320726Y0237682D01*
X0320726Y0240202D02*
X0321670Y0240202D01*
X0321670Y0237682D01*
X0320726Y0237682D01*
X0320726Y0237917D02*
X0321670Y0237917D01*
X0321670Y0238152D02*
X0320726Y0238152D01*
X0320726Y0238387D02*
X0321670Y0238387D01*
X0321670Y0238622D02*
X0320726Y0238622D01*
X0320726Y0238857D02*
X0321670Y0238857D01*
X0321670Y0239092D02*
X0320726Y0239092D01*
X0320726Y0239327D02*
X0321670Y0239327D01*
X0321670Y0239562D02*
X0320726Y0239562D01*
X0320726Y0239797D02*
X0321670Y0239797D01*
X0321670Y0240032D02*
X0320726Y0240032D01*
X0322694Y0240202D02*
X0322694Y0237682D01*
X0322694Y0240202D02*
X0323638Y0240202D01*
X0323638Y0237682D01*
X0322694Y0237682D01*
X0322694Y0237917D02*
X0323638Y0237917D01*
X0323638Y0238152D02*
X0322694Y0238152D01*
X0322694Y0238387D02*
X0323638Y0238387D01*
X0323638Y0238622D02*
X0322694Y0238622D01*
X0322694Y0238857D02*
X0323638Y0238857D01*
X0323638Y0239092D02*
X0322694Y0239092D01*
X0322694Y0239327D02*
X0323638Y0239327D01*
X0323638Y0239562D02*
X0322694Y0239562D01*
X0322694Y0239797D02*
X0323638Y0239797D01*
X0323638Y0240032D02*
X0322694Y0240032D01*
X0247694Y0240202D02*
X0247694Y0237682D01*
X0247694Y0240202D02*
X0248638Y0240202D01*
X0248638Y0237682D01*
X0247694Y0237682D01*
X0247694Y0237917D02*
X0248638Y0237917D01*
X0248638Y0238152D02*
X0247694Y0238152D01*
X0247694Y0238387D02*
X0248638Y0238387D01*
X0248638Y0238622D02*
X0247694Y0238622D01*
X0247694Y0238857D02*
X0248638Y0238857D01*
X0248638Y0239092D02*
X0247694Y0239092D01*
X0247694Y0239327D02*
X0248638Y0239327D01*
X0248638Y0239562D02*
X0247694Y0239562D01*
X0247694Y0239797D02*
X0248638Y0239797D01*
X0248638Y0240032D02*
X0247694Y0240032D01*
X0245726Y0240202D02*
X0245726Y0237682D01*
X0245726Y0240202D02*
X0246670Y0240202D01*
X0246670Y0237682D01*
X0245726Y0237682D01*
X0245726Y0237917D02*
X0246670Y0237917D01*
X0246670Y0238152D02*
X0245726Y0238152D01*
X0245726Y0238387D02*
X0246670Y0238387D01*
X0246670Y0238622D02*
X0245726Y0238622D01*
X0245726Y0238857D02*
X0246670Y0238857D01*
X0246670Y0239092D02*
X0245726Y0239092D01*
X0245726Y0239327D02*
X0246670Y0239327D01*
X0246670Y0239562D02*
X0245726Y0239562D01*
X0245726Y0239797D02*
X0246670Y0239797D01*
X0246670Y0240032D02*
X0245726Y0240032D01*
X0243757Y0240202D02*
X0243757Y0237682D01*
X0243757Y0240202D02*
X0244701Y0240202D01*
X0244701Y0237682D01*
X0243757Y0237682D01*
X0243757Y0237917D02*
X0244701Y0237917D01*
X0244701Y0238152D02*
X0243757Y0238152D01*
X0243757Y0238387D02*
X0244701Y0238387D01*
X0244701Y0238622D02*
X0243757Y0238622D01*
X0243757Y0238857D02*
X0244701Y0238857D01*
X0244701Y0239092D02*
X0243757Y0239092D01*
X0243757Y0239327D02*
X0244701Y0239327D01*
X0244701Y0239562D02*
X0243757Y0239562D01*
X0243757Y0239797D02*
X0244701Y0239797D01*
X0244701Y0240032D02*
X0243757Y0240032D01*
X0241789Y0240202D02*
X0241789Y0237682D01*
X0241789Y0240202D02*
X0242733Y0240202D01*
X0242733Y0237682D01*
X0241789Y0237682D01*
X0241789Y0237917D02*
X0242733Y0237917D01*
X0242733Y0238152D02*
X0241789Y0238152D01*
X0241789Y0238387D02*
X0242733Y0238387D01*
X0242733Y0238622D02*
X0241789Y0238622D01*
X0241789Y0238857D02*
X0242733Y0238857D01*
X0242733Y0239092D02*
X0241789Y0239092D01*
X0241789Y0239327D02*
X0242733Y0239327D01*
X0242733Y0239562D02*
X0241789Y0239562D01*
X0241789Y0239797D02*
X0242733Y0239797D01*
X0242733Y0240032D02*
X0241789Y0240032D01*
X0239820Y0240202D02*
X0239820Y0237682D01*
X0239820Y0240202D02*
X0240764Y0240202D01*
X0240764Y0237682D01*
X0239820Y0237682D01*
X0239820Y0237917D02*
X0240764Y0237917D01*
X0240764Y0238152D02*
X0239820Y0238152D01*
X0239820Y0238387D02*
X0240764Y0238387D01*
X0240764Y0238622D02*
X0239820Y0238622D01*
X0239820Y0238857D02*
X0240764Y0238857D01*
X0240764Y0239092D02*
X0239820Y0239092D01*
X0239820Y0239327D02*
X0240764Y0239327D01*
X0240764Y0239562D02*
X0239820Y0239562D01*
X0239820Y0239797D02*
X0240764Y0239797D01*
X0240764Y0240032D02*
X0239820Y0240032D01*
X0239820Y0228784D02*
X0239820Y0226264D01*
X0239820Y0228784D02*
X0240764Y0228784D01*
X0240764Y0226264D01*
X0239820Y0226264D01*
X0239820Y0226499D02*
X0240764Y0226499D01*
X0240764Y0226734D02*
X0239820Y0226734D01*
X0239820Y0226969D02*
X0240764Y0226969D01*
X0240764Y0227204D02*
X0239820Y0227204D01*
X0239820Y0227439D02*
X0240764Y0227439D01*
X0240764Y0227674D02*
X0239820Y0227674D01*
X0239820Y0227909D02*
X0240764Y0227909D01*
X0240764Y0228144D02*
X0239820Y0228144D01*
X0239820Y0228379D02*
X0240764Y0228379D01*
X0240764Y0228614D02*
X0239820Y0228614D01*
X0241789Y0228784D02*
X0241789Y0226264D01*
X0241789Y0228784D02*
X0242733Y0228784D01*
X0242733Y0226264D01*
X0241789Y0226264D01*
X0241789Y0226499D02*
X0242733Y0226499D01*
X0242733Y0226734D02*
X0241789Y0226734D01*
X0241789Y0226969D02*
X0242733Y0226969D01*
X0242733Y0227204D02*
X0241789Y0227204D01*
X0241789Y0227439D02*
X0242733Y0227439D01*
X0242733Y0227674D02*
X0241789Y0227674D01*
X0241789Y0227909D02*
X0242733Y0227909D01*
X0242733Y0228144D02*
X0241789Y0228144D01*
X0241789Y0228379D02*
X0242733Y0228379D01*
X0242733Y0228614D02*
X0241789Y0228614D01*
X0243757Y0228784D02*
X0243757Y0226264D01*
X0243757Y0228784D02*
X0244701Y0228784D01*
X0244701Y0226264D01*
X0243757Y0226264D01*
X0243757Y0226499D02*
X0244701Y0226499D01*
X0244701Y0226734D02*
X0243757Y0226734D01*
X0243757Y0226969D02*
X0244701Y0226969D01*
X0244701Y0227204D02*
X0243757Y0227204D01*
X0243757Y0227439D02*
X0244701Y0227439D01*
X0244701Y0227674D02*
X0243757Y0227674D01*
X0243757Y0227909D02*
X0244701Y0227909D01*
X0244701Y0228144D02*
X0243757Y0228144D01*
X0243757Y0228379D02*
X0244701Y0228379D01*
X0244701Y0228614D02*
X0243757Y0228614D01*
X0245726Y0228784D02*
X0245726Y0226264D01*
X0245726Y0228784D02*
X0246670Y0228784D01*
X0246670Y0226264D01*
X0245726Y0226264D01*
X0245726Y0226499D02*
X0246670Y0226499D01*
X0246670Y0226734D02*
X0245726Y0226734D01*
X0245726Y0226969D02*
X0246670Y0226969D01*
X0246670Y0227204D02*
X0245726Y0227204D01*
X0245726Y0227439D02*
X0246670Y0227439D01*
X0246670Y0227674D02*
X0245726Y0227674D01*
X0245726Y0227909D02*
X0246670Y0227909D01*
X0246670Y0228144D02*
X0245726Y0228144D01*
X0245726Y0228379D02*
X0246670Y0228379D01*
X0246670Y0228614D02*
X0245726Y0228614D01*
X0247694Y0228784D02*
X0247694Y0226264D01*
X0247694Y0228784D02*
X0248638Y0228784D01*
X0248638Y0226264D01*
X0247694Y0226264D01*
X0247694Y0226499D02*
X0248638Y0226499D01*
X0248638Y0226734D02*
X0247694Y0226734D01*
X0247694Y0226969D02*
X0248638Y0226969D01*
X0248638Y0227204D02*
X0247694Y0227204D01*
X0247694Y0227439D02*
X0248638Y0227439D01*
X0248638Y0227674D02*
X0247694Y0227674D01*
X0247694Y0227909D02*
X0248638Y0227909D01*
X0248638Y0228144D02*
X0247694Y0228144D01*
X0247694Y0228379D02*
X0248638Y0228379D01*
X0248638Y0228614D02*
X0247694Y0228614D01*
X0183698Y0212948D02*
X0181178Y0212948D01*
X0181178Y0213892D01*
X0183698Y0213892D01*
X0183698Y0212948D01*
X0183698Y0213183D02*
X0181178Y0213183D01*
X0181178Y0213418D02*
X0183698Y0213418D01*
X0183698Y0213653D02*
X0181178Y0213653D01*
X0181178Y0213888D02*
X0183698Y0213888D01*
X0183698Y0210980D02*
X0181178Y0210980D01*
X0181178Y0211924D01*
X0183698Y0211924D01*
X0183698Y0210980D01*
X0183698Y0211215D02*
X0181178Y0211215D01*
X0181178Y0211450D02*
X0183698Y0211450D01*
X0183698Y0211685D02*
X0181178Y0211685D01*
X0181178Y0211920D02*
X0183698Y0211920D01*
X0183698Y0209011D02*
X0181178Y0209011D01*
X0181178Y0209955D01*
X0183698Y0209955D01*
X0183698Y0209011D01*
X0183698Y0209246D02*
X0181178Y0209246D01*
X0181178Y0209481D02*
X0183698Y0209481D01*
X0183698Y0209716D02*
X0181178Y0209716D01*
X0181178Y0209951D02*
X0183698Y0209951D01*
X0183698Y0207043D02*
X0181178Y0207043D01*
X0181178Y0207987D01*
X0183698Y0207987D01*
X0183698Y0207043D01*
X0183698Y0207278D02*
X0181178Y0207278D01*
X0181178Y0207513D02*
X0183698Y0207513D01*
X0183698Y0207748D02*
X0181178Y0207748D01*
X0181178Y0207983D02*
X0183698Y0207983D01*
X0183698Y0205074D02*
X0181178Y0205074D01*
X0181178Y0206018D01*
X0183698Y0206018D01*
X0183698Y0205074D01*
X0183698Y0205309D02*
X0181178Y0205309D01*
X0181178Y0205544D02*
X0183698Y0205544D01*
X0183698Y0205779D02*
X0181178Y0205779D01*
X0181178Y0206014D02*
X0183698Y0206014D01*
X0172281Y0205074D02*
X0169761Y0205074D01*
X0169761Y0206018D01*
X0172281Y0206018D01*
X0172281Y0205074D01*
X0172281Y0205309D02*
X0169761Y0205309D01*
X0169761Y0205544D02*
X0172281Y0205544D01*
X0172281Y0205779D02*
X0169761Y0205779D01*
X0169761Y0206014D02*
X0172281Y0206014D01*
X0172281Y0207043D02*
X0169761Y0207043D01*
X0169761Y0207987D01*
X0172281Y0207987D01*
X0172281Y0207043D01*
X0172281Y0207278D02*
X0169761Y0207278D01*
X0169761Y0207513D02*
X0172281Y0207513D01*
X0172281Y0207748D02*
X0169761Y0207748D01*
X0169761Y0207983D02*
X0172281Y0207983D01*
X0172281Y0209011D02*
X0169761Y0209011D01*
X0169761Y0209955D01*
X0172281Y0209955D01*
X0172281Y0209011D01*
X0172281Y0209246D02*
X0169761Y0209246D01*
X0169761Y0209481D02*
X0172281Y0209481D01*
X0172281Y0209716D02*
X0169761Y0209716D01*
X0169761Y0209951D02*
X0172281Y0209951D01*
X0172281Y0210980D02*
X0169761Y0210980D01*
X0169761Y0211924D01*
X0172281Y0211924D01*
X0172281Y0210980D01*
X0172281Y0211215D02*
X0169761Y0211215D01*
X0169761Y0211450D02*
X0172281Y0211450D01*
X0172281Y0211685D02*
X0169761Y0211685D01*
X0169761Y0211920D02*
X0172281Y0211920D01*
X0172281Y0212948D02*
X0169761Y0212948D01*
X0169761Y0213892D01*
X0172281Y0213892D01*
X0172281Y0212948D01*
X0172281Y0213183D02*
X0169761Y0213183D01*
X0169761Y0213418D02*
X0172281Y0213418D01*
X0172281Y0213653D02*
X0169761Y0213653D01*
X0169761Y0213888D02*
X0172281Y0213888D01*
X0108698Y0274768D02*
X0106178Y0274768D01*
X0108698Y0274768D02*
X0108698Y0273824D01*
X0106178Y0273824D01*
X0106178Y0274768D01*
X0106178Y0274059D02*
X0108698Y0274059D01*
X0108698Y0274294D02*
X0106178Y0274294D01*
X0106178Y0274529D02*
X0108698Y0274529D01*
X0108698Y0274764D02*
X0106178Y0274764D01*
X0106178Y0276737D02*
X0108698Y0276737D01*
X0108698Y0275793D01*
X0106178Y0275793D01*
X0106178Y0276737D01*
X0106178Y0276028D02*
X0108698Y0276028D01*
X0108698Y0276263D02*
X0106178Y0276263D01*
X0106178Y0276498D02*
X0108698Y0276498D01*
X0108698Y0276733D02*
X0106178Y0276733D01*
X0106178Y0278705D02*
X0108698Y0278705D01*
X0108698Y0277761D01*
X0106178Y0277761D01*
X0106178Y0278705D01*
X0106178Y0277996D02*
X0108698Y0277996D01*
X0108698Y0278231D02*
X0106178Y0278231D01*
X0106178Y0278466D02*
X0108698Y0278466D01*
X0108698Y0278701D02*
X0106178Y0278701D01*
X0106178Y0280674D02*
X0108698Y0280674D01*
X0108698Y0279730D01*
X0106178Y0279730D01*
X0106178Y0280674D01*
X0106178Y0279965D02*
X0108698Y0279965D01*
X0108698Y0280200D02*
X0106178Y0280200D01*
X0106178Y0280435D02*
X0108698Y0280435D01*
X0108698Y0280670D02*
X0106178Y0280670D01*
X0106178Y0282642D02*
X0108698Y0282642D01*
X0108698Y0281698D01*
X0106178Y0281698D01*
X0106178Y0282642D01*
X0106178Y0281933D02*
X0108698Y0281933D01*
X0108698Y0282168D02*
X0106178Y0282168D01*
X0106178Y0282403D02*
X0108698Y0282403D01*
X0108698Y0282638D02*
X0106178Y0282638D01*
X0097281Y0282642D02*
X0094761Y0282642D01*
X0097281Y0282642D02*
X0097281Y0281698D01*
X0094761Y0281698D01*
X0094761Y0282642D01*
X0094761Y0281933D02*
X0097281Y0281933D01*
X0097281Y0282168D02*
X0094761Y0282168D01*
X0094761Y0282403D02*
X0097281Y0282403D01*
X0097281Y0282638D02*
X0094761Y0282638D01*
X0094761Y0280674D02*
X0097281Y0280674D01*
X0097281Y0279730D01*
X0094761Y0279730D01*
X0094761Y0280674D01*
X0094761Y0279965D02*
X0097281Y0279965D01*
X0097281Y0280200D02*
X0094761Y0280200D01*
X0094761Y0280435D02*
X0097281Y0280435D01*
X0097281Y0280670D02*
X0094761Y0280670D01*
X0094761Y0278705D02*
X0097281Y0278705D01*
X0097281Y0277761D01*
X0094761Y0277761D01*
X0094761Y0278705D01*
X0094761Y0277996D02*
X0097281Y0277996D01*
X0097281Y0278231D02*
X0094761Y0278231D01*
X0094761Y0278466D02*
X0097281Y0278466D01*
X0097281Y0278701D02*
X0094761Y0278701D01*
X0094761Y0276737D02*
X0097281Y0276737D01*
X0097281Y0275793D01*
X0094761Y0275793D01*
X0094761Y0276737D01*
X0094761Y0276028D02*
X0097281Y0276028D01*
X0097281Y0276263D02*
X0094761Y0276263D01*
X0094761Y0276498D02*
X0097281Y0276498D01*
X0097281Y0276733D02*
X0094761Y0276733D01*
X0094761Y0274768D02*
X0097281Y0274768D01*
X0097281Y0273824D01*
X0094761Y0273824D01*
X0094761Y0274768D01*
X0094761Y0274059D02*
X0097281Y0274059D01*
X0097281Y0274294D02*
X0094761Y0274294D01*
X0094761Y0274529D02*
X0097281Y0274529D01*
X0097281Y0274764D02*
X0094761Y0274764D01*
D15*
X0099761Y0274887D03*
X0099761Y0278233D03*
X0099761Y0281580D03*
X0103698Y0281580D03*
X0103698Y0278233D03*
X0103698Y0274887D03*
X0174761Y0212830D03*
X0174761Y0209483D03*
X0174761Y0206137D03*
X0178698Y0206137D03*
X0178698Y0209483D03*
X0178698Y0212830D03*
X0240883Y0231265D03*
X0244229Y0231265D03*
X0247576Y0231265D03*
X0247576Y0235202D03*
X0244229Y0235202D03*
X0240883Y0235202D03*
X0315883Y0235202D03*
X0319229Y0235202D03*
X0322576Y0235202D03*
X0322576Y0231265D03*
X0319229Y0231265D03*
X0315883Y0231265D03*
X0404761Y0181580D03*
X0404761Y0178233D03*
X0404761Y0174887D03*
X0408698Y0174887D03*
X0408698Y0178233D03*
X0408698Y0181580D03*
X0343698Y0150330D03*
X0343698Y0146983D03*
X0343698Y0143637D03*
X0339761Y0143637D03*
X0339761Y0146983D03*
X0339761Y0150330D03*
X0277576Y0125202D03*
X0274229Y0125202D03*
X0270883Y0125202D03*
X0270883Y0121265D03*
X0274229Y0121265D03*
X0277576Y0121265D03*
X0202576Y0121265D03*
X0199229Y0121265D03*
X0195883Y0121265D03*
X0195883Y0125202D03*
X0199229Y0125202D03*
X0202576Y0125202D03*
X0103698Y0081580D03*
X0103698Y0078233D03*
X0103698Y0074887D03*
X0099761Y0074887D03*
X0099761Y0078233D03*
X0099761Y0081580D03*
D16*
X0125159Y0218753D02*
X0125159Y0223513D01*
X0125159Y0218753D02*
X0123399Y0218753D01*
X0123399Y0223513D01*
X0125159Y0223513D01*
X0125159Y0219192D02*
X0123399Y0219192D01*
X0123399Y0219631D02*
X0125159Y0219631D01*
X0125159Y0220070D02*
X0123399Y0220070D01*
X0123399Y0220509D02*
X0125159Y0220509D01*
X0125159Y0220948D02*
X0123399Y0220948D01*
X0123399Y0221387D02*
X0125159Y0221387D01*
X0125159Y0221826D02*
X0123399Y0221826D01*
X0123399Y0222265D02*
X0125159Y0222265D01*
X0125159Y0222704D02*
X0123399Y0222704D01*
X0123399Y0223143D02*
X0125159Y0223143D01*
X0128859Y0223513D02*
X0128859Y0218753D01*
X0127099Y0218753D01*
X0127099Y0223513D01*
X0128859Y0223513D01*
X0128859Y0219192D02*
X0127099Y0219192D01*
X0127099Y0219631D02*
X0128859Y0219631D01*
X0128859Y0220070D02*
X0127099Y0220070D01*
X0127099Y0220509D02*
X0128859Y0220509D01*
X0128859Y0220948D02*
X0127099Y0220948D01*
X0127099Y0221387D02*
X0128859Y0221387D01*
X0128859Y0221826D02*
X0127099Y0221826D01*
X0127099Y0222265D02*
X0128859Y0222265D01*
X0128859Y0222704D02*
X0127099Y0222704D01*
X0127099Y0223143D02*
X0128859Y0223143D01*
X0132559Y0223513D02*
X0132559Y0218753D01*
X0130799Y0218753D01*
X0130799Y0223513D01*
X0132559Y0223513D01*
X0132559Y0219192D02*
X0130799Y0219192D01*
X0130799Y0219631D02*
X0132559Y0219631D01*
X0132559Y0220070D02*
X0130799Y0220070D01*
X0130799Y0220509D02*
X0132559Y0220509D01*
X0132559Y0220948D02*
X0130799Y0220948D01*
X0130799Y0221387D02*
X0132559Y0221387D01*
X0132559Y0221826D02*
X0130799Y0221826D01*
X0130799Y0222265D02*
X0132559Y0222265D01*
X0132559Y0222704D02*
X0130799Y0222704D01*
X0130799Y0223143D02*
X0132559Y0223143D01*
X0132559Y0227953D02*
X0132559Y0232713D01*
X0132559Y0227953D02*
X0130799Y0227953D01*
X0130799Y0232713D01*
X0132559Y0232713D01*
X0132559Y0228392D02*
X0130799Y0228392D01*
X0130799Y0228831D02*
X0132559Y0228831D01*
X0132559Y0229270D02*
X0130799Y0229270D01*
X0130799Y0229709D02*
X0132559Y0229709D01*
X0132559Y0230148D02*
X0130799Y0230148D01*
X0130799Y0230587D02*
X0132559Y0230587D01*
X0132559Y0231026D02*
X0130799Y0231026D01*
X0130799Y0231465D02*
X0132559Y0231465D01*
X0132559Y0231904D02*
X0130799Y0231904D01*
X0130799Y0232343D02*
X0132559Y0232343D01*
X0125159Y0232713D02*
X0125159Y0227953D01*
X0123399Y0227953D01*
X0123399Y0232713D01*
X0125159Y0232713D01*
X0125159Y0228392D02*
X0123399Y0228392D01*
X0123399Y0228831D02*
X0125159Y0228831D01*
X0125159Y0229270D02*
X0123399Y0229270D01*
X0123399Y0229709D02*
X0125159Y0229709D01*
X0125159Y0230148D02*
X0123399Y0230148D01*
X0123399Y0230587D02*
X0125159Y0230587D01*
X0125159Y0231026D02*
X0123399Y0231026D01*
X0123399Y0231465D02*
X0125159Y0231465D01*
X0125159Y0231904D02*
X0123399Y0231904D01*
X0123399Y0232343D02*
X0125159Y0232343D01*
X0385899Y0137713D02*
X0385899Y0132953D01*
X0385899Y0137713D02*
X0387659Y0137713D01*
X0387659Y0132953D01*
X0385899Y0132953D01*
X0385899Y0133392D02*
X0387659Y0133392D01*
X0387659Y0133831D02*
X0385899Y0133831D01*
X0385899Y0134270D02*
X0387659Y0134270D01*
X0387659Y0134709D02*
X0385899Y0134709D01*
X0385899Y0135148D02*
X0387659Y0135148D01*
X0387659Y0135587D02*
X0385899Y0135587D01*
X0385899Y0136026D02*
X0387659Y0136026D01*
X0387659Y0136465D02*
X0385899Y0136465D01*
X0385899Y0136904D02*
X0387659Y0136904D01*
X0387659Y0137343D02*
X0385899Y0137343D01*
X0389599Y0137713D02*
X0389599Y0132953D01*
X0389599Y0137713D02*
X0391359Y0137713D01*
X0391359Y0132953D01*
X0389599Y0132953D01*
X0389599Y0133392D02*
X0391359Y0133392D01*
X0391359Y0133831D02*
X0389599Y0133831D01*
X0389599Y0134270D02*
X0391359Y0134270D01*
X0391359Y0134709D02*
X0389599Y0134709D01*
X0389599Y0135148D02*
X0391359Y0135148D01*
X0391359Y0135587D02*
X0389599Y0135587D01*
X0389599Y0136026D02*
X0391359Y0136026D01*
X0391359Y0136465D02*
X0389599Y0136465D01*
X0389599Y0136904D02*
X0391359Y0136904D01*
X0391359Y0137343D02*
X0389599Y0137343D01*
X0393299Y0137713D02*
X0393299Y0132953D01*
X0393299Y0137713D02*
X0395059Y0137713D01*
X0395059Y0132953D01*
X0393299Y0132953D01*
X0393299Y0133392D02*
X0395059Y0133392D01*
X0395059Y0133831D02*
X0393299Y0133831D01*
X0393299Y0134270D02*
X0395059Y0134270D01*
X0395059Y0134709D02*
X0393299Y0134709D01*
X0393299Y0135148D02*
X0395059Y0135148D01*
X0395059Y0135587D02*
X0393299Y0135587D01*
X0393299Y0136026D02*
X0395059Y0136026D01*
X0395059Y0136465D02*
X0393299Y0136465D01*
X0393299Y0136904D02*
X0395059Y0136904D01*
X0395059Y0137343D02*
X0393299Y0137343D01*
X0393299Y0128513D02*
X0393299Y0123753D01*
X0393299Y0128513D02*
X0395059Y0128513D01*
X0395059Y0123753D01*
X0393299Y0123753D01*
X0393299Y0124192D02*
X0395059Y0124192D01*
X0395059Y0124631D02*
X0393299Y0124631D01*
X0393299Y0125070D02*
X0395059Y0125070D01*
X0395059Y0125509D02*
X0393299Y0125509D01*
X0393299Y0125948D02*
X0395059Y0125948D01*
X0395059Y0126387D02*
X0393299Y0126387D01*
X0393299Y0126826D02*
X0395059Y0126826D01*
X0395059Y0127265D02*
X0393299Y0127265D01*
X0393299Y0127704D02*
X0395059Y0127704D01*
X0395059Y0128143D02*
X0393299Y0128143D01*
X0385899Y0128513D02*
X0385899Y0123753D01*
X0385899Y0128513D02*
X0387659Y0128513D01*
X0387659Y0123753D01*
X0385899Y0123753D01*
X0385899Y0124192D02*
X0387659Y0124192D01*
X0387659Y0124631D02*
X0385899Y0124631D01*
X0385899Y0125070D02*
X0387659Y0125070D01*
X0387659Y0125509D02*
X0385899Y0125509D01*
X0385899Y0125948D02*
X0387659Y0125948D01*
X0387659Y0126387D02*
X0385899Y0126387D01*
X0385899Y0126826D02*
X0387659Y0126826D01*
X0387659Y0127265D02*
X0385899Y0127265D01*
X0385899Y0127704D02*
X0387659Y0127704D01*
X0387659Y0128143D02*
X0385899Y0128143D01*
D17*
X0116139Y0110950D02*
X0116139Y0107328D01*
X0116139Y0110950D02*
X0122319Y0110950D01*
X0122319Y0107328D01*
X0116139Y0107328D01*
X0116139Y0108233D02*
X0122319Y0108233D01*
X0122319Y0109138D02*
X0116139Y0109138D01*
X0116139Y0110043D02*
X0122319Y0110043D01*
X0122319Y0110948D02*
X0116139Y0110948D01*
X0106139Y0110950D02*
X0106139Y0107328D01*
X0106139Y0110950D02*
X0112319Y0110950D01*
X0112319Y0107328D01*
X0106139Y0107328D01*
X0106139Y0108233D02*
X0112319Y0108233D01*
X0112319Y0109138D02*
X0106139Y0109138D01*
X0106139Y0110043D02*
X0112319Y0110043D01*
X0112319Y0110948D02*
X0106139Y0110948D01*
X0106139Y0099139D02*
X0106139Y0095517D01*
X0106139Y0099139D02*
X0112319Y0099139D01*
X0112319Y0095517D01*
X0106139Y0095517D01*
X0106139Y0096422D02*
X0112319Y0096422D01*
X0112319Y0097327D02*
X0106139Y0097327D01*
X0106139Y0098232D02*
X0112319Y0098232D01*
X0112319Y0099137D02*
X0106139Y0099137D01*
X0116139Y0099139D02*
X0116139Y0095517D01*
X0116139Y0099139D02*
X0122319Y0099139D01*
X0122319Y0095517D01*
X0116139Y0095517D01*
X0116139Y0096422D02*
X0122319Y0096422D01*
X0122319Y0097327D02*
X0116139Y0097327D01*
X0116139Y0098232D02*
X0122319Y0098232D01*
X0122319Y0099137D02*
X0116139Y0099137D01*
X0122319Y0245517D02*
X0122319Y0249139D01*
X0122319Y0245517D02*
X0116139Y0245517D01*
X0116139Y0249139D01*
X0122319Y0249139D01*
X0122319Y0246422D02*
X0116139Y0246422D01*
X0116139Y0247327D02*
X0122319Y0247327D01*
X0122319Y0248232D02*
X0116139Y0248232D01*
X0116139Y0249137D02*
X0122319Y0249137D01*
X0112319Y0249139D02*
X0112319Y0245517D01*
X0106139Y0245517D01*
X0106139Y0249139D01*
X0112319Y0249139D01*
X0112319Y0246422D02*
X0106139Y0246422D01*
X0106139Y0247327D02*
X0112319Y0247327D01*
X0112319Y0248232D02*
X0106139Y0248232D01*
X0106139Y0249137D02*
X0112319Y0249137D01*
X0112319Y0257328D02*
X0112319Y0260950D01*
X0112319Y0257328D02*
X0106139Y0257328D01*
X0106139Y0260950D01*
X0112319Y0260950D01*
X0112319Y0258233D02*
X0106139Y0258233D01*
X0106139Y0259138D02*
X0112319Y0259138D01*
X0112319Y0260043D02*
X0106139Y0260043D01*
X0106139Y0260948D02*
X0112319Y0260948D01*
X0122319Y0260950D02*
X0122319Y0257328D01*
X0116139Y0257328D01*
X0116139Y0260950D01*
X0122319Y0260950D01*
X0122319Y0258233D02*
X0116139Y0258233D01*
X0116139Y0259138D02*
X0122319Y0259138D01*
X0122319Y0260043D02*
X0116139Y0260043D01*
X0116139Y0260948D02*
X0122319Y0260948D01*
D18*
X0428186Y0147209D02*
X0430548Y0147209D01*
X0430548Y0144257D01*
X0428186Y0144257D01*
X0428186Y0147209D01*
X0428186Y0144847D02*
X0430548Y0144847D01*
X0430548Y0145437D02*
X0428186Y0145437D01*
X0428186Y0146027D02*
X0430548Y0146027D01*
X0430548Y0146617D02*
X0428186Y0146617D01*
X0428186Y0147207D02*
X0430548Y0147207D01*
X0432911Y0147209D02*
X0435273Y0147209D01*
X0435273Y0144257D01*
X0432911Y0144257D01*
X0432911Y0147209D01*
X0432911Y0144847D02*
X0435273Y0144847D01*
X0435273Y0145437D02*
X0432911Y0145437D01*
X0432911Y0146027D02*
X0435273Y0146027D01*
X0435273Y0146617D02*
X0432911Y0146617D01*
X0432911Y0147207D02*
X0435273Y0147207D01*
X0444455Y0149690D02*
X0444455Y0152052D01*
X0444455Y0149690D02*
X0441503Y0149690D01*
X0441503Y0152052D01*
X0444455Y0152052D01*
X0444455Y0150280D02*
X0441503Y0150280D01*
X0441503Y0150870D02*
X0444455Y0150870D01*
X0444455Y0151460D02*
X0441503Y0151460D01*
X0441503Y0152050D02*
X0444455Y0152050D01*
X0444455Y0154414D02*
X0444455Y0156776D01*
X0444455Y0154414D02*
X0441503Y0154414D01*
X0441503Y0156776D01*
X0444455Y0156776D01*
X0444455Y0155004D02*
X0441503Y0155004D01*
X0441503Y0155594D02*
X0444455Y0155594D01*
X0444455Y0156184D02*
X0441503Y0156184D01*
X0441503Y0156774D02*
X0444455Y0156774D01*
X0441503Y0159690D02*
X0441503Y0162052D01*
X0444455Y0162052D01*
X0444455Y0159690D01*
X0441503Y0159690D01*
X0441503Y0160280D02*
X0444455Y0160280D01*
X0444455Y0160870D02*
X0441503Y0160870D01*
X0441503Y0161460D02*
X0444455Y0161460D01*
X0444455Y0162050D02*
X0441503Y0162050D01*
X0441503Y0164414D02*
X0441503Y0166776D01*
X0444455Y0166776D01*
X0444455Y0164414D01*
X0441503Y0164414D01*
X0441503Y0165004D02*
X0444455Y0165004D01*
X0444455Y0165594D02*
X0441503Y0165594D01*
X0441503Y0166184D02*
X0444455Y0166184D01*
X0444455Y0166774D02*
X0441503Y0166774D01*
D19*
X0352675Y0176206D02*
X0348619Y0176206D01*
X0352675Y0176206D02*
X0352675Y0174316D01*
X0348619Y0174316D01*
X0348619Y0176206D01*
X0348619Y0174787D02*
X0352675Y0174787D01*
X0352675Y0175258D02*
X0348619Y0175258D01*
X0348619Y0175729D02*
X0352675Y0175729D01*
X0352675Y0176200D02*
X0348619Y0176200D01*
X0348619Y0192151D02*
X0352675Y0192151D01*
X0352675Y0190261D01*
X0348619Y0190261D01*
X0348619Y0192151D01*
X0348619Y0190732D02*
X0352675Y0190732D01*
X0352675Y0191203D02*
X0348619Y0191203D01*
X0348619Y0191674D02*
X0352675Y0191674D01*
X0352675Y0192145D02*
X0348619Y0192145D01*
X0329840Y0192151D02*
X0325784Y0192151D01*
X0329840Y0192151D02*
X0329840Y0190261D01*
X0325784Y0190261D01*
X0325784Y0192151D01*
X0325784Y0190732D02*
X0329840Y0190732D01*
X0329840Y0191203D02*
X0325784Y0191203D01*
X0325784Y0191674D02*
X0329840Y0191674D01*
X0329840Y0192145D02*
X0325784Y0192145D01*
X0325784Y0176206D02*
X0329840Y0176206D01*
X0329840Y0174316D01*
X0325784Y0174316D01*
X0325784Y0176206D01*
X0325784Y0174787D02*
X0329840Y0174787D01*
X0329840Y0175258D02*
X0325784Y0175258D01*
X0325784Y0175729D02*
X0329840Y0175729D01*
X0329840Y0176200D02*
X0325784Y0176200D01*
D20*
X0325705Y0178745D02*
X0329919Y0178745D01*
X0329919Y0177485D01*
X0325705Y0177485D01*
X0325705Y0178745D01*
X0325705Y0177799D02*
X0329919Y0177799D01*
X0329919Y0178113D02*
X0325705Y0178113D01*
X0325705Y0178427D02*
X0329919Y0178427D01*
X0329919Y0178741D02*
X0325705Y0178741D01*
X0325705Y0181304D02*
X0329919Y0181304D01*
X0329919Y0180044D01*
X0325705Y0180044D01*
X0325705Y0181304D01*
X0325705Y0180358D02*
X0329919Y0180358D01*
X0329919Y0180672D02*
X0325705Y0180672D01*
X0325705Y0180986D02*
X0329919Y0180986D01*
X0329919Y0181300D02*
X0325705Y0181300D01*
X0325705Y0183863D02*
X0329919Y0183863D01*
X0329919Y0182603D01*
X0325705Y0182603D01*
X0325705Y0183863D01*
X0325705Y0182917D02*
X0329919Y0182917D01*
X0329919Y0183231D02*
X0325705Y0183231D01*
X0325705Y0183545D02*
X0329919Y0183545D01*
X0329919Y0183859D02*
X0325705Y0183859D01*
X0325705Y0186422D02*
X0329919Y0186422D01*
X0329919Y0185162D01*
X0325705Y0185162D01*
X0325705Y0186422D01*
X0325705Y0185476D02*
X0329919Y0185476D01*
X0329919Y0185790D02*
X0325705Y0185790D01*
X0325705Y0186104D02*
X0329919Y0186104D01*
X0329919Y0186418D02*
X0325705Y0186418D01*
X0325705Y0188981D02*
X0329919Y0188981D01*
X0329919Y0187721D01*
X0325705Y0187721D01*
X0325705Y0188981D01*
X0325705Y0188035D02*
X0329919Y0188035D01*
X0329919Y0188349D02*
X0325705Y0188349D01*
X0325705Y0188663D02*
X0329919Y0188663D01*
X0329919Y0188977D02*
X0325705Y0188977D01*
X0348540Y0188981D02*
X0352754Y0188981D01*
X0352754Y0187721D01*
X0348540Y0187721D01*
X0348540Y0188981D01*
X0348540Y0188035D02*
X0352754Y0188035D01*
X0352754Y0188349D02*
X0348540Y0188349D01*
X0348540Y0188663D02*
X0352754Y0188663D01*
X0352754Y0188977D02*
X0348540Y0188977D01*
X0348540Y0186422D02*
X0352754Y0186422D01*
X0352754Y0185162D01*
X0348540Y0185162D01*
X0348540Y0186422D01*
X0348540Y0185476D02*
X0352754Y0185476D01*
X0352754Y0185790D02*
X0348540Y0185790D01*
X0348540Y0186104D02*
X0352754Y0186104D01*
X0352754Y0186418D02*
X0348540Y0186418D01*
X0348540Y0183863D02*
X0352754Y0183863D01*
X0352754Y0182603D01*
X0348540Y0182603D01*
X0348540Y0183863D01*
X0348540Y0182917D02*
X0352754Y0182917D01*
X0352754Y0183231D02*
X0348540Y0183231D01*
X0348540Y0183545D02*
X0352754Y0183545D01*
X0352754Y0183859D02*
X0348540Y0183859D01*
X0348540Y0181304D02*
X0352754Y0181304D01*
X0352754Y0180044D01*
X0348540Y0180044D01*
X0348540Y0181304D01*
X0348540Y0180358D02*
X0352754Y0180358D01*
X0352754Y0180672D02*
X0348540Y0180672D01*
X0348540Y0180986D02*
X0352754Y0180986D01*
X0352754Y0181300D02*
X0348540Y0181300D01*
X0348540Y0178745D02*
X0352754Y0178745D01*
X0352754Y0177485D01*
X0348540Y0177485D01*
X0348540Y0178745D01*
X0348540Y0177799D02*
X0352754Y0177799D01*
X0352754Y0178113D02*
X0348540Y0178113D01*
X0348540Y0178427D02*
X0352754Y0178427D01*
X0352754Y0178741D02*
X0348540Y0178741D01*
D21*
X0404082Y0195177D02*
X0405195Y0196290D01*
X0405752Y0195733D01*
X0404639Y0194620D01*
X0404082Y0195177D01*
X0404443Y0194816D02*
X0404835Y0194816D01*
X0405031Y0195012D02*
X0404247Y0195012D01*
X0404113Y0195208D02*
X0405227Y0195208D01*
X0405423Y0195404D02*
X0404309Y0195404D01*
X0404505Y0195600D02*
X0405619Y0195600D01*
X0405689Y0195796D02*
X0404701Y0195796D01*
X0404897Y0195992D02*
X0405493Y0195992D01*
X0405297Y0196188D02*
X0405093Y0196188D01*
X0406031Y0198238D02*
X0407144Y0197125D01*
X0406587Y0196568D01*
X0405474Y0197681D01*
X0406031Y0198238D01*
X0406391Y0196764D02*
X0406783Y0196764D01*
X0406979Y0196960D02*
X0406195Y0196960D01*
X0405999Y0197156D02*
X0407113Y0197156D01*
X0406917Y0197352D02*
X0405803Y0197352D01*
X0405607Y0197548D02*
X0406721Y0197548D01*
X0406525Y0197744D02*
X0405537Y0197744D01*
X0405733Y0197940D02*
X0406329Y0197940D01*
X0406133Y0198136D02*
X0405929Y0198136D01*
X0407423Y0198517D02*
X0408536Y0199630D01*
X0409093Y0199073D01*
X0407980Y0197960D01*
X0407423Y0198517D01*
X0407784Y0198156D02*
X0408176Y0198156D01*
X0408372Y0198352D02*
X0407588Y0198352D01*
X0407454Y0198548D02*
X0408568Y0198548D01*
X0408764Y0198744D02*
X0407650Y0198744D01*
X0407846Y0198940D02*
X0408960Y0198940D01*
X0409030Y0199136D02*
X0408042Y0199136D01*
X0408238Y0199332D02*
X0408834Y0199332D01*
X0408638Y0199528D02*
X0408434Y0199528D01*
X0409928Y0198238D02*
X0408815Y0197125D01*
X0409928Y0198238D02*
X0410485Y0197681D01*
X0409372Y0196568D01*
X0408815Y0197125D01*
X0409176Y0196764D02*
X0409568Y0196764D01*
X0409764Y0196960D02*
X0408980Y0196960D01*
X0408846Y0197156D02*
X0409960Y0197156D01*
X0410156Y0197352D02*
X0409042Y0197352D01*
X0409238Y0197548D02*
X0410352Y0197548D01*
X0410422Y0197744D02*
X0409434Y0197744D01*
X0409630Y0197940D02*
X0410226Y0197940D01*
X0410030Y0198136D02*
X0409826Y0198136D01*
X0411320Y0196846D02*
X0410207Y0195733D01*
X0411320Y0196846D02*
X0411877Y0196289D01*
X0410764Y0195176D01*
X0410207Y0195733D01*
X0410568Y0195372D02*
X0410960Y0195372D01*
X0411156Y0195568D02*
X0410372Y0195568D01*
X0410238Y0195764D02*
X0411352Y0195764D01*
X0411548Y0195960D02*
X0410434Y0195960D01*
X0410630Y0196156D02*
X0411744Y0196156D01*
X0411814Y0196352D02*
X0410826Y0196352D01*
X0411022Y0196548D02*
X0411618Y0196548D01*
X0411422Y0196744D02*
X0411218Y0196744D01*
X0409372Y0194898D02*
X0410485Y0193785D01*
X0409928Y0193228D01*
X0408815Y0194341D01*
X0409372Y0194898D01*
X0409732Y0193424D02*
X0410124Y0193424D01*
X0410320Y0193620D02*
X0409536Y0193620D01*
X0409340Y0193816D02*
X0410454Y0193816D01*
X0410258Y0194012D02*
X0409144Y0194012D01*
X0408948Y0194208D02*
X0410062Y0194208D01*
X0409866Y0194404D02*
X0408878Y0194404D01*
X0409074Y0194600D02*
X0409670Y0194600D01*
X0409474Y0194796D02*
X0409270Y0194796D01*
X0407979Y0193506D02*
X0406866Y0192393D01*
X0407979Y0193506D02*
X0408536Y0192949D01*
X0407423Y0191836D01*
X0406866Y0192393D01*
X0407227Y0192032D02*
X0407619Y0192032D01*
X0407815Y0192228D02*
X0407031Y0192228D01*
X0406897Y0192424D02*
X0408011Y0192424D01*
X0408207Y0192620D02*
X0407093Y0192620D01*
X0407289Y0192816D02*
X0408403Y0192816D01*
X0408473Y0193012D02*
X0407485Y0193012D01*
X0407681Y0193208D02*
X0408277Y0193208D01*
X0408081Y0193404D02*
X0407877Y0193404D01*
X0406587Y0194898D02*
X0405474Y0193785D01*
X0406587Y0194898D02*
X0407144Y0194341D01*
X0406031Y0193228D01*
X0405474Y0193785D01*
X0405835Y0193424D02*
X0406227Y0193424D01*
X0406423Y0193620D02*
X0405639Y0193620D01*
X0405505Y0193816D02*
X0406619Y0193816D01*
X0406815Y0194012D02*
X0405701Y0194012D01*
X0405897Y0194208D02*
X0407011Y0194208D01*
X0407081Y0194404D02*
X0406093Y0194404D01*
X0406289Y0194600D02*
X0406885Y0194600D01*
X0406689Y0194796D02*
X0406485Y0194796D01*
X0425725Y0162485D02*
X0428679Y0162485D01*
X0425725Y0162485D02*
X0425725Y0163075D01*
X0428679Y0163075D01*
X0428679Y0162485D01*
X0428679Y0162681D02*
X0425725Y0162681D01*
X0425725Y0162877D02*
X0428679Y0162877D01*
X0428679Y0163073D02*
X0425725Y0163073D01*
X0425725Y0160911D02*
X0428679Y0160911D01*
X0425725Y0160911D02*
X0425725Y0161501D01*
X0428679Y0161501D01*
X0428679Y0160911D01*
X0428679Y0161107D02*
X0425725Y0161107D01*
X0425725Y0161303D02*
X0428679Y0161303D01*
X0428679Y0161499D02*
X0425725Y0161499D01*
X0425725Y0159336D02*
X0428679Y0159336D01*
X0425725Y0159336D02*
X0425725Y0159926D01*
X0428679Y0159926D01*
X0428679Y0159336D01*
X0428679Y0159532D02*
X0425725Y0159532D01*
X0425725Y0159728D02*
X0428679Y0159728D01*
X0428679Y0159924D02*
X0425725Y0159924D01*
X0425725Y0156895D02*
X0428679Y0156895D01*
X0425725Y0156895D02*
X0425725Y0157485D01*
X0428679Y0157485D01*
X0428679Y0156895D01*
X0428679Y0157091D02*
X0425725Y0157091D01*
X0425725Y0157287D02*
X0428679Y0157287D01*
X0428679Y0157483D02*
X0425725Y0157483D01*
X0425725Y0155320D02*
X0428679Y0155320D01*
X0425725Y0155320D02*
X0425725Y0155910D01*
X0428679Y0155910D01*
X0428679Y0155320D01*
X0428679Y0155516D02*
X0425725Y0155516D01*
X0425725Y0155712D02*
X0428679Y0155712D01*
X0428679Y0155908D02*
X0425725Y0155908D01*
X0425725Y0153745D02*
X0428679Y0153745D01*
X0425725Y0153745D02*
X0425725Y0154335D01*
X0428679Y0154335D01*
X0428679Y0153745D01*
X0428679Y0153941D02*
X0425725Y0153941D01*
X0425725Y0154137D02*
X0428679Y0154137D01*
X0428679Y0154333D02*
X0425725Y0154333D01*
X0434780Y0153745D02*
X0437734Y0153745D01*
X0434780Y0153745D02*
X0434780Y0154335D01*
X0437734Y0154335D01*
X0437734Y0153745D01*
X0437734Y0153941D02*
X0434780Y0153941D01*
X0434780Y0154137D02*
X0437734Y0154137D01*
X0437734Y0154333D02*
X0434780Y0154333D01*
X0434780Y0155320D02*
X0437734Y0155320D01*
X0434780Y0155320D02*
X0434780Y0155910D01*
X0437734Y0155910D01*
X0437734Y0155320D01*
X0437734Y0155516D02*
X0434780Y0155516D01*
X0434780Y0155712D02*
X0437734Y0155712D01*
X0437734Y0155908D02*
X0434780Y0155908D01*
X0434780Y0156895D02*
X0437734Y0156895D01*
X0434780Y0156895D02*
X0434780Y0157485D01*
X0437734Y0157485D01*
X0437734Y0156895D01*
X0437734Y0157091D02*
X0434780Y0157091D01*
X0434780Y0157287D02*
X0437734Y0157287D01*
X0437734Y0157483D02*
X0434780Y0157483D01*
X0434780Y0159336D02*
X0437734Y0159336D01*
X0434780Y0159336D02*
X0434780Y0159926D01*
X0437734Y0159926D01*
X0437734Y0159336D01*
X0437734Y0159532D02*
X0434780Y0159532D01*
X0434780Y0159728D02*
X0437734Y0159728D01*
X0437734Y0159924D02*
X0434780Y0159924D01*
X0434780Y0162485D02*
X0437734Y0162485D01*
X0434780Y0162485D02*
X0434780Y0163075D01*
X0437734Y0163075D01*
X0437734Y0162485D01*
X0437734Y0162681D02*
X0434780Y0162681D01*
X0434780Y0162877D02*
X0437734Y0162877D01*
X0437734Y0163073D02*
X0434780Y0163073D01*
X0432812Y0162268D02*
X0432812Y0165222D01*
X0432812Y0162268D02*
X0432222Y0162268D01*
X0432222Y0165222D01*
X0432812Y0165222D01*
X0432812Y0162464D02*
X0432222Y0162464D01*
X0432222Y0162660D02*
X0432812Y0162660D01*
X0432812Y0162856D02*
X0432222Y0162856D01*
X0432222Y0163052D02*
X0432812Y0163052D01*
X0432812Y0163248D02*
X0432222Y0163248D01*
X0432222Y0163444D02*
X0432812Y0163444D01*
X0432812Y0163640D02*
X0432222Y0163640D01*
X0432222Y0163836D02*
X0432812Y0163836D01*
X0432812Y0164032D02*
X0432222Y0164032D01*
X0432222Y0164228D02*
X0432812Y0164228D01*
X0432812Y0164424D02*
X0432222Y0164424D01*
X0432222Y0164620D02*
X0432812Y0164620D01*
X0432812Y0164816D02*
X0432222Y0164816D01*
X0432222Y0165012D02*
X0432812Y0165012D01*
X0432812Y0165208D02*
X0432222Y0165208D01*
X0431237Y0165222D02*
X0431237Y0162268D01*
X0430647Y0162268D01*
X0430647Y0165222D01*
X0431237Y0165222D01*
X0431237Y0162464D02*
X0430647Y0162464D01*
X0430647Y0162660D02*
X0431237Y0162660D01*
X0431237Y0162856D02*
X0430647Y0162856D01*
X0430647Y0163052D02*
X0431237Y0163052D01*
X0431237Y0163248D02*
X0430647Y0163248D01*
X0430647Y0163444D02*
X0431237Y0163444D01*
X0431237Y0163640D02*
X0430647Y0163640D01*
X0430647Y0163836D02*
X0431237Y0163836D01*
X0431237Y0164032D02*
X0430647Y0164032D01*
X0430647Y0164228D02*
X0431237Y0164228D01*
X0431237Y0164424D02*
X0430647Y0164424D01*
X0430647Y0164620D02*
X0431237Y0164620D01*
X0431237Y0164816D02*
X0430647Y0164816D01*
X0430647Y0165012D02*
X0431237Y0165012D01*
X0431237Y0165208D02*
X0430647Y0165208D01*
D22*
X0434722Y0212455D02*
X0437714Y0212455D01*
X0437714Y0206511D01*
X0434722Y0206511D01*
X0434722Y0212455D01*
X0434722Y0207258D02*
X0437714Y0207258D01*
X0437714Y0208005D02*
X0434722Y0208005D01*
X0434722Y0208752D02*
X0437714Y0208752D01*
X0437714Y0209499D02*
X0434722Y0209499D01*
X0434722Y0210246D02*
X0437714Y0210246D01*
X0437714Y0210993D02*
X0434722Y0210993D01*
X0434722Y0211740D02*
X0437714Y0211740D01*
X0445745Y0212455D02*
X0448737Y0212455D01*
X0448737Y0206511D01*
X0445745Y0206511D01*
X0445745Y0212455D01*
X0445745Y0207258D02*
X0448737Y0207258D01*
X0448737Y0208005D02*
X0445745Y0208005D01*
X0445745Y0208752D02*
X0448737Y0208752D01*
X0448737Y0209499D02*
X0445745Y0209499D01*
X0445745Y0210246D02*
X0448737Y0210246D01*
X0448737Y0210993D02*
X0445745Y0210993D01*
X0445745Y0211740D02*
X0448737Y0211740D01*
X0448737Y0221511D02*
X0445745Y0221511D01*
X0445745Y0227455D01*
X0448737Y0227455D01*
X0448737Y0221511D01*
X0448737Y0222258D02*
X0445745Y0222258D01*
X0445745Y0223005D02*
X0448737Y0223005D01*
X0448737Y0223752D02*
X0445745Y0223752D01*
X0445745Y0224499D02*
X0448737Y0224499D01*
X0448737Y0225246D02*
X0445745Y0225246D01*
X0445745Y0225993D02*
X0448737Y0225993D01*
X0448737Y0226740D02*
X0445745Y0226740D01*
X0437714Y0221511D02*
X0434722Y0221511D01*
X0434722Y0227455D01*
X0437714Y0227455D01*
X0437714Y0221511D01*
X0437714Y0222258D02*
X0434722Y0222258D01*
X0434722Y0223005D02*
X0437714Y0223005D01*
X0437714Y0223752D02*
X0434722Y0223752D01*
X0434722Y0224499D02*
X0437714Y0224499D01*
X0437714Y0225246D02*
X0434722Y0225246D01*
X0434722Y0225993D02*
X0437714Y0225993D01*
X0437714Y0226740D02*
X0434722Y0226740D01*
X0434722Y0242455D02*
X0437714Y0242455D01*
X0437714Y0236511D01*
X0434722Y0236511D01*
X0434722Y0242455D01*
X0434722Y0237258D02*
X0437714Y0237258D01*
X0437714Y0238005D02*
X0434722Y0238005D01*
X0434722Y0238752D02*
X0437714Y0238752D01*
X0437714Y0239499D02*
X0434722Y0239499D01*
X0434722Y0240246D02*
X0437714Y0240246D01*
X0437714Y0240993D02*
X0434722Y0240993D01*
X0434722Y0241740D02*
X0437714Y0241740D01*
X0445745Y0242455D02*
X0448737Y0242455D01*
X0448737Y0236511D01*
X0445745Y0236511D01*
X0445745Y0242455D01*
X0445745Y0237258D02*
X0448737Y0237258D01*
X0448737Y0238005D02*
X0445745Y0238005D01*
X0445745Y0238752D02*
X0448737Y0238752D01*
X0448737Y0239499D02*
X0445745Y0239499D01*
X0445745Y0240246D02*
X0448737Y0240246D01*
X0448737Y0240993D02*
X0445745Y0240993D01*
X0445745Y0241740D02*
X0448737Y0241740D01*
X0448737Y0251511D02*
X0445745Y0251511D01*
X0445745Y0257455D01*
X0448737Y0257455D01*
X0448737Y0251511D01*
X0448737Y0252258D02*
X0445745Y0252258D01*
X0445745Y0253005D02*
X0448737Y0253005D01*
X0448737Y0253752D02*
X0445745Y0253752D01*
X0445745Y0254499D02*
X0448737Y0254499D01*
X0448737Y0255246D02*
X0445745Y0255246D01*
X0445745Y0255993D02*
X0448737Y0255993D01*
X0448737Y0256740D02*
X0445745Y0256740D01*
X0437714Y0251511D02*
X0434722Y0251511D01*
X0434722Y0257455D01*
X0437714Y0257455D01*
X0437714Y0251511D01*
X0437714Y0252258D02*
X0434722Y0252258D01*
X0434722Y0253005D02*
X0437714Y0253005D01*
X0437714Y0253752D02*
X0434722Y0253752D01*
X0434722Y0254499D02*
X0437714Y0254499D01*
X0437714Y0255246D02*
X0434722Y0255246D01*
X0434722Y0255993D02*
X0437714Y0255993D01*
X0437714Y0256740D02*
X0434722Y0256740D01*
D23*
X0415874Y0227721D02*
X0415874Y0225497D01*
X0415874Y0227721D02*
X0416522Y0227721D01*
X0416522Y0225497D01*
X0415874Y0225497D01*
X0415874Y0226146D02*
X0416522Y0226146D01*
X0416522Y0226795D02*
X0415874Y0226795D01*
X0415874Y0227444D02*
X0416522Y0227444D01*
X0413905Y0227721D02*
X0413905Y0225497D01*
X0413905Y0227721D02*
X0414553Y0227721D01*
X0414553Y0225497D01*
X0413905Y0225497D01*
X0413905Y0226146D02*
X0414553Y0226146D01*
X0414553Y0226795D02*
X0413905Y0226795D01*
X0413905Y0227444D02*
X0414553Y0227444D01*
X0411937Y0227721D02*
X0411937Y0225103D01*
X0411937Y0227721D02*
X0412585Y0227721D01*
X0412585Y0225103D01*
X0411937Y0225103D01*
X0411937Y0225752D02*
X0412585Y0225752D01*
X0412585Y0226401D02*
X0411937Y0226401D01*
X0411937Y0227050D02*
X0412585Y0227050D01*
X0412585Y0227699D02*
X0411937Y0227699D01*
X0412585Y0223469D02*
X0412585Y0221245D01*
X0411937Y0221245D01*
X0411937Y0223469D01*
X0412585Y0223469D01*
X0412585Y0221894D02*
X0411937Y0221894D01*
X0411937Y0222543D02*
X0412585Y0222543D01*
X0412585Y0223192D02*
X0411937Y0223192D01*
X0414553Y0223469D02*
X0414553Y0221245D01*
X0413905Y0221245D01*
X0413905Y0223469D01*
X0414553Y0223469D01*
X0414553Y0221894D02*
X0413905Y0221894D01*
X0413905Y0222543D02*
X0414553Y0222543D01*
X0414553Y0223192D02*
X0413905Y0223192D01*
X0416522Y0223469D02*
X0416522Y0221245D01*
X0415874Y0221245D01*
X0415874Y0223469D01*
X0416522Y0223469D01*
X0416522Y0221894D02*
X0415874Y0221894D01*
X0415874Y0222543D02*
X0416522Y0222543D01*
X0416522Y0223192D02*
X0415874Y0223192D01*
M02*
