G75*
%MOIN*%
%OFA0B0*%
%FSLAX25Y25*%
%IPPOS*%
%LPD*%
%AMOC8*
5,1,8,0,0,1.08239X$1,22.5*
%
%ADD10C,0.01300*%
%ADD11C,0.01200*%
%ADD12C,0.01600*%
D10*
X0467373Y0081318D02*
X0469809Y0078883D01*
X0474679Y0078883D01*
X0471026Y0078883D02*
X0471026Y0083754D01*
X0469809Y0083754D02*
X0474679Y0083754D01*
X0474679Y0086802D02*
X0467373Y0091673D01*
X0467373Y0094721D02*
X0467373Y0097156D01*
X0467373Y0095938D02*
X0474679Y0095938D01*
X0474679Y0094721D02*
X0474679Y0097156D01*
X0473462Y0100000D02*
X0468591Y0100000D01*
X0467373Y0101217D01*
X0467373Y0103653D01*
X0468591Y0104871D01*
X0473462Y0104871D01*
X0474679Y0103653D01*
X0474679Y0101217D01*
X0473462Y0100000D01*
X0480273Y0098374D02*
X0481491Y0099591D01*
X0483926Y0099591D01*
X0485144Y0098374D01*
X0485144Y0094721D01*
X0487579Y0094721D02*
X0480273Y0094721D01*
X0480273Y0098374D01*
X0481491Y0091673D02*
X0480273Y0090455D01*
X0480273Y0088020D01*
X0481491Y0086802D01*
X0486362Y0086802D01*
X0487579Y0088020D01*
X0487579Y0090455D01*
X0486362Y0091673D01*
X0481491Y0091673D01*
X0474679Y0091673D02*
X0467373Y0086802D01*
X0469809Y0083754D02*
X0467373Y0081318D01*
X0480273Y0081318D02*
X0487579Y0081318D01*
X0480273Y0078883D02*
X0480273Y0083754D01*
X0474679Y0107919D02*
X0467373Y0107919D01*
X0469809Y0110354D01*
X0467373Y0112789D01*
X0474679Y0112789D01*
X0480273Y0111776D02*
X0481491Y0110558D01*
X0482709Y0110558D01*
X0483926Y0111776D01*
X0483926Y0114211D01*
X0485144Y0115429D01*
X0486362Y0115429D01*
X0487579Y0114211D01*
X0487579Y0111776D01*
X0486362Y0110558D01*
X0480273Y0111776D02*
X0480273Y0114211D01*
X0481491Y0115429D01*
X0480273Y0118477D02*
X0480273Y0120912D01*
X0480273Y0119695D02*
X0487579Y0119695D01*
X0487579Y0120912D02*
X0487579Y0118477D01*
X0487579Y0123756D02*
X0480273Y0123756D01*
X0480273Y0127409D01*
X0481491Y0128627D01*
X0486362Y0128627D01*
X0487579Y0127409D01*
X0487579Y0123756D01*
X0487579Y0131675D02*
X0480273Y0131675D01*
X0480273Y0136546D01*
X0483926Y0134110D02*
X0483926Y0131675D01*
X0487579Y0131675D02*
X0487579Y0136546D01*
X0474679Y0136546D02*
X0474679Y0131675D01*
X0467373Y0131675D01*
X0467373Y0136546D01*
X0467373Y0139594D02*
X0467373Y0144464D01*
X0467373Y0142029D02*
X0474679Y0142029D01*
X0474679Y0147512D02*
X0469809Y0147512D01*
X0467373Y0149948D01*
X0469809Y0152383D01*
X0474679Y0152383D01*
X0471026Y0152383D02*
X0471026Y0147512D01*
X0471026Y0134110D02*
X0471026Y0131675D01*
X0469809Y0128627D02*
X0471026Y0127409D01*
X0471026Y0123756D01*
X0467373Y0123756D02*
X0467373Y0127409D01*
X0468591Y0128627D01*
X0469809Y0128627D01*
X0471026Y0127409D02*
X0472244Y0128627D01*
X0473462Y0128627D01*
X0474679Y0127409D01*
X0474679Y0123756D01*
X0467373Y0123756D01*
X0467373Y0163350D02*
X0467373Y0167003D01*
X0468591Y0168221D01*
X0471026Y0168221D01*
X0472244Y0167003D01*
X0472244Y0163350D01*
X0474679Y0163350D02*
X0467373Y0163350D01*
X0468591Y0171269D02*
X0473462Y0171269D01*
X0474679Y0172486D01*
X0474679Y0174922D01*
X0473462Y0176139D01*
X0468591Y0176139D01*
X0467373Y0174922D01*
X0467373Y0172486D01*
X0468591Y0171269D01*
X0467373Y0179187D02*
X0474679Y0179187D01*
X0472244Y0181623D01*
X0474679Y0184058D01*
X0467373Y0184058D01*
X0467373Y0187106D02*
X0474679Y0187106D01*
X0474679Y0191977D01*
X0474679Y0195025D02*
X0467373Y0195025D01*
X0467373Y0198678D01*
X0468591Y0199896D01*
X0471026Y0199896D01*
X0472244Y0198678D01*
X0472244Y0195025D01*
X0472244Y0197460D02*
X0474679Y0199896D01*
X0480273Y0200202D02*
X0481491Y0198984D01*
X0480273Y0200202D02*
X0480273Y0202637D01*
X0481491Y0203855D01*
X0482709Y0203855D01*
X0483926Y0202637D01*
X0485144Y0203855D01*
X0486362Y0203855D01*
X0487579Y0202637D01*
X0487579Y0200202D01*
X0486362Y0198984D01*
X0486362Y0196243D02*
X0487579Y0196243D01*
X0487579Y0195025D01*
X0486362Y0195025D01*
X0486362Y0196243D01*
X0486362Y0191977D02*
X0481491Y0191977D01*
X0486362Y0187106D01*
X0487579Y0188324D01*
X0487579Y0190759D01*
X0486362Y0191977D01*
X0481491Y0191977D02*
X0480273Y0190759D01*
X0480273Y0188324D01*
X0481491Y0187106D01*
X0486362Y0187106D01*
X0485144Y0184058D02*
X0480273Y0184058D01*
X0485144Y0184058D02*
X0487579Y0181623D01*
X0485144Y0179187D01*
X0480273Y0179187D01*
X0471026Y0187106D02*
X0471026Y0189542D01*
X0467373Y0191977D02*
X0467373Y0187106D01*
X0483926Y0201420D02*
X0483926Y0202637D01*
X0486362Y0206903D02*
X0487579Y0206903D01*
X0486362Y0206903D02*
X0481491Y0211774D01*
X0480273Y0211774D01*
X0480273Y0206903D01*
X0474679Y0210862D02*
X0467373Y0210862D01*
X0467373Y0214516D01*
X0468591Y0215733D01*
X0469809Y0215733D01*
X0471026Y0214516D01*
X0471026Y0210862D01*
X0474679Y0210862D02*
X0474679Y0214516D01*
X0473462Y0215733D01*
X0472244Y0215733D01*
X0471026Y0214516D01*
X0468591Y0218781D02*
X0473462Y0218781D01*
X0474679Y0219999D01*
X0474679Y0222434D01*
X0473462Y0223652D01*
X0468591Y0223652D01*
X0467373Y0222434D01*
X0467373Y0219999D01*
X0468591Y0218781D01*
X0469809Y0226700D02*
X0467373Y0229135D01*
X0469809Y0231571D01*
X0474679Y0231571D01*
X0474679Y0234619D02*
X0467373Y0234619D01*
X0467373Y0238272D01*
X0468591Y0239490D01*
X0471026Y0239490D01*
X0472244Y0238272D01*
X0472244Y0234619D01*
X0472244Y0237054D02*
X0474679Y0239490D01*
X0474679Y0242537D02*
X0467373Y0242537D01*
X0467373Y0246191D01*
X0468591Y0247408D01*
X0473462Y0247408D01*
X0474679Y0246191D01*
X0474679Y0242537D01*
X0480273Y0243755D02*
X0480273Y0246191D01*
X0481491Y0247408D01*
X0486362Y0242537D01*
X0487579Y0243755D01*
X0487579Y0246191D01*
X0486362Y0247408D01*
X0481491Y0247408D01*
X0480273Y0243755D02*
X0481491Y0242537D01*
X0486362Y0242537D01*
X0486362Y0239796D02*
X0487579Y0239796D01*
X0487579Y0238578D01*
X0486362Y0238578D01*
X0486362Y0239796D01*
X0487579Y0235530D02*
X0487579Y0230659D01*
X0487579Y0233095D02*
X0480273Y0233095D01*
X0482709Y0230659D01*
X0483926Y0227611D02*
X0481491Y0227611D01*
X0480273Y0226394D01*
X0480273Y0222741D01*
X0487579Y0222741D01*
X0485144Y0222741D02*
X0485144Y0226394D01*
X0483926Y0227611D01*
X0485144Y0225176D02*
X0487579Y0227611D01*
X0474679Y0226700D02*
X0469809Y0226700D01*
X0471026Y0226700D02*
X0471026Y0231571D01*
X0471026Y0261383D02*
X0471026Y0265036D01*
X0472244Y0266254D01*
X0473462Y0266254D01*
X0474679Y0265036D01*
X0474679Y0261383D01*
X0467373Y0261383D01*
X0467373Y0265036D01*
X0468591Y0266254D01*
X0469809Y0266254D01*
X0471026Y0265036D01*
X0471026Y0269302D02*
X0469809Y0270520D01*
X0469809Y0272955D01*
X0471026Y0274173D01*
X0472244Y0274173D01*
X0472244Y0269302D01*
X0473462Y0269302D02*
X0471026Y0269302D01*
X0473462Y0269302D02*
X0474679Y0270520D01*
X0474679Y0272955D01*
X0473462Y0278438D02*
X0468591Y0278438D01*
X0469809Y0277221D02*
X0469809Y0279656D01*
X0473462Y0278438D02*
X0474679Y0279656D01*
X0473462Y0282500D02*
X0472244Y0283717D01*
X0472244Y0287371D01*
X0471026Y0287371D02*
X0474679Y0287371D01*
X0474679Y0283717D01*
X0473462Y0282500D01*
X0469809Y0283717D02*
X0469809Y0286153D01*
X0471026Y0287371D01*
D11*
X0059229Y0290733D02*
X0059229Y0065733D01*
X0459229Y0065733D01*
X0459229Y0290733D01*
X0059229Y0290733D01*
D12*
X0467229Y0255733D02*
X0487229Y0255733D01*
M02*
