G75*
%MOIN*%
%OFA0B0*%
%FSLAX25Y25*%
%IPPOS*%
%LPD*%
%AMOC8*
5,1,8,0,0,1.08239X$1,22.5*
%
%ADD10C,0.01200*%
%ADD11C,0.01100*%
%ADD12C,0.01000*%
%ADD13C,0.00900*%
%ADD14C,0.00800*%
%ADD15C,0.00700*%
%ADD16C,0.00600*%
%ADD17C,0.00500*%
%ADD18C,0.00400*%
%ADD19C,0.00300*%
%ADD20C,0.00200*%
%ADD21C,0.00100*%
%ADD22C,0.01575*%
%ADD23C,0.02000*%
%ADD24C,0.03000*%
%ADD25C,0.03000*%
%ADD26R,0.03000X0.02000*%
%ADD27R,0.03000X0.04000*%
%ADD28R,0.03000X0.03000*%
%ADD29C,0.00787*%
%ADD30C,0.00394*%
%ADD31C,0.01600*%
D10*
X0451229Y0135733D02*
X0453729Y0138233D01*
D11*
X0453729Y0135733D02*
X0451229Y0133233D01*
D12*
X0451229Y0130733D02*
X0453729Y0133233D01*
D13*
X0453729Y0130733D02*
X0451229Y0128233D01*
D14*
X0451229Y0125733D02*
X0453729Y0128233D01*
D15*
X0453729Y0125733D02*
X0451229Y0123233D01*
D16*
X0451229Y0120733D02*
X0453729Y0123233D01*
X0396179Y0129633D02*
X0396179Y0131833D01*
X0391779Y0127633D02*
X0389179Y0127633D01*
X0384779Y0129633D02*
X0384779Y0131833D01*
X0385679Y0131433D02*
X0385718Y0131380D01*
X0385754Y0131325D01*
X0385786Y0131268D01*
X0385815Y0131210D01*
X0385841Y0131149D01*
X0385863Y0131088D01*
X0385882Y0131025D01*
X0385897Y0130961D01*
X0385908Y0130896D01*
X0385916Y0130831D01*
X0385920Y0130766D01*
X0385920Y0130700D01*
X0385916Y0130635D01*
X0385908Y0130570D01*
X0385897Y0130505D01*
X0385882Y0130441D01*
X0385863Y0130378D01*
X0385841Y0130317D01*
X0385815Y0130256D01*
X0385786Y0130198D01*
X0385754Y0130141D01*
X0385718Y0130086D01*
X0385679Y0130033D01*
X0385718Y0130086D01*
X0385754Y0130141D01*
X0385786Y0130198D01*
X0385815Y0130256D01*
X0385841Y0130317D01*
X0385863Y0130378D01*
X0385882Y0130441D01*
X0385897Y0130505D01*
X0385908Y0130570D01*
X0385916Y0130635D01*
X0385920Y0130700D01*
X0385920Y0130766D01*
X0385916Y0130831D01*
X0385908Y0130896D01*
X0385897Y0130961D01*
X0385882Y0131025D01*
X0385863Y0131088D01*
X0385841Y0131149D01*
X0385815Y0131210D01*
X0385786Y0131268D01*
X0385754Y0131325D01*
X0385718Y0131380D01*
X0385679Y0131433D01*
X0347629Y0141083D02*
X0345229Y0141083D01*
X0347629Y0141083D02*
X0347629Y0142083D01*
X0338229Y0141083D02*
X0335829Y0141083D01*
X0335829Y0142083D01*
X0335829Y0151883D02*
X0335829Y0152883D01*
X0338229Y0152883D01*
X0345229Y0152883D02*
X0347629Y0152883D01*
X0347629Y0151883D01*
X0345329Y0173294D02*
X0333129Y0173294D01*
X0323875Y0180633D02*
X0321907Y0180633D01*
X0333129Y0193172D02*
X0338029Y0193172D01*
X0340429Y0193172D01*
X0345329Y0193172D01*
X0340429Y0193172D02*
X0340427Y0193103D01*
X0340421Y0193035D01*
X0340411Y0192967D01*
X0340398Y0192900D01*
X0340380Y0192834D01*
X0340359Y0192769D01*
X0340334Y0192705D01*
X0340306Y0192643D01*
X0340274Y0192582D01*
X0340239Y0192523D01*
X0340200Y0192467D01*
X0340158Y0192412D01*
X0340113Y0192361D01*
X0340065Y0192311D01*
X0340015Y0192265D01*
X0339962Y0192222D01*
X0339906Y0192181D01*
X0339849Y0192144D01*
X0339789Y0192111D01*
X0339727Y0192080D01*
X0339664Y0192054D01*
X0339600Y0192031D01*
X0339534Y0192011D01*
X0339467Y0191996D01*
X0339400Y0191984D01*
X0339332Y0191976D01*
X0339263Y0191972D01*
X0339195Y0191972D01*
X0339126Y0191976D01*
X0339058Y0191984D01*
X0338991Y0191996D01*
X0338924Y0192011D01*
X0338858Y0192031D01*
X0338794Y0192054D01*
X0338731Y0192080D01*
X0338669Y0192111D01*
X0338609Y0192144D01*
X0338552Y0192181D01*
X0338496Y0192222D01*
X0338443Y0192265D01*
X0338393Y0192311D01*
X0338345Y0192361D01*
X0338300Y0192412D01*
X0338258Y0192467D01*
X0338219Y0192523D01*
X0338184Y0192582D01*
X0338152Y0192643D01*
X0338124Y0192705D01*
X0338099Y0192769D01*
X0338078Y0192834D01*
X0338060Y0192900D01*
X0338047Y0192967D01*
X0338037Y0193035D01*
X0338031Y0193103D01*
X0338029Y0193172D01*
X0325129Y0227333D02*
X0324129Y0227333D01*
X0325129Y0227333D02*
X0325129Y0229733D01*
X0325129Y0236733D02*
X0325129Y0239133D01*
X0324129Y0239133D01*
X0314329Y0239133D02*
X0313329Y0239133D01*
X0313329Y0236733D01*
X0313329Y0229733D02*
X0313329Y0227333D01*
X0314329Y0227333D01*
X0250129Y0227333D02*
X0249129Y0227333D01*
X0250129Y0227333D02*
X0250129Y0229733D01*
X0250129Y0236733D02*
X0250129Y0239133D01*
X0249129Y0239133D01*
X0239329Y0239133D02*
X0238329Y0239133D01*
X0238329Y0236733D01*
X0238329Y0229733D02*
X0238329Y0227333D01*
X0239329Y0227333D01*
X0182629Y0215383D02*
X0182629Y0214383D01*
X0182629Y0215383D02*
X0180229Y0215383D01*
X0173229Y0215383D02*
X0170829Y0215383D01*
X0170829Y0214383D01*
X0170829Y0204583D02*
X0170829Y0203583D01*
X0173229Y0203583D01*
X0180229Y0203583D02*
X0182629Y0203583D01*
X0182629Y0204583D01*
X0133679Y0224633D02*
X0133679Y0226833D01*
X0132779Y0226433D02*
X0132740Y0226380D01*
X0132704Y0226325D01*
X0132672Y0226268D01*
X0132643Y0226210D01*
X0132617Y0226149D01*
X0132595Y0226088D01*
X0132576Y0226025D01*
X0132561Y0225961D01*
X0132550Y0225896D01*
X0132542Y0225831D01*
X0132538Y0225766D01*
X0132538Y0225700D01*
X0132542Y0225635D01*
X0132550Y0225570D01*
X0132561Y0225505D01*
X0132576Y0225441D01*
X0132595Y0225378D01*
X0132617Y0225317D01*
X0132643Y0225256D01*
X0132672Y0225198D01*
X0132704Y0225141D01*
X0132740Y0225086D01*
X0132779Y0225033D01*
X0132740Y0225086D01*
X0132704Y0225141D01*
X0132672Y0225198D01*
X0132643Y0225256D01*
X0132617Y0225317D01*
X0132595Y0225378D01*
X0132576Y0225441D01*
X0132561Y0225505D01*
X0132550Y0225570D01*
X0132542Y0225635D01*
X0132538Y0225700D01*
X0132538Y0225766D01*
X0132542Y0225831D01*
X0132550Y0225896D01*
X0132561Y0225961D01*
X0132576Y0226025D01*
X0132595Y0226088D01*
X0132617Y0226149D01*
X0132643Y0226210D01*
X0132672Y0226268D01*
X0132704Y0226325D01*
X0132740Y0226380D01*
X0132779Y0226433D01*
X0129279Y0228833D02*
X0126679Y0228833D01*
X0122279Y0226833D02*
X0122279Y0224633D01*
X0107629Y0272333D02*
X0105229Y0272333D01*
X0107629Y0272333D02*
X0107629Y0273333D01*
X0098229Y0272333D02*
X0095829Y0272333D01*
X0095829Y0273333D01*
X0095829Y0283133D02*
X0095829Y0284133D01*
X0098229Y0284133D01*
X0105229Y0284133D02*
X0107629Y0284133D01*
X0107629Y0283133D01*
X0193329Y0129133D02*
X0194329Y0129133D01*
X0193329Y0129133D02*
X0193329Y0126733D01*
X0193329Y0119733D02*
X0193329Y0117333D01*
X0194329Y0117333D01*
X0204129Y0117333D02*
X0205129Y0117333D01*
X0205129Y0119733D01*
X0205129Y0126733D02*
X0205129Y0129133D01*
X0204129Y0129133D01*
X0268329Y0129133D02*
X0269329Y0129133D01*
X0268329Y0129133D02*
X0268329Y0126733D01*
X0268329Y0119733D02*
X0268329Y0117333D01*
X0269329Y0117333D01*
X0279129Y0117333D02*
X0280129Y0117333D01*
X0280129Y0119733D01*
X0280129Y0126733D02*
X0280129Y0129133D01*
X0279129Y0129133D01*
X0400829Y0172333D02*
X0400829Y0173333D01*
X0400829Y0172333D02*
X0403229Y0172333D01*
X0410229Y0172333D02*
X0412629Y0172333D01*
X0412629Y0173333D01*
X0412629Y0183133D02*
X0412629Y0184133D01*
X0410229Y0184133D01*
X0403229Y0184133D02*
X0400829Y0184133D01*
X0400829Y0183133D01*
X0410686Y0221530D02*
X0410686Y0227436D01*
X0414229Y0254483D02*
X0404229Y0254483D01*
X0404229Y0264483D01*
X0414229Y0264483D01*
X0424229Y0264483D01*
X0424229Y0254483D01*
X0414229Y0254483D01*
X0414229Y0264483D01*
X0405183Y0268929D02*
X0400779Y0271865D01*
X0400779Y0273533D02*
X0403715Y0276469D01*
X0404449Y0276469D01*
X0405183Y0275735D01*
X0405183Y0274267D01*
X0404449Y0273533D01*
X0405183Y0271865D02*
X0400779Y0268929D01*
X0400779Y0273533D02*
X0400779Y0276469D01*
X0107629Y0084133D02*
X0107629Y0083133D01*
X0107629Y0084133D02*
X0105229Y0084133D01*
X0098229Y0084133D02*
X0095829Y0084133D01*
X0095829Y0083133D01*
X0095829Y0073333D02*
X0095829Y0072333D01*
X0098229Y0072333D01*
X0105229Y0072333D02*
X0107629Y0072333D01*
X0107629Y0073333D01*
D17*
X0109976Y0073556D02*
X0109976Y0075891D01*
X0111728Y0075891D01*
X0111144Y0074724D01*
X0111144Y0074140D01*
X0111728Y0073556D01*
X0112896Y0073556D01*
X0113479Y0074140D01*
X0113479Y0075308D01*
X0112896Y0075891D01*
X0113479Y0077239D02*
X0113479Y0079575D01*
X0113479Y0078407D02*
X0109976Y0078407D01*
X0111144Y0079575D01*
X0109976Y0080922D02*
X0112896Y0080922D01*
X0113479Y0081506D01*
X0113479Y0082674D01*
X0112896Y0083258D01*
X0109976Y0083258D01*
X0169072Y0078919D02*
X0169072Y0102541D01*
X0180096Y0102541D01*
X0180096Y0100576D01*
X0180686Y0100576D01*
X0180096Y0100572D02*
X0180096Y0100576D01*
X0180686Y0098607D02*
X0173403Y0098607D01*
X0173403Y0098604D02*
X0173403Y0092698D01*
X0171040Y0092698D01*
X0171040Y0082859D01*
X0180686Y0082859D01*
X0180686Y0080891D02*
X0180096Y0080891D01*
X0180096Y0080887D02*
X0180096Y0078919D01*
X0169072Y0078919D01*
X0171040Y0082856D02*
X0171040Y0082859D01*
X0180096Y0088761D02*
X0180096Y0092698D01*
X0338363Y0092698D01*
X0338363Y0088761D01*
X0180096Y0088761D01*
X0207476Y0118556D02*
X0208060Y0118556D01*
X0210396Y0120891D01*
X0210979Y0120891D01*
X0210979Y0122239D02*
X0210979Y0124575D01*
X0210979Y0123407D02*
X0207476Y0123407D01*
X0208644Y0124575D01*
X0207476Y0125922D02*
X0210396Y0125922D01*
X0210979Y0126506D01*
X0210979Y0127674D01*
X0210396Y0128258D01*
X0207476Y0128258D01*
X0207476Y0120891D02*
X0207476Y0118556D01*
X0282476Y0119140D02*
X0283060Y0118556D01*
X0285396Y0118556D01*
X0285979Y0119140D01*
X0285979Y0120308D01*
X0285396Y0120891D01*
X0284228Y0120308D02*
X0284228Y0118556D01*
X0284228Y0120308D02*
X0283644Y0120891D01*
X0283060Y0120891D01*
X0282476Y0120308D01*
X0282476Y0119140D01*
X0282476Y0123407D02*
X0285979Y0123407D01*
X0285979Y0124575D02*
X0285979Y0122239D01*
X0283644Y0124575D02*
X0282476Y0123407D01*
X0282476Y0125922D02*
X0285396Y0125922D01*
X0285979Y0126506D01*
X0285979Y0127674D01*
X0285396Y0128258D01*
X0282476Y0128258D01*
X0336705Y0154980D02*
X0336705Y0157899D01*
X0337288Y0158483D01*
X0338456Y0158483D01*
X0339040Y0157899D01*
X0339040Y0154980D01*
X0340388Y0155564D02*
X0340972Y0154980D01*
X0342139Y0154980D01*
X0342723Y0155564D01*
X0342723Y0156148D01*
X0340388Y0158483D01*
X0342723Y0158483D01*
X0344071Y0158483D02*
X0346406Y0158483D01*
X0345239Y0158483D02*
X0345239Y0154980D01*
X0344071Y0156148D01*
X0344156Y0195480D02*
X0341821Y0195480D01*
X0340473Y0196064D02*
X0339889Y0195480D01*
X0338722Y0195480D01*
X0338138Y0196064D01*
X0336790Y0195480D02*
X0336790Y0198399D01*
X0336206Y0198983D01*
X0335038Y0198983D01*
X0334455Y0198399D01*
X0334455Y0195480D01*
X0338138Y0198983D02*
X0340473Y0196648D01*
X0340473Y0196064D01*
X0341821Y0198399D02*
X0341821Y0198983D01*
X0341821Y0198399D02*
X0344156Y0196064D01*
X0344156Y0195480D01*
X0340473Y0198983D02*
X0338138Y0198983D01*
X0310396Y0228306D02*
X0310979Y0228890D01*
X0310979Y0230058D01*
X0310396Y0230641D01*
X0308060Y0228306D01*
X0310396Y0228306D01*
X0310396Y0230641D02*
X0308060Y0230641D01*
X0307476Y0230058D01*
X0307476Y0228890D01*
X0308060Y0228306D01*
X0308060Y0231989D02*
X0307476Y0232573D01*
X0307476Y0233741D01*
X0308060Y0234325D01*
X0307476Y0235672D02*
X0310396Y0235672D01*
X0310979Y0236256D01*
X0310979Y0237424D01*
X0310396Y0238008D01*
X0307476Y0238008D01*
X0310979Y0234325D02*
X0308644Y0231989D01*
X0308060Y0231989D01*
X0310979Y0231989D02*
X0310979Y0234325D01*
X0338363Y0253925D02*
X0349387Y0253925D01*
X0349387Y0277547D01*
X0338363Y0277547D01*
X0338363Y0275579D01*
X0338363Y0275576D02*
X0337773Y0275576D01*
X0337773Y0273607D02*
X0345056Y0273607D01*
X0345056Y0273610D01*
X0345056Y0273607D02*
X0345056Y0267705D01*
X0347418Y0267705D01*
X0347418Y0257862D01*
X0347418Y0257859D02*
X0337773Y0257859D01*
X0337773Y0255891D02*
X0338363Y0255891D01*
X0338363Y0253925D01*
X0338363Y0255891D02*
X0338363Y0255894D01*
X0338363Y0263768D02*
X0338363Y0267705D01*
X0180096Y0267705D01*
X0180096Y0263768D01*
X0338363Y0263768D01*
X0346631Y0274296D02*
X0347418Y0275871D01*
X0345844Y0275871D01*
X0346631Y0274296D01*
X0235979Y0237674D02*
X0235979Y0236506D01*
X0235396Y0235922D01*
X0232476Y0235922D01*
X0233644Y0234575D02*
X0232476Y0233407D01*
X0235979Y0233407D01*
X0235979Y0234575D02*
X0235979Y0232239D01*
X0235396Y0230891D02*
X0234812Y0230891D01*
X0234228Y0230308D01*
X0234228Y0229140D01*
X0234812Y0228556D01*
X0235396Y0228556D01*
X0235979Y0229140D01*
X0235979Y0230308D01*
X0235396Y0230891D01*
X0234228Y0230308D02*
X0233644Y0230891D01*
X0233060Y0230891D01*
X0232476Y0230308D01*
X0232476Y0229140D01*
X0233060Y0228556D01*
X0233644Y0228556D01*
X0234228Y0229140D01*
X0235979Y0237674D02*
X0235396Y0238258D01*
X0232476Y0238258D01*
X0180096Y0253925D02*
X0180096Y0255891D01*
X0180686Y0255891D01*
X0180096Y0255891D02*
X0180096Y0255894D01*
X0180096Y0253925D02*
X0169072Y0253925D01*
X0169072Y0277547D01*
X0180096Y0277547D01*
X0180096Y0275579D01*
X0180096Y0275576D02*
X0180686Y0275576D01*
X0180686Y0273607D02*
X0173403Y0273607D01*
X0173403Y0267705D01*
X0171040Y0267705D01*
X0171040Y0257862D01*
X0171040Y0257859D02*
X0180686Y0257859D01*
X0173403Y0273607D02*
X0173403Y0273610D01*
X0093479Y0274140D02*
X0089976Y0274140D01*
X0091728Y0275891D01*
X0091728Y0273556D01*
X0093479Y0277239D02*
X0093479Y0279575D01*
X0093479Y0278407D02*
X0089976Y0278407D01*
X0091144Y0279575D01*
X0089976Y0280922D02*
X0092896Y0280922D01*
X0093479Y0281506D01*
X0093479Y0282674D01*
X0092896Y0283258D01*
X0089976Y0283258D01*
X0172288Y0201233D02*
X0173456Y0201233D01*
X0174040Y0200649D01*
X0174040Y0197730D01*
X0175388Y0198898D02*
X0176555Y0197730D01*
X0176555Y0201233D01*
X0175388Y0201233D02*
X0177723Y0201233D01*
X0179071Y0200649D02*
X0179655Y0201233D01*
X0180822Y0201233D01*
X0181406Y0200649D01*
X0181406Y0200065D01*
X0180822Y0199482D01*
X0179071Y0199482D01*
X0179071Y0200649D01*
X0179071Y0199482D02*
X0180239Y0198314D01*
X0181406Y0197730D01*
X0171705Y0197730D02*
X0171705Y0200649D01*
X0172288Y0201233D01*
X0338363Y0102541D02*
X0338363Y0100576D01*
X0337773Y0100576D01*
X0338363Y0100576D02*
X0338363Y0100572D01*
X0338363Y0102541D02*
X0349387Y0102541D01*
X0349387Y0078919D01*
X0338363Y0078919D01*
X0338363Y0080887D01*
X0338363Y0080891D02*
X0337773Y0080891D01*
X0337773Y0082859D02*
X0347418Y0082859D01*
X0347418Y0092698D01*
X0345056Y0092698D01*
X0345056Y0098604D01*
X0345056Y0098607D02*
X0337773Y0098607D01*
X0345844Y0101068D02*
X0347418Y0101068D01*
X0346631Y0099493D01*
X0345844Y0101068D01*
X0347418Y0082859D02*
X0347418Y0082856D01*
X0414136Y0152733D02*
X0413552Y0153317D01*
X0413552Y0153901D01*
X0414136Y0154485D01*
X0415888Y0154485D01*
X0415888Y0153317D01*
X0415304Y0152733D01*
X0414136Y0152733D01*
X0415888Y0154485D02*
X0414720Y0155652D01*
X0413552Y0156236D01*
X0417236Y0155652D02*
X0417819Y0156236D01*
X0418987Y0156236D01*
X0419571Y0155652D01*
X0420919Y0156236D02*
X0420919Y0153317D01*
X0421503Y0152733D01*
X0422670Y0152733D01*
X0423254Y0153317D01*
X0423254Y0156236D01*
X0419571Y0152733D02*
X0417236Y0155068D01*
X0417236Y0155652D01*
X0417236Y0152733D02*
X0419571Y0152733D01*
X0419482Y0172958D02*
X0416563Y0172958D01*
X0415979Y0173542D01*
X0415979Y0174710D01*
X0416563Y0175294D01*
X0419482Y0175294D01*
X0418899Y0176641D02*
X0419482Y0177225D01*
X0419482Y0178393D01*
X0418899Y0178977D01*
X0418315Y0178977D01*
X0415979Y0176641D01*
X0415979Y0178977D01*
X0415979Y0180325D02*
X0418315Y0182660D01*
X0418899Y0182660D01*
X0419482Y0182076D01*
X0419482Y0180908D01*
X0418899Y0180325D01*
X0415979Y0180325D02*
X0415979Y0182660D01*
X0453729Y0120733D02*
X0451229Y0118233D01*
D18*
X0451229Y0115733D02*
X0453729Y0118233D01*
X0435949Y0139333D02*
X0434081Y0139333D01*
X0433003Y0139333D02*
X0431134Y0139333D01*
X0432069Y0139333D02*
X0432069Y0142135D01*
X0433003Y0141201D01*
X0430056Y0141201D02*
X0430056Y0141668D01*
X0429589Y0142135D01*
X0428655Y0142135D01*
X0428188Y0141668D01*
X0428188Y0141201D01*
X0428655Y0140734D01*
X0429589Y0140734D01*
X0430056Y0141201D01*
X0429589Y0140734D02*
X0430056Y0140267D01*
X0430056Y0139800D01*
X0429589Y0139333D01*
X0428655Y0139333D01*
X0428188Y0139800D01*
X0428188Y0140267D01*
X0428655Y0140734D01*
X0435949Y0142135D02*
X0435949Y0139333D01*
X0400629Y0134236D02*
X0400629Y0133302D01*
X0400162Y0132835D01*
X0400162Y0131756D02*
X0400629Y0131289D01*
X0400629Y0130355D01*
X0400162Y0129888D01*
X0399695Y0129888D01*
X0399228Y0130355D01*
X0399228Y0131289D01*
X0398761Y0131756D01*
X0398294Y0131756D01*
X0397827Y0131289D01*
X0397827Y0130355D01*
X0398294Y0129888D01*
X0397827Y0128810D02*
X0400629Y0128810D01*
X0400629Y0126942D01*
X0399228Y0127876D02*
X0399228Y0128810D01*
X0397827Y0128810D02*
X0397827Y0126942D01*
X0398294Y0132835D02*
X0397827Y0133302D01*
X0397827Y0134236D01*
X0398294Y0134703D01*
X0400162Y0134703D01*
X0400629Y0134236D01*
X0415977Y0099633D02*
X0416911Y0099633D01*
X0417378Y0099166D01*
X0417378Y0096831D01*
X0418456Y0097298D02*
X0418923Y0096831D01*
X0419857Y0096831D01*
X0420324Y0097298D01*
X0420324Y0097765D01*
X0418456Y0099633D01*
X0420324Y0099633D01*
X0421403Y0099166D02*
X0421403Y0098699D01*
X0421870Y0098232D01*
X0422804Y0098232D01*
X0423271Y0098699D01*
X0423271Y0099166D01*
X0422804Y0099633D01*
X0421870Y0099633D01*
X0421403Y0099166D01*
X0421870Y0098232D02*
X0421403Y0097765D01*
X0421403Y0097298D01*
X0421870Y0096831D01*
X0422804Y0096831D01*
X0423271Y0097298D01*
X0423271Y0097765D01*
X0422804Y0098232D01*
X0415977Y0099633D02*
X0415510Y0099166D01*
X0415510Y0096831D01*
X0414718Y0187651D02*
X0413784Y0187651D01*
X0413317Y0188118D01*
X0413317Y0188585D01*
X0413784Y0189052D01*
X0414251Y0189052D01*
X0413784Y0189052D02*
X0413317Y0189519D01*
X0413317Y0189986D01*
X0413784Y0190453D01*
X0414718Y0190453D01*
X0415185Y0189986D01*
X0416263Y0190453D02*
X0416263Y0188118D01*
X0416730Y0187651D01*
X0417664Y0187651D01*
X0418131Y0188118D01*
X0418131Y0190453D01*
X0415185Y0188118D02*
X0414718Y0187651D01*
X0412238Y0188118D02*
X0410370Y0189986D01*
X0410370Y0188118D01*
X0410837Y0187651D01*
X0411771Y0187651D01*
X0412238Y0188118D01*
X0412238Y0189986D01*
X0411771Y0190453D01*
X0410837Y0190453D01*
X0410370Y0189986D01*
X0428878Y0214333D02*
X0428878Y0217135D01*
X0430279Y0215734D01*
X0428411Y0215734D01*
X0431358Y0214800D02*
X0431825Y0214333D01*
X0432759Y0214333D01*
X0433226Y0214800D01*
X0433226Y0216668D01*
X0432759Y0217135D01*
X0431825Y0217135D01*
X0431358Y0216668D01*
X0431825Y0229333D02*
X0431358Y0229800D01*
X0431825Y0229333D02*
X0432759Y0229333D01*
X0433226Y0229800D01*
X0433226Y0231668D01*
X0432759Y0232135D01*
X0431825Y0232135D01*
X0431358Y0231668D01*
X0430279Y0231668D02*
X0429812Y0232135D01*
X0428878Y0232135D01*
X0428411Y0231668D01*
X0428411Y0231201D01*
X0430279Y0229333D01*
X0428411Y0229333D01*
X0428878Y0244333D02*
X0428411Y0244800D01*
X0428411Y0246668D01*
X0428878Y0247135D01*
X0429812Y0247135D01*
X0430279Y0246668D01*
X0430279Y0246201D01*
X0429812Y0245734D01*
X0428411Y0245734D01*
X0428878Y0244333D02*
X0429812Y0244333D01*
X0430279Y0244800D01*
X0431358Y0244800D02*
X0431825Y0244333D01*
X0432759Y0244333D01*
X0433226Y0244800D01*
X0433226Y0246668D01*
X0432759Y0247135D01*
X0431825Y0247135D01*
X0431358Y0246668D01*
X0431825Y0259333D02*
X0431358Y0259800D01*
X0431825Y0259333D02*
X0432759Y0259333D01*
X0433226Y0259800D01*
X0433226Y0261668D01*
X0432759Y0262135D01*
X0431825Y0262135D01*
X0431358Y0261668D01*
X0430279Y0262135D02*
X0428411Y0262135D01*
X0428411Y0261668D01*
X0430279Y0259800D01*
X0430279Y0259333D01*
X0320629Y0224953D02*
X0317827Y0224953D01*
X0317827Y0223552D01*
X0318294Y0223085D01*
X0319228Y0223085D01*
X0319695Y0223552D01*
X0319695Y0224953D01*
X0319695Y0224019D02*
X0320629Y0223085D01*
X0320629Y0222006D02*
X0320162Y0222006D01*
X0318294Y0220138D01*
X0317827Y0220138D01*
X0317827Y0222006D01*
X0319228Y0219060D02*
X0319228Y0217192D01*
X0317827Y0217659D02*
X0319228Y0219060D01*
X0320629Y0217659D02*
X0317827Y0217659D01*
X0191162Y0233126D02*
X0189294Y0233126D01*
X0190228Y0234060D02*
X0190228Y0232192D01*
X0190228Y0235138D02*
X0190695Y0235605D01*
X0190695Y0237006D01*
X0191629Y0237006D02*
X0188827Y0237006D01*
X0188827Y0235605D01*
X0189294Y0235138D01*
X0190228Y0235138D01*
X0190695Y0238085D02*
X0188827Y0238085D01*
X0188827Y0239953D02*
X0190695Y0239953D01*
X0191629Y0239019D01*
X0190695Y0238085D01*
X0177728Y0240942D02*
X0177728Y0242810D01*
X0177728Y0243888D02*
X0178195Y0244355D01*
X0178195Y0245756D01*
X0179129Y0245756D02*
X0176327Y0245756D01*
X0176327Y0244355D01*
X0176794Y0243888D01*
X0177728Y0243888D01*
X0178195Y0246835D02*
X0176327Y0246835D01*
X0176327Y0248703D02*
X0178195Y0248703D01*
X0179129Y0247769D01*
X0178195Y0246835D01*
X0123021Y0266133D02*
X0121153Y0266133D01*
X0122087Y0266133D02*
X0122087Y0263331D01*
X0121153Y0264265D01*
X0120074Y0265199D02*
X0119607Y0264732D01*
X0118206Y0264732D01*
X0118206Y0265666D01*
X0118673Y0266133D01*
X0119607Y0266133D01*
X0120074Y0265666D01*
X0120074Y0265199D01*
X0119140Y0263798D02*
X0118206Y0264732D01*
X0117128Y0264732D02*
X0116661Y0265199D01*
X0115260Y0265199D01*
X0116194Y0265199D02*
X0117128Y0266133D01*
X0117128Y0264732D02*
X0117128Y0263798D01*
X0116661Y0263331D01*
X0115260Y0263331D01*
X0115260Y0266133D01*
X0113021Y0266133D02*
X0111153Y0266133D01*
X0113021Y0264265D01*
X0113021Y0263798D01*
X0112554Y0263331D01*
X0111620Y0263331D01*
X0111153Y0263798D01*
X0110074Y0263331D02*
X0109140Y0263798D01*
X0108206Y0264732D01*
X0109607Y0264732D01*
X0110074Y0265199D01*
X0110074Y0265666D01*
X0109607Y0266133D01*
X0108673Y0266133D01*
X0108206Y0265666D01*
X0108206Y0264732D01*
X0107128Y0264732D02*
X0106661Y0265199D01*
X0105260Y0265199D01*
X0106194Y0265199D02*
X0107128Y0266133D01*
X0107128Y0264732D02*
X0107128Y0263798D01*
X0106661Y0263331D01*
X0105260Y0263331D01*
X0105260Y0266133D01*
X0119140Y0263798D02*
X0120074Y0263331D01*
X0120162Y0229703D02*
X0118294Y0229703D01*
X0117827Y0229236D01*
X0117827Y0228302D01*
X0118294Y0227835D01*
X0117827Y0226756D02*
X0120629Y0224888D01*
X0117827Y0224888D01*
X0117827Y0223810D02*
X0120629Y0223810D01*
X0119695Y0222876D01*
X0120629Y0221942D01*
X0117827Y0221942D01*
X0117827Y0226756D02*
X0120629Y0226756D01*
X0120162Y0227835D02*
X0120629Y0228302D01*
X0120629Y0229236D01*
X0120162Y0229703D01*
X0119607Y0093883D02*
X0118673Y0093883D01*
X0118206Y0093416D01*
X0118206Y0092482D02*
X0119140Y0092015D01*
X0119607Y0092015D01*
X0120074Y0092482D01*
X0120074Y0093416D01*
X0119607Y0093883D01*
X0121153Y0093416D02*
X0121620Y0093883D01*
X0122554Y0093883D01*
X0123021Y0093416D01*
X0123021Y0092949D01*
X0122554Y0092482D01*
X0121153Y0092482D01*
X0121153Y0093416D01*
X0121153Y0092482D02*
X0122087Y0091548D01*
X0123021Y0091081D01*
X0120074Y0091081D02*
X0118206Y0091081D01*
X0118206Y0092482D01*
X0117128Y0092482D02*
X0116661Y0092949D01*
X0115260Y0092949D01*
X0116194Y0092949D02*
X0117128Y0093883D01*
X0117128Y0092482D02*
X0117128Y0091548D01*
X0116661Y0091081D01*
X0115260Y0091081D01*
X0115260Y0093883D01*
X0113021Y0093416D02*
X0112554Y0093883D01*
X0111620Y0093883D01*
X0111153Y0093416D01*
X0111153Y0092482D02*
X0112087Y0092015D01*
X0112554Y0092015D01*
X0113021Y0092482D01*
X0113021Y0093416D01*
X0111153Y0092482D02*
X0111153Y0091081D01*
X0113021Y0091081D01*
X0110074Y0091081D02*
X0108206Y0091081D01*
X0108206Y0092482D01*
X0109140Y0092015D01*
X0109607Y0092015D01*
X0110074Y0092482D01*
X0110074Y0093416D01*
X0109607Y0093883D01*
X0108673Y0093883D01*
X0108206Y0093416D01*
X0107128Y0093883D02*
X0106194Y0092949D01*
X0106661Y0092949D02*
X0105260Y0092949D01*
X0105260Y0093883D02*
X0105260Y0091081D01*
X0106661Y0091081D01*
X0107128Y0091548D01*
X0107128Y0092482D01*
X0106661Y0092949D01*
D19*
X0097386Y0089683D02*
X0097035Y0090033D01*
X0096335Y0090033D01*
X0095984Y0089683D01*
X0095176Y0089683D02*
X0094825Y0090033D01*
X0094125Y0090033D01*
X0093774Y0089683D01*
X0093774Y0089332D01*
X0094125Y0088982D01*
X0094825Y0088982D01*
X0095176Y0089332D01*
X0095176Y0089683D01*
X0094825Y0088982D02*
X0095176Y0088632D01*
X0095176Y0088282D01*
X0094825Y0087931D01*
X0094125Y0087931D01*
X0093774Y0088282D01*
X0093774Y0088632D01*
X0094125Y0088982D01*
X0092966Y0088982D02*
X0092615Y0089332D01*
X0091565Y0089332D01*
X0092265Y0089332D02*
X0092966Y0090033D01*
X0092966Y0088982D02*
X0092966Y0088282D01*
X0092615Y0087931D01*
X0091565Y0087931D01*
X0091565Y0090033D01*
X0095984Y0088282D02*
X0096335Y0087931D01*
X0097035Y0087931D01*
X0097386Y0088282D01*
X0097386Y0088632D01*
X0097035Y0088982D01*
X0097386Y0089332D01*
X0097386Y0089683D01*
X0097035Y0088982D02*
X0096685Y0088982D01*
X0133928Y0111927D02*
X0133928Y0112628D01*
X0134278Y0112978D01*
X0134628Y0112978D01*
X0134978Y0112628D01*
X0134978Y0111577D01*
X0134278Y0111577D02*
X0135679Y0111577D01*
X0136029Y0111927D01*
X0136029Y0112628D01*
X0135679Y0112978D01*
X0136029Y0113787D02*
X0136029Y0115188D01*
X0134628Y0113787D01*
X0134278Y0113787D01*
X0133928Y0114137D01*
X0133928Y0114838D01*
X0134278Y0115188D01*
X0134278Y0115997D02*
X0133928Y0116347D01*
X0133928Y0117048D01*
X0134278Y0117398D01*
X0135679Y0117398D01*
X0136029Y0117048D01*
X0136029Y0116347D01*
X0135679Y0115997D01*
X0137428Y0116347D02*
X0137428Y0117048D01*
X0137778Y0117398D01*
X0139179Y0117398D01*
X0139529Y0117048D01*
X0139529Y0116347D01*
X0139179Y0115997D01*
X0139529Y0115188D02*
X0138128Y0113787D01*
X0137778Y0113787D01*
X0137428Y0114137D01*
X0137428Y0114838D01*
X0137778Y0115188D01*
X0137778Y0115997D02*
X0137428Y0116347D01*
X0139529Y0115188D02*
X0139529Y0113787D01*
X0139179Y0112978D02*
X0138829Y0112978D01*
X0138478Y0112628D01*
X0138478Y0111927D01*
X0138829Y0111577D01*
X0139179Y0111577D01*
X0139529Y0111927D01*
X0139529Y0112628D01*
X0139179Y0112978D01*
X0138478Y0112628D02*
X0138128Y0112978D01*
X0137778Y0112978D01*
X0137428Y0112628D01*
X0137428Y0111927D01*
X0137778Y0111577D01*
X0138128Y0111577D01*
X0138478Y0111927D01*
X0134278Y0111577D02*
X0133928Y0111927D01*
X0133928Y0129077D02*
X0134278Y0129778D01*
X0134978Y0130478D01*
X0134978Y0129427D01*
X0135329Y0129077D01*
X0135679Y0129077D01*
X0136029Y0129427D01*
X0136029Y0130128D01*
X0135679Y0130478D01*
X0134978Y0130478D01*
X0134628Y0131287D02*
X0136029Y0132688D01*
X0136029Y0131287D01*
X0134628Y0131287D02*
X0134278Y0131287D01*
X0133928Y0131637D01*
X0133928Y0132338D01*
X0134278Y0132688D01*
X0134278Y0133497D02*
X0133928Y0133847D01*
X0133928Y0134548D01*
X0134278Y0134898D01*
X0135679Y0134898D01*
X0136029Y0134548D01*
X0136029Y0133847D01*
X0135679Y0133497D01*
X0137428Y0133847D02*
X0137428Y0134548D01*
X0137778Y0134898D01*
X0139179Y0134898D01*
X0139529Y0134548D01*
X0139529Y0133847D01*
X0139179Y0133497D01*
X0139529Y0132688D02*
X0138128Y0131287D01*
X0137778Y0131287D01*
X0137428Y0131637D01*
X0137428Y0132338D01*
X0137778Y0132688D01*
X0137778Y0133497D02*
X0137428Y0133847D01*
X0139529Y0132688D02*
X0139529Y0131287D01*
X0139179Y0130478D02*
X0139529Y0130128D01*
X0139529Y0129427D01*
X0139179Y0129077D01*
X0138478Y0129077D01*
X0138128Y0129427D01*
X0138128Y0129778D01*
X0138478Y0130478D01*
X0137428Y0130478D01*
X0137428Y0129077D01*
X0137575Y0144681D02*
X0137926Y0145032D01*
X0137926Y0145382D01*
X0137575Y0145732D01*
X0136875Y0145732D01*
X0136524Y0145382D01*
X0136524Y0145032D01*
X0136875Y0144681D01*
X0137575Y0144681D01*
X0137575Y0145732D02*
X0137926Y0146082D01*
X0137926Y0146433D01*
X0137575Y0146783D01*
X0136875Y0146783D01*
X0136524Y0146433D01*
X0136524Y0146082D01*
X0136875Y0145732D01*
X0135716Y0145032D02*
X0135365Y0144681D01*
X0134665Y0144681D01*
X0134315Y0145032D01*
X0134315Y0146433D01*
X0134665Y0146783D01*
X0135365Y0146783D01*
X0135716Y0146433D01*
X0138734Y0146433D02*
X0138734Y0146783D01*
X0138734Y0146433D02*
X0140136Y0145032D01*
X0140136Y0144681D01*
X0138734Y0144681D01*
X0137575Y0160931D02*
X0137926Y0161282D01*
X0137926Y0161632D01*
X0137575Y0161982D01*
X0136875Y0161982D01*
X0136524Y0161632D01*
X0136524Y0161282D01*
X0136875Y0160931D01*
X0137575Y0160931D01*
X0137575Y0161982D02*
X0137926Y0162332D01*
X0137926Y0162683D01*
X0137575Y0163033D01*
X0136875Y0163033D01*
X0136524Y0162683D01*
X0136524Y0162332D01*
X0136875Y0161982D01*
X0135716Y0161982D02*
X0135365Y0162332D01*
X0134315Y0162332D01*
X0135015Y0162332D02*
X0135716Y0163033D01*
X0135716Y0161982D02*
X0135716Y0161282D01*
X0135365Y0160931D01*
X0134315Y0160931D01*
X0134315Y0163033D01*
X0134315Y0164681D02*
X0135365Y0164681D01*
X0135716Y0165032D01*
X0135716Y0165732D01*
X0135365Y0166082D01*
X0134315Y0166082D01*
X0135015Y0166082D02*
X0135716Y0166783D01*
X0136524Y0166433D02*
X0136524Y0166082D01*
X0136875Y0165732D01*
X0137575Y0165732D01*
X0137926Y0166082D01*
X0137926Y0166433D01*
X0137575Y0166783D01*
X0136875Y0166783D01*
X0136524Y0166433D01*
X0136875Y0165732D02*
X0136524Y0165382D01*
X0136524Y0165032D01*
X0136875Y0164681D01*
X0137575Y0164681D01*
X0137926Y0165032D01*
X0137926Y0165382D01*
X0137575Y0165732D01*
X0138734Y0166433D02*
X0138734Y0166783D01*
X0138734Y0166433D02*
X0140136Y0165032D01*
X0140136Y0164681D01*
X0138734Y0164681D01*
X0139085Y0163033D02*
X0139785Y0163033D01*
X0140136Y0162683D01*
X0140136Y0162332D01*
X0139785Y0161982D01*
X0138734Y0161982D01*
X0138734Y0162683D01*
X0139085Y0163033D01*
X0138734Y0161982D02*
X0139435Y0161282D01*
X0140136Y0160931D01*
X0134315Y0164681D02*
X0134315Y0166783D01*
X0134285Y0185431D02*
X0134636Y0185782D01*
X0133234Y0187183D01*
X0133585Y0187533D01*
X0134285Y0187533D01*
X0134636Y0187183D01*
X0134636Y0185782D01*
X0134285Y0185431D02*
X0133585Y0185431D01*
X0133234Y0185782D01*
X0133234Y0187183D01*
X0132426Y0187183D02*
X0132426Y0185782D01*
X0132075Y0185431D01*
X0131375Y0185431D01*
X0131024Y0185782D01*
X0131024Y0186132D01*
X0131375Y0186482D01*
X0132426Y0186482D01*
X0132426Y0187183D02*
X0132075Y0187533D01*
X0131375Y0187533D01*
X0131024Y0187183D01*
X0130216Y0187533D02*
X0129515Y0186832D01*
X0129865Y0186832D02*
X0128815Y0186832D01*
X0128815Y0187533D02*
X0128815Y0185431D01*
X0129865Y0185431D01*
X0130216Y0185782D01*
X0130216Y0186482D01*
X0129865Y0186832D01*
X0144428Y0193077D02*
X0144778Y0193077D01*
X0146179Y0194478D01*
X0146529Y0194478D01*
X0146179Y0195287D02*
X0144778Y0195287D01*
X0144428Y0195637D01*
X0144428Y0196338D01*
X0144778Y0196688D01*
X0145128Y0196688D01*
X0145478Y0196338D01*
X0145478Y0195287D01*
X0146179Y0195287D02*
X0146529Y0195637D01*
X0146529Y0196338D01*
X0146179Y0196688D01*
X0146529Y0197497D02*
X0145829Y0198197D01*
X0145829Y0197847D02*
X0145829Y0198898D01*
X0146529Y0198898D02*
X0144428Y0198898D01*
X0144428Y0197847D01*
X0144778Y0197497D01*
X0145478Y0197497D01*
X0145829Y0197847D01*
X0144428Y0194478D02*
X0144428Y0193077D01*
X0141181Y0202568D02*
X0139780Y0202568D01*
X0139429Y0202919D01*
X0139429Y0203619D01*
X0139780Y0203969D01*
X0139429Y0204778D02*
X0139429Y0206179D01*
X0139429Y0205479D02*
X0141531Y0205479D01*
X0140831Y0204778D01*
X0141181Y0203969D02*
X0141531Y0203619D01*
X0141531Y0202919D01*
X0141181Y0202568D01*
X0140831Y0206988D02*
X0141531Y0207689D01*
X0139429Y0207689D01*
X0139429Y0208389D02*
X0139429Y0206988D01*
X0134636Y0205783D02*
X0133234Y0205783D01*
X0133935Y0205783D02*
X0133935Y0203681D01*
X0133234Y0204382D01*
X0132426Y0204732D02*
X0131375Y0204732D01*
X0131024Y0204382D01*
X0131024Y0204032D01*
X0131375Y0203681D01*
X0132075Y0203681D01*
X0132426Y0204032D01*
X0132426Y0205433D01*
X0132075Y0205783D01*
X0131375Y0205783D01*
X0131024Y0205433D01*
X0130216Y0205783D02*
X0129515Y0205082D01*
X0129865Y0205082D02*
X0128815Y0205082D01*
X0128815Y0205783D02*
X0128815Y0203681D01*
X0129865Y0203681D01*
X0130216Y0204032D01*
X0130216Y0204732D01*
X0129865Y0205082D01*
X0130426Y0210931D02*
X0129024Y0210931D01*
X0128216Y0211282D02*
X0127865Y0210931D01*
X0127165Y0210931D01*
X0126815Y0211282D01*
X0126815Y0212683D01*
X0127165Y0213033D01*
X0127865Y0213033D01*
X0128216Y0212683D01*
X0129024Y0212683D02*
X0129024Y0213033D01*
X0129024Y0212683D02*
X0130426Y0211282D01*
X0130426Y0210931D01*
X0131234Y0211282D02*
X0131234Y0211632D01*
X0131585Y0211982D01*
X0132285Y0211982D01*
X0132636Y0212332D01*
X0132636Y0212683D01*
X0132285Y0213033D01*
X0131585Y0213033D01*
X0131234Y0212683D01*
X0131234Y0212332D01*
X0131585Y0211982D01*
X0132285Y0211982D02*
X0132636Y0211632D01*
X0132636Y0211282D01*
X0132285Y0210931D01*
X0131585Y0210931D01*
X0131234Y0211282D01*
X0146428Y0214677D02*
X0146778Y0214327D01*
X0148179Y0214327D01*
X0148529Y0214677D01*
X0148529Y0215378D01*
X0148179Y0215728D01*
X0147478Y0215378D02*
X0147478Y0214327D01*
X0147478Y0215378D02*
X0147128Y0215728D01*
X0146778Y0215728D01*
X0146428Y0215378D01*
X0146428Y0214677D01*
X0146778Y0216537D02*
X0146428Y0216887D01*
X0146428Y0217588D01*
X0146778Y0217938D01*
X0147128Y0217938D01*
X0147478Y0217588D01*
X0147478Y0216537D01*
X0146778Y0216537D02*
X0148179Y0216537D01*
X0148529Y0216887D01*
X0148529Y0217588D01*
X0148179Y0217938D01*
X0148529Y0218747D02*
X0147829Y0219447D01*
X0147829Y0219097D02*
X0147829Y0220148D01*
X0148529Y0220148D02*
X0146428Y0220148D01*
X0146428Y0219097D01*
X0146778Y0218747D01*
X0147478Y0218747D01*
X0147829Y0219097D01*
X0149678Y0218342D02*
X0151779Y0218342D01*
X0151779Y0217642D02*
X0151779Y0219043D01*
X0151779Y0219852D02*
X0151079Y0220552D01*
X0151079Y0220202D02*
X0151079Y0221253D01*
X0151779Y0221253D02*
X0149678Y0221253D01*
X0149678Y0220202D01*
X0150028Y0219852D01*
X0150728Y0219852D01*
X0151079Y0220202D01*
X0150378Y0219043D02*
X0149678Y0218342D01*
X0150028Y0216833D02*
X0149678Y0216483D01*
X0149678Y0215782D01*
X0150028Y0215432D01*
X0151429Y0216833D01*
X0151779Y0216483D01*
X0151779Y0215782D01*
X0151429Y0215432D01*
X0150028Y0215432D01*
X0150028Y0214623D02*
X0149678Y0214273D01*
X0149678Y0213572D01*
X0150028Y0213222D01*
X0151429Y0214623D01*
X0151779Y0214273D01*
X0151779Y0213572D01*
X0151429Y0213222D01*
X0150028Y0213222D01*
X0150028Y0214623D02*
X0151429Y0214623D01*
X0151429Y0216833D02*
X0150028Y0216833D01*
X0158178Y0211253D02*
X0158178Y0210202D01*
X0158528Y0209852D01*
X0159228Y0209852D01*
X0159579Y0210202D01*
X0159579Y0211253D01*
X0160279Y0211253D02*
X0158178Y0211253D01*
X0159579Y0210552D02*
X0160279Y0209852D01*
X0160279Y0209043D02*
X0160279Y0207642D01*
X0160279Y0208342D02*
X0158178Y0208342D01*
X0158878Y0209043D01*
X0158528Y0206833D02*
X0158178Y0206483D01*
X0158178Y0205782D01*
X0158528Y0205432D01*
X0159929Y0206833D01*
X0160279Y0206483D01*
X0160279Y0205782D01*
X0159929Y0205432D01*
X0158528Y0205432D01*
X0158878Y0204623D02*
X0158178Y0203923D01*
X0160279Y0203923D01*
X0160279Y0204623D02*
X0160279Y0203222D01*
X0159929Y0206833D02*
X0158528Y0206833D01*
X0158178Y0198898D02*
X0158178Y0197847D01*
X0158528Y0197497D01*
X0159228Y0197497D01*
X0159579Y0197847D01*
X0159579Y0198898D01*
X0160279Y0198898D02*
X0158178Y0198898D01*
X0159579Y0198197D02*
X0160279Y0197497D01*
X0159929Y0196688D02*
X0160279Y0196338D01*
X0160279Y0195637D01*
X0159929Y0195287D01*
X0158528Y0195287D01*
X0158178Y0195637D01*
X0158178Y0196338D01*
X0158528Y0196688D01*
X0158878Y0196688D01*
X0159228Y0196338D01*
X0159228Y0195287D01*
X0158878Y0194478D02*
X0158528Y0194478D01*
X0158178Y0194128D01*
X0158178Y0193427D01*
X0158528Y0193077D01*
X0158878Y0193077D01*
X0159228Y0193427D01*
X0159228Y0194128D01*
X0158878Y0194478D01*
X0159228Y0194128D02*
X0159579Y0194478D01*
X0159929Y0194478D01*
X0160279Y0194128D01*
X0160279Y0193427D01*
X0159929Y0193077D01*
X0159579Y0193077D01*
X0159228Y0193427D01*
X0186315Y0208431D02*
X0187365Y0208431D01*
X0187716Y0208782D01*
X0187716Y0209482D01*
X0187365Y0209832D01*
X0186315Y0209832D01*
X0187015Y0209832D02*
X0187716Y0210533D01*
X0188524Y0210533D02*
X0188524Y0210183D01*
X0189926Y0208782D01*
X0189926Y0208431D01*
X0188524Y0208431D01*
X0186315Y0208431D02*
X0186315Y0210533D01*
X0190734Y0210183D02*
X0191085Y0210533D01*
X0191785Y0210533D01*
X0192136Y0210183D01*
X0192136Y0208782D01*
X0191785Y0208431D01*
X0191085Y0208431D01*
X0190734Y0208782D01*
X0190734Y0209132D01*
X0191085Y0209482D01*
X0192136Y0209482D01*
X0243678Y0218427D02*
X0244028Y0218077D01*
X0244378Y0218077D01*
X0244728Y0218427D01*
X0245079Y0218077D01*
X0245429Y0218077D01*
X0245779Y0218427D01*
X0245779Y0219128D01*
X0245429Y0219478D01*
X0244728Y0218778D02*
X0244728Y0218427D01*
X0243678Y0218427D02*
X0243678Y0219128D01*
X0244028Y0219478D01*
X0244028Y0220287D02*
X0245429Y0221688D01*
X0245779Y0221688D01*
X0245779Y0222497D02*
X0245079Y0223197D01*
X0245079Y0222847D02*
X0245079Y0223898D01*
X0245779Y0223898D02*
X0243678Y0223898D01*
X0243678Y0222847D01*
X0244028Y0222497D01*
X0244728Y0222497D01*
X0245079Y0222847D01*
X0243678Y0221688D02*
X0243678Y0220287D01*
X0244028Y0220287D01*
X0265678Y0192148D02*
X0265678Y0191097D01*
X0266028Y0190747D01*
X0266728Y0190747D01*
X0267079Y0191097D01*
X0267079Y0192148D01*
X0267779Y0192148D02*
X0265678Y0192148D01*
X0267079Y0191447D02*
X0267779Y0190747D01*
X0267429Y0189938D02*
X0267079Y0189938D01*
X0266728Y0189588D01*
X0266728Y0188887D01*
X0267079Y0188537D01*
X0267429Y0188537D01*
X0267779Y0188887D01*
X0267779Y0189588D01*
X0267429Y0189938D01*
X0266728Y0189588D02*
X0266378Y0189938D01*
X0266028Y0189938D01*
X0265678Y0189588D01*
X0265678Y0188887D01*
X0266028Y0188537D01*
X0266378Y0188537D01*
X0266728Y0188887D01*
X0266378Y0187728D02*
X0266028Y0187728D01*
X0265678Y0187378D01*
X0265678Y0186677D01*
X0266028Y0186327D01*
X0266378Y0186327D01*
X0266728Y0186677D01*
X0266728Y0187378D01*
X0266378Y0187728D01*
X0266728Y0187378D02*
X0267079Y0187728D01*
X0267429Y0187728D01*
X0267779Y0187378D01*
X0267779Y0186677D01*
X0267429Y0186327D01*
X0267079Y0186327D01*
X0266728Y0186677D01*
X0282460Y0186783D02*
X0282460Y0184681D01*
X0283511Y0184681D01*
X0283861Y0185032D01*
X0283861Y0185732D01*
X0283511Y0186082D01*
X0282460Y0186082D01*
X0283160Y0186082D02*
X0283861Y0186783D01*
X0284670Y0186783D02*
X0286071Y0186783D01*
X0285370Y0186783D02*
X0285370Y0184681D01*
X0284670Y0185382D01*
X0286879Y0185032D02*
X0287230Y0184681D01*
X0287930Y0184681D01*
X0288281Y0185032D01*
X0286879Y0186433D01*
X0287230Y0186783D01*
X0287930Y0186783D01*
X0288281Y0186433D01*
X0288281Y0185032D01*
X0289089Y0185032D02*
X0289089Y0185382D01*
X0289440Y0185732D01*
X0290140Y0185732D01*
X0290490Y0186082D01*
X0290490Y0186433D01*
X0290140Y0186783D01*
X0289440Y0186783D01*
X0289089Y0186433D01*
X0289089Y0186082D01*
X0289440Y0185732D01*
X0290140Y0185732D02*
X0290490Y0185382D01*
X0290490Y0185032D01*
X0290140Y0184681D01*
X0289440Y0184681D01*
X0289089Y0185032D01*
X0286879Y0185032D02*
X0286879Y0186433D01*
X0285339Y0175533D02*
X0285339Y0175183D01*
X0286740Y0173782D01*
X0286740Y0173431D01*
X0285339Y0173431D01*
X0284531Y0173782D02*
X0283129Y0175183D01*
X0283480Y0175533D01*
X0284180Y0175533D01*
X0284531Y0175183D01*
X0284531Y0173782D01*
X0284180Y0173431D01*
X0283480Y0173431D01*
X0283129Y0173782D01*
X0283129Y0175183D01*
X0282321Y0175533D02*
X0280920Y0175533D01*
X0281620Y0175533D02*
X0281620Y0173431D01*
X0280920Y0174132D01*
X0280111Y0174482D02*
X0279761Y0174832D01*
X0278710Y0174832D01*
X0279410Y0174832D02*
X0280111Y0175533D01*
X0280111Y0174482D02*
X0280111Y0173782D01*
X0279761Y0173431D01*
X0278710Y0173431D01*
X0278710Y0175533D01*
X0282315Y0169283D02*
X0282315Y0167181D01*
X0283365Y0167181D01*
X0283716Y0167532D01*
X0283716Y0168232D01*
X0283365Y0168582D01*
X0282315Y0168582D01*
X0283015Y0168582D02*
X0283716Y0169283D01*
X0284524Y0168933D02*
X0284875Y0169283D01*
X0285575Y0169283D01*
X0285926Y0168933D01*
X0285926Y0167532D01*
X0285575Y0167181D01*
X0284875Y0167181D01*
X0284524Y0167532D01*
X0284524Y0167882D01*
X0284875Y0168232D01*
X0285926Y0168232D01*
X0286734Y0167532D02*
X0287085Y0167181D01*
X0287785Y0167181D01*
X0288136Y0167532D01*
X0288136Y0167882D01*
X0286734Y0169283D01*
X0288136Y0169283D01*
X0299815Y0172181D02*
X0300865Y0172181D01*
X0301216Y0172532D01*
X0301216Y0173232D01*
X0300865Y0173582D01*
X0299815Y0173582D01*
X0300515Y0173582D02*
X0301216Y0174283D01*
X0302024Y0173933D02*
X0302375Y0174283D01*
X0303075Y0174283D01*
X0303426Y0173933D01*
X0303426Y0172532D01*
X0303075Y0172181D01*
X0302375Y0172181D01*
X0302024Y0172532D01*
X0302024Y0172882D01*
X0302375Y0173232D01*
X0303426Y0173232D01*
X0304234Y0172532D02*
X0304585Y0172181D01*
X0305285Y0172181D01*
X0305636Y0172532D01*
X0305636Y0172882D01*
X0305285Y0173232D01*
X0305636Y0173582D01*
X0305636Y0173933D01*
X0305285Y0174283D01*
X0304585Y0174283D01*
X0304234Y0173933D01*
X0304935Y0173232D02*
X0305285Y0173232D01*
X0304815Y0177181D02*
X0305865Y0177181D01*
X0306216Y0177532D01*
X0306216Y0178232D01*
X0305865Y0178582D01*
X0304815Y0178582D01*
X0305515Y0178582D02*
X0306216Y0179283D01*
X0307024Y0178933D02*
X0307375Y0179283D01*
X0308075Y0179283D01*
X0308426Y0178933D01*
X0308426Y0177532D01*
X0308075Y0177181D01*
X0307375Y0177181D01*
X0307024Y0177532D01*
X0307024Y0177882D01*
X0307375Y0178232D01*
X0308426Y0178232D01*
X0309234Y0178232D02*
X0310285Y0178232D01*
X0310636Y0178582D01*
X0310636Y0178933D01*
X0310285Y0179283D01*
X0309585Y0179283D01*
X0309234Y0178933D01*
X0309234Y0178232D01*
X0309935Y0177532D01*
X0310636Y0177181D01*
X0306886Y0180931D02*
X0305484Y0180931D01*
X0305484Y0181982D01*
X0306185Y0181632D01*
X0306535Y0181632D01*
X0306886Y0181982D01*
X0306886Y0182683D01*
X0306535Y0183033D01*
X0305835Y0183033D01*
X0305484Y0182683D01*
X0304676Y0182683D02*
X0304676Y0181282D01*
X0304325Y0180931D01*
X0303625Y0180931D01*
X0303274Y0181282D01*
X0303274Y0181632D01*
X0303625Y0181982D01*
X0304676Y0181982D01*
X0304676Y0182683D02*
X0304325Y0183033D01*
X0303625Y0183033D01*
X0303274Y0182683D01*
X0302466Y0183033D02*
X0301765Y0182332D01*
X0302115Y0182332D02*
X0301065Y0182332D01*
X0301065Y0183033D02*
X0301065Y0180931D01*
X0302115Y0180931D01*
X0302466Y0181282D01*
X0302466Y0181982D01*
X0302115Y0182332D01*
X0304815Y0179283D02*
X0304815Y0177181D01*
X0299815Y0174283D02*
X0299815Y0172181D01*
X0267779Y0170148D02*
X0265678Y0170148D01*
X0265678Y0169097D01*
X0266028Y0168747D01*
X0266728Y0168747D01*
X0267079Y0169097D01*
X0267079Y0170148D01*
X0267079Y0169447D02*
X0267779Y0168747D01*
X0267429Y0167938D02*
X0267079Y0167938D01*
X0266728Y0167588D01*
X0266728Y0166887D01*
X0267079Y0166537D01*
X0267429Y0166537D01*
X0267779Y0166887D01*
X0267779Y0167588D01*
X0267429Y0167938D01*
X0266728Y0167588D02*
X0266378Y0167938D01*
X0266028Y0167938D01*
X0265678Y0167588D01*
X0265678Y0166887D01*
X0266028Y0166537D01*
X0266378Y0166537D01*
X0266728Y0166887D01*
X0266378Y0165728D02*
X0266728Y0165378D01*
X0266728Y0164327D01*
X0266028Y0164327D02*
X0265678Y0164677D01*
X0265678Y0165378D01*
X0266028Y0165728D01*
X0266378Y0165728D01*
X0267429Y0165728D02*
X0267779Y0165378D01*
X0267779Y0164677D01*
X0267429Y0164327D01*
X0266028Y0164327D01*
X0273178Y0138898D02*
X0273178Y0137847D01*
X0273528Y0137497D01*
X0274228Y0137497D01*
X0274579Y0137847D01*
X0274579Y0138898D01*
X0275279Y0138898D02*
X0273178Y0138898D01*
X0274579Y0138197D02*
X0275279Y0137497D01*
X0275279Y0136688D02*
X0274929Y0136688D01*
X0273528Y0135287D01*
X0273178Y0135287D01*
X0273178Y0136688D01*
X0274228Y0134478D02*
X0274228Y0133427D01*
X0274579Y0133077D01*
X0274929Y0133077D01*
X0275279Y0133427D01*
X0275279Y0134128D01*
X0274929Y0134478D01*
X0274228Y0134478D01*
X0273528Y0133778D01*
X0273178Y0133077D01*
X0326565Y0145931D02*
X0327615Y0145931D01*
X0327966Y0146282D01*
X0327966Y0146982D01*
X0327615Y0147332D01*
X0326565Y0147332D01*
X0327265Y0147332D02*
X0327966Y0148033D01*
X0328774Y0147683D02*
X0328774Y0147332D01*
X0329125Y0146982D01*
X0329825Y0146982D01*
X0330176Y0147332D01*
X0330176Y0147683D01*
X0329825Y0148033D01*
X0329125Y0148033D01*
X0328774Y0147683D01*
X0329125Y0146982D02*
X0328774Y0146632D01*
X0328774Y0146282D01*
X0329125Y0145931D01*
X0329825Y0145931D01*
X0330176Y0146282D01*
X0330176Y0146632D01*
X0329825Y0146982D01*
X0330984Y0146282D02*
X0331335Y0145931D01*
X0332035Y0145931D01*
X0332386Y0146282D01*
X0330984Y0147683D01*
X0331335Y0148033D01*
X0332035Y0148033D01*
X0332386Y0147683D01*
X0332386Y0146282D01*
X0330984Y0146282D02*
X0330984Y0147683D01*
X0326565Y0148033D02*
X0326565Y0145931D01*
X0358178Y0145782D02*
X0358528Y0145432D01*
X0359929Y0146833D01*
X0360279Y0146483D01*
X0360279Y0145782D01*
X0359929Y0145432D01*
X0358528Y0145432D01*
X0358178Y0145782D02*
X0358178Y0146483D01*
X0358528Y0146833D01*
X0359929Y0146833D01*
X0360279Y0147642D02*
X0360279Y0149043D01*
X0360279Y0148342D02*
X0358178Y0148342D01*
X0358878Y0149043D01*
X0358528Y0149852D02*
X0359228Y0149852D01*
X0359579Y0150202D01*
X0359579Y0151253D01*
X0360279Y0151253D02*
X0358178Y0151253D01*
X0358178Y0150202D01*
X0358528Y0149852D01*
X0359579Y0150552D02*
X0360279Y0149852D01*
X0359929Y0144623D02*
X0360279Y0144273D01*
X0360279Y0143572D01*
X0359929Y0143222D01*
X0359579Y0143222D01*
X0359228Y0143572D01*
X0359228Y0144623D01*
X0359929Y0144623D01*
X0359228Y0144623D02*
X0358528Y0143923D01*
X0358178Y0143222D01*
X0366678Y0142702D02*
X0367028Y0142352D01*
X0367728Y0142352D01*
X0368079Y0142702D01*
X0368079Y0143753D01*
X0368779Y0143753D02*
X0366678Y0143753D01*
X0366678Y0142702D01*
X0367378Y0141543D02*
X0366678Y0140842D01*
X0368779Y0140842D01*
X0368779Y0140142D02*
X0368779Y0141543D01*
X0368779Y0142352D02*
X0368079Y0143052D01*
X0369928Y0142702D02*
X0370278Y0142352D01*
X0370978Y0142352D01*
X0371329Y0142702D01*
X0371329Y0143753D01*
X0372029Y0143753D02*
X0369928Y0143753D01*
X0369928Y0142702D01*
X0370628Y0141543D02*
X0369928Y0140842D01*
X0372029Y0140842D01*
X0372029Y0140142D02*
X0372029Y0141543D01*
X0372029Y0142352D02*
X0371329Y0143052D01*
X0371679Y0139333D02*
X0370278Y0137932D01*
X0371679Y0137932D01*
X0372029Y0138282D01*
X0372029Y0138983D01*
X0371679Y0139333D01*
X0370278Y0139333D01*
X0369928Y0138983D01*
X0369928Y0138282D01*
X0370278Y0137932D01*
X0370978Y0137123D02*
X0370978Y0135722D01*
X0369928Y0136072D02*
X0370978Y0137123D01*
X0369928Y0136072D02*
X0372029Y0136072D01*
X0368779Y0136072D02*
X0368779Y0136773D01*
X0368429Y0137123D01*
X0367728Y0137123D02*
X0367378Y0136423D01*
X0367378Y0136072D01*
X0367728Y0135722D01*
X0368429Y0135722D01*
X0368779Y0136072D01*
X0367728Y0137123D02*
X0366678Y0137123D01*
X0366678Y0135722D01*
X0367028Y0137932D02*
X0368429Y0139333D01*
X0368779Y0138983D01*
X0368779Y0138282D01*
X0368429Y0137932D01*
X0367028Y0137932D01*
X0366678Y0138282D01*
X0366678Y0138983D01*
X0367028Y0139333D01*
X0368429Y0139333D01*
X0376929Y0148169D02*
X0376929Y0148869D01*
X0377280Y0149219D01*
X0376929Y0150028D02*
X0376929Y0151429D01*
X0376929Y0150729D02*
X0379031Y0150729D01*
X0378331Y0150028D01*
X0378681Y0149219D02*
X0379031Y0148869D01*
X0379031Y0148169D01*
X0378681Y0147818D01*
X0377280Y0147818D01*
X0376929Y0148169D01*
X0376929Y0152238D02*
X0378331Y0153639D01*
X0378681Y0153639D01*
X0379031Y0153289D01*
X0379031Y0152588D01*
X0378681Y0152238D01*
X0376929Y0152238D02*
X0376929Y0153639D01*
X0375279Y0158222D02*
X0375279Y0159623D01*
X0373878Y0158222D01*
X0373528Y0158222D01*
X0373178Y0158572D01*
X0373178Y0159273D01*
X0373528Y0159623D01*
X0373528Y0160432D02*
X0374929Y0161833D01*
X0375279Y0161483D01*
X0375279Y0160782D01*
X0374929Y0160432D01*
X0373528Y0160432D01*
X0373178Y0160782D01*
X0373178Y0161483D01*
X0373528Y0161833D01*
X0374929Y0161833D01*
X0375279Y0162642D02*
X0375279Y0164043D01*
X0375279Y0163342D02*
X0373178Y0163342D01*
X0373878Y0164043D01*
X0373528Y0164852D02*
X0374228Y0164852D01*
X0374579Y0165202D01*
X0374579Y0166253D01*
X0375279Y0166253D02*
X0373178Y0166253D01*
X0373178Y0165202D01*
X0373528Y0164852D01*
X0374579Y0165552D02*
X0375279Y0164852D01*
X0360279Y0164852D02*
X0359579Y0165552D01*
X0359579Y0165202D02*
X0359579Y0166253D01*
X0360279Y0166253D02*
X0358178Y0166253D01*
X0358178Y0165202D01*
X0358528Y0164852D01*
X0359228Y0164852D01*
X0359579Y0165202D01*
X0360279Y0164043D02*
X0360279Y0162642D01*
X0360279Y0163342D02*
X0358178Y0163342D01*
X0358878Y0164043D01*
X0358528Y0161833D02*
X0358178Y0161483D01*
X0358178Y0160782D01*
X0358528Y0160432D01*
X0359929Y0161833D01*
X0360279Y0161483D01*
X0360279Y0160782D01*
X0359929Y0160432D01*
X0358528Y0160432D01*
X0358528Y0159623D02*
X0358178Y0159273D01*
X0358178Y0158572D01*
X0358528Y0158222D01*
X0358878Y0158222D01*
X0359228Y0158572D01*
X0359579Y0158222D01*
X0359929Y0158222D01*
X0360279Y0158572D01*
X0360279Y0159273D01*
X0359929Y0159623D01*
X0359228Y0158923D02*
X0359228Y0158572D01*
X0359929Y0161833D02*
X0358528Y0161833D01*
X0386065Y0145183D02*
X0386415Y0145533D01*
X0387115Y0145533D01*
X0387466Y0145183D01*
X0388274Y0145183D02*
X0388274Y0144832D01*
X0388625Y0144482D01*
X0389325Y0144482D01*
X0389676Y0144832D01*
X0389676Y0145183D01*
X0389325Y0145533D01*
X0388625Y0145533D01*
X0388274Y0145183D01*
X0388625Y0144482D02*
X0388274Y0144132D01*
X0388274Y0143782D01*
X0388625Y0143431D01*
X0389325Y0143431D01*
X0389676Y0143782D01*
X0389676Y0144132D01*
X0389325Y0144482D01*
X0390484Y0144132D02*
X0391185Y0143431D01*
X0391185Y0145533D01*
X0390484Y0145533D02*
X0391886Y0145533D01*
X0387466Y0143782D02*
X0387115Y0143431D01*
X0386415Y0143431D01*
X0386065Y0143782D01*
X0386065Y0145183D01*
X0386028Y0122148D02*
X0387429Y0122148D01*
X0387779Y0121798D01*
X0387779Y0121097D01*
X0387429Y0120747D01*
X0387429Y0119938D02*
X0387079Y0119938D01*
X0386728Y0119588D01*
X0386728Y0118887D01*
X0387079Y0118537D01*
X0387429Y0118537D01*
X0387779Y0118887D01*
X0387779Y0119588D01*
X0387429Y0119938D01*
X0386728Y0119588D02*
X0386378Y0119938D01*
X0386028Y0119938D01*
X0385678Y0119588D01*
X0385678Y0118887D01*
X0386028Y0118537D01*
X0386378Y0118537D01*
X0386728Y0118887D01*
X0386028Y0117728D02*
X0385678Y0117378D01*
X0385678Y0116677D01*
X0386028Y0116327D01*
X0387429Y0117728D01*
X0387779Y0117378D01*
X0387779Y0116677D01*
X0387429Y0116327D01*
X0386028Y0116327D01*
X0386028Y0117728D02*
X0387429Y0117728D01*
X0386028Y0120747D02*
X0385678Y0121097D01*
X0385678Y0121798D01*
X0386028Y0122148D01*
X0396928Y0121798D02*
X0397278Y0122148D01*
X0398679Y0122148D01*
X0399029Y0121798D01*
X0399029Y0121097D01*
X0398679Y0120747D01*
X0398679Y0119938D02*
X0399029Y0119938D01*
X0398679Y0119938D02*
X0397278Y0118537D01*
X0396928Y0118537D01*
X0396928Y0119938D01*
X0397278Y0120747D02*
X0396928Y0121097D01*
X0396928Y0121798D01*
X0397278Y0117728D02*
X0397628Y0117728D01*
X0397978Y0117378D01*
X0397978Y0116327D01*
X0397278Y0116327D02*
X0396928Y0116677D01*
X0396928Y0117378D01*
X0397278Y0117728D01*
X0397278Y0116327D02*
X0398679Y0116327D01*
X0399029Y0116677D01*
X0399029Y0117378D01*
X0398679Y0117728D01*
X0404678Y0091253D02*
X0404678Y0090202D01*
X0405028Y0089852D01*
X0405728Y0089852D01*
X0406079Y0090202D01*
X0406079Y0091253D01*
X0406779Y0091253D02*
X0404678Y0091253D01*
X0406079Y0090552D02*
X0406779Y0089852D01*
X0406779Y0089043D02*
X0406779Y0087642D01*
X0406779Y0088342D02*
X0404678Y0088342D01*
X0405378Y0089043D01*
X0405028Y0086833D02*
X0404678Y0086483D01*
X0404678Y0085782D01*
X0405028Y0085432D01*
X0406429Y0086833D01*
X0406779Y0086483D01*
X0406779Y0085782D01*
X0406429Y0085432D01*
X0405028Y0085432D01*
X0405028Y0084623D02*
X0405378Y0084623D01*
X0405728Y0084273D01*
X0405728Y0083222D01*
X0405028Y0083222D02*
X0404678Y0083572D01*
X0404678Y0084273D01*
X0405028Y0084623D01*
X0405028Y0083222D02*
X0406429Y0083222D01*
X0406779Y0083572D01*
X0406779Y0084273D01*
X0406429Y0084623D01*
X0406429Y0086833D02*
X0405028Y0086833D01*
X0440238Y0099801D02*
X0440238Y0101903D01*
X0441289Y0100852D01*
X0439888Y0100852D01*
X0442098Y0101202D02*
X0442098Y0101553D01*
X0442448Y0101903D01*
X0443149Y0101903D01*
X0443499Y0101553D01*
X0442098Y0101202D02*
X0443499Y0099801D01*
X0442098Y0099801D01*
X0444308Y0099801D02*
X0445709Y0099801D01*
X0445008Y0099801D02*
X0445008Y0101903D01*
X0445709Y0101202D01*
X0446518Y0100852D02*
X0446868Y0100502D01*
X0447919Y0100502D01*
X0447218Y0100502D02*
X0446518Y0099801D01*
X0446518Y0100852D02*
X0446518Y0101553D01*
X0446868Y0101903D01*
X0447919Y0101903D01*
X0447919Y0099801D01*
X0447919Y0104132D02*
X0447919Y0106234D01*
X0446868Y0106234D01*
X0446518Y0105883D01*
X0446518Y0105183D01*
X0446868Y0104832D01*
X0447919Y0104832D01*
X0447218Y0104832D02*
X0446518Y0104132D01*
X0445709Y0104132D02*
X0444308Y0104132D01*
X0445008Y0104132D02*
X0445008Y0106234D01*
X0445709Y0105533D01*
X0443499Y0105883D02*
X0443149Y0106234D01*
X0442448Y0106234D01*
X0442098Y0105883D01*
X0442098Y0105533D01*
X0443499Y0104132D01*
X0442098Y0104132D01*
X0441289Y0104482D02*
X0440939Y0104132D01*
X0440238Y0104132D01*
X0439888Y0104482D01*
X0439888Y0104832D01*
X0440238Y0105183D01*
X0440589Y0105183D01*
X0440238Y0105183D02*
X0439888Y0105533D01*
X0439888Y0105883D01*
X0440238Y0106234D01*
X0440939Y0106234D01*
X0441289Y0105883D01*
X0441289Y0108463D02*
X0439888Y0108463D01*
X0440589Y0108463D02*
X0440589Y0110564D01*
X0441289Y0109864D01*
X0442098Y0110214D02*
X0442448Y0110564D01*
X0443149Y0110564D01*
X0443499Y0110214D01*
X0443499Y0109864D01*
X0443149Y0109513D01*
X0442098Y0109513D01*
X0442098Y0108813D02*
X0442098Y0110214D01*
X0442098Y0108813D02*
X0442448Y0108463D01*
X0443149Y0108463D01*
X0443499Y0108813D01*
X0444308Y0108813D02*
X0444658Y0108463D01*
X0445359Y0108463D01*
X0445709Y0108813D01*
X0445709Y0110214D01*
X0445359Y0110564D01*
X0444658Y0110564D01*
X0444308Y0110214D01*
X0444658Y0113581D02*
X0444308Y0113931D01*
X0444658Y0113581D02*
X0445359Y0113581D01*
X0445709Y0113931D01*
X0445709Y0115332D01*
X0445359Y0115683D01*
X0444658Y0115683D01*
X0444308Y0115332D01*
X0443499Y0115332D02*
X0443499Y0114982D01*
X0443149Y0114632D01*
X0442098Y0114632D01*
X0442098Y0115332D02*
X0442098Y0113931D01*
X0442448Y0113581D01*
X0443149Y0113581D01*
X0443499Y0113931D01*
X0443499Y0115332D02*
X0443149Y0115683D01*
X0442448Y0115683D01*
X0442098Y0115332D01*
X0441289Y0115332D02*
X0440939Y0115683D01*
X0440238Y0115683D01*
X0439888Y0115332D01*
X0439888Y0114982D01*
X0441289Y0113581D01*
X0439888Y0113581D01*
X0439888Y0121455D02*
X0441289Y0121455D01*
X0439888Y0122856D01*
X0439888Y0123206D01*
X0440238Y0123557D01*
X0440939Y0123557D01*
X0441289Y0123206D01*
X0442098Y0123206D02*
X0442448Y0123557D01*
X0443149Y0123557D01*
X0443499Y0123206D01*
X0442098Y0123206D02*
X0442098Y0122856D01*
X0443499Y0121455D01*
X0442098Y0121455D01*
X0444308Y0121455D02*
X0445709Y0121455D01*
X0445008Y0121455D02*
X0445008Y0123557D01*
X0445709Y0122856D01*
X0446518Y0123206D02*
X0446518Y0122506D01*
X0446868Y0122155D01*
X0447919Y0122155D01*
X0447919Y0121455D02*
X0447919Y0123557D01*
X0446868Y0123557D01*
X0446518Y0123206D01*
X0447218Y0122155D02*
X0446518Y0121455D01*
X0453729Y0115733D02*
X0451229Y0113233D01*
X0447919Y0130116D02*
X0447919Y0132218D01*
X0446868Y0132218D01*
X0446518Y0131868D01*
X0446518Y0131167D01*
X0446868Y0130817D01*
X0447919Y0130817D01*
X0447218Y0130817D02*
X0446518Y0130116D01*
X0445709Y0130116D02*
X0444308Y0130116D01*
X0445008Y0130116D02*
X0445008Y0132218D01*
X0445709Y0131517D01*
X0443499Y0131868D02*
X0443149Y0132218D01*
X0442448Y0132218D01*
X0442098Y0131868D01*
X0442098Y0131517D01*
X0443499Y0130116D01*
X0442098Y0130116D01*
X0441289Y0130466D02*
X0440939Y0130116D01*
X0440238Y0130116D01*
X0439888Y0130466D01*
X0439888Y0131167D01*
X0440238Y0131517D01*
X0440589Y0131517D01*
X0441289Y0131167D01*
X0441289Y0132218D01*
X0439888Y0132218D01*
X0441376Y0133640D02*
X0442778Y0133640D01*
X0442077Y0133640D02*
X0442077Y0135742D01*
X0442778Y0135041D01*
X0443586Y0135041D02*
X0443937Y0134691D01*
X0444987Y0134691D01*
X0443937Y0134691D02*
X0443586Y0134340D01*
X0443586Y0133990D01*
X0443937Y0133640D01*
X0444987Y0133640D01*
X0444987Y0135742D01*
X0443937Y0135742D01*
X0443586Y0135391D01*
X0443586Y0135041D01*
X0445796Y0135742D02*
X0447197Y0135742D01*
X0447197Y0133640D01*
X0447197Y0134691D02*
X0446497Y0134691D01*
X0447030Y0150318D02*
X0446679Y0150669D01*
X0446679Y0151369D01*
X0447030Y0151719D01*
X0447030Y0152528D02*
X0447380Y0152528D01*
X0447730Y0152878D01*
X0447730Y0153579D01*
X0447380Y0153929D01*
X0447030Y0153929D01*
X0446679Y0153579D01*
X0446679Y0152878D01*
X0447030Y0152528D01*
X0447730Y0152878D02*
X0448081Y0152528D01*
X0448431Y0152528D01*
X0448781Y0152878D01*
X0448781Y0153579D01*
X0448431Y0153929D01*
X0448081Y0153929D01*
X0447730Y0153579D01*
X0447730Y0154738D02*
X0447730Y0156139D01*
X0446679Y0155789D02*
X0448781Y0155789D01*
X0447730Y0154738D01*
X0448431Y0151719D02*
X0448781Y0151369D01*
X0448781Y0150669D01*
X0448431Y0150318D01*
X0447030Y0150318D01*
X0447028Y0160327D02*
X0447378Y0160327D01*
X0447728Y0160677D01*
X0448079Y0160327D01*
X0448429Y0160327D01*
X0448779Y0160677D01*
X0448779Y0161378D01*
X0448429Y0161728D01*
X0448429Y0162537D02*
X0448779Y0162887D01*
X0448779Y0163588D01*
X0448429Y0163938D01*
X0448079Y0163938D01*
X0447728Y0163588D01*
X0447728Y0162887D01*
X0448079Y0162537D01*
X0448429Y0162537D01*
X0447728Y0162887D02*
X0447378Y0162537D01*
X0447028Y0162537D01*
X0446678Y0162887D01*
X0446678Y0163588D01*
X0447028Y0163938D01*
X0447378Y0163938D01*
X0447728Y0163588D01*
X0447028Y0164747D02*
X0446678Y0165097D01*
X0446678Y0165798D01*
X0447028Y0166148D01*
X0448429Y0166148D01*
X0448779Y0165798D01*
X0448779Y0165097D01*
X0448429Y0164747D01*
X0447028Y0161728D02*
X0446678Y0161378D01*
X0446678Y0160677D01*
X0447028Y0160327D01*
X0447728Y0160677D02*
X0447728Y0161028D01*
X0431999Y0192183D02*
X0431999Y0194285D01*
X0430948Y0194285D01*
X0430598Y0193935D01*
X0430598Y0193234D01*
X0430948Y0192884D01*
X0431999Y0192884D01*
X0431299Y0192884D02*
X0430598Y0192183D01*
X0429789Y0192183D02*
X0428388Y0192183D01*
X0429089Y0192183D02*
X0429089Y0194285D01*
X0429789Y0193584D01*
X0427579Y0193935D02*
X0427229Y0194285D01*
X0426529Y0194285D01*
X0426178Y0193935D01*
X0426178Y0193584D01*
X0427579Y0192183D01*
X0426178Y0192183D01*
X0425370Y0192533D02*
X0423968Y0193935D01*
X0423968Y0192533D01*
X0424319Y0192183D01*
X0425019Y0192183D01*
X0425370Y0192533D01*
X0425370Y0193935D01*
X0425019Y0194285D01*
X0424319Y0194285D01*
X0423968Y0193935D01*
X0423968Y0197183D02*
X0425370Y0197183D01*
X0424669Y0197183D02*
X0424669Y0199285D01*
X0425370Y0198584D01*
X0426178Y0198584D02*
X0426178Y0198935D01*
X0426529Y0199285D01*
X0427229Y0199285D01*
X0427579Y0198935D01*
X0426178Y0198584D02*
X0427579Y0197183D01*
X0426178Y0197183D01*
X0428388Y0197183D02*
X0429789Y0197183D01*
X0429089Y0197183D02*
X0429089Y0199285D01*
X0429789Y0198584D01*
X0430598Y0198234D02*
X0430948Y0197884D01*
X0431999Y0197884D01*
X0431299Y0197884D02*
X0430598Y0197183D01*
X0430598Y0198234D02*
X0430598Y0198935D01*
X0430948Y0199285D01*
X0431999Y0199285D01*
X0431999Y0197183D01*
X0422249Y0205933D02*
X0422249Y0208035D01*
X0421198Y0208035D01*
X0420848Y0207685D01*
X0420848Y0206984D01*
X0421198Y0206634D01*
X0422249Y0206634D01*
X0421549Y0206634D02*
X0420848Y0205933D01*
X0420039Y0205933D02*
X0418638Y0205933D01*
X0419339Y0205933D02*
X0419339Y0208035D01*
X0420039Y0207334D01*
X0417829Y0207685D02*
X0417479Y0208035D01*
X0416779Y0208035D01*
X0416428Y0207685D01*
X0416428Y0207334D01*
X0417829Y0205933D01*
X0416428Y0205933D01*
X0415620Y0206283D02*
X0415269Y0205933D01*
X0414569Y0205933D01*
X0414218Y0206283D01*
X0414218Y0206634D01*
X0414569Y0206984D01*
X0415620Y0206984D01*
X0415620Y0206283D01*
X0415620Y0206984D02*
X0414919Y0207685D01*
X0414218Y0208035D01*
X0419424Y0214683D02*
X0420124Y0214683D01*
X0420474Y0215033D01*
X0421283Y0215033D02*
X0421283Y0216435D01*
X0421633Y0216785D01*
X0422334Y0216785D01*
X0422684Y0216435D01*
X0422684Y0216084D01*
X0422334Y0215734D01*
X0421283Y0215734D01*
X0421283Y0215033D02*
X0421633Y0214683D01*
X0422334Y0214683D01*
X0422684Y0215033D01*
X0423493Y0215033D02*
X0423843Y0214683D01*
X0424544Y0214683D01*
X0424894Y0215033D01*
X0424894Y0216435D01*
X0424544Y0216785D01*
X0423843Y0216785D01*
X0423493Y0216435D01*
X0420474Y0216435D02*
X0420124Y0216785D01*
X0419424Y0216785D01*
X0419073Y0216435D01*
X0419073Y0216084D01*
X0419424Y0215734D01*
X0419073Y0215384D01*
X0419073Y0215033D01*
X0419424Y0214683D01*
X0419424Y0215734D02*
X0419774Y0215734D01*
X0420679Y0220213D02*
X0422781Y0220213D01*
X0422781Y0221264D01*
X0422431Y0221614D01*
X0421730Y0221614D01*
X0421380Y0221264D01*
X0421380Y0220213D01*
X0421380Y0220914D02*
X0420679Y0221614D01*
X0420679Y0222423D02*
X0420679Y0223824D01*
X0420679Y0223124D02*
X0422781Y0223124D01*
X0422081Y0222423D01*
X0422081Y0224633D02*
X0422781Y0225334D01*
X0420679Y0225334D01*
X0420679Y0226034D02*
X0420679Y0224633D01*
X0420679Y0226843D02*
X0421030Y0226843D01*
X0422431Y0228244D01*
X0422781Y0228244D01*
X0422781Y0226843D01*
X0416894Y0230033D02*
X0416544Y0229683D01*
X0415843Y0229683D01*
X0415493Y0230033D01*
X0415493Y0231785D01*
X0414684Y0231435D02*
X0414334Y0231785D01*
X0413633Y0231785D01*
X0413283Y0231435D01*
X0413283Y0231084D01*
X0413633Y0230734D01*
X0413283Y0230384D01*
X0413283Y0230033D01*
X0413633Y0229683D01*
X0414334Y0229683D01*
X0414684Y0230033D01*
X0413984Y0230734D02*
X0413633Y0230734D01*
X0412474Y0231084D02*
X0411774Y0231785D01*
X0411774Y0229683D01*
X0412474Y0229683D02*
X0411073Y0229683D01*
X0416894Y0230033D02*
X0416894Y0231785D01*
X0400281Y0227894D02*
X0400281Y0227193D01*
X0399931Y0226843D01*
X0400281Y0227894D02*
X0399931Y0228244D01*
X0399581Y0228244D01*
X0398179Y0226843D01*
X0398179Y0228244D01*
X0397031Y0228244D02*
X0396681Y0227544D01*
X0395980Y0226843D01*
X0395980Y0227894D01*
X0395630Y0228244D01*
X0395280Y0228244D01*
X0394929Y0227894D01*
X0394929Y0227193D01*
X0395280Y0226843D01*
X0395980Y0226843D01*
X0394929Y0226034D02*
X0394929Y0224633D01*
X0394929Y0225334D02*
X0397031Y0225334D01*
X0396331Y0224633D01*
X0394929Y0223824D02*
X0394929Y0222423D01*
X0394929Y0223124D02*
X0397031Y0223124D01*
X0396331Y0222423D01*
X0396681Y0221614D02*
X0395980Y0221614D01*
X0395630Y0221264D01*
X0395630Y0220213D01*
X0394929Y0220213D02*
X0397031Y0220213D01*
X0397031Y0221264D01*
X0396681Y0221614D01*
X0395630Y0220914D02*
X0394929Y0221614D01*
X0398179Y0221614D02*
X0398880Y0220914D01*
X0398880Y0221264D02*
X0398880Y0220213D01*
X0398179Y0220213D02*
X0400281Y0220213D01*
X0400281Y0221264D01*
X0399931Y0221614D01*
X0399230Y0221614D01*
X0398880Y0221264D01*
X0398179Y0222423D02*
X0398179Y0223824D01*
X0398179Y0223124D02*
X0400281Y0223124D01*
X0399581Y0222423D01*
X0399581Y0224633D02*
X0400281Y0225334D01*
X0398179Y0225334D01*
X0398179Y0226034D02*
X0398179Y0224633D01*
X0399530Y0218994D02*
X0399179Y0218644D01*
X0399179Y0217943D01*
X0399530Y0217593D01*
X0399179Y0216784D02*
X0399179Y0215383D01*
X0399179Y0216084D02*
X0401281Y0216084D01*
X0400581Y0215383D01*
X0399179Y0214574D02*
X0399179Y0213173D01*
X0399179Y0213874D02*
X0401281Y0213874D01*
X0400581Y0213173D01*
X0400931Y0212364D02*
X0400230Y0212364D01*
X0399880Y0212014D01*
X0399880Y0210963D01*
X0399179Y0210963D02*
X0401281Y0210963D01*
X0401281Y0212014D01*
X0400931Y0212364D01*
X0399880Y0211664D02*
X0399179Y0212364D01*
X0400931Y0217593D02*
X0401281Y0217943D01*
X0401281Y0218644D01*
X0400931Y0218994D01*
X0400581Y0218994D01*
X0400230Y0218644D01*
X0399880Y0218994D01*
X0399530Y0218994D01*
X0400230Y0218644D02*
X0400230Y0218294D01*
X0394681Y0208744D02*
X0393280Y0208744D01*
X0392929Y0208394D01*
X0392929Y0207693D01*
X0393280Y0207343D01*
X0393980Y0207693D02*
X0393980Y0208744D01*
X0394681Y0208744D02*
X0395031Y0208394D01*
X0395031Y0207693D01*
X0394681Y0207343D01*
X0394331Y0207343D01*
X0393980Y0207693D01*
X0392929Y0206534D02*
X0392929Y0205133D01*
X0392929Y0205834D02*
X0395031Y0205834D01*
X0394331Y0205133D01*
X0392929Y0204324D02*
X0392929Y0202923D01*
X0392929Y0203624D02*
X0395031Y0203624D01*
X0394331Y0202923D01*
X0394681Y0202114D02*
X0393980Y0202114D01*
X0393630Y0201764D01*
X0393630Y0200713D01*
X0392929Y0200713D02*
X0395031Y0200713D01*
X0395031Y0201764D01*
X0394681Y0202114D01*
X0393630Y0201414D02*
X0392929Y0202114D01*
X0393280Y0198389D02*
X0392929Y0198039D01*
X0392929Y0197338D01*
X0393280Y0196988D01*
X0394681Y0198389D01*
X0393280Y0198389D01*
X0394681Y0198389D02*
X0395031Y0198039D01*
X0395031Y0197338D01*
X0394681Y0196988D01*
X0393280Y0196988D01*
X0393280Y0196179D02*
X0394681Y0196179D01*
X0395031Y0195829D01*
X0395031Y0195128D01*
X0394681Y0194778D01*
X0394331Y0194778D01*
X0393980Y0195128D01*
X0393980Y0196179D01*
X0393280Y0196179D02*
X0392929Y0195829D01*
X0392929Y0195128D01*
X0393280Y0194778D01*
X0393280Y0193969D02*
X0392929Y0193619D01*
X0392929Y0192919D01*
X0393280Y0192568D01*
X0394681Y0192568D01*
X0395031Y0192919D01*
X0395031Y0193619D01*
X0394681Y0193969D01*
X0384386Y0194482D02*
X0382984Y0194482D01*
X0384035Y0193431D01*
X0384035Y0195533D01*
X0382176Y0195183D02*
X0381825Y0195533D01*
X0381125Y0195533D01*
X0380774Y0195183D01*
X0380774Y0194832D01*
X0381125Y0194482D01*
X0381825Y0194482D01*
X0382176Y0194832D01*
X0382176Y0195183D01*
X0381825Y0194482D02*
X0382176Y0194132D01*
X0382176Y0193782D01*
X0381825Y0193431D01*
X0381125Y0193431D01*
X0380774Y0193782D01*
X0380774Y0194132D01*
X0381125Y0194482D01*
X0379966Y0194482D02*
X0379615Y0194832D01*
X0378565Y0194832D01*
X0379265Y0194832D02*
X0379966Y0195533D01*
X0379966Y0194482D02*
X0379966Y0193782D01*
X0379615Y0193431D01*
X0378565Y0193431D01*
X0378565Y0195533D01*
X0378565Y0191783D02*
X0378565Y0189681D01*
X0379615Y0189681D01*
X0379966Y0190032D01*
X0379966Y0190732D01*
X0379615Y0191082D01*
X0378565Y0191082D01*
X0379265Y0191082D02*
X0379966Y0191783D01*
X0380774Y0191433D02*
X0381125Y0191783D01*
X0381825Y0191783D01*
X0382176Y0191433D01*
X0382176Y0191082D01*
X0381825Y0190732D01*
X0381125Y0190732D01*
X0380774Y0190382D01*
X0380774Y0190032D01*
X0381125Y0189681D01*
X0381825Y0189681D01*
X0382176Y0190032D01*
X0382176Y0190382D01*
X0381825Y0190732D01*
X0381125Y0190732D02*
X0380774Y0191082D01*
X0380774Y0191433D01*
X0382984Y0191433D02*
X0383335Y0191783D01*
X0384035Y0191783D01*
X0384386Y0191433D01*
X0384386Y0190732D01*
X0384035Y0190382D01*
X0383685Y0190382D01*
X0382984Y0190732D01*
X0382984Y0189681D01*
X0384386Y0189681D01*
X0391315Y0178783D02*
X0391315Y0176681D01*
X0392365Y0176681D01*
X0392716Y0177032D01*
X0392716Y0177732D01*
X0392365Y0178082D01*
X0391315Y0178082D01*
X0392015Y0178082D02*
X0392716Y0178783D01*
X0393524Y0178433D02*
X0393524Y0178082D01*
X0393875Y0177732D01*
X0394575Y0177732D01*
X0394926Y0178082D01*
X0394926Y0178433D01*
X0394575Y0178783D01*
X0393875Y0178783D01*
X0393524Y0178433D01*
X0393875Y0177732D02*
X0393524Y0177382D01*
X0393524Y0177032D01*
X0393875Y0176681D01*
X0394575Y0176681D01*
X0394926Y0177032D01*
X0394926Y0177382D01*
X0394575Y0177732D01*
X0395734Y0177032D02*
X0396085Y0176681D01*
X0396785Y0176681D01*
X0397136Y0177032D01*
X0397136Y0177382D01*
X0395734Y0178783D01*
X0397136Y0178783D01*
X0389035Y0209681D02*
X0388335Y0209681D01*
X0387984Y0210032D01*
X0387984Y0210382D01*
X0388335Y0210732D01*
X0389035Y0210732D01*
X0389386Y0211082D01*
X0389386Y0211433D01*
X0389035Y0211783D01*
X0388335Y0211783D01*
X0387984Y0211433D01*
X0387984Y0211082D01*
X0388335Y0210732D01*
X0389035Y0210732D02*
X0389386Y0210382D01*
X0389386Y0210032D01*
X0389035Y0209681D01*
X0387176Y0210032D02*
X0387176Y0210382D01*
X0386825Y0210732D01*
X0386125Y0210732D01*
X0385774Y0210382D01*
X0385774Y0210032D01*
X0386125Y0209681D01*
X0386825Y0209681D01*
X0387176Y0210032D01*
X0386825Y0210732D02*
X0387176Y0211082D01*
X0387176Y0211433D01*
X0386825Y0211783D01*
X0386125Y0211783D01*
X0385774Y0211433D01*
X0385774Y0211082D01*
X0386125Y0210732D01*
X0384966Y0210032D02*
X0384615Y0209681D01*
X0383915Y0209681D01*
X0383565Y0210032D01*
X0383565Y0211433D01*
X0383915Y0211783D01*
X0384615Y0211783D01*
X0384966Y0211433D01*
X0384529Y0221577D02*
X0384529Y0222978D01*
X0383128Y0221577D01*
X0382778Y0221577D01*
X0382428Y0221927D01*
X0382428Y0222628D01*
X0382778Y0222978D01*
X0382778Y0223787D02*
X0383128Y0223787D01*
X0383478Y0224137D01*
X0383829Y0223787D01*
X0384179Y0223787D01*
X0384529Y0224137D01*
X0384529Y0224838D01*
X0384179Y0225188D01*
X0384179Y0225997D02*
X0384529Y0226347D01*
X0384529Y0227048D01*
X0384179Y0227398D01*
X0382778Y0227398D01*
X0382428Y0227048D01*
X0382428Y0226347D01*
X0382778Y0225997D01*
X0382778Y0225188D02*
X0382428Y0224838D01*
X0382428Y0224137D01*
X0382778Y0223787D01*
X0383478Y0224137D02*
X0383478Y0224487D01*
X0381029Y0224137D02*
X0381029Y0224838D01*
X0380679Y0225188D01*
X0380679Y0225997D02*
X0381029Y0226347D01*
X0381029Y0227048D01*
X0380679Y0227398D01*
X0379278Y0227398D01*
X0378928Y0227048D01*
X0378928Y0226347D01*
X0379278Y0225997D01*
X0379278Y0225188D02*
X0378928Y0224838D01*
X0378928Y0224137D01*
X0379278Y0223787D01*
X0379628Y0223787D01*
X0379978Y0224137D01*
X0380329Y0223787D01*
X0380679Y0223787D01*
X0381029Y0224137D01*
X0379978Y0224137D02*
X0379978Y0224487D01*
X0379628Y0222978D02*
X0378928Y0222278D01*
X0381029Y0222278D01*
X0381029Y0222978D02*
X0381029Y0221577D01*
X0379978Y0239077D02*
X0379978Y0240478D01*
X0378928Y0239427D01*
X0381029Y0239427D01*
X0382428Y0239077D02*
X0382428Y0240478D01*
X0383478Y0240478D01*
X0383128Y0239778D01*
X0383128Y0239427D01*
X0383478Y0239077D01*
X0384179Y0239077D01*
X0384529Y0239427D01*
X0384529Y0240128D01*
X0384179Y0240478D01*
X0384179Y0241287D02*
X0384529Y0241637D01*
X0384529Y0242338D01*
X0384179Y0242688D01*
X0384179Y0243497D02*
X0384529Y0243847D01*
X0384529Y0244548D01*
X0384179Y0244898D01*
X0382778Y0244898D01*
X0382428Y0244548D01*
X0382428Y0243847D01*
X0382778Y0243497D01*
X0382778Y0242688D02*
X0382428Y0242338D01*
X0382428Y0241637D01*
X0382778Y0241287D01*
X0383128Y0241287D01*
X0383478Y0241637D01*
X0383829Y0241287D01*
X0384179Y0241287D01*
X0383478Y0241637D02*
X0383478Y0241987D01*
X0381029Y0241637D02*
X0380679Y0241287D01*
X0380329Y0241287D01*
X0379978Y0241637D01*
X0379978Y0241987D01*
X0379978Y0241637D02*
X0379628Y0241287D01*
X0379278Y0241287D01*
X0378928Y0241637D01*
X0378928Y0242338D01*
X0379278Y0242688D01*
X0379278Y0243497D02*
X0378928Y0243847D01*
X0378928Y0244548D01*
X0379278Y0244898D01*
X0380679Y0244898D01*
X0381029Y0244548D01*
X0381029Y0243847D01*
X0380679Y0243497D01*
X0380679Y0242688D02*
X0381029Y0242338D01*
X0381029Y0241637D01*
X0200279Y0138898D02*
X0198178Y0138898D01*
X0198178Y0137847D01*
X0198528Y0137497D01*
X0199228Y0137497D01*
X0199579Y0137847D01*
X0199579Y0138898D01*
X0199579Y0138197D02*
X0200279Y0137497D01*
X0200279Y0136688D02*
X0199929Y0136688D01*
X0198528Y0135287D01*
X0198178Y0135287D01*
X0198178Y0136688D01*
X0198178Y0134478D02*
X0198178Y0133077D01*
X0198528Y0133077D01*
X0199929Y0134478D01*
X0200279Y0134478D01*
X0131028Y0234827D02*
X0132429Y0236228D01*
X0132779Y0236228D01*
X0131028Y0237037D02*
X0132429Y0238438D01*
X0132779Y0238438D01*
X0132429Y0239247D02*
X0132779Y0239597D01*
X0132779Y0240298D01*
X0132429Y0240648D01*
X0131028Y0240648D01*
X0130678Y0240298D01*
X0130678Y0239597D01*
X0131028Y0239247D01*
X0130678Y0238438D02*
X0130678Y0237037D01*
X0131028Y0237037D01*
X0130678Y0236228D02*
X0130678Y0234827D01*
X0131028Y0234827D01*
X0121529Y0235177D02*
X0121179Y0234827D01*
X0120829Y0234827D01*
X0120478Y0235177D01*
X0120478Y0236228D01*
X0121179Y0236228D01*
X0121529Y0235878D01*
X0121529Y0235177D01*
X0120478Y0236228D02*
X0119778Y0235528D01*
X0119428Y0234827D01*
X0119428Y0237037D02*
X0119778Y0237037D01*
X0121179Y0238438D01*
X0121529Y0238438D01*
X0121179Y0239247D02*
X0121529Y0239597D01*
X0121529Y0240298D01*
X0121179Y0240648D01*
X0119778Y0240648D01*
X0119428Y0240298D01*
X0119428Y0239597D01*
X0119778Y0239247D01*
X0119428Y0238438D02*
X0119428Y0237037D01*
X0093279Y0264827D02*
X0093279Y0266228D01*
X0093279Y0265528D02*
X0091178Y0265528D01*
X0091878Y0266228D01*
X0091878Y0267037D02*
X0092228Y0267387D01*
X0092228Y0268088D01*
X0091878Y0268438D01*
X0091528Y0268438D01*
X0091178Y0268088D01*
X0091178Y0267387D01*
X0091528Y0267037D01*
X0091878Y0267037D01*
X0092228Y0267387D02*
X0092579Y0267037D01*
X0092929Y0267037D01*
X0093279Y0267387D01*
X0093279Y0268088D01*
X0092929Y0268438D01*
X0092579Y0268438D01*
X0092228Y0268088D01*
X0092228Y0269247D02*
X0092579Y0269597D01*
X0092579Y0270648D01*
X0093279Y0270648D02*
X0091178Y0270648D01*
X0091178Y0269597D01*
X0091528Y0269247D01*
X0092228Y0269247D01*
X0092579Y0269947D02*
X0093279Y0269247D01*
D20*
X0451229Y0110733D02*
X0453729Y0113233D01*
D21*
X0453729Y0110733D02*
X0451229Y0108233D01*
D22*
X0093462Y0071934D03*
X0205529Y0114965D03*
X0280529Y0114965D03*
X0349997Y0153282D03*
X0414997Y0184532D03*
X0427792Y0150359D03*
X0312930Y0241501D03*
X0237930Y0241501D03*
X0168462Y0203184D03*
X0109997Y0284532D03*
D23*
X0134979Y0220733D03*
X0383479Y0135733D03*
D24*
X0351084Y0194572D03*
D25*
X0409229Y0265983D02*
X0409229Y0285483D01*
X0419229Y0285483D02*
X0419229Y0265983D01*
D26*
X0419229Y0265483D03*
X0409229Y0265483D03*
D27*
X0409229Y0252483D03*
X0419229Y0252483D03*
D28*
X0419229Y0241983D03*
X0409229Y0241983D03*
D29*
X0409673Y0200605D02*
X0409675Y0200644D01*
X0409681Y0200683D01*
X0409691Y0200721D01*
X0409704Y0200758D01*
X0409721Y0200793D01*
X0409741Y0200827D01*
X0409765Y0200858D01*
X0409792Y0200887D01*
X0409821Y0200913D01*
X0409853Y0200936D01*
X0409887Y0200956D01*
X0409923Y0200972D01*
X0409960Y0200984D01*
X0409999Y0200993D01*
X0410038Y0200998D01*
X0410077Y0200999D01*
X0410116Y0200996D01*
X0410155Y0200989D01*
X0410192Y0200978D01*
X0410229Y0200964D01*
X0410264Y0200946D01*
X0410297Y0200925D01*
X0410328Y0200900D01*
X0410356Y0200873D01*
X0410381Y0200843D01*
X0410403Y0200810D01*
X0410422Y0200776D01*
X0410437Y0200740D01*
X0410449Y0200702D01*
X0410457Y0200664D01*
X0410461Y0200625D01*
X0410461Y0200585D01*
X0410457Y0200546D01*
X0410449Y0200508D01*
X0410437Y0200470D01*
X0410422Y0200434D01*
X0410403Y0200400D01*
X0410381Y0200367D01*
X0410356Y0200337D01*
X0410328Y0200310D01*
X0410297Y0200285D01*
X0410264Y0200264D01*
X0410229Y0200246D01*
X0410192Y0200232D01*
X0410155Y0200221D01*
X0410116Y0200214D01*
X0410077Y0200211D01*
X0410038Y0200212D01*
X0409999Y0200217D01*
X0409960Y0200226D01*
X0409923Y0200238D01*
X0409887Y0200254D01*
X0409853Y0200274D01*
X0409821Y0200297D01*
X0409792Y0200323D01*
X0409765Y0200352D01*
X0409741Y0200383D01*
X0409721Y0200417D01*
X0409704Y0200452D01*
X0409691Y0200489D01*
X0409681Y0200527D01*
X0409675Y0200566D01*
X0409673Y0200605D01*
X0426808Y0164139D02*
X0436651Y0164139D01*
X0436651Y0152328D02*
X0426808Y0152328D01*
D30*
X0407979Y0191279D02*
X0409650Y0192949D01*
X0410763Y0194063D02*
X0412434Y0195733D01*
X0407979Y0200187D02*
X0406309Y0198517D01*
X0405196Y0197403D02*
X0403525Y0195733D01*
D31*
X0409308Y0228420D03*
M02*
