G04 This is an RS-274x file exported by *
G04 gerbv version 2.7.0 *
G04 More information is available about gerbv at *
G04 http://gerbv.geda-project.org/ *
G04 --End of header info--*
%MOIN*%
%FSLAX36Y36*%
%IPPOS*%
G04 --Define apertures--*
%ADD10C,0.0049*%
%ADD11C,0.0028*%
%ADD12C,0.0063*%
%ADD13C,0.0039*%
%ADD14C,0.0016*%
%ADD15R,0.0158X0.0394*%
%ADD16R,0.0394X0.0158*%
%ADD17R,0.0315X0.0315*%
%ADD18R,0.0394X0.0158*%
%ADD19R,0.0158X0.0394*%
%ADD20R,0.0315X0.0315*%
G04 --Start main section--*
G54D10*
G01X1724100Y-784300D02*
G01X1743620Y-784300D01*
G01X1743620Y-784300D02*
G01X1743620Y-803820D01*
G01X1743620Y-803820D02*
G01X1724100Y-803820D01*
G01X1724100Y-803820D02*
G01X1724100Y-784300D01*
G01X1728970Y-784300D02*
G01X1728970Y-803820D01*
G01X1733840Y-803820D02*
G01X1733840Y-784300D01*
G01X1738710Y-784300D02*
G01X1738710Y-803820D01*
G01X1743580Y-803820D02*
G01X1743580Y-784300D01*
G01X1759540Y-784300D02*
G01X1779060Y-784300D01*
G01X1779060Y-784300D02*
G01X1779060Y-803820D01*
G01X1779060Y-803820D02*
G01X1759540Y-803820D01*
G01X1759540Y-803820D02*
G01X1759540Y-784300D01*
G01X1764410Y-784300D02*
G01X1764410Y-803820D01*
G01X1769280Y-803820D02*
G01X1769280Y-784300D01*
G01X1774150Y-784300D02*
G01X1774150Y-803820D01*
G01X1779020Y-803820D02*
G01X1779020Y-784300D01*
G01X1903070Y-719170D02*
G01X1903070Y-699650D01*
G01X1903070Y-719170D02*
G01X1883550Y-719170D01*
G01X1883550Y-719170D02*
G01X1883550Y-699650D01*
G01X1883550Y-699650D02*
G01X1903070Y-699650D01*
G01X1888420Y-699650D02*
G01X1888420Y-719170D01*
G01X1893290Y-719170D02*
G01X1893290Y-699650D01*
G01X1898160Y-699650D02*
G01X1898160Y-719170D01*
G01X1903030Y-719170D02*
G01X1903030Y-699650D01*
G01X1903070Y-683740D02*
G01X1903070Y-664220D01*
G01X1903070Y-683740D02*
G01X1883550Y-683740D01*
G01X1883550Y-683740D02*
G01X1883550Y-664220D01*
G01X1883550Y-664220D02*
G01X1903070Y-664220D01*
G01X1888420Y-664220D02*
G01X1888420Y-683740D01*
G01X1893290Y-683740D02*
G01X1893290Y-664220D01*
G01X1898160Y-664220D02*
G01X1898160Y-683740D01*
G01X1903030Y-683740D02*
G01X1903030Y-664220D01*
G01X2040870Y-664220D02*
G01X2040870Y-683740D01*
G01X2040870Y-683740D02*
G01X2021350Y-683740D01*
G01X2021350Y-683740D02*
G01X2021350Y-664220D01*
G01X2021350Y-664220D02*
G01X2040870Y-664220D01*
G01X2026220Y-664220D02*
G01X2026220Y-683740D01*
G01X2031090Y-683740D02*
G01X2031090Y-664220D01*
G01X2035960Y-664220D02*
G01X2035960Y-683740D01*
G01X2040830Y-683740D02*
G01X2040830Y-664220D01*
G01X2040870Y-699650D02*
G01X2040870Y-719170D01*
G01X2040870Y-719170D02*
G01X2021350Y-719170D01*
G01X2021350Y-719170D02*
G01X2021350Y-699650D01*
G01X2021350Y-699650D02*
G01X2040870Y-699650D01*
G01X2026220Y-699650D02*
G01X2026220Y-719170D01*
G01X2031090Y-719170D02*
G01X2031090Y-699650D01*
G01X2035960Y-699650D02*
G01X2035960Y-719170D01*
G01X2040830Y-719170D02*
G01X2040830Y-699650D01*
G01X2158980Y-699650D02*
G01X2158980Y-719170D01*
G01X2158980Y-719170D02*
G01X2139460Y-719170D01*
G01X2139460Y-719170D02*
G01X2139460Y-699650D01*
G01X2139460Y-699650D02*
G01X2158980Y-699650D01*
G01X2144330Y-699650D02*
G01X2144330Y-719170D01*
G01X2149200Y-719170D02*
G01X2149200Y-699650D01*
G01X2154070Y-699650D02*
G01X2154070Y-719170D01*
G01X2158940Y-719170D02*
G01X2158940Y-699650D01*
G01X2158980Y-683740D02*
G01X2158980Y-664220D01*
G01X2158980Y-683740D02*
G01X2139460Y-683740D01*
G01X2139460Y-683740D02*
G01X2139460Y-664220D01*
G01X2139460Y-664220D02*
G01X2158980Y-664220D01*
G01X2144330Y-664220D02*
G01X2144330Y-683740D01*
G01X2149200Y-683740D02*
G01X2149200Y-664220D01*
G01X2154070Y-664220D02*
G01X2154070Y-683740D01*
G01X2158940Y-683740D02*
G01X2158940Y-664220D01*
G01X2296770Y-664220D02*
G01X2296770Y-683740D01*
G01X2296770Y-683740D02*
G01X2277250Y-683740D01*
G01X2277250Y-683740D02*
G01X2277250Y-664220D01*
G01X2277250Y-664220D02*
G01X2296770Y-664220D01*
G01X2282120Y-664220D02*
G01X2282120Y-683740D01*
G01X2286990Y-683740D02*
G01X2286990Y-664220D01*
G01X2291860Y-664220D02*
G01X2291860Y-683740D01*
G01X2296730Y-683740D02*
G01X2296730Y-664220D01*
G01X2296770Y-699650D02*
G01X2296770Y-719170D01*
G01X2296770Y-719170D02*
G01X2277250Y-719170D01*
G01X2277250Y-719170D02*
G01X2277250Y-699650D01*
G01X2277250Y-699650D02*
G01X2296770Y-699650D01*
G01X2282120Y-699650D02*
G01X2282120Y-719170D01*
G01X2286990Y-719170D02*
G01X2286990Y-699650D01*
G01X2291860Y-699650D02*
G01X2291860Y-719170D01*
G01X2296730Y-719170D02*
G01X2296730Y-699650D01*
G01X2255440Y-803980D02*
G01X2235920Y-803980D01*
G01X2255440Y-803980D02*
G01X2255440Y-823500D01*
G01X2255440Y-823500D02*
G01X2235920Y-823500D01*
G01X2235920Y-823500D02*
G01X2235920Y-803980D01*
G01X2240790Y-803980D02*
G01X2240790Y-823500D01*
G01X2245660Y-823500D02*
G01X2245660Y-803980D01*
G01X2250530Y-803980D02*
G01X2250530Y-823500D01*
G01X2255400Y-823500D02*
G01X2255400Y-803980D01*
G01X2220000Y-803980D02*
G01X2200480Y-803980D01*
G01X2220000Y-803980D02*
G01X2220000Y-823500D01*
G01X2220000Y-823500D02*
G01X2200480Y-823500D01*
G01X2200480Y-823500D02*
G01X2200480Y-803980D01*
G01X2205350Y-803980D02*
G01X2205350Y-823500D01*
G01X2210220Y-823500D02*
G01X2210220Y-803980D01*
G01X2215090Y-803980D02*
G01X2215090Y-823500D01*
G01X2219960Y-823500D02*
G01X2219960Y-803980D01*
G01X2220000Y-843350D02*
G01X2200480Y-843350D01*
G01X2220000Y-843350D02*
G01X2220000Y-862870D01*
G01X2220000Y-862870D02*
G01X2200480Y-862870D01*
G01X2200480Y-862870D02*
G01X2200480Y-843350D01*
G01X2205350Y-843350D02*
G01X2205350Y-862870D01*
G01X2210220Y-862870D02*
G01X2210220Y-843350D01*
G01X2215090Y-843350D02*
G01X2215090Y-862870D01*
G01X2219960Y-862870D02*
G01X2219960Y-843350D01*
G01X2235920Y-843350D02*
G01X2255440Y-843350D01*
G01X2255440Y-843350D02*
G01X2255440Y-862870D01*
G01X2255440Y-862870D02*
G01X2235920Y-862870D01*
G01X2235920Y-862870D02*
G01X2235920Y-843350D01*
G01X2240790Y-843350D02*
G01X2240790Y-862870D01*
G01X2245660Y-862870D02*
G01X2245660Y-843350D01*
G01X2250530Y-843350D02*
G01X2250530Y-862870D01*
G01X2255400Y-862870D02*
G01X2255400Y-843350D01*
G01X2322530Y-843190D02*
G01X2342050Y-843190D01*
G01X2322530Y-843190D02*
G01X2322530Y-823670D01*
G01X2322530Y-823670D02*
G01X2342050Y-823670D01*
G01X2342050Y-823670D02*
G01X2342050Y-843190D01*
G01X2327400Y-843190D02*
G01X2327400Y-823670D01*
G01X2332270Y-823670D02*
G01X2332270Y-843190D01*
G01X2337140Y-843190D02*
G01X2337140Y-823670D01*
G01X2342010Y-823670D02*
G01X2342010Y-843190D01*
G01X2357960Y-843190D02*
G01X2377480Y-843190D01*
G01X2357960Y-843190D02*
G01X2357960Y-823670D01*
G01X2357960Y-823670D02*
G01X2377480Y-823670D01*
G01X2377480Y-823670D02*
G01X2377480Y-843190D01*
G01X2362830Y-843190D02*
G01X2362830Y-823670D01*
G01X2367700Y-823670D02*
G01X2367700Y-843190D01*
G01X2372570Y-843190D02*
G01X2372570Y-823670D01*
G01X2377440Y-823670D02*
G01X2377440Y-843190D01*
G01X2377480Y-961300D02*
G01X2357960Y-961300D01*
G01X2357960Y-961300D02*
G01X2357960Y-941780D01*
G01X2357960Y-941780D02*
G01X2377480Y-941780D01*
G01X2377480Y-941780D02*
G01X2377480Y-961300D01*
G01X2362830Y-961300D02*
G01X2362830Y-941780D01*
G01X2367700Y-941780D02*
G01X2367700Y-961300D01*
G01X2372570Y-961300D02*
G01X2372570Y-941780D01*
G01X2377440Y-941780D02*
G01X2377440Y-961300D01*
G01X2342050Y-961300D02*
G01X2322530Y-961300D01*
G01X2322530Y-961300D02*
G01X2322530Y-941780D01*
G01X2322530Y-941780D02*
G01X2342050Y-941780D01*
G01X2342050Y-941780D02*
G01X2342050Y-961300D01*
G01X2327400Y-961300D02*
G01X2327400Y-941780D01*
G01X2332270Y-941780D02*
G01X2332270Y-961300D01*
G01X2337140Y-961300D02*
G01X2337140Y-941780D01*
G01X2342010Y-941780D02*
G01X2342010Y-961300D01*
G01X2342050Y-1197520D02*
G01X2322530Y-1197520D01*
G01X2322530Y-1197520D02*
G01X2322530Y-1178000D01*
G01X2322530Y-1178000D02*
G01X2342050Y-1178000D01*
G01X2342050Y-1178000D02*
G01X2342050Y-1197520D01*
G01X2327400Y-1197520D02*
G01X2327400Y-1178000D01*
G01X2332270Y-1178000D02*
G01X2332270Y-1197520D01*
G01X2337140Y-1197520D02*
G01X2337140Y-1178000D01*
G01X2342010Y-1178000D02*
G01X2342010Y-1197520D01*
G01X2357960Y-1197520D02*
G01X2377480Y-1197520D01*
G01X2357960Y-1197520D02*
G01X2357960Y-1178000D01*
G01X2357960Y-1178000D02*
G01X2377480Y-1178000D01*
G01X2377480Y-1178000D02*
G01X2377480Y-1197520D01*
G01X2362830Y-1197520D02*
G01X2362830Y-1178000D01*
G01X2367700Y-1178000D02*
G01X2367700Y-1197520D01*
G01X2372570Y-1197520D02*
G01X2372570Y-1178000D01*
G01X2377440Y-1178000D02*
G01X2377440Y-1197520D01*
G01X2277250Y-1262640D02*
G01X2277250Y-1282160D01*
G01X2277250Y-1262640D02*
G01X2296770Y-1262640D01*
G01X2296770Y-1262640D02*
G01X2296770Y-1282160D01*
G01X2296770Y-1282160D02*
G01X2277250Y-1282160D01*
G01X2282120Y-1282160D02*
G01X2282120Y-1262640D01*
G01X2286990Y-1262640D02*
G01X2286990Y-1282160D01*
G01X2291860Y-1282160D02*
G01X2291860Y-1262640D01*
G01X2296730Y-1262640D02*
G01X2296730Y-1282160D01*
G01X2277250Y-1298070D02*
G01X2277250Y-1317590D01*
G01X2277250Y-1298070D02*
G01X2296770Y-1298070D01*
G01X2296770Y-1298070D02*
G01X2296770Y-1317590D01*
G01X2296770Y-1317590D02*
G01X2277250Y-1317590D01*
G01X2282120Y-1317590D02*
G01X2282120Y-1298070D01*
G01X2286990Y-1298070D02*
G01X2286990Y-1317590D01*
G01X2291860Y-1317590D02*
G01X2291860Y-1298070D01*
G01X2296730Y-1298070D02*
G01X2296730Y-1317590D01*
G01X1903240Y-1317590D02*
G01X1903240Y-1298070D01*
G01X1903240Y-1298070D02*
G01X1922760Y-1298070D01*
G01X1922760Y-1298070D02*
G01X1922760Y-1317590D01*
G01X1922760Y-1317590D02*
G01X1903240Y-1317590D01*
G01X1908110Y-1317590D02*
G01X1908110Y-1298070D01*
G01X1912980Y-1298070D02*
G01X1912980Y-1317590D01*
G01X1917850Y-1317590D02*
G01X1917850Y-1298070D01*
G01X1922720Y-1298070D02*
G01X1922720Y-1317590D01*
G01X1903240Y-1282160D02*
G01X1903240Y-1262640D01*
G01X1903240Y-1262640D02*
G01X1922760Y-1262640D01*
G01X1922760Y-1262640D02*
G01X1922760Y-1282160D01*
G01X1922760Y-1282160D02*
G01X1903240Y-1282160D01*
G01X1908110Y-1282160D02*
G01X1908110Y-1262640D01*
G01X1912980Y-1262640D02*
G01X1912980Y-1282160D01*
G01X1917850Y-1282160D02*
G01X1917850Y-1262640D01*
G01X1922720Y-1262640D02*
G01X1922720Y-1282160D01*
G01X1854030Y-1282160D02*
G01X1854030Y-1262640D01*
G01X1854030Y-1262640D02*
G01X1873550Y-1262640D01*
G01X1873550Y-1262640D02*
G01X1873550Y-1282160D01*
G01X1873550Y-1282160D02*
G01X1854030Y-1282160D01*
G01X1858900Y-1282160D02*
G01X1858900Y-1262640D01*
G01X1863770Y-1262640D02*
G01X1863770Y-1282160D01*
G01X1868640Y-1282160D02*
G01X1868640Y-1262640D01*
G01X1873510Y-1262640D02*
G01X1873510Y-1282160D01*
G01X1854030Y-1298070D02*
G01X1854030Y-1317590D01*
G01X1854030Y-1298070D02*
G01X1873550Y-1298070D01*
G01X1873550Y-1298070D02*
G01X1873550Y-1317590D01*
G01X1873550Y-1317590D02*
G01X1854030Y-1317590D01*
G01X1858900Y-1317590D02*
G01X1858900Y-1298070D01*
G01X1863770Y-1298070D02*
G01X1863770Y-1317590D01*
G01X1868640Y-1317590D02*
G01X1868640Y-1298070D01*
G01X1873510Y-1298070D02*
G01X1873510Y-1317590D01*
G01X1804810Y-1317590D02*
G01X1804810Y-1298070D01*
G01X1804810Y-1298070D02*
G01X1824330Y-1298070D01*
G01X1824330Y-1298070D02*
G01X1824330Y-1317590D01*
G01X1824330Y-1317590D02*
G01X1804810Y-1317590D01*
G01X1809680Y-1317590D02*
G01X1809680Y-1298070D01*
G01X1814550Y-1298070D02*
G01X1814550Y-1317590D01*
G01X1819420Y-1317590D02*
G01X1819420Y-1298070D01*
G01X1824290Y-1298070D02*
G01X1824290Y-1317590D01*
G01X1804810Y-1282160D02*
G01X1804810Y-1262640D01*
G01X1804810Y-1262640D02*
G01X1824330Y-1262640D01*
G01X1824330Y-1262640D02*
G01X1824330Y-1282160D01*
G01X1824330Y-1282160D02*
G01X1804810Y-1282160D01*
G01X1809680Y-1282160D02*
G01X1809680Y-1262640D01*
G01X1814550Y-1262640D02*
G01X1814550Y-1282160D01*
G01X1819420Y-1282160D02*
G01X1819420Y-1262640D01*
G01X1824290Y-1262640D02*
G01X1824290Y-1282160D01*
G01X1779060Y-1138630D02*
G01X1759540Y-1138630D01*
G01X1779060Y-1138630D02*
G01X1779060Y-1158150D01*
G01X1779060Y-1158150D02*
G01X1759540Y-1158150D01*
G01X1759540Y-1158150D02*
G01X1759540Y-1138630D01*
G01X1764410Y-1138630D02*
G01X1764410Y-1158150D01*
G01X1769280Y-1158150D02*
G01X1769280Y-1138630D01*
G01X1774150Y-1138630D02*
G01X1774150Y-1158150D01*
G01X1779020Y-1158150D02*
G01X1779020Y-1138630D01*
G01X1743620Y-1138630D02*
G01X1724100Y-1138630D01*
G01X1743620Y-1138630D02*
G01X1743620Y-1158150D01*
G01X1743620Y-1158150D02*
G01X1724100Y-1158150D01*
G01X1724100Y-1158150D02*
G01X1724100Y-1138630D01*
G01X1728970Y-1138630D02*
G01X1728970Y-1158150D01*
G01X1733840Y-1158150D02*
G01X1733840Y-1138630D01*
G01X1738710Y-1138630D02*
G01X1738710Y-1158150D01*
G01X1743580Y-1158150D02*
G01X1743580Y-1138630D01*
G01X1842220Y-1118780D02*
G01X1861740Y-1118780D01*
G01X1842220Y-1118780D02*
G01X1842220Y-1099260D01*
G01X1842220Y-1099260D02*
G01X1861740Y-1099260D01*
G01X1861740Y-1099260D02*
G01X1861740Y-1118780D01*
G01X1847090Y-1118780D02*
G01X1847090Y-1099260D01*
G01X1851960Y-1099260D02*
G01X1851960Y-1118780D01*
G01X1856830Y-1118780D02*
G01X1856830Y-1099260D01*
G01X1861700Y-1099260D02*
G01X1861700Y-1118780D01*
G01X1877650Y-1118780D02*
G01X1897170Y-1118780D01*
G01X1877650Y-1118780D02*
G01X1877650Y-1099260D01*
G01X1877650Y-1099260D02*
G01X1897170Y-1099260D01*
G01X1897170Y-1099260D02*
G01X1897170Y-1118780D01*
G01X1882520Y-1118780D02*
G01X1882520Y-1099260D01*
G01X1887390Y-1099260D02*
G01X1887390Y-1118780D01*
G01X1892260Y-1118780D02*
G01X1892260Y-1099260D01*
G01X1897130Y-1099260D02*
G01X1897130Y-1118780D01*
G01X1897170Y-965400D02*
G01X1877650Y-965400D01*
G01X1897170Y-965400D02*
G01X1897170Y-984920D01*
G01X1897170Y-984920D02*
G01X1877650Y-984920D01*
G01X1877650Y-984920D02*
G01X1877650Y-965400D01*
G01X1882520Y-965400D02*
G01X1882520Y-984920D01*
G01X1887390Y-984920D02*
G01X1887390Y-965400D01*
G01X1892260Y-965400D02*
G01X1892260Y-984920D01*
G01X1897130Y-984920D02*
G01X1897130Y-965400D01*
G01X1861740Y-965400D02*
G01X1842220Y-965400D01*
G01X1861740Y-965400D02*
G01X1861740Y-984920D01*
G01X1861740Y-984920D02*
G01X1842220Y-984920D01*
G01X1842220Y-984920D02*
G01X1842220Y-965400D01*
G01X1847090Y-965400D02*
G01X1847090Y-984920D01*
G01X1851960Y-984920D02*
G01X1851960Y-965400D01*
G01X1856830Y-965400D02*
G01X1856830Y-984920D01*
G01X1861700Y-984920D02*
G01X1861700Y-965400D01*
G01X1779060Y-1010670D02*
G01X1759540Y-1010670D01*
G01X1779060Y-1010670D02*
G01X1779060Y-1030190D01*
G01X1779060Y-1030190D02*
G01X1759540Y-1030190D01*
G01X1759540Y-1030190D02*
G01X1759540Y-1010670D01*
G01X1764410Y-1010670D02*
G01X1764410Y-1030190D01*
G01X1769280Y-1030190D02*
G01X1769280Y-1010670D01*
G01X1774150Y-1010670D02*
G01X1774150Y-1030190D01*
G01X1779020Y-1030190D02*
G01X1779020Y-1010670D01*
G01X1743620Y-1010670D02*
G01X1724100Y-1010670D01*
G01X1743620Y-1010670D02*
G01X1743620Y-1030190D01*
G01X1743620Y-1030190D02*
G01X1724100Y-1030190D01*
G01X1724100Y-1030190D02*
G01X1724100Y-1010670D01*
G01X1728970Y-1010670D02*
G01X1728970Y-1030190D01*
G01X1733840Y-1030190D02*
G01X1733840Y-1010670D01*
G01X1738710Y-1010670D02*
G01X1738710Y-1030190D01*
G01X1743580Y-1030190D02*
G01X1743580Y-1010670D01*
G01X2835820Y-879570D02*
G01X2855340Y-879570D01*
G01X2855340Y-879570D02*
G01X2855340Y-899090D01*
G01X2855340Y-899090D02*
G01X2835820Y-899090D01*
G01X2835820Y-899090D02*
G01X2835820Y-879570D01*
G01X2840690Y-879570D02*
G01X2840690Y-899090D01*
G01X2845560Y-899090D02*
G01X2845560Y-879570D01*
G01X2850430Y-879570D02*
G01X2850430Y-899090D01*
G01X2855300Y-899090D02*
G01X2855300Y-879570D01*
G01X2871250Y-879570D02*
G01X2890770Y-879570D01*
G01X2890770Y-879570D02*
G01X2890770Y-899090D01*
G01X2890770Y-899090D02*
G01X2871250Y-899090D01*
G01X2871250Y-899090D02*
G01X2871250Y-879570D01*
G01X2876120Y-879570D02*
G01X2876120Y-899090D01*
G01X2880990Y-899090D02*
G01X2880990Y-879570D01*
G01X2885860Y-879570D02*
G01X2885860Y-899090D01*
G01X2890730Y-899090D02*
G01X2890730Y-879570D01*
G01X2890770Y-724090D02*
G01X2871250Y-724090D01*
G01X2871250Y-724090D02*
G01X2871250Y-704570D01*
G01X2871250Y-704570D02*
G01X2890770Y-704570D01*
G01X2890770Y-704570D02*
G01X2890770Y-724090D01*
G01X2876120Y-724090D02*
G01X2876120Y-704570D01*
G01X2880990Y-704570D02*
G01X2880990Y-724090D01*
G01X2885860Y-724090D02*
G01X2885860Y-704570D01*
G01X2890730Y-704570D02*
G01X2890730Y-724090D01*
G01X2855340Y-724090D02*
G01X2835820Y-724090D01*
G01X2835820Y-724090D02*
G01X2835820Y-704570D01*
G01X2835820Y-704570D02*
G01X2855340Y-704570D01*
G01X2855340Y-704570D02*
G01X2855340Y-724090D01*
G01X2840690Y-724090D02*
G01X2840690Y-704570D01*
G01X2845560Y-704570D02*
G01X2845560Y-724090D01*
G01X2850430Y-724090D02*
G01X2850430Y-704570D01*
G01X2855300Y-704570D02*
G01X2855300Y-724090D01*
G01X2855280Y-686690D02*
G01X2835760Y-686690D01*
G01X2835760Y-686690D02*
G01X2835760Y-667170D01*
G01X2835760Y-667170D02*
G01X2855280Y-667170D01*
G01X2855280Y-667170D02*
G01X2855280Y-686690D01*
G01X2840630Y-686690D02*
G01X2840630Y-667170D01*
G01X2845500Y-667170D02*
G01X2845500Y-686690D01*
G01X2850370Y-686690D02*
G01X2850370Y-667170D01*
G01X2855240Y-667170D02*
G01X2855240Y-686690D01*
G01X2871190Y-686690D02*
G01X2890710Y-686690D01*
G01X2871190Y-686690D02*
G01X2871190Y-667170D01*
G01X2871190Y-667170D02*
G01X2890710Y-667170D01*
G01X2890710Y-667170D02*
G01X2890710Y-686690D01*
G01X2876060Y-686690D02*
G01X2876060Y-667170D01*
G01X2880930Y-667170D02*
G01X2880930Y-686690D01*
G01X2885800Y-686690D02*
G01X2885800Y-667170D01*
G01X2890670Y-667170D02*
G01X2890670Y-686690D01*
G01X2296770Y-3861070D02*
G01X2296770Y-3880590D01*
G01X2296770Y-3880590D02*
G01X2277250Y-3880590D01*
G01X2277250Y-3880590D02*
G01X2277250Y-3861070D01*
G01X2277250Y-3861070D02*
G01X2296770Y-3861070D01*
G01X2282120Y-3861070D02*
G01X2282120Y-3880590D01*
G01X2286990Y-3880590D02*
G01X2286990Y-3861070D01*
G01X2291860Y-3861070D02*
G01X2291860Y-3880590D01*
G01X2296730Y-3880590D02*
G01X2296730Y-3861070D01*
G01X2296770Y-3896500D02*
G01X2296770Y-3916020D01*
G01X2296770Y-3916020D02*
G01X2277250Y-3916020D01*
G01X2277250Y-3916020D02*
G01X2277250Y-3896500D01*
G01X2277250Y-3896500D02*
G01X2296770Y-3896500D01*
G01X2282120Y-3896500D02*
G01X2282120Y-3916020D01*
G01X2286990Y-3916020D02*
G01X2286990Y-3896500D01*
G01X2291860Y-3896500D02*
G01X2291860Y-3916020D01*
G01X2296730Y-3916020D02*
G01X2296730Y-3896500D01*
G01X2247560Y-3896500D02*
G01X2247560Y-3916020D01*
G01X2247560Y-3916020D02*
G01X2228040Y-3916020D01*
G01X2228040Y-3916020D02*
G01X2228040Y-3896500D01*
G01X2228040Y-3896500D02*
G01X2247560Y-3896500D01*
G01X2232910Y-3896500D02*
G01X2232910Y-3916020D01*
G01X2237780Y-3916020D02*
G01X2237780Y-3896500D01*
G01X2242650Y-3896500D02*
G01X2242650Y-3916020D01*
G01X2247520Y-3916020D02*
G01X2247520Y-3896500D01*
G01X2247560Y-3880590D02*
G01X2247560Y-3861070D01*
G01X2247560Y-3880590D02*
G01X2228040Y-3880590D01*
G01X2228040Y-3880590D02*
G01X2228040Y-3861070D01*
G01X2228040Y-3861070D02*
G01X2247560Y-3861070D01*
G01X2232910Y-3861070D02*
G01X2232910Y-3880590D01*
G01X2237780Y-3880590D02*
G01X2237780Y-3861070D01*
G01X2242650Y-3861070D02*
G01X2242650Y-3880590D01*
G01X2247520Y-3880590D02*
G01X2247520Y-3861070D01*
G01X2198350Y-3861070D02*
G01X2198350Y-3880590D01*
G01X2198350Y-3880590D02*
G01X2178830Y-3880590D01*
G01X2178830Y-3880590D02*
G01X2178830Y-3861070D01*
G01X2178830Y-3861070D02*
G01X2198350Y-3861070D01*
G01X2183700Y-3861070D02*
G01X2183700Y-3880590D01*
G01X2188570Y-3880590D02*
G01X2188570Y-3861070D01*
G01X2193440Y-3861070D02*
G01X2193440Y-3880590D01*
G01X2198310Y-3880590D02*
G01X2198310Y-3861070D01*
G01X2198350Y-3896500D02*
G01X2198350Y-3916020D01*
G01X2198350Y-3916020D02*
G01X2178830Y-3916020D01*
G01X2178830Y-3916020D02*
G01X2178830Y-3896500D01*
G01X2178830Y-3896500D02*
G01X2198350Y-3896500D01*
G01X2183700Y-3896500D02*
G01X2183700Y-3916020D01*
G01X2188570Y-3916020D02*
G01X2188570Y-3896500D01*
G01X2193440Y-3896500D02*
G01X2193440Y-3916020D01*
G01X2198310Y-3916020D02*
G01X2198310Y-3896500D01*
G01X2204420Y-4059890D02*
G01X2223940Y-4059890D01*
G01X2223940Y-4059890D02*
G01X2223940Y-4079410D01*
G01X2223940Y-4079410D02*
G01X2204420Y-4079410D01*
G01X2204420Y-4079410D02*
G01X2204420Y-4059890D01*
G01X2209290Y-4059890D02*
G01X2209290Y-4079410D01*
G01X2214160Y-4079410D02*
G01X2214160Y-4059890D01*
G01X2219030Y-4059890D02*
G01X2219030Y-4079410D01*
G01X2223900Y-4079410D02*
G01X2223900Y-4059890D01*
G01X2239850Y-4059890D02*
G01X2259370Y-4059890D01*
G01X2259370Y-4059890D02*
G01X2259370Y-4079410D01*
G01X2259370Y-4079410D02*
G01X2239850Y-4079410D01*
G01X2239850Y-4079410D02*
G01X2239850Y-4059890D01*
G01X2244720Y-4059890D02*
G01X2244720Y-4079410D01*
G01X2249590Y-4079410D02*
G01X2249590Y-4059890D01*
G01X2254460Y-4059890D02*
G01X2254460Y-4079410D01*
G01X2259330Y-4079410D02*
G01X2259330Y-4059890D01*
G01X2322530Y-4040040D02*
G01X2342050Y-4040040D01*
G01X2322530Y-4040040D02*
G01X2322530Y-4020520D01*
G01X2322530Y-4020520D02*
G01X2342050Y-4020520D01*
G01X2342050Y-4020520D02*
G01X2342050Y-4040040D01*
G01X2327400Y-4040040D02*
G01X2327400Y-4020520D01*
G01X2332270Y-4020520D02*
G01X2332270Y-4040040D01*
G01X2337140Y-4040040D02*
G01X2337140Y-4020520D01*
G01X2342010Y-4020520D02*
G01X2342010Y-4040040D01*
G01X2357960Y-4040040D02*
G01X2377480Y-4040040D01*
G01X2357960Y-4040040D02*
G01X2357960Y-4020520D01*
G01X2357960Y-4020520D02*
G01X2377480Y-4020520D01*
G01X2377480Y-4020520D02*
G01X2377480Y-4040040D01*
G01X2362830Y-4040040D02*
G01X2362830Y-4020520D01*
G01X2367700Y-4020520D02*
G01X2367700Y-4040040D01*
G01X2372570Y-4040040D02*
G01X2372570Y-4020520D01*
G01X2377440Y-4020520D02*
G01X2377440Y-4040040D01*
G01X2377480Y-4167990D02*
G01X2357960Y-4167990D01*
G01X2357960Y-4167990D02*
G01X2357960Y-4148470D01*
G01X2357960Y-4148470D02*
G01X2377480Y-4148470D01*
G01X2377480Y-4148470D02*
G01X2377480Y-4167990D01*
G01X2362830Y-4167990D02*
G01X2362830Y-4148470D01*
G01X2367700Y-4148470D02*
G01X2367700Y-4167990D01*
G01X2372570Y-4167990D02*
G01X2372570Y-4148470D01*
G01X2377440Y-4148470D02*
G01X2377440Y-4167990D01*
G01X2342050Y-4167990D02*
G01X2322530Y-4167990D01*
G01X2322530Y-4167990D02*
G01X2322530Y-4148470D01*
G01X2322530Y-4148470D02*
G01X2342050Y-4148470D01*
G01X2342050Y-4148470D02*
G01X2342050Y-4167990D01*
G01X2327400Y-4167990D02*
G01X2327400Y-4148470D01*
G01X2332270Y-4148470D02*
G01X2332270Y-4167990D01*
G01X2337140Y-4167990D02*
G01X2337140Y-4148470D01*
G01X2342010Y-4148470D02*
G01X2342010Y-4167990D01*
G01X2259370Y-4213260D02*
G01X2239850Y-4213260D01*
G01X2239850Y-4213260D02*
G01X2239850Y-4193740D01*
G01X2239850Y-4193740D02*
G01X2259370Y-4193740D01*
G01X2259370Y-4193740D02*
G01X2259370Y-4213260D01*
G01X2244720Y-4213260D02*
G01X2244720Y-4193740D01*
G01X2249590Y-4193740D02*
G01X2249590Y-4213260D01*
G01X2254460Y-4213260D02*
G01X2254460Y-4193740D01*
G01X2259330Y-4193740D02*
G01X2259330Y-4213260D01*
G01X2223940Y-4213260D02*
G01X2204420Y-4213260D01*
G01X2204420Y-4213260D02*
G01X2204420Y-4193740D01*
G01X2204420Y-4193740D02*
G01X2223940Y-4193740D01*
G01X2223940Y-4193740D02*
G01X2223940Y-4213260D01*
G01X2209290Y-4213260D02*
G01X2209290Y-4193740D01*
G01X2214160Y-4193740D02*
G01X2214160Y-4213260D01*
G01X2219030Y-4213260D02*
G01X2219030Y-4193740D01*
G01X2223900Y-4193740D02*
G01X2223900Y-4213260D01*
G01X2322530Y-4394370D02*
G01X2342050Y-4394370D01*
G01X2322530Y-4394370D02*
G01X2322530Y-4374850D01*
G01X2322530Y-4374850D02*
G01X2342050Y-4374850D01*
G01X2342050Y-4374850D02*
G01X2342050Y-4394370D01*
G01X2327400Y-4394370D02*
G01X2327400Y-4374850D01*
G01X2332270Y-4374850D02*
G01X2332270Y-4394370D01*
G01X2337140Y-4394370D02*
G01X2337140Y-4374850D01*
G01X2342010Y-4374850D02*
G01X2342010Y-4394370D01*
G01X2357960Y-4394370D02*
G01X2377480Y-4394370D01*
G01X2357960Y-4394370D02*
G01X2357960Y-4374850D01*
G01X2357960Y-4374850D02*
G01X2377480Y-4374850D01*
G01X2377480Y-4374850D02*
G01X2377480Y-4394370D01*
G01X2362830Y-4394370D02*
G01X2362830Y-4374850D01*
G01X2367700Y-4374850D02*
G01X2367700Y-4394370D01*
G01X2372570Y-4394370D02*
G01X2372570Y-4374850D01*
G01X2377440Y-4374850D02*
G01X2377440Y-4394370D01*
G01X2198510Y-4459490D02*
G01X2198510Y-4479010D01*
G01X2198510Y-4459490D02*
G01X2218030Y-4459490D01*
G01X2218030Y-4459490D02*
G01X2218030Y-4479010D01*
G01X2218030Y-4479010D02*
G01X2198510Y-4479010D01*
G01X2203380Y-4479010D02*
G01X2203380Y-4459490D01*
G01X2208250Y-4459490D02*
G01X2208250Y-4479010D01*
G01X2213120Y-4479010D02*
G01X2213120Y-4459490D01*
G01X2217990Y-4459490D02*
G01X2217990Y-4479010D01*
G01X2198510Y-4494930D02*
G01X2198510Y-4514450D01*
G01X2198510Y-4494930D02*
G01X2218030Y-4494930D01*
G01X2218030Y-4494930D02*
G01X2218030Y-4514450D01*
G01X2218030Y-4514450D02*
G01X2198510Y-4514450D01*
G01X2203380Y-4514450D02*
G01X2203380Y-4494930D01*
G01X2208250Y-4494930D02*
G01X2208250Y-4514450D01*
G01X2213120Y-4514450D02*
G01X2213120Y-4494930D01*
G01X2217990Y-4494930D02*
G01X2217990Y-4514450D01*
G01X2060720Y-4514450D02*
G01X2060720Y-4494930D01*
G01X2060720Y-4494930D02*
G01X2080240Y-4494930D01*
G01X2080240Y-4494930D02*
G01X2080240Y-4514450D01*
G01X2080240Y-4514450D02*
G01X2060720Y-4514450D01*
G01X2065590Y-4514450D02*
G01X2065590Y-4494930D01*
G01X2070460Y-4494930D02*
G01X2070460Y-4514450D01*
G01X2075330Y-4514450D02*
G01X2075330Y-4494930D01*
G01X2080200Y-4494930D02*
G01X2080200Y-4514450D01*
G01X2060720Y-4479010D02*
G01X2060720Y-4459490D01*
G01X2060720Y-4459490D02*
G01X2080240Y-4459490D01*
G01X2080240Y-4459490D02*
G01X2080240Y-4479010D01*
G01X2080240Y-4479010D02*
G01X2060720Y-4479010D01*
G01X2065590Y-4479010D02*
G01X2065590Y-4459490D01*
G01X2070460Y-4459490D02*
G01X2070460Y-4479010D01*
G01X2075330Y-4479010D02*
G01X2075330Y-4459490D01*
G01X2080200Y-4459490D02*
G01X2080200Y-4479010D01*
G01X1942610Y-4479010D02*
G01X1942610Y-4459490D01*
G01X1942610Y-4459490D02*
G01X1962130Y-4459490D01*
G01X1962130Y-4459490D02*
G01X1962130Y-4479010D01*
G01X1962130Y-4479010D02*
G01X1942610Y-4479010D01*
G01X1947480Y-4479010D02*
G01X1947480Y-4459490D01*
G01X1952350Y-4459490D02*
G01X1952350Y-4479010D01*
G01X1957220Y-4479010D02*
G01X1957220Y-4459490D01*
G01X1962090Y-4459490D02*
G01X1962090Y-4479010D01*
G01X1942610Y-4494930D02*
G01X1942610Y-4514450D01*
G01X1942610Y-4494930D02*
G01X1962130Y-4494930D01*
G01X1962130Y-4494930D02*
G01X1962130Y-4514450D01*
G01X1962130Y-4514450D02*
G01X1942610Y-4514450D01*
G01X1947480Y-4514450D02*
G01X1947480Y-4494930D01*
G01X1952350Y-4494930D02*
G01X1952350Y-4514450D01*
G01X1957220Y-4514450D02*
G01X1957220Y-4494930D01*
G01X1962090Y-4494930D02*
G01X1962090Y-4514450D01*
G01X1901110Y-4374680D02*
G01X1881590Y-4374680D01*
G01X1881590Y-4374680D02*
G01X1881590Y-4355160D01*
G01X1881590Y-4355160D02*
G01X1901110Y-4355160D01*
G01X1901110Y-4355160D02*
G01X1901110Y-4374680D01*
G01X1886460Y-4374680D02*
G01X1886460Y-4355160D01*
G01X1891330Y-4355160D02*
G01X1891330Y-4374680D01*
G01X1896200Y-4374680D02*
G01X1896200Y-4355160D01*
G01X1901070Y-4355160D02*
G01X1901070Y-4374680D01*
G01X1865670Y-4374680D02*
G01X1846150Y-4374680D01*
G01X1846150Y-4374680D02*
G01X1846150Y-4355160D01*
G01X1846150Y-4355160D02*
G01X1865670Y-4355160D01*
G01X1865670Y-4355160D02*
G01X1865670Y-4374680D01*
G01X1851020Y-4374680D02*
G01X1851020Y-4355160D01*
G01X1855890Y-4355160D02*
G01X1855890Y-4374680D01*
G01X1860760Y-4374680D02*
G01X1860760Y-4355160D01*
G01X1865630Y-4355160D02*
G01X1865630Y-4374680D01*
G01X1865670Y-4335310D02*
G01X1846150Y-4335310D01*
G01X1846150Y-4335310D02*
G01X1846150Y-4315790D01*
G01X1846150Y-4315790D02*
G01X1865670Y-4315790D01*
G01X1865670Y-4315790D02*
G01X1865670Y-4335310D01*
G01X1851020Y-4335310D02*
G01X1851020Y-4315790D01*
G01X1855890Y-4315790D02*
G01X1855890Y-4335310D01*
G01X1860760Y-4335310D02*
G01X1860760Y-4315790D01*
G01X1865630Y-4315790D02*
G01X1865630Y-4335310D01*
G01X1881590Y-4335310D02*
G01X1901110Y-4335310D01*
G01X1881590Y-4335310D02*
G01X1881590Y-4315790D01*
G01X1881590Y-4315790D02*
G01X1901110Y-4315790D01*
G01X1901110Y-4315790D02*
G01X1901110Y-4335310D01*
G01X1886460Y-4335310D02*
G01X1886460Y-4315790D01*
G01X1891330Y-4315790D02*
G01X1891330Y-4335310D01*
G01X1896200Y-4335310D02*
G01X1896200Y-4315790D01*
G01X1901070Y-4315790D02*
G01X1901070Y-4335310D01*
G01X1804810Y-4459490D02*
G01X1804810Y-4479010D01*
G01X1804810Y-4459490D02*
G01X1824330Y-4459490D01*
G01X1824330Y-4459490D02*
G01X1824330Y-4479010D01*
G01X1824330Y-4479010D02*
G01X1804810Y-4479010D01*
G01X1809680Y-4479010D02*
G01X1809680Y-4459490D01*
G01X1814550Y-4459490D02*
G01X1814550Y-4479010D01*
G01X1819420Y-4479010D02*
G01X1819420Y-4459490D01*
G01X1824290Y-4459490D02*
G01X1824290Y-4479010D01*
G01X1804810Y-4494930D02*
G01X1804810Y-4514450D01*
G01X1804810Y-4494930D02*
G01X1824330Y-4494930D01*
G01X1824330Y-4494930D02*
G01X1824330Y-4514450D01*
G01X1824330Y-4514450D02*
G01X1804810Y-4514450D01*
G01X1809680Y-4514450D02*
G01X1809680Y-4494930D01*
G01X1814550Y-4494930D02*
G01X1814550Y-4514450D01*
G01X1819420Y-4514450D02*
G01X1819420Y-4494930D01*
G01X1824290Y-4494930D02*
G01X1824290Y-4514450D01*
G01X1779060Y-4335480D02*
G01X1759540Y-4335480D01*
G01X1779060Y-4335480D02*
G01X1779060Y-4355000D01*
G01X1779060Y-4355000D02*
G01X1759540Y-4355000D01*
G01X1759540Y-4355000D02*
G01X1759540Y-4335480D01*
G01X1764410Y-4335480D02*
G01X1764410Y-4355000D01*
G01X1769280Y-4355000D02*
G01X1769280Y-4335480D01*
G01X1774150Y-4335480D02*
G01X1774150Y-4355000D01*
G01X1779020Y-4355000D02*
G01X1779020Y-4335480D01*
G01X1743620Y-4335480D02*
G01X1724100Y-4335480D01*
G01X1743620Y-4335480D02*
G01X1743620Y-4355000D01*
G01X1743620Y-4355000D02*
G01X1724100Y-4355000D01*
G01X1724100Y-4355000D02*
G01X1724100Y-4335480D01*
G01X1728970Y-4335480D02*
G01X1728970Y-4355000D01*
G01X1733840Y-4355000D02*
G01X1733840Y-4335480D01*
G01X1738710Y-4335480D02*
G01X1738710Y-4355000D01*
G01X1743580Y-4355000D02*
G01X1743580Y-4335480D01*
G01X1743620Y-4217370D02*
G01X1724100Y-4217370D01*
G01X1743620Y-4217370D02*
G01X1743620Y-4236890D01*
G01X1743620Y-4236890D02*
G01X1724100Y-4236890D01*
G01X1724100Y-4236890D02*
G01X1724100Y-4217370D01*
G01X1728970Y-4217370D02*
G01X1728970Y-4236890D01*
G01X1733840Y-4236890D02*
G01X1733840Y-4217370D01*
G01X1738710Y-4217370D02*
G01X1738710Y-4236890D01*
G01X1743580Y-4236890D02*
G01X1743580Y-4217370D01*
G01X1759540Y-4217370D02*
G01X1779060Y-4217370D01*
G01X1779060Y-4217370D02*
G01X1779060Y-4236890D01*
G01X1779060Y-4236890D02*
G01X1759540Y-4236890D01*
G01X1759540Y-4236890D02*
G01X1759540Y-4217370D01*
G01X1764410Y-4217370D02*
G01X1764410Y-4236890D01*
G01X1769280Y-4236890D02*
G01X1769280Y-4217370D01*
G01X1774150Y-4217370D02*
G01X1774150Y-4236890D01*
G01X1779020Y-4236890D02*
G01X1779020Y-4217370D01*
G01X1779060Y-3981150D02*
G01X1759540Y-3981150D01*
G01X1779060Y-3981150D02*
G01X1779060Y-4000670D01*
G01X1779060Y-4000670D02*
G01X1759540Y-4000670D01*
G01X1759540Y-4000670D02*
G01X1759540Y-3981150D01*
G01X1764410Y-3981150D02*
G01X1764410Y-4000670D01*
G01X1769280Y-4000670D02*
G01X1769280Y-3981150D01*
G01X1774150Y-3981150D02*
G01X1774150Y-4000670D01*
G01X1779020Y-4000670D02*
G01X1779020Y-3981150D01*
G01X1743620Y-3981150D02*
G01X1724100Y-3981150D01*
G01X1743620Y-3981150D02*
G01X1743620Y-4000670D01*
G01X1743620Y-4000670D02*
G01X1724100Y-4000670D01*
G01X1724100Y-4000670D02*
G01X1724100Y-3981150D01*
G01X1728970Y-3981150D02*
G01X1728970Y-4000670D01*
G01X1733840Y-4000670D02*
G01X1733840Y-3981150D01*
G01X1738710Y-3981150D02*
G01X1738710Y-4000670D01*
G01X1743580Y-4000670D02*
G01X1743580Y-3981150D01*
G01X1824330Y-3916020D02*
G01X1824330Y-3896500D01*
G01X1824330Y-3916020D02*
G01X1804810Y-3916020D01*
G01X1804810Y-3916020D02*
G01X1804810Y-3896500D01*
G01X1804810Y-3896500D02*
G01X1824330Y-3896500D01*
G01X1809680Y-3896500D02*
G01X1809680Y-3916020D01*
G01X1814550Y-3916020D02*
G01X1814550Y-3896500D01*
G01X1819420Y-3896500D02*
G01X1819420Y-3916020D01*
G01X1824290Y-3916020D02*
G01X1824290Y-3896500D01*
G01X1824330Y-3880590D02*
G01X1824330Y-3861070D01*
G01X1824330Y-3880590D02*
G01X1804810Y-3880590D01*
G01X1804810Y-3880590D02*
G01X1804810Y-3861070D01*
G01X1804810Y-3861070D02*
G01X1824330Y-3861070D01*
G01X1809680Y-3861070D02*
G01X1809680Y-3880590D01*
G01X1814550Y-3880590D02*
G01X1814550Y-3861070D01*
G01X1819420Y-3861070D02*
G01X1819420Y-3880590D01*
G01X1824290Y-3880590D02*
G01X1824290Y-3861070D01*
G01X2023320Y-4654570D02*
G01X2042840Y-4654570D01*
G01X2042840Y-4654570D02*
G01X2042840Y-4674090D01*
G01X2042840Y-4674090D02*
G01X2023320Y-4674090D01*
G01X2023320Y-4674090D02*
G01X2023320Y-4654570D01*
G01X2028190Y-4654570D02*
G01X2028190Y-4674090D01*
G01X2033060Y-4674090D02*
G01X2033060Y-4654570D01*
G01X2037930Y-4654570D02*
G01X2037930Y-4674090D01*
G01X2042800Y-4674090D02*
G01X2042800Y-4654570D01*
G01X2058750Y-4654570D02*
G01X2078270Y-4654570D01*
G01X2078270Y-4654570D02*
G01X2078270Y-4674090D01*
G01X2078270Y-4674090D02*
G01X2058750Y-4674090D01*
G01X2058750Y-4674090D02*
G01X2058750Y-4654570D01*
G01X2063620Y-4654570D02*
G01X2063620Y-4674090D01*
G01X2068490Y-4674090D02*
G01X2068490Y-4654570D01*
G01X2073360Y-4654570D02*
G01X2073360Y-4674090D01*
G01X2078230Y-4674090D02*
G01X2078230Y-4654570D01*
G01X2078270Y-4704570D02*
G01X2058750Y-4704570D01*
G01X2078270Y-4704570D02*
G01X2078270Y-4724090D01*
G01X2078270Y-4724090D02*
G01X2058750Y-4724090D01*
G01X2058750Y-4724090D02*
G01X2058750Y-4704570D01*
G01X2063620Y-4704570D02*
G01X2063620Y-4724090D01*
G01X2068490Y-4724090D02*
G01X2068490Y-4704570D01*
G01X2073360Y-4704570D02*
G01X2073360Y-4724090D01*
G01X2078230Y-4724090D02*
G01X2078230Y-4704570D01*
G01X2042840Y-4704570D02*
G01X2023320Y-4704570D01*
G01X2042840Y-4704570D02*
G01X2042840Y-4724090D01*
G01X2042840Y-4724090D02*
G01X2023320Y-4724090D01*
G01X2023320Y-4724090D02*
G01X2023320Y-4704570D01*
G01X2028190Y-4704570D02*
G01X2028190Y-4724090D01*
G01X2033060Y-4724090D02*
G01X2033060Y-4704570D01*
G01X2037930Y-4704570D02*
G01X2037930Y-4724090D01*
G01X2042800Y-4724090D02*
G01X2042800Y-4704570D01*
G01X2042840Y-4774090D02*
G01X2023320Y-4774090D01*
G01X2023320Y-4774090D02*
G01X2023320Y-4754570D01*
G01X2023320Y-4754570D02*
G01X2042840Y-4754570D01*
G01X2042840Y-4754570D02*
G01X2042840Y-4774090D01*
G01X2028190Y-4774090D02*
G01X2028190Y-4754570D01*
G01X2033060Y-4754570D02*
G01X2033060Y-4774090D01*
G01X2037930Y-4774090D02*
G01X2037930Y-4754570D01*
G01X2042800Y-4754570D02*
G01X2042800Y-4774090D01*
G01X2058750Y-4774090D02*
G01X2078270Y-4774090D01*
G01X2058750Y-4774090D02*
G01X2058750Y-4754570D01*
G01X2058750Y-4754570D02*
G01X2078270Y-4754570D01*
G01X2078270Y-4754570D02*
G01X2078270Y-4774090D01*
G01X2063620Y-4774090D02*
G01X2063620Y-4754570D01*
G01X2068490Y-4754570D02*
G01X2068490Y-4774090D01*
G01X2073360Y-4774090D02*
G01X2073360Y-4754570D01*
G01X2078230Y-4754570D02*
G01X2078230Y-4774090D01*
G01X2078270Y-4824090D02*
G01X2058750Y-4824090D01*
G01X2058750Y-4824090D02*
G01X2058750Y-4804570D01*
G01X2058750Y-4804570D02*
G01X2078270Y-4804570D01*
G01X2078270Y-4804570D02*
G01X2078270Y-4824090D01*
G01X2063620Y-4824090D02*
G01X2063620Y-4804570D01*
G01X2068490Y-4804570D02*
G01X2068490Y-4824090D01*
G01X2073360Y-4824090D02*
G01X2073360Y-4804570D01*
G01X2078230Y-4804570D02*
G01X2078230Y-4824090D01*
G01X2078270Y-4854570D02*
G01X2058750Y-4854570D01*
G01X2078270Y-4854570D02*
G01X2078270Y-4874090D01*
G01X2078270Y-4874090D02*
G01X2058750Y-4874090D01*
G01X2058750Y-4874090D02*
G01X2058750Y-4854570D01*
G01X2063620Y-4854570D02*
G01X2063620Y-4874090D01*
G01X2068490Y-4874090D02*
G01X2068490Y-4854570D01*
G01X2073360Y-4854570D02*
G01X2073360Y-4874090D01*
G01X2078230Y-4874090D02*
G01X2078230Y-4854570D01*
G01X2042840Y-4854570D02*
G01X2023320Y-4854570D01*
G01X2042840Y-4854570D02*
G01X2042840Y-4874090D01*
G01X2042840Y-4874090D02*
G01X2023320Y-4874090D01*
G01X2023320Y-4874090D02*
G01X2023320Y-4854570D01*
G01X2028190Y-4854570D02*
G01X2028190Y-4874090D01*
G01X2033060Y-4874090D02*
G01X2033060Y-4854570D01*
G01X2037930Y-4854570D02*
G01X2037930Y-4874090D01*
G01X2042800Y-4874090D02*
G01X2042800Y-4854570D01*
G01X2042840Y-4824090D02*
G01X2023320Y-4824090D01*
G01X2023320Y-4824090D02*
G01X2023320Y-4804570D01*
G01X2023320Y-4804570D02*
G01X2042840Y-4804570D01*
G01X2042840Y-4804570D02*
G01X2042840Y-4824090D01*
G01X2028190Y-4824090D02*
G01X2028190Y-4804570D01*
G01X2033060Y-4804570D02*
G01X2033060Y-4824090D01*
G01X2037930Y-4824090D02*
G01X2037930Y-4804570D01*
G01X2042800Y-4804570D02*
G01X2042800Y-4824090D01*
G01X2042840Y-4904570D02*
G01X2023320Y-4904570D01*
G01X2042840Y-4904570D02*
G01X2042840Y-4924090D01*
G01X2042840Y-4924090D02*
G01X2023320Y-4924090D01*
G01X2023320Y-4924090D02*
G01X2023320Y-4904570D01*
G01X2028190Y-4904570D02*
G01X2028190Y-4924090D01*
G01X2033060Y-4924090D02*
G01X2033060Y-4904570D01*
G01X2037930Y-4904570D02*
G01X2037930Y-4924090D01*
G01X2042800Y-4924090D02*
G01X2042800Y-4904570D01*
G01X2058750Y-4904570D02*
G01X2078270Y-4904570D01*
G01X2078270Y-4904570D02*
G01X2078270Y-4924090D01*
G01X2078270Y-4924090D02*
G01X2058750Y-4924090D01*
G01X2058750Y-4924090D02*
G01X2058750Y-4904570D01*
G01X2063620Y-4904570D02*
G01X2063620Y-4924090D01*
G01X2068490Y-4924090D02*
G01X2068490Y-4904570D01*
G01X2073360Y-4904570D02*
G01X2073360Y-4924090D01*
G01X2078230Y-4924090D02*
G01X2078230Y-4904570D01*
G54D11*
G01X2506700Y-3767280D02*
G01X2517720Y-3767280D01*
G01X2506700Y-3767280D02*
G01X2506700Y-3699180D01*
G01X2506700Y-3699180D02*
G01X2517720Y-3699180D01*
G01X2517720Y-3699180D02*
G01X2517720Y-3767280D01*
G01X2509450Y-3767280D02*
G01X2509450Y-3699180D01*
G01X2512200Y-3699180D02*
G01X2512200Y-3767280D01*
G01X2514950Y-3767280D02*
G01X2514950Y-3699180D01*
G01X2517700Y-3699180D02*
G01X2517700Y-3767280D01*
G01X2526390Y-3767280D02*
G01X2537410Y-3767280D01*
G01X2526390Y-3767280D02*
G01X2526390Y-3699180D01*
G01X2526390Y-3699180D02*
G01X2537410Y-3699180D01*
G01X2537410Y-3699180D02*
G01X2537410Y-3767280D01*
G01X2529140Y-3767280D02*
G01X2529140Y-3699180D01*
G01X2531890Y-3699180D02*
G01X2531890Y-3767280D01*
G01X2534640Y-3767280D02*
G01X2534640Y-3699180D01*
G01X2537390Y-3699180D02*
G01X2537390Y-3767280D01*
G01X2546070Y-3767280D02*
G01X2557090Y-3767280D01*
G01X2546070Y-3767280D02*
G01X2546070Y-3699180D01*
G01X2546070Y-3699180D02*
G01X2557090Y-3699180D01*
G01X2557090Y-3699180D02*
G01X2557090Y-3767280D01*
G01X2548820Y-3767280D02*
G01X2548820Y-3699180D01*
G01X2551570Y-3699180D02*
G01X2551570Y-3767280D01*
G01X2554320Y-3767280D02*
G01X2554320Y-3699180D01*
G01X2557070Y-3699180D02*
G01X2557070Y-3767280D01*
G01X2565760Y-3767280D02*
G01X2576780Y-3767280D01*
G01X2565760Y-3767280D02*
G01X2565760Y-3699180D01*
G01X2565760Y-3699180D02*
G01X2576780Y-3699180D01*
G01X2576780Y-3699180D02*
G01X2576780Y-3767280D01*
G01X2568510Y-3767280D02*
G01X2568510Y-3699180D01*
G01X2571260Y-3699180D02*
G01X2571260Y-3767280D01*
G01X2574010Y-3767280D02*
G01X2574010Y-3699180D01*
G01X2576760Y-3699180D02*
G01X2576760Y-3767280D01*
G01X2585440Y-3767280D02*
G01X2596460Y-3767280D01*
G01X2585440Y-3767280D02*
G01X2585440Y-3699180D01*
G01X2585440Y-3699180D02*
G01X2596460Y-3699180D01*
G01X2596460Y-3699180D02*
G01X2596460Y-3767280D01*
G01X2588190Y-3767280D02*
G01X2588190Y-3699180D01*
G01X2590940Y-3699180D02*
G01X2590940Y-3767280D01*
G01X2593690Y-3767280D02*
G01X2593690Y-3699180D01*
G01X2596440Y-3699180D02*
G01X2596440Y-3767280D01*
G01X2605130Y-3767280D02*
G01X2616150Y-3767280D01*
G01X2605130Y-3767280D02*
G01X2605130Y-3699180D01*
G01X2605130Y-3699180D02*
G01X2616150Y-3699180D01*
G01X2616150Y-3699180D02*
G01X2616150Y-3767280D01*
G01X2607880Y-3767280D02*
G01X2607880Y-3699180D01*
G01X2610630Y-3699180D02*
G01X2610630Y-3767280D01*
G01X2613380Y-3767280D02*
G01X2613380Y-3699180D01*
G01X2616130Y-3699180D02*
G01X2616130Y-3767280D01*
G01X2624810Y-3767280D02*
G01X2635830Y-3767280D01*
G01X2624810Y-3767280D02*
G01X2624810Y-3699180D01*
G01X2624810Y-3699180D02*
G01X2635830Y-3699180D01*
G01X2635830Y-3699180D02*
G01X2635830Y-3767280D01*
G01X2627560Y-3767280D02*
G01X2627560Y-3699180D01*
G01X2630310Y-3699180D02*
G01X2630310Y-3767280D01*
G01X2633060Y-3767280D02*
G01X2633060Y-3699180D01*
G01X2635810Y-3699180D02*
G01X2635810Y-3767280D01*
G01X2644500Y-3767280D02*
G01X2655520Y-3767280D01*
G01X2644500Y-3767280D02*
G01X2644500Y-3699180D01*
G01X2644500Y-3699180D02*
G01X2655520Y-3699180D01*
G01X2655520Y-3699180D02*
G01X2655520Y-3767280D01*
G01X2647250Y-3767280D02*
G01X2647250Y-3699180D01*
G01X2650000Y-3699180D02*
G01X2650000Y-3767280D01*
G01X2652750Y-3767280D02*
G01X2652750Y-3699180D01*
G01X2655500Y-3699180D02*
G01X2655500Y-3767280D01*
G01X2664180Y-3767280D02*
G01X2675200Y-3767280D01*
G01X2664180Y-3767280D02*
G01X2664180Y-3699180D01*
G01X2664180Y-3699180D02*
G01X2675200Y-3699180D01*
G01X2675200Y-3699180D02*
G01X2675200Y-3767280D01*
G01X2666930Y-3767280D02*
G01X2666930Y-3699180D01*
G01X2669680Y-3699180D02*
G01X2669680Y-3767280D01*
G01X2672430Y-3767280D02*
G01X2672430Y-3699180D01*
G01X2675180Y-3699180D02*
G01X2675180Y-3767280D01*
G01X2683870Y-3767280D02*
G01X2694890Y-3767280D01*
G01X2683870Y-3767280D02*
G01X2683870Y-3699180D01*
G01X2683870Y-3699180D02*
G01X2694890Y-3699180D01*
G01X2694890Y-3699180D02*
G01X2694890Y-3767280D01*
G01X2686620Y-3767280D02*
G01X2686620Y-3699180D01*
G01X2689370Y-3699180D02*
G01X2689370Y-3767280D01*
G01X2692120Y-3767280D02*
G01X2692120Y-3699180D01*
G01X2694870Y-3699180D02*
G01X2694870Y-3767280D01*
G01X2694890Y-3629480D02*
G01X2683870Y-3629480D01*
G01X2683870Y-3629480D02*
G01X2683870Y-3561380D01*
G01X2683870Y-3561380D02*
G01X2694890Y-3561380D01*
G01X2694890Y-3561380D02*
G01X2694890Y-3629480D01*
G01X2686620Y-3629480D02*
G01X2686620Y-3561380D01*
G01X2689370Y-3561380D02*
G01X2689370Y-3629480D01*
G01X2692120Y-3629480D02*
G01X2692120Y-3561380D01*
G01X2694870Y-3561380D02*
G01X2694870Y-3629480D01*
G01X2675200Y-3629480D02*
G01X2664180Y-3629480D01*
G01X2664180Y-3629480D02*
G01X2664180Y-3561380D01*
G01X2664180Y-3561380D02*
G01X2675200Y-3561380D01*
G01X2675200Y-3561380D02*
G01X2675200Y-3629480D01*
G01X2666930Y-3629480D02*
G01X2666930Y-3561380D01*
G01X2669680Y-3561380D02*
G01X2669680Y-3629480D01*
G01X2672430Y-3629480D02*
G01X2672430Y-3561380D01*
G01X2675180Y-3561380D02*
G01X2675180Y-3629480D01*
G01X2655520Y-3629480D02*
G01X2644500Y-3629480D01*
G01X2644500Y-3629480D02*
G01X2644500Y-3561380D01*
G01X2644500Y-3561380D02*
G01X2655520Y-3561380D01*
G01X2655520Y-3561380D02*
G01X2655520Y-3629480D01*
G01X2647250Y-3629480D02*
G01X2647250Y-3561380D01*
G01X2650000Y-3561380D02*
G01X2650000Y-3629480D01*
G01X2652750Y-3629480D02*
G01X2652750Y-3561380D01*
G01X2655500Y-3561380D02*
G01X2655500Y-3629480D01*
G01X2635830Y-3629480D02*
G01X2624810Y-3629480D01*
G01X2624810Y-3629480D02*
G01X2624810Y-3561380D01*
G01X2624810Y-3561380D02*
G01X2635830Y-3561380D01*
G01X2635830Y-3561380D02*
G01X2635830Y-3629480D01*
G01X2627560Y-3629480D02*
G01X2627560Y-3561380D01*
G01X2630310Y-3561380D02*
G01X2630310Y-3629480D01*
G01X2633060Y-3629480D02*
G01X2633060Y-3561380D01*
G01X2635810Y-3561380D02*
G01X2635810Y-3629480D01*
G01X2616150Y-3629480D02*
G01X2605130Y-3629480D01*
G01X2605130Y-3629480D02*
G01X2605130Y-3561380D01*
G01X2605130Y-3561380D02*
G01X2616150Y-3561380D01*
G01X2616150Y-3561380D02*
G01X2616150Y-3629480D01*
G01X2607880Y-3629480D02*
G01X2607880Y-3561380D01*
G01X2610630Y-3561380D02*
G01X2610630Y-3629480D01*
G01X2613380Y-3629480D02*
G01X2613380Y-3561380D01*
G01X2616130Y-3561380D02*
G01X2616130Y-3629480D01*
G01X2596460Y-3629480D02*
G01X2585440Y-3629480D01*
G01X2585440Y-3629480D02*
G01X2585440Y-3561380D01*
G01X2585440Y-3561380D02*
G01X2596460Y-3561380D01*
G01X2596460Y-3561380D02*
G01X2596460Y-3629480D01*
G01X2588190Y-3629480D02*
G01X2588190Y-3561380D01*
G01X2590940Y-3561380D02*
G01X2590940Y-3629480D01*
G01X2593690Y-3629480D02*
G01X2593690Y-3561380D01*
G01X2596440Y-3561380D02*
G01X2596440Y-3629480D01*
G01X2576780Y-3629480D02*
G01X2565760Y-3629480D01*
G01X2565760Y-3629480D02*
G01X2565760Y-3561380D01*
G01X2565760Y-3561380D02*
G01X2576780Y-3561380D01*
G01X2576780Y-3561380D02*
G01X2576780Y-3629480D01*
G01X2568510Y-3629480D02*
G01X2568510Y-3561380D01*
G01X2571260Y-3561380D02*
G01X2571260Y-3629480D01*
G01X2574010Y-3629480D02*
G01X2574010Y-3561380D01*
G01X2576760Y-3561380D02*
G01X2576760Y-3629480D01*
G01X2557090Y-3629480D02*
G01X2546070Y-3629480D01*
G01X2546070Y-3629480D02*
G01X2546070Y-3561380D01*
G01X2546070Y-3561380D02*
G01X2557090Y-3561380D01*
G01X2557090Y-3561380D02*
G01X2557090Y-3629480D01*
G01X2548820Y-3629480D02*
G01X2548820Y-3561380D01*
G01X2551570Y-3561380D02*
G01X2551570Y-3629480D01*
G01X2554320Y-3629480D02*
G01X2554320Y-3561380D01*
G01X2557070Y-3561380D02*
G01X2557070Y-3629480D01*
G01X2537410Y-3629480D02*
G01X2526390Y-3629480D01*
G01X2526390Y-3629480D02*
G01X2526390Y-3561380D01*
G01X2526390Y-3561380D02*
G01X2537410Y-3561380D01*
G01X2537410Y-3561380D02*
G01X2537410Y-3629480D01*
G01X2529140Y-3629480D02*
G01X2529140Y-3561380D01*
G01X2531890Y-3561380D02*
G01X2531890Y-3629480D01*
G01X2534640Y-3629480D02*
G01X2534640Y-3561380D01*
G01X2537390Y-3561380D02*
G01X2537390Y-3629480D01*
G01X2517720Y-3629480D02*
G01X2506700Y-3629480D01*
G01X2506700Y-3629480D02*
G01X2506700Y-3561380D01*
G01X2506700Y-3561380D02*
G01X2517720Y-3561380D01*
G01X2517720Y-3561380D02*
G01X2517720Y-3629480D01*
G01X2509450Y-3629480D02*
G01X2509450Y-3561380D01*
G01X2512200Y-3561380D02*
G01X2512200Y-3629480D01*
G01X2514950Y-3629480D02*
G01X2514950Y-3561380D01*
G01X2517700Y-3561380D02*
G01X2517700Y-3629480D01*
G01X1594890Y-1549180D02*
G01X1583870Y-1549180D01*
G01X1594890Y-1549180D02*
G01X1594890Y-1617280D01*
G01X1594890Y-1617280D02*
G01X1583870Y-1617280D01*
G01X1583870Y-1617280D02*
G01X1583870Y-1549180D01*
G01X1586620Y-1549180D02*
G01X1586620Y-1617280D01*
G01X1589370Y-1617280D02*
G01X1589370Y-1549180D01*
G01X1592120Y-1549180D02*
G01X1592120Y-1617280D01*
G01X1594870Y-1617280D02*
G01X1594870Y-1549180D01*
G01X1575200Y-1549180D02*
G01X1564180Y-1549180D01*
G01X1575200Y-1549180D02*
G01X1575200Y-1617280D01*
G01X1575200Y-1617280D02*
G01X1564180Y-1617280D01*
G01X1564180Y-1617280D02*
G01X1564180Y-1549180D01*
G01X1566930Y-1549180D02*
G01X1566930Y-1617280D01*
G01X1569680Y-1617280D02*
G01X1569680Y-1549180D01*
G01X1572430Y-1549180D02*
G01X1572430Y-1617280D01*
G01X1575180Y-1617280D02*
G01X1575180Y-1549180D01*
G01X1555520Y-1549180D02*
G01X1544500Y-1549180D01*
G01X1555520Y-1549180D02*
G01X1555520Y-1617280D01*
G01X1555520Y-1617280D02*
G01X1544500Y-1617280D01*
G01X1544500Y-1617280D02*
G01X1544500Y-1549180D01*
G01X1547250Y-1549180D02*
G01X1547250Y-1617280D01*
G01X1550000Y-1617280D02*
G01X1550000Y-1549180D01*
G01X1552750Y-1549180D02*
G01X1552750Y-1617280D01*
G01X1555500Y-1617280D02*
G01X1555500Y-1549180D01*
G01X1535830Y-1549180D02*
G01X1524810Y-1549180D01*
G01X1535830Y-1549180D02*
G01X1535830Y-1617280D01*
G01X1535830Y-1617280D02*
G01X1524810Y-1617280D01*
G01X1524810Y-1617280D02*
G01X1524810Y-1549180D01*
G01X1527560Y-1549180D02*
G01X1527560Y-1617280D01*
G01X1530310Y-1617280D02*
G01X1530310Y-1549180D01*
G01X1533060Y-1549180D02*
G01X1533060Y-1617280D01*
G01X1535810Y-1617280D02*
G01X1535810Y-1549180D01*
G01X1516150Y-1549180D02*
G01X1505130Y-1549180D01*
G01X1516150Y-1549180D02*
G01X1516150Y-1617280D01*
G01X1516150Y-1617280D02*
G01X1505130Y-1617280D01*
G01X1505130Y-1617280D02*
G01X1505130Y-1549180D01*
G01X1507880Y-1549180D02*
G01X1507880Y-1617280D01*
G01X1510630Y-1617280D02*
G01X1510630Y-1549180D01*
G01X1513380Y-1549180D02*
G01X1513380Y-1617280D01*
G01X1516130Y-1617280D02*
G01X1516130Y-1549180D01*
G01X1496460Y-1549180D02*
G01X1485440Y-1549180D01*
G01X1496460Y-1549180D02*
G01X1496460Y-1617280D01*
G01X1496460Y-1617280D02*
G01X1485440Y-1617280D01*
G01X1485440Y-1617280D02*
G01X1485440Y-1549180D01*
G01X1488190Y-1549180D02*
G01X1488190Y-1617280D01*
G01X1490940Y-1617280D02*
G01X1490940Y-1549180D01*
G01X1493690Y-1549180D02*
G01X1493690Y-1617280D01*
G01X1496440Y-1617280D02*
G01X1496440Y-1549180D01*
G01X1476780Y-1549180D02*
G01X1465760Y-1549180D01*
G01X1476780Y-1549180D02*
G01X1476780Y-1617280D01*
G01X1476780Y-1617280D02*
G01X1465760Y-1617280D01*
G01X1465760Y-1617280D02*
G01X1465760Y-1549180D01*
G01X1468510Y-1549180D02*
G01X1468510Y-1617280D01*
G01X1471260Y-1617280D02*
G01X1471260Y-1549180D01*
G01X1474010Y-1549180D02*
G01X1474010Y-1617280D01*
G01X1476760Y-1617280D02*
G01X1476760Y-1549180D01*
G01X1457090Y-1549180D02*
G01X1446070Y-1549180D01*
G01X1457090Y-1549180D02*
G01X1457090Y-1617280D01*
G01X1457090Y-1617280D02*
G01X1446070Y-1617280D01*
G01X1446070Y-1617280D02*
G01X1446070Y-1549180D01*
G01X1448820Y-1549180D02*
G01X1448820Y-1617280D01*
G01X1451570Y-1617280D02*
G01X1451570Y-1549180D01*
G01X1454320Y-1549180D02*
G01X1454320Y-1617280D01*
G01X1457070Y-1617280D02*
G01X1457070Y-1549180D01*
G01X1437410Y-1549180D02*
G01X1426390Y-1549180D01*
G01X1437410Y-1549180D02*
G01X1437410Y-1617280D01*
G01X1437410Y-1617280D02*
G01X1426390Y-1617280D01*
G01X1426390Y-1617280D02*
G01X1426390Y-1549180D01*
G01X1429140Y-1549180D02*
G01X1429140Y-1617280D01*
G01X1431890Y-1617280D02*
G01X1431890Y-1549180D01*
G01X1434640Y-1549180D02*
G01X1434640Y-1617280D01*
G01X1437390Y-1617280D02*
G01X1437390Y-1549180D01*
G01X1417720Y-1549180D02*
G01X1406700Y-1549180D01*
G01X1417720Y-1549180D02*
G01X1417720Y-1617280D01*
G01X1417720Y-1617280D02*
G01X1406700Y-1617280D01*
G01X1406700Y-1617280D02*
G01X1406700Y-1549180D01*
G01X1409450Y-1549180D02*
G01X1409450Y-1617280D01*
G01X1412200Y-1617280D02*
G01X1412200Y-1549180D01*
G01X1414950Y-1549180D02*
G01X1414950Y-1617280D01*
G01X1417700Y-1617280D02*
G01X1417700Y-1549180D01*
G01X1417720Y-1411380D02*
G01X1406700Y-1411380D01*
G01X1417720Y-1411380D02*
G01X1417720Y-1479480D01*
G01X1417720Y-1479480D02*
G01X1406700Y-1479480D01*
G01X1406700Y-1479480D02*
G01X1406700Y-1411380D01*
G01X1409450Y-1411380D02*
G01X1409450Y-1479480D01*
G01X1412200Y-1479480D02*
G01X1412200Y-1411380D01*
G01X1414950Y-1411380D02*
G01X1414950Y-1479480D01*
G01X1417700Y-1479480D02*
G01X1417700Y-1411380D01*
G01X1426390Y-1411380D02*
G01X1437410Y-1411380D01*
G01X1437410Y-1411380D02*
G01X1437410Y-1479480D01*
G01X1437410Y-1479480D02*
G01X1426390Y-1479480D01*
G01X1426390Y-1479480D02*
G01X1426390Y-1411380D01*
G01X1429140Y-1411380D02*
G01X1429140Y-1479480D01*
G01X1431890Y-1479480D02*
G01X1431890Y-1411380D01*
G01X1434640Y-1411380D02*
G01X1434640Y-1479480D01*
G01X1437390Y-1479480D02*
G01X1437390Y-1411380D01*
G01X1446070Y-1411380D02*
G01X1457090Y-1411380D01*
G01X1457090Y-1411380D02*
G01X1457090Y-1479480D01*
G01X1457090Y-1479480D02*
G01X1446070Y-1479480D01*
G01X1446070Y-1479480D02*
G01X1446070Y-1411380D01*
G01X1448820Y-1411380D02*
G01X1448820Y-1479480D01*
G01X1451570Y-1479480D02*
G01X1451570Y-1411380D01*
G01X1454320Y-1411380D02*
G01X1454320Y-1479480D01*
G01X1457070Y-1479480D02*
G01X1457070Y-1411380D01*
G01X1465760Y-1411380D02*
G01X1476780Y-1411380D01*
G01X1476780Y-1411380D02*
G01X1476780Y-1479480D01*
G01X1476780Y-1479480D02*
G01X1465760Y-1479480D01*
G01X1465760Y-1479480D02*
G01X1465760Y-1411380D01*
G01X1468510Y-1411380D02*
G01X1468510Y-1479480D01*
G01X1471260Y-1479480D02*
G01X1471260Y-1411380D01*
G01X1474010Y-1411380D02*
G01X1474010Y-1479480D01*
G01X1476760Y-1479480D02*
G01X1476760Y-1411380D01*
G01X1485440Y-1411380D02*
G01X1496460Y-1411380D01*
G01X1496460Y-1411380D02*
G01X1496460Y-1479480D01*
G01X1496460Y-1479480D02*
G01X1485440Y-1479480D01*
G01X1485440Y-1479480D02*
G01X1485440Y-1411380D01*
G01X1488190Y-1411380D02*
G01X1488190Y-1479480D01*
G01X1490940Y-1479480D02*
G01X1490940Y-1411380D01*
G01X1493690Y-1411380D02*
G01X1493690Y-1479480D01*
G01X1496440Y-1479480D02*
G01X1496440Y-1411380D01*
G01X1505130Y-1411380D02*
G01X1516150Y-1411380D01*
G01X1516150Y-1411380D02*
G01X1516150Y-1479480D01*
G01X1516150Y-1479480D02*
G01X1505130Y-1479480D01*
G01X1505130Y-1479480D02*
G01X1505130Y-1411380D01*
G01X1507880Y-1411380D02*
G01X1507880Y-1479480D01*
G01X1510630Y-1479480D02*
G01X1510630Y-1411380D01*
G01X1513380Y-1411380D02*
G01X1513380Y-1479480D01*
G01X1516130Y-1479480D02*
G01X1516130Y-1411380D01*
G01X1524810Y-1411380D02*
G01X1535830Y-1411380D01*
G01X1535830Y-1411380D02*
G01X1535830Y-1479480D01*
G01X1535830Y-1479480D02*
G01X1524810Y-1479480D01*
G01X1524810Y-1479480D02*
G01X1524810Y-1411380D01*
G01X1527560Y-1411380D02*
G01X1527560Y-1479480D01*
G01X1530310Y-1479480D02*
G01X1530310Y-1411380D01*
G01X1533060Y-1411380D02*
G01X1533060Y-1479480D01*
G01X1535810Y-1479480D02*
G01X1535810Y-1411380D01*
G01X1544500Y-1411380D02*
G01X1555520Y-1411380D01*
G01X1555520Y-1411380D02*
G01X1555520Y-1479480D01*
G01X1555520Y-1479480D02*
G01X1544500Y-1479480D01*
G01X1544500Y-1479480D02*
G01X1544500Y-1411380D01*
G01X1547250Y-1411380D02*
G01X1547250Y-1479480D01*
G01X1550000Y-1479480D02*
G01X1550000Y-1411380D01*
G01X1552750Y-1411380D02*
G01X1552750Y-1479480D01*
G01X1555500Y-1479480D02*
G01X1555500Y-1411380D01*
G01X1564180Y-1411380D02*
G01X1575200Y-1411380D01*
G01X1575200Y-1411380D02*
G01X1575200Y-1479480D01*
G01X1575200Y-1479480D02*
G01X1564180Y-1479480D01*
G01X1564180Y-1479480D02*
G01X1564180Y-1411380D01*
G01X1566930Y-1411380D02*
G01X1566930Y-1479480D01*
G01X1569680Y-1479480D02*
G01X1569680Y-1411380D01*
G01X1572430Y-1411380D02*
G01X1572430Y-1479480D01*
G01X1575180Y-1479480D02*
G01X1575180Y-1411380D01*
G01X1583870Y-1411380D02*
G01X1594890Y-1411380D01*
G01X1594890Y-1411380D02*
G01X1594890Y-1479480D01*
G01X1594890Y-1479480D02*
G01X1583870Y-1479480D01*
G01X1583870Y-1479480D02*
G01X1583870Y-1411380D01*
G01X1586620Y-1411380D02*
G01X1586620Y-1479480D01*
G01X1589370Y-1479480D02*
G01X1589370Y-1411380D01*
G01X1592120Y-1411380D02*
G01X1592120Y-1479480D01*
G01X1594870Y-1479480D02*
G01X1594870Y-1411380D01*
G54D12*
G01X1357880Y-1482050D02*
G01X1357880Y-1546610D01*
G01X1357880Y-1546610D02*
G01X1332680Y-1546610D01*
G01X1332680Y-1546610D02*
G01X1332680Y-1482050D01*
G01X1332680Y-1482050D02*
G01X1357880Y-1482050D01*
G01X1338970Y-1482050D02*
G01X1338970Y-1546610D01*
G01X1345260Y-1546610D02*
G01X1345260Y-1482050D01*
G01X1351550Y-1482050D02*
G01X1351550Y-1546610D01*
G01X1357840Y-1546610D02*
G01X1357840Y-1482050D01*
G01X1668910Y-1482050D02*
G01X1668910Y-1546610D01*
G01X1668910Y-1546610D02*
G01X1643710Y-1546610D01*
G01X1643710Y-1546610D02*
G01X1643710Y-1482050D01*
G01X1643710Y-1482050D02*
G01X1668910Y-1482050D01*
G01X1650000Y-1482050D02*
G01X1650000Y-1546610D01*
G01X1656290Y-1546610D02*
G01X1656290Y-1482050D01*
G01X1662580Y-1482050D02*
G01X1662580Y-1546610D01*
G01X1668870Y-1546610D02*
G01X1668870Y-1482050D01*
G01X2432680Y-3632050D02*
G01X2432680Y-3696610D01*
G01X2432680Y-3632050D02*
G01X2457880Y-3632050D01*
G01X2457880Y-3632050D02*
G01X2457880Y-3696610D01*
G01X2457880Y-3696610D02*
G01X2432680Y-3696610D01*
G01X2438970Y-3696610D02*
G01X2438970Y-3632050D01*
G01X2445260Y-3632050D02*
G01X2445260Y-3696610D01*
G01X2451550Y-3696610D02*
G01X2451550Y-3632050D01*
G01X2457840Y-3632050D02*
G01X2457840Y-3696610D01*
G01X2743710Y-3696610D02*
G01X2743710Y-3632050D01*
G01X2743710Y-3632050D02*
G01X2768910Y-3632050D01*
G01X2768910Y-3632050D02*
G01X2768910Y-3696610D01*
G01X2768910Y-3696610D02*
G01X2743710Y-3696610D01*
G01X2750000Y-3696610D02*
G01X2750000Y-3632050D01*
G01X2756290Y-3632050D02*
G01X2756290Y-3696610D01*
G01X2762580Y-3696610D02*
G01X2762580Y-3632050D01*
G01X2768870Y-3632050D02*
G01X2768870Y-3696610D01*
G54D13*
G01X2871160Y-824760D02*
G01X2871160Y-805080D01*
G01X2871160Y-824760D02*
G01X2855420Y-824760D01*
G01X2855420Y-824760D02*
G01X2855420Y-805080D01*
G01X2855420Y-805080D02*
G01X2871160Y-805080D01*
G01X2859350Y-805080D02*
G01X2859350Y-824760D01*
G01X2863280Y-824760D02*
G01X2863280Y-805080D01*
G01X2867210Y-805080D02*
G01X2867210Y-824760D01*
G01X2871140Y-824760D02*
G01X2871140Y-805080D01*
G01X2890850Y-773580D02*
G01X2890850Y-753900D01*
G01X2890850Y-773580D02*
G01X2875110Y-773580D01*
G01X2875110Y-773580D02*
G01X2875110Y-753900D01*
G01X2875110Y-753900D02*
G01X2890850Y-753900D01*
G01X2879040Y-753900D02*
G01X2879040Y-773580D01*
G01X2882970Y-773580D02*
G01X2882970Y-753900D01*
G01X2886900Y-753900D02*
G01X2886900Y-773580D01*
G01X2890830Y-773580D02*
G01X2890830Y-753900D01*
G01X2851480Y-753900D02*
G01X2851480Y-773580D01*
G01X2851480Y-773580D02*
G01X2835740Y-773580D01*
G01X2835740Y-773580D02*
G01X2835740Y-753900D01*
G01X2835740Y-753900D02*
G01X2851480Y-753900D01*
G01X2839670Y-753900D02*
G01X2839670Y-773580D01*
G01X2843600Y-773580D02*
G01X2843600Y-753900D01*
G01X2847530Y-753900D02*
G01X2847530Y-773580D01*
G01X2851460Y-773580D02*
G01X2851460Y-753900D01*
G54D14*
G01X2137610Y-940510D02*
G01X2137610Y-946810D01*
G01X2137610Y-946810D02*
G01X2113590Y-946810D01*
G01X2113590Y-946810D02*
G01X2113590Y-940510D01*
G01X2113590Y-940510D02*
G01X2137610Y-940510D01*
G01X2115150Y-940510D02*
G01X2115150Y-946810D01*
G01X2116710Y-946810D02*
G01X2116710Y-940510D01*
G01X2118270Y-940510D02*
G01X2118270Y-946810D01*
G01X2119830Y-946810D02*
G01X2119830Y-940510D01*
G01X2121390Y-940510D02*
G01X2121390Y-946810D01*
G01X2122950Y-946810D02*
G01X2122950Y-940510D01*
G01X2124510Y-940510D02*
G01X2124510Y-946810D01*
G01X2126070Y-946810D02*
G01X2126070Y-940510D01*
G01X2127630Y-940510D02*
G01X2127630Y-946810D01*
G01X2129190Y-946810D02*
G01X2129190Y-940510D01*
G01X2130750Y-940510D02*
G01X2130750Y-946810D01*
G01X2132310Y-946810D02*
G01X2132310Y-940510D01*
G01X2133870Y-940510D02*
G01X2133870Y-946810D01*
G01X2135430Y-946810D02*
G01X2135430Y-940510D01*
G01X2136990Y-940510D02*
G01X2136990Y-946810D01*
G01X2137610Y-956260D02*
G01X2137610Y-962560D01*
G01X2137610Y-962560D02*
G01X2113590Y-962560D01*
G01X2113590Y-962560D02*
G01X2113590Y-956260D01*
G01X2113590Y-956260D02*
G01X2137610Y-956260D01*
G01X2115150Y-956260D02*
G01X2115150Y-962560D01*
G01X2116710Y-962560D02*
G01X2116710Y-956260D01*
G01X2118270Y-956260D02*
G01X2118270Y-962560D01*
G01X2119830Y-962560D02*
G01X2119830Y-956260D01*
G01X2121390Y-956260D02*
G01X2121390Y-962560D01*
G01X2122950Y-962560D02*
G01X2122950Y-956260D01*
G01X2124510Y-956260D02*
G01X2124510Y-962560D01*
G01X2126070Y-962560D02*
G01X2126070Y-956260D01*
G01X2127630Y-956260D02*
G01X2127630Y-962560D01*
G01X2129190Y-962560D02*
G01X2129190Y-956260D01*
G01X2130750Y-956260D02*
G01X2130750Y-962560D01*
G01X2132310Y-962560D02*
G01X2132310Y-956260D01*
G01X2133870Y-956260D02*
G01X2133870Y-962560D01*
G01X2135430Y-962560D02*
G01X2135430Y-956260D01*
G01X2136990Y-956260D02*
G01X2136990Y-962560D01*
G01X2137610Y-972010D02*
G01X2137610Y-978310D01*
G01X2137610Y-978310D02*
G01X2113590Y-978310D01*
G01X2113590Y-978310D02*
G01X2113590Y-972010D01*
G01X2113590Y-972010D02*
G01X2137610Y-972010D01*
G01X2115150Y-972010D02*
G01X2115150Y-978310D01*
G01X2116710Y-978310D02*
G01X2116710Y-972010D01*
G01X2118270Y-972010D02*
G01X2118270Y-978310D01*
G01X2119830Y-978310D02*
G01X2119830Y-972010D01*
G01X2121390Y-972010D02*
G01X2121390Y-978310D01*
G01X2122950Y-978310D02*
G01X2122950Y-972010D01*
G01X2124510Y-972010D02*
G01X2124510Y-978310D01*
G01X2126070Y-978310D02*
G01X2126070Y-972010D01*
G01X2127630Y-972010D02*
G01X2127630Y-978310D01*
G01X2129190Y-978310D02*
G01X2129190Y-972010D01*
G01X2130750Y-972010D02*
G01X2130750Y-978310D01*
G01X2132310Y-978310D02*
G01X2132310Y-972010D01*
G01X2133870Y-972010D02*
G01X2133870Y-978310D01*
G01X2135430Y-978310D02*
G01X2135430Y-972010D01*
G01X2136990Y-972010D02*
G01X2136990Y-978310D01*
G01X2137610Y-987760D02*
G01X2137610Y-994060D01*
G01X2137610Y-994060D02*
G01X2113590Y-994060D01*
G01X2113590Y-994060D02*
G01X2113590Y-987760D01*
G01X2113590Y-987760D02*
G01X2137610Y-987760D01*
G01X2115150Y-987760D02*
G01X2115150Y-994060D01*
G01X2116710Y-994060D02*
G01X2116710Y-987760D01*
G01X2118270Y-987760D02*
G01X2118270Y-994060D01*
G01X2119830Y-994060D02*
G01X2119830Y-987760D01*
G01X2121390Y-987760D02*
G01X2121390Y-994060D01*
G01X2122950Y-994060D02*
G01X2122950Y-987760D01*
G01X2124510Y-987760D02*
G01X2124510Y-994060D01*
G01X2126070Y-994060D02*
G01X2126070Y-987760D01*
G01X2127630Y-987760D02*
G01X2127630Y-994060D01*
G01X2129190Y-994060D02*
G01X2129190Y-987760D01*
G01X2130750Y-987760D02*
G01X2130750Y-994060D01*
G01X2132310Y-994060D02*
G01X2132310Y-987760D01*
G01X2133870Y-987760D02*
G01X2133870Y-994060D01*
G01X2135430Y-994060D02*
G01X2135430Y-987760D01*
G01X2136990Y-987760D02*
G01X2136990Y-994060D01*
G01X2137610Y-1003500D02*
G01X2137610Y-1009800D01*
G01X2137610Y-1009800D02*
G01X2113590Y-1009800D01*
G01X2113590Y-1009800D02*
G01X2113590Y-1003500D01*
G01X2113590Y-1003500D02*
G01X2137610Y-1003500D01*
G01X2115150Y-1003500D02*
G01X2115150Y-1009800D01*
G01X2116710Y-1009800D02*
G01X2116710Y-1003500D01*
G01X2118270Y-1003500D02*
G01X2118270Y-1009800D01*
G01X2119830Y-1009800D02*
G01X2119830Y-1003500D01*
G01X2121390Y-1003500D02*
G01X2121390Y-1009800D01*
G01X2122950Y-1009800D02*
G01X2122950Y-1003500D01*
G01X2124510Y-1003500D02*
G01X2124510Y-1009800D01*
G01X2126070Y-1009800D02*
G01X2126070Y-1003500D01*
G01X2127630Y-1003500D02*
G01X2127630Y-1009800D01*
G01X2129190Y-1009800D02*
G01X2129190Y-1003500D01*
G01X2130750Y-1003500D02*
G01X2130750Y-1009800D01*
G01X2132310Y-1009800D02*
G01X2132310Y-1003500D01*
G01X2133870Y-1003500D02*
G01X2133870Y-1009800D01*
G01X2135430Y-1009800D02*
G01X2135430Y-1003500D01*
G01X2136990Y-1003500D02*
G01X2136990Y-1009800D01*
G01X2137610Y-1019250D02*
G01X2137610Y-1025550D01*
G01X2137610Y-1025550D02*
G01X2113590Y-1025550D01*
G01X2113590Y-1025550D02*
G01X2113590Y-1019250D01*
G01X2113590Y-1019250D02*
G01X2137610Y-1019250D01*
G01X2115150Y-1019250D02*
G01X2115150Y-1025550D01*
G01X2116710Y-1025550D02*
G01X2116710Y-1019250D01*
G01X2118270Y-1019250D02*
G01X2118270Y-1025550D01*
G01X2119830Y-1025550D02*
G01X2119830Y-1019250D01*
G01X2121390Y-1019250D02*
G01X2121390Y-1025550D01*
G01X2122950Y-1025550D02*
G01X2122950Y-1019250D01*
G01X2124510Y-1019250D02*
G01X2124510Y-1025550D01*
G01X2126070Y-1025550D02*
G01X2126070Y-1019250D01*
G01X2127630Y-1019250D02*
G01X2127630Y-1025550D01*
G01X2129190Y-1025550D02*
G01X2129190Y-1019250D01*
G01X2130750Y-1019250D02*
G01X2130750Y-1025550D01*
G01X2132310Y-1025550D02*
G01X2132310Y-1019250D01*
G01X2133870Y-1019250D02*
G01X2133870Y-1025550D01*
G01X2135430Y-1025550D02*
G01X2135430Y-1019250D01*
G01X2136990Y-1019250D02*
G01X2136990Y-1025550D01*
G01X2137610Y-1035000D02*
G01X2137610Y-1041300D01*
G01X2137610Y-1041300D02*
G01X2113590Y-1041300D01*
G01X2113590Y-1041300D02*
G01X2113590Y-1035000D01*
G01X2113590Y-1035000D02*
G01X2137610Y-1035000D01*
G01X2115150Y-1035000D02*
G01X2115150Y-1041300D01*
G01X2116710Y-1041300D02*
G01X2116710Y-1035000D01*
G01X2118270Y-1035000D02*
G01X2118270Y-1041300D01*
G01X2119830Y-1041300D02*
G01X2119830Y-1035000D01*
G01X2121390Y-1035000D02*
G01X2121390Y-1041300D01*
G01X2122950Y-1041300D02*
G01X2122950Y-1035000D01*
G01X2124510Y-1035000D02*
G01X2124510Y-1041300D01*
G01X2126070Y-1041300D02*
G01X2126070Y-1035000D01*
G01X2127630Y-1035000D02*
G01X2127630Y-1041300D01*
G01X2129190Y-1041300D02*
G01X2129190Y-1035000D01*
G01X2130750Y-1035000D02*
G01X2130750Y-1041300D01*
G01X2132310Y-1041300D02*
G01X2132310Y-1035000D01*
G01X2133870Y-1035000D02*
G01X2133870Y-1041300D01*
G01X2135430Y-1041300D02*
G01X2135430Y-1035000D01*
G01X2136990Y-1035000D02*
G01X2136990Y-1041300D01*
G01X2101190Y-1077720D02*
G01X2094890Y-1077720D01*
G01X2094890Y-1077720D02*
G01X2094890Y-1053700D01*
G01X2094890Y-1053700D02*
G01X2101190Y-1053700D01*
G01X2101190Y-1053700D02*
G01X2101190Y-1077720D01*
G01X2096450Y-1077720D02*
G01X2096450Y-1053700D01*
G01X2098010Y-1053700D02*
G01X2098010Y-1077720D01*
G01X2099570Y-1077720D02*
G01X2099570Y-1053700D01*
G01X2101130Y-1053700D02*
G01X2101130Y-1077720D01*
G01X2085440Y-1077720D02*
G01X2079140Y-1077720D01*
G01X2079140Y-1077720D02*
G01X2079140Y-1053700D01*
G01X2079140Y-1053700D02*
G01X2085440Y-1053700D01*
G01X2085440Y-1053700D02*
G01X2085440Y-1077720D01*
G01X2080700Y-1077720D02*
G01X2080700Y-1053700D01*
G01X2082260Y-1053700D02*
G01X2082260Y-1077720D01*
G01X2083820Y-1077720D02*
G01X2083820Y-1053700D01*
G01X2085380Y-1053700D02*
G01X2085380Y-1077720D01*
G01X2069690Y-1077720D02*
G01X2063390Y-1077720D01*
G01X2063390Y-1077720D02*
G01X2063390Y-1053700D01*
G01X2063390Y-1053700D02*
G01X2069690Y-1053700D01*
G01X2069690Y-1053700D02*
G01X2069690Y-1077720D01*
G01X2064950Y-1077720D02*
G01X2064950Y-1053700D01*
G01X2066510Y-1053700D02*
G01X2066510Y-1077720D01*
G01X2068070Y-1077720D02*
G01X2068070Y-1053700D01*
G01X2069630Y-1053700D02*
G01X2069630Y-1077720D01*
G01X2053940Y-1077720D02*
G01X2047640Y-1077720D01*
G01X2047640Y-1077720D02*
G01X2047640Y-1053700D01*
G01X2047640Y-1053700D02*
G01X2053940Y-1053700D01*
G01X2053940Y-1053700D02*
G01X2053940Y-1077720D01*
G01X2049200Y-1077720D02*
G01X2049200Y-1053700D01*
G01X2050760Y-1053700D02*
G01X2050760Y-1077720D01*
G01X2052320Y-1077720D02*
G01X2052320Y-1053700D01*
G01X2053880Y-1053700D02*
G01X2053880Y-1077720D01*
G01X2038200Y-1077720D02*
G01X2031900Y-1077720D01*
G01X2031900Y-1077720D02*
G01X2031900Y-1053700D01*
G01X2031900Y-1053700D02*
G01X2038200Y-1053700D01*
G01X2038200Y-1053700D02*
G01X2038200Y-1077720D01*
G01X2033460Y-1077720D02*
G01X2033460Y-1053700D01*
G01X2035020Y-1053700D02*
G01X2035020Y-1077720D01*
G01X2036580Y-1077720D02*
G01X2036580Y-1053700D01*
G01X2038140Y-1053700D02*
G01X2038140Y-1077720D01*
G01X2022450Y-1077720D02*
G01X2016150Y-1077720D01*
G01X2016150Y-1077720D02*
G01X2016150Y-1053700D01*
G01X2016150Y-1053700D02*
G01X2022450Y-1053700D01*
G01X2022450Y-1053700D02*
G01X2022450Y-1077720D01*
G01X2017710Y-1077720D02*
G01X2017710Y-1053700D01*
G01X2019270Y-1053700D02*
G01X2019270Y-1077720D01*
G01X2020830Y-1077720D02*
G01X2020830Y-1053700D01*
G01X2022390Y-1053700D02*
G01X2022390Y-1077720D01*
G01X2006700Y-1077720D02*
G01X2000400Y-1077720D01*
G01X2000400Y-1077720D02*
G01X2000400Y-1053700D01*
G01X2000400Y-1053700D02*
G01X2006700Y-1053700D01*
G01X2006700Y-1053700D02*
G01X2006700Y-1077720D01*
G01X2001960Y-1077720D02*
G01X2001960Y-1053700D01*
G01X2003520Y-1053700D02*
G01X2003520Y-1077720D01*
G01X2005080Y-1077720D02*
G01X2005080Y-1053700D01*
G01X2006640Y-1053700D02*
G01X2006640Y-1077720D01*
G01X1988000Y-1041300D02*
G01X1988000Y-1035000D01*
G01X1988000Y-1041300D02*
G01X1963980Y-1041300D01*
G01X1963980Y-1041300D02*
G01X1963980Y-1035000D01*
G01X1963980Y-1035000D02*
G01X1988000Y-1035000D01*
G01X1965540Y-1035000D02*
G01X1965540Y-1041300D01*
G01X1967100Y-1041300D02*
G01X1967100Y-1035000D01*
G01X1968660Y-1035000D02*
G01X1968660Y-1041300D01*
G01X1970220Y-1041300D02*
G01X1970220Y-1035000D01*
G01X1971780Y-1035000D02*
G01X1971780Y-1041300D01*
G01X1973340Y-1041300D02*
G01X1973340Y-1035000D01*
G01X1974900Y-1035000D02*
G01X1974900Y-1041300D01*
G01X1976460Y-1041300D02*
G01X1976460Y-1035000D01*
G01X1978020Y-1035000D02*
G01X1978020Y-1041300D01*
G01X1979580Y-1041300D02*
G01X1979580Y-1035000D01*
G01X1981140Y-1035000D02*
G01X1981140Y-1041300D01*
G01X1982700Y-1041300D02*
G01X1982700Y-1035000D01*
G01X1984260Y-1035000D02*
G01X1984260Y-1041300D01*
G01X1985820Y-1041300D02*
G01X1985820Y-1035000D01*
G01X1987380Y-1035000D02*
G01X1987380Y-1041300D01*
G01X1988000Y-1025550D02*
G01X1988000Y-1019250D01*
G01X1988000Y-1025550D02*
G01X1963980Y-1025550D01*
G01X1963980Y-1025550D02*
G01X1963980Y-1019250D01*
G01X1963980Y-1019250D02*
G01X1988000Y-1019250D01*
G01X1965540Y-1019250D02*
G01X1965540Y-1025550D01*
G01X1967100Y-1025550D02*
G01X1967100Y-1019250D01*
G01X1968660Y-1019250D02*
G01X1968660Y-1025550D01*
G01X1970220Y-1025550D02*
G01X1970220Y-1019250D01*
G01X1971780Y-1019250D02*
G01X1971780Y-1025550D01*
G01X1973340Y-1025550D02*
G01X1973340Y-1019250D01*
G01X1974900Y-1019250D02*
G01X1974900Y-1025550D01*
G01X1976460Y-1025550D02*
G01X1976460Y-1019250D01*
G01X1978020Y-1019250D02*
G01X1978020Y-1025550D01*
G01X1979580Y-1025550D02*
G01X1979580Y-1019250D01*
G01X1981140Y-1019250D02*
G01X1981140Y-1025550D01*
G01X1982700Y-1025550D02*
G01X1982700Y-1019250D01*
G01X1984260Y-1019250D02*
G01X1984260Y-1025550D01*
G01X1985820Y-1025550D02*
G01X1985820Y-1019250D01*
G01X1987380Y-1019250D02*
G01X1987380Y-1025550D01*
G01X1988000Y-1009800D02*
G01X1988000Y-1003500D01*
G01X1988000Y-1009800D02*
G01X1963980Y-1009800D01*
G01X1963980Y-1009800D02*
G01X1963980Y-1003500D01*
G01X1963980Y-1003500D02*
G01X1988000Y-1003500D01*
G01X1965540Y-1003500D02*
G01X1965540Y-1009800D01*
G01X1967100Y-1009800D02*
G01X1967100Y-1003500D01*
G01X1968660Y-1003500D02*
G01X1968660Y-1009800D01*
G01X1970220Y-1009800D02*
G01X1970220Y-1003500D01*
G01X1971780Y-1003500D02*
G01X1971780Y-1009800D01*
G01X1973340Y-1009800D02*
G01X1973340Y-1003500D01*
G01X1974900Y-1003500D02*
G01X1974900Y-1009800D01*
G01X1976460Y-1009800D02*
G01X1976460Y-1003500D01*
G01X1978020Y-1003500D02*
G01X1978020Y-1009800D01*
G01X1979580Y-1009800D02*
G01X1979580Y-1003500D01*
G01X1981140Y-1003500D02*
G01X1981140Y-1009800D01*
G01X1982700Y-1009800D02*
G01X1982700Y-1003500D01*
G01X1984260Y-1003500D02*
G01X1984260Y-1009800D01*
G01X1985820Y-1009800D02*
G01X1985820Y-1003500D01*
G01X1987380Y-1003500D02*
G01X1987380Y-1009800D01*
G01X1988000Y-994060D02*
G01X1988000Y-987760D01*
G01X1988000Y-994060D02*
G01X1963980Y-994060D01*
G01X1963980Y-994060D02*
G01X1963980Y-987760D01*
G01X1963980Y-987760D02*
G01X1988000Y-987760D01*
G01X1965540Y-987760D02*
G01X1965540Y-994060D01*
G01X1967100Y-994060D02*
G01X1967100Y-987760D01*
G01X1968660Y-987760D02*
G01X1968660Y-994060D01*
G01X1970220Y-994060D02*
G01X1970220Y-987760D01*
G01X1971780Y-987760D02*
G01X1971780Y-994060D01*
G01X1973340Y-994060D02*
G01X1973340Y-987760D01*
G01X1974900Y-987760D02*
G01X1974900Y-994060D01*
G01X1976460Y-994060D02*
G01X1976460Y-987760D01*
G01X1978020Y-987760D02*
G01X1978020Y-994060D01*
G01X1979580Y-994060D02*
G01X1979580Y-987760D01*
G01X1981140Y-987760D02*
G01X1981140Y-994060D01*
G01X1982700Y-994060D02*
G01X1982700Y-987760D01*
G01X1984260Y-987760D02*
G01X1984260Y-994060D01*
G01X1985820Y-994060D02*
G01X1985820Y-987760D01*
G01X1987380Y-987760D02*
G01X1987380Y-994060D01*
G01X1988000Y-978310D02*
G01X1988000Y-972010D01*
G01X1988000Y-978310D02*
G01X1963980Y-978310D01*
G01X1963980Y-978310D02*
G01X1963980Y-972010D01*
G01X1963980Y-972010D02*
G01X1988000Y-972010D01*
G01X1965540Y-972010D02*
G01X1965540Y-978310D01*
G01X1967100Y-978310D02*
G01X1967100Y-972010D01*
G01X1968660Y-972010D02*
G01X1968660Y-978310D01*
G01X1970220Y-978310D02*
G01X1970220Y-972010D01*
G01X1971780Y-972010D02*
G01X1971780Y-978310D01*
G01X1973340Y-978310D02*
G01X1973340Y-972010D01*
G01X1974900Y-972010D02*
G01X1974900Y-978310D01*
G01X1976460Y-978310D02*
G01X1976460Y-972010D01*
G01X1978020Y-972010D02*
G01X1978020Y-978310D01*
G01X1979580Y-978310D02*
G01X1979580Y-972010D01*
G01X1981140Y-972010D02*
G01X1981140Y-978310D01*
G01X1982700Y-978310D02*
G01X1982700Y-972010D01*
G01X1984260Y-972010D02*
G01X1984260Y-978310D01*
G01X1985820Y-978310D02*
G01X1985820Y-972010D01*
G01X1987380Y-972010D02*
G01X1987380Y-978310D01*
G01X1988000Y-962560D02*
G01X1988000Y-956260D01*
G01X1988000Y-962560D02*
G01X1963980Y-962560D01*
G01X1963980Y-962560D02*
G01X1963980Y-956260D01*
G01X1963980Y-956260D02*
G01X1988000Y-956260D01*
G01X1965540Y-956260D02*
G01X1965540Y-962560D01*
G01X1967100Y-962560D02*
G01X1967100Y-956260D01*
G01X1968660Y-956260D02*
G01X1968660Y-962560D01*
G01X1970220Y-962560D02*
G01X1970220Y-956260D01*
G01X1971780Y-956260D02*
G01X1971780Y-962560D01*
G01X1973340Y-962560D02*
G01X1973340Y-956260D01*
G01X1974900Y-956260D02*
G01X1974900Y-962560D01*
G01X1976460Y-962560D02*
G01X1976460Y-956260D01*
G01X1978020Y-956260D02*
G01X1978020Y-962560D01*
G01X1979580Y-962560D02*
G01X1979580Y-956260D01*
G01X1981140Y-956260D02*
G01X1981140Y-962560D01*
G01X1982700Y-962560D02*
G01X1982700Y-956260D01*
G01X1984260Y-956260D02*
G01X1984260Y-962560D01*
G01X1985820Y-962560D02*
G01X1985820Y-956260D01*
G01X1987380Y-956260D02*
G01X1987380Y-962560D01*
G01X1988000Y-946810D02*
G01X1988000Y-940510D01*
G01X1988000Y-946810D02*
G01X1963980Y-946810D01*
G01X1963980Y-946810D02*
G01X1963980Y-940510D01*
G01X1963980Y-940510D02*
G01X1988000Y-940510D01*
G01X1965540Y-940510D02*
G01X1965540Y-946810D01*
G01X1967100Y-946810D02*
G01X1967100Y-940510D01*
G01X1968660Y-940510D02*
G01X1968660Y-946810D01*
G01X1970220Y-946810D02*
G01X1970220Y-940510D01*
G01X1971780Y-940510D02*
G01X1971780Y-946810D01*
G01X1973340Y-946810D02*
G01X1973340Y-940510D01*
G01X1974900Y-940510D02*
G01X1974900Y-946810D01*
G01X1976460Y-946810D02*
G01X1976460Y-940510D01*
G01X1978020Y-940510D02*
G01X1978020Y-946810D01*
G01X1979580Y-946810D02*
G01X1979580Y-940510D01*
G01X1981140Y-940510D02*
G01X1981140Y-946810D01*
G01X1982700Y-946810D02*
G01X1982700Y-940510D01*
G01X1984260Y-940510D02*
G01X1984260Y-946810D01*
G01X1985820Y-946810D02*
G01X1985820Y-940510D01*
G01X1987380Y-940510D02*
G01X1987380Y-946810D01*
G01X2000400Y-928110D02*
G01X2006700Y-928110D01*
G01X2000400Y-928110D02*
G01X2000400Y-904090D01*
G01X2000400Y-904090D02*
G01X2006700Y-904090D01*
G01X2006700Y-904090D02*
G01X2006700Y-928110D01*
G01X2001960Y-928110D02*
G01X2001960Y-904090D01*
G01X2003520Y-904090D02*
G01X2003520Y-928110D01*
G01X2005080Y-928110D02*
G01X2005080Y-904090D01*
G01X2006640Y-904090D02*
G01X2006640Y-928110D01*
G01X2016150Y-928110D02*
G01X2022450Y-928110D01*
G01X2016150Y-928110D02*
G01X2016150Y-904090D01*
G01X2016150Y-904090D02*
G01X2022450Y-904090D01*
G01X2022450Y-904090D02*
G01X2022450Y-928110D01*
G01X2017710Y-928110D02*
G01X2017710Y-904090D01*
G01X2019270Y-904090D02*
G01X2019270Y-928110D01*
G01X2020830Y-928110D02*
G01X2020830Y-904090D01*
G01X2022390Y-904090D02*
G01X2022390Y-928110D01*
G01X2031900Y-928110D02*
G01X2038200Y-928110D01*
G01X2031900Y-928110D02*
G01X2031900Y-904090D01*
G01X2031900Y-904090D02*
G01X2038200Y-904090D01*
G01X2038200Y-904090D02*
G01X2038200Y-928110D01*
G01X2033460Y-928110D02*
G01X2033460Y-904090D01*
G01X2035020Y-904090D02*
G01X2035020Y-928110D01*
G01X2036580Y-928110D02*
G01X2036580Y-904090D01*
G01X2038140Y-904090D02*
G01X2038140Y-928110D01*
G01X2047640Y-928110D02*
G01X2053940Y-928110D01*
G01X2047640Y-928110D02*
G01X2047640Y-904090D01*
G01X2047640Y-904090D02*
G01X2053940Y-904090D01*
G01X2053940Y-904090D02*
G01X2053940Y-928110D01*
G01X2049200Y-928110D02*
G01X2049200Y-904090D01*
G01X2050760Y-904090D02*
G01X2050760Y-928110D01*
G01X2052320Y-928110D02*
G01X2052320Y-904090D01*
G01X2053880Y-904090D02*
G01X2053880Y-928110D01*
G01X2063390Y-928110D02*
G01X2069690Y-928110D01*
G01X2063390Y-928110D02*
G01X2063390Y-904090D01*
G01X2063390Y-904090D02*
G01X2069690Y-904090D01*
G01X2069690Y-904090D02*
G01X2069690Y-928110D01*
G01X2064950Y-928110D02*
G01X2064950Y-904090D01*
G01X2066510Y-904090D02*
G01X2066510Y-928110D01*
G01X2068070Y-928110D02*
G01X2068070Y-904090D01*
G01X2069630Y-904090D02*
G01X2069630Y-928110D01*
G01X2079140Y-928110D02*
G01X2085440Y-928110D01*
G01X2079140Y-928110D02*
G01X2079140Y-904090D01*
G01X2079140Y-904090D02*
G01X2085440Y-904090D01*
G01X2085440Y-904090D02*
G01X2085440Y-928110D01*
G01X2080700Y-928110D02*
G01X2080700Y-904090D01*
G01X2082260Y-904090D02*
G01X2082260Y-928110D01*
G01X2083820Y-928110D02*
G01X2083820Y-904090D01*
G01X2085380Y-904090D02*
G01X2085380Y-928110D01*
G01X2094890Y-928110D02*
G01X2101190Y-928110D01*
G01X2094890Y-928110D02*
G01X2094890Y-904090D01*
G01X2094890Y-904090D02*
G01X2101190Y-904090D01*
G01X2101190Y-904090D02*
G01X2101190Y-928110D01*
G01X2096450Y-928110D02*
G01X2096450Y-904090D01*
G01X2098010Y-904090D02*
G01X2098010Y-928110D01*
G01X2099570Y-928110D02*
G01X2099570Y-904090D01*
G01X2101130Y-904090D02*
G01X2101130Y-928110D01*
G01X2094890Y-4100940D02*
G01X2101190Y-4100940D01*
G01X2101190Y-4100940D02*
G01X2101190Y-4124960D01*
G01X2101190Y-4124960D02*
G01X2094890Y-4124960D01*
G01X2094890Y-4124960D02*
G01X2094890Y-4100940D01*
G01X2096450Y-4100940D02*
G01X2096450Y-4124960D01*
G01X2098010Y-4124960D02*
G01X2098010Y-4100940D01*
G01X2099570Y-4100940D02*
G01X2099570Y-4124960D01*
G01X2101130Y-4124960D02*
G01X2101130Y-4100940D01*
G01X2085440Y-4100940D02*
G01X2079140Y-4100940D01*
G01X2085440Y-4100940D02*
G01X2085440Y-4124960D01*
G01X2085440Y-4124960D02*
G01X2079140Y-4124960D01*
G01X2079140Y-4124960D02*
G01X2079140Y-4100940D01*
G01X2080700Y-4100940D02*
G01X2080700Y-4124960D01*
G01X2082260Y-4124960D02*
G01X2082260Y-4100940D01*
G01X2083820Y-4100940D02*
G01X2083820Y-4124960D01*
G01X2085380Y-4124960D02*
G01X2085380Y-4100940D01*
G01X2069690Y-4100940D02*
G01X2063390Y-4100940D01*
G01X2069690Y-4100940D02*
G01X2069690Y-4124960D01*
G01X2069690Y-4124960D02*
G01X2063390Y-4124960D01*
G01X2063390Y-4124960D02*
G01X2063390Y-4100940D01*
G01X2064950Y-4100940D02*
G01X2064950Y-4124960D01*
G01X2066510Y-4124960D02*
G01X2066510Y-4100940D01*
G01X2068070Y-4100940D02*
G01X2068070Y-4124960D01*
G01X2069630Y-4124960D02*
G01X2069630Y-4100940D01*
G01X2053940Y-4100940D02*
G01X2047640Y-4100940D01*
G01X2053940Y-4100940D02*
G01X2053940Y-4124960D01*
G01X2053940Y-4124960D02*
G01X2047640Y-4124960D01*
G01X2047640Y-4124960D02*
G01X2047640Y-4100940D01*
G01X2049200Y-4100940D02*
G01X2049200Y-4124960D01*
G01X2050760Y-4124960D02*
G01X2050760Y-4100940D01*
G01X2052320Y-4100940D02*
G01X2052320Y-4124960D01*
G01X2053880Y-4124960D02*
G01X2053880Y-4100940D01*
G01X2038200Y-4100940D02*
G01X2031900Y-4100940D01*
G01X2038200Y-4100940D02*
G01X2038200Y-4124960D01*
G01X2038200Y-4124960D02*
G01X2031900Y-4124960D01*
G01X2031900Y-4124960D02*
G01X2031900Y-4100940D01*
G01X2033460Y-4100940D02*
G01X2033460Y-4124960D01*
G01X2035020Y-4124960D02*
G01X2035020Y-4100940D01*
G01X2036580Y-4100940D02*
G01X2036580Y-4124960D01*
G01X2038140Y-4124960D02*
G01X2038140Y-4100940D01*
G01X2022450Y-4100940D02*
G01X2016150Y-4100940D01*
G01X2022450Y-4100940D02*
G01X2022450Y-4124960D01*
G01X2022450Y-4124960D02*
G01X2016150Y-4124960D01*
G01X2016150Y-4124960D02*
G01X2016150Y-4100940D01*
G01X2017710Y-4100940D02*
G01X2017710Y-4124960D01*
G01X2019270Y-4124960D02*
G01X2019270Y-4100940D01*
G01X2020830Y-4100940D02*
G01X2020830Y-4124960D01*
G01X2022390Y-4124960D02*
G01X2022390Y-4100940D01*
G01X2006700Y-4100940D02*
G01X2000400Y-4100940D01*
G01X2006700Y-4100940D02*
G01X2006700Y-4124960D01*
G01X2006700Y-4124960D02*
G01X2000400Y-4124960D01*
G01X2000400Y-4124960D02*
G01X2000400Y-4100940D01*
G01X2001960Y-4100940D02*
G01X2001960Y-4124960D01*
G01X2003520Y-4124960D02*
G01X2003520Y-4100940D01*
G01X2005080Y-4100940D02*
G01X2005080Y-4124960D01*
G01X2006640Y-4124960D02*
G01X2006640Y-4100940D01*
G01X1963980Y-4137360D02*
G01X1963980Y-4143660D01*
G01X1963980Y-4137360D02*
G01X1988000Y-4137360D01*
G01X1988000Y-4137360D02*
G01X1988000Y-4143660D01*
G01X1988000Y-4143660D02*
G01X1963980Y-4143660D01*
G01X1965540Y-4143660D02*
G01X1965540Y-4137360D01*
G01X1967100Y-4137360D02*
G01X1967100Y-4143660D01*
G01X1968660Y-4143660D02*
G01X1968660Y-4137360D01*
G01X1970220Y-4137360D02*
G01X1970220Y-4143660D01*
G01X1971780Y-4143660D02*
G01X1971780Y-4137360D01*
G01X1973340Y-4137360D02*
G01X1973340Y-4143660D01*
G01X1974900Y-4143660D02*
G01X1974900Y-4137360D01*
G01X1976460Y-4137360D02*
G01X1976460Y-4143660D01*
G01X1978020Y-4143660D02*
G01X1978020Y-4137360D01*
G01X1979580Y-4137360D02*
G01X1979580Y-4143660D01*
G01X1981140Y-4143660D02*
G01X1981140Y-4137360D01*
G01X1982700Y-4137360D02*
G01X1982700Y-4143660D01*
G01X1984260Y-4143660D02*
G01X1984260Y-4137360D01*
G01X1985820Y-4137360D02*
G01X1985820Y-4143660D01*
G01X1987380Y-4143660D02*
G01X1987380Y-4137360D01*
G01X1963980Y-4153110D02*
G01X1963980Y-4159410D01*
G01X1963980Y-4153110D02*
G01X1988000Y-4153110D01*
G01X1988000Y-4153110D02*
G01X1988000Y-4159410D01*
G01X1988000Y-4159410D02*
G01X1963980Y-4159410D01*
G01X1965540Y-4159410D02*
G01X1965540Y-4153110D01*
G01X1967100Y-4153110D02*
G01X1967100Y-4159410D01*
G01X1968660Y-4159410D02*
G01X1968660Y-4153110D01*
G01X1970220Y-4153110D02*
G01X1970220Y-4159410D01*
G01X1971780Y-4159410D02*
G01X1971780Y-4153110D01*
G01X1973340Y-4153110D02*
G01X1973340Y-4159410D01*
G01X1974900Y-4159410D02*
G01X1974900Y-4153110D01*
G01X1976460Y-4153110D02*
G01X1976460Y-4159410D01*
G01X1978020Y-4159410D02*
G01X1978020Y-4153110D01*
G01X1979580Y-4153110D02*
G01X1979580Y-4159410D01*
G01X1981140Y-4159410D02*
G01X1981140Y-4153110D01*
G01X1982700Y-4153110D02*
G01X1982700Y-4159410D01*
G01X1984260Y-4159410D02*
G01X1984260Y-4153110D01*
G01X1985820Y-4153110D02*
G01X1985820Y-4159410D01*
G01X1987380Y-4159410D02*
G01X1987380Y-4153110D01*
G01X1963980Y-4168860D02*
G01X1963980Y-4175160D01*
G01X1963980Y-4168860D02*
G01X1988000Y-4168860D01*
G01X1988000Y-4168860D02*
G01X1988000Y-4175160D01*
G01X1988000Y-4175160D02*
G01X1963980Y-4175160D01*
G01X1965540Y-4175160D02*
G01X1965540Y-4168860D01*
G01X1967100Y-4168860D02*
G01X1967100Y-4175160D01*
G01X1968660Y-4175160D02*
G01X1968660Y-4168860D01*
G01X1970220Y-4168860D02*
G01X1970220Y-4175160D01*
G01X1971780Y-4175160D02*
G01X1971780Y-4168860D01*
G01X1973340Y-4168860D02*
G01X1973340Y-4175160D01*
G01X1974900Y-4175160D02*
G01X1974900Y-4168860D01*
G01X1976460Y-4168860D02*
G01X1976460Y-4175160D01*
G01X1978020Y-4175160D02*
G01X1978020Y-4168860D01*
G01X1979580Y-4168860D02*
G01X1979580Y-4175160D01*
G01X1981140Y-4175160D02*
G01X1981140Y-4168860D01*
G01X1982700Y-4168860D02*
G01X1982700Y-4175160D01*
G01X1984260Y-4175160D02*
G01X1984260Y-4168860D01*
G01X1985820Y-4168860D02*
G01X1985820Y-4175160D01*
G01X1987380Y-4175160D02*
G01X1987380Y-4168860D01*
G01X1963980Y-4184610D02*
G01X1963980Y-4190910D01*
G01X1963980Y-4184610D02*
G01X1988000Y-4184610D01*
G01X1988000Y-4184610D02*
G01X1988000Y-4190910D01*
G01X1988000Y-4190910D02*
G01X1963980Y-4190910D01*
G01X1965540Y-4190910D02*
G01X1965540Y-4184610D01*
G01X1967100Y-4184610D02*
G01X1967100Y-4190910D01*
G01X1968660Y-4190910D02*
G01X1968660Y-4184610D01*
G01X1970220Y-4184610D02*
G01X1970220Y-4190910D01*
G01X1971780Y-4190910D02*
G01X1971780Y-4184610D01*
G01X1973340Y-4184610D02*
G01X1973340Y-4190910D01*
G01X1974900Y-4190910D02*
G01X1974900Y-4184610D01*
G01X1976460Y-4184610D02*
G01X1976460Y-4190910D01*
G01X1978020Y-4190910D02*
G01X1978020Y-4184610D01*
G01X1979580Y-4184610D02*
G01X1979580Y-4190910D01*
G01X1981140Y-4190910D02*
G01X1981140Y-4184610D01*
G01X1982700Y-4184610D02*
G01X1982700Y-4190910D01*
G01X1984260Y-4190910D02*
G01X1984260Y-4184610D01*
G01X1985820Y-4184610D02*
G01X1985820Y-4190910D01*
G01X1987380Y-4190910D02*
G01X1987380Y-4184610D01*
G01X1963980Y-4200350D02*
G01X1963980Y-4206650D01*
G01X1963980Y-4200350D02*
G01X1988000Y-4200350D01*
G01X1988000Y-4200350D02*
G01X1988000Y-4206650D01*
G01X1988000Y-4206650D02*
G01X1963980Y-4206650D01*
G01X1965540Y-4206650D02*
G01X1965540Y-4200350D01*
G01X1967100Y-4200350D02*
G01X1967100Y-4206650D01*
G01X1968660Y-4206650D02*
G01X1968660Y-4200350D01*
G01X1970220Y-4200350D02*
G01X1970220Y-4206650D01*
G01X1971780Y-4206650D02*
G01X1971780Y-4200350D01*
G01X1973340Y-4200350D02*
G01X1973340Y-4206650D01*
G01X1974900Y-4206650D02*
G01X1974900Y-4200350D01*
G01X1976460Y-4200350D02*
G01X1976460Y-4206650D01*
G01X1978020Y-4206650D02*
G01X1978020Y-4200350D01*
G01X1979580Y-4200350D02*
G01X1979580Y-4206650D01*
G01X1981140Y-4206650D02*
G01X1981140Y-4200350D01*
G01X1982700Y-4200350D02*
G01X1982700Y-4206650D01*
G01X1984260Y-4206650D02*
G01X1984260Y-4200350D01*
G01X1985820Y-4200350D02*
G01X1985820Y-4206650D01*
G01X1987380Y-4206650D02*
G01X1987380Y-4200350D01*
G01X1963980Y-4216100D02*
G01X1963980Y-4222400D01*
G01X1963980Y-4216100D02*
G01X1988000Y-4216100D01*
G01X1988000Y-4216100D02*
G01X1988000Y-4222400D01*
G01X1988000Y-4222400D02*
G01X1963980Y-4222400D01*
G01X1965540Y-4222400D02*
G01X1965540Y-4216100D01*
G01X1967100Y-4216100D02*
G01X1967100Y-4222400D01*
G01X1968660Y-4222400D02*
G01X1968660Y-4216100D01*
G01X1970220Y-4216100D02*
G01X1970220Y-4222400D01*
G01X1971780Y-4222400D02*
G01X1971780Y-4216100D01*
G01X1973340Y-4216100D02*
G01X1973340Y-4222400D01*
G01X1974900Y-4222400D02*
G01X1974900Y-4216100D01*
G01X1976460Y-4216100D02*
G01X1976460Y-4222400D01*
G01X1978020Y-4222400D02*
G01X1978020Y-4216100D01*
G01X1979580Y-4216100D02*
G01X1979580Y-4222400D01*
G01X1981140Y-4222400D02*
G01X1981140Y-4216100D01*
G01X1982700Y-4216100D02*
G01X1982700Y-4222400D01*
G01X1984260Y-4222400D02*
G01X1984260Y-4216100D01*
G01X1985820Y-4216100D02*
G01X1985820Y-4222400D01*
G01X1987380Y-4222400D02*
G01X1987380Y-4216100D01*
G01X1963980Y-4231850D02*
G01X1963980Y-4238150D01*
G01X1963980Y-4231850D02*
G01X1988000Y-4231850D01*
G01X1988000Y-4231850D02*
G01X1988000Y-4238150D01*
G01X1988000Y-4238150D02*
G01X1963980Y-4238150D01*
G01X1965540Y-4238150D02*
G01X1965540Y-4231850D01*
G01X1967100Y-4231850D02*
G01X1967100Y-4238150D01*
G01X1968660Y-4238150D02*
G01X1968660Y-4231850D01*
G01X1970220Y-4231850D02*
G01X1970220Y-4238150D01*
G01X1971780Y-4238150D02*
G01X1971780Y-4231850D01*
G01X1973340Y-4231850D02*
G01X1973340Y-4238150D01*
G01X1974900Y-4238150D02*
G01X1974900Y-4231850D01*
G01X1976460Y-4231850D02*
G01X1976460Y-4238150D01*
G01X1978020Y-4238150D02*
G01X1978020Y-4231850D01*
G01X1979580Y-4231850D02*
G01X1979580Y-4238150D01*
G01X1981140Y-4238150D02*
G01X1981140Y-4231850D01*
G01X1982700Y-4231850D02*
G01X1982700Y-4238150D01*
G01X1984260Y-4238150D02*
G01X1984260Y-4231850D01*
G01X1985820Y-4231850D02*
G01X1985820Y-4238150D01*
G01X1987380Y-4238150D02*
G01X1987380Y-4231850D01*
G01X2000400Y-4250550D02*
G01X2006700Y-4250550D01*
G01X2006700Y-4250550D02*
G01X2006700Y-4274570D01*
G01X2006700Y-4274570D02*
G01X2000400Y-4274570D01*
G01X2000400Y-4274570D02*
G01X2000400Y-4250550D01*
G01X2001960Y-4250550D02*
G01X2001960Y-4274570D01*
G01X2003520Y-4274570D02*
G01X2003520Y-4250550D01*
G01X2005080Y-4250550D02*
G01X2005080Y-4274570D01*
G01X2006640Y-4274570D02*
G01X2006640Y-4250550D01*
G01X2016150Y-4250550D02*
G01X2022450Y-4250550D01*
G01X2022450Y-4250550D02*
G01X2022450Y-4274570D01*
G01X2022450Y-4274570D02*
G01X2016150Y-4274570D01*
G01X2016150Y-4274570D02*
G01X2016150Y-4250550D01*
G01X2017710Y-4250550D02*
G01X2017710Y-4274570D01*
G01X2019270Y-4274570D02*
G01X2019270Y-4250550D01*
G01X2020830Y-4250550D02*
G01X2020830Y-4274570D01*
G01X2022390Y-4274570D02*
G01X2022390Y-4250550D01*
G01X2031900Y-4250550D02*
G01X2038200Y-4250550D01*
G01X2038200Y-4250550D02*
G01X2038200Y-4274570D01*
G01X2038200Y-4274570D02*
G01X2031900Y-4274570D01*
G01X2031900Y-4274570D02*
G01X2031900Y-4250550D01*
G01X2033460Y-4250550D02*
G01X2033460Y-4274570D01*
G01X2035020Y-4274570D02*
G01X2035020Y-4250550D01*
G01X2036580Y-4250550D02*
G01X2036580Y-4274570D01*
G01X2038140Y-4274570D02*
G01X2038140Y-4250550D01*
G01X2047640Y-4250550D02*
G01X2053940Y-4250550D01*
G01X2053940Y-4250550D02*
G01X2053940Y-4274570D01*
G01X2053940Y-4274570D02*
G01X2047640Y-4274570D01*
G01X2047640Y-4274570D02*
G01X2047640Y-4250550D01*
G01X2049200Y-4250550D02*
G01X2049200Y-4274570D01*
G01X2050760Y-4274570D02*
G01X2050760Y-4250550D01*
G01X2052320Y-4250550D02*
G01X2052320Y-4274570D01*
G01X2053880Y-4274570D02*
G01X2053880Y-4250550D01*
G01X2063390Y-4250550D02*
G01X2069690Y-4250550D01*
G01X2069690Y-4250550D02*
G01X2069690Y-4274570D01*
G01X2069690Y-4274570D02*
G01X2063390Y-4274570D01*
G01X2063390Y-4274570D02*
G01X2063390Y-4250550D01*
G01X2064950Y-4250550D02*
G01X2064950Y-4274570D01*
G01X2066510Y-4274570D02*
G01X2066510Y-4250550D01*
G01X2068070Y-4250550D02*
G01X2068070Y-4274570D01*
G01X2069630Y-4274570D02*
G01X2069630Y-4250550D01*
G01X2079140Y-4250550D02*
G01X2085440Y-4250550D01*
G01X2085440Y-4250550D02*
G01X2085440Y-4274570D01*
G01X2085440Y-4274570D02*
G01X2079140Y-4274570D01*
G01X2079140Y-4274570D02*
G01X2079140Y-4250550D01*
G01X2080700Y-4250550D02*
G01X2080700Y-4274570D01*
G01X2082260Y-4274570D02*
G01X2082260Y-4250550D01*
G01X2083820Y-4250550D02*
G01X2083820Y-4274570D01*
G01X2085380Y-4274570D02*
G01X2085380Y-4250550D01*
G01X2094890Y-4250550D02*
G01X2101190Y-4250550D01*
G01X2101190Y-4250550D02*
G01X2101190Y-4274570D01*
G01X2101190Y-4274570D02*
G01X2094890Y-4274570D01*
G01X2094890Y-4274570D02*
G01X2094890Y-4250550D01*
G01X2096450Y-4250550D02*
G01X2096450Y-4274570D01*
G01X2098010Y-4274570D02*
G01X2098010Y-4250550D01*
G01X2099570Y-4250550D02*
G01X2099570Y-4274570D01*
G01X2101130Y-4274570D02*
G01X2101130Y-4250550D01*
G01X2113590Y-4238150D02*
G01X2113590Y-4231850D01*
G01X2113590Y-4231850D02*
G01X2137610Y-4231850D01*
G01X2137610Y-4231850D02*
G01X2137610Y-4238150D01*
G01X2137610Y-4238150D02*
G01X2113590Y-4238150D01*
G01X2115150Y-4238150D02*
G01X2115150Y-4231850D01*
G01X2116710Y-4231850D02*
G01X2116710Y-4238150D01*
G01X2118270Y-4238150D02*
G01X2118270Y-4231850D01*
G01X2119830Y-4231850D02*
G01X2119830Y-4238150D01*
G01X2121390Y-4238150D02*
G01X2121390Y-4231850D01*
G01X2122950Y-4231850D02*
G01X2122950Y-4238150D01*
G01X2124510Y-4238150D02*
G01X2124510Y-4231850D01*
G01X2126070Y-4231850D02*
G01X2126070Y-4238150D01*
G01X2127630Y-4238150D02*
G01X2127630Y-4231850D01*
G01X2129190Y-4231850D02*
G01X2129190Y-4238150D01*
G01X2130750Y-4238150D02*
G01X2130750Y-4231850D01*
G01X2132310Y-4231850D02*
G01X2132310Y-4238150D01*
G01X2133870Y-4238150D02*
G01X2133870Y-4231850D01*
G01X2135430Y-4231850D02*
G01X2135430Y-4238150D01*
G01X2136990Y-4238150D02*
G01X2136990Y-4231850D01*
G01X2113590Y-4222400D02*
G01X2113590Y-4216100D01*
G01X2113590Y-4216100D02*
G01X2137610Y-4216100D01*
G01X2137610Y-4216100D02*
G01X2137610Y-4222400D01*
G01X2137610Y-4222400D02*
G01X2113590Y-4222400D01*
G01X2115150Y-4222400D02*
G01X2115150Y-4216100D01*
G01X2116710Y-4216100D02*
G01X2116710Y-4222400D01*
G01X2118270Y-4222400D02*
G01X2118270Y-4216100D01*
G01X2119830Y-4216100D02*
G01X2119830Y-4222400D01*
G01X2121390Y-4222400D02*
G01X2121390Y-4216100D01*
G01X2122950Y-4216100D02*
G01X2122950Y-4222400D01*
G01X2124510Y-4222400D02*
G01X2124510Y-4216100D01*
G01X2126070Y-4216100D02*
G01X2126070Y-4222400D01*
G01X2127630Y-4222400D02*
G01X2127630Y-4216100D01*
G01X2129190Y-4216100D02*
G01X2129190Y-4222400D01*
G01X2130750Y-4222400D02*
G01X2130750Y-4216100D01*
G01X2132310Y-4216100D02*
G01X2132310Y-4222400D01*
G01X2133870Y-4222400D02*
G01X2133870Y-4216100D01*
G01X2135430Y-4216100D02*
G01X2135430Y-4222400D01*
G01X2136990Y-4222400D02*
G01X2136990Y-4216100D01*
G01X2113590Y-4206650D02*
G01X2113590Y-4200350D01*
G01X2113590Y-4200350D02*
G01X2137610Y-4200350D01*
G01X2137610Y-4200350D02*
G01X2137610Y-4206650D01*
G01X2137610Y-4206650D02*
G01X2113590Y-4206650D01*
G01X2115150Y-4206650D02*
G01X2115150Y-4200350D01*
G01X2116710Y-4200350D02*
G01X2116710Y-4206650D01*
G01X2118270Y-4206650D02*
G01X2118270Y-4200350D01*
G01X2119830Y-4200350D02*
G01X2119830Y-4206650D01*
G01X2121390Y-4206650D02*
G01X2121390Y-4200350D01*
G01X2122950Y-4200350D02*
G01X2122950Y-4206650D01*
G01X2124510Y-4206650D02*
G01X2124510Y-4200350D01*
G01X2126070Y-4200350D02*
G01X2126070Y-4206650D01*
G01X2127630Y-4206650D02*
G01X2127630Y-4200350D01*
G01X2129190Y-4200350D02*
G01X2129190Y-4206650D01*
G01X2130750Y-4206650D02*
G01X2130750Y-4200350D01*
G01X2132310Y-4200350D02*
G01X2132310Y-4206650D01*
G01X2133870Y-4206650D02*
G01X2133870Y-4200350D01*
G01X2135430Y-4200350D02*
G01X2135430Y-4206650D01*
G01X2136990Y-4206650D02*
G01X2136990Y-4200350D01*
G01X2113590Y-4190910D02*
G01X2113590Y-4184610D01*
G01X2113590Y-4184610D02*
G01X2137610Y-4184610D01*
G01X2137610Y-4184610D02*
G01X2137610Y-4190910D01*
G01X2137610Y-4190910D02*
G01X2113590Y-4190910D01*
G01X2115150Y-4190910D02*
G01X2115150Y-4184610D01*
G01X2116710Y-4184610D02*
G01X2116710Y-4190910D01*
G01X2118270Y-4190910D02*
G01X2118270Y-4184610D01*
G01X2119830Y-4184610D02*
G01X2119830Y-4190910D01*
G01X2121390Y-4190910D02*
G01X2121390Y-4184610D01*
G01X2122950Y-4184610D02*
G01X2122950Y-4190910D01*
G01X2124510Y-4190910D02*
G01X2124510Y-4184610D01*
G01X2126070Y-4184610D02*
G01X2126070Y-4190910D01*
G01X2127630Y-4190910D02*
G01X2127630Y-4184610D01*
G01X2129190Y-4184610D02*
G01X2129190Y-4190910D01*
G01X2130750Y-4190910D02*
G01X2130750Y-4184610D01*
G01X2132310Y-4184610D02*
G01X2132310Y-4190910D01*
G01X2133870Y-4190910D02*
G01X2133870Y-4184610D01*
G01X2135430Y-4184610D02*
G01X2135430Y-4190910D01*
G01X2136990Y-4190910D02*
G01X2136990Y-4184610D01*
G01X2113590Y-4175160D02*
G01X2113590Y-4168860D01*
G01X2113590Y-4168860D02*
G01X2137610Y-4168860D01*
G01X2137610Y-4168860D02*
G01X2137610Y-4175160D01*
G01X2137610Y-4175160D02*
G01X2113590Y-4175160D01*
G01X2115150Y-4175160D02*
G01X2115150Y-4168860D01*
G01X2116710Y-4168860D02*
G01X2116710Y-4175160D01*
G01X2118270Y-4175160D02*
G01X2118270Y-4168860D01*
G01X2119830Y-4168860D02*
G01X2119830Y-4175160D01*
G01X2121390Y-4175160D02*
G01X2121390Y-4168860D01*
G01X2122950Y-4168860D02*
G01X2122950Y-4175160D01*
G01X2124510Y-4175160D02*
G01X2124510Y-4168860D01*
G01X2126070Y-4168860D02*
G01X2126070Y-4175160D01*
G01X2127630Y-4175160D02*
G01X2127630Y-4168860D01*
G01X2129190Y-4168860D02*
G01X2129190Y-4175160D01*
G01X2130750Y-4175160D02*
G01X2130750Y-4168860D01*
G01X2132310Y-4168860D02*
G01X2132310Y-4175160D01*
G01X2133870Y-4175160D02*
G01X2133870Y-4168860D01*
G01X2135430Y-4168860D02*
G01X2135430Y-4175160D01*
G01X2136990Y-4175160D02*
G01X2136990Y-4168860D01*
G01X2113590Y-4159410D02*
G01X2113590Y-4153110D01*
G01X2113590Y-4153110D02*
G01X2137610Y-4153110D01*
G01X2137610Y-4153110D02*
G01X2137610Y-4159410D01*
G01X2137610Y-4159410D02*
G01X2113590Y-4159410D01*
G01X2115150Y-4159410D02*
G01X2115150Y-4153110D01*
G01X2116710Y-4153110D02*
G01X2116710Y-4159410D01*
G01X2118270Y-4159410D02*
G01X2118270Y-4153110D01*
G01X2119830Y-4153110D02*
G01X2119830Y-4159410D01*
G01X2121390Y-4159410D02*
G01X2121390Y-4153110D01*
G01X2122950Y-4153110D02*
G01X2122950Y-4159410D01*
G01X2124510Y-4159410D02*
G01X2124510Y-4153110D01*
G01X2126070Y-4153110D02*
G01X2126070Y-4159410D01*
G01X2127630Y-4159410D02*
G01X2127630Y-4153110D01*
G01X2129190Y-4153110D02*
G01X2129190Y-4159410D01*
G01X2130750Y-4159410D02*
G01X2130750Y-4153110D01*
G01X2132310Y-4153110D02*
G01X2132310Y-4159410D01*
G01X2133870Y-4159410D02*
G01X2133870Y-4153110D01*
G01X2135430Y-4153110D02*
G01X2135430Y-4159410D01*
G01X2136990Y-4159410D02*
G01X2136990Y-4153110D01*
G01X2113590Y-4143660D02*
G01X2113590Y-4137360D01*
G01X2113590Y-4137360D02*
G01X2137610Y-4137360D01*
G01X2137610Y-4137360D02*
G01X2137610Y-4143660D01*
G01X2137610Y-4143660D02*
G01X2113590Y-4143660D01*
G01X2115150Y-4143660D02*
G01X2115150Y-4137360D01*
G01X2116710Y-4137360D02*
G01X2116710Y-4143660D01*
G01X2118270Y-4143660D02*
G01X2118270Y-4137360D01*
G01X2119830Y-4137360D02*
G01X2119830Y-4143660D01*
G01X2121390Y-4143660D02*
G01X2121390Y-4137360D01*
G01X2122950Y-4137360D02*
G01X2122950Y-4143660D01*
G01X2124510Y-4143660D02*
G01X2124510Y-4137360D01*
G01X2126070Y-4137360D02*
G01X2126070Y-4143660D01*
G01X2127630Y-4143660D02*
G01X2127630Y-4137360D01*
G01X2129190Y-4137360D02*
G01X2129190Y-4143660D01*
G01X2130750Y-4143660D02*
G01X2130750Y-4137360D01*
G01X2132310Y-4137360D02*
G01X2132310Y-4143660D01*
G01X2133870Y-4143660D02*
G01X2133870Y-4137360D01*
G01X2135430Y-4137360D02*
G01X2135430Y-4143660D01*
G01X2136990Y-4143660D02*
G01X2136990Y-4137360D01*
G54D18*
G01X2050790Y-4152320D03*
G01X2050790Y-4223190D03*
G01X2050790Y-1026340D03*
G01X2050790Y-955470D03*
G54D19*
G01X2015360Y-990910D03*
G01X2086230Y-990910D03*
G01X2086230Y-4187760D03*
G01X2015360Y-4187760D03*
G54D20*
G01X2050790Y-4187760D03*
G01X2050790Y-990910D03*
M02*
