G75*
%MOIN*%
%OFA0B0*%
%FSLAX25Y25*%
%IPPOS*%
%LPD*%
%AMOC8*
5,1,8,0,0,1.08239X$1,22.5*
%
%ADD10C,0.00488*%
%ADD11C,0.00276*%
%ADD12C,0.00630*%
%ADD13C,0.00394*%
%ADD14C,0.00157*%
%ADD15R,0.01575X0.03937*%
%ADD16R,0.03937X0.01575*%
%ADD17R,0.03150X0.03150*%
D10*
X0078430Y0172410D02*
X0078430Y0174362D01*
X0080382Y0174362D01*
X0080382Y0172410D01*
X0078430Y0172410D01*
X0078430Y0172897D02*
X0080382Y0172897D01*
X0080382Y0173384D02*
X0078430Y0173384D01*
X0078430Y0173871D02*
X0080382Y0173871D01*
X0080382Y0174358D02*
X0078430Y0174358D01*
X0078430Y0175954D02*
X0078430Y0177906D01*
X0080382Y0177906D01*
X0080382Y0175954D01*
X0078430Y0175954D01*
X0078430Y0176441D02*
X0080382Y0176441D01*
X0080382Y0176928D02*
X0078430Y0176928D01*
X0078430Y0177415D02*
X0080382Y0177415D01*
X0080382Y0177902D02*
X0078430Y0177902D01*
X0071917Y0190307D02*
X0069965Y0190307D01*
X0071917Y0190307D02*
X0071917Y0188355D01*
X0069965Y0188355D01*
X0069965Y0190307D01*
X0069965Y0188842D02*
X0071917Y0188842D01*
X0071917Y0189329D02*
X0069965Y0189329D01*
X0069965Y0189816D02*
X0071917Y0189816D01*
X0071917Y0190303D02*
X0069965Y0190303D01*
X0068374Y0190307D02*
X0066422Y0190307D01*
X0068374Y0190307D02*
X0068374Y0188355D01*
X0066422Y0188355D01*
X0066422Y0190307D01*
X0066422Y0188842D02*
X0068374Y0188842D01*
X0068374Y0189329D02*
X0066422Y0189329D01*
X0066422Y0189816D02*
X0068374Y0189816D01*
X0068374Y0190303D02*
X0066422Y0190303D01*
X0066422Y0204087D02*
X0068374Y0204087D01*
X0068374Y0202135D01*
X0066422Y0202135D01*
X0066422Y0204087D01*
X0066422Y0202622D02*
X0068374Y0202622D01*
X0068374Y0203109D02*
X0066422Y0203109D01*
X0066422Y0203596D02*
X0068374Y0203596D01*
X0068374Y0204083D02*
X0066422Y0204083D01*
X0069965Y0204087D02*
X0071917Y0204087D01*
X0071917Y0202135D01*
X0069965Y0202135D01*
X0069965Y0204087D01*
X0069965Y0202622D02*
X0071917Y0202622D01*
X0071917Y0203109D02*
X0069965Y0203109D01*
X0069965Y0203596D02*
X0071917Y0203596D01*
X0071917Y0204083D02*
X0069965Y0204083D01*
X0069965Y0215898D02*
X0071917Y0215898D01*
X0071917Y0213946D01*
X0069965Y0213946D01*
X0069965Y0215898D01*
X0069965Y0214433D02*
X0071917Y0214433D01*
X0071917Y0214920D02*
X0069965Y0214920D01*
X0069965Y0215407D02*
X0071917Y0215407D01*
X0071917Y0215894D02*
X0069965Y0215894D01*
X0068374Y0215898D02*
X0066422Y0215898D01*
X0068374Y0215898D02*
X0068374Y0213946D01*
X0066422Y0213946D01*
X0066422Y0215898D01*
X0066422Y0214433D02*
X0068374Y0214433D01*
X0068374Y0214920D02*
X0066422Y0214920D01*
X0066422Y0215407D02*
X0068374Y0215407D01*
X0068374Y0215894D02*
X0066422Y0215894D01*
X0066422Y0229677D02*
X0068374Y0229677D01*
X0068374Y0227725D01*
X0066422Y0227725D01*
X0066422Y0229677D01*
X0066422Y0228212D02*
X0068374Y0228212D01*
X0068374Y0228699D02*
X0066422Y0228699D01*
X0066422Y0229186D02*
X0068374Y0229186D01*
X0068374Y0229673D02*
X0066422Y0229673D01*
X0069965Y0229677D02*
X0071917Y0229677D01*
X0071917Y0227725D01*
X0069965Y0227725D01*
X0069965Y0229677D01*
X0069965Y0228212D02*
X0071917Y0228212D01*
X0071917Y0228699D02*
X0069965Y0228699D01*
X0069965Y0229186D02*
X0071917Y0229186D01*
X0071917Y0229673D02*
X0069965Y0229673D01*
X0080398Y0225544D02*
X0080398Y0223592D01*
X0080398Y0225544D02*
X0082350Y0225544D01*
X0082350Y0223592D01*
X0080398Y0223592D01*
X0080398Y0224079D02*
X0082350Y0224079D01*
X0082350Y0224566D02*
X0080398Y0224566D01*
X0080398Y0225053D02*
X0082350Y0225053D01*
X0082350Y0225540D02*
X0080398Y0225540D01*
X0080398Y0222000D02*
X0080398Y0220048D01*
X0080398Y0222000D02*
X0082350Y0222000D01*
X0082350Y0220048D01*
X0080398Y0220048D01*
X0080398Y0220535D02*
X0082350Y0220535D01*
X0082350Y0221022D02*
X0080398Y0221022D01*
X0080398Y0221509D02*
X0082350Y0221509D01*
X0082350Y0221996D02*
X0080398Y0221996D01*
X0084335Y0222000D02*
X0084335Y0220048D01*
X0084335Y0222000D02*
X0086287Y0222000D01*
X0086287Y0220048D01*
X0084335Y0220048D01*
X0084335Y0220535D02*
X0086287Y0220535D01*
X0086287Y0221022D02*
X0084335Y0221022D01*
X0084335Y0221509D02*
X0086287Y0221509D01*
X0086287Y0221996D02*
X0084335Y0221996D01*
X0084335Y0223592D02*
X0084335Y0225544D01*
X0086287Y0225544D01*
X0086287Y0223592D01*
X0084335Y0223592D01*
X0084335Y0224079D02*
X0086287Y0224079D01*
X0086287Y0224566D02*
X0084335Y0224566D01*
X0084335Y0225053D02*
X0086287Y0225053D01*
X0086287Y0225540D02*
X0084335Y0225540D01*
X0084319Y0232253D02*
X0084319Y0234205D01*
X0084319Y0232253D02*
X0082367Y0232253D01*
X0082367Y0234205D01*
X0084319Y0234205D01*
X0084319Y0232740D02*
X0082367Y0232740D01*
X0082367Y0233227D02*
X0084319Y0233227D01*
X0084319Y0233714D02*
X0082367Y0233714D01*
X0082367Y0234201D02*
X0084319Y0234201D01*
X0084319Y0235796D02*
X0084319Y0237748D01*
X0084319Y0235796D02*
X0082367Y0235796D01*
X0082367Y0237748D01*
X0084319Y0237748D01*
X0084319Y0236283D02*
X0082367Y0236283D01*
X0082367Y0236770D02*
X0084319Y0236770D01*
X0084319Y0237257D02*
X0082367Y0237257D01*
X0082367Y0237744D02*
X0084319Y0237744D01*
X0096130Y0237748D02*
X0096130Y0235796D01*
X0094178Y0235796D01*
X0094178Y0237748D01*
X0096130Y0237748D01*
X0096130Y0236283D02*
X0094178Y0236283D01*
X0094178Y0236770D02*
X0096130Y0236770D01*
X0096130Y0237257D02*
X0094178Y0237257D01*
X0094178Y0237744D02*
X0096130Y0237744D01*
X0096130Y0234205D02*
X0096130Y0232253D01*
X0094178Y0232253D01*
X0094178Y0234205D01*
X0096130Y0234205D01*
X0096130Y0232740D02*
X0094178Y0232740D01*
X0094178Y0233227D02*
X0096130Y0233227D01*
X0096130Y0233714D02*
X0094178Y0233714D01*
X0094178Y0234201D02*
X0096130Y0234201D01*
X0119752Y0234205D02*
X0119752Y0232253D01*
X0117800Y0232253D01*
X0117800Y0234205D01*
X0119752Y0234205D01*
X0119752Y0232740D02*
X0117800Y0232740D01*
X0117800Y0233227D02*
X0119752Y0233227D01*
X0119752Y0233714D02*
X0117800Y0233714D01*
X0117800Y0234201D02*
X0119752Y0234201D01*
X0119752Y0235796D02*
X0119752Y0237748D01*
X0119752Y0235796D02*
X0117800Y0235796D01*
X0117800Y0237748D01*
X0119752Y0237748D01*
X0119752Y0236283D02*
X0117800Y0236283D01*
X0117800Y0236770D02*
X0119752Y0236770D01*
X0119752Y0237257D02*
X0117800Y0237257D01*
X0117800Y0237744D02*
X0119752Y0237744D01*
X0126264Y0227725D02*
X0128216Y0227725D01*
X0126264Y0227725D02*
X0126264Y0229677D01*
X0128216Y0229677D01*
X0128216Y0227725D01*
X0128216Y0228212D02*
X0126264Y0228212D01*
X0126264Y0228699D02*
X0128216Y0228699D01*
X0128216Y0229186D02*
X0126264Y0229186D01*
X0126264Y0229673D02*
X0128216Y0229673D01*
X0129807Y0227725D02*
X0131759Y0227725D01*
X0129807Y0227725D02*
X0129807Y0229677D01*
X0131759Y0229677D01*
X0131759Y0227725D01*
X0131759Y0228212D02*
X0129807Y0228212D01*
X0129807Y0228699D02*
X0131759Y0228699D01*
X0131759Y0229186D02*
X0129807Y0229186D01*
X0129807Y0229673D02*
X0131759Y0229673D01*
X0131759Y0190324D02*
X0129807Y0190324D01*
X0129807Y0192276D01*
X0131759Y0192276D01*
X0131759Y0190324D01*
X0131759Y0190811D02*
X0129807Y0190811D01*
X0129807Y0191298D02*
X0131759Y0191298D01*
X0131759Y0191785D02*
X0129807Y0191785D01*
X0129807Y0192272D02*
X0131759Y0192272D01*
X0128216Y0190324D02*
X0126264Y0190324D01*
X0126264Y0192276D01*
X0128216Y0192276D01*
X0128216Y0190324D01*
X0128216Y0190811D02*
X0126264Y0190811D01*
X0126264Y0191298D02*
X0128216Y0191298D01*
X0128216Y0191785D02*
X0126264Y0191785D01*
X0126264Y0192272D02*
X0128216Y0192272D01*
X0128216Y0185403D02*
X0126264Y0185403D01*
X0126264Y0187355D01*
X0128216Y0187355D01*
X0128216Y0185403D01*
X0128216Y0185890D02*
X0126264Y0185890D01*
X0126264Y0186377D02*
X0128216Y0186377D01*
X0128216Y0186864D02*
X0126264Y0186864D01*
X0126264Y0187351D02*
X0128216Y0187351D01*
X0129807Y0185403D02*
X0131759Y0185403D01*
X0129807Y0185403D02*
X0129807Y0187355D01*
X0131759Y0187355D01*
X0131759Y0185403D01*
X0131759Y0185890D02*
X0129807Y0185890D01*
X0129807Y0186377D02*
X0131759Y0186377D01*
X0131759Y0186864D02*
X0129807Y0186864D01*
X0129807Y0187351D02*
X0131759Y0187351D01*
X0131759Y0180481D02*
X0129807Y0180481D01*
X0129807Y0182433D01*
X0131759Y0182433D01*
X0131759Y0180481D01*
X0131759Y0180968D02*
X0129807Y0180968D01*
X0129807Y0181455D02*
X0131759Y0181455D01*
X0131759Y0181942D02*
X0129807Y0181942D01*
X0129807Y0182429D02*
X0131759Y0182429D01*
X0128216Y0180481D02*
X0126264Y0180481D01*
X0126264Y0182433D01*
X0128216Y0182433D01*
X0128216Y0180481D01*
X0128216Y0180968D02*
X0126264Y0180968D01*
X0126264Y0181455D02*
X0128216Y0181455D01*
X0128216Y0181942D02*
X0126264Y0181942D01*
X0126264Y0182429D02*
X0128216Y0182429D01*
X0113863Y0177906D02*
X0113863Y0175954D01*
X0113863Y0177906D02*
X0115815Y0177906D01*
X0115815Y0175954D01*
X0113863Y0175954D01*
X0113863Y0176441D02*
X0115815Y0176441D01*
X0115815Y0176928D02*
X0113863Y0176928D01*
X0113863Y0177415D02*
X0115815Y0177415D01*
X0115815Y0177902D02*
X0113863Y0177902D01*
X0113863Y0174362D02*
X0113863Y0172410D01*
X0113863Y0174362D02*
X0115815Y0174362D01*
X0115815Y0172410D01*
X0113863Y0172410D01*
X0113863Y0172897D02*
X0115815Y0172897D01*
X0115815Y0173384D02*
X0113863Y0173384D01*
X0113863Y0173871D02*
X0115815Y0173871D01*
X0115815Y0174358D02*
X0113863Y0174358D01*
X0111878Y0184222D02*
X0111878Y0186174D01*
X0111878Y0184222D02*
X0109926Y0184222D01*
X0109926Y0186174D01*
X0111878Y0186174D01*
X0111878Y0184709D02*
X0109926Y0184709D01*
X0109926Y0185196D02*
X0111878Y0185196D01*
X0111878Y0185683D02*
X0109926Y0185683D01*
X0109926Y0186170D02*
X0111878Y0186170D01*
X0111878Y0187765D02*
X0111878Y0189717D01*
X0111878Y0187765D02*
X0109926Y0187765D01*
X0109926Y0189717D01*
X0111878Y0189717D01*
X0111878Y0188252D02*
X0109926Y0188252D01*
X0109926Y0188739D02*
X0111878Y0188739D01*
X0111878Y0189226D02*
X0109926Y0189226D01*
X0109926Y0189713D02*
X0111878Y0189713D01*
X0096540Y0189717D02*
X0096540Y0187765D01*
X0096540Y0189717D02*
X0098492Y0189717D01*
X0098492Y0187765D01*
X0096540Y0187765D01*
X0096540Y0188252D02*
X0098492Y0188252D01*
X0098492Y0188739D02*
X0096540Y0188739D01*
X0096540Y0189226D02*
X0098492Y0189226D01*
X0098492Y0189713D02*
X0096540Y0189713D01*
X0096540Y0186174D02*
X0096540Y0184222D01*
X0096540Y0186174D02*
X0098492Y0186174D01*
X0098492Y0184222D01*
X0096540Y0184222D01*
X0096540Y0184709D02*
X0098492Y0184709D01*
X0098492Y0185196D02*
X0096540Y0185196D01*
X0096540Y0185683D02*
X0098492Y0185683D01*
X0098492Y0186170D02*
X0096540Y0186170D01*
X0101067Y0177906D02*
X0101067Y0175954D01*
X0101067Y0177906D02*
X0103019Y0177906D01*
X0103019Y0175954D01*
X0101067Y0175954D01*
X0101067Y0176441D02*
X0103019Y0176441D01*
X0103019Y0176928D02*
X0101067Y0176928D01*
X0101067Y0177415D02*
X0103019Y0177415D01*
X0103019Y0177902D02*
X0101067Y0177902D01*
X0101067Y0174362D02*
X0101067Y0172410D01*
X0101067Y0174362D02*
X0103019Y0174362D01*
X0103019Y0172410D01*
X0101067Y0172410D01*
X0101067Y0172897D02*
X0103019Y0172897D01*
X0103019Y0173384D02*
X0101067Y0173384D01*
X0101067Y0173871D02*
X0103019Y0173871D01*
X0103019Y0174358D02*
X0101067Y0174358D01*
X0087957Y0283582D02*
X0087957Y0285534D01*
X0089909Y0285534D01*
X0089909Y0283582D01*
X0087957Y0283582D01*
X0087957Y0284069D02*
X0089909Y0284069D01*
X0089909Y0284556D02*
X0087957Y0284556D01*
X0087957Y0285043D02*
X0089909Y0285043D01*
X0089909Y0285530D02*
X0087957Y0285530D01*
X0087957Y0287125D02*
X0087957Y0289077D01*
X0089909Y0289077D01*
X0089909Y0287125D01*
X0087957Y0287125D01*
X0087957Y0287612D02*
X0089909Y0287612D01*
X0089909Y0288099D02*
X0087957Y0288099D01*
X0087957Y0288586D02*
X0089909Y0288586D01*
X0089909Y0289073D02*
X0087957Y0289073D01*
X0072409Y0289077D02*
X0072409Y0287125D01*
X0070457Y0287125D01*
X0070457Y0289077D01*
X0072409Y0289077D01*
X0072409Y0287612D02*
X0070457Y0287612D01*
X0070457Y0288099D02*
X0072409Y0288099D01*
X0072409Y0288586D02*
X0070457Y0288586D01*
X0070457Y0289073D02*
X0072409Y0289073D01*
X0072409Y0285534D02*
X0072409Y0283582D01*
X0070457Y0283582D01*
X0070457Y0285534D01*
X0072409Y0285534D01*
X0072409Y0284069D02*
X0070457Y0284069D01*
X0070457Y0284556D02*
X0072409Y0284556D01*
X0072409Y0285043D02*
X0070457Y0285043D01*
X0070457Y0285530D02*
X0072409Y0285530D01*
X0068669Y0285528D02*
X0068669Y0283576D01*
X0066717Y0283576D01*
X0066717Y0285528D01*
X0068669Y0285528D01*
X0068669Y0284063D02*
X0066717Y0284063D01*
X0066717Y0284550D02*
X0068669Y0284550D01*
X0068669Y0285037D02*
X0066717Y0285037D01*
X0066717Y0285524D02*
X0068669Y0285524D01*
X0068669Y0287119D02*
X0068669Y0289071D01*
X0068669Y0287119D02*
X0066717Y0287119D01*
X0066717Y0289071D01*
X0068669Y0289071D01*
X0068669Y0287606D02*
X0066717Y0287606D01*
X0066717Y0288093D02*
X0068669Y0288093D01*
X0068669Y0288580D02*
X0066717Y0288580D01*
X0066717Y0289067D02*
X0068669Y0289067D01*
X0386107Y0229677D02*
X0388059Y0229677D01*
X0388059Y0227725D01*
X0386107Y0227725D01*
X0386107Y0229677D01*
X0386107Y0228212D02*
X0388059Y0228212D01*
X0388059Y0228699D02*
X0386107Y0228699D01*
X0386107Y0229186D02*
X0388059Y0229186D01*
X0388059Y0229673D02*
X0386107Y0229673D01*
X0389650Y0229677D02*
X0391602Y0229677D01*
X0391602Y0227725D01*
X0389650Y0227725D01*
X0389650Y0229677D01*
X0389650Y0228212D02*
X0391602Y0228212D01*
X0391602Y0228699D02*
X0389650Y0228699D01*
X0389650Y0229186D02*
X0391602Y0229186D01*
X0391602Y0229673D02*
X0389650Y0229673D01*
X0389650Y0224756D02*
X0391602Y0224756D01*
X0391602Y0222804D01*
X0389650Y0222804D01*
X0389650Y0224756D01*
X0389650Y0223291D02*
X0391602Y0223291D01*
X0391602Y0223778D02*
X0389650Y0223778D01*
X0389650Y0224265D02*
X0391602Y0224265D01*
X0391602Y0224752D02*
X0389650Y0224752D01*
X0388059Y0224756D02*
X0386107Y0224756D01*
X0388059Y0224756D02*
X0388059Y0222804D01*
X0386107Y0222804D01*
X0386107Y0224756D01*
X0386107Y0223291D02*
X0388059Y0223291D01*
X0388059Y0223778D02*
X0386107Y0223778D01*
X0386107Y0224265D02*
X0388059Y0224265D01*
X0388059Y0224752D02*
X0386107Y0224752D01*
X0386107Y0219835D02*
X0388059Y0219835D01*
X0388059Y0217883D01*
X0386107Y0217883D01*
X0386107Y0219835D01*
X0386107Y0218370D02*
X0388059Y0218370D01*
X0388059Y0218857D02*
X0386107Y0218857D01*
X0386107Y0219344D02*
X0388059Y0219344D01*
X0388059Y0219831D02*
X0386107Y0219831D01*
X0389650Y0219835D02*
X0391602Y0219835D01*
X0391602Y0217883D01*
X0389650Y0217883D01*
X0389650Y0219835D01*
X0389650Y0218370D02*
X0391602Y0218370D01*
X0391602Y0218857D02*
X0389650Y0218857D01*
X0389650Y0219344D02*
X0391602Y0219344D01*
X0391602Y0219831D02*
X0389650Y0219831D01*
X0405989Y0220442D02*
X0405989Y0222394D01*
X0407941Y0222394D01*
X0407941Y0220442D01*
X0405989Y0220442D01*
X0405989Y0220929D02*
X0407941Y0220929D01*
X0407941Y0221416D02*
X0405989Y0221416D01*
X0405989Y0221903D02*
X0407941Y0221903D01*
X0407941Y0222390D02*
X0405989Y0222390D01*
X0405989Y0223985D02*
X0405989Y0225937D01*
X0407941Y0225937D01*
X0407941Y0223985D01*
X0405989Y0223985D01*
X0405989Y0224472D02*
X0407941Y0224472D01*
X0407941Y0224959D02*
X0405989Y0224959D01*
X0405989Y0225446D02*
X0407941Y0225446D01*
X0407941Y0225933D02*
X0405989Y0225933D01*
X0404004Y0232253D02*
X0404004Y0234205D01*
X0404004Y0232253D02*
X0402052Y0232253D01*
X0402052Y0234205D01*
X0404004Y0234205D01*
X0404004Y0232740D02*
X0402052Y0232740D01*
X0402052Y0233227D02*
X0404004Y0233227D01*
X0404004Y0233714D02*
X0402052Y0233714D01*
X0402052Y0234201D02*
X0404004Y0234201D01*
X0404004Y0235796D02*
X0404004Y0237748D01*
X0404004Y0235796D02*
X0402052Y0235796D01*
X0402052Y0237748D01*
X0404004Y0237748D01*
X0404004Y0236283D02*
X0402052Y0236283D01*
X0402052Y0236770D02*
X0404004Y0236770D01*
X0404004Y0237257D02*
X0402052Y0237257D01*
X0402052Y0237744D02*
X0404004Y0237744D01*
X0416799Y0237748D02*
X0416799Y0235796D01*
X0414847Y0235796D01*
X0414847Y0237748D01*
X0416799Y0237748D01*
X0416799Y0236283D02*
X0414847Y0236283D01*
X0414847Y0236770D02*
X0416799Y0236770D01*
X0416799Y0237257D02*
X0414847Y0237257D01*
X0414847Y0237744D02*
X0416799Y0237744D01*
X0416799Y0234205D02*
X0416799Y0232253D01*
X0414847Y0232253D01*
X0414847Y0234205D01*
X0416799Y0234205D01*
X0416799Y0232740D02*
X0414847Y0232740D01*
X0414847Y0233227D02*
X0416799Y0233227D01*
X0416799Y0233714D02*
X0414847Y0233714D01*
X0414847Y0234201D02*
X0416799Y0234201D01*
X0421326Y0225937D02*
X0421326Y0223985D01*
X0419374Y0223985D01*
X0419374Y0225937D01*
X0421326Y0225937D01*
X0421326Y0224472D02*
X0419374Y0224472D01*
X0419374Y0224959D02*
X0421326Y0224959D01*
X0421326Y0225446D02*
X0419374Y0225446D01*
X0419374Y0225933D02*
X0421326Y0225933D01*
X0421326Y0222394D02*
X0421326Y0220442D01*
X0419374Y0220442D01*
X0419374Y0222394D01*
X0421326Y0222394D01*
X0421326Y0220929D02*
X0419374Y0220929D01*
X0419374Y0221416D02*
X0421326Y0221416D01*
X0421326Y0221903D02*
X0419374Y0221903D01*
X0419374Y0222390D02*
X0421326Y0222390D01*
X0439437Y0232253D02*
X0439437Y0234205D01*
X0439437Y0232253D02*
X0437485Y0232253D01*
X0437485Y0234205D01*
X0439437Y0234205D01*
X0439437Y0232740D02*
X0437485Y0232740D01*
X0437485Y0233227D02*
X0439437Y0233227D01*
X0439437Y0233714D02*
X0437485Y0233714D01*
X0437485Y0234201D02*
X0439437Y0234201D01*
X0439437Y0235796D02*
X0439437Y0237748D01*
X0439437Y0235796D02*
X0437485Y0235796D01*
X0437485Y0237748D01*
X0439437Y0237748D01*
X0439437Y0236283D02*
X0437485Y0236283D01*
X0437485Y0236770D02*
X0439437Y0236770D01*
X0439437Y0237257D02*
X0437485Y0237257D01*
X0437485Y0237744D02*
X0439437Y0237744D01*
X0445949Y0219851D02*
X0447901Y0219851D01*
X0445949Y0219851D02*
X0445949Y0221803D01*
X0447901Y0221803D01*
X0447901Y0219851D01*
X0447901Y0220338D02*
X0445949Y0220338D01*
X0445949Y0220825D02*
X0447901Y0220825D01*
X0447901Y0221312D02*
X0445949Y0221312D01*
X0445949Y0221799D02*
X0447901Y0221799D01*
X0449493Y0219851D02*
X0451445Y0219851D01*
X0449493Y0219851D02*
X0449493Y0221803D01*
X0451445Y0221803D01*
X0451445Y0219851D01*
X0451445Y0220338D02*
X0449493Y0220338D01*
X0449493Y0220825D02*
X0451445Y0220825D01*
X0451445Y0221312D02*
X0449493Y0221312D01*
X0449493Y0221799D02*
X0451445Y0221799D01*
X0451445Y0206072D02*
X0449493Y0206072D01*
X0449493Y0208024D01*
X0451445Y0208024D01*
X0451445Y0206072D01*
X0451445Y0206559D02*
X0449493Y0206559D01*
X0449493Y0207046D02*
X0451445Y0207046D01*
X0451445Y0207533D02*
X0449493Y0207533D01*
X0449493Y0208020D02*
X0451445Y0208020D01*
X0447901Y0206072D02*
X0445949Y0206072D01*
X0445949Y0208024D01*
X0447901Y0208024D01*
X0447901Y0206072D01*
X0447901Y0206559D02*
X0445949Y0206559D01*
X0445949Y0207046D02*
X0447901Y0207046D01*
X0447901Y0207533D02*
X0445949Y0207533D01*
X0445949Y0208020D02*
X0447901Y0208020D01*
X0447901Y0194261D02*
X0445949Y0194261D01*
X0445949Y0196213D01*
X0447901Y0196213D01*
X0447901Y0194261D01*
X0447901Y0194748D02*
X0445949Y0194748D01*
X0445949Y0195235D02*
X0447901Y0195235D01*
X0447901Y0195722D02*
X0445949Y0195722D01*
X0445949Y0196209D02*
X0447901Y0196209D01*
X0449493Y0194261D02*
X0451445Y0194261D01*
X0449493Y0194261D02*
X0449493Y0196213D01*
X0451445Y0196213D01*
X0451445Y0194261D01*
X0451445Y0194748D02*
X0449493Y0194748D01*
X0449493Y0195235D02*
X0451445Y0195235D01*
X0451445Y0195722D02*
X0449493Y0195722D01*
X0449493Y0196209D02*
X0451445Y0196209D01*
X0437468Y0190111D02*
X0437468Y0188159D01*
X0435516Y0188159D01*
X0435516Y0190111D01*
X0437468Y0190111D01*
X0437468Y0188646D02*
X0435516Y0188646D01*
X0435516Y0189133D02*
X0437468Y0189133D01*
X0437468Y0189620D02*
X0435516Y0189620D01*
X0435516Y0190107D02*
X0437468Y0190107D01*
X0437468Y0186567D02*
X0437468Y0184615D01*
X0435516Y0184615D01*
X0435516Y0186567D01*
X0437468Y0186567D01*
X0437468Y0185102D02*
X0435516Y0185102D01*
X0435516Y0185589D02*
X0437468Y0185589D01*
X0437468Y0186076D02*
X0435516Y0186076D01*
X0435516Y0186563D02*
X0437468Y0186563D01*
X0433531Y0186567D02*
X0433531Y0184615D01*
X0431579Y0184615D01*
X0431579Y0186567D01*
X0433531Y0186567D01*
X0433531Y0185102D02*
X0431579Y0185102D01*
X0431579Y0185589D02*
X0433531Y0185589D01*
X0433531Y0186076D02*
X0431579Y0186076D01*
X0431579Y0186563D02*
X0433531Y0186563D01*
X0433531Y0188159D02*
X0433531Y0190111D01*
X0433531Y0188159D02*
X0431579Y0188159D01*
X0431579Y0190111D01*
X0433531Y0190111D01*
X0433531Y0188646D02*
X0431579Y0188646D01*
X0431579Y0189133D02*
X0433531Y0189133D01*
X0433531Y0189620D02*
X0431579Y0189620D01*
X0431579Y0190107D02*
X0433531Y0190107D01*
X0445949Y0180481D02*
X0447901Y0180481D01*
X0445949Y0180481D02*
X0445949Y0182433D01*
X0447901Y0182433D01*
X0447901Y0180481D01*
X0447901Y0180968D02*
X0445949Y0180968D01*
X0445949Y0181455D02*
X0447901Y0181455D01*
X0447901Y0181942D02*
X0445949Y0181942D01*
X0445949Y0182429D02*
X0447901Y0182429D01*
X0449493Y0180481D02*
X0451445Y0180481D01*
X0449493Y0180481D02*
X0449493Y0182433D01*
X0451445Y0182433D01*
X0451445Y0180481D01*
X0451445Y0180968D02*
X0449493Y0180968D01*
X0449493Y0181455D02*
X0451445Y0181455D01*
X0451445Y0181942D02*
X0449493Y0181942D01*
X0449493Y0182429D02*
X0451445Y0182429D01*
X0433548Y0177906D02*
X0433548Y0175954D01*
X0433548Y0177906D02*
X0435500Y0177906D01*
X0435500Y0175954D01*
X0433548Y0175954D01*
X0433548Y0176441D02*
X0435500Y0176441D01*
X0435500Y0176928D02*
X0433548Y0176928D01*
X0433548Y0177415D02*
X0435500Y0177415D01*
X0435500Y0177902D02*
X0433548Y0177902D01*
X0433548Y0174362D02*
X0433548Y0172410D01*
X0433548Y0174362D02*
X0435500Y0174362D01*
X0435500Y0172410D01*
X0433548Y0172410D01*
X0433548Y0172897D02*
X0435500Y0172897D01*
X0435500Y0173384D02*
X0433548Y0173384D01*
X0433548Y0173871D02*
X0435500Y0173871D01*
X0435500Y0174358D02*
X0433548Y0174358D01*
X0421737Y0174362D02*
X0421737Y0172410D01*
X0421737Y0174362D02*
X0423689Y0174362D01*
X0423689Y0172410D01*
X0421737Y0172410D01*
X0421737Y0172897D02*
X0423689Y0172897D01*
X0423689Y0173384D02*
X0421737Y0173384D01*
X0421737Y0173871D02*
X0423689Y0173871D01*
X0423689Y0174358D02*
X0421737Y0174358D01*
X0421737Y0175954D02*
X0421737Y0177906D01*
X0423689Y0177906D01*
X0423689Y0175954D01*
X0421737Y0175954D01*
X0421737Y0176441D02*
X0423689Y0176441D01*
X0423689Y0176928D02*
X0421737Y0176928D01*
X0421737Y0177415D02*
X0423689Y0177415D01*
X0423689Y0177902D02*
X0421737Y0177902D01*
X0398115Y0177906D02*
X0398115Y0175954D01*
X0398115Y0177906D02*
X0400067Y0177906D01*
X0400067Y0175954D01*
X0398115Y0175954D01*
X0398115Y0176441D02*
X0400067Y0176441D01*
X0400067Y0176928D02*
X0398115Y0176928D01*
X0398115Y0177415D02*
X0400067Y0177415D01*
X0400067Y0177902D02*
X0398115Y0177902D01*
X0398115Y0174362D02*
X0398115Y0172410D01*
X0398115Y0174362D02*
X0400067Y0174362D01*
X0400067Y0172410D01*
X0398115Y0172410D01*
X0398115Y0172897D02*
X0400067Y0172897D01*
X0400067Y0173384D02*
X0398115Y0173384D01*
X0398115Y0173871D02*
X0400067Y0173871D01*
X0400067Y0174358D02*
X0398115Y0174358D01*
X0391602Y0182433D02*
X0389650Y0182433D01*
X0391602Y0182433D02*
X0391602Y0180481D01*
X0389650Y0180481D01*
X0389650Y0182433D01*
X0389650Y0180968D02*
X0391602Y0180968D01*
X0391602Y0181455D02*
X0389650Y0181455D01*
X0389650Y0181942D02*
X0391602Y0181942D01*
X0391602Y0182429D02*
X0389650Y0182429D01*
X0388059Y0182433D02*
X0386107Y0182433D01*
X0388059Y0182433D02*
X0388059Y0180481D01*
X0386107Y0180481D01*
X0386107Y0182433D01*
X0386107Y0180968D02*
X0388059Y0180968D01*
X0388059Y0181455D02*
X0386107Y0181455D01*
X0386107Y0181942D02*
X0388059Y0181942D01*
X0388059Y0182429D02*
X0386107Y0182429D01*
X0465457Y0202332D02*
X0465457Y0204284D01*
X0467409Y0204284D01*
X0467409Y0202332D01*
X0465457Y0202332D01*
X0465457Y0202819D02*
X0467409Y0202819D01*
X0467409Y0203306D02*
X0465457Y0203306D01*
X0465457Y0203793D02*
X0467409Y0203793D01*
X0467409Y0204280D02*
X0465457Y0204280D01*
X0465457Y0205875D02*
X0465457Y0207827D01*
X0467409Y0207827D01*
X0467409Y0205875D01*
X0465457Y0205875D01*
X0465457Y0206362D02*
X0467409Y0206362D01*
X0467409Y0206849D02*
X0465457Y0206849D01*
X0465457Y0207336D02*
X0467409Y0207336D01*
X0467409Y0207823D02*
X0465457Y0207823D01*
X0470457Y0207827D02*
X0470457Y0205875D01*
X0470457Y0207827D02*
X0472409Y0207827D01*
X0472409Y0205875D01*
X0470457Y0205875D01*
X0470457Y0206362D02*
X0472409Y0206362D01*
X0472409Y0206849D02*
X0470457Y0206849D01*
X0470457Y0207336D02*
X0472409Y0207336D01*
X0472409Y0207823D02*
X0470457Y0207823D01*
X0470457Y0204284D02*
X0470457Y0202332D01*
X0470457Y0204284D02*
X0472409Y0204284D01*
X0472409Y0202332D01*
X0470457Y0202332D01*
X0470457Y0202819D02*
X0472409Y0202819D01*
X0472409Y0203306D02*
X0470457Y0203306D01*
X0470457Y0203793D02*
X0472409Y0203793D01*
X0472409Y0204280D02*
X0470457Y0204280D01*
X0477409Y0204284D02*
X0477409Y0202332D01*
X0475457Y0202332D01*
X0475457Y0204284D01*
X0477409Y0204284D01*
X0477409Y0202819D02*
X0475457Y0202819D01*
X0475457Y0203306D02*
X0477409Y0203306D01*
X0477409Y0203793D02*
X0475457Y0203793D01*
X0475457Y0204280D02*
X0477409Y0204280D01*
X0477409Y0205875D02*
X0477409Y0207827D01*
X0477409Y0205875D02*
X0475457Y0205875D01*
X0475457Y0207827D01*
X0477409Y0207827D01*
X0477409Y0206362D02*
X0475457Y0206362D01*
X0475457Y0206849D02*
X0477409Y0206849D01*
X0477409Y0207336D02*
X0475457Y0207336D01*
X0475457Y0207823D02*
X0477409Y0207823D01*
X0482409Y0207827D02*
X0482409Y0205875D01*
X0480457Y0205875D01*
X0480457Y0207827D01*
X0482409Y0207827D01*
X0482409Y0206362D02*
X0480457Y0206362D01*
X0480457Y0206849D02*
X0482409Y0206849D01*
X0482409Y0207336D02*
X0480457Y0207336D01*
X0480457Y0207823D02*
X0482409Y0207823D01*
X0485457Y0207827D02*
X0485457Y0205875D01*
X0485457Y0207827D02*
X0487409Y0207827D01*
X0487409Y0205875D01*
X0485457Y0205875D01*
X0485457Y0206362D02*
X0487409Y0206362D01*
X0487409Y0206849D02*
X0485457Y0206849D01*
X0485457Y0207336D02*
X0487409Y0207336D01*
X0487409Y0207823D02*
X0485457Y0207823D01*
X0485457Y0204284D02*
X0485457Y0202332D01*
X0485457Y0204284D02*
X0487409Y0204284D01*
X0487409Y0202332D01*
X0485457Y0202332D01*
X0485457Y0202819D02*
X0487409Y0202819D01*
X0487409Y0203306D02*
X0485457Y0203306D01*
X0485457Y0203793D02*
X0487409Y0203793D01*
X0487409Y0204280D02*
X0485457Y0204280D01*
X0482409Y0204284D02*
X0482409Y0202332D01*
X0480457Y0202332D01*
X0480457Y0204284D01*
X0482409Y0204284D01*
X0482409Y0202819D02*
X0480457Y0202819D01*
X0480457Y0203306D02*
X0482409Y0203306D01*
X0482409Y0203793D02*
X0480457Y0203793D01*
X0480457Y0204280D02*
X0482409Y0204280D01*
X0490457Y0204284D02*
X0490457Y0202332D01*
X0490457Y0204284D02*
X0492409Y0204284D01*
X0492409Y0202332D01*
X0490457Y0202332D01*
X0490457Y0202819D02*
X0492409Y0202819D01*
X0492409Y0203306D02*
X0490457Y0203306D01*
X0490457Y0203793D02*
X0492409Y0203793D01*
X0492409Y0204280D02*
X0490457Y0204280D01*
X0490457Y0205875D02*
X0490457Y0207827D01*
X0492409Y0207827D01*
X0492409Y0205875D01*
X0490457Y0205875D01*
X0490457Y0206362D02*
X0492409Y0206362D01*
X0492409Y0206849D02*
X0490457Y0206849D01*
X0490457Y0207336D02*
X0492409Y0207336D01*
X0492409Y0207823D02*
X0490457Y0207823D01*
D11*
X0376728Y0250670D02*
X0376728Y0251772D01*
X0376728Y0250670D02*
X0369918Y0250670D01*
X0369918Y0251772D01*
X0376728Y0251772D01*
X0376728Y0250945D02*
X0369918Y0250945D01*
X0369918Y0251220D02*
X0376728Y0251220D01*
X0376728Y0251495D02*
X0369918Y0251495D01*
X0369918Y0251770D02*
X0376728Y0251770D01*
X0376728Y0252639D02*
X0376728Y0253741D01*
X0376728Y0252639D02*
X0369918Y0252639D01*
X0369918Y0253741D01*
X0376728Y0253741D01*
X0376728Y0252914D02*
X0369918Y0252914D01*
X0369918Y0253189D02*
X0376728Y0253189D01*
X0376728Y0253464D02*
X0369918Y0253464D01*
X0369918Y0253739D02*
X0376728Y0253739D01*
X0376728Y0254607D02*
X0376728Y0255709D01*
X0376728Y0254607D02*
X0369918Y0254607D01*
X0369918Y0255709D01*
X0376728Y0255709D01*
X0376728Y0254882D02*
X0369918Y0254882D01*
X0369918Y0255157D02*
X0376728Y0255157D01*
X0376728Y0255432D02*
X0369918Y0255432D01*
X0369918Y0255707D02*
X0376728Y0255707D01*
X0376728Y0256576D02*
X0376728Y0257678D01*
X0376728Y0256576D02*
X0369918Y0256576D01*
X0369918Y0257678D01*
X0376728Y0257678D01*
X0376728Y0256851D02*
X0369918Y0256851D01*
X0369918Y0257126D02*
X0376728Y0257126D01*
X0376728Y0257401D02*
X0369918Y0257401D01*
X0369918Y0257676D02*
X0376728Y0257676D01*
X0376728Y0258544D02*
X0376728Y0259646D01*
X0376728Y0258544D02*
X0369918Y0258544D01*
X0369918Y0259646D01*
X0376728Y0259646D01*
X0376728Y0258819D02*
X0369918Y0258819D01*
X0369918Y0259094D02*
X0376728Y0259094D01*
X0376728Y0259369D02*
X0369918Y0259369D01*
X0369918Y0259644D02*
X0376728Y0259644D01*
X0376728Y0260513D02*
X0376728Y0261615D01*
X0376728Y0260513D02*
X0369918Y0260513D01*
X0369918Y0261615D01*
X0376728Y0261615D01*
X0376728Y0260788D02*
X0369918Y0260788D01*
X0369918Y0261063D02*
X0376728Y0261063D01*
X0376728Y0261338D02*
X0369918Y0261338D01*
X0369918Y0261613D02*
X0376728Y0261613D01*
X0376728Y0262481D02*
X0376728Y0263583D01*
X0376728Y0262481D02*
X0369918Y0262481D01*
X0369918Y0263583D01*
X0376728Y0263583D01*
X0376728Y0262756D02*
X0369918Y0262756D01*
X0369918Y0263031D02*
X0376728Y0263031D01*
X0376728Y0263306D02*
X0369918Y0263306D01*
X0369918Y0263581D02*
X0376728Y0263581D01*
X0376728Y0264450D02*
X0376728Y0265552D01*
X0376728Y0264450D02*
X0369918Y0264450D01*
X0369918Y0265552D01*
X0376728Y0265552D01*
X0376728Y0264725D02*
X0369918Y0264725D01*
X0369918Y0265000D02*
X0376728Y0265000D01*
X0376728Y0265275D02*
X0369918Y0265275D01*
X0369918Y0265550D02*
X0376728Y0265550D01*
X0376728Y0266418D02*
X0376728Y0267520D01*
X0376728Y0266418D02*
X0369918Y0266418D01*
X0369918Y0267520D01*
X0376728Y0267520D01*
X0376728Y0266693D02*
X0369918Y0266693D01*
X0369918Y0266968D02*
X0376728Y0266968D01*
X0376728Y0267243D02*
X0369918Y0267243D01*
X0369918Y0267518D02*
X0376728Y0267518D01*
X0376728Y0268387D02*
X0376728Y0269489D01*
X0376728Y0268387D02*
X0369918Y0268387D01*
X0369918Y0269489D01*
X0376728Y0269489D01*
X0376728Y0268662D02*
X0369918Y0268662D01*
X0369918Y0268937D02*
X0376728Y0268937D01*
X0376728Y0269212D02*
X0369918Y0269212D01*
X0369918Y0269487D02*
X0376728Y0269487D01*
X0362948Y0269489D02*
X0362948Y0268387D01*
X0356138Y0268387D01*
X0356138Y0269489D01*
X0362948Y0269489D01*
X0362948Y0268662D02*
X0356138Y0268662D01*
X0356138Y0268937D02*
X0362948Y0268937D01*
X0362948Y0269212D02*
X0356138Y0269212D01*
X0356138Y0269487D02*
X0362948Y0269487D01*
X0362948Y0267520D02*
X0362948Y0266418D01*
X0356138Y0266418D01*
X0356138Y0267520D01*
X0362948Y0267520D01*
X0362948Y0266693D02*
X0356138Y0266693D01*
X0356138Y0266968D02*
X0362948Y0266968D01*
X0362948Y0267243D02*
X0356138Y0267243D01*
X0356138Y0267518D02*
X0362948Y0267518D01*
X0362948Y0265552D02*
X0362948Y0264450D01*
X0356138Y0264450D01*
X0356138Y0265552D01*
X0362948Y0265552D01*
X0362948Y0264725D02*
X0356138Y0264725D01*
X0356138Y0265000D02*
X0362948Y0265000D01*
X0362948Y0265275D02*
X0356138Y0265275D01*
X0356138Y0265550D02*
X0362948Y0265550D01*
X0362948Y0263583D02*
X0362948Y0262481D01*
X0356138Y0262481D01*
X0356138Y0263583D01*
X0362948Y0263583D01*
X0362948Y0262756D02*
X0356138Y0262756D01*
X0356138Y0263031D02*
X0362948Y0263031D01*
X0362948Y0263306D02*
X0356138Y0263306D01*
X0356138Y0263581D02*
X0362948Y0263581D01*
X0362948Y0261615D02*
X0362948Y0260513D01*
X0356138Y0260513D01*
X0356138Y0261615D01*
X0362948Y0261615D01*
X0362948Y0260788D02*
X0356138Y0260788D01*
X0356138Y0261063D02*
X0362948Y0261063D01*
X0362948Y0261338D02*
X0356138Y0261338D01*
X0356138Y0261613D02*
X0362948Y0261613D01*
X0362948Y0259646D02*
X0362948Y0258544D01*
X0356138Y0258544D01*
X0356138Y0259646D01*
X0362948Y0259646D01*
X0362948Y0258819D02*
X0356138Y0258819D01*
X0356138Y0259094D02*
X0362948Y0259094D01*
X0362948Y0259369D02*
X0356138Y0259369D01*
X0356138Y0259644D02*
X0362948Y0259644D01*
X0362948Y0257678D02*
X0362948Y0256576D01*
X0356138Y0256576D01*
X0356138Y0257678D01*
X0362948Y0257678D01*
X0362948Y0256851D02*
X0356138Y0256851D01*
X0356138Y0257126D02*
X0362948Y0257126D01*
X0362948Y0257401D02*
X0356138Y0257401D01*
X0356138Y0257676D02*
X0362948Y0257676D01*
X0362948Y0255709D02*
X0362948Y0254607D01*
X0356138Y0254607D01*
X0356138Y0255709D01*
X0362948Y0255709D01*
X0362948Y0254882D02*
X0356138Y0254882D01*
X0356138Y0255157D02*
X0362948Y0255157D01*
X0362948Y0255432D02*
X0356138Y0255432D01*
X0356138Y0255707D02*
X0362948Y0255707D01*
X0362948Y0253741D02*
X0362948Y0252639D01*
X0356138Y0252639D01*
X0356138Y0253741D01*
X0362948Y0253741D01*
X0362948Y0252914D02*
X0356138Y0252914D01*
X0356138Y0253189D02*
X0362948Y0253189D01*
X0362948Y0253464D02*
X0356138Y0253464D01*
X0356138Y0253739D02*
X0362948Y0253739D01*
X0362948Y0251772D02*
X0362948Y0250670D01*
X0356138Y0250670D01*
X0356138Y0251772D01*
X0362948Y0251772D01*
X0362948Y0250945D02*
X0356138Y0250945D01*
X0356138Y0251220D02*
X0362948Y0251220D01*
X0362948Y0251495D02*
X0356138Y0251495D01*
X0356138Y0251770D02*
X0362948Y0251770D01*
X0154918Y0159489D02*
X0154918Y0158387D01*
X0154918Y0159489D02*
X0161728Y0159489D01*
X0161728Y0158387D01*
X0154918Y0158387D01*
X0154918Y0158662D02*
X0161728Y0158662D01*
X0161728Y0158937D02*
X0154918Y0158937D01*
X0154918Y0159212D02*
X0161728Y0159212D01*
X0161728Y0159487D02*
X0154918Y0159487D01*
X0154918Y0157520D02*
X0154918Y0156418D01*
X0154918Y0157520D02*
X0161728Y0157520D01*
X0161728Y0156418D01*
X0154918Y0156418D01*
X0154918Y0156693D02*
X0161728Y0156693D01*
X0161728Y0156968D02*
X0154918Y0156968D01*
X0154918Y0157243D02*
X0161728Y0157243D01*
X0161728Y0157518D02*
X0154918Y0157518D01*
X0154918Y0155552D02*
X0154918Y0154450D01*
X0154918Y0155552D02*
X0161728Y0155552D01*
X0161728Y0154450D01*
X0154918Y0154450D01*
X0154918Y0154725D02*
X0161728Y0154725D01*
X0161728Y0155000D02*
X0154918Y0155000D01*
X0154918Y0155275D02*
X0161728Y0155275D01*
X0161728Y0155550D02*
X0154918Y0155550D01*
X0154918Y0153583D02*
X0154918Y0152481D01*
X0154918Y0153583D02*
X0161728Y0153583D01*
X0161728Y0152481D01*
X0154918Y0152481D01*
X0154918Y0152756D02*
X0161728Y0152756D01*
X0161728Y0153031D02*
X0154918Y0153031D01*
X0154918Y0153306D02*
X0161728Y0153306D01*
X0161728Y0153581D02*
X0154918Y0153581D01*
X0154918Y0151615D02*
X0154918Y0150513D01*
X0154918Y0151615D02*
X0161728Y0151615D01*
X0161728Y0150513D01*
X0154918Y0150513D01*
X0154918Y0150788D02*
X0161728Y0150788D01*
X0161728Y0151063D02*
X0154918Y0151063D01*
X0154918Y0151338D02*
X0161728Y0151338D01*
X0161728Y0151613D02*
X0154918Y0151613D01*
X0154918Y0149646D02*
X0154918Y0148544D01*
X0154918Y0149646D02*
X0161728Y0149646D01*
X0161728Y0148544D01*
X0154918Y0148544D01*
X0154918Y0148819D02*
X0161728Y0148819D01*
X0161728Y0149094D02*
X0154918Y0149094D01*
X0154918Y0149369D02*
X0161728Y0149369D01*
X0161728Y0149644D02*
X0154918Y0149644D01*
X0154918Y0147678D02*
X0154918Y0146576D01*
X0154918Y0147678D02*
X0161728Y0147678D01*
X0161728Y0146576D01*
X0154918Y0146576D01*
X0154918Y0146851D02*
X0161728Y0146851D01*
X0161728Y0147126D02*
X0154918Y0147126D01*
X0154918Y0147401D02*
X0161728Y0147401D01*
X0161728Y0147676D02*
X0154918Y0147676D01*
X0154918Y0145709D02*
X0154918Y0144607D01*
X0154918Y0145709D02*
X0161728Y0145709D01*
X0161728Y0144607D01*
X0154918Y0144607D01*
X0154918Y0144882D02*
X0161728Y0144882D01*
X0161728Y0145157D02*
X0154918Y0145157D01*
X0154918Y0145432D02*
X0161728Y0145432D01*
X0161728Y0145707D02*
X0154918Y0145707D01*
X0154918Y0143741D02*
X0154918Y0142639D01*
X0154918Y0143741D02*
X0161728Y0143741D01*
X0161728Y0142639D01*
X0154918Y0142639D01*
X0154918Y0142914D02*
X0161728Y0142914D01*
X0161728Y0143189D02*
X0154918Y0143189D01*
X0154918Y0143464D02*
X0161728Y0143464D01*
X0161728Y0143739D02*
X0154918Y0143739D01*
X0154918Y0141772D02*
X0154918Y0140670D01*
X0154918Y0141772D02*
X0161728Y0141772D01*
X0161728Y0140670D01*
X0154918Y0140670D01*
X0154918Y0140945D02*
X0161728Y0140945D01*
X0161728Y0141220D02*
X0154918Y0141220D01*
X0154918Y0141495D02*
X0161728Y0141495D01*
X0161728Y0141770D02*
X0154918Y0141770D01*
X0141138Y0141772D02*
X0141138Y0140670D01*
X0141138Y0141772D02*
X0147948Y0141772D01*
X0147948Y0140670D01*
X0141138Y0140670D01*
X0141138Y0140945D02*
X0147948Y0140945D01*
X0147948Y0141220D02*
X0141138Y0141220D01*
X0141138Y0141495D02*
X0147948Y0141495D01*
X0147948Y0141770D02*
X0141138Y0141770D01*
X0141138Y0142639D02*
X0141138Y0143741D01*
X0147948Y0143741D01*
X0147948Y0142639D01*
X0141138Y0142639D01*
X0141138Y0142914D02*
X0147948Y0142914D01*
X0147948Y0143189D02*
X0141138Y0143189D01*
X0141138Y0143464D02*
X0147948Y0143464D01*
X0147948Y0143739D02*
X0141138Y0143739D01*
X0141138Y0144607D02*
X0141138Y0145709D01*
X0147948Y0145709D01*
X0147948Y0144607D01*
X0141138Y0144607D01*
X0141138Y0144882D02*
X0147948Y0144882D01*
X0147948Y0145157D02*
X0141138Y0145157D01*
X0141138Y0145432D02*
X0147948Y0145432D01*
X0147948Y0145707D02*
X0141138Y0145707D01*
X0141138Y0146576D02*
X0141138Y0147678D01*
X0147948Y0147678D01*
X0147948Y0146576D01*
X0141138Y0146576D01*
X0141138Y0146851D02*
X0147948Y0146851D01*
X0147948Y0147126D02*
X0141138Y0147126D01*
X0141138Y0147401D02*
X0147948Y0147401D01*
X0147948Y0147676D02*
X0141138Y0147676D01*
X0141138Y0148544D02*
X0141138Y0149646D01*
X0147948Y0149646D01*
X0147948Y0148544D01*
X0141138Y0148544D01*
X0141138Y0148819D02*
X0147948Y0148819D01*
X0147948Y0149094D02*
X0141138Y0149094D01*
X0141138Y0149369D02*
X0147948Y0149369D01*
X0147948Y0149644D02*
X0141138Y0149644D01*
X0141138Y0150513D02*
X0141138Y0151615D01*
X0147948Y0151615D01*
X0147948Y0150513D01*
X0141138Y0150513D01*
X0141138Y0150788D02*
X0147948Y0150788D01*
X0147948Y0151063D02*
X0141138Y0151063D01*
X0141138Y0151338D02*
X0147948Y0151338D01*
X0147948Y0151613D02*
X0141138Y0151613D01*
X0141138Y0152481D02*
X0141138Y0153583D01*
X0147948Y0153583D01*
X0147948Y0152481D01*
X0141138Y0152481D01*
X0141138Y0152756D02*
X0147948Y0152756D01*
X0147948Y0153031D02*
X0141138Y0153031D01*
X0141138Y0153306D02*
X0147948Y0153306D01*
X0147948Y0153581D02*
X0141138Y0153581D01*
X0141138Y0154450D02*
X0141138Y0155552D01*
X0147948Y0155552D01*
X0147948Y0154450D01*
X0141138Y0154450D01*
X0141138Y0154725D02*
X0147948Y0154725D01*
X0147948Y0155000D02*
X0141138Y0155000D01*
X0141138Y0155275D02*
X0147948Y0155275D01*
X0147948Y0155550D02*
X0141138Y0155550D01*
X0141138Y0156418D02*
X0141138Y0157520D01*
X0147948Y0157520D01*
X0147948Y0156418D01*
X0141138Y0156418D01*
X0141138Y0156693D02*
X0147948Y0156693D01*
X0147948Y0156968D02*
X0141138Y0156968D01*
X0141138Y0157243D02*
X0147948Y0157243D01*
X0147948Y0157518D02*
X0141138Y0157518D01*
X0141138Y0158387D02*
X0141138Y0159489D01*
X0147948Y0159489D01*
X0147948Y0158387D01*
X0141138Y0158387D01*
X0141138Y0158662D02*
X0147948Y0158662D01*
X0147948Y0158937D02*
X0141138Y0158937D01*
X0141138Y0159212D02*
X0147948Y0159212D01*
X0147948Y0159487D02*
X0141138Y0159487D01*
D12*
X0148205Y0135788D02*
X0154661Y0135788D01*
X0154661Y0133268D01*
X0148205Y0133268D01*
X0148205Y0135788D01*
X0148205Y0133897D02*
X0154661Y0133897D01*
X0154661Y0134526D02*
X0148205Y0134526D01*
X0148205Y0135155D02*
X0154661Y0135155D01*
X0154661Y0135784D02*
X0148205Y0135784D01*
X0148205Y0166891D02*
X0154661Y0166891D01*
X0154661Y0164371D01*
X0148205Y0164371D01*
X0148205Y0166891D01*
X0148205Y0165000D02*
X0154661Y0165000D01*
X0154661Y0165629D02*
X0148205Y0165629D01*
X0148205Y0166258D02*
X0154661Y0166258D01*
X0154661Y0166887D02*
X0148205Y0166887D01*
X0363205Y0243268D02*
X0369661Y0243268D01*
X0363205Y0243268D02*
X0363205Y0245788D01*
X0369661Y0245788D01*
X0369661Y0243268D01*
X0369661Y0243897D02*
X0363205Y0243897D01*
X0363205Y0244526D02*
X0369661Y0244526D01*
X0369661Y0245155D02*
X0363205Y0245155D01*
X0363205Y0245784D02*
X0369661Y0245784D01*
X0369661Y0274371D02*
X0363205Y0274371D01*
X0363205Y0276891D01*
X0369661Y0276891D01*
X0369661Y0274371D01*
X0369661Y0275000D02*
X0363205Y0275000D01*
X0363205Y0275629D02*
X0369661Y0275629D01*
X0369661Y0276258D02*
X0363205Y0276258D01*
X0363205Y0276887D02*
X0369661Y0276887D01*
D13*
X0082476Y0287116D02*
X0080508Y0287116D01*
X0082476Y0287116D02*
X0082476Y0285542D01*
X0080508Y0285542D01*
X0080508Y0287116D01*
X0080508Y0285935D02*
X0082476Y0285935D01*
X0082476Y0286328D02*
X0080508Y0286328D01*
X0080508Y0286721D02*
X0082476Y0286721D01*
X0082476Y0287114D02*
X0080508Y0287114D01*
X0077358Y0289085D02*
X0075390Y0289085D01*
X0077358Y0289085D02*
X0077358Y0287511D01*
X0075390Y0287511D01*
X0075390Y0289085D01*
X0075390Y0287904D02*
X0077358Y0287904D01*
X0077358Y0288297D02*
X0075390Y0288297D01*
X0075390Y0288690D02*
X0077358Y0288690D01*
X0077358Y0289083D02*
X0075390Y0289083D01*
X0075390Y0285148D02*
X0077358Y0285148D01*
X0077358Y0283574D01*
X0075390Y0283574D01*
X0075390Y0285148D01*
X0075390Y0283967D02*
X0077358Y0283967D01*
X0077358Y0284360D02*
X0075390Y0284360D01*
X0075390Y0284753D02*
X0077358Y0284753D01*
X0077358Y0285146D02*
X0075390Y0285146D01*
D14*
X0094051Y0213761D02*
X0094681Y0213761D01*
X0094681Y0211359D01*
X0094051Y0211359D01*
X0094051Y0213761D01*
X0094051Y0211515D02*
X0094681Y0211515D01*
X0094681Y0211671D02*
X0094051Y0211671D01*
X0094051Y0211827D02*
X0094681Y0211827D01*
X0094681Y0211983D02*
X0094051Y0211983D01*
X0094051Y0212139D02*
X0094681Y0212139D01*
X0094681Y0212295D02*
X0094051Y0212295D01*
X0094051Y0212451D02*
X0094681Y0212451D01*
X0094681Y0212607D02*
X0094051Y0212607D01*
X0094051Y0212763D02*
X0094681Y0212763D01*
X0094681Y0212919D02*
X0094051Y0212919D01*
X0094051Y0213075D02*
X0094681Y0213075D01*
X0094681Y0213231D02*
X0094051Y0213231D01*
X0094051Y0213387D02*
X0094681Y0213387D01*
X0094681Y0213543D02*
X0094051Y0213543D01*
X0094051Y0213699D02*
X0094681Y0213699D01*
X0095626Y0213761D02*
X0096256Y0213761D01*
X0096256Y0211359D01*
X0095626Y0211359D01*
X0095626Y0213761D01*
X0095626Y0211515D02*
X0096256Y0211515D01*
X0096256Y0211671D02*
X0095626Y0211671D01*
X0095626Y0211827D02*
X0096256Y0211827D01*
X0096256Y0211983D02*
X0095626Y0211983D01*
X0095626Y0212139D02*
X0096256Y0212139D01*
X0096256Y0212295D02*
X0095626Y0212295D01*
X0095626Y0212451D02*
X0096256Y0212451D01*
X0096256Y0212607D02*
X0095626Y0212607D01*
X0095626Y0212763D02*
X0096256Y0212763D01*
X0096256Y0212919D02*
X0095626Y0212919D01*
X0095626Y0213075D02*
X0096256Y0213075D01*
X0096256Y0213231D02*
X0095626Y0213231D01*
X0095626Y0213387D02*
X0096256Y0213387D01*
X0096256Y0213543D02*
X0095626Y0213543D01*
X0095626Y0213699D02*
X0096256Y0213699D01*
X0097201Y0213761D02*
X0097831Y0213761D01*
X0097831Y0211359D01*
X0097201Y0211359D01*
X0097201Y0213761D01*
X0097201Y0211515D02*
X0097831Y0211515D01*
X0097831Y0211671D02*
X0097201Y0211671D01*
X0097201Y0211827D02*
X0097831Y0211827D01*
X0097831Y0211983D02*
X0097201Y0211983D01*
X0097201Y0212139D02*
X0097831Y0212139D01*
X0097831Y0212295D02*
X0097201Y0212295D01*
X0097201Y0212451D02*
X0097831Y0212451D01*
X0097831Y0212607D02*
X0097201Y0212607D01*
X0097201Y0212763D02*
X0097831Y0212763D01*
X0097831Y0212919D02*
X0097201Y0212919D01*
X0097201Y0213075D02*
X0097831Y0213075D01*
X0097831Y0213231D02*
X0097201Y0213231D01*
X0097201Y0213387D02*
X0097831Y0213387D01*
X0097831Y0213543D02*
X0097201Y0213543D01*
X0097201Y0213699D02*
X0097831Y0213699D01*
X0098776Y0213761D02*
X0099406Y0213761D01*
X0099406Y0211359D01*
X0098776Y0211359D01*
X0098776Y0213761D01*
X0098776Y0211515D02*
X0099406Y0211515D01*
X0099406Y0211671D02*
X0098776Y0211671D01*
X0098776Y0211827D02*
X0099406Y0211827D01*
X0099406Y0211983D02*
X0098776Y0211983D01*
X0098776Y0212139D02*
X0099406Y0212139D01*
X0099406Y0212295D02*
X0098776Y0212295D01*
X0098776Y0212451D02*
X0099406Y0212451D01*
X0099406Y0212607D02*
X0098776Y0212607D01*
X0098776Y0212763D02*
X0099406Y0212763D01*
X0099406Y0212919D02*
X0098776Y0212919D01*
X0098776Y0213075D02*
X0099406Y0213075D01*
X0099406Y0213231D02*
X0098776Y0213231D01*
X0098776Y0213387D02*
X0099406Y0213387D01*
X0099406Y0213543D02*
X0098776Y0213543D01*
X0098776Y0213699D02*
X0099406Y0213699D01*
X0100350Y0213761D02*
X0100980Y0213761D01*
X0100980Y0211359D01*
X0100350Y0211359D01*
X0100350Y0213761D01*
X0100350Y0211515D02*
X0100980Y0211515D01*
X0100980Y0211671D02*
X0100350Y0211671D01*
X0100350Y0211827D02*
X0100980Y0211827D01*
X0100980Y0211983D02*
X0100350Y0211983D01*
X0100350Y0212139D02*
X0100980Y0212139D01*
X0100980Y0212295D02*
X0100350Y0212295D01*
X0100350Y0212451D02*
X0100980Y0212451D01*
X0100980Y0212607D02*
X0100350Y0212607D01*
X0100350Y0212763D02*
X0100980Y0212763D01*
X0100980Y0212919D02*
X0100350Y0212919D01*
X0100350Y0213075D02*
X0100980Y0213075D01*
X0100980Y0213231D02*
X0100350Y0213231D01*
X0100350Y0213387D02*
X0100980Y0213387D01*
X0100980Y0213543D02*
X0100350Y0213543D01*
X0100350Y0213699D02*
X0100980Y0213699D01*
X0101925Y0213761D02*
X0102555Y0213761D01*
X0102555Y0211359D01*
X0101925Y0211359D01*
X0101925Y0213761D01*
X0101925Y0211515D02*
X0102555Y0211515D01*
X0102555Y0211671D02*
X0101925Y0211671D01*
X0101925Y0211827D02*
X0102555Y0211827D01*
X0102555Y0211983D02*
X0101925Y0211983D01*
X0101925Y0212139D02*
X0102555Y0212139D01*
X0102555Y0212295D02*
X0101925Y0212295D01*
X0101925Y0212451D02*
X0102555Y0212451D01*
X0102555Y0212607D02*
X0101925Y0212607D01*
X0101925Y0212763D02*
X0102555Y0212763D01*
X0102555Y0212919D02*
X0101925Y0212919D01*
X0101925Y0213075D02*
X0102555Y0213075D01*
X0102555Y0213231D02*
X0101925Y0213231D01*
X0101925Y0213387D02*
X0102555Y0213387D01*
X0102555Y0213543D02*
X0101925Y0213543D01*
X0101925Y0213699D02*
X0102555Y0213699D01*
X0103500Y0213761D02*
X0104130Y0213761D01*
X0104130Y0211359D01*
X0103500Y0211359D01*
X0103500Y0213761D01*
X0103500Y0211515D02*
X0104130Y0211515D01*
X0104130Y0211671D02*
X0103500Y0211671D01*
X0103500Y0211827D02*
X0104130Y0211827D01*
X0104130Y0211983D02*
X0103500Y0211983D01*
X0103500Y0212139D02*
X0104130Y0212139D01*
X0104130Y0212295D02*
X0103500Y0212295D01*
X0103500Y0212451D02*
X0104130Y0212451D01*
X0104130Y0212607D02*
X0103500Y0212607D01*
X0103500Y0212763D02*
X0104130Y0212763D01*
X0104130Y0212919D02*
X0103500Y0212919D01*
X0103500Y0213075D02*
X0104130Y0213075D01*
X0104130Y0213231D02*
X0103500Y0213231D01*
X0103500Y0213387D02*
X0104130Y0213387D01*
X0104130Y0213543D02*
X0103500Y0213543D01*
X0103500Y0213699D02*
X0104130Y0213699D01*
X0107772Y0210119D02*
X0107772Y0209489D01*
X0105370Y0209489D01*
X0105370Y0210119D01*
X0107772Y0210119D01*
X0107772Y0209645D02*
X0105370Y0209645D01*
X0105370Y0209801D02*
X0107772Y0209801D01*
X0107772Y0209957D02*
X0105370Y0209957D01*
X0105370Y0210113D02*
X0107772Y0210113D01*
X0107772Y0208544D02*
X0107772Y0207914D01*
X0105370Y0207914D01*
X0105370Y0208544D01*
X0107772Y0208544D01*
X0107772Y0208070D02*
X0105370Y0208070D01*
X0105370Y0208226D02*
X0107772Y0208226D01*
X0107772Y0208382D02*
X0105370Y0208382D01*
X0105370Y0208538D02*
X0107772Y0208538D01*
X0107772Y0206969D02*
X0107772Y0206339D01*
X0105370Y0206339D01*
X0105370Y0206969D01*
X0107772Y0206969D01*
X0107772Y0206495D02*
X0105370Y0206495D01*
X0105370Y0206651D02*
X0107772Y0206651D01*
X0107772Y0206807D02*
X0105370Y0206807D01*
X0105370Y0206963D02*
X0107772Y0206963D01*
X0107772Y0205394D02*
X0107772Y0204764D01*
X0105370Y0204764D01*
X0105370Y0205394D01*
X0107772Y0205394D01*
X0107772Y0204920D02*
X0105370Y0204920D01*
X0105370Y0205076D02*
X0107772Y0205076D01*
X0107772Y0205232D02*
X0105370Y0205232D01*
X0105370Y0205388D02*
X0107772Y0205388D01*
X0107772Y0203820D02*
X0107772Y0203190D01*
X0105370Y0203190D01*
X0105370Y0203820D01*
X0107772Y0203820D01*
X0107772Y0203346D02*
X0105370Y0203346D01*
X0105370Y0203502D02*
X0107772Y0203502D01*
X0107772Y0203658D02*
X0105370Y0203658D01*
X0105370Y0203814D02*
X0107772Y0203814D01*
X0107772Y0202245D02*
X0107772Y0201615D01*
X0105370Y0201615D01*
X0105370Y0202245D01*
X0107772Y0202245D01*
X0107772Y0201771D02*
X0105370Y0201771D01*
X0105370Y0201927D02*
X0107772Y0201927D01*
X0107772Y0202083D02*
X0105370Y0202083D01*
X0105370Y0202239D02*
X0107772Y0202239D01*
X0107772Y0200670D02*
X0107772Y0200040D01*
X0105370Y0200040D01*
X0105370Y0200670D01*
X0107772Y0200670D01*
X0107772Y0200196D02*
X0105370Y0200196D01*
X0105370Y0200352D02*
X0107772Y0200352D01*
X0107772Y0200508D02*
X0105370Y0200508D01*
X0105370Y0200664D02*
X0107772Y0200664D01*
X0104130Y0198800D02*
X0103500Y0198800D01*
X0104130Y0198800D02*
X0104130Y0196398D01*
X0103500Y0196398D01*
X0103500Y0198800D01*
X0103500Y0196554D02*
X0104130Y0196554D01*
X0104130Y0196710D02*
X0103500Y0196710D01*
X0103500Y0196866D02*
X0104130Y0196866D01*
X0104130Y0197022D02*
X0103500Y0197022D01*
X0103500Y0197178D02*
X0104130Y0197178D01*
X0104130Y0197334D02*
X0103500Y0197334D01*
X0103500Y0197490D02*
X0104130Y0197490D01*
X0104130Y0197646D02*
X0103500Y0197646D01*
X0103500Y0197802D02*
X0104130Y0197802D01*
X0104130Y0197958D02*
X0103500Y0197958D01*
X0103500Y0198114D02*
X0104130Y0198114D01*
X0104130Y0198270D02*
X0103500Y0198270D01*
X0103500Y0198426D02*
X0104130Y0198426D01*
X0104130Y0198582D02*
X0103500Y0198582D01*
X0103500Y0198738D02*
X0104130Y0198738D01*
X0102555Y0198800D02*
X0101925Y0198800D01*
X0102555Y0198800D02*
X0102555Y0196398D01*
X0101925Y0196398D01*
X0101925Y0198800D01*
X0101925Y0196554D02*
X0102555Y0196554D01*
X0102555Y0196710D02*
X0101925Y0196710D01*
X0101925Y0196866D02*
X0102555Y0196866D01*
X0102555Y0197022D02*
X0101925Y0197022D01*
X0101925Y0197178D02*
X0102555Y0197178D01*
X0102555Y0197334D02*
X0101925Y0197334D01*
X0101925Y0197490D02*
X0102555Y0197490D01*
X0102555Y0197646D02*
X0101925Y0197646D01*
X0101925Y0197802D02*
X0102555Y0197802D01*
X0102555Y0197958D02*
X0101925Y0197958D01*
X0101925Y0198114D02*
X0102555Y0198114D01*
X0102555Y0198270D02*
X0101925Y0198270D01*
X0101925Y0198426D02*
X0102555Y0198426D01*
X0102555Y0198582D02*
X0101925Y0198582D01*
X0101925Y0198738D02*
X0102555Y0198738D01*
X0100980Y0198800D02*
X0100350Y0198800D01*
X0100980Y0198800D02*
X0100980Y0196398D01*
X0100350Y0196398D01*
X0100350Y0198800D01*
X0100350Y0196554D02*
X0100980Y0196554D01*
X0100980Y0196710D02*
X0100350Y0196710D01*
X0100350Y0196866D02*
X0100980Y0196866D01*
X0100980Y0197022D02*
X0100350Y0197022D01*
X0100350Y0197178D02*
X0100980Y0197178D01*
X0100980Y0197334D02*
X0100350Y0197334D01*
X0100350Y0197490D02*
X0100980Y0197490D01*
X0100980Y0197646D02*
X0100350Y0197646D01*
X0100350Y0197802D02*
X0100980Y0197802D01*
X0100980Y0197958D02*
X0100350Y0197958D01*
X0100350Y0198114D02*
X0100980Y0198114D01*
X0100980Y0198270D02*
X0100350Y0198270D01*
X0100350Y0198426D02*
X0100980Y0198426D01*
X0100980Y0198582D02*
X0100350Y0198582D01*
X0100350Y0198738D02*
X0100980Y0198738D01*
X0099406Y0198800D02*
X0098776Y0198800D01*
X0099406Y0198800D02*
X0099406Y0196398D01*
X0098776Y0196398D01*
X0098776Y0198800D01*
X0098776Y0196554D02*
X0099406Y0196554D01*
X0099406Y0196710D02*
X0098776Y0196710D01*
X0098776Y0196866D02*
X0099406Y0196866D01*
X0099406Y0197022D02*
X0098776Y0197022D01*
X0098776Y0197178D02*
X0099406Y0197178D01*
X0099406Y0197334D02*
X0098776Y0197334D01*
X0098776Y0197490D02*
X0099406Y0197490D01*
X0099406Y0197646D02*
X0098776Y0197646D01*
X0098776Y0197802D02*
X0099406Y0197802D01*
X0099406Y0197958D02*
X0098776Y0197958D01*
X0098776Y0198114D02*
X0099406Y0198114D01*
X0099406Y0198270D02*
X0098776Y0198270D01*
X0098776Y0198426D02*
X0099406Y0198426D01*
X0099406Y0198582D02*
X0098776Y0198582D01*
X0098776Y0198738D02*
X0099406Y0198738D01*
X0097831Y0198800D02*
X0097201Y0198800D01*
X0097831Y0198800D02*
X0097831Y0196398D01*
X0097201Y0196398D01*
X0097201Y0198800D01*
X0097201Y0196554D02*
X0097831Y0196554D01*
X0097831Y0196710D02*
X0097201Y0196710D01*
X0097201Y0196866D02*
X0097831Y0196866D01*
X0097831Y0197022D02*
X0097201Y0197022D01*
X0097201Y0197178D02*
X0097831Y0197178D01*
X0097831Y0197334D02*
X0097201Y0197334D01*
X0097201Y0197490D02*
X0097831Y0197490D01*
X0097831Y0197646D02*
X0097201Y0197646D01*
X0097201Y0197802D02*
X0097831Y0197802D01*
X0097831Y0197958D02*
X0097201Y0197958D01*
X0097201Y0198114D02*
X0097831Y0198114D01*
X0097831Y0198270D02*
X0097201Y0198270D01*
X0097201Y0198426D02*
X0097831Y0198426D01*
X0097831Y0198582D02*
X0097201Y0198582D01*
X0097201Y0198738D02*
X0097831Y0198738D01*
X0096256Y0198800D02*
X0095626Y0198800D01*
X0096256Y0198800D02*
X0096256Y0196398D01*
X0095626Y0196398D01*
X0095626Y0198800D01*
X0095626Y0196554D02*
X0096256Y0196554D01*
X0096256Y0196710D02*
X0095626Y0196710D01*
X0095626Y0196866D02*
X0096256Y0196866D01*
X0096256Y0197022D02*
X0095626Y0197022D01*
X0095626Y0197178D02*
X0096256Y0197178D01*
X0096256Y0197334D02*
X0095626Y0197334D01*
X0095626Y0197490D02*
X0096256Y0197490D01*
X0096256Y0197646D02*
X0095626Y0197646D01*
X0095626Y0197802D02*
X0096256Y0197802D01*
X0096256Y0197958D02*
X0095626Y0197958D01*
X0095626Y0198114D02*
X0096256Y0198114D01*
X0096256Y0198270D02*
X0095626Y0198270D01*
X0095626Y0198426D02*
X0096256Y0198426D01*
X0096256Y0198582D02*
X0095626Y0198582D01*
X0095626Y0198738D02*
X0096256Y0198738D01*
X0094681Y0198800D02*
X0094051Y0198800D01*
X0094681Y0198800D02*
X0094681Y0196398D01*
X0094051Y0196398D01*
X0094051Y0198800D01*
X0094051Y0196554D02*
X0094681Y0196554D01*
X0094681Y0196710D02*
X0094051Y0196710D01*
X0094051Y0196866D02*
X0094681Y0196866D01*
X0094681Y0197022D02*
X0094051Y0197022D01*
X0094051Y0197178D02*
X0094681Y0197178D01*
X0094681Y0197334D02*
X0094051Y0197334D01*
X0094051Y0197490D02*
X0094681Y0197490D01*
X0094681Y0197646D02*
X0094051Y0197646D01*
X0094051Y0197802D02*
X0094681Y0197802D01*
X0094681Y0197958D02*
X0094051Y0197958D01*
X0094051Y0198114D02*
X0094681Y0198114D01*
X0094681Y0198270D02*
X0094051Y0198270D01*
X0094051Y0198426D02*
X0094681Y0198426D01*
X0094681Y0198582D02*
X0094051Y0198582D01*
X0094051Y0198738D02*
X0094681Y0198738D01*
X0092811Y0200040D02*
X0092811Y0200670D01*
X0092811Y0200040D02*
X0090409Y0200040D01*
X0090409Y0200670D01*
X0092811Y0200670D01*
X0092811Y0200196D02*
X0090409Y0200196D01*
X0090409Y0200352D02*
X0092811Y0200352D01*
X0092811Y0200508D02*
X0090409Y0200508D01*
X0090409Y0200664D02*
X0092811Y0200664D01*
X0092811Y0201615D02*
X0092811Y0202245D01*
X0092811Y0201615D02*
X0090409Y0201615D01*
X0090409Y0202245D01*
X0092811Y0202245D01*
X0092811Y0201771D02*
X0090409Y0201771D01*
X0090409Y0201927D02*
X0092811Y0201927D01*
X0092811Y0202083D02*
X0090409Y0202083D01*
X0090409Y0202239D02*
X0092811Y0202239D01*
X0092811Y0203190D02*
X0092811Y0203820D01*
X0092811Y0203190D02*
X0090409Y0203190D01*
X0090409Y0203820D01*
X0092811Y0203820D01*
X0092811Y0203346D02*
X0090409Y0203346D01*
X0090409Y0203502D02*
X0092811Y0203502D01*
X0092811Y0203658D02*
X0090409Y0203658D01*
X0090409Y0203814D02*
X0092811Y0203814D01*
X0092811Y0204764D02*
X0092811Y0205394D01*
X0092811Y0204764D02*
X0090409Y0204764D01*
X0090409Y0205394D01*
X0092811Y0205394D01*
X0092811Y0204920D02*
X0090409Y0204920D01*
X0090409Y0205076D02*
X0092811Y0205076D01*
X0092811Y0205232D02*
X0090409Y0205232D01*
X0090409Y0205388D02*
X0092811Y0205388D01*
X0092811Y0206339D02*
X0092811Y0206969D01*
X0092811Y0206339D02*
X0090409Y0206339D01*
X0090409Y0206969D01*
X0092811Y0206969D01*
X0092811Y0206495D02*
X0090409Y0206495D01*
X0090409Y0206651D02*
X0092811Y0206651D01*
X0092811Y0206807D02*
X0090409Y0206807D01*
X0090409Y0206963D02*
X0092811Y0206963D01*
X0092811Y0207914D02*
X0092811Y0208544D01*
X0092811Y0207914D02*
X0090409Y0207914D01*
X0090409Y0208544D01*
X0092811Y0208544D01*
X0092811Y0208070D02*
X0090409Y0208070D01*
X0090409Y0208226D02*
X0092811Y0208226D01*
X0092811Y0208382D02*
X0090409Y0208382D01*
X0090409Y0208538D02*
X0092811Y0208538D01*
X0092811Y0209489D02*
X0092811Y0210119D01*
X0092811Y0209489D02*
X0090409Y0209489D01*
X0090409Y0210119D01*
X0092811Y0210119D01*
X0092811Y0209645D02*
X0090409Y0209645D01*
X0090409Y0209801D02*
X0092811Y0209801D01*
X0092811Y0209957D02*
X0090409Y0209957D01*
X0090409Y0210113D02*
X0092811Y0210113D01*
X0410094Y0209489D02*
X0410094Y0210119D01*
X0412496Y0210119D01*
X0412496Y0209489D01*
X0410094Y0209489D01*
X0410094Y0209645D02*
X0412496Y0209645D01*
X0412496Y0209801D02*
X0410094Y0209801D01*
X0410094Y0209957D02*
X0412496Y0209957D01*
X0412496Y0210113D02*
X0410094Y0210113D01*
X0410094Y0208544D02*
X0410094Y0207914D01*
X0410094Y0208544D02*
X0412496Y0208544D01*
X0412496Y0207914D01*
X0410094Y0207914D01*
X0410094Y0208070D02*
X0412496Y0208070D01*
X0412496Y0208226D02*
X0410094Y0208226D01*
X0410094Y0208382D02*
X0412496Y0208382D01*
X0412496Y0208538D02*
X0410094Y0208538D01*
X0410094Y0206969D02*
X0410094Y0206339D01*
X0410094Y0206969D02*
X0412496Y0206969D01*
X0412496Y0206339D01*
X0410094Y0206339D01*
X0410094Y0206495D02*
X0412496Y0206495D01*
X0412496Y0206651D02*
X0410094Y0206651D01*
X0410094Y0206807D02*
X0412496Y0206807D01*
X0412496Y0206963D02*
X0410094Y0206963D01*
X0410094Y0205394D02*
X0410094Y0204764D01*
X0410094Y0205394D02*
X0412496Y0205394D01*
X0412496Y0204764D01*
X0410094Y0204764D01*
X0410094Y0204920D02*
X0412496Y0204920D01*
X0412496Y0205076D02*
X0410094Y0205076D01*
X0410094Y0205232D02*
X0412496Y0205232D01*
X0412496Y0205388D02*
X0410094Y0205388D01*
X0410094Y0203820D02*
X0410094Y0203190D01*
X0410094Y0203820D02*
X0412496Y0203820D01*
X0412496Y0203190D01*
X0410094Y0203190D01*
X0410094Y0203346D02*
X0412496Y0203346D01*
X0412496Y0203502D02*
X0410094Y0203502D01*
X0410094Y0203658D02*
X0412496Y0203658D01*
X0412496Y0203814D02*
X0410094Y0203814D01*
X0410094Y0202245D02*
X0410094Y0201615D01*
X0410094Y0202245D02*
X0412496Y0202245D01*
X0412496Y0201615D01*
X0410094Y0201615D01*
X0410094Y0201771D02*
X0412496Y0201771D01*
X0412496Y0201927D02*
X0410094Y0201927D01*
X0410094Y0202083D02*
X0412496Y0202083D01*
X0412496Y0202239D02*
X0410094Y0202239D01*
X0410094Y0200670D02*
X0410094Y0200040D01*
X0410094Y0200670D02*
X0412496Y0200670D01*
X0412496Y0200040D01*
X0410094Y0200040D01*
X0410094Y0200196D02*
X0412496Y0200196D01*
X0412496Y0200352D02*
X0410094Y0200352D01*
X0410094Y0200508D02*
X0412496Y0200508D01*
X0412496Y0200664D02*
X0410094Y0200664D01*
X0413736Y0196398D02*
X0414366Y0196398D01*
X0413736Y0196398D02*
X0413736Y0198800D01*
X0414366Y0198800D01*
X0414366Y0196398D01*
X0414366Y0196554D02*
X0413736Y0196554D01*
X0413736Y0196710D02*
X0414366Y0196710D01*
X0414366Y0196866D02*
X0413736Y0196866D01*
X0413736Y0197022D02*
X0414366Y0197022D01*
X0414366Y0197178D02*
X0413736Y0197178D01*
X0413736Y0197334D02*
X0414366Y0197334D01*
X0414366Y0197490D02*
X0413736Y0197490D01*
X0413736Y0197646D02*
X0414366Y0197646D01*
X0414366Y0197802D02*
X0413736Y0197802D01*
X0413736Y0197958D02*
X0414366Y0197958D01*
X0414366Y0198114D02*
X0413736Y0198114D01*
X0413736Y0198270D02*
X0414366Y0198270D01*
X0414366Y0198426D02*
X0413736Y0198426D01*
X0413736Y0198582D02*
X0414366Y0198582D01*
X0414366Y0198738D02*
X0413736Y0198738D01*
X0415311Y0196398D02*
X0415941Y0196398D01*
X0415311Y0196398D02*
X0415311Y0198800D01*
X0415941Y0198800D01*
X0415941Y0196398D01*
X0415941Y0196554D02*
X0415311Y0196554D01*
X0415311Y0196710D02*
X0415941Y0196710D01*
X0415941Y0196866D02*
X0415311Y0196866D01*
X0415311Y0197022D02*
X0415941Y0197022D01*
X0415941Y0197178D02*
X0415311Y0197178D01*
X0415311Y0197334D02*
X0415941Y0197334D01*
X0415941Y0197490D02*
X0415311Y0197490D01*
X0415311Y0197646D02*
X0415941Y0197646D01*
X0415941Y0197802D02*
X0415311Y0197802D01*
X0415311Y0197958D02*
X0415941Y0197958D01*
X0415941Y0198114D02*
X0415311Y0198114D01*
X0415311Y0198270D02*
X0415941Y0198270D01*
X0415941Y0198426D02*
X0415311Y0198426D01*
X0415311Y0198582D02*
X0415941Y0198582D01*
X0415941Y0198738D02*
X0415311Y0198738D01*
X0416886Y0196398D02*
X0417516Y0196398D01*
X0416886Y0196398D02*
X0416886Y0198800D01*
X0417516Y0198800D01*
X0417516Y0196398D01*
X0417516Y0196554D02*
X0416886Y0196554D01*
X0416886Y0196710D02*
X0417516Y0196710D01*
X0417516Y0196866D02*
X0416886Y0196866D01*
X0416886Y0197022D02*
X0417516Y0197022D01*
X0417516Y0197178D02*
X0416886Y0197178D01*
X0416886Y0197334D02*
X0417516Y0197334D01*
X0417516Y0197490D02*
X0416886Y0197490D01*
X0416886Y0197646D02*
X0417516Y0197646D01*
X0417516Y0197802D02*
X0416886Y0197802D01*
X0416886Y0197958D02*
X0417516Y0197958D01*
X0417516Y0198114D02*
X0416886Y0198114D01*
X0416886Y0198270D02*
X0417516Y0198270D01*
X0417516Y0198426D02*
X0416886Y0198426D01*
X0416886Y0198582D02*
X0417516Y0198582D01*
X0417516Y0198738D02*
X0416886Y0198738D01*
X0418461Y0196398D02*
X0419091Y0196398D01*
X0418461Y0196398D02*
X0418461Y0198800D01*
X0419091Y0198800D01*
X0419091Y0196398D01*
X0419091Y0196554D02*
X0418461Y0196554D01*
X0418461Y0196710D02*
X0419091Y0196710D01*
X0419091Y0196866D02*
X0418461Y0196866D01*
X0418461Y0197022D02*
X0419091Y0197022D01*
X0419091Y0197178D02*
X0418461Y0197178D01*
X0418461Y0197334D02*
X0419091Y0197334D01*
X0419091Y0197490D02*
X0418461Y0197490D01*
X0418461Y0197646D02*
X0419091Y0197646D01*
X0419091Y0197802D02*
X0418461Y0197802D01*
X0418461Y0197958D02*
X0419091Y0197958D01*
X0419091Y0198114D02*
X0418461Y0198114D01*
X0418461Y0198270D02*
X0419091Y0198270D01*
X0419091Y0198426D02*
X0418461Y0198426D01*
X0418461Y0198582D02*
X0419091Y0198582D01*
X0419091Y0198738D02*
X0418461Y0198738D01*
X0420035Y0196398D02*
X0420665Y0196398D01*
X0420035Y0196398D02*
X0420035Y0198800D01*
X0420665Y0198800D01*
X0420665Y0196398D01*
X0420665Y0196554D02*
X0420035Y0196554D01*
X0420035Y0196710D02*
X0420665Y0196710D01*
X0420665Y0196866D02*
X0420035Y0196866D01*
X0420035Y0197022D02*
X0420665Y0197022D01*
X0420665Y0197178D02*
X0420035Y0197178D01*
X0420035Y0197334D02*
X0420665Y0197334D01*
X0420665Y0197490D02*
X0420035Y0197490D01*
X0420035Y0197646D02*
X0420665Y0197646D01*
X0420665Y0197802D02*
X0420035Y0197802D01*
X0420035Y0197958D02*
X0420665Y0197958D01*
X0420665Y0198114D02*
X0420035Y0198114D01*
X0420035Y0198270D02*
X0420665Y0198270D01*
X0420665Y0198426D02*
X0420035Y0198426D01*
X0420035Y0198582D02*
X0420665Y0198582D01*
X0420665Y0198738D02*
X0420035Y0198738D01*
X0421610Y0196398D02*
X0422240Y0196398D01*
X0421610Y0196398D02*
X0421610Y0198800D01*
X0422240Y0198800D01*
X0422240Y0196398D01*
X0422240Y0196554D02*
X0421610Y0196554D01*
X0421610Y0196710D02*
X0422240Y0196710D01*
X0422240Y0196866D02*
X0421610Y0196866D01*
X0421610Y0197022D02*
X0422240Y0197022D01*
X0422240Y0197178D02*
X0421610Y0197178D01*
X0421610Y0197334D02*
X0422240Y0197334D01*
X0422240Y0197490D02*
X0421610Y0197490D01*
X0421610Y0197646D02*
X0422240Y0197646D01*
X0422240Y0197802D02*
X0421610Y0197802D01*
X0421610Y0197958D02*
X0422240Y0197958D01*
X0422240Y0198114D02*
X0421610Y0198114D01*
X0421610Y0198270D02*
X0422240Y0198270D01*
X0422240Y0198426D02*
X0421610Y0198426D01*
X0421610Y0198582D02*
X0422240Y0198582D01*
X0422240Y0198738D02*
X0421610Y0198738D01*
X0423185Y0196398D02*
X0423815Y0196398D01*
X0423185Y0196398D02*
X0423185Y0198800D01*
X0423815Y0198800D01*
X0423815Y0196398D01*
X0423815Y0196554D02*
X0423185Y0196554D01*
X0423185Y0196710D02*
X0423815Y0196710D01*
X0423815Y0196866D02*
X0423185Y0196866D01*
X0423185Y0197022D02*
X0423815Y0197022D01*
X0423815Y0197178D02*
X0423185Y0197178D01*
X0423185Y0197334D02*
X0423815Y0197334D01*
X0423815Y0197490D02*
X0423185Y0197490D01*
X0423185Y0197646D02*
X0423815Y0197646D01*
X0423815Y0197802D02*
X0423185Y0197802D01*
X0423185Y0197958D02*
X0423815Y0197958D01*
X0423815Y0198114D02*
X0423185Y0198114D01*
X0423185Y0198270D02*
X0423815Y0198270D01*
X0423815Y0198426D02*
X0423185Y0198426D01*
X0423185Y0198582D02*
X0423815Y0198582D01*
X0423815Y0198738D02*
X0423185Y0198738D01*
X0425055Y0200040D02*
X0425055Y0200670D01*
X0427457Y0200670D01*
X0427457Y0200040D01*
X0425055Y0200040D01*
X0425055Y0200196D02*
X0427457Y0200196D01*
X0427457Y0200352D02*
X0425055Y0200352D01*
X0425055Y0200508D02*
X0427457Y0200508D01*
X0427457Y0200664D02*
X0425055Y0200664D01*
X0425055Y0201615D02*
X0425055Y0202245D01*
X0427457Y0202245D01*
X0427457Y0201615D01*
X0425055Y0201615D01*
X0425055Y0201771D02*
X0427457Y0201771D01*
X0427457Y0201927D02*
X0425055Y0201927D01*
X0425055Y0202083D02*
X0427457Y0202083D01*
X0427457Y0202239D02*
X0425055Y0202239D01*
X0425055Y0203190D02*
X0425055Y0203820D01*
X0427457Y0203820D01*
X0427457Y0203190D01*
X0425055Y0203190D01*
X0425055Y0203346D02*
X0427457Y0203346D01*
X0427457Y0203502D02*
X0425055Y0203502D01*
X0425055Y0203658D02*
X0427457Y0203658D01*
X0427457Y0203814D02*
X0425055Y0203814D01*
X0425055Y0204764D02*
X0425055Y0205394D01*
X0427457Y0205394D01*
X0427457Y0204764D01*
X0425055Y0204764D01*
X0425055Y0204920D02*
X0427457Y0204920D01*
X0427457Y0205076D02*
X0425055Y0205076D01*
X0425055Y0205232D02*
X0427457Y0205232D01*
X0427457Y0205388D02*
X0425055Y0205388D01*
X0425055Y0206339D02*
X0425055Y0206969D01*
X0427457Y0206969D01*
X0427457Y0206339D01*
X0425055Y0206339D01*
X0425055Y0206495D02*
X0427457Y0206495D01*
X0427457Y0206651D02*
X0425055Y0206651D01*
X0425055Y0206807D02*
X0427457Y0206807D01*
X0427457Y0206963D02*
X0425055Y0206963D01*
X0425055Y0207914D02*
X0425055Y0208544D01*
X0427457Y0208544D01*
X0427457Y0207914D01*
X0425055Y0207914D01*
X0425055Y0208070D02*
X0427457Y0208070D01*
X0427457Y0208226D02*
X0425055Y0208226D01*
X0425055Y0208382D02*
X0427457Y0208382D01*
X0427457Y0208538D02*
X0425055Y0208538D01*
X0425055Y0209489D02*
X0425055Y0210119D01*
X0427457Y0210119D01*
X0427457Y0209489D01*
X0425055Y0209489D01*
X0425055Y0209645D02*
X0427457Y0209645D01*
X0427457Y0209801D02*
X0425055Y0209801D01*
X0425055Y0209957D02*
X0427457Y0209957D01*
X0427457Y0210113D02*
X0425055Y0210113D01*
X0423815Y0211359D02*
X0423185Y0211359D01*
X0423185Y0213761D01*
X0423815Y0213761D01*
X0423815Y0211359D01*
X0423815Y0211515D02*
X0423185Y0211515D01*
X0423185Y0211671D02*
X0423815Y0211671D01*
X0423815Y0211827D02*
X0423185Y0211827D01*
X0423185Y0211983D02*
X0423815Y0211983D01*
X0423815Y0212139D02*
X0423185Y0212139D01*
X0423185Y0212295D02*
X0423815Y0212295D01*
X0423815Y0212451D02*
X0423185Y0212451D01*
X0423185Y0212607D02*
X0423815Y0212607D01*
X0423815Y0212763D02*
X0423185Y0212763D01*
X0423185Y0212919D02*
X0423815Y0212919D01*
X0423815Y0213075D02*
X0423185Y0213075D01*
X0423185Y0213231D02*
X0423815Y0213231D01*
X0423815Y0213387D02*
X0423185Y0213387D01*
X0423185Y0213543D02*
X0423815Y0213543D01*
X0423815Y0213699D02*
X0423185Y0213699D01*
X0422240Y0211359D02*
X0421610Y0211359D01*
X0421610Y0213761D01*
X0422240Y0213761D01*
X0422240Y0211359D01*
X0422240Y0211515D02*
X0421610Y0211515D01*
X0421610Y0211671D02*
X0422240Y0211671D01*
X0422240Y0211827D02*
X0421610Y0211827D01*
X0421610Y0211983D02*
X0422240Y0211983D01*
X0422240Y0212139D02*
X0421610Y0212139D01*
X0421610Y0212295D02*
X0422240Y0212295D01*
X0422240Y0212451D02*
X0421610Y0212451D01*
X0421610Y0212607D02*
X0422240Y0212607D01*
X0422240Y0212763D02*
X0421610Y0212763D01*
X0421610Y0212919D02*
X0422240Y0212919D01*
X0422240Y0213075D02*
X0421610Y0213075D01*
X0421610Y0213231D02*
X0422240Y0213231D01*
X0422240Y0213387D02*
X0421610Y0213387D01*
X0421610Y0213543D02*
X0422240Y0213543D01*
X0422240Y0213699D02*
X0421610Y0213699D01*
X0420665Y0211359D02*
X0420035Y0211359D01*
X0420035Y0213761D01*
X0420665Y0213761D01*
X0420665Y0211359D01*
X0420665Y0211515D02*
X0420035Y0211515D01*
X0420035Y0211671D02*
X0420665Y0211671D01*
X0420665Y0211827D02*
X0420035Y0211827D01*
X0420035Y0211983D02*
X0420665Y0211983D01*
X0420665Y0212139D02*
X0420035Y0212139D01*
X0420035Y0212295D02*
X0420665Y0212295D01*
X0420665Y0212451D02*
X0420035Y0212451D01*
X0420035Y0212607D02*
X0420665Y0212607D01*
X0420665Y0212763D02*
X0420035Y0212763D01*
X0420035Y0212919D02*
X0420665Y0212919D01*
X0420665Y0213075D02*
X0420035Y0213075D01*
X0420035Y0213231D02*
X0420665Y0213231D01*
X0420665Y0213387D02*
X0420035Y0213387D01*
X0420035Y0213543D02*
X0420665Y0213543D01*
X0420665Y0213699D02*
X0420035Y0213699D01*
X0419091Y0211359D02*
X0418461Y0211359D01*
X0418461Y0213761D01*
X0419091Y0213761D01*
X0419091Y0211359D01*
X0419091Y0211515D02*
X0418461Y0211515D01*
X0418461Y0211671D02*
X0419091Y0211671D01*
X0419091Y0211827D02*
X0418461Y0211827D01*
X0418461Y0211983D02*
X0419091Y0211983D01*
X0419091Y0212139D02*
X0418461Y0212139D01*
X0418461Y0212295D02*
X0419091Y0212295D01*
X0419091Y0212451D02*
X0418461Y0212451D01*
X0418461Y0212607D02*
X0419091Y0212607D01*
X0419091Y0212763D02*
X0418461Y0212763D01*
X0418461Y0212919D02*
X0419091Y0212919D01*
X0419091Y0213075D02*
X0418461Y0213075D01*
X0418461Y0213231D02*
X0419091Y0213231D01*
X0419091Y0213387D02*
X0418461Y0213387D01*
X0418461Y0213543D02*
X0419091Y0213543D01*
X0419091Y0213699D02*
X0418461Y0213699D01*
X0417516Y0211359D02*
X0416886Y0211359D01*
X0416886Y0213761D01*
X0417516Y0213761D01*
X0417516Y0211359D01*
X0417516Y0211515D02*
X0416886Y0211515D01*
X0416886Y0211671D02*
X0417516Y0211671D01*
X0417516Y0211827D02*
X0416886Y0211827D01*
X0416886Y0211983D02*
X0417516Y0211983D01*
X0417516Y0212139D02*
X0416886Y0212139D01*
X0416886Y0212295D02*
X0417516Y0212295D01*
X0417516Y0212451D02*
X0416886Y0212451D01*
X0416886Y0212607D02*
X0417516Y0212607D01*
X0417516Y0212763D02*
X0416886Y0212763D01*
X0416886Y0212919D02*
X0417516Y0212919D01*
X0417516Y0213075D02*
X0416886Y0213075D01*
X0416886Y0213231D02*
X0417516Y0213231D01*
X0417516Y0213387D02*
X0416886Y0213387D01*
X0416886Y0213543D02*
X0417516Y0213543D01*
X0417516Y0213699D02*
X0416886Y0213699D01*
X0415941Y0211359D02*
X0415311Y0211359D01*
X0415311Y0213761D01*
X0415941Y0213761D01*
X0415941Y0211359D01*
X0415941Y0211515D02*
X0415311Y0211515D01*
X0415311Y0211671D02*
X0415941Y0211671D01*
X0415941Y0211827D02*
X0415311Y0211827D01*
X0415311Y0211983D02*
X0415941Y0211983D01*
X0415941Y0212139D02*
X0415311Y0212139D01*
X0415311Y0212295D02*
X0415941Y0212295D01*
X0415941Y0212451D02*
X0415311Y0212451D01*
X0415311Y0212607D02*
X0415941Y0212607D01*
X0415941Y0212763D02*
X0415311Y0212763D01*
X0415311Y0212919D02*
X0415941Y0212919D01*
X0415941Y0213075D02*
X0415311Y0213075D01*
X0415311Y0213231D02*
X0415941Y0213231D01*
X0415941Y0213387D02*
X0415311Y0213387D01*
X0415311Y0213543D02*
X0415941Y0213543D01*
X0415941Y0213699D02*
X0415311Y0213699D01*
X0414366Y0211359D02*
X0413736Y0211359D01*
X0413736Y0213761D01*
X0414366Y0213761D01*
X0414366Y0211359D01*
X0414366Y0211515D02*
X0413736Y0211515D01*
X0413736Y0211671D02*
X0414366Y0211671D01*
X0414366Y0211827D02*
X0413736Y0211827D01*
X0413736Y0211983D02*
X0414366Y0211983D01*
X0414366Y0212139D02*
X0413736Y0212139D01*
X0413736Y0212295D02*
X0414366Y0212295D01*
X0414366Y0212451D02*
X0413736Y0212451D01*
X0413736Y0212607D02*
X0414366Y0212607D01*
X0414366Y0212763D02*
X0413736Y0212763D01*
X0413736Y0212919D02*
X0414366Y0212919D01*
X0414366Y0213075D02*
X0413736Y0213075D01*
X0413736Y0213231D02*
X0414366Y0213231D01*
X0414366Y0213387D02*
X0413736Y0213387D01*
X0413736Y0213543D02*
X0414366Y0213543D01*
X0414366Y0213699D02*
X0413736Y0213699D01*
D15*
X0415232Y0205079D03*
X0422319Y0205079D03*
X0102634Y0205079D03*
X0095547Y0205079D03*
D16*
X0099091Y0201536D03*
X0099091Y0208623D03*
X0418776Y0208623D03*
X0418776Y0201536D03*
D17*
X0418776Y0205079D03*
X0099091Y0205079D03*
M02*
