G75*
%MOIN*%
%OFA0B0*%
%FSLAX25Y25*%
%IPPOS*%
%LPD*%
%AMOC8*
5,1,8,0,0,1.08239X$1,22.5*
%
%ADD10C,0.00600*%
%ADD11C,0.01200*%
%ADD12C,0.01100*%
%ADD13C,0.01000*%
%ADD14C,0.00900*%
%ADD15C,0.00800*%
%ADD16C,0.00700*%
%ADD17C,0.00500*%
%ADD18C,0.00400*%
%ADD19C,0.00300*%
%ADD20C,0.00200*%
%ADD21C,0.00100*%
%ADD22C,0.02000*%
D10*
X0088750Y0039800D02*
X0313750Y0039800D01*
X0313750Y0264800D01*
X0088750Y0264800D01*
X0088750Y0039800D01*
X0093750Y0044800D02*
X0308750Y0044800D01*
X0308750Y0259800D01*
X0093750Y0259800D01*
X0093750Y0044800D01*
X0159767Y0123087D02*
X0158867Y0123987D01*
X0159667Y0125287D01*
X0159167Y0126587D01*
X0157667Y0126887D01*
X0157667Y0128187D01*
X0159167Y0128387D01*
X0159767Y0129687D01*
X0158867Y0130987D01*
X0159767Y0131887D01*
X0161067Y0130987D01*
X0162267Y0131487D01*
X0162567Y0133087D01*
X0163867Y0133087D01*
X0164167Y0131487D01*
X0165367Y0130987D01*
X0166767Y0131887D01*
X0167667Y0130987D01*
X0166767Y0129687D01*
X0167267Y0128487D01*
X0168767Y0128187D01*
X0168767Y0126887D01*
X0167367Y0126587D01*
X0166767Y0125287D01*
X0167667Y0123987D01*
X0166767Y0123087D01*
X0165567Y0123887D01*
X0164967Y0123587D01*
X0164067Y0125887D01*
X0164667Y0125587D02*
X0165667Y0127587D01*
X0164667Y0129087D01*
X0163167Y0129587D01*
X0161667Y0129087D01*
X0161167Y0127587D01*
X0161667Y0126087D01*
X0162167Y0125587D01*
X0161167Y0124087D01*
X0159667Y0123587D01*
X0159167Y0124087D01*
X0160167Y0125587D01*
X0159167Y0127087D01*
X0158167Y0127087D01*
X0158167Y0128087D01*
X0159667Y0128087D01*
X0160167Y0129587D01*
X0159167Y0131087D01*
X0159667Y0131587D01*
X0161167Y0130587D01*
X0162667Y0131587D01*
X0162667Y0132587D01*
X0163667Y0132587D01*
X0164167Y0131087D01*
X0165667Y0130587D01*
X0166667Y0131587D01*
X0167167Y0131087D01*
X0166667Y0129587D01*
X0167167Y0128087D01*
X0168667Y0128087D01*
X0168167Y0127087D01*
X0166667Y0126587D01*
X0166667Y0125087D01*
X0167167Y0124087D01*
X0166667Y0123587D01*
X0165667Y0124087D01*
X0165167Y0124087D01*
X0164667Y0125587D01*
X0164741Y0125367D02*
X0166667Y0125367D01*
X0166667Y0125966D02*
X0164856Y0125966D01*
X0165156Y0126564D02*
X0166667Y0126564D01*
X0165455Y0127163D02*
X0168205Y0127163D01*
X0168504Y0127761D02*
X0165552Y0127761D01*
X0165153Y0128360D02*
X0167077Y0128360D01*
X0166877Y0128958D02*
X0164754Y0128958D01*
X0163260Y0129557D02*
X0166678Y0129557D01*
X0166857Y0130155D02*
X0159789Y0130155D01*
X0160157Y0129557D02*
X0163075Y0129557D01*
X0161624Y0128958D02*
X0159958Y0128958D01*
X0159758Y0128360D02*
X0161425Y0128360D01*
X0161225Y0127761D02*
X0158167Y0127761D01*
X0158167Y0127163D02*
X0161309Y0127163D01*
X0161508Y0126564D02*
X0159516Y0126564D01*
X0159915Y0125966D02*
X0161789Y0125966D01*
X0162020Y0125367D02*
X0160020Y0125367D01*
X0159621Y0124768D02*
X0161621Y0124768D01*
X0161222Y0124170D02*
X0159222Y0124170D01*
X0159767Y0123087D02*
X0160967Y0123887D01*
X0161467Y0123587D01*
X0162467Y0125887D01*
X0162393Y0125926D01*
X0162320Y0125969D01*
X0162250Y0126015D01*
X0162182Y0126065D01*
X0162116Y0126117D01*
X0162053Y0126173D01*
X0161993Y0126231D01*
X0161935Y0126292D01*
X0161881Y0126356D01*
X0161829Y0126422D01*
X0161781Y0126491D01*
X0161736Y0126562D01*
X0161694Y0126635D01*
X0161656Y0126710D01*
X0161621Y0126786D01*
X0161590Y0126864D01*
X0161562Y0126944D01*
X0161539Y0127025D01*
X0161519Y0127106D01*
X0161503Y0127189D01*
X0161491Y0127272D01*
X0161483Y0127356D01*
X0161479Y0127439D01*
X0161478Y0127524D01*
X0161482Y0127607D01*
X0161490Y0127691D01*
X0161501Y0127774D01*
X0161517Y0127857D01*
X0161536Y0127939D01*
X0161559Y0128020D01*
X0161586Y0128099D01*
X0161617Y0128178D01*
X0161651Y0128254D01*
X0161689Y0128329D01*
X0161730Y0128402D01*
X0161775Y0128474D01*
X0161823Y0128543D01*
X0161874Y0128609D01*
X0161928Y0128674D01*
X0161985Y0128735D01*
X0162045Y0128794D01*
X0162108Y0128850D01*
X0162173Y0128903D01*
X0162241Y0128953D01*
X0162311Y0128999D01*
X0162383Y0129042D01*
X0162457Y0129082D01*
X0162533Y0129118D01*
X0162610Y0129151D01*
X0162689Y0129180D01*
X0162769Y0129205D01*
X0162851Y0129227D01*
X0162933Y0129245D01*
X0163016Y0129258D01*
X0163099Y0129268D01*
X0163183Y0129274D01*
X0163267Y0129276D01*
X0163351Y0129274D01*
X0163435Y0129268D01*
X0163518Y0129258D01*
X0163601Y0129245D01*
X0163683Y0129227D01*
X0163765Y0129205D01*
X0163845Y0129180D01*
X0163924Y0129151D01*
X0164001Y0129118D01*
X0164077Y0129082D01*
X0164151Y0129042D01*
X0164223Y0128999D01*
X0164293Y0128953D01*
X0164361Y0128903D01*
X0164426Y0128850D01*
X0164489Y0128794D01*
X0164549Y0128735D01*
X0164606Y0128674D01*
X0164660Y0128609D01*
X0164711Y0128543D01*
X0164759Y0128474D01*
X0164804Y0128402D01*
X0164845Y0128329D01*
X0164883Y0128254D01*
X0164917Y0128178D01*
X0164948Y0128099D01*
X0164975Y0128020D01*
X0164998Y0127939D01*
X0165017Y0127857D01*
X0165033Y0127774D01*
X0165044Y0127691D01*
X0165052Y0127607D01*
X0165056Y0127524D01*
X0165055Y0127439D01*
X0165051Y0127356D01*
X0165043Y0127272D01*
X0165031Y0127189D01*
X0165015Y0127106D01*
X0164995Y0127025D01*
X0164972Y0126944D01*
X0164944Y0126864D01*
X0164913Y0126786D01*
X0164878Y0126710D01*
X0164840Y0126635D01*
X0164798Y0126562D01*
X0164753Y0126491D01*
X0164705Y0126422D01*
X0164653Y0126356D01*
X0164599Y0126292D01*
X0164541Y0126231D01*
X0164481Y0126173D01*
X0164418Y0126117D01*
X0164352Y0126065D01*
X0164284Y0126015D01*
X0164214Y0125969D01*
X0164141Y0125926D01*
X0164067Y0125887D01*
X0164940Y0124768D02*
X0166827Y0124768D01*
X0167126Y0124170D02*
X0165140Y0124170D01*
X0165169Y0130754D02*
X0161417Y0130754D01*
X0160918Y0130754D02*
X0159390Y0130754D01*
X0159432Y0131352D02*
X0160020Y0131352D01*
X0162314Y0131352D02*
X0164079Y0131352D01*
X0163880Y0131951D02*
X0162667Y0131951D01*
X0162667Y0132549D02*
X0163680Y0132549D01*
X0165834Y0130754D02*
X0167056Y0130754D01*
X0166903Y0131352D02*
X0166432Y0131352D01*
X0201250Y0195300D02*
X0203750Y0197800D01*
D11*
X0188750Y0197800D02*
X0186250Y0195300D01*
D12*
X0188750Y0195300D02*
X0191250Y0197800D01*
D13*
X0193750Y0197800D02*
X0191250Y0195300D01*
D14*
X0193750Y0195300D02*
X0196250Y0197800D01*
D15*
X0198750Y0197800D02*
X0196250Y0195300D01*
D16*
X0198750Y0195300D02*
X0201250Y0197800D01*
D17*
X0203750Y0195300D02*
X0206250Y0197800D01*
X0274085Y0225430D02*
X0274085Y0229170D01*
X0274085Y0225430D02*
X0286093Y0225430D01*
X0286093Y0233107D01*
X0279990Y0233107D01*
X0279990Y0246493D01*
X0286093Y0246493D01*
X0286093Y0254170D01*
X0274085Y0254170D01*
X0274085Y0250430D01*
X0274085Y0246493D02*
X0274085Y0233107D01*
X0128415Y0233107D01*
X0128415Y0246493D01*
X0274085Y0246493D01*
X0290317Y0188053D02*
X0290317Y0185134D01*
X0290901Y0184550D01*
X0292068Y0184550D01*
X0292652Y0185134D01*
X0292652Y0188053D01*
X0294000Y0186885D02*
X0295168Y0188053D01*
X0295168Y0184550D01*
X0296335Y0184550D02*
X0294000Y0184550D01*
X0286093Y0079170D02*
X0274085Y0079170D01*
X0274085Y0075430D01*
X0274085Y0071493D02*
X0274085Y0058107D01*
X0128415Y0058107D01*
X0128415Y0071493D01*
X0274085Y0071493D01*
X0279990Y0071493D02*
X0279990Y0058107D01*
X0286093Y0058107D01*
X0286093Y0052398D01*
X0284124Y0050430D01*
X0274085Y0050430D01*
X0274085Y0054170D01*
X0279990Y0071493D02*
X0286093Y0071493D01*
X0286093Y0079170D01*
X0128415Y0079170D02*
X0128415Y0075430D01*
X0128415Y0079170D02*
X0116407Y0079170D01*
X0116407Y0071493D01*
X0122510Y0071493D01*
X0122510Y0058107D01*
X0116407Y0058107D01*
X0116407Y0050430D01*
X0128415Y0050430D01*
X0128415Y0054170D01*
X0128415Y0225430D02*
X0116407Y0225430D01*
X0116407Y0233107D01*
X0122510Y0233107D01*
X0122510Y0246493D01*
X0116407Y0246493D01*
X0116407Y0252202D01*
X0118376Y0254170D01*
X0128415Y0254170D01*
X0128415Y0250430D01*
X0128415Y0229170D02*
X0128415Y0225430D01*
D18*
X0206250Y0195300D02*
X0208750Y0197800D01*
X0285503Y0203056D02*
X0285971Y0202589D01*
X0286905Y0202589D01*
X0287372Y0203056D01*
X0288450Y0202589D02*
X0290318Y0202589D01*
X0289384Y0202589D02*
X0289384Y0205391D01*
X0288450Y0204457D01*
X0287372Y0204924D02*
X0286905Y0205391D01*
X0285971Y0205391D01*
X0285503Y0204924D01*
X0285503Y0203056D01*
X0297003Y0206089D02*
X0297003Y0208891D01*
X0298405Y0208891D01*
X0298872Y0208424D01*
X0298872Y0207490D01*
X0298405Y0207023D01*
X0297003Y0207023D01*
X0297938Y0207023D02*
X0298872Y0206089D01*
X0299950Y0206089D02*
X0301818Y0207957D01*
X0301818Y0208424D01*
X0301351Y0208891D01*
X0300417Y0208891D01*
X0299950Y0208424D01*
X0299950Y0206089D02*
X0301818Y0206089D01*
X0304003Y0201391D02*
X0305405Y0201391D01*
X0305872Y0200924D01*
X0305872Y0199990D01*
X0305405Y0199523D01*
X0304003Y0199523D01*
X0304003Y0198589D02*
X0304003Y0201391D01*
X0304938Y0199523D02*
X0305872Y0198589D01*
X0306950Y0198589D02*
X0308818Y0198589D01*
X0307884Y0198589D02*
X0307884Y0201391D01*
X0306950Y0200457D01*
D19*
X0211250Y0197800D02*
X0208750Y0195300D01*
D20*
X0211250Y0195300D02*
X0213750Y0197800D01*
D21*
X0216250Y0197800D02*
X0213750Y0195300D01*
D22*
X0287750Y0199139D03*
M02*
