G04 This is an RS-274x file exported by *
G04 gerbv version 2.7.0 *
G04 More information is available about gerbv at *
G04 http://gerbv.geda-project.org/ *
G04 --End of header info--*
%MOIN*%
%FSLAX36Y36*%
%IPPOS*%
G04 --Define apertures--*
%ADD10C,0.0050*%
%ADD11C,0.0100*%
%ADD12C,0.0120*%
%ADD13C,0.0110*%
%ADD14C,0.0090*%
%ADD15C,0.0080*%
%ADD16C,0.0070*%
%ADD17C,0.0060*%
%ADD18C,0.0040*%
%ADD19C,0.0030*%
%ADD20C,0.0020*%
%ADD21C,0.0010*%
%ADD22C,0.0320*%
%ADD23R,0.1500X0.0750*%
%ADD24R,0.3000X0.0750*%
%ADD25R,0.0750X0.1500*%
%ADD26R,0.0750X0.3000*%
G04 --Start main section--*
G54D10*
G01X-530500Y2390080D02*
G01X-530500Y2413430D01*
G01X-530500Y2426910D02*
G01X-530500Y2438590D01*
G01X-530500Y2432750D02*
G01X-553850Y2432750D01*
G01X-553850Y2432750D02*
G01X-553850Y2426910D01*
G01X-565530Y2432750D02*
G01X-571370Y2432750D01*
G01X-598500Y2432750D02*
G01X-604340Y2426910D01*
G01X-604340Y2426910D02*
G01X-616010Y2426910D01*
G01X-616010Y2426910D02*
G01X-621850Y2432750D01*
G01X-621850Y2432750D02*
G01X-621850Y2444420D01*
G01X-621850Y2444420D02*
G01X-616010Y2450260D01*
G01X-616010Y2450260D02*
G01X-604340Y2450260D01*
G01X-604340Y2450260D02*
G01X-598500Y2444420D01*
G01X-598500Y2444420D02*
G01X-598500Y2432750D01*
G01X-604340Y2413430D02*
G01X-598500Y2407590D01*
G01X-598500Y2407590D02*
G01X-598500Y2395920D01*
G01X-598500Y2395920D02*
G01X-604340Y2390080D01*
G01X-604340Y2390080D02*
G01X-627690Y2390080D01*
G01X-627690Y2390080D02*
G01X-633530Y2395920D01*
G01X-633530Y2395920D02*
G01X-633530Y2407590D01*
G01X-633530Y2407590D02*
G01X-627690Y2413430D01*
G01X-621850Y2463740D02*
G01X-586820Y2463740D01*
G01X-598500Y2463740D02*
G01X-598500Y2481260D01*
G01X-598500Y2481260D02*
G01X-604340Y2487090D01*
G01X-604340Y2487090D02*
G01X-616010Y2487090D01*
G01X-616010Y2487090D02*
G01X-621850Y2481260D01*
G01X-621850Y2481260D02*
G01X-621850Y2463740D01*
G01X-621850Y2500570D02*
G01X-604340Y2500570D01*
G01X-604340Y2500570D02*
G01X-598500Y2506410D01*
G01X-598500Y2506410D02*
G01X-598500Y2523920D01*
G01X-592660Y2523920D02*
G01X-586820Y2518090D01*
G01X-586820Y2518090D02*
G01X-586820Y2512250D01*
G01X-592660Y2523920D02*
G01X-621850Y2523920D01*
G01X-621850Y2537400D02*
G01X-598500Y2537400D01*
G01X-610180Y2537400D02*
G01X-621850Y2549080D01*
G01X-621850Y2549080D02*
G01X-621850Y2554920D01*
G01X-621850Y2568100D02*
G01X-621850Y2573930D01*
G01X-621850Y2573930D02*
G01X-598500Y2573930D01*
G01X-598500Y2568100D02*
G01X-598500Y2579770D01*
G01X-604340Y2592650D02*
G01X-598500Y2598490D01*
G01X-598500Y2598490D02*
G01X-598500Y2616000D01*
G01X-592660Y2616000D02*
G01X-621850Y2616000D01*
G01X-621850Y2616000D02*
G01X-621850Y2598490D01*
G01X-621850Y2598490D02*
G01X-616010Y2592650D01*
G01X-616010Y2592650D02*
G01X-604340Y2592650D01*
G01X-586820Y2604330D02*
G01X-586820Y2610170D01*
G01X-586820Y2610170D02*
G01X-592660Y2616000D01*
G01X-598500Y2629480D02*
G01X-633530Y2629480D01*
G01X-621850Y2635320D02*
G01X-621850Y2647000D01*
G01X-621850Y2647000D02*
G01X-616010Y2652830D01*
G01X-616010Y2652830D02*
G01X-598500Y2652830D01*
G01X-604340Y2672150D02*
G01X-598500Y2677990D01*
G01X-604340Y2672150D02*
G01X-627690Y2672150D01*
G01X-621850Y2666310D02*
G01X-621850Y2677990D01*
G01X-621850Y2635320D02*
G01X-616010Y2629480D01*
G01X-633530Y2573930D02*
G01X-639370Y2573930D01*
G01X-621850Y2727700D02*
G01X-633530Y2739380D01*
G01X-627690Y2752250D02*
G01X-633530Y2758090D01*
G01X-633530Y2758090D02*
G01X-633530Y2769770D01*
G01X-633530Y2769770D02*
G01X-627690Y2775610D01*
G01X-633530Y2789080D02*
G01X-621850Y2800760D01*
G01X-621850Y2800760D02*
G01X-610180Y2800760D01*
G01X-610180Y2800760D02*
G01X-598500Y2789080D01*
G01X-604340Y2775610D02*
G01X-598500Y2769770D01*
G01X-598500Y2769770D02*
G01X-598500Y2758090D01*
G01X-598500Y2758090D02*
G01X-604340Y2752250D01*
G01X-604340Y2752250D02*
G01X-627690Y2752250D01*
G01X-621850Y2727700D02*
G01X-610180Y2727700D01*
G01X-610180Y2727700D02*
G01X-598500Y2739380D01*
G01X-553850Y2746110D02*
G01X-553850Y2763630D01*
G01X-553850Y2763630D02*
G01X-548010Y2769470D01*
G01X-548010Y2769470D02*
G01X-530500Y2769470D01*
G01X-536340Y2782950D02*
G01X-548010Y2782950D01*
G01X-548010Y2782950D02*
G01X-553850Y2788780D01*
G01X-553850Y2788780D02*
G01X-553850Y2806300D01*
G01X-565530Y2806300D02*
G01X-530500Y2806300D01*
G01X-530500Y2806300D02*
G01X-530500Y2788780D01*
G01X-530500Y2788780D02*
G01X-536340Y2782950D01*
G01X-536340Y2819780D02*
G01X-548010Y2819780D01*
G01X-548010Y2819780D02*
G01X-553850Y2825620D01*
G01X-553850Y2825620D02*
G01X-553850Y2837290D01*
G01X-553850Y2837290D02*
G01X-548010Y2843130D01*
G01X-548010Y2843130D02*
G01X-542180Y2843130D01*
G01X-542180Y2843130D02*
G01X-542180Y2819780D01*
G01X-536340Y2819780D02*
G01X-530500Y2825620D01*
G01X-530500Y2825620D02*
G01X-530500Y2837290D01*
G01X-530500Y2856610D02*
G01X-553850Y2856610D01*
G01X-542180Y2856610D02*
G01X-553850Y2868290D01*
G01X-553850Y2868290D02*
G01X-553850Y2874120D01*
G01X-598500Y2873820D02*
G01X-598500Y2850470D01*
G01X-598500Y2850470D02*
G01X-621850Y2873820D01*
G01X-621850Y2873820D02*
G01X-627690Y2873820D01*
G01X-627690Y2873820D02*
G01X-633530Y2867990D01*
G01X-633530Y2867990D02*
G01X-633530Y2856310D01*
G01X-633530Y2856310D02*
G01X-627690Y2850470D01*
G01X-627690Y2887300D02*
G01X-633530Y2893140D01*
G01X-633530Y2893140D02*
G01X-633530Y2904820D01*
G01X-633530Y2904820D02*
G01X-627690Y2910650D01*
G01X-627690Y2910650D02*
G01X-604340Y2887300D01*
G01X-604340Y2887300D02*
G01X-598500Y2893140D01*
G01X-598500Y2893140D02*
G01X-598500Y2904820D01*
G01X-598500Y2904820D02*
G01X-604340Y2910650D01*
G01X-604340Y2910650D02*
G01X-627690Y2910650D01*
G01X-621850Y2924130D02*
G01X-633530Y2935810D01*
G01X-633530Y2935810D02*
G01X-598500Y2935810D01*
G01X-598500Y2924130D02*
G01X-598500Y2947490D01*
G01X-604340Y2960960D02*
G01X-598500Y2966800D01*
G01X-598500Y2966800D02*
G01X-598500Y2978480D01*
G01X-598500Y2978480D02*
G01X-604340Y2984320D01*
G01X-604340Y2984320D02*
G01X-616010Y2984320D01*
G01X-616010Y2984320D02*
G01X-621850Y2978480D01*
G01X-621850Y2978480D02*
G01X-621850Y2972640D01*
G01X-621850Y2972640D02*
G01X-616010Y2960960D01*
G01X-616010Y2960960D02*
G01X-633530Y2960960D01*
G01X-633530Y2960960D02*
G01X-633530Y2984320D01*
G01X-616010Y2997800D02*
G01X-616010Y3021150D01*
G01X-627690Y3034630D02*
G01X-633530Y3040470D01*
G01X-633530Y3040470D02*
G01X-633530Y3052140D01*
G01X-633530Y3052140D02*
G01X-627690Y3057980D01*
G01X-627690Y3057980D02*
G01X-621850Y3057980D01*
G01X-621850Y3057980D02*
G01X-598500Y3034630D01*
G01X-598500Y3034630D02*
G01X-598500Y3057980D01*
G01X-604340Y3071460D02*
G01X-598500Y3077300D01*
G01X-598500Y3077300D02*
G01X-598500Y3088970D01*
G01X-598500Y3088970D02*
G01X-604340Y3094810D01*
G01X-604340Y3094810D02*
G01X-627690Y3094810D01*
G01X-627690Y3094810D02*
G01X-604340Y3071460D01*
G01X-604340Y3071460D02*
G01X-627690Y3071460D01*
G01X-627690Y3071460D02*
G01X-633530Y3077300D01*
G01X-633530Y3077300D02*
G01X-633530Y3088970D01*
G01X-633530Y3088970D02*
G01X-627690Y3094810D01*
G01X-627690Y3108290D02*
G01X-633530Y3114130D01*
G01X-633530Y3114130D02*
G01X-633530Y3125810D01*
G01X-633530Y3125810D02*
G01X-627690Y3131640D01*
G01X-627690Y3131640D02*
G01X-621850Y3131640D01*
G01X-621850Y3131640D02*
G01X-598500Y3108290D01*
G01X-598500Y3108290D02*
G01X-598500Y3131640D01*
G01X-604340Y3145120D02*
G01X-627690Y3168480D01*
G01X-627690Y3168480D02*
G01X-604340Y3168480D01*
G01X-604340Y3168480D02*
G01X-598500Y3162640D01*
G01X-598500Y3162640D02*
G01X-598500Y3150960D01*
G01X-598500Y3150960D02*
G01X-604340Y3145120D01*
G01X-604340Y3145120D02*
G01X-627690Y3145120D01*
G01X-627690Y3145120D02*
G01X-633530Y3150960D01*
G01X-633530Y3150960D02*
G01X-633530Y3162640D01*
G01X-633530Y3162640D02*
G01X-627690Y3168480D01*
G01X-633530Y3218780D02*
G01X-598500Y3218780D01*
G01X-616010Y3218780D02*
G01X-616010Y3242140D01*
G01X-598500Y3242140D02*
G01X-633530Y3242140D01*
G01X-633530Y3274030D02*
G01X-633530Y3291550D01*
G01X-633530Y3291550D02*
G01X-627690Y3297390D01*
G01X-627690Y3297390D02*
G01X-616010Y3297390D01*
G01X-616010Y3297390D02*
G01X-610180Y3291550D01*
G01X-610180Y3291550D02*
G01X-610180Y3274030D01*
G01X-598500Y3274030D02*
G01X-633530Y3274030D01*
G01X-604340Y3261450D02*
G01X-598500Y3261450D01*
G01X-598500Y3261450D02*
G01X-598500Y3255620D01*
G01X-598500Y3255620D02*
G01X-604340Y3255620D01*
G01X-604340Y3255620D02*
G01X-604340Y3261450D01*
G01X-604340Y3310860D02*
G01X-598500Y3316700D01*
G01X-598500Y3316700D02*
G01X-598500Y3328380D01*
G01X-598500Y3328380D02*
G01X-604340Y3334220D01*
G01X-604340Y3334220D02*
G01X-616010Y3334220D01*
G01X-616010Y3334220D02*
G01X-621850Y3328380D01*
G01X-621850Y3328380D02*
G01X-621850Y3316700D01*
G01X-621850Y3316700D02*
G01X-616010Y3310860D01*
G01X-616010Y3310860D02*
G01X-604340Y3310860D01*
G01X-633530Y3316700D02*
G01X-639370Y3316700D01*
G01X-639370Y3328380D02*
G01X-633530Y3328380D01*
G01X-621850Y3347690D02*
G01X-621850Y3359370D01*
G01X-627690Y3353530D02*
G01X-604340Y3353530D01*
G01X-604340Y3353530D02*
G01X-598500Y3359370D01*
G01X-598500Y3372250D02*
G01X-598500Y3395600D01*
G01X-598500Y3409080D02*
G01X-598500Y3420760D01*
G01X-598500Y3414920D02*
G01X-633530Y3414920D01*
G01X-633530Y3414920D02*
G01X-633530Y3409080D01*
G01X-621850Y3395600D02*
G01X-598500Y3372250D01*
G01X-621850Y3372250D02*
G01X-621850Y3395600D01*
G01X-565530Y3365210D02*
G01X-565530Y3353530D01*
G01X-565530Y3353530D02*
G01X-559690Y3347690D01*
G01X-565530Y3365210D02*
G01X-559690Y3371050D01*
G01X-559690Y3371050D02*
G01X-553850Y3371050D01*
G01X-553850Y3371050D02*
G01X-530500Y3347690D01*
G01X-530500Y3347690D02*
G01X-530500Y3371050D01*
G01X-530500Y3335120D02*
G01X-530500Y3329280D01*
G01X-530500Y3329280D02*
G01X-536340Y3329280D01*
G01X-536340Y3329280D02*
G01X-536340Y3335120D01*
G01X-536340Y3335120D02*
G01X-530500Y3335120D01*
G01X-530500Y3315800D02*
G01X-530500Y3292450D01*
G01X-530500Y3304120D02*
G01X-565530Y3304120D01*
G01X-565530Y3304120D02*
G01X-553850Y3292450D01*
G01X-553850Y3278970D02*
G01X-530500Y3267290D01*
G01X-530500Y3267290D02*
G01X-553850Y3255620D01*
G01X-530500Y3205310D02*
G01X-530500Y3181950D01*
G01X-530500Y3181950D02*
G01X-565530Y3181950D01*
G01X-565530Y3168480D02*
G01X-530500Y3168480D01*
G01X-548010Y3168480D02*
G01X-548010Y3145120D01*
G01X-530500Y3145120D02*
G01X-565530Y3145120D01*
G01X-559690Y3131640D02*
G01X-536340Y3131640D01*
G01X-536340Y3131640D02*
G01X-530500Y3125810D01*
G01X-530500Y3125810D02*
G01X-530500Y3114130D01*
G01X-530500Y3114130D02*
G01X-536340Y3108290D01*
G01X-536340Y3108290D02*
G01X-559690Y3108290D01*
G01X-559690Y3108290D02*
G01X-565530Y3114130D01*
G01X-565530Y3114130D02*
G01X-565530Y3125810D01*
G01X-565530Y3125810D02*
G01X-559690Y3131640D01*
G01X-565530Y3057980D02*
G01X-530500Y3057980D01*
G01X-530500Y3057980D02*
G01X-565530Y3034630D01*
G01X-565530Y3034630D02*
G01X-530500Y3034630D01*
G01X-530500Y3021150D02*
G01X-542180Y3009470D01*
G01X-542180Y3015310D02*
G01X-542180Y2997800D01*
G01X-530500Y2997800D02*
G01X-565530Y2997800D01*
G01X-565530Y2997800D02*
G01X-565530Y3015310D01*
G01X-565530Y3015310D02*
G01X-559690Y3021150D01*
G01X-559690Y3021150D02*
G01X-548010Y3021150D01*
G01X-548010Y3021150D02*
G01X-542180Y3015310D01*
G01X-530500Y2984320D02*
G01X-530500Y2960960D01*
G01X-530500Y2960960D02*
G01X-565530Y2960960D01*
G01X-565530Y2960960D02*
G01X-565530Y2984320D01*
G01X-548010Y2972640D02*
G01X-548010Y2960960D01*
G01X-536340Y2947490D02*
G01X-530500Y2941650D01*
G01X-530500Y2941650D02*
G01X-530500Y2929970D01*
G01X-530500Y2929970D02*
G01X-536340Y2924130D01*
G01X-536340Y2924130D02*
G01X-559690Y2924130D01*
G01X-559690Y2924130D02*
G01X-565530Y2929970D01*
G01X-565530Y2929970D02*
G01X-565530Y2941650D01*
G01X-565530Y2941650D02*
G01X-559690Y2947490D01*
G01X-604340Y2887300D02*
G01X-627690Y2887300D01*
G01X-553850Y2746110D02*
G01X-530500Y2746110D01*
G01X-530500Y2732640D02*
G01X-553850Y2732640D01*
G01X-530500Y2732640D02*
G01X-530500Y2715120D01*
G01X-530500Y2715120D02*
G01X-536340Y2709280D01*
G01X-536340Y2709280D02*
G01X-553850Y2709280D01*
G01X-553850Y2658970D02*
G01X-553850Y2641460D01*
G01X-553850Y2641460D02*
G01X-548010Y2635620D01*
G01X-548010Y2635620D02*
G01X-536340Y2635620D01*
G01X-536340Y2635620D02*
G01X-530500Y2641460D01*
G01X-530500Y2641460D02*
G01X-530500Y2658970D01*
G01X-530500Y2658970D02*
G01X-565530Y2658970D01*
G01X-548010Y2622140D02*
G01X-542180Y2622140D01*
G01X-542180Y2622140D02*
G01X-542180Y2598790D01*
G01X-548010Y2598790D02*
G01X-536340Y2598790D01*
G01X-536340Y2598790D02*
G01X-530500Y2604630D01*
G01X-530500Y2604630D02*
G01X-530500Y2616300D01*
G01X-548010Y2622140D02*
G01X-553850Y2616300D01*
G01X-553850Y2616300D02*
G01X-553850Y2604630D01*
G01X-553850Y2604630D02*
G01X-548010Y2598790D01*
G01X-553850Y2585310D02*
G01X-553850Y2567800D01*
G01X-553850Y2567800D02*
G01X-548010Y2561960D01*
G01X-548010Y2561960D02*
G01X-542180Y2567800D01*
G01X-542180Y2567800D02*
G01X-542180Y2579470D01*
G01X-542180Y2579470D02*
G01X-536340Y2585310D01*
G01X-536340Y2585310D02*
G01X-530500Y2579470D01*
G01X-530500Y2579470D02*
G01X-530500Y2561960D01*
G01X-530500Y2548480D02*
G01X-548010Y2548480D01*
G01X-548010Y2548480D02*
G01X-553850Y2542640D01*
G01X-553850Y2542640D02*
G01X-553850Y2525130D01*
G01X-553850Y2525130D02*
G01X-530500Y2525130D01*
G01X-542180Y2511650D02*
G01X-548010Y2511650D01*
G01X-548010Y2511650D02*
G01X-553850Y2505810D01*
G01X-553850Y2505810D02*
G01X-553850Y2494130D01*
G01X-553850Y2494130D02*
G01X-548010Y2488290D01*
G01X-548010Y2488290D02*
G01X-536340Y2488290D01*
G01X-536340Y2488290D02*
G01X-530500Y2494130D01*
G01X-530500Y2494130D02*
G01X-530500Y2505810D01*
G01X-542180Y2511650D02*
G01X-542180Y2488290D01*
G01X-553850Y2474820D02*
G01X-553850Y2457300D01*
G01X-553850Y2457300D02*
G01X-548010Y2451460D01*
G01X-548010Y2451460D02*
G01X-536340Y2451460D01*
G01X-536340Y2451460D02*
G01X-530500Y2457300D01*
G01X-530500Y2457300D02*
G01X-530500Y2474820D01*
G01X-530500Y2390080D02*
G01X-565530Y2390080D01*
G01X-1442500Y2568330D02*
G01X-1467500Y2593330D01*
G54D11*
G01X-1467500Y2468330D02*
G01X-1442500Y2443330D01*
G01X-2245900Y2534670D02*
G01X-2301950Y2534670D01*
G01X-2301950Y2534670D02*
G01X-2283270Y2553350D01*
G01X-2283270Y2553350D02*
G01X-2301950Y2572030D01*
G01X-2301950Y2572030D02*
G01X-2245900Y2572030D01*
G01X-2255240Y2595440D02*
G01X-2264580Y2604780D01*
G01X-2264580Y2604780D02*
G01X-2264580Y2632800D01*
G01X-2273920Y2632800D02*
G01X-2245900Y2632800D01*
G01X-2245900Y2632800D02*
G01X-2245900Y2604780D01*
G01X-2245900Y2604780D02*
G01X-2255240Y2595440D01*
G01X-2283270Y2604780D02*
G01X-2283270Y2623460D01*
G01X-2283270Y2623460D02*
G01X-2273920Y2632800D01*
G01X-2283270Y2656210D02*
G01X-2283270Y2665550D01*
G01X-2283270Y2665550D02*
G01X-2245900Y2665550D01*
G01X-2245900Y2656210D02*
G01X-2245900Y2674890D01*
G01X-2245900Y2696720D02*
G01X-2283270Y2696720D01*
G01X-2283270Y2696720D02*
G01X-2283270Y2724750D01*
G01X-2283270Y2724750D02*
G01X-2273920Y2734090D01*
G01X-2273920Y2734090D02*
G01X-2245900Y2734090D01*
G01X-2245900Y2818270D02*
G01X-2245900Y2846290D01*
G01X-2245900Y2846290D02*
G01X-2255240Y2855630D01*
G01X-2255240Y2855630D02*
G01X-2264580Y2855630D01*
G01X-2264580Y2855630D02*
G01X-2273920Y2846290D01*
G01X-2273920Y2846290D02*
G01X-2273920Y2818270D01*
G01X-2245900Y2818270D02*
G01X-2301950Y2818270D01*
G01X-2301950Y2818270D02*
G01X-2301950Y2846290D01*
G01X-2301950Y2846290D02*
G01X-2292610Y2855630D01*
G01X-2292610Y2855630D02*
G01X-2283270Y2855630D01*
G01X-2283270Y2855630D02*
G01X-2273920Y2846290D01*
G01X-2273920Y2879040D02*
G01X-2255240Y2879040D01*
G01X-2255240Y2879040D02*
G01X-2245900Y2888380D01*
G01X-2245900Y2888380D02*
G01X-2245900Y2907060D01*
G01X-2245900Y2907060D02*
G01X-2255240Y2916410D01*
G01X-2255240Y2916410D02*
G01X-2273920Y2916410D01*
G01X-2273920Y2916410D02*
G01X-2283270Y2907060D01*
G01X-2283270Y2907060D02*
G01X-2283270Y2888380D01*
G01X-2283270Y2888380D02*
G01X-2273920Y2879040D01*
G01X-2255240Y2939810D02*
G01X-2245900Y2949150D01*
G01X-2245900Y2949150D02*
G01X-2245900Y2977180D01*
G01X-2245900Y2977180D02*
G01X-2273920Y2977180D01*
G01X-2273920Y2977180D02*
G01X-2283270Y2967840D01*
G01X-2283270Y2967840D02*
G01X-2283270Y2949150D01*
G01X-2264580Y2949150D02*
G01X-2264580Y2977180D01*
G01X-2264580Y3000580D02*
G01X-2283270Y3019270D01*
G01X-2283270Y3019270D02*
G01X-2283270Y3028610D01*
G01X-2273920Y3051230D02*
G01X-2283270Y3060570D01*
G01X-2283270Y3060570D02*
G01X-2283270Y3088590D01*
G01X-2301950Y3088590D02*
G01X-2245900Y3088590D01*
G01X-2245900Y3088590D02*
G01X-2245900Y3060570D01*
G01X-2245900Y3060570D02*
G01X-2255240Y3051230D01*
G01X-2255240Y3051230D02*
G01X-2273920Y3051230D01*
G01X-2283270Y3000580D02*
G01X-2245900Y3000580D01*
G01X-2264580Y2949150D02*
G01X-2255240Y2939810D01*
G01X-2358100Y2954220D02*
G01X-2367440Y2944880D01*
G01X-2367440Y2944880D02*
G01X-2386120Y2944880D01*
G01X-2386120Y2944880D02*
G01X-2395470Y2954220D01*
G01X-2395470Y2954220D02*
G01X-2395470Y2972900D01*
G01X-2395470Y2972900D02*
G01X-2386120Y2982240D01*
G01X-2386120Y2982240D02*
G01X-2376780Y2982240D01*
G01X-2376780Y2982240D02*
G01X-2376780Y2944880D01*
G01X-2358100Y2954220D02*
G01X-2358100Y2972900D01*
G01X-2367440Y3014990D02*
G01X-2404810Y3014990D01*
G01X-2395470Y3005650D02*
G01X-2395470Y3024330D01*
G01X-2367440Y3014990D02*
G01X-2358100Y3024330D01*
G01X-2367440Y3046160D02*
G01X-2376780Y3055500D01*
G01X-2376780Y3055500D02*
G01X-2376780Y3083530D01*
G01X-2386120Y3083530D02*
G01X-2358100Y3083530D01*
G01X-2358100Y3083530D02*
G01X-2358100Y3055500D01*
G01X-2358100Y3055500D02*
G01X-2367440Y3046160D01*
G01X-2395470Y3055500D02*
G01X-2395470Y3074190D01*
G01X-2395470Y3074190D02*
G01X-2386120Y3083530D01*
G01X-2376780Y2921470D02*
G01X-2367440Y2921470D01*
G01X-2367440Y2921470D02*
G01X-2358100Y2912130D01*
G01X-2358100Y2912130D02*
G01X-2358100Y2884100D01*
G01X-2358100Y2884100D02*
G01X-2414150Y2884100D01*
G01X-2414150Y2884100D02*
G01X-2414150Y2912130D01*
G01X-2414150Y2912130D02*
G01X-2404810Y2921470D01*
G01X-2404810Y2921470D02*
G01X-2395470Y2921470D01*
G01X-2395470Y2921470D02*
G01X-2386120Y2912130D01*
G01X-2386120Y2912130D02*
G01X-2386120Y2884100D01*
G01X-2386120Y2912130D02*
G01X-2376780Y2921470D01*
G01X-2358100Y2799930D02*
G01X-2414150Y2799930D01*
G01X-2414150Y2799930D02*
G01X-2395470Y2781240D01*
G01X-2395470Y2781240D02*
G01X-2414150Y2762560D01*
G01X-2414150Y2762560D02*
G01X-2358100Y2762560D01*
G01X-2367440Y2739150D02*
G01X-2404810Y2739150D01*
G01X-2404810Y2739150D02*
G01X-2414150Y2729810D01*
G01X-2414150Y2729810D02*
G01X-2414150Y2711130D01*
G01X-2414150Y2711130D02*
G01X-2404810Y2701790D01*
G01X-2404810Y2701790D02*
G01X-2367440Y2701790D01*
G01X-2367440Y2701790D02*
G01X-2358100Y2711130D01*
G01X-2358100Y2711130D02*
G01X-2358100Y2729810D01*
G01X-2358100Y2729810D02*
G01X-2367440Y2739150D01*
G01X-2358100Y2679960D02*
G01X-2358100Y2661270D01*
G01X-2358100Y2670620D02*
G01X-2414150Y2670620D01*
G01X-2414150Y2679960D02*
G01X-2414150Y2661270D01*
G01X-2414150Y2637870D02*
G01X-2358100Y2600500D01*
G01X-2358100Y2577100D02*
G01X-2395470Y2577100D01*
G01X-2395470Y2577100D02*
G01X-2414150Y2558410D01*
G01X-2414150Y2558410D02*
G01X-2395470Y2539730D01*
G01X-2395470Y2539730D02*
G01X-2358100Y2539730D01*
G01X-2386120Y2539730D02*
G01X-2386120Y2577100D01*
G01X-2414150Y2600500D02*
G01X-2358100Y2637870D01*
G01X-2311290Y2665550D02*
G01X-2301950Y2665550D01*
G54D12*
G01X-1467500Y2418330D02*
G01X-1442500Y2393330D01*
G01X-2492500Y4480830D02*
G01X-2492500Y4530830D01*
G01X-2517500Y4505830D02*
G01X-2467500Y4505830D01*
G54D13*
G01X-1467500Y2443330D02*
G01X-1442500Y2418330D01*
G54D14*
G01X-1442500Y2468330D02*
G01X-1467500Y2493330D01*
G54D15*
G01X-1467500Y2518330D02*
G01X-1442500Y2493330D01*
G54D16*
G01X-1442500Y2518330D02*
G01X-1467500Y2543330D01*
G54D17*
G01X-1467500Y2568330D02*
G01X-1442500Y2543330D01*
G01X-1302090Y2396250D02*
G01X-1334580Y2363750D01*
G01X-1362420Y2335910D02*
G01X-1394920Y2303420D01*
G01X-1422760Y2275580D02*
G01X-1455250Y2243080D01*
G01X-1454750Y2243080D02*
G01X-1487240Y2275580D01*
G01X-1515080Y2303420D02*
G01X-1547580Y2335910D01*
G01X-1575420Y2363750D02*
G01X-1607910Y2396250D01*
G01X-1635750Y2424080D02*
G01X-1668250Y2456580D01*
G01X-1696090Y2484420D02*
G01X-1728580Y2516910D01*
G01X-1756420Y2544750D02*
G01X-1788910Y2577250D01*
G01X-1816750Y2605090D02*
G01X-1849250Y2637580D01*
G01X-1877090Y2665420D02*
G01X-1909580Y2697920D01*
G01X-1937420Y2725760D02*
G01X-1969920Y2758250D01*
G01X-1997760Y2786090D02*
G01X-2030250Y2818580D01*
G01X-2030250Y2818080D02*
G01X-1997760Y2850580D01*
G01X-1969920Y2878420D02*
G01X-1937420Y2910910D01*
G01X-1909580Y2938750D02*
G01X-1877090Y2971250D01*
G01X-1849250Y2999080D02*
G01X-1816750Y3031580D01*
G01X-1788910Y3059420D02*
G01X-1756420Y3091910D01*
G01X-1728580Y3119750D02*
G01X-1696090Y3152250D01*
G01X-1668250Y3180090D02*
G01X-1635750Y3212580D01*
G01X-1607910Y3240420D02*
G01X-1575420Y3272920D01*
G01X-1547580Y3300760D02*
G01X-1515080Y3333250D01*
G01X-1487240Y3361090D02*
G01X-1454750Y3393580D01*
G01X-1455250Y3393580D02*
G01X-1422760Y3361090D01*
G01X-1394920Y3333250D02*
G01X-1362420Y3300760D01*
G01X-1334580Y3272920D02*
G01X-1302090Y3240420D01*
G01X-1274250Y3212580D02*
G01X-1241750Y3180090D01*
G01X-1213910Y3152250D02*
G01X-1181420Y3119750D01*
G01X-1153580Y3091910D02*
G01X-1121090Y3059420D01*
G01X-1093250Y3031580D02*
G01X-1060750Y2999080D01*
G01X-1032910Y2971250D02*
G01X-1000420Y2938750D01*
G01X-972580Y2910910D02*
G01X-940080Y2878420D01*
G01X-912240Y2850580D02*
G01X-879750Y2818080D01*
G01X-879750Y2818580D02*
G01X-912240Y2786090D01*
G01X-940080Y2758250D02*
G01X-972580Y2725760D01*
G01X-1000420Y2697920D02*
G01X-1032910Y2665420D01*
G01X-1060750Y2637580D02*
G01X-1093250Y2605090D01*
G01X-1121090Y2577250D02*
G01X-1153580Y2544750D01*
G01X-1181420Y2516910D02*
G01X-1213910Y2484420D01*
G01X-1241750Y2456580D02*
G01X-1274250Y2424080D01*
G01X-1229600Y2393730D02*
G01X-1258890Y2364450D01*
G01X-1286720Y2336610D02*
G01X-1316010Y2307330D01*
G01X-1343850Y2279490D02*
G01X-1373130Y2250200D01*
G01X-1400970Y2222370D02*
G01X-1430250Y2193080D01*
G01X-1430250Y2193080D02*
G01X-1479750Y2193080D01*
G01X-1479750Y2193080D02*
G01X-1509030Y2222370D01*
G01X-1536870Y2250200D02*
G01X-1566150Y2279490D01*
G01X-1593990Y2307330D02*
G01X-1623280Y2336610D01*
G01X-1651110Y2364450D02*
G01X-1680400Y2393730D01*
G01X-1708240Y2421570D02*
G01X-1737520Y2450850D01*
G01X-1765360Y2478690D02*
G01X-1794640Y2507970D01*
G01X-1822480Y2535810D02*
G01X-1851760Y2565100D01*
G01X-1879600Y2592940D02*
G01X-1908890Y2622220D01*
G01X-1936720Y2650060D02*
G01X-1966010Y2679340D01*
G01X-1993850Y2707180D02*
G01X-2023130Y2736460D01*
G01X-2050970Y2764300D02*
G01X-2080250Y2793580D01*
G01X-2080250Y2793580D02*
G01X-2080250Y2843080D01*
G01X-2080250Y2843080D02*
G01X-2050970Y2872370D01*
G01X-2023130Y2900200D02*
G01X-1993850Y2929490D01*
G01X-1966010Y2957330D02*
G01X-1936720Y2986610D01*
G01X-1908890Y3014450D02*
G01X-1879600Y3043730D01*
G01X-1851760Y3071570D02*
G01X-1822480Y3100850D01*
G01X-1794640Y3128690D02*
G01X-1765360Y3157970D01*
G01X-1737520Y3185810D02*
G01X-1708240Y3215100D01*
G01X-1680400Y3242940D02*
G01X-1651110Y3272220D01*
G01X-1623280Y3300060D02*
G01X-1593990Y3329340D01*
G01X-1566150Y3357180D02*
G01X-1536870Y3386460D01*
G01X-1509030Y3414300D02*
G01X-1479750Y3443580D01*
G01X-1479750Y3443580D02*
G01X-1430250Y3443580D01*
G01X-1430250Y3443580D02*
G01X-1400970Y3414300D01*
G01X-1373130Y3386460D02*
G01X-1343850Y3357180D01*
G01X-1316010Y3329340D02*
G01X-1286720Y3300060D01*
G01X-1258890Y3272220D02*
G01X-1229600Y3242940D01*
G01X-1201760Y3215100D02*
G01X-1172480Y3185810D01*
G01X-1144640Y3157970D02*
G01X-1115360Y3128690D01*
G01X-1087520Y3100850D02*
G01X-1058240Y3071570D01*
G01X-1030400Y3043730D02*
G01X-1001110Y3014450D01*
G01X-973280Y2986610D02*
G01X-943990Y2957330D01*
G01X-916150Y2929490D02*
G01X-886870Y2900200D01*
G01X-859030Y2872370D02*
G01X-829750Y2843080D01*
G01X-829750Y2843080D02*
G01X-829750Y2793580D01*
G01X-829750Y2793580D02*
G01X-859030Y2764300D01*
G01X-886870Y2736460D02*
G01X-916150Y2707180D01*
G01X-943990Y2679340D02*
G01X-973280Y2650060D01*
G01X-1001110Y2622220D02*
G01X-1030400Y2592940D01*
G01X-1058240Y2565100D02*
G01X-1087520Y2535810D01*
G01X-1115360Y2507970D02*
G01X-1144640Y2478690D01*
G01X-1172480Y2450850D02*
G01X-1201760Y2421570D01*
G01X-1413670Y2871330D02*
G01X-1408000Y2877000D01*
G01X-1408000Y2877000D02*
G01X-1408000Y2888350D01*
G01X-1408000Y2888350D02*
G01X-1413670Y2894020D01*
G01X-1413670Y2908160D02*
G01X-1425010Y2908160D01*
G01X-1425010Y2908160D02*
G01X-1430690Y2913840D01*
G01X-1430690Y2913840D02*
G01X-1430690Y2925180D01*
G01X-1430690Y2925180D02*
G01X-1425010Y2930850D01*
G01X-1425010Y2930850D02*
G01X-1419340Y2930850D01*
G01X-1419340Y2930850D02*
G01X-1419340Y2908160D01*
G01X-1413670Y2908160D02*
G01X-1408000Y2913840D01*
G01X-1408000Y2913840D02*
G01X-1408000Y2925180D01*
G01X-1408000Y2945000D02*
G01X-1430690Y2945000D01*
G01X-1430690Y2945000D02*
G01X-1430690Y2962010D01*
G01X-1430690Y2962010D02*
G01X-1425010Y2967680D01*
G01X-1425010Y2967680D02*
G01X-1408000Y2967680D01*
G01X-1413670Y2987500D02*
G01X-1436360Y2987500D01*
G01X-1430690Y2981830D02*
G01X-1430690Y2993170D01*
G01X-1425010Y3006380D02*
G01X-1430690Y3012050D01*
G01X-1430690Y3012050D02*
G01X-1430690Y3023400D01*
G01X-1430690Y3023400D02*
G01X-1425010Y3029070D01*
G01X-1425010Y3029070D02*
G01X-1419340Y3029070D01*
G01X-1419340Y3029070D02*
G01X-1419340Y3006380D01*
G01X-1413670Y3006380D02*
G01X-1425010Y3006380D01*
G01X-1413670Y3006380D02*
G01X-1408000Y3012050D01*
G01X-1408000Y3012050D02*
G01X-1408000Y3023400D01*
G01X-1408000Y3043210D02*
G01X-1430690Y3043210D01*
G01X-1430690Y3054560D02*
G01X-1430690Y3060230D01*
G01X-1430690Y3054560D02*
G01X-1419340Y3043210D01*
G01X-1408000Y2993170D02*
G01X-1413670Y2987500D01*
G01X-1468000Y2992240D02*
G01X-1468000Y2975220D01*
G01X-1468000Y2975220D02*
G01X-1473670Y2969550D01*
G01X-1473670Y2969550D02*
G01X-1485010Y2969550D01*
G01X-1485010Y2969550D02*
G01X-1490690Y2975220D01*
G01X-1490690Y2975220D02*
G01X-1490690Y2992240D01*
G01X-1502030Y2992240D02*
G01X-1468000Y2992240D01*
G01X-1473670Y3006380D02*
G01X-1485010Y3006380D01*
G01X-1485010Y3006380D02*
G01X-1490690Y3012050D01*
G01X-1490690Y3012050D02*
G01X-1490690Y3023400D01*
G01X-1490690Y3023400D02*
G01X-1485010Y3029070D01*
G01X-1485010Y3029070D02*
G01X-1479340Y3029070D01*
G01X-1479340Y3029070D02*
G01X-1479340Y3006380D01*
G01X-1473670Y3006380D02*
G01X-1468000Y3012050D01*
G01X-1468000Y3012050D02*
G01X-1468000Y3023400D01*
G01X-1468000Y3043210D02*
G01X-1490690Y3043210D01*
G01X-1490690Y3054560D02*
G01X-1490690Y3060230D01*
G01X-1490690Y3054560D02*
G01X-1479340Y3043210D01*
G01X-1473670Y3110740D02*
G01X-1496360Y3110740D01*
G01X-1496360Y3110740D02*
G01X-1502030Y3116410D01*
G01X-1502030Y3116410D02*
G01X-1502030Y3127750D01*
G01X-1502030Y3127750D02*
G01X-1496360Y3133420D01*
G01X-1496360Y3133420D02*
G01X-1473670Y3133420D01*
G01X-1473670Y3133420D02*
G01X-1468000Y3127750D01*
G01X-1468000Y3127750D02*
G01X-1468000Y3116410D01*
G01X-1468000Y3116410D02*
G01X-1473670Y3110740D01*
G01X-1442030Y3122080D02*
G01X-1430690Y3133420D01*
G01X-1430690Y3133420D02*
G01X-1408000Y3133420D01*
G01X-1408000Y3147570D02*
G01X-1430690Y3147570D01*
G01X-1430690Y3158910D02*
G01X-1430690Y3164580D01*
G01X-1430690Y3158910D02*
G01X-1419340Y3147570D01*
G01X-1425010Y3133420D02*
G01X-1425010Y3110740D01*
G01X-1430690Y3110740D02*
G01X-1442030Y3122080D01*
G01X-1430690Y3110740D02*
G01X-1408000Y3110740D01*
G01X-1413670Y3178260D02*
G01X-1425010Y3178260D01*
G01X-1425010Y3178260D02*
G01X-1430690Y3183930D01*
G01X-1430690Y3183930D02*
G01X-1430690Y3195280D01*
G01X-1430690Y3195280D02*
G01X-1425010Y3200950D01*
G01X-1425010Y3200950D02*
G01X-1419340Y3200950D01*
G01X-1419340Y3200950D02*
G01X-1419340Y3178260D01*
G01X-1413670Y3178260D02*
G01X-1408000Y3183930D01*
G01X-1408000Y3183930D02*
G01X-1408000Y3195280D01*
G01X-1413670Y3215090D02*
G01X-1419340Y3220760D01*
G01X-1419340Y3220760D02*
G01X-1419340Y3237780D01*
G01X-1425010Y3237780D02*
G01X-1408000Y3237780D01*
G01X-1408000Y3237780D02*
G01X-1408000Y3220760D01*
G01X-1408000Y3220760D02*
G01X-1413670Y3215090D01*
G01X-1430690Y3220760D02*
G01X-1430690Y3232110D01*
G01X-1430690Y3232110D02*
G01X-1425010Y3237780D01*
G01X-1468000Y3170260D02*
G01X-1485010Y3170260D01*
G01X-1485010Y3170260D02*
G01X-1490690Y3164580D01*
G01X-1490690Y3164580D02*
G01X-1490690Y3147570D01*
G01X-1490690Y3147570D02*
G01X-1468000Y3147570D01*
G01X-1468000Y2956340D02*
G01X-1468000Y2945000D01*
G01X-1468000Y2950670D02*
G01X-1502030Y2950670D01*
G01X-1502030Y2950670D02*
G01X-1502030Y2945000D01*
G01X-1485010Y2930850D02*
G01X-1473670Y2930850D01*
G01X-1473670Y2930850D02*
G01X-1468000Y2925180D01*
G01X-1468000Y2925180D02*
G01X-1468000Y2913840D01*
G01X-1468000Y2913840D02*
G01X-1473670Y2908160D01*
G01X-1473670Y2908160D02*
G01X-1485010Y2908160D01*
G01X-1485010Y2908160D02*
G01X-1490690Y2913840D01*
G01X-1490690Y2913840D02*
G01X-1490690Y2925180D01*
G01X-1490690Y2925180D02*
G01X-1485010Y2930850D01*
G01X-1479340Y2894020D02*
G01X-1485010Y2888350D01*
G01X-1485010Y2888350D02*
G01X-1485010Y2877000D01*
G01X-1485010Y2877000D02*
G01X-1490690Y2871330D01*
G01X-1490690Y2871330D02*
G01X-1496360Y2871330D01*
G01X-1496360Y2871330D02*
G01X-1502030Y2877000D01*
G01X-1502030Y2877000D02*
G01X-1502030Y2888350D01*
G01X-1502030Y2888350D02*
G01X-1496360Y2894020D01*
G01X-1479340Y2894020D02*
G01X-1473670Y2894020D01*
G01X-1473670Y2894020D02*
G01X-1468000Y2888350D01*
G01X-1468000Y2888350D02*
G01X-1468000Y2877000D01*
G01X-1468000Y2877000D02*
G01X-1473670Y2871330D01*
G01X-1442030Y2877000D02*
G01X-1436360Y2871330D01*
G01X-1436360Y2871330D02*
G01X-1413670Y2871330D01*
G01X-1442030Y2877000D02*
G01X-1442030Y2888350D01*
G01X-1442030Y2888350D02*
G01X-1436360Y2894020D01*
G01X-530000Y3733330D02*
G01X-530000Y3903330D01*
G01X-530000Y3903330D02*
G01X-529980Y3904090D01*
G01X-529980Y3904090D02*
G01X-529920Y3904850D01*
G01X-529920Y3904850D02*
G01X-529830Y3905600D01*
G01X-529830Y3905600D02*
G01X-529690Y3906350D01*
G01X-529690Y3906350D02*
G01X-529520Y3907090D01*
G01X-529520Y3907090D02*
G01X-529310Y3907820D01*
G01X-529310Y3907820D02*
G01X-529070Y3908540D01*
G01X-529070Y3908540D02*
G01X-528780Y3909250D01*
G01X-528780Y3909250D02*
G01X-528470Y3909940D01*
G01X-528470Y3909940D02*
G01X-528120Y3910610D01*
G01X-528120Y3910610D02*
G01X-527730Y3911260D01*
G01X-527730Y3911260D02*
G01X-527310Y3911900D01*
G01X-527310Y3911900D02*
G01X-526860Y3912510D01*
G01X-526860Y3912510D02*
G01X-526380Y3913100D01*
G01X-526380Y3913100D02*
G01X-525870Y3913660D01*
G01X-525870Y3913660D02*
G01X-525330Y3914200D01*
G01X-525330Y3914200D02*
G01X-524770Y3914710D01*
G01X-524770Y3914710D02*
G01X-524180Y3915190D01*
G01X-524180Y3915190D02*
G01X-523570Y3915640D01*
G01X-523570Y3915640D02*
G01X-522930Y3916060D01*
G01X-522930Y3916060D02*
G01X-522280Y3916450D01*
G01X-522280Y3916450D02*
G01X-521610Y3916800D01*
G01X-521610Y3916800D02*
G01X-520920Y3917110D01*
G01X-520920Y3917110D02*
G01X-520210Y3917400D01*
G01X-520210Y3917400D02*
G01X-519490Y3917640D01*
G01X-519490Y3917640D02*
G01X-518760Y3917850D01*
G01X-518760Y3917850D02*
G01X-518020Y3918020D01*
G01X-518020Y3918020D02*
G01X-517270Y3918160D01*
G01X-517270Y3918160D02*
G01X-516520Y3918250D01*
G01X-516520Y3918250D02*
G01X-515760Y3918310D01*
G01X-515760Y3918310D02*
G01X-515000Y3918330D01*
G01X-515000Y3918330D02*
G01X-395000Y3918330D01*
G01X-395000Y3918330D02*
G01X-394240Y3918310D01*
G01X-394240Y3918310D02*
G01X-393480Y3918250D01*
G01X-393480Y3918250D02*
G01X-392730Y3918160D01*
G01X-392730Y3918160D02*
G01X-391980Y3918020D01*
G01X-391980Y3918020D02*
G01X-391240Y3917850D01*
G01X-391240Y3917850D02*
G01X-390510Y3917640D01*
G01X-390510Y3917640D02*
G01X-389790Y3917400D01*
G01X-389790Y3917400D02*
G01X-389080Y3917110D01*
G01X-389080Y3917110D02*
G01X-388390Y3916800D01*
G01X-388390Y3916800D02*
G01X-387720Y3916450D01*
G01X-387720Y3916450D02*
G01X-387070Y3916060D01*
G01X-387070Y3916060D02*
G01X-386430Y3915640D01*
G01X-386430Y3915640D02*
G01X-385820Y3915190D01*
G01X-385820Y3915190D02*
G01X-385230Y3914710D01*
G01X-385230Y3914710D02*
G01X-384670Y3914200D01*
G01X-384670Y3914200D02*
G01X-384130Y3913660D01*
G01X-384130Y3913660D02*
G01X-383620Y3913100D01*
G01X-383620Y3913100D02*
G01X-383140Y3912510D01*
G01X-383140Y3912510D02*
G01X-382690Y3911900D01*
G01X-382690Y3911900D02*
G01X-382270Y3911260D01*
G01X-382270Y3911260D02*
G01X-381880Y3910610D01*
G01X-381880Y3910610D02*
G01X-381530Y3909940D01*
G01X-381530Y3909940D02*
G01X-381220Y3909250D01*
G01X-381220Y3909250D02*
G01X-380930Y3908540D01*
G01X-380930Y3908540D02*
G01X-380690Y3907820D01*
G01X-380690Y3907820D02*
G01X-380480Y3907090D01*
G01X-380480Y3907090D02*
G01X-380310Y3906350D01*
G01X-380310Y3906350D02*
G01X-380170Y3905600D01*
G01X-380170Y3905600D02*
G01X-380080Y3904850D01*
G01X-380080Y3904850D02*
G01X-380020Y3904090D01*
G01X-380020Y3904090D02*
G01X-380000Y3903330D01*
G01X-380000Y3903330D02*
G01X-380000Y3733330D01*
G01X-380000Y3733330D02*
G01X-380020Y3732570D01*
G01X-380020Y3732570D02*
G01X-380080Y3731810D01*
G01X-380080Y3731810D02*
G01X-380170Y3731060D01*
G01X-380170Y3731060D02*
G01X-380310Y3730310D01*
G01X-380310Y3730310D02*
G01X-380480Y3729570D01*
G01X-380480Y3729570D02*
G01X-380690Y3728840D01*
G01X-380690Y3728840D02*
G01X-380930Y3728120D01*
G01X-380930Y3728120D02*
G01X-381220Y3727410D01*
G01X-381220Y3727410D02*
G01X-381530Y3726720D01*
G01X-381530Y3726720D02*
G01X-381880Y3726050D01*
G01X-381880Y3726050D02*
G01X-382270Y3725400D01*
G01X-382270Y3725400D02*
G01X-382690Y3724760D01*
G01X-382690Y3724760D02*
G01X-383140Y3724150D01*
G01X-383140Y3724150D02*
G01X-383620Y3723560D01*
G01X-383620Y3723560D02*
G01X-384130Y3723000D01*
G01X-384130Y3723000D02*
G01X-384670Y3722460D01*
G01X-384670Y3722460D02*
G01X-385230Y3721950D01*
G01X-385230Y3721950D02*
G01X-385820Y3721470D01*
G01X-385820Y3721470D02*
G01X-386430Y3721020D01*
G01X-386430Y3721020D02*
G01X-387070Y3720600D01*
G01X-387070Y3720600D02*
G01X-387720Y3720210D01*
G01X-387720Y3720210D02*
G01X-388390Y3719860D01*
G01X-388390Y3719860D02*
G01X-389080Y3719550D01*
G01X-389080Y3719550D02*
G01X-389790Y3719260D01*
G01X-389790Y3719260D02*
G01X-390510Y3719020D01*
G01X-390510Y3719020D02*
G01X-391240Y3718810D01*
G01X-391240Y3718810D02*
G01X-391980Y3718640D01*
G01X-391980Y3718640D02*
G01X-392730Y3718500D01*
G01X-392730Y3718500D02*
G01X-393480Y3718410D01*
G01X-393480Y3718410D02*
G01X-394240Y3718350D01*
G01X-394240Y3718350D02*
G01X-395000Y3718330D01*
G01X-395000Y3718330D02*
G01X-515000Y3718330D01*
G01X-515000Y3718330D02*
G01X-515760Y3718350D01*
G01X-515760Y3718350D02*
G01X-516520Y3718410D01*
G01X-516520Y3718410D02*
G01X-517270Y3718500D01*
G01X-517270Y3718500D02*
G01X-518020Y3718640D01*
G01X-518020Y3718640D02*
G01X-518760Y3718810D01*
G01X-518760Y3718810D02*
G01X-519490Y3719020D01*
G01X-519490Y3719020D02*
G01X-520210Y3719260D01*
G01X-520210Y3719260D02*
G01X-520920Y3719550D01*
G01X-520920Y3719550D02*
G01X-521610Y3719860D01*
G01X-521610Y3719860D02*
G01X-522280Y3720210D01*
G01X-522280Y3720210D02*
G01X-522930Y3720600D01*
G01X-522930Y3720600D02*
G01X-523570Y3721020D01*
G01X-523570Y3721020D02*
G01X-524180Y3721470D01*
G01X-524180Y3721470D02*
G01X-524770Y3721950D01*
G01X-524770Y3721950D02*
G01X-525330Y3722460D01*
G01X-525330Y3722460D02*
G01X-525870Y3723000D01*
G01X-525870Y3723000D02*
G01X-526380Y3723560D01*
G01X-526380Y3723560D02*
G01X-526860Y3724150D01*
G01X-526860Y3724150D02*
G01X-527310Y3724760D01*
G01X-527310Y3724760D02*
G01X-527730Y3725400D01*
G01X-527730Y3725400D02*
G01X-528120Y3726050D01*
G01X-528120Y3726050D02*
G01X-528470Y3726720D01*
G01X-528470Y3726720D02*
G01X-528780Y3727410D01*
G01X-528780Y3727410D02*
G01X-529070Y3728120D01*
G01X-529070Y3728120D02*
G01X-529310Y3728840D01*
G01X-529310Y3728840D02*
G01X-529520Y3729570D01*
G01X-529520Y3729570D02*
G01X-529690Y3730310D01*
G01X-529690Y3730310D02*
G01X-529830Y3731060D01*
G01X-529830Y3731060D02*
G01X-529920Y3731810D01*
G01X-529920Y3731810D02*
G01X-529980Y3732570D01*
G01X-529980Y3732570D02*
G01X-530000Y3733330D01*
G01X-502030Y3741960D02*
G01X-479340Y3741960D01*
G01X-479340Y3741960D02*
G01X-468000Y3753310D01*
G01X-468000Y3753310D02*
G01X-479340Y3764650D01*
G01X-479340Y3764650D02*
G01X-502030Y3764650D01*
G01X-496360Y3778790D02*
G01X-502030Y3784470D01*
G01X-502030Y3784470D02*
G01X-502030Y3795810D01*
G01X-502030Y3795810D02*
G01X-496360Y3801480D01*
G01X-496360Y3801480D02*
G01X-473670Y3778790D01*
G01X-473670Y3778790D02*
G01X-468000Y3784470D01*
G01X-468000Y3784470D02*
G01X-468000Y3795810D01*
G01X-468000Y3795810D02*
G01X-473670Y3801480D01*
G01X-473670Y3801480D02*
G01X-496360Y3801480D01*
G01X-496360Y3778790D02*
G01X-473670Y3778790D01*
G01X-442030Y3777390D02*
G01X-436360Y3783060D01*
G01X-436360Y3783060D02*
G01X-425010Y3783060D01*
G01X-425010Y3783060D02*
G01X-419340Y3777390D01*
G01X-419340Y3777390D02*
G01X-419340Y3760380D01*
G01X-408000Y3760380D02*
G01X-442030Y3760380D01*
G01X-442030Y3760380D02*
G01X-442030Y3777390D01*
G01X-430690Y3797210D02*
G01X-442030Y3808550D01*
G01X-442030Y3808550D02*
G01X-408000Y3808550D01*
G01X-408000Y3797210D02*
G01X-408000Y3819900D01*
G01X-408000Y3834040D02*
G01X-408000Y3839710D01*
G01X-408000Y3839710D02*
G01X-413670Y3839710D01*
G01X-413670Y3839710D02*
G01X-413670Y3834040D01*
G01X-413670Y3834040D02*
G01X-408000Y3834040D01*
G01X-408000Y3852460D02*
G01X-430690Y3875140D01*
G01X-430690Y3875140D02*
G01X-436360Y3875140D01*
G01X-436360Y3875140D02*
G01X-442030Y3869470D01*
G01X-442030Y3869470D02*
G01X-442030Y3858130D01*
G01X-442030Y3858130D02*
G01X-436360Y3852460D01*
G01X-408000Y3852460D02*
G01X-408000Y3875140D01*
G01X-408000Y3783060D02*
G01X-419340Y3771720D01*
G01X-468000Y3815630D02*
G01X-468000Y3821300D01*
G01X-468000Y3821300D02*
G01X-473670Y3821300D01*
G01X-473670Y3821300D02*
G01X-473670Y3815630D01*
G01X-473670Y3815630D02*
G01X-468000Y3815630D01*
G01X-473670Y3834040D02*
G01X-468000Y3839710D01*
G01X-468000Y3839710D02*
G01X-468000Y3851060D01*
G01X-468000Y3851060D02*
G01X-473670Y3856730D01*
G01X-473670Y3856730D02*
G01X-479340Y3856730D01*
G01X-479340Y3856730D02*
G01X-485010Y3851060D01*
G01X-485010Y3851060D02*
G01X-485010Y3845380D01*
G01X-485010Y3851060D02*
G01X-490690Y3856730D01*
G01X-490690Y3856730D02*
G01X-496360Y3856730D01*
G01X-496360Y3856730D02*
G01X-502030Y3851060D01*
G01X-502030Y3851060D02*
G01X-502030Y3839710D01*
G01X-502030Y3839710D02*
G01X-496360Y3834040D01*
G01X-496360Y3870870D02*
G01X-490690Y3870870D01*
G01X-490690Y3870870D02*
G01X-485010Y3876540D01*
G01X-485010Y3876540D02*
G01X-485010Y3887890D01*
G01X-485010Y3887890D02*
G01X-479340Y3893560D01*
G01X-479340Y3893560D02*
G01X-473670Y3893560D01*
G01X-473670Y3893560D02*
G01X-468000Y3887890D01*
G01X-468000Y3887890D02*
G01X-468000Y3876540D01*
G01X-468000Y3876540D02*
G01X-473670Y3870870D01*
G01X-473670Y3870870D02*
G01X-479340Y3870870D01*
G01X-479340Y3870870D02*
G01X-485010Y3876540D01*
G01X-485010Y3887890D02*
G01X-490690Y3893560D01*
G01X-490690Y3893560D02*
G01X-496360Y3893560D01*
G01X-496360Y3893560D02*
G01X-502030Y3887890D01*
G01X-502030Y3887890D02*
G01X-502030Y3876540D01*
G01X-502030Y3876540D02*
G01X-496360Y3870870D01*
G54D18*
G01X-882000Y1929310D02*
G01X-900680Y1929310D01*
G01X-911470Y1929310D02*
G01X-930150Y1957330D01*
G01X-940930Y1957330D02*
G01X-959610Y1957330D01*
G01X-950270Y1957330D02*
G01X-950270Y1929310D01*
G01X-950270Y1929310D02*
G01X-940930Y1938650D01*
G01X-930150Y1929310D02*
G01X-911470Y1957330D01*
G01X-891340Y1943320D02*
G01X-882000Y1943320D01*
G01X-882000Y1957330D02*
G01X-882000Y1929310D01*
G01X-970400Y1933980D02*
G01X-975070Y1929310D01*
G01X-975070Y1929310D02*
G01X-984410Y1929310D01*
G01X-984410Y1929310D02*
G01X-989080Y1933980D01*
G01X-989080Y1933980D02*
G01X-970400Y1952660D01*
G01X-970400Y1952660D02*
G01X-975070Y1957330D01*
G01X-975070Y1957330D02*
G01X-984410Y1957330D01*
G01X-984410Y1957330D02*
G01X-989080Y1952660D01*
G01X-989080Y1952660D02*
G01X-989080Y1933980D01*
G01X-999860Y1938650D02*
G01X-1009200Y1929310D01*
G01X-1009200Y1929310D02*
G01X-1018540Y1938650D01*
G01X-1018540Y1938650D02*
G01X-1018540Y1957330D01*
G01X-1018540Y1943320D02*
G01X-999860Y1943320D01*
G01X-999860Y1938650D02*
G01X-999860Y1957330D01*
G01X-970400Y1952660D02*
G01X-970400Y1933980D01*
G01X-1029330Y1943320D02*
G01X-1048010Y1943320D01*
G01X-1058790Y1938650D02*
G01X-1068130Y1929310D01*
G01X-1068130Y1929310D02*
G01X-1068130Y1957330D01*
G01X-1058790Y1957330D02*
G01X-1077470Y1957330D01*
G01X-1088260Y1952660D02*
G01X-1092930Y1957330D01*
G01X-1092930Y1957330D02*
G01X-1102270Y1957330D01*
G01X-1102270Y1957330D02*
G01X-1106940Y1952660D01*
G01X-1106940Y1952660D02*
G01X-1106940Y1933980D01*
G01X-1106940Y1933980D02*
G01X-1088260Y1952660D01*
G01X-1088260Y1952660D02*
G01X-1088260Y1933980D01*
G01X-1088260Y1933980D02*
G01X-1092930Y1929310D01*
G01X-1092930Y1929310D02*
G01X-1102270Y1929310D01*
G01X-1102270Y1929310D02*
G01X-1106940Y1933980D01*
G01X-1117720Y1933980D02*
G01X-1122390Y1929310D01*
G01X-1122390Y1929310D02*
G01X-1131730Y1929310D01*
G01X-1131730Y1929310D02*
G01X-1136400Y1933980D01*
G01X-1136400Y1933980D02*
G01X-1117720Y1952660D01*
G01X-1117720Y1952660D02*
G01X-1122390Y1957330D01*
G01X-1122390Y1957330D02*
G01X-1131730Y1957330D01*
G01X-1131730Y1957330D02*
G01X-1136400Y1952660D01*
G01X-1136400Y1952660D02*
G01X-1136400Y1933980D01*
G01X-1147190Y1933980D02*
G01X-1147190Y1938650D01*
G01X-1147190Y1938650D02*
G01X-1151860Y1943320D01*
G01X-1151860Y1943320D02*
G01X-1161200Y1943320D01*
G01X-1161200Y1943320D02*
G01X-1165870Y1947990D01*
G01X-1165870Y1947990D02*
G01X-1165870Y1952660D01*
G01X-1165870Y1952660D02*
G01X-1161200Y1957330D01*
G01X-1161200Y1957330D02*
G01X-1151860Y1957330D01*
G01X-1151860Y1957330D02*
G01X-1147190Y1952660D01*
G01X-1147190Y1933980D02*
G01X-1151860Y1929310D01*
G01X-1151860Y1929310D02*
G01X-1161200Y1929310D01*
G01X-1161200Y1929310D02*
G01X-1165870Y1933980D01*
G01X-1176650Y1957330D02*
G01X-1195330Y1929310D01*
G01X-1206120Y1938650D02*
G01X-1215460Y1929310D01*
G01X-1215460Y1929310D02*
G01X-1215460Y1957330D01*
G01X-1206120Y1957330D02*
G01X-1224800Y1957330D01*
G01X-1235580Y1952660D02*
G01X-1254260Y1933980D01*
G01X-1254260Y1933980D02*
G01X-1254260Y1952660D01*
G01X-1254260Y1952660D02*
G01X-1249590Y1957330D01*
G01X-1249590Y1957330D02*
G01X-1240250Y1957330D01*
G01X-1240250Y1957330D02*
G01X-1235580Y1952660D01*
G01X-1235580Y1952660D02*
G01X-1235580Y1933980D01*
G01X-1235580Y1933980D02*
G01X-1240250Y1929310D01*
G01X-1240250Y1929310D02*
G01X-1249590Y1929310D01*
G01X-1249590Y1929310D02*
G01X-1254260Y1933980D01*
G01X-1117720Y1933980D02*
G01X-1117720Y1952660D01*
G01X-1442500Y2593330D02*
G01X-1467500Y2618330D01*
G01X-1249590Y3679310D02*
G01X-1254260Y3683980D01*
G01X-1254260Y3683980D02*
G01X-1235580Y3702660D01*
G01X-1235580Y3702660D02*
G01X-1240250Y3707330D01*
G01X-1240250Y3707330D02*
G01X-1249590Y3707330D01*
G01X-1249590Y3707330D02*
G01X-1254260Y3702660D01*
G01X-1254260Y3702660D02*
G01X-1254260Y3683980D01*
G01X-1249590Y3679310D02*
G01X-1240250Y3679310D01*
G01X-1240250Y3679310D02*
G01X-1235580Y3683980D01*
G01X-1235580Y3683980D02*
G01X-1235580Y3702660D01*
G01X-1224800Y3707330D02*
G01X-1206120Y3707330D01*
G01X-1215460Y3707330D02*
G01X-1215460Y3679310D01*
G01X-1215460Y3679310D02*
G01X-1206120Y3688650D01*
G01X-1195330Y3679310D02*
G01X-1176650Y3707330D01*
G01X-1165870Y3702660D02*
G01X-1161200Y3707330D01*
G01X-1161200Y3707330D02*
G01X-1151860Y3707330D01*
G01X-1151860Y3707330D02*
G01X-1147190Y3702660D01*
G01X-1151860Y3693320D02*
G01X-1147190Y3688650D01*
G01X-1147190Y3688650D02*
G01X-1147190Y3683980D01*
G01X-1147190Y3683980D02*
G01X-1151860Y3679310D01*
G01X-1151860Y3679310D02*
G01X-1161200Y3679310D01*
G01X-1161200Y3679310D02*
G01X-1165870Y3683980D01*
G01X-1161200Y3693320D02*
G01X-1165870Y3697990D01*
G01X-1165870Y3697990D02*
G01X-1165870Y3702660D01*
G01X-1161200Y3693320D02*
G01X-1151860Y3693320D01*
G01X-1136400Y3683980D02*
G01X-1117720Y3702660D01*
G01X-1117720Y3702660D02*
G01X-1122390Y3707330D01*
G01X-1122390Y3707330D02*
G01X-1131730Y3707330D01*
G01X-1131730Y3707330D02*
G01X-1136400Y3702660D01*
G01X-1136400Y3702660D02*
G01X-1136400Y3683980D01*
G01X-1136400Y3683980D02*
G01X-1131730Y3679310D01*
G01X-1131730Y3679310D02*
G01X-1122390Y3679310D01*
G01X-1122390Y3679310D02*
G01X-1117720Y3683980D01*
G01X-1117720Y3683980D02*
G01X-1117720Y3702660D01*
G01X-1106940Y3702660D02*
G01X-1102270Y3707330D01*
G01X-1102270Y3707330D02*
G01X-1092930Y3707330D01*
G01X-1092930Y3707330D02*
G01X-1088260Y3702660D01*
G01X-1088260Y3702660D02*
G01X-1106940Y3683980D01*
G01X-1106940Y3683980D02*
G01X-1106940Y3702660D01*
G01X-1106940Y3683980D02*
G01X-1102270Y3679310D01*
G01X-1102270Y3679310D02*
G01X-1092930Y3679310D01*
G01X-1092930Y3679310D02*
G01X-1088260Y3683980D01*
G01X-1088260Y3683980D02*
G01X-1088260Y3702660D01*
G01X-1077470Y3707330D02*
G01X-1058790Y3707330D01*
G01X-1068130Y3707330D02*
G01X-1068130Y3679310D01*
G01X-1068130Y3679310D02*
G01X-1058790Y3688650D01*
G01X-1048010Y3693320D02*
G01X-1029330Y3693320D01*
G01X-1018540Y3693320D02*
G01X-999860Y3693320D01*
G01X-999860Y3688650D02*
G01X-1009200Y3679310D01*
G01X-1009200Y3679310D02*
G01X-1018540Y3688650D01*
G01X-1018540Y3688650D02*
G01X-1018540Y3707330D01*
G01X-999860Y3707330D02*
G01X-999860Y3688650D01*
G01X-989080Y3683980D02*
G01X-970400Y3702660D01*
G01X-970400Y3702660D02*
G01X-975070Y3707330D01*
G01X-975070Y3707330D02*
G01X-984410Y3707330D01*
G01X-984410Y3707330D02*
G01X-989080Y3702660D01*
G01X-989080Y3702660D02*
G01X-989080Y3683980D01*
G01X-989080Y3683980D02*
G01X-984410Y3679310D01*
G01X-984410Y3679310D02*
G01X-975070Y3679310D01*
G01X-975070Y3679310D02*
G01X-970400Y3683980D01*
G01X-970400Y3683980D02*
G01X-970400Y3702660D01*
G01X-959610Y3707330D02*
G01X-940930Y3707330D01*
G01X-950270Y3707330D02*
G01X-950270Y3679310D01*
G01X-950270Y3679310D02*
G01X-940930Y3688650D01*
G01X-930150Y3679310D02*
G01X-911470Y3707330D01*
G01X-930150Y3707330D02*
G01X-911470Y3679310D01*
G01X-900680Y3679310D02*
G01X-882000Y3679310D01*
G01X-882000Y3679310D02*
G01X-882000Y3707330D01*
G01X-882000Y3693320D02*
G01X-891340Y3693320D01*
G54D19*
G01X-1467500Y2643330D02*
G01X-1442500Y2618330D01*
G54D20*
G01X-1442500Y2643330D02*
G01X-1467500Y2668330D01*
G54D21*
G01X-1467500Y2693330D02*
G01X-1442500Y2668330D01*
G54D22*
G01X-1930000Y2818330D03*
G54D25*
G01X-2492500Y3843330D03*
G54D26*
G01X-2492500Y4118330D03*
M02*
