G75*
%MOIN*%
%OFA0B0*%
%FSLAX25Y25*%
%IPPOS*%
%LPD*%
%AMOC8*
5,1,8,0,0,1.08239X$1,22.5*
%
%ADD10R,0.07211X0.18510*%
%ADD11R,0.07880X0.18510*%
%ADD12C,0.02000*%
D10*
X0271500Y0628055D03*
X0321500Y0628055D03*
X0381500Y0628055D03*
X0431500Y0628055D03*
D11*
X0421264Y0628055D03*
X0441736Y0628055D03*
X0391736Y0628055D03*
X0371264Y0628055D03*
X0331736Y0628055D03*
X0311264Y0628055D03*
X0281736Y0628055D03*
X0261264Y0628055D03*
D12*
X0259000Y0619000D03*
X0259000Y0624000D03*
X0259000Y0629000D03*
X0259000Y0634000D03*
X0259000Y0639000D03*
X0259000Y0644000D03*
X0259000Y0649000D03*
X0259000Y0654000D03*
X0259000Y0659000D03*
X0259000Y0664000D03*
X0254000Y0664000D03*
X0254000Y0659000D03*
X0254000Y0654000D03*
X0254000Y0649000D03*
X0254000Y0644000D03*
X0254000Y0639000D03*
X0254000Y0634000D03*
X0249000Y0634000D03*
X0249000Y0639000D03*
X0249000Y0644000D03*
X0249000Y0649000D03*
X0249000Y0654000D03*
X0249000Y0659000D03*
X0249000Y0664000D03*
X0244000Y0664000D03*
X0244000Y0659000D03*
X0244000Y0654000D03*
X0244000Y0649000D03*
X0244000Y0644000D03*
X0244000Y0639000D03*
X0244000Y0634000D03*
X0239000Y0634000D03*
X0239000Y0639000D03*
X0239000Y0644000D03*
X0239000Y0649000D03*
X0239000Y0654000D03*
X0239000Y0659000D03*
X0239000Y0664000D03*
X0234000Y0664000D03*
X0234000Y0659000D03*
X0229000Y0659000D03*
X0229000Y0664000D03*
X0224000Y0664000D03*
X0224000Y0659000D03*
X0219000Y0659000D03*
X0219000Y0664000D03*
X0214000Y0664000D03*
X0209000Y0664000D03*
X0209000Y0659000D03*
X0214000Y0659000D03*
X0204000Y0659000D03*
X0204000Y0664000D03*
X0199000Y0664000D03*
X0199000Y0659000D03*
X0194000Y0659000D03*
X0194000Y0664000D03*
X0189000Y0664000D03*
X0189000Y0659000D03*
X0184000Y0659000D03*
X0184000Y0664000D03*
X0179000Y0664000D03*
X0179000Y0659000D03*
X0174000Y0659000D03*
X0174000Y0664000D03*
X0169000Y0664000D03*
X0169000Y0659000D03*
X0164000Y0659000D03*
X0164000Y0664000D03*
X0159000Y0664000D03*
X0159000Y0659000D03*
X0154000Y0659000D03*
X0154000Y0664000D03*
X0149000Y0664000D03*
X0149000Y0659000D03*
X0144000Y0659000D03*
X0144000Y0664000D03*
X0139000Y0664000D03*
X0134000Y0664000D03*
X0134000Y0659000D03*
X0139000Y0659000D03*
X0129000Y0659000D03*
X0129000Y0664000D03*
X0124000Y0664000D03*
X0124000Y0659000D03*
X0119000Y0659000D03*
X0119000Y0664000D03*
X0114000Y0664000D03*
X0114000Y0659000D03*
X0109000Y0659000D03*
X0109000Y0664000D03*
X0104000Y0664000D03*
X0104000Y0659000D03*
X0099000Y0659000D03*
X0099000Y0664000D03*
X0094000Y0664000D03*
X0094000Y0659000D03*
X0089000Y0659000D03*
X0089000Y0664000D03*
X0084000Y0664000D03*
X0084000Y0659000D03*
X0079000Y0659000D03*
X0079000Y0664000D03*
X0074000Y0664000D03*
X0074000Y0659000D03*
X0069000Y0659000D03*
X0069000Y0664000D03*
X0064000Y0664000D03*
X0059000Y0664000D03*
X0059000Y0659000D03*
X0064000Y0659000D03*
X0054000Y0659000D03*
X0054000Y0664000D03*
X0049000Y0664000D03*
X0049000Y0659000D03*
X0044000Y0659000D03*
X0044000Y0664000D03*
X0039000Y0664000D03*
X0039000Y0659000D03*
X0034000Y0659000D03*
X0034000Y0664000D03*
X0029000Y0664000D03*
X0029000Y0659000D03*
X0024000Y0659000D03*
X0024000Y0664000D03*
X0019000Y0664000D03*
X0019000Y0659000D03*
X0014000Y0659000D03*
X0011500Y0660300D03*
X0011500Y0662700D03*
X0009000Y0661500D03*
X0009000Y0659000D03*
X0009000Y0664000D03*
X0014000Y0664000D03*
X0264000Y0664000D03*
X0264000Y0659000D03*
X0264000Y0654000D03*
X0264000Y0649000D03*
X0264000Y0644000D03*
X0264000Y0639000D03*
X0264000Y0634000D03*
X0264000Y0629000D03*
X0264000Y0624000D03*
X0264000Y0619000D03*
X0279000Y0619000D03*
X0279000Y0624000D03*
X0279000Y0629000D03*
X0279000Y0634000D03*
X0279000Y0639000D03*
X0279000Y0644000D03*
X0279000Y0649000D03*
X0279000Y0654000D03*
X0279000Y0659000D03*
X0279000Y0664000D03*
X0274000Y0664000D03*
X0274000Y0659000D03*
X0274000Y0654000D03*
X0274000Y0649000D03*
X0274000Y0644000D03*
X0269000Y0644000D03*
X0269000Y0649000D03*
X0269000Y0654000D03*
X0269000Y0659000D03*
X0269000Y0664000D03*
X0284000Y0664000D03*
X0289000Y0664000D03*
X0289000Y0659000D03*
X0284000Y0659000D03*
X0284000Y0654000D03*
X0289000Y0654000D03*
X0289000Y0649000D03*
X0284000Y0649000D03*
X0284000Y0644000D03*
X0289000Y0644000D03*
X0289000Y0639000D03*
X0284000Y0639000D03*
X0284000Y0634000D03*
X0289000Y0634000D03*
X0294000Y0634000D03*
X0294000Y0639000D03*
X0294000Y0644000D03*
X0294000Y0649000D03*
X0294000Y0654000D03*
X0299000Y0654000D03*
X0299000Y0649000D03*
X0299000Y0644000D03*
X0299000Y0639000D03*
X0299000Y0634000D03*
X0304000Y0634000D03*
X0304000Y0639000D03*
X0304000Y0644000D03*
X0304000Y0649000D03*
X0304000Y0654000D03*
X0304000Y0659000D03*
X0304000Y0664000D03*
X0299000Y0664000D03*
X0299000Y0659000D03*
X0294000Y0664000D03*
X0309000Y0664000D03*
X0309000Y0659000D03*
X0309000Y0654000D03*
X0309000Y0649000D03*
X0309000Y0644000D03*
X0309000Y0639000D03*
X0309000Y0634000D03*
X0309000Y0629000D03*
X0309000Y0624000D03*
X0309000Y0619000D03*
X0314000Y0619000D03*
X0314000Y0624000D03*
X0314000Y0629000D03*
X0314000Y0634000D03*
X0314000Y0639000D03*
X0314000Y0644000D03*
X0314000Y0649000D03*
X0314000Y0654000D03*
X0314000Y0659000D03*
X0314000Y0664000D03*
X0319000Y0664000D03*
X0319000Y0659000D03*
X0319000Y0654000D03*
X0319000Y0649000D03*
X0319000Y0644000D03*
X0324000Y0644000D03*
X0324000Y0649000D03*
X0324000Y0654000D03*
X0324000Y0659000D03*
X0324000Y0664000D03*
X0329000Y0664000D03*
X0329000Y0659000D03*
X0329000Y0654000D03*
X0329000Y0649000D03*
X0329000Y0644000D03*
X0329000Y0639000D03*
X0329000Y0634000D03*
X0329000Y0629000D03*
X0329000Y0624000D03*
X0329000Y0619000D03*
X0334000Y0619000D03*
X0334000Y0624000D03*
X0334000Y0629000D03*
X0334000Y0634000D03*
X0334000Y0639000D03*
X0334000Y0644000D03*
X0334000Y0649000D03*
X0334000Y0654000D03*
X0334000Y0659000D03*
X0334000Y0664000D03*
X0339000Y0664000D03*
X0339000Y0659000D03*
X0339000Y0654000D03*
X0339000Y0649000D03*
X0339000Y0644000D03*
X0339000Y0639000D03*
X0339000Y0634000D03*
X0344000Y0634000D03*
X0344000Y0639000D03*
X0344000Y0644000D03*
X0344000Y0649000D03*
X0344000Y0654000D03*
X0344000Y0659000D03*
X0344000Y0664000D03*
X0349000Y0664000D03*
X0349000Y0659000D03*
X0349000Y0654000D03*
X0349000Y0649000D03*
X0349000Y0644000D03*
X0349000Y0639000D03*
X0349000Y0634000D03*
X0354000Y0634000D03*
X0354000Y0639000D03*
X0354000Y0644000D03*
X0354000Y0649000D03*
X0354000Y0654000D03*
X0354000Y0659000D03*
X0354000Y0664000D03*
X0359000Y0664000D03*
X0364000Y0664000D03*
X0364000Y0659000D03*
X0359000Y0659000D03*
X0359000Y0654000D03*
X0364000Y0654000D03*
X0364000Y0649000D03*
X0359000Y0649000D03*
X0359000Y0644000D03*
X0364000Y0644000D03*
X0364000Y0639000D03*
X0359000Y0639000D03*
X0359000Y0634000D03*
X0364000Y0634000D03*
X0369000Y0634000D03*
X0369000Y0629000D03*
X0369000Y0624000D03*
X0369000Y0619000D03*
X0374000Y0619000D03*
X0374000Y0624000D03*
X0374000Y0629000D03*
X0374000Y0634000D03*
X0374000Y0639000D03*
X0374000Y0644000D03*
X0374000Y0649000D03*
X0374000Y0654000D03*
X0374000Y0659000D03*
X0374000Y0664000D03*
X0369000Y0664000D03*
X0369000Y0659000D03*
X0369000Y0654000D03*
X0369000Y0649000D03*
X0369000Y0644000D03*
X0369000Y0639000D03*
X0379000Y0644000D03*
X0379000Y0649000D03*
X0379000Y0654000D03*
X0379000Y0659000D03*
X0379000Y0664000D03*
X0384000Y0664000D03*
X0384000Y0659000D03*
X0384000Y0654000D03*
X0384000Y0649000D03*
X0384000Y0644000D03*
X0389000Y0644000D03*
X0389000Y0639000D03*
X0389000Y0634000D03*
X0389000Y0629000D03*
X0389000Y0624000D03*
X0389000Y0619000D03*
X0394000Y0619000D03*
X0394000Y0624000D03*
X0394000Y0629000D03*
X0394000Y0634000D03*
X0394000Y0639000D03*
X0394000Y0644000D03*
X0394000Y0649000D03*
X0394000Y0654000D03*
X0394000Y0659000D03*
X0394000Y0664000D03*
X0389000Y0664000D03*
X0389000Y0659000D03*
X0389000Y0654000D03*
X0389000Y0649000D03*
X0399000Y0649000D03*
X0399000Y0654000D03*
X0399000Y0659000D03*
X0399000Y0664000D03*
X0404000Y0664000D03*
X0404000Y0659000D03*
X0404000Y0654000D03*
X0404000Y0649000D03*
X0404000Y0644000D03*
X0404000Y0639000D03*
X0404000Y0634000D03*
X0399000Y0634000D03*
X0399000Y0639000D03*
X0399000Y0644000D03*
X0409000Y0644000D03*
X0409000Y0639000D03*
X0409000Y0634000D03*
X0414000Y0634000D03*
X0414000Y0639000D03*
X0414000Y0644000D03*
X0414000Y0649000D03*
X0414000Y0654000D03*
X0414000Y0659000D03*
X0414000Y0664000D03*
X0409000Y0664000D03*
X0409000Y0654000D03*
X0409000Y0649000D03*
X0419000Y0649000D03*
X0419000Y0654000D03*
X0419000Y0659000D03*
X0419000Y0664000D03*
X0424000Y0664000D03*
X0424000Y0659000D03*
X0424000Y0654000D03*
X0424000Y0649000D03*
X0424000Y0644000D03*
X0424000Y0639000D03*
X0424000Y0634000D03*
X0424000Y0629000D03*
X0424000Y0624000D03*
X0424000Y0619000D03*
X0419000Y0619000D03*
X0419000Y0624000D03*
X0419000Y0629000D03*
X0419000Y0634000D03*
X0419000Y0639000D03*
X0419000Y0644000D03*
X0429000Y0644000D03*
X0429000Y0649000D03*
X0429000Y0654000D03*
X0429000Y0659000D03*
X0429000Y0664000D03*
X0434000Y0664000D03*
X0439000Y0664000D03*
X0439000Y0659000D03*
X0434000Y0659000D03*
X0434000Y0654000D03*
X0439000Y0654000D03*
X0439000Y0649000D03*
X0434000Y0649000D03*
X0434000Y0644000D03*
X0439000Y0644000D03*
X0439000Y0639000D03*
X0439000Y0634000D03*
X0439000Y0629000D03*
X0439000Y0624000D03*
X0439000Y0619000D03*
X0444000Y0619000D03*
X0444000Y0624000D03*
X0444000Y0629000D03*
X0444000Y0634000D03*
X0444000Y0639000D03*
X0444000Y0644000D03*
X0444000Y0649000D03*
X0444000Y0654000D03*
X0444000Y0659000D03*
X0444000Y0664000D03*
X0449000Y0664000D03*
X0449000Y0659000D03*
X0449000Y0654000D03*
X0449000Y0649000D03*
X0449000Y0644000D03*
X0449000Y0639000D03*
X0449000Y0634000D03*
X0454000Y0634000D03*
X0454000Y0639000D03*
X0454000Y0644000D03*
X0454000Y0649000D03*
X0454000Y0654000D03*
X0459000Y0654000D03*
X0459000Y0649000D03*
X0464000Y0644000D03*
X0464000Y0639000D03*
X0464000Y0634000D03*
X0459000Y0634000D03*
X0459000Y0639000D03*
X0469000Y0639000D03*
X0469000Y0634000D03*
X0474000Y0634000D03*
X0474000Y0629000D03*
X0474000Y0624000D03*
X0474000Y0619000D03*
X0474000Y0614000D03*
X0474000Y0609000D03*
X0474000Y0604000D03*
X0474000Y0599000D03*
X0474000Y0594000D03*
X0474000Y0589000D03*
X0474000Y0584000D03*
X0474000Y0579000D03*
X0474000Y0574000D03*
X0474000Y0569000D03*
X0474000Y0564000D03*
X0474000Y0559000D03*
X0474000Y0554000D03*
X0474000Y0549000D03*
X0474000Y0544000D03*
X0474000Y0539000D03*
X0474000Y0534000D03*
X0474000Y0529000D03*
X0474000Y0524000D03*
X0474000Y0519000D03*
X0474000Y0514000D03*
X0474000Y0509000D03*
X0474000Y0504000D03*
X0474000Y0499000D03*
X0474000Y0494000D03*
X0474000Y0489000D03*
X0474000Y0484000D03*
X0474000Y0479000D03*
X0474000Y0474000D03*
X0474000Y0469000D03*
X0474000Y0464000D03*
X0474000Y0459000D03*
X0474000Y0454000D03*
X0474000Y0449000D03*
X0474000Y0444000D03*
X0474000Y0439000D03*
X0474000Y0434000D03*
X0474000Y0429000D03*
X0474000Y0424000D03*
X0474000Y0419000D03*
X0474000Y0414000D03*
X0474000Y0409000D03*
X0474000Y0404000D03*
X0474000Y0399000D03*
X0474000Y0394000D03*
X0474000Y0389000D03*
X0474000Y0384000D03*
X0474000Y0379000D03*
X0474000Y0374000D03*
X0474000Y0369000D03*
X0474000Y0364000D03*
X0474000Y0359000D03*
X0474000Y0354000D03*
X0474000Y0349000D03*
X0474000Y0344000D03*
X0474000Y0339000D03*
X0474000Y0334000D03*
X0474000Y0329000D03*
X0474000Y0324000D03*
X0474000Y0319000D03*
X0474000Y0314000D03*
X0474000Y0309000D03*
X0474000Y0304000D03*
X0474000Y0299000D03*
X0474000Y0294000D03*
X0474000Y0289000D03*
X0474000Y0284000D03*
X0474000Y0279000D03*
X0474000Y0274000D03*
X0474000Y0269000D03*
X0474000Y0264000D03*
X0474000Y0259000D03*
X0474000Y0254000D03*
X0474000Y0249000D03*
X0474000Y0244000D03*
X0474000Y0239000D03*
X0474000Y0234000D03*
X0474000Y0229000D03*
X0474000Y0224000D03*
X0474000Y0219000D03*
X0474000Y0214000D03*
X0474000Y0209000D03*
X0474000Y0204000D03*
X0474000Y0199000D03*
X0474000Y0194000D03*
X0474000Y0189000D03*
X0474000Y0184000D03*
X0474000Y0179000D03*
X0474000Y0174000D03*
X0474000Y0169000D03*
X0474000Y0164000D03*
X0474000Y0159000D03*
X0474000Y0154000D03*
X0474000Y0149000D03*
X0474000Y0144000D03*
X0474000Y0139000D03*
X0474000Y0134000D03*
X0474000Y0129000D03*
X0474000Y0124000D03*
X0474000Y0119000D03*
X0474000Y0114000D03*
X0474000Y0109000D03*
X0474000Y0104000D03*
X0474000Y0099000D03*
X0474000Y0094000D03*
X0474000Y0089000D03*
X0474000Y0084000D03*
X0474000Y0079000D03*
X0474000Y0074000D03*
X0474000Y0069000D03*
X0474000Y0064000D03*
X0474000Y0059000D03*
X0474000Y0054000D03*
X0474000Y0049000D03*
X0474000Y0044000D03*
X0474000Y0039000D03*
X0474000Y0034000D03*
X0474000Y0029000D03*
X0474000Y0024000D03*
X0474000Y0019000D03*
X0474000Y0014000D03*
X0475300Y0011500D03*
X0477700Y0011500D03*
X0476500Y0009000D03*
X0474000Y0009000D03*
X0479000Y0009000D03*
X0479000Y0014000D03*
X0479000Y0019000D03*
X0479000Y0024000D03*
X0479000Y0029000D03*
X0479000Y0034000D03*
X0479000Y0039000D03*
X0479000Y0044000D03*
X0479000Y0049000D03*
X0479000Y0054000D03*
X0479000Y0059000D03*
X0479000Y0064000D03*
X0479000Y0069000D03*
X0479000Y0074000D03*
X0479000Y0079000D03*
X0479000Y0084000D03*
X0479000Y0089000D03*
X0479000Y0094000D03*
X0479000Y0099000D03*
X0479000Y0104000D03*
X0479000Y0109000D03*
X0479000Y0114000D03*
X0479000Y0119000D03*
X0479000Y0124000D03*
X0479000Y0129000D03*
X0479000Y0134000D03*
X0479000Y0139000D03*
X0479000Y0144000D03*
X0479000Y0149000D03*
X0479000Y0154000D03*
X0479000Y0159000D03*
X0479000Y0164000D03*
X0479000Y0169000D03*
X0479000Y0174000D03*
X0479000Y0179000D03*
X0479000Y0184000D03*
X0479000Y0189000D03*
X0479000Y0194000D03*
X0479000Y0199000D03*
X0479000Y0204000D03*
X0479000Y0209000D03*
X0479000Y0214000D03*
X0479000Y0219000D03*
X0479000Y0224000D03*
X0479000Y0229000D03*
X0479000Y0234000D03*
X0479000Y0239000D03*
X0479000Y0244000D03*
X0479000Y0249000D03*
X0479000Y0254000D03*
X0479000Y0259000D03*
X0479000Y0264000D03*
X0479000Y0269000D03*
X0479000Y0274000D03*
X0479000Y0279000D03*
X0479000Y0284000D03*
X0479000Y0289000D03*
X0479000Y0294000D03*
X0479000Y0299000D03*
X0479000Y0304000D03*
X0479000Y0309000D03*
X0479000Y0314000D03*
X0479000Y0319000D03*
X0479000Y0324000D03*
X0479000Y0329000D03*
X0479000Y0334000D03*
X0479000Y0339000D03*
X0479000Y0344000D03*
X0479000Y0349000D03*
X0479000Y0354000D03*
X0479000Y0359000D03*
X0479000Y0364000D03*
X0479000Y0369000D03*
X0479000Y0374000D03*
X0479000Y0379000D03*
X0479000Y0384000D03*
X0479000Y0389000D03*
X0479000Y0394000D03*
X0479000Y0399000D03*
X0479000Y0404000D03*
X0479000Y0409000D03*
X0479000Y0414000D03*
X0479000Y0419000D03*
X0479000Y0424000D03*
X0479000Y0429000D03*
X0479000Y0434000D03*
X0479000Y0439000D03*
X0479000Y0444000D03*
X0479000Y0449000D03*
X0479000Y0454000D03*
X0479000Y0459000D03*
X0479000Y0464000D03*
X0479000Y0469000D03*
X0479000Y0474000D03*
X0479000Y0479000D03*
X0479000Y0484000D03*
X0479000Y0489000D03*
X0479000Y0494000D03*
X0479000Y0499000D03*
X0479000Y0504000D03*
X0479000Y0509000D03*
X0479000Y0514000D03*
X0479000Y0519000D03*
X0479000Y0524000D03*
X0479000Y0529000D03*
X0479000Y0534000D03*
X0479000Y0539000D03*
X0479000Y0544000D03*
X0479000Y0549000D03*
X0479000Y0554000D03*
X0479000Y0559000D03*
X0479000Y0564000D03*
X0479000Y0569000D03*
X0479000Y0574000D03*
X0479000Y0579000D03*
X0479000Y0584000D03*
X0479000Y0589000D03*
X0479000Y0594000D03*
X0479000Y0599000D03*
X0479000Y0604000D03*
X0479000Y0609000D03*
X0479000Y0614000D03*
X0479000Y0619000D03*
X0479000Y0624000D03*
X0479000Y0629000D03*
X0479000Y0634000D03*
X0479000Y0639000D03*
X0479000Y0644000D03*
X0474000Y0644000D03*
X0469000Y0644000D03*
X0459000Y0659000D03*
X0459000Y0664000D03*
X0454000Y0664000D03*
X0284000Y0629000D03*
X0284000Y0624000D03*
X0284000Y0619000D03*
M02*
