G75*
%MOIN*%
%OFA0B0*%
%FSLAX25Y25*%
%IPPOS*%
%LPD*%
%AMOC8*
5,1,8,0,0,1.08239X$1,22.5*
%
%ADD10C,0.00400*%
D10*
X0289196Y0619992D02*
X0293800Y0623061D01*
X0293800Y0624596D02*
X0293800Y0627665D01*
X0293800Y0626131D02*
X0289196Y0626131D01*
X0290731Y0624596D01*
X0289196Y0623061D02*
X0293800Y0619992D01*
X0339196Y0619992D02*
X0343800Y0623061D01*
X0343800Y0624596D02*
X0340731Y0627665D01*
X0339963Y0627665D01*
X0339196Y0626898D01*
X0339196Y0625363D01*
X0339963Y0624596D01*
X0339196Y0623061D02*
X0343800Y0619992D01*
X0343800Y0624596D02*
X0343800Y0627665D01*
X0399196Y0626898D02*
X0401498Y0624596D01*
X0401498Y0627665D01*
X0403800Y0626898D02*
X0399196Y0626898D01*
X0399196Y0623061D02*
X0403800Y0619992D01*
X0403800Y0623061D02*
X0399196Y0619992D01*
X0449196Y0619992D02*
X0453800Y0623061D01*
X0453033Y0624596D02*
X0453800Y0625363D01*
X0453800Y0626898D01*
X0453033Y0627665D01*
X0452265Y0627665D01*
X0451498Y0626898D01*
X0451498Y0626131D01*
X0451498Y0626898D02*
X0450731Y0627665D01*
X0449963Y0627665D01*
X0449196Y0626898D01*
X0449196Y0625363D01*
X0449963Y0624596D01*
X0449196Y0623061D02*
X0453800Y0619992D01*
M02*
