G75*
%MOIN*%
%OFA0B0*%
%FSLAX25Y25*%
%IPPOS*%
%LPD*%
%AMOC8*
5,1,8,0,0,1.08239X$1,22.5*
%
%ADD10C,0.01200*%
%ADD11C,0.01100*%
%ADD12C,0.01000*%
%ADD13C,0.00900*%
%ADD14C,0.00800*%
%ADD15C,0.00700*%
%ADD16C,0.00600*%
%ADD17C,0.00500*%
%ADD18C,0.00400*%
%ADD19C,0.00300*%
%ADD20C,0.00200*%
%ADD21C,0.00100*%
D10*
X0213750Y0197800D02*
X0216250Y0195300D01*
D11*
X0213750Y0195300D02*
X0211250Y0197800D01*
D12*
X0208750Y0197800D02*
X0211250Y0195300D01*
D13*
X0208750Y0195300D02*
X0206250Y0197800D01*
D14*
X0203750Y0197800D02*
X0206250Y0195300D01*
D15*
X0203750Y0195300D02*
X0201250Y0197800D01*
D16*
X0198750Y0197800D02*
X0201250Y0195300D01*
D17*
X0102136Y0081237D02*
X0104104Y0079269D01*
X0107057Y0079269D01*
X0107057Y0085371D01*
X0120443Y0085371D01*
X0120443Y0079269D01*
X0125364Y0079269D01*
X0125364Y0091276D01*
X0122411Y0091276D01*
X0105089Y0091276D02*
X0102136Y0091276D01*
X0102136Y0081237D01*
X0117581Y0065983D02*
X0119916Y0065983D01*
X0120500Y0065399D01*
X0120500Y0064232D01*
X0119916Y0063648D01*
X0119916Y0062300D02*
X0120500Y0061716D01*
X0120500Y0060549D01*
X0119916Y0059965D01*
X0119332Y0059965D01*
X0118749Y0060549D01*
X0118749Y0062300D01*
X0119916Y0062300D01*
X0118749Y0062300D02*
X0117581Y0061132D01*
X0116997Y0059965D01*
X0117581Y0063648D02*
X0116997Y0064232D01*
X0116997Y0065399D01*
X0117581Y0065983D01*
X0130747Y0054649D02*
X0131331Y0055233D01*
X0133666Y0055233D01*
X0134250Y0054649D01*
X0134250Y0053482D01*
X0133666Y0052898D01*
X0134250Y0051550D02*
X0131915Y0049215D01*
X0131331Y0049215D01*
X0130747Y0049799D01*
X0130747Y0050966D01*
X0131331Y0051550D01*
X0131331Y0052898D02*
X0130747Y0053482D01*
X0130747Y0054649D01*
X0134250Y0051550D02*
X0134250Y0049215D01*
X0268247Y0049215D02*
X0268831Y0049215D01*
X0271166Y0051550D01*
X0271750Y0051550D01*
X0271166Y0052898D02*
X0271750Y0053482D01*
X0271750Y0054649D01*
X0271166Y0055233D01*
X0268831Y0055233D01*
X0268247Y0054649D01*
X0268247Y0053482D01*
X0268831Y0052898D01*
X0268247Y0051550D02*
X0268247Y0049215D01*
X0281997Y0060549D02*
X0281997Y0061716D01*
X0282581Y0062300D01*
X0283165Y0062300D01*
X0283749Y0061716D01*
X0283749Y0059965D01*
X0284916Y0059965D02*
X0282581Y0059965D01*
X0281997Y0060549D01*
X0284916Y0059965D02*
X0285500Y0060549D01*
X0285500Y0061716D01*
X0284916Y0062300D01*
X0284916Y0063648D02*
X0285500Y0064232D01*
X0285500Y0065399D01*
X0284916Y0065983D01*
X0282581Y0065983D01*
X0281997Y0065399D01*
X0281997Y0064232D01*
X0282581Y0063648D01*
X0282057Y0079269D02*
X0277136Y0079269D01*
X0277136Y0091276D01*
X0280089Y0091276D01*
X0282057Y0085371D02*
X0295443Y0085371D01*
X0295443Y0079269D01*
X0300364Y0079269D01*
X0300364Y0091276D01*
X0297411Y0091276D01*
X0282057Y0085371D02*
X0282057Y0079269D01*
X0198750Y0195300D02*
X0196250Y0197800D01*
X0125364Y0213324D02*
X0125364Y0225331D01*
X0120443Y0225331D01*
X0120443Y0219229D01*
X0107057Y0219229D01*
X0107057Y0225331D01*
X0102136Y0225331D01*
X0102136Y0213324D01*
X0105089Y0213324D01*
X0122411Y0213324D02*
X0125364Y0213324D01*
X0119916Y0238715D02*
X0120500Y0239299D01*
X0120500Y0240466D01*
X0119916Y0241050D01*
X0119332Y0241050D01*
X0118749Y0240466D01*
X0118749Y0239299D01*
X0119332Y0238715D01*
X0119916Y0238715D01*
X0118749Y0239299D02*
X0118165Y0238715D01*
X0117581Y0238715D01*
X0116997Y0239299D01*
X0116997Y0240466D01*
X0117581Y0241050D01*
X0118165Y0241050D01*
X0118749Y0240466D01*
X0119916Y0242398D02*
X0120500Y0242982D01*
X0120500Y0244149D01*
X0119916Y0244733D01*
X0117581Y0244733D01*
X0116997Y0244149D01*
X0116997Y0242982D01*
X0117581Y0242398D01*
X0130747Y0249799D02*
X0132499Y0251550D01*
X0132499Y0249215D01*
X0134250Y0249799D02*
X0130747Y0249799D01*
X0131331Y0252898D02*
X0130747Y0253482D01*
X0130747Y0254649D01*
X0131331Y0255233D01*
X0133666Y0255233D01*
X0134250Y0254649D01*
X0134250Y0253482D01*
X0133666Y0252898D01*
X0268247Y0253482D02*
X0268247Y0254649D01*
X0268831Y0255233D01*
X0271166Y0255233D01*
X0271750Y0254649D01*
X0271750Y0253482D01*
X0271166Y0252898D01*
X0271166Y0251550D02*
X0271750Y0250966D01*
X0271750Y0249799D01*
X0271166Y0249215D01*
X0270582Y0249215D01*
X0269999Y0249799D01*
X0269999Y0250382D01*
X0269999Y0249799D02*
X0269415Y0249215D01*
X0268831Y0249215D01*
X0268247Y0249799D01*
X0268247Y0250966D01*
X0268831Y0251550D01*
X0268831Y0252898D02*
X0268247Y0253482D01*
X0281997Y0244149D02*
X0281997Y0242982D01*
X0282581Y0242398D01*
X0281997Y0241050D02*
X0283749Y0241050D01*
X0283165Y0239882D01*
X0283165Y0239299D01*
X0283749Y0238715D01*
X0284916Y0238715D01*
X0285500Y0239299D01*
X0285500Y0240466D01*
X0284916Y0241050D01*
X0284916Y0242398D02*
X0285500Y0242982D01*
X0285500Y0244149D01*
X0284916Y0244733D01*
X0282581Y0244733D01*
X0281997Y0244149D01*
X0281997Y0241050D02*
X0281997Y0238715D01*
X0282057Y0225331D02*
X0277136Y0225331D01*
X0277136Y0213324D01*
X0280089Y0213324D01*
X0282057Y0219229D02*
X0282057Y0225331D01*
X0282057Y0219229D02*
X0295443Y0219229D01*
X0295443Y0225331D01*
X0298396Y0225331D01*
X0300364Y0223363D01*
X0300364Y0213324D01*
X0297411Y0213324D01*
D18*
X0196250Y0195300D02*
X0193750Y0197800D01*
D19*
X0191250Y0197800D02*
X0193750Y0195300D01*
D20*
X0191250Y0195300D02*
X0188750Y0197800D01*
D21*
X0186250Y0197800D02*
X0188750Y0195300D01*
M02*
