G75*
%MOIN*%
%OFA0B0*%
%FSLAX25Y25*%
%IPPOS*%
%LPD*%
%AMOC8*
5,1,8,0,0,1.08239X$1,22.5*
%
%ADD10C,0.00600*%
%ADD11C,0.02000*%
%ADD12C,0.00400*%
%ADD13C,0.00300*%
%ADD14C,0.00500*%
%ADD15C,0.01761*%
D10*
X0085277Y0120081D02*
X0086677Y0120081D01*
X0086477Y0121181D02*
X0086414Y0121208D01*
X0086349Y0121231D01*
X0086283Y0121251D01*
X0086216Y0121266D01*
X0086148Y0121278D01*
X0086080Y0121286D01*
X0086011Y0121290D01*
X0085943Y0121290D01*
X0085874Y0121286D01*
X0085806Y0121278D01*
X0085738Y0121266D01*
X0085671Y0121251D01*
X0085605Y0121231D01*
X0085540Y0121208D01*
X0085477Y0121181D01*
X0085277Y0131819D02*
X0086677Y0131819D01*
D11*
X0081056Y0119060D03*
D12*
X0076134Y0121865D02*
X0075667Y0121398D01*
X0075200Y0121398D01*
X0074733Y0121865D01*
X0074733Y0122332D01*
X0074733Y0121865D02*
X0074265Y0121398D01*
X0073798Y0121398D01*
X0073331Y0121865D01*
X0073331Y0122799D01*
X0073798Y0123267D01*
X0073331Y0124345D02*
X0075667Y0124345D01*
X0076134Y0124812D01*
X0076134Y0125746D01*
X0075667Y0126213D01*
X0073331Y0126213D01*
X0075667Y0123267D02*
X0076134Y0122799D01*
X0076134Y0121865D01*
X0081221Y0063569D02*
X0081221Y0061701D01*
X0081221Y0062635D02*
X0084023Y0062635D01*
X0083089Y0061701D01*
X0084023Y0060623D02*
X0081688Y0060623D01*
X0081221Y0060156D01*
X0081221Y0059222D01*
X0081688Y0058755D01*
X0084023Y0058755D01*
D13*
X0050029Y0039035D02*
X0047927Y0039035D01*
X0048978Y0039035D02*
X0048978Y0039736D01*
X0050029Y0040436D02*
X0050029Y0039035D01*
X0050029Y0041245D02*
X0047927Y0041245D01*
X0047927Y0042296D01*
X0048277Y0042646D01*
X0048628Y0042646D01*
X0048978Y0042296D01*
X0048978Y0041245D01*
X0050029Y0041245D02*
X0050029Y0042296D01*
X0049679Y0042646D01*
X0049328Y0042646D01*
X0048978Y0042296D01*
X0049679Y0043455D02*
X0050029Y0043805D01*
X0050029Y0044506D01*
X0049679Y0044856D01*
X0049328Y0044856D01*
X0047927Y0043455D01*
X0047927Y0044856D01*
X0061177Y0043006D02*
X0061177Y0042305D01*
X0061527Y0041955D01*
X0062228Y0041955D02*
X0062578Y0042656D01*
X0062578Y0043006D01*
X0062228Y0043356D01*
X0061527Y0043356D01*
X0061177Y0043006D01*
X0062228Y0041955D02*
X0063279Y0041955D01*
X0063279Y0043356D01*
X0061177Y0041146D02*
X0061177Y0039745D01*
X0061177Y0040446D02*
X0063279Y0040446D01*
X0062578Y0039745D01*
X0062929Y0038936D02*
X0063279Y0038586D01*
X0063279Y0037885D01*
X0062929Y0037535D01*
X0061527Y0037535D01*
X0061177Y0037885D01*
X0061177Y0038586D01*
X0061527Y0038936D01*
X0083775Y0044973D02*
X0085877Y0044973D01*
X0085877Y0046024D01*
X0085527Y0046374D01*
X0084826Y0046374D01*
X0084476Y0046024D01*
X0084476Y0044973D01*
X0084476Y0045673D02*
X0083775Y0046374D01*
X0083775Y0047183D02*
X0083775Y0048584D01*
X0083775Y0047883D02*
X0085877Y0047883D01*
X0085177Y0047183D01*
X0087712Y0047183D02*
X0089114Y0048584D01*
X0089464Y0048584D01*
X0089814Y0048234D01*
X0089814Y0047533D01*
X0089464Y0047183D01*
X0089464Y0046374D02*
X0088763Y0046374D01*
X0088413Y0046024D01*
X0088413Y0044973D01*
X0088413Y0045673D02*
X0087712Y0046374D01*
X0087712Y0047183D02*
X0087712Y0048584D01*
X0089464Y0046374D02*
X0089814Y0046024D01*
X0089814Y0044973D01*
X0087712Y0044973D01*
X0095586Y0044973D02*
X0097688Y0044973D01*
X0097688Y0046024D01*
X0097338Y0046374D01*
X0096637Y0046374D01*
X0096287Y0046024D01*
X0096287Y0044973D01*
X0096287Y0045673D02*
X0095586Y0046374D01*
X0095937Y0047183D02*
X0095586Y0047533D01*
X0095586Y0048234D01*
X0095937Y0048584D01*
X0096287Y0048584D01*
X0096637Y0048234D01*
X0096637Y0047883D01*
X0096637Y0048234D02*
X0096988Y0048584D01*
X0097338Y0048584D01*
X0097688Y0048234D01*
X0097688Y0047533D01*
X0097338Y0047183D01*
X0099427Y0042856D02*
X0099427Y0041455D01*
X0100828Y0042856D01*
X0101179Y0042856D01*
X0101529Y0042506D01*
X0101529Y0041805D01*
X0101179Y0041455D01*
X0101529Y0039946D02*
X0099427Y0039946D01*
X0099427Y0040646D02*
X0099427Y0039245D01*
X0099777Y0038436D02*
X0099427Y0038086D01*
X0099427Y0037385D01*
X0099777Y0037035D01*
X0101179Y0037035D01*
X0101529Y0037385D01*
X0101529Y0038086D01*
X0101179Y0038436D01*
X0100828Y0039245D02*
X0101529Y0039946D01*
X0107926Y0034752D02*
X0107926Y0034401D01*
X0109327Y0033000D01*
X0109327Y0032650D01*
X0110136Y0032650D02*
X0110836Y0033351D01*
X0110486Y0033351D02*
X0111537Y0033351D01*
X0111537Y0032650D02*
X0111537Y0034752D01*
X0110486Y0034752D01*
X0110136Y0034401D01*
X0110136Y0033701D01*
X0110486Y0033351D01*
X0109327Y0034752D02*
X0107926Y0034752D01*
X0113026Y0043900D02*
X0112676Y0044250D01*
X0112676Y0044601D01*
X0113026Y0044951D01*
X0114077Y0044951D01*
X0114077Y0044250D01*
X0113727Y0043900D01*
X0113026Y0043900D01*
X0114077Y0044951D02*
X0113376Y0045651D01*
X0112676Y0046002D01*
X0114886Y0045651D02*
X0114886Y0044951D01*
X0115236Y0044601D01*
X0116287Y0044601D01*
X0115586Y0044601D02*
X0114886Y0043900D01*
X0116287Y0043900D02*
X0116287Y0046002D01*
X0115236Y0046002D01*
X0114886Y0045651D01*
X0111437Y0058387D02*
X0110736Y0058387D01*
X0110386Y0058738D01*
X0109577Y0058738D02*
X0108176Y0060139D01*
X0108176Y0060489D01*
X0109577Y0060489D01*
X0109227Y0061137D02*
X0109577Y0061487D01*
X0109577Y0061838D01*
X0109227Y0062188D01*
X0108526Y0062188D01*
X0108176Y0061838D01*
X0108176Y0061487D01*
X0108526Y0061137D01*
X0109227Y0061137D01*
X0109227Y0062188D02*
X0109577Y0062538D01*
X0109577Y0062888D01*
X0109227Y0063239D01*
X0108526Y0063239D01*
X0108176Y0062888D01*
X0108176Y0062538D01*
X0108526Y0062188D01*
X0110386Y0062888D02*
X0110736Y0063239D01*
X0111437Y0063239D01*
X0111787Y0062888D01*
X0111787Y0061487D01*
X0111437Y0061137D01*
X0110736Y0061137D01*
X0110386Y0061487D01*
X0110736Y0060489D02*
X0111437Y0060489D01*
X0111787Y0060139D01*
X0111787Y0058738D01*
X0111437Y0058387D01*
X0109577Y0058387D02*
X0109577Y0058738D01*
X0110386Y0060139D02*
X0110736Y0060489D01*
X0110736Y0068230D02*
X0110386Y0068580D01*
X0110736Y0068230D02*
X0111437Y0068230D01*
X0111787Y0068580D01*
X0111787Y0069981D01*
X0111437Y0070332D01*
X0110736Y0070332D01*
X0110386Y0069981D01*
X0109577Y0070332D02*
X0109577Y0069281D01*
X0108876Y0069631D01*
X0108526Y0069631D01*
X0108176Y0069281D01*
X0108176Y0068580D01*
X0108526Y0068230D01*
X0109227Y0068230D01*
X0109577Y0068580D01*
X0109577Y0070332D02*
X0108176Y0070332D01*
X0108526Y0070980D02*
X0108176Y0071330D01*
X0108176Y0071680D01*
X0108526Y0072030D01*
X0109577Y0072030D01*
X0109577Y0071330D01*
X0109227Y0070980D01*
X0108526Y0070980D01*
X0109577Y0072030D02*
X0108876Y0072731D01*
X0108176Y0073081D01*
X0110386Y0072731D02*
X0110736Y0073081D01*
X0111437Y0073081D01*
X0111787Y0072731D01*
X0111787Y0071330D01*
X0111437Y0070980D01*
X0110736Y0070980D01*
X0110386Y0071330D01*
X0110736Y0078072D02*
X0110386Y0078423D01*
X0110736Y0078072D02*
X0111437Y0078072D01*
X0111787Y0078423D01*
X0111787Y0079824D01*
X0111437Y0080174D01*
X0110736Y0080174D01*
X0110386Y0079824D01*
X0109577Y0079824D02*
X0109227Y0080174D01*
X0108526Y0080174D01*
X0108176Y0079824D01*
X0108176Y0079474D01*
X0108526Y0079123D01*
X0108176Y0078773D01*
X0108176Y0078423D01*
X0108526Y0078072D01*
X0109227Y0078072D01*
X0109577Y0078423D01*
X0108876Y0079123D02*
X0108526Y0079123D01*
X0108526Y0080822D02*
X0108526Y0082924D01*
X0109577Y0081873D01*
X0108176Y0081873D01*
X0110386Y0082574D02*
X0110736Y0082924D01*
X0111437Y0082924D01*
X0111787Y0082574D01*
X0111787Y0081172D01*
X0111437Y0080822D01*
X0110736Y0080822D01*
X0110386Y0081172D01*
X0110736Y0095789D02*
X0110386Y0096139D01*
X0110736Y0095789D02*
X0111437Y0095789D01*
X0111787Y0096139D01*
X0111787Y0097540D01*
X0111437Y0097891D01*
X0110736Y0097891D01*
X0110386Y0097540D01*
X0109577Y0097190D02*
X0108876Y0097891D01*
X0108876Y0095789D01*
X0108176Y0095789D02*
X0109577Y0095789D01*
X0109577Y0098539D02*
X0108176Y0099940D01*
X0108176Y0100290D01*
X0108526Y0100640D01*
X0109227Y0100640D01*
X0109577Y0100290D01*
X0110386Y0100290D02*
X0110736Y0100640D01*
X0111437Y0100640D01*
X0111787Y0100290D01*
X0111787Y0098889D01*
X0111437Y0098539D01*
X0110736Y0098539D01*
X0110386Y0098889D01*
X0109577Y0098539D02*
X0108176Y0098539D01*
X0097688Y0102289D02*
X0097338Y0101939D01*
X0095937Y0101939D01*
X0095586Y0102289D01*
X0095586Y0102990D01*
X0095937Y0103340D01*
X0095586Y0104149D02*
X0095586Y0105550D01*
X0095586Y0104849D02*
X0097688Y0104849D01*
X0096988Y0104149D01*
X0097338Y0103340D02*
X0097688Y0102990D01*
X0097688Y0102289D01*
X0093751Y0103044D02*
X0093751Y0104095D01*
X0093401Y0104445D01*
X0092700Y0104445D01*
X0092350Y0104095D01*
X0092350Y0103044D01*
X0092350Y0103744D02*
X0091649Y0104445D01*
X0092000Y0105254D02*
X0091649Y0105604D01*
X0091649Y0106304D01*
X0092000Y0106655D01*
X0092700Y0106655D01*
X0093051Y0106304D01*
X0093051Y0105954D01*
X0092700Y0105254D01*
X0093751Y0105254D01*
X0093751Y0106655D01*
X0095586Y0106709D02*
X0095937Y0106358D01*
X0095586Y0106709D02*
X0095586Y0107409D01*
X0095937Y0107760D01*
X0096287Y0107760D01*
X0096637Y0107409D01*
X0096637Y0107059D01*
X0096637Y0107409D02*
X0096988Y0107760D01*
X0097338Y0107760D01*
X0097688Y0107409D01*
X0097688Y0106709D01*
X0097338Y0106358D01*
X0093751Y0103044D02*
X0091649Y0103044D01*
X0089814Y0103044D02*
X0089814Y0104095D01*
X0089464Y0104445D01*
X0088763Y0104445D01*
X0088413Y0104095D01*
X0088413Y0103044D01*
X0088413Y0103744D02*
X0087712Y0104445D01*
X0088763Y0105254D02*
X0088763Y0106655D01*
X0087712Y0106304D02*
X0089814Y0106304D01*
X0088763Y0105254D01*
X0087712Y0103044D02*
X0089814Y0103044D01*
X0088542Y0109150D02*
X0087841Y0109150D01*
X0087491Y0109500D01*
X0086682Y0109150D02*
X0085281Y0109150D01*
X0085981Y0109150D02*
X0085981Y0111252D01*
X0086682Y0110551D01*
X0087491Y0110901D02*
X0087841Y0111252D01*
X0088542Y0111252D01*
X0088892Y0110901D01*
X0088892Y0109500D01*
X0088542Y0109150D01*
X0084472Y0109500D02*
X0083071Y0110901D01*
X0083071Y0109500D01*
X0083421Y0109150D01*
X0084122Y0109150D01*
X0084472Y0109500D01*
X0084472Y0110901D01*
X0084122Y0111252D01*
X0083421Y0111252D01*
X0083071Y0110901D01*
X0074917Y0099765D02*
X0074917Y0098364D01*
X0074917Y0099064D02*
X0077019Y0099064D01*
X0076318Y0098364D01*
X0076669Y0097555D02*
X0075267Y0097555D01*
X0074917Y0097205D01*
X0074917Y0096154D01*
X0077019Y0096154D01*
X0077019Y0097205D01*
X0076669Y0097555D01*
X0083775Y0092525D02*
X0083775Y0091824D01*
X0084126Y0091474D01*
X0084476Y0091474D01*
X0084826Y0091824D01*
X0084826Y0092525D01*
X0084476Y0092875D01*
X0084126Y0092875D01*
X0083775Y0092525D01*
X0084826Y0092525D02*
X0085177Y0092875D01*
X0085527Y0092875D01*
X0085877Y0092525D01*
X0085877Y0091824D01*
X0085527Y0091474D01*
X0085177Y0091474D01*
X0084826Y0091824D01*
X0084826Y0090665D02*
X0084476Y0090315D01*
X0084476Y0089264D01*
X0083775Y0089264D02*
X0085877Y0089264D01*
X0085877Y0090315D01*
X0085527Y0090665D01*
X0084826Y0090665D01*
X0084476Y0089965D02*
X0083775Y0090665D01*
X0096252Y0111800D02*
X0095901Y0112150D01*
X0095901Y0112850D01*
X0096252Y0113201D01*
X0096252Y0114009D02*
X0095901Y0114360D01*
X0095901Y0115060D01*
X0096252Y0115411D01*
X0097653Y0115411D01*
X0098003Y0115060D01*
X0098003Y0114360D01*
X0097653Y0114009D01*
X0097303Y0114009D01*
X0096952Y0114360D01*
X0096952Y0115411D01*
X0097653Y0113201D02*
X0098003Y0112850D01*
X0098003Y0112150D01*
X0097653Y0111800D01*
X0096252Y0111800D01*
X0101236Y0114236D02*
X0101236Y0114936D01*
X0101586Y0115287D01*
X0101236Y0116095D02*
X0101236Y0117497D01*
X0101236Y0116796D02*
X0103338Y0116796D01*
X0102637Y0116095D01*
X0102988Y0115287D02*
X0103338Y0114936D01*
X0103338Y0114236D01*
X0102988Y0113886D01*
X0101586Y0113886D01*
X0101236Y0114236D01*
X0101236Y0118305D02*
X0101236Y0119707D01*
X0101236Y0119006D02*
X0103338Y0119006D01*
X0102637Y0118305D01*
X0063279Y0123385D02*
X0062929Y0123035D01*
X0061527Y0123035D01*
X0061177Y0123385D01*
X0061177Y0124086D01*
X0061527Y0124436D01*
X0061177Y0125245D02*
X0061177Y0126646D01*
X0061177Y0125946D02*
X0063279Y0125946D01*
X0062578Y0125245D01*
X0062929Y0124436D02*
X0063279Y0124086D01*
X0063279Y0123385D01*
X0062228Y0127455D02*
X0062228Y0128856D01*
X0063279Y0128506D02*
X0062228Y0127455D01*
X0061177Y0128506D02*
X0063279Y0128506D01*
X0050029Y0126656D02*
X0049328Y0125955D01*
X0049328Y0125146D02*
X0048978Y0124796D01*
X0048978Y0123745D01*
X0050029Y0123745D02*
X0050029Y0124796D01*
X0049679Y0125146D01*
X0049328Y0125146D01*
X0048978Y0124796D02*
X0048628Y0125146D01*
X0048277Y0125146D01*
X0047927Y0124796D01*
X0047927Y0123745D01*
X0050029Y0123745D01*
X0050029Y0122936D02*
X0050029Y0121535D01*
X0047927Y0121535D01*
X0048978Y0121535D02*
X0048978Y0122236D01*
X0047927Y0125955D02*
X0047927Y0127356D01*
X0047927Y0126656D02*
X0050029Y0126656D01*
D14*
X0083251Y0086009D02*
X0083251Y0084041D01*
X0083251Y0086009D02*
X0085219Y0086009D01*
X0102148Y0086009D02*
X0104117Y0086009D01*
X0104117Y0084041D01*
X0104117Y0067111D02*
X0104117Y0065143D01*
X0102148Y0065143D01*
X0085219Y0065143D02*
X0083251Y0065143D01*
X0083251Y0067111D01*
D15*
X0103526Y0063765D03*
M02*
