G75*
%MOIN*%
%OFA0B0*%
%FSLAX25Y25*%
%IPPOS*%
%LPD*%
%AMOC8*
5,1,8,0,0,1.08239X$1,22.5*
%
%ADD10C,0.00600*%
%ADD11C,0.00500*%
%ADD12C,0.02000*%
%ADD13C,0.00400*%
%ADD14C,0.00300*%
D10*
X0045927Y0034350D02*
X0046727Y0035650D01*
X0046227Y0036950D01*
X0044727Y0037250D01*
X0044727Y0038550D01*
X0046227Y0038750D01*
X0046827Y0040050D01*
X0045927Y0041350D01*
X0046827Y0042250D01*
X0048127Y0041350D01*
X0049327Y0041850D01*
X0049627Y0043450D01*
X0050927Y0043450D01*
X0051227Y0041850D01*
X0052427Y0041350D01*
X0053827Y0042250D01*
X0054727Y0041350D01*
X0053827Y0040050D01*
X0054327Y0038850D01*
X0055827Y0038550D01*
X0055827Y0037250D01*
X0054427Y0036950D01*
X0053827Y0035650D01*
X0054727Y0034350D01*
X0053827Y0033450D01*
X0052627Y0034250D01*
X0052027Y0033950D01*
X0051127Y0036250D01*
X0051727Y0035950D02*
X0052727Y0037950D01*
X0051727Y0039450D01*
X0050227Y0039950D01*
X0048727Y0039450D01*
X0048227Y0037950D01*
X0048727Y0036450D01*
X0049227Y0035950D01*
X0048227Y0034450D01*
X0046727Y0033950D01*
X0046227Y0034450D01*
X0047227Y0035950D01*
X0046227Y0037450D01*
X0045227Y0037450D01*
X0045227Y0038450D01*
X0046727Y0038450D01*
X0047227Y0039950D01*
X0046227Y0041450D01*
X0046727Y0041950D01*
X0048227Y0040950D01*
X0049727Y0041950D01*
X0049727Y0042950D01*
X0050727Y0042950D01*
X0051227Y0041450D01*
X0052727Y0040950D01*
X0053727Y0041950D01*
X0054227Y0041450D01*
X0053727Y0039950D01*
X0054227Y0038450D01*
X0055727Y0038450D01*
X0055227Y0037450D01*
X0053727Y0036950D01*
X0053727Y0035450D01*
X0054227Y0034450D01*
X0053727Y0033950D01*
X0052727Y0034450D01*
X0052227Y0034450D01*
X0051727Y0035950D01*
X0051836Y0036168D02*
X0053727Y0036168D01*
X0053727Y0036766D02*
X0052135Y0036766D01*
X0052434Y0037365D02*
X0054971Y0037365D01*
X0055484Y0037963D02*
X0052718Y0037963D01*
X0052319Y0038562D02*
X0054190Y0038562D01*
X0053990Y0039160D02*
X0051920Y0039160D01*
X0050801Y0039759D02*
X0053791Y0039759D01*
X0053863Y0040357D02*
X0046956Y0040357D01*
X0047163Y0039759D02*
X0049653Y0039759D01*
X0048630Y0039160D02*
X0046964Y0039160D01*
X0046764Y0038562D02*
X0048431Y0038562D01*
X0048231Y0037963D02*
X0045227Y0037963D01*
X0046284Y0037365D02*
X0048422Y0037365D01*
X0048622Y0036766D02*
X0046683Y0036766D01*
X0047082Y0036168D02*
X0049009Y0036168D01*
X0049527Y0036250D02*
X0048527Y0033950D01*
X0048027Y0034250D01*
X0046827Y0033450D01*
X0045927Y0034350D01*
X0046305Y0034372D02*
X0047993Y0034372D01*
X0048574Y0034971D02*
X0046574Y0034971D01*
X0046973Y0035569D02*
X0048973Y0035569D01*
X0049527Y0036250D02*
X0049453Y0036289D01*
X0049380Y0036332D01*
X0049310Y0036378D01*
X0049242Y0036428D01*
X0049176Y0036480D01*
X0049113Y0036536D01*
X0049053Y0036594D01*
X0048995Y0036655D01*
X0048941Y0036719D01*
X0048889Y0036785D01*
X0048841Y0036854D01*
X0048796Y0036925D01*
X0048754Y0036998D01*
X0048716Y0037073D01*
X0048681Y0037149D01*
X0048650Y0037227D01*
X0048622Y0037307D01*
X0048599Y0037388D01*
X0048579Y0037469D01*
X0048563Y0037552D01*
X0048551Y0037635D01*
X0048543Y0037719D01*
X0048539Y0037802D01*
X0048538Y0037887D01*
X0048542Y0037970D01*
X0048550Y0038054D01*
X0048561Y0038137D01*
X0048577Y0038220D01*
X0048596Y0038302D01*
X0048619Y0038383D01*
X0048646Y0038462D01*
X0048677Y0038541D01*
X0048711Y0038617D01*
X0048749Y0038692D01*
X0048790Y0038765D01*
X0048835Y0038837D01*
X0048883Y0038906D01*
X0048934Y0038972D01*
X0048988Y0039037D01*
X0049045Y0039098D01*
X0049105Y0039157D01*
X0049168Y0039213D01*
X0049233Y0039266D01*
X0049301Y0039316D01*
X0049371Y0039362D01*
X0049443Y0039405D01*
X0049517Y0039445D01*
X0049593Y0039481D01*
X0049670Y0039514D01*
X0049749Y0039543D01*
X0049829Y0039568D01*
X0049911Y0039590D01*
X0049993Y0039608D01*
X0050076Y0039621D01*
X0050159Y0039631D01*
X0050243Y0039637D01*
X0050327Y0039639D01*
X0050411Y0039637D01*
X0050495Y0039631D01*
X0050578Y0039621D01*
X0050661Y0039608D01*
X0050743Y0039590D01*
X0050825Y0039568D01*
X0050905Y0039543D01*
X0050984Y0039514D01*
X0051061Y0039481D01*
X0051137Y0039445D01*
X0051211Y0039405D01*
X0051283Y0039362D01*
X0051353Y0039316D01*
X0051421Y0039266D01*
X0051486Y0039213D01*
X0051549Y0039157D01*
X0051609Y0039098D01*
X0051666Y0039037D01*
X0051720Y0038972D01*
X0051771Y0038906D01*
X0051819Y0038837D01*
X0051864Y0038765D01*
X0051905Y0038692D01*
X0051943Y0038617D01*
X0051977Y0038541D01*
X0052008Y0038462D01*
X0052035Y0038383D01*
X0052058Y0038302D01*
X0052077Y0038220D01*
X0052093Y0038137D01*
X0052104Y0038054D01*
X0052112Y0037970D01*
X0052116Y0037887D01*
X0052115Y0037802D01*
X0052111Y0037719D01*
X0052103Y0037635D01*
X0052091Y0037552D01*
X0052075Y0037469D01*
X0052055Y0037388D01*
X0052032Y0037307D01*
X0052004Y0037227D01*
X0051973Y0037149D01*
X0051938Y0037073D01*
X0051900Y0036998D01*
X0051858Y0036925D01*
X0051813Y0036854D01*
X0051765Y0036785D01*
X0051713Y0036719D01*
X0051659Y0036655D01*
X0051601Y0036594D01*
X0051541Y0036536D01*
X0051478Y0036480D01*
X0051412Y0036428D01*
X0051344Y0036378D01*
X0051274Y0036332D01*
X0051201Y0036289D01*
X0051127Y0036250D01*
X0051854Y0035569D02*
X0053727Y0035569D01*
X0053967Y0034971D02*
X0052054Y0034971D01*
X0052883Y0034372D02*
X0054149Y0034372D01*
X0054062Y0040956D02*
X0052733Y0040956D01*
X0052710Y0040956D02*
X0048236Y0040956D01*
X0048218Y0040956D02*
X0046557Y0040956D01*
X0046331Y0041554D02*
X0047321Y0041554D01*
X0049133Y0041554D02*
X0051192Y0041554D01*
X0050993Y0042153D02*
X0049727Y0042153D01*
X0049727Y0042751D02*
X0050793Y0042751D01*
X0053331Y0041554D02*
X0054123Y0041554D01*
X0158468Y0058848D02*
X0158468Y0061050D01*
X0159202Y0061784D01*
X0160670Y0061784D01*
X0161404Y0061050D01*
X0161404Y0058848D01*
X0162872Y0058848D02*
X0158468Y0058848D01*
X0159202Y0063452D02*
X0162138Y0063452D01*
X0162872Y0064186D01*
X0162872Y0065654D01*
X0162138Y0066388D01*
X0162872Y0068056D02*
X0162872Y0069524D01*
X0162872Y0068790D02*
X0158468Y0068790D01*
X0158468Y0068056D02*
X0158468Y0069524D01*
X0158468Y0071126D02*
X0162872Y0071126D01*
X0162872Y0074061D01*
X0160670Y0072593D02*
X0160670Y0071126D01*
X0158468Y0071126D02*
X0158468Y0074061D01*
X0160670Y0075729D02*
X0160670Y0078665D01*
X0162138Y0080333D02*
X0158468Y0080333D01*
X0158468Y0083269D02*
X0162138Y0083269D01*
X0162872Y0082535D01*
X0162872Y0081067D01*
X0162138Y0080333D01*
X0162872Y0084937D02*
X0158468Y0084937D01*
X0162872Y0087873D01*
X0158468Y0087873D01*
X0159202Y0089541D02*
X0159936Y0089541D01*
X0160670Y0090275D01*
X0160670Y0091743D01*
X0161404Y0092477D01*
X0162138Y0092477D01*
X0162872Y0091743D01*
X0162872Y0090275D01*
X0162138Y0089541D01*
X0159202Y0089541D02*
X0158468Y0090275D01*
X0158468Y0091743D01*
X0159202Y0092477D01*
X0158468Y0094145D02*
X0158468Y0096347D01*
X0159202Y0097081D01*
X0160670Y0097081D01*
X0161404Y0096347D01*
X0161404Y0094145D01*
X0162872Y0094145D02*
X0158468Y0094145D01*
X0158468Y0098749D02*
X0162872Y0098749D01*
X0162872Y0101685D01*
X0162138Y0103353D02*
X0162872Y0104087D01*
X0162872Y0105555D01*
X0162138Y0106289D01*
X0162138Y0103353D02*
X0159202Y0103353D01*
X0158468Y0104087D01*
X0158468Y0105555D01*
X0159202Y0106289D01*
X0158468Y0101685D02*
X0158468Y0098749D01*
X0160670Y0098749D02*
X0160670Y0100217D01*
X0159202Y0066388D02*
X0158468Y0065654D01*
X0158468Y0064186D01*
X0159202Y0063452D01*
D11*
X0073977Y0061035D02*
X0073977Y0058700D01*
X0073977Y0059868D02*
X0070474Y0059868D01*
X0071642Y0058700D01*
X0070474Y0057352D02*
X0073977Y0055017D01*
X0073977Y0057352D02*
X0070474Y0055017D01*
X0058979Y0050379D02*
X0050790Y0050379D01*
X0038979Y0050379D02*
X0030790Y0050379D01*
X0030790Y0116521D01*
X0038979Y0116521D01*
X0050790Y0116521D02*
X0058979Y0116521D01*
D12*
X0105477Y0031318D03*
D13*
X0113325Y0043322D02*
X0115660Y0043322D01*
X0116127Y0043789D01*
X0116127Y0044723D01*
X0115660Y0045190D01*
X0113325Y0045190D01*
X0113792Y0046268D02*
X0113325Y0046735D01*
X0113325Y0047669D01*
X0113792Y0048136D01*
X0114259Y0048136D01*
X0116127Y0046268D01*
X0116127Y0048136D01*
D14*
X0104677Y0067785D02*
X0103276Y0067785D01*
X0102925Y0068135D01*
X0102925Y0068836D01*
X0103276Y0069186D01*
X0103626Y0069995D02*
X0102925Y0070696D01*
X0105027Y0070696D01*
X0105027Y0071396D02*
X0105027Y0069995D01*
X0104677Y0069186D02*
X0105027Y0068836D01*
X0105027Y0068135D01*
X0104677Y0067785D01*
X0104677Y0072205D02*
X0105027Y0072205D01*
X0104677Y0072205D02*
X0103276Y0073606D01*
X0102925Y0073606D01*
X0102925Y0072205D01*
X0084527Y0078135D02*
X0084527Y0078836D01*
X0084177Y0079186D01*
X0084527Y0079995D02*
X0084527Y0081396D01*
X0084527Y0080696D02*
X0082425Y0080696D01*
X0083126Y0079995D01*
X0082776Y0079186D02*
X0082425Y0078836D01*
X0082425Y0078135D01*
X0082776Y0077785D01*
X0084177Y0077785D01*
X0084527Y0078135D01*
X0084177Y0082205D02*
X0083476Y0082205D01*
X0083476Y0083256D01*
X0083826Y0083606D01*
X0084177Y0083606D01*
X0084527Y0083256D01*
X0084527Y0082555D01*
X0084177Y0082205D01*
X0083476Y0082205D02*
X0082776Y0082906D01*
X0082425Y0083606D01*
M02*
