%
M48
M72
T01C0.0080
T02C0.0472
%
T01
X3848Y3095
X4223Y3345
X4223Y3720
X4223Y4095
X3848Y4345
X5348Y3095
X6348Y3095
X7348Y3095
X8348Y3095
X9348Y3095
X10348Y3095
X10348Y3793
X10348Y4147
X10748Y4858
X11473Y4095
X11473Y3720
X11473Y3345
X11848Y3095
X11848Y4345
X11632Y5589
X11140Y5688
X10353Y6180
X10057Y6180
X10353Y6573
X11140Y6672
X11632Y6573
X11632Y7558
X11140Y7558
X11140Y8443
X11632Y8542
X11632Y9329
X11140Y9329
X10353Y9329
X9664Y9329
X9270Y9329
X8876Y9329
X8876Y8936
X8581Y8936
X8384Y8542
X7990Y8936
X7774Y8581
X7577Y8739
X7774Y8306
X7577Y8148
X7380Y7991
X7380Y7715
X7577Y7558
X7774Y7400
X7774Y7125
X7577Y6967
X7380Y6810
X7380Y6534
X7577Y6376
X8384Y6573
X8483Y6180
X8483Y5786
X8876Y5786
X9467Y5786
X9664Y6180
X9565Y6967
X9172Y6967
X9172Y7361
X9565Y7361
X9565Y7754
X9172Y7754
X8778Y7754
X8778Y7361
X8778Y6967
X9959Y7361
X9959Y7754
X9959Y8148
X9565Y8148
X9172Y8148
X9664Y8936
X10353Y8542
X11140Y10215
X11632Y10314
X11632Y11298
X11632Y11691
X11848Y12345
X11473Y12595
X11473Y12970
X11473Y13345
X11848Y13595
X10348Y13595
X9348Y13595
X8348Y13595
X7598Y12969
X7348Y13595
X6348Y13595
X5348Y13595
X4223Y13345
X3848Y13595
X4223Y12970
X4223Y12595
X3848Y12345
X3848Y10220
X4848Y10220
X5848Y10220
X6223Y9821
X5848Y9595
X5848Y8970
X6231Y8443
X5848Y8345
X6231Y7853
X5848Y7720
X6231Y7262
X5848Y7095
X6231Y6672
X5848Y6470
X4848Y6470
X3848Y6470
X3848Y7720
X4848Y7720
X4848Y8970
X3848Y8970
X8483Y10314
X10648Y10707
X13109Y10904
X13109Y12085
X13109Y6770
X13109Y5786
X9270Y5097
T02
X6425Y5491
X4496Y5254
X6425Y11199
X4496Y11436
M30
