G04 EAGLE Gerber RS-274X export*
G75*
%MOMM*%
%FSLAX34Y34*%
%LPD*%
%INTop Copper*%
%IPPOS*%
%AMOC8*
5,1,8,0,0,1.08239X$1,22.5*%
G01*
%ADD10C,0.152400*%


D10*
X762Y762D02*
X762Y17018D01*
X5278Y17018D01*
X5411Y17016D01*
X5543Y17010D01*
X5675Y17000D01*
X5807Y16987D01*
X5939Y16969D01*
X6069Y16948D01*
X6200Y16923D01*
X6329Y16894D01*
X6457Y16861D01*
X6585Y16825D01*
X6711Y16785D01*
X6836Y16741D01*
X6960Y16693D01*
X7082Y16642D01*
X7203Y16587D01*
X7322Y16529D01*
X7440Y16467D01*
X7555Y16402D01*
X7669Y16333D01*
X7780Y16262D01*
X7889Y16186D01*
X7996Y16108D01*
X8101Y16027D01*
X8203Y15942D01*
X8303Y15855D01*
X8400Y15765D01*
X8495Y15672D01*
X8586Y15576D01*
X8675Y15478D01*
X8761Y15377D01*
X8844Y15273D01*
X8924Y15167D01*
X9000Y15059D01*
X9074Y14949D01*
X9144Y14836D01*
X9211Y14722D01*
X9274Y14605D01*
X9334Y14487D01*
X9391Y14367D01*
X9444Y14245D01*
X9493Y14122D01*
X9539Y13998D01*
X9581Y13872D01*
X9619Y13745D01*
X9654Y13617D01*
X9685Y13488D01*
X9712Y13359D01*
X9735Y13228D01*
X9755Y13097D01*
X9770Y12965D01*
X9782Y12833D01*
X9790Y12701D01*
X9794Y12568D01*
X9794Y12436D01*
X9790Y12303D01*
X9782Y12171D01*
X9770Y12039D01*
X9755Y11907D01*
X9735Y11776D01*
X9712Y11645D01*
X9685Y11516D01*
X9654Y11387D01*
X9619Y11259D01*
X9581Y11132D01*
X9539Y11006D01*
X9493Y10882D01*
X9444Y10759D01*
X9391Y10637D01*
X9334Y10517D01*
X9274Y10399D01*
X9211Y10282D01*
X9144Y10168D01*
X9074Y10055D01*
X9000Y9945D01*
X8924Y9837D01*
X8844Y9731D01*
X8761Y9627D01*
X8675Y9526D01*
X8586Y9428D01*
X8495Y9332D01*
X8400Y9239D01*
X8303Y9149D01*
X8203Y9062D01*
X8101Y8977D01*
X7996Y8896D01*
X7889Y8818D01*
X7780Y8742D01*
X7669Y8671D01*
X7555Y8602D01*
X7440Y8537D01*
X7322Y8475D01*
X7203Y8417D01*
X7082Y8362D01*
X6960Y8311D01*
X6836Y8263D01*
X6711Y8219D01*
X6585Y8179D01*
X6457Y8143D01*
X6329Y8110D01*
X6200Y8081D01*
X6069Y8056D01*
X5939Y8035D01*
X5807Y8017D01*
X5675Y8004D01*
X5543Y7994D01*
X5411Y7988D01*
X5278Y7986D01*
X5278Y7987D02*
X762Y7987D01*
X18610Y7084D02*
X22674Y7084D01*
X18610Y7084D02*
X18498Y7082D01*
X18387Y7076D01*
X18276Y7066D01*
X18165Y7053D01*
X18055Y7035D01*
X17946Y7013D01*
X17837Y6988D01*
X17729Y6959D01*
X17623Y6926D01*
X17517Y6889D01*
X17413Y6849D01*
X17311Y6805D01*
X17210Y6757D01*
X17111Y6706D01*
X17013Y6651D01*
X16918Y6593D01*
X16825Y6532D01*
X16734Y6467D01*
X16645Y6399D01*
X16559Y6328D01*
X16476Y6255D01*
X16395Y6178D01*
X16316Y6098D01*
X16241Y6016D01*
X16169Y5931D01*
X16099Y5844D01*
X16033Y5754D01*
X15970Y5662D01*
X15910Y5567D01*
X15854Y5471D01*
X15801Y5373D01*
X15752Y5273D01*
X15706Y5171D01*
X15664Y5068D01*
X15625Y4963D01*
X15590Y4857D01*
X15559Y4750D01*
X15532Y4642D01*
X15508Y4533D01*
X15489Y4423D01*
X15473Y4313D01*
X15461Y4202D01*
X15453Y4090D01*
X15449Y3979D01*
X15449Y3867D01*
X15453Y3756D01*
X15461Y3644D01*
X15473Y3533D01*
X15489Y3423D01*
X15508Y3313D01*
X15532Y3204D01*
X15559Y3096D01*
X15590Y2989D01*
X15625Y2883D01*
X15664Y2778D01*
X15706Y2675D01*
X15752Y2573D01*
X15801Y2473D01*
X15854Y2375D01*
X15910Y2279D01*
X15970Y2184D01*
X16033Y2092D01*
X16099Y2002D01*
X16169Y1915D01*
X16241Y1830D01*
X16316Y1748D01*
X16395Y1668D01*
X16476Y1591D01*
X16559Y1518D01*
X16645Y1447D01*
X16734Y1379D01*
X16825Y1314D01*
X16918Y1253D01*
X17013Y1195D01*
X17111Y1140D01*
X17210Y1089D01*
X17311Y1041D01*
X17413Y997D01*
X17517Y957D01*
X17623Y920D01*
X17729Y887D01*
X17837Y858D01*
X17946Y833D01*
X18055Y811D01*
X18165Y793D01*
X18276Y780D01*
X18387Y770D01*
X18498Y764D01*
X18610Y762D01*
X22674Y762D01*
X22674Y8890D01*
X22672Y8991D01*
X22666Y9092D01*
X22657Y9193D01*
X22644Y9294D01*
X22627Y9394D01*
X22606Y9493D01*
X22582Y9591D01*
X22554Y9688D01*
X22522Y9785D01*
X22487Y9880D01*
X22448Y9973D01*
X22406Y10065D01*
X22360Y10156D01*
X22311Y10245D01*
X22259Y10331D01*
X22203Y10416D01*
X22145Y10499D01*
X22083Y10579D01*
X22018Y10657D01*
X21951Y10733D01*
X21881Y10806D01*
X21808Y10876D01*
X21732Y10943D01*
X21654Y11008D01*
X21574Y11070D01*
X21491Y11128D01*
X21406Y11184D01*
X21320Y11236D01*
X21231Y11285D01*
X21140Y11331D01*
X21048Y11373D01*
X20955Y11412D01*
X20860Y11447D01*
X20763Y11479D01*
X20666Y11507D01*
X20568Y11531D01*
X20469Y11552D01*
X20369Y11569D01*
X20268Y11582D01*
X20167Y11591D01*
X20066Y11597D01*
X19965Y11599D01*
X16352Y11599D01*
X30111Y11599D02*
X30111Y762D01*
X30111Y11599D02*
X34627Y11599D01*
X34731Y11597D01*
X34834Y11591D01*
X34938Y11581D01*
X35041Y11567D01*
X35143Y11549D01*
X35244Y11528D01*
X35345Y11502D01*
X35444Y11473D01*
X35543Y11440D01*
X35640Y11403D01*
X35735Y11362D01*
X35829Y11318D01*
X35921Y11270D01*
X36011Y11219D01*
X36100Y11164D01*
X36186Y11106D01*
X36269Y11044D01*
X36351Y10980D01*
X36429Y10912D01*
X36505Y10842D01*
X36579Y10769D01*
X36649Y10692D01*
X36717Y10614D01*
X36781Y10532D01*
X36843Y10449D01*
X36901Y10363D01*
X36956Y10274D01*
X37007Y10184D01*
X37055Y10092D01*
X37099Y9998D01*
X37140Y9903D01*
X37177Y9806D01*
X37210Y9707D01*
X37239Y9608D01*
X37265Y9507D01*
X37286Y9406D01*
X37304Y9304D01*
X37318Y9201D01*
X37328Y9097D01*
X37334Y8994D01*
X37336Y8890D01*
X37336Y762D01*
X46889Y762D02*
X51404Y762D01*
X46889Y762D02*
X46788Y764D01*
X46687Y770D01*
X46586Y779D01*
X46485Y792D01*
X46385Y809D01*
X46286Y830D01*
X46188Y854D01*
X46091Y882D01*
X45994Y914D01*
X45899Y949D01*
X45806Y988D01*
X45714Y1030D01*
X45623Y1076D01*
X45535Y1125D01*
X45448Y1177D01*
X45363Y1233D01*
X45280Y1291D01*
X45200Y1353D01*
X45122Y1418D01*
X45046Y1485D01*
X44973Y1555D01*
X44903Y1628D01*
X44836Y1704D01*
X44771Y1782D01*
X44709Y1862D01*
X44651Y1945D01*
X44595Y2030D01*
X44543Y2116D01*
X44494Y2205D01*
X44448Y2296D01*
X44406Y2388D01*
X44367Y2481D01*
X44332Y2576D01*
X44300Y2673D01*
X44272Y2770D01*
X44248Y2868D01*
X44227Y2967D01*
X44210Y3067D01*
X44197Y3168D01*
X44188Y3269D01*
X44182Y3370D01*
X44180Y3471D01*
X44179Y3471D02*
X44179Y7987D01*
X44180Y7987D02*
X44182Y8106D01*
X44188Y8226D01*
X44198Y8345D01*
X44212Y8463D01*
X44229Y8582D01*
X44251Y8699D01*
X44276Y8816D01*
X44306Y8931D01*
X44339Y9046D01*
X44376Y9160D01*
X44416Y9272D01*
X44461Y9383D01*
X44509Y9492D01*
X44560Y9600D01*
X44615Y9706D01*
X44674Y9810D01*
X44736Y9912D01*
X44801Y10012D01*
X44870Y10110D01*
X44942Y10206D01*
X45017Y10299D01*
X45094Y10389D01*
X45175Y10477D01*
X45259Y10562D01*
X45346Y10644D01*
X45435Y10724D01*
X45527Y10800D01*
X45621Y10874D01*
X45718Y10944D01*
X45816Y11011D01*
X45917Y11075D01*
X46021Y11135D01*
X46126Y11192D01*
X46233Y11245D01*
X46341Y11295D01*
X46451Y11341D01*
X46563Y11383D01*
X46676Y11422D01*
X46790Y11457D01*
X46905Y11488D01*
X47022Y11516D01*
X47139Y11539D01*
X47256Y11559D01*
X47375Y11575D01*
X47494Y11587D01*
X47613Y11595D01*
X47732Y11599D01*
X47852Y11599D01*
X47971Y11595D01*
X48090Y11587D01*
X48209Y11575D01*
X48328Y11559D01*
X48445Y11539D01*
X48562Y11516D01*
X48679Y11488D01*
X48794Y11457D01*
X48908Y11422D01*
X49021Y11383D01*
X49133Y11341D01*
X49243Y11295D01*
X49351Y11245D01*
X49458Y11192D01*
X49563Y11135D01*
X49667Y11075D01*
X49768Y11011D01*
X49866Y10944D01*
X49963Y10874D01*
X50057Y10800D01*
X50149Y10724D01*
X50238Y10644D01*
X50325Y10562D01*
X50409Y10477D01*
X50490Y10389D01*
X50567Y10299D01*
X50642Y10206D01*
X50714Y10110D01*
X50783Y10012D01*
X50848Y9912D01*
X50910Y9810D01*
X50969Y9706D01*
X51024Y9600D01*
X51075Y9492D01*
X51123Y9383D01*
X51168Y9272D01*
X51208Y9160D01*
X51245Y9046D01*
X51278Y8931D01*
X51308Y8816D01*
X51333Y8699D01*
X51355Y8582D01*
X51372Y8463D01*
X51386Y8345D01*
X51396Y8226D01*
X51402Y8106D01*
X51404Y7987D01*
X51404Y6181D01*
X44179Y6181D01*
X57963Y3471D02*
X57963Y17018D01*
X57964Y3471D02*
X57966Y3370D01*
X57972Y3269D01*
X57981Y3168D01*
X57994Y3067D01*
X58011Y2967D01*
X58032Y2868D01*
X58056Y2770D01*
X58084Y2673D01*
X58116Y2576D01*
X58151Y2481D01*
X58190Y2388D01*
X58232Y2296D01*
X58278Y2205D01*
X58327Y2116D01*
X58379Y2030D01*
X58435Y1945D01*
X58493Y1862D01*
X58555Y1782D01*
X58620Y1704D01*
X58687Y1628D01*
X58757Y1555D01*
X58830Y1485D01*
X58906Y1418D01*
X58984Y1353D01*
X59064Y1291D01*
X59147Y1233D01*
X59232Y1177D01*
X59319Y1125D01*
X59407Y1076D01*
X59498Y1030D01*
X59590Y988D01*
X59683Y949D01*
X59778Y914D01*
X59875Y882D01*
X59972Y854D01*
X60070Y830D01*
X60169Y809D01*
X60269Y792D01*
X60370Y779D01*
X60471Y770D01*
X60572Y764D01*
X60673Y762D01*
X75090Y762D02*
X75090Y17018D01*
X75090Y762D02*
X82315Y762D01*
X91034Y7084D02*
X95098Y7084D01*
X91034Y7084D02*
X90922Y7082D01*
X90811Y7076D01*
X90700Y7066D01*
X90589Y7053D01*
X90479Y7035D01*
X90370Y7013D01*
X90261Y6988D01*
X90153Y6959D01*
X90047Y6926D01*
X89941Y6889D01*
X89837Y6849D01*
X89735Y6805D01*
X89634Y6757D01*
X89535Y6706D01*
X89437Y6651D01*
X89342Y6593D01*
X89249Y6532D01*
X89158Y6467D01*
X89069Y6399D01*
X88983Y6328D01*
X88900Y6255D01*
X88819Y6178D01*
X88740Y6098D01*
X88665Y6016D01*
X88593Y5931D01*
X88523Y5844D01*
X88457Y5754D01*
X88394Y5662D01*
X88334Y5567D01*
X88278Y5471D01*
X88225Y5373D01*
X88176Y5273D01*
X88130Y5171D01*
X88088Y5068D01*
X88049Y4963D01*
X88014Y4857D01*
X87983Y4750D01*
X87956Y4642D01*
X87932Y4533D01*
X87913Y4423D01*
X87897Y4313D01*
X87885Y4202D01*
X87877Y4090D01*
X87873Y3979D01*
X87873Y3867D01*
X87877Y3756D01*
X87885Y3644D01*
X87897Y3533D01*
X87913Y3423D01*
X87932Y3313D01*
X87956Y3204D01*
X87983Y3096D01*
X88014Y2989D01*
X88049Y2883D01*
X88088Y2778D01*
X88130Y2675D01*
X88176Y2573D01*
X88225Y2473D01*
X88278Y2375D01*
X88334Y2279D01*
X88394Y2184D01*
X88457Y2092D01*
X88523Y2002D01*
X88593Y1915D01*
X88665Y1830D01*
X88740Y1748D01*
X88819Y1668D01*
X88900Y1591D01*
X88983Y1518D01*
X89069Y1447D01*
X89158Y1379D01*
X89249Y1314D01*
X89342Y1253D01*
X89437Y1195D01*
X89535Y1140D01*
X89634Y1089D01*
X89735Y1041D01*
X89837Y997D01*
X89941Y957D01*
X90047Y920D01*
X90153Y887D01*
X90261Y858D01*
X90370Y833D01*
X90479Y811D01*
X90589Y793D01*
X90700Y780D01*
X90811Y770D01*
X90922Y764D01*
X91034Y762D01*
X95098Y762D01*
X95098Y8890D01*
X95096Y8991D01*
X95090Y9092D01*
X95081Y9193D01*
X95068Y9294D01*
X95051Y9394D01*
X95030Y9493D01*
X95006Y9591D01*
X94978Y9688D01*
X94946Y9785D01*
X94911Y9880D01*
X94872Y9973D01*
X94830Y10065D01*
X94784Y10156D01*
X94735Y10245D01*
X94683Y10331D01*
X94627Y10416D01*
X94569Y10499D01*
X94507Y10579D01*
X94442Y10657D01*
X94375Y10733D01*
X94305Y10806D01*
X94232Y10876D01*
X94156Y10943D01*
X94078Y11008D01*
X93998Y11070D01*
X93915Y11128D01*
X93830Y11184D01*
X93744Y11236D01*
X93655Y11285D01*
X93564Y11331D01*
X93472Y11373D01*
X93379Y11412D01*
X93284Y11447D01*
X93187Y11479D01*
X93090Y11507D01*
X92992Y11531D01*
X92893Y11552D01*
X92793Y11569D01*
X92692Y11582D01*
X92591Y11591D01*
X92490Y11597D01*
X92389Y11599D01*
X88777Y11599D01*
X102609Y17018D02*
X102609Y762D01*
X107125Y762D01*
X107229Y764D01*
X107332Y770D01*
X107436Y780D01*
X107539Y794D01*
X107641Y812D01*
X107742Y833D01*
X107843Y859D01*
X107942Y888D01*
X108041Y921D01*
X108138Y958D01*
X108233Y999D01*
X108327Y1043D01*
X108419Y1091D01*
X108509Y1142D01*
X108598Y1197D01*
X108684Y1255D01*
X108767Y1317D01*
X108849Y1381D01*
X108927Y1449D01*
X109003Y1519D01*
X109077Y1592D01*
X109147Y1669D01*
X109215Y1747D01*
X109279Y1829D01*
X109341Y1912D01*
X109399Y1998D01*
X109454Y2087D01*
X109505Y2177D01*
X109553Y2269D01*
X109597Y2363D01*
X109638Y2458D01*
X109675Y2555D01*
X109708Y2654D01*
X109737Y2753D01*
X109763Y2854D01*
X109784Y2955D01*
X109802Y3057D01*
X109816Y3160D01*
X109826Y3264D01*
X109832Y3367D01*
X109834Y3471D01*
X109834Y8890D01*
X109832Y8991D01*
X109826Y9092D01*
X109817Y9193D01*
X109804Y9294D01*
X109787Y9394D01*
X109766Y9493D01*
X109742Y9591D01*
X109714Y9688D01*
X109682Y9785D01*
X109647Y9880D01*
X109608Y9973D01*
X109566Y10065D01*
X109520Y10156D01*
X109471Y10245D01*
X109419Y10331D01*
X109363Y10416D01*
X109305Y10499D01*
X109243Y10579D01*
X109178Y10657D01*
X109111Y10733D01*
X109041Y10806D01*
X108968Y10876D01*
X108892Y10943D01*
X108814Y11008D01*
X108734Y11070D01*
X108651Y11128D01*
X108566Y11184D01*
X108480Y11236D01*
X108391Y11285D01*
X108300Y11331D01*
X108208Y11373D01*
X108115Y11412D01*
X108020Y11447D01*
X107923Y11479D01*
X107826Y11507D01*
X107728Y11531D01*
X107629Y11552D01*
X107529Y11569D01*
X107428Y11582D01*
X107327Y11591D01*
X107226Y11597D01*
X107125Y11599D01*
X102609Y11599D01*
X118792Y762D02*
X123308Y762D01*
X118792Y762D02*
X118691Y764D01*
X118590Y770D01*
X118489Y779D01*
X118388Y792D01*
X118288Y809D01*
X118189Y830D01*
X118091Y854D01*
X117994Y882D01*
X117897Y914D01*
X117802Y949D01*
X117709Y988D01*
X117617Y1030D01*
X117526Y1076D01*
X117438Y1125D01*
X117351Y1177D01*
X117266Y1233D01*
X117183Y1291D01*
X117103Y1353D01*
X117025Y1418D01*
X116949Y1485D01*
X116876Y1555D01*
X116806Y1628D01*
X116739Y1704D01*
X116674Y1782D01*
X116612Y1862D01*
X116554Y1945D01*
X116498Y2030D01*
X116446Y2116D01*
X116397Y2205D01*
X116351Y2296D01*
X116309Y2388D01*
X116270Y2481D01*
X116235Y2576D01*
X116203Y2673D01*
X116175Y2770D01*
X116151Y2868D01*
X116130Y2967D01*
X116113Y3067D01*
X116100Y3168D01*
X116091Y3269D01*
X116085Y3370D01*
X116083Y3471D01*
X116083Y7987D01*
X116084Y7987D02*
X116086Y8106D01*
X116092Y8226D01*
X116102Y8345D01*
X116116Y8463D01*
X116133Y8582D01*
X116155Y8699D01*
X116180Y8816D01*
X116210Y8931D01*
X116243Y9046D01*
X116280Y9160D01*
X116320Y9272D01*
X116365Y9383D01*
X116413Y9492D01*
X116464Y9600D01*
X116519Y9706D01*
X116578Y9810D01*
X116640Y9912D01*
X116705Y10012D01*
X116774Y10110D01*
X116846Y10206D01*
X116921Y10299D01*
X116998Y10389D01*
X117079Y10477D01*
X117163Y10562D01*
X117250Y10644D01*
X117339Y10724D01*
X117431Y10800D01*
X117525Y10874D01*
X117622Y10944D01*
X117720Y11011D01*
X117821Y11075D01*
X117925Y11135D01*
X118030Y11192D01*
X118137Y11245D01*
X118245Y11295D01*
X118355Y11341D01*
X118467Y11383D01*
X118580Y11422D01*
X118694Y11457D01*
X118809Y11488D01*
X118926Y11516D01*
X119043Y11539D01*
X119160Y11559D01*
X119279Y11575D01*
X119398Y11587D01*
X119517Y11595D01*
X119636Y11599D01*
X119756Y11599D01*
X119875Y11595D01*
X119994Y11587D01*
X120113Y11575D01*
X120232Y11559D01*
X120349Y11539D01*
X120466Y11516D01*
X120583Y11488D01*
X120698Y11457D01*
X120812Y11422D01*
X120925Y11383D01*
X121037Y11341D01*
X121147Y11295D01*
X121255Y11245D01*
X121362Y11192D01*
X121467Y11135D01*
X121571Y11075D01*
X121672Y11011D01*
X121770Y10944D01*
X121867Y10874D01*
X121961Y10800D01*
X122053Y10724D01*
X122142Y10644D01*
X122229Y10562D01*
X122313Y10477D01*
X122394Y10389D01*
X122471Y10299D01*
X122546Y10206D01*
X122618Y10110D01*
X122687Y10012D01*
X122752Y9912D01*
X122814Y9810D01*
X122873Y9706D01*
X122928Y9600D01*
X122979Y9492D01*
X123027Y9383D01*
X123072Y9272D01*
X123112Y9160D01*
X123149Y9046D01*
X123182Y8931D01*
X123212Y8816D01*
X123237Y8699D01*
X123259Y8582D01*
X123276Y8463D01*
X123290Y8345D01*
X123300Y8226D01*
X123306Y8106D01*
X123308Y7987D01*
X123308Y6181D01*
X116083Y6181D01*
X129867Y3471D02*
X129867Y17018D01*
X129867Y3471D02*
X129869Y3370D01*
X129875Y3269D01*
X129884Y3168D01*
X129897Y3067D01*
X129914Y2967D01*
X129935Y2868D01*
X129959Y2770D01*
X129987Y2673D01*
X130019Y2576D01*
X130054Y2481D01*
X130093Y2388D01*
X130135Y2296D01*
X130181Y2205D01*
X130230Y2116D01*
X130282Y2030D01*
X130338Y1945D01*
X130396Y1862D01*
X130458Y1782D01*
X130523Y1704D01*
X130590Y1628D01*
X130660Y1555D01*
X130733Y1485D01*
X130809Y1418D01*
X130887Y1353D01*
X130967Y1291D01*
X131050Y1233D01*
X131135Y1177D01*
X131222Y1125D01*
X131310Y1076D01*
X131401Y1030D01*
X131493Y988D01*
X131586Y949D01*
X131681Y914D01*
X131778Y882D01*
X131875Y854D01*
X131973Y830D01*
X132072Y809D01*
X132172Y792D01*
X132273Y779D01*
X132374Y770D01*
X132475Y764D01*
X132576Y762D01*
X146581Y7084D02*
X157419Y7084D01*
X171591Y17018D02*
X177010Y762D01*
X182429Y17018D01*
X190696Y762D02*
X195212Y762D01*
X190696Y762D02*
X190595Y764D01*
X190494Y770D01*
X190393Y779D01*
X190292Y792D01*
X190192Y809D01*
X190093Y830D01*
X189995Y854D01*
X189898Y882D01*
X189801Y914D01*
X189706Y949D01*
X189613Y988D01*
X189521Y1030D01*
X189430Y1076D01*
X189342Y1125D01*
X189255Y1177D01*
X189170Y1233D01*
X189087Y1291D01*
X189007Y1353D01*
X188929Y1418D01*
X188853Y1485D01*
X188780Y1555D01*
X188710Y1628D01*
X188643Y1704D01*
X188578Y1782D01*
X188516Y1862D01*
X188458Y1945D01*
X188402Y2030D01*
X188350Y2116D01*
X188301Y2205D01*
X188255Y2296D01*
X188213Y2388D01*
X188174Y2481D01*
X188139Y2576D01*
X188107Y2673D01*
X188079Y2770D01*
X188055Y2868D01*
X188034Y2967D01*
X188017Y3067D01*
X188004Y3168D01*
X187995Y3269D01*
X187989Y3370D01*
X187987Y3471D01*
X187987Y7987D01*
X187989Y8106D01*
X187995Y8226D01*
X188005Y8345D01*
X188019Y8463D01*
X188036Y8582D01*
X188058Y8699D01*
X188083Y8816D01*
X188113Y8931D01*
X188146Y9046D01*
X188183Y9160D01*
X188223Y9272D01*
X188268Y9383D01*
X188316Y9492D01*
X188367Y9600D01*
X188422Y9706D01*
X188481Y9810D01*
X188543Y9912D01*
X188608Y10012D01*
X188677Y10110D01*
X188749Y10206D01*
X188824Y10299D01*
X188901Y10389D01*
X188982Y10477D01*
X189066Y10562D01*
X189153Y10644D01*
X189242Y10724D01*
X189334Y10800D01*
X189428Y10874D01*
X189525Y10944D01*
X189623Y11011D01*
X189724Y11075D01*
X189828Y11135D01*
X189933Y11192D01*
X190040Y11245D01*
X190148Y11295D01*
X190258Y11341D01*
X190370Y11383D01*
X190483Y11422D01*
X190597Y11457D01*
X190712Y11488D01*
X190829Y11516D01*
X190946Y11539D01*
X191063Y11559D01*
X191182Y11575D01*
X191301Y11587D01*
X191420Y11595D01*
X191539Y11599D01*
X191659Y11599D01*
X191778Y11595D01*
X191897Y11587D01*
X192016Y11575D01*
X192135Y11559D01*
X192252Y11539D01*
X192369Y11516D01*
X192486Y11488D01*
X192601Y11457D01*
X192715Y11422D01*
X192828Y11383D01*
X192940Y11341D01*
X193050Y11295D01*
X193158Y11245D01*
X193265Y11192D01*
X193370Y11135D01*
X193474Y11075D01*
X193575Y11011D01*
X193673Y10944D01*
X193770Y10874D01*
X193864Y10800D01*
X193956Y10724D01*
X194045Y10644D01*
X194132Y10562D01*
X194216Y10477D01*
X194297Y10389D01*
X194374Y10299D01*
X194449Y10206D01*
X194521Y10110D01*
X194590Y10012D01*
X194655Y9912D01*
X194717Y9810D01*
X194776Y9706D01*
X194831Y9600D01*
X194882Y9492D01*
X194930Y9383D01*
X194975Y9272D01*
X195015Y9160D01*
X195052Y9046D01*
X195085Y8931D01*
X195115Y8816D01*
X195140Y8699D01*
X195162Y8582D01*
X195179Y8463D01*
X195193Y8345D01*
X195203Y8226D01*
X195209Y8106D01*
X195211Y7987D01*
X195212Y7987D02*
X195212Y6181D01*
X187987Y6181D01*
X202140Y762D02*
X202140Y11599D01*
X207558Y11599D01*
X207558Y9793D01*
X213830Y7084D02*
X218346Y5278D01*
X213830Y7084D02*
X213742Y7121D01*
X213656Y7162D01*
X213571Y7206D01*
X213488Y7254D01*
X213408Y7305D01*
X213329Y7359D01*
X213253Y7417D01*
X213179Y7477D01*
X213107Y7541D01*
X213039Y7607D01*
X212973Y7677D01*
X212910Y7748D01*
X212849Y7823D01*
X212792Y7899D01*
X212739Y7978D01*
X212688Y8059D01*
X212641Y8142D01*
X212597Y8227D01*
X212557Y8314D01*
X212520Y8402D01*
X212487Y8492D01*
X212457Y8583D01*
X212432Y8675D01*
X212410Y8768D01*
X212392Y8862D01*
X212377Y8956D01*
X212367Y9051D01*
X212361Y9147D01*
X212358Y9242D01*
X212359Y9338D01*
X212365Y9433D01*
X212374Y9529D01*
X212387Y9623D01*
X212403Y9717D01*
X212424Y9811D01*
X212449Y9903D01*
X212477Y9994D01*
X212509Y10084D01*
X212544Y10173D01*
X212583Y10260D01*
X212626Y10346D01*
X212672Y10430D01*
X212722Y10511D01*
X212774Y10591D01*
X212830Y10669D01*
X212890Y10744D01*
X212952Y10816D01*
X213017Y10886D01*
X213085Y10954D01*
X213155Y11018D01*
X213228Y11080D01*
X213304Y11138D01*
X213382Y11194D01*
X213462Y11246D01*
X213544Y11295D01*
X213628Y11340D01*
X213714Y11382D01*
X213801Y11421D01*
X213890Y11456D01*
X213981Y11487D01*
X214072Y11514D01*
X214165Y11538D01*
X214258Y11558D01*
X214352Y11574D01*
X214447Y11586D01*
X214542Y11595D01*
X214638Y11599D01*
X214733Y11600D01*
X214980Y11593D01*
X215226Y11581D01*
X215472Y11563D01*
X215718Y11538D01*
X215962Y11508D01*
X216206Y11472D01*
X216449Y11431D01*
X216691Y11383D01*
X216932Y11329D01*
X217171Y11270D01*
X217409Y11205D01*
X217645Y11134D01*
X217880Y11058D01*
X218113Y10976D01*
X218343Y10888D01*
X218571Y10795D01*
X218798Y10697D01*
X218346Y5277D02*
X218434Y5240D01*
X218520Y5199D01*
X218605Y5155D01*
X218688Y5107D01*
X218768Y5056D01*
X218847Y5002D01*
X218923Y4944D01*
X218997Y4884D01*
X219069Y4820D01*
X219137Y4754D01*
X219203Y4684D01*
X219266Y4613D01*
X219327Y4538D01*
X219384Y4462D01*
X219437Y4383D01*
X219488Y4302D01*
X219535Y4219D01*
X219579Y4134D01*
X219619Y4047D01*
X219656Y3959D01*
X219689Y3869D01*
X219719Y3778D01*
X219744Y3686D01*
X219766Y3593D01*
X219784Y3499D01*
X219799Y3405D01*
X219809Y3310D01*
X219815Y3214D01*
X219818Y3119D01*
X219817Y3023D01*
X219811Y2928D01*
X219802Y2832D01*
X219789Y2738D01*
X219773Y2644D01*
X219752Y2550D01*
X219727Y2458D01*
X219699Y2367D01*
X219667Y2277D01*
X219632Y2188D01*
X219593Y2101D01*
X219550Y2015D01*
X219504Y1931D01*
X219454Y1850D01*
X219402Y1770D01*
X219346Y1692D01*
X219286Y1617D01*
X219224Y1545D01*
X219159Y1475D01*
X219091Y1407D01*
X219021Y1343D01*
X218948Y1281D01*
X218872Y1223D01*
X218794Y1167D01*
X218714Y1115D01*
X218632Y1066D01*
X218548Y1021D01*
X218462Y979D01*
X218375Y940D01*
X218286Y905D01*
X218195Y874D01*
X218104Y847D01*
X218011Y823D01*
X217918Y803D01*
X217824Y787D01*
X217729Y775D01*
X217634Y766D01*
X217538Y762D01*
X217443Y761D01*
X217442Y762D02*
X217080Y771D01*
X216718Y789D01*
X216357Y816D01*
X215997Y851D01*
X215637Y894D01*
X215278Y946D01*
X214921Y1007D01*
X214566Y1076D01*
X214212Y1153D01*
X213860Y1239D01*
X213510Y1333D01*
X213162Y1436D01*
X212817Y1546D01*
X212475Y1665D01*
X225988Y762D02*
X225988Y11599D01*
X225536Y16115D02*
X225536Y17018D01*
X226439Y17018D01*
X226439Y16115D01*
X225536Y16115D01*
X232275Y7987D02*
X232275Y4374D01*
X232276Y7987D02*
X232278Y8106D01*
X232284Y8226D01*
X232294Y8345D01*
X232308Y8463D01*
X232325Y8582D01*
X232347Y8699D01*
X232372Y8816D01*
X232402Y8931D01*
X232435Y9046D01*
X232472Y9160D01*
X232512Y9272D01*
X232557Y9383D01*
X232605Y9492D01*
X232656Y9600D01*
X232711Y9706D01*
X232770Y9810D01*
X232832Y9912D01*
X232897Y10012D01*
X232966Y10110D01*
X233038Y10206D01*
X233113Y10299D01*
X233190Y10389D01*
X233271Y10477D01*
X233355Y10562D01*
X233442Y10644D01*
X233531Y10724D01*
X233623Y10800D01*
X233717Y10874D01*
X233814Y10944D01*
X233912Y11011D01*
X234013Y11075D01*
X234117Y11135D01*
X234222Y11192D01*
X234329Y11245D01*
X234437Y11295D01*
X234547Y11341D01*
X234659Y11383D01*
X234772Y11422D01*
X234886Y11457D01*
X235001Y11488D01*
X235118Y11516D01*
X235235Y11539D01*
X235352Y11559D01*
X235471Y11575D01*
X235590Y11587D01*
X235709Y11595D01*
X235828Y11599D01*
X235948Y11599D01*
X236067Y11595D01*
X236186Y11587D01*
X236305Y11575D01*
X236424Y11559D01*
X236541Y11539D01*
X236658Y11516D01*
X236775Y11488D01*
X236890Y11457D01*
X237004Y11422D01*
X237117Y11383D01*
X237229Y11341D01*
X237339Y11295D01*
X237447Y11245D01*
X237554Y11192D01*
X237659Y11135D01*
X237763Y11075D01*
X237864Y11011D01*
X237962Y10944D01*
X238059Y10874D01*
X238153Y10800D01*
X238245Y10724D01*
X238334Y10644D01*
X238421Y10562D01*
X238505Y10477D01*
X238586Y10389D01*
X238663Y10299D01*
X238738Y10206D01*
X238810Y10110D01*
X238879Y10012D01*
X238944Y9912D01*
X239006Y9810D01*
X239065Y9706D01*
X239120Y9600D01*
X239171Y9492D01*
X239219Y9383D01*
X239264Y9272D01*
X239304Y9160D01*
X239341Y9046D01*
X239374Y8931D01*
X239404Y8816D01*
X239429Y8699D01*
X239451Y8582D01*
X239468Y8463D01*
X239482Y8345D01*
X239492Y8226D01*
X239498Y8106D01*
X239500Y7987D01*
X239500Y4374D01*
X239498Y4255D01*
X239492Y4135D01*
X239482Y4016D01*
X239468Y3898D01*
X239451Y3779D01*
X239429Y3662D01*
X239404Y3545D01*
X239374Y3430D01*
X239341Y3315D01*
X239304Y3201D01*
X239264Y3089D01*
X239219Y2978D01*
X239171Y2869D01*
X239120Y2761D01*
X239065Y2655D01*
X239006Y2551D01*
X238944Y2449D01*
X238879Y2349D01*
X238810Y2251D01*
X238738Y2155D01*
X238663Y2062D01*
X238586Y1972D01*
X238505Y1884D01*
X238421Y1799D01*
X238334Y1717D01*
X238245Y1637D01*
X238153Y1561D01*
X238059Y1487D01*
X237962Y1417D01*
X237864Y1350D01*
X237763Y1286D01*
X237659Y1226D01*
X237554Y1169D01*
X237447Y1116D01*
X237339Y1066D01*
X237229Y1020D01*
X237117Y978D01*
X237004Y939D01*
X236890Y904D01*
X236775Y873D01*
X236658Y845D01*
X236541Y822D01*
X236424Y802D01*
X236305Y786D01*
X236186Y774D01*
X236067Y766D01*
X235948Y762D01*
X235828Y762D01*
X235709Y766D01*
X235590Y774D01*
X235471Y786D01*
X235352Y802D01*
X235235Y822D01*
X235118Y845D01*
X235001Y873D01*
X234886Y904D01*
X234772Y939D01*
X234659Y978D01*
X234547Y1020D01*
X234437Y1066D01*
X234329Y1116D01*
X234222Y1169D01*
X234117Y1226D01*
X234013Y1286D01*
X233912Y1350D01*
X233814Y1417D01*
X233717Y1487D01*
X233623Y1561D01*
X233531Y1637D01*
X233442Y1717D01*
X233355Y1799D01*
X233271Y1884D01*
X233190Y1972D01*
X233113Y2062D01*
X233038Y2155D01*
X232966Y2251D01*
X232897Y2349D01*
X232832Y2449D01*
X232770Y2551D01*
X232711Y2655D01*
X232656Y2761D01*
X232605Y2869D01*
X232557Y2978D01*
X232512Y3089D01*
X232472Y3201D01*
X232435Y3315D01*
X232402Y3430D01*
X232372Y3545D01*
X232347Y3662D01*
X232325Y3779D01*
X232308Y3898D01*
X232294Y4016D01*
X232284Y4135D01*
X232278Y4255D01*
X232276Y4374D01*
X246343Y762D02*
X246343Y11599D01*
X250859Y11599D01*
X250963Y11597D01*
X251066Y11591D01*
X251170Y11581D01*
X251273Y11567D01*
X251375Y11549D01*
X251476Y11528D01*
X251577Y11502D01*
X251676Y11473D01*
X251775Y11440D01*
X251872Y11403D01*
X251967Y11362D01*
X252061Y11318D01*
X252153Y11270D01*
X252243Y11219D01*
X252332Y11164D01*
X252418Y11106D01*
X252501Y11044D01*
X252583Y10980D01*
X252661Y10912D01*
X252737Y10842D01*
X252811Y10769D01*
X252881Y10692D01*
X252949Y10614D01*
X253013Y10532D01*
X253075Y10449D01*
X253133Y10363D01*
X253188Y10274D01*
X253239Y10184D01*
X253287Y10092D01*
X253331Y9998D01*
X253372Y9903D01*
X253409Y9806D01*
X253442Y9707D01*
X253471Y9608D01*
X253497Y9507D01*
X253518Y9406D01*
X253536Y9304D01*
X253550Y9201D01*
X253560Y9097D01*
X253566Y8994D01*
X253568Y8890D01*
X253568Y762D01*
X268887Y8890D02*
X268891Y9210D01*
X268902Y9529D01*
X268921Y9849D01*
X268948Y10167D01*
X268982Y10485D01*
X269024Y10802D01*
X269074Y11118D01*
X269131Y11433D01*
X269195Y11746D01*
X269267Y12058D01*
X269346Y12368D01*
X269433Y12675D01*
X269527Y12981D01*
X269628Y13284D01*
X269737Y13585D01*
X269852Y13883D01*
X269975Y14179D01*
X270105Y14471D01*
X270242Y14760D01*
X270241Y14761D02*
X270280Y14869D01*
X270323Y14976D01*
X270369Y15081D01*
X270420Y15185D01*
X270473Y15287D01*
X270530Y15387D01*
X270591Y15485D01*
X270655Y15580D01*
X270722Y15674D01*
X270793Y15765D01*
X270866Y15854D01*
X270943Y15940D01*
X271022Y16023D01*
X271104Y16104D01*
X271189Y16182D01*
X271277Y16256D01*
X271367Y16328D01*
X271459Y16396D01*
X271554Y16462D01*
X271651Y16524D01*
X271750Y16582D01*
X271852Y16638D01*
X271954Y16689D01*
X272059Y16737D01*
X272165Y16782D01*
X272273Y16823D01*
X272382Y16860D01*
X272492Y16893D01*
X272604Y16922D01*
X272716Y16948D01*
X272829Y16970D01*
X272943Y16987D01*
X273057Y17001D01*
X273172Y17011D01*
X273287Y17017D01*
X273402Y17019D01*
X273402Y17018D02*
X273517Y17016D01*
X273632Y17010D01*
X273747Y17000D01*
X273861Y16986D01*
X273975Y16969D01*
X274088Y16947D01*
X274200Y16921D01*
X274312Y16892D01*
X274422Y16859D01*
X274531Y16822D01*
X274639Y16781D01*
X274745Y16736D01*
X274850Y16688D01*
X274952Y16637D01*
X275053Y16581D01*
X275153Y16523D01*
X275250Y16461D01*
X275344Y16396D01*
X275437Y16327D01*
X275527Y16255D01*
X275615Y16181D01*
X275700Y16103D01*
X275782Y16022D01*
X275861Y15939D01*
X275938Y15853D01*
X276011Y15764D01*
X276082Y15673D01*
X276149Y15579D01*
X276213Y15484D01*
X276274Y15386D01*
X276331Y15286D01*
X276384Y15184D01*
X276435Y15080D01*
X276481Y14975D01*
X276524Y14868D01*
X276563Y14760D01*
X276700Y14471D01*
X276830Y14179D01*
X276953Y13883D01*
X277068Y13585D01*
X277177Y13284D01*
X277278Y12981D01*
X277372Y12675D01*
X277459Y12368D01*
X277538Y12058D01*
X277610Y11746D01*
X277674Y11433D01*
X277731Y11118D01*
X277781Y10802D01*
X277823Y10485D01*
X277857Y10167D01*
X277884Y9849D01*
X277903Y9529D01*
X277914Y9210D01*
X277918Y8890D01*
X268887Y8890D02*
X268891Y8570D01*
X268902Y8251D01*
X268921Y7931D01*
X268948Y7613D01*
X268982Y7295D01*
X269024Y6978D01*
X269074Y6662D01*
X269131Y6347D01*
X269195Y6034D01*
X269267Y5722D01*
X269346Y5412D01*
X269433Y5105D01*
X269527Y4799D01*
X269628Y4496D01*
X269737Y4195D01*
X269852Y3897D01*
X269975Y3601D01*
X270105Y3309D01*
X270242Y3020D01*
X270241Y3020D02*
X270280Y2912D01*
X270323Y2805D01*
X270369Y2700D01*
X270420Y2596D01*
X270473Y2494D01*
X270530Y2394D01*
X270591Y2296D01*
X270655Y2201D01*
X270722Y2107D01*
X270793Y2016D01*
X270866Y1927D01*
X270943Y1841D01*
X271022Y1758D01*
X271104Y1677D01*
X271189Y1599D01*
X271277Y1525D01*
X271367Y1453D01*
X271460Y1384D01*
X271554Y1319D01*
X271651Y1257D01*
X271751Y1199D01*
X271852Y1143D01*
X271954Y1092D01*
X272059Y1044D01*
X272165Y999D01*
X272273Y958D01*
X272382Y921D01*
X272492Y888D01*
X272604Y859D01*
X272716Y833D01*
X272829Y811D01*
X272943Y794D01*
X273057Y780D01*
X273172Y770D01*
X273287Y764D01*
X273402Y762D01*
X276563Y3020D02*
X276700Y3309D01*
X276830Y3601D01*
X276953Y3897D01*
X277068Y4195D01*
X277177Y4496D01*
X277278Y4799D01*
X277372Y5105D01*
X277459Y5412D01*
X277538Y5722D01*
X277610Y6034D01*
X277674Y6347D01*
X277731Y6662D01*
X277781Y6978D01*
X277823Y7295D01*
X277857Y7613D01*
X277884Y7931D01*
X277903Y8251D01*
X277914Y8570D01*
X277918Y8890D01*
X276563Y3020D02*
X276524Y2912D01*
X276481Y2805D01*
X276435Y2700D01*
X276384Y2596D01*
X276331Y2494D01*
X276274Y2394D01*
X276213Y2296D01*
X276149Y2201D01*
X276082Y2107D01*
X276011Y2016D01*
X275938Y1927D01*
X275861Y1841D01*
X275782Y1758D01*
X275700Y1677D01*
X275615Y1599D01*
X275527Y1525D01*
X275437Y1453D01*
X275344Y1384D01*
X275250Y1319D01*
X275153Y1257D01*
X275053Y1199D01*
X274952Y1143D01*
X274849Y1092D01*
X274745Y1044D01*
X274639Y999D01*
X274531Y958D01*
X274422Y921D01*
X274312Y888D01*
X274200Y859D01*
X274088Y833D01*
X273975Y811D01*
X273861Y794D01*
X273747Y780D01*
X273632Y770D01*
X273517Y764D01*
X273402Y762D01*
X269790Y4374D02*
X277015Y13406D01*
X283893Y1665D02*
X283893Y762D01*
X283893Y1665D02*
X284796Y1665D01*
X284796Y762D01*
X283893Y762D01*
X290771Y13406D02*
X295286Y17018D01*
X295286Y762D01*
X290771Y762D02*
X299802Y762D01*
X314877Y7084D02*
X325715Y7084D01*
X341311Y762D02*
X341311Y17018D01*
X345827Y17018D01*
X345958Y17016D01*
X346090Y17010D01*
X346221Y17001D01*
X346351Y16987D01*
X346482Y16970D01*
X346611Y16949D01*
X346740Y16925D01*
X346868Y16896D01*
X346996Y16864D01*
X347122Y16828D01*
X347247Y16789D01*
X347372Y16746D01*
X347494Y16699D01*
X347616Y16649D01*
X347736Y16595D01*
X347854Y16538D01*
X347970Y16477D01*
X348085Y16413D01*
X348198Y16346D01*
X348309Y16275D01*
X348417Y16201D01*
X348524Y16124D01*
X348628Y16044D01*
X348730Y15961D01*
X348829Y15876D01*
X348926Y15787D01*
X349020Y15695D01*
X349112Y15601D01*
X349201Y15504D01*
X349286Y15405D01*
X349369Y15303D01*
X349449Y15199D01*
X349526Y15092D01*
X349600Y14984D01*
X349671Y14873D01*
X349738Y14760D01*
X349802Y14645D01*
X349863Y14529D01*
X349920Y14411D01*
X349974Y14291D01*
X350024Y14169D01*
X350071Y14047D01*
X350114Y13922D01*
X350153Y13797D01*
X350189Y13671D01*
X350221Y13543D01*
X350250Y13415D01*
X350274Y13286D01*
X350295Y13157D01*
X350312Y13026D01*
X350326Y12896D01*
X350335Y12765D01*
X350341Y12633D01*
X350343Y12502D01*
X350343Y5278D01*
X350341Y5147D01*
X350335Y5015D01*
X350326Y4884D01*
X350312Y4754D01*
X350295Y4623D01*
X350274Y4494D01*
X350250Y4365D01*
X350221Y4237D01*
X350189Y4109D01*
X350153Y3983D01*
X350114Y3858D01*
X350071Y3733D01*
X350024Y3611D01*
X349974Y3489D01*
X349920Y3369D01*
X349863Y3251D01*
X349802Y3135D01*
X349738Y3020D01*
X349671Y2907D01*
X349600Y2796D01*
X349526Y2688D01*
X349449Y2581D01*
X349369Y2477D01*
X349286Y2375D01*
X349201Y2276D01*
X349112Y2179D01*
X349020Y2085D01*
X348926Y1993D01*
X348829Y1904D01*
X348730Y1819D01*
X348628Y1736D01*
X348524Y1656D01*
X348417Y1579D01*
X348309Y1505D01*
X348198Y1434D01*
X348085Y1367D01*
X347970Y1303D01*
X347854Y1242D01*
X347736Y1185D01*
X347616Y1131D01*
X347494Y1081D01*
X347372Y1034D01*
X347247Y991D01*
X347122Y952D01*
X346996Y916D01*
X346868Y884D01*
X346740Y855D01*
X346611Y831D01*
X346481Y810D01*
X346351Y793D01*
X346221Y779D01*
X346090Y770D01*
X345958Y764D01*
X345827Y762D01*
X341311Y762D01*
X360412Y7084D02*
X364476Y7084D01*
X360412Y7084D02*
X360300Y7082D01*
X360189Y7076D01*
X360078Y7066D01*
X359967Y7053D01*
X359857Y7035D01*
X359748Y7013D01*
X359639Y6988D01*
X359531Y6959D01*
X359425Y6926D01*
X359319Y6889D01*
X359215Y6849D01*
X359113Y6805D01*
X359012Y6757D01*
X358913Y6706D01*
X358815Y6651D01*
X358720Y6593D01*
X358627Y6532D01*
X358536Y6467D01*
X358447Y6399D01*
X358361Y6328D01*
X358278Y6255D01*
X358197Y6178D01*
X358118Y6098D01*
X358043Y6016D01*
X357971Y5931D01*
X357901Y5844D01*
X357835Y5754D01*
X357772Y5662D01*
X357712Y5567D01*
X357656Y5471D01*
X357603Y5373D01*
X357554Y5273D01*
X357508Y5171D01*
X357466Y5068D01*
X357427Y4963D01*
X357392Y4857D01*
X357361Y4750D01*
X357334Y4642D01*
X357310Y4533D01*
X357291Y4423D01*
X357275Y4313D01*
X357263Y4202D01*
X357255Y4090D01*
X357251Y3979D01*
X357251Y3867D01*
X357255Y3756D01*
X357263Y3644D01*
X357275Y3533D01*
X357291Y3423D01*
X357310Y3313D01*
X357334Y3204D01*
X357361Y3096D01*
X357392Y2989D01*
X357427Y2883D01*
X357466Y2778D01*
X357508Y2675D01*
X357554Y2573D01*
X357603Y2473D01*
X357656Y2375D01*
X357712Y2279D01*
X357772Y2184D01*
X357835Y2092D01*
X357901Y2002D01*
X357971Y1915D01*
X358043Y1830D01*
X358118Y1748D01*
X358197Y1668D01*
X358278Y1591D01*
X358361Y1518D01*
X358447Y1447D01*
X358536Y1379D01*
X358627Y1314D01*
X358720Y1253D01*
X358815Y1195D01*
X358913Y1140D01*
X359012Y1089D01*
X359113Y1041D01*
X359215Y997D01*
X359319Y957D01*
X359425Y920D01*
X359531Y887D01*
X359639Y858D01*
X359748Y833D01*
X359857Y811D01*
X359967Y793D01*
X360078Y780D01*
X360189Y770D01*
X360300Y764D01*
X360412Y762D01*
X364476Y762D01*
X364476Y8890D01*
X364474Y8991D01*
X364468Y9092D01*
X364459Y9193D01*
X364446Y9294D01*
X364429Y9394D01*
X364408Y9493D01*
X364384Y9591D01*
X364356Y9688D01*
X364324Y9785D01*
X364289Y9880D01*
X364250Y9973D01*
X364208Y10065D01*
X364162Y10156D01*
X364113Y10245D01*
X364061Y10331D01*
X364005Y10416D01*
X363947Y10499D01*
X363885Y10579D01*
X363820Y10657D01*
X363753Y10733D01*
X363683Y10806D01*
X363610Y10876D01*
X363534Y10943D01*
X363456Y11008D01*
X363376Y11070D01*
X363293Y11128D01*
X363208Y11184D01*
X363122Y11236D01*
X363033Y11285D01*
X362942Y11331D01*
X362850Y11373D01*
X362757Y11412D01*
X362662Y11447D01*
X362565Y11479D01*
X362468Y11507D01*
X362370Y11531D01*
X362271Y11552D01*
X362171Y11569D01*
X362070Y11582D01*
X361969Y11591D01*
X361868Y11597D01*
X361767Y11599D01*
X358155Y11599D01*
X370096Y11599D02*
X375514Y11599D01*
X371902Y17018D02*
X371902Y3471D01*
X371904Y3370D01*
X371910Y3269D01*
X371919Y3168D01*
X371932Y3067D01*
X371949Y2967D01*
X371970Y2868D01*
X371994Y2770D01*
X372022Y2673D01*
X372054Y2576D01*
X372089Y2481D01*
X372128Y2388D01*
X372170Y2296D01*
X372216Y2205D01*
X372265Y2116D01*
X372317Y2030D01*
X372373Y1945D01*
X372431Y1862D01*
X372493Y1782D01*
X372558Y1704D01*
X372625Y1628D01*
X372695Y1555D01*
X372768Y1485D01*
X372844Y1418D01*
X372922Y1353D01*
X373002Y1291D01*
X373085Y1233D01*
X373170Y1177D01*
X373257Y1125D01*
X373345Y1076D01*
X373436Y1030D01*
X373528Y988D01*
X373621Y949D01*
X373716Y914D01*
X373813Y882D01*
X373910Y854D01*
X374008Y830D01*
X374107Y809D01*
X374207Y792D01*
X374308Y779D01*
X374409Y770D01*
X374510Y764D01*
X374611Y762D01*
X375514Y762D01*
X384002Y762D02*
X388518Y762D01*
X384002Y762D02*
X383901Y764D01*
X383800Y770D01*
X383699Y779D01*
X383598Y792D01*
X383498Y809D01*
X383399Y830D01*
X383301Y854D01*
X383204Y882D01*
X383107Y914D01*
X383012Y949D01*
X382919Y988D01*
X382827Y1030D01*
X382736Y1076D01*
X382648Y1125D01*
X382561Y1177D01*
X382476Y1233D01*
X382393Y1291D01*
X382313Y1353D01*
X382235Y1418D01*
X382159Y1485D01*
X382086Y1555D01*
X382016Y1628D01*
X381949Y1704D01*
X381884Y1782D01*
X381822Y1862D01*
X381764Y1945D01*
X381708Y2030D01*
X381656Y2116D01*
X381607Y2205D01*
X381561Y2296D01*
X381519Y2388D01*
X381480Y2481D01*
X381445Y2576D01*
X381413Y2673D01*
X381385Y2770D01*
X381361Y2868D01*
X381340Y2967D01*
X381323Y3067D01*
X381310Y3168D01*
X381301Y3269D01*
X381295Y3370D01*
X381293Y3471D01*
X381293Y7987D01*
X381295Y8106D01*
X381301Y8226D01*
X381311Y8345D01*
X381325Y8463D01*
X381342Y8582D01*
X381364Y8699D01*
X381389Y8816D01*
X381419Y8931D01*
X381452Y9046D01*
X381489Y9160D01*
X381529Y9272D01*
X381574Y9383D01*
X381622Y9492D01*
X381673Y9600D01*
X381728Y9706D01*
X381787Y9810D01*
X381849Y9912D01*
X381914Y10012D01*
X381983Y10110D01*
X382055Y10206D01*
X382130Y10299D01*
X382207Y10389D01*
X382288Y10477D01*
X382372Y10562D01*
X382459Y10644D01*
X382548Y10724D01*
X382640Y10800D01*
X382734Y10874D01*
X382831Y10944D01*
X382929Y11011D01*
X383030Y11075D01*
X383134Y11135D01*
X383239Y11192D01*
X383346Y11245D01*
X383454Y11295D01*
X383564Y11341D01*
X383676Y11383D01*
X383789Y11422D01*
X383903Y11457D01*
X384018Y11488D01*
X384135Y11516D01*
X384252Y11539D01*
X384369Y11559D01*
X384488Y11575D01*
X384607Y11587D01*
X384726Y11595D01*
X384845Y11599D01*
X384965Y11599D01*
X385084Y11595D01*
X385203Y11587D01*
X385322Y11575D01*
X385441Y11559D01*
X385558Y11539D01*
X385675Y11516D01*
X385792Y11488D01*
X385907Y11457D01*
X386021Y11422D01*
X386134Y11383D01*
X386246Y11341D01*
X386356Y11295D01*
X386464Y11245D01*
X386571Y11192D01*
X386676Y11135D01*
X386780Y11075D01*
X386881Y11011D01*
X386979Y10944D01*
X387076Y10874D01*
X387170Y10800D01*
X387262Y10724D01*
X387351Y10644D01*
X387438Y10562D01*
X387522Y10477D01*
X387603Y10389D01*
X387680Y10299D01*
X387755Y10206D01*
X387827Y10110D01*
X387896Y10012D01*
X387961Y9912D01*
X388023Y9810D01*
X388082Y9706D01*
X388137Y9600D01*
X388188Y9492D01*
X388236Y9383D01*
X388281Y9272D01*
X388321Y9160D01*
X388358Y9046D01*
X388391Y8931D01*
X388421Y8816D01*
X388446Y8699D01*
X388468Y8582D01*
X388485Y8463D01*
X388499Y8345D01*
X388509Y8226D01*
X388515Y8106D01*
X388517Y7987D01*
X388518Y7987D02*
X388518Y6181D01*
X381293Y6181D01*
X403315Y8890D02*
X403319Y9210D01*
X403330Y9529D01*
X403349Y9849D01*
X403376Y10167D01*
X403410Y10485D01*
X403452Y10802D01*
X403502Y11118D01*
X403559Y11433D01*
X403623Y11746D01*
X403695Y12058D01*
X403774Y12368D01*
X403861Y12675D01*
X403955Y12981D01*
X404056Y13284D01*
X404165Y13585D01*
X404280Y13883D01*
X404403Y14179D01*
X404533Y14471D01*
X404670Y14760D01*
X404670Y14761D02*
X404709Y14869D01*
X404752Y14976D01*
X404798Y15081D01*
X404849Y15185D01*
X404902Y15287D01*
X404959Y15387D01*
X405020Y15485D01*
X405084Y15580D01*
X405151Y15674D01*
X405222Y15765D01*
X405295Y15854D01*
X405372Y15940D01*
X405451Y16023D01*
X405533Y16104D01*
X405618Y16182D01*
X405706Y16256D01*
X405796Y16328D01*
X405888Y16396D01*
X405983Y16462D01*
X406080Y16524D01*
X406179Y16582D01*
X406281Y16638D01*
X406383Y16689D01*
X406488Y16737D01*
X406594Y16782D01*
X406702Y16823D01*
X406811Y16860D01*
X406921Y16893D01*
X407033Y16922D01*
X407145Y16948D01*
X407258Y16970D01*
X407372Y16987D01*
X407486Y17001D01*
X407601Y17011D01*
X407716Y17017D01*
X407831Y17019D01*
X407831Y17018D02*
X407946Y17016D01*
X408061Y17010D01*
X408176Y17000D01*
X408290Y16986D01*
X408404Y16969D01*
X408517Y16947D01*
X408629Y16921D01*
X408741Y16892D01*
X408851Y16859D01*
X408960Y16822D01*
X409068Y16781D01*
X409174Y16736D01*
X409279Y16688D01*
X409381Y16637D01*
X409482Y16581D01*
X409582Y16523D01*
X409679Y16461D01*
X409773Y16396D01*
X409866Y16327D01*
X409956Y16255D01*
X410044Y16181D01*
X410129Y16103D01*
X410211Y16022D01*
X410290Y15939D01*
X410367Y15853D01*
X410440Y15764D01*
X410511Y15673D01*
X410578Y15579D01*
X410642Y15484D01*
X410703Y15386D01*
X410760Y15286D01*
X410813Y15184D01*
X410864Y15080D01*
X410910Y14975D01*
X410953Y14868D01*
X410992Y14760D01*
X410991Y14760D02*
X411128Y14471D01*
X411258Y14179D01*
X411381Y13883D01*
X411496Y13585D01*
X411605Y13284D01*
X411706Y12981D01*
X411800Y12675D01*
X411887Y12368D01*
X411966Y12058D01*
X412038Y11746D01*
X412102Y11433D01*
X412159Y11118D01*
X412209Y10802D01*
X412251Y10485D01*
X412285Y10167D01*
X412312Y9849D01*
X412331Y9529D01*
X412342Y9210D01*
X412346Y8890D01*
X403316Y8890D02*
X403320Y8570D01*
X403331Y8251D01*
X403350Y7931D01*
X403377Y7613D01*
X403411Y7295D01*
X403453Y6978D01*
X403503Y6662D01*
X403560Y6347D01*
X403624Y6034D01*
X403696Y5722D01*
X403775Y5412D01*
X403862Y5105D01*
X403956Y4799D01*
X404057Y4496D01*
X404166Y4195D01*
X404281Y3897D01*
X404404Y3601D01*
X404534Y3309D01*
X404671Y3020D01*
X404670Y3020D02*
X404709Y2912D01*
X404752Y2805D01*
X404798Y2700D01*
X404849Y2596D01*
X404902Y2494D01*
X404959Y2394D01*
X405020Y2296D01*
X405084Y2201D01*
X405151Y2107D01*
X405222Y2016D01*
X405295Y1927D01*
X405372Y1841D01*
X405451Y1758D01*
X405533Y1677D01*
X405618Y1599D01*
X405706Y1525D01*
X405796Y1453D01*
X405889Y1384D01*
X405983Y1319D01*
X406080Y1257D01*
X406180Y1199D01*
X406281Y1143D01*
X406383Y1092D01*
X406488Y1044D01*
X406594Y999D01*
X406702Y958D01*
X406811Y921D01*
X406921Y888D01*
X407033Y859D01*
X407145Y833D01*
X407258Y811D01*
X407372Y794D01*
X407486Y780D01*
X407601Y770D01*
X407716Y764D01*
X407831Y762D01*
X410991Y3020D02*
X411128Y3309D01*
X411258Y3601D01*
X411381Y3897D01*
X411496Y4195D01*
X411605Y4496D01*
X411706Y4799D01*
X411800Y5105D01*
X411887Y5412D01*
X411966Y5722D01*
X412038Y6034D01*
X412102Y6347D01*
X412159Y6662D01*
X412209Y6978D01*
X412251Y7295D01*
X412285Y7613D01*
X412312Y7931D01*
X412331Y8251D01*
X412342Y8570D01*
X412346Y8890D01*
X410992Y3020D02*
X410953Y2912D01*
X410910Y2805D01*
X410864Y2700D01*
X410813Y2596D01*
X410760Y2494D01*
X410703Y2394D01*
X410642Y2296D01*
X410578Y2201D01*
X410511Y2107D01*
X410440Y2016D01*
X410367Y1927D01*
X410290Y1841D01*
X410211Y1758D01*
X410129Y1677D01*
X410044Y1599D01*
X409956Y1525D01*
X409866Y1453D01*
X409773Y1384D01*
X409679Y1319D01*
X409582Y1257D01*
X409482Y1199D01*
X409381Y1143D01*
X409278Y1092D01*
X409174Y1044D01*
X409068Y999D01*
X408960Y958D01*
X408851Y921D01*
X408741Y888D01*
X408629Y859D01*
X408517Y833D01*
X408404Y811D01*
X408290Y794D01*
X408176Y780D01*
X408061Y770D01*
X407946Y764D01*
X407831Y762D01*
X404218Y4374D02*
X411443Y13406D01*
X423914Y17018D02*
X424039Y17016D01*
X424164Y17010D01*
X424289Y17001D01*
X424413Y16987D01*
X424537Y16970D01*
X424661Y16949D01*
X424783Y16924D01*
X424905Y16895D01*
X425026Y16863D01*
X425146Y16827D01*
X425265Y16787D01*
X425382Y16744D01*
X425498Y16697D01*
X425613Y16646D01*
X425725Y16592D01*
X425837Y16534D01*
X425946Y16474D01*
X426053Y16409D01*
X426159Y16342D01*
X426262Y16271D01*
X426363Y16197D01*
X426462Y16120D01*
X426558Y16040D01*
X426652Y15957D01*
X426743Y15872D01*
X426832Y15783D01*
X426917Y15692D01*
X427000Y15598D01*
X427080Y15502D01*
X427157Y15403D01*
X427231Y15302D01*
X427302Y15199D01*
X427369Y15093D01*
X427434Y14986D01*
X427494Y14877D01*
X427552Y14765D01*
X427606Y14653D01*
X427657Y14538D01*
X427704Y14422D01*
X427747Y14305D01*
X427787Y14186D01*
X427823Y14066D01*
X427855Y13945D01*
X427884Y13823D01*
X427909Y13701D01*
X427930Y13577D01*
X427947Y13453D01*
X427961Y13329D01*
X427970Y13204D01*
X427976Y13079D01*
X427978Y12954D01*
X423914Y17018D02*
X423771Y17016D01*
X423629Y17010D01*
X423486Y17000D01*
X423344Y16987D01*
X423203Y16969D01*
X423061Y16948D01*
X422921Y16923D01*
X422781Y16894D01*
X422642Y16861D01*
X422504Y16824D01*
X422367Y16784D01*
X422232Y16740D01*
X422097Y16692D01*
X421964Y16640D01*
X421832Y16585D01*
X421702Y16526D01*
X421574Y16464D01*
X421447Y16398D01*
X421322Y16329D01*
X421199Y16257D01*
X421079Y16181D01*
X420960Y16102D01*
X420843Y16019D01*
X420729Y15934D01*
X420617Y15845D01*
X420508Y15754D01*
X420401Y15659D01*
X420296Y15562D01*
X420195Y15461D01*
X420096Y15358D01*
X420000Y15253D01*
X419907Y15144D01*
X419817Y15033D01*
X419730Y14920D01*
X419646Y14805D01*
X419566Y14687D01*
X419488Y14567D01*
X419414Y14445D01*
X419344Y14321D01*
X419276Y14195D01*
X419213Y14067D01*
X419152Y13938D01*
X419095Y13807D01*
X419042Y13675D01*
X418993Y13541D01*
X418947Y13406D01*
X426622Y9793D02*
X426716Y9885D01*
X426806Y9979D01*
X426894Y10076D01*
X426979Y10176D01*
X427061Y10278D01*
X427140Y10383D01*
X427215Y10490D01*
X427287Y10599D01*
X427356Y10710D01*
X427422Y10824D01*
X427484Y10939D01*
X427543Y11056D01*
X427598Y11175D01*
X427649Y11295D01*
X427697Y11417D01*
X427742Y11540D01*
X427782Y11664D01*
X427819Y11790D01*
X427852Y11917D01*
X427881Y12044D01*
X427907Y12173D01*
X427928Y12302D01*
X427946Y12432D01*
X427959Y12562D01*
X427969Y12692D01*
X427975Y12823D01*
X427977Y12954D01*
X426623Y9793D02*
X418947Y762D01*
X427978Y762D01*
X433952Y762D02*
X433952Y1665D01*
X434855Y1665D01*
X434855Y762D01*
X433952Y762D01*
X440830Y8890D02*
X440834Y9210D01*
X440845Y9529D01*
X440864Y9849D01*
X440891Y10167D01*
X440925Y10485D01*
X440967Y10802D01*
X441017Y11118D01*
X441074Y11433D01*
X441138Y11746D01*
X441210Y12058D01*
X441289Y12368D01*
X441376Y12675D01*
X441470Y12981D01*
X441571Y13284D01*
X441680Y13585D01*
X441795Y13883D01*
X441918Y14179D01*
X442048Y14471D01*
X442185Y14760D01*
X442185Y14761D02*
X442224Y14869D01*
X442267Y14976D01*
X442313Y15081D01*
X442364Y15185D01*
X442417Y15287D01*
X442474Y15387D01*
X442535Y15485D01*
X442599Y15580D01*
X442666Y15674D01*
X442737Y15765D01*
X442810Y15854D01*
X442887Y15940D01*
X442966Y16023D01*
X443048Y16104D01*
X443133Y16182D01*
X443221Y16256D01*
X443311Y16328D01*
X443403Y16396D01*
X443498Y16462D01*
X443595Y16524D01*
X443694Y16582D01*
X443796Y16638D01*
X443898Y16689D01*
X444003Y16737D01*
X444109Y16782D01*
X444217Y16823D01*
X444326Y16860D01*
X444436Y16893D01*
X444548Y16922D01*
X444660Y16948D01*
X444773Y16970D01*
X444887Y16987D01*
X445001Y17001D01*
X445116Y17011D01*
X445231Y17017D01*
X445346Y17019D01*
X445346Y17018D02*
X445461Y17016D01*
X445576Y17010D01*
X445691Y17000D01*
X445805Y16986D01*
X445919Y16969D01*
X446032Y16947D01*
X446144Y16921D01*
X446256Y16892D01*
X446366Y16859D01*
X446475Y16822D01*
X446583Y16781D01*
X446689Y16736D01*
X446794Y16688D01*
X446896Y16637D01*
X446997Y16581D01*
X447097Y16523D01*
X447194Y16461D01*
X447288Y16396D01*
X447381Y16327D01*
X447471Y16255D01*
X447559Y16181D01*
X447644Y16103D01*
X447726Y16022D01*
X447805Y15939D01*
X447882Y15853D01*
X447955Y15764D01*
X448026Y15673D01*
X448093Y15579D01*
X448157Y15484D01*
X448218Y15386D01*
X448275Y15286D01*
X448328Y15184D01*
X448379Y15080D01*
X448425Y14975D01*
X448468Y14868D01*
X448507Y14760D01*
X448506Y14760D02*
X448643Y14471D01*
X448773Y14179D01*
X448896Y13883D01*
X449011Y13585D01*
X449120Y13284D01*
X449221Y12981D01*
X449315Y12675D01*
X449402Y12368D01*
X449481Y12058D01*
X449553Y11746D01*
X449617Y11433D01*
X449674Y11118D01*
X449724Y10802D01*
X449766Y10485D01*
X449800Y10167D01*
X449827Y9849D01*
X449846Y9529D01*
X449857Y9210D01*
X449861Y8890D01*
X440831Y8890D02*
X440835Y8570D01*
X440846Y8251D01*
X440865Y7931D01*
X440892Y7613D01*
X440926Y7295D01*
X440968Y6978D01*
X441018Y6662D01*
X441075Y6347D01*
X441139Y6034D01*
X441211Y5722D01*
X441290Y5412D01*
X441377Y5105D01*
X441471Y4799D01*
X441572Y4496D01*
X441681Y4195D01*
X441796Y3897D01*
X441919Y3601D01*
X442049Y3309D01*
X442186Y3020D01*
X442185Y3020D02*
X442224Y2912D01*
X442267Y2805D01*
X442313Y2700D01*
X442364Y2596D01*
X442417Y2494D01*
X442474Y2394D01*
X442535Y2296D01*
X442599Y2201D01*
X442666Y2107D01*
X442737Y2016D01*
X442810Y1927D01*
X442887Y1841D01*
X442966Y1758D01*
X443048Y1677D01*
X443133Y1599D01*
X443221Y1525D01*
X443311Y1453D01*
X443404Y1384D01*
X443498Y1319D01*
X443595Y1257D01*
X443695Y1199D01*
X443796Y1143D01*
X443898Y1092D01*
X444003Y1044D01*
X444109Y999D01*
X444217Y958D01*
X444326Y921D01*
X444436Y888D01*
X444548Y859D01*
X444660Y833D01*
X444773Y811D01*
X444887Y794D01*
X445001Y780D01*
X445116Y770D01*
X445231Y764D01*
X445346Y762D01*
X448506Y3020D02*
X448643Y3309D01*
X448773Y3601D01*
X448896Y3897D01*
X449011Y4195D01*
X449120Y4496D01*
X449221Y4799D01*
X449315Y5105D01*
X449402Y5412D01*
X449481Y5722D01*
X449553Y6034D01*
X449617Y6347D01*
X449674Y6662D01*
X449724Y6978D01*
X449766Y7295D01*
X449800Y7613D01*
X449827Y7931D01*
X449846Y8251D01*
X449857Y8570D01*
X449861Y8890D01*
X448507Y3020D02*
X448468Y2912D01*
X448425Y2805D01*
X448379Y2700D01*
X448328Y2596D01*
X448275Y2494D01*
X448218Y2394D01*
X448157Y2296D01*
X448093Y2201D01*
X448026Y2107D01*
X447955Y2016D01*
X447882Y1927D01*
X447805Y1841D01*
X447726Y1758D01*
X447644Y1677D01*
X447559Y1599D01*
X447471Y1525D01*
X447381Y1453D01*
X447288Y1384D01*
X447194Y1319D01*
X447097Y1257D01*
X446997Y1199D01*
X446896Y1143D01*
X446793Y1092D01*
X446689Y1044D01*
X446583Y999D01*
X446475Y958D01*
X446366Y921D01*
X446256Y888D01*
X446144Y859D01*
X446032Y833D01*
X445919Y811D01*
X445805Y794D01*
X445691Y780D01*
X445576Y770D01*
X445461Y764D01*
X445346Y762D01*
X441733Y4374D02*
X448958Y13406D01*
X456461Y15212D02*
X456461Y17018D01*
X465493Y17018D01*
X460977Y762D01*
X471467Y762D02*
X471467Y1665D01*
X472370Y1665D01*
X472370Y762D01*
X471467Y762D01*
X487376Y12954D02*
X487374Y13079D01*
X487368Y13204D01*
X487359Y13329D01*
X487345Y13453D01*
X487328Y13577D01*
X487307Y13701D01*
X487282Y13823D01*
X487253Y13945D01*
X487221Y14066D01*
X487185Y14186D01*
X487145Y14305D01*
X487102Y14422D01*
X487055Y14538D01*
X487004Y14653D01*
X486950Y14765D01*
X486892Y14877D01*
X486832Y14986D01*
X486767Y15093D01*
X486700Y15199D01*
X486629Y15302D01*
X486555Y15403D01*
X486478Y15502D01*
X486398Y15598D01*
X486315Y15692D01*
X486230Y15783D01*
X486141Y15872D01*
X486050Y15957D01*
X485956Y16040D01*
X485860Y16120D01*
X485761Y16197D01*
X485660Y16271D01*
X485557Y16342D01*
X485451Y16409D01*
X485344Y16474D01*
X485235Y16534D01*
X485123Y16592D01*
X485011Y16646D01*
X484896Y16697D01*
X484780Y16744D01*
X484663Y16787D01*
X484544Y16827D01*
X484424Y16863D01*
X484303Y16895D01*
X484181Y16924D01*
X484059Y16949D01*
X483935Y16970D01*
X483811Y16987D01*
X483687Y17001D01*
X483562Y17010D01*
X483437Y17016D01*
X483312Y17018D01*
X483169Y17016D01*
X483027Y17010D01*
X482884Y17000D01*
X482742Y16987D01*
X482601Y16969D01*
X482459Y16948D01*
X482319Y16923D01*
X482179Y16894D01*
X482040Y16861D01*
X481902Y16824D01*
X481765Y16784D01*
X481630Y16740D01*
X481495Y16692D01*
X481362Y16640D01*
X481230Y16585D01*
X481100Y16526D01*
X480972Y16464D01*
X480845Y16398D01*
X480720Y16329D01*
X480597Y16257D01*
X480477Y16181D01*
X480358Y16102D01*
X480241Y16019D01*
X480127Y15934D01*
X480015Y15845D01*
X479906Y15754D01*
X479799Y15659D01*
X479694Y15562D01*
X479593Y15461D01*
X479494Y15358D01*
X479398Y15253D01*
X479305Y15144D01*
X479215Y15033D01*
X479128Y14920D01*
X479044Y14805D01*
X478964Y14687D01*
X478886Y14567D01*
X478812Y14445D01*
X478742Y14321D01*
X478674Y14195D01*
X478611Y14067D01*
X478550Y13938D01*
X478493Y13807D01*
X478440Y13675D01*
X478391Y13541D01*
X478345Y13406D01*
X486021Y9793D02*
X486115Y9885D01*
X486205Y9979D01*
X486293Y10076D01*
X486378Y10176D01*
X486460Y10278D01*
X486539Y10383D01*
X486614Y10490D01*
X486686Y10599D01*
X486755Y10710D01*
X486821Y10824D01*
X486883Y10939D01*
X486942Y11056D01*
X486997Y11175D01*
X487048Y11295D01*
X487096Y11417D01*
X487141Y11540D01*
X487181Y11664D01*
X487218Y11790D01*
X487251Y11917D01*
X487280Y12044D01*
X487306Y12173D01*
X487327Y12302D01*
X487345Y12432D01*
X487358Y12562D01*
X487368Y12692D01*
X487374Y12823D01*
X487376Y12954D01*
X486022Y9793D02*
X478345Y762D01*
X487376Y762D01*
X493976Y8890D02*
X493980Y9210D01*
X493991Y9529D01*
X494010Y9849D01*
X494037Y10167D01*
X494071Y10485D01*
X494113Y10802D01*
X494163Y11118D01*
X494220Y11433D01*
X494284Y11746D01*
X494356Y12058D01*
X494435Y12368D01*
X494522Y12675D01*
X494616Y12981D01*
X494717Y13284D01*
X494826Y13585D01*
X494941Y13883D01*
X495064Y14179D01*
X495194Y14471D01*
X495331Y14760D01*
X495331Y14761D02*
X495370Y14869D01*
X495413Y14976D01*
X495459Y15081D01*
X495510Y15185D01*
X495563Y15287D01*
X495620Y15387D01*
X495681Y15485D01*
X495745Y15580D01*
X495812Y15674D01*
X495883Y15765D01*
X495956Y15854D01*
X496033Y15940D01*
X496112Y16023D01*
X496194Y16104D01*
X496279Y16182D01*
X496367Y16256D01*
X496457Y16328D01*
X496549Y16396D01*
X496644Y16462D01*
X496741Y16524D01*
X496840Y16582D01*
X496942Y16638D01*
X497044Y16689D01*
X497149Y16737D01*
X497255Y16782D01*
X497363Y16823D01*
X497472Y16860D01*
X497582Y16893D01*
X497694Y16922D01*
X497806Y16948D01*
X497919Y16970D01*
X498033Y16987D01*
X498147Y17001D01*
X498262Y17011D01*
X498377Y17017D01*
X498492Y17019D01*
X498492Y17018D02*
X498607Y17016D01*
X498722Y17010D01*
X498837Y17000D01*
X498951Y16986D01*
X499065Y16969D01*
X499178Y16947D01*
X499290Y16921D01*
X499402Y16892D01*
X499512Y16859D01*
X499621Y16822D01*
X499729Y16781D01*
X499835Y16736D01*
X499940Y16688D01*
X500042Y16637D01*
X500143Y16581D01*
X500243Y16523D01*
X500340Y16461D01*
X500434Y16396D01*
X500527Y16327D01*
X500617Y16255D01*
X500705Y16181D01*
X500790Y16103D01*
X500872Y16022D01*
X500951Y15939D01*
X501028Y15853D01*
X501101Y15764D01*
X501172Y15673D01*
X501239Y15579D01*
X501303Y15484D01*
X501364Y15386D01*
X501421Y15286D01*
X501474Y15184D01*
X501525Y15080D01*
X501571Y14975D01*
X501614Y14868D01*
X501653Y14760D01*
X501652Y14760D02*
X501789Y14471D01*
X501919Y14179D01*
X502042Y13883D01*
X502157Y13585D01*
X502266Y13284D01*
X502367Y12981D01*
X502461Y12675D01*
X502548Y12368D01*
X502627Y12058D01*
X502699Y11746D01*
X502763Y11433D01*
X502820Y11118D01*
X502870Y10802D01*
X502912Y10485D01*
X502946Y10167D01*
X502973Y9849D01*
X502992Y9529D01*
X503003Y9210D01*
X503007Y8890D01*
X493977Y8890D02*
X493981Y8570D01*
X493992Y8251D01*
X494011Y7931D01*
X494038Y7613D01*
X494072Y7295D01*
X494114Y6978D01*
X494164Y6662D01*
X494221Y6347D01*
X494285Y6034D01*
X494357Y5722D01*
X494436Y5412D01*
X494523Y5105D01*
X494617Y4799D01*
X494718Y4496D01*
X494827Y4195D01*
X494942Y3897D01*
X495065Y3601D01*
X495195Y3309D01*
X495332Y3020D01*
X495331Y3020D02*
X495370Y2912D01*
X495413Y2805D01*
X495459Y2700D01*
X495510Y2596D01*
X495563Y2494D01*
X495620Y2394D01*
X495681Y2296D01*
X495745Y2201D01*
X495812Y2107D01*
X495883Y2016D01*
X495956Y1927D01*
X496033Y1841D01*
X496112Y1758D01*
X496194Y1677D01*
X496279Y1599D01*
X496367Y1525D01*
X496457Y1453D01*
X496550Y1384D01*
X496644Y1319D01*
X496741Y1257D01*
X496841Y1199D01*
X496942Y1143D01*
X497044Y1092D01*
X497149Y1044D01*
X497255Y999D01*
X497363Y958D01*
X497472Y921D01*
X497582Y888D01*
X497694Y859D01*
X497806Y833D01*
X497919Y811D01*
X498033Y794D01*
X498147Y780D01*
X498262Y770D01*
X498377Y764D01*
X498492Y762D01*
X501652Y3020D02*
X501789Y3309D01*
X501919Y3601D01*
X502042Y3897D01*
X502157Y4195D01*
X502266Y4496D01*
X502367Y4799D01*
X502461Y5105D01*
X502548Y5412D01*
X502627Y5722D01*
X502699Y6034D01*
X502763Y6347D01*
X502820Y6662D01*
X502870Y6978D01*
X502912Y7295D01*
X502946Y7613D01*
X502973Y7931D01*
X502992Y8251D01*
X503003Y8570D01*
X503007Y8890D01*
X501653Y3020D02*
X501614Y2912D01*
X501571Y2805D01*
X501525Y2700D01*
X501474Y2596D01*
X501421Y2494D01*
X501364Y2394D01*
X501303Y2296D01*
X501239Y2201D01*
X501172Y2107D01*
X501101Y2016D01*
X501028Y1927D01*
X500951Y1841D01*
X500872Y1758D01*
X500790Y1677D01*
X500705Y1599D01*
X500617Y1525D01*
X500527Y1453D01*
X500434Y1384D01*
X500340Y1319D01*
X500243Y1257D01*
X500143Y1199D01*
X500042Y1143D01*
X499939Y1092D01*
X499835Y1044D01*
X499729Y999D01*
X499621Y958D01*
X499512Y921D01*
X499402Y888D01*
X499290Y859D01*
X499178Y833D01*
X499065Y811D01*
X498951Y794D01*
X498837Y780D01*
X498722Y770D01*
X498607Y764D01*
X498492Y762D01*
X494879Y4374D02*
X502104Y13406D01*
X514575Y17018D02*
X514700Y17016D01*
X514825Y17010D01*
X514950Y17001D01*
X515074Y16987D01*
X515198Y16970D01*
X515322Y16949D01*
X515444Y16924D01*
X515566Y16895D01*
X515687Y16863D01*
X515807Y16827D01*
X515926Y16787D01*
X516043Y16744D01*
X516159Y16697D01*
X516274Y16646D01*
X516386Y16592D01*
X516498Y16534D01*
X516607Y16474D01*
X516714Y16409D01*
X516820Y16342D01*
X516923Y16271D01*
X517024Y16197D01*
X517123Y16120D01*
X517219Y16040D01*
X517313Y15957D01*
X517404Y15872D01*
X517493Y15783D01*
X517578Y15692D01*
X517661Y15598D01*
X517741Y15502D01*
X517818Y15403D01*
X517892Y15302D01*
X517963Y15199D01*
X518030Y15093D01*
X518095Y14986D01*
X518155Y14877D01*
X518213Y14765D01*
X518267Y14653D01*
X518318Y14538D01*
X518365Y14422D01*
X518408Y14305D01*
X518448Y14186D01*
X518484Y14066D01*
X518516Y13945D01*
X518545Y13823D01*
X518570Y13701D01*
X518591Y13577D01*
X518608Y13453D01*
X518622Y13329D01*
X518631Y13204D01*
X518637Y13079D01*
X518639Y12954D01*
X514575Y17018D02*
X514432Y17016D01*
X514290Y17010D01*
X514147Y17000D01*
X514005Y16987D01*
X513864Y16969D01*
X513722Y16948D01*
X513582Y16923D01*
X513442Y16894D01*
X513303Y16861D01*
X513165Y16824D01*
X513028Y16784D01*
X512893Y16740D01*
X512758Y16692D01*
X512625Y16640D01*
X512493Y16585D01*
X512363Y16526D01*
X512235Y16464D01*
X512108Y16398D01*
X511983Y16329D01*
X511860Y16257D01*
X511740Y16181D01*
X511621Y16102D01*
X511504Y16019D01*
X511390Y15934D01*
X511278Y15845D01*
X511169Y15754D01*
X511062Y15659D01*
X510957Y15562D01*
X510856Y15461D01*
X510757Y15358D01*
X510661Y15253D01*
X510568Y15144D01*
X510478Y15033D01*
X510391Y14920D01*
X510307Y14805D01*
X510227Y14687D01*
X510149Y14567D01*
X510075Y14445D01*
X510005Y14321D01*
X509937Y14195D01*
X509874Y14067D01*
X509813Y13938D01*
X509756Y13807D01*
X509703Y13675D01*
X509654Y13541D01*
X509608Y13406D01*
X517283Y9793D02*
X517377Y9885D01*
X517467Y9979D01*
X517555Y10076D01*
X517640Y10176D01*
X517722Y10278D01*
X517801Y10383D01*
X517876Y10490D01*
X517948Y10599D01*
X518017Y10710D01*
X518083Y10824D01*
X518145Y10939D01*
X518204Y11056D01*
X518259Y11175D01*
X518310Y11295D01*
X518358Y11417D01*
X518403Y11540D01*
X518443Y11664D01*
X518480Y11790D01*
X518513Y11917D01*
X518542Y12044D01*
X518568Y12173D01*
X518589Y12302D01*
X518607Y12432D01*
X518620Y12562D01*
X518630Y12692D01*
X518636Y12823D01*
X518638Y12954D01*
X517284Y9793D02*
X509608Y762D01*
X518639Y762D01*
X525239Y8890D02*
X525243Y9210D01*
X525254Y9529D01*
X525273Y9849D01*
X525300Y10167D01*
X525334Y10485D01*
X525376Y10802D01*
X525426Y11118D01*
X525483Y11433D01*
X525547Y11746D01*
X525619Y12058D01*
X525698Y12368D01*
X525785Y12675D01*
X525879Y12981D01*
X525980Y13284D01*
X526089Y13585D01*
X526204Y13883D01*
X526327Y14179D01*
X526457Y14471D01*
X526594Y14760D01*
X526593Y14761D02*
X526632Y14869D01*
X526675Y14976D01*
X526721Y15081D01*
X526772Y15185D01*
X526825Y15287D01*
X526882Y15387D01*
X526943Y15485D01*
X527007Y15580D01*
X527074Y15674D01*
X527145Y15765D01*
X527218Y15854D01*
X527295Y15940D01*
X527374Y16023D01*
X527456Y16104D01*
X527541Y16182D01*
X527629Y16256D01*
X527719Y16328D01*
X527811Y16396D01*
X527906Y16462D01*
X528003Y16524D01*
X528102Y16582D01*
X528204Y16638D01*
X528306Y16689D01*
X528411Y16737D01*
X528517Y16782D01*
X528625Y16823D01*
X528734Y16860D01*
X528844Y16893D01*
X528956Y16922D01*
X529068Y16948D01*
X529181Y16970D01*
X529295Y16987D01*
X529409Y17001D01*
X529524Y17011D01*
X529639Y17017D01*
X529754Y17019D01*
X529754Y17018D02*
X529869Y17016D01*
X529984Y17010D01*
X530099Y17000D01*
X530213Y16986D01*
X530327Y16969D01*
X530440Y16947D01*
X530552Y16921D01*
X530664Y16892D01*
X530774Y16859D01*
X530883Y16822D01*
X530991Y16781D01*
X531097Y16736D01*
X531202Y16688D01*
X531304Y16637D01*
X531405Y16581D01*
X531505Y16523D01*
X531602Y16461D01*
X531696Y16396D01*
X531789Y16327D01*
X531879Y16255D01*
X531967Y16181D01*
X532052Y16103D01*
X532134Y16022D01*
X532213Y15939D01*
X532290Y15853D01*
X532363Y15764D01*
X532434Y15673D01*
X532501Y15579D01*
X532565Y15484D01*
X532626Y15386D01*
X532683Y15286D01*
X532736Y15184D01*
X532787Y15080D01*
X532833Y14975D01*
X532876Y14868D01*
X532915Y14760D01*
X533052Y14471D01*
X533182Y14179D01*
X533305Y13883D01*
X533420Y13585D01*
X533529Y13284D01*
X533630Y12981D01*
X533724Y12675D01*
X533811Y12368D01*
X533890Y12058D01*
X533962Y11746D01*
X534026Y11433D01*
X534083Y11118D01*
X534133Y10802D01*
X534175Y10485D01*
X534209Y10167D01*
X534236Y9849D01*
X534255Y9529D01*
X534266Y9210D01*
X534270Y8890D01*
X525239Y8890D02*
X525243Y8570D01*
X525254Y8251D01*
X525273Y7931D01*
X525300Y7613D01*
X525334Y7295D01*
X525376Y6978D01*
X525426Y6662D01*
X525483Y6347D01*
X525547Y6034D01*
X525619Y5722D01*
X525698Y5412D01*
X525785Y5105D01*
X525879Y4799D01*
X525980Y4496D01*
X526089Y4195D01*
X526204Y3897D01*
X526327Y3601D01*
X526457Y3309D01*
X526594Y3020D01*
X526593Y3020D02*
X526632Y2912D01*
X526675Y2805D01*
X526721Y2700D01*
X526772Y2596D01*
X526825Y2494D01*
X526882Y2394D01*
X526943Y2296D01*
X527007Y2201D01*
X527074Y2107D01*
X527145Y2016D01*
X527218Y1927D01*
X527295Y1841D01*
X527374Y1758D01*
X527456Y1677D01*
X527541Y1599D01*
X527629Y1525D01*
X527719Y1453D01*
X527812Y1384D01*
X527906Y1319D01*
X528003Y1257D01*
X528103Y1199D01*
X528204Y1143D01*
X528306Y1092D01*
X528411Y1044D01*
X528517Y999D01*
X528625Y958D01*
X528734Y921D01*
X528844Y888D01*
X528956Y859D01*
X529068Y833D01*
X529181Y811D01*
X529295Y794D01*
X529409Y780D01*
X529524Y770D01*
X529639Y764D01*
X529754Y762D01*
X532914Y3020D02*
X533051Y3309D01*
X533181Y3601D01*
X533304Y3897D01*
X533419Y4195D01*
X533528Y4496D01*
X533629Y4799D01*
X533723Y5105D01*
X533810Y5412D01*
X533889Y5722D01*
X533961Y6034D01*
X534025Y6347D01*
X534082Y6662D01*
X534132Y6978D01*
X534174Y7295D01*
X534208Y7613D01*
X534235Y7931D01*
X534254Y8251D01*
X534265Y8570D01*
X534269Y8890D01*
X532915Y3020D02*
X532876Y2912D01*
X532833Y2805D01*
X532787Y2700D01*
X532736Y2596D01*
X532683Y2494D01*
X532626Y2394D01*
X532565Y2296D01*
X532501Y2201D01*
X532434Y2107D01*
X532363Y2016D01*
X532290Y1927D01*
X532213Y1841D01*
X532134Y1758D01*
X532052Y1677D01*
X531967Y1599D01*
X531879Y1525D01*
X531789Y1453D01*
X531696Y1384D01*
X531602Y1319D01*
X531505Y1257D01*
X531405Y1199D01*
X531304Y1143D01*
X531201Y1092D01*
X531097Y1044D01*
X530991Y999D01*
X530883Y958D01*
X530774Y921D01*
X530664Y888D01*
X530552Y859D01*
X530440Y833D01*
X530327Y811D01*
X530213Y794D01*
X530099Y780D01*
X529984Y770D01*
X529869Y764D01*
X529754Y762D01*
X526142Y4374D02*
X533367Y13406D01*
M02*
