%MOMM*%
%FSLAX33Y33*%
%IPPOS*%
%AMOC8*
5,1,8,0,0,((1.08239)X($1))X(25.4),22.5*%
%AMOC8_1*
5,1,8,0,0,((1.08239)X($1))X(25.4),22.5*%
%ADD10C,0*%
%ADD11C,0.127*%
%ADD12C,0*%
%ADD13C,0*%
%ADD14C,0*%
%ADD15C,0*%
%ADD16C,0*%
%ADD17C,0*%
G75*
%LPD*%
D11*
X27355Y28885D02*
X44775Y28885D01*
X44836Y28886D01*
X44898Y28888D01*
X44959Y28891D01*
X45020Y28897D01*
X45081Y28903D01*
X45142Y28912D01*
X45203Y28921D01*
X45263Y28932D01*
X45323Y28945D01*
X45383Y28959D01*
X45442Y28974D01*
X45501Y28991D01*
X45560Y29009D01*
X45618Y29029D01*
X45676Y29050D01*
X45733Y29072D01*
X45789Y29096D01*
X45845Y29121D01*
X45901Y29148D01*
X45955Y29176D01*
X46009Y29205D01*
X46063Y29235D01*
X46115Y29267D01*
X46167Y29300D01*
X46218Y29334D01*
X46268Y29370D01*
X46317Y29407D01*
X46365Y29444D01*
X46413Y29484D01*
X46459Y29524D01*
X46505Y29565D01*
X46549Y29607D01*
X46592Y29651D01*
X46635Y29695D01*
X46676Y29741D01*
X46716Y29787D01*
X46755Y29834D01*
X46793Y29883D01*
X46830Y29932D01*
X46865Y29982D01*
X46900Y30033D01*
X46933Y30085D01*
X46964Y30137D01*
X46995Y30190D01*
X47024Y30245D01*
X47052Y30299D01*
X47078Y30355D01*
X47104Y30410D01*
X47127Y30467D01*
X47150Y30524D01*
X47171Y30582D01*
X47191Y30640D01*
X47209Y30699D01*
X47226Y30758D01*
X47241Y30817D01*
X47255Y30877D01*
X47268Y30937D01*
X47279Y30997D01*
X47288Y31058D01*
X47296Y31119D01*
X47303Y31180D01*
X47308Y31241D01*
X47312Y31302D01*
X47314Y31363D01*
X47315Y31425D01*
X47315Y40805D01*
X47314Y40867D01*
X47312Y40928D01*
X47308Y40989D01*
X47303Y41050D01*
X47296Y41111D01*
X47288Y41172D01*
X47279Y41233D01*
X47268Y41293D01*
X47255Y41353D01*
X47241Y41413D01*
X47226Y41472D01*
X47209Y41531D01*
X47191Y41590D01*
X47171Y41648D01*
X47150Y41706D01*
X47127Y41763D01*
X47104Y41820D01*
X47078Y41875D01*
X47052Y41931D01*
X47024Y41985D01*
X46995Y42040D01*
X46964Y42093D01*
X46933Y42145D01*
X46900Y42197D01*
X46865Y42248D01*
X46830Y42298D01*
X46793Y42347D01*
X46755Y42396D01*
X46716Y42443D01*
X46676Y42489D01*
X46635Y42535D01*
X46592Y42579D01*
X46549Y42623D01*
X46505Y42665D01*
X46459Y42706D01*
X46413Y42746D01*
X46365Y42786D01*
X46317Y42823D01*
X46268Y42860D01*
X46218Y42896D01*
X46167Y42930D01*
X46115Y42963D01*
X46063Y42995D01*
X46009Y43025D01*
X45955Y43054D01*
X45901Y43082D01*
X45845Y43109D01*
X45789Y43134D01*
X45733Y43158D01*
X45676Y43180D01*
X45618Y43201D01*
X45560Y43221D01*
X45501Y43239D01*
X45442Y43256D01*
X45383Y43271D01*
X45323Y43285D01*
X45263Y43298D01*
X45203Y43309D01*
X45142Y43318D01*
X45081Y43327D01*
X45020Y43333D01*
X44959Y43339D01*
X44898Y43342D01*
X44836Y43344D01*
X44775Y43345D01*
X27355Y43345D01*
X27294Y43344D01*
X27232Y43342D01*
X27171Y43339D01*
X27110Y43333D01*
X27049Y43327D01*
X26988Y43318D01*
X26927Y43309D01*
X26867Y43298D01*
X26807Y43285D01*
X26747Y43271D01*
X26688Y43256D01*
X26629Y43239D01*
X26570Y43221D01*
X26512Y43201D01*
X26454Y43180D01*
X26397Y43158D01*
X26341Y43134D01*
X26285Y43109D01*
X26229Y43082D01*
X26175Y43054D01*
X26121Y43025D01*
X26067Y42995D01*
X26015Y42963D01*
X25963Y42930D01*
X25912Y42896D01*
X25862Y42860D01*
X25813Y42823D01*
X25764Y42786D01*
X25717Y42746D01*
X25671Y42706D01*
X25625Y42665D01*
X25581Y42623D01*
X25537Y42579D01*
X25495Y42535D01*
X25454Y42489D01*
X25414Y42443D01*
X25375Y42396D01*
X25337Y42347D01*
X25300Y42298D01*
X25265Y42248D01*
X25230Y42197D01*
X25197Y42145D01*
X25166Y42093D01*
X25135Y42040D01*
X25106Y41985D01*
X25078Y41931D01*
X25052Y41875D01*
X25026Y41820D01*
X25002Y41763D01*
X24980Y41706D01*
X24959Y41648D01*
X24939Y41590D01*
X24921Y41531D01*
X24904Y41472D01*
X24889Y41413D01*
X24875Y41353D01*
X24862Y41293D01*
X24851Y41233D01*
X24842Y41172D01*
X24834Y41111D01*
X24827Y41050D01*
X24822Y40989D01*
X24818Y40928D01*
X24816Y40867D01*
X24815Y40805D01*
X24815Y31425D01*
X24816Y31363D01*
X24818Y31302D01*
X24822Y31241D01*
X24827Y31180D01*
X24834Y31119D01*
X24842Y31058D01*
X24851Y30997D01*
X24862Y30937D01*
X24875Y30877D01*
X24889Y30817D01*
X24904Y30758D01*
X24921Y30699D01*
X24939Y30640D01*
X24959Y30582D01*
X24980Y30524D01*
X25002Y30467D01*
X25026Y30410D01*
X25052Y30355D01*
X25078Y30299D01*
X25106Y30245D01*
X25135Y30190D01*
X25166Y30137D01*
X25197Y30085D01*
X25230Y30033D01*
X25265Y29982D01*
X25300Y29932D01*
X25337Y29883D01*
X25375Y29834D01*
X25414Y29787D01*
X25454Y29741D01*
X25495Y29695D01*
X25537Y29651D01*
X25581Y29607D01*
X25625Y29565D01*
X25671Y29524D01*
X25717Y29484D01*
X25764Y29444D01*
X25813Y29407D01*
X25862Y29370D01*
X25912Y29334D01*
X25963Y29300D01*
X26015Y29267D01*
X26067Y29235D01*
X26121Y29205D01*
X26175Y29176D01*
X26229Y29148D01*
X26285Y29121D01*
X26341Y29096D01*
X26397Y29072D01*
X26454Y29050D01*
X26512Y29029D01*
X26570Y29009D01*
X26629Y28991D01*
X26688Y28974D01*
X26747Y28959D01*
X26807Y28945D01*
X26867Y28932D01*
X26927Y28921D01*
X26988Y28912D01*
X27049Y28903D01*
X27110Y28897D01*
X27171Y28891D01*
X27232Y28888D01*
X27294Y28886D01*
X27355Y28885D01*
D12*
X9195Y53895D02*
X9196Y53911D01*
X9197Y53927D01*
X9200Y53942D01*
X9203Y53958D01*
X9208Y53973D01*
X9213Y53988D01*
X9219Y54002D01*
X9227Y54016D01*
X9235Y54030D01*
X9244Y54043D01*
X9253Y54056D01*
X9264Y54067D01*
X9275Y54079D01*
X9288Y54089D01*
X9300Y54099D01*
X9313Y54107D01*
X9327Y54115D01*
X9341Y54122D01*
X9356Y54128D01*
X9371Y54134D01*
X9386Y54138D01*
X9402Y54141D01*
X9417Y54143D01*
X9433Y54145D01*
X9449Y54145D01*
X9465Y54144D01*
X9481Y54142D01*
X9496Y54140D01*
X9512Y54136D01*
X9527Y54131D01*
X9542Y54126D01*
X9556Y54119D01*
X9570Y54111D01*
X9583Y54103D01*
X9596Y54094D01*
X9609Y54084D01*
X9620Y54073D01*
X9631Y54062D01*
X9641Y54049D01*
X9651Y54037D01*
X9659Y54023D01*
X9667Y54010D01*
X9674Y53995D01*
X9680Y53981D01*
X9685Y53965D01*
X9689Y53950D01*
X9692Y53934D01*
X9694Y53919D01*
X9695Y53903D01*
X9695Y53887D01*
X9694Y53871D01*
X9692Y53856D01*
X9689Y53840D01*
X9685Y53825D01*
X9680Y53809D01*
X9674Y53795D01*
X9667Y53780D01*
X9659Y53767D01*
X9651Y53753D01*
X9641Y53741D01*
X9631Y53728D01*
X9620Y53717D01*
X9609Y53706D01*
X9596Y53696D01*
X9583Y53687D01*
X9570Y53679D01*
X9556Y53671D01*
X9542Y53664D01*
X9527Y53659D01*
X9512Y53654D01*
X9496Y53650D01*
X9481Y53648D01*
X9465Y53646D01*
X9449Y53645D01*
X9433Y53645D01*
X9417Y53647D01*
X9402Y53649D01*
X9386Y53652D01*
X9371Y53656D01*
X9356Y53662D01*
X9341Y53668D01*
X9327Y53675D01*
X9313Y53683D01*
X9300Y53691D01*
X9288Y53701D01*
X9275Y53711D01*
X9264Y53723D01*
X9253Y53734D01*
X9244Y53747D01*
X9235Y53760D01*
X9227Y53774D01*
X9219Y53788D01*
X9213Y53802D01*
X9208Y53817D01*
X9203Y53832D01*
X9200Y53848D01*
X9197Y53863D01*
X9196Y53879D01*
X9195Y53895D01*
X62535Y18335D02*
X62536Y18351D01*
X62537Y18367D01*
X62540Y18382D01*
X62543Y18398D01*
X62548Y18413D01*
X62553Y18428D01*
X62559Y18442D01*
X62567Y18456D01*
X62575Y18470D01*
X62584Y18483D01*
X62593Y18496D01*
X62604Y18507D01*
X62615Y18519D01*
X62628Y18529D01*
X62640Y18539D01*
X62653Y18547D01*
X62667Y18555D01*
X62681Y18562D01*
X62696Y18568D01*
X62711Y18574D01*
X62726Y18578D01*
X62742Y18581D01*
X62757Y18583D01*
X62773Y18585D01*
X62789Y18585D01*
X62805Y18584D01*
X62821Y18582D01*
X62836Y18580D01*
X62852Y18576D01*
X62867Y18571D01*
X62882Y18566D01*
X62896Y18559D01*
X62910Y18551D01*
X62923Y18543D01*
X62936Y18534D01*
X62949Y18524D01*
X62960Y18513D01*
X62971Y18502D01*
X62981Y18489D01*
X62991Y18477D01*
X62999Y18463D01*
X63007Y18450D01*
X63014Y18435D01*
X63020Y18421D01*
X63025Y18405D01*
X63029Y18390D01*
X63032Y18374D01*
X63034Y18359D01*
X63035Y18343D01*
X63035Y18327D01*
X63034Y18311D01*
X63032Y18296D01*
X63029Y18280D01*
X63025Y18265D01*
X63020Y18249D01*
X63014Y18235D01*
X63007Y18220D01*
X62999Y18207D01*
X62991Y18193D01*
X62981Y18181D01*
X62971Y18168D01*
X62960Y18157D01*
X62949Y18146D01*
X62936Y18136D01*
X62923Y18127D01*
X62910Y18119D01*
X62896Y18111D01*
X62882Y18104D01*
X62867Y18099D01*
X62852Y18094D01*
X62836Y18090D01*
X62821Y18088D01*
X62805Y18086D01*
X62789Y18085D01*
X62773Y18085D01*
X62757Y18087D01*
X62742Y18089D01*
X62726Y18092D01*
X62711Y18096D01*
X62696Y18102D01*
X62681Y18108D01*
X62667Y18115D01*
X62653Y18123D01*
X62640Y18131D01*
X62628Y18141D01*
X62615Y18151D01*
X62604Y18163D01*
X62593Y18174D01*
X62584Y18187D01*
X62575Y18200D01*
X62567Y18214D01*
X62559Y18228D01*
X62553Y18242D01*
X62548Y18257D01*
X62543Y18272D01*
X62540Y18288D01*
X62537Y18303D01*
X62536Y18319D01*
X62535Y18335D01*
G75*
%LPD*%
X67230Y8810D01*
G54D15*
G01X57070Y100285D02*
G01X57045Y100286D01*
G01X57045Y100286D02*
G01X57021Y100287D01*
G01X57021Y100287D02*
G01X56996Y100290D01*
G01X56996Y100290D02*
G01X56972Y100293D01*
G01X56972Y100293D02*
G01X56948Y100298D01*
G01X56948Y100298D02*
G01X56924Y100303D01*
G01X56924Y100303D02*
G01X56900Y100310D01*
G01X56900Y100310D02*
G01X56876Y100317D01*
G01X56876Y100317D02*
G01X56853Y100326D01*
G01X56853Y100326D02*
G01X56830Y100335D01*
G01X56830Y100335D02*
G01X56808Y100345D01*
G01X56808Y100345D02*
G01X56786Y100356D01*
G01X56786Y100356D02*
G01X56765Y100369D01*
G01X56765Y100369D02*
G01X56744Y100382D01*
G01X56744Y100382D02*
G01X56723Y100395D01*
G01X56723Y100395D02*
G01X56703Y100410D01*
G01X56703Y100410D02*
G01X56684Y100426D01*
G01X56684Y100426D02*
G01X56666Y100442D01*
G01X56666Y100442D02*
G01X56648Y100459D01*
G01X56648Y100459D02*
G01X56631Y100476D01*
G01X56631Y100476D02*
G01X56614Y100495D01*
G01X56614Y100495D02*
G01X56599Y100514D01*
G01X56599Y100514D02*
G01X56584Y100533D01*
G01X56584Y100533D02*
G01X56570Y100554D01*
G01X56570Y100554D02*
G01X56557Y100574D01*
G01X56557Y100574D02*
G01X56544Y100596D01*
G01X56544Y100596D02*
G01X56533Y100618D01*
G01X56533Y100618D02*
G01X56522Y100640D01*
G01X56522Y100640D02*
G01X56513Y100662D01*
G01X56513Y100662D02*
G01X56504Y100686D01*
G01X56504Y100686D02*
G01X56496Y100709D01*
G01X56496Y100709D02*
G01X56490Y100733D01*
G01X56490Y100733D02*
G01X56484Y100757D01*
G01X56484Y100757D02*
G01X56479Y100781D01*
G01X56479Y100781D02*
G01X56475Y100805D01*
G01X56475Y100805D02*
G01X56473Y100830D01*
G01X56473Y100830D02*
G01X56471Y100854D01*
G01X56471Y100854D02*
G01X56470Y100879D01*
G01X56470Y100879D02*
G01X56470Y100904D01*
G01X56470Y100904D02*
G01X56472Y100928D01*
G01X56472Y100928D02*
G01X56474Y100953D01*
G01X56474Y100953D02*
G01X56477Y100977D01*
G01X56477Y100977D02*
G01X56481Y101001D01*
G01X56481Y101001D02*
G01X56487Y101025D01*
G01X56487Y101025D02*
G01X56493Y101049D01*
G01X56493Y101049D02*
G01X56500Y101073D01*
G01X56500Y101073D02*
G01X56508Y101096D01*
G01X56508Y101096D02*
G01X56518Y101119D01*
G01X56518Y101119D02*
G01X56527Y101141D01*
G01X56527Y101141D02*
G01X56539Y101163D01*
G01X56539Y101163D02*
G01X56550Y101185D01*
G01X56550Y101185D02*
G01X56563Y101206D01*
G01X56563Y101206D02*
G01X56577Y101227D01*
G01X56577Y101227D02*
G01X56591Y101246D01*
G01X56591Y101246D02*
G01X56606Y101266D01*
G01X56606Y101266D02*
G01X56622Y101285D01*
G01X56622Y101285D02*
G01X56639Y101303D01*
G01X56639Y101303D02*
G01X56657Y101320D01*
G01X56657Y101320D02*
G01X56675Y101337D01*
G01X56675Y101337D02*
G01X56694Y101352D01*
G01X56694Y101352D02*
G01X56713Y101367D01*
G01X56713Y101367D02*
G01X56733Y101382D01*
G01X56733Y101382D02*
G01X56754Y101395D01*
G01X56754Y101395D02*
G01X56775Y101408D01*
G01X56775Y101408D02*
G01X56797Y101419D01*
G01X56797Y101419D02*
G01X56819Y101430D01*
G01X56819Y101430D02*
G01X56842Y101440D01*
G01X56842Y101440D02*
G01X56865Y101449D01*
G01X56865Y101449D02*
G01X56888Y101457D01*
G01X56888Y101457D02*
G01X56912Y101464D01*
G01X56912Y101464D02*
G01X56936Y101470D01*
G01X56936Y101470D02*
G01X56960Y101475D01*
G01X56960Y101475D02*
G01X56984Y101479D01*
G01X56984Y101479D02*
G01X57009Y101482D01*
G01X57009Y101482D02*
G01X57033Y101484D01*
G01X57033Y101484D02*
G01X57058Y101485D01*
G01X57058Y101485D02*
G01X57082Y101485D01*
G01X57082Y101485D02*
G01X57107Y101484D01*
G01X57107Y101484D02*
G01X57131Y101482D01*
G01X57131Y101482D02*
G01X57156Y101479D01*
G01X57156Y101479D02*
G01X57180Y101475D01*
G01X57180Y101475D02*
G01X57204Y101470D01*
G01X57204Y101470D02*
G01X57228Y101464D01*
G01X57228Y101464D02*
G01X57252Y101457D01*
G01X57252Y101457D02*
G01X57275Y101449D01*
G01X57275Y101449D02*
G01X57298Y101440D01*
G01X57298Y101440D02*
G01X57321Y101430D01*
G01X57321Y101430D02*
G01X57343Y101419D01*
G01X57343Y101419D02*
G01X57365Y101408D01*
G01X57365Y101408D02*
G01X57386Y101395D01*
G01X57386Y101395D02*
G01X57407Y101382D01*
G01X57407Y101382D02*
G01X57427Y101367D01*
G01X57427Y101367D02*
G01X57446Y101352D01*
G01X57446Y101352D02*
G01X57465Y101337D01*
G01X57465Y101337D02*
G01X57483Y101320D01*
G01X57483Y101320D02*
G01X57501Y101303D01*
G01X57501Y101303D02*
G01X57518Y101285D01*
G01X57518Y101285D02*
G01X57534Y101266D01*
G01X57534Y101266D02*
G01X57549Y101246D01*
G01X57549Y101246D02*
G01X57563Y101227D01*
G01X57563Y101227D02*
G01X57577Y101206D01*
G01X57577Y101206D02*
G01X57590Y101185D01*
G01X57590Y101185D02*
G01X57601Y101163D01*
G01X57601Y101163D02*
G01X57613Y101141D01*
G01X57613Y101141D02*
G01X57622Y101119D01*
G01X57622Y101119D02*
G01X57632Y101096D01*
G01X57632Y101096D02*
G01X57640Y101073D01*
G01X57640Y101073D02*
G01X57647Y101049D01*
G01X57647Y101049D02*
G01X57653Y101025D01*
G01X57653Y101025D02*
G01X57659Y101001D01*
G01X57659Y101001D02*
G01X57663Y100977D01*
G01X57663Y100977D02*
G01X57666Y100953D01*
G01X57666Y100953D02*
G01X57668Y100928D01*
G01X57668Y100928D02*
G01X57670Y100904D01*
G01X57670Y100904D02*
G01X57670Y100879D01*
G01X57670Y100879D02*
G01X57669Y100854D01*
G01X57669Y100854D02*
G01X57667Y100830D01*
G01X57667Y100830D02*
G01X57665Y100805D01*
G01X57665Y100805D02*
G01X57661Y100781D01*
G01X57661Y100781D02*
G01X57656Y100757D01*
G01X57656Y100757D02*
G01X57650Y100733D01*
G01X57650Y100733D02*
G01X57644Y100709D01*
G01X57644Y100709D02*
G01X57636Y100686D01*
G01X57636Y100686D02*
G01X57627Y100662D01*
G01X57627Y100662D02*
G01X57618Y100640D01*
G01X57618Y100640D02*
G01X57607Y100618D01*
G01X57607Y100618D02*
G01X57596Y100596D01*
G01X57596Y100596D02*
G01X57583Y100574D01*
G01X57583Y100574D02*
G01X57570Y100554D01*
G01X57570Y100554D02*
G01X57556Y100533D01*
G01X57556Y100533D02*
G01X57541Y100514D01*
G01X57541Y100514D02*
G01X57526Y100495D01*
G01X57526Y100495D02*
G01X57509Y100476D01*
G01X57509Y100476D02*
G01X57492Y100459D01*
G01X57492Y100459D02*
G01X57474Y100442D01*
G01X57474Y100442D02*
G01X57456Y100426D01*
G01X57456Y100426D02*
G01X57437Y100410D01*
G01X57437Y100410D02*
G01X57417Y100395D01*
G01X57417Y100395D02*
G01X57396Y100382D01*
G01X57396Y100382D02*
G01X57375Y100369D01*
G01X57375Y100369D02*
G01X57354Y100356D01*
G01X57354Y100356D02*
G01X57332Y100345D01*
G01X57332Y100345D02*
G01X57310Y100335D01*
G01X57310Y100335D02*
G01X57287Y100326D01*
G01X57287Y100326D02*
G01X57264Y100317D01*
G01X57264Y100317D02*
G01X57240Y100310D01*
G01X57240Y100310D02*
G01X57216Y100303D01*
G01X57216Y100303D02*
G01X57192Y100298D01*
G01X57192Y100298D02*
G01X57168Y100293D01*
G01X57168Y100293D02*
G01X57144Y100290D01*
G01X57144Y100290D02*
G01X57119Y100287D01*
G01X57119Y100287D02*
G01X57095Y100286D01*
G01X57095Y100286D02*
G01X57070Y100285D01*
G01X57070Y102825D02*
G01X57045Y102826D01*
G01X57045Y102826D02*
G01X57021Y102827D01*
G01X57021Y102827D02*
G01X56996Y102830D01*
G01X56996Y102830D02*
G01X56972Y102833D01*
G01X56972Y102833D02*
G01X56948Y102838D01*
G01X56948Y102838D02*
G01X56924Y102843D01*
G01X56924Y102843D02*
G01X56900Y102850D01*
G01X56900Y102850D02*
G01X56876Y102857D01*
G01X56876Y102857D02*
G01X56853Y102866D01*
G01X56853Y102866D02*
G01X56830Y102875D01*
G01X56830Y102875D02*
G01X56808Y102885D01*
G01X56808Y102885D02*
G01X56786Y102896D01*
G01X56786Y102896D02*
G01X56765Y102909D01*
G01X56765Y102909D02*
G01X56744Y102922D01*
G01X56744Y102922D02*
G01X56723Y102935D01*
G01X56723Y102935D02*
G01X56703Y102950D01*
G01X56703Y102950D02*
G01X56684Y102966D01*
G01X56684Y102966D02*
G01X56666Y102982D01*
G01X56666Y102982D02*
G01X56648Y102999D01*
G01X56648Y102999D02*
G01X56631Y103016D01*
G01X56631Y103016D02*
G01X56614Y103035D01*
G01X56614Y103035D02*
G01X56599Y103054D01*
G01X56599Y103054D02*
G01X56584Y103073D01*
G01X56584Y103073D02*
G01X56570Y103094D01*
G01X56570Y103094D02*
G01X56557Y103114D01*
G01X56557Y103114D02*
G01X56544Y103136D01*
G01X56544Y103136D02*
G01X56533Y103158D01*
G01X56533Y103158D02*
G01X56522Y103180D01*
G01X56522Y103180D02*
G01X56513Y103202D01*
G01X56513Y103202D02*
G01X56504Y103226D01*
G01X56504Y103226D02*
G01X56496Y103249D01*
G01X56496Y103249D02*
G01X56490Y103273D01*
G01X56490Y103273D02*
G01X56484Y103297D01*
G01X56484Y103297D02*
G01X56479Y103321D01*
G01X56479Y103321D02*
G01X56475Y103345D01*
G01X56475Y103345D02*
G01X56473Y103370D01*
G01X56473Y103370D02*
G01X56471Y103394D01*
G01X56471Y103394D02*
G01X56470Y103419D01*
G01X56470Y103419D02*
G01X56470Y103444D01*
G01X56470Y103444D02*
G01X56472Y103468D01*
G01X56472Y103468D02*
G01X56474Y103493D01*
G01X56474Y103493D02*
G01X56477Y103517D01*
G01X56477Y103517D02*
G01X56481Y103541D01*
G01X56481Y103541D02*
G01X56487Y103565D01*
G01X56487Y103565D02*
G01X56493Y103589D01*
G01X56493Y103589D02*
G01X56500Y103613D01*
G01X56500Y103613D02*
G01X56508Y103636D01*
G01X56508Y103636D02*
G01X56518Y103659D01*
G01X56518Y103659D02*
G01X56527Y103681D01*
G01X56527Y103681D02*
G01X56539Y103703D01*
G01X56539Y103703D02*
G01X56550Y103725D01*
G01X56550Y103725D02*
G01X56563Y103746D01*
G01X56563Y103746D02*
G01X56577Y103767D01*
G01X56577Y103767D02*
G01X56591Y103786D01*
G01X56591Y103786D02*
G01X56606Y103806D01*
G01X56606Y103806D02*
G01X56622Y103825D01*
G01X56622Y103825D02*
G01X56639Y103843D01*
G01X56639Y103843D02*
G01X56657Y103860D01*
G01X56657Y103860D02*
G01X56675Y103877D01*
G01X56675Y103877D02*
G01X56694Y103892D01*
G01X56694Y103892D02*
G01X56713Y103907D01*
G01X56713Y103907D02*
G01X56733Y103922D01*
G01X56733Y103922D02*
G01X56754Y103935D01*
G01X56754Y103935D02*
G01X56775Y103948D01*
G01X56775Y103948D02*
G01X56797Y103959D01*
G01X56797Y103959D02*
G01X56819Y103970D01*
G01X56819Y103970D02*
G01X56842Y103980D01*
G01X56842Y103980D02*
G01X56865Y103989D01*
G01X56865Y103989D02*
G01X56888Y103997D01*
G01X56888Y103997D02*
G01X56912Y104004D01*
G01X56912Y104004D02*
G01X56936Y104010D01*
G01X56936Y104010D02*
G01X56960Y104015D01*
G01X56960Y104015D02*
G01X56984Y104019D01*
G01X56984Y104019D02*
G01X57009Y104022D01*
G01X57009Y104022D02*
G01X57033Y104024D01*
G01X57033Y104024D02*
G01X57058Y104025D01*
G01X57058Y104025D02*
G01X57082Y104025D01*
G01X57082Y104025D02*
G01X57107Y104024D01*
G01X57107Y104024D02*
G01X57131Y104022D01*
G01X57131Y104022D02*
G01X57156Y104019D01*
G01X57156Y104019D02*
G01X57180Y104015D01*
G01X57180Y104015D02*
G01X57204Y104010D01*
G01X57204Y104010D02*
G01X57228Y104004D01*
G01X57228Y104004D02*
G01X57252Y103997D01*
G01X57252Y103997D02*
G01X57275Y103989D01*
G01X57275Y103989D02*
G01X57298Y103980D01*
G01X57298Y103980D02*
G01X57321Y103970D01*
G01X57321Y103970D02*
G01X57343Y103959D01*
G01X57343Y103959D02*
G01X57365Y103948D01*
G01X57365Y103948D02*
G01X57386Y103935D01*
G01X57386Y103935D02*
G01X57407Y103922D01*
G01X57407Y103922D02*
G01X57427Y103907D01*
G01X57427Y103907D02*
G01X57446Y103892D01*
G01X57446Y103892D02*
G01X57465Y103877D01*
G01X57465Y103877D02*
G01X57483Y103860D01*
G01X57483Y103860D02*
G01X57501Y103843D01*
G01X57501Y103843D02*
G01X57518Y103825D01*
G01X57518Y103825D02*
G01X57534Y103806D01*
G01X57534Y103806D02*
G01X57549Y103786D01*
G01X57549Y103786D02*
G01X57563Y103767D01*
G01X57563Y103767D02*
G01X57577Y103746D01*
G01X57577Y103746D02*
G01X57590Y103725D01*
G01X57590Y103725D02*
G01X57601Y103703D01*
G01X57601Y103703D02*
G01X57613Y103681D01*
G01X57613Y103681D02*
G01X57622Y103659D01*
G01X57622Y103659D02*
G01X57632Y103636D01*
G01X57632Y103636D02*
G01X57640Y103613D01*
G01X57640Y103613D02*
G01X57647Y103589D01*
G01X57647Y103589D02*
G01X57653Y103565D01*
G01X57653Y103565D02*
G01X57659Y103541D01*
G01X57659Y103541D02*
G01X57663Y103517D01*
G01X57663Y103517D02*
G01X57666Y103493D01*
G01X57666Y103493D02*
G01X57668Y103468D01*
G01X57668Y103468D02*
G01X57670Y103444D01*
G01X57670Y103444D02*
G01X57670Y103419D01*
G01X57670Y103419D02*
G01X57669Y103394D01*
G01X57669Y103394D02*
G01X57667Y103370D01*
G01X57667Y103370D02*
G01X57665Y103345D01*
G01X57665Y103345D02*
G01X57661Y103321D01*
G01X57661Y103321D02*
G01X57656Y103297D01*
G01X57656Y103297D02*
G01X57650Y103273D01*
G01X57650Y103273D02*
G01X57644Y103249D01*
G01X57644Y103249D02*
G01X57636Y103226D01*
G01X57636Y103226D02*
G01X57627Y103202D01*
G01X57627Y103202D02*
G01X57618Y103180D01*
G01X57618Y103180D02*
G01X57607Y103158D01*
G01X57607Y103158D02*
G01X57596Y103136D01*
G01X57596Y103136D02*
G01X57583Y103114D01*
G01X57583Y103114D02*
G01X57570Y103094D01*
G01X57570Y103094D02*
G01X57556Y103073D01*
G01X57556Y103073D02*
G01X57541Y103054D01*
G01X57541Y103054D02*
G01X57526Y103035D01*
G01X57526Y103035D02*
G01X57509Y103016D01*
G01X57509Y103016D02*
G01X57492Y102999D01*
G01X57492Y102999D02*
G01X57474Y102982D01*
G01X57474Y102982D02*
G01X57456Y102966D01*
G01X57456Y102966D02*
G01X57437Y102950D01*
G01X57437Y102950D02*
G01X57417Y102935D01*
G01X57417Y102935D02*
G01X57396Y102922D01*
G01X57396Y102922D02*
G01X57375Y102909D01*
G01X57375Y102909D02*
G01X57354Y102896D01*
G01X57354Y102896D02*
G01X57332Y102885D01*
G01X57332Y102885D02*
G01X57310Y102875D01*
G01X57310Y102875D02*
G01X57287Y102866D01*
G01X57287Y102866D02*
G01X57264Y102857D01*
G01X57264Y102857D02*
G01X57240Y102850D01*
G01X57240Y102850D02*
G01X57216Y102843D01*
G01X57216Y102843D02*
G01X57192Y102838D01*
G01X57192Y102838D02*
G01X57168Y102833D01*
G01X57168Y102833D02*
G01X57144Y102830D01*
G01X57144Y102830D02*
G01X57119Y102827D01*
G01X57119Y102827D02*
G01X57095Y102826D01*
G01X57095Y102826D02*
G01X57070Y102825D01*
G01X57070Y152355D02*
G01X57045Y152356D01*
G01X57045Y152356D02*
G01X57021Y152357D01*
G01X57021Y152357D02*
G01X56996Y152360D01*
G01X56996Y152360D02*
G01X56972Y152363D01*
G01X56972Y152363D02*
G01X56948Y152368D01*
G01X56948Y152368D02*
G01X56924Y152373D01*
G01X56924Y152373D02*
G01X56900Y152380D01*
G01X56900Y152380D02*
G01X56876Y152387D01*
G01X56876Y152387D02*
G01X56853Y152396D01*
G01X56853Y152396D02*
G01X56830Y152405D01*
G01X56830Y152405D02*
G01X56808Y152415D01*
G01X56808Y152415D02*
G01X56786Y152426D01*
G01X56786Y152426D02*
G01X56765Y152439D01*
G01X56765Y152439D02*
G01X56744Y152452D01*
G01X56744Y152452D02*
G01X56723Y152465D01*
G01X56723Y152465D02*
G01X56703Y152480D01*
G01X56703Y152480D02*
G01X56684Y152496D01*
G01X56684Y152496D02*
G01X56666Y152512D01*
G01X56666Y152512D02*
G01X56648Y152529D01*
G01X56648Y152529D02*
G01X56631Y152546D01*
G01X56631Y152546D02*
G01X56614Y152565D01*
G01X56614Y152565D02*
G01X56599Y152584D01*
G01X56599Y152584D02*
G01X56584Y152603D01*
G01X56584Y152603D02*
G01X56570Y152624D01*
G01X56570Y152624D02*
G01X56557Y152644D01*
G01X56557Y152644D02*
G01X56544Y152666D01*
G01X56544Y152666D02*
G01X56533Y152688D01*
G01X56533Y152688D02*
G01X56522Y152710D01*
G01X56522Y152710D02*
G01X56513Y152732D01*
G01X56513Y152732D02*
G01X56504Y152756D01*
G01X56504Y152756D02*
G01X56496Y152779D01*
G01X56496Y152779D02*
G01X56490Y152803D01*
G01X56490Y152803D02*
G01X56484Y152827D01*
G01X56484Y152827D02*
G01X56479Y152851D01*
G01X56479Y152851D02*
G01X56475Y152875D01*
G01X56475Y152875D02*
G01X56473Y152900D01*
G01X56473Y152900D02*
G01X56471Y152924D01*
G01X56471Y152924D02*
G01X56470Y152949D01*
G01X56470Y152949D02*
G01X56470Y152974D01*
G01X56470Y152974D02*
G01X56472Y152998D01*
G01X56472Y152998D02*
G01X56474Y153023D01*
G01X56474Y153023D02*
G01X56477Y153047D01*
G01X56477Y153047D02*
G01X56481Y153071D01*
G01X56481Y153071D02*
G01X56487Y153095D01*
G01X56487Y153095D02*
G01X56493Y153119D01*
G01X56493Y153119D02*
G01X56500Y153143D01*
G01X56500Y153143D02*
G01X56508Y153166D01*
G01X56508Y153166D02*
G01X56518Y153189D01*
G01X56518Y153189D02*
G01X56527Y153211D01*
G01X56527Y153211D02*
G01X56539Y153233D01*
G01X56539Y153233D02*
G01X56550Y153255D01*
G01X56550Y153255D02*
G01X56563Y153276D01*
G01X56563Y153276D02*
G01X56577Y153297D01*
G01X56577Y153297D02*
G01X56591Y153316D01*
G01X56591Y153316D02*
G01X56606Y153336D01*
G01X56606Y153336D02*
G01X56622Y153355D01*
G01X56622Y153355D02*
G01X56639Y153373D01*
G01X56639Y153373D02*
G01X56657Y153390D01*
G01X56657Y153390D02*
G01X56675Y153407D01*
G01X56675Y153407D02*
G01X56694Y153422D01*
G01X56694Y153422D02*
G01X56713Y153437D01*
G01X56713Y153437D02*
G01X56733Y153452D01*
G01X56733Y153452D02*
G01X56754Y153465D01*
G01X56754Y153465D02*
G01X56775Y153478D01*
G01X56775Y153478D02*
G01X56797Y153489D01*
G01X56797Y153489D02*
G01X56819Y153500D01*
G01X56819Y153500D02*
G01X56842Y153510D01*
G01X56842Y153510D02*
G01X56865Y153519D01*
G01X56865Y153519D02*
G01X56888Y153527D01*
G01X56888Y153527D02*
G01X56912Y153534D01*
G01X56912Y153534D02*
G01X56936Y153540D01*
G01X56936Y153540D02*
G01X56960Y153545D01*
G01X56960Y153545D02*
G01X56984Y153549D01*
G01X56984Y153549D02*
G01X57009Y153552D01*
G01X57009Y153552D02*
G01X57033Y153554D01*
G01X57033Y153554D02*
G01X57058Y153555D01*
G01X57058Y153555D02*
G01X57082Y153555D01*
G01X57082Y153555D02*
G01X57107Y153554D01*
G01X57107Y153554D02*
G01X57131Y153552D01*
G01X57131Y153552D02*
G01X57156Y153549D01*
G01X57156Y153549D02*
G01X57180Y153545D01*
G01X57180Y153545D02*
G01X57204Y153540D01*
G01X57204Y153540D02*
G01X57228Y153534D01*
G01X57228Y153534D02*
G01X57252Y153527D01*
G01X57252Y153527D02*
G01X57275Y153519D01*
G01X57275Y153519D02*
G01X57298Y153510D01*
G01X57298Y153510D02*
G01X57321Y153500D01*
G01X57321Y153500D02*
G01X57343Y153489D01*
G01X57343Y153489D02*
G01X57365Y153478D01*
G01X57365Y153478D02*
G01X57386Y153465D01*
G01X57386Y153465D02*
G01X57407Y153452D01*
G01X57407Y153452D02*
G01X57427Y153437D01*
G01X57427Y153437D02*
G01X57446Y153422D01*
G01X57446Y153422D02*
G01X57465Y153407D01*
G01X57465Y153407D02*
G01X57483Y153390D01*
G01X57483Y153390D02*
G01X57501Y153373D01*
G01X57501Y153373D02*
G01X57518Y153355D01*
G01X57518Y153355D02*
G01X57534Y153336D01*
G01X57534Y153336D02*
G01X57549Y153316D01*
G01X57549Y153316D02*
G01X57563Y153297D01*
G01X57563Y153297D02*
G01X57577Y153276D01*
G01X57577Y153276D02*
G01X57590Y153255D01*
G01X57590Y153255D02*
G01X57601Y153233D01*
G01X57601Y153233D02*
G01X57613Y153211D01*
G01X57613Y153211D02*
G01X57622Y153189D01*
G01X57622Y153189D02*
G01X57632Y153166D01*
G01X57632Y153166D02*
G01X57640Y153143D01*
G01X57640Y153143D02*
G01X57647Y153119D01*
G01X57647Y153119D02*
G01X57653Y153095D01*
G01X57653Y153095D02*
G01X57659Y153071D01*
G01X57659Y153071D02*
G01X57663Y153047D01*
G01X57663Y153047D02*
G01X57666Y153023D01*
G01X57666Y153023D02*
G01X57668Y152998D01*
G01X57668Y152998D02*
G01X57670Y152974D01*
G01X57670Y152974D02*
G01X57670Y152949D01*
G01X57670Y152949D02*
G01X57669Y152924D01*
G01X57669Y152924D02*
G01X57667Y152900D01*
G01X57667Y152900D02*
G01X57665Y152875D01*
G01X57665Y152875D02*
G01X57661Y152851D01*
G01X57661Y152851D02*
G01X57656Y152827D01*
G01X57656Y152827D02*
G01X57650Y152803D01*
G01X57650Y152803D02*
G01X57644Y152779D01*
G01X57644Y152779D02*
G01X57636Y152756D01*
G01X57636Y152756D02*
G01X57627Y152732D01*
G01X57627Y152732D02*
G01X57618Y152710D01*
G01X57618Y152710D02*
G01X57607Y152688D01*
G01X57607Y152688D02*
G01X57596Y152666D01*
G01X57596Y152666D02*
G01X57583Y152644D01*
G01X57583Y152644D02*
G01X57570Y152624D01*
G01X57570Y152624D02*
G01X57556Y152603D01*
G01X57556Y152603D02*
G01X57541Y152584D01*
G01X57541Y152584D02*
G01X57526Y152565D01*
G01X57526Y152565D02*
G01X57509Y152546D01*
G01X57509Y152546D02*
G01X57492Y152529D01*
G01X57492Y152529D02*
G01X57474Y152512D01*
G01X57474Y152512D02*
G01X57456Y152496D01*
G01X57456Y152496D02*
G01X57437Y152480D01*
G01X57437Y152480D02*
G01X57417Y152465D01*
G01X57417Y152465D02*
G01X57396Y152452D01*
G01X57396Y152452D02*
G01X57375Y152439D01*
G01X57375Y152439D02*
G01X57354Y152426D01*
G01X57354Y152426D02*
G01X57332Y152415D01*
G01X57332Y152415D02*
G01X57310Y152405D01*
G01X57310Y152405D02*
G01X57287Y152396D01*
G01X57287Y152396D02*
G01X57264Y152387D01*
G01X57264Y152387D02*
G01X57240Y152380D01*
G01X57240Y152380D02*
G01X57216Y152373D01*
G01X57216Y152373D02*
G01X57192Y152368D01*
G01X57192Y152368D02*
G01X57168Y152363D01*
G01X57168Y152363D02*
G01X57144Y152360D01*
G01X57144Y152360D02*
G01X57119Y152357D01*
G01X57119Y152357D02*
G01X57095Y152356D01*
G01X57095Y152356D02*
G01X57070Y152355D01*
G01X57070Y154895D02*
G01X57045Y154896D01*
G01X57045Y154896D02*
G01X57021Y154897D01*
G01X57021Y154897D02*
G01X56996Y154900D01*
G01X56996Y154900D02*
G01X56972Y154903D01*
G01X56972Y154903D02*
G01X56948Y154908D01*
G01X56948Y154908D02*
G01X56924Y154913D01*
G01X56924Y154913D02*
G01X56900Y154920D01*
G01X56900Y154920D02*
G01X56876Y154927D01*
G01X56876Y154927D02*
G01X56853Y154936D01*
G01X56853Y154936D02*
G01X56830Y154945D01*
G01X56830Y154945D02*
G01X56808Y154955D01*
G01X56808Y154955D02*
G01X56786Y154966D01*
G01X56786Y154966D02*
G01X56765Y154979D01*
G01X56765Y154979D02*
G01X56744Y154992D01*
G01X56744Y154992D02*
G01X56723Y155005D01*
G01X56723Y155005D02*
G01X56703Y155020D01*
G01X56703Y155020D02*
G01X56684Y155036D01*
G01X56684Y155036D02*
G01X56666Y155052D01*
G01X56666Y155052D02*
G01X56648Y155069D01*
G01X56648Y155069D02*
G01X56631Y155086D01*
G01X56631Y155086D02*
G01X56614Y155105D01*
G01X56614Y155105D02*
G01X56599Y155124D01*
G01X56599Y155124D02*
G01X56584Y155143D01*
G01X56584Y155143D02*
G01X56570Y155164D01*
G01X56570Y155164D02*
G01X56557Y155184D01*
G01X56557Y155184D02*
G01X56544Y155206D01*
G01X56544Y155206D02*
G01X56533Y155228D01*
G01X56533Y155228D02*
G01X56522Y155250D01*
G01X56522Y155250D02*
G01X56513Y155272D01*
G01X56513Y155272D02*
G01X56504Y155296D01*
G01X56504Y155296D02*
G01X56496Y155319D01*
G01X56496Y155319D02*
G01X56490Y155343D01*
G01X56490Y155343D02*
G01X56484Y155367D01*
G01X56484Y155367D02*
G01X56479Y155391D01*
G01X56479Y155391D02*
G01X56475Y155415D01*
G01X56475Y155415D02*
G01X56473Y155440D01*
G01X56473Y155440D02*
G01X56471Y155464D01*
G01X56471Y155464D02*
G01X56470Y155489D01*
G01X56470Y155489D02*
G01X56470Y155514D01*
G01X56470Y155514D02*
G01X56472Y155538D01*
G01X56472Y155538D02*
G01X56474Y155563D01*
G01X56474Y155563D02*
G01X56477Y155587D01*
G01X56477Y155587D02*
G01X56481Y155611D01*
G01X56481Y155611D02*
G01X56487Y155635D01*
G01X56487Y155635D02*
G01X56493Y155659D01*
G01X56493Y155659D02*
G01X56500Y155683D01*
G01X56500Y155683D02*
G01X56508Y155706D01*
G01X56508Y155706D02*
G01X56518Y155729D01*
G01X56518Y155729D02*
G01X56527Y155751D01*
G01X56527Y155751D02*
G01X56539Y155773D01*
G01X56539Y155773D02*
G01X56550Y155795D01*
G01X56550Y155795D02*
G01X56563Y155816D01*
G01X56563Y155816D02*
G01X56577Y155837D01*
G01X56577Y155837D02*
G01X56591Y155856D01*
G01X56591Y155856D02*
G01X56606Y155876D01*
G01X56606Y155876D02*
G01X56622Y155895D01*
G01X56622Y155895D02*
G01X56639Y155913D01*
G01X56639Y155913D02*
G01X56657Y155930D01*
G01X56657Y155930D02*
G01X56675Y155947D01*
G01X56675Y155947D02*
G01X56694Y155962D01*
G01X56694Y155962D02*
G01X56713Y155977D01*
G01X56713Y155977D02*
G01X56733Y155992D01*
G01X56733Y155992D02*
G01X56754Y156005D01*
G01X56754Y156005D02*
G01X56775Y156018D01*
G01X56775Y156018D02*
G01X56797Y156029D01*
G01X56797Y156029D02*
G01X56819Y156040D01*
G01X56819Y156040D02*
G01X56842Y156050D01*
G01X56842Y156050D02*
G01X56865Y156059D01*
G01X56865Y156059D02*
G01X56888Y156067D01*
G01X56888Y156067D02*
G01X56912Y156074D01*
G01X56912Y156074D02*
G01X56936Y156080D01*
G01X56936Y156080D02*
G01X56960Y156085D01*
G01X56960Y156085D02*
G01X56984Y156089D01*
G01X56984Y156089D02*
G01X57009Y156092D01*
G01X57009Y156092D02*
G01X57033Y156094D01*
G01X57033Y156094D02*
G01X57058Y156095D01*
G01X57058Y156095D02*
G01X57082Y156095D01*
G01X57082Y156095D02*
G01X57107Y156094D01*
G01X57107Y156094D02*
G01X57131Y156092D01*
G01X57131Y156092D02*
G01X57156Y156089D01*
G01X57156Y156089D02*
G01X57180Y156085D01*
G01X57180Y156085D02*
G01X57204Y156080D01*
G01X57204Y156080D02*
G01X57228Y156074D01*
G01X57228Y156074D02*
G01X57252Y156067D01*
G01X57252Y156067D02*
G01X57275Y156059D01*
G01X57275Y156059D02*
G01X57298Y156050D01*
G01X57298Y156050D02*
G01X57321Y156040D01*
G01X57321Y156040D02*
G01X57343Y156029D01*
G01X57343Y156029D02*
G01X57365Y156018D01*
G01X57365Y156018D02*
G01X57386Y156005D01*
G01X57386Y156005D02*
G01X57407Y155992D01*
G01X57407Y155992D02*
G01X57427Y155977D01*
G01X57427Y155977D02*
G01X57446Y155962D01*
G01X57446Y155962D02*
G01X57465Y155947D01*
G01X57465Y155947D02*
G01X57483Y155930D01*
G01X57483Y155930D02*
G01X57501Y155913D01*
G01X57501Y155913D02*
G01X57518Y155895D01*
G01X57518Y155895D02*
G01X57534Y155876D01*
G01X57534Y155876D02*
G01X57549Y155856D01*
G01X57549Y155856D02*
G01X57563Y155837D01*
G01X57563Y155837D02*
G01X57577Y155816D01*
G01X57577Y155816D02*
G01X57590Y155795D01*
G01X57590Y155795D02*
G01X57601Y155773D01*
G01X57601Y155773D02*
G01X57613Y155751D01*
G01X57613Y155751D02*
G01X57622Y155729D01*
G01X57622Y155729D02*
G01X57632Y155706D01*
G01X57632Y155706D02*
G01X57640Y155683D01*
G01X57640Y155683D02*
G01X57647Y155659D01*
G01X57647Y155659D02*
G01X57653Y155635D01*
G01X57653Y155635D02*
G01X57659Y155611D01*
G01X57659Y155611D02*
G01X57663Y155587D01*
G01X57663Y155587D02*
G01X57666Y155563D01*
G01X57666Y155563D02*
G01X57668Y155538D01*
G01X57668Y155538D02*
G01X57670Y155514D01*
G01X57670Y155514D02*
G01X57670Y155489D01*
G01X57670Y155489D02*
G01X57669Y155464D01*
G01X57669Y155464D02*
G01X57667Y155440D01*
G01X57667Y155440D02*
G01X57665Y155415D01*
G01X57665Y155415D02*
G01X57661Y155391D01*
G01X57661Y155391D02*
G01X57656Y155367D01*
G01X57656Y155367D02*
G01X57650Y155343D01*
G01X57650Y155343D02*
G01X57644Y155319D01*
G01X57644Y155319D02*
G01X57636Y155296D01*
G01X57636Y155296D02*
G01X57627Y155272D01*
G01X57627Y155272D02*
G01X57618Y155250D01*
G01X57618Y155250D02*
G01X57607Y155228D01*
G01X57607Y155228D02*
G01X57596Y155206D01*
G01X57596Y155206D02*
G01X57583Y155184D01*
G01X57583Y155184D02*
G01X57570Y155164D01*
G01X57570Y155164D02*
G01X57556Y155143D01*
G01X57556Y155143D02*
G01X57541Y155124D01*
G01X57541Y155124D02*
G01X57526Y155105D01*
G01X57526Y155105D02*
G01X57509Y155086D01*
G01X57509Y155086D02*
G01X57492Y155069D01*
G01X57492Y155069D02*
G01X57474Y155052D01*
G01X57474Y155052D02*
G01X57456Y155036D01*
G01X57456Y155036D02*
G01X57437Y155020D01*
G01X57437Y155020D02*
G01X57417Y155005D01*
G01X57417Y155005D02*
G01X57396Y154992D01*
G01X57396Y154992D02*
G01X57375Y154979D01*
G01X57375Y154979D02*
G01X57354Y154966D01*
G01X57354Y154966D02*
G01X57332Y154955D01*
G01X57332Y154955D02*
G01X57310Y154945D01*
G01X57310Y154945D02*
G01X57287Y154936D01*
G01X57287Y154936D02*
G01X57264Y154927D01*
G01X57264Y154927D02*
G01X57240Y154920D01*
G01X57240Y154920D02*
G01X57216Y154913D01*
G01X57216Y154913D02*
G01X57192Y154908D01*
G01X57192Y154908D02*
G01X57168Y154903D01*
G01X57168Y154903D02*
G01X57144Y154900D01*
G01X57144Y154900D02*
G01X57119Y154897D01*
G01X57119Y154897D02*
G01X57095Y154896D01*
G01X57095Y154896D02*
G01X57070Y154895D01*
G01X15160Y154895D02*
G01X15135Y154896D01*
G01X15135Y154896D02*
G01X15111Y154897D01*
G01X15111Y154897D02*
G01X15086Y154900D01*
G01X15086Y154900D02*
G01X15062Y154903D01*
G01X15062Y154903D02*
G01X15038Y154908D01*
G01X15038Y154908D02*
G01X15014Y154913D01*
G01X15014Y154913D02*
G01X14990Y154920D01*
G01X14990Y154920D02*
G01X14966Y154927D01*
G01X14966Y154927D02*
G01X14943Y154936D01*
G01X14943Y154936D02*
G01X14920Y154945D01*
G01X14920Y154945D02*
G01X14898Y154955D01*
G01X14898Y154955D02*
G01X14876Y154966D01*
G01X14876Y154966D02*
G01X14855Y154979D01*
G01X14855Y154979D02*
G01X14834Y154992D01*
G01X14834Y154992D02*
G01X14813Y155005D01*
G01X14813Y155005D02*
G01X14793Y155020D01*
G01X14793Y155020D02*
G01X14774Y155036D01*
G01X14774Y155036D02*
G01X14756Y155052D01*
G01X14756Y155052D02*
G01X14738Y155069D01*
G01X14738Y155069D02*
G01X14721Y155086D01*
G01X14721Y155086D02*
G01X14704Y155105D01*
G01X14704Y155105D02*
G01X14689Y155124D01*
G01X14689Y155124D02*
G01X14674Y155143D01*
G01X14674Y155143D02*
G01X14660Y155164D01*
G01X14660Y155164D02*
G01X14647Y155184D01*
G01X14647Y155184D02*
G01X14634Y155206D01*
G01X14634Y155206D02*
G01X14623Y155228D01*
G01X14623Y155228D02*
G01X14612Y155250D01*
G01X14612Y155250D02*
G01X14603Y155272D01*
G01X14603Y155272D02*
G01X14594Y155296D01*
G01X14594Y155296D02*
G01X14586Y155319D01*
G01X14586Y155319D02*
G01X14580Y155343D01*
G01X14580Y155343D02*
G01X14574Y155367D01*
G01X14574Y155367D02*
G01X14569Y155391D01*
G01X14569Y155391D02*
G01X14565Y155415D01*
G01X14565Y155415D02*
G01X14563Y155440D01*
G01X14563Y155440D02*
G01X14561Y155464D01*
G01X14561Y155464D02*
G01X14560Y155489D01*
G01X14560Y155489D02*
G01X14560Y155514D01*
G01X14560Y155514D02*
G01X14562Y155538D01*
G01X14562Y155538D02*
G01X14564Y155563D01*
G01X14564Y155563D02*
G01X14567Y155587D01*
G01X14567Y155587D02*
G01X14571Y155611D01*
G01X14571Y155611D02*
G01X14577Y155635D01*
G01X14577Y155635D02*
G01X14583Y155659D01*
G01X14583Y155659D02*
G01X14590Y155683D01*
G01X14590Y155683D02*
G01X14598Y155706D01*
G01X14598Y155706D02*
G01X14608Y155729D01*
G01X14608Y155729D02*
G01X14617Y155751D01*
G01X14617Y155751D02*
G01X14629Y155773D01*
G01X14629Y155773D02*
G01X14640Y155795D01*
G01X14640Y155795D02*
G01X14653Y155816D01*
G01X14653Y155816D02*
G01X14667Y155837D01*
G01X14667Y155837D02*
G01X14681Y155856D01*
G01X14681Y155856D02*
G01X14696Y155876D01*
G01X14696Y155876D02*
G01X14712Y155895D01*
G01X14712Y155895D02*
G01X14729Y155913D01*
G01X14729Y155913D02*
G01X14747Y155930D01*
G01X14747Y155930D02*
G01X14765Y155947D01*
G01X14765Y155947D02*
G01X14784Y155962D01*
G01X14784Y155962D02*
G01X14803Y155977D01*
G01X14803Y155977D02*
G01X14823Y155992D01*
G01X14823Y155992D02*
G01X14844Y156005D01*
G01X14844Y156005D02*
G01X14865Y156018D01*
G01X14865Y156018D02*
G01X14887Y156029D01*
G01X14887Y156029D02*
G01X14909Y156040D01*
G01X14909Y156040D02*
G01X14932Y156050D01*
G01X14932Y156050D02*
G01X14955Y156059D01*
G01X14955Y156059D02*
G01X14978Y156067D01*
G01X14978Y156067D02*
G01X15002Y156074D01*
G01X15002Y156074D02*
G01X15026Y156080D01*
G01X15026Y156080D02*
G01X15050Y156085D01*
G01X15050Y156085D02*
G01X15074Y156089D01*
G01X15074Y156089D02*
G01X15099Y156092D01*
G01X15099Y156092D02*
G01X15123Y156094D01*
G01X15123Y156094D02*
G01X15148Y156095D01*
G01X15148Y156095D02*
G01X15172Y156095D01*
G01X15172Y156095D02*
G01X15197Y156094D01*
G01X15197Y156094D02*
G01X15221Y156092D01*
G01X15221Y156092D02*
G01X15246Y156089D01*
G01X15246Y156089D02*
G01X15270Y156085D01*
G01X15270Y156085D02*
G01X15294Y156080D01*
G01X15294Y156080D02*
G01X15318Y156074D01*
G01X15318Y156074D02*
G01X15342Y156067D01*
G01X15342Y156067D02*
G01X15365Y156059D01*
G01X15365Y156059D02*
G01X15388Y156050D01*
G01X15388Y156050D02*
G01X15411Y156040D01*
G01X15411Y156040D02*
G01X15433Y156029D01*
G01X15433Y156029D02*
G01X15455Y156018D01*
G01X15455Y156018D02*
G01X15476Y156005D01*
G01X15476Y156005D02*
G01X15497Y155992D01*
G01X15497Y155992D02*
G01X15517Y155977D01*
G01X15517Y155977D02*
G01X15536Y155962D01*
G01X15536Y155962D02*
G01X15555Y155947D01*
G01X15555Y155947D02*
G01X15573Y155930D01*
G01X15573Y155930D02*
G01X15591Y155913D01*
G01X15591Y155913D02*
G01X15608Y155895D01*
G01X15608Y155895D02*
G01X15624Y155876D01*
G01X15624Y155876D02*
G01X15639Y155856D01*
G01X15639Y155856D02*
G01X15653Y155837D01*
G01X15653Y155837D02*
G01X15667Y155816D01*
G01X15667Y155816D02*
G01X15680Y155795D01*
G01X15680Y155795D02*
G01X15691Y155773D01*
G01X15691Y155773D02*
G01X15703Y155751D01*
G01X15703Y155751D02*
G01X15712Y155729D01*
G01X15712Y155729D02*
G01X15722Y155706D01*
G01X15722Y155706D02*
G01X15730Y155683D01*
G01X15730Y155683D02*
G01X15737Y155659D01*
G01X15737Y155659D02*
G01X15743Y155635D01*
G01X15743Y155635D02*
G01X15749Y155611D01*
G01X15749Y155611D02*
G01X15753Y155587D01*
G01X15753Y155587D02*
G01X15756Y155563D01*
G01X15756Y155563D02*
G01X15758Y155538D01*
G01X15758Y155538D02*
G01X15760Y155514D01*
G01X15760Y155514D02*
G01X15760Y155489D01*
G01X15760Y155489D02*
G01X15759Y155464D01*
G01X15759Y155464D02*
G01X15757Y155440D01*
G01X15757Y155440D02*
G01X15755Y155415D01*
G01X15755Y155415D02*
G01X15751Y155391D01*
G01X15751Y155391D02*
G01X15746Y155367D01*
G01X15746Y155367D02*
G01X15740Y155343D01*
G01X15740Y155343D02*
G01X15734Y155319D01*
G01X15734Y155319D02*
G01X15726Y155296D01*
G01X15726Y155296D02*
G01X15717Y155272D01*
G01X15717Y155272D02*
G01X15708Y155250D01*
G01X15708Y155250D02*
G01X15697Y155228D01*
G01X15697Y155228D02*
G01X15686Y155206D01*
G01X15686Y155206D02*
G01X15673Y155184D01*
G01X15673Y155184D02*
G01X15660Y155164D01*
G01X15660Y155164D02*
G01X15646Y155143D01*
G01X15646Y155143D02*
G01X15631Y155124D01*
G01X15631Y155124D02*
G01X15616Y155105D01*
G01X15616Y155105D02*
G01X15599Y155086D01*
G01X15599Y155086D02*
G01X15582Y155069D01*
G01X15582Y155069D02*
G01X15564Y155052D01*
G01X15564Y155052D02*
G01X15546Y155036D01*
G01X15546Y155036D02*
G01X15527Y155020D01*
G01X15527Y155020D02*
G01X15507Y155005D01*
G01X15507Y155005D02*
G01X15486Y154992D01*
G01X15486Y154992D02*
G01X15465Y154979D01*
G01X15465Y154979D02*
G01X15444Y154966D01*
G01X15444Y154966D02*
G01X15422Y154955D01*
G01X15422Y154955D02*
G01X15400Y154945D01*
G01X15400Y154945D02*
G01X15377Y154936D01*
G01X15377Y154936D02*
G01X15354Y154927D01*
G01X15354Y154927D02*
G01X15330Y154920D01*
G01X15330Y154920D02*
G01X15306Y154913D01*
G01X15306Y154913D02*
G01X15282Y154908D01*
G01X15282Y154908D02*
G01X15258Y154903D01*
G01X15258Y154903D02*
G01X15234Y154900D01*
G01X15234Y154900D02*
G01X15209Y154897D01*
G01X15209Y154897D02*
G01X15185Y154896D01*
G01X15185Y154896D02*
G01X15160Y154895D01*
G01X15160Y152355D02*
G01X15135Y152356D01*
G01X15135Y152356D02*
G01X15111Y152357D01*
G01X15111Y152357D02*
G01X15086Y152360D01*
G01X15086Y152360D02*
G01X15062Y152363D01*
G01X15062Y152363D02*
G01X15038Y152368D01*
G01X15038Y152368D02*
G01X15014Y152373D01*
G01X15014Y152373D02*
G01X14990Y152380D01*
G01X14990Y152380D02*
G01X14966Y152387D01*
G01X14966Y152387D02*
G01X14943Y152396D01*
G01X14943Y152396D02*
G01X14920Y152405D01*
G01X14920Y152405D02*
G01X14898Y152415D01*
G01X14898Y152415D02*
G01X14876Y152426D01*
G01X14876Y152426D02*
G01X14855Y152439D01*
G01X14855Y152439D02*
G01X14834Y152452D01*
G01X14834Y152452D02*
G01X14813Y152465D01*
G01X14813Y152465D02*
G01X14793Y152480D01*
G01X14793Y152480D02*
G01X14774Y152496D01*
G01X14774Y152496D02*
G01X14756Y152512D01*
G01X14756Y152512D02*
G01X14738Y152529D01*
G01X14738Y152529D02*
G01X14721Y152546D01*
G01X14721Y152546D02*
G01X14704Y152565D01*
G01X14704Y152565D02*
G01X14689Y152584D01*
G01X14689Y152584D02*
G01X14674Y152603D01*
G01X14674Y152603D02*
G01X14660Y152624D01*
G01X14660Y152624D02*
G01X14647Y152644D01*
G01X14647Y152644D02*
G01X14634Y152666D01*
G01X14634Y152666D02*
G01X14623Y152688D01*
G01X14623Y152688D02*
G01X14612Y152710D01*
G01X14612Y152710D02*
G01X14603Y152732D01*
G01X14603Y152732D02*
G01X14594Y152756D01*
G01X14594Y152756D02*
G01X14586Y152779D01*
G01X14586Y152779D02*
G01X14580Y152803D01*
G01X14580Y152803D02*
G01X14574Y152827D01*
G01X14574Y152827D02*
G01X14569Y152851D01*
G01X14569Y152851D02*
G01X14565Y152875D01*
G01X14565Y152875D02*
G01X14563Y152900D01*
G01X14563Y152900D02*
G01X14561Y152924D01*
G01X14561Y152924D02*
G01X14560Y152949D01*
G01X14560Y152949D02*
G01X14560Y152974D01*
G01X14560Y152974D02*
G01X14562Y152998D01*
G01X14562Y152998D02*
G01X14564Y153023D01*
G01X14564Y153023D02*
G01X14567Y153047D01*
G01X14567Y153047D02*
G01X14571Y153071D01*
G01X14571Y153071D02*
G01X14577Y153095D01*
G01X14577Y153095D02*
G01X14583Y153119D01*
G01X14583Y153119D02*
G01X14590Y153143D01*
G01X14590Y153143D02*
G01X14598Y153166D01*
G01X14598Y153166D02*
G01X14608Y153189D01*
G01X14608Y153189D02*
G01X14617Y153211D01*
G01X14617Y153211D02*
G01X14629Y153233D01*
G01X14629Y153233D02*
G01X14640Y153255D01*
G01X14640Y153255D02*
G01X14653Y153276D01*
G01X14653Y153276D02*
G01X14667Y153297D01*
G01X14667Y153297D02*
G01X14681Y153316D01*
G01X14681Y153316D02*
G01X14696Y153336D01*
G01X14696Y153336D02*
G01X14712Y153355D01*
G01X14712Y153355D02*
G01X14729Y153373D01*
G01X14729Y153373D02*
G01X14747Y153390D01*
G01X14747Y153390D02*
G01X14765Y153407D01*
G01X14765Y153407D02*
G01X14784Y153422D01*
G01X14784Y153422D02*
G01X14803Y153437D01*
G01X14803Y153437D02*
G01X14823Y153452D01*
G01X14823Y153452D02*
G01X14844Y153465D01*
G01X14844Y153465D02*
G01X14865Y153478D01*
G01X14865Y153478D02*
G01X14887Y153489D01*
G01X14887Y153489D02*
G01X14909Y153500D01*
G01X14909Y153500D02*
G01X14932Y153510D01*
G01X14932Y153510D02*
G01X14955Y153519D01*
G01X14955Y153519D02*
G01X14978Y153527D01*
G01X14978Y153527D02*
G01X15002Y153534D01*
G01X15002Y153534D02*
G01X15026Y153540D01*
G01X15026Y153540D02*
G01X15050Y153545D01*
G01X15050Y153545D02*
G01X15074Y153549D01*
G01X15074Y153549D02*
G01X15099Y153552D01*
G01X15099Y153552D02*
G01X15123Y153554D01*
G01X15123Y153554D02*
G01X15148Y153555D01*
G01X15148Y153555D02*
G01X15172Y153555D01*
G01X15172Y153555D02*
G01X15197Y153554D01*
G01X15197Y153554D02*
G01X15221Y153552D01*
G01X15221Y153552D02*
G01X15246Y153549D01*
G01X15246Y153549D02*
G01X15270Y153545D01*
G01X15270Y153545D02*
G01X15294Y153540D01*
G01X15294Y153540D02*
G01X15318Y153534D01*
G01X15318Y153534D02*
G01X15342Y153527D01*
G01X15342Y153527D02*
G01X15365Y153519D01*
G01X15365Y153519D02*
G01X15388Y153510D01*
G01X15388Y153510D02*
G01X15411Y153500D01*
G01X15411Y153500D02*
G01X15433Y153489D01*
G01X15433Y153489D02*
G01X15455Y153478D01*
G01X15455Y153478D02*
G01X15476Y153465D01*
G01X15476Y153465D02*
G01X15497Y153452D01*
G01X15497Y153452D02*
G01X15517Y153437D01*
G01X15517Y153437D02*
G01X15536Y153422D01*
G01X15536Y153422D02*
G01X15555Y153407D01*
G01X15555Y153407D02*
G01X15573Y153390D01*
G01X15573Y153390D02*
G01X15591Y153373D01*
G01X15591Y153373D02*
G01X15608Y153355D01*
G01X15608Y153355D02*
G01X15624Y153336D01*
G01X15624Y153336D02*
G01X15639Y153316D01*
G01X15639Y153316D02*
G01X15653Y153297D01*
G01X15653Y153297D02*
G01X15667Y153276D01*
G01X15667Y153276D02*
G01X15680Y153255D01*
G01X15680Y153255D02*
G01X15691Y153233D01*
G01X15691Y153233D02*
G01X15703Y153211D01*
G01X15703Y153211D02*
G01X15712Y153189D01*
G01X15712Y153189D02*
G01X15722Y153166D01*
G01X15722Y153166D02*
G01X15730Y153143D01*
G01X15730Y153143D02*
G01X15737Y153119D01*
G01X15737Y153119D02*
G01X15743Y153095D01*
G01X15743Y153095D02*
G01X15749Y153071D01*
G01X15749Y153071D02*
G01X15753Y153047D01*
G01X15753Y153047D02*
G01X15756Y153023D01*
G01X15756Y153023D02*
G01X15758Y152998D01*
G01X15758Y152998D02*
G01X15760Y152974D01*
G01X15760Y152974D02*
G01X15760Y152949D01*
G01X15760Y152949D02*
G01X15759Y152924D01*
G01X15759Y152924D02*
G01X15757Y152900D01*
G01X15757Y152900D02*
G01X15755Y152875D01*
G01X15755Y152875D02*
G01X15751Y152851D01*
G01X15751Y152851D02*
G01X15746Y152827D01*
G01X15746Y152827D02*
G01X15740Y152803D01*
G01X15740Y152803D02*
G01X15734Y152779D01*
G01X15734Y152779D02*
G01X15726Y152756D01*
G01X15726Y152756D02*
G01X15717Y152732D01*
G01X15717Y152732D02*
G01X15708Y152710D01*
G01X15708Y152710D02*
G01X15697Y152688D01*
G01X15697Y152688D02*
G01X15686Y152666D01*
G01X15686Y152666D02*
G01X15673Y152644D01*
G01X15673Y152644D02*
G01X15660Y152624D01*
G01X15660Y152624D02*
G01X15646Y152603D01*
G01X15646Y152603D02*
G01X15631Y152584D01*
G01X15631Y152584D02*
G01X15616Y152565D01*
G01X15616Y152565D02*
G01X15599Y152546D01*
G01X15599Y152546D02*
G01X15582Y152529D01*
G01X15582Y152529D02*
G01X15564Y152512D01*
G01X15564Y152512D02*
G01X15546Y152496D01*
G01X15546Y152496D02*
G01X15527Y152480D01*
G01X15527Y152480D02*
G01X15507Y152465D01*
G01X15507Y152465D02*
G01X15486Y152452D01*
G01X15486Y152452D02*
G01X15465Y152439D01*
G01X15465Y152439D02*
G01X15444Y152426D01*
G01X15444Y152426D02*
G01X15422Y152415D01*
G01X15422Y152415D02*
G01X15400Y152405D01*
G01X15400Y152405D02*
G01X15377Y152396D01*
G01X15377Y152396D02*
G01X15354Y152387D01*
G01X15354Y152387D02*
G01X15330Y152380D01*
G01X15330Y152380D02*
G01X15306Y152373D01*
G01X15306Y152373D02*
G01X15282Y152368D01*
G01X15282Y152368D02*
G01X15258Y152363D01*
G01X15258Y152363D02*
G01X15234Y152360D01*
G01X15234Y152360D02*
G01X15209Y152357D01*
G01X15209Y152357D02*
G01X15185Y152356D01*
G01X15185Y152356D02*
G01X15160Y152355D01*
G01X15160Y102825D02*
G01X15135Y102826D01*
G01X15135Y102826D02*
G01X15111Y102827D01*
G01X15111Y102827D02*
G01X15086Y102830D01*
G01X15086Y102830D02*
G01X15062Y102833D01*
G01X15062Y102833D02*
G01X15038Y102838D01*
G01X15038Y102838D02*
G01X15014Y102843D01*
G01X15014Y102843D02*
G01X14990Y102850D01*
G01X14990Y102850D02*
G01X14966Y102857D01*
G01X14966Y102857D02*
G01X14943Y102866D01*
G01X14943Y102866D02*
G01X14920Y102875D01*
G01X14920Y102875D02*
G01X14898Y102885D01*
G01X14898Y102885D02*
G01X14876Y102896D01*
G01X14876Y102896D02*
G01X14855Y102909D01*
G01X14855Y102909D02*
G01X14834Y102922D01*
G01X14834Y102922D02*
G01X14813Y102935D01*
G01X14813Y102935D02*
G01X14793Y102950D01*
G01X14793Y102950D02*
G01X14774Y102966D01*
G01X14774Y102966D02*
G01X14756Y102982D01*
G01X14756Y102982D02*
G01X14738Y102999D01*
G01X14738Y102999D02*
G01X14721Y103016D01*
G01X14721Y103016D02*
G01X14704Y103035D01*
G01X14704Y103035D02*
G01X14689Y103054D01*
G01X14689Y103054D02*
G01X14674Y103073D01*
G01X14674Y103073D02*
G01X14660Y103094D01*
G01X14660Y103094D02*
G01X14647Y103114D01*
G01X14647Y103114D02*
G01X14634Y103136D01*
G01X14634Y103136D02*
G01X14623Y103158D01*
G01X14623Y103158D02*
G01X14612Y103180D01*
G01X14612Y103180D02*
G01X14603Y103202D01*
G01X14603Y103202D02*
G01X14594Y103226D01*
G01X14594Y103226D02*
G01X14586Y103249D01*
G01X14586Y103249D02*
G01X14580Y103273D01*
G01X14580Y103273D02*
G01X14574Y103297D01*
G01X14574Y103297D02*
G01X14569Y103321D01*
G01X14569Y103321D02*
G01X14565Y103345D01*
G01X14565Y103345D02*
G01X14563Y103370D01*
G01X14563Y103370D02*
G01X14561Y103394D01*
G01X14561Y103394D02*
G01X14560Y103419D01*
G01X14560Y103419D02*
G01X14560Y103444D01*
G01X14560Y103444D02*
G01X14562Y103468D01*
G01X14562Y103468D02*
G01X14564Y103493D01*
G01X14564Y103493D02*
G01X14567Y103517D01*
G01X14567Y103517D02*
G01X14571Y103541D01*
G01X14571Y103541D02*
G01X14577Y103565D01*
G01X14577Y103565D02*
G01X14583Y103589D01*
G01X14583Y103589D02*
G01X14590Y103613D01*
G01X14590Y103613D02*
G01X14598Y103636D01*
G01X14598Y103636D02*
G01X14608Y103659D01*
G01X14608Y103659D02*
G01X14617Y103681D01*
G01X14617Y103681D02*
G01X14629Y103703D01*
G01X14629Y103703D02*
G01X14640Y103725D01*
G01X14640Y103725D02*
G01X14653Y103746D01*
G01X14653Y103746D02*
G01X14667Y103767D01*
G01X14667Y103767D02*
G01X14681Y103786D01*
G01X14681Y103786D02*
G01X14696Y103806D01*
G01X14696Y103806D02*
G01X14712Y103825D01*
G01X14712Y103825D02*
G01X14729Y103843D01*
G01X14729Y103843D02*
G01X14747Y103860D01*
G01X14747Y103860D02*
G01X14765Y103877D01*
G01X14765Y103877D02*
G01X14784Y103892D01*
G01X14784Y103892D02*
G01X14803Y103907D01*
G01X14803Y103907D02*
G01X14823Y103922D01*
G01X14823Y103922D02*
G01X14844Y103935D01*
G01X14844Y103935D02*
G01X14865Y103948D01*
G01X14865Y103948D02*
G01X14887Y103959D01*
G01X14887Y103959D02*
G01X14909Y103970D01*
G01X14909Y103970D02*
G01X14932Y103980D01*
G01X14932Y103980D02*
G01X14955Y103989D01*
G01X14955Y103989D02*
G01X14978Y103997D01*
G01X14978Y103997D02*
G01X15002Y104004D01*
G01X15002Y104004D02*
G01X15026Y104010D01*
G01X15026Y104010D02*
G01X15050Y104015D01*
G01X15050Y104015D02*
G01X15074Y104019D01*
G01X15074Y104019D02*
G01X15099Y104022D01*
G01X15099Y104022D02*
G01X15123Y104024D01*
G01X15123Y104024D02*
G01X15148Y104025D01*
G01X15148Y104025D02*
G01X15172Y104025D01*
G01X15172Y104025D02*
G01X15197Y104024D01*
G01X15197Y104024D02*
G01X15221Y104022D01*
G01X15221Y104022D02*
G01X15246Y104019D01*
G01X15246Y104019D02*
G01X15270Y104015D01*
G01X15270Y104015D02*
G01X15294Y104010D01*
G01X15294Y104010D02*
G01X15318Y104004D01*
G01X15318Y104004D02*
G01X15342Y103997D01*
G01X15342Y103997D02*
G01X15365Y103989D01*
G01X15365Y103989D02*
G01X15388Y103980D01*
G01X15388Y103980D02*
G01X15411Y103970D01*
G01X15411Y103970D02*
G01X15433Y103959D01*
G01X15433Y103959D02*
G01X15455Y103948D01*
G01X15455Y103948D02*
G01X15476Y103935D01*
G01X15476Y103935D02*
G01X15497Y103922D01*
G01X15497Y103922D02*
G01X15517Y103907D01*
G01X15517Y103907D02*
G01X15536Y103892D01*
G01X15536Y103892D02*
G01X15555Y103877D01*
G01X15555Y103877D02*
G01X15573Y103860D01*
G01X15573Y103860D02*
G01X15591Y103843D01*
G01X15591Y103843D02*
G01X15608Y103825D01*
G01X15608Y103825D02*
G01X15624Y103806D01*
G01X15624Y103806D02*
G01X15639Y103786D01*
G01X15639Y103786D02*
G01X15653Y103767D01*
G01X15653Y103767D02*
G01X15667Y103746D01*
G01X15667Y103746D02*
G01X15680Y103725D01*
G01X15680Y103725D02*
G01X15691Y103703D01*
G01X15691Y103703D02*
G01X15703Y103681D01*
G01X15703Y103681D02*
G01X15712Y103659D01*
G01X15712Y103659D02*
G01X15722Y103636D01*
G01X15722Y103636D02*
G01X15730Y103613D01*
G01X15730Y103613D02*
G01X15737Y103589D01*
G01X15737Y103589D02*
G01X15743Y103565D01*
G01X15743Y103565D02*
G01X15749Y103541D01*
G01X15749Y103541D02*
G01X15753Y103517D01*
G01X15753Y103517D02*
G01X15756Y103493D01*
G01X15756Y103493D02*
G01X15758Y103468D01*
G01X15758Y103468D02*
G01X15760Y103444D01*
G01X15760Y103444D02*
G01X15760Y103419D01*
G01X15760Y103419D02*
G01X15759Y103394D01*
G01X15759Y103394D02*
G01X15757Y103370D01*
G01X15757Y103370D02*
G01X15755Y103345D01*
G01X15755Y103345D02*
G01X15751Y103321D01*
G01X15751Y103321D02*
G01X15746Y103297D01*
G01X15746Y103297D02*
G01X15740Y103273D01*
G01X15740Y103273D02*
G01X15734Y103249D01*
G01X15734Y103249D02*
G01X15726Y103226D01*
G01X15726Y103226D02*
G01X15717Y103202D01*
G01X15717Y103202D02*
G01X15708Y103180D01*
G01X15708Y103180D02*
G01X15697Y103158D01*
G01X15697Y103158D02*
G01X15686Y103136D01*
G01X15686Y103136D02*
G01X15673Y103114D01*
G01X15673Y103114D02*
G01X15660Y103094D01*
G01X15660Y103094D02*
G01X15646Y103073D01*
G01X15646Y103073D02*
G01X15631Y103054D01*
G01X15631Y103054D02*
G01X15616Y103035D01*
G01X15616Y103035D02*
G01X15599Y103016D01*
G01X15599Y103016D02*
G01X15582Y102999D01*
G01X15582Y102999D02*
G01X15564Y102982D01*
G01X15564Y102982D02*
G01X15546Y102966D01*
G01X15546Y102966D02*
G01X15527Y102950D01*
G01X15527Y102950D02*
G01X15507Y102935D01*
G01X15507Y102935D02*
G01X15486Y102922D01*
G01X15486Y102922D02*
G01X15465Y102909D01*
G01X15465Y102909D02*
G01X15444Y102896D01*
G01X15444Y102896D02*
G01X15422Y102885D01*
G01X15422Y102885D02*
G01X15400Y102875D01*
G01X15400Y102875D02*
G01X15377Y102866D01*
G01X15377Y102866D02*
G01X15354Y102857D01*
G01X15354Y102857D02*
G01X15330Y102850D01*
G01X15330Y102850D02*
G01X15306Y102843D01*
G01X15306Y102843D02*
G01X15282Y102838D01*
G01X15282Y102838D02*
G01X15258Y102833D01*
G01X15258Y102833D02*
G01X15234Y102830D01*
G01X15234Y102830D02*
G01X15209Y102827D01*
G01X15209Y102827D02*
G01X15185Y102826D01*
G01X15185Y102826D02*
G01X15160Y102825D01*
G01X15160Y100285D02*
G01X15135Y100286D01*
G01X15135Y100286D02*
G01X15111Y100287D01*
G01X15111Y100287D02*
G01X15086Y100290D01*
G01X15086Y100290D02*
G01X15062Y100293D01*
G01X15062Y100293D02*
G01X15038Y100298D01*
G01X15038Y100298D02*
G01X15014Y100303D01*
G01X15014Y100303D02*
G01X14990Y100310D01*
G01X14990Y100310D02*
G01X14966Y100317D01*
G01X14966Y100317D02*
G01X14943Y100326D01*
G01X14943Y100326D02*
G01X14920Y100335D01*
G01X14920Y100335D02*
G01X14898Y100345D01*
G01X14898Y100345D02*
G01X14876Y100356D01*
G01X14876Y100356D02*
G01X14855Y100369D01*
G01X14855Y100369D02*
G01X14834Y100382D01*
G01X14834Y100382D02*
G01X14813Y100395D01*
G01X14813Y100395D02*
G01X14793Y100410D01*
G01X14793Y100410D02*
G01X14774Y100426D01*
G01X14774Y100426D02*
G01X14756Y100442D01*
G01X14756Y100442D02*
G01X14738Y100459D01*
G01X14738Y100459D02*
G01X14721Y100476D01*
G01X14721Y100476D02*
G01X14704Y100495D01*
G01X14704Y100495D02*
G01X14689Y100514D01*
G01X14689Y100514D02*
G01X14674Y100533D01*
G01X14674Y100533D02*
G01X14660Y100554D01*
G01X14660Y100554D02*
G01X14647Y100574D01*
G01X14647Y100574D02*
G01X14634Y100596D01*
G01X14634Y100596D02*
G01X14623Y100618D01*
G01X14623Y100618D02*
G01X14612Y100640D01*
G01X14612Y100640D02*
G01X14603Y100662D01*
G01X14603Y100662D02*
G01X14594Y100686D01*
G01X14594Y100686D02*
G01X14586Y100709D01*
G01X14586Y100709D02*
G01X14580Y100733D01*
G01X14580Y100733D02*
G01X14574Y100757D01*
G01X14574Y100757D02*
G01X14569Y100781D01*
G01X14569Y100781D02*
G01X14565Y100805D01*
G01X14565Y100805D02*
G01X14563Y100830D01*
G01X14563Y100830D02*
G01X14561Y100854D01*
G01X14561Y100854D02*
G01X14560Y100879D01*
G01X14560Y100879D02*
G01X14560Y100904D01*
G01X14560Y100904D02*
G01X14562Y100928D01*
G01X14562Y100928D02*
G01X14564Y100953D01*
G01X14564Y100953D02*
G01X14567Y100977D01*
G01X14567Y100977D02*
G01X14571Y101001D01*
G01X14571Y101001D02*
G01X14577Y101025D01*
G01X14577Y101025D02*
G01X14583Y101049D01*
G01X14583Y101049D02*
G01X14590Y101073D01*
G01X14590Y101073D02*
G01X14598Y101096D01*
G01X14598Y101096D02*
G01X14608Y101119D01*
G01X14608Y101119D02*
G01X14617Y101141D01*
G01X14617Y101141D02*
G01X14629Y101163D01*
G01X14629Y101163D02*
G01X14640Y101185D01*
G01X14640Y101185D02*
G01X14653Y101206D01*
G01X14653Y101206D02*
G01X14667Y101227D01*
G01X14667Y101227D02*
G01X14681Y101246D01*
G01X14681Y101246D02*
G01X14696Y101266D01*
G01X14696Y101266D02*
G01X14712Y101285D01*
G01X14712Y101285D02*
G01X14729Y101303D01*
G01X14729Y101303D02*
G01X14747Y101320D01*
G01X14747Y101320D02*
G01X14765Y101337D01*
G01X14765Y101337D02*
G01X14784Y101352D01*
G01X14784Y101352D02*
G01X14803Y101367D01*
G01X14803Y101367D02*
G01X14823Y101382D01*
G01X14823Y101382D02*
G01X14844Y101395D01*
G01X14844Y101395D02*
G01X14865Y101408D01*
G01X14865Y101408D02*
G01X14887Y101419D01*
G01X14887Y101419D02*
G01X14909Y101430D01*
G01X14909Y101430D02*
G01X14932Y101440D01*
G01X14932Y101440D02*
G01X14955Y101449D01*
G01X14955Y101449D02*
G01X14978Y101457D01*
G01X14978Y101457D02*
G01X15002Y101464D01*
G01X15002Y101464D02*
G01X15026Y101470D01*
G01X15026Y101470D02*
G01X15050Y101475D01*
G01X15050Y101475D02*
G01X15074Y101479D01*
G01X15074Y101479D02*
G01X15099Y101482D01*
G01X15099Y101482D02*
G01X15123Y101484D01*
G01X15123Y101484D02*
G01X15148Y101485D01*
G01X15148Y101485D02*
G01X15172Y101485D01*
G01X15172Y101485D02*
G01X15197Y101484D01*
G01X15197Y101484D02*
G01X15221Y101482D01*
G01X15221Y101482D02*
G01X15246Y101479D01*
G01X15246Y101479D02*
G01X15270Y101475D01*
G01X15270Y101475D02*
G01X15294Y101470D01*
G01X15294Y101470D02*
G01X15318Y101464D01*
G01X15318Y101464D02*
G01X15342Y101457D01*
G01X15342Y101457D02*
G01X15365Y101449D01*
G01X15365Y101449D02*
G01X15388Y101440D01*
G01X15388Y101440D02*
G01X15411Y101430D01*
G01X15411Y101430D02*
G01X15433Y101419D01*
G01X15433Y101419D02*
G01X15455Y101408D01*
G01X15455Y101408D02*
G01X15476Y101395D01*
G01X15476Y101395D02*
G01X15497Y101382D01*
G01X15497Y101382D02*
G01X15517Y101367D01*
G01X15517Y101367D02*
G01X15536Y101352D01*
G01X15536Y101352D02*
G01X15555Y101337D01*
G01X15555Y101337D02*
G01X15573Y101320D01*
G01X15573Y101320D02*
G01X15591Y101303D01*
G01X15591Y101303D02*
G01X15608Y101285D01*
G01X15608Y101285D02*
G01X15624Y101266D01*
G01X15624Y101266D02*
G01X15639Y101246D01*
G01X15639Y101246D02*
G01X15653Y101227D01*
G01X15653Y101227D02*
G01X15667Y101206D01*
G01X15667Y101206D02*
G01X15680Y101185D01*
G01X15680Y101185D02*
G01X15691Y101163D01*
G01X15691Y101163D02*
G01X15703Y101141D01*
G01X15703Y101141D02*
G01X15712Y101119D01*
G01X15712Y101119D02*
G01X15722Y101096D01*
G01X15722Y101096D02*
G01X15730Y101073D01*
G01X15730Y101073D02*
G01X15737Y101049D01*
G01X15737Y101049D02*
G01X15743Y101025D01*
G01X15743Y101025D02*
G01X15749Y101001D01*
G01X15749Y101001D02*
G01X15753Y100977D01*
G01X15753Y100977D02*
G01X15756Y100953D01*
G01X15756Y100953D02*
G01X15758Y100928D01*
G01X15758Y100928D02*
G01X15760Y100904D01*
G01X15760Y100904D02*
G01X15760Y100879D01*
G01X15760Y100879D02*
G01X15759Y100854D01*
G01X15759Y100854D02*
G01X15757Y100830D01*
G01X15757Y100830D02*
G01X15755Y100805D01*
G01X15755Y100805D02*
G01X15751Y100781D01*
G01X15751Y100781D02*
G01X15746Y100757D01*
G01X15746Y100757D02*
G01X15740Y100733D01*
G01X15740Y100733D02*
G01X15734Y100709D01*
G01X15734Y100709D02*
G01X15726Y100686D01*
G01X15726Y100686D02*
G01X15717Y100662D01*
G01X15717Y100662D02*
G01X15708Y100640D01*
G01X15708Y100640D02*
G01X15697Y100618D01*
G01X15697Y100618D02*
G01X15686Y100596D01*
G01X15686Y100596D02*
G01X15673Y100574D01*
G01X15673Y100574D02*
G01X15660Y100554D01*
G01X15660Y100554D02*
G01X15646Y100533D01*
G01X15646Y100533D02*
G01X15631Y100514D01*
G01X15631Y100514D02*
G01X15616Y100495D01*
G01X15616Y100495D02*
G01X15599Y100476D01*
G01X15599Y100476D02*
G01X15582Y100459D01*
G01X15582Y100459D02*
G01X15564Y100442D01*
G01X15564Y100442D02*
G01X15546Y100426D01*
G01X15546Y100426D02*
G01X15527Y100410D01*
G01X15527Y100410D02*
G01X15507Y100395D01*
G01X15507Y100395D02*
G01X15486Y100382D01*
G01X15486Y100382D02*
G01X15465Y100369D01*
G01X15465Y100369D02*
G01X15444Y100356D01*
G01X15444Y100356D02*
G01X15422Y100345D01*
G01X15422Y100345D02*
G01X15400Y100335D01*
G01X15400Y100335D02*
G01X15377Y100326D01*
G01X15377Y100326D02*
G01X15354Y100317D01*
G01X15354Y100317D02*
G01X15330Y100310D01*
G01X15330Y100310D02*
G01X15306Y100303D01*
G01X15306Y100303D02*
G01X15282Y100298D01*
G01X15282Y100298D02*
G01X15258Y100293D01*
G01X15258Y100293D02*
G01X15234Y100290D01*
G01X15234Y100290D02*
G01X15209Y100287D01*
G01X15209Y100287D02*
G01X15185Y100286D01*
G01X15185Y100286D02*
G01X15160Y100285D01*
G01X124380Y67230D01*
G75*
%LPD*%
D17*
G01*
X0Y0D02*
G75*
G01*
X131920Y0D01*
G01*
X131920Y186530D01*
G01*
X0Y186530D01*
G01*
X0Y0D01*
M02*
