G75*
%MOIN*%
%OFA0B0*%
%FSLAX25Y25*%
%IPPOS*%
%LPD*%
%AMOC8*
5,1,8,0,0,1.08239X$1,22.5*
%
%ADD10C,0.00433*%
%ADD11C,0.00748*%
%ADD12C,0.00488*%
%ADD13C,0.00394*%
%ADD14C,0.00228*%
%ADD15R,0.02559X0.02559*%
%ADD16C,0.00409*%
D10*
X0078910Y0121344D02*
X0082414Y0121344D01*
X0078910Y0121344D02*
X0078910Y0123076D01*
X0082414Y0123076D01*
X0082414Y0121344D01*
X0082414Y0121776D02*
X0078910Y0121776D01*
X0078910Y0122208D02*
X0082414Y0122208D01*
X0082414Y0122640D02*
X0078910Y0122640D01*
X0078910Y0123072D02*
X0082414Y0123072D01*
X0082414Y0125084D02*
X0078910Y0125084D01*
X0078910Y0126816D01*
X0082414Y0126816D01*
X0082414Y0125084D01*
X0082414Y0125516D02*
X0078910Y0125516D01*
X0078910Y0125948D02*
X0082414Y0125948D01*
X0082414Y0126380D02*
X0078910Y0126380D01*
X0078910Y0126812D02*
X0082414Y0126812D01*
X0082414Y0128824D02*
X0078910Y0128824D01*
X0078910Y0130556D01*
X0082414Y0130556D01*
X0082414Y0128824D01*
X0082414Y0129256D02*
X0078910Y0129256D01*
X0078910Y0129688D02*
X0082414Y0129688D01*
X0082414Y0130120D02*
X0078910Y0130120D01*
X0078910Y0130552D02*
X0082414Y0130552D01*
X0089540Y0128824D02*
X0093044Y0128824D01*
X0089540Y0128824D02*
X0089540Y0130556D01*
X0093044Y0130556D01*
X0093044Y0128824D01*
X0093044Y0129256D02*
X0089540Y0129256D01*
X0089540Y0129688D02*
X0093044Y0129688D01*
X0093044Y0130120D02*
X0089540Y0130120D01*
X0089540Y0130552D02*
X0093044Y0130552D01*
X0093044Y0125084D02*
X0089540Y0125084D01*
X0089540Y0126816D01*
X0093044Y0126816D01*
X0093044Y0125084D01*
X0093044Y0125516D02*
X0089540Y0125516D01*
X0089540Y0125948D02*
X0093044Y0125948D01*
X0093044Y0126380D02*
X0089540Y0126380D01*
X0089540Y0126812D02*
X0093044Y0126812D01*
X0093044Y0121344D02*
X0089540Y0121344D01*
X0089540Y0123076D01*
X0093044Y0123076D01*
X0093044Y0121344D01*
X0093044Y0121776D02*
X0089540Y0121776D01*
X0089540Y0122208D02*
X0093044Y0122208D01*
X0093044Y0122640D02*
X0089540Y0122640D01*
X0089540Y0123072D02*
X0093044Y0123072D01*
D11*
X0051883Y0040546D02*
X0051883Y0037554D01*
X0051883Y0040546D02*
X0055071Y0040546D01*
X0055071Y0037554D01*
X0051883Y0037554D01*
X0051883Y0038301D02*
X0055071Y0038301D01*
X0055071Y0039048D02*
X0051883Y0039048D01*
X0051883Y0039795D02*
X0055071Y0039795D01*
X0055071Y0040542D02*
X0051883Y0040542D01*
X0051883Y0043854D02*
X0051883Y0046846D01*
X0055071Y0046846D01*
X0055071Y0043854D01*
X0051883Y0043854D01*
X0051883Y0044601D02*
X0055071Y0044601D01*
X0055071Y0045348D02*
X0051883Y0045348D01*
X0051883Y0046095D02*
X0055071Y0046095D01*
X0055071Y0046842D02*
X0051883Y0046842D01*
X0080865Y0113313D02*
X0083857Y0113313D01*
X0080865Y0113313D02*
X0080865Y0116501D01*
X0083857Y0116501D01*
X0083857Y0113313D01*
X0083857Y0114060D02*
X0080865Y0114060D01*
X0080865Y0114807D02*
X0083857Y0114807D01*
X0083857Y0115554D02*
X0080865Y0115554D01*
X0080865Y0116301D02*
X0083857Y0116301D01*
X0087164Y0113313D02*
X0090156Y0113313D01*
X0087164Y0113313D02*
X0087164Y0116501D01*
X0090156Y0116501D01*
X0090156Y0113313D01*
X0090156Y0114060D02*
X0087164Y0114060D01*
X0087164Y0114807D02*
X0090156Y0114807D01*
X0090156Y0115554D02*
X0087164Y0115554D01*
X0087164Y0116301D02*
X0090156Y0116301D01*
X0095416Y0117564D02*
X0095416Y0120556D01*
X0098604Y0120556D01*
X0098604Y0117564D01*
X0095416Y0117564D01*
X0095416Y0118311D02*
X0098604Y0118311D01*
X0098604Y0119058D02*
X0095416Y0119058D01*
X0095416Y0119805D02*
X0098604Y0119805D01*
X0098604Y0120552D02*
X0095416Y0120552D01*
X0095416Y0123863D02*
X0095416Y0126855D01*
X0098604Y0126855D01*
X0098604Y0123863D01*
X0095416Y0123863D01*
X0095416Y0124610D02*
X0098604Y0124610D01*
X0098604Y0125357D02*
X0095416Y0125357D01*
X0095416Y0126104D02*
X0098604Y0126104D01*
X0098604Y0126851D02*
X0095416Y0126851D01*
X0103821Y0127604D02*
X0103821Y0130596D01*
X0103821Y0127604D02*
X0100633Y0127604D01*
X0100633Y0130596D01*
X0103821Y0130596D01*
X0103821Y0128351D02*
X0100633Y0128351D01*
X0100633Y0129098D02*
X0103821Y0129098D01*
X0103821Y0129845D02*
X0100633Y0129845D01*
X0100633Y0130592D02*
X0103821Y0130592D01*
X0103821Y0124296D02*
X0103821Y0121304D01*
X0100633Y0121304D01*
X0100633Y0124296D01*
X0103821Y0124296D01*
X0103821Y0122051D02*
X0100633Y0122051D01*
X0100633Y0122798D02*
X0103821Y0122798D01*
X0103821Y0123545D02*
X0100633Y0123545D01*
X0100633Y0124292D02*
X0103821Y0124292D01*
X0055071Y0123046D02*
X0055071Y0120054D01*
X0051883Y0120054D01*
X0051883Y0123046D01*
X0055071Y0123046D01*
X0055071Y0120801D02*
X0051883Y0120801D01*
X0051883Y0121548D02*
X0055071Y0121548D01*
X0055071Y0122295D02*
X0051883Y0122295D01*
X0051883Y0123042D02*
X0055071Y0123042D01*
X0055071Y0126354D02*
X0055071Y0129346D01*
X0055071Y0126354D02*
X0051883Y0126354D01*
X0051883Y0129346D01*
X0055071Y0129346D01*
X0055071Y0127101D02*
X0051883Y0127101D01*
X0051883Y0127848D02*
X0055071Y0127848D01*
X0055071Y0128595D02*
X0051883Y0128595D01*
X0051883Y0129342D02*
X0055071Y0129342D01*
D12*
X0059703Y0128948D02*
X0059703Y0126996D01*
X0057751Y0126996D01*
X0057751Y0128948D01*
X0059703Y0128948D01*
X0059703Y0127483D02*
X0057751Y0127483D01*
X0057751Y0127970D02*
X0059703Y0127970D01*
X0059703Y0128457D02*
X0057751Y0128457D01*
X0057751Y0128944D02*
X0059703Y0128944D01*
X0059703Y0125404D02*
X0059703Y0123452D01*
X0057751Y0123452D01*
X0057751Y0125404D01*
X0059703Y0125404D01*
X0059703Y0123939D02*
X0057751Y0123939D01*
X0057751Y0124426D02*
X0059703Y0124426D01*
X0059703Y0124913D02*
X0057751Y0124913D01*
X0057751Y0125400D02*
X0059703Y0125400D01*
X0083849Y0100961D02*
X0083849Y0099009D01*
X0083849Y0100961D02*
X0085801Y0100961D01*
X0085801Y0099009D01*
X0083849Y0099009D01*
X0083849Y0099496D02*
X0085801Y0099496D01*
X0085801Y0099983D02*
X0083849Y0099983D01*
X0083849Y0100470D02*
X0085801Y0100470D01*
X0085801Y0100957D02*
X0083849Y0100957D01*
X0083849Y0097418D02*
X0083849Y0095466D01*
X0083849Y0097418D02*
X0085801Y0097418D01*
X0085801Y0095466D01*
X0083849Y0095466D01*
X0083849Y0095953D02*
X0085801Y0095953D01*
X0085801Y0096440D02*
X0083849Y0096440D01*
X0083849Y0096927D02*
X0085801Y0096927D01*
X0085801Y0097414D02*
X0083849Y0097414D01*
X0087786Y0097418D02*
X0087786Y0095466D01*
X0087786Y0097418D02*
X0089738Y0097418D01*
X0089738Y0095466D01*
X0087786Y0095466D01*
X0087786Y0095953D02*
X0089738Y0095953D01*
X0089738Y0096440D02*
X0087786Y0096440D01*
X0087786Y0096927D02*
X0089738Y0096927D01*
X0089738Y0097414D02*
X0087786Y0097414D01*
X0087786Y0099009D02*
X0087786Y0100961D01*
X0089738Y0100961D01*
X0089738Y0099009D01*
X0087786Y0099009D01*
X0087786Y0099496D02*
X0089738Y0099496D01*
X0089738Y0099983D02*
X0087786Y0099983D01*
X0087786Y0100470D02*
X0089738Y0100470D01*
X0089738Y0100957D02*
X0087786Y0100957D01*
X0091723Y0100961D02*
X0091723Y0099009D01*
X0091723Y0100961D02*
X0093675Y0100961D01*
X0093675Y0099009D01*
X0091723Y0099009D01*
X0091723Y0099496D02*
X0093675Y0099496D01*
X0093675Y0099983D02*
X0091723Y0099983D01*
X0091723Y0100470D02*
X0093675Y0100470D01*
X0093675Y0100957D02*
X0091723Y0100957D01*
X0091723Y0097418D02*
X0091723Y0095466D01*
X0091723Y0097418D02*
X0093675Y0097418D01*
X0093675Y0095466D01*
X0091723Y0095466D01*
X0091723Y0095953D02*
X0093675Y0095953D01*
X0093675Y0096440D02*
X0091723Y0096440D01*
X0091723Y0096927D02*
X0093675Y0096927D01*
X0093675Y0097414D02*
X0091723Y0097414D01*
X0097612Y0097418D02*
X0097612Y0095466D01*
X0095660Y0095466D01*
X0095660Y0097418D01*
X0097612Y0097418D01*
X0097612Y0095953D02*
X0095660Y0095953D01*
X0095660Y0096440D02*
X0097612Y0096440D01*
X0097612Y0096927D02*
X0095660Y0096927D01*
X0095660Y0097414D02*
X0097612Y0097414D01*
X0097612Y0099009D02*
X0097612Y0100961D01*
X0097612Y0099009D02*
X0095660Y0099009D01*
X0095660Y0100961D01*
X0097612Y0100961D01*
X0097612Y0099496D02*
X0095660Y0099496D01*
X0095660Y0099983D02*
X0097612Y0099983D01*
X0097612Y0100470D02*
X0095660Y0100470D01*
X0095660Y0100957D02*
X0097612Y0100957D01*
X0095660Y0055686D02*
X0095660Y0053734D01*
X0095660Y0055686D02*
X0097612Y0055686D01*
X0097612Y0053734D01*
X0095660Y0053734D01*
X0095660Y0054221D02*
X0097612Y0054221D01*
X0097612Y0054708D02*
X0095660Y0054708D01*
X0095660Y0055195D02*
X0097612Y0055195D01*
X0097612Y0055682D02*
X0095660Y0055682D01*
X0095660Y0052143D02*
X0095660Y0050191D01*
X0095660Y0052143D02*
X0097612Y0052143D01*
X0097612Y0050191D01*
X0095660Y0050191D01*
X0095660Y0050678D02*
X0097612Y0050678D01*
X0097612Y0051165D02*
X0095660Y0051165D01*
X0095660Y0051652D02*
X0097612Y0051652D01*
X0097612Y0052139D02*
X0095660Y0052139D01*
X0089738Y0052143D02*
X0089738Y0050191D01*
X0087786Y0050191D01*
X0087786Y0052143D01*
X0089738Y0052143D01*
X0089738Y0050678D02*
X0087786Y0050678D01*
X0087786Y0051165D02*
X0089738Y0051165D01*
X0089738Y0051652D02*
X0087786Y0051652D01*
X0087786Y0052139D02*
X0089738Y0052139D01*
X0089738Y0053734D02*
X0089738Y0055686D01*
X0089738Y0053734D02*
X0087786Y0053734D01*
X0087786Y0055686D01*
X0089738Y0055686D01*
X0089738Y0054221D02*
X0087786Y0054221D01*
X0087786Y0054708D02*
X0089738Y0054708D01*
X0089738Y0055195D02*
X0087786Y0055195D01*
X0087786Y0055682D02*
X0089738Y0055682D01*
X0085801Y0055686D02*
X0085801Y0053734D01*
X0083849Y0053734D01*
X0083849Y0055686D01*
X0085801Y0055686D01*
X0085801Y0054221D02*
X0083849Y0054221D01*
X0083849Y0054708D02*
X0085801Y0054708D01*
X0085801Y0055195D02*
X0083849Y0055195D01*
X0083849Y0055682D02*
X0085801Y0055682D01*
X0085801Y0052143D02*
X0085801Y0050191D01*
X0083849Y0050191D01*
X0083849Y0052143D01*
X0085801Y0052143D01*
X0085801Y0050678D02*
X0083849Y0050678D01*
X0083849Y0051165D02*
X0085801Y0051165D01*
X0085801Y0051652D02*
X0083849Y0051652D01*
X0083849Y0052139D02*
X0085801Y0052139D01*
X0105229Y0043974D02*
X0107181Y0043974D01*
X0105229Y0043974D02*
X0105229Y0045926D01*
X0107181Y0045926D01*
X0107181Y0043974D01*
X0107181Y0044461D02*
X0105229Y0044461D01*
X0105229Y0044948D02*
X0107181Y0044948D01*
X0107181Y0045435D02*
X0105229Y0045435D01*
X0105229Y0045922D02*
X0107181Y0045922D01*
X0108773Y0043974D02*
X0110725Y0043974D01*
X0108773Y0043974D02*
X0108773Y0045926D01*
X0110725Y0045926D01*
X0110725Y0043974D01*
X0110725Y0044461D02*
X0108773Y0044461D01*
X0108773Y0044948D02*
X0110725Y0044948D01*
X0110725Y0045435D02*
X0108773Y0045435D01*
X0108773Y0045922D02*
X0110725Y0045922D01*
X0108751Y0042448D02*
X0108751Y0040496D01*
X0108751Y0042448D02*
X0110703Y0042448D01*
X0110703Y0040496D01*
X0108751Y0040496D01*
X0108751Y0040983D02*
X0110703Y0040983D01*
X0110703Y0041470D02*
X0108751Y0041470D01*
X0108751Y0041957D02*
X0110703Y0041957D01*
X0110703Y0042444D02*
X0108751Y0042444D01*
X0105251Y0042448D02*
X0105251Y0040496D01*
X0105251Y0042448D02*
X0107203Y0042448D01*
X0107203Y0040496D01*
X0105251Y0040496D01*
X0105251Y0040983D02*
X0107203Y0040983D01*
X0107203Y0041470D02*
X0105251Y0041470D01*
X0105251Y0041957D02*
X0107203Y0041957D01*
X0107203Y0042444D02*
X0105251Y0042444D01*
X0105251Y0038904D02*
X0105251Y0036952D01*
X0105251Y0038904D02*
X0107203Y0038904D01*
X0107203Y0036952D01*
X0105251Y0036952D01*
X0105251Y0037439D02*
X0107203Y0037439D01*
X0107203Y0037926D02*
X0105251Y0037926D01*
X0105251Y0038413D02*
X0107203Y0038413D01*
X0107203Y0038900D02*
X0105251Y0038900D01*
X0108751Y0038904D02*
X0108751Y0036952D01*
X0108751Y0038904D02*
X0110703Y0038904D01*
X0110703Y0036952D01*
X0108751Y0036952D01*
X0108751Y0037439D02*
X0110703Y0037439D01*
X0110703Y0037926D02*
X0108751Y0037926D01*
X0108751Y0038413D02*
X0110703Y0038413D01*
X0110703Y0038900D02*
X0108751Y0038900D01*
X0057751Y0037952D02*
X0057751Y0039904D01*
X0059703Y0039904D01*
X0059703Y0037952D01*
X0057751Y0037952D01*
X0057751Y0038439D02*
X0059703Y0038439D01*
X0059703Y0038926D02*
X0057751Y0038926D01*
X0057751Y0039413D02*
X0059703Y0039413D01*
X0059703Y0039900D02*
X0057751Y0039900D01*
X0057751Y0041496D02*
X0057751Y0043448D01*
X0059703Y0043448D01*
X0059703Y0041496D01*
X0057751Y0041496D01*
X0057751Y0041983D02*
X0059703Y0041983D01*
X0059703Y0042470D02*
X0057751Y0042470D01*
X0057751Y0042957D02*
X0059703Y0042957D01*
X0059703Y0043444D02*
X0057751Y0043444D01*
D13*
X0080691Y0094671D02*
X0080691Y0097033D01*
X0080691Y0094671D02*
X0079117Y0094671D01*
X0079117Y0097033D01*
X0080691Y0097033D01*
X0080691Y0095064D02*
X0079117Y0095064D01*
X0079117Y0095457D02*
X0080691Y0095457D01*
X0080691Y0095850D02*
X0079117Y0095850D01*
X0079117Y0096243D02*
X0080691Y0096243D01*
X0080691Y0096636D02*
X0079117Y0096636D01*
X0079117Y0097029D02*
X0080691Y0097029D01*
X0080691Y0099789D02*
X0080691Y0102151D01*
X0080691Y0099789D02*
X0079117Y0099789D01*
X0079117Y0102151D01*
X0080691Y0102151D01*
X0080691Y0100182D02*
X0079117Y0100182D01*
X0079117Y0100575D02*
X0080691Y0100575D01*
X0080691Y0100968D02*
X0079117Y0100968D01*
X0079117Y0101361D02*
X0080691Y0101361D01*
X0080691Y0101754D02*
X0079117Y0101754D01*
X0079117Y0102147D02*
X0080691Y0102147D01*
D14*
X0086337Y0087272D02*
X0087251Y0087272D01*
X0087251Y0083958D01*
X0086337Y0083958D01*
X0086337Y0087272D01*
X0086337Y0084185D02*
X0087251Y0084185D01*
X0087251Y0084412D02*
X0086337Y0084412D01*
X0086337Y0084639D02*
X0087251Y0084639D01*
X0087251Y0084866D02*
X0086337Y0084866D01*
X0086337Y0085093D02*
X0087251Y0085093D01*
X0087251Y0085320D02*
X0086337Y0085320D01*
X0086337Y0085547D02*
X0087251Y0085547D01*
X0087251Y0085774D02*
X0086337Y0085774D01*
X0086337Y0086001D02*
X0087251Y0086001D01*
X0087251Y0086228D02*
X0086337Y0086228D01*
X0086337Y0086455D02*
X0087251Y0086455D01*
X0087251Y0086682D02*
X0086337Y0086682D01*
X0086337Y0086909D02*
X0087251Y0086909D01*
X0087251Y0087136D02*
X0086337Y0087136D01*
X0088305Y0083958D02*
X0089219Y0083958D01*
X0088305Y0083958D02*
X0088305Y0087272D01*
X0089219Y0087272D01*
X0089219Y0083958D01*
X0089219Y0084185D02*
X0088305Y0084185D01*
X0088305Y0084412D02*
X0089219Y0084412D01*
X0089219Y0084639D02*
X0088305Y0084639D01*
X0088305Y0084866D02*
X0089219Y0084866D01*
X0089219Y0085093D02*
X0088305Y0085093D01*
X0088305Y0085320D02*
X0089219Y0085320D01*
X0089219Y0085547D02*
X0088305Y0085547D01*
X0088305Y0085774D02*
X0089219Y0085774D01*
X0089219Y0086001D02*
X0088305Y0086001D01*
X0088305Y0086228D02*
X0089219Y0086228D01*
X0089219Y0086455D02*
X0088305Y0086455D01*
X0088305Y0086682D02*
X0089219Y0086682D01*
X0089219Y0086909D02*
X0088305Y0086909D01*
X0088305Y0087136D02*
X0089219Y0087136D01*
X0090274Y0087272D02*
X0091188Y0087272D01*
X0091188Y0083958D01*
X0090274Y0083958D01*
X0090274Y0087272D01*
X0090274Y0084185D02*
X0091188Y0084185D01*
X0091188Y0084412D02*
X0090274Y0084412D01*
X0090274Y0084639D02*
X0091188Y0084639D01*
X0091188Y0084866D02*
X0090274Y0084866D01*
X0090274Y0085093D02*
X0091188Y0085093D01*
X0091188Y0085320D02*
X0090274Y0085320D01*
X0090274Y0085547D02*
X0091188Y0085547D01*
X0091188Y0085774D02*
X0090274Y0085774D01*
X0090274Y0086001D02*
X0091188Y0086001D01*
X0091188Y0086228D02*
X0090274Y0086228D01*
X0090274Y0086455D02*
X0091188Y0086455D01*
X0091188Y0086682D02*
X0090274Y0086682D01*
X0090274Y0086909D02*
X0091188Y0086909D01*
X0091188Y0087136D02*
X0090274Y0087136D01*
X0092242Y0087272D02*
X0093156Y0087272D01*
X0093156Y0083958D01*
X0092242Y0083958D01*
X0092242Y0087272D01*
X0092242Y0084185D02*
X0093156Y0084185D01*
X0093156Y0084412D02*
X0092242Y0084412D01*
X0092242Y0084639D02*
X0093156Y0084639D01*
X0093156Y0084866D02*
X0092242Y0084866D01*
X0092242Y0085093D02*
X0093156Y0085093D01*
X0093156Y0085320D02*
X0092242Y0085320D01*
X0092242Y0085547D02*
X0093156Y0085547D01*
X0093156Y0085774D02*
X0092242Y0085774D01*
X0092242Y0086001D02*
X0093156Y0086001D01*
X0093156Y0086228D02*
X0092242Y0086228D01*
X0092242Y0086455D02*
X0093156Y0086455D01*
X0093156Y0086682D02*
X0092242Y0086682D01*
X0092242Y0086909D02*
X0093156Y0086909D01*
X0093156Y0087136D02*
X0092242Y0087136D01*
X0094211Y0087272D02*
X0095125Y0087272D01*
X0095125Y0083958D01*
X0094211Y0083958D01*
X0094211Y0087272D01*
X0094211Y0084185D02*
X0095125Y0084185D01*
X0095125Y0084412D02*
X0094211Y0084412D01*
X0094211Y0084639D02*
X0095125Y0084639D01*
X0095125Y0084866D02*
X0094211Y0084866D01*
X0094211Y0085093D02*
X0095125Y0085093D01*
X0095125Y0085320D02*
X0094211Y0085320D01*
X0094211Y0085547D02*
X0095125Y0085547D01*
X0095125Y0085774D02*
X0094211Y0085774D01*
X0094211Y0086001D02*
X0095125Y0086001D01*
X0095125Y0086228D02*
X0094211Y0086228D01*
X0094211Y0086455D02*
X0095125Y0086455D01*
X0095125Y0086682D02*
X0094211Y0086682D01*
X0094211Y0086909D02*
X0095125Y0086909D01*
X0095125Y0087136D02*
X0094211Y0087136D01*
X0096179Y0087272D02*
X0097093Y0087272D01*
X0097093Y0083958D01*
X0096179Y0083958D01*
X0096179Y0087272D01*
X0096179Y0084185D02*
X0097093Y0084185D01*
X0097093Y0084412D02*
X0096179Y0084412D01*
X0096179Y0084639D02*
X0097093Y0084639D01*
X0097093Y0084866D02*
X0096179Y0084866D01*
X0096179Y0085093D02*
X0097093Y0085093D01*
X0097093Y0085320D02*
X0096179Y0085320D01*
X0096179Y0085547D02*
X0097093Y0085547D01*
X0097093Y0085774D02*
X0096179Y0085774D01*
X0096179Y0086001D02*
X0097093Y0086001D01*
X0097093Y0086228D02*
X0096179Y0086228D01*
X0096179Y0086455D02*
X0097093Y0086455D01*
X0097093Y0086682D02*
X0096179Y0086682D01*
X0096179Y0086909D02*
X0097093Y0086909D01*
X0097093Y0087136D02*
X0096179Y0087136D01*
X0098148Y0087272D02*
X0099062Y0087272D01*
X0099062Y0083958D01*
X0098148Y0083958D01*
X0098148Y0087272D01*
X0098148Y0084185D02*
X0099062Y0084185D01*
X0099062Y0084412D02*
X0098148Y0084412D01*
X0098148Y0084639D02*
X0099062Y0084639D01*
X0099062Y0084866D02*
X0098148Y0084866D01*
X0098148Y0085093D02*
X0099062Y0085093D01*
X0099062Y0085320D02*
X0098148Y0085320D01*
X0098148Y0085547D02*
X0099062Y0085547D01*
X0099062Y0085774D02*
X0098148Y0085774D01*
X0098148Y0086001D02*
X0099062Y0086001D01*
X0099062Y0086228D02*
X0098148Y0086228D01*
X0098148Y0086455D02*
X0099062Y0086455D01*
X0099062Y0086682D02*
X0098148Y0086682D01*
X0098148Y0086909D02*
X0099062Y0086909D01*
X0099062Y0087136D02*
X0098148Y0087136D01*
X0100116Y0087272D02*
X0101030Y0087272D01*
X0101030Y0083958D01*
X0100116Y0083958D01*
X0100116Y0087272D01*
X0100116Y0084185D02*
X0101030Y0084185D01*
X0101030Y0084412D02*
X0100116Y0084412D01*
X0100116Y0084639D02*
X0101030Y0084639D01*
X0101030Y0084866D02*
X0100116Y0084866D01*
X0100116Y0085093D02*
X0101030Y0085093D01*
X0101030Y0085320D02*
X0100116Y0085320D01*
X0100116Y0085547D02*
X0101030Y0085547D01*
X0101030Y0085774D02*
X0100116Y0085774D01*
X0100116Y0086001D02*
X0101030Y0086001D01*
X0101030Y0086228D02*
X0100116Y0086228D01*
X0100116Y0086455D02*
X0101030Y0086455D01*
X0101030Y0086682D02*
X0100116Y0086682D01*
X0100116Y0086909D02*
X0101030Y0086909D01*
X0101030Y0087136D02*
X0100116Y0087136D01*
X0105380Y0082923D02*
X0105380Y0082009D01*
X0102066Y0082009D01*
X0102066Y0082923D01*
X0105380Y0082923D01*
X0105380Y0082236D02*
X0102066Y0082236D01*
X0102066Y0082463D02*
X0105380Y0082463D01*
X0105380Y0082690D02*
X0102066Y0082690D01*
X0102066Y0082917D02*
X0105380Y0082917D01*
X0105380Y0080954D02*
X0105380Y0080040D01*
X0102066Y0080040D01*
X0102066Y0080954D01*
X0105380Y0080954D01*
X0105380Y0080267D02*
X0102066Y0080267D01*
X0102066Y0080494D02*
X0105380Y0080494D01*
X0105380Y0080721D02*
X0102066Y0080721D01*
X0102066Y0080948D02*
X0105380Y0080948D01*
X0105380Y0078986D02*
X0105380Y0078072D01*
X0102066Y0078072D01*
X0102066Y0078986D01*
X0105380Y0078986D01*
X0105380Y0078299D02*
X0102066Y0078299D01*
X0102066Y0078526D02*
X0105380Y0078526D01*
X0105380Y0078753D02*
X0102066Y0078753D01*
X0102066Y0078980D02*
X0105380Y0078980D01*
X0105380Y0077017D02*
X0105380Y0076103D01*
X0102066Y0076103D01*
X0102066Y0077017D01*
X0105380Y0077017D01*
X0105380Y0076330D02*
X0102066Y0076330D01*
X0102066Y0076557D02*
X0105380Y0076557D01*
X0105380Y0076784D02*
X0102066Y0076784D01*
X0102066Y0077011D02*
X0105380Y0077011D01*
X0105380Y0075049D02*
X0105380Y0074135D01*
X0102066Y0074135D01*
X0102066Y0075049D01*
X0105380Y0075049D01*
X0105380Y0074362D02*
X0102066Y0074362D01*
X0102066Y0074589D02*
X0105380Y0074589D01*
X0105380Y0074816D02*
X0102066Y0074816D01*
X0102066Y0075043D02*
X0105380Y0075043D01*
X0105380Y0073080D02*
X0105380Y0072166D01*
X0102066Y0072166D01*
X0102066Y0073080D01*
X0105380Y0073080D01*
X0105380Y0072393D02*
X0102066Y0072393D01*
X0102066Y0072620D02*
X0105380Y0072620D01*
X0105380Y0072847D02*
X0102066Y0072847D01*
X0102066Y0073074D02*
X0105380Y0073074D01*
X0105380Y0071112D02*
X0105380Y0070198D01*
X0102066Y0070198D01*
X0102066Y0071112D01*
X0105380Y0071112D01*
X0105380Y0070425D02*
X0102066Y0070425D01*
X0102066Y0070652D02*
X0105380Y0070652D01*
X0105380Y0070879D02*
X0102066Y0070879D01*
X0102066Y0071106D02*
X0105380Y0071106D01*
X0105380Y0069143D02*
X0105380Y0068229D01*
X0102066Y0068229D01*
X0102066Y0069143D01*
X0105380Y0069143D01*
X0105380Y0068456D02*
X0102066Y0068456D01*
X0102066Y0068683D02*
X0105380Y0068683D01*
X0105380Y0068910D02*
X0102066Y0068910D01*
X0102066Y0069137D02*
X0105380Y0069137D01*
X0101030Y0063880D02*
X0100116Y0063880D01*
X0100116Y0067194D01*
X0101030Y0067194D01*
X0101030Y0063880D01*
X0101030Y0064107D02*
X0100116Y0064107D01*
X0100116Y0064334D02*
X0101030Y0064334D01*
X0101030Y0064561D02*
X0100116Y0064561D01*
X0100116Y0064788D02*
X0101030Y0064788D01*
X0101030Y0065015D02*
X0100116Y0065015D01*
X0100116Y0065242D02*
X0101030Y0065242D01*
X0101030Y0065469D02*
X0100116Y0065469D01*
X0100116Y0065696D02*
X0101030Y0065696D01*
X0101030Y0065923D02*
X0100116Y0065923D01*
X0100116Y0066150D02*
X0101030Y0066150D01*
X0101030Y0066377D02*
X0100116Y0066377D01*
X0100116Y0066604D02*
X0101030Y0066604D01*
X0101030Y0066831D02*
X0100116Y0066831D01*
X0100116Y0067058D02*
X0101030Y0067058D01*
X0099062Y0067194D02*
X0098148Y0067194D01*
X0099062Y0067194D02*
X0099062Y0063880D01*
X0098148Y0063880D01*
X0098148Y0067194D01*
X0098148Y0064107D02*
X0099062Y0064107D01*
X0099062Y0064334D02*
X0098148Y0064334D01*
X0098148Y0064561D02*
X0099062Y0064561D01*
X0099062Y0064788D02*
X0098148Y0064788D01*
X0098148Y0065015D02*
X0099062Y0065015D01*
X0099062Y0065242D02*
X0098148Y0065242D01*
X0098148Y0065469D02*
X0099062Y0065469D01*
X0099062Y0065696D02*
X0098148Y0065696D01*
X0098148Y0065923D02*
X0099062Y0065923D01*
X0099062Y0066150D02*
X0098148Y0066150D01*
X0098148Y0066377D02*
X0099062Y0066377D01*
X0099062Y0066604D02*
X0098148Y0066604D01*
X0098148Y0066831D02*
X0099062Y0066831D01*
X0099062Y0067058D02*
X0098148Y0067058D01*
X0097093Y0063880D02*
X0096179Y0063880D01*
X0096179Y0067194D01*
X0097093Y0067194D01*
X0097093Y0063880D01*
X0097093Y0064107D02*
X0096179Y0064107D01*
X0096179Y0064334D02*
X0097093Y0064334D01*
X0097093Y0064561D02*
X0096179Y0064561D01*
X0096179Y0064788D02*
X0097093Y0064788D01*
X0097093Y0065015D02*
X0096179Y0065015D01*
X0096179Y0065242D02*
X0097093Y0065242D01*
X0097093Y0065469D02*
X0096179Y0065469D01*
X0096179Y0065696D02*
X0097093Y0065696D01*
X0097093Y0065923D02*
X0096179Y0065923D01*
X0096179Y0066150D02*
X0097093Y0066150D01*
X0097093Y0066377D02*
X0096179Y0066377D01*
X0096179Y0066604D02*
X0097093Y0066604D01*
X0097093Y0066831D02*
X0096179Y0066831D01*
X0096179Y0067058D02*
X0097093Y0067058D01*
X0095125Y0063880D02*
X0094211Y0063880D01*
X0094211Y0067194D01*
X0095125Y0067194D01*
X0095125Y0063880D01*
X0095125Y0064107D02*
X0094211Y0064107D01*
X0094211Y0064334D02*
X0095125Y0064334D01*
X0095125Y0064561D02*
X0094211Y0064561D01*
X0094211Y0064788D02*
X0095125Y0064788D01*
X0095125Y0065015D02*
X0094211Y0065015D01*
X0094211Y0065242D02*
X0095125Y0065242D01*
X0095125Y0065469D02*
X0094211Y0065469D01*
X0094211Y0065696D02*
X0095125Y0065696D01*
X0095125Y0065923D02*
X0094211Y0065923D01*
X0094211Y0066150D02*
X0095125Y0066150D01*
X0095125Y0066377D02*
X0094211Y0066377D01*
X0094211Y0066604D02*
X0095125Y0066604D01*
X0095125Y0066831D02*
X0094211Y0066831D01*
X0094211Y0067058D02*
X0095125Y0067058D01*
X0093156Y0063880D02*
X0092242Y0063880D01*
X0092242Y0067194D01*
X0093156Y0067194D01*
X0093156Y0063880D01*
X0093156Y0064107D02*
X0092242Y0064107D01*
X0092242Y0064334D02*
X0093156Y0064334D01*
X0093156Y0064561D02*
X0092242Y0064561D01*
X0092242Y0064788D02*
X0093156Y0064788D01*
X0093156Y0065015D02*
X0092242Y0065015D01*
X0092242Y0065242D02*
X0093156Y0065242D01*
X0093156Y0065469D02*
X0092242Y0065469D01*
X0092242Y0065696D02*
X0093156Y0065696D01*
X0093156Y0065923D02*
X0092242Y0065923D01*
X0092242Y0066150D02*
X0093156Y0066150D01*
X0093156Y0066377D02*
X0092242Y0066377D01*
X0092242Y0066604D02*
X0093156Y0066604D01*
X0093156Y0066831D02*
X0092242Y0066831D01*
X0092242Y0067058D02*
X0093156Y0067058D01*
X0091188Y0063880D02*
X0090274Y0063880D01*
X0090274Y0067194D01*
X0091188Y0067194D01*
X0091188Y0063880D01*
X0091188Y0064107D02*
X0090274Y0064107D01*
X0090274Y0064334D02*
X0091188Y0064334D01*
X0091188Y0064561D02*
X0090274Y0064561D01*
X0090274Y0064788D02*
X0091188Y0064788D01*
X0091188Y0065015D02*
X0090274Y0065015D01*
X0090274Y0065242D02*
X0091188Y0065242D01*
X0091188Y0065469D02*
X0090274Y0065469D01*
X0090274Y0065696D02*
X0091188Y0065696D01*
X0091188Y0065923D02*
X0090274Y0065923D01*
X0090274Y0066150D02*
X0091188Y0066150D01*
X0091188Y0066377D02*
X0090274Y0066377D01*
X0090274Y0066604D02*
X0091188Y0066604D01*
X0091188Y0066831D02*
X0090274Y0066831D01*
X0090274Y0067058D02*
X0091188Y0067058D01*
X0089219Y0063880D02*
X0088305Y0063880D01*
X0088305Y0067194D01*
X0089219Y0067194D01*
X0089219Y0063880D01*
X0089219Y0064107D02*
X0088305Y0064107D01*
X0088305Y0064334D02*
X0089219Y0064334D01*
X0089219Y0064561D02*
X0088305Y0064561D01*
X0088305Y0064788D02*
X0089219Y0064788D01*
X0089219Y0065015D02*
X0088305Y0065015D01*
X0088305Y0065242D02*
X0089219Y0065242D01*
X0089219Y0065469D02*
X0088305Y0065469D01*
X0088305Y0065696D02*
X0089219Y0065696D01*
X0089219Y0065923D02*
X0088305Y0065923D01*
X0088305Y0066150D02*
X0089219Y0066150D01*
X0089219Y0066377D02*
X0088305Y0066377D01*
X0088305Y0066604D02*
X0089219Y0066604D01*
X0089219Y0066831D02*
X0088305Y0066831D01*
X0088305Y0067058D02*
X0089219Y0067058D01*
X0087251Y0063880D02*
X0086337Y0063880D01*
X0086337Y0067194D01*
X0087251Y0067194D01*
X0087251Y0063880D01*
X0087251Y0064107D02*
X0086337Y0064107D01*
X0086337Y0064334D02*
X0087251Y0064334D01*
X0087251Y0064561D02*
X0086337Y0064561D01*
X0086337Y0064788D02*
X0087251Y0064788D01*
X0087251Y0065015D02*
X0086337Y0065015D01*
X0086337Y0065242D02*
X0087251Y0065242D01*
X0087251Y0065469D02*
X0086337Y0065469D01*
X0086337Y0065696D02*
X0087251Y0065696D01*
X0087251Y0065923D02*
X0086337Y0065923D01*
X0086337Y0066150D02*
X0087251Y0066150D01*
X0087251Y0066377D02*
X0086337Y0066377D01*
X0086337Y0066604D02*
X0087251Y0066604D01*
X0087251Y0066831D02*
X0086337Y0066831D01*
X0086337Y0067058D02*
X0087251Y0067058D01*
X0081987Y0068229D02*
X0081987Y0069143D01*
X0085301Y0069143D01*
X0085301Y0068229D01*
X0081987Y0068229D01*
X0081987Y0068456D02*
X0085301Y0068456D01*
X0085301Y0068683D02*
X0081987Y0068683D01*
X0081987Y0068910D02*
X0085301Y0068910D01*
X0085301Y0069137D02*
X0081987Y0069137D01*
X0081987Y0070198D02*
X0081987Y0071112D01*
X0085301Y0071112D01*
X0085301Y0070198D01*
X0081987Y0070198D01*
X0081987Y0070425D02*
X0085301Y0070425D01*
X0085301Y0070652D02*
X0081987Y0070652D01*
X0081987Y0070879D02*
X0085301Y0070879D01*
X0085301Y0071106D02*
X0081987Y0071106D01*
X0081987Y0072166D02*
X0081987Y0073080D01*
X0085301Y0073080D01*
X0085301Y0072166D01*
X0081987Y0072166D01*
X0081987Y0072393D02*
X0085301Y0072393D01*
X0085301Y0072620D02*
X0081987Y0072620D01*
X0081987Y0072847D02*
X0085301Y0072847D01*
X0085301Y0073074D02*
X0081987Y0073074D01*
X0081987Y0074135D02*
X0081987Y0075049D01*
X0085301Y0075049D01*
X0085301Y0074135D01*
X0081987Y0074135D01*
X0081987Y0074362D02*
X0085301Y0074362D01*
X0085301Y0074589D02*
X0081987Y0074589D01*
X0081987Y0074816D02*
X0085301Y0074816D01*
X0085301Y0075043D02*
X0081987Y0075043D01*
X0081987Y0076103D02*
X0081987Y0077017D01*
X0085301Y0077017D01*
X0085301Y0076103D01*
X0081987Y0076103D01*
X0081987Y0076330D02*
X0085301Y0076330D01*
X0085301Y0076557D02*
X0081987Y0076557D01*
X0081987Y0076784D02*
X0085301Y0076784D01*
X0085301Y0077011D02*
X0081987Y0077011D01*
X0081987Y0078072D02*
X0081987Y0078986D01*
X0085301Y0078986D01*
X0085301Y0078072D01*
X0081987Y0078072D01*
X0081987Y0078299D02*
X0085301Y0078299D01*
X0085301Y0078526D02*
X0081987Y0078526D01*
X0081987Y0078753D02*
X0085301Y0078753D01*
X0085301Y0078980D02*
X0081987Y0078980D01*
X0081987Y0080040D02*
X0081987Y0080954D01*
X0085301Y0080954D01*
X0085301Y0080040D01*
X0081987Y0080040D01*
X0081987Y0080267D02*
X0085301Y0080267D01*
X0085301Y0080494D02*
X0081987Y0080494D01*
X0081987Y0080721D02*
X0085301Y0080721D01*
X0085301Y0080948D02*
X0081987Y0080948D01*
X0081987Y0082009D02*
X0081987Y0082923D01*
X0085301Y0082923D01*
X0085301Y0082009D01*
X0081987Y0082009D01*
X0081987Y0082236D02*
X0085301Y0082236D01*
X0085301Y0082463D02*
X0081987Y0082463D01*
X0081987Y0082690D02*
X0085301Y0082690D01*
X0085301Y0082917D02*
X0081987Y0082917D01*
D15*
X0089747Y0079513D03*
X0093684Y0079513D03*
X0097621Y0079513D03*
X0097621Y0075576D03*
X0097621Y0071639D03*
X0093684Y0071639D03*
X0093684Y0075576D03*
X0089747Y0075576D03*
X0089747Y0071639D03*
D16*
X0113928Y0071211D02*
X0115566Y0071211D01*
X0113928Y0071211D02*
X0113928Y0072849D01*
X0115566Y0072849D01*
X0115566Y0071211D01*
X0115566Y0071619D02*
X0113928Y0071619D01*
X0113928Y0072027D02*
X0115566Y0072027D01*
X0115566Y0072435D02*
X0113928Y0072435D01*
X0113928Y0072843D02*
X0115566Y0072843D01*
X0117077Y0071211D02*
X0118715Y0071211D01*
X0117077Y0071211D02*
X0117077Y0072849D01*
X0118715Y0072849D01*
X0118715Y0071211D01*
X0118715Y0071619D02*
X0117077Y0071619D01*
X0117077Y0072027D02*
X0118715Y0072027D01*
X0118715Y0072435D02*
X0117077Y0072435D01*
X0117077Y0072843D02*
X0118715Y0072843D01*
X0118715Y0068461D02*
X0117077Y0068461D01*
X0117077Y0070099D01*
X0118715Y0070099D01*
X0118715Y0068461D01*
X0118715Y0068869D02*
X0117077Y0068869D01*
X0117077Y0069277D02*
X0118715Y0069277D01*
X0118715Y0069685D02*
X0117077Y0069685D01*
X0117077Y0070093D02*
X0118715Y0070093D01*
X0115566Y0068461D02*
X0113928Y0068461D01*
X0113928Y0070099D01*
X0115566Y0070099D01*
X0115566Y0068461D01*
X0115566Y0068869D02*
X0113928Y0068869D01*
X0113928Y0069277D02*
X0115566Y0069277D01*
X0115566Y0069685D02*
X0113928Y0069685D01*
X0113928Y0070093D02*
X0115566Y0070093D01*
X0115566Y0061368D02*
X0113928Y0061368D01*
X0113928Y0063006D01*
X0115566Y0063006D01*
X0115566Y0061368D01*
X0115566Y0061776D02*
X0113928Y0061776D01*
X0113928Y0062184D02*
X0115566Y0062184D01*
X0115566Y0062592D02*
X0113928Y0062592D01*
X0113928Y0063000D02*
X0115566Y0063000D01*
X0117077Y0061368D02*
X0118715Y0061368D01*
X0117077Y0061368D02*
X0117077Y0063006D01*
X0118715Y0063006D01*
X0118715Y0061368D01*
X0118715Y0061776D02*
X0117077Y0061776D01*
X0117077Y0062184D02*
X0118715Y0062184D01*
X0118715Y0062592D02*
X0117077Y0062592D01*
X0117077Y0063000D02*
X0118715Y0063000D01*
X0118715Y0058618D02*
X0117077Y0058618D01*
X0117077Y0060256D01*
X0118715Y0060256D01*
X0118715Y0058618D01*
X0118715Y0059026D02*
X0117077Y0059026D01*
X0117077Y0059434D02*
X0118715Y0059434D01*
X0118715Y0059842D02*
X0117077Y0059842D01*
X0117077Y0060250D02*
X0118715Y0060250D01*
X0115566Y0058618D02*
X0113928Y0058618D01*
X0113928Y0060256D01*
X0115566Y0060256D01*
X0115566Y0058618D01*
X0115566Y0059026D02*
X0113928Y0059026D01*
X0113928Y0059434D02*
X0115566Y0059434D01*
X0115566Y0059842D02*
X0113928Y0059842D01*
X0113928Y0060250D02*
X0115566Y0060250D01*
X0115566Y0078303D02*
X0113928Y0078303D01*
X0113928Y0079941D01*
X0115566Y0079941D01*
X0115566Y0078303D01*
X0115566Y0078711D02*
X0113928Y0078711D01*
X0113928Y0079119D02*
X0115566Y0079119D01*
X0115566Y0079527D02*
X0113928Y0079527D01*
X0113928Y0079935D02*
X0115566Y0079935D01*
X0115566Y0081053D02*
X0113928Y0081053D01*
X0113928Y0082691D01*
X0115566Y0082691D01*
X0115566Y0081053D01*
X0115566Y0081461D02*
X0113928Y0081461D01*
X0113928Y0081869D02*
X0115566Y0081869D01*
X0115566Y0082277D02*
X0113928Y0082277D01*
X0113928Y0082685D02*
X0115566Y0082685D01*
X0117077Y0081053D02*
X0118715Y0081053D01*
X0117077Y0081053D02*
X0117077Y0082691D01*
X0118715Y0082691D01*
X0118715Y0081053D01*
X0118715Y0081461D02*
X0117077Y0081461D01*
X0117077Y0081869D02*
X0118715Y0081869D01*
X0118715Y0082277D02*
X0117077Y0082277D01*
X0117077Y0082685D02*
X0118715Y0082685D01*
X0118715Y0078303D02*
X0117077Y0078303D01*
X0117077Y0079941D01*
X0118715Y0079941D01*
X0118715Y0078303D01*
X0118715Y0078711D02*
X0117077Y0078711D01*
X0117077Y0079119D02*
X0118715Y0079119D01*
X0118715Y0079527D02*
X0117077Y0079527D01*
X0117077Y0079935D02*
X0118715Y0079935D01*
X0118715Y0096020D02*
X0117077Y0096020D01*
X0117077Y0097658D01*
X0118715Y0097658D01*
X0118715Y0096020D01*
X0118715Y0096428D02*
X0117077Y0096428D01*
X0117077Y0096836D02*
X0118715Y0096836D01*
X0118715Y0097244D02*
X0117077Y0097244D01*
X0117077Y0097652D02*
X0118715Y0097652D01*
X0118715Y0098770D02*
X0117077Y0098770D01*
X0117077Y0100408D01*
X0118715Y0100408D01*
X0118715Y0098770D01*
X0118715Y0099178D02*
X0117077Y0099178D01*
X0117077Y0099586D02*
X0118715Y0099586D01*
X0118715Y0099994D02*
X0117077Y0099994D01*
X0117077Y0100402D02*
X0118715Y0100402D01*
X0115566Y0098770D02*
X0113928Y0098770D01*
X0113928Y0100408D01*
X0115566Y0100408D01*
X0115566Y0098770D01*
X0115566Y0099178D02*
X0113928Y0099178D01*
X0113928Y0099586D02*
X0115566Y0099586D01*
X0115566Y0099994D02*
X0113928Y0099994D01*
X0113928Y0100402D02*
X0115566Y0100402D01*
X0115566Y0096020D02*
X0113928Y0096020D01*
X0113928Y0097658D01*
X0115566Y0097658D01*
X0115566Y0096020D01*
X0115566Y0096428D02*
X0113928Y0096428D01*
X0113928Y0096836D02*
X0115566Y0096836D01*
X0115566Y0097244D02*
X0113928Y0097244D01*
X0113928Y0097652D02*
X0115566Y0097652D01*
M02*
