G75*
%MOIN*%
%OFA0B0*%
%FSLAX25Y25*%
%IPPOS*%
%LPD*%
%AMOC8*
5,1,8,0,0,1.08239X$1,22.5*
%
%ADD10C,0.01262*%
%ADD11R,0.23228X0.47244*%
%ADD12R,0.23228X0.31496*%
%ADD13C,0.09849*%
%ADD14C,0.00316*%
%ADD15C,0.00320*%
%ADD16C,0.01020*%
%ADD17C,0.00568*%
%ADD18C,0.04000*%
D10*
X0133682Y0054869D02*
X0145418Y0054869D01*
X0145418Y0052975D01*
X0133682Y0052975D01*
X0133682Y0054869D01*
X0133682Y0054236D02*
X0145418Y0054236D01*
X0148568Y0058806D02*
X0133682Y0058806D01*
X0148568Y0058806D02*
X0148568Y0056912D01*
X0133682Y0056912D01*
X0133682Y0058806D01*
X0133682Y0058173D02*
X0148568Y0058173D01*
X0148568Y0062743D02*
X0133682Y0062743D01*
X0148568Y0062743D02*
X0148568Y0060849D01*
X0133682Y0060849D01*
X0133682Y0062743D01*
X0133682Y0062110D02*
X0148568Y0062110D01*
X0148568Y0066680D02*
X0133682Y0066680D01*
X0148568Y0066680D02*
X0148568Y0064786D01*
X0133682Y0064786D01*
X0133682Y0066680D01*
X0133682Y0066047D02*
X0148568Y0066047D01*
X0148568Y0070617D02*
X0133682Y0070617D01*
X0148568Y0070617D02*
X0148568Y0068723D01*
X0133682Y0068723D01*
X0133682Y0070617D01*
X0133682Y0069984D02*
X0148568Y0069984D01*
X0148568Y0074554D02*
X0133682Y0074554D01*
X0148568Y0074554D02*
X0148568Y0072660D01*
X0133682Y0072660D01*
X0133682Y0074554D01*
X0133682Y0073921D02*
X0148568Y0073921D01*
X0148568Y0078491D02*
X0133682Y0078491D01*
X0148568Y0078491D02*
X0148568Y0076597D01*
X0133682Y0076597D01*
X0133682Y0078491D01*
X0133682Y0077858D02*
X0148568Y0077858D01*
X0148568Y0082428D02*
X0133682Y0082428D01*
X0148568Y0082428D02*
X0148568Y0080534D01*
X0133682Y0080534D01*
X0133682Y0082428D01*
X0133682Y0081795D02*
X0148568Y0081795D01*
X0148568Y0086366D02*
X0133682Y0086366D01*
X0148568Y0086366D02*
X0148568Y0084472D01*
X0133682Y0084472D01*
X0133682Y0086366D01*
X0133682Y0085733D02*
X0148568Y0085733D01*
X0145418Y0098177D02*
X0133682Y0098177D01*
X0145418Y0098177D02*
X0145418Y0096283D01*
X0133682Y0096283D01*
X0133682Y0098177D01*
X0133682Y0097544D02*
X0145418Y0097544D01*
X0145418Y0102114D02*
X0133682Y0102114D01*
X0145418Y0102114D02*
X0145418Y0100220D01*
X0133682Y0100220D01*
X0133682Y0102114D01*
X0133682Y0101481D02*
X0145418Y0101481D01*
X0148568Y0106051D02*
X0133682Y0106051D01*
X0148568Y0106051D02*
X0148568Y0104157D01*
X0133682Y0104157D01*
X0133682Y0106051D01*
X0133682Y0105418D02*
X0148568Y0105418D01*
X0148568Y0109988D02*
X0133682Y0109988D01*
X0148568Y0109988D02*
X0148568Y0108094D01*
X0133682Y0108094D01*
X0133682Y0109988D01*
X0133682Y0109355D02*
X0148568Y0109355D01*
X0145418Y0113925D02*
X0133682Y0113925D01*
X0145418Y0113925D02*
X0145418Y0112031D01*
X0133682Y0112031D01*
X0133682Y0113925D01*
X0133682Y0113292D02*
X0145418Y0113292D01*
X0145418Y0117862D02*
X0133682Y0117862D01*
X0145418Y0117862D02*
X0145418Y0115968D01*
X0133682Y0115968D01*
X0133682Y0117862D01*
X0133682Y0117229D02*
X0145418Y0117229D01*
X0148568Y0121799D02*
X0133682Y0121799D01*
X0148568Y0121799D02*
X0148568Y0119905D01*
X0133682Y0119905D01*
X0133682Y0121799D01*
X0133682Y0121166D02*
X0148568Y0121166D01*
X0148568Y0050932D02*
X0133682Y0050932D01*
X0148568Y0050932D02*
X0148568Y0049038D01*
X0133682Y0049038D01*
X0133682Y0050932D01*
X0133682Y0050299D02*
X0148568Y0050299D01*
X0148568Y0046995D02*
X0133682Y0046995D01*
X0148568Y0046995D02*
X0148568Y0045101D01*
X0133682Y0045101D01*
X0133682Y0046995D01*
X0133682Y0046362D02*
X0148568Y0046362D01*
D11*
X0144471Y0065733D03*
D12*
X0144471Y0109041D03*
D13*
X0044963Y0052544D03*
X0064255Y0054907D03*
X0064255Y0111993D03*
X0044963Y0114356D03*
D14*
X0071974Y0100814D02*
X0071974Y0099550D01*
X0064410Y0099550D01*
X0064410Y0100814D01*
X0071974Y0100814D01*
X0071974Y0099865D02*
X0064410Y0099865D01*
X0064410Y0100180D02*
X0071974Y0100180D01*
X0071974Y0100495D02*
X0064410Y0100495D01*
X0064410Y0100810D02*
X0071974Y0100810D01*
X0071974Y0098846D02*
X0071974Y0097582D01*
X0064410Y0097582D01*
X0064410Y0098846D01*
X0071974Y0098846D01*
X0071974Y0097897D02*
X0064410Y0097897D01*
X0064410Y0098212D02*
X0071974Y0098212D01*
X0071974Y0098527D02*
X0064410Y0098527D01*
X0064410Y0098842D02*
X0071974Y0098842D01*
X0071974Y0096877D02*
X0071974Y0095613D01*
X0064410Y0095613D01*
X0064410Y0096877D01*
X0071974Y0096877D01*
X0071974Y0095928D02*
X0064410Y0095928D01*
X0064410Y0096243D02*
X0071974Y0096243D01*
X0071974Y0096558D02*
X0064410Y0096558D01*
X0064410Y0096873D02*
X0071974Y0096873D01*
X0071974Y0094909D02*
X0071974Y0093645D01*
X0064410Y0093645D01*
X0064410Y0094909D01*
X0071974Y0094909D01*
X0071974Y0093960D02*
X0064410Y0093960D01*
X0064410Y0094275D02*
X0071974Y0094275D01*
X0071974Y0094590D02*
X0064410Y0094590D01*
X0064410Y0094905D02*
X0071974Y0094905D01*
X0071974Y0092940D02*
X0071974Y0091676D01*
X0064410Y0091676D01*
X0064410Y0092940D01*
X0071974Y0092940D01*
X0071974Y0091991D02*
X0064410Y0091991D01*
X0064410Y0092306D02*
X0071974Y0092306D01*
X0071974Y0092621D02*
X0064410Y0092621D01*
X0064410Y0092936D02*
X0071974Y0092936D01*
X0071974Y0090972D02*
X0071974Y0089708D01*
X0064410Y0089708D01*
X0064410Y0090972D01*
X0071974Y0090972D01*
X0071974Y0090023D02*
X0064410Y0090023D01*
X0064410Y0090338D02*
X0071974Y0090338D01*
X0071974Y0090653D02*
X0064410Y0090653D01*
X0064410Y0090968D02*
X0071974Y0090968D01*
X0071974Y0089003D02*
X0071974Y0087739D01*
X0064410Y0087739D01*
X0064410Y0089003D01*
X0071974Y0089003D01*
X0071974Y0088054D02*
X0064410Y0088054D01*
X0064410Y0088369D02*
X0071974Y0088369D01*
X0071974Y0088684D02*
X0064410Y0088684D01*
X0064410Y0088999D02*
X0071974Y0088999D01*
X0071974Y0087035D02*
X0071974Y0085771D01*
X0064410Y0085771D01*
X0064410Y0087035D01*
X0071974Y0087035D01*
X0071974Y0086086D02*
X0064410Y0086086D01*
X0064410Y0086401D02*
X0071974Y0086401D01*
X0071974Y0086716D02*
X0064410Y0086716D01*
X0064410Y0087031D02*
X0071974Y0087031D01*
X0071974Y0085066D02*
X0071974Y0083802D01*
X0064410Y0083802D01*
X0064410Y0085066D01*
X0071974Y0085066D01*
X0071974Y0084117D02*
X0064410Y0084117D01*
X0064410Y0084432D02*
X0071974Y0084432D01*
X0071974Y0084747D02*
X0064410Y0084747D01*
X0064410Y0085062D02*
X0071974Y0085062D01*
X0071974Y0083098D02*
X0071974Y0081834D01*
X0064410Y0081834D01*
X0064410Y0083098D01*
X0071974Y0083098D01*
X0071974Y0082149D02*
X0064410Y0082149D01*
X0064410Y0082464D02*
X0071974Y0082464D01*
X0071974Y0082779D02*
X0064410Y0082779D01*
X0064410Y0083094D02*
X0071974Y0083094D01*
X0071974Y0081129D02*
X0071974Y0079865D01*
X0064410Y0079865D01*
X0064410Y0081129D01*
X0071974Y0081129D01*
X0071974Y0080180D02*
X0064410Y0080180D01*
X0064410Y0080495D02*
X0071974Y0080495D01*
X0071974Y0080810D02*
X0064410Y0080810D01*
X0064410Y0081125D02*
X0071974Y0081125D01*
X0071974Y0079161D02*
X0071974Y0077897D01*
X0064410Y0077897D01*
X0064410Y0079161D01*
X0071974Y0079161D01*
X0071974Y0078212D02*
X0064410Y0078212D01*
X0064410Y0078527D02*
X0071974Y0078527D01*
X0071974Y0078842D02*
X0064410Y0078842D01*
X0064410Y0079157D02*
X0071974Y0079157D01*
X0071974Y0077192D02*
X0071974Y0075928D01*
X0064410Y0075928D01*
X0064410Y0077192D01*
X0071974Y0077192D01*
X0071974Y0076243D02*
X0064410Y0076243D01*
X0064410Y0076558D02*
X0071974Y0076558D01*
X0071974Y0076873D02*
X0064410Y0076873D01*
X0064410Y0077188D02*
X0071974Y0077188D01*
X0071974Y0075224D02*
X0071974Y0073960D01*
X0064410Y0073960D01*
X0064410Y0075224D01*
X0071974Y0075224D01*
X0071974Y0074275D02*
X0064410Y0074275D01*
X0064410Y0074590D02*
X0071974Y0074590D01*
X0071974Y0074905D02*
X0064410Y0074905D01*
X0064410Y0075220D02*
X0071974Y0075220D01*
X0071974Y0073255D02*
X0071974Y0071991D01*
X0064410Y0071991D01*
X0064410Y0073255D01*
X0071974Y0073255D01*
X0071974Y0072306D02*
X0064410Y0072306D01*
X0064410Y0072621D02*
X0071974Y0072621D01*
X0071974Y0072936D02*
X0064410Y0072936D01*
X0064410Y0073251D02*
X0071974Y0073251D01*
X0071974Y0071287D02*
X0071974Y0070023D01*
X0064410Y0070023D01*
X0064410Y0071287D01*
X0071974Y0071287D01*
X0071974Y0070338D02*
X0064410Y0070338D01*
X0064410Y0070653D02*
X0071974Y0070653D01*
X0071974Y0070968D02*
X0064410Y0070968D01*
X0064410Y0071283D02*
X0071974Y0071283D01*
X0071974Y0069318D02*
X0071974Y0068054D01*
X0064410Y0068054D01*
X0064410Y0069318D01*
X0071974Y0069318D01*
X0071974Y0068369D02*
X0064410Y0068369D01*
X0064410Y0068684D02*
X0071974Y0068684D01*
X0071974Y0068999D02*
X0064410Y0068999D01*
X0064410Y0069314D02*
X0071974Y0069314D01*
X0071974Y0067350D02*
X0071974Y0066086D01*
X0064410Y0066086D01*
X0064410Y0067350D01*
X0071974Y0067350D01*
X0071974Y0066401D02*
X0064410Y0066401D01*
X0064410Y0066716D02*
X0071974Y0066716D01*
X0071974Y0067031D02*
X0064410Y0067031D01*
X0064410Y0067346D02*
X0071974Y0067346D01*
X0071974Y0065381D02*
X0071974Y0064117D01*
X0064410Y0064117D01*
X0064410Y0065381D01*
X0071974Y0065381D01*
X0071974Y0064432D02*
X0064410Y0064432D01*
X0064410Y0064747D02*
X0071974Y0064747D01*
X0071974Y0065062D02*
X0064410Y0065062D01*
X0064410Y0065377D02*
X0071974Y0065377D01*
D15*
X0106117Y0046958D02*
X0106117Y0043678D01*
X0104837Y0043678D01*
X0104837Y0046958D01*
X0106117Y0046958D01*
X0106117Y0043997D02*
X0104837Y0043997D01*
X0104837Y0044316D02*
X0106117Y0044316D01*
X0106117Y0044635D02*
X0104837Y0044635D01*
X0104837Y0044954D02*
X0106117Y0044954D01*
X0106117Y0045273D02*
X0104837Y0045273D01*
X0104837Y0045592D02*
X0106117Y0045592D01*
X0106117Y0045911D02*
X0104837Y0045911D01*
X0104837Y0046230D02*
X0106117Y0046230D01*
X0106117Y0046549D02*
X0104837Y0046549D01*
X0104837Y0046868D02*
X0106117Y0046868D01*
X0108117Y0046958D02*
X0108117Y0043678D01*
X0106837Y0043678D01*
X0106837Y0046958D01*
X0108117Y0046958D01*
X0108117Y0043997D02*
X0106837Y0043997D01*
X0106837Y0044316D02*
X0108117Y0044316D01*
X0108117Y0044635D02*
X0106837Y0044635D01*
X0106837Y0044954D02*
X0108117Y0044954D01*
X0108117Y0045273D02*
X0106837Y0045273D01*
X0106837Y0045592D02*
X0108117Y0045592D01*
X0108117Y0045911D02*
X0106837Y0045911D01*
X0106837Y0046230D02*
X0108117Y0046230D01*
X0108117Y0046549D02*
X0106837Y0046549D01*
X0106837Y0046868D02*
X0108117Y0046868D01*
X0110117Y0046958D02*
X0110117Y0043678D01*
X0108837Y0043678D01*
X0108837Y0046958D01*
X0110117Y0046958D01*
X0110117Y0043997D02*
X0108837Y0043997D01*
X0108837Y0044316D02*
X0110117Y0044316D01*
X0110117Y0044635D02*
X0108837Y0044635D01*
X0108837Y0044954D02*
X0110117Y0044954D01*
X0110117Y0045273D02*
X0108837Y0045273D01*
X0108837Y0045592D02*
X0110117Y0045592D01*
X0110117Y0045911D02*
X0108837Y0045911D01*
X0108837Y0046230D02*
X0110117Y0046230D01*
X0110117Y0046549D02*
X0108837Y0046549D01*
X0108837Y0046868D02*
X0110117Y0046868D01*
X0112117Y0046958D02*
X0112117Y0043678D01*
X0110837Y0043678D01*
X0110837Y0046958D01*
X0112117Y0046958D01*
X0112117Y0043997D02*
X0110837Y0043997D01*
X0110837Y0044316D02*
X0112117Y0044316D01*
X0112117Y0044635D02*
X0110837Y0044635D01*
X0110837Y0044954D02*
X0112117Y0044954D01*
X0112117Y0045273D02*
X0110837Y0045273D01*
X0110837Y0045592D02*
X0112117Y0045592D01*
X0112117Y0045911D02*
X0110837Y0045911D01*
X0110837Y0046230D02*
X0112117Y0046230D01*
X0112117Y0046549D02*
X0110837Y0046549D01*
X0110837Y0046868D02*
X0112117Y0046868D01*
X0112117Y0035958D02*
X0112117Y0032678D01*
X0110837Y0032678D01*
X0110837Y0035958D01*
X0112117Y0035958D01*
X0112117Y0032997D02*
X0110837Y0032997D01*
X0110837Y0033316D02*
X0112117Y0033316D01*
X0112117Y0033635D02*
X0110837Y0033635D01*
X0110837Y0033954D02*
X0112117Y0033954D01*
X0112117Y0034273D02*
X0110837Y0034273D01*
X0110837Y0034592D02*
X0112117Y0034592D01*
X0112117Y0034911D02*
X0110837Y0034911D01*
X0110837Y0035230D02*
X0112117Y0035230D01*
X0112117Y0035549D02*
X0110837Y0035549D01*
X0110837Y0035868D02*
X0112117Y0035868D01*
X0110117Y0035958D02*
X0110117Y0032678D01*
X0108837Y0032678D01*
X0108837Y0035958D01*
X0110117Y0035958D01*
X0110117Y0032997D02*
X0108837Y0032997D01*
X0108837Y0033316D02*
X0110117Y0033316D01*
X0110117Y0033635D02*
X0108837Y0033635D01*
X0108837Y0033954D02*
X0110117Y0033954D01*
X0110117Y0034273D02*
X0108837Y0034273D01*
X0108837Y0034592D02*
X0110117Y0034592D01*
X0110117Y0034911D02*
X0108837Y0034911D01*
X0108837Y0035230D02*
X0110117Y0035230D01*
X0110117Y0035549D02*
X0108837Y0035549D01*
X0108837Y0035868D02*
X0110117Y0035868D01*
X0108117Y0035958D02*
X0108117Y0032678D01*
X0106837Y0032678D01*
X0106837Y0035958D01*
X0108117Y0035958D01*
X0108117Y0032997D02*
X0106837Y0032997D01*
X0106837Y0033316D02*
X0108117Y0033316D01*
X0108117Y0033635D02*
X0106837Y0033635D01*
X0106837Y0033954D02*
X0108117Y0033954D01*
X0108117Y0034273D02*
X0106837Y0034273D01*
X0106837Y0034592D02*
X0108117Y0034592D01*
X0108117Y0034911D02*
X0106837Y0034911D01*
X0106837Y0035230D02*
X0108117Y0035230D01*
X0108117Y0035549D02*
X0106837Y0035549D01*
X0106837Y0035868D02*
X0108117Y0035868D01*
X0106117Y0035958D02*
X0106117Y0032678D01*
X0104837Y0032678D01*
X0104837Y0035958D01*
X0106117Y0035958D01*
X0106117Y0032997D02*
X0104837Y0032997D01*
X0104837Y0033316D02*
X0106117Y0033316D01*
X0106117Y0033635D02*
X0104837Y0033635D01*
X0104837Y0033954D02*
X0106117Y0033954D01*
X0106117Y0034273D02*
X0104837Y0034273D01*
X0104837Y0034592D02*
X0106117Y0034592D01*
X0106117Y0034911D02*
X0104837Y0034911D01*
X0104837Y0035230D02*
X0106117Y0035230D01*
X0106117Y0035549D02*
X0104837Y0035549D01*
X0104837Y0035868D02*
X0106117Y0035868D01*
D16*
X0110917Y0037778D02*
X0110917Y0041858D01*
X0110917Y0037778D02*
X0106037Y0037778D01*
X0106037Y0041858D01*
X0110917Y0041858D01*
X0110917Y0038797D02*
X0106037Y0038797D01*
X0106037Y0039816D02*
X0110917Y0039816D01*
X0110917Y0040835D02*
X0106037Y0040835D01*
X0106037Y0041854D02*
X0110917Y0041854D01*
D17*
X0101709Y0064794D02*
X0101709Y0067066D01*
X0101709Y0064794D02*
X0099437Y0064794D01*
X0099437Y0067066D01*
X0101709Y0067066D01*
X0101709Y0065361D02*
X0099437Y0065361D01*
X0099437Y0065928D02*
X0101709Y0065928D01*
X0101709Y0066495D02*
X0099437Y0066495D01*
X0099437Y0067062D02*
X0101709Y0067062D01*
X0101709Y0068338D02*
X0101709Y0070610D01*
X0101709Y0068338D02*
X0099437Y0068338D01*
X0099437Y0070610D01*
X0101709Y0070610D01*
X0101709Y0068905D02*
X0099437Y0068905D01*
X0099437Y0069472D02*
X0101709Y0069472D01*
X0101709Y0070039D02*
X0099437Y0070039D01*
X0099437Y0070606D02*
X0101709Y0070606D01*
X0085658Y0080542D02*
X0085658Y0082814D01*
X0087930Y0082814D01*
X0087930Y0080542D01*
X0085658Y0080542D01*
X0085658Y0081109D02*
X0087930Y0081109D01*
X0087930Y0081676D02*
X0085658Y0081676D01*
X0085658Y0082243D02*
X0087930Y0082243D01*
X0087930Y0082810D02*
X0085658Y0082810D01*
X0085658Y0084086D02*
X0085658Y0086358D01*
X0087930Y0086358D01*
X0087930Y0084086D01*
X0085658Y0084086D01*
X0085658Y0084653D02*
X0087930Y0084653D01*
X0087930Y0085220D02*
X0085658Y0085220D01*
X0085658Y0085787D02*
X0087930Y0085787D01*
X0087930Y0086354D02*
X0085658Y0086354D01*
D18*
X0078477Y0050950D03*
X0107227Y0129700D03*
M02*
