G75*
%MOIN*%
%OFA0B0*%
%FSLAX25Y25*%
%IPPOS*%
%LPD*%
%AMOC8*
5,1,8,0,0,1.08239X$1,22.5*
%
%ADD10C,0.00236*%
%ADD11C,0.00240*%
%ADD12R,0.01969X0.01575*%
%ADD13C,0.00488*%
D10*
X0071814Y0064277D02*
X0071814Y0065221D01*
X0071814Y0064277D02*
X0064570Y0064277D01*
X0064570Y0065221D01*
X0071814Y0065221D01*
X0071814Y0064512D02*
X0064570Y0064512D01*
X0064570Y0064747D02*
X0071814Y0064747D01*
X0071814Y0064982D02*
X0064570Y0064982D01*
X0064570Y0065217D02*
X0071814Y0065217D01*
X0071814Y0066246D02*
X0071814Y0067190D01*
X0071814Y0066246D02*
X0064570Y0066246D01*
X0064570Y0067190D01*
X0071814Y0067190D01*
X0071814Y0066481D02*
X0064570Y0066481D01*
X0064570Y0066716D02*
X0071814Y0066716D01*
X0071814Y0066951D02*
X0064570Y0066951D01*
X0064570Y0067186D02*
X0071814Y0067186D01*
X0071814Y0068214D02*
X0071814Y0069158D01*
X0071814Y0068214D02*
X0064570Y0068214D01*
X0064570Y0069158D01*
X0071814Y0069158D01*
X0071814Y0068449D02*
X0064570Y0068449D01*
X0064570Y0068684D02*
X0071814Y0068684D01*
X0071814Y0068919D02*
X0064570Y0068919D01*
X0064570Y0069154D02*
X0071814Y0069154D01*
X0071814Y0070183D02*
X0071814Y0071127D01*
X0071814Y0070183D02*
X0064570Y0070183D01*
X0064570Y0071127D01*
X0071814Y0071127D01*
X0071814Y0070418D02*
X0064570Y0070418D01*
X0064570Y0070653D02*
X0071814Y0070653D01*
X0071814Y0070888D02*
X0064570Y0070888D01*
X0064570Y0071123D02*
X0071814Y0071123D01*
X0071814Y0072151D02*
X0071814Y0073095D01*
X0071814Y0072151D02*
X0064570Y0072151D01*
X0064570Y0073095D01*
X0071814Y0073095D01*
X0071814Y0072386D02*
X0064570Y0072386D01*
X0064570Y0072621D02*
X0071814Y0072621D01*
X0071814Y0072856D02*
X0064570Y0072856D01*
X0064570Y0073091D02*
X0071814Y0073091D01*
X0071814Y0074120D02*
X0071814Y0075064D01*
X0071814Y0074120D02*
X0064570Y0074120D01*
X0064570Y0075064D01*
X0071814Y0075064D01*
X0071814Y0074355D02*
X0064570Y0074355D01*
X0064570Y0074590D02*
X0071814Y0074590D01*
X0071814Y0074825D02*
X0064570Y0074825D01*
X0064570Y0075060D02*
X0071814Y0075060D01*
X0071814Y0076088D02*
X0071814Y0077032D01*
X0071814Y0076088D02*
X0064570Y0076088D01*
X0064570Y0077032D01*
X0071814Y0077032D01*
X0071814Y0076323D02*
X0064570Y0076323D01*
X0064570Y0076558D02*
X0071814Y0076558D01*
X0071814Y0076793D02*
X0064570Y0076793D01*
X0064570Y0077028D02*
X0071814Y0077028D01*
X0071814Y0078057D02*
X0071814Y0079001D01*
X0071814Y0078057D02*
X0064570Y0078057D01*
X0064570Y0079001D01*
X0071814Y0079001D01*
X0071814Y0078292D02*
X0064570Y0078292D01*
X0064570Y0078527D02*
X0071814Y0078527D01*
X0071814Y0078762D02*
X0064570Y0078762D01*
X0064570Y0078997D02*
X0071814Y0078997D01*
X0071814Y0080025D02*
X0071814Y0080969D01*
X0071814Y0080025D02*
X0064570Y0080025D01*
X0064570Y0080969D01*
X0071814Y0080969D01*
X0071814Y0080260D02*
X0064570Y0080260D01*
X0064570Y0080495D02*
X0071814Y0080495D01*
X0071814Y0080730D02*
X0064570Y0080730D01*
X0064570Y0080965D02*
X0071814Y0080965D01*
X0071814Y0081994D02*
X0071814Y0082938D01*
X0071814Y0081994D02*
X0064570Y0081994D01*
X0064570Y0082938D01*
X0071814Y0082938D01*
X0071814Y0082229D02*
X0064570Y0082229D01*
X0064570Y0082464D02*
X0071814Y0082464D01*
X0071814Y0082699D02*
X0064570Y0082699D01*
X0064570Y0082934D02*
X0071814Y0082934D01*
X0071814Y0083962D02*
X0071814Y0084906D01*
X0071814Y0083962D02*
X0064570Y0083962D01*
X0064570Y0084906D01*
X0071814Y0084906D01*
X0071814Y0084197D02*
X0064570Y0084197D01*
X0064570Y0084432D02*
X0071814Y0084432D01*
X0071814Y0084667D02*
X0064570Y0084667D01*
X0064570Y0084902D02*
X0071814Y0084902D01*
X0071814Y0085931D02*
X0071814Y0086875D01*
X0071814Y0085931D02*
X0064570Y0085931D01*
X0064570Y0086875D01*
X0071814Y0086875D01*
X0071814Y0086166D02*
X0064570Y0086166D01*
X0064570Y0086401D02*
X0071814Y0086401D01*
X0071814Y0086636D02*
X0064570Y0086636D01*
X0064570Y0086871D02*
X0071814Y0086871D01*
X0071814Y0087899D02*
X0071814Y0088843D01*
X0071814Y0087899D02*
X0064570Y0087899D01*
X0064570Y0088843D01*
X0071814Y0088843D01*
X0071814Y0088134D02*
X0064570Y0088134D01*
X0064570Y0088369D02*
X0071814Y0088369D01*
X0071814Y0088604D02*
X0064570Y0088604D01*
X0064570Y0088839D02*
X0071814Y0088839D01*
X0071814Y0089868D02*
X0071814Y0090812D01*
X0071814Y0089868D02*
X0064570Y0089868D01*
X0064570Y0090812D01*
X0071814Y0090812D01*
X0071814Y0090103D02*
X0064570Y0090103D01*
X0064570Y0090338D02*
X0071814Y0090338D01*
X0071814Y0090573D02*
X0064570Y0090573D01*
X0064570Y0090808D02*
X0071814Y0090808D01*
X0071814Y0091836D02*
X0071814Y0092780D01*
X0071814Y0091836D02*
X0064570Y0091836D01*
X0064570Y0092780D01*
X0071814Y0092780D01*
X0071814Y0092071D02*
X0064570Y0092071D01*
X0064570Y0092306D02*
X0071814Y0092306D01*
X0071814Y0092541D02*
X0064570Y0092541D01*
X0064570Y0092776D02*
X0071814Y0092776D01*
X0071814Y0093805D02*
X0071814Y0094749D01*
X0071814Y0093805D02*
X0064570Y0093805D01*
X0064570Y0094749D01*
X0071814Y0094749D01*
X0071814Y0094040D02*
X0064570Y0094040D01*
X0064570Y0094275D02*
X0071814Y0094275D01*
X0071814Y0094510D02*
X0064570Y0094510D01*
X0064570Y0094745D02*
X0071814Y0094745D01*
X0071814Y0095773D02*
X0071814Y0096717D01*
X0071814Y0095773D02*
X0064570Y0095773D01*
X0064570Y0096717D01*
X0071814Y0096717D01*
X0071814Y0096008D02*
X0064570Y0096008D01*
X0064570Y0096243D02*
X0071814Y0096243D01*
X0071814Y0096478D02*
X0064570Y0096478D01*
X0064570Y0096713D02*
X0071814Y0096713D01*
X0071814Y0097742D02*
X0071814Y0098686D01*
X0071814Y0097742D02*
X0064570Y0097742D01*
X0064570Y0098686D01*
X0071814Y0098686D01*
X0071814Y0097977D02*
X0064570Y0097977D01*
X0064570Y0098212D02*
X0071814Y0098212D01*
X0071814Y0098447D02*
X0064570Y0098447D01*
X0064570Y0098682D02*
X0071814Y0098682D01*
X0071814Y0099710D02*
X0071814Y0100654D01*
X0071814Y0099710D02*
X0064570Y0099710D01*
X0064570Y0100654D01*
X0071814Y0100654D01*
X0071814Y0099945D02*
X0064570Y0099945D01*
X0064570Y0100180D02*
X0071814Y0100180D01*
X0071814Y0100415D02*
X0064570Y0100415D01*
X0064570Y0100650D02*
X0071814Y0100650D01*
D11*
X0105957Y0046798D02*
X0105957Y0043838D01*
X0104997Y0043838D01*
X0104997Y0046798D01*
X0105957Y0046798D01*
X0105957Y0044077D02*
X0104997Y0044077D01*
X0104997Y0044316D02*
X0105957Y0044316D01*
X0105957Y0044555D02*
X0104997Y0044555D01*
X0104997Y0044794D02*
X0105957Y0044794D01*
X0105957Y0045033D02*
X0104997Y0045033D01*
X0104997Y0045272D02*
X0105957Y0045272D01*
X0105957Y0045511D02*
X0104997Y0045511D01*
X0104997Y0045750D02*
X0105957Y0045750D01*
X0105957Y0045989D02*
X0104997Y0045989D01*
X0104997Y0046228D02*
X0105957Y0046228D01*
X0105957Y0046467D02*
X0104997Y0046467D01*
X0104997Y0046706D02*
X0105957Y0046706D01*
X0107957Y0046798D02*
X0107957Y0043838D01*
X0106997Y0043838D01*
X0106997Y0046798D01*
X0107957Y0046798D01*
X0107957Y0044077D02*
X0106997Y0044077D01*
X0106997Y0044316D02*
X0107957Y0044316D01*
X0107957Y0044555D02*
X0106997Y0044555D01*
X0106997Y0044794D02*
X0107957Y0044794D01*
X0107957Y0045033D02*
X0106997Y0045033D01*
X0106997Y0045272D02*
X0107957Y0045272D01*
X0107957Y0045511D02*
X0106997Y0045511D01*
X0106997Y0045750D02*
X0107957Y0045750D01*
X0107957Y0045989D02*
X0106997Y0045989D01*
X0106997Y0046228D02*
X0107957Y0046228D01*
X0107957Y0046467D02*
X0106997Y0046467D01*
X0106997Y0046706D02*
X0107957Y0046706D01*
X0109957Y0046798D02*
X0109957Y0043838D01*
X0108997Y0043838D01*
X0108997Y0046798D01*
X0109957Y0046798D01*
X0109957Y0044077D02*
X0108997Y0044077D01*
X0108997Y0044316D02*
X0109957Y0044316D01*
X0109957Y0044555D02*
X0108997Y0044555D01*
X0108997Y0044794D02*
X0109957Y0044794D01*
X0109957Y0045033D02*
X0108997Y0045033D01*
X0108997Y0045272D02*
X0109957Y0045272D01*
X0109957Y0045511D02*
X0108997Y0045511D01*
X0108997Y0045750D02*
X0109957Y0045750D01*
X0109957Y0045989D02*
X0108997Y0045989D01*
X0108997Y0046228D02*
X0109957Y0046228D01*
X0109957Y0046467D02*
X0108997Y0046467D01*
X0108997Y0046706D02*
X0109957Y0046706D01*
X0111957Y0046798D02*
X0111957Y0043838D01*
X0110997Y0043838D01*
X0110997Y0046798D01*
X0111957Y0046798D01*
X0111957Y0044077D02*
X0110997Y0044077D01*
X0110997Y0044316D02*
X0111957Y0044316D01*
X0111957Y0044555D02*
X0110997Y0044555D01*
X0110997Y0044794D02*
X0111957Y0044794D01*
X0111957Y0045033D02*
X0110997Y0045033D01*
X0110997Y0045272D02*
X0111957Y0045272D01*
X0111957Y0045511D02*
X0110997Y0045511D01*
X0110997Y0045750D02*
X0111957Y0045750D01*
X0111957Y0045989D02*
X0110997Y0045989D01*
X0110997Y0046228D02*
X0111957Y0046228D01*
X0111957Y0046467D02*
X0110997Y0046467D01*
X0110997Y0046706D02*
X0111957Y0046706D01*
X0111957Y0035798D02*
X0111957Y0032838D01*
X0110997Y0032838D01*
X0110997Y0035798D01*
X0111957Y0035798D01*
X0111957Y0033077D02*
X0110997Y0033077D01*
X0110997Y0033316D02*
X0111957Y0033316D01*
X0111957Y0033555D02*
X0110997Y0033555D01*
X0110997Y0033794D02*
X0111957Y0033794D01*
X0111957Y0034033D02*
X0110997Y0034033D01*
X0110997Y0034272D02*
X0111957Y0034272D01*
X0111957Y0034511D02*
X0110997Y0034511D01*
X0110997Y0034750D02*
X0111957Y0034750D01*
X0111957Y0034989D02*
X0110997Y0034989D01*
X0110997Y0035228D02*
X0111957Y0035228D01*
X0111957Y0035467D02*
X0110997Y0035467D01*
X0110997Y0035706D02*
X0111957Y0035706D01*
X0109957Y0035798D02*
X0109957Y0032838D01*
X0108997Y0032838D01*
X0108997Y0035798D01*
X0109957Y0035798D01*
X0109957Y0033077D02*
X0108997Y0033077D01*
X0108997Y0033316D02*
X0109957Y0033316D01*
X0109957Y0033555D02*
X0108997Y0033555D01*
X0108997Y0033794D02*
X0109957Y0033794D01*
X0109957Y0034033D02*
X0108997Y0034033D01*
X0108997Y0034272D02*
X0109957Y0034272D01*
X0109957Y0034511D02*
X0108997Y0034511D01*
X0108997Y0034750D02*
X0109957Y0034750D01*
X0109957Y0034989D02*
X0108997Y0034989D01*
X0108997Y0035228D02*
X0109957Y0035228D01*
X0109957Y0035467D02*
X0108997Y0035467D01*
X0108997Y0035706D02*
X0109957Y0035706D01*
X0107957Y0035798D02*
X0107957Y0032838D01*
X0106997Y0032838D01*
X0106997Y0035798D01*
X0107957Y0035798D01*
X0107957Y0033077D02*
X0106997Y0033077D01*
X0106997Y0033316D02*
X0107957Y0033316D01*
X0107957Y0033555D02*
X0106997Y0033555D01*
X0106997Y0033794D02*
X0107957Y0033794D01*
X0107957Y0034033D02*
X0106997Y0034033D01*
X0106997Y0034272D02*
X0107957Y0034272D01*
X0107957Y0034511D02*
X0106997Y0034511D01*
X0106997Y0034750D02*
X0107957Y0034750D01*
X0107957Y0034989D02*
X0106997Y0034989D01*
X0106997Y0035228D02*
X0107957Y0035228D01*
X0107957Y0035467D02*
X0106997Y0035467D01*
X0106997Y0035706D02*
X0107957Y0035706D01*
X0105957Y0035798D02*
X0105957Y0032838D01*
X0104997Y0032838D01*
X0104997Y0035798D01*
X0105957Y0035798D01*
X0105957Y0033077D02*
X0104997Y0033077D01*
X0104997Y0033316D02*
X0105957Y0033316D01*
X0105957Y0033555D02*
X0104997Y0033555D01*
X0104997Y0033794D02*
X0105957Y0033794D01*
X0105957Y0034033D02*
X0104997Y0034033D01*
X0104997Y0034272D02*
X0105957Y0034272D01*
X0105957Y0034511D02*
X0104997Y0034511D01*
X0104997Y0034750D02*
X0105957Y0034750D01*
X0105957Y0034989D02*
X0104997Y0034989D01*
X0104997Y0035228D02*
X0105957Y0035228D01*
X0105957Y0035467D02*
X0104997Y0035467D01*
X0104997Y0035706D02*
X0105957Y0035706D01*
D12*
X0106902Y0038440D03*
X0106902Y0041196D03*
X0110052Y0041196D03*
X0110052Y0038440D03*
D13*
X0101549Y0064954D02*
X0101549Y0066906D01*
X0101549Y0064954D02*
X0099597Y0064954D01*
X0099597Y0066906D01*
X0101549Y0066906D01*
X0101549Y0065441D02*
X0099597Y0065441D01*
X0099597Y0065928D02*
X0101549Y0065928D01*
X0101549Y0066415D02*
X0099597Y0066415D01*
X0099597Y0066902D02*
X0101549Y0066902D01*
X0101549Y0068498D02*
X0101549Y0070450D01*
X0101549Y0068498D02*
X0099597Y0068498D01*
X0099597Y0070450D01*
X0101549Y0070450D01*
X0101549Y0068985D02*
X0099597Y0068985D01*
X0099597Y0069472D02*
X0101549Y0069472D01*
X0101549Y0069959D02*
X0099597Y0069959D01*
X0099597Y0070446D02*
X0101549Y0070446D01*
X0085818Y0080702D02*
X0085818Y0082654D01*
X0087770Y0082654D01*
X0087770Y0080702D01*
X0085818Y0080702D01*
X0085818Y0081189D02*
X0087770Y0081189D01*
X0087770Y0081676D02*
X0085818Y0081676D01*
X0085818Y0082163D02*
X0087770Y0082163D01*
X0087770Y0082650D02*
X0085818Y0082650D01*
X0085818Y0084246D02*
X0085818Y0086198D01*
X0087770Y0086198D01*
X0087770Y0084246D01*
X0085818Y0084246D01*
X0085818Y0084733D02*
X0087770Y0084733D01*
X0087770Y0085220D02*
X0085818Y0085220D01*
X0085818Y0085707D02*
X0087770Y0085707D01*
X0087770Y0086194D02*
X0085818Y0086194D01*
M02*
